<?xml version="1.0" ?>
<svg xmlns="http://www.w3.org/2000/svg" version="1.1" width="512" height="512">
  <defs/>
  <g>
    <path d="M 526.3455200195312 450.1227722167969 C 561.8131713867188 502.36553955078125 549.1548461914062 524.6024169921875 391.3428039550781 531.86279296875 C 317.29669189453125 564.5404663085938 277.6711120605469 577.0325317382812 264.3792419433594 514.1265258789062 C 321.3576965332031 351.7870788574219 392.0474548339844 351.3053283691406 493.0067138671875 316.27056884765625 C 559.912841796875 331.7832336425781 565.7958984375 339.5616455078125 526.3455200195312 450.1227722167969" stroke-width="0.0" fill="rgb(112, 0, 195)" opacity="0.98869133" stroke="rgb(0, 0, 0)" stroke-opacity="1.0" stroke-linecap="round" stroke-linejoin="round"/>
    <path d="M 279.19805908203125 451.6802062988281 C 317.6799011230469 449.89434814453125 280.63311767578125 488.3034973144531 228.96075439453125 526.7321166992188 C -51.20000076293945 519.230712890625 -51.20000076293945 511.73809814453125 -61.56333923339844 453.2568664550781 C -36.86693572998047 183.30612182617188 -25.878742218017578 176.78500366210938 28.334943771362305 189.71388244628906 C 208.3759002685547 266.6673583984375 240.91729736328125 231.15380859375 279.19805908203125 451.6802062988281" stroke-width="0.0" fill="rgb(58, 192, 73)" opacity="0.9444058" stroke="rgb(0, 0, 0)" stroke-opacity="1.0" stroke-linecap="round" stroke-linejoin="round"/>
    <path d="M 274.0150451660156 359.3263854980469 C 400.6759948730469 360.8565673828125 230.93560791015625 452.485595703125 279.52032470703125 408.2803955078125 C 156.8292694091797 486.409423828125 60.64287185668945 357.146728515625 70.05706024169922 142.6475372314453 C 61.82089614868164 166.56678771972656 39.097835540771484 175.1300811767578 109.40963745117188 221.0102996826172 C 206.08583068847656 263.0190124511719 291.2225036621094 149.8355712890625 274.0150451660156 359.3263854980469" stroke-width="0.0" fill="rgb(0, 0, 25)" opacity="1.0" stroke="rgb(0, 0, 0)" stroke-opacity="1.0" stroke-linecap="round" stroke-linejoin="round"/>
    <path d="M 225.2936553955078 -6.475545406341553 C 219.10000610351562 204.7900848388672 221.30368041992188 180.3782958984375 68.13289642333984 230.12596130371094 C -2.9736154079437256 183.6017303466797 -43.85964584350586 206.05841064453125 -54.13801956176758 162.60751342773438 C -16.190303802490234 -17.708452224731445 -9.996477127075195 -23.574756622314453 32.775753021240234 -18.098133087158203 C 196.82273864746094 -23.394615173339844 224.5518341064453 -36.593833923339844 225.2936553955078 -6.475545406341553" stroke-width="0.0" fill="rgb(120, 235, 5)" opacity="0.9958708" stroke="rgb(0, 0, 0)" stroke-opacity="1.0" stroke-linecap="round" stroke-linejoin="round"/>
    <path d="M 557.4276733398438 125.18704223632812 C 470.5482482910156 322.5061950683594 460.6791076660156 381.48577880859375 363.0979919433594 300.6451416015625 C 416.10650634765625 214.7469024658203 167.25387573242188 337.6792907714844 225.30128479003906 219.38934326171875 C 223.12863159179688 35.03977966308594 185.6272430419922 -4.685197830200195 329.692626953125 -67.14777374267578 C 570.1046142578125 -3.2279605865478516 576.0381469726562 20.5423583984375 557.4276733398438 125.18704223632812" stroke-width="0.0" fill="rgb(228, 228, 123)" opacity="0.71119076" stroke="rgb(0, 0, 0)" stroke-opacity="1.0" stroke-linecap="round" stroke-linejoin="round"/>
    <path d="M 268.6090393066406 167.40301513671875 C 186.40513610839844 299.1341857910156 244.43270874023438 225.66893005371094 156.6523895263672 288.72662353515625 C 162.89820861816406 217.65966796875 95.18485260009766 222.7191619873047 60.43611526489258 279.7563781738281 C 153.76638793945312 145.79881286621094 115.28313446044922 66.87325286865234 349.881591796875 10.188158988952637 C 320.3666687011719 -37.20146560668945 251.3039093017578 -54.680721282958984 268.6090393066406 167.40301513671875" stroke-width="0.0" fill="rgb(0, 0, 49)" opacity="0.9970564" stroke="rgb(0, 0, 0)" stroke-opacity="1.0" stroke-linecap="round" stroke-linejoin="round"/>
    <path d="M 451.5997009277344 309.5521240234375 C 432.63433837890625 430.96820068359375 450.0955505371094 452.88812255859375 233.8373565673828 444.7054443359375 C 83.43022918701172 415.4212951660156 64.8133544921875 424.3612365722656 307.1995849609375 421.5781555175781 C 228.11740112304688 264.48614501953125 293.578369140625 193.5620880126953 313.5304260253906 205.1547088623047 C 457.42193603515625 203.48683166503906 470.70538330078125 234.88827514648438 451.5997009277344 309.5521240234375" stroke-width="0.0" fill="rgb(219, 154, 223)" opacity="0.009574356" stroke="rgb(0, 0, 0)" stroke-opacity="1.0" stroke-linecap="round" stroke-linejoin="round"/>
    <path d="M 586.7570190429688 223.42861938476562 C 586.1279296875 361.8725280761719 575.3419799804688 359.33807373046875 459.71240234375 409.13299560546875 C 401.67205810546875 378.1235656738281 423.16046142578125 334.18121337890625 365.73406982421875 263.7005310058594 C 362.8294372558594 72.35496520996094 330.6346435546875 -3.2003424167633057 500.0085754394531 26.334775924682617 C 581.55712890625 40.41316223144531 588.3134765625 62.3818359375 586.7570190429688 223.42861938476562" stroke-width="0.0" fill="rgb(68, 30, 229)" opacity="0.8484463" stroke="rgb(0, 0, 0)" stroke-opacity="1.0" stroke-linecap="round" stroke-linejoin="round"/>
    <path d="M 380.0728454589844 146.18997192382812 C 386.9864807128906 103.21864318847656 402.31048583984375 225.50149536132812 379.74127197265625 389.1417236328125 C 416.7040100097656 133.52114868164062 144.73582458496094 306.9294128417969 215.9669647216797 205.3651580810547 C 220.34173583984375 186.972412109375 301.85479736328125 194.12840270996094 357.5489501953125 204.82276916503906 C 376.5232238769531 80.05999755859375 350.77447509765625 123.04791259765625 380.0728454589844 146.18997192382812" stroke-width="0.0" fill="rgb(0, 18, 91)" opacity="1.0" stroke="rgb(0, 0, 0)" stroke-opacity="1.0" stroke-linecap="round" stroke-linejoin="round"/>
    <path d="M 214.318603515625 253.54644775390625 C 230.00106811523438 239.13015747070312 189.95980834960938 282.11346435546875 205.59939575195312 303.08416748046875 C 287.2228698730469 292.3789367675781 257.21240234375 249.47781372070312 212.0183563232422 257.65887451171875 C 190.0882568359375 209.9239044189453 216.35975646972656 203.73492431640625 201.10484313964844 247.79957580566406 C 249.49197387695312 258.8614196777344 212.2998504638672 248.23089599609375 214.318603515625 253.54644775390625" stroke-width="0.0" fill="rgb(0, 0, 6)" opacity="0.8984962" stroke="rgb(0, 0, 0)" stroke-opacity="1.0" stroke-linecap="round" stroke-linejoin="round"/>
    <path d="M 386.1620178222656 264.456787109375 C 386.0562438964844 244.7519073486328 414.3722839355469 250.3790740966797 424.8589782714844 362.8678283691406 C 331.74151611328125 360.965087890625 331.0030517578125 354.3881530761719 363.5480651855469 344.73956298828125 C 356.51336669921875 161.62698364257812 381.25103759765625 211.50588989257812 378.5718994140625 179.5565185546875 C 405.2523498535156 230.0100860595703 386.79833984375 238.49734497070312 386.1620178222656 264.456787109375" stroke-width="0.0" fill="rgb(5, 120, 255)" opacity="0.9738009" stroke="rgb(0, 0, 0)" stroke-opacity="1.0" stroke-linecap="round" stroke-linejoin="round"/>
    <path d="M 329.54345703125 78.63949584960938 C 252.8673095703125 94.08271789550781 285.1815185546875 118.8626480102539 175.37435913085938 113.89291381835938 C 166.5484161376953 136.5887451171875 178.0691680908203 53.126216888427734 132.17515563964844 164.86976623535156 C 141.55746459960938 59.37553405761719 170.58160400390625 24.78890037536621 209.43678283691406 -47.00527572631836 C 389.7267761230469 -34.805580139160156 414.4520568847656 -2.5879504680633545 329.54345703125 78.63949584960938" stroke-width="0.0" fill="rgb(86, 202, 112)" opacity="1.0" stroke="rgb(0, 0, 0)" stroke-opacity="1.0" stroke-linecap="round" stroke-linejoin="round"/>
    <path d="M 335.52825927734375 457.6064758300781 C 97.77790832519531 409.61480712890625 378.72760009765625 441.0921630859375 137.86569213867188 429.1790771484375 C 109.04095458984375 313.7242431640625 66.35269165039062 364.7253112792969 383.26141357421875 346.7976989746094 C 217.13015747070312 333.885498046875 -45.70889663696289 357.9462585449219 -2.676555633544922 311.7862548828125 C 134.82424926757812 375.79937744140625 539.1043701171875 283.3570556640625 335.52825927734375 457.6064758300781" stroke-width="0.0" fill="rgb(162, 217, 159)" opacity="0.88667303" stroke="rgb(0, 0, 0)" stroke-opacity="1.0" stroke-linecap="round" stroke-linejoin="round"/>
    <path d="M 543.6215209960938 46.557044982910156 C 507.6106262207031 63.339874267578125 462.02410888671875 84.97362518310547 468.2562255859375 54.915321350097656 C 508.1404113769531 74.64949798583984 488.32696533203125 92.23839569091797 411.1947937011719 117.0675277709961 C 360.54925537109375 -4.7598395347595215 367.3923645019531 -37.47301483154297 419.52301025390625 -35.23651885986328 C 547.2119140625 -3.8151321411132812 542.8233642578125 9.384869575500488 543.6215209960938 46.557044982910156" stroke-width="0.0" fill="rgb(71, 124, 188)" opacity="0.9772057" stroke="rgb(0, 0, 0)" stroke-opacity="1.0" stroke-linecap="round" stroke-linejoin="round"/>
    <path d="M 446.928955078125 399.00115966796875 C 438.0234069824219 430.5106506347656 447.96820068359375 446.295166015625 412.2337646484375 456.1133728027344 C 367.3440246582031 454.673583984375 360.1259460449219 475.9646301269531 358.771728515625 374.81097412109375 C 359.5014343261719 287.34246826171875 372.1417236328125 284.329833984375 411.6767272949219 359.79864501953125 C 460.2445983886719 390.066162109375 473.1753845214844 368.042724609375 446.928955078125 399.00115966796875" stroke-width="0.0" fill="rgb(0, 37, 235)" opacity="1.0" stroke="rgb(0, 0, 0)" stroke-opacity="1.0" stroke-linecap="round" stroke-linejoin="round"/>
    <path d="M 310.540283203125 428.6255798339844 C 297.67095947265625 439.8076171875 328.1866760253906 485.1231689453125 273.68621826171875 566.3723754882812 C 98.20240020751953 581.4658203125 70.14830780029297 568.1099853515625 55.89960861206055 432.29364013671875 C 286.2381896972656 439.8022155761719 341.60894775390625 443.6520690917969 303.1541442871094 436.3523864746094 C 313.8892822265625 431.7203674316406 317.4909973144531 425.0805358886719 310.540283203125 428.6255798339844" stroke-width="0.0" fill="rgb(91, 8, 212)" opacity="0.9893309" stroke="rgb(0, 0, 0)" stroke-opacity="1.0" stroke-linecap="round" stroke-linejoin="round"/>
    <path d="M 469.2224426269531 413.23150634765625 C 415.7496643066406 485.1792907714844 398.4869079589844 479.0724182128906 367.94927978515625 468.6209411621094 C 321.7606201171875 455.5405578613281 318.5791015625 494.5745544433594 292.9521484375 439.5880432128906 C 281.31427001953125 397.0284118652344 277.071533203125 435.1421813964844 324.50018310546875 456.75567626953125 C 423.4242248535156 412.2751159667969 414.6474609375 347.1682434082031 469.2224426269531 413.23150634765625" stroke-width="0.0" fill="rgb(127, 0, 214)" opacity="0.8213866" stroke="rgb(0, 0, 0)" stroke-opacity="1.0" stroke-linecap="round" stroke-linejoin="round"/>
    <path d="M 82.894287109375 419.0986633300781 C 111.1943359375 455.20001220703125 121.7319564819336 503.470947265625 -1.5954948663711548 514.2713012695312 C -34.65522766113281 415.3194580078125 -12.069414138793945 408.53912353515625 -5.6850361824035645 389.69183349609375 C 30.294069290161133 396.7962951660156 49.57923126220703 390.2639465332031 108.2500991821289 418.9075622558594 C 84.10994720458984 434.3469543457031 54.2613410949707 419.8742980957031 82.894287109375 419.0986633300781" stroke-width="0.0" fill="rgb(0, 134, 47)" opacity="0.4212677" stroke="rgb(0, 0, 0)" stroke-opacity="1.0" stroke-linecap="round" stroke-linejoin="round"/>
    <path d="M 368.7022399902344 101.43551635742188 C 364.245361328125 125.77224731445312 425.6219787597656 130.05972290039062 296.4732360839844 141.55194091796875 C 329.48406982421875 150.49061584472656 359.6763916015625 170.52577209472656 371.30303955078125 98.63866424560547 C 150.82713317871094 90.21665954589844 115.3790054321289 112.28457641601562 145.5826416015625 65.77674865722656 C 431.4039306640625 62.38506317138672 377.5917053222656 51.04579162597656 368.7022399902344 101.43551635742188" stroke-width="0.0" fill="rgb(255, 41, 70)" opacity="1.0" stroke="rgb(0, 0, 0)" stroke-opacity="1.0" stroke-linecap="round" stroke-linejoin="round"/>
    <path d="M 349.8631896972656 212.86154174804688 C 327.5196228027344 244.61224365234375 355.9545593261719 192.56057739257812 366.2477722167969 327.1684875488281 C 338.787353515625 113.13138580322266 416.77825927734375 204.24375915527344 219.53045654296875 175.47265625 C 188.5775604248047 201.3572235107422 450.38665771484375 191.2300567626953 367.5158386230469 199.67335510253906 C 344.20166015625 193.81289672851562 379.87725830078125 211.42578125 349.8631896972656 212.86154174804688" stroke-width="0.0" fill="rgb(173, 166, 112)" opacity="0.110911235" stroke="rgb(0, 0, 0)" stroke-opacity="1.0" stroke-linecap="round" stroke-linejoin="round"/>
    <path d="M 140.41139221191406 341.9971923828125 C 173.8613739013672 388.3230285644531 139.46966552734375 318.031494140625 145.3591766357422 435.55072021484375 C 29.290544509887695 482.0273742675781 -43.65220642089844 445.728515625 -14.960314750671387 342.2755432128906 C 37.41022872924805 245.47549438476562 79.85493469238281 246.3199462890625 143.399169921875 100.11505889892578 C 138.6044464111328 107.35832977294922 149.82272338867188 170.4479522705078 140.41139221191406 341.9971923828125" stroke-width="0.0" fill="rgb(30, 136, 125)" opacity="1.0" stroke="rgb(0, 0, 0)" stroke-opacity="1.0" stroke-linecap="round" stroke-linejoin="round"/>
    <path d="M 155.94894409179688 549.9423217773438 C 123.9425277709961 521.8115844726562 111.82440948486328 523.4666748046875 34.56639862060547 553.486572265625 C 18.388856887817383 557.64013671875 17.537019729614258 554.6123657226562 37.74284744262695 446.0247497558594 C 31.038631439208984 422.9548645019531 19.182125091552734 409.6333923339844 105.63139343261719 400.9815979003906 C 172.05545043945312 391.2154235839844 161.088134765625 453.79742431640625 155.94894409179688 549.9423217773438" stroke-width="0.0" fill="rgb(85, 53, 183)" opacity="0.8413699" stroke="rgb(0, 0, 0)" stroke-opacity="1.0" stroke-linecap="round" stroke-linejoin="round"/>
    <path d="M 225.40907287597656 137.75611877441406 C 302.3254699707031 227.54371643066406 278.7366638183594 57.503536224365234 282.2546081542969 174.2926483154297 C 282.46978759765625 230.9319305419922 190.98878479003906 196.2064666748047 214.4984588623047 144.75350952148438 C 236.26205444335938 247.0 316.7019958496094 132.49700927734375 222.19273376464844 120.61842346191406 C 297.9752502441406 61.80448913574219 284.182373046875 190.36387634277344 225.40907287597656 137.75611877441406" stroke-width="0.0" fill="rgb(0, 0, 34)" opacity="1.0" stroke="rgb(0, 0, 0)" stroke-opacity="1.0" stroke-linecap="round" stroke-linejoin="round"/>
    <path d="M 311.2305908203125 256.4556884765625 C 253.96885681152344 268.7308654785156 259.3175354003906 285.2658996582031 238.7133331298828 256.9723205566406 C 259.3865966796875 275.30718994140625 274.5760803222656 271.8677978515625 270.3065490722656 266.3052062988281 C 285.19097900390625 215.99102783203125 270.48828125 188.4843292236328 308.0896911621094 167.08987426757812 C 320.7064514160156 216.4096221923828 312.3255615234375 208.55430603027344 311.2305908203125 256.4556884765625" stroke-width="0.0" fill="rgb(252, 241, 107)" opacity="1.0" stroke="rgb(0, 0, 0)" stroke-opacity="1.0" stroke-linecap="round" stroke-linejoin="round"/>
    <path d="M 291.9165344238281 152.45716857910156 C 205.6027069091797 126.94752502441406 262.2114562988281 138.11245727539062 241.26922607421875 160.6021728515625 C 244.60107421875 156.26211547851562 123.43577575683594 160.64817810058594 146.94281005859375 147.79840087890625 C 168.24075317382812 96.17473602294922 205.3838348388672 103.11914825439453 211.4008026123047 110.14066314697266 C 248.61813354492188 100.943603515625 219.3652801513672 104.75325012207031 291.9165344238281 152.45716857910156" stroke-width="0.0" fill="rgb(0, 0, 11)" opacity="0.96916294" stroke="rgb(0, 0, 0)" stroke-opacity="1.0" stroke-linecap="round" stroke-linejoin="round"/>
    <path d="M 325.5244445800781 376.9638671875 C 356.91107177734375 268.4315490722656 335.6435241699219 316.6884765625 318.34844970703125 367.2540283203125 C 338.3635559082031 366.8936767578125 278.8414306640625 365.1588439941406 138.8697509765625 366.17156982421875 C 132.47467041015625 317.3471374511719 157.01882934570312 335.9768371582031 329.1330871582031 310.7884521484375 C 224.5481414794922 339.0289306640625 264.2294006347656 350.78277587890625 325.5244445800781 376.9638671875" stroke-width="0.0" fill="rgb(255, 255, 210)" opacity="1.0" stroke="rgb(0, 0, 0)" stroke-opacity="1.0" stroke-linecap="round" stroke-linejoin="round"/>
    <path d="M 81.12064361572266 522.1439819335938 C 42.75837707519531 546.9422607421875 18.774085998535156 536.531005859375 2.137380361557007 532.9228515625 C -9.364206314086914 527.7437133789062 -16.68471336364746 520.4232177734375 -29.308597564697266 497.3677673339844 C -38.322139739990234 473.1780700683594 -57.17603302001953 441.3189392089844 14.98725414276123 410.3612365722656 C 111.38898468017578 393.9051818847656 91.53107452392578 426.7492980957031 81.12064361572266 522.1439819335938" stroke-width="0.0" fill="rgb(78, 94, 157)" opacity="0.8159664" stroke="rgb(0, 0, 0)" stroke-opacity="1.0" stroke-linecap="round" stroke-linejoin="round"/>
    <path d="M 160.28115844726562 215.92221069335938 C 294.6851501464844 218.9574737548828 335.0718994140625 220.6027374267578 140.49984741210938 218.70379638671875 C 139.5915069580078 188.47462463378906 139.41468811035156 151.61566162109375 144.90721130371094 165.9531707763672 C 145.72024536132812 181.217041015625 135.12985229492188 114.93924713134766 140.13417053222656 96.0193099975586 C 168.8817596435547 87.01911926269531 166.19488525390625 123.71250915527344 160.28115844726562 215.92221069335938" stroke-width="0.0" fill="rgb(255, 248, 170)" opacity="1.0" stroke="rgb(0, 0, 0)" stroke-opacity="1.0" stroke-linecap="round" stroke-linejoin="round"/>
    <path d="M 182.7362518310547 99.75875091552734 C 152.1687469482422 113.33340454101562 148.1641845703125 95.44163513183594 140.0055694580078 153.16627502441406 C 138.85716247558594 157.68304443359375 165.22023010253906 127.62488555908203 156.21710205078125 90.04499816894531 C 149.42477416992188 83.64228057861328 204.9647216796875 98.16706848144531 170.97622680664062 96.89974212646484 C 201.96432495117188 94.94139099121094 204.2447509765625 90.27082824707031 182.7362518310547 99.75875091552734" stroke-width="0.0" fill="rgb(255, 255, 218)" opacity="0.5787329" stroke="rgb(0, 0, 0)" stroke-opacity="1.0" stroke-linecap="round" stroke-linejoin="round"/>
    <path d="M 445.6103515625 113.66551971435547 C 428.50384521484375 138.08697509765625 442.5135498046875 126.17092895507812 408.7168273925781 160.9539337158203 C 357.4358825683594 171.71844482421875 352.626220703125 155.22535705566406 362.6060791015625 80.1012954711914 C 332.67376708984375 56.92725372314453 309.0345764160156 44.3153190612793 360.9644775390625 -12.578449249267578 C 447.11602783203125 55.77224349975586 460.54571533203125 79.1241455078125 445.6103515625 113.66551971435547" stroke-width="0.0" fill="rgb(36, 134, 181)" opacity="1.0" stroke="rgb(0, 0, 0)" stroke-opacity="1.0" stroke-linecap="round" stroke-linejoin="round"/>
    <path d="M 358.7713317871094 240.36134338378906 C 365.9942932128906 268.1834411621094 331.9341735839844 276.141357421875 334.3663635253906 281.26055908203125 C 318.2477722167969 264.17681884765625 301.3833312988281 282.7403564453125 299.4339904785156 259.8720703125 C 316.8664855957031 233.2908477783203 346.5373229980469 233.229736328125 349.0982666015625 184.46766662597656 C 356.4877014160156 231.3160400390625 358.2533264160156 239.25352478027344 358.7713317871094 240.36134338378906" stroke-width="0.0" fill="rgb(247, 255, 239)" opacity="0.9764915" stroke="rgb(0, 0, 0)" stroke-opacity="1.0" stroke-linecap="round" stroke-linejoin="round"/>
    <path d="M 217.39791870117188 278.2425842285156 C 151.78176879882812 257.51190185546875 158.665283203125 302.0594177246094 167.36184692382812 369.2532653808594 C 126.54789733886719 368.2181091308594 139.0750274658203 308.60675048828125 139.39999389648438 205.93832397460938 C 173.97467041015625 214.55972290039062 165.6179962158203 240.1255340576172 192.1337432861328 239.66859436035156 C 202.3775634765625 232.4553985595703 257.2378234863281 235.44810485839844 217.39791870117188 278.2425842285156" stroke-width="0.0" fill="rgb(255, 255, 163)" opacity="1.0" stroke="rgb(0, 0, 0)" stroke-opacity="1.0" stroke-linecap="round" stroke-linejoin="round"/>
    <path d="M 173.36569213867188 421.4823913574219 C 179.91677856445312 410.1570739746094 183.52581787109375 432.5182800292969 170.78189086914062 453.6085510253906 C 131.7225341796875 450.52789306640625 125.3072738647461 443.0221252441406 137.09727478027344 439.02850341796875 C 137.19332885742188 429.8596496582031 145.2808380126953 404.4176330566406 201.7267608642578 416.05029296875 C 195.5567169189453 427.6261901855469 172.18215942382812 430.4302062988281 173.36569213867188 421.4823913574219" stroke-width="0.0" fill="rgb(234, 255, 113)" opacity="0.9469493" stroke="rgb(0, 0, 0)" stroke-opacity="1.0" stroke-linecap="round" stroke-linejoin="round"/>
    <path d="M 419.11407470703125 372.4664611816406 C 394.5018615722656 376.11529541015625 423.7544860839844 403.1781005859375 378.183837890625 448.8937072753906 C 316.4267272949219 470.2794189453125 341.4061279296875 453.323974609375 394.5043640136719 430.9626159667969 C 418.4485168457031 375.8656921386719 366.99737548828125 335.27093505859375 435.12542724609375 345.5952453613281 C 425.2540588378906 402.2073974609375 447.093994140625 383.6812438964844 419.11407470703125 372.4664611816406" stroke-width="0.0" fill="rgb(20, 57, 233)" opacity="0.986578" stroke="rgb(0, 0, 0)" stroke-opacity="1.0" stroke-linecap="round" stroke-linejoin="round"/>
    <path d="M 278.2733154296875 152.94268798828125 C 279.6004638671875 183.05572509765625 281.3088073730469 182.58181762695312 228.64157104492188 183.50018310546875 C 241.25636291503906 174.1440887451172 240.158935546875 132.57789611816406 231.3068084716797 112.42687225341797 C 227.97915649414062 114.16120910644531 252.60914611816406 107.05331420898438 234.74368286132812 116.14082336425781 C 238.85069274902344 117.99092864990234 283.8273620605469 124.0205078125 278.2733154296875 152.94268798828125" stroke-width="0.0" fill="rgb(10, 17, 46)" opacity="0.95918053" stroke="rgb(0, 0, 0)" stroke-opacity="1.0" stroke-linecap="round" stroke-linejoin="round"/>
    <path d="M 267.2152404785156 257.3819274902344 C 274.64349365234375 268.2776184082031 284.9445495605469 316.0847473144531 291.03326416015625 353.6618957519531 C 251.70266723632812 341.2899475097656 208.55764770507812 331.126220703125 254.88975524902344 333.35235595703125 C 321.7468566894531 312.05352783203125 297.44842529296875 280.6763610839844 205.94554138183594 266.0613708496094 C 229.3359832763672 224.21588134765625 240.85691833496094 255.73220825195312 267.2152404785156 257.3819274902344" stroke-width="0.0" fill="rgb(255, 255, 197)" opacity="1.0" stroke="rgb(0, 0, 0)" stroke-opacity="1.0" stroke-linecap="round" stroke-linejoin="round"/>
    <path d="M 166.23806762695312 346.1116943359375 C 179.49989318847656 352.61541748046875 172.4998321533203 357.7334289550781 138.36216735839844 354.2314758300781 C 141.9584503173828 356.0550537109375 139.6796112060547 359.4115905761719 136.22511291503906 317.87908935546875 C 112.93821716308594 322.98443603515625 143.27047729492188 323.4447326660156 169.5403594970703 318.4292297363281 C 189.29568481445312 332.5327453613281 170.86062622070312 359.6876220703125 166.23806762695312 346.1116943359375" stroke-width="0.0" fill="rgb(255, 255, 28)" opacity="0.31634802" stroke="rgb(0, 0, 0)" stroke-opacity="1.0" stroke-linecap="round" stroke-linejoin="round"/>
    <path d="M 181.77403259277344 279.981689453125 C 227.5218048095703 285.4361267089844 223.7981719970703 275.5092468261719 180.74058532714844 256.19500732421875 C 161.0165252685547 269.58099365234375 157.8264923095703 277.0621337890625 177.8780517578125 261.41217041015625 C 181.6339569091797 231.7021026611328 164.3599090576172 233.06898498535156 187.42410278320312 236.18809509277344 C 178.62303161621094 234.96713256835938 170.6773681640625 263.6631774902344 181.77403259277344 279.981689453125" stroke-width="0.0" fill="rgb(191, 117, 43)" opacity="0.010556342" stroke="rgb(0, 0, 0)" stroke-opacity="1.0" stroke-linecap="round" stroke-linejoin="round"/>
    <path d="M 335.443359375 272.2944641113281 C 318.5911560058594 290.5628662109375 300.62030029296875 312.9732666015625 288.7301330566406 297.6604309082031 C 275.7444763183594 283.4006042480469 252.16407775878906 265.9314270019531 245.07492065429688 263.5761413574219 C 227.876708984375 230.39642333984375 215.38697814941406 245.0303192138672 285.8836364746094 249.31434631347656 C 290.0731201171875 206.08050537109375 331.937744140625 208.83956909179688 335.443359375 272.2944641113281" stroke-width="0.0" fill="rgb(255, 255, 255)" opacity="1.0" stroke="rgb(0, 0, 0)" stroke-opacity="1.0" stroke-linecap="round" stroke-linejoin="round"/>
    <path d="M 152.89703369140625 283.28961181640625 C 141.58079528808594 315.7060241699219 149.01620483398438 347.07513427734375 168.69668579101562 349.7825012207031 C 164.77108764648438 359.0321960449219 161.62042236328125 347.6590270996094 155.4281463623047 346.0931091308594 C 140.0280303955078 346.11199951171875 129.89649963378906 325.94769287109375 176.45068359375 306.3128967285156 C 206.48287963867188 331.48260498046875 230.22317504882812 323.701171875 152.89703369140625 283.28961181640625" stroke-width="0.0" fill="rgb(138, 179, 123)" opacity="0.0" stroke="rgb(0, 0, 0)" stroke-opacity="1.0" stroke-linecap="round" stroke-linejoin="round"/>
    <path d="M 87.73832702636719 453.5032043457031 C 85.3299560546875 463.8282775878906 72.58101654052734 471.72894287109375 66.86442565917969 463.7976989746094 C 76.86042022705078 460.23931884765625 79.3709945678711 440.21466064453125 65.51294708251953 426.2618408203125 C 25.86989402770996 435.99652099609375 60.66939163208008 453.6734619140625 76.06854248046875 439.23974609375 C 68.7388916015625 447.6590576171875 77.57652282714844 443.9477844238281 87.73832702636719 453.5032043457031" stroke-width="0.0" fill="rgb(81, 117, 176)" opacity="0.038107313" stroke="rgb(0, 0, 0)" stroke-opacity="1.0" stroke-linecap="round" stroke-linejoin="round"/>
    <path d="M 410.9557800292969 486.8902587890625 C 424.7362365722656 484.0361633300781 418.3804626464844 483.7503967285156 446.1754150390625 480.9487609863281 C 419.3739013671875 468.25799560546875 410.8605651855469 469.5381774902344 416.8775939941406 472.5317687988281 C 407.3863220214844 446.1796875 407.4486083984375 436.3501281738281 429.0144958496094 426.3515625 C 411.2969970703125 435.82012939453125 404.36376953125 445.3697509765625 410.9557800292969 486.8902587890625" stroke-width="0.0" fill="rgb(31, 23, 175)" opacity="0.006264549" stroke="rgb(0, 0, 0)" stroke-opacity="1.0" stroke-linecap="round" stroke-linejoin="round"/>
    <path d="M 460.156982421875 349.9926452636719 C 462.41156005859375 393.1828308105469 460.7236633300781 400.885498046875 418.95751953125 396.1466064453125 C 417.2281799316406 394.2956237792969 418.822509765625 380.7840881347656 419.8909606933594 363.53857421875 C 425.2105712890625 360.2586364746094 436.8573303222656 348.85040283203125 423.15545654296875 371.30670166015625 C 403.1320495605469 344.9754638671875 450.8661804199219 329.5220947265625 460.156982421875 349.9926452636719" stroke-width="0.0" fill="rgb(97, 0, 201)" opacity="0.9751107" stroke="rgb(0, 0, 0)" stroke-opacity="1.0" stroke-linecap="round" stroke-linejoin="round"/>
    <path d="M 15.107711791992188 467.4129638671875 C 16.95709800720215 470.27423095703125 18.13631820678711 467.7119140625 46.641632080078125 477.1319580078125 C 43.77823257446289 465.84722900390625 47.037071228027344 470.03924560546875 36.92837142944336 449.7650451660156 C 36.79933547973633 490.93536376953125 29.98118019104004 487.0936584472656 24.75840950012207 455.87249755859375 C 20.496450424194336 459.7752685546875 25.759180068969727 481.6792297363281 15.107711791992188 467.4129638671875" stroke-width="0.0" fill="rgb(113, 11, 194)" opacity="0.010547489" stroke="rgb(0, 0, 0)" stroke-opacity="1.0" stroke-linecap="round" stroke-linejoin="round"/>
    <path d="M 122.23213195800781 254.5805206298828 C 117.47530364990234 203.84043884277344 137.62445068359375 212.77174377441406 132.53256225585938 275.27703857421875 C 129.72994995117188 301.79400634765625 96.55215454101562 281.053955078125 104.67351531982422 248.26243591308594 C 115.0352554321289 209.02391052246094 116.217041015625 231.878662109375 143.5717010498047 225.47091674804688 C 145.3566131591797 195.98252868652344 141.02764892578125 225.04505920410156 122.23213195800781 254.5805206298828" stroke-width="0.0" fill="rgb(2, 179, 37)" opacity="0.23849571" stroke="rgb(0, 0, 0)" stroke-opacity="1.0" stroke-linecap="round" stroke-linejoin="round"/>
    <path d="M 477.1795349121094 232.20358276367188 C 450.7385559082031 235.86634826660156 440.87493896484375 246.02886962890625 452.0150146484375 259.9946594238281 C 454.9640808105469 237.3007354736328 452.224609375 226.62655639648438 464.4400329589844 254.5718536376953 C 468.9435119628906 233.74220275878906 464.5850524902344 212.746826171875 472.0140686035156 217.24659729003906 C 467.5901794433594 220.57058715820312 489.42388916015625 225.83718872070312 477.1795349121094 232.20358276367188" stroke-width="0.0" fill="rgb(71, 165, 169)" opacity="0.0" stroke="rgb(0, 0, 0)" stroke-opacity="1.0" stroke-linecap="round" stroke-linejoin="round"/>
    <path d="M 341.7025451660156 193.2115478515625 C 334.4096984863281 193.0071563720703 337.2999572753906 205.1939239501953 365.23748779296875 202.15211486816406 C 341.6089782714844 219.111328125 336.9562072753906 212.6326141357422 344.9305725097656 189.34368896484375 C 328.47821044921875 191.28126525878906 340.35504150390625 158.101806640625 365.1169738769531 141.63050842285156 C 379.6625061035156 171.48143005371094 379.984375 209.84796142578125 341.7025451660156 193.2115478515625" stroke-width="0.0" fill="rgb(182, 255, 88)" opacity="0.20232245" stroke="rgb(0, 0, 0)" stroke-opacity="1.0" stroke-linecap="round" stroke-linejoin="round"/>
    <path d="M 49.62807846069336 431.4085388183594 C 73.00111389160156 458.8379821777344 53.10914611816406 481.12744140625 34.42803192138672 467.3140563964844 C 25.762165069580078 435.630859375 36.00227737426758 455.1335144042969 43.02490997314453 471.4726257324219 C 62.047061920166016 476.0718994140625 97.69908142089844 441.21038818359375 94.95320129394531 462.3739929199219 C 69.25708770751953 463.9965515136719 31.223487854003906 475.29217529296875 49.62807846069336 431.4085388183594" stroke-width="0.0" fill="rgb(108, 38, 158)" opacity="0.0023566326" stroke="rgb(0, 0, 0)" stroke-opacity="1.0" stroke-linecap="round" stroke-linejoin="round"/>
    <path d="M 485.70849609375 65.1965103149414 C 486.8359680175781 97.91136169433594 451.0089111328125 112.8329086303711 380.6311950683594 99.7193374633789 C 373.2897033691406 -14.19395637512207 392.1210632324219 -13.374701499938965 462.799560546875 15.849932670593262 C 471.76654052734375 39.871700286865234 445.05609130859375 30.4101505279541 464.16534423828125 15.775517463684082 C 516.1065673828125 25.190595626831055 507.42169189453125 31.876108169555664 485.70849609375 65.1965103149414" stroke-width="0.0" fill="rgb(115, 105, 190)" opacity="0.17807245" stroke="rgb(0, 0, 0)" stroke-opacity="1.0" stroke-linecap="round" stroke-linejoin="round"/>
    <path d="M 308.3841552734375 190.4144287109375 C 299.4408264160156 181.70387268066406 286.4978332519531 203.44752502441406 287.094970703125 179.1089324951172 C 293.94207763671875 204.3260955810547 302.52899169921875 205.87197875976562 276.84381103515625 187.73658752441406 C 279.1710510253906 179.474609375 262.5940246582031 143.27593994140625 286.5394287109375 110.46180725097656 C 320.12298583984375 117.36853790283203 308.04388427734375 168.038818359375 308.3841552734375 190.4144287109375" stroke-width="0.0" fill="rgb(255, 255, 21)" opacity="0.45147818" stroke="rgb(0, 0, 0)" stroke-opacity="1.0" stroke-linecap="round" stroke-linejoin="round"/>
    <path d="M 158.802001953125 47.140926361083984 C 177.31085205078125 52.1414794921875 161.6534423828125 67.54002380371094 134.52479553222656 70.18487548828125 C 120.93177032470703 60.153038024902344 129.73675537109375 51.06906509399414 132.53529357910156 56.0732307434082 C 129.11749267578125 42.06196212768555 119.36946868896484 30.47058868408203 126.89472198486328 39.84796142578125 C 149.5164794921875 30.86652946472168 145.461669921875 35.25102233886719 158.802001953125 47.140926361083984" stroke-width="0.0" fill="rgb(95, 188, 149)" opacity="0.0" stroke="rgb(0, 0, 0)" stroke-opacity="1.0" stroke-linecap="round" stroke-linejoin="round"/>
    <path d="M 227.94296264648438 341.5085144042969 C 209.6137237548828 326.43212890625 190.5839385986328 330.2130126953125 194.82968139648438 362.648681640625 C 190.9000244140625 339.4455261230469 199.94259643554688 314.6380615234375 210.7601776123047 356.23980712890625 C 196.73680114746094 367.79669189453125 181.6996612548828 350.6048583984375 191.8470001220703 339.9938049316406 C 206.56593322753906 335.93157958984375 220.8080596923828 348.99188232421875 227.94296264648438 341.5085144042969" stroke-width="0.0" fill="rgb(255, 224, 237)" opacity="0.0" stroke="rgb(0, 0, 0)" stroke-opacity="1.0" stroke-linecap="round" stroke-linejoin="round"/>
    <path d="M 59.47758483886719 320.4068603515625 C 63.666324615478516 338.3087463378906 52.57852554321289 350.5609436035156 27.098737716674805 345.0887145996094 C 7.756802558898926 340.2170715332031 14.880629539489746 338.11163330078125 18.142108917236328 320.5135498046875 C 16.510604858398438 313.43890380859375 33.129581451416016 302.1940612792969 41.643009185791016 303.3298034667969 C 54.58340835571289 300.9826965332031 56.60262680053711 300.14129638671875 59.47758483886719 320.4068603515625" stroke-width="0.0" fill="rgb(28, 81, 149)" opacity="0.026296193" stroke="rgb(0, 0, 0)" stroke-opacity="1.0" stroke-linecap="round" stroke-linejoin="round"/>
    <path d="M 443.0557861328125 459.61962890625 C 400.6805725097656 424.7759704589844 399.9029846191406 435.24688720703125 382.0794372558594 450.5329895019531 C 370.0692443847656 463.489990234375 381.4752502441406 467.2514343261719 389.7553405761719 442.0269470214844 C 403.9566955566406 456.349853515625 405.8773193359375 454.6946716308594 404.7618713378906 435.3070983886719 C 428.18609619140625 437.44451904296875 450.6283874511719 442.09942626953125 443.0557861328125 459.61962890625" stroke-width="0.0" fill="rgb(45, 165, 201)" opacity="0.0" stroke="rgb(0, 0, 0)" stroke-opacity="1.0" stroke-linecap="round" stroke-linejoin="round"/>
    <path d="M 150.5501708984375 255.49838256835938 C 161.96531677246094 276.83404541015625 165.48680114746094 299.35845947265625 110.10952758789062 294.0257263183594 C 113.51189422607422 286.4281311035156 101.536376953125 261.5347900390625 95.8508071899414 277.9761657714844 C 128.92506408691406 279.9620056152344 123.54549407958984 259.3869934082031 122.8060302734375 266.3487243652344 C 131.2551727294922 273.3321838378906 145.43511962890625 285.01947021484375 150.5501708984375 255.49838256835938" stroke-width="0.0" fill="rgb(49, 83, 237)" opacity="0.005825503" stroke="rgb(0, 0, 0)" stroke-opacity="1.0" stroke-linecap="round" stroke-linejoin="round"/>
    <path d="M 152.4085235595703 457.69134521484375 C 138.1894073486328 463.4808349609375 128.95501708984375 463.1822814941406 109.53282165527344 455.75054931640625 C 118.93576049804688 452.82073974609375 98.71699523925781 457.6122741699219 97.0770492553711 447.3517761230469 C 84.2392349243164 441.4433288574219 82.3727798461914 416.05853271484375 113.47203826904297 414.635498046875 C 136.21209716796875 428.5633239746094 158.14134216308594 434.08209228515625 152.4085235595703 457.69134521484375" stroke-width="0.0" fill="rgb(160, 42, 164)" opacity="0.99460363" stroke="rgb(0, 0, 0)" stroke-opacity="1.0" stroke-linecap="round" stroke-linejoin="round"/>
    <path d="M 263.46356201171875 27.607378005981445 C 267.67657470703125 41.300838470458984 262.25146484375 49.7484016418457 264.28948974609375 52.396507263183594 C 258.30157470703125 48.84303283691406 246.87454223632812 44.36026382446289 247.65965270996094 57.47508239746094 C 231.69619750976562 26.94468879699707 238.95175170898438 31.77369499206543 243.77392578125 20.85629653930664 C 254.3094024658203 19.946622848510742 248.62889099121094 29.871694564819336 263.46356201171875 27.607378005981445" stroke-width="0.0" fill="rgb(44, 248, 92)" opacity="0.058470428" stroke="rgb(0, 0, 0)" stroke-opacity="1.0" stroke-linecap="round" stroke-linejoin="round"/>
    <path d="M 137.62887573242188 329.01556396484375 C 145.00701904296875 356.1467590332031 160.21730041503906 366.3965148925781 120.78431701660156 376.6065673828125 C 94.234375 376.36114501953125 66.26441955566406 372.5658874511719 78.31737518310547 324.4927978515625 C 60.713958740234375 295.75335693359375 122.2380599975586 299.6263122558594 134.89952087402344 312.5754089355469 C 100.91088104248047 321.9585266113281 123.49506378173828 329.3888244628906 137.62887573242188 329.01556396484375" stroke-width="0.0" fill="rgb(100, 37, 210)" opacity="0.127819" stroke="rgb(0, 0, 0)" stroke-opacity="1.0" stroke-linecap="round" stroke-linejoin="round"/>
    <path d="M 519.42138671875 221.16714477539062 C 540.6138916015625 262.93292236328125 534.2811279296875 269.0476989746094 523.7882080078125 313.26422119140625 C 431.8232421875 317.3224182128906 434.67535400390625 295.6438293457031 449.87689208984375 211.55426025390625 C 472.08380126953125 192.89247131347656 473.0423583984375 172.75413513183594 493.291748046875 176.96768188476562 C 528.3611450195312 158.40274047851562 525.8784790039062 176.28807067871094 519.42138671875 221.16714477539062" stroke-width="0.0" fill="rgb(117, 36, 242)" opacity="0.44975463" stroke="rgb(0, 0, 0)" stroke-opacity="1.0" stroke-linecap="round" stroke-linejoin="round"/>
    <path d="M 469.9786071777344 276.6973571777344 C 464.0379943847656 290.110107421875 454.19610595703125 291.5892333984375 425.9681701660156 283.0118408203125 C 418.4609680175781 290.3504333496094 416.55230712890625 264.9454345703125 416.3499755859375 261.5849914550781 C 415.5432434082031 253.75991821289062 435.0231628417969 258.2827453613281 433.745361328125 248.7880096435547 C 436.128173828125 237.7841033935547 449.1247253417969 251.938720703125 469.9786071777344 276.6973571777344" stroke-width="0.0" fill="rgb(65, 85, 216)" opacity="0.0070720315" stroke="rgb(0, 0, 0)" stroke-opacity="1.0" stroke-linecap="round" stroke-linejoin="round"/>
    <path d="M 491.2496337890625 46.24382781982422 C 488.5875549316406 69.73125457763672 508.39495849609375 104.45347595214844 497.5059509277344 111.29048919677734 C 457.6249084472656 92.07958984375 464.2252197265625 83.94005584716797 483.24993896484375 67.76697540283203 C 472.3814392089844 54.36431884765625 483.5260314941406 41.06145095825195 514.020751953125 50.88593292236328 C 478.1309814453125 60.455238342285156 493.40289306640625 65.7763442993164 491.2496337890625 46.24382781982422" stroke-width="0.0" fill="rgb(33, 133, 149)" opacity="0.020460937" stroke="rgb(0, 0, 0)" stroke-opacity="1.0" stroke-linecap="round" stroke-linejoin="round"/>
    <path d="M 85.56812286376953 204.67489624023438 C 75.76936340332031 230.1586456298828 56.35456466674805 236.3437957763672 18.993574142456055 235.14430236816406 C 7.747669696807861 212.3090362548828 18.116731643676758 191.28465270996094 16.251632690429688 180.32876586914062 C 6.315493106842041 176.3917999267578 66.07243347167969 163.95700073242188 71.5426254272461 197.71701049804688 C 52.87268829345703 187.6675262451172 50.0186653137207 195.5705108642578 85.56812286376953 204.67489624023438" stroke-width="0.0" fill="rgb(146, 113, 204)" opacity="0.09573482" stroke="rgb(0, 0, 0)" stroke-opacity="1.0" stroke-linecap="round" stroke-linejoin="round"/>
    <path d="M 157.09091186523438 351.5389099121094 C 128.54627990722656 329.6955261230469 123.09861755371094 343.8065490722656 97.95636749267578 355.1263732910156 C 116.53266906738281 393.5065612792969 118.29978942871094 353.44403076171875 121.63186645507812 340.6123046875 C 97.675537109375 345.3058776855469 97.41581726074219 309.0632629394531 65.93761444091797 365.436279296875 C 110.59134674072266 403.6926574707031 145.6270294189453 386.5246276855469 157.09091186523438 351.5389099121094" stroke-width="0.0" fill="rgb(97, 45, 248)" opacity="0.0" stroke="rgb(0, 0, 0)" stroke-opacity="1.0" stroke-linecap="round" stroke-linejoin="round"/>
    <path d="M 51.309234619140625 95.23381805419922 C 63.802093505859375 109.67664337158203 52.4052848815918 103.34284210205078 29.394716262817383 89.16051483154297 C 31.25324058532715 85.69212341308594 13.354874610900879 83.34121704101562 8.697992324829102 93.94801330566406 C 15.90888786315918 90.01264190673828 15.035234451293945 81.70557403564453 12.612359046936035 79.29487609863281 C 9.812787055969238 86.76384735107422 41.14087677001953 98.78215789794922 51.309234619140625 95.23381805419922" stroke-width="0.0" fill="rgb(171, 183, 160)" opacity="0.0" stroke="rgb(0, 0, 0)" stroke-opacity="1.0" stroke-linecap="round" stroke-linejoin="round"/>
  </g>
</svg>
