<?xml version="1.0" ?>
<svg xmlns="http://www.w3.org/2000/svg" version="1.1" width="512" height="512">
  <defs/>
  <g>
    <path d="M 528.7552490234375 459.31787109375 C 548.88232421875 518.2211303710938 549.809814453125 525.8021850585938 393.2659606933594 518.9083862304688 C 339.5354919433594 538.0130615234375 318.9873962402344 533.5435791015625 293.2479248046875 471.8721008300781 C 312.4088134765625 330.8376770019531 394.5640563964844 326.1806335449219 515.0752563476562 319.1258239746094 C 559.9204711914062 330.8873596191406 557.1511840820312 346.2176208496094 528.7552490234375 459.31787109375" stroke-width="0.0" fill="rgb(0, 39, 147)" opacity="1.0" stroke="rgb(0, 0, 0)" stroke-opacity="1.0" stroke-linecap="round" stroke-linejoin="round"/>
    <path d="M 325.5635070800781 456.077880859375 C 350.7942199707031 519.0018310546875 368.981689453125 525.8760986328125 238.24444580078125 530.0095825195312 C -51.100406646728516 521.1051635742188 -51.19970703125 512.4564819335938 -66.07953643798828 458.31475830078125 C -42.13768005371094 194.8055877685547 -24.888565063476562 188.17071533203125 16.14617347717285 195.29541015625 C 145.07337951660156 307.8701477050781 186.85147094726562 296.2027587890625 325.5635070800781 456.077880859375" stroke-width="0.0" fill="rgb(0, 42, 173)" opacity="1.0" stroke="rgb(0, 0, 0)" stroke-opacity="1.0" stroke-linecap="round" stroke-linejoin="round"/>
    <path d="M 314.56427001953125 368.3224792480469 C 320.8006896972656 445.1679382324219 309.3537902832031 410.9695739746094 190.09751892089844 419.4401550292969 C 42.085960388183594 375.6797180175781 66.12019348144531 324.7110290527344 44.18266296386719 159.8740234375 C 25.499187469482422 189.21127319335938 44.76317596435547 181.8059539794922 124.71018981933594 191.31283569335938 C 267.6357727050781 179.67724609375 303.29449462890625 137.59976196289062 314.56427001953125 368.3224792480469" stroke-width="0.0" fill="rgb(255, 226, 35)" opacity="0.9929908" stroke="rgb(0, 0, 0)" stroke-opacity="1.0" stroke-linecap="round" stroke-linejoin="round"/>
    <path d="M 268.48406982421875 11.198863983154297 C 270.2857360839844 237.2366180419922 247.20445251464844 178.16845703125 27.109161376953125 243.2963104248047 C -52.51579284667969 229.6717529296875 -49.658138275146484 215.7960662841797 -42.8967399597168 178.82896423339844 C -16.494123458862305 -18.97837257385254 -10.838438034057617 -25.126850128173828 33.08271789550781 -27.877626419067383 C 205.79612731933594 -34.31495666503906 231.70492553710938 -47.1296272277832 268.48406982421875 11.198863983154297" stroke-width="0.0" fill="rgb(0, 45, 176)" opacity="0.99206305" stroke="rgb(0, 0, 0)" stroke-opacity="1.0" stroke-linecap="round" stroke-linejoin="round"/>
    <path d="M 564.5116577148438 57.33966827392578 C 445.7476501464844 284.2035827636719 437.5873107910156 291.0863342285156 363.9228210449219 326.1617736816406 C 272.3238525390625 338.2377014160156 305.9452209472656 313.58453369140625 260.3409118652344 168.27513122558594 C 261.39111328125 9.054163932800293 191.57369995117188 -26.592601776123047 347.0831298828125 -25.023571014404297 C 563.2000122070312 -5.52442741394043 563.2000122070312 4.830130577087402 564.5116577148438 57.33966827392578" stroke-width="0.0" fill="rgb(0, 43, 161)" opacity="0.9919282" stroke="rgb(0, 0, 0)" stroke-opacity="1.0" stroke-linecap="round" stroke-linejoin="round"/>
    <path d="M 335.9846496582031 57.743125915527344 C 286.9652404785156 286.6197204589844 245.33926391601562 290.85498046875 187.2617950439453 232.76116943359375 C 59.924407958984375 255.2261199951172 31.95148468017578 254.49916076660156 62.41841125488281 218.34910583496094 C 101.6422119140625 151.6748809814453 127.84564971923828 145.4830322265625 312.14703369140625 44.849632263183594 C 304.2239990234375 -22.6842041015625 293.3377685546875 -12.392413139343262 335.9846496582031 57.743125915527344" stroke-width="0.0" fill="rgb(166, 143, 88)" opacity="0.774599" stroke="rgb(0, 0, 0)" stroke-opacity="1.0" stroke-linecap="round" stroke-linejoin="round"/>
    <path d="M 460.5627746582031 335.9161682128906 C 460.07110595703125 410.9124450683594 478.6636962890625 502.9503479003906 340.880126953125 482.8322448730469 C 291.00885009765625 409.6026916503906 284.4812316894531 400.6378479003906 269.1250305175781 380.948486328125 C 248.83753967285156 182.12957763671875 227.4193878173828 204.51712036132812 332.6665344238281 217.75904846191406 C 424.545654296875 264.1741027832031 454.5992736816406 263.5399475097656 460.5627746582031 335.9161682128906" stroke-width="0.0" fill="rgb(246, 246, 3)" opacity="0.96937793" stroke="rgb(0, 0, 0)" stroke-opacity="1.0" stroke-linecap="round" stroke-linejoin="round"/>
    <path d="M 540.7455444335938 161.2100372314453 C 552.6297607421875 323.9480285644531 565.3626098632812 354.69659423828125 485.1689453125 418.00299072265625 C 364.7791442871094 395.0064697265625 393.0794677734375 325.68212890625 386.6520080566406 294.003662109375 C 383.7946472167969 194.35353088378906 400.69189453125 132.26173400878906 532.4143676757812 82.01000213623047 C 563.2000122070312 76.2098159790039 563.2000122070312 99.41815185546875 540.7455444335938 161.2100372314453" stroke-width="0.0" fill="rgb(2, 22, 153)" opacity="0.99794704" stroke="rgb(0, 0, 0)" stroke-opacity="1.0" stroke-linecap="round" stroke-linejoin="round"/>
    <path d="M 414.2022705078125 271.0079345703125 C 413.73968505859375 291.69671630859375 372.1894836425781 242.04537963867188 356.6549987792969 263.6529846191406 C 344.6109313964844 246.7052001953125 306.44110107421875 203.88710021972656 202.97979736328125 277.6709289550781 C 244.61314392089844 165.462890625 254.90127563476562 206.07025146484375 338.7065734863281 203.7933349609375 C 364.7865295410156 187.07357788085938 391.7411193847656 204.6478729248047 414.2022705078125 271.0079345703125" stroke-width="0.0" fill="rgb(255, 216, 20)" opacity="1.0" stroke="rgb(0, 0, 0)" stroke-opacity="1.0" stroke-linecap="round" stroke-linejoin="round"/>
    <path d="M 484.19866943359375 235.9311065673828 C 522.8629150390625 339.7408447265625 499.74615478515625 427.0462341308594 366.0009765625 412.3063659667969 C 275.3926696777344 365.17333984375 331.6797180175781 296.1998291015625 283.7051086425781 171.9462890625 C 377.59552001953125 197.40655517578125 343.8245849609375 274.5819396972656 347.1886901855469 215.0574188232422 C 441.3704528808594 136.1449432373047 477.4527587890625 237.2110137939453 484.19866943359375 235.9311065673828" stroke-width="0.0" fill="rgb(255, 200, 0)" opacity="1.0" stroke="rgb(0, 0, 0)" stroke-opacity="1.0" stroke-linecap="round" stroke-linejoin="round"/>
    <path d="M 346.84161376953125 122.50132751464844 C 325.79010009765625 97.5304946899414 302.33367919921875 129.8875732421875 283.3669738769531 217.12757873535156 C 235.75006103515625 214.3926544189453 184.93202209472656 160.6392059326172 77.15518188476562 181.80032348632812 C 117.33244323730469 -3.1522412300109863 139.78555297851562 -17.903120040893555 258.8519287109375 -58.22151565551758 C 356.2030944824219 -42.84148025512695 365.37109375 6.093499660491943 346.84161376953125 122.50132751464844" stroke-width="0.0" fill="rgb(3, 38, 200)" opacity="0.9918411" stroke="rgb(0, 0, 0)" stroke-opacity="1.0" stroke-linecap="round" stroke-linejoin="round"/>
    <path d="M 300.3081359863281 404.3960266113281 C 268.6568908691406 420.64251708984375 233.09458923339844 408.626220703125 208.04510498046875 384.0471496582031 C 161.09375 381.9335021972656 138.77362060546875 405.1877746582031 181.8286590576172 416.7084655761719 C 144.27052307128906 368.93072509765625 152.36587524414062 275.5852966308594 166.6942138671875 284.6957702636719 C 272.5535583496094 346.2451477050781 177.77615356445312 375.95538330078125 300.3081359863281 404.3960266113281" stroke-width="0.0" fill="rgb(255, 198, 5)" opacity="0.89081293" stroke="rgb(0, 0, 0)" stroke-opacity="1.0" stroke-linecap="round" stroke-linejoin="round"/>
    <path d="M 461.7569274902344 391.7049865722656 C 459.9021301269531 406.9403381347656 450.2310791015625 422.8644104003906 425.58892822265625 448.46844482421875 C 406.013671875 457.6502990722656 409.5372619628906 443.7753601074219 383.1529846191406 454.31890869140625 C 411.8358154296875 469.01043701171875 450.7380065917969 439.851806640625 458.21307373046875 448.6372985839844 C 469.2513427734375 407.5279541015625 456.02899169921875 403.65020751953125 461.7569274902344 391.7049865722656" stroke-width="0.0" fill="rgb(48, 63, 177)" opacity="0.024189103" stroke="rgb(0, 0, 0)" stroke-opacity="1.0" stroke-linecap="round" stroke-linejoin="round"/>
    <path d="M 362.0291442871094 397.3236389160156 C 350.4404602050781 498.9695739746094 350.6064453125 486.97265625 306.8397521972656 471.3760681152344 C 256.3934631347656 440.0809020996094 218.70272827148438 448.7854919433594 204.3314208984375 403.9706726074219 C 265.9535217285156 403.3936767578125 275.16094970703125 428.8058776855469 290.1241760253906 400.20819091796875 C 320.0124816894531 427.778076171875 355.2645263671875 407.899169921875 362.0291442871094 397.3236389160156" stroke-width="0.0" fill="rgb(0, 13, 250)" opacity="1.0" stroke="rgb(0, 0, 0)" stroke-opacity="1.0" stroke-linecap="round" stroke-linejoin="round"/>
    <path d="M 307.5335998535156 248.82310485839844 C 257.83331298828125 231.98670959472656 220.82005310058594 289.3633728027344 266.861572265625 354.1481628417969 C 146.4968719482422 363.7509460449219 151.78196716308594 316.11138916015625 153.00680541992188 247.6453399658203 C 154.5761260986328 237.84075927734375 181.40109252929688 160.14942932128906 265.76092529296875 202.78733825683594 C 306.407958984375 191.3924102783203 308.643798828125 205.31521606445312 307.5335998535156 248.82310485839844" stroke-width="0.0" fill="rgb(255, 233, 28)" opacity="1.0" stroke="rgb(0, 0, 0)" stroke-opacity="1.0" stroke-linecap="round" stroke-linejoin="round"/>
    <path d="M 451.19085693359375 455.0781555175781 C 427.7945251464844 489.333251953125 412.2060241699219 489.3970642089844 380.6022033691406 508.7088928222656 C 337.30950927734375 491.7750244140625 321.0071105957031 488.6730651855469 289.5267028808594 461.07818603515625 C 325.6112060546875 411.77947998046875 313.45758056640625 416.2193298339844 395.3432922363281 469.6300048828125 C 489.4454040527344 441.06298828125 455.47052001953125 421.51171875 451.19085693359375 455.0781555175781" stroke-width="0.0" fill="rgb(0, 39, 172)" opacity="0.99795204" stroke="rgb(0, 0, 0)" stroke-opacity="1.0" stroke-linecap="round" stroke-linejoin="round"/>
    <path d="M 287.4742736816406 231.73495483398438 C 240.6953887939453 278.2962951660156 195.17129516601562 335.7294616699219 245.69052124023438 331.24078369140625 C 264.8865661621094 367.86474609375 258.3172607421875 372.4942626953125 257.674072265625 363.4269714355469 C 282.5688781738281 405.6394348144531 296.2962951660156 405.7044372558594 305.6244201660156 378.4436950683594 C 281.30413818359375 423.9043273925781 291.9892578125 436.0086364746094 287.4742736816406 231.73495483398438" stroke-width="0.0" fill="rgb(172, 77, 48)" opacity="0.96992236" stroke="rgb(0, 0, 0)" stroke-opacity="1.0" stroke-linecap="round" stroke-linejoin="round"/>
    <path d="M 220.2199249267578 193.17835998535156 C 51.15410614013672 152.7250213623047 31.20701026916504 454.1650085449219 163.30284118652344 427.06878662109375 C 84.20309448242188 305.8526916503906 274.6447448730469 136.88540649414062 115.15245056152344 210.96493530273438 C 54.90998077392578 307.814208984375 48.05073547363281 201.4842529296875 166.9430389404297 154.75714111328125 C 158.27197265625 358.2240905761719 133.77102661132812 223.90638732910156 220.2199249267578 193.17835998535156" stroke-width="0.0" fill="rgb(255, 212, 49)" opacity="0.9990568" stroke="rgb(0, 0, 0)" stroke-opacity="1.0" stroke-linecap="round" stroke-linejoin="round"/>
    <path d="M 319.8568420410156 164.579833984375 C 338.21337890625 195.42123413085938 344.1107177734375 171.5310821533203 302.0937805175781 168.54006958007812 C 309.6368103027344 176.77151489257812 312.04998779296875 180.03456115722656 297.8369140625 154.4676971435547 C 241.48533630371094 148.98129272460938 268.2171630859375 125.15911102294922 307.1288757324219 92.83814239501953 C 372.49688720703125 119.20674896240234 357.0494689941406 79.82418060302734 319.8568420410156 164.579833984375" stroke-width="0.0" fill="rgb(9, 14, 255)" opacity="0.8402874" stroke="rgb(0, 0, 0)" stroke-opacity="1.0" stroke-linecap="round" stroke-linejoin="round"/>
    <path d="M 179.69688415527344 214.95855712890625 C 138.03636169433594 260.72357177734375 132.21212768554688 328.7787780761719 154.28289794921875 386.9073486328125 C 20.511415481567383 333.58099365234375 -18.598453521728516 303.1487121582031 -43.6805305480957 231.53233337402344 C 50.91300582885742 225.3370361328125 37.260833740234375 188.7164764404297 166.2307891845703 124.94158935546875 C 285.86798095703125 212.0681610107422 216.313232421875 177.9120635986328 179.69688415527344 214.95855712890625" stroke-width="0.0" fill="rgb(0, 25, 204)" opacity="1.0" stroke="rgb(0, 0, 0)" stroke-opacity="1.0" stroke-linecap="round" stroke-linejoin="round"/>
    <path d="M 256.4337463378906 208.09170532226562 C 168.1259307861328 331.3116455078125 249.66542053222656 409.2584228515625 186.7776641845703 350.8160705566406 C 178.6743927001953 313.8556823730469 202.1407928466797 256.7950744628906 193.12979125976562 245.98045349121094 C 141.40713500976562 249.99066162109375 186.69871520996094 247.52769470214844 185.93455505371094 260.2934265136719 C 211.86001586914062 275.24810791015625 215.40638732910156 216.97433471679688 256.4337463378906 208.09170532226562" stroke-width="0.0" fill="rgb(100, 9, 81)" opacity="0.99653536" stroke="rgb(0, 0, 0)" stroke-opacity="1.0" stroke-linecap="round" stroke-linejoin="round"/>
    <path d="M 366.2541809082031 139.3845672607422 C 285.7563171386719 254.24952697753906 274.8500061035156 94.03227233886719 301.149658203125 197.32681274414062 C 259.9909973144531 200.12648010253906 294.1881408691406 198.5259552001953 300.0999450683594 163.11660766601562 C 285.0386657714844 138.5689697265625 327.8835754394531 126.35980987548828 312.44403076171875 105.14847564697266 C 303.1572570800781 120.84957885742188 326.31292724609375 102.23841094970703 366.2541809082031 139.3845672607422" stroke-width="0.0" fill="rgb(192, 212, 0)" opacity="0.99803764" stroke="rgb(0, 0, 0)" stroke-opacity="1.0" stroke-linecap="round" stroke-linejoin="round"/>
    <path d="M 299.5397033691406 163.98101806640625 C 282.7203063964844 182.66786193847656 305.2702941894531 162.83370971679688 329.0122985839844 174.04934692382812 C 361.7381896972656 232.85423278808594 285.0581970214844 203.90869140625 298.7660827636719 182.2831573486328 C 293.6656799316406 172.25018310546875 283.3360900878906 189.3931121826172 287.9342346191406 200.9453582763672 C 293.52923583984375 161.59751892089844 290.83453369140625 161.14834594726562 299.5397033691406 163.98101806640625" stroke-width="0.0" fill="rgb(33, 253, 33)" opacity="0.9043133" stroke="rgb(0, 0, 0)" stroke-opacity="1.0" stroke-linecap="round" stroke-linejoin="round"/>
    <path d="M 227.0245819091797 384.90740966796875 C 225.02059936523438 396.195068359375 218.5381317138672 413.6553955078125 210.6964111328125 403.88623046875 C 183.1583709716797 400.8999328613281 179.6033172607422 391.2716369628906 162.97845458984375 392.59686279296875 C 212.00511169433594 389.4331970214844 182.66722106933594 371.54443359375 188.05734252929688 335.3771667480469 C 208.82086181640625 335.16253662109375 207.6852264404297 363.95733642578125 227.0245819091797 384.90740966796875" stroke-width="0.0" fill="rgb(203, 135, 46)" opacity="0.9544487" stroke="rgb(0, 0, 0)" stroke-opacity="1.0" stroke-linecap="round" stroke-linejoin="round"/>
    <path d="M 418.9525146484375 355.55419921875 C 396.1060485839844 404.5958557128906 388.41046142578125 390.65704345703125 334.8955078125 402.22296142578125 C 312.05169677734375 416.0512390136719 298.1950378417969 421.24468994140625 333.6560974121094 395.12982177734375 C 330.2973327636719 413.70611572265625 364.5760498046875 417.0337829589844 377.99664306640625 310.18170166015625 C 388.81439208984375 355.0148010253906 393.16558837890625 371.2592468261719 418.9525146484375 355.55419921875" stroke-width="0.0" fill="rgb(191, 125, 58)" opacity="0.81111735" stroke="rgb(0, 0, 0)" stroke-opacity="1.0" stroke-linecap="round" stroke-linejoin="round"/>
    <path d="M 260.0142822265625 279.2241516113281 C 280.9530944824219 301.7145690917969 277.7613525390625 304.1807861328125 267.86279296875 281.446533203125 C 244.29107666015625 271.6211853027344 231.32261657714844 265.7129821777344 242.2315673828125 294.55078125 C 235.2657470703125 281.5288391113281 233.58070373535156 285.1407470703125 270.1796875 289.931884765625 C 257.21826171875 240.5495147705078 269.7784118652344 263.26800537109375 260.0142822265625 279.2241516113281" stroke-width="0.0" fill="rgb(216, 2, 198)" opacity="0.21348797" stroke="rgb(0, 0, 0)" stroke-opacity="1.0" stroke-linecap="round" stroke-linejoin="round"/>
    <path d="M 152.1807098388672 376.70831298828125 C 162.88168334960938 410.5972900390625 179.82301330566406 369.4263610839844 195.1060028076172 373.4311218261719 C 179.4630584716797 364.0963439941406 150.1546173095703 397.9463195800781 185.81263732910156 380.7208251953125 C 162.13449096679688 370.0691833496094 171.47840881347656 365.81854248046875 191.6802215576172 372.511474609375 C 163.31008911132812 348.45880126953125 169.3542022705078 347.6289367675781 152.1807098388672 376.70831298828125" stroke-width="0.0" fill="rgb(226, 122, 148)" opacity="0.118947394" stroke="rgb(0, 0, 0)" stroke-opacity="1.0" stroke-linecap="round" stroke-linejoin="round"/>
    <path d="M 327.90594482421875 279.823974609375 C 364.340576171875 318.3741149902344 389.885986328125 332.7939453125 322.96826171875 349.3716125488281 C 205.89280700683594 343.5818176269531 200.46864318847656 336.8105773925781 207.91281127929688 315.4533386230469 C 223.2633819580078 264.7398986816406 242.9193572998047 268.70355224609375 261.5869445800781 251.29542541503906 C 295.31646728515625 243.9099884033203 299.4054260253906 262.62799072265625 327.90594482421875 279.823974609375" stroke-width="0.0" fill="rgb(10, 23, 196)" opacity="1.0" stroke="rgb(0, 0, 0)" stroke-opacity="1.0" stroke-linecap="round" stroke-linejoin="round"/>
    <path d="M 310.78656005859375 108.25637817382812 C 333.0068664550781 98.39058685302734 340.7981262207031 111.01152038574219 329.620849609375 133.89918518066406 C 311.130615234375 144.321533203125 302.1205749511719 109.5478515625 303.4223327636719 109.51766967773438 C 310.0193176269531 91.54340362548828 344.84423828125 105.92764282226562 316.247314453125 112.4317855834961 C 321.23638916015625 95.48243713378906 328.1245422363281 113.30687713623047 310.78656005859375 108.25637817382812" stroke-width="0.0" fill="rgb(200, 151, 74)" opacity="0.7565255" stroke="rgb(0, 0, 0)" stroke-opacity="1.0" stroke-linecap="round" stroke-linejoin="round"/>
    <path d="M 288.8650817871094 253.3245391845703 C 267.9215393066406 241.0418243408203 265.1416320800781 246.01722717285156 283.4792785644531 240.765380859375 C 259.4213562011719 239.43954467773438 263.78955078125 236.97178649902344 268.9279479980469 236.82406616210938 C 304.082275390625 213.08673095703125 295.4024353027344 178.76023864746094 298.29888916015625 163.83287048339844 C 283.7526550292969 183.73117065429688 297.09765625 194.36669921875 288.8650817871094 253.3245391845703" stroke-width="0.0" fill="rgb(220, 86, 66)" opacity="0.59496784" stroke="rgb(0, 0, 0)" stroke-opacity="1.0" stroke-linecap="round" stroke-linejoin="round"/>
    <path d="M 262.85308837890625 255.60333251953125 C 261.8481750488281 243.0924835205078 259.6963806152344 287.13885498046875 255.2135772705078 252.906005859375 C 249.39132690429688 257.3594055175781 244.44354248046875 254.71224975585938 268.0776672363281 266.9510803222656 C 263.4564514160156 240.24607849121094 237.5025177001953 244.12461853027344 276.6454772949219 247.04537963867188 C 251.71405029296875 255.13323974609375 266.4502258300781 268.2352294921875 262.85308837890625 255.60333251953125" stroke-width="0.0" fill="rgb(126, 63, 88)" opacity="0.6236601" stroke="rgb(0, 0, 0)" stroke-opacity="1.0" stroke-linecap="round" stroke-linejoin="round"/>
    <path d="M 372.96844482421875 211.56509399414062 C 365.9143371582031 209.3394012451172 372.8170471191406 234.7269287109375 349.626708984375 222.68365478515625 C 334.2650146484375 235.343994140625 339.3328857421875 222.5769500732422 350.53363037109375 183.53305053710938 C 350.6751708984375 175.91465759277344 310.9517517089844 185.78294372558594 335.5063171386719 208.7242889404297 C 389.24664306640625 214.12803649902344 380.06298828125 190.2233428955078 372.96844482421875 211.56509399414062" stroke-width="0.0" fill="rgb(215, 171, 30)" opacity="0.000975807" stroke="rgb(0, 0, 0)" stroke-opacity="1.0" stroke-linecap="round" stroke-linejoin="round"/>
    <path d="M 84.18502807617188 468.57958984375 C 86.28826904296875 459.22216796875 61.15984344482422 458.9878234863281 73.19723510742188 458.0749816894531 C 59.59272384643555 463.0890197753906 43.36956024169922 464.3684387207031 43.791316986083984 464.99456787109375 C 50.0616340637207 440.6148376464844 55.97418975830078 459.1338806152344 67.88706970214844 465.39776611328125 C 86.4852066040039 469.57330322265625 89.57280731201172 463.4344482421875 84.18502807617188 468.57958984375" stroke-width="0.0" fill="rgb(85, 139, 70)" opacity="0.66494405" stroke="rgb(0, 0, 0)" stroke-opacity="1.0" stroke-linecap="round" stroke-linejoin="round"/>
    <path d="M 199.46600341796875 358.9482116699219 C 220.6648712158203 355.49859619140625 223.3496856689453 364.7911071777344 211.5080108642578 365.6784362792969 C 207.84713745117188 349.510986328125 206.0830841064453 335.5485534667969 194.35501098632812 332.2209167480469 C 215.3662567138672 321.2411804199219 197.35984802246094 320.7198486328125 207.9296875 307.3349609375 C 201.140380859375 331.2723083496094 206.80020141601562 346.955322265625 199.46600341796875 358.9482116699219" stroke-width="0.0" fill="rgb(221, 138, 29)" opacity="0.0" stroke="rgb(0, 0, 0)" stroke-opacity="1.0" stroke-linecap="round" stroke-linejoin="round"/>
    <path d="M 36.21669006347656 310.3887939453125 C 65.7256088256836 332.6218566894531 61.88291549682617 343.074951171875 50.45351028442383 343.2352600097656 C 47.177268981933594 336.5091857910156 42.963478088378906 347.2327575683594 19.262269973754883 331.7294921875 C 16.554487228393555 327.1286926269531 20.78191566467285 293.80877685546875 46.1901969909668 273.5496826171875 C 82.85025787353516 288.9406433105469 69.07477569580078 306.9377746582031 36.21669006347656 310.3887939453125" stroke-width="0.0" fill="rgb(213, 234, 10)" opacity="0.92460805" stroke="rgb(0, 0, 0)" stroke-opacity="1.0" stroke-linecap="round" stroke-linejoin="round"/>
    <path d="M 124.46492767333984 408.5089416503906 C 111.29255676269531 437.215087890625 107.57539367675781 458.43817138671875 86.43102264404297 457.21331787109375 C 99.70127868652344 465.8570556640625 110.94315338134766 455.7185363769531 105.4172592163086 445.7554931640625 C 114.40690612792969 449.6692810058594 124.31881713867188 438.7424011230469 137.614990234375 439.00616455078125 C 142.19688415527344 441.0710144042969 159.30421447753906 427.2381591796875 124.46492767333984 408.5089416503906" stroke-width="0.0" fill="rgb(196, 170, 55)" opacity="0.6982221" stroke="rgb(0, 0, 0)" stroke-opacity="1.0" stroke-linecap="round" stroke-linejoin="round"/>
    <path d="M 503.90472412109375 115.94578552246094 C 478.17169189453125 102.9200439453125 481.1545715332031 100.89756774902344 474.42755126953125 128.8178253173828 C 458.210693359375 126.77335357666016 476.91937255859375 86.5455551147461 450.71502685546875 54.725921630859375 C 428.21124267578125 20.00314712524414 427.2669372558594 -16.084537506103516 509.9873046875 -15.363151550292969 C 526.499755859375 92.09957122802734 511.718017578125 85.99943542480469 503.90472412109375 115.94578552246094" stroke-width="0.0" fill="rgb(0, 65, 80)" opacity="0.15203002" stroke="rgb(0, 0, 0)" stroke-opacity="1.0" stroke-linecap="round" stroke-linejoin="round"/>
    <path d="M 56.343929290771484 186.14454650878906 C 91.4065170288086 211.05340576171875 54.293033599853516 222.68658447265625 34.6737060546875 224.425537109375 C 25.208314895629883 194.62014770507812 4.090625762939453 187.89202880859375 12.20703411102295 196.91380310058594 C 5.401673793792725 193.01162719726562 20.029155731201172 191.98402404785156 25.26905632019043 172.58351135253906 C 42.90481185913086 173.2130584716797 57.90605926513672 196.95521545410156 56.343929290771484 186.14454650878906" stroke-width="0.0" fill="rgb(0, 20, 177)" opacity="0.07354" stroke="rgb(0, 0, 0)" stroke-opacity="1.0" stroke-linecap="round" stroke-linejoin="round"/>
    <path d="M 321.6929016113281 330.3271179199219 C 316.58563232421875 339.6166687011719 314.2183837890625 360.47125244140625 302.9981689453125 355.2074890136719 C 287.48126220703125 350.8647155761719 271.5566101074219 356.63909912109375 267.8232421875 341.09197998046875 C 266.2842102050781 337.7441711425781 310.88873291015625 342.1260986328125 328.52557373046875 336.2889099121094 C 325.9411315917969 299.6758117675781 317.02911376953125 307.4876403808594 321.6929016113281 330.3271179199219" stroke-width="0.0" fill="rgb(194, 184, 0)" opacity="0.0" stroke="rgb(0, 0, 0)" stroke-opacity="1.0" stroke-linecap="round" stroke-linejoin="round"/>
    <path d="M 360.6853332519531 459.0561218261719 C 381.8874816894531 492.2628479003906 355.59515380859375 493.2207946777344 331.9306335449219 488.9074401855469 C 354.9576110839844 462.50537109375 348.4897155761719 446.795654296875 306.1929626464844 453.54388427734375 C 319.572998046875 443.4559326171875 385.5507507324219 433.2728271484375 381.9388732910156 438.70745849609375 C 402.4292907714844 431.14166259765625 374.4267578125 420.76361083984375 360.6853332519531 459.0561218261719" stroke-width="0.0" fill="rgb(11, 3, 218)" opacity="0.027706597" stroke="rgb(0, 0, 0)" stroke-opacity="1.0" stroke-linecap="round" stroke-linejoin="round"/>
    <path d="M 306.5734558105469 395.7296142578125 C 335.56890869140625 436.25799560546875 328.3128967285156 448.55291748046875 335.92388916015625 388.7043762207031 C 316.7309875488281 418.54669189453125 333.52154541015625 415.1917724609375 334.27056884765625 408.9419250488281 C 303.07366943359375 425.1890563964844 323.7845764160156 414.9997253417969 378.3685302734375 421.4716796875 C 379.8826599121094 396.96502685546875 368.131103515625 403.33355712890625 306.5734558105469 395.7296142578125" stroke-width="0.0" fill="rgb(4, 54, 121)" opacity="0.15919217" stroke="rgb(0, 0, 0)" stroke-opacity="1.0" stroke-linecap="round" stroke-linejoin="round"/>
    <path d="M 429.1458435058594 74.27073669433594 C 449.20013427734375 88.24065399169922 440.8995666503906 108.39732360839844 390.3700256347656 147.20883178710938 C 363.6778259277344 103.77742004394531 364.17315673828125 45.33846664428711 375.8141784667969 51.29174041748047 C 383.5816650390625 66.7970962524414 400.29583740234375 63.14702606201172 401.0743103027344 65.37277221679688 C 397.052978515625 58.13692092895508 418.8234558105469 65.39812469482422 429.1458435058594 74.27073669433594" stroke-width="0.0" fill="rgb(228, 253, 0)" opacity="0.98094916" stroke="rgb(0, 0, 0)" stroke-opacity="1.0" stroke-linecap="round" stroke-linejoin="round"/>
    <path d="M 40.06148147583008 90.79499053955078 C 60.3303337097168 115.4216537475586 58.74214553833008 135.48561096191406 23.325450897216797 115.03047180175781 C 5.592776298522949 103.80306243896484 -9.671146392822266 122.81495666503906 -14.408307075500488 94.04669952392578 C 3.1897757053375244 69.37035369873047 10.74833869934082 56.51129150390625 52.77861022949219 62.1268424987793 C 52.13693618774414 71.27748107910156 63.466827392578125 73.44156646728516 40.06148147583008 90.79499053955078" stroke-width="0.0" fill="rgb(5, 46, 186)" opacity="0.011540225" stroke="rgb(0, 0, 0)" stroke-opacity="1.0" stroke-linecap="round" stroke-linejoin="round"/>
    <path d="M 55.50457000732422 161.66517639160156 C 67.3913345336914 186.46595764160156 32.83626937866211 183.0944366455078 18.835851669311523 172.07122802734375 C 1.2440948486328125 155.15585327148438 -15.197723388671875 147.88607788085938 -20.53162384033203 133.4569854736328 C 14.126070976257324 99.71742248535156 20.924076080322266 104.67341613769531 30.628768920898438 129.8435821533203 C 23.495338439941406 147.90695190429688 48.81851577758789 166.42918395996094 55.50457000732422 161.66517639160156" stroke-width="0.0" fill="rgb(49, 42, 180)" opacity="0.0018838965" stroke="rgb(0, 0, 0)" stroke-opacity="1.0" stroke-linecap="round" stroke-linejoin="round"/>
    <path d="M 551.9586181640625 245.61865234375 C 515.19921875 251.83583068847656 490.4866027832031 257.6650390625 487.198486328125 230.45460510253906 C 507.87646484375 257.03546142578125 509.9523620605469 238.24853515625 479.5550537109375 232.75146484375 C 469.08966064453125 212.03823852539062 461.05609130859375 200.81031799316406 473.0758972167969 188.99063110351562 C 522.553955078125 207.74496459960938 532.0670776367188 230.8351593017578 551.9586181640625 245.61865234375" stroke-width="0.0" fill="rgb(0, 47, 87)" opacity="0.1364927" stroke="rgb(0, 0, 0)" stroke-opacity="1.0" stroke-linecap="round" stroke-linejoin="round"/>
    <path d="M 313.7409362792969 16.415790557861328 C 339.196533203125 60.02617263793945 358.1019287109375 99.01322174072266 303.9082946777344 77.85208129882812 C 300.8348693847656 32.5048942565918 308.5403747558594 21.882410049438477 298.6709289550781 13.462055206298828 C 270.14398193359375 16.140024185180664 263.62811279296875 11.451804161071777 273.58282470703125 85.301025390625 C 313.5336608886719 89.18925476074219 289.4971618652344 57.829124450683594 313.7409362792969 16.415790557861328" stroke-width="0.0" fill="rgb(6, 52, 137)" opacity="0.094899334" stroke="rgb(0, 0, 0)" stroke-opacity="1.0" stroke-linecap="round" stroke-linejoin="round"/>
    <path d="M 425.0307922363281 241.01803588867188 C 458.9178161621094 337.7109375 480.88702392578125 340.9111022949219 351.25732421875 332.64111328125 C 297.8420104980469 262.75311279296875 340.59832763671875 227.9983673095703 395.07269287109375 263.4720153808594 C 407.92645263671875 180.8352813720703 369.8699645996094 225.5582275390625 426.8173522949219 241.422607421875 C 453.1098327636719 249.77105712890625 450.8099060058594 246.28565979003906 425.0307922363281 241.01803588867188" stroke-width="0.0" fill="rgb(0, 40, 236)" opacity="0.95213777" stroke="rgb(0, 0, 0)" stroke-opacity="1.0" stroke-linecap="round" stroke-linejoin="round"/>
    <path d="M 528.5108032226562 133.8487548828125 C 512.3492431640625 143.74441528320312 488.5614013671875 136.6483917236328 469.5462341308594 150.5558319091797 C 486.3645935058594 140.7765350341797 498.04425048828125 134.30369567871094 473.6645812988281 113.21092987060547 C 496.4776916503906 108.54283142089844 494.97515869140625 82.9533920288086 491.5642395019531 86.58904266357422 C 531.7517700195312 73.94210815429688 533.39453125 77.2490234375 528.5108032226562 133.8487548828125" stroke-width="0.0" fill="rgb(0, 58, 85)" opacity="0.12114818" stroke="rgb(0, 0, 0)" stroke-opacity="1.0" stroke-linecap="round" stroke-linejoin="round"/>
    <path d="M 552.9271240234375 174.74649047851562 C 532.8115844726562 169.28329467773438 526.7574462890625 174.1715545654297 532.6951904296875 184.7331085205078 C 504.9219055175781 199.1223907470703 470.950439453125 185.32496643066406 493.3137512207031 165.21482849121094 C 497.4300537109375 152.84991455078125 512.1537475585938 150.82382202148438 517.6880493164062 156.8543243408203 C 529.0897216796875 160.41329956054688 542.5018920898438 170.6562042236328 552.9271240234375 174.74649047851562" stroke-width="0.0" fill="rgb(0, 40, 98)" opacity="0.067663215" stroke="rgb(0, 0, 0)" stroke-opacity="1.0" stroke-linecap="round" stroke-linejoin="round"/>
    <path d="M 103.39685821533203 344.04742431640625 C 94.8643798828125 425.4049377441406 96.0406265258789 424.3445739746094 53.065185546875 401.468505859375 C 28.67256736755371 377.76312255859375 14.213918685913086 353.9453125 20.117645263671875 308.0232238769531 C 41.8790168762207 335.8801574707031 54.42230987548828 343.9278564453125 78.2451400756836 330.10284423828125 C 78.57418060302734 324.564453125 100.56364440917969 322.1584167480469 103.39685821533203 344.04742431640625" stroke-width="0.0" fill="rgb(255, 168, 34)" opacity="0.96753395" stroke="rgb(0, 0, 0)" stroke-opacity="1.0" stroke-linecap="round" stroke-linejoin="round"/>
    <path d="M 338.978759765625 249.9372100830078 C 357.5390625 289.3033447265625 357.0700378417969 295.23333740234375 293.614013671875 279.0765075683594 C 314.9432373046875 269.26690673828125 315.6410827636719 239.55010986328125 301.4629211425781 230.74217224121094 C 299.56744384765625 251.173095703125 311.5766906738281 240.11923217773438 313.63067626953125 214.0524444580078 C 336.75872802734375 215.11363220214844 336.8927001953125 227.44139099121094 338.978759765625 249.9372100830078" stroke-width="0.0" fill="rgb(207, 192, 3)" opacity="0.0" stroke="rgb(0, 0, 0)" stroke-opacity="1.0" stroke-linecap="round" stroke-linejoin="round"/>
    <path d="M 515.7839965820312 114.78559112548828 C 517.022705078125 157.29147338867188 513.8607788085938 182.04698181152344 498.1465148925781 150.678955078125 C 484.96795654296875 161.81703186035156 407.9647521972656 158.63815307617188 431.4553527832031 180.73464965820312 C 443.7772521972656 118.61238861083984 450.5223693847656 108.52096557617188 498.7955017089844 140.37643432617188 C 524.6557006835938 133.4522247314453 508.4241027832031 147.50399780273438 515.7839965820312 114.78559112548828" stroke-width="0.0" fill="rgb(1, 29, 125)" opacity="0.18035203" stroke="rgb(0, 0, 0)" stroke-opacity="1.0" stroke-linecap="round" stroke-linejoin="round"/>
    <path d="M 448.702392578125 433.1937561035156 C 471.41094970703125 440.3040771484375 473.38043212890625 463.4355163574219 454.9232177734375 468.6809387207031 C 470.8534851074219 462.15777587890625 462.75848388671875 445.55401611328125 452.4028015136719 460.05255126953125 C 460.0276184082031 433.3711853027344 457.0600891113281 434.12481689453125 449.19537353515625 425.16192626953125 C 481.71295166015625 448.1440734863281 454.8717956542969 421.64654541015625 448.702392578125 433.1937561035156" stroke-width="0.0" fill="rgb(26, 26, 109)" opacity="0.012912685" stroke="rgb(0, 0, 0)" stroke-opacity="1.0" stroke-linecap="round" stroke-linejoin="round"/>
    <path d="M 506.0228271484375 348.07818603515625 C 506.9383544921875 400.283203125 484.8210754394531 392.9249267578125 502.60150146484375 384.3180847167969 C 507.7440490722656 434.57122802734375 473.3600158691406 422.981689453125 460.1949768066406 416.62481689453125 C 478.00244140625 335.48236083984375 461.0808410644531 361.94012451171875 498.3939208984375 371.4435729980469 C 499.02825927734375 359.9866027832031 501.8739318847656 355.02056884765625 506.0228271484375 348.07818603515625" stroke-width="0.0" fill="rgb(45, 16, 75)" opacity="0.0" stroke="rgb(0, 0, 0)" stroke-opacity="1.0" stroke-linecap="round" stroke-linejoin="round"/>
    <path d="M 159.6492919921875 412.3140563964844 C 160.6893768310547 390.7186584472656 183.8388671875 401.2879333496094 181.69049072265625 446.8741149902344 C 119.57156372070312 446.96319580078125 118.05066680908203 435.1866455078125 126.31647491455078 450.9137268066406 C 151.62535095214844 426.5504455566406 157.67654418945312 400.1426086425781 158.64109802246094 396.098388671875 C 160.28689575195312 407.04254150390625 169.4669189453125 415.5627746582031 159.6492919921875 412.3140563964844" stroke-width="0.0" fill="rgb(60, 41, 112)" opacity="0.26037177" stroke="rgb(0, 0, 0)" stroke-opacity="1.0" stroke-linecap="round" stroke-linejoin="round"/>
    <path d="M 100.14898681640625 175.98208618164062 C 94.26619720458984 185.34225463867188 81.93446350097656 171.58396911621094 90.80023193359375 175.1171417236328 C 72.9771728515625 179.40396118164062 61.455535888671875 170.43902587890625 57.97745132446289 160.3214569091797 C 64.51136016845703 160.262451171875 80.61820983886719 146.17446899414062 72.66850280761719 135.60643005371094 C 82.57856750488281 143.17807006835938 101.99431610107422 165.21920776367188 100.14898681640625 175.98208618164062" stroke-width="0.0" fill="rgb(22, 16, 184)" opacity="0.032272257" stroke="rgb(0, 0, 0)" stroke-opacity="1.0" stroke-linecap="round" stroke-linejoin="round"/>
    <path d="M 233.32305908203125 125.47821044921875 C 218.49441528320312 161.85498046875 200.79312133789062 166.22494506835938 133.2061309814453 176.8848114013672 C 112.56770324707031 209.70437622070312 114.96869659423828 156.3106689453125 141.4143829345703 123.64176177978516 C 151.2154998779297 109.50301361083984 166.63735961914062 114.82273864746094 222.8231658935547 92.96546173095703 C 224.89097595214844 71.71581268310547 232.93296813964844 96.98485565185547 233.32305908203125 125.47821044921875" stroke-width="0.0" fill="rgb(235, 252, 1)" opacity="0.9813819" stroke="rgb(0, 0, 0)" stroke-opacity="1.0" stroke-linecap="round" stroke-linejoin="round"/>
    <path d="M 194.63446044921875 383.0014953613281 C 216.5634307861328 390.4531555175781 217.32797241210938 422.9417419433594 200.82716369628906 457.4006652832031 C 138.51162719726562 488.4240417480469 97.14740753173828 463.4915771484375 129.96202087402344 387.8687438964844 C 158.8202362060547 380.5031433105469 155.3380889892578 380.3216857910156 203.58319091796875 372.3997802734375 C 188.1443634033203 344.73291015625 179.41856384277344 394.3492736816406 194.63446044921875 383.0014953613281" stroke-width="0.0" fill="rgb(210, 255, 54)" opacity="1.0" stroke="rgb(0, 0, 0)" stroke-opacity="1.0" stroke-linecap="round" stroke-linejoin="round"/>
    <path d="M 445.70574951171875 118.3915023803711 C 460.3829345703125 134.4506378173828 463.8270568847656 160.37315368652344 460.16741943359375 176.6593017578125 C 407.4350891113281 171.74459838867188 386.44451904296875 160.1160125732422 391.97808837890625 106.73609924316406 C 414.425537109375 82.93939208984375 434.4139709472656 79.32608032226562 443.9069519042969 105.07293701171875 C 443.1612854003906 111.5911865234375 453.5580749511719 122.37828826904297 445.70574951171875 118.3915023803711" stroke-width="0.0" fill="rgb(193, 238, 23)" opacity="0.9512547" stroke="rgb(0, 0, 0)" stroke-opacity="1.0" stroke-linecap="round" stroke-linejoin="round"/>
    <path d="M 322.810302734375 320.8046875 C 274.74310302734375 282.57257080078125 234.2803497314453 316.8280334472656 245.3244171142578 333.3109130859375 C 257.4690856933594 316.49755859375 281.2510986328125 312.4202880859375 245.41212463378906 324.3319091796875 C 226.10423278808594 280.642578125 197.89602661132812 323.72979736328125 227.9253387451172 335.3786926269531 C 227.04043579101562 313.70208740234375 235.08639526367188 329.9872741699219 322.810302734375 320.8046875" stroke-width="0.0" fill="rgb(222, 212, 32)" opacity="0.80127877" stroke="rgb(0, 0, 0)" stroke-opacity="1.0" stroke-linecap="round" stroke-linejoin="round"/>
    <path d="M 174.5876922607422 464.2433776855469 C 158.9827423095703 484.8077697753906 135.19129943847656 480.53839111328125 109.38739013671875 478.9543151855469 C 130.488525390625 490.4735412597656 121.71751403808594 486.99560546875 106.01248931884766 467.7589111328125 C 126.93705749511719 441.2613220214844 114.65419006347656 409.8033752441406 104.70375061035156 437.50787353515625 C 140.81272888183594 487.1356506347656 174.74578857421875 491.8721923828125 174.5876922607422 464.2433776855469" stroke-width="0.0" fill="rgb(2, 31, 224)" opacity="0.09108497" stroke="rgb(0, 0, 0)" stroke-opacity="1.0" stroke-linecap="round" stroke-linejoin="round"/>
    <path d="M 469.3466491699219 419.90240478515625 C 452.0242919921875 396.49609375 448.9491882324219 410.22149658203125 427.8273620605469 433.7650451660156 C 412.00811767578125 435.43212890625 435.3887634277344 439.4853210449219 464.3651123046875 402.9146423339844 C 420.362060546875 369.57415771484375 432.7021789550781 362.4752502441406 431.0971374511719 400.0893249511719 C 470.40472412109375 388.985107421875 484.3382873535156 399.1959533691406 469.3466491699219 419.90240478515625" stroke-width="0.0" fill="rgb(72, 11, 87)" opacity="0.0" stroke="rgb(0, 0, 0)" stroke-opacity="1.0" stroke-linecap="round" stroke-linejoin="round"/>
    <path d="M 295.2606201171875 98.69441986083984 C 279.6882019042969 91.69207000732422 277.06011962890625 112.38340759277344 260.0213623046875 125.25636291503906 C 262.4356689453125 148.26861572265625 277.3468322753906 157.92996215820312 308.6348571777344 116.42696380615234 C 273.95361328125 94.4482650756836 284.1773376464844 106.0746078491211 297.3856201171875 100.69876098632812 C 308.81072998046875 95.4228515625 300.7384033203125 99.54650115966797 295.2606201171875 98.69441986083984" stroke-width="0.0" fill="rgb(126, 33, 32)" opacity="0.0" stroke="rgb(0, 0, 0)" stroke-opacity="1.0" stroke-linecap="round" stroke-linejoin="round"/>
    <path d="M 357.7541198730469 0.6576479077339172 C 363.6983642578125 2.79262375831604 356.4942321777344 8.270066261291504 347.8507080078125 36.457275390625 C 384.0333557128906 76.54402923583984 330.6662902832031 87.69512939453125 346.895751953125 27.020187377929688 C 373.2869567871094 33.766639709472656 355.7841491699219 38.540321350097656 373.5014343261719 31.098220825195312 C 364.5607604980469 39.51136016845703 374.99560546875 42.79856872558594 357.7541198730469 0.6576479077339172" stroke-width="0.0" fill="rgb(22, 37, 145)" opacity="0.07763947" stroke="rgb(0, 0, 0)" stroke-opacity="1.0" stroke-linecap="round" stroke-linejoin="round"/>
  </g>
</svg>
