<?xml version="1.0" ?>
<svg xmlns="http://www.w3.org/2000/svg" version="1.1" width="512" height="512">
  <defs/>
  <g>
    <path d="M 529.9891357421875 464.9020080566406 C 547.5283813476562 517.9119262695312 549.3453369140625 525.8387451171875 392.3724060058594 526.3899536132812 C 326.2055969238281 556.4453125 297.5986633300781 556.0574340820312 284.5774841308594 519.9711303710938 C 321.1787414550781 340.49664306640625 389.1519470214844 337.9779357910156 495.3899841308594 295.7779846191406 C 563.9784545898438 307.4382629394531 559.441650390625 339.30902099609375 529.9891357421875 464.9020080566406" stroke-width="0.0" fill="rgb(76, 177, 0)" opacity="0.99915093" stroke="rgb(0, 0, 0)" stroke-opacity="1.0" stroke-linecap="round" stroke-linejoin="round"/>
    <path d="M 330.9434509277344 403.7749938964844 C 285.8068542480469 520.7623291015625 299.91717529296875 542.1493530273438 173.74313354492188 548.4573974609375 C -51.20000076293945 519.8477783203125 -51.20000076293945 512.7622680664062 -22.608470916748047 464.38427734375 C -2.2407238483428955 218.645751953125 7.677514553070068 207.5777130126953 63.36323165893555 176.38185119628906 C 135.4093780517578 367.37054443359375 186.2747802734375 346.6446533203125 330.9434509277344 403.7749938964844" stroke-width="0.0" fill="rgb(67, 228, 52)" opacity="0.79789495" stroke="rgb(0, 0, 0)" stroke-opacity="1.0" stroke-linecap="round" stroke-linejoin="round"/>
    <path d="M 239.405517578125 186.8129119873047 C 218.833740234375 458.3158874511719 240.43313598632812 367.0603942871094 191.38218688964844 407.562255859375 C 69.9771957397461 325.0751647949219 47.099693298339844 314.6812438964844 22.764732360839844 172.29844665527344 C 35.0399284362793 154.9630584716797 131.15997314453125 51.94944381713867 162.20004272460938 175.06683349609375 C 104.8389892578125 238.4181365966797 196.08291625976562 298.1398620605469 239.405517578125 186.8129119873047" stroke-width="0.0" fill="rgb(0, 2, 40)" opacity="1.0" stroke="rgb(0, 0, 0)" stroke-opacity="1.0" stroke-linecap="round" stroke-linejoin="round"/>
    <path d="M 238.61766052246094 -18.000137329101562 C 222.43658447265625 183.87855529785156 193.95021057128906 137.59458923339844 -3.773524522781372 190.17022705078125 C -13.020166397094727 227.95785522460938 -35.4425048828125 213.3509063720703 -15.846632957458496 157.1289825439453 C -5.909308910369873 -28.81989288330078 -0.617009699344635 -33.61420440673828 32.63241195678711 -19.51848030090332 C 195.05523681640625 -22.393009185791016 217.5651092529297 -31.314271926879883 238.61766052246094 -18.000137329101562" stroke-width="0.0" fill="rgb(245, 226, 5)" opacity="0.97238535" stroke="rgb(0, 0, 0)" stroke-opacity="1.0" stroke-linecap="round" stroke-linejoin="round"/>
    <path d="M 537.4578857421875 94.79214477539062 C 431.6717834472656 270.8312683105469 410.9469909667969 264.8224182128906 421.17633056640625 356.5603332519531 C 333.6218566894531 363.8257751464844 313.4628601074219 244.4276580810547 111.91551971435547 267.67529296875 C 292.683349609375 82.40129852294922 142.8912811279297 140.14913940429688 302.6842346191406 -25.89076042175293 C 563.1071166992188 -16.435848236083984 563.2000122070312 1.3262081146240234 537.4578857421875 94.79214477539062" stroke-width="0.0" fill="rgb(0, 5, 24)" opacity="1.0" stroke="rgb(0, 0, 0)" stroke-opacity="1.0" stroke-linecap="round" stroke-linejoin="round"/>
    <path d="M 218.0892333984375 166.703857421875 C 196.67237854003906 261.66192626953125 220.93882751464844 177.52601623535156 146.23800659179688 254.19606018066406 C 91.3577880859375 196.04061889648438 100.24423217773438 205.8713836669922 128.3146209716797 259.941162109375 C 137.4871063232422 174.50682067871094 128.38014221191406 114.63387298583984 331.36895751953125 19.55059051513672 C 400.57000732421875 75.8704605102539 314.950927734375 45.82638168334961 218.0892333984375 166.703857421875" stroke-width="0.0" fill="rgb(0, 0, 35)" opacity="1.0" stroke="rgb(0, 0, 0)" stroke-opacity="1.0" stroke-linecap="round" stroke-linejoin="round"/>
    <path d="M 471.8415832519531 334.47918701171875 C 445.1368103027344 428.66009521484375 506.874755859375 419.4798889160156 233.0365447998047 411.2108154296875 C 161.308837890625 439.2694396972656 160.91134643554688 418.3846130371094 222.27098083496094 317.29827880859375 C 369.99285888671875 355.5317077636719 381.70404052734375 278.2893981933594 306.23321533203125 225.9044647216797 C 427.644287109375 288.091064453125 474.062744140625 242.41043090820312 471.8415832519531 334.47918701171875" stroke-width="0.0" fill="rgb(78, 72, 130)" opacity="0.6442475" stroke="rgb(0, 0, 0)" stroke-opacity="1.0" stroke-linecap="round" stroke-linejoin="round"/>
    <path d="M 583.02880859375 214.62062072753906 C 577.08935546875 344.7535095214844 559.4151611328125 336.3465576171875 452.98223876953125 378.306396484375 C 346.9834289550781 401.19158935546875 316.8915100097656 323.5379943847656 357.2983703613281 246.664794921875 C 359.5772399902344 141.52655029296875 334.7234191894531 50.64599609375 481.2333984375 -17.954587936401367 C 594.5540161132812 20.434764862060547 595.32568359375 53.6568489074707 583.02880859375 214.62062072753906" stroke-width="0.0" fill="rgb(254, 222, 13)" opacity="0.9944004" stroke="rgb(0, 0, 0)" stroke-opacity="1.0" stroke-linecap="round" stroke-linejoin="round"/>
    <path d="M 378.896484375 255.3525390625 C 371.88421630859375 286.5093688964844 422.4966125488281 254.98960876464844 353.03778076171875 292.3165283203125 C 353.7189636230469 246.09144592285156 267.94927978515625 271.5027770996094 190.7124786376953 211.19168090820312 C 286.4598693847656 127.88449096679688 205.388427734375 75.14350128173828 353.0088195800781 46.02485275268555 C 378.35040283203125 134.88555908203125 375.663330078125 144.81568908691406 378.896484375 255.3525390625" stroke-width="0.0" fill="rgb(255, 255, 36)" opacity="1.0" stroke="rgb(0, 0, 0)" stroke-opacity="1.0" stroke-linecap="round" stroke-linejoin="round"/>
    <path d="M 382.5837097167969 292.838623046875 C 394.45880126953125 302.64471435546875 513.4216918945312 314.4820251464844 453.9501953125 452.88165283203125 C 211.25 484.6561279296875 280.8976745605469 427.5102233886719 385.0718688964844 332.6029052734375 C 360.7536926269531 241.5512237548828 320.9678649902344 124.49122619628906 359.1111145019531 174.4048309326172 C 381.7843933105469 260.1846618652344 396.8705749511719 307.9081726074219 382.5837097167969 292.838623046875" stroke-width="0.0" fill="rgb(153, 9, 246)" opacity="0.97352207" stroke="rgb(0, 0, 0)" stroke-opacity="1.0" stroke-linecap="round" stroke-linejoin="round"/>
    <path d="M 407.7522277832031 53.85446548461914 C 412.4504089355469 180.8016357421875 378.5651550292969 166.57864379882812 308.37371826171875 149.5727996826172 C 171.51016235351562 7.2337751388549805 137.963623046875 122.30850982666016 120.43267822265625 148.70643615722656 C 109.14520263671875 -9.213172912597656 144.90638732910156 -3.138904094696045 256.1005554199219 -25.964975357055664 C 389.50872802734375 -46.50105667114258 394.43975830078125 -42.86863327026367 407.7522277832031 53.85446548461914" stroke-width="0.0" fill="rgb(244, 219, 13)" opacity="0.9953297" stroke="rgb(0, 0, 0)" stroke-opacity="1.0" stroke-linecap="round" stroke-linejoin="round"/>
    <path d="M 151.8981170654297 366.04949951171875 C 140.86669921875 410.7655029296875 191.8998565673828 416.01226806640625 174.1636199951172 422.7360534667969 C 158.6475067138672 384.7412109375 165.9931640625 366.0308837890625 76.7619400024414 360.2007751464844 C 46.952415466308594 268.1125793457031 17.410104751586914 280.0098876953125 143.56578063964844 283.1025085449219 C 150.7313690185547 363.2755126953125 181.17572021484375 318.30230712890625 151.8981170654297 366.04949951171875" stroke-width="0.0" fill="rgb(249, 202, 128)" opacity="0.9645324" stroke="rgb(0, 0, 0)" stroke-opacity="1.0" stroke-linecap="round" stroke-linejoin="round"/>
    <path d="M 566.6689453125 56.14361572265625 C 562.795166015625 64.72966003417969 551.1490478515625 61.724609375 474.2109069824219 67.85780334472656 C 493.8661804199219 59.99048614501953 466.6459045410156 81.61682891845703 373.0445861816406 81.47775268554688 C 364.4128112792969 -55.86531066894531 359.75714111328125 -58.703006744384766 424.90264892578125 -40.07155227661133 C 541.2061157226562 -10.029305458068848 535.45654296875 7.46136474609375 566.6689453125 56.14361572265625" stroke-width="0.0" fill="rgb(242, 213, 15)" opacity="0.9993274" stroke="rgb(0, 0, 0)" stroke-opacity="1.0" stroke-linecap="round" stroke-linejoin="round"/>
    <path d="M 342.8788757324219 443.1773376464844 C 331.11639404296875 494.16790771484375 318.39215087890625 516.259033203125 271.6656188964844 490.1826477050781 C 228.2058868408203 458.9009094238281 199.4174041748047 444.8605041503906 147.77464294433594 437.9891052246094 C 205.39781188964844 375.686279296875 222.23179626464844 381.0879211425781 262.03729248046875 394.6147155761719 C 278.0445556640625 383.9644775390625 296.2913818359375 403.6671447753906 342.8788757324219 443.1773376464844" stroke-width="0.0" fill="rgb(71, 177, 22)" opacity="1.0" stroke="rgb(0, 0, 0)" stroke-opacity="1.0" stroke-linecap="round" stroke-linejoin="round"/>
    <path d="M 207.57017517089844 322.8143005371094 C 199.5584716796875 320.4908752441406 205.05857849121094 301.57586669921875 173.077880859375 300.93310546875 C 175.69192504882812 306.2757568359375 214.64666748046875 284.60491943359375 147.72523498535156 275.5814514160156 C 205.53306579589844 255.327392578125 177.26512145996094 297.60577392578125 207.14060974121094 243.45310974121094 C 218.90570068359375 222.88119506835938 219.88775634765625 214.15966796875 207.57017517089844 322.8143005371094" stroke-width="0.0" fill="rgb(0, 174, 112)" opacity="0.17501509" stroke="rgb(0, 0, 0)" stroke-opacity="1.0" stroke-linecap="round" stroke-linejoin="round"/>
    <path d="M 479.0224609375 434.08355712890625 C 459.75286865234375 502.6828918457031 430.55828857421875 479.1282043457031 358.85406494140625 482.0091247558594 C 322.301025390625 502.27008056640625 283.9903259277344 511.72552490234375 289.97540283203125 410.5897216796875 C 236.5836181640625 373.6774597167969 261.5917663574219 419.099365234375 375.1189270019531 412.7476501464844 C 469.10113525390625 415.6490783691406 485.2152404785156 402.7837219238281 479.0224609375 434.08355712890625" stroke-width="0.0" fill="rgb(88, 186, 0)" opacity="1.0" stroke="rgb(0, 0, 0)" stroke-opacity="1.0" stroke-linecap="round" stroke-linejoin="round"/>
    <path d="M 338.64447021484375 368.20611572265625 C 329.85272216796875 445.09259033203125 310.19036865234375 412.9367370605469 222.13829040527344 400.40673828125 C 178.4734344482422 404.36553955078125 159.20108032226562 331.2290954589844 217.8302764892578 354.3251037597656 C 248.34165954589844 385.6828918457031 237.9556427001953 360.5667724609375 231.25732421875 375.1712646484375 C 344.78704833984375 373.5076904296875 333.8980407714844 376.8313903808594 338.64447021484375 368.20611572265625" stroke-width="0.0" fill="rgb(153, 125, 133)" opacity="0.95507133" stroke="rgb(0, 0, 0)" stroke-opacity="1.0" stroke-linecap="round" stroke-linejoin="round"/>
    <path d="M 139.2572479248047 307.4501037597656 C 209.9799041748047 395.0340576171875 3.3838627338409424 351.7033386230469 119.67184448242188 269.37042236328125 C 59.43464660644531 260.5086364746094 171.23074340820312 326.9141845703125 -6.515590667724609 293.5013427734375 C 4.237591743469238 180.54823303222656 30.94468879699707 125.85980987548828 124.2814712524414 106.5341567993164 C -61.98184585571289 343.0802917480469 112.76837158203125 253.6140899658203 139.2572479248047 307.4501037597656" stroke-width="0.0" fill="rgb(255, 222, 39)" opacity="1.0" stroke="rgb(0, 0, 0)" stroke-opacity="1.0" stroke-linecap="round" stroke-linejoin="round"/>
    <path d="M 94.0100326538086 278.51129150390625 C 77.85440826416016 308.10308837890625 74.54778289794922 335.624755859375 84.4155502319336 303.0980224609375 C 83.66159057617188 293.44281005859375 69.67945861816406 317.01318359375 56.20527267456055 349.4843444824219 C 34.5953483581543 334.8711853027344 75.62149047851562 325.795654296875 103.88311004638672 282.3237609863281 C 104.68314361572266 249.7183074951172 122.84616088867188 266.1998291015625 94.0100326538086 278.51129150390625" stroke-width="0.0" fill="rgb(57, 36, 61)" opacity="0.89342666" stroke="rgb(0, 0, 0)" stroke-opacity="1.0" stroke-linecap="round" stroke-linejoin="round"/>
    <path d="M 226.2706298828125 160.3271484375 C 222.67686462402344 176.0861053466797 241.38987731933594 132.93397521972656 212.1627197265625 114.70223999023438 C 160.8724822998047 173.9852752685547 184.68017578125 190.60385131835938 187.58090209960938 210.6411590576172 C 204.59141540527344 111.35670471191406 235.47610473632812 129.30938720703125 231.2703857421875 152.78614807128906 C 228.2306365966797 173.12339782714844 218.54669189453125 180.79896545410156 226.2706298828125 160.3271484375" stroke-width="0.0" fill="rgb(252, 249, 231)" opacity="0.9880977" stroke="rgb(0, 0, 0)" stroke-opacity="1.0" stroke-linecap="round" stroke-linejoin="round"/>
    <path d="M 330.317626953125 348.01043701171875 C 357.64385986328125 374.0870056152344 313.80474853515625 334.2831115722656 275.11553955078125 341.1760559082031 C 252.35321044921875 355.3864440917969 205.73883056640625 412.7676696777344 229.4275665283203 340.6903076171875 C 232.98680114746094 262.65228271484375 299.3522033691406 267.368408203125 287.5456237792969 345.8215026855469 C 327.7578125 338.7257385253906 355.9186096191406 267.6016845703125 330.317626953125 348.01043701171875" stroke-width="0.0" fill="rgb(110, 221, 200)" opacity="0.9988191" stroke="rgb(0, 0, 0)" stroke-opacity="1.0" stroke-linecap="round" stroke-linejoin="round"/>
    <path d="M 5.587613582611084 524.4996948242188 C 17.577173233032227 520.3109741210938 10.62330150604248 527.7404174804688 0.6356459259986877 530.4232177734375 C -9.364206314086914 527.7437133789062 -16.68471336364746 520.4232177734375 -19.364206314086914 510.4232177734375 C -16.684602737426758 500.42352294921875 -9.35535717010498 493.13433837890625 -12.058277130126953 503.8512268066406 C -5.482361793518066 509.3287658691406 0.8214172124862671 517.0791015625 5.587613582611084 524.4996948242188" stroke-width="0.0" fill="rgb(57, 62, 75)" opacity="0.17100312" stroke="rgb(0, 0, 0)" stroke-opacity="1.0" stroke-linecap="round" stroke-linejoin="round"/>
    <path d="M 105.899169921875 91.24482727050781 C 114.81724548339844 181.7774200439453 141.87245178222656 176.2256622314453 103.37336730957031 216.79644775390625 C 134.18675231933594 197.37086486816406 134.0721435546875 183.94004821777344 115.91756439208984 172.8848114013672 C 103.86650848388672 178.85679626464844 104.89430236816406 153.4364471435547 130.21823120117188 185.89584350585938 C 184.15383911132812 139.77520751953125 138.62179565429688 44.108577728271484 105.899169921875 91.24482727050781" stroke-width="0.0" fill="rgb(0, 0, 39)" opacity="1.0" stroke="rgb(0, 0, 0)" stroke-opacity="1.0" stroke-linecap="round" stroke-linejoin="round"/>
    <path d="M 452.1495361328125 298.615966796875 C 460.6565246582031 298.96405029296875 463.0292053222656 302.49591064453125 475.3074645996094 335.2417297363281 C 401.4016418457031 338.5699157714844 388.0412902832031 320.9305114746094 411.2901611328125 276.48992919921875 C 426.5632629394531 259.0904846191406 446.9031982421875 271.58721923828125 450.72393798828125 262.1518249511719 C 436.95965576171875 277.4411926269531 440.4766540527344 282.6671142578125 452.1495361328125 298.615966796875" stroke-width="0.0" fill="rgb(254, 253, 34)" opacity="0.99071926" stroke="rgb(0, 0, 0)" stroke-opacity="1.0" stroke-linecap="round" stroke-linejoin="round"/>
    <path d="M 470.15924072265625 427.1207580566406 C 475.3472900390625 449.1911926269531 477.1187744140625 458.1915283203125 463.3835754394531 416.05487060546875 C 418.1287536621094 420.333984375 422.12884521484375 438.7595520019531 418.7060241699219 389.796142578125 C 427.43536376953125 400.7835693359375 473.260009765625 394.5755920410156 462.78460693359375 388.767822265625 C 467.28997802734375 410.2895202636719 464.9693908691406 428.4822692871094 470.15924072265625 427.1207580566406" stroke-width="0.0" fill="rgb(45, 175, 145)" opacity="0.010822592" stroke="rgb(0, 0, 0)" stroke-opacity="1.0" stroke-linecap="round" stroke-linejoin="round"/>
    <path d="M 229.1692657470703 118.7007064819336 C 240.50753784179688 92.57927703857422 245.7071990966797 126.25836944580078 249.38836669921875 142.55506896972656 C 242.60629272460938 105.68367767333984 252.23138427734375 101.33019256591797 190.30511474609375 112.20137786865234 C 207.26487731933594 112.5347900390625 220.8514404296875 82.50887298583984 263.20928955078125 70.7499008178711 C 255.07589721679688 89.90847778320312 238.13145446777344 110.66795349121094 229.1692657470703 118.7007064819336" stroke-width="0.0" fill="rgb(2, 0, 31)" opacity="0.78927106" stroke="rgb(0, 0, 0)" stroke-opacity="1.0" stroke-linecap="round" stroke-linejoin="round"/>
    <path d="M 386.9076232910156 296.23883056640625 C 406.7183837890625 336.6943359375 378.9430847167969 315.9674072265625 359.4281921386719 374.49920654296875 C 419.18853759765625 370.1419677734375 432.1841125488281 366.96795654296875 406.5484313964844 333.6932067871094 C 382.57781982421875 300.2254333496094 394.95196533203125 309.6393737792969 386.7243957519531 325.4359130859375 C 391.7690124511719 313.0704345703125 384.1977844238281 318.8249206542969 386.9076232910156 296.23883056640625" stroke-width="0.0" fill="rgb(180, 1, 248)" opacity="0.5647958" stroke="rgb(0, 0, 0)" stroke-opacity="1.0" stroke-linecap="round" stroke-linejoin="round"/>
    <path d="M 302.47540283203125 314.5520324707031 C 263.31695556640625 317.19830322265625 277.56829833984375 311.8849182128906 307.4070129394531 315.64892578125 C 270.5015869140625 318.9338684082031 237.817138671875 325.4854431152344 242.42625427246094 333.1355895996094 C 227.7688446044922 288.5207214355469 215.8036346435547 259.9734802246094 261.203857421875 277.3894348144531 C 274.6911926269531 279.9858703613281 280.8482971191406 259.94873046875 302.47540283203125 314.5520324707031" stroke-width="0.0" fill="rgb(0, 37, 147)" opacity="0.58111066" stroke="rgb(0, 0, 0)" stroke-opacity="1.0" stroke-linecap="round" stroke-linejoin="round"/>
    <path d="M 341.72222900390625 87.2972412109375 C 341.5389404296875 92.66799926757812 336.0848388671875 115.2154541015625 343.10162353515625 119.61402893066406 C 320.977783203125 117.20951080322266 303.34002685546875 112.51299285888672 306.6771545410156 103.56509399414062 C 306.64215087890625 84.31346130371094 310.0484924316406 58.75628662109375 329.3002624511719 57.356605529785156 C 346.5087585449219 60.51499557495117 343.8604431152344 82.860595703125 341.72222900390625 87.2972412109375" stroke-width="0.0" fill="rgb(239, 200, 40)" opacity="0.7949923" stroke="rgb(0, 0, 0)" stroke-opacity="1.0" stroke-linecap="round" stroke-linejoin="round"/>
    <path d="M 222.94390869140625 243.22230529785156 C 220.7457733154297 215.25762939453125 208.3513946533203 244.2464141845703 212.36683654785156 241.25596618652344 C 203.9680633544922 244.36602783203125 181.69508361816406 236.1110382080078 175.0897979736328 234.03732299804688 C 175.796875 222.04840087890625 179.91616821289062 222.32916259765625 181.19436645507812 221.80479431152344 C 187.33255004882812 233.82479858398438 196.4423065185547 256.0571594238281 222.94390869140625 243.22230529785156" stroke-width="0.0" fill="rgb(121, 108, 184)" opacity="0.007418759" stroke="rgb(0, 0, 0)" stroke-opacity="1.0" stroke-linecap="round" stroke-linejoin="round"/>
    <path d="M 178.2334442138672 370.4664611816406 C 183.2943572998047 374.8064270019531 180.1792755126953 360.74078369140625 156.73687744140625 375.02593994140625 C 141.65687561035156 411.4066467285156 171.9097137451172 360.7923889160156 164.1664276123047 348.92401123046875 C 144.6067657470703 348.45440673828125 150.44578552246094 328.6177978515625 156.23495483398438 363.28607177734375 C 199.5504913330078 365.0282897949219 191.91969299316406 343.0503234863281 178.2334442138672 370.4664611816406" stroke-width="0.0" fill="rgb(114, 198, 30)" opacity="0.0" stroke="rgb(0, 0, 0)" stroke-opacity="1.0" stroke-linecap="round" stroke-linejoin="round"/>
    <path d="M 131.302001953125 276.2608337402344 C 140.9968719482422 268.1936340332031 166.54685974121094 297.3301086425781 117.01168823242188 297.8207092285156 C 116.68900299072266 269.3621826171875 132.9560546875 259.0015563964844 134.43272399902344 276.55780029296875 C 112.7143325805664 281.4132385253906 144.48301696777344 275.03515625 138.21307373046875 268.71295166015625 C 143.858642578125 252.6371612548828 151.3366241455078 259.0860595703125 131.302001953125 276.2608337402344" stroke-width="0.0" fill="rgb(254, 255, 6)" opacity="1.0" stroke="rgb(0, 0, 0)" stroke-opacity="1.0" stroke-linecap="round" stroke-linejoin="round"/>
    <path d="M 488.4853515625 264.7135925292969 C 487.6287841796875 299.1649169921875 489.3307189941406 304.22857666015625 441.953369140625 306.3970947265625 C 415.0943603515625 279.278076171875 414.90301513671875 253.48699951171875 430.3268127441406 277.171142578125 C 427.658935546875 296.6729736328125 375.5240783691406 274.10009765625 396.3246154785156 248.4942169189453 C 410.4009094238281 247.28704833984375 443.21490478515625 256.1193542480469 488.4853515625 264.7135925292969" stroke-width="0.0" fill="rgb(255, 223, 21)" opacity="0.88408375" stroke="rgb(0, 0, 0)" stroke-opacity="1.0" stroke-linecap="round" stroke-linejoin="round"/>
    <path d="M 503.19952392578125 89.03108978271484 C 530.2333374023438 90.32379913330078 521.05810546875 71.57396697998047 486.3284606933594 54.91361999511719 C 486.0743408203125 61.07920837402344 445.95086669921875 64.89823913574219 462.7687683105469 58.42570495605469 C 455.347412109375 30.115407943725586 489.509765625 41.14884567260742 497.98175048828125 70.01078033447266 C 508.7525634765625 68.73101806640625 524.7337646484375 54.071781158447266 503.19952392578125 89.03108978271484" stroke-width="0.0" fill="rgb(101, 240, 82)" opacity="0.034667835" stroke="rgb(0, 0, 0)" stroke-opacity="1.0" stroke-linecap="round" stroke-linejoin="round"/>
    <path d="M 113.24674224853516 334.02752685546875 C 114.50287628173828 343.63330078125 102.88653564453125 357.5267639160156 98.4471664428711 350.8069152832031 C 117.64773559570312 355.94415283203125 118.79420471191406 333.4273376464844 110.48831176757812 317.1441345214844 C 98.89669799804688 329.7779541015625 96.7169418334961 310.2287902832031 111.64122772216797 311.0667724609375 C 112.13645935058594 322.8046875 112.22525787353516 333.5113830566406 113.24674224853516 334.02752685546875" stroke-width="0.0" fill="rgb(151, 211, 86)" opacity="0.0" stroke="rgb(0, 0, 0)" stroke-opacity="1.0" stroke-linecap="round" stroke-linejoin="round"/>
    <path d="M 215.3822784423828 389.79278564453125 C 229.03102111816406 395.00518798828125 230.27102661132812 437.9902038574219 192.75335693359375 410.67889404296875 C 155.05197143554688 409.5191955566406 149.2090606689453 433.28680419921875 152.91677856445312 389.91265869140625 C 145.71678161621094 384.4848937988281 158.53524780273438 376.9786071777344 182.05262756347656 393.4767150878906 C 196.650634765625 385.4120788574219 211.61740112304688 354.32867431640625 215.3822784423828 389.79278564453125" stroke-width="0.0" fill="rgb(7, 33, 113)" opacity="0.9977439" stroke="rgb(0, 0, 0)" stroke-opacity="1.0" stroke-linecap="round" stroke-linejoin="round"/>
    <path d="M 66.38259887695312 168.6089630126953 C 56.07978439331055 191.86915588378906 54.44285202026367 191.5895538330078 16.819820404052734 219.5569610595703 C -16.20052719116211 232.92721557617188 -14.018218994140625 236.17945861816406 -22.488801956176758 170.71588134765625 C -3.068737268447876 158.4276123046875 26.614681243896484 166.8939666748047 38.82389831542969 190.23582458496094 C 25.06617546081543 144.23190307617188 53.20275115966797 152.0525360107422 66.38259887695312 168.6089630126953" stroke-width="0.0" fill="rgb(233, 240, 12)" opacity="0.25043765" stroke="rgb(0, 0, 0)" stroke-opacity="1.0" stroke-linecap="round" stroke-linejoin="round"/>
    <path d="M 339.7067565917969 340.2295837402344 C 329.2745361328125 361.70404052734375 302.4575500488281 347.7088623046875 320.6978759765625 371.58258056640625 C 305.60125732421875 354.11236572265625 267.94476318359375 352.3456726074219 251.88571166992188 341.68951416015625 C 286.92132568359375 325.3691711425781 288.8101501464844 312.8304138183594 290.6056823730469 284.9259338378906 C 351.9751892089844 297.0831604003906 361.013916015625 289.5748596191406 339.7067565917969 340.2295837402344" stroke-width="0.0" fill="rgb(0, 9, 25)" opacity="0.9978978" stroke="rgb(0, 0, 0)" stroke-opacity="1.0" stroke-linecap="round" stroke-linejoin="round"/>
    <path d="M 468.82586669921875 309.95263671875 C 450.4929504394531 336.0398254394531 438.9407043457031 342.5068664550781 379.3099060058594 333.5733947753906 C 394.40423583984375 316.3503112792969 384.6629943847656 325.5677185058594 380.9610290527344 345.5026550292969 C 390.0617370605469 317.6943054199219 405.2802429199219 305.916748046875 432.3240661621094 316.526611328125 C 408.1827697753906 325.4598083496094 439.1617126464844 307.69195556640625 468.82586669921875 309.95263671875" stroke-width="0.0" fill="rgb(217, 251, 76)" opacity="0.05215041" stroke="rgb(0, 0, 0)" stroke-opacity="1.0" stroke-linecap="round" stroke-linejoin="round"/>
    <path d="M 412.6755676269531 104.07115936279297 C 403.4853515625 90.5821533203125 412.50653076171875 91.50331115722656 379.6663513183594 79.96769714355469 C 350.58087158203125 64.49822998046875 362.54388427734375 99.48860168457031 420.1805114746094 86.6436538696289 C 416.6840515136719 30.21575927734375 368.6477355957031 53.61493682861328 391.17828369140625 84.75287628173828 C 381.95489501953125 94.52128601074219 410.22833251953125 99.06565856933594 412.6755676269531 104.07115936279297" stroke-width="0.0" fill="rgb(224, 246, 110)" opacity="0.0" stroke="rgb(0, 0, 0)" stroke-opacity="1.0" stroke-linecap="round" stroke-linejoin="round"/>
    <path d="M 177.20184326171875 390.5079040527344 C 174.49490356445312 384.0262756347656 187.39215087890625 411.6414794921875 171.03225708007812 435.5960693359375 C 187.82052612304688 444.3724670410156 193.38185119628906 418.1607971191406 199.4080810546875 399.7300109863281 C 169.07568359375 371.1938781738281 168.3376922607422 392.2726135253906 167.07505798339844 409.7409973144531 C 171.80624389648438 412.06597900390625 170.13140869140625 400.0920715332031 177.20184326171875 390.5079040527344" stroke-width="0.0" fill="rgb(0, 158, 100)" opacity="0.035213374" stroke="rgb(0, 0, 0)" stroke-opacity="1.0" stroke-linecap="round" stroke-linejoin="round"/>
    <path d="M 369.42303466796875 173.45713806152344 C 325.06488037109375 158.11825561523438 302.7023620605469 170.91734313964844 323.1031799316406 166.13845825195312 C 340.62872314453125 163.53768920898438 295.7926940917969 162.749267578125 323.18438720703125 167.90847778320312 C 332.58380126953125 161.72869873046875 332.62506103515625 166.74346923828125 315.64410400390625 67.52900695800781 C 355.99560546875 56.585121154785156 345.8561096191406 78.18344116210938 369.42303466796875 173.45713806152344" stroke-width="0.0" fill="rgb(82, 70, 168)" opacity="0.7250637" stroke="rgb(0, 0, 0)" stroke-opacity="1.0" stroke-linecap="round" stroke-linejoin="round"/>
    <path d="M 189.30609130859375 171.2179412841797 C 187.42227172851562 149.23565673828125 191.52499389648438 150.33567810058594 187.32156372070312 166.32110595703125 C 168.68605041503906 216.45608520507812 126.21371459960938 229.554931640625 116.96851348876953 197.83328247070312 C 117.05911254882812 198.5435791015625 132.35523986816406 158.5448760986328 158.1570281982422 196.64910888671875 C 179.2929229736328 207.2699432373047 192.73406982421875 228.83949279785156 189.30609130859375 171.2179412841797" stroke-width="0.0" fill="rgb(222, 254, 255)" opacity="0.7877116" stroke="rgb(0, 0, 0)" stroke-opacity="1.0" stroke-linecap="round" stroke-linejoin="round"/>
    <path d="M 495.4234619140625 268.1982116699219 C 520.9405517578125 253.07818603515625 498.3128662109375 259.4633483886719 477.2453308105469 238.6806640625 C 472.6476135253906 258.5845947265625 461.83978271484375 254.321044921875 468.9261474609375 245.79928588867188 C 483.109619140625 245.14108276367188 490.0636901855469 239.97523498535156 492.30181884765625 205.04446411132812 C 504.0850524902344 233.877685546875 499.1266174316406 259.641357421875 495.4234619140625 268.1982116699219" stroke-width="0.0" fill="rgb(216, 221, 58)" opacity="0.0" stroke="rgb(0, 0, 0)" stroke-opacity="1.0" stroke-linecap="round" stroke-linejoin="round"/>
    <path d="M 345.7903747558594 70.37228393554688 C 358.0557556152344 113.29442596435547 345.5480651855469 127.46038055419922 303.8512878417969 82.727294921875 C 299.39007568359375 65.3879623413086 315.6955871582031 43.421024322509766 334.3589782714844 39.78794479370117 C 306.5311279296875 50.26312255859375 307.13330078125 25.431713104248047 312.1623229980469 61.355255126953125 C 310.7753601074219 45.15007781982422 316.7208557128906 48.284820556640625 345.7903747558594 70.37228393554688" stroke-width="0.0" fill="rgb(122, 205, 121)" opacity="0.024816327" stroke="rgb(0, 0, 0)" stroke-opacity="1.0" stroke-linecap="round" stroke-linejoin="round"/>
    <path d="M 440.4617614746094 274.5902404785156 C 419.3388671875 246.9381103515625 412.0671081542969 260.1654052734375 422.559814453125 286.8044738769531 C 423.50323486328125 272.8235778808594 403.7267761230469 286.4587097167969 397.07855224609375 287.48321533203125 C 394.1808166503906 267.7683410644531 397.61669921875 229.44784545898438 389.971435546875 226.9320068359375 C 415.04547119140625 258.831787109375 432.2356262207031 263.8630676269531 440.4617614746094 274.5902404785156" stroke-width="0.0" fill="rgb(251, 249, 7)" opacity="0.6348125" stroke="rgb(0, 0, 0)" stroke-opacity="1.0" stroke-linecap="round" stroke-linejoin="round"/>
    <path d="M 545.9885864257812 175.58877563476562 C 533.2293701171875 165.4852752685547 511.1326599121094 160.0647735595703 492.358642578125 164.30747985839844 C 513.4432373046875 149.37403869628906 497.48492431640625 131.5551300048828 485.1127014160156 140.41629028320312 C 502.3819580078125 139.0756378173828 512.2518310546875 129.19210815429688 529.9691162109375 128.20587158203125 C 520.1572875976562 114.25321197509766 522.8945922851562 122.49568939208984 545.9885864257812 175.58877563476562" stroke-width="0.0" fill="rgb(167, 236, 86)" opacity="0.0" stroke="rgb(0, 0, 0)" stroke-opacity="1.0" stroke-linecap="round" stroke-linejoin="round"/>
    <path d="M 549.59814453125 170.82769775390625 C 549.1295166015625 169.71669006347656 529.7216186523438 190.02711486816406 498.36822509765625 181.39471435546875 C 472.65234375 198.111328125 466.6540832519531 184.5493927001953 509.1444091796875 167.7525634765625 C 513.2169799804688 150.2068634033203 527.2970581054688 133.8119354248047 513.2070922851562 167.21556091308594 C 507.2633056640625 176.03648376464844 539.3740234375 173.76016235351562 549.59814453125 170.82769775390625" stroke-width="0.0" fill="rgb(91, 204, 75)" opacity="0.011975795" stroke="rgb(0, 0, 0)" stroke-opacity="1.0" stroke-linecap="round" stroke-linejoin="round"/>
    <path d="M 92.15455627441406 341.877197265625 C 84.99773406982422 361.67059326171875 80.8774642944336 366.4035949707031 79.87419891357422 374.91619873046875 C 53.53575897216797 374.5118713378906 33.71676254272461 369.262451171875 11.788457870483398 353.85931396484375 C -6.403204917907715 350.2306213378906 14.651528358459473 318.30841064453125 19.93233299255371 310.93695068359375 C 68.14842224121094 330.2081298828125 83.24947357177734 334.6242370605469 92.15455627441406 341.877197265625" stroke-width="0.0" fill="rgb(255, 161, 0)" opacity="1.0" stroke="rgb(0, 0, 0)" stroke-opacity="1.0" stroke-linecap="round" stroke-linejoin="round"/>
    <path d="M 337.4833679199219 252.47254943847656 C 348.0340270996094 268.9908142089844 334.2018737792969 268.4559326171875 308.7428894042969 283.8261413574219 C 298.3866271972656 276.7389221191406 294.952392578125 265.45562744140625 297.5204162597656 253.17967224121094 C 296.77874755859375 231.94149780273438 309.32562255859375 227.65798950195312 311.90179443359375 234.38626098632812 C 316.037841796875 240.7955322265625 324.2684631347656 248.3489532470703 337.4833679199219 252.47254943847656" stroke-width="0.0" fill="rgb(67, 137, 77)" opacity="0.00013988407" stroke="rgb(0, 0, 0)" stroke-opacity="1.0" stroke-linecap="round" stroke-linejoin="round"/>
    <path d="M 498.9529724121094 149.43565368652344 C 525.458984375 160.05331420898438 509.16131591796875 164.97488403320312 500.7667236328125 153.9115447998047 C 488.3079528808594 139.71218872070312 466.07501220703125 122.7159423828125 464.3506774902344 101.46432495117188 C 483.1066589355469 83.26725006103516 497.69793701171875 107.03224182128906 501.87054443359375 108.11062622070312 C 494.04083251953125 116.45526885986328 520.656494140625 122.78968048095703 498.9529724121094 149.43565368652344" stroke-width="0.0" fill="rgb(255, 162, 78)" opacity="0.073357716" stroke="rgb(0, 0, 0)" stroke-opacity="1.0" stroke-linecap="round" stroke-linejoin="round"/>
    <path d="M 454.8213806152344 416.5872497558594 C 430.0547180175781 462.37994384765625 423.0766906738281 486.6739196777344 446.0903625488281 521.087158203125 C 462.86297607421875 490.213623046875 453.1820068359375 476.5733337402344 452.50701904296875 479.4090576171875 C 470.0414123535156 480.5716857910156 460.9858093261719 451.220458984375 487.17242431640625 445.76251220703125 C 476.0181579589844 452.6186218261719 484.7395935058594 447.6114807128906 454.8213806152344 416.5872497558594" stroke-width="0.0" fill="rgb(30, 210, 7)" opacity="0.07002954" stroke="rgb(0, 0, 0)" stroke-opacity="1.0" stroke-linecap="round" stroke-linejoin="round"/>
    <path d="M 505.8523254394531 358.4309997558594 C 497.3744201660156 417.3572692871094 506.6503601074219 387.33856201171875 468.6918029785156 371.88177490234375 C 497.2465515136719 370.64764404296875 493.4143371582031 363.5736083984375 474.15924072265625 320.858154296875 C 463.1851501464844 335.5967712402344 461.4013671875 354.9573669433594 477.81005859375 380.0552062988281 C 489.90240478515625 354.047607421875 488.4310302734375 331.0859375 505.8523254394531 358.4309997558594" stroke-width="0.0" fill="rgb(158, 255, 72)" opacity="0.0028377958" stroke="rgb(0, 0, 0)" stroke-opacity="1.0" stroke-linecap="round" stroke-linejoin="round"/>
    <path d="M 120.10762786865234 400.35516357421875 C 143.1300048828125 447.24945068359375 156.3387908935547 433.03619384765625 151.50550842285156 412.57293701171875 C 138.6458282470703 446.7367248535156 146.86099243164062 453.4078063964844 191.2118682861328 404.72222900390625 C 178.2005615234375 399.55670166015625 172.537841796875 428.3230285644531 160.03396606445312 449.4593811035156 C 159.50860595703125 437.0484924316406 160.22096252441406 402.3829345703125 120.10762786865234 400.35516357421875" stroke-width="0.0" fill="rgb(11, 153, 117)" opacity="0.012383993" stroke="rgb(0, 0, 0)" stroke-opacity="1.0" stroke-linecap="round" stroke-linejoin="round"/>
    <path d="M 104.2114486694336 159.2770233154297 C 115.54701232910156 161.3868865966797 90.60713195800781 189.78684997558594 51.23241424560547 209.75306701660156 C 50.36920928955078 188.18064880371094 69.3609619140625 174.977783203125 72.28900909423828 139.37498474121094 C 61.02951431274414 131.29315185546875 62.506988525390625 125.68238830566406 49.85363006591797 127.66802215576172 C 63.36941146850586 152.01318359375 81.94586181640625 158.36180114746094 104.2114486694336 159.2770233154297" stroke-width="0.0" fill="rgb(253, 228, 20)" opacity="1.0" stroke="rgb(0, 0, 0)" stroke-opacity="1.0" stroke-linecap="round" stroke-linejoin="round"/>
    <path d="M 222.7452392578125 151.8842315673828 C 192.96438598632812 156.93763732910156 164.90101623535156 157.36585998535156 179.99957275390625 124.29536437988281 C 182.59103393554688 134.18104553222656 179.65557861328125 133.4145050048828 200.2332000732422 118.27192687988281 C 170.05064392089844 100.78030395507812 162.01478576660156 84.24944305419922 163.714599609375 112.12411499023438 C 177.44627380371094 122.74900817871094 188.46617126464844 126.29444885253906 222.7452392578125 151.8842315673828" stroke-width="0.0" fill="rgb(168, 197, 205)" opacity="0.0" stroke="rgb(0, 0, 0)" stroke-opacity="1.0" stroke-linecap="round" stroke-linejoin="round"/>
    <path d="M 197.1007537841797 419.41094970703125 C 198.64393615722656 422.370849609375 193.56875610351562 394.1041259765625 190.79042053222656 389.2491455078125 C 161.0184326171875 401.5674743652344 153.9787139892578 388.4204406738281 147.20639038085938 376.52337646484375 C 171.27713012695312 404.7540283203125 187.8697052001953 418.0945739746094 172.23768615722656 422.53167724609375 C 178.88548278808594 411.7284240722656 194.90792846679688 426.02093505859375 197.1007537841797 419.41094970703125" stroke-width="0.0" fill="rgb(66, 119, 43)" opacity="0.0" stroke="rgb(0, 0, 0)" stroke-opacity="1.0" stroke-linecap="round" stroke-linejoin="round"/>
    <path d="M 432.65777587890625 120.86248016357422 C 465.3232116699219 117.83639526367188 451.9776306152344 128.50062561035156 431.0738830566406 121.75386810302734 C 440.0719299316406 124.21410369873047 448.2000732421875 116.98196411132812 432.5745849609375 131.507080078125 C 444.6369323730469 141.9106903076172 439.02325439453125 127.95117950439453 441.3544006347656 127.1295394897461 C 454.5479736328125 110.86648559570312 436.6335754394531 97.73643493652344 432.65777587890625 120.86248016357422" stroke-width="0.0" fill="rgb(201, 240, 92)" opacity="0.007063829" stroke="rgb(0, 0, 0)" stroke-opacity="1.0" stroke-linecap="round" stroke-linejoin="round"/>
    <path d="M 278.83026123046875 314.9360656738281 C 239.3945770263672 337.3314208984375 220.80474853515625 346.95068359375 231.0420684814453 342.5908203125 C 215.89804077148438 383.5614318847656 203.95675659179688 355.9100341796875 203.80487060546875 311.2989807128906 C 225.15493774414062 301.3291320800781 229.92486572265625 268.3558044433594 240.7154998779297 262.263427734375 C 268.46307373046875 287.3449401855469 286.7644958496094 283.6564025878906 278.83026123046875 314.9360656738281" stroke-width="0.0" fill="rgb(0, 45, 96)" opacity="1.0" stroke="rgb(0, 0, 0)" stroke-opacity="1.0" stroke-linecap="round" stroke-linejoin="round"/>
    <path d="M 157.54635620117188 477.61431884765625 C 151.68316650390625 490.7479248046875 150.3389129638672 481.1111145019531 150.4141387939453 478.9765625 C 157.13040161132812 475.5577697753906 163.68861389160156 473.205322265625 164.4772186279297 475.294921875 C 146.6865997314453 473.5699768066406 147.8243408203125 469.57415771484375 151.11764526367188 472.7976989746094 C 149.33399963378906 471.962158203125 160.9530792236328 487.2887268066406 157.54635620117188 477.61431884765625" stroke-width="0.0" fill="rgb(108, 230, 106)" opacity="0.0" stroke="rgb(0, 0, 0)" stroke-opacity="1.0" stroke-linecap="round" stroke-linejoin="round"/>
    <path d="M 446.4423828125 379.2212219238281 C 460.63836669921875 415.3351135253906 461.8971862792969 398.829345703125 487.8210754394531 364.13934326171875 C 450.3468017578125 374.8663024902344 417.5440673828125 355.8457946777344 452.7688903808594 362.73883056640625 C 474.10516357421875 372.0198974609375 482.44970703125 367.7078857421875 455.2809753417969 359.930419921875 C 463.2876281738281 360.5554504394531 464.4227600097656 389.2088928222656 446.4423828125 379.2212219238281" stroke-width="0.0" fill="rgb(48, 214, 10)" opacity="0.033000626" stroke="rgb(0, 0, 0)" stroke-opacity="1.0" stroke-linecap="round" stroke-linejoin="round"/>
    <path d="M 287.33929443359375 116.11512756347656 C 300.2096862792969 115.51766204833984 280.0274353027344 112.11087799072266 258.4585266113281 120.6307373046875 C 269.3492126464844 158.45303344726562 273.3929138183594 124.50484466552734 264.2382507324219 70.59266662597656 C 274.7576599121094 81.77508544921875 267.53839111328125 94.58912658691406 283.1650085449219 102.85001373291016 C 295.8572998046875 89.56169891357422 305.98516845703125 93.73716735839844 287.33929443359375 116.11512756347656" stroke-width="0.0" fill="rgb(172, 207, 115)" opacity="0.0" stroke="rgb(0, 0, 0)" stroke-opacity="1.0" stroke-linecap="round" stroke-linejoin="round"/>
    <path d="M 382.31103515625 63.98726272583008 C 395.2515869140625 67.00282287597656 370.7007141113281 75.2393569946289 371.1463317871094 62.458980560302734 C 379.08306884765625 88.63654327392578 368.24468994140625 87.19378662109375 395.0533142089844 81.33893585205078 C 380.2960205078125 83.04074096679688 392.9176330566406 69.64591979980469 398.51416015625 73.07785034179688 C 383.5729675292969 68.31515502929688 390.6693115234375 56.16197204589844 382.31103515625 63.98726272583008" stroke-width="0.0" fill="rgb(147, 246, 100)" opacity="0.0368766" stroke="rgb(0, 0, 0)" stroke-opacity="1.0" stroke-linecap="round" stroke-linejoin="round"/>
    <path d="M 460.5801086425781 529.4757690429688 C 471.6966247558594 518.530029296875 465.5345458984375 526.6652221679688 449.1255798339844 553.31494140625 C 439.3321533203125 545.8453979492188 427.6139831542969 523.6478271484375 421.63372802734375 524.0022583007812 C 442.73529052734375 516.3247680664062 454.4666442871094 500.2282409667969 457.4129943847656 498.5270690917969 C 479.1242370605469 490.9753723144531 469.4408874511719 500.74462890625 460.5801086425781 529.4757690429688" stroke-width="0.0" fill="rgb(36, 144, 67)" opacity="0.03454371" stroke="rgb(0, 0, 0)" stroke-opacity="1.0" stroke-linecap="round" stroke-linejoin="round"/>
  </g>
</svg>
