<?xml version="1.0" ?>
<svg xmlns="http://www.w3.org/2000/svg" version="1.1" width="512" height="512">
  <defs/>
  <g>
    <path d="M 547.7388305664062 452.9248962402344 C 548.0579833984375 517.3278198242188 548.9373779296875 525.5354614257812 367.80926513671875 554.6034545898438 C 308.12615966796875 574.3533935546875 286.0186462402344 575.138671875 261.1767272949219 498.8773193359375 C 327.3914794921875 340.4504699707031 380.10833740234375 328.11737060546875 501.6174621582031 314.1021728515625 C 586.46337890625 317.3128662109375 577.7766723632812 324.2323303222656 547.7388305664062 452.9248962402344" stroke-width="0.0" fill="rgb(184, 6, 62)" opacity="0.8157431" stroke="rgb(0, 0, 0)" stroke-opacity="1.0" stroke-linecap="round" stroke-linejoin="round"/>
    <path d="M 262.5898132324219 489.8585205078125 C 303.1572265625 539.7081909179688 310.745849609375 552.2529296875 114.3973388671875 549.2093505859375 C -51.20000076293945 517.7235107421875 -51.20000076293945 507.83367919921875 -21.774600982666016 449.183837890625 C -18.38620376586914 205.44985961914062 -18.693912506103516 199.01014709472656 -59.4354248046875 283.6862487792969 C 157.6186065673828 346.47314453125 226.15478515625 275.701416015625 262.5898132324219 489.8585205078125" stroke-width="0.0" fill="rgb(0, 0, 188)" opacity="1.0" stroke="rgb(0, 0, 0)" stroke-opacity="1.0" stroke-linecap="round" stroke-linejoin="round"/>
    <path d="M 280.6915588378906 301.6719665527344 C 230.59100341796875 420.7155456542969 244.1067657470703 444.3875427246094 222.954345703125 366.9634704589844 C 79.79931640625 344.159912109375 25.672977447509766 383.47637939453125 18.747472763061523 160.37820434570312 C 9.879902839660645 172.92922973632812 35.68855667114258 179.74032592773438 127.93798828125 134.36997985839844 C 309.4691162109375 112.25452423095703 310.0634460449219 77.13059997558594 280.6915588378906 301.6719665527344" stroke-width="0.0" fill="rgb(0, 245, 255)" opacity="0.42389676" stroke="rgb(0, 0, 0)" stroke-opacity="1.0" stroke-linecap="round" stroke-linejoin="round"/>
    <path d="M 277.9452819824219 1.8589153289794922 C 266.7686767578125 193.4864044189453 215.60897827148438 157.31427001953125 21.249919891357422 184.20034790039062 C -36.283817291259766 213.3509063720703 -32.0249137878418 202.23117065429688 -22.438425064086914 70.59999084472656 C -14.989005088806152 -15.722881317138672 -7.218327522277832 -19.66063117980957 109.14788818359375 -49.317840576171875 C 237.82174682617188 -56.18294906616211 275.7590026855469 -76.34813690185547 277.9452819824219 1.8589153289794922" stroke-width="0.0" fill="rgb(34, 12, 172)" opacity="0.98264027" stroke="rgb(0, 0, 0)" stroke-opacity="1.0" stroke-linecap="round" stroke-linejoin="round"/>
    <path d="M 538.9683227539062 56.009544372558594 C 436.53558349609375 284.8077697753906 445.9500732421875 303.1717529296875 417.7210388183594 354.8262939453125 C 273.10137939453125 356.1534729003906 251.0217742919922 369.494140625 241.59800720214844 249.08197021484375 C 189.20999145507812 123.58846282958984 189.66220092773438 10.683403968811035 313.5 -65.97461700439453 C 563.2000122070312 -6.244815349578857 563.2000122070312 4.452378749847412 538.9683227539062 56.009544372558594" stroke-width="0.0" fill="rgb(102, 11, 104)" opacity="0.9311338" stroke="rgb(0, 0, 0)" stroke-opacity="1.0" stroke-linecap="round" stroke-linejoin="round"/>
    <path d="M 497.61749267578125 351.5225524902344 C 499.518310546875 425.3553466796875 503.1022644042969 508.1787414550781 283.2008056640625 550.7163696289062 C 72.07575225830078 513.019775390625 119.33355712890625 492.9043273925781 233.3846893310547 480.8742980957031 C 249.89891052246094 229.5351104736328 312.6957092285156 202.55433654785156 301.00634765625 280.3943786621094 C 375.70166015625 317.4242858886719 449.0600891113281 290.831298828125 497.61749267578125 351.5225524902344" stroke-width="0.0" fill="rgb(114, 32, 111)" opacity="1.0" stroke="rgb(0, 0, 0)" stroke-opacity="1.0" stroke-linecap="round" stroke-linejoin="round"/>
    <path d="M 539.2117919921875 200.4725341796875 C 555.2140502929688 311.5299377441406 553.9605102539062 315.9129333496094 480.0790100097656 324.700439453125 C 389.55078125 329.9757995605469 414.5928649902344 315.0535583496094 414.9944152832031 238.9870147705078 C 429.5880432128906 87.51336669921875 382.8843078613281 79.12065124511719 487.0879211425781 86.69629669189453 C 552.7090454101562 67.89575958251953 587.715087890625 142.6726531982422 539.2117919921875 200.4725341796875" stroke-width="0.0" fill="rgb(158, 33, 64)" opacity="0.9961902" stroke="rgb(0, 0, 0)" stroke-opacity="1.0" stroke-linecap="round" stroke-linejoin="round"/>
    <path d="M 266.5466613769531 247.2501220703125 C 272.8850402832031 299.94305419921875 310.9982604980469 345.25897216796875 214.83029174804688 371.7366027832031 C 231.5493927001953 281.567138671875 253.61915588378906 305.6903991699219 196.95004272460938 247.1036376953125 C 106.72117614746094 181.67617797851562 152.56703186035156 174.42010498046875 262.8343811035156 192.52963256835938 C 292.2569885253906 218.55723571777344 264.8371887207031 244.1696014404297 266.5466613769531 247.2501220703125" stroke-width="0.0" fill="rgb(255, 254, 54)" opacity="0.99738276" stroke="rgb(0, 0, 0)" stroke-opacity="1.0" stroke-linecap="round" stroke-linejoin="round"/>
    <path d="M 279.8270263671875 58.2194938659668 C 251.71961975097656 92.1612548828125 237.59918212890625 113.57575225830078 267.54833984375 112.47200012207031 C 273.25396728515625 78.3890609741211 241.15525817871094 92.83261108398438 165.45082092285156 80.89594268798828 C 213.57518005371094 70.6015625 216.57583618164062 56.65910720825195 213.4571990966797 81.40928649902344 C 215.77047729492188 80.38505554199219 269.68853759765625 45.942501068115234 279.8270263671875 58.2194938659668" stroke-width="0.0" fill="rgb(177, 206, 148)" opacity="0.724134" stroke="rgb(0, 0, 0)" stroke-opacity="1.0" stroke-linecap="round" stroke-linejoin="round"/>
    <path d="M 208.68099975585938 321.9244384765625 C 183.3905792236328 480.5220947265625 217.20294189453125 485.1002502441406 195.48045349121094 471.480712890625 C 193.11839294433594 407.8984069824219 193.37586975097656 362.6363830566406 166.19264221191406 309.7454833984375 C 191.95054626464844 350.4687805175781 170.9952850341797 357.5766906738281 191.21527099609375 340.92822265625 C 206.73822021484375 387.38616943359375 201.19830322265625 380.9182434082031 208.68099975585938 321.9244384765625" stroke-width="0.0" fill="rgb(134, 168, 235)" opacity="0.7689331" stroke="rgb(0, 0, 0)" stroke-opacity="1.0" stroke-linecap="round" stroke-linejoin="round"/>
    <path d="M 221.48916625976562 213.7967987060547 C 220.72315979003906 279.022216796875 198.16896057128906 322.451171875 184.90753173828125 342.4759216308594 C 111.01905822753906 345.11773681640625 231.79652404785156 326.9289855957031 207.8522491455078 276.17071533203125 C 108.94883728027344 100.37303924560547 27.935773849487305 108.30787658691406 191.3824920654297 50.319271087646484 C 112.02751922607422 193.24290466308594 188.7630157470703 109.91133880615234 221.48916625976562 213.7967987060547" stroke-width="0.0" fill="rgb(0, 138, 205)" opacity="0.9898024" stroke="rgb(0, 0, 0)" stroke-opacity="1.0" stroke-linecap="round" stroke-linejoin="round"/>
    <path d="M 190.68080139160156 215.5721435546875 C 69.38811492919922 194.1944580078125 45.443603515625 229.3525848388672 47.426116943359375 296.7331848144531 C 121.54367065429688 400.6249694824219 94.61819458007812 394.8724670410156 -17.796621322631836 287.32135009765625 C -46.330989837646484 77.8602294921875 -40.9462776184082 100.28593444824219 120.67176055908203 101.47164916992188 C 230.5458526611328 140.48416137695312 269.78826904296875 183.18841552734375 190.68080139160156 215.5721435546875" stroke-width="0.0" fill="rgb(0, 1, 178)" opacity="1.0" stroke="rgb(0, 0, 0)" stroke-opacity="1.0" stroke-linecap="round" stroke-linejoin="round"/>
    <path d="M 252.0624237060547 60.613162994384766 C 243.42474365234375 119.00978088378906 262.904541015625 139.3080291748047 243.91412353515625 130.5890350341797 C 174.98854064941406 125.70476531982422 78.30805969238281 138.42176818847656 79.16509246826172 76.35453796386719 C 79.67073822021484 -43.914329528808594 57.8421745300293 -61.888057708740234 178.3198699951172 -38.63338851928711 C 193.61387634277344 -3.338250160217285 177.02197265625 31.009225845336914 252.0624237060547 60.613162994384766" stroke-width="0.0" fill="rgb(34, 3, 149)" opacity="0.9865246" stroke="rgb(0, 0, 0)" stroke-opacity="1.0" stroke-linecap="round" stroke-linejoin="round"/>
    <path d="M 310.39306640625 120.61576080322266 C 347.79510498046875 195.19674682617188 311.4934997558594 244.1514434814453 244.58860778808594 211.5717315673828 C 183.9258575439453 184.90313720703125 268.5894775390625 181.63446044921875 200.52532958984375 148.8044891357422 C 258.1885986328125 73.55928039550781 291.52093505859375 113.38208770751953 355.43695068359375 108.83809661865234 C 260.0742492675781 174.00927734375 246.11305236816406 133.78475952148438 310.39306640625 120.61576080322266" stroke-width="0.0" fill="rgb(185, 229, 148)" opacity="0.62171715" stroke="rgb(0, 0, 0)" stroke-opacity="1.0" stroke-linecap="round" stroke-linejoin="round"/>
    <path d="M 73.73616790771484 290.9334411621094 C 76.33782196044922 340.2076721191406 123.00515747070312 338.1069641113281 81.16024780273438 380.5572204589844 C 85.04631042480469 363.85321044921875 66.46198272705078 353.6728515625 63.72002410888672 306.0035095214844 C 87.82286071777344 323.864501953125 84.0160140991211 321.1568908691406 94.39490509033203 347.80963134765625 C 65.61560821533203 402.92608642578125 11.652243614196777 267.26788330078125 73.73616790771484 290.9334411621094" stroke-width="0.0" fill="rgb(255, 254, 73)" opacity="1.0" stroke="rgb(0, 0, 0)" stroke-opacity="1.0" stroke-linecap="round" stroke-linejoin="round"/>
    <path d="M 195.29544067382812 96.74132537841797 C 222.34298706054688 153.0994110107422 182.1750946044922 129.87294006347656 181.2787628173828 123.27477264404297 C 200.0570526123047 23.228071212768555 208.69488525390625 134.0735321044922 176.91885375976562 105.30259704589844 C 257.7027893066406 184.58033752441406 229.0579071044922 82.64954376220703 194.27366638183594 65.53684997558594 C 171.1011505126953 50.21694564819336 200.72836303710938 64.17078399658203 195.29544067382812 96.74132537841797" stroke-width="0.0" fill="rgb(170, 177, 64)" opacity="0.85736793" stroke="rgb(0, 0, 0)" stroke-opacity="1.0" stroke-linecap="round" stroke-linejoin="round"/>
    <path d="M 277.7572326660156 457.3856201171875 C 304.92449951171875 473.9115295410156 226.15826416015625 477.3686828613281 247.87704467773438 448.0550231933594 C 274.00067138671875 460.8385009765625 222.40353393554688 487.7632141113281 243.36705017089844 431.6425476074219 C 215.1306610107422 248.3739013671875 238.07354736328125 268.3623962402344 264.3872375488281 423.1941223144531 C 303.6040954589844 467.0762634277344 268.4967041015625 467.5567626953125 277.7572326660156 457.3856201171875" stroke-width="0.0" fill="rgb(255, 255, 168)" opacity="1.0" stroke="rgb(0, 0, 0)" stroke-opacity="1.0" stroke-linecap="round" stroke-linejoin="round"/>
    <path d="M 160.6589813232422 265.8487243652344 C 168.4288787841797 278.68280029296875 145.7437744140625 298.6986999511719 158.91297912597656 304.6551208496094 C 167.8648223876953 281.1778564453125 165.5690155029297 273.3916931152344 115.49288940429688 295.7015075683594 C 121.14921569824219 330.80926513671875 108.00956726074219 328.1352844238281 144.10496520996094 262.0385437011719 C 150.8050994873047 279.552978515625 135.701416015625 278.2541809082031 160.6589813232422 265.8487243652344" stroke-width="0.0" fill="rgb(131, 209, 224)" opacity="0.0" stroke="rgb(0, 0, 0)" stroke-opacity="1.0" stroke-linecap="round" stroke-linejoin="round"/>
    <path d="M 208.25880432128906 84.25505065917969 C 248.26614379882812 126.9261245727539 240.64602661132812 150.16552734375 167.65769958496094 141.842529296875 C 131.3421630859375 158.12257385253906 195.8279266357422 178.53736877441406 204.09219360351562 130.6297149658203 C 183.73789978027344 91.77274322509766 180.32818603515625 67.37834930419922 186.11814880371094 93.73831176757812 C 153.00047302246094 97.96633911132812 155.8351287841797 92.66219329833984 208.25880432128906 84.25505065917969" stroke-width="0.0" fill="rgb(97, 143, 112)" opacity="0.58849853" stroke="rgb(0, 0, 0)" stroke-opacity="1.0" stroke-linecap="round" stroke-linejoin="round"/>
    <path d="M 402.7615661621094 288.6874084472656 C 406.22552490234375 325.818115234375 389.9275207519531 310.8841857910156 326.4564208984375 292.9849853515625 C 270.72119140625 285.22943115234375 272.3153381347656 292.8505859375 271.56396484375 205.732421875 C 340.5057067871094 218.97938537597656 353.3130798339844 209.7449951171875 384.2068786621094 212.33705139160156 C 391.6145324707031 216.8079376220703 403.1142578125 193.8083038330078 402.7615661621094 288.6874084472656" stroke-width="0.0" fill="rgb(210, 87, 95)" opacity="0.84952164" stroke="rgb(0, 0, 0)" stroke-opacity="1.0" stroke-linecap="round" stroke-linejoin="round"/>
    <path d="M 157.54393005371094 267.9118957519531 C 188.20440673828125 248.47027587890625 172.9665069580078 259.7638854980469 155.64474487304688 259.76123046875 C 147.0990447998047 261.4737548828125 157.8554229736328 270.76324462890625 152.9698028564453 267.7565612792969 C 191.28662109375 268.10919189453125 192.9960479736328 262.7702331542969 200.5729522705078 216.1523895263672 C 219.44285583496094 214.99794006347656 164.83963012695312 206.99942016601562 157.54393005371094 267.9118957519531" stroke-width="0.0" fill="rgb(12, 145, 221)" opacity="0.9675572" stroke="rgb(0, 0, 0)" stroke-opacity="1.0" stroke-linecap="round" stroke-linejoin="round"/>
    <path d="M 201.92457580566406 75.91266632080078 C 214.89927673339844 106.51771545410156 227.7130584716797 159.6397247314453 191.93527221679688 119.78147888183594 C 176.61260986328125 107.6626205444336 159.2881317138672 94.61206817626953 169.32177734375 61.186824798583984 C 169.8074188232422 55.0282096862793 161.51263427734375 15.420735359191895 187.5440673828125 38.50873947143555 C 185.77688598632812 43.49690246582031 209.37908935546875 65.97569274902344 201.92457580566406 75.91266632080078" stroke-width="0.0" fill="rgb(255, 191, 65)" opacity="1.0" stroke="rgb(0, 0, 0)" stroke-opacity="1.0" stroke-linecap="round" stroke-linejoin="round"/>
    <path d="M 288.35986328125 462.87701416015625 C 280.24200439453125 493.37744140625 276.326171875 462.4156188964844 273.6703186035156 476.8592834472656 C 243.30467224121094 476.8377380371094 233.6487274169922 476.550048828125 243.74490356445312 451.5570068359375 C 229.52578735351562 447.914306640625 242.1693572998047 475.8590393066406 237.47122192382812 461.7125549316406 C 275.0592346191406 451.9902648925781 290.30731201171875 450.9061584472656 288.35986328125 462.87701416015625" stroke-width="0.0" fill="rgb(240, 219, 51)" opacity="0.7644254" stroke="rgb(0, 0, 0)" stroke-opacity="1.0" stroke-linecap="round" stroke-linejoin="round"/>
    <path d="M 365.163818359375 213.3199920654297 C 345.99017333984375 235.06930541992188 340.04693603515625 245.92027282714844 318.91119384765625 223.26341247558594 C 287.1499938964844 223.2902374267578 282.81817626953125 246.1679229736328 277.4039611816406 225.95558166503906 C 292.5289001464844 236.29115295410156 306.89739990234375 232.4767303466797 356.0680847167969 223.7677459716797 C 370.6659851074219 227.95140075683594 368.16497802734375 227.48123168945312 365.163818359375 213.3199920654297" stroke-width="0.0" fill="rgb(183, 50, 214)" opacity="0.005753571" stroke="rgb(0, 0, 0)" stroke-opacity="1.0" stroke-linecap="round" stroke-linejoin="round"/>
    <path d="M 167.25747680664062 156.18801879882812 C 163.72413635253906 185.0188751220703 156.25057983398438 153.26629638671875 129.45404052734375 111.11965942382812 C 125.68388366699219 129.8591766357422 124.66236877441406 123.32244873046875 114.36288452148438 118.70729064941406 C 113.9058837890625 114.77251434326172 107.81986999511719 93.8732681274414 115.37409973144531 109.8404769897461 C 124.25128173828125 117.98465728759766 155.68472290039062 125.2375717163086 167.25747680664062 156.18801879882812" stroke-width="0.0" fill="rgb(205, 118, 200)" opacity="0.64904374" stroke="rgb(0, 0, 0)" stroke-opacity="1.0" stroke-linecap="round" stroke-linejoin="round"/>
    <path d="M 102.10111236572266 340.2083740234375 C 99.57189178466797 359.67138671875 84.31867980957031 355.8005065917969 87.07551574707031 417.0643615722656 C 57.712379455566406 405.9010009765625 68.43637084960938 360.5220642089844 80.0328369140625 366.00164794921875 C 116.38719940185547 346.2386474609375 105.1707992553711 342.85626220703125 110.69184112548828 325.59515380859375 C 116.5294189453125 265.17315673828125 122.33334350585938 298.9247131347656 102.10111236572266 340.2083740234375" stroke-width="0.0" fill="rgb(209, 247, 155)" opacity="0.3005415" stroke="rgb(0, 0, 0)" stroke-opacity="1.0" stroke-linecap="round" stroke-linejoin="round"/>
    <path d="M 91.4747314453125 437.68841552734375 C 99.21444702148438 459.716552734375 97.5863037109375 459.45611572265625 80.92451477050781 461.8343200683594 C 88.25248718261719 458.0282897949219 78.14788055419922 465.1684265136719 52.17093276977539 446.5804748535156 C 67.42742919921875 403.947021484375 71.55597686767578 386.5265197753906 65.39306640625 363.31964111328125 C 94.26788330078125 320.1884765625 80.72594451904297 384.802978515625 91.4747314453125 437.68841552734375" stroke-width="0.0" fill="rgb(255, 249, 107)" opacity="1.0" stroke="rgb(0, 0, 0)" stroke-opacity="1.0" stroke-linecap="round" stroke-linejoin="round"/>
    <path d="M 149.46429443359375 126.65878295898438 C 108.66321563720703 155.92608642578125 95.43756103515625 141.1158905029297 104.57402038574219 143.73587036132812 C 102.68962097167969 123.4045181274414 85.9627914428711 137.8362274169922 76.72652435302734 115.05936431884766 C 85.6065902709961 133.10040283203125 78.69046783447266 139.0411376953125 130.27410888671875 138.27268981933594 C 106.62672424316406 97.36540222167969 113.8327865600586 109.70520782470703 149.46429443359375 126.65878295898438" stroke-width="0.0" fill="rgb(0, 0, 225)" opacity="0.4627903" stroke="rgb(0, 0, 0)" stroke-opacity="1.0" stroke-linecap="round" stroke-linejoin="round"/>
    <path d="M 105.16146850585938 118.10956573486328 C 69.08929443359375 119.23043060302734 68.32923126220703 113.74761962890625 26.585735321044922 117.72876739501953 C 33.88898849487305 128.85682678222656 39.20035934448242 115.7939453125 52.1618537902832 110.4586181640625 C 32.488258361816406 124.9962158203125 27.588987350463867 130.9173126220703 9.451693534851074 101.29627227783203 C 77.97760772705078 93.22711181640625 91.76181030273438 84.5225830078125 105.16146850585938 118.10956573486328" stroke-width="0.0" fill="rgb(61, 1, 103)" opacity="0.07151812" stroke="rgb(0, 0, 0)" stroke-opacity="1.0" stroke-linecap="round" stroke-linejoin="round"/>
    <path d="M 60.24388885498047 273.677734375 C 72.3614273071289 316.8582763671875 53.63690185546875 316.61474609375 -5.590208530426025 310.3121643066406 C -3.736130714416504 337.69921875 16.753040313720703 327.14630126953125 12.98390007019043 320.3827209472656 C 3.4746766090393066 322.3438415527344 6.373017311096191 317.7099914550781 3.4982473850250244 303.8833312988281 C 9.908352851867676 308.62933349609375 42.41342544555664 301.82440185546875 60.24388885498047 273.677734375" stroke-width="0.0" fill="rgb(0, 0, 157)" opacity="0.3740656" stroke="rgb(0, 0, 0)" stroke-opacity="1.0" stroke-linecap="round" stroke-linejoin="round"/>
    <path d="M 390.9789123535156 218.7581787109375 C 397.1805114746094 271.3077697753906 402.12432861328125 288.04534912109375 372.6814880371094 284.2436828613281 C 366.87353515625 217.72581481933594 357.1017761230469 211.22935485839844 363.6924133300781 219.87086486816406 C 361.1725158691406 205.51417541503906 349.9952697753906 197.82423400878906 361.1163330078125 187.84617614746094 C 374.15423583984375 195.62490844726562 382.7906494140625 198.00144958496094 390.9789123535156 218.7581787109375" stroke-width="0.0" fill="rgb(224, 62, 95)" opacity="0.5979846" stroke="rgb(0, 0, 0)" stroke-opacity="1.0" stroke-linecap="round" stroke-linejoin="round"/>
    <path d="M 220.55999755859375 231.30325317382812 C 225.82398986816406 280.5242614746094 212.07679748535156 275.4004211425781 195.74432373046875 254.70924377441406 C 172.92581176757812 262.9165344238281 176.6800079345703 281.7674865722656 165.29595947265625 275.7261657714844 C 167.2574920654297 267.3102111816406 173.6566162109375 231.48268127441406 190.35475158691406 228.0887908935547 C 194.4043731689453 212.40341186523438 205.6282958984375 234.92349243164062 220.55999755859375 231.30325317382812" stroke-width="0.0" fill="rgb(0, 148, 215)" opacity="0.6540908" stroke="rgb(0, 0, 0)" stroke-opacity="1.0" stroke-linecap="round" stroke-linejoin="round"/>
    <path d="M 204.3695526123047 234.67686462402344 C 189.6046905517578 241.4003448486328 186.97010803222656 256.6930847167969 198.0636749267578 265.3472595214844 C 210.1472930908203 243.3845672607422 188.02639770507812 240.7846221923828 185.52716064453125 252.84957885742188 C 202.27163696289062 256.9311218261719 206.60072326660156 242.6374969482422 199.16729736328125 232.57493591308594 C 194.98130798339844 237.29286193847656 204.6385498046875 242.69667053222656 204.3695526123047 234.67686462402344" stroke-width="0.0" fill="rgb(117, 189, 59)" opacity="0.009538124" stroke="rgb(0, 0, 0)" stroke-opacity="1.0" stroke-linecap="round" stroke-linejoin="round"/>
    <path d="M 171.03787231445312 299.3825378417969 C 157.7003631591797 311.25482177734375 157.65872192382812 331.8988037109375 176.6847381591797 347.0577697753906 C 207.2958984375 377.7951965332031 196.30197143554688 331.0589599609375 167.79315185546875 304.63360595703125 C 155.94418334960938 339.16851806640625 162.31546020507812 344.5594177246094 174.56956481933594 333.5270690917969 C 180.2515411376953 324.5743103027344 170.4257354736328 327.9801940917969 171.03787231445312 299.3825378417969" stroke-width="0.0" fill="rgb(0, 119, 222)" opacity="0.99225706" stroke="rgb(0, 0, 0)" stroke-opacity="1.0" stroke-linecap="round" stroke-linejoin="round"/>
    <path d="M 95.83646392822266 131.11341857910156 C 136.23281860351562 159.13665771484375 119.06885528564453 161.89321899414062 97.53973388671875 163.2673797607422 C 83.17594909667969 155.85862731933594 95.92253112792969 142.54954528808594 81.1850814819336 123.48408508300781 C 75.39464569091797 124.88029479980469 73.83395385742188 105.533447265625 97.2646484375 74.27835845947266 C 140.1722412109375 65.46431732177734 104.70025634765625 88.42121124267578 95.83646392822266 131.11341857910156" stroke-width="0.0" fill="rgb(142, 41, 123)" opacity="0.55642146" stroke="rgb(0, 0, 0)" stroke-opacity="1.0" stroke-linecap="round" stroke-linejoin="round"/>
    <path d="M 51.952632904052734 83.47876739501953 C 18.305940628051758 120.18966674804688 37.842979431152344 141.92222595214844 20.56805992126465 138.62747192382812 C 24.778804779052734 166.91334533691406 -2.639570474624634 147.38853454589844 5.333224296569824 157.77706909179688 C 15.750909805297852 128.3450927734375 28.017318725585938 118.40412902832031 32.22579574584961 98.97319793701172 C 38.11871337890625 110.6616439819336 63.699554443359375 92.59746551513672 51.952632904052734 83.47876739501953" stroke-width="0.0" fill="rgb(8, 31, 160)" opacity="0.014011044" stroke="rgb(0, 0, 0)" stroke-opacity="1.0" stroke-linecap="round" stroke-linejoin="round"/>
    <path d="M 98.36764526367188 178.8957977294922 C 111.98829650878906 180.0934600830078 150.0770721435547 152.09487915039062 160.59832763671875 140.7358856201172 C 116.80523681640625 159.4850616455078 111.6159439086914 154.75119018554688 89.72071838378906 161.4217987060547 C 92.14684295654297 120.2898178100586 94.3591537475586 107.7486343383789 137.15139770507812 116.31819915771484 C 115.66223907470703 122.1072998046875 75.64356231689453 125.98204040527344 98.36764526367188 178.8957977294922" stroke-width="0.0" fill="rgb(15, 0, 187)" opacity="0.018849254" stroke="rgb(0, 0, 0)" stroke-opacity="1.0" stroke-linecap="round" stroke-linejoin="round"/>
    <path d="M 473.2525939941406 177.69845581054688 C 491.4111633300781 290.87884521484375 459.0335998535156 286.91845703125 361.68505859375 267.69256591796875 C 352.188720703125 238.08139038085938 359.8863525390625 227.26644897460938 365.5176086425781 233.02842712402344 C 364.6141662597656 187.0547637939453 357.1137390136719 179.7554168701172 369.49957275390625 163.4122314453125 C 397.0007019042969 135.24305725097656 441.3662109375 127.01470947265625 473.2525939941406 177.69845581054688" stroke-width="0.0" fill="rgb(255, 255, 0)" opacity="1.0" stroke="rgb(0, 0, 0)" stroke-opacity="1.0" stroke-linecap="round" stroke-linejoin="round"/>
    <path d="M 303.7718505859375 197.9390869140625 C 334.1151123046875 219.87826538085938 351.8106689453125 254.2007293701172 295.7611389160156 273.0552978515625 C 205.54945373535156 211.10931396484375 201.67837524414062 161.86566162109375 301.630859375 206.6112823486328 C 296.8170471191406 131.43011474609375 258.577880859375 108.64437103271484 293.6170349121094 118.909423828125 C 321.4324645996094 135.85011291503906 303.5699157714844 159.8069610595703 303.7718505859375 197.9390869140625" stroke-width="0.0" fill="rgb(255, 255, 90)" opacity="1.0" stroke="rgb(0, 0, 0)" stroke-opacity="1.0" stroke-linecap="round" stroke-linejoin="round"/>
    <path d="M 145.5947723388672 50.159400939941406 C 136.52748107910156 22.018577575683594 143.78750610351562 40.79727554321289 141.18153381347656 49.201255798339844 C 113.65826416015625 101.7929458618164 82.19478607177734 85.50260925292969 104.37518310546875 22.781740188598633 C 119.01138305664062 -19.007312774658203 108.3835220336914 -14.405399322509766 155.32626342773438 -7.232486724853516 C 155.6785125732422 13.651630401611328 163.28244018554688 28.489032745361328 145.5947723388672 50.159400939941406" stroke-width="0.0" fill="rgb(90, 1, 105)" opacity="0.097952634" stroke="rgb(0, 0, 0)" stroke-opacity="1.0" stroke-linecap="round" stroke-linejoin="round"/>
    <path d="M 71.313232421875 312.6264953613281 C 79.35340118408203 327.6791076660156 67.56079864501953 370.9079284667969 49.3939094543457 367.6399230957031 C 30.64874267578125 319.05328369140625 18.923992156982422 313.3381042480469 -4.118100643157959 315.0701904296875 C -0.20686717331409454 319.1964111328125 -5.545473098754883 317.280029296875 35.030662536621094 313.1119689941406 C 28.139636993408203 335.1567687988281 34.922637939453125 339.6822814941406 71.313232421875 312.6264953613281" stroke-width="0.0" fill="rgb(10, 0, 170)" opacity="0.97461313" stroke="rgb(0, 0, 0)" stroke-opacity="1.0" stroke-linecap="round" stroke-linejoin="round"/>
    <path d="M 258.9805908203125 55.27175521850586 C 259.6504211425781 42.236698150634766 255.7229461669922 27.452186584472656 249.3390350341797 33.742767333984375 C 263.2390441894531 43.012550354003906 265.5677490234375 46.98469924926758 266.8407287597656 81.12317657470703 C 273.28167724609375 67.21565246582031 263.44488525390625 47.07054901123047 260.6178894042969 29.523908615112305 C 255.23892211914062 38.0583610534668 246.63035583496094 26.984825134277344 258.9805908203125 55.27175521850586" stroke-width="0.0" fill="rgb(67, 72, 91)" opacity="0.015997026" stroke="rgb(0, 0, 0)" stroke-opacity="1.0" stroke-linecap="round" stroke-linejoin="round"/>
    <path d="M 99.96345520019531 319.479736328125 C 105.8869857788086 318.00897216796875 126.75818634033203 349.8677673339844 108.35489654541016 349.1884460449219 C 97.60330200195312 354.49810791015625 105.07683563232422 334.4957275390625 113.77935791015625 347.7345275878906 C 82.07075500488281 348.9596252441406 95.64022827148438 325.48675537109375 98.79581451416016 311.2851867675781 C 110.07360076904297 301.0850524902344 109.34483337402344 302.5071716308594 99.96345520019531 319.479736328125" stroke-width="0.0" fill="rgb(135, 109, 204)" opacity="0.056630753" stroke="rgb(0, 0, 0)" stroke-opacity="1.0" stroke-linecap="round" stroke-linejoin="round"/>
    <path d="M 204.39511108398438 367.9389343261719 C 191.69984436035156 379.2301025390625 188.7223358154297 404.6324768066406 189.46945190429688 416.35205078125 C 179.8441925048828 427.2818298339844 197.9258575439453 394.1394348144531 183.2935791015625 378.8624267578125 C 127.98617553710938 381.7164611816406 130.58358764648438 339.77825927734375 192.18673706054688 328.31658935546875 C 198.06008911132812 358.0379638671875 197.93124389648438 359.4635314941406 204.39511108398438 367.9389343261719" stroke-width="0.0" fill="rgb(0, 0, 255)" opacity="0.461853" stroke="rgb(0, 0, 0)" stroke-opacity="1.0" stroke-linecap="round" stroke-linejoin="round"/>
    <path d="M 37.74061584472656 192.19729614257812 C -2.250278949737549 159.63885498046875 -22.18541717529297 192.95896911621094 -3.9222137928009033 231.92156982421875 C 73.73997497558594 250.35769653320312 64.94229888916016 209.95249938964844 59.58515167236328 186.0380401611328 C 90.56507110595703 193.76123046875 85.48868560791016 179.19468688964844 46.37542724609375 185.6317901611328 C 14.639610290527344 205.20339965820312 28.180063247680664 199.17677307128906 37.74061584472656 192.19729614257812" stroke-width="0.0" fill="rgb(0, 0, 180)" opacity="0.16548549" stroke="rgb(0, 0, 0)" stroke-opacity="1.0" stroke-linecap="round" stroke-linejoin="round"/>
    <path d="M 413.3122863769531 307.7902526855469 C 412.3899230957031 327.1527099609375 423.9617919921875 343.27276611328125 401.8525085449219 340.0008239746094 C 415.3006591796875 299.9808349609375 425.0390625 310.26715087890625 377.2970275878906 307.1380920410156 C 385.7637634277344 291.8690490722656 413.175537109375 286.07867431640625 459.47406005859375 282.6997375488281 C 489.14337158203125 279.6964416503906 478.8680725097656 281.06634521484375 413.3122863769531 307.7902526855469" stroke-width="0.0" fill="rgb(173, 63, 65)" opacity="0.0" stroke="rgb(0, 0, 0)" stroke-opacity="1.0" stroke-linecap="round" stroke-linejoin="round"/>
    <path d="M 24.208267211914062 127.83402252197266 C 95.66201782226562 204.63259887695312 59.84260559082031 220.44407653808594 -5.204529762268066 171.5125732421875 C -7.531446933746338 153.65618896484375 -23.485177993774414 142.54348754882812 -15.71839714050293 135.81735229492188 C -13.842399597167969 170.94100952148438 -10.069864273071289 168.32296752929688 -4.085062026977539 157.3597412109375 C -33.40706253051758 120.21488952636719 -41.8990364074707 103.64588928222656 24.208267211914062 127.83402252197266" stroke-width="0.0" fill="rgb(0, 5, 181)" opacity="0.1632773" stroke="rgb(0, 0, 0)" stroke-opacity="1.0" stroke-linecap="round" stroke-linejoin="round"/>
    <path d="M 530.1326293945312 247.1968994140625 C 529.2025146484375 244.42877197265625 527.0092163085938 244.8712921142578 502.2645568847656 231.2938690185547 C 498.7218322753906 278.9066467285156 486.3729248046875 262.40350341796875 494.1763916015625 234.1896209716797 C 488.3299560546875 224.54429626464844 503.8059387207031 234.60733032226562 501.7315368652344 233.29641723632812 C 505.9852600097656 240.41107177734375 521.0809326171875 242.50144958496094 530.1326293945312 247.1968994140625" stroke-width="0.0" fill="rgb(89, 28, 140)" opacity="0.0" stroke="rgb(0, 0, 0)" stroke-opacity="1.0" stroke-linecap="round" stroke-linejoin="round"/>
    <path d="M 235.19219970703125 143.20458984375 C 240.60238647460938 139.94589233398438 248.13111877441406 118.22702026367188 221.8832244873047 117.63603973388672 C 211.7278594970703 121.20875549316406 201.29800415039062 117.86930847167969 221.29051208496094 94.2293930053711 C 248.22372436523438 128.27720642089844 228.72384643554688 101.69632720947266 223.63816833496094 51.63689422607422 C 241.1187744140625 112.04800415039062 230.3005828857422 114.41248321533203 235.19219970703125 143.20458984375" stroke-width="0.0" fill="rgb(79, 152, 103)" opacity="0.13724065" stroke="rgb(0, 0, 0)" stroke-opacity="1.0" stroke-linecap="round" stroke-linejoin="round"/>
    <path d="M 438.6349182128906 231.73350524902344 C 425.39794921875 258.9997863769531 416.91864013671875 254.52243041992188 421.1376037597656 241.18316650390625 C 396.88134765625 273.5869140625 406.413818359375 258.41265869140625 417.9600830078125 241.54916381835938 C 415.81781005859375 260.3294677734375 425.8811950683594 253.3385772705078 431.4853210449219 216.6859130859375 C 473.1941223144531 214.6016387939453 472.5658874511719 217.40480041503906 438.6349182128906 231.73350524902344" stroke-width="0.0" fill="rgb(16, 28, 108)" opacity="0.0" stroke="rgb(0, 0, 0)" stroke-opacity="1.0" stroke-linecap="round" stroke-linejoin="round"/>
    <path d="M 545.7810668945312 142.84873962402344 C 529.7146606445312 139.9831085205078 515.0573120117188 129.88722229003906 514.2074584960938 129.28904724121094 C 478.4565734863281 140.11276245117188 466.8068542480469 152.1350555419922 475.4745788574219 125.16014862060547 C 469.6424255371094 81.31614685058594 490.24951171875 80.59976959228516 523.5853271484375 85.72240447998047 C 523.05615234375 109.08793640136719 528.9259643554688 118.14166259765625 545.7810668945312 142.84873962402344" stroke-width="0.0" fill="rgb(134, 26, 101)" opacity="0.0" stroke="rgb(0, 0, 0)" stroke-opacity="1.0" stroke-linecap="round" stroke-linejoin="round"/>
    <path d="M 539.1807861328125 158.05784606933594 C 528.9306030273438 183.2648468017578 527.1844482421875 188.599609375 470.797119140625 171.0614471435547 C 480.2542724609375 149.06285095214844 490.7025451660156 126.84725952148438 487.3421630859375 122.38849639892578 C 522.2586669921875 131.5221710205078 543.7091674804688 161.4857635498047 512.7926635742188 166.1629180908203 C 493.66790771484375 128.6931610107422 507.29583740234375 148.5047149658203 539.1807861328125 158.05784606933594" stroke-width="0.0" fill="rgb(140, 38, 79)" opacity="0.0096515855" stroke="rgb(0, 0, 0)" stroke-opacity="1.0" stroke-linecap="round" stroke-linejoin="round"/>
    <path d="M 54.405757904052734 353.3938903808594 C 68.29833221435547 356.7349548339844 66.8647232055664 372.48486328125 72.63288116455078 360.88360595703125 C 69.57998657226562 358.6469421386719 75.34649658203125 329.7681884765625 52.972328186035156 307.6991271972656 C 35.4517936706543 350.3517150878906 36.602073669433594 350.3789978027344 37.22917175292969 298.4698486328125 C 69.59140014648438 330.9137268066406 69.05219268798828 357.26904296875 54.405757904052734 353.3938903808594" stroke-width="0.0" fill="rgb(34, 24, 198)" opacity="0.06577892" stroke="rgb(0, 0, 0)" stroke-opacity="1.0" stroke-linecap="round" stroke-linejoin="round"/>
    <path d="M 327.748779296875 268.8785095214844 C 276.5443420410156 268.4869689941406 295.0959777832031 281.2247009277344 312.3126220703125 251.2136993408203 C 317.5513000488281 260.75537109375 329.59527587890625 268.7926330566406 310.0747375488281 289.5763244628906 C 291.11260986328125 251.99017333984375 319.4073486328125 258.3373107910156 335.2275695800781 298.4526672363281 C 333.3525390625 258.05108642578125 339.6519470214844 258.97332763671875 327.748779296875 268.8785095214844" stroke-width="0.0" fill="rgb(246, 50, 111)" opacity="0.03581654" stroke="rgb(0, 0, 0)" stroke-opacity="1.0" stroke-linecap="round" stroke-linejoin="round"/>
    <path d="M 499.68780517578125 170.0055389404297 C 529.4502563476562 157.19393920898438 520.8199462890625 160.31173706054688 490.0205078125 175.07205200195312 C 472.67120361328125 146.06475830078125 475.9503173828125 109.7003402709961 489.4901428222656 121.7972640991211 C 513.0071411132812 126.5373764038086 512.2764282226562 108.80162048339844 527.8085327148438 116.76476287841797 C 505.4423522949219 141.68377685546875 499.6698303222656 183.30284118652344 499.68780517578125 170.0055389404297" stroke-width="0.0" fill="rgb(157, 76, 0)" opacity="0.14724559" stroke="rgb(0, 0, 0)" stroke-opacity="1.0" stroke-linecap="round" stroke-linejoin="round"/>
    <path d="M 484.873779296875 474.1897888183594 C 491.5203552246094 481.0129699707031 479.25665283203125 477.3388977050781 493.0455322265625 474.827392578125 C 463.6058044433594 489.6927795410156 459.1111755371094 439.0234069824219 449.5064697265625 471.7142333984375 C 429.87701416015625 468.73443603515625 438.7436218261719 447.58746337890625 465.5148620605469 453.5160217285156 C 484.0726318359375 442.41973876953125 491.15478515625 443.31298828125 484.873779296875 474.1897888183594" stroke-width="0.0" fill="rgb(12, 62, 99)" opacity="0.019411873" stroke="rgb(0, 0, 0)" stroke-opacity="1.0" stroke-linecap="round" stroke-linejoin="round"/>
    <path d="M 476.8970947265625 336.85687255859375 C 478.0316467285156 358.99884033203125 476.6692810058594 373.9730529785156 472.58575439453125 369.2294921875 C 487.0433349609375 389.33612060546875 472.68231201171875 384.8673095703125 469.18988037109375 366.582763671875 C 454.96820068359375 354.9809875488281 460.1673583984375 351.462158203125 479.5755615234375 355.0325622558594 C 471.7311096191406 366.4558410644531 501.5099182128906 347.6546325683594 476.8970947265625 336.85687255859375" stroke-width="0.0" fill="rgb(39, 41, 77)" opacity="0.0" stroke="rgb(0, 0, 0)" stroke-opacity="1.0" stroke-linecap="round" stroke-linejoin="round"/>
    <path d="M 201.5372772216797 435.1587219238281 C 201.1337432861328 441.611083984375 205.98887634277344 438.25115966796875 155.30746459960938 437.8638916015625 C 111.71197509765625 453.9102478027344 100.16207885742188 454.01611328125 163.43833923339844 443.02142333984375 C 108.40174865722656 414.3782653808594 113.28408813476562 402.1999206542969 161.5116424560547 409.2833251953125 C 168.04934692382812 410.9436340332031 173.47972106933594 430.098388671875 201.5372772216797 435.1587219238281" stroke-width="0.0" fill="rgb(63, 44, 138)" opacity="0.14603929" stroke="rgb(0, 0, 0)" stroke-opacity="1.0" stroke-linecap="round" stroke-linejoin="round"/>
    <path d="M 107.16437530517578 151.16807556152344 C 95.23622131347656 190.09608459472656 94.87903594970703 186.69924926757812 53.8406867980957 159.80674743652344 C 49.1906852722168 164.84263610839844 63.753761291503906 172.1009063720703 102.06880187988281 171.82211303710938 C 66.06242370605469 139.29881286621094 53.52817153930664 126.13640594482422 63.4240608215332 155.897216796875 C 101.44445037841797 151.71888732910156 108.6046371459961 147.22470092773438 107.16437530517578 151.16807556152344" stroke-width="0.0" fill="rgb(3, 0, 173)" opacity="0.04834844" stroke="rgb(0, 0, 0)" stroke-opacity="1.0" stroke-linecap="round" stroke-linejoin="round"/>
    <path d="M 198.67660522460938 136.10208129882812 C 171.1673126220703 110.24913787841797 151.46917724609375 117.95355224609375 145.38526916503906 135.50572204589844 C 165.7215576171875 161.1793212890625 143.06687927246094 174.15293884277344 167.36749267578125 193.51856994628906 C 176.30621337890625 155.4911651611328 180.13833618164062 149.7234649658203 172.6612091064453 146.56968688964844 C 181.5134735107422 124.39608764648438 190.29483032226562 128.59494018554688 198.67660522460938 136.10208129882812" stroke-width="0.0" fill="rgb(82, 25, 69)" opacity="0.09281723" stroke="rgb(0, 0, 0)" stroke-opacity="1.0" stroke-linecap="round" stroke-linejoin="round"/>
    <path d="M 192.2932586669922 463.1235656738281 C 215.90481567382812 418.78369140625 179.14451599121094 407.6573486328125 185.77618408203125 428.54559326171875 C 181.79539489746094 471.1210021972656 147.0679168701172 446.3114013671875 141.78465270996094 406.84136962890625 C 115.21278381347656 358.4866638183594 105.39795684814453 347.785400390625 152.8032684326172 364.6315002441406 C 163.4918975830078 402.9749450683594 181.32394409179688 401.5995178222656 192.2932586669922 463.1235656738281" stroke-width="0.0" fill="rgb(255, 255, 5)" opacity="1.0" stroke="rgb(0, 0, 0)" stroke-opacity="1.0" stroke-linecap="round" stroke-linejoin="round"/>
    <path d="M 479.5912170410156 120.15325164794922 C 484.7913818359375 155.8720245361328 458.78875732421875 162.1247100830078 448.2164306640625 132.63485717773438 C 440.96710205078125 126.33668518066406 426.5813293457031 114.7760238647461 466.2030944824219 113.92891693115234 C 430.9444274902344 127.88509368896484 434.2187805175781 130.31039428710938 439.4616394042969 108.69954681396484 C 471.5170593261719 103.56471252441406 470.93096923828125 110.41474151611328 479.5912170410156 120.15325164794922" stroke-width="0.0" fill="rgb(86, 39, 165)" opacity="0.005635214" stroke="rgb(0, 0, 0)" stroke-opacity="1.0" stroke-linecap="round" stroke-linejoin="round"/>
    <path d="M 261.5476989746094 323.12054443359375 C 252.51272583007812 311.68487548828125 235.52308654785156 312.70928955078125 222.9541473388672 328.1431884765625 C 221.84165954589844 349.7820129394531 219.72677612304688 333.5188903808594 218.79295349121094 316.07012939453125 C 228.65419006347656 298.6128845214844 220.2146759033203 304.4855041503906 218.9159393310547 324.44036865234375 C 247.8070831298828 313.7862243652344 259.1396179199219 317.681640625 261.5476989746094 323.12054443359375" stroke-width="0.0" fill="rgb(166, 192, 52)" opacity="0.0" stroke="rgb(0, 0, 0)" stroke-opacity="1.0" stroke-linecap="round" stroke-linejoin="round"/>
    <path d="M 156.37527465820312 483.5672302246094 C 165.2029571533203 483.3336486816406 111.92333984375 476.3016052246094 97.1676254272461 518.4357299804688 C 162.09178161621094 535.5178833007812 144.56793212890625 489.1595764160156 156.9937744140625 451.86041259765625 C 142.1541748046875 459.24029541015625 159.43894958496094 522.4776000976562 153.0457763671875 471.2656555175781 C 151.52052307128906 461.0882568359375 146.61474609375 483.52764892578125 156.37527465820312 483.5672302246094" stroke-width="0.0" fill="rgb(70, 0, 86)" opacity="0.11422983" stroke="rgb(0, 0, 0)" stroke-opacity="1.0" stroke-linecap="round" stroke-linejoin="round"/>
  </g>
</svg>
