<?xml version="1.0" ?>
<svg xmlns="http://www.w3.org/2000/svg" version="1.1" width="512" height="512">
  <defs/>
  <g>
    <path d="M 546.255126953125 459.21478271484375 C 548.88232421875 518.2211303710938 549.809814453125 525.8021850585938 356.9740905761719 555.2393798828125 C 307.3801574707031 570.7904052734375 290.17169189453125 563.2860107421875 220.75704956054688 456.2447814941406 C 292.93255615234375 331.7613220214844 394.1977844238281 346.6802673339844 521.894775390625 339.8778991699219 C 579.5370483398438 325.3004455566406 579.171142578125 343.9316101074219 546.255126953125 459.21478271484375" stroke-width="0.0" fill="rgb(11, 39, 110)" opacity="0.9308547" stroke="rgb(0, 0, 0)" stroke-opacity="1.0" stroke-linecap="round" stroke-linejoin="round"/>
    <path d="M 288.8340759277344 494.225830078125 C 359.831298828125 508.8640441894531 375.92010498046875 517.1463623046875 240.0695037841797 524.9385375976562 C -51.100406646728516 521.1051635742188 -51.19970703125 512.4564819335938 -55.495094299316406 469.95233154296875 C -40.38302993774414 204.79078674316406 -27.40074348449707 200.26490783691406 17.79827117919922 199.37457275390625 C 161.52159118652344 288.4801330566406 176.5353546142578 300.56756591796875 288.8340759277344 494.225830078125" stroke-width="0.0" fill="rgb(12, 63, 91)" opacity="0.95865905" stroke="rgb(0, 0, 0)" stroke-opacity="1.0" stroke-linecap="round" stroke-linejoin="round"/>
    <path d="M 334.7474060058594 319.66448974609375 C 263.6946105957031 374.5470275878906 246.84291076660156 385.4586486816406 216.60394287109375 417.9412841796875 C 77.52407836914062 340.9039306640625 94.61458587646484 290.2505187988281 36.83285140991211 166.0183563232422 C 49.87433624267578 179.98219299316406 56.86220932006836 168.36744689941406 135.1619415283203 155.79086303710938 C 278.0150451660156 146.01161193847656 324.06915283203125 117.62140655517578 334.7474060058594 319.66448974609375" stroke-width="0.0" fill="rgb(255, 255, 41)" opacity="1.0" stroke="rgb(0, 0, 0)" stroke-opacity="1.0" stroke-linecap="round" stroke-linejoin="round"/>
    <path d="M 270.3934631347656 35.3398551940918 C 291.1847839355469 262.1775817871094 272.7960205078125 204.48428344726562 44.90514373779297 266.0164489746094 C -42.263492584228516 223.30552673339844 -35.30814743041992 203.33201599121094 -24.675161361694336 161.53196716308594 C -16.494123458862305 -18.97837257385254 -10.838438034057617 -25.126850128173828 43.157142639160156 -36.545345306396484 C 212.7010498046875 -40.055110931396484 234.8946533203125 -49.26536178588867 270.3934631347656 35.3398551940918" stroke-width="0.0" fill="rgb(31, 75, 131)" opacity="0.9557781" stroke="rgb(0, 0, 0)" stroke-opacity="1.0" stroke-linecap="round" stroke-linejoin="round"/>
    <path d="M 551.237548828125 45.27128219604492 C 428.0892333984375 268.3636169433594 425.6131286621094 281.0316467285156 342.3829650878906 306.4963684082031 C 261.0946350097656 346.7547912597656 289.5589294433594 327.6639099121094 238.63119506835938 190.9464569091797 C 265.8669738769531 -8.044682502746582 200.34774780273438 -34.2838020324707 350.376220703125 -32.472015380859375 C 563.2000122070312 -5.52442741394043 563.2000122070312 4.830130577087402 551.237548828125 45.27128219604492" stroke-width="0.0" fill="rgb(5, 39, 148)" opacity="0.94834286" stroke="rgb(0, 0, 0)" stroke-opacity="1.0" stroke-linecap="round" stroke-linejoin="round"/>
    <path d="M 337.198486328125 69.25455474853516 C 306.3765869140625 306.4354248046875 269.2557678222656 289.06640625 171.62599182128906 237.56175231933594 C 48.43585205078125 243.63253784179688 39.85224151611328 252.9419708251953 83.73503875732422 233.2218017578125 C 104.68238067626953 144.32687377929688 109.1788558959961 118.79425048828125 304.2147521972656 12.555150985717773 C 316.64111328125 -36.93223190307617 298.2102966308594 -22.869956970214844 337.198486328125 69.25455474853516" stroke-width="0.0" fill="rgb(154, 174, 34)" opacity="0.8936877" stroke="rgb(0, 0, 0)" stroke-opacity="1.0" stroke-linecap="round" stroke-linejoin="round"/>
    <path d="M 452.4105224609375 324.2872314453125 C 445.30645751953125 392.60284423828125 466.6528015136719 456.97283935546875 321.72705078125 453.7867126464844 C 273.3959045410156 432.682373046875 260.21148681640625 428.2142028808594 251.16015625 392.595458984375 C 239.24627685546875 186.03981018066406 219.88873291015625 204.5295867919922 322.90533447265625 215.65721130371094 C 427.23089599609375 260.77838134765625 457.350341796875 260.9908447265625 452.4105224609375 324.2872314453125" stroke-width="0.0" fill="rgb(255, 255, 0)" opacity="1.0" stroke="rgb(0, 0, 0)" stroke-opacity="1.0" stroke-linecap="round" stroke-linejoin="round"/>
    <path d="M 581.3687744140625 200.1084747314453 C 576.3024291992188 342.2433166503906 554.1511840820312 336.1231689453125 432.0952453613281 421.9186706542969 C 331.7575378417969 424.58477783203125 370.75994873046875 354.0762634277344 374.6651916503906 283.7989501953125 C 398.6711730957031 220.8073272705078 425.13330078125 154.9554901123047 538.0922241210938 77.24099731445312 C 563.2000122070312 76.2098159790039 563.2000122070312 99.41815185546875 581.3687744140625 200.1084747314453" stroke-width="0.0" fill="rgb(17, 34, 154)" opacity="0.9954486" stroke="rgb(0, 0, 0)" stroke-opacity="1.0" stroke-linecap="round" stroke-linejoin="round"/>
    <path d="M 428.1116638183594 248.6471405029297 C 396.58612060546875 304.85357666015625 351.6050109863281 255.9132843017578 370.7176208496094 245.5218963623047 C 363.3838806152344 224.7115020751953 313.7882385253906 180.8925323486328 156.63922119140625 227.25582885742188 C 219.8472137451172 132.59719848632812 262.9881286621094 167.82237243652344 314.1097412109375 172.03810119628906 C 351.7843322753906 164.64353942871094 411.5367126464844 171.70086669921875 428.1116638183594 248.6471405029297" stroke-width="0.0" fill="rgb(199, 255, 58)" opacity="0.81132126" stroke="rgb(0, 0, 0)" stroke-opacity="1.0" stroke-linecap="round" stroke-linejoin="round"/>
    <path d="M 493.4819030761719 226.83377075195312 C 533.7470703125 336.19189453125 500.74322509765625 445.08990478515625 399.6805114746094 452.1380310058594 C 325.701171875 322.8050842285156 367.7368469238281 260.9135437011719 284.56243896484375 175.25320434570312 C 381.4549255371094 198.67503356933594 352.0332336425781 256.3553771972656 361.9745788574219 201.9833984375 C 443.398193359375 115.29820251464844 486.67962646484375 226.73049926757812 493.4819030761719 226.83377075195312" stroke-width="0.0" fill="rgb(255, 244, 0)" opacity="1.0" stroke="rgb(0, 0, 0)" stroke-opacity="1.0" stroke-linecap="round" stroke-linejoin="round"/>
    <path d="M 358.38323974609375 84.234619140625 C 308.8238220214844 78.8650894165039 306.4510803222656 121.12152099609375 288.30548095703125 165.2633056640625 C 206.94461059570312 215.5892791748047 208.9008026123047 189.96624755859375 97.43020629882812 181.8706817626953 C 118.37510681152344 -9.486668586730957 131.65122985839844 -20.732181549072266 255.9105682373047 -55.25166702270508 C 347.3297424316406 -59.874725341796875 344.6017761230469 -15.252655982971191 358.38323974609375 84.234619140625" stroke-width="0.0" fill="rgb(18, 51, 193)" opacity="1.0" stroke="rgb(0, 0, 0)" stroke-opacity="1.0" stroke-linecap="round" stroke-linejoin="round"/>
    <path d="M 303.1120300292969 415.8207702636719 C 279.1307067871094 464.7976989746094 218.89703369140625 438.68157958984375 190.80584716796875 398.01678466796875 C 169.09683227539062 362.5821228027344 139.1450958251953 392.6871337890625 213.22901916503906 407.68359375 C 163.2782745361328 346.0184020996094 164.4921112060547 272.7333679199219 179.48500061035156 300.6488342285156 C 280.7124938964844 332.0987548828125 185.9000701904297 357.3836975097656 303.1120300292969 415.8207702636719" stroke-width="0.0" fill="rgb(0, 0, 147)" opacity="1.0" stroke="rgb(0, 0, 0)" stroke-opacity="1.0" stroke-linecap="round" stroke-linejoin="round"/>
    <path d="M 445.27154541015625 384.83123779296875 C 443.4686584472656 395.6573486328125 446.81378173828125 430.3094482421875 423.60137939453125 464.17724609375 C 392.82977294921875 478.6815490722656 400.302490234375 452.7313232421875 355.0299377441406 444.6650695800781 C 398.0394287109375 453.0559997558594 442.8412170410156 427.9377746582031 444.6140441894531 411.13311767578125 C 434.09820556640625 403.66900634765625 450.3298034667969 404.30450439453125 445.27154541015625 384.83123779296875" stroke-width="0.0" fill="rgb(154, 0, 96)" opacity="0.46409073" stroke="rgb(0, 0, 0)" stroke-opacity="1.0" stroke-linecap="round" stroke-linejoin="round"/>
    <path d="M 387.0470275878906 429.68280029296875 C 343.55792236328125 496.3539123535156 344.1727600097656 484.0418701171875 321.5743103027344 454.9214172363281 C 281.8030090332031 420.98052978515625 282.45233154296875 423.6268005371094 231.52626037597656 424.63153076171875 C 233.52890014648438 420.84967041015625 251.44200134277344 410.0843811035156 244.49880981445312 439.9601135253906 C 307.5352783203125 476.354248046875 373.4476318359375 446.32928466796875 387.0470275878906 429.68280029296875" stroke-width="0.0" fill="rgb(255, 33, 41)" opacity="1.0" stroke="rgb(0, 0, 0)" stroke-opacity="1.0" stroke-linecap="round" stroke-linejoin="round"/>
    <path d="M 333.3988342285156 277.21832275390625 C 266.16778564453125 281.0570983886719 218.2918701171875 326.4264221191406 262.5687561035156 344.8955993652344 C 176.48129272460938 343.81787109375 152.55325317382812 293.8909606933594 145.71302795410156 275.6846008300781 C 155.2787628173828 228.9685516357422 166.32994079589844 165.0849151611328 244.48464965820312 185.5189666748047 C 313.1902770996094 201.60183715820312 361.7598571777344 205.39346313476562 333.3988342285156 277.21832275390625" stroke-width="0.0" fill="rgb(255, 255, 51)" opacity="1.0" stroke="rgb(0, 0, 0)" stroke-opacity="1.0" stroke-linecap="round" stroke-linejoin="round"/>
    <path d="M 436.810302734375 448.7165832519531 C 407.4204406738281 471.3868408203125 388.1750183105469 478.0620422363281 382.684326171875 512.8803100585938 C 329.7874450683594 522.6334838867188 277.176513671875 537.7403564453125 274.1053466796875 466.02532958984375 C 325.5039367675781 445.5853576660156 370.9595947265625 451.1094970703125 409.376708984375 450.2769775390625 C 477.112548828125 429.8055114746094 456.05572509765625 434.4177551269531 436.810302734375 448.7165832519531" stroke-width="0.0" fill="rgb(20, 42, 114)" opacity="0.9469336" stroke="rgb(0, 0, 0)" stroke-opacity="1.0" stroke-linecap="round" stroke-linejoin="round"/>
    <path d="M 244.52362060546875 212.6085662841797 C 185.41207885742188 302.2750244140625 117.423828125 305.56341552734375 256.4206237792969 306.2605895996094 C 293.0128479003906 355.74920654296875 263.663818359375 365.97723388671875 220.8305206298828 388.7239990234375 C 284.1224365234375 432.6366882324219 314.5775146484375 429.7430114746094 312.6172790527344 358.6381530761719 C 256.7146301269531 356.1761169433594 285.6891784667969 382.999755859375 244.52362060546875 212.6085662841797" stroke-width="0.0" fill="rgb(0, 0, 148)" opacity="1.0" stroke="rgb(0, 0, 0)" stroke-opacity="1.0" stroke-linecap="round" stroke-linejoin="round"/>
    <path d="M 241.63192749023438 178.6209259033203 C 118.3109359741211 126.26506805419922 85.91835021972656 419.1706848144531 192.3384246826172 441.1347351074219 C 84.80692291259766 300.9682312011719 277.2488098144531 124.1171875 124.14028930664062 217.47821044921875 C 35.04064178466797 300.1123046875 49.9234733581543 224.39024353027344 164.6735076904297 164.54165649414062 C 134.7915802001953 347.15167236328125 116.11763000488281 225.01405334472656 241.63192749023438 178.6209259033203" stroke-width="0.0" fill="rgb(253, 255, 67)" opacity="1.0" stroke="rgb(0, 0, 0)" stroke-opacity="1.0" stroke-linecap="round" stroke-linejoin="round"/>
    <path d="M 332.18310546875 107.11669921875 C 322.9001770019531 166.41917419433594 337.3371276855469 143.16209411621094 316.3743896484375 125.11671447753906 C 301.9207458496094 174.90872192382812 314.6717224121094 169.3333282470703 307.6543273925781 130.61436462402344 C 291.6195068359375 179.32827758789062 289.7310485839844 145.18466186523438 318.5256652832031 118.64656829833984 C 328.8431091308594 137.29405212402344 338.6686706542969 83.09608459472656 332.18310546875 107.11669921875" stroke-width="0.0" fill="rgb(42, 35, 186)" opacity="0.81721365" stroke="rgb(0, 0, 0)" stroke-opacity="1.0" stroke-linecap="round" stroke-linejoin="round"/>
    <path d="M 167.29180908203125 203.55325317382812 C 128.78453063964844 249.9949951171875 120.82142639160156 319.86279296875 138.41146850585938 377.9803771972656 C 44.651710510253906 328.90582275390625 16.404809951782227 287.6537780761719 -18.154579162597656 229.6278533935547 C 54.18999099731445 235.88523864746094 37.02883529663086 189.8769073486328 129.94357299804688 118.63695526123047 C 249.0388641357422 190.39398193359375 196.71212768554688 158.7152557373047 167.29180908203125 203.55325317382812" stroke-width="0.0" fill="rgb(11, 61, 185)" opacity="1.0" stroke="rgb(0, 0, 0)" stroke-opacity="1.0" stroke-linecap="round" stroke-linejoin="round"/>
    <path d="M 217.69468688964844 190.7586212158203 C 113.82527923583984 299.2049255371094 193.94113159179688 389.872314453125 156.95709228515625 356.5684509277344 C 149.01950073242188 288.1468811035156 169.0448760986328 220.0966796875 179.76307678222656 240.6699981689453 C 154.49929809570312 286.5194091796875 167.19105529785156 260.8397521972656 165.49221801757812 253.5269775390625 C 173.00880432128906 235.32208251953125 188.0081329345703 202.3765411376953 217.69468688964844 190.7586212158203" stroke-width="0.0" fill="rgb(236, 60, 11)" opacity="0.85065776" stroke="rgb(0, 0, 0)" stroke-opacity="1.0" stroke-linecap="round" stroke-linejoin="round"/>
    <path d="M 418.185546875 108.38880920410156 C 386.0020751953125 198.94143676757812 361.2969970703125 24.410003662109375 331.6302490234375 191.68368530273438 C 242.10350036621094 216.52713012695312 284.8868408203125 181.68714904785156 304.7146301269531 138.85836791992188 C 295.0748291015625 159.80332946777344 299.0676574707031 148.31227111816406 298.26458740234375 148.056640625 C 311.96697998046875 87.02880096435547 372.100341796875 60.58613967895508 418.185546875 108.38880920410156" stroke-width="0.0" fill="rgb(104, 194, 0)" opacity="1.0" stroke="rgb(0, 0, 0)" stroke-opacity="1.0" stroke-linecap="round" stroke-linejoin="round"/>
    <path d="M 275.5582580566406 176.5493927001953 C 273.0691223144531 186.28048706054688 278.7026672363281 195.23724365234375 363.6546936035156 187.78785705566406 C 343.4009094238281 134.06344604492188 324.4773864746094 144.65731811523438 303.7371826171875 144.99307250976562 C 300.402587890625 120.77263641357422 308.9837951660156 119.84587860107422 315.1603698730469 155.9486083984375 C 316.7900390625 158.7559814453125 301.80377197265625 194.8005828857422 275.5582580566406 176.5493927001953" stroke-width="0.0" fill="rgb(42, 199, 0)" opacity="0.91848516" stroke="rgb(0, 0, 0)" stroke-opacity="1.0" stroke-linecap="round" stroke-linejoin="round"/>
    <path d="M 235.5285186767578 418.8222351074219 C 304.21441650390625 429.15460205078125 296.23370361328125 465.4342041015625 227.82423400878906 441.7124938964844 C 165.09884643554688 408.7094421386719 154.98277282714844 379.9689636230469 173.09458923339844 374.55218505859375 C 198.63417053222656 379.5220031738281 191.1579132080078 371.13330078125 181.4401092529297 368.3804931640625 C 189.82138061523438 377.1679992675781 192.09219360351562 388.66552734375 235.5285186767578 418.8222351074219" stroke-width="0.0" fill="rgb(249, 248, 76)" opacity="0.9868225" stroke="rgb(0, 0, 0)" stroke-opacity="1.0" stroke-linecap="round" stroke-linejoin="round"/>
    <path d="M 427.6150817871094 387.24810791015625 C 362.3140563964844 441.9091796875 360.76824951171875 422.5790710449219 363.7710266113281 396.7178649902344 C 298.25543212890625 415.36065673828125 266.02911376953125 391.07061767578125 273.80474853515625 386.1506042480469 C 265.9143371582031 355.7615051269531 363.8166809082031 401.3585205078125 345.5158386230469 359.2337951660156 C 435.1151428222656 348.3109130859375 474.73602294921875 304.2457580566406 427.6150817871094 387.24810791015625" stroke-width="0.0" fill="rgb(0, 1, 140)" opacity="1.0" stroke="rgb(0, 0, 0)" stroke-opacity="1.0" stroke-linecap="round" stroke-linejoin="round"/>
    <path d="M 271.0478210449219 276.1871643066406 C 252.66366577148438 273.37139892578125 254.9314727783203 289.2453918457031 235.28665161132812 272.896240234375 C 197.13040161132812 274.54931640625 188.12693786621094 282.8894348144531 199.97157287597656 278.6138610839844 C 224.3534393310547 290.63006591796875 211.26400756835938 290.6351623535156 233.34559631347656 282.0565490722656 C 216.27276611328125 246.38577270507812 237.0234375 275.2186279296875 271.0478210449219 276.1871643066406" stroke-width="0.0" fill="rgb(101, 0, 8)" opacity="0.0" stroke="rgb(0, 0, 0)" stroke-opacity="1.0" stroke-linecap="round" stroke-linejoin="round"/>
    <path d="M 167.52230834960938 361.1146545410156 C 186.96998596191406 344.0068664550781 175.3609619140625 380.1835021972656 176.58006286621094 397.77862548828125 C 157.12448120117188 367.359375 152.14434814453125 342.18695068359375 169.8017578125 361.1134338378906 C 160.3719940185547 341.10760498046875 145.9447784423828 351.8002014160156 151.34886169433594 356.99505615234375 C 153.55418395996094 323.1398620605469 156.34400939941406 338.4184875488281 167.52230834960938 361.1146545410156" stroke-width="0.0" fill="rgb(255, 41, 70)" opacity="0.09130563" stroke="rgb(0, 0, 0)" stroke-opacity="1.0" stroke-linecap="round" stroke-linejoin="round"/>
    <path d="M 322.7842712402344 260.8868103027344 C 340.5270690917969 304.1302795410156 350.7718811035156 317.8416748046875 354.7670593261719 330.5190124511719 C 241.07696533203125 334.6568603515625 235.9828643798828 322.73675537109375 259.1928405761719 334.1430969238281 C 278.9549865722656 315.75921630859375 288.3350830078125 308.0548400878906 286.2237854003906 301.94598388671875 C 291.7412109375 294.37646484375 308.3533020019531 242.5556182861328 322.7842712402344 260.8868103027344" stroke-width="0.0" fill="rgb(0, 0, 117)" opacity="1.0" stroke="rgb(0, 0, 0)" stroke-opacity="1.0" stroke-linecap="round" stroke-linejoin="round"/>
    <path d="M 355.61810302734375 77.75514221191406 C 364.9228210449219 104.50340270996094 349.2829895019531 116.90603637695312 324.06976318359375 106.54047393798828 C 315.135498046875 95.8470687866211 311.0765686035156 111.89067840576172 317.3695373535156 113.52105712890625 C 317.245849609375 97.45486450195312 326.66766357421875 108.80904388427734 317.7611083984375 105.52600860595703 C 330.9830017089844 85.52599334716797 333.9939880371094 83.20980834960938 355.61810302734375 77.75514221191406" stroke-width="0.0" fill="rgb(93, 164, 5)" opacity="0.946816" stroke="rgb(0, 0, 0)" stroke-opacity="1.0" stroke-linecap="round" stroke-linejoin="round"/>
    <path d="M 270.98614501953125 232.44403076171875 C 277.727783203125 219.36843872070312 275.62164306640625 227.44618225097656 272.18572998046875 197.5251922607422 C 231.88243103027344 196.43310546875 208.587890625 254.9482879638672 225.59393310546875 218.0658416748047 C 251.4410400390625 183.71559143066406 258.313232421875 205.63931274414062 293.9994201660156 209.19580078125 C 276.40625 214.48399353027344 274.6985778808594 235.3949737548828 270.98614501953125 232.44403076171875" stroke-width="0.0" fill="rgb(255, 102, 8)" opacity="0.58207345" stroke="rgb(0, 0, 0)" stroke-opacity="1.0" stroke-linecap="round" stroke-linejoin="round"/>
    <path d="M 265.6439514160156 291.55584716796875 C 256.962158203125 272.55035400390625 257.677490234375 278.1434631347656 288.0802307128906 254.547607421875 C 258.9180603027344 266.2646789550781 245.24606323242188 266.6138000488281 242.46255493164062 253.5760040283203 C 252.1917266845703 232.5103302001953 244.28009033203125 237.9421844482422 274.6453857421875 253.83590698242188 C 273.3533935546875 230.2898406982422 268.92095947265625 250.05853271484375 265.6439514160156 291.55584716796875" stroke-width="0.0" fill="rgb(243, 133, 103)" opacity="0.0" stroke="rgb(0, 0, 0)" stroke-opacity="1.0" stroke-linecap="round" stroke-linejoin="round"/>
    <path d="M 363.1314392089844 211.133544921875 C 363.5137634277344 195.47120666503906 379.3548278808594 228.32546997070312 346.50103759765625 221.79966735839844 C 336.4581604003906 232.690185546875 317.58233642578125 229.2370147705078 322.31109619140625 210.93951416015625 C 345.4294738769531 185.57777404785156 332.818115234375 182.4331512451172 364.1711730957031 191.627197265625 C 383.81561279296875 185.587158203125 382.32794189453125 181.84852600097656 363.1314392089844 211.133544921875" stroke-width="0.0" fill="rgb(255, 230, 5)" opacity="0.0" stroke="rgb(0, 0, 0)" stroke-opacity="1.0" stroke-linecap="round" stroke-linejoin="round"/>
    <path d="M 93.47129821777344 450.2059631347656 C 88.36284637451172 452.3072204589844 64.99458312988281 453.34271240234375 79.06973266601562 465.1374206542969 C 71.48419189453125 472.7524719238281 53.74795150756836 468.46466064453125 50.766014099121094 457.4546813964844 C 51.138980865478516 435.2332763671875 62.84880447387695 448.65435791015625 46.91506576538086 448.5389709472656 C 53.21140670776367 461.53521728515625 60.2797966003418 474.4333190917969 93.47129821777344 450.2059631347656" stroke-width="0.0" fill="rgb(61, 155, 60)" opacity="0.646014" stroke="rgb(0, 0, 0)" stroke-opacity="1.0" stroke-linecap="round" stroke-linejoin="round"/>
    <path d="M 188.04039001464844 370.4349670410156 C 207.61480712890625 342.8612365722656 189.7413787841797 350.68426513671875 195.0363006591797 355.7237854003906 C 201.28018188476562 360.08197021484375 199.5272674560547 351.61663818359375 185.689697265625 347.0754089355469 C 193.70223999023438 326.8432312011719 179.8206329345703 339.45684814453125 206.16946411132812 330.7289733886719 C 192.64669799804688 331.0364074707031 181.46029663085938 353.40667724609375 188.04039001464844 370.4349670410156" stroke-width="0.0" fill="rgb(183, 117, 93)" opacity="0.012732957" stroke="rgb(0, 0, 0)" stroke-opacity="1.0" stroke-linecap="round" stroke-linejoin="round"/>
    <path d="M 36.360877990722656 303.5994567871094 C 39.3270378112793 312.6874694824219 31.715877532958984 334.2056579589844 25.1528377532959 334.6201171875 C 40.5779914855957 311.9324035644531 35.1395149230957 317.9833679199219 35.73784637451172 310.39349365234375 C 31.124221801757812 296.41265869140625 30.408212661743164 298.8791809082031 41.306278228759766 286.7146911621094 C 42.86709976196289 290.79290771484375 44.1129150390625 289.8702392578125 36.360877990722656 303.5994567871094" stroke-width="0.0" fill="rgb(76, 114, 73)" opacity="0.61068314" stroke="rgb(0, 0, 0)" stroke-opacity="1.0" stroke-linecap="round" stroke-linejoin="round"/>
    <path d="M 139.52105712890625 424.68463134765625 C 130.5311279296875 449.0841064453125 117.10775756835938 458.0841979980469 114.28392028808594 452.781982421875 C 118.1990966796875 455.5040283203125 117.0915298461914 453.9720764160156 113.54924011230469 457.3221130371094 C 114.97718811035156 454.7969055175781 121.79933166503906 441.572265625 130.90443420410156 440.55767822265625 C 130.31570434570312 427.8709411621094 139.37742614746094 428.3776550292969 139.52105712890625 424.68463134765625" stroke-width="0.0" fill="rgb(151, 158, 61)" opacity="0.6599676" stroke="rgb(0, 0, 0)" stroke-opacity="1.0" stroke-linecap="round" stroke-linejoin="round"/>
    <path d="M 492.87872314453125 71.04499053955078 C 545.2176513671875 68.99529266357422 543.259521484375 132.2028350830078 490.7677001953125 123.1714859008789 C 462.2900390625 121.22681427001953 468.7598571777344 111.48834991455078 463.2831726074219 77.33189392089844 C 453.442138671875 57.769996643066406 446.458740234375 57.535362243652344 498.0263366699219 50.74504089355469 C 496.4576416015625 60.03521728515625 503.18756103515625 69.3712158203125 492.87872314453125 71.04499053955078" stroke-width="0.0" fill="rgb(3, 91, 52)" opacity="0.1682784" stroke="rgb(0, 0, 0)" stroke-opacity="1.0" stroke-linecap="round" stroke-linejoin="round"/>
    <path d="M 61.32658386230469 230.13043212890625 C 77.1342544555664 211.24200439453125 52.62217330932617 201.38966369628906 15.204777717590332 213.417724609375 C 30.485382080078125 183.7942657470703 16.683238983154297 176.0260772705078 9.554553985595703 176.98155212402344 C 14.943164825439453 179.37957763671875 26.924240112304688 176.2477264404297 27.576690673828125 188.49974060058594 C 45.33283615112305 162.86439514160156 53.231990814208984 156.4744110107422 61.32658386230469 230.13043212890625" stroke-width="0.0" fill="rgb(40, 39, 194)" opacity="0.059757743" stroke="rgb(0, 0, 0)" stroke-opacity="1.0" stroke-linecap="round" stroke-linejoin="round"/>
    <path d="M 322.0439758300781 313.6570739746094 C 319.6476745605469 345.82568359375 318.95208740234375 344.0395812988281 313.8543395996094 333.1124267578125 C 309.6072998046875 349.0377197265625 275.0238037109375 351.15771484375 272.78778076171875 348.2056884765625 C 238.17782592773438 337.42333984375 262.3636474609375 349.8951110839844 309.0283203125 384.0611877441406 C 321.1916809082031 314.2121887207031 317.0279235839844 318.03387451171875 322.0439758300781 313.6570739746094" stroke-width="0.0" fill="rgb(177, 235, 0)" opacity="0.0" stroke="rgb(0, 0, 0)" stroke-opacity="1.0" stroke-linecap="round" stroke-linejoin="round"/>
    <path d="M 372.2297058105469 470.0028076171875 C 390.8717041015625 477.45947265625 403.2266845703125 441.9288635253906 369.95068359375 447.0713195800781 C 348.60308837890625 443.5394592285156 367.95489501953125 422.7090148925781 374.45391845703125 452.125 C 367.5212097167969 418.1665954589844 380.7366027832031 425.72283935546875 376.9893493652344 443.4525146484375 C 368.9115295410156 431.5833435058594 366.13360595703125 436.3768310546875 372.2297058105469 470.0028076171875" stroke-width="0.0" fill="rgb(108, 6, 103)" opacity="0.07129952" stroke="rgb(0, 0, 0)" stroke-opacity="1.0" stroke-linecap="round" stroke-linejoin="round"/>
    <path d="M 372.6124267578125 414.853515625 C 343.2563171386719 424.6406555175781 326.0668029785156 428.1181945800781 323.8368225097656 438.7626953125 C 334.8216552734375 401.59149169921875 358.6930236816406 397.4560546875 280.65576171875 413.4190979003906 C 277.593017578125 437.8231506347656 328.733154296875 425.9598693847656 349.620849609375 423.2843933105469 C 340.4510803222656 412.7685241699219 355.0378723144531 384.8204040527344 372.6124267578125 414.853515625" stroke-width="0.0" fill="rgb(19, 69, 7)" opacity="0.05139434" stroke="rgb(0, 0, 0)" stroke-opacity="1.0" stroke-linecap="round" stroke-linejoin="round"/>
    <path d="M 429.44696044921875 59.36199188232422 C 415.91796875 71.95232391357422 406.48834228515625 83.67400360107422 410.34381103515625 92.75858306884766 C 407.0633544921875 85.41754150390625 413.9337463378906 87.38719177246094 415.60418701171875 74.60205841064453 C 406.5673522949219 91.40560150146484 420.3033447265625 73.11590576171875 429.34759521484375 57.616722106933594 C 415.8653869628906 68.66861724853516 422.24737548828125 59.25102996826172 429.44696044921875 59.36199188232422" stroke-width="0.0" fill="rgb(63, 67, 134)" opacity="0.4929769" stroke="rgb(0, 0, 0)" stroke-opacity="1.0" stroke-linecap="round" stroke-linejoin="round"/>
    <path d="M 45.463504791259766 82.85819244384766 C 53.028831481933594 99.34444427490234 52.97346115112305 93.06751251220703 43.35344696044922 97.42462158203125 C 19.04031753540039 98.67899322509766 16.98354148864746 103.56959533691406 23.987499237060547 90.3392333984375 C 30.778207778930664 104.31094360351562 31.38128089904785 86.56834411621094 24.158771514892578 52.02613830566406 C -3.560365915298462 113.34603881835938 -4.819224834442139 86.2680892944336 45.463504791259766 82.85819244384766" stroke-width="0.0" fill="rgb(0, 52, 118)" opacity="0.0" stroke="rgb(0, 0, 0)" stroke-opacity="1.0" stroke-linecap="round" stroke-linejoin="round"/>
    <path d="M 60.26234817504883 150.9772491455078 C 13.079737663269043 137.5978546142578 10.711575508117676 158.29856872558594 18.136672973632812 158.15545654296875 C 27.298860549926758 142.24490356445312 7.791755199432373 138.4571990966797 -12.49297046661377 137.7621612548828 C -16.04114532470703 115.55709838867188 -0.9368652701377869 118.18144989013672 19.836498260498047 126.46788024902344 C 47.54875946044922 114.5912857055664 64.62210845947266 127.00498962402344 60.26234817504883 150.9772491455078" stroke-width="0.0" fill="rgb(10, 74, 131)" opacity="0.0062252376" stroke="rgb(0, 0, 0)" stroke-opacity="1.0" stroke-linecap="round" stroke-linejoin="round"/>
    <path d="M 517.783935546875 295.0312805175781 C 473.2219543457031 298.7774963378906 460.35113525390625 285.8749084472656 461.5486145019531 239.34417724609375 C 460.4990539550781 247.12847900390625 505.6219482421875 238.67633056640625 468.6473083496094 227.1912841796875 C 468.7293701171875 215.20892333984375 477.1236572265625 204.89309692382812 517.643310546875 209.9715576171875 C 533.5731201171875 223.36721801757812 550.97900390625 257.7507019042969 517.783935546875 295.0312805175781" stroke-width="0.0" fill="rgb(45, 64, 125)" opacity="0.0" stroke="rgb(0, 0, 0)" stroke-opacity="1.0" stroke-linecap="round" stroke-linejoin="round"/>
    <path d="M 308.60888671875 60.718536376953125 C 301.7994689941406 77.0042495727539 309.2147521972656 75.8485107421875 313.4861755371094 52.360740661621094 C 316.15936279296875 38.95161056518555 318.75408935546875 26.308446884155273 286.6550598144531 23.928194046020508 C 274.60260009765625 29.673852920532227 278.2086486816406 20.101713180541992 285.84869384765625 58.32422637939453 C 303.6098937988281 46.77829360961914 315.61016845703125 43.66448211669922 308.60888671875 60.718536376953125" stroke-width="0.0" fill="rgb(46, 50, 218)" opacity="0.0001356143" stroke="rgb(0, 0, 0)" stroke-opacity="1.0" stroke-linecap="round" stroke-linejoin="round"/>
    <path d="M 433.1392517089844 249.2245635986328 C 457.314453125 291.3641662597656 479.8872375488281 307.0300598144531 453.8778381347656 305.30841064453125 C 318.9142150878906 315.5696716308594 370.1395263671875 333.55657958984375 396.7114562988281 219.16677856445312 C 454.651611328125 254.11097717285156 401.41571044921875 255.4449005126953 391.7005920410156 263.26898193359375 C 406.2177429199219 225.38882446289062 433.8773193359375 233.80490112304688 433.1392517089844 249.2245635986328" stroke-width="0.0" fill="rgb(0, 0, 157)" opacity="1.0" stroke="rgb(0, 0, 0)" stroke-opacity="1.0" stroke-linecap="round" stroke-linejoin="round"/>
    <path d="M 552.6524047851562 147.95501708984375 C 545.3060302734375 159.88601684570312 523.4161376953125 159.436279296875 499.27532958984375 156.03900146484375 C 507.9189758300781 160.54891967773438 493.2442932128906 150.00286865234375 488.1212158203125 131.47564697265625 C 483.2973327636719 130.9381866455078 502.5745544433594 136.95860290527344 537.7570190429688 132.77281188964844 C 527.2041015625 104.87000274658203 529.018310546875 111.53146362304688 552.6524047851562 147.95501708984375" stroke-width="0.0" fill="rgb(21, 50, 119)" opacity="0.048652016" stroke="rgb(0, 0, 0)" stroke-opacity="1.0" stroke-linecap="round" stroke-linejoin="round"/>
    <path d="M 553.7584228515625 163.07559204101562 C 536.6406860351562 183.839111328125 562.90283203125 172.62965393066406 525.4024658203125 180.34336853027344 C 489.7156982421875 182.6251678466797 482.0476379394531 168.7711181640625 480.1094665527344 177.3830108642578 C 485.98126220703125 135.95570373535156 480.6858215332031 132.6829833984375 498.3892517089844 133.35873413085938 C 540.5880737304688 133.1185760498047 549.3560180664062 137.0933380126953 553.7584228515625 163.07559204101562" stroke-width="0.0" fill="rgb(27, 20, 117)" opacity="0.010089649" stroke="rgb(0, 0, 0)" stroke-opacity="1.0" stroke-linecap="round" stroke-linejoin="round"/>
    <path d="M 63.198978424072266 376.3101806640625 C 88.00360870361328 380.3323669433594 77.66630554199219 386.6741638183594 71.35638427734375 371.4234924316406 C 68.75189208984375 351.27178955078125 56.872867584228516 337.4358825683594 39.157440185546875 332.544189453125 C 33.98941421508789 345.05426025390625 39.641300201416016 356.1424255371094 38.642974853515625 364.61822509765625 C 43.6170654296875 357.0073547363281 53.213253021240234 369.87261962890625 63.198978424072266 376.3101806640625" stroke-width="0.0" fill="rgb(17, 54, 133)" opacity="0.37128496" stroke="rgb(0, 0, 0)" stroke-opacity="1.0" stroke-linecap="round" stroke-linejoin="round"/>
    <path d="M 340.8567199707031 217.0903778076172 C 348.0879211425781 247.80641174316406 359.3722839355469 224.12928771972656 307.9778747558594 223.40879821777344 C 318.34100341796875 262.12396240234375 300.2027587890625 265.52691650390625 322.5165100097656 264.3329772949219 C 313.8121337890625 271.065673828125 310.1463317871094 252.0379180908203 315.8879699707031 225.40342712402344 C 343.3858947753906 202.254150390625 347.927001953125 202.26324462890625 340.8567199707031 217.0903778076172" stroke-width="0.0" fill="rgb(181, 217, 30)" opacity="0.021950522" stroke="rgb(0, 0, 0)" stroke-opacity="1.0" stroke-linecap="round" stroke-linejoin="round"/>
    <path d="M 528.1796264648438 134.042724609375 C 515.2205200195312 85.27397918701172 486.054931640625 99.99591827392578 478.70355224609375 160.08363342285156 C 491.4510192871094 146.33322143554688 466.8802795410156 112.86149597167969 478.1352233886719 107.16828918457031 C 479.8345031738281 107.3617935180664 474.2961120605469 109.99295806884766 498.86273193359375 94.87975311279297 C 496.2364196777344 113.76580047607422 486.31475830078125 144.56336975097656 528.1796264648438 134.042724609375" stroke-width="0.0" fill="rgb(3, 49, 98)" opacity="0.15129973" stroke="rgb(0, 0, 0)" stroke-opacity="1.0" stroke-linecap="round" stroke-linejoin="round"/>
    <path d="M 455.4124450683594 442.9595031738281 C 471.9456481933594 456.1427307128906 466.491943359375 474.51751708984375 466.23126220703125 487.60296630859375 C 462.8424377441406 486.22943115234375 433.6800537109375 459.5445861816406 457.7951354980469 420.8135986328125 C 483.61883544921875 428.8613586425781 487.6332702636719 413.139404296875 460.5406494140625 444.2563781738281 C 469.08160400390625 469.0750427246094 473.87738037109375 475.42138671875 455.4124450683594 442.9595031738281" stroke-width="0.0" fill="rgb(48, 18, 63)" opacity="0.050639223" stroke="rgb(0, 0, 0)" stroke-opacity="1.0" stroke-linecap="round" stroke-linejoin="round"/>
    <path d="M 513.5386352539062 371.4124755859375 C 511.2347717285156 388.88800048828125 494.2003479003906 396.7497863769531 462.8006591796875 387.1417236328125 C 457.19427490234375 379.8070983886719 462.8775329589844 371.8406982421875 489.8854675292969 408.9374084472656 C 497.89422607421875 368.5667724609375 493.3983459472656 352.5068664550781 485.8930358886719 371.5126647949219 C 489.2769470214844 378.5176086425781 489.8592529296875 375.8367614746094 513.5386352539062 371.4124755859375" stroke-width="0.0" fill="rgb(100, 53, 119)" opacity="0.0" stroke="rgb(0, 0, 0)" stroke-opacity="1.0" stroke-linecap="round" stroke-linejoin="round"/>
    <path d="M 179.41116333007812 435.40399169921875 C 179.6842498779297 432.08526611328125 158.3470001220703 450.82147216796875 137.05711364746094 421.3681335449219 C 126.47193908691406 420.42144775390625 119.86318969726562 428.8330383300781 135.21725463867188 452.0268249511719 C 142.90721130371094 428.19580078125 149.41319274902344 405.6684875488281 144.0311737060547 424.1302490234375 C 138.30445861816406 423.4700927734375 162.0016632080078 434.1935729980469 179.41116333007812 435.40399169921875" stroke-width="0.0" fill="rgb(30, 8, 144)" opacity="0.14501104" stroke="rgb(0, 0, 0)" stroke-opacity="1.0" stroke-linecap="round" stroke-linejoin="round"/>
    <path d="M 116.375244140625 155.31546020507812 C 104.41265106201172 149.5343017578125 117.12994384765625 172.7366943359375 87.86705780029297 152.04959106445312 C 100.39337921142578 188.02688598632812 84.56779479980469 168.3285675048828 78.33204650878906 154.6854705810547 C 46.05992126464844 143.6958465576172 66.14124298095703 132.7964324951172 82.89141082763672 140.43804931640625 C 89.07341766357422 147.06361389160156 100.32757568359375 139.59913635253906 116.375244140625 155.31546020507812" stroke-width="0.0" fill="rgb(52, 41, 218)" opacity="0.046733227" stroke="rgb(0, 0, 0)" stroke-opacity="1.0" stroke-linecap="round" stroke-linejoin="round"/>
    <path d="M 183.09017944335938 128.79014587402344 C 199.43739318847656 149.58824157714844 190.50791931152344 158.44847106933594 146.6350555419922 178.67420959472656 C 161.87124633789062 151.23373413085938 169.32640075683594 139.32904052734375 176.1543426513672 135.66552734375 C 177.10879516601562 127.82620239257812 182.65676879882812 116.30067443847656 198.2783660888672 96.28429412841797 C 174.50645446777344 100.91275787353516 172.63723754882812 108.48933410644531 183.09017944335938 128.79014587402344" stroke-width="0.0" fill="rgb(132, 173, 37)" opacity="0.6898679" stroke="rgb(0, 0, 0)" stroke-opacity="1.0" stroke-linecap="round" stroke-linejoin="round"/>
    <path d="M 184.5213623046875 429.0657653808594 C 175.60704040527344 396.3829040527344 197.17208862304688 393.17413330078125 214.14266967773438 443.621826171875 C 168.24221801757812 433.60955810546875 190.86045837402344 398.2479248046875 170.546630859375 382.5848388671875 C 162.85279846191406 351.66986083984375 156.90676879882812 381.4035949707031 172.55947875976562 398.88031005859375 C 184.48828125 412.786376953125 190.37112426757812 413.4464111328125 184.5213623046875 429.0657653808594" stroke-width="0.0" fill="rgb(244, 178, 16)" opacity="1.0" stroke="rgb(0, 0, 0)" stroke-opacity="1.0" stroke-linecap="round" stroke-linejoin="round"/>
    <path d="M 444.4117126464844 91.57290649414062 C 443.9297790527344 115.23686218261719 443.03375244140625 127.46055603027344 441.77362060546875 138.13348388671875 C 428.7098388671875 138.49269104003906 432.6108703613281 142.55126953125 434.0829162597656 137.3002166748047 C 438.8215026855469 130.81350708007812 448.9982604980469 122.25171661376953 445.3518981933594 110.6648941040039 C 443.10992431640625 103.43963623046875 450.12872314453125 98.96912384033203 444.4117126464844 91.57290649414062" stroke-width="0.0" fill="rgb(41, 5, 151)" opacity="0.33367622" stroke="rgb(0, 0, 0)" stroke-opacity="1.0" stroke-linecap="round" stroke-linejoin="round"/>
    <path d="M 217.0117645263672 317.8906555175781 C 263.80169677734375 314.7326354980469 248.9199981689453 316.242919921875 218.17665100097656 349.99853515625 C 209.06460571289062 371.41064453125 223.17567443847656 351.0765686035156 215.3173370361328 300.40716552734375 C 218.9056854248047 291.3606262207031 231.76995849609375 317.7154235839844 238.20741271972656 318.9056701660156 C 237.35592651367188 328.3746337890625 223.73855590820312 335.3197937011719 217.0117645263672 317.8906555175781" stroke-width="0.0" fill="rgb(122, 11, 78)" opacity="0.0" stroke="rgb(0, 0, 0)" stroke-opacity="1.0" stroke-linecap="round" stroke-linejoin="round"/>
    <path d="M 145.3438720703125 492.010498046875 C 171.8528289794922 487.3488464355469 153.8507537841797 500.7305908203125 105.92311096191406 492.9415588378906 C 107.77013397216797 471.0361022949219 104.85499572753906 452.03594970703125 150.7389373779297 468.7586975097656 C 128.68685913085938 498.4523010253906 145.10430908203125 497.6095886230469 155.1007080078125 505.96923828125 C 149.36785888671875 485.8577880859375 147.04185485839844 474.0093994140625 145.3438720703125 492.010498046875" stroke-width="0.0" fill="rgb(18, 0, 150)" opacity="0.08364028" stroke="rgb(0, 0, 0)" stroke-opacity="1.0" stroke-linecap="round" stroke-linejoin="round"/>
    <path d="M 478.78668212890625 364.2333984375 C 469.6707763671875 378.0522155761719 440.5075988769531 364.5363464355469 434.4554443359375 399.40509033203125 C 430.58349609375 416.4478759765625 425.7451171875 390.1592102050781 438.4508972167969 399.7134094238281 C 432.4900817871094 369.5300598144531 438.083740234375 364.39202880859375 444.9588623046875 368.5294494628906 C 449.6706237792969 379.39520263671875 462.7075500488281 366.4608154296875 478.78668212890625 364.2333984375" stroke-width="0.0" fill="rgb(70, 64, 79)" opacity="0.0" stroke="rgb(0, 0, 0)" stroke-opacity="1.0" stroke-linecap="round" stroke-linejoin="round"/>
    <path d="M 330.61077880859375 100.52633666992188 C 301.7475280761719 110.18505859375 272.1349182128906 115.19378662109375 287.5780334472656 125.84906768798828 C 261.8626708984375 132.9342498779297 274.9439697265625 131.03199768066406 282.1805114746094 138.7282257080078 C 288.6611633300781 151.2152862548828 304.4766845703125 138.18699645996094 308.31561279296875 92.45028686523438 C 342.107421875 89.14729309082031 344.52130126953125 102.73663330078125 330.61077880859375 100.52633666992188" stroke-width="0.0" fill="rgb(178, 83, 136)" opacity="0.0052206917" stroke="rgb(0, 0, 0)" stroke-opacity="1.0" stroke-linecap="round" stroke-linejoin="round"/>
    <path d="M 402.8633728027344 44.910499572753906 C 397.4587707519531 65.72407531738281 396.7921142578125 65.37964630126953 357.19964599609375 48.26792907714844 C 359.907958984375 66.39847564697266 362.1574401855469 61.712833404541016 365.38421630859375 61.94887924194336 C 359.9864501953125 38.90206527709961 359.16339111328125 25.389801025390625 383.4632568359375 36.300132751464844 C 401.48699951171875 18.177024841308594 421.1273193359375 35.86020278930664 402.8633728027344 44.910499572753906" stroke-width="0.0" fill="rgb(18, 33, 173)" opacity="0.00021598172" stroke="rgb(0, 0, 0)" stroke-opacity="1.0" stroke-linecap="round" stroke-linejoin="round"/>
  </g>
</svg>
