<?xml version="1.0" ?>
<svg xmlns="http://www.w3.org/2000/svg" version="1.1" width="512" height="512">
  <defs/>
  <g>
    <path d="M 514.9517822265625 444.4568786621094 C 428.0921630859375 452.80328369140625 380.94189453125 562.9052124023438 496.0999450683594 553.3232421875 C 557.6134643554688 425.8810119628906 499.39398193359375 461.7421569824219 480.96905517578125 459.3663330078125 C 464.7481994628906 466.3822937011719 466.4415588378906 439.4319763183594 480.42718505859375 417.3509826660156 C 508.3064270019531 395.5944519042969 535.9954833984375 390.7912292480469 514.9517822265625 444.4568786621094" stroke-width="0.0" fill="rgb(51, 0, 208)" opacity="1.0" stroke="rgb(0, 0, 0)" stroke-opacity="1.0" stroke-linecap="round" stroke-linejoin="round"/>
    <path d="M 299.176025390625 507.91644287109375 C 233.63356018066406 570.7606201171875 163.56057739257812 590.3346557617188 142.40679931640625 415.5442810058594 C 35.04563522338867 390.08221435546875 123.49372863769531 398.9632568359375 -40.903011322021484 331.0809631347656 C 36.58567428588867 204.7497100830078 -47.54963302612305 276.91168212890625 -43.45393371582031 172.2109832763672 C 85.55923461914062 73.3114013671875 223.21824645996094 225.34754943847656 299.176025390625 507.91644287109375" stroke-width="0.0" fill="rgb(38, 33, 255)" opacity="0.9669552" stroke="rgb(0, 0, 0)" stroke-opacity="1.0" stroke-linecap="round" stroke-linejoin="round"/>
    <path d="M 439.5152282714844 94.38350677490234 C 489.3207702636719 287.16949462890625 438.7491760253906 323.7032165527344 294.68603515625 358.7918701171875 C 181.56655883789062 352.1413269042969 139.44509887695312 347.0779113769531 280.9693603515625 105.38355255126953 C 159.10874938964844 72.7499771118164 167.3957977294922 17.65205192565918 369.53173828125 -6.435511589050293 C 388.1854248046875 139.9162139892578 455.2742614746094 50.19657516479492 439.5152282714844 94.38350677490234" stroke-width="0.0" fill="rgb(97, 0, 207)" opacity="1.0" stroke="rgb(0, 0, 0)" stroke-opacity="1.0" stroke-linecap="round" stroke-linejoin="round"/>
    <path d="M 332.4430847167969 156.11790466308594 C 354.9677429199219 352.2811279296875 269.90582275390625 388.9333801269531 195.2926788330078 306.0854187011719 C 120.18379211425781 200.65151977539062 29.25234031677246 268.8970031738281 72.17532348632812 144.7547607421875 C 34.8434944152832 58.4924201965332 155.85107421875 79.1314468383789 128.48500061035156 29.86064910888672 C 199.21128845214844 -20.488780975341797 243.1002960205078 14.11462688446045 332.4430847167969 156.11790466308594" stroke-width="0.0" fill="rgb(80, 229, 177)" opacity="1.0" stroke="rgb(0, 0, 0)" stroke-opacity="1.0" stroke-linecap="round" stroke-linejoin="round"/>
    <path d="M 507.9902648925781 438.8383483886719 C 381.6771240234375 543.9410400390625 390.03192138671875 356.78302001953125 453.873291015625 505.3191223144531 C 287.0011291503906 561.8931274414062 332.2737121582031 554.1256713867188 275.6307678222656 466.4720153808594 C 236.85354614257812 218.49151611328125 252.97943115234375 266.0665588378906 309.2942199707031 215.1253662109375 C 432.1198425292969 116.09608459472656 592.5331420898438 190.87986755371094 507.9902648925781 438.8383483886719" stroke-width="0.0" fill="rgb(81, 0, 213)" opacity="1.0" stroke="rgb(0, 0, 0)" stroke-opacity="1.0" stroke-linecap="round" stroke-linejoin="round"/>
    <path d="M 532.0040893554688 195.33934020996094 C 548.2198486328125 317.1219177246094 482.2577819824219 239.88204956054688 576.490234375 352.0218811035156 C 452.89117431640625 423.9826354980469 249.03273010253906 318.5632629394531 460.7293395996094 199.17913818359375 C 329.400146484375 188.26760864257812 364.7566223144531 103.982177734375 439.42840576171875 99.83642578125 C 495.43310546875 152.8496551513672 528.0089721679688 122.21502685546875 532.0040893554688 195.33934020996094" stroke-width="0.0" fill="rgb(82, 7, 200)" opacity="0.99329793" stroke="rgb(0, 0, 0)" stroke-opacity="1.0" stroke-linecap="round" stroke-linejoin="round"/>
    <path d="M 428.86102294921875 212.3677978515625 C 321.15838623046875 276.7121887207031 328.2711486816406 288.3490295410156 276.2821350097656 288.7123107910156 C 226.2223663330078 316.6098327636719 281.5426025390625 353.30352783203125 71.19950866699219 201.48175048828125 C 351.999755859375 205.63601684570312 215.9193115234375 287.60601806640625 315.7479553222656 288.0610656738281 C 393.2484130859375 246.27684020996094 490.8375549316406 201.68191528320312 428.86102294921875 212.3677978515625" stroke-width="0.0" fill="rgb(49, 254, 122)" opacity="0.64344627" stroke="rgb(0, 0, 0)" stroke-opacity="1.0" stroke-linecap="round" stroke-linejoin="round"/>
    <path d="M 422.75311279296875 214.46046447753906 C 405.42803955078125 245.25613403320312 371.13262939453125 230.87252807617188 327.6755065917969 231.22181701660156 C 331.2228088378906 249.46780395507812 373.03277587890625 252.15582275390625 298.08355712890625 256.0065612792969 C 332.91253662109375 106.24263763427734 230.46612548828125 173.98611450195312 383.4317321777344 107.5760498046875 C 440.02105712890625 156.04299926757812 559.1052856445312 214.76011657714844 422.75311279296875 214.46046447753906" stroke-width="0.0" fill="rgb(174, 1, 231)" opacity="1.0" stroke="rgb(0, 0, 0)" stroke-opacity="1.0" stroke-linecap="round" stroke-linejoin="round"/>
    <path d="M 332.9990539550781 270.90093994140625 C 252.92587280273438 307.5341491699219 250.7440643310547 305.0378723144531 235.79052734375 297.3009948730469 C 223.7367706298828 272.0640869140625 199.2596893310547 268.8106384277344 71.24470520019531 192.5892791748047 C 199.1144256591797 119.74565124511719 106.7537841796875 210.12078857421875 178.90972900390625 219.93064880371094 C 223.4889373779297 255.9561004638672 231.7483673095703 281.0959777832031 332.9990539550781 270.90093994140625" stroke-width="0.0" fill="rgb(255, 75, 255)" opacity="1.0" stroke="rgb(0, 0, 0)" stroke-opacity="1.0" stroke-linecap="round" stroke-linejoin="round"/>
    <path d="M 471.5198669433594 249.00653076171875 C 304.7908935546875 304.5310363769531 578.80908203125 236.86260986328125 482.58721923828125 389.1058349609375 C 203.17376708984375 398.0270690917969 214.71177673339844 417.8024597167969 229.138916015625 350.3186950683594 C 363.3853759765625 236.03172302246094 379.8661193847656 237.45823669433594 391.1159362792969 262.48382568359375 C 390.4776306152344 238.010498046875 442.4494934082031 185.8924560546875 471.5198669433594 249.00653076171875" stroke-width="0.0" fill="rgb(87, 6, 238)" opacity="0.89722276" stroke="rgb(0, 0, 0)" stroke-opacity="1.0" stroke-linecap="round" stroke-linejoin="round"/>
    <path d="M 196.64462280273438 104.6423568725586 C 258.6090087890625 58.68244552612305 247.4047088623047 134.4003448486328 188.0607147216797 94.34978485107422 C 81.5280990600586 145.57070922851562 -88.62059783935547 286.3919677734375 49.809322357177734 -23.98354148864746 C 313.37841796875 13.090180397033691 208.55186462402344 144.31546020507812 134.65757751464844 29.521955490112305 C 357.15753173828125 -52.68699645996094 253.2556915283203 51.4283447265625 196.64462280273438 104.6423568725586" stroke-width="0.0" fill="rgb(42, 0, 216)" opacity="0.9970523" stroke="rgb(0, 0, 0)" stroke-opacity="1.0" stroke-linecap="round" stroke-linejoin="round"/>
    <path d="M 141.41575622558594 407.2957458496094 C 145.6693115234375 403.9319152832031 170.43203735351562 386.1487731933594 148.10240173339844 462.8227233886719 C 118.82441711425781 419.5464172363281 132.97544860839844 430.77117919921875 135.56735229492188 354.8061218261719 C 142.63565063476562 312.86279296875 120.18428039550781 313.9595947265625 156.59576416015625 316.97894287109375 C 137.23883056640625 373.053955078125 155.25587463378906 382.5780334472656 141.41575622558594 407.2957458496094" stroke-width="0.0" fill="rgb(153, 151, 57)" opacity="0.0" stroke="rgb(0, 0, 0)" stroke-opacity="1.0" stroke-linecap="round" stroke-linejoin="round"/>
    <path d="M 394.6378173828125 75.71528625488281 C 403.7609558105469 94.24675750732422 410.7962646484375 109.83332824707031 383.4151306152344 75.35317993164062 C 373.0482482910156 58.98768615722656 370.5670471191406 47.04975891113281 363.3075866699219 63.561439514160156 C 338.6880187988281 52.44414138793945 351.64422607421875 51.86061096191406 373.05047607421875 57.07649230957031 C 391.4519348144531 59.274478912353516 383.613037109375 57.691490173339844 394.6378173828125 75.71528625488281" stroke-width="0.0" fill="rgb(74, 183, 153)" opacity="0.06091147" stroke="rgb(0, 0, 0)" stroke-opacity="1.0" stroke-linecap="round" stroke-linejoin="round"/>
    <path d="M 557.0816650390625 53.184608459472656 C 541.8345947265625 86.36505889892578 521.2140502929688 58.03134536743164 500.3143310546875 64.35733795166016 C 487.63934326171875 89.54866790771484 460.0229797363281 84.70355224609375 431.1542053222656 74.32183074951172 C 428.2857360839844 -2.4448649883270264 440.78515625 -9.266512870788574 474.3946228027344 -9.658472061157227 C 501.29168701171875 -16.257373809814453 518.6566772460938 -17.103946685791016 557.0816650390625 53.184608459472656" stroke-width="0.0" fill="rgb(205, 59, 162)" opacity="0.28341597" stroke="rgb(0, 0, 0)" stroke-opacity="1.0" stroke-linecap="round" stroke-linejoin="round"/>
    <path d="M 339.65380859375 493.1624450683594 C 308.5641174316406 525.2933959960938 334.6932067871094 459.39666748046875 306.330078125 517.0439453125 C 129.7192840576172 577.5842895507812 115.02059936523438 485.2028503417969 155.74855041503906 489.61279296875 C 203.64779663085938 403.6263427734375 220.89361572265625 342.52471923828125 320.7179870605469 329.41796875 C 455.0768127441406 305.846923828125 414.2669982910156 261.62646484375 339.65380859375 493.1624450683594" stroke-width="0.0" fill="rgb(75, 33, 255)" opacity="0.47506145" stroke="rgb(0, 0, 0)" stroke-opacity="1.0" stroke-linecap="round" stroke-linejoin="round"/>
    <path d="M 227.4711456298828 278.2586669921875 C 290.6869201660156 339.55645751953125 306.3906555175781 306.0761413574219 237.90586853027344 346.5563659667969 C 128.44781494140625 290.96844482421875 20.081560134887695 248.1157684326172 52.463191986083984 242.67645263671875 C 106.03297424316406 191.7639923095703 169.68917846679688 281.9575500488281 245.89833068847656 304.025390625 C 233.5402069091797 271.8716125488281 180.30601501464844 243.65211486816406 227.4711456298828 278.2586669921875" stroke-width="0.0" fill="rgb(204, 135, 139)" opacity="0.0" stroke="rgb(0, 0, 0)" stroke-opacity="1.0" stroke-linecap="round" stroke-linejoin="round"/>
    <path d="M 418.73907470703125 426.8044738769531 C 398.60345458984375 455.01171875 329.8957214355469 428.8514404296875 348.16363525390625 473.95068359375 C 350.34112548828125 459.562255859375 347.3821716308594 438.0460510253906 313.72991943359375 491.24322509765625 C 257.5591125488281 356.89825439453125 232.89381408691406 257.3822326660156 344.4016418457031 277.7215881347656 C 369.5683898925781 432.59063720703125 393.8647766113281 385.6357116699219 418.73907470703125 426.8044738769531" stroke-width="0.0" fill="rgb(83, 25, 218)" opacity="0.48078504" stroke="rgb(0, 0, 0)" stroke-opacity="1.0" stroke-linecap="round" stroke-linejoin="round"/>
    <path d="M 322.8021240234375 115.66902160644531 C 445.1732482910156 90.12128448486328 396.8727111816406 134.33950805664062 320.8900146484375 169.00588989257812 C 237.7418975830078 141.4408416748047 284.9095458984375 206.7358856201172 267.17010498046875 129.57821655273438 C 265.0801696777344 88.11600494384766 338.44622802734375 37.68466567993164 304.7040100097656 90.06478881835938 C 304.70635986328125 164.91018676757812 370.2445983886719 114.59467315673828 322.8021240234375 115.66902160644531" stroke-width="0.0" fill="rgb(50, 125, 153)" opacity="0.6276346" stroke="rgb(0, 0, 0)" stroke-opacity="1.0" stroke-linecap="round" stroke-linejoin="round"/>
    <path d="M 391.86578369140625 265.7607421875 C 252.98460388183594 341.46258544921875 270.25933837890625 378.8846435546875 293.383544921875 384.5914001464844 C 242.1067352294922 459.7916564941406 234.11416625976562 354.6323547363281 122.56273651123047 274.7132873535156 C 130.9965362548828 252.9681854248047 171.97906494140625 262.7470397949219 275.9344787597656 328.3719787597656 C 408.8489990234375 240.30050659179688 545.5498046875 161.6749267578125 391.86578369140625 265.7607421875" stroke-width="0.0" fill="rgb(0, 210, 212)" opacity="0.8041319" stroke="rgb(0, 0, 0)" stroke-opacity="1.0" stroke-linecap="round" stroke-linejoin="round"/>
    <path d="M 430.212158203125 203.5784454345703 C 386.314208984375 168.93382263183594 374.5779113769531 159.1071014404297 350.25079345703125 190.2775115966797 C 393.5727233886719 211.2150421142578 370.6380310058594 225.25999450683594 319.38970947265625 214.16162109375 C 342.3740234375 192.4029083251953 380.6746826171875 232.0032196044922 359.26544189453125 145.46649169921875 C 394.7200012207031 170.45697021484375 427.4156494140625 171.57647705078125 430.212158203125 203.5784454345703" stroke-width="0.0" fill="rgb(104, 30, 133)" opacity="0.18903637" stroke="rgb(0, 0, 0)" stroke-opacity="1.0" stroke-linecap="round" stroke-linejoin="round"/>
    <path d="M 468.4999694824219 223.95697021484375 C 467.2671813964844 244.79559326171875 471.82086181640625 216.43707275390625 416.0791015625 232.44761657714844 C 313.80029296875 281.1004333496094 342.6194152832031 287.2825622558594 422.54425048828125 231.69918823242188 C 412.10552978515625 189.6941680908203 423.5469665527344 208.5380401611328 400.83441162109375 192.05235290527344 C 473.5975341796875 212.5252227783203 437.0000915527344 190.96807861328125 468.4999694824219 223.95697021484375" stroke-width="0.0" fill="rgb(136, 50, 223)" opacity="0.21627282" stroke="rgb(0, 0, 0)" stroke-opacity="1.0" stroke-linecap="round" stroke-linejoin="round"/>
    <path d="M 179.1057586669922 295.26531982421875 C 140.5897979736328 278.8236389160156 140.47262573242188 293.6842956542969 118.84749603271484 269.3401794433594 C 96.83344268798828 260.2753601074219 135.88323974609375 254.68020629882812 67.09474182128906 192.9510955810547 C 65.47821807861328 209.04193115234375 40.07505798339844 197.32452392578125 126.8674087524414 231.26754760742188 C 177.0926055908203 252.67745971679688 206.1862335205078 284.19805908203125 179.1057586669922 295.26531982421875" stroke-width="0.0" fill="rgb(0, 249, 189)" opacity="1.0" stroke="rgb(0, 0, 0)" stroke-opacity="1.0" stroke-linecap="round" stroke-linejoin="round"/>
    <path d="M 56.95231246948242 75.91606903076172 C 51.95723342895508 64.65341186523438 44.64364242553711 49.207828521728516 42.851593017578125 24.005321502685547 C 68.87390899658203 -16.553890228271484 98.22823333740234 -41.32844161987305 -12.884377479553223 2.465470790863037 C -20.5498046875 170.99041748046875 7.3922200202941895 115.11962127685547 49.33454895019531 102.38847351074219 C 67.39750671386719 49.32466125488281 55.65016174316406 47.81528854370117 56.95231246948242 75.91606903076172" stroke-width="0.0" fill="rgb(51, 13, 154)" opacity="0.90052944" stroke="rgb(0, 0, 0)" stroke-opacity="1.0" stroke-linecap="round" stroke-linejoin="round"/>
    <path d="M 361.330078125 182.4197998046875 C 376.3328552246094 213.8170623779297 353.0260314941406 202.15199279785156 310.1089172363281 234.29888916015625 C 243.44664001464844 298.76654052734375 256.85888671875 287.4052734375 249.49948120117188 161.2886505126953 C 281.9127197265625 179.7842559814453 267.1443176269531 204.20242309570312 290.52105712890625 124.7206802368164 C 326.6628112792969 113.97710418701172 332.70404052734375 147.13742065429688 361.330078125 182.4197998046875" stroke-width="0.0" fill="rgb(23, 141, 119)" opacity="0.86902475" stroke="rgb(0, 0, 0)" stroke-opacity="1.0" stroke-linecap="round" stroke-linejoin="round"/>
    <path d="M 185.69207763671875 536.7369384765625 C 118.37189483642578 490.4665222167969 163.47225952148438 481.15130615234375 158.55035400390625 524.8272094726562 C 123.97976684570312 517.978271484375 126.45278930664062 508.6993408203125 96.48743438720703 494.9891357421875 C 99.97804260253906 475.17559814453125 101.97579193115234 403.5575866699219 141.5508575439453 383.4367370605469 C 252.00392150878906 416.0251770019531 281.8785705566406 488.7177734375 185.69207763671875 536.7369384765625" stroke-width="0.0" fill="rgb(41, 25, 255)" opacity="0.976978" stroke="rgb(0, 0, 0)" stroke-opacity="1.0" stroke-linecap="round" stroke-linejoin="round"/>
    <path d="M 113.8578872680664 234.80291748046875 C 161.18702697753906 267.74652099609375 107.49714660644531 243.01040649414062 72.87348175048828 256.23016357421875 C 75.23245239257812 207.1967315673828 78.58311462402344 196.2220001220703 74.58454895019531 190.64820861816406 C 112.40694427490234 196.55288696289062 80.79617309570312 216.36251831054688 96.10078430175781 177.8123321533203 C 143.69284057617188 219.166015625 136.89129638671875 212.1493377685547 113.8578872680664 234.80291748046875" stroke-width="0.0" fill="rgb(164, 180, 182)" opacity="0.0054967403" stroke="rgb(0, 0, 0)" stroke-opacity="1.0" stroke-linecap="round" stroke-linejoin="round"/>
    <path d="M 114.61189270019531 147.235107421875 C 120.89092254638672 143.95933532714844 99.98011016845703 131.64100646972656 63.72195816040039 159.7615509033203 C 76.84601593017578 205.9713592529297 43.79056930541992 191.79827880859375 36.27387619018555 105.58513641357422 C 36.2534065246582 83.00227355957031 88.77632141113281 94.42977142333984 96.31462097167969 97.40129852294922 C 101.39497375488281 126.1445541381836 113.24773406982422 149.14369201660156 114.61189270019531 147.235107421875" stroke-width="0.0" fill="rgb(107, 136, 90)" opacity="0.01137928" stroke="rgb(0, 0, 0)" stroke-opacity="1.0" stroke-linecap="round" stroke-linejoin="round"/>
    <path d="M 275.4445495605469 208.41357421875 C 352.9122009277344 259.5160217285156 340.82440185546875 205.67483520507812 271.2216796875 206.51609802246094 C 263.7330627441406 238.12347412109375 270.5727233886719 238.06661987304688 222.459716796875 203.69993591308594 C 230.646728515625 203.10487365722656 243.1712646484375 185.2654266357422 269.7509765625 217.8979949951172 C 317.3329772949219 231.67576599121094 290.6313781738281 187.26246643066406 275.4445495605469 208.41357421875" stroke-width="0.0" fill="rgb(77, 114, 135)" opacity="0.001021039" stroke="rgb(0, 0, 0)" stroke-opacity="1.0" stroke-linecap="round" stroke-linejoin="round"/>
    <path d="M 228.1366424560547 104.71221923828125 C 220.34185791015625 106.7563705444336 192.78570556640625 127.11009216308594 185.12913513183594 130.33401489257812 C 185.30435180664062 101.7525634765625 193.0513458251953 189.6918182373047 85.73350524902344 209.53909301757812 C 154.00894165039062 109.2270278930664 208.30189514160156 123.98419189453125 220.77447509765625 96.98460388183594 C 239.45751953125 90.97908782958984 235.32566833496094 91.39579010009766 228.1366424560547 104.71221923828125" stroke-width="0.0" fill="rgb(189, 0, 255)" opacity="0.84187347" stroke="rgb(0, 0, 0)" stroke-opacity="1.0" stroke-linecap="round" stroke-linejoin="round"/>
    <path d="M 73.35163879394531 532.775390625 C 42.45839309692383 539.5292358398438 15.03414249420166 530.3245849609375 0.8111952543258667 530.5191040039062 C -9.364206314086914 527.7437133789062 -16.68471336364746 520.4232177734375 -21.20284080505371 510.0506896972656 C -18.48799705505371 494.70721435546875 -31.987857818603516 464.11956787109375 -36.5760612487793 434.423095703125 C 38.33624267578125 456.06134033203125 52.890716552734375 471.2501220703125 73.35163879394531 532.775390625" stroke-width="0.0" fill="rgb(255, 107, 18)" opacity="8.7876484e-05" stroke="rgb(0, 0, 0)" stroke-opacity="1.0" stroke-linecap="round" stroke-linejoin="round"/>
    <path d="M 221.27598571777344 139.50991821289062 C 252.62448120117188 131.23399353027344 156.34268188476562 117.2697982788086 91.23503112792969 190.6194305419922 C 59.80292510986328 183.28297424316406 123.25135040283203 212.63487243652344 161.51490783691406 192.32815551757812 C 149.8531951904297 206.9303436279297 139.74002075195312 197.0911407470703 95.41893768310547 198.2008056640625 C 133.53472900390625 160.5168914794922 114.80146789550781 164.88998413085938 221.27598571777344 139.50991821289062" stroke-width="0.0" fill="rgb(95, 210, 169)" opacity="0.041580025" stroke="rgb(0, 0, 0)" stroke-opacity="1.0" stroke-linecap="round" stroke-linejoin="round"/>
    <path d="M 459.3263854980469 223.7596435546875 C 331.5867004394531 295.580810546875 324.3982849121094 323.9586181640625 329.8952331542969 308.37017822265625 C 289.6296081542969 334.49884033203125 245.8463592529297 378.42572021484375 256.67230224609375 312.396728515625 C 304.461669921875 296.1512756347656 315.34381103515625 282.97662353515625 348.51068115234375 251.89337158203125 C 300.9400634765625 314.1328430175781 401.1676330566406 174.70094299316406 459.3263854980469 223.7596435546875" stroke-width="0.0" fill="rgb(69, 216, 67)" opacity="0.91187507" stroke="rgb(0, 0, 0)" stroke-opacity="1.0" stroke-linecap="round" stroke-linejoin="round"/>
    <path d="M 246.94664001464844 86.3509292602539 C 182.90328979492188 148.1162567138672 206.7730712890625 142.79225158691406 194.02322387695312 151.35012817382812 C 146.88230895996094 139.3072052001953 148.0157928466797 117.77164459228516 136.2005615234375 101.35263061523438 C 166.16403198242188 75.4403076171875 179.47006225585938 78.0064697265625 178.6875 84.24601745605469 C 199.5199432373047 91.58927154541016 224.8168487548828 55.457454681396484 246.94664001464844 86.3509292602539" stroke-width="0.0" fill="rgb(143, 242, 217)" opacity="0.9998141" stroke="rgb(0, 0, 0)" stroke-opacity="1.0" stroke-linecap="round" stroke-linejoin="round"/>
    <path d="M 200.04049682617188 107.86042022705078 C 189.51515197753906 109.5782699584961 189.89230346679688 121.79319763183594 128.2659912109375 114.74530029296875 C 125.1838607788086 38.07289123535156 116.8630599975586 89.57195281982422 157.28659057617188 47.03691101074219 C 131.48052978515625 -25.088592529296875 142.81826782226562 -46.483802795410156 231.1762237548828 -0.7113409638404846 C 225.7819366455078 99.62687683105469 211.02598571777344 84.2605209350586 200.04049682617188 107.86042022705078" stroke-width="0.0" fill="rgb(118, 0, 255)" opacity="1.0" stroke="rgb(0, 0, 0)" stroke-opacity="1.0" stroke-linecap="round" stroke-linejoin="round"/>
    <path d="M 380.3561096191406 63.43366241455078 C 397.1638488769531 82.98771667480469 386.4565124511719 94.85429382324219 365.3169250488281 114.20553588867188 C 384.8408203125 138.8183135986328 389.0732116699219 114.88699340820312 383.7012023925781 71.17893981933594 C 408.1858215332031 96.56285858154297 404.111083984375 104.5333023071289 376.3065185546875 62.800724029541016 C 367.501220703125 106.04443359375 369.48388671875 90.95965576171875 380.3561096191406 63.43366241455078" stroke-width="0.0" fill="rgb(175, 230, 186)" opacity="0.1837415" stroke="rgb(0, 0, 0)" stroke-opacity="1.0" stroke-linecap="round" stroke-linejoin="round"/>
    <path d="M 311.04669189453125 495.3136901855469 C 361.0701904296875 493.7447814941406 364.6643371582031 514.2206420898438 341.83209228515625 533.5532836914062 C 258.6075744628906 553.4572143554688 268.2831115722656 553.7796630859375 267.35821533203125 426.3255310058594 C 269.5533447265625 390.1022033691406 281.97991943359375 384.3031921386719 311.6953430175781 396.8484802246094 C 314.31829833984375 436.8901672363281 311.6295471191406 462.5367126464844 311.04669189453125 495.3136901855469" stroke-width="0.0" fill="rgb(94, 22, 255)" opacity="0.788455" stroke="rgb(0, 0, 0)" stroke-opacity="1.0" stroke-linecap="round" stroke-linejoin="round"/>
    <path d="M 291.2671203613281 194.24073791503906 C 321.7130126953125 160.3883819580078 320.3165588378906 160.6442413330078 313.986328125 203.3069305419922 C 296.5282897949219 154.39048767089844 313.751953125 142.42724609375 267.2784729003906 155.83135986328125 C 257.95367431640625 168.99868774414062 287.5091247558594 183.9328155517578 277.11505126953125 193.42686462402344 C 278.3045349121094 166.62359619140625 310.3206481933594 181.13833618164062 291.2671203613281 194.24073791503906" stroke-width="0.0" fill="rgb(34, 84, 139)" opacity="0.01592003" stroke="rgb(0, 0, 0)" stroke-opacity="1.0" stroke-linecap="round" stroke-linejoin="round"/>
    <path d="M 315.330078125 47.67953109741211 C 289.556640625 37.94817352294922 276.2308349609375 28.723621368408203 259.533447265625 18.448139190673828 C 253.06143188476562 17.588441848754883 246.81304931640625 0.32311588525772095 252.88462829589844 -16.69625473022461 C 237.81353759765625 -25.08819007873535 245.45167541503906 -27.33684539794922 238.70162963867188 -11.398505210876465 C 315.9978332519531 -31.849037170410156 325.2530517578125 -21.438602447509766 315.330078125 47.67953109741211" stroke-width="0.0" fill="rgb(96, 35, 236)" opacity="1.0" stroke="rgb(0, 0, 0)" stroke-opacity="1.0" stroke-linecap="round" stroke-linejoin="round"/>
    <path d="M 314.8847351074219 237.72268676757812 C 339.8767395019531 238.18873596191406 320.4903564453125 270.0079650878906 333.6623229980469 271.59600830078125 C 342.75347900390625 282.1123352050781 327.4674072265625 260.10931396484375 312.9725036621094 280.8248596191406 C 336.10418701171875 267.89202880859375 354.9927673339844 256.6632080078125 328.63250732421875 256.46673583984375 C 312.9835510253906 253.77345275878906 337.01947021484375 231.02487182617188 314.8847351074219 237.72268676757812" stroke-width="0.0" fill="rgb(206, 158, 245)" opacity="0.14529738" stroke="rgb(0, 0, 0)" stroke-opacity="1.0" stroke-linecap="round" stroke-linejoin="round"/>
    <path d="M 187.50245666503906 95.462646484375 C 183.18556213378906 79.235107421875 177.62635803222656 89.50598907470703 173.7477264404297 89.52447509765625 C 170.1689910888672 61.20240020751953 150.8074951171875 55.55168914794922 161.20323181152344 70.08065795898438 C 161.8443145751953 96.50831604003906 177.25477600097656 78.12361145019531 182.8334197998047 84.7938461303711 C 178.7106475830078 81.55534362792969 204.59716796875 87.19507598876953 187.50245666503906 95.462646484375" stroke-width="0.0" fill="rgb(96, 203, 10)" opacity="0.0" stroke="rgb(0, 0, 0)" stroke-opacity="1.0" stroke-linecap="round" stroke-linejoin="round"/>
    <path d="M 564.4920654296875 457.85687255859375 C 563.044921875 468.6024169921875 534.8983154296875 476.21759033203125 497.34088134765625 499.569091796875 C 467.3030090332031 494.0147399902344 449.1176452636719 483.4828796386719 464.8697509765625 456.8468017578125 C 475.5483093261719 411.475341796875 477.22833251953125 410.735595703125 510.65966796875 442.000732421875 C 528.8449096679688 441.687744140625 532.0311889648438 445.4210205078125 564.4920654296875 457.85687255859375" stroke-width="0.0" fill="rgb(85, 0, 195)" opacity="0.95349735" stroke="rgb(0, 0, 0)" stroke-opacity="1.0" stroke-linecap="round" stroke-linejoin="round"/>
    <path d="M 329.9569396972656 482.2265319824219 C 353.7916259765625 479.7200927734375 344.0783996582031 488.0976867675781 312.9395446777344 491.6334228515625 C 319.0218200683594 494.3593444824219 331.2271423339844 473.91455078125 329.6581726074219 453.77667236328125 C 294.51287841796875 487.3296203613281 316.0942077636719 522.5501098632812 336.5972595214844 500.5643005371094 C 340.1875915527344 471.7139587402344 326.195068359375 475.6356201171875 329.9569396972656 482.2265319824219" stroke-width="0.0" fill="rgb(99, 95, 148)" opacity="0.0040006796" stroke="rgb(0, 0, 0)" stroke-opacity="1.0" stroke-linecap="round" stroke-linejoin="round"/>
    <path d="M 499.9817810058594 403.1568603515625 C 508.99761962890625 440.2201232910156 477.613037109375 435.9598693847656 418.7671203613281 435.56732177734375 C 411.76739501953125 433.28790283203125 400.64385986328125 429.44256591796875 391.4486083984375 376.97418212890625 C 414.7154541015625 378.2515869140625 411.40869140625 380.3383483886719 461.6498718261719 362.3857116699219 C 492.6072692871094 343.2882080078125 492.45880126953125 365.99615478515625 499.9817810058594 403.1568603515625" stroke-width="0.0" fill="rgb(94, 0, 222)" opacity="0.97328585" stroke="rgb(0, 0, 0)" stroke-opacity="1.0" stroke-linecap="round" stroke-linejoin="round"/>
    <path d="M 426.19195556640625 384.93963623046875 C 396.0412292480469 405.93792724609375 405.28076171875 441.3395080566406 388.87579345703125 443.6909484863281 C 395.4898376464844 433.3559265136719 375.6566467285156 408.3895568847656 375.5335388183594 403.49481201171875 C 375.2660827636719 385.4073181152344 375.0890808105469 377.4543151855469 388.43890380859375 367.5650634765625 C 424.10137939453125 361.562255859375 444.4343566894531 364.6878662109375 426.19195556640625 384.93963623046875" stroke-width="0.0" fill="rgb(33, 0, 197)" opacity="0.7241514" stroke="rgb(0, 0, 0)" stroke-opacity="1.0" stroke-linecap="round" stroke-linejoin="round"/>
    <path d="M 280.5547790527344 129.10174560546875 C 262.1624450683594 131.52618408203125 248.4379119873047 143.51194763183594 256.9517517089844 108.13703918457031 C 299.2699279785156 140.70040893554688 272.4613342285156 151.14865112304688 218.78366088867188 160.06069946289062 C 224.1750030517578 140.03372192382812 243.28994750976562 162.67306518554688 291.796875 136.2215576171875 C 280.0325012207031 109.592041015625 269.0047302246094 141.51075744628906 280.5547790527344 129.10174560546875" stroke-width="0.0" fill="rgb(64, 233, 181)" opacity="0.29637364" stroke="rgb(0, 0, 0)" stroke-opacity="1.0" stroke-linecap="round" stroke-linejoin="round"/>
    <path d="M 121.25304412841797 424.965087890625 C 129.71937561035156 456.54266357421875 107.73807525634766 459.65618896484375 98.80746459960938 481.4457702636719 C 58.728580474853516 460.15728759765625 49.370147705078125 447.8218994140625 -10.492151260375977 418.5727233886719 C -8.938675880432129 325.8186950683594 1.4819395542144775 336.7523193359375 47.95081329345703 354.4982604980469 C 101.28286743164062 398.9222106933594 120.05248260498047 397.8525085449219 121.25304412841797 424.965087890625" stroke-width="0.0" fill="rgb(51, 14, 250)" opacity="0.98163515" stroke="rgb(0, 0, 0)" stroke-opacity="1.0" stroke-linecap="round" stroke-linejoin="round"/>
    <path d="M 475.71966552734375 73.88008117675781 C 485.52191162109375 97.67520904541016 505.106201171875 158.45115661621094 450.6015625 130.5679168701172 C 378.20989990234375 130.7059326171875 364.85101318359375 123.55193328857422 328.5423583984375 79.08483123779297 C 348.64593505859375 6.034180164337158 368.4035339355469 17.487348556518555 412.9886169433594 42.92707824707031 C 455.0675964355469 57.29578399658203 443.4123229980469 80.46532440185547 475.71966552734375 73.88008117675781" stroke-width="0.0" fill="rgb(123, 0, 252)" opacity="1.0" stroke="rgb(0, 0, 0)" stroke-opacity="1.0" stroke-linecap="round" stroke-linejoin="round"/>
    <path d="M 202.49374389648438 14.388903617858887 C 207.34585571289062 41.64719009399414 204.3530731201172 44.53540802001953 179.18917846679688 32.681480407714844 C 159.4591827392578 38.03730010986328 182.95909118652344 29.004358291625977 211.7094268798828 30.417285919189453 C 180.01486206054688 37.24407196044922 206.87098693847656 19.29646873474121 193.0576171875 -5.039039134979248 C 184.2849884033203 -0.2737196087837219 187.57054138183594 27.22395133972168 202.49374389648438 14.388903617858887" stroke-width="0.0" fill="rgb(148, 84, 173)" opacity="0.0" stroke="rgb(0, 0, 0)" stroke-opacity="1.0" stroke-linecap="round" stroke-linejoin="round"/>
    <path d="M 520.0110473632812 204.4891815185547 C 513.5076293945312 216.50634765625 498.9289855957031 220.17237854003906 486.3751525878906 176.44264221191406 C 490.8822326660156 137.43295288085938 496.7767333984375 140.0557403564453 516.6982421875 169.97727966308594 C 482.54962158203125 150.95388793945312 471.74334716796875 147.20326232910156 507.77911376953125 152.8447265625 C 506.2283020019531 161.33787536621094 505.1487121582031 185.21588134765625 520.0110473632812 204.4891815185547" stroke-width="0.0" fill="rgb(168, 194, 142)" opacity="0.04542144" stroke="rgb(0, 0, 0)" stroke-opacity="1.0" stroke-linecap="round" stroke-linejoin="round"/>
    <path d="M 418.2342834472656 313.34765625 C 425.64105224609375 326.26495361328125 416.99273681640625 312.8028869628906 415.6259460449219 324.6719665527344 C 411.4693298339844 314.3294982910156 385.4143371582031 309.6022644042969 360.9803161621094 312.97137451171875 C 350.84796142578125 275.0179748535156 393.84063720703125 254.43858337402344 427.3575134277344 248.24075317382812 C 429.1197204589844 296.3581237792969 426.9319152832031 317.37750244140625 418.2342834472656 313.34765625" stroke-width="0.0" fill="rgb(9, 120, 122)" opacity="0.09377774" stroke="rgb(0, 0, 0)" stroke-opacity="1.0" stroke-linecap="round" stroke-linejoin="round"/>
    <path d="M 288.71722412109375 296.6495361328125 C 276.8808288574219 304.50543212890625 253.360595703125 320.291748046875 246.55934143066406 300.5487976074219 C 232.60589599609375 286.3642883300781 230.41140747070312 282.20989990234375 219.6245880126953 275.99566650390625 C 205.3076171875 258.7310791015625 205.89833068847656 254.1569366455078 224.43048095703125 273.513671875 C 250.4704132080078 280.41070556640625 262.7073059082031 279.52996826171875 288.71722412109375 296.6495361328125" stroke-width="0.0" fill="rgb(255, 62, 255)" opacity="1.0" stroke="rgb(0, 0, 0)" stroke-opacity="1.0" stroke-linecap="round" stroke-linejoin="round"/>
    <path d="M 247.8939971923828 290.3251953125 C 242.36082458496094 297.524169921875 249.6891326904297 289.4703063964844 250.33657836914062 299.1438903808594 C 257.0458679199219 306.8194885253906 235.7851104736328 305.8149108886719 217.98316955566406 293.7182312011719 C 235.79225158691406 306.3641052246094 252.05430603027344 304.00067138671875 249.19065856933594 306.75897216796875 C 242.28512573242188 295.4576416015625 263.1540222167969 288.4778137207031 247.8939971923828 290.3251953125" stroke-width="0.0" fill="rgb(43, 226, 73)" opacity="0.0" stroke="rgb(0, 0, 0)" stroke-opacity="1.0" stroke-linecap="round" stroke-linejoin="round"/>
    <path d="M 70.6833724975586 172.46783447265625 C 48.33265686035156 142.7036895751953 52.23564147949219 98.13304901123047 69.1876220703125 146.12017822265625 C 77.06049346923828 159.75328063964844 60.917015075683594 171.8219451904297 29.391536712646484 164.5004119873047 C 2.9693117141723633 111.75658416748047 25.134693145751953 110.1957778930664 88.84977722167969 112.74132537841797 C 61.46399688720703 145.0455780029297 79.50605010986328 154.39979553222656 70.6833724975586 172.46783447265625" stroke-width="0.0" fill="rgb(96, 6, 29)" opacity="0.054415695" stroke="rgb(0, 0, 0)" stroke-opacity="1.0" stroke-linecap="round" stroke-linejoin="round"/>
    <path d="M 436.3435363769531 169.9976348876953 C 431.5711364746094 161.6426544189453 395.8554382324219 152.79150390625 411.576171875 135.4912567138672 C 428.3288879394531 158.44610595703125 419.1958923339844 143.725830078125 420.1263122558594 125.94641876220703 C 395.1628112792969 114.58137512207031 405.24835205078125 101.54146575927734 413.1407775878906 116.71554565429688 C 433.2774658203125 132.18338012695312 448.3658447265625 134.5238494873047 436.3435363769531 169.9976348876953" stroke-width="0.0" fill="rgb(64, 161, 117)" opacity="0.7126357" stroke="rgb(0, 0, 0)" stroke-opacity="1.0" stroke-linecap="round" stroke-linejoin="round"/>
    <path d="M 131.9107666015625 461.6441650390625 C 137.67559814453125 495.3050537109375 109.21964263916016 498.91705322265625 75.13240051269531 509.3485107421875 C 60.42955017089844 508.716796875 57.95315933227539 480.7888488769531 41.12641525268555 464.58221435546875 C 54.9731330871582 451.4375915527344 70.96666717529297 465.3009338378906 85.53595733642578 449.9277038574219 C 82.31708526611328 441.35186767578125 100.75961303710938 437.5249938964844 131.9107666015625 461.6441650390625" stroke-width="0.0" fill="rgb(188, 134, 13)" opacity="0.06899865" stroke="rgb(0, 0, 0)" stroke-opacity="1.0" stroke-linecap="round" stroke-linejoin="round"/>
    <path d="M 504.80224609375 17.68673324584961 C 487.10699462890625 15.943153381347656 480.79095458984375 43.492916107177734 484.2266540527344 67.5876235961914 C 519.8612670898438 55.37750244140625 525.7440795898438 45.60551071166992 520.8577880859375 -4.343182563781738 C 493.7438659667969 54.27131271362305 492.7925720214844 36.068275451660156 496.6216125488281 58.16386795043945 C 506.6812744140625 33.17943572998047 513.891357421875 38.409969329833984 504.80224609375 17.68673324584961" stroke-width="0.0" fill="rgb(164, 64, 201)" opacity="0.35710368" stroke="rgb(0, 0, 0)" stroke-opacity="1.0" stroke-linecap="round" stroke-linejoin="round"/>
    <path d="M 287.6837158203125 294.95013427734375 C 282.1667175292969 318.77520751953125 300.7189025878906 335.6326599121094 285.932861328125 327.6807861328125 C 271.3958435058594 318.56060791015625 267.3556823730469 317.77294921875 271.14801025390625 309.28253173828125 C 278.9249267578125 301.9989013671875 262.6171569824219 287.873291015625 272.3338623046875 283.3863830566406 C 327.6172180175781 282.3084411621094 325.267822265625 279.0939636230469 287.6837158203125 294.95013427734375" stroke-width="0.0" fill="rgb(47, 42, 254)" opacity="0.0" stroke="rgb(0, 0, 0)" stroke-opacity="1.0" stroke-linecap="round" stroke-linejoin="round"/>
    <path d="M 350.50537109375 90.67740631103516 C 350.6253662109375 106.68434143066406 351.4430236816406 115.93799591064453 339.1949157714844 131.93881225585938 C 330.89227294921875 77.00707244873047 314.107421875 88.57861328125 299.4112548828125 93.01459503173828 C 324.81884765625 86.25564575195312 292.1056213378906 78.02617645263672 314.8558044433594 55.595123291015625 C 341.0186767578125 86.70621490478516 352.9044189453125 86.1610336303711 350.50537109375 90.67740631103516" stroke-width="0.0" fill="rgb(100, 38, 228)" opacity="0.01085971" stroke="rgb(0, 0, 0)" stroke-opacity="1.0" stroke-linecap="round" stroke-linejoin="round"/>
    <path d="M 133.76502990722656 74.54823303222656 C 109.28925323486328 46.76369094848633 123.03520965576172 67.54862976074219 121.14146423339844 99.72188568115234 C 112.38687133789062 98.74211120605469 109.09373474121094 79.17475891113281 105.00885009765625 86.25613403320312 C 97.03850555419922 64.16436767578125 133.39205932617188 54.327911376953125 111.85617065429688 116.38153839111328 C 146.40756225585938 123.36251068115234 146.82675170898438 81.65791320800781 133.76502990722656 74.54823303222656" stroke-width="0.0" fill="rgb(236, 109, 255)" opacity="0.30725586" stroke="rgb(0, 0, 0)" stroke-opacity="1.0" stroke-linecap="round" stroke-linejoin="round"/>
    <path d="M 478.1850891113281 474.34588623046875 C 455.4211120605469 496.8135070800781 452.105712890625 513.160888671875 426.8775939941406 528.7452392578125 C 411.48583984375 526.5192260742188 393.0794372558594 522.9502563476562 377.8384704589844 488.76519775390625 C 419.7838439941406 468.0000305175781 417.9563293457031 454.036376953125 430.399658203125 429.6073303222656 C 472.4088134765625 447.5173645019531 489.1754455566406 474.8094787597656 478.1850891113281 474.34588623046875" stroke-width="0.0" fill="rgb(54, 36, 181)" opacity="0.20481221" stroke="rgb(0, 0, 0)" stroke-opacity="1.0" stroke-linecap="round" stroke-linejoin="round"/>
    <path d="M 207.9308319091797 123.59796905517578 C 189.12413024902344 110.3755111694336 173.82823181152344 97.36690521240234 166.6279754638672 94.43612670898438 C 189.84791564941406 85.66737365722656 162.05165100097656 107.70602416992188 175.87701416015625 88.04279327392578 C 211.41932678222656 106.41316986083984 234.30857849121094 79.59271240234375 250.19227600097656 51.99946212768555 C 249.64280700683594 43.571739196777344 239.00765991210938 71.14020538330078 207.9308319091797 123.59796905517578" stroke-width="0.0" fill="rgb(100, 222, 145)" opacity="0.48017117" stroke="rgb(0, 0, 0)" stroke-opacity="1.0" stroke-linecap="round" stroke-linejoin="round"/>
    <path d="M 293.865478515625 203.7256622314453 C 273.437255859375 217.75010681152344 272.31884765625 228.96131896972656 267.3970031738281 219.3325653076172 C 252.02642822265625 224.86341857910156 254.7172393798828 219.94802856445312 262.23760986328125 229.67034912109375 C 260.678466796875 217.22598266601562 265.501953125 207.68821716308594 282.3167724609375 197.8614501953125 C 289.00537109375 202.69151306152344 291.8184509277344 204.96957397460938 293.865478515625 203.7256622314453" stroke-width="0.0" fill="rgb(99, 89, 161)" opacity="0.010449061" stroke="rgb(0, 0, 0)" stroke-opacity="1.0" stroke-linecap="round" stroke-linejoin="round"/>
    <path d="M 443.9769287109375 -41.63066101074219 C 438.97613525390625 -22.755102157592773 454.3477783203125 0.47303131222724915 452.847900390625 63.37022399902344 C 408.1214599609375 55.243934631347656 421.1582946777344 30.27863883972168 419.34552001953125 -14.483013153076172 C 445.0586242675781 -21.865718841552734 456.58050537109375 -16.64778709411621 468.6918029785156 -15.570713996887207 C 476.8262023925781 -16.114213943481445 486.2515869140625 -11.2457275390625 443.9769287109375 -41.63066101074219" stroke-width="0.0" fill="rgb(131, 97, 52)" opacity="0.18055888" stroke="rgb(0, 0, 0)" stroke-opacity="1.0" stroke-linecap="round" stroke-linejoin="round"/>
    <path d="M 155.76419067382812 430.2048034667969 C 116.88971710205078 425.3954162597656 146.46310424804688 402.671875 184.74267578125 436.3617248535156 C 141.3599090576172 458.630615234375 124.4581069946289 445.5098571777344 143.08944702148438 438.5912780761719 C 139.95179748535156 435.46502685546875 132.99012756347656 438.18853759765625 107.73873138427734 407.7591247558594 C 147.87893676757812 399.24658203125 153.5498046875 427.0721740722656 155.76419067382812 430.2048034667969" stroke-width="0.0" fill="rgb(111, 2, 244)" opacity="0.040937446" stroke="rgb(0, 0, 0)" stroke-opacity="1.0" stroke-linecap="round" stroke-linejoin="round"/>
  </g>
</svg>
