<?xml version="1.0" ?>
<svg xmlns="http://www.w3.org/2000/svg" version="1.1" width="512" height="512">
  <defs/>
  <g>
    <path d="M 570.5868530273438 429.1164245605469 C 547.4852905273438 516.6414794921875 548.3889770507812 525.1383666992188 391.3502197265625 531.8592529296875 C 319.6318359375 563.259765625 284.97894287109375 567.28515625 268.6010437011719 511.383544921875 C 315.5998840332031 334.9691162109375 366.4004821777344 312.4425354003906 447.4880065917969 309.353759765625 C 580.1546020507812 311.9067077636719 590.7100219726562 319.5659484863281 570.5868530273438 429.1164245605469" stroke-width="0.0" fill="rgb(20, 75, 179)" opacity="0.97654676" stroke="rgb(0, 0, 0)" stroke-opacity="1.0" stroke-linecap="round" stroke-linejoin="round"/>
    <path d="M 321.4381103515625 367.1632080078125 C 285.1838073730469 471.8661804199219 283.9979248046875 519.9305419921875 246.39935302734375 544.9522094726562 C -52.332725524902344 524.80615234375 -52.07839584350586 516.4647827148438 -45.554439544677734 459.1651916503906 C -24.71504783630371 185.0009765625 -23.917160034179688 184.8386993408203 27.40094566345215 197.8585205078125 C 266.1663513183594 245.395751953125 307.3573303222656 170.8071746826172 321.4381103515625 367.1632080078125" stroke-width="0.0" fill="rgb(255, 188, 0)" opacity="1.0" stroke="rgb(0, 0, 0)" stroke-opacity="1.0" stroke-linecap="round" stroke-linejoin="round"/>
    <path d="M 291.1161804199219 335.9346923828125 C 399.13525390625 276.9173583984375 191.04843139648438 358.8879699707031 263.9084167480469 365.4609069824219 C 142.01763916015625 478.0730285644531 44.04755783081055 369.3263244628906 102.50968170166016 189.38734436035156 C 97.89205932617188 173.2017364501953 72.4641342163086 183.5184783935547 136.3651123046875 199.16761779785156 C 208.05372619628906 237.16761779785156 297.0116882324219 137.55587768554688 291.1161804199219 335.9346923828125" stroke-width="0.0" fill="rgb(132, 88, 31)" opacity="0.31164518" stroke="rgb(0, 0, 0)" stroke-opacity="1.0" stroke-linecap="round" stroke-linejoin="round"/>
    <path d="M 218.81979370117188 -15.70740032196045 C 219.09420776367188 185.00289916992188 210.73841857910156 160.58499145507812 87.8720932006836 255.6993408203125 C -9.623591423034668 208.54849243164062 -15.104557991027832 184.52552795410156 -17.000181198120117 122.59538269042969 C -30.318214416503906 -3.8412396907806396 -16.27437400817871 -22.290302276611328 32.766883850097656 -18.097028732299805 C 196.82273864746094 -23.394615173339844 224.5518341064453 -36.593833923339844 218.81979370117188 -15.70740032196045" stroke-width="0.0" fill="rgb(254, 208, 11)" opacity="0.9626001" stroke="rgb(0, 0, 0)" stroke-opacity="1.0" stroke-linecap="round" stroke-linejoin="round"/>
    <path d="M 515.9630126953125 69.98275756835938 C 439.44000244140625 291.50494384765625 433.7610168457031 375.9184875488281 357.7525329589844 308.8233947753906 C 399.1307373046875 209.8154754638672 161.86558532714844 331.5504150390625 227.13677978515625 223.88272094726562 C 246.7989959716797 90.5684585571289 235.74996948242188 49.01359176635742 379.3238525390625 -26.913429260253906 C 623.5518798828125 -19.198362350463867 601.8944702148438 42.82190704345703 515.9630126953125 69.98275756835938" stroke-width="0.0" fill="rgb(123, 46, 141)" opacity="1.0" stroke="rgb(0, 0, 0)" stroke-opacity="1.0" stroke-linecap="round" stroke-linejoin="round"/>
    <path d="M 287.6631774902344 194.2871551513672 C 183.67550659179688 304.71624755859375 258.68194580078125 244.40733337402344 173.25198364257812 313.7663269042969 C 176.0424346923828 189.3824920654297 124.01068878173828 202.15176391601562 94.69007873535156 276.1618957519531 C 176.7487335205078 172.93582153320312 146.81761169433594 88.96543884277344 359.9974060058594 -1.84063720703125 C 378.4836730957031 9.292837142944336 303.0739440917969 18.786428451538086 287.6631774902344 194.2871551513672" stroke-width="0.0" fill="rgb(231, 60, 0)" opacity="1.0" stroke="rgb(0, 0, 0)" stroke-opacity="1.0" stroke-linecap="round" stroke-linejoin="round"/>
    <path d="M 454.88616943359375 314.8534240722656 C 452.46246337890625 425.2129211425781 474.09161376953125 440.29241943359375 253.17837524414062 421.64044189453125 C 89.90050506591797 417.26123046875 98.97835540771484 418.93963623046875 346.4544677734375 424.8753356933594 C 239.556640625 247.68287658691406 294.6540222167969 193.25587463378906 312.66864013671875 192.92042541503906 C 466.021240234375 184.3245849609375 465.9270324707031 214.8591766357422 454.88616943359375 314.8534240722656" stroke-width="0.0" fill="rgb(122, 108, 93)" opacity="0.43745053" stroke="rgb(0, 0, 0)" stroke-opacity="1.0" stroke-linecap="round" stroke-linejoin="round"/>
    <path d="M 578.3527221679688 227.87283325195312 C 583.2921142578125 359.5359191894531 575.6019287109375 361.5227355957031 472.5071105957031 400.09197998046875 C 384.5865478515625 391.3535461425781 411.30908203125 339.6900939941406 377.5859680175781 277.33349609375 C 397.8435363769531 111.53321838378906 369.8875427246094 32.49616241455078 520.7575073242188 12.2069730758667 C 579.85888671875 25.926427841186523 574.5614013671875 69.1954345703125 578.3527221679688 227.87283325195312" stroke-width="0.0" fill="rgb(66, 73, 232)" opacity="0.99796885" stroke="rgb(0, 0, 0)" stroke-opacity="1.0" stroke-linecap="round" stroke-linejoin="round"/>
    <path d="M 388.615478515625 72.79837799072266 C 391.59649658203125 113.70079040527344 412.0421142578125 267.1232604980469 364.7470397949219 376.3611145019531 C 408.6134948730469 135.7662353515625 116.59101104736328 302.9756774902344 189.2007293701172 195.23214721679688 C 206.1702423095703 185.12545776367188 302.88494873046875 180.26573181152344 392.5134582519531 181.10325622558594 C 409.08758544921875 85.50816345214844 380.3911437988281 103.29869079589844 388.615478515625 72.79837799072266" stroke-width="0.0" fill="rgb(130, 0, 0)" opacity="0.7943857" stroke="rgb(0, 0, 0)" stroke-opacity="1.0" stroke-linecap="round" stroke-linejoin="round"/>
    <path d="M 237.2959442138672 269.1371765136719 C 253.19711303710938 264.5869445800781 217.9452667236328 306.4534912109375 206.4990997314453 294.02978515625 C 266.38348388671875 285.6600341796875 246.69679260253906 275.0811767578125 218.70899963378906 298.6654968261719 C 222.74436950683594 216.45762634277344 248.89537048339844 202.19235229492188 227.004150390625 245.08013916015625 C 238.7795867919922 251.27622985839844 231.2032012939453 213.8682403564453 237.2959442138672 269.1371765136719" stroke-width="0.0" fill="rgb(41, 40, 0)" opacity="0.8386254" stroke="rgb(0, 0, 0)" stroke-opacity="1.0" stroke-linecap="round" stroke-linejoin="round"/>
    <path d="M 404.666259765625 299.1526184082031 C 404.5947265625 349.0979919433594 373.7215881347656 322.3647766113281 383.8371276855469 385.59686279296875 C 345.6258544921875 323.5788269042969 352.8913269042969 298.8882141113281 365.5661926269531 295.4833984375 C 362.6861267089844 140.32138061523438 363.1301574707031 170.53945922851562 383.5030517578125 142.6798095703125 C 410.7499084472656 220.44432067871094 386.9609680175781 225.32870483398438 404.666259765625 299.1526184082031" stroke-width="0.0" fill="rgb(39, 105, 247)" opacity="0.9239145" stroke="rgb(0, 0, 0)" stroke-opacity="1.0" stroke-linecap="round" stroke-linejoin="round"/>
    <path d="M 337.0924987792969 122.93609619140625 C 260.5860595703125 51.62914276123047 279.8741760253906 39.951194763183594 228.1288604736328 111.17235565185547 C 224.5814208984375 143.9041290283203 233.73056030273438 106.27105712890625 152.45692443847656 224.2919464111328 C 137.89437866210938 53.68478775024414 170.51803588867188 17.595918655395508 209.9415283203125 -53.26402282714844 C 374.2645263671875 -32.81299591064453 396.2853088378906 -3.879775285720825 337.0924987792969 122.93609619140625" stroke-width="0.0" fill="rgb(183, 26, 187)" opacity="0.950986" stroke="rgb(0, 0, 0)" stroke-opacity="1.0" stroke-linecap="round" stroke-linejoin="round"/>
    <path d="M 376.2853088378906 423.2517395019531 C 79.97642517089844 395.45184326171875 343.4342041015625 444.0389709472656 110.71298217773438 431.5820617675781 C 105.81822967529297 320.3813171386719 65.56895446777344 366.473388671875 384.2466735839844 342.1935729980469 C 183.78939819335938 335.0387268066406 -70.13480377197266 356.3779602050781 -13.459342002868652 330.84375 C 119.2970199584961 399.5850830078125 531.7420654296875 306.7497863769531 376.2853088378906 423.2517395019531" stroke-width="0.0" fill="rgb(219, 133, 127)" opacity="0.3310733" stroke="rgb(0, 0, 0)" stroke-opacity="1.0" stroke-linecap="round" stroke-linejoin="round"/>
    <path d="M 519.87548828125 36.90559005737305 C 504.0654602050781 54.466224670410156 514.1459350585938 83.8790283203125 477.26373291015625 106.61701202392578 C 456.8039245605469 57.83068084716797 452.6539611816406 43.26576614379883 398.58905029296875 71.7883529663086 C 400.93536376953125 13.059410095214844 397.5755615234375 -27.830965042114258 438.1796875 -30.36922264099121 C 549.2626953125 -10.320775985717773 549.7423706054688 6.889551639556885 519.87548828125 36.90559005737305" stroke-width="0.0" fill="rgb(164, 29, 221)" opacity="0.9389797" stroke="rgb(0, 0, 0)" stroke-opacity="1.0" stroke-linecap="round" stroke-linejoin="round"/>
    <path d="M 449.1220397949219 411.31982421875 C 447.11541748046875 429.08929443359375 448.1453552246094 443.6213073730469 410.95721435546875 457.2464294433594 C 380.8779602050781 441.5518493652344 337.29229736328125 477.51898193359375 318.3388366699219 397.90667724609375 C 328.96044921875 304.3931579589844 374.4608154296875 293.60430908203125 455.06353759765625 345.8865051269531 C 494.40594482421875 369.2609558105469 488.53857421875 390.5123291015625 449.1220397949219 411.31982421875" stroke-width="0.0" fill="rgb(22, 63, 200)" opacity="1.0" stroke="rgb(0, 0, 0)" stroke-opacity="1.0" stroke-linecap="round" stroke-linejoin="round"/>
    <path d="M 313.90740966796875 437.26531982421875 C 323.84710693359375 437.6348876953125 331.3822326660156 476.5372009277344 275.52880859375 573.2095336914062 C 131.76004028320312 559.0317993164062 103.26937866210938 535.9451904296875 33.4512825012207 458.493408203125 C 212.28469848632812 475.26641845703125 287.239501953125 482.7431640625 328.16229248046875 468.27386474609375 C 308.7712097167969 424.3661193847656 306.8538818359375 437.203125 313.90740966796875 437.26531982421875" stroke-width="0.0" fill="rgb(74, 36, 218)" opacity="0.99125314" stroke="rgb(0, 0, 0)" stroke-opacity="1.0" stroke-linecap="round" stroke-linejoin="round"/>
    <path d="M 454.18023681640625 424.8118896484375 C 399.1412048339844 440.1253356933594 381.4269104003906 434.6972351074219 344.2907409667969 448.6535949707031 C 319.0359802246094 462.6917419433594 327.8033752441406 502.52398681640625 303.57623291015625 401.9651184082031 C 299.661376953125 403.0785217285156 302.7360534667969 401.37249755859375 363.4566955566406 411.2939147949219 C 413.2872619628906 415.55126953125 429.58966064453125 351.1603088378906 454.18023681640625 424.8118896484375" stroke-width="0.0" fill="rgb(0, 83, 234)" opacity="0.4744418" stroke="rgb(0, 0, 0)" stroke-opacity="1.0" stroke-linecap="round" stroke-linejoin="round"/>
    <path d="M 64.32414245605469 409.09429931640625 C 98.8091812133789 441.22515869140625 103.15153503417969 470.97149658203125 -12.770648956298828 462.2778015136719 C -35.7496223449707 363.3939208984375 -14.353609085083008 376.2895202636719 7.379909992218018 394.4171142578125 C 48.84778594970703 399.3016662597656 22.44617462158203 428.6067810058594 41.93966293334961 432.42596435546875 C 58.023128509521484 388.23162841796875 31.288963317871094 357.5849304199219 64.32414245605469 409.09429931640625" stroke-width="0.0" fill="rgb(156, 194, 83)" opacity="0.1915284" stroke="rgb(0, 0, 0)" stroke-opacity="1.0" stroke-linecap="round" stroke-linejoin="round"/>
    <path d="M 373.7436828613281 140.2584991455078 C 359.58660888671875 152.63992309570312 446.599365234375 138.72801208496094 274.4808349609375 145.95303344726562 C 343.1775207519531 139.11561584472656 367.5459899902344 157.06590270996094 367.90814208984375 112.27249145507812 C 165.41082763671875 115.10603332519531 114.27595520019531 121.32197570800781 194.15890502929688 94.41925048828125 C 402.61468505859375 108.64897155761719 343.38055419921875 112.6146011352539 373.7436828613281 140.2584991455078" stroke-width="0.0" fill="rgb(77, 97, 119)" opacity="0.21966165" stroke="rgb(0, 0, 0)" stroke-opacity="1.0" stroke-linecap="round" stroke-linejoin="round"/>
    <path d="M 375.27178955078125 226.9409942626953 C 364.8163757324219 221.7261962890625 379.8503112792969 150.3458251953125 347.03131103515625 353.4786376953125 C 327.54437255859375 141.0847625732422 401.6378173828125 245.65919494628906 197.34523010253906 213.0396270751953 C 187.58331298828125 197.96975708007812 442.5200500488281 190.59286499023438 339.713623046875 182.59075927734375 C 389.88958740234375 186.4127197265625 418.34368896484375 205.30714416503906 375.27178955078125 226.9409942626953" stroke-width="0.0" fill="rgb(195, 138, 117)" opacity="0.0" stroke="rgb(0, 0, 0)" stroke-opacity="1.0" stroke-linecap="round" stroke-linejoin="round"/>
    <path d="M 176.17750549316406 282.5155029296875 C 144.3552703857422 349.5106506347656 150.59263610839844 241.03028869628906 200.26402282714844 388.48883056640625 C 74.10699462890625 522.9210815429688 -11.346115112304688 480.7027587890625 9.12964916229248 367.3049621582031 C 63.83224105834961 263.6565856933594 74.41334533691406 235.35150146484375 146.3043975830078 90.5339126586914 C 181.8492889404297 72.85901641845703 197.8657989501953 112.09234619140625 176.17750549316406 282.5155029296875" stroke-width="0.0" fill="rgb(114, 13, 186)" opacity="0.89041555" stroke="rgb(0, 0, 0)" stroke-opacity="1.0" stroke-linecap="round" stroke-linejoin="round"/>
    <path d="M 113.02899932861328 532.7737426757812 C 123.9425277709961 521.8115844726562 111.82440948486328 523.4666748046875 56.176551818847656 548.726806640625 C 45.040462493896484 549.2686157226562 55.64657211303711 529.9031372070312 41.3649787902832 457.7412414550781 C 32.093101501464844 442.5970153808594 21.104896545410156 405.5711669921875 90.25043487548828 395.5711669921875 C 148.73480224609375 403.5059509277344 101.59169006347656 470.5615539550781 113.02899932861328 532.7737426757812" stroke-width="0.0" fill="rgb(134, 29, 184)" opacity="0.8833518" stroke="rgb(0, 0, 0)" stroke-opacity="1.0" stroke-linecap="round" stroke-linejoin="round"/>
    <path d="M 255.0640869140625 153.562255859375 C 291.7689208984375 221.74745178222656 265.59539794921875 67.57200622558594 280.2794494628906 149.33714294433594 C 259.27947998046875 184.0189971923828 222.74549865722656 154.97727966308594 246.2604522705078 111.01148223876953 C 237.52467346191406 211.72821044921875 310.0373229980469 113.4485855102539 239.94448852539062 120.33334350585938 C 353.4107360839844 79.80538940429688 372.00091552734375 240.98672485351562 255.0640869140625 153.562255859375" stroke-width="0.0" fill="rgb(241, 59, 0)" opacity="0.8533291" stroke="rgb(0, 0, 0)" stroke-opacity="1.0" stroke-linecap="round" stroke-linejoin="round"/>
    <path d="M 308.0636901855469 249.218994140625 C 287.80322265625 248.56224060058594 280.5068054199219 268.1149597167969 259.880859375 253.87071228027344 C 260.3202819824219 260.0106506347656 278.6445617675781 249.5382080078125 284.0009460449219 218.88072204589844 C 284.05145263671875 182.84735107421875 271.2449951171875 221.97268676757812 298.8098449707031 224.17030334472656 C 318.201416015625 241.01512145996094 320.2795715332031 205.78407287597656 308.0636901855469 249.218994140625" stroke-width="0.0" fill="rgb(206, 71, 145)" opacity="0.315873" stroke="rgb(0, 0, 0)" stroke-opacity="1.0" stroke-linecap="round" stroke-linejoin="round"/>
    <path d="M 302.1329040527344 145.75018310546875 C 178.47756958007812 152.57147216796875 233.73486328125 151.58438110351562 233.5518035888672 144.2116241455078 C 276.7532043457031 117.75077056884766 139.38462829589844 127.47747802734375 147.76954650878906 151.61669921875 C 192.57769775390625 160.92965698242188 226.48492431640625 154.0995635986328 237.68702697753906 181.51263427734375 C 250.3293914794922 99.89527893066406 217.57980346679688 90.58472442626953 302.1329040527344 145.75018310546875" stroke-width="0.0" fill="rgb(211, 54, 71)" opacity="0.079064175" stroke="rgb(0, 0, 0)" stroke-opacity="1.0" stroke-linecap="round" stroke-linejoin="round"/>
    <path d="M 355.67144775390625 323.82196044921875 C 357.2668762207031 255.1393280029297 294.5617980957031 277.0862121582031 284.0067443847656 340.8340759277344 C 305.85504150390625 349.49945068359375 269.6175231933594 342.67828369140625 118.12041473388672 333.4093322753906 C 161.48460388183594 303.9638366699219 175.2025146484375 326.0320739746094 314.15643310546875 316.39581298828125 C 263.88177490234375 342.3599548339844 314.83831787109375 328.7692565917969 355.67144775390625 323.82196044921875" stroke-width="0.0" fill="rgb(255, 255, 255)" opacity="1.0" stroke="rgb(0, 0, 0)" stroke-opacity="1.0" stroke-linecap="round" stroke-linejoin="round"/>
    <path d="M 160.2012481689453 462.5713806152344 C 149.0341796875 605.3966674804688 131.02810668945312 620.4531860351562 104.50865173339844 621.06640625 C -9.364206314086914 527.7437133789062 -16.68471336364746 520.4232177734375 -54.64187240600586 474.9569396972656 C -56.48880386352539 458.0301513671875 -66.99577331542969 435.13031005859375 11.759892463684082 395.8838195800781 C 92.35086059570312 370.775390625 121.14432525634766 403.8357849121094 160.2012481689453 462.5713806152344" stroke-width="0.0" fill="rgb(152, 51, 149)" opacity="1.0" stroke="rgb(0, 0, 0)" stroke-opacity="1.0" stroke-linecap="round" stroke-linejoin="round"/>
    <path d="M 166.76449584960938 214.10052490234375 C 316.8722839355469 204.9285888671875 371.5000915527344 225.6365203857422 174.7971954345703 226.25497436523438 C 179.93556213378906 224.775146484375 171.53611755371094 183.75131225585938 160.17617797851562 134.9783477783203 C 151.23977661132812 133.2010498046875 133.8441619873047 117.67642211914062 147.45596313476562 135.66680908203125 C 161.96925354003906 127.07672119140625 167.735107421875 143.66189575195312 166.76449584960938 214.10052490234375" stroke-width="0.0" fill="rgb(211, 126, 102)" opacity="0.52653897" stroke="rgb(0, 0, 0)" stroke-opacity="1.0" stroke-linecap="round" stroke-linejoin="round"/>
    <path d="M 189.6884307861328 93.51026153564453 C 154.91307067871094 96.45404052734375 177.66549682617188 97.13851165771484 169.20155334472656 114.55783081054688 C 113.84236145019531 120.76688385009766 142.42689514160156 115.9057846069336 166.9455108642578 130.24588012695312 C 179.5946502685547 121.73255920410156 210.177734375 121.0640869140625 176.14010620117188 98.49962615966797 C 165.0892791748047 121.40631103515625 176.04103088378906 118.50770568847656 189.6884307861328 93.51026153564453" stroke-width="0.0" fill="rgb(101, 81, 118)" opacity="0.07543687" stroke="rgb(0, 0, 0)" stroke-opacity="1.0" stroke-linecap="round" stroke-linejoin="round"/>
    <path d="M 476.0983581542969 112.53512573242188 C 438.8565673828125 136.97320556640625 421.97003173828125 132.77261352539062 380.44830322265625 125.07892608642578 C 352.6477966308594 121.84728240966797 355.97210693359375 130.71600341796875 333.8025817871094 89.88137817382812 C 361.1236572265625 1.7834707498550415 321.85528564453125 -38.45572280883789 388.73828125 -83.58885955810547 C 494.328369140625 11.334538459777832 494.9389953613281 88.36888122558594 476.0983581542969 112.53512573242188" stroke-width="0.0" fill="rgb(176, 27, 180)" opacity="0.95776063" stroke="rgb(0, 0, 0)" stroke-opacity="1.0" stroke-linecap="round" stroke-linejoin="round"/>
    <path d="M 366.4673767089844 247.34129333496094 C 373.1683349609375 291.77105712890625 361.2648010253906 274.9945373535156 343.66925048828125 286.40283203125 C 358.5069274902344 285.4067687988281 294.8951416015625 290.7662353515625 288.4156799316406 268.3168640136719 C 283.1029968261719 209.2975616455078 322.3793640136719 229.29139709472656 347.9659423828125 215.29458618164062 C 358.52569580078125 218.17819213867188 361.48052978515625 217.46743774414062 366.4673767089844 247.34129333496094" stroke-width="0.0" fill="rgb(255, 255, 255)" opacity="1.0" stroke="rgb(0, 0, 0)" stroke-opacity="1.0" stroke-linecap="round" stroke-linejoin="round"/>
    <path d="M 268.54534912109375 261.6131286621094 C 260.5372314453125 336.05078125 242.1138153076172 367.75640869140625 166.469482421875 347.7272033691406 C 125.380859375 337.15228271484375 119.25579071044922 296.3463134765625 140.09214782714844 247.07106018066406 C 145.08656311035156 245.76246643066406 142.37393188476562 231.33872985839844 181.47787475585938 209.36680603027344 C 244.94818115234375 212.28204345703125 248.15652465820312 230.7058868408203 268.54534912109375 261.6131286621094" stroke-width="0.0" fill="rgb(255, 250, 224)" opacity="1.0" stroke="rgb(0, 0, 0)" stroke-opacity="1.0" stroke-linecap="round" stroke-linejoin="round"/>
    <path d="M 194.00506591796875 421.1623229980469 C 154.8435821533203 415.5237731933594 156.23968505859375 432.9334411621094 168.15493774414062 464.2464294433594 C 137.19381713867188 445.1683349609375 143.3955078125 443.019287109375 144.68917846679688 427.10369873046875 C 155.4888916015625 433.2303771972656 157.0881805419922 401.8362731933594 207.6486053466797 399.67156982421875 C 190.25454711914062 406.737060546875 181.32192993164062 418.1171569824219 194.00506591796875 421.1623229980469" stroke-width="0.0" fill="rgb(176, 118, 114)" opacity="0.5671985" stroke="rgb(0, 0, 0)" stroke-opacity="1.0" stroke-linecap="round" stroke-linejoin="round"/>
    <path d="M 434.36767578125 392.8258361816406 C 412.2232666015625 395.0393371582031 396.0478515625 423.5621337890625 388.3525390625 427.125244140625 C 367.2730712890625 435.565673828125 365.8188171386719 406.3393249511719 389.9300537109375 398.04931640625 C 406.6337585449219 385.79022216796875 406.1236267089844 381.2003479003906 418.5651550292969 374.7754211425781 C 400.99462890625 367.5799560546875 437.703125 374.61871337890625 434.36767578125 392.8258361816406" stroke-width="0.0" fill="rgb(2, 93, 205)" opacity="0.45228177" stroke="rgb(0, 0, 0)" stroke-opacity="1.0" stroke-linecap="round" stroke-linejoin="round"/>
    <path d="M 277.5002136230469 123.60176849365234 C 282.54913330078125 159.81585693359375 273.47174072265625 168.421142578125 264.36138916015625 163.29806518554688 C 238.65480041503906 159.02243041992188 213.9185028076172 161.4934844970703 246.07237243652344 165.97901916503906 C 218.1639862060547 145.27220153808594 206.51670837402344 112.32333374023438 240.6045379638672 124.40863800048828 C 237.63302612304688 138.8453369140625 267.3123779296875 134.66455078125 277.5002136230469 123.60176849365234" stroke-width="0.0" fill="rgb(185, 52, 25)" opacity="0.6563951" stroke="rgb(0, 0, 0)" stroke-opacity="1.0" stroke-linecap="round" stroke-linejoin="round"/>
    <path d="M 283.61688232421875 239.2252960205078 C 333.5987854003906 241.3571014404297 330.71148681640625 315.7300109863281 318.7381591796875 351.1417236328125 C 234.94248962402344 350.2643127441406 188.7099151611328 340.61114501953125 216.00157165527344 322.7317199707031 C 250.3311309814453 298.0601806640625 236.8168182373047 282.2080993652344 214.8565216064453 293.49139404296875 C 268.6183776855469 279.4587097167969 229.4492950439453 270.1791076660156 283.61688232421875 239.2252960205078" stroke-width="0.0" fill="rgb(255, 255, 249)" opacity="0.99317265" stroke="rgb(0, 0, 0)" stroke-opacity="1.0" stroke-linecap="round" stroke-linejoin="round"/>
    <path d="M 218.5657196044922 353.9638977050781 C 159.40872192382812 351.67572021484375 155.9145050048828 359.0511779785156 143.636474609375 343.84912109375 C 143.7169952392578 385.96051025390625 146.8452911376953 383.6542053222656 123.89708709716797 346.1969909667969 C 92.7642822265625 323.62408447265625 141.63619995117188 321.05462646484375 158.70826721191406 329.6105651855469 C 183.5076446533203 311.1117248535156 191.15988159179688 318.97198486328125 218.5657196044922 353.9638977050781" stroke-width="0.0" fill="rgb(193, 12, 154)" opacity="0.15631478" stroke="rgb(0, 0, 0)" stroke-opacity="1.0" stroke-linecap="round" stroke-linejoin="round"/>
    <path d="M 193.56283569335938 263.1656494140625 C 254.9970703125 280.1956787109375 254.35836791992188 271.8887939453125 207.2532196044922 264.0064392089844 C 138.2753448486328 279.1676940917969 127.08670806884766 267.30474853515625 196.3748016357422 266.5661926269531 C 197.10577392578125 269.4366455078125 186.09085083007812 264.34393310546875 197.04165649414062 247.50619506835938 C 190.30531311035156 249.6844940185547 178.12823486328125 258.92169189453125 193.56283569335938 263.1656494140625" stroke-width="0.0" fill="rgb(255, 177, 1)" opacity="0.21845904" stroke="rgb(0, 0, 0)" stroke-opacity="1.0" stroke-linecap="round" stroke-linejoin="round"/>
    <path d="M 268.8518981933594 242.46742248535156 C 272.7724304199219 231.46299743652344 271.042236328125 253.85926818847656 271.7779541015625 265.8938293457031 C 275.8717956542969 260.1722412109375 251.88836669921875 266.9472961425781 240.6125030517578 271.1925048828125 C 257.1307678222656 243.2947998046875 253.29931640625 245.54403686523438 243.4473419189453 229.21463012695312 C 250.16737365722656 241.66954040527344 245.7350311279297 268.55401611328125 268.8518981933594 242.46742248535156" stroke-width="0.0" fill="rgb(248, 231, 145)" opacity="0.43885595" stroke="rgb(0, 0, 0)" stroke-opacity="1.0" stroke-linecap="round" stroke-linejoin="round"/>
    <path d="M 191.72393798828125 370.20281982421875 C 184.39859008789062 342.818603515625 166.88296508789062 359.64874267578125 148.75082397460938 345.40228271484375 C 142.28538513183594 323.3578796386719 148.05923461914062 339.16668701171875 164.27288818359375 363.0311584472656 C 170.18881225585938 381.7654724121094 166.62619018554688 355.0555114746094 199.0315399169922 370.92315673828125 C 203.34030151367188 374.5331726074219 203.99566650390625 357.394775390625 191.72393798828125 370.20281982421875" stroke-width="0.0" fill="rgb(148, 209, 254)" opacity="0.05490988" stroke="rgb(0, 0, 0)" stroke-opacity="1.0" stroke-linecap="round" stroke-linejoin="round"/>
    <path d="M 112.93077850341797 452.9419250488281 C 91.47986602783203 474.34783935546875 79.79841613769531 475.2955627441406 79.42447662353516 471.855712890625 C 72.42056274414062 460.3880310058594 50.3875617980957 448.1836853027344 65.30763244628906 434.6917724609375 C 57.56659698486328 443.83819580078125 62.52067947387695 441.9247131347656 79.98377990722656 438.050048828125 C 84.81787109375 439.4377136230469 98.55732727050781 430.15350341796875 112.93077850341797 452.9419250488281" stroke-width="0.0" fill="rgb(96, 73, 212)" opacity="0.0" stroke="rgb(0, 0, 0)" stroke-opacity="1.0" stroke-linecap="round" stroke-linejoin="round"/>
    <path d="M 444.95196533203125 429.4742736816406 C 443.86700439453125 452.1976318359375 441.1906433105469 464.5253601074219 434.42236328125 540.2033081054688 C 395.45758056640625 502.43280029296875 398.9212341308594 487.7983703613281 424.10888671875 475.2246398925781 C 429.6015625 456.7964782714844 442.0376281738281 451.4938049316406 452.7268981933594 446.00970458984375 C 439.2774963378906 448.2201843261719 448.8040466308594 436.63104248046875 444.95196533203125 429.4742736816406" stroke-width="0.0" fill="rgb(21, 118, 128)" opacity="0.015844727" stroke="rgb(0, 0, 0)" stroke-opacity="1.0" stroke-linecap="round" stroke-linejoin="round"/>
    <path d="M 448.2381286621094 373.7236022949219 C 450.045166015625 391.2787170410156 452.42803955078125 411.78070068359375 429.84027099609375 413.287109375 C 418.9726257324219 399.7813415527344 427.86749267578125 399.215087890625 425.6064453125 364.8857421875 C 414.8619079589844 341.482177734375 412.6621398925781 328.13861083984375 450.48284912109375 335.3589172363281 C 455.9345703125 335.75286865234375 464.05126953125 336.26947021484375 448.2381286621094 373.7236022949219" stroke-width="0.0" fill="rgb(33, 106, 140)" opacity="0.08659694" stroke="rgb(0, 0, 0)" stroke-opacity="1.0" stroke-linecap="round" stroke-linejoin="round"/>
    <path d="M 80.5196304321289 476.433837890625 C 68.22869873046875 484.6044006347656 43.04874038696289 480.48211669921875 32.865379333496094 488.02386474609375 C 38.81158447265625 472.90301513671875 22.298675537109375 464.32965087890625 32.66021728515625 450.9703063964844 C 26.801767349243164 457.8489685058594 10.996275901794434 453.5048522949219 30.422895431518555 444.5403137207031 C 49.97836685180664 448.13604736328125 70.6579818725586 441.64508056640625 80.5196304321289 476.433837890625" stroke-width="0.0" fill="rgb(159, 50, 159)" opacity="0.04806246" stroke="rgb(0, 0, 0)" stroke-opacity="1.0" stroke-linecap="round" stroke-linejoin="round"/>
    <path d="M 149.40426635742188 254.11277770996094 C 158.71792602539062 252.3387908935547 152.24436950683594 253.61953735351562 158.41619873046875 283.4263610839844 C 130.8000946044922 293.6466064453125 119.33268737792969 279.51788330078125 117.5683822631836 232.94406127929688 C 128.39990234375 205.54954528808594 123.66190338134766 228.74447631835938 182.06729125976562 216.0825958251953 C 178.3607177734375 195.4947509765625 174.46405029296875 223.5385284423828 149.40426635742188 254.11277770996094" stroke-width="0.0" fill="rgb(120, 106, 229)" opacity="0.0" stroke="rgb(0, 0, 0)" stroke-opacity="1.0" stroke-linecap="round" stroke-linejoin="round"/>
    <path d="M 470.1022644042969 271.2278747558594 C 470.86944580078125 246.46395874023438 463.978515625 258.4599914550781 470.30792236328125 250.00970458984375 C 462.1364440917969 231.85067749023438 457.1425476074219 238.95639038085938 432.89398193359375 251.4959716796875 C 429.6214904785156 222.2689208984375 448.28662109375 210.60321044921875 461.447265625 207.60069274902344 C 462.54974365234375 218.46624755859375 476.9888916015625 246.2811279296875 470.1022644042969 271.2278747558594" stroke-width="0.0" fill="rgb(32, 116, 193)" opacity="0.02391438" stroke="rgb(0, 0, 0)" stroke-opacity="1.0" stroke-linecap="round" stroke-linejoin="round"/>
    <path d="M 374.74273681640625 165.41372680664062 C 386.61822509765625 194.5841064453125 392.5639343261719 205.5584716796875 368.9825134277344 206.79205322265625 C 344.4306640625 209.0050506591797 331.7593078613281 213.97486877441406 346.4628601074219 188.9148712158203 C 358.0247497558594 190.5894775390625 316.3609313964844 201.97706604003906 355.66485595703125 205.08042907714844 C 392.7723388671875 177.4867401123047 383.0418701171875 163.99476623535156 374.74273681640625 165.41372680664062" stroke-width="0.0" fill="rgb(93, 215, 213)" opacity="0.0" stroke="rgb(0, 0, 0)" stroke-opacity="1.0" stroke-linecap="round" stroke-linejoin="round"/>
    <path d="M 77.26019287109375 477.14459228515625 C 61.772735595703125 508.4542541503906 47.5658073425293 474.394775390625 39.511348724365234 453.2079772949219 C 75.57968139648438 447.3669128417969 92.95000457763672 453.0296936035156 79.35126495361328 433.53350830078125 C 67.11890411376953 438.21923828125 52.3001708984375 439.8155212402344 38.58881759643555 436.1806640625 C 71.79324340820312 438.45111083984375 77.04769897460938 463.9826965332031 77.26019287109375 477.14459228515625" stroke-width="0.0" fill="rgb(106, 95, 202)" opacity="0.0" stroke="rgb(0, 0, 0)" stroke-opacity="1.0" stroke-linecap="round" stroke-linejoin="round"/>
    <path d="M 502.24530029296875 69.62157440185547 C 469.7392883300781 69.67232513427734 450.865966796875 81.17455291748047 469.7025451660156 76.90454864501953 C 457.1576843261719 71.77392578125 459.2996826171875 47.67919921875 464.76318359375 50.65958786010742 C 447.782470703125 59.53774642944336 468.2098388671875 57.595245361328125 477.1438903808594 43.32144546508789 C 498.16644287109375 29.699708938598633 498.4755859375 36.04063034057617 502.24530029296875 69.62157440185547" stroke-width="0.0" fill="rgb(44, 125, 187)" opacity="0.025059488" stroke="rgb(0, 0, 0)" stroke-opacity="1.0" stroke-linecap="round" stroke-linejoin="round"/>
    <path d="M 311.077880859375 175.12437438964844 C 330.1869201660156 190.15386962890625 336.5700988769531 188.86941528320312 283.0268859863281 163.4288787841797 C 277.73175048828125 170.48193359375 282.8564453125 187.4484405517578 287.43817138671875 180.3829345703125 C 301.8494873046875 188.6627197265625 292.6999206542969 181.37286376953125 278.4596252441406 171.57119750976562 C 298.8865966796875 164.35128784179688 307.34674072265625 166.7479705810547 311.077880859375 175.12437438964844" stroke-width="0.0" fill="rgb(189, 202, 98)" opacity="0.03829853" stroke="rgb(0, 0, 0)" stroke-opacity="1.0" stroke-linecap="round" stroke-linejoin="round"/>
    <path d="M 154.1947021484375 33.546722412109375 C 157.23170471191406 46.14466094970703 142.74789428710938 54.092411041259766 149.7390594482422 45.09059524536133 C 130.9327392578125 49.59254455566406 125.80028533935547 44.907283782958984 145.57054138183594 52.650856018066406 C 157.24380493164062 34.60199737548828 156.1505584716797 31.354421615600586 140.50747680664062 43.26688003540039 C 155.5894012451172 19.310012817382812 148.1277618408203 12.300456047058105 154.1947021484375 33.546722412109375" stroke-width="0.0" fill="rgb(116, 153, 209)" opacity="0.03832707" stroke="rgb(0, 0, 0)" stroke-opacity="1.0" stroke-linecap="round" stroke-linejoin="round"/>
    <path d="M 199.6629180908203 351.2819519042969 C 215.98431396484375 367.6706237792969 211.6485595703125 354.092041015625 212.2892303466797 341.15447998046875 C 186.06431579589844 350.57696533203125 177.82437133789062 341.2544860839844 157.22467041015625 339.1851806640625 C 174.2345733642578 347.27496337890625 186.65760803222656 325.024169921875 207.6907501220703 332.6673889160156 C 176.91954040527344 341.7212219238281 190.72509765625 347.0870666503906 199.6629180908203 351.2819519042969" stroke-width="0.0" fill="rgb(158, 194, 183)" opacity="0.099042796" stroke="rgb(0, 0, 0)" stroke-opacity="1.0" stroke-linecap="round" stroke-linejoin="round"/>
    <path d="M 55.100990295410156 321.5099182128906 C 63.165245056152344 337.48529052734375 51.95361328125 339.6468811035156 31.8808536529541 346.7454528808594 C 16.693532943725586 342.9053039550781 8.173713684082031 332.65997314453125 24.328516006469727 343.3235778808594 C 42.08831787109375 332.6188659667969 51.301090240478516 316.7889404296875 30.796489715576172 314.5364990234375 C 28.441457748413086 301.2584228515625 56.39693832397461 300.0895690917969 55.100990295410156 321.5099182128906" stroke-width="0.0" fill="rgb(56, 72, 134)" opacity="0.008772725" stroke="rgb(0, 0, 0)" stroke-opacity="1.0" stroke-linecap="round" stroke-linejoin="round"/>
    <path d="M 430.5316467285156 461.0654296875 C 407.9820251464844 468.9865417480469 414.47406005859375 454.3211975097656 399.9748840332031 463.7846984863281 C 368.6119079589844 451.32916259765625 369.88214111328125 437.766357421875 392.6676330566406 431.7639465332031 C 387.6472473144531 446.0862121582031 376.6669921875 455.0617370605469 384.1380920410156 428.9549865722656 C 407.0617370605469 415.7794494628906 451.68206787109375 431.69842529296875 430.5316467285156 461.0654296875" stroke-width="0.0" fill="rgb(84, 45, 179)" opacity="0.16050684" stroke="rgb(0, 0, 0)" stroke-opacity="1.0" stroke-linecap="round" stroke-linejoin="round"/>
    <path d="M 133.4755096435547 274.03411865234375 C 139.33226013183594 298.9591979980469 137.1514892578125 323.71893310546875 122.4666976928711 311.7688293457031 C 124.478271484375 294.60491943359375 114.48475646972656 280.1134948730469 135.0576629638672 257.4945373535156 C 128.15391540527344 240.62904357910156 123.42300415039062 198.09152221679688 142.46701049804688 231.11395263671875 C 149.22732543945312 238.2062225341797 139.19166564941406 249.89151000976562 133.4755096435547 274.03411865234375" stroke-width="0.0" fill="rgb(237, 81, 17)" opacity="0.1268326" stroke="rgb(0, 0, 0)" stroke-opacity="1.0" stroke-linecap="round" stroke-linejoin="round"/>
    <path d="M 208.8571319580078 433.9780578613281 C 248.5306854248047 510.3760986328125 179.91693115234375 497.68890380859375 136.5889129638672 455.8419189453125 C 120.59709930419922 443.5401306152344 96.31838989257812 446.73870849609375 109.6272964477539 438.1694030761719 C 110.24722290039062 453.169921875 125.6203384399414 441.7427673339844 128.97129821777344 430.9170837402344 C 166.95982360839844 374.03131103515625 198.25840759277344 355.8760070800781 208.8571319580078 433.9780578613281" stroke-width="0.0" fill="rgb(103, 17, 206)" opacity="0.94922256" stroke="rgb(0, 0, 0)" stroke-opacity="1.0" stroke-linecap="round" stroke-linejoin="round"/>
    <path d="M 273.7994384765625 34.79104232788086 C 277.84295654296875 69.77458953857422 254.66522216796875 69.97016143798828 260.4672546386719 66.18684387207031 C 238.9107666015625 70.85733795166016 234.5876007080078 56.32054901123047 239.4611358642578 44.91929244995117 C 239.7752685546875 15.149141311645508 239.5587615966797 6.129394054412842 255.0817413330078 -2.5685765743255615 C 254.29022216796875 28.006418228149414 254.08047485351562 35.15572738647461 273.7994384765625 34.79104232788086" stroke-width="0.0" fill="rgb(245, 69, 139)" opacity="0.19495279" stroke="rgb(0, 0, 0)" stroke-opacity="1.0" stroke-linecap="round" stroke-linejoin="round"/>
    <path d="M 114.059326171875 311.42529296875 C 135.28402709960938 353.8595275878906 147.1447296142578 378.4488220214844 136.32601928710938 350.5660400390625 C 95.69084167480469 341.66827392578125 126.47183227539062 365.59002685546875 120.8255844116211 338.41845703125 C 82.53453826904297 348.878662109375 108.1897201538086 329.7115783691406 119.95124053955078 307.37908935546875 C 132.27108764648438 311.9269104003906 130.7133026123047 329.8330993652344 114.059326171875 311.42529296875" stroke-width="0.0" fill="rgb(144, 1, 102)" opacity="0.19541942" stroke="rgb(0, 0, 0)" stroke-opacity="1.0" stroke-linecap="round" stroke-linejoin="round"/>
    <path d="M 503.8089294433594 219.6065216064453 C 518.0432739257812 224.502685546875 512.1486206054688 232.18411254882812 530.7922973632812 225.06163024902344 C 493.5628356933594 209.92640686035156 467.2969970703125 211.32374572753906 462.822021484375 234.54351806640625 C 491.7644958496094 224.5122833251953 505.8291320800781 216.96487426757812 494.5327453613281 194.40586853027344 C 506.1221008300781 198.67807006835938 521.5643310546875 208.25978088378906 503.8089294433594 219.6065216064453" stroke-width="0.0" fill="rgb(60, 108, 224)" opacity="0.0" stroke="rgb(0, 0, 0)" stroke-opacity="1.0" stroke-linecap="round" stroke-linejoin="round"/>
    <path d="M 440.8610534667969 255.4143524169922 C 446.9848937988281 274.23480224609375 441.5917663574219 278.1513366699219 437.3594970703125 292.5050048828125 C 431.4145202636719 281.20928955078125 432.3837890625 260.7525634765625 437.5278625488281 246.86021423339844 C 412.2865905761719 253.90975952148438 436.138427734375 259.2828674316406 436.1242370605469 247.0433807373047 C 416.6907043457031 247.65415954589844 446.82647705078125 262.43023681640625 440.8610534667969 255.4143524169922" stroke-width="0.0" fill="rgb(7, 138, 145)" opacity="0.04289097" stroke="rgb(0, 0, 0)" stroke-opacity="1.0" stroke-linecap="round" stroke-linejoin="round"/>
    <path d="M 529.112060546875 66.60958099365234 C 513.1138305664062 88.54501342773438 514.386962890625 104.49017333984375 478.7274475097656 64.23039245605469 C 468.83111572265625 84.55067443847656 465.6822204589844 78.04446411132812 470.92437744140625 58.8062744140625 C 467.483642578125 64.1607666015625 468.5660400390625 62.2831916809082 483.55596923828125 64.97874450683594 C 504.8439025878906 43.530311584472656 511.6814880371094 35.33476257324219 529.112060546875 66.60958099365234" stroke-width="0.0" fill="rgb(58, 110, 225)" opacity="0.048971806" stroke="rgb(0, 0, 0)" stroke-opacity="1.0" stroke-linecap="round" stroke-linejoin="round"/>
    <path d="M 75.27416229248047 179.34620666503906 C 84.32891082763672 202.5351104736328 73.8154067993164 245.83175659179688 56.023399353027344 241.50753784179688 C 4.784338474273682 213.84400939941406 5.013551712036133 199.10678100585938 6.030686855316162 193.23338317871094 C 8.369244575500488 178.70127868652344 51.70915222167969 189.86773681640625 34.225833892822266 196.49424743652344 C 24.905359268188477 176.01292419433594 28.173004150390625 172.98728942871094 75.27416229248047 179.34620666503906" stroke-width="0.0" fill="rgb(239, 146, 195)" opacity="0.1513991" stroke="rgb(0, 0, 0)" stroke-opacity="1.0" stroke-linecap="round" stroke-linejoin="round"/>
    <path d="M 126.65126037597656 340.4398193359375 C 140.08274841308594 317.6564025878906 101.9804916381836 324.7900390625 102.16564178466797 358.063720703125 C 91.3825454711914 377.12945556640625 70.23165893554688 366.4564514160156 78.02813720703125 318.2415466308594 C 91.7917251586914 320.6021423339844 99.5254898071289 315.83770751953125 99.28208923339844 337.6336669921875 C 143.60708618164062 323.51824951171875 131.60311889648438 331.4609375 126.65126037597656 340.4398193359375" stroke-width="0.0" fill="rgb(101, 56, 121)" opacity="0.05536595" stroke="rgb(0, 0, 0)" stroke-opacity="1.0" stroke-linecap="round" stroke-linejoin="round"/>
    <path d="M 36.33311080932617 94.58441925048828 C 37.76276397705078 105.49878692626953 38.41511154174805 109.33980560302734 41.93452453613281 97.17527770996094 C 25.226139068603516 96.5868911743164 7.463860511779785 97.60574340820312 -8.74935531616211 92.16763305664062 C -8.42557430267334 73.77339935302734 -6.746025562286377 73.21429443359375 12.824786186218262 80.51993560791016 C 29.257450103759766 81.9266586303711 40.25044250488281 82.92742156982422 36.33311080932617 94.58441925048828" stroke-width="0.0" fill="rgb(114, 183, 228)" opacity="0.01223562" stroke="rgb(0, 0, 0)" stroke-opacity="1.0" stroke-linecap="round" stroke-linejoin="round"/>
  </g>
</svg>
