<?xml version="1.0" ?>
<svg xmlns="http://www.w3.org/2000/svg" version="1.1" width="512" height="512">
  <defs/>
  <g>
    <path d="M 525.5851440429688 448.2850036621094 C 439.6760559082031 462.9242858886719 391.5329895019531 576.1824951171875 504.7118225097656 571.0224609375 C 583.5829467773438 440.3194885253906 510.8606262207031 473.3851623535156 464.9012451171875 477.3804626464844 C 451.2403869628906 449.6751708984375 436.915771484375 385.5814514160156 453.9991455078125 393.9954528808594 C 498.8330383300781 391.37872314453125 540.2640991210938 392.8995361328125 525.5851440429688 448.2850036621094" stroke-width="0.0" fill="rgb(33, 1, 202)" opacity="0.9833345" stroke="rgb(0, 0, 0)" stroke-opacity="1.0" stroke-linecap="round" stroke-linejoin="round"/>
    <path d="M 335.5057678222656 483.7965393066406 C 329.2799377441406 500.8990478515625 201.25460815429688 522.1843872070312 103.68627166748047 445.123046875 C 5.745218276977539 430.3520812988281 100.4721908569336 424.89105224609375 -77.73770904541016 368.6090393066406 C 36.58567428588867 204.7497100830078 -47.54963302612305 276.91168212890625 -46.153804779052734 164.23733520507812 C 93.26493072509766 40.61234664916992 236.32350158691406 196.22398376464844 335.5057678222656 483.7965393066406" stroke-width="0.0" fill="rgb(18, 252, 228)" opacity="0.59420246" stroke="rgb(0, 0, 0)" stroke-opacity="1.0" stroke-linecap="round" stroke-linejoin="round"/>
    <path d="M 500.2855224609375 33.515411376953125 C 568.219482421875 221.1036376953125 520.613037109375 293.3683776855469 304.7862854003906 331.6416931152344 C 167.27471923828125 337.8511962890625 117.96000671386719 329.8512268066406 245.12010192871094 96.64059448242188 C 145.1036376953125 69.87224578857422 167.01219177246094 4.242926597595215 387.4889221191406 -3.6434996128082275 C 373.61663818359375 130.18080139160156 435.18310546875 38.486106872558594 500.2855224609375 33.515411376953125" stroke-width="0.0" fill="rgb(34, 28, 255)" opacity="1.0" stroke="rgb(0, 0, 0)" stroke-opacity="1.0" stroke-linecap="round" stroke-linejoin="round"/>
    <path d="M 320.7353210449219 156.2254638671875 C 331.205810546875 327.00634765625 249.99407958984375 375.0257263183594 161.43504333496094 321.50006103515625 C 62.27156066894531 167.25851440429688 -12.856780052185059 246.54412841796875 49.70535659790039 150.6285858154297 C 53.18684005737305 81.96348571777344 174.5417938232422 106.3377456665039 167.5092315673828 44.65994644165039 C 226.68197631835938 -34.91254425048828 256.3242492675781 -6.851508617401123 320.7353210449219 156.2254638671875" stroke-width="0.0" fill="rgb(255, 170, 227)" opacity="1.0" stroke="rgb(0, 0, 0)" stroke-opacity="1.0" stroke-linecap="round" stroke-linejoin="round"/>
    <path d="M 468.2801208496094 397.70794677734375 C 384.8974304199219 498.8150634765625 359.5589904785156 325.27947998046875 430.1500244140625 477.8707275390625 C 291.3031005859375 557.4752197265625 327.7066650390625 577.5313720703125 298.7647705078125 448.0744934082031 C 238.42694091796875 221.3651885986328 252.82687377929688 276.66363525390625 322.49853515625 223.08160400390625 C 434.1413879394531 113.83914184570312 542.8740844726562 169.5963592529297 468.2801208496094 397.70794677734375" stroke-width="0.0" fill="rgb(46, 0, 193)" opacity="1.0" stroke="rgb(0, 0, 0)" stroke-opacity="1.0" stroke-linecap="round" stroke-linejoin="round"/>
    <path d="M 518.1141357421875 219.42355346679688 C 546.5138549804688 317.2491760253906 481.58782958984375 239.1841278076172 564.875 383.3879089355469 C 441.6157531738281 459.68206787109375 235.32864379882812 349.4502258300781 465.7141418457031 193.22640991210938 C 320.300537109375 171.83795166015625 370.6565246582031 123.18212127685547 399.8089599609375 142.83914184570312 C 436.0404357910156 195.8478546142578 483.8301696777344 148.52841186523438 518.1141357421875 219.42355346679688" stroke-width="0.0" fill="rgb(26, 57, 115)" opacity="0.94840366" stroke="rgb(0, 0, 0)" stroke-opacity="1.0" stroke-linecap="round" stroke-linejoin="round"/>
    <path d="M 411.1863708496094 195.51463317871094 C 303.7205505371094 254.1717071533203 314.606689453125 271.29443359375 268.3584289550781 283.4928894042969 C 234.52099609375 289.97625732421875 312.3320007324219 321.544677734375 103.13124084472656 172.90542602539062 C 358.6824951171875 192.53179931640625 228.03997802734375 290.479248046875 299.94561767578125 272.6833190917969 C 363.6863708496094 220.32598876953125 444.8840026855469 174.97520446777344 411.1863708496094 195.51463317871094" stroke-width="0.0" fill="rgb(157, 250, 98)" opacity="0.27645096" stroke="rgb(0, 0, 0)" stroke-opacity="1.0" stroke-linecap="round" stroke-linejoin="round"/>
    <path d="M 407.8829650878906 199.2574005126953 C 386.9222412109375 230.7413787841797 365.1019592285156 228.57467651367188 351.882080078125 238.05360412597656 C 307.8940734863281 229.94082641601562 318.0789794921875 230.1422119140625 295.7505798339844 256.3553771972656 C 328.60101318359375 111.00467681884766 222.11940002441406 168.12460327148438 359.0119323730469 111.16539001464844 C 426.30078125 160.62034606933594 553.8267211914062 214.04998779296875 407.8829650878906 199.2574005126953" stroke-width="0.0" fill="rgb(92, 1, 155)" opacity="0.99780774" stroke="rgb(0, 0, 0)" stroke-opacity="1.0" stroke-linecap="round" stroke-linejoin="round"/>
    <path d="M 272.7264099121094 258.33544921875 C 242.24960327148438 289.6658630371094 249.96026611328125 287.6669616699219 237.4230499267578 283.78155517578125 C 226.40948486328125 266.25396728515625 194.3149871826172 270.94036865234375 108.16574096679688 211.8124542236328 C 235.0443572998047 188.66989135742188 136.18983459472656 254.3671875 214.07518005371094 218.97434997558594 C 217.73133850097656 241.03367614746094 227.38494873046875 281.4732666015625 272.7264099121094 258.33544921875" stroke-width="0.0" fill="rgb(255, 153, 251)" opacity="0.38822988" stroke="rgb(0, 0, 0)" stroke-opacity="1.0" stroke-linecap="round" stroke-linejoin="round"/>
    <path d="M 436.62933349609375 211.0768585205078 C 253.63584899902344 339.5190124511719 528.099853515625 278.3316345214844 476.3696594238281 377.6899108886719 C 210.91793823242188 341.74981689453125 231.1145782470703 360.470947265625 242.09121704101562 360.4933776855469 C 366.67962646484375 237.70516967773438 382.02117919921875 235.18597412109375 396.5268859863281 255.5782928466797 C 394.0281677246094 267.5443420410156 466.89080810546875 220.4390106201172 436.62933349609375 211.0768585205078" stroke-width="0.0" fill="rgb(34, 94, 127)" opacity="0.66521657" stroke="rgb(0, 0, 0)" stroke-opacity="1.0" stroke-linecap="round" stroke-linejoin="round"/>
    <path d="M 174.1239013671875 89.44863891601562 C 239.6029052734375 55.44387435913086 256.7772521972656 129.0404510498047 171.85337829589844 80.73312377929688 C 77.09197998046875 143.9727020263672 -81.34317779541016 318.2359619140625 53.81341552734375 1.5093761682510376 C 322.6690368652344 34.91851806640625 239.19029235839844 176.68406677246094 161.2410125732422 52.895503997802734 C 339.12689208984375 -39.24310302734375 218.41024780273438 51.16200256347656 174.1239013671875 89.44863891601562" stroke-width="0.0" fill="rgb(0, 56, 255)" opacity="1.0" stroke="rgb(0, 0, 0)" stroke-opacity="1.0" stroke-linecap="round" stroke-linejoin="round"/>
    <path d="M 150.38392639160156 429.79119873046875 C 146.12413024902344 401.503173828125 150.109130859375 401.1563415527344 163.7047576904297 445.9574890136719 C 130.65896606445312 401.85260009765625 137.0799102783203 422.79010009765625 156.6348419189453 357.86163330078125 C 158.13711547851562 307.529296875 119.83892822265625 304.7149963378906 186.8131103515625 317.3086242675781 C 151.49588012695312 404.9767150878906 142.87347412109375 390.0226135253906 150.38392639160156 429.79119873046875" stroke-width="0.0" fill="rgb(124, 255, 175)" opacity="0.0" stroke="rgb(0, 0, 0)" stroke-opacity="1.0" stroke-linecap="round" stroke-linejoin="round"/>
    <path d="M 419.7323303222656 48.99994659423828 C 400.348388671875 74.8529052734375 408.30316162109375 108.17918395996094 369.2685241699219 88.19694519042969 C 349.9640808105469 71.29515838623047 365.1645812988281 62.81034851074219 371.3872985839844 65.67811584472656 C 356.04248046875 60.48789978027344 368.8722839355469 52.817996978759766 356.5124816894531 52.32199478149414 C 427.4403991699219 61.249202728271484 430.9602966308594 73.93682098388672 419.7323303222656 48.99994659423828" stroke-width="0.0" fill="rgb(45, 48, 252)" opacity="0.28852358" stroke="rgb(0, 0, 0)" stroke-opacity="1.0" stroke-linecap="round" stroke-linejoin="round"/>
    <path d="M 518.32470703125 117.99658966064453 C 508.4293518066406 138.658203125 495.48406982421875 99.95639038085938 455.5899658203125 82.60211944580078 C 453.8033142089844 46.57742691040039 444.5443420410156 45.91654968261719 425.6145324707031 26.666812896728516 C 414.17364501953125 5.4849114418029785 417.5025939941406 -14.719529151916504 439.5981140136719 -35.381160736083984 C 513.142822265625 -28.215221405029297 530.6627197265625 -29.213397979736328 518.32470703125 117.99658966064453" stroke-width="0.0" fill="rgb(68, 29, 255)" opacity="0.78040045" stroke="rgb(0, 0, 0)" stroke-opacity="1.0" stroke-linecap="round" stroke-linejoin="round"/>
    <path d="M 346.7165832519531 493.4632873535156 C 317.4052429199219 536.7408447265625 362.8262023925781 496.20477294921875 319.71435546875 527.2584228515625 C 141.8025665283203 572.5673828125 127.3718490600586 486.51495361328125 141.30374145507812 483.888671875 C 192.706298828125 387.87335205078125 200.62161254882812 345.37139892578125 294.51422119140625 304.8522033691406 C 448.5132751464844 298.9451904296875 428.3265075683594 278.2857971191406 346.7165832519531 493.4632873535156" stroke-width="0.0" fill="rgb(80, 203, 222)" opacity="0.45944098" stroke="rgb(0, 0, 0)" stroke-opacity="1.0" stroke-linecap="round" stroke-linejoin="round"/>
    <path d="M 211.76324462890625 284.7225036621094 C 289.4934997558594 350.5417175292969 321.2182922363281 323.0381774902344 239.8916015625 351.7978210449219 C 141.86228942871094 277.9933166503906 47.57982635498047 226.04144287109375 73.88732147216797 229.45401000976562 C 98.62858581542969 196.71792602539062 168.28158569335938 281.2183532714844 276.6585998535156 268.1498718261719 C 255.52114868164062 250.25433349609375 192.78538513183594 219.37806701660156 211.76324462890625 284.7225036621094" stroke-width="0.0" fill="rgb(161, 209, 83)" opacity="0.18779081" stroke="rgb(0, 0, 0)" stroke-opacity="1.0" stroke-linecap="round" stroke-linejoin="round"/>
    <path d="M 420.546630859375 437.27947998046875 C 397.15179443359375 479.25250244140625 340.5764465332031 473.8411865234375 338.95050048828125 478.6018371582031 C 347.3852844238281 446.53155517578125 359.6709899902344 450.8398132324219 292.3808288574219 515.4118041992188 C 256.5310363769531 358.0541076660156 244.89501953125 293.2359924316406 395.4008483886719 285.9493713378906 C 409.0302734375 401.8129577636719 441.1355895996094 387.33245849609375 420.546630859375 437.27947998046875" stroke-width="0.0" fill="rgb(31, 100, 142)" opacity="0.91943324" stroke="rgb(0, 0, 0)" stroke-opacity="1.0" stroke-linecap="round" stroke-linejoin="round"/>
    <path d="M 320.47430419921875 129.4318389892578 C 394.2820739746094 100.0585708618164 365.6180725097656 137.38954162597656 294.8872985839844 193.96290588378906 C 225.46788024902344 188.21090698242188 278.4980163574219 210.53273010253906 241.57310485839844 115.07534790039062 C 239.30624389648438 29.315031051635742 259.7691955566406 23.04543113708496 307.5965576171875 71.53694915771484 C 347.7760314941406 103.38797760009766 404.2027893066406 121.77922821044922 320.47430419921875 129.4318389892578" stroke-width="0.0" fill="rgb(95, 25, 14)" opacity="0.97676253" stroke="rgb(0, 0, 0)" stroke-opacity="1.0" stroke-linecap="round" stroke-linejoin="round"/>
    <path d="M 403.8350524902344 278.3321533203125 C 260.5358581542969 350.5180358886719 271.71563720703125 375.5082092285156 255.84207153320312 348.0118713378906 C 245.47286987304688 422.6385803222656 203.12225341796875 365.0330505371094 90.59599304199219 303.48321533203125 C 147.7028045654297 229.53602600097656 173.73629760742188 256.72503662109375 269.4781494140625 311.89111328125 C 388.42987060546875 211.08779907226562 537.9555053710938 141.97109985351562 403.8350524902344 278.3321533203125" stroke-width="0.0" fill="rgb(1, 251, 31)" opacity="0.962311" stroke="rgb(0, 0, 0)" stroke-opacity="1.0" stroke-linecap="round" stroke-linejoin="round"/>
    <path d="M 441.5495910644531 199.33938598632812 C 419.6520690917969 204.9169158935547 406.27447509765625 205.28245544433594 358.9884338378906 206.8370819091797 C 394.94036865234375 198.24871826171875 364.381103515625 232.46018981933594 343.88494873046875 230.96502685546875 C 333.3933410644531 189.00926208496094 360.8775329589844 237.50244140625 362.3800964355469 124.07221984863281 C 413.2676696777344 143.068359375 431.5655822753906 162.9405517578125 441.5495910644531 199.33938598632812" stroke-width="0.0" fill="rgb(89, 0, 153)" opacity="0.90524036" stroke="rgb(0, 0, 0)" stroke-opacity="1.0" stroke-linecap="round" stroke-linejoin="round"/>
    <path d="M 471.336669921875 220.33633422851562 C 456.2339782714844 231.76434326171875 464.9635925292969 200.5819854736328 422.4718322753906 235.07838439941406 C 318.5167236328125 275.5390930175781 326.48236083984375 265.8562316894531 442.3988342285156 242.7196807861328 C 397.2909851074219 190.35585021972656 384.1012878417969 235.7435302734375 383.81927490234375 203.27914428710938 C 491.383056640625 172.8759002685547 470.9818420410156 148.4518585205078 471.336669921875 220.33633422851562" stroke-width="0.0" fill="rgb(86, 0, 189)" opacity="0.053857025" stroke="rgb(0, 0, 0)" stroke-opacity="1.0" stroke-linecap="round" stroke-linejoin="round"/>
    <path d="M 166.27896118164062 281.75274658203125 C 139.49110412597656 300.1681213378906 114.55443572998047 310.707275390625 86.59500885009766 295.625732421875 C 50.96345901489258 293.9576416015625 94.87166595458984 301.9602355957031 -23.146015167236328 243.2718505859375 C 59.96146011352539 187.108154296875 34.21501541137695 181.86326599121094 119.48738098144531 233.40541076660156 C 174.1676788330078 252.6381378173828 205.73123168945312 277.54046630859375 166.27896118164062 281.75274658203125" stroke-width="0.0" fill="rgb(24, 255, 21)" opacity="0.96265376" stroke="rgb(0, 0, 0)" stroke-opacity="1.0" stroke-linecap="round" stroke-linejoin="round"/>
    <path d="M 51.67720031738281 61.17801284790039 C 46.37604522705078 88.53668975830078 34.02718734741211 94.89620971679688 110.31932830810547 97.22595977783203 C 158.07984924316406 36.93092346191406 181.97193908691406 -41.247554779052734 -2.30326771736145 -14.471169471740723 C -31.49114990234375 216.720703125 27.573348999023438 151.84237670898438 54.86581802368164 102.99191284179688 C 82.57992553710938 58.37134552001953 77.28035736083984 53.870025634765625 51.67720031738281 61.17801284790039" stroke-width="0.0" fill="rgb(26, 2, 220)" opacity="0.81261677" stroke="rgb(0, 0, 0)" stroke-opacity="1.0" stroke-linecap="round" stroke-linejoin="round"/>
    <path d="M 343.0545959472656 169.51145935058594 C 345.572998046875 216.2377471923828 346.9102478027344 236.91455078125 304.8933410644531 239.59429931640625 C 248.17550659179688 280.568359375 270.4305725097656 301.40313720703125 252.59703063964844 162.7041778564453 C 296.36041259765625 159.41378784179688 269.01068115234375 179.73109436035156 269.74346923828125 102.38883972167969 C 306.4518737792969 146.31008911132812 305.8112487792969 163.8749237060547 343.0545959472656 169.51145935058594" stroke-width="0.0" fill="rgb(89, 33, 85)" opacity="0.9413303" stroke="rgb(0, 0, 0)" stroke-opacity="1.0" stroke-linecap="round" stroke-linejoin="round"/>
    <path d="M 149.5528564453125 499.8922119140625 C 141.40625 460.33477783203125 219.33200073242188 442.3001708984375 195.59878540039062 499.1836242675781 C 137.21722412109375 536.7261352539062 115.42353057861328 529.0122680664062 107.79127502441406 506.29766845703125 C 81.6400146484375 462.3193054199219 66.38552856445312 418.8697509765625 87.38847351074219 441.7926330566406 C 172.63209533691406 462.0857238769531 193.34332275390625 506.3213195800781 149.5528564453125 499.8922119140625" stroke-width="0.0" fill="rgb(14, 51, 217)" opacity="0.54817045" stroke="rgb(0, 0, 0)" stroke-opacity="1.0" stroke-linecap="round" stroke-linejoin="round"/>
    <path d="M 105.87443542480469 231.364501953125 C 149.13291931152344 222.03697204589844 96.7758560180664 208.81028747558594 86.20979309082031 235.4578094482422 C 104.42432403564453 224.6231689453125 106.77423095703125 222.05519104003906 61.375083923339844 232.3678741455078 C 91.27466583251953 249.53268432617188 93.53992462158203 253.9721221923828 139.22438049316406 171.1153106689453 C 162.1354217529297 207.68484497070312 157.0662078857422 220.5001678466797 105.87443542480469 231.364501953125" stroke-width="0.0" fill="rgb(151, 122, 202)" opacity="0.0" stroke="rgb(0, 0, 0)" stroke-opacity="1.0" stroke-linecap="round" stroke-linejoin="round"/>
    <path d="M 80.38741302490234 145.40780639648438 C 73.19879913330078 155.09556579589844 49.47017288208008 145.447998046875 67.34912872314453 114.68464660644531 C 80.01036071777344 164.3501739501953 66.27348327636719 151.5319061279297 65.30144500732422 106.90792083740234 C 74.88336181640625 94.90956115722656 128.4309539794922 82.25093078613281 160.15786743164062 86.73628997802734 C 150.93809509277344 126.85057830810547 124.19493865966797 122.18492126464844 80.38741302490234 145.40780639648438" stroke-width="0.0" fill="rgb(52, 61, 255)" opacity="0.9790034" stroke="rgb(0, 0, 0)" stroke-opacity="1.0" stroke-linecap="round" stroke-linejoin="round"/>
    <path d="M 286.2859802246094 223.17727661132812 C 340.3350524902344 295.4173583984375 313.8726806640625 260.51031494140625 238.7523956298828 247.24913024902344 C 240.43380737304688 231.9926300048828 252.81748962402344 254.12081909179688 198.2861328125 212.85667419433594 C 217.47218322753906 199.5614471435547 220.8084259033203 180.02630615234375 243.80209350585938 212.06312561035156 C 300.4095153808594 210.13134765625 310.245361328125 212.1722869873047 286.2859802246094 223.17727661132812" stroke-width="0.0" fill="rgb(108, 37, 109)" opacity="0.0" stroke="rgb(0, 0, 0)" stroke-opacity="1.0" stroke-linecap="round" stroke-linejoin="round"/>
    <path d="M 223.9530792236328 132.67697143554688 C 202.4873504638672 122.75720977783203 202.01205444335938 115.98297119140625 229.8289794921875 114.90153503417969 C 200.19253540039062 99.83708953857422 173.61827087402344 163.32554626464844 93.82083129882812 212.55899047851562 C 181.5515594482422 134.87649536132812 231.4249267578125 144.51670837402344 217.3986053466797 101.82614135742188 C 246.51290893554688 91.1269760131836 257.42626953125 113.54850769042969 223.9530792236328 132.67697143554688" stroke-width="0.0" fill="rgb(190, 25, 245)" opacity="0.60588586" stroke="rgb(0, 0, 0)" stroke-opacity="1.0" stroke-linecap="round" stroke-linejoin="round"/>
    <path d="M 109.92811584472656 511.2822570800781 C 53.61750411987305 551.6078491210938 21.026098251342773 537.8626098632812 2.5863659381866455 533.9192504882812 C -9.364206314086914 527.7437133789062 -16.68471336364746 520.4232177734375 -42.66177749633789 491.5540466308594 C -50.69424057006836 464.6959533691406 -62.041290283203125 441.12982177734375 -0.4190479516983032 392.5357971191406 C 71.68582153320312 429.3827209472656 79.72657012939453 439.6528625488281 109.92811584472656 511.2822570800781" stroke-width="0.0" fill="rgb(15, 0, 245)" opacity="0.66281766" stroke="rgb(0, 0, 0)" stroke-opacity="1.0" stroke-linecap="round" stroke-linejoin="round"/>
    <path d="M 228.58587646484375 142.8113250732422 C 257.4371032714844 116.25765228271484 183.9459686279297 134.98143005371094 117.91627502441406 206.40231323242188 C 87.40914916992188 192.4842987060547 136.54786682128906 212.8533935546875 145.23809814453125 180.05015563964844 C 149.2423095703125 201.6243133544922 158.6289520263672 197.45101928710938 111.41320037841797 204.5755615234375 C 154.26611328125 176.95773315429688 136.10623168945312 177.97547912597656 228.58587646484375 142.8113250732422" stroke-width="0.0" fill="rgb(203, 205, 166)" opacity="0.15856251" stroke="rgb(0, 0, 0)" stroke-opacity="1.0" stroke-linecap="round" stroke-linejoin="round"/>
    <path d="M 474.684326171875 218.02169799804688 C 329.3817138671875 297.9099426269531 311.59515380859375 311.0115966796875 323.5840148925781 310.7673034667969 C 272.4346618652344 298.25836181640625 246.85577392578125 327.4508361816406 259.7221984863281 294.1369934082031 C 276.83099365234375 282.557373046875 295.4513854980469 273.2359313964844 339.0071105957031 255.8404541015625 C 288.3585205078125 306.8249206542969 390.5948181152344 163.54010009765625 474.684326171875 218.02169799804688" stroke-width="0.0" fill="rgb(0, 55, 1)" opacity="0.6775836" stroke="rgb(0, 0, 0)" stroke-opacity="1.0" stroke-linecap="round" stroke-linejoin="round"/>
    <path d="M 254.64675903320312 133.73516845703125 C 214.05953979492188 144.5774383544922 196.61917114257812 136.28469848632812 193.67311096191406 116.4518814086914 C 177.74664306640625 107.04593658447266 145.6728057861328 122.2552490234375 173.47828674316406 119.82054138183594 C 165.842041015625 81.64872741699219 180.1485137939453 77.37361907958984 209.29678344726562 56.122371673583984 C 245.86143493652344 38.98651885986328 263.7836608886719 16.049673080444336 254.64675903320312 133.73516845703125" stroke-width="0.0" fill="rgb(255, 197, 51)" opacity="1.0" stroke="rgb(0, 0, 0)" stroke-opacity="1.0" stroke-linecap="round" stroke-linejoin="round"/>
    <path d="M 189.2268524169922 80.52479553222656 C 181.61639404296875 84.24394989013672 172.5995635986328 94.45602416992188 157.18077087402344 95.1930160522461 C 135.87496948242188 39.15671920776367 146.35379028320312 130.77899169921875 157.0762939453125 87.1445541381836 C 120.39862823486328 11.183707237243652 136.11160278320312 -33.131439208984375 216.846923828125 -3.5798799991607666 C 219.41195678710938 86.77069091796875 206.047119140625 54.8847541809082 189.2268524169922 80.52479553222656" stroke-width="0.0" fill="rgb(60, 13, 255)" opacity="1.0" stroke="rgb(0, 0, 0)" stroke-opacity="1.0" stroke-linecap="round" stroke-linejoin="round"/>
    <path d="M 430.2325744628906 80.29700469970703 C 415.1051025390625 86.88890075683594 389.52691650390625 101.02716064453125 374.5300598144531 106.35870361328125 C 372.9448547363281 157.13092041015625 380.8853759765625 132.83815002441406 390.1562194824219 92.03192138671875 C 391.0064697265625 110.55469512939453 393.2855529785156 121.29055786132812 348.634521484375 118.06685638427734 C 413.65423583984375 109.73760986328125 434.4162902832031 92.76622009277344 430.2325744628906 80.29700469970703" stroke-width="0.0" fill="rgb(113, 205, 109)" opacity="0.0" stroke="rgb(0, 0, 0)" stroke-opacity="1.0" stroke-linecap="round" stroke-linejoin="round"/>
    <path d="M 318.92572021484375 509.5354919433594 C 327.7694091796875 514.6648559570312 332.3973083496094 521.664794921875 307.9274597167969 534.3464965820312 C 263.7613220214844 537.12744140625 262.9812316894531 530.1280517578125 273.00274658203125 459.65826416015625 C 296.5230407714844 442.5608215332031 293.3352355957031 389.3667297363281 261.42059326171875 434.47198486328125 C 291.05413818359375 474.8870849609375 313.21240234375 470.9344482421875 318.92572021484375 509.5354919433594" stroke-width="0.0" fill="rgb(97, 155, 59)" opacity="0.11142523" stroke="rgb(0, 0, 0)" stroke-opacity="1.0" stroke-linecap="round" stroke-linejoin="round"/>
    <path d="M 289.41070556640625 163.1870574951172 C 301.5543518066406 139.21142578125 318.12579345703125 151.5418701171875 326.2663269042969 200.43775939941406 C 312.203857421875 136.26251220703125 323.52056884765625 126.97786712646484 228.96827697753906 135.84397888183594 C 238.63580322265625 184.71246337890625 288.5006103515625 178.24810791015625 283.98114013671875 185.4247589111328 C 272.04241943359375 142.2161407470703 304.1623229980469 157.0654754638672 289.41070556640625 163.1870574951172" stroke-width="0.0" fill="rgb(38, 45, 54)" opacity="0.036531653" stroke="rgb(0, 0, 0)" stroke-opacity="1.0" stroke-linecap="round" stroke-linejoin="round"/>
    <path d="M 305.7509460449219 15.17813777923584 C 267.86785888671875 13.750670433044434 283.73016357421875 1.6264426708221436 271.735107421875 14.594566345214844 C 254.01629638671875 18.468429565429688 249.29676818847656 29.768047332763672 225.99307250976562 33.526573181152344 C 220.2559051513672 -41.3336296081543 263.8158264160156 -43.749149322509766 284.2474060058594 -14.04929256439209 C 325.7119445800781 -22.14590835571289 339.1972351074219 19.822797775268555 305.7509460449219 15.17813777923584" stroke-width="0.0" fill="rgb(69, 61, 255)" opacity="1.0" stroke="rgb(0, 0, 0)" stroke-opacity="1.0" stroke-linecap="round" stroke-linejoin="round"/>
    <path d="M 343.5556335449219 248.9911346435547 C 347.9786376953125 248.1517791748047 339.1742858886719 273.47662353515625 344.0901184082031 257.6368103027344 C 318.45703125 275.0921630859375 311.4304504394531 268.1573486328125 298.9220886230469 267.42877197265625 C 325.8165283203125 256.0528564453125 329.04833984375 241.8550262451172 342.74371337890625 230.4223175048828 C 310.73779296875 207.5811767578125 312.30120849609375 238.6870574951172 343.5556335449219 248.9911346435547" stroke-width="0.0" fill="rgb(71, 4, 213)" opacity="0.2104208" stroke="rgb(0, 0, 0)" stroke-opacity="1.0" stroke-linecap="round" stroke-linejoin="round"/>
    <path d="M 186.453857421875 86.26956176757812 C 184.7283477783203 89.75659942626953 179.7354736328125 98.5968246459961 179.0666961669922 98.85579681396484 C 206.8957977294922 66.84577178955078 159.98963928222656 66.17777252197266 183.87109375 102.43658447265625 C 189.19857788085938 126.30038452148438 163.8296356201172 53.31114196777344 170.44459533691406 57.49753189086914 C 163.91600036621094 53.96471405029297 166.38916015625 70.63472747802734 186.453857421875 86.26956176757812" stroke-width="0.0" fill="rgb(117, 254, 110)" opacity="0.0" stroke="rgb(0, 0, 0)" stroke-opacity="1.0" stroke-linecap="round" stroke-linejoin="round"/>
    <path d="M 563.730224609375 456.05303955078125 C 549.9832763671875 469.3902893066406 543.2027587890625 489.9176025390625 513.7466430664062 487.7149658203125 C 476.4604797363281 485.7534484863281 456.30426025390625 481.9367370605469 443.1579895019531 438.05908203125 C 464.76531982421875 397.4448547363281 472.64056396484375 396.33172607421875 506.4918212890625 426.5306701660156 C 545.5733032226562 442.6708679199219 556.685546875 444.18292236328125 563.730224609375 456.05303955078125" stroke-width="0.0" fill="rgb(16, 3, 193)" opacity="1.0" stroke="rgb(0, 0, 0)" stroke-opacity="1.0" stroke-linecap="round" stroke-linejoin="round"/>
    <path d="M 353.32354736328125 496.5931396484375 C 352.2635803222656 489.6271667480469 331.3888244628906 482.5368957519531 322.4847717285156 508.3896789550781 C 333.89111328125 510.0815734863281 319.73260498046875 461.71685791015625 313.1162414550781 488.5234069824219 C 341.02618408203125 490.9388732910156 338.5754699707031 501.9608459472656 326.06060791015625 473.0758056640625 C 351.6315612792969 457.28460693359375 340.7843933105469 465.2492370605469 353.32354736328125 496.5931396484375" stroke-width="0.0" fill="rgb(106, 79, 120)" opacity="0.02757463" stroke="rgb(0, 0, 0)" stroke-opacity="1.0" stroke-linecap="round" stroke-linejoin="round"/>
    <path d="M 455.91644287109375 367.10662841796875 C 435.358642578125 387.9161682128906 428.1213073730469 398.3541564941406 414.2555847167969 425.7586364746094 C 405.7766418457031 450.2764892578125 427.3813171386719 459.2913513183594 428.367919921875 396.13214111328125 C 430.03424072265625 377.2610168457031 445.3267517089844 393.6299743652344 447.2557067871094 380.5065612792969 C 458.62603759765625 391.515380859375 466.1009521484375 385.875732421875 455.91644287109375 367.10662841796875" stroke-width="0.0" fill="rgb(62, 125, 135)" opacity="0.6959703" stroke="rgb(0, 0, 0)" stroke-opacity="1.0" stroke-linecap="round" stroke-linejoin="round"/>
    <path d="M 452.9211730957031 399.99542236328125 C 411.2370910644531 416.2957763671875 385.28704833984375 431.6108093261719 363.196044921875 436.4853210449219 C 369.83465576171875 418.5169677734375 366.5108642578125 409.8494567871094 385.3249816894531 387.9824523925781 C 391.6503601074219 375.6875915527344 394.0774841308594 374.65655517578125 394.8417663574219 356.091796875 C 415.5068664550781 353.9215087890625 457.3212585449219 371.85125732421875 452.9211730957031 399.99542236328125" stroke-width="0.0" fill="rgb(38, 105, 131)" opacity="0.8869855" stroke="rgb(0, 0, 0)" stroke-opacity="1.0" stroke-linecap="round" stroke-linejoin="round"/>
    <path d="M 293.18231201171875 118.17219543457031 C 248.12326049804688 114.2768325805664 245.20950317382812 108.86067199707031 250.38011169433594 186.5335693359375 C 210.93760681152344 188.21914672851562 200.63497924804688 170.97036743164062 192.76144409179688 139.6458282470703 C 225.48385620117188 122.58346557617188 251.2057647705078 136.66033935546875 252.3880157470703 120.29286193847656 C 305.25927734375 103.92866516113281 287.79656982421875 106.49011993408203 293.18231201171875 118.17219543457031" stroke-width="0.0" fill="rgb(58, 190, 127)" opacity="0.1526637" stroke="rgb(0, 0, 0)" stroke-opacity="1.0" stroke-linecap="round" stroke-linejoin="round"/>
    <path d="M 124.88297271728516 419.90948486328125 C 119.81421661376953 455.0141296386719 104.80213928222656 449.9969482421875 64.36875915527344 444.6111755371094 C 50.82286834716797 456.3876953125 49.69569778442383 437.60247802734375 38.45309066772461 410.0245666503906 C 40.73019790649414 390.1038818359375 41.894718170166016 364.91571044921875 40.80210876464844 369.96783447265625 C 94.69986724853516 406.4445495605469 112.94928741455078 401.7206726074219 124.88297271728516 419.90948486328125" stroke-width="0.0" fill="rgb(153, 189, 189)" opacity="0.015268213" stroke="rgb(0, 0, 0)" stroke-opacity="1.0" stroke-linecap="round" stroke-linejoin="round"/>
    <path d="M 480.6744384765625 78.45691680908203 C 453.9863586425781 90.63245391845703 447.3868408203125 81.1884994506836 435.650146484375 78.64653778076172 C 432.17279052734375 75.30216979980469 416.7911071777344 86.19487762451172 361.0789489746094 91.63134002685547 C 363.23748779296875 21.6112117767334 371.8533020019531 34.999610900878906 430.0204162597656 48.05656814575195 C 435.3587951660156 36.38975524902344 456.7409973144531 25.46190071105957 480.6744384765625 78.45691680908203" stroke-width="0.0" fill="rgb(47, 8, 251)" opacity="0.7099192" stroke="rgb(0, 0, 0)" stroke-opacity="1.0" stroke-linecap="round" stroke-linejoin="round"/>
    <path d="M 239.74195861816406 35.388328552246094 C 191.71009826660156 41.97698211669922 195.04498291015625 21.90915298461914 129.2140655517578 -14.876524925231934 C 120.12702941894531 42.71869659423828 160.0230255126953 30.060203552246094 202.56015014648438 23.432708740234375 C 186.03123474121094 -13.53453540802002 191.30690002441406 -32.90461730957031 202.71937561035156 -45.767086029052734 C 226.43202209472656 -17.039203643798828 244.05056762695312 -6.441870212554932 239.74195861816406 35.388328552246094" stroke-width="0.0" fill="rgb(72, 17, 255)" opacity="0.9937543" stroke="rgb(0, 0, 0)" stroke-opacity="1.0" stroke-linecap="round" stroke-linejoin="round"/>
    <path d="M 496.0433044433594 208.93862915039062 C 486.8685607910156 214.85009765625 490.2370910644531 228.20013427734375 480.9148864746094 213.82864379882812 C 483.2346496582031 196.76478576660156 479.8026428222656 195.9205780029297 484.6169128417969 206.21578979492188 C 481.8397216796875 176.53785705566406 473.549560546875 175.486083984375 476.6059875488281 168.96730041503906 C 471.531982421875 197.3600311279297 482.5054931640625 206.64744567871094 496.0433044433594 208.93862915039062" stroke-width="0.0" fill="rgb(136, 106, 126)" opacity="0.012249069" stroke="rgb(0, 0, 0)" stroke-opacity="1.0" stroke-linecap="round" stroke-linejoin="round"/>
    <path d="M 379.419677734375 336.9117431640625 C 379.2679443359375 309.3658447265625 379.73553466796875 284.5813903808594 393.1514587402344 328.4579162597656 C 408.34002685546875 306.11041259765625 402.19219970703125 304.80621337890625 392.4579162597656 311.60369873046875 C 371.0467834472656 307.4581298828125 400.2552795410156 296.9671936035156 388.4911193847656 285.67559814453125 C 366.5162353515625 279.3678894042969 369.1910400390625 331.3143615722656 379.419677734375 336.9117431640625" stroke-width="0.0" fill="rgb(2, 146, 72)" opacity="0.052304544" stroke="rgb(0, 0, 0)" stroke-opacity="1.0" stroke-linecap="round" stroke-linejoin="round"/>
    <path d="M 255.22451782226562 311.3302001953125 C 254.53326416015625 288.23883056640625 247.6526336669922 296.2546691894531 255.78956604003906 303.47125244140625 C 247.884033203125 294.09381103515625 228.0629119873047 285.6710205078125 206.01751708984375 273.876220703125 C 173.7337188720703 248.6343994140625 197.7515106201172 246.7301025390625 223.88961791992188 267.581787109375 C 260.4046325683594 279.0658874511719 249.239013671875 283.1589050292969 255.22451782226562 311.3302001953125" stroke-width="0.0" fill="rgb(255, 132, 255)" opacity="0.80108726" stroke="rgb(0, 0, 0)" stroke-opacity="1.0" stroke-linecap="round" stroke-linejoin="round"/>
    <path d="M 272.375 310.2525329589844 C 258.1043395996094 305.0526123046875 268.6806945800781 287.54718017578125 255.78640747070312 291.6389465332031 C 250.05023193359375 311.7606201171875 236.14376831054688 321.7164306640625 219.06593322753906 301.7749328613281 C 254.38217163085938 310.2038879394531 252.6394500732422 290.1455383300781 272.749755859375 295.3733825683594 C 267.2105712890625 310.48974609375 283.6432189941406 322.24114990234375 272.375 310.2525329589844" stroke-width="0.0" fill="rgb(41, 222, 57)" opacity="0.0" stroke="rgb(0, 0, 0)" stroke-opacity="1.0" stroke-linecap="round" stroke-linejoin="round"/>
    <path d="M 52.15239334106445 122.81240844726562 C 46.37031173706055 136.19740295410156 36.14706039428711 155.14102172851562 -8.065178871154785 163.7745819091797 C 12.356779098510742 202.787841796875 13.59643840789795 157.79148864746094 1.5266398191452026 123.57953643798828 C -10.87368106842041 87.21316528320312 -16.7576904296875 60.04090881347656 55.90282440185547 76.41510009765625 C 99.67942810058594 73.2070541381836 82.82556915283203 111.17237854003906 52.15239334106445 122.81240844726562" stroke-width="0.0" fill="rgb(23, 53, 223)" opacity="0.3759389" stroke="rgb(0, 0, 0)" stroke-opacity="1.0" stroke-linecap="round" stroke-linejoin="round"/>
    <path d="M 442.5690002441406 152.90597534179688 C 458.2815246582031 147.23501586914062 427.69451904296875 149.5752716064453 441.8173828125 143.60870361328125 C 442.0523376464844 158.628173828125 427.7538757324219 136.8682098388672 420.584228515625 124.53417205810547 C 410.0712890625 121.58409881591797 413.3503723144531 121.95103454589844 409.2570495605469 128.66221618652344 C 425.9110412597656 144.75503540039062 441.30328369140625 140.4569854736328 442.5690002441406 152.90597534179688" stroke-width="0.0" fill="rgb(27, 224, 121)" opacity="0.44409055" stroke="rgb(0, 0, 0)" stroke-opacity="1.0" stroke-linecap="round" stroke-linejoin="round"/>
    <path d="M 135.03297424316406 471.2973937988281 C 176.93661499023438 529.088134765625 181.29861450195312 512.0687866210938 108.78559875488281 525.0982055664062 C 38.406795501708984 526.7227172851562 32.86299133300781 520.0908203125 52.236167907714844 511.1750793457031 C 61.021568298339844 450.2751770019531 64.52538299560547 423.263916015625 64.72330474853516 420.1275329589844 C 105.62995910644531 435.2737731933594 99.6790771484375 470.2880859375 135.03297424316406 471.2973937988281" stroke-width="0.0" fill="rgb(2, 0, 184)" opacity="0.8749483" stroke="rgb(0, 0, 0)" stroke-opacity="1.0" stroke-linecap="round" stroke-linejoin="round"/>
    <path d="M 515.4888916015625 32.52007293701172 C 530.74658203125 46.16202163696289 520.7529296875 58.09103775024414 513.3103637695312 64.76393127441406 C 525.10546875 38.083343505859375 517.3446655273438 16.914052963256836 514.4923706054688 34.23658752441406 C 507.3002014160156 59.35694885253906 519.2928466796875 59.80860137939453 504.1815185546875 55.40180587768555 C 468.9514465332031 54.487701416015625 483.06256103515625 37.92308807373047 515.4888916015625 32.52007293701172" stroke-width="0.0" fill="rgb(91, 87, 71)" opacity="0.0" stroke="rgb(0, 0, 0)" stroke-opacity="1.0" stroke-linecap="round" stroke-linejoin="round"/>
    <path d="M 297.3756408691406 283.21844482421875 C 304.69500732421875 283.84210205078125 319.6395568847656 314.21490478515625 309.0411071777344 293.3834533691406 C 271.16168212890625 297.4700927734375 235.37608337402344 302.9599914550781 264.469482421875 315.25390625 C 304.2613525390625 333.901611328125 299.6866149902344 314.55035400390625 294.5769348144531 298.23870849609375 C 283.3268127441406 286.256103515625 297.2489318847656 274.612060546875 297.3756408691406 283.21844482421875" stroke-width="0.0" fill="rgb(0, 63, 118)" opacity="0.004550448" stroke="rgb(0, 0, 0)" stroke-opacity="1.0" stroke-linecap="round" stroke-linejoin="round"/>
    <path d="M 343.90045166015625 136.86302185058594 C 357.02105712890625 83.97210693359375 323.11468505859375 88.87910461425781 303.9712829589844 111.12244415283203 C 316.26666259765625 118.7768783569336 316.5433044433594 89.64054107666016 306.37225341796875 72.04791259765625 C 292.4681396484375 73.88851165771484 296.5393981933594 75.054931640625 331.1489562988281 78.13107299804688 C 341.1624755859375 78.98701477050781 329.0539855957031 88.34242248535156 343.90045166015625 136.86302185058594" stroke-width="0.0" fill="rgb(54, 0, 191)" opacity="0.052229345" stroke="rgb(0, 0, 0)" stroke-opacity="1.0" stroke-linecap="round" stroke-linejoin="round"/>
    <path d="M 164.7391815185547 67.6551284790039 C 150.7942352294922 60.944725036621094 117.70133209228516 49.65568542480469 133.8675537109375 93.34932708740234 C 143.82315063476562 71.85555267333984 118.92049407958984 68.41471862792969 109.35697937011719 54.38460159301758 C 115.06792449951172 27.75227165222168 99.9836196899414 49.11358642578125 116.24375915527344 8.530166625976562 C 137.5472869873047 48.655113220214844 130.9551239013672 75.4827880859375 164.7391815185547 67.6551284790039" stroke-width="0.0" fill="rgb(9, 185, 83)" opacity="0.0061098076" stroke="rgb(0, 0, 0)" stroke-opacity="1.0" stroke-linecap="round" stroke-linejoin="round"/>
    <path d="M 460.8048400878906 457.2861022949219 C 473.5138244628906 495.5113525390625 454.4160461425781 511.1583251953125 451.33685302734375 536.7808227539062 C 431.3373718261719 516.0133056640625 409.8354797363281 524.92041015625 374.45574951171875 512.2855224609375 C 388.13311767578125 443.75640869140625 393.83673095703125 442.2810363769531 436.94256591796875 406.55255126953125 C 486.032470703125 408.39361572265625 461.6656494140625 444.269287109375 460.8048400878906 457.2861022949219" stroke-width="0.0" fill="rgb(25, 8, 223)" opacity="0.8196245" stroke="rgb(0, 0, 0)" stroke-opacity="1.0" stroke-linecap="round" stroke-linejoin="round"/>
    <path d="M 198.80935668945312 57.49488067626953 C 198.705078125 73.62571716308594 191.27532958984375 96.953369140625 173.14083862304688 100.73057556152344 C 182.14163208007812 92.92459869384766 192.63572692871094 86.48696899414062 190.51235961914062 74.92863464355469 C 214.2544708251953 65.99516296386719 186.88397216796875 81.10157775878906 181.605712890625 74.23210144042969 C 197.89447021484375 56.522953033447266 198.11985778808594 75.34195709228516 198.80935668945312 57.49488067626953" stroke-width="0.0" fill="rgb(131, 213, 36)" opacity="0.0" stroke="rgb(0, 0, 0)" stroke-opacity="1.0" stroke-linecap="round" stroke-linejoin="round"/>
    <path d="M 285.3306579589844 205.5043182373047 C 282.902099609375 215.13507080078125 295.3308410644531 242.31773376464844 275.4063415527344 254.3116455078125 C 250.36878967285156 263.29498291015625 261.5870361328125 253.3574981689453 267.13702392578125 249.71560668945312 C 263.5989685058594 232.752197265625 262.6451416015625 228.1462860107422 262.22808837890625 216.8828582763672 C 268.6228332519531 218.6981658935547 284.6889343261719 216.55824279785156 285.3306579589844 205.5043182373047" stroke-width="0.0" fill="rgb(92, 51, 40)" opacity="0.16220376" stroke="rgb(0, 0, 0)" stroke-opacity="1.0" stroke-linecap="round" stroke-linejoin="round"/>
    <path d="M 424.07781982421875 -32.384456634521484 C 416.06427001953125 -10.405208587646484 438.8019714355469 26.198564529418945 442.57525634765625 44.2821159362793 C 375.63861083984375 77.56317138671875 368.84033203125 75.33134460449219 377.61920166015625 -12.480419158935547 C 442.5266418457031 -29.770788192749023 449.6557922363281 -32.55399703979492 459.19964599609375 -21.492761611938477 C 476.8262023925781 -16.114213943481445 486.2515869140625 -11.2457275390625 424.07781982421875 -32.384456634521484" stroke-width="0.0" fill="rgb(42, 14, 246)" opacity="0.97725785" stroke="rgb(0, 0, 0)" stroke-opacity="1.0" stroke-linecap="round" stroke-linejoin="round"/>
    <path d="M 133.83042907714844 401.3394775390625 C 137.2237548828125 414.3926086425781 163.66978454589844 440.25225830078125 159.74093627929688 435.6460266113281 C 152.71084594726562 443.5799560546875 140.8477020263672 436.4988098144531 136.18240356445312 438.1765441894531 C 142.9655303955078 435.3933410644531 152.19137573242188 434.161865234375 150.73895263671875 427.52752685546875 C 177.52610778808594 445.6227111816406 167.7955322265625 452.5125427246094 133.83042907714844 401.3394775390625" stroke-width="0.0" fill="rgb(167, 255, 172)" opacity="0.0019390373" stroke="rgb(0, 0, 0)" stroke-opacity="1.0" stroke-linecap="round" stroke-linejoin="round"/>
  </g>
</svg>
