<?xml version="1.0" ?>
<svg xmlns="http://www.w3.org/2000/svg" version="1.1" width="512" height="512">
  <defs/>
  <g>
    <path d="M 209.28636169433594 345.2447204589844 C 186.9225616455078 548.1321411132812 194.42628479003906 354.4429626464844 134.32772827148438 429.7605895996094 C 89.65350341796875 381.3530578613281 -3.115489959716797 280.1439514160156 94.76284790039062 189.49314880371094 C 83.80593872070312 398.79180908203125 84.623291015625 322.0208740234375 100.85919189453125 349.61181640625 C 73.32673645019531 354.5325012207031 39.064517974853516 317.9951171875 209.28636169433594 345.2447204589844" stroke-width="0.0" fill="rgb(1, 5, 20)" opacity="0.96925116" stroke="rgb(0, 0, 0)" stroke-opacity="1.0" stroke-linecap="round" stroke-linejoin="round"/>
    <path d="M 189.12811279296875 228.6176300048828 C 244.68878173828125 294.2427062988281 148.94158935546875 298.6560363769531 141.07992553710938 316.7142028808594 C 120.97988891601562 321.6633605957031 66.23657989501953 285.23828125 76.14733123779297 246.4151611328125 C 90.27303314208984 245.02554321289062 3.7574119567871094 229.9590301513672 159.76528930664062 225.22898864746094 C 151.58291625976562 305.0978698730469 194.7893829345703 290.8188171386719 189.12811279296875 228.6176300048828" stroke-width="0.0" fill="rgb(0, 0, 6)" opacity="1.0" stroke="rgb(0, 0, 0)" stroke-opacity="1.0" stroke-linecap="round" stroke-linejoin="round"/>
    <path d="M 455.7876281738281 278.9208679199219 C 445.2284240722656 397.9857177734375 225.05630493164062 311.9695739746094 385.79296875 269.16510009765625 C 413.3468933105469 216.7445068359375 295.3936462402344 140.1613006591797 274.6744079589844 359.436767578125 C 242.0531768798828 180.88119506835938 321.6414489746094 176.05819702148438 363.63433837890625 211.5710906982422 C 476.5675354003906 210.24261474609375 430.2909851074219 254.4115753173828 455.7876281738281 278.9208679199219" stroke-width="0.0" fill="rgb(0, 0, 14)" opacity="1.0" stroke="rgb(0, 0, 0)" stroke-opacity="1.0" stroke-linecap="round" stroke-linejoin="round"/>
    <path d="M 201.48077392578125 236.22105407714844 C 174.1839141845703 280.3157653808594 224.25697326660156 213.8843231201172 89.69075012207031 227.60888671875 C 39.20743179321289 253.00291442871094 128.36087036132812 224.9208984375 168.81863403320312 236.60711669921875 C 178.5435791015625 239.06198120117188 146.9549560546875 213.25521850585938 178.03318786621094 178.3133544921875 C 173.11929321289062 104.50201416015625 136.63499450683594 136.23367309570312 201.48077392578125 236.22105407714844" stroke-width="0.0" fill="rgb(0, 0, 1)" opacity="0.9768159" stroke="rgb(0, 0, 0)" stroke-opacity="1.0" stroke-linecap="round" stroke-linejoin="round"/>
    <path d="M 543.75 321.5762939453125 C 571.4898681640625 421.712646484375 432.52874755859375 383.8247985839844 491.885498046875 445.74310302734375 C 321.1014404296875 290.3662109375 355.8032531738281 409.7979736328125 318.3431396484375 263.72503662109375 C 459.56353759765625 348.0281066894531 335.833251953125 319.1368713378906 419.641845703125 327.29248046875 C 434.7704162597656 365.9596252441406 383.80126953125 374.15838623046875 543.75 321.5762939453125" stroke-width="0.0" fill="rgb(5, 0, 16)" opacity="0.85659665" stroke="rgb(0, 0, 0)" stroke-opacity="1.0" stroke-linecap="round" stroke-linejoin="round"/>
    <path d="M 431.0652770996094 205.63076782226562 C 457.2826843261719 279.5129089355469 468.74822998046875 294.0885925292969 401.9046325683594 375.6142883300781 C 413.0164489746094 242.20877075195312 457.6737365722656 280.88916015625 441.130126953125 213.53717041015625 C 473.1247253417969 127.72968292236328 466.8897399902344 -21.259658813476562 483.5214538574219 78.52848052978516 C 480.2175598144531 230.19317626953125 487.50628662109375 152.25572204589844 431.0652770996094 205.63076782226562" stroke-width="0.0" fill="rgb(33, 25, 34)" opacity="0.7824288" stroke="rgb(0, 0, 0)" stroke-opacity="1.0" stroke-linecap="round" stroke-linejoin="round"/>
    <path d="M 370.9104919433594 279.0313720703125 C 277.221435546875 312.1081848144531 319.2781066894531 373.8129577636719 331.07470703125 336.23992919921875 C 275.7784729003906 331.28515625 354.89593505859375 333.1463317871094 288.8465576171875 328.4844665527344 C 277.6654968261719 311.3088684082031 271.48077392578125 253.57078552246094 272.1626281738281 220.77474975585938 C 309.13543701171875 249.4298095703125 348.4314880371094 248.01747131347656 370.9104919433594 279.0313720703125" stroke-width="0.0" fill="rgb(255, 255, 248)" opacity="1.0" stroke="rgb(0, 0, 0)" stroke-opacity="1.0" stroke-linecap="round" stroke-linejoin="round"/>
    <path d="M 385.4147033691406 236.24298095703125 C 408.59478759765625 247.76319885253906 394.073974609375 246.93275451660156 397.9160461425781 201.7493438720703 C 373.2842712402344 207.0244903564453 368.96136474609375 206.46734619140625 334.34686279296875 223.62020874023438 C 340.5772399902344 225.52430725097656 335.24755859375 204.37745666503906 333.6347351074219 225.24009704589844 C 335.9744873046875 253.4596405029297 327.6923522949219 233.28225708007812 385.4147033691406 236.24298095703125" stroke-width="0.0" fill="rgb(58, 26, 48)" opacity="0.98075235" stroke="rgb(0, 0, 0)" stroke-opacity="1.0" stroke-linecap="round" stroke-linejoin="round"/>
    <path d="M 25.393564224243164 162.43399047851562 C 107.70779418945312 266.22607421875 64.01152801513672 105.19584655761719 237.31211853027344 123.44876098632812 C 66.34556579589844 215.29904174804688 111.10045623779297 339.04852294921875 23.58063316345215 89.7439956665039 C 25.77457618713379 -36.448665618896484 40.626983642578125 -46.798728942871094 200.5722198486328 77.84185028076172 C 74.39878845214844 -41.22262954711914 17.240196228027344 -60.447853088378906 25.393564224243164 162.43399047851562" stroke-width="0.0" fill="rgb(0, 0, 15)" opacity="1.0" stroke="rgb(0, 0, 0)" stroke-opacity="1.0" stroke-linecap="round" stroke-linejoin="round"/>
    <path d="M 225.0751190185547 327.69146728515625 C 232.6764373779297 326.1139831542969 348.3412780761719 293.4301452636719 278.5985107421875 340.8492126464844 C 20.82596778869629 380.6348571777344 141.69337463378906 310.7339782714844 156.1527099609375 230.8945770263672 C 168.69375610351562 165.81591796875 219.9697265625 189.84429931640625 227.2664337158203 223.9982147216797 C 227.83314514160156 253.65113830566406 204.29656982421875 270.054931640625 225.0751190185547 327.69146728515625" stroke-width="0.0" fill="rgb(0, 0, 11)" opacity="1.0" stroke="rgb(0, 0, 0)" stroke-opacity="1.0" stroke-linecap="round" stroke-linejoin="round"/>
    <path d="M 418.7864990234375 257.4617919921875 C 427.4332275390625 263.0159606933594 381.0894470214844 272.1663513183594 384.2176818847656 268.1875915527344 C 389.5287170410156 272.0017395019531 345.4243469238281 283.7857666015625 296.25933837890625 235.0655059814453 C 371.0144958496094 187.57054138183594 335.9040832519531 221.26405334472656 351.9394836425781 194.13894653320312 C 424.9212341308594 209.46315002441406 411.9832763671875 266.8235778808594 418.7864990234375 257.4617919921875" stroke-width="0.0" fill="rgb(255, 255, 251)" opacity="1.0" stroke="rgb(0, 0, 0)" stroke-opacity="1.0" stroke-linecap="round" stroke-linejoin="round"/>
    <path d="M 481.72564697265625 -12.854279518127441 C 279.8553466796875 45.028289794921875 305.5899963378906 41.58282470703125 227.5859375 95.31008911132812 C 104.19005584716797 110.77958679199219 187.12034606933594 52.194488525390625 -3.383960485458374 -24.330833435058594 C 202.2248077392578 60.9001350402832 109.99669647216797 115.63874816894531 276.4800109863281 88.52291870117188 C 348.147216796875 65.59758758544922 377.3282165527344 -5.680947780609131 481.72564697265625 -12.854279518127441" stroke-width="0.0" fill="rgb(0, 0, 4)" opacity="1.0" stroke="rgb(0, 0, 0)" stroke-opacity="1.0" stroke-linecap="round" stroke-linejoin="round"/>
    <path d="M 345.2061767578125 340.4471130371094 C 156.88206481933594 399.61279296875 234.24855041503906 250.59689331054688 144.19863891601562 401.47845458984375 C 116.13115692138672 433.0812683105469 159.47251892089844 370.57440185546875 165.93450927734375 319.5350341796875 C 170.39154052734375 336.68701171875 180.6566925048828 324.4736633300781 226.49671936035156 315.5223693847656 C 265.56781005859375 342.13092041015625 349.8509216308594 347.6021423339844 345.2061767578125 340.4471130371094" stroke-width="0.0" fill="rgb(223, 248, 211)" opacity="0.8392031" stroke="rgb(0, 0, 0)" stroke-opacity="1.0" stroke-linecap="round" stroke-linejoin="round"/>
    <path d="M 492.88751220703125 78.0425796508789 C 475.805908203125 66.16598510742188 482.245849609375 70.31501007080078 478.4039306640625 78.42405700683594 C 464.9588317871094 78.20269012451172 493.8121032714844 81.65911102294922 477.5517272949219 92.6080551147461 C 482.6553955078125 -3.5328235626220703 461.15020751953125 -59.575138092041016 493.4193115234375 -60.55607986450195 C 496.54840087890625 18.6058292388916 503.795654296875 63.266117095947266 492.88751220703125 78.0425796508789" stroke-width="0.0" fill="rgb(65, 58, 60)" opacity="0.1660201" stroke="rgb(0, 0, 0)" stroke-opacity="1.0" stroke-linecap="round" stroke-linejoin="round"/>
    <path d="M 451.9971923828125 85.03065490722656 C 330.6726379394531 178.6648406982422 437.609375 133.02122497558594 383.7310485839844 201.6341552734375 C 247.3419189453125 85.63114929199219 268.4615478515625 151.61557006835938 356.9352111816406 57.773109436035156 C 340.86199951171875 71.50802612304688 451.5388488769531 3.679039239883423 328.48687744140625 122.34225463867188 C 382.288330078125 151.8022918701172 482.7449035644531 59.07284164428711 451.9971923828125 85.03065490722656" stroke-width="0.0" fill="rgb(0, 0, 10)" opacity="1.0" stroke="rgb(0, 0, 0)" stroke-opacity="1.0" stroke-linecap="round" stroke-linejoin="round"/>
    <path d="M 467.2728576660156 444.19464111328125 C 442.0977478027344 396.2542724609375 518.7673950195312 536.9188842773438 372.8820495605469 527.6738891601562 C 341.919677734375 367.3907775878906 431.85784912109375 460.0382080078125 401.3669738769531 347.8050231933594 C 550.7430419921875 444.4010314941406 355.7652282714844 345.8305358886719 414.0751647949219 338.79852294921875 C 478.7136535644531 391.53009033203125 496.0160827636719 414.7122497558594 467.2728576660156 444.19464111328125" stroke-width="0.0" fill="rgb(195, 152, 137)" opacity="0.9129154" stroke="rgb(0, 0, 0)" stroke-opacity="1.0" stroke-linecap="round" stroke-linejoin="round"/>
    <path d="M 492.3362731933594 45.009281158447266 C 456.0650634765625 24.8807373046875 466.9101257324219 29.588911056518555 399.55523681640625 126.17687225341797 C 397.2200012207031 132.14193725585938 410.79010009765625 194.43992614746094 430.1797180175781 42.91290283203125 C 414.9428405761719 49.375389099121094 408.25445556640625 48.28237533569336 429.054931640625 78.83525085449219 C 465.117431640625 35.79303741455078 458.8768310546875 24.925796508789062 492.3362731933594 45.009281158447266" stroke-width="0.0" fill="rgb(74, 255, 0)" opacity="0.55113643" stroke="rgb(0, 0, 0)" stroke-opacity="1.0" stroke-linecap="round" stroke-linejoin="round"/>
    <path d="M 400.0693664550781 390.1874694824219 C 434.204833984375 408.40899658203125 383.4214172363281 449.2010192871094 305.79766845703125 466.0747985839844 C 225.0299835205078 515.4154052734375 115.38105773925781 457.8860168457031 182.0509490966797 383.1102294921875 C 275.9935607910156 417.7904968261719 264.199462890625 412.5212707519531 267.6390075683594 412.7310485839844 C 249.86337280273438 404.1639709472656 304.71209716796875 408.2669982910156 400.0693664550781 390.1874694824219" stroke-width="0.0" fill="rgb(0, 0, 4)" opacity="0.7354613" stroke="rgb(0, 0, 0)" stroke-opacity="1.0" stroke-linecap="round" stroke-linejoin="round"/>
    <path d="M 219.16014099121094 362.9353942871094 C 291.34423828125 303.3882751464844 310.76641845703125 309.55462646484375 289.03167724609375 293.9066467285156 C 236.2122344970703 288.5289306640625 261.0689697265625 281.5703125 237.1549072265625 234.29930114746094 C 178.88595581054688 255.20887756347656 171.32803344726562 272.26812744140625 192.17959594726562 292.5150451660156 C 174.96530151367188 365.3367614746094 169.31597900390625 308.3638916015625 219.16014099121094 362.9353942871094" stroke-width="0.0" fill="rgb(255, 255, 241)" opacity="0.9929425" stroke="rgb(0, 0, 0)" stroke-opacity="1.0" stroke-linecap="round" stroke-linejoin="round"/>
    <path d="M 558.61572265625 411.725830078125 C 492.1000671386719 566.819091796875 428.14532470703125 508.03619384765625 427.9899597167969 423.9336242675781 C 456.8404235839844 410.72430419921875 449.45404052734375 428.9660339355469 428.0272521972656 415.09173583984375 C 471.49798583984375 397.3137512207031 443.3175048828125 423.1531066894531 484.72674560546875 375.01513671875 C 568.7144775390625 390.8221130371094 491.6105651855469 374.3647155761719 558.61572265625 411.725830078125" stroke-width="0.0" fill="rgb(185, 93, 84)" opacity="1.0" stroke="rgb(0, 0, 0)" stroke-opacity="1.0" stroke-linecap="round" stroke-linejoin="round"/>
    <path d="M 311.5436096191406 379.314697265625 C 257.9383239746094 364.30792236328125 254.28616333007812 345.12176513671875 249.04510498046875 342.08203125 C 249.7367401123047 365.6186218261719 240.52615356445312 360.1800537109375 201.12367248535156 387.15557861328125 C 145.36239624023438 371.2206726074219 185.50296020507812 364.8288269042969 281.48046875 297.4875793457031 C 291.5416564941406 376.16180419921875 379.4449768066406 361.1418151855469 311.5436096191406 379.314697265625" stroke-width="0.0" fill="rgb(0, 0, 0)" opacity="1.0" stroke="rgb(0, 0, 0)" stroke-opacity="1.0" stroke-linecap="round" stroke-linejoin="round"/>
    <path d="M 53.134761810302734 3.18405818939209 C 18.656221389770508 -2.135141372680664 39.41548538208008 111.9137191772461 70.50209045410156 191.58094787597656 C 48.22465896606445 311.86065673828125 24.875808715820312 48.332359313964844 12.502202033996582 69.98160552978516 C -0.5943669080734253 -44.85499572753906 -7.373244285583496 -56.58640670776367 128.11228942871094 -2.0021398067474365 C 172.08999633789062 65.4934310913086 99.6963882446289 -35.409488677978516 53.134761810302734 3.18405818939209" stroke-width="0.0" fill="rgb(255, 249, 255)" opacity="0.9999318" stroke="rgb(0, 0, 0)" stroke-opacity="1.0" stroke-linecap="round" stroke-linejoin="round"/>
    <path d="M 215.9727783203125 57.880332946777344 C 207.5593719482422 75.95623016357422 182.25738525390625 83.6748275756836 172.19432067871094 59.16850280761719 C 159.2985076904297 33.907020568847656 142.5373077392578 29.25347328186035 93.84404754638672 -4.596157550811768 C 86.267333984375 -38.59558868408203 80.82146453857422 -42.15782928466797 151.86761474609375 -31.520109176635742 C 197.20333862304688 -15.240178108215332 208.1105499267578 -15.294144630432129 215.9727783203125 57.880332946777344" stroke-width="0.0" fill="rgb(150, 118, 175)" opacity="1.0" stroke="rgb(0, 0, 0)" stroke-opacity="1.0" stroke-linecap="round" stroke-linejoin="round"/>
    <path d="M 128.7487030029297 311.8327331542969 C 124.73433685302734 330.6234130859375 116.8558578491211 339.66912841796875 109.24109649658203 358.4775695800781 C 85.81494140625 328.4068603515625 87.72148895263672 341.80133056640625 85.9307861328125 315.79486083984375 C 85.61326599121094 263.11151123046875 95.8958740234375 272.9078369140625 91.24410247802734 249.44532775878906 C 101.05526733398438 287.9385986328125 104.01077270507812 299.335205078125 128.7487030029297 311.8327331542969" stroke-width="0.0" fill="rgb(23, 0, 21)" opacity="1.0" stroke="rgb(0, 0, 0)" stroke-opacity="1.0" stroke-linecap="round" stroke-linejoin="round"/>
    <path d="M 120.17164611816406 266.6324462890625 C 93.6349868774414 266.1810302734375 111.43003845214844 259.2855224609375 74.36537170410156 261.91790771484375 C 74.20521545410156 219.55760192871094 62.406158447265625 248.97964477539062 66.73949432373047 258.1956787109375 C 58.79473876953125 169.10752868652344 67.68547058105469 111.80879211425781 75.98931884765625 262.9867248535156 C 114.26712799072266 271.93585205078125 87.94654083251953 187.84375 120.17164611816406 266.6324462890625" stroke-width="0.0" fill="rgb(255, 255, 253)" opacity="0.9824627" stroke="rgb(0, 0, 0)" stroke-opacity="1.0" stroke-linecap="round" stroke-linejoin="round"/>
    <path d="M 243.66180419921875 84.19718170166016 C 200.103759765625 105.28951263427734 213.0311737060547 127.35309600830078 166.25587463378906 177.56858825683594 C 179.73109436035156 187.25010681152344 170.96548461914062 179.63780212402344 197.51499938964844 165.2711639404297 C 173.91893005371094 55.68994903564453 172.29493713378906 71.92156982421875 228.10760498046875 76.71343994140625 C 245.62916564941406 96.19807434082031 275.220458984375 83.72712707519531 243.66180419921875 84.19718170166016" stroke-width="0.0" fill="rgb(255, 221, 108)" opacity="0.29151264" stroke="rgb(0, 0, 0)" stroke-opacity="1.0" stroke-linecap="round" stroke-linejoin="round"/>
    <path d="M 314.8465881347656 343.56182861328125 C 300.047607421875 341.1351013183594 344.08978271484375 353.81561279296875 337.3656921386719 365.2989807128906 C 292.48687744140625 322.58984375 248.61260986328125 344.1387634277344 217.92617797851562 334.79498291015625 C 266.8607177734375 311.3800964355469 294.4494934082031 267.3282470703125 332.67462158203125 326.31329345703125 C 347.6929931640625 322.5330505371094 302.1405029296875 364.5742492675781 314.8465881347656 343.56182861328125" stroke-width="0.0" fill="rgb(252, 255, 237)" opacity="1.0" stroke="rgb(0, 0, 0)" stroke-opacity="1.0" stroke-linecap="round" stroke-linejoin="round"/>
    <path d="M 22.647367477416992 406.7989501953125 C -2.4408953189849854 409.24688720703125 111.83832550048828 385.7581481933594 55.70476531982422 381.78753662109375 C 13.288629531860352 446.41851806640625 15.604547500610352 397.85870361328125 88.81006622314453 387.3320007324219 C -58.16852951049805 382.56634521484375 -7.9803385734558105 359.3629455566406 80.5406723022461 349.29254150390625 C 100.31037139892578 402.9024658203125 95.88314056396484 377.45587158203125 22.647367477416992 406.7989501953125" stroke-width="0.0" fill="rgb(182, 158, 39)" opacity="0.009725733" stroke="rgb(0, 0, 0)" stroke-opacity="1.0" stroke-linecap="round" stroke-linejoin="round"/>
    <path d="M 337.13616943359375 419.7003173828125 C 317.039794921875 435.6117858886719 255.36477661132812 476.3561706542969 260.191162109375 417.93731689453125 C 322.3692932128906 394.17279052734375 319.0449523925781 406.3562927246094 313.00299072265625 372.02874755859375 C 309.8340759277344 400.9535217285156 281.5028381347656 396.8785095214844 326.1223449707031 390.80072021484375 C 335.4227600097656 359.6849365234375 345.759521484375 379.2861328125 337.13616943359375 419.7003173828125" stroke-width="0.0" fill="rgb(9, 16, 0)" opacity="0.96601325" stroke="rgb(0, 0, 0)" stroke-opacity="1.0" stroke-linecap="round" stroke-linejoin="round"/>
    <path d="M 425.22564697265625 66.62458038330078 C 412.8492736816406 83.78803253173828 455.12945556640625 67.45945739746094 411.75579833984375 117.3759536743164 C 398.7424011230469 151.76832580566406 388.25531005859375 128.41058349609375 379.0445861816406 144.75148010253906 C 420.1130676269531 141.26219177246094 417.0599670410156 107.58204650878906 416.7152404785156 102.48540496826172 C 379.6914978027344 122.23015594482422 418.4967956542969 78.37777709960938 425.22564697265625 66.62458038330078" stroke-width="0.0" fill="rgb(66, 171, 76)" opacity="0.89781034" stroke="rgb(0, 0, 0)" stroke-opacity="1.0" stroke-linecap="round" stroke-linejoin="round"/>
    <path d="M 192.19007873535156 102.6764907836914 C 230.66175842285156 103.6185073852539 242.6080322265625 123.7956771850586 190.2920379638672 149.31272888183594 C 176.72003173828125 115.94639587402344 173.71824645996094 106.28726959228516 134.15684509277344 79.49304962158203 C 100.8556900024414 31.218645095825195 146.30946350097656 54.43431854248047 174.09803771972656 80.79459381103516 C 194.96905517578125 91.25251770019531 214.62770080566406 106.28300476074219 192.19007873535156 102.6764907836914" stroke-width="0.0" fill="rgb(0, 0, 18)" opacity="1.0" stroke="rgb(0, 0, 0)" stroke-opacity="1.0" stroke-linecap="round" stroke-linejoin="round"/>
    <path d="M 542.9619140625 451.07098388671875 C 536.495361328125 469.7117614746094 515.8485717773438 452.5787048339844 517.369873046875 462.7549133300781 C 514.1419067382812 465.72149658203125 491.6813659667969 459.9039611816406 489.4858703613281 440.80145263671875 C 485.6337585449219 429.1748046875 505.791748046875 429.3731689453125 534.0956420898438 424.9555969238281 C 524.2904663085938 425.6336975097656 529.3707275390625 430.8746337890625 542.9619140625 451.07098388671875" stroke-width="0.0" fill="rgb(213, 135, 108)" opacity="0.10788511" stroke="rgb(0, 0, 0)" stroke-opacity="1.0" stroke-linecap="round" stroke-linejoin="round"/>
    <path d="M 378.5750732421875 234.25608825683594 C 402.6544189453125 253.0124969482422 388.7073669433594 295.2415466308594 364.0806884765625 272.0801086425781 C 379.6499938964844 232.381103515625 355.9300231933594 244.1785888671875 328.6288757324219 230.8531494140625 C 379.836181640625 238.18833923339844 375.55902099609375 237.65000915527344 368.6330261230469 261.467041015625 C 365.4050598144531 254.23069763183594 353.6791076660156 229.92381286621094 378.5750732421875 234.25608825683594" stroke-width="0.0" fill="rgb(6, 0, 39)" opacity="1.0" stroke="rgb(0, 0, 0)" stroke-opacity="1.0" stroke-linecap="round" stroke-linejoin="round"/>
    <path d="M 443.6749572753906 364.18853759765625 C 477.19384765625 413.17144775390625 474.33135986328125 414.690673828125 438.6437683105469 472.4978942871094 C 404.3733825683594 458.4329833984375 392.9383850097656 451.4322814941406 375.1450500488281 396.4532165527344 C 386.7449035644531 328.7658386230469 484.52789306640625 288.0476379394531 514.7675170898438 304.4632873535156 C 531.1914672851562 345.40545654296875 516.0598754882812 328.3852233886719 443.6749572753906 364.18853759765625" stroke-width="0.0" fill="rgb(251, 192, 149)" opacity="0.8583492" stroke="rgb(0, 0, 0)" stroke-opacity="1.0" stroke-linecap="round" stroke-linejoin="round"/>
    <path d="M 175.0116424560547 428.0857849121094 C 179.5441131591797 417.37103271484375 192.98397827148438 417.9219055175781 191.36875915527344 422.93475341796875 C 153.5074462890625 418.0027160644531 161.66555786132812 420.5783996582031 156.2329559326172 434.0928039550781 C 165.6880645751953 418.660400390625 172.76522827148438 410.334228515625 165.58094787597656 415.6446533203125 C 169.5238037109375 416.99493408203125 168.3081512451172 421.6990661621094 175.0116424560547 428.0857849121094" stroke-width="0.0" fill="rgb(155, 205, 172)" opacity="0.21917464" stroke="rgb(0, 0, 0)" stroke-opacity="1.0" stroke-linecap="round" stroke-linejoin="round"/>
    <path d="M 414.8938903808594 380.3404235839844 C 420.9808044433594 412.2190246582031 412.4728088378906 416.9234924316406 429.1470031738281 415.001220703125 C 394.8590393066406 415.28021240234375 403.8180847167969 385.7675476074219 394.515625 366.1745300292969 C 379.0448913574219 316.94830322265625 353.947021484375 296.75494384765625 405.95709228515625 339.11834716796875 C 470.87091064453125 333.78338623046875 427.86614990234375 332.6221008300781 414.8938903808594 380.3404235839844" stroke-width="0.0" fill="rgb(217, 165, 162)" opacity="0.90722424" stroke="rgb(0, 0, 0)" stroke-opacity="1.0" stroke-linecap="round" stroke-linejoin="round"/>
    <path d="M 127.48265075683594 109.13048553466797 C 159.25662231445312 135.33128356933594 157.69944763183594 117.46800994873047 147.20980834960938 124.14131164550781 C 113.66055297851562 108.40177154541016 106.10889434814453 92.20875549316406 83.37588500976562 90.10198211669922 C 73.85360717773438 55.07861328125 84.87496185302734 62.38713073730469 105.67949676513672 64.99768829345703 C 119.4557876586914 76.47285461425781 111.33695220947266 96.95886993408203 127.48265075683594 109.13048553466797" stroke-width="0.0" fill="rgb(36, 224, 0)" opacity="0.93016684" stroke="rgb(0, 0, 0)" stroke-opacity="1.0" stroke-linecap="round" stroke-linejoin="round"/>
    <path d="M 354.28839111328125 408.34271240234375 C 309.0425720214844 422.2432861328125 331.2882995605469 395.7055969238281 318.39794921875 394.4337463378906 C 343.59881591796875 420.8037109375 358.0568542480469 402.78851318359375 342.67095947265625 311.21307373046875 C 322.7723083496094 313.5981750488281 292.40240478515625 369.2647399902344 300.9432373046875 385.9453430175781 C 317.125732421875 398.3330078125 335.5510559082031 390.2989501953125 354.28839111328125 408.34271240234375" stroke-width="0.0" fill="rgb(0, 0, 23)" opacity="0.98970777" stroke="rgb(0, 0, 0)" stroke-opacity="1.0" stroke-linecap="round" stroke-linejoin="round"/>
    <path d="M 133.79420471191406 311.8717041015625 C 126.86528778076172 367.1662902832031 116.14486694335938 400.47918701171875 97.05917358398438 412.2339172363281 C 91.5076675415039 386.7527160644531 82.9702377319336 367.254150390625 69.6663589477539 324.1021423339844 C 41.618675231933594 380.7747802734375 65.54450225830078 383.739013671875 123.552001953125 367.2039489746094 C 92.47494506835938 390.9696350097656 96.227783203125 372.66998291015625 133.79420471191406 311.8717041015625" stroke-width="0.0" fill="rgb(204, 206, 36)" opacity="0.8238632" stroke="rgb(0, 0, 0)" stroke-opacity="1.0" stroke-linecap="round" stroke-linejoin="round"/>
    <path d="M 284.8779296875 74.66445922851562 C 255.56021118164062 157.4176788330078 267.6377258300781 224.816650390625 256.553466796875 211.0303497314453 C 240.02572631835938 127.5844497680664 244.92922973632812 94.57039642333984 259.6148681640625 142.84243774414062 C 257.89984130859375 167.29412841796875 242.2998046875 120.01469421386719 205.89088439941406 44.90167999267578 C 236.33407592773438 25.83968162536621 321.70654296875 11.922508239746094 284.8779296875 74.66445922851562" stroke-width="0.0" fill="rgb(0, 0, 5)" opacity="1.0" stroke="rgb(0, 0, 0)" stroke-opacity="1.0" stroke-linecap="round" stroke-linejoin="round"/>
    <path d="M 424.61163330078125 94.60466766357422 C 438.501953125 70.11139678955078 430.18658447265625 80.10269165039062 434.6058044433594 74.44294738769531 C 444.740234375 69.08363342285156 422.44366455078125 82.98836517333984 439.600830078125 57.07194519042969 C 422.0995788574219 74.4578628540039 425.3787536621094 74.30204010009766 438.38446044921875 68.761962890625 C 439.21746826171875 61.90858840942383 435.66448974609375 105.94866180419922 424.61163330078125 94.60466766357422" stroke-width="0.0" fill="rgb(100, 146, 101)" opacity="0.5763212" stroke="rgb(0, 0, 0)" stroke-opacity="1.0" stroke-linecap="round" stroke-linejoin="round"/>
    <path d="M 134.41455078125 132.31826782226562 C 110.6038818359375 146.9961395263672 90.25137329101562 152.46597290039062 102.72706604003906 153.2953338623047 C 85.75829315185547 144.9337921142578 78.0172348022461 139.2638397216797 78.71514892578125 118.82807159423828 C 66.54244995117188 110.5105972290039 66.67752838134766 82.25245666503906 79.0077133178711 81.59724426269531 C 146.29803466796875 97.93231964111328 165.74603271484375 129.4027099609375 134.41455078125 132.31826782226562" stroke-width="0.0" fill="rgb(19, 142, 0)" opacity="0.99387765" stroke="rgb(0, 0, 0)" stroke-opacity="1.0" stroke-linecap="round" stroke-linejoin="round"/>
    <path d="M 567.83642578125 471.34442138671875 C 520.4595336914062 517.4486083984375 511.7738037109375 524.1069946289062 459.7604675292969 550.7378540039062 C 428.5230407714844 533.7899780273438 412.3729248046875 526.68310546875 439.16888427734375 483.2171630859375 C 464.0640563964844 481.18310546875 482.4022216796875 482.601318359375 503.6047058105469 437.1737976074219 C 560.8871459960938 463.51190185546875 572.10791015625 461.328857421875 567.83642578125 471.34442138671875" stroke-width="0.0" fill="rgb(160, 53, 1)" opacity="0.9836217" stroke="rgb(0, 0, 0)" stroke-opacity="1.0" stroke-linecap="round" stroke-linejoin="round"/>
    <path d="M 264.7984924316406 291.03118896484375 C 294.74835205078125 280.2468566894531 270.47900390625 301.7795104980469 253.49266052246094 337.6041564941406 C 253.43472290039062 302.5536804199219 201.78964233398438 305.52825927734375 194.40557861328125 286.9131774902344 C 328.29815673828125 280.86358642578125 352.2183837890625 278.1232604980469 271.8109130859375 308.9275207519531 C 243.84164428710938 308.9316711425781 236.23880004882812 314.0751037597656 264.7984924316406 291.03118896484375" stroke-width="0.0" fill="rgb(0, 0, 6)" opacity="1.0" stroke="rgb(0, 0, 0)" stroke-opacity="1.0" stroke-linecap="round" stroke-linejoin="round"/>
    <path d="M 437.9045104980469 125.94334411621094 C 432.0989990234375 138.23143005371094 419.04742431640625 151.48489379882812 447.0157165527344 232.11964416503906 C 362.8519287109375 218.2447509765625 366.32659912109375 174.38644409179688 386.0716247558594 151.43588256835938 C 436.19091796875 181.94508361816406 429.63616943359375 193.11712646484375 436.6870422363281 147.57318115234375 C 447.10845947265625 146.80982971191406 428.7812805175781 149.37393188476562 437.9045104980469 125.94334411621094" stroke-width="0.0" fill="rgb(0, 0, 9)" opacity="1.0" stroke="rgb(0, 0, 0)" stroke-opacity="1.0" stroke-linecap="round" stroke-linejoin="round"/>
    <path d="M 470.4947814941406 484.87286376953125 C 466.0362854003906 515.1694946289062 461.2010192871094 521.924072265625 434.2658996582031 547.5040893554688 C 422.7613525390625 534.5831909179688 428.1749267578125 516.0270385742188 429.6671142578125 500.42218017578125 C 435.7066955566406 493.52923583984375 432.6771545410156 489.0436096191406 432.02386474609375 479.043701171875 C 442.992431640625 461.240478515625 439.4453430175781 481.01116943359375 470.4947814941406 484.87286376953125" stroke-width="0.0" fill="rgb(201, 94, 90)" opacity="0.8900809" stroke="rgb(0, 0, 0)" stroke-opacity="1.0" stroke-linecap="round" stroke-linejoin="round"/>
    <path d="M 472.40478515625 -18.991451263427734 C 471.6215515136719 -2.7362403869628906 470.9092102050781 17.1718807220459 457.5084228515625 12.850536346435547 C 466.58880615234375 8.314533233642578 442.5378112792969 12.230857849121094 434.134033203125 23.444868087768555 C 469.95416259765625 12.69864273071289 486.5279235839844 11.417611122131348 481.7121887207031 -5.446685791015625 C 474.8860168457031 -14.387734413146973 486.1815185546875 -6.34412956237793 472.40478515625 -18.991451263427734" stroke-width="0.0" fill="rgb(89, 128, 0)" opacity="0.0" stroke="rgb(0, 0, 0)" stroke-opacity="1.0" stroke-linecap="round" stroke-linejoin="round"/>
    <path d="M 188.07920837402344 267.259765625 C 195.24742126464844 264.73223876953125 194.4960174560547 282.1045837402344 190.03929138183594 295.5353088378906 C 137.68643188476562 283.712890625 146.16026306152344 279.859619140625 151.23788452148438 221.05372619628906 C 189.40499877929688 224.2075958251953 179.6065216064453 243.31838989257812 171.2825927734375 240.1507110595703 C 187.7882080078125 248.2615203857422 185.8790283203125 240.07650756835938 188.07920837402344 267.259765625" stroke-width="0.0" fill="rgb(255, 253, 245)" opacity="1.0" stroke="rgb(0, 0, 0)" stroke-opacity="1.0" stroke-linecap="round" stroke-linejoin="round"/>
    <path d="M 171.63754272460938 417.4154052734375 C 163.0462188720703 430.5838928222656 192.73866271972656 436.1758728027344 228.4942169189453 490.4575500488281 C 166.45425415039062 490.253173828125 174.09719848632812 460.07684326171875 175.3061981201172 412.2228698730469 C 169.17568969726562 434.8516845703125 178.71270751953125 432.2279968261719 160.849365234375 414.64520263671875 C 170.94798278808594 414.2439270019531 181.4444122314453 413.8988037109375 171.63754272460938 417.4154052734375" stroke-width="0.0" fill="rgb(223, 201, 208)" opacity="0.019945933" stroke="rgb(0, 0, 0)" stroke-opacity="1.0" stroke-linecap="round" stroke-linejoin="round"/>
    <path d="M 207.2519073486328 233.11581420898438 C 219.97198486328125 251.4031219482422 209.6878204345703 258.30267333984375 187.5623016357422 287.15948486328125 C 165.0637664794922 285.0927734375 138.85476684570312 221.59030151367188 153.27503967285156 207.55751037597656 C 187.2356719970703 209.47882080078125 182.8985595703125 210.453125 200.3531494140625 223.97813415527344 C 208.26278686523438 232.6979522705078 201.82400512695312 225.35458374023438 207.2519073486328 233.11581420898438" stroke-width="0.0" fill="rgb(255, 254, 249)" opacity="1.0" stroke="rgb(0, 0, 0)" stroke-opacity="1.0" stroke-linecap="round" stroke-linejoin="round"/>
    <path d="M 202.49810791015625 355.21063232421875 C 190.00926208496094 354.8382568359375 156.36434936523438 351.98162841796875 135.21224975585938 356.1726379394531 C 156.1315460205078 372.41534423828125 155.1115264892578 360.1530456542969 159.42958068847656 346.2799987792969 C 177.85267639160156 298.5862121582031 199.35223388671875 303.4231262207031 201.9100799560547 364.8953552246094 C 176.3335418701172 371.76251220703125 167.4897918701172 335.1725769042969 202.49810791015625 355.21063232421875" stroke-width="0.0" fill="rgb(0, 0, 5)" opacity="1.0" stroke="rgb(0, 0, 0)" stroke-opacity="1.0" stroke-linecap="round" stroke-linejoin="round"/>
    <path d="M 76.51229095458984 440.6892395019531 C 86.14253234863281 445.6429443359375 71.90563201904297 457.2701721191406 67.07279968261719 452.3388671875 C 67.19801330566406 452.5972595214844 57.407161712646484 446.03009033203125 62.75112533569336 439.38427734375 C 57.98180389404297 442.8896179199219 58.69916534423828 434.1726379394531 56.08958435058594 426.505126953125 C 70.75196838378906 427.5799560546875 75.1019515991211 440.4165344238281 76.51229095458984 440.6892395019531" stroke-width="0.0" fill="rgb(241, 248, 248)" opacity="0.005728046" stroke="rgb(0, 0, 0)" stroke-opacity="1.0" stroke-linecap="round" stroke-linejoin="round"/>
    <path d="M 462.23828125 409.45953369140625 C 459.5166015625 471.70050048828125 462.50469970703125 491.9830322265625 454.8541564941406 470.1513366699219 C 437.77667236328125 473.3574523925781 432.2356262207031 481.4506530761719 430.63262939453125 468.9513854980469 C 432.29388427734375 475.5018005371094 456.1527099609375 447.45501708984375 478.068115234375 452.4057312011719 C 469.60076904296875 468.61724853515625 434.1798095703125 459.48529052734375 462.23828125 409.45953369140625" stroke-width="0.0" fill="rgb(191, 204, 53)" opacity="0.066813596" stroke="rgb(0, 0, 0)" stroke-opacity="1.0" stroke-linecap="round" stroke-linejoin="round"/>
    <path d="M 437.712890625 388.096435546875 C 479.82427978515625 377.98419189453125 473.2980041503906 389.6077575683594 452.0049133300781 383.2857666015625 C 423.6582336425781 382.0646057128906 421.0477294921875 374.70794677734375 415.9174499511719 370.29010009765625 C 423.4911193847656 354.996337890625 427.5947265625 347.9288330078125 434.5478210449219 342.8325500488281 C 417.6342468261719 344.25909423828125 420.9197998046875 370.508056640625 437.712890625 388.096435546875" stroke-width="0.0" fill="rgb(164, 209, 174)" opacity="0.024711335" stroke="rgb(0, 0, 0)" stroke-opacity="1.0" stroke-linecap="round" stroke-linejoin="round"/>
    <path d="M 41.895233154296875 118.33193969726562 C 49.519405364990234 134.07069396972656 63.50379943847656 194.0279083251953 5.081467628479004 215.37969970703125 C -12.725204467773438 159.1598358154297 0.11077778786420822 125.21292114257812 -13.077251434326172 122.15969848632812 C -26.450559616088867 70.87200927734375 -21.411380767822266 59.256813049316406 37.10222625732422 82.41629028320312 C 42.23389434814453 73.61375427246094 37.78203201293945 82.55777740478516 41.895233154296875 118.33193969726562" stroke-width="0.0" fill="rgb(138, 76, 92)" opacity="0.2726309" stroke="rgb(0, 0, 0)" stroke-opacity="1.0" stroke-linecap="round" stroke-linejoin="round"/>
    <path d="M 169.90255737304688 510.9063415527344 C 60.7989501953125 537.02978515625 39.34627914428711 537.741943359375 -26.281709671020508 506.9159851074219 C 36.978965759277344 455.46099853515625 43.74658966064453 456.8017883300781 37.00176239013672 486.1556396484375 C -13.555392265319824 499.3923034667969 -11.150467872619629 486.7546081542969 -30.450937271118164 366.7775573730469 C 116.78226470947266 343.0686340332031 173.96823120117188 353.2049560546875 169.90255737304688 510.9063415527344" stroke-width="0.0" fill="rgb(176, 150, 139)" opacity="0.15267533" stroke="rgb(0, 0, 0)" stroke-opacity="1.0" stroke-linecap="round" stroke-linejoin="round"/>
    <path d="M 129.3549346923828 238.89077758789062 C 112.32891082763672 253.0000457763672 114.60968017578125 256.5269470214844 119.30484008789062 261.4065246582031 C 128.67050170898438 252.84669494628906 101.62344360351562 258.65899658203125 106.08415222167969 228.1681671142578 C 131.20236206054688 202.1884765625 122.62886047363281 209.7466583251953 151.54603576660156 201.80125427246094 C 188.2713165283203 225.7147979736328 171.28367614746094 229.13995361328125 129.3549346923828 238.89077758789062" stroke-width="0.0" fill="rgb(255, 255, 255)" opacity="0.9893676" stroke="rgb(0, 0, 0)" stroke-opacity="1.0" stroke-linecap="round" stroke-linejoin="round"/>
    <path d="M 333.4604797363281 1.5755810737609863 C 315.1163330078125 54.96343231201172 314.2268981933594 66.93013000488281 275.8956604003906 62.595664978027344 C 216.10987854003906 92.56048583984375 198.86988830566406 104.62391662597656 203.8482208251953 37.9440803527832 C 220.13241577148438 -9.994511604309082 272.3338928222656 4.873196601867676 283.6625061035156 -9.443852424621582 C 276.0709533691406 -7.487905502319336 296.9581298828125 -14.837367057800293 333.4604797363281 1.5755810737609863" stroke-width="0.0" fill="rgb(2, 0, 4)" opacity="0.7635821" stroke="rgb(0, 0, 0)" stroke-opacity="1.0" stroke-linecap="round" stroke-linejoin="round"/>
    <path d="M 143.47935485839844 174.4551544189453 C 135.8931884765625 157.89080810546875 123.84501647949219 172.5359344482422 117.62898254394531 178.41075134277344 C 122.12351989746094 186.05062866210938 116.17623901367188 166.43814086914062 101.59151458740234 162.58421325683594 C 129.6388397216797 178.60040283203125 137.10585021972656 171.51589965820312 160.0935516357422 165.632080078125 C 159.4744110107422 139.40267944335938 153.32708740234375 149.0062255859375 143.47935485839844 174.4551544189453" stroke-width="0.0" fill="rgb(97, 129, 129)" opacity="0.0" stroke="rgb(0, 0, 0)" stroke-opacity="1.0" stroke-linecap="round" stroke-linejoin="round"/>
    <path d="M 497.5918884277344 249.72860717773438 C 442.35369873046875 244.52554321289062 445.196533203125 242.384033203125 443.8323974609375 267.6031494140625 C 430.0672302246094 265.0674743652344 439.90704345703125 268.8379821777344 435.20782470703125 253.97340393066406 C 405.14398193359375 250.6864471435547 435.6958312988281 248.5003204345703 461.636962890625 248.00949096679688 C 477.4299621582031 231.95809936523438 503.7132263183594 226.65695190429688 497.5918884277344 249.72860717773438" stroke-width="0.0" fill="rgb(6, 0, 15)" opacity="0.6486573" stroke="rgb(0, 0, 0)" stroke-opacity="1.0" stroke-linecap="round" stroke-linejoin="round"/>
    <path d="M 385.8548278808594 376.86004638671875 C 392.7330017089844 411.7417297363281 371.1620178222656 398.6922912597656 373.95721435546875 404.41845703125 C 325.4839782714844 399.2905578613281 314.6380310058594 398.16162109375 305.019775390625 427.7449645996094 C 346.9490051269531 435.8892822265625 351.7460632324219 402.31427001953125 338.7731628417969 381.3639831542969 C 342.9952087402344 397.9267272949219 368.4211120605469 380.0587158203125 385.8548278808594 376.86004638671875" stroke-width="0.0" fill="rgb(0, 0, 0)" opacity="0.056519378" stroke="rgb(0, 0, 0)" stroke-opacity="1.0" stroke-linecap="round" stroke-linejoin="round"/>
    <path d="M 381.1830749511719 193.5636749267578 C 377.8782043457031 219.9620361328125 347.5806884765625 201.2482452392578 348.2245178222656 211.77207946777344 C 362.248779296875 206.015625 349.2663879394531 200.80850219726562 343.7099304199219 202.95401000976562 C 339.67218017578125 196.56690979003906 349.12017822265625 187.07923889160156 345.76446533203125 200.07974243164062 C 340.8614807128906 188.0805206298828 361.619140625 190.91885375976562 381.1830749511719 193.5636749267578" stroke-width="0.0" fill="rgb(255, 255, 255)" opacity="0.009582376" stroke="rgb(0, 0, 0)" stroke-opacity="1.0" stroke-linecap="round" stroke-linejoin="round"/>
    <path d="M 105.44969177246094 471.6868896484375 C 115.12384796142578 462.74383544921875 118.75012969970703 477.3419189453125 95.26615905761719 511.8549499511719 C 70.92108154296875 471.5799255371094 62.655052185058594 453.8624572753906 46.541343688964844 452.63189697265625 C 59.0981330871582 419.7322998046875 86.12884521484375 413.6394958496094 86.9552001953125 443.0264892578125 C 93.15267944335938 442.6691589355469 99.4530258178711 446.22491455078125 105.44969177246094 471.6868896484375" stroke-width="0.0" fill="rgb(247, 215, 230)" opacity="0.020624377" stroke="rgb(0, 0, 0)" stroke-opacity="1.0" stroke-linecap="round" stroke-linejoin="round"/>
    <path d="M 81.89985656738281 464.7513427734375 C 103.05174255371094 479.2279357910156 95.04461669921875 490.8191833496094 54.82760238647461 501.317138671875 C 47.747257232666016 479.59588623046875 46.00135803222656 463.59710693359375 55.33277893066406 415.62994384765625 C 63.4088020324707 440.2081604003906 69.15816497802734 450.1795349121094 58.05747985839844 446.9714660644531 C 73.2734603881836 427.6967468261719 72.0976333618164 446.36376953125 81.89985656738281 464.7513427734375" stroke-width="0.0" fill="rgb(236, 207, 229)" opacity="0.022278968" stroke="rgb(0, 0, 0)" stroke-opacity="1.0" stroke-linecap="round" stroke-linejoin="round"/>
  </g>
</svg>
