<?xml version="1.0" ?>
<svg xmlns="http://www.w3.org/2000/svg" version="1.1" width="512" height="512">
  <defs/>
  <g>
    <path d="M 556.5726318359375 431.7158203125 C 548.7020874023438 518.369873046875 549.9697875976562 525.8068237304688 337.6517639160156 520.6294555664062 C 222.1779327392578 511.58074951171875 158.7071075439453 491.8023986816406 283.38836669921875 454.0854187011719 C 498.7825927734375 454.9474792480469 345.3675842285156 356.11083984375 350.1103820800781 263.30889892578125 C 576.0281982421875 271.43115234375 575.8942260742188 298.45831298828125 556.5726318359375 431.7158203125" stroke-width="0.0" fill="rgb(240, 254, 3)" opacity="0.8482964" stroke="rgb(0, 0, 0)" stroke-opacity="1.0" stroke-linecap="round" stroke-linejoin="round"/>
    <path d="M 185.2190399169922 378.9797058105469 C 256.07952880859375 511.5188293457031 380.8865051269531 429.03179931640625 267.94677734375 458.3721008300781 C -53.30943298339844 525.6798095703125 -38.006080627441406 538.0302734375 -24.507043838500977 496.1575622558594 C 7.609585285186768 200.31936645507812 9.123852729797363 190.91488647460938 48.10334014892578 280.6120910644531 C 165.73033142089844 263.7874450683594 106.92578887939453 279.244140625 185.2190399169922 378.9797058105469" stroke-width="0.0" fill="rgb(0, 4, 12)" opacity="1.0" stroke="rgb(0, 0, 0)" stroke-opacity="1.0" stroke-linecap="round" stroke-linejoin="round"/>
    <path d="M 147.6397247314453 290.4070739746094 C 176.16085815429688 421.1372375488281 134.67059326171875 350.00341796875 112.57156372070312 285.1871337890625 C -48.03495788574219 255.15933227539062 -40.59239196777344 319.4906005859375 -20.140378952026367 171.07884216308594 C 1.8247764110565186 150.35084533691406 15.253403663635254 161.51002502441406 114.65973663330078 124.27877044677734 C 112.82081604003906 92.36886596679688 130.8202667236328 188.37060546875 147.6397247314453 290.4070739746094" stroke-width="0.0" fill="rgb(0, 0, 17)" opacity="1.0" stroke="rgb(0, 0, 0)" stroke-opacity="1.0" stroke-linecap="round" stroke-linejoin="round"/>
    <path d="M 271.270263671875 73.86302947998047 C 13.655756950378418 53.054256439208984 83.95079040527344 162.51564025878906 82.26946258544922 127.47178649902344 C -4.1719889640808105 247.44869995117188 -10.513898849487305 264.6005859375 -15.5795316696167 109.44900512695312 C -23.423120498657227 -24.59490966796875 -16.20713996887207 -28.5397891998291 187.9137420654297 -33.63459014892578 C 278.4442443847656 -63.6128044128418 292.3898010253906 -68.79621124267578 271.270263671875 73.86302947998047" stroke-width="0.0" fill="rgb(7, 46, 62)" opacity="0.9757039" stroke="rgb(0, 0, 0)" stroke-opacity="1.0" stroke-linecap="round" stroke-linejoin="round"/>
    <path d="M 546.402099609375 69.97188568115234 C 428.8135070800781 278.02874755859375 434.99346923828125 294.15057373046875 323.5694885253906 345.5346984863281 C 161.04168701171875 387.7583312988281 289.8806457519531 309.8866271972656 221.35525512695312 148.87184143066406 C 309.041015625 -25.935056686401367 252.5802001953125 -26.131134033203125 351.1625061035156 -45.71184539794922 C 563.2000122070312 0.6587138175964355 563.2000122070312 11.063444137573242 546.402099609375 69.97188568115234" stroke-width="0.0" fill="rgb(198, 252, 19)" opacity="0.74000657" stroke="rgb(0, 0, 0)" stroke-opacity="1.0" stroke-linecap="round" stroke-linejoin="round"/>
    <path d="M 328.8173828125 73.82035827636719 C 277.46270751953125 325.7746276855469 116.74820709228516 433.0103454589844 138.42735290527344 295.5465393066406 C 191.90965270996094 200.52569580078125 158.54632568359375 144.3923797607422 8.826820373535156 104.28549194335938 C 52.2074089050293 109.82743072509766 77.4996566772461 38.44134521484375 194.1396484375 82.78710174560547 C 318.4229736328125 120.53968048095703 284.80816650390625 56.246334075927734 328.8173828125 73.82035827636719" stroke-width="0.0" fill="rgb(1, 18, 33)" opacity="0.984245" stroke="rgb(0, 0, 0)" stroke-opacity="1.0" stroke-linecap="round" stroke-linejoin="round"/>
    <path d="M 443.9126892089844 385.39935302734375 C 349.0317077636719 503.29754638671875 490.3636474609375 283.07769775390625 356.7333984375 303.62158203125 C 350.5543518066406 284.40960693359375 455.9433288574219 415.4539489746094 200.94384765625 474.6907043457031 C 132.6852264404297 224.77984619140625 229.89352416992188 161.1354217529297 258.08197021484375 331.3799133300781 C 402.8601989746094 243.2065887451172 441.9389343261719 189.24996948242188 443.9126892089844 385.39935302734375" stroke-width="0.0" fill="rgb(0, 37, 29)" opacity="0.9714884" stroke="rgb(0, 0, 0)" stroke-opacity="1.0" stroke-linecap="round" stroke-linejoin="round"/>
    <path d="M 534.8027954101562 150.4931640625 C 543.6019897460938 320.09478759765625 563.1994018554688 343.2150573730469 528.0629272460938 284.7184143066406 C 380.25653076171875 279.28369140625 338.9896545410156 339.08050537109375 390.0832824707031 271.4708557128906 C 281.8385314941406 176.2739715576172 414.29241943359375 184.39382934570312 557.5892944335938 107.0239486694336 C 563.2000122070312 68.05618286132812 563.2000122070312 90.89309692382812 534.8027954101562 150.4931640625" stroke-width="0.0" fill="rgb(48, 255, 96)" opacity="0.81706846" stroke="rgb(0, 0, 0)" stroke-opacity="1.0" stroke-linecap="round" stroke-linejoin="round"/>
    <path d="M 262.9898681640625 191.59271240234375 C 315.3288879394531 272.0050354003906 306.6824951171875 262.3763732910156 294.3123779296875 253.52305603027344 C 237.4959716796875 232.99253845214844 242.5197296142578 263.6497497558594 251.68978881835938 250.36631774902344 C 288.9938659667969 243.86680603027344 277.2289123535156 222.3892059326172 283.27020263671875 310.9856262207031 C 293.53704833984375 239.92059326171875 282.817138671875 226.88917541503906 262.9898681640625 191.59271240234375" stroke-width="0.0" fill="rgb(89, 116, 26)" opacity="0.4255959" stroke="rgb(0, 0, 0)" stroke-opacity="1.0" stroke-linecap="round" stroke-linejoin="round"/>
    <path d="M 246.60537719726562 80.26378631591797 C 102.35962677001953 37.28644561767578 -0.5041354894638062 152.53939819335938 127.0003662109375 188.571533203125 C 239.0016326904297 325.07415771484375 9.308778762817383 361.6390075683594 -27.349441528320312 248.19961547851562 C -41.10822296142578 -21.178638458251953 -33.30803680419922 -31.368608474731445 131.08700561523438 -59.683048248291016 C 263.28680419921875 -40.390625 348.8213195800781 43.7313346862793 246.60537719726562 80.26378631591797" stroke-width="0.0" fill="rgb(212, 255, 63)" opacity="1.0" stroke="rgb(0, 0, 0)" stroke-opacity="1.0" stroke-linecap="round" stroke-linejoin="round"/>
    <path d="M 513.16552734375 244.072265625 C 467.91162109375 230.49658203125 395.4818115234375 298.763916015625 433.2148132324219 304.0950622558594 C 257.4534912109375 330.1859436035156 489.5142822265625 304.9671936035156 302.1765441894531 282.7720031738281 C 433.84515380859375 184.6936492919922 366.12542724609375 86.6001968383789 384.1618957519531 140.09686279296875 C 318.75054931640625 313.22509765625 344.48095703125 295.5066223144531 513.16552734375 244.072265625" stroke-width="0.0" fill="rgb(106, 32, 37)" opacity="0.9290752" stroke="rgb(0, 0, 0)" stroke-opacity="1.0" stroke-linecap="round" stroke-linejoin="round"/>
    <path d="M 449.9250793457031 -8.867953300476074 C 376.7414855957031 231.41041564941406 296.5012512207031 194.27261352539062 270.4547119140625 226.7030487060547 C 255.52169799804688 209.52578735351562 313.94512939453125 196.7910919189453 315.8431091308594 140.92710876464844 C 274.7192077636719 145.21371459960938 291.71533203125 111.98340606689453 226.65444946289062 93.10533905029297 C 172.75265502929688 39.31460952758789 262.28448486328125 -37.828948974609375 449.9250793457031 -8.867953300476074" stroke-width="0.0" fill="rgb(196, 247, 17)" opacity="0.89970046" stroke="rgb(0, 0, 0)" stroke-opacity="1.0" stroke-linecap="round" stroke-linejoin="round"/>
    <path d="M 259.7206726074219 417.4927978515625 C 532.96337890625 406.0950622558594 292.9476013183594 528.7081909179688 199.736572265625 412.302001953125 C 263.82135009765625 435.03851318359375 209.5361328125 392.3179016113281 164.78701782226562 316.20489501953125 C 171.0260009765625 261.034912109375 189.1318359375 492.1526794433594 145.88980102539062 195.8594970703125 C 244.7471160888672 84.50065612792969 56.30141830444336 404.69390869140625 259.7206726074219 417.4927978515625" stroke-width="0.0" fill="rgb(126, 233, 73)" opacity="0.593387" stroke="rgb(0, 0, 0)" stroke-opacity="1.0" stroke-linecap="round" stroke-linejoin="round"/>
    <path d="M 576.6162719726562 162.6481475830078 C 553.8126831054688 452.113037109375 544.1498413085938 476.06793212890625 471.9518127441406 455.9013977050781 C 374.4761657714844 397.9811706542969 446.4677429199219 409.9883728027344 430.4698486328125 323.17803955078125 C 394.8667297363281 184.9649200439453 461.0505065917969 321.4718933105469 433.0658874511719 143.3069305419922 C 475.5362243652344 102.81732940673828 577.8593139648438 107.43292236328125 576.6162719726562 162.6481475830078" stroke-width="0.0" fill="rgb(214, 250, 68)" opacity="0.99476326" stroke="rgb(0, 0, 0)" stroke-opacity="1.0" stroke-linecap="round" stroke-linejoin="round"/>
    <path d="M 549.1526489257812 468.95758056640625 C 529.5440673828125 514.3981323242188 520.1913452148438 527.753662109375 336.26470947265625 557.7840576171875 C 276.67083740234375 481.1486511230469 305.1278076171875 474.69805908203125 356.2350158691406 424.27313232421875 C 402.6595153808594 384.56988525390625 396.8027648925781 356.4805908203125 423.44024658203125 352.7619934082031 C 477.9497985839844 379.7422790527344 504.1744384765625 381.38494873046875 549.1526489257812 468.95758056640625" stroke-width="0.0" fill="rgb(217, 255, 76)" opacity="1.0" stroke="rgb(0, 0, 0)" stroke-opacity="1.0" stroke-linecap="round" stroke-linejoin="round"/>
    <path d="M 347.2372741699219 274.8838195800781 C 407.41656494140625 271.22955322265625 285.5552062988281 273.16754150390625 347.7026062011719 333.24395751953125 C 330.2784423828125 435.8929443359375 199.7873077392578 427.8162536621094 222.31439208984375 336.84039306640625 C 185.4636688232422 319.331298828125 154.7376251220703 315.7712707519531 214.93894958496094 298.2987060546875 C 196.8203125 405.5270080566406 315.48773193359375 418.6424255371094 347.2372741699219 274.8838195800781" stroke-width="0.0" fill="rgb(13, 100, 18)" opacity="0.07331982" stroke="rgb(0, 0, 0)" stroke-opacity="1.0" stroke-linecap="round" stroke-linejoin="round"/>
    <path d="M 248.92416381835938 288.9607849121094 C 219.71128845214844 344.5449523925781 236.61355590820312 318.743896484375 214.9897918701172 329.71875 C 217.76365661621094 326.2442932128906 199.26292419433594 281.22320556640625 178.7504425048828 301.9495849609375 C 218.04986572265625 293.2628173828125 219.56988525390625 284.4127197265625 233.70697021484375 276.0294494628906 C 257.07208251953125 260.384521484375 251.2306365966797 245.7137908935547 248.92416381835938 288.9607849121094" stroke-width="0.0" fill="rgb(228, 255, 146)" opacity="0.9583831" stroke="rgb(0, 0, 0)" stroke-opacity="1.0" stroke-linecap="round" stroke-linejoin="round"/>
    <path d="M 416.4251403808594 314.27252197265625 C 425.1366271972656 395.4538269042969 343.85107421875 464.8256530761719 320.0048828125 469.8743896484375 C 233.7927703857422 496.6957702636719 145.62693786621094 464.3406066894531 277.2394104003906 450.1219177246094 C 348.69146728515625 454.2361755371094 349.621337890625 398.99163818359375 394.05096435546875 357.33355712890625 C 349.80426025390625 464.2518005371094 471.1688232421875 306.68023681640625 416.4251403808594 314.27252197265625" stroke-width="0.0" fill="rgb(0, 0, 21)" opacity="1.0" stroke="rgb(0, 0, 0)" stroke-opacity="1.0" stroke-linecap="round" stroke-linejoin="round"/>
    <path d="M 266.1754150390625 110.45242309570312 C 279.6498107910156 75.53685760498047 169.1376953125 56.73454666137695 193.44985961914062 67.63884735107422 C 186.0572967529297 65.00872802734375 176.07566833496094 66.04440307617188 180.4216766357422 63.32039260864258 C 182.61297607421875 42.42723846435547 189.18540954589844 65.49593353271484 158.9493865966797 73.4698486328125 C 69.76683044433594 102.30508422851562 218.25393676757812 54.16519546508789 266.1754150390625 110.45242309570312" stroke-width="0.0" fill="rgb(0, 0, 55)" opacity="1.0" stroke="rgb(0, 0, 0)" stroke-opacity="1.0" stroke-linecap="round" stroke-linejoin="round"/>
    <path d="M 267.107421875 478.04925537109375 C 292.99560546875 530.8959350585938 267.7483825683594 549.8146362304688 177.4259490966797 548.192138671875 C -56.031890869140625 527.993896484375 -50.08015060424805 507.4679260253906 -55.50160217285156 425.8699035644531 C -63.78118896484375 309.5019226074219 -82.45760345458984 271.01983642578125 47.53065872192383 264.617431640625 C 154.90933227539062 258.96197509765625 98.43695068359375 461.74102783203125 267.107421875 478.04925537109375" stroke-width="0.0" fill="rgb(217, 255, 75)" opacity="1.0" stroke="rgb(0, 0, 0)" stroke-opacity="1.0" stroke-linecap="round" stroke-linejoin="round"/>
    <path d="M 300.92388916015625 333.78033447265625 C 284.9161682128906 387.6585388183594 252.81297302246094 357.78448486328125 266.2344055175781 348.72113037109375 C 272.8065490722656 355.8679504394531 272.16552734375 354.4217529296875 277.9205627441406 395.8774719238281 C 253.1679229736328 405.9556579589844 182.22023010253906 384.60418701171875 242.78201293945312 259.49365234375 C 265.8641357421875 291.7353210449219 274.09088134765625 346.66986083984375 300.92388916015625 333.78033447265625" stroke-width="0.0" fill="rgb(182, 255, 15)" opacity="1.0" stroke="rgb(0, 0, 0)" stroke-opacity="1.0" stroke-linecap="round" stroke-linejoin="round"/>
    <path d="M 437.6812438964844 164.0297393798828 C 324.87738037109375 87.04118347167969 357.4627685546875 128.82485961914062 336.8173522949219 197.87196350097656 C 339.1064147949219 212.40464782714844 348.55615234375 225.1082763671875 403.59393310546875 220.4073028564453 C 377.1499328613281 235.65916442871094 392.5594787597656 210.86253356933594 354.5652770996094 176.92791748046875 C 370.5557861328125 194.74270629882812 408.9461669921875 142.23951721191406 437.6812438964844 164.0297393798828" stroke-width="0.0" fill="rgb(204, 131, 115)" opacity="0.0" stroke="rgb(0, 0, 0)" stroke-opacity="1.0" stroke-linecap="round" stroke-linejoin="round"/>
    <path d="M 476.93548583984375 243.61019897460938 C 481.95928955078125 239.1688690185547 455.26416015625 347.58978271484375 363.47265625 315.0887756347656 C 449.5907897949219 270.3359680175781 494.82843017578125 200.36373901367188 368.67169189453125 272.1504821777344 C 444.3193359375 228.03207397460938 405.08087158203125 196.3594512939453 488.6340637207031 228.2740020751953 C 491.83721923828125 293.243408203125 406.287109375 248.34750366210938 476.93548583984375 243.61019897460938" stroke-width="0.0" fill="rgb(66, 255, 88)" opacity="0.11527771" stroke="rgb(0, 0, 0)" stroke-opacity="1.0" stroke-linecap="round" stroke-linejoin="round"/>
    <path d="M 129.2038116455078 270.35113525390625 C 140.2616424560547 260.7889099121094 130.34707641601562 313.8906555175781 141.49473571777344 407.5190734863281 C 51.78533172607422 357.7837829589844 27.020599365234375 322.409423828125 -0.3288966119289398 268.279052734375 C 70.13496398925781 261.2403259277344 83.26298522949219 222.20645141601562 97.40680694580078 186.51690673828125 C 111.22794342041016 228.16476440429688 123.53374481201172 304.21795654296875 129.2038116455078 270.35113525390625" stroke-width="0.0" fill="rgb(209, 255, 65)" opacity="1.0" stroke="rgb(0, 0, 0)" stroke-opacity="1.0" stroke-linecap="round" stroke-linejoin="round"/>
    <path d="M 372.5057678222656 255.11636352539062 C 294.9911193847656 303.282470703125 272.1830139160156 237.75318908691406 260.82647705078125 234.45457458496094 C 259.5376892089844 234.1332244873047 248.543701171875 185.99139404296875 290.82879638671875 171.65347290039062 C 294.8956298828125 162.33924865722656 294.04058837890625 182.1102294921875 287.2093811035156 120.52278900146484 C 337.7671203613281 104.8834228515625 424.3104553222656 95.87139892578125 372.5057678222656 255.11636352539062" stroke-width="0.0" fill="rgb(26, 253, 51)" opacity="0.94469607" stroke="rgb(0, 0, 0)" stroke-opacity="1.0" stroke-linecap="round" stroke-linejoin="round"/>
    <path d="M 173.81179809570312 88.6061019897461 C 189.5857391357422 72.86322021484375 199.55088806152344 97.00165557861328 211.80564880371094 97.10760498046875 C 92.11848449707031 59.242897033691406 92.7433853149414 184.20486450195312 101.84698486328125 135.88136291503906 C 161.10775756835938 54.64313888549805 276.67608642578125 100.4647445678711 241.0774383544922 97.08578491210938 C 195.8086700439453 86.22493743896484 195.4863739013672 96.061279296875 173.81179809570312 88.6061019897461" stroke-width="0.0" fill="rgb(51, 196, 98)" opacity="0.17955148" stroke="rgb(0, 0, 0)" stroke-opacity="1.0" stroke-linecap="round" stroke-linejoin="round"/>
    <path d="M 121.65556335449219 115.14466857910156 C 139.0967559814453 163.1881561279297 128.44395446777344 159.88401794433594 143.6958770751953 161.69400024414062 C 164.31707763671875 115.2019271850586 121.6545639038086 101.59828186035156 108.66715240478516 119.55623626708984 C 63.91402816772461 201.37359619140625 103.43195343017578 43.289794921875 243.70559692382812 86.06330108642578 C 78.64506530761719 107.83382415771484 99.03491973876953 125.01773071289062 121.65556335449219 115.14466857910156" stroke-width="0.0" fill="rgb(68, 211, 87)" opacity="0.45241603" stroke="rgb(0, 0, 0)" stroke-opacity="1.0" stroke-linecap="round" stroke-linejoin="round"/>
    <path d="M 284.2654113769531 253.4659423828125 C 258.6747741699219 262.75836181640625 293.8817443847656 279.6151428222656 270.509765625 273.1733093261719 C 220.46148681640625 263.7297058105469 237.3161163330078 244.11782836914062 219.24453735351562 210.96990966796875 C 227.99940490722656 208.28590393066406 263.88311767578125 216.46778869628906 273.9195251464844 225.85940551757812 C 246.64503479003906 245.8607635498047 284.0740051269531 246.462890625 284.2654113769531 253.4659423828125" stroke-width="0.0" fill="rgb(87, 232, 132)" opacity="0.87648404" stroke="rgb(0, 0, 0)" stroke-opacity="1.0" stroke-linecap="round" stroke-linejoin="round"/>
    <path d="M 282.61273193359375 238.80284118652344 C 231.22792053222656 243.8402862548828 195.1289520263672 75.7219009399414 201.27870178222656 149.60601806640625 C 232.34353637695312 205.6704864501953 153.03555297851562 302.9871826171875 106.4234848022461 112.15907287597656 C 171.25869750976562 54.55954360961914 226.87237548828125 117.66596221923828 238.75424194335938 157.80245971679688 C 268.6041564941406 48.92398452758789 210.54376220703125 121.90631866455078 282.61273193359375 238.80284118652344" stroke-width="0.0" fill="rgb(137, 150, 70)" opacity="0.0039838143" stroke="rgb(0, 0, 0)" stroke-opacity="1.0" stroke-linecap="round" stroke-linejoin="round"/>
    <path d="M 387.964599609375 402.4371032714844 C 328.8616638183594 282.3937683105469 266.6333923339844 360.2673645019531 290.6338195800781 380.4023742675781 C 285.5800476074219 375.8301086425781 287.1236267089844 341.46856689453125 304.5536804199219 347.720947265625 C 291.4873962402344 318.9285888671875 287.9164123535156 318.6413269042969 300.3389892578125 394.31744384765625 C 285.2002868652344 311.6214904785156 491.8180236816406 289.1693420410156 387.964599609375 402.4371032714844" stroke-width="0.0" fill="rgb(0, 100, 79)" opacity="0.93849635" stroke="rgb(0, 0, 0)" stroke-opacity="1.0" stroke-linecap="round" stroke-linejoin="round"/>
    <path d="M 7.6602020263671875 523.527099609375 C 16.928863525390625 520.4954833984375 10.451606750488281 527.2847900390625 0.7705464363098145 530.8681030273438 C -9.364206314086914 527.7437133789062 -16.68471336364746 520.4232177734375 -19.53505516052246 510.3761291503906 C -16.513290405273438 500.47222900390625 -9.497283935546875 493.1925964355469 -12.406676292419434 503.4660339355469 C -4.264515399932861 507.9687805175781 3.0665524005889893 515.3460693359375 7.6602020263671875 523.527099609375" stroke-width="0.0" fill="rgb(253, 10, 0)" opacity="0.1198675" stroke="rgb(0, 0, 0)" stroke-opacity="1.0" stroke-linecap="round" stroke-linejoin="round"/>
    <path d="M 160.16229248046875 247.67922973632812 C 177.9045867919922 393.06182861328125 186.5537109375 360.3058776855469 141.89605712890625 289.794921875 C 139.64048767089844 213.38677978515625 131.3480987548828 186.5641632080078 123.2530288696289 178.1942596435547 C 84.28277587890625 100.19187927246094 17.600202560424805 100.2283706665039 127.09934997558594 81.83199310302734 C 152.923583984375 153.49142456054688 165.34324645996094 202.1592559814453 160.16229248046875 247.67922973632812" stroke-width="0.0" fill="rgb(64, 170, 73)" opacity="0.0" stroke="rgb(0, 0, 0)" stroke-opacity="1.0" stroke-linecap="round" stroke-linejoin="round"/>
    <path d="M 320.0330505371094 392.6705017089844 C 248.55386352539062 426.8254699707031 227.17361450195312 326.4781799316406 274.4667663574219 299.49737548828125 C 321.3768005371094 272.7397155761719 291.4373474121094 280.5508117675781 273.3843688964844 273.90594482421875 C 242.87777709960938 263.3505554199219 243.4248046875 267.4390869140625 314.8703308105469 281.614501953125 C 286.8739929199219 326.8341979980469 373.26715087890625 336.7608642578125 320.0330505371094 392.6705017089844" stroke-width="0.0" fill="rgb(118, 255, 54)" opacity="1.0" stroke="rgb(0, 0, 0)" stroke-opacity="1.0" stroke-linecap="round" stroke-linejoin="round"/>
    <path d="M 239.5928192138672 145.52671813964844 C 234.63792419433594 178.41470336914062 241.23460388183594 221.19790649414062 142.3870849609375 246.0546875 C 165.616943359375 130.24925231933594 262.0099182128906 161.2298583984375 195.9640655517578 102.8709945678711 C 189.1751251220703 101.31996154785156 191.26824951171875 56.49189376831055 131.3590545654297 80.79293060302734 C 173.60342407226562 88.22447967529297 225.62200927734375 118.94841003417969 239.5928192138672 145.52671813964844" stroke-width="0.0" fill="rgb(218, 255, 0)" opacity="1.0" stroke="rgb(0, 0, 0)" stroke-opacity="1.0" stroke-linecap="round" stroke-linejoin="round"/>
    <path d="M 308.3890380859375 396.6485900878906 C 243.5579376220703 423.18048095703125 268.5563049316406 411.9645080566406 287.6330261230469 397.0765380859375 C 248.03280639648438 431.53240966796875 212.630615234375 350.2738342285156 216.6466827392578 293.15948486328125 C 173.3367462158203 400.7561950683594 298.11785888671875 417.3671569824219 225.2415313720703 376.4635009765625 C 250.27557373046875 399.7788391113281 243.37942504882812 406.2171325683594 308.3890380859375 396.6485900878906" stroke-width="0.0" fill="rgb(208, 253, 86)" opacity="1.0" stroke="rgb(0, 0, 0)" stroke-opacity="1.0" stroke-linecap="round" stroke-linejoin="round"/>
    <path d="M 138.6612548828125 257.361328125 C 129.4586181640625 279.6247253417969 156.2557373046875 298.45440673828125 127.33785247802734 293.38824462890625 C 105.1659927368164 336.1690673828125 124.43842315673828 295.78802490234375 109.6984634399414 267.3802185058594 C 97.99491882324219 134.46682739257812 47.38959503173828 162.6739501953125 59.024845123291016 131.8257293701172 C 168.93104553222656 210.75152587890625 140.45838928222656 336.6414794921875 138.6612548828125 257.361328125" stroke-width="0.0" fill="rgb(252, 255, 40)" opacity="0.79166025" stroke="rgb(0, 0, 0)" stroke-opacity="1.0" stroke-linecap="round" stroke-linejoin="round"/>
    <path d="M 267.57769775390625 137.06991577148438 C 276.7956848144531 173.80604553222656 255.20445251464844 154.7822265625 217.61990356445312 136.2794189453125 C 201.28671264648438 126.576416015625 211.46473693847656 102.74246978759766 179.907470703125 104.75458526611328 C 167.46751403808594 102.60682678222656 141.1666259765625 126.35768127441406 102.5071792602539 89.3038101196289 C 167.23265075683594 70.9650650024414 195.91807556152344 95.72322845458984 267.57769775390625 137.06991577148438" stroke-width="0.0" fill="rgb(0, 13, 17)" opacity="1.0" stroke="rgb(0, 0, 0)" stroke-opacity="1.0" stroke-linecap="round" stroke-linejoin="round"/>
    <path d="M 493.6587829589844 282.8254089355469 C 491.1865539550781 310.9629211425781 478.49884033203125 332.0109558105469 442.4329833984375 341.05157470703125 C 383.6035461425781 326.3450012207031 397.6083068847656 311.8304138183594 373.8929443359375 309.72216796875 C 328.3189697265625 273.7230224609375 373.6578063964844 257.2585754394531 460.0975646972656 240.7595672607422 C 482.0095520019531 231.55581665039062 492.6141662597656 234.86837768554688 493.6587829589844 282.8254089355469" stroke-width="0.0" fill="rgb(123, 236, 50)" opacity="0.79022837" stroke="rgb(0, 0, 0)" stroke-opacity="1.0" stroke-linecap="round" stroke-linejoin="round"/>
    <path d="M 298.3647155761719 397.1299743652344 C 265.0091552734375 421.3073425292969 249.49789428710938 437.9461669921875 265.1182556152344 399.7587585449219 C 236.7096710205078 392.7070007324219 261.9460754394531 378.3251037597656 248.51528930664062 358.5361633300781 C 226.9629669189453 352.3067626953125 235.29708862304688 358.9113464355469 255.39236450195312 406.28851318359375 C 275.9628601074219 421.3617248535156 279.3390197753906 412.70111083984375 298.3647155761719 397.1299743652344" stroke-width="0.0" fill="rgb(143, 225, 74)" opacity="0.6253051" stroke="rgb(0, 0, 0)" stroke-opacity="1.0" stroke-linecap="round" stroke-linejoin="round"/>
    <path d="M 380.1422424316406 292.55804443359375 C 325.0587463378906 227.3902587890625 318.3069152832031 218.98233032226562 322.6135559082031 296.16656494140625 C 249.92784118652344 324.6944885253906 193.2771453857422 225.31040954589844 287.8636169433594 228.6842498779297 C 262.0052490234375 154.95407104492188 352.4716491699219 142.6168670654297 355.4139709472656 217.5607147216797 C 417.8948059082031 175.6778564453125 456.6829833984375 224.577392578125 380.1422424316406 292.55804443359375" stroke-width="0.0" fill="rgb(255, 0, 30)" opacity="1.0" stroke="rgb(0, 0, 0)" stroke-opacity="1.0" stroke-linecap="round" stroke-linejoin="round"/>
    <path d="M 190.3861083984375 264.2546081542969 C 220.5821533203125 317.4200134277344 213.46092224121094 317.0552978515625 188.7463836669922 300.08697509765625 C 156.33914184570312 286.19476318359375 136.1287384033203 311.29034423828125 136.03256225585938 302.99298095703125 C 168.45762634277344 296.0123291015625 214.52760314941406 303.0953674316406 147.89605712890625 307.236083984375 C 129.801513671875 281.28302001953125 134.55975341796875 282.3524475097656 190.3861083984375 264.2546081542969" stroke-width="0.0" fill="rgb(11, 42, 41)" opacity="1.0" stroke="rgb(0, 0, 0)" stroke-opacity="1.0" stroke-linecap="round" stroke-linejoin="round"/>
    <path d="M 291.5576477050781 414.05670166015625 C 317.5730895996094 430.6981201171875 318.79052734375 435.20074462890625 264.7673645019531 442.2408142089844 C 257.8009033203125 440.55596923828125 268.5120544433594 381.7756652832031 275.97637939453125 389.19024658203125 C 267.6658935546875 421.5578308105469 265.06036376953125 411.7128601074219 266.8164978027344 383.436767578125 C 283.000244140625 387.3305358886719 284.50537109375 411.4966125488281 291.5576477050781 414.05670166015625" stroke-width="0.0" fill="rgb(27, 142, 94)" opacity="0.9360233" stroke="rgb(0, 0, 0)" stroke-opacity="1.0" stroke-linecap="round" stroke-linejoin="round"/>
    <path d="M 382.4723205566406 387.8409118652344 C 374.8064880371094 379.0000305175781 343.6361083984375 398.4986877441406 350.421875 404.58135986328125 C 365.90625 381.51580810546875 361.4971008300781 408.091796875 344.9564514160156 410.3524475097656 C 361.302978515625 373.1484375 357.7745056152344 379.49786376953125 410.6777038574219 397.172607421875 C 421.2255554199219 369.0335388183594 411.4154968261719 383.56689453125 382.4723205566406 387.8409118652344" stroke-width="0.0" fill="rgb(106, 229, 25)" opacity="0.08388544" stroke="rgb(0, 0, 0)" stroke-opacity="1.0" stroke-linecap="round" stroke-linejoin="round"/>
    <path d="M 386.97198486328125 20.27048683166504 C 372.066650390625 38.883846282958984 371.798583984375 53.164249420166016 370.5743408203125 41.00813674926758 C 343.66949462890625 38.29563522338867 323.7134704589844 40.99601745605469 277.2162780761719 48.724037170410156 C 255.53903198242188 7.9438629150390625 283.81964111328125 -29.943849563598633 323.1689147949219 -51.144351959228516 C 372.6285400390625 -34.111480712890625 389.5653381347656 -19.580915451049805 386.97198486328125 20.27048683166504" stroke-width="0.0" fill="rgb(217, 216, 76)" opacity="0.21052049" stroke="rgb(0, 0, 0)" stroke-opacity="1.0" stroke-linecap="round" stroke-linejoin="round"/>
    <path d="M 78.79198455810547 179.25682067871094 C 85.31228637695312 176.22061157226562 79.3868408203125 182.37783813476562 69.92339324951172 133.5699005126953 C 87.39620971679688 126.34117126464844 85.73316955566406 141.51376342773438 74.1570053100586 132.47459411621094 C 61.26171875 134.94076538085938 65.3758316040039 114.88880157470703 69.34231567382812 125.75459289550781 C 86.84503936767578 122.62403869628906 77.97982788085938 122.46289825439453 78.79198455810547 179.25682067871094" stroke-width="0.0" fill="rgb(194, 253, 84)" opacity="0.75335467" stroke="rgb(0, 0, 0)" stroke-opacity="1.0" stroke-linecap="round" stroke-linejoin="round"/>
    <path d="M 431.2370910644531 397.1793518066406 C 378.4650573730469 382.4593811035156 383.9678039550781 328.2257995605469 386.63568115234375 288.4028625488281 C 406.9923095703125 329.7337341308594 381.1499938964844 322.15570068359375 368.4319763183594 322.566650390625 C 359.66717529296875 299.4728698730469 360.1471862792969 281.93994140625 376.3308410644531 278.19866943359375 C 432.73309326171875 283.3929748535156 442.58740234375 310.519287109375 431.2370910644531 397.1793518066406" stroke-width="0.0" fill="rgb(31, 223, 55)" opacity="1.0" stroke="rgb(0, 0, 0)" stroke-opacity="1.0" stroke-linecap="round" stroke-linejoin="round"/>
    <path d="M 245.0956268310547 439.7711181640625 C 286.2625427246094 430.2105407714844 292.43951416015625 436.7032775878906 295.35614013671875 444.0495910644531 C 273.8703308105469 440.2194519042969 268.0924987792969 470.30352783203125 257.2027893066406 435.5941162109375 C 288.84442138671875 402.25653076171875 277.0762023925781 372.0858459472656 263.17742919921875 393.00335693359375 C 223.0060272216797 429.6268615722656 249.797119140625 450.0440673828125 245.0956268310547 439.7711181640625" stroke-width="0.0" fill="rgb(66, 162, 64)" opacity="0.94954" stroke="rgb(0, 0, 0)" stroke-opacity="1.0" stroke-linecap="round" stroke-linejoin="round"/>
    <path d="M 236.8502960205078 311.1129455566406 C 244.66162109375 303.9705505371094 245.80393981933594 312.3948669433594 225.978515625 307.5009460449219 C 210.08450317382812 316.6529235839844 208.6840362548828 316.9391174316406 225.14247131347656 272.6014404296875 C 211.702392578125 265.71661376953125 213.76406860351562 269.98162841796875 208.7349853515625 270.76141357421875 C 215.50003051757812 307.9052734375 226.1230926513672 307.8597717285156 236.8502960205078 311.1129455566406" stroke-width="0.0" fill="rgb(0, 39, 0)" opacity="0.015433666" stroke="rgb(0, 0, 0)" stroke-opacity="1.0" stroke-linecap="round" stroke-linejoin="round"/>
    <path d="M 167.54364013671875 347.0491638183594 C 169.09970092773438 359.8500061035156 160.47462463378906 369.5082092285156 183.22052001953125 343.5982360839844 C 172.68801879882812 328.9865417480469 143.13946533203125 338.4004211425781 139.6388397216797 340.153564453125 C 169.82830810546875 380.930908203125 185.00927734375 380.9527587890625 187.5990447998047 342.5538024902344 C 173.9452667236328 315.993408203125 161.486572265625 323.4363708496094 167.54364013671875 347.0491638183594" stroke-width="0.0" fill="rgb(0, 20, 11)" opacity="1.0" stroke="rgb(0, 0, 0)" stroke-opacity="1.0" stroke-linecap="round" stroke-linejoin="round"/>
    <path d="M 422.9705505371094 140.89520263671875 C 441.37274169921875 148.5255126953125 402.5639343261719 146.25787353515625 423.181396484375 165.02288818359375 C 407.16888427734375 175.5526885986328 387.0616149902344 181.06736755371094 416.508056640625 175.00436401367188 C 445.2482604980469 165.57070922851562 436.4941101074219 153.67059326171875 453.1598815917969 137.25355529785156 C 453.307861328125 100.09656524658203 411.9718322753906 145.68603515625 422.9705505371094 140.89520263671875" stroke-width="0.0" fill="rgb(193, 178, 34)" opacity="0.0" stroke="rgb(0, 0, 0)" stroke-opacity="1.0" stroke-linecap="round" stroke-linejoin="round"/>
    <path d="M 76.39598083496094 496.2603454589844 C 100.53340148925781 475.5964660644531 85.02949523925781 491.6189270019531 70.19547271728516 474.2618408203125 C 64.95336151123047 483.10418701171875 59.986572265625 474.5581359863281 35.15705108642578 480.7154541015625 C 54.543212890625 452.3256530761719 77.24321746826172 437.0174255371094 30.318618774414062 433.2566223144531 C 62.33314895629883 477.8707580566406 89.91468048095703 464.3815612792969 76.39598083496094 496.2603454589844" stroke-width="0.0" fill="rgb(245, 173, 88)" opacity="0.011795583" stroke="rgb(0, 0, 0)" stroke-opacity="1.0" stroke-linecap="round" stroke-linejoin="round"/>
    <path d="M 110.03872680664062 148.4634246826172 C 109.73167419433594 130.38148498535156 88.23806762695312 142.56268310546875 95.62705993652344 126.98560333251953 C 111.00978088378906 133.6313934326172 108.15162658691406 139.61155700683594 92.31645202636719 144.0284423828125 C 58.28236389160156 143.5349884033203 63.24325180053711 114.34867858886719 88.79944610595703 116.71865844726562 C 107.30274963378906 119.63815307617188 119.93360137939453 115.72039031982422 110.03872680664062 148.4634246826172" stroke-width="0.0" fill="rgb(0, 49, 85)" opacity="1.0" stroke="rgb(0, 0, 0)" stroke-opacity="1.0" stroke-linecap="round" stroke-linejoin="round"/>
    <path d="M 306.2821350097656 113.45618438720703 C 323.6140441894531 135.19384765625 345.54327392578125 113.93164825439453 300.7774353027344 107.1700439453125 C 314.0617980957031 104.37167358398438 324.62493896484375 96.8316421508789 337.4065246582031 77.63720703125 C 295.5416564941406 107.91215515136719 306.4195556640625 114.07817840576172 345.1162414550781 107.0108413696289 C 327.0721740722656 101.43183135986328 335.81463623046875 84.89166259765625 306.2821350097656 113.45618438720703" stroke-width="0.0" fill="rgb(242, 95, 79)" opacity="0.0" stroke="rgb(0, 0, 0)" stroke-opacity="1.0" stroke-linecap="round" stroke-linejoin="round"/>
    <path d="M 456.3834533691406 485.5410461425781 C 469.5765686035156 483.2377014160156 462.97198486328125 511.22357177734375 431.0149841308594 531.9494018554688 C 396.0228576660156 540.4244384765625 392.5287780761719 513.7382202148438 399.95343017578125 479.3292236328125 C 412.4736633300781 458.58966064453125 428.57049560546875 443.9332580566406 429.1090087890625 459.7080383300781 C 448.9373779296875 442.9866027832031 467.679443359375 459.6143798828125 456.3834533691406 485.5410461425781" stroke-width="0.0" fill="rgb(200, 255, 123)" opacity="0.025043897" stroke="rgb(0, 0, 0)" stroke-opacity="1.0" stroke-linecap="round" stroke-linejoin="round"/>
    <path d="M 468.1233825683594 -31.186012268066406 C 472.38739013671875 -16.513397216796875 465.9764099121094 4.046030044555664 431.95623779296875 30.745203018188477 C 450.1800231933594 47.5632438659668 413.0865478515625 30.700660705566406 448.9667663574219 17.330921173095703 C 465.1829833984375 -28.132762908935547 475.5814514160156 -24.453475952148438 494.13616943359375 -10.82083797454834 C 486.607421875 -24.852357864379883 485.2900390625 -9.855982780456543 468.1233825683594 -31.186012268066406" stroke-width="0.0" fill="rgb(141, 186, 14)" opacity="0.047966238" stroke="rgb(0, 0, 0)" stroke-opacity="1.0" stroke-linecap="round" stroke-linejoin="round"/>
    <path d="M 505.0801696777344 43.286251068115234 C 447.2154846191406 39.29814910888672 435.5328063964844 56.26884841918945 442.8704833984375 10.23812484741211 C 498.0875244140625 18.875747680664062 486.89520263671875 18.714082717895508 481.50225830078125 19.796663284301758 C 471.5842590332031 16.578506469726562 479.53424072265625 -23.673280715942383 516.7136840820312 -30.226194381713867 C 501.2004699707031 30.798723220825195 516.4985961914062 51.695762634277344 505.0801696777344 43.286251068115234" stroke-width="0.0" fill="rgb(236, 238, 76)" opacity="0.057807084" stroke="rgb(0, 0, 0)" stroke-opacity="1.0" stroke-linecap="round" stroke-linejoin="round"/>
    <path d="M 60.135196685791016 323.807861328125 C 57.4783935546875 343.0246887207031 50.1699104309082 345.7242431640625 34.30546188354492 352.87738037109375 C 27.284263610839844 340.11724853515625 18.4008731842041 329.7115783691406 15.813210487365723 324.1490478515625 C 21.37654685974121 313.53985595703125 23.7812442779541 301.8486633300781 30.5849609375 291.91534423828125 C 34.53451919555664 292.6385498046875 61.78033447265625 316.5365295410156 60.135196685791016 323.807861328125" stroke-width="0.0" fill="rgb(178, 167, 93)" opacity="0.0074386303" stroke="rgb(0, 0, 0)" stroke-opacity="1.0" stroke-linecap="round" stroke-linejoin="round"/>
    <path d="M 199.7635498046875 441.6008605957031 C 195.22518920898438 447.1365661621094 194.48741149902344 458.25018310546875 203.73243713378906 484.0737609863281 C 185.96421813964844 494.37945556640625 181.0375518798828 484.4430236816406 186.32151794433594 461.2212829589844 C 189.50474548339844 467.1918640136719 199.31089782714844 453.71527099609375 192.89810180664062 461.95684814453125 C 190.5039520263672 456.0179443359375 207.5831298828125 456.591796875 199.7635498046875 441.6008605957031" stroke-width="0.0" fill="rgb(40, 65, 126)" opacity="0.0014409132" stroke="rgb(0, 0, 0)" stroke-opacity="1.0" stroke-linecap="round" stroke-linejoin="round"/>
    <path d="M 8.098569869995117 374.2395935058594 C -3.199416399002075 463.9217834472656 15.52188777923584 423.3887634277344 38.339019775390625 393.2101745605469 C 1.8049540519714355 403.9670715332031 18.380033493041992 391.03485107421875 26.89947509765625 378.82415771484375 C -15.717055320739746 366.24224853515625 9.5316162109375 349.5059814453125 39.02808380126953 315.5072021484375 C 44.613189697265625 328.0904541015625 39.92042541503906 348.485595703125 8.098569869995117 374.2395935058594" stroke-width="0.0" fill="rgb(227, 206, 88)" opacity="0.040216055" stroke="rgb(0, 0, 0)" stroke-opacity="1.0" stroke-linecap="round" stroke-linejoin="round"/>
    <path d="M 191.90689086914062 445.27667236328125 C 224.55589294433594 454.555908203125 204.83470153808594 474.23040771484375 179.32167053222656 452.75164794921875 C 162.25819396972656 473.4635925292969 167.73092651367188 463.1705627441406 183.2804412841797 427.5341491699219 C 152.6152801513672 435.47589111328125 166.46566772460938 446.5957946777344 180.24246215820312 428.14007568359375 C 197.99522399902344 409.86492919921875 194.8428192138672 434.2967834472656 191.90689086914062 445.27667236328125" stroke-width="0.0" fill="rgb(40, 0, 61)" opacity="0.0" stroke="rgb(0, 0, 0)" stroke-opacity="1.0" stroke-linecap="round" stroke-linejoin="round"/>
    <path d="M 375.6571350097656 204.3021240234375 C 358.5096130371094 220.14761352539062 364.45440673828125 234.93531799316406 347.9586486816406 232.54185485839844 C 364.0548400878906 225.78839111328125 359.06854248046875 214.4287567138672 318.0063171386719 201.91790771484375 C 314.9421081542969 196.79331970214844 338.28033447265625 205.57940673828125 351.67987060546875 205.4886474609375 C 342.85284423828125 200.86024475097656 353.7127990722656 188.138671875 375.6571350097656 204.3021240234375" stroke-width="0.0" fill="rgb(8, 224, 68)" opacity="0.01913263" stroke="rgb(0, 0, 0)" stroke-opacity="1.0" stroke-linecap="round" stroke-linejoin="round"/>
    <path d="M 200.23635864257812 244.93252563476562 C 196.8325653076172 291.5338134765625 190.65684509277344 292.29827880859375 185.6509552001953 259.54010009765625 C 197.27890014648438 240.59754943847656 169.25296020507812 232.70779418945312 140.98484802246094 220.92886352539062 C 137.419677734375 220.81044006347656 161.9263458251953 214.27133178710938 155.72108459472656 263.68310546875 C 163.80787658691406 251.28408813476562 172.63507080078125 249.69857788085938 200.23635864257812 244.93252563476562" stroke-width="0.0" fill="rgb(213, 236, 51)" opacity="0.010135638" stroke="rgb(0, 0, 0)" stroke-opacity="1.0" stroke-linecap="round" stroke-linejoin="round"/>
    <path d="M 206.38031005859375 430.1539611816406 C 193.8422393798828 430.70526123046875 162.33755493164062 424.73211669921875 161.41537475585938 425.2765197753906 C 153.25360107421875 429.8971862792969 138.618896484375 432.1438293457031 154.98822021484375 447.4511413574219 C 166.6260223388672 423.7998046875 172.48023986816406 410.7419128417969 179.4136962890625 419.07659912109375 C 174.25894165039062 401.2748107910156 201.45164489746094 397.5660095214844 206.38031005859375 430.1539611816406" stroke-width="0.0" fill="rgb(107, 0, 35)" opacity="0.0" stroke="rgb(0, 0, 0)" stroke-opacity="1.0" stroke-linecap="round" stroke-linejoin="round"/>
    <path d="M 517.6790771484375 213.40464782714844 C 522.670654296875 254.39556884765625 523.2175903320312 259.2172546386719 514.232421875 272.7318115234375 C 476.6260070800781 279.3880310058594 501.9677734375 249.84255981445312 457.094482421875 243.30511474609375 C 468.6672058105469 186.90914916992188 478.482177734375 182.2700653076172 495.01904296875 193.7224884033203 C 507.57177734375 205.34463500976562 487.86602783203125 226.7874298095703 517.6790771484375 213.40464782714844" stroke-width="0.0" fill="rgb(215, 212, 67)" opacity="0.042599447" stroke="rgb(0, 0, 0)" stroke-opacity="1.0" stroke-linecap="round" stroke-linejoin="round"/>
  </g>
</svg>
