<?xml version="1.0" ?>
<svg xmlns="http://www.w3.org/2000/svg" version="1.1" width="512" height="512">
  <defs/>
  <g>
    <path d="M 526.0219116210938 446.6243591308594 C 442.8052062988281 458.902099609375 401.5596618652344 567.8554077148438 522.3751831054688 557.6026000976562 C 582.06640625 409.913330078125 521.0994262695312 441.11322021484375 454.0274658203125 446.05157470703125 C 464.1745910644531 482.522705078125 467.5010986328125 447.88079833984375 467.138671875 414.91937255859375 C 501.1358947753906 379.16607666015625 525.2642211914062 364.7223815917969 526.0219116210938 446.6243591308594" stroke-width="0.0" fill="rgb(62, 0, 186)" opacity="1.0" stroke="rgb(0, 0, 0)" stroke-opacity="1.0" stroke-linecap="round" stroke-linejoin="round"/>
    <path d="M 301.71551513671875 464.21368408203125 C 212.33595275878906 579.0274047851562 136.1241912841797 613.2172241210938 102.77832794189453 433.0638732910156 C 10.953082084655762 405.0544128417969 145.71304321289062 372.9320068359375 -31.80286979675293 334.7253723144531 C 36.58567428588867 204.7497100830078 -47.54963302612305 276.91168212890625 -34.3964958190918 183.58505249023438 C 102.3736343383789 58.98369216918945 237.3325653076172 192.2768096923828 301.71551513671875 464.21368408203125" stroke-width="0.0" fill="rgb(32, 36, 255)" opacity="0.9965641" stroke="rgb(0, 0, 0)" stroke-opacity="1.0" stroke-linecap="round" stroke-linejoin="round"/>
    <path d="M 418.36566162109375 118.47394561767578 C 469.8991394042969 309.1199035644531 413.5318603515625 323.8995361328125 272.15447998046875 346.77410888671875 C 147.5574951171875 340.6324462890625 105.58331298828125 320.91864013671875 250.34454345703125 94.44573211669922 C 149.8746337890625 81.9709243774414 177.7937469482422 25.05382537841797 382.0027770996094 33.42567825317383 C 406.8873596191406 134.5554962158203 460.94146728515625 66.78673553466797 418.36566162109375 118.47394561767578" stroke-width="0.0" fill="rgb(17, 0, 182)" opacity="1.0" stroke="rgb(0, 0, 0)" stroke-opacity="1.0" stroke-linecap="round" stroke-linejoin="round"/>
    <path d="M 345.392333984375 148.57647705078125 C 366.6037292480469 408.3055725097656 267.8271179199219 435.0973815917969 170.0158233642578 358.1568603515625 C 40.04025650024414 272.6878662109375 -4.896852970123291 310.2060546875 69.7608413696289 176.36277770996094 C 43.97419357299805 57.657203674316406 157.96266174316406 92.47543334960938 148.50946044921875 30.395999908447266 C 239.52801513671875 -45.08922576904297 269.2663879394531 -18.23302459716797 345.392333984375 148.57647705078125" stroke-width="0.0" fill="rgb(255, 224, 206)" opacity="1.0" stroke="rgb(0, 0, 0)" stroke-opacity="1.0" stroke-linecap="round" stroke-linejoin="round"/>
    <path d="M 468.9435729980469 391.6768798828125 C 374.01361083984375 505.4209289550781 379.3006896972656 322.1122741699219 445.3752746582031 482.22698974609375 C 279.92529296875 544.0997924804688 395.1590881347656 530.0057983398438 316.34442138671875 440.2717590332031 C 250.105712890625 237.2248992919922 266.20941162109375 298.6506652832031 360.2223205566406 210.75521850585938 C 459.7274169921875 75.18862915039062 580.2536010742188 144.0585174560547 468.9435729980469 391.6768798828125" stroke-width="0.0" fill="rgb(255, 5, 228)" opacity="1.0" stroke="rgb(0, 0, 0)" stroke-opacity="1.0" stroke-linecap="round" stroke-linejoin="round"/>
    <path d="M 542.0579223632812 183.20584106445312 C 545.8867797851562 318.2500305175781 481.7022399902344 239.43186950683594 578.1465454101562 364.194091796875 C 453.9266052246094 437.1272277832031 268.1785583496094 344.572021484375 484.5079040527344 227.64791870117188 C 312.3457336425781 162.42111206054688 353.1488037109375 88.8751449584961 437.95062255859375 73.62464141845703 C 500.5603942871094 139.35691833496094 538.9557495117188 106.39279174804688 542.0579223632812 183.20584106445312" stroke-width="0.0" fill="rgb(41, 0, 255)" opacity="1.0" stroke="rgb(0, 0, 0)" stroke-opacity="1.0" stroke-linecap="round" stroke-linejoin="round"/>
    <path d="M 450.3166809082031 231.50650024414062 C 350.0792236328125 303.2488708496094 349.43524169921875 308.28466796875 301.8789978027344 323.590087890625 C 246.56228637695312 362.3008728027344 270.8885803222656 380.24176025390625 28.37152099609375 211.2664794921875 C 340.09039306640625 167.55445861816406 224.98707580566406 277.802001953125 315.2182922363281 278.501220703125 C 367.42718505859375 224.9292449951172 455.4392395019531 166.6365509033203 450.3166809082031 231.50650024414062" stroke-width="0.0" fill="rgb(0, 255, 0)" opacity="1.0" stroke="rgb(0, 0, 0)" stroke-opacity="1.0" stroke-linecap="round" stroke-linejoin="round"/>
    <path d="M 377.2970886230469 211.243408203125 C 386.02154541015625 187.52609252929688 330.9747009277344 175.05238342285156 330.09375 214.47183227539062 C 331.4056701660156 246.93186950683594 354.9759826660156 224.4071807861328 284.0889587402344 215.8273468017578 C 349.4540710449219 80.77327728271484 251.6015625 183.1790771484375 350.4487609863281 137.5362548828125 C 398.7359313964844 171.58412170410156 508.4599609375 214.78384399414062 377.2970886230469 211.243408203125" stroke-width="0.0" fill="rgb(134, 29, 160)" opacity="0.69393104" stroke="rgb(0, 0, 0)" stroke-opacity="1.0" stroke-linecap="round" stroke-linejoin="round"/>
    <path d="M 307.9206237792969 259.5526123046875 C 295.90740966796875 269.33502197265625 322.9315490722656 246.0332489013672 249.75572204589844 283.3659973144531 C 218.92376708984375 281.95831298828125 195.49029541015625 273.45892333984375 113.3968276977539 214.6466064453125 C 229.24191284179688 142.71261596679688 137.56698608398438 229.8214874267578 203.93228149414062 249.10093688964844 C 237.5625457763672 252.73880004882812 266.771484375 259.95745849609375 307.9206237792969 259.5526123046875" stroke-width="0.0" fill="rgb(254, 200, 172)" opacity="0.9995162" stroke="rgb(0, 0, 0)" stroke-opacity="1.0" stroke-linecap="round" stroke-linejoin="round"/>
    <path d="M 466.3223876953125 251.90065002441406 C 260.5774230957031 345.15399169921875 532.5337524414062 256.0826416015625 442.4996643066406 382.7131652832031 C 215.0640106201172 378.119873046875 244.40280151367188 435.10968017578125 257.1614074707031 374.9708251953125 C 386.9194030761719 262.8951721191406 400.5580139160156 265.5378723144531 432.1859436035156 294.45849609375 C 413.7209167480469 261.10260009765625 466.08258056640625 220.02345275878906 466.3223876953125 251.90065002441406" stroke-width="0.0" fill="rgb(17, 5, 242)" opacity="0.21213251" stroke="rgb(0, 0, 0)" stroke-opacity="1.0" stroke-linecap="round" stroke-linejoin="round"/>
    <path d="M 176.02273559570312 94.69417572021484 C 284.4208068847656 110.28495788574219 289.54022216796875 154.01295471191406 199.97152709960938 124.93474578857422 C 71.43795013427734 185.69285583496094 -89.62244415283203 368.8629150390625 23.30245018005371 17.9544734954834 C 315.2441711425781 52.390106201171875 246.9827117919922 167.02920532226562 137.8953094482422 45.93033981323242 C 343.3218994140625 -31.654296875 219.70542907714844 55.31987762451172 176.02273559570312 94.69417572021484" stroke-width="0.0" fill="rgb(63, 0, 253)" opacity="0.9948677" stroke="rgb(0, 0, 0)" stroke-opacity="1.0" stroke-linecap="round" stroke-linejoin="round"/>
    <path d="M 164.63392639160156 405.8555603027344 C 185.42298889160156 412.61578369140625 174.4849090576172 380.7280578613281 160.97023010253906 444.11517333984375 C 139.5308837890625 395.9527893066406 149.6355438232422 422.5199890136719 159.27908325195312 373.0682067871094 C 159.49021911621094 298.4872131347656 130.2710418701172 281.98944091796875 141.79632568359375 302.095947265625 C 113.9493179321289 376.0589599609375 141.3092803955078 343.7859802246094 164.63392639160156 405.8555603027344" stroke-width="0.0" fill="rgb(85, 89, 175)" opacity="0.0" stroke="rgb(0, 0, 0)" stroke-opacity="1.0" stroke-linecap="round" stroke-linejoin="round"/>
    <path d="M 398.380126953125 50.90074157714844 C 391.2299499511719 65.01104736328125 380.8342590332031 96.1177978515625 379.984619140625 77.53738403320312 C 381.256103515625 57.2210578918457 365.60870361328125 49.53245544433594 379.2430419921875 68.8641128540039 C 364.9430847167969 56.73405456542969 380.7774353027344 44.8597526550293 375.4664306640625 54.18391799926758 C 377.6921081542969 71.54388427734375 374.8619384765625 58.67436218261719 398.380126953125 50.90074157714844" stroke-width="0.0" fill="rgb(138, 131, 81)" opacity="0.20475657" stroke="rgb(0, 0, 0)" stroke-opacity="1.0" stroke-linecap="round" stroke-linejoin="round"/>
    <path d="M 546.2433471679688 72.450439453125 C 524.8458862304688 109.47498321533203 494.55816650390625 87.37495422363281 466.6433410644531 48.09671401977539 C 489.9752197265625 4.296804904937744 465.8667297363281 5.767502784729004 432.4318542480469 41.775177001953125 C 409.7603454589844 -9.886039733886719 429.43878173828125 -10.066040992736816 478.4352111816406 -18.92281150817871 C 517.2825317382812 -9.25953483581543 534.8765869140625 -9.576557159423828 546.2433471679688 72.450439453125" stroke-width="0.0" fill="rgb(222, 0, 188)" opacity="0.72190773" stroke="rgb(0, 0, 0)" stroke-opacity="1.0" stroke-linecap="round" stroke-linejoin="round"/>
    <path d="M 350.4252014160156 506.25390625 C 336.19464111328125 552.087890625 368.8766784667969 494.0227355957031 328.64501953125 523.751708984375 C 158.75289916992188 561.4508056640625 147.57574462890625 465.21685791015625 173.57693481445312 468.8773193359375 C 232.6925811767578 430.4829406738281 243.38461303710938 383.8669738769531 315.5476379394531 324.1622314453125 C 442.2936706542969 309.81683349609375 414.5106201171875 271.9184875488281 350.4252014160156 506.25390625" stroke-width="0.0" fill="rgb(90, 60, 255)" opacity="0.9343695" stroke="rgb(0, 0, 0)" stroke-opacity="1.0" stroke-linecap="round" stroke-linejoin="round"/>
    <path d="M 227.85044860839844 281.2098083496094 C 292.808349609375 332.6512756347656 303.1676330566406 290.9347229003906 243.83966064453125 338.49749755859375 C 149.64193725585938 270.69622802734375 41.90467834472656 225.97488403320312 46.22929382324219 245.99331665039062 C 67.56534576416016 228.5266876220703 136.3434600830078 317.5014343261719 238.54957580566406 329.66265869140625 C 231.98260498046875 279.470947265625 160.8715057373047 269.8035583496094 227.85044860839844 281.2098083496094" stroke-width="0.0" fill="rgb(220, 171, 102)" opacity="0.0" stroke="rgb(0, 0, 0)" stroke-opacity="1.0" stroke-linecap="round" stroke-linejoin="round"/>
    <path d="M 400.5026550292969 424.6110534667969 C 379.6800231933594 463.4736022949219 315.01605224609375 452.72637939453125 341.2237243652344 472.3056945800781 C 449.50701904296875 495.25054931640625 431.82763671875 510.603271484375 329.0640869140625 554.6129150390625 C 243.17288208007812 396.2305908203125 250.0056610107422 329.9660339355469 357.3815612792969 322.8289794921875 C 401.1591491699219 392.2689208984375 398.91607666015625 354.971923828125 400.5026550292969 424.6110534667969" stroke-width="0.0" fill="rgb(77, 53, 255)" opacity="0.8075275" stroke="rgb(0, 0, 0)" stroke-opacity="1.0" stroke-linecap="round" stroke-linejoin="round"/>
    <path d="M 301.4733581542969 133.424072265625 C 397.8019104003906 137.7497100830078 369.5721130371094 160.0979461669922 302.19256591796875 169.2080841064453 C 237.6419677734375 139.34921264648438 282.6855773925781 169.72625732421875 236.93817138671875 124.78128814697266 C 244.68072509765625 65.13433837890625 319.01873779296875 37.53856658935547 319.7984924316406 85.88813018798828 C 312.2121276855469 113.60338592529297 385.9598083496094 95.58406829833984 301.4733581542969 133.424072265625" stroke-width="0.0" fill="rgb(221, 98, 223)" opacity="0.9068093" stroke="rgb(0, 0, 0)" stroke-opacity="1.0" stroke-linecap="round" stroke-linejoin="round"/>
    <path d="M 413.00164794921875 311.5287780761719 C 260.6777038574219 349.3468933105469 279.5970153808594 381.69329833984375 284.6205139160156 372.0279541015625 C 226.09754943847656 442.4346923828125 193.58218383789062 384.1659851074219 75.76334381103516 313.7684631347656 C 96.98876190185547 281.8630676269531 119.8672866821289 312.59600830078125 258.28570556640625 398.8218688964844 C 411.74658203125 255.49819946289062 531.0598754882812 187.70919799804688 413.00164794921875 311.5287780761719" stroke-width="0.0" fill="rgb(37, 94, 255)" opacity="0.37582505" stroke="rgb(0, 0, 0)" stroke-opacity="1.0" stroke-linecap="round" stroke-linejoin="round"/>
    <path d="M 437.58831787109375 200.01324462890625 C 413.16943359375 223.29949951171875 389.2904052734375 224.90562438964844 371.0734558105469 232.4664306640625 C 424.3029479980469 224.6914825439453 394.4502868652344 253.74127197265625 337.1496276855469 242.1956787109375 C 407.2293701171875 227.09634399414062 423.32513427734375 248.95933532714844 336.8771057128906 166.1030731201172 C 378.74615478515625 175.29298400878906 388.29571533203125 206.61935424804688 437.58831787109375 200.01324462890625" stroke-width="0.0" fill="rgb(0, 49, 55)" opacity="0.8808121" stroke="rgb(0, 0, 0)" stroke-opacity="1.0" stroke-linecap="round" stroke-linejoin="round"/>
    <path d="M 461.49676513671875 209.75791931152344 C 478.66839599609375 225.5297088623047 486.1296081542969 226.13026428222656 418.7508850097656 249.78375244140625 C 328.9062805175781 308.9371643066406 337.6198425292969 295.4002380371094 450.685791015625 229.71156311035156 C 417.7622985839844 168.99533081054688 409.93048095703125 189.8828887939453 386.5473327636719 173.73158264160156 C 458.2569580078125 222.4374542236328 444.21783447265625 207.67237854003906 461.49676513671875 209.75791931152344" stroke-width="0.0" fill="rgb(249, 173, 164)" opacity="0.8578859" stroke="rgb(0, 0, 0)" stroke-opacity="1.0" stroke-linecap="round" stroke-linejoin="round"/>
    <path d="M 124.4119873046875 339.3369140625 C 121.32636260986328 313.4447326660156 112.34542846679688 329.3269348144531 64.45428466796875 307.3235778808594 C 34.966651916503906 290.4549560546875 91.705078125 297.6982116699219 -32.39018630981445 229.8907470703125 C 13.945130348205566 213.72447204589844 -9.595320701599121 236.89781188964844 52.17692565917969 304.494384765625 C 105.6571273803711 316.3216857910156 138.3012237548828 342.49615478515625 124.4119873046875 339.3369140625" stroke-width="0.0" fill="rgb(19, 78, 245)" opacity="0.065988995" stroke="rgb(0, 0, 0)" stroke-opacity="1.0" stroke-linecap="round" stroke-linejoin="round"/>
    <path d="M 44.38930130004883 47.231414794921875 C 56.25661087036133 50.01363754272461 42.128684997558594 56.459869384765625 73.57843017578125 56.553428649902344 C 137.52381896972656 34.665283203125 160.70477294921875 -23.912097930908203 -1.2158219814300537 -16.261274337768555 C -25.872947692871094 169.32199096679688 6.008304119110107 120.94236755371094 45.031494140625 97.46199035644531 C 74.81364440917969 33.53616714477539 55.420433044433594 35.49231719970703 44.38930130004883 47.231414794921875" stroke-width="0.0" fill="rgb(80, 0, 121)" opacity="0.5213188" stroke="rgb(0, 0, 0)" stroke-opacity="1.0" stroke-linecap="round" stroke-linejoin="round"/>
    <path d="M 312.5623779296875 173.5278778076172 C 303.21795654296875 250.03097534179688 343.0894470214844 257.0185852050781 337.56341552734375 281.27801513671875 C 269.3141174316406 302.7469177246094 280.7889709472656 290.6822814941406 258.9156494140625 180.08187866210938 C 288.7528076171875 175.36056518554688 269.1844482421875 193.34278869628906 259.5450439453125 117.00367736816406 C 301.31951904296875 150.5740203857422 286.38043212890625 174.5799560546875 312.5623779296875 173.5278778076172" stroke-width="0.0" fill="rgb(217, 19, 225)" opacity="0.42759582" stroke="rgb(0, 0, 0)" stroke-opacity="1.0" stroke-linecap="round" stroke-linejoin="round"/>
    <path d="M 167.65342712402344 537.2593383789062 C 118.04935455322266 478.1988830566406 160.30816650390625 494.4547119140625 150.5680389404297 496.76348876953125 C 141.8095245361328 498.4435729980469 157.61886596679688 518.0120849609375 93.69345092773438 523.5546264648438 C 59.8365478515625 494.1651611328125 73.5202865600586 430.52423095703125 122.8870620727539 417.7718200683594 C 203.6290740966797 452.1266174316406 232.9132843017578 498.5635070800781 167.65342712402344 537.2593383789062" stroke-width="0.0" fill="rgb(73, 2, 232)" opacity="0.7927648" stroke="rgb(0, 0, 0)" stroke-opacity="1.0" stroke-linecap="round" stroke-linejoin="round"/>
    <path d="M 97.49128723144531 235.77798461914062 C 134.1216583251953 259.4495849609375 71.41976928710938 231.44056701660156 78.4922103881836 235.62203979492188 C 117.54263305664062 216.34681701660156 107.3010482788086 202.3423614501953 67.94381713867188 191.72195434570312 C 91.20669555664062 237.10906982421875 46.473411560058594 222.96376037597656 84.48072052001953 171.95285034179688 C 135.87408447265625 234.26779174804688 129.88397216796875 260.0634460449219 97.49128723144531 235.77798461914062" stroke-width="0.0" fill="rgb(0, 184, 4)" opacity="0.0" stroke="rgb(0, 0, 0)" stroke-opacity="1.0" stroke-linecap="round" stroke-linejoin="round"/>
    <path d="M 101.1816177368164 132.53326416015625 C 117.21822357177734 144.2018280029297 94.59776306152344 129.3610076904297 48.33726501464844 157.88449096679688 C 68.83789825439453 198.38345336914062 31.096405029296875 178.54685974121094 30.953208923339844 108.17478942871094 C 14.26921558380127 93.8641128540039 55.30577087402344 107.17650604248047 81.78457641601562 125.99637603759766 C 106.3321533203125 114.53052520751953 105.94461822509766 145.43109130859375 101.1816177368164 132.53326416015625" stroke-width="0.0" fill="rgb(5, 113, 83)" opacity="0.10544528" stroke="rgb(0, 0, 0)" stroke-opacity="1.0" stroke-linecap="round" stroke-linejoin="round"/>
    <path d="M 273.6275329589844 224.34605407714844 C 362.228271484375 266.5181884765625 345.0375061035156 218.67767333984375 274.5614013671875 221.37330627441406 C 245.85360717773438 240.59368896484375 280.13629150390625 236.9734344482422 206.8199462890625 211.7732696533203 C 234.91348266601562 201.51535034179688 241.32565307617188 162.30621337890625 263.7838439941406 223.1577606201172 C 318.50213623046875 216.1501007080078 320.1607666015625 192.64096069335938 273.6275329589844 224.34605407714844" stroke-width="0.0" fill="rgb(37, 4, 165)" opacity="0.56233907" stroke="rgb(0, 0, 0)" stroke-opacity="1.0" stroke-linecap="round" stroke-linejoin="round"/>
    <path d="M 223.91078186035156 108.81166076660156 C 194.23924255371094 121.03337860107422 191.1922607421875 123.14593505859375 234.8821258544922 113.11162567138672 C 209.78173828125 109.32201385498047 190.43319702148438 182.0234832763672 93.50330352783203 207.6675567626953 C 164.56005859375 122.83402252197266 231.35006713867188 151.01783752441406 215.6013641357422 116.30386352539062 C 243.40902709960938 84.28931427001953 248.96652221679688 92.3779525756836 223.91078186035156 108.81166076660156" stroke-width="0.0" fill="rgb(163, 0, 158)" opacity="0.5551116" stroke="rgb(0, 0, 0)" stroke-opacity="1.0" stroke-linecap="round" stroke-linejoin="round"/>
    <path d="M 54.598018646240234 551.4169921875 C 42.45839309692383 539.5292358398438 15.03414249420166 530.3245849609375 0.8111952543258667 530.5191040039062 C -9.364206314086914 527.7437133789062 -16.68471336364746 520.4232177734375 -21.20284080505371 510.0506896972656 C -18.48799705505371 494.70721435546875 -31.987857818603516 464.11956787109375 -61.67060089111328 457.4587097167969 C 13.037517547607422 485.4821472167969 29.714509963989258 495.2671203613281 54.598018646240234 551.4169921875" stroke-width="0.0" fill="rgb(206, 0, 83)" opacity="0.48745394" stroke="rgb(0, 0, 0)" stroke-opacity="1.0" stroke-linecap="round" stroke-linejoin="round"/>
    <path d="M 228.24778747558594 146.9848175048828 C 268.6179504394531 131.82977294921875 203.50318908691406 153.05482482910156 137.06607055664062 220.0922088623047 C 69.25674438476562 209.79281616210938 120.4283218383789 218.3469696044922 152.7329559326172 179.26307678222656 C 119.76670837402344 220.33355712890625 119.77513885498047 224.23045349121094 119.08916473388672 226.33326721191406 C 149.0027618408203 170.90484619140625 131.01626586914062 181.76124572753906 228.24778747558594 146.9848175048828" stroke-width="0.0" fill="rgb(17, 199, 14)" opacity="0.90443516" stroke="rgb(0, 0, 0)" stroke-opacity="1.0" stroke-linecap="round" stroke-linejoin="round"/>
    <path d="M 494.5647888183594 263.3271484375 C 369.83056640625 336.1467590332031 361.4920959472656 363.6221008300781 379.74127197265625 346.2592468261719 C 307.36883544921875 353.66912841796875 240.28468322753906 400.7860107421875 259.70745849609375 359.7171936035156 C 319.46490478515625 311.84814453125 348.4505920410156 324.5127868652344 369.7031555175781 288.906982421875 C 325.78118896484375 345.17437744140625 441.91455078125 206.19732666015625 494.5647888183594 263.3271484375" stroke-width="0.0" fill="rgb(164, 1, 248)" opacity="0.9846087" stroke="rgb(0, 0, 0)" stroke-opacity="1.0" stroke-linecap="round" stroke-linejoin="round"/>
    <path d="M 277.510009765625 101.8195571899414 C 173.8767547607422 175.71591186523438 172.39048767089844 174.421630859375 202.0803985595703 121.0128402709961 C 163.4113006591797 111.44375610351562 191.6127166748047 92.57743072509766 191.50790405273438 104.73649597167969 C 189.76658630371094 82.75833129882812 192.455078125 70.1528549194336 183.6966552734375 54.061973571777344 C 214.86981201171875 76.13507843017578 221.86642456054688 69.24181365966797 277.510009765625 101.8195571899414" stroke-width="0.0" fill="rgb(255, 255, 177)" opacity="1.0" stroke="rgb(0, 0, 0)" stroke-opacity="1.0" stroke-linecap="round" stroke-linejoin="round"/>
    <path d="M 231.31024169921875 84.39567565917969 C 208.93858337402344 106.254638671875 170.7098846435547 112.0873794555664 162.42660522460938 94.42657470703125 C 149.3732147216797 53.52214050292969 143.2065887451172 122.1290054321289 118.57733154296875 90.45405578613281 C 91.62461853027344 -2.561422348022461 113.08023834228516 -55.48830032348633 270.7679443359375 2.065744161605835 C 223.50831604003906 97.1714859008789 182.40301513671875 43.11896896362305 231.31024169921875 84.39567565917969" stroke-width="0.0" fill="rgb(41, 0, 249)" opacity="1.0" stroke="rgb(0, 0, 0)" stroke-opacity="1.0" stroke-linecap="round" stroke-linejoin="round"/>
    <path d="M 398.2043151855469 71.60066223144531 C 398.9420471191406 76.35704040527344 384.29962158203125 79.78907012939453 384.3172607421875 89.8766860961914 C 364.7437744140625 141.75234985351562 365.67413330078125 108.90142059326172 376.3287658691406 66.0585708618164 C 395.1820983886719 106.2995834350586 398.91436767578125 96.95506286621094 381.17779541015625 73.89921569824219 C 411.8169860839844 81.70475769042969 382.8708801269531 66.81611633300781 398.2043151855469 71.60066223144531" stroke-width="0.0" fill="rgb(118, 182, 66)" opacity="0.0" stroke="rgb(0, 0, 0)" stroke-opacity="1.0" stroke-linecap="round" stroke-linejoin="round"/>
    <path d="M 354.99365234375 489.0713806152344 C 331.5769958496094 534.2578125 336.8160095214844 527.48779296875 314.5412902832031 530.1383056640625 C 272.72705078125 546.6835327148438 267.6795959472656 556.0232543945312 254.31777954101562 510.4655456542969 C 264.60028076171875 458.966064453125 254.50514221191406 420.3435363769531 275.9858703613281 430.91119384765625 C 311.3168029785156 440.7876892089844 333.80157470703125 442.4989318847656 354.99365234375 489.0713806152344" stroke-width="0.0" fill="rgb(215, 134, 247)" opacity="0.79334056" stroke="rgb(0, 0, 0)" stroke-opacity="1.0" stroke-linecap="round" stroke-linejoin="round"/>
    <path d="M 308.353515625 171.17120361328125 C 315.4175720214844 127.98263549804688 324.22674560546875 143.4728546142578 311.5968322753906 221.69874572753906 C 300.1091003417969 158.6779327392578 330.9208679199219 145.03314208984375 303.296875 171.9830322265625 C 297.7189025878906 142.8334197998047 310.82135009765625 150.71995544433594 280.8609924316406 153.22618103027344 C 283.63543701171875 151.25537109375 321.27825927734375 155.21507263183594 308.353515625 171.17120361328125" stroke-width="0.0" fill="rgb(70, 34, 154)" opacity="0.0" stroke="rgb(0, 0, 0)" stroke-opacity="1.0" stroke-linecap="round" stroke-linejoin="round"/>
    <path d="M 283.29095458984375 43.03841018676758 C 284.99041748046875 53.419124603271484 278.1988220214844 33.96918487548828 276.3792419433594 13.174347877502441 C 267.6286926269531 29.15760612487793 259.43328857421875 -5.910122394561768 252.58932495117188 -34.37834548950195 C 265.2957763671875 -1.7528228759765625 277.9278869628906 -3.6680550575256348 304.47943115234375 -13.500617980957031 C 334.9468688964844 26.120914459228516 349.0362854003906 48.764251708984375 283.29095458984375 43.03841018676758" stroke-width="0.0" fill="rgb(10, 0, 232)" opacity="0.9901204" stroke="rgb(0, 0, 0)" stroke-opacity="1.0" stroke-linecap="round" stroke-linejoin="round"/>
    <path d="M 336.0394287109375 241.75958251953125 C 324.47027587890625 231.84194946289062 306.06549072265625 244.4641876220703 323.5776672363281 248.36524963378906 C 319.32208251953125 274.45758056640625 305.1133117675781 268.21392822265625 313.21697998046875 256.44818115234375 C 336.0664367675781 272.0531005859375 347.57147216796875 255.22299194335938 344.2266540527344 265.7996520996094 C 324.2414855957031 247.1641387939453 344.9827575683594 243.7701416015625 336.0394287109375 241.75958251953125" stroke-width="0.0" fill="rgb(145, 172, 112)" opacity="0.013391446" stroke="rgb(0, 0, 0)" stroke-opacity="1.0" stroke-linecap="round" stroke-linejoin="round"/>
    <path d="M 228.117919921875 98.42725372314453 C 210.24609375 108.00450897216797 214.77947998046875 106.88899993896484 182.73190307617188 75.81563568115234 C 191.48158264160156 57.98199462890625 184.77532958984375 75.46664428710938 197.2622833251953 103.44947052001953 C 183.53880310058594 98.43568420410156 195.49920654296875 94.0173568725586 209.51817321777344 86.90989685058594 C 182.2523651123047 57.869625091552734 203.4169921875 61.361698150634766 228.117919921875 98.42725372314453" stroke-width="0.0" fill="rgb(1, 124, 84)" opacity="0.0" stroke="rgb(0, 0, 0)" stroke-opacity="1.0" stroke-linecap="round" stroke-linejoin="round"/>
    <path d="M 541.586181640625 428.0636901855469 C 555.9456787109375 440.3247985839844 542.9743041992188 463.0072326660156 512.0345458984375 463.4363098144531 C 491.76416015625 472.09490966796875 471.8067321777344 466.1903381347656 464.83697509765625 450.2469787597656 C 492.2230529785156 430.501220703125 507.62188720703125 426.1907043457031 530.1704711914062 433.1831359863281 C 527.20166015625 439.9178161621094 528.366943359375 441.3714904785156 541.586181640625 428.0636901855469" stroke-width="0.0" fill="rgb(113, 0, 204)" opacity="0.9111104" stroke="rgb(0, 0, 0)" stroke-opacity="1.0" stroke-linecap="round" stroke-linejoin="round"/>
    <path d="M 329.31585693359375 493.35028076171875 C 343.9065856933594 471.35882568359375 324.23419189453125 461.417236328125 306.2806701660156 488.5335998535156 C 295.7053527832031 484.77325439453125 291.352783203125 480.669189453125 295.81475830078125 493.48956298828125 C 321.8045349121094 473.37841796875 342.7550964355469 486.85614013671875 338.6014709472656 479.3209533691406 C 352.7436828613281 472.832763671875 334.69061279296875 484.160888671875 329.31585693359375 493.35028076171875" stroke-width="0.0" fill="rgb(37, 127, 122)" opacity="0.0" stroke="rgb(0, 0, 0)" stroke-opacity="1.0" stroke-linecap="round" stroke-linejoin="round"/>
    <path d="M 501.1935729980469 439.7539978027344 C 502.95343017578125 450.4601745605469 481.7323913574219 443.5837097167969 458.844482421875 454.8059997558594 C 404.6321716308594 466.1332702636719 410.3832702636719 460.09271240234375 427.0098571777344 397.13079833984375 C 446.50372314453125 396.1467590332031 430.9294128417969 397.025634765625 459.9998474121094 369.9880676269531 C 502.782470703125 334.69915771484375 503.6325988769531 370.4410705566406 501.1935729980469 439.7539978027344" stroke-width="0.0" fill="rgb(66, 19, 199)" opacity="0.9638497" stroke="rgb(0, 0, 0)" stroke-opacity="1.0" stroke-linecap="round" stroke-linejoin="round"/>
    <path d="M 420.568603515625 403.8807067871094 C 430.2757568359375 425.63580322265625 397.808349609375 437.7351379394531 365.076416015625 424.7891845703125 C 393.2853088378906 407.6358337402344 370.2715759277344 414.96466064453125 379.85540771484375 373.2459716796875 C 382.4251708984375 360.62322998046875 395.7815246582031 355.6009826660156 396.60552978515625 366.76934814453125 C 410.7825622558594 360.4990234375 414.1441955566406 372.63775634765625 420.568603515625 403.8807067871094" stroke-width="0.0" fill="rgb(9, 35, 229)" opacity="0.53703105" stroke="rgb(0, 0, 0)" stroke-opacity="1.0" stroke-linecap="round" stroke-linejoin="round"/>
    <path d="M 273.1960144042969 116.48406219482422 C 253.0594482421875 99.1497802734375 237.08277893066406 104.84339141845703 212.9622039794922 123.8157730102539 C 285.7506408691406 155.45950317382812 264.5307922363281 131.83657836914062 203.6125030517578 119.41703033447266 C 242.0513153076172 120.38792419433594 229.83189392089844 118.56735229492188 243.4319305419922 103.67498016357422 C 276.7579650878906 120.31539916992188 256.3948669433594 149.41232299804688 273.1960144042969 116.48406219482422" stroke-width="0.0" fill="rgb(203, 90, 143)" opacity="0.6277322" stroke="rgb(0, 0, 0)" stroke-opacity="1.0" stroke-linecap="round" stroke-linejoin="round"/>
    <path d="M 107.11726379394531 417.0278625488281 C 110.15567779541016 443.3387451171875 95.9131088256836 451.7435607910156 67.47894287109375 447.27130126953125 C 54.86454772949219 456.2200927734375 59.344303131103516 429.534912109375 35.70805740356445 389.6195983886719 C 32.18418502807617 354.070556640625 23.611034393310547 359.291748046875 50.80857467651367 366.3363952636719 C 103.94871520996094 406.664794921875 120.2523193359375 404.374267578125 107.11726379394531 417.0278625488281" stroke-width="0.0" fill="rgb(132, 41, 255)" opacity="0.6020394" stroke="rgb(0, 0, 0)" stroke-opacity="1.0" stroke-linecap="round" stroke-linejoin="round"/>
    <path d="M 476.05401611328125 69.42003631591797 C 484.3064880371094 132.0608367919922 475.8249206542969 130.74913024902344 418.076904296875 128.56884765625 C 397.36578369140625 123.67285919189453 373.2978820800781 136.30567932128906 350.994384765625 110.93257904052734 C 354.8952941894531 -32.689552307128906 407.83642578125 -30.291234970092773 417.128662109375 40.360042572021484 C 437.0993347167969 8.44556999206543 456.8572998046875 13.215513229370117 476.05401611328125 69.42003631591797" stroke-width="0.0" fill="rgb(100, 0, 255)" opacity="0.9967117" stroke="rgb(0, 0, 0)" stroke-opacity="1.0" stroke-linecap="round" stroke-linejoin="round"/>
    <path d="M 210.79698181152344 23.841344833374023 C 219.68736267089844 14.07766056060791 210.81898498535156 14.340577125549316 196.08380126953125 22.280216217041016 C 170.2922821044922 30.57870864868164 186.40672302246094 27.122446060180664 207.11959838867188 15.857014656066895 C 199.5941619873047 25.972936630249023 203.1043701171875 14.157670974731445 200.37205505371094 -10.96065616607666 C 179.3634490966797 3.253525972366333 195.76058959960938 28.460308074951172 210.79698181152344 23.841344833374023" stroke-width="0.0" fill="rgb(90, 191, 135)" opacity="0.022354513" stroke="rgb(0, 0, 0)" stroke-opacity="1.0" stroke-linecap="round" stroke-linejoin="round"/>
    <path d="M 511.9643249511719 223.30503845214844 C 488.1596374511719 227.5175018310547 476.234375 203.97470092773438 478.3330383300781 187.21229553222656 C 496.03594970703125 177.68479919433594 466.6689453125 164.02635192871094 433.413330078125 162.68577575683594 C 445.0453186035156 160.295166015625 452.3144836425781 176.79840087890625 515.159912109375 164.78720092773438 C 526.1981201171875 141.9136962890625 523.2536010742188 180.3580322265625 511.9643249511719 223.30503845214844" stroke-width="0.0" fill="rgb(11, 77, 135)" opacity="0.18056737" stroke="rgb(0, 0, 0)" stroke-opacity="1.0" stroke-linecap="round" stroke-linejoin="round"/>
    <path d="M 414.95977783203125 284.693115234375 C 424.38360595703125 308.2373046875 417.2557373046875 324.519287109375 403.57086181640625 315.3897705078125 C 404.58770751953125 326.3304748535156 385.4727478027344 331.38885498046875 380.6798400878906 329.04742431640625 C 383.74420166015625 301.42510986328125 404.8804931640625 288.4712829589844 431.0587158203125 291.2179870605469 C 417.62646484375 312.8390197753906 413.95782470703125 305.7857971191406 414.95977783203125 284.693115234375" stroke-width="0.0" fill="rgb(76, 149, 91)" opacity="0.012955336" stroke="rgb(0, 0, 0)" stroke-opacity="1.0" stroke-linecap="round" stroke-linejoin="round"/>
    <path d="M 216.61886596679688 282.1345520019531 C 248.0930633544922 257.93768310546875 242.20156860351562 253.54261779785156 282.3492431640625 285.4702453613281 C 240.3975372314453 305.3864440917969 234.62876892089844 297.3721923828125 219.86849975585938 283.69012451171875 C 227.75762939453125 269.3166809082031 241.6297607421875 262.7525634765625 231.2313232421875 260.91314697265625 C 238.06546020507812 267.4026794433594 206.236572265625 253.79933166503906 216.61886596679688 282.1345520019531" stroke-width="0.0" fill="rgb(251, 7, 214)" opacity="1.0" stroke="rgb(0, 0, 0)" stroke-opacity="1.0" stroke-linecap="round" stroke-linejoin="round"/>
    <path d="M 268.6123046875 263.8382263183594 C 285.96551513671875 294.08673095703125 275.9731140136719 295.34039306640625 267.0938415527344 294.24017333984375 C 237.2808837890625 308.1397705078125 228.05435180664062 319.4013671875 211.82098388671875 319.5609436035156 C 251.31797790527344 308.97723388671875 271.0633850097656 300.12738037109375 304.9236755371094 307.2544250488281 C 306.1821594238281 291.06072998046875 293.060791015625 273.9201965332031 268.6123046875 263.8382263183594" stroke-width="0.0" fill="rgb(6, 192, 112)" opacity="0.08771726" stroke="rgb(0, 0, 0)" stroke-opacity="1.0" stroke-linecap="round" stroke-linejoin="round"/>
    <path d="M 48.366825103759766 104.38619995117188 C -18.636837005615234 109.4889907836914 -16.495380401611328 134.40940856933594 3.3958563804626465 187.4447479248047 C 58.71774673461914 167.13206481933594 39.3613166809082 144.8502197265625 36.03998565673828 116.07738494873047 C 55.5999641418457 126.19348907470703 66.77069854736328 117.3319091796875 60.48713684082031 148.26821899414062 C 63.11933898925781 157.91641235351562 64.82672882080078 145.2338104248047 48.366825103759766 104.38619995117188" stroke-width="0.0" fill="rgb(0, 50, 50)" opacity="0.3360595" stroke="rgb(0, 0, 0)" stroke-opacity="1.0" stroke-linecap="round" stroke-linejoin="round"/>
    <path d="M 441.8736267089844 166.768310546875 C 444.0867004394531 149.5811309814453 430.31243896484375 126.29602813720703 412.376953125 133.4864959716797 C 458.46807861328125 151.0814971923828 451.2164611816406 114.54037475585938 412.1402282714844 98.78842163085938 C 392.7452087402344 102.97503662109375 418.2643127441406 89.8468017578125 424.906494140625 106.33839416503906 C 441.9690856933594 122.29708862304688 437.8656311035156 124.66781616210938 441.8736267089844 166.768310546875" stroke-width="0.0" fill="rgb(17, 14, 183)" opacity="0.65363324" stroke="rgb(0, 0, 0)" stroke-opacity="1.0" stroke-linecap="round" stroke-linejoin="round"/>
    <path d="M 129.5061492919922 460.2531433105469 C 118.73988342285156 547.2314453125 99.38214111328125 540.1561889648438 68.7601318359375 469.96502685546875 C 41.966468811035156 466.4410705566406 37.93374252319336 461.7318115234375 21.31163215637207 502.2020568847656 C 7.182276725769043 395.8038330078125 -0.0630451887845993 381.61944580078125 63.70161056518555 439.2767333984375 C 66.35765838623047 462.04046630859375 90.64974975585938 445.2066650390625 129.5061492919922 460.2531433105469" stroke-width="0.0" fill="rgb(189, 0, 120)" opacity="0.57359487" stroke="rgb(0, 0, 0)" stroke-opacity="1.0" stroke-linecap="round" stroke-linejoin="round"/>
    <path d="M 489.5199890136719 40.00593566894531 C 519.39111328125 20.563928604125977 520.353515625 52.45627212524414 503.0314636230469 41.03832244873047 C 517.6782836914062 57.65395736694336 522.9738159179688 12.155355453491211 489.16387939453125 23.190229415893555 C 518.311279296875 71.14529418945312 484.29791259765625 59.125850677490234 465.8479309082031 56.59524917602539 C 522.3861694335938 30.336162567138672 510.43646240234375 20.475492477416992 489.5199890136719 40.00593566894531" stroke-width="0.0" fill="rgb(70, 0, 162)" opacity="0.41963303" stroke="rgb(0, 0, 0)" stroke-opacity="1.0" stroke-linecap="round" stroke-linejoin="round"/>
    <path d="M 325.2004699707031 298.1211242675781 C 312.9955139160156 306.89056396484375 321.00799560546875 347.634521484375 326.07781982421875 306.5577392578125 C 305.9881591796875 322.32794189453125 290.8152160644531 349.329833984375 314.06500244140625 324.0404357910156 C 305.8652038574219 280.89447021484375 312.24884033203125 272.68280029296875 301.4405822753906 287.87139892578125 C 313.52264404296875 286.33966064453125 318.38507080078125 293.81884765625 325.2004699707031 298.1211242675781" stroke-width="0.0" fill="rgb(139, 41, 0)" opacity="0.120810494" stroke="rgb(0, 0, 0)" stroke-opacity="1.0" stroke-linecap="round" stroke-linejoin="round"/>
    <path d="M 319.48284912109375 104.12521362304688 C 340.5102233886719 107.88093566894531 326.3211975097656 106.3168716430664 325.8487548828125 115.09654235839844 C 301.7730712890625 128.28286743164062 300.44476318359375 112.7801513671875 284.5782470703125 96.46658325195312 C 313.79229736328125 78.06451416015625 301.0350341796875 73.38729095458984 302.9900207519531 76.07868194580078 C 320.1194152832031 75.34625244140625 312.0838623046875 96.08373260498047 319.48284912109375 104.12521362304688" stroke-width="0.0" fill="rgb(193, 138, 244)" opacity="0.1924504" stroke="rgb(0, 0, 0)" stroke-opacity="1.0" stroke-linecap="round" stroke-linejoin="round"/>
    <path d="M 149.0880889892578 74.27978515625 C 146.79022216796875 72.74542236328125 169.38034057617188 100.66424560546875 149.43280029296875 125.0325698852539 C 85.22281646728516 134.64352416992188 91.60282897949219 110.98892211914062 84.83026885986328 109.09061431884766 C 85.92333221435547 93.69729614257812 90.72368621826172 87.84891510009766 107.41409301757812 72.44918060302734 C 122.28248596191406 71.03412628173828 136.13218688964844 61.05697250366211 149.0880889892578 74.27978515625" stroke-width="0.0" fill="rgb(255, 30, 251)" opacity="1.0" stroke="rgb(0, 0, 0)" stroke-opacity="1.0" stroke-linecap="round" stroke-linejoin="round"/>
    <path d="M 489.5447082519531 483.9599304199219 C 451.171630859375 526.0455322265625 433.9443359375 511.7711181640625 424.4086608886719 536.5899047851562 C 409.1069641113281 524.2987670898438 407.98870849609375 501.3935852050781 401.90020751953125 497.74481201171875 C 410.17071533203125 437.76263427734375 410.2604064941406 441.60723876953125 447.6398010253906 430.8535461425781 C 502.1467590332031 431.95184326171875 496.44866943359375 435.91229248046875 489.5447082519531 483.9599304199219" stroke-width="0.0" fill="rgb(61, 4, 165)" opacity="0.63130873" stroke="rgb(0, 0, 0)" stroke-opacity="1.0" stroke-linecap="round" stroke-linejoin="round"/>
    <path d="M 194.8527374267578 89.45904541015625 C 176.64645385742188 91.47209930419922 172.15464782714844 97.71757507324219 190.75039672851562 132.3321990966797 C 180.21212768554688 116.62926483154297 183.65199279785156 79.32778930664062 177.06097412109375 102.17423248291016 C 182.38584899902344 82.82633209228516 176.2463836669922 63.87963104248047 177.62255859375 80.53209686279297 C 171.18446350097656 73.99325561523438 170.47816467285156 84.59359741210938 194.8527374267578 89.45904541015625" stroke-width="0.0" fill="rgb(22, 82, 31)" opacity="0.016081216" stroke="rgb(0, 0, 0)" stroke-opacity="1.0" stroke-linecap="round" stroke-linejoin="round"/>
    <path d="M 325.3020324707031 240.3690948486328 C 293.4844970703125 247.00218200683594 272.8446350097656 245.1725616455078 241.78456115722656 259.9100036621094 C 242.6303253173828 298.4355163574219 263.3980407714844 273.45794677734375 262.3509521484375 201.76856994628906 C 244.43919372558594 190.59193420410156 253.53807067871094 189.78395080566406 266.0339050292969 213.46519470214844 C 319.119140625 205.0385284423828 332.8848876953125 195.6931610107422 325.3020324707031 240.3690948486328" stroke-width="0.0" fill="rgb(244, 255, 158)" opacity="1.0" stroke="rgb(0, 0, 0)" stroke-opacity="1.0" stroke-linecap="round" stroke-linejoin="round"/>
    <path d="M 506.3337707519531 -16.178977966308594 C 511.5788269042969 16.44768524169922 509.94061279296875 39.71348190307617 476.7652893066406 66.50598907470703 C 474.1123352050781 -8.335371971130371 488.1001892089844 -5.036936283111572 487.1632080078125 -13.461907386779785 C 443.02642822265625 -11.118226051330566 452.07421875 -16.323915481567383 468.9326477050781 -24.078956604003906 C 479.8610534667969 -21.160579681396484 486.96954345703125 -13.935059547424316 506.3337707519531 -16.178977966308594" stroke-width="0.0" fill="rgb(136, 0, 219)" opacity="0.25632128" stroke="rgb(0, 0, 0)" stroke-opacity="1.0" stroke-linecap="round" stroke-linejoin="round"/>
    <path d="M 177.99700927734375 460.46038818359375 C 188.35438537597656 463.8210144042969 184.88478088378906 442.5381774902344 151.90638732910156 429.6084899902344 C 143.3249053955078 434.6896667480469 126.1270980834961 425.0154724121094 143.54722595214844 452.3246154785156 C 167.0128173828125 457.20623779296875 156.84262084960938 420.2654113769531 123.21672821044922 406.41217041015625 C 144.82791137695312 411.8416442871094 164.9156494140625 435.99462890625 177.99700927734375 460.46038818359375" stroke-width="0.0" fill="rgb(66, 85, 110)" opacity="0.009241067" stroke="rgb(0, 0, 0)" stroke-opacity="1.0" stroke-linecap="round" stroke-linejoin="round"/>
  </g>
</svg>
