<?xml version="1.0" ?>
<svg xmlns="http://www.w3.org/2000/svg" version="1.1" width="512" height="512">
  <defs/>
  <g>
    <path d="M 547.52099609375 448.9068298339844 C 548.0579833984375 517.3278198242188 548.9373779296875 525.5354614257812 398.80230712890625 523.810546875 C 332.47186279296875 550.3038940429688 314.53424072265625 547.1466064453125 273.6416320800781 495.87530517578125 C 319.455322265625 313.1664733886719 350.5932312011719 307.7605285644531 455.9862060546875 282.79449462890625 C 572.5964965820312 303.2030944824219 575.1575927734375 319.7640686035156 547.52099609375 448.9068298339844" stroke-width="0.0" fill="rgb(215, 36, 15)" opacity="0.6973263" stroke="rgb(0, 0, 0)" stroke-opacity="1.0" stroke-linecap="round" stroke-linejoin="round"/>
    <path d="M 246.78207397460938 452.300048828125 C 387.2741394042969 472.41107177734375 390.99462890625 521.2125854492188 183.3851318359375 551.6906127929688 C -51.20000076293945 517.7235107421875 -51.20000076293945 507.83367919921875 -21.774600982666016 449.183837890625 C -18.38620376586914 205.44985961914062 -18.693912506103516 199.01014709472656 -27.899381637573242 267.3224792480469 C 206.93154907226562 323.716064453125 272.1315612792969 247.22100830078125 246.78207397460938 452.300048828125" stroke-width="0.0" fill="rgb(0, 0, 254)" opacity="1.0" stroke="rgb(0, 0, 0)" stroke-opacity="1.0" stroke-linecap="round" stroke-linejoin="round"/>
    <path d="M 291.7884521484375 324.4287109375 C 230.3312530517578 441.80084228515625 238.5814666748047 464.5443420410156 230.28131103515625 327.2371826171875 C 60.7553825378418 305.7904968261719 5.690942287445068 380.48516845703125 15.475508689880371 185.0985107421875 C 17.39763832092285 174.1873016357422 11.371525764465332 147.7073516845703 85.4883041381836 111.46308898925781 C 262.7775573730469 135.47998046875 286.0360412597656 123.83077239990234 291.7884521484375 324.4287109375" stroke-width="0.0" fill="rgb(0, 121, 191)" opacity="0.47517878" stroke="rgb(0, 0, 0)" stroke-opacity="1.0" stroke-linecap="round" stroke-linejoin="round"/>
    <path d="M 310.7027282714844 40.293087005615234 C 322.5391540527344 232.23611450195312 254.94886779785156 204.20140075683594 56.09039306640625 222.18374633789062 C -30.635650634765625 214.2200469970703 -40.373600006103516 196.60548400878906 -38.22661590576172 70.79948425292969 C -14.989005088806152 -15.722881317138672 -7.218327522277832 -19.66063117980957 59.301971435546875 -14.158069610595703 C 185.8053436279297 -18.546968460083008 224.54869079589844 -38.7280387878418 310.7027282714844 40.293087005615234" stroke-width="0.0" fill="rgb(11, 2, 214)" opacity="0.9942477" stroke="rgb(0, 0, 0)" stroke-opacity="1.0" stroke-linecap="round" stroke-linejoin="round"/>
    <path d="M 528.4388427734375 45.090606689453125 C 419.03369140625 264.8330383300781 431.984130859375 290.4984130859375 417.86236572265625 322.4836120605469 C 288.4864807128906 309.00048828125 255.32882690429688 327.4970397949219 274.84954833984375 178.97677612304688 C 248.23155212402344 5.177663326263428 168.75221252441406 -21.465112686157227 274.4177551269531 -58.03969192504883 C 563.2000122070312 -6.244815349578857 563.2000122070312 4.452378749847412 528.4388427734375 45.090606689453125" stroke-width="0.0" fill="rgb(107, 0, 141)" opacity="0.8714508" stroke="rgb(0, 0, 0)" stroke-opacity="1.0" stroke-linecap="round" stroke-linejoin="round"/>
    <path d="M 484.2940368652344 349.75213623046875 C 489.17462158203125 431.38299560546875 504.1030578613281 511.5147705078125 298.8240051269531 551.090087890625 C 181.84515380859375 544.97119140625 199.31849670410156 528.7802124023438 232.5252227783203 449.298828125 C 220.5426025390625 207.9945526123047 271.9942932128906 217.3086700439453 287.9845886230469 268.83551025390625 C 418.79058837890625 277.91949462890625 460.77227783203125 269.94329833984375 484.2940368652344 349.75213623046875" stroke-width="0.0" fill="rgb(108, 47, 128)" opacity="0.6528283" stroke="rgb(0, 0, 0)" stroke-opacity="1.0" stroke-linecap="round" stroke-linejoin="round"/>
    <path d="M 530.1041259765625 202.9637451171875 C 548.013671875 318.6736145019531 557.2379150390625 323.7688293457031 482.7774658203125 316.4854431152344 C 353.3248596191406 347.823486328125 383.2216491699219 339.88702392578125 422.0904846191406 228.8430938720703 C 454.6935729980469 76.83045196533203 396.2217712402344 46.532047271728516 496.71942138671875 50.10090255737305 C 572.4193725585938 29.16318130493164 600.028564453125 67.21623992919922 530.1041259765625 202.9637451171875" stroke-width="0.0" fill="rgb(184, 65, 87)" opacity="1.0" stroke="rgb(0, 0, 0)" stroke-opacity="1.0" stroke-linecap="round" stroke-linejoin="round"/>
    <path d="M 331.0506591796875 232.0712890625 C 300.1596374511719 343.07562255859375 315.2295227050781 303.9501037597656 234.14102172851562 303.7976989746094 C 245.1663818359375 260.4339599609375 273.38330078125 274.4767150878906 177.28067016601562 234.23873901367188 C 134.62692260742188 175.7806854248047 128.44520568847656 162.51097106933594 220.4999237060547 184.19134521484375 C 277.9690246582031 199.86053466796875 283.0254821777344 179.80723571777344 331.0506591796875 232.0712890625" stroke-width="0.0" fill="rgb(255, 252, 45)" opacity="1.0" stroke="rgb(0, 0, 0)" stroke-opacity="1.0" stroke-linecap="round" stroke-linejoin="round"/>
    <path d="M 267.3948669433594 66.21904754638672 C 247.28564453125 101.376220703125 257.2826843261719 105.81816864013672 267.6146545410156 105.36827087402344 C 260.66534423828125 108.07780456542969 266.22894287109375 90.0201644897461 212.31112670898438 82.55892181396484 C 217.07798767089844 76.10728454589844 219.0585479736328 57.85791778564453 206.79661560058594 76.438720703125 C 214.00531005859375 93.3991928100586 253.4851531982422 62.227569580078125 267.3948669433594 66.21904754638672" stroke-width="0.0" fill="rgb(163, 114, 248)" opacity="0.5496411" stroke="rgb(0, 0, 0)" stroke-opacity="1.0" stroke-linecap="round" stroke-linejoin="round"/>
    <path d="M 182.4600067138672 293.7549743652344 C 174.4044189453125 438.5625915527344 247.46380615234375 453.1772155761719 196.57672119140625 463.4112854003906 C 184.54965209960938 403.3504333496094 168.89010620117188 372.8040466308594 167.76197814941406 343.7039794921875 C 190.0665283203125 362.1550598144531 167.28482055664062 354.9976806640625 174.81417846679688 336.2373352050781 C 195.98794555664062 339.1802062988281 198.11732482910156 346.7040710449219 182.4600067138672 293.7549743652344" stroke-width="0.0" fill="rgb(251, 255, 104)" opacity="0.99586535" stroke="rgb(0, 0, 0)" stroke-opacity="1.0" stroke-linecap="round" stroke-linejoin="round"/>
    <path d="M 255.48643493652344 226.2013397216797 C 202.35279846191406 247.8509521484375 211.78353881835938 299.7763671875 231.52316284179688 319.8563232421875 C 156.27658081054688 344.734375 262.8866271972656 331.1068420410156 263.8031311035156 260.5544128417969 C 53.6853141784668 125.17447662353516 -16.892288208007812 132.6865234375 230.91787719726562 64.93397521972656 C 141.4154052734375 176.44723510742188 184.70037841796875 117.1625747680664 255.48643493652344 226.2013397216797" stroke-width="0.0" fill="rgb(255, 255, 4)" opacity="0.9984119" stroke="rgb(0, 0, 0)" stroke-opacity="1.0" stroke-linecap="round" stroke-linejoin="round"/>
    <path d="M 168.3088836669922 220.84030151367188 C 102.940673828125 215.3159942626953 68.16433715820312 279.0701904296875 97.24864196777344 299.9048156738281 C 114.69400024414062 407.8636779785156 93.17889404296875 393.16748046875 -11.410280227661133 281.8030700683594 C -58.765689849853516 75.33323669433594 -41.896480560302734 109.33304595947266 72.55197143554688 125.1328125 C 136.46652221679688 218.99391174316406 176.3050994873047 235.9721221923828 168.3088836669922 220.84030151367188" stroke-width="0.0" fill="rgb(0, 10, 235)" opacity="0.9983273" stroke="rgb(0, 0, 0)" stroke-opacity="1.0" stroke-linecap="round" stroke-linejoin="round"/>
    <path d="M 239.04119873046875 32.43378829956055 C 226.66835021972656 109.12250518798828 222.0048065185547 139.9217529296875 172.48922729492188 119.62743377685547 C 144.1964111328125 117.7369384765625 82.52780151367188 137.1851806640625 68.69129943847656 71.34239196777344 C 40.900413513183594 -44.33583068847656 32.396690368652344 -51.973114013671875 173.07113647460938 -47.68815994262695 C 203.8335418701172 -24.186656951904297 195.05068969726562 18.40608024597168 239.04119873046875 32.43378829956055" stroke-width="0.0" fill="rgb(48, 18, 228)" opacity="0.8872181" stroke="rgb(0, 0, 0)" stroke-opacity="1.0" stroke-linecap="round" stroke-linejoin="round"/>
    <path d="M 291.588134765625 133.59483337402344 C 352.56976318359375 211.15391540527344 328.58990478515625 256.374755859375 290.2037048339844 171.27964782714844 C 210.54791259765625 140.5460662841797 294.7701416015625 152.076171875 212.82859802246094 87.91108703613281 C 248.2102508544922 49.16956329345703 277.3067626953125 128.85354614257812 306.56158447265625 151.21517944335938 C 289.9850158691406 184.67129516601562 302.988037109375 143.36854553222656 291.588134765625 133.59483337402344" stroke-width="0.0" fill="rgb(6, 15, 227)" opacity="0.4139176" stroke="rgb(0, 0, 0)" stroke-opacity="1.0" stroke-linecap="round" stroke-linejoin="round"/>
    <path d="M 87.41505432128906 256.2410583496094 C 65.35316467285156 328.54571533203125 116.4818344116211 324.00262451171875 101.26656341552734 331.5127868652344 C 128.7454071044922 331.83990478515625 97.15449523925781 326.53240966796875 103.25398254394531 330.05560302734375 C 107.9290771484375 323.5476379394531 82.36463165283203 312.9706726074219 92.94954681396484 348.58953857421875 C 31.14676284790039 423.76812744140625 10.790569305419922 289.9810485839844 87.41505432128906 256.2410583496094" stroke-width="0.0" fill="rgb(254, 254, 1)" opacity="0.9988693" stroke="rgb(0, 0, 0)" stroke-opacity="1.0" stroke-linecap="round" stroke-linejoin="round"/>
    <path d="M 179.21868896484375 114.61701202392578 C 206.12355041503906 143.86376953125 157.49998474121094 79.235107421875 181.86700439453125 119.86077117919922 C 230.43402099609375 46.814998626708984 217.03018188476562 139.014892578125 158.2197723388672 83.64464569091797 C 237.02694702148438 113.59900665283203 219.4502410888672 62.02872848510742 191.99253845214844 57.13437271118164 C 165.30319213867188 36.00660705566406 185.8214569091797 72.4264144897461 179.21868896484375 114.61701202392578" stroke-width="0.0" fill="rgb(255, 255, 1)" opacity="1.0" stroke="rgb(0, 0, 0)" stroke-opacity="1.0" stroke-linecap="round" stroke-linejoin="round"/>
    <path d="M 287.5187072753906 438.61065673828125 C 244.7921142578125 438.3815002441406 220.8696746826172 456.392822265625 268.14398193359375 460.68646240234375 C 246.31210327148438 453.50384521484375 224.61598205566406 490.0895690917969 185.37344360351562 500.9421081542969 C 192.5606231689453 281.6087951660156 182.1227264404297 321.64202880859375 183.3046112060547 484.359375 C 305.80194091796875 463.635009765625 287.44464111328125 454.1150817871094 287.5187072753906 438.61065673828125" stroke-width="0.0" fill="rgb(203, 135, 143)" opacity="0.15879701" stroke="rgb(0, 0, 0)" stroke-opacity="1.0" stroke-linecap="round" stroke-linejoin="round"/>
    <path d="M 166.35543823242188 252.07887268066406 C 180.97216796875 285.4585876464844 150.6431884765625 304.146240234375 147.90325927734375 299.0337219238281 C 183.12997436523438 272.5566101074219 174.3983917236328 263.79632568359375 123.01111602783203 290.3076171875 C 133.95668029785156 302.04876708984375 116.78115844726562 304.2726745605469 136.96861267089844 274.4840393066406 C 126.71180725097656 276.4277038574219 121.93460845947266 265.9932861328125 166.35543823242188 252.07887268066406" stroke-width="0.0" fill="rgb(94, 247, 162)" opacity="0.2348765" stroke="rgb(0, 0, 0)" stroke-opacity="1.0" stroke-linecap="round" stroke-linejoin="round"/>
    <path d="M 194.85665893554688 64.1760482788086 C 186.95013427734375 123.24934387207031 215.05670166015625 122.19129180908203 227.83816528320312 163.89988708496094 C 163.3693084716797 155.13360595703125 174.3162384033203 146.1626434326172 174.43373107910156 112.77971649169922 C 174.9386444091797 105.61202239990234 180.06495666503906 93.83477783203125 176.54550170898438 91.62081146240234 C 161.19131469726562 76.76158142089844 170.16384887695312 94.89015197753906 194.85665893554688 64.1760482788086" stroke-width="0.0" fill="rgb(255, 255, 98)" opacity="1.0" stroke="rgb(0, 0, 0)" stroke-opacity="1.0" stroke-linecap="round" stroke-linejoin="round"/>
    <path d="M 364.1059875488281 268.7142333984375 C 350.8272705078125 283.3165588378906 376.0298767089844 282.5694580078125 327.72735595703125 264.1986389160156 C 291.5797424316406 270.0672302246094 313.5362548828125 293.6518249511719 301.47442626953125 213.0469207763672 C 332.9681396484375 215.7262420654297 336.2721862792969 219.74513244628906 367.3126220703125 241.10693359375 C 371.0212097167969 256.83575439453125 372.8048095703125 238.49130249023438 364.1059875488281 268.7142333984375" stroke-width="0.0" fill="rgb(255, 220, 45)" opacity="0.99167216" stroke="rgb(0, 0, 0)" stroke-opacity="1.0" stroke-linecap="round" stroke-linejoin="round"/>
    <path d="M 156.3307342529297 266.3924560546875 C 156.8833465576172 276.3727111816406 152.67333984375 285.0330810546875 139.89532470703125 262.1121520996094 C 151.3546142578125 274.6627502441406 145.24427795410156 285.29425048828125 132.1834259033203 266.8059387207031 C 160.0726318359375 248.53746032714844 149.24176025390625 243.97377014160156 151.03919982910156 182.1655731201172 C 193.47811889648438 219.8321075439453 166.8775177001953 219.5821075439453 156.3307342529297 266.3924560546875" stroke-width="0.0" fill="rgb(254, 249, 71)" opacity="0.9979961" stroke="rgb(0, 0, 0)" stroke-opacity="1.0" stroke-linecap="round" stroke-linejoin="round"/>
    <path d="M 195.0046844482422 83.11829376220703 C 183.60177612304688 80.78269958496094 190.79962158203125 122.8165054321289 168.65211486816406 129.650634765625 C 146.5886688232422 139.6181182861328 122.9555435180664 131.00576782226562 114.05529022216797 64.55330657958984 C 172.67483520507812 80.55329895019531 198.29229736328125 38.4963493347168 179.86331176757812 44.86386489868164 C 157.70968627929688 71.9708251953125 185.28822326660156 90.62737274169922 195.0046844482422 83.11829376220703" stroke-width="0.0" fill="rgb(255, 253, 0)" opacity="1.0" stroke="rgb(0, 0, 0)" stroke-opacity="1.0" stroke-linecap="round" stroke-linejoin="round"/>
    <path d="M 267.7624816894531 452.8247985839844 C 269.8841857910156 457.2894287109375 282.8802185058594 442.53173828125 259.5110168457031 451.6971740722656 C 232.8265380859375 474.04534912109375 220.0872039794922 480.22991943359375 210.76727294921875 505.5458984375 C 208.51446533203125 448.5744323730469 227.6314239501953 465.6408996582031 233.33038330078125 435.40643310546875 C 240.37677001953125 449.33843994140625 253.0675811767578 471.182373046875 267.7624816894531 452.8247985839844" stroke-width="0.0" fill="rgb(1, 3, 244)" opacity="0.9088525" stroke="rgb(0, 0, 0)" stroke-opacity="1.0" stroke-linecap="round" stroke-linejoin="round"/>
    <path d="M 379.3017883300781 259.64801025390625 C 368.95294189453125 249.33871459960938 351.33929443359375 243.56752014160156 304.6217346191406 225.92825317382812 C 288.5826721191406 230.89181518554688 298.4610900878906 233.1460723876953 281.7088928222656 228.69699096679688 C 282.33892822265625 235.48377990722656 307.1192932128906 227.35357666015625 321.60247802734375 227.57394409179688 C 367.9382019042969 249.23123168945312 352.68798828125 251.4062957763672 379.3017883300781 259.64801025390625" stroke-width="0.0" fill="rgb(255, 183, 42)" opacity="0.42236054" stroke="rgb(0, 0, 0)" stroke-opacity="1.0" stroke-linecap="round" stroke-linejoin="round"/>
    <path d="M 138.00765991210938 107.9531478881836 C 128.8050537109375 146.74481201171875 132.0586700439453 143.9466094970703 122.99188232421875 155.73556518554688 C 64.25606536865234 189.6256866455078 67.9837646484375 155.643310546875 112.61739349365234 111.17433166503906 C 98.08403778076172 102.25582885742188 89.7685546875 82.82292938232422 95.19224548339844 68.11505889892578 C 138.10072326660156 82.60755920410156 150.66624450683594 104.102783203125 138.00765991210938 107.9531478881836" stroke-width="0.0" fill="rgb(255, 249, 0)" opacity="1.0" stroke="rgb(0, 0, 0)" stroke-opacity="1.0" stroke-linecap="round" stroke-linejoin="round"/>
    <path d="M 107.6998519897461 349.779052734375 C 97.55570983886719 367.2749328613281 89.22896575927734 368.44146728515625 81.40647888183594 414.88507080078125 C 81.0972671508789 399.5707092285156 87.77531433105469 345.04754638671875 87.84271240234375 358.68426513671875 C 94.0349349975586 361.6153259277344 84.31980895996094 358.2272644042969 104.363037109375 336.3271484375 C 108.63409423828125 296.6248474121094 120.26078796386719 310.8841552734375 107.6998519897461 349.779052734375" stroke-width="0.0" fill="rgb(42, 210, 165)" opacity="0.64078885" stroke="rgb(0, 0, 0)" stroke-opacity="1.0" stroke-linecap="round" stroke-linejoin="round"/>
    <path d="M 82.8886489868164 431.3074645996094 C 103.83818817138672 474.12213134765625 101.24476623535156 448.92901611328125 81.90906524658203 463.4894714355469 C 70.5816421508789 467.15472412109375 88.19766235351562 464.4604797363281 67.9554214477539 436.0399475097656 C 74.04271697998047 418.2022399902344 84.63971710205078 376.083251953125 89.06233215332031 373.0736999511719 C 90.61231994628906 365.18212890625 85.56063079833984 371.0075378417969 82.8886489868164 431.3074645996094" stroke-width="0.0" fill="rgb(234, 229, 107)" opacity="0.95661294" stroke="rgb(0, 0, 0)" stroke-opacity="1.0" stroke-linecap="round" stroke-linejoin="round"/>
    <path d="M 109.44273376464844 104.68656921386719 C 98.58985900878906 135.8056640625 121.46028137207031 122.72671508789062 125.4786148071289 114.2801284790039 C 71.20055389404297 94.69450378417969 84.50909423828125 101.6629867553711 101.82355499267578 113.9566879272461 C 88.29932403564453 104.05104064941406 100.16737365722656 120.85371398925781 131.3765106201172 124.44330596923828 C 121.90583801269531 100.06183624267578 140.10089111328125 110.28277587890625 109.44273376464844 104.68656921386719" stroke-width="0.0" fill="rgb(26, 17, 170)" opacity="0.92246383" stroke="rgb(0, 0, 0)" stroke-opacity="1.0" stroke-linecap="round" stroke-linejoin="round"/>
    <path d="M 87.3269271850586 103.4703598022461 C 52.64140319824219 139.48878479003906 35.988975524902344 134.20542907714844 55.00963592529297 139.02987670898438 C 57.75027084350586 125.79906463623047 48.96562194824219 136.8774871826172 47.70075225830078 136.2103729248047 C 50.93317413330078 117.1139907836914 58.27156066894531 114.43290710449219 59.378562927246094 120.4272689819336 C 68.94976043701172 92.85177612304688 85.51972961425781 100.6546630859375 87.3269271850586 103.4703598022461" stroke-width="0.0" fill="rgb(36, 6, 181)" opacity="0.01042895" stroke="rgb(0, 0, 0)" stroke-opacity="1.0" stroke-linecap="round" stroke-linejoin="round"/>
    <path d="M 44.933982849121094 310.0688781738281 C 46.133636474609375 364.5505676269531 33.95087432861328 364.4595642089844 22.983196258544922 327.085693359375 C 29.229690551757812 322.8909912109375 33.1934700012207 320.35040283203125 33.12702560424805 319.339111328125 C 37.36610794067383 305.58978271484375 57.42842102050781 307.1281433105469 45.902645111083984 318.7904357910156 C 37.465606689453125 307.3406066894531 51.15836715698242 297.3781433105469 44.933982849121094 310.0688781738281" stroke-width="0.0" fill="rgb(70, 7, 239)" opacity="0.6845629" stroke="rgb(0, 0, 0)" stroke-opacity="1.0" stroke-linecap="round" stroke-linejoin="round"/>
    <path d="M 386.9659423828125 250.18289184570312 C 388.417236328125 302.4525451660156 397.70379638671875 305.043212890625 366.6541442871094 287.2569580078125 C 357.2464294433594 266.4879455566406 369.1962890625 269.8344421386719 376.966064453125 246.30625915527344 C 376.085205078125 249.73915100097656 380.1484069824219 245.7334442138672 392.3639221191406 226.17433166503906 C 395.85504150390625 233.58547973632812 380.64593505859375 239.37457275390625 386.9659423828125 250.18289184570312" stroke-width="0.0" fill="rgb(172, 99, 120)" opacity="0.5820724" stroke="rgb(0, 0, 0)" stroke-opacity="1.0" stroke-linecap="round" stroke-linejoin="round"/>
    <path d="M 185.78158569335938 239.7622833251953 C 192.46717834472656 259.22235107421875 200.2090301513672 264.4267883300781 188.83746337890625 273.10162353515625 C 185.33740234375 250.57113647460938 176.6306610107422 255.41053771972656 160.0869140625 267.6783752441406 C 157.98118591308594 270.2235107421875 142.73902893066406 245.75111389160156 179.02134704589844 242.89495849609375 C 183.9945068359375 246.79788208007812 174.4283447265625 241.16592407226562 185.78158569335938 239.7622833251953" stroke-width="0.0" fill="rgb(186, 197, 136)" opacity="0.22621933" stroke="rgb(0, 0, 0)" stroke-opacity="1.0" stroke-linecap="round" stroke-linejoin="round"/>
    <path d="M 193.3834686279297 252.76768493652344 C 192.90293884277344 211.52975463867188 202.1981964111328 244.32264709472656 206.1684112548828 248.18846130371094 C 208.42506408691406 267.36529541015625 186.18914794921875 262.6476135253906 153.82713317871094 259.1599426269531 C 164.84097290039062 241.85333251953125 175.66073608398438 226.70350646972656 219.02854919433594 163.4084930419922 C 229.7424774169922 223.37188720703125 254.9476776123047 279.8803405761719 193.3834686279297 252.76768493652344" stroke-width="0.0" fill="rgb(65, 255, 250)" opacity="0.55336654" stroke="rgb(0, 0, 0)" stroke-opacity="1.0" stroke-linecap="round" stroke-linejoin="round"/>
    <path d="M 203.24671936035156 341.7559509277344 C 187.3178253173828 311.8408203125 165.8712158203125 333.46673583984375 164.41639709472656 365.2525634765625 C 178.3642578125 372.72796630859375 166.8176727294922 346.3997802734375 178.86839294433594 314.5787353515625 C 195.36431884765625 299.3740539550781 201.2718505859375 313.372314453125 183.1065673828125 337.525390625 C 164.79019165039062 341.9389343261719 192.56234741210938 345.56207275390625 203.24671936035156 341.7559509277344" stroke-width="0.0" fill="rgb(29, 124, 110)" opacity="0.46374562" stroke="rgb(0, 0, 0)" stroke-opacity="1.0" stroke-linecap="round" stroke-linejoin="round"/>
    <path d="M 83.95912170410156 141.6319122314453 C 89.1475601196289 150.63174438476562 73.75090789794922 167.0083770751953 80.75254821777344 136.89447021484375 C 63.29627990722656 137.7157440185547 73.54972839355469 128.8475799560547 75.34426879882812 122.80567169189453 C 69.26338195800781 132.40029907226562 73.96148681640625 117.8154067993164 104.48861694335938 100.95143127441406 C 79.08201599121094 82.7765121459961 80.84733581542969 96.82205963134766 83.95912170410156 141.6319122314453" stroke-width="0.0" fill="rgb(94, 30, 218)" opacity="0.16198991" stroke="rgb(0, 0, 0)" stroke-opacity="1.0" stroke-linecap="round" stroke-linejoin="round"/>
    <path d="M 65.4545669555664 107.63723754882812 C 93.01032257080078 151.8585968017578 88.84465026855469 173.5774688720703 15.950491905212402 157.44793701171875 C 13.918549537658691 151.8699951171875 -13.223001480102539 159.3878173828125 -27.213470458984375 110.531982421875 C 4.944632053375244 87.38258361816406 13.406118392944336 102.24789428710938 40.382301330566406 98.21142578125 C 38.702999114990234 105.38785552978516 67.20195007324219 117.01835632324219 65.4545669555664 107.63723754882812" stroke-width="0.0" fill="rgb(4, 15, 207)" opacity="0.13548708" stroke="rgb(0, 0, 0)" stroke-opacity="1.0" stroke-linecap="round" stroke-linejoin="round"/>
    <path d="M 110.51607513427734 172.81771850585938 C 157.33497619628906 154.03790283203125 144.9197235107422 185.0363311767578 85.24348449707031 174.07278442382812 C 94.09784698486328 157.4833984375 83.34786987304688 178.6561737060547 108.27513122558594 162.750732421875 C 90.88326263427734 125.05543518066406 139.5668182373047 126.93051147460938 137.3826904296875 115.75806427001953 C 110.9960708618164 155.71731567382812 104.53396606445312 158.1815185546875 110.51607513427734 172.81771850585938" stroke-width="0.0" fill="rgb(16, 2, 211)" opacity="0.39917275" stroke="rgb(0, 0, 0)" stroke-opacity="1.0" stroke-linecap="round" stroke-linejoin="round"/>
    <path d="M 451.0607604980469 207.15139770507812 C 468.2173156738281 282.0865783691406 431.41070556640625 332.0523986816406 359.7957458496094 301.53179931640625 C 328.0033264160156 232.69285583496094 342.1707458496094 258.68115234375 400.3709411621094 230.47833251953125 C 355.42755126953125 180.81280517578125 331.1116027832031 180.89910888671875 320.14410400390625 140.5554962158203 C 371.33087158203125 139.63999938964844 419.1354064941406 142.47056579589844 451.0607604980469 207.15139770507812" stroke-width="0.0" fill="rgb(255, 255, 30)" opacity="1.0" stroke="rgb(0, 0, 0)" stroke-opacity="1.0" stroke-linecap="round" stroke-linejoin="round"/>
    <path d="M 335.82891845703125 139.2735595703125 C 322.91583251953125 190.16757202148438 324.1531982421875 214.82896423339844 296.4775390625 215.75755310058594 C 271.4229736328125 195.9534454345703 272.7937316894531 190.27645874023438 295.5815734863281 140.87791442871094 C 301.5694580078125 133.4667510986328 274.5443420410156 126.71083068847656 295.9761962890625 145.83584594726562 C 320.0555419921875 132.92916870117188 309.6719055175781 118.798828125 335.82891845703125 139.2735595703125" stroke-width="0.0" fill="rgb(197, 254, 71)" opacity="0.9044566" stroke="rgb(0, 0, 0)" stroke-opacity="1.0" stroke-linecap="round" stroke-linejoin="round"/>
    <path d="M 151.2078399658203 10.125286102294922 C 156.2179718017578 22.533044815063477 145.13156127929688 51.896514892578125 129.7447509765625 48.630126953125 C 112.15422058105469 69.5289077758789 109.9802017211914 45.30888748168945 109.73843383789062 41.18180465698242 C 116.8078842163086 26.183332443237305 109.38456726074219 13.483342170715332 124.25894927978516 19.565454483032227 C 143.88209533691406 16.350791931152344 144.85183715820312 24.65316390991211 151.2078399658203 10.125286102294922" stroke-width="0.0" fill="rgb(54, 24, 153)" opacity="0.0020306588" stroke="rgb(0, 0, 0)" stroke-opacity="1.0" stroke-linecap="round" stroke-linejoin="round"/>
    <path d="M 65.58042907714844 351.8742980957031 C 70.38835906982422 360.4576721191406 52.12561798095703 374.90283203125 27.39763069152832 349.82427978515625 C 15.615691184997559 324.1062316894531 20.206439971923828 325.618896484375 27.87482452392578 314.0373229980469 C 36.57219314575195 317.35638427734375 25.328502655029297 290.18560791015625 61.208717346191406 266.38824462890625 C 46.0966796875 312.23541259765625 72.97505950927734 341.7931823730469 65.58042907714844 351.8742980957031" stroke-width="0.0" fill="rgb(0, 6, 237)" opacity="1.0" stroke="rgb(0, 0, 0)" stroke-opacity="1.0" stroke-linecap="round" stroke-linejoin="round"/>
    <path d="M 267.2262878417969 55.4476318359375 C 260.00830078125 53.668312072753906 225.15988159179688 79.25713348388672 279.6952209472656 109.4636459350586 C 312.97198486328125 65.26596069335938 281.92962646484375 37.7661018371582 254.61965942382812 43.033016204833984 C 255.99957275390625 69.96904754638672 246.3739013671875 57.75407791137695 254.35726928710938 68.258544921875 C 265.3085632324219 34.07240295410156 262.6565856933594 14.500005722045898 267.2262878417969 55.4476318359375" stroke-width="0.0" fill="rgb(15, 0, 161)" opacity="0.41087452" stroke="rgb(0, 0, 0)" stroke-opacity="1.0" stroke-linecap="round" stroke-linejoin="round"/>
    <path d="M 113.03436279296875 319.0987243652344 C 119.15111541748047 316.3429870605469 116.93966674804688 351.0935363769531 92.18111419677734 375.9934997558594 C 101.85553741455078 363.0196228027344 112.25381469726562 350.1942443847656 108.1860122680664 321.9544372558594 C 92.42453002929688 313.4643249511719 101.28018188476562 313.91986083984375 102.96797943115234 307.291015625 C 101.67420959472656 303.9105224609375 107.25286102294922 321.5868225097656 113.03436279296875 319.0987243652344" stroke-width="0.0" fill="rgb(134, 142, 72)" opacity="0.02940365" stroke="rgb(0, 0, 0)" stroke-opacity="1.0" stroke-linecap="round" stroke-linejoin="round"/>
    <path d="M 199.2587890625 380.4148864746094 C 203.37989807128906 391.4810791015625 208.9298858642578 374.54071044921875 194.38291931152344 396.6083984375 C 179.1990509033203 397.26416015625 187.5245361328125 376.2991027832031 180.01947021484375 369.4963073730469 C 143.8851776123047 376.6644592285156 151.49990844726562 353.07501220703125 181.62408447265625 354.1180419921875 C 190.128662109375 369.3190612792969 195.0337677001953 373.4408264160156 199.2587890625 380.4148864746094" stroke-width="0.0" fill="rgb(191, 59, 115)" opacity="0.10939531" stroke="rgb(0, 0, 0)" stroke-opacity="1.0" stroke-linecap="round" stroke-linejoin="round"/>
    <path d="M 34.69486999511719 183.5025177001953 C 38.56731414794922 180.69883728027344 33.998695373535156 192.11679077148438 25.205230712890625 189.2173309326172 C 15.247016906738281 214.53050231933594 15.239408493041992 199.12826538085938 29.608726501464844 193.81222534179688 C 26.652523040771484 208.92758178710938 52.55234909057617 187.07150268554688 40.91587448120117 204.35585021972656 C 12.267936706542969 185.9917449951172 26.34193229675293 189.51258850097656 34.69486999511719 183.5025177001953" stroke-width="0.0" fill="rgb(9, 24, 205)" opacity="0.017824413" stroke="rgb(0, 0, 0)" stroke-opacity="1.0" stroke-linecap="round" stroke-linejoin="round"/>
    <path d="M 463.8096618652344 358.7142639160156 C 474.0611572265625 358.2921142578125 475.2124938964844 375.30291748046875 404.8898620605469 385.54937744140625 C 385.5952453613281 328.7010803222656 372.2727355957031 309.2146301269531 388.4739685058594 331.29595947265625 C 399.22576904296875 316.9784240722656 435.5290222167969 302.10858154296875 453.02099609375 300.9948425292969 C 448.8459777832031 273.52197265625 461.6562805175781 290.58282470703125 463.8096618652344 358.7142639160156" stroke-width="0.0" fill="rgb(199, 110, 11)" opacity="0.32178575" stroke="rgb(0, 0, 0)" stroke-opacity="1.0" stroke-linecap="round" stroke-linejoin="round"/>
    <path d="M -2.3524420261383057 181.58599853515625 C 11.196901321411133 185.74560546875 48.46489715576172 131.2965087890625 6.503955841064453 140.66114807128906 C 19.48716163635254 159.59352111816406 20.134851455688477 137.27972412109375 5.225283145904541 138.26893615722656 C 19.839231491088867 126.92381286621094 45.06220626831055 106.08709716796875 9.141961097717285 90.57598114013672 C -30.44683265686035 129.2069854736328 0.9681432843208313 128.4718017578125 -2.3524420261383057 181.58599853515625" stroke-width="0.0" fill="rgb(0, 5, 231)" opacity="0.112084925" stroke="rgb(0, 0, 0)" stroke-opacity="1.0" stroke-linecap="round" stroke-linejoin="round"/>
    <path d="M 542.5033569335938 249.63601684570312 C 519.4901733398438 263.8402404785156 516.8436279296875 261.7535705566406 522.9010009765625 256.5899353027344 C 510.51861572265625 263.26043701171875 490.8345031738281 243.60626220703125 487.67132568359375 236.4071502685547 C 482.3083801269531 230.48875427246094 484.59454345703125 228.53907775878906 486.0805969238281 239.57711791992188 C 518.1265258789062 236.8492431640625 532.6488647460938 237.59112548828125 542.5033569335938 249.63601684570312" stroke-width="0.0" fill="rgb(124, 72, 134)" opacity="0.0073581333" stroke="rgb(0, 0, 0)" stroke-opacity="1.0" stroke-linecap="round" stroke-linejoin="round"/>
    <path d="M 233.33767700195312 89.07818603515625 C 232.71798706054688 78.67996978759766 243.17079162597656 86.19409942626953 217.51136779785156 73.63481903076172 C 172.56153869628906 105.09232330322266 195.13970947265625 110.73202514648438 205.6394500732422 100.2716064453125 C 208.37327575683594 110.3372802734375 217.51419067382812 88.7277603149414 241.4395294189453 48.18865966796875 C 246.53102111816406 71.3509292602539 247.43728637695312 72.04322814941406 233.33767700195312 89.07818603515625" stroke-width="0.0" fill="rgb(235, 181, 132)" opacity="0.5540356" stroke="rgb(0, 0, 0)" stroke-opacity="1.0" stroke-linecap="round" stroke-linejoin="round"/>
    <path d="M 427.4320068359375 225.26641845703125 C 425.7485656738281 299.3894348144531 428.4394836425781 306.8829040527344 427.7395324707031 284.22283935546875 C 399.7188720703125 301.2463073730469 387.8590087890625 294.1434020996094 383.8807373046875 254.8348388671875 C 408.041259765625 255.37307739257812 412.34942626953125 257.2431945800781 470.5755615234375 255.78582763671875 C 469.2686767578125 225.2930450439453 465.5233154296875 215.77685546875 427.4320068359375 225.26641845703125" stroke-width="0.0" fill="rgb(136, 137, 164)" opacity="0.0" stroke="rgb(0, 0, 0)" stroke-opacity="1.0" stroke-linecap="round" stroke-linejoin="round"/>
    <path d="M 481.86236572265625 120.70480346679688 C 475.68231201171875 134.21646118164062 471.9134521484375 165.4702911376953 484.61328125 122.04501342773438 C 462.525390625 114.53298950195312 481.3041687011719 146.01553344726562 496.32666015625 174.6339569091797 C 504.5328063964844 107.00786590576172 530.5914306640625 63.45589065551758 516.6978759765625 133.17880249023438 C 519.4086303710938 108.11170959472656 521.407958984375 115.49021911621094 481.86236572265625 120.70480346679688" stroke-width="0.0" fill="rgb(154, 78, 23)" opacity="0.030317815" stroke="rgb(0, 0, 0)" stroke-opacity="1.0" stroke-linecap="round" stroke-linejoin="round"/>
    <path d="M 560.3203735351562 152.44029235839844 C 533.8361206054688 175.2055206298828 512.8558349609375 186.07191467285156 484.8603820800781 177.14080810546875 C 476.8105163574219 203.5711669921875 454.3743591308594 197.76776123046875 463.79364013671875 152.7662353515625 C 463.5492858886719 133.0946807861328 477.299072265625 143.28858947753906 481.48211669921875 153.52789306640625 C 525.215087890625 151.97616577148438 543.6336669921875 155.11630249023438 560.3203735351562 152.44029235839844" stroke-width="0.0" fill="rgb(147, 58, 139)" opacity="0.0478999" stroke="rgb(0, 0, 0)" stroke-opacity="1.0" stroke-linecap="round" stroke-linejoin="round"/>
    <path d="M 35.24142074584961 340.4386901855469 C 80.03601837158203 355.33392333984375 82.35961151123047 371.33123779296875 98.43641662597656 372.2332458496094 C 93.96353149414062 407.1069641113281 46.582523345947266 383.7622375488281 35.242774963378906 360.0425720214844 C 108.05166625976562 352.76519775390625 98.0511474609375 312.9252624511719 55.682437896728516 329.62542724609375 C 52.157325744628906 341.68212890625 48.55697250366211 344.5419006347656 35.24142074584961 340.4386901855469" stroke-width="0.0" fill="rgb(61, 53, 54)" opacity="0.035691295" stroke="rgb(0, 0, 0)" stroke-opacity="1.0" stroke-linecap="round" stroke-linejoin="round"/>
    <path d="M 334.3079528808594 218.02301025390625 C 341.944091796875 211.8058319091797 309.40594482421875 201.18113708496094 305.20867919921875 257.7820129394531 C 275.5716247558594 236.3312530517578 296.7008056640625 237.61886596679688 327.3013000488281 238.67098999023438 C 317.56964111328125 221.88255310058594 319.4518737792969 230.62091064453125 324.4111328125 213.3541717529297 C 330.5118103027344 218.8162841796875 353.8641357421875 246.69439697265625 334.3079528808594 218.02301025390625" stroke-width="0.0" fill="rgb(152, 61, 218)" opacity="0.0" stroke="rgb(0, 0, 0)" stroke-opacity="1.0" stroke-linecap="round" stroke-linejoin="round"/>
    <path d="M 519.5625610351562 148.7368621826172 C 501.6800537109375 96.02989959716797 476.69049072265625 127.17648315429688 499.7601623535156 163.03150939941406 C 496.0821228027344 148.5774688720703 471.9668273925781 151.14974975585938 481.54510498046875 128.277587890625 C 499.39013671875 125.12194061279297 496.94635009765625 134.5408477783203 492.7559509277344 115.5528564453125 C 490.6346130371094 142.69078063964844 485.8859558105469 178.4308319091797 519.5625610351562 148.7368621826172" stroke-width="0.0" fill="rgb(155, 67, 133)" opacity="0.0" stroke="rgb(0, 0, 0)" stroke-opacity="1.0" stroke-linecap="round" stroke-linejoin="round"/>
    <path d="M 459.2666320800781 476.6672668457031 C 487.5259704589844 471.6237487792969 468.40087890625 473.2206726074219 433.9045715332031 473.24591064453125 C 453.2619934082031 471.9902038574219 441.50189208984375 474.9172058105469 420.01611328125 462.54608154296875 C 420.8448486328125 448.8839111328125 441.80755615234375 441.7950134277344 461.0454406738281 436.0330505371094 C 479.14312744140625 434.0283508300781 478.23040771484375 434.5374450683594 459.2666320800781 476.6672668457031" stroke-width="0.0" fill="rgb(120, 103, 145)" opacity="0.0024854362" stroke="rgb(0, 0, 0)" stroke-opacity="1.0" stroke-linecap="round" stroke-linejoin="round"/>
    <path d="M 514.8920288085938 327.6482238769531 C 495.58349609375 369.0014953613281 488.067138671875 392.7935791015625 486.50274658203125 395.5819091796875 C 489.09326171875 386.3292541503906 470.1988830566406 382.6745910644531 448.0407409667969 375.9487609863281 C 449.2890319824219 345.4137878417969 460.334228515625 357.4921875 466.8704833984375 356.3019714355469 C 496.4984436035156 339.936767578125 522.7713012695312 336.88348388671875 514.8920288085938 327.6482238769531" stroke-width="0.0" fill="rgb(169, 126, 19)" opacity="0.08695054" stroke="rgb(0, 0, 0)" stroke-opacity="1.0" stroke-linecap="round" stroke-linejoin="round"/>
    <path d="M 169.1393585205078 413.818115234375 C 161.30137634277344 408.85931396484375 143.03553771972656 446.71588134765625 150.21792602539062 449.40155029296875 C 143.95217895507812 438.49224853515625 140.34185791015625 444.8167419433594 142.5052490234375 417.1844177246094 C 129.5035400390625 369.430419921875 125.69538879394531 352.8434753417969 154.4389190673828 382.6608581542969 C 161.75123596191406 392.93450927734375 159.5723876953125 423.5901184082031 169.1393585205078 413.818115234375" stroke-width="0.0" fill="rgb(127, 18, 246)" opacity="0.3156872" stroke="rgb(0, 0, 0)" stroke-opacity="1.0" stroke-linecap="round" stroke-linejoin="round"/>
    <path d="M 108.25072479248047 181.4324951171875 C 103.53226470947266 190.80323791503906 100.23705291748047 188.38323974609375 74.32076263427734 177.6438446044922 C 91.74957275390625 191.2119598388672 62.62055587768555 185.95249938964844 74.70854949951172 159.45970153808594 C 66.77751922607422 162.4439239501953 76.99882507324219 158.0906219482422 92.25995635986328 137.19793701171875 C 95.4703598022461 146.85740661621094 116.59916687011719 142.5770263671875 108.25072479248047 181.4324951171875" stroke-width="0.0" fill="rgb(74, 12, 134)" opacity="0.0" stroke="rgb(0, 0, 0)" stroke-opacity="1.0" stroke-linecap="round" stroke-linejoin="round"/>
    <path d="M 115.80424499511719 98.90472412109375 C 161.93734741210938 100.23435974121094 162.31809997558594 100.73079681396484 163.46511840820312 145.5577392578125 C 143.7542266845703 148.08917236328125 141.5992431640625 140.84164428710938 162.6468963623047 135.85873413085938 C 178.8292236328125 126.09974670410156 196.6538543701172 138.1970977783203 202.68116760253906 80.54492950439453 C 193.68211364746094 96.95568084716797 166.7600860595703 127.67305755615234 115.80424499511719 98.90472412109375" stroke-width="0.0" fill="rgb(170, 132, 51)" opacity="0.08398429" stroke="rgb(0, 0, 0)" stroke-opacity="1.0" stroke-linecap="round" stroke-linejoin="round"/>
    <path d="M 170.09915161132812 415.33197021484375 C 137.97494506835938 390.55963134765625 148.74554443359375 407.41534423828125 149.40884399414062 479.9204406738281 C 139.01649475097656 439.39239501953125 139.42477416992188 422.0134582519531 157.9686737060547 399.5574035644531 C 142.21109008789062 368.0901794433594 163.83152770996094 362.6261901855469 169.04531860351562 350.4520263671875 C 189.28463745117188 362.419921875 198.75181579589844 384.603759765625 170.09915161132812 415.33197021484375" stroke-width="0.0" fill="rgb(241, 175, 131)" opacity="0.7425822" stroke="rgb(0, 0, 0)" stroke-opacity="1.0" stroke-linecap="round" stroke-linejoin="round"/>
    <path d="M 477.59454345703125 124.9791259765625 C 467.0447998046875 111.19597625732422 480.37774658203125 158.70164489746094 474.79241943359375 172.49649047851562 C 419.5561828613281 163.01040649414062 419.00115966796875 151.6436767578125 417.2183837890625 144.991455078125 C 406.7484130859375 164.83486938476562 421.59295654296875 119.88412475585938 415.02667236328125 83.6513442993164 C 458.7276306152344 111.2737808227539 452.1955871582031 115.30322265625 477.59454345703125 124.9791259765625" stroke-width="0.0" fill="rgb(157, 28, 223)" opacity="0.13178252" stroke="rgb(0, 0, 0)" stroke-opacity="1.0" stroke-linecap="round" stroke-linejoin="round"/>
    <path d="M 301.8880615234375 297.97100830078125 C 296.425048828125 292.8631591796875 271.47503662109375 336.8284912109375 305.8111572265625 321.8407897949219 C 313.01593017578125 370.4937744140625 284.0079040527344 378.7237854003906 211.2285614013672 324.8490905761719 C 225.3672637939453 307.5145568847656 241.3848419189453 292.8635559082031 251.27284240722656 341.0590515136719 C 263.6838073730469 342.35223388671875 275.39227294921875 355.77508544921875 301.8880615234375 297.97100830078125" stroke-width="0.0" fill="rgb(148, 85, 137)" opacity="0.0023959982" stroke="rgb(0, 0, 0)" stroke-opacity="1.0" stroke-linecap="round" stroke-linejoin="round"/>
    <path d="M 153.45895385742188 455.2081604003906 C 173.98699951171875 456.67144775390625 153.87054443359375 469.0596618652344 206.57861328125 481.4022521972656 C 126.40448760986328 505.3786315917969 121.15933227539062 496.1596984863281 125.17369079589844 496.8465270996094 C 56.82349395751953 495.462646484375 123.58403015136719 473.1163330078125 142.249755859375 440.3934020996094 C 151.04745483398438 454.6672668457031 158.6310272216797 445.2369689941406 153.45895385742188 455.2081604003906" stroke-width="0.0" fill="rgb(134, 2, 255)" opacity="0.13614751" stroke="rgb(0, 0, 0)" stroke-opacity="1.0" stroke-linecap="round" stroke-linejoin="round"/>
  </g>
</svg>
