<?xml version="1.0" ?>
<svg xmlns="http://www.w3.org/2000/svg" version="1.1" width="512" height="512">
  <defs/>
  <g>
    <path d="M 540.556884765625 455.361572265625 C 548.7020874023438 518.369873046875 549.9697875976562 525.8068237304688 326.7239685058594 518.4415283203125 C 239.00563049316406 527.1298217773438 169.45335388183594 499.5674133300781 294.86444091796875 454.6779479980469 C 514.1986694335938 431.8521423339844 370.6377258300781 318.3201599121094 360.9708251953125 270.0344543457031 C 545.5294799804688 306.94293212890625 551.226806640625 328.6070251464844 540.556884765625 455.361572265625" stroke-width="0.0" fill="rgb(189, 255, 13)" opacity="0.7126494" stroke="rgb(0, 0, 0)" stroke-opacity="1.0" stroke-linecap="round" stroke-linejoin="round"/>
    <path d="M 147.70713806152344 418.64666748046875 C 223.48208618164062 540.8834228515625 352.7832336425781 444.10308837890625 310.3472595214844 492.86260986328125 C -10.801841735839844 565.3927612304688 -15.646570205688477 556.90966796875 -14.454216957092285 501.1253662109375 C -13.299572944641113 208.7849578857422 -9.311588287353516 206.6740264892578 65.81941986083984 259.28363037109375 C 181.4604949951172 247.8433837890625 103.28180694580078 305.5071105957031 147.70713806152344 418.64666748046875" stroke-width="0.0" fill="rgb(0, 8, 91)" opacity="1.0" stroke="rgb(0, 0, 0)" stroke-opacity="1.0" stroke-linecap="round" stroke-linejoin="round"/>
    <path d="M 133.79217529296875 285.3936767578125 C 155.53941345214844 410.4645690917969 139.6670684814453 336.892333984375 120.50675964355469 299.9947509765625 C -63.55110168457031 269.114990234375 -46.45862579345703 330.0021667480469 -54.63966369628906 131.68125915527344 C -43.15468978881836 104.14813232421875 -29.040647506713867 112.34225463867188 87.6202163696289 94.29248809814453 C 99.918701171875 108.20691680908203 130.74024963378906 189.01773071289062 133.79217529296875 285.3936767578125" stroke-width="0.0" fill="rgb(0, 1, 95)" opacity="1.0" stroke="rgb(0, 0, 0)" stroke-opacity="1.0" stroke-linecap="round" stroke-linejoin="round"/>
    <path d="M 267.1636657714844 65.67225646972656 C -6.026687145233154 45.658851623535156 57.20226287841797 152.04698181152344 69.4635009765625 114.5163803100586 C 2.8730406761169434 244.1844940185547 -20.276918411254883 219.7114715576172 -11.77084732055664 56.15428161621094 C -18.099090576171875 -19.52642059326172 -9.709314346313477 -22.288536071777344 179.8554229736328 -21.740251541137695 C 272.6645812988281 -49.177433013916016 291.3079528808594 -52.58523178100586 267.1636657714844 65.67225646972656" stroke-width="0.0" fill="rgb(0, 6, 113)" opacity="1.0" stroke="rgb(0, 0, 0)" stroke-opacity="1.0" stroke-linecap="round" stroke-linejoin="round"/>
    <path d="M 580.68408203125 98.85051727294922 C 445.337646484375 295.220458984375 443.1083068847656 297.5782470703125 319.4953308105469 333.76373291015625 C 177.43540954589844 359.7783203125 292.0635986328125 268.7147216796875 241.33773803710938 154.33595275878906 C 328.8470764160156 -7.185848712921143 273.80218505859375 -7.476787567138672 361.75628662109375 -40.739742279052734 C 563.2000122070312 0.6587138175964355 563.2000122070312 11.063444137573242 580.68408203125 98.85051727294922" stroke-width="0.0" fill="rgb(94, 255, 102)" opacity="0.86306494" stroke="rgb(0, 0, 0)" stroke-opacity="1.0" stroke-linecap="round" stroke-linejoin="round"/>
    <path d="M 319.52081298828125 50.548744201660156 C 271.7261047363281 324.7309875488281 164.54246520996094 442.26531982421875 171.09710693359375 297.575439453125 C 174.43585205078125 210.68296813964844 145.5361328125 128.81710815429688 17.06346321105957 83.70882415771484 C 46.637210845947266 109.02499389648438 83.92558288574219 42.49901580810547 226.033203125 63.64932632446289 C 311.853271484375 107.74009704589844 263.2945251464844 25.237977981567383 319.52081298828125 50.548744201660156" stroke-width="0.0" fill="rgb(0, 2, 83)" opacity="0.9893385" stroke="rgb(0, 0, 0)" stroke-opacity="1.0" stroke-linecap="round" stroke-linejoin="round"/>
    <path d="M 420.31134033203125 406.7208557128906 C 326.4339904785156 520.85498046875 458.00323486328125 288.5079040527344 304.4806213378906 305.73382568359375 C 291.8076171875 289.9698486328125 423.0266418457031 417.8932800292969 182.60426330566406 470.82110595703125 C 137.13485717773438 218.97987365722656 248.14659118652344 147.516845703125 315.2976989746094 348.2164001464844 C 443.57305908203125 283.7373962402344 439.84039306640625 247.22877502441406 420.31134033203125 406.7208557128906" stroke-width="0.0" fill="rgb(0, 1, 84)" opacity="0.9927289" stroke="rgb(0, 0, 0)" stroke-opacity="1.0" stroke-linecap="round" stroke-linejoin="round"/>
    <path d="M 534.8027954101562 150.4931640625 C 543.6019897460938 320.09478759765625 563.1994018554688 343.2150573730469 558.051513671875 314.3232727050781 C 395.1083679199219 306.4186706542969 344.1148681640625 355.4239501953125 393.6977233886719 287.84088134765625 C 283.355712890625 199.63592529296875 430.638916015625 212.87094116210938 575.3280639648438 133.68467712402344 C 563.2000122070312 68.05618286132812 563.2000122070312 90.89309692382812 534.8027954101562 150.4931640625" stroke-width="0.0" fill="rgb(0, 134, 156)" opacity="1.0" stroke="rgb(0, 0, 0)" stroke-opacity="1.0" stroke-linecap="round" stroke-linejoin="round"/>
    <path d="M 265.1940612792969 158.47206115722656 C 334.1998291015625 242.2124481201172 298.05731201171875 274.5160827636719 309.1312561035156 265.1230163574219 C 251.81790161132812 252.776611328125 235.43069458007812 275.65557861328125 238.60931396484375 267.1329040527344 C 270.3121643066406 290.3905944824219 256.9239807128906 236.40553283691406 239.41085815429688 287.171875 C 266.8392028808594 255.10446166992188 249.92459106445312 231.67300415039062 265.1940612792969 158.47206115722656" stroke-width="0.0" fill="rgb(180, 230, 0)" opacity="0.96689445" stroke="rgb(0, 0, 0)" stroke-opacity="1.0" stroke-linecap="round" stroke-linejoin="round"/>
    <path d="M 241.86026000976562 53.825843811035156 C 59.79989242553711 20.4079532623291 -35.085994720458984 109.89330291748047 85.52088928222656 151.03456115722656 C 161.64395141601562 301.8044128417969 -60.61688995361328 328.0619201660156 -54.933380126953125 206.40431213378906 C -41.63692855834961 -21.704736709594727 -33.83382034301758 -31.891361236572266 140.70204162597656 -50.94228744506836 C 273.1356201171875 -32.132266998291016 363.2806396484375 45.09238815307617 241.86026000976562 53.825843811035156" stroke-width="0.0" fill="rgb(99, 255, 133)" opacity="1.0" stroke="rgb(0, 0, 0)" stroke-opacity="1.0" stroke-linecap="round" stroke-linejoin="round"/>
    <path d="M 506.1791076660156 243.36331176757812 C 465.841064453125 241.68360900878906 379.8050231933594 300.2113952636719 400.2852783203125 287.85211181640625 C 215.5441131591797 319.13897705078125 464.2962341308594 291.07366943359375 307.6961669921875 253.42654418945312 C 429.5989685058594 181.03953552246094 366.9788513183594 79.55411529541016 392.5101318359375 154.29075622558594 C 299.34130859375 305.7990417480469 317.17926025390625 284.12347412109375 506.1791076660156 243.36331176757812" stroke-width="0.0" fill="rgb(136, 253, 101)" opacity="0.42272708" stroke="rgb(0, 0, 0)" stroke-opacity="1.0" stroke-linecap="round" stroke-linejoin="round"/>
    <path d="M 455.752197265625 -9.170570373535156 C 362.394775390625 230.9984893798828 279.3925476074219 195.32669067382812 237.4918670654297 198.9015350341797 C 228.3349151611328 156.32321166992188 272.6876525878906 147.93423461914062 329.326171875 120.67035675048828 C 305.6726989746094 108.13429260253906 324.5416259765625 63.59735870361328 240.66331481933594 67.128662109375 C 128.75978088378906 55.24409484863281 223.36502075195312 -54.450584411621094 455.752197265625 -9.170570373535156" stroke-width="0.0" fill="rgb(107, 255, 117)" opacity="1.0" stroke="rgb(0, 0, 0)" stroke-opacity="1.0" stroke-linecap="round" stroke-linejoin="round"/>
    <path d="M 271.87353515625 437.4952392578125 C 505.0918273925781 402.9964294433594 258.33404541015625 560.0911865234375 170.78065490722656 446.6258239746094 C 216.02749633789062 469.9016418457031 143.40135192871094 459.7578430175781 132.1687469482422 364.9792785644531 C 167.8948516845703 269.15771484375 170.3192138671875 472.63079833984375 145.89859008789062 202.8466339111328 C 276.9257507324219 134.38685607910156 97.05052185058594 443.1753845214844 271.87353515625 437.4952392578125" stroke-width="0.0" fill="rgb(255, 212, 0)" opacity="1.0" stroke="rgb(0, 0, 0)" stroke-opacity="1.0" stroke-linecap="round" stroke-linejoin="round"/>
    <path d="M 588.486328125 163.99993896484375 C 573.0879516601562 441.3654479980469 564.1121826171875 462.2373352050781 447.71051025390625 442.0081481933594 C 348.62542724609375 373.30804443359375 413.3288269042969 389.6037902832031 392.672607421875 322.9572448730469 C 388.5421447753906 213.25985717773438 438.5171203613281 349.0667724609375 433.2243347167969 160.12774658203125 C 461.90692138671875 111.73040008544922 583.884765625 113.6268081665039 588.486328125 163.99993896484375" stroke-width="0.0" fill="rgb(115, 255, 124)" opacity="1.0" stroke="rgb(0, 0, 0)" stroke-opacity="1.0" stroke-linecap="round" stroke-linejoin="round"/>
    <path d="M 549.7652587890625 467.93572998046875 C 529.5440673828125 514.3981323242188 520.1913452148438 527.753662109375 335.5294494628906 567.8074951171875 C 295.01727294921875 497.1554870605469 314.41326904296875 473.5869140625 348.7799377441406 407.0791320800781 C 367.55328369140625 343.0113525390625 386.87939453125 367.7974548339844 442.674560546875 378.4714050292969 C 474.1322937011719 394.9670715332031 499.7478942871094 389.7073974609375 549.7652587890625 467.93572998046875" stroke-width="0.0" fill="rgb(118, 255, 144)" opacity="0.99674475" stroke="rgb(0, 0, 0)" stroke-opacity="1.0" stroke-linecap="round" stroke-linejoin="round"/>
    <path d="M 311.550048828125 315.7522277832031 C 447.11016845703125 293.2789001464844 276.0585632324219 267.917236328125 312.879638671875 324.4478454589844 C 316.8751220703125 449.76287841796875 192.34039306640625 440.52215576171875 223.81185913085938 348.10137939453125 C 241.05116271972656 292.6980895996094 216.77857971191406 313.9388732910156 220.7641143798828 308.1187744140625 C 197.27835083007812 408.27557373046875 299.11102294921875 420.5961608886719 311.550048828125 315.7522277832031" stroke-width="0.0" fill="rgb(225, 162, 6)" opacity="0.8807445" stroke="rgb(0, 0, 0)" stroke-opacity="1.0" stroke-linecap="round" stroke-linejoin="round"/>
    <path d="M 224.88536071777344 264.37969970703125 C 217.74468994140625 311.1847839355469 258.8719482421875 328.3594970703125 223.01780700683594 332.3145751953125 C 225.7027587890625 291.6527099609375 213.9296875 281.3808898925781 179.4822235107422 296.09027099609375 C 179.40338134765625 256.65570068359375 179.4704132080078 238.65399169921875 200.85252380371094 238.38427734375 C 226.3565216064453 256.671630859375 219.07302856445312 243.9501190185547 224.88536071777344 264.37969970703125" stroke-width="0.0" fill="rgb(145, 215, 118)" opacity="0.671234" stroke="rgb(0, 0, 0)" stroke-opacity="1.0" stroke-linecap="round" stroke-linejoin="round"/>
    <path d="M 391.225830078125 309.4515075683594 C 427.2977600097656 405.85443115234375 350.9997253417969 474.8858947753906 330.1661071777344 485.63543701171875 C 267.84814453125 530.718994140625 174.20945739746094 509.0086669921875 293.59857177734375 483.0230712890625 C 352.9794006347656 455.4414978027344 364.9136657714844 411.6539611816406 373.20257568359375 380.0609436035156 C 312.732177734375 463.5579528808594 436.6485290527344 294.5096740722656 391.225830078125 309.4515075683594" stroke-width="0.0" fill="rgb(0, 2, 95)" opacity="1.0" stroke="rgb(0, 0, 0)" stroke-opacity="1.0" stroke-linecap="round" stroke-linejoin="round"/>
    <path d="M 286.7894592285156 99.88573455810547 C 329.264892578125 53.77891159057617 188.9344024658203 46.51327896118164 223.45578002929688 58.910274505615234 C 205.65957641601562 50.41431427001953 190.04638671875 48.30927658081055 204.66595458984375 47.18655014038086 C 172.19827270507812 50.305267333984375 160.32339477539062 52.787601470947266 177.86959838867188 68.27759552001953 C 95.26140594482422 75.69371795654297 219.32191467285156 38.289676666259766 286.7894592285156 99.88573455810547" stroke-width="0.0" fill="rgb(0, 0, 85)" opacity="1.0" stroke="rgb(0, 0, 0)" stroke-opacity="1.0" stroke-linecap="round" stroke-linejoin="round"/>
    <path d="M 236.76698303222656 507.3380126953125 C 285.0684509277344 523.15283203125 230.94012451171875 524.2794189453125 127.04981994628906 533.2811889648438 C -55.35301208496094 529.0441284179688 -48.179412841796875 507.2802429199219 -34.65003967285156 430.19744873046875 C -60.14889907836914 303.9385986328125 -75.23258209228516 284.7443542480469 34.03902053833008 283.1944274902344 C 130.2809600830078 284.95440673828125 73.5945053100586 481.8919677734375 236.76698303222656 507.3380126953125" stroke-width="0.0" fill="rgb(99, 255, 135)" opacity="1.0" stroke="rgb(0, 0, 0)" stroke-opacity="1.0" stroke-linecap="round" stroke-linejoin="round"/>
    <path d="M 284.3973388671875 358.9393310546875 C 287.53533935546875 378.93017578125 262.8346252441406 352.8734130859375 282.8716735839844 339.5277099609375 C 279.0813903808594 344.57415771484375 280.5865478515625 366.04071044921875 277.3868713378906 356.9590148925781 C 281.8553771972656 382.3516540527344 215.10801696777344 382.74700927734375 267.8117980957031 272.4699401855469 C 276.5574645996094 302.00958251953125 263.1022033691406 385.3808288574219 284.3973388671875 358.9393310546875" stroke-width="0.0" fill="rgb(71, 253, 87)" opacity="0.8170485" stroke="rgb(0, 0, 0)" stroke-opacity="1.0" stroke-linecap="round" stroke-linejoin="round"/>
    <path d="M 412.6869201660156 168.9718475341797 C 322.3382568359375 93.53678894042969 359.660400390625 136.77281188964844 330.9666442871094 175.52044677734375 C 370.7485046386719 157.20838928222656 328.3393249511719 137.20553588867188 297.989990234375 170.89776611328125 C 329.85968017578125 213.31820678710938 368.1583557128906 176.29490661621094 361.0264587402344 151.9222412109375 C 379.60760498046875 193.7126922607422 378.9196472167969 140.3822479248047 412.6869201660156 168.9718475341797" stroke-width="0.0" fill="rgb(198, 174, 92)" opacity="0.0" stroke="rgb(0, 0, 0)" stroke-opacity="1.0" stroke-linecap="round" stroke-linejoin="round"/>
    <path d="M 463.6365966796875 227.2252960205078 C 469.65728759765625 229.69174194335938 445.0713195800781 329.0438232421875 362.69073486328125 313.4895935058594 C 445.4081726074219 263.3241882324219 502.6593933105469 197.7027130126953 410.6071472167969 289.939453125 C 484.0414733886719 261.9223327636719 409.70880126953125 184.94265747070312 439.533935546875 155.11334228515625 C 440.814697265625 248.3242645263672 390.7449035644531 225.07676696777344 463.6365966796875 227.2252960205078" stroke-width="0.0" fill="rgb(116, 216, 54)" opacity="0.013020311" stroke="rgb(0, 0, 0)" stroke-opacity="1.0" stroke-linecap="round" stroke-linejoin="round"/>
    <path d="M 96.58617401123047 253.83387756347656 C 113.90512084960938 304.2395324707031 115.08004760742188 331.8502197265625 120.14623260498047 423.4516906738281 C 45.873958587646484 352.6492614746094 7.0370025634765625 330.7032165527344 -19.872304916381836 264.95281982421875 C 59.46318435668945 237.2639617919922 56.24478530883789 180.2012176513672 95.47220611572266 167.93942260742188 C 111.82686614990234 217.6011962890625 122.09282684326172 288.4767761230469 96.58617401123047 253.83387756347656" stroke-width="0.0" fill="rgb(97, 255, 133)" opacity="0.9943943" stroke="rgb(0, 0, 0)" stroke-opacity="1.0" stroke-linecap="round" stroke-linejoin="round"/>
    <path d="M 357.31292724609375 293.3194274902344 C 298.0950012207031 324.2338562011719 280.6710510253906 226.08192443847656 292.2864685058594 211.72142028808594 C 314.3468933105469 160.89418029785156 282.0887756347656 133.01417541503906 276.7735900878906 181.8974609375 C 270.0022277832031 173.3666534423828 257.69189453125 181.9751434326172 257.80059814453125 171.5666961669922 C 294.7859802246094 158.62249755859375 370.29852294921875 146.4485626220703 357.31292724609375 293.3194274902344" stroke-width="0.0" fill="rgb(1, 65, 144)" opacity="1.0" stroke="rgb(0, 0, 0)" stroke-opacity="1.0" stroke-linecap="round" stroke-linejoin="round"/>
    <path d="M 207.88424682617188 125.26388549804688 C 246.30105590820312 137.04090881347656 260.2013854980469 142.3448486328125 242.33323669433594 89.53118133544922 C 85.78815460205078 46.84341812133789 107.88653564453125 176.90623474121094 110.30194854736328 134.6893310546875 C 122.97889709472656 69.33307647705078 224.4950714111328 116.0869369506836 183.0267791748047 111.3102035522461 C 205.28842163085938 110.08968353271484 216.00172424316406 117.42198944091797 207.88424682617188 125.26388549804688" stroke-width="0.0" fill="rgb(205, 197, 90)" opacity="0.53193295" stroke="rgb(0, 0, 0)" stroke-opacity="1.0" stroke-linecap="round" stroke-linejoin="round"/>
    <path d="M 139.74778747558594 119.21653747558594 C 132.32412719726562 145.94046020507812 105.63431549072266 147.39952087402344 119.26006317138672 141.13314819335938 C 116.69808959960938 132.2036590576172 69.79730224609375 133.2185516357422 104.15617370605469 102.17404174804688 C 7.812005043029785 154.88168334960938 51.370521545410156 39.18372344970703 254.3158721923828 85.67102813720703 C 109.48702239990234 137.4464111328125 108.41456604003906 120.50311279296875 139.74778747558594 119.21653747558594" stroke-width="0.0" fill="rgb(255, 253, 0)" opacity="1.0" stroke="rgb(0, 0, 0)" stroke-opacity="1.0" stroke-linecap="round" stroke-linejoin="round"/>
    <path d="M 301.0022888183594 248.28323364257812 C 264.92388916015625 277.626220703125 298.1412048339844 308.3523864746094 261.6775207519531 293.4518127441406 C 196.27064514160156 298.60198974609375 218.0074005126953 286.85333251953125 175.17713928222656 241.60365295410156 C 223.5086669921875 187.56765747070312 256.05389404296875 191.68455505371094 266.5333251953125 212.12840270996094 C 271.9710693359375 218.84332275390625 302.1331787109375 221.4772491455078 301.0022888183594 248.28323364257812" stroke-width="0.0" fill="rgb(0, 161, 153)" opacity="1.0" stroke="rgb(0, 0, 0)" stroke-opacity="1.0" stroke-linecap="round" stroke-linejoin="round"/>
    <path d="M 288.0888671875 240.6583251953125 C 262.65447998046875 217.05020141601562 228.7581787109375 44.66792297363281 215.54335021972656 128.92689514160156 C 231.15740966796875 199.79275512695312 151.3712158203125 303.6545715332031 98.98040771484375 116.95011138916016 C 172.0775146484375 55.2235221862793 238.77044677734375 113.8531494140625 232.6099090576172 144.43984985351562 C 252.8331756591797 49.2658576965332 198.586181640625 109.44992065429688 288.0888671875 240.6583251953125" stroke-width="0.0" fill="rgb(255, 241, 0)" opacity="0.9973841" stroke="rgb(0, 0, 0)" stroke-opacity="1.0" stroke-linecap="round" stroke-linejoin="round"/>
    <path d="M 364.6792907714844 396.6353454589844 C 309.6574401855469 297.1710510253906 262.68072509765625 352.0018615722656 299.4820556640625 354.6269226074219 C 269.6394348144531 367.6012878417969 271.6622009277344 331.8650817871094 282.7271423339844 336.798095703125 C 275.64306640625 340.8267822265625 279.0519104003906 320.8345642089844 306.03021240234375 382.1859130859375 C 271.599365234375 296.2684631347656 459.1623840332031 263.4476318359375 364.6792907714844 396.6353454589844" stroke-width="0.0" fill="rgb(0, 183, 142)" opacity="1.0" stroke="rgb(0, 0, 0)" stroke-opacity="1.0" stroke-linecap="round" stroke-linejoin="round"/>
    <path d="M 7.6602020263671875 523.527099609375 C 16.928863525390625 520.4954833984375 10.451606750488281 527.2847900390625 0.7705464363098145 530.8681030273438 C -9.364206314086914 527.7437133789062 -16.68471336364746 520.4232177734375 -19.53505516052246 510.3761291503906 C -16.513290405273438 500.47222900390625 -9.497283935546875 493.1925964355469 -12.406676292419434 503.4660339355469 C -4.264515399932861 507.9687805175781 3.0665524005889893 515.3460693359375 7.6602020263671875 523.527099609375" stroke-width="0.0" fill="rgb(253, 10, 0)" opacity="0.1198675" stroke="rgb(0, 0, 0)" stroke-opacity="1.0" stroke-linecap="round" stroke-linejoin="round"/>
    <path d="M 160.22540283203125 292.0647277832031 C 161.39317321777344 431.8766784667969 130.61660766601562 425.68206787109375 139.45269775390625 281.0212097167969 C 153.7083282470703 190.02700805664062 153.51097106933594 167.58544921875 149.58126831054688 146.82923889160156 C 128.284912109375 75.30165100097656 65.5962905883789 108.13648223876953 130.69041442871094 87.41778564453125 C 178.58602905273438 110.79232788085938 178.768310546875 160.94869995117188 160.22540283203125 292.0647277832031" stroke-width="0.0" fill="rgb(250, 74, 0)" opacity="0.94060874" stroke="rgb(0, 0, 0)" stroke-opacity="1.0" stroke-linecap="round" stroke-linejoin="round"/>
    <path d="M 310.217041015625 353.37872314453125 C 255.46385192871094 412.0313720703125 236.217041015625 321.0473327636719 285.01898193359375 282.3809814453125 C 316.0947265625 268.39349365234375 291.92352294921875 298.7818298339844 228.931640625 314.3374328613281 C 191.81468200683594 277.32647705078125 199.1409912109375 231.12132263183594 295.75372314453125 268.47174072265625 C 296.5634460449219 309.0244445800781 385.0260925292969 311.9906311035156 310.217041015625 353.37872314453125" stroke-width="0.0" fill="rgb(3, 191, 145)" opacity="1.0" stroke="rgb(0, 0, 0)" stroke-opacity="1.0" stroke-linecap="round" stroke-linejoin="round"/>
    <path d="M 290.1895751953125 109.68902587890625 C 192.97198486328125 146.24310302734375 224.62234497070312 217.12591552734375 189.7520294189453 223.71047973632812 C 210.4054718017578 161.29200744628906 233.466064453125 109.88067626953125 193.884033203125 141.10231018066406 C 147.6453399658203 162.4500274658203 152.01779174804688 109.02617645263672 117.7411117553711 89.28205871582031 C 210.22039794921875 82.24561309814453 285.8155822753906 84.30253601074219 290.1895751953125 109.68902587890625" stroke-width="0.0" fill="rgb(255, 155, 0)" opacity="0.9676821" stroke="rgb(0, 0, 0)" stroke-opacity="1.0" stroke-linecap="round" stroke-linejoin="round"/>
    <path d="M 292.20770263671875 388.8376159667969 C 240.682373046875 412.5361633300781 284.0679016113281 404.919921875 269.1102294921875 413.28302001953125 C 252.09095764160156 436.1746826171875 237.38002014160156 338.6859130859375 226.56005859375 285.774658203125 C 172.81312561035156 416.2824401855469 296.53839111328125 428.92254638671875 228.6974639892578 385.95391845703125 C 232.9230194091797 392.9637756347656 247.44308471679688 386.7452087402344 292.20770263671875 388.8376159667969" stroke-width="0.0" fill="rgb(140, 255, 80)" opacity="0.9883267" stroke="rgb(0, 0, 0)" stroke-opacity="1.0" stroke-linecap="round" stroke-linejoin="round"/>
    <path d="M 139.83078002929688 240.62335205078125 C 130.6280059814453 267.85736083984375 135.2246856689453 295.6579895019531 144.45187377929688 316.35028076171875 C 135.28817749023438 333.45770263671875 148.4053955078125 273.7349853515625 132.02516174316406 254.04803466796875 C 132.12615966796875 107.5699462890625 72.80247497558594 145.88490295410156 86.70354461669922 109.09619140625 C 167.47344970703125 185.74928283691406 133.33120727539062 336.9208068847656 139.83078002929688 240.62335205078125" stroke-width="0.0" fill="rgb(235, 217, 33)" opacity="0.071682625" stroke="rgb(0, 0, 0)" stroke-opacity="1.0" stroke-linecap="round" stroke-linejoin="round"/>
    <path d="M 244.12454223632812 141.6726531982422 C 236.5700225830078 147.82205200195312 223.84384155273438 144.8184356689453 204.52610778808594 167.0398712158203 C 157.562255859375 198.9665069580078 172.57937622070312 146.12791442871094 181.14540100097656 111.23689270019531 C 161.33668518066406 117.07190704345703 185.7079620361328 92.61038208007812 145.39280700683594 113.22383880615234 C 162.85006713867188 96.34843444824219 206.95037841796875 106.84978485107422 244.12454223632812 141.6726531982422" stroke-width="0.0" fill="rgb(255, 222, 0)" opacity="0.9962069" stroke="rgb(0, 0, 0)" stroke-opacity="1.0" stroke-linecap="round" stroke-linejoin="round"/>
    <path d="M 442.9953308105469 277.180908203125 C 490.4636535644531 316.07366943359375 509.39117431640625 343.71539306640625 439.4587097167969 328.29296875 C 374.5234069824219 327.68780517578125 360.99505615234375 335.9658508300781 375.4521484375 312.791015625 C 390.37628173828125 280.508056640625 393.10479736328125 260.5274353027344 429.61676025390625 281.99407958984375 C 448.4871826171875 269.4887390136719 452.62322998046875 257.8861083984375 442.9953308105469 277.180908203125" stroke-width="0.0" fill="rgb(0, 151, 151)" opacity="1.0" stroke="rgb(0, 0, 0)" stroke-opacity="1.0" stroke-linecap="round" stroke-linejoin="round"/>
    <path d="M 272.26568603515625 369.4149475097656 C 244.0116729736328 392.8124084472656 260.5405578613281 437.4830627441406 299.22052001953125 380.9652099609375 C 257.32098388671875 387.63677978515625 249.82456970214844 376.5241394042969 224.11412048339844 370.7213439941406 C 205.5096435546875 397.78460693359375 212.72581481933594 402.21240234375 240.8800811767578 418.36944580078125 C 241.5616455078125 406.3797912597656 268.38226318359375 402.4231872558594 272.26568603515625 369.4149475097656" stroke-width="0.0" fill="rgb(163, 255, 30)" opacity="0.98665607" stroke="rgb(0, 0, 0)" stroke-opacity="1.0" stroke-linecap="round" stroke-linejoin="round"/>
    <path d="M 372.9803161621094 296.8669738769531 C 338.87164306640625 231.69659423828125 303.688232421875 243.96630859375 318.6643981933594 314.3311462402344 C 302.57879638671875 304.93096923828125 260.6636047363281 263.082763671875 291.1243896484375 258.0006408691406 C 280.7911071777344 232.6295623779297 333.0134582519531 223.16712951660156 344.6684875488281 235.167236328125 C 349.5108642578125 239.33279418945312 409.49798583984375 254.91571044921875 372.9803161621094 296.8669738769531" stroke-width="0.0" fill="rgb(255, 193, 1)" opacity="1.0" stroke="rgb(0, 0, 0)" stroke-opacity="1.0" stroke-linecap="round" stroke-linejoin="round"/>
    <path d="M 212.71368408203125 262.8381652832031 C 205.22178649902344 299.4778137207031 204.7273406982422 282.9529724121094 147.9435272216797 279.73468017578125 C 113.1552505493164 296.1535339355469 120.33116149902344 279.10565185546875 135.0464324951172 259.6460876464844 C 182.63755798339844 259.5950927734375 214.44903564453125 267.2695007324219 184.79981994628906 276.6233825683594 C 199.34951782226562 249.837646484375 209.1771697998047 260.62652587890625 212.71368408203125 262.8381652832031" stroke-width="0.0" fill="rgb(0, 0, 110)" opacity="0.9729447" stroke="rgb(0, 0, 0)" stroke-opacity="1.0" stroke-linecap="round" stroke-linejoin="round"/>
    <path d="M 279.4161682128906 410.2131042480469 C 277.24554443359375 411.7195129394531 278.2635803222656 417.7655029296875 259.4173583984375 417.0921630859375 C 243.47344970703125 383.568603515625 266.4111633300781 369.0499572753906 278.0658264160156 382.2593994140625 C 263.7274475097656 422.1207580566406 259.3291320800781 402.07171630859375 231.9842987060547 357.65716552734375 C 332.5013732910156 355.7835693359375 315.3007507324219 380.5618591308594 279.4161682128906 410.2131042480469" stroke-width="0.0" fill="rgb(14, 249, 84)" opacity="0.96981287" stroke="rgb(0, 0, 0)" stroke-opacity="1.0" stroke-linecap="round" stroke-linejoin="round"/>
    <path d="M 369.7316589355469 389.5093688964844 C 368.77398681640625 389.87432861328125 358.3553771972656 396.7811279296875 385.09857177734375 419.0340576171875 C 404.2489929199219 405.86077880859375 386.49566650390625 416.03167724609375 370.5102233886719 416.35235595703125 C 372.61663818359375 387.6962585449219 359.36773681640625 369.68408203125 385.70391845703125 379.2735595703125 C 399.6230773925781 364.7125244140625 390.3783874511719 369.3060607910156 369.7316589355469 389.5093688964844" stroke-width="0.0" fill="rgb(214, 172, 27)" opacity="0.0" stroke="rgb(0, 0, 0)" stroke-opacity="1.0" stroke-linecap="round" stroke-linejoin="round"/>
    <path d="M 337.42413330078125 13.714533805847168 C 367.013427734375 34.56415557861328 375.694091796875 40.90681838989258 333.7445068359375 34.88261032104492 C 328.64752197265625 36.71641159057617 316.3790588378906 15.798612594604492 313.6617126464844 1.2820571660995483 C 350.7419738769531 7.887404441833496 305.5489196777344 24.910964965820312 327.1673583984375 -7.924721717834473 C 335.0008239746094 -3.979762077331543 353.0584716796875 7.717765808105469 337.42413330078125 13.714533805847168" stroke-width="0.0" fill="rgb(127, 245, 30)" opacity="0.0063678916" stroke="rgb(0, 0, 0)" stroke-opacity="1.0" stroke-linecap="round" stroke-linejoin="round"/>
    <path d="M 111.87080383300781 150.88461303710938 C 120.64610290527344 169.66378784179688 131.13345336914062 152.50440979003906 101.66307830810547 132.31378173828125 C 106.58418273925781 143.24476623535156 100.5916748046875 125.22428894042969 97.32588958740234 123.35071563720703 C 75.66770935058594 127.60294342041016 60.7019157409668 90.4537124633789 58.468841552734375 102.46412658691406 C 120.56330108642578 113.0469970703125 112.38497924804688 118.9770278930664 111.87080383300781 150.88461303710938" stroke-width="0.0" fill="rgb(255, 157, 0)" opacity="0.51061183" stroke="rgb(0, 0, 0)" stroke-opacity="1.0" stroke-linecap="round" stroke-linejoin="round"/>
    <path d="M 392.46136474609375 334.7323913574219 C 406.9254455566406 358.94256591796875 387.5948791503906 348.44415283203125 402.4192810058594 364.9770812988281 C 401.6310729980469 351.04681396484375 396.1926574707031 316.420166015625 360.2373962402344 309.617919921875 C 348.21923828125 292.77569580078125 371.05322265625 292.5489501953125 358.219482421875 299.6183776855469 C 386.1299743652344 322.6568298339844 390.3410949707031 350.4075012207031 392.46136474609375 334.7323913574219" stroke-width="0.0" fill="rgb(32, 190, 125)" opacity="0.49395972" stroke="rgb(0, 0, 0)" stroke-opacity="1.0" stroke-linecap="round" stroke-linejoin="round"/>
    <path d="M 285.11688232421875 447.866943359375 C 269.2769470214844 432.9497985839844 251.7586212158203 455.9794616699219 274.0705871582031 455.78521728515625 C 266.3801574707031 445.8200988769531 275.7240905761719 454.0752868652344 271.1078796386719 422.11669921875 C 281.432373046875 395.27154541015625 261.373291015625 400.0099792480469 256.0777282714844 406.53778076171875 C 291.1791076660156 425.0361633300781 299.9439697265625 451.2548828125 285.11688232421875 447.866943359375" stroke-width="0.0" fill="rgb(58, 181, 109)" opacity="0.0" stroke="rgb(0, 0, 0)" stroke-opacity="1.0" stroke-linecap="round" stroke-linejoin="round"/>
    <path d="M 264.4842224121094 276.2052917480469 C 274.177734375 299.52008056640625 263.0188293457031 332.47479248046875 226.14756774902344 326.06817626953125 C 217.11578369140625 303.9113464355469 214.4364013671875 296.0609436035156 219.56353759765625 270.016845703125 C 206.8049774169922 267.9385070800781 196.186767578125 261.1523132324219 197.49778747558594 282.35797119140625 C 229.91937255859375 283.44171142578125 238.87486267089844 264.4537048339844 264.4842224121094 276.2052917480469" stroke-width="0.0" fill="rgb(0, 98, 30)" opacity="0.043210167" stroke="rgb(0, 0, 0)" stroke-opacity="1.0" stroke-linecap="round" stroke-linejoin="round"/>
    <path d="M 146.79620361328125 369.3650207519531 C 172.29519653320312 387.7603454589844 166.36053466796875 408.2128601074219 150.835693359375 402.73590087890625 C 135.4258270263672 385.47430419921875 135.3517303466797 364.3170471191406 137.3141326904297 367.8778076171875 C 132.55413818359375 378.6582946777344 173.9001007080078 362.4585266113281 161.73916625976562 385.5259094238281 C 141.67514038085938 350.3455810546875 150.84181213378906 352.6734924316406 146.79620361328125 369.3650207519531" stroke-width="0.0" fill="rgb(217, 49, 9)" opacity="0.98033214" stroke="rgb(0, 0, 0)" stroke-opacity="1.0" stroke-linecap="round" stroke-linejoin="round"/>
    <path d="M 435.17462158203125 123.59801483154297 C 423.5087585449219 159.7239990234375 440.11480712890625 157.4358673095703 424.12298583984375 143.335693359375 C 420.0123596191406 132.72425842285156 415.0514831542969 133.3777313232422 392.6086120605469 140.4535369873047 C 415.6513366699219 134.09474182128906 422.1037292480469 139.2191162109375 441.0282897949219 149.56236267089844 C 422.7817077636719 120.61024475097656 448.0985412597656 138.4178466796875 435.17462158203125 123.59801483154297" stroke-width="0.0" fill="rgb(222, 184, 43)" opacity="0.00058708" stroke="rgb(0, 0, 0)" stroke-opacity="1.0" stroke-linecap="round" stroke-linejoin="round"/>
    <path d="M 84.78934478759766 481.3740234375 C 90.7932357788086 491.8920593261719 83.93504333496094 504.28387451171875 61.89891052246094 496.5112609863281 C 64.79658508300781 490.6282653808594 71.29966735839844 474.07373046875 69.29376983642578 486.6503601074219 C 76.97761535644531 445.6545715332031 78.31249237060547 423.0883483886719 79.06647491455078 442.23211669921875 C 89.3742904663086 457.0517578125 82.83152770996094 473.7919006347656 84.78934478759766 481.3740234375" stroke-width="0.0" fill="rgb(212, 219, 29)" opacity="0.0" stroke="rgb(0, 0, 0)" stroke-opacity="1.0" stroke-linecap="round" stroke-linejoin="round"/>
    <path d="M 91.44285583496094 112.0134048461914 C 113.50872039794922 126.03148651123047 99.16702270507812 154.52703857421875 117.05580139160156 143.84628295898438 C 90.42914581298828 134.69033813476562 72.96278381347656 122.3933334350586 94.9099349975586 119.88258361816406 C 80.99149322509766 108.21952819824219 81.58499145507812 106.30001831054688 80.70514678955078 118.68536376953125 C 74.10563659667969 100.33943939208984 80.7915267944336 121.80921936035156 91.44285583496094 112.0134048461914" stroke-width="0.0" fill="rgb(252, 164, 0)" opacity="0.51705277" stroke="rgb(0, 0, 0)" stroke-opacity="1.0" stroke-linecap="round" stroke-linejoin="round"/>
    <path d="M 335.09307861328125 82.43595123291016 C 334.3050537109375 108.04375457763672 361.54205322265625 139.81619262695312 331.68408203125 142.095947265625 C 319.67572021484375 142.951416015625 311.1050720214844 147.41514587402344 277.7334289550781 111.4282455444336 C 289.7779846191406 105.45249938964844 314.3980712890625 104.6893310546875 347.5221862792969 112.61952209472656 C 339.0543212890625 82.52958679199219 339.592529296875 75.97781372070312 335.09307861328125 82.43595123291016" stroke-width="0.0" fill="rgb(167, 73, 66)" opacity="0.0" stroke="rgb(0, 0, 0)" stroke-opacity="1.0" stroke-linecap="round" stroke-linejoin="round"/>
    <path d="M 461.0727844238281 499.6006774902344 C 468.7418212890625 481.54803466796875 451.0242919921875 487.707275390625 421.7200622558594 491.1548767089844 C 426.87615966796875 510.69427490234375 421.2336120605469 479.0433349609375 424.9516906738281 487.32867431640625 C 428.1070251464844 469.4717712402344 445.91455078125 452.5738830566406 425.916015625 472.2533874511719 C 421.5634460449219 491.289306640625 427.2843933105469 507.90106201171875 461.0727844238281 499.6006774902344" stroke-width="0.0" fill="rgb(188, 211, 93)" opacity="0.0" stroke="rgb(0, 0, 0)" stroke-opacity="1.0" stroke-linecap="round" stroke-linejoin="round"/>
    <path d="M 469.1177673339844 -12.072184562683105 C 475.6895446777344 -1.670519471168518 463.1313171386719 3.9596753120422363 452.8660888671875 18.382585525512695 C 458.2572937011719 12.88769817352295 440.63836669921875 -0.26975199580192566 449.91326904296875 3.2382616996765137 C 432.97265625 -28.40562629699707 424.3379211425781 -0.6464499831199646 445.6245422363281 -0.7050558924674988 C 475.9093322753906 -16.874202728271484 493.49261474609375 -1.1295651197433472 469.1177673339844 -12.072184562683105" stroke-width="0.0" fill="rgb(205, 171, 35)" opacity="0.01683148" stroke="rgb(0, 0, 0)" stroke-opacity="1.0" stroke-linecap="round" stroke-linejoin="round"/>
    <path d="M 479.1016845703125 9.746956825256348 C 488.3489074707031 31.911983489990234 487.1133117675781 14.464415550231934 514.276611328125 21.743431091308594 C 494.527587890625 35.89775466918945 461.6518249511719 27.65169906616211 498.46636962890625 -10.709596633911133 C 463.37469482421875 -8.35522747039795 462.9887390136719 -9.674277305603027 484.736083984375 -21.634071350097656 C 499.5841979980469 -10.03931713104248 486.0289611816406 3.9409475326538086 479.1016845703125 9.746956825256348" stroke-width="0.0" fill="rgb(253, 209, 96)" opacity="0.0" stroke="rgb(0, 0, 0)" stroke-opacity="1.0" stroke-linecap="round" stroke-linejoin="round"/>
    <path d="M 51.721317291259766 337.26690673828125 C 57.89226150512695 363.7549133300781 64.9490737915039 355.1337890625 43.09193420410156 338.9284973144531 C 34.72124481201172 320.1075744628906 -12.323017120361328 326.9914245605469 16.233686447143555 328.6387023925781 C 19.64348030090332 317.8805847167969 24.767648696899414 305.1004333496094 30.256961822509766 293.5891418457031 C 42.9064826965332 284.44305419921875 59.70109939575195 306.7782897949219 51.721317291259766 337.26690673828125" stroke-width="0.0" fill="rgb(215, 147, 53)" opacity="0.0" stroke="rgb(0, 0, 0)" stroke-opacity="1.0" stroke-linecap="round" stroke-linejoin="round"/>
    <path d="M 226.52215576171875 435.660888671875 C 207.33572387695312 456.63616943359375 207.98902893066406 472.00067138671875 233.0178985595703 463.49676513671875 C 209.97476196289062 467.9036865234375 196.1573028564453 449.771728515625 189.980224609375 446.4779357910156 C 220.63583374023438 460.53466796875 228.86827087402344 475.7565002441406 195.84262084960938 481.27581787109375 C 216.31951904296875 473.3818664550781 260.3974914550781 472.5735778808594 226.52215576171875 435.660888671875" stroke-width="0.0" fill="rgb(183, 45, 36)" opacity="0.07256892" stroke="rgb(0, 0, 0)" stroke-opacity="1.0" stroke-linecap="round" stroke-linejoin="round"/>
    <path d="M 33.017303466796875 370.8772277832031 C 31.534412384033203 387.99090576171875 22.97021484375 395.5205078125 -1.1793782711029053 373.3044738769531 C 34.46678924560547 348.1391906738281 47.539913177490234 414.2864074707031 20.98606300354004 421.9727783203125 C -21.917448043823242 342.7552490234375 23.606765747070312 323.8586120605469 7.681032657623291 353.0419921875 C 28.127017974853516 373.283935546875 38.73493194580078 373.967041015625 33.017303466796875 370.8772277832031" stroke-width="0.0" fill="rgb(168, 215, 115)" opacity="0.0019038897" stroke="rgb(0, 0, 0)" stroke-opacity="1.0" stroke-linecap="round" stroke-linejoin="round"/>
    <path d="M 198.6654815673828 464.0269775390625 C 200.07066345214844 490.215087890625 190.87750244140625 499.67938232421875 193.81320190429688 452.0246887207031 C 146.97010803222656 473.3898010253906 136.15370178222656 480.7827453613281 191.82684326171875 445.07110595703125 C 174.4856414794922 430.5304260253906 166.59657287597656 440.39178466796875 180.89585876464844 441.7034606933594 C 204.3712158203125 420.5146789550781 199.8352813720703 439.8674621582031 198.6654815673828 464.0269775390625" stroke-width="0.0" fill="rgb(128, 129, 105)" opacity="0.0" stroke="rgb(0, 0, 0)" stroke-opacity="1.0" stroke-linecap="round" stroke-linejoin="round"/>
    <path d="M 374.07623291015625 181.01089477539062 C 342.3852233886719 207.1282958984375 311.9370422363281 203.4736785888672 325.21148681640625 239.52597045898438 C 357.4028015136719 250.89447021484375 332.57672119140625 255.10507202148438 322.8414611816406 244.64956665039062 C 333.80584716796875 216.72897338867188 344.5057067871094 215.67445373535156 329.8474426269531 215.98204040527344 C 333.8320007324219 196.70579528808594 337.61151123046875 186.9983673095703 374.07623291015625 181.01089477539062" stroke-width="0.0" fill="rgb(42, 169, 141)" opacity="0.02166313" stroke="rgb(0, 0, 0)" stroke-opacity="1.0" stroke-linecap="round" stroke-linejoin="round"/>
    <path d="M 203.3721160888672 229.23394775390625 C 211.81849670410156 264.213623046875 205.26902770996094 275.16754150390625 198.146728515625 286.34375 C 144.5536346435547 295.14300537109375 135.66604614257812 291.3860778808594 153.20501708984375 237.9434051513672 C 144.76695251464844 219.9391326904297 142.59283447265625 225.52447509765625 172.04449462890625 255.6365509033203 C 199.29214477539062 215.2960662841797 189.1012725830078 208.92044067382812 203.3721160888672 229.23394775390625" stroke-width="0.0" fill="rgb(201, 229, 88)" opacity="0.0" stroke="rgb(0, 0, 0)" stroke-opacity="1.0" stroke-linecap="round" stroke-linejoin="round"/>
    <path d="M 186.14016723632812 408.00830078125 C 204.11940002441406 426.9924621582031 183.95204162597656 427.8691711425781 188.7737274169922 462.5668640136719 C 174.55380249023438 435.3465576171875 155.98683166503906 419.7840881347656 144.00628662109375 440.1233825683594 C 132.91949462890625 429.3878173828125 140.75570678710938 394.44451904296875 179.4695587158203 380.5424499511719 C 199.07894897460938 420.8597106933594 189.5787353515625 395.3525695800781 186.14016723632812 408.00830078125" stroke-width="0.0" fill="rgb(229, 117, 0)" opacity="0.0" stroke="rgb(0, 0, 0)" stroke-opacity="1.0" stroke-linecap="round" stroke-linejoin="round"/>
    <path d="M 517.686279296875 235.91571044921875 C 531.9967041015625 228.08543395996094 513.9257202148438 221.1224365234375 476.0998229980469 216.2001495361328 C 449.9195556640625 259.2207946777344 452.2598876953125 245.00277709960938 456.299560546875 233.5218048095703 C 458.86773681640625 225.24383544921875 432.67230224609375 207.94180297851562 464.0067138671875 202.73448181152344 C 507.2669372558594 193.0939483642578 521.8431396484375 218.3547821044922 517.686279296875 235.91571044921875" stroke-width="0.0" fill="rgb(242, 206, 76)" opacity="0.0" stroke="rgb(0, 0, 0)" stroke-opacity="1.0" stroke-linecap="round" stroke-linejoin="round"/>
  </g>
</svg>
