<?xml version="1.0" ?>
<svg xmlns="http://www.w3.org/2000/svg" version="1.1" width="512" height="512">
  <defs/>
  <g>
    <path d="M 537.694580078125 477.0685729980469 C 547.1686401367188 523.8544921875 542.5209350585938 533.12744140625 398.4627685546875 519.5578002929688 C 323.7541198730469 545.7357788085938 285.5562438964844 560.7153930664062 239.7507781982422 482.21954345703125 C 296.0756530761719 333.0117492675781 389.443603515625 348.5165100097656 506.2891845703125 337.9936828613281 C 553.0869140625 336.0301208496094 558.6583862304688 357.13800048828125 537.694580078125 477.0685729980469" stroke-width="0.0" fill="rgb(0, 3, 128)" opacity="1.0" stroke="rgb(0, 0, 0)" stroke-opacity="1.0" stroke-linecap="round" stroke-linejoin="round"/>
    <path d="M 286.6275634765625 497.5035400390625 C 342.0133361816406 538.3598022460938 372.7727355957031 546.3965454101562 253.6011962890625 548.08837890625 C -51.100406646728516 521.1051635742188 -51.19970703125 512.4564819335938 -47.60886001586914 475.1512451171875 C -32.99674606323242 204.70321655273438 -27.748165130615234 194.64337158203125 34.435760498046875 200.2859649658203 C 149.1512451171875 298.0727233886719 170.91456604003906 306.31890869140625 286.6275634765625 497.5035400390625" stroke-width="0.0" fill="rgb(161, 41, 177)" opacity="0.7321036" stroke="rgb(0, 0, 0)" stroke-opacity="1.0" stroke-linecap="round" stroke-linejoin="round"/>
    <path d="M 314.24981689453125 344.8206787109375 C 307.5055847167969 404.5445251464844 289.2669982910156 399.3944396972656 223.70321655273438 411.2140808105469 C 77.13047790527344 341.6589660644531 100.74008178710938 291.0357666015625 45.49199676513672 193.8357696533203 C 49.614376068115234 208.686767578125 51.272605895996094 204.24319458007812 121.59070587158203 175.62037658691406 C 274.3208923339844 156.2488555908203 300.2986755371094 121.05789947509766 314.24981689453125 344.8206787109375" stroke-width="0.0" fill="rgb(209, 255, 104)" opacity="1.0" stroke="rgb(0, 0, 0)" stroke-opacity="1.0" stroke-linecap="round" stroke-linejoin="round"/>
    <path d="M 268.87530517578125 13.628843307495117 C 275.2754821777344 247.9014434814453 256.8981628417969 194.5687255859375 37.026634216308594 258.53521728515625 C -47.572513580322266 258.7019348144531 -12.167425155639648 174.78253173828125 -13.208847999572754 122.98334503173828 C -29.594274520874023 -8.126014709472656 -5.542934417724609 -26.00149917602539 78.9990234375 -64.01148223876953 C 249.4127960205078 -68.56841278076172 267.1479797363281 -76.28951263427734 268.87530517578125 13.628843307495117" stroke-width="0.0" fill="rgb(181, 38, 129)" opacity="0.8566481" stroke="rgb(0, 0, 0)" stroke-opacity="1.0" stroke-linecap="round" stroke-linejoin="round"/>
    <path d="M 561.0263061523438 55.45402145385742 C 447.6452941894531 288.6534423828125 447.8426818847656 304.0960693359375 384.00494384765625 311.4354553222656 C 284.8498840332031 319.3334045410156 299.9662170410156 301.68896484375 247.58621215820312 177.25949096679688 C 276.8519287109375 -14.83948802947998 193.12586975097656 -48.991817474365234 343.1448669433594 -42.018306732177734 C 563.2000122070312 -5.52442741394043 563.2000122070312 4.830130577087402 561.0263061523438 55.45402145385742" stroke-width="0.0" fill="rgb(121, 15, 165)" opacity="0.820113" stroke="rgb(0, 0, 0)" stroke-opacity="1.0" stroke-linecap="round" stroke-linejoin="round"/>
    <path d="M 334.7809753417969 85.57454681396484 C 294.1668701171875 283.2466125488281 247.1517333984375 262.2053527832031 180.63174438476562 225.17359924316406 C 60.622314453125 251.61553955078125 46.03749084472656 244.6026153564453 110.9558334350586 230.45816040039062 C 141.53472900390625 180.56390380859375 144.81922912597656 155.3216552734375 329.765625 52.251766204833984 C 298.251220703125 -11.440719604492188 278.6288757324219 8.341878890991211 334.7809753417969 85.57454681396484" stroke-width="0.0" fill="rgb(126, 227, 58)" opacity="0.8937993" stroke="rgb(0, 0, 0)" stroke-opacity="1.0" stroke-linecap="round" stroke-linejoin="round"/>
    <path d="M 461.29486083984375 317.70703125 C 449.3646240234375 388.9425964355469 456.81072998046875 443.39898681640625 313.5965576171875 433.666015625 C 275.29046630859375 424.07330322265625 252.13397216796875 452.19671630859375 257.94183349609375 412.2601623535156 C 266.8748474121094 154.00894165039062 262.73974609375 163.89242553710938 341.8829345703125 216.0563201904297 C 443.1924743652344 259.0711975097656 478.06280517578125 243.2999725341797 461.29486083984375 317.70703125" stroke-width="0.0" fill="rgb(165, 10, 39)" opacity="1.0" stroke="rgb(0, 0, 0)" stroke-opacity="1.0" stroke-linecap="round" stroke-linejoin="round"/>
    <path d="M 555.7512817382812 174.10862731933594 C 561.3740844726562 329.97857666015625 561.063232421875 347.70184326171875 423.266845703125 451.0953063964844 C 306.00531005859375 452.9400634765625 366.6824035644531 400.28204345703125 383.30474853515625 263.5576171875 C 326.5447998046875 170.73509216308594 379.3929138183594 137.58523559570312 545.0379028320312 104.162109375 C 563.2000122070312 76.2098159790039 563.2000122070312 99.41815185546875 555.7512817382812 174.10862731933594" stroke-width="0.0" fill="rgb(0, 0, 180)" opacity="1.0" stroke="rgb(0, 0, 0)" stroke-opacity="1.0" stroke-linecap="round" stroke-linejoin="round"/>
    <path d="M 405.61865234375 260.8121643066406 C 416.3088684082031 276.3920593261719 380.8470153808594 213.87796020507812 354.8232421875 255.83348083496094 C 335.1573791503906 255.99627685546875 295.25042724609375 209.6064453125 169.84788513183594 255.22772216796875 C 233.86180114746094 145.2030487060547 268.4542541503906 170.42123413085938 330.9018249511719 138.1186981201172 C 347.14202880859375 143.1834259033203 395.1402282714844 185.2176971435547 405.61865234375 260.8121643066406" stroke-width="0.0" fill="rgb(212, 24, 10)" opacity="0.91725045" stroke="rgb(0, 0, 0)" stroke-opacity="1.0" stroke-linecap="round" stroke-linejoin="round"/>
    <path d="M 400.06781005859375 244.8396453857422 C 412.828369140625 259.6280212402344 390.341552734375 381.8996887207031 339.48992919921875 404.88055419921875 C 306.97283935546875 327.9609375 348.2052001953125 279.2463684082031 286.7298278808594 173.633544921875 C 398.4882507324219 179.0386505126953 338.24072265625 257.25238037109375 318.47552490234375 162.74061584472656 C 379.8174743652344 123.39604949951172 408.9139709472656 279.63299560546875 400.06781005859375 244.8396453857422" stroke-width="0.0" fill="rgb(155, 33, 11)" opacity="0.9998563" stroke="rgb(0, 0, 0)" stroke-opacity="1.0" stroke-linecap="round" stroke-linejoin="round"/>
    <path d="M 344.9232177734375 87.33349609375 C 293.1020202636719 70.0060806274414 262.6603698730469 98.3031234741211 257.4083251953125 176.22280883789062 C 234.2626190185547 184.25794982910156 201.31878662109375 133.4777374267578 87.90279388427734 157.11026000976562 C 70.68294525146484 -24.23774528503418 111.72150421142578 -19.255516052246094 257.44329833984375 -49.844932556152344 C 366.4743347167969 -68.09253692626953 362.4985046386719 -13.36097526550293 344.9232177734375 87.33349609375" stroke-width="0.0" fill="rgb(161, 39, 190)" opacity="0.9836557" stroke="rgb(0, 0, 0)" stroke-opacity="1.0" stroke-linecap="round" stroke-linejoin="round"/>
    <path d="M 308.9248352050781 420.8728942871094 C 253.194091796875 436.0316162109375 216.8415985107422 424.07818603515625 192.9019775390625 392.64935302734375 C 157.01368713378906 361.2517395019531 130.27598571777344 402.1350402832031 217.7428741455078 400.4783020019531 C 168.109130859375 350.6797180175781 181.85488891601562 257.58349609375 181.9123077392578 298.83135986328125 C 254.19642639160156 337.0375671386719 185.71934509277344 362.3731994628906 308.9248352050781 420.8728942871094" stroke-width="0.0" fill="rgb(211, 253, 107)" opacity="0.5985922" stroke="rgb(0, 0, 0)" stroke-opacity="1.0" stroke-linecap="round" stroke-linejoin="round"/>
    <path d="M 471.56134033203125 403.9831237792969 C 458.4383544921875 421.78094482421875 456.3341064453125 437.3670349121094 401.37738037109375 440.2215881347656 C 404.7712097167969 444.7381896972656 404.39544677734375 450.3450012207031 361.4514465332031 429.3563232421875 C 387.83123779296875 431.3215637207031 426.5549621582031 409.5745544433594 438.7531433105469 397.8240966796875 C 426.50885009765625 393.69525146484375 474.1307373046875 406.7469482421875 471.56134033203125 403.9831237792969" stroke-width="0.0" fill="rgb(14, 40, 96)" opacity="0.6494274" stroke="rgb(0, 0, 0)" stroke-opacity="1.0" stroke-linecap="round" stroke-linejoin="round"/>
    <path d="M 374.09063720703125 402.5769958496094 C 349.81787109375 504.22515869140625 350.8559875488281 515.9536743164062 257.7208557128906 517.5322875976562 C 221.173583984375 474.3810119628906 204.67739868164062 452.655029296875 177.61009216308594 428.31072998046875 C 217.42132568359375 410.055908203125 246.19122314453125 411.84442138671875 282.0914611816406 409.5564880371094 C 299.86236572265625 436.5350036621094 341.92669677734375 407.18927001953125 374.09063720703125 402.5769958496094" stroke-width="0.0" fill="rgb(0, 0, 193)" opacity="1.0" stroke="rgb(0, 0, 0)" stroke-opacity="1.0" stroke-linecap="round" stroke-linejoin="round"/>
    <path d="M 299.6393127441406 252.82666015625 C 241.3443145751953 235.53689575195312 220.9307861328125 295.159423828125 247.26644897460938 329.27740478515625 C 151.1202850341797 362.6097717285156 186.93890380859375 322.7910461425781 176.739990234375 275.6858215332031 C 117.3053207397461 183.1951904296875 125.25835418701172 112.9278793334961 258.1814880371094 139.35223388671875 C 284.0008544921875 156.65158081054688 309.7809143066406 220.10520935058594 299.6393127441406 252.82666015625" stroke-width="0.0" fill="rgb(212, 255, 99)" opacity="1.0" stroke="rgb(0, 0, 0)" stroke-opacity="1.0" stroke-linecap="round" stroke-linejoin="round"/>
    <path d="M 444.9328308105469 428.66412353515625 C 424.99139404296875 495.6019287109375 406.99755859375 502.6855773925781 368.65264892578125 498.6580810546875 C 314.18133544921875 526.5324096679688 284.0977478027344 525.0083618164062 295.2491149902344 475.0350646972656 C 319.7466735839844 407.3773498535156 332.5306701660156 405.1260070800781 348.6019592285156 394.385498046875 C 415.51812744140625 415.8745422363281 458.86383056640625 432.6427917480469 444.9328308105469 428.66412353515625" stroke-width="0.0" fill="rgb(0, 21, 136)" opacity="0.5037532" stroke="rgb(0, 0, 0)" stroke-opacity="1.0" stroke-linecap="round" stroke-linejoin="round"/>
    <path d="M 281.62420654296875 228.40890502929688 C 228.75790405273438 258.369873046875 209.3314666748047 298.96160888671875 269.73492431640625 303.24957275390625 C 271.108642578125 366.9811706542969 260.2814636230469 376.7978515625 260.6711730957031 374.6246337890625 C 289.64593505859375 416.5471496582031 287.33465576171875 416.2435607910156 286.90435791015625 370.496337890625 C 288.5725402832031 390.33642578125 296.1516418457031 405.7602233886719 281.62420654296875 228.40890502929688" stroke-width="0.0" fill="rgb(101, 34, 51)" opacity="0.0" stroke="rgb(0, 0, 0)" stroke-opacity="1.0" stroke-linecap="round" stroke-linejoin="round"/>
    <path d="M 227.46238708496094 148.98483276367188 C 69.39776611328125 54.739139556884766 80.851318359375 394.8171081542969 202.7747039794922 424.88323974609375 C 72.30204772949219 285.7342529296875 266.0035095214844 96.30453491210938 105.92180633544922 168.47178649902344 C 69.20719909667969 345.92425537109375 101.4609603881836 276.84478759765625 164.74765014648438 206.38096618652344 C 145.35487365722656 333.570556640625 122.7120132446289 230.82318115234375 227.46238708496094 148.98483276367188" stroke-width="0.0" fill="rgb(212, 255, 97)" opacity="1.0" stroke="rgb(0, 0, 0)" stroke-opacity="1.0" stroke-linecap="round" stroke-linejoin="round"/>
    <path d="M 321.58319091796875 136.58265686035156 C 291.9352111816406 151.68792724609375 286.35009765625 154.47970581054688 298.45330810546875 152.8932342529297 C 305.98480224609375 141.68006896972656 298.58306884765625 161.06097412109375 269.0494384765625 150.7105255126953 C 265.06170654296875 172.18783569335938 284.14459228515625 144.68836975097656 310.8163146972656 121.62486267089844 C 319.41741943359375 149.353759765625 318.65545654296875 105.54373931884766 321.58319091796875 136.58265686035156" stroke-width="0.0" fill="rgb(27, 123, 211)" opacity="0.7470883" stroke="rgb(0, 0, 0)" stroke-opacity="1.0" stroke-linecap="round" stroke-linejoin="round"/>
    <path d="M 128.91136169433594 165.4947509765625 C 89.34571838378906 217.50665283203125 98.45314025878906 267.8468933105469 128.03997802734375 348.8945617675781 C -9.539237976074219 390.2114562988281 -45.12977981567383 388.5490417480469 -48.20641326904297 230.19776916503906 C 53.106258392333984 227.41043090820312 45.77088165283203 195.0511016845703 127.76103210449219 118.06631469726562 C 214.4007110595703 142.22100830078125 162.28082275390625 123.14070892333984 128.91136169433594 165.4947509765625" stroke-width="0.0" fill="rgb(162, 51, 176)" opacity="0.9970652" stroke="rgb(0, 0, 0)" stroke-opacity="1.0" stroke-linecap="round" stroke-linejoin="round"/>
    <path d="M 222.76377868652344 169.89317321777344 C 137.01715087890625 329.29266357421875 211.3657684326172 353.0869445800781 175.5139923095703 307.3965148925781 C 171.71998596191406 309.481201171875 189.48008728027344 237.27024841308594 187.1428680419922 237.4661407470703 C 125.02082824707031 270.6532897949219 157.4678192138672 265.8231201171875 174.7701416015625 241.79080200195312 C 192.9284210205078 246.8533172607422 199.25262451171875 206.57159423828125 222.76377868652344 169.89317321777344" stroke-width="0.0" fill="rgb(229, 255, 68)" opacity="0.08834825" stroke="rgb(0, 0, 0)" stroke-opacity="1.0" stroke-linecap="round" stroke-linejoin="round"/>
    <path d="M 357.0827941894531 108.7021484375 C 279.9940185546875 236.5062255859375 256.4237060546875 71.02703857421875 257.91961669921875 161.7445831298828 C 262.6758117675781 205.89407348632812 272.1947021484375 152.72149658203125 246.94981384277344 114.20491790771484 C 205.4406280517578 52.247169494628906 277.892822265625 71.7763442993164 269.4752197265625 123.01119995117188 C 313.79913330078125 96.15304565429688 355.2621765136719 71.39649200439453 357.0827941894531 108.7021484375" stroke-width="0.0" fill="rgb(231, 176, 0)" opacity="0.99793464" stroke="rgb(0, 0, 0)" stroke-opacity="1.0" stroke-linecap="round" stroke-linejoin="round"/>
    <path d="M 284.9945373535156 162.98204040527344 C 301.01922607421875 177.60643005371094 304.039306640625 173.73538208007812 307.1270751953125 155.7684783935547 C 301.5005187988281 171.02151489257812 295.2879943847656 171.24513244628906 278.3268127441406 165.35508728027344 C 289.12078857421875 146.99713134765625 283.43194580078125 150.7342987060547 278.9255676269531 168.09237670898438 C 280.95623779296875 166.92135620117188 265.98162841796875 175.0912322998047 284.9945373535156 162.98204040527344" stroke-width="0.0" fill="rgb(50, 144, 54)" opacity="0.10634327" stroke="rgb(0, 0, 0)" stroke-opacity="1.0" stroke-linecap="round" stroke-linejoin="round"/>
    <path d="M 244.15834045410156 402.9057922363281 C 239.97802734375 410.88653564453125 226.9732208251953 421.01837158203125 202.9925079345703 430.46075439453125 C 159.46026611328125 422.8116455078125 161.14154052734375 396.5069274902344 159.48280334472656 366.25921630859375 C 192.68040466308594 376.0873107910156 182.7924346923828 378.16033935546875 183.69381713867188 359.13287353515625 C 209.9452667236328 348.8274230957031 215.8387908935547 357.75982666015625 244.15834045410156 402.9057922363281" stroke-width="0.0" fill="rgb(209, 255, 99)" opacity="1.0" stroke="rgb(0, 0, 0)" stroke-opacity="1.0" stroke-linecap="round" stroke-linejoin="round"/>
    <path d="M 364.9410705566406 375.19036865234375 C 347.869384765625 396.8074035644531 336.8647766113281 421.1163635253906 310.1413879394531 429.3861999511719 C 254.572021484375 405.081298828125 244.48876953125 408.90643310546875 301.0328674316406 384.1266784667969 C 310.5209655761719 403.2482604980469 339.0888977050781 397.9504089355469 367.0962219238281 335.4106750488281 C 347.3597106933594 379.1590576171875 377.9447021484375 389.39898681640625 364.9410705566406 375.19036865234375" stroke-width="0.0" fill="rgb(146, 37, 0)" opacity="0.89073557" stroke="rgb(0, 0, 0)" stroke-opacity="1.0" stroke-linecap="round" stroke-linejoin="round"/>
    <path d="M 314.0795593261719 266.7113342285156 C 238.0388946533203 278.8080139160156 250.76385498046875 309.4075012207031 235.45777893066406 297.47528076171875 C 216.6205596923828 306.0435791015625 225.380859375 286.3330993652344 214.63949584960938 283.9410400390625 C 217.0760955810547 258.479736328125 215.4549102783203 245.88377380371094 261.093994140625 257.4248046875 C 268.6265869140625 214.97361755371094 309.3252258300781 217.70510864257812 314.0795593261719 266.7113342285156" stroke-width="0.0" fill="rgb(84, 190, 135)" opacity="0.13584602" stroke="rgb(0, 0, 0)" stroke-opacity="1.0" stroke-linecap="round" stroke-linejoin="round"/>
    <path d="M 166.15017700195312 321.85150146484375 C 173.863037109375 386.34393310546875 200.59912109375 353.1068115234375 193.13748168945312 359.6961364746094 C 188.57022094726562 340.04913330078125 182.56752014160156 353.1612243652344 146.81349182128906 333.7291259765625 C 138.15184020996094 339.0506591796875 156.75868225097656 350.7800598144531 149.30482482910156 340.6744384765625 C 168.42799377441406 305.0994873046875 191.64808654785156 316.74334716796875 166.15017700195312 321.85150146484375" stroke-width="0.0" fill="rgb(236, 207, 40)" opacity="0.006924496" stroke="rgb(0, 0, 0)" stroke-opacity="1.0" stroke-linecap="round" stroke-linejoin="round"/>
    <path d="M 304.58685302734375 288.439453125 C 300.8529968261719 313.2886657714844 267.2804260253906 301.67913818359375 246.51275634765625 326.3663635253906 C 244.39297485351562 335.5653381347656 253.5413360595703 331.2115783691406 266.65380859375 335.3631591796875 C 286.7479553222656 326.3785400390625 247.0353240966797 304.8295593261719 262.1650695800781 242.85223388671875 C 285.38372802734375 251.46578979492188 299.884765625 255.54359436035156 304.58685302734375 288.439453125" stroke-width="0.0" fill="rgb(58, 91, 81)" opacity="0.56124824" stroke="rgb(0, 0, 0)" stroke-opacity="1.0" stroke-linecap="round" stroke-linejoin="round"/>
    <path d="M 414.1917419433594 74.47058868408203 C 388.5099792480469 140.02249145507812 359.12969970703125 142.4047088623047 333.1579895019531 155.8845977783203 C 244.8288116455078 170.50502014160156 264.19329833984375 145.98997497558594 258.26953125 123.1641845703125 C 279.5601806640625 75.4720458984375 320.3244323730469 68.38323211669922 326.1612548828125 68.61263275146484 C 352.17449951171875 59.27064895629883 379.33111572265625 66.99295806884766 414.1917419433594 74.47058868408203" stroke-width="0.0" fill="rgb(6, 255, 99)" opacity="1.0" stroke="rgb(0, 0, 0)" stroke-opacity="1.0" stroke-linecap="round" stroke-linejoin="round"/>
    <path d="M 313.00177001953125 269.5198974609375 C 277.9161071777344 227.6191864013672 303.9679260253906 251.8221435546875 267.48638916015625 258.90850830078125 C 280.40472412109375 258.8472900390625 273.4768981933594 248.84059143066406 258.92510986328125 229.73326110839844 C 268.75286865234375 154.06991577148438 234.4653778076172 146.7884063720703 296.89813232421875 157.40928649902344 C 335.7393493652344 147.54638671875 342.23797607421875 213.2550811767578 313.00177001953125 269.5198974609375" stroke-width="0.0" fill="rgb(165, 14, 45)" opacity="0.96392196" stroke="rgb(0, 0, 0)" stroke-opacity="1.0" stroke-linecap="round" stroke-linejoin="round"/>
    <path d="M 256.8451843261719 283.953369140625 C 270.0263671875 272.90618896484375 265.8036193847656 276.760986328125 284.6383056640625 268.4451904296875 C 264.74017333984375 270.04888916015625 253.31478881835938 280.6573791503906 262.38238525390625 283.20404052734375 C 270.5013427734375 258.90313720703125 286.6043395996094 239.4317626953125 281.9447937011719 226.63026428222656 C 247.84117126464844 217.16563415527344 256.2068176269531 255.9219970703125 256.8451843261719 283.953369140625" stroke-width="0.0" fill="rgb(179, 89, 77)" opacity="0.0" stroke="rgb(0, 0, 0)" stroke-opacity="1.0" stroke-linecap="round" stroke-linejoin="round"/>
    <path d="M 365.4031982421875 199.7084503173828 C 362.28851318359375 201.7900390625 370.7694091796875 240.16757202148438 363.52532958984375 212.762451171875 C 363.6153564453125 219.55816650390625 363.1407470703125 195.57687377929688 354.0368347167969 194.03814697265625 C 342.9739990234375 189.94972229003906 336.83160400390625 179.1429443359375 365.5414123535156 178.88397216796875 C 377.19024658203125 173.50579833984375 373.6309509277344 167.04759216308594 365.4031982421875 199.7084503173828" stroke-width="0.0" fill="rgb(167, 130, 61)" opacity="0.002896922" stroke="rgb(0, 0, 0)" stroke-opacity="1.0" stroke-linecap="round" stroke-linejoin="round"/>
    <path d="M 91.64974975585938 449.82611083984375 C 98.08159637451172 464.0346984863281 73.33002471923828 457.86724853515625 76.2613296508789 459.14825439453125 C 72.35033416748047 466.87005615234375 42.61776351928711 463.9361572265625 47.505741119384766 455.86920166015625 C 52.85860061645508 454.0938415527344 40.6899528503418 470.67083740234375 77.00768280029297 472.19775390625 C 99.92701721191406 455.39825439453125 89.42713928222656 456.97735595703125 91.64974975585938 449.82611083984375" stroke-width="0.0" fill="rgb(147, 139, 116)" opacity="0.50101817" stroke="rgb(0, 0, 0)" stroke-opacity="1.0" stroke-linecap="round" stroke-linejoin="round"/>
    <path d="M 207.5926513671875 321.4854736328125 C 215.20297241210938 368.9070129394531 211.07681274414062 375.15081787109375 218.1561737060547 369.4344482421875 C 212.89620971679688 352.7133483886719 206.64303588867188 358.67938232421875 197.12596130371094 333.6125793457031 C 203.8485565185547 329.10870361328125 158.82196044921875 343.0001525878906 190.13174438476562 316.0616149902344 C 186.94639587402344 325.48455810546875 192.80117797851562 327.00994873046875 207.5926513671875 321.4854736328125" stroke-width="0.0" fill="rgb(212, 243, 43)" opacity="0.0" stroke="rgb(0, 0, 0)" stroke-opacity="1.0" stroke-linecap="round" stroke-linejoin="round"/>
    <path d="M 34.26185607910156 297.9169616699219 C 36.57951354980469 302.38623046875 28.784494400024414 313.7444152832031 34.02562713623047 311.2129821777344 C 30.26883888244629 306.48004150390625 35.613277435302734 323.9194641113281 27.25579071044922 315.24969482421875 C 19.936630249023438 315.0389099121094 22.710723876953125 297.06927490234375 32.565425872802734 287.600830078125 C 42.986183166503906 289.29547119140625 43.60240173339844 281.24664306640625 34.26185607910156 297.9169616699219" stroke-width="0.0" fill="rgb(134, 156, 85)" opacity="0.6613752" stroke="rgb(0, 0, 0)" stroke-opacity="1.0" stroke-linecap="round" stroke-linejoin="round"/>
    <path d="M 136.28529357910156 430.244140625 C 130.04591369628906 441.0728454589844 107.93061828613281 450.2569580078125 91.88990020751953 448.00909423828125 C 82.68302154541016 451.7759094238281 80.06774139404297 473.0535888671875 89.84893798828125 460.2486267089844 C 108.35271453857422 449.5410461425781 114.30967712402344 431.8439025878906 131.2526092529297 429.5178527832031 C 119.25995635986328 425.2861328125 123.46086883544922 440.0978698730469 136.28529357910156 430.244140625" stroke-width="0.0" fill="rgb(136, 71, 142)" opacity="0.29511833" stroke="rgb(0, 0, 0)" stroke-opacity="1.0" stroke-linecap="round" stroke-linejoin="round"/>
    <path d="M 494.3842468261719 59.098026275634766 C 496.8802795410156 68.31809997558594 488.47686767578125 74.66342163085938 472.90972900390625 77.9092788696289 C 465.0255432128906 103.15709686279297 466.3288879394531 103.44721984863281 468.6937561035156 88.14382934570312 C 474.5839538574219 71.6238784790039 489.05706787109375 69.097900390625 486.3293762207031 65.00337982177734 C 478.192138671875 57.716670989990234 497.11322021484375 55.11061477661133 494.3842468261719 59.098026275634766" stroke-width="0.0" fill="rgb(72, 29, 194)" opacity="0.0" stroke="rgb(0, 0, 0)" stroke-opacity="1.0" stroke-linecap="round" stroke-linejoin="round"/>
    <path d="M 58.887813568115234 185.0316925048828 C 63.975868225097656 189.2533721923828 54.60002899169922 201.12266540527344 66.40697479248047 252.85107421875 C 3.230499505996704 267.7333068847656 -18.315210342407227 242.7220916748047 -6.512697696685791 200.0022430419922 C 40.7243766784668 208.80984497070312 40.028438568115234 200.8368377685547 28.167560577392578 159.9458465576172 C 51.24250030517578 162.40509033203125 65.36947631835938 182.32716369628906 58.887813568115234 185.0316925048828" stroke-width="0.0" fill="rgb(174, 76, 119)" opacity="0.050065693" stroke="rgb(0, 0, 0)" stroke-opacity="1.0" stroke-linecap="round" stroke-linejoin="round"/>
    <path d="M 321.8102111816406 329.6678466796875 C 301.9277038574219 322.9330749511719 281.91650390625 311.3282165527344 285.690185546875 335.826904296875 C 300.87261962890625 350.08135986328125 276.1291198730469 347.1575927734375 291.4838562011719 323.9802551269531 C 278.5021667480469 329.45074462890625 302.032958984375 327.8981628417969 296.4421081542969 325.921875 C 303.55621337890625 265.88079833984375 317.146728515625 277.2470397949219 321.8102111816406 329.6678466796875" stroke-width="0.0" fill="rgb(116, 84, 1)" opacity="0.22200014" stroke="rgb(0, 0, 0)" stroke-opacity="1.0" stroke-linecap="round" stroke-linejoin="round"/>
    <path d="M 392.46026611328125 438.9556579589844 C 388.4989318847656 454.7747802734375 417.0614013671875 438.0338439941406 365.80120849609375 441.0487976074219 C 331.74078369140625 454.41131591796875 354.5246887207031 460.9163818359375 365.0257873535156 445.86175537109375 C 329.7547302246094 431.75067138671875 356.4964599609375 426.0870056152344 368.0790100097656 432.2383728027344 C 389.68170166015625 418.78863525390625 410.1067810058594 424.3919982910156 392.46026611328125 438.9556579589844" stroke-width="0.0" fill="rgb(9, 48, 85)" opacity="0.10451139" stroke="rgb(0, 0, 0)" stroke-opacity="1.0" stroke-linecap="round" stroke-linejoin="round"/>
    <path d="M 340.4173583984375 410.2316589355469 C 334.7922058105469 421.2374267578125 329.7348327636719 437.4237365722656 309.2767333984375 423.5285339355469 C 310.32623291015625 404.2450256347656 299.2287292480469 404.5732116699219 297.89013671875 416.45233154296875 C 315.06768798828125 419.2133483886719 319.4175720214844 405.15484619140625 362.64959716796875 382.3429260253906 C 337.6136169433594 417.8009948730469 349.2736511230469 410.3531188964844 340.4173583984375 410.2316589355469" stroke-width="0.0" fill="rgb(216, 119, 0)" opacity="0.5439315" stroke="rgb(0, 0, 0)" stroke-opacity="1.0" stroke-linecap="round" stroke-linejoin="round"/>
    <path d="M 423.0111083984375 63.280296325683594 C 421.43719482421875 73.29933166503906 421.8750305175781 71.60542297363281 423.5590515136719 93.06832885742188 C 421.4521484375 69.71807861328125 418.147705078125 50.61759948730469 418.95941162109375 52.671783447265625 C 415.6604309082031 57.24530792236328 411.03363037109375 49.02696228027344 414.0714416503906 49.75950622558594 C 408.5416564941406 63.59627914428711 422.95562744140625 63.624088287353516 423.0111083984375 63.280296325683594" stroke-width="0.0" fill="rgb(123, 73, 159)" opacity="0.32913718" stroke="rgb(0, 0, 0)" stroke-opacity="1.0" stroke-linecap="round" stroke-linejoin="round"/>
    <path d="M 36.46968078613281 71.69989013671875 C 21.250652313232422 51.44659423828125 19.290864944458008 60.308082580566406 23.014482498168945 92.45529174804688 C 33.44064712524414 87.203369140625 16.17885398864746 103.80543518066406 4.622565746307373 103.21062469482422 C 35.16482162475586 116.35637664794922 43.028141021728516 104.10681915283203 24.156494140625 65.59396362304688 C 19.77879524230957 72.9759750366211 38.38372802734375 97.87836456298828 36.46968078613281 71.69989013671875" stroke-width="0.0" fill="rgb(92, 70, 223)" opacity="0.0" stroke="rgb(0, 0, 0)" stroke-opacity="1.0" stroke-linecap="round" stroke-linejoin="round"/>
    <path d="M 17.381359100341797 158.7728729248047 C 34.596160888671875 155.06289672851562 62.69374465942383 184.44256591796875 29.869171142578125 209.89723205566406 C 20.319101333618164 137.2037353515625 20.193376541137695 115.76478576660156 -9.841108322143555 123.06953430175781 C 2.793419122695923 115.88546752929688 -4.510133266448975 131.88336181640625 58.13722229003906 150.79847717285156 C 48.3093147277832 130.66232299804688 26.502635955810547 129.52130126953125 17.381359100341797 158.7728729248047" stroke-width="0.0" fill="rgb(206, 71, 214)" opacity="0.0" stroke="rgb(0, 0, 0)" stroke-opacity="1.0" stroke-linecap="round" stroke-linejoin="round"/>
    <path d="M 543.378173828125 245.6721954345703 C 534.6345825195312 253.0369873046875 532.602783203125 253.14727783203125 514.8178100585938 230.94627380371094 C 500.4909973144531 281.9829406738281 469.46832275390625 274.3836364746094 475.778564453125 227.87290954589844 C 474.3216552734375 217.72634887695312 485.1299743652344 205.9743194580078 517.2672729492188 215.1645965576172 C 514.2088623046875 221.11004638671875 519.6152954101562 226.53501892089844 543.378173828125 245.6721954345703" stroke-width="0.0" fill="rgb(63, 57, 73)" opacity="0.15916985" stroke="rgb(0, 0, 0)" stroke-opacity="1.0" stroke-linecap="round" stroke-linejoin="round"/>
    <path d="M 287.25775146484375 33.90064239501953 C 292.9906005859375 68.76606750488281 301.3287658691406 49.41664123535156 304.9610290527344 33.666725158691406 C 317.3139343261719 44.89126205444336 312.3642272949219 35.865089416503906 289.9483947753906 47.225337982177734 C 313.58038330078125 54.41805648803711 292.4159240722656 20.75341033935547 288.9291076660156 50.979835510253906 C 332.7288818359375 58.7807502746582 320.30157470703125 36.46465301513672 287.25775146484375 33.90064239501953" stroke-width="0.0" fill="rgb(119, 65, 241)" opacity="0.0" stroke="rgb(0, 0, 0)" stroke-opacity="1.0" stroke-linecap="round" stroke-linejoin="round"/>
    <path d="M 417.3543701171875 272.6998596191406 C 412.1776123046875 277.56146240234375 426.7228088378906 279.78118896484375 434.1180725097656 291.42022705078125 C 418.4798278808594 289.036865234375 431.26141357421875 269.0022888183594 400.1439208984375 251.32644653320312 C 362.99444580078125 249.6005859375 383.0799865722656 274.58380126953125 428.3999328613281 266.8600158691406 C 428.52337646484375 266.19390869140625 432.65814208984375 265.34320068359375 417.3543701171875 272.6998596191406" stroke-width="0.0" fill="rgb(121, 29, 1)" opacity="0.0" stroke="rgb(0, 0, 0)" stroke-opacity="1.0" stroke-linecap="round" stroke-linejoin="round"/>
    <path d="M 591.8071899414062 165.34329223632812 C 585.8339233398438 205.20693969726562 590.3157958984375 201.73281860351562 483.1640319824219 205.37646484375 C 448.25244140625 183.9942169189453 453.4689636230469 165.40328979492188 471.2936706542969 131.23287963867188 C 502.8545227050781 121.9195785522461 479.61590576171875 99.73948669433594 502.77276611328125 64.44789123535156 C 577.3934936523438 59.80254364013672 592.4735717773438 67.6624984741211 591.8071899414062 165.34329223632812" stroke-width="0.0" fill="rgb(147, 60, 163)" opacity="0.71180207" stroke="rgb(0, 0, 0)" stroke-opacity="1.0" stroke-linecap="round" stroke-linejoin="round"/>
    <path d="M 517.566650390625 327.1590881347656 C 503.68756103515625 328.06634521484375 502.203369140625 316.2399597167969 467.8800048828125 270.61590576171875 C 439.4624328613281 220.62237548828125 445.4717712402344 226.28546142578125 469.06072998046875 169.25677490234375 C 463.6293029785156 133.69970703125 494.3502502441406 160.62533569335938 526.0193481445312 154.0231475830078 C 523.5219116210938 142.30255126953125 534.6563110351562 149.04966735839844 517.566650390625 327.1590881347656" stroke-width="0.0" fill="rgb(219, 91, 171)" opacity="0.93001765" stroke="rgb(0, 0, 0)" stroke-opacity="1.0" stroke-linecap="round" stroke-linejoin="round"/>
    <path d="M 61.17331314086914 368.9775695800781 C 72.3836441040039 382.329833984375 75.86428833007812 370.100341796875 78.0440444946289 357.79913330078125 C 52.82897186279297 361.1591796875 50.00495529174805 350.9911804199219 33.938785552978516 338.6015625 C 28.870582580566406 343.471435546875 32.39421081542969 356.1227722167969 38.019386291503906 378.2597351074219 C 44.48361587524414 361.6663513183594 54.253936767578125 360.90252685546875 61.17331314086914 368.9775695800781" stroke-width="0.0" fill="rgb(154, 103, 167)" opacity="0.36714244" stroke="rgb(0, 0, 0)" stroke-opacity="1.0" stroke-linecap="round" stroke-linejoin="round"/>
    <path d="M 329.873779296875 262.5776672363281 C 311.19775390625 263.3327331542969 298.8047790527344 260.81719970703125 304.8907165527344 267.7577819824219 C 304.8929443359375 268.4398193359375 308.71575927734375 253.6769561767578 328.1341857910156 250.67523193359375 C 315.65911865234375 215.11509704589844 292.75579833984375 200.3050994873047 306.16595458984375 222.07620239257812 C 335.54193115234375 212.9704132080078 341.3382873535156 223.78892517089844 329.873779296875 262.5776672363281" stroke-width="0.0" fill="rgb(169, 155, 72)" opacity="0.0" stroke="rgb(0, 0, 0)" stroke-opacity="1.0" stroke-linecap="round" stroke-linejoin="round"/>
    <path d="M 526.14404296875 156.27259826660156 C 522.3150634765625 156.13504028320312 505.0303039550781 167.31326293945312 478.59136962890625 223.00750732421875 C 436.4375 239.26327514648438 393.9983215332031 192.1111297607422 416.04437255859375 139.6259307861328 C 450.5213623046875 121.40023040771484 469.9637756347656 109.5138931274414 523.6793823242188 94.8070068359375 C 520.6036376953125 98.17643737792969 531.5499267578125 106.94416046142578 526.14404296875 156.27259826660156" stroke-width="0.0" fill="rgb(150, 74, 186)" opacity="0.9567809" stroke="rgb(0, 0, 0)" stroke-opacity="1.0" stroke-linecap="round" stroke-linejoin="round"/>
    <path d="M 459.71728515625 452.9898376464844 C 471.5197448730469 475.03173828125 472.2802429199219 493.00762939453125 456.1417541503906 476.8876037597656 C 464.8838806152344 455.0589599609375 446.6064147949219 455.13873291015625 464.0224304199219 444.1221008300781 C 455.6487731933594 436.4278869628906 455.2391052246094 439.7110900878906 456.689697265625 428.5975341796875 C 457.0889892578125 444.8238830566406 464.78302001953125 459.2454528808594 459.71728515625 452.9898376464844" stroke-width="0.0" fill="rgb(12, 27, 78)" opacity="0.0" stroke="rgb(0, 0, 0)" stroke-opacity="1.0" stroke-linecap="round" stroke-linejoin="round"/>
    <path d="M 523.2944946289062 366.8008728027344 C 512.5835571289062 387.279052734375 522.0023193359375 395.04766845703125 491.4237976074219 384.8775634765625 C 487.2751159667969 399.8165283203125 487.1641540527344 408.61083984375 421.59161376953125 395.6810607910156 C 439.4311218261719 349.94244384765625 439.43719482421875 358.204345703125 472.1980285644531 357.8226623535156 C 520.4771728515625 353.00762939453125 529.2455444335938 363.89801025390625 523.2944946289062 366.8008728027344" stroke-width="0.0" fill="rgb(0, 55, 75)" opacity="0.124901496" stroke="rgb(0, 0, 0)" stroke-opacity="1.0" stroke-linecap="round" stroke-linejoin="round"/>
    <path d="M 167.7952880859375 417.45697021484375 C 169.1482391357422 418.92138671875 170.27377319335938 428.06939697265625 164.51034545898438 435.8037414550781 C 136.7433624267578 438.2345886230469 121.08131408691406 434.4432678222656 137.67578125 430.479248046875 C 154.75926208496094 419.1709289550781 159.9406280517578 395.02197265625 136.25750732421875 408.51763916015625 C 145.90408325195312 426.3394470214844 166.2555694580078 418.36773681640625 167.7952880859375 417.45697021484375" stroke-width="0.0" fill="rgb(178, 106, 249)" opacity="0.053410377" stroke="rgb(0, 0, 0)" stroke-opacity="1.0" stroke-linecap="round" stroke-linejoin="round"/>
    <path d="M 78.05072021484375 154.7492218017578 C 67.41717529296875 145.7787322998047 76.167236328125 183.3247833251953 81.96894073486328 211.3058319091797 C 81.54878997802734 186.87930297851562 78.05610656738281 169.12130737304688 67.97959899902344 153.01377868652344 C 67.03821563720703 152.55101013183594 72.99354553222656 146.10256958007812 68.61039733886719 149.85244750976562 C 79.65991973876953 153.12643432617188 96.51891326904297 161.49342346191406 78.05072021484375 154.7492218017578" stroke-width="0.0" fill="rgb(147, 57, 241)" opacity="0.0" stroke="rgb(0, 0, 0)" stroke-opacity="1.0" stroke-linecap="round" stroke-linejoin="round"/>
    <path d="M 171.66143798828125 121.07029724121094 C 171.49038696289062 114.4150161743164 176.94602966308594 127.82720947265625 185.37583923339844 141.16738891601562 C 174.7908935546875 142.90155029296875 174.9519500732422 129.68157958984375 175.69541931152344 138.9443359375 C 171.7148895263672 129.49305725097656 162.30223083496094 89.79955291748047 184.93421936035156 79.73538970947266 C 192.8638916015625 90.29217529296875 178.7791748046875 115.84294891357422 171.66143798828125 121.07029724121094" stroke-width="0.0" fill="rgb(98, 151, 112)" opacity="0.46087933" stroke="rgb(0, 0, 0)" stroke-opacity="1.0" stroke-linecap="round" stroke-linejoin="round"/>
    <path d="M 154.45968627929688 409.7516174316406 C 166.41604614257812 404.0628356933594 160.4853515625 403.0255432128906 164.60617065429688 411.35357666015625 C 163.5935821533203 407.5181884765625 167.12913513183594 388.3072509765625 165.74606323242188 401.99884033203125 C 149.0725860595703 387.97412109375 167.6350555419922 402.71240234375 172.14706420898438 387.5970764160156 C 155.08692932128906 389.0975341796875 157.99917602539062 402.498779296875 154.45968627929688 409.7516174316406" stroke-width="0.0" fill="rgb(161, 190, 49)" opacity="0.0" stroke="rgb(0, 0, 0)" stroke-opacity="1.0" stroke-linecap="round" stroke-linejoin="round"/>
    <path d="M 447.6802673339844 99.01038360595703 C 451.8806457519531 121.32850646972656 443.287109375 128.41558837890625 428.7292785644531 135.45896911621094 C 417.6448059082031 162.0426483154297 412.70184326171875 173.8817596435547 426.361083984375 150.960205078125 C 438.99359130859375 132.85617065429688 450.3210754394531 121.95702362060547 458.0415344238281 109.85838317871094 C 447.0562438964844 108.38716125488281 454.8121643066406 116.94702911376953 447.6802673339844 99.01038360595703" stroke-width="0.0" fill="rgb(131, 92, 167)" opacity="0.16683105" stroke="rgb(0, 0, 0)" stroke-opacity="1.0" stroke-linecap="round" stroke-linejoin="round"/>
    <path d="M 279.75054931640625 344.7042236328125 C 259.8593444824219 386.5827331542969 246.70472717285156 339.0752868652344 269.8658752441406 323.5648498535156 C 254.27670288085938 323.4795227050781 250.75144958496094 311.5108642578125 228.78500366210938 304.8309631347656 C 201.97006225585938 308.4474182128906 219.62026977539062 315.30120849609375 250.98556518554688 308.9344482421875 C 270.244873046875 279.19403076171875 293.98297119140625 275.72760009765625 279.75054931640625 344.7042236328125" stroke-width="0.0" fill="rgb(255, 149, 166)" opacity="0.0" stroke="rgb(0, 0, 0)" stroke-opacity="1.0" stroke-linecap="round" stroke-linejoin="round"/>
    <path d="M 123.33480072021484 415.4143981933594 C 142.6752166748047 471.2493591308594 140.5463409423828 472.0718994140625 154.55799865722656 479.87200927734375 C 138.7102813720703 486.74017333984375 128.6682891845703 482.490234375 113.1935043334961 443.9867248535156 C 149.9430694580078 482.6801452636719 137.06375122070312 479.7952575683594 135.08253479003906 488.8007507324219 C 141.7878875732422 459.5924987792969 164.78598022460938 430.237548828125 123.33480072021484 415.4143981933594" stroke-width="0.0" fill="rgb(170, 57, 240)" opacity="0.011045784" stroke="rgb(0, 0, 0)" stroke-opacity="1.0" stroke-linecap="round" stroke-linejoin="round"/>
    <path d="M 467.1627502441406 378.5051574707031 C 466.79266357421875 389.51678466796875 468.82855224609375 405.05859375 464.4689636230469 408.5824279785156 C 400.2359619140625 423.7793273925781 395.06500244140625 430.64166259765625 407.020751953125 389.7917175292969 C 431.21173095703125 350.4060974121094 449.5158386230469 381.1915283203125 453.8696594238281 353.5775146484375 C 484.19586181640625 354.5321044921875 462.8019714355469 359.6831359863281 467.1627502441406 378.5051574707031" stroke-width="0.0" fill="rgb(0, 53, 66)" opacity="0.14420895" stroke="rgb(0, 0, 0)" stroke-opacity="1.0" stroke-linecap="round" stroke-linejoin="round"/>
    <path d="M 296.805419921875 102.14739990234375 C 280.8698425292969 103.02938079833984 279.431884765625 108.4942626953125 272.0816650390625 150.44178771972656 C 268.8879699707031 156.98074340820312 242.02294921875 122.50802612304688 253.3467254638672 81.89710235595703 C 279.0789489746094 113.2041015625 296.4879455566406 112.58799743652344 290.029052734375 102.49011993408203 C 311.06158447265625 98.10330963134766 295.8447570800781 98.77413940429688 296.805419921875 102.14739990234375" stroke-width="0.0" fill="rgb(190, 163, 97)" opacity="0.11501259" stroke="rgb(0, 0, 0)" stroke-opacity="1.0" stroke-linecap="round" stroke-linejoin="round"/>
    <path d="M 398.2113342285156 66.27741241455078 C 339.7941589355469 51.74338912963867 335.44439697265625 57.812652587890625 305.32098388671875 42.05534744262695 C 340.2124328613281 52.40647888183594 360.593505859375 41.575992584228516 358.49786376953125 38.48522186279297 C 386.1671447753906 37.588539123535156 400.60009765625 25.67688751220703 382.20556640625 -11.78443717956543 C 412.204833984375 -1.2550528049468994 415.2655944824219 22.650890350341797 398.2113342285156 66.27741241455078" stroke-width="0.0" fill="rgb(141, 0, 212)" opacity="0.055728786" stroke="rgb(0, 0, 0)" stroke-opacity="1.0" stroke-linecap="round" stroke-linejoin="round"/>
  </g>
</svg>
