<?xml version="1.0" ?>
<svg xmlns="http://www.w3.org/2000/svg" version="1.1" width="512" height="512">
  <defs/>
  <g>
    <path d="M 522.0665283203125 457.5571594238281 C 559.3076782226562 507.2928161621094 563.1776733398438 511.9206237792969 393.51873779296875 532.7349243164062 C 354.2908935546875 531.441162109375 340.29852294921875 515.4501342773438 282.72381591796875 418.71197509765625 C 278.18841552734375 308.8242492675781 371.0287170410156 333.5558166503906 485.27252197265625 327.8182678222656 C 565.38134765625 338.3533935546875 583.666259765625 339.53240966796875 522.0665283203125 457.5571594238281" stroke-width="0.0" fill="rgb(0, 99, 200)" opacity="1.0" stroke="rgb(0, 0, 0)" stroke-opacity="1.0" stroke-linecap="round" stroke-linejoin="round"/>
    <path d="M 328.2648620605469 450.951904296875 C 362.7408142089844 523.3701171875 378.84466552734375 529.9688720703125 248.6641845703125 520.7789306640625 C -57.11180877685547 523.4179077148438 -57.08616256713867 516.236083984375 -71.34492492675781 469.17236328125 C -42.934322357177734 199.84141540527344 -23.35736083984375 193.01077270507812 30.483091354370117 187.05047607421875 C 141.87123107910156 309.2580261230469 163.89630126953125 316.166259765625 328.2648620605469 450.951904296875" stroke-width="0.0" fill="rgb(0, 99, 224)" opacity="0.94360733" stroke="rgb(0, 0, 0)" stroke-opacity="1.0" stroke-linecap="round" stroke-linejoin="round"/>
    <path d="M 324.6565856933594 329.7033386230469 C 290.4199523925781 409.7418212890625 282.6277160644531 408.0355529785156 196.37091064453125 432.8916320800781 C 38.00012969970703 377.8507995605469 60.663818359375 334.4581604003906 27.79355812072754 185.61354064941406 C 32.87498092651367 184.25808715820312 57.07540512084961 185.05548095703125 110.90545654296875 177.3857421875 C 286.4443359375 155.31869506835938 320.9817199707031 118.33403778076172 324.6565856933594 329.7033386230469" stroke-width="0.0" fill="rgb(0, 253, 15)" opacity="1.0" stroke="rgb(0, 0, 0)" stroke-opacity="1.0" stroke-linecap="round" stroke-linejoin="round"/>
    <path d="M 253.7800750732422 -2.0193464756011963 C 257.8839416503906 229.7897491455078 237.12332153320312 176.2399444580078 30.230905532836914 249.96511840820312 C -46.398075103759766 233.8230743408203 -30.99781036376953 201.9759063720703 -8.228191375732422 130.4387969970703 C -25.232877731323242 -10.485036849975586 -2.3323957920074463 -31.92249870300293 31.883699417114258 -26.196502685546875 C 202.07861328125 -30.354394912719727 225.59715270996094 -40.75900650024414 253.7800750732422 -2.0193464756011963" stroke-width="0.0" fill="rgb(11, 114, 213)" opacity="0.9394772" stroke="rgb(0, 0, 0)" stroke-opacity="1.0" stroke-linecap="round" stroke-linejoin="round"/>
    <path d="M 553.9818725585938 47.44618606567383 C 435.11944580078125 274.9078063964844 427.9449462890625 283.2186584472656 368.37646484375 310.9742736816406 C 279.950927734375 323.9520568847656 296.5283203125 303.88812255859375 223.1572723388672 176.48736572265625 C 258.79486083984375 3.455030679702759 194.43092346191406 -28.803903579711914 347.9637145996094 -28.81729507446289 C 563.2000122070312 -5.52442741394043 563.2000122070312 4.830130577087402 553.9818725585938 47.44618606567383" stroke-width="0.0" fill="rgb(0, 99, 228)" opacity="0.9988281" stroke="rgb(0, 0, 0)" stroke-opacity="1.0" stroke-linecap="round" stroke-linejoin="round"/>
    <path d="M 326.34295654296875 48.90924835205078 C 280.1144714355469 280.0455017089844 244.1351318359375 274.3006286621094 194.28753662109375 246.43524169921875 C 95.77075958251953 284.48834228515625 79.58887481689453 295.4722900390625 64.65990447998047 216.21737670898438 C 87.69835662841797 132.99449157714844 112.23845672607422 124.284423828125 321.51556396484375 38.905765533447266 C 326.0650939941406 -41.045616149902344 318.583740234375 -36.15190887451172 326.34295654296875 48.90924835205078" stroke-width="0.0" fill="rgb(52, 239, 0)" opacity="1.0" stroke="rgb(0, 0, 0)" stroke-opacity="1.0" stroke-linecap="round" stroke-linejoin="round"/>
    <path d="M 493.24017333984375 329.8003234863281 C 467.3608093261719 375.313232421875 449.2084045410156 460.42333984375 321.21624755859375 448.9798278808594 C 287.3060302734375 422.1084289550781 250.71633911132812 430.2745056152344 267.37664794921875 400.136474609375 C 257.69744873046875 159.186279296875 246.11715698242188 168.59561157226562 321.8487854003906 219.24432373046875 C 419.9786071777344 280.3172912597656 476.2791748046875 246.60243225097656 493.24017333984375 329.8003234863281" stroke-width="0.0" fill="rgb(61, 255, 0)" opacity="1.0" stroke="rgb(0, 0, 0)" stroke-opacity="1.0" stroke-linecap="round" stroke-linejoin="round"/>
    <path d="M 541.5442504882812 163.4875946044922 C 552.923583984375 325.1847229003906 558.0197143554688 348.169921875 523.3935546875 335.4003601074219 C 380.6791076660156 330.7260437011719 329.8960266113281 347.0330505371094 352.00860595703125 334.51763916015625 C 386.6985168457031 212.8895263671875 412.40985107421875 138.58253479003906 531.4481811523438 76.70193481445312 C 563.2000122070312 76.2098159790039 563.2000122070312 99.41815185546875 541.5442504882812 163.4875946044922" stroke-width="0.0" fill="rgb(2, 114, 204)" opacity="1.0" stroke="rgb(0, 0, 0)" stroke-opacity="1.0" stroke-linecap="round" stroke-linejoin="round"/>
    <path d="M 402.1436462402344 260.1590881347656 C 428.1136779785156 260.0703125 400.4471740722656 204.29397583007812 374.1526794433594 227.8817901611328 C 357.1255187988281 231.57447814941406 313.2135925292969 188.09222412109375 173.11044311523438 229.57305908203125 C 247.627197265625 131.86453247070312 281.0977783203125 163.6021728515625 298.7342224121094 178.42849731445312 C 306.7893981933594 196.14158630371094 363.7838134765625 214.07899475097656 402.1436462402344 260.1590881347656" stroke-width="0.0" fill="rgb(130, 140, 92)" opacity="0.0061192107" stroke="rgb(0, 0, 0)" stroke-opacity="1.0" stroke-linecap="round" stroke-linejoin="round"/>
    <path d="M 431.79327392578125 251.6904296875 C 443.67279052734375 300.4300842285156 429.4032897949219 408.5813903808594 352.84478759765625 399.6246337890625 C 329.58319091796875 337.36395263671875 399.998046875 256.7720947265625 318.3371276855469 184.6164093017578 C 344.33758544921875 219.8133544921875 353.3040771484375 276.8380432128906 395.2666931152344 214.5067138671875 C 423.6215515136719 116.44287109375 427.1813659667969 254.3815460205078 431.79327392578125 251.6904296875" stroke-width="0.0" fill="rgb(29, 68, 247)" opacity="0.70509094" stroke="rgb(0, 0, 0)" stroke-opacity="1.0" stroke-linecap="round" stroke-linejoin="round"/>
    <path d="M 338.4013671875 105.42294311523438 C 316.1846618652344 91.33946228027344 290.8428039550781 123.5477066040039 268.36297607421875 195.84228515625 C 256.0401611328125 168.09146118164062 230.58547973632812 96.42253112792969 93.3243408203125 132.03179931640625 C 103.79219055175781 -15.583297729492188 129.19236755371094 -23.67877197265625 249.9948272705078 -57.71489334106445 C 352.7121276855469 -30.384124755859375 360.1495056152344 2.451110363006592 338.4013671875 105.42294311523438" stroke-width="0.0" fill="rgb(9, 106, 248)" opacity="0.9998116" stroke="rgb(0, 0, 0)" stroke-opacity="1.0" stroke-linecap="round" stroke-linejoin="round"/>
    <path d="M 261.2411804199219 416.79180908203125 C 239.1668701171875 402.8718566894531 211.99298095703125 407.32049560546875 179.64910888671875 398.0677185058594 C 154.5975799560547 378.0509338378906 141.04269409179688 398.33135986328125 204.53968811035156 409.91351318359375 C 153.64382934570312 362.19976806640625 167.87889099121094 271.559814453125 140.08677673339844 315.05615234375 C 236.42872619628906 350.7532958984375 168.6233673095703 383.2872314453125 261.2411804199219 416.79180908203125" stroke-width="0.0" fill="rgb(229, 106, 208)" opacity="0.8820639" stroke="rgb(0, 0, 0)" stroke-opacity="1.0" stroke-linecap="round" stroke-linejoin="round"/>
    <path d="M 444.2174377441406 405.20574951171875 C 453.5316467285156 431.8744201660156 456.216796875 452.1274719238281 412.96673583984375 466.2839660644531 C 415.4853210449219 462.8150634765625 418.8119812011719 443.1278076171875 370.78106689453125 454.977294921875 C 397.12451171875 446.54510498046875 433.51617431640625 415.6028747558594 443.2640686035156 422.3168029785156 C 446.0464782714844 408.7659606933594 473.5291442871094 407.46209716796875 444.2174377441406 405.20574951171875" stroke-width="0.0" fill="rgb(0, 94, 216)" opacity="0.27000356" stroke="rgb(0, 0, 0)" stroke-opacity="1.0" stroke-linecap="round" stroke-linejoin="round"/>
    <path d="M 372.0511474609375 438.1012878417969 C 335.2078552246094 448.4674072265625 341.0964050292969 430.9836120605469 319.16485595703125 451.9176940917969 C 268.4685974121094 439.0635070800781 254.8482208251953 421.0537414550781 225.55416870117188 390.96990966796875 C 246.9602813720703 388.3105773925781 258.2366638183594 410.3229064941406 276.1446228027344 415.1504211425781 C 325.6573791503906 453.4329528808594 364.6354064941406 440.67889404296875 372.0511474609375 438.1012878417969" stroke-width="0.0" fill="rgb(0, 171, 44)" opacity="0.9351921" stroke="rgb(0, 0, 0)" stroke-opacity="1.0" stroke-linecap="round" stroke-linejoin="round"/>
    <path d="M 352.42779541015625 238.647705078125 C 238.3067626953125 221.11415100097656 218.83863830566406 286.0232238769531 250.84849548339844 322.7645263671875 C 163.99722290039062 331.9675598144531 156.11044311523438 279.0487365722656 150.6438751220703 269.28106689453125 C 145.94747924804688 228.6676483154297 156.9368438720703 180.9257354736328 244.20196533203125 120.42313385009766 C 307.1138000488281 116.65744018554688 348.92486572265625 191.41514587402344 352.42779541015625 238.647705078125" stroke-width="0.0" fill="rgb(110, 255, 64)" opacity="0.98612875" stroke="rgb(0, 0, 0)" stroke-opacity="1.0" stroke-linecap="round" stroke-linejoin="round"/>
    <path d="M 441.22357177734375 458.0985412597656 C 430.2056884765625 491.32598876953125 414.4674987792969 495.03277587890625 367.98797607421875 473.4443359375 C 364.30279541015625 466.4054260253906 322.67138671875 474.469482421875 300.249755859375 452.5285949707031 C 328.06781005859375 444.3935241699219 349.6353454589844 457.8262939453125 401.1037902832031 443.716796875 C 454.97607421875 413.9427490234375 441.5237731933594 426.3372802734375 441.22357177734375 458.0985412597656" stroke-width="0.0" fill="rgb(7, 82, 222)" opacity="0.64434445" stroke="rgb(0, 0, 0)" stroke-opacity="1.0" stroke-linecap="round" stroke-linejoin="round"/>
    <path d="M 325.75543212890625 243.37620544433594 C 196.74331665039062 225.3140411376953 144.28146362304688 331.1033630371094 232.1781463623047 339.0445556640625 C 236.60269165039062 328.04364013671875 240.30397033691406 327.9453430175781 248.720703125 364.8671569824219 C 283.3775329589844 408.9141845703125 307.2507629394531 396.33685302734375 284.0203857421875 376.8304443359375 C 277.3577575683594 410.0727844238281 328.8177185058594 385.0175476074219 325.75543212890625 243.37620544433594" stroke-width="0.0" fill="rgb(255, 34, 112)" opacity="1.0" stroke="rgb(0, 0, 0)" stroke-opacity="1.0" stroke-linecap="round" stroke-linejoin="round"/>
    <path d="M 251.60177612304688 119.7926025390625 C 26.415830612182617 103.64029693603516 13.795205116271973 434.48638916015625 167.6765594482422 421.6553955078125 C 70.76252746582031 263.615478515625 249.48548889160156 94.34258270263672 114.45091247558594 200.08169555664062 C 34.160160064697266 329.7784118652344 37.062862396240234 228.9398956298828 91.7017593383789 138.26844787597656 C 83.59028625488281 327.6166076660156 117.47943115234375 241.7903594970703 251.60177612304688 119.7926025390625" stroke-width="0.0" fill="rgb(67, 255, 0)" opacity="1.0" stroke="rgb(0, 0, 0)" stroke-opacity="1.0" stroke-linecap="round" stroke-linejoin="round"/>
    <path d="M 323.7527160644531 168.47238159179688 C 350.5723571777344 204.1671905517578 341.0598449707031 191.1044464111328 327.8558349609375 169.88055419921875 C 312.54656982421875 141.47860717773438 301.09576416015625 142.91864013671875 327.9349060058594 153.30233764648438 C 283.5832824707031 138.5352325439453 283.16949462890625 112.9301528930664 301.2075500488281 110.83491516113281 C 325.16009521484375 112.02799224853516 321.08819580078125 63.62910461425781 323.7527160644531 168.47238159179688" stroke-width="0.0" fill="rgb(26, 116, 255)" opacity="1.0" stroke="rgb(0, 0, 0)" stroke-opacity="1.0" stroke-linecap="round" stroke-linejoin="round"/>
    <path d="M 101.84215545654297 143.63772583007812 C 52.1451530456543 186.52854919433594 36.079742431640625 277.8761901855469 60.21574020385742 351.0585021972656 C 40.422760009765625 311.4443054199219 2.17602276802063 285.5121154785156 -20.434768676757812 239.09048461914062 C 40.28273010253906 224.09213256835938 25.69378089904785 178.69786071777344 126.2063217163086 107.0820541381836 C 211.17236328125 130.31349182128906 147.70742797851562 107.81527709960938 101.84215545654297 143.63772583007812" stroke-width="0.0" fill="rgb(12, 106, 243)" opacity="0.9715203" stroke="rgb(0, 0, 0)" stroke-opacity="1.0" stroke-linecap="round" stroke-linejoin="round"/>
    <path d="M 274.2722473144531 157.27732849121094 C 159.94346618652344 393.5531005859375 229.1601104736328 441.92333984375 132.17202758789062 341.6685791015625 C 100.93571472167969 253.29954528808594 139.56997680664062 173.1411895751953 166.79779052734375 218.3906707763672 C 122.07586669921875 285.04620361328125 148.5506591796875 264.0553894042969 123.1509017944336 230.5772705078125 C 135.78558349609375 188.3806915283203 154.0305938720703 122.2357177734375 274.2722473144531 157.27732849121094" stroke-width="0.0" fill="rgb(252, 47, 85)" opacity="0.93455064" stroke="rgb(0, 0, 0)" stroke-opacity="1.0" stroke-linecap="round" stroke-linejoin="round"/>
    <path d="M 354.155517578125 83.18806457519531 C 310.6441345214844 179.66421508789062 306.8429260253906 29.82942008972168 265.885498046875 157.00193786621094 C 243.04991149902344 188.30824279785156 270.10504150390625 152.0142059326172 281.554931640625 126.364013671875 C 291.1126403808594 92.84046936035156 305.2150573730469 120.30619812011719 297.20050048828125 130.03085327148438 C 289.3387451171875 97.12239837646484 361.7383728027344 97.78048706054688 354.155517578125 83.18806457519531" stroke-width="0.0" fill="rgb(53, 121, 180)" opacity="0.0" stroke="rgb(0, 0, 0)" stroke-opacity="1.0" stroke-linecap="round" stroke-linejoin="round"/>
    <path d="M 266.19378662109375 163.92745971679688 C 276.8782958984375 195.27342224121094 289.1197509765625 195.7572021484375 304.8612365722656 179.59625244140625 C 303.5106506347656 173.41847229003906 298.825439453125 169.1371307373047 267.73828125 155.13771057128906 C 258.4413757324219 138.78045654296875 266.4167175292969 145.96229553222656 257.4911193847656 154.21849060058594 C 283.91937255859375 153.5837860107422 261.3619384765625 175.56224060058594 266.19378662109375 163.92745971679688" stroke-width="0.0" fill="rgb(108, 227, 77)" opacity="0.22518377" stroke="rgb(0, 0, 0)" stroke-opacity="1.0" stroke-linecap="round" stroke-linejoin="round"/>
    <path d="M 226.41358947753906 391.602783203125 C 255.26153564453125 415.0736083984375 234.11021423339844 415.7194519042969 186.93618774414062 427.447509765625 C 138.8663787841797 437.533935546875 132.85597229003906 428.07464599609375 146.6774139404297 360.2808837890625 C 166.11158752441406 377.9856872558594 175.044189453125 391.3922119140625 161.94766235351562 375.5187072753906 C 174.35523986816406 380.8086853027344 190.2268524169922 400.60205078125 226.41358947753906 391.602783203125" stroke-width="0.0" fill="rgb(0, 255, 56)" opacity="1.0" stroke="rgb(0, 0, 0)" stroke-opacity="1.0" stroke-linecap="round" stroke-linejoin="round"/>
    <path d="M 429.1993408203125 382.4559631347656 C 375.352294921875 412.9845275878906 376.54803466796875 417.7898254394531 367.84979248046875 413.8203430175781 C 296.5 407.8830261230469 271.36322021484375 399.387939453125 294.85430908203125 358.56976318359375 C 276.7402648925781 367.90032958984375 281.506103515625 341.1739501953125 272.2705993652344 332.902099609375 C 397.946044921875 348.41497802734375 481.12188720703125 308.7810974121094 429.1993408203125 382.4559631347656" stroke-width="0.0" fill="rgb(254, 28, 87)" opacity="0.99737865" stroke="rgb(0, 0, 0)" stroke-opacity="1.0" stroke-linecap="round" stroke-linejoin="round"/>
    <path d="M 266.2839660644531 264.4194030761719 C 255.580322265625 277.64544677734375 267.9018249511719 305.35443115234375 240.2695770263672 310.0640869140625 C 219.26760864257812 297.3083801269531 243.038818359375 264.57623291015625 213.73240661621094 270.7663879394531 C 196.9791259765625 271.37066650390625 194.2178955078125 260.19256591796875 213.91036987304688 262.6125793457031 C 216.34219360351562 218.49623107910156 249.47874450683594 252.4325714111328 266.2839660644531 264.4194030761719" stroke-width="0.0" fill="rgb(190, 0, 73)" opacity="0.34519067" stroke="rgb(0, 0, 0)" stroke-opacity="1.0" stroke-linecap="round" stroke-linejoin="round"/>
    <path d="M 178.32118225097656 360.141357421875 C 171.38052368164062 369.09710693359375 188.48138427734375 359.7421875 173.41014099121094 381.0298767089844 C 150.32858276367188 368.0523986816406 141.1610107421875 354.474365234375 137.5528106689453 353.68499755859375 C 146.45399475097656 349.6269226074219 135.4036407470703 354.2948303222656 137.81011962890625 340.3699951171875 C 172.0526580810547 332.87030029296875 198.89071655273438 343.2838439941406 178.32118225097656 360.141357421875" stroke-width="0.0" fill="rgb(255, 50, 198)" opacity="0.52479506" stroke="rgb(0, 0, 0)" stroke-opacity="1.0" stroke-linecap="round" stroke-linejoin="round"/>
    <path d="M 303.931884765625 295.47576904296875 C 279.0123596191406 299.21405029296875 286.1317138671875 300.62432861328125 283.5489807128906 336.86065673828125 C 197.099365234375 341.330322265625 203.9812774658203 335.63055419921875 235.13031005859375 325.8938903808594 C 273.9088134765625 317.5329284667969 283.7288513183594 319.0910949707031 282.11224365234375 293.03826904296875 C 287.5086669921875 267.25689697265625 302.7225341796875 264.59930419921875 303.931884765625 295.47576904296875" stroke-width="0.0" fill="rgb(145, 26, 136)" opacity="0.5799888" stroke="rgb(0, 0, 0)" stroke-opacity="1.0" stroke-linecap="round" stroke-linejoin="round"/>
    <path d="M 338.9232482910156 101.71784973144531 C 333.7589416503906 99.81722259521484 326.9544372558594 118.21288299560547 332.7100524902344 97.5311050415039 C 319.2033386230469 101.87025451660156 317.0800476074219 113.5678482055664 333.47906494140625 113.04717254638672 C 318.77178955078125 99.66900634765625 331.60015869140625 97.87731170654297 325.0399169921875 111.41595458984375 C 333.287109375 112.4696273803711 334.48858642578125 116.2211685180664 338.9232482910156 101.71784973144531" stroke-width="0.0" fill="rgb(22, 143, 192)" opacity="0.22274916" stroke="rgb(0, 0, 0)" stroke-opacity="1.0" stroke-linecap="round" stroke-linejoin="round"/>
    <path d="M 290.1485290527344 206.03173828125 C 300.9125061035156 180.84664916992188 330.75579833984375 215.9890899658203 319.4653625488281 273.67083740234375 C 218.97775268554688 259.5419616699219 221.97845458984375 259.3932800292969 249.5159149169922 213.96047973632812 C 253.7149658203125 152.50515747070312 283.7434387207031 157.79220581054688 291.054931640625 177.79933166503906 C 305.9682312011719 186.32412719726562 298.578857421875 216.359375 290.1485290527344 206.03173828125" stroke-width="0.0" fill="rgb(255, 43, 110)" opacity="1.0" stroke="rgb(0, 0, 0)" stroke-opacity="1.0" stroke-linecap="round" stroke-linejoin="round"/>
    <path d="M 260.6918029785156 258.3853759765625 C 260.4753112792969 243.07601928710938 264.98138427734375 246.2888946533203 306.7356262207031 266.3250732421875 C 292.3155212402344 275.159423828125 257.762451171875 267.601318359375 228.881591796875 262.7244567871094 C 253.8516387939453 229.63418579101562 272.2497863769531 216.89581298828125 296.4331359863281 222.86680603027344 C 300.76556396484375 222.9506378173828 288.7834167480469 251.96823120117188 260.6918029785156 258.3853759765625" stroke-width="0.0" fill="rgb(204, 43, 82)" opacity="0.84911555" stroke="rgb(0, 0, 0)" stroke-opacity="1.0" stroke-linecap="round" stroke-linejoin="round"/>
    <path d="M 360.8813171386719 203.7104949951172 C 368.3021545410156 232.64529418945312 374.24822998046875 252.3116455078125 349.1449279785156 223.77110290527344 C 335.74267578125 236.40545654296875 327.8401794433594 225.30250549316406 321.8685302734375 186.8209991455078 C 332.5827941894531 186.81881713867188 340.16131591796875 180.58905029296875 383.84356689453125 173.10118103027344 C 381.4213562011719 165.52664184570312 363.83551025390625 157.8520050048828 360.8813171386719 203.7104949951172" stroke-width="0.0" fill="rgb(248, 138, 140)" opacity="0.0" stroke="rgb(0, 0, 0)" stroke-opacity="1.0" stroke-linecap="round" stroke-linejoin="round"/>
    <path d="M 59.879844665527344 470.7562255859375 C 53.74592590332031 470.0952453613281 55.00394058227539 461.9944763183594 57.19294357299805 468.1297302246094 C 53.603878021240234 473.6065673828125 45.449913024902344 471.8836364746094 41.95939254760742 461.7640686035156 C 30.768495559692383 428.7486572265625 49.10485076904297 416.7347717285156 57.1400146484375 415.9957580566406 C 49.950111389160156 446.94671630859375 59.33759689331055 460.0990295410156 59.879844665527344 470.7562255859375" stroke-width="0.0" fill="rgb(0, 147, 114)" opacity="0.5869235" stroke="rgb(0, 0, 0)" stroke-opacity="1.0" stroke-linecap="round" stroke-linejoin="round"/>
    <path d="M 178.6764678955078 353.7582702636719 C 212.6552276611328 373.13006591796875 209.53909301757812 354.6058349609375 200.5748291015625 349.7392272949219 C 216.9260711669922 350.22857666015625 210.45262145996094 357.11676025390625 213.05535888671875 334.58160400390625 C 197.15670776367188 291.3537902832031 166.13816833496094 313.69451904296875 195.36126708984375 323.51202392578125 C 211.50161743164062 317.6361999511719 187.04452514648438 322.2474365234375 178.6764678955078 353.7582702636719" stroke-width="0.0" fill="rgb(254, 100, 109)" opacity="0.28846994" stroke="rgb(0, 0, 0)" stroke-opacity="1.0" stroke-linecap="round" stroke-linejoin="round"/>
    <path d="M 40.92621612548828 301.14990234375 C 41.22861099243164 332.05670166015625 34.95888900756836 336.3856506347656 31.762542724609375 348.3896484375 C 30.601694107055664 343.2991638183594 28.548974990844727 347.34564208984375 21.961965560913086 315.53961181640625 C 22.13153839111328 299.6051330566406 21.780559539794922 288.5633850097656 41.88522720336914 285.8185729980469 C 40.11275863647461 290.89886474609375 37.17544174194336 275.2048645019531 40.92621612548828 301.14990234375" stroke-width="0.0" fill="rgb(12, 144, 117)" opacity="0.6093947" stroke="rgb(0, 0, 0)" stroke-opacity="1.0" stroke-linecap="round" stroke-linejoin="round"/>
    <path d="M 131.90054321289062 445.15545654296875 C 133.70664978027344 457.2878723144531 120.35774230957031 468.02362060546875 108.29399871826172 461.2096252441406 C 88.19330596923828 451.89208984375 84.55694580078125 454.86126708984375 93.278564453125 459.5585021972656 C 106.86005401611328 465.8053894042969 122.68058776855469 449.792236328125 133.86495971679688 440.36627197265625 C 130.39315795898438 431.51153564453125 131.1919708251953 435.2290954589844 131.90054321289062 445.15545654296875" stroke-width="0.0" fill="rgb(118, 180, 135)" opacity="0.5691465" stroke="rgb(0, 0, 0)" stroke-opacity="1.0" stroke-linecap="round" stroke-linejoin="round"/>
    <path d="M 490.09100341796875 73.41316986083984 C 490.0582275390625 66.11996459960938 489.3206481933594 80.12876892089844 477.3141784667969 82.3051528930664 C 462.8380126953125 87.70989990234375 467.0251770019531 84.84396362304688 473.1761779785156 97.29144287109375 C 473.6478271484375 67.62992858886719 479.6144104003906 60.143714904785156 484.2685852050781 62.94213104248047 C 482.4006042480469 68.62535095214844 490.9288024902344 59.511085510253906 490.09100341796875 73.41316986083984" stroke-width="0.0" fill="rgb(63, 19, 168)" opacity="0.0" stroke="rgb(0, 0, 0)" stroke-opacity="1.0" stroke-linecap="round" stroke-linejoin="round"/>
    <path d="M 69.94976806640625 194.73013305664062 C 68.71404266357422 171.1595458984375 60.110164642333984 200.54031372070312 62.89006042480469 200.76760864257812 C 39.346923828125 204.0829620361328 43.97772216796875 186.73779296875 61.87370300292969 209.76040649414062 C 50.18730545043945 220.13894653320312 41.69866943359375 195.06610107421875 28.60219955444336 198.0868682861328 C 25.409469604492188 167.84298706054688 42.71908950805664 191.4140625 69.94976806640625 194.73013305664062" stroke-width="0.0" fill="rgb(68, 63, 226)" opacity="0.022710972" stroke="rgb(0, 0, 0)" stroke-opacity="1.0" stroke-linecap="round" stroke-linejoin="round"/>
    <path d="M 298.5592956542969 304.6745910644531 C 252.39451599121094 319.4510192871094 253.2512969970703 318.4462890625 281.5935363769531 349.3565673828125 C 288.94354248046875 357.476806640625 274.8582458496094 350.8755798339844 252.45391845703125 316.0908508300781 C 251.0624237060547 290.7321472167969 280.1622619628906 305.5470275878906 308.7987976074219 291.9477844238281 C 318.73046875 289.39117431640625 325.61248779296875 315.4625549316406 298.5592956542969 304.6745910644531" stroke-width="0.0" fill="rgb(251, 56, 2)" opacity="0.14847218" stroke="rgb(0, 0, 0)" stroke-opacity="1.0" stroke-linecap="round" stroke-linejoin="round"/>
    <path d="M 418.5489501953125 416.2402038574219 C 361.2881164550781 426.14886474609375 336.77313232421875 413.5359191894531 327.6634521484375 420.5010681152344 C 383.70306396484375 444.68359375 355.5292053222656 462.2920227050781 350.4752502441406 457.9038391113281 C 386.6651916503906 448.0627746582031 377.7469787597656 416.2602844238281 385.1643371582031 450.053466796875 C 391.9344177246094 413.70947265625 406.52667236328125 402.781982421875 418.5489501953125 416.2402038574219" stroke-width="0.0" fill="rgb(67, 203, 14)" opacity="0.0" stroke="rgb(0, 0, 0)" stroke-opacity="1.0" stroke-linecap="round" stroke-linejoin="round"/>
    <path d="M 366.30023193359375 393.299072265625 C 342.5151062011719 419.3701171875 340.3821716308594 433.608642578125 342.7027282714844 443.8761901855469 C 347.3722839355469 429.221435546875 343.0781555175781 419.1152038574219 314.2092590332031 426.46893310546875 C 308.05511474609375 402.28289794921875 317.95184326171875 402.4705505371094 372.7079772949219 408.34881591796875 C 364.44354248046875 424.0631408691406 406.10186767578125 422.54705810546875 366.30023193359375 393.299072265625" stroke-width="0.0" fill="rgb(186, 132, 1)" opacity="0.07875498" stroke="rgb(0, 0, 0)" stroke-opacity="1.0" stroke-linecap="round" stroke-linejoin="round"/>
    <path d="M 410.7749328613281 68.1812515258789 C 407.3119201660156 72.1469497680664 393.8634948730469 81.26324462890625 403.8431701660156 92.2146987915039 C 400.93133544921875 74.50218200683594 398.265869140625 62.80594253540039 399.46917724609375 57.610992431640625 C 398.0520324707031 63.855899810791016 399.9798278808594 51.409423828125 407.7120666503906 41.78886795043945 C 422.4651794433594 42.07811737060547 417.9413757324219 55.50742721557617 410.7749328613281 68.1812515258789" stroke-width="0.0" fill="rgb(27, 139, 101)" opacity="0.63447285" stroke="rgb(0, 0, 0)" stroke-opacity="1.0" stroke-linecap="round" stroke-linejoin="round"/>
    <path d="M 27.61253547668457 76.15951538085938 C 39.68779373168945 101.39595031738281 39.0506477355957 102.2080307006836 18.052228927612305 117.93598937988281 C -23.052339553833008 101.88528442382812 -37.097373962402344 102.71410369873047 -18.164648056030273 81.83883666992188 C 18.45248794555664 77.29048919677734 37.392601013183594 77.50582122802734 44.6010627746582 76.38431549072266 C 27.67173957824707 101.9782943725586 42.50130081176758 81.45242309570312 27.61253547668457 76.15951538085938" stroke-width="0.0" fill="rgb(60, 65, 241)" opacity="0.0033399675" stroke="rgb(0, 0, 0)" stroke-opacity="1.0" stroke-linecap="round" stroke-linejoin="round"/>
    <path d="M 53.88897705078125 189.77272033691406 C 46.30970764160156 167.55606079101562 19.476255416870117 151.16748046875 17.06158447265625 131.20054626464844 C 25.246423721313477 134.15414428710938 18.655681610107422 152.10968017578125 -27.552587509155273 146.97886657714844 C -31.61015510559082 121.43229675292969 -20.194467544555664 126.82315826416016 -6.631540775299072 110.19042205810547 C 41.252933502197266 116.34672546386719 54.2359619140625 127.0947265625 53.88897705078125 189.77272033691406" stroke-width="0.0" fill="rgb(41, 94, 202)" opacity="0.025324633" stroke="rgb(0, 0, 0)" stroke-opacity="1.0" stroke-linecap="round" stroke-linejoin="round"/>
    <path d="M 532.88037109375 254.1540069580078 C 534.0883178710938 272.8538513183594 533.237060546875 282.4776916503906 515.3331909179688 263.18292236328125 C 488.5934753417969 261.364990234375 494.6295166015625 265.7210388183594 496.7872009277344 219.8282928466797 C 467.2529602050781 210.15594482421875 475.2169494628906 221.2432098388672 508.5956115722656 219.1394805908203 C 530.1280517578125 208.61883544921875 553.5453491210938 228.91018676757812 532.88037109375 254.1540069580078" stroke-width="0.0" fill="rgb(70, 49, 188)" opacity="0.0046809157" stroke="rgb(0, 0, 0)" stroke-opacity="1.0" stroke-linecap="round" stroke-linejoin="round"/>
    <path d="M 295.7568664550781 55.56013870239258 C 295.8667297363281 73.2378158569336 302.08843994140625 71.4931640625 304.37396240234375 45.178157806396484 C 306.4638671875 42.117820739746094 295.6806945800781 48.933990478515625 296.63623046875 37.093833923339844 C 300.82232666015625 53.96818923950195 294.3252258300781 52.90761184692383 305.1162109375 64.96807861328125 C 290.5369567871094 42.92612075805664 294.495361328125 37.87595748901367 295.7568664550781 55.56013870239258" stroke-width="0.0" fill="rgb(65, 99, 219)" opacity="0.006902023" stroke="rgb(0, 0, 0)" stroke-opacity="1.0" stroke-linecap="round" stroke-linejoin="round"/>
    <path d="M 452.4863586425781 245.8128662109375 C 469.3793640136719 296.2278137207031 459.0190734863281 312.12103271484375 459.78564453125 337.6584167480469 C 374.2965393066406 339.327392578125 347.8440246582031 314.47784423828125 364.1551208496094 255.79058837890625 C 339.5821228027344 210.24856567382812 351.8879699707031 170.93994140625 412.8347473144531 174.046875 C 433.158935546875 199.44241333007812 446.5363464355469 244.73780822753906 452.4863586425781 245.8128662109375" stroke-width="0.0" fill="rgb(0, 105, 251)" opacity="1.0" stroke="rgb(0, 0, 0)" stroke-opacity="1.0" stroke-linecap="round" stroke-linejoin="round"/>
    <path d="M 544.323974609375 125.04065704345703 C 552.88818359375 201.7418975830078 539.391845703125 223.33409118652344 464.9730224609375 224.41514587402344 C 462.9263000488281 164.8245849609375 467.25177001953125 160.76315307617188 476.05767822265625 129.79681396484375 C 476.20086669921875 115.04875183105469 505.5837707519531 96.56818389892578 495.3388366699219 104.67207336425781 C 489.13275146484375 73.05369567871094 518.199951171875 92.67829895019531 544.323974609375 125.04065704345703" stroke-width="0.0" fill="rgb(44, 95, 183)" opacity="0.049835" stroke="rgb(0, 0, 0)" stroke-opacity="1.0" stroke-linecap="round" stroke-linejoin="round"/>
    <path d="M 523.3795776367188 159.91091918945312 C 527.93408203125 175.65736389160156 522.6971435546875 181.92831420898438 528.6293334960938 170.13027954101562 C 484.2820129394531 166.1345977783203 476.4024658203125 172.2615966796875 486.1623840332031 144.48556518554688 C 472.06268310546875 154.59848022460938 479.563720703125 174.90164184570312 523.5819702148438 173.13494873046875 C 533.3161010742188 158.9218292236328 522.6649780273438 148.53292846679688 523.3795776367188 159.91091918945312" stroke-width="0.0" fill="rgb(72, 80, 161)" opacity="0.00013116351" stroke="rgb(0, 0, 0)" stroke-opacity="1.0" stroke-linecap="round" stroke-linejoin="round"/>
    <path d="M 72.80975341796875 362.9510192871094 C 89.31925964355469 379.3475341796875 87.53446197509766 378.39459228515625 74.08464813232422 363.90576171875 C 59.316619873046875 356.78460693359375 58.5692138671875 362.3870849609375 64.55952453613281 360.8996887207031 C 63.21607208251953 354.713134765625 69.63113403320312 352.84429931640625 68.44095611572266 355.97454833984375 C 71.61243438720703 356.86297607421875 56.73212432861328 365.3262634277344 72.80975341796875 362.9510192871094" stroke-width="0.0" fill="rgb(23, 129, 134)" opacity="0.56789285" stroke="rgb(0, 0, 0)" stroke-opacity="1.0" stroke-linecap="round" stroke-linejoin="round"/>
    <path d="M 350.00701904296875 277.54571533203125 C 311.4124450683594 273.114501953125 325.7780456542969 264.1353759765625 324.1563415527344 246.03953552246094 C 290.18975830078125 283.8224182128906 309.1389465332031 276.9071350097656 302.8164978027344 285.2948913574219 C 290.90167236328125 274.3659973144531 316.0547180175781 265.0389709472656 329.0884704589844 217.1156463623047 C 343.486328125 215.87399291992188 346.63037109375 254.63394165039062 350.00701904296875 277.54571533203125" stroke-width="0.0" fill="rgb(129, 253, 25)" opacity="0.18497056" stroke="rgb(0, 0, 0)" stroke-opacity="1.0" stroke-linecap="round" stroke-linejoin="round"/>
    <path d="M 495.42303466796875 141.87258911132812 C 476.4072265625 154.9581298828125 466.9138488769531 166.38482666015625 464.4600830078125 137.06150817871094 C 475.9134826660156 134.91702270507812 456.83294677734375 129.8072509765625 468.4498596191406 132.70437622070312 C 444.8503723144531 109.05897521972656 451.852294921875 93.22200775146484 495.52044677734375 92.80673217773438 C 497.70672607421875 123.0333480834961 495.43194580078125 150.96327209472656 495.42303466796875 141.87258911132812" stroke-width="0.0" fill="rgb(79, 63, 185)" opacity="0.0" stroke="rgb(0, 0, 0)" stroke-opacity="1.0" stroke-linecap="round" stroke-linejoin="round"/>
    <path d="M 450.27801513671875 459.2059020996094 C 458.5248718261719 446.0921936035156 452.1342468261719 445.7222595214844 441.91015625 455.7741394042969 C 445.7974548339844 432.7161560058594 440.74029541015625 415.0343017578125 447.556640625 433.47821044921875 C 461.1328125 428.5066833496094 450.87457275390625 434.4283142089844 474.0500183105469 452.5434265136719 C 484.8255310058594 431.0169372558594 456.76776123046875 424.3224792480469 450.27801513671875 459.2059020996094" stroke-width="0.0" fill="rgb(19, 69, 194)" opacity="0.022560876" stroke="rgb(0, 0, 0)" stroke-opacity="1.0" stroke-linecap="round" stroke-linejoin="round"/>
    <path d="M 514.3977661132812 406.0869445800781 C 544.2642822265625 376.13348388671875 521.8793334960938 392.9417419433594 501.0546569824219 395.68292236328125 C 475.2841796875 376.0614318847656 469.9612121582031 356.7996826171875 485.4144592285156 393.05950927734375 C 466.1399230957031 372.5403747558594 459.9718017578125 383.1507263183594 485.24761962890625 361.6911926269531 C 487.9590148925781 373.56268310546875 485.1275939941406 403.41552734375 514.3977661132812 406.0869445800781" stroke-width="0.0" fill="rgb(45, 66, 209)" opacity="0.023154436" stroke="rgb(0, 0, 0)" stroke-opacity="1.0" stroke-linecap="round" stroke-linejoin="round"/>
    <path d="M 167.3308563232422 412.6462707519531 C 167.4410858154297 428.62322998046875 160.66407775878906 450.16571044921875 153.7299346923828 440.9864501953125 C 120.08970642089844 434.9090576171875 116.53033447265625 446.0986022949219 138.95578002929688 449.5629577636719 C 138.22203063964844 441.4309997558594 138.08204650878906 419.7671813964844 158.80873107910156 435.980712890625 C 167.18826293945312 408.4883117675781 145.84164428710938 413.64141845703125 167.3308563232422 412.6462707519531" stroke-width="0.0" fill="rgb(75, 85, 249)" opacity="0.01603309" stroke="rgb(0, 0, 0)" stroke-opacity="1.0" stroke-linecap="round" stroke-linejoin="round"/>
    <path d="M 89.54335021972656 179.7523651123047 C 100.06865692138672 168.46038818359375 74.20867919921875 186.84527587890625 38.954097747802734 179.26504516601562 C 50.92942810058594 163.81283569335938 42.953365325927734 148.1024627685547 43.052486419677734 173.41897583007812 C 26.720170974731445 134.89674377441406 39.94866180419922 130.81040954589844 100.89556121826172 132.139404296875 C 82.34326934814453 115.59947204589844 92.25635528564453 166.51217651367188 89.54335021972656 179.7523651123047" stroke-width="0.0" fill="rgb(68, 83, 245)" opacity="0.0" stroke="rgb(0, 0, 0)" stroke-opacity="1.0" stroke-linecap="round" stroke-linejoin="round"/>
    <path d="M 204.67747497558594 134.7091827392578 C 202.02865600585938 154.66558837890625 179.9117431640625 157.3904571533203 176.2044677734375 155.27427673339844 C 190.3284454345703 130.25421142578125 177.8198699951172 108.63797760009766 152.46981811523438 105.91179656982422 C 162.60708618164062 111.80284881591797 157.03704833984375 91.70231628417969 166.63995361328125 83.36382293701172 C 222.0568084716797 84.43053436279297 209.35655212402344 95.54163360595703 204.67747497558594 134.7091827392578" stroke-width="0.0" fill="rgb(99, 255, 0)" opacity="1.0" stroke="rgb(0, 0, 0)" stroke-opacity="1.0" stroke-linecap="round" stroke-linejoin="round"/>
    <path d="M 173.2733917236328 401.1504821777344 C 150.59873962402344 389.3631896972656 170.0836639404297 392.14044189453125 181.4146270751953 407.7578125 C 166.66273498535156 388.5785827636719 140.93402099609375 399.5666198730469 169.74008178710938 420.7624206542969 C 144.1674346923828 414.83782958984375 148.58670043945312 415.1513366699219 160.1029815673828 412.6264343261719 C 132.6005859375 391.75543212890625 157.6768035888672 401.86846923828125 173.2733917236328 401.1504821777344" stroke-width="0.0" fill="rgb(67, 168, 26)" opacity="0.0004460953" stroke="rgb(0, 0, 0)" stroke-opacity="1.0" stroke-linecap="round" stroke-linejoin="round"/>
    <path d="M 451.80963134765625 101.08795928955078 C 447.3370056152344 108.95530700683594 443.4322814941406 119.47032165527344 425.5663757324219 117.09916687011719 C 421.7761535644531 118.2939453125 424.6751708984375 124.88131713867188 424.0093994140625 111.25475311279297 C 427.32464599609375 106.21946716308594 437.8397216796875 108.92195129394531 440.7548828125 105.27383422851562 C 457.4372253417969 98.17818450927734 450.10321044921875 107.92822265625 451.80963134765625 101.08795928955078" stroke-width="0.0" fill="rgb(20, 156, 121)" opacity="0.61255664" stroke="rgb(0, 0, 0)" stroke-opacity="1.0" stroke-linecap="round" stroke-linejoin="round"/>
    <path d="M 244.09710693359375 299.5871276855469 C 236.0205841064453 334.4922180175781 236.85977172851562 331.32989501953125 237.97271728515625 346.2452087402344 C 254.53993225097656 341.63092041015625 240.94886779785156 323.7849426269531 229.79388427734375 306.20477294921875 C 222.8511962890625 250.22520446777344 270.11700439453125 247.03077697753906 239.182373046875 286.3906555175781 C 219.24734497070312 354.55218505859375 257.4263000488281 327.2135009765625 244.09710693359375 299.5871276855469" stroke-width="0.0" fill="rgb(198, 72, 74)" opacity="0.0054524257" stroke="rgb(0, 0, 0)" stroke-opacity="1.0" stroke-linecap="round" stroke-linejoin="round"/>
    <path d="M 223.02896118164062 500.5951843261719 C 150.75100708007812 505.3882141113281 124.40896606445312 507.3280029296875 139.72874450683594 510.2349853515625 C 121.81523895263672 473.82891845703125 125.8292236328125 466.6513977050781 141.96954345703125 473.47265625 C 134.8937530517578 486.23260498046875 119.07292938232422 463.0906066894531 146.33885192871094 465.25909423828125 C 150.4365997314453 421.0281677246094 172.3508758544922 442.2145080566406 223.02896118164062 500.5951843261719" stroke-width="0.0" fill="rgb(61, 66, 254)" opacity="0.023737377" stroke="rgb(0, 0, 0)" stroke-opacity="1.0" stroke-linecap="round" stroke-linejoin="round"/>
    <path d="M 492.92462158203125 381.4670715332031 C 483.3735656738281 331.0240173339844 465.6189880371094 358.76129150390625 467.6385803222656 422.3543395996094 C 457.68280029296875 414.6719665527344 456.7216796875 422.4962158203125 451.353515625 396.9524230957031 C 449.3204040527344 366.8363952636719 443.9218444824219 381.166748046875 446.13018798828125 382.30029296875 C 447.72064208984375 361.6636657714844 447.0013122558594 367.5653076171875 492.92462158203125 381.4670715332031" stroke-width="0.0" fill="rgb(55, 71, 81)" opacity="0.0" stroke="rgb(0, 0, 0)" stroke-opacity="1.0" stroke-linecap="round" stroke-linejoin="round"/>
    <path d="M 298.2004699707031 97.12615966796875 C 298.596923828125 103.30738830566406 291.645263671875 95.2812271118164 279.6416931152344 98.99876403808594 C 272.29156494140625 111.82955932617188 267.63214111328125 121.02718353271484 279.4449768066406 120.9820785522461 C 299.948974609375 132.9528045654297 307.2244873046875 123.23128509521484 299.37158203125 101.54443359375 C 288.6910095214844 94.34178161621094 299.7478942871094 99.61837768554688 298.2004699707031 97.12615966796875" stroke-width="0.0" fill="rgb(118, 130, 42)" opacity="0.0" stroke="rgb(0, 0, 0)" stroke-opacity="1.0" stroke-linecap="round" stroke-linejoin="round"/>
    <path d="M 377.45745849609375 38.076656341552734 C 373.3497009277344 30.02631187438965 365.9304504394531 14.537129402160645 351.3812561035156 38.41875076293945 C 373.71490478515625 42.23197555541992 365.1777648925781 46.06901550292969 374.5955810546875 85.571044921875 C 406.88629150390625 76.14897918701172 418.1192321777344 61.262001037597656 397.47235107421875 54.59076690673828 C 403.0666809082031 37.56541061401367 425.7274169921875 37.23366928100586 377.45745849609375 38.076656341552734" stroke-width="0.0" fill="rgb(49, 117, 252)" opacity="0.010745879" stroke="rgb(0, 0, 0)" stroke-opacity="1.0" stroke-linecap="round" stroke-linejoin="round"/>
  </g>
</svg>
