<?xml version="1.0" ?>
<svg xmlns="http://www.w3.org/2000/svg" version="1.1" width="512" height="512">
  <defs/>
  <g>
    <path d="M 360.0479431152344 493.2165222167969 C 350.8575439453125 505.451171875 296.6025695800781 531.68359375 188.76976013183594 528.0744018554688 C 68.23660278320312 506.3718566894531 37.58951187133789 414.4563903808594 -4.097527027130127 373.74346923828125 C -38.41119384765625 239.34408569335938 6.732837200164795 137.7017822265625 4.553922176361084 197.07723999023438 C 204.68087768554688 299.4968566894531 264.3503112792969 205.19287109375 360.0479431152344 493.2165222167969" stroke-width="0.0" fill="rgb(119, 190, 23)" opacity="0.83541757" stroke="rgb(0, 0, 0)" stroke-opacity="1.0" stroke-linecap="round" stroke-linejoin="round"/>
    <path d="M 326.2564392089844 40.833412170410156 C 175.6164093017578 47.26404571533203 94.76703643798828 134.5338592529297 81.76112365722656 213.60398864746094 C -30.728286743164062 262.6659851074219 -19.585468292236328 184.9759521484375 3.208542823791504 111.32260131835938 C 22.95924186706543 58.07059097290039 72.7267837524414 13.572029113769531 134.8174591064453 -12.259112358093262 C 244.55813598632812 -61.324859619140625 391.5611877441406 1.8214280605316162 326.2564392089844 40.833412170410156" stroke-width="0.0" fill="rgb(123, 14, 196)" opacity="0.9573638" stroke="rgb(0, 0, 0)" stroke-opacity="1.0" stroke-linecap="round" stroke-linejoin="round"/>
    <path d="M 375.6223449707031 208.31846618652344 C 407.0618896484375 289.2022705078125 453.1302490234375 270.74566650390625 349.9849853515625 266.2820739746094 C 204.27142333984375 345.88232421875 211.7416534423828 371.6405029296875 193.63807678222656 91.36602783203125 C 410.5942077636719 25.023056030273438 331.267333984375 181.87550354003906 392.90533447265625 141.5759735107422 C 411.7435607910156 189.89529418945312 417.496826171875 169.3881378173828 375.6223449707031 208.31846618652344" stroke-width="0.0" fill="rgb(255, 0, 97)" opacity="1.0" stroke="rgb(0, 0, 0)" stroke-opacity="1.0" stroke-linecap="round" stroke-linejoin="round"/>
    <path d="M 203.5851287841797 173.13839721679688 C 282.3583068847656 270.1919250488281 288.95758056640625 233.9006805419922 259.389404296875 295.1406555175781 C 100.20437622070312 217.53106689453125 96.99374389648438 227.53018188476562 136.7084503173828 219.4165496826172 C 96.57147979736328 137.7326202392578 108.16353607177734 121.2428207397461 102.07798767089844 184.0149688720703 C 181.07760620117188 129.28944396972656 154.48350524902344 195.3348846435547 203.5851287841797 173.13839721679688" stroke-width="0.0" fill="rgb(200, 251, 85)" opacity="0.8183753" stroke="rgb(0, 0, 0)" stroke-opacity="1.0" stroke-linecap="round" stroke-linejoin="round"/>
    <path d="M 501.9454040527344 409.0035400390625 C 494.77398681640625 455.7843017578125 423.8829040527344 516.21728515625 326.8856201171875 534.265869140625 C 189.05426025390625 508.17352294921875 225.03781127929688 517.4586181640625 286.53790283203125 458.4736633300781 C 198.2615966796875 211.8935089111328 225.69821166992188 162.78363037109375 328.2173156738281 220.68202209472656 C 512.8433837890625 230.6731414794922 481.46966552734375 205.520751953125 501.9454040527344 409.0035400390625" stroke-width="0.0" fill="rgb(138, 185, 45)" opacity="0.97837436" stroke="rgb(0, 0, 0)" stroke-opacity="1.0" stroke-linecap="round" stroke-linejoin="round"/>
    <path d="M 565.9212646484375 196.82640075683594 C 552.048583984375 283.86065673828125 553.7350463867188 362.4931335449219 510.47320556640625 428.0314636230469 C 330.5475158691406 366.90643310546875 455.0215759277344 321.87738037109375 493.9969787597656 167.07278442382812 C 424.85748291015625 73.48552703857422 235.41049194335938 71.561767578125 345.6436462402344 -29.00254249572754 C 503.2604675292969 -13.875309944152832 576.4116821289062 101.45634460449219 565.9212646484375 196.82640075683594" stroke-width="0.0" fill="rgb(209, 6, 175)" opacity="0.96353334" stroke="rgb(0, 0, 0)" stroke-opacity="1.0" stroke-linecap="round" stroke-linejoin="round"/>
    <path d="M 325.5889587402344 244.3282470703125 C 323.546142578125 360.26422119140625 422.35198974609375 438.261962890625 352.1251220703125 452.3931884765625 C 272.0705261230469 297.8857727050781 260.6596984863281 280.4757080078125 266.1117248535156 272.0835266113281 C 271.9489440917969 269.7845458984375 304.145751953125 277.6734313964844 321.9336853027344 236.88870239257812 C 358.2184753417969 211.52674865722656 352.8293151855469 224.9984588623047 325.5889587402344 244.3282470703125" stroke-width="0.0" fill="rgb(169, 116, 133)" opacity="0.24265897" stroke="rgb(0, 0, 0)" stroke-opacity="1.0" stroke-linecap="round" stroke-linejoin="round"/>
    <path d="M 396.9707336425781 207.8690643310547 C 370.7477722167969 204.8598175048828 358.69024658203125 237.61972045898438 324.0046081542969 229.59423828125 C 262.16741943359375 233.6492919921875 278.7490234375 227.4813995361328 315.3411865234375 196.853515625 C 338.2292175292969 167.64303588867188 286.86810302734375 169.5279541015625 414.38909912109375 118.51933288574219 C 434.20318603515625 221.43003845214844 402.8575439453125 231.90895080566406 396.9707336425781 207.8690643310547" stroke-width="0.0" fill="rgb(133, 225, 112)" opacity="0.8698497" stroke="rgb(0, 0, 0)" stroke-opacity="1.0" stroke-linecap="round" stroke-linejoin="round"/>
    <path d="M 319.5189208984375 206.34571838378906 C 166.27989196777344 332.93231201171875 275.0404052734375 426.7923889160156 226.12945556640625 323.5054626464844 C 346.7944641113281 151.00057983398438 172.2997589111328 334.6451416015625 208.34481811523438 245.03158569335938 C 240.19589233398438 293.599365234375 179.2265625 269.8744812011719 201.16758728027344 253.60948181152344 C 283.97265625 259.134033203125 158.39443969726562 177.2423095703125 319.5189208984375 206.34571838378906" stroke-width="0.0" fill="rgb(141, 255, 100)" opacity="1.0" stroke="rgb(0, 0, 0)" stroke-opacity="1.0" stroke-linecap="round" stroke-linejoin="round"/>
    <path d="M 484.37603759765625 51.78976821899414 C 584.5146484375 251.930908203125 536.0619506835938 459.06256103515625 411.1932067871094 478.55712890625 C 329.955322265625 437.49102783203125 272.7991638183594 360.03045654296875 299.24346923828125 270.4188232421875 C 341.0362243652344 240.5848388671875 334.58197021484375 276.2362060546875 361.6889953613281 218.9481658935547 C 370.8448486328125 241.8157958984375 425.9796447753906 235.461669921875 484.37603759765625 51.78976821899414" stroke-width="0.0" fill="rgb(163, 34, 154)" opacity="0.93099064" stroke="rgb(0, 0, 0)" stroke-opacity="1.0" stroke-linecap="round" stroke-linejoin="round"/>
    <path d="M 234.12014770507812 452.4786682128906 C 137.40509033203125 504.3224182128906 109.75904083251953 425.8680725097656 233.63584899902344 492.8796081542969 C 125.83302307128906 477.690185546875 -22.550861358642578 442.2353820800781 -10.147278785705566 359.1042785644531 C -20.824880599975586 175.56570434570312 62.400028228759766 -24.806041717529297 147.97134399414062 235.55909729003906 C 266.5572814941406 243.5192413330078 244.8721466064453 275.01287841796875 234.12014770507812 452.4786682128906" stroke-width="0.0" fill="rgb(143, 0, 114)" opacity="1.0" stroke="rgb(0, 0, 0)" stroke-opacity="1.0" stroke-linecap="round" stroke-linejoin="round"/>
    <path d="M 534.7445678710938 99.56539916992188 C 478.9048156738281 216.94091796875 461.74658203125 195.82969665527344 415.4440002441406 157.53860473632812 C 373.3288879394531 53.1572265625 333.0579528808594 47.35033416748047 272.955078125 52.70349884033203 C 175.5721435546875 62.35968780517578 201.7501983642578 87.22193145751953 274.02880859375 -18.066341400146484 C 393.6211853027344 -31.178098678588867 503.3306579589844 3.8420321941375732 534.7445678710938 99.56539916992188" stroke-width="0.0" fill="rgb(76, 49, 247)" opacity="0.9030816" stroke="rgb(0, 0, 0)" stroke-opacity="1.0" stroke-linecap="round" stroke-linejoin="round"/>
    <path d="M 318.8846435546875 445.8861083984375 C 315.0317687988281 461.2792663574219 261.6715087890625 462.99176025390625 213.20054626464844 467.43145751953125 C 262.868408203125 495.3057861328125 264.81817626953125 420.48284912109375 271.4640197753906 419.15740966796875 C 266.7627868652344 428.9468994140625 269.4962463378906 416.29071044921875 262.64776611328125 385.1473388671875 C 267.2488708496094 219.29501342773438 237.87960815429688 325.9953918457031 318.8846435546875 445.8861083984375" stroke-width="0.0" fill="rgb(182, 96, 210)" opacity="0.11137037" stroke="rgb(0, 0, 0)" stroke-opacity="1.0" stroke-linecap="round" stroke-linejoin="round"/>
    <path d="M 467.6575927734375 476.0385437011719 C 439.03082275390625 495.124755859375 389.2430114746094 522.5756225585938 321.7642822265625 496.986328125 C 224.61375427246094 493.8840637207031 152.7887725830078 518.5907592773438 118.68585968017578 464.6411437988281 C 343.6156311035156 447.5180358886719 365.5140075683594 452.4056396484375 402.34942626953125 457.4701843261719 C 495.38861083984375 460.9357604980469 489.416015625 420.2619934082031 467.6575927734375 476.0385437011719" stroke-width="0.0" fill="rgb(171, 255, 0)" opacity="1.0" stroke="rgb(0, 0, 0)" stroke-opacity="1.0" stroke-linecap="round" stroke-linejoin="round"/>
    <path d="M 379.5497741699219 6.549838066101074 C 275.2137451171875 -45.910865783691406 94.56330871582031 -8.493223190307617 141.31570434570312 79.15471649169922 C 241.32894897460938 58.24605178833008 116.66242218017578 -111.93118286132812 40.33576583862305 26.273738861083984 C 116.91622161865234 85.12619018554688 241.3302764892578 28.26032829284668 180.20753479003906 42.62275314331055 C 263.4930114746094 90.67070007324219 132.06385803222656 136.2262725830078 379.5497741699219 6.549838066101074" stroke-width="0.0" fill="rgb(81, 42, 253)" opacity="0.99843425" stroke="rgb(0, 0, 0)" stroke-opacity="1.0" stroke-linecap="round" stroke-linejoin="round"/>
    <path d="M 295.7813720703125 120.88077545166016 C 306.9631042480469 176.5418243408203 300.2518310546875 207.16409301757812 442.64276123046875 144.6519012451172 C 439.69146728515625 37.92190933227539 364.53826904296875 -40.12433624267578 211.14385986328125 1.4472036361694336 C 163.69998168945312 84.58509063720703 231.04000854492188 79.58583068847656 283.5740051269531 81.8505859375 C 324.2049255371094 73.29396057128906 338.8536682128906 105.38201904296875 295.7813720703125 120.88077545166016" stroke-width="0.0" fill="rgb(145, 230, 37)" opacity="1.0" stroke="rgb(0, 0, 0)" stroke-opacity="1.0" stroke-linecap="round" stroke-linejoin="round"/>
    <path d="M 356.46820068359375 177.6408233642578 C 334.9092712402344 146.7135772705078 336.8441467285156 169.75936889648438 342.7659606933594 205.0332489013672 C 352.9647216796875 207.1986083984375 334.7063903808594 189.45236206054688 293.0744323730469 237.3184356689453 C 348.62518310546875 264.23309326171875 384.7766418457031 277.49530029296875 398.3993835449219 206.49647521972656 C 345.5252380371094 197.29763793945312 350.7081298828125 219.98191833496094 356.46820068359375 177.6408233642578" stroke-width="0.0" fill="rgb(115, 219, 25)" opacity="0.30923888" stroke="rgb(0, 0, 0)" stroke-opacity="1.0" stroke-linecap="round" stroke-linejoin="round"/>
    <path d="M 437.8481750488281 155.48760986328125 C 450.4281005859375 202.4492950439453 420.4867858886719 180.8920135498047 412.0523376464844 223.55227661132812 C 354.7611083984375 293.6988830566406 308.6881408691406 295.4653625488281 298.9082946777344 253.0565185546875 C 366.55438232421875 173.31069946289062 396.1431884765625 164.46994018554688 423.86090087890625 124.72725677490234 C 454.180419921875 218.55816650390625 428.99346923828125 185.544677734375 437.8481750488281 155.48760986328125" stroke-width="0.0" fill="rgb(120, 190, 124)" opacity="0.9861494" stroke="rgb(0, 0, 0)" stroke-opacity="1.0" stroke-linecap="round" stroke-linejoin="round"/>
    <path d="M 258.9407958984375 106.66632080078125 C 182.30941772460938 129.22503662109375 199.2665252685547 170.291015625 264.890869140625 225.25253295898438 C 215.9413604736328 247.37216186523438 204.10618591308594 224.1128692626953 184.4938507080078 145.59950256347656 C 250.78948974609375 103.20034790039062 273.2287292480469 125.52291870117188 241.6951904296875 116.26644897460938 C 264.5286560058594 103.7601089477539 287.4043884277344 90.10726165771484 258.9407958984375 106.66632080078125" stroke-width="0.0" fill="rgb(203, 232, 97)" opacity="0.83218193" stroke="rgb(0, 0, 0)" stroke-opacity="1.0" stroke-linecap="round" stroke-linejoin="round"/>
    <path d="M 60.8846549987793 91.51986694335938 C 81.42989349365234 76.61817932128906 32.415557861328125 86.01256561279297 5.648402214050293 178.6553192138672 C 174.92933654785156 191.80291748046875 109.13032531738281 176.13775634765625 131.2931671142578 171.0527801513672 C 183.51129150390625 147.52886962890625 237.18258666992188 127.44305419921875 193.80056762695312 11.847311019897461 C 64.06661224365234 59.43877410888672 52.741310119628906 102.08495330810547 60.8846549987793 91.51986694335938" stroke-width="0.0" fill="rgb(171, 38, 111)" opacity="0.81636894" stroke="rgb(0, 0, 0)" stroke-opacity="1.0" stroke-linecap="round" stroke-linejoin="round"/>
    <path d="M 320.91961669921875 231.34078979492188 C 286.2493896484375 185.1829071044922 277.5218505859375 229.62875366210938 270.5733947753906 262.76165771484375 C 272.21368408203125 292.1260681152344 269.7518310546875 268.71112060546875 217.6179656982422 241.88925170898438 C 205.4932861328125 248.00770568847656 244.54302978515625 236.64308166503906 309.4032897949219 250.07298278808594 C 320.0789794921875 214.2001190185547 330.3849792480469 186.36839294433594 320.91961669921875 231.34078979492188" stroke-width="0.0" fill="rgb(143, 229, 38)" opacity="0.5085412" stroke="rgb(0, 0, 0)" stroke-opacity="1.0" stroke-linecap="round" stroke-linejoin="round"/>
    <path d="M 198.69178771972656 113.6585922241211 C 202.45436096191406 186.9335174560547 228.67630004882812 185.86354064941406 208.08726501464844 205.10028076171875 C 156.14767456054688 220.42489624023438 109.8603515625 230.23704528808594 95.9899673461914 170.8326873779297 C 92.95917510986328 71.88611602783203 122.11739349365234 27.06355857849121 176.4861602783203 -5.764333724975586 C 273.9882507324219 23.674983978271484 237.57476806640625 62.32688903808594 198.69178771972656 113.6585922241211" stroke-width="0.0" fill="rgb(214, 254, 104)" opacity="1.0" stroke="rgb(0, 0, 0)" stroke-opacity="1.0" stroke-linecap="round" stroke-linejoin="round"/>
    <path d="M 268.3884582519531 296.6534118652344 C 293.48846435546875 330.8873291015625 272.79107666015625 329.3361511230469 283.95501708984375 348.6829528808594 C 290.95928955078125 332.3558654785156 284.6955871582031 338.8971862792969 251.26654052734375 338.40679931640625 C 243.35067749023438 310.2857666015625 241.2986297607422 294.36529541015625 265.04998779296875 268.8121337890625 C 295.925537109375 315.7740478515625 292.1726379394531 298.17828369140625 268.3884582519531 296.6534118652344" stroke-width="0.0" fill="rgb(170, 108, 176)" opacity="0.21745326" stroke="rgb(0, 0, 0)" stroke-opacity="1.0" stroke-linecap="round" stroke-linejoin="round"/>
    <path d="M 351.56512451171875 181.5576934814453 C 389.329833984375 243.3369140625 329.81903076171875 240.86135864257812 310.621337890625 277.6955261230469 C 301.5096740722656 231.78993225097656 317.46795654296875 242.68423461914062 331.4406433105469 237.70928955078125 C 339.4136657714844 276.9853820800781 343.8919677734375 308.5496826171875 258.4899597167969 290.1982421875 C 238.24607849121094 238.61277770996094 271.2945251464844 248.13003540039062 351.56512451171875 181.5576934814453" stroke-width="0.0" fill="rgb(133, 255, 99)" opacity="1.0" stroke="rgb(0, 0, 0)" stroke-opacity="1.0" stroke-linecap="round" stroke-linejoin="round"/>
    <path d="M 551.1345825195312 87.19791412353516 C 533.2639770507812 139.13829040527344 524.1389770507812 148.99681091308594 518.0408325195312 121.22807312011719 C 463.0945739746094 110.25474548339844 451.7414245605469 107.44334411621094 472.60943603515625 114.45262145996094 C 519.259033203125 115.5267105102539 523.5581665039062 90.46178436279297 503.5239562988281 36.967105865478516 C 525.9458618164062 28.29209327697754 538.0218505859375 31.393583297729492 551.1345825195312 87.19791412353516" stroke-width="0.0" fill="rgb(68, 64, 207)" opacity="0.7317715" stroke="rgb(0, 0, 0)" stroke-opacity="1.0" stroke-linecap="round" stroke-linejoin="round"/>
    <path d="M 149.1639404296875 482.6918029785156 C 147.22918701171875 536.513916015625 114.35226440429688 523.1912231445312 41.875980377197266 529.9803466796875 C 38.858154296875 483.7926940917969 31.133695602416992 457.9649963378906 33.77119445800781 480.5989990234375 C 56.47730255126953 445.5255126953125 60.907413482666016 433.5523681640625 56.55498123168945 402.03802490234375 C 91.19012451171875 416.87554931640625 119.9802474975586 422.04656982421875 149.1639404296875 482.6918029785156" stroke-width="0.0" fill="rgb(57, 161, 52)" opacity="1.0" stroke="rgb(0, 0, 0)" stroke-opacity="1.0" stroke-linecap="round" stroke-linejoin="round"/>
    <path d="M 259.36712646484375 433.58294677734375 C 274.97589111328125 444.7489013671875 283.1319885253906 420.10791015625 268.1026916503906 408.7846984863281 C 245.23684692382812 393.2854919433594 207.82054138183594 363.2999572753906 204.59347534179688 382.9543762207031 C 254.5406036376953 405.65338134765625 258.97998046875 407.7585754394531 261.52398681640625 349.4658508300781 C 261.81121826171875 369.5714416503906 257.13311767578125 369.6357116699219 259.36712646484375 433.58294677734375" stroke-width="0.0" fill="rgb(202, 109, 133)" opacity="0.0" stroke="rgb(0, 0, 0)" stroke-opacity="1.0" stroke-linecap="round" stroke-linejoin="round"/>
    <path d="M 91.36116790771484 432.9126281738281 C 44.92970275878906 487.6927490234375 63.9278450012207 527.5940551757812 32.17287826538086 550.957275390625 C -9.112763404846191 503.2084655761719 -21.713459014892578 500.73895263671875 -31.97910499572754 495.3454895019531 C -20.45726203918457 442.1151428222656 -49.500457763671875 402.2108154296875 5.352628231048584 405.2955322265625 C 78.62754821777344 383.6103515625 124.27511596679688 396.7512512207031 91.36116790771484 432.9126281738281" stroke-width="0.0" fill="rgb(102, 83, 98)" opacity="0.68500245" stroke="rgb(0, 0, 0)" stroke-opacity="1.0" stroke-linecap="round" stroke-linejoin="round"/>
    <path d="M 545.6812133789062 425.6963195800781 C 533.1174926757812 511.4598388671875 532.705322265625 521.4187622070312 444.26226806640625 544.6967163085938 C 397.0277404785156 530.9002075195312 366.63818359375 508.9624328613281 420.0485534667969 437.4245910644531 C 452.54864501953125 406.2302551269531 476.9552307128906 399.25335693359375 518.6978149414062 396.4984436035156 C 525.94970703125 381.4678039550781 534.1978149414062 376.7814636230469 545.6812133789062 425.6963195800781" stroke-width="0.0" fill="rgb(83, 181, 61)" opacity="0.9930215" stroke="rgb(0, 0, 0)" stroke-opacity="1.0" stroke-linecap="round" stroke-linejoin="round"/>
    <path d="M 366.08648681640625 422.1575622558594 C 403.6533508300781 461.9089050292969 424.8525695800781 458.0902404785156 287.09820556640625 458.7054138183594 C 288.24029541015625 423.5380859375 292.5776062011719 410.5263671875 295.36505126953125 386.630126953125 C 298.8632507324219 410.1541442871094 287.5889587402344 346.8167724609375 311.8258056640625 348.7139587402344 C 312.37603759765625 383.9124755859375 310.5553894042969 416.0063781738281 366.08648681640625 422.1575622558594" stroke-width="0.0" fill="rgb(93, 29, 246)" opacity="1.0" stroke="rgb(0, 0, 0)" stroke-opacity="1.0" stroke-linecap="round" stroke-linejoin="round"/>
    <path d="M 80.62995147705078 531.7164916992188 C 77.81202697753906 516.1946411132812 50.95014953613281 516.3572998046875 15.088953018188477 526.9402465820312 C 2.5686471462249756 516.5128173828125 -4.220098972320557 511.42901611328125 -51.26914978027344 471.82769775390625 C -38.38768768310547 460.47039794921875 -9.759553909301758 459.69158935546875 13.97990894317627 454.0748596191406 C 57.931583404541016 471.7467041015625 79.21038055419922 474.0469970703125 80.62995147705078 531.7164916992188" stroke-width="0.0" fill="rgb(67, 197, 26)" opacity="0.9825359" stroke="rgb(0, 0, 0)" stroke-opacity="1.0" stroke-linecap="round" stroke-linejoin="round"/>
    <path d="M 525.6135864257812 204.6776580810547 C 533.5986328125 222.4777069091797 520.3681030273438 219.13601684570312 513.2852783203125 242.80860900878906 C 482.1395263671875 220.6572265625 485.21649169921875 201.87962341308594 459.6295166015625 189.87045288085938 C 436.4909973144531 185.8728790283203 465.2786865234375 181.347412109375 521.3699951171875 176.9194793701172 C 525.5405883789062 185.9172821044922 523.73974609375 185.6122589111328 525.6135864257812 204.6776580810547" stroke-width="0.0" fill="rgb(113, 82, 68)" opacity="0.7598146" stroke="rgb(0, 0, 0)" stroke-opacity="1.0" stroke-linecap="round" stroke-linejoin="round"/>
    <path d="M 251.01844787597656 274.94989013671875 C 258.47918701171875 278.0190734863281 258.9337463378906 276.9488830566406 242.84744262695312 284.8184509277344 C 251.38674926757812 283.14398193359375 258.7377014160156 286.8645935058594 233.94772338867188 282.2087097167969 C 214.58216857910156 259.9190673828125 217.94198608398438 245.6320037841797 237.92628479003906 247.0294647216797 C 240.38238525390625 260.2919616699219 239.3833465576172 248.7082977294922 251.01844787597656 274.94989013671875" stroke-width="0.0" fill="rgb(153, 191, 52)" opacity="0.8178611" stroke="rgb(0, 0, 0)" stroke-opacity="1.0" stroke-linecap="round" stroke-linejoin="round"/>
    <path d="M 445.5791320800781 122.12295532226562 C 446.8009338378906 162.3476104736328 425.10064697265625 173.14854431152344 417.96881103515625 154.84693908691406 C 411.5627746582031 176.4742431640625 411.4292297363281 163.57835388183594 433.9256286621094 171.19378662109375 C 419.8829345703125 149.06979370117188 419.2577819824219 143.48875427246094 410.07769775390625 145.12429809570312 C 422.1805419921875 140.01348876953125 430.860595703125 127.47025299072266 445.5791320800781 122.12295532226562" stroke-width="0.0" fill="rgb(109, 195, 74)" opacity="0.2645326" stroke="rgb(0, 0, 0)" stroke-opacity="1.0" stroke-linecap="round" stroke-linejoin="round"/>
    <path d="M 467.152099609375 478.79168701171875 C 465.1524658203125 530.1367797851562 461.035400390625 536.4297485351562 453.05474853515625 520.0341186523438 C 428.2558898925781 500.1073303222656 407.5696716308594 489.50885009765625 406.3800964355469 491.68402099609375 C 412.26873779296875 471.2630920410156 411.2341003417969 450.35107421875 426.43231201171875 431.60791015625 C 459.35650634765625 461.2165222167969 468.7350769042969 465.2151184082031 467.152099609375 478.79168701171875" stroke-width="0.0" fill="rgb(73, 185, 37)" opacity="0.53014404" stroke="rgb(0, 0, 0)" stroke-opacity="1.0" stroke-linecap="round" stroke-linejoin="round"/>
    <path d="M 235.57421875 56.49003219604492 C 166.26954650878906 60.67096710205078 155.67689514160156 70.55087280273438 191.64126586914062 40.922386169433594 C 197.3844757080078 75.17659759521484 158.4612274169922 55.59659957885742 175.0923614501953 87.45404815673828 C 190.3976593017578 86.38458251953125 217.98846435546875 97.89945220947266 224.6494140625 89.17721557617188 C 205.73553466796875 61.10210418701172 257.22161865234375 88.76409149169922 235.57421875 56.49003219604492" stroke-width="0.0" fill="rgb(181, 253, 103)" opacity="0.0" stroke="rgb(0, 0, 0)" stroke-opacity="1.0" stroke-linecap="round" stroke-linejoin="round"/>
    <path d="M 485.9114074707031 -22.62276840209961 C 493.9861145019531 0.43469759821891785 504.46832275390625 25.786134719848633 481.0344543457031 25.37325096130371 C 461.64764404296875 21.73644256591797 448.7925109863281 7.350555419921875 419.0265808105469 -10.863533973693848 C 397.9504089355469 -5.645391941070557 410.92669677734375 -11.87232780456543 441.69549560546875 -17.00428581237793 C 475.2845764160156 -15.137412071228027 483.57513427734375 -9.005395889282227 485.9114074707031 -22.62276840209961" stroke-width="0.0" fill="rgb(0, 131, 108)" opacity="0.7353237" stroke="rgb(0, 0, 0)" stroke-opacity="1.0" stroke-linecap="round" stroke-linejoin="round"/>
    <path d="M 557.6282958984375 50.68351364135742 C 530.5429077148438 65.89860534667969 486.2019348144531 58.13175964355469 461.8153991699219 49.650638580322266 C 461.92449951171875 39.415428161621094 464.5458984375 42.80998992919922 442.7282409667969 14.88948917388916 C 412.9599304199219 -11.452059745788574 421.97564697265625 -33.67829513549805 446.42681884765625 -35.5600471496582 C 513.3515625 -7.466573715209961 521.2838745117188 -2.8233680725097656 557.6282958984375 50.68351364135742" stroke-width="0.0" fill="rgb(81, 54, 237)" opacity="0.988458" stroke="rgb(0, 0, 0)" stroke-opacity="1.0" stroke-linecap="round" stroke-linejoin="round"/>
    <path d="M 203.6621856689453 448.4442138671875 C 209.47303771972656 455.58184814453125 193.21728515625 469.267333984375 206.90414428710938 463.3446350097656 C 197.62008666992188 447.95440673828125 187.50575256347656 430.3294982910156 166.64500427246094 397.641845703125 C 156.5563201904297 401.7564392089844 150.08473205566406 445.16815185546875 162.082275390625 456.7566833496094 C 182.82913208007812 456.62896728515625 208.64431762695312 450.1681213378906 203.6621856689453 448.4442138671875" stroke-width="0.0" fill="rgb(56, 143, 164)" opacity="0.0064729694" stroke="rgb(0, 0, 0)" stroke-opacity="1.0" stroke-linecap="round" stroke-linejoin="round"/>
    <path d="M 367.6489562988281 242.32666015625 C 362.3669738769531 259.9289245605469 347.36688232421875 259.6960754394531 341.6612854003906 285.3922119140625 C 312.5694274902344 301.5451354980469 288.4744873046875 272.5086669921875 282.6252136230469 200.81494140625 C 349.2065124511719 211.15586853027344 353.38262939453125 173.51702880859375 362.5240783691406 170.7139129638672 C 386.3902587890625 180.57098388671875 390.4544982910156 220.4242401123047 367.6489562988281 242.32666015625" stroke-width="0.0" fill="rgb(127, 244, 141)" opacity="0.7851789" stroke="rgb(0, 0, 0)" stroke-opacity="1.0" stroke-linecap="round" stroke-linejoin="round"/>
    <path d="M 206.8420867919922 245.9235382080078 C 200.83230590820312 256.9219055175781 194.0327606201172 261.1390686035156 194.53961181640625 265.98846435546875 C 168.6184844970703 272.6474914550781 151.18646240234375 264.8522644042969 135.91224670410156 243.98818969726562 C 99.8585205078125 192.50872802734375 127.2702407836914 155.24563598632812 198.6007080078125 198.58372497558594 C 186.81443786621094 229.62550354003906 198.03260803222656 227.9747314453125 206.8420867919922 245.9235382080078" stroke-width="0.0" fill="rgb(205, 255, 142)" opacity="0.9113176" stroke="rgb(0, 0, 0)" stroke-opacity="1.0" stroke-linecap="round" stroke-linejoin="round"/>
    <path d="M 200.76670837402344 450.1108703613281 C 198.875 448.5887145996094 195.40016174316406 447.8386535644531 195.39305114746094 445.8824157714844 C 169.65512084960938 436.17724609375 139.83831787109375 437.33673095703125 140.2928466796875 426.5818176269531 C 137.1381378173828 438.08770751953125 156.76194763183594 445.0245056152344 197.5334930419922 436.6003723144531 C 181.0507049560547 454.93060302734375 193.6737518310547 452.3053894042969 200.76670837402344 450.1108703613281" stroke-width="0.0" fill="rgb(144, 1, 118)" opacity="0.47836262" stroke="rgb(0, 0, 0)" stroke-opacity="1.0" stroke-linecap="round" stroke-linejoin="round"/>
    <path d="M 253.91842651367188 261.80010986328125 C 271.35565185546875 304.7970275878906 247.14892578125 314.6016845703125 190.09197998046875 278.054443359375 C 172.6333770751953 262.5445861816406 179.41172790527344 247.5280303955078 141.8498992919922 243.12571716308594 C 105.4996566772461 214.71829223632812 173.08444213867188 215.5118865966797 184.01577758789062 196.7522735595703 C 235.31752014160156 201.09524536132812 239.05445861816406 197.56980895996094 253.91842651367188 261.80010986328125" stroke-width="0.0" fill="rgb(216, 250, 153)" opacity="0.9992751" stroke="rgb(0, 0, 0)" stroke-opacity="1.0" stroke-linecap="round" stroke-linejoin="round"/>
    <path d="M 204.35679626464844 94.60047912597656 C 199.3583526611328 102.70189666748047 203.16941833496094 122.75920104980469 181.39764404296875 109.79878234863281 C 174.93995666503906 70.0546646118164 193.2711639404297 58.50685119628906 203.3183135986328 85.32132720947266 C 197.275634765625 84.37003326416016 197.1371612548828 77.7606430053711 190.28298950195312 74.83316040039062 C 223.61985778808594 66.98014068603516 229.21688842773438 79.88867950439453 204.35679626464844 94.60047912597656" stroke-width="0.0" fill="rgb(188, 223, 174)" opacity="0.10601995" stroke="rgb(0, 0, 0)" stroke-opacity="1.0" stroke-linecap="round" stroke-linejoin="round"/>
    <path d="M 20.177431106567383 136.4364471435547 C 40.853092193603516 154.50946044921875 30.04769515991211 143.4305419921875 -2.1707420349121094 130.34664916992188 C -29.416648864746094 163.17776489257812 -21.657182693481445 168.49143981933594 -45.04624938964844 96.96266174316406 C -40.836631774902344 42.41131591796875 -54.51444625854492 -6.56895637512207 65.15019226074219 -9.157872200012207 C 63.52678298950195 88.65003967285156 7.778750419616699 96.35330963134766 20.177431106567383 136.4364471435547" stroke-width="0.0" fill="rgb(94, 40, 233)" opacity="0.98760414" stroke="rgb(0, 0, 0)" stroke-opacity="1.0" stroke-linecap="round" stroke-linejoin="round"/>
    <path d="M 396.93292236328125 70.15205383300781 C 366.28021240234375 51.49737548828125 372.7167663574219 77.61185455322266 375.8352966308594 104.41765594482422 C 360.00921630859375 136.6834716796875 341.76422119140625 134.8380889892578 325.01171875 105.023193359375 C 314.4396057128906 63.7083854675293 328.3356018066406 78.3486099243164 361.8179626464844 96.03631591796875 C 406.14678955078125 115.13629913330078 421.983154296875 134.79330444335938 396.93292236328125 70.15205383300781" stroke-width="0.0" fill="rgb(113, 238, 47)" opacity="0.04857058" stroke="rgb(0, 0, 0)" stroke-opacity="1.0" stroke-linecap="round" stroke-linejoin="round"/>
    <path d="M 65.37518310546875 450.33819580078125 C 34.3769416809082 489.9744873046875 18.06592559814453 509.5573425292969 26.20941734313965 456.1935119628906 C 21.4041690826416 462.6296081542969 27.157995223999023 480.6941833496094 24.495744705200195 476.55084228515625 C 37.991512298583984 471.73223876953125 58.41044998168945 467.57940673828125 50.17481231689453 433.3782043457031 C 45.769805908203125 421.82537841796875 70.54360961914062 444.56439208984375 65.37518310546875 450.33819580078125" stroke-width="0.0" fill="rgb(87, 182, 32)" opacity="0.009026026" stroke="rgb(0, 0, 0)" stroke-opacity="1.0" stroke-linecap="round" stroke-linejoin="round"/>
    <path d="M 169.97671508789062 199.4466094970703 C 148.93714904785156 243.21453857421875 152.32595825195312 251.90274047851562 147.68812561035156 229.50599670410156 C 154.0460205078125 231.93016052246094 152.68365478515625 221.37261962890625 145.57864379882812 215.76109313964844 C 142.6306915283203 222.76185607910156 142.39366149902344 196.056640625 140.60833740234375 206.06524658203125 C 117.35502624511719 221.34693908691406 149.5772705078125 193.6396026611328 169.97671508789062 199.4466094970703" stroke-width="0.0" fill="rgb(210, 244, 151)" opacity="0.42867786" stroke="rgb(0, 0, 0)" stroke-opacity="1.0" stroke-linecap="round" stroke-linejoin="round"/>
    <path d="M 274.70501708984375 19.995643615722656 C 285.9667663574219 19.59850311279297 283.35736083984375 33.37147521972656 261.4945983886719 39.850650787353516 C 257.8113098144531 32.36997985839844 233.4213409423828 32.273929595947266 258.63055419921875 23.499300003051758 C 262.7488098144531 22.033004760742188 270.2413635253906 10.006311416625977 281.7547302246094 -13.214073181152344 C 283.9326477050781 -11.777861595153809 286.3170166015625 7.492344856262207 274.70501708984375 19.995643615722656" stroke-width="0.0" fill="rgb(53, 96, 206)" opacity="0.0" stroke="rgb(0, 0, 0)" stroke-opacity="1.0" stroke-linecap="round" stroke-linejoin="round"/>
    <path d="M 516.9898071289062 284.45404052734375 C 546.4976806640625 262.6293029785156 525.5467529296875 262.8451843261719 512.3335571289062 256.843017578125 C 496.70196533203125 262.1311340332031 502.4144592285156 269.008056640625 485.887939453125 270.0587158203125 C 474.48974609375 262.0829162597656 475.00360107421875 231.06202697753906 483.7411193847656 244.28175354003906 C 491.7274169921875 262.3450012207031 515.3516235351562 261.465087890625 516.9898071289062 284.45404052734375" stroke-width="0.0" fill="rgb(83, 122, 110)" opacity="0.0" stroke="rgb(0, 0, 0)" stroke-opacity="1.0" stroke-linecap="round" stroke-linejoin="round"/>
    <path d="M 256.6980895996094 410.4341735839844 C 260.37017822265625 402.8345642089844 253.33251953125 420.0381164550781 239.83558654785156 421.89697265625 C 253.5854034423828 412.5465087890625 246.29598999023438 394.5684509277344 251.7564697265625 427.6626281738281 C 256.977783203125 416.5627746582031 271.0350036621094 407.20196533203125 263.8403625488281 398.51092529296875 C 279.7406311035156 404.514892578125 302.0888366699219 412.06390380859375 256.6980895996094 410.4341735839844" stroke-width="0.0" fill="rgb(156, 196, 44)" opacity="0.18169469" stroke="rgb(0, 0, 0)" stroke-opacity="1.0" stroke-linecap="round" stroke-linejoin="round"/>
    <path d="M 79.08509063720703 123.2329330444336 C 88.75884246826172 129.0897979736328 60.93244171142578 127.30467987060547 70.41807556152344 94.14600372314453 C 88.09974670410156 65.23762512207031 52.37986755371094 90.5510025024414 38.37558364868164 106.7771987915039 C 61.9932861328125 68.44022369384766 55.10673522949219 64.31256866455078 25.078094482421875 112.39936828613281 C 58.99527359008789 121.10478210449219 61.27198028564453 119.22891235351562 79.08509063720703 123.2329330444336" stroke-width="0.0" fill="rgb(65, 82, 114)" opacity="0.03483669" stroke="rgb(0, 0, 0)" stroke-opacity="1.0" stroke-linecap="round" stroke-linejoin="round"/>
    <path d="M 447.1021728515625 226.0683135986328 C 440.042724609375 230.84471130371094 439.86260986328125 235.19204711914062 444.2507629394531 259.77655029296875 C 435.3590393066406 256.0160827636719 449.7974548339844 261.56768798828125 438.10546875 255.21006774902344 C 430.2977600097656 216.0511016845703 427.5280456542969 203.4833984375 436.47235107421875 225.1423797607422 C 443.07855224609375 222.22900390625 446.4810791015625 232.30355834960938 447.1021728515625 226.0683135986328" stroke-width="0.0" fill="rgb(108, 92, 125)" opacity="0.050970912" stroke="rgb(0, 0, 0)" stroke-opacity="1.0" stroke-linecap="round" stroke-linejoin="round"/>
    <path d="M 352.28094482421875 416.117919921875 C 378.94024658203125 414.0564270019531 366.9430847167969 395.2641296386719 350.5841064453125 396.4644775390625 C 323.702880859375 425.4738464355469 309.8980407714844 413.82781982421875 303.7637634277344 385.80084228515625 C 303.56903076171875 348.6371765136719 302.815185546875 330.57568359375 355.4427795410156 321.0710144042969 C 349.5550231933594 369.74456787109375 347.9244689941406 393.68817138671875 352.28094482421875 416.117919921875" stroke-width="0.0" fill="rgb(252, 33, 22)" opacity="0.4503096" stroke="rgb(0, 0, 0)" stroke-opacity="1.0" stroke-linecap="round" stroke-linejoin="round"/>
    <path d="M 372.54095458984375 183.701416015625 C 396.350341796875 162.9037628173828 342.3280944824219 170.693603515625 382.15130615234375 195.98818969726562 C 381.43548583984375 193.82151794433594 348.0724792480469 186.01766967773438 323.10626220703125 179.39601135253906 C 323.8966979980469 173.7694549560547 367.48077392578125 163.5107879638672 358.61968994140625 192.52369689941406 C 358.32635498046875 193.22305297851562 352.65130615234375 197.33334350585938 372.54095458984375 183.701416015625" stroke-width="0.0" fill="rgb(100, 223, 24)" opacity="0.0" stroke="rgb(0, 0, 0)" stroke-opacity="1.0" stroke-linecap="round" stroke-linejoin="round"/>
    <path d="M 104.0410385131836 501.8937072753906 C 76.2762451171875 486.9622497558594 96.39450073242188 466.3044738769531 88.58551788330078 441.0317687988281 C 83.2365951538086 467.16015625 93.77198791503906 452.0748596191406 64.85459899902344 447.057861328125 C 66.1363296508789 430.3160400390625 87.93468475341797 406.0678405761719 73.54144287109375 414.0273742675781 C 89.64238739013672 461.5313720703125 103.13076782226562 479.2590026855469 104.0410385131836 501.8937072753906" stroke-width="0.0" fill="rgb(50, 200, 26)" opacity="0.033037443" stroke="rgb(0, 0, 0)" stroke-opacity="1.0" stroke-linecap="round" stroke-linejoin="round"/>
    <path d="M 123.82768249511719 470.7996826171875 C 138.1553192138672 496.08001708984375 130.0627899169922 472.94073486328125 24.63431167602539 459.75323486328125 C 49.645450592041016 515.2348022460938 57.220947265625 467.25634765625 57.76267623901367 442.9522705078125 C 80.38874053955078 449.3717956542969 85.51914978027344 460.46099853515625 51.8986930847168 445.3908996582031 C 80.21039581298828 422.7676696777344 96.88793182373047 434.4736022949219 123.82768249511719 470.7996826171875" stroke-width="0.0" fill="rgb(63, 122, 129)" opacity="0.008863795" stroke="rgb(0, 0, 0)" stroke-opacity="1.0" stroke-linecap="round" stroke-linejoin="round"/>
    <path d="M 457.8017578125 43.892276763916016 C 462.1123352050781 49.810672760009766 459.8662414550781 60.28068161010742 455.8066101074219 60.58100891113281 C 448.7304382324219 62.45886993408203 439.49468994140625 63.83698654174805 450.79815673828125 65.8705062866211 C 454.9012451171875 18.42844009399414 454.97406005859375 23.20277976989746 460.476806640625 23.235902786254883 C 461.6710205078125 30.766387939453125 469.2071838378906 43.16657257080078 457.8017578125 43.892276763916016" stroke-width="0.0" fill="rgb(197, 55, 127)" opacity="0.035638034" stroke="rgb(0, 0, 0)" stroke-opacity="1.0" stroke-linecap="round" stroke-linejoin="round"/>
    <path d="M 283.409912109375 164.97776794433594 C 309.44793701171875 169.97869873046875 297.290283203125 171.54660034179688 284.98724365234375 171.87619018554688 C 293.0633850097656 175.8043212890625 297.5762634277344 167.66683959960938 285.82867431640625 171.26492309570312 C 293.7602233886719 180.5134735107422 303.7359924316406 172.7828369140625 322.6810607910156 159.95980834960938 C 277.0229187011719 135.76077270507812 276.4097595214844 147.22280883789062 283.409912109375 164.97776794433594" stroke-width="0.0" fill="rgb(144, 107, 45)" opacity="0.0" stroke="rgb(0, 0, 0)" stroke-opacity="1.0" stroke-linecap="round" stroke-linejoin="round"/>
    <path d="M 139.19602966308594 47.14589309692383 C 147.99305725097656 59.52753448486328 148.306884765625 64.23905944824219 143.0291748046875 53.95364761352539 C 136.0246124267578 45.60792541503906 135.3391876220703 33.97760772705078 127.26792907714844 -3.8798694610595703 C 110.2476806640625 -19.419105529785156 106.10200500488281 -26.4660587310791 127.06114196777344 -4.695021629333496 C 138.27854919433594 27.822416305541992 132.9355926513672 43.18159484863281 139.19602966308594 47.14589309692383" stroke-width="0.0" fill="rgb(94, 137, 91)" opacity="0.69970393" stroke="rgb(0, 0, 0)" stroke-opacity="1.0" stroke-linecap="round" stroke-linejoin="round"/>
    <path d="M 190.0269317626953 361.8780517578125 C 202.1846160888672 378.8673095703125 203.1852569580078 351.0643005371094 198.14271545410156 370.3193054199219 C 203.73667907714844 363.0411376953125 174.71664428710938 351.002197265625 177.88729858398438 342.98370361328125 C 172.98374938964844 322.94781494140625 181.34202575683594 315.52593994140625 179.85166931152344 326.35382080078125 C 204.4959716796875 319.3749084472656 200.91712951660156 329.796875 190.0269317626953 361.8780517578125" stroke-width="0.0" fill="rgb(62, 69, 180)" opacity="0.00017402293" stroke="rgb(0, 0, 0)" stroke-opacity="1.0" stroke-linecap="round" stroke-linejoin="round"/>
    <path d="M 76.70568084716797 330.4591064453125 C 77.33002471923828 342.90185546875 48.348350524902344 335.34271240234375 41.36793899536133 339.54144287109375 C -0.6231324076652527 336.4687805175781 -7.641163349151611 340.6618957519531 -10.145758628845215 336.5057678222656 C 8.718711853027344 308.887451171875 16.747220993041992 307.5968933105469 26.0301456451416 298.5203552246094 C 49.02505111694336 300.39068603515625 65.2374038696289 306.823974609375 76.70568084716797 330.4591064453125" stroke-width="0.0" fill="rgb(98, 78, 107)" opacity="0.4887002" stroke="rgb(0, 0, 0)" stroke-opacity="1.0" stroke-linecap="round" stroke-linejoin="round"/>
    <path d="M 451.42279052734375 447.70733642578125 C 429.36480712890625 473.2237243652344 417.2154846191406 468.56207275390625 400.10137939453125 450.7861022949219 C 378.80645751953125 471.24444580078125 361.5321960449219 469.7044372558594 363.4961853027344 417.62353515625 C 364.8050537109375 424.1330871582031 366.8221130371094 439.611083984375 375.637939453125 432.91571044921875 C 370.8349304199219 408.1783752441406 396.6513366699219 417.29010009765625 451.42279052734375 447.70733642578125" stroke-width="0.0" fill="rgb(11, 104, 202)" opacity="0.12264626" stroke="rgb(0, 0, 0)" stroke-opacity="1.0" stroke-linecap="round" stroke-linejoin="round"/>
    <path d="M 129.41827392578125 274.1544189453125 C 115.01237487792969 256.2171936035156 123.0767593383789 286.1497802734375 129.6868438720703 305.9844970703125 C 136.43711853027344 301.2619934082031 132.3397979736328 278.6146545410156 122.63068389892578 248.1079864501953 C 120.03022003173828 231.64895629882812 110.26653289794922 232.4368133544922 122.80679321289062 238.29360961914062 C 147.9894561767578 256.9679870605469 154.3085479736328 271.7931823730469 129.41827392578125 274.1544189453125" stroke-width="0.0" fill="rgb(50, 102, 223)" opacity="0.0031578206" stroke="rgb(0, 0, 0)" stroke-opacity="1.0" stroke-linecap="round" stroke-linejoin="round"/>
  </g>
</svg>
