<?xml version="1.0" ?>
<svg xmlns="http://www.w3.org/2000/svg" version="1.1" width="512" height="512">
  <defs/>
  <g>
    <path d="M 548.9417114257812 444.6993103027344 C 550.71484375 481.20526123046875 504.0934753417969 532.3701782226562 448.45574951171875 554.8052368164062 C 300.4127502441406 550.6445922851562 284.8345031738281 551.2013549804688 199.27915954589844 432.09112548828125 C 338.9650573730469 435.8614807128906 405.4556579589844 421.3065185546875 471.34967041015625 333.5527038574219 C 543.2301635742188 303.85369873046875 552.7864379882812 331.9131774902344 548.9417114257812 444.6993103027344" stroke-width="0.0" fill="rgb(240, 92, 17)" opacity="0.9064388" stroke="rgb(0, 0, 0)" stroke-opacity="1.0" stroke-linecap="round" stroke-linejoin="round"/>
    <path d="M 245.8532257080078 392.1245422363281 C 270.79534912109375 496.0487976074219 366.85760498046875 412.75274658203125 220.7372283935547 550.4406127929688 C -41.479393005371094 563.2000122070312 -20.873289108276367 492.0749206542969 -29.49309730529785 410.4369201660156 C -37.459190368652344 233.61599731445312 -21.187414169311523 198.44215393066406 101.11692810058594 149.77593994140625 C 251.54824829101562 196.16195678710938 170.62515258789062 253.13031005859375 245.8532257080078 392.1245422363281" stroke-width="0.0" fill="rgb(255, 132, 1)" opacity="0.9924317" stroke="rgb(0, 0, 0)" stroke-opacity="1.0" stroke-linecap="round" stroke-linejoin="round"/>
    <path d="M 137.40383911132812 327.3936462402344 C 133.8700714111328 316.939453125 121.26131439208984 308.7403259277344 154.23751831054688 335.6309814453125 C 40.689029693603516 334.0910339355469 2.1423821449279785 368.6732177734375 -11.317370414733887 195.3542022705078 C 7.9904985427856445 142.95932006835938 34.06523513793945 126.74183654785156 172.38328552246094 150.55384826660156 C 152.1302032470703 305.1036376953125 128.1808624267578 294.685302734375 137.40383911132812 327.3936462402344" stroke-width="0.0" fill="rgb(255, 165, 3)" opacity="0.434387" stroke="rgb(0, 0, 0)" stroke-opacity="1.0" stroke-linecap="round" stroke-linejoin="round"/>
    <path d="M 315.16033935546875 100.20690155029297 C 276.92864990234375 150.97491455078125 228.61534118652344 48.77535629272461 91.32778930664062 211.49209594726562 C -24.91976547241211 207.48599243164062 -57.92868423461914 198.57913208007812 -52.77935028076172 86.58696746826172 C -49.660545349121094 20.466737747192383 16.856647491455078 -23.03539276123047 69.95317077636719 -41.63683319091797 C 314.7372741699219 -87.28117370605469 326.8677673339844 -90.46851348876953 315.16033935546875 100.20690155029297" stroke-width="0.0" fill="rgb(248, 159, 6)" opacity="0.96414244" stroke="rgb(0, 0, 0)" stroke-opacity="1.0" stroke-linecap="round" stroke-linejoin="round"/>
    <path d="M 221.42672729492188 108.03813171386719 C 205.46975708007812 207.42811584472656 187.28140258789062 195.63731384277344 152.3061065673828 239.72982788085938 C 124.54420471191406 262.13677978515625 97.4832992553711 220.3498992919922 37.242835998535156 207.03416442871094 C 60.86001968383789 126.68291473388672 229.9476318359375 -11.020203590393066 362.7276916503906 161.28135681152344 C 217.73658752441406 277.0830078125 166.22445678710938 115.91407012939453 221.42672729492188 108.03813171386719" stroke-width="0.0" fill="rgb(237, 171, 6)" opacity="0.7896601" stroke="rgb(0, 0, 0)" stroke-opacity="1.0" stroke-linecap="round" stroke-linejoin="round"/>
    <path d="M 471.7323303222656 204.90379333496094 C 444.5577087402344 488.0040588378906 393.2070617675781 469.196044921875 213.6508331298828 435.2776184082031 C 372.2146301269531 387.0166320800781 326.57080078125 327.0148010253906 353.9850158691406 336.9814758300781 C 330.4674987792969 376.19024658203125 321.8766784667969 372.7016296386719 333.876953125 310.4402160644531 C 414.3031311035156 230.74098205566406 366.94586181640625 227.3602752685547 471.7323303222656 204.90379333496094" stroke-width="0.0" fill="rgb(255, 183, 7)" opacity="0.79647034" stroke="rgb(0, 0, 0)" stroke-opacity="1.0" stroke-linecap="round" stroke-linejoin="round"/>
    <path d="M 530.1128540039062 133.68019104003906 C 587.731201171875 380.8595886230469 580.300048828125 395.7560119628906 451.3199462890625 427.84375 C 311.5918884277344 370.0411682128906 388.4178466796875 320.9500732421875 372.1502685546875 201.45289611816406 C 306.9507141113281 79.06578826904297 249.6550750732422 136.62916564941406 315.7196960449219 -9.073153495788574 C 507.69879150390625 1.9025750160217285 482.3283386230469 96.0669937133789 530.1128540039062 133.68019104003906" stroke-width="0.0" fill="rgb(237, 137, 45)" opacity="0.9813252" stroke="rgb(0, 0, 0)" stroke-opacity="1.0" stroke-linecap="round" stroke-linejoin="round"/>
    <path d="M 352.1541442871094 236.82984924316406 C 374.3778991699219 401.8507995605469 376.53619384765625 228.68255615234375 252.30828857421875 528.9638671875 C 214.76797485351562 346.5064392089844 189.25074768066406 345.50933837890625 238.83470153808594 252.92994689941406 C 355.68695068359375 304.6458435058594 275.85015869140625 236.32058715820312 290.9129638671875 223.81869506835938 C 293.6194763183594 287.731201171875 316.1854248046875 170.21945190429688 352.1541442871094 236.82984924316406" stroke-width="0.0" fill="rgb(0, 2, 35)" opacity="0.9999134" stroke="rgb(0, 0, 0)" stroke-opacity="1.0" stroke-linecap="round" stroke-linejoin="round"/>
    <path d="M 307.5929870605469 262.1922607421875 C 163.29502868652344 345.9435729980469 219.05224609375 201.36810302734375 181.65501403808594 525.7889404296875 C 186.693359375 177.83241271972656 200.1417999267578 269.94317626953125 218.91920471191406 263.38153076171875 C 200.9399871826172 205.0781707763672 297.4342346191406 -15.778172492980957 197.22938537597656 274.7025451660156 C 220.86520385742188 275.2913818359375 207.29441833496094 1.0242948532104492 307.5929870605469 262.1922607421875" stroke-width="0.0" fill="rgb(3, 20, 46)" opacity="0.975074" stroke="rgb(0, 0, 0)" stroke-opacity="1.0" stroke-linecap="round" stroke-linejoin="round"/>
    <path d="M 532.142822265625 140.5780029296875 C 515.671142578125 137.80296325683594 516.5602416992188 113.36601257324219 472.4302062988281 116.49359893798828 C 464.5811767578125 107.99388122558594 454.5759582519531 95.2077407836914 361.26861572265625 -2.0276994705200195 C 314.9735412597656 -20.369522094726562 361.1470947265625 -14.692047119140625 465.04449462890625 -26.167146682739258 C 531.8319702148438 -21.65306854248047 544.0791625976562 23.036712646484375 532.142822265625 140.5780029296875" stroke-width="0.0" fill="rgb(219, 106, 23)" opacity="0.96617097" stroke="rgb(0, 0, 0)" stroke-opacity="1.0" stroke-linecap="round" stroke-linejoin="round"/>
    <path d="M 254.75926208496094 384.5029602050781 C 281.8654479980469 412.1003112792969 314.1069030761719 478.3653869628906 210.2952423095703 469.1531677246094 C 231.74777221679688 384.25933837890625 246.05093383789062 401.5896911621094 257.32037353515625 460.26593017578125 C 297.3722839355469 407.7823486328125 305.732421875 423.039794921875 254.38511657714844 387.76007080078125 C 271.6160888671875 353.90582275390625 254.67959594726562 409.29998779296875 254.75926208496094 384.5029602050781" stroke-width="0.0" fill="rgb(255, 255, 28)" opacity="1.0" stroke="rgb(0, 0, 0)" stroke-opacity="1.0" stroke-linecap="round" stroke-linejoin="round"/>
    <path d="M 223.76393127441406 277.4669494628906 C 262.80718994140625 229.581298828125 250.28245544433594 274.096923828125 182.61361694335938 275.842529296875 C 183.64303588867188 287.36126708984375 122.62655639648438 289.0958251953125 150.28770446777344 247.47988891601562 C 153.4888153076172 243.71487426757812 167.3120880126953 259.5744934082031 148.97117614746094 197.97047424316406 C 203.1759033203125 106.14095306396484 210.34654235839844 204.85337829589844 223.76393127441406 277.4669494628906" stroke-width="0.0" fill="rgb(0, 0, 37)" opacity="0.9995008" stroke="rgb(0, 0, 0)" stroke-opacity="1.0" stroke-linecap="round" stroke-linejoin="round"/>
    <path d="M 458.03570556640625 386.1238708496094 C 461.1156311035156 408.91546630859375 456.0097351074219 413.333251953125 472.6965637207031 416.644287109375 C 456.934326171875 431.0658264160156 407.3414306640625 447.328857421875 393.20172119140625 430.3688659667969 C 419.6506652832031 363.43975830078125 434.6361999511719 358.79742431640625 437.61767578125 365.90411376953125 C 462.9443664550781 378.8624267578125 444.84246826171875 393.44964599609375 458.03570556640625 386.1238708496094" stroke-width="0.0" fill="rgb(232, 138, 54)" opacity="0.6896484" stroke="rgb(0, 0, 0)" stroke-opacity="1.0" stroke-linecap="round" stroke-linejoin="round"/>
    <path d="M 312.00799560546875 355.4235534667969 C 277.72052001953125 393.1321716308594 243.4862060546875 400.7730712890625 259.3296813964844 388.69744873046875 C 273.0209045410156 398.8209533691406 183.01055908203125 359.62310791015625 219.62722778320312 359.3952941894531 C 275.63873291015625 366.7386779785156 263.0322265625 357.6957092285156 260.9147033691406 349.409912109375 C 278.9681701660156 362.68890380859375 228.50765991210938 379.9472961425781 312.00799560546875 355.4235534667969" stroke-width="0.0" fill="rgb(255, 255, 0)" opacity="1.0" stroke="rgb(0, 0, 0)" stroke-opacity="1.0" stroke-linecap="round" stroke-linejoin="round"/>
    <path d="M 307.9528503417969 178.1334686279297 C 328.4631652832031 264.9631652832031 283.0749816894531 280.466064453125 248.90548706054688 243.70950317382812 C 279.3256530761719 169.93911743164062 238.3942108154297 163.12013244628906 232.2512969970703 196.24600219726562 C 271.815185546875 171.72410583496094 292.33172607421875 178.43118286132812 317.32318115234375 177.65794372558594 C 352.0968933105469 180.66204833984375 332.9824523925781 160.8528594970703 307.9528503417969 178.1334686279297" stroke-width="0.0" fill="rgb(254, 255, 254)" opacity="1.0" stroke="rgb(0, 0, 0)" stroke-opacity="1.0" stroke-linecap="round" stroke-linejoin="round"/>
    <path d="M 215.88815307617188 83.93611145019531 C 217.5996856689453 82.69393920898438 212.84133911132812 76.43741607666016 227.96412658691406 107.32337188720703 C 241.1600799560547 149.396484375 215.08792114257812 137.95611572265625 217.0181427001953 69.36888885498047 C 165.5735321044922 76.0580062866211 188.58895874023438 60.177001953125 208.0287322998047 0.4799192547798157 C 218.70201110839844 69.09532165527344 211.42413330078125 87.739990234375 215.88815307617188 83.93611145019531" stroke-width="0.0" fill="rgb(171, 153, 24)" opacity="0.52326745" stroke="rgb(0, 0, 0)" stroke-opacity="1.0" stroke-linecap="round" stroke-linejoin="round"/>
    <path d="M 279.2245788574219 225.52420043945312 C 255.96868896484375 228.72256469726562 282.7440490722656 218.1080322265625 266.49462890625 232.66845703125 C 268.15155029296875 261.0107421875 262.5195617675781 292.01678466796875 263.9247131347656 254.27247619628906 C 268.0088806152344 151.66659545898438 249.0180206298828 164.36236572265625 236.01173400878906 201.01828002929688 C 250.45022583007812 266.12652587890625 253.7298126220703 236.46612548828125 279.2245788574219 225.52420043945312" stroke-width="0.0" fill="rgb(254, 255, 139)" opacity="1.0" stroke="rgb(0, 0, 0)" stroke-opacity="1.0" stroke-linecap="round" stroke-linejoin="round"/>
    <path d="M 261.255126953125 35.28455352783203 C 252.6432342529297 193.17864990234375 248.99696350097656 237.18075561523438 153.42977905273438 236.40785217285156 C 151.8717041015625 201.76309204101562 225.32875061035156 225.72030639648438 228.9002227783203 167.85548400878906 C 225.72215270996094 100.37220001220703 231.04222106933594 111.29077911376953 233.97471618652344 107.9928970336914 C 237.65878295898438 98.08967590332031 215.49769592285156 74.39466857910156 261.255126953125 35.28455352783203" stroke-width="0.0" fill="rgb(0, 4, 44)" opacity="1.0" stroke="rgb(0, 0, 0)" stroke-opacity="1.0" stroke-linecap="round" stroke-linejoin="round"/>
    <path d="M 324.7533264160156 357.7129821777344 C 325.2924499511719 379.0611877441406 335.3208923339844 390.1590881347656 317.451904296875 425.24365234375 C 333.9476623535156 305.6405944824219 318.9222106933594 389.9888610839844 319.81536865234375 359.7066955566406 C 322.8314208984375 318.0918273925781 287.5533752441406 313.1283874511719 318.82733154296875 252.72555541992188 C 373.1050720214844 371.4020690917969 325.432373046875 361.716552734375 324.7533264160156 357.7129821777344" stroke-width="0.0" fill="rgb(243, 251, 89)" opacity="0.9548735" stroke="rgb(0, 0, 0)" stroke-opacity="1.0" stroke-linecap="round" stroke-linejoin="round"/>
    <path d="M 341.5991516113281 230.93731689453125 C 305.7773132324219 251.41912841796875 329.65032958984375 257.0185546875 346.7552795410156 239.2193603515625 C 361.0945129394531 186.1590576171875 266.563720703125 289.9708251953125 284.5478515625 201.28610229492188 C 282.01873779296875 246.0067901611328 279.0318603515625 153.47084045410156 275.7607421875 181.58502197265625 C 325.4251403808594 132.82664489746094 348.8531799316406 197.31068420410156 341.5991516113281 230.93731689453125" stroke-width="0.0" fill="rgb(91, 118, 117)" opacity="1.0" stroke="rgb(0, 0, 0)" stroke-opacity="1.0" stroke-linecap="round" stroke-linejoin="round"/>
    <path d="M 311.2792663574219 405.64813232421875 C 325.41168212890625 415.9612731933594 329.47979736328125 456.3013916015625 336.6800231933594 447.62725830078125 C 328.3363342285156 469.2774353027344 301.78656005859375 456.6861267089844 333.77783203125 426.2161560058594 C 321.3873596191406 384.27960205078125 302.1145324707031 353.5647277832031 331.4910888671875 338.1190490722656 C 315.9136657714844 436.77001953125 301.1593933105469 442.5245361328125 311.2792663574219 405.64813232421875" stroke-width="0.0" fill="rgb(187, 141, 48)" opacity="0.0" stroke="rgb(0, 0, 0)" stroke-opacity="1.0" stroke-linecap="round" stroke-linejoin="round"/>
    <path d="M 302.03497314453125 430.5445556640625 C 336.65203857421875 484.8876037597656 288.3635559082031 469.3311767578125 262.0577392578125 517.6141357421875 C 242.03561401367188 482.83074951171875 191.51089477539062 473.32928466796875 233.59913635253906 463.0140686035156 C 244.041015625 444.8319091796875 240.63983154296875 452.81146240234375 264.40972900390625 451.7292785644531 C 264.8397521972656 377.27398681640625 261.4456481933594 369.6078796386719 302.03497314453125 430.5445556640625" stroke-width="0.0" fill="rgb(252, 225, 6)" opacity="0.99242496" stroke="rgb(0, 0, 0)" stroke-opacity="1.0" stroke-linecap="round" stroke-linejoin="round"/>
    <path d="M 309.3802185058594 272.0135803222656 C 292.2017822265625 273.8880615234375 293.9126281738281 261.89581298828125 321.27288818359375 303.9443054199219 C 301.4053039550781 338.6805419921875 340.3006896972656 324.1536560058594 324.42266845703125 306.5990905761719 C 302.8927307128906 325.2326354980469 306.4394836425781 293.76641845703125 318.5881042480469 249.5319366455078 C 278.3053283691406 237.84266662597656 295.14691162109375 302.37445068359375 309.3802185058594 272.0135803222656" stroke-width="0.0" fill="rgb(255, 255, 58)" opacity="1.0" stroke="rgb(0, 0, 0)" stroke-opacity="1.0" stroke-linecap="round" stroke-linejoin="round"/>
    <path d="M 209.336181640625 439.33221435546875 C 216.55319213867188 531.064453125 215.23890686035156 547.5435180664062 195.5631561279297 534.5657348632812 C 186.392333984375 486.4560546875 178.20375061035156 477.3225402832031 193.6147003173828 480.8145751953125 C 208.92752075195312 488.7852783203125 205.0200653076172 476.3953552246094 210.79495239257812 451.4874572753906 C 199.61915588378906 478.2664489746094 222.74456787109375 454.52581787109375 209.336181640625 439.33221435546875" stroke-width="0.0" fill="rgb(255, 168, 0)" opacity="0.8516727" stroke="rgb(0, 0, 0)" stroke-opacity="1.0" stroke-linecap="round" stroke-linejoin="round"/>
    <path d="M 231.8815460205078 411.9332580566406 C 276.793701171875 392.47900390625 238.0024871826172 379.5912780761719 214.10606384277344 403.8937072753906 C 239.2179718017578 460.1858825683594 267.6702880859375 431.29180908203125 246.15426635742188 407.7141418457031 C 252.20388793945312 305.4552307128906 259.7198181152344 248.83248901367188 277.0308532714844 374.1352844238281 C 267.4162292480469 380.2462463378906 255.29904174804688 387.6692199707031 231.8815460205078 411.9332580566406" stroke-width="0.0" fill="rgb(255, 254, 15)" opacity="0.9617625" stroke="rgb(0, 0, 0)" stroke-opacity="1.0" stroke-linecap="round" stroke-linejoin="round"/>
    <path d="M 367.16961669921875 481.4078063964844 C 361.42852783203125 490.0173645019531 315.5968933105469 479.5034484863281 290.4148864746094 493.9761657714844 C 309.53009033203125 482.0315246582031 304.0611877441406 484.5609436035156 303.9149169921875 469.8818054199219 C 278.70269775390625 406.11846923828125 264.16339111328125 398.0811767578125 312.4250793457031 400.33660888671875 C 315.6405334472656 457.9067077636719 330.5493469238281 466.7163391113281 367.16961669921875 481.4078063964844" stroke-width="0.0" fill="rgb(0, 2, 38)" opacity="1.0" stroke="rgb(0, 0, 0)" stroke-opacity="1.0" stroke-linecap="round" stroke-linejoin="round"/>
    <path d="M 575.1279907226562 74.84852600097656 C 550.1893920898438 139.2459716796875 538.1815185546875 158.62498474121094 524.925537109375 136.339599609375 C 479.8014831542969 100.87194061279297 458.03338623046875 97.77533721923828 452.14788818359375 92.30496978759766 C 493.9272155761719 100.61747741699219 475.63116455078125 99.40840911865234 474.68780517578125 51.2935791015625 C 509.7076416015625 56.20535659790039 555.408447265625 49.944820404052734 575.1279907226562 74.84852600097656" stroke-width="0.0" fill="rgb(212, 101, 26)" opacity="0.8344407" stroke="rgb(0, 0, 0)" stroke-opacity="1.0" stroke-linecap="round" stroke-linejoin="round"/>
    <path d="M 275.3334045410156 179.0483856201172 C 312.2674255371094 175.6936798095703 305.3917236328125 198.3619384765625 268.40240478515625 183.0105743408203 C 224.30921936035156 186.1226043701172 234.70040893554688 213.25177001953125 264.83209228515625 174.02259826660156 C 254.1338348388672 79.2209701538086 289.13623046875 82.97484588623047 287.45611572265625 128.05831909179688 C 287.5438537597656 174.0391387939453 270.47991943359375 194.30105590820312 275.3334045410156 179.0483856201172" stroke-width="0.0" fill="rgb(108, 198, 194)" opacity="0.8302574" stroke="rgb(0, 0, 0)" stroke-opacity="1.0" stroke-linecap="round" stroke-linejoin="round"/>
    <path d="M 269.815185546875 367.82659912109375 C 269.2016906738281 376.4088134765625 242.10728454589844 400.7332763671875 203.5306854248047 450.26068115234375 C 211.65194702148438 421.9787292480469 205.77236938476562 359.75048828125 234.84861755371094 390.71087646484375 C 226.31382751464844 426.5752258300781 237.0946502685547 389.8262634277344 255.84474182128906 375.4842224121094 C 254.4752655029297 373.8227233886719 246.76734924316406 389.3010559082031 269.815185546875 367.82659912109375" stroke-width="0.0" fill="rgb(0, 11, 33)" opacity="0.9964146" stroke="rgb(0, 0, 0)" stroke-opacity="1.0" stroke-linecap="round" stroke-linejoin="round"/>
    <path d="M 210.4172821044922 470.3247985839844 C 232.91635131835938 507.08905029296875 236.33480834960938 490.5104064941406 233.4707489013672 487.1681823730469 C 133.6810760498047 490.4396667480469 131.00428771972656 483.8992919921875 196.39898681640625 461.4304504394531 C 210.1027069091797 418.697998046875 233.04367065429688 411.7965393066406 233.9418487548828 426.848876953125 C 229.99777221679688 415.56854248046875 242.83294677734375 407.7831115722656 210.4172821044922 470.3247985839844" stroke-width="0.0" fill="rgb(0, 9, 49)" opacity="1.0" stroke="rgb(0, 0, 0)" stroke-opacity="1.0" stroke-linecap="round" stroke-linejoin="round"/>
    <path d="M 557.4994506835938 470.3710632324219 C 519.0442504882812 515.8566284179688 510.5816650390625 522.5712280273438 484.6906433105469 532.0502319335938 C 465.0831604003906 531.114013671875 461.5205383300781 525.078125 490.13629150390625 553.3968505859375 C 491.6640930175781 517.6681518554688 498.42529296875 486.3541259765625 491.4063415527344 475.4993591308594 C 510.6705017089844 469.0197448730469 546.2601318359375 468.6980895996094 557.4994506835938 470.3710632324219" stroke-width="0.0" fill="rgb(184, 96, 13)" opacity="0.4819165" stroke="rgb(0, 0, 0)" stroke-opacity="1.0" stroke-linecap="round" stroke-linejoin="round"/>
    <path d="M 326.4053039550781 300.079345703125 C 267.3877868652344 301.5208435058594 241.47048950195312 286.6063232421875 200.84915161132812 305.6393737792969 C 212.0953826904297 300.356201171875 182.0103302001953 277.4317321777344 205.94949340820312 204.37173461914062 C 248.63809204101562 269.00494384765625 206.5145721435547 308.467529296875 196.7230987548828 257.470703125 C 210.47337341308594 309.663330078125 243.5254364013672 318.26092529296875 326.4053039550781 300.079345703125" stroke-width="0.0" fill="rgb(254, 200, 70)" opacity="0.9999056" stroke="rgb(0, 0, 0)" stroke-opacity="1.0" stroke-linecap="round" stroke-linejoin="round"/>
    <path d="M 312.1373596191406 295.73956298828125 C 282.8848571777344 301.548583984375 267.9007263183594 317.4239196777344 264.7938232421875 331.708984375 C 250.54962158203125 310.54547119140625 235.38238525390625 310.2447204589844 234.67037963867188 289.611083984375 C 270.5195617675781 295.94696044921875 259.8741760253906 289.2918701171875 232.4579620361328 251.46282958984375 C 273.1316223144531 267.91632080078125 274.1711120605469 289.5803527832031 312.1373596191406 295.73956298828125" stroke-width="0.0" fill="rgb(136, 152, 115)" opacity="0.6640581" stroke="rgb(0, 0, 0)" stroke-opacity="1.0" stroke-linecap="round" stroke-linejoin="round"/>
    <path d="M 196.625244140625 49.283958435058594 C 212.61196899414062 128.3647003173828 213.17625427246094 143.24826049804688 146.7996063232422 168.1581573486328 C 78.81393432617188 141.12159729003906 100.13448333740234 130.2191162109375 121.4172134399414 91.52334594726562 C 111.97380065917969 67.53726959228516 144.13858032226562 56.09531021118164 147.53192138671875 76.1231460571289 C 150.102294921875 6.9612555503845215 182.52645874023438 36.39200973510742 196.625244140625 49.283958435058594" stroke-width="0.0" fill="rgb(211, 106, 72)" opacity="0.13502051" stroke="rgb(0, 0, 0)" stroke-opacity="1.0" stroke-linecap="round" stroke-linejoin="round"/>
    <path d="M 215.56016540527344 29.077533721923828 C 228.75299072265625 105.76408386230469 222.21311950683594 137.92935180664062 205.16822814941406 105.4434814453125 C 203.72677612304688 64.83120727539062 203.36392211914062 68.17182922363281 202.36985778808594 69.78080749511719 C 196.1887969970703 99.30462646484375 202.36436462402344 69.83868408203125 198.77755737304688 87.64315032958984 C 221.5839385986328 88.04602813720703 192.81573486328125 65.56586456298828 215.56016540527344 29.077533721923828" stroke-width="0.0" fill="rgb(255, 255, 0)" opacity="1.0" stroke="rgb(0, 0, 0)" stroke-opacity="1.0" stroke-linecap="round" stroke-linejoin="round"/>
    <path d="M 249.10011291503906 256.1065979003906 C 224.5067901611328 247.9452362060547 180.05203247070312 219.53329467773438 156.65347290039062 220.0435333251953 C 178.54737854003906 264.3009033203125 175.83242797851562 249.65914916992188 154.08128356933594 245.08470153808594 C 160.8111114501953 217.56446838378906 176.27542114257812 225.38194274902344 192.98204040527344 238.79541015625 C 230.89096069335938 229.9605255126953 208.26329040527344 224.6723175048828 249.10011291503906 256.1065979003906" stroke-width="0.0" fill="rgb(137, 88, 43)" opacity="0.7245422" stroke="rgb(0, 0, 0)" stroke-opacity="1.0" stroke-linecap="round" stroke-linejoin="round"/>
    <path d="M 166.84764099121094 198.45523071289062 C 90.75341796875 206.93035888671875 76.14613342285156 212.23289489746094 80.736083984375 197.69754028320312 C 97.16352081298828 159.33143615722656 78.03279876708984 163.2823944091797 93.9638671875 162.71487426757812 C 127.4379653930664 142.939453125 119.05170440673828 129.4346466064453 126.35041809082031 128.119140625 C 180.28921508789062 131.67503356933594 209.74234008789062 139.02554321289062 166.84764099121094 198.45523071289062" stroke-width="0.0" fill="rgb(199, 116, 53)" opacity="0.005309785" stroke="rgb(0, 0, 0)" stroke-opacity="1.0" stroke-linecap="round" stroke-linejoin="round"/>
    <path d="M 141.42066955566406 118.16645050048828 C 116.18802642822266 156.71343994140625 76.30602264404297 163.09677124023438 29.2501277923584 137.11553955078125 C 49.24246597290039 144.50030517578125 33.05912399291992 130.7420196533203 49.812828063964844 130.03724670410156 C 39.89140319824219 97.42428588867188 48.10728454589844 80.43965148925781 100.54950714111328 82.31607055664062 C 78.93174743652344 83.8958740234375 93.4730224609375 88.62870025634766 141.42066955566406 118.16645050048828" stroke-width="0.0" fill="rgb(247, 138, 41)" opacity="0.06571696" stroke="rgb(0, 0, 0)" stroke-opacity="1.0" stroke-linecap="round" stroke-linejoin="round"/>
    <path d="M 371.4214172363281 393.2472839355469 C 402.9602966308594 425.8975524902344 415.07769775390625 458.59783935546875 361.92327880859375 418.1031188964844 C 343.0646667480469 393.4793701171875 333.19866943359375 386.3257751464844 321.44512939453125 361.5308532714844 C 328.7241516113281 322.5094299316406 333.9622497558594 341.31085205078125 348.5540466308594 372.4690246582031 C 346.0592346191406 356.29681396484375 349.89642333984375 367.65338134765625 371.4214172363281 393.2472839355469" stroke-width="0.0" fill="rgb(243, 241, 9)" opacity="0.9647744" stroke="rgb(0, 0, 0)" stroke-opacity="1.0" stroke-linecap="round" stroke-linejoin="round"/>
    <path d="M 68.49398803710938 463.303955078125 C 73.17039489746094 467.4339904785156 67.8343276977539 462.785888671875 76.1794204711914 468.8639221191406 C 78.60916900634766 445.66998291015625 59.6548957824707 427.87646484375 66.86205291748047 454.5686340332031 C 66.5395736694336 459.02899169921875 80.25668334960938 451.10833740234375 93.68079376220703 435.6669006347656 C 72.66222381591797 429.3674011230469 64.86414337158203 434.15008544921875 68.49398803710938 463.303955078125" stroke-width="0.0" fill="rgb(202, 217, 79)" opacity="0.0" stroke="rgb(0, 0, 0)" stroke-opacity="1.0" stroke-linecap="round" stroke-linejoin="round"/>
    <path d="M 478.2172546386719 495.64990234375 C 465.8453369140625 494.8226623535156 478.2672119140625 521.8604736328125 478.8130798339844 536.800048828125 C 432.5494079589844 532.83544921875 429.38311767578125 498.82635498046875 428.204345703125 485.1309814453125 C 422.26434326171875 480.5284729003906 420.4864196777344 502.398193359375 462.3856201171875 478.72406005859375 C 487.2702331542969 475.8034362792969 485.9889831542969 481.9821472167969 478.2172546386719 495.64990234375" stroke-width="0.0" fill="rgb(223, 92, 88)" opacity="0.0010171048" stroke="rgb(0, 0, 0)" stroke-opacity="1.0" stroke-linecap="round" stroke-linejoin="round"/>
    <path d="M 134.160888671875 6.554166793823242 C 131.114990234375 23.18096923828125 137.44970703125 31.39461898803711 150.75265502929688 31.42380714416504 C 166.3959503173828 32.13713073730469 175.28289794921875 -24.831905364990234 139.5124969482422 -13.200399398803711 C 105.17747497558594 0.5261090993881226 111.37068939208984 -4.654299259185791 93.66454315185547 32.54240798950195 C 133.27345275878906 44.49421310424805 156.05308532714844 40.13103103637695 134.160888671875 6.554166793823242" stroke-width="0.0" fill="rgb(249, 226, 52)" opacity="0.009637468" stroke="rgb(0, 0, 0)" stroke-opacity="1.0" stroke-linecap="round" stroke-linejoin="round"/>
    <path d="M 201.63687133789062 311.95684814453125 C 201.1695556640625 340.3885192871094 207.6530303955078 368.9909362792969 208.04173278808594 367.1668701171875 C 162.17416381835938 364.6871032714844 159.3039093017578 367.8622741699219 147.45651245117188 342.4710388183594 C 162.29173278808594 317.1692810058594 178.5937957763672 313.5429382324219 195.44192504882812 325.29217529296875 C 207.97348022460938 314.93658447265625 215.0564422607422 316.9217224121094 201.63687133789062 311.95684814453125" stroke-width="0.0" fill="rgb(217, 234, 151)" opacity="0.0067149955" stroke="rgb(0, 0, 0)" stroke-opacity="1.0" stroke-linecap="round" stroke-linejoin="round"/>
    <path d="M 31.985334396362305 331.99114990234375 C 46.727291107177734 343.6819152832031 32.36623001098633 358.76055908203125 10.12505054473877 349.5937805175781 C 16.54248046875 336.0928039550781 21.753665924072266 310.8304443359375 11.36352825164795 269.2889709472656 C -29.851316452026367 302.8255615234375 -5.4057936668396 348.62408447265625 7.987938404083252 312.1068420410156 C 3.5866687297821045 342.77264404296875 20.148405075073242 346.253173828125 31.985334396362305 331.99114990234375" stroke-width="0.0" fill="rgb(251, 142, 0)" opacity="0.006819972" stroke="rgb(0, 0, 0)" stroke-opacity="1.0" stroke-linecap="round" stroke-linejoin="round"/>
    <path d="M 431.23272705078125 470.083740234375 C 426.8465881347656 471.3612060546875 412.7425842285156 464.6064758300781 428.9132385253906 448.62994384765625 C 416.55352783203125 435.6096496582031 407.8187255859375 416.3382568359375 385.9490966796875 421.7925720214844 C 375.73480224609375 419.2480773925781 395.525146484375 412.0529479980469 394.229736328125 414.8693542480469 C 395.4840393066406 432.363525390625 412.99993896484375 433.3880310058594 431.23272705078125 470.083740234375" stroke-width="0.0" fill="rgb(183, 244, 104)" opacity="0.64345" stroke="rgb(0, 0, 0)" stroke-opacity="1.0" stroke-linecap="round" stroke-linejoin="round"/>
    <path d="M 131.74916076660156 364.0209045410156 C 123.46601867675781 343.82208251953125 109.91992950439453 350.1371154785156 107.07351684570312 370.52728271484375 C 122.39144134521484 368.6581726074219 105.94227600097656 346.1168518066406 91.1538314819336 358.9101257324219 C 116.16751098632812 344.8543701171875 141.0424041748047 334.40362548828125 128.4685821533203 310.853515625 C 103.44669342041016 318.8206787109375 118.05955505371094 328.4725341796875 131.74916076660156 364.0209045410156" stroke-width="0.0" fill="rgb(185, 194, 81)" opacity="0.04007025" stroke="rgb(0, 0, 0)" stroke-opacity="1.0" stroke-linecap="round" stroke-linejoin="round"/>
    <path d="M 56.84120178222656 183.10577392578125 C 48.07293701171875 218.69427490234375 63.872779846191406 257.83111572265625 -19.894397735595703 239.4005126953125 C -4.525469779968262 154.82125854492188 49.6978874206543 175.9788055419922 20.68265724182129 222.93862915039062 C 13.660833358764648 188.1404266357422 26.566848754882812 194.0346221923828 -1.1878818273544312 172.0904541015625 C 32.21738052368164 175.60963439941406 63.71280288696289 188.78208923339844 56.84120178222656 183.10577392578125" stroke-width="0.0" fill="rgb(249, 178, 0)" opacity="0.13627803" stroke="rgb(0, 0, 0)" stroke-opacity="1.0" stroke-linecap="round" stroke-linejoin="round"/>
    <path d="M 122.6158218383789 339.8188781738281 C 104.66828918457031 337.5982666015625 106.9491195678711 346.3534851074219 115.64713287353516 327.62451171875 C 123.444091796875 340.6767883300781 117.45742797851562 326.8512878417969 99.62461853027344 327.05377197265625 C 115.45059967041016 333.0339660644531 108.69082641601562 318.2503662109375 90.30768585205078 328.74383544921875 C 113.9244384765625 307.35821533203125 122.18783569335938 329.3770751953125 122.6158218383789 339.8188781738281" stroke-width="0.0" fill="rgb(194, 200, 28)" opacity="0.0" stroke="rgb(0, 0, 0)" stroke-opacity="1.0" stroke-linecap="round" stroke-linejoin="round"/>
    <path d="M 32.25770568847656 148.19664001464844 C 69.13323211669922 99.60073852539062 37.239437103271484 131.29336547851562 -2.477344274520874 108.61599731445312 C 4.965555667877197 102.82064056396484 -19.754852294921875 120.07840728759766 -26.433761596679688 87.5787582397461 C -29.265090942382812 31.801374435424805 14.304190635681152 17.656015396118164 9.08611011505127 20.458267211914062 C 14.67125129699707 85.74542999267578 3.556367874145508 135.97760009765625 32.25770568847656 148.19664001464844" stroke-width="0.0" fill="rgb(231, 167, 0)" opacity="0.030452374" stroke="rgb(0, 0, 0)" stroke-opacity="1.0" stroke-linecap="round" stroke-linejoin="round"/>
    <path d="M 142.9307098388672 205.0994415283203 C 165.3509521484375 215.49192810058594 162.8422393798828 195.83201599121094 168.26197814941406 194.55340576171875 C 114.08491516113281 207.02841186523438 123.74623107910156 198.76341247558594 118.8129653930664 178.08509826660156 C 123.1717529296875 182.6318359375 146.2761688232422 176.59066772460938 166.2521209716797 159.95184326171875 C 134.8809814453125 155.63595581054688 143.39796447753906 192.03363037109375 142.9307098388672 205.0994415283203" stroke-width="0.0" fill="rgb(206, 175, 61)" opacity="0.0" stroke="rgb(0, 0, 0)" stroke-opacity="1.0" stroke-linecap="round" stroke-linejoin="round"/>
    <path d="M 228.52513122558594 365.49652099609375 C 213.2748260498047 384.16705322265625 180.10369873046875 382.4787292480469 171.8080291748047 412.4898986816406 C 177.3168487548828 369.4679260253906 195.26165771484375 376.3240051269531 202.99493408203125 435.1537170410156 C 179.68408203125 432.9264221191406 184.0653839111328 395.6596984863281 189.57704162597656 384.4555969238281 C 176.4307403564453 366.15802001953125 216.18609619140625 366.6687927246094 228.52513122558594 365.49652099609375" stroke-width="0.0" fill="rgb(137, 57, 215)" opacity="0.00031055784" stroke="rgb(0, 0, 0)" stroke-opacity="1.0" stroke-linecap="round" stroke-linejoin="round"/>
    <path d="M 71.61235046386719 30.724273681640625 C 81.68942260742188 23.77210807800293 44.28317642211914 37.07835388183594 33.29553985595703 47.06333541870117 C 37.316802978515625 59.87409210205078 25.002351760864258 50.56535339355469 32.497840881347656 58.615028381347656 C 49.387725830078125 71.73636627197266 69.0260009765625 47.943424224853516 57.743953704833984 61.45697021484375 C 52.63740921020508 18.179214477539062 41.054141998291016 24.513111114501953 71.61235046386719 30.724273681640625" stroke-width="0.0" fill="rgb(249, 176, 26)" opacity="0.0" stroke="rgb(0, 0, 0)" stroke-opacity="1.0" stroke-linecap="round" stroke-linejoin="round"/>
    <path d="M 104.74568176269531 194.56906127929688 C 103.92912292480469 237.1009979248047 80.14714050292969 226.5519256591797 63.43163299560547 194.9036865234375 C 24.454586029052734 198.83450317382812 27.762943267822266 198.44586181640625 2.259594202041626 181.43296813964844 C -7.212343215942383 182.11593627929688 5.686613082885742 183.9217071533203 47.34132385253906 181.45579528808594 C 75.92607116699219 156.75286865234375 94.14424133300781 141.7788848876953 104.74568176269531 194.56906127929688" stroke-width="0.0" fill="rgb(244, 148, 10)" opacity="0.73641604" stroke="rgb(0, 0, 0)" stroke-opacity="1.0" stroke-linecap="round" stroke-linejoin="round"/>
    <path d="M 317.6264343261719 357.6699523925781 C 329.50238037109375 331.2426452636719 332.7109069824219 346.6526184082031 299.6565246582031 359.85076904296875 C 328.8357849121094 355.4009704589844 331.3402099609375 392.2065734863281 331.20208740234375 349.77447509765625 C 310.3844299316406 315.9455261230469 308.2310791015625 294.6424865722656 314.23687744140625 300.36102294921875 C 314.79949951171875 316.5419006347656 320.13983154296875 325.0633239746094 317.6264343261719 357.6699523925781" stroke-width="0.0" fill="rgb(238, 224, 1)" opacity="0.8654529" stroke="rgb(0, 0, 0)" stroke-opacity="1.0" stroke-linecap="round" stroke-linejoin="round"/>
    <path d="M 397.14898681640625 444.5093688964844 C 387.5332946777344 449.1805114746094 357.4512939453125 436.16778564453125 373.11749267578125 445.55023193359375 C 363.3663024902344 434.4720153808594 348.85345458984375 417.7655944824219 358.97332763671875 436.71270751953125 C 355.6802673339844 418.0562744140625 370.57183837890625 424.1385803222656 352.7935791015625 436.1569519042969 C 349.50677490234375 431.22308349609375 368.3988342285156 431.08758544921875 397.14898681640625 444.5093688964844" stroke-width="0.0" fill="rgb(74, 189, 7)" opacity="0.0024805905" stroke="rgb(0, 0, 0)" stroke-opacity="1.0" stroke-linecap="round" stroke-linejoin="round"/>
    <path d="M 365.93157958984375 423.6186828613281 C 336.94512939453125 424.726806640625 349.2513427734375 438.6172180175781 331.95172119140625 427.8579406738281 C 306.8621520996094 428.90875244140625 297.5902099609375 429.88153076171875 274.97955322265625 421.360595703125 C 289.95703125 410.64678955078125 320.3060302734375 415.05035400390625 358.5650634765625 415.587158203125 C 371.0311584472656 410.7108459472656 378.6141357421875 430.17645263671875 365.93157958984375 423.6186828613281" stroke-width="0.0" fill="rgb(22, 127, 12)" opacity="0.0031064728" stroke="rgb(0, 0, 0)" stroke-opacity="1.0" stroke-linecap="round" stroke-linejoin="round"/>
    <path d="M 519.1895751953125 224.439208984375 C 487.8386535644531 259.400390625 515.977783203125 228.3906707763672 527.4847412109375 246.21304321289062 C 484.9308166503906 267.1603088378906 481.8428039550781 267.1448974609375 502.3651428222656 239.47412109375 C 502.2347106933594 268.516357421875 526.1848754882812 237.48326110839844 505.160888671875 209.5832061767578 C 470.90264892578125 243.70252990722656 482.7882080078125 210.2597198486328 519.1895751953125 224.439208984375" stroke-width="0.0" fill="rgb(199, 113, 103)" opacity="0.036370046" stroke="rgb(0, 0, 0)" stroke-opacity="1.0" stroke-linecap="round" stroke-linejoin="round"/>
    <path d="M 418.0345764160156 163.9521484375 C 453.55242919921875 158.67172241210938 447.44525146484375 157.3159942626953 429.9903869628906 159.7479248046875 C 403.4171142578125 178.70094299316406 419.8440856933594 192.0191192626953 418.8823547363281 179.70974731445312 C 411.2073059082031 138.16348266601562 425.8524169921875 119.02119445800781 392.9195251464844 128.06503295898438 C 399.34161376953125 142.19204711914062 422.72015380859375 170.56309509277344 418.0345764160156 163.9521484375" stroke-width="0.0" fill="rgb(212, 153, 84)" opacity="0.015285665" stroke="rgb(0, 0, 0)" stroke-opacity="1.0" stroke-linecap="round" stroke-linejoin="round"/>
    <path d="M 414.024658203125 265.7687072753906 C 375.4482421875 301.9228515625 407.3993835449219 318.2135925292969 414.03271484375 299.3666076660156 C 395.5179443359375 298.5118408203125 403.82562255859375 293.71136474609375 402.52349853515625 344.9544982910156 C 436.7826843261719 315.3580017089844 402.56610107421875 277.8541259765625 422.6030578613281 297.056884765625 C 437.4397277832031 286.77423095703125 422.7824401855469 320.966552734375 414.024658203125 265.7687072753906" stroke-width="0.0" fill="rgb(207, 134, 82)" opacity="0.0" stroke="rgb(0, 0, 0)" stroke-opacity="1.0" stroke-linecap="round" stroke-linejoin="round"/>
    <path d="M 393.2256164550781 60.489593505859375 C 422.45904541015625 82.43804168701172 415.6506652832031 87.07553100585938 391.2518310546875 78.98755645751953 C 378.8043212890625 70.65823364257812 396.26995849609375 58.41619110107422 404.8182373046875 69.35794830322266 C 371.3250427246094 68.29507446289062 400.5787048339844 59.618228912353516 410.26263427734375 59.92729568481445 C 421.4136657714844 53.133968353271484 418.5966796875 42.50971984863281 393.2256164550781 60.489593505859375" stroke-width="0.0" fill="rgb(122, 194, 47)" opacity="0.0" stroke="rgb(0, 0, 0)" stroke-opacity="1.0" stroke-linecap="round" stroke-linejoin="round"/>
    <path d="M 433.89202880859375 458.6858215332031 C 384.8274230957031 484.5101013183594 391.18914794921875 466.9693908691406 384.0777587890625 440.10791015625 C 396.07342529296875 457.88970947265625 401.7007751464844 440.2706604003906 383.4217834472656 427.7223815917969 C 374.811279296875 431.6170959472656 391.0354919433594 449.3499450683594 393.3818359375 471.3240661621094 C 367.19244384765625 464.6044006347656 395.9907531738281 455.9241638183594 433.89202880859375 458.6858215332031" stroke-width="0.0" fill="rgb(97, 141, 5)" opacity="0.010964882" stroke="rgb(0, 0, 0)" stroke-opacity="1.0" stroke-linecap="round" stroke-linejoin="round"/>
    <path d="M 49.82988357543945 97.67085266113281 C 65.5885009765625 108.20301818847656 31.30476188659668 114.71964263916016 25.977487564086914 101.36397552490234 C -3.288057327270508 99.42962646484375 -14.5554780960083 102.89956665039062 -16.293663024902344 59.66276931762695 C -3.9627740383148193 51.95618438720703 16.43153190612793 43.2417106628418 55.194480895996094 67.22937774658203 C 74.36105346679688 69.6663589477539 66.89749145507812 98.1409683227539 49.82988357543945 97.67085266113281" stroke-width="0.0" fill="rgb(252, 170, 12)" opacity="0.059162747" stroke="rgb(0, 0, 0)" stroke-opacity="1.0" stroke-linecap="round" stroke-linejoin="round"/>
    <path d="M 210.83621215820312 396.2918395996094 C 210.43917846679688 425.5382995605469 178.77529907226562 440.9610900878906 196.2536163330078 436.9258728027344 C 181.1812286376953 423.93359375 171.26145935058594 414.5852355957031 163.5523681640625 412.9486999511719 C 154.16098022460938 400.4852600097656 166.52488708496094 399.07781982421875 175.0716094970703 393.58819580078125 C 214.3326873779297 390.9866638183594 215.59579467773438 400.6824035644531 210.83621215820312 396.2918395996094" stroke-width="0.0" fill="rgb(226, 205, 92)" opacity="0.038538113" stroke="rgb(0, 0, 0)" stroke-opacity="1.0" stroke-linecap="round" stroke-linejoin="round"/>
    <path d="M 348.46563720703125 162.5984649658203 C 337.0132141113281 141.0777587890625 295.1843566894531 164.3828887939453 326.98040771484375 165.65509033203125 C 347.0107727050781 130.3573455810547 339.72137451171875 115.08129119873047 295.4133605957031 160.82333374023438 C 255.63429260253906 194.25367736816406 278.6637268066406 162.73268127441406 299.6545104980469 100.81929016113281 C 290.3844299316406 179.97117614746094 291.7665100097656 213.00050354003906 348.46563720703125 162.5984649658203" stroke-width="0.0" fill="rgb(127, 108, 165)" opacity="0.20426506" stroke="rgb(0, 0, 0)" stroke-opacity="1.0" stroke-linecap="round" stroke-linejoin="round"/>
  </g>
</svg>
