<?xml version="1.0" ?>
<svg xmlns="http://www.w3.org/2000/svg" version="1.1" width="512" height="512">
  <defs/>
  <g>
    <path d="M 574.0278930664062 382.2940368652344 C 547.165283203125 516.641845703125 548.8319091796875 525.4011840820312 423.94183349609375 530.8886108398438 C 343.69635009765625 535.3355712890625 282.85906982421875 518.4451293945312 327.9104919433594 458.7375183105469 C 240.34095764160156 331.5326232910156 245.73387145996094 288.1254577636719 443.4573669433594 246.77227783203125 C 595.8497924804688 284.2604064941406 591.0620727539062 292.9727478027344 574.0278930664062 382.2940368652344" stroke-width="0.0" fill="rgb(42, 22, 226)" opacity="0.933483" stroke="rgb(0, 0, 0)" stroke-opacity="1.0" stroke-linecap="round" stroke-linejoin="round"/>
    <path d="M 317.2217712402344 363.39697265625 C 367.41571044921875 494.3509826660156 346.8605651855469 544.9966430664062 257.8685607910156 580.6298217773438 C -51.20000076293945 519.133544921875 -51.20000076293945 511.7567443847656 -71.68831634521484 432.06329345703125 C -60.11222457885742 148.1942596435547 -47.68679428100586 171.1922149658203 83.67137908935547 148.6561279296875 C 166.48988342285156 252.97540283203125 219.51104736328125 239.8507537841797 317.2217712402344 363.39697265625" stroke-width="0.0" fill="rgb(0, 41, 230)" opacity="1.0" stroke="rgb(0, 0, 0)" stroke-opacity="1.0" stroke-linecap="round" stroke-linejoin="round"/>
    <path d="M 324.0013427734375 203.26776123046875 C 317.5954284667969 397.2074890136719 300.6124267578125 399.71636962890625 269.01318359375 404.26483154296875 C 115.05931854248047 539.3819580078125 71.33486938476562 442.1647644042969 -12.013072967529297 128.1440887451172 C 51.639251708984375 104.11228942871094 93.26338195800781 115.46842956542969 148.5038299560547 171.99473571777344 C 171.53543090820312 206.12416076660156 189.46182250976562 199.15597534179688 324.0013427734375 203.26776123046875" stroke-width="0.0" fill="rgb(2, 29, 255)" opacity="0.9510157" stroke="rgb(0, 0, 0)" stroke-opacity="1.0" stroke-linecap="round" stroke-linejoin="round"/>
    <path d="M 300.1721496582031 40.56045913696289 C 267.7532043457031 288.142333984375 126.43329620361328 146.71176147460938 47.385841369628906 192.21328735351562 C -36.91352462768555 183.88673400878906 -49.65780258178711 216.9585418701172 -43.968505859375 140.35015869140625 C -16.39366340637207 -18.030452728271484 -10.150599479675293 -23.750812530517578 38.113529205322266 -19.97760009765625 C 209.50164794921875 -35.1251220703125 235.8815460205078 -48.54014205932617 300.1721496582031 40.56045913696289" stroke-width="0.0" fill="rgb(143, 41, 201)" opacity="0.87318546" stroke="rgb(0, 0, 0)" stroke-opacity="1.0" stroke-linecap="round" stroke-linejoin="round"/>
    <path d="M 478.5026550292969 71.30518341064453 C 405.6937255859375 262.9516296386719 389.24017333984375 238.3567352294922 361.4453125 326.1711120605469 C 282.88623046875 290.99871826171875 278.42010498046875 309.9136047363281 254.96189880371094 151.71775817871094 C 213.14654541015625 57.3306999206543 193.1184539794922 16.879135131835938 363.8033752441406 -24.0272159576416 C 557.2984619140625 -14.195710182189941 540.7236328125 11.182246208190918 478.5026550292969 71.30518341064453" stroke-width="0.0" fill="rgb(0, 22, 51)" opacity="1.0" stroke="rgb(0, 0, 0)" stroke-opacity="1.0" stroke-linecap="round" stroke-linejoin="round"/>
    <path d="M 273.169921875 48.837703704833984 C 221.35877990722656 206.6336212158203 402.7076721191406 184.07102966308594 202.62814331054688 296.50567626953125 C 131.36573791503906 163.78195190429688 123.2462387084961 148.9863739013672 103.66561889648438 136.36326599121094 C 86.6093521118164 134.3477020263672 77.16897583007812 91.09180450439453 279.1809387207031 -63.330352783203125 C 391.8466491699219 33.18741989135742 318.0505676269531 -41.009368896484375 273.169921875 48.837703704833984" stroke-width="0.0" fill="rgb(210, 18, 225)" opacity="0.99067074" stroke="rgb(0, 0, 0)" stroke-opacity="1.0" stroke-linecap="round" stroke-linejoin="round"/>
    <path d="M 606.6820678710938 132.97445678710938 C 616.7824096679688 280.87744140625 591.7744140625 316.9991455078125 482.7505798339844 317.9148864746094 C 353.6713562011719 297.2039489746094 366.1510925292969 296.66912841796875 419.4523620605469 204.35430908203125 C 477.419189453125 146.20693969726562 441.4062805175781 70.7014389038086 528.037353515625 1.6199454069137573 C 563.2000122070312 29.02372932434082 563.2000122070312 58.49845886230469 606.6820678710938 132.97445678710938" stroke-width="0.0" fill="rgb(224, 3, 207)" opacity="0.91326433" stroke="rgb(0, 0, 0)" stroke-opacity="1.0" stroke-linecap="round" stroke-linejoin="round"/>
    <path d="M 342.6167907714844 253.17449951171875 C 333.4704895019531 288.1774597167969 304.95489501953125 290.6783447265625 294.2374572753906 298.3544921875 C 302.2929992675781 291.5138854980469 263.280517578125 278.94775390625 181.7476806640625 284.2044677734375 C 277.25714111328125 251.94534301757812 273.6063232421875 238.85238647460938 308.1304931640625 185.52842712402344 C 311.58160400390625 143.67991638183594 315.9993896484375 184.45750427246094 342.6167907714844 253.17449951171875" stroke-width="0.0" fill="rgb(36, 0, 255)" opacity="1.0" stroke="rgb(0, 0, 0)" stroke-opacity="1.0" stroke-linecap="round" stroke-linejoin="round"/>
    <path d="M 460.084716796875 197.2075653076172 C 392.9427490234375 263.165771484375 516.1471557617188 209.16360473632812 348.93450927734375 297.52691650390625 C 319.1812438964844 212.47903442382812 354.1849670410156 229.05670166015625 286.73199462890625 206.0643768310547 C 255.4285125732422 -38.721946716308594 328.234619140625 92.99427795410156 343.3898010253906 144.13427734375 C 386.8844909667969 143.4500274658203 411.4224853515625 168.02206420898438 460.084716796875 197.2075653076172" stroke-width="0.0" fill="rgb(255, 240, 60)" opacity="0.9599666" stroke="rgb(0, 0, 0)" stroke-opacity="1.0" stroke-linecap="round" stroke-linejoin="round"/>
    <path d="M 236.88565063476562 293.8481140136719 C 312.1774597167969 263.06488037109375 248.78431701660156 254.5886993408203 240.04351806640625 368.8739929199219 C 100.05691528320312 417.89691162109375 173.3056640625 300.7141418457031 233.85028076171875 253.0091552734375 C 84.17326354980469 188.66421508789062 0.696861982345581 184.79379272460938 255.9574432373047 201.62619018554688 C 263.51171875 175.79693603515625 256.3450012207031 256.9423828125 236.88565063476562 293.8481140136719" stroke-width="0.0" fill="rgb(3, 7, 255)" opacity="0.6836233" stroke="rgb(0, 0, 0)" stroke-opacity="1.0" stroke-linecap="round" stroke-linejoin="round"/>
    <path d="M 392.19854736328125 230.9874725341797 C 503.1573486328125 200.42408752441406 467.6542053222656 282.6711730957031 386.5323791503906 245.81210327148438 C 353.9129333496094 269.0672607421875 338.7554626464844 331.71307373046875 362.9355163574219 253.46615600585938 C 430.87982177734375 261.6595458984375 403.687744140625 251.36790466308594 411.4796447753906 260.8101501464844 C 415.6701965332031 246.45352172851562 434.7542419433594 299.7332458496094 392.19854736328125 230.9874725341797" stroke-width="0.0" fill="rgb(5, 44, 127)" opacity="0.9951069" stroke="rgb(0, 0, 0)" stroke-opacity="1.0" stroke-linecap="round" stroke-linejoin="round"/>
    <path d="M 352.0007629394531 380.21942138671875 C 155.2813262939453 329.720703125 257.0314636230469 405.6988220214844 164.30096435546875 424.573486328125 C 152.69259643554688 392.8930969238281 155.24945068359375 374.399658203125 153.58836364746094 375.43829345703125 C 193.126220703125 369.5658874511719 182.6253204345703 388.40625 212.5111846923828 385.0188293457031 C 243.89308166503906 354.91064453125 172.5695343017578 369.0484619140625 352.0007629394531 380.21942138671875" stroke-width="0.0" fill="rgb(91, 57, 52)" opacity="0.87082726" stroke="rgb(0, 0, 0)" stroke-opacity="1.0" stroke-linecap="round" stroke-linejoin="round"/>
    <path d="M 580.9015502929688 82.47174835205078 C 564.2703247070312 122.6987533569336 548.0934448242188 117.50904846191406 465.2652587890625 135.18646240234375 C 451.0884704589844 78.88972473144531 460.5184326171875 128.5386962890625 446.3659973144531 46.628814697265625 C 452.24053955078125 -6.179614543914795 376.13934326171875 148.48800659179688 343.2204895019531 -10.3516206741333 C 466.9319763183594 -93.4873275756836 489.24951171875 -55.386817932128906 580.9015502929688 82.47174835205078" stroke-width="0.0" fill="rgb(255, 52, 121)" opacity="1.0" stroke="rgb(0, 0, 0)" stroke-opacity="1.0" stroke-linecap="round" stroke-linejoin="round"/>
    <path d="M 444.639892578125 122.2940673828125 C 536.4009399414062 227.258056640625 515.6791381835938 206.28814697265625 324.6608581542969 172.77020263671875 C 323.3409118652344 81.17398834228516 355.5726318359375 86.51506805419922 400.7013854980469 135.72145080566406 C 407.21990966796875 119.63719940185547 436.2455749511719 86.59535217285156 428.4779968261719 67.64382934570312 C 408.9667663574219 55.2221794128418 432.1560363769531 49.23693084716797 444.639892578125 122.2940673828125" stroke-width="0.0" fill="rgb(234, 174, 0)" opacity="0.91248876" stroke="rgb(0, 0, 0)" stroke-opacity="1.0" stroke-linecap="round" stroke-linejoin="round"/>
    <path d="M 273.04595947265625 283.2661437988281 C 245.43582153320312 324.8882751464844 210.02947998046875 341.9245910644531 272.2314758300781 325.7774658203125 C 224.7755889892578 314.17333984375 186.09446716308594 343.229736328125 125.00218963623047 150.24810791015625 C 124.78157806396484 163.70594787597656 198.71533203125 155.4095001220703 229.9706573486328 207.2976531982422 C 228.1243438720703 185.71884155273438 243.79244995117188 207.45758056640625 273.04595947265625 283.2661437988281" stroke-width="0.0" fill="rgb(239, 230, 0)" opacity="0.98788756" stroke="rgb(0, 0, 0)" stroke-opacity="1.0" stroke-linecap="round" stroke-linejoin="round"/>
    <path d="M 448.1751403808594 409.5517578125 C 476.27130126953125 440.5801696777344 384.3583984375 465.6496887207031 283.6334533691406 407.9372863769531 C 259.8111267089844 257.91583251953125 332.0545349121094 462.3050842285156 379.9018249511719 430.3961486816406 C 355.8856201171875 431.5835266113281 318.7889709472656 496.9820556640625 325.1346130371094 294.4391784667969 C 484.2487487792969 383.2203063964844 395.6076965332031 379.2297058105469 448.1751403808594 409.5517578125" stroke-width="0.0" fill="rgb(18, 25, 8)" opacity="0.9780046" stroke="rgb(0, 0, 0)" stroke-opacity="1.0" stroke-linecap="round" stroke-linejoin="round"/>
    <path d="M 348.7668762207031 106.09825897216797 C 355.5843811035156 121.1731948852539 337.37054443359375 112.48548126220703 359.638671875 109.12126922607422 C 353.6734313964844 112.90901947021484 315.44488525390625 47.95210266113281 272.1220397949219 33.965450286865234 C 216.96090698242188 -15.104071617126465 270.4031982421875 -71.48633575439453 418.8603515625 50.032657623291016 C 356.4126281738281 92.81616973876953 374.9596862792969 114.72714233398438 348.7668762207031 106.09825897216797" stroke-width="0.0" fill="rgb(255, 25, 201)" opacity="0.99474144" stroke="rgb(0, 0, 0)" stroke-opacity="1.0" stroke-linecap="round" stroke-linejoin="round"/>
    <path d="M 386.0187072753906 293.07464599609375 C 195.48207092285156 252.8622589111328 215.66188049316406 389.9586486816406 285.99444580078125 370.6827087402344 C 241.49716186523438 392.1593017578125 299.90020751953125 420.1758728027344 318.60394287109375 391.6930847167969 C 296.96295166015625 360.28900146484375 293.1998291015625 382.5089416503906 293.86767578125 383.8050842285156 C 312.9014587402344 385.7636413574219 357.0054016113281 492.5394592285156 386.0187072753906 293.07464599609375" stroke-width="0.0" fill="rgb(255, 111, 0)" opacity="1.0" stroke="rgb(0, 0, 0)" stroke-opacity="1.0" stroke-linecap="round" stroke-linejoin="round"/>
    <path d="M 371.920166015625 190.44252014160156 C 370.5609130859375 177.22857666015625 338.6030578613281 186.36862182617188 400.8699035644531 203.8098602294922 C 393.1722412109375 201.82925415039062 382.2151184082031 149.9037628173828 313.71868896484375 171.62362670898438 C 339.4567565917969 211.93450927734375 379.50714111328125 192.3427276611328 370.3918762207031 196.6996612548828 C 383.4817199707031 191.26084899902344 376.575927734375 186.48379516601562 371.920166015625 190.44252014160156" stroke-width="0.0" fill="rgb(9, 32, 79)" opacity="0.93949425" stroke="rgb(0, 0, 0)" stroke-opacity="1.0" stroke-linecap="round" stroke-linejoin="round"/>
    <path d="M 173.371826171875 308.2452392578125 C 138.90286254882812 440.47900390625 138.02340698242188 304.5776062011719 136.35064697265625 310.80548095703125 C 113.13319396972656 291.5635070800781 100.54142761230469 265.0396728515625 92.22134399414062 258.6217041015625 C 26.723628997802734 167.6507568359375 51.1881217956543 176.8880157470703 125.164794921875 180.07847595214844 C 139.505126953125 221.19732666015625 85.64952087402344 277.2604064941406 173.371826171875 308.2452392578125" stroke-width="0.0" fill="rgb(30, 12, 255)" opacity="0.6647057" stroke="rgb(0, 0, 0)" stroke-opacity="1.0" stroke-linecap="round" stroke-linejoin="round"/>
    <path d="M 283.8298645019531 185.67483520507812 C 287.4617919921875 209.8746337890625 287.3511047363281 206.6245574951172 278.5084533691406 244.47744750976562 C 233.2991485595703 222.7076416015625 226.94888305664062 189.34161376953125 243.02108764648438 179.8418731689453 C 256.7030944824219 175.5052490234375 238.9312286376953 103.7587890625 243.96640014648438 131.21434020996094 C 247.1063690185547 176.42538452148438 272.0831604003906 177.83946228027344 283.8298645019531 185.67483520507812" stroke-width="0.0" fill="rgb(201, 23, 255)" opacity="0.2535791" stroke="rgb(0, 0, 0)" stroke-opacity="1.0" stroke-linecap="round" stroke-linejoin="round"/>
    <path d="M 146.9861297607422 311.3709716796875 C 113.46633911132812 361.1862487792969 160.31431579589844 373.0875244140625 80.76961517333984 438.6617126464844 C 40.065128326416016 371.07452392578125 21.667098999023438 368.95977783203125 -24.72382164001465 318.9993591308594 C 31.345848083496094 267.5798645019531 46.12336730957031 251.08290100097656 129.55824279785156 204.9904022216797 C 127.45569610595703 275.1973571777344 110.54399108886719 284.7301940917969 146.9861297607422 311.3709716796875" stroke-width="0.0" fill="rgb(0, 51, 208)" opacity="0.5712868" stroke="rgb(0, 0, 0)" stroke-opacity="1.0" stroke-linecap="round" stroke-linejoin="round"/>
    <path d="M 292.10858154296875 257.468505859375 C 279.8653259277344 323.7130432128906 302.9080505371094 315.8560485839844 229.75608825683594 312.6880798339844 C 265.66619873046875 327.89532470703125 266.4245910644531 281.38946533203125 255.6652374267578 225.4829864501953 C 268.1974792480469 240.35089111328125 263.93927001953125 241.2965850830078 278.1725158691406 236.7189483642578 C 289.7822265625 219.72802734375 285.7513427734375 225.0843048095703 292.10858154296875 257.468505859375" stroke-width="0.0" fill="rgb(197, 39, 187)" opacity="0.17912957" stroke="rgb(0, 0, 0)" stroke-opacity="1.0" stroke-linecap="round" stroke-linejoin="round"/>
    <path d="M 304.81591796875 237.7560272216797 C 290.6030578613281 245.22677612304688 289.9435119628906 262.7904052734375 280.3329162597656 266.93792724609375 C 254.0267333984375 251.49462890625 253.40916442871094 237.55221557617188 261.5068054199219 194.11151123046875 C 262.0425109863281 179.31051635742188 233.06988525390625 183.16116333007812 273.75469970703125 181.18479919433594 C 277.4418029785156 195.46180725097656 274.5809326171875 187.83587646484375 304.81591796875 237.7560272216797" stroke-width="0.0" fill="rgb(124, 0, 255)" opacity="0.98975563" stroke="rgb(0, 0, 0)" stroke-opacity="1.0" stroke-linecap="round" stroke-linejoin="round"/>
    <path d="M 312.1680603027344 383.964599609375 C 299.984375 340.35235595703125 303.8884582519531 381.54376220703125 323.1129150390625 398.4338073730469 C 332.7502746582031 397.1186828613281 326.176513671875 417.263427734375 328.7188720703125 418.10052490234375 C 331.1787414550781 427.85968017578125 319.6998291015625 438.4446105957031 312.4869384765625 417.43829345703125 C 321.75714111328125 418.29010009765625 326.1396179199219 419.21142578125 312.1680603027344 383.964599609375" stroke-width="0.0" fill="rgb(177, 149, 62)" opacity="0.72922194" stroke="rgb(0, 0, 0)" stroke-opacity="1.0" stroke-linecap="round" stroke-linejoin="round"/>
    <path d="M 292.7200012207031 197.0645294189453 C 298.56634521484375 187.59893798828125 286.2035827636719 207.98062133789062 291.8717956542969 182.20297241210938 C 332.0724792480469 210.81350708007812 309.1014099121094 224.7126007080078 266.21923828125 209.6446075439453 C 232.49978637695312 194.8328399658203 252.0975799560547 203.666748046875 281.69866943359375 166.94049072265625 C 286.066162109375 171.26332092285156 300.7787170410156 192.0400390625 292.7200012207031 197.0645294189453" stroke-width="0.0" fill="rgb(255, 250, 34)" opacity="1.0" stroke="rgb(0, 0, 0)" stroke-opacity="1.0" stroke-linecap="round" stroke-linejoin="round"/>
    <path d="M 411.7388610839844 268.4788513183594 C 448.3011779785156 260.18548583984375 449.7659606933594 371.0261535644531 383.2123107910156 375.39044189453125 C 314.6333312988281 276.5841064453125 296.7861022949219 287.4676513671875 333.8559875488281 274.5909118652344 C 347.1147155761719 263.0215148925781 340.5869140625 235.48968505859375 333.8816833496094 241.42236328125 C 342.4679870605469 269.6651306152344 356.9225769042969 302.9388122558594 411.7388610839844 268.4788513183594" stroke-width="0.0" fill="rgb(245, 203, 0)" opacity="1.0" stroke="rgb(0, 0, 0)" stroke-opacity="1.0" stroke-linecap="round" stroke-linejoin="round"/>
    <path d="M 295.9551696777344 369.0303649902344 C 285.83026123046875 437.1940612792969 257.0901184082031 414.2195739746094 181.0536346435547 424.0858154296875 C 116.0903091430664 426.94580078125 64.0355224609375 448.9947204589844 15.855192184448242 389.3775329589844 C 101.31649780273438 304.7248840332031 148.5505828857422 351.921630859375 234.990478515625 376.40875244140625 C 251.99447631835938 351.6374206542969 282.26171875 313.90472412109375 295.9551696777344 369.0303649902344" stroke-width="0.0" fill="rgb(255, 141, 0)" opacity="1.0" stroke="rgb(0, 0, 0)" stroke-opacity="1.0" stroke-linecap="round" stroke-linejoin="round"/>
    <path d="M 219.9630584716797 305.2899475097656 C 240.561767578125 306.14434814453125 209.79457092285156 305.22698974609375 201.5011444091797 299.88494873046875 C 173.25062561035156 280.5711975097656 182.97254943847656 285.5300598144531 154.8634796142578 270.5415344238281 C 162.4604034423828 277.6731262207031 158.14564514160156 267.729736328125 164.262939453125 266.5924377441406 C 153.146728515625 294.0242614746094 177.96481323242188 279.82794189453125 219.9630584716797 305.2899475097656" stroke-width="0.0" fill="rgb(220, 109, 137)" opacity="0.0" stroke="rgb(0, 0, 0)" stroke-opacity="1.0" stroke-linecap="round" stroke-linejoin="round"/>
    <path d="M 376.6767272949219 221.35430908203125 C 407.96405029296875 246.7751007080078 443.0816650390625 259.81298828125 391.7663269042969 313.431884765625 C 326.65899658203125 254.2844696044922 304.8131103515625 290.4009704589844 331.6766357421875 280.22088623046875 C 344.5856018066406 222.96054077148438 319.119384765625 241.40133666992188 303.64312744140625 202.2884521484375 C 361.0181579589844 209.21987915039062 372.01788330078125 208.6380157470703 376.6767272949219 221.35430908203125" stroke-width="0.0" fill="rgb(255, 255, 255)" opacity="1.0" stroke="rgb(0, 0, 0)" stroke-opacity="1.0" stroke-linecap="round" stroke-linejoin="round"/>
    <path d="M 159.6858673095703 428.2051696777344 C 169.1017608642578 427.3626403808594 183.0023193359375 415.9996643066406 169.1722412109375 424.8484802246094 C 153.7367706298828 418.52398681640625 155.88442993164062 407.4678039550781 155.49557495117188 413.6888122558594 C 169.14927673339844 374.38311767578125 152.92141723632812 376.4421081542969 172.00067138671875 402.14739990234375 C 151.3073272705078 393.7839050292969 140.18414306640625 421.27764892578125 159.6858673095703 428.2051696777344" stroke-width="0.0" fill="rgb(188, 194, 135)" opacity="0.35551775" stroke="rgb(0, 0, 0)" stroke-opacity="1.0" stroke-linecap="round" stroke-linejoin="round"/>
    <path d="M 342.3031921386719 362.66265869140625 C 346.4493408203125 418.9071960449219 352.2928161621094 431.65106201171875 336.986083984375 421.65948486328125 C 299.8315734863281 429.4374084472656 302.6579895019531 423.864013671875 310.0577087402344 395.8539123535156 C 324.09075927734375 409.2959899902344 320.2342834472656 419.2357177734375 305.0642395019531 351.4546813964844 C 353.1324157714844 323.6739196777344 340.2774963378906 312.07745361328125 342.3031921386719 362.66265869140625" stroke-width="0.0" fill="rgb(9, 26, 28)" opacity="0.9760303" stroke="rgb(0, 0, 0)" stroke-opacity="1.0" stroke-linecap="round" stroke-linejoin="round"/>
    <path d="M 171.9500274658203 453.0173645019531 C 175.32139587402344 443.8609619140625 173.9961395263672 436.905517578125 177.24288940429688 452.439208984375 C 170.26939392089844 453.704833984375 160.69784545898438 442.3414611816406 195.6963348388672 439.8660583496094 C 192.27862548828125 432.525146484375 190.90713500976562 443.2079162597656 184.08450317382812 439.5225830078125 C 154.0516815185547 434.0564880371094 182.95758056640625 414.97735595703125 171.9500274658203 453.0173645019531" stroke-width="0.0" fill="rgb(8, 31, 234)" opacity="0.0028766019" stroke="rgb(0, 0, 0)" stroke-opacity="1.0" stroke-linecap="round" stroke-linejoin="round"/>
    <path d="M 210.06024169921875 429.1606140136719 C 169.62557983398438 430.7052001953125 180.71897888183594 442.03680419921875 249.15499877929688 456.7777099609375 C 177.9394989013672 481.48040771484375 170.97589111328125 455.7703857421875 189.90521240234375 433.4001159667969 C 168.13877868652344 472.3368835449219 197.6220703125 453.6310729980469 224.47091674804688 426.45941162109375 C 176.06480407714844 439.7395935058594 191.66026306152344 444.7701721191406 210.06024169921875 429.1606140136719" stroke-width="0.0" fill="rgb(14, 17, 255)" opacity="0.054233957" stroke="rgb(0, 0, 0)" stroke-opacity="1.0" stroke-linecap="round" stroke-linejoin="round"/>
    <path d="M 255.42489624023438 229.7888946533203 C 202.43846130371094 233.22836303710938 182.1287078857422 230.4013671875 192.55813598632812 238.36903381347656 C 185.87576293945312 252.9828643798828 190.42747497558594 251.90711975097656 187.19126892089844 245.82420349121094 C 183.99559020996094 252.6844024658203 194.7307586669922 253.69683837890625 208.6813201904297 241.87216186523438 C 237.4088134765625 245.42086791992188 246.2170867919922 216.5540008544922 255.42489624023438 229.7888946533203" stroke-width="0.0" fill="rgb(239, 30, 218)" opacity="0.0011326981" stroke="rgb(0, 0, 0)" stroke-opacity="1.0" stroke-linecap="round" stroke-linejoin="round"/>
    <path d="M 295.2060241699219 237.6367950439453 C 304.86004638671875 242.22085571289062 290.29412841796875 259.6452331542969 272.71368408203125 266.8643798828125 C 270.2212829589844 273.4122009277344 263.6852111816406 308.2154846191406 287.2607421875 263.7225341796875 C 234.45115661621094 239.3052215576172 249.522216796875 236.2269287109375 286.2996826171875 239.7328643798828 C 262.9328308105469 249.0789337158203 275.5019226074219 248.52142333984375 295.2060241699219 237.6367950439453" stroke-width="0.0" fill="rgb(148, 4, 242)" opacity="0.0" stroke="rgb(0, 0, 0)" stroke-opacity="1.0" stroke-linecap="round" stroke-linejoin="round"/>
    <path d="M 224.33670043945312 354.5400695800781 C 213.41114807128906 364.65911865234375 223.7916717529297 369.3397521972656 180.72329711914062 388.92669677734375 C 143.55206298828125 366.87799072265625 147.56837463378906 364.3150329589844 161.0749053955078 377.1667785644531 C 189.3262939453125 374.5863952636719 208.2142791748047 369.9881591796875 219.9178009033203 351.03546142578125 C 234.76913452148438 329.7212829589844 226.8136444091797 341.10467529296875 224.33670043945312 354.5400695800781" stroke-width="0.0" fill="rgb(190, 98, 66)" opacity="0.03237716" stroke="rgb(0, 0, 0)" stroke-opacity="1.0" stroke-linecap="round" stroke-linejoin="round"/>
    <path d="M 78.51792907714844 448.131591796875 C 77.34530639648438 453.1098937988281 69.56470489501953 450.5456848144531 59.09226608276367 463.6530456542969 C 65.55868530273438 455.77044677734375 55.36217498779297 450.996826171875 64.20126342773438 450.1470031738281 C 57.26198196411133 462.4860534667969 56.96073913574219 442.39862060546875 52.7816047668457 438.7665710449219 C 62.863304138183594 430.2249755859375 81.65040588378906 435.9486999511719 78.51792907714844 448.131591796875" stroke-width="0.0" fill="rgb(35, 6, 201)" opacity="0.033636384" stroke="rgb(0, 0, 0)" stroke-opacity="1.0" stroke-linecap="round" stroke-linejoin="round"/>
    <path d="M 468.0828552246094 475.936767578125 C 448.8533630371094 463.85577392578125 426.21490478515625 481.8207092285156 443.2633972167969 485.0985412597656 C 443.63079833984375 458.27117919921875 443.71453857421875 446.3968200683594 460.089111328125 453.8614807128906 C 462.64447021484375 426.8523254394531 437.9470520019531 428.68060302734375 446.9813232421875 436.57135009765625 C 477.2853698730469 403.734619140625 466.00054931640625 414.7106628417969 468.0828552246094 475.936767578125" stroke-width="0.0" fill="rgb(72, 51, 237)" opacity="0.020525247" stroke="rgb(0, 0, 0)" stroke-opacity="1.0" stroke-linecap="round" stroke-linejoin="round"/>
    <path d="M 256.8709716796875 53.32771301269531 C 257.3692321777344 100.52742004394531 235.24526977539062 104.3188247680664 195.15966796875 99.07131958007812 C 192.9350128173828 71.49876403808594 211.29774475097656 57.34560012817383 202.11228942871094 75.26305389404297 C 200.70301818847656 73.6859130859375 201.60372924804688 63.266326904296875 222.85421752929688 69.91190338134766 C 232.01171875 17.282638549804688 230.2527618408203 21.478023529052734 256.8709716796875 53.32771301269531" stroke-width="0.0" fill="rgb(247, 43, 189)" opacity="0.12670282" stroke="rgb(0, 0, 0)" stroke-opacity="1.0" stroke-linecap="round" stroke-linejoin="round"/>
    <path d="M 142.83413696289062 162.7839813232422 C 134.9807891845703 212.17605590820312 117.38285064697266 202.4865264892578 115.19285583496094 195.15646362304688 C 102.91759490966797 186.88002014160156 80.97843933105469 162.34962463378906 101.6662368774414 133.736083984375 C 136.69256591796875 137.74053955078125 108.50397491455078 106.5553970336914 94.27788543701172 128.23097229003906 C 152.1832733154297 149.00045776367188 157.47064208984375 146.9143829345703 142.83413696289062 162.7839813232422" stroke-width="0.0" fill="rgb(188, 44, 239)" opacity="0.11675222" stroke="rgb(0, 0, 0)" stroke-opacity="1.0" stroke-linecap="round" stroke-linejoin="round"/>
    <path d="M 110.64154815673828 450.426513671875 C 94.95288848876953 460.32464599609375 74.35665893554688 449.763427734375 49.883792877197266 473.7393798828125 C 88.18215942382812 480.80621337890625 75.3418960571289 491.7895202636719 37.254188537597656 466.2719421386719 C 47.2144775390625 411.6802673339844 35.436058044433594 400.2233581542969 37.02641677856445 449.4676818847656 C 81.31036376953125 448.4941711425781 103.38728332519531 448.58660888671875 110.64154815673828 450.426513671875" stroke-width="0.0" fill="rgb(24, 62, 252)" opacity="0.022759326" stroke="rgb(0, 0, 0)" stroke-opacity="1.0" stroke-linecap="round" stroke-linejoin="round"/>
    <path d="M 476.5904235839844 485.82513427734375 C 482.6758728027344 511.22576904296875 482.8457946777344 526.9833374023438 463.4237976074219 529.8264770507812 C 445.8963623046875 519.5087890625 458.0997619628906 509.3704833984375 452.63592529296875 478.8726501464844 C 457.7228088378906 489.5328369140625 453.848388671875 473.9359130859375 460.80950927734375 447.9755859375 C 481.14605712890625 462.7070617675781 461.6099548339844 502.9247741699219 476.5904235839844 485.82513427734375" stroke-width="0.0" fill="rgb(38, 41, 210)" opacity="0.009808317" stroke="rgb(0, 0, 0)" stroke-opacity="1.0" stroke-linecap="round" stroke-linejoin="round"/>
    <path d="M 208.24847412109375 48.81403732299805 C 150.5915985107422 42.28445816040039 137.577880859375 60.067657470703125 110.21961212158203 63.177040100097656 C 98.57750701904297 68.57144927978516 82.31720733642578 70.10203552246094 93.68587493896484 68.52432250976562 C 53.86868667602539 41.021087646484375 57.85382843017578 -32.672542572021484 67.25081634521484 -22.727216720581055 C 213.48193359375 -21.616212844848633 219.0226287841797 -27.794864654541016 208.24847412109375 48.81403732299805" stroke-width="0.0" fill="rgb(234, 48, 160)" opacity="0.6131998" stroke="rgb(0, 0, 0)" stroke-opacity="1.0" stroke-linecap="round" stroke-linejoin="round"/>
    <path d="M 44.5697135925293 307.3934326171875 C 39.80097198486328 340.293701171875 44.012969970703125 352.1923828125 50.684539794921875 338.8074035644531 C 6.758610248565674 330.3929748535156 -2.7710278034210205 332.9715270996094 -14.027609825134277 317.4363708496094 C -20.503257751464844 251.6553955078125 9.377716064453125 228.14901733398438 63.29639434814453 241.81146240234375 C 32.083805084228516 296.0257568359375 35.90789794921875 262.5818786621094 44.5697135925293 307.3934326171875" stroke-width="0.0" fill="rgb(0, 55, 204)" opacity="0.22051884" stroke="rgb(0, 0, 0)" stroke-opacity="1.0" stroke-linecap="round" stroke-linejoin="round"/>
    <path d="M 406.0881042480469 453.1991271972656 C 395.8269348144531 428.5082702636719 376.9783935546875 432.6241149902344 338.2311706542969 447.20013427734375 C 380.3337707519531 475.4210510253906 398.8253479003906 474.397216796875 433.11920166015625 444.2843017578125 C 395.3959655761719 407.74151611328125 379.9852294921875 410.1402893066406 379.56494140625 450.7641906738281 C 401.7195129394531 446.7962341308594 396.3376159667969 454.82220458984375 406.0881042480469 453.1991271972656" stroke-width="0.0" fill="rgb(0, 15, 52)" opacity="0.0" stroke="rgb(0, 0, 0)" stroke-opacity="1.0" stroke-linecap="round" stroke-linejoin="round"/>
    <path d="M 120.22257995605469 442.99310302734375 C 111.55811309814453 444.2117919921875 116.63758850097656 467.1779479980469 104.8205337524414 441.4376525878906 C 119.6021499633789 447.45989990234375 110.48027038574219 445.9294738769531 100.7414779663086 445.8947448730469 C 81.02111053466797 442.9974670410156 79.987060546875 399.06787109375 105.22184753417969 430.7179260253906 C 112.85885620117188 416.3208312988281 120.67833709716797 438.83526611328125 120.22257995605469 442.99310302734375" stroke-width="0.0" fill="rgb(17, 49, 241)" opacity="0.11938889" stroke="rgb(0, 0, 0)" stroke-opacity="1.0" stroke-linecap="round" stroke-linejoin="round"/>
    <path d="M 258.73870849609375 54.3740348815918 C 268.6726379394531 55.492767333984375 242.52664184570312 65.64661407470703 278.8161315917969 35.1227912902832 C 267.69189453125 39.78681945800781 251.02639770507812 37.68955993652344 205.26063537597656 55.92692184448242 C 219.38174438476562 35.761531829833984 222.01121520996094 29.93385124206543 236.30853271484375 34.43095779418945 C 233.72244262695312 -7.144930362701416 252.94630432128906 30.518648147583008 258.73870849609375 54.3740348815918" stroke-width="0.0" fill="rgb(246, 36, 170)" opacity="0.19282958" stroke="rgb(0, 0, 0)" stroke-opacity="1.0" stroke-linecap="round" stroke-linejoin="round"/>
    <path d="M 127.01948547363281 330.39544677734375 C 118.04186248779297 326.8249816894531 113.59632110595703 350.55523681640625 112.79428100585938 344.4182434082031 C 116.40911102294922 335.6302490234375 94.25634002685547 337.6029968261719 97.19265747070312 347.486328125 C 108.90369415283203 337.5855712890625 105.07713317871094 324.64398193359375 126.55738830566406 328.92645263671875 C 123.83210754394531 312.1706848144531 135.89865112304688 326.3277893066406 127.01948547363281 330.39544677734375" stroke-width="0.0" fill="rgb(27, 37, 180)" opacity="0.009926335" stroke="rgb(0, 0, 0)" stroke-opacity="1.0" stroke-linecap="round" stroke-linejoin="round"/>
    <path d="M 548.7977294921875 204.6448974609375 C 527.199462890625 249.32278442382812 527.710693359375 230.70303344726562 506.5581359863281 201.30784606933594 C 502.67926025390625 243.87033081054688 456.0412292480469 236.55465698242188 451.56451416015625 205.4806671142578 C 514.731689453125 214.01300048828125 504.072265625 204.5716552734375 502.4865417480469 161.5635223388672 C 513.9276123046875 191.6240234375 524.012939453125 189.4341583251953 548.7977294921875 204.6448974609375" stroke-width="0.0" fill="rgb(180, 3, 255)" opacity="0.093941905" stroke="rgb(0, 0, 0)" stroke-opacity="1.0" stroke-linecap="round" stroke-linejoin="round"/>
    <path d="M 498.1109924316406 72.63558197021484 C 511.81048583984375 77.9170913696289 504.3630065917969 87.78828430175781 497.4223327636719 77.94062042236328 C 491.6717224121094 58.350677490234375 478.82818603515625 55.595298767089844 470.4600524902344 73.89772033691406 C 474.057861328125 77.11536407470703 498.3447570800781 73.91277313232422 497.359130859375 62.380741119384766 C 490.88677978515625 59.51263427734375 504.3927001953125 42.040061950683594 498.1109924316406 72.63558197021484" stroke-width="0.0" fill="rgb(45, 3, 145)" opacity="0.042643595" stroke="rgb(0, 0, 0)" stroke-opacity="1.0" stroke-linecap="round" stroke-linejoin="round"/>
    <path d="M 89.91944885253906 248.96905517578125 C 87.30631256103516 227.986083984375 46.928279876708984 209.39862060546875 -2.238811731338501 205.95005798339844 C 8.388015747070312 204.7932891845703 26.61366081237793 192.15328979492188 12.851350784301758 236.97218322753906 C 66.52690887451172 242.52159118652344 70.01551818847656 229.6333770751953 73.32837677001953 188.72723388671875 C 114.22403717041016 199.81350708007812 101.1858901977539 253.55006408691406 89.91944885253906 248.96905517578125" stroke-width="0.0" fill="rgb(56, 17, 148)" opacity="0.15003315" stroke="rgb(0, 0, 0)" stroke-opacity="1.0" stroke-linecap="round" stroke-linejoin="round"/>
    <path d="M 146.4109344482422 343.2861328125 C 104.69242858886719 346.42919921875 130.98077392578125 348.76031494140625 106.83145904541016 343.5409851074219 C 117.38214874267578 350.53057861328125 104.21240997314453 319.62896728515625 96.13890838623047 325.87353515625 C 95.55717468261719 334.383056640625 109.63170623779297 315.3263854980469 112.05941009521484 267.4750671386719 C 186.61952209472656 271.77349853515625 183.1307373046875 291.1380920410156 146.4109344482422 343.2861328125" stroke-width="0.0" fill="rgb(9, 39, 255)" opacity="0.086054325" stroke="rgb(0, 0, 0)" stroke-opacity="1.0" stroke-linecap="round" stroke-linejoin="round"/>
    <path d="M 10.621882438659668 118.45657348632812 C 19.716073989868164 96.52655029296875 23.084728240966797 125.19743347167969 36.74729919433594 162.44161987304688 C 5.099931240081787 175.24420166015625 -32.050376892089844 171.46495056152344 -51.393035888671875 144.16177368164062 C -16.6563663482666 49.58335876464844 4.910319805145264 59.367496490478516 7.808455467224121 72.82563018798828 C 8.970122337341309 93.71964263916016 10.462076187133789 106.05333709716797 10.621882438659668 118.45657348632812" stroke-width="0.0" fill="rgb(50, 124, 171)" opacity="0.11626836" stroke="rgb(0, 0, 0)" stroke-opacity="1.0" stroke-linecap="round" stroke-linejoin="round"/>
    <path d="M 155.45510864257812 195.58328247070312 C 163.72900390625 167.57456970214844 133.98898315429688 169.6939239501953 133.24232482910156 172.21124267578125 C 143.08753967285156 183.18919372558594 142.2410125732422 166.66807556152344 154.66934204101562 167.19723510742188 C 168.14031982421875 127.63236236572266 134.84364318847656 115.42133331298828 100.82015991210938 152.6821746826172 C 152.30430603027344 157.1645050048828 179.3834686279297 188.80894470214844 155.45510864257812 195.58328247070312" stroke-width="0.0" fill="rgb(155, 21, 219)" opacity="0.07371099" stroke="rgb(0, 0, 0)" stroke-opacity="1.0" stroke-linecap="round" stroke-linejoin="round"/>
    <path d="M 223.28289794921875 367.56549072265625 C 228.4338836669922 409.8094177246094 235.40011596679688 410.0296936035156 171.1288604736328 388.95263671875 C 174.67579650878906 421.8752136230469 174.85543823242188 388.6620178222656 195.68951416015625 388.6254577636719 C 202.19004821777344 403.1571044921875 202.53382873535156 388.968994140625 213.01051330566406 369.0151672363281 C 211.7630615234375 354.5610656738281 218.67210388183594 367.7138671875 223.28289794921875 367.56549072265625" stroke-width="0.0" fill="rgb(130, 181, 3)" opacity="0.0" stroke="rgb(0, 0, 0)" stroke-opacity="1.0" stroke-linecap="round" stroke-linejoin="round"/>
    <path d="M 41.24360656738281 184.32177734375 C 45.437255859375 207.19776916503906 39.75536346435547 219.62196350097656 39.54277038574219 234.77867126464844 C -15.786290168762207 239.91622924804688 -12.909402847290039 238.56033325195312 -0.5753152966499329 168.96197509765625 C 10.830440521240234 157.93670654296875 19.023502349853516 179.27691650390625 21.817424774169922 208.5482940673828 C 20.368864059448242 193.7472686767578 29.644184112548828 185.29075622558594 41.24360656738281 184.32177734375" stroke-width="0.0" fill="rgb(21, 69, 196)" opacity="0.18107213" stroke="rgb(0, 0, 0)" stroke-opacity="1.0" stroke-linecap="round" stroke-linejoin="round"/>
    <path d="M 129.09339904785156 70.87789154052734 C 93.61209106445312 65.08130645751953 95.46546936035156 78.33281707763672 89.21466827392578 95.82296752929688 C 71.13300323486328 64.5680923461914 71.5378646850586 65.140625 88.86062622070312 48.12357711791992 C 68.71769714355469 53.69044876098633 90.77510833740234 30.97430992126465 65.28612518310547 42.41292190551758 C 51.916500091552734 77.2049789428711 113.56792449951172 49.49835205078125 129.09339904785156 70.87789154052734" stroke-width="0.0" fill="rgb(174, 41, 206)" opacity="0.15295136" stroke="rgb(0, 0, 0)" stroke-opacity="1.0" stroke-linecap="round" stroke-linejoin="round"/>
    <path d="M 139.9844207763672 187.90756225585938 C 101.53271484375 254.8148651123047 67.52539825439453 236.90426635742188 20.045503616333008 191.67323303222656 C 11.053041458129883 181.9158172607422 6.140970706939697 191.91513061523438 17.64423942565918 157.1804656982422 C 28.962793350219727 167.50140380859375 26.3966064453125 193.44534301757812 13.388829231262207 182.7847900390625 C 54.15512466430664 171.71592712402344 110.42333221435547 156.65643310546875 139.9844207763672 187.90756225585938" stroke-width="0.0" fill="rgb(133, 91, 171)" opacity="0.5637111" stroke="rgb(0, 0, 0)" stroke-opacity="1.0" stroke-linecap="round" stroke-linejoin="round"/>
    <path d="M 308.3839111328125 306.0381774902344 C 305.4944152832031 323.1340637207031 300.0690002441406 332.7187194824219 306.1784362792969 346.5576171875 C 321.46600341796875 339.3074645996094 317.8663635253906 334.48077392578125 306.7173767089844 331.0716857910156 C 301.5846252441406 288.1266174316406 303.0054016113281 290.3360290527344 306.5532531738281 299.9622802734375 C 320.0309753417969 315.55877685546875 323.6011962890625 320.4537658691406 308.3839111328125 306.0381774902344" stroke-width="0.0" fill="rgb(249, 128, 3)" opacity="0.38625398" stroke="rgb(0, 0, 0)" stroke-opacity="1.0" stroke-linecap="round" stroke-linejoin="round"/>
    <path d="M 357.4989013671875 379.43841552734375 C 345.27752685546875 436.4566345214844 329.8748779296875 430.3808288574219 366.78802490234375 436.31671142578125 C 383.06988525390625 434.94757080078125 322.98663330078125 435.5457763671875 322.6775817871094 464.2321472167969 C 301.6131286621094 436.81842041015625 309.69915771484375 420.55615234375 340.272216796875 383.776611328125 C 365.2283935546875 411.95318603515625 350.6297302246094 406.163818359375 357.4989013671875 379.43841552734375" stroke-width="0.0" fill="rgb(14, 16, 174)" opacity="0.03459757" stroke="rgb(0, 0, 0)" stroke-opacity="1.0" stroke-linecap="round" stroke-linejoin="round"/>
    <path d="M 357.6649475097656 438.7044677734375 C 337.2061767578125 443.6678161621094 333.7695007324219 436.545166015625 325.0929260253906 394.4249572753906 C 348.59063720703125 401.7463684082031 325.52392578125 408.2658386230469 325.2699890136719 396.5727233886719 C 298.1648864746094 398.898681640625 314.6568298339844 403.30615234375 339.9101257324219 393.8912353515625 C 356.1546325683594 376.1052551269531 355.33770751953125 390.7723083496094 357.6649475097656 438.7044677734375" stroke-width="0.0" fill="rgb(1, 38, 1)" opacity="0.34206566" stroke="rgb(0, 0, 0)" stroke-opacity="1.0" stroke-linecap="round" stroke-linejoin="round"/>
    <path d="M 549.5578002929688 248.3135528564453 C 551.0118408203125 301.3894348144531 557.9264526367188 324.0621032714844 435.6064147949219 312.7033996582031 C 442.2073669433594 235.97918701171875 473.1089172363281 236.33059692382812 508.3294982910156 233.7947540283203 C 467.01239013671875 256.3774719238281 462.0627136230469 262.04302978515625 480.89044189453125 189.3162384033203 C 524.6594848632812 210.28085327148438 543.1222534179688 215.58749389648438 549.5578002929688 248.3135528564453" stroke-width="0.0" fill="rgb(136, 40, 229)" opacity="0.3653612" stroke="rgb(0, 0, 0)" stroke-opacity="1.0" stroke-linecap="round" stroke-linejoin="round"/>
    <path d="M 457.1098327636719 143.74513244628906 C 448.1911926269531 140.31814575195312 433.60968017578125 149.29905700683594 457.5215759277344 133.7482452392578 C 435.6867370605469 133.0066375732422 426.4420471191406 136.6878204345703 415.0890808105469 134.49761962890625 C 416.93695068359375 151.5583953857422 425.5570983886719 143.49813842773438 430.6280822753906 118.3391342163086 C 452.4078369140625 100.13275146484375 475.8050537109375 127.37505340576172 457.1098327636719 143.74513244628906" stroke-width="0.0" fill="rgb(173, 152, 106)" opacity="0.03605885" stroke="rgb(0, 0, 0)" stroke-opacity="1.0" stroke-linecap="round" stroke-linejoin="round"/>
  </g>
</svg>
