<?xml version="1.0" ?>
<svg xmlns="http://www.w3.org/2000/svg" version="1.1" width="512" height="512">
  <defs/>
  <g>
    <path d="M 584.6549072265625 373.4538269042969 C 547.165283203125 516.641845703125 548.8319091796875 525.4011840820312 405.6773986816406 580.7951049804688 C 338.68218994140625 576.867431640625 266.42755126953125 514.37353515625 333.1693115234375 413.577880859375 C 256.1241149902344 294.8050842285156 253.65219116210938 285.5276184082031 420.7484436035156 268.7763977050781 C 576.8021240234375 311.3398132324219 591.6607666015625 297.33148193359375 584.6549072265625 373.4538269042969" stroke-width="0.0" fill="rgb(104, 35, 254)" opacity="0.82233566" stroke="rgb(0, 0, 0)" stroke-opacity="1.0" stroke-linecap="round" stroke-linejoin="round"/>
    <path d="M 333.7096252441406 353.4188537597656 C 364.2041931152344 502.4290771484375 348.5015563964844 524.1317138671875 251.31399536132812 542.7495727539062 C -51.20000076293945 519.133544921875 -51.20000076293945 511.7567443847656 -22.010204315185547 496.5366516113281 C -3.0507590770721436 219.3731689453125 11.983233451843262 232.3878631591797 87.25814056396484 185.86154174804688 C 146.45506286621094 266.5436096191406 250.6225128173828 211.29502868652344 333.7096252441406 353.4188537597656" stroke-width="0.0" fill="rgb(38, 66, 249)" opacity="0.9202589" stroke="rgb(0, 0, 0)" stroke-opacity="1.0" stroke-linecap="round" stroke-linejoin="round"/>
    <path d="M 296.0318298339844 205.7600860595703 C 297.8313903808594 352.6105651855469 298.6820373535156 332.42510986328125 208.11341857910156 328.79052734375 C 70.46004486083984 480.8362121582031 21.27132225036621 411.97705078125 -59.83612823486328 189.99786376953125 C -26.07355499267578 175.03756713867188 -8.421632766723633 199.5789337158203 105.12348175048828 220.98013305664062 C 158.6519775390625 239.8011932373047 187.2361602783203 230.6404266357422 296.0318298339844 205.7600860595703" stroke-width="0.0" fill="rgb(169, 91, 192)" opacity="0.9963829" stroke="rgb(0, 0, 0)" stroke-opacity="1.0" stroke-linecap="round" stroke-linejoin="round"/>
    <path d="M 278.86785888671875 18.241762161254883 C 252.38706970214844 277.02490234375 120.66236114501953 163.4255828857422 60.53855514526367 249.315185546875 C -70.73165130615234 248.58815002441406 -69.43217468261719 269.78143310546875 -52.43940734863281 186.16671752929688 C -16.39366340637207 -18.030452728271484 -10.150599479675293 -23.750812530517578 39.00362777709961 -20.499774932861328 C 212.37045288085938 -37.97672653198242 239.5008087158203 -52.18661117553711 278.86785888671875 18.241762161254883" stroke-width="0.0" fill="rgb(255, 182, 0)" opacity="0.7655176" stroke="rgb(0, 0, 0)" stroke-opacity="1.0" stroke-linecap="round" stroke-linejoin="round"/>
    <path d="M 490.99383544921875 83.95601654052734 C 407.600341796875 261.11688232421875 379.6219787597656 225.32794189453125 370.70782470703125 336.76019287109375 C 314.2950744628906 258.66131591796875 292.279296875 285.0397033691406 248.34747314453125 161.13531494140625 C 214.4551544189453 65.3933334350586 205.1403350830078 23.48545265197754 378.308349609375 -24.407752990722656 C 558.1058349609375 -16.462297439575195 541.4866943359375 9.21330451965332 490.99383544921875 83.95601654052734" stroke-width="0.0" fill="rgb(0, 0, 50)" opacity="1.0" stroke="rgb(0, 0, 0)" stroke-opacity="1.0" stroke-linecap="round" stroke-linejoin="round"/>
    <path d="M 271.5027770996094 58.37985610961914 C 242.77342224121094 258.07879638671875 373.72015380859375 246.33578491210938 185.7174835205078 330.0210266113281 C 143.9867401123047 157.79673767089844 130.38967895507812 149.472412109375 115.75555419921875 134.5271453857422 C 92.82501983642578 121.47415161132812 91.00850677490234 102.3939437866211 308.90545654296875 -35.82294845581055 C 453.66351318359375 67.6221694946289 395.2005920410156 1.091989517211914 271.5027770996094 58.37985610961914" stroke-width="0.0" fill="rgb(255, 188, 75)" opacity="1.0" stroke="rgb(0, 0, 0)" stroke-opacity="1.0" stroke-linecap="round" stroke-linejoin="round"/>
    <path d="M 556.0657348632812 156.7729034423828 C 581.8016967773438 303.7579650878906 597.3267211914062 301.0482482910156 503.0458068847656 290.84149169921875 C 392.52947998046875 265.5900573730469 379.7283020019531 263.3692626953125 432.0387268066406 188.79489135742188 C 445.3609619140625 118.85636901855469 375.4793395996094 55.55893325805664 462.7661437988281 -38.37671661376953 C 594.5034790039062 -4.134721755981445 592.2247314453125 28.472387313842773 556.0657348632812 156.7729034423828" stroke-width="0.0" fill="rgb(255, 155, 166)" opacity="0.82229763" stroke="rgb(0, 0, 0)" stroke-opacity="1.0" stroke-linecap="round" stroke-linejoin="round"/>
    <path d="M 297.52264404296875 230.98062133789062 C 333.9867858886719 303.8200378417969 322.9961242675781 322.6224670410156 314.1603698730469 288.8857421875 C 311.7624206542969 281.94818115234375 255.1581573486328 289.515625 163.61351013183594 288.6915283203125 C 263.4527587890625 225.83340454101562 272.5979309082031 241.25665283203125 314.76416015625 190.14540100097656 C 313.83245849609375 103.84107971191406 307.4878234863281 160.62283325195312 297.52264404296875 230.98062133789062" stroke-width="0.0" fill="rgb(2, 27, 42)" opacity="0.6539912" stroke="rgb(0, 0, 0)" stroke-opacity="1.0" stroke-linecap="round" stroke-linejoin="round"/>
    <path d="M 433.02105712890625 191.51463317871094 C 364.5392150878906 269.56396484375 484.350341796875 215.11697387695312 341.4971923828125 277.616943359375 C 304.19970703125 232.48345947265625 314.4815368652344 265.7901306152344 293.9395446777344 234.13082885742188 C 250.51731872558594 -30.647048950195312 343.12237548828125 76.3862075805664 322.55859375 107.26374053955078 C 378.7012634277344 135.62933349609375 408.1588134765625 169.98471069335938 433.02105712890625 191.51463317871094" stroke-width="0.0" fill="rgb(10, 158, 83)" opacity="0.20173469" stroke="rgb(0, 0, 0)" stroke-opacity="1.0" stroke-linecap="round" stroke-linejoin="round"/>
    <path d="M 236.556640625 265.968994140625 C 349.2198486328125 263.75360107421875 272.5910949707031 272.5704650878906 258.5177307128906 346.9713134765625 C 110.24235534667969 358.38775634765625 170.210205078125 239.63998413085938 189.21885681152344 269.3456115722656 C 77.67778778076172 223.81578063964844 12.228414535522461 208.91854858398438 220.74105834960938 206.69056701660156 C 240.01837158203125 198.3175811767578 244.988037109375 265.3716735839844 236.556640625 265.968994140625" stroke-width="0.0" fill="rgb(0, 96, 73)" opacity="0.95040864" stroke="rgb(0, 0, 0)" stroke-opacity="1.0" stroke-linecap="round" stroke-linejoin="round"/>
    <path d="M 388.0369873046875 256.11865234375 C 458.0965881347656 223.2717742919922 423.4275207519531 278.68804931640625 375.0230407714844 264.1123962402344 C 357.3296813964844 272.0333557128906 321.6108703613281 317.9288024902344 369.3625183105469 249.86441040039062 C 442.47235107421875 245.72769165039062 397.2735900878906 257.5936584472656 397.23101806640625 259.0102233886719 C 389.5813903808594 216.7601776123047 441.6549377441406 253.99400329589844 388.0369873046875 256.11865234375" stroke-width="0.0" fill="rgb(62, 12, 156)" opacity="0.8734562" stroke="rgb(0, 0, 0)" stroke-opacity="1.0" stroke-linecap="round" stroke-linejoin="round"/>
    <path d="M 346.0035400390625 430.7732849121094 C 139.99795532226562 302.19012451171875 240.48764038085938 397.6010437011719 162.56832885742188 411.0207214355469 C 183.34095764160156 412.1304626464844 170.6403045654297 400.1812438964844 161.5388641357422 366.5628356933594 C 172.32554626464844 423.4725036621094 188.30726623535156 442.9554138183594 193.4465789794922 382.4563293457031 C 197.3325958251953 398.957275390625 122.40896606445312 451.66387939453125 346.0035400390625 430.7732849121094" stroke-width="0.0" fill="rgb(50, 93, 19)" opacity="0.82331634" stroke="rgb(0, 0, 0)" stroke-opacity="1.0" stroke-linecap="round" stroke-linejoin="round"/>
    <path d="M 573.5763549804688 75.57796478271484 C 550.5755004882812 111.43484497070312 538.2217407226562 109.27578735351562 449.2471618652344 171.23240661621094 C 435.6659851074219 97.00917053222656 441.5794677734375 157.45555114746094 431.33782958984375 71.0062484741211 C 409.49224853515625 0.5300482511520386 295.2069091796875 140.01730346679688 329.9208679199219 -21.93429183959961 C 529.0829467773438 -34.93727493286133 539.5521850585938 -4.501864433288574 573.5763549804688 75.57796478271484" stroke-width="0.0" fill="rgb(255, 226, 52)" opacity="1.0" stroke="rgb(0, 0, 0)" stroke-opacity="1.0" stroke-linecap="round" stroke-linejoin="round"/>
    <path d="M 394.6417541503906 137.33740234375 C 420.1427917480469 198.97177124023438 418.50762939453125 168.7843475341797 364.2383728027344 146.42584228515625 C 381.3257141113281 170.27308654785156 400.33148193359375 118.18853759765625 398.2669982910156 121.45722198486328 C 390.06298828125 121.93673706054688 398.064697265625 101.04083251953125 398.32684326171875 119.86261749267578 C 390.00567626953125 119.26321411132812 400.9554138183594 114.74713134765625 394.6417541503906 137.33740234375" stroke-width="0.0" fill="rgb(184, 147, 55)" opacity="0.49145558" stroke="rgb(0, 0, 0)" stroke-opacity="1.0" stroke-linecap="round" stroke-linejoin="round"/>
    <path d="M 228.042724609375 243.72279357910156 C 199.89300537109375 258.470458984375 170.46156311035156 257.3736877441406 203.5491943359375 283.8706359863281 C 161.34628295898438 289.0588684082031 110.56221008300781 360.8972473144531 66.04876708984375 227.2655792236328 C 59.38947677612305 197.8486328125 94.22408294677734 203.14682006835938 203.82005310058594 199.79605102539062 C 249.77098083496094 211.22390747070312 249.0413360595703 256.6896667480469 228.042724609375 243.72279357910156" stroke-width="0.0" fill="rgb(215, 147, 218)" opacity="0.75447106" stroke="rgb(0, 0, 0)" stroke-opacity="1.0" stroke-linecap="round" stroke-linejoin="round"/>
    <path d="M 337.6093444824219 458.08148193359375 C 369.0328369140625 462.68017578125 332.8302917480469 500.77093505859375 290.7275390625 421.5867004394531 C 273.5794982910156 234.67921447753906 333.57965087890625 472.5801086425781 390.9801940917969 439.25372314453125 C 368.1451416015625 411.6044616699219 329.21600341796875 476.1334533691406 318.9106140136719 354.9095458984375 C 401.1046142578125 450.44061279296875 343.8597412109375 400.6217956542969 337.6093444824219 458.08148193359375" stroke-width="0.0" fill="rgb(0, 12, 134)" opacity="0.9704058" stroke="rgb(0, 0, 0)" stroke-opacity="1.0" stroke-linecap="round" stroke-linejoin="round"/>
    <path d="M 357.495849609375 110.94094848632812 C 339.4197082519531 110.49554443359375 353.1675720214844 111.60603332519531 330.2991943359375 109.07455444335938 C 325.3199768066406 124.53569030761719 303.7237243652344 59.094722747802734 250.15232849121094 59.68926239013672 C 251.38624572753906 -19.756629943847656 300.186279296875 -80.831787109375 427.8539733886719 47.889705657958984 C 357.9926452636719 85.82671356201172 385.4993896484375 117.57866668701172 357.495849609375 110.94094848632812" stroke-width="0.0" fill="rgb(255, 236, 55)" opacity="1.0" stroke="rgb(0, 0, 0)" stroke-opacity="1.0" stroke-linecap="round" stroke-linejoin="round"/>
    <path d="M 359.3727722167969 290.74993896484375 C 152.17701721191406 245.7557373046875 143.6513214111328 377.75 273.02874755859375 395.51165771484375 C 306.4518737792969 366.8429260253906 355.09368896484375 376.2862548828125 290.87933349609375 349.9520263671875 C 300.8309631347656 355.3742370605469 312.060791015625 368.15423583984375 293.6688537597656 358.05975341796875 C 324.92034912109375 393.9489440917969 332.41650390625 505.2671203613281 359.3727722167969 290.74993896484375" stroke-width="0.0" fill="rgb(0, 0, 34)" opacity="1.0" stroke="rgb(0, 0, 0)" stroke-opacity="1.0" stroke-linecap="round" stroke-linejoin="round"/>
    <path d="M 395.2600402832031 187.02549743652344 C 325.3907165527344 171.99078369140625 304.40606689453125 174.2122039794922 399.8980712890625 188.87283325195312 C 407.5903015136719 199.45669555664062 381.854248046875 183.00631713867188 371.9427490234375 210.6218719482422 C 360.910888671875 192.31837463378906 384.6583251953125 200.73513793945312 342.36431884765625 212.8784942626953 C 376.4005432128906 183.1699981689453 405.46112060546875 170.71725463867188 395.2600402832031 187.02549743652344" stroke-width="0.0" fill="rgb(73, 6, 92)" opacity="0.8486547" stroke="rgb(0, 0, 0)" stroke-opacity="1.0" stroke-linecap="round" stroke-linejoin="round"/>
    <path d="M 221.33348083496094 298.1293029785156 C 162.24185180664062 501.8877258300781 126.84029388427734 342.081787109375 156.0370330810547 313.29193115234375 C 131.6467742919922 286.6383361816406 119.76558685302734 251.33705139160156 97.31275177001953 237.85076904296875 C 0.6669191718101501 227.7432861328125 60.63771057128906 171.70147705078125 89.31550598144531 190.34439086914062 C 158.23663330078125 204.82276916503906 156.25765991210938 227.1576690673828 221.33348083496094 298.1293029785156" stroke-width="0.0" fill="rgb(0, 5, 18)" opacity="1.0" stroke="rgb(0, 0, 0)" stroke-opacity="1.0" stroke-linecap="round" stroke-linejoin="round"/>
    <path d="M 265.1938781738281 220.5651092529297 C 297.7660217285156 223.4803466796875 297.83111572265625 211.159912109375 294.82659912109375 253.69300842285156 C 254.61424255371094 207.55690002441406 245.29116821289062 190.27001953125 247.31143188476562 192.7860107421875 C 268.186279296875 166.32725524902344 266.9196472167969 125.74153900146484 259.4015808105469 128.56436157226562 C 268.1924133300781 169.1234893798828 268.3258361816406 203.96328735351562 265.1938781738281 220.5651092529297" stroke-width="0.0" fill="rgb(221, 127, 87)" opacity="0.5774451" stroke="rgb(0, 0, 0)" stroke-opacity="1.0" stroke-linecap="round" stroke-linejoin="round"/>
    <path d="M 145.90931701660156 305.63848876953125 C 107.31301879882812 352.811767578125 146.82412719726562 360.39349365234375 85.4439468383789 415.74713134765625 C 39.03077697753906 370.0766906738281 31.2646541595459 354.9863586425781 -11.757620811462402 334.96246337890625 C 51.888919830322266 291.6907653808594 70.11695861816406 278.0573425292969 108.2412338256836 243.0688934326172 C 111.75530242919922 262.3705139160156 121.9648208618164 288.7490539550781 145.90931701660156 305.63848876953125" stroke-width="0.0" fill="rgb(148, 97, 199)" opacity="0.4150168" stroke="rgb(0, 0, 0)" stroke-opacity="1.0" stroke-linecap="round" stroke-linejoin="round"/>
    <path d="M 296.5912170410156 273.49853515625 C 293.18548583984375 272.74041748046875 281.5246276855469 256.68206787109375 229.67552185058594 278.3304138183594 C 229.44430541992188 311.2427978515625 249.62942504882812 265.55877685546875 231.46815490722656 232.9207763671875 C 248.16795349121094 243.46241760253906 256.5998229980469 243.3981170654297 281.0380859375 226.4958038330078 C 275.3904113769531 222.93788146972656 266.58343505859375 239.5544891357422 296.5912170410156 273.49853515625" stroke-width="0.0" fill="rgb(101, 147, 129)" opacity="0.5494081" stroke="rgb(0, 0, 0)" stroke-opacity="1.0" stroke-linecap="round" stroke-linejoin="round"/>
    <path d="M 285.2907409667969 238.3988800048828 C 292.65728759765625 203.2444610595703 317.6690368652344 244.12225341796875 278.5906677246094 288.2719421386719 C 231.2201385498047 275.9789733886719 246.6498565673828 276.6134948730469 280.18719482421875 209.5848388671875 C 257.5472412109375 191.90538024902344 267.2490539550781 166.33355712890625 299.4511413574219 178.83433532714844 C 291.8807373046875 207.81471252441406 287.1128234863281 227.2770538330078 285.2907409667969 238.3988800048828" stroke-width="0.0" fill="rgb(131, 105, 91)" opacity="0.6640538" stroke="rgb(0, 0, 0)" stroke-opacity="1.0" stroke-linecap="round" stroke-linejoin="round"/>
    <path d="M 306.9424133300781 404.15069580078125 C 273.61566162109375 351.14324951171875 256.5054626464844 400.7157897949219 289.773681640625 436.6836242675781 C 313.034912109375 391.3131408691406 321.02215576171875 400.4413146972656 322.77386474609375 424.6884460449219 C 329.5733947753906 446.50311279296875 383.25274658203125 445.93939208984375 371.1730651855469 418.31671142578125 C 337.464599609375 399.825439453125 359.2142028808594 393.1457824707031 306.9424133300781 404.15069580078125" stroke-width="0.0" fill="rgb(255, 255, 22)" opacity="1.0" stroke="rgb(0, 0, 0)" stroke-opacity="1.0" stroke-linecap="round" stroke-linejoin="round"/>
    <path d="M 288.6716003417969 193.5515594482422 C 282.4616394042969 177.88430786132812 281.6850280761719 197.6269073486328 284.0509033203125 169.92849731445312 C 284.8810729980469 163.1380615234375 284.88836669921875 167.3378448486328 282.8463134765625 185.2782440185547 C 295.9851989746094 164.68377685546875 285.6208190917969 149.53936767578125 268.513427734375 168.7021484375 C 260.98468017578125 155.1077880859375 270.5186462402344 196.46937561035156 288.6716003417969 193.5515594482422" stroke-width="0.0" fill="rgb(0, 19, 49)" opacity="0.7343736" stroke="rgb(0, 0, 0)" stroke-opacity="1.0" stroke-linecap="round" stroke-linejoin="round"/>
    <path d="M 421.93548583984375 253.75257873535156 C 473.990234375 231.4070587158203 444.37652587890625 325.0491027832031 416.7420349121094 327.34033203125 C 312.48406982421875 271.14947509765625 197.20635986328125 341.5153503417969 234.4136505126953 208.57284545898438 C 364.77862548828125 253.46365356445312 335.1002197265625 275.1748962402344 321.3418273925781 250.95986938476562 C 331.2818298339844 242.15660095214844 313.5962219238281 257.14654541015625 421.93548583984375 253.75257873535156" stroke-width="0.0" fill="rgb(255, 248, 2)" opacity="1.0" stroke="rgb(0, 0, 0)" stroke-opacity="1.0" stroke-linecap="round" stroke-linejoin="round"/>
    <path d="M 199.9442901611328 371.4633483886719 C 192.0072479248047 337.0522766113281 209.9231719970703 374.75445556640625 197.19656372070312 412.1912536621094 C 175.03591918945312 421.9043273925781 182.83895874023438 419.80023193359375 138.05807495117188 381.6251525878906 C 163.97683715820312 393.2637023925781 190.69483947753906 372.4333190917969 187.60768127441406 345.3857116699219 C 240.0163116455078 352.1904296875 261.5040588378906 374.1210021972656 199.9442901611328 371.4633483886719" stroke-width="0.0" fill="rgb(0, 9, 45)" opacity="0.97735953" stroke="rgb(0, 0, 0)" stroke-opacity="1.0" stroke-linecap="round" stroke-linejoin="round"/>
    <path d="M 192.630859375 254.3142852783203 C 193.5719451904297 273.369873046875 202.5692138671875 274.9671630859375 203.8134002685547 258.07373046875 C 185.74856567382812 241.9355010986328 180.47637939453125 227.0853271484375 190.20452880859375 238.18649291992188 C 191.53982543945312 245.8048858642578 193.8067169189453 240.78543090820312 197.83462524414062 257.24639892578125 C 186.7458038330078 246.2975616455078 206.4699249267578 252.48976135253906 192.630859375 254.3142852783203" stroke-width="0.0" fill="rgb(128, 55, 230)" opacity="0.16948289" stroke="rgb(0, 0, 0)" stroke-opacity="1.0" stroke-linecap="round" stroke-linejoin="round"/>
    <path d="M 412.7639465332031 235.72044372558594 C 423.5294494628906 309.44171142578125 405.5474548339844 347.7021789550781 359.3168029785156 276.3145446777344 C 332.0974426269531 254.97157287597656 304.8988342285156 297.7151794433594 325.8899230957031 277.0320739746094 C 320.5745849609375 259.4574890136719 324.5957946777344 242.44224548339844 328.3603515625 247.38836669921875 C 326.225830078125 244.7957305908203 357.96099853515625 270.640625 412.7639465332031 235.72044372558594" stroke-width="0.0" fill="rgb(254, 255, 0)" opacity="0.93441653" stroke="rgb(0, 0, 0)" stroke-opacity="1.0" stroke-linecap="round" stroke-linejoin="round"/>
    <path d="M 155.80984497070312 460.33612060546875 C 195.29684448242188 455.08740234375 188.70077514648438 454.9367980957031 168.5771942138672 456.3268737792969 C 128.05947875976562 465.5610656738281 136.77413940429688 451.0735778808594 144.15838623046875 427.2620544433594 C 157.7789764404297 402.9344177246094 170.14585876464844 394.4932861328125 161.37400817871094 403.8685302734375 C 143.19810485839844 421.5918273925781 124.79963684082031 460.1666259765625 155.80984497070312 460.33612060546875" stroke-width="0.0" fill="rgb(49, 79, 182)" opacity="0.09687741" stroke="rgb(0, 0, 0)" stroke-opacity="1.0" stroke-linecap="round" stroke-linejoin="round"/>
    <path d="M 384.510498046875 302.2265319824219 C 394.84771728515625 375.2897644042969 359.9538879394531 401.1642150878906 364.8140563964844 413.4151611328125 C 339.05352783203125 417.6026306152344 347.59735107421875 395.9913635253906 352.0166320800781 412.32720947265625 C 336.6420593261719 389.1611633300781 347.7916259765625 374.7510681152344 352.2191467285156 369.2423095703125 C 347.8022766113281 333.0974426269531 341.985595703125 306.85577392578125 384.510498046875 302.2265319824219" stroke-width="0.0" fill="rgb(0, 46, 36)" opacity="0.983203" stroke="rgb(0, 0, 0)" stroke-opacity="1.0" stroke-linecap="round" stroke-linejoin="round"/>
    <path d="M 205.3223419189453 416.9684753417969 C 216.74435424804688 464.4161682128906 209.7181396484375 460.3813781738281 211.96461486816406 441.7265930175781 C 187.47203063964844 450.64593505859375 176.62615966796875 453.4393005371094 206.14784240722656 448.6007385253906 C 185.1728515625 420.1045837402344 191.76573181152344 422.5513610839844 187.12986755371094 425.5415954589844 C 192.83770751953125 425.32275390625 229.01678466796875 411.2954406738281 205.3223419189453 416.9684753417969" stroke-width="0.0" fill="rgb(81, 43, 217)" opacity="0.036474288" stroke="rgb(0, 0, 0)" stroke-opacity="1.0" stroke-linecap="round" stroke-linejoin="round"/>
    <path d="M 218.48092651367188 427.62396240234375 C 192.53834533691406 387.2669982910156 171.37203979492188 413.718994140625 176.14752197265625 416.4315490722656 C 149.56072998046875 423.3262023925781 150.7852783203125 419.2407531738281 158.39053344726562 435.1466979980469 C 167.52145385742188 433.2246398925781 172.6710205078125 431.7067565917969 189.99649047851562 404.80230712890625 C 174.9257049560547 417.3768615722656 196.76132202148438 448.07696533203125 218.48092651367188 427.62396240234375" stroke-width="0.0" fill="rgb(38, 48, 232)" opacity="0.022813302" stroke="rgb(0, 0, 0)" stroke-opacity="1.0" stroke-linecap="round" stroke-linejoin="round"/>
    <path d="M 223.10435485839844 236.87583923339844 C 211.4291229248047 243.29776000976562 194.70628356933594 261.6910400390625 209.4261932373047 239.36965942382812 C 238.50079345703125 237.439697265625 192.02110290527344 225.06961059570312 190.15625 253.2139434814453 C 179.10150146484375 242.86703491210938 195.0741424560547 247.8115692138672 191.1038818359375 226.11801147460938 C 181.4723358154297 236.5443878173828 209.03042602539062 233.14744567871094 223.10435485839844 236.87583923339844" stroke-width="0.0" fill="rgb(197, 18, 234)" opacity="0.0" stroke="rgb(0, 0, 0)" stroke-opacity="1.0" stroke-linecap="round" stroke-linejoin="round"/>
    <path d="M 300.245361328125 248.6871337890625 C 288.2627868652344 229.6526641845703 272.47900390625 260.22698974609375 285.2906188964844 264.410888671875 C 284.30322265625 252.04884338378906 267.7471923828125 271.3163146972656 276.6837463378906 255.58653259277344 C 286.9634704589844 270.5391845703125 284.20220947265625 253.60159301757812 280.07733154296875 224.76280212402344 C 266.6274719238281 239.73834228515625 295.8730163574219 242.79884338378906 300.245361328125 248.6871337890625" stroke-width="0.0" fill="rgb(255, 53, 97)" opacity="0.03570118" stroke="rgb(0, 0, 0)" stroke-opacity="1.0" stroke-linecap="round" stroke-linejoin="round"/>
    <path d="M 205.19395446777344 330.1513366699219 C 190.47520446777344 344.6968994140625 183.6306610107422 363.3807067871094 183.14720153808594 371.3993835449219 C 173.55921936035156 370.07598876953125 176.3743438720703 378.8790588378906 176.52369689941406 375.4054870605469 C 186.26956176757812 359.83013916015625 196.9613494873047 347.94500732421875 202.5178985595703 333.89154052734375 C 197.4401092529297 325.04937744140625 198.692626953125 312.568603515625 205.19395446777344 330.1513366699219" stroke-width="0.0" fill="rgb(147, 155, 25)" opacity="0.0" stroke="rgb(0, 0, 0)" stroke-opacity="1.0" stroke-linecap="round" stroke-linejoin="round"/>
    <path d="M 82.97148895263672 453.07373046875 C 84.14048767089844 457.9880676269531 68.75648498535156 463.70904541015625 58.65169143676758 466.98382568359375 C 81.25127410888672 456.5208740234375 72.98448181152344 442.277099609375 60.11703109741211 444.4389343261719 C 56.95492935180664 451.5534362792969 58.959293365478516 440.9610595703125 66.96310424804688 445.0878601074219 C 60.57437515258789 437.2250671386719 71.82024383544922 449.4984436035156 82.97148895263672 453.07373046875" stroke-width="0.0" fill="rgb(51, 41, 216)" opacity="0.0" stroke="rgb(0, 0, 0)" stroke-opacity="1.0" stroke-linecap="round" stroke-linejoin="round"/>
    <path d="M 490.68084716796875 458.46478271484375 C 497.8870849609375 434.64874267578125 474.43988037109375 432.1197204589844 422.55078125 457.9739685058594 C 438.28607177734375 452.08843994140625 436.040283203125 464.9517822265625 464.3184509277344 440.3481750488281 C 456.0604248046875 445.6783142089844 431.0477600097656 441.0434265136719 484.4229431152344 474.0256652832031 C 500.8425598144531 446.3840026855469 488.3009338378906 452.8542785644531 490.68084716796875 458.46478271484375" stroke-width="0.0" fill="rgb(82, 112, 255)" opacity="0.0" stroke="rgb(0, 0, 0)" stroke-opacity="1.0" stroke-linecap="round" stroke-linejoin="round"/>
    <path d="M 234.33282470703125 36.49207305908203 C 255.17393493652344 112.43267059326172 255.16053771972656 109.82879638671875 214.45204162597656 91.27421569824219 C 228.9175567626953 92.30230712890625 223.08766174316406 65.30152893066406 228.407958984375 84.8708267211914 C 187.49847412109375 84.48745727539062 191.19293212890625 68.18138885498047 247.1612548828125 53.032310485839844 C 214.50711059570312 27.813322067260742 203.10569763183594 40.27128982543945 234.33282470703125 36.49207305908203" stroke-width="0.0" fill="rgb(252, 44, 160)" opacity="0.0" stroke="rgb(0, 0, 0)" stroke-opacity="1.0" stroke-linecap="round" stroke-linejoin="round"/>
    <path d="M 133.27406311035156 142.53335571289062 C 135.83450317382812 142.5381622314453 112.7800064086914 145.4813232421875 119.3270492553711 161.8504638671875 C 115.9144515991211 162.0897216796875 101.50617218017578 166.83523559570312 126.83907318115234 160.6085205078125 C 101.89327239990234 160.6020965576172 114.30555725097656 117.32534790039062 116.20852661132812 170.26002502441406 C 161.23245239257812 158.20584106445312 141.41458129882812 134.3428497314453 133.27406311035156 142.53335571289062" stroke-width="0.0" fill="rgb(188, 55, 135)" opacity="0.0" stroke="rgb(0, 0, 0)" stroke-opacity="1.0" stroke-linecap="round" stroke-linejoin="round"/>
    <path d="M 52.086673736572266 415.7412109375 C 63.51435470581055 494.9959716796875 67.7118148803711 461.620849609375 68.85102081298828 458.96832275390625 C 52.824424743652344 480.7933654785156 60.41257095336914 454.388427734375 59.16305160522461 462.0926818847656 C 73.20181274414062 455.05181884765625 76.49366760253906 443.77984619140625 57.15463638305664 442.8400573730469 C 110.7130355834961 438.035888671875 123.56781768798828 413.9590148925781 52.086673736572266 415.7412109375" stroke-width="0.0" fill="rgb(44, 120, 253)" opacity="0.02256896" stroke="rgb(0, 0, 0)" stroke-opacity="1.0" stroke-linecap="round" stroke-linejoin="round"/>
    <path d="M 463.0440979003906 504.03228759765625 C 481.6613464355469 519.2312622070312 477.7118835449219 533.6533813476562 449.58831787109375 538.2633056640625 C 421.7962646484375 502.5325012207031 450.3185729980469 487.4381103515625 450.5079040527344 461.7105712890625 C 440.2639465332031 473.13232421875 465.5369873046875 457.99859619140625 467.12091064453125 480.8619689941406 C 476.226318359375 497.3687744140625 459.0343322753906 487.6898193359375 463.0440979003906 504.03228759765625" stroke-width="0.0" fill="rgb(97, 169, 255)" opacity="0.0" stroke="rgb(0, 0, 0)" stroke-opacity="1.0" stroke-linecap="round" stroke-linejoin="round"/>
    <path d="M 135.6611328125 -6.298133373260498 C 125.5596694946289 34.74933624267578 141.0261688232422 55.5285758972168 134.29286193847656 56.167137145996094 C 143.67337036132812 26.75250816345215 130.7445831298828 18.583070755004883 109.99554443359375 30.25342559814453 C 104.92659759521484 48.906097412109375 125.43128967285156 25.751707077026367 135.8496856689453 9.323664665222168 C 127.23843383789062 9.832273483276367 151.40399169921875 -2.6173460483551025 135.6611328125 -6.298133373260498" stroke-width="0.0" fill="rgb(180, 121, 230)" opacity="0.0" stroke="rgb(0, 0, 0)" stroke-opacity="1.0" stroke-linecap="round" stroke-linejoin="round"/>
    <path d="M 18.20118522644043 309.4706726074219 C 34.86469268798828 322.00970458984375 47.69609069824219 326.3130798339844 10.32559585571289 299.6733703613281 C -6.5762248039245605 371.66168212890625 -7.618294715881348 339.4140319824219 12.76856803894043 320.09100341796875 C 8.509359359741211 308.33709716796875 29.154617309570312 299.5314025878906 47.154788970947266 287.7057800292969 C 51.458885192871094 299.47125244140625 25.58808135986328 288.5029602050781 18.20118522644043 309.4706726074219" stroke-width="0.0" fill="rgb(81, 71, 204)" opacity="0.012195396" stroke="rgb(0, 0, 0)" stroke-opacity="1.0" stroke-linecap="round" stroke-linejoin="round"/>
    <path d="M 387.0360107421875 428.30615234375 C 383.23785400390625 449.6089782714844 402.196533203125 448.0716857910156 399.2776794433594 406.8255920410156 C 423.0544128417969 442.1543273925781 396.193603515625 436.03094482421875 392.4239196777344 423.5975646972656 C 380.0490417480469 413.05523681640625 361.8481750488281 417.7923278808594 368.4564208984375 439.3727111816406 C 411.6198425292969 440.5630798339844 395.4736328125 440.89404296875 387.0360107421875 428.30615234375" stroke-width="0.0" fill="rgb(82, 139, 188)" opacity="0.05995837" stroke="rgb(0, 0, 0)" stroke-opacity="1.0" stroke-linecap="round" stroke-linejoin="round"/>
    <path d="M 142.88294982910156 450.52703857421875 C 137.4358673095703 447.9002380371094 131.18275451660156 454.0197448730469 103.37178039550781 454.3315734863281 C 121.77969360351562 456.0206604003906 104.28801727294922 466.95794677734375 91.24773406982422 457.8768005371094 C 102.82635498046875 431.84466552734375 108.41039276123047 418.0810241699219 104.18991088867188 415.8926086425781 C 123.35282135009766 427.0299072265625 123.40493774414062 441.575927734375 142.88294982910156 450.52703857421875" stroke-width="0.0" fill="rgb(28, 73, 241)" opacity="0.14956349" stroke="rgb(0, 0, 0)" stroke-opacity="1.0" stroke-linecap="round" stroke-linejoin="round"/>
    <path d="M 250.13180541992188 15.239950180053711 C 275.9775695800781 45.82673645019531 276.36956787109375 41.27082824707031 260.1199035644531 42.237953186035156 C 276.3482666015625 21.519168853759766 262.34619140625 33.984130859375 232.5378875732422 49.33553695678711 C 238.73390197753906 52.5452766418457 264.3325500488281 44.89358901977539 268.8511657714844 14.888996124267578 C 252.38336181640625 -8.756224632263184 261.9617919921875 10.005565643310547 250.13180541992188 15.239950180053711" stroke-width="0.0" fill="rgb(163, 18, 212)" opacity="0.0" stroke="rgb(0, 0, 0)" stroke-opacity="1.0" stroke-linecap="round" stroke-linejoin="round"/>
    <path d="M 135.38648986816406 316.5382995605469 C 125.62750244140625 350.056396484375 127.18609619140625 366.2196960449219 113.4411849975586 342.33935546875 C 95.30538940429688 367.2080993652344 95.04222869873047 363.6918029785156 96.21592712402344 334.5868225097656 C 79.36338806152344 306.7039489746094 103.02826690673828 302.7967529296875 91.253173828125 334.5428466796875 C 109.64384460449219 328.4259033203125 122.96601867675781 317.30810546875 135.38648986816406 316.5382995605469" stroke-width="0.0" fill="rgb(103, 56, 204)" opacity="0.0062081213" stroke="rgb(0, 0, 0)" stroke-opacity="1.0" stroke-linecap="round" stroke-linejoin="round"/>
    <path d="M 529.1193237304688 221.94879150390625 C 530.7830810546875 231.1974334716797 500.5434875488281 226.64540100097656 490.67498779296875 238.39410400390625 C 498.8375244140625 231.55850219726562 477.93701171875 222.1663818359375 467.3660888671875 221.44041442871094 C 494.4327392578125 233.46768188476562 498.50433349609375 222.5376739501953 497.16900634765625 201.1449432373047 C 504.2751159667969 191.81053161621094 523.5856323242188 194.84405517578125 529.1193237304688 221.94879150390625" stroke-width="0.0" fill="rgb(220, 121, 250)" opacity="0.0" stroke="rgb(0, 0, 0)" stroke-opacity="1.0" stroke-linecap="round" stroke-linejoin="round"/>
    <path d="M 486.3173828125 37.340728759765625 C 496.885009765625 82.10983276367188 521.7935791015625 76.58908081054688 526.12744140625 66.46780395507812 C 498.9652099609375 45.020790100097656 472.6548156738281 53.805416107177734 480.8911437988281 47.926910400390625 C 483.064208984375 61.38724899291992 498.799560546875 40.63003921508789 497.2635498046875 44.49907302856445 C 484.2037658691406 47.31481170654297 514.9244995117188 54.28774642944336 486.3173828125 37.340728759765625" stroke-width="0.0" fill="rgb(204, 84, 169)" opacity="0.0022450138" stroke="rgb(0, 0, 0)" stroke-opacity="1.0" stroke-linecap="round" stroke-linejoin="round"/>
    <path d="M 40.3729362487793 196.42886352539062 C 40.316925048828125 194.98423767089844 30.855655670166016 207.26284790039062 13.33256721496582 240.59359741210938 C 17.094377517700195 222.75119018554688 3.516542911529541 211.1488494873047 -2.960254430770874 181.6383514404297 C 34.131935119628906 179.67120361328125 49.981781005859375 191.9537811279297 53.20051193237305 186.5068359375 C 42.93210983276367 171.85073852539062 54.556373596191406 195.93028259277344 40.3729362487793 196.42886352539062" stroke-width="0.0" fill="rgb(120, 46, 178)" opacity="0.0" stroke="rgb(0, 0, 0)" stroke-opacity="1.0" stroke-linecap="round" stroke-linejoin="round"/>
    <path d="M 127.7964096069336 307.5960388183594 C 128.2581024169922 337.3988952636719 111.1551513671875 335.9434509277344 102.57506561279297 375.65087890625 C 64.3796615600586 366.41717529296875 66.55113983154297 343.5347595214844 107.46131134033203 316.8225402832031 C 87.9411849975586 310.6616516113281 86.29295349121094 287.1139221191406 102.07056427001953 307.3758239746094 C 144.4380340576172 322.94708251953125 148.62796020507812 304.3602294921875 127.7964096069336 307.5960388183594" stroke-width="0.0" fill="rgb(85, 71, 197)" opacity="0.0136733" stroke="rgb(0, 0, 0)" stroke-opacity="1.0" stroke-linecap="round" stroke-linejoin="round"/>
    <path d="M 33.96883773803711 81.36558532714844 C 33.37510681152344 91.98111724853516 26.15117835998535 104.14134216308594 19.176170349121094 111.16063690185547 C 5.572367191314697 114.45538330078125 -1.019977331161499 104.52611541748047 -16.926679611206055 70.41072845458984 C -20.93247413635254 64.80831146240234 -2.134967088699341 69.39258575439453 41.67277908325195 65.18191528320312 C 24.56855010986328 80.56702423095703 38.61378860473633 87.40946197509766 33.96883773803711 81.36558532714844" stroke-width="0.0" fill="rgb(95, 118, 196)" opacity="0.0" stroke="rgb(0, 0, 0)" stroke-opacity="1.0" stroke-linecap="round" stroke-linejoin="round"/>
    <path d="M 125.92293548583984 168.80841064453125 C 141.08982849121094 175.0921630859375 136.00022888183594 183.7291717529297 124.9528579711914 173.63645935058594 C 145.22792053222656 158.91729736328125 121.88945770263672 160.1394500732422 116.57381439208984 168.13804626464844 C 120.74762725830078 159.0907440185547 119.78336334228516 167.60687255859375 135.92788696289062 170.1135711669922 C 152.02593994140625 170.1259002685547 155.8844451904297 170.46034240722656 125.92293548583984 168.80841064453125" stroke-width="0.0" fill="rgb(52, 73, 160)" opacity="0.00040660382" stroke="rgb(0, 0, 0)" stroke-opacity="1.0" stroke-linecap="round" stroke-linejoin="round"/>
    <path d="M 209.53561401367188 367.72857666015625 C 208.67904663085938 400.12445068359375 206.6062774658203 406.5124206542969 172.09498596191406 386.3876953125 C 173.5829620361328 387.97454833984375 170.34828186035156 415.57293701171875 206.2705841064453 417.8699951171875 C 205.6846160888672 369.63861083984375 187.4044952392578 350.311767578125 186.83792114257812 375.7103271484375 C 177.74957275390625 387.5763854980469 189.69580078125 390.7917785644531 209.53561401367188 367.72857666015625" stroke-width="0.0" fill="rgb(0, 114, 43)" opacity="0.00094656134" stroke="rgb(0, 0, 0)" stroke-opacity="1.0" stroke-linecap="round" stroke-linejoin="round"/>
    <path d="M 35.02766036987305 209.43911743164062 C -0.6223902106285095 184.84869384765625 -4.68923282623291 206.372314453125 24.33837127685547 217.37258911132812 C 18.206432342529297 217.0095672607422 -0.6412620544433594 224.541748046875 -21.856229782104492 199.62884521484375 C -14.699921607971191 196.4300079345703 -2.2010722160339355 223.82342529296875 38.591064453125 230.3015899658203 C 59.411869049072266 197.97598266601562 49.43053436279297 200.41192626953125 35.02766036987305 209.43911743164062" stroke-width="0.0" fill="rgb(124, 53, 235)" opacity="0.0" stroke="rgb(0, 0, 0)" stroke-opacity="1.0" stroke-linecap="round" stroke-linejoin="round"/>
    <path d="M 84.0224380493164 30.127450942993164 C 77.41168975830078 59.56721878051758 55.64951705932617 47.56761169433594 55.00515365600586 40.67384338378906 C 40.20964050292969 37.742408752441406 32.15719223022461 39.588584899902344 60.66141128540039 58.2875862121582 C 73.30733489990234 34.02275848388672 71.80757141113281 25.267101287841797 98.6383056640625 50.77680587768555 C 89.79415893554688 44.62587356567383 61.27246856689453 17.27256965637207 84.0224380493164 30.127450942993164" stroke-width="0.0" fill="rgb(255, 95, 167)" opacity="0.0" stroke="rgb(0, 0, 0)" stroke-opacity="1.0" stroke-linecap="round" stroke-linejoin="round"/>
    <path d="M 52.348838806152344 202.88330078125 C 72.88900756835938 204.21237182617188 28.226354598999023 200.13043212890625 19.87438201904297 214.0583038330078 C 38.64491653442383 214.73927307128906 6.487712383270264 209.22976684570312 9.696533203125 167.8142547607422 C 3.467705011367798 161.8162078857422 35.851280212402344 153.12612915039062 25.937572479248047 199.9605712890625 C 41.03398895263672 157.48394775390625 49.237953186035156 171.4290008544922 52.348838806152344 202.88330078125" stroke-width="0.0" fill="rgb(118, 63, 190)" opacity="0.0" stroke="rgb(0, 0, 0)" stroke-opacity="1.0" stroke-linecap="round" stroke-linejoin="round"/>
    <path d="M 302.2398986816406 277.4896545410156 C 281.315673828125 302.71441650390625 275.36279296875 321.32940673828125 290.7919006347656 341.2010803222656 C 284.8289489746094 351.2285461425781 294.0951232910156 342.6915283203125 299.2492980957031 307.9773864746094 C 271.37640380859375 277.3653869628906 270.79254150390625 268.3332824707031 285.3071594238281 299.3852233886719 C 303.01220703125 316.78411865234375 311.0870361328125 305.6141357421875 302.2398986816406 277.4896545410156" stroke-width="0.0" fill="rgb(132, 113, 63)" opacity="0.37015828" stroke="rgb(0, 0, 0)" stroke-opacity="1.0" stroke-linecap="round" stroke-linejoin="round"/>
    <path d="M 393.68780517578125 403.3914794921875 C 374.5799255371094 416.9869384765625 380.04217529296875 425.1490783691406 344.1648864746094 410.1974792480469 C 337.6703186035156 408.8078918457031 342.67645263671875 457.41729736328125 364.8841857910156 466.0445251464844 C 379.5207214355469 463.3695373535156 349.19097900390625 480.41339111328125 336.0035400390625 468.24700927734375 C 381.409423828125 426.095947265625 376.1275329589844 420.5516662597656 393.68780517578125 403.3914794921875" stroke-width="0.0" fill="rgb(61, 148, 242)" opacity="0.05692986" stroke="rgb(0, 0, 0)" stroke-opacity="1.0" stroke-linecap="round" stroke-linejoin="round"/>
    <path d="M 326.0834655761719 409.4692077636719 C 322.22283935546875 420.4164123535156 310.3941650390625 430.4585876464844 410.0660095214844 432.6897277832031 C 420.16455078125 377.61871337890625 384.1522521972656 376.6074523925781 330.658203125 406.8685302734375 C 319.1705627441406 408.8820495605469 309.24664306640625 395.78863525390625 353.2532958984375 374.42059326171875 C 359.8566589355469 382.5660705566406 341.29132080078125 401.51751708984375 326.0834655761719 409.4692077636719" stroke-width="0.0" fill="rgb(238, 244, 44)" opacity="0.9668005" stroke="rgb(0, 0, 0)" stroke-opacity="1.0" stroke-linecap="round" stroke-linejoin="round"/>
    <path d="M 539.695556640625 250.03660583496094 C 534.8009643554688 257.6867980957031 524.5760498046875 264.8758544921875 509.5967712402344 257.3585205078125 C 493.5400390625 227.8701171875 461.0223388671875 201.08609008789062 453.819580078125 224.2262420654297 C 497.0997009277344 247.43936157226562 489.63201904296875 232.92970275878906 462.7979431152344 254.70648193359375 C 483.10113525390625 264.49810791015625 520.17822265625 251.501220703125 539.695556640625 250.03660583496094" stroke-width="0.0" fill="rgb(246, 175, 188)" opacity="0.00014775585" stroke="rgb(0, 0, 0)" stroke-opacity="1.0" stroke-linecap="round" stroke-linejoin="round"/>
    <path d="M 440.4119567871094 167.11781311035156 C 438.6272277832031 144.41700744628906 428.9701232910156 168.8514404296875 454.0492858886719 174.22607421875 C 417.454833984375 172.02647399902344 406.4255065917969 154.6504364013672 398.486572265625 145.59129333496094 C 404.3594055175781 133.76097106933594 397.678466796875 120.74390411376953 391.033203125 157.04074096679688 C 419.795166015625 174.35842895507812 441.7535095214844 166.93772888183594 440.4119567871094 167.11781311035156" stroke-width="0.0" fill="rgb(0, 0, 83)" opacity="0.015414668" stroke="rgb(0, 0, 0)" stroke-opacity="1.0" stroke-linecap="round" stroke-linejoin="round"/>
  </g>
</svg>
