<?xml version="1.0" ?>
<svg xmlns="http://www.w3.org/2000/svg" version="1.1" width="512" height="512">
  <defs/>
  <g>
    <path d="M 374.4388732910156 491.17901611328125 C 323.6726989746094 484.986328125 272.52337646484375 511.9345397949219 215.162841796875 509.84588623046875 C 103.0842056274414 477.4894104003906 68.63236999511719 375.8840637207031 26.19529914855957 334.7726135253906 C -53.788291931152344 259.0592956542969 -32.052330017089844 188.78970336914062 -13.164011001586914 209.8848419189453 C 173.52511596679688 328.70770263671875 265.2048034667969 220.11148071289062 374.4388732910156 491.17901611328125" stroke-width="0.0" fill="rgb(226, 240, 49)" opacity="0.3413311" stroke="rgb(0, 0, 0)" stroke-opacity="1.0" stroke-linecap="round" stroke-linejoin="round"/>
    <path d="M 329.5709228515625 52.887107849121094 C 165.5425262451172 35.25563430786133 85.32918548583984 123.2214584350586 91.12676239013672 176.37225341796875 C -5.058282375335693 261.6951599121094 12.856768608093262 212.49124145507812 36.17796325683594 141.40367126464844 C 50.05033493041992 85.23905944824219 99.5303955078125 41.27949142456055 172.9622802734375 26.26105499267578 C 278.4125061035156 -19.96347999572754 395.28704833984375 20.643184661865234 329.5709228515625 52.887107849121094" stroke-width="0.0" fill="rgb(254, 80, 64)" opacity="0.6856238" stroke="rgb(0, 0, 0)" stroke-opacity="1.0" stroke-linecap="round" stroke-linejoin="round"/>
    <path d="M 371.5701599121094 200.33233642578125 C 404.3827819824219 278.48602294921875 437.5682373046875 261.9555358886719 337.00189208984375 241.5047149658203 C 212.44796752929688 340.80230712890625 206.18283081054688 364.30657958984375 177.35289001464844 148.8023223876953 C 400.0947265625 70.46473693847656 328.5887451171875 225.54400634765625 405.2842712402344 169.6361083984375 C 359.5714111328125 173.32479858398438 383.7554016113281 151.90126037597656 371.5701599121094 200.33233642578125" stroke-width="0.0" fill="rgb(255, 18, 152)" opacity="0.78229284" stroke="rgb(0, 0, 0)" stroke-opacity="1.0" stroke-linecap="round" stroke-linejoin="round"/>
    <path d="M 214.95016479492188 163.21939086914062 C 293.35028076171875 269.0773010253906 298.7949523925781 241.8017120361328 233.63157653808594 328.8046875 C 93.2509536743164 231.55137634277344 96.93220520019531 222.9735107421875 109.959228515625 183.21316528320312 C 111.84408569335938 156.85523986816406 135.23484802246094 157.14950561523438 103.64734649658203 164.39901733398438 C 199.80404663085938 91.71487426757812 181.40823364257812 162.88804626464844 214.95016479492188 163.21939086914062" stroke-width="0.0" fill="rgb(255, 218, 82)" opacity="0.6717276" stroke="rgb(0, 0, 0)" stroke-opacity="1.0" stroke-linecap="round" stroke-linejoin="round"/>
    <path d="M 476.5591735839844 406.50518798828125 C 494.0063171386719 463.1546936035156 431.889892578125 524.4175415039062 335.0963134765625 542.4722290039062 C 181.15135192871094 515.0751342773438 205.29226684570312 524.9486694335938 318.29119873046875 412.19927978515625 C 236.97616577148438 201.90969848632812 238.68019104003906 239.72760009765625 359.71014404296875 252.70315551757812 C 477.1042785644531 260.4985656738281 444.40203857421875 238.8269500732422 476.5591735839844 406.50518798828125" stroke-width="0.0" fill="rgb(205, 130, 44)" opacity="0.5586358" stroke="rgb(0, 0, 0)" stroke-opacity="1.0" stroke-linecap="round" stroke-linejoin="round"/>
    <path d="M 515.435791015625 239.8689422607422 C 519.7738037109375 250.00376892089844 520.9873657226562 329.7507019042969 491.31671142578125 394.8124084472656 C 323.5565185546875 356.6337890625 464.2558288574219 320.8695068359375 458.7364501953125 214.488037109375 C 422.56103515625 65.63874816894531 251.17332458496094 62.53752517700195 342.4498596191406 -29.84880828857422 C 477.6244812011719 -1.7219880819320679 535.5665893554688 136.0536651611328 515.435791015625 239.8689422607422" stroke-width="0.0" fill="rgb(141, 167, 120)" opacity="0.21819411" stroke="rgb(0, 0, 0)" stroke-opacity="1.0" stroke-linecap="round" stroke-linejoin="round"/>
    <path d="M 344.37054443359375 304.5559997558594 C 301.1162109375 407.165283203125 413.4906005859375 449.94482421875 336.1534118652344 452.35577392578125 C 295.2339172363281 278.6171569824219 309.317626953125 269.2357177734375 326.8587646484375 278.57720947265625 C 260.4980773925781 257.7467346191406 272.2038269042969 252.9717254638672 292.49786376953125 232.9477996826172 C 387.0395812988281 218.559326171875 380.97308349609375 253.682861328125 344.37054443359375 304.5559997558594" stroke-width="0.0" fill="rgb(215, 70, 183)" opacity="0.25744578" stroke="rgb(0, 0, 0)" stroke-opacity="1.0" stroke-linecap="round" stroke-linejoin="round"/>
    <path d="M 381.8804931640625 214.7630157470703 C 375.43310546875 206.85009765625 367.7015075683594 228.50048828125 341.7415466308594 236.31700134277344 C 261.17059326171875 245.05409240722656 276.33599853515625 225.20230102539062 324.9636535644531 203.96160888671875 C 335.35394287109375 181.98956298828125 288.8520202636719 189.135009765625 419.011474609375 147.3095245361328 C 422.4472351074219 211.49893188476562 390.3656311035156 222.97105407714844 381.8804931640625 214.7630157470703" stroke-width="0.0" fill="rgb(44, 223, 119)" opacity="0.9365185" stroke="rgb(0, 0, 0)" stroke-opacity="1.0" stroke-linecap="round" stroke-linejoin="round"/>
    <path d="M 311.7061462402344 176.96035766601562 C 231.9246368408203 302.5795593261719 354.4619140625 399.1469421386719 249.1993865966797 315.3427429199219 C 349.7781982421875 156.83644104003906 168.7142791748047 332.99859619140625 203.52610778808594 259.47357177734375 C 227.9644317626953 317.58673095703125 178.66177368164062 285.68865966796875 211.72325134277344 254.4330291748047 C 298.76092529296875 258.2008972167969 189.6691131591797 182.79612731933594 311.7061462402344 176.96035766601562" stroke-width="0.0" fill="rgb(222, 186, 67)" opacity="0.63012487" stroke="rgb(0, 0, 0)" stroke-opacity="1.0" stroke-linecap="round" stroke-linejoin="round"/>
    <path d="M 481.1741027832031 71.85871124267578 C 562.7254028320312 251.24627685546875 522.0809326171875 456.7840576171875 399.6019592285156 466.8382263183594 C 309.2607116699219 494.08648681640625 308.9047546386719 410.1772155761719 319.6439208984375 289.977783203125 C 352.5512390136719 252.308837890625 333.9408264160156 277.9302978515625 342.4121398925781 164.1997528076172 C 370.974365234375 219.1758575439453 435.6813049316406 233.06573486328125 481.1741027832031 71.85871124267578" stroke-width="0.0" fill="rgb(236, 3, 142)" opacity="0.9728021" stroke="rgb(0, 0, 0)" stroke-opacity="1.0" stroke-linecap="round" stroke-linejoin="round"/>
    <path d="M 261.6512145996094 455.72216796875 C 155.64328002929688 520.5339965820312 143.01181030273438 410.3315124511719 228.32266235351562 529.4764404296875 C 121.97172546386719 515.7396850585938 32.31672668457031 417.50286865234375 5.2137017250061035 316.014892578125 C -22.26829719543457 185.64404296875 55.53271484375 7.264594078063965 155.8800048828125 227.04800415039062 C 286.8769836425781 259.7587585449219 279.7975769042969 305.5494384765625 261.6512145996094 455.72216796875" stroke-width="0.0" fill="rgb(255, 4, 123)" opacity="0.9858895" stroke="rgb(0, 0, 0)" stroke-opacity="1.0" stroke-linecap="round" stroke-linejoin="round"/>
    <path d="M 495.0293884277344 122.69648742675781 C 467.3742980957031 204.0443572998047 469.3136901855469 186.3719482421875 421.1527404785156 153.97677612304688 C 326.5659484863281 124.5380630493164 286.45220947265625 96.41706848144531 236.21221923828125 74.36377716064453 C 148.3953094482422 76.92081451416016 177.55172729492188 81.10162353515625 241.58621215820312 -3.435016632080078 C 353.5735168457031 -1.5153582096099854 452.44390869140625 45.03453826904297 495.0293884277344 122.69648742675781" stroke-width="0.0" fill="rgb(195, 12, 96)" opacity="0.94079345" stroke="rgb(0, 0, 0)" stroke-opacity="1.0" stroke-linecap="round" stroke-linejoin="round"/>
    <path d="M 275.3976745605469 462.2738342285156 C 304.7861022949219 410.550048828125 257.0699157714844 419.3752136230469 186.060546875 421.605224609375 C 220.83665466308594 441.95184326171875 254.3509979248047 406.5434875488281 243.51290893554688 409.3247985839844 C 238.6696319580078 445.8545837402344 270.19195556640625 444.721923828125 335.6964111328125 381.27734375 C 244.79946899414062 170.9768524169922 209.37388610839844 319.042724609375 275.3976745605469 462.2738342285156" stroke-width="0.0" fill="rgb(225, 143, 114)" opacity="0.0" stroke="rgb(0, 0, 0)" stroke-opacity="1.0" stroke-linecap="round" stroke-linejoin="round"/>
    <path d="M 465.4702453613281 464.7660827636719 C 439.3685302734375 479.00244140625 387.06298828125 506.705078125 299.35009765625 527.1539306640625 C 217.19114685058594 547.627685546875 213.12721252441406 510.4341735839844 204.2570343017578 487.9167175292969 C 381.3186950683594 490.6639404296875 454.3014831542969 488.1566467285156 393.0133361816406 465.8708801269531 C 446.075439453125 421.5399475097656 502.8846740722656 399.8065185546875 465.4702453613281 464.7660827636719" stroke-width="0.0" fill="rgb(224, 0, 162)" opacity="0.99808246" stroke="rgb(0, 0, 0)" stroke-opacity="1.0" stroke-linecap="round" stroke-linejoin="round"/>
    <path d="M 357.9711608886719 18.334041595458984 C 289.76043701171875 -25.434825897216797 105.62190246582031 9.030517578125 134.6169891357422 95.40191650390625 C 242.65931701660156 121.68104553222656 167.73919677734375 -34.309017181396484 98.0105209350586 77.82872772216797 C 117.04103088378906 79.24787902832031 238.38662719726562 13.51041030883789 142.7771453857422 51.11262130737305 C 235.4266357421875 119.02582550048828 162.59031677246094 167.63499450683594 357.9711608886719 18.334041595458984" stroke-width="0.0" fill="rgb(255, 0, 130)" opacity="1.0" stroke="rgb(0, 0, 0)" stroke-opacity="1.0" stroke-linecap="round" stroke-linejoin="round"/>
    <path d="M 316.5025329589844 137.92149353027344 C 332.6029968261719 165.13526916503906 307.3251037597656 209.42611694335938 419.90087890625 184.75689697265625 C 378.1311950683594 116.9146957397461 290.1355285644531 46.2552604675293 219.464599609375 75.5919189453125 C 180.45985412597656 225.66172790527344 289.554443359375 211.80487060546875 314.29803466796875 172.3026580810547 C 324.23779296875 149.44252014160156 350.0404968261719 170.904296875 316.5025329589844 137.92149353027344" stroke-width="0.0" fill="rgb(78, 243, 212)" opacity="0.9982433" stroke="rgb(0, 0, 0)" stroke-opacity="1.0" stroke-linecap="round" stroke-linejoin="round"/>
    <path d="M 383.38446044921875 187.1480712890625 C 374.7881164550781 193.34725952148438 338.33843994140625 163.00888061523438 323.57305908203125 201.0717010498047 C 338.0705261230469 204.15892028808594 337.2693786621094 185.46319580078125 296.2186584472656 240.86973571777344 C 365.56329345703125 244.7816162109375 387.4566650390625 237.05157470703125 395.0682678222656 215.81344604492188 C 338.84527587890625 198.5284423828125 363.6148986816406 190.66212463378906 383.38446044921875 187.1480712890625" stroke-width="0.0" fill="rgb(11, 244, 163)" opacity="0.70128834" stroke="rgb(0, 0, 0)" stroke-opacity="1.0" stroke-linecap="round" stroke-linejoin="round"/>
    <path d="M 440.3070373535156 138.43780517578125 C 428.628173828125 191.09764099121094 407.3753356933594 183.14389038085938 409.8638000488281 234.0385284423828 C 373.513671875 271.0166320800781 329.6968994140625 257.7207336425781 300.3543395996094 239.3953857421875 C 363.2468566894531 171.4393310546875 399.2823791503906 170.44500732421875 407.3804626464844 143.14129638671875 C 422.8391418457031 236.24935913085938 430.87091064453125 181.18746948242188 440.3070373535156 138.43780517578125" stroke-width="0.0" fill="rgb(3, 236, 209)" opacity="1.0" stroke="rgb(0, 0, 0)" stroke-opacity="1.0" stroke-linecap="round" stroke-linejoin="round"/>
    <path d="M 270.8742980957031 141.48416137695312 C 273.6700744628906 159.17626953125 282.5830078125 200.70005798339844 251.43096923828125 242.09046936035156 C 222.79397583007812 238.39459228515625 212.09666442871094 218.3655242919922 181.73875427246094 167.24801635742188 C 293.5550231933594 145.7734375 296.5718994140625 156.6165008544922 298.9100646972656 149.95269775390625 C 299.8156433105469 151.3235321044922 303.8641662597656 142.9121856689453 270.8742980957031 141.48416137695312" stroke-width="0.0" fill="rgb(73, 248, 207)" opacity="0.9992021" stroke="rgb(0, 0, 0)" stroke-opacity="1.0" stroke-linecap="round" stroke-linejoin="round"/>
    <path d="M 80.26992797851562 76.45899963378906 C 82.40231323242188 69.54744720458984 37.05939483642578 92.2488784790039 9.230766296386719 179.1154327392578 C 133.96673583984375 261.9317626953125 111.39457702636719 240.700439453125 154.26791381835938 206.92718505859375 C 182.86207580566406 141.53184509277344 242.0359344482422 140.8616180419922 186.4454345703125 5.690430641174316 C 63.425758361816406 50.241817474365234 65.05001068115234 107.55260467529297 80.26992797851562 76.45899963378906" stroke-width="0.0" fill="rgb(255, 1, 131)" opacity="0.9895514" stroke="rgb(0, 0, 0)" stroke-opacity="1.0" stroke-linecap="round" stroke-linejoin="round"/>
    <path d="M 312.3612976074219 233.2024688720703 C 285.3014221191406 238.3188934326172 289.3327331542969 273.0877685546875 272.3287353515625 296.1528015136719 C 213.37628173828125 265.6442565917969 250.94029235839844 260.65423583984375 246.56991577148438 223.0315399169922 C 244.5238037109375 215.28016662597656 282.5951232910156 216.7252960205078 305.8507385253906 225.9167022705078 C 268.2179260253906 237.90634155273438 295.48370361328125 213.30723571777344 312.3612976074219 233.2024688720703" stroke-width="0.0" fill="rgb(229, 161, 69)" opacity="0.9130574" stroke="rgb(0, 0, 0)" stroke-opacity="1.0" stroke-linecap="round" stroke-linejoin="round"/>
    <path d="M 266.9564208984375 151.6681671142578 C 222.49398803710938 144.55160522460938 224.76365661621094 137.72125244140625 205.60328674316406 194.9683074951172 C 163.51109313964844 237.4894256591797 160.35841369628906 235.0804901123047 131.88040161132812 209.49855041503906 C 154.65292358398438 124.098876953125 192.07943725585938 106.99862670898438 225.04917907714844 93.1860122680664 C 251.05746459960938 53.33933639526367 279.16131591796875 106.26348876953125 266.9564208984375 151.6681671142578" stroke-width="0.0" fill="rgb(75, 255, 203)" opacity="1.0" stroke="rgb(0, 0, 0)" stroke-opacity="1.0" stroke-linecap="round" stroke-linejoin="round"/>
    <path d="M 283.4263916015625 331.813720703125 C 296.0752258300781 330.859130859375 261.8006286621094 346.5749206542969 285.57720947265625 398.0682067871094 C 302.6896057128906 331.2392883300781 305.21435546875 295.14202880859375 272.2946472167969 283.6101379394531 C 247.83348083496094 392.61517333984375 247.2222442626953 338.23834228515625 268.12322998046875 298.1045837402344 C 307.442626953125 341.00823974609375 311.4110107421875 365.9754638671875 283.4263916015625 331.813720703125" stroke-width="0.0" fill="rgb(212, 210, 13)" opacity="0.07834526" stroke="rgb(0, 0, 0)" stroke-opacity="1.0" stroke-linecap="round" stroke-linejoin="round"/>
    <path d="M 331.0419616699219 177.0720672607422 C 392.8678894042969 210.98207092285156 327.40399169921875 226.2454376220703 313.6087951660156 265.4771728515625 C 293.1675720214844 256.8565979003906 296.4457092285156 253.02529907226562 294.57147216796875 239.4357147216797 C 304.1507873535156 237.82852172851562 309.398193359375 268.3441162109375 267.89678955078125 249.9908905029297 C 267.53936767578125 250.47811889648438 274.52337646484375 235.15321350097656 331.0419616699219 177.0720672607422" stroke-width="0.0" fill="rgb(103, 215, 210)" opacity="0.90402323" stroke="rgb(0, 0, 0)" stroke-opacity="1.0" stroke-linecap="round" stroke-linejoin="round"/>
    <path d="M 553.8360595703125 115.32878875732422 C 526.0014038085938 174.0707244873047 506.8298645019531 196.49012756347656 453.3633117675781 182.3105010986328 C 418.49310302734375 154.93362426757812 434.2898864746094 136.33192443847656 454.3923645019531 116.36229705810547 C 485.3475646972656 78.37875366210938 475.5363464355469 54.40593719482422 479.91278076171875 16.712928771972656 C 530.8200073242188 33.34549331665039 543.293212890625 29.847280502319336 553.8360595703125 115.32878875732422" stroke-width="0.0" fill="rgb(17, 102, 104)" opacity="1.0" stroke="rgb(0, 0, 0)" stroke-opacity="1.0" stroke-linecap="round" stroke-linejoin="round"/>
    <path d="M 68.6610336303711 499.18463134765625 C 108.80960845947266 533.8320922851562 90.79413604736328 528.5449829101562 21.41935920715332 528.1847534179688 C 24.991979598999023 517.930908203125 39.312618255615234 499.8480529785156 71.68263244628906 527.318359375 C 96.06414031982422 459.4666442871094 59.74745559692383 443.48663330078125 57.90082931518555 421.3200378417969 C 61.46642303466797 429.0271301269531 67.99566650390625 450.4585266113281 68.6610336303711 499.18463134765625" stroke-width="0.0" fill="rgb(132, 210, 208)" opacity="0.37687966" stroke="rgb(0, 0, 0)" stroke-opacity="1.0" stroke-linecap="round" stroke-linejoin="round"/>
    <path d="M 227.90399169921875 399.59942626953125 C 257.2438659667969 421.5626525878906 275.4664306640625 412.51416015625 230.8711395263672 423.780517578125 C 239.11114501953125 413.2274169921875 231.76870727539062 412.1984558105469 247.51341247558594 415.42828369140625 C 267.54473876953125 432.9093017578125 280.56585693359375 410.8078308105469 273.3396301269531 351.0788269042969 C 246.502197265625 384.24212646484375 249.8495635986328 368.5028381347656 227.90399169921875 399.59942626953125" stroke-width="0.0" fill="rgb(218, 117, 233)" opacity="0.0" stroke="rgb(0, 0, 0)" stroke-opacity="1.0" stroke-linecap="round" stroke-linejoin="round"/>
    <path d="M 63.62493896484375 440.6299133300781 C 39.949642181396484 491.1003723144531 19.43960952758789 493.08489990234375 22.192707061767578 482.1691589355469 C 23.782167434692383 477.058349609375 2.9551620483398438 481.40972900390625 -21.11286735534668 477.1788330078125 C -28.526769638061523 428.616455078125 -60.6395263671875 385.8555908203125 11.506625175476074 363.9958801269531 C 63.62764358520508 369.3003234863281 69.45465850830078 411.7142639160156 63.62493896484375 440.6299133300781" stroke-width="0.0" fill="rgb(139, 196, 184)" opacity="0.21322888" stroke="rgb(0, 0, 0)" stroke-opacity="1.0" stroke-linecap="round" stroke-linejoin="round"/>
    <path d="M 549.3726196289062 430.8879089355469 C 533.1174926757812 511.4598388671875 532.705322265625 521.4187622070312 458.3540954589844 541.0419311523438 C 421.5869140625 530.0233764648438 426.01654052734375 537.4653930664062 458.33465576171875 444.8065185546875 C 461.9865417480469 412.5585021972656 489.65350341796875 426.2312316894531 480.16363525390625 387.20928955078125 C 487.37542724609375 374.7915954589844 527.1452026367188 383.1241455078125 549.3726196289062 430.8879089355469" stroke-width="0.0" fill="rgb(9, 158, 159)" opacity="0.9951206" stroke="rgb(0, 0, 0)" stroke-opacity="1.0" stroke-linecap="round" stroke-linejoin="round"/>
    <path d="M 326.50213623046875 439.6042175292969 C 339.0621337890625 459.71807861328125 331.9474182128906 457.0187072753906 320.0873718261719 447.721923828125 C 317.1974792480469 406.45843505859375 314.2303466796875 400.09747314453125 325.4617919921875 406.7166442871094 C 312.8243103027344 395.77081298828125 284.93634033203125 340.0816955566406 310.5299987792969 342.77606201171875 C 321.72198486328125 385.4615173339844 314.4296569824219 414.1355285644531 326.50213623046875 439.6042175292969" stroke-width="0.0" fill="rgb(157, 80, 78)" opacity="0.5403007" stroke="rgb(0, 0, 0)" stroke-opacity="1.0" stroke-linecap="round" stroke-linejoin="round"/>
    <path d="M 61.67294692993164 523.5465698242188 C 72.5772933959961 524.9788818359375 48.12126159667969 532.9811401367188 15.95245361328125 546.8017578125 C 2.5686471462249756 516.5128173828125 -4.220098972320557 511.42901611328125 -32.81356430053711 450.6502380371094 C -14.09985637664795 441.36346435546875 26.566293716430664 461.0168762207031 53.8343505859375 453.7763671875 C 85.58049774169922 449.178466796875 74.0259017944336 446.7425842285156 61.67294692993164 523.5465698242188" stroke-width="0.0" fill="rgb(119, 252, 241)" opacity="0.6932993" stroke="rgb(0, 0, 0)" stroke-opacity="1.0" stroke-linecap="round" stroke-linejoin="round"/>
    <path d="M 534.4774780273438 235.94752502441406 C 542.6948852539062 251.10984802246094 524.8297119140625 225.25038146972656 507.4719543457031 217.1773223876953 C 490.6176452636719 207.3546600341797 486.74847412109375 185.04736328125 475.9808654785156 181.1918487548828 C 476.2462158203125 175.6505889892578 492.89605712890625 187.60061645507812 519.1686401367188 190.33990478515625 C 522.021728515625 189.15467834472656 521.885498046875 185.55899047851562 534.4774780273438 235.94752502441406" stroke-width="0.0" fill="rgb(91, 60, 74)" opacity="0.5267458" stroke="rgb(0, 0, 0)" stroke-opacity="1.0" stroke-linecap="round" stroke-linejoin="round"/>
    <path d="M 259.96844482421875 255.63868713378906 C 252.078857421875 303.02105712890625 249.54937744140625 295.782470703125 262.31329345703125 272.52276611328125 C 251.67771911621094 275.6524658203125 251.4751739501953 280.18408203125 226.40333557128906 272.19793701171875 C 220.75570678710938 256.6715393066406 208.73129272460938 249.3202362060547 221.81683349609375 245.4365234375 C 215.91232299804688 225.2142333984375 231.066162109375 229.19024658203125 259.96844482421875 255.63868713378906" stroke-width="0.0" fill="rgb(253, 88, 103)" opacity="0.5730145" stroke="rgb(0, 0, 0)" stroke-opacity="1.0" stroke-linecap="round" stroke-linejoin="round"/>
    <path d="M 451.8729553222656 177.0143585205078 C 452.252197265625 205.5884246826172 399.87200927734375 212.64439392089844 403.2754211425781 171.83407592773438 C 384.22088623046875 163.39744567871094 397.0570373535156 166.89208984375 387.486572265625 163.16180419921875 C 394.8901672363281 106.11788177490234 396.05279541015625 107.75757598876953 387.6980895996094 109.28179168701172 C 425.773681640625 132.88128662109375 435.27447509765625 145.90016174316406 451.8729553222656 177.0143585205078" stroke-width="0.0" fill="rgb(255, 0, 195)" opacity="1.0" stroke="rgb(0, 0, 0)" stroke-opacity="1.0" stroke-linecap="round" stroke-linejoin="round"/>
    <path d="M 473.94927978515625 510.7531433105469 C 463.6557922363281 532.8448486328125 463.0333557128906 533.8327026367188 435.546875 534.189208984375 C 391.01812744140625 524.9600830078125 357.2301330566406 528.6558837890625 403.8740539550781 483.2998352050781 C 440.4482727050781 471.67974853515625 443.0103759765625 477.188232421875 454.1856384277344 423.67181396484375 C 474.572509765625 433.0061950683594 476.1673278808594 463.4877624511719 473.94927978515625 510.7531433105469" stroke-width="0.0" fill="rgb(13, 129, 177)" opacity="0.9698808" stroke="rgb(0, 0, 0)" stroke-opacity="1.0" stroke-linecap="round" stroke-linejoin="round"/>
    <path d="M 197.28836059570312 72.19728088378906 C 184.58143615722656 53.865943908691406 167.75625610351562 53.0469856262207 154.58680725097656 76.27123260498047 C 180.89540100097656 54.46163558959961 170.755859375 74.19507598876953 150.28103637695312 73.15210723876953 C 165.7527618408203 66.13976287841797 210.049560546875 72.61908721923828 195.6761016845703 48.3875617980957 C 146.57070922851562 63.221920013427734 188.83738708496094 91.8417739868164 197.28836059570312 72.19728088378906" stroke-width="0.0" fill="rgb(214, 8, 15)" opacity="0.08211493" stroke="rgb(0, 0, 0)" stroke-opacity="1.0" stroke-linecap="round" stroke-linejoin="round"/>
    <path d="M 466.92974853515625 -5.56889009475708 C 494.5319519042969 37.88756561279297 505.7956237792969 63.951202392578125 428.2823791503906 72.63213348388672 C 423.2351379394531 35.556400299072266 422.2439880371094 34.93378829956055 384.8522644042969 53.92528533935547 C 375.73193359375 11.95652961730957 383.8493957519531 -7.2787885665893555 424.11004638671875 -11.668206214904785 C 475.83184814453125 -15.99349308013916 488.2212829589844 -15.851677894592285 466.92974853515625 -5.56889009475708" stroke-width="0.0" fill="rgb(1, 139, 208)" opacity="0.97412425" stroke="rgb(0, 0, 0)" stroke-opacity="1.0" stroke-linecap="round" stroke-linejoin="round"/>
    <path d="M 561.3289184570312 39.18059158325195 C 539.8256225585938 55.68663787841797 494.00067138671875 46.26513671875 469.0909118652344 48.63129425048828 C 455.63470458984375 34.97099304199219 445.5841979980469 49.97080612182617 427.63800048828125 39.80870819091797 C 435.0596618652344 -0.8928837180137634 436.20770263671875 -46.26934814453125 448.7908935546875 -55.098209381103516 C 513.3515625 -7.466573715209961 521.2838745117188 -2.8233680725097656 561.3289184570312 39.18059158325195" stroke-width="0.0" fill="rgb(0, 120, 167)" opacity="1.0" stroke="rgb(0, 0, 0)" stroke-opacity="1.0" stroke-linecap="round" stroke-linejoin="round"/>
    <path d="M 171.1691436767578 411.07464599609375 C 172.50457763671875 438.52783203125 174.5706024169922 448.8567810058594 171.24464416503906 460.82818603515625 C 168.67408752441406 457.3548583984375 161.04393005371094 440.6138916015625 160.8818359375 427.4337463378906 C 182.16307067871094 451.0165100097656 178.62905883789062 431.7837829589844 178.8179931640625 426.9835510253906 C 173.5699920654297 443.69219970703125 185.83522033691406 433.6210021972656 171.1691436767578 411.07464599609375" stroke-width="0.0" fill="rgb(62, 90, 239)" opacity="0.0053147296" stroke="rgb(0, 0, 0)" stroke-opacity="1.0" stroke-linecap="round" stroke-linejoin="round"/>
    <path d="M 357.08892822265625 247.8154754638672 C 407.40838623046875 237.44503784179688 389.142822265625 282.6070556640625 358.4206848144531 271.4405822753906 C 315.50738525390625 246.24176025390625 278.4081115722656 273.7832336425781 296.2987060546875 202.12379455566406 C 321.5272521972656 189.86888122558594 329.2159729003906 191.658447265625 350.4761047363281 185.7255401611328 C 384.9422607421875 180.4263153076172 374.94873046875 231.9075469970703 357.08892822265625 247.8154754638672" stroke-width="0.0" fill="rgb(0, 242, 208)" opacity="1.0" stroke="rgb(0, 0, 0)" stroke-opacity="1.0" stroke-linecap="round" stroke-linejoin="round"/>
    <path d="M 207.79238891601562 255.28121948242188 C 204.57508850097656 270.338623046875 209.65945434570312 283.7660827636719 187.62474060058594 263.0267639160156 C 177.95187377929688 266.04083251953125 160.9310302734375 255.35829162597656 160.7328338623047 230.26980590820312 C 158.01707458496094 253.9284210205078 177.86436462402344 249.75721740722656 162.7461700439453 244.89920043945312 C 196.3987274169922 251.60284423828125 195.84915161132812 248.029541015625 207.79238891601562 255.28121948242188" stroke-width="0.0" fill="rgb(95, 183, 91)" opacity="0.71707886" stroke="rgb(0, 0, 0)" stroke-opacity="1.0" stroke-linecap="round" stroke-linejoin="round"/>
    <path d="M 212.29698181152344 473.8914794921875 C 215.22727966308594 486.54510498046875 236.39634704589844 492.7068786621094 135.97341918945312 483.9940490722656 C 167.3468780517578 462.0430603027344 150.1980743408203 466.2322082519531 157.9479217529297 479.56036376953125 C 153.99871826171875 478.5621032714844 201.30311584472656 480.5005187988281 198.77969360351562 462.0343322753906 C 176.40203857421875 482.6558532714844 216.27772521972656 477.9405822753906 212.29698181152344 473.8914794921875" stroke-width="0.0" fill="rgb(236, 193, 69)" opacity="0.7791285" stroke="rgb(0, 0, 0)" stroke-opacity="1.0" stroke-linecap="round" stroke-linejoin="round"/>
    <path d="M 229.81907653808594 249.11782836914062 C 265.69598388671875 262.0313415527344 225.4108123779297 282.43951416015625 186.5170135498047 282.5958557128906 C 186.4403076171875 266.1116943359375 155.08526611328125 281.8758850097656 150.69004821777344 252.47909545898438 C 157.47268676757812 222.57485961914062 163.7270050048828 215.50526428222656 195.1125946044922 216.408935546875 C 191.81344604492188 211.15914916992188 210.4107208251953 228.6172332763672 229.81907653808594 249.11782836914062" stroke-width="0.0" fill="rgb(10, 245, 213)" opacity="0.99489737" stroke="rgb(0, 0, 0)" stroke-opacity="1.0" stroke-linecap="round" stroke-linejoin="round"/>
    <path d="M 260.5777587890625 78.62096405029297 C 235.0234832763672 145.9822235107422 244.2074737548828 48.808990478515625 238.11009216308594 105.09504699707031 C 216.83609008789062 126.87922668457031 169.3065185546875 111.23981475830078 198.1795196533203 96.72183990478516 C 199.30258178710938 89.69259643554688 191.09739685058594 63.88837814331055 201.6848907470703 56.017242431640625 C 206.42320251464844 58.38640213012695 239.17698669433594 57.736331939697266 260.5777587890625 78.62096405029297" stroke-width="0.0" fill="rgb(176, 46, 255)" opacity="0.0" stroke="rgb(0, 0, 0)" stroke-opacity="1.0" stroke-linecap="round" stroke-linejoin="round"/>
    <path d="M -6.161440849304199 80.65507507324219 C -5.942281246185303 109.42680358886719 -3.272780418395996 113.54821014404297 -11.77762222290039 153.58448791503906 C -17.877513885498047 159.5865478515625 -25.2023868560791 156.9874267578125 -45.88697814941406 76.11157989501953 C -42.25541305541992 16.729482650756836 -40.25837707519531 -15.832754135131836 48.33907699584961 1.1236207485198975 C 36.52197265625 77.33019256591797 2.2088828086853027 68.23136901855469 -6.161440849304199 80.65507507324219" stroke-width="0.0" fill="rgb(27, 178, 138)" opacity="0.8981066" stroke="rgb(0, 0, 0)" stroke-opacity="1.0" stroke-linecap="round" stroke-linejoin="round"/>
    <path d="M 357.3586730957031 114.62831115722656 C 374.3848571777344 102.04463195800781 367.0433349609375 131.1790008544922 353.739501953125 115.72205352783203 C 340.8996276855469 88.27342224121094 370.0555725097656 85.45587921142578 356.2205810546875 110.52410125732422 C 360.45391845703125 91.47515106201172 396.56048583984375 82.84950256347656 387.4216003417969 116.1291732788086 C 374.7694396972656 125.06262969970703 376.03717041015625 125.11522674560547 357.3586730957031 114.62831115722656" stroke-width="0.0" fill="rgb(183, 235, 165)" opacity="0.047061548" stroke="rgb(0, 0, 0)" stroke-opacity="1.0" stroke-linecap="round" stroke-linejoin="round"/>
    <path d="M 53.14605712890625 476.91412353515625 C 42.584022521972656 483.87200927734375 20.196157455444336 487.3266906738281 14.479573249816895 484.7759704589844 C 28.392629623413086 481.1322937011719 3.1999030113220215 479.01629638671875 -1.2738173007965088 473.4758605957031 C 7.074856758117676 472.9016418457031 30.4569149017334 466.42950439453125 30.640222549438477 421.1582336425781 C 61.726139068603516 410.2884216308594 62.5045051574707 429.8347473144531 53.14605712890625 476.91412353515625" stroke-width="0.0" fill="rgb(118, 253, 149)" opacity="0.0" stroke="rgb(0, 0, 0)" stroke-opacity="1.0" stroke-linecap="round" stroke-linejoin="round"/>
    <path d="M 145.8573760986328 233.28411865234375 C 148.6095428466797 265.57177734375 152.97792053222656 244.13148498535156 153.1092529296875 252.08322143554688 C 152.8661651611328 242.47789001464844 147.5260772705078 224.42745971679688 152.68312072753906 222.09494018554688 C 127.02815246582031 224.73789978027344 135.38787841796875 207.08050537109375 142.4596710205078 225.3073272705078 C 158.6607208251953 224.22303771972656 165.67384338378906 226.4176788330078 145.8573760986328 233.28411865234375" stroke-width="0.0" fill="rgb(98, 166, 169)" opacity="0.11886155" stroke="rgb(0, 0, 0)" stroke-opacity="1.0" stroke-linecap="round" stroke-linejoin="round"/>
    <path d="M 276.3876647949219 16.64295196533203 C 291.37567138671875 15.820202827453613 276.09210205078125 14.247834205627441 263.84527587890625 16.350496292114258 C 272.8661804199219 32.540836334228516 267.1437072753906 14.264029502868652 277.8901672363281 -5.157690048217773 C 257.2314758300781 -5.396457672119141 257.6588134765625 -12.419509887695312 242.43240356445312 -32.517269134521484 C 246.6022186279297 -76.44631958007812 278.2166442871094 -25.651161193847656 276.3876647949219 16.64295196533203" stroke-width="0.0" fill="rgb(115, 99, 143)" opacity="0.0" stroke="rgb(0, 0, 0)" stroke-opacity="1.0" stroke-linecap="round" stroke-linejoin="round"/>
    <path d="M 553.8701782226562 231.2303924560547 C 528.7097778320312 259.0588684082031 519.79345703125 269.24462890625 518.2703857421875 252.9474639892578 C 519.5130615234375 247.274169921875 513.629638671875 253.51560974121094 483.4773254394531 241.32322692871094 C 488.7552795410156 243.8318328857422 488.4463806152344 218.2190704345703 497.8086242675781 236.02110290527344 C 523.466064453125 245.6269989013672 543.4031372070312 241.54586791992188 553.8701782226562 231.2303924560547" stroke-width="0.0" fill="rgb(43, 82, 155)" opacity="0.0" stroke="rgb(0, 0, 0)" stroke-opacity="1.0" stroke-linecap="round" stroke-linejoin="round"/>
    <path d="M 271.9913635253906 426.5257873535156 C 251.66143798828125 413.5015563964844 264.70330810546875 414.3375549316406 245.29995727539062 409.4802551269531 C 253.76651000976562 411.9954528808594 246.85934448242188 410.5079650878906 250.1468963623047 417.4864807128906 C 239.8512420654297 408.5583801269531 250.84878540039062 401.1454162597656 271.1130065917969 388.68450927734375 C 261.4496765136719 381.23675537109375 268.75146484375 373.5102233886719 271.9913635253906 426.5257873535156" stroke-width="0.0" fill="rgb(160, 233, 91)" opacity="0.013245808" stroke="rgb(0, 0, 0)" stroke-opacity="1.0" stroke-linecap="round" stroke-linejoin="round"/>
    <path d="M 56.10382080078125 116.70468139648438 C 93.14347839355469 123.36309051513672 99.62882995605469 89.3974380493164 71.98668670654297 76.93326568603516 C 71.65535736083984 134.09136962890625 64.85542297363281 117.0987777709961 -2.4578404426574707 93.33442687988281 C 13.818280220031738 49.00096893310547 43.38920974731445 42.54136276245117 19.302202224731445 84.13960266113281 C 88.5807876586914 92.31672668457031 80.89702606201172 103.099853515625 56.10382080078125 116.70468139648438" stroke-width="0.0" fill="rgb(175, 145, 255)" opacity="0.0064210407" stroke="rgb(0, 0, 0)" stroke-opacity="1.0" stroke-linecap="round" stroke-linejoin="round"/>
    <path d="M 437.2765197753906 242.36203002929688 C 461.6463928222656 245.42251586914062 448.3497619628906 253.82704162597656 428.9814147949219 274.9138488769531 C 439.10906982421875 286.04925537109375 451.2965087890625 268.1467590332031 470.797607421875 241.80625915527344 C 439.19683837890625 246.3966522216797 452.3876037597656 236.6558837890625 461.13787841796875 221.2272186279297 C 450.167236328125 193.47642517089844 444.9892578125 222.31407165527344 437.2765197753906 242.36203002929688" stroke-width="0.0" fill="rgb(132, 187, 167)" opacity="0.0" stroke="rgb(0, 0, 0)" stroke-opacity="1.0" stroke-linecap="round" stroke-linejoin="round"/>
    <path d="M 365.4195861816406 400.73541259765625 C 377.4889831542969 402.4581604003906 369.335693359375 397.9468688964844 370.8916015625 389.39959716796875 C 315.1528625488281 381.9534912109375 301.9772644042969 355.6673889160156 321.1472473144531 389.54034423828125 C 312.9273681640625 380.36566162109375 333.00677490234375 400.69140625 359.41741943359375 375.98590087890625 C 361.81201171875 368.8721923828125 351.84442138671875 411.2203063964844 365.4195861816406 400.73541259765625" stroke-width="0.0" fill="rgb(135, 53, 6)" opacity="0.0016081629" stroke="rgb(0, 0, 0)" stroke-opacity="1.0" stroke-linecap="round" stroke-linejoin="round"/>
    <path d="M 347.9346618652344 215.84730529785156 C 353.2130126953125 167.08592224121094 327.39813232421875 163.82830810546875 338.560791015625 210.2278289794922 C 315.6034851074219 211.6336212158203 333.60784912109375 202.46051025390625 345.253173828125 195.61476135253906 C 330.76483154296875 203.3109130859375 351.9935607910156 214.7914581298828 335.56707763671875 199.638671875 C 368.2632751464844 179.0192108154297 390.4482116699219 192.8705596923828 347.9346618652344 215.84730529785156" stroke-width="0.0" fill="rgb(0, 247, 197)" opacity="0.30823395" stroke="rgb(0, 0, 0)" stroke-opacity="1.0" stroke-linecap="round" stroke-linejoin="round"/>
    <path d="M 53.51789093017578 437.1949768066406 C 66.81812286376953 472.5263671875 86.7939453125 483.1086730957031 77.45816802978516 464.1672668457031 C 53.117889404296875 462.9793395996094 32.031497955322266 477.53338623046875 58.78453063964844 487.6134033203125 C 58.22007751464844 441.80206298828125 86.7417221069336 430.5749206542969 81.92464447021484 432.78118896484375 C 116.74100494384766 414.94744873046875 99.15328979492188 411.54217529296875 53.51789093017578 437.1949768066406" stroke-width="0.0" fill="rgb(90, 199, 149)" opacity="0.00066261075" stroke="rgb(0, 0, 0)" stroke-opacity="1.0" stroke-linecap="round" stroke-linejoin="round"/>
    <path d="M 87.14195251464844 501.3109130859375 C 78.26557922363281 507.7549743652344 64.97288513183594 511.43292236328125 37.54638671875 501.00927734375 C 82.03379821777344 534.1469116210938 57.334571838378906 502.7315673828125 75.84022521972656 477.0979309082031 C 91.55130004882812 451.140625 94.48456573486328 435.11968994140625 98.22636413574219 431.7273864746094 C 78.59869384765625 424.48333740234375 82.17761993408203 449.2795715332031 87.14195251464844 501.3109130859375" stroke-width="0.0" fill="rgb(85, 241, 147)" opacity="0.009274836" stroke="rgb(0, 0, 0)" stroke-opacity="1.0" stroke-linecap="round" stroke-linejoin="round"/>
    <path d="M 443.6875 32.412349700927734 C 445.2066650390625 62.155792236328125 450.64215087890625 59.38639831542969 446.2892150878906 53.46146011352539 C 437.7963562011719 56.19852828979492 432.5516662597656 53.56318664550781 439.2106018066406 43.6662483215332 C 445.5217590332031 30.2397518157959 445.7973327636719 32.90016555786133 441.8920593261719 46.89174270629883 C 435.21002197265625 53.81050109863281 453.0508728027344 45.55679702758789 443.6875 32.412349700927734" stroke-width="0.0" fill="rgb(187, 78, 65)" opacity="0.00059280836" stroke="rgb(0, 0, 0)" stroke-opacity="1.0" stroke-linecap="round" stroke-linejoin="round"/>
    <path d="M 303.9243469238281 161.5445556640625 C 333.44622802734375 181.51966857910156 317.8414611816406 184.4633026123047 277.2655029296875 193.52725219726562 C 253.9702606201172 187.19955444335938 239.56008911132812 162.23533630371094 262.3725891113281 163.45555114746094 C 314.9963684082031 159.84559631347656 324.0513000488281 158.16775512695312 320.64105224609375 130.39544677734375 C 270.7984924316406 135.80137634277344 279.6434020996094 153.3577880859375 303.9243469238281 161.5445556640625" stroke-width="0.0" fill="rgb(36, 255, 224)" opacity="0.119042434" stroke="rgb(0, 0, 0)" stroke-opacity="1.0" stroke-linecap="round" stroke-linejoin="round"/>
    <path d="M 127.7987060546875 35.96057891845703 C 159.79347229003906 85.23388671875 165.37051391601562 81.36986541748047 150.5261993408203 57.343807220458984 C 140.34637451171875 38.15436553955078 134.0323028564453 23.263948440551758 125.89019775390625 21.90778923034668 C 115.84197235107422 28.59450912475586 113.24977111816406 8.844029426574707 144.96383666992188 -10.822172164916992 C 176.64764404296875 4.528432846069336 151.92445373535156 18.598737716674805 127.7987060546875 35.96057891845703" stroke-width="0.0" fill="rgb(135, 193, 99)" opacity="0.55692726" stroke="rgb(0, 0, 0)" stroke-opacity="1.0" stroke-linecap="round" stroke-linejoin="round"/>
    <path d="M 189.3475799560547 357.0140380859375 C 195.077392578125 375.0019226074219 188.8057861328125 375.7507629394531 187.99575805664062 361.694091796875 C 181.219482421875 347.1682434082031 158.59695434570312 351.30535888671875 177.1110076904297 352.80999755859375 C 173.3427276611328 352.6319274902344 187.7545928955078 352.0576171875 177.58474731445312 351.1156311035156 C 182.30917358398438 347.1004638671875 191.2263641357422 354.9062194824219 189.3475799560547 357.0140380859375" stroke-width="0.0" fill="rgb(96, 87, 203)" opacity="0.0" stroke="rgb(0, 0, 0)" stroke-opacity="1.0" stroke-linecap="round" stroke-linejoin="round"/>
    <path d="M 47.235130310058594 304.3810729980469 C 38.862491607666016 317.2289123535156 24.610811233520508 326.1747131347656 11.563620567321777 326.20880126953125 C -10.846451759338379 347.3399658203125 -0.374752402305603 371.1796569824219 -13.15485954284668 361.9871520996094 C -13.991498947143555 308.1235656738281 12.61732006072998 320.73291015625 59.6287841796875 298.0069274902344 C 65.54600524902344 279.5360107421875 58.66669845581055 284.2231140136719 47.235130310058594 304.3810729980469" stroke-width="0.0" fill="rgb(98, 121, 96)" opacity="0.6441425" stroke="rgb(0, 0, 0)" stroke-opacity="1.0" stroke-linecap="round" stroke-linejoin="round"/>
    <path d="M 377.10546875 443.8141784667969 C 409.3455810546875 466.9578552246094 384.0280456542969 424.9002380371094 383.31036376953125 451.3894348144531 C 427.8300476074219 467.7186279296875 420.78607177734375 438.02301025390625 402.9502258300781 402.6015625 C 397.3579406738281 397.2559814453125 369.53082275390625 379.8158264160156 361.0423889160156 459.86895751953125 C 413.7229919433594 464.1834411621094 429.62530517578125 449.76080322265625 377.10546875 443.8141784667969" stroke-width="0.0" fill="rgb(48, 58, 253)" opacity="0.2124688" stroke="rgb(0, 0, 0)" stroke-opacity="1.0" stroke-linecap="round" stroke-linejoin="round"/>
    <path d="M 174.27012634277344 283.7027282714844 C 164.04031372070312 289.02685546875 166.31085205078125 271.6561279296875 187.07855224609375 289.54498291015625 C 151.50892639160156 255.2986602783203 116.60671997070312 255.11410522460938 122.48247528076172 255.6050567626953 C 109.54782104492188 228.52015686035156 77.29291534423828 192.1121368408203 148.184326171875 212.0340576171875 C 149.85971069335938 266.03192138671875 155.37335205078125 268.1956481933594 174.27012634277344 283.7027282714844" stroke-width="0.0" fill="rgb(171, 2, 250)" opacity="0.1956352" stroke="rgb(0, 0, 0)" stroke-opacity="1.0" stroke-linecap="round" stroke-linejoin="round"/>
  </g>
</svg>
