<?xml version="1.0" ?>
<svg xmlns="http://www.w3.org/2000/svg" version="1.1" width="512" height="512">
  <defs/>
  <g>
    <path d="M 489.3878173828125 418.72015380859375 C 397.1578369140625 431.3954162597656 347.1947937011719 541.5735473632812 471.16375732421875 550.6757202148438 C 596.4801635742188 448.1764221191406 599.2088623046875 391.3417663574219 486.41241455078125 360.60992431640625 C 465.6168518066406 444.31207275390625 470.2845764160156 450.6016540527344 522.5986328125 460.7069396972656 C 534.0379638671875 430.1882019042969 555.4876098632812 426.7247314453125 489.3878173828125 418.72015380859375" stroke-width="0.0" fill="rgb(8, 8, 15)" opacity="0.9639775" stroke="rgb(0, 0, 0)" stroke-opacity="1.0" stroke-linecap="round" stroke-linejoin="round"/>
    <path d="M 284.7314758300781 508.6991882324219 C 243.6820526123047 563.53759765625 170.0171661376953 585.6929931640625 147.87828063964844 441.3430480957031 C 2.708138942718506 461.3667907714844 106.25809478759766 432.75299072265625 -66.38470458984375 364.3172302246094 C 36.58567428588867 204.7497100830078 -47.54963302612305 276.91168212890625 -43.99650573730469 169.46160888671875 C 90.48411560058594 43.91575241088867 221.68853759765625 191.8883514404297 284.7314758300781 508.6991882324219" stroke-width="0.0" fill="rgb(207, 62, 202)" opacity="0.5216339" stroke="rgb(0, 0, 0)" stroke-opacity="1.0" stroke-linecap="round" stroke-linejoin="round"/>
    <path d="M 484.0999450683594 85.33512878417969 C 502.2712707519531 283.0994567871094 447.4344482421875 306.7550048828125 275.4909973144531 343.0268249511719 C 158.64865112304688 340.7706298828125 95.37057495117188 300.7901611328125 225.92713928222656 79.67289733886719 C 122.52640533447266 37.5274543762207 153.90171813964844 -21.16352653503418 408.36419677734375 0.6872913837432861 C 413.66229248046875 147.6106414794922 450.07098388671875 71.26044464111328 484.0999450683594 85.33512878417969" stroke-width="0.0" fill="rgb(174, 0, 255)" opacity="0.95116514" stroke="rgb(0, 0, 0)" stroke-opacity="1.0" stroke-linecap="round" stroke-linejoin="round"/>
    <path d="M 336.27783203125 145.15762329101562 C 341.0790710449219 351.4267272949219 266.65234375 386.4237060546875 143.56703186035156 322.3980407714844 C 68.8037109375 219.5055694580078 29.25043296813965 321.3655700683594 99.25165557861328 196.08676147460938 C 85.18241882324219 105.42508697509766 183.89280700683594 114.50370788574219 151.02716064453125 43.61894607543945 C 213.80838012695312 -21.512277603149414 264.85491943359375 0.2818373739719391 336.27783203125 145.15762329101562" stroke-width="0.0" fill="rgb(209, 122, 135)" opacity="0.8652413" stroke="rgb(0, 0, 0)" stroke-opacity="1.0" stroke-linecap="round" stroke-linejoin="round"/>
    <path d="M 483.3367614746094 414.646240234375 C 406.05853271484375 520.146240234375 390.2223205566406 312.9317321777344 444.30279541015625 478.10369873046875 C 257.4125671386719 531.1956176757812 346.4761962890625 513.090087890625 321.6103210449219 433.6518249511719 C 249.96136474609375 241.18922424316406 281.48382568359375 304.4855041503906 307.5265808105469 228.64779663085938 C 421.27679443359375 153.36935424804688 577.9119262695312 222.06558227539062 483.3367614746094 414.646240234375" stroke-width="0.0" fill="rgb(81, 19, 110)" opacity="0.99022573" stroke="rgb(0, 0, 0)" stroke-opacity="1.0" stroke-linecap="round" stroke-linejoin="round"/>
    <path d="M 528.5010375976562 201.14193725585938 C 549.8375244140625 315.5651550292969 484.3153076171875 236.5917510986328 543.7847900390625 333.65496826171875 C 435.3541564941406 410.47589111328125 266.3624572753906 306.5783996582031 448.95684814453125 209.14242553710938 C 343.3367614746094 237.96070861816406 391.2717590332031 129.68377685546875 434.90704345703125 121.00881958007812 C 473.0154724121094 187.52896118164062 515.3027954101562 146.6150665283203 528.5010375976562 201.14193725585938" stroke-width="0.0" fill="rgb(92, 24, 195)" opacity="0.3993068" stroke="rgb(0, 0, 0)" stroke-opacity="1.0" stroke-linecap="round" stroke-linejoin="round"/>
    <path d="M 410.62310791015625 194.947021484375 C 301.3812255859375 247.46888732910156 305.16033935546875 258.1258544921875 264.1609191894531 262.9420471191406 C 255.01890563964844 269.0780944824219 317.42730712890625 313.1301574707031 70.63424682617188 167.35919189453125 C 326.9804382324219 204.02294921875 213.18179321289062 257.6146545410156 279.797607421875 230.02793884277344 C 342.5618896484375 192.7882537841797 424.3684387207031 145.5609893798828 410.62310791015625 194.947021484375" stroke-width="0.0" fill="rgb(89, 255, 0)" opacity="1.0" stroke="rgb(0, 0, 0)" stroke-opacity="1.0" stroke-linecap="round" stroke-linejoin="round"/>
    <path d="M 356.85858154296875 219.04489135742188 C 388.6178283691406 208.41177368164062 381.5008850097656 189.08615112304688 333.5967712402344 211.0783233642578 C 293.0815124511719 220.31544494628906 336.2119445800781 220.7593536376953 277.78814697265625 202.4786834716797 C 311.9245910644531 116.26551055908203 232.1059112548828 212.18873596191406 351.7418518066406 132.79830932617188 C 385.659912109375 190.8038330078125 498.5672302246094 233.46685791015625 356.85858154296875 219.04489135742188" stroke-width="0.0" fill="rgb(13, 0, 49)" opacity="0.8696111" stroke="rgb(0, 0, 0)" stroke-opacity="1.0" stroke-linecap="round" stroke-linejoin="round"/>
    <path d="M 286.29718017578125 269.8110656738281 C 289.61395263671875 262.38897705078125 309.6597595214844 257.8502502441406 286.0316467285156 250.4403839111328 C 264.42822265625 232.9608612060547 235.0252227783203 233.51181030273438 144.1314239501953 178.36734008789062 C 250.57630920410156 167.61721801757812 154.1734619140625 230.57701110839844 201.18060302734375 188.14869689941406 C 268.5462341308594 203.07708740234375 285.4305725097656 245.91619873046875 286.29718017578125 269.8110656738281" stroke-width="0.0" fill="rgb(180, 133, 186)" opacity="0.8392055" stroke="rgb(0, 0, 0)" stroke-opacity="1.0" stroke-linecap="round" stroke-linejoin="round"/>
    <path d="M 462.2236633300781 215.90927124023438 C 326.2294616699219 288.1498107910156 608.5016479492188 236.169921875 509.3683776855469 390.72662353515625 C 179.66571044921875 381.33563232421875 204.40306091308594 392.5905456542969 235.0658721923828 360.2782287597656 C 377.0323486328125 254.4980926513672 395.80047607421875 260.7114562988281 396.9342346191406 271.46075439453125 C 394.1908874511719 232.64608764648438 459.531982421875 185.90232849121094 462.2236633300781 215.90927124023438" stroke-width="0.0" fill="rgb(79, 10, 139)" opacity="0.92195225" stroke="rgb(0, 0, 0)" stroke-opacity="1.0" stroke-linecap="round" stroke-linejoin="round"/>
    <path d="M 171.8792266845703 87.33763122558594 C 250.28456115722656 55.991539001464844 266.3109130859375 129.8447723388672 198.8052215576172 102.39205169677734 C 112.2566146850586 182.79383850097656 -67.8469467163086 335.29052734375 65.49650573730469 28.653541564941406 C 340.7962341308594 41.2760009765625 256.4880065917969 201.26803588867188 131.29653930664062 27.950902938842773 C 341.90838623046875 -53.642112731933594 226.0236053466797 46.97517395019531 171.8792266845703 87.33763122558594" stroke-width="0.0" fill="rgb(180, 16, 254)" opacity="0.9735579" stroke="rgb(0, 0, 0)" stroke-opacity="1.0" stroke-linecap="round" stroke-linejoin="round"/>
    <path d="M 152.72222900390625 422.6917724609375 C 138.06338500976562 397.9127502441406 139.9001922607422 363.2038269042969 126.9520034790039 471.056884765625 C 122.6375961303711 423.4801025390625 131.4589080810547 425.9010009765625 160.42750549316406 358.1651306152344 C 161.62954711914062 312.5707092285156 123.24542236328125 298.5293273925781 143.1693878173828 288.1022644042969 C 119.98088073730469 366.0733947753906 140.83131408691406 366.75079345703125 152.72222900390625 422.6917724609375" stroke-width="0.0" fill="rgb(202, 154, 149)" opacity="0.021921268" stroke="rgb(0, 0, 0)" stroke-opacity="1.0" stroke-linecap="round" stroke-linejoin="round"/>
    <path d="M 398.04107666015625 55.97444152832031 C 385.0674743652344 62.8917121887207 397.9838562011719 101.48233795166016 387.4905090332031 75.98738098144531 C 390.6576232910156 57.68027877807617 395.24652099609375 46.80400848388672 375.5111083984375 87.54535675048828 C 344.37646484375 60.28798294067383 356.2773132324219 31.72161293029785 405.04412841796875 22.8580322265625 C 391.568115234375 51.036983489990234 387.7183532714844 43.67242431640625 398.04107666015625 55.97444152832031" stroke-width="0.0" fill="rgb(153, 99, 245)" opacity="0.0" stroke="rgb(0, 0, 0)" stroke-opacity="1.0" stroke-linecap="round" stroke-linejoin="round"/>
    <path d="M 517.1741333007812 134.03414916992188 C 511.58148193359375 145.98532104492188 483.8890075683594 106.06128692626953 441.5349426269531 83.72994232177734 C 428.7672119140625 68.42520904541016 429.8352355957031 55.763999938964844 396.763916015625 29.450336456298828 C 379.7998352050781 10.947347640991211 396.5975341796875 -34.17746353149414 422.6016540527344 -55.08940124511719 C 514.81689453125 -29.368114471435547 532.2046508789062 -30.254695892333984 517.1741333007812 134.03414916992188" stroke-width="0.0" fill="rgb(16, 12, 19)" opacity="0.94305867" stroke="rgb(0, 0, 0)" stroke-opacity="1.0" stroke-linecap="round" stroke-linejoin="round"/>
    <path d="M 333.1649475097656 504.3155517578125 C 299.4466247558594 533.626220703125 363.3313293457031 498.1413879394531 313.7756652832031 525.7420043945312 C 114.40083312988281 582.19287109375 91.9059066772461 485.1310729980469 127.58190155029297 471.40374755859375 C 158.20274353027344 362.8170166015625 174.08619689941406 338.49420166015625 308.43408203125 319.49615478515625 C 460.55169677734375 298.10333251953125 426.2544250488281 272.9975891113281 333.1649475097656 504.3155517578125" stroke-width="0.0" fill="rgb(230, 144, 221)" opacity="0.98069465" stroke="rgb(0, 0, 0)" stroke-opacity="1.0" stroke-linecap="round" stroke-linejoin="round"/>
    <path d="M 227.49012756347656 279.4739990234375 C 282.1259460449219 348.3839416503906 305.2138366699219 327.9100646972656 248.58627319335938 344.0315246582031 C 144.8952178955078 274.86798095703125 38.8591423034668 229.08958435058594 54.41064453125 230.4388427734375 C 124.90309143066406 178.26837158203125 189.04420471191406 267.63177490234375 262.295166015625 297.2857666015625 C 233.8195343017578 276.2244873046875 184.26406860351562 243.2714385986328 227.49012756347656 279.4739990234375" stroke-width="0.0" fill="rgb(213, 139, 144)" opacity="0.19244893" stroke="rgb(0, 0, 0)" stroke-opacity="1.0" stroke-linecap="round" stroke-linejoin="round"/>
    <path d="M 403.8074645996094 420.2990417480469 C 367.3222961425781 441.0228576660156 264.8485107421875 437.4337463378906 335.81671142578125 532.4508056640625 C 417.39373779296875 507.1376953125 370.92254638671875 456.4014892578125 309.8655700683594 527.2764892578125 C 236.82862854003906 402.2545471191406 242.53048706054688 341.8309631347656 383.639892578125 308.31329345703125 C 397.8978271484375 410.837646484375 398.0603332519531 390.3812561035156 403.8074645996094 420.2990417480469" stroke-width="0.0" fill="rgb(77, 27, 121)" opacity="0.9801898" stroke="rgb(0, 0, 0)" stroke-opacity="1.0" stroke-linecap="round" stroke-linejoin="round"/>
    <path d="M 320.70123291015625 129.7939453125 C 379.9371032714844 110.33061981201172 355.55511474609375 155.47970581054688 302.71722412109375 151.33761596679688 C 229.9503631591797 145.0958709716797 290.3697509765625 185.80007934570312 241.84002685546875 103.54388427734375 C 224.4855194091797 30.515148162841797 276.098876953125 -7.214192867279053 312.9232482910156 47.94940948486328 C 332.0678405761719 102.93712615966797 359.3557434082031 126.29458618164062 320.70123291015625 129.7939453125" stroke-width="0.0" fill="rgb(16, 29, 37)" opacity="0.93232876" stroke="rgb(0, 0, 0)" stroke-opacity="1.0" stroke-linecap="round" stroke-linejoin="round"/>
    <path d="M 446.7434387207031 304.2174377441406 C 288.80755615234375 374.7629089355469 297.0506591796875 402.02947998046875 292.8643798828125 383.96588134765625 C 265.7356872558594 439.958984375 206.77981567382812 369.1770324707031 78.37733459472656 304.4289855957031 C 144.08724975585938 226.0637969970703 170.5029296875 261.26904296875 266.2450256347656 307.2813415527344 C 387.2812805175781 220.1239776611328 590.8978881835938 187.62286376953125 446.7434387207031 304.2174377441406" stroke-width="0.0" fill="rgb(90, 238, 0)" opacity="0.96823835" stroke="rgb(0, 0, 0)" stroke-opacity="1.0" stroke-linecap="round" stroke-linejoin="round"/>
    <path d="M 409.85589599609375 186.50811767578125 C 396.39892578125 193.91416931152344 382.2188720703125 197.6566619873047 380.85186767578125 203.2678680419922 C 385.16290283203125 192.6640167236328 339.35247802734375 210.11160278320312 301.193603515625 213.70730590820312 C 329.8212585449219 194.31800842285156 368.6805419921875 237.97799682617188 343.1192932128906 174.56520080566406 C 391.5077209472656 170.73202514648438 408.4432067871094 191.02651977539062 409.85589599609375 186.50811767578125" stroke-width="0.0" fill="rgb(4, 13, 45)" opacity="0.7950072" stroke="rgb(0, 0, 0)" stroke-opacity="1.0" stroke-linecap="round" stroke-linejoin="round"/>
    <path d="M 459.07574462890625 207.86215209960938 C 455.6127014160156 234.85450744628906 491.5063171386719 207.6182861328125 412.72930908203125 227.13949584960938 C 325.0707092285156 289.0438232421875 324.1651611328125 273.4715576171875 433.69781494140625 210.8677520751953 C 388.9393615722656 207.20932006835938 345.03009033203125 245.0216522216797 358.89947509765625 204.6028289794922 C 459.4179992675781 224.97096252441406 426.3968811035156 220.4309844970703 459.07574462890625 207.86215209960938" stroke-width="0.0" fill="rgb(209, 84, 157)" opacity="0.46803707" stroke="rgb(0, 0, 0)" stroke-opacity="1.0" stroke-linecap="round" stroke-linejoin="round"/>
    <path d="M 196.12496948242188 303.3597106933594 C 139.66693115234375 312.99591064453125 106.32474517822266 355.1980895996094 80.81412506103516 316.51275634765625 C 48.12290954589844 291.9793395996094 92.05045318603516 307.5657043457031 -20.342575073242188 256.51226806640625 C 91.01911163330078 215.41802978515625 57.34046173095703 184.78652954101562 110.4594497680664 223.8890380859375 C 169.9374237060547 261.9452209472656 216.48377990722656 270.8592224121094 196.12496948242188 303.3597106933594" stroke-width="0.0" fill="rgb(74, 253, 0)" opacity="0.99364096" stroke="rgb(0, 0, 0)" stroke-opacity="1.0" stroke-linecap="round" stroke-linejoin="round"/>
    <path d="M 25.096128463745117 98.77904510498047 C 67.44039154052734 92.53380584716797 67.55712890625 82.47393798828125 80.6860580444336 59.16474914550781 C 133.92181396484375 17.58200454711914 174.97406005859375 -25.482467651367188 -2.3640406131744385 -2.567711591720581 C -25.15900993347168 194.12945556640625 16.19371223449707 131.947265625 46.010719299316406 97.80872344970703 C 59.859962463378906 39.792022705078125 21.940153121948242 33.54461669921875 25.096128463745117 98.77904510498047" stroke-width="0.0" fill="rgb(2, 8, 27)" opacity="0.990604" stroke="rgb(0, 0, 0)" stroke-opacity="1.0" stroke-linecap="round" stroke-linejoin="round"/>
    <path d="M 318.513916015625 138.8810272216797 C 337.3097229003906 217.17942810058594 357.93475341796875 214.2948455810547 304.4606018066406 230.1282501220703 C 241.89556884765625 242.6409912109375 277.3031921386719 261.8642883300781 262.5560607910156 170.16912841796875 C 307.7829284667969 144.59461975097656 287.6117858886719 160.2537841796875 285.5697021484375 137.10108947753906 C 291.2100524902344 146.83480834960938 288.7942810058594 157.12054443359375 318.513916015625 138.8810272216797" stroke-width="0.0" fill="rgb(12, 3, 73)" opacity="0.9949679" stroke="rgb(0, 0, 0)" stroke-opacity="1.0" stroke-linecap="round" stroke-linejoin="round"/>
    <path d="M 142.6169891357422 502.1533508300781 C 115.6264877319336 499.63909912109375 140.9793701171875 485.7509460449219 145.4751434326172 492.746337890625 C 126.28244018554688 498.97705078125 104.1805648803711 494.4677429199219 83.96682739257812 472.122314453125 C 74.55691528320312 450.8049011230469 58.726173400878906 397.5266418457031 125.2255859375 392.5343322753906 C 185.86802673339844 438.8514099121094 152.97894287109375 443.80230712890625 142.6169891357422 502.1533508300781" stroke-width="0.0" fill="rgb(123, 91, 147)" opacity="0.75869036" stroke="rgb(0, 0, 0)" stroke-opacity="1.0" stroke-linecap="round" stroke-linejoin="round"/>
    <path d="M 112.06421661376953 212.4532928466797 C 139.85989379882812 255.8556365966797 71.36711883544922 235.8748779296875 82.86178588867188 231.75735473632812 C 91.13988494873047 203.05165100097656 88.4019546508789 196.39663696289062 44.413726806640625 220.0720672607422 C 79.7885513305664 242.97039794921875 77.90020751953125 234.41317749023438 86.09803771972656 177.7568359375 C 160.98486328125 205.76405334472656 146.11468505859375 215.4315185546875 112.06421661376953 212.4532928466797" stroke-width="0.0" fill="rgb(110, 210, 30)" opacity="0.0" stroke="rgb(0, 0, 0)" stroke-opacity="1.0" stroke-linecap="round" stroke-linejoin="round"/>
    <path d="M 106.9503173828125 173.37318420410156 C 120.6452865600586 154.95797729492188 97.9557876586914 140.04751586914062 60.80162048339844 151.11474609375 C 72.8163833618164 201.4471435546875 50.17411422729492 189.07904052734375 55.94061279296875 107.6871337890625 C 41.54698944091797 79.58352661132812 92.99613952636719 81.46730041503906 101.9260025024414 81.2850341796875 C 99.36943817138672 134.5934600830078 102.9706039428711 149.1300811767578 106.9503173828125 173.37318420410156" stroke-width="0.0" fill="rgb(157, 61, 255)" opacity="0.34259322" stroke="rgb(0, 0, 0)" stroke-opacity="1.0" stroke-linecap="round" stroke-linejoin="round"/>
    <path d="M 291.42425537109375 210.8192138671875 C 361.0893249511719 267.7447509765625 335.4197082519531 219.97195434570312 295.5576477050781 192.93370056152344 C 275.63525390625 261.1541748046875 270.2309875488281 254.07106018066406 209.35360717773438 205.76461791992188 C 234.97708129882812 215.41561889648438 231.43789672851562 197.74453735351562 235.96873474121094 195.45668029785156 C 280.3638000488281 188.87387084960938 292.4200134277344 173.75115966796875 291.42425537109375 210.8192138671875" stroke-width="0.0" fill="rgb(23, 0, 96)" opacity="0.008667474" stroke="rgb(0, 0, 0)" stroke-opacity="1.0" stroke-linecap="round" stroke-linejoin="round"/>
    <path d="M 205.37391662597656 98.11599731445312 C 186.2483367919922 94.29574584960938 184.4582977294922 101.78044891357422 219.68887329101562 137.24551391601562 C 218.3057861328125 116.8961410522461 187.40684509277344 173.07032775878906 101.13192749023438 203.5908966064453 C 182.0148162841797 135.00006103515625 206.86622619628906 121.55030822753906 214.78543090820312 80.458251953125 C 223.17404174804688 60.98884963989258 217.98687744140625 68.41842651367188 205.37391662597656 98.11599731445312" stroke-width="0.0" fill="rgb(122, 41, 93)" opacity="0.3143654" stroke="rgb(0, 0, 0)" stroke-opacity="1.0" stroke-linecap="round" stroke-linejoin="round"/>
    <path d="M 130.57627868652344 503.85443115234375 C 78.23259735107422 566.6607055664062 46.46388244628906 551.4386596679688 20.450204849243164 542.2273559570312 C -9.364206314086914 527.7437133789062 -16.68471336364746 520.4232177734375 -57.131370544433594 470.3408508300781 C -50.44163131713867 457.1245422363281 -57.07978820800781 432.4269714355469 8.433296203613281 377.7612609863281 C 71.04435729980469 422.3139343261719 88.82169342041016 436.4737854003906 130.57627868652344 503.85443115234375" stroke-width="0.0" fill="rgb(7, 6, 22)" opacity="0.96756995" stroke="rgb(0, 0, 0)" stroke-opacity="1.0" stroke-linecap="round" stroke-linejoin="round"/>
    <path d="M 218.95042419433594 141.37307739257812 C 240.89111328125 110.88232421875 178.21224975585938 127.62702178955078 130.55477905273438 192.38014221191406 C 57.16667938232422 175.56410217285156 91.11592864990234 202.289794921875 131.00865173339844 164.90438842773438 C 160.22984313964844 219.02685546875 139.3391876220703 209.9093475341797 126.17089080810547 202.46957397460938 C 151.44253540039062 173.31617736816406 119.31847381591797 165.31590270996094 218.95042419433594 141.37307739257812" stroke-width="0.0" fill="rgb(129, 226, 32)" opacity="0.48925537" stroke="rgb(0, 0, 0)" stroke-opacity="1.0" stroke-linecap="round" stroke-linejoin="round"/>
    <path d="M 451.8731384277344 220.89031982421875 C 314.1505126953125 277.1764831542969 303.69769287109375 310.4404602050781 310.2745361328125 292.7214050292969 C 265.39996337890625 296.9930419921875 266.4598693847656 331.62921142578125 275.3304138183594 286.58624267578125 C 273.474365234375 267.0667724609375 295.0567932128906 273.9856262207031 317.32562255859375 236.45037841796875 C 264.29827880859375 295.08837890625 380.12396240234375 165.69998168945312 451.8731384277344 220.89031982421875" stroke-width="0.0" fill="rgb(7, 8, 62)" opacity="0.95431876" stroke="rgb(0, 0, 0)" stroke-opacity="1.0" stroke-linecap="round" stroke-linejoin="round"/>
    <path d="M 248.00750732421875 109.25409698486328 C 237.22279357910156 128.46165466308594 248.86529541015625 107.80231475830078 197.47018432617188 106.89840698242188 C 178.2056427001953 86.71607971191406 155.3922119140625 86.1113510131836 174.42132568359375 132.6181640625 C 190.36831665039062 103.68326568603516 167.33192443847656 62.263057708740234 257.33453369140625 22.09127426147461 C 286.1727600097656 48.084564208984375 258.08917236328125 44.757205963134766 248.00750732421875 109.25409698486328" stroke-width="0.0" fill="rgb(161, 187, 12)" opacity="0.96867865" stroke="rgb(0, 0, 0)" stroke-opacity="1.0" stroke-linecap="round" stroke-linejoin="round"/>
    <path d="M 187.28904724121094 59.93668746948242 C 196.44276428222656 82.00528717041016 199.3690643310547 97.65127563476562 178.7055206298828 91.9351577758789 C 159.11016845703125 65.13927459716797 163.9298095703125 180.5726776123047 132.3054962158203 108.93582153320312 C 97.22415161132812 0.7861356735229492 114.05782318115234 -21.253215789794922 215.94033813476562 10.25063705444336 C 224.07583618164062 82.96271514892578 198.60020446777344 59.46714782714844 187.28904724121094 59.93668746948242" stroke-width="0.0" fill="rgb(125, 0, 255)" opacity="0.99584204" stroke="rgb(0, 0, 0)" stroke-opacity="1.0" stroke-linecap="round" stroke-linejoin="round"/>
    <path d="M 380.834228515625 65.73734283447266 C 381.2483825683594 52.0867919921875 379.14447021484375 58.544921875 387.0623474121094 114.34580993652344 C 375.7852783203125 158.05638122558594 383.1136474609375 127.52104949951172 402.90777587890625 84.70816802978516 C 395.2316589355469 66.09852600097656 407.3110656738281 51.16575241088867 422.36236572265625 64.41162872314453 C 408.7521057128906 95.07347106933594 389.3294372558594 82.82635498046875 380.834228515625 65.73734283447266" stroke-width="0.0" fill="rgb(147, 231, 60)" opacity="0.0" stroke="rgb(0, 0, 0)" stroke-opacity="1.0" stroke-linecap="round" stroke-linejoin="round"/>
    <path d="M 312.20855712890625 512.5518188476562 C 327.678466796875 521.0299072265625 328.10589599609375 513.5931396484375 306.87994384765625 526.4129638671875 C 266.7547912597656 539.2030639648438 268.8484191894531 522.7841186523438 274.8220520019531 436.691650390625 C 252.30209350585938 416.2051086425781 262.2257385253906 395.4985656738281 292.7161865234375 395.28668212890625 C 338.180419921875 433.90887451171875 329.3642883300781 469.8421325683594 312.20855712890625 512.5518188476562" stroke-width="0.0" fill="rgb(65, 22, 145)" opacity="0.8931067" stroke="rgb(0, 0, 0)" stroke-opacity="1.0" stroke-linecap="round" stroke-linejoin="round"/>
    <path d="M 289.10595703125 180.5174102783203 C 292.89007568359375 136.96591186523438 310.2435302734375 155.510498046875 322.0971984863281 212.90293884277344 C 306.3189392089844 129.29833984375 321.3294677734375 137.70945739746094 265.47357177734375 162.81118774414062 C 264.7265319824219 134.596435546875 291.9413146972656 150.69508361816406 287.5790710449219 175.48036193847656 C 279.2337646484375 135.13035583496094 287.61016845703125 154.10049438476562 289.10595703125 180.5174102783203" stroke-width="0.0" fill="rgb(10, 26, 0)" opacity="0.025756916" stroke="rgb(0, 0, 0)" stroke-opacity="1.0" stroke-linecap="round" stroke-linejoin="round"/>
    <path d="M 273.8017578125 31.88829803466797 C 243.61073303222656 58.82112503051758 263.47784423828125 48.37848663330078 296.9847717285156 29.618791580200195 C 263.2572021484375 28.129058837890625 263.6742248535156 0.961959958076477 266.0877685546875 -29.247989654541016 C 261.77978515625 -30.76215171813965 266.6235656738281 -29.333114624023438 268.3055114746094 18.631834030151367 C 252.30223083496094 44.49332809448242 269.6258544921875 39.13416290283203 273.8017578125 31.88829803466797" stroke-width="0.0" fill="rgb(158, 174, 0)" opacity="0.5911541" stroke="rgb(0, 0, 0)" stroke-opacity="1.0" stroke-linecap="round" stroke-linejoin="round"/>
    <path d="M 347.38714599609375 223.60968017578125 C 320.2496337890625 222.99322509765625 320.1842041015625 245.49147033691406 316.22174072265625 245.6487579345703 C 294.2436218261719 267.30670166015625 287.14630126953125 261.1689758300781 300.1893310546875 240.16392517089844 C 337.3041076660156 241.1200408935547 318.0783386230469 239.08204650878906 329.7961120605469 253.3626251220703 C 323.040283203125 242.0679931640625 343.691650390625 235.84205627441406 347.38714599609375 223.60968017578125" stroke-width="0.0" fill="rgb(241, 0, 202)" opacity="0.16528584" stroke="rgb(0, 0, 0)" stroke-opacity="1.0" stroke-linecap="round" stroke-linejoin="round"/>
    <path d="M 190.5438232421875 82.16517639160156 C 175.98248291015625 77.01256561279297 170.57302856445312 87.16063690185547 154.0158233642578 78.25508880615234 C 163.24618530273438 71.80230712890625 178.30316162109375 71.93228149414062 207.718505859375 83.67096710205078 C 165.16380310058594 92.2702407836914 188.192138671875 54.79476547241211 195.68789672851562 85.47209930419922 C 166.29745483398438 88.01628875732422 196.61033630371094 95.67581176757812 190.5438232421875 82.16517639160156" stroke-width="0.0" fill="rgb(147, 203, 121)" opacity="0.0" stroke="rgb(0, 0, 0)" stroke-opacity="1.0" stroke-linecap="round" stroke-linejoin="round"/>
    <path d="M 529.387451171875 431.2486267089844 C 503.38916015625 429.91009521484375 478.9645080566406 461.6656799316406 498.01318359375 456.5969543457031 C 454.77545166015625 463.30450439453125 418.21728515625 492.80938720703125 430.58587646484375 443.47100830078125 C 465.6264953613281 374.75531005859375 452.5267639160156 362.781982421875 518.5321655273438 394.568603515625 C 542.654296875 416.1587219238281 539.8776245117188 428.01318359375 529.387451171875 431.2486267089844" stroke-width="0.0" fill="rgb(8, 7, 57)" opacity="0.77868855" stroke="rgb(0, 0, 0)" stroke-opacity="1.0" stroke-linecap="round" stroke-linejoin="round"/>
    <path d="M 393.530517578125 470.7742919921875 C 411.2631530761719 512.3607788085938 398.8611145019531 533.0897827148438 366.03265380859375 532.4271850585938 C 311.9352111816406 528.1763305664062 335.2957458496094 513.0053100585938 346.4778137207031 458.6638488769531 C 357.9285583496094 471.7579040527344 354.03448486328125 499.1991271972656 337.8804931640625 462.77471923828125 C 362.90716552734375 422.135986328125 368.56219482421875 422.5557861328125 393.530517578125 470.7742919921875" stroke-width="0.0" fill="rgb(19, 0, 49)" opacity="0.9293408" stroke="rgb(0, 0, 0)" stroke-opacity="1.0" stroke-linecap="round" stroke-linejoin="round"/>
    <path d="M 434.9794616699219 415.6261901855469 C 438.20281982421875 406.6263122558594 409.7486267089844 415.6835632324219 406.03466796875 414.5050354003906 C 399.5357666015625 424.77105712890625 398.7777099609375 421.5865478515625 423.0569152832031 384.3941955566406 C 420.0678405761719 383.4855651855469 426.5289611816406 392.8318786621094 453.249267578125 388.55487060546875 C 465.3111267089844 363.1247253417969 444.849609375 388.2342529296875 434.9794616699219 415.6261901855469" stroke-width="0.0" fill="rgb(161, 34, 165)" opacity="0.8984836" stroke="rgb(0, 0, 0)" stroke-opacity="1.0" stroke-linecap="round" stroke-linejoin="round"/>
    <path d="M 441.23779296875 375.2294616699219 C 417.9565124511719 414.0975646972656 414.2342529296875 436.75079345703125 387.6920471191406 432.27362060546875 C 383.58123779296875 429.5321044921875 380.16546630859375 425.7351989746094 374.7557067871094 403.8285827636719 C 372.2406005859375 382.24554443359375 377.632568359375 373.2657470703125 365.8826904296875 373.2204284667969 C 409.4210205078125 382.29107666015625 444.879638671875 372.7926025390625 441.23779296875 375.2294616699219" stroke-width="0.0" fill="rgb(74, 19, 131)" opacity="0.6152283" stroke="rgb(0, 0, 0)" stroke-opacity="1.0" stroke-linecap="round" stroke-linejoin="round"/>
    <path d="M 271.25115966796875 95.81893920898438 C 295.8491516113281 109.98162078857422 234.91583251953125 124.36699676513672 226.7727813720703 140.0888214111328 C 285.7657775878906 184.49462890625 245.6309051513672 158.88919067382812 209.0 139.39842224121094 C 192.34988403320312 113.39251708984375 218.48043823242188 128.9529571533203 265.1566162109375 110.50990295410156 C 275.3302001953125 93.47539520263672 257.9738464355469 118.57227325439453 271.25115966796875 95.81893920898438" stroke-width="0.0" fill="rgb(181, 141, 91)" opacity="0.7807897" stroke="rgb(0, 0, 0)" stroke-opacity="1.0" stroke-linecap="round" stroke-linejoin="round"/>
    <path d="M 88.2386245727539 429.4806213378906 C 112.73509979248047 437.7523498535156 112.8396224975586 435.4713134765625 120.24961853027344 434.1439514160156 C 113.1253662109375 390.2235412597656 106.85599517822266 400.6488952636719 32.53015899658203 418.8980712890625 C 33.14379119873047 403.8162536621094 49.93027114868164 391.949462890625 97.39033508300781 333.72381591796875 C 123.8970718383789 386.7274475097656 120.79439544677734 390.852783203125 88.2386245727539 429.4806213378906" stroke-width="0.0" fill="rgb(154, 116, 169)" opacity="0.24406983" stroke="rgb(0, 0, 0)" stroke-opacity="1.0" stroke-linecap="round" stroke-linejoin="round"/>
    <path d="M 470.2203369140625 94.3343734741211 C 432.77301025390625 90.01603698730469 432.6761474609375 106.39917755126953 417.8946533203125 114.52801513671875 C 398.9745788574219 104.6200942993164 386.5223693847656 94.92143249511719 374.4521789550781 71.47076416015625 C 364.45660400390625 33.95391845703125 381.9234313964844 36.14089584350586 419.0010986328125 38.63158416748047 C 422.5693359375 71.82988739013672 442.99871826171875 69.92294311523438 470.2203369140625 94.3343734741211" stroke-width="0.0" fill="rgb(137, 0, 255)" opacity="0.8276485" stroke="rgb(0, 0, 0)" stroke-opacity="1.0" stroke-linecap="round" stroke-linejoin="round"/>
    <path d="M 193.08285522460938 21.53661346435547 C 220.44874572753906 26.06302261352539 226.78140258789062 22.549673080444336 210.40049743652344 15.364583015441895 C 186.17721557617188 8.685647964477539 207.98741149902344 21.88129425048828 207.61734008789062 22.162094116210938 C 202.41160583496094 18.65300178527832 223.65408325195312 19.63677406311035 211.18289184570312 -7.857463836669922 C 184.6036376953125 1.2634459733963013 185.64944458007812 11.612433433532715 193.08285522460938 21.53661346435547" stroke-width="0.0" fill="rgb(155, 216, 175)" opacity="0.0053169727" stroke="rgb(0, 0, 0)" stroke-opacity="1.0" stroke-linecap="round" stroke-linejoin="round"/>
    <path d="M 517.3929443359375 222.9297332763672 C 537.6915283203125 230.0276336669922 504.04931640625 228.45668029785156 499.6968994140625 203.51107788085938 C 507.329833984375 190.39352416992188 502.8190002441406 171.66250610351562 489.7898864746094 197.41259765625 C 466.7275085449219 165.97055053710938 452.0101318359375 145.79449462890625 513.3129272460938 124.02952575683594 C 522.2014770507812 132.6140594482422 519.1419677734375 166.66647338867188 517.3929443359375 222.9297332763672" stroke-width="0.0" fill="rgb(89, 159, 183)" opacity="0.10285883" stroke="rgb(0, 0, 0)" stroke-opacity="1.0" stroke-linecap="round" stroke-linejoin="round"/>
    <path d="M 427.33544921875 327.7406921386719 C 419.7281494140625 333.2083740234375 404.789306640625 340.95458984375 405.1541442871094 345.98443603515625 C 412.1344909667969 295.7309265136719 418.2108459472656 305.8039855957031 414.2469787597656 307.4530334472656 C 397.52099609375 302.48333740234375 401.60516357421875 296.2552795410156 404.5614929199219 311.3902587890625 C 420.8341369628906 285.3556213378906 435.5544128417969 301.4964294433594 427.33544921875 327.7406921386719" stroke-width="0.0" fill="rgb(120, 155, 132)" opacity="0.013736995" stroke="rgb(0, 0, 0)" stroke-opacity="1.0" stroke-linecap="round" stroke-linejoin="round"/>
    <path d="M 222.59719848632812 256.60479736328125 C 216.0093536376953 294.0677490234375 232.909423828125 290.83392333984375 243.8139190673828 263.7935485839844 C 238.3873291015625 267.1589660644531 206.88720703125 266.8943176269531 214.12026977539062 279.68829345703125 C 194.7677001953125 254.63255310058594 226.7372589111328 252.86668395996094 222.06871032714844 266.4370422363281 C 235.20111083984375 281.15966796875 248.70037841796875 253.9241180419922 222.59719848632812 256.60479736328125" stroke-width="0.0" fill="rgb(223, 77, 191)" opacity="0.52825236" stroke="rgb(0, 0, 0)" stroke-opacity="1.0" stroke-linecap="round" stroke-linejoin="round"/>
    <path d="M 237.5675048828125 287.2776184082031 C 243.8416748046875 307.9410095214844 248.12632751464844 310.3265686035156 262.377197265625 300.2637023925781 C 265.76739501953125 315.6312561035156 255.79551696777344 313.9828186035156 230.52476501464844 289.8188781738281 C 236.91246032714844 316.8439636230469 236.56199645996094 304.1885070800781 258.2322692871094 264.40887451171875 C 266.4737548828125 264.9239807128906 276.80908203125 279.1581115722656 237.5675048828125 287.2776184082031" stroke-width="0.0" fill="rgb(137, 205, 71)" opacity="0.033237997" stroke="rgb(0, 0, 0)" stroke-opacity="1.0" stroke-linecap="round" stroke-linejoin="round"/>
    <path d="M 64.20333099365234 107.77613830566406 C 33.658145904541016 121.48204040527344 13.850414276123047 120.12086486816406 18.533571243286133 147.78384399414062 C 56.30121994018555 154.57083129882812 56.57008743286133 121.43610382080078 35.9310188293457 122.92924499511719 C 12.930560111999512 124.32763671875 33.54916000366211 128.59629821777344 57.57887268066406 127.19750213623047 C 50.499752044677734 147.77760314941406 77.3362808227539 161.8270263671875 64.20333099365234 107.77613830566406" stroke-width="0.0" fill="rgb(132, 134, 139)" opacity="0.07070751" stroke="rgb(0, 0, 0)" stroke-opacity="1.0" stroke-linecap="round" stroke-linejoin="round"/>
    <path d="M 413.168701171875 151.86572265625 C 440.04071044921875 162.56228637695312 399.02740478515625 162.826171875 423.6559143066406 192.75086975097656 C 442.3262023925781 181.83555603027344 418.8494567871094 185.63064575195312 371.7860107421875 177.2920379638672 C 364.9296569824219 130.93479919433594 444.3315734863281 115.76068878173828 413.73193359375 111.21806335449219 C 409.5209655761719 159.0142059326172 426.8796691894531 167.16705322265625 413.168701171875 151.86572265625" stroke-width="0.0" fill="rgb(240, 110, 252)" opacity="0.87614805" stroke="rgb(0, 0, 0)" stroke-opacity="1.0" stroke-linecap="round" stroke-linejoin="round"/>
    <path d="M 96.2387466430664 460.383056640625 C 86.75248718261719 471.4696350097656 82.37016296386719 473.9189758300781 104.8121109008789 475.54473876953125 C 57.97678756713867 526.2135009765625 45.965389251708984 518.1514282226562 37.60733413696289 493.6915588378906 C 36.460418701171875 447.4158020019531 47.75741958618164 442.6132507324219 61.216678619384766 452.63134765625 C 86.70662689208984 455.6475524902344 99.52161407470703 453.5764465332031 96.2387466430664 460.383056640625" stroke-width="0.0" fill="rgb(165, 144, 254)" opacity="0.009105536" stroke="rgb(0, 0, 0)" stroke-opacity="1.0" stroke-linecap="round" stroke-linejoin="round"/>
    <path d="M 530.36181640625 26.767690658569336 C 524.6779174804688 49.52143478393555 517.1227416992188 62.27587127685547 503.9004211425781 62.96527099609375 C 495.52301025390625 45.70686721801758 501.26739501953125 24.783876419067383 500.26995849609375 32.79034423828125 C 481.56243896484375 30.453523635864258 493.9416809082031 53.79813003540039 493.61175537109375 39.90086364746094 C 519.28515625 17.69921112060547 531.218994140625 18.254003524780273 530.36181640625 26.767690658569336" stroke-width="0.0" fill="rgb(11, 0, 4)" opacity="0.0017238265" stroke="rgb(0, 0, 0)" stroke-opacity="1.0" stroke-linecap="round" stroke-linejoin="round"/>
    <path d="M 298.7832946777344 234.98008728027344 C 277.2522888183594 313.0513000488281 291.70556640625 328.7296447753906 284.3800964355469 303.8522644042969 C 279.2997131347656 308.9508972167969 236.99954223632812 297.3736572265625 260.86328125 263.0873718261719 C 313.56146240234375 297.70849609375 296.9477844238281 321.4076843261719 303.47344970703125 285.49725341796875 C 278.3775329589844 306.58587646484375 277.2230529785156 264.2281494140625 298.7832946777344 234.98008728027344" stroke-width="0.0" fill="rgb(0, 10, 126)" opacity="0.10690145" stroke="rgb(0, 0, 0)" stroke-opacity="1.0" stroke-linecap="round" stroke-linejoin="round"/>
    <path d="M 321.8207702636719 94.51031494140625 C 352.2201843261719 112.84209442138672 339.99981689453125 133.4025421142578 307.7153625488281 133.7802734375 C 300.6961364746094 145.03228759765625 298.1754150390625 138.64967346191406 272.5717468261719 104.00858306884766 C 298.0979919433594 111.81044006347656 334.8790588378906 117.34158325195312 332.2770080566406 115.5360336303711 C 317.5199890136719 120.94481658935547 309.3980712890625 120.35556030273438 321.8207702636719 94.51031494140625" stroke-width="0.0" fill="rgb(10, 0, 93)" opacity="0.56930155" stroke="rgb(0, 0, 0)" stroke-opacity="1.0" stroke-linecap="round" stroke-linejoin="round"/>
    <path d="M 156.3434295654297 110.86540985107422 C 128.01145935058594 73.21002197265625 152.56471252441406 103.66448974609375 146.4097900390625 118.07652282714844 C 82.2605972290039 114.01191711425781 73.74884796142578 125.7904281616211 101.02044677734375 109.04139709472656 C 131.23495483398438 66.5184097290039 128.4780731201172 59.78831481933594 139.74542236328125 58.211708068847656 C 129.6556854248047 90.50504302978516 138.8312530517578 92.25376892089844 156.3434295654297 110.86540985107422" stroke-width="0.0" fill="rgb(250, 148, 255)" opacity="0.94540894" stroke="rgb(0, 0, 0)" stroke-opacity="1.0" stroke-linecap="round" stroke-linejoin="round"/>
    <path d="M 443.0816345214844 445.46246337890625 C 456.4123229980469 500.1617736816406 457.5998840332031 521.817626953125 432.7453308105469 541.9616088867188 C 418.6707763671875 522.456298828125 418.49896240234375 500.51202392578125 422.4560241699219 466.5960693359375 C 402.2304382324219 449.2051696777344 392.8251647949219 439.7018737792969 429.4234313964844 445.6903076171875 C 445.32421875 466.9932556152344 431.3221435546875 465.67327880859375 443.0816345214844 445.46246337890625" stroke-width="0.0" fill="rgb(86, 111, 96)" opacity="0.00093035726" stroke="rgb(0, 0, 0)" stroke-opacity="1.0" stroke-linecap="round" stroke-linejoin="round"/>
    <path d="M 228.4499969482422 63.89939880371094 C 217.71987915039062 96.03495025634766 225.96200561523438 125.73236083984375 195.6092071533203 120.99821472167969 C 201.285888671875 69.07528686523438 186.3035888671875 62.11166763305664 124.73748779296875 76.77607727050781 C 155.55520629882812 59.186065673828125 185.73915100097656 71.17569732666016 158.35655212402344 91.06795501708984 C 181.04908752441406 109.57418060302734 214.42807006835938 82.1527099609375 228.4499969482422 63.89939880371094" stroke-width="0.0" fill="rgb(175, 241, 52)" opacity="0.0067235865" stroke="rgb(0, 0, 0)" stroke-opacity="1.0" stroke-linecap="round" stroke-linejoin="round"/>
    <path d="M 318.3811950683594 182.0189971923828 C 252.7971649169922 205.56553649902344 244.87042236328125 195.6217803955078 251.9537353515625 237.69400024414062 C 268.39801025390625 246.15872192382812 244.10496520996094 234.02755737304688 242.4487762451172 193.08128356933594 C 240.0304412841797 179.4779052734375 274.9108581542969 219.7096405029297 284.00067138671875 195.63412475585938 C 282.4512634277344 189.8118133544922 310.0482482910156 170.7177734375 318.3811950683594 182.0189971923828" stroke-width="0.0" fill="rgb(148, 214, 0)" opacity="0.96311235" stroke="rgb(0, 0, 0)" stroke-opacity="1.0" stroke-linecap="round" stroke-linejoin="round"/>
    <path d="M 457.584716796875 -35.67791748046875 C 443.2765197753906 -33.39791488647461 459.2147521972656 1.8237756490707397 462.44464111328125 35.428340911865234 C 443.8085021972656 10.895721435546875 450.78314208984375 -10.299528121948242 451.5247497558594 -21.897037506103516 C 443.02642822265625 -11.118226051330566 452.07421875 -16.323915481567383 464.5194396972656 -17.583200454711914 C 476.8262023925781 -16.114213943481445 486.2515869140625 -11.2457275390625 457.584716796875 -35.67791748046875" stroke-width="0.0" fill="rgb(0, 27, 47)" opacity="0.049601346" stroke="rgb(0, 0, 0)" stroke-opacity="1.0" stroke-linecap="round" stroke-linejoin="round"/>
    <path d="M 155.39317321777344 419.05718994140625 C 166.0334014892578 454.57080078125 152.68588256835938 479.9319763183594 166.14627075195312 440.2181396484375 C 183.24163818359375 442.7886657714844 166.8317108154297 423.71636962890625 111.27462768554688 417.97979736328125 C 109.35940551757812 428.74560546875 128.1641082763672 429.58013916015625 113.47461700439453 430.2814636230469 C 142.7057647705078 458.48681640625 151.90655517578125 450.8846130371094 155.39317321777344 419.05718994140625" stroke-width="0.0" fill="rgb(206, 225, 248)" opacity="0.09237979" stroke="rgb(0, 0, 0)" stroke-opacity="1.0" stroke-linecap="round" stroke-linejoin="round"/>
  </g>
</svg>
