<?xml version="1.0" ?>
<svg xmlns="http://www.w3.org/2000/svg" version="1.1" width="512" height="512">
  <defs/>
  <g>
    <path d="M 544.37939453125 450.69970703125 C 548.0579833984375 517.3278198242188 548.9373779296875 525.5354614257812 386.9953308105469 532.4586181640625 C 307.0445251464844 572.7276611328125 284.99908447265625 582.8389282226562 289.1545715332031 512.0946655273438 C 355.7792053222656 348.98291015625 393.074462890625 346.39202880859375 492.8146057128906 299.18951416015625 C 571.8778076171875 303.2676086425781 573.6166381835938 320.88372802734375 544.37939453125 450.69970703125" stroke-width="0.0" fill="rgb(140, 1, 60)" opacity="0.84645075" stroke="rgb(0, 0, 0)" stroke-opacity="1.0" stroke-linecap="round" stroke-linejoin="round"/>
    <path d="M 240.68980407714844 477.23480224609375 C 285.2351989746094 552.5352783203125 287.5403137207031 562.031005859375 97.4411849975586 550.4171142578125 C -51.20000076293945 517.7235107421875 -51.20000076293945 507.83367919921875 -21.774600982666016 449.183837890625 C -18.38620376586914 205.44985961914062 -18.693912506103516 199.01014709472656 -35.05648422241211 275.7331848144531 C 180.94586181640625 331.39111328125 232.95101928710938 256.965576171875 240.68980407714844 477.23480224609375" stroke-width="0.0" fill="rgb(0, 0, 192)" opacity="1.0" stroke="rgb(0, 0, 0)" stroke-opacity="1.0" stroke-linecap="round" stroke-linejoin="round"/>
    <path d="M 248.9635009765625 295.9834289550781 C 172.9093780517578 400.4638977050781 201.7613067626953 443.0596618652344 201.8448028564453 353.79949951171875 C 71.42428588867188 327.4122009277344 3.725541114807129 396.8807067871094 8.441422462463379 199.8386688232422 C 23.301088333129883 179.2950897216797 25.236162185668945 166.1746368408203 114.43592071533203 102.38434600830078 C 274.781982421875 112.97749328613281 286.39666748046875 104.59722900390625 248.9635009765625 295.9834289550781" stroke-width="0.0" fill="rgb(195, 255, 101)" opacity="0.94435936" stroke="rgb(0, 0, 0)" stroke-opacity="1.0" stroke-linecap="round" stroke-linejoin="round"/>
    <path d="M 300.53265380859375 61.19792556762695 C 298.6685485839844 223.4461212158203 244.80978393554688 178.59539794921875 45.20933532714844 196.69664001464844 C -29.775787353515625 189.5155487060547 -34.76112747192383 183.94361877441406 -36.0238151550293 61.708587646484375 C -14.989005088806152 -15.722881317138672 -7.218327522277832 -19.66063117980957 126.01265716552734 -73.78244018554688 C 229.03712463378906 -61.413272857666016 226.34620666503906 -49.249427795410156 300.53265380859375 61.19792556762695" stroke-width="0.0" fill="rgb(22, 26, 188)" opacity="0.96733725" stroke="rgb(0, 0, 0)" stroke-opacity="1.0" stroke-linecap="round" stroke-linejoin="round"/>
    <path d="M 548.9259033203125 64.84296417236328 C 452.9197082519531 298.515380859375 454.35321044921875 299.86529541015625 414.3841247558594 318.13763427734375 C 275.1843566894531 326.7462463378906 242.6178741455078 330.433349609375 247.93959045410156 205.10226440429688 C 231.3382110595703 67.57644653320312 210.60150146484375 -11.014006614685059 319.28448486328125 -72.07803344726562 C 563.2000122070312 -6.244815349578857 563.2000122070312 4.452378749847412 548.9259033203125 64.84296417236328" stroke-width="0.0" fill="rgb(15, 2, 163)" opacity="0.9170057" stroke="rgb(0, 0, 0)" stroke-opacity="1.0" stroke-linecap="round" stroke-linejoin="round"/>
    <path d="M 506.7466125488281 337.2170104980469 C 490.5934143066406 409.607666015625 486.5784912109375 473.58843994140625 262.1978454589844 533.5248413085938 C 135.62889099121094 474.6117858886719 185.7275848388672 481.0727233886719 238.10293579101562 484.6097717285156 C 217.48912048339844 210.8778839111328 285.2652587890625 209.25897216796875 331.1806945800781 247.38211059570312 C 420.0989685058594 276.3720703125 478.49200439453125 262.7146301269531 506.7466125488281 337.2170104980469" stroke-width="0.0" fill="rgb(74, 17, 104)" opacity="1.0" stroke="rgb(0, 0, 0)" stroke-opacity="1.0" stroke-linecap="round" stroke-linejoin="round"/>
    <path d="M 545.935546875 201.2795867919922 C 561.7129516601562 311.3860168457031 559.455810546875 317.92108154296875 464.76806640625 313.3779602050781 C 385.10003662109375 322.60369873046875 424.7940979003906 323.6077880859375 414.3691101074219 238.54197692871094 C 429.24395751953125 100.13029479980469 383.5643005371094 90.38639831542969 520.8178100585938 72.00243377685547 C 570.2534790039062 60.839534759521484 578.611083984375 106.77448272705078 545.935546875 201.2795867919922" stroke-width="0.0" fill="rgb(103, 9, 96)" opacity="0.9993912" stroke="rgb(0, 0, 0)" stroke-opacity="1.0" stroke-linecap="round" stroke-linejoin="round"/>
    <path d="M 269.6653137207031 266.23077392578125 C 267.18597412109375 279.46307373046875 283.8326416015625 338.1686096191406 224.71495056152344 346.3701171875 C 225.7151641845703 287.4879455566406 244.48336791992188 287.7323913574219 196.45486450195312 238.2241668701172 C 136.31402587890625 185.24061584472656 122.93915557861328 186.81591796875 271.1412353515625 182.0614471435547 C 323.46881103515625 220.38955688476562 270.04248046875 243.4284210205078 269.6653137207031 266.23077392578125" stroke-width="0.0" fill="rgb(255, 255, 0)" opacity="1.0" stroke="rgb(0, 0, 0)" stroke-opacity="1.0" stroke-linecap="round" stroke-linejoin="round"/>
    <path d="M 270.5908508300781 97.14381408691406 C 262.2979431152344 105.1635971069336 247.3302764892578 109.79376220703125 269.1621398925781 116.0818862915039 C 265.6687927246094 100.74243927001953 229.82302856445312 121.22994232177734 205.4001922607422 90.7498779296875 C 221.3942108154297 77.04280090332031 217.25245666503906 54.180274963378906 226.56922912597656 105.81067657470703 C 248.44540405273438 112.77225494384766 283.9215393066406 80.75055694580078 270.5908508300781 97.14381408691406" stroke-width="0.0" fill="rgb(87, 74, 254)" opacity="0.28493017" stroke="rgb(0, 0, 0)" stroke-opacity="1.0" stroke-linecap="round" stroke-linejoin="round"/>
    <path d="M 219.3533172607422 333.34515380859375 C 196.9039764404297 466.1863708496094 218.79696655273438 479.1767883300781 194.12301635742188 472.30242919921875 C 195.0590362548828 411.4297180175781 199.09844970703125 355.66888427734375 167.91529846191406 300.2117614746094 C 191.73208618164062 299.34124755859375 165.40223693847656 317.3180236816406 183.57772827148438 311.2723693847656 C 167.58572387695312 317.5678405761719 179.6185760498047 324.3101501464844 219.3533172607422 333.34515380859375" stroke-width="0.0" fill="rgb(255, 255, 149)" opacity="1.0" stroke="rgb(0, 0, 0)" stroke-opacity="1.0" stroke-linecap="round" stroke-linejoin="round"/>
    <path d="M 244.71453857421875 199.32940673828125 C 238.11448669433594 265.32891845703125 240.4886016845703 340.8381652832031 236.09002685546875 323.2830505371094 C 147.43727111816406 362.62677001953125 262.2193908691406 348.8924255371094 220.826416015625 286.5829772949219 C 91.78616333007812 111.73408508300781 24.772113800048828 132.05772399902344 233.303955078125 52.53036880493164 C 151.61146545410156 167.9118194580078 205.90548706054688 94.56576538085938 244.71453857421875 199.32940673828125" stroke-width="0.0" fill="rgb(255, 255, 13)" opacity="0.9889632" stroke="rgb(0, 0, 0)" stroke-opacity="1.0" stroke-linecap="round" stroke-linejoin="round"/>
    <path d="M 214.78860473632812 271.33721923828125 C 48.277957916259766 251.23965454101562 19.73301887512207 258.6351623535156 68.93037414550781 312.14617919921875 C 103.49526977539062 416.9021301269531 85.83000183105469 402.82666015625 -9.039618492126465 278.3957214355469 C -37.21846389770508 59.683719635009766 -11.34722900390625 96.30551147460938 108.95276641845703 109.8934555053711 C 204.20645141601562 183.0717315673828 253.23643493652344 203.00421142578125 214.78860473632812 271.33721923828125" stroke-width="0.0" fill="rgb(0, 2, 188)" opacity="1.0" stroke="rgb(0, 0, 0)" stroke-opacity="1.0" stroke-linecap="round" stroke-linejoin="round"/>
    <path d="M 231.50021362304688 49.41798400878906 C 232.01715087890625 131.98776245117188 258.73040771484375 153.50973510742188 182.4691162109375 132.7234649658203 C 182.0564422607422 128.9038848876953 102.92694854736328 128.42965698242188 55.58389663696289 56.74333190917969 C 79.86725616455078 -42.868507385253906 83.18941497802734 -56.57810974121094 169.75265502929688 -15.783589363098145 C 177.70416259765625 7.655246734619141 171.6614532470703 32.553245544433594 231.50021362304688 49.41798400878906" stroke-width="0.0" fill="rgb(13, 16, 179)" opacity="1.0" stroke="rgb(0, 0, 0)" stroke-opacity="1.0" stroke-linecap="round" stroke-linejoin="round"/>
    <path d="M 265.9361572265625 198.2891082763672 C 350.5823669433594 225.33670043945312 346.9744873046875 251.17616271972656 249.8197479248047 239.3555908203125 C 203.89019775390625 195.49819946289062 327.73675537109375 200.917236328125 253.069580078125 122.79984283447266 C 240.11636352539062 99.90145111083984 258.73583984375 152.615966796875 296.5810546875 135.26080322265625 C 301.96832275390625 188.20199584960938 292.9283752441406 168.4288787841797 265.9361572265625 198.2891082763672" stroke-width="0.0" fill="rgb(255, 255, 0)" opacity="0.9496159" stroke="rgb(0, 0, 0)" stroke-opacity="1.0" stroke-linecap="round" stroke-linejoin="round"/>
    <path d="M 84.85851287841797 277.1613464355469 C 102.3539047241211 316.11187744140625 141.45741271972656 299.03143310546875 75.1615219116211 362.6683044433594 C 86.7633285522461 356.6200866699219 98.63033294677734 377.26983642578125 126.6099853515625 294.380859375 C 74.6690444946289 313.8504333496094 85.7841796875 343.6387634277344 63.17829132080078 323.266845703125 C 46.40708923339844 351.9925537109375 12.45882797241211 248.2791748046875 84.85851287841797 277.1613464355469" stroke-width="0.0" fill="rgb(255, 255, 3)" opacity="1.0" stroke="rgb(0, 0, 0)" stroke-opacity="1.0" stroke-linecap="round" stroke-linejoin="round"/>
    <path d="M 216.23072814941406 82.91446685791016 C 232.41531372070312 127.52513122558594 196.8061065673828 98.01488494873047 220.36180114746094 109.36558532714844 C 243.08534240722656 51.51952362060547 237.1503448486328 145.6230010986328 177.8542938232422 105.46541595458984 C 241.500244140625 142.2599334716797 216.42298889160156 69.7812271118164 203.94017028808594 55.47914123535156 C 180.67832946777344 46.19414138793945 214.65452575683594 58.092750549316406 216.23072814941406 82.91446685791016" stroke-width="0.0" fill="rgb(23, 27, 164)" opacity="0.049694303" stroke="rgb(0, 0, 0)" stroke-opacity="1.0" stroke-linecap="round" stroke-linejoin="round"/>
    <path d="M 293.69134521484375 458.2513122558594 C 286.52728271484375 454.0575256347656 275.1105041503906 445.43316650390625 258.6294250488281 454.5646667480469 C 269.1089172363281 477.87005615234375 241.0482635498047 490.0292663574219 242.2769775390625 455.3754577636719 C 193.9853515625 271.5706787109375 225.61184692382812 287.58441162109375 253.26022338867188 448.1300048828125 C 289.00238037109375 460.03485107421875 287.6017150878906 462.95867919921875 293.69134521484375 458.2513122558594" stroke-width="0.0" fill="rgb(253, 255, 68)" opacity="0.9821102" stroke="rgb(0, 0, 0)" stroke-opacity="1.0" stroke-linecap="round" stroke-linejoin="round"/>
    <path d="M 159.3041229248047 274.2121887207031 C 156.04527282714844 253.95213317871094 146.73207092285156 294.3899841308594 151.87884521484375 292.743896484375 C 177.01806640625 264.5381164550781 166.50250244140625 262.9190368652344 72.67926025390625 297.7821350097656 C 126.12855529785156 348.6697998046875 158.06167602539062 344.191650390625 154.00491333007812 295.3736267089844 C 157.846923828125 288.4136657714844 146.6781768798828 284.6660461425781 159.3041229248047 274.2121887207031" stroke-width="0.0" fill="rgb(181, 250, 121)" opacity="0.7145969" stroke="rgb(0, 0, 0)" stroke-opacity="1.0" stroke-linecap="round" stroke-linejoin="round"/>
    <path d="M 199.33714294433594 105.25894927978516 C 185.11004638671875 98.14183044433594 192.34059143066406 115.89997863769531 162.93710327148438 138.59510803222656 C 153.5823974609375 153.6545867919922 179.64878845214844 147.06204223632812 172.53970336914062 97.1061019897461 C 191.78976440429688 102.94451141357422 188.77943420410156 77.57191467285156 190.31411743164062 96.0047836303711 C 178.5139923095703 89.99385833740234 183.2057342529297 108.80693054199219 199.33714294433594 105.25894927978516" stroke-width="0.0" fill="rgb(186, 123, 109)" opacity="0.5775566" stroke="rgb(0, 0, 0)" stroke-opacity="1.0" stroke-linecap="round" stroke-linejoin="round"/>
    <path d="M 359.9542541503906 271.4588623046875 C 364.3524475097656 282.4563293457031 388.87628173828125 277.95013427734375 322.55206298828125 273.0828552246094 C 246.41416931152344 277.40081787109375 263.8927917480469 268.8876037597656 308.46746826171875 240.7797393798828 C 315.0371398925781 229.81686401367188 328.1385803222656 226.7779083251953 344.4448547363281 238.6675262451172 C 362.6349182128906 234.0920867919922 366.62353515625 241.62490844726562 359.9542541503906 271.4588623046875" stroke-width="0.0" fill="rgb(74, 4, 187)" opacity="0.8047457" stroke="rgb(0, 0, 0)" stroke-opacity="1.0" stroke-linecap="round" stroke-linejoin="round"/>
    <path d="M 173.9434356689453 304.51751708984375 C 181.09278869628906 320.5575866699219 160.0856475830078 331.9302062988281 166.13133239746094 287.5522766113281 C 147.13055419921875 271.1329040527344 148.6123809814453 307.77593994140625 161.6548614501953 278.7197265625 C 206.30043029785156 274.21240234375 221.78396606445312 290.1986999511719 230.3764190673828 217.0408935546875 C 235.64817810058594 255.9448699951172 214.70852661132812 267.7606506347656 173.9434356689453 304.51751708984375" stroke-width="0.0" fill="rgb(171, 247, 160)" opacity="0.6166862" stroke="rgb(0, 0, 0)" stroke-opacity="1.0" stroke-linecap="round" stroke-linejoin="round"/>
    <path d="M 204.52938842773438 76.25070190429688 C 207.84719848632812 96.64419555664062 194.39683532714844 114.46310424804688 153.00462341308594 103.5017318725586 C 184.53062438964844 77.21548461914062 190.55479431152344 78.53217315673828 188.09829711914062 37.75115966796875 C 171.09219360351562 36.23647689819336 185.31533813476562 28.173301696777344 182.52972412109375 45.4825325012207 C 186.45831298828125 42.55506896972656 213.0379638671875 57.79069137573242 204.52938842773438 76.25070190429688" stroke-width="0.0" fill="rgb(254, 254, 20)" opacity="0.99935424" stroke="rgb(0, 0, 0)" stroke-opacity="1.0" stroke-linecap="round" stroke-linejoin="round"/>
    <path d="M 288.4565734863281 467.61712646484375 C 262.339111328125 474.6974182128906 274.7554626464844 458.62506103515625 267.7684326171875 482.1001281738281 C 238.57875061035156 480.1461486816406 226.13075256347656 458.6452941894531 238.0068817138672 478.0506286621094 C 236.9532470703125 435.78460693359375 228.35946655273438 475.57879638671875 258.25042724609375 479.8352966308594 C 262.824462890625 436.0978698730469 238.5085906982422 427.9476013183594 288.4565734863281 467.61712646484375" stroke-width="0.0" fill="rgb(84, 0, 132)" opacity="0.8745042" stroke="rgb(0, 0, 0)" stroke-opacity="1.0" stroke-linecap="round" stroke-linejoin="round"/>
    <path d="M 367.29638671875 243.66542053222656 C 384.7372741699219 253.73095703125 375.4106750488281 255.3199920654297 366.9559631347656 243.05084228515625 C 310.9207763671875 241.44142150878906 303.364013671875 260.8113708496094 276.07977294921875 237.53517150878906 C 293.68975830078125 242.67788696289062 311.9966735839844 233.10281372070312 347.1856689453125 236.2863006591797 C 371.288330078125 238.96624755859375 357.8697509765625 241.24649047851562 367.29638671875 243.66542053222656" stroke-width="0.0" fill="rgb(69, 2, 176)" opacity="0.22044644" stroke="rgb(0, 0, 0)" stroke-opacity="1.0" stroke-linecap="round" stroke-linejoin="round"/>
    <path d="M 195.32212829589844 148.66964721679688 C 205.0073699951172 189.8651885986328 189.6530303955078 182.9422607421875 142.69940185546875 158.61407470703125 C 118.08218383789062 147.6714324951172 103.14215850830078 144.8808135986328 96.93559265136719 133.0236053466797 C 87.60325622558594 98.75769805908203 82.55880737304688 79.53412628173828 104.88883209228516 79.12139892578125 C 169.13687133789062 51.59074783325195 204.09024047851562 67.7262191772461 195.32212829589844 148.66964721679688" stroke-width="0.0" fill="rgb(255, 254, 15)" opacity="0.9993104" stroke="rgb(0, 0, 0)" stroke-opacity="1.0" stroke-linecap="round" stroke-linejoin="round"/>
    <path d="M 112.16082763671875 343.5577697753906 C 79.47777557373047 373.9615478515625 76.77191162109375 354.63739013671875 87.0271987915039 483.14947509765625 C 48.72645568847656 446.0433349609375 49.22074508666992 343.18719482421875 69.20940399169922 342.3805236816406 C 66.9000015258789 294.5171203613281 72.37030792236328 323.00494384765625 106.18061065673828 333.3585510253906 C 124.35396575927734 279.9680480957031 138.633544921875 328.51055908203125 112.16082763671875 343.5577697753906" stroke-width="0.0" fill="rgb(255, 255, 28)" opacity="1.0" stroke="rgb(0, 0, 0)" stroke-opacity="1.0" stroke-linecap="round" stroke-linejoin="round"/>
    <path d="M 128.09609985351562 418.5882568359375 C 151.590576171875 453.3082580566406 153.080810546875 458.9595947265625 125.66915130615234 466.54644775390625 C 129.14834594726562 455.29266357421875 125.1569595336914 453.4994201660156 124.24089050292969 415.739501953125 C 117.2640609741211 400.3734130859375 101.1372299194336 394.04510498046875 83.57011413574219 385.52294921875 C 88.74781799316406 384.19091796875 94.1076889038086 390.6713562011719 128.09609985351562 418.5882568359375" stroke-width="0.0" fill="rgb(191, 167, 182)" opacity="0.60455537" stroke="rgb(0, 0, 0)" stroke-opacity="1.0" stroke-linecap="round" stroke-linejoin="round"/>
    <path d="M 188.5500030517578 155.7284393310547 C 161.89239501953125 155.25062561035156 150.1175537109375 97.41663360595703 88.08666229248047 66.80318450927734 C 66.84249114990234 141.3397674560547 87.57865905761719 145.0824432373047 81.21698760986328 134.0751495361328 C 90.44534301757812 117.70793914794922 81.94192504882812 142.5105438232422 141.626953125 160.82786560058594 C 84.8729248046875 75.74274444580078 157.8129119873047 69.99653625488281 188.5500030517578 155.7284393310547" stroke-width="0.0" fill="rgb(6, 5, 80)" opacity="0.97099566" stroke="rgb(0, 0, 0)" stroke-opacity="1.0" stroke-linecap="round" stroke-linejoin="round"/>
    <path d="M 73.16507720947266 116.92994689941406 C 70.38642883300781 112.99458312988281 75.47459411621094 128.90293884277344 1.0049601793289185 123.07758331298828 C 4.634305477142334 127.81633758544922 32.09868240356445 117.1598892211914 31.131637573242188 144.86895751953125 C 25.320363998413086 136.1607208251953 57.43246841430664 139.1938934326172 39.834102630615234 120.681884765625 C 70.91240692138672 97.85855865478516 77.30146789550781 89.7313003540039 73.16507720947266 116.92994689941406" stroke-width="0.0" fill="rgb(3, 16, 126)" opacity="0.017842906" stroke="rgb(0, 0, 0)" stroke-opacity="1.0" stroke-linecap="round" stroke-linejoin="round"/>
    <path d="M 24.06022071838379 326.525390625 C 37.77101135253906 351.3567199707031 36.633235931396484 342.449951171875 42.70266342163086 328.1842956542969 C 34.31510543823242 334.135986328125 25.651704788208008 321.2699279785156 38.97761917114258 312.7690124511719 C 21.432340621948242 307.6319580078125 36.25642395019531 297.193603515625 54.84614944458008 296.8626403808594 C 50.242774963378906 315.93353271484375 49.290748596191406 333.4214782714844 24.06022071838379 326.525390625" stroke-width="0.0" fill="rgb(0, 9, 187)" opacity="0.12123676" stroke="rgb(0, 0, 0)" stroke-opacity="1.0" stroke-linecap="round" stroke-linejoin="round"/>
    <path d="M 374.58624267578125 205.0630340576172 C 374.8832702636719 282.82232666015625 387.3550109863281 280.2035217285156 361.8132629394531 266.2559814453125 C 356.2831726074219 207.50465393066406 350.8968811035156 268.5509338378906 363.19708251953125 236.40426635742188 C 386.4390869140625 198.3042755126953 380.01800537109375 221.2179718017578 388.1357116699219 209.59490966796875 C 406.72662353515625 186.87965393066406 392.99609375 164.2302703857422 374.58624267578125 205.0630340576172" stroke-width="0.0" fill="rgb(111, 136, 59)" opacity="0.65518904" stroke="rgb(0, 0, 0)" stroke-opacity="1.0" stroke-linecap="round" stroke-linejoin="round"/>
    <path d="M 224.19729614257812 241.64234924316406 C 215.90916442871094 269.63201904296875 206.6939239501953 275.90667724609375 188.76951599121094 263.27447509765625 C 185.9927520751953 268.9276123046875 199.38818359375 274.6370544433594 196.52566528320312 286.3586730957031 C 190.81439208984375 270.1764221191406 187.508544921875 265.51531982421875 191.477783203125 277.00994873046875 C 186.9820556640625 299.40087890625 207.07862854003906 276.6270446777344 224.19729614257812 241.64234924316406" stroke-width="0.0" fill="rgb(162, 124, 85)" opacity="0.030953955" stroke="rgb(0, 0, 0)" stroke-opacity="1.0" stroke-linecap="round" stroke-linejoin="round"/>
    <path d="M 213.1084747314453 224.44757080078125 C 211.82501220703125 245.3020477294922 222.1327667236328 265.3938903808594 223.8512725830078 279.1629333496094 C 190.41336059570312 277.4661865234375 168.04026794433594 276.9903869628906 181.6929473876953 289.5849914550781 C 230.19375610351562 276.9161376953125 220.16171264648438 261.5671081542969 230.901123046875 227.3614959716797 C 224.72386169433594 183.27523803710938 236.92840576171875 171.8353729248047 213.1084747314453 224.44757080078125" stroke-width="0.0" fill="rgb(199, 129, 0)" opacity="0.0" stroke="rgb(0, 0, 0)" stroke-opacity="1.0" stroke-linecap="round" stroke-linejoin="round"/>
    <path d="M 223.55401611328125 314.26055908203125 C 221.7845916748047 345.8778076171875 201.8420867919922 353.39312744140625 184.70071411132812 347.2658996582031 C 174.04122924804688 323.4296569824219 168.55433654785156 323.7610778808594 174.69314575195312 324.56890869140625 C 190.26312255859375 323.0590515136719 180.55189514160156 304.2926025390625 146.94760131835938 324.0074768066406 C 189.99282836914062 350.0674743652344 183.69911193847656 339.8892517089844 223.55401611328125 314.26055908203125" stroke-width="0.0" fill="rgb(147, 252, 91)" opacity="0.6671384" stroke="rgb(0, 0, 0)" stroke-opacity="1.0" stroke-linecap="round" stroke-linejoin="round"/>
    <path d="M 75.36751556396484 153.75897216796875 C 74.15682983398438 161.4892578125 84.52876281738281 139.99388122558594 71.05288696289062 122.14450073242188 C 97.29446411132812 151.5469207763672 79.59754180908203 147.06246948242188 37.18795394897461 133.863037109375 C 20.177490234375 130.9488067626953 13.780095100402832 106.14603424072266 69.94344329833984 104.06803131103516 C 82.56311798095703 60.17637252807617 90.58377075195312 97.04830932617188 75.36751556396484 153.75897216796875" stroke-width="0.0" fill="rgb(22, 23, 181)" opacity="0.06445826" stroke="rgb(0, 0, 0)" stroke-opacity="1.0" stroke-linecap="round" stroke-linejoin="round"/>
    <path d="M 67.61388397216797 113.88477325439453 C 57.19598388671875 125.1822280883789 61.9680290222168 128.22108459472656 21.576719284057617 133.59274291992188 C -6.485776901245117 167.4175262451172 -2.1534230709075928 151.03428649902344 -8.23498249053955 120.22876739501953 C -16.896814346313477 102.96321868896484 -22.429176330566406 96.49847412109375 -5.267865180969238 91.902587890625 C 22.377492904663086 111.51498413085938 70.19189453125 98.77608489990234 67.61388397216797 113.88477325439453" stroke-width="0.0" fill="rgb(3, 34, 159)" opacity="0.19057398" stroke="rgb(0, 0, 0)" stroke-opacity="1.0" stroke-linecap="round" stroke-linejoin="round"/>
    <path d="M 92.99436950683594 151.01988220214844 C 105.94022369384766 163.0621795654297 112.86986541748047 205.33737182617188 115.83068084716797 189.34234619140625 C 121.5745620727539 155.29254150390625 128.1654052734375 130.93551635742188 75.38750457763672 130.7610626220703 C 71.5430908203125 128.27032470703125 88.2442626953125 126.43041229248047 100.72464752197266 133.07568359375 C 93.57341766357422 118.50016784667969 87.24788665771484 141.6739044189453 92.99436950683594 151.01988220214844" stroke-width="0.0" fill="rgb(0, 9, 86)" opacity="0.022671811" stroke="rgb(0, 0, 0)" stroke-opacity="1.0" stroke-linecap="round" stroke-linejoin="round"/>
    <path d="M 401.1683044433594 222.79933166503906 C 401.90679931640625 211.48680114746094 360.0890808105469 230.35581970214844 367.446044921875 239.90927124023438 C 368.34539794921875 205.89405822753906 367.37249755859375 199.2790985107422 375.0826416015625 190.90878295898438 C 368.7400207519531 207.49853515625 380.46136474609375 195.03811645507812 391.05938720703125 178.42864990234375 C 387.7349548339844 191.57064819335938 400.1718444824219 179.5423583984375 401.1683044433594 222.79933166503906" stroke-width="0.0" fill="rgb(16, 83, 205)" opacity="0.57308215" stroke="rgb(0, 0, 0)" stroke-opacity="1.0" stroke-linecap="round" stroke-linejoin="round"/>
    <path d="M 286.49200439453125 201.94252014160156 C 320.11859130859375 199.61236572265625 307.40325927734375 199.32420349121094 279.0240478515625 200.00067138671875 C 271.47760009765625 178.08389282226562 273.25408935546875 186.10247802734375 312.47235107421875 151.45074462890625 C 338.8726806640625 101.24274444580078 261.9300537109375 75.15059661865234 372.1730041503906 70.98812103271484 C 377.3558044433594 174.09375 256.25933837890625 172.7533721923828 286.49200439453125 201.94252014160156" stroke-width="0.0" fill="rgb(248, 228, 37)" opacity="0.9650146" stroke="rgb(0, 0, 0)" stroke-opacity="1.0" stroke-linecap="round" stroke-linejoin="round"/>
    <path d="M 176.4730987548828 -7.197678565979004 C 156.1570281982422 33.98090744018555 148.41468811035156 103.51262664794922 117.06503295898438 76.47647857666016 C 114.70879364013672 120.21682739257812 109.24226379394531 97.93028259277344 123.62810516357422 81.68827819824219 C 111.14398193359375 4.591915607452393 84.39080047607422 0.7823376059532166 122.70881652832031 -9.10983657836914 C 146.55911254882812 -25.277347564697266 164.82586669921875 -2.9694981575012207 176.4730987548828 -7.197678565979004" stroke-width="0.0" fill="rgb(16, 52, 68)" opacity="0.04153401" stroke="rgb(0, 0, 0)" stroke-opacity="1.0" stroke-linecap="round" stroke-linejoin="round"/>
    <path d="M 60.77417755126953 343.1774597167969 C 44.73480224609375 353.0003967285156 48.718902587890625 344.98907470703125 46.73999786376953 333.0785217285156 C 46.80082702636719 338.5379638671875 55.64160919189453 337.299560546875 40.36020278930664 310.99298095703125 C 24.42670440673828 304.3093566894531 41.0639533996582 299.1619567871094 50.78087615966797 293.5604553222656 C 48.46747970581055 292.39019775390625 59.55584716796875 323.64105224609375 60.77417755126953 343.1774597167969" stroke-width="0.0" fill="rgb(0, 0, 194)" opacity="1.0" stroke="rgb(0, 0, 0)" stroke-opacity="1.0" stroke-linecap="round" stroke-linejoin="round"/>
    <path d="M 216.58612060546875 14.599111557006836 C 298.9622802734375 -12.300209045410156 300.8143005371094 53.0141487121582 311.0467834472656 68.56150817871094 C 246.1268310546875 44.73747253417969 264.3932189941406 59.58662414550781 224.7359161376953 62.425636291503906 C 230.6349639892578 57.20366668701172 254.69436645507812 47.53559875488281 246.6007080078125 54.06729507446289 C 199.26878356933594 34.423988342285156 225.7886505126953 31.734745025634766 216.58612060546875 14.599111557006836" stroke-width="0.0" fill="rgb(76, 21, 93)" opacity="0.073554546" stroke="rgb(0, 0, 0)" stroke-opacity="1.0" stroke-linecap="round" stroke-linejoin="round"/>
    <path d="M 96.6615982055664 318.13427734375 C 103.45521545410156 323.91815185546875 119.0207290649414 343.8379821777344 88.68354034423828 367.55328369140625 C 71.53362274169922 380.29400634765625 77.31852722167969 334.6331787109375 91.5052490234375 312.74041748046875 C 104.23184204101562 299.900634765625 104.24348449707031 290.9935607910156 102.65135955810547 310.7818298339844 C 119.6080322265625 296.118408203125 119.8839111328125 302.89630126953125 96.6615982055664 318.13427734375" stroke-width="0.0" fill="rgb(249, 218, 44)" opacity="0.0002429658" stroke="rgb(0, 0, 0)" stroke-opacity="1.0" stroke-linecap="round" stroke-linejoin="round"/>
    <path d="M 208.66177368164062 375.3405456542969 C 212.0980682373047 380.7162170410156 200.2213134765625 369.53790283203125 186.47080993652344 378.9145812988281 C 183.2622833251953 399.19805908203125 193.16900634765625 407.0705261230469 186.18287658691406 391.3022155761719 C 182.35272216796875 370.98931884765625 176.4374237060547 340.9688720703125 212.25270080566406 344.6473388671875 C 211.3316650390625 348.56396484375 209.728515625 379.7116394042969 208.66177368164062 375.3405456542969" stroke-width="0.0" fill="rgb(86, 56, 195)" opacity="0.055802602" stroke="rgb(0, 0, 0)" stroke-opacity="1.0" stroke-linecap="round" stroke-linejoin="round"/>
    <path d="M 27.277225494384766 223.22805786132812 C 66.60128784179688 206.37982177734375 25.39469337463379 245.26846313476562 60.14423370361328 230.19720458984375 C 54.64825439453125 230.0225372314453 46.037288665771484 211.7467803955078 82.18781280517578 181.12094116210938 C 92.97038269042969 120.3412094116211 113.97431182861328 106.72879028320312 -8.268836975097656 121.81732940673828 C -29.909568786621094 255.97537231445312 -47.006412506103516 239.69126892089844 27.277225494384766 223.22805786132812" stroke-width="0.0" fill="rgb(1, 4, 173)" opacity="0.1199847" stroke="rgb(0, 0, 0)" stroke-opacity="1.0" stroke-linecap="round" stroke-linejoin="round"/>
    <path d="M 441.2605895996094 285.646484375 C 439.7234191894531 310.75494384765625 409.30548095703125 326.3778381347656 399.5889892578125 329.5739440917969 C 410.1579284667969 346.6192626953125 416.90191650390625 336.1028137207031 421.13079833984375 297.2327880859375 C 413.4186706542969 287.5939025878906 422.6553955078125 277.6725769042969 477.69378662109375 265.1490173339844 C 473.89495849609375 289.99853515625 462.4503479003906 288.02349853515625 441.2605895996094 285.646484375" stroke-width="0.0" fill="rgb(54, 39, 102)" opacity="0.00033487123" stroke="rgb(0, 0, 0)" stroke-opacity="1.0" stroke-linecap="round" stroke-linejoin="round"/>
    <path d="M 57.02243423461914 156.81103515625 C 52.66586685180664 150.31520080566406 70.35395050048828 149.45745849609375 41.469547271728516 138.53240966796875 C -3.7819886207580566 128.5167999267578 -14.118820190429688 134.36756896972656 -10.551201820373535 139.842041015625 C -2.40846848487854 128.4785919189453 -19.42360496520996 91.38311767578125 4.714566707611084 80.10086059570312 C 55.90055465698242 97.77116394042969 85.63798522949219 116.7033920288086 57.02243423461914 156.81103515625" stroke-width="0.0" fill="rgb(5, 22, 165)" opacity="0.04689346" stroke="rgb(0, 0, 0)" stroke-opacity="1.0" stroke-linecap="round" stroke-linejoin="round"/>
    <path d="M 521.8140258789062 249.7938995361328 C 541.079345703125 242.0443115234375 540.0418701171875 238.3000946044922 501.9812316894531 225.65640258789062 C 508.9184875488281 293.1068420410156 493.3228759765625 294.239501953125 484.3497314453125 174.58441162109375 C 458.455078125 183.36016845703125 478.4203796386719 190.96652221679688 489.7082824707031 241.77513122558594 C 507.57830810546875 232.44631958007812 538.0590209960938 235.8653564453125 521.8140258789062 249.7938995361328" stroke-width="0.0" fill="rgb(69, 34, 52)" opacity="0.007311882" stroke="rgb(0, 0, 0)" stroke-opacity="1.0" stroke-linecap="round" stroke-linejoin="round"/>
    <path d="M 233.6650390625 98.865478515625 C 227.79046630859375 92.34172058105469 222.18931579589844 96.2627944946289 221.8441162109375 100.74071502685547 C 214.6806640625 111.42266845703125 212.13436889648438 118.2733154296875 212.93345642089844 108.93390655517578 C 228.28662109375 82.1053237915039 238.5972900390625 75.70623016357422 230.2372589111328 38.95246505737305 C 246.14988708496094 43.39958953857422 234.5148162841797 89.37413787841797 233.6650390625 98.865478515625" stroke-width="0.0" fill="rgb(173, 143, 161)" opacity="0.5399764" stroke="rgb(0, 0, 0)" stroke-opacity="1.0" stroke-linecap="round" stroke-linejoin="round"/>
    <path d="M 457.3377685546875 270.6373291015625 C 433.60595703125 279.233154296875 409.473388671875 287.0477600097656 442.61749267578125 279.5408020019531 C 406.41864013671875 263.0671081542969 432.027587890625 251.3318328857422 433.42578125 244.26181030273438 C 411.8147888183594 257.7952575683594 406.5424499511719 261.0160827636719 420.9244689941406 258.4400329589844 C 436.8067626953125 255.71124267578125 440.1197814941406 255.2833709716797 457.3377685546875 270.6373291015625" stroke-width="0.0" fill="rgb(95, 48, 133)" opacity="0.0" stroke="rgb(0, 0, 0)" stroke-opacity="1.0" stroke-linecap="round" stroke-linejoin="round"/>
    <path d="M 558.7056884765625 105.02411651611328 C 534.3267822265625 146.96917724609375 541.4307861328125 165.3400421142578 506.9693298339844 166.2165985107422 C 485.7409362792969 178.64161682128906 504.59710693359375 188.9044647216797 503.70355224609375 147.15037536621094 C 497.7287292480469 121.87039184570312 528.5908813476562 125.52030181884766 506.1960144042969 101.4348373413086 C 507.53656005859375 77.825439453125 528.1728515625 88.71820068359375 558.7056884765625 105.02411651611328" stroke-width="0.0" fill="rgb(56, 56, 101)" opacity="0.06460077" stroke="rgb(0, 0, 0)" stroke-opacity="1.0" stroke-linecap="round" stroke-linejoin="round"/>
    <path d="M 534.8915405273438 166.4961395263672 C 531.7291870117188 173.9354705810547 521.1939697265625 177.97314453125 518.973876953125 174.1313934326172 C 504.650390625 160.71510314941406 480.6259765625 165.16064453125 479.9086608886719 152.21214294433594 C 463.9300842285156 146.05715942382812 494.5581970214844 146.5830535888672 528.3540649414062 146.1884307861328 C 523.3553466796875 150.81150817871094 527.3134155273438 159.59152221679688 534.8915405273438 166.4961395263672" stroke-width="0.0" fill="rgb(68, 58, 108)" opacity="0.009919196" stroke="rgb(0, 0, 0)" stroke-opacity="1.0" stroke-linecap="round" stroke-linejoin="round"/>
    <path d="M 48.3870735168457 365.27581787109375 C 53.182437896728516 358.3582763671875 54.36137771606445 365.25604248046875 53.29051971435547 364.12225341796875 C 81.2640380859375 346.71148681640625 63.305599212646484 327.5195617675781 50.207977294921875 310.35369873046875 C 42.977684020996094 322.129638671875 37.35224914550781 319.5500183105469 48.94141387939453 326.6627197265625 C 72.80362701416016 330.2785339355469 63.00142288208008 348.6739501953125 48.3870735168457 365.27581787109375" stroke-width="0.0" fill="rgb(0, 0, 190)" opacity="0.65121377" stroke="rgb(0, 0, 0)" stroke-opacity="1.0" stroke-linecap="round" stroke-linejoin="round"/>
    <path d="M 346.5269470214844 235.17337036132812 C 352.03424072265625 282.8603210449219 325.0820617675781 285.0223083496094 316.8238830566406 263.4140930175781 C 313.1239318847656 249.05538940429688 308.9565734863281 263.8751220703125 316.2151794433594 246.07598876953125 C 319.6903381347656 246.94158935546875 340.0010070800781 253.45404052734375 325.0084228515625 277.8179626464844 C 332.1285400390625 240.9091339111328 341.8601989746094 239.1346893310547 346.5269470214844 235.17337036132812" stroke-width="0.0" fill="rgb(59, 0, 171)" opacity="0.06085899" stroke="rgb(0, 0, 0)" stroke-opacity="1.0" stroke-linecap="round" stroke-linejoin="round"/>
    <path d="M 475.4787292480469 165.41677856445312 C 463.4376220703125 139.78045654296875 473.3445739746094 123.53288269042969 477.01397705078125 154.58628845214844 C 472.75347900390625 164.556640625 469.97222900390625 162.03208923339844 487.06201171875 118.9173812866211 C 482.0153503417969 139.3411407470703 495.3692321777344 134.76943969726562 482.716064453125 105.59302520751953 C 469.80059814453125 119.01022338867188 493.1257019042969 155.49217224121094 475.4787292480469 165.41677856445312" stroke-width="0.0" fill="rgb(54, 61, 120)" opacity="0.010951907" stroke="rgb(0, 0, 0)" stroke-opacity="1.0" stroke-linecap="round" stroke-linejoin="round"/>
    <path d="M 487.1020202636719 482.57916259765625 C 468.0897521972656 487.3110656738281 489.5187072753906 478.417724609375 473.8910827636719 465.4575500488281 C 476.79888916015625 493.5555419921875 460.99737548828125 461.3638000488281 429.6235656738281 447.5507507324219 C 407.5526428222656 432.924072265625 424.8946838378906 424.96734619140625 488.84515380859375 413.3337707519531 C 481.4352111816406 428.0271301269531 493.5069885253906 446.66436767578125 487.1020202636719 482.57916259765625" stroke-width="0.0" fill="rgb(46, 84, 98)" opacity="0.0357686" stroke="rgb(0, 0, 0)" stroke-opacity="1.0" stroke-linecap="round" stroke-linejoin="round"/>
    <path d="M 535.950927734375 371.2558898925781 C 512.1863403320312 380.4249572753906 493.9205627441406 389.5685729980469 483.7748107910156 389.2418518066406 C 483.8344421386719 383.3536682128906 468.17413330078125 390.0262451171875 471.8455810546875 376.0696716308594 C 464.9482421875 352.8761291503906 453.9364013671875 359.80767822265625 487.14007568359375 355.3266906738281 C 504.9336853027344 342.602783203125 526.9407958984375 344.4224853515625 535.950927734375 371.2558898925781" stroke-width="0.0" fill="rgb(67, 79, 99)" opacity="0.07057251" stroke="rgb(0, 0, 0)" stroke-opacity="1.0" stroke-linecap="round" stroke-linejoin="round"/>
    <path d="M 167.48236083984375 417.2273254394531 C 159.3909149169922 418.689697265625 160.22645568847656 415.4455261230469 160.12461853027344 411.57208251953125 C 165.1546173095703 472.93701171875 146.1242218017578 475.4734191894531 135.21109008789062 417.95916748046875 C 148.20892333984375 399.2987976074219 131.47760009765625 391.65899658203125 132.4433135986328 368.54132080078125 C 155.0850830078125 377.3770446777344 156.35032653808594 390.39141845703125 167.48236083984375 417.2273254394531" stroke-width="0.0" fill="rgb(165, 64, 190)" opacity="0.42561197" stroke="rgb(0, 0, 0)" stroke-opacity="1.0" stroke-linecap="round" stroke-linejoin="round"/>
    <path d="M 112.23645782470703 150.7140350341797 C 156.351806640625 181.53192138671875 157.42311096191406 222.60479736328125 166.8497314453125 194.19688415527344 C 83.50350189208984 148.95037841796875 38.74513626098633 136.1633758544922 82.93514251708984 118.655517578125 C 100.2033462524414 152.47482299804688 99.49674224853516 157.88262939453125 86.65105438232422 145.43946838378906 C 121.9959716796875 122.16075897216797 110.8467025756836 130.26809692382812 112.23645782470703 150.7140350341797" stroke-width="0.0" fill="rgb(0, 0, 140)" opacity="0.026844919" stroke="rgb(0, 0, 0)" stroke-opacity="1.0" stroke-linecap="round" stroke-linejoin="round"/>
    <path d="M 157.1326141357422 148.53636169433594 C 164.3881378173828 158.6630401611328 178.6432647705078 142.1836700439453 174.22352600097656 147.1339874267578 C 169.31222534179688 143.26319885253906 149.56381225585938 132.77671813964844 144.1525115966797 141.51052856445312 C 168.71717834472656 135.89048767089844 172.68336486816406 119.4501953125 169.1212158203125 119.84938049316406 C 194.9347686767578 110.50647735595703 201.23989868164062 122.7226333618164 157.1326141357422 148.53636169433594" stroke-width="0.0" fill="rgb(236, 233, 97)" opacity="4.4905104e-05" stroke="rgb(0, 0, 0)" stroke-opacity="1.0" stroke-linecap="round" stroke-linejoin="round"/>
    <path d="M 124.40220642089844 410.1439208984375 C 180.2858123779297 406.84429931640625 170.55276489257812 392.31341552734375 164.078369140625 435.0668640136719 C 111.3244857788086 454.7600402832031 153.4486846923828 439.4122314453125 148.54249572753906 361.3837890625 C 153.9972686767578 344.0096435546875 149.76153564453125 348.3272705078125 172.9190216064453 404.1885070800781 C 145.16650390625 405.043701171875 141.9449920654297 396.439208984375 124.40220642089844 410.1439208984375" stroke-width="0.0" fill="rgb(154, 40, 168)" opacity="0.2903936" stroke="rgb(0, 0, 0)" stroke-opacity="1.0" stroke-linecap="round" stroke-linejoin="round"/>
    <path d="M 457.7926025390625 114.99485778808594 C 469.8927001953125 135.48622131347656 472.4861145019531 139.806396484375 438.3556823730469 133.9403839111328 C 443.28826904296875 149.63182067871094 437.79644775390625 117.19072723388672 449.408203125 113.35430908203125 C 441.7604675292969 125.26203918457031 445.15496826171875 121.96813201904297 448.3098449707031 97.42093658447266 C 453.1741027832031 114.58866119384766 453.2178955078125 132.68406677246094 457.7926025390625 114.99485778808594" stroke-width="0.0" fill="rgb(71, 53, 144)" opacity="0.013640968" stroke="rgb(0, 0, 0)" stroke-opacity="1.0" stroke-linecap="round" stroke-linejoin="round"/>
    <path d="M 246.52561950683594 326.2924499511719 C 254.71896362304688 335.8334045410156 249.3098602294922 361.2181091308594 210.117431640625 330.2179260253906 C 227.8425750732422 310.4284362792969 226.72915649414062 305.3695373535156 218.50051879882812 309.5091552734375 C 226.30963134765625 309.02777099609375 228.45375061035156 317.8227844238281 227.34451293945312 305.590576171875 C 241.84458923339844 304.4866027832031 249.09970092773438 319.968017578125 246.52561950683594 326.2924499511719" stroke-width="0.0" fill="rgb(90, 78, 118)" opacity="0.0" stroke="rgb(0, 0, 0)" stroke-opacity="1.0" stroke-linecap="round" stroke-linejoin="round"/>
    <path d="M 148.9869842529297 427.370849609375 C 151.68325805664062 473.5021057128906 148.05056762695312 476.3880310058594 211.0131072998047 515.0787963867188 C 51.869327545166016 522.7998657226562 60.38501739501953 510.21270751953125 126.64452362060547 486.43212890625 C 122.47154998779297 483.8802490234375 127.07158660888672 432.8943786621094 147.46995544433594 451.2594299316406 C 137.44525146484375 471.450439453125 135.6112060546875 455.9981994628906 148.9869842529297 427.370849609375" stroke-width="0.0" fill="rgb(254, 40, 164)" opacity="0.4960096" stroke="rgb(0, 0, 0)" stroke-opacity="1.0" stroke-linecap="round" stroke-linejoin="round"/>
  </g>
</svg>
