<?xml version="1.0" ?>
<svg xmlns="http://www.w3.org/2000/svg" version="1.1" width="512" height="512">
  <defs/>
  <g>
    <path d="M 532.2870483398438 444.7821350097656 C 539.9406127929688 513.6859741210938 547.0262451171875 524.7042846679688 443.1304016113281 543.8850708007812 C 362.97503662109375 554.0444946289062 313.1940002441406 585.4443969726562 193.1529998779297 514.4544677734375 C 219.23660278320312 306.3826599121094 311.012939453125 376.2230529785156 492.772705078125 360.542236328125 C 565.111083984375 324.3824768066406 562.5354614257812 343.6766052246094 532.2870483398438 444.7821350097656" stroke-width="0.0" fill="rgb(23, 38, 170)" opacity="1.0" stroke="rgb(0, 0, 0)" stroke-opacity="1.0" stroke-linecap="round" stroke-linejoin="round"/>
    <path d="M 282.8982849121094 469.8440856933594 C 136.63743591308594 427.81640625 289.90460205078125 535.64013671875 102.55805969238281 563.15771484375 C -51.20000076293945 518.5575561523438 -51.20000076293945 507.9428405761719 -23.310304641723633 459.14788818359375 C -21.703636169433594 204.5193328857422 -15.165979385375977 198.78973388671875 39.83268737792969 164.62196350097656 C 195.9459991455078 263.5801086425781 245.21385192871094 240.26731872558594 282.8982849121094 469.8440856933594" stroke-width="0.0" fill="rgb(63, 179, 104)" opacity="0.6519036" stroke="rgb(0, 0, 0)" stroke-opacity="1.0" stroke-linecap="round" stroke-linejoin="round"/>
    <path d="M 322.9327697753906 331.1328125 C 240.9842071533203 466.1119384765625 304.5758361816406 489.03460693359375 210.13180541992188 494.345703125 C 26.298559188842773 383.51806640625 48.436241149902344 328.6630554199219 37.4616813659668 165.84214782714844 C 40.832115173339844 166.6511993408203 17.365686416625977 193.1521453857422 68.51493072509766 175.83045959472656 C 209.5723419189453 204.96585083007812 180.2494354248047 219.5631866455078 322.9327697753906 331.1328125" stroke-width="0.0" fill="rgb(24, 0, 122)" opacity="0.99983424" stroke="rgb(0, 0, 0)" stroke-opacity="1.0" stroke-linecap="round" stroke-linejoin="round"/>
    <path d="M 297.69903564453125 -0.1603991836309433 C 216.30374145507812 144.6861572265625 181.2001953125 163.9203338623047 24.421884536743164 228.56016540527344 C -94.02542114257812 213.1201629638672 -79.68157196044922 191.58645629882812 -54.939571380615234 53.81840896606445 C -13.004427909851074 -13.631946563720703 -4.874516010284424 -18.456117630004883 28.940387725830078 -25.198192596435547 C 197.900634765625 -30.727705001831055 213.40524291992188 -30.43979263305664 297.69903564453125 -0.1603991836309433" stroke-width="0.0" fill="rgb(107, 202, 185)" opacity="0.99568814" stroke="rgb(0, 0, 0)" stroke-opacity="1.0" stroke-linecap="round" stroke-linejoin="round"/>
    <path d="M 563.3087158203125 162.10841369628906 C 462.4744873046875 286.4731140136719 418.3274841308594 261.7247314453125 313.7795715332031 302.7414855957031 C 260.4204406738281 352.2618103027344 234.59939575195312 372.7960205078125 245.05889892578125 179.59219360351562 C 209.41061401367188 60.574989318847656 211.36801147460938 15.933746337890625 437.3156433105469 -28.006122589111328 C 563.2000122070312 0.19759994745254517 563.2000122070312 17.676347732543945 563.3087158203125 162.10841369628906" stroke-width="0.0" fill="rgb(90, 19, 61)" opacity="0.7983526" stroke="rgb(0, 0, 0)" stroke-opacity="1.0" stroke-linecap="round" stroke-linejoin="round"/>
    <path d="M 367.286865234375 107.4609146118164 C 265.0721435546875 273.9123840332031 252.85342407226562 277.999755859375 195.77407836914062 249.19110107421875 C 58.190303802490234 220.9842071533203 31.57781219482422 252.69390869140625 48.33819580078125 197.82644653320312 C 83.97376251220703 111.10557556152344 76.59664916992188 68.30059814453125 304.1589050292969 13.273759841918945 C 413.5511474609375 55.311214447021484 466.7578430175781 35.26852798461914 367.286865234375 107.4609146118164" stroke-width="0.0" fill="rgb(20, 0, 162)" opacity="1.0" stroke="rgb(0, 0, 0)" stroke-opacity="1.0" stroke-linecap="round" stroke-linejoin="round"/>
    <path d="M 548.84130859375 338.02374267578125 C 530.933837890625 456.62322998046875 551.9696044921875 471.3511657714844 306.9179992675781 479.3414001464844 C 293.6981201171875 393.20458984375 241.6399688720703 418.3854675292969 244.66517639160156 372.8728942871094 C 190.2794952392578 245.99581909179688 277.31256103515625 254.53318786621094 352.3174133300781 241.7260284423828 C 433.1076354980469 259.4634704589844 450.3854675292969 258.62249755859375 548.84130859375 338.02374267578125" stroke-width="0.0" fill="rgb(250, 255, 215)" opacity="1.0" stroke="rgb(0, 0, 0)" stroke-opacity="1.0" stroke-linecap="round" stroke-linejoin="round"/>
    <path d="M 538.6198120117188 216.55686950683594 C 557.1622924804688 329.599853515625 569.442138671875 366.9019775390625 486.8440246582031 401.60992431640625 C 304.6380920410156 419.971923828125 325.2684020996094 386.3538513183594 394.7288513183594 195.8300018310547 C 374.0906982421875 54.70448684692383 330.0514221191406 -42.91411590576172 512.7687377929688 115.74510192871094 C 599.970703125 139.36790466308594 560.1583251953125 150.41566467285156 538.6198120117188 216.55686950683594" stroke-width="0.0" fill="rgb(2, 85, 198)" opacity="0.9835284" stroke="rgb(0, 0, 0)" stroke-opacity="1.0" stroke-linecap="round" stroke-linejoin="round"/>
    <path d="M 288.6026916503906 220.64547729492188 C 274.5059509277344 263.76385498046875 270.927490234375 268.1456604003906 258.9078674316406 281.24237060546875 C 200.32106018066406 339.4641418457031 234.97132873535156 335.9000549316406 180.51690673828125 235.9953155517578 C 114.02458190917969 92.68658447265625 90.71834564208984 102.96402740478516 333.3311462402344 105.99202728271484 C 290.5404968261719 177.40362548828125 300.9981384277344 227.29087829589844 288.6026916503906 220.64547729492188" stroke-width="0.0" fill="rgb(195, 166, 0)" opacity="0.99456716" stroke="rgb(0, 0, 0)" stroke-opacity="1.0" stroke-linecap="round" stroke-linejoin="round"/>
    <path d="M 464.12432861328125 411.7653503417969 C 340.0786437988281 363.9847106933594 356.4704284667969 265.4325866699219 327.5738525390625 248.65625 C 334.1557922363281 227.85305786132812 329.7802734375 235.77313232421875 335.9942932128906 215.73643493652344 C 333.67852783203125 196.1642303466797 343.73504638671875 183.51406860351562 370.75323486328125 78.41935729980469 C 406.8860778808594 64.24609375 495.28912353515625 13.53763484954834 464.12432861328125 411.7653503417969" stroke-width="0.0" fill="rgb(7, 39, 191)" opacity="0.96409124" stroke="rgb(0, 0, 0)" stroke-opacity="1.0" stroke-linecap="round" stroke-linejoin="round"/>
    <path d="M 245.7423858642578 263.9293518066406 C 233.96353149414062 274.973388671875 233.40988159179688 264.3599853515625 207.3578338623047 322.2090759277344 C 192.5875244140625 316.4778137207031 200.7075653076172 276.01068115234375 113.94139862060547 226.33065795898438 C 128.36874389648438 127.16693878173828 86.96724700927734 123.98895263671875 231.1642303466797 131.04173278808594 C 252.66490173339844 255.57290649414062 264.50653076171875 221.72412109375 245.7423858642578 263.9293518066406" stroke-width="0.0" fill="rgb(0, 5, 140)" opacity="0.99801105" stroke="rgb(0, 0, 0)" stroke-opacity="1.0" stroke-linecap="round" stroke-linejoin="round"/>
    <path d="M 386.9874572753906 321.9206237792969 C 359.6488342285156 308.3841247558594 343.9220886230469 242.1160888671875 380.33740234375 524.81689453125 C 156.8907012939453 507.4925231933594 282.44866943359375 428.76593017578125 311.5713806152344 299.7197265625 C 384.70733642578125 176.7935028076172 383.2099609375 130.8360595703125 340.6217041015625 254.43592834472656 C 340.1540832519531 281.027587890625 366.7942199707031 307.6280822753906 386.9874572753906 321.9206237792969" stroke-width="0.0" fill="rgb(254, 255, 187)" opacity="0.9984903" stroke="rgb(0, 0, 0)" stroke-opacity="1.0" stroke-linecap="round" stroke-linejoin="round"/>
    <path d="M 518.5445556640625 48.35239028930664 C 555.9550170898438 140.92526245117188 571.641357421875 217.43789672851562 478.4981384277344 271.09637451171875 C 444.5039978027344 113.90912628173828 410.63677978515625 61.49302291870117 278.414794921875 21.52601432800293 C 274.5453186035156 -105.42196655273438 313.1488037109375 -91.63652801513672 377.656494140625 -86.92205047607422 C 543.597900390625 -9.222906112670898 545.9273681640625 9.4968843460083 518.5445556640625 48.35239028930664" stroke-width="0.0" fill="rgb(119, 220, 183)" opacity="1.0" stroke="rgb(0, 0, 0)" stroke-opacity="1.0" stroke-linecap="round" stroke-linejoin="round"/>
    <path d="M 372.4697570800781 67.52465057373047 C 370.7554931640625 90.23670959472656 357.825439453125 70.9002685546875 358.1934814453125 63.50873565673828 C 364.4227600097656 82.55864715576172 376.7775573730469 74.35379028320312 354.9425964355469 81.30396270751953 C 336.7944641113281 65.2550048828125 357.0154724121094 80.18236541748047 366.8396911621094 70.03726959228516 C 352.8301696777344 86.93206024169922 372.0191345214844 84.6409912109375 372.4697570800781 67.52465057373047" stroke-width="0.0" fill="rgb(176, 82, 77)" opacity="0.3598461" stroke="rgb(0, 0, 0)" stroke-opacity="1.0" stroke-linecap="round" stroke-linejoin="round"/>
    <path d="M 446.6099548339844 411.0325012207031 C 449.8295593261719 426.65435791015625 448.2762451171875 451.18975830078125 452.11865234375 437.005859375 C 444.351318359375 431.1739501953125 449.8828430175781 406.53350830078125 335.8159484863281 388.897216796875 C 319.3581848144531 293.4546813964844 376.54864501953125 314.4162292480469 405.46807861328125 335.0722961425781 C 441.28839111328125 409.6528015136719 445.96563720703125 424.94085693359375 446.6099548339844 411.0325012207031" stroke-width="0.0" fill="rgb(12, 90, 208)" opacity="0.9992691" stroke="rgb(0, 0, 0)" stroke-opacity="1.0" stroke-linecap="round" stroke-linejoin="round"/>
    <path d="M 309.6597900390625 396.4620361328125 C 267.20947265625 458.7947998046875 323.0697021484375 512.8336791992188 289.2364807128906 519.5845947265625 C 211.0460205078125 514.7029418945312 194.9359130859375 482.65240478515625 199.73468017578125 416.000732421875 C 223.35946655273438 379.96588134765625 252.58837890625 331.3634338378906 254.06922912597656 333.19293212890625 C 319.65191650390625 343.1941223144531 231.9351806640625 406.72418212890625 309.6597900390625 396.4620361328125" stroke-width="0.0" fill="rgb(255, 255, 135)" opacity="1.0" stroke="rgb(0, 0, 0)" stroke-opacity="1.0" stroke-linecap="round" stroke-linejoin="round"/>
    <path d="M 484.9280700683594 456.25396728515625 C 470.1439514160156 511.3875732421875 420.8314514160156 493.3752136230469 379.4334411621094 524.5968627929688 C 313.035400390625 522.8366088867188 277.1615295410156 546.235107421875 279.51177978515625 518.0850219726562 C 386.06072998046875 516.0673828125 375.3768310546875 424.1442565917969 338.19427490234375 385.8568420410156 C 465.53338623046875 375.76849365234375 471.48992919921875 377.4195556640625 484.9280700683594 456.25396728515625" stroke-width="0.0" fill="rgb(0, 22, 255)" opacity="1.0" stroke="rgb(0, 0, 0)" stroke-opacity="1.0" stroke-linecap="round" stroke-linejoin="round"/>
    <path d="M 569.6085205078125 458.01953125 C 556.586669921875 486.6286926269531 560.0180053710938 511.13885498046875 378.320068359375 572.1970825195312 C 341.44439697265625 510.9461975097656 406.4046325683594 455.2689208984375 428.75140380859375 391.03387451171875 C 456.3976135253906 366.2544250488281 457.91131591796875 343.7117004394531 491.88873291015625 155.0631561279297 C 581.5853271484375 191.9228057861328 604.1068725585938 271.171142578125 569.6085205078125 458.01953125" stroke-width="0.0" fill="rgb(136, 242, 144)" opacity="1.0" stroke="rgb(0, 0, 0)" stroke-opacity="1.0" stroke-linecap="round" stroke-linejoin="round"/>
    <path d="M 236.02769470214844 369.0361022949219 C 231.94247436523438 385.1714782714844 220.72171020507812 394.0002746582031 234.87960815429688 395.8623962402344 C 236.2646026611328 397.3600158691406 236.15296936035156 371.9608459472656 248.8572998046875 333.946533203125 C 270.9613952636719 337.1940002441406 249.16944885253906 330.85009765625 246.75360107421875 349.3768310546875 C 243.51097106933594 310.6640319824219 238.24330139160156 343.51129150390625 236.02769470214844 369.0361022949219" stroke-width="0.0" fill="rgb(127, 174, 130)" opacity="0.7785845" stroke="rgb(0, 0, 0)" stroke-opacity="1.0" stroke-linecap="round" stroke-linejoin="round"/>
    <path d="M 8.017446517944336 523.0326538085938 C 17.174198150634766 520.413330078125 10.538132667541504 527.49951171875 0.7022038698196411 530.6587524414062 C -9.364206314086914 527.7437133789062 -16.68471336364746 520.4232177734375 -19.364206314086914 510.4232177734375 C -16.684417724609375 500.4241638183594 -9.341285705566406 493.1831359863281 -12.042186737060547 503.2685241699219 C -3.677582263946533 507.53009033203125 3.6094553470611572 514.7254638671875 8.017446517944336 523.0326538085938" stroke-width="0.0" fill="rgb(29, 3, 0)" opacity="0.113359906" stroke="rgb(0, 0, 0)" stroke-opacity="1.0" stroke-linecap="round" stroke-linejoin="round"/>
    <path d="M 298.8117370605469 404.9613037109375 C 228.91830444335938 394.9580078125 264.38311767578125 374.33154296875 265.2467346191406 491.6802062988281 C 323.3817138671875 516.2274169921875 277.30633544921875 445.4656066894531 297.8033142089844 407.76348876953125 C 275.2820739746094 459.5267639160156 323.03826904296875 436.046630859375 287.913818359375 414.6496276855469 C 265.07989501953125 401.4037780761719 299.253662109375 429.8744812011719 298.8117370605469 404.9613037109375" stroke-width="0.0" fill="rgb(0, 0, 157)" opacity="1.0" stroke="rgb(0, 0, 0)" stroke-opacity="1.0" stroke-linecap="round" stroke-linejoin="round"/>
    <path d="M 279.01593017578125 311.34857177734375 C 320.3077392578125 275.3184509277344 310.9283447265625 255.39183044433594 305.9162902832031 365.5084533691406 C 243.54324340820312 361.7412414550781 269.3644104003906 365.4287414550781 282.9967041015625 281.6776123046875 C 317.64947509765625 327.8563232421875 302.8836975097656 280.3278503417969 284.93341064453125 306.47265625 C 255.30087280273438 300.9915466308594 288.6938171386719 297.0995788574219 279.01593017578125 311.34857177734375" stroke-width="0.0" fill="rgb(0, 0, 187)" opacity="1.0" stroke="rgb(0, 0, 0)" stroke-opacity="1.0" stroke-linecap="round" stroke-linejoin="round"/>
    <path d="M 292.6183776855469 399.15869140625 C 275.9469909667969 399.4292297363281 320.54071044921875 421.86041259765625 292.6679382324219 418.0001220703125 C 255.02215576171875 458.71722412109375 238.43167114257812 446.0086669921875 244.73736572265625 386.43023681640625 C 245.02406311035156 364.1144714355469 260.44036865234375 362.08984375 277.04742431640625 390.75634765625 C 270.55950927734375 384.3074951171875 277.513916015625 387.7527160644531 292.6183776855469 399.15869140625" stroke-width="0.0" fill="rgb(132, 227, 241)" opacity="0.4158358" stroke="rgb(0, 0, 0)" stroke-opacity="1.0" stroke-linecap="round" stroke-linejoin="round"/>
    <path d="M 339.3980712890625 112.42031860351562 C 333.0644226074219 127.46420288085938 316.87176513671875 120.7507095336914 293.558349609375 155.31668090820312 C 276.7930603027344 159.68272399902344 288.3429870605469 149.23268127441406 251.25474548339844 158.7602996826172 C 168.21617126464844 101.6663818359375 193.6876983642578 89.07896423339844 284.80615234375 80.1039047241211 C 332.2672119140625 71.09423828125 328.547607421875 85.71011352539062 339.3980712890625 112.42031860351562" stroke-width="0.0" fill="rgb(0, 7, 232)" opacity="0.99929833" stroke="rgb(0, 0, 0)" stroke-opacity="1.0" stroke-linecap="round" stroke-linejoin="round"/>
    <path d="M 273.1005859375 384.3953857421875 C 242.2008819580078 366.1043701171875 241.34722900390625 388.4523010253906 293.7742919921875 493.4293212890625 C 312.4706115722656 380.61248779296875 334.42132568359375 390.9418029785156 286.0383605957031 400.5744934082031 C 285.94970703125 425.66485595703125 301.5615539550781 444.71929931640625 284.10833740234375 367.62994384765625 C 296.8104553222656 414.0217590332031 276.9775695800781 428.089599609375 273.1005859375 384.3953857421875" stroke-width="0.0" fill="rgb(6, 2, 176)" opacity="0.9990068" stroke="rgb(0, 0, 0)" stroke-opacity="1.0" stroke-linecap="round" stroke-linejoin="round"/>
    <path d="M 403.8884582519531 61.469268798828125 C 389.2701110839844 76.51460266113281 373.5426330566406 90.7262954711914 367.1987609863281 96.99647521972656 C 397.7148132324219 94.52580261230469 364.6029968261719 94.40377807617188 357.75384521484375 120.74712371826172 C 399.3594970703125 123.72579956054688 402.449951171875 103.82482147216797 356.0555725097656 94.49847412109375 C 366.44403076171875 48.29499435424805 384.616943359375 60.252830505371094 403.8884582519531 61.469268798828125" stroke-width="0.0" fill="rgb(115, 52, 90)" opacity="0.0042952835" stroke="rgb(0, 0, 0)" stroke-opacity="1.0" stroke-linecap="round" stroke-linejoin="round"/>
    <path d="M 352.75048828125 139.3688201904297 C 328.34368896484375 194.7041015625 330.23779296875 226.25514221191406 331.2004699707031 175.9634246826172 C 198.68484497070312 155.5482635498047 180.3175811767578 181.568115234375 233.6156463623047 161.9481964111328 C 271.4059143066406 143.4749298095703 267.48236083984375 201.2633514404297 312.4347229003906 203.4609375 C 295.375732421875 151.0239715576172 299.6521911621094 158.23312377929688 352.75048828125 139.3688201904297" stroke-width="0.0" fill="rgb(97, 69, 78)" opacity="0.24963558" stroke="rgb(0, 0, 0)" stroke-opacity="1.0" stroke-linecap="round" stroke-linejoin="round"/>
    <path d="M 248.49002075195312 398.7049560546875 C 253.1228790283203 427.9864196777344 244.722412109375 415.4384460449219 251.71678161621094 407.3700866699219 C 242.29193115234375 419.44207763671875 224.58761596679688 409.3329772949219 219.889404296875 385.3714904785156 C 222.2762451171875 374.7973327636719 213.04946899414062 378.2157287597656 240.6165008544922 392.5021057128906 C 257.08782958984375 398.4674072265625 245.48458862304688 396.7957763671875 248.49002075195312 398.7049560546875" stroke-width="0.0" fill="rgb(151, 147, 86)" opacity="0.39900002" stroke="rgb(0, 0, 0)" stroke-opacity="1.0" stroke-linecap="round" stroke-linejoin="round"/>
    <path d="M 336.77935791015625 237.93141174316406 C 332.5726318359375 220.53045654296875 335.5391540527344 258.4346923828125 324.4593200683594 255.11212158203125 C 312.71453857421875 290.5573425292969 321.8587646484375 333.57061767578125 282.228271484375 298.91015625 C 296.1032409667969 215.47425842285156 308.6075744628906 183.80780029296875 334.0806579589844 220.47023010253906 C 336.66815185546875 225.9125213623047 330.8172302246094 234.90492248535156 336.77935791015625 237.93141174316406" stroke-width="0.0" fill="rgb(2, 0, 187)" opacity="0.9992468" stroke="rgb(0, 0, 0)" stroke-opacity="1.0" stroke-linecap="round" stroke-linejoin="round"/>
    <path d="M 249.24098205566406 379.2986755371094 C 201.41807556152344 371.9423828125 221.18490600585938 393.87860107421875 227.07875061035156 383.6053161621094 C 209.15737915039062 381.4160461425781 199.52362060546875 361.52691650390625 185.87757873535156 341.7279968261719 C 184.71031188964844 317.1382141113281 203.82847595214844 308.39898681640625 197.50643920898438 332.8091125488281 C 198.4674835205078 360.3011779785156 223.2032012939453 374.16290283203125 249.24098205566406 379.2986755371094" stroke-width="0.0" fill="rgb(145, 150, 122)" opacity="0.58716947" stroke="rgb(0, 0, 0)" stroke-opacity="1.0" stroke-linecap="round" stroke-linejoin="round"/>
    <path d="M 449.7916259765625 390.5843200683594 C 434.22088623046875 385.0597839355469 424.4587097167969 404.8114929199219 419.65399169921875 427.2967529296875 C 421.8170471191406 416.8081359863281 431.2768859863281 437.91375732421875 448.4154052734375 431.961669921875 C 440.3083801269531 368.6316833496094 429.9846496582031 370.8848876953125 437.0599060058594 391.5338134765625 C 458.4115295410156 385.88629150390625 443.8044128417969 372.5558166503906 449.7916259765625 390.5843200683594" stroke-width="0.0" fill="rgb(103, 167, 177)" opacity="0.06947489" stroke="rgb(0, 0, 0)" stroke-opacity="1.0" stroke-linecap="round" stroke-linejoin="round"/>
    <path d="M 410.9569396972656 397.7173156738281 C 406.4324035644531 378.6182556152344 401.6326904296875 396.4223937988281 416.1462707519531 400.1409912109375 C 395.8927917480469 410.7378845214844 411.8363342285156 386.6477966308594 379.98333740234375 361.4460754394531 C 348.27557373046875 366.8343505859375 361.7821350097656 357.663330078125 413.4883728027344 313.23272705078125 C 416.7432861328125 383.71343994140625 413.1947937011719 394.3377685546875 410.9569396972656 397.7173156738281" stroke-width="0.0" fill="rgb(169, 53, 91)" opacity="0.5432113" stroke="rgb(0, 0, 0)" stroke-opacity="1.0" stroke-linecap="round" stroke-linejoin="round"/>
    <path d="M 256.1572570800781 166.4736785888672 C 284.66363525390625 143.47552490234375 283.2784423828125 156.87765502929688 198.35069274902344 156.45013427734375 C 230.01806640625 203.00762939453125 242.47305297851562 180.4800262451172 238.25514221191406 142.90394592285156 C 180.15638732910156 110.78541564941406 191.5088653564453 126.73306274414062 241.43756103515625 154.7593231201172 C 228.48812866210938 137.4957275390625 238.31768798828125 144.5270538330078 256.1572570800781 166.4736785888672" stroke-width="0.0" fill="rgb(219, 212, 5)" opacity="0.9356919" stroke="rgb(0, 0, 0)" stroke-opacity="1.0" stroke-linecap="round" stroke-linejoin="round"/>
    <path d="M 262.0207214355469 431.3403015136719 C 269.5570068359375 431.4617614746094 266.0528259277344 475.66259765625 235.01446533203125 460.8703308105469 C 217.6950225830078 443.5740661621094 223.81820678710938 411.1853942871094 228.68453979492188 401.2872619628906 C 229.4822235107422 400.6971435546875 239.8536834716797 404.1909484863281 262.4537658691406 390.65338134765625 C 262.5986633300781 407.7162170410156 256.8533020019531 418.188720703125 262.0207214355469 431.3403015136719" stroke-width="0.0" fill="rgb(119, 255, 221)" opacity="0.94564515" stroke="rgb(0, 0, 0)" stroke-opacity="1.0" stroke-linecap="round" stroke-linejoin="round"/>
    <path d="M 395.0609130859375 328.0715026855469 C 388.3901062011719 350.6716003417969 346.3162841796875 344.5155334472656 382.5458984375 312.1144714355469 C 434.64666748046875 328.1559753417969 416.577880859375 320.346923828125 362.6876525878906 323.5564270019531 C 342.6478576660156 307.7742614746094 344.21002197265625 251.06704711914062 375.15673828125 221.70635986328125 C 435.769775390625 278.3232421875 420.7884521484375 315.8173828125 395.0609130859375 328.0715026855469" stroke-width="0.0" fill="rgb(0, 32, 218)" opacity="0.792269" stroke="rgb(0, 0, 0)" stroke-opacity="1.0" stroke-linecap="round" stroke-linejoin="round"/>
    <path d="M 233.68833923339844 327.81988525390625 C 234.98768615722656 291.7209777832031 230.9719696044922 300.4927673339844 211.28990173339844 317.00604248046875 C 188.1496124267578 343.1019287109375 174.25794982910156 357.9991760253906 182.15664672851562 305.5993957519531 C 211.46942138671875 264.5766296386719 221.6267852783203 238.1682891845703 282.6239318847656 252.57154846191406 C 260.927001953125 267.6318359375 250.197509765625 290.3497009277344 233.68833923339844 327.81988525390625" stroke-width="0.0" fill="rgb(255, 255, 77)" opacity="1.0" stroke="rgb(0, 0, 0)" stroke-opacity="1.0" stroke-linecap="round" stroke-linejoin="round"/>
    <path d="M 261.8890380859375 318.29095458984375 C 282.2810363769531 331.2057189941406 277.7121887207031 312.58917236328125 242.41368103027344 311.3064880371094 C 259.5169372558594 321.5085754394531 251.82797241210938 282.9961242675781 234.5004119873047 294.9943542480469 C 245.38865661621094 299.2840881347656 251.4715118408203 279.030029296875 273.7707214355469 258.1607666015625 C 267.1357116699219 317.7893981933594 255.50277709960938 313.6465148925781 261.8890380859375 318.29095458984375" stroke-width="0.0" fill="rgb(137, 166, 129)" opacity="0.21174793" stroke="rgb(0, 0, 0)" stroke-opacity="1.0" stroke-linecap="round" stroke-linejoin="round"/>
    <path d="M 529.1790161132812 46.337554931640625 C 531.0963745117188 69.52979278564453 530.013427734375 75.50605010986328 513.78173828125 65.79723358154297 C 519.3605346679688 65.11693572998047 511.37603759765625 37.20686721801758 527.4724731445312 45.306453704833984 C 493.52984619140625 44.05331802368164 512.4159545898438 39.457523345947266 516.4636840820312 37.70591735839844 C 523.625244140625 33.86717224121094 525.3016357421875 35.87815475463867 529.1790161132812 46.337554931640625" stroke-width="0.0" fill="rgb(202, 174, 130)" opacity="0.79460776" stroke="rgb(0, 0, 0)" stroke-opacity="1.0" stroke-linecap="round" stroke-linejoin="round"/>
    <path d="M 282.8089904785156 284.75201416015625 C 297.8101501464844 294.2225646972656 292.4405517578125 290.34613037109375 286.6767883300781 283.2438049316406 C 271.1334533691406 285.902099609375 265.6431579589844 287.8316650390625 269.0940856933594 304.7572326660156 C 259.8968200683594 273.83056640625 274.783203125 279.4540100097656 267.52435302734375 308.9709777832031 C 252.5828857421875 304.9769592285156 270.4256896972656 288.4642028808594 282.8089904785156 284.75201416015625" stroke-width="0.0" fill="rgb(160, 101, 154)" opacity="0.124661244" stroke="rgb(0, 0, 0)" stroke-opacity="1.0" stroke-linecap="round" stroke-linejoin="round"/>
    <path d="M 354.64959716796875 105.17214965820312 C 362.8326721191406 55.5512580871582 389.6550598144531 63.569522857666016 363.64093017578125 128.0419464111328 C 283.4304504394531 148.06759643554688 328.4217529296875 135.81356811523438 324.4248046875 105.25171661376953 C 322.1811218261719 49.981449127197266 306.4112548828125 57.07961654663086 320.12640380859375 52.153541564941406 C 347.04010009765625 97.08049774169922 329.4573669433594 126.09475708007812 354.64959716796875 105.17214965820312" stroke-width="0.0" fill="rgb(247, 247, 164)" opacity="0.98537946" stroke="rgb(0, 0, 0)" stroke-opacity="1.0" stroke-linecap="round" stroke-linejoin="round"/>
    <path d="M 374.69488525390625 257.111083984375 C 356.3797607421875 303.5009765625 346.835693359375 270.18548583984375 322.2635498046875 252.1685791015625 C 323.4029235839844 187.52191162109375 377.5434265136719 187.25582885742188 372.0504150390625 217.0030517578125 C 344.99188232421875 236.81478881835938 371.44036865234375 223.53314208984375 339.75018310546875 207.6236114501953 C 370.80157470703125 193.49061584472656 372.51422119140625 198.97052001953125 374.69488525390625 257.111083984375" stroke-width="0.0" fill="rgb(3, 35, 234)" opacity="0.9986196" stroke="rgb(0, 0, 0)" stroke-opacity="1.0" stroke-linecap="round" stroke-linejoin="round"/>
    <path d="M 178.1275634765625 264.2159729003906 C 191.61370849609375 258.6356201171875 199.4882354736328 273.1720275878906 205.00296020507812 263.89703369140625 C 190.0063018798828 252.77296447753906 181.67507934570312 251.6797637939453 184.05044555664062 241.3657684326172 C 193.4036102294922 247.68553161621094 202.92909240722656 239.4870147705078 151.2787322998047 244.32313537597656 C 172.29623413085938 269.5423278808594 217.27700805664062 256.5323791503906 178.1275634765625 264.2159729003906" stroke-width="0.0" fill="rgb(1, 70, 112)" opacity="0.0431575" stroke="rgb(0, 0, 0)" stroke-opacity="1.0" stroke-linecap="round" stroke-linejoin="round"/>
    <path d="M 209.2308349609375 71.06854248046875 C 200.23507690429688 98.72797393798828 210.9514923095703 113.89250183105469 182.24612426757812 133.76596069335938 C 170.06539916992188 114.76207733154297 203.83580017089844 125.2429428100586 197.87368774414062 67.79515838623047 C 210.24273681640625 40.57937240600586 219.86801147460938 68.44100952148438 206.38743591308594 68.4354476928711 C 217.21604919433594 29.055166244506836 217.39691162109375 46.56593322753906 209.2308349609375 71.06854248046875" stroke-width="0.0" fill="rgb(255, 105, 18)" opacity="0.9799286" stroke="rgb(0, 0, 0)" stroke-opacity="1.0" stroke-linecap="round" stroke-linejoin="round"/>
    <path d="M 433.92230224609375 371.2508544921875 C 456.6393127441406 371.1085205078125 431.7718811035156 376.3432922363281 415.2373046875 388.7303771972656 C 417.6339416503906 389.37847900390625 398.966796875 388.9530029296875 395.6366271972656 367.3327331542969 C 396.833740234375 315.8367004394531 401.981689453125 330.5432434082031 432.45953369140625 359.98321533203125 C 408.1740417480469 366.43341064453125 434.6177673339844 377.4009094238281 433.92230224609375 371.2508544921875" stroke-width="0.0" fill="rgb(74, 15, 227)" opacity="0.11958244" stroke="rgb(0, 0, 0)" stroke-opacity="1.0" stroke-linecap="round" stroke-linejoin="round"/>
    <path d="M 31.777254104614258 105.96129608154297 C 42.17299270629883 132.91676330566406 44.03755187988281 137.23013305664062 21.58173370361328 111.9751205444336 C 28.817171096801758 109.31910705566406 31.684648513793945 99.69300079345703 27.768741607666016 116.42269897460938 C 25.170211791992188 120.23345184326172 45.37229919433594 112.27005767822266 38.02605056762695 115.30790710449219 C 26.23174476623535 98.59879302978516 44.35059356689453 96.70624542236328 31.777254104614258 105.96129608154297" stroke-width="0.0" fill="rgb(106, 228, 171)" opacity="0.0" stroke="rgb(0, 0, 0)" stroke-opacity="1.0" stroke-linecap="round" stroke-linejoin="round"/>
    <path d="M 58.76519775390625 463.5235290527344 C 61.64433670043945 484.4471130371094 57.91447830200195 487.62750244140625 15.798564910888672 502.7129211425781 C 6.943785190582275 498.5487365722656 -12.216245651245117 500.0895690917969 -15.676725387573242 472.9433898925781 C 10.26384162902832 454.9970397949219 15.711983680725098 442.2399597167969 11.317760467529297 451.8256530761719 C 19.920860290527344 488.6930847167969 56.569984436035156 469.1444396972656 58.76519775390625 463.5235290527344" stroke-width="0.0" fill="rgb(136, 200, 155)" opacity="0.004527743" stroke="rgb(0, 0, 0)" stroke-opacity="1.0" stroke-linecap="round" stroke-linejoin="round"/>
    <path d="M 161.7313690185547 236.34149169921875 C 167.98321533203125 259.67901611328125 155.91664123535156 268.69720458984375 147.70599365234375 256.3265686035156 C 130.91522216796875 261.7117614746094 121.3944091796875 247.13671875 131.65003967285156 236.7753448486328 C 138.0678253173828 247.79368591308594 139.5352020263672 249.33314514160156 123.57540130615234 249.9871368408203 C 130.694091796875 214.49964904785156 152.22647094726562 225.10321044921875 161.7313690185547 236.34149169921875" stroke-width="0.0" fill="rgb(129, 52, 102)" opacity="0.75687903" stroke="rgb(0, 0, 0)" stroke-opacity="1.0" stroke-linecap="round" stroke-linejoin="round"/>
    <path d="M 548.1171875 263.3751525878906 C 528.2279663085938 263.1829833984375 521.3010864257812 271.12066650390625 533.2275390625 257.5542297363281 C 521.189208984375 258.903564453125 506.27294921875 252.91749572753906 467.54241943359375 260.7953186035156 C 485.15179443359375 267.8499450683594 484.1381530761719 256.74774169921875 494.03729248046875 261.6291809082031 C 525.3345947265625 261.1319885253906 545.69384765625 260.8216247558594 548.1171875 263.3751525878906" stroke-width="0.0" fill="rgb(140, 216, 148)" opacity="0.007521368" stroke="rgb(0, 0, 0)" stroke-opacity="1.0" stroke-linecap="round" stroke-linejoin="round"/>
    <path d="M 268.4666442871094 405.06243896484375 C 243.85166931152344 379.5912170410156 255.34619140625 398.8385925292969 229.8821258544922 417.07672119140625 C 218.19297790527344 410.7305603027344 233.2772674560547 417.3718566894531 214.1631622314453 438.3970947265625 C 211.86871337890625 396.09613037109375 229.7139129638672 381.6789855957031 246.4661102294922 354.1339416503906 C 280.1209411621094 360.7735900878906 272.76971435546875 385.1357727050781 268.4666442871094 405.06243896484375" stroke-width="0.0" fill="rgb(255, 255, 131)" opacity="0.95772284" stroke="rgb(0, 0, 0)" stroke-opacity="1.0" stroke-linecap="round" stroke-linejoin="round"/>
    <path d="M 78.69559478759766 120.2384033203125 C 67.32789611816406 105.62486267089844 60.16426086425781 147.898193359375 79.20243835449219 125.81244659423828 C 78.72480010986328 131.3261260986328 74.9531478881836 133.02943420410156 96.58627319335938 118.4056396484375 C 82.83114624023438 113.11814880371094 94.59776306152344 126.86837005615234 99.60981750488281 107.77842712402344 C 70.31906127929688 118.48530578613281 87.63310241699219 123.11958312988281 78.69559478759766 120.2384033203125" stroke-width="0.0" fill="rgb(89, 177, 83)" opacity="0.010957907" stroke="rgb(0, 0, 0)" stroke-opacity="1.0" stroke-linecap="round" stroke-linejoin="round"/>
    <path d="M 450.09991455078125 219.27157592773438 C 447.7943420410156 227.98837280273438 434.1131591796875 238.36160278320312 449.12744140625 222.22500610351562 C 468.9531555175781 232.7909393310547 457.0867614746094 238.8492431640625 443.92437744140625 246.6572265625 C 427.040283203125 218.90216064453125 438.9604797363281 212.29307556152344 455.503662109375 227.41429138183594 C 458.44329833984375 210.11636352539062 456.6214599609375 208.0604248046875 450.09991455078125 219.27157592773438" stroke-width="0.0" fill="rgb(47, 18, 227)" opacity="0.21691878" stroke="rgb(0, 0, 0)" stroke-opacity="1.0" stroke-linecap="round" stroke-linejoin="round"/>
    <path d="M 375.5763244628906 201.06317138671875 C 381.45001220703125 232.12132263183594 365.0472717285156 241.71371459960938 360.4424743652344 202.85986328125 C 352.6938171386719 193.3815155029297 327.5827331542969 197.46273803710938 350.27740478515625 227.85606384277344 C 363.6303405761719 195.86314392089844 365.8038635253906 161.2630157470703 339.4054870605469 157.7755889892578 C 370.5909118652344 182.63565063476562 379.3417663574219 192.2368927001953 375.5763244628906 201.06317138671875" stroke-width="0.0" fill="rgb(0, 42, 189)" opacity="0.20066762" stroke="rgb(0, 0, 0)" stroke-opacity="1.0" stroke-linecap="round" stroke-linejoin="round"/>
    <path d="M 124.27959442138672 440.9524230957031 C 107.73858642578125 480.217041015625 81.73974609375 478.92987060546875 81.20245361328125 444.05853271484375 C 88.12015533447266 453.334228515625 114.31441497802734 461.5944519042969 90.63963317871094 480.1383972167969 C 56.87947463989258 447.14581298828125 68.95003509521484 411.6883239746094 61.43834686279297 399.45013427734375 C 119.62264251708984 402.19451904296875 137.7838897705078 400.5596618652344 124.27959442138672 440.9524230957031" stroke-width="0.0" fill="rgb(81, 176, 122)" opacity="0.0" stroke="rgb(0, 0, 0)" stroke-opacity="1.0" stroke-linecap="round" stroke-linejoin="round"/>
    <path d="M 113.07801818847656 450.68731689453125 C 113.6261978149414 470.8652648925781 98.47930908203125 482.68719482421875 71.67150115966797 512.3030395507812 C 69.90231323242188 452.8658447265625 65.81867218017578 441.5863037109375 64.61326599121094 445.9642028808594 C 75.54584503173828 436.66900634765625 56.73255157470703 442.6561584472656 63.97872543334961 426.68182373046875 C 59.30788803100586 456.1781921386719 77.29784393310547 448.2926330566406 113.07801818847656 450.68731689453125" stroke-width="0.0" fill="rgb(118, 214, 181)" opacity="0.009962704" stroke="rgb(0, 0, 0)" stroke-opacity="1.0" stroke-linecap="round" stroke-linejoin="round"/>
    <path d="M 478.6629638671875 78.35928344726562 C 476.04547119140625 70.56912231445312 471.0603942871094 75.98285675048828 452.07177734375 66.72461700439453 C 433.49603271484375 52.3541374206543 435.0290222167969 34.77698516845703 447.751708984375 -6.766561985015869 C 453.6846923828125 26.55191993713379 452.5108642578125 27.773344039916992 453.7430419921875 15.640594482421875 C 505.217529296875 5.26414155960083 496.157470703125 11.34945297241211 478.6629638671875 78.35928344726562" stroke-width="0.0" fill="rgb(159, 221, 193)" opacity="0.0" stroke="rgb(0, 0, 0)" stroke-opacity="1.0" stroke-linecap="round" stroke-linejoin="round"/>
    <path d="M 280.4422912597656 195.9736328125 C 298.54412841796875 169.9144287109375 294.571533203125 184.82522583007812 314.0159606933594 192.5838623046875 C 312.4602355957031 175.6948699951172 306.5252380371094 162.4853057861328 278.483154296875 163.84426879882812 C 295.49053955078125 163.1289520263672 300.7313232421875 164.1669464111328 276.17083740234375 160.4615478515625 C 286.7309265136719 162.00924682617188 316.79473876953125 177.0515899658203 280.4422912597656 195.9736328125" stroke-width="0.0" fill="rgb(158, 63, 67)" opacity="0.0026362785" stroke="rgb(0, 0, 0)" stroke-opacity="1.0" stroke-linecap="round" stroke-linejoin="round"/>
    <path d="M 489.9696960449219 486.15167236328125 C 488.3747863769531 517.8803100585938 487.35455322265625 537.2858276367188 443.87103271484375 535.7893676757812 C 419.1064147949219 521.51953125 409.2686462402344 505.58941650390625 414.2142028808594 476.3705139160156 C 423.0443115234375 436.2063293457031 411.1564025878906 449.6156921386719 414.1390075683594 507.5345153808594 C 496.5987548828125 503.3099365234375 502.1798095703125 508.2098083496094 489.9696960449219 486.15167236328125" stroke-width="0.0" fill="rgb(124, 234, 207)" opacity="0.0" stroke="rgb(0, 0, 0)" stroke-opacity="1.0" stroke-linecap="round" stroke-linejoin="round"/>
    <path d="M 125.82858276367188 14.378031730651855 C 140.80201721191406 13.223895072937012 145.24737548828125 38.5917854309082 139.38868713378906 48.16697692871094 C 182.2406005859375 24.2910213470459 168.59927368164062 -5.482434272766113 113.59574127197266 -27.148483276367188 C 103.18885803222656 -16.047821044921875 122.89673614501953 8.990190505981445 114.85084533691406 24.111316680908203 C 146.0720672607422 28.142780303955078 152.47364807128906 28.149736404418945 125.82858276367188 14.378031730651855" stroke-width="0.0" fill="rgb(106, 225, 124)" opacity="0.035711765" stroke="rgb(0, 0, 0)" stroke-opacity="1.0" stroke-linecap="round" stroke-linejoin="round"/>
    <path d="M 190.71517944335938 333.14501953125 C 180.2699432373047 330.80499267578125 189.6177215576172 384.1543273925781 161.8778533935547 346.512451171875 C 188.3722381591797 357.17156982421875 192.0554962158203 376.9518737792969 196.07015991210938 339.6429748535156 C 200.28187561035156 308.3046569824219 163.71717834472656 301.3176574707031 155.5525360107422 352.8005065917969 C 207.15496826171875 352.77679443359375 194.2539825439453 346.8592834472656 190.71517944335938 333.14501953125" stroke-width="0.0" fill="rgb(222, 122, 4)" opacity="1.0" stroke="rgb(0, 0, 0)" stroke-opacity="1.0" stroke-linecap="round" stroke-linejoin="round"/>
    <path d="M 47.222007751464844 328.43365478515625 C 48.324798583984375 331.1217956542969 43.773197174072266 323.01312255859375 41.16438293457031 314.8756408691406 C 38.22951889038086 327.1289367675781 25.554704666137695 318.5496520996094 39.9576530456543 310.370849609375 C 47.595611572265625 303.4267883300781 37.707420349121094 316.1166076660156 38.60722351074219 327.90313720703125 C 41.82090759277344 314.81524658203125 38.39025115966797 322.1493225097656 47.222007751464844 328.43365478515625" stroke-width="0.0" fill="rgb(132, 199, 145)" opacity="0.51053387" stroke="rgb(0, 0, 0)" stroke-opacity="1.0" stroke-linecap="round" stroke-linejoin="round"/>
    <path d="M 415.8437194824219 432.62799072265625 C 413.0489196777344 469.42669677734375 381.8797607421875 491.5565185546875 406.1849670410156 440.5628967285156 C 413.5121154785156 445.4336853027344 386.83331298828125 487.1512145996094 396.6136779785156 493.7476806640625 C 402.9496154785156 446.7138671875 410.3017272949219 442.9267272949219 404.0716857910156 429.6838684082031 C 391.8670654296875 442.93658447265625 398.6513366699219 478.9802551269531 415.8437194824219 432.62799072265625" stroke-width="0.0" fill="rgb(80, 145, 114)" opacity="0.109659046" stroke="rgb(0, 0, 0)" stroke-opacity="1.0" stroke-linecap="round" stroke-linejoin="round"/>
    <path d="M 151.23828125 250.97010803222656 C 119.92183685302734 254.1485595703125 132.7277374267578 256.9638671875 139.16012573242188 293.0019226074219 C 132.32931518554688 293.710693359375 144.2970428466797 279.1234130859375 152.12847900390625 233.85501098632812 C 120.60671997070312 239.80564880371094 114.71087646484375 246.7422637939453 134.73770141601562 229.79466247558594 C 147.6989288330078 242.40882873535156 151.55882263183594 255.37042236328125 151.23828125 250.97010803222656" stroke-width="0.0" fill="rgb(29, 52, 98)" opacity="0.0" stroke="rgb(0, 0, 0)" stroke-opacity="1.0" stroke-linecap="round" stroke-linejoin="round"/>
    <path d="M 119.11771392822266 454.22418212890625 C 158.34243774414062 451.5708923339844 140.82757568359375 450.20928955078125 140.77398681640625 492.1871337890625 C 79.16787719726562 488.3436279296875 75.6375732421875 465.2448425292969 92.02758026123047 451.4217224121094 C 86.45502471923828 459.3179931640625 86.38684844970703 450.29248046875 106.8198013305664 437.26312255859375 C 114.9990005493164 438.9683532714844 105.74825286865234 428.3158264160156 119.11771392822266 454.22418212890625" stroke-width="0.0" fill="rgb(117, 180, 180)" opacity="1.0207179e-05" stroke="rgb(0, 0, 0)" stroke-opacity="1.0" stroke-linecap="round" stroke-linejoin="round"/>
    <path d="M 247.3477325439453 52.102481842041016 C 244.0162811279297 25.832408905029297 229.70664978027344 16.26532745361328 237.2474822998047 33.341651916503906 C 247.11688232421875 51.07988357543945 243.08255004882812 42.83881378173828 223.7606964111328 53.07238006591797 C 220.98423767089844 46.15283203125 237.03819274902344 30.867280960083008 248.64100646972656 25.15087890625 C 251.26756286621094 15.588074684143066 267.4432067871094 26.1302433013916 247.3477325439453 52.102481842041016" stroke-width="0.0" fill="rgb(50, 15, 201)" opacity="0.0" stroke="rgb(0, 0, 0)" stroke-opacity="1.0" stroke-linecap="round" stroke-linejoin="round"/>
  </g>
</svg>
