<?xml version="1.0" ?>
<svg xmlns="http://www.w3.org/2000/svg" version="1.1" width="512" height="512">
  <defs/>
  <g>
    <path d="M 561.9651489257812 496.01300048828125 C 468.94281005859375 498.68133544921875 417.5165710449219 601.1881103515625 530.7788696289062 585.2083740234375 C 569.5942993164062 421.51239013671875 528.004150390625 465.5528869628906 512.3360595703125 473.2791442871094 C 528.4470825195312 464.0445861816406 527.076416015625 418.4028015136719 506.41925048828125 429.4872131347656 C 519.5458984375 419.24786376953125 548.7617797851562 422.2076416015625 561.9651489257812 496.01300048828125" stroke-width="0.0" fill="rgb(69, 48, 50)" opacity="0.93808115" stroke="rgb(0, 0, 0)" stroke-opacity="1.0" stroke-linecap="round" stroke-linejoin="round"/>
    <path d="M 272.5216064453125 514.0721435546875 C 281.0788269042969 538.7056884765625 204.7755126953125 549.3169555664062 137.69398498535156 430.44000244140625 C -17.204357147216797 455.1015319824219 83.87458038330078 467.7154541015625 -99.96451568603516 408.4298400878906 C 36.66836929321289 206.4041290283203 -41.67192840576172 287.18829345703125 14.302367210388184 232.2830810546875 C 124.95954895019531 92.50054931640625 228.7998809814453 218.29405212402344 272.5216064453125 514.0721435546875" stroke-width="0.0" fill="rgb(173, 96, 127)" opacity="0.5771434" stroke="rgb(0, 0, 0)" stroke-opacity="1.0" stroke-linecap="round" stroke-linejoin="round"/>
    <path d="M 439.3867492675781 146.20826721191406 C 469.1138916015625 323.66156005859375 441.080078125 331.6304626464844 287.3866882324219 341.05609130859375 C 133.2350616455078 332.19219970703125 95.30160522460938 313.3526611328125 252.2984619140625 98.47907257080078 C 166.80052185058594 65.34420776367188 173.55868530273438 10.017047882080078 333.34503173828125 17.336801528930664 C 387.57281494140625 131.1949462890625 441.9468688964844 75.81236267089844 439.3867492675781 146.20826721191406" stroke-width="0.0" fill="rgb(58, 253, 0)" opacity="1.0" stroke="rgb(0, 0, 0)" stroke-opacity="1.0" stroke-linecap="round" stroke-linejoin="round"/>
    <path d="M 338.8215026855469 142.409423828125 C 351.3574523925781 356.980712890625 269.1339111328125 388.54193115234375 173.4593963623047 315.98748779296875 C 61.18696594238281 180.95150756835938 -16.64313507080078 242.92857360839844 64.07205963134766 118.12617492675781 C 25.006301879882812 -1.2997127771377563 107.83544921875 28.944744110107422 155.9521484375 29.55624008178711 C 262.7739562988281 -43.180747985839844 286.4951171875 -28.154056549072266 338.8215026855469 142.409423828125" stroke-width="0.0" fill="rgb(147, 108, 178)" opacity="0.9532019" stroke="rgb(0, 0, 0)" stroke-opacity="1.0" stroke-linecap="round" stroke-linejoin="round"/>
    <path d="M 452.6214904785156 405.0709533691406 C 377.6806640625 500.36016845703125 378.8034973144531 310.52703857421875 427.31640625 474.5425720214844 C 286.0133056640625 553.8807373046875 358.7369079589844 572.2539672851562 288.6419372558594 488.0510559082031 C 251.64019775390625 275.88275146484375 286.21148681640625 316.3701171875 334.70819091796875 218.95571899414062 C 424.4474792480469 106.44685363769531 544.6602172851562 173.03675842285156 452.6214904785156 405.0709533691406" stroke-width="0.0" fill="rgb(24, 23, 168)" opacity="0.9982043" stroke="rgb(0, 0, 0)" stroke-opacity="1.0" stroke-linecap="round" stroke-linejoin="round"/>
    <path d="M 476.6522521972656 208.708740234375 C 562.207763671875 277.47021484375 478.03680419921875 270.853271484375 563.4989624023438 351.3212585449219 C 459.663818359375 421.9371643066406 259.5709533691406 314.9144287109375 451.19549560546875 183.0321502685547 C 306.2051696777344 197.4703826904297 360.44134521484375 108.5991439819336 465.83917236328125 87.90699768066406 C 470.98486328125 164.176025390625 459.48114013671875 149.19308471679688 476.6522521972656 208.708740234375" stroke-width="0.0" fill="rgb(26, 25, 152)" opacity="1.0" stroke="rgb(0, 0, 0)" stroke-opacity="1.0" stroke-linecap="round" stroke-linejoin="round"/>
    <path d="M 425.2425231933594 219.9853973388672 C 331.2355041503906 286.860595703125 333.9837341308594 298.7364807128906 276.50250244140625 283.2292785644531 C 249.56922912597656 290.53961181640625 303.84173583984375 329.1313781738281 95.56289672851562 186.54725646972656 C 327.71923828125 239.3761444091797 218.03839111328125 298.1899719238281 308.53594970703125 280.14764404296875 C 375.39599609375 236.0128936767578 456.8263244628906 194.9563446044922 425.2425231933594 219.9853973388672" stroke-width="0.0" fill="rgb(0, 135, 28)" opacity="0.8448745" stroke="rgb(0, 0, 0)" stroke-opacity="1.0" stroke-linecap="round" stroke-linejoin="round"/>
    <path d="M 385.7149963378906 154.34918212890625 C 392.69476318359375 224.19189453125 357.6883239746094 201.33645629882812 342.6728515625 224.7537841796875 C 341.25018310546875 261.7399597167969 359.7250061035156 265.5705871582031 263.095458984375 252.11361694335938 C 322.47943115234375 78.00640106201172 233.8021697998047 191.8802490234375 370.4366760253906 144.7216033935547 C 402.369140625 174.6016082763672 524.0944213867188 193.01718139648438 385.7149963378906 154.34918212890625" stroke-width="0.0" fill="rgb(60, 25, 189)" opacity="1.0" stroke="rgb(0, 0, 0)" stroke-opacity="1.0" stroke-linecap="round" stroke-linejoin="round"/>
    <path d="M 291.35150146484375 272.82183837890625 C 246.54949951171875 299.34002685546875 254.68663024902344 290.1132507324219 230.84375 307.7204284667969 C 223.6904296875 270.4071350097656 199.2749786376953 269.2156982421875 104.49614715576172 197.8925018310547 C 247.005615234375 131.56631469726562 148.15475463867188 218.3000946044922 213.27085876464844 185.4676513671875 C 238.24441528320312 231.42723083496094 254.60951232910156 269.41748046875 291.35150146484375 272.82183837890625" stroke-width="0.0" fill="rgb(225, 187, 183)" opacity="0.9990486" stroke="rgb(0, 0, 0)" stroke-opacity="1.0" stroke-linecap="round" stroke-linejoin="round"/>
    <path d="M 430.4078063964844 203.05393981933594 C 310.1622314453125 298.7790222167969 572.7080688476562 229.12777709960938 474.33453369140625 404.23345947265625 C 243.99171447753906 417.6933898925781 255.5203857421875 444.9427795410156 245.5492401123047 369.039306640625 C 383.0616760253906 260.873046875 406.8849182128906 269.43267822265625 426.74224853515625 294.335205078125 C 423.8474426269531 269.79193115234375 458.3906555175781 208.46043395996094 430.4078063964844 203.05393981933594" stroke-width="0.0" fill="rgb(79, 12, 154)" opacity="0.7392685" stroke="rgb(0, 0, 0)" stroke-opacity="1.0" stroke-linecap="round" stroke-linejoin="round"/>
    <path d="M 172.0011749267578 93.49895477294922 C 243.01817321777344 93.05034637451172 253.62429809570312 143.33773803710938 213.6046142578125 94.086669921875 C 116.89889526367188 129.46826171875 -39.85810089111328 263.9122314453125 49.93146514892578 10.662873268127441 C 298.2110595703125 89.14236450195312 261.2982482910156 161.15951538085938 162.99363708496094 -3.7125396728515625 C 342.9573974609375 -63.059444427490234 234.70103454589844 47.93878936767578 172.0011749267578 93.49895477294922" stroke-width="0.0" fill="rgb(32, 0, 159)" opacity="0.70913196" stroke="rgb(0, 0, 0)" stroke-opacity="1.0" stroke-linecap="round" stroke-linejoin="round"/>
    <path d="M 185.93885803222656 394.35089111328125 C 177.11398315429688 375.0368957519531 181.3413848876953 353.9837646484375 205.33290100097656 403.89404296875 C 157.69259643554688 362.2971496582031 162.50650024414062 391.6293029785156 163.564453125 351.37054443359375 C 152.50259399414062 325.2647705078125 112.46442413330078 311.3311767578125 170.32632446289062 303.6224060058594 C 155.30709838867188 364.4189453125 170.6077117919922 352.5323486328125 185.93885803222656 394.35089111328125" stroke-width="0.0" fill="rgb(255, 148, 108)" opacity="0.08585852" stroke="rgb(0, 0, 0)" stroke-opacity="1.0" stroke-linecap="round" stroke-linejoin="round"/>
    <path d="M 382.3985595703125 50.10826110839844 C 388.14019775390625 58.553897857666016 381.3713073730469 52.69626235961914 354.80419921875 51.341495513916016 C 362.85528564453125 59.635467529296875 365.3997802734375 58.8155403137207 366.74542236328125 66.79827117919922 C 364.7413024902344 65.04591369628906 381.83624267578125 44.592872619628906 372.6839294433594 46.6708869934082 C 407.216552734375 66.2613754272461 395.9759216308594 64.20986938476562 382.3985595703125 50.10826110839844" stroke-width="0.0" fill="rgb(117, 216, 165)" opacity="0.03422532" stroke="rgb(0, 0, 0)" stroke-opacity="1.0" stroke-linecap="round" stroke-linejoin="round"/>
    <path d="M 563.174072265625 50.09522247314453 C 548.865478515625 83.70504760742188 532.8013916015625 51.517093658447266 514.0569458007812 2.508629322052002 C 492.49517822265625 -4.503608703613281 483.6739807128906 -6.372283935546875 472.2358703613281 -9.223393440246582 C 448.6709899902344 -22.378637313842773 452.01837158203125 -25.987255096435547 473.14654541015625 -31.300594329833984 C 501.29168701171875 -16.257373809814453 518.6566772460938 -17.103946685791016 563.174072265625 50.09522247314453" stroke-width="0.0" fill="rgb(95, 64, 87)" opacity="0.6619522" stroke="rgb(0, 0, 0)" stroke-opacity="1.0" stroke-linecap="round" stroke-linejoin="round"/>
    <path d="M 341.269287109375 485.5994873046875 C 320.82501220703125 492.9003601074219 348.9719543457031 455.1802062988281 307.9311218261719 515.6621704101562 C 140.51499938964844 575.2775268554688 127.40145874023438 467.4819030761719 179.19964599609375 458.8439636230469 C 225.39430236816406 421.8511047363281 215.20175170898438 355.5843505859375 303.2050476074219 318.7381896972656 C 427.7649230957031 277.66107177734375 403.544921875 255.16476440429688 341.269287109375 485.5994873046875" stroke-width="0.0" fill="rgb(164, 134, 161)" opacity="1.0" stroke="rgb(0, 0, 0)" stroke-opacity="1.0" stroke-linecap="round" stroke-linejoin="round"/>
    <path d="M 202.5270233154297 300.94805908203125 C 272.9359130859375 358.0345458984375 285.3245544433594 334.02276611328125 239.645263671875 335.8940124511719 C 193.1444549560547 229.54803466796875 89.88723754882812 180.645751953125 108.28275299072266 197.52590942382812 C 91.5587158203125 200.73428344726562 146.7469024658203 299.3283996582031 254.5960235595703 292.9547424316406 C 229.018310546875 277.87835693359375 171.28648376464844 247.27439880371094 202.5270233154297 300.94805908203125" stroke-width="0.0" fill="rgb(255, 228, 167)" opacity="0.44553593" stroke="rgb(0, 0, 0)" stroke-opacity="1.0" stroke-linecap="round" stroke-linejoin="round"/>
    <path d="M 431.7375793457031 439.5624084472656 C 422.8468933105469 482.9964904785156 369.81158447265625 476.3373718261719 382.83209228515625 501.5076599121094 C 401.8488464355469 497.0081481933594 399.5382385253906 489.38153076171875 321.06915283203125 557.7957763671875 C 269.9920654296875 397.6256103515625 291.4496765136719 318.7875061035156 361.55389404296875 333.4122314453125 C 376.3625793457031 433.0832824707031 387.3388366699219 383.14849853515625 431.7375793457031 439.5624084472656" stroke-width="0.0" fill="rgb(25, 5, 126)" opacity="0.75937283" stroke="rgb(0, 0, 0)" stroke-opacity="1.0" stroke-linecap="round" stroke-linejoin="round"/>
    <path d="M 308.7128601074219 129.94793701171875 C 395.32403564453125 117.68910217285156 367.8363342285156 157.8622589111328 301.9402160644531 173.98988342285156 C 228.59873962402344 148.4725341796875 257.64959716796875 206.90992736816406 227.30413818359375 124.28684997558594 C 239.2579345703125 53.64756393432617 298.9510192871094 9.431466102600098 286.0803527832031 58.052738189697266 C 305.2712097167969 109.6064682006836 348.752685546875 86.01712799072266 308.7128601074219 129.94793701171875" stroke-width="0.0" fill="rgb(60, 65, 137)" opacity="0.87450993" stroke="rgb(0, 0, 0)" stroke-opacity="1.0" stroke-linecap="round" stroke-linejoin="round"/>
    <path d="M 445.9482116699219 308.47119140625 C 289.6234130859375 378.66497802734375 306.40704345703125 409.985107421875 306.50604248046875 397.81951904296875 C 239.95303344726562 449.24102783203125 183.4322052001953 387.0000305175781 70.91194152832031 308.7774963378906 C 156.59765625 223.52603149414062 177.0706024169922 255.59140014648438 242.19676208496094 321.6065368652344 C 394.2890319824219 217.24400329589844 577.3025512695312 167.71629333496094 445.9482116699219 308.47119140625" stroke-width="0.0" fill="rgb(92, 243, 0)" opacity="1.0" stroke="rgb(0, 0, 0)" stroke-opacity="1.0" stroke-linecap="round" stroke-linejoin="round"/>
    <path d="M 432.15924072265625 220.82322692871094 C 408.7148132324219 203.12338256835938 394.9527282714844 200.99749755859375 361.2167663574219 200.4381103515625 C 375.7880859375 183.6521759033203 347.91436767578125 217.81419372558594 323.6693115234375 234.98529052734375 C 355.7394104003906 230.2751922607422 359.2828063964844 278.7767333984375 358.5733337402344 113.92967987060547 C 421.00439453125 134.1017303466797 415.3224792480469 161.90164184570312 432.15924072265625 220.82322692871094" stroke-width="0.0" fill="rgb(85, 6, 184)" opacity="0.8300425" stroke="rgb(0, 0, 0)" stroke-opacity="1.0" stroke-linecap="round" stroke-linejoin="round"/>
    <path d="M 465.5660400390625 218.95567321777344 C 443.82061767578125 254.28802490234375 482.4399719238281 219.5120391845703 425.4803466796875 242.1699981689453 C 314.3960876464844 293.8664855957031 303.8131103515625 262.0363464355469 434.84588623046875 228.42526245117188 C 445.5298767089844 144.30535888671875 415.8787536621094 182.52099609375 412.0188293457031 139.60890197753906 C 509.85107421875 159.82606506347656 465.1106262207031 169.5867156982422 465.5660400390625 218.95567321777344" stroke-width="0.0" fill="rgb(143, 73, 253)" opacity="0.40213338" stroke="rgb(0, 0, 0)" stroke-opacity="1.0" stroke-linecap="round" stroke-linejoin="round"/>
    <path d="M 199.45887756347656 319.2584533691406 C 169.42349243164062 329.4910888671875 167.03936767578125 341.0437316894531 75.44577026367188 308.02886962890625 C 6.954080581665039 289.48126220703125 85.63288116455078 297.8069763183594 -22.512474060058594 254.6971435546875 C 32.19798278808594 212.31829833984375 41.493072509765625 198.28045654296875 126.24746704101562 230.3310089111328 C 169.0365447998047 265.55194091796875 211.2528076171875 280.90728759765625 199.45887756347656 319.2584533691406" stroke-width="0.0" fill="rgb(84, 253, 0)" opacity="0.9580091" stroke="rgb(0, 0, 0)" stroke-opacity="1.0" stroke-linecap="round" stroke-linejoin="round"/>
    <path d="M -13.414571762084961 32.384517669677734 C -0.22798043489456177 7.747283458709717 -5.760363578796387 -2.525317907333374 9.320438385009766 -4.485823154449463 C 51.49506759643555 -34.20790481567383 74.9534683227539 -61.8578987121582 -24.370624542236328 -19.42747688293457 C -21.689895629882812 147.36611938476562 9.88127613067627 104.35704803466797 -11.260078430175781 47.08308410644531 C 9.311802864074707 10.494503021240234 -8.878838539123535 24.903963088989258 -13.414571762084961 32.384517669677734" stroke-width="0.0" fill="rgb(42, 24, 56)" opacity="0.6184082" stroke="rgb(0, 0, 0)" stroke-opacity="1.0" stroke-linecap="round" stroke-linejoin="round"/>
    <path d="M 313.2101745605469 150.89044189453125 C 323.43133544921875 232.75091552734375 330.4992980957031 228.27288818359375 298.5081481933594 231.3963623046875 C 212.1042938232422 248.922119140625 245.05967712402344 236.3639373779297 264.0379333496094 180.08509826660156 C 328.4115295410156 172.49264526367188 297.84783935546875 187.35623168945312 284.712158203125 122.92015838623047 C 262.9158020019531 162.5867919921875 265.615234375 168.96295166015625 313.2101745605469 150.89044189453125" stroke-width="0.0" fill="rgb(70, 46, 123)" opacity="0.6800255" stroke="rgb(0, 0, 0)" stroke-opacity="1.0" stroke-linecap="round" stroke-linejoin="round"/>
    <path d="M 169.49911499023438 499.9942321777344 C 153.7100067138672 466.0613098144531 184.63626098632812 483.8360900878906 178.17218017578125 513.5400390625 C 132.5565643310547 519.8788452148438 130.5959930419922 508.71124267578125 119.17106628417969 506.3979187011719 C 119.54354858398438 472.6710510253906 124.34227752685547 426.33953857421875 167.45269775390625 384.3883972167969 C 194.7158660888672 447.5335998535156 182.71815490722656 503.38348388671875 169.49911499023438 499.9942321777344" stroke-width="0.0" fill="rgb(86, 64, 122)" opacity="0.65628994" stroke="rgb(0, 0, 0)" stroke-opacity="1.0" stroke-linecap="round" stroke-linejoin="round"/>
    <path d="M 112.38290405273438 229.0982666015625 C 150.27903747558594 241.0491485595703 94.59941864013672 215.87281799316406 113.21153259277344 223.6676788330078 C 110.82230377197266 219.37417602539062 84.4266128540039 207.26002502441406 75.54840087890625 195.24473571777344 C 78.11161041259766 224.9464874267578 60.62384796142578 211.3152618408203 118.50692749023438 168.39442443847656 C 153.20059204101562 203.6478271484375 128.455078125 233.793212890625 112.38290405273438 229.0982666015625" stroke-width="0.0" fill="rgb(239, 70, 90)" opacity="0.008197583" stroke="rgb(0, 0, 0)" stroke-opacity="1.0" stroke-linecap="round" stroke-linejoin="round"/>
    <path d="M 118.66158294677734 142.35536193847656 C 134.8455810546875 127.89962768554688 104.19751739501953 103.66303253173828 72.24925231933594 134.2793731689453 C 75.01544189453125 222.09149169921875 21.97291374206543 213.57363891601562 17.6865234375 88.70567321777344 C 33.29762649536133 81.36897277832031 80.5496597290039 100.96063232421875 99.47950744628906 121.19090270996094 C 102.90640258789062 101.2051773071289 99.59298706054688 134.4579315185547 118.66158294677734 142.35536193847656" stroke-width="0.0" fill="rgb(255, 202, 113)" opacity="0.6164908" stroke="rgb(0, 0, 0)" stroke-opacity="1.0" stroke-linecap="round" stroke-linejoin="round"/>
    <path d="M 292.91796875 217.53060913085938 C 348.704345703125 238.0162353515625 329.20880126953125 198.7117156982422 290.249755859375 202.75143432617188 C 246.07415771484375 240.43978881835938 257.55828857421875 246.23321533203125 179.7870635986328 233.18551635742188 C 219.93661499023438 225.72589111328125 222.13975524902344 216.82130432128906 261.5887756347656 226.3147735595703 C 339.6953125 222.94056701660156 349.4523620605469 194.81138610839844 292.91796875 217.53060913085938" stroke-width="0.0" fill="rgb(45, 134, 2)" opacity="0.04327519" stroke="rgb(0, 0, 0)" stroke-opacity="1.0" stroke-linecap="round" stroke-linejoin="round"/>
    <path d="M 215.79901123046875 143.9443817138672 C 194.3974609375 128.7093963623047 192.5667724609375 100.79187774658203 217.6946258544922 95.61974334716797 C 201.28707885742188 100.93522644042969 163.70570373535156 149.55328369140625 64.5457763671875 197.8231658935547 C 156.28712463378906 109.8380126953125 216.1544189453125 122.59953308105469 217.955322265625 93.62386322021484 C 245.52291870117188 98.43319702148438 258.4644470214844 111.8463363647461 215.79901123046875 143.9443817138672" stroke-width="0.0" fill="rgb(30, 128, 10)" opacity="0.77013695" stroke="rgb(0, 0, 0)" stroke-opacity="1.0" stroke-linecap="round" stroke-linejoin="round"/>
    <path d="M 45.42198944091797 566.93505859375 C 42.45839309692383 539.5292358398438 15.03414249420166 530.3245849609375 0.8111952543258667 530.5191040039062 C -9.364206314086914 527.7437133789062 -16.68471336364746 520.4232177734375 -21.20284080505371 510.0506896972656 C -18.48799705505371 494.70721435546875 -31.987857818603516 464.11956787109375 -62.46866989135742 446.64520263671875 C -6.195295810699463 493.88604736328125 7.3135905265808105 517.4912719726562 45.42198944091797 566.93505859375" stroke-width="0.0" fill="rgb(47, 16, 56)" opacity="0.7418961" stroke="rgb(0, 0, 0)" stroke-opacity="1.0" stroke-linecap="round" stroke-linejoin="round"/>
    <path d="M 215.20872497558594 127.43671417236328 C 263.9373779296875 125.26980590820312 185.07948303222656 138.43966674804688 112.02493286132812 195.60328674316406 C 61.65766143798828 161.7472381591797 130.9505157470703 215.3750457763672 140.47048950195312 193.426513671875 C 126.36455535888672 196.98272705078125 144.52865600585938 214.38961791992188 81.70011138916016 195.91107177734375 C 139.1151580810547 162.74856567382812 122.32331085205078 164.53277587890625 215.20872497558594 127.43671417236328" stroke-width="0.0" fill="rgb(194, 91, 239)" opacity="0.63378054" stroke="rgb(0, 0, 0)" stroke-opacity="1.0" stroke-linecap="round" stroke-linejoin="round"/>
    <path d="M 517.9124145507812 258.1333923339844 C 355.13702392578125 319.05828857421875 316.72076416015625 304.33526611328125 333.31378173828125 316.1929626464844 C 257.9224853515625 310.47137451171875 248.26454162597656 352.4940185546875 253.40377807617188 289.1119384765625 C 250.5795440673828 244.23110961914062 288.7229919433594 254.88125610351562 361.7437744140625 258.1752624511719 C 278.9864196777344 299.9427795410156 390.4258117675781 169.71994018554688 517.9124145507812 258.1333923339844" stroke-width="0.0" fill="rgb(0, 57, 31)" opacity="0.98503304" stroke="rgb(0, 0, 0)" stroke-opacity="1.0" stroke-linecap="round" stroke-linejoin="round"/>
    <path d="M 242.5185089111328 117.00572967529297 C 228.12216186523438 198.96688842773438 232.2362823486328 157.69476318359375 177.7958221435547 128.29600524902344 C 166.72894287109375 99.67139434814453 198.83506774902344 112.68289947509766 174.6866455078125 135.86529541015625 C 171.00547790527344 72.996337890625 141.09268188476562 13.043030738830566 159.9478302001953 35.68620300292969 C 211.3018798828125 95.04641723632812 233.79278564453125 76.32296752929688 242.5185089111328 117.00572967529297" stroke-width="0.0" fill="rgb(228, 184, 154)" opacity="1.0" stroke="rgb(0, 0, 0)" stroke-opacity="1.0" stroke-linecap="round" stroke-linejoin="round"/>
    <path d="M 177.58139038085938 -13.448127746582031 C 126.6773452758789 12.115839958190918 163.2154998779297 102.23109436035156 197.24078369140625 115.49609375 C 157.70632934570312 64.16947937011719 138.15904235839844 118.14241027832031 118.96268463134766 110.5169677734375 C 102.05614471435547 28.680740356445312 140.00213623046875 -21.921428680419922 214.22640991210938 -4.191976070404053 C 218.427978515625 98.68682861328125 228.1699981689453 62.335906982421875 177.58139038085938 -13.448127746582031" stroke-width="0.0" fill="rgb(134, 255, 24)" opacity="0.97498924" stroke="rgb(0, 0, 0)" stroke-opacity="1.0" stroke-linecap="round" stroke-linejoin="round"/>
    <path d="M 391.1063232421875 76.79237365722656 C 393.23614501953125 55.301902770996094 391.0260314941406 47.42070007324219 379.951171875 104.09156036376953 C 395.6632995605469 161.60533142089844 383.3616027832031 132.79983520507812 365.5630187988281 87.49458312988281 C 363.8816833496094 86.33773803710938 367.50244140625 86.091552734375 361.0650939941406 89.26655578613281 C 382.6050720214844 123.88406372070312 372.0805358886719 114.52898406982422 391.1063232421875 76.79237365722656" stroke-width="0.0" fill="rgb(152, 232, 146)" opacity="0.041672572" stroke="rgb(0, 0, 0)" stroke-opacity="1.0" stroke-linecap="round" stroke-linejoin="round"/>
    <path d="M 321.50079345703125 495.22882080078125 C 320.58697509765625 515.2611694335938 323.77630615234375 516.3652954101562 307.7443542480469 528.2726440429688 C 282.10498046875 557.2225952148438 279.82489013671875 580.686767578125 277.700439453125 487.1636047363281 C 271.3023986816406 411.7660827636719 276.4866027832031 399.22869873046875 296.59771728515625 396.3905944824219 C 320.1958312988281 423.6679382324219 313.1431579589844 459.9082336425781 321.50079345703125 495.22882080078125" stroke-width="0.0" fill="rgb(8, 12, 186)" opacity="0.6761478" stroke="rgb(0, 0, 0)" stroke-opacity="1.0" stroke-linecap="round" stroke-linejoin="round"/>
    <path d="M 316.30047607421875 129.3257598876953 C 330.9741516113281 92.71414184570312 348.9466857910156 103.80497741699219 325.0480651855469 177.25320434570312 C 295.59088134765625 172.35777282714844 295.6908264160156 159.8585968017578 244.10342407226562 153.53173828125 C 221.41502380371094 189.58123779296875 248.67990112304688 223.3634490966797 299.73828125 197.3046875 C 283.655029296875 132.483642578125 330.41436767578125 153.62509155273438 316.30047607421875 129.3257598876953" stroke-width="0.0" fill="rgb(68, 86, 109)" opacity="0.13875265" stroke="rgb(0, 0, 0)" stroke-opacity="1.0" stroke-linecap="round" stroke-linejoin="round"/>
    <path d="M 310.530029296875 32.5814094543457 C 232.89889526367188 31.049362182617188 245.10220336914062 41.40203094482422 277.5726318359375 34.4935417175293 C 254.05955505371094 50.406394958496094 268.5330505371094 26.734811782836914 266.4744873046875 -20.503067016601562 C 260.4906921386719 -8.770532608032227 270.0048522949219 -17.60893440246582 277.2820739746094 -3.480285167694092 C 312.5834655761719 -19.795513153076172 323.6629943847656 20.403125762939453 310.530029296875 32.5814094543457" stroke-width="0.0" fill="rgb(20, 31, 124)" opacity="1.0" stroke="rgb(0, 0, 0)" stroke-opacity="1.0" stroke-linecap="round" stroke-linejoin="round"/>
    <path d="M 352.6912536621094 277.2054138183594 C 342.0792236328125 270.86126708984375 309.9715576171875 271.9945983886719 325.1063537597656 265.74627685546875 C 295.84442138671875 300.5202331542969 267.2626037597656 296.7764587402344 269.2419128417969 250.84591674804688 C 329.86181640625 246.8032684326172 346.521728515625 244.83497619628906 345.45452880859375 249.12026977539062 C 323.4390563964844 230.13121032714844 321.1173095703125 252.2884063720703 352.6912536621094 277.2054138183594" stroke-width="0.0" fill="rgb(64, 1, 246)" opacity="0.51839715" stroke="rgb(0, 0, 0)" stroke-opacity="1.0" stroke-linecap="round" stroke-linejoin="round"/>
    <path d="M 192.2313690185547 84.1686019897461 C 169.7761688232422 56.248538970947266 171.88735961914062 73.77641296386719 157.33969116210938 87.92401885986328 C 184.3861541748047 111.70970153808594 181.2286834716797 115.70008087158203 185.50404357910156 93.81309509277344 C 187.19479370117188 74.2319564819336 227.873779296875 46.295963287353516 200.75405883789062 16.546852111816406 C 199.18934631347656 42.736663818359375 212.92626953125 65.12379455566406 192.2313690185547 84.1686019897461" stroke-width="0.0" fill="rgb(255, 90, 250)" opacity="0.11027689" stroke="rgb(0, 0, 0)" stroke-opacity="1.0" stroke-linecap="round" stroke-linejoin="round"/>
    <path d="M 534.1185302734375 453.3882751464844 C 544.3255615234375 467.10479736328125 538.65625 484.193359375 526.3954467773438 473.4228820800781 C 527.830810546875 453.1092529296875 513.9419555664062 461.6501770019531 512.4801635742188 480.1797180175781 C 515.894775390625 421.69232177734375 505.4677734375 414.78448486328125 526.0333251953125 428.3346252441406 C 522.9414672851562 435.2409362792969 525.7348022460938 438.7987365722656 534.1185302734375 453.3882751464844" stroke-width="0.0" fill="rgb(103, 96, 114)" opacity="0.942571" stroke="rgb(0, 0, 0)" stroke-opacity="1.0" stroke-linecap="round" stroke-linejoin="round"/>
    <path d="M 365.6537780761719 440.53167724609375 C 392.0001220703125 502.5280456542969 379.4058532714844 512.7239379882812 336.40032958984375 485.4554138183594 C 325.5508117675781 476.68109130859375 297.2572021484375 444.6419372558594 322.7506103515625 469.2993469238281 C 342.2156677246094 458.50390625 351.8035888671875 476.45587158203125 347.45269775390625 482.655029296875 C 362.1515197753906 483.2120361328125 328.0657958984375 446.6390075683594 365.6537780761719 440.53167724609375" stroke-width="0.0" fill="rgb(18, 42, 110)" opacity="0.2216845" stroke="rgb(0, 0, 0)" stroke-opacity="1.0" stroke-linecap="round" stroke-linejoin="round"/>
    <path d="M 516.7603759765625 420.35296630859375 C 486.18182373046875 453.49652099609375 476.6678161621094 451.90484619140625 438.1390380859375 463.005126953125 C 402.46832275390625 485.23468017578125 400.95074462890625 479.489990234375 419.96759033203125 381.75042724609375 C 485.8893127441406 402.2234802246094 453.4945068359375 429.6233825683594 465.6978454589844 354.3554992675781 C 514.1982421875 322.6201171875 520.36376953125 369.7300109863281 516.7603759765625 420.35296630859375" stroke-width="0.0" fill="rgb(21, 15, 121)" opacity="0.9798087" stroke="rgb(0, 0, 0)" stroke-opacity="1.0" stroke-linecap="round" stroke-linejoin="round"/>
    <path d="M 431.1944580078125 371.54034423828125 C 407.1414794921875 404.7681884765625 411.97869873046875 414.60516357421875 401.201904296875 412.4647216796875 C 391.5634765625 454.80108642578125 369.7626953125 450.9425048828125 356.806396484375 399.53192138671875 C 388.3250732421875 395.56610107421875 397.8570556640625 410.98101806640625 382.77978515625 366.97137451171875 C 417.90118408203125 347.90899658203125 456.5440979003906 360.1693115234375 431.1944580078125 371.54034423828125" stroke-width="0.0" fill="rgb(72, 25, 125)" opacity="0.2051268" stroke="rgb(0, 0, 0)" stroke-opacity="1.0" stroke-linecap="round" stroke-linejoin="round"/>
    <path d="M 281.9200134277344 130.81983947753906 C 264.28936767578125 119.39369201660156 249.7923583984375 128.44813537597656 251.62698364257812 139.06948852539062 C 256.14886474609375 149.7757568359375 241.9556121826172 133.6381378173828 197.61123657226562 122.65921783447266 C 190.0968475341797 105.58195495605469 209.9158935546875 139.78549194335938 262.64208984375 143.19837951660156 C 264.0514221191406 106.9095687866211 250.9560546875 119.73279571533203 281.9200134277344 130.81983947753906" stroke-width="0.0" fill="rgb(101, 147, 104)" opacity="0.36355937" stroke="rgb(0, 0, 0)" stroke-opacity="1.0" stroke-linecap="round" stroke-linejoin="round"/>
    <path d="M 125.83268737792969 454.7010192871094 C 125.44386291503906 490.58123779296875 124.61114501953125 461.71673583984375 81.51905059814453 438.2525329589844 C 30.5773983001709 461.9307556152344 16.95684242248535 475.1596374511719 23.94298553466797 436.0809326171875 C 31.89132308959961 323.6414794921875 11.569548606872559 323.1134948730469 19.94823455810547 378.530517578125 C 98.32186126708984 383.2978515625 112.31311798095703 399.7073974609375 125.83268737792969 454.7010192871094" stroke-width="0.0" fill="rgb(0, 15, 164)" opacity="0.979914" stroke="rgb(0, 0, 0)" stroke-opacity="1.0" stroke-linecap="round" stroke-linejoin="round"/>
    <path d="M 439.74481201171875 103.63904571533203 C 441.8525695800781 85.44632720947266 460.96319580078125 137.474853515625 484.3010559082031 64.07194519042969 C 457.7105407714844 -3.368682622909546 371.22564697265625 22.915266036987305 380.4017028808594 57.8979606628418 C 347.5874938964844 45.226253509521484 359.6251220703125 47.62556457519531 394.37908935546875 66.6614761352539 C 392.08221435546875 111.04192352294922 410.0408935546875 120.55011749267578 439.74481201171875 103.63904571533203" stroke-width="0.0" fill="rgb(79, 6, 112)" opacity="0.83001626" stroke="rgb(0, 0, 0)" stroke-opacity="1.0" stroke-linecap="round" stroke-linejoin="round"/>
    <path d="M 212.42066955566406 -11.07386302947998 C 227.68807983398438 1.6975544691085815 223.26182556152344 -10.298516273498535 203.19503784179688 -4.35219669342041 C 188.96578979492188 40.09275817871094 196.55421447753906 67.92391967773438 221.69696044921875 26.75723648071289 C 211.2703094482422 -2.3247976303100586 206.8341827392578 -1.5053845643997192 214.16236877441406 -12.016918182373047 C 195.95120239257812 -0.37179237604141235 189.88192749023438 5.423675537109375 212.42066955566406 -11.07386302947998" stroke-width="0.0" fill="rgb(254, 155, 224)" opacity="0.96984184" stroke="rgb(0, 0, 0)" stroke-opacity="1.0" stroke-linecap="round" stroke-linejoin="round"/>
    <path d="M 502.29461669921875 235.0113067626953 C 502.78900146484375 253.18743896484375 516.9915771484375 274.41693115234375 534.0850219726562 235.4228973388672 C 502.7835388183594 182.45558166503906 488.8828125 182.71104431152344 485.4049987792969 194.1195831298828 C 486.76904296875 192.1665496826172 499.6370544433594 193.2079315185547 495.2690124511719 184.60694885253906 C 487.57196044921875 194.3048553466797 483.20074462890625 226.3384552001953 502.29461669921875 235.0113067626953" stroke-width="0.0" fill="rgb(218, 255, 76)" opacity="0.02987821" stroke="rgb(0, 0, 0)" stroke-opacity="1.0" stroke-linecap="round" stroke-linejoin="round"/>
    <path d="M 409.3125915527344 309.06842041015625 C 420.771728515625 325.26953125 404.4465637207031 325.8384094238281 390.2550048828125 334.0867004394531 C 411.46331787109375 307.9888610839844 424.9034423828125 289.67138671875 427.3951721191406 325.5234069824219 C 383.8646240234375 305.1437072753906 397.8182067871094 289.5763854980469 437.5513610839844 298.809326171875 C 437.00860595703125 301.1414794921875 412.839599609375 317.0080261230469 409.3125915527344 309.06842041015625" stroke-width="0.0" fill="rgb(84, 155, 0)" opacity="0.059636325" stroke="rgb(0, 0, 0)" stroke-opacity="1.0" stroke-linecap="round" stroke-linejoin="round"/>
    <path d="M 253.35076904296875 281.5191955566406 C 241.81158447265625 278.0749816894531 232.4399871826172 263.97509765625 228.87594604492188 322.9638671875 C 177.69662475585938 316.490234375 185.72413635253906 288.9683532714844 204.2599639892578 262.9158630371094 C 211.96487426757812 259.9532775878906 191.80911254882812 227.5867462158203 186.1205291748047 258.17816162109375 C 245.9317169189453 258.5021667480469 256.3265380859375 274.0708923339844 253.35076904296875 281.5191955566406" stroke-width="0.0" fill="rgb(255, 187, 230)" opacity="1.0" stroke="rgb(0, 0, 0)" stroke-opacity="1.0" stroke-linecap="round" stroke-linejoin="round"/>
    <path d="M 257.8083190917969 312.5524597167969 C 268.2289123535156 303.3816833496094 269.92095947265625 309.72015380859375 266.60699462890625 306.08636474609375 C 250.82546997070312 307.77777099609375 233.31292724609375 323.9623718261719 212.93365478515625 309.1918640136719 C 263.77862548828125 309.2933044433594 273.91552734375 303.22979736328125 257.1314392089844 319.3275146484375 C 229.04409790039062 305.02301025390625 245.0863494873047 289.8736877441406 257.8083190917969 312.5524597167969" stroke-width="0.0" fill="rgb(9, 192, 2)" opacity="0.0" stroke="rgb(0, 0, 0)" stroke-opacity="1.0" stroke-linecap="round" stroke-linejoin="round"/>
    <path d="M 63.19804382324219 114.43951416015625 C 22.451963424682617 96.83705139160156 27.75774383544922 117.53993225097656 48.528385162353516 146.9746551513672 C 52.00946807861328 134.04502868652344 27.535348892211914 139.6181182861328 -6.642315864562988 132.83534240722656 C 7.0901031494140625 124.4481201171875 31.11311912536621 128.2841033935547 43.86919021606445 138.98365783691406 C 48.99345397949219 163.08816528320312 71.55594635009766 210.3909454345703 63.19804382324219 114.43951416015625" stroke-width="0.0" fill="rgb(237, 237, 15)" opacity="0.27045727" stroke="rgb(0, 0, 0)" stroke-opacity="1.0" stroke-linecap="round" stroke-linejoin="round"/>
    <path d="M 407.6224670410156 146.45840454101562 C 412.4040222167969 131.68959045410156 399.6510314941406 165.7097625732422 446.614013671875 143.4070281982422 C 419.3468017578125 154.0890350341797 401.39080810546875 172.91067504882812 431.05517578125 116.8087387084961 C 406.8583984375 76.84928894042969 381.8343505859375 78.2600326538086 391.7546081542969 98.95497131347656 C 396.3564147949219 113.44525146484375 403.45574951171875 143.71994018554688 407.6224670410156 146.45840454101562" stroke-width="0.0" fill="rgb(221, 139, 149)" opacity="0.853021" stroke="rgb(0, 0, 0)" stroke-opacity="1.0" stroke-linecap="round" stroke-linejoin="round"/>
    <path d="M 103.92825317382812 485.9901428222656 C 84.08130645751953 480.3349914550781 58.79433822631836 467.1335754394531 84.10623168945312 505.5848083496094 C 79.51984405517578 533.48876953125 75.09796905517578 518.7611694335938 32.83016586303711 520.6327514648438 C 36.57583999633789 479.35589599609375 35.83174514770508 455.75018310546875 62.749603271484375 431.4720153808594 C 79.69010162353516 463.3219299316406 76.08939361572266 482.6408996582031 103.92825317382812 485.9901428222656" stroke-width="0.0" fill="rgb(254, 244, 195)" opacity="0.0024612173" stroke="rgb(0, 0, 0)" stroke-opacity="1.0" stroke-linecap="round" stroke-linejoin="round"/>
    <path d="M 521.9554443359375 44.60626983642578 C 563.0078125 54.87908172607422 564.6409301757812 56.99580001831055 501.6664123535156 47.596126556396484 C 515.4620361328125 65.39727783203125 521.0776977539062 45.92612075805664 492.19140625 31.837757110595703 C 482.94488525390625 27.622482299804688 518.1986694335938 12.12895679473877 519.3383178710938 14.997365951538086 C 520.7627563476562 9.740410804748535 522.8976440429688 29.629175186157227 521.9554443359375 44.60626983642578" stroke-width="0.0" fill="rgb(184, 200, 145)" opacity="0.00825901" stroke="rgb(0, 0, 0)" stroke-opacity="1.0" stroke-linecap="round" stroke-linejoin="round"/>
    <path d="M 299.685302734375 312.98974609375 C 303.6810607910156 319.9764099121094 295.4305725097656 321.025146484375 258.1893005371094 327.0517272949219 C 256.2862548828125 326.7821044921875 253.52830505371094 303.33819580078125 242.2961883544922 273.5426330566406 C 309.3458557128906 263.4889831542969 300.4384460449219 266.97747802734375 305.8476257324219 290.1377258300781 C 321.1356201171875 290.9376525878906 325.94775390625 298.4226989746094 299.685302734375 312.98974609375" stroke-width="0.0" fill="rgb(96, 0, 255)" opacity="0.59594834" stroke="rgb(0, 0, 0)" stroke-opacity="1.0" stroke-linecap="round" stroke-linejoin="round"/>
    <path d="M 339.5338439941406 139.71612548828125 C 331.7722473144531 106.53055572509766 328.3396911621094 113.59966278076172 312.34393310546875 125.25010681152344 C 329.13275146484375 92.99510955810547 332.79376220703125 97.02283477783203 293.35833740234375 92.7459716796875 C 278.1391906738281 80.43379211425781 286.9508056640625 64.79673767089844 342.5274963378906 -24.55047035217285 C 351.20355224609375 59.3366584777832 323.0416564941406 117.80811309814453 339.5338439941406 139.71612548828125" stroke-width="0.0" fill="rgb(46, 25, 150)" opacity="0.86431104" stroke="rgb(0, 0, 0)" stroke-opacity="1.0" stroke-linecap="round" stroke-linejoin="round"/>
    <path d="M 134.68775939941406 53.177696228027344 C 128.30941772460938 84.6592788696289 129.4903106689453 102.30172729492188 122.36993408203125 114.1314697265625 C 97.24578094482422 110.16319274902344 99.5843505859375 86.40454864501953 96.96202087402344 73.14092254638672 C 92.89527893066406 59.45328903198242 107.55659484863281 51.34208297729492 111.31971740722656 43.385440826416016 C 130.64764404296875 45.19432830810547 164.51976013183594 50.761878967285156 134.68775939941406 53.177696228027344" stroke-width="0.0" fill="rgb(66, 158, 70)" opacity="0.0" stroke="rgb(0, 0, 0)" stroke-opacity="1.0" stroke-linecap="round" stroke-linejoin="round"/>
    <path d="M 435.2082824707031 466.51361083984375 C 436.06793212890625 527.6348876953125 452.0489807128906 543.57080078125 437.4107971191406 536.6126098632812 C 419.8273010253906 520.6979370117188 408.24859619140625 506.2147521972656 390.6696472167969 473.4072570800781 C 412.61865234375 473.2333068847656 412.02142333984375 470.728271484375 422.59674072265625 465.0454406738281 C 425.8218688964844 456.2158508300781 436.6557922363281 456.9166259765625 435.2082824707031 466.51361083984375" stroke-width="0.0" fill="rgb(240, 240, 231)" opacity="0.0" stroke="rgb(0, 0, 0)" stroke-opacity="1.0" stroke-linecap="round" stroke-linejoin="round"/>
    <path d="M 191.62974548339844 55.19248580932617 C 196.11465454101562 41.32380294799805 212.3790283203125 67.5307388305664 182.03749084472656 93.87044525146484 C 156.8762664794922 6.238282203674316 188.75352478027344 13.624279975891113 219.73190307617188 39.84803009033203 C 193.9979248046875 64.1890640258789 205.79344177246094 73.20389556884766 188.6647491455078 84.55088806152344 C 190.79774475097656 81.68382263183594 200.2600555419922 63.53968811035156 191.62974548339844 55.19248580932617" stroke-width="0.0" fill="rgb(255, 77, 212)" opacity="0.2394408" stroke="rgb(0, 0, 0)" stroke-opacity="1.0" stroke-linecap="round" stroke-linejoin="round"/>
    <path d="M 313.62017822265625 225.84268188476562 C 308.86297607421875 247.26646423339844 298.7667541503906 255.9488525390625 261.01953125 225.05435180664062 C 246.36187744140625 228.42236328125 236.98165893554688 185.02883911132812 247.24961853027344 171.85227966308594 C 277.9798583984375 227.032958984375 299.791748046875 222.3248748779297 287.68914794921875 201.07826232910156 C 280.95263671875 216.45240783691406 284.70709228515625 203.76319885253906 313.62017822265625 225.84268188476562" stroke-width="0.0" fill="rgb(41, 60, 134)" opacity="0.31498492" stroke="rgb(0, 0, 0)" stroke-opacity="1.0" stroke-linecap="round" stroke-linejoin="round"/>
    <path d="M 504.33306884765625 -7.745082378387451 C 477.8963623046875 0.9043442606925964 468.0365905761719 0.5952669382095337 460.1708984375 11.172347068786621 C 478.9219970703125 12.837213516235352 463.4736022949219 16.66280746459961 446.8387451171875 -2.200385093688965 C 452.58740234375 -15.54469108581543 458.8991394042969 -24.022682189941406 466.27130126953125 -20.411304473876953 C 476.8262023925781 -16.114213943481445 486.2515869140625 -11.2457275390625 504.33306884765625 -7.745082378387451" stroke-width="0.0" fill="rgb(255, 255, 57)" opacity="0.02183572" stroke="rgb(0, 0, 0)" stroke-opacity="1.0" stroke-linecap="round" stroke-linejoin="round"/>
    <path d="M 129.3868408203125 416.8419189453125 C 165.653564453125 401.1222229003906 166.8560333251953 416.5348815917969 93.379638671875 432.753662109375 C 117.7918472290039 420.4541320800781 111.67516326904297 408.8399963378906 124.69139862060547 410.72235107421875 C 115.78699493408203 421.1759338378906 126.7758560180664 388.4252624511719 133.74282836914062 380.62786865234375 C 148.570068359375 407.3483581542969 150.58285522460938 424.95770263671875 129.3868408203125 416.8419189453125" stroke-width="0.0" fill="rgb(252, 229, 118)" opacity="0.24888386" stroke="rgb(0, 0, 0)" stroke-opacity="1.0" stroke-linecap="round" stroke-linejoin="round"/>
  </g>
</svg>
