<?xml version="1.0" ?>
<svg xmlns="http://www.w3.org/2000/svg" version="1.1" width="512" height="512">
  <defs/>
  <g>
    <path d="M 275.2127990722656 344.6885986328125 C 202.90011596679688 453.7554931640625 174.97885131835938 250.0018768310547 131.4346466064453 519.4021606445312 C 2.1640641689300537 459.436767578125 -67.70830535888672 287.707763671875 39.11369323730469 155.93006896972656 C 59.99366760253906 404.2929382324219 38.983497619628906 365.79766845703125 63.13166427612305 377.3545227050781 C 151.25367736816406 431.361328125 120.81615447998047 373.1073913574219 275.2127990722656 344.6885986328125" stroke-width="0.0" fill="rgb(0, 0, 13)" opacity="1.0" stroke="rgb(0, 0, 0)" stroke-opacity="1.0" stroke-linecap="round" stroke-linejoin="round"/>
    <path d="M 194.54925537109375 213.2280731201172 C 311.6110534667969 205.2525177001953 197.6078338623047 266.2366943359375 181.837890625 305.02593994140625 C 161.2915496826172 286.9580383300781 109.85192108154297 243.54454040527344 104.56487274169922 197.5900421142578 C 107.50198364257812 240.95657348632812 12.04494857788086 230.7662353515625 181.25198364257812 222.24960327148438 C 194.00399780273438 276.1868591308594 175.44110107421875 256.7489929199219 194.54925537109375 213.2280731201172" stroke-width="0.0" fill="rgb(55, 5, 147)" opacity="0.9598241" stroke="rgb(0, 0, 0)" stroke-opacity="1.0" stroke-linecap="round" stroke-linejoin="round"/>
    <path d="M 399.732421875 221.2902069091797 C 382.1064758300781 325.3916320800781 203.86009216308594 234.59471130371094 373.3173522949219 237.4333038330078 C 402.2746887207031 218.68019104003906 326.5359802246094 154.09719848632812 281.6051025390625 361.99102783203125 C 225.6606903076172 188.3651123046875 318.7613830566406 185.1531219482422 421.86480712890625 179.74526977539062 C 490.4982604980469 225.77838134765625 437.2535400390625 279.8658752441406 399.732421875 221.2902069091797" stroke-width="0.0" fill="rgb(37, 0, 97)" opacity="0.98016036" stroke="rgb(0, 0, 0)" stroke-opacity="1.0" stroke-linecap="round" stroke-linejoin="round"/>
    <path d="M 198.0687713623047 218.12472534179688 C 159.05227661132812 272.94622802734375 228.49813842773438 222.22283935546875 129.46929931640625 241.9805908203125 C 65.09993743896484 243.08444213867188 116.87026977539062 198.34164428710938 162.76724243164062 162.2101593017578 C 205.7569122314453 214.9590606689453 190.81443786621094 222.90261840820312 194.5279541015625 216.49380493164062 C 153.49810791015625 113.45178985595703 147.52737426757812 119.51690673828125 198.0687713623047 218.12472534179688" stroke-width="0.0" fill="rgb(27, 0, 104)" opacity="1.0" stroke="rgb(0, 0, 0)" stroke-opacity="1.0" stroke-linecap="round" stroke-linejoin="round"/>
    <path d="M 552.0599975585938 326.26287841796875 C 536.2652587890625 390.798095703125 411.7408142089844 369.33929443359375 480.8803405761719 448.4972839355469 C 331.1791076660156 288.0248107910156 384.6769714355469 402.8056640625 280.838134765625 294.67730712890625 C 426.1187744140625 377.26849365234375 311.3924865722656 330.66912841796875 385.9146423339844 335.2648010253906 C 440.5518798828125 315.9763488769531 379.9100036621094 340.0191650390625 552.0599975585938 326.26287841796875" stroke-width="0.0" fill="rgb(133, 118, 182)" opacity="0.33101854" stroke="rgb(0, 0, 0)" stroke-opacity="1.0" stroke-linecap="round" stroke-linejoin="round"/>
    <path d="M 443.75677490234375 260.36407470703125 C 443.20916748046875 321.45501708984375 513.4072265625 319.1649169921875 464.793212890625 398.8246154785156 C 444.87664794921875 297.40142822265625 452.6241760253906 330.23675537109375 436.0660400390625 230.68572998046875 C 479.99078369140625 131.2857666015625 476.79974365234375 -13.124552726745605 492.7965393066406 93.2435531616211 C 469.2701721191406 226.90611267089844 523.768310546875 196.95399475097656 443.75677490234375 260.36407470703125" stroke-width="0.0" fill="rgb(12, 2, 54)" opacity="0.9871715" stroke="rgb(0, 0, 0)" stroke-opacity="1.0" stroke-linecap="round" stroke-linejoin="round"/>
    <path d="M 401.6559143066406 302.1846923828125 C 276.13775634765625 324.7060241699219 295.8559875488281 366.5253601074219 299.848388671875 318.3180847167969 C 278.4197692871094 337.1694030761719 348.4359130859375 324.9022521972656 277.1831970214844 328.5436706542969 C 263.0507507324219 320.90570068359375 255.88995361328125 236.8912353515625 266.52008056640625 233.63198852539062 C 301.5606994628906 267.3479309082031 344.7408752441406 262.5816345214844 401.6559143066406 302.1846923828125" stroke-width="0.0" fill="rgb(254, 255, 250)" opacity="1.0" stroke="rgb(0, 0, 0)" stroke-opacity="1.0" stroke-linecap="round" stroke-linejoin="round"/>
    <path d="M 379.771484375 214.60218811035156 C 384.2681579589844 231.49510192871094 382.818603515625 218.66314697265625 385.8263854980469 234.60626220703125 C 370.73822021484375 221.02735900878906 369.53253173828125 190.2812957763672 307.2357482910156 200.35693359375 C 293.7270202636719 236.22125244140625 320.2435607910156 216.7604217529297 322.95556640625 232.96804809570312 C 315.2295227050781 240.6382293701172 344.9044189453125 206.31829833984375 379.771484375 214.60218811035156" stroke-width="0.0" fill="rgb(76, 23, 0)" opacity="0.9330922" stroke="rgb(0, 0, 0)" stroke-opacity="1.0" stroke-linecap="round" stroke-linejoin="round"/>
    <path d="M 40.751285552978516 124.96589660644531 C 81.6489028930664 243.00877380371094 51.36121368408203 91.56365203857422 217.21632385253906 122.16303253173828 C 63.05550003051758 224.79026794433594 47.365360260009766 380.2272644042969 14.95111083984375 118.94658660888672 C 27.394670486450195 -75.15428161621094 14.0535306930542 -41.48617935180664 140.07321166992188 141.5138397216797 C 47.67311477661133 4.056690692901611 39.91336441040039 -52.83734893798828 40.751285552978516 124.96589660644531" stroke-width="0.0" fill="rgb(0, 0, 20)" opacity="1.0" stroke="rgb(0, 0, 0)" stroke-opacity="1.0" stroke-linecap="round" stroke-linejoin="round"/>
    <path d="M 262.3501281738281 284.9022216796875 C 187.61862182617188 298.01507568359375 311.7656555175781 279.9905700683594 295.68243408203125 328.10333251953125 C 44.510459899902344 386.6827087402344 171.39663696289062 330.23089599609375 196.50210571289062 254.4272003173828 C 145.69163513183594 201.60317993164062 192.8599090576172 230.82179260253906 196.68434143066406 261.0189514160156 C 227.49124145507812 299.8401794433594 253.5352020263672 285.3476257324219 262.3501281738281 284.9022216796875" stroke-width="0.0" fill="rgb(10, 0, 112)" opacity="0.9916274" stroke="rgb(0, 0, 0)" stroke-opacity="1.0" stroke-linecap="round" stroke-linejoin="round"/>
    <path d="M 376.1312255859375 231.0966033935547 C 395.8489990234375 246.99908447265625 385.390380859375 222.2235870361328 323.7422180175781 199.19247436523438 C 327.5606994628906 215.55349731445312 286.63018798828125 253.64218139648438 281.1585388183594 252.1539764404297 C 364.51751708984375 226.49281311035156 346.8355712890625 258.0262451171875 363.9446105957031 238.0203094482422 C 390.20599365234375 214.92161560058594 382.3138427734375 221.15232849121094 376.1312255859375 231.0966033935547" stroke-width="0.0" fill="rgb(255, 227, 0)" opacity="0.6104117" stroke="rgb(0, 0, 0)" stroke-opacity="1.0" stroke-linecap="round" stroke-linejoin="round"/>
    <path d="M 467.45672607421875 -38.84548568725586 C 321.6688537597656 76.80986022949219 394.338623046875 122.12026977539062 281.83929443359375 84.12174224853516 C 146.10345458984375 82.60356140136719 191.42608642578125 64.53343963623047 -11.536438941955566 -22.260751724243164 C 253.9727783203125 -9.188093185424805 122.45025634765625 48.458370208740234 300.22283935546875 34.87711715698242 C 336.6845397949219 53.779075622558594 353.7198486328125 -26.594467163085938 467.45672607421875 -38.84548568725586" stroke-width="0.0" fill="rgb(0, 0, 18)" opacity="1.0" stroke="rgb(0, 0, 0)" stroke-opacity="1.0" stroke-linecap="round" stroke-linejoin="round"/>
    <path d="M 379.0888366699219 354.4255065917969 C 123.78894805908203 423.92962646484375 257.2060546875 312.56829833984375 132.49452209472656 436.7667236328125 C 75.01266479492188 414.7419738769531 152.448486328125 393.7066955566406 109.37393951416016 428.3309020996094 C 101.08258056640625 341.3817443847656 123.51968383789062 297.2766418457031 202.7756805419922 287.2440185546875 C 348.4415283203125 310.1661682128906 436.6663513183594 286.7383117675781 379.0888366699219 354.4255065917969" stroke-width="0.0" fill="rgb(254, 248, 239)" opacity="0.9959043" stroke="rgb(0, 0, 0)" stroke-opacity="1.0" stroke-linecap="round" stroke-linejoin="round"/>
    <path d="M 477.1047668457031 43.42341232299805 C 482.7847900390625 24.234956741333008 501.36090087890625 61.71385192871094 503.0963439941406 61.81108474731445 C 487.0299987792969 28.5086727142334 514.0403442382812 113.62970733642578 469.9068908691406 101.59052276611328 C 487.4471435546875 11.642358779907227 443.8871154785156 -11.380268096923828 475.4478759765625 -46.42781448364258 C 487.8125305175781 18.93741226196289 499.3449401855469 63.14021682739258 477.1047668457031 43.42341232299805" stroke-width="0.0" fill="rgb(0, 0, 13)" opacity="1.0" stroke="rgb(0, 0, 0)" stroke-opacity="1.0" stroke-linecap="round" stroke-linejoin="round"/>
    <path d="M 406.8197326660156 19.66002082824707 C 289.4788513183594 92.40748596191406 435.8287353515625 83.3299331665039 364.4852294921875 204.83465576171875 C 284.929931640625 79.83123779296875 317.65289306640625 155.30348205566406 335.0175476074219 53.4432373046875 C 331.2334899902344 89.39815521240234 386.6539001464844 -3.518916368484497 345.5088195800781 95.19830322265625 C 320.08111572265625 79.0538101196289 415.4952392578125 -17.265697479248047 406.8197326660156 19.66002082824707" stroke-width="0.0" fill="rgb(30, 0, 83)" opacity="1.0" stroke="rgb(0, 0, 0)" stroke-opacity="1.0" stroke-linecap="round" stroke-linejoin="round"/>
    <path d="M 455.7237854003906 413.48236083984375 C 427.75653076171875 387.67779541015625 473.3095703125 491.3569641113281 382.14141845703125 504.6407165527344 C 354.10870361328125 344.9765319824219 438.9287414550781 429.33697509765625 384.45343017578125 364.54754638671875 C 568.4188232421875 467.2934265136719 367.9456787109375 365.4328308105469 444.12750244140625 313.0180969238281 C 478.9339294433594 390.90478515625 495.72308349609375 390.42578125 455.7237854003906 413.48236083984375" stroke-width="0.0" fill="rgb(113, 95, 149)" opacity="0.7595402" stroke="rgb(0, 0, 0)" stroke-opacity="1.0" stroke-linecap="round" stroke-linejoin="round"/>
    <path d="M 485.2085876464844 27.434818267822266 C 456.8341979980469 11.758038520812988 473.6855773925781 28.75847625732422 410.1372985839844 137.53436279296875 C 382.7496337890625 84.29499053955078 424.273681640625 155.21353149414062 436.4770202636719 18.46052360534668 C 434.0021667480469 29.425735473632812 431.0310974121094 33.417572021484375 444.15997314453125 65.1478042602539 C 461.98876953125 29.3823299407959 465.2330322265625 13.767864227294922 485.2085876464844 27.434818267822266" stroke-width="0.0" fill="rgb(11, 38, 0)" opacity="0.0" stroke="rgb(0, 0, 0)" stroke-opacity="1.0" stroke-linecap="round" stroke-linejoin="round"/>
    <path d="M 437.65045166015625 402.9364929199219 C 478.8399353027344 451.87255859375 440.9951477050781 509.54248046875 329.3885192871094 530.2807006835938 C 236.53814697265625 495.278564453125 151.6120147705078 415.0929260253906 189.00689697265625 412.9549865722656 C 237.22821044921875 453.7202453613281 210.0245361328125 462.5317077636719 270.462158203125 491.54345703125 C 300.9731750488281 487.3533935546875 350.42559814453125 471.1378479003906 437.65045166015625 402.9364929199219" stroke-width="0.0" fill="rgb(16, 0, 53)" opacity="0.9130068" stroke="rgb(0, 0, 0)" stroke-opacity="1.0" stroke-linecap="round" stroke-linejoin="round"/>
    <path d="M 213.89279174804688 315.09307861328125 C 273.85333251953125 289.588623046875 307.90972900390625 279.7320556640625 244.2555389404297 266.4075622558594 C 223.9642333984375 306.36749267578125 264.3945617675781 288.8793029785156 233.48878479003906 253.9765167236328 C 182.89425659179688 248.461669921875 188.09266662597656 272.6518249511719 138.6300811767578 281.87322998046875 C 128.0132293701172 353.4216003417969 147.2897491455078 295.81341552734375 213.89279174804688 315.09307861328125" stroke-width="0.0" fill="rgb(249, 254, 241)" opacity="1.0" stroke="rgb(0, 0, 0)" stroke-opacity="1.0" stroke-linecap="round" stroke-linejoin="round"/>
    <path d="M 546.5900268554688 412.81109619140625 C 458.8544006347656 573.072021484375 422.2864685058594 531.6958618164062 462.2018127441406 427.7143249511719 C 445.3398742675781 403.0279846191406 457.4752502441406 411.4845275878906 456.85931396484375 393.1111755371094 C 506.0753173828125 406.1274108886719 455.62017822265625 401.915771484375 463.5231628417969 393.618896484375 C 548.5285034179688 402.747314453125 483.2919006347656 392.053466796875 546.5900268554688 412.81109619140625" stroke-width="0.0" fill="rgb(228, 210, 165)" opacity="0.22297552" stroke="rgb(0, 0, 0)" stroke-opacity="1.0" stroke-linecap="round" stroke-linejoin="round"/>
    <path d="M 281.9486083984375 364.2535095214844 C 268.42340087890625 365.7211608886719 254.46849060058594 374.47039794921875 260.6634216308594 378.21734619140625 C 335.93963623046875 382.3736267089844 289.8551330566406 375.5697937011719 273.37066650390625 429.24822998046875 C 176.7253875732422 460.9293212890625 212.65939331054688 402.43719482421875 289.6390075683594 325.21893310546875 C 311.30218505859375 400.9699401855469 343.2596130371094 343.3412780761719 281.9486083984375 364.2535095214844" stroke-width="0.0" fill="rgb(0, 0, 15)" opacity="0.9974425" stroke="rgb(0, 0, 0)" stroke-opacity="1.0" stroke-linecap="round" stroke-linejoin="round"/>
    <path d="M 43.423919677734375 30.426097869873047 C 33.5266227722168 26.74464988708496 41.91040802001953 126.29498291015625 67.93231201171875 150.8575897216797 C 44.8170051574707 286.3302917480469 22.523103713989258 54.64004898071289 45.6348876953125 36.73488235473633 C 58.23204040527344 -18.967777252197266 50.8993034362793 -40.19589614868164 116.02009582519531 27.231887817382812 C 162.8852081298828 105.2219009399414 57.40117263793945 18.136194229125977 43.423919677734375 30.426097869873047" stroke-width="0.0" fill="rgb(252, 208, 195)" opacity="0.9213325" stroke="rgb(0, 0, 0)" stroke-opacity="1.0" stroke-linecap="round" stroke-linejoin="round"/>
    <path d="M 207.86976623535156 34.16725158691406 C 194.1309051513672 34.82566452026367 190.3273162841797 25.536897659301758 197.1173553466797 35.42229080200195 C 165.84432983398438 26.012771606445312 164.80087280273438 7.05936336517334 119.54103088378906 -22.037071228027344 C 114.01510620117188 -13.700095176696777 105.7525634765625 -20.909061431884766 170.23065185546875 -44.22578048706055 C 211.6941375732422 -36.82488250732422 215.5413360595703 -47.135128021240234 207.86976623535156 34.16725158691406" stroke-width="0.0" fill="rgb(255, 255, 253)" opacity="1.0" stroke="rgb(0, 0, 0)" stroke-opacity="1.0" stroke-linecap="round" stroke-linejoin="round"/>
    <path d="M 156.36158752441406 296.6988220214844 C 119.92328643798828 336.7740783691406 124.69159698486328 354.298095703125 113.0433578491211 355.3224792480469 C 46.30706024169922 359.14276123046875 62.3802604675293 362.1088562011719 44.900962829589844 301.0395202636719 C 27.795007705688477 244.0150604248047 56.6993293762207 262.560546875 105.27297973632812 233.55569458007812 C 132.40325927734375 257.07769775390625 135.30322265625 271.4627990722656 156.36158752441406 296.6988220214844" stroke-width="0.0" fill="rgb(247, 252, 240)" opacity="0.3479269" stroke="rgb(0, 0, 0)" stroke-opacity="1.0" stroke-linecap="round" stroke-linejoin="round"/>
    <path d="M 88.27421569824219 246.44638061523438 C 114.93443298339844 233.72659301757812 85.57410430908203 234.63754272460938 78.57405090332031 255.87930297851562 C 78.93244171142578 248.91317749023438 76.89259338378906 281.7554626464844 70.66068267822266 304.6094665527344 C 75.84149169921875 241.09861755371094 109.13091278076172 203.84603881835938 86.37335968017578 239.2704620361328 C 122.23969268798828 231.72808837890625 92.40129852294922 225.3781280517578 88.27421569824219 246.44638061523438" stroke-width="0.0" fill="rgb(148, 94, 250)" opacity="0.0" stroke="rgb(0, 0, 0)" stroke-opacity="1.0" stroke-linecap="round" stroke-linejoin="round"/>
    <path d="M 265.1415710449219 72.35892486572266 C 229.16909790039062 115.43534088134766 261.6551513671875 201.18576049804688 232.39306640625 243.2594757080078 C 243.70932006835938 133.13479614257812 198.2242889404297 140.10464477539062 175.1503448486328 126.20096588134766 C 146.82362365722656 85.83008575439453 164.2150421142578 92.9370346069336 208.23243713378906 70.58372497558594 C 238.468505859375 76.74021911621094 286.7669372558594 67.29176330566406 265.1415710449219 72.35892486572266" stroke-width="0.0" fill="rgb(55, 7, 148)" opacity="0.9780432" stroke="rgb(0, 0, 0)" stroke-opacity="1.0" stroke-linecap="round" stroke-linejoin="round"/>
    <path d="M 331.3727111816406 352.0238037109375 C 316.1529846191406 370.00341796875 344.1570739746094 387.7684020996094 347.31201171875 368.2432556152344 C 310.8619079589844 329.58111572265625 291.8858642578125 343.7015075683594 307.1762390136719 341.1778869628906 C 318.93487548828125 361.0870056152344 307.0542297363281 295.47039794921875 312.6389465332031 332.8441467285156 C 353.07232666015625 329.4321594238281 312.578857421875 383.3608093261719 331.3727111816406 352.0238037109375" stroke-width="0.0" fill="rgb(243, 255, 228)" opacity="0.58505684" stroke="rgb(0, 0, 0)" stroke-opacity="1.0" stroke-linecap="round" stroke-linejoin="round"/>
    <path d="M 8.697179794311523 420.86614990234375 C 7.776535511016846 414.7535705566406 130.2661895751953 384.0111083984375 58.28422546386719 374.8144836425781 C 8.476384162902832 441.4615783691406 24.71623992919922 407.8072204589844 105.83524322509766 349.22174072265625 C -54.65111541748047 356.4869689941406 -15.391315460205078 360.64569091796875 67.54022979736328 359.6609191894531 C 57.45783615112305 357.97747802734375 60.996761322021484 345.1709289550781 8.697179794311523 420.86614990234375" stroke-width="0.0" fill="rgb(3, 0, 29)" opacity="0.069681846" stroke="rgb(0, 0, 0)" stroke-opacity="1.0" stroke-linecap="round" stroke-linejoin="round"/>
    <path d="M 337.5198059082031 381.3919982910156 C 343.3208312988281 373.71209716796875 339.5048522949219 396.6320495605469 320.23968505859375 427.0321350097656 C 333.3505859375 420.315185546875 328.38214111328125 405.85589599609375 316.5870056152344 432.6510925292969 C 261.08319091796875 447.4982604980469 216.08460998535156 424.4944763183594 325.85906982421875 430.4449157714844 C 358.8611755371094 372.2313537597656 343.49993896484375 367.4037780761719 337.5198059082031 381.3919982910156" stroke-width="0.0" fill="rgb(6, 7, 39)" opacity="0.99735725" stroke="rgb(0, 0, 0)" stroke-opacity="1.0" stroke-linecap="round" stroke-linejoin="round"/>
    <path d="M 396.9742431640625 108.37567901611328 C 432.3916320800781 82.69332885742188 463.71368408203125 41.46844482421875 424.2124328613281 123.84828186035156 C 420.3392639160156 177.0020294189453 404.6964111328125 111.65066528320312 384.01171875 84.68696594238281 C 386.02935791015625 96.6682357788086 399.33349609375 62.702701568603516 448.5604553222656 70.9162826538086 C 385.620361328125 134.555419921875 389.08721923828125 98.1304702758789 396.9742431640625 108.37567901611328" stroke-width="0.0" fill="rgb(103, 111, 0)" opacity="0.9113548" stroke="rgb(0, 0, 0)" stroke-opacity="1.0" stroke-linecap="round" stroke-linejoin="round"/>
    <path d="M 206.54917907714844 90.67156982421875 C 208.4529571533203 142.3463134765625 220.50656127929688 147.32579040527344 192.27435302734375 138.2149658203125 C 159.01573181152344 118.9872817993164 154.19049072265625 111.1405029296875 138.9067840576172 67.841552734375 C 111.5711441040039 30.266878128051758 166.54222106933594 43.60690689086914 179.34475708007812 73.3577651977539 C 186.27578735351562 91.69755554199219 215.13389587402344 88.98172760009766 206.54917907714844 90.67156982421875" stroke-width="0.0" fill="rgb(60, 12, 113)" opacity="0.93514025" stroke="rgb(0, 0, 0)" stroke-opacity="1.0" stroke-linecap="round" stroke-linejoin="round"/>
    <path d="M 531.8523559570312 440.48583984375 C 531.2156982421875 467.00396728515625 531.2875366210938 471.57672119140625 515.8271484375 471.42877197265625 C 507.1827392578125 473.0782775878906 496.4329528808594 458.1585693359375 502.7025146484375 447.7934875488281 C 495.0232849121094 422.8989562988281 491.5077209472656 410.06097412109375 525.950439453125 416.4815979003906 C 524.2904663085938 425.6336975097656 529.3707275390625 430.8746337890625 531.8523559570312 440.48583984375" stroke-width="0.0" fill="rgb(254, 254, 178)" opacity="0.044668235" stroke="rgb(0, 0, 0)" stroke-opacity="1.0" stroke-linecap="round" stroke-linejoin="round"/>
    <path d="M 400.92413330078125 223.4892578125 C 383.11834716796875 254.2842254638672 374.7480163574219 299.9801940917969 328.93194580078125 268.0986328125 C 348.8251647949219 204.64942932128906 372.76531982421875 259.3974914550781 336.456298828125 259.59759521484375 C 333.80096435546875 247.31787109375 361.8432312011719 234.8511962890625 373.057861328125 218.29286193847656 C 378.6394958496094 219.10060119628906 364.8160400390625 210.6644287109375 400.92413330078125 223.4892578125" stroke-width="0.0" fill="rgb(83, 3, 242)" opacity="0.9877708" stroke="rgb(0, 0, 0)" stroke-opacity="1.0" stroke-linecap="round" stroke-linejoin="round"/>
    <path d="M 459.03179931640625 410.1400451660156 C 462.5987854003906 422.5943908691406 447.86505126953125 412.0397644042969 444.57574462890625 458.54010009765625 C 438.34686279296875 431.545654296875 438.2596435546875 435.33941650390625 439.3483581542969 368.54925537109375 C 414.9452819824219 355.4714050292969 432.91412353515625 342.93072509765625 459.54962158203125 346.5738525390625 C 474.06158447265625 395.0669860839844 489.7742004394531 392.130126953125 459.03179931640625 410.1400451660156" stroke-width="0.0" fill="rgb(33, 26, 91)" opacity="0.9994647" stroke="rgb(0, 0, 0)" stroke-opacity="1.0" stroke-linecap="round" stroke-linejoin="round"/>
    <path d="M 165.01617431640625 417.0467224121094 C 172.1095733642578 432.9656982421875 188.4492950439453 420.98150634765625 178.80850219726562 414.1006164550781 C 177.70567321777344 426.48687744140625 193.04591369628906 415.5278015136719 187.4815216064453 438.6436767578125 C 189.48304748535156 439.3819274902344 181.04061889648438 398.5791320800781 150.1460723876953 365.21502685546875 C 153.14356994628906 395.7933349609375 184.33322143554688 408.2180480957031 165.01617431640625 417.0467224121094" stroke-width="0.0" fill="rgb(0, 18, 65)" opacity="1.0" stroke="rgb(0, 0, 0)" stroke-opacity="1.0" stroke-linecap="round" stroke-linejoin="round"/>
    <path d="M 396.6915588378906 372.0762023925781 C 409.2134704589844 380.75189208984375 426.9980773925781 394.54730224609375 428.2887268066406 401.0479431152344 C 405.7677917480469 390.2329406738281 427.4994201660156 360.7783508300781 387.4933166503906 370.4124755859375 C 373.438720703125 306.0643310546875 386.7123718261719 263.2817077636719 441.6016845703125 320.2814636230469 C 405.981689453125 353.068603515625 386.868408203125 296.8070983886719 396.6915588378906 372.0762023925781" stroke-width="0.0" fill="rgb(249, 255, 246)" opacity="0.9984614" stroke="rgb(0, 0, 0)" stroke-opacity="1.0" stroke-linecap="round" stroke-linejoin="round"/>
    <path d="M 150.6444091796875 89.73588562011719 C 201.74681091308594 121.61708068847656 183.20115661621094 134.44073486328125 108.90441131591797 138.5474395751953 C 104.99864959716797 117.837646484375 110.78370666503906 93.16059112548828 87.77603149414062 97.09688568115234 C 71.56548309326172 41.253173828125 61.715824127197266 50.31608963012695 98.86460876464844 65.08580780029297 C 102.73092651367188 92.1446533203125 97.98192596435547 110.86787414550781 150.6444091796875 89.73588562011719" stroke-width="0.0" fill="rgb(79, 15, 141)" opacity="0.95672923" stroke="rgb(0, 0, 0)" stroke-opacity="1.0" stroke-linecap="round" stroke-linejoin="round"/>
    <path d="M 346.6613464355469 372.7777099609375 C 325.7478332519531 374.279541015625 335.6192626953125 367.5909118652344 334.8191223144531 396.62518310546875 C 328.3199768066406 407.7047119140625 346.6318054199219 384.8744201660156 360.4931335449219 361.9861755371094 C 333.05059814453125 339.67803955078125 350.388427734375 344.6936950683594 345.69818115234375 354.8718566894531 C 343.2512512207031 369.4949951171875 332.0814514160156 350.5647277832031 346.6613464355469 372.7777099609375" stroke-width="0.0" fill="rgb(86, 81, 109)" opacity="0.15914524" stroke="rgb(0, 0, 0)" stroke-opacity="1.0" stroke-linecap="round" stroke-linejoin="round"/>
    <path d="M 112.66971588134766 391.19970703125 C 112.78014373779297 387.9814147949219 99.90522766113281 383.458251953125 72.86744689941406 374.5787658691406 C 89.12946319580078 382.0882263183594 64.2409896850586 374.2884826660156 60.042236328125 346.5433349609375 C 68.29914093017578 339.3702392578125 80.40234375 351.31512451171875 88.3212890625 352.9335632324219 C 97.36112213134766 343.4826965332031 112.13980865478516 357.5896301269531 112.66971588134766 391.19970703125" stroke-width="0.0" fill="rgb(161, 180, 159)" opacity="0.13523023" stroke="rgb(0, 0, 0)" stroke-opacity="1.0" stroke-linecap="round" stroke-linejoin="round"/>
    <path d="M 324.06146240234375 124.33294677734375 C 283.3809509277344 187.81407165527344 280.5399475097656 283.87481689453125 257.8170471191406 199.338623046875 C 256.1484069824219 154.4683380126953 268.4159240722656 150.8979949951172 271.52276611328125 131.38949584960938 C 268.5032043457031 125.24633026123047 265.1664123535156 90.1577377319336 263.22747802734375 77.18778991699219 C 294.1044921875 89.52665710449219 369.82244873046875 71.52870178222656 324.06146240234375 124.33294677734375" stroke-width="0.0" fill="rgb(42, 13, 92)" opacity="1.0" stroke="rgb(0, 0, 0)" stroke-opacity="1.0" stroke-linecap="round" stroke-linejoin="round"/>
    <path d="M 446.1031494140625 71.10916137695312 C 427.4245300292969 98.45339965820312 432.6078796386719 118.63446807861328 456.46466064453125 91.44110870361328 C 455.813232421875 37.501548767089844 461.5650939941406 78.22312927246094 395.2224426269531 88.06348419189453 C 399.27459716796875 70.94234466552734 410.1734313964844 56.82897186279297 448.58489990234375 32.576107025146484 C 446.728271484375 23.876035690307617 456.0986022949219 60.54127883911133 446.1031494140625 71.10916137695312" stroke-width="0.0" fill="rgb(162, 198, 2)" opacity="0.4385324" stroke="rgb(0, 0, 0)" stroke-opacity="1.0" stroke-linecap="round" stroke-linejoin="round"/>
    <path d="M 117.36507415771484 116.91719818115234 C 111.19035339355469 133.43357849121094 94.77046966552734 157.41844177246094 79.52870178222656 159.86956787109375 C 88.1681137084961 112.05854034423828 87.8260269165039 111.967041015625 89.1927719116211 123.90979766845703 C 71.8240737915039 101.16947174072266 47.301231384277344 66.47052764892578 70.79767608642578 31.199026107788086 C 147.75192260742188 97.82591247558594 144.50845336914062 113.17723083496094 117.36507415771484 116.91719818115234" stroke-width="0.0" fill="rgb(142, 97, 6)" opacity="1.0" stroke="rgb(0, 0, 0)" stroke-opacity="1.0" stroke-linecap="round" stroke-linejoin="round"/>
    <path d="M 519.154052734375 498.99896240234375 C 503.17877197265625 534.2788696289062 484.8661804199219 551.0825805664062 448.4954528808594 521.4127807617188 C 426.3901062011719 492.4593200683594 414.56005859375 494.47216796875 465.12713623046875 487.99755859375 C 459.0973205566406 476.5357666015625 476.8607177734375 477.1203918457031 499.84454345703125 447.0855407714844 C 532.53076171875 451.26409912109375 527.7186279296875 467.2174987792969 519.154052734375 498.99896240234375" stroke-width="0.0" fill="rgb(251, 255, 72)" opacity="0.12143709" stroke="rgb(0, 0, 0)" stroke-opacity="1.0" stroke-linecap="round" stroke-linejoin="round"/>
    <path d="M 274.5553894042969 304.8321838378906 C 254.95291137695312 288.35211181640625 260.8767395019531 309.1435546875 237.750244140625 400.6438903808594 C 192.0238494873047 403.7801513671875 195.07275390625 342.2568664550781 218.12741088867188 339.2111511230469 C 258.365234375 328.1513366699219 238.46163940429688 331.41583251953125 285.02703857421875 349.8168640136719 C 265.9148254394531 308.2878723144531 262.6546325683594 328.5429992675781 274.5553894042969 304.8321838378906" stroke-width="0.0" fill="rgb(0, 0, 17)" opacity="1.0" stroke="rgb(0, 0, 0)" stroke-opacity="1.0" stroke-linecap="round" stroke-linejoin="round"/>
    <path d="M 417.3442687988281 119.15498352050781 C 394.0158996582031 161.192626953125 415.4664306640625 164.43899536132812 437.8069152832031 212.42190551757812 C 358.14447021484375 205.3489227294922 342.09735107421875 158.1958770751953 356.8945007324219 125.62638092041016 C 413.33709716796875 131.93528747558594 381.65606689453125 155.71337890625 381.98480224609375 105.17656707763672 C 416.7214050292969 103.18595886230469 401.8834228515625 104.64437866210938 417.3442687988281 119.15498352050781" stroke-width="0.0" fill="rgb(1, 0, 57)" opacity="0.9878328" stroke="rgb(0, 0, 0)" stroke-opacity="1.0" stroke-linecap="round" stroke-linejoin="round"/>
    <path d="M 432.78033447265625 523.3068237304688 C 464.14337158203125 523.15087890625 476.5072326660156 530.804443359375 449.70611572265625 539.1721801757812 C 437.8095397949219 517.5576782226562 441.146728515625 493.2593688964844 433.43603515625 481.642822265625 C 433.7915954589844 504.0964050292969 448.6012268066406 498.1484069824219 449.0897521972656 464.0977478027344 C 437.40716552734375 481.1809997558594 431.558349609375 513.9254760742188 432.78033447265625 523.3068237304688" stroke-width="0.0" fill="rgb(184, 137, 72)" opacity="0.07568115" stroke="rgb(0, 0, 0)" stroke-opacity="1.0" stroke-linecap="round" stroke-linejoin="round"/>
    <path d="M 470.7031555175781 -32.23516845703125 C 466.7522888183594 -9.660428047180176 466.8345642089844 7.898767948150635 472.5010681152344 19.323104858398438 C 462.71246337890625 26.530981063842773 425.4676513671875 27.80776596069336 414.8150329589844 -9.21438217163086 C 427.98260498046875 -26.39552879333496 443.810546875 -26.600332260131836 449.0272216796875 -34.12461471557617 C 474.8860168457031 -14.387734413146973 486.1815185546875 -6.34412956237793 470.7031555175781 -32.23516845703125" stroke-width="0.0" fill="rgb(87, 10, 89)" opacity="0.0" stroke="rgb(0, 0, 0)" stroke-opacity="1.0" stroke-linecap="round" stroke-linejoin="round"/>
    <path d="M 179.9120330810547 240.80372619628906 C 179.4504852294922 239.28697204589844 161.09417724609375 241.53323364257812 156.90115356445312 235.06886291503906 C 142.23629760742188 240.25669860839844 106.22039794921875 223.25241088867188 172.26380920410156 203.31295776367188 C 204.98240661621094 231.7055206298828 191.36605834960938 242.4613800048828 172.48480224609375 237.1405029296875 C 183.17062377929688 248.47564697265625 176.06121826171875 246.24513244628906 179.9120330810547 240.80372619628906" stroke-width="0.0" fill="rgb(244, 199, 0)" opacity="0.9493067" stroke="rgb(0, 0, 0)" stroke-opacity="1.0" stroke-linecap="round" stroke-linejoin="round"/>
    <path d="M 208.25205993652344 391.0616149902344 C 192.29669189453125 434.13726806640625 176.4103240966797 446.3566589355469 186.1868438720703 463.9669494628906 C 147.40879821777344 464.77947998046875 126.38446807861328 465.86273193359375 123.34390258789062 447.6086120605469 C 111.40787506103516 391.3634948730469 125.74571990966797 400.27764892578125 139.69515991210938 397.4761657714844 C 148.6259002685547 364.7015686035156 167.8657989501953 362.3274841308594 208.25205993652344 391.0616149902344" stroke-width="0.0" fill="rgb(246, 255, 214)" opacity="0.0037252866" stroke="rgb(0, 0, 0)" stroke-opacity="1.0" stroke-linecap="round" stroke-linejoin="round"/>
    <path d="M 196.42019653320312 251.95018005371094 C 208.88087463378906 262.04937744140625 191.32492065429688 255.9277801513672 195.95571899414062 252.8100128173828 C 182.20872497558594 246.57168579101562 174.2894744873047 230.96522521972656 182.31607055664062 254.65823364257812 C 178.47178649902344 246.54583740234375 181.4965362548828 271.2336120605469 190.91049194335938 256.09979248046875 C 183.9038543701172 220.45291137695312 180.6455535888672 236.22776794433594 196.42019653320312 251.95018005371094" stroke-width="0.0" fill="rgb(11, 0, 217)" opacity="0.30420274" stroke="rgb(0, 0, 0)" stroke-opacity="1.0" stroke-linecap="round" stroke-linejoin="round"/>
    <path d="M 185.62001037597656 351.15130615234375 C 182.9427490234375 352.4732666015625 174.68453979492188 361.09735107421875 176.97982788085938 382.7938537597656 C 175.17239379882812 369.37139892578125 172.91859436035156 368.8220520019531 200.93310546875 389.13824462890625 C 197.04409790039062 367.76776123046875 209.73968505859375 369.24407958984375 178.31809997558594 335.2751159667969 C 166.0113983154297 340.78118896484375 183.65023803710938 333.44842529296875 185.62001037597656 351.15130615234375" stroke-width="0.0" fill="rgb(128, 168, 114)" opacity="0.09806376" stroke="rgb(0, 0, 0)" stroke-opacity="1.0" stroke-linecap="round" stroke-linejoin="round"/>
    <path d="M 64.0563735961914 447.1634216308594 C 80.66594696044922 470.0289611816406 71.76921081542969 469.134521484375 65.41338348388672 479.5694274902344 C 53.118648529052734 462.1212463378906 45.69028854370117 459.5209655761719 85.12067413330078 449.4010009765625 C 80.86434936523438 444.95037841796875 67.94288635253906 446.7130432128906 56.12283706665039 445.7636413574219 C 67.04471588134766 443.035400390625 80.03274536132812 441.8251953125 64.0563735961914 447.1634216308594" stroke-width="0.0" fill="rgb(201, 157, 188)" opacity="0.0" stroke="rgb(0, 0, 0)" stroke-opacity="1.0" stroke-linecap="round" stroke-linejoin="round"/>
    <path d="M 456.42388916015625 466.2857360839844 C 468.80963134765625 479.2914123535156 465.980224609375 519.3089599609375 437.6006774902344 525.8720703125 C 455.6136779785156 472.4133605957031 460.90301513671875 466.50830078125 455.23468017578125 468.229248046875 C 450.4324035644531 496.30615234375 455.196533203125 466.0216064453125 461.3045654296875 453.9360046386719 C 471.6206359863281 438.5872497558594 478.6481018066406 458.7264404296875 456.42388916015625 466.2857360839844" stroke-width="0.0" fill="rgb(251, 239, 253)" opacity="0.100982696" stroke="rgb(0, 0, 0)" stroke-opacity="1.0" stroke-linecap="round" stroke-linejoin="round"/>
    <path d="M 431.31829833984375 382.44244384765625 C 445.9863586425781 401.07012939453125 468.97235107421875 387.8392639160156 448.69708251953125 371.53912353515625 C 423.5138854980469 389.6019592285156 434.596435546875 384.34686279296875 431.1844177246094 352.8356018066406 C 450.3747863769531 360.981689453125 447.7643127441406 351.6324462890625 437.31292724609375 334.741455078125 C 439.76275634765625 325.3904113769531 430.4461669921875 368.53363037109375 431.31829833984375 382.44244384765625" stroke-width="0.0" fill="rgb(77, 116, 78)" opacity="0.005438411" stroke="rgb(0, 0, 0)" stroke-opacity="1.0" stroke-linecap="round" stroke-linejoin="round"/>
    <path d="M 55.03396987915039 124.52803039550781 C 61.060089111328125 133.84681701660156 50.65264892578125 146.73841857910156 56.320613861083984 147.51625061035156 C 34.376075744628906 132.9020538330078 14.229086875915527 124.36648559570312 -6.939587116241455 122.81282043457031 C -2.1945183277130127 126.93724060058594 25.21540069580078 130.4806365966797 60.50188064575195 116.62952423095703 C 56.188114166259766 76.65487670898438 56.24798583984375 101.57365417480469 55.03396987915039 124.52803039550781" stroke-width="0.0" fill="rgb(228, 229, 115)" opacity="0.0" stroke="rgb(0, 0, 0)" stroke-opacity="1.0" stroke-linecap="round" stroke-linejoin="round"/>
    <path d="M 55.44649887084961 471.3017883300781 C 46.93128204345703 508.19085693359375 43.647422790527344 496.6142272949219 31.70899772644043 501.1180419921875 C 36.71232604980469 484.3008117675781 13.50496768951416 476.9354248046875 -16.856170654296875 456.8304748535156 C -22.931198120117188 427.1672668457031 -6.568742275238037 431.6857604980469 34.70412826538086 425.3143615722656 C 23.16525650024414 467.22869873046875 46.59663391113281 482.3844299316406 55.44649887084961 471.3017883300781" stroke-width="0.0" fill="rgb(251, 232, 254)" opacity="0.0058835307" stroke="rgb(0, 0, 0)" stroke-opacity="1.0" stroke-linecap="round" stroke-linejoin="round"/>
    <path d="M 138.05914306640625 230.673583984375 C 141.19517517089844 217.09494018554688 147.93568420410156 213.12257385253906 148.21519470214844 224.88681030273438 C 133.64849853515625 222.22203063964844 105.67465209960938 238.94137573242188 119.84557342529297 236.22764587402344 C 125.83592987060547 247.50119018554688 132.25344848632812 259.828857421875 148.76234436035156 230.97711181640625 C 156.63687133789062 241.82142639160156 147.99171447753906 228.4722900390625 138.05914306640625 230.673583984375" stroke-width="0.0" fill="rgb(86, 72, 223)" opacity="0.0" stroke="rgb(0, 0, 0)" stroke-opacity="1.0" stroke-linecap="round" stroke-linejoin="round"/>
    <path d="M 310.69329833984375 -8.30293083190918 C 305.2200622558594 29.230806350708008 286.8953552246094 57.951473236083984 268.1888122558594 60.00743103027344 C 244.5084991455078 57.95328903198242 262.72637939453125 33.4345817565918 251.62689208984375 -5.247775554656982 C 240.44664001464844 -12.672371864318848 256.0714111328125 -17.75919532775879 268.75384521484375 -13.167418479919434 C 288.351318359375 -10.187554359436035 299.7896728515625 -7.181057453155518 310.69329833984375 -8.30293083190918" stroke-width="0.0" fill="rgb(241, 247, 61)" opacity="0.0" stroke="rgb(0, 0, 0)" stroke-opacity="1.0" stroke-linecap="round" stroke-linejoin="round"/>
    <path d="M 126.36814880371094 146.77902221679688 C 114.06170654296875 146.7783966064453 109.90423583984375 169.09426879882812 112.99076843261719 178.61520385742188 C 124.3472900390625 177.59359741210938 135.57347106933594 158.94644165039062 123.26509094238281 153.80921936035156 C 115.2420425415039 114.8141860961914 113.13322448730469 107.97500610351562 158.70956420898438 122.24615478515625 C 173.5320281982422 140.52499389648438 174.30355834960938 156.6009521484375 126.36814880371094 146.77902221679688" stroke-width="0.0" fill="rgb(136, 155, 115)" opacity="0.0" stroke="rgb(0, 0, 0)" stroke-opacity="1.0" stroke-linecap="round" stroke-linejoin="round"/>
    <path d="M 521.0038452148438 262.5898742675781 C 488.03912353515625 204.0529022216797 456.78173828125 204.69688415527344 446.5527648925781 233.45152282714844 C 443.9792175292969 243.93447875976562 425.0936584472656 244.57374572753906 419.0503845214844 239.99169921875 C 440.6389465332031 214.8035888671875 452.7444152832031 230.15525817871094 465.4737243652344 237.5699920654297 C 475.6031188964844 269.46136474609375 487.0280456542969 291.27740478515625 521.0038452148438 262.5898742675781" stroke-width="0.0" fill="rgb(0, 0, 45)" opacity="1.0" stroke="rgb(0, 0, 0)" stroke-opacity="1.0" stroke-linecap="round" stroke-linejoin="round"/>
    <path d="M 394.4514465332031 359.4805603027344 C 358.9872741699219 385.5730895996094 365.3433532714844 395.1787109375 362.3611145019531 393.8228454589844 C 323.2716064453125 406.1810302734375 320.7100524902344 406.91461181640625 328.324951171875 389.1307373046875 C 329.572509765625 378.9366455078125 346.932373046875 399.5785217285156 364.9365539550781 388.0266418457031 C 359.1539306640625 376.1708068847656 387.3783264160156 366.1551818847656 394.4514465332031 359.4805603027344" stroke-width="0.0" fill="rgb(83, 150, 200)" opacity="0.0" stroke="rgb(0, 0, 0)" stroke-opacity="1.0" stroke-linecap="round" stroke-linejoin="round"/>
    <path d="M 395.0640869140625 190.4729461669922 C 377.9493408203125 215.1033935546875 345.8841857910156 198.97825622558594 347.7105407714844 193.36830139160156 C 348.9429626464844 204.59962463378906 341.2808837890625 205.7964630126953 357.37933349609375 210.39012145996094 C 348.5710144042969 185.7517852783203 346.534423828125 170.341064453125 362.0043640136719 182.48797607421875 C 374.9337158203125 179.06471252441406 382.4586181640625 182.3114471435547 395.0640869140625 190.4729461669922" stroke-width="0.0" fill="rgb(211, 149, 238)" opacity="0.0" stroke="rgb(0, 0, 0)" stroke-opacity="1.0" stroke-linecap="round" stroke-linejoin="round"/>
    <path d="M 90.57192993164062 466.986083984375 C 128.6211700439453 467.5197448730469 120.08472442626953 476.9676208496094 97.51099395751953 475.28033447265625 C 78.56829833984375 468.52587890625 78.67194366455078 452.0933532714844 92.83028411865234 441.70709228515625 C 77.39186096191406 429.95794677734375 88.18682861328125 424.91473388671875 76.35926818847656 427.04681396484375 C 82.54597473144531 434.37677001953125 81.46160888671875 453.8681640625 90.57192993164062 466.986083984375" stroke-width="0.0" fill="rgb(186, 190, 215)" opacity="0.0" stroke="rgb(0, 0, 0)" stroke-opacity="1.0" stroke-linecap="round" stroke-linejoin="round"/>
    <path d="M 92.1513671875 491.09649658203125 C 94.21714782714844 482.05108642578125 102.86874389648438 510.052490234375 57.99456787109375 529.4695434570312 C 29.934003829956055 502.3430480957031 16.71084976196289 489.7344055175781 37.729251861572266 463.099365234375 C 30.444368362426758 436.706298828125 33.37739181518555 438.7864074707031 36.81446075439453 436.679443359375 C 48.63850784301758 463.7270812988281 68.91072082519531 475.32916259765625 92.1513671875 491.09649658203125" stroke-width="0.0" fill="rgb(249, 251, 190)" opacity="0.0021869002" stroke="rgb(0, 0, 0)" stroke-opacity="1.0" stroke-linecap="round" stroke-linejoin="round"/>
  </g>
</svg>
