<?xml version="1.0" ?>
<svg xmlns="http://www.w3.org/2000/svg" version="1.1" width="512" height="512">
  <defs/>
  <g>
    <path d="M 269.53924560546875 344.01019287109375 C 173.9119873046875 519.3499145507812 228.5363311767578 396.7178039550781 142.28834533691406 495.3901672363281 C 18.551631927490234 451.6297302246094 -55.76730728149414 294.87554931640625 54.46902847290039 143.2103271484375 C 78.67726135253906 357.9109802246094 47.888824462890625 302.4076843261719 89.97848510742188 335.86871337890625 C 92.41206359863281 344.020751953125 66.91529083251953 305.64813232421875 269.53924560546875 344.01019287109375" stroke-width="0.0" fill="rgb(0, 0, 1)" opacity="1.0" stroke="rgb(0, 0, 0)" stroke-opacity="1.0" stroke-linecap="round" stroke-linejoin="round"/>
    <path d="M 209.661865234375 240.06190490722656 C 248.81842041015625 255.61965942382812 157.6678009033203 285.111572265625 151.5679168701172 335.340576171875 C 87.16388702392578 356.8955383300781 29.48140525817871 339.30914306640625 72.5225830078125 283.9985046386719 C 101.8753662109375 241.13587951660156 11.502896308898926 231.1557159423828 157.18214416503906 232.13714599609375 C 164.68235778808594 299.11199951171875 194.43821716308594 292.88330078125 209.661865234375 240.06190490722656" stroke-width="0.0" fill="rgb(0, 0, 7)" opacity="1.0" stroke="rgb(0, 0, 0)" stroke-opacity="1.0" stroke-linecap="round" stroke-linejoin="round"/>
    <path d="M 443.0681457519531 276.8473815917969 C 451.96807861328125 398.5423278808594 256.60748291015625 311.94110107421875 406.4416809082031 233.01864624023438 C 429.3177490234375 188.4169464111328 335.7579650878906 138.35337829589844 294.57635498046875 379.293212890625 C 253.32421875 232.68148803710938 355.7143249511719 229.3761444091797 397.5664978027344 200.25759887695312 C 465.4668884277344 210.4963836669922 403.6151123046875 243.50003051757812 443.0681457519531 276.8473815917969" stroke-width="0.0" fill="rgb(0, 0, 8)" opacity="0.9980954" stroke="rgb(0, 0, 0)" stroke-opacity="1.0" stroke-linecap="round" stroke-linejoin="round"/>
    <path d="M 154.4884796142578 208.2476043701172 C 115.30274200439453 241.48646545410156 197.7710723876953 238.0084991455078 74.23196411132812 281.96392822265625 C 19.314990997314453 199.5464324951172 138.3953857421875 162.01806640625 160.76248168945312 212.48135375976562 C 216.86959838867188 231.7842559814453 211.28712463378906 265.40399169921875 217.7823486328125 208.3813934326172 C 136.46900939941406 130.56271362304688 102.57240295410156 177.53407287597656 154.4884796142578 208.2476043701172" stroke-width="0.0" fill="rgb(0, 0, 3)" opacity="1.0" stroke="rgb(0, 0, 0)" stroke-opacity="1.0" stroke-linecap="round" stroke-linejoin="round"/>
    <path d="M 503.53546142578125 280.6386413574219 C 549.52001953125 412.5086669921875 429.28118896484375 405.8837585449219 489.4283447265625 448.58807373046875 C 320.7963562011719 302.833251953125 394.4081726074219 430.8982849121094 346.10211181640625 256.3956604003906 C 473.709228515625 359.78857421875 340.4306335449219 342.658447265625 397.80511474609375 337.33221435546875 C 472.847900390625 395.3240966796875 410.69134521484375 382.48638916015625 503.53546142578125 280.6386413574219" stroke-width="0.0" fill="rgb(0, 0, 4)" opacity="1.0" stroke="rgb(0, 0, 0)" stroke-opacity="1.0" stroke-linecap="round" stroke-linejoin="round"/>
    <path d="M 417.746826171875 162.52976989746094 C 453.3974609375 267.0146484375 464.40087890625 315.14593505859375 403.2377624511719 389.0244140625 C 401.75787353515625 256.1368713378906 426.8553466796875 326.8509826660156 404.8371276855469 190.1639862060547 C 455.27337646484375 92.7630386352539 506.3294372558594 -15.836357116699219 498.9522705078125 118.48906707763672 C 457.9034729003906 218.36363220214844 444.67803955078125 112.1747055053711 417.746826171875 162.52976989746094" stroke-width="0.0" fill="rgb(0, 0, 5)" opacity="1.0" stroke="rgb(0, 0, 0)" stroke-opacity="1.0" stroke-linecap="round" stroke-linejoin="round"/>
    <path d="M 383.69940185546875 273.8773193359375 C 285.7848815917969 328.854736328125 306.7438659667969 382.6363830566406 300.3099365234375 318.4814147949219 C 283.6929931640625 335.86480712890625 354.48858642578125 336.5102844238281 240.53208923339844 321.3030090332031 C 245.27621459960938 261.1011657714844 255.5935821533203 201.4812774658203 268.39031982421875 195.4560546875 C 335.298095703125 208.48480224609375 342.17645263671875 249.5284423828125 383.69940185546875 273.8773193359375" stroke-width="0.0" fill="rgb(255, 255, 245)" opacity="0.9990641" stroke="rgb(0, 0, 0)" stroke-opacity="1.0" stroke-linecap="round" stroke-linejoin="round"/>
    <path d="M 363.8187561035156 226.6481170654297 C 373.6033935546875 211.76600646972656 376.0625305175781 216.1924285888672 394.0076599121094 220.613525390625 C 407.80908203125 215.44076538085938 381.574951171875 213.39093017578125 308.5190734863281 230.67037963867188 C 297.5830383300781 212.82742309570312 301.07757568359375 157.6655731201172 371.0702209472656 183.39700317382812 C 326.97564697265625 241.84103393554688 323.845947265625 228.43946838378906 363.8187561035156 226.6481170654297" stroke-width="0.0" fill="rgb(3, 7, 2)" opacity="0.9858117" stroke="rgb(0, 0, 0)" stroke-opacity="1.0" stroke-linecap="round" stroke-linejoin="round"/>
    <path d="M 56.52267074584961 124.12405395507812 C 97.44552612304688 251.5312042236328 72.59955596923828 124.50824737548828 202.84750366210938 124.89994049072266 C 35.350040435791016 180.86917114257812 112.91197967529297 317.11181640625 60.328067779541016 47.870906829833984 C 51.1069221496582 -43.18361282348633 33.7881965637207 -39.299251556396484 152.45758056640625 133.71868896484375 C 11.906098365783691 72.70757293701172 47.205867767333984 31.192203521728516 56.52267074584961 124.12405395507812" stroke-width="0.0" fill="rgb(0, 7, 1)" opacity="1.0" stroke="rgb(0, 0, 0)" stroke-opacity="1.0" stroke-linecap="round" stroke-linejoin="round"/>
    <path d="M 218.9615936279297 325.2818298339844 C 186.70663452148438 325.50653076171875 298.3125915527344 300.114990234375 250.8528289794922 334.53802490234375 C 29.83201026916504 385.5513916015625 150.54425048828125 321.0264587402344 177.9173583984375 272.5171203613281 C 128.2902374267578 207.17559814453125 178.3414764404297 242.82803344726562 197.03805541992188 261.418701171875 C 224.6797332763672 284.0525817871094 214.6063995361328 295.5231018066406 218.9615936279297 325.2818298339844" stroke-width="0.0" fill="rgb(0, 0, 7)" opacity="0.88595253" stroke="rgb(0, 0, 0)" stroke-opacity="1.0" stroke-linecap="round" stroke-linejoin="round"/>
    <path d="M 423.41900634765625 294.4629821777344 C 371.5898132324219 285.0688781738281 350.0616455078125 270.88555908203125 389.4858093261719 253.36044311523438 C 381.5541687011719 250.909423828125 331.9559020996094 271.75091552734375 324.4962463378906 226.12826538085938 C 370.1155700683594 189.0076446533203 368.4577941894531 239.60836791992188 383.3878479003906 218.02223205566406 C 427.3447570800781 193.40040588378906 420.847412109375 249.8500213623047 423.41900634765625 294.4629821777344" stroke-width="0.0" fill="rgb(255, 255, 247)" opacity="1.0" stroke="rgb(0, 0, 0)" stroke-opacity="1.0" stroke-linecap="round" stroke-linejoin="round"/>
    <path d="M 491.6978454589844 5.355399131774902 C 319.22161865234375 70.91996765136719 373.1871337890625 102.59552001953125 277.01751708984375 103.36039733886719 C 150.49725341796875 75.72845458984375 200.7896270751953 51.5665397644043 8.259537696838379 -33.157108306884766 C 224.75071716308594 15.694536209106445 110.6272964477539 47.89368438720703 326.6307373046875 54.316017150878906 C 337.7210388183594 108.97766876220703 368.4261474609375 16.790178298950195 491.6978454589844 5.355399131774902" stroke-width="0.0" fill="rgb(16, 0, 13)" opacity="0.99292934" stroke="rgb(0, 0, 0)" stroke-opacity="1.0" stroke-linecap="round" stroke-linejoin="round"/>
    <path d="M 373.00250244140625 392.0986022949219 C 110.503662109375 460.03802490234375 198.14219665527344 317.75592041015625 109.19412231445312 433.88897705078125 C 136.6857147216797 446.8300476074219 165.12155151367188 374.8172912597656 159.67947387695312 372.60723876953125 C 142.29904174804688 323.7116394042969 146.3979034423828 290.7820129394531 204.50498962402344 303.0804138183594 C 274.8222961425781 335.60211181640625 385.26141357421875 327.6079406738281 373.00250244140625 392.0986022949219" stroke-width="0.0" fill="rgb(255, 255, 228)" opacity="1.0" stroke="rgb(0, 0, 0)" stroke-opacity="1.0" stroke-linecap="round" stroke-linejoin="round"/>
    <path d="M 438.2418518066406 86.5510482788086 C 485.65997314453125 39.285343170166016 489.1707763671875 27.70686149597168 493.19879150390625 52.093414306640625 C 506.4193420410156 30.964632034301758 525.78662109375 93.10010528564453 477.3392333984375 125.97367858886719 C 458.4482727050781 8.158034324645996 438.5657958984375 -34.277442932128906 450.40460205078125 2.8059933185577393 C 448.0593566894531 51.33790969848633 460.50921630859375 50.56943130493164 438.2418518066406 86.5510482788086" stroke-width="0.0" fill="rgb(0, 0, 5)" opacity="0.48225734" stroke="rgb(0, 0, 0)" stroke-opacity="1.0" stroke-linecap="round" stroke-linejoin="round"/>
    <path d="M 449.9271545410156 84.57678985595703 C 251.08641052246094 137.59744262695312 401.6260070800781 128.79705810546875 390.87347412109375 219.11134338378906 C 306.502197265625 55.176055908203125 314.82818603515625 159.3581085205078 357.2414245605469 72.01435852050781 C 327.4901428222656 115.39453125 362.2728271484375 11.491086959838867 325.5185241699219 127.93185424804688 C 381.603515625 130.77523803710938 445.6457824707031 -11.273868560791016 449.9271545410156 84.57678985595703" stroke-width="0.0" fill="rgb(0, 7, 0)" opacity="1.0" stroke="rgb(0, 0, 0)" stroke-opacity="1.0" stroke-linecap="round" stroke-linejoin="round"/>
    <path d="M 465.08892822265625 418.13238525390625 C 443.0087585449219 394.8111572265625 514.7763061523438 515.5804443359375 388.40484619140625 528.9921875 C 372.92041015625 370.54803466796875 445.9783630371094 469.5155334472656 397.5134582519531 354.98162841796875 C 551.3606567382812 433.8763122558594 362.84356689453125 364.4284973144531 424.39739990234375 346.3992614746094 C 457.8084411621094 412.7447204589844 491.8752746582031 425.5367431640625 465.08892822265625 418.13238525390625" stroke-width="0.0" fill="rgb(193, 146, 157)" opacity="0.8098202" stroke="rgb(0, 0, 0)" stroke-opacity="1.0" stroke-linecap="round" stroke-linejoin="round"/>
    <path d="M 479.2688903808594 26.71803092956543 C 454.5812683105469 12.596617698669434 472.8074645996094 26.99466896057129 412.52374267578125 129.66558837890625 C 346.50390625 58.96023941040039 387.6726379394531 124.69679260253906 461.04949951171875 62.71194076538086 C 445.3910217285156 66.31934356689453 441.52239990234375 60.35078811645508 456.1547546386719 117.56829833984375 C 457.3238525390625 31.362266540527344 448.73187255859375 9.67595100402832 479.2688903808594 26.71803092956543" stroke-width="0.0" fill="rgb(0, 86, 4)" opacity="0.95462877" stroke="rgb(0, 0, 0)" stroke-opacity="1.0" stroke-linecap="round" stroke-linejoin="round"/>
    <path d="M 446.2897644042969 401.5331726074219 C 507.7520446777344 443.62762451171875 436.9771423339844 463.88690185546875 352.46710205078125 501.1731262207031 C 197.47064208984375 554.4638061523438 98.40116882324219 492.91314697265625 154.34841918945312 423.4980163574219 C 230.64422607421875 466.2122497558594 254.01564025878906 481.7554016113281 297.2895812988281 470.0702819824219 C 292.5958557128906 461.90557861328125 310.3287658691406 443.4013671875 446.2897644042969 401.5331726074219" stroke-width="0.0" fill="rgb(0, 1, 0)" opacity="1.0" stroke="rgb(0, 0, 0)" stroke-opacity="1.0" stroke-linecap="round" stroke-linejoin="round"/>
    <path d="M 233.84144592285156 311.0283508300781 C 285.35772705078125 278.4335021972656 308.93072509765625 288.97906494140625 255.25570678710938 340.72894287109375 C 200.30213928222656 320.799072265625 236.7443389892578 299.9852600097656 216.09805297851562 236.2022247314453 C 163.21334838867188 235.8448944091797 159.1244659423828 265.1899108886719 170.0423126220703 284.87115478515625 C 151.39707946777344 365.417724609375 170.27745056152344 295.65380859375 233.84144592285156 311.0283508300781" stroke-width="0.0" fill="rgb(255, 255, 241)" opacity="1.0" stroke="rgb(0, 0, 0)" stroke-opacity="1.0" stroke-linecap="round" stroke-linejoin="round"/>
    <path d="M 551.3062744140625 395.82177734375 C 484.5860900878906 543.56982421875 445.9777526855469 480.8265380859375 471.8373718261719 404.9384765625 C 464.56915283203125 408.26593017578125 472.1891784667969 399.9573974609375 449.79833984375 394.0462341308594 C 499.0015563964844 406.3380432128906 441.60565185546875 402.4475402832031 435.5696716308594 400.7752380371094 C 523.41845703125 419.9626770019531 464.04498291015625 384.97821044921875 551.3062744140625 395.82177734375" stroke-width="0.0" fill="rgb(215, 144, 137)" opacity="0.37979665" stroke="rgb(0, 0, 0)" stroke-opacity="1.0" stroke-linecap="round" stroke-linejoin="round"/>
    <path d="M 311.3458251953125 371.4761962890625 C 302.9443664550781 345.5878601074219 284.0992126464844 368.8880920410156 296.105712890625 365.2005920410156 C 262.7785339355469 393.70697021484375 255.18548583984375 383.39453125 300.6983947753906 422.90679931640625 C 180.28958129882812 441.8937072753906 222.91275024414062 415.23028564453125 309.2543029785156 300.37603759765625 C 308.82794189453125 390.59454345703125 353.38079833984375 381.478515625 311.3458251953125 371.4761962890625" stroke-width="0.0" fill="rgb(0, 0, 1)" opacity="1.0" stroke="rgb(0, 0, 0)" stroke-opacity="1.0" stroke-linecap="round" stroke-linejoin="round"/>
    <path d="M 100.4415283203125 27.408214569091797 C 38.434139251708984 55.57148742675781 42.1529655456543 136.3087158203125 86.75540924072266 170.6934051513672 C 76.25736236572266 257.6291198730469 29.140600204467773 28.603214263916016 43.01008605957031 55.198028564453125 C 39.11646270751953 -23.024524688720703 24.824054718017578 -51.29047775268555 112.97000122070312 3.1988983154296875 C 172.47036743164062 61.79142761230469 97.97248077392578 -28.123249053955078 100.4415283203125 27.408214569091797" stroke-width="0.0" fill="rgb(227, 233, 233)" opacity="0.9374018" stroke="rgb(0, 0, 0)" stroke-opacity="1.0" stroke-linecap="round" stroke-linejoin="round"/>
    <path d="M 236.8787078857422 49.9279899597168 C 200.7872314453125 42.5555534362793 196.26283264160156 40.495262145996094 175.5511016845703 86.68154907226562 C 116.21500396728516 64.42578125 103.07350158691406 56.79427719116211 94.00648498535156 -2.8765652179718018 C 104.34090423583984 -24.695178985595703 103.33222198486328 -24.701932907104492 174.5690460205078 -45.53879928588867 C 221.97366333007812 -33.527008056640625 232.7206268310547 -36.099952697753906 236.8787078857422 49.9279899597168" stroke-width="0.0" fill="rgb(249, 213, 225)" opacity="0.39043355" stroke="rgb(0, 0, 0)" stroke-opacity="1.0" stroke-linecap="round" stroke-linejoin="round"/>
    <path d="M 102.16445922851562 347.65081787109375 C 102.7069091796875 357.9323425292969 90.81153106689453 340.4569091796875 68.48017883300781 346.7392272949219 C 57.097633361816406 364.478515625 55.212440490722656 371.2831115722656 37.367340087890625 334.8199768066406 C 32.241573333740234 265.62530517578125 40.013919830322266 238.7882080078125 47.6463508605957 262.0110168457031 C 60.443267822265625 338.67218017578125 51.39952087402344 356.64306640625 102.16445922851562 347.65081787109375" stroke-width="0.0" fill="rgb(143, 125, 115)" opacity="0.9767459" stroke="rgb(0, 0, 0)" stroke-opacity="1.0" stroke-linecap="round" stroke-linejoin="round"/>
    <path d="M 76.11446380615234 274.11407470703125 C 70.62679290771484 268.08123779296875 67.2938003540039 273.8520202636719 62.19879150390625 264.91900634765625 C 69.3389892578125 250.762939453125 89.33515167236328 345.7598571777344 29.749998092651367 341.5990905761719 C 29.583688735961914 186.83985900878906 84.06890869140625 124.39418029785156 68.47483825683594 244.99951171875 C 67.88800048828125 257.3273010253906 61.77613067626953 239.22088623046875 76.11446380615234 274.11407470703125" stroke-width="0.0" fill="rgb(255, 255, 234)" opacity="1.0" stroke="rgb(0, 0, 0)" stroke-opacity="1.0" stroke-linecap="round" stroke-linejoin="round"/>
    <path d="M 268.3682556152344 91.86199188232422 C 223.7947540283203 136.99899291992188 238.8662872314453 162.75013732910156 212.20062255859375 189.4008026123047 C 225.94644165039062 129.37271118164062 208.6021728515625 117.8680191040039 170.98452758789062 132.73876953125 C 211.85226440429688 97.6912841796875 223.64581298828125 94.5007553100586 251.7521209716797 86.07042694091797 C 273.0199279785156 102.74874877929688 304.7164001464844 103.65428161621094 268.3682556152344 91.86199188232422" stroke-width="0.0" fill="rgb(111, 43, 69)" opacity="0.9040266" stroke="rgb(0, 0, 0)" stroke-opacity="1.0" stroke-linecap="round" stroke-linejoin="round"/>
    <path d="M 313.9452819824219 333.55572509765625 C 311.7292785644531 322.86651611328125 353.51971435546875 376.4100341796875 320.1103210449219 411.1723327636719 C 275.29266357421875 355.34814453125 282.7651062011719 368.7417297363281 287.84991455078125 368.3995361328125 C 311.7347717285156 360.71673583984375 323.8966979980469 297.5066223144531 313.8080749511719 341.0068664550781 C 351.1379089355469 360.5036926269531 317.9988098144531 368.4305725097656 313.9452819824219 333.55572509765625" stroke-width="0.0" fill="rgb(255, 255, 241)" opacity="0.9363626" stroke="rgb(0, 0, 0)" stroke-opacity="1.0" stroke-linecap="round" stroke-linejoin="round"/>
    <path d="M 47.805633544921875 441.85650634765625 C 35.813270568847656 435.98529052734375 148.1110076904297 395.4634094238281 65.65807342529297 374.4981384277344 C 22.452693939208984 451.7646789550781 6.854782581329346 386.0378112792969 81.77606964111328 349.71405029296875 C -30.77568244934082 377.0157165527344 9.44636058807373 377.0908203125 72.43478393554688 364.3465270996094 C 71.12134552001953 369.42340087890625 75.81912994384766 360.66754150390625 47.805633544921875 441.85650634765625" stroke-width="0.0" fill="rgb(0, 1, 0)" opacity="0.670428" stroke="rgb(0, 0, 0)" stroke-opacity="1.0" stroke-linecap="round" stroke-linejoin="round"/>
    <path d="M 360.3145751953125 442.9576416015625 C 324.1420593261719 454.3373718261719 341.2187805175781 459.2475891113281 285.1147766113281 413.7923889160156 C 281.5588073730469 390.2274475097656 299.4212341308594 393.31292724609375 323.11572265625 365.87158203125 C 304.4442138671875 388.3174133300781 257.5809326171875 408.0234375 313.8597412109375 413.3253173828125 C 364.5979309082031 368.8900146484375 372.16534423828125 385.97674560546875 360.3145751953125 442.9576416015625" stroke-width="0.0" fill="rgb(0, 0, 3)" opacity="1.0" stroke="rgb(0, 0, 0)" stroke-opacity="1.0" stroke-linecap="round" stroke-linejoin="round"/>
    <path d="M 422.7612609863281 108.55706787109375 C 417.616455078125 95.35870361328125 442.88275146484375 90.2863540649414 423.71087646484375 108.93541717529297 C 445.1764221191406 139.7427520751953 424.8567810058594 90.19291687011719 371.6949462890625 92.69486236572266 C 402.9342041015625 101.32101440429688 407.12060546875 92.8526611328125 422.0270690917969 98.1187515258789 C 363.26904296875 119.13468170166016 422.1671142578125 101.28390502929688 422.7612609863281 108.55706787109375" stroke-width="0.0" fill="rgb(92, 130, 114)" opacity="0.2529496" stroke="rgb(0, 0, 0)" stroke-opacity="1.0" stroke-linecap="round" stroke-linejoin="round"/>
    <path d="M 196.32443237304688 91.10324096679688 C 166.7625732421875 116.81889343261719 150.24862670898438 103.07185363769531 180.45407104492188 89.52559661865234 C 177.01625061035156 94.00218963623047 171.7611846923828 88.2131118774414 147.21603393554688 63.039581298828125 C 89.7530288696289 40.82365036010742 124.92803955078125 73.99347686767578 177.48245239257812 86.47820281982422 C 194.34840393066406 78.46707153320312 222.39915466308594 74.97916412353516 196.32443237304688 91.10324096679688" stroke-width="0.0" fill="rgb(28, 24, 43)" opacity="0.9342356" stroke="rgb(0, 0, 0)" stroke-opacity="1.0" stroke-linecap="round" stroke-linejoin="round"/>
    <path d="M 531.8523559570312 440.48583984375 C 531.2156982421875 467.00396728515625 531.2875366210938 471.57672119140625 529.4030151367188 451.7515869140625 C 519.7999877929688 442.5311584472656 510.1632080078125 436.0676574707031 502.30462646484375 448.8976135253906 C 481.11700439453125 453.3006286621094 489.9453125 423.8809814453125 518.9566040039062 419.83306884765625 C 524.2904663085938 425.6336975097656 529.3707275390625 430.8746337890625 531.8523559570312 440.48583984375" stroke-width="0.0" fill="rgb(253, 218, 149)" opacity="0.021686127" stroke="rgb(0, 0, 0)" stroke-opacity="1.0" stroke-linecap="round" stroke-linejoin="round"/>
    <path d="M 393.813232421875 193.52127075195312 C 406.6318359375 269.79412841796875 375.8457946777344 282.5384826660156 348.9131164550781 255.56829833984375 C 326.1283874511719 264.2254333496094 333.32379150390625 245.08143615722656 306.1954040527344 215.5546112060547 C 309.275146484375 263.2695007324219 342.9884033203125 254.3992462158203 332.2042541503906 255.3705596923828 C 401.2716979980469 266.7158203125 359.5337219238281 217.3787384033203 393.813232421875 193.52127075195312" stroke-width="0.0" fill="rgb(7, 1, 36)" opacity="0.9949283" stroke="rgb(0, 0, 0)" stroke-opacity="1.0" stroke-linecap="round" stroke-linejoin="round"/>
    <path d="M 455.15277099609375 383.2874450683594 C 440.9326477050781 395.1507568359375 434.08380126953125 391.57843017578125 440.8167724609375 405.2010498046875 C 435.3133544921875 383.17724609375 422.8558044433594 428.0263671875 361.35595703125 429.65252685546875 C 366.353759765625 341.826904296875 415.44354248046875 341.0211486816406 451.2798767089844 351.5235595703125 C 453.4874572753906 391.0312805175781 465.874755859375 404.3507385253906 455.15277099609375 383.2874450683594" stroke-width="0.0" fill="rgb(248, 249, 210)" opacity="0.6347122" stroke="rgb(0, 0, 0)" stroke-opacity="1.0" stroke-linecap="round" stroke-linejoin="round"/>
    <path d="M 172.1317596435547 437.44464111328125 C 183.2142791748047 452.5766906738281 182.3455810546875 451.5737609863281 188.64222717285156 454.5167541503906 C 171.94288635253906 454.7665100097656 168.16070556640625 441.7727355957031 165.07669067382812 426.08050537109375 C 159.0767364501953 416.9085693359375 166.9148406982422 417.40960693359375 167.60313415527344 413.814453125 C 160.34298706054688 419.26123046875 158.24252319335938 419.9081726074219 172.1317596435547 437.44464111328125" stroke-width="0.0" fill="rgb(174, 220, 227)" opacity="0.22470275" stroke="rgb(0, 0, 0)" stroke-opacity="1.0" stroke-linecap="round" stroke-linejoin="round"/>
    <path d="M 409.3630676269531 372.3697509765625 C 412.0247497558594 392.0676574707031 420.2066650390625 399.5608215332031 440.6703796386719 408.3832092285156 C 409.7760009765625 407.17987060546875 415.345703125 373.289794921875 409.3551330566406 355.7131652832031 C 406.06353759765625 347.1950988769531 406.7872314453125 339.39569091796875 413.9460144042969 343.61566162109375 C 454.73602294921875 366.81951904296875 413.2458801269531 359.6329650878906 409.3630676269531 372.3697509765625" stroke-width="0.0" fill="rgb(251, 224, 198)" opacity="0.63886124" stroke="rgb(0, 0, 0)" stroke-opacity="1.0" stroke-linecap="round" stroke-linejoin="round"/>
    <path d="M 129.0821533203125 115.40861511230469 C 150.090087890625 121.05278778076172 125.51370239257812 106.66254425048828 150.58274841308594 101.45057678222656 C 132.3919219970703 114.08477783203125 82.94747924804688 134.29605102539062 79.72377014160156 113.64103698730469 C 79.39924621582031 85.45169067382812 73.01242065429688 90.60926818847656 74.93699645996094 98.80304718017578 C 98.15992736816406 103.23928833007812 114.2999496459961 103.27465057373047 129.0821533203125 115.40861511230469" stroke-width="0.0" fill="rgb(4, 154, 14)" opacity="0.9310361" stroke="rgb(0, 0, 0)" stroke-opacity="1.0" stroke-linecap="round" stroke-linejoin="round"/>
    <path d="M 369.9532470703125 383.1803283691406 C 359.6250915527344 403.0773010253906 379.98883056640625 427.09722900390625 356.23016357421875 457.6272888183594 C 332.5960998535156 424.8310241699219 354.9920349121094 393.38623046875 375.1416931152344 336.5099182128906 C 341.3061218261719 349.97857666015625 286.21282958984375 373.34954833984375 313.01129150390625 378.03570556640625 C 369.61944580078125 366.02398681640625 399.5411376953125 347.7933654785156 369.9532470703125 383.1803283691406" stroke-width="0.0" fill="rgb(0, 0, 4)" opacity="0.8562255" stroke="rgb(0, 0, 0)" stroke-opacity="1.0" stroke-linecap="round" stroke-linejoin="round"/>
    <path d="M 126.35317993164062 373.5384521484375 C 146.74282836914062 417.87652587890625 141.73228454589844 428.30914306640625 113.28191375732422 427.8600158691406 C 80.39407348632812 385.2723693847656 71.84567260742188 382.6893310546875 52.80147171020508 357.4205322265625 C 18.82233238220215 302.07867431640625 58.81743240356445 339.6234130859375 111.02696990966797 363.76763916015625 C 88.94904327392578 381.2928161621094 107.32257080078125 379.1622619628906 126.35317993164062 373.5384521484375" stroke-width="0.0" fill="rgb(243, 254, 215)" opacity="0.97708845" stroke="rgb(0, 0, 0)" stroke-opacity="1.0" stroke-linecap="round" stroke-linejoin="round"/>
    <path d="M 318.5110778808594 86.18887329101562 C 306.8562927246094 189.29466247558594 312.41546630859375 215.34402465820312 270.908447265625 160.74478149414062 C 243.5726318359375 138.02818298339844 271.70623779296875 79.16645812988281 258.3249206542969 157.1173858642578 C 165.50588989257812 179.96958923339844 210.4610137939453 149.63233947753906 269.60125732421875 60.51289367675781 C 197.29052734375 25.82949447631836 315.4494323730469 25.74148178100586 318.5110778808594 86.18887329101562" stroke-width="0.0" fill="rgb(96, 27, 13)" opacity="0.9917248" stroke="rgb(0, 0, 0)" stroke-opacity="1.0" stroke-linecap="round" stroke-linejoin="round"/>
    <path d="M 443.68011474609375 92.84827423095703 C 453.17706298828125 94.1700668334961 461.6402893066406 85.728515625 452.643798828125 89.14254760742188 C 461.5361328125 77.06539154052734 445.0203857421875 95.51458740234375 430.59027099609375 95.68057250976562 C 437.6981201171875 87.4017562866211 441.37823486328125 82.7118911743164 446.848876953125 57.898067474365234 C 457.15777587890625 51.8469123840332 455.13299560546875 88.51830291748047 443.68011474609375 92.84827423095703" stroke-width="0.0" fill="rgb(163, 196, 203)" opacity="0.60447323" stroke="rgb(0, 0, 0)" stroke-opacity="1.0" stroke-linecap="round" stroke-linejoin="round"/>
    <path d="M 98.1383285522461 112.14201354980469 C 86.07977294921875 114.62454223632812 79.53665161132812 143.60926818847656 95.93494415283203 129.65972900390625 C 86.5903091430664 141.49789428710938 95.55117797851562 158.450927734375 84.28904724121094 110.77043914794922 C 77.69371032714844 122.44235229492188 72.34185028076172 116.41677856445312 83.1146240234375 119.59554290771484 C 142.76153564453125 130.24996948242188 157.83065795898438 118.9897232055664 98.1383285522461 112.14201354980469" stroke-width="0.0" fill="rgb(63, 158, 84)" opacity="0.7950087" stroke="rgb(0, 0, 0)" stroke-opacity="1.0" stroke-linecap="round" stroke-linejoin="round"/>
    <path d="M 534.3114013671875 481.12835693359375 C 520.4595336914062 517.4486083984375 511.7738037109375 524.1069946289062 464.7449035644531 547.8394775390625 C 439.9444885253906 533.51953125 425.40679931640625 510.5371398925781 445.0941162109375 500.0280456542969 C 452.6702575683594 473.12164306640625 476.67724609375 474.7667541503906 494.8883972167969 454.12945556640625 C 533.4078979492188 459.22735595703125 540.8389282226562 460.4488525390625 534.3114013671875 481.12835693359375" stroke-width="0.0" fill="rgb(236, 175, 26)" opacity="0.47259063" stroke="rgb(0, 0, 0)" stroke-opacity="1.0" stroke-linecap="round" stroke-linejoin="round"/>
    <path d="M 251.86761474609375 335.2474060058594 C 255.52960205078125 340.7320251464844 238.9547882080078 322.31304931640625 253.11190795898438 378.4326171875 C 224.2358856201172 361.57720947265625 189.28599548339844 345.2781982421875 207.12155151367188 307.3968505859375 C 228.35748291015625 349.5252990722656 251.19485473632812 343.43988037109375 249.41270446777344 339.0694274902344 C 252.40106201171875 338.0066833496094 248.1559295654297 342.27886962890625 251.86761474609375 335.2474060058594" stroke-width="0.0" fill="rgb(0, 0, 4)" opacity="1.0" stroke="rgb(0, 0, 0)" stroke-opacity="1.0" stroke-linecap="round" stroke-linejoin="round"/>
    <path d="M 414.2861328125 122.54951477050781 C 411.1361999511719 121.37069702148438 405.25860595703125 147.94261169433594 418.6716613769531 189.19699096679688 C 388.0633239746094 176.6422576904297 355.07086181640625 135.76507568359375 381.8266906738281 131.23538208007812 C 410.3235168457031 184.87197875976562 410.3749694824219 161.37144470214844 421.66400146484375 135.0430450439453 C 433.8188781738281 124.75830078125 414.569091796875 126.89813995361328 414.2861328125 122.54951477050781" stroke-width="0.0" fill="rgb(2, 0, 3)" opacity="0.98319906" stroke="rgb(0, 0, 0)" stroke-opacity="1.0" stroke-linecap="round" stroke-linejoin="round"/>
    <path d="M 454.48663330078125 517.1674194335938 C 474.2330017089844 524.1282348632812 472.9652404785156 528.0568237304688 426.3662109375 532.1058349609375 C 425.5655822753906 510.7815856933594 435.5369567871094 496.63763427734375 442.6913757324219 486.90234375 C 445.5848083496094 468.12591552734375 441.6484069824219 465.7754821777344 451.443603515625 454.8184814453125 C 437.1636657714844 461.37359619140625 446.9161376953125 487.0436096191406 454.48663330078125 517.1674194335938" stroke-width="0.0" fill="rgb(183, 91, 80)" opacity="0.695442" stroke="rgb(0, 0, 0)" stroke-opacity="1.0" stroke-linecap="round" stroke-linejoin="round"/>
    <path d="M 462.7421569824219 -17.669466018676758 C 470.987548828125 -3.133774995803833 461.462646484375 -3.686718702316284 515.9468994140625 4.807367324829102 C 520.871826171875 44.59697341918945 464.5977478027344 40.776954650878906 416.8374328613281 12.055036544799805 C 414.176025390625 -29.602453231811523 440.5184020996094 -24.12197494506836 465.0841064453125 -20.530927658081055 C 470.73095703125 -19.025684356689453 477.575439453125 -15.229599952697754 462.7421569824219 -17.669466018676758" stroke-width="0.0" fill="rgb(255, 232, 237)" opacity="1.0" stroke="rgb(0, 0, 0)" stroke-opacity="1.0" stroke-linecap="round" stroke-linejoin="round"/>
    <path d="M 170.13673400878906 276.6707763671875 C 177.9191131591797 270.5701904296875 180.55255126953125 288.77764892578125 173.0771942138672 280.6629333496094 C 143.19790649414062 292.4117736816406 146.6981964111328 274.2863464355469 144.0084686279297 212.48385620117188 C 176.0552215576172 227.5448455810547 166.01829528808594 240.1126708984375 185.80552673339844 234.568359375 C 191.70693969726562 248.65850830078125 204.19468688964844 254.35166931152344 170.13673400878906 276.6707763671875" stroke-width="0.0" fill="rgb(255, 242, 255)" opacity="1.0" stroke="rgb(0, 0, 0)" stroke-opacity="1.0" stroke-linecap="round" stroke-linejoin="round"/>
    <path d="M 189.27810668945312 388.8917541503906 C 170.18435668945312 411.2263488769531 188.84814453125 432.80029296875 197.8502960205078 445.1181945800781 C 159.66265869140625 455.0071716308594 134.624755859375 452.4672546386719 136.95965576171875 445.1457214355469 C 151.0340118408203 412.7777404785156 159.8300323486328 422.4535827636719 177.85983276367188 439.6256408691406 C 194.24900817871094 410.9180908203125 196.57106018066406 382.50299072265625 189.27810668945312 388.8917541503906" stroke-width="0.0" fill="rgb(220, 228, 186)" opacity="0.0" stroke="rgb(0, 0, 0)" stroke-opacity="1.0" stroke-linecap="round" stroke-linejoin="round"/>
    <path d="M 189.4558563232422 255.50462341308594 C 188.65895080566406 249.65171813964844 192.7036895751953 256.5361633300781 177.21910095214844 265.1962585449219 C 171.83380126953125 296.24383544921875 163.32228088378906 284.8206787109375 180.89724731445312 266.0997009277344 C 185.43951416015625 254.86427307128906 192.0568389892578 252.04176330566406 176.96836853027344 257.05718994140625 C 192.63726806640625 242.12083435058594 206.2294464111328 240.13784790039062 189.4558563232422 255.50462341308594" stroke-width="0.0" fill="rgb(218, 86, 202)" opacity="0.9113704" stroke="rgb(0, 0, 0)" stroke-opacity="1.0" stroke-linecap="round" stroke-linejoin="round"/>
    <path d="M 187.90701293945312 387.0323486328125 C 242.4435272216797 381.37738037109375 195.82003784179688 390.01251220703125 146.44432067871094 383.46875 C 155.00242614746094 360.140869140625 138.99676513671875 344.90460205078125 173.76145935058594 368.9864807128906 C 216.3999786376953 389.5627136230469 244.89959716796875 366.4795837402344 179.4169158935547 351.4867248535156 C 130.09332275390625 308.29248046875 108.0362777709961 382.582763671875 187.90701293945312 387.0323486328125" stroke-width="0.0" fill="rgb(0, 0, 10)" opacity="0.9772013" stroke="rgb(0, 0, 0)" stroke-opacity="1.0" stroke-linecap="round" stroke-linejoin="round"/>
    <path d="M 66.45198059082031 437.6025085449219 C 63.09748077392578 448.0240783691406 56.63266372680664 463.0790710449219 56.84891891479492 454.1978759765625 C 67.67213439941406 432.2498474121094 70.3138427734375 443.04620361328125 71.14952087402344 452.61358642578125 C 42.15144348144531 449.5292663574219 51.91267395019531 441.27410888671875 64.70337677001953 419.86358642578125 C 80.15795135498047 422.768798828125 101.0180892944336 437.95928955078125 66.45198059082031 437.6025085449219" stroke-width="0.0" fill="rgb(91, 42, 217)" opacity="0.0" stroke="rgb(0, 0, 0)" stroke-opacity="1.0" stroke-linecap="round" stroke-linejoin="round"/>
    <path d="M 462.8421325683594 449.686767578125 C 479.1278076171875 448.9419250488281 472.462158203125 475.26361083984375 446.6531677246094 487.9352722167969 C 443.9910888671875 469.1217346191406 444.2876892089844 461.1141052246094 425.296875 472.2994384765625 C 453.0675354003906 459.6331787109375 463.1486511230469 454.0715026855469 460.9092102050781 448.9118957519531 C 467.8637390136719 412.80975341796875 476.3753356933594 440.09075927734375 462.8421325683594 449.686767578125" stroke-width="0.0" fill="rgb(215, 155, 90)" opacity="0.009916203" stroke="rgb(0, 0, 0)" stroke-opacity="1.0" stroke-linecap="round" stroke-linejoin="round"/>
    <path d="M 401.70220947265625 350.29754638671875 C 462.851806640625 321.87310791015625 454.6955261230469 353.44573974609375 432.8243103027344 368.751708984375 C 421.3288269042969 375.294677734375 419.495849609375 372.1087341308594 416.8670959472656 358.09423828125 C 428.0555725097656 356.09716796875 433.9916687011719 348.6519470214844 420.8372497558594 362.8988342285156 C 419.2316589355469 342.0012512207031 409.5758361816406 373.1504821777344 401.70220947265625 350.29754638671875" stroke-width="0.0" fill="rgb(170, 221, 89)" opacity="0.02142408" stroke="rgb(0, 0, 0)" stroke-opacity="1.0" stroke-linecap="round" stroke-linejoin="round"/>
    <path d="M 46.524757385253906 121.60859680175781 C 50.6201286315918 141.9533233642578 50.483909606933594 159.0148162841797 25.093942642211914 163.32003784179688 C -13.181588172912598 168.927490234375 -6.993116855621338 144.339111328125 -19.605073928833008 113.32666015625 C -15.554555892944336 40.25445556640625 -9.797633171081543 12.906347274780273 22.499805450439453 35.854522705078125 C 51.84345626831055 97.50289916992188 43.13970184326172 111.03498840332031 46.524757385253906 121.60859680175781" stroke-width="0.0" fill="rgb(176, 101, 112)" opacity="0.28076893" stroke="rgb(0, 0, 0)" stroke-opacity="1.0" stroke-linecap="round" stroke-linejoin="round"/>
    <path d="M 88.86619567871094 499.3185119628906 C 87.75601196289062 517.5969848632812 81.8612289428711 519.3809204101562 17.57108497619629 516.2462158203125 C 19.415023803710938 488.4833068847656 13.279723167419434 469.7171936035156 8.945524215698242 472.454345703125 C 4.4239935874938965 446.9621276855469 5.459974765777588 442.3111877441406 34.265377044677734 437.1700439453125 C 34.294219970703125 445.11334228515625 34.5002326965332 475.7118835449219 88.86619567871094 499.3185119628906" stroke-width="0.0" fill="rgb(181, 244, 170)" opacity="0.011714698" stroke="rgb(0, 0, 0)" stroke-opacity="1.0" stroke-linecap="round" stroke-linejoin="round"/>
    <path d="M 133.95472717285156 217.04563903808594 C 100.97997283935547 240.80970764160156 110.1596450805664 247.2339630126953 159.72219848632812 280.22747802734375 C 108.89694213867188 299.10186767578125 86.30540466308594 284.8732604980469 106.46733093261719 188.35023498535156 C 140.9020233154297 179.7649383544922 102.91962432861328 205.06240844726562 144.1211700439453 245.97264099121094 C 162.9304962158203 235.1114959716797 163.64813232421875 230.110595703125 133.95472717285156 217.04563903808594" stroke-width="0.0" fill="rgb(255, 255, 253)" opacity="1.0" stroke="rgb(0, 0, 0)" stroke-opacity="1.0" stroke-linecap="round" stroke-linejoin="round"/>
    <path d="M 410.99261474609375 8.17625904083252 C 373.4946594238281 69.60429382324219 328.1328430175781 68.92536163330078 268.73602294921875 38.77131652832031 C 214.69859313964844 46.964935302734375 206.70411682128906 54.86406707763672 207.488037109375 42.1399040222168 C 230.01834106445312 -21.342124938964844 245.52037048339844 -21.613067626953125 282.26922607421875 -24.51454734802246 C 297.8811950683594 -23.872957229614258 313.4842529296875 -35.233551025390625 410.99261474609375 8.17625904083252" stroke-width="0.0" fill="rgb(137, 86, 96)" opacity="0.25606847" stroke="rgb(0, 0, 0)" stroke-opacity="1.0" stroke-linecap="round" stroke-linejoin="round"/>
    <path d="M 123.34224700927734 152.35581970214844 C 125.18663787841797 154.8367156982422 121.36614990234375 170.71751403808594 117.65644073486328 174.08328247070312 C 115.6933822631836 193.3417205810547 108.895263671875 169.58273315429688 105.98860931396484 184.54681396484375 C 117.83615112304688 170.1109619140625 117.79981994628906 153.13336181640625 130.48597717285156 160.009521484375 C 120.95661926269531 147.9202880859375 126.16902160644531 159.7657928466797 123.34224700927734 152.35581970214844" stroke-width="0.0" fill="rgb(139, 112, 121)" opacity="0.002295964" stroke="rgb(0, 0, 0)" stroke-opacity="1.0" stroke-linecap="round" stroke-linejoin="round"/>
    <path d="M 460.63055419921875 233.36094665527344 C 442.93841552734375 216.25433349609375 436.89764404296875 223.25653076171875 448.7791748046875 242.3275909423828 C 439.6492614746094 258.0882873535156 434.4364013671875 237.593505859375 440.1677551269531 237.6283721923828 C 434.3135070800781 232.4071044921875 427.8612060546875 226.1311798095703 479.7906188964844 196.57696533203125 C 532.2778930664062 346.96990966796875 465.7562255859375 313.5097961425781 460.63055419921875 233.36094665527344" stroke-width="0.0" fill="rgb(0, 0, 15)" opacity="1.0" stroke="rgb(0, 0, 0)" stroke-opacity="1.0" stroke-linecap="round" stroke-linejoin="round"/>
    <path d="M 368.8860168457031 385.4919738769531 C 365.04510498046875 384.4374694824219 374.07147216796875 378.0199279785156 362.3513488769531 392.37548828125 C 324.19744873046875 403.70806884765625 329.55194091796875 387.7411804199219 368.1333923339844 396.2451171875 C 355.13165283203125 375.4731750488281 353.0780944824219 366.1366882324219 396.87298583984375 375.5627136230469 C 365.16143798828125 404.0772705078125 357.51568603515625 396.6997985839844 368.8860168457031 385.4919738769531" stroke-width="0.0" fill="rgb(83, 30, 35)" opacity="0.047564115" stroke="rgb(0, 0, 0)" stroke-opacity="1.0" stroke-linecap="round" stroke-linejoin="round"/>
    <path d="M 380.5601806640625 191.8245849609375 C 379.3299255371094 201.16476440429688 381.19781494140625 195.2159423828125 374.031005859375 181.63307189941406 C 358.70916748046875 210.09922790527344 374.9025573730469 218.2041778564453 347.93963623046875 230.3392333984375 C 361.8843078613281 210.53451538085938 362.0950927734375 200.09095764160156 349.052001953125 170.4718475341797 C 358.8648681640625 199.4495086669922 378.202880859375 188.9862823486328 380.5601806640625 191.8245849609375" stroke-width="0.0" fill="rgb(42, 0, 24)" opacity="0.0717531" stroke="rgb(0, 0, 0)" stroke-opacity="1.0" stroke-linecap="round" stroke-linejoin="round"/>
    <path d="M 94.6060562133789 466.04827880859375 C 110.08154296875 471.5547180175781 104.48868560791016 474.0514831542969 101.15216827392578 476.47113037109375 C 86.13145446777344 455.2801513671875 76.7370834350586 444.7288513183594 62.8006591796875 442.47332763671875 C 58.92878723144531 441.0541687011719 84.2138671875 428.9820251464844 84.3709716796875 432.3362731933594 C 102.2681655883789 420.22607421875 101.43907165527344 431.6611328125 94.6060562133789 466.04827880859375" stroke-width="0.0" fill="rgb(224, 200, 198)" opacity="0.0" stroke="rgb(0, 0, 0)" stroke-opacity="1.0" stroke-linecap="round" stroke-linejoin="round"/>
    <path d="M 68.07151794433594 465.4375 C 96.97948455810547 453.97735595703125 91.97657012939453 486.9389343261719 72.12832641601562 516.3657836914062 C 43.10921859741211 496.0088806152344 15.9069185256958 504.2846374511719 -16.147844314575195 407.92034912109375 C 37.00129699707031 381.10955810546875 39.91259765625 450.45367431640625 60.875797271728516 447.467041015625 C 71.8388671875 427.5688171386719 51.45594787597656 442.5017395019531 68.07151794433594 465.4375" stroke-width="0.0" fill="rgb(216, 245, 114)" opacity="0.011705169" stroke="rgb(0, 0, 0)" stroke-opacity="1.0" stroke-linecap="round" stroke-linejoin="round"/>
  </g>
</svg>
