<?xml version="1.0" ?>
<svg xmlns="http://www.w3.org/2000/svg" version="1.1" width="512" height="512">
  <defs/>
  <g>
    <path d="M 526.8195190429688 460.9208679199219 C 548.0579833984375 517.3278198242188 548.9373779296875 525.5354614257812 381.03411865234375 532.7677001953125 C 294.4583435058594 565.0973510742188 266.73052978515625 561.883544921875 286.5029296875 507.1884765625 C 321.9219665527344 312.675537109375 352.7294006347656 294.8274841308594 464.5466003417969 286.98211669921875 C 570.7046508789062 294.9334411621094 562.4361572265625 322.379638671875 526.8195190429688 460.9208679199219" stroke-width="0.0" fill="rgb(94, 55, 84)" opacity="0.7664534" stroke="rgb(0, 0, 0)" stroke-opacity="1.0" stroke-linecap="round" stroke-linejoin="round"/>
    <path d="M 235.86509704589844 488.42095947265625 C 334.3789978027344 481.6212463378906 325.5211181640625 522.0560302734375 121.99321746826172 545.8033447265625 C -51.20000076293945 517.7235107421875 -51.20000076293945 507.83367919921875 -21.774600982666016 449.183837890625 C -18.38620376586914 205.44985961914062 -18.693912506103516 199.01014709472656 -40.274478912353516 274.5669250488281 C 184.1016082763672 314.30975341796875 216.6778564453125 246.7552032470703 235.86509704589844 488.42095947265625" stroke-width="0.0" fill="rgb(0, 1, 145)" opacity="1.0" stroke="rgb(0, 0, 0)" stroke-opacity="1.0" stroke-linecap="round" stroke-linejoin="round"/>
    <path d="M 305.5361633300781 324.7469177246094 C 234.0826416015625 440.7397766113281 210.29556274414062 462.55487060546875 203.11898803710938 319.3730773925781 C 69.90161895751953 300.30413818359375 3.3030221462249756 362.86328125 10.591814994812012 177.98681640625 C 29.291475296020508 184.41744995117188 36.33740234375 172.3686981201172 104.31437683105469 101.73082733154297 C 259.6436462402344 111.14947509765625 291.9060974121094 118.35415649414062 305.5361633300781 324.7469177246094" stroke-width="0.0" fill="rgb(255, 255, 161)" opacity="0.6334713" stroke="rgb(0, 0, 0)" stroke-opacity="1.0" stroke-linecap="round" stroke-linejoin="round"/>
    <path d="M 277.4366760253906 27.557823181152344 C 267.00909423828125 199.1404571533203 218.99562072753906 158.85824584960938 18.410493850708008 184.95021057128906 C -64.83416748046875 203.27813720703125 -58.426048278808594 190.98780822753906 -42.1197395324707 62.401058197021484 C -14.989005088806152 -15.722881317138672 -7.218327522277832 -19.66063117980957 82.64743041992188 -39.1148567199707 C 196.99459838867188 -34.1014404296875 217.5990753173828 -37.2800178527832 277.4366760253906 27.557823181152344" stroke-width="0.0" fill="rgb(111, 2, 170)" opacity="0.9279695" stroke="rgb(0, 0, 0)" stroke-opacity="1.0" stroke-linecap="round" stroke-linejoin="round"/>
    <path d="M 531.0411987304688 47.79334259033203 C 442.9111633300781 289.2738037109375 452.7995910644531 303.8557434082031 401.369140625 321.8873596191406 C 262.258056640625 329.3097229003906 260.45281982421875 383.4437255859375 284.6890563964844 224.88571166992188 C 247.95217895507812 26.77695655822754 199.2307586669922 -5.794231414794922 313.72613525390625 -53.308349609375 C 563.2000122070312 -6.244815349578857 563.2000122070312 4.452378749847412 531.0411987304688 47.79334259033203" stroke-width="0.0" fill="rgb(127, 6, 177)" opacity="0.99394244" stroke="rgb(0, 0, 0)" stroke-opacity="1.0" stroke-linecap="round" stroke-linejoin="round"/>
    <path d="M 500.0092468261719 334.759521484375 C 502.216552734375 419.0326843261719 504.48828125 508.5931701660156 289.69671630859375 556.7774047851562 C 109.65654754638672 501.88726806640625 163.6162109375 506.5055236816406 244.3278350830078 463.0269775390625 C 241.967529296875 236.37049865722656 303.0935974121094 247.06704711914062 331.83660888671875 302.5313720703125 C 395.5057373046875 313.7155456542969 458.521484375 293.07452392578125 500.0092468261719 334.759521484375" stroke-width="0.0" fill="rgb(66, 43, 146)" opacity="0.98917603" stroke="rgb(0, 0, 0)" stroke-opacity="1.0" stroke-linecap="round" stroke-linejoin="round"/>
    <path d="M 545.1226196289062 212.2256622314453 C 560.3777465820312 331.64959716796875 557.7926025390625 348.5774230957031 477.0585632324219 334.7160949707031 C 376.8218994140625 329.3924255371094 419.50164794921875 338.9498596191406 409.4251403808594 237.3976287841797 C 416.05938720703125 108.15006256103516 377.1709289550781 123.0042724609375 521.5940551757812 62.889984130859375 C 558.6956787109375 72.39765167236328 563.6185913085938 115.6105728149414 545.1226196289062 212.2256622314453" stroke-width="0.0" fill="rgb(255, 22, 84)" opacity="1.0" stroke="rgb(0, 0, 0)" stroke-opacity="1.0" stroke-linecap="round" stroke-linejoin="round"/>
    <path d="M 237.24923706054688 287.1083679199219 C 252.35972595214844 311.6143798828125 278.74420166015625 321.0798034667969 233.81236267089844 353.14202880859375 C 249.65463256835938 315.1529846191406 219.5270233154297 345.36083984375 161.07962036132812 291.08099365234375 C 163.9967498779297 199.29290771484375 167.5316162109375 201.68072509765625 245.8162384033203 182.14283752441406 C 244.1553497314453 199.79661560058594 223.42379760742188 240.3941650390625 237.24923706054688 287.1083679199219" stroke-width="0.0" fill="rgb(196, 211, 59)" opacity="0.035993766" stroke="rgb(0, 0, 0)" stroke-opacity="1.0" stroke-linecap="round" stroke-linejoin="round"/>
    <path d="M 302.1440734863281 82.83647155761719 C 282.657958984375 115.97543334960938 255.86721801757812 112.23591613769531 228.05599975585938 116.02359008789062 C 228.00831604003906 113.02786254882812 224.74520874023438 116.66857147216797 199.53199768066406 83.90206146240234 C 205.47918701171875 105.13563537597656 210.03038024902344 81.44341278076172 232.64845275878906 108.99604797363281 C 254.41065979003906 119.34754943847656 303.2030944824219 84.20576477050781 302.1440734863281 82.83647155761719" stroke-width="0.0" fill="rgb(184, 185, 251)" opacity="0.7161477" stroke="rgb(0, 0, 0)" stroke-opacity="1.0" stroke-linecap="round" stroke-linejoin="round"/>
    <path d="M 210.34149169921875 320.6250915527344 C 193.951904296875 479.92205810546875 229.4134063720703 475.7364807128906 188.3700408935547 462.33258056640625 C 197.2122344970703 399.6615905761719 207.00625610351562 350.5415344238281 190.7292022705078 266.4013977050781 C 203.1416778564453 282.6437683105469 176.3858184814453 306.9688415527344 225.17388916015625 321.6474304199219 C 207.42550659179688 365.3893737792969 181.63717651367188 344.6016845703125 210.34149169921875 320.6250915527344" stroke-width="0.0" fill="rgb(223, 237, 183)" opacity="0.93373877" stroke="rgb(0, 0, 0)" stroke-opacity="1.0" stroke-linecap="round" stroke-linejoin="round"/>
    <path d="M 254.83599853515625 194.12852478027344 C 245.375 300.0381774902344 239.26022338867188 363.4061279296875 221.43942260742188 312.77880859375 C 142.674072265625 324.71942138671875 265.2163391113281 346.5128173828125 218.56259155273438 274.1390380859375 C 56.285858154296875 134.6811981201172 0.49982258677482605 116.24699401855469 219.8406982421875 47.3210563659668 C 145.75051879882812 177.84642028808594 214.3596954345703 86.01959991455078 254.83599853515625 194.12852478027344" stroke-width="0.0" fill="rgb(255, 255, 188)" opacity="0.9975239" stroke="rgb(0, 0, 0)" stroke-opacity="1.0" stroke-linecap="round" stroke-linejoin="round"/>
    <path d="M 218.84197998046875 221.21331787109375 C 72.18934631347656 198.5630340576172 48.58651351928711 219.7705535888672 59.26639938354492 278.7837829589844 C 102.2350845336914 400.2323303222656 98.301513671875 385.9053649902344 -10.397911071777344 280.30743408203125 C -87.35330200195312 63.44259262084961 -54.95222473144531 110.99111938476562 162.57571411132812 75.3287582397461 C 239.65834045410156 125.97567749023438 253.74386596679688 173.7234344482422 218.84197998046875 221.21331787109375" stroke-width="0.0" fill="rgb(0, 9, 131)" opacity="1.0" stroke="rgb(0, 0, 0)" stroke-opacity="1.0" stroke-linecap="round" stroke-linejoin="round"/>
    <path d="M 244.5054931640625 38.11952209472656 C 257.6520690917969 106.03925323486328 253.67579650878906 119.84125518798828 237.2149200439453 171.5537872314453 C 203.6006317138672 164.66360473632812 129.75425720214844 144.28265380859375 69.31614685058594 44.907981872558594 C 71.56785583496094 -49.24413299560547 69.0234146118164 -59.25539779663086 179.9671173095703 -18.240673065185547 C 178.5480194091797 6.948834419250488 166.73611450195312 26.70413589477539 244.5054931640625 38.11952209472656" stroke-width="0.0" fill="rgb(96, 0, 197)" opacity="1.0" stroke="rgb(0, 0, 0)" stroke-opacity="1.0" stroke-linecap="round" stroke-linejoin="round"/>
    <path d="M 288.4112243652344 132.5951690673828 C 289.82061767578125 202.36163330078125 299.9222106933594 242.54295349121094 241.0400390625 222.7581787109375 C 187.02389526367188 195.19308471679688 299.0245666503906 170.5301971435547 248.47320556640625 115.0638427734375 C 280.6773986816406 69.82919311523438 319.2497863769531 104.47361755371094 324.5849609375 142.5980682373047 C 289.7814636230469 188.10531616210938 213.8082275390625 125.94881439208984 288.4112243652344 132.5951690673828" stroke-width="0.0" fill="rgb(255, 255, 184)" opacity="0.9778597" stroke="rgb(0, 0, 0)" stroke-opacity="1.0" stroke-linecap="round" stroke-linejoin="round"/>
    <path d="M 82.63667297363281 287.6604309082031 C 75.94741821289062 316.3196716308594 135.9724884033203 332.2965393066406 86.78589630126953 382.6510314941406 C 75.79772186279297 378.77490234375 65.42949676513672 354.1299133300781 75.5634765625 296.9488525390625 C 103.48269653320312 317.9479064941406 87.4339370727539 332.5354919433594 79.87677764892578 311.26214599609375 C 76.93765258789062 339.1009521484375 45.726444244384766 275.78472900390625 82.63667297363281 287.6604309082031" stroke-width="0.0" fill="rgb(243, 253, 59)" opacity="0.9413441" stroke="rgb(0, 0, 0)" stroke-opacity="1.0" stroke-linecap="round" stroke-linejoin="round"/>
    <path d="M 224.25645446777344 69.7326431274414 C 255.32327270507812 138.74969482421875 210.12142944335938 133.4685821533203 230.10165405273438 139.7548828125 C 241.85011291503906 35.4130859375 239.8865509033203 136.48866271972656 212.79232788085938 85.6678466796875 C 251.38772583007812 132.91268920898438 228.086669921875 64.30534362792969 208.6021728515625 55.43852996826172 C 193.0029754638672 42.348270416259766 218.11123657226562 50.521324157714844 224.25645446777344 69.7326431274414" stroke-width="0.0" fill="rgb(68, 10, 170)" opacity="0.38015047" stroke="rgb(0, 0, 0)" stroke-opacity="1.0" stroke-linecap="round" stroke-linejoin="round"/>
    <path d="M 294.6355285644531 461.6023864746094 C 260.41357421875 461.0857849121094 228.60757446289062 461.9657897949219 246.09571838378906 463.0706787109375 C 246.5858917236328 436.4995422363281 245.18112182617188 455.26702880859375 194.4349822998047 453.7981872558594 C 201.7396697998047 269.5025939941406 213.7423095703125 305.3328552246094 210.07711791992188 453.3088073730469 C 285.73272705078125 454.5376892089844 269.4123229980469 459.1501159667969 294.6355285644531 461.6023864746094" stroke-width="0.0" fill="rgb(175, 190, 171)" opacity="0.5520491" stroke="rgb(0, 0, 0)" stroke-opacity="1.0" stroke-linecap="round" stroke-linejoin="round"/>
    <path d="M 163.34991455078125 277.6166687011719 C 141.8040008544922 272.2139892578125 125.90318298339844 305.03472900390625 172.90147399902344 320.1489562988281 C 230.53106689453125 255.49386596679688 221.15353393554688 250.4385528564453 82.42659759521484 279.146484375 C 128.47972106933594 332.9315185546875 158.32138061523438 350.8926696777344 167.70176696777344 297.6914367675781 C 143.4912872314453 272.90435791015625 139.8228759765625 283.5102233886719 163.34991455078125 277.6166687011719" stroke-width="0.0" fill="rgb(195, 255, 243)" opacity="1.0" stroke="rgb(0, 0, 0)" stroke-opacity="1.0" stroke-linecap="round" stroke-linejoin="round"/>
    <path d="M 218.32855224609375 102.8857192993164 C 229.8818359375 108.87203216552734 231.84701538085938 136.27305603027344 218.2331085205078 152.1114501953125 C 181.72369384765625 141.8170928955078 201.34356689453125 156.85740661621094 229.8102569580078 120.1015853881836 C 193.5579376220703 68.12696838378906 176.607666015625 18.694395065307617 183.9098663330078 75.64685821533203 C 201.0695037841797 80.44139862060547 226.37152099609375 110.98450469970703 218.32855224609375 102.8857192993164" stroke-width="0.0" fill="rgb(172, 39, 212)" opacity="0.40057644" stroke="rgb(0, 0, 0)" stroke-opacity="1.0" stroke-linecap="round" stroke-linejoin="round"/>
    <path d="M 395.9106140136719 319.9568176269531 C 391.0859680175781 334.5108642578125 391.1867370605469 320.0033264160156 319.65313720703125 323.8980407714844 C 263.3861389160156 312.7860412597656 289.260009765625 356.4173583984375 285.760498046875 215.89239501953125 C 280.5713195800781 209.01821899414062 300.1950378417969 213.83047485351562 352.4006042480469 239.6841278076172 C 386.3891906738281 241.09942626953125 398.9009094238281 240.2188720703125 395.9106140136719 319.9568176269531" stroke-width="0.0" fill="rgb(226, 0, 115)" opacity="0.90314096" stroke="rgb(0, 0, 0)" stroke-opacity="1.0" stroke-linecap="round" stroke-linejoin="round"/>
    <path d="M 139.8311004638672 290.1914367675781 C 147.03790283203125 309.37847900390625 145.86944580078125 312.9872131347656 151.99832153320312 271.3587646484375 C 163.3424072265625 277.60400390625 143.1249542236328 285.9670715332031 172.3002471923828 271.35150146484375 C 213.65554809570312 282.2441101074219 209.75363159179688 308.28173828125 228.4676971435547 200.2114715576172 C 233.99522399902344 236.4185028076172 183.2705078125 227.3440704345703 139.8311004638672 290.1914367675781" stroke-width="0.0" fill="rgb(195, 255, 249)" opacity="0.6594224" stroke="rgb(0, 0, 0)" stroke-opacity="1.0" stroke-linecap="round" stroke-linejoin="round"/>
    <path d="M 199.1425018310547 51.176029205322266 C 202.03353881835938 111.60070037841797 222.15293884277344 133.27981567382812 209.50363159179688 108.38587951660156 C 195.46368408203125 81.92462921142578 176.75209045410156 70.12871551513672 143.34918212890625 78.38330078125 C 166.76234436035156 137.40066528320312 183.6858367919922 69.49931335449219 161.2158966064453 87.7763671875 C 180.12962341308594 81.01067352294922 176.18496704101562 76.9612045288086 199.1425018310547 51.176029205322266" stroke-width="0.0" fill="rgb(255, 181, 67)" opacity="0.89521915" stroke="rgb(0, 0, 0)" stroke-opacity="1.0" stroke-linecap="round" stroke-linejoin="round"/>
    <path d="M 297.8797302246094 444.01953125 C 259.4341125488281 447.5472717285156 280.2476501464844 451.1471252441406 261.245361328125 487.06591796875 C 205.6099853515625 483.4985046386719 232.76339721679688 478.4564208984375 196.99749755859375 473.38714599609375 C 207.39808654785156 404.8288269042969 232.40066528320312 458.7520446777344 246.2625274658203 460.343994140625 C 243.71810913085938 454.6674499511719 268.7440185546875 461.6437072753906 297.8797302246094 444.01953125" stroke-width="0.0" fill="rgb(0, 0, 151)" opacity="1.0" stroke="rgb(0, 0, 0)" stroke-opacity="1.0" stroke-linecap="round" stroke-linejoin="round"/>
    <path d="M 376.2658996582031 227.25843811035156 C 389.5171203613281 238.8612060546875 353.4664001464844 230.01663208007812 317.0631103515625 214.73573303222656 C 303.6530456542969 244.8311309814453 301.0142517089844 251.9512939453125 282.8439025878906 233.8705291748047 C 269.1474914550781 234.4576873779297 301.86767578125 225.81710815429688 343.0577697753906 227.79957580566406 C 373.8259582519531 220.57614135742188 361.4582824707031 225.9141845703125 376.2658996582031 227.25843811035156" stroke-width="0.0" fill="rgb(141, 32, 174)" opacity="0.087533586" stroke="rgb(0, 0, 0)" stroke-opacity="1.0" stroke-linecap="round" stroke-linejoin="round"/>
    <path d="M 158.79100036621094 129.32627868652344 C 147.67359924316406 149.83294677734375 154.04159545898438 159.79354858398438 163.11000061035156 151.89398193359375 C 122.33036804199219 137.3724365234375 116.28717041015625 112.17072296142578 131.8802032470703 125.35616302490234 C 139.17056274414062 78.9824447631836 113.08599853515625 77.53177642822266 75.02613830566406 97.2890396118164 C 127.30366516113281 117.20929718017578 162.44888305664062 127.0291748046875 158.79100036621094 129.32627868652344" stroke-width="0.0" fill="rgb(254, 130, 147)" opacity="0.709284" stroke="rgb(0, 0, 0)" stroke-opacity="1.0" stroke-linecap="round" stroke-linejoin="round"/>
    <path d="M 105.262451171875 334.1172180175781 C 97.40592193603516 359.0169982910156 90.16961669921875 364.9320983886719 91.00259399414062 405.83538818359375 C 53.400447845458984 415.6411437988281 51.05588912963867 349.6096496582031 70.29475402832031 329.73016357421875 C 91.62213897705078 318.927001953125 42.293006896972656 323.1986083984375 100.90471649169922 328.2488098144531 C 122.8139877319336 280.6005554199219 117.70571899414062 310.75799560546875 105.262451171875 334.1172180175781" stroke-width="0.0" fill="rgb(251, 255, 162)" opacity="1.0" stroke="rgb(0, 0, 0)" stroke-opacity="1.0" stroke-linecap="round" stroke-linejoin="round"/>
    <path d="M 82.92848205566406 397.1492614746094 C 89.6471176147461 465.7786865234375 92.10289001464844 457.0203552246094 76.71637725830078 446.5891418457031 C 88.1253662109375 441.324462890625 89.32418823242188 470.4555358886719 78.99274444580078 457.97412109375 C 72.80050659179688 423.4540100097656 66.41352081298828 417.7466735839844 61.13022994995117 375.6683044433594 C 98.94330596923828 345.92449951171875 95.53630828857422 363.9707336425781 82.92848205566406 397.1492614746094" stroke-width="0.0" fill="rgb(255, 255, 190)" opacity="1.0" stroke="rgb(0, 0, 0)" stroke-opacity="1.0" stroke-linecap="round" stroke-linejoin="round"/>
    <path d="M 133.02577209472656 115.48771667480469 C 136.50738525390625 125.09275817871094 122.36883544921875 107.93109130859375 139.3097381591797 107.26363372802734 C 125.35208892822266 115.19802856445312 105.75493621826172 140.3086395263672 100.41021728515625 109.4283218383789 C 85.32962036132812 110.54010772705078 89.81623077392578 130.00531005859375 119.67284393310547 131.61036682128906 C 77.32051086425781 89.50456237792969 101.51146697998047 93.50361633300781 133.02577209472656 115.48771667480469" stroke-width="0.0" fill="rgb(6, 10, 145)" opacity="0.62731576" stroke="rgb(0, 0, 0)" stroke-opacity="1.0" stroke-linecap="round" stroke-linejoin="round"/>
    <path d="M 87.46011352539062 117.33035278320312 C 83.13641357421875 120.26824951171875 68.08570098876953 116.88695526123047 56.78164291381836 125.90463256835938 C 30.39632797241211 119.28083801269531 32.980472564697266 116.47867584228516 40.82612609863281 121.73230743408203 C 36.60279846191406 135.39505004882812 40.51344299316406 118.06584167480469 36.12596893310547 118.60651397705078 C 56.4443359375 102.55648803710938 61.15202713012695 107.60082244873047 87.46011352539062 117.33035278320312" stroke-width="0.0" fill="rgb(11, 12, 134)" opacity="0.02042097" stroke="rgb(0, 0, 0)" stroke-opacity="1.0" stroke-linecap="round" stroke-linejoin="round"/>
    <path d="M 65.50390625 284.4218444824219 C 48.524383544921875 337.0201110839844 44.66353988647461 329.0332336425781 38.18808364868164 318.2178649902344 C 30.94942283630371 330.1351623535156 25.082124710083008 331.01849365234375 35.23819351196289 315.69195556640625 C 28.43083381652832 320.05621337890625 18.774648666381836 319.7630615234375 43.00143814086914 323.472412109375 C 36.21855545043945 310.09283447265625 62.40909194946289 326.7115478515625 65.50390625 284.4218444824219" stroke-width="0.0" fill="rgb(10, 26, 141)" opacity="0.23839399" stroke="rgb(0, 0, 0)" stroke-opacity="1.0" stroke-linecap="round" stroke-linejoin="round"/>
    <path d="M 362.3775634765625 251.58172607421875 C 360.44171142578125 314.9178466796875 391.47515869140625 304.3287658691406 375.46331787109375 321.13848876953125 C 380.84375 248.11370849609375 389.6445617675781 252.31968688964844 368.2828063964844 243.3000946044922 C 364.615478515625 186.8824920654297 368.717041015625 150.46981811523438 371.83111572265625 162.61599731445312 C 365.763671875 188.80198669433594 380.3110656738281 207.7084503173828 362.3775634765625 251.58172607421875" stroke-width="0.0" fill="rgb(255, 107, 12)" opacity="0.75049484" stroke="rgb(0, 0, 0)" stroke-opacity="1.0" stroke-linecap="round" stroke-linejoin="round"/>
    <path d="M 212.9263153076172 243.02960205078125 C 216.36907958984375 282.8346862792969 212.0189208984375 284.2100830078125 188.23939514160156 285.5884094238281 C 180.43138122558594 280.1131286621094 195.507080078125 272.692138671875 211.30087280273438 259.4577331542969 C 216.9878692626953 270.9041442871094 222.50193786621094 252.80746459960938 205.9865264892578 267.6089172363281 C 179.6684112548828 249.1097412109375 170.58836364746094 245.8035430908203 212.9263153076172 243.02960205078125" stroke-width="0.0" fill="rgb(79, 231, 179)" opacity="0.34715256" stroke="rgb(0, 0, 0)" stroke-opacity="1.0" stroke-linecap="round" stroke-linejoin="round"/>
    <path d="M 203.0448455810547 254.32647705078125 C 173.5948028564453 254.4833984375 192.64393615722656 269.24871826171875 234.8120574951172 253.54934692382812 C 189.76649475097656 267.87554931640625 189.45318603515625 282.35479736328125 200.83680725097656 259.3575744628906 C 204.7698211669922 237.8944854736328 196.47946166992188 235.08258056640625 183.36770629882812 212.42141723632812 C 172.4710693359375 228.22364807128906 165.65576171875 219.8115234375 203.0448455810547 254.32647705078125" stroke-width="0.0" fill="rgb(81, 184, 104)" opacity="0.0" stroke="rgb(0, 0, 0)" stroke-opacity="1.0" stroke-linecap="round" stroke-linejoin="round"/>
    <path d="M 159.49172973632812 333.49920654296875 C 149.1652069091797 315.7557678222656 156.02651977539062 321.86297607421875 158.43475341796875 383.2540283203125 C 168.96041870117188 330.42852783203125 163.19224548339844 301.4720764160156 155.6429443359375 341.2744140625 C 166.43771362304688 321.76422119140625 158.56805419921875 304.0321044921875 160.176513671875 325.9964294433594 C 164.95738220214844 333.33380126953125 176.9664306640625 344.6925964355469 159.49172973632812 333.49920654296875" stroke-width="0.0" fill="rgb(120, 76, 169)" opacity="0.0" stroke="rgb(0, 0, 0)" stroke-opacity="1.0" stroke-linecap="round" stroke-linejoin="round"/>
    <path d="M 90.03623962402344 145.48658752441406 C 142.70278930664062 191.72122192382812 131.88409423828125 159.32583618164062 114.71588134765625 132.28842163085938 C 125.61505889892578 146.21847534179688 114.340087890625 139.17958068847656 92.00411987304688 121.12725830078125 C 95.29753875732422 140.63026428222656 73.52882385253906 97.83026123046875 81.7281265258789 80.34783935546875 C 124.49291229248047 75.4344253540039 113.36491394042969 83.49061584472656 90.03623962402344 145.48658752441406" stroke-width="0.0" fill="rgb(62, 39, 85)" opacity="0.24444172" stroke="rgb(0, 0, 0)" stroke-opacity="1.0" stroke-linecap="round" stroke-linejoin="round"/>
    <path d="M 63.40891647338867 152.63485717773438 C 17.1748046875 158.29127502441406 -12.756268501281738 161.05230712890625 -16.88884925842285 134.58929443359375 C 1.9830513000488281 139.60452270507812 -16.20662498474121 139.55686950683594 -42.947959899902344 141.7587890625 C -9.100997924804688 114.70023345947266 1.563239574432373 121.76526641845703 47.260746002197266 107.47224426269531 C 23.232210159301758 125.25963592529297 32.10639190673828 129.75927734375 63.40891647338867 152.63485717773438" stroke-width="0.0" fill="rgb(0, 34, 173)" opacity="0.009823787" stroke="rgb(0, 0, 0)" stroke-opacity="1.0" stroke-linecap="round" stroke-linejoin="round"/>
    <path d="M 91.22142028808594 165.4537811279297 C 116.8033676147461 146.09811401367188 112.13739776611328 164.2810821533203 79.51923370361328 154.4156951904297 C 77.81300354003906 164.441162109375 83.08063507080078 166.65310668945312 105.93617248535156 158.31472778320312 C 127.63103485107422 136.8856964111328 122.12503051757812 116.7909164428711 102.21687316894531 105.3233642578125 C 68.7724838256836 90.57057189941406 79.89065551757812 149.7338409423828 91.22142028808594 165.4537811279297" stroke-width="0.0" fill="rgb(9, 13, 90)" opacity="0.23500688" stroke="rgb(0, 0, 0)" stroke-opacity="1.0" stroke-linecap="round" stroke-linejoin="round"/>
    <path d="M 411.5325012207031 216.08299255371094 C 347.98321533203125 197.04916381835938 366.2477722167969 225.86795043945312 348.4035949707031 244.1437530517578 C 363.1165771484375 202.2078399658203 377.8546447753906 206.84523010253906 360.6640625 215.57583618164062 C 353.18048095703125 215.95660400390625 350.0409240722656 190.69053649902344 360.6429138183594 159.20420837402344 C 374.3425598144531 164.73863220214844 408.93621826171875 167.549072265625 411.5325012207031 216.08299255371094" stroke-width="0.0" fill="rgb(219, 167, 106)" opacity="0.75111544" stroke="rgb(0, 0, 0)" stroke-opacity="1.0" stroke-linecap="round" stroke-linejoin="round"/>
    <path d="M 294.9188537597656 163.94699096679688 C 301.423583984375 162.2079315185547 290.30914306640625 190.10220336914062 275.1826477050781 189.2024383544922 C 252.8083038330078 188.76409912109375 231.15769958496094 165.59767150878906 283.6248779296875 178.2393798828125 C 288.60589599609375 173.28976440429688 273.0863342285156 178.73291015625 297.4036865234375 169.70945739746094 C 309.6647644042969 149.99285888671875 285.86358642578125 161.43017578125 294.9188537597656 163.94699096679688" stroke-width="0.0" fill="rgb(89, 88, 117)" opacity="0.4390925" stroke="rgb(0, 0, 0)" stroke-opacity="1.0" stroke-linecap="round" stroke-linejoin="round"/>
    <path d="M 177.61175537109375 28.161741256713867 C 219.308837890625 48.610355377197266 196.3601531982422 49.466060638427734 171.4105987548828 42.14155578613281 C 133.78439331054688 53.8093147277832 142.33375549316406 28.576770782470703 150.40428161621094 46.704193115234375 C 145.56195068359375 40.0740852355957 145.21817016601562 38.479339599609375 142.29473876953125 47.955841064453125 C 146.66087341308594 42.558738708496094 147.65032958984375 47.91996383666992 177.61175537109375 28.161741256713867" stroke-width="0.0" fill="rgb(255, 49, 0)" opacity="0.69297874" stroke="rgb(0, 0, 0)" stroke-opacity="1.0" stroke-linecap="round" stroke-linejoin="round"/>
    <path d="M 50.19719696044922 337.81207275390625 C 43.443241119384766 325.2811279296875 48.1782341003418 351.30706787109375 32.30624008178711 342.7891540527344 C 29.72065544128418 325.42669677734375 22.50604820251465 318.75775146484375 -1.7295889854431152 313.65789794921875 C -8.987813949584961 291.39276123046875 -13.397109031677246 284.0099182128906 46.1966667175293 294.09979248046875 C 42.447479248046875 281.2713928222656 50.264076232910156 315.35516357421875 50.19719696044922 337.81207275390625" stroke-width="0.0" fill="rgb(0, 7, 148)" opacity="0.57104456" stroke="rgb(0, 0, 0)" stroke-opacity="1.0" stroke-linecap="round" stroke-linejoin="round"/>
    <path d="M 246.5441131591797 89.13856506347656 C 251.08853149414062 70.04517364501953 248.85140991210938 68.4622802734375 222.1515350341797 84.38256072998047 C 226.17884826660156 47.42470932006836 229.45826721191406 42.22799301147461 229.5409393310547 45.93709945678711 C 252.70594787597656 51.408634185791016 279.492431640625 43.48487854003906 262.84783935546875 19.84702491760254 C 245.80618286132812 52.20225143432617 271.5028076171875 57.046607971191406 246.5441131591797 89.13856506347656" stroke-width="0.0" fill="rgb(25, 81, 125)" opacity="0.0011874192" stroke="rgb(0, 0, 0)" stroke-opacity="1.0" stroke-linecap="round" stroke-linejoin="round"/>
    <path d="M 107.83942413330078 316.4007873535156 C 96.53166198730469 328.8157958984375 105.71582794189453 359.9762268066406 83.32462310791016 365.1364440917969 C 87.93877410888672 404.26959228515625 100.74163055419922 378.628173828125 93.8573989868164 312.5398864746094 C 119.83980560302734 323.4861755371094 109.35482788085938 322.10125732421875 93.75775146484375 304.8847351074219 C 113.04518127441406 287.9564208984375 120.05960083007812 304.64398193359375 107.83942413330078 316.4007873535156" stroke-width="0.0" fill="rgb(178, 227, 203)" opacity="0.5605507" stroke="rgb(0, 0, 0)" stroke-opacity="1.0" stroke-linecap="round" stroke-linejoin="round"/>
    <path d="M 182.4068145751953 399.42340087890625 C 191.80340576171875 428.7237548828125 213.6174774169922 403.12078857421875 190.5680694580078 392.3162536621094 C 187.86317443847656 412.191650390625 197.1663360595703 399.5975646972656 211.6466827392578 373.5791320800781 C 180.89627075195312 372.81256103515625 184.81944274902344 357.9119567871094 223.1128692626953 367.36376953125 C 209.03294372558594 377.3091125488281 211.5293426513672 399.58660888671875 182.4068145751953 399.42340087890625" stroke-width="0.0" fill="rgb(252, 145, 60)" opacity="0.0" stroke="rgb(0, 0, 0)" stroke-opacity="1.0" stroke-linecap="round" stroke-linejoin="round"/>
    <path d="M 39.959327697753906 204.1693878173828 C 27.858272552490234 198.9532012939453 32.40281677246094 223.9289093017578 57.30815887451172 183.13626098632812 C 53.46199417114258 166.21315002441406 34.28046417236328 158.4484405517578 42.570316314697266 212.76426696777344 C 62.696346282958984 225.68194580078125 47.57310104370117 210.85549926757812 18.081823348999023 202.30435180664062 C 54.20122528076172 184.4268798828125 47.941410064697266 191.79473876953125 39.959327697753906 204.1693878173828" stroke-width="0.0" fill="rgb(0, 0, 117)" opacity="0.010808494" stroke="rgb(0, 0, 0)" stroke-opacity="1.0" stroke-linecap="round" stroke-linejoin="round"/>
    <path d="M 441.8622131347656 312.17279052734375 C 443.7594299316406 349.35687255859375 434.38421630859375 363.2686767578125 440.73175048828125 312.2271423339844 C 429.1059875488281 318.9977111816406 422.3414611816406 292.708740234375 413.0391540527344 274.8321228027344 C 402.90875244140625 276.1917724609375 409.91455078125 262.32373046875 443.288818359375 256.5762634277344 C 452.36480712890625 285.9226379394531 475.301513671875 298.21484375 441.8622131347656 312.17279052734375" stroke-width="0.0" fill="rgb(171, 28, 106)" opacity="0.041476954" stroke="rgb(0, 0, 0)" stroke-opacity="1.0" stroke-linecap="round" stroke-linejoin="round"/>
    <path d="M 6.708948135375977 129.23631286621094 C 27.654367446899414 172.4312286376953 37.31270980834961 156.2557373046875 29.91651153564453 104.21690368652344 C 14.15422248840332 144.99920654296875 22.286439895629883 143.89645385742188 -1.8969999551773071 128.30157470703125 C 13.210702896118164 110.48321533203125 30.720651626586914 88.94679260253906 52.71013641357422 106.23356628417969 C 15.55661678314209 141.33026123046875 40.765323638916016 135.83685302734375 6.708948135375977 129.23631286621094" stroke-width="0.0" fill="rgb(0, 13, 168)" opacity="0.0" stroke="rgb(0, 0, 0)" stroke-opacity="1.0" stroke-linecap="round" stroke-linejoin="round"/>
    <path d="M 540.6586303710938 267.4524841308594 C 520.0533447265625 252.850830078125 518.7450561523438 256.7882385253906 541.492919921875 243.412353515625 C 510.15106201171875 248.5365447998047 490.8197326660156 234.0825958251953 507.2508239746094 230.90438842773438 C 517.4410400390625 207.42324829101562 500.2647705078125 229.21519470214844 509.2199401855469 266.9679870605469 C 495.87200927734375 255.83685302734375 531.9396362304688 255.94619750976562 540.6586303710938 267.4524841308594" stroke-width="0.0" fill="rgb(135, 3, 61)" opacity="0.029788079" stroke="rgb(0, 0, 0)" stroke-opacity="1.0" stroke-linecap="round" stroke-linejoin="round"/>
    <path d="M 260.6857604980469 140.3390350341797 C 235.94473266601562 113.06912994384766 275.0267639160156 112.80583190917969 259.1267395019531 160.2066192626953 C 236.177490234375 167.3607940673828 233.36380004882812 163.4156036376953 253.338623046875 116.93672180175781 C 260.45672607421875 99.4844741821289 236.80870056152344 79.7490463256836 241.22195434570312 45.5756950378418 C 265.3445129394531 47.60689926147461 265.3218078613281 103.4841537475586 260.6857604980469 140.3390350341797" stroke-width="0.0" fill="rgb(254, 254, 185)" opacity="1.0" stroke="rgb(0, 0, 0)" stroke-opacity="1.0" stroke-linecap="round" stroke-linejoin="round"/>
    <path d="M 424.0929870605469 280.294677734375 C 421.7633056640625 298.452392578125 413.7793273925781 286.798095703125 439.2225036621094 292.1874084472656 C 430.6917724609375 280.3175964355469 416.510986328125 271.2135925292969 415.78973388671875 270.2256774902344 C 425.39813232421875 284.03277587890625 426.37005615234375 247.3365936279297 440.6290588378906 255.41831970214844 C 415.8374938964844 265.0024719238281 418.53814697265625 253.91949462890625 424.0929870605469 280.294677734375" stroke-width="0.0" fill="rgb(85, 54, 93)" opacity="0.0" stroke="rgb(0, 0, 0)" stroke-opacity="1.0" stroke-linecap="round" stroke-linejoin="round"/>
    <path d="M 533.5142211914062 140.16754150390625 C 516.134765625 145.30616760253906 516.9041137695312 158.78749084472656 498.2389221191406 211.87374877929688 C 494.2508239746094 191.85926818847656 486.7544250488281 134.479736328125 488.8598327636719 103.79431915283203 C 498.6580505371094 158.9720001220703 515.9758911132812 126.638671875 515.248779296875 98.82501983642578 C 524.7376098632812 98.99816131591797 548.7860107421875 106.92523956298828 533.5142211914062 140.16754150390625" stroke-width="0.0" fill="rgb(208, 20, 34)" opacity="0.0005271499" stroke="rgb(0, 0, 0)" stroke-opacity="1.0" stroke-linecap="round" stroke-linejoin="round"/>
    <path d="M 480.837158203125 175.5063934326172 C 481.4925537109375 147.5609588623047 469.1973571777344 155.56455993652344 468.5058898925781 175.86904907226562 C 499.031005859375 161.25836181640625 489.0307922363281 144.44674682617188 509.2869567871094 136.6132049560547 C 517.2870483398438 165.50177001953125 538.02685546875 181.05479431152344 528.8768920898438 172.5977325439453 C 519.2803344726562 149.1575164794922 543.4700927734375 160.11489868164062 480.837158203125 175.5063934326172" stroke-width="0.0" fill="rgb(170, 9, 130)" opacity="0.0" stroke="rgb(0, 0, 0)" stroke-opacity="1.0" stroke-linecap="round" stroke-linejoin="round"/>
    <path d="M 47.20610046386719 332.48846435546875 C 52.286216735839844 348.5326232910156 45.04194641113281 366.844482421875 69.89427185058594 329.6363220214844 C 61.98500061035156 322.22772216796875 50.85185241699219 341.6993103027344 56.19801712036133 351.6229553222656 C 18.60614776611328 333.2330627441406 31.297893524169922 330.14349365234375 51.06674575805664 356.82684326171875 C 60.83076858520508 302.8331604003906 57.40013122558594 308.5466003417969 47.20610046386719 332.48846435546875" stroke-width="0.0" fill="rgb(21, 14, 108)" opacity="0.14466552" stroke="rgb(0, 0, 0)" stroke-opacity="1.0" stroke-linecap="round" stroke-linejoin="round"/>
    <path d="M 328.54351806640625 256.27069091796875 C 343.3281555175781 251.8030242919922 329.5857238769531 231.5937957763672 310.53741455078125 218.54925537109375 C 252.1795654296875 224.9246368408203 293.26397705078125 218.47503662109375 318.3698425292969 244.3480224609375 C 301.4518127441406 247.7753143310547 319.017822265625 270.5347595214844 306.8320617675781 266.56195068359375 C 314.4704284667969 243.2676544189453 334.86163330078125 264.4512939453125 328.54351806640625 256.27069091796875" stroke-width="0.0" fill="rgb(244, 6, 96)" opacity="0.18220888" stroke="rgb(0, 0, 0)" stroke-opacity="1.0" stroke-linecap="round" stroke-linejoin="round"/>
    <path d="M 517.2096557617188 95.96955108642578 C 425.3558349609375 66.74772644042969 414.98919677734375 66.18231964111328 507.5091552734375 104.29326629638672 C 512.8970947265625 192.53964233398438 472.1878967285156 201.67782592773438 447.5326232910156 176.10482788085938 C 444.55657958984375 137.4365692138672 466.0043640136719 161.45559692382812 507.9570007324219 155.28765869140625 C 499.15374755859375 117.45374298095703 511.7665710449219 131.87533569335938 517.2096557617188 95.96955108642578" stroke-width="0.0" fill="rgb(251, 13, 79)" opacity="0.0885999" stroke="rgb(0, 0, 0)" stroke-opacity="1.0" stroke-linecap="round" stroke-linejoin="round"/>
    <path d="M 490.0582275390625 466.6211853027344 C 489.22686767578125 468.1226501464844 472.5630798339844 457.27471923828125 447.548095703125 435.49609375 C 445.9552917480469 442.0287170410156 422.0321044921875 422.65838623046875 450.2942199707031 456.64739990234375 C 458.45361328125 429.8506164550781 450.70306396484375 407.1195983886719 444.6174011230469 441.4948425292969 C 470.1426696777344 450.8224182128906 481.1685791015625 462.8348693847656 490.0582275390625 466.6211853027344" stroke-width="0.0" fill="rgb(40, 66, 132)" opacity="0.0" stroke="rgb(0, 0, 0)" stroke-opacity="1.0" stroke-linecap="round" stroke-linejoin="round"/>
    <path d="M 524.2591552734375 375.1318359375 C 520.2738037109375 398.6246032714844 512.38818359375 389.4333801269531 515.2544555664062 366.7155456542969 C 475.54705810546875 390.5489501953125 462.63922119140625 392.452880859375 471.8168640136719 323.9540100097656 C 482.2750244140625 333.357177734375 474.97943115234375 327.1530456542969 477.1466369628906 333.7765808105469 C 514.2528686523438 347.4501953125 524.5661010742188 347.6831359863281 524.2591552734375 375.1318359375" stroke-width="0.0" fill="rgb(38, 92, 112)" opacity="0.070019156" stroke="rgb(0, 0, 0)" stroke-opacity="1.0" stroke-linecap="round" stroke-linejoin="round"/>
    <path d="M 173.00282287597656 442.23626708984375 C 150.4296875 440.05487060546875 167.488037109375 438.6903076171875 171.90846252441406 447.2135925292969 C 142.75128173828125 463.2151184082031 109.29906463623047 462.9437255859375 118.88422393798828 419.70977783203125 C 115.55083465576172 401.1872253417969 106.35063934326172 388.26422119140625 138.8800048828125 380.9427795410156 C 163.10003662109375 353.9590759277344 180.55567932128906 411.6455993652344 173.00282287597656 442.23626708984375" stroke-width="0.0" fill="rgb(87, 122, 148)" opacity="0.38419512" stroke="rgb(0, 0, 0)" stroke-opacity="1.0" stroke-linecap="round" stroke-linejoin="round"/>
    <path d="M 122.28296661376953 169.4508056640625 C 141.32652282714844 193.11282348632812 108.07154846191406 199.48696899414062 74.17239379882812 197.38063049316406 C 77.76756286621094 171.68014526367188 60.39563751220703 175.65318298339844 82.56541442871094 194.52957153320312 C 98.10264587402344 138.8442840576172 78.8534164428711 164.1498260498047 71.15988159179688 159.67942810058594 C 94.76873016357422 157.91285705566406 109.66219329833984 147.9066162109375 122.28296661376953 169.4508056640625" stroke-width="0.0" fill="rgb(0, 5, 116)" opacity="0.015245468" stroke="rgb(0, 0, 0)" stroke-opacity="1.0" stroke-linecap="round" stroke-linejoin="round"/>
    <path d="M 192.5675811767578 152.66546630859375 C 183.21018981933594 147.14385986328125 217.6183319091797 181.48814392089844 166.73292541503906 193.21800231933594 C 137.95535278320312 165.8929443359375 146.5763702392578 136.96163940429688 171.89356994628906 123.84413146972656 C 189.83030700683594 128.8326416015625 194.19578552246094 125.06880950927734 203.47476196289062 126.03649139404297 C 192.6896514892578 129.4052734375 214.35752868652344 143.56817626953125 192.5675811767578 152.66546630859375" stroke-width="0.0" fill="rgb(150, 122, 36)" opacity="0.29501462" stroke="rgb(0, 0, 0)" stroke-opacity="1.0" stroke-linecap="round" stroke-linejoin="round"/>
    <path d="M 155.3912811279297 419.060302734375 C 156.20071411132812 389.5003662109375 162.98251342773438 405.50213623046875 164.2891387939453 453.3258361816406 C 169.0665283203125 406.69329833984375 160.33853149414062 392.0505065917969 153.14041137695312 365.6417541503906 C 142.27540588378906 342.8505554199219 162.41363525390625 357.2433166503906 163.5186767578125 397.58648681640625 C 143.114013671875 407.1231689453125 163.93971252441406 433.1001281738281 155.3912811279297 419.060302734375" stroke-width="0.0" fill="rgb(85, 49, 0)" opacity="0.26636243" stroke="rgb(0, 0, 0)" stroke-opacity="1.0" stroke-linecap="round" stroke-linejoin="round"/>
    <path d="M 458.8927917480469 138.25064086914062 C 456.971435546875 141.12559509277344 481.3416748046875 126.33466339111328 433.0428161621094 106.13528442382812 C 412.8955078125 174.83349609375 440.71038818359375 186.92098999023438 445.2527160644531 151.0440216064453 C 452.1654052734375 132.02828979492188 479.95477294921875 117.86420440673828 467.84112548828125 97.1619873046875 C 429.2907409667969 139.22763061523438 433.1449890136719 151.64785766601562 458.8927917480469 138.25064086914062" stroke-width="0.0" fill="rgb(191, 46, 155)" opacity="0.0" stroke="rgb(0, 0, 0)" stroke-opacity="1.0" stroke-linecap="round" stroke-linejoin="round"/>
    <path d="M 317.9328918457031 294.3770446777344 C 236.37283325195312 298.54766845703125 244.0910186767578 302.3806457519531 252.02194213867188 355.6534118652344 C 253.5544891357422 310.3176574707031 243.83331298828125 353.46710205078125 237.75930786132812 341.6048278808594 C 269.1370849609375 347.3411560058594 284.62286376953125 337.677734375 254.6745147705078 301.6574401855469 C 293.7891845703125 257.810302734375 310.7632751464844 273.6500244140625 317.9328918457031 294.3770446777344" stroke-width="0.0" fill="rgb(187, 0, 193)" opacity="0.182301" stroke="rgb(0, 0, 0)" stroke-opacity="1.0" stroke-linecap="round" stroke-linejoin="round"/>
    <path d="M 155.22576904296875 467.718994140625 C 149.95787048339844 460.52880859375 129.28134155273438 473.8465270996094 159.7732391357422 493.8409423828125 C 133.26841735839844 494.86553955078125 123.7097396850586 498.8341064453125 133.70315551757812 487.2439270019531 C 152.74282836914062 482.8397216796875 152.9668731689453 487.9492492675781 123.83240509033203 471.932373046875 C 131.3354034423828 470.3092956542969 151.4639129638672 483.5025329589844 155.22576904296875 467.718994140625" stroke-width="0.0" fill="rgb(21, 24, 26)" opacity="0.003858854" stroke="rgb(0, 0, 0)" stroke-opacity="1.0" stroke-linecap="round" stroke-linejoin="round"/>
  </g>
</svg>
