<?xml version="1.0" ?>
<svg xmlns="http://www.w3.org/2000/svg" version="1.1" width="512" height="512">
  <defs/>
  <g>
    <path d="M 584.9124755859375 372.85443115234375 C 547.165283203125 516.641845703125 548.8319091796875 525.4011840820312 395.3565979003906 539.6984252929688 C 301.8428955078125 548.418701171875 236.07508850097656 533.91357421875 305.9967346191406 469.249755859375 C 235.4482879638672 328.07635498046875 220.78506469726562 285.5937805175781 433.67144775390625 246.96458435058594 C 591.441650390625 293.6190490722656 596.858154296875 290.623046875 584.9124755859375 372.85443115234375" stroke-width="0.0" fill="rgb(1, 32, 102)" opacity="0.98045313" stroke="rgb(0, 0, 0)" stroke-opacity="1.0" stroke-linecap="round" stroke-linejoin="round"/>
    <path d="M 297.3373718261719 372.38629150390625 C 359.7547302246094 516.5840454101562 354.5556335449219 530.2874755859375 263.8044128417969 542.0370483398438 C -51.20000076293945 519.133544921875 -51.20000076293945 511.7567443847656 -58.19813919067383 475.9964599609375 C -25.095264434814453 217.71031188964844 6.235647201538086 241.43441772460938 68.68087005615234 183.12474060058594 C 87.51105499267578 333.3997497558594 174.75918579101562 283.5405578613281 297.3373718261719 372.38629150390625" stroke-width="0.0" fill="rgb(7, 22, 129)" opacity="0.9594043" stroke="rgb(0, 0, 0)" stroke-opacity="1.0" stroke-linecap="round" stroke-linejoin="round"/>
    <path d="M 305.37554931640625 199.83935546875 C 302.52642822265625 378.72125244140625 299.50592041015625 385.76226806640625 255.83926391601562 387.65087890625 C 130.54859924316406 509.2677917480469 74.79425048828125 415.73699951171875 -37.19456100463867 162.51446533203125 C 9.130849838256836 147.7975311279297 33.89425277709961 162.92044067382812 155.18861389160156 169.09046936035156 C 184.31199645996094 206.5418701171875 195.3160400390625 219.08224487304688 305.37554931640625 199.83935546875" stroke-width="0.0" fill="rgb(7, 19, 139)" opacity="0.89461726" stroke="rgb(0, 0, 0)" stroke-opacity="1.0" stroke-linecap="round" stroke-linejoin="round"/>
    <path d="M 282.8454895019531 14.857305526733398 C 252.72982788085938 279.785400390625 93.3364486694336 154.82119750976562 -9.196611404418945 156.28273010253906 C -36.566307067871094 181.98568725585938 -43.00143814086914 212.5349578857422 -29.01774024963379 138.67367553710938 C -16.39366340637207 -18.030452728271484 -10.150599479675293 -23.750812530517578 39.00297164916992 -22.941566467285156 C 208.7278594970703 -36.84080505371094 233.35476684570312 -48.449302673339844 282.8454895019531 14.857305526733398" stroke-width="0.0" fill="rgb(255, 17, 119)" opacity="0.96447724" stroke="rgb(0, 0, 0)" stroke-opacity="1.0" stroke-linecap="round" stroke-linejoin="round"/>
    <path d="M 526.3115844726562 120.4175796508789 C 450.296142578125 304.328125 421.2726745605469 268.16363525390625 368.8724670410156 314.5903015136719 C 259.776123046875 305.9958801269531 251.35556030273438 325.75299072265625 232.90658569335938 179.21835327148438 C 186.24024963378906 87.06121063232422 197.83724975585938 15.59618091583252 354.58953857421875 -53.49541473388672 C 583.031982421875 -15.131732940673828 561.0043334960938 25.271623611450195 526.3115844726562 120.4175796508789" stroke-width="0.0" fill="rgb(244, 232, 0)" opacity="1.0" stroke="rgb(0, 0, 0)" stroke-opacity="1.0" stroke-linecap="round" stroke-linejoin="round"/>
    <path d="M 260.34625244140625 95.3608627319336 C 169.22418212890625 256.38348388671875 325.69134521484375 224.26951599121094 143.6323699951172 307.0814514160156 C 157.53070068359375 171.431640625 132.46865844726562 160.60650634765625 107.77591705322266 143.42510986328125 C 80.78071594238281 119.64632415771484 88.13972473144531 105.38249206542969 309.7546081542969 -36.04756164550781 C 424.65289306640625 60.520591735839844 383.42578125 -0.8551491498947144 260.34625244140625 95.3608627319336" stroke-width="0.0" fill="rgb(255, 9, 217)" opacity="0.9347749" stroke="rgb(0, 0, 0)" stroke-opacity="1.0" stroke-linecap="round" stroke-linejoin="round"/>
    <path d="M 571.6898803710938 136.9168701171875 C 581.4284057617188 296.416259765625 573.5552978515625 323.5626525878906 517.802734375 272.13922119140625 C 396.1968078613281 245.57005310058594 371.1788635253906 260.7874450683594 479.8117980957031 197.05311584472656 C 488.6579284667969 145.76165771484375 397.511962890625 76.3848648071289 461.4736328125 -10.13110065460205 C 569.6064453125 20.879743576049805 571.607666015625 49.35628890991211 571.6898803710938 136.9168701171875" stroke-width="0.0" fill="rgb(0, 13, 178)" opacity="1.0" stroke="rgb(0, 0, 0)" stroke-opacity="1.0" stroke-linecap="round" stroke-linejoin="round"/>
    <path d="M 324.02685546875 245.24844360351562 C 327.99127197265625 280.8495178222656 319.5528259277344 317.88421630859375 305.4573669433594 325.482666015625 C 296.48858642578125 314.61614990234375 235.20018005371094 316.13336181640625 174.8025360107422 315.1518249511719 C 282.9190673828125 244.02410888671875 299.0643005371094 253.4032745361328 290.9385070800781 188.04531860351562 C 318.8825378417969 74.07325744628906 341.056640625 136.4927520751953 324.02685546875 245.24844360351562" stroke-width="0.0" fill="rgb(0, 0, 180)" opacity="1.0" stroke="rgb(0, 0, 0)" stroke-opacity="1.0" stroke-linecap="round" stroke-linejoin="round"/>
    <path d="M 412.6252746582031 230.45008850097656 C 386.9562072753906 270.13397216796875 517.5574340820312 222.8251953125 349.1027526855469 288.7532653808594 C 311.5218505859375 188.46824645996094 366.2303466796875 179.7001495361328 277.8143005371094 176.1445770263672 C 204.3409881591797 29.25352668762207 321.1495666503906 132.96011352539062 308.9169616699219 159.0591583251953 C 392.4280090332031 160.36990356445312 387.5707092285156 167.1758575439453 412.6252746582031 230.45008850097656" stroke-width="0.0" fill="rgb(188, 188, 87)" opacity="0.9670673" stroke="rgb(0, 0, 0)" stroke-opacity="1.0" stroke-linecap="round" stroke-linejoin="round"/>
    <path d="M 241.2630615234375 268.4022216796875 C 354.0286865234375 269.5334777832031 256.870849609375 267.8492431640625 203.60227966308594 325.27587890625 C 82.40927124023438 361.4000244140625 151.72848510742188 253.72055053710938 192.768310546875 287.1007995605469 C 64.32228088378906 214.85220336914062 -8.926156997680664 191.15972900390625 225.48048400878906 178.63897705078125 C 251.908447265625 175.18142700195312 246.55148315429688 264.4941101074219 241.2630615234375 268.4022216796875" stroke-width="0.0" fill="rgb(0, 72, 237)" opacity="0.9961495" stroke="rgb(0, 0, 0)" stroke-opacity="1.0" stroke-linecap="round" stroke-linejoin="round"/>
    <path d="M 377.1724548339844 215.31005859375 C 488.8306579589844 216.76547241210938 464.4199523925781 300.7491455078125 386.0184326171875 265.21136474609375 C 361.3612976074219 275.6458435058594 354.1734619140625 344.1864929199219 390.2106018066406 225.42738342285156 C 428.8616027832031 264.8049621582031 399.2674560546875 258.8572998046875 420.60101318359375 267.31646728515625 C 400.66082763671875 251.95191955566406 423.47711181640625 305.23529052734375 377.1724548339844 215.31005859375" stroke-width="0.0" fill="rgb(0, 4, 243)" opacity="1.0" stroke="rgb(0, 0, 0)" stroke-opacity="1.0" stroke-linecap="round" stroke-linejoin="round"/>
    <path d="M 326.7164611816406 400.78240966796875 C 133.5470733642578 321.966064453125 250.3907012939453 392.9970397949219 162.8577423095703 438.1148986816406 C 162.26463317871094 414.9110412597656 176.70018005371094 419.30352783203125 175.2798614501953 376.7601013183594 C 161.7427520751953 371.1727600097656 130.52798461914062 362.9454040527344 177.85107421875 359.99603271484375 C 215.39434814453125 356.13397216796875 151.73263549804688 389.1863098144531 326.7164611816406 400.78240966796875" stroke-width="0.0" fill="rgb(12, 35, 167)" opacity="0.21058162" stroke="rgb(0, 0, 0)" stroke-opacity="1.0" stroke-linecap="round" stroke-linejoin="round"/>
    <path d="M 549.8143920898438 36.354881286621094 C 525.0443115234375 70.43614196777344 496.6477966308594 59.382877349853516 484.63543701171875 87.74234008789062 C 481.5451354980469 85.37743377685547 472.0531005859375 131.46731567382812 397.2446594238281 91.3138427734375 C 368.146240234375 -4.815429210662842 312.37384033203125 111.98013305664062 351.9921875 -29.212507247924805 C 521.692138671875 -42.291194915771484 534.8015747070312 -9.444816589355469 549.8143920898438 36.354881286621094" stroke-width="0.0" fill="rgb(253, 17, 234)" opacity="0.98321694" stroke="rgb(0, 0, 0)" stroke-opacity="1.0" stroke-linecap="round" stroke-linejoin="round"/>
    <path d="M 422.08697509765625 95.9914779663086 C 420.59185791015625 179.3584442138672 417.2420959472656 149.31610107421875 361.6271057128906 144.92250061035156 C 362.9568786621094 102.69317626953125 388.20904541015625 91.9886703491211 371.12554931640625 84.56100463867188 C 377.157958984375 96.51923370361328 400.812744140625 79.12097930908203 388.583984375 76.18220520019531 C 376.21368408203125 67.54154968261719 414.3538818359375 75.94953155517578 422.08697509765625 95.9914779663086" stroke-width="0.0" fill="rgb(51, 92, 88)" opacity="0.8649324" stroke="rgb(0, 0, 0)" stroke-opacity="1.0" stroke-linecap="round" stroke-linejoin="round"/>
    <path d="M 191.42955017089844 252.88479614257812 C 193.33563232421875 271.1245422363281 173.3959503173828 308.86907958984375 216.3375244140625 300.26776123046875 C 174.71658325195312 301.55865478515625 177.88829040527344 369.1382141113281 102.09271240234375 198.7151336669922 C 53.052860260009766 223.2871856689453 100.85873413085938 199.40052795410156 167.1873016357422 193.48464965820312 C 206.4307403564453 225.01629638671875 204.989501953125 273.04541015625 191.42955017089844 252.88479614257812" stroke-width="0.0" fill="rgb(78, 56, 234)" opacity="0.22572422" stroke="rgb(0, 0, 0)" stroke-opacity="1.0" stroke-linecap="round" stroke-linejoin="round"/>
    <path d="M 376.9125671386719 439.01519775390625 C 403.00482177734375 459.6914367675781 320.2637634277344 498.6912536621094 295.3760070800781 448.6209411621094 C 267.6561279296875 259.6654052734375 338.13250732421875 473.8298034667969 386.6737365722656 451.61773681640625 C 342.2312927246094 445.3124694824219 310.03533935546875 498.76678466796875 313.2047424316406 341.13140869140625 C 384.60528564453125 474.11370849609375 344.2644348144531 429.0090637207031 376.9125671386719 439.01519775390625" stroke-width="0.0" fill="rgb(0, 0, 157)" opacity="0.5959816" stroke="rgb(0, 0, 0)" stroke-opacity="1.0" stroke-linecap="round" stroke-linejoin="round"/>
    <path d="M 358.4580383300781 120.52237701416016 C 337.77752685546875 140.64915466308594 367.447509765625 120.09339141845703 350.44580078125 139.95172119140625 C 364.7868957519531 92.59344482421875 343.80029296875 38.524375915527344 278.7924499511719 56.12504196166992 C 256.8360595703125 11.619909286499023 267.85467529296875 -47.85780715942383 395.8338317871094 36.29474639892578 C 316.5191650390625 58.165042877197266 356.6803894042969 57.09992599487305 358.4580383300781 120.52237701416016" stroke-width="0.0" fill="rgb(214, 3, 205)" opacity="0.0" stroke="rgb(0, 0, 0)" stroke-opacity="1.0" stroke-linecap="round" stroke-linejoin="round"/>
    <path d="M 382.7624206542969 293.5333557128906 C 144.3345489501953 237.8042449951172 119.38186645507812 384.8308410644531 216.55746459960938 368.2586364746094 C 249.8648681640625 363.7003479003906 270.82025146484375 377.6796875 270.1641540527344 374.3046569824219 C 305.0982360839844 367.9520263671875 289.5684814453125 377.79974365234375 318.3532409667969 348.6720275878906 C 341.4270324707031 419.53839111328125 364.8653869628906 526.8126831054688 382.7624206542969 293.5333557128906" stroke-width="0.0" fill="rgb(233, 249, 242)" opacity="0.9893106" stroke="rgb(0, 0, 0)" stroke-opacity="1.0" stroke-linecap="round" stroke-linejoin="round"/>
    <path d="M 384.6617126464844 184.17376708984375 C 382.943603515625 186.61154174804688 328.2913818359375 198.06910705566406 356.9580383300781 205.78192138671875 C 369.6435241699219 211.37428283691406 351.3333740234375 204.69602966308594 329.5248107910156 206.9369659423828 C 349.484375 201.9258575439453 361.0699462890625 217.55027770996094 325.0794372558594 185.0134735107422 C 330.7392578125 132.37025451660156 417.41119384765625 156.20745849609375 384.6617126464844 184.17376708984375" stroke-width="0.0" fill="rgb(0, 1, 19)" opacity="1.0" stroke="rgb(0, 0, 0)" stroke-opacity="1.0" stroke-linecap="round" stroke-linejoin="round"/>
    <path d="M 232.61871337890625 262.8379821777344 C 170.7440948486328 476.46771240234375 156.2662811279297 324.2147521972656 144.461181640625 328.7403869628906 C 102.0067367553711 299.26348876953125 88.07427978515625 273.75823974609375 99.41635131835938 244.9879150390625 C 35.366973876953125 187.57908630371094 68.92759704589844 169.30747985839844 92.13446044921875 190.654541015625 C 158.5396728515625 214.77882385253906 148.68373107910156 213.21273803710938 232.61871337890625 262.8379821777344" stroke-width="0.0" fill="rgb(0, 40, 195)" opacity="1.0" stroke="rgb(0, 0, 0)" stroke-opacity="1.0" stroke-linecap="round" stroke-linejoin="round"/>
    <path d="M 289.493896484375 171.13319396972656 C 294.0931091308594 219.95399475097656 283.0755310058594 218.01565551757812 276.31427001953125 250.64219665527344 C 256.290283203125 209.6722412109375 236.0761260986328 220.0627899169922 205.71641540527344 173.77352905273438 C 259.9188232421875 125.81414794921875 262.6445007324219 77.03651428222656 272.3212585449219 104.92430877685547 C 252.55372619628906 190.76609802246094 260.30670166015625 183.94781494140625 289.493896484375 171.13319396972656" stroke-width="0.0" fill="rgb(255, 239, 0)" opacity="0.9979031" stroke="rgb(0, 0, 0)" stroke-opacity="1.0" stroke-linecap="round" stroke-linejoin="round"/>
    <path d="M 187.3985137939453 323.6083068847656 C 163.48208618164062 421.73162841796875 206.0060577392578 407.2541809082031 94.46890258789062 424.23529052734375 C 41.739620208740234 366.4772644042969 27.941118240356445 356.9429626464844 -17.611827850341797 300.3811950683594 C 35.584224700927734 272.6156311035156 50.15315628051758 254.42970275878906 108.6225357055664 192.2410430908203 C 102.21379089355469 266.2013244628906 123.9259262084961 274.2406921386719 187.3985137939453 323.6083068847656" stroke-width="0.0" fill="rgb(0, 35, 186)" opacity="0.98769623" stroke="rgb(0, 0, 0)" stroke-opacity="1.0" stroke-linecap="round" stroke-linejoin="round"/>
    <path d="M 324.3898010253906 246.25254821777344 C 296.4117431640625 292.22674560546875 300.2996826171875 277.6002197265625 223.83753967285156 281.2617492675781 C 236.6359100341797 286.8650817871094 247.60491943359375 253.3126983642578 241.93490600585938 223.34059143066406 C 282.61578369140625 221.3928985595703 277.5303039550781 235.9625244140625 278.2457580566406 220.3980712890625 C 283.70977783203125 217.23065185546875 286.8048095703125 221.29481506347656 324.3898010253906 246.25254821777344" stroke-width="0.0" fill="rgb(0, 37, 237)" opacity="0.99769944" stroke="rgb(0, 0, 0)" stroke-opacity="1.0" stroke-linecap="round" stroke-linejoin="round"/>
    <path d="M 298.0458068847656 231.41036987304688 C 289.8955993652344 237.81301879882812 313.0639953613281 262.81219482421875 284.0756530761719 269.0767517089844 C 250.2854461669922 269.86309814453125 263.0570068359375 268.0848388671875 253.18333435058594 221.9414520263672 C 239.4791717529297 196.24713134765625 220.0323028564453 193.01800537109375 281.3841857910156 198.34141540527344 C 289.78375244140625 179.18447875976562 277.47967529296875 189.20889282226562 298.0458068847656 231.41036987304688" stroke-width="0.0" fill="rgb(71, 61, 124)" opacity="0.0" stroke="rgb(0, 0, 0)" stroke-opacity="1.0" stroke-linecap="round" stroke-linejoin="round"/>
    <path d="M 387.6298828125 379.0265808105469 C 310.2941589355469 367.6386413574219 312.796142578125 391.26556396484375 325.31060791015625 392.0826110839844 C 315.1862487792969 402.2696533203125 330.5882568359375 412.4049377441406 335.8899841308594 425.0975646972656 C 329.4410095214844 463.33538818359375 424.5256042480469 476.71759033203125 392.0404052734375 428.9591064453125 C 347.0224304199219 425.467041015625 384.99658203125 430.7471008300781 387.6298828125 379.0265808105469" stroke-width="0.0" fill="rgb(255, 255, 213)" opacity="1.0" stroke="rgb(0, 0, 0)" stroke-opacity="1.0" stroke-linecap="round" stroke-linejoin="round"/>
    <path d="M 301.4759826660156 151.93870544433594 C 319.7183532714844 185.05152893066406 311.4578552246094 201.10800170898438 300.1117858886719 192.65631103515625 C 282.34552001953125 187.12725830078125 281.53179931640625 164.4455108642578 298.64019775390625 184.33221435546875 C 300.0645751953125 199.9152374267578 289.4833679199219 178.93601989746094 285.30413818359375 156.63861083984375 C 280.9337463378906 165.7208251953125 272.3681640625 165.61851501464844 301.4759826660156 151.93870544433594" stroke-width="0.0" fill="rgb(48, 129, 32)" opacity="0.8921315" stroke="rgb(0, 0, 0)" stroke-opacity="1.0" stroke-linecap="round" stroke-linejoin="round"/>
    <path d="M 399.82122802734375 254.56532287597656 C 474.37353515625 270.4233703613281 446.2330017089844 324.9854431152344 379.2257080078125 314.084716796875 C 267.9747619628906 289.56048583984375 220.03123474121094 289.05169677734375 252.4256591796875 247.6493682861328 C 318.82208251953125 227.99050903320312 339.34051513671875 255.4729461669922 330.5015869140625 239.61488342285156 C 329.1332702636719 255.73065185546875 316.6064147949219 249.37440490722656 399.82122802734375 254.56532287597656" stroke-width="0.0" fill="rgb(255, 0, 217)" opacity="1.0" stroke="rgb(0, 0, 0)" stroke-opacity="1.0" stroke-linecap="round" stroke-linejoin="round"/>
    <path d="M 278.8945007324219 391.0633239746094 C 272.474609375 431.6548156738281 253.56886291503906 431.88861083984375 199.95700073242188 424.6338195800781 C 168.3080596923828 432.2394714355469 158.77529907226562 444.8968200683594 171.18399047851562 411.753662109375 C 171.03807067871094 367.0712890625 179.29237365722656 344.8383483886719 207.51585388183594 317.6199951171875 C 213.75538635253906 349.07452392578125 250.60736083984375 346.6289978027344 278.8945007324219 391.0633239746094" stroke-width="0.0" fill="rgb(239, 254, 232)" opacity="1.0" stroke="rgb(0, 0, 0)" stroke-opacity="1.0" stroke-linecap="round" stroke-linejoin="round"/>
    <path d="M 186.39817810058594 299.680908203125 C 198.20437622070312 302.63861083984375 191.1947021484375 305.5362243652344 178.49269104003906 293.2759704589844 C 178.33749389648438 273.63433837890625 183.404541015625 262.867919921875 185.8629608154297 249.33958435058594 C 182.57777404785156 264.7164611816406 179.70335388183594 264.3611755371094 177.37095642089844 249.67039489746094 C 172.3536834716797 276.3138427734375 182.8599090576172 289.7576904296875 186.39817810058594 299.680908203125" stroke-width="0.0" fill="rgb(128, 0, 215)" opacity="0.0041874596" stroke="rgb(0, 0, 0)" stroke-opacity="1.0" stroke-linecap="round" stroke-linejoin="round"/>
    <path d="M 375.81414794921875 230.8867645263672 C 393.27056884765625 236.45541381835938 401.1683349609375 270.077392578125 369.3687744140625 269.613037109375 C 322.2041015625 265.5152282714844 320.8771667480469 265.05828857421875 304.3489685058594 249.43048095703125 C 331.9584655761719 205.42892456054688 318.72918701171875 201.7926788330078 306.09674072265625 166.59500122070312 C 359.9794616699219 206.70082092285156 367.9295959472656 231.1169891357422 375.81414794921875 230.8867645263672" stroke-width="0.0" fill="rgb(228, 255, 226)" opacity="1.0" stroke="rgb(0, 0, 0)" stroke-opacity="1.0" stroke-linecap="round" stroke-linejoin="round"/>
    <path d="M 268.0741882324219 425.6907043457031 C 310.2487487792969 433.2893371582031 282.4534606933594 496.3218688964844 178.26058959960938 427.3642272949219 C 125.07696533203125 447.0563049316406 117.78618621826172 473.39154052734375 73.33061218261719 429.8033752441406 C 80.93805694580078 364.3111572265625 138.6253204345703 370.3193359375 152.2852020263672 403.13214111328125 C 171.65884399414062 397.9778137207031 165.75857543945312 407.1185302734375 268.0741882324219 425.6907043457031" stroke-width="0.0" fill="rgb(255, 255, 220)" opacity="1.0" stroke="rgb(0, 0, 0)" stroke-opacity="1.0" stroke-linecap="round" stroke-linejoin="round"/>
    <path d="M 353.9542236328125 389.7588806152344 C 351.49066162109375 388.6891784667969 356.3470764160156 405.97808837890625 326.480224609375 407.7460632324219 C 315.221435546875 421.69580078125 325.5281982421875 418.3896179199219 322.220947265625 407.4243469238281 C 340.6852111816406 399.7854919433594 371.5642395019531 392.8675842285156 351.1599426269531 350.4783630371094 C 354.3713684082031 330.75274658203125 360.6937255859375 346.640625 353.9542236328125 389.7588806152344" stroke-width="0.0" fill="rgb(113, 134, 45)" opacity="0.10099089" stroke="rgb(0, 0, 0)" stroke-opacity="1.0" stroke-linecap="round" stroke-linejoin="round"/>
    <path d="M 220.7622528076172 401.2322998046875 C 219.1123504638672 455.9841613769531 199.64208984375 436.210693359375 166.2729949951172 421.5711364746094 C 185.1542510986328 451.4422607421875 172.39920043945312 449.98907470703125 196.3287353515625 472.4684143066406 C 190.57675170898438 422.74945068359375 186.39926147460938 417.9360046386719 177.9480743408203 450.48931884765625 C 224.788330078125 464.5821228027344 257.4369812011719 442.6932678222656 220.7622528076172 401.2322998046875" stroke-width="0.0" fill="rgb(105, 54, 153)" opacity="0.0" stroke="rgb(0, 0, 0)" stroke-opacity="1.0" stroke-linecap="round" stroke-linejoin="round"/>
    <path d="M 204.4573516845703 441.97381591796875 C 185.96041870117188 422.5612487792969 194.21060180664062 424.55279541015625 199.98883056640625 422.8950500488281 C 176.2345733642578 423.1418762207031 159.2713623046875 401.88775634765625 185.8378143310547 409.75799560546875 C 189.83758544921875 455.388671875 204.68753051757812 429.0989074707031 206.94158935546875 423.5504150390625 C 144.92210388183594 442.36431884765625 160.8880615234375 450.83892822265625 204.4573516845703 441.97381591796875" stroke-width="0.0" fill="rgb(251, 189, 248)" opacity="0.022051295" stroke="rgb(0, 0, 0)" stroke-opacity="1.0" stroke-linecap="round" stroke-linejoin="round"/>
    <path d="M 230.91798400878906 233.6910858154297 C 204.80130004882812 242.44955444335938 183.62022399902344 250.96942138671875 155.1645050048828 242.9239959716797 C 180.0685272216797 230.40184020996094 175.33755493164062 238.60275268554688 169.75074768066406 247.4386749267578 C 175.2373504638672 256.3171081542969 176.5076141357422 240.37741088867188 178.51815795898438 219.66783142089844 C 207.7347412109375 222.2313232421875 217.00608825683594 222.9068603515625 230.91798400878906 233.6910858154297" stroke-width="0.0" fill="rgb(221, 0, 213)" opacity="0.0" stroke="rgb(0, 0, 0)" stroke-opacity="1.0" stroke-linecap="round" stroke-linejoin="round"/>
    <path d="M 285.7992248535156 275.9813537597656 C 283.4559020996094 271.166259765625 282.10736083984375 273.6452941894531 292.85296630859375 250.54611206054688 C 260.4723815917969 263.52166748046875 255.18899536132812 280.0147399902344 267.8177795410156 249.7234344482422 C 259.71435546875 257.5993957519531 277.8447265625 249.98631286621094 285.907470703125 229.26661682128906 C 256.8177490234375 239.74778747558594 268.11431884765625 267.15179443359375 285.7992248535156 275.9813537597656" stroke-width="0.0" fill="rgb(63, 28, 221)" opacity="0.0" stroke="rgb(0, 0, 0)" stroke-opacity="1.0" stroke-linecap="round" stroke-linejoin="round"/>
    <path d="M 189.71690368652344 346.19683837890625 C 198.4479522705078 354.2198181152344 188.36737060546875 363.3106384277344 184.58888244628906 377.8267822265625 C 161.276123046875 392.2496032714844 166.858642578125 365.22869873046875 170.02621459960938 384.43927001953125 C 169.00173950195312 361.2567443847656 183.6370391845703 336.64776611328125 198.41592407226562 325.5282287597656 C 223.2368927001953 300.834228515625 226.35533142089844 316.4448547363281 189.71690368652344 346.19683837890625" stroke-width="0.0" fill="rgb(245, 240, 253)" opacity="0.8577261" stroke="rgb(0, 0, 0)" stroke-opacity="1.0" stroke-linecap="round" stroke-linejoin="round"/>
    <path d="M 76.04164123535156 450.4610900878906 C 74.10784149169922 460.1481018066406 71.84012603759766 461.75213623046875 54.405025482177734 455.1446533203125 C 59.229984283447266 462.59002685546875 52.97263717651367 453.1492919921875 58.07756805419922 461.8616027832031 C 57.20698928833008 441.3356628417969 63.782962799072266 426.8988952636719 74.58009338378906 452.5978698730469 C 73.99773406982422 459.0016784667969 84.9080810546875 453.34228515625 76.04164123535156 450.4610900878906" stroke-width="0.0" fill="rgb(21, 36, 195)" opacity="0.044658374" stroke="rgb(0, 0, 0)" stroke-opacity="1.0" stroke-linecap="round" stroke-linejoin="round"/>
    <path d="M 460.802734375 456.8240966796875 C 461.5860900878906 491.2059631347656 442.9277038574219 497.7140808105469 450.812255859375 480.2603759765625 C 422.5306091308594 479.03857421875 417.3020935058594 476.5009765625 444.46978759765625 417.8794860839844 C 451.0703430175781 445.42510986328125 429.8393249511719 449.9959716796875 478.0073547363281 448.8970642089844 C 460.380126953125 435.2944641113281 469.9621887207031 429.99560546875 460.802734375 456.8240966796875" stroke-width="0.0" fill="rgb(0, 19, 143)" opacity="0.01003528" stroke="rgb(0, 0, 0)" stroke-opacity="1.0" stroke-linecap="round" stroke-linejoin="round"/>
    <path d="M 235.39532470703125 67.55606079101562 C 221.4047088623047 140.48361206054688 229.46603393554688 145.72613525390625 249.92308044433594 79.90567779541016 C 195.33644104003906 117.03999328613281 202.77268981933594 121.87125396728516 227.49752807617188 81.19778442382812 C 208.27037048339844 92.99905395507812 237.5334014892578 63.50968551635742 201.26258850097656 66.81629943847656 C 219.03546142578125 51.71815490722656 246.14730834960938 62.60075759887695 235.39532470703125 67.55606079101562" stroke-width="0.0" fill="rgb(193, 5, 187)" opacity="0.004779356" stroke="rgb(0, 0, 0)" stroke-opacity="1.0" stroke-linecap="round" stroke-linejoin="round"/>
    <path d="M 130.07835388183594 136.49147033691406 C 107.9057846069336 139.13812255859375 89.36966705322266 142.5000762939453 87.98788452148438 141.69007873535156 C 109.46704864501953 166.70126342773438 84.40463256835938 171.78480529785156 75.00175476074219 167.9715118408203 C 97.4509506225586 135.79248046875 91.82178497314453 123.01521301269531 105.25984954833984 135.0703887939453 C 155.29347229003906 128.03713989257812 133.6295166015625 121.8898696899414 130.07835388183594 136.49147033691406" stroke-width="0.0" fill="rgb(73, 0, 221)" opacity="0.032555636" stroke="rgb(0, 0, 0)" stroke-opacity="1.0" stroke-linecap="round" stroke-linejoin="round"/>
    <path d="M 64.66348266601562 438.9296569824219 C 83.88062286376953 486.4441833496094 60.807369232177734 485.1251525878906 56.11423873901367 458.419921875 C 47.879337310791016 467.0539245605469 46.554039001464844 453.01275634765625 31.301807403564453 438.19085693359375 C 49.430816650390625 453.9996643066406 70.30827331542969 440.3355712890625 52.7032470703125 449.8509521484375 C 62.8660774230957 456.2581481933594 71.72281646728516 449.42266845703125 64.66348266601562 438.9296569824219" stroke-width="0.0" fill="rgb(1, 1, 140)" opacity="0.06722565" stroke="rgb(0, 0, 0)" stroke-opacity="1.0" stroke-linecap="round" stroke-linejoin="round"/>
    <path d="M 472.2814636230469 521.0808715820312 C 478.7221984863281 523.3114624023438 475.93438720703125 532.7793579101562 491.4713439941406 525.5641479492188 C 457.3664855957031 523.4660034179688 462.49169921875 508.78472900390625 447.1662292480469 477.3735656738281 C 433.1653747558594 479.1838684082031 430.75860595703125 473.936767578125 428.4512023925781 468.2975158691406 C 463.05889892578125 482.90362548828125 482.3246765136719 487.50048828125 472.2814636230469 521.0808715820312" stroke-width="0.0" fill="rgb(7, 9, 170)" opacity="0.0" stroke="rgb(0, 0, 0)" stroke-opacity="1.0" stroke-linecap="round" stroke-linejoin="round"/>
    <path d="M 155.7405242919922 24.848039627075195 C 132.79171752929688 42.6330680847168 130.23277282714844 59.1283073425293 121.70037841796875 36.884605407714844 C 123.83155822753906 13.31640625 118.33734130859375 45.3093376159668 150.17115783691406 38.80894088745117 C 168.734375 28.67469596862793 173.08416748046875 -0.6587198972702026 146.11839294433594 -8.289795875549316 C 177.70887756347656 8.405749320983887 188.07762145996094 24.627605438232422 155.7405242919922 24.848039627075195" stroke-width="0.0" fill="rgb(105, 66, 217)" opacity="0.010883542" stroke="rgb(0, 0, 0)" stroke-opacity="1.0" stroke-linecap="round" stroke-linejoin="round"/>
    <path d="M 63.99516677856445 327.6612854003906 C 44.810855865478516 353.7254333496094 54.214378356933594 369.5867919921875 19.79015350341797 345.88525390625 C 38.184844970703125 337.62353515625 29.46879005432129 336.37469482421875 -0.3166598677635193 347.1434020996094 C -18.267736434936523 274.33544921875 -23.347858428955078 268.5736999511719 39.43577575683594 271.67950439453125 C 67.08172607421875 271.7815856933594 66.32479858398438 288.1259765625 63.99516677856445 327.6612854003906" stroke-width="0.0" fill="rgb(18, 38, 161)" opacity="0.02860841" stroke="rgb(0, 0, 0)" stroke-opacity="1.0" stroke-linecap="round" stroke-linejoin="round"/>
    <path d="M 413.19952392578125 445.7525634765625 C 412.0251159667969 443.7474670410156 412.0054626464844 440.791259765625 402.22406005859375 451.3250427246094 C 394.4536437988281 473.085693359375 400.3787841796875 454.013916015625 384.8111877441406 442.8020324707031 C 397.37823486328125 447.8323059082031 412.8079528808594 450.59454345703125 422.8924255371094 432.5599060058594 C 411.47003173828125 442.3745422363281 410.0436096191406 437.2254333496094 413.19952392578125 445.7525634765625" stroke-width="0.0" fill="rgb(12, 25, 132)" opacity="0.00013955726" stroke="rgb(0, 0, 0)" stroke-opacity="1.0" stroke-linecap="round" stroke-linejoin="round"/>
    <path d="M 128.89117431640625 459.658203125 C 117.3478775024414 469.7469482421875 127.77958679199219 467.5870666503906 106.32144165039062 437.07867431640625 C 118.44631958007812 439.84222412109375 99.85116577148438 456.64239501953125 117.36227416992188 457.49688720703125 C 125.37606048583984 459.8046875 112.51451873779297 441.8590393066406 103.90898895263672 441.16815185546875 C 115.7838134765625 441.7298278808594 122.76475524902344 451.1115417480469 128.89117431640625 459.658203125" stroke-width="0.0" fill="rgb(5, 13, 133)" opacity="0.43010226" stroke="rgb(0, 0, 0)" stroke-opacity="1.0" stroke-linecap="round" stroke-linejoin="round"/>
    <path d="M 301.7862854003906 34.16747283935547 C 256.7324523925781 38.989837646484375 282.57281494140625 36.96143341064453 264.4015808105469 56.83887481689453 C 239.18304443359375 74.89044189453125 263.1561279296875 56.345726013183594 201.9576873779297 63.8980827331543 C 203.49806213378906 7.784580230712891 222.52572631835938 -10.705292701721191 266.9375915527344 -14.956664085388184 C 264.3765869140625 46.573978424072266 293.1845703125 42.24911880493164 301.7862854003906 34.16747283935547" stroke-width="0.0" fill="rgb(230, 7, 151)" opacity="0.068441525" stroke="rgb(0, 0, 0)" stroke-opacity="1.0" stroke-linecap="round" stroke-linejoin="round"/>
    <path d="M 126.12750244140625 329.91534423828125 C 120.22322082519531 355.0336608886719 115.0860595703125 370.2152404785156 106.9521713256836 364.13018798828125 C 93.20181274414062 360.1634826660156 89.96562957763672 356.26318359375 91.17703247070312 348.2967834472656 C 94.61028289794922 332.31109619140625 106.61763000488281 327.4710693359375 119.78170776367188 314.1791076660156 C 123.06495666503906 314.7010192871094 126.21184539794922 320.3509216308594 126.12750244140625 329.91534423828125" stroke-width="0.0" fill="rgb(3, 53, 176)" opacity="0.015377794" stroke="rgb(0, 0, 0)" stroke-opacity="1.0" stroke-linecap="round" stroke-linejoin="round"/>
    <path d="M 540.7120971679688 238.34274291992188 C 586.3019409179688 263.2375183105469 557.992431640625 283.8882751464844 461.513671875 271.491455078125 C 434.1722106933594 277.146240234375 450.53564453125 261.3769226074219 465.2720642089844 182.60836791992188 C 470.9810791015625 164.6517791748047 465.3449401855469 179.10037231445312 494.32513427734375 185.71592712402344 C 468.31671142578125 179.08416748046875 504.77276611328125 196.85939025878906 540.7120971679688 238.34274291992188" stroke-width="0.0" fill="rgb(0, 44, 96)" opacity="0.347669" stroke="rgb(0, 0, 0)" stroke-opacity="1.0" stroke-linecap="round" stroke-linejoin="round"/>
    <path d="M 517.93798828125 109.00565338134766 C 530.1070556640625 104.01850891113281 528.4336547851562 107.34027862548828 496.1728820800781 109.25144958496094 C 484.77105712890625 80.45893859863281 462.9710388183594 92.86894989013672 477.2709655761719 83.67060852050781 C 491.8336181640625 95.12311553955078 503.61053466796875 88.4111557006836 494.3604736328125 63.25979232788086 C 478.89251708984375 57.703102111816406 527.5082397460938 48.1795768737793 517.93798828125 109.00565338134766" stroke-width="0.0" fill="rgb(189, 29, 168)" opacity="0.0" stroke="rgb(0, 0, 0)" stroke-opacity="1.0" stroke-linecap="round" stroke-linejoin="round"/>
    <path d="M 36.042137145996094 195.740234375 C 41.66273498535156 211.0740966796875 47.40447235107422 206.29428100585938 25.74486541748047 200.34518432617188 C 16.80747413635254 197.22833251953125 6.695071220397949 171.7593536376953 4.656206130981445 194.27587890625 C 67.27076721191406 181.87301635742188 55.330387115478516 204.0915985107422 26.48628044128418 193.1984100341797 C 33.321739196777344 152.4837646484375 47.467708587646484 175.60997009277344 36.042137145996094 195.740234375" stroke-width="0.0" fill="rgb(55, 30, 134)" opacity="0.04957819" stroke="rgb(0, 0, 0)" stroke-opacity="1.0" stroke-linecap="round" stroke-linejoin="round"/>
    <path d="M 111.2510986328125 308.42584228515625 C 118.41905975341797 329.53179931640625 96.85161590576172 328.2885437011719 104.79017639160156 351.6186828613281 C 92.21250915527344 366.12750244140625 92.27532196044922 362.6916809082031 87.58454132080078 337.00762939453125 C 84.94945526123047 329.2096252441406 98.4927978515625 321.01806640625 125.7596435546875 317.6806335449219 C 138.0994110107422 300.5190124511719 127.86860656738281 298.4346618652344 111.2510986328125 308.42584228515625" stroke-width="0.0" fill="rgb(7, 52, 181)" opacity="0.028652053" stroke="rgb(0, 0, 0)" stroke-opacity="1.0" stroke-linecap="round" stroke-linejoin="round"/>
    <path d="M 33.9114875793457 95.07254791259766 C 32.529415130615234 90.96776580810547 29.792207717895508 98.86799621582031 11.837837219238281 96.04651641845703 C 15.288748741149902 110.74776458740234 5.3964152336120605 97.78846740722656 -14.725031852722168 84.27393341064453 C -3.479161500930786 70.7708969116211 1.5575147867202759 58.641544342041016 -11.977787971496582 69.5054931640625 C 7.553018569946289 100.46585845947266 28.047653198242188 102.16544342041016 33.9114875793457 95.07254791259766" stroke-width="0.0" fill="rgb(102, 77, 177)" opacity="0.0" stroke="rgb(0, 0, 0)" stroke-opacity="1.0" stroke-linecap="round" stroke-linejoin="round"/>
    <path d="M 160.30979919433594 166.82745361328125 C 178.31451416015625 186.00608825683594 176.92538452148438 220.5851593017578 141.99388122558594 245.06959533691406 C 126.51155853271484 195.20901489257812 126.74005889892578 180.9088897705078 107.80010986328125 174.02210998535156 C 137.34671020507812 172.4349365234375 145.056884765625 161.58470153808594 142.1410675048828 163.67672729492188 C 131.8155059814453 173.21104431152344 148.25350952148438 181.87977600097656 160.30979919433594 166.82745361328125" stroke-width="0.0" fill="rgb(20, 46, 197)" opacity="0.0" stroke="rgb(0, 0, 0)" stroke-opacity="1.0" stroke-linecap="round" stroke-linejoin="round"/>
    <path d="M 206.7108154296875 353.0517272949219 C 210.73760986328125 385.741943359375 226.3443603515625 402.64117431640625 226.32418823242188 389.00433349609375 C 183.2543182373047 403.6495666503906 196.66409301757812 391.82928466796875 186.95321655273438 397.08612060546875 C 170.68630981445312 377.52105712890625 169.89752197265625 343.3636474609375 179.22970581054688 335.6422119140625 C 211.67657470703125 332.6070556640625 212.4683837890625 353.80718994140625 206.7108154296875 353.0517272949219" stroke-width="0.0" fill="rgb(252, 255, 164)" opacity="0.040479835" stroke="rgb(0, 0, 0)" stroke-opacity="1.0" stroke-linecap="round" stroke-linejoin="round"/>
    <path d="M 48.36652755737305 176.3946533203125 C 41.7282829284668 172.83139038085938 28.88822364807129 222.29714965820312 41.640037536621094 212.86073303222656 C -1.8838025331497192 227.2090301513672 -4.4538984298706055 235.00013732910156 -22.974939346313477 160.83584594726562 C 8.728459358215332 148.3798828125 68.6629867553711 145.92149353027344 50.59280014038086 174.97154235839844 C 42.65363693237305 156.2382049560547 30.407846450805664 184.52516174316406 48.36652755737305 176.3946533203125" stroke-width="0.0" fill="rgb(107, 78, 176)" opacity="0.0069138305" stroke="rgb(0, 0, 0)" stroke-opacity="1.0" stroke-linecap="round" stroke-linejoin="round"/>
    <path d="M 93.24748229980469 58.11433792114258 C 68.05207061767578 63.34987258911133 78.63690948486328 66.63427734375 75.89977264404297 82.67638397216797 C 93.355224609375 77.91050720214844 86.43588256835938 47.63911056518555 75.80892944335938 17.272441864013672 C 57.61423110961914 9.528630256652832 105.41779327392578 -8.424833297729492 121.49362182617188 1.1202025413513184 C 112.1969985961914 25.750993728637695 117.59071350097656 30.30284309387207 93.24748229980469 58.11433792114258" stroke-width="0.0" fill="rgb(254, 20, 143)" opacity="0.023753138" stroke="rgb(0, 0, 0)" stroke-opacity="1.0" stroke-linecap="round" stroke-linejoin="round"/>
    <path d="M 32.34234619140625 165.489990234375 C 53.38149642944336 193.67709350585938 36.180049896240234 203.79624938964844 26.539104461669922 207.5277557373047 C 0.2742031216621399 186.0491943359375 -1.2838257551193237 222.47711181640625 17.029375076293945 233.56988525390625 C 20.733366012573242 191.43017578125 10.648929595947266 188.15452575683594 25.58937644958496 198.8597869873047 C 21.133934020996094 205.8404083251953 28.37000846862793 194.95162963867188 32.34234619140625 165.489990234375" stroke-width="0.0" fill="rgb(72, 26, 145)" opacity="0.049743038" stroke="rgb(0, 0, 0)" stroke-opacity="1.0" stroke-linecap="round" stroke-linejoin="round"/>
    <path d="M 370.798828125 310.86395263671875 C 342.7444152832031 339.3487548828125 352.2542724609375 333.5157165527344 335.0555725097656 315.19525146484375 C 335.4541015625 316.5866394042969 308.08148193359375 334.9541320800781 306.6436767578125 306.82366943359375 C 269.3736572265625 319.6152038574219 261.2585144042969 289.5330810546875 279.1924743652344 285.1580505371094 C 331.01788330078125 301.5564880371094 356.22198486328125 292.8480529785156 370.798828125 310.86395263671875" stroke-width="0.0" fill="rgb(234, 12, 178)" opacity="0.99358916" stroke="rgb(0, 0, 0)" stroke-opacity="1.0" stroke-linecap="round" stroke-linejoin="round"/>
    <path d="M 417.19384765625 433.5921936035156 C 390.0701904296875 428.620849609375 387.2676086425781 434.5535583496094 382.807373046875 414.9223327636719 C 384.4765625 401.3446350097656 339.800048828125 379.8527526855469 345.45782470703125 410.1263427734375 C 345.3974914550781 418.85333251953125 370.3689880371094 411.68487548828125 364.7073974609375 421.089599609375 C 418.2220153808594 379.4065246582031 422.884765625 389.415771484375 417.19384765625 433.5921936035156" stroke-width="0.0" fill="rgb(23, 7, 138)" opacity="0.09346594" stroke="rgb(0, 0, 0)" stroke-opacity="1.0" stroke-linecap="round" stroke-linejoin="round"/>
    <path d="M 325.3719177246094 427.0340270996094 C 327.8638916015625 403.0053405761719 325.02880859375 400.8958740234375 338.6432189941406 400.8109436035156 C 315.7337341308594 405.2494201660156 301.2961730957031 412.1450500488281 307.984619140625 425.90972900390625 C 314.50616455078125 415.2625732421875 323.89990234375 405.2836608886719 332.1902160644531 405.6373596191406 C 335.204345703125 409.34912109375 339.1253662109375 417.7579650878906 325.3719177246094 427.0340270996094" stroke-width="0.0" fill="rgb(73, 205, 35)" opacity="0.0" stroke="rgb(0, 0, 0)" stroke-opacity="1.0" stroke-linecap="round" stroke-linejoin="round"/>
    <path d="M 522.1751098632812 254.90313720703125 C 523.80712890625 275.1986389160156 530.16162109375 263.276123046875 504.74615478515625 273.39202880859375 C 492.16094970703125 258.4535827636719 467.0540466308594 253.37181091308594 483.2526550292969 238.7864532470703 C 466.6587829589844 209.38369750976562 480.0392761230469 201.11099243164062 509.0653076171875 215.21200561523438 C 484.04290771484375 235.7707977294922 501.3431701660156 247.0902862548828 522.1751098632812 254.90313720703125" stroke-width="0.0" fill="rgb(0, 38, 163)" opacity="0.021370761" stroke="rgb(0, 0, 0)" stroke-opacity="1.0" stroke-linecap="round" stroke-linejoin="round"/>
    <path d="M 436.33746337890625 139.0945587158203 C 457.5085144042969 117.3486099243164 452.7697448730469 188.01388549804688 445.763916015625 126.00504302978516 C 399.7765197753906 135.70318603515625 423.0684509277344 146.65869140625 343.42486572265625 157.83290100097656 C 366.7980651855469 110.14713287353516 405.6398010253906 140.8788299560547 399.4577941894531 146.620849609375 C 448.2044372558594 142.08328247070312 445.41387939453125 128.9468536376953 436.33746337890625 139.0945587158203" stroke-width="0.0" fill="rgb(117, 107, 200)" opacity="0.35865602" stroke="rgb(0, 0, 0)" stroke-opacity="1.0" stroke-linecap="round" stroke-linejoin="round"/>
  </g>
</svg>
