<?xml version="1.0" ?>
<svg xmlns="http://www.w3.org/2000/svg" version="1.1" width="512" height="512">
  <defs/>
  <g>
    <path d="M 245.11172485351562 319.4878234863281 C 205.53990173339844 504.4234619140625 269.3005676269531 356.7934875488281 100.28050231933594 494.6666259765625 C 29.717060089111328 485.70721435546875 -23.24712562561035 308.6968078613281 100.52784729003906 219.85635375976562 C 89.63349151611328 354.52899169921875 40.635311126708984 280.9115295410156 56.74406051635742 347.9433288574219 C 70.92198181152344 357.1899108886719 56.714263916015625 315.1559143066406 245.11172485351562 319.4878234863281" stroke-width="0.0" fill="rgb(0, 0, 12)" opacity="1.0" stroke="rgb(0, 0, 0)" stroke-opacity="1.0" stroke-linecap="round" stroke-linejoin="round"/>
    <path d="M 183.58920288085938 232.38050842285156 C 213.53759765625 289.04852294921875 141.66873168945312 278.0420837402344 198.00999450683594 277.0160827636719 C 171.01673889160156 273.8909606933594 115.08599090576172 239.26931762695312 111.13483428955078 176.1649932861328 C 61.48191452026367 212.7248992919922 -34.48118591308594 234.21517944335938 140.38075256347656 232.99522399902344 C 164.20204162597656 292.21673583984375 197.7086181640625 263.9700012207031 183.58920288085938 232.38050842285156" stroke-width="0.0" fill="rgb(0, 0, 81)" opacity="1.0" stroke="rgb(0, 0, 0)" stroke-opacity="1.0" stroke-linecap="round" stroke-linejoin="round"/>
    <path d="M 433.4898681640625 269.4580383300781 C 438.8907165527344 385.6538391113281 233.26007080078125 295.599365234375 372.1311950683594 245.58636474609375 C 394.7719421386719 225.40638732910156 319.1095886230469 165.20750427246094 307.15374755859375 367.1095275878906 C 252.6531219482422 220.38516235351562 341.0290832519531 222.58023071289062 386.8182067871094 233.23431396484375 C 445.1787414550781 235.0715789794922 392.0744934082031 259.2102966308594 433.4898681640625 269.4580383300781" stroke-width="0.0" fill="rgb(106, 0, 177)" opacity="0.9982287" stroke="rgb(0, 0, 0)" stroke-opacity="1.0" stroke-linecap="round" stroke-linejoin="round"/>
    <path d="M 206.5771026611328 207.62828063964844 C 143.11505126953125 268.3388977050781 189.9794158935547 233.4188232421875 80.3479995727539 243.6139373779297 C 13.761707305908203 221.6093292236328 94.3770523071289 203.46246337890625 146.36727905273438 241.1327362060547 C 188.05154418945312 255.2119140625 181.4051055908203 231.24876403808594 199.63259887695312 201.9408721923828 C 135.3277130126953 125.99392700195312 149.80332946777344 108.52063751220703 206.5771026611328 207.62828063964844" stroke-width="0.0" fill="rgb(39, 2, 88)" opacity="0.24289648" stroke="rgb(0, 0, 0)" stroke-opacity="1.0" stroke-linecap="round" stroke-linejoin="round"/>
    <path d="M 546.59423828125 320.7817687988281 C 560.6697998046875 410.93853759765625 434.1162414550781 397.960205078125 464.49761962890625 477.2098693847656 C 318.4148254394531 308.26416015625 375.62554931640625 423.5056457519531 311.48175048828125 271.0307922363281 C 459.8097839355469 358.6739196777344 324.6680603027344 338.4186096191406 402.6622619628906 347.1473388671875 C 461.74127197265625 358.2416076660156 387.01953125 365.64483642578125 546.59423828125 320.7817687988281" stroke-width="0.0" fill="rgb(5, 0, 108)" opacity="0.99704105" stroke="rgb(0, 0, 0)" stroke-opacity="1.0" stroke-linecap="round" stroke-linejoin="round"/>
    <path d="M 398.0922546386719 162.2594757080078 C 437.03668212890625 324.3580017089844 471.2770690917969 319.4864196777344 414.98681640625 389.8492126464844 C 411.8358154296875 278.0774230957031 428.8052673339844 346.4892578125 362.39251708984375 157.40692138671875 C 450.17864990234375 92.56407928466797 469.2581787109375 -19.30405616760254 462.7306823730469 57.78096008300781 C 426.1007385253906 154.47952270507812 444.84375 103.12720489501953 398.0922546386719 162.2594757080078" stroke-width="0.0" fill="rgb(0, 0, 21)" opacity="0.9998224" stroke="rgb(0, 0, 0)" stroke-opacity="1.0" stroke-linecap="round" stroke-linejoin="round"/>
    <path d="M 372.7297668457031 281.7093200683594 C 286.46734619140625 324.6033630371094 324.3929748535156 378.1241760253906 330.49365234375 326.5068359375 C 270.6346740722656 319.4299011230469 338.6471862792969 334.3421325683594 290.6180114746094 321.1928405761719 C 292.5522766113281 290.6858215332031 280.8274841308594 240.6226348876953 271.56597900390625 240.46205139160156 C 313.92596435546875 224.6338653564453 332.2509460449219 254.17422485351562 372.7297668457031 281.7093200683594" stroke-width="0.0" fill="rgb(254, 244, 255)" opacity="0.9699212" stroke="rgb(0, 0, 0)" stroke-opacity="1.0" stroke-linecap="round" stroke-linejoin="round"/>
    <path d="M 372.20452880859375 239.29856872558594 C 397.3161926269531 250.78231811523438 388.5077819824219 262.1086730957031 391.2778015136719 228.2855987548828 C 374.2865905761719 223.19996643066406 377.1271057128906 222.2581024169922 340.377197265625 234.08837890625 C 333.0458984375 240.8916473388672 335.296875 241.10801696777344 336.5694274902344 232.80010986328125 C 340.0 243.00338745117188 348.37750244140625 217.5686492919922 372.20452880859375 239.29856872558594" stroke-width="0.0" fill="rgb(131, 0, 193)" opacity="0.9966857" stroke="rgb(0, 0, 0)" stroke-opacity="1.0" stroke-linecap="round" stroke-linejoin="round"/>
    <path d="M 57.15442657470703 113.01241302490234 C 84.54882049560547 235.51255798339844 70.17729949951172 93.75496673583984 257.0499267578125 114.60620880126953 C 62.51059341430664 236.40809631347656 108.29109954833984 333.56414794921875 49.39163589477539 58.8714599609375 C 16.871519088745117 -59.03521728515625 50.46461868286133 -76.58433532714844 182.20851135253906 109.86659240722656 C 39.28334045410156 14.871477127075195 46.88504409790039 -38.53987503051758 57.15442657470703 113.01241302490234" stroke-width="0.0" fill="rgb(0, 0, 77)" opacity="1.0" stroke="rgb(0, 0, 0)" stroke-opacity="1.0" stroke-linecap="round" stroke-linejoin="round"/>
    <path d="M 248.1410675048828 302.8845520019531 C 194.45538330078125 315.0564270019531 303.4466247558594 293.5005187988281 257.57330322265625 310.80596923828125 C 40.8703498840332 362.2116394042969 158.87564086914062 306.6259765625 154.7655792236328 271.3367614746094 C 143.61094665527344 230.778564453125 182.95057678222656 250.15109252929688 192.11953735351562 268.6993713378906 C 230.53128051757812 291.4972839355469 240.53001403808594 281.7957458496094 248.1410675048828 302.8845520019531" stroke-width="0.0" fill="rgb(78, 1, 90)" opacity="0.83440864" stroke="rgb(0, 0, 0)" stroke-opacity="1.0" stroke-linecap="round" stroke-linejoin="round"/>
    <path d="M 377.6510314941406 258.57891845703125 C 383.9725341796875 269.30377197265625 376.1026611328125 245.10614013671875 393.5904541015625 253.10447692871094 C 378.2207946777344 298.17547607421875 348.6346130371094 297.9115295410156 323.0159912109375 245.46299743652344 C 359.518310546875 233.33389282226562 376.059814453125 305.03680419921875 383.8417053222656 240.22930908203125 C 407.4092102050781 246.94113159179688 394.8693542480469 242.4175567626953 377.6510314941406 258.57891845703125" stroke-width="0.0" fill="rgb(242, 145, 255)" opacity="0.99653405" stroke="rgb(0, 0, 0)" stroke-opacity="1.0" stroke-linecap="round" stroke-linejoin="round"/>
    <path d="M 493.06781005859375 -17.161746978759766 C 318.882568359375 81.96188354492188 372.44012451171875 113.40206909179688 254.5436248779297 124.36188507080078 C 118.84605407714844 117.44590759277344 193.1345672607422 66.00371551513672 34.609413146972656 -44.416358947753906 C 299.0809326171875 -19.733362197875977 184.96218872070312 76.40894317626953 336.34442138671875 84.01557922363281 C 359.4197692871094 83.34431457519531 395.130615234375 14.002460479736328 493.06781005859375 -17.161746978759766" stroke-width="0.0" fill="rgb(0, 0, 13)" opacity="1.0" stroke="rgb(0, 0, 0)" stroke-opacity="1.0" stroke-linecap="round" stroke-linejoin="round"/>
    <path d="M 351.761474609375 370.2679443359375 C 104.76860809326172 474.8409118652344 201.01246643066406 362.2203674316406 136.34681701660156 412.2686462402344 C 114.63226318359375 405.2334899902344 161.6076202392578 354.9048156738281 143.71554565429688 364.89630126953125 C 145.42434692382812 359.92449951171875 193.05294799804688 351.9761047363281 240.7437744140625 249.82046508789062 C 347.1094665527344 276.69781494140625 400.6119079589844 281.489501953125 351.761474609375 370.2679443359375" stroke-width="0.0" fill="rgb(221, 189, 243)" opacity="1.0" stroke="rgb(0, 0, 0)" stroke-opacity="1.0" stroke-linecap="round" stroke-linejoin="round"/>
    <path d="M 471.8624267578125 68.94175720214844 C 483.8905334472656 34.07057571411133 475.5395812988281 42.60780334472656 484.9822082519531 46.441558837890625 C 470.05157470703125 39.27189636230469 489.80084228515625 86.14118957519531 460.68359375 70.35914611816406 C 464.59771728515625 -4.968817234039307 447.8247985839844 -46.800567626953125 429.0997314453125 13.786988258361816 C 438.35455322265625 70.81542205810547 473.6011047363281 77.6417236328125 471.8624267578125 68.94175720214844" stroke-width="0.0" fill="rgb(0, 12, 36)" opacity="0.9817726" stroke="rgb(0, 0, 0)" stroke-opacity="1.0" stroke-linecap="round" stroke-linejoin="round"/>
    <path d="M 451.9048156738281 51.795066833496094 C 360.1249084472656 157.7086944580078 440.20513916015625 134.05615234375 422.20013427734375 142.97080993652344 C 302.7198181152344 63.24900817871094 336.4223327636719 159.26576232910156 346.0722961425781 34.3610954284668 C 338.2806701660156 128.4895477294922 347.77850341796875 17.612579345703125 335.277099609375 104.78752899169922 C 377.16741943359375 132.04165649414062 443.8500061035156 10.72120475769043 451.9048156738281 51.795066833496094" stroke-width="0.0" fill="rgb(0, 124, 0)" opacity="0.15919593" stroke="rgb(0, 0, 0)" stroke-opacity="1.0" stroke-linecap="round" stroke-linejoin="round"/>
    <path d="M 440.24407958984375 390.79022216796875 C 427.9111633300781 402.17449951171875 512.6112670898438 527.421875 405.5704345703125 516.8516235351562 C 382.7535705566406 361.29998779296875 456.1912536621094 434.2325439453125 405.03857421875 343.90301513671875 C 515.7001953125 460.37835693359375 281.8305358886719 365.8569641113281 385.8089599609375 297.05364990234375 C 488.1125793457031 369.35992431640625 474.2538757324219 395.47320556640625 440.24407958984375 390.79022216796875" stroke-width="0.0" fill="rgb(57, 0, 88)" opacity="0.99716747" stroke="rgb(0, 0, 0)" stroke-opacity="1.0" stroke-linecap="round" stroke-linejoin="round"/>
    <path d="M 464.0460205078125 50.12874221801758 C 442.0697021484375 2.1214663982391357 458.7403259277344 15.687471389770508 390.5930480957031 109.74839782714844 C 390.0088806152344 87.79528045654297 422.36041259765625 159.41195678710938 422.3775634765625 50.23344421386719 C 440.3809509277344 41.01249694824219 440.08697509765625 23.33980369567871 430.261474609375 30.470623016357422 C 451.4444885253906 15.075225830078125 443.5404357910156 18.267192840576172 464.0460205078125 50.12874221801758" stroke-width="0.0" fill="rgb(0, 51, 0)" opacity="0.25272846" stroke="rgb(0, 0, 0)" stroke-opacity="1.0" stroke-linecap="round" stroke-linejoin="round"/>
    <path d="M 414.9429626464844 371.6562805175781 C 522.595703125 482.33709716796875 474.6960754394531 523.3466796875 236.87359619140625 543.7737426757812 C 195.53282165527344 500.67352294921875 157.91128540039062 406.0865478515625 145.75091552734375 421.4082946777344 C 204.66749572753906 432.2984619140625 205.33775329589844 415.3787841796875 221.08485412597656 401.75347900390625 C 209.82620239257812 405.61859130859375 281.9856872558594 414.26409912109375 414.9429626464844 371.6562805175781" stroke-width="0.0" fill="rgb(83, 0, 91)" opacity="1.0" stroke="rgb(0, 0, 0)" stroke-opacity="1.0" stroke-linecap="round" stroke-linejoin="round"/>
    <path d="M 216.9234619140625 293.4986877441406 C 287.5641784667969 299.639404296875 321.4826965332031 303.8519287109375 254.9550018310547 349.3402099609375 C 190.53970336914062 316.1105041503906 246.46405029296875 295.1094970703125 235.15521240234375 244.98880004882812 C 179.4468994140625 246.98544311523438 176.29518127441406 262.2475280761719 138.66818237304688 258.9640808105469 C 129.2594451904297 330.09429931640625 149.62844848632812 251.39683532714844 216.9234619140625 293.4986877441406" stroke-width="0.0" fill="rgb(248, 255, 255)" opacity="1.0" stroke="rgb(0, 0, 0)" stroke-opacity="1.0" stroke-linecap="round" stroke-linejoin="round"/>
    <path d="M 552.5684204101562 394.47467041015625 C 485.68988037109375 552.2579956054688 432.1093444824219 487.76031494140625 455.5052490234375 433.9678955078125 C 460.6369934082031 445.7268371582031 456.2127380371094 412.52752685546875 456.35321044921875 398.3168640136719 C 491.93194580078125 395.3020935058594 442.4708557128906 389.29498291015625 454.4610900878906 367.50347900390625 C 549.776611328125 404.75628662109375 483.900634765625 377.723388671875 552.5684204101562 394.47467041015625" stroke-width="0.0" fill="rgb(0, 18, 83)" opacity="1.0" stroke="rgb(0, 0, 0)" stroke-opacity="1.0" stroke-linecap="round" stroke-linejoin="round"/>
    <path d="M 314.2882995605469 362.914306640625 C 285.78570556640625 338.227294921875 262.9630126953125 362.7013244628906 262.7853698730469 374.4665832519531 C 276.2559814453125 391.4356994628906 277.1595458984375 389.9279479980469 227.65097045898438 432.0315856933594 C 217.77032470703125 457.6354675292969 225.81149291992188 406.3153991699219 294.45794677734375 304.07427978515625 C 292.97760009765625 388.4003601074219 370.30914306640625 379.13006591796875 314.2882995605469 362.914306640625" stroke-width="0.0" fill="rgb(116, 78, 141)" opacity="0.5632363" stroke="rgb(0, 0, 0)" stroke-opacity="1.0" stroke-linecap="round" stroke-linejoin="round"/>
    <path d="M 63.27276611328125 12.900701522827148 C 49.6926383972168 3.4904093742370605 59.42035675048828 124.9928970336914 78.08834838867188 189.7110137939453 C 88.157958984375 268.30816650390625 39.898658752441406 22.571439743041992 53.41574478149414 38.59189224243164 C 60.18311309814453 -40.71625900268555 38.83134078979492 -42.432498931884766 115.39037322998047 18.221384048461914 C 172.8455047607422 78.5523681640625 91.24217224121094 -10.278017044067383 63.27276611328125 12.900701522827148" stroke-width="0.0" fill="rgb(129, 116, 127)" opacity="0.5874459" stroke="rgb(0, 0, 0)" stroke-opacity="1.0" stroke-linecap="round" stroke-linejoin="round"/>
    <path d="M 196.2173309326172 47.24460220336914 C 142.37161254882812 20.74776268005371 114.65388488769531 2.6876473426818848 183.30381774902344 86.74198913574219 C 128.6340789794922 66.33931732177734 123.13400268554688 45.51017379760742 60.979347229003906 2.2365589141845703 C 77.800537109375 -40.11892318725586 97.67557525634766 -26.399810791015625 143.44447326660156 -44.21126937866211 C 182.6895751953125 -23.467500686645508 193.43084716796875 -15.856788635253906 196.2173309326172 47.24460220336914" stroke-width="0.0" fill="rgb(255, 253, 254)" opacity="1.0" stroke="rgb(0, 0, 0)" stroke-opacity="1.0" stroke-linecap="round" stroke-linejoin="round"/>
    <path d="M 176.61302185058594 304.8324279785156 C 150.5555877685547 371.43206787109375 136.4085235595703 378.8826904296875 105.64999389648438 385.212158203125 C 27.389272689819336 398.5204162597656 40.39290237426758 385.92559814453125 48.70244216918945 332.06280517578125 C 36.82691192626953 282.40264892578125 49.75234603881836 283.3639831542969 92.91615295410156 276.100341796875 C 127.86825561523438 267.3124694824219 141.57879638671875 259.5859680175781 176.61302185058594 304.8324279785156" stroke-width="0.0" fill="rgb(0, 0, 76)" opacity="1.0" stroke="rgb(0, 0, 0)" stroke-opacity="1.0" stroke-linecap="round" stroke-linejoin="round"/>
    <path d="M 110.46833801269531 257.30718994140625 C 106.564208984375 243.86138916015625 106.20458221435547 237.2532501220703 96.73472595214844 229.15280151367188 C 80.83332824707031 241.02122497558594 98.0597915649414 309.9503173828125 -6.081000328063965 287.6681213378906 C -3.2402734756469727 155.79281616210938 49.81716537475586 119.83219146728516 69.11090087890625 233.3139190673828 C 79.44949340820312 241.16551208496094 91.18219757080078 204.98818969726562 110.46833801269531 257.30718994140625" stroke-width="0.0" fill="rgb(255, 255, 249)" opacity="1.0" stroke="rgb(0, 0, 0)" stroke-opacity="1.0" stroke-linecap="round" stroke-linejoin="round"/>
    <path d="M 288.4754333496094 120.07244873046875 C 247.80661010742188 160.3362579345703 267.3285217285156 212.85765075683594 254.75588989257812 250.11264038085938 C 145.1116485595703 206.73577880859375 144.55442810058594 212.22459411621094 176.91114807128906 143.3459930419922 C 177.0052490234375 46.79256057739258 187.10752868652344 79.43496704101562 237.23190307617188 92.43008422851562 C 282.76702880859375 95.31083679199219 315.3623962402344 91.99369049072266 288.4754333496094 120.07244873046875" stroke-width="0.0" fill="rgb(0, 0, 96)" opacity="1.0" stroke="rgb(0, 0, 0)" stroke-opacity="1.0" stroke-linecap="round" stroke-linejoin="round"/>
    <path d="M 268.4014892578125 359.4899597167969 C 268.11029052734375 302.4715881347656 330.0160217285156 358.82916259765625 326.9998474121094 384.59375 C 289.8919372558594 333.0592956542969 271.133544921875 347.9482727050781 277.010498046875 338.28399658203125 C 293.4449462890625 357.8221740722656 290.0179443359375 290.4677734375 333.591064453125 306.3330993652344 C 361.1014709472656 314.6926574707031 314.4659729003906 382.6418762207031 268.4014892578125 359.4899597167969" stroke-width="0.0" fill="rgb(185, 175, 254)" opacity="0.6613515" stroke="rgb(0, 0, 0)" stroke-opacity="1.0" stroke-linecap="round" stroke-linejoin="round"/>
    <path d="M 42.471893310546875 447.13629150390625 C 10.871865272521973 421.3807373046875 136.4126434326172 380.1344909667969 71.71292877197266 370.68865966796875 C 9.815366744995117 398.4097595214844 3.5596930980682373 363.16473388671875 95.90937805175781 351.7021179199219 C -14.568622589111328 370.9365539550781 21.894756317138672 367.6690673828125 80.13333129882812 359.7297668457031 C 61.33956527709961 366.54638671875 86.19457244873047 377.51202392578125 42.471893310546875 447.13629150390625" stroke-width="0.0" fill="rgb(0, 0, 0)" opacity="0.31817502" stroke="rgb(0, 0, 0)" stroke-opacity="1.0" stroke-linecap="round" stroke-linejoin="round"/>
    <path d="M 352.49029541015625 428.2481994628906 C 275.1632995605469 419.5348815917969 263.534423828125 399.96734619140625 299.56591796875 386.49798583984375 C 318.3937683105469 379.30206298828125 321.0736083984375 384.4649353027344 347.12750244140625 384.06768798828125 C 341.33856201171875 392.232421875 288.5233154296875 380.83404541015625 341.52581787109375 403.45501708984375 C 362.60345458984375 380.95697021484375 354.2053527832031 389.671630859375 352.49029541015625 428.2481994628906" stroke-width="0.0" fill="rgb(158, 21, 179)" opacity="0.2869114" stroke="rgb(0, 0, 0)" stroke-opacity="1.0" stroke-linecap="round" stroke-linejoin="round"/>
    <path d="M 402.75732421875 60.53306579589844 C 426.8261413574219 49.150299072265625 464.85693359375 35.61783981323242 417.02935791015625 117.93832397460938 C 374.48638916015625 156.97935485839844 384.0282897949219 118.42660522460938 379.21478271484375 105.10669708251953 C 389.17474365234375 107.42819213867188 389.20562744140625 83.41246032714844 399.3847961425781 73.8364028930664 C 387.98345947265625 101.08980560302734 415.2236022949219 51.19255447387695 402.75732421875 60.53306579589844" stroke-width="0.0" fill="rgb(0, 47, 2)" opacity="1.0" stroke="rgb(0, 0, 0)" stroke-opacity="1.0" stroke-linecap="round" stroke-linejoin="round"/>
    <path d="M 203.36175537109375 96.84410858154297 C 193.17889404296875 64.52653503417969 193.89663696289062 111.51604461669922 164.18399047851562 123.82195281982422 C 161.18130493164062 121.20841217041016 169.6568145751953 96.00453186035156 146.220947265625 74.36449432373047 C 140.7419891357422 54.784698486328125 149.8558349609375 104.78057098388672 184.77903747558594 89.47406768798828 C 179.2961883544922 56.29255676269531 192.43057250976562 93.68340301513672 203.36175537109375 96.84410858154297" stroke-width="0.0" fill="rgb(75, 12, 148)" opacity="0.4882056" stroke="rgb(0, 0, 0)" stroke-opacity="1.0" stroke-linecap="round" stroke-linejoin="round"/>
    <path d="M 535.68896484375 445.0528564453125 C 547.3151245117188 474.25408935546875 543.4437255859375 482.2206115722656 520.3910522460938 471.31072998046875 C 501.4784240722656 466.09869384765625 492.86077880859375 451.309814453125 492.53155517578125 443.1331787109375 C 478.7904052734375 439.05352783203125 492.97210693359375 427.5375671386719 534.9063720703125 428.3517761230469 C 524.2904663085938 425.6336975097656 529.3707275390625 430.8746337890625 535.68896484375 445.0528564453125" stroke-width="0.0" fill="rgb(100, 0, 80)" opacity="0.0044136653" stroke="rgb(0, 0, 0)" stroke-opacity="1.0" stroke-linecap="round" stroke-linejoin="round"/>
    <path d="M 391.25665283203125 240.92201232910156 C 398.3561096191406 243.0994110107422 383.5380554199219 276.8780212402344 364.3630676269531 256.00323486328125 C 357.92645263671875 216.2955780029297 332.436767578125 241.20263671875 324.9954833984375 254.2980499267578 C 339.845947265625 246.98753356933594 312.2122802734375 258.7875061035156 306.0762023925781 228.28475952148438 C 384.2009582519531 227.07420349121094 356.915283203125 237.61941528320312 391.25665283203125 240.92201232910156" stroke-width="0.0" fill="rgb(52, 1, 138)" opacity="0.9942327" stroke="rgb(0, 0, 0)" stroke-opacity="1.0" stroke-linecap="round" stroke-linejoin="round"/>
    <path d="M 472.5608215332031 406.0465087890625 C 465.3558654785156 420.0950927734375 450.17730712890625 426.0807800292969 452.9436340332031 443.9593811035156 C 469.93927001953125 399.42584228515625 458.9593811035156 398.21759033203125 436.05657958984375 369.8564758300781 C 410.2836608886719 351.7021484375 430.9781799316406 322.55511474609375 488.5035705566406 334.246337890625 C 484.8129577636719 377.96197509765625 485.23577880859375 395.36163330078125 472.5608215332031 406.0465087890625" stroke-width="0.0" fill="rgb(0, 111, 68)" opacity="0.030717572" stroke="rgb(0, 0, 0)" stroke-opacity="1.0" stroke-linecap="round" stroke-linejoin="round"/>
    <path d="M 187.4284210205078 434.502685546875 C 197.75619506835938 445.2524719238281 210.727783203125 435.7290344238281 163.47462463378906 428.0227966308594 C 119.27999114990234 450.4682922363281 98.43161010742188 458.7772216796875 122.32340240478516 421.99658203125 C 148.9958953857422 398.60595703125 153.3220977783203 388.0966796875 177.23252868652344 398.32373046875 C 157.1929473876953 425.35052490234375 156.15367126464844 430.2667236328125 187.4284210205078 434.502685546875" stroke-width="0.0" fill="rgb(188, 161, 243)" opacity="0.26610255" stroke="rgb(0, 0, 0)" stroke-opacity="1.0" stroke-linecap="round" stroke-linejoin="round"/>
    <path d="M 424.1651306152344 357.8114318847656 C 419.4395446777344 414.5815124511719 417.39874267578125 431.8838806152344 401.4601745605469 426.4629211425781 C 389.5779113769531 418.6045227050781 397.508056640625 391.20831298828125 393.93792724609375 373.53759765625 C 405.42889404296875 329.4664306640625 389.4686279296875 298.3244323730469 419.7831115722656 322.313720703125 C 420.6759033203125 351.5379333496094 390.94903564453125 329.7926330566406 424.1651306152344 357.8114318847656" stroke-width="0.0" fill="rgb(174, 0, 207)" opacity="0.576392" stroke="rgb(0, 0, 0)" stroke-opacity="1.0" stroke-linecap="round" stroke-linejoin="round"/>
    <path d="M 124.58744812011719 116.76176452636719 C 168.59799194335938 118.8284912109375 158.32391357421875 115.2625503540039 120.28705596923828 143.80921936035156 C 96.48843383789062 147.57957458496094 84.84634399414062 111.0923080444336 57.735294342041016 79.11446380615234 C 34.14573287963867 30.505964279174805 68.7029800415039 35.82478332519531 85.44754791259766 78.13492584228516 C 107.6263427734375 92.3846435546875 109.32215881347656 104.76800537109375 124.58744812011719 116.76176452636719" stroke-width="0.0" fill="rgb(0, 56, 41)" opacity="1.0" stroke="rgb(0, 0, 0)" stroke-opacity="1.0" stroke-linecap="round" stroke-linejoin="round"/>
    <path d="M 345.7409973144531 380.1502990722656 C 358.4344787597656 416.400146484375 357.112060546875 426.902099609375 333.0502624511719 416.9839782714844 C 329.8804626464844 405.3725280761719 349.7541809082031 391.1001281738281 352.0278015136719 374.1690673828125 C 336.187255859375 321.5782470703125 321.0204162597656 320.5821228027344 345.77581787109375 348.28472900390625 C 364.0957946777344 372.0762023925781 361.293212890625 365.03485107421875 345.7409973144531 380.1502990722656" stroke-width="0.0" fill="rgb(97, 41, 20)" opacity="0.7064343" stroke="rgb(0, 0, 0)" stroke-opacity="1.0" stroke-linecap="round" stroke-linejoin="round"/>
    <path d="M 138.70782470703125 306.9222412109375 C 136.853271484375 360.2897033691406 110.74613952636719 378.9194030761719 86.28041076660156 374.9524841308594 C 69.59468841552734 365.0547790527344 55.9857063293457 378.5055847167969 47.91211700439453 376.7306823730469 C 39.405250549316406 315.4823303222656 48.560176849365234 339.7075500488281 122.12998962402344 343.4746398925781 C 86.22135925292969 356.0250244140625 69.12139892578125 348.12255859375 138.70782470703125 306.9222412109375" stroke-width="0.0" fill="rgb(219, 124, 130)" opacity="0.93233323" stroke="rgb(0, 0, 0)" stroke-opacity="1.0" stroke-linecap="round" stroke-linejoin="round"/>
    <path d="M 325.9697265625 68.18106842041016 C 329.20611572265625 185.19525146484375 339.2980041503906 254.7765655517578 244.12533569335938 188.73565673828125 C 223.40426635742188 178.83143615722656 229.7834930419922 167.1121063232422 238.6476287841797 133.73663330078125 C 241.57620239257812 115.00011444091797 229.90121459960938 100.06156921386719 268.10400390625 63.89118957519531 C 267.8929138183594 16.042285919189453 349.1221923828125 6.096889495849609 325.9697265625 68.18106842041016" stroke-width="0.0" fill="rgb(0, 0, 28)" opacity="1.0" stroke="rgb(0, 0, 0)" stroke-opacity="1.0" stroke-linecap="round" stroke-linejoin="round"/>
    <path d="M 437.9124755859375 53.56558609008789 C 422.86346435546875 87.70902252197266 428.76568603515625 82.68540954589844 421.8118896484375 60.54506301879883 C 434.14581298828125 62.33312225341797 422.9303283691406 73.52945709228516 423.5155029296875 88.06231689453125 C 418.62841796875 73.22590637207031 424.94757080078125 66.76895904541016 460.1478271484375 50.478759765625 C 457.3164978027344 44.480369567871094 450.408203125 72.82547760009766 437.9124755859375 53.56558609008789" stroke-width="0.0" fill="rgb(68, 38, 122)" opacity="0.0" stroke="rgb(0, 0, 0)" stroke-opacity="1.0" stroke-linecap="round" stroke-linejoin="round"/>
    <path d="M 115.44224548339844 135.7108917236328 C 117.57669067382812 140.6150665283203 78.12293243408203 160.2772216796875 112.74079132080078 150.22833251953125 C 141.3087615966797 120.2509536743164 125.77955627441406 118.70919036865234 106.09295654296875 103.3459701538086 C 97.39471435546875 86.52334594726562 81.94820404052734 62.10328674316406 90.61516571044922 71.57539367675781 C 127.2815170288086 117.08617401123047 140.6719207763672 150.21969604492188 115.44224548339844 135.7108917236328" stroke-width="0.0" fill="rgb(67, 97, 87)" opacity="0.7458453" stroke="rgb(0, 0, 0)" stroke-opacity="1.0" stroke-linecap="round" stroke-linejoin="round"/>
    <path d="M 532.2950439453125 463.3461608886719 C 520.4595336914062 517.4486083984375 511.7738037109375 524.1069946289062 477.6980895996094 551.2153930664062 C 447.4213562011719 531.6358642578125 430.8876647949219 513.4382934570312 457.3048095703125 500.4444580078125 C 468.268798828125 485.9048156738281 471.2048645019531 468.500244140625 494.4612731933594 461.4930114746094 C 520.6495361328125 449.69219970703125 535.8818969726562 444.2107849121094 532.2950439453125 463.3461608886719" stroke-width="0.0" fill="rgb(6, 0, 103)" opacity="1.0" stroke="rgb(0, 0, 0)" stroke-opacity="1.0" stroke-linecap="round" stroke-linejoin="round"/>
    <path d="M 271.3016052246094 326.3097229003906 C 274.7679138183594 323.4237060546875 268.4051208496094 309.7601318359375 249.6890411376953 327.4901428222656 C 231.48086547851562 316.4508056640625 219.93748474121094 310.0589294433594 239.32652282714844 312.81744384765625 C 248.84793090820312 320.4028625488281 265.8680419921875 307.6694030761719 265.7387390136719 275.074462890625 C 243.52845764160156 277.1139221191406 252.0685577392578 320.31964111328125 271.3016052246094 326.3097229003906" stroke-width="0.0" fill="rgb(31, 192, 21)" opacity="0.041478075" stroke="rgb(0, 0, 0)" stroke-opacity="1.0" stroke-linecap="round" stroke-linejoin="round"/>
    <path d="M 417.8877258300781 146.6028289794922 C 450.26678466796875 144.376708984375 439.7627868652344 153.6296844482422 432.2007751464844 144.99221801757812 C 412.28045654296875 152.79159545898438 407.9690856933594 155.35128784179688 440.0044250488281 142.84364318847656 C 434.9773254394531 153.0425567626953 419.2121276855469 147.1947479248047 415.8879089355469 147.4200897216797 C 419.7470703125 134.39491271972656 417.875244140625 135.15155029296875 417.8877258300781 146.6028289794922" stroke-width="0.0" fill="rgb(30, 98, 23)" opacity="0.06653048" stroke="rgb(0, 0, 0)" stroke-opacity="1.0" stroke-linecap="round" stroke-linejoin="round"/>
    <path d="M 471.3692932128906 519.583740234375 C 469.83447265625 534.4771728515625 474.2240905761719 537.5750732421875 426.8523254394531 530.0468139648438 C 423.6833190917969 519.5639038085938 437.0312194824219 495.0501403808594 434.35906982421875 470.07598876953125 C 448.83514404296875 467.70953369140625 435.8053894042969 460.23529052734375 443.27423095703125 426.72186279296875 C 471.9341125488281 438.4229736328125 475.3577880859375 490.94122314453125 471.3692932128906 519.583740234375" stroke-width="0.0" fill="rgb(86, 0, 113)" opacity="0.8987377" stroke="rgb(0, 0, 0)" stroke-opacity="1.0" stroke-linecap="round" stroke-linejoin="round"/>
    <path d="M 463.54541015625 -16.841365814208984 C 462.0895690917969 14.938404083251953 462.9225158691406 26.771339416503906 455.4997863769531 3.2373130321502686 C 483.5467529296875 15.141857147216797 440.57232666015625 14.960515022277832 419.762451171875 7.4303741455078125 C 440.8563232421875 -14.448210716247559 450.832275390625 -19.426746368408203 456.6572570800781 -25.992374420166016 C 474.8860168457031 -14.387734413146973 486.1815185546875 -6.34412956237793 463.54541015625 -16.841365814208984" stroke-width="0.0" fill="rgb(123, 58, 136)" opacity="0.5365782" stroke="rgb(0, 0, 0)" stroke-opacity="1.0" stroke-linecap="round" stroke-linejoin="round"/>
    <path d="M 192.14529418945312 258.6872863769531 C 183.51495361328125 256.8128967285156 180.2701873779297 261.3171081542969 171.91357421875 278.23822021484375 C 130.56568908691406 292.6422119140625 119.17655181884766 272.9581298828125 115.04953002929688 221.03854370117188 C 169.27719116210938 251.06240844726562 161.61154174804688 253.90457153320312 170.52943420410156 236.6580047607422 C 169.4712371826172 245.73052978515625 199.46609497070312 242.0693817138672 192.14529418945312 258.6872863769531" stroke-width="0.0" fill="rgb(254, 227, 255)" opacity="0.9991774" stroke="rgb(0, 0, 0)" stroke-opacity="1.0" stroke-linecap="round" stroke-linejoin="round"/>
    <path d="M 188.14974975585938 389.4403991699219 C 169.28778076171875 408.92279052734375 161.4029998779297 444.09051513671875 171.82965087890625 452.804443359375 C 159.24319458007812 452.52960205078125 154.2788848876953 443.8055725097656 133.76963806152344 420.3262023925781 C 134.33921813964844 402.33795166015625 154.94793701171875 400.9884033203125 161.1826934814453 419.0148010253906 C 185.86721801757812 402.3318786621094 186.0300750732422 380.7217712402344 188.14974975585938 389.4403991699219" stroke-width="0.0" fill="rgb(219, 214, 176)" opacity="0.0" stroke="rgb(0, 0, 0)" stroke-opacity="1.0" stroke-linecap="round" stroke-linejoin="round"/>
    <path d="M 167.0215301513672 237.84190368652344 C 198.064208984375 208.8368377685547 191.77500915527344 242.4330291748047 173.0423583984375 251.20933532714844 C 178.66146850585938 243.12826538085938 172.1519012451172 247.0353240966797 164.52359008789062 245.5494842529297 C 177.56983947753906 232.301513671875 196.59063720703125 218.09799194335938 208.61526489257812 244.74888610839844 C 163.49075317382812 285.57977294921875 153.27606201171875 272.4684753417969 167.0215301513672 237.84190368652344" stroke-width="0.0" fill="rgb(246, 152, 255)" opacity="0.66208476" stroke="rgb(0, 0, 0)" stroke-opacity="1.0" stroke-linecap="round" stroke-linejoin="round"/>
    <path d="M 200.10755920410156 334.663330078125 C 233.72592163085938 358.74420166015625 209.21421813964844 365.5523986816406 194.02822875976562 378.227294921875 C 181.61599731445312 363.0226745605469 188.4650115966797 372.4179382324219 179.59808349609375 362.8657531738281 C 172.4612579345703 354.3467712402344 177.5511932373047 358.6800842285156 165.80072021484375 351.01104736328125 C 170.44509887695312 339.21221923828125 188.810791015625 330.53570556640625 200.10755920410156 334.663330078125" stroke-width="0.0" fill="rgb(122, 6, 164)" opacity="0.52586484" stroke="rgb(0, 0, 0)" stroke-opacity="1.0" stroke-linecap="round" stroke-linejoin="round"/>
    <path d="M 68.48871612548828 426.3395080566406 C 66.2433090209961 424.58123779296875 58.46731948852539 448.0730895996094 48.401695251464844 440.09088134765625 C 71.08527374267578 417.6229248046875 43.54814529418945 444.88385009765625 59.87384796142578 443.73272705078125 C 63.38942337036133 465.13037109375 74.05901336669922 461.7428894042969 80.51976776123047 430.7773742675781 C 68.33434295654297 403.6535949707031 64.02267456054688 424.6051330566406 68.48871612548828 426.3395080566406" stroke-width="0.0" fill="rgb(81, 34, 184)" opacity="0.0064677037" stroke="rgb(0, 0, 0)" stroke-opacity="1.0" stroke-linecap="round" stroke-linejoin="round"/>
    <path d="M 465.5729675292969 427.61676025390625 C 479.23309326171875 471.3262634277344 491.9143371582031 470.9276428222656 440.0219421386719 475.543701171875 C 451.7075500488281 447.08343505859375 445.7817077636719 438.27215576171875 440.8925476074219 460.89666748046875 C 439.5114440917969 463.6798400878906 452.47760009765625 448.8184814453125 495.64459228515625 459.6095275878906 C 482.28778076171875 398.8515319824219 484.58319091796875 407.6812438964844 465.5729675292969 427.61676025390625" stroke-width="0.0" fill="rgb(128, 77, 54)" opacity="0.013489974" stroke="rgb(0, 0, 0)" stroke-opacity="1.0" stroke-linecap="round" stroke-linejoin="round"/>
    <path d="M 485.0939025878906 356.8795471191406 C 537.6046752929688 389.1602478027344 534.6611938476562 419.39605712890625 450.3669738769531 406.9681091308594 C 416.7587890625 407.3312072753906 384.5643005371094 416.25439453125 383.4424133300781 396.5771179199219 C 422.2751159667969 358.3681945800781 437.5360412597656 358.6548767089844 435.68023681640625 353.173095703125 C 448.79058837890625 348.6111145019531 464.7486267089844 362.8892822265625 485.0939025878906 356.8795471191406" stroke-width="0.0" fill="rgb(0, 15, 73)" opacity="0.09827983" stroke="rgb(0, 0, 0)" stroke-opacity="1.0" stroke-linecap="round" stroke-linejoin="round"/>
    <path d="M 38.92427444458008 111.96150207519531 C 76.29468536376953 108.3480224609375 44.64533996582031 128.541259765625 -10.192328453063965 148.51568603515625 C 16.245634078979492 144.5493927001953 51.88589096069336 164.13119506835938 66.65589141845703 112.40377807617188 C -26.78679847717285 99.1105728149414 6.496889591217041 100.14969635009766 26.38128662109375 91.34668731689453 C 25.646875381469727 77.64488220214844 29.603181838989258 92.98815155029297 38.92427444458008 111.96150207519531" stroke-width="0.0" fill="rgb(254, 241, 236)" opacity="0.026724" stroke="rgb(0, 0, 0)" stroke-opacity="1.0" stroke-linecap="round" stroke-linejoin="round"/>
    <path d="M 58.44367980957031 476.7607727050781 C 52.47970962524414 484.1883850097656 56.726463317871094 495.2830505371094 24.710067749023438 513.1304321289062 C 9.446367263793945 507.451904296875 -1.4386098384857178 497.9695739746094 8.141953468322754 468.9986572265625 C 7.685838222503662 440.94482421875 0.9810225963592529 438.4071960449219 21.955997467041016 432.48834228515625 C 41.411163330078125 428.88873291015625 42.58212661743164 456.5144958496094 58.44367980957031 476.7607727050781" stroke-width="0.0" fill="rgb(249, 255, 188)" opacity="0.009064727" stroke="rgb(0, 0, 0)" stroke-opacity="1.0" stroke-linecap="round" stroke-linejoin="round"/>
    <path d="M 108.70074462890625 240.47183227539062 C 117.4988784790039 220.9343719482422 128.31008911132812 227.3643798828125 132.70347595214844 276.96038818359375 C 125.64957427978516 277.34417724609375 99.3785400390625 270.59564208984375 96.95358276367188 226.53524780273438 C 138.61534118652344 203.7758331298828 125.09661865234375 219.55422973632812 154.83038330078125 196.5581817626953 C 183.3814697265625 187.52183532714844 138.12709045410156 231.69107055664062 108.70074462890625 240.47183227539062" stroke-width="0.0" fill="rgb(255, 253, 255)" opacity="0.9917205" stroke="rgb(0, 0, 0)" stroke-opacity="1.0" stroke-linecap="round" stroke-linejoin="round"/>
    <path d="M 345.149658203125 13.686007499694824 C 333.8483581542969 77.90866088867188 340.50970458984375 83.1231918334961 289.5130615234375 61.31562042236328 C 239.60977172851562 50.1856803894043 240.67636108398438 33.620697021484375 253.235107421875 21.78231430053711 C 253.6024627685547 -24.383981704711914 256.7142639160156 -25.218454360961914 276.2472229003906 -24.21025276184082 C 301.58660888671875 -21.56051254272461 315.6799621582031 -19.07000732421875 345.149658203125 13.686007499694824" stroke-width="0.0" fill="rgb(102, 199, 68)" opacity="0.040855657" stroke="rgb(0, 0, 0)" stroke-opacity="1.0" stroke-linecap="round" stroke-linejoin="round"/>
    <path d="M 136.80238342285156 153.05262756347656 C 129.00025939941406 159.45863342285156 122.64059448242188 172.98529052734375 116.94132995605469 182.7941131591797 C 104.87158203125 183.3456573486328 109.7797622680664 161.19882202148438 76.6075439453125 143.42742919921875 C 99.29934692382812 129.54898071289062 117.7591323852539 113.20919036865234 133.1556396484375 140.3720245361328 C 143.3397979736328 147.69915771484375 140.78346252441406 152.6910858154297 136.80238342285156 153.05262756347656" stroke-width="0.0" fill="rgb(184, 195, 154)" opacity="0.0" stroke="rgb(0, 0, 0)" stroke-opacity="1.0" stroke-linecap="round" stroke-linejoin="round"/>
    <path d="M 490.3191833496094 226.60618591308594 C 451.69805908203125 232.43994140625 440.5055236816406 234.42457580566406 420.2456970214844 239.9366912841797 C 426.4969482421875 226.38970947265625 443.0335998535156 237.09326171875 425.89678955078125 241.04856872558594 C 434.77313232421875 239.76182556152344 442.36865234375 238.36776733398438 461.81060791015625 230.8728485107422 C 449.64068603515625 228.52732849121094 462.8474426269531 214.0574493408203 490.3191833496094 226.60618591308594" stroke-width="0.0" fill="rgb(85, 68, 37)" opacity="0.2425129" stroke="rgb(0, 0, 0)" stroke-opacity="1.0" stroke-linecap="round" stroke-linejoin="round"/>
    <path d="M 406.30218505859375 336.2226257324219 C 405.64056396484375 376.2296447753906 406.5647888183594 396.8891906738281 393.9667053222656 437.2828369140625 C 334.9958801269531 456.44586181640625 315.7237243652344 453.6423645019531 330.0767517089844 422.9796447753906 C 320.5559997558594 375.8644104003906 333.7688293457031 373.20953369140625 347.1386413574219 352.30810546875 C 341.4284973144531 351.3816223144531 376.7441101074219 353.5284729003906 406.30218505859375 336.2226257324219" stroke-width="0.0" fill="rgb(146, 1, 186)" opacity="0.79484904" stroke="rgb(0, 0, 0)" stroke-opacity="1.0" stroke-linecap="round" stroke-linejoin="round"/>
    <path d="M 398.0633850097656 241.58929443359375 C 377.3611755371094 228.83111572265625 364.15704345703125 212.21385192871094 338.3134460449219 221.18670654296875 C 347.97198486328125 187.69277954101562 350.0300598144531 175.05984497070312 351.9007873535156 189.47232055664062 C 310.63055419921875 243.4518280029297 315.2610778808594 203.99696350097656 314.4835510253906 158.9580841064453 C 395.0692138671875 170.99981689453125 368.0878601074219 164.94772338867188 398.0633850097656 241.58929443359375" stroke-width="0.0" fill="rgb(156, 17, 158)" opacity="0.59032613" stroke="rgb(0, 0, 0)" stroke-opacity="1.0" stroke-linecap="round" stroke-linejoin="round"/>
    <path d="M 102.63074493408203 461.462890625 C 119.65345764160156 464.2338562011719 105.80888366699219 469.8067932128906 88.8038330078125 477.76409912109375 C 75.82000732421875 463.2402038574219 79.88943481445312 437.7445983886719 67.96147155761719 448.4453125 C 72.36729431152344 447.0082092285156 105.710693359375 427.9769592285156 98.77356719970703 441.634033203125 C 114.58911895751953 443.49566650390625 106.11417388916016 431.1235046386719 102.63074493408203 461.462890625" stroke-width="0.0" fill="rgb(181, 113, 179)" opacity="0.0" stroke="rgb(0, 0, 0)" stroke-opacity="1.0" stroke-linecap="round" stroke-linejoin="round"/>
    <path d="M 55.15015411376953 470.72125244140625 C 72.59687042236328 483.6136474609375 76.1964340209961 480.9696044921875 72.0622787475586 480.591552734375 C 53.89447784423828 481.4465026855469 31.63620376586914 472.7344970703125 12.921070098876953 439.1993713378906 C 36.322425842285156 446.7413635253906 51.488582611083984 447.1191711425781 58.46347427368164 431.9879455566406 C 31.88928985595703 449.0229187011719 50.20589065551758 476.1747741699219 55.15015411376953 470.72125244140625" stroke-width="0.0" fill="rgb(254, 254, 151)" opacity="0.019104626" stroke="rgb(0, 0, 0)" stroke-opacity="1.0" stroke-linecap="round" stroke-linejoin="round"/>
  </g>
</svg>
