<?xml version="1.0" ?>
<svg xmlns="http://www.w3.org/2000/svg" version="1.1" width="512" height="512">
  <defs/>
  <g>
    <path d="M 535.1259155273438 410.905517578125 C 547.8762817382812 517.3806762695312 549.523193359375 525.7646484375 362.4031066894531 551.1278686523438 C 288.33355712890625 565.974609375 262.89691162109375 563.9161376953125 173.00701904296875 471.46844482421875 C 335.4404602050781 319.80340576171875 356.39385986328125 336.8722229003906 393.4574279785156 353.16119384765625 C 541.01953125 353.3430480957031 553.5776977539062 342.6554870605469 535.1259155273438 410.905517578125" stroke-width="0.0" fill="rgb(106, 162, 254)" opacity="0.0029769219" stroke="rgb(0, 0, 0)" stroke-opacity="1.0" stroke-linecap="round" stroke-linejoin="round"/>
    <path d="M 292.6319580078125 308.9966125488281 C 209.52574157714844 376.4569396972656 229.23609924316406 426.4793701171875 223.21295166015625 528.2544555664062 C -51.20000076293945 524.0781860351562 -51.20000076293945 515.5620727539062 -45.45450973510742 415.52142333984375 C -28.622011184692383 192.7648162841797 -27.020967483520508 178.78211975097656 49.52703857421875 187.2585906982422 C 250.0929718017578 209.0856170654297 281.3399963378906 195.9708251953125 292.6319580078125 308.9966125488281" stroke-width="0.0" fill="rgb(44, 66, 97)" opacity="0.863111" stroke="rgb(0, 0, 0)" stroke-opacity="1.0" stroke-linecap="round" stroke-linejoin="round"/>
    <path d="M 229.19696044921875 -35.91553497314453 C 146.81594848632812 177.90267944335938 225.0145721435547 263.6382751464844 46.18033981323242 395.7754211425781 C -153.97190856933594 373.61566162109375 -120.37617492675781 312.0929260253906 -103.6083755493164 219.60035705566406 C -15.812456130981445 -17.697975158691406 -9.716771125793457 -23.272192001342773 27.615015029907227 -17.582897186279297 C 195.79283142089844 -21.859926223754883 231.64715576171875 -39.381500244140625 229.19696044921875 -35.91553497314453" stroke-width="0.0" fill="rgb(0, 0, 248)" opacity="1.0" stroke="rgb(0, 0, 0)" stroke-opacity="1.0" stroke-linecap="round" stroke-linejoin="round"/>
    <path d="M 543.6124267578125 104.01344299316406 C 458.6103210449219 293.93035888671875 447.842529296875 298.7781677246094 318.4178466796875 305.19476318359375 C 260.786376953125 336.357177734375 328.3565368652344 293.138916015625 207.14422607421875 140.41653442382812 C 254.7602081298828 116.48951721191406 236.1746063232422 78.08104705810547 298.3540954589844 -34.45885467529297 C 563.2000122070312 -12.327669143676758 556.7141723632812 3.000692367553711 543.6124267578125 104.01344299316406" stroke-width="0.0" fill="rgb(0, 11, 106)" opacity="1.0" stroke="rgb(0, 0, 0)" stroke-opacity="1.0" stroke-linecap="round" stroke-linejoin="round"/>
    <path d="M 364.78472900390625 33.69981002807617 C 195.39842224121094 237.22756958007812 200.9859161376953 270.4816589355469 180.46714782714844 218.64291381835938 C 40.200904846191406 223.64056396484375 94.20082092285156 265.8898010253906 4.6463494300842285 202.73231506347656 C 56.244544982910156 119.36415100097656 90.67418670654297 138.0042266845703 262.91033935546875 -6.069301605224609 C 340.9560241699219 -30.18771743774414 374.3752746582031 -36.91868209838867 364.78472900390625 33.69981002807617" stroke-width="0.0" fill="rgb(3, 12, 222)" opacity="0.5190589" stroke="rgb(0, 0, 0)" stroke-opacity="1.0" stroke-linecap="round" stroke-linejoin="round"/>
    <path d="M 396.81976318359375 311.0246887207031 C 391.5495300292969 392.91552734375 403.647216796875 408.9824523925781 185.1585693359375 408.95849609375 C 214.95713806152344 468.83319091796875 206.70799255371094 462.8792419433594 140.4680633544922 453.6773681640625 C 130.83094787597656 190.40443420410156 223.7748565673828 206.09083557128906 288.2310791015625 258.55035400390625 C 422.6575927734375 302.7632141113281 484.9872131347656 274.8731689453125 396.81976318359375 311.0246887207031" stroke-width="0.0" fill="rgb(0, 32, 116)" opacity="0.79643196" stroke="rgb(0, 0, 0)" stroke-opacity="1.0" stroke-linecap="round" stroke-linejoin="round"/>
    <path d="M 570.759521484375 239.10763549804688 C 579.6539306640625 312.58251953125 571.6654052734375 326.8274230957031 408.3983154296875 323.3047180175781 C 263.22198486328125 341.47076416015625 303.7368469238281 370.10296630859375 426.0578918457031 190.90049743652344 C 433.8941955566406 -15.196945190429688 254.4293670654297 7.806396961212158 451.9267883300781 -7.324911594390869 C 542.7622680664062 60.11128616333008 549.2892456054688 97.63489532470703 570.759521484375 239.10763549804688" stroke-width="0.0" fill="rgb(233, 111, 49)" opacity="0.96228236" stroke="rgb(0, 0, 0)" stroke-opacity="1.0" stroke-linecap="round" stroke-linejoin="round"/>
    <path d="M 363.4792785644531 309.8036804199219 C 283.67694091796875 323.3979797363281 357.90203857421875 308.9954528808594 291.0610656738281 328.0036315917969 C 229.49386596679688 424.13507080078125 198.23919677734375 357.99078369140625 284.9949645996094 197.8502197265625 C 198.58929443359375 207.1248016357422 24.932422637939453 228.73606872558594 311.5059509277344 247.1724395751953 C 382.2972717285156 166.05636596679688 448.6356506347656 223.57212829589844 363.4792785644531 309.8036804199219" stroke-width="0.0" fill="rgb(196, 212, 176)" opacity="0.6984175" stroke="rgb(0, 0, 0)" stroke-opacity="1.0" stroke-linecap="round" stroke-linejoin="round"/>
    <path d="M 472.8927917480469 148.4683074951172 C 397.1059875488281 255.6555633544922 363.4093017578125 228.18844604492188 359.85296630859375 303.0536804199219 C 360.864013671875 260.0396728515625 303.70538330078125 241.06959533691406 384.4077453613281 186.40313720703125 C 409.0235900878906 161.12020874023438 339.24798583984375 141.2005615234375 343.29620361328125 130.43772888183594 C 439.4047546386719 5.775063991546631 461.9454650878906 -66.98373413085938 472.8927917480469 148.4683074951172" stroke-width="0.0" fill="rgb(125, 139, 213)" opacity="0.37099195" stroke="rgb(0, 0, 0)" stroke-opacity="1.0" stroke-linecap="round" stroke-linejoin="round"/>
    <path d="M 259.40283203125 253.7234649658203 C 160.68026733398438 210.25450134277344 224.3419952392578 244.4069366455078 94.31437683105469 367.3930969238281 C 68.34432983398438 362.35992431640625 185.76596069335938 281.36517333984375 169.15724182128906 239.1090545654297 C 199.16683959960938 220.37164306640625 192.8306427001953 232.05291748046875 189.69850158691406 211.9911346435547 C 381.9958190917969 208.06039428710938 266.89501953125 209.80470275878906 259.40283203125 253.7234649658203" stroke-width="0.0" fill="rgb(244, 190, 189)" opacity="0.8897086" stroke="rgb(0, 0, 0)" stroke-opacity="1.0" stroke-linecap="round" stroke-linejoin="round"/>
    <path d="M 408.72265625 327.3822937011719 C 390.9453125 257.6862487792969 353.3223876953125 296.11676025390625 376.7682800292969 419.8388977050781 C 208.113037109375 357.15789794921875 227.800048828125 332.5068359375 323.84197998046875 269.56353759765625 C 385.6762390136719 248.58995056152344 382.9140319824219 231.20217895507812 455.7308044433594 168.78790283203125 C 507.10223388671875 233.9710235595703 408.441162109375 210.1612091064453 408.72265625 327.3822937011719" stroke-width="0.0" fill="rgb(251, 111, 35)" opacity="0.9988631" stroke="rgb(0, 0, 0)" stroke-opacity="1.0" stroke-linecap="round" stroke-linejoin="round"/>
    <path d="M 252.59738159179688 315.4258728027344 C 209.3637237548828 389.9583740234375 191.63821411132812 429.0982971191406 186.34597778320312 460.7529602050781 C 96.70540618896484 433.6419677734375 104.64360046386719 415.3562927246094 83.70096588134766 364.94580078125 C 102.61914825439453 379.3329162597656 125.27464294433594 368.02874755859375 180.9351043701172 295.16473388671875 C 235.85894775390625 201.51222229003906 247.28648376464844 171.30853271484375 252.59738159179688 315.4258728027344" stroke-width="0.0" fill="rgb(194, 205, 135)" opacity="0.6763715" stroke="rgb(0, 0, 0)" stroke-opacity="1.0" stroke-linecap="round" stroke-linejoin="round"/>
    <path d="M 547.36474609375 36.69603729248047 C 546.8214111328125 101.14716339111328 563.2000122070312 131.33303833007812 551.3221435546875 98.88749694824219 C 394.72674560546875 109.73531341552734 466.3536071777344 66.5465316772461 321.566162109375 134.5615692138672 C 260.42333984375 -38.25770568847656 313.0633239746094 -40.46186447143555 406.2248229980469 -36.220733642578125 C 541.44287109375 -11.839082717895508 540.9603881835938 -2.2575111389160156 547.36474609375 36.69603729248047" stroke-width="0.0" fill="rgb(0, 0, 250)" opacity="1.0" stroke="rgb(0, 0, 0)" stroke-opacity="1.0" stroke-linecap="round" stroke-linejoin="round"/>
    <path d="M 336.31842041015625 433.5362854003906 C 325.4374694824219 449.6785888671875 285.0890197753906 441.05810546875 248.61260986328125 439.72967529296875 C 243.86529541015625 457.0196228027344 202.29568481445312 467.3788146972656 181.06094360351562 456.3755798339844 C 205.49740600585938 369.61358642578125 218.2052764892578 340.8808898925781 248.85247802734375 353.3109436035156 C 289.1169128417969 386.7594299316406 282.9292907714844 462.99652099609375 336.31842041015625 433.5362854003906" stroke-width="0.0" fill="rgb(90, 255, 0)" opacity="0.9954299" stroke="rgb(0, 0, 0)" stroke-opacity="1.0" stroke-linecap="round" stroke-linejoin="round"/>
    <path d="M 239.1851043701172 253.15911865234375 C 228.73452758789062 164.93386840820312 236.97268676757812 236.59927368164062 151.9559326171875 341.23077392578125 C 42.114105224609375 463.9662780761719 194.92849731445312 305.43450927734375 164.07437133789062 255.12008666992188 C 208.19744873046875 177.256103515625 143.0478057861328 214.37318420410156 213.97825622558594 206.5401153564453 C 265.92254638671875 228.86148071289062 254.26475524902344 200.03323364257812 239.1851043701172 253.15911865234375" stroke-width="0.0" fill="rgb(0, 20, 73)" opacity="0.742763" stroke="rgb(0, 0, 0)" stroke-opacity="1.0" stroke-linecap="round" stroke-linejoin="round"/>
    <path d="M 373.7233581542969 7.005826950073242 C 298.04034423828125 126.90922546386719 293.7575988769531 168.66436767578125 252.14666748046875 88.25981140136719 C 212.9788055419922 30.369937896728516 181.6002960205078 102.3880844116211 142.66305541992188 73.84109497070312 C 185.8651885986328 31.729793548583984 202.13766479492188 30.831005096435547 192.7073974609375 -2.2882115840911865 C 192.54139709472656 -46.867225646972656 250.53890991210938 -64.02513885498047 373.7233581542969 7.005826950073242" stroke-width="0.0" fill="rgb(9, 5, 249)" opacity="0.9981155" stroke="rgb(0, 0, 0)" stroke-opacity="1.0" stroke-linecap="round" stroke-linejoin="round"/>
    <path d="M 69.73906707763672 466.96185302734375 C 76.40042877197266 484.5194091796875 66.88948059082031 457.9939880371094 2.4591000080108643 502.9039001464844 C -22.56023406982422 475.3215026855469 -13.1873197555542 445.68585205078125 -13.623167991638184 408.38323974609375 C 4.640868663787842 397.4494934082031 33.079559326171875 395.6343688964844 100.79551696777344 371.0094909667969 C 100.24351501464844 314.3633728027344 69.42362976074219 341.5829772949219 69.73906707763672 466.96185302734375" stroke-width="0.0" fill="rgb(201, 111, 55)" opacity="0.877476" stroke="rgb(0, 0, 0)" stroke-opacity="1.0" stroke-linecap="round" stroke-linejoin="round"/>
    <path d="M 368.7862548828125 121.77080535888672 C 380.5164794921875 149.7770233154297 364.8564453125 205.9859619140625 295.5212707519531 221.8249969482422 C 156.24375915527344 132.79014587402344 -5.315816879272461 340.3928527832031 180.8809814453125 105.54393005371094 C 326.9219970703125 169.92007446289062 224.10675048828125 123.04113006591797 307.76617431640625 91.0960464477539 C 354.9317932128906 98.77596282958984 347.73785400390625 101.92949676513672 368.7862548828125 121.77080535888672" stroke-width="0.0" fill="rgb(4, 255, 0)" opacity="1.0" stroke="rgb(0, 0, 0)" stroke-opacity="1.0" stroke-linecap="round" stroke-linejoin="round"/>
    <path d="M 329.017333984375 306.6907653808594 C 254.21502685546875 242.7820587158203 234.76856994628906 324.19927978515625 230.35353088378906 343.5813293457031 C 243.4047393798828 351.8463439941406 266.06982421875 328.4940490722656 219.7403564453125 317.25494384765625 C 123.23709869384766 469.739013671875 183.0718994140625 430.1366882324219 294.8785400390625 401.4622497558594 C 268.5421142578125 347.7411804199219 257.8858947753906 374.9122009277344 329.017333984375 306.6907653808594" stroke-width="0.0" fill="rgb(255, 80, 14)" opacity="1.0" stroke="rgb(0, 0, 0)" stroke-opacity="1.0" stroke-linecap="round" stroke-linejoin="round"/>
    <path d="M 411.9175109863281 169.41969299316406 C 413.9710388183594 121.50413513183594 432.3255920410156 203.97271728515625 401.42071533203125 228.8998260498047 C 355.9736022949219 187.42262268066406 356.0752868652344 177.17579650878906 355.8064270019531 171.23605346679688 C 366.4710388183594 204.78033447265625 356.9078674316406 173.56068420410156 357.6103210449219 180.94305419921875 C 363.154052734375 184.5433807373047 365.68658447265625 230.6795196533203 411.9175109863281 169.41969299316406" stroke-width="0.0" fill="rgb(189, 172, 184)" opacity="0.65926033" stroke="rgb(0, 0, 0)" stroke-opacity="1.0" stroke-linecap="round" stroke-linejoin="round"/>
    <path d="M 178.65097045898438 210.9865264892578 C 84.18180847167969 329.98583984375 108.00125122070312 265.0316467285156 52.117855072021484 382.4194641113281 C 88.23704528808594 319.745849609375 62.751434326171875 317.4735412597656 89.4504623413086 210.77488708496094 C 135.11830139160156 251.7252197265625 65.66814422607422 248.55052185058594 117.25574493408203 243.7627716064453 C 18.81922149658203 160.37490844726562 260.07342529296875 184.96604919433594 178.65097045898438 210.9865264892578" stroke-width="0.0" fill="rgb(252, 15, 189)" opacity="0.5318297" stroke="rgb(0, 0, 0)" stroke-opacity="1.0" stroke-linecap="round" stroke-linejoin="round"/>
    <path d="M 296.3251037597656 231.56326293945312 C 298.37908935546875 223.79605102539062 241.12538146972656 256.9065246582031 252.4374237060547 178.89825439453125 C 267.09307861328125 178.87010192871094 132.19483947753906 197.4669647216797 207.45225524902344 197.06784057617188 C 289.96136474609375 196.95228576660156 286.15985107421875 190.02755737304688 284.5489501953125 190.86488342285156 C 283.5149230957031 186.31602478027344 271.2275085449219 205.38404846191406 296.3251037597656 231.56326293945312" stroke-width="0.0" fill="rgb(187, 161, 193)" opacity="0.7681705" stroke="rgb(0, 0, 0)" stroke-opacity="1.0" stroke-linecap="round" stroke-linejoin="round"/>
    <path d="M 149.70135498046875 302.5509033203125 C 102.51480865478516 330.3390197753906 88.74779510498047 346.44708251953125 78.28594970703125 373.9219970703125 C 78.0140151977539 339.4239196777344 96.75506591796875 344.6728210449219 88.70695495605469 301.2472229003906 C 67.52295684814453 288.4323425292969 79.38479614257812 253.16390991210938 87.28545379638672 276.64581298828125 C 64.10189819335938 331.8536376953125 115.07698822021484 326.02056884765625 149.70135498046875 302.5509033203125" stroke-width="0.0" fill="rgb(13, 51, 138)" opacity="0.19905084" stroke="rgb(0, 0, 0)" stroke-opacity="1.0" stroke-linecap="round" stroke-linejoin="round"/>
    <path d="M 164.1009521484375 212.31295776367188 C 11.511079788208008 275.16644287109375 59.3968391418457 250.81529235839844 43.66510009765625 285.4530029296875 C 79.8108139038086 361.091552734375 92.41682434082031 369.0561828613281 72.02177429199219 333.28387451171875 C 59.369041442871094 241.1005859375 30.909278869628906 280.8565979003906 87.51560974121094 229.9946746826172 C 135.14434814453125 232.03756713867188 204.6975860595703 185.46060180664062 164.1009521484375 212.31295776367188" stroke-width="0.0" fill="rgb(107, 83, 255)" opacity="0.6864531" stroke="rgb(0, 0, 0)" stroke-opacity="1.0" stroke-linecap="round" stroke-linejoin="round"/>
    <path d="M 258.6413879394531 225.79771423339844 C 252.93844604492188 283.64263916015625 259.2677307128906 295.6974792480469 255.7742919921875 328.4483337402344 C 244.97012329101562 271.0652160644531 255.2508544921875 231.5802459716797 248.39166259765625 239.48512268066406 C 271.7059631347656 257.38470458984375 290.4638977050781 273.274658203125 285.19891357421875 211.08387756347656 C 253.75192260742188 207.97235107421875 267.6400451660156 211.41217041015625 258.6413879394531 225.79771423339844" stroke-width="0.0" fill="rgb(0, 33, 255)" opacity="0.9990531" stroke="rgb(0, 0, 0)" stroke-opacity="1.0" stroke-linecap="round" stroke-linejoin="round"/>
    <path d="M 273.2298583984375 117.88477325439453 C 245.9854736328125 214.85116577148438 354.4748840332031 221.92840576171875 176.48629760742188 224.95790100097656 C 189.9484405517578 310.3812561035156 -0.1518172323703766 270.1435546875 124.33030700683594 128.2034454345703 C 188.4140167236328 37.6109619140625 255.3207244873047 87.72715759277344 254.4331817626953 111.15882873535156 C 238.4213104248047 114.1978759765625 273.0770568847656 106.84882354736328 273.2298583984375 117.88477325439453" stroke-width="0.0" fill="rgb(0, 0, 255)" opacity="0.99662334" stroke="rgb(0, 0, 0)" stroke-opacity="1.0" stroke-linecap="round" stroke-linejoin="round"/>
    <path d="M 300.43145751953125 264.61944580078125 C 287.9580993652344 181.16845703125 282.04266357421875 210.03121948242188 283.47576904296875 233.2232208251953 C 293.1136779785156 247.00460815429688 293.5229187011719 196.88238525390625 289.5160217285156 207.77125549316406 C 303.95379638671875 176.71316528320312 292.3976745605469 237.15518188476562 310.5587158203125 212.33663940429688 C 326.6555480957031 304.53076171875 325.9613342285156 148.95101928710938 300.43145751953125 264.61944580078125" stroke-width="0.0" fill="rgb(0, 23, 110)" opacity="0.3888408" stroke="rgb(0, 0, 0)" stroke-opacity="1.0" stroke-linecap="round" stroke-linejoin="round"/>
    <path d="M 286.400390625 411.9818420410156 C 299.8153991699219 457.7061767578125 298.1001892089844 449.65814208984375 205.8415069580078 442.76214599609375 C 209.55084228515625 432.1077575683594 212.9105682373047 439.64105224609375 103.69954681396484 451.6212463378906 C 216.42909240722656 462.1021728515625 233.34156799316406 447.9674072265625 250.9779052734375 421.2359924316406 C 249.6268310546875 411.4093322753906 252.50137329101562 400.1255187988281 286.400390625 411.9818420410156" stroke-width="0.0" fill="rgb(246, 84, 170)" opacity="0.012519647" stroke="rgb(0, 0, 0)" stroke-opacity="1.0" stroke-linecap="round" stroke-linejoin="round"/>
    <path d="M 149.67416381835938 163.88816833496094 C 192.19151306152344 151.1100616455078 177.59991455078125 187.54087829589844 162.93072509765625 231.00502014160156 C 83.17052459716797 225.843505859375 90.52790832519531 225.76600646972656 136.86376953125 228.56820678710938 C 162.71604919433594 209.6962890625 143.31658935546875 197.6907196044922 129.58132934570312 198.47840881347656 C 139.9174346923828 197.5904541015625 140.418212890625 209.6973876953125 149.67416381835938 163.88816833496094" stroke-width="0.0" fill="rgb(9, 11, 200)" opacity="0.07162787" stroke="rgb(0, 0, 0)" stroke-opacity="1.0" stroke-linecap="round" stroke-linejoin="round"/>
    <path d="M 89.72113037109375 304.7102966308594 C 107.46785736083984 290.9527587890625 93.10881042480469 300.0502624511719 76.09954071044922 315.23565673828125 C 66.31321716308594 307.79925537109375 80.07075500488281 331.3485107421875 46.59056854248047 293.67633056640625 C 76.53548431396484 274.0787658691406 95.13661193847656 282.212646484375 59.696746826171875 289.1435546875 C 81.94683837890625 280.73638916015625 113.65931701660156 277.5807800292969 89.72113037109375 304.7102966308594" stroke-width="0.0" fill="rgb(245, 8, 242)" opacity="0.9644065" stroke="rgb(0, 0, 0)" stroke-opacity="1.0" stroke-linecap="round" stroke-linejoin="round"/>
    <path d="M 283.1574401855469 479.432861328125 C 292.6714782714844 467.22503662109375 269.65570068359375 457.337890625 237.40089416503906 453.75079345703125 C 252.03643798828125 418.62481689453125 245.58868408203125 400.7758483886719 265.82666015625 402.5982971191406 C 277.83624267578125 402.616455078125 282.29986572265625 386.3940734863281 290.99298095703125 394.0194091796875 C 299.8124084472656 390.7107238769531 298.7908020019531 392.60565185546875 283.1574401855469 479.432861328125" stroke-width="0.0" fill="rgb(171, 220, 220)" opacity="0.9987933" stroke="rgb(0, 0, 0)" stroke-opacity="1.0" stroke-linecap="round" stroke-linejoin="round"/>
    <path d="M 415.0018615722656 455.2904968261719 C 362.17181396484375 443.285888671875 367.37774658203125 463.459716796875 388.27850341796875 465.6023254394531 C 407.252197265625 443.00225830078125 386.566162109375 443.1338195800781 372.0570068359375 412.0966796875 C 399.5681457519531 421.70489501953125 394.3961181640625 428.1790466308594 422.8544006347656 398.4928283691406 C 471.4430847167969 412.8966369628906 467.99066162109375 463.40234375 415.0018615722656 455.2904968261719" stroke-width="0.0" fill="rgb(103, 255, 213)" opacity="0.5170686" stroke="rgb(0, 0, 0)" stroke-opacity="1.0" stroke-linecap="round" stroke-linejoin="round"/>
    <path d="M 323.5853271484375 382.2115173339844 C 323.6221618652344 424.96624755859375 311.6993103027344 416.4768371582031 245.28402709960938 413.984375 C 252.70516967773438 400.9507141113281 223.10926818847656 412.3127746582031 209.49539184570312 406.7787780761719 C 236.01101684570312 361.8965759277344 246.96786499023438 340.9992370605469 260.7763977050781 331.84466552734375 C 290.8799133300781 349.3440246582031 297.9764709472656 365.9666442871094 323.5853271484375 382.2115173339844" stroke-width="0.0" fill="rgb(255, 91, 55)" opacity="0.96505606" stroke="rgb(0, 0, 0)" stroke-opacity="1.0" stroke-linecap="round" stroke-linejoin="round"/>
    <path d="M 340.3896484375 87.46575927734375 C 249.95709228515625 97.37903594970703 282.5580139160156 93.41350555419922 266.75494384765625 122.33267211914062 C 249.2310028076172 111.17145538330078 269.15106201171875 107.83325958251953 275.25726318359375 123.95769500732422 C 270.8560485839844 121.4310073852539 282.1109313964844 105.65528106689453 288.7840576171875 83.67882537841797 C 321.1944580078125 102.58456420898438 343.1535949707031 95.76375579833984 340.3896484375 87.46575927734375" stroke-width="0.0" fill="rgb(59, 46, 144)" opacity="0.109258994" stroke="rgb(0, 0, 0)" stroke-opacity="1.0" stroke-linecap="round" stroke-linejoin="round"/>
    <path d="M 363.7636413574219 433.8059387207031 C 381.7398681640625 426.1885681152344 348.17205810546875 420.2198181152344 310.5693359375 420.0292663574219 C 333.85211181640625 421.32562255859375 310.4554138183594 397.1514892578125 281.0234069824219 390.8766784667969 C 275.1962890625 389.6124572753906 289.58575439453125 394.9132995605469 315.9787292480469 388.13104248046875 C 362.55908203125 384.74224853515625 377.41546630859375 363.33135986328125 363.7636413574219 433.8059387207031" stroke-width="0.0" fill="rgb(121, 224, 53)" opacity="0.7011119" stroke="rgb(0, 0, 0)" stroke-opacity="1.0" stroke-linecap="round" stroke-linejoin="round"/>
    <path d="M 425.4223327636719 121.36920166015625 C 427.2280578613281 73.42997741699219 416.7699890136719 77.00569152832031 415.1302490234375 72.93876647949219 C 377.546630859375 99.76593017578125 343.0271911621094 92.31098937988281 388.1536560058594 91.79849243164062 C 389.04583740234375 74.48876190185547 392.015625 92.59878540039062 404.61712646484375 81.77069091796875 C 403.3372802734375 81.27970886230469 402.992919921875 140.73497009277344 425.4223327636719 121.36920166015625" stroke-width="0.0" fill="rgb(0, 67, 169)" opacity="0.8325493" stroke="rgb(0, 0, 0)" stroke-opacity="1.0" stroke-linecap="round" stroke-linejoin="round"/>
    <path d="M 80.11000061035156 497.2317810058594 C 67.31537628173828 513.879638671875 65.25318908691406 535.2689819335938 56.18080139160156 527.7359008789062 C 33.01322937011719 505.7703552246094 9.057265281677246 523.4464721679688 -4.567492961883545 504.075927734375 C -0.009850472211837769 452.9239196777344 19.435317993164062 430.6078796386719 51.984493255615234 427.9853515625 C 86.51349639892578 435.5707092285156 83.52838897705078 454.0069885253906 80.11000061035156 497.2317810058594" stroke-width="0.0" fill="rgb(250, 106, 30)" opacity="0.99056053" stroke="rgb(0, 0, 0)" stroke-opacity="1.0" stroke-linecap="round" stroke-linejoin="round"/>
    <path d="M 188.25311279296875 369.09088134765625 C 193.36529541015625 369.3799743652344 178.82257080078125 382.11138916015625 166.3914794921875 406.38702392578125 C 153.2713623046875 426.3330078125 172.57369995117188 365.5276794433594 132.89590454101562 347.4055480957031 C 139.5775909423828 348.90362548828125 154.94271850585938 342.4257507324219 189.5698699951172 296.8133239746094 C 206.78453063964844 344.8420715332031 199.32855224609375 360.842041015625 188.25311279296875 369.09088134765625" stroke-width="0.0" fill="rgb(185, 190, 140)" opacity="0.3200616" stroke="rgb(0, 0, 0)" stroke-opacity="1.0" stroke-linecap="round" stroke-linejoin="round"/>
    <path d="M 188.95751953125 222.239501953125 C 159.5984344482422 256.3119201660156 141.09646606445312 275.6781005859375 182.5734100341797 290.81768798828125 C 159.32351684570312 265.9074401855469 152.4967498779297 282.79248046875 127.82305908203125 288.64996337890625 C 165.181396484375 277.72125244140625 180.68731689453125 255.0699920654297 177.63748168945312 211.71853637695312 C 214.04806518554688 223.477783203125 223.55667114257812 249.97059631347656 188.95751953125 222.239501953125" stroke-width="0.0" fill="rgb(66, 55, 154)" opacity="0.0" stroke="rgb(0, 0, 0)" stroke-opacity="1.0" stroke-linecap="round" stroke-linejoin="round"/>
    <path d="M 20.282236099243164 472.5854187011719 C 12.954290390014648 452.1040954589844 11.884805679321289 497.7611083984375 -6.094139575958252 537.8455810546875 C -11.231096267700195 516.8573608398438 -19.370819091796875 508.7378234863281 -65.87928771972656 465.89923095703125 C -70.62413024902344 428.5222473144531 -68.63389587402344 410.69989013671875 19.40195655822754 407.9660339355469 C 36.697078704833984 450.8078918457031 20.421091079711914 441.9475402832031 20.282236099243164 472.5854187011719" stroke-width="0.0" fill="rgb(226, 19, 96)" opacity="0.6588137" stroke="rgb(0, 0, 0)" stroke-opacity="1.0" stroke-linecap="round" stroke-linejoin="round"/>
    <path d="M 201.24234008789062 98.20230102539062 C 209.30804443359375 117.0897445678711 182.95639038085938 94.37444305419922 181.890869140625 114.86256408691406 C 193.96127319335938 117.4926528930664 174.7559356689453 126.31868743896484 172.92645263671875 101.63510131835938 C 171.24472045898438 105.86707305908203 176.81451416015625 82.12083435058594 189.49130249023438 106.22119903564453 C 208.9927520751953 106.10997772216797 209.4859619140625 100.5777816772461 201.24234008789062 98.20230102539062" stroke-width="0.0" fill="rgb(13, 31, 183)" opacity="0.1298862" stroke="rgb(0, 0, 0)" stroke-opacity="1.0" stroke-linecap="round" stroke-linejoin="round"/>
    <path d="M 231.78977966308594 444.3305969238281 C 255.4847412109375 439.58447265625 199.60903930664062 430.6974792480469 229.83444213867188 469.1895751953125 C 238.29478454589844 477.1160888671875 222.65533447265625 479.78857421875 182.8025360107422 467.1524963378906 C 218.08505249023438 415.4148864746094 209.9094696044922 401.09918212890625 239.6610107421875 419.5297546386719 C 223.13833618164062 448.7762756347656 218.68223571777344 468.9272155761719 231.78977966308594 444.3305969238281" stroke-width="0.0" fill="rgb(200, 255, 64)" opacity="0.051776312" stroke="rgb(0, 0, 0)" stroke-opacity="1.0" stroke-linecap="round" stroke-linejoin="round"/>
    <path d="M 387.447998046875 483.69366455078125 C 379.2270202636719 501.3406066894531 336.1322326660156 477.3193359375 317.1703186035156 493.2411193847656 C 335.7987060546875 496.5675964355469 330.225341796875 465.81585693359375 322.9562683105469 456.41522216796875 C 315.9631652832031 454.4140625 329.36004638671875 453.21636962890625 331.9653625488281 449.03692626953125 C 378.5022888183594 444.26898193359375 381.4655456542969 440.6431579589844 387.447998046875 483.69366455078125" stroke-width="0.0" fill="rgb(198, 255, 255)" opacity="0.055378962" stroke="rgb(0, 0, 0)" stroke-opacity="1.0" stroke-linecap="round" stroke-linejoin="round"/>
    <path d="M 339.2352294921875 237.05438232421875 C 316.4034423828125 238.33253479003906 322.8432922363281 270.34906005859375 278.50665283203125 253.01336669921875 C 296.3527526855469 273.08282470703125 318.0724182128906 251.24383544921875 307.19464111328125 232.2923126220703 C 337.025634765625 246.06199645996094 339.5358581542969 227.06607055664062 377.7777404785156 197.04873657226562 C 360.66864013671875 228.08541870117188 352.2476806640625 244.19650268554688 339.2352294921875 237.05438232421875" stroke-width="0.0" fill="rgb(198, 190, 139)" opacity="0.28173274" stroke="rgb(0, 0, 0)" stroke-opacity="1.0" stroke-linecap="round" stroke-linejoin="round"/>
    <path d="M 486.4538879394531 433.8211669921875 C 523.5798950195312 465.9919128417969 529.5344848632812 480.64483642578125 484.4591979980469 494.9645690917969 C 449.42047119140625 517.3970336914062 461.57537841796875 475.172119140625 459.9438781738281 428.30914306640625 C 439.81134033203125 406.34503173828125 437.4728088378906 412.7571105957031 463.7752380371094 402.7926330566406 C 456.7945556640625 387.27740478515625 466.8425598144531 388.8228454589844 486.4538879394531 433.8211669921875" stroke-width="0.0" fill="rgb(255, 171, 155)" opacity="0.11279013" stroke="rgb(0, 0, 0)" stroke-opacity="1.0" stroke-linecap="round" stroke-linejoin="round"/>
    <path d="M 192.9371337890625 420.4559020996094 C 204.27255249023438 492.163818359375 189.0089874267578 507.83013916015625 207.84837341308594 468.48004150390625 C 148.52012634277344 454.2708740234375 134.37855529785156 434.5306091308594 113.18074035644531 408.8551025390625 C 121.66925048828125 372.965576171875 179.753173828125 370.5523986816406 187.31057739257812 400.39404296875 C 193.75564575195312 400.91387939453125 195.2598876953125 402.50128173828125 192.9371337890625 420.4559020996094" stroke-width="0.0" fill="rgb(233, 102, 0)" opacity="1.0" stroke="rgb(0, 0, 0)" stroke-opacity="1.0" stroke-linecap="round" stroke-linejoin="round"/>
    <path d="M 334.55419921875 448.0754699707031 C 327.1029052734375 426.7906799316406 335.15130615234375 462.6665344238281 338.4237365722656 419.75323486328125 C 266.76611328125 417.25927734375 242.63290405273438 437.8505859375 239.28744506835938 426.4252624511719 C 237.56768798828125 380.0082092285156 265.490478515625 375.2581481933594 294.0563049316406 394.4178771972656 C 308.1092529296875 364.2860107421875 334.9278869628906 372.9061279296875 334.55419921875 448.0754699707031" stroke-width="0.0" fill="rgb(167, 3, 215)" opacity="0.9840421" stroke="rgb(0, 0, 0)" stroke-opacity="1.0" stroke-linecap="round" stroke-linejoin="round"/>
    <path d="M 471.0874328613281 400.8684387207031 C 395.83477783203125 393.8667907714844 431.916748046875 442.0340576171875 392.1618957519531 419.17315673828125 C 388.8573303222656 439.302978515625 391.9779052734375 437.5443115234375 404.5596008300781 422.8975830078125 C 373.23101806640625 422.11700439453125 400.2843933105469 418.48468017578125 426.1432189941406 403.3465881347656 C 454.1714172363281 374.4386901855469 475.6831359863281 365.3600769042969 471.0874328613281 400.8684387207031" stroke-width="0.0" fill="rgb(71, 173, 113)" opacity="0.6552709" stroke="rgb(0, 0, 0)" stroke-opacity="1.0" stroke-linecap="round" stroke-linejoin="round"/>
    <path d="M 352.6138000488281 402.9291687011719 C 336.6678466796875 408.67926025390625 356.1725158691406 396.04718017578125 345.2153625488281 413.02740478515625 C 263.82525634765625 441.67962646484375 268.1398620605469 445.9363098144531 297.81341552734375 355.13336181640625 C 320.44976806640625 352.9429626464844 344.2753601074219 349.56793212890625 347.47674560546875 374.03387451171875 C 341.05487060546875 364.8056640625 368.0130615234375 370.1622314453125 352.6138000488281 402.9291687011719" stroke-width="0.0" fill="rgb(255, 103, 237)" opacity="1.0" stroke="rgb(0, 0, 0)" stroke-opacity="1.0" stroke-linecap="round" stroke-linejoin="round"/>
    <path d="M 86.54826354980469 445.03326416015625 C 109.17359161376953 471.06597900390625 122.23133850097656 481.6661682128906 165.55783081054688 503.73358154296875 C 26.22386360168457 557.6444702148438 -12.216177940368652 518.950439453125 -4.949414253234863 486.3818054199219 C -7.1963791847229 473.1628112792969 12.367764472961426 479.16302490234375 35.25971221923828 501.6173400878906 C 52.92412567138672 478.65869140625 55.89338302612305 491.3161926269531 86.54826354980469 445.03326416015625" stroke-width="0.0" fill="rgb(247, 81, 18)" opacity="0.9169579" stroke="rgb(0, 0, 0)" stroke-opacity="1.0" stroke-linecap="round" stroke-linejoin="round"/>
    <path d="M 86.41339111328125 341.6231994628906 C 93.75743103027344 402.8048400878906 107.51433563232422 390.2334899902344 123.19254302978516 395.19561767578125 C 81.63452911376953 391.0811462402344 78.12877655029297 412.3816223144531 80.53526306152344 419.89837646484375 C 80.30711364746094 342.1052551269531 79.14950561523438 366.0809326171875 95.69047546386719 348.282470703125 C 100.09500885009766 342.6090087890625 90.0357437133789 354.537841796875 86.41339111328125 341.6231994628906" stroke-width="0.0" fill="rgb(12, 69, 21)" opacity="0.7104095" stroke="rgb(0, 0, 0)" stroke-opacity="1.0" stroke-linecap="round" stroke-linejoin="round"/>
    <path d="M 128.9094696044922 445.5514221191406 C 91.6690444946289 454.7644958496094 97.76235961914062 434.89654541015625 120.05027770996094 441.8628845214844 C 119.51077270507812 432.7071533203125 80.41340637207031 435.3404541015625 98.9305419921875 398.8316955566406 C 94.56168365478516 416.2330017089844 100.39227294921875 417.15960693359375 114.83597564697266 371.93353271484375 C 94.56082916259766 381.7071533203125 99.79118347167969 407.7046813964844 128.9094696044922 445.5514221191406" stroke-width="0.0" fill="rgb(88, 144, 118)" opacity="0.54793125" stroke="rgb(0, 0, 0)" stroke-opacity="1.0" stroke-linecap="round" stroke-linejoin="round"/>
    <path d="M 472.2212219238281 73.13854217529297 C 480.79510498046875 169.0330352783203 472.102294921875 130.8589324951172 449.4919738769531 74.99864196777344 C 437.72784423828125 96.1271743774414 410.5487365722656 122.48365020751953 415.7364196777344 77.94680786132812 C 410.8225402832031 67.55870819091797 410.80413818359375 77.63877868652344 404.8390808105469 80.83841705322266 C 409.5664978027344 64.51924896240234 444.29864501953125 82.20794677734375 472.2212219238281 73.13854217529297" stroke-width="0.0" fill="rgb(158, 159, 177)" opacity="0.9679806" stroke="rgb(0, 0, 0)" stroke-opacity="1.0" stroke-linecap="round" stroke-linejoin="round"/>
    <path d="M 91.8202896118164 160.81153869628906 C 104.18598175048828 196.5197296142578 104.73281860351562 228.4463348388672 68.25756072998047 218.1322021484375 C 112.9495849609375 169.8355712890625 72.98667907714844 160.44891357421875 55.10179138183594 147.3512725830078 C 67.84895324707031 135.9769287109375 80.32523345947266 135.44204711914062 56.247623443603516 139.49559020996094 C 83.7647705078125 147.83151245117188 113.91351318359375 137.67446899414062 91.8202896118164 160.81153869628906" stroke-width="0.0" fill="rgb(255, 4, 10)" opacity="0.9845392" stroke="rgb(0, 0, 0)" stroke-opacity="1.0" stroke-linecap="round" stroke-linejoin="round"/>
    <path d="M 153.21066284179688 132.5087890625 C 152.57725524902344 172.72576904296875 136.42674255371094 185.42315673828125 101.65760803222656 182.11546325683594 C 72.50755310058594 155.57418823242188 59.375328063964844 150.69007873535156 49.89385986328125 133.4202423095703 C 55.70103073120117 107.82540893554688 68.37220764160156 113.49017333984375 76.9277572631836 106.09468841552734 C 108.12901306152344 96.37255859375 138.15640258789062 91.53954315185547 153.21066284179688 132.5087890625" stroke-width="0.0" fill="rgb(7, 0, 239)" opacity="0.85745364" stroke="rgb(0, 0, 0)" stroke-opacity="1.0" stroke-linecap="round" stroke-linejoin="round"/>
    <path d="M 564.4986572265625 461.23931884765625 C 519.4004516601562 516.6699829101562 511.4638977050781 524.1195068359375 427.5065612792969 532.887939453125 C 413.9864196777344 524.7637329101562 422.0926208496094 523.3570556640625 452.1702880859375 509.16387939453125 C 481.9337463378906 492.4549255371094 495.3957824707031 483.9488525390625 527.7144775390625 469.18939208984375 C 530.812255859375 438.52264404296875 548.977783203125 452.5328674316406 564.4986572265625 461.23931884765625" stroke-width="0.0" fill="rgb(249, 203, 35)" opacity="0.7168619" stroke="rgb(0, 0, 0)" stroke-opacity="1.0" stroke-linecap="round" stroke-linejoin="round"/>
    <path d="M 444.7618713378906 326.29205322265625 C 441.7872619628906 309.5364990234375 395.476806640625 309.71014404296875 364.8931579589844 331.1654357910156 C 353.42041015625 357.6799011230469 366.5021057128906 362.1912841796875 373.2586669921875 311.2638854980469 C 384.9778137207031 289.7668762207031 366.17486572265625 267.61541748046875 421.3213806152344 250.91929626464844 C 461.6730041503906 266.4987487792969 473.7685546875 301.34698486328125 444.7618713378906 326.29205322265625" stroke-width="0.0" fill="rgb(202, 201, 0)" opacity="0.9160533" stroke="rgb(0, 0, 0)" stroke-opacity="1.0" stroke-linecap="round" stroke-linejoin="round"/>
    <path d="M 262.0309753417969 433.96331787109375 C 262.8192138671875 498.07904052734375 287.5487365722656 488.8866271972656 269.3542175292969 434.9236145019531 C 257.429443359375 464.0400695800781 252.61624145507812 452.8985900878906 242.6280517578125 451.8536376953125 C 241.84364318847656 415.0245666503906 235.47923278808594 420.6266784667969 252.77001953125 428.50592041015625 C 258.46282958984375 439.9393615722656 290.5869140625 449.92962646484375 262.0309753417969 433.96331787109375" stroke-width="0.0" fill="rgb(41, 62, 143)" opacity="0.91074526" stroke="rgb(0, 0, 0)" stroke-opacity="1.0" stroke-linecap="round" stroke-linejoin="round"/>
    <path d="M 154.4703826904297 313.4750671386719 C 131.391357421875 300.99676513671875 133.45315551757812 311.16815185546875 137.36691284179688 407.2041015625 C 130.40487670898438 416.2401428222656 123.57756805419922 377.82061767578125 123.26962280273438 371.2265930175781 C 154.0065155029297 345.2190856933594 150.98898315429688 305.2728576660156 139.47244262695312 334.8030090332031 C 145.08334350585938 345.45806884765625 140.45486450195312 339.0087585449219 154.4703826904297 313.4750671386719" stroke-width="0.0" fill="rgb(0, 93, 0)" opacity="0.3611136" stroke="rgb(0, 0, 0)" stroke-opacity="1.0" stroke-linecap="round" stroke-linejoin="round"/>
    <path d="M 170.59812927246094 17.299171447753906 C 152.5039825439453 16.909622192382812 159.98251342773438 6.502714157104492 177.9247589111328 -4.368142127990723 C 153.59527587890625 23.11396026611328 127.14759063720703 8.823100090026855 130.14471435546875 -14.046004295349121 C 125.37092590332031 -19.447240829467773 131.9932098388672 -18.61699676513672 135.23208618164062 -3.152772903442383 C 184.33197021484375 -14.998743057250977 195.11892700195312 3.2845871448516846 170.59812927246094 17.299171447753906" stroke-width="0.0" fill="rgb(0, 0, 148)" opacity="0.058085237" stroke="rgb(0, 0, 0)" stroke-opacity="1.0" stroke-linecap="round" stroke-linejoin="round"/>
    <path d="M 273.0580139160156 313.96258544921875 C 265.4442138671875 341.3586120605469 277.0209045410156 330.78167724609375 252.8397674560547 341.189453125 C 228.77459716796875 323.3641357421875 215.07664489746094 311.4650573730469 240.33094787597656 299.5615539550781 C 257.0724792480469 303.62896728515625 261.1265563964844 281.4060974121094 266.2184753417969 290.44757080078125 C 221.7521514892578 303.6163635253906 259.7740783691406 297.34100341796875 273.0580139160156 313.96258544921875" stroke-width="0.0" fill="rgb(240, 100, 36)" opacity="0.95316225" stroke="rgb(0, 0, 0)" stroke-opacity="1.0" stroke-linecap="round" stroke-linejoin="round"/>
    <path d="M 151.03677368164062 135.00491333007812 C 114.11397552490234 212.16116333007812 85.86343383789062 218.58531188964844 46.86210250854492 191.4712677001953 C 25.82195281982422 163.6012420654297 21.3850040435791 140.90139770507812 22.768884658813477 143.52493286132812 C 18.27215003967285 127.57640075683594 -6.842626571655273 70.14755249023438 41.821964263916016 31.299650192260742 C 109.27191925048828 -3.57844614982605 166.19577026367188 50.30279541015625 151.03677368164062 135.00491333007812" stroke-width="0.0" fill="rgb(255, 255, 0)" opacity="1.0" stroke="rgb(0, 0, 0)" stroke-opacity="1.0" stroke-linecap="round" stroke-linejoin="round"/>
    <path d="M 430.17059326171875 133.22784423828125 C 436.7666320800781 144.90472412109375 441.94110107421875 156.4236602783203 431.58087158203125 137.41351318359375 C 430.33612060546875 136.6127471923828 424.2487487792969 131.23329162597656 431.63323974609375 143.28648376464844 C 421.581787109375 157.63140869140625 430.33245849609375 157.3892364501953 434.0238952636719 177.131591796875 C 433.7814636230469 172.60000610351562 423.9068298339844 157.55018615722656 430.17059326171875 133.22784423828125" stroke-width="0.0" fill="rgb(128, 170, 49)" opacity="0.15217602" stroke="rgb(0, 0, 0)" stroke-opacity="1.0" stroke-linecap="round" stroke-linejoin="round"/>
    <path d="M 81.63666534423828 446.87481689453125 C 99.4146728515625 460.89984130859375 79.71442413330078 460.1463928222656 75.2430419921875 484.23345947265625 C 86.80725860595703 484.9703063964844 82.65438079833984 482.5092468261719 56.139495849609375 483.1622619628906 C 64.74430084228516 476.9906921386719 56.21809387207031 475.6797790527344 34.41626739501953 459.8211364746094 C 83.11127471923828 472.6390686035156 92.68878173828125 465.33966064453125 81.63666534423828 446.87481689453125" stroke-width="0.0" fill="rgb(135, 85, 47)" opacity="0.007958955" stroke="rgb(0, 0, 0)" stroke-opacity="1.0" stroke-linecap="round" stroke-linejoin="round"/>
  </g>
</svg>
