<?xml version="1.0" ?>
<svg xmlns="http://www.w3.org/2000/svg" version="1.1" width="512" height="512">
  <defs/>
  <g>
    <path d="M 579.954345703125 420.2048034667969 C 548.0579833984375 517.3278198242188 548.9373779296875 525.5354614257812 388.80413818359375 532.4179077148438 C 324.03594970703125 559.6448974609375 304.6913146972656 555.0282592773438 268.8739929199219 489.2877502441406 C 314.21124267578125 297.7410888671875 345.86627197265625 305.1275634765625 464.5476989746094 275.2674865722656 C 586.5249633789062 275.669189453125 597.1446533203125 291.38116455078125 579.954345703125 420.2048034667969" stroke-width="0.0" fill="rgb(15, 84, 88)" opacity="0.915158" stroke="rgb(0, 0, 0)" stroke-opacity="1.0" stroke-linecap="round" stroke-linejoin="round"/>
    <path d="M 268.63787841796875 453.7872619628906 C 318.1916809082031 512.561767578125 314.39447021484375 529.113037109375 117.37539672851562 537.3243408203125 C -51.20000076293945 517.7235107421875 -51.20000076293945 507.83367919921875 -21.774600982666016 449.183837890625 C -18.38620376586914 205.44985961914062 -18.693912506103516 199.01014709472656 -16.12306022644043 237.16867065429688 C 191.1896209716797 299.03387451171875 246.54556274414062 237.59542846679688 268.63787841796875 453.7872619628906" stroke-width="0.0" fill="rgb(0, 32, 77)" opacity="1.0" stroke="rgb(0, 0, 0)" stroke-opacity="1.0" stroke-linecap="round" stroke-linejoin="round"/>
    <path d="M 315.7342834472656 361.716064453125 C 227.25582885742188 492.1759033203125 185.15081787109375 526.079833984375 196.73953247070312 380.3558654785156 C 59.880149841308594 381.49127197265625 34.06307601928711 410.82183837890625 43.73101806640625 169.64999389648438 C 25.649837493896484 184.4727020263672 27.992218017578125 170.20458984375 124.18473815917969 113.95830535888672 C 276.5552978515625 119.641845703125 290.4153747558594 104.4588394165039 315.7342834472656 361.716064453125" stroke-width="0.0" fill="rgb(255, 255, 0)" opacity="1.0" stroke="rgb(0, 0, 0)" stroke-opacity="1.0" stroke-linecap="round" stroke-linejoin="round"/>
    <path d="M 300.2980041503906 42.33372497558594 C 294.9890441894531 222.3216552734375 239.9420623779297 190.63995361328125 50.186370849609375 215.67874145507812 C -21.551284790039062 203.39169311523438 -26.229204177856445 195.80740356445312 -26.351694107055664 71.25538635253906 C -14.989005088806152 -15.722881317138672 -7.218327522277832 -19.66063117980957 64.806884765625 -24.726606369018555 C 190.61520385742188 -30.599639892578125 224.75527954101562 -47.23441696166992 300.2980041503906 42.33372497558594" stroke-width="0.0" fill="rgb(80, 9, 250)" opacity="0.9948268" stroke="rgb(0, 0, 0)" stroke-opacity="1.0" stroke-linecap="round" stroke-linejoin="round"/>
    <path d="M 536.2744750976562 52.80218505859375 C 441.1807556152344 288.03314208984375 451.1058044433594 298.5754089355469 405.12335205078125 324.4125671386719 C 291.2508850097656 326.4933166503906 282.6675109863281 380.9348449707031 300.4963073730469 229.57151794433594 C 249.50576782226562 46.773868560791016 221.4531707763672 -25.00729751586914 328.2486572265625 -69.98526763916016 C 563.2000122070312 -6.244815349578857 563.2000122070312 4.452378749847412 536.2744750976562 52.80218505859375" stroke-width="0.0" fill="rgb(42, 6, 243)" opacity="0.9372088" stroke="rgb(0, 0, 0)" stroke-opacity="1.0" stroke-linecap="round" stroke-linejoin="round"/>
    <path d="M 502.8600769042969 368.9097595214844 C 490.82171630859375 424.1707763671875 498.73040771484375 515.3590087890625 298.133056640625 560.967041015625 C 147.46737670898438 525.2196655273438 174.32423400878906 519.2288818359375 249.5631561279297 488.94024658203125 C 280.59161376953125 265.6210632324219 340.2728576660156 246.96351623535156 339.57098388671875 291.295166015625 C 374.828857421875 318.80523681640625 443.4488525390625 306.98095703125 502.8600769042969 368.9097595214844" stroke-width="0.0" fill="rgb(14, 73, 106)" opacity="1.0" stroke="rgb(0, 0, 0)" stroke-opacity="1.0" stroke-linecap="round" stroke-linejoin="round"/>
    <path d="M 561.68798828125 212.01632690429688 C 570.5501098632812 319.3034973144531 556.8242797851562 323.6271667480469 450.8181457519531 318.02655029296875 C 398.2203063964844 311.5582580566406 429.94097900390625 328.2880554199219 413.6552429199219 245.16561889648438 C 427.0801086425781 77.95882415771484 386.7096252441406 80.44670104980469 515.989990234375 58.178653717041016 C 563.017333984375 71.51746368408203 566.9395141601562 110.52176666259766 561.68798828125 212.01632690429688" stroke-width="0.0" fill="rgb(195, 9, 101)" opacity="1.0" stroke="rgb(0, 0, 0)" stroke-opacity="1.0" stroke-linecap="round" stroke-linejoin="round"/>
    <path d="M 231.6236114501953 245.00721740722656 C 229.58575439453125 328.9197082519531 257.10455322265625 314.7105407714844 217.57688903808594 349.3020935058594 C 235.60604858398438 305.5179748535156 237.33206176757812 311.5916442871094 176.59994506835938 264.3782958984375 C 151.14356994628906 176.33851623535156 135.8577423095703 196.1687469482422 230.4169464111328 197.61695861816406 C 263.358642578125 198.9256591796875 230.34075927734375 178.3249969482422 231.6236114501953 245.00721740722656" stroke-width="0.0" fill="rgb(225, 164, 3)" opacity="0.0" stroke="rgb(0, 0, 0)" stroke-opacity="1.0" stroke-linecap="round" stroke-linejoin="round"/>
    <path d="M 251.93325805664062 47.671653747558594 C 232.5703125 81.61490631103516 218.1202850341797 106.24224853515625 218.5498504638672 101.46185302734375 C 234.7598419189453 103.73926544189453 237.9478302001953 92.44518280029297 206.6875762939453 89.6076889038086 C 197.434326171875 85.687255859375 212.4114227294922 67.08821105957031 208.83494567871094 63.202056884765625 C 203.57672119140625 67.87476348876953 262.108642578125 43.06483840942383 251.93325805664062 47.671653747558594" stroke-width="0.0" fill="rgb(223, 146, 255)" opacity="0.76400906" stroke="rgb(0, 0, 0)" stroke-opacity="1.0" stroke-linecap="round" stroke-linejoin="round"/>
    <path d="M 205.2013702392578 327.6927490234375 C 162.67027282714844 504.7635803222656 222.4329376220703 482.6141052246094 177.73040771484375 429.9248352050781 C 158.95281982421875 440.1536865234375 164.4106903076172 393.09014892578125 146.48590087890625 302.454833984375 C 202.6023406982422 312.5572204589844 172.15133666992188 352.6305236816406 184.6440887451172 345.955078125 C 180.1205291748047 353.2530517578125 157.45074462890625 327.90423583984375 205.2013702392578 327.6927490234375" stroke-width="0.0" fill="rgb(124, 139, 222)" opacity="0.180659" stroke="rgb(0, 0, 0)" stroke-opacity="1.0" stroke-linecap="round" stroke-linejoin="round"/>
    <path d="M 211.20045471191406 208.5311279296875 C 205.7002716064453 259.07281494140625 220.09019470214844 343.4479675292969 229.15902709960938 341.5352478027344 C 120.22713470458984 324.4209899902344 213.90843200683594 315.00811767578125 192.70880126953125 287.45806884765625 C 86.66325378417969 176.3504638671875 52.475921630859375 155.97738647460938 206.44833374023438 64.25959777832031 C 122.08050537109375 184.6912078857422 189.77394104003906 104.37195587158203 211.20045471191406 208.5311279296875" stroke-width="0.0" fill="rgb(167, 199, 171)" opacity="0.5830525" stroke="rgb(0, 0, 0)" stroke-opacity="1.0" stroke-linecap="round" stroke-linejoin="round"/>
    <path d="M 216.75999450683594 290.2229309082031 C 73.65131378173828 283.7108154296875 58.58316421508789 279.8519287109375 67.73694610595703 312.5063171386719 C 130.5144500732422 404.6230163574219 93.46551513671875 392.19610595703125 -18.206499099731445 288.0636901855469 C -68.04077911376953 74.75264739990234 -49.10615158081055 114.51729583740234 109.47949981689453 114.28658294677734 C 229.23416137695312 167.60455322265625 275.0729675292969 181.18814086914062 216.75999450683594 290.2229309082031" stroke-width="0.0" fill="rgb(45, 16, 244)" opacity="1.0" stroke="rgb(0, 0, 0)" stroke-opacity="1.0" stroke-linecap="round" stroke-linejoin="round"/>
    <path d="M 263.6407775878906 35.81774139404297 C 200.21115112304688 83.76838684082031 205.86087036132812 88.11144256591797 166.42901611328125 157.90213012695312 C 173.3326873779297 142.2645263671875 133.08619689941406 118.81369018554688 85.543701171875 9.87717056274414 C 66.21366119384766 -53.42559051513672 65.49888610839844 -59.24101638793945 174.65370178222656 -41.1998176574707 C 196.49917602539062 -23.887868881225586 198.7446746826172 2.4670262336730957 263.6407775878906 35.81774139404297" stroke-width="0.0" fill="rgb(236, 101, 213)" opacity="0.9329764" stroke="rgb(0, 0, 0)" stroke-opacity="1.0" stroke-linecap="round" stroke-linejoin="round"/>
    <path d="M 306.13458251953125 138.76583862304688 C 341.64166259765625 191.51651000976562 304.1633605957031 240.5084686279297 268.6714782714844 212.01815795898438 C 202.57398986816406 117.72810363769531 267.67706298828125 135.19403076171875 218.73089599609375 111.62932586669922 C 236.63536071777344 105.17402648925781 265.7747802734375 151.63723754882812 280.66534423828125 172.30789184570312 C 232.20619201660156 172.9346923828125 233.75424194335938 125.535888671875 306.13458251953125 138.76583862304688" stroke-width="0.0" fill="rgb(255, 255, 48)" opacity="0.996418" stroke="rgb(0, 0, 0)" stroke-opacity="1.0" stroke-linecap="round" stroke-linejoin="round"/>
    <path d="M 88.13688659667969 294.2352294921875 C 83.01879119873047 326.14031982421875 125.88850402832031 344.01336669921875 89.44193267822266 369.0782775878906 C 83.66877746582031 372.5252685546875 72.98558044433594 345.5577392578125 73.00662231445312 307.90179443359375 C 92.91199493408203 322.0151672363281 93.06438446044922 312.32861328125 92.02386474609375 354.7687683105469 C 61.560176849365234 406.05462646484375 19.576637268066406 283.2539367675781 88.13688659667969 294.2352294921875" stroke-width="0.0" fill="rgb(255, 254, 10)" opacity="1.0" stroke="rgb(0, 0, 0)" stroke-opacity="1.0" stroke-linecap="round" stroke-linejoin="round"/>
    <path d="M 188.86366271972656 95.29369354248047 C 213.3739013671875 174.6190185546875 162.5684814453125 159.77989196777344 198.46044921875 143.83352661132812 C 188.84552001953125 31.04261589050293 202.67376708984375 150.12469482421875 208.69544982910156 81.69400787353516 C 245.8961944580078 139.350830078125 211.5097198486328 79.88670349121094 188.74557495117188 55.00242233276367 C 168.46873474121094 51.11164855957031 192.41749572753906 79.99852752685547 188.86366271972656 95.29369354248047" stroke-width="0.0" fill="rgb(247, 109, 153)" opacity="0.46525872" stroke="rgb(0, 0, 0)" stroke-opacity="1.0" stroke-linecap="round" stroke-linejoin="round"/>
    <path d="M 287.60687255859375 459.2947082519531 C 245.63621520996094 440.5303039550781 240.5338592529297 426.6221008300781 260.1176452636719 453.19512939453125 C 276.9106750488281 474.4151916503906 254.40184020996094 477.9866638183594 192.18362426757812 480.4640197753906 C 176.2322235107422 248.5649871826172 245.6522674560547 302.90423583984375 247.3426971435547 443.36309814453125 C 309.9590148925781 462.9179992675781 299.7897644042969 456.33953857421875 287.60687255859375 459.2947082519531" stroke-width="0.0" fill="rgb(255, 255, 100)" opacity="0.94633186" stroke="rgb(0, 0, 0)" stroke-opacity="1.0" stroke-linecap="round" stroke-linejoin="round"/>
    <path d="M 161.33567810058594 295.1086730957031 C 150.32066345214844 276.8305969238281 124.06420135498047 296.01531982421875 164.09213256835938 327.050537109375 C 188.4868927001953 281.4337463378906 178.11456298828125 287.3955383300781 115.86428833007812 290.16705322265625 C 152.8469696044922 295.0107116699219 130.71849060058594 322.3537292480469 139.21395874023438 286.34039306640625 C 148.47988891601562 288.6126708984375 131.49969482421875 290.0034484863281 161.33567810058594 295.1086730957031" stroke-width="0.0" fill="rgb(186, 233, 126)" opacity="0.38795507" stroke="rgb(0, 0, 0)" stroke-opacity="1.0" stroke-linecap="round" stroke-linejoin="round"/>
    <path d="M 184.71351623535156 91.31534576416016 C 204.55612182617188 148.62428283691406 218.94622802734375 143.82754516601562 216.3546600341797 155.9742889404297 C 150.94155883789062 143.5878448486328 170.55987548828125 151.90147399902344 193.0189666748047 120.30541229248047 C 184.7998504638672 137.58840942382812 157.2805633544922 101.62725067138672 190.44827270507812 84.3565902709961 C 189.36326599121094 72.25064086914062 181.30210876464844 97.2822265625 184.71351623535156 91.31534576416016" stroke-width="0.0" fill="rgb(123, 19, 219)" opacity="0.369195" stroke="rgb(0, 0, 0)" stroke-opacity="1.0" stroke-linecap="round" stroke-linejoin="round"/>
    <path d="M 398.0250549316406 296.1166076660156 C 396.26007080078125 326.0252685546875 404.5633544921875 316.4382019042969 322.51416015625 318.8987731933594 C 272.3725280761719 308.8192443847656 294.8559875488281 335.836669921875 297.78192138671875 241.4345245361328 C 300.2178649902344 245.32717895507812 341.0355529785156 237.8022003173828 388.0843811035156 234.25204467773438 C 368.07684326171875 244.5347900390625 382.1604309082031 224.3799285888672 398.0250549316406 296.1166076660156" stroke-width="0.0" fill="rgb(197, 3, 181)" opacity="0.89900863" stroke="rgb(0, 0, 0)" stroke-opacity="1.0" stroke-linecap="round" stroke-linejoin="round"/>
    <path d="M 175.58168029785156 297.5298156738281 C 201.8684844970703 270.4480285644531 159.6626434326172 303.8689880371094 143.8459930419922 291.9693603515625 C 150.65309143066406 274.3493957519531 136.2235107421875 270.5841369628906 166.90377807617188 288.24774169921875 C 201.5380859375 272.8699951171875 203.5096435546875 269.1386413574219 213.89309692382812 187.6018524169922 C 245.4058074951172 225.09849548339844 201.8895263671875 244.9373321533203 175.58168029785156 297.5298156738281" stroke-width="0.0" fill="rgb(138, 140, 194)" opacity="0.0" stroke="rgb(0, 0, 0)" stroke-opacity="1.0" stroke-linecap="round" stroke-linejoin="round"/>
    <path d="M 194.18423461914062 84.88566589355469 C 170.89614868164062 82.34674835205078 187.22547912597656 107.2275619506836 182.10833740234375 100.50591278076172 C 165.33226013183594 108.19161224365234 143.4097442626953 110.62757873535156 148.3162841796875 70.9642105102539 C 178.43157958984375 98.35456848144531 202.648681640625 57.6648063659668 196.3402557373047 64.29163360595703 C 187.413330078125 53.35907745361328 203.6461944580078 63.79982376098633 194.18423461914062 84.88566589355469" stroke-width="0.0" fill="rgb(255, 255, 4)" opacity="1.0" stroke="rgb(0, 0, 0)" stroke-opacity="1.0" stroke-linecap="round" stroke-linejoin="round"/>
    <path d="M 262.25604248046875 460.4229431152344 C 266.3224792480469 461.7661437988281 261.5063781738281 456.98199462890625 255.24383544921875 471.560302734375 C 247.36109924316406 483.3002624511719 227.3707733154297 480.5432434082031 205.0298614501953 475.49237060546875 C 223.57504272460938 377.1765441894531 237.13775634765625 420.51812744140625 246.25804138183594 487.3865966796875 C 280.3460998535156 459.9842529296875 265.4087829589844 464.39404296875 262.25604248046875 460.4229431152344" stroke-width="0.0" fill="rgb(0, 0, 74)" opacity="1.0" stroke="rgb(0, 0, 0)" stroke-opacity="1.0" stroke-linecap="round" stroke-linejoin="round"/>
    <path d="M 389.1571044921875 222.9398651123047 C 396.1304626464844 236.67160034179688 355.28228759765625 229.57521057128906 318.29412841796875 231.99488830566406 C 286.1137390136719 276.9544677734375 269.28472900390625 275.58203125 306.9636535644531 252.03515625 C 324.971435546875 216.18087768554688 313.5736389160156 221.8357391357422 367.6152648925781 235.9423828125 C 391.3929748535156 234.44131469726562 386.4509582519531 251.24293518066406 389.1571044921875 222.9398651123047" stroke-width="0.0" fill="rgb(166, 9, 248)" opacity="0.0" stroke="rgb(0, 0, 0)" stroke-opacity="1.0" stroke-linecap="round" stroke-linejoin="round"/>
    <path d="M 189.20779418945312 163.81942749023438 C 188.08946228027344 203.2704620361328 138.48416137695312 190.7735595703125 149.16778564453125 151.8458709716797 C 144.14547729492188 129.88194274902344 123.48668670654297 124.22407531738281 127.43492126464844 106.8722915649414 C 104.48722839355469 96.95608520507812 82.29720306396484 92.92278289794922 117.09490203857422 79.08389282226562 C 134.66896057128906 87.10958862304688 148.7279815673828 111.76364135742188 189.20779418945312 163.81942749023438" stroke-width="0.0" fill="rgb(255, 194, 134)" opacity="1.0" stroke="rgb(0, 0, 0)" stroke-opacity="1.0" stroke-linecap="round" stroke-linejoin="round"/>
    <path d="M 128.04808044433594 356.0967712402344 C 122.55530548095703 379.7189636230469 119.23497009277344 393.1871337890625 118.98880004882812 412.44000244140625 C 67.01411437988281 392.2119140625 70.79032135009766 379.0406188964844 97.09713745117188 347.6881408691406 C 86.4170913696289 305.9391174316406 51.873321533203125 274.5892028808594 137.77468872070312 271.45849609375 C 151.2250518798828 293.01739501953125 192.09283447265625 334.3064270019531 128.04808044433594 356.0967712402344" stroke-width="0.0" fill="rgb(202, 229, 115)" opacity="0.99289024" stroke="rgb(0, 0, 0)" stroke-opacity="1.0" stroke-linecap="round" stroke-linejoin="round"/>
    <path d="M 128.3860626220703 393.934814453125 C 146.2675018310547 516.857421875 135.9580841064453 488.5462951660156 97.69807434082031 406.8747863769531 C 75.36005401611328 464.425537109375 101.98127746582031 506.32232666015625 68.35968780517578 474.4241638183594 C 55.816097259521484 409.6707458496094 45.8016242980957 422.4340515136719 71.37010192871094 379.7987365722656 C 76.44205474853516 332.6280822753906 88.11790466308594 376.6176452636719 128.3860626220703 393.934814453125" stroke-width="0.0" fill="rgb(255, 241, 68)" opacity="1.0" stroke="rgb(0, 0, 0)" stroke-opacity="1.0" stroke-linecap="round" stroke-linejoin="round"/>
    <path d="M 154.8351287841797 142.7904815673828 C 142.40232849121094 172.74594116210938 90.85799407958984 147.46160888671875 118.21038818359375 121.66179656982422 C 105.47582244873047 86.50930786132812 98.09930419921875 110.17803192138672 95.10005187988281 122.14490509033203 C 93.44438934326172 127.92963409423828 100.34197998046875 126.38789367675781 101.05490112304688 142.47837829589844 C 85.3917465209961 127.26812744140625 100.92431640625 123.9177474975586 154.8351287841797 142.7904815673828" stroke-width="0.0" fill="rgb(17, 0, 123)" opacity="0.7633955" stroke="rgb(0, 0, 0)" stroke-opacity="1.0" stroke-linecap="round" stroke-linejoin="round"/>
    <path d="M 115.92363739013672 124.03556823730469 C 71.61199188232422 130.37416076660156 52.37923812866211 125.9655990600586 25.949975967407227 141.67662048339844 C 13.045422554016113 159.71975708007812 29.41324806213379 119.13980102539062 25.147268295288086 119.74907684326172 C 52.51929473876953 129.7189178466797 78.95494079589844 132.29185485839844 57.00014114379883 128.25439453125 C 62.122840881347656 111.76512908935547 89.55995178222656 117.0538101196289 115.92363739013672 124.03556823730469" stroke-width="0.0" fill="rgb(89, 19, 189)" opacity="0.0318589" stroke="rgb(0, 0, 0)" stroke-opacity="1.0" stroke-linecap="round" stroke-linejoin="round"/>
    <path d="M 59.2088737487793 298.550048828125 C 44.22322082519531 359.5019836425781 37.01204299926758 348.40185546875 26.254304885864258 320.0176086425781 C 37.33206558227539 328.570068359375 21.372915267944336 328.5496826171875 -10.668846130371094 309.30322265625 C 21.81586456298828 300.3434753417969 36.47119903564453 309.4061584472656 22.554628372192383 298.2948303222656 C 29.656381607055664 295.03790283203125 56.18796920776367 290.4212951660156 59.2088737487793 298.550048828125" stroke-width="0.0" fill="rgb(54, 0, 129)" opacity="0.8925621" stroke="rgb(0, 0, 0)" stroke-opacity="1.0" stroke-linecap="round" stroke-linejoin="round"/>
    <path d="M 359.3726501464844 243.63577270507812 C 364.1083984375 328.4687194824219 381.21771240234375 316.2105712890625 368.070556640625 316.823974609375 C 365.4698791503906 227.77066040039062 379.9000549316406 215.86032104492188 377.06524658203125 179.60311889648438 C 360.1963806152344 196.8744354248047 365.03289794921875 180.12721252441406 362.0301513671875 180.39146423339844 C 372.2347412109375 208.52976989746094 380.2234802246094 208.53445434570312 359.3726501464844 243.63577270507812" stroke-width="0.0" fill="rgb(248, 223, 66)" opacity="0.97993004" stroke="rgb(0, 0, 0)" stroke-opacity="1.0" stroke-linecap="round" stroke-linejoin="round"/>
    <path d="M 200.33999633789062 253.9597625732422 C 203.3001708984375 266.7463073730469 203.70986938476562 272.7757263183594 199.7549285888672 277.92266845703125 C 179.54319763183594 287.3016662597656 195.01954650878906 273.32763671875 198.62538146972656 265.5863342285156 C 195.21194458007812 268.2190856933594 207.00247192382812 246.73361206054688 197.2324676513672 254.40158081054688 C 200.5756072998047 249.61085510253906 199.3702850341797 252.95242309570312 200.33999633789062 253.9597625732422" stroke-width="0.0" fill="rgb(192, 48, 97)" opacity="0.0" stroke="rgb(0, 0, 0)" stroke-opacity="1.0" stroke-linecap="round" stroke-linejoin="round"/>
    <path d="M 208.2489471435547 249.31504821777344 C 227.49671936035156 214.73406982421875 210.4789581298828 220.34927368164062 202.0811004638672 243.58985900878906 C 228.2001953125 254.9765625 202.5068817138672 262.2350769042969 194.99940490722656 279.35968017578125 C 223.3582305908203 264.5013122558594 219.23587036132812 246.16587829589844 212.99656677246094 220.4908447265625 C 194.82559204101562 233.46900939941406 207.74349975585938 247.10116577148438 208.2489471435547 249.31504821777344" stroke-width="0.0" fill="rgb(193, 149, 0)" opacity="0.0" stroke="rgb(0, 0, 0)" stroke-opacity="1.0" stroke-linecap="round" stroke-linejoin="round"/>
    <path d="M 188.1092071533203 367.0909729003906 C 151.4518585205078 365.7474060058594 166.25634765625 351.9171142578125 137.1619110107422 352.4236145019531 C 139.82273864746094 328.98040771484375 152.1675567626953 324.2295837402344 159.6848907470703 330.26239013671875 C 175.7469940185547 330.0054626464844 180.40908813476562 330.1903991699219 181.37600708007812 339.3147888183594 C 172.12338256835938 334.45318603515625 173.67091369628906 344.4207458496094 188.1092071533203 367.0909729003906" stroke-width="0.0" fill="rgb(217, 205, 119)" opacity="0.55102104" stroke="rgb(0, 0, 0)" stroke-opacity="1.0" stroke-linecap="round" stroke-linejoin="round"/>
    <path d="M 98.79217529296875 117.03893280029297 C 119.45721435546875 159.10861206054688 93.53395080566406 158.7782745361328 78.96742248535156 161.2899627685547 C 48.63752746582031 159.35205078125 50.09382247924805 154.00328063964844 56.57476806640625 154.2208709716797 C 57.06687927246094 116.96870422363281 55.659812927246094 104.7216796875 109.57903289794922 89.26949310302734 C 98.77362060546875 113.0296401977539 97.87152862548828 106.6036376953125 98.79217529296875 117.03893280029297" stroke-width="0.0" fill="rgb(97, 0, 176)" opacity="0.24043709" stroke="rgb(0, 0, 0)" stroke-opacity="1.0" stroke-linecap="round" stroke-linejoin="round"/>
    <path d="M 87.92623138427734 88.47592163085938 C 60.47418975830078 156.93312072753906 34.71903610229492 159.5890655517578 47.5289421081543 113.22357177734375 C 55.320735931396484 96.09661102294922 25.428552627563477 105.02288818359375 -7.319023609161377 97.58472442626953 C -8.052103996276855 110.09182739257812 0.9118596911430359 114.5138931274414 34.7757568359375 98.06085205078125 C 50.238128662109375 104.2403793334961 77.8734359741211 100.53020477294922 87.92623138427734 88.47592163085938" stroke-width="0.0" fill="rgb(102, 1, 144)" opacity="0.0748003" stroke="rgb(0, 0, 0)" stroke-opacity="1.0" stroke-linecap="round" stroke-linejoin="round"/>
    <path d="M 96.64683532714844 157.3218536376953 C 137.16165161132812 177.61000061035156 117.3995132446289 203.92347717285156 113.24466705322266 152.93223571777344 C 181.16006469726562 116.61016082763672 146.0675811767578 131.06060791015625 67.87739562988281 132.40078735351562 C 75.7618179321289 106.82998657226562 97.37904357910156 94.49702453613281 65.05594635009766 88.85785675048828 C 81.45587158203125 52.777042388916016 87.79026794433594 104.3373794555664 96.64683532714844 157.3218536376953" stroke-width="0.0" fill="rgb(150, 0, 136)" opacity="0.0091365855" stroke="rgb(0, 0, 0)" stroke-opacity="1.0" stroke-linecap="round" stroke-linejoin="round"/>
    <path d="M 403.5427551269531 187.59201049804688 C 373.3768310546875 197.4962158203125 354.6795349121094 237.142578125 367.4371337890625 270.3928527832031 C 380.398681640625 199.10594177246094 379.6423034667969 201.46888732910156 371.0205383300781 188.11886596679688 C 356.3182678222656 174.67105102539062 358.8163146972656 179.12142944335938 374.3514099121094 161.45785522460938 C 370.31201171875 146.4149627685547 384.7477111816406 172.1779327392578 403.5427551269531 187.59201049804688" stroke-width="0.0" fill="rgb(219, 235, 206)" opacity="0.9936917" stroke="rgb(0, 0, 0)" stroke-opacity="1.0" stroke-linecap="round" stroke-linejoin="round"/>
    <path d="M 305.61895751953125 173.7984161376953 C 327.7030029296875 164.33880615234375 316.1361083984375 183.54830932617188 254.7746124267578 183.04437255859375 C 275.7875671386719 176.6457061767578 277.9261169433594 179.75640869140625 302.05535888671875 184.88494873046875 C 291.9930725097656 169.74440002441406 299.28729248046875 140.23423767089844 311.7021484375 124.19867706298828 C 343.99786376953125 132.840576171875 296.4402160644531 164.57997131347656 305.61895751953125 173.7984161376953" stroke-width="0.0" fill="rgb(253, 241, 37)" opacity="1.0" stroke="rgb(0, 0, 0)" stroke-opacity="1.0" stroke-linecap="round" stroke-linejoin="round"/>
    <path d="M 127.88200378417969 54.852943420410156 C 132.66574096679688 49.55681610107422 118.70112609863281 52.9674186706543 124.79955291748047 46.174537658691406 C 110.6446762084961 46.416603088378906 110.34748077392578 52.79227066040039 132.61155700683594 69.55574798583984 C 119.5398178100586 10.855928421020508 120.80052185058594 -6.857987880706787 147.38497924804688 10.1398344039917 C 141.90675354003906 24.857879638671875 160.429443359375 32.69309616088867 127.88200378417969 54.852943420410156" stroke-width="0.0" fill="rgb(144, 62, 159)" opacity="0.00709097" stroke="rgb(0, 0, 0)" stroke-opacity="1.0" stroke-linecap="round" stroke-linejoin="round"/>
    <path d="M 57.60000228881836 302.6246643066406 C 56.5325927734375 281.81878662109375 52.266029357910156 336.14678955078125 52.92070007324219 347.285888671875 C 25.470458984375 348.98992919921875 27.919998168945312 335.67279052734375 26.21731185913086 304.1664733886719 C 20.014680862426758 314.1331481933594 2.399698495864868 312.3186950683594 30.140483856201172 305.6070556640625 C 34.269351959228516 310.66455078125 41.80208206176758 313.7121887207031 57.60000228881836 302.6246643066406" stroke-width="0.0" fill="rgb(12, 26, 98)" opacity="0.6837903" stroke="rgb(0, 0, 0)" stroke-opacity="1.0" stroke-linecap="round" stroke-linejoin="round"/>
    <path d="M 197.25094604492188 53.95652389526367 C 215.65602111816406 47.362892150878906 225.56759643554688 57.67367935180664 219.8306427001953 14.107931137084961 C 239.12864685058594 -1.0603090524673462 248.6181640625 16.526424407958984 248.50628662109375 39.1090202331543 C 207.4657440185547 29.280027389526367 245.5350341796875 -0.882981538772583 215.04554748535156 -9.072990417480469 C 210.1373291015625 24.926130294799805 234.13986206054688 27.665102005004883 197.25094604492188 53.95652389526367" stroke-width="0.0" fill="rgb(210, 131, 149)" opacity="0.016529696" stroke="rgb(0, 0, 0)" stroke-opacity="1.0" stroke-linecap="round" stroke-linejoin="round"/>
    <path d="M 111.56861877441406 369.3055419921875 C 106.432373046875 321.7759704589844 136.50930786132812 357.311767578125 114.76535034179688 390.1801452636719 C 99.72221374511719 380.8000183105469 100.97776794433594 333.9552917480469 111.89864349365234 349.964111328125 C 113.97161102294922 303.0813293457031 111.93952941894531 298.7716369628906 117.63030242919922 310.1875 C 102.24476623535156 317.9423828125 104.95467376708984 340.3497314453125 111.56861877441406 369.3055419921875" stroke-width="0.0" fill="rgb(194, 185, 104)" opacity="0.22842593" stroke="rgb(0, 0, 0)" stroke-opacity="1.0" stroke-linecap="round" stroke-linejoin="round"/>
    <path d="M 205.8836669921875 351.5567321777344 C 197.4713134765625 375.51116943359375 199.66165161132812 364.2870788574219 187.17910766601562 363.0316467285156 C 171.02041625976562 411.44940185546875 202.9837646484375 397.0541076660156 210.74191284179688 345.5315246582031 C 152.63421630859375 353.74468994140625 177.8766326904297 380.0782165527344 220.25253295898438 392.54656982421875 C 227.64724731445312 349.5032653808594 249.28981018066406 346.6531677246094 205.8836669921875 351.5567321777344" stroke-width="0.0" fill="rgb(201, 139, 255)" opacity="0.09251688" stroke="rgb(0, 0, 0)" stroke-opacity="1.0" stroke-linecap="round" stroke-linejoin="round"/>
    <path d="M 48.78861999511719 212.97882080078125 C 48.00716781616211 184.13232421875 40.839263916015625 212.93338012695312 47.86017990112305 196.26596069335938 C 44.316680908203125 184.7862091064453 6.897393226623535 163.3227996826172 5.9272260665893555 173.99830627441406 C 35.543113708496094 190.0276641845703 39.34831619262695 180.47915649414062 39.41443634033203 184.4140167236328 C 35.69330978393555 189.2045440673828 30.826887130737305 206.79779052734375 48.78861999511719 212.97882080078125" stroke-width="0.0" fill="rgb(69, 32, 194)" opacity="0.040644187" stroke="rgb(0, 0, 0)" stroke-opacity="1.0" stroke-linecap="round" stroke-linejoin="round"/>
    <path d="M 480.93609619140625 353.7966003417969 C 480.2937927246094 317.16204833984375 448.72125244140625 317.111328125 412.1459045410156 317.0650329589844 C 450.7784729003906 328.71502685546875 442.0394287109375 279.1844177246094 397.0986328125 291.5889587402344 C 371.1152038574219 303.564453125 384.3081970214844 306.8619384765625 413.837158203125 307.0650634765625 C 416.9154052734375 338.857421875 447.7763366699219 347.94189453125 480.93609619140625 353.7966003417969" stroke-width="0.0" fill="rgb(70, 30, 144)" opacity="0.052832127" stroke="rgb(0, 0, 0)" stroke-opacity="1.0" stroke-linecap="round" stroke-linejoin="round"/>
    <path d="M -25.087078094482422 178.28765869140625 C -4.948756217956543 185.29685974121094 6.3450469970703125 148.16934204101562 -2.514734983444214 94.03095245361328 C 28.953697204589844 94.85344696044922 11.258251190185547 107.6283187866211 -3.0285544395446777 70.05229949951172 C -13.18604850769043 57.9252815246582 -11.4559326171875 75.95541381835938 -12.780232429504395 137.5439453125 C -24.432498931884766 165.82501220703125 -19.336469650268555 150.7681884765625 -25.087078094482422 178.28765869140625" stroke-width="0.0" fill="rgb(43, 78, 153)" opacity="0.047304127" stroke="rgb(0, 0, 0)" stroke-opacity="1.0" stroke-linecap="round" stroke-linejoin="round"/>
    <path d="M 537.1505737304688 246.6947021484375 C 524.9647827148438 271.3293762207031 507.3842468261719 272.7437744140625 522.2821044921875 260.5764465332031 C 476.944091796875 257.8506164550781 457.5968933105469 262.7513122558594 483.1694641113281 209.32290649414062 C 484.582275390625 212.35076904296875 495.3638000488281 231.25820922851562 491.1282958984375 252.572998046875 C 539.4373168945312 249.28187561035156 546.372314453125 242.88446044921875 537.1505737304688 246.6947021484375" stroke-width="0.0" fill="rgb(127, 10, 103)" opacity="0.0" stroke="rgb(0, 0, 0)" stroke-opacity="1.0" stroke-linecap="round" stroke-linejoin="round"/>
    <path d="M 230.90206909179688 139.0634765625 C 260.5055847167969 109.3757095336914 218.9076385498047 111.65169525146484 219.54205322265625 105.06666564941406 C 208.87741088867188 118.47190856933594 218.29351806640625 112.82132720947266 210.11306762695312 113.50778198242188 C 227.04579162597656 134.39968872070312 244.70819091796875 103.00372314453125 229.87757873535156 33.170230865478516 C 204.02911376953125 82.3327407836914 220.764892578125 107.96161651611328 230.90206909179688 139.0634765625" stroke-width="0.0" fill="rgb(45, 17, 255)" opacity="0.54556644" stroke="rgb(0, 0, 0)" stroke-opacity="1.0" stroke-linecap="round" stroke-linejoin="round"/>
    <path d="M 451.77801513671875 245.09564208984375 C 453.0472106933594 300.6674499511719 416.7134094238281 313.16229248046875 377.15618896484375 286.6419372558594 C 413.4004821777344 281.40277099609375 419.0931701660156 269.8751525878906 426.15692138671875 236.6602020263672 C 389.27203369140625 226.534423828125 378.3426513671875 271.624267578125 400.6537780761719 281.8059387207031 C 450.70220947265625 254.58656311035156 476.6933288574219 247.6053009033203 451.77801513671875 245.09564208984375" stroke-width="0.0" fill="rgb(167, 1, 193)" opacity="0.022435011" stroke="rgb(0, 0, 0)" stroke-opacity="1.0" stroke-linecap="round" stroke-linejoin="round"/>
    <path d="M 529.552490234375 123.71578216552734 C 527.8601684570312 134.6118621826172 514.108642578125 128.50389099121094 482.15216064453125 139.08558654785156 C 483.6759948730469 165.941650390625 504.35394287109375 150.7727508544922 518.0831909179688 122.30658721923828 C 492.95074462890625 111.7112045288086 510.04852294921875 126.5188980102539 513.3204345703125 114.40819549560547 C 511.9617614746094 118.91421508789062 521.703369140625 126.91838073730469 529.552490234375 123.71578216552734" stroke-width="0.0" fill="rgb(151, 70, 80)" opacity="0.0" stroke="rgb(0, 0, 0)" stroke-opacity="1.0" stroke-linecap="round" stroke-linejoin="round"/>
    <path d="M 526.4625854492188 161.42214965820312 C 525.172119140625 169.9449462890625 519.92236328125 179.09963989257812 523.7077026367188 190.13290405273438 C 494.6323547363281 192.1986541748047 487.056884765625 194.3655548095703 501.1661376953125 160.6349639892578 C 501.6153869628906 153.00350952148438 524.2057495117188 141.67283630371094 545.4988403320312 123.32929229736328 C 515.8118896484375 155.28781127929688 526.8318481445312 160.10057067871094 526.4625854492188 161.42214965820312" stroke-width="0.0" fill="rgb(103, 20, 135)" opacity="0.0" stroke="rgb(0, 0, 0)" stroke-opacity="1.0" stroke-linecap="round" stroke-linejoin="round"/>
    <path d="M 46.315982818603516 354.9700622558594 C 70.2814712524414 356.86578369140625 50.876346588134766 359.4975280761719 63.916744232177734 375.9209899902344 C 26.467796325683594 370.19476318359375 44.68918228149414 363.9446105957031 37.66265869140625 353.3589172363281 C 23.209367752075195 311.4164733886719 30.970117568969727 313.7685852050781 79.38953399658203 322.37237548828125 C 70.9449234008789 341.295654296875 57.32389831542969 350.71484375 46.315982818603516 354.9700622558594" stroke-width="0.0" fill="rgb(3, 17, 105)" opacity="0.0748971" stroke="rgb(0, 0, 0)" stroke-opacity="1.0" stroke-linecap="round" stroke-linejoin="round"/>
    <path d="M 320.2392272949219 213.49530029296875 C 323.8121032714844 238.05104064941406 327.9260559082031 251.13543701171875 341.8836975097656 263.6531982421875 C 305.8708190917969 296.91143798828125 289.7967834472656 280.8013610839844 324.7686767578125 280.6251525878906 C 334.3607482910156 261.6477966308594 311.3567810058594 232.08718872070312 324.7628479003906 220.6645050048828 C 323.70361328125 232.40647888183594 315.7986755371094 229.60707092285156 320.2392272949219 213.49530029296875" stroke-width="0.0" fill="rgb(117, 11, 213)" opacity="0.035804622" stroke="rgb(0, 0, 0)" stroke-opacity="1.0" stroke-linecap="round" stroke-linejoin="round"/>
    <path d="M 483.7188720703125 151.00660705566406 C 508.1414489746094 133.7024383544922 467.316162109375 136.63235473632812 492.9005432128906 128.33836364746094 C 513.539794921875 138.677001953125 458.6960754394531 144.5623016357422 459.6546325683594 150.81625366210938 C 476.2211608886719 136.44454956054688 451.0635070800781 95.98872375488281 470.14801025390625 76.08859252929688 C 521.40380859375 98.16056823730469 494.26165771484375 113.00758361816406 483.7188720703125 151.00660705566406" stroke-width="0.0" fill="rgb(91, 70, 128)" opacity="0.044279024" stroke="rgb(0, 0, 0)" stroke-opacity="1.0" stroke-linecap="round" stroke-linejoin="round"/>
    <path d="M 461.71209716796875 471.9635314941406 C 435.59478759765625 465.6788024902344 439.42877197265625 472.80859375 441.3728942871094 507.2083435058594 C 417.39898681640625 509.9933776855469 410.9911193847656 466.09918212890625 429.6413879394531 450.9324035644531 C 424.7503356933594 450.62371826171875 456.58648681640625 437.9168701171875 451.5213317871094 452.1888732910156 C 461.7295227050781 458.8100891113281 475.4149475097656 452.47955322265625 461.71209716796875 471.9635314941406" stroke-width="0.0" fill="rgb(0, 109, 42)" opacity="0.10874671" stroke="rgb(0, 0, 0)" stroke-opacity="1.0" stroke-linecap="round" stroke-linejoin="round"/>
    <path d="M 535.6218872070312 391.1401672363281 C 504.4680480957031 407.58697509765625 483.5416259765625 404.18695068359375 485.1335144042969 383.602294921875 C 489.2687683105469 371.5694885253906 477.1383056640625 357.632568359375 474.66162109375 382.12457275390625 C 475.30963134765625 357.33990478515625 478.54571533203125 349.7100524902344 475.1991882324219 354.8665771484375 C 500.3394775390625 345.0419006347656 503.3489990234375 348.2768859863281 535.6218872070312 391.1401672363281" stroke-width="0.0" fill="rgb(5, 118, 41)" opacity="0.13722047" stroke="rgb(0, 0, 0)" stroke-opacity="1.0" stroke-linecap="round" stroke-linejoin="round"/>
    <path d="M 170.8311309814453 418.3268737792969 C 162.12071228027344 431.5721435546875 159.7083740234375 459.9148254394531 132.74758911132812 448.42059326171875 C 162.1576385498047 437.12823486328125 152.25253295898438 423.1127014160156 149.84812927246094 426.098388671875 C 143.56744384765625 423.3177795410156 148.81044006347656 389.0186767578125 154.99903869628906 387.47515869140625 C 147.1146697998047 399.4817199707031 128.93783569335938 432.2471008300781 170.8311309814453 418.3268737792969" stroke-width="0.0" fill="rgb(0, 0, 173)" opacity="0.017701492" stroke="rgb(0, 0, 0)" stroke-opacity="1.0" stroke-linecap="round" stroke-linejoin="round"/>
    <path d="M 134.7222137451172 146.67723083496094 C 125.81912994384766 203.8709716796875 116.56624603271484 181.52476501464844 115.59407806396484 172.44259643554688 C 118.26586151123047 143.26907348632812 93.54126739501953 147.51551818847656 93.06413269042969 157.20835876464844 C 101.48223876953125 134.2352294921875 89.66352844238281 134.86495971679688 107.18994140625 139.97576904296875 C 105.49496459960938 153.2186279296875 129.7238311767578 147.7480926513672 134.7222137451172 146.67723083496094" stroke-width="0.0" fill="rgb(231, 16, 176)" opacity="0.44807371" stroke="rgb(0, 0, 0)" stroke-opacity="1.0" stroke-linecap="round" stroke-linejoin="round"/>
    <path d="M 138.53826904296875 96.4934310913086 C 155.51898193359375 121.17670440673828 172.72955322265625 135.27114868164062 180.4930419921875 137.7850799560547 C 177.84046936035156 115.61028289794922 171.33172607421875 110.06977844238281 176.2156982421875 145.89474487304688 C 178.56106567382812 164.3491973876953 182.89852905273438 149.46810913085938 200.7574005126953 140.8101043701172 C 198.6059112548828 132.0439910888672 199.3468017578125 105.0473403930664 138.53826904296875 96.4934310913086" stroke-width="0.0" fill="rgb(188, 118, 71)" opacity="0.23133758" stroke="rgb(0, 0, 0)" stroke-opacity="1.0" stroke-linecap="round" stroke-linejoin="round"/>
    <path d="M 160.3850860595703 432.12884521484375 C 182.2770233154297 419.85601806640625 178.26531982421875 418.4720153808594 164.64474487304688 417.8085021972656 C 156.77528381347656 406.2806701660156 154.84759521484375 411.1209716796875 155.30540466308594 427.8207702636719 C 152.748046875 401.08319091796875 152.74766540527344 384.3785705566406 148.65528869628906 372.79119873046875 C 127.1307144165039 403.5816345214844 143.39247131347656 415.1064453125 160.3850860595703 432.12884521484375" stroke-width="0.0" fill="rgb(39, 30, 89)" opacity="0.0050913654" stroke="rgb(0, 0, 0)" stroke-opacity="1.0" stroke-linecap="round" stroke-linejoin="round"/>
    <path d="M 454.75604248046875 103.69021606445312 C 401.8921813964844 128.69927978515625 421.68402099609375 169.8544464111328 406.30682373046875 162.87521362304688 C 371.9513244628906 160.9168701171875 376.14385986328125 137.1029052734375 399.1138000488281 109.02598571777344 C 432.0546569824219 104.04143524169922 442.66064453125 122.19395446777344 429.9082946777344 141.46826171875 C 432.2912902832031 131.8521728515625 443.9220886230469 152.3225860595703 454.75604248046875 103.69021606445312" stroke-width="0.0" fill="rgb(128, 41, 112)" opacity="0.0015390436" stroke="rgb(0, 0, 0)" stroke-opacity="1.0" stroke-linecap="round" stroke-linejoin="round"/>
    <path d="M 249.1695556640625 337.5431823730469 C 247.85507202148438 319.5680236816406 244.3799285888672 337.3004455566406 244.42330932617188 314.6048889160156 C 247.8030242919922 298.9535827636719 215.84207153320312 317.85699462890625 217.38076782226562 313.9814453125 C 240.85206604003906 321.0898742675781 242.93536376953125 318.8504333496094 244.15109252929688 311.07403564453125 C 225.49020385742188 316.9319763183594 247.48492431640625 326.8442687988281 249.1695556640625 337.5431823730469" stroke-width="0.0" fill="rgb(66, 47, 121)" opacity="0.0" stroke="rgb(0, 0, 0)" stroke-opacity="1.0" stroke-linecap="round" stroke-linejoin="round"/>
    <path d="M 123.80976104736328 483.52874755859375 C 139.12835693359375 479.8724670410156 129.30166625976562 483.2717590332031 165.82681274414062 459.5577392578125 C 81.57254791259766 460.520263671875 68.47964477539062 474.9886779785156 143.93212890625 523.080810546875 C 156.7156982421875 498.3465576171875 162.80335998535156 472.4745788574219 159.40847778320312 476.7884521484375 C 129.739013671875 482.0751953125 150.46707153320312 484.5339660644531 123.80976104736328 483.52874755859375" stroke-width="0.0" fill="rgb(1, 16, 58)" opacity="0.0" stroke="rgb(0, 0, 0)" stroke-opacity="1.0" stroke-linecap="round" stroke-linejoin="round"/>
  </g>
</svg>
