<?xml version="1.0" ?>
<svg xmlns="http://www.w3.org/2000/svg" version="1.1" width="512" height="512">
  <defs/>
  <g>
    <path d="M 575.7892456054688 421.3045349121094 C 547.4852905273438 516.6414794921875 548.3889770507812 525.1383666992188 388.62109375 536.3267211914062 C 311.494384765625 576.4168701171875 289.0813293457031 571.3643188476562 231.52850341796875 476.7440185546875 C 282.0335388183594 307.0682373046875 344.0263366699219 297.2390441894531 447.55810546875 274.563720703125 C 598.8468627929688 282.06884765625 600.6463623046875 300.56817626953125 575.7892456054688 421.3045349121094" stroke-width="0.0" fill="rgb(19, 80, 54)" opacity="0.9884998" stroke="rgb(0, 0, 0)" stroke-opacity="1.0" stroke-linecap="round" stroke-linejoin="round"/>
    <path d="M 310.36553955078125 426.9873962402344 C 309.5715637207031 495.5306396484375 301.9112243652344 531.8052368164062 272.2315368652344 568.3973999023438 C -51.20000076293945 519.230712890625 -51.20000076293945 511.73809814453125 -48.478538513183594 472.5589599609375 C -22.921749114990234 215.6494903564453 -16.173175811767578 243.16232299804688 0.10330390930175781 248.56568908691406 C 202.84934997558594 285.6775207519531 264.2964172363281 234.79298400878906 310.36553955078125 426.9873962402344" stroke-width="0.0" fill="rgb(212, 99, 1)" opacity="0.98433274" stroke="rgb(0, 0, 0)" stroke-opacity="1.0" stroke-linecap="round" stroke-linejoin="round"/>
    <path d="M 273.4955139160156 342.4185791015625 C 403.0980529785156 330.4670715332031 216.8560333251953 426.71234130859375 254.750732421875 380.8971862792969 C 105.78858947753906 479.69000244140625 -7.119974613189697 375.65191650390625 89.25763702392578 209.88128662109375 C 92.6435546875 215.73995971679688 73.57129669189453 213.7518310546875 165.0344696044922 165.919189453125 C 206.1744384765625 234.2835235595703 279.70318603515625 143.51303100585938 273.4955139160156 342.4185791015625" stroke-width="0.0" fill="rgb(194, 70, 0)" opacity="0.60741526" stroke="rgb(0, 0, 0)" stroke-opacity="1.0" stroke-linecap="round" stroke-linejoin="round"/>
    <path d="M 196.4744415283203 -44.53996276855469 C 187.37088012695312 155.42233276367188 173.2364959716797 140.61940002441406 27.24654769897461 280.01812744140625 C -65.31533813476562 273.3944091796875 -56.071693420410156 247.3275146484375 -35.88017654418945 166.27886962890625 C -16.190303802490234 -17.708452224731445 -9.996477127075195 -23.574756622314453 32.775753021240234 -18.098133087158203 C 196.82273864746094 -23.394615173339844 224.5518341064453 -36.593833923339844 196.4744415283203 -44.53996276855469" stroke-width="0.0" fill="rgb(52, 209, 138)" opacity="0.75548637" stroke="rgb(0, 0, 0)" stroke-opacity="1.0" stroke-linecap="round" stroke-linejoin="round"/>
    <path d="M 527.626220703125 95.98409271240234 C 463.8304748535156 310.0394592285156 466.23065185546875 396.87152099609375 384.58740234375 306.3335266113281 C 383.82269287109375 188.99362182617188 144.29501342773438 325.6123962402344 201.22637939453125 224.84030151367188 C 222.24722290039062 30.225738525390625 193.38356018066406 4.015293598175049 341.75537109375 -50.070743560791016 C 592.3209228515625 -2.087690591812134 587.7653198242188 31.438196182250977 527.626220703125 95.98409271240234" stroke-width="0.0" fill="rgb(254, 170, 1)" opacity="0.99997973" stroke="rgb(0, 0, 0)" stroke-opacity="1.0" stroke-linecap="round" stroke-linejoin="round"/>
    <path d="M 231.11343383789062 145.34716796875 C 171.61927795410156 272.1316833496094 281.3164367675781 268.4598083496094 194.83526611328125 312.6961975097656 C 206.84483337402344 145.53053283691406 161.2388458251953 151.90005493164062 101.3519058227539 222.8853759765625 C 159.3442840576172 146.53811645507812 97.86927032470703 28.02276039123535 280.3968505859375 -63.55364990234375 C 302.544677734375 -28.977365493774414 230.87835693359375 -58.39509201049805 231.11343383789062 145.34716796875" stroke-width="0.0" fill="rgb(255, 120, 0)" opacity="1.0" stroke="rgb(0, 0, 0)" stroke-opacity="1.0" stroke-linecap="round" stroke-linejoin="round"/>
    <path d="M 453.5098876953125 303.9801940917969 C 433.85693359375 423.5740966796875 447.7087097167969 470.1753234863281 204.9605255126953 478.50469970703125 C 67.5780258178711 413.01141357421875 58.494998931884766 418.5279235839844 310.5566101074219 415.8293151855469 C 213.97511291503906 243.93954467773438 265.64031982421875 174.38723754882812 303.5967102050781 203.36495971679688 C 474.3682861328125 204.22227478027344 464.423828125 226.20758056640625 453.5098876953125 303.9801940917969" stroke-width="0.0" fill="rgb(222, 0, 0)" opacity="0.5042233" stroke="rgb(0, 0, 0)" stroke-opacity="1.0" stroke-linecap="round" stroke-linejoin="round"/>
    <path d="M 580.0440063476562 232.38912963867188 C 588.1990966796875 366.4627380371094 582.5556640625 368.9883117675781 481.2645263671875 410.3145751953125 C 387.29779052734375 392.0920104980469 405.1474304199219 345.2774963378906 351.6127624511719 263.3106689453125 C 364.75579833984375 78.39282989501953 330.7412109375 5.249057292938232 480.6375427246094 12.52061653137207 C 549.6268920898438 62.31694030761719 540.2244262695312 115.14215850830078 580.0440063476562 232.38912963867188" stroke-width="0.0" fill="rgb(41, 118, 140)" opacity="0.99475604" stroke="rgb(0, 0, 0)" stroke-opacity="1.0" stroke-linecap="round" stroke-linejoin="round"/>
    <path d="M 387.91070556640625 109.80658721923828 C 387.5828552246094 106.3839111328125 404.7618713378906 242.64999389648438 367.65899658203125 383.48712158203125 C 396.5902099609375 132.60560607910156 150.49961853027344 307.5289306640625 262.083251953125 245.2210693359375 C 191.91957092285156 216.5185089111328 293.4683837890625 225.44041442871094 405.2049865722656 228.48046875 C 420.2358703613281 91.7567367553711 374.1660461425781 117.52661895751953 387.91070556640625 109.80658721923828" stroke-width="0.0" fill="rgb(120, 0, 0)" opacity="0.8646046" stroke="rgb(0, 0, 0)" stroke-opacity="1.0" stroke-linecap="round" stroke-linejoin="round"/>
    <path d="M 248.54537963867188 268.5165710449219 C 238.12896728515625 228.20765686035156 195.14918518066406 269.5869445800781 192.80181884765625 286.998779296875 C 267.9789123535156 282.1651611328125 253.20852661132812 278.2934875488281 197.0655517578125 294.9566650390625 C 202.8987274169922 216.5587615966797 218.7618865966797 220.87139892578125 203.2834930419922 251.984130859375 C 227.72940063476562 262.7512512207031 211.72523498535156 238.5015869140625 248.54537963867188 268.5165710449219" stroke-width="0.0" fill="rgb(159, 58, 0)" opacity="0.47340947" stroke="rgb(0, 0, 0)" stroke-opacity="1.0" stroke-linecap="round" stroke-linejoin="round"/>
    <path d="M 384.8975524902344 239.03578186035156 C 376.98974609375 252.8331756591797 384.1483459472656 279.4859313964844 403.7748107910156 363.9701843261719 C 367.967529296875 317.1485290527344 360.0791320800781 315.4203186035156 366.2937927246094 306.6381530761719 C 354.14117431640625 171.97146606445312 380.3979187011719 224.20303344726562 374.17724609375 187.46759033203125 C 399.4140625 260.5963439941406 377.7264709472656 244.05030822753906 384.8975524902344 239.03578186035156" stroke-width="0.0" fill="rgb(156, 42, 143)" opacity="0.25480923" stroke="rgb(0, 0, 0)" stroke-opacity="1.0" stroke-linecap="round" stroke-linejoin="round"/>
    <path d="M 373.41265869140625 96.16197204589844 C 286.8614807128906 90.43146514892578 302.7645568847656 42.61845397949219 141.85386657714844 36.29266357421875 C 163.08932495117188 149.9356231689453 197.98745727539062 60.35695266723633 116.5130386352539 180.25494384765625 C 107.66313934326172 29.833030700683594 144.66314697265625 5.122828483581543 205.73818969726562 -43.29914093017578 C 375.8171691894531 -42.95890426635742 385.7696838378906 -15.95637035369873 373.41265869140625 96.16197204589844" stroke-width="0.0" fill="rgb(53, 204, 186)" opacity="1.0" stroke="rgb(0, 0, 0)" stroke-opacity="1.0" stroke-linecap="round" stroke-linejoin="round"/>
    <path d="M 366.0950012207031 441.40740966796875 C 103.3363037109375 382.1682434082031 391.28863525390625 427.2029724121094 125.35926818847656 415.07598876953125 C 108.83638000488281 334.607177734375 70.77872467041016 380.7060852050781 378.8229064941406 373.2874755859375 C 176.7521209716797 350.0599365234375 -57.63908767700195 350.06854248046875 -42.771240234375 323.0740051269531 C 90.00789642333984 400.60467529296875 504.00335693359375 319.8640441894531 366.0950012207031 441.40740966796875" stroke-width="0.0" fill="rgb(105, 4, 0)" opacity="0.9544912" stroke="rgb(0, 0, 0)" stroke-opacity="1.0" stroke-linecap="round" stroke-linejoin="round"/>
    <path d="M 541.24267578125 62.917667388916016 C 515.7740478515625 60.5687255859375 489.1559143066406 55.62504577636719 488.91741943359375 42.895172119140625 C 493.6875305175781 54.31161117553711 459.1978759765625 46.230926513671875 397.9708557128906 58.68179702758789 C 393.57275390625 6.423322677612305 392.8725280761719 -22.187776565551758 445.2752380371094 -21.49514389038086 C 540.9146118164062 -10.191633224487305 536.6610717773438 3.261720895767212 541.24267578125 62.917667388916016" stroke-width="0.0" fill="rgb(77, 185, 180)" opacity="1.0" stroke="rgb(0, 0, 0)" stroke-opacity="1.0" stroke-linecap="round" stroke-linejoin="round"/>
    <path d="M 467.5836486816406 426.7846984863281 C 443.6243591308594 435.58856201171875 450.0518798828125 441.45831298828125 406.95025634765625 454.1099548339844 C 399.5838317871094 443.2572021484375 406.47845458984375 436.24017333984375 389.95794677734375 416.18359375 C 388.80596923828125 324.6470642089844 398.460205078125 298.53985595703125 423.51702880859375 368.3199768066406 C 441.7747497558594 417.669677734375 500.092041015625 402.78997802734375 467.5836486816406 426.7846984863281" stroke-width="0.0" fill="rgb(36, 94, 140)" opacity="0.7751995" stroke="rgb(0, 0, 0)" stroke-opacity="1.0" stroke-linecap="round" stroke-linejoin="round"/>
    <path d="M 315.2846984863281 436.6991271972656 C 342.38726806640625 424.84283447265625 337.2258605957031 474.1239929199219 268.27679443359375 563.0638427734375 C 123.30654907226562 565.25830078125 105.16180419921875 541.2047119140625 73.10847473144531 406.6928405761719 C 213.01524353027344 416.0765075683594 194.2400665283203 438.7615051269531 294.7012939453125 468.9930419921875 C 331.5032958984375 394.5279846191406 285.8302001953125 429.851318359375 315.2846984863281 436.6991271972656" stroke-width="0.0" fill="rgb(54, 115, 158)" opacity="0.8830832" stroke="rgb(0, 0, 0)" stroke-opacity="1.0" stroke-linecap="round" stroke-linejoin="round"/>
    <path d="M 480.3038330078125 423.864990234375 C 405.0675354003906 482.6284484863281 394.1083984375 464.7409973144531 361.76068115234375 452.4142150878906 C 334.7241516113281 466.8760070800781 329.0079040527344 503.5084228515625 276.2574157714844 463.6662292480469 C 327.86248779296875 445.9318542480469 295.2115173339844 435.7293395996094 324.89093017578125 427.8871154785156 C 430.3067932128906 436.93719482421875 443.0382995605469 328.50836181640625 480.3038330078125 423.864990234375" stroke-width="0.0" fill="rgb(80, 126, 25)" opacity="1.0" stroke="rgb(0, 0, 0)" stroke-opacity="1.0" stroke-linecap="round" stroke-linejoin="round"/>
    <path d="M 79.98027801513672 395.6615905761719 C 88.4674072265625 470.6506042480469 112.43978118896484 494.8417053222656 15.469097137451172 510.0314636230469 C -2.206519842147827 403.6966857910156 16.024612426757812 413.4052734375 16.96207046508789 428.02484130859375 C 49.03886795043945 428.2151184082031 67.7545166015625 412.50067138671875 54.72434997558594 411.3914489746094 C 64.80522918701172 399.9563903808594 37.90605926513672 393.35791015625 79.98027801513672 395.6615905761719" stroke-width="0.0" fill="rgb(56, 159, 125)" opacity="0.3498786" stroke="rgb(0, 0, 0)" stroke-opacity="1.0" stroke-linecap="round" stroke-linejoin="round"/>
    <path d="M 389.2712097167969 113.13568878173828 C 386.7969055175781 154.1149444580078 451.3855895996094 169.5120849609375 314.4875793457031 158.04017639160156 C 323.49920654296875 113.22457885742188 321.8810729980469 117.29876708984375 341.0131530761719 96.42855072021484 C 166.11972045898438 91.94229888916016 125.21393585205078 98.62604522705078 181.56631469726562 97.87796783447266 C 392.80926513671875 105.24938201904297 336.26116943359375 93.41153717041016 389.2712097167969 113.13568878173828" stroke-width="0.0" fill="rgb(206, 63, 0)" opacity="0.4727251" stroke="rgb(0, 0, 0)" stroke-opacity="1.0" stroke-linecap="round" stroke-linejoin="round"/>
    <path d="M 347.4412536621094 209.10128784179688 C 340.6007080078125 227.39451599121094 353.1106262207031 160.36962890625 361.16259765625 330.41241455078125 C 361.11767578125 103.66880798339844 428.2350158691406 208.54324340820312 207.99005126953125 203.6759490966797 C 165.75917053222656 239.22793579101562 454.861572265625 223.03988647460938 377.30706787109375 226.1951141357422 C 364.1663513183594 183.30711364746094 371.1189270019531 205.50164794921875 347.4412536621094 209.10128784179688" stroke-width="0.0" fill="rgb(253, 235, 0)" opacity="0.35550323" stroke="rgb(0, 0, 0)" stroke-opacity="1.0" stroke-linecap="round" stroke-linejoin="round"/>
    <path d="M 172.8247833251953 259.3988037109375 C 137.0161590576172 364.8335876464844 100.12286376953125 290.93017578125 136.73533630371094 425.0772399902344 C 31.515621185302734 480.293212890625 -50.85707473754883 451.6572570800781 -38.52341079711914 320.6533508300781 C 21.30633544921875 231.67787170410156 59.759037017822266 231.125244140625 161.59161376953125 114.351806640625 C 168.05300903320312 119.29716491699219 203.07867431640625 135.16835021972656 172.8247833251953 259.3988037109375" stroke-width="0.0" fill="rgb(12, 183, 171)" opacity="0.99992" stroke="rgb(0, 0, 0)" stroke-opacity="1.0" stroke-linecap="round" stroke-linejoin="round"/>
    <path d="M 209.29995727539062 460.6712646484375 C 248.73690795898438 549.8095703125 244.8823699951172 569.439453125 102.22013854980469 533.6712036132812 C 64.7518310546875 536.970947265625 47.71128845214844 538.438720703125 7.236114025115967 513.5241088867188 C 12.640021324157715 438.9765930175781 20.70679473876953 406.3374938964844 60.43986892700195 406.53363037109375 C 148.6800537109375 427.53704833984375 181.85943603515625 450.2452087402344 209.29995727539062 460.6712646484375" stroke-width="0.0" fill="rgb(61, 204, 182)" opacity="1.0" stroke="rgb(0, 0, 0)" stroke-opacity="1.0" stroke-linecap="round" stroke-linejoin="round"/>
    <path d="M 219.77098083496094 154.82229614257812 C 305.4332580566406 246.28916931152344 263.7414855957031 64.00972747802734 299.9728088378906 144.2312774658203 C 225.5185089111328 191.35743713378906 169.21937561035156 172.41026306152344 200.3087921142578 123.4923095703125 C 233.5021209716797 216.55430603027344 324.0161437988281 110.9110107421875 237.4541473388672 126.2647933959961 C 312.69085693359375 73.82014465332031 300.3095703125 219.36569213867188 219.77098083496094 154.82229614257812" stroke-width="0.0" fill="rgb(252, 184, 4)" opacity="0.589776" stroke="rgb(0, 0, 0)" stroke-opacity="1.0" stroke-linecap="round" stroke-linejoin="round"/>
    <path d="M 357.7142028808594 261.0499572753906 C 323.1230773925781 312.205810546875 281.985595703125 312.77001953125 268.4220275878906 263.6806335449219 C 268.1293640136719 263.02984619140625 264.778564453125 253.24417114257812 262.41790771484375 253.1797332763672 C 297.4316101074219 226.43946838378906 312.5877990722656 240.76893615722656 329.4044189453125 225.917236328125 C 297.9896240234375 224.50320434570312 321.7984313964844 215.29580688476562 357.7142028808594 261.0499572753906" stroke-width="0.0" fill="rgb(255, 255, 211)" opacity="0.97664726" stroke="rgb(0, 0, 0)" stroke-opacity="1.0" stroke-linecap="round" stroke-linejoin="round"/>
    <path d="M 331.4159240722656 128.70457458496094 C 209.64642333984375 90.56707763671875 256.8208312988281 109.01094055175781 235.3570556640625 142.36639404296875 C 239.99575805664062 127.70355224609375 136.6235809326172 118.9914779663086 174.5174560546875 142.91831970214844 C 228.57725524902344 145.80958557128906 232.542724609375 130.42042541503906 170.93801879882812 137.29449462890625 C 223.47813415527344 140.01754760742188 187.84410095214844 130.5737762451172 331.4159240722656 128.70457458496094" stroke-width="0.0" fill="rgb(196, 72, 0)" opacity="0.51029736" stroke="rgb(0, 0, 0)" stroke-opacity="1.0" stroke-linecap="round" stroke-linejoin="round"/>
    <path d="M 342.4223937988281 319.9585876464844 C 394.8674621582031 235.48715209960938 307.6958923339844 267.4751892089844 276.8315734863281 334.6438903808594 C 303.6533203125 345.9955749511719 249.98794555664062 332.7611999511719 124.6052474975586 331.5508117675781 C 174.43020629882812 325.31927490234375 166.27047729492188 333.91180419921875 322.9423828125 318.7010498046875 C 266.0086669921875 343.7454528808594 318.1017150878906 320.9488830566406 342.4223937988281 319.9585876464844" stroke-width="0.0" fill="rgb(255, 255, 172)" opacity="1.0" stroke="rgb(0, 0, 0)" stroke-opacity="1.0" stroke-linecap="round" stroke-linejoin="round"/>
    <path d="M 43.21687698364258 525.405029296875 C 36.926025390625 539.4183349609375 17.90533447265625 535.1294555664062 1.9118614196777344 531.7723388671875 C -9.364206314086914 527.7437133789062 -16.68471336364746 520.4232177734375 -43.748958587646484 495.98529052734375 C -40.0053596496582 489.3638000488281 -40.9292106628418 473.2759094238281 7.955122470855713 411.6456604003906 C 62.17216873168945 399.8585510253906 44.34981155395508 430.9434509277344 43.21687698364258 525.405029296875" stroke-width="0.0" fill="rgb(63, 206, 175)" opacity="1.0" stroke="rgb(0, 0, 0)" stroke-opacity="1.0" stroke-linecap="round" stroke-linejoin="round"/>
    <path d="M 224.95199584960938 193.19308471679688 C 304.5012512207031 235.06399536132812 370.4832458496094 239.153076171875 177.37643432617188 214.43658447265625 C 191.2716064453125 188.697265625 179.3120574951172 124.92404174804688 145.2244873046875 142.2172393798828 C 141.98013305664062 157.71038818359375 135.2717742919922 140.35247802734375 162.16964721679688 131.99691772460938 C 162.63880920410156 104.31551361083984 189.0409698486328 118.56658172607422 224.95199584960938 193.19308471679688" stroke-width="0.0" fill="rgb(79, 68, 112)" opacity="0.7817018" stroke="rgb(0, 0, 0)" stroke-opacity="1.0" stroke-linecap="round" stroke-linejoin="round"/>
    <path d="M 201.00003051757812 111.51782989501953 C 198.69444274902344 121.82112884521484 181.291748046875 106.78289794921875 165.28883361816406 140.3595428466797 C 140.3004150390625 143.93838500976562 166.64271545410156 129.30593872070312 167.71372985839844 101.7011947631836 C 162.55398559570312 86.51505279541016 193.22093200683594 110.62089538574219 189.5969696044922 100.69612884521484 C 188.5631103515625 105.16232299804688 193.348388671875 116.22691345214844 201.00003051757812 111.51782989501953" stroke-width="0.0" fill="rgb(86, 120, 72)" opacity="0.59141546" stroke="rgb(0, 0, 0)" stroke-opacity="1.0" stroke-linecap="round" stroke-linejoin="round"/>
    <path d="M 446.3824768066406 100.89897918701172 C 423.75 116.30912017822266 439.5753479003906 115.81413269042969 406.4568176269531 145.5924072265625 C 391.2154541015625 138.77450561523438 390.7569580078125 113.42143249511719 328.39654541015625 90.28778839111328 C 344.9246826171875 27.661983489990234 331.2784118652344 6.696149826049805 402.2154541015625 -72.54937744140625 C 506.32904052734375 14.375364303588867 485.28204345703125 53.29075622558594 446.3824768066406 100.89897918701172" stroke-width="0.0" fill="rgb(73, 193, 187)" opacity="0.99352825" stroke="rgb(0, 0, 0)" stroke-opacity="1.0" stroke-linecap="round" stroke-linejoin="round"/>
    <path d="M 395.041259765625 244.26922607421875 C 377.5479431152344 257.7643127441406 382.0937194824219 263.75762939453125 371.8802185058594 248.88853454589844 C 363.7381896972656 236.43748474121094 328.7298583984375 242.48956298828125 293.8155212402344 235.66868591308594 C 285.3564758300781 201.57838439941406 309.4602355957031 214.9468994140625 342.1939392089844 206.9239501953125 C 360.9847717285156 233.17352294921875 395.3695983886719 217.285888671875 395.041259765625 244.26922607421875" stroke-width="0.0" fill="rgb(255, 255, 82)" opacity="1.0" stroke="rgb(0, 0, 0)" stroke-opacity="1.0" stroke-linecap="round" stroke-linejoin="round"/>
    <path d="M 208.74740600585938 289.8900451660156 C 217.76687622070312 277.04193115234375 196.723876953125 336.5098876953125 148.77369689941406 335.9111633300781 C 92.33354187011719 339.77154541015625 71.42790222167969 310.8109130859375 110.7616958618164 250.13381958007812 C 144.6166229248047 206.3330841064453 222.6304473876953 232.25433349609375 234.7979736328125 262.14324951171875 C 203.76406860351562 268.84490966796875 206.633544921875 260.887451171875 208.74740600585938 289.8900451660156" stroke-width="0.0" fill="rgb(255, 247, 2)" opacity="1.0" stroke="rgb(0, 0, 0)" stroke-opacity="1.0" stroke-linecap="round" stroke-linejoin="round"/>
    <path d="M 213.0579071044922 425.09661865234375 C 177.32362365722656 411.43768310546875 158.85667419433594 424.9898681640625 157.84556579589844 435.15509033203125 C 142.84921264648438 435.56640625 145.71826171875 445.4441223144531 149.65455627441406 431.8393859863281 C 143.09153747558594 439.0710754394531 171.93560791015625 433.0727844238281 197.14544677734375 421.77532958984375 C 174.99156188964844 413.3873291015625 186.93934631347656 426.7652893066406 213.0579071044922 425.09661865234375" stroke-width="0.0" fill="rgb(229, 124, 64)" opacity="0.69844294" stroke="rgb(0, 0, 0)" stroke-opacity="1.0" stroke-linecap="round" stroke-linejoin="round"/>
    <path d="M 462.0625915527344 390.01654052734375 C 419.3844299316406 386.5731506347656 395.8055419921875 404.2527770996094 370.259521484375 473.25054931640625 C 288.7104187011719 463.2574157714844 325.4153137207031 417.7627258300781 369.5871276855469 390.13079833984375 C 382.9145202636719 363.552978515625 379.7165222167969 368.5989990234375 427.95062255859375 365.60113525390625 C 446.6878662109375 383.6313781738281 458.26416015625 384.59405517578125 462.0625915527344 390.01654052734375" stroke-width="0.0" fill="rgb(0, 144, 80)" opacity="0.9811552" stroke="rgb(0, 0, 0)" stroke-opacity="1.0" stroke-linecap="round" stroke-linejoin="round"/>
    <path d="M 251.04627990722656 147.40798950195312 C 291.98065185546875 143.71865844726562 277.82330322265625 159.580810546875 254.96267700195312 178.2200927734375 C 257.5706481933594 165.60362243652344 236.56591796875 142.63888549804688 292.624755859375 142.31129455566406 C 264.9109802246094 104.66031646728516 261.2481384277344 120.8013916015625 232.1736297607422 122.65766906738281 C 232.3681640625 129.74696350097656 253.4757843017578 156.4592742919922 251.04627990722656 147.40798950195312" stroke-width="0.0" fill="rgb(255, 189, 0)" opacity="1.0" stroke="rgb(0, 0, 0)" stroke-opacity="1.0" stroke-linecap="round" stroke-linejoin="round"/>
    <path d="M 274.78472900390625 255.79098510742188 C 300.0694274902344 268.0865478515625 309.4468994140625 301.9172668457031 311.20916748046875 329.7579345703125 C 258.4889221191406 330.7530212402344 227.36830139160156 318.8953857421875 228.97972106933594 307.6690673828125 C 246.80117797851562 275.94232177734375 252.739501953125 275.908447265625 229.33648681640625 279.0882873535156 C 233.95343017578125 249.2452850341797 259.0777587890625 251.02639770507812 274.78472900390625 255.79098510742188" stroke-width="0.0" fill="rgb(255, 253, 200)" opacity="0.9970333" stroke="rgb(0, 0, 0)" stroke-opacity="1.0" stroke-linecap="round" stroke-linejoin="round"/>
    <path d="M 225.5857696533203 335.87554931640625 C 154.5508270263672 343.81329345703125 164.29396057128906 370.1405334472656 159.56346130371094 372.25634765625 C 92.88497161865234 418.2117004394531 83.57366943359375 408.201416015625 80.64727783203125 338.2369079589844 C 73.33394622802734 314.0521240234375 143.90570068359375 303.3680419921875 149.22482299804688 318.8843078613281 C 160.4191131591797 295.3089599609375 214.24342346191406 311.55364990234375 225.5857696533203 335.87554931640625" stroke-width="0.0" fill="rgb(199, 30, 0)" opacity="0.92474693" stroke="rgb(0, 0, 0)" stroke-opacity="1.0" stroke-linecap="round" stroke-linejoin="round"/>
    <path d="M 181.48519897460938 279.4289245605469 C 233.45001220703125 268.2698059082031 237.48379516601562 266.05999755859375 202.048828125 262.4289855957031 C 216.64285278320312 317.11749267578125 140.39505004882812 317.6394958496094 164.1904754638672 262.37847900390625 C 172.34747314453125 266.7302551269531 187.75997924804688 252.82305908203125 206.1417236328125 255.40147399902344 C 177.79849243164062 241.44032287597656 184.96392822265625 230.2088165283203 181.48519897460938 279.4289245605469" stroke-width="0.0" fill="rgb(166, 8, 0)" opacity="0.6722594" stroke="rgb(0, 0, 0)" stroke-opacity="1.0" stroke-linecap="round" stroke-linejoin="round"/>
    <path d="M 281.71722412109375 275.81781005859375 C 282.5570373535156 277.7481384277344 299.3970947265625 309.2691345214844 300.5365295410156 281.4039611816406 C 277.91162109375 265.9359130859375 261.5621032714844 271.0831298828125 267.8143005371094 272.658935546875 C 266.66192626953125 224.96533203125 272.2316589355469 210.68533325195312 261.30938720703125 240.52108764648438 C 282.325927734375 227.7643280029297 275.79119873046875 229.9383087158203 281.71722412109375 275.81781005859375" stroke-width="0.0" fill="rgb(255, 226, 148)" opacity="0.8062415" stroke="rgb(0, 0, 0)" stroke-opacity="1.0" stroke-linecap="round" stroke-linejoin="round"/>
    <path d="M 190.35800170898438 337.8295593261719 C 202.16458129882812 349.7851257324219 204.46966552734375 353.9239807128906 191.54534912109375 339.206787109375 C 180.89051818847656 349.7591857910156 129.25885009765625 366.14764404296875 178.46774291992188 402.1830139160156 C 197.31092834472656 340.41864013671875 135.798583984375 348.7056884765625 139.04588317871094 366.6104736328125 C 207.8817596435547 361.8965759277344 211.3567352294922 363.0572509765625 190.35800170898438 337.8295593261719" stroke-width="0.0" fill="rgb(84, 255, 23)" opacity="0.33875602" stroke="rgb(0, 0, 0)" stroke-opacity="1.0" stroke-linecap="round" stroke-linejoin="round"/>
    <path d="M 96.90595245361328 450.8277587890625 C 90.5810775756836 464.29827880859375 82.59120178222656 464.47247314453125 72.93572235107422 472.2762451171875 C 72.21477508544922 453.2047424316406 62.82841491699219 447.593017578125 71.42396545410156 436.8783874511719 C 54.81088638305664 429.7292785644531 54.56817626953125 454.9858703613281 67.34752655029297 439.2706298828125 C 93.89724731445312 445.3786926269531 103.18751525878906 442.08477783203125 96.90595245361328 450.8277587890625" stroke-width="0.0" fill="rgb(69, 205, 163)" opacity="0.031220041" stroke="rgb(0, 0, 0)" stroke-opacity="1.0" stroke-linecap="round" stroke-linejoin="round"/>
    <path d="M 461.7234191894531 458.6815185546875 C 474.0224914550781 451.61004638671875 492.52398681640625 439.4403381347656 467.8563232421875 442.1529235839844 C 452.71307373046875 443.7557373046875 439.9915771484375 422.2489318847656 422.6750793457031 446.4484558105469 C 417.314453125 441.4521484375 418.4787902832031 448.9888000488281 427.8928527832031 466.1116638183594 C 461.5888671875 501.15814208984375 463.46075439453125 467.9805908203125 461.7234191894531 458.6815185546875" stroke-width="0.0" fill="rgb(0, 79, 77)" opacity="0.0" stroke="rgb(0, 0, 0)" stroke-opacity="1.0" stroke-linecap="round" stroke-linejoin="round"/>
    <path d="M 454.63330078125 355.46539306640625 C 456.5774841308594 389.05072021484375 456.04486083984375 398.58990478515625 441.63983154296875 389.88214111328125 C 419.8710021972656 401.5942687988281 426.2947082519531 388.60284423828125 402.1521301269531 371.2857666015625 C 405.2346496582031 358.8270263671875 430.3489990234375 343.9101257324219 453.63226318359375 343.6663818359375 C 453.4728088378906 335.0963439941406 454.75433349609375 324.4873962402344 454.63330078125 355.46539306640625" stroke-width="0.0" fill="rgb(83, 110, 99)" opacity="0.34524423" stroke="rgb(0, 0, 0)" stroke-opacity="1.0" stroke-linecap="round" stroke-linejoin="round"/>
    <path d="M 43.53369903564453 470.739013671875 C 26.74582290649414 460.0918884277344 24.748510360717773 468.6969299316406 35.668949127197266 465.81549072265625 C 39.155128479003906 490.74749755859375 32.480255126953125 501.2579040527344 34.5063591003418 454.7276916503906 C 68.476318359375 473.79534912109375 50.467166900634766 443.9932861328125 40.18680191040039 452.3420715332031 C 16.659326553344727 451.7273864746094 35.960636138916016 464.99346923828125 43.53369903564453 470.739013671875" stroke-width="0.0" fill="rgb(146, 152, 222)" opacity="0.0" stroke="rgb(0, 0, 0)" stroke-opacity="1.0" stroke-linecap="round" stroke-linejoin="round"/>
    <path d="M 152.1256103515625 230.60992431640625 C 145.4216766357422 223.67222595214844 107.05644226074219 216.16627502441406 82.33588409423828 274.6361389160156 C 109.01315307617188 296.2498474121094 107.54106140136719 253.85574340820312 126.33607482910156 235.30593872070312 C 124.01675415039062 233.27389526367188 128.25169372558594 223.3345184326172 132.22802734375 204.95266723632812 C 171.48989868164062 176.51344299316406 150.61460876464844 224.34397888183594 152.1256103515625 230.60992431640625" stroke-width="0.0" fill="rgb(15, 183, 173)" opacity="0.11918931" stroke="rgb(0, 0, 0)" stroke-opacity="1.0" stroke-linecap="round" stroke-linejoin="round"/>
    <path d="M 481.1370849609375 239.083984375 C 455.3629150390625 247.09056091308594 435.2824401855469 264.6580505371094 478.75250244140625 255.5816650390625 C 489.86566162109375 225.4658203125 465.11572265625 230.48951721191406 454.2279052734375 250.08348083496094 C 442.2532958984375 214.09719848632812 437.61883544921875 185.63568115234375 487.32275390625 176.84120178222656 C 493.919921875 226.08120727539062 508.05340576171875 250.2221221923828 481.1370849609375 239.083984375" stroke-width="0.0" fill="rgb(54, 105, 175)" opacity="0.04948859" stroke="rgb(0, 0, 0)" stroke-opacity="1.0" stroke-linecap="round" stroke-linejoin="round"/>
    <path d="M 436.34564208984375 234.0701904296875 C 379.39251708984375 227.23719787597656 431.6595458984375 172.4043426513672 426.9956970214844 261.5036926269531 C 360.7008056640625 239.4162139892578 377.6217041015625 203.45376586914062 351.11541748046875 152.06700134277344 C 361.91943359375 177.10475158691406 388.5307312011719 169.12986755371094 356.596435546875 177.05572509765625 C 358.2635498046875 126.55001068115234 437.27825927734375 119.42997741699219 436.34564208984375 234.0701904296875" stroke-width="0.0" fill="rgb(156, 15, 0)" opacity="0.89577425" stroke="rgb(0, 0, 0)" stroke-opacity="1.0" stroke-linecap="round" stroke-linejoin="round"/>
    <path d="M 77.54547119140625 430.42864990234375 C 66.49851989746094 423.35400390625 63.52005386352539 420.5750427246094 57.563453674316406 443.38397216796875 C 65.26912689208984 483.9089050292969 41.65239715576172 519.2505493164062 68.33284759521484 513.5850219726562 C 60.9979133605957 422.8918151855469 72.4039306640625 383.7798156738281 38.801513671875 427.6546936035156 C 50.12547302246094 454.4635925292969 67.38766479492188 450.8357849121094 77.54547119140625 430.42864990234375" stroke-width="0.0" fill="rgb(81, 176, 215)" opacity="0.0" stroke="rgb(0, 0, 0)" stroke-opacity="1.0" stroke-linecap="round" stroke-linejoin="round"/>
    <path d="M 440.6425476074219 65.36893463134766 C 475.43060302734375 49.0491943359375 456.48291015625 60.829795837402344 452.8262634277344 54.545719146728516 C 430.9173889160156 55.39300537109375 427.5035400390625 61.90113067626953 412.4111022949219 65.35081481933594 C 414.8921203613281 84.5360336303711 466.3293762207031 60.61671447753906 453.9545593261719 31.32887077331543 C 458.1094970703125 4.6083526611328125 414.3199462890625 17.743118286132812 440.6425476074219 65.36893463134766" stroke-width="0.0" fill="rgb(101, 168, 224)" opacity="0.057928957" stroke="rgb(0, 0, 0)" stroke-opacity="1.0" stroke-linecap="round" stroke-linejoin="round"/>
    <path d="M 310.68896484375 167.23196411132812 C 297.9203186035156 168.468505859375 316.4325866699219 159.15516662597656 292.4524230957031 177.76629638671875 C 298.3695068359375 223.47731018066406 266.9307556152344 220.17491149902344 285.35736083984375 178.2314910888672 C 279.79364013671875 162.59205627441406 285.0013122558594 149.84548950195312 296.7091369628906 148.86325073242188 C 337.0155029296875 137.4499053955078 355.086669921875 151.69496154785156 310.68896484375 167.23196411132812" stroke-width="0.0" fill="rgb(235, 225, 0)" opacity="0.49013582" stroke="rgb(0, 0, 0)" stroke-opacity="1.0" stroke-linecap="round" stroke-linejoin="round"/>
    <path d="M 150.28271484375 48.294525146484375 C 154.60304260253906 79.58375549316406 150.79734802246094 97.1374282836914 129.20664978027344 74.9560546875 C 115.6844482421875 63.122032165527344 120.26170349121094 38.74080276489258 137.15185546875 38.833736419677734 C 150.75762939453125 47.709022521972656 139.8904571533203 64.49685668945312 105.82746887207031 42.28439712524414 C 139.26063537597656 19.05506134033203 150.4037628173828 27.519712448120117 150.28271484375 48.294525146484375" stroke-width="0.0" fill="rgb(179, 233, 243)" opacity="0.0" stroke="rgb(0, 0, 0)" stroke-opacity="1.0" stroke-linecap="round" stroke-linejoin="round"/>
    <path d="M 204.5218505859375 355.3833923339844 C 186.74681091308594 357.02850341796875 176.76974487304688 349.0262756347656 198.59716796875 337.5767822265625 C 191.38516235351562 354.7065124511719 169.20895385742188 350.68902587890625 146.08102416992188 332.2627868652344 C 173.3429412841797 329.8450012207031 185.89491271972656 317.0419616699219 201.96762084960938 346.91021728515625 C 198.69186401367188 359.02716064453125 183.2421875 359.1594543457031 204.5218505859375 355.3833923339844" stroke-width="0.0" fill="rgb(118, 166, 68)" opacity="0.06460736" stroke="rgb(0, 0, 0)" stroke-opacity="1.0" stroke-linecap="round" stroke-linejoin="round"/>
    <path d="M 61.0592155456543 321.74200439453125 C 62.94638442993164 338.53582763671875 51.1245231628418 344.5780944824219 32.615596771240234 346.53369140625 C 23.054227828979492 338.8522033691406 18.86775779724121 328.2751159667969 17.486997604370117 323.20184326171875 C 21.112613677978516 314.7676086425781 35.975372314453125 307.2755432128906 40.789424896240234 301.13043212890625 C 51.95902633666992 298.92413330078125 57.8697509765625 299.5098876953125 61.0592155456543 321.74200439453125" stroke-width="0.0" fill="rgb(44, 106, 188)" opacity="0.0" stroke="rgb(0, 0, 0)" stroke-opacity="1.0" stroke-linecap="round" stroke-linejoin="round"/>
    <path d="M 413.41217041015625 451.0837097167969 C 405.2703552246094 461.8982238769531 425.8774719238281 438.1989440917969 412.1217956542969 430.3108825683594 C 385.6799011230469 450.35516357421875 395.15362548828125 452.1005554199219 400.71649169921875 433.2373352050781 C 390.4340515136719 432.2393798828125 411.7441711425781 445.6136474609375 420.1800537109375 453.1508483886719 C 396.27490234375 442.4419860839844 417.07275390625 443.046630859375 413.41217041015625 451.0837097167969" stroke-width="0.0" fill="rgb(43, 114, 164)" opacity="0.0" stroke="rgb(0, 0, 0)" stroke-opacity="1.0" stroke-linecap="round" stroke-linejoin="round"/>
    <path d="M 126.55819702148438 284.05859375 C 143.3846893310547 220.52450561523438 194.50132751464844 268.7634582519531 154.67767333984375 297.08966064453125 C 122.5368881225586 278.52276611328125 106.1824722290039 275.5406494140625 96.92311096191406 288.7029724121094 C 140.931884765625 255.97715759277344 156.5675506591797 233.8165283203125 115.40951538085938 251.2681427001953 C 114.17426300048828 230.50100708007812 87.07328796386719 262.5345764160156 126.55819702148438 284.05859375" stroke-width="0.0" fill="rgb(254, 0, 17)" opacity="0.36934537" stroke="rgb(0, 0, 0)" stroke-opacity="1.0" stroke-linecap="round" stroke-linejoin="round"/>
    <path d="M 176.958740234375 434.3442687988281 C 126.62458801269531 453.6475524902344 120.39363861083984 457.4875183105469 121.97039794921875 449.0455322265625 C 116.32447814941406 460.7134704589844 114.97486877441406 452.06353759765625 123.1732406616211 453.8074645996094 C 140.4684600830078 454.8265686035156 159.2624969482422 439.1344299316406 123.2740249633789 420.5782470703125 C 138.09588623046875 406.6332092285156 167.0150604248047 408.5111389160156 176.958740234375 434.3442687988281" stroke-width="0.0" fill="rgb(47, 175, 216)" opacity="0.9732426" stroke="rgb(0, 0, 0)" stroke-opacity="1.0" stroke-linecap="round" stroke-linejoin="round"/>
    <path d="M 262.97613525390625 39.91461181640625 C 265.8916015625 37.66990661621094 270.5602722167969 53.21244812011719 262.9881286621094 50.517372131347656 C 224.57997131347656 48.20464324951172 222.3089141845703 46.81624221801758 238.63543701171875 36.005008697509766 C 239.29051208496094 41.56647872924805 246.8612823486328 33.14314651489258 255.072998046875 26.053874969482422 C 240.48312377929688 21.53404426574707 240.95437622070312 21.3232364654541 262.97613525390625 39.91461181640625" stroke-width="0.0" fill="rgb(33, 184, 202)" opacity="0.03995889" stroke="rgb(0, 0, 0)" stroke-opacity="1.0" stroke-linecap="round" stroke-linejoin="round"/>
    <path d="M 121.50045013427734 331.4547424316406 C 139.5465850830078 346.16925048828125 147.1764373779297 372.0432434082031 98.32328033447266 377.4451904296875 C 120.85212707519531 381.6759948730469 97.70262145996094 381.47491455078125 70.36439514160156 286.3896789550781 C 102.90609741210938 251.7477264404297 122.25496673583984 251.1781463623047 91.28084564208984 286.09051513671875 C 128.62953186035156 288.8902587890625 156.28367614746094 305.5510559082031 121.50045013427734 331.4547424316406" stroke-width="0.0" fill="rgb(165, 5, 0)" opacity="0.9943874" stroke="rgb(0, 0, 0)" stroke-opacity="1.0" stroke-linecap="round" stroke-linejoin="round"/>
    <path d="M 504.06805419921875 213.72073364257812 C 521.9227905273438 235.9273223876953 504.1443786621094 232.28836059570312 496.3601989746094 243.49240112304688 C 529.5435180664062 240.697021484375 506.27886962890625 241.04263305664062 492.6125793457031 277.3545227050781 C 463.8501281738281 246.19911193847656 465.66021728515625 208.71900939941406 500.10919189453125 197.41275024414062 C 504.4852600097656 183.39813232421875 511.09234619140625 188.52366638183594 504.06805419921875 213.72073364257812" stroke-width="0.0" fill="rgb(19, 126, 140)" opacity="0.0" stroke="rgb(0, 0, 0)" stroke-opacity="1.0" stroke-linecap="round" stroke-linejoin="round"/>
    <path d="M 458.3074951171875 253.5702667236328 C 467.63446044921875 272.1797790527344 452.8445129394531 282.5104064941406 425.85491943359375 309.0240783691406 C 404.6730041503906 307.7495422363281 410.21612548828125 284.278564453125 426.9244689941406 260.35955810546875 C 434.5243225097656 250.2927703857422 450.3812255859375 258.0469665527344 449.44378662109375 251.65480041503906 C 422.6750183105469 254.4718017578125 434.94512939453125 271.4349670410156 458.3074951171875 253.5702667236328" stroke-width="0.0" fill="rgb(70, 90, 181)" opacity="0.06190697" stroke="rgb(0, 0, 0)" stroke-opacity="1.0" stroke-linecap="round" stroke-linejoin="round"/>
    <path d="M 513.265380859375 85.27947235107422 C 502.3389892578125 63.81513977050781 512.6246948242188 100.96680450439453 520.3734130859375 86.27594757080078 C 480.0869445800781 94.18749237060547 473.56982421875 79.37169647216797 482.7971496582031 60.17726516723633 C 471.5204772949219 61.22563552856445 485.9303894042969 50.82270812988281 499.5193786621094 47.31917953491211 C 525.3978271484375 44.175506591796875 524.1421508789062 79.0038070678711 513.265380859375 85.27947235107422" stroke-width="0.0" fill="rgb(16, 163, 123)" opacity="0.0" stroke="rgb(0, 0, 0)" stroke-opacity="1.0" stroke-linecap="round" stroke-linejoin="round"/>
    <path d="M 40.18264389038086 266.0933532714844 C -9.492379188537598 218.19003295898438 38.42179870605469 161.840576171875 63.66556167602539 204.56036376953125 C 36.168495178222656 206.7418670654297 28.237817764282227 208.90321350097656 41.52927017211914 197.1741180419922 C 31.78750991821289 185.76710510253906 28.468029022216797 188.80702209472656 38.50857925415039 171.2011260986328 C 73.94719696044922 173.2263946533203 90.14920806884766 177.8645782470703 40.18264389038086 266.0933532714844" stroke-width="0.0" fill="rgb(130, 137, 252)" opacity="0.17448127" stroke="rgb(0, 0, 0)" stroke-opacity="1.0" stroke-linecap="round" stroke-linejoin="round"/>
    <path d="M 134.8662109375 324.5582580566406 C 124.15255737304688 341.2502136230469 113.4893569946289 335.2010192871094 102.4603500366211 341.86334228515625 C 99.76702880859375 363.65484619140625 99.0658187866211 349.6197204589844 101.98625183105469 339.881591796875 C 105.00926208496094 358.7706298828125 107.28246307373047 323.6590881347656 133.8790283203125 331.26544189453125 C 118.18463897705078 312.67218017578125 119.9476547241211 313.94775390625 134.8662109375 324.5582580566406" stroke-width="0.0" fill="rgb(91, 60, 0)" opacity="0.22622474" stroke="rgb(0, 0, 0)" stroke-opacity="1.0" stroke-linecap="round" stroke-linejoin="round"/>
    <path d="M 29.118188858032227 94.39982604980469 C 18.25697135925293 94.01045227050781 38.32807922363281 97.67864990234375 50.727569580078125 123.45161437988281 C 27.768001556396484 107.50506591796875 20.446884155273438 90.11418151855469 2.6401138305664062 101.52470397949219 C 19.015804290771484 86.44615173339844 18.372055053710938 80.40898895263672 40.535911560058594 81.7343978881836 C 22.887805938720703 89.37881469726562 34.86790466308594 95.14257049560547 29.118188858032227 94.39982604980469" stroke-width="0.0" fill="rgb(103, 222, 153)" opacity="0.033231694" stroke="rgb(0, 0, 0)" stroke-opacity="1.0" stroke-linecap="round" stroke-linejoin="round"/>
  </g>
</svg>
