<?xml version="1.0" ?>
<svg xmlns="http://www.w3.org/2000/svg" version="1.1" width="512" height="512">
  <defs/>
  <g>
    <path d="M 546.2078247070312 445.7900390625 C 532.5188598632812 533.70068359375 535.6746826171875 538.7365112304688 397.7546691894531 523.733642578125 C 317.89886474609375 562.1510620117188 291.6869812011719 566.9583129882812 229.62545776367188 437.7193603515625 C 275.59588623046875 284.93719482421875 360.9712219238281 327.4039611816406 494.04522705078125 299.9304504394531 C 576.17529296875 290.6422424316406 576.26171875 312.7604675292969 546.2078247070312 445.7900390625" stroke-width="0.0" fill="rgb(255, 151, 1)" opacity="0.994753" stroke="rgb(0, 0, 0)" stroke-opacity="1.0" stroke-linecap="round" stroke-linejoin="round"/>
    <path d="M 276.739501953125 435.6763000488281 C 339.0420227050781 514.3118896484375 342.4401550292969 525.9789428710938 140.3403778076172 521.1642456054688 C -51.20000076293945 517.7235107421875 -51.20000076293945 507.83367919921875 -21.774600982666016 449.183837890625 C -18.38620376586914 205.44985961914062 -18.693912506103516 199.01014709472656 -29.88590431213379 269.3782043457031 C 211.6946258544922 316.1646423339844 279.7560119628906 227.30723571777344 276.739501953125 435.6763000488281" stroke-width="0.0" fill="rgb(0, 10, 143)" opacity="0.99677557" stroke="rgb(0, 0, 0)" stroke-opacity="1.0" stroke-linecap="round" stroke-linejoin="round"/>
    <path d="M 273.3289489746094 314.0948181152344 C 247.69927978515625 422.5251159667969 250.507568359375 441.15850830078125 211.60989379882812 335.9050598144531 C 58.442867279052734 313.7550964355469 5.068609714508057 389.1922302246094 18.735004425048828 190.0207977294922 C 3.2701303958892822 167.3312530517578 21.36004638671875 163.38592529296875 110.85027313232422 106.69920349121094 C 261.21038818359375 121.48060607910156 276.98150634765625 115.60675048828125 273.3289489746094 314.0948181152344" stroke-width="0.0" fill="rgb(13, 86, 41)" opacity="0.41646713" stroke="rgb(0, 0, 0)" stroke-opacity="1.0" stroke-linecap="round" stroke-linejoin="round"/>
    <path d="M 276.3483581542969 7.5255537033081055 C 257.98040771484375 195.65965270996094 215.56866455078125 154.5449981689453 21.140785217285156 179.09202575683594 C -29.9073486328125 195.4318389892578 -27.472867965698242 177.6667022705078 -21.15984344482422 47.25190734863281 C -14.989005088806152 -15.722881317138672 -7.218327522277832 -19.66063117980957 61.46835708618164 -10.423785209655762 C 189.807373046875 -17.029083251953125 233.6491241455078 -42.833030700683594 276.3483581542969 7.5255537033081055" stroke-width="0.0" fill="rgb(0, 21, 142)" opacity="1.0" stroke="rgb(0, 0, 0)" stroke-opacity="1.0" stroke-linecap="round" stroke-linejoin="round"/>
    <path d="M 530.4002685546875 46.915367126464844 C 420.9604797363281 266.9905700683594 429.9715270996094 284.2607727050781 379.60015869140625 302.7184143066406 C 252.13417053222656 329.9060363769531 242.72019958496094 348.02880859375 262.5686340332031 203.089111328125 C 224.93658447265625 66.14266204833984 217.10511779785156 2.3698785305023193 327.82183837890625 -51.13761520385742 C 563.2000122070312 -6.244815349578857 563.2000122070312 4.452378749847412 530.4002685546875 46.915367126464844" stroke-width="0.0" fill="rgb(4, 24, 150)" opacity="0.99050397" stroke="rgb(0, 0, 0)" stroke-opacity="1.0" stroke-linecap="round" stroke-linejoin="round"/>
    <path d="M 494.3819885253906 349.809814453125 C 483.3563537597656 499.8280944824219 529.641357421875 569.672607421875 352.0398254394531 570.7235107421875 C 192.70989990234375 570.0048828125 215.9327392578125 556.0349731445312 249.73513793945312 472.9667053222656 C 239.8797149658203 195.9246368408203 268.7923278808594 195.36868286132812 317.7203674316406 232.3048553466797 C 411.0638122558594 263.397705078125 441.68487548828125 283.4234619140625 494.3819885253906 349.809814453125" stroke-width="0.0" fill="rgb(2, 22, 147)" opacity="0.9980944" stroke="rgb(0, 0, 0)" stroke-opacity="1.0" stroke-linecap="round" stroke-linejoin="round"/>
    <path d="M 532.4549560546875 201.86163330078125 C 546.2119750976562 299.8541259765625 532.932373046875 298.74127197265625 476.2899475097656 331.05657958984375 C 368.21868896484375 362.27056884765625 347.69293212890625 321.9299621582031 380.75421142578125 226.64183044433594 C 421.6999816894531 135.2225799560547 397.4930114746094 80.7896728515625 522.2969970703125 83.11698150634766 C 554.0654296875 84.3225326538086 568.549560546875 121.34545135498047 532.4549560546875 201.86163330078125" stroke-width="0.0" fill="rgb(137, 254, 0)" opacity="0.9996684" stroke="rgb(0, 0, 0)" stroke-opacity="1.0" stroke-linecap="round" stroke-linejoin="round"/>
    <path d="M 238.76077270507812 255.40476989746094 C 266.51275634765625 287.0732727050781 286.35675048828125 314.43798828125 241.25985717773438 320.4148864746094 C 255.66879272460938 267.7462463378906 276.4378356933594 268.6586608886719 235.90744018554688 203.81524658203125 C 130.2024688720703 179.82302856445312 118.63656616210938 179.36099243164062 214.27711486816406 167.27171325683594 C 223.441650390625 198.2438201904297 193.0872344970703 224.38990783691406 238.76077270507812 255.40476989746094" stroke-width="0.0" fill="rgb(16, 16, 139)" opacity="0.6541254" stroke="rgb(0, 0, 0)" stroke-opacity="1.0" stroke-linecap="round" stroke-linejoin="round"/>
    <path d="M 259.6561584472656 64.64368438720703 C 250.4183349609375 96.87291717529297 251.7175750732422 119.73185729980469 239.5779571533203 113.44046783447266 C 232.44058227539062 113.3660888671875 225.5742950439453 111.43035888671875 220.9713134765625 105.15570068359375 C 264.3779296875 104.99797058105469 264.3642272949219 51.45557403564453 215.7002716064453 66.0598373413086 C 216.8994903564453 80.85113525390625 268.95440673828125 55.01565933227539 259.6561584472656 64.64368438720703" stroke-width="0.0" fill="rgb(222, 175, 217)" opacity="0.7762088" stroke="rgb(0, 0, 0)" stroke-opacity="1.0" stroke-linecap="round" stroke-linejoin="round"/>
    <path d="M 208.6573944091797 292.2829895019531 C 189.7483367919922 510.57171630859375 248.34075927734375 525.5435180664062 183.2218780517578 515.6483764648438 C 197.73721313476562 426.77642822265625 189.1393585205078 342.3525085449219 165.91763305664062 334.22637939453125 C 197.61073303222656 335.40399169921875 186.9830780029297 341.2658996582031 180.08851623535156 350.2859191894531 C 182.09060668945312 353.96478271484375 173.51490783691406 350.476806640625 208.6573944091797 292.2829895019531" stroke-width="0.0" fill="rgb(255, 242, 80)" opacity="0.9982207" stroke="rgb(0, 0, 0)" stroke-opacity="1.0" stroke-linecap="round" stroke-linejoin="round"/>
    <path d="M 238.23460388183594 196.31378173828125 C 247.33108520507812 234.76693725585938 241.87066650390625 312.1125183105469 196.6484832763672 342.4919738769531 C 119.75720977783203 368.0735778808594 233.9186553955078 347.29217529296875 209.6196746826172 299.8651428222656 C 30.91498565673828 186.56265258789062 19.0882511138916 133.29888916015625 228.3431854248047 49.87272262573242 C 148.96942138671875 196.59593200683594 193.0148468017578 104.2373275756836 238.23460388183594 196.31378173828125" stroke-width="0.0" fill="rgb(255, 222, 65)" opacity="0.9823644" stroke="rgb(0, 0, 0)" stroke-opacity="1.0" stroke-linecap="round" stroke-linejoin="round"/>
    <path d="M 170.62173461914062 268.73223876953125 C 98.96849822998047 248.2083282470703 72.46434020996094 276.293212890625 75.72111511230469 309.76861572265625 C 73.0820083618164 390.223388671875 71.64048767089844 389.4310607910156 -8.841964721679688 270.9876403808594 C -68.77336883544922 59.81391143798828 -61.00605010986328 90.5420913696289 123.90343475341797 74.16221618652344 C 195.6680450439453 160.5618896484375 205.06631469726562 197.39480590820312 170.62173461914062 268.73223876953125" stroke-width="0.0" fill="rgb(0, 17, 154)" opacity="1.0" stroke="rgb(0, 0, 0)" stroke-opacity="1.0" stroke-linecap="round" stroke-linejoin="round"/>
    <path d="M 253.4471893310547 43.943973541259766 C 232.65916442871094 110.78125 228.3849639892578 102.89524841308594 165.19888305664062 110.77169036865234 C 156.78964233398438 119.35753631591797 113.50162506103516 128.58615112304688 111.24544525146484 30.239126205444336 C 112.91358184814453 -43.83778381347656 115.65933227539062 -37.322364807128906 224.1341094970703 -68.680908203125 C 235.96176147460938 -30.774120330810547 208.08377075195312 12.908514022827148 253.4471893310547 43.943973541259766" stroke-width="0.0" fill="rgb(0, 0, 195)" opacity="1.0" stroke="rgb(0, 0, 0)" stroke-opacity="1.0" stroke-linecap="round" stroke-linejoin="round"/>
    <path d="M 280.36773681640625 157.01051330566406 C 325.03057861328125 224.3722686767578 291.34759521484375 265.08709716796875 217.89724731445312 221.78990173339844 C 156.44918823242188 166.8207244873047 272.8583679199219 151.36968994140625 213.94107055664062 108.40660858154297 C 248.0642547607422 50.20429229736328 274.5906982421875 111.24494934082031 335.62396240234375 89.36986541748047 C 262.4191589355469 172.6234130859375 247.9496307373047 147.5481414794922 280.36773681640625 157.01051330566406" stroke-width="0.0" fill="rgb(255, 217, 33)" opacity="1.0" stroke="rgb(0, 0, 0)" stroke-opacity="1.0" stroke-linecap="round" stroke-linejoin="round"/>
    <path d="M 106.18933868408203 310.2872619628906 C 88.05522918701172 355.0223693847656 126.80086517333984 365.7831115722656 120.8270492553711 374.3450012207031 C 98.46200561523438 342.6651306152344 65.5116958618164 331.2540283203125 77.32015228271484 301.40997314453125 C 81.19512939453125 314.3520202636719 80.0113525390625 315.7516174316406 70.67597961425781 328.1580810546875 C 33.583919525146484 446.4366149902344 -13.788423538208008 283.1928405761719 106.18933868408203 310.2872619628906" stroke-width="0.0" fill="rgb(63, 229, 31)" opacity="0.87353116" stroke="rgb(0, 0, 0)" stroke-opacity="1.0" stroke-linecap="round" stroke-linejoin="round"/>
    <path d="M 242.06849670410156 60.35749435424805 C 254.4021759033203 172.44728088378906 197.2487335205078 153.71578979492188 235.03622436523438 157.11044311523438 C 252.52801513671875 50.184814453125 266.1314392089844 120.25325775146484 248.08335876464844 89.05290985107422 C 295.1905212402344 135.1881103515625 244.36947631835938 48.86662292480469 271.67919921875 23.79062271118164 C 192.50689697265625 18.173526763916016 245.71286010742188 29.829174041748047 242.06849670410156 60.35749435424805" stroke-width="0.0" fill="rgb(255, 225, 0)" opacity="1.0" stroke="rgb(0, 0, 0)" stroke-opacity="1.0" stroke-linecap="round" stroke-linejoin="round"/>
    <path d="M 284.40032958984375 474.82598876953125 C 252.6248321533203 465.36712646484375 234.97262573242188 435.9825134277344 276.165771484375 451.7151184082031 C 295.064697265625 501.20556640625 298.3055419921875 531.3190307617188 232.7152557373047 517.4339599609375 C 212.09085083007812 205.74560546875 246.560791015625 222.7745361328125 264.42462158203125 419.9671936035156 C 281.59503173828125 465.94366455078125 292.96185302734375 457.16064453125 284.40032958984375 474.82598876953125" stroke-width="0.0" fill="rgb(255, 255, 64)" opacity="1.0" stroke="rgb(0, 0, 0)" stroke-opacity="1.0" stroke-linecap="round" stroke-linejoin="round"/>
    <path d="M 171.00852966308594 257.6380920410156 C 198.9239501953125 313.1093444824219 183.07591247558594 362.5768127441406 187.82931518554688 339.3479309082031 C 225.24560546875 258.5581359863281 224.77261352539062 266.09942626953125 101.26591491699219 315.6673889160156 C 138.7041473388672 299.8816833496094 150.05096435546875 306.9034118652344 160.46932983398438 274.9534606933594 C 144.822265625 257.65557861328125 137.7674102783203 273.8427734375 171.00852966308594 257.6380920410156" stroke-width="0.0" fill="rgb(211, 201, 48)" opacity="0.7736144" stroke="rgb(0, 0, 0)" stroke-opacity="1.0" stroke-linecap="round" stroke-linejoin="round"/>
    <path d="M 210.552001953125 94.14115142822266 C 209.7699432373047 110.23262023925781 209.90895080566406 129.83517456054688 192.39410400390625 134.0377655029297 C 155.69129943847656 132.7256317138672 161.63380432128906 135.11524963378906 185.453857421875 117.86809539794922 C 205.28408813476562 112.03125762939453 210.90293884277344 104.64337158203125 201.56956481933594 101.51197052001953 C 198.59503173828125 81.42115783691406 196.12149047851562 107.60299682617188 210.552001953125 94.14115142822266" stroke-width="0.0" fill="rgb(255, 241, 5)" opacity="1.0" stroke="rgb(0, 0, 0)" stroke-opacity="1.0" stroke-linecap="round" stroke-linejoin="round"/>
    <path d="M 362.0243225097656 255.88088989257812 C 334.90594482421875 281.9201354980469 329.6543884277344 282.4817199707031 316.86962890625 287.984619140625 C 301.1634521484375 286.94744873046875 314.75433349609375 292.7728271484375 308.1457214355469 249.91168212890625 C 313.8352966308594 237.45263671875 310.8067932128906 211.52328491210938 347.83892822265625 230.15435791015625 C 370.7057189941406 246.42630004882812 365.3140563964844 252.50994873046875 362.0243225097656 255.88088989257812" stroke-width="0.0" fill="rgb(15, 10, 142)" opacity="0.7415696" stroke="rgb(0, 0, 0)" stroke-opacity="1.0" stroke-linecap="round" stroke-linejoin="round"/>
    <path d="M 197.45999145507812 308.9009094238281 C 172.9879913330078 310.0310363769531 162.78750610351562 335.8653564453125 187.6734161376953 317.43914794921875 C 173.48338317871094 275.05419921875 158.01295471191406 269.3497009277344 140.8173065185547 258.32916259765625 C 186.18426513671875 252.82089233398438 183.43038940429688 256.03228759765625 180.0365753173828 152.6259307861328 C 239.8134765625 205.6080780029297 216.6710205078125 271.6485290527344 197.45999145507812 308.9009094238281" stroke-width="0.0" fill="rgb(237, 166, 62)" opacity="0.99165636" stroke="rgb(0, 0, 0)" stroke-opacity="1.0" stroke-linecap="round" stroke-linejoin="round"/>
    <path d="M 210.6725616455078 81.22705078125 C 231.03280639648438 94.94122314453125 259.7848815917969 117.82865142822266 193.64260864257812 121.45930480957031 C 193.52841186523438 111.47347259521484 196.50979614257812 75.79415130615234 182.04400634765625 40.52251052856445 C 135.86370849609375 58.946842193603516 190.99118041992188 -0.1354580968618393 209.24497985839844 28.926654815673828 C 192.5397186279297 48.105140686035156 209.59494018554688 65.97721862792969 210.6725616455078 81.22705078125" stroke-width="0.0" fill="rgb(255, 247, 0)" opacity="1.0" stroke="rgb(0, 0, 0)" stroke-opacity="1.0" stroke-linecap="round" stroke-linejoin="round"/>
    <path d="M 251.9965362548828 446.6226501464844 C 244.60308837890625 471.3055114746094 292.66680908203125 459.0339660644531 278.9434509277344 485.56683349609375 C 293.87091064453125 501.0738220214844 253.88998413085938 487.88348388671875 280.78411865234375 507.70831298828125 C 266.39288330078125 428.77398681640625 260.7758483886719 438.6528625488281 253.07569885253906 437.6195373535156 C 259.1029052734375 446.0329895019531 261.4302978515625 438.81121826171875 251.9965362548828 446.6226501464844" stroke-width="0.0" fill="rgb(55, 39, 134)" opacity="0.73154235" stroke="rgb(0, 0, 0)" stroke-opacity="1.0" stroke-linecap="round" stroke-linejoin="round"/>
    <path d="M 379.3377380371094 250.99432373046875 C 378.681640625 246.7119598388672 373.2481384277344 257.0330810546875 342.7429504394531 288.2466125488281 C 306.377197265625 298.1655578613281 291.312744140625 254.9507293701172 279.6324462890625 206.9125213623047 C 300.5703430175781 241.47962951660156 322.56298828125 218.7853546142578 335.36029052734375 224.12918090820312 C 347.0283508300781 261.14453125 330.7001647949219 254.4487762451172 379.3377380371094 250.99432373046875" stroke-width="0.0" fill="rgb(230, 69, 35)" opacity="0.98258144" stroke="rgb(0, 0, 0)" stroke-opacity="1.0" stroke-linecap="round" stroke-linejoin="round"/>
    <path d="M 177.9401092529297 135.5196075439453 C 180.01690673828125 168.6064453125 144.36526489257812 168.87486267089844 130.50181579589844 161.36373901367188 C 109.82582092285156 156.3375701904297 104.57366943359375 149.1976776123047 94.5555648803711 126.04190826416016 C 72.49407958984375 95.85828399658203 64.20472717285156 70.7540283203125 90.4158935546875 75.17467498779297 C 167.4782257080078 65.6037368774414 181.0096893310547 82.77234649658203 177.9401092529297 135.5196075439453" stroke-width="0.0" fill="rgb(255, 255, 168)" opacity="1.0" stroke="rgb(0, 0, 0)" stroke-opacity="1.0" stroke-linecap="round" stroke-linejoin="round"/>
    <path d="M 194.82228088378906 420.76739501953125 C 197.76678466796875 457.368408203125 162.81321716308594 455.1448669433594 149.51168823242188 444.7003479003906 C 121.4998779296875 361.5343933105469 125.34154510498047 353.7485656738281 111.20024871826172 366.22930908203125 C 94.62946319580078 333.356689453125 79.58476257324219 343.67041015625 118.01995086669922 347.6004638671875 C 101.29366302490234 332.88726806640625 112.1766357421875 385.4677429199219 194.82228088378906 420.76739501953125" stroke-width="0.0" fill="rgb(255, 221, 67)" opacity="0.9489736" stroke="rgb(0, 0, 0)" stroke-opacity="1.0" stroke-linecap="round" stroke-linejoin="round"/>
    <path d="M 158.94403076171875 388.4452819824219 C 175.94627380371094 544.1829833984375 217.5522918701172 526.7095336914062 71.0933609008789 510.6807861328125 C 104.0548324584961 455.7738037109375 116.56725311279297 480.3475341796875 115.71549224853516 445.8797607421875 C 132.42401123046875 430.32025146484375 142.43905639648438 403.1363220214844 128.50572204589844 370.5723571777344 C 109.65448760986328 381.2821350097656 111.7105941772461 371.9570007324219 158.94403076171875 388.4452819824219" stroke-width="0.0" fill="rgb(255, 186, 75)" opacity="1.0" stroke="rgb(0, 0, 0)" stroke-opacity="1.0" stroke-linecap="round" stroke-linejoin="round"/>
    <path d="M 170.48980712890625 127.72642517089844 C 134.2064666748047 155.18679809570312 110.07587432861328 137.84031677246094 109.47562408447266 132.94984436035156 C 121.23638153076172 110.22268676757812 112.58834838867188 119.58209228515625 92.6996078491211 129.56451416015625 C 105.38644409179688 116.93927764892578 94.96727752685547 128.0829620361328 149.6555633544922 148.00254821777344 C 130.01329040527344 91.97213745117188 125.5809555053711 105.71996307373047 170.48980712890625 127.72642517089844" stroke-width="0.0" fill="rgb(40, 69, 80)" opacity="0.24670397" stroke="rgb(0, 0, 0)" stroke-opacity="1.0" stroke-linecap="round" stroke-linejoin="round"/>
    <path d="M 74.3451156616211 94.3464126586914 C 66.3144302368164 123.49283599853516 68.1244125366211 161.09788513183594 38.4730110168457 138.33779907226562 C 30.535947799682617 125.59381103515625 33.29178237915039 125.370361328125 54.39403533935547 126.8543930053711 C 34.165306091308594 143.00393676757812 45.18071365356445 138.25628662109375 12.149121284484863 98.81537628173828 C 68.03604888916016 86.58330535888672 85.78258514404297 90.38322448730469 74.3451156616211 94.3464126586914" stroke-width="0.0" fill="rgb(38, 20, 165)" opacity="0.0" stroke="rgb(0, 0, 0)" stroke-opacity="1.0" stroke-linecap="round" stroke-linejoin="round"/>
    <path d="M 55.99912643432617 296.6671142578125 C 35.16205596923828 331.18316650390625 32.68730163574219 333.5328674316406 22.91592788696289 346.8241271972656 C 22.13958168029785 319.4751892089844 38.03876876831055 330.7277526855469 38.88558578491211 317.07318115234375 C 23.603242874145508 314.46124267578125 37.00731658935547 284.7206115722656 39.82401657104492 330.9420166015625 C 8.981268882751465 331.33978271484375 18.722524642944336 324.4021911621094 55.99912643432617 296.6671142578125" stroke-width="0.0" fill="rgb(3, 0, 133)" opacity="0.1411416" stroke="rgb(0, 0, 0)" stroke-opacity="1.0" stroke-linecap="round" stroke-linejoin="round"/>
    <path d="M 391.7593078613281 240.2542266845703 C 391.45294189453125 290.6973571777344 395.2195129394531 317.5740051269531 367.2287902832031 319.43292236328125 C 348.46710205078125 249.72940063476562 358.89727783203125 237.9895782470703 361.4750671386719 234.11212158203125 C 367.628173828125 224.9934844970703 365.4540100097656 225.94248962402344 368.23974609375 233.62159729003906 C 364.8011779785156 235.54978942871094 359.8968200683594 228.26754760742188 391.7593078613281 240.2542266845703" stroke-width="0.0" fill="rgb(140, 254, 8)" opacity="0.93298644" stroke="rgb(0, 0, 0)" stroke-opacity="1.0" stroke-linecap="round" stroke-linejoin="round"/>
    <path d="M 176.75848388671875 234.91844177246094 C 174.92642211914062 295.136474609375 189.12779235839844 302.8190612792969 138.41177368164062 309.7679443359375 C 115.16059112548828 278.907470703125 151.09144592285156 246.86001586914062 156.8585205078125 240.49615478515625 C 171.5144500732422 245.14923095703125 178.2156524658203 214.7326202392578 189.6754913330078 217.33602905273438 C 169.5879669189453 266.9481506347656 201.20550537109375 283.0037841796875 176.75848388671875 234.91844177246094" stroke-width="0.0" fill="rgb(0, 0, 163)" opacity="1.0" stroke="rgb(0, 0, 0)" stroke-opacity="1.0" stroke-linecap="round" stroke-linejoin="round"/>
    <path d="M 188.7389373779297 259.5797424316406 C 185.85244750976562 261.5399475097656 199.95419311523438 263.794189453125 219.43243408203125 234.69998168945312 C 253.9095458984375 247.93496704101562 218.5989532470703 289.1295166015625 193.04554748535156 300.9166564941406 C 172.4207000732422 263.7373962402344 172.7742462158203 220.21035766601562 189.81198120117188 192.30612182617188 C 190.35635375976562 212.50595092773438 190.20004272460938 229.3910675048828 188.7389373779297 259.5797424316406" stroke-width="0.0" fill="rgb(203, 149, 114)" opacity="0.21132131" stroke="rgb(0, 0, 0)" stroke-opacity="1.0" stroke-linecap="round" stroke-linejoin="round"/>
    <path d="M 226.76712036132812 356.859375 C 196.61216735839844 371.5355224609375 193.1969757080078 376.4165344238281 150.456298828125 386.3785095214844 C 164.68824768066406 401.471435546875 139.4132080078125 372.5354919433594 173.49407958984375 357.3031311035156 C 169.06199645996094 342.91241455078125 177.92955017089844 354.5555419921875 172.22207641601562 343.82763671875 C 189.1696014404297 327.3078308105469 217.92979431152344 335.76318359375 226.76712036132812 356.859375" stroke-width="0.0" fill="rgb(238, 144, 69)" opacity="0.9459725" stroke="rgb(0, 0, 0)" stroke-opacity="1.0" stroke-linecap="round" stroke-linejoin="round"/>
    <path d="M 79.07133483886719 136.1581573486328 C 117.80827331542969 167.7457733154297 102.70559692382812 159.83604431152344 91.7989273071289 145.27090454101562 C 52.11512756347656 162.08570861816406 40.335845947265625 151.2814178466797 54.95220947265625 138.0711669921875 C 61.29963302612305 123.77247619628906 61.521995544433594 111.21147918701172 101.73590850830078 118.84593963623047 C 102.33919525146484 100.78005981445312 94.3238525390625 106.14620208740234 79.07133483886719 136.1581573486328" stroke-width="0.0" fill="rgb(18, 6, 209)" opacity="0.0" stroke="rgb(0, 0, 0)" stroke-opacity="1.0" stroke-linecap="round" stroke-linejoin="round"/>
    <path d="M 71.74272918701172 90.4157943725586 C 24.42205238342285 124.07435607910156 41.76215362548828 134.24530029296875 49.461238861083984 143.09280395507812 C 16.19658660888672 149.91763305664062 8.496330261230469 133.84617614746094 -18.035221099853516 112.67147827148438 C -15.30129623413086 89.99032592773438 -12.845332145690918 102.41065979003906 4.224846363067627 110.0453109741211 C 54.18291473388672 106.26275634765625 90.22518920898438 86.96463012695312 71.74272918701172 90.4157943725586" stroke-width="0.0" fill="rgb(0, 36, 145)" opacity="0.033326834" stroke="rgb(0, 0, 0)" stroke-opacity="1.0" stroke-linecap="round" stroke-linejoin="round"/>
    <path d="M 108.43213653564453 175.89376831054688 C 101.5218734741211 166.20321655273438 97.8459701538086 153.67584228515625 135.1710662841797 167.04275512695312 C 144.15736389160156 154.91445922851562 130.87643432617188 142.3822784423828 98.48067474365234 162.2328643798828 C 90.18965911865234 154.80557250976562 101.8216323852539 155.1703643798828 111.6052017211914 158.4469757080078 C 91.47083282470703 140.01646423339844 97.5691909790039 162.17010498046875 108.43213653564453 175.89376831054688" stroke-width="0.0" fill="rgb(30, 3, 185)" opacity="0.026616547" stroke="rgb(0, 0, 0)" stroke-opacity="1.0" stroke-linecap="round" stroke-linejoin="round"/>
    <path d="M 410.578125 206.1752471923828 C 426.9935302734375 276.04400634765625 415.63323974609375 284.2490539550781 364.0179138183594 257.1136474609375 C 354.3340759277344 226.57745361328125 365.4150390625 233.25894165039062 383.7076416015625 221.90225219726562 C 374.2312316894531 195.4275360107422 362.0733337402344 191.12306213378906 385.0166931152344 167.93626403808594 C 411.40374755859375 126.86241149902344 425.85064697265625 142.10406494140625 410.578125 206.1752471923828" stroke-width="0.0" fill="rgb(114, 255, 2)" opacity="0.99884665" stroke="rgb(0, 0, 0)" stroke-opacity="1.0" stroke-linecap="round" stroke-linejoin="round"/>
    <path d="M 308.3191223144531 189.29147338867188 C 337.4736328125 231.5094451904297 340.0775451660156 268.6148681640625 287.61572265625 245.05397033691406 C 255.83851623535156 205.35638427734375 257.3868103027344 196.96237182617188 295.96624755859375 186.07362365722656 C 279.46002197265625 153.33255004882812 239.45501708984375 139.67958068847656 278.5843811035156 116.31271362304688 C 308.10107421875 116.66062927246094 295.1916198730469 165.378662109375 308.3191223144531 189.29147338867188" stroke-width="0.0" fill="rgb(255, 244, 0)" opacity="0.9873779" stroke="rgb(0, 0, 0)" stroke-opacity="1.0" stroke-linecap="round" stroke-linejoin="round"/>
    <path d="M 189.03709411621094 7.172934532165527 C 203.30828857421875 36.625816345214844 164.03016662597656 34.63561248779297 134.5454559326172 65.7634048461914 C 103.24510192871094 79.08751678466797 104.62176513671875 60.27181625366211 101.48464965820312 -11.424973487854004 C 87.8172607421875 3.1478893756866455 87.56075286865234 3.103764533996582 179.94993591308594 -7.026485443115234 C 182.1961669921875 17.572040557861328 160.16001892089844 16.876352310180664 189.03709411621094 7.172934532165527" stroke-width="0.0" fill="rgb(0, 58, 82)" opacity="0.2556052" stroke="rgb(0, 0, 0)" stroke-opacity="1.0" stroke-linecap="round" stroke-linejoin="round"/>
    <path d="M 60.17803192138672 337.1768798828125 C 67.84864044189453 322.2417907714844 64.75848388671875 337.3328552246094 56.411895751953125 331.2174072265625 C 18.934080123901367 332.53033447265625 15.458852767944336 337.0636901855469 11.805069923400879 305.9839172363281 C 5.527071952819824 288.5696716308594 -0.2012014389038086 293.0435791015625 31.30948829650879 292.6280517578125 C 34.37387466430664 319.3060607910156 36.9797248840332 336.6663818359375 60.17803192138672 337.1768798828125" stroke-width="0.0" fill="rgb(5, 21, 177)" opacity="0.058790717" stroke="rgb(0, 0, 0)" stroke-opacity="1.0" stroke-linecap="round" stroke-linejoin="round"/>
    <path d="M 239.19338989257812 43.66886520385742 C 241.72337341308594 28.996166229248047 216.06063842773438 71.40858459472656 244.52301025390625 73.19647979736328 C 245.33157348632812 29.3442325592041 234.08770751953125 35.14187240600586 250.0059356689453 41.19161605834961 C 257.68951416015625 18.80449104309082 238.63145446777344 15.499109268188477 248.06248474121094 32.69049072265625 C 239.84632873535156 32.1694450378418 249.63441467285156 25.321487426757812 239.19338989257812 43.66886520385742" stroke-width="0.0" fill="rgb(126, 90, 51)" opacity="0.0" stroke="rgb(0, 0, 0)" stroke-opacity="1.0" stroke-linecap="round" stroke-linejoin="round"/>
    <path d="M 123.10958862304688 357.53680419921875 C 118.00425720214844 345.2092590332031 166.10731506347656 370.7083740234375 141.6383819580078 409.4917297363281 C 97.01702117919922 344.9101257324219 86.709228515625 355.7872314453125 81.50634002685547 391.24493408203125 C 40.8126106262207 385.3239440917969 52.68206787109375 326.2227478027344 93.70234680175781 309.4840087890625 C 122.43646240234375 302.78717041015625 125.90074920654297 330.5032043457031 123.10958862304688 357.53680419921875" stroke-width="0.0" fill="rgb(4, 121, 81)" opacity="1.0" stroke="rgb(0, 0, 0)" stroke-opacity="1.0" stroke-linecap="round" stroke-linejoin="round"/>
    <path d="M 200.6143798828125 347.2462463378906 C 180.74786376953125 369.5062561035156 178.7283477783203 372.94512939453125 191.9867401123047 384.5074768066406 C 194.58314514160156 411.8288269042969 185.9967041015625 388.3122863769531 190.5457305908203 389.38128662109375 C 169.35923767089844 390.998046875 172.25778198242188 358.2271423339844 186.05874633789062 362.9869079589844 C 187.1735382080078 355.08856201171875 201.4921875 372.0044860839844 200.6143798828125 347.2462463378906" stroke-width="0.0" fill="rgb(251, 62, 104)" opacity="0.021071453" stroke="rgb(0, 0, 0)" stroke-opacity="1.0" stroke-linecap="round" stroke-linejoin="round"/>
    <path d="M 55.554786682128906 191.09779357910156 C 64.48741149902344 221.08299255371094 58.03801345825195 222.69886779785156 48.616268157958984 197.5464630126953 C 56.362918853759766 178.54478454589844 41.06217575073242 180.8536834716797 44.425254821777344 191.91539001464844 C 34.620750427246094 182.85784912109375 37.4584846496582 155.63856506347656 36.59465026855469 174.8177032470703 C 11.108184814453125 172.867919921875 35.74772262573242 180.297607421875 55.554786682128906 191.09779357910156" stroke-width="0.0" fill="rgb(2, 10, 140)" opacity="0.0" stroke="rgb(0, 0, 0)" stroke-opacity="1.0" stroke-linecap="round" stroke-linejoin="round"/>
    <path d="M 408.299072265625 317.77716064453125 C 463.19390869140625 323.35321044921875 452.35186767578125 325.9873352050781 433.2569885253906 295.36578369140625 C 424.9296875 330.39337158203125 424.8993225097656 331.74334716796875 418.177490234375 311.6385192871094 C 423.64764404296875 279.1568908691406 430.8785705566406 262.76513671875 417.1138610839844 270.66748046875 C 406.01422119140625 303.5057373046875 404.3891296386719 336.6156005859375 408.299072265625 317.77716064453125" stroke-width="0.0" fill="rgb(80, 101, 80)" opacity="0.0190669" stroke="rgb(0, 0, 0)" stroke-opacity="1.0" stroke-linecap="round" stroke-linejoin="round"/>
    <path d="M 5.537391662597656 142.40078735351562 C -0.7670363783836365 162.31153869628906 20.46175193786621 144.249267578125 40.174583435058594 165.3930206298828 C 52.021446228027344 146.86611938476562 42.549163818359375 132.0333251953125 7.484910488128662 100.23680114746094 C -42.375526428222656 115.74622344970703 -11.82786750793457 136.9939422607422 5.223747253417969 181.624755859375 C 7.970606803894043 171.67076110839844 9.528570175170898 142.49005126953125 5.537391662597656 142.40078735351562" stroke-width="0.0" fill="rgb(0, 21, 108)" opacity="0.03563043" stroke="rgb(0, 0, 0)" stroke-opacity="1.0" stroke-linecap="round" stroke-linejoin="round"/>
    <path d="M 538.3585815429688 234.44766235351562 C 542.1934814453125 254.966552734375 547.4435424804688 267.1670837402344 499.5160827636719 259.9606018066406 C 501.0076904296875 252.8787841796875 524.3819580078125 266.5612487792969 528.70849609375 222.32225036621094 C 513.3480224609375 192.73971557617188 514.5841674804688 190.56607055664062 503.0776062011719 211.61656188964844 C 507.51123046875 221.6742706298828 531.55029296875 223.1162567138672 538.3585815429688 234.44766235351562" stroke-width="0.0" fill="rgb(80, 177, 130)" opacity="0.00045857555" stroke="rgb(0, 0, 0)" stroke-opacity="1.0" stroke-linecap="round" stroke-linejoin="round"/>
    <path d="M 229.7990264892578 94.9334716796875 C 238.95802307128906 123.88296508789062 251.88478088378906 145.0621795654297 245.47996520996094 141.958984375 C 219.63140869140625 140.807373046875 188.60064697265625 148.84024047851562 199.96041870117188 126.76710510253906 C 217.89662170410156 112.23753356933594 225.62852478027344 83.915283203125 243.02113342285156 74.78285217285156 C 230.44491577148438 69.75200653076172 237.4716033935547 79.12347412109375 229.7990264892578 94.9334716796875" stroke-width="0.0" fill="rgb(255, 225, 52)" opacity="0.88702446" stroke="rgb(0, 0, 0)" stroke-opacity="1.0" stroke-linecap="round" stroke-linejoin="round"/>
    <path d="M 398.76910400390625 250.0847930908203 C 412.233154296875 264.4886474609375 400.5093078613281 282.5461120605469 421.17254638671875 294.0278625488281 C 438.71551513671875 286.0782775878906 419.60693359375 247.47824096679688 415.8692932128906 238.58302307128906 C 412.5870361328125 236.75552368164062 410.825927734375 246.0547637939453 417.7826843261719 232.73553466796875 C 413.23382568359375 198.79641723632812 408.7065734863281 257.74420166015625 398.76910400390625 250.0847930908203" stroke-width="0.0" fill="rgb(90, 193, 61)" opacity="0.0033702366" stroke="rgb(0, 0, 0)" stroke-opacity="1.0" stroke-linecap="round" stroke-linejoin="round"/>
    <path d="M 536.7576904296875 116.86497497558594 C 524.8594360351562 144.88919067382812 520.6116943359375 148.6661376953125 515.2577514648438 148.06996154785156 C 491.12298583984375 142.14898681640625 492.0094299316406 148.0020751953125 515.377685546875 139.4783172607422 C 508.1651306152344 97.52299499511719 493.6929931640625 102.8357162475586 485.8716735839844 103.45513916015625 C 514.9115600585938 97.00772857666016 529.2322998046875 103.51830291748047 536.7576904296875 116.86497497558594" stroke-width="0.0" fill="rgb(0, 142, 51)" opacity="0.0" stroke="rgb(0, 0, 0)" stroke-opacity="1.0" stroke-linecap="round" stroke-linejoin="round"/>
    <path d="M 516.2918701171875 141.8867950439453 C 505.8103332519531 141.8943634033203 491.09149169921875 151.86354064941406 499.89984130859375 169.92369079589844 C 508.0648193359375 175.80654907226562 502.2193908691406 155.8040008544922 498.02099609375 157.935302734375 C 483.46942138671875 171.77685546875 493.3506164550781 161.25799560546875 499.35015869140625 160.65370178222656 C 511.3616027832031 140.20179748535156 530.134033203125 162.52365112304688 516.2918701171875 141.8867950439453" stroke-width="0.0" fill="rgb(21, 56, 121)" opacity="0.0005739066" stroke="rgb(0, 0, 0)" stroke-opacity="1.0" stroke-linecap="round" stroke-linejoin="round"/>
    <path d="M 70.67554473876953 354.9552001953125 C 108.78410339355469 336.2359619140625 79.28556823730469 342.453857421875 52.18686294555664 359.5710754394531 C 14.070972442626953 369.98992919921875 11.445049285888672 372.0346374511719 23.542959213256836 354.3699035644531 C 61.36294937133789 355.3750915527344 90.62494659423828 347.4272155761719 43.726707458496094 331.4993591308594 C 50.62543487548828 334.8486022949219 54.971221923828125 341.9797668457031 70.67554473876953 354.9552001953125" stroke-width="0.0" fill="rgb(11, 52, 28)" opacity="0.083096765" stroke="rgb(0, 0, 0)" stroke-opacity="1.0" stroke-linecap="round" stroke-linejoin="round"/>
    <path d="M 344.4432373046875 278.0738830566406 C 356.71868896484375 282.8407897949219 352.6577453613281 288.14654541015625 320.5862121582031 279.3233642578125 C 314.208740234375 265.1430969238281 277.555908203125 274.9263610839844 350.0899353027344 267.16937255859375 C 328.7284240722656 198.04051208496094 293.75506591796875 195.7423553466797 337.4464111328125 221.6495361328125 C 325.9229431152344 236.295166015625 332.47906494140625 253.4217529296875 344.4432373046875 278.0738830566406" stroke-width="0.0" fill="rgb(143, 28, 76)" opacity="0.0" stroke="rgb(0, 0, 0)" stroke-opacity="1.0" stroke-linecap="round" stroke-linejoin="round"/>
    <path d="M 487.1820068359375 165.01002502441406 C 502.2492980957031 141.60992431640625 481.8197021484375 141.430419921875 485.1091613769531 149.23805236816406 C 489.44744873046875 98.71937561035156 482.84234619140625 102.60757446289062 502.8902282714844 126.2889175415039 C 505.0221252441406 140.9862518310547 487.6810302734375 126.6670913696289 486.8788146972656 122.5133056640625 C 481.8258972167969 124.24195861816406 478.0112609863281 138.86196899414062 487.1820068359375 165.01002502441406" stroke-width="0.0" fill="rgb(71, 103, 121)" opacity="0.0" stroke="rgb(0, 0, 0)" stroke-opacity="1.0" stroke-linecap="round" stroke-linejoin="round"/>
    <path d="M 477.8552551269531 454.8555908203125 C 474.57318115234375 467.4761962890625 474.2994384765625 470.44317626953125 437.58306884765625 479.47607421875 C 449.1808776855469 464.97747802734375 453.0758056640625 451.1100158691406 438.4863586425781 456.25830078125 C 444.1466979980469 458.85076904296875 466.4020690917969 447.98504638671875 453.06329345703125 452.6942138671875 C 462.161376953125 459.9176330566406 485.4172668457031 456.95257568359375 477.8552551269531 454.8555908203125" stroke-width="0.0" fill="rgb(1, 29, 120)" opacity="0.025338072" stroke="rgb(0, 0, 0)" stroke-opacity="1.0" stroke-linecap="round" stroke-linejoin="round"/>
    <path d="M 521.0615234375 380.7591247558594 C 535.3369140625 381.2102966308594 510.5385437011719 377.3138122558594 474.6719665527344 372.5811767578125 C 477.3116760253906 364.6839904785156 489.52593994140625 346.9028625488281 481.22430419921875 347.71392822265625 C 460.54150390625 358.3975524902344 481.1604309082031 365.52215576171875 510.4479064941406 329.90679931640625 C 516.7423706054688 335.8542175292969 509.1111755371094 359.7796936035156 521.0615234375 380.7591247558594" stroke-width="0.0" fill="rgb(29, 60, 93)" opacity="0.0030373211" stroke="rgb(0, 0, 0)" stroke-opacity="1.0" stroke-linecap="round" stroke-linejoin="round"/>
    <path d="M 145.09046936035156 458.90753173828125 C 162.32493591308594 463.85040283203125 173.95053100585938 460.87451171875 163.72171020507812 443.564697265625 C 143.22079467773438 450.7518615722656 156.4073944091797 451.61590576171875 152.7203369140625 449.5073547363281 C 149.6303253173828 436.8283996582031 151.29177856445312 409.40411376953125 166.13656616210938 405.85125732421875 C 166.0115509033203 422.634765625 158.38304138183594 470.1828918457031 145.09046936035156 458.90753173828125" stroke-width="0.0" fill="rgb(186, 15, 122)" opacity="0.0" stroke="rgb(0, 0, 0)" stroke-opacity="1.0" stroke-linecap="round" stroke-linejoin="round"/>
    <path d="M 117.69884490966797 132.8720703125 C 109.60049438476562 162.13417053222656 86.73946380615234 159.5231475830078 73.04460144042969 178.91842651367188 C 73.79667663574219 170.31375122070312 55.28509521484375 166.36837768554688 76.05533599853516 150.99380493164062 C 67.26917266845703 161.24449157714844 65.45104217529297 129.01080322265625 62.50196075439453 122.0600357055664 C 104.86050415039062 134.32156372070312 125.03510284423828 132.75527954101562 117.69884490966797 132.8720703125" stroke-width="0.0" fill="rgb(22, 6, 160)" opacity="0.0" stroke="rgb(0, 0, 0)" stroke-opacity="1.0" stroke-linecap="round" stroke-linejoin="round"/>
    <path d="M 183.97462463378906 122.04920196533203 C 101.15087890625 80.27674102783203 102.14317321777344 76.84584045410156 141.51437377929688 142.3189697265625 C 181.35833740234375 140.88970947265625 175.3330078125 119.67161560058594 178.49185180664062 131.39964294433594 C 196.78610229492188 134.90325927734375 196.2926788330078 124.33362579345703 197.58523559570312 136.09140014648438 C 172.26463317871094 141.1970672607422 168.70335388183594 138.3867950439453 183.97462463378906 122.04920196533203" stroke-width="0.0" fill="rgb(116, 0, 13)" opacity="1.0" stroke="rgb(0, 0, 0)" stroke-opacity="1.0" stroke-linecap="round" stroke-linejoin="round"/>
    <path d="M 167.128662109375 409.88385009765625 C 175.1685028076172 395.239501953125 192.00408935546875 419.3584289550781 144.12896728515625 413.52435302734375 C 163.24229431152344 390.813232421875 150.58529663085938 399.4007873535156 169.64622497558594 377.34979248046875 C 160.628662109375 374.3387756347656 175.60604858398438 390.651611328125 164.28164672851562 407.4625244140625 C 168.18661499023438 382.7833251953125 173.25921630859375 414.8248596191406 167.128662109375 409.88385009765625" stroke-width="0.0" fill="rgb(55, 10, 97)" opacity="0.038981955" stroke="rgb(0, 0, 0)" stroke-opacity="1.0" stroke-linecap="round" stroke-linejoin="round"/>
    <path d="M 453.58233642578125 122.00532531738281 C 450.6062316894531 131.82119750976562 445.6994323730469 146.46914672851562 448.98980712890625 146.5517120361328 C 448.44781494140625 156.6914825439453 441.81451416015625 145.7639617919922 442.9126281738281 124.2588119506836 C 441.9983215332031 131.8861541748047 455.00152587890625 125.47112274169922 446.03436279296875 107.49622344970703 C 452.11370849609375 118.5165786743164 461.561279296875 124.3932876586914 453.58233642578125 122.00532531738281" stroke-width="0.0" fill="rgb(20, 71, 183)" opacity="0.00020813168" stroke="rgb(0, 0, 0)" stroke-opacity="1.0" stroke-linecap="round" stroke-linejoin="round"/>
    <path d="M 228.32093811035156 356.3017578125 C 254.8580322265625 341.19427490234375 244.21568298339844 347.4366149902344 235.4108428955078 343.26971435546875 C 249.8737335205078 327.536865234375 228.0188751220703 326.7069091796875 191.04930114746094 313.08148193359375 C 239.9692840576172 302.72979736328125 252.97816467285156 291.7181091308594 242.04702758789062 292.933837890625 C 240.1442108154297 324.940673828125 249.54238891601562 344.44818115234375 228.32093811035156 356.3017578125" stroke-width="0.0" fill="rgb(80, 67, 151)" opacity="0.0" stroke="rgb(0, 0, 0)" stroke-opacity="1.0" stroke-linecap="round" stroke-linejoin="round"/>
    <path d="M 141.6000518798828 536.6527099609375 C 127.95870208740234 500.0523986816406 115.8167495727539 525.4465942382812 156.72598266601562 529.8524169921875 C 137.05320739746094 490.6893005371094 125.6435775756836 491.43695068359375 121.40204620361328 481.42034912109375 C 119.95122528076172 498.493896484375 119.31322479248047 495.2060241699219 126.7229232788086 471.90789794921875 C 133.30303955078125 488.3218994140625 161.2392578125 531.0636596679688 141.6000518798828 536.6527099609375" stroke-width="0.0" fill="rgb(227, 75, 88)" opacity="0.014725992" stroke="rgb(0, 0, 0)" stroke-opacity="1.0" stroke-linecap="round" stroke-linejoin="round"/>
  </g>
</svg>
