<?xml version="1.0" ?>
<svg xmlns="http://www.w3.org/2000/svg" version="1.1" width="512" height="512">
  <defs/>
  <g>
    <path d="M 558.9558715820312 420.4774475097656 C 538.6600952148438 511.1578369140625 545.4749145507812 524.1809692382812 442.623046875 551.6495971679688 C 331.7811584472656 570.291748046875 262.9705810546875 572.7267456054688 150.916748046875 446.3040466308594 C 254.1448974609375 273.45623779296875 339.1988220214844 304.4455261230469 405.8419189453125 220.99380493164062 C 560.0300903320312 277.9359130859375 562.9209594726562 292.8500061035156 558.9558715820312 420.4774475097656" stroke-width="0.0" fill="rgb(213, 230, 217)" opacity="0.030786872" stroke="rgb(0, 0, 0)" stroke-opacity="1.0" stroke-linecap="round" stroke-linejoin="round"/>
    <path d="M 273.227294921875 232.07032775878906 C 197.27191162109375 531.3742065429688 259.3006896972656 563.6798706054688 119.5818099975586 567.0921630859375 C -51.20000076293945 515.2716064453125 -49.78134536743164 499.9927062988281 -50.303199768066406 292.25958251953125 C -32.333106994628906 197.1392822265625 9.334149360656738 176.99913024902344 148.65838623046875 91.2179946899414 C 310.0311279296875 248.7821044921875 228.13832092285156 213.052978515625 273.227294921875 232.07032775878906" stroke-width="0.0" fill="rgb(194, 185, 2)" opacity="0.810239" stroke="rgb(0, 0, 0)" stroke-opacity="1.0" stroke-linecap="round" stroke-linejoin="round"/>
    <path d="M 298.3147277832031 74.30433654785156 C 89.76605987548828 98.53138732910156 206.17379760742188 151.7626190185547 98.07335662841797 209.41188049316406 C -52.23119354248047 189.637939453125 -44.95893859863281 237.19857788085938 -22.82098388671875 88.89291381835938 C -26.119586944580078 -26.682445526123047 -17.70296859741211 -30.83133316040039 176.55699157714844 -44.731292724609375 C 300.43408203125 -51.7392463684082 386.4941101074219 -14.940611839294434 298.3147277832031 74.30433654785156" stroke-width="0.0" fill="rgb(220, 202, 155)" opacity="0.15001933" stroke="rgb(0, 0, 0)" stroke-opacity="1.0" stroke-linecap="round" stroke-linejoin="round"/>
    <path d="M 445.7435302734375 226.36741638183594 C 457.5762023925781 273.76654052734375 373.0082702636719 263.6683349609375 413.06671142578125 233.6946258544922 C 212.8801727294922 307.24969482421875 263.1550598144531 231.3570098876953 231.22747802734375 217.447998046875 C 372.8702697753906 135.60791015625 336.86663818359375 91.63470458984375 342.53753662109375 79.4178466796875 C 398.9574890136719 118.41242980957031 370.7610168457031 141.49334716796875 445.7435302734375 226.36741638183594" stroke-width="0.0" fill="rgb(195, 179, 0)" opacity="0.9612354" stroke="rgb(0, 0, 0)" stroke-opacity="1.0" stroke-linecap="round" stroke-linejoin="round"/>
    <path d="M 398.55865478515625 112.21807098388672 C 409.1856384277344 195.68016052246094 310.9688720703125 237.5177001953125 152.08233642578125 196.3364715576172 C 103.9647216796875 163.93540954589844 112.75788879394531 193.5605926513672 91.43885040283203 148.87478637695312 C 129.4872283935547 169.83409118652344 143.16189575195312 115.57703399658203 241.08200073242188 58.55862808227539 C 309.740966796875 56.756935119628906 367.4669494628906 41.95065689086914 398.55865478515625 112.21807098388672" stroke-width="0.0" fill="rgb(198, 200, 0)" opacity="0.9968354" stroke="rgb(0, 0, 0)" stroke-opacity="1.0" stroke-linecap="round" stroke-linejoin="round"/>
    <path d="M 429.3114929199219 206.1814422607422 C 360.8434143066406 306.75030517578125 333.80377197265625 325.7236022949219 230.44955444335938 303.4565734863281 C 279.8641662597656 433.8600769042969 142.18893432617188 484.4686279296875 192.43838500976562 415.13055419921875 C 351.36004638671875 129.24652099609375 238.19387817382812 330.22412109375 311.0406494140625 252.10653686523438 C 445.578125 215.9489288330078 430.53570556640625 255.15130615234375 429.3114929199219 206.1814422607422" stroke-width="0.0" fill="rgb(167, 157, 0)" opacity="1.0" stroke="rgb(0, 0, 0)" stroke-opacity="1.0" stroke-linecap="round" stroke-linejoin="round"/>
    <path d="M 530.9356689453125 172.93374633789062 C 546.0416870117188 318.6876525878906 563.1805419921875 343.6037902832031 567.1383666992188 230.13148498535156 C 385.6488952636719 203.82070922851562 384.91455078125 286.28936767578125 346.76177978515625 41.01215744018555 C 322.28448486328125 212.48876953125 261.0406188964844 -6.648321628570557 286.334716796875 -64.38447570800781 C 557.2067260742188 1.106435775756836 550.540283203125 45.04023361206055 530.9356689453125 172.93374633789062" stroke-width="0.0" fill="rgb(181, 162, 61)" opacity="0.13905843" stroke="rgb(0, 0, 0)" stroke-opacity="1.0" stroke-linecap="round" stroke-linejoin="round"/>
    <path d="M 319.72772216796875 269.9250183105469 C 322.28521728515625 272.35723876953125 352.92913818359375 247.3282470703125 325.7696228027344 201.1470184326172 C 283.17315673828125 330.22137451171875 152.6429901123047 235.8396759033203 246.1836395263672 328.8047790527344 C 314.24371337890625 217.88905334472656 370.1892395019531 328.328857421875 420.1563415527344 229.47219848632812 C 329.8142395019531 250.1134033203125 347.8240966796875 290.7534484863281 319.72772216796875 269.9250183105469" stroke-width="0.0" fill="rgb(161, 174, 7)" opacity="0.15297987" stroke="rgb(0, 0, 0)" stroke-opacity="1.0" stroke-linecap="round" stroke-linejoin="round"/>
    <path d="M 103.79222106933594 104.29647827148438 C 94.60040283203125 108.80427551269531 104.05302429199219 121.95448303222656 70.32261657714844 130.9238739013672 C 29.06271743774414 178.1365966796875 -22.325523376464844 220.3670654296875 -55.893836975097656 152.91326904296875 C -20.984371185302734 -2.3304123878479004 -17.199241638183594 -11.274316787719727 100.03913116455078 -82.33557891845703 C 148.31399536132812 -19.324256896972656 121.75174713134766 54.17341995239258 103.79222106933594 104.29647827148438" stroke-width="0.0" fill="rgb(243, 200, 254)" opacity="0.108104244" stroke="rgb(0, 0, 0)" stroke-opacity="1.0" stroke-linecap="round" stroke-linejoin="round"/>
    <path d="M 222.2657470703125 363.45062255859375 C 303.2467041015625 454.9247131347656 270.41058349609375 527.7406005859375 238.5966339111328 506.51904296875 C 110.89427185058594 447.9081115722656 2.3443195819854736 409.8738098144531 28.390283584594727 172.17349243164062 C 99.85314178466797 173.0304718017578 54.00395202636719 376.41400146484375 231.28262329101562 355.3872375488281 C 304.78363037109375 372.92669677734375 202.98834228515625 314.4649353027344 222.2657470703125 363.45062255859375" stroke-width="0.0" fill="rgb(215, 114, 92)" opacity="0.99410105" stroke="rgb(0, 0, 0)" stroke-opacity="1.0" stroke-linecap="round" stroke-linejoin="round"/>
    <path d="M 552.4494018554688 80.60063934326172 C 572.7796630859375 155.4322052001953 573.2428588867188 161.88043212890625 476.2330322265625 156.17823791503906 C 464.975830078125 76.65808868408203 474.2122497558594 56.96982955932617 379.3217468261719 1.3209785223007202 C 350.806396484375 -32.46089553833008 385.39361572265625 -25.385475158691406 458.2296142578125 -18.36109733581543 C 540.84521484375 -11.616264343261719 538.4585571289062 -0.5953571200370789 552.4494018554688 80.60063934326172" stroke-width="0.0" fill="rgb(235, 219, 119)" opacity="0.0" stroke="rgb(0, 0, 0)" stroke-opacity="1.0" stroke-linecap="round" stroke-linejoin="round"/>
    <path d="M 415.3744812011719 100.89586639404297 C 482.7666015625 171.73452758789062 472.6026611328125 192.90992736816406 377.690185546875 130.49168395996094 C 400.2120361328125 137.5850830078125 288.2665710449219 52.50516128540039 236.21206665039062 79.61033630371094 C 242.8177947998047 -4.338291168212891 341.7619934082031 37.13639450073242 356.37603759765625 46.53914260864258 C 361.8427734375 54.714866638183594 372.5287170410156 59.51015853881836 415.3744812011719 100.89586639404297" stroke-width="0.0" fill="rgb(58, 199, 91)" opacity="1.0" stroke="rgb(0, 0, 0)" stroke-opacity="1.0" stroke-linecap="round" stroke-linejoin="round"/>
    <path d="M 545.6321411132812 489.357666015625 C 536.3018188476562 527.2869873046875 524.6341552734375 540.9434204101562 441.7556457519531 509.9363098144531 C 390.9371032714844 459.00323486328125 403.0074157714844 410.2471923828125 396.70703125 434.4101867675781 C 438.41455078125 442.1178894042969 453.5903625488281 416.711669921875 449.46954345703125 436.5770263671875 C 443.11541748046875 434.68646240234375 469.71484375 415.94390869140625 545.6321411132812 489.357666015625" stroke-width="0.0" fill="rgb(241, 219, 198)" opacity="0.0" stroke="rgb(0, 0, 0)" stroke-opacity="1.0" stroke-linecap="round" stroke-linejoin="round"/>
    <path d="M 543.1029663085938 48.93436050415039 C 557.7918701171875 75.27191925048828 582.1096801757812 54.58261489868164 520.1298217773438 35.20009994506836 C 486.16729736328125 17.933887481689453 465.2819519042969 26.70858383178711 407.64947509765625 -9.85606861114502 C 418.2878723144531 -18.644319534301758 442.1639404296875 -16.06859016418457 475.6749267578125 -12.655669212341309 C 505.74993896484375 -14.301445960998535 522.4849853515625 -12.284936904907227 543.1029663085938 48.93436050415039" stroke-width="0.0" fill="rgb(250, 249, 178)" opacity="0.011112569" stroke="rgb(0, 0, 0)" stroke-opacity="1.0" stroke-linecap="round" stroke-linejoin="round"/>
    <path d="M 280.5834655761719 464.464111328125 C 303.8226013183594 472.1367492675781 295.69512939453125 466.4474182128906 242.06214904785156 469.7594299316406 C 204.24734497070312 466.1553649902344 199.67037963867188 485.0101623535156 212.73020935058594 452.9400329589844 C 253.7024383544922 330.7521667480469 204.93600463867188 278.0799865722656 283.32440185546875 287.8734436035156 C 237.50987243652344 322.85345458984375 257.60467529296875 419.8160095214844 280.5834655761719 464.464111328125" stroke-width="0.0" fill="rgb(41, 41, 0)" opacity="1.0" stroke="rgb(0, 0, 0)" stroke-opacity="1.0" stroke-linecap="round" stroke-linejoin="round"/>
    <path d="M 575.6644897460938 278.0787048339844 C 546.2578125 467.88836669921875 511.3040771484375 459.0168151855469 463.38916015625 435.6656799316406 C 469.37255859375 449.13665771484375 486.2259216308594 436.8369140625 371.4124755859375 400.41546630859375 C 396.4757385253906 356.95916748046875 389.0283508300781 335.8166809082031 494.4716491699219 196.60423278808594 C 533.2691040039062 154.1248779296875 558.7264404296875 181.02444458007812 575.6644897460938 278.0787048339844" stroke-width="0.0" fill="rgb(255, 255, 255)" opacity="0.675026" stroke="rgb(0, 0, 0)" stroke-opacity="1.0" stroke-linecap="round" stroke-linejoin="round"/>
    <path d="M 500.08074951171875 258.7064208984375 C 483.0340576171875 257.85302734375 525.0540161132812 402.701171875 358.2130432128906 447.3492736816406 C 371.073974609375 260.6063537597656 402.88482666015625 272.9571228027344 407.8621520996094 229.78810119628906 C 409.4226379394531 209.93605041503906 408.0582580566406 171.09857177734375 357.4539794921875 100.51541900634766 C 490.323486328125 97.2904281616211 479.47808837890625 211.7894744873047 500.08074951171875 258.7064208984375" stroke-width="0.0" fill="rgb(51, 219, 128)" opacity="1.0" stroke="rgb(0, 0, 0)" stroke-opacity="1.0" stroke-linecap="round" stroke-linejoin="round"/>
    <path d="M 317.8795471191406 66.18842315673828 C 251.61740112304688 60.30084228515625 171.47586059570312 76.90867614746094 122.47988891601562 147.91758728027344 C 57.596683502197266 113.54843139648438 95.11066436767578 64.75544738769531 133.68313598632812 47.93876266479492 C 158.7681884765625 15.5517578125 147.5583953857422 18.101165771484375 177.423583984375 41.26057434082031 C 210.4676513671875 28.098949432373047 282.35931396484375 -43.79715347290039 317.8795471191406 66.18842315673828" stroke-width="0.0" fill="rgb(44, 198, 80)" opacity="1.0" stroke="rgb(0, 0, 0)" stroke-opacity="1.0" stroke-linecap="round" stroke-linejoin="round"/>
    <path d="M 247.5038299560547 478.2437438964844 C 270.52191162109375 595.1752319335938 230.60781860351562 583.2620849609375 155.08543395996094 545.1959838867188 C 117.70536804199219 524.6449584960938 117.67398071289062 518.6937866210938 107.87477111816406 476.37615966796875 C 84.35965728759766 439.0882568359375 40.16217041015625 408.1377868652344 49.050025939941406 228.33767700195312 C 268.4399719238281 485.3875427246094 204.88438415527344 467.0238952636719 247.5038299560547 478.2437438964844" stroke-width="0.0" fill="rgb(232, 37, 49)" opacity="1.0" stroke="rgb(0, 0, 0)" stroke-opacity="1.0" stroke-linecap="round" stroke-linejoin="round"/>
    <path d="M 103.58914184570312 255.387939453125 C 82.05357360839844 257.7938537597656 125.58600616455078 231.27500915527344 106.4056625366211 265.74847412109375 C 128.58607482910156 340.4368591308594 37.10127258300781 344.43084716796875 8.722025871276855 299.843505859375 C 15.62186336517334 201.6307830810547 -0.710439145565033 147.251708984375 114.36637878417969 135.1791229248047 C 47.97943115234375 272.19134521484375 128.95005798339844 250.68978881835938 103.58914184570312 255.387939453125" stroke-width="0.0" fill="rgb(97, 222, 130)" opacity="0.9968979" stroke="rgb(0, 0, 0)" stroke-opacity="1.0" stroke-linecap="round" stroke-linejoin="round"/>
    <path d="M 87.67652130126953 513.0521850585938 C 33.093910217285156 533.848388671875 12.798440933227539 529.4495239257812 0.7255993485450745 530.4913330078125 C -9.364206314086914 527.7437133789062 -16.68471336364746 520.4232177734375 -32.12435531616211 487.3474426269531 C -43.1994743347168 481.45050048828125 -43.125709533691406 489.11248779296875 5.412232398986816 390.2410583496094 C 73.07168579101562 403.9993591308594 76.95935821533203 428.49053955078125 87.67652130126953 513.0521850585938" stroke-width="0.0" fill="rgb(254, 238, 250)" opacity="1.0" stroke="rgb(0, 0, 0)" stroke-opacity="1.0" stroke-linecap="round" stroke-linejoin="round"/>
    <path d="M 464.5760803222656 369.1494140625 C 426.1217956542969 504.97076416015625 341.6964111328125 451.1678161621094 298.52679443359375 449.9040222167969 C 300.33880615234375 437.16302490234375 311.59063720703125 424.6620788574219 300.33355712890625 396.7609558105469 C 330.5587158203125 415.3974609375 332.5079650878906 445.3305969238281 304.7336120605469 428.48040771484375 C 331.1217956542969 381.2752685546875 364.4591369628906 331.8476257324219 464.5760803222656 369.1494140625" stroke-width="0.0" fill="rgb(238, 255, 244)" opacity="0.8813167" stroke="rgb(0, 0, 0)" stroke-opacity="1.0" stroke-linecap="round" stroke-linejoin="round"/>
    <path d="M 195.0245361328125 481.33856201171875 C 170.26710510253906 566.0338134765625 135.25604248046875 544.9676513671875 116.96951293945312 525.2297973632812 C 97.21595001220703 530.727294921875 90.19092559814453 526.1605834960938 79.10447692871094 499.29718017578125 C 47.87201690673828 468.8404235839844 33.445926666259766 451.4791564941406 81.47888946533203 443.0644226074219 C 149.3242950439453 410.3216552734375 183.3153533935547 418.53826904296875 195.0245361328125 481.33856201171875" stroke-width="0.0" fill="rgb(206, 244, 66)" opacity="0.9326703" stroke="rgb(0, 0, 0)" stroke-opacity="1.0" stroke-linecap="round" stroke-linejoin="round"/>
    <path d="M 84.72492218017578 397.90765380859375 C 19.372230529785156 381.8435974121094 30.23688316345215 391.5896911621094 21.43644142150879 395.1305236816406 C -65.5359878540039 409.4206848144531 -55.65532302856445 391.22747802734375 -34.71333694458008 362.5745849609375 C -54.47212219238281 282.0531311035156 -51.003414154052734 184.05458068847656 58.21977615356445 124.87671661376953 C 94.42965698242188 294.4770202636719 61.10478210449219 386.931640625 84.72492218017578 397.90765380859375" stroke-width="0.0" fill="rgb(208, 228, 201)" opacity="0.8920009" stroke="rgb(0, 0, 0)" stroke-opacity="1.0" stroke-linecap="round" stroke-linejoin="round"/>
    <path d="M 530.2326049804688 481.70416259765625 C 490.430908203125 537.586669921875 456.6731872558594 517.133056640625 319.0711669921875 538.2018432617188 C 281.09661865234375 566.0284423828125 271.03656005859375 523.3395385742188 347.7918395996094 531.3143920898438 C 404.1874694824219 484.55743408203125 376.39178466796875 446.3961181640625 418.0961608886719 460.1082458496094 C 456.68267822265625 449.23126220703125 495.563232421875 418.910888671875 530.2326049804688 481.70416259765625" stroke-width="0.0" fill="rgb(206, 179, 218)" opacity="0.0" stroke="rgb(0, 0, 0)" stroke-opacity="1.0" stroke-linecap="round" stroke-linejoin="round"/>
    <path d="M 341.7718811035156 -0.0698319673538208 C 323.0287780761719 41.507720947265625 298.77545166015625 41.73785400390625 291.1836242675781 16.153562545776367 C 297.80657958984375 38.305023193359375 281.9406433105469 20.24254608154297 280.3955383300781 28.527738571166992 C 283.143310546875 -13.477804183959961 285.2723693847656 -40.8541374206543 297.3693542480469 -35.57902526855469 C 367.52728271484375 -20.967988967895508 375.9493103027344 -29.344058990478516 341.7718811035156 -0.0698319673538208" stroke-width="0.0" fill="rgb(88, 255, 130)" opacity="0.9395395" stroke="rgb(0, 0, 0)" stroke-opacity="1.0" stroke-linecap="round" stroke-linejoin="round"/>
    <path d="M 410.7341003417969 30.092676162719727 C 404.6158447265625 11.368910789489746 381.09051513671875 31.595930099487305 385.02886962890625 24.98902702331543 C 368.2008361816406 18.194976806640625 379.2793273925781 26.5789794921875 368.184326171875 -7.490987300872803 C 356.3716125488281 -35.733970642089844 362.5856628417969 -49.401336669921875 375.6150817871094 -18.729536056518555 C 397.5190124511719 -28.98515510559082 407.5955505371094 -21.967411041259766 410.7341003417969 30.092676162719727" stroke-width="0.0" fill="rgb(238, 203, 89)" opacity="0.1220835" stroke="rgb(0, 0, 0)" stroke-opacity="1.0" stroke-linecap="round" stroke-linejoin="round"/>
    <path d="M 370.787841796875 11.879969596862793 C 376.59661865234375 36.378334045410156 375.8918151855469 46.2092170715332 380.9210205078125 28.42724609375 C 350.917724609375 14.549410820007324 320.2518005371094 28.4143009185791 292.67657470703125 15.693456649780273 C 290.36077880859375 -37.6259880065918 302.69915771484375 -44.84123611450195 334.583740234375 -52.07347106933594 C 373.01416015625 -38.04200744628906 374.1783752441406 -20.443035125732422 370.787841796875 11.879969596862793" stroke-width="0.0" fill="rgb(231, 205, 105)" opacity="0.0" stroke="rgb(0, 0, 0)" stroke-opacity="1.0" stroke-linecap="round" stroke-linejoin="round"/>
    <path d="M 551.870849609375 187.11947631835938 C 525.08544921875 223.1205291748047 499.5911560058594 227.64772033691406 490.1553039550781 195.80140686035156 C 498.8296203613281 193.32406616210938 500.5180969238281 189.36651611328125 492.33050537109375 180.5679931640625 C 493.1607360839844 218.95668029785156 509.0904235839844 232.93948364257812 518.5169067382812 165.6646270751953 C 529.6422119140625 148.96176147460938 543.8848876953125 150.7314453125 551.870849609375 187.11947631835938" stroke-width="0.0" fill="rgb(254, 254, 122)" opacity="0.0012629579" stroke="rgb(0, 0, 0)" stroke-opacity="1.0" stroke-linecap="round" stroke-linejoin="round"/>
    <path d="M 245.67701721191406 294.3028869628906 C 269.59100341796875 294.0808410644531 258.7216491699219 309.4250793457031 267.18463134765625 315.3448486328125 C 269.4184875488281 321.94244384765625 249.13467407226562 299.2123718261719 230.83203125 290.6069641113281 C 254.19586181640625 262.8565979003906 255.58091735839844 253.2740478515625 257.67327880859375 275.5051574707031 C 264.44769287109375 303.3551940917969 251.6234130859375 302.26385498046875 245.67701721191406 294.3028869628906" stroke-width="0.0" fill="rgb(104, 73, 0)" opacity="0.88275605" stroke="rgb(0, 0, 0)" stroke-opacity="1.0" stroke-linecap="round" stroke-linejoin="round"/>
    <path d="M 41.18244934082031 172.5583038330078 C 52.906959533691406 176.2350616455078 36.07585525512695 173.47265625 47.19671630859375 153.1563262939453 C 49.47492218017578 178.56942749023438 31.35158920288086 155.35733032226562 23.749576568603516 134.4996795654297 C 51.398529052734375 137.72776794433594 54.34741973876953 115.62870025634766 41.350921630859375 110.01119232177734 C 46.234806060791016 115.76654052734375 51.99483108520508 121.23934173583984 41.18244934082031 172.5583038330078" stroke-width="0.0" fill="rgb(228, 197, 219)" opacity="0.0008309493" stroke="rgb(0, 0, 0)" stroke-opacity="1.0" stroke-linecap="round" stroke-linejoin="round"/>
    <path d="M 96.69798278808594 103.63227081298828 C 110.53846740722656 132.70497131347656 124.27005767822266 167.17100524902344 107.59774017333984 156.3882293701172 C 64.36604309082031 144.8677215576172 64.81575012207031 146.79820251464844 48.051719665527344 144.7532196044922 C 66.344482421875 134.51895141601562 70.42001342773438 136.79104614257812 67.37632751464844 124.64418029785156 C 87.65599060058594 125.81268310546875 94.11294555664062 120.01351928710938 96.69798278808594 103.63227081298828" stroke-width="0.0" fill="rgb(57, 194, 127)" opacity="0.30013117" stroke="rgb(0, 0, 0)" stroke-opacity="1.0" stroke-linecap="round" stroke-linejoin="round"/>
    <path d="M 390.8465881347656 104.41506958007812 C 393.1715087890625 137.70396423339844 352.926513671875 115.74732971191406 338.3763427734375 109.30078887939453 C 313.6562805175781 100.6015853881836 306.44415283203125 78.15071105957031 329.49896240234375 75.26103973388672 C 320.5673828125 83.83627319335938 309.6089172363281 74.8438491821289 324.6629943847656 72.38202667236328 C 349.16265869140625 67.0777587890625 383.9495544433594 65.02983093261719 390.8465881347656 104.41506958007812" stroke-width="0.0" fill="rgb(13, 205, 125)" opacity="0.6601478" stroke="rgb(0, 0, 0)" stroke-opacity="1.0" stroke-linecap="round" stroke-linejoin="round"/>
    <path d="M 283.89068603515625 207.1079559326172 C 246.68649291992188 215.45947265625 244.7688446044922 237.89427185058594 260.86773681640625 231.62583923339844 C 276.1511535644531 237.46212768554688 253.156982421875 243.40859985351562 278.75537109375 236.56861877441406 C 267.1922912597656 285.9897766113281 291.36932373046875 280.6634521484375 293.7553405761719 247.47442626953125 C 294.6345520019531 205.84243774414062 294.6181640625 202.31268310546875 283.89068603515625 207.1079559326172" stroke-width="0.0" fill="rgb(94, 103, 99)" opacity="0.16394845" stroke="rgb(0, 0, 0)" stroke-opacity="1.0" stroke-linecap="round" stroke-linejoin="round"/>
    <path d="M 371.5182189941406 257.7266540527344 C 360.43023681640625 253.47152709960938 376.30462646484375 256.14727783203125 354.0952453613281 274.81964111328125 C 292.735595703125 267.2005920410156 295.0216064453125 235.5027313232422 332.70562744140625 221.49658203125 C 376.2319641113281 240.9248046875 374.9903259277344 214.87344360351562 368.64208984375 189.0253448486328 C 365.0663146972656 181.00360107421875 384.8766784667969 206.0582275390625 371.5182189941406 257.7266540527344" stroke-width="0.0" fill="rgb(161, 153, 0)" opacity="0.035439886" stroke="rgb(0, 0, 0)" stroke-opacity="1.0" stroke-linecap="round" stroke-linejoin="round"/>
    <path d="M 177.7087860107422 285.7853698730469 C 187.195556640625 261.5972900390625 170.377685546875 276.6233215332031 187.28895568847656 271.0238037109375 C 176.65750122070312 245.6517791748047 137.73321533203125 227.75473022460938 170.2857208251953 223.28775024414062 C 149.68226623535156 232.6548614501953 164.84547424316406 244.80836486816406 159.07891845703125 245.82894897460938 C 142.25003051757812 260.3760681152344 144.74057006835938 297.22247314453125 177.7087860107422 285.7853698730469" stroke-width="0.0" fill="rgb(134, 230, 102)" opacity="0.0" stroke="rgb(0, 0, 0)" stroke-opacity="1.0" stroke-linecap="round" stroke-linejoin="round"/>
    <path d="M 207.36526489257812 209.7294921875 C 181.7489776611328 219.999267578125 163.01602172851562 221.4965057373047 167.41464233398438 272.84661865234375 C 174.79734802246094 260.537109375 161.226318359375 255.9973907470703 153.3309326171875 290.1186828613281 C 175.35279846191406 242.44970703125 202.53416442871094 245.86480712890625 161.9003143310547 232.5267333984375 C 207.36758422851562 223.92221069335938 214.01763916015625 222.80862426757812 207.36526489257812 209.7294921875" stroke-width="0.0" fill="rgb(70, 86, 0)" opacity="0.30186084" stroke="rgb(0, 0, 0)" stroke-opacity="1.0" stroke-linecap="round" stroke-linejoin="round"/>
    <path d="M 264.7242126464844 304.17645263671875 C 281.08831787109375 306.92401123046875 285.4830627441406 287.90582275390625 290.7785949707031 260.8023376464844 C 273.65582275390625 281.88421630859375 270.8572082519531 269.3298645019531 272.9021301269531 240.82769775390625 C 245.4933319091797 202.03749084472656 269.00921630859375 216.91506958007812 272.1580505371094 236.213134765625 C 249.1904296875 243.16400146484375 263.4906921386719 266.1202087402344 264.7242126464844 304.17645263671875" stroke-width="0.0" fill="rgb(135, 125, 15)" opacity="0.015992817" stroke="rgb(0, 0, 0)" stroke-opacity="1.0" stroke-linecap="round" stroke-linejoin="round"/>
    <path d="M 83.64231872558594 139.73150634765625 C 71.28315734863281 130.69151306152344 83.02462005615234 144.4752197265625 85.21568298339844 170.9046630859375 C 59.43934631347656 170.19664001464844 27.564804077148438 182.93544006347656 51.04548263549805 155.45201110839844 C 48.291175842285156 114.21746063232422 43.18466567993164 131.06692504882812 55.31535339355469 144.1876983642578 C 59.70169448852539 136.0437774658203 88.14974212646484 136.7842254638672 83.64231872558594 139.73150634765625" stroke-width="0.0" fill="rgb(147, 227, 143)" opacity="0.0" stroke="rgb(0, 0, 0)" stroke-opacity="1.0" stroke-linecap="round" stroke-linejoin="round"/>
    <path d="M 201.1675567626953 50.3992805480957 C 192.8777313232422 85.0897445678711 178.37266540527344 85.9879150390625 199.24403381347656 71.20965576171875 C 201.48617553710938 67.43463897705078 167.96119689941406 82.44457244873047 209.1988983154297 109.8355712890625 C 212.4575653076172 27.48674201965332 197.16159057617188 8.768038749694824 252.60073852539062 46.516929626464844 C 203.2936248779297 61.96259689331055 217.10191345214844 54.34327697753906 201.1675567626953 50.3992805480957" stroke-width="0.0" fill="rgb(58, 213, 43)" opacity="0.21834393" stroke="rgb(0, 0, 0)" stroke-opacity="1.0" stroke-linecap="round" stroke-linejoin="round"/>
    <path d="M 154.51829528808594 254.0844268798828 C 141.8749542236328 261.98614501953125 160.9850311279297 289.6268005371094 185.9608154296875 264.48681640625 C 140.583984375 248.6295928955078 126.73078155517578 247.91639709472656 132.8140869140625 222.2807159423828 C 118.15283203125 230.8637237548828 139.68914794921875 235.32472229003906 148.26583862304688 237.7854766845703 C 141.8262939453125 220.4616241455078 160.00843811035156 245.5907440185547 154.51829528808594 254.0844268798828" stroke-width="0.0" fill="rgb(125, 213, 74)" opacity="0.0" stroke="rgb(0, 0, 0)" stroke-opacity="1.0" stroke-linecap="round" stroke-linejoin="round"/>
    <path d="M 322.03216552734375 7.450918674468994 C 265.39208984375 14.434354782104492 248.09828186035156 2.6202850341796875 312.6561279296875 20.96310043334961 C 296.99249267578125 28.866600036621094 275.1402893066406 13.63296127319336 275.6732177734375 -13.132956504821777 C 279.5268249511719 -19.424495697021484 284.2856140136719 -23.63863754272461 311.8280334472656 -55.752105712890625 C 312.8385009765625 -44.42243194580078 303.7082214355469 -46.354122161865234 322.03216552734375 7.450918674468994" stroke-width="0.0" fill="rgb(124, 250, 110)" opacity="0.20066445" stroke="rgb(0, 0, 0)" stroke-opacity="1.0" stroke-linecap="round" stroke-linejoin="round"/>
    <path d="M 543.3656005859375 254.41859436035156 C 528.2161865234375 263.1429443359375 520.8659057617188 270.40240478515625 541.89794921875 271.431396484375 C 524.188720703125 276.17901611328125 505.2274169921875 270.2354431152344 478.5521545410156 246.80455017089844 C 509.0614929199219 253.6534881591797 528.2582397460938 258.5563049316406 518.0875244140625 265.2366943359375 C 514.9697265625 252.70884704589844 537.168212890625 254.63427734375 543.3656005859375 254.41859436035156" stroke-width="0.0" fill="rgb(196, 239, 137)" opacity="0.03283696" stroke="rgb(0, 0, 0)" stroke-opacity="1.0" stroke-linecap="round" stroke-linejoin="round"/>
    <path d="M 283.767333984375 347.0282897949219 C 229.49533081054688 363.58892822265625 248.1630401611328 403.1846618652344 252.88818359375 421.3660888671875 C 248.28643798828125 398.24603271484375 226.25848388671875 393.9744567871094 231.48684692382812 399.56683349609375 C 235.8160858154297 377.56146240234375 226.63746643066406 383.32342529296875 236.0599365234375 360.0282897949219 C 253.28955078125 346.48907470703125 304.4804992675781 333.4091796875 283.767333984375 347.0282897949219" stroke-width="0.0" fill="rgb(0, 78, 0)" opacity="0.03306172" stroke="rgb(0, 0, 0)" stroke-opacity="1.0" stroke-linecap="round" stroke-linejoin="round"/>
    <path d="M 58.37806701660156 100.23135375976562 C 66.8741683959961 95.78335571289062 64.6008529663086 81.95589447021484 70.43871307373047 78.55609893798828 C 12.014617919921875 107.74344635009766 -3.4981462955474854 141.52464294433594 -1.1007088422775269 119.505615234375 C 40.86185073852539 88.55050659179688 60.885414123535156 77.19902801513672 51.98379898071289 74.3177261352539 C 64.9704818725586 63.29316711425781 79.66576385498047 72.31684875488281 58.37806701660156 100.23135375976562" stroke-width="0.0" fill="rgb(254, 241, 250)" opacity="0.012921805" stroke="rgb(0, 0, 0)" stroke-opacity="1.0" stroke-linecap="round" stroke-linejoin="round"/>
    <path d="M 467.2118225097656 227.41900634765625 C 467.3591003417969 242.57821655273438 442.009033203125 245.2738494873047 457.4723815917969 247.7609405517578 C 458.2666015625 236.43589782714844 444.2080383300781 240.47303771972656 457.21014404296875 241.44773864746094 C 442.5499572753906 210.75184631347656 435.971923828125 215.6769561767578 427.1102600097656 235.49562072753906 C 450.2796325683594 219.85250854492188 467.74664306640625 216.10752868652344 467.2118225097656 227.41900634765625" stroke-width="0.0" fill="rgb(146, 230, 120)" opacity="0.0" stroke="rgb(0, 0, 0)" stroke-opacity="1.0" stroke-linecap="round" stroke-linejoin="round"/>
    <path d="M 381.2021179199219 211.0504150390625 C 390.52984619140625 202.2896270751953 380.5810852050781 229.47071838378906 378.1417236328125 201.34555053710938 C 340.8871154785156 227.4722900390625 352.8187561035156 234.69589233398438 292.30950927734375 242.02098083496094 C 284.91595458984375 167.27931213378906 321.4220886230469 157.81422424316406 336.4465637207031 146.45462036132812 C 349.5506286621094 195.75453186035156 371.357421875 203.60557556152344 381.2021179199219 211.0504150390625" stroke-width="0.0" fill="rgb(128, 161, 51)" opacity="0.067105174" stroke="rgb(0, 0, 0)" stroke-opacity="1.0" stroke-linecap="round" stroke-linejoin="round"/>
    <path d="M 71.25346374511719 472.7631530761719 C 77.44107055664062 457.31829833984375 72.10469818115234 454.9897766113281 33.86199188232422 459.02398681640625 C 35.32085418701172 498.3762512207031 47.74611282348633 481.46588134765625 76.42855834960938 415.4536437988281 C 100.87161254882812 409.880126953125 119.2058334350586 439.8052978515625 53.760658264160156 436.7884216308594 C 53.85129928588867 444.09185791015625 61.59803009033203 453.9787902832031 71.25346374511719 472.7631530761719" stroke-width="0.0" fill="rgb(217, 235, 194)" opacity="0.0" stroke="rgb(0, 0, 0)" stroke-opacity="1.0" stroke-linecap="round" stroke-linejoin="round"/>
    <path d="M 495.9104919433594 4.725744247436523 C 485.6731872558594 25.845840454101562 441.3959045410156 26.353797912597656 438.6281433105469 13.634263038635254 C 458.73406982421875 29.64078140258789 472.96929931640625 30.90395164489746 484.82244873046875 22.297029495239258 C 476.0418701171875 6.989974498748779 455.1351318359375 54.86154556274414 476.1679382324219 66.79241180419922 C 433.2401428222656 31.623836517333984 437.0494384765625 51.057395935058594 495.9104919433594 4.725744247436523" stroke-width="0.0" fill="rgb(245, 194, 241)" opacity="0.0" stroke="rgb(0, 0, 0)" stroke-opacity="1.0" stroke-linecap="round" stroke-linejoin="round"/>
    <path d="M 319.2966613769531 163.6411590576172 C 335.5863952636719 199.361572265625 328.8801574707031 216.85842895507812 271.5422668457031 210.23043823242188 C 266.0132141113281 170.70541381835938 247.9660186767578 158.4863739013672 297.6363525390625 170.16465759277344 C 296.568603515625 156.8809356689453 290.4627990722656 156.66580200195312 305.09173583984375 152.04470825195312 C 300.1268310546875 168.2566680908203 320.7412414550781 149.9545135498047 319.2966613769531 163.6411590576172" stroke-width="0.0" fill="rgb(157, 197, 65)" opacity="0.015567176" stroke="rgb(0, 0, 0)" stroke-opacity="1.0" stroke-linecap="round" stroke-linejoin="round"/>
    <path d="M 475.61651611328125 491.8475036621094 C 461.9396057128906 489.74676513671875 447.7126770019531 501.55615234375 433.5205383300781 503.45904541015625 C 449.4714660644531 497.4651794433594 438.5968933105469 482.198974609375 441.75848388671875 491.781982421875 C 451.5628967285156 492.0152893066406 477.2827453613281 459.24462890625 467.18792724609375 467.8511047363281 C 448.9004821777344 509.880615234375 470.056396484375 507.1230773925781 475.61651611328125 491.8475036621094" stroke-width="0.0" fill="rgb(242, 251, 175)" opacity="0.028031003" stroke="rgb(0, 0, 0)" stroke-opacity="1.0" stroke-linecap="round" stroke-linejoin="round"/>
    <path d="M 118.02781677246094 50.043643951416016 C 129.9381866455078 64.04362487792969 149.1185760498047 55.31475830078125 151.62950134277344 25.47661781311035 C 106.06797790527344 43.327842712402344 102.22206115722656 68.28114318847656 147.60430908203125 88.95677185058594 C 133.4387664794922 37.75432586669922 145.35887145996094 15.26619815826416 125.02500915527344 30.482404708862305 C 134.92893981933594 40.18698501586914 148.6825408935547 27.152446746826172 118.02781677246094 50.043643951416016" stroke-width="0.0" fill="rgb(229, 228, 240)" opacity="0.0" stroke="rgb(0, 0, 0)" stroke-opacity="1.0" stroke-linecap="round" stroke-linejoin="round"/>
    <path d="M 234.5675811767578 354.0897216796875 C 198.2099151611328 393.4982604980469 189.8535614013672 370.00390625 165.61341857910156 345.4081726074219 C 160.59494018554688 378.8890380859375 169.15504455566406 387.63983154296875 184.58946228027344 353.4789123535156 C 199.88365173339844 328.45697021484375 225.5644989013672 332.5525817871094 214.3529510498047 353.3691711425781 C 209.92401123046875 339.3284606933594 246.51458740234375 320.04656982421875 234.5675811767578 354.0897216796875" stroke-width="0.0" fill="rgb(111, 175, 91)" opacity="0.053815834" stroke="rgb(0, 0, 0)" stroke-opacity="1.0" stroke-linecap="round" stroke-linejoin="round"/>
    <path d="M 422.854736328125 425.0277404785156 C 399.2834777832031 431.2942199707031 388.56036376953125 448.72821044921875 356.5755310058594 468.5578918457031 C 381.5806579589844 477.03155517578125 381.7992248535156 462.2404479980469 377.4406433105469 438.6294250488281 C 367.5379638671875 402.80999755859375 365.4770202636719 407.5909423828125 376.0526428222656 388.88604736328125 C 425.3695983886719 396.5098876953125 451.01287841796875 407.3436584472656 422.854736328125 425.0277404785156" stroke-width="0.0" fill="rgb(240, 239, 217)" opacity="0.03977561" stroke="rgb(0, 0, 0)" stroke-opacity="1.0" stroke-linecap="round" stroke-linejoin="round"/>
    <path d="M 146.45034790039062 251.50494384765625 C 146.7046356201172 281.02984619140625 146.85711669921875 296.9090881347656 144.3721923828125 270.3495788574219 C 130.2946014404297 280.9472351074219 122.30756378173828 274.2655334472656 113.35813903808594 243.77076721191406 C 96.04019165039062 260.36492919921875 138.06361389160156 254.54225158691406 131.29306030273438 249.38194274902344 C 135.2477569580078 267.0299072265625 154.35597229003906 291.9953918457031 146.45034790039062 251.50494384765625" stroke-width="0.0" fill="rgb(50, 155, 35)" opacity="0.14104894" stroke="rgb(0, 0, 0)" stroke-opacity="1.0" stroke-linecap="round" stroke-linejoin="round"/>
    <path d="M 207.8040008544922 478.8480224609375 C 185.02719116210938 497.4079284667969 175.20570373535156 524.4851684570312 132.64239501953125 526.0669555664062 C 98.25670623779297 467.3821716308594 135.95318603515625 498.1005554199219 105.81661987304688 507.8961486816406 C 57.26823425292969 470.67034912109375 63.05763244628906 434.6690979003906 99.86717987060547 476.583740234375 C 164.09521484375 474.7656555175781 187.20037841796875 459.35205078125 207.8040008544922 478.8480224609375" stroke-width="0.0" fill="rgb(216, 242, 9)" opacity="0.04792587" stroke="rgb(0, 0, 0)" stroke-opacity="1.0" stroke-linecap="round" stroke-linejoin="round"/>
    <path d="M 225.2427520751953 44.26728057861328 C 237.67112731933594 52.100215911865234 233.51744079589844 43.7022819519043 232.9388427734375 34.68986129760742 C 253.9160614013672 37.57459259033203 245.79885864257812 39.04837417602539 236.9593963623047 39.735233306884766 C 239.1110076904297 44.070343017578125 237.2421875 40.65568923950195 217.5850830078125 30.99814224243164 C 217.6593780517578 5.003014087677002 207.94435119628906 28.16471290588379 225.2427520751953 44.26728057861328" stroke-width="0.0" fill="rgb(163, 188, 105)" opacity="0.018313024" stroke="rgb(0, 0, 0)" stroke-opacity="1.0" stroke-linecap="round" stroke-linejoin="round"/>
    <path d="M 109.81315612792969 337.32757568359375 C 171.4750213623047 350.7076110839844 136.50823974609375 320.6784362792969 117.58253479003906 334.68603515625 C 109.54051208496094 320.4446105957031 120.1836166381836 322.98992919921875 129.12767028808594 363.1383972167969 C 86.39501953125 354.21728515625 95.0051040649414 313.55291748046875 129.4460906982422 336.69769287109375 C 106.40141296386719 369.27508544921875 79.91854095458984 357.4592590332031 109.81315612792969 337.32757568359375" stroke-width="0.0" fill="rgb(109, 155, 3)" opacity="0.26545674" stroke="rgb(0, 0, 0)" stroke-opacity="1.0" stroke-linecap="round" stroke-linejoin="round"/>
    <path d="M 479.8533630371094 211.2598876953125 C 467.947509765625 231.40765380859375 464.55096435546875 240.0244903564453 485.7618103027344 218.5066375732422 C 494.4266662597656 213.3098907470703 474.86236572265625 221.72315979003906 482.06488037109375 231.36842346191406 C 476.38067626953125 218.13375854492188 490.6561279296875 229.9138641357422 501.6664733886719 207.663818359375 C 489.1681213378906 215.57066345214844 483.7062683105469 222.2470703125 479.8533630371094 211.2598876953125" stroke-width="0.0" fill="rgb(213, 215, 95)" opacity="2.6795547e-05" stroke="rgb(0, 0, 0)" stroke-opacity="1.0" stroke-linecap="round" stroke-linejoin="round"/>
    <path d="M 426.58734130859375 251.476318359375 C 441.78802490234375 270.049072265625 435.5450439453125 277.0965576171875 427.2687683105469 295.3604431152344 C 420.1521301269531 286.509521484375 427.8950500488281 285.64404296875 433.18975830078125 293.8338928222656 C 426.5389709472656 264.71661376953125 432.5999450683594 241.2653045654297 431.80157470703125 231.15945434570312 C 426.5320739746094 229.45645141601562 431.1526794433594 238.2491455078125 426.58734130859375 251.476318359375" stroke-width="0.0" fill="rgb(123, 207, 88)" opacity="0.012490526" stroke="rgb(0, 0, 0)" stroke-opacity="1.0" stroke-linecap="round" stroke-linejoin="round"/>
    <path d="M 488.99407958984375 69.96417999267578 C 527.4324951171875 68.31417846679688 500.5524597167969 74.90880584716797 470.4955139160156 85.33666229248047 C 471.2895202636719 105.1172866821289 466.6536865234375 60.088531494140625 473.9604187011719 73.98818969726562 C 495.5953369140625 75.53994750976562 487.09735107421875 82.5716552734375 488.32232666015625 87.95207977294922 C 493.1506042480469 51.17308807373047 478.43243408203125 71.46624755859375 488.99407958984375 69.96417999267578" stroke-width="0.0" fill="rgb(252, 231, 164)" opacity="0.0" stroke="rgb(0, 0, 0)" stroke-opacity="1.0" stroke-linecap="round" stroke-linejoin="round"/>
    <path d="M 54.65370178222656 203.03175354003906 C 54.104209899902344 199.66261291503906 56.11507797241211 193.51239013671875 38.880645751953125 203.99037170410156 C 23.953630447387695 199.6229248046875 19.970720291137695 183.64755249023438 26.02088165283203 179.1133270263672 C 28.27115821838379 181.91822814941406 24.650785446166992 176.86676025390625 35.21907043457031 170.64791870117188 C 41.078956604003906 176.49761962890625 46.51854705810547 181.51141357421875 54.65370178222656 203.03175354003906" stroke-width="0.0" fill="rgb(184, 212, 124)" opacity="0.03198454" stroke="rgb(0, 0, 0)" stroke-opacity="1.0" stroke-linecap="round" stroke-linejoin="round"/>
    <path d="M 174.76809692382812 334.9710693359375 C 173.67898559570312 348.8184814453125 145.09378051757812 376.62139892578125 102.16338348388672 348.74053955078125 C 87.14881134033203 359.64556884765625 85.0688247680664 386.30059814453125 -5.821595191955566 375.05584716796875 C 16.721467971801758 299.512451171875 38.85805892944336 285.8593444824219 88.2913818359375 274.2247009277344 C 133.7760467529297 275.8873291015625 140.7271728515625 290.3944091796875 174.76809692382812 334.9710693359375" stroke-width="0.0" fill="rgb(38, 226, 71)" opacity="0.76808125" stroke="rgb(0, 0, 0)" stroke-opacity="1.0" stroke-linecap="round" stroke-linejoin="round"/>
    <path d="M 43.638851165771484 74.71231842041016 C 45.75827407836914 92.1358871459961 36.70331954956055 108.6605453491211 23.24403953552246 113.35173797607422 C 23.702449798583984 91.7637710571289 19.52653694152832 85.22154998779297 7.502184867858887 91.1332015991211 C 14.973578453063965 75.71865844726562 24.408384323120117 75.28404235839844 13.438305854797363 64.35628509521484 C 50.67356491088867 53.30077362060547 56.77975082397461 53.92876434326172 43.638851165771484 74.71231842041016" stroke-width="0.0" fill="rgb(240, 255, 206)" opacity="0.0074287076" stroke="rgb(0, 0, 0)" stroke-opacity="1.0" stroke-linecap="round" stroke-linejoin="round"/>
  </g>
</svg>
