<?xml version="1.0" ?>
<svg xmlns="http://www.w3.org/2000/svg" version="1.1" width="512" height="512">
  <defs/>
  <g>
    <path d="M 475.0494689941406 431.0789489746094 C 400.3702392578125 405.91851806640625 368.9101867675781 539.1900634765625 492.0979309082031 572.75732421875 C 579.4970703125 402.209716796875 499.9245300292969 430.021240234375 461.1511535644531 442.83587646484375 C 485.9338073730469 475.7481994628906 485.09197998046875 462.6614990234375 475.62017822265625 443.74017333984375 C 520.3418579101562 434.7408142089844 597.4784545898438 434.3038635253906 475.0494689941406 431.0789489746094" stroke-width="0.0" fill="rgb(0, 0, 0)" opacity="1.0" stroke="rgb(0, 0, 0)" stroke-opacity="1.0" stroke-linecap="round" stroke-linejoin="round"/>
    <path d="M 314.14617919921875 497.57958984375 C 288.2397155761719 524.481201171875 214.69386291503906 538.8604125976562 123.59518432617188 439.73028564453125 C 18.824207305908203 410.57147216796875 162.3249053955078 362.2003479003906 -19.118011474609375 316.4646911621094 C 26.504640579223633 203.54995727539062 -57.97572708129883 288.12945556640625 -41.20524597167969 185.0927276611328 C 101.02567291259766 93.49713897705078 222.304931640625 231.24534606933594 314.14617919921875 497.57958984375" stroke-width="0.0" fill="rgb(80, 68, 212)" opacity="0.48713365" stroke="rgb(0, 0, 0)" stroke-opacity="1.0" stroke-linecap="round" stroke-linejoin="round"/>
    <path d="M 401.7681884765625 109.47288513183594 C 443.9980773925781 357.0157470703125 426.15533447265625 359.6495666503906 269.0621337890625 338.1786193847656 C 123.95608520507812 318.48321533203125 78.56263732910156 290.9826354980469 224.62362670898438 82.64188385009766 C 125.11843872070312 70.11347961425781 171.4623260498047 17.65578269958496 364.1703796386719 24.58555030822754 C 396.01214599609375 119.23733520507812 418.8102722167969 46.765419006347656 401.7681884765625 109.47288513183594" stroke-width="0.0" fill="rgb(163, 96, 192)" opacity="0.6625174" stroke="rgb(0, 0, 0)" stroke-opacity="1.0" stroke-linecap="round" stroke-linejoin="round"/>
    <path d="M 349.57733154296875 131.99026489257812 C 328.1600646972656 332.6561584472656 248.168212890625 386.2042541503906 180.01890563964844 309.1219482421875 C 72.23429107666016 233.2509765625 10.199320793151855 278.4119873046875 28.495258331298828 91.15664672851562 C 10.401419639587402 36.40291213989258 126.09960174560547 59.35892105102539 122.13054656982422 27.34126091003418 C 237.3852081298828 -24.66802978515625 281.1143798828125 -7.9631876945495605 349.57733154296875 131.99026489257812" stroke-width="0.0" fill="rgb(235, 198, 199)" opacity="0.9549725" stroke="rgb(0, 0, 0)" stroke-opacity="1.0" stroke-linecap="round" stroke-linejoin="round"/>
    <path d="M 436.7249450683594 377.4839172363281 C 358.5794372558594 513.1236572265625 349.5521545410156 352.25726318359375 380.2349548339844 434.1883239746094 C 201.12074279785156 455.9615783691406 341.8701171875 470.53424072265625 327.8884582519531 411.97796630859375 C 235.0972900390625 240.164306640625 243.22750854492188 281.73297119140625 316.430419921875 225.2242431640625 C 449.3665771484375 122.27046966552734 580.46728515625 182.60922241210938 436.7249450683594 377.4839172363281" stroke-width="0.0" fill="rgb(203, 150, 255)" opacity="0.7447065" stroke="rgb(0, 0, 0)" stroke-opacity="1.0" stroke-linecap="round" stroke-linejoin="round"/>
    <path d="M 526.6710205078125 201.468017578125 C 559.2681274414062 308.1160888671875 499.2462158203125 239.8834991455078 528.3973388671875 309.540771484375 C 400.20751953125 382.4025573730469 246.5783233642578 288.374267578125 458.6040954589844 208.71424865722656 C 314.39349365234375 192.8990478515625 354.2782287597656 121.40046691894531 424.0300598144531 94.67665100097656 C 484.375244140625 156.13482666015625 513.875732421875 129.37045288085938 526.6710205078125 201.468017578125" stroke-width="0.0" fill="rgb(123, 58, 211)" opacity="0.58189267" stroke="rgb(0, 0, 0)" stroke-opacity="1.0" stroke-linecap="round" stroke-linejoin="round"/>
    <path d="M 445.77545166015625 239.02992248535156 C 335.29193115234375 288.49810791015625 335.56903076171875 292.5456848144531 305.8528747558594 319.01611328125 C 242.54437255859375 333.810546875 266.69818115234375 370.3702392578125 54.7026252746582 215.7462921142578 C 296.41546630859375 209.72726440429688 151.6480255126953 311.7347106933594 296.82354736328125 276.53607177734375 C 369.4764099121094 225.34869384765625 432.9862060546875 166.64883422851562 445.77545166015625 239.02992248535156" stroke-width="0.0" fill="rgb(0, 240, 4)" opacity="1.0" stroke="rgb(0, 0, 0)" stroke-opacity="1.0" stroke-linecap="round" stroke-linejoin="round"/>
    <path d="M 389.6939697265625 192.9154052734375 C 384.4136657714844 228.81263732910156 378.6218566894531 221.90707397460938 346.5848388671875 220.89923095703125 C 300.614501953125 238.241455078125 328.3257141113281 226.9803466796875 266.90997314453125 218.2991943359375 C 319.09124755859375 102.031494140625 218.2222137451172 189.29690551757812 353.09423828125 122.72159576416016 C 398.7738952636719 183.39639282226562 521.8304443359375 219.44931030273438 389.6939697265625 192.9154052734375" stroke-width="0.0" fill="rgb(79, 96, 60)" opacity="0.48864153" stroke="rgb(0, 0, 0)" stroke-opacity="1.0" stroke-linecap="round" stroke-linejoin="round"/>
    <path d="M 292.2826232910156 274.10009765625 C 239.95492553710938 309.8946228027344 244.17172241210938 304.1220397949219 239.34451293945312 298.9323425292969 C 215.89242553710938 281.02130126953125 195.1058349609375 273.5087890625 98.80815887451172 198.5286407470703 C 192.09188842773438 127.97577667236328 121.60637664794922 208.95709228515625 176.49415588378906 227.5732879638672 C 210.65396118164062 254.3372039794922 247.74220275878906 281.0841064453125 292.2826232910156 274.10009765625" stroke-width="0.0" fill="rgb(255, 221, 203)" opacity="1.0" stroke="rgb(0, 0, 0)" stroke-opacity="1.0" stroke-linecap="round" stroke-linejoin="round"/>
    <path d="M 471.5103454589844 236.4151153564453 C 285.6374816894531 327.2518615722656 547.0477294921875 244.32203674316406 418.9189453125 356.58514404296875 C 194.2341766357422 357.1587219238281 229.3601531982422 362.72296142578125 235.05006408691406 358.7445068359375 C 376.7172546386719 252.1795654296875 394.6222229003906 255.4860382080078 399.8182373046875 268.76385498046875 C 407.1559143066406 260.3081359863281 461.55206298828125 224.22792053222656 471.5103454589844 236.4151153564453" stroke-width="0.0" fill="rgb(84, 87, 118)" opacity="0.03974905" stroke="rgb(0, 0, 0)" stroke-opacity="1.0" stroke-linecap="round" stroke-linejoin="round"/>
    <path d="M 224.79946899414062 133.90280151367188 C 243.3999786376953 61.9130744934082 216.47486877441406 140.40797424316406 170.90113830566406 101.19928741455078 C 86.96678161621094 145.78016662597656 -58.099098205566406 307.95513916015625 69.92903137207031 64.30026245117188 C 298.5782775878906 90.285888671875 243.5983123779297 204.111572265625 142.1922149658203 30.23959732055664 C 343.0048828125 -29.711286544799805 257.2704772949219 94.82486724853516 224.79946899414062 133.90280151367188" stroke-width="0.0" fill="rgb(62, 40, 118)" opacity="0.5889544" stroke="rgb(0, 0, 0)" stroke-opacity="1.0" stroke-linecap="round" stroke-linejoin="round"/>
    <path d="M 197.23863220214844 363.99896240234375 C 160.25991821289062 413.2274169921875 164.19151306152344 402.044677734375 155.8743133544922 461.45074462890625 C 101.6716079711914 422.4105529785156 121.15978240966797 437.5832214355469 169.72573852539062 385.831298828125 C 150.2880096435547 329.9127197265625 112.40605163574219 334.42242431640625 135.9712371826172 319.4818115234375 C 115.37316131591797 370.9335632324219 164.31582641601562 349.43524169921875 197.23863220214844 363.99896240234375" stroke-width="0.0" fill="rgb(136, 124, 59)" opacity="0.0032413655" stroke="rgb(0, 0, 0)" stroke-opacity="1.0" stroke-linecap="round" stroke-linejoin="round"/>
    <path d="M 384.275634765625 72.0772476196289 C 385.6325988769531 108.01612091064453 404.45611572265625 101.98736572265625 381.1029357910156 83.80028533935547 C 370.5452575683594 70.39555358886719 344.0171813964844 64.7643051147461 366.3077697753906 83.1550521850586 C 369.465576171875 60.070411682128906 375.0820007324219 35.352298736572266 347.96630859375 52.019718170166016 C 353.562744140625 96.42850494384766 385.3440856933594 78.61417388916016 384.275634765625 72.0772476196289" stroke-width="0.0" fill="rgb(88, 3, 231)" opacity="0.5930208" stroke="rgb(0, 0, 0)" stroke-opacity="1.0" stroke-linecap="round" stroke-linejoin="round"/>
    <path d="M 536.1547241210938 60.266292572021484 C 519.4746704101562 98.57579803466797 493.7817077636719 79.1153335571289 443.30828857421875 86.96249389648438 C 415.2098083496094 81.210205078125 404.2310791015625 71.0786361694336 416.6766662597656 38.45240020751953 C 411.5973815917969 11.121211051940918 419.7875061035156 -33.91072082519531 434.1444396972656 -54.8587532043457 C 512.5525512695312 -27.491622924804688 529.9306640625 -28.36200523376465 536.1547241210938 60.266292572021484" stroke-width="0.0" fill="rgb(0, 0, 5)" opacity="1.0" stroke="rgb(0, 0, 0)" stroke-opacity="1.0" stroke-linecap="round" stroke-linejoin="round"/>
    <path d="M 319.6451416015625 471.7016296386719 C 288.6042175292969 537.3305053710938 363.5638732910156 508.3083801269531 331.78057861328125 531.9155883789062 C 155.78475952148438 560.6771850585938 139.1296844482422 461.9014892578125 162.2168731689453 459.81085205078125 C 218.15650939941406 404.7210388183594 225.7208251953125 358.6722106933594 308.05340576171875 318.97174072265625 C 467.5174865722656 315.7581787109375 424.7542419433594 277.3583984375 319.6451416015625 471.7016296386719" stroke-width="0.0" fill="rgb(192, 159, 240)" opacity="0.5360916" stroke="rgb(0, 0, 0)" stroke-opacity="1.0" stroke-linecap="round" stroke-linejoin="round"/>
    <path d="M 219.41148376464844 286.4698181152344 C 284.99554443359375 343.8117370605469 300.5921936035156 313.34271240234375 247.8988494873047 342.2552795410156 C 147.30567932128906 272.94915771484375 48.12665557861328 220.71990966796875 64.34426879882812 220.1025848388672 C 84.13487243652344 209.78163146972656 150.25259399414062 303.4823303222656 239.84588623046875 321.7247009277344 C 217.94837951660156 293.97564697265625 160.690185546875 263.4957580566406 219.41148376464844 286.4698181152344" stroke-width="0.0" fill="rgb(197, 252, 73)" opacity="0.006802163" stroke="rgb(0, 0, 0)" stroke-opacity="1.0" stroke-linecap="round" stroke-linejoin="round"/>
    <path d="M 388.9461669921875 422.75445556640625 C 383.9609069824219 462.12847900390625 314.99420166015625 449.1551513671875 324.6920166015625 489.5555725097656 C 395.4565734863281 462.7826232910156 379.1077575683594 454.1274108886719 329.04949951171875 539.9871826171875 C 251.45143127441406 399.74273681640625 259.97772216796875 323.7466125488281 359.4461669921875 327.43280029296875 C 379.466796875 428.4793701171875 390.44927978515625 400.3180847167969 388.9461669921875 422.75445556640625" stroke-width="0.0" fill="rgb(104, 100, 109)" opacity="0.051073886" stroke="rgb(0, 0, 0)" stroke-opacity="1.0" stroke-linecap="round" stroke-linejoin="round"/>
    <path d="M 301.0850830078125 138.45863342285156 C 386.2483215332031 86.02734375 341.5440979003906 103.87753295898438 295.8670959472656 154.85186767578125 C 234.95223999023438 144.6089630126953 284.3945617675781 187.01858520507812 263.3131103515625 131.70726013183594 C 255.69985961914062 76.60810089111328 281.27447509765625 49.98133850097656 275.8148193359375 97.11058807373047 C 348.1616516113281 157.97470092773438 408.4996032714844 97.46871185302734 301.0850830078125 138.45863342285156" stroke-width="0.0" fill="rgb(25, 232, 112)" opacity="0.79139656" stroke="rgb(0, 0, 0)" stroke-opacity="1.0" stroke-linecap="round" stroke-linejoin="round"/>
    <path d="M 402.6520080566406 280.2447814941406 C 258.1806945800781 345.6356201171875 282.8801574707031 379.24468994140625 296.3711853027344 370.91375732421875 C 243.5867156982422 423.39654541015625 215.0381317138672 364.76922607421875 104.76751708984375 297.83599853515625 C 132.0001220703125 247.36248779296875 164.11038208007812 269.0078125 259.7219543457031 327.9346618652344 C 402.42327880859375 233.79208374023438 557.1467895507812 171.44052124023438 402.6520080566406 280.2447814941406" stroke-width="0.0" fill="rgb(3, 249, 0)" opacity="0.9872024" stroke="rgb(0, 0, 0)" stroke-opacity="1.0" stroke-linecap="round" stroke-linejoin="round"/>
    <path d="M 407.8192138671875 192.9773712158203 C 423.0940246582031 209.93934631347656 408.04248046875 192.93067932128906 345.1977844238281 203.32618713378906 C 399.357666015625 215.2610321044922 371.5724792480469 247.71102905273438 311.3265380859375 244.27426147460938 C 338.43536376953125 190.7118682861328 374.058349609375 244.5840301513672 360.016357421875 138.7728271484375 C 375.5943908691406 179.77638244628906 403.8018493652344 191.79257202148438 407.8192138671875 192.9773712158203" stroke-width="0.0" fill="rgb(155, 13, 115)" opacity="0.53970236" stroke="rgb(0, 0, 0)" stroke-opacity="1.0" stroke-linecap="round" stroke-linejoin="round"/>
    <path d="M 473.0224304199219 239.05690002441406 C 476.5636291503906 222.9043426513672 490.9722900390625 179.52752685546875 425.2126159667969 228.00302124023438 C 326.0409851074219 300.57232666015625 329.67724609375 286.6126708984375 441.675537109375 209.9252166748047 C 382.27362060546875 180.5283660888672 370.9109191894531 207.4723358154297 386.8577880859375 186.43186950683594 C 469.6273193359375 241.0054931640625 449.8401184082031 237.8760986328125 473.0224304199219 239.05690002441406" stroke-width="0.0" fill="rgb(255, 215, 172)" opacity="0.5954149" stroke="rgb(0, 0, 0)" stroke-opacity="1.0" stroke-linecap="round" stroke-linejoin="round"/>
    <path d="M 166.5432586669922 279.5309753417969 C 127.11268615722656 293.49249267578125 128.85731506347656 310.2126770019531 95.70413208007812 276.3516540527344 C 69.71903228759766 263.4616394042969 124.4670181274414 263.92303466796875 -4.265764236450195 244.07366943359375 C 67.76066589355469 242.982421875 42.44499969482422 203.77830505371094 116.09921264648438 228.75604248046875 C 152.25624084472656 270.8324279785156 194.00537109375 282.0190734863281 166.5432586669922 279.5309753417969" stroke-width="0.0" fill="rgb(0, 245, 18)" opacity="0.97789395" stroke="rgb(0, 0, 0)" stroke-opacity="1.0" stroke-linecap="round" stroke-linejoin="round"/>
    <path d="M 84.18746948242188 71.06572723388672 C 95.07100677490234 80.41889953613281 83.93626403808594 66.43023681640625 89.89656829833984 70.5123519897461 C 101.78401947021484 22.9970703125 115.27198028564453 -44.65511703491211 6.08763313293457 -45.35529708862305 C -6.117883205413818 128.7922821044922 7.420656681060791 78.62187194824219 59.704925537109375 85.71947479248047 C 99.21422576904297 91.7498550415039 90.5245132446289 61.602542877197266 84.18746948242188 71.06572723388672" stroke-width="0.0" fill="rgb(0, 0, 1)" opacity="1.0" stroke="rgb(0, 0, 0)" stroke-opacity="1.0" stroke-linecap="round" stroke-linejoin="round"/>
    <path d="M 344.5351257324219 147.33718872070312 C 333.9811706542969 229.27947998046875 346.9020690917969 256.1612243652344 325.4691162109375 253.6018829345703 C 214.07752990722656 287.7153015136719 222.15762329101562 289.14007568359375 220.67379760742188 149.45654296875 C 294.7900390625 165.3630828857422 283.5595397949219 200.04261779785156 291.0445556640625 157.4624481201172 C 273.94219970703125 172.85989379882812 277.12347412109375 165.77517700195312 344.5351257324219 147.33718872070312" stroke-width="0.0" fill="rgb(102, 61, 88)" opacity="0.4939123" stroke="rgb(0, 0, 0)" stroke-opacity="1.0" stroke-linecap="round" stroke-linejoin="round"/>
    <path d="M 172.9805450439453 484.6365051269531 C 134.77957153320312 460.2779846191406 150.39268493652344 471.25274658203125 138.15138244628906 485.8776550292969 C 131.7002410888672 512.0723876953125 147.13597106933594 496.9898376464844 145.6990509033203 459.7439880371094 C 113.62165832519531 441.0324401855469 101.85295104980469 397.6441345214844 126.34402465820312 391.75665283203125 C 168.99745178222656 455.2792663574219 160.89430236816406 499.46435546875 172.9805450439453 484.6365051269531" stroke-width="0.0" fill="rgb(165, 178, 120)" opacity="0.0" stroke="rgb(0, 0, 0)" stroke-opacity="1.0" stroke-linecap="round" stroke-linejoin="round"/>
    <path d="M 146.44168090820312 227.16725158691406 C 203.50942993164062 234.1631317138672 91.46575164794922 229.22727966308594 93.40718078613281 224.202880859375 C 101.12511444091797 212.1472625732422 39.45530319213867 223.01919555664062 38.997703552246094 201.0131378173828 C 79.38202667236328 232.39173889160156 81.99931335449219 241.2294158935547 105.67105865478516 225.96018981933594 C 113.06939697265625 238.7426300048828 109.25355529785156 242.9105682373047 146.44168090820312 227.16725158691406" stroke-width="0.0" fill="rgb(80, 147, 128)" opacity="0.03546431" stroke="rgb(0, 0, 0)" stroke-opacity="1.0" stroke-linecap="round" stroke-linejoin="round"/>
    <path d="M 109.72554779052734 148.36410522460938 C 104.90814971923828 167.72850036621094 96.3846435546875 135.27613830566406 52.81645202636719 153.46385192871094 C 39.171470642089844 172.48992919921875 43.383544921875 182.5406036376953 44.96522903442383 102.46397399902344 C 38.51653289794922 81.71837615966797 110.20696258544922 88.10225677490234 118.4955062866211 97.83354187011719 C 132.95220947265625 90.26447296142578 135.4252166748047 137.62876892089844 109.72554779052734 148.36410522460938" stroke-width="0.0" fill="rgb(175, 115, 209)" opacity="0.6386431" stroke="rgb(0, 0, 0)" stroke-opacity="1.0" stroke-linecap="round" stroke-linejoin="round"/>
    <path d="M 330.02716064453125 209.9239044189453 C 385.5685729980469 232.04457092285156 349.56903076171875 204.16102600097656 292.2250061035156 197.69944763183594 C 261.7967529296875 250.7357635498047 257.73809814453125 258.44158935546875 189.3414306640625 205.48414611816406 C 218.3006134033203 215.2838897705078 201.84732055664062 221.40652465820312 218.32403564453125 228.81387329101562 C 326.4137878417969 208.0982666015625 341.50750732421875 190.1699981689453 330.02716064453125 209.9239044189453" stroke-width="0.0" fill="rgb(23, 32, 65)" opacity="0.31521884" stroke="rgb(0, 0, 0)" stroke-opacity="1.0" stroke-linecap="round" stroke-linejoin="round"/>
    <path d="M 212.72433471679688 148.2393798828125 C 210.59237670898438 115.49834442138672 207.63705444335938 97.9901351928711 231.6746063232422 106.99440002441406 C 212.286376953125 106.75269317626953 172.64817810058594 154.75025939941406 84.49535369873047 203.82595825195312 C 193.83309936523438 147.0905303955078 234.1442108154297 150.23414611816406 217.48406982421875 107.10084533691406 C 232.1009979248047 101.11766052246094 234.6595001220703 103.99370574951172 212.72433471679688 148.2393798828125" stroke-width="0.0" fill="rgb(168, 4, 102)" opacity="0.66316104" stroke="rgb(0, 0, 0)" stroke-opacity="1.0" stroke-linecap="round" stroke-linejoin="round"/>
    <path d="M 93.42228698730469 514.3236083984375 C 41.58469009399414 540.039306640625 7.4324774742126465 523.6019897460938 -5.205875873565674 524.1796264648438 C -9.364206314086914 527.7437133789062 -16.68471336364746 520.4232177734375 -21.20284080505371 510.0506896972656 C -18.48799705505371 494.70721435546875 -31.987857818603516 464.11956787109375 -22.35140037536621 429.06805419921875 C 83.2955322265625 427.2575988769531 102.65380096435547 418.3111267089844 93.42228698730469 514.3236083984375" stroke-width="0.0" fill="rgb(0, 0, 0)" opacity="1.0" stroke="rgb(0, 0, 0)" stroke-opacity="1.0" stroke-linecap="round" stroke-linejoin="round"/>
    <path d="M 214.72219848632812 133.74159240722656 C 247.12966918945312 101.79400634765625 178.80853271484375 122.84768676757812 127.36229705810547 218.8225555419922 C 101.73043823242188 203.4239501953125 127.84780883789062 225.65286254882812 163.8939208984375 209.7626190185547 C 148.54025268554688 207.40257263183594 125.10057067871094 185.13760375976562 95.26163482666016 192.7820587158203 C 164.3530731201172 189.3291778564453 126.51030731201172 167.58302307128906 214.72219848632812 133.74159240722656" stroke-width="0.0" fill="rgb(93, 70, 87)" opacity="0.46061683" stroke="rgb(0, 0, 0)" stroke-opacity="1.0" stroke-linecap="round" stroke-linejoin="round"/>
    <path d="M 463.6689758300781 247.70262145996094 C 355.1917419433594 322.41632080078125 336.1236267089844 363.5968017578125 330.3433532714844 327.2311096191406 C 356.8391418457031 321.6786804199219 297.17626953125 334.9835205078125 257.4013977050781 283.71795654296875 C 269.5566711425781 263.76068115234375 288.6878662109375 262.3154296875 331.8377685546875 224.4449920654297 C 266.908935546875 294.07415771484375 376.6156921386719 191.126708984375 463.6689758300781 247.70262145996094" stroke-width="0.0" fill="rgb(38, 89, 0)" opacity="0.3931238" stroke="rgb(0, 0, 0)" stroke-opacity="1.0" stroke-linecap="round" stroke-linejoin="round"/>
    <path d="M 250.79342651367188 125.02439880371094 C 212.75291442871094 159.1049346923828 234.69776916503906 148.417724609375 167.57083129882812 167.7833709716797 C 124.45809936523438 122.01793670654297 147.36241149902344 112.41920471191406 145.92831420898438 90.49967193603516 C 175.26014709472656 76.14036560058594 187.87403869628906 62.90007019042969 207.49465942382812 87.41635131835938 C 170.48248291015625 113.25788879394531 200.1463165283203 96.67675018310547 250.79342651367188 125.02439880371094" stroke-width="0.0" fill="rgb(174, 160, 207)" opacity="0.37749365" stroke="rgb(0, 0, 0)" stroke-opacity="1.0" stroke-linecap="round" stroke-linejoin="round"/>
    <path d="M 191.75668334960938 72.57785034179688 C 170.91062927246094 84.3621826171875 156.6979217529297 111.96226501464844 170.5390625 120.0862045288086 C 145.44125366210938 64.66397857666016 143.1126251220703 144.67039489746094 164.810546875 110.8680419921875 C 129.6644744873047 35.64778137207031 156.5634765625 -16.4432373046875 211.8795623779297 -1.4194780588150024 C 203.31301879882812 96.95624542236328 203.0688018798828 70.95074462890625 191.75668334960938 72.57785034179688" stroke-width="0.0" fill="rgb(173, 88, 208)" opacity="0.5390256" stroke="rgb(0, 0, 0)" stroke-opacity="1.0" stroke-linecap="round" stroke-linejoin="round"/>
    <path d="M 384.50897216796875 64.27935028076172 C 421.3387756347656 77.2064437866211 395.18414306640625 87.62511444091797 369.703125 121.91227722167969 C 376.74261474609375 141.1202850341797 399.97821044921875 131.3524932861328 388.166259765625 73.62818145751953 C 404.200927734375 72.84445190429688 413.77166748046875 67.77838134765625 389.3643798828125 59.688289642333984 C 402.1632995605469 94.1874771118164 397.4419250488281 72.4184799194336 384.50897216796875 64.27935028076172" stroke-width="0.0" fill="rgb(177, 185, 134)" opacity="0.045096524" stroke="rgb(0, 0, 0)" stroke-opacity="1.0" stroke-linecap="round" stroke-linejoin="round"/>
    <path d="M 318.71685791015625 496.8232116699219 C 328.4223327636719 517.6316528320312 332.91534423828125 516.4161987304688 305.3668212890625 523.8659057617188 C 246.89981079101562 516.8046264648438 252.42282104492188 518.8704223632812 284.0820617675781 468.64971923828125 C 279.3359069824219 475.7885437011719 282.88970947265625 449.6181945800781 291.06097412109375 408.937744140625 C 300.8533020019531 454.4707336425781 312.59283447265625 467.3335876464844 318.71685791015625 496.8232116699219" stroke-width="0.0" fill="rgb(126, 82, 18)" opacity="0.0" stroke="rgb(0, 0, 0)" stroke-opacity="1.0" stroke-linecap="round" stroke-linejoin="round"/>
    <path d="M 281.6653747558594 181.13885498046875 C 302.9709777832031 153.12120056152344 322.28277587890625 156.8714599609375 327.0057678222656 220.26731872558594 C 333.8503723144531 134.38580322265625 342.8665466308594 141.61448669433594 273.0284118652344 160.46990966796875 C 266.79327392578125 143.3239288330078 279.1707763671875 159.202392578125 266.5461120605469 225.716552734375 C 298.9566345214844 123.47747039794922 294.6433410644531 155.4183807373047 281.6653747558594 181.13885498046875" stroke-width="0.0" fill="rgb(254, 230, 231)" opacity="0.65923" stroke="rgb(0, 0, 0)" stroke-opacity="1.0" stroke-linecap="round" stroke-linejoin="round"/>
    <path d="M 273.4647521972656 41.794925689697266 C 314.13262939453125 26.09855842590332 313.59307861328125 2.39091157913208 280.1228332519531 19.057344436645508 C 274.04522705078125 32.301963806152344 273.5514221191406 -16.4180908203125 269.33441162109375 -50.63621520996094 C 256.2176208496094 -12.10042667388916 262.57568359375 -21.108570098876953 273.9260559082031 -7.018528461456299 C 291.82025146484375 1.1695842742919922 289.720947265625 5.533855438232422 273.4647521972656 41.794925689697266" stroke-width="0.0" fill="rgb(65, 74, 192)" opacity="0.78404504" stroke="rgb(0, 0, 0)" stroke-opacity="1.0" stroke-linecap="round" stroke-linejoin="round"/>
    <path d="M 339.0151062011719 260.3550720214844 C 340.2325439453125 240.83248901367188 327.3152160644531 250.0968017578125 325.99237060546875 246.25717163085938 C 302.8875732421875 257.03973388671875 311.8367004394531 257.2603759765625 297.02032470703125 262.6812438964844 C 327.4668273925781 246.99513244628906 370.370361328125 257.3642883300781 371.5684814453125 277.0283508300781 C 312.6723327636719 263.56536865234375 334.43121337890625 263.12396240234375 339.0151062011719 260.3550720214844" stroke-width="0.0" fill="rgb(175, 137, 149)" opacity="0.0023006971" stroke="rgb(0, 0, 0)" stroke-opacity="1.0" stroke-linecap="round" stroke-linejoin="round"/>
    <path d="M 195.62767028808594 57.930965423583984 C 170.7958221435547 93.00872039794922 122.92516326904297 77.3209228515625 143.26815795898438 100.62394714355469 C 163.1638946533203 90.51248168945312 139.05789184570312 98.05135345458984 143.68287658691406 93.45539093017578 C 139.38587951660156 78.25788116455078 117.96788787841797 72.07875061035156 141.932373046875 100.11158752441406 C 166.638427734375 71.8099594116211 192.8009033203125 64.61481475830078 195.62767028808594 57.930965423583984" stroke-width="0.0" fill="rgb(49, 19, 157)" opacity="0.20390962" stroke="rgb(0, 0, 0)" stroke-opacity="1.0" stroke-linecap="round" stroke-linejoin="round"/>
    <path d="M 523.0045776367188 434.50311279296875 C 496.7397766113281 431.6187438964844 462.5915832519531 465.79791259765625 473.7994689941406 470.9840087890625 C 467.3368225097656 480.28924560546875 465.334228515625 498.41729736328125 474.3979187011719 464.9999084472656 C 473.2084045410156 428.5993347167969 493.50830078125 435.7852478027344 534.4469604492188 430.3469543457031 C 525.1009521484375 435.51318359375 520.4375610351562 446.3047180175781 523.0045776367188 434.50311279296875" stroke-width="0.0" fill="rgb(0, 0, 0)" opacity="0.9722516" stroke="rgb(0, 0, 0)" stroke-opacity="1.0" stroke-linecap="round" stroke-linejoin="round"/>
    <path d="M 319.1275939941406 495.3437194824219 C 344.1254577636719 482.92547607421875 336.636962890625 482.23321533203125 314.5780944824219 507.1676940917969 C 324.16265869140625 492.9331359863281 322.24810791015625 473.92584228515625 310.07769775390625 480.25927734375 C 348.0726013183594 479.07623291015625 337.3003845214844 487.36175537109375 319.3219909667969 477.33978271484375 C 322.75341796875 453.4579772949219 309.9027099609375 465.802001953125 319.1275939941406 495.3437194824219" stroke-width="0.0" fill="rgb(39, 60, 51)" opacity="0.072149284" stroke="rgb(0, 0, 0)" stroke-opacity="1.0" stroke-linecap="round" stroke-linejoin="round"/>
    <path d="M 446.5744323730469 412.5149841308594 C 447.63775634765625 402.9100036621094 437.0831604003906 405.27783203125 416.81988525390625 410.029296875 C 377.14239501953125 407.4853515625 376.1897277832031 418.72247314453125 385.1479187011719 433.0551452636719 C 432.1552429199219 415.326904296875 457.0438537597656 410.1601257324219 451.027099609375 401.04583740234375 C 453.3078308105469 390.85101318359375 443.55279541015625 413.24609375 446.5744323730469 412.5149841308594" stroke-width="0.0" fill="rgb(177, 161, 177)" opacity="0.25674734" stroke="rgb(0, 0, 0)" stroke-opacity="1.0" stroke-linecap="round" stroke-linejoin="round"/>
    <path d="M 415.1965026855469 425.33905029296875 C 416.02032470703125 437.4176330566406 426.51995849609375 433.4021911621094 380.09332275390625 411.46844482421875 C 369.9617004394531 456.30731201171875 396.8995056152344 429.4356689453125 405.9223327636719 378.62353515625 C 386.6198425292969 396.2822570800781 349.58349609375 419.6643371582031 383.9780578613281 380.18780517578125 C 427.9656066894531 355.40496826171875 418.5493469238281 376.915283203125 415.1965026855469 425.33905029296875" stroke-width="0.0" fill="rgb(76, 38, 156)" opacity="0.63667125" stroke="rgb(0, 0, 0)" stroke-opacity="1.0" stroke-linecap="round" stroke-linejoin="round"/>
    <path d="M 302.0946044921875 157.13319396972656 C 252.77285766601562 134.1497039794922 261.7868957519531 130.2238006591797 254.53799438476562 130.80703735351562 C 224.14089965820312 164.07131958007812 227.5365447998047 167.83547973632812 183.49819946289062 139.4691925048828 C 189.37222290039062 98.62362670898438 203.77650451660156 102.99771118164062 250.3113555908203 95.37069702148438 C 270.7119445800781 77.92750549316406 296.055908203125 115.94865417480469 302.0946044921875 157.13319396972656" stroke-width="0.0" fill="rgb(0, 236, 114)" opacity="1.0" stroke="rgb(0, 0, 0)" stroke-opacity="1.0" stroke-linecap="round" stroke-linejoin="round"/>
    <path d="M 112.47914123535156 415.7851867675781 C 103.10977935791016 432.14117431640625 73.5887451171875 427.09149169921875 79.01470184326172 436.1496276855469 C 107.60902404785156 422.77880859375 89.10287475585938 417.7811584472656 29.47243881225586 394.42547607421875 C 48.79202651977539 381.4222412109375 47.71946334838867 369.00958251953125 49.45770263671875 383.2237548828125 C 74.29740142822266 422.7420654296875 96.193359375 417.47393798828125 112.47914123535156 415.7851867675781" stroke-width="0.0" fill="rgb(140, 138, 255)" opacity="0.105808415" stroke="rgb(0, 0, 0)" stroke-opacity="1.0" stroke-linecap="round" stroke-linejoin="round"/>
    <path d="M 439.7458801269531 82.78685760498047 C 452.42620849609375 90.20953369140625 433.41339111328125 65.09029388427734 402.8840026855469 65.55924987792969 C 401.1634521484375 113.82366180419922 398.769287109375 91.9013900756836 362.7854309082031 79.44087219238281 C 346.078857421875 39.208309173583984 366.9317932128906 43.33554458618164 419.9956970214844 75.70024108886719 C 438.05230712890625 69.80510711669922 441.8994445800781 58.52759552001953 439.7458801269531 82.78685760498047" stroke-width="0.0" fill="rgb(90, 0, 224)" opacity="0.3094809" stroke="rgb(0, 0, 0)" stroke-opacity="1.0" stroke-linecap="round" stroke-linejoin="round"/>
    <path d="M 288.2469787597656 -3.693249464035034 C 253.81048583984375 34.308837890625 180.81607055664062 17.50796127319336 160.54135131835938 30.10883140563965 C 156.30923461914062 67.28349304199219 195.98385620117188 67.59254455566406 200.47425842285156 29.824142456054688 C 197.27676391601562 0.2590893507003784 162.6217803955078 14.982767105102539 213.42727661132812 37.64214324951172 C 207.54527282714844 3.380894184112549 211.24525451660156 -29.509140014648438 288.2469787597656 -3.693249464035034" stroke-width="0.0" fill="rgb(103, 89, 215)" opacity="0.9749103" stroke="rgb(0, 0, 0)" stroke-opacity="1.0" stroke-linecap="round" stroke-linejoin="round"/>
    <path d="M 500.21429443359375 229.71241760253906 C 516.8079833984375 240.54537963867188 505.299072265625 211.1308135986328 494.18505859375 194.53076171875 C 490.1785888671875 192.1350860595703 485.6729736328125 180.02642822265625 499.9165344238281 188.65821838378906 C 473.5848388671875 142.9415740966797 452.2164001464844 142.93284606933594 501.85577392578125 138.1761474609375 C 496.24322509765625 189.95115661621094 493.67205810546875 224.52655029296875 500.21429443359375 229.71241760253906" stroke-width="0.0" fill="rgb(158, 202, 124)" opacity="0.0" stroke="rgb(0, 0, 0)" stroke-opacity="1.0" stroke-linecap="round" stroke-linejoin="round"/>
    <path d="M 426.0948486328125 296.1800231933594 C 418.5372314453125 314.93218994140625 408.01531982421875 340.3568420410156 414.167236328125 348.7698669433594 C 429.23431396484375 331.38421630859375 396.8195495605469 319.82122802734375 380.8556213378906 304.8796081542969 C 369.7842712402344 301.1401062011719 378.86260986328125 308.3754577636719 426.7835693359375 308.20843505859375 C 437.5135498046875 302.3200988769531 441.3457336425781 293.00030517578125 426.0948486328125 296.1800231933594" stroke-width="0.0" fill="rgb(65, 205, 152)" opacity="0.0" stroke="rgb(0, 0, 0)" stroke-opacity="1.0" stroke-linecap="round" stroke-linejoin="round"/>
    <path d="M 291.21368408203125 269.2557067871094 C 284.6959228515625 281.8553771972656 272.589599609375 289.3994140625 259.49981689453125 305.9876403808594 C 246.98106384277344 290.972900390625 238.46180725097656 276.6828308105469 220.209716796875 269.4449157714844 C 204.39511108398438 261.70111083984375 222.32449340820312 273.2433776855469 230.7132110595703 274.6103515625 C 230.7335968017578 296.0879211425781 264.3883972167969 284.7145690917969 291.21368408203125 269.2557067871094" stroke-width="0.0" fill="rgb(244, 98, 211)" opacity="0.9017166" stroke="rgb(0, 0, 0)" stroke-opacity="1.0" stroke-linecap="round" stroke-linejoin="round"/>
    <path d="M 235.74928283691406 310.8090515136719 C 266.06744384765625 309.91400146484375 289.29803466796875 302.6667175292969 265.4327697753906 294.4727783203125 C 251.5706329345703 313.6826171875 222.0935516357422 322.49578857421875 194.658935546875 298.4649353027344 C 231.61534118652344 292.43157958984375 244.89541625976562 303.2397766113281 287.7930603027344 275.2916259765625 C 270.59747314453125 252.23280334472656 247.70147705078125 273.9159851074219 235.74928283691406 310.8090515136719" stroke-width="0.0" fill="rgb(0, 228, 61)" opacity="0.15882541" stroke="rgb(0, 0, 0)" stroke-opacity="1.0" stroke-linecap="round" stroke-linejoin="round"/>
    <path d="M 70.64359283447266 108.40849304199219 C 29.57746696472168 103.05958557128906 43.907527923583984 123.9101791381836 47.56630325317383 152.7191925048828 C 45.4918327331543 145.0311279296875 28.70244598388672 143.27980041503906 7.719308853149414 138.7467498779297 C 7.388396263122559 147.27651977539062 27.563785552978516 135.94204711914062 59.59080123901367 121.13663482666016 C 67.38367462158203 146.57492065429688 52.37482833862305 140.1171112060547 70.64359283447266 108.40849304199219" stroke-width="0.0" fill="rgb(167, 114, 51)" opacity="0.0" stroke="rgb(0, 0, 0)" stroke-opacity="1.0" stroke-linecap="round" stroke-linejoin="round"/>
    <path d="M 482.0338439941406 147.25881958007812 C 477.39202880859375 159.85374450683594 463.61456298828125 167.3567657470703 414.4086608886719 131.3760223388672 C 405.7132263183594 171.84384155273438 413.6195983886719 163.76248168945312 407.8623046875 142.8185272216797 C 412.14215087890625 114.48674011230469 402.7017822265625 117.94324493408203 408.5185852050781 129.68218994140625 C 436.60791015625 139.568603515625 458.41259765625 127.50187683105469 482.0338439941406 147.25881958007812" stroke-width="0.0" fill="rgb(65, 120, 39)" opacity="0.75318193" stroke="rgb(0, 0, 0)" stroke-opacity="1.0" stroke-linecap="round" stroke-linejoin="round"/>
    <path d="M 78.47637176513672 498.8977966308594 C 67.53718566894531 495.9005126953125 53.989776611328125 498.9770812988281 57.21297836303711 509.02398681640625 C 17.45133399963379 517.259033203125 27.356698989868164 504.8043212890625 57.34343338012695 476.8033752441406 C 69.65988159179688 481.40960693359375 74.05603790283203 477.2351379394531 69.30896759033203 459.1235656738281 C 58.59275436401367 481.692138671875 66.10494232177734 486.6262512207031 78.47637176513672 498.8977966308594" stroke-width="0.0" fill="rgb(6, 37, 32)" opacity="0.015719425" stroke="rgb(0, 0, 0)" stroke-opacity="1.0" stroke-linecap="round" stroke-linejoin="round"/>
    <path d="M 530.0302124023438 26.10268783569336 C 524.7130737304688 35.318084716796875 502.5133056640625 43.302276611328125 489.08502197265625 45.8092155456543 C 494.9298400878906 59.41860580444336 502.57550048828125 36.499427795410156 523.8380126953125 29.956195831298828 C 525.3599853515625 53.6646728515625 512.4507446289062 27.41641616821289 493.3481140136719 29.99622917175293 C 472.0478820800781 37.84089279174805 501.48577880859375 17.123117446899414 530.0302124023438 26.10268783569336" stroke-width="0.0" fill="rgb(18, 0, 22)" opacity="0.0" stroke="rgb(0, 0, 0)" stroke-opacity="1.0" stroke-linecap="round" stroke-linejoin="round"/>
    <path d="M 289.3265686035156 302.5257873535156 C 283.7585144042969 279.1436767578125 291.6628723144531 303.5711364746094 276.1883239746094 291.9984130859375 C 263.3833923339844 305.1993103027344 251.26248168945312 309.9771423339844 244.84494018554688 312.9293212890625 C 271.5653076171875 297.1966857910156 254.40292358398438 262.3176574707031 272.6661376953125 286.9784240722656 C 290.570556640625 313.2411193847656 288.7794494628906 321.5538635253906 289.3265686035156 302.5257873535156" stroke-width="0.0" fill="rgb(72, 63, 129)" opacity="0.011645808" stroke="rgb(0, 0, 0)" stroke-opacity="1.0" stroke-linecap="round" stroke-linejoin="round"/>
    <path d="M 328.498291015625 98.82971954345703 C 369.3236389160156 97.62232971191406 355.1531982421875 128.45404052734375 366.4540100097656 120.96209716796875 C 338.6484680175781 103.2274169921875 339.6778869628906 107.63835144042969 307.26446533203125 118.71669006347656 C 295.7325134277344 81.51193237304688 291.6776123046875 80.09383392333984 270.823974609375 90.7353286743164 C 327.73370361328125 108.51338958740234 354.76995849609375 87.03748321533203 328.498291015625 98.82971954345703" stroke-width="0.0" fill="rgb(47, 95, 144)" opacity="0.13832287" stroke="rgb(0, 0, 0)" stroke-opacity="1.0" stroke-linecap="round" stroke-linejoin="round"/>
    <path d="M 112.9319076538086 77.39725494384766 C 153.6420440673828 39.306827545166016 166.3524627685547 82.25921630859375 135.43902587890625 142.2338409423828 C 106.31417083740234 125.24109649658203 130.14866638183594 84.89026641845703 112.36300659179688 65.55181121826172 C 88.95923614501953 66.99113464355469 120.44339752197266 59.72198486328125 101.48370361328125 49.755859375 C 97.86414337158203 59.86908721923828 87.38861083984375 81.20681762695312 112.9319076538086 77.39725494384766" stroke-width="0.0" fill="rgb(255, 202, 255)" opacity="1.0" stroke="rgb(0, 0, 0)" stroke-opacity="1.0" stroke-linecap="round" stroke-linejoin="round"/>
    <path d="M 462.1249694824219 448.61224365234375 C 466.25457763671875 506.4049377441406 456.79608154296875 518.0632934570312 435.4625244140625 533.2299194335938 C 429.84649658203125 508.9502258300781 433.7687072753906 486.61627197265625 432.1466979980469 488.522705078125 C 430.0762634277344 477.3398742675781 421.2813720703125 444.7062683105469 441.020751953125 451.44317626953125 C 462.216064453125 459.78533935546875 468.916259765625 455.0301513671875 462.1249694824219 448.61224365234375" stroke-width="0.0" fill="rgb(41, 0, 140)" opacity="0.0" stroke="rgb(0, 0, 0)" stroke-opacity="1.0" stroke-linecap="round" stroke-linejoin="round"/>
    <path d="M 205.57691955566406 61.71977615356445 C 183.71810913085938 43.22940444946289 186.3575897216797 72.52208709716797 191.0448455810547 54.714412689208984 C 169.95909118652344 60.73594284057617 169.1113739013672 70.7646255493164 149.37208557128906 26.51584815979004 C 132.20773315429688 31.662019729614258 156.63165283203125 25.38726234436035 210.10009765625 39.92971420288086 C 167.35260009765625 85.45232391357422 179.1571502685547 82.85637664794922 205.57691955566406 61.71977615356445" stroke-width="0.0" fill="rgb(85, 138, 106)" opacity="0.026992649" stroke="rgb(0, 0, 0)" stroke-opacity="1.0" stroke-linecap="round" stroke-linejoin="round"/>
    <path d="M 292.0233154296875 228.6949005126953 C 264.73785400390625 212.77696228027344 279.6636047363281 236.61204528808594 248.41677856445312 247.24505615234375 C 237.1057586669922 238.82537841796875 246.920166015625 217.64871215820312 229.28045654296875 232.1282196044922 C 273.755126953125 246.4055633544922 282.21063232421875 225.63253784179688 308.0260009765625 213.03428649902344 C 258.4751281738281 226.18173217773438 279.66375732421875 209.93667602539062 292.0233154296875 228.6949005126953" stroke-width="0.0" fill="rgb(207, 216, 161)" opacity="0.8774449" stroke="rgb(0, 0, 0)" stroke-opacity="1.0" stroke-linecap="round" stroke-linejoin="round"/>
    <path d="M 510.13714599609375 -10.18156909942627 C 475.1468200683594 -15.170083045959473 468.70697021484375 6.282154560089111 457.51531982421875 11.681281089782715 C 449.4521484375 -20.401424407958984 455.6225891113281 -13.377260208129883 462.52557373046875 -23.910484313964844 C 443.02642822265625 -11.118226051330566 452.07421875 -16.323915481567383 477.12213134765625 -32.30657196044922 C 482.9722595214844 -21.891000747680664 482.74334716796875 -3.339811325073242 510.13714599609375 -10.18156909942627" stroke-width="0.0" fill="rgb(51, 0, 28)" opacity="0.04243595" stroke="rgb(0, 0, 0)" stroke-opacity="1.0" stroke-linecap="round" stroke-linejoin="round"/>
    <path d="M 144.3697052001953 421.5151062011719 C 142.30941772460938 432.1436767578125 148.8771209716797 462.40582275390625 137.36859130859375 448.1059875488281 C 146.450439453125 442.9977111816406 136.352783203125 438.0886535644531 142.2862091064453 432.04937744140625 C 140.6939239501953 431.27496337890625 170.58668518066406 413.5513000488281 143.9812469482422 399.09173583984375 C 128.8010711669922 397.67578125 151.8834991455078 414.7381591796875 144.3697052001953 421.5151062011719" stroke-width="0.0" fill="rgb(108, 173, 147)" opacity="0.0" stroke="rgb(0, 0, 0)" stroke-opacity="1.0" stroke-linecap="round" stroke-linejoin="round"/>
  </g>
</svg>
