<?xml version="1.0" ?>
<svg xmlns="http://www.w3.org/2000/svg" version="1.1" width="512" height="512">
  <defs/>
  <g>
    <path d="M 557.1803588867188 401.0169982910156 C 547.165283203125 516.641845703125 548.8319091796875 525.4011840820312 400.1966552734375 544.5361328125 C 316.7857360839844 555.8917846679688 268.7297668457031 540.2097778320312 340.4372253417969 445.1665344238281 C 237.96978759765625 328.9361877441406 221.15505981445312 273.53106689453125 406.1795959472656 252.77957153320312 C 565.2409057617188 320.122314453125 571.761474609375 315.55859375 557.1803588867188 401.0169982910156" stroke-width="0.0" fill="rgb(11, 19, 150)" opacity="0.95324785" stroke="rgb(0, 0, 0)" stroke-opacity="1.0" stroke-linecap="round" stroke-linejoin="round"/>
    <path d="M 314.77923583984375 376.8336486816406 C 376.1524963378906 513.9426879882812 363.5322570800781 542.0789184570312 275.9039611816406 554.2943725585938 C -51.20000076293945 519.133544921875 -51.20000076293945 511.7567443847656 -31.476091384887695 486.9247741699219 C -11.44880485534668 213.44203186035156 11.046415328979492 232.6642303466797 77.536865234375 192.07699584960938 C 102.03592681884766 320.91827392578125 176.76040649414062 285.6534729003906 314.77923583984375 376.8336486816406" stroke-width="0.0" fill="rgb(1, 5, 170)" opacity="0.99672765" stroke="rgb(0, 0, 0)" stroke-opacity="1.0" stroke-linecap="round" stroke-linejoin="round"/>
    <path d="M 291.75848388671875 222.47792053222656 C 322.55841064453125 385.7549133300781 307.0423278808594 398.0499267578125 231.9299774169922 389.1736145019531 C 89.02932739257812 536.1616821289062 36.86292266845703 454.9395751953125 -23.80064582824707 180.14617919921875 C 14.989090919494629 154.28475952148438 40.26044845581055 163.73617553710938 124.91270446777344 173.26564025878906 C 174.8699493408203 200.7886962890625 195.05067443847656 193.94871520996094 291.75848388671875 222.47792053222656" stroke-width="0.0" fill="rgb(3, 0, 190)" opacity="0.9663095" stroke="rgb(0, 0, 0)" stroke-opacity="1.0" stroke-linecap="round" stroke-linejoin="round"/>
    <path d="M 293.37786865234375 38.018070220947266 C 265.87005615234375 299.3932189941406 116.45291900634766 179.97947692871094 29.529598236083984 222.4159698486328 C -30.621755599975586 182.763671875 -26.51976776123047 204.39723205566406 -6.6644463539123535 108.16805267333984 C -28.708898544311523 -6.048130989074707 -15.754012107849121 -22.61598777770996 52.94121170043945 -35.19510269165039 C 222.61306762695312 -49.268009185791016 245.734130859375 -59.491458892822266 293.37786865234375 38.018070220947266" stroke-width="0.0" fill="rgb(255, 57, 60)" opacity="0.8721494" stroke="rgb(0, 0, 0)" stroke-opacity="1.0" stroke-linecap="round" stroke-linejoin="round"/>
    <path d="M 491.56439208984375 85.42772674560547 C 416.2232666015625 273.8332214355469 415.00897216796875 262.7877502441406 384.229248046875 349.1762390136719 C 289.25018310546875 285.8775939941406 285.7088928222656 292.2137451171875 256.9454650878906 146.74159240722656 C 217.69566345214844 56.51653289794922 208.7093505859375 15.215791702270508 380.1138610839844 -30.216577529907227 C 557.0625610351562 -16.549335479736328 540.129638671875 7.394507884979248 491.56439208984375 85.42772674560547" stroke-width="0.0" fill="rgb(0, 66, 180)" opacity="1.0" stroke="rgb(0, 0, 0)" stroke-opacity="1.0" stroke-linecap="round" stroke-linejoin="round"/>
    <path d="M 274.79736328125 52.57957458496094 C 223.573486328125 198.0419158935547 373.6024475097656 184.82421875 196.56492614746094 280.41656494140625 C 167.49998474121094 152.97608947753906 143.0731201171875 152.81182861328125 137.09283447265625 119.27068328857422 C 89.33011627197266 105.5400161743164 90.91989135742188 105.45774841308594 314.6095886230469 -31.179061889648438 C 466.04315185546875 45.1851921081543 353.5929260253906 -32.5800895690918 274.79736328125 52.57957458496094" stroke-width="0.0" fill="rgb(255, 0, 127)" opacity="1.0" stroke="rgb(0, 0, 0)" stroke-opacity="1.0" stroke-linecap="round" stroke-linejoin="round"/>
    <path d="M 566.0206298828125 166.95851135253906 C 571.1173706054688 322.3320617675781 556.346435546875 352.6950378417969 464.2001647949219 336.76141357421875 C 370.1111755371094 299.7533264160156 382.6578369140625 292.12725830078125 468.9905090332031 226.08663940429688 C 472.69805908203125 137.7442169189453 407.3274230957031 40.73604202270508 480.91650390625 -20.642642974853516 C 585.5128173828125 15.558435440063477 583.0152587890625 41.062137603759766 566.0206298828125 166.95851135253906" stroke-width="0.0" fill="rgb(255, 21, 91)" opacity="0.97167015" stroke="rgb(0, 0, 0)" stroke-opacity="1.0" stroke-linecap="round" stroke-linejoin="round"/>
    <path d="M 313.9566345214844 251.30593872070312 C 345.2745666503906 320.29119873046875 342.4825744628906 357.12939453125 271.5723571777344 319.7623596191406 C 285.3662109375 280.70184326171875 244.8238067626953 288.7224426269531 137.03469848632812 279.2620544433594 C 261.3792724609375 215.38131713867188 286.3054504394531 233.02639770507812 327.6786193847656 200.80618286132812 C 341.866455078125 91.92109680175781 317.23162841796875 140.9581298828125 313.9566345214844 251.30593872070312" stroke-width="0.0" fill="rgb(0, 101, 179)" opacity="0.9099479" stroke="rgb(0, 0, 0)" stroke-opacity="1.0" stroke-linecap="round" stroke-linejoin="round"/>
    <path d="M 436.1200866699219 178.03646850585938 C 398.90362548828125 239.50872802734375 528.7007446289062 247.53041076660156 386.6521911621094 316.53765869140625 C 308.1085205078125 207.32553100585938 325.4656677246094 251.49246215820312 312.3019104003906 204.8140106201172 C 257.88189697265625 -13.924175262451172 352.02288818359375 81.82241821289062 309.3134460449219 182.22190856933594 C 407.7758483886719 175.19818115234375 426.030029296875 172.66481018066406 436.1200866699219 178.03646850585938" stroke-width="0.0" fill="rgb(255, 255, 232)" opacity="1.0" stroke="rgb(0, 0, 0)" stroke-opacity="1.0" stroke-linecap="round" stroke-linejoin="round"/>
    <path d="M 235.27084350585938 297.9391174316406 C 331.5584716796875 260.3670959472656 250.0344696044922 251.09092712402344 243.23458862304688 327.2564392089844 C 33.73017501831055 344.8827209472656 111.87649536132812 211.945068359375 161.3348388671875 283.6282653808594 C 11.906907081604004 257.7315979003906 -33.43160629272461 190.7930450439453 203.82994079589844 208.05599975585938 C 268.2266845703125 205.5784912109375 267.0187683105469 278.2515563964844 235.27084350585938 297.9391174316406" stroke-width="0.0" fill="rgb(0, 39, 60)" opacity="1.0" stroke="rgb(0, 0, 0)" stroke-opacity="1.0" stroke-linecap="round" stroke-linejoin="round"/>
    <path d="M 378.7742004394531 240.23472595214844 C 460.8706970214844 213.91954040527344 419.8956298828125 284.8690185546875 377.2546691894531 255.2095947265625 C 344.9009094238281 253.05282592773438 308.70721435546875 290.852294921875 364.7887268066406 241.40248107910156 C 437.5474548339844 256.8656005859375 409.0323486328125 244.55264282226562 419.0548095703125 259.3765563964844 C 405.1160888671875 247.0307159423828 448.9163818359375 283.5202331542969 378.7742004394531 240.23472595214844" stroke-width="0.0" fill="rgb(0, 0, 7)" opacity="1.0" stroke="rgb(0, 0, 0)" stroke-opacity="1.0" stroke-linecap="round" stroke-linejoin="round"/>
    <path d="M 340.646484375 401.2523193359375 C 138.00059509277344 318.8982238769531 238.7723388671875 375.85321044921875 142.8827362060547 402.03143310546875 C 187.01075744628906 409.33892822265625 179.67068481445312 445.4094543457031 161.415283203125 412.75445556640625 C 171.04600524902344 382.80279541015625 160.1334686279297 381.4364929199219 190.0747833251953 344.6283264160156 C 241.82293701171875 332.4339599609375 177.84080505371094 378.2291564941406 340.646484375 401.2523193359375" stroke-width="0.0" fill="rgb(0, 0, 199)" opacity="0.028888123" stroke="rgb(0, 0, 0)" stroke-opacity="1.0" stroke-linecap="round" stroke-linejoin="round"/>
    <path d="M 558.6864624023438 54.39262008666992 C 542.5319213867188 97.0457992553711 530.851806640625 97.96803283691406 464.56866455078125 145.06137084960938 C 439.7001647949219 94.36257934570312 460.3009033203125 131.47889709472656 433.18646240234375 60.74441909790039 C 412.10113525390625 -27.048803329467773 333.5442810058594 122.66146087646484 334.0946960449219 -4.794942855834961 C 517.4641723632812 -46.457733154296875 529.805419921875 -14.573345184326172 558.6864624023438 54.39262008666992" stroke-width="0.0" fill="rgb(255, 34, 76)" opacity="1.0" stroke="rgb(0, 0, 0)" stroke-opacity="1.0" stroke-linecap="round" stroke-linejoin="round"/>
    <path d="M 385.2596435546875 138.99815368652344 C 397.0208740234375 215.22996520996094 389.1398010253906 182.41400146484375 333.4161376953125 139.30104064941406 C 344.16082763671875 126.99647521972656 401.3225402832031 122.79353332519531 413.9473876953125 110.11648559570312 C 417.3345947265625 112.74412536621094 428.0184631347656 65.28520965576172 388.4595642089844 59.84627914428711 C 394.602294921875 64.70159912109375 427.9998474121094 57.10747528076172 385.2596435546875 138.99815368652344" stroke-width="0.0" fill="rgb(158, 212, 208)" opacity="0.7263117" stroke="rgb(0, 0, 0)" stroke-opacity="1.0" stroke-linecap="round" stroke-linejoin="round"/>
    <path d="M 235.2875213623047 237.99362182617188 C 204.2678680419922 241.406005859375 181.07894897460938 258.5600891113281 187.55047607421875 278.19183349609375 C 140.6190185546875 279.897216796875 143.491455078125 365.2919616699219 84.25231170654297 218.50164794921875 C 39.721099853515625 204.8582000732422 89.74613952636719 204.05474853515625 238.11355590820312 208.27867126464844 C 256.0318603515625 192.152587890625 248.84811401367188 263.5191955566406 235.2875213623047 237.99362182617188" stroke-width="0.0" fill="rgb(35, 79, 107)" opacity="0.0" stroke="rgb(0, 0, 0)" stroke-opacity="1.0" stroke-linecap="round" stroke-linejoin="round"/>
    <path d="M 371.057373046875 447.3601989746094 C 418.1528015136719 458.8023681640625 349.99908447265625 490.94573974609375 325.49041748046875 402.8472900390625 C 273.76904296875 240.28099060058594 324.34326171875 460.66314697265625 369.892578125 422.9929504394531 C 357.9685363769531 419.30718994140625 319.7138671875 485.39202880859375 308.7560119628906 339.2308654785156 C 395.3321838378906 468.3662414550781 352.5351867675781 446.45654296875 371.057373046875 447.3601989746094" stroke-width="0.0" fill="rgb(107, 152, 132)" opacity="0.99369335" stroke="rgb(0, 0, 0)" stroke-opacity="1.0" stroke-linecap="round" stroke-linejoin="round"/>
    <path d="M 362.4718017578125 96.6834716796875 C 357.1374206542969 115.3519058227539 368.3632507324219 96.96211242675781 349.00555419921875 103.29766845703125 C 341.6859130859375 111.4866943359375 314.8759460449219 48.41820526123047 295.8389587402344 34.29206848144531 C 255.988037109375 1.4630049467086792 271.424072265625 -50.28322219848633 406.5826416015625 22.149246215820312 C 365.2777099609375 100.86767578125 363.4148254394531 110.69660186767578 362.4718017578125 96.6834716796875" stroke-width="0.0" fill="rgb(255, 27, 88)" opacity="1.0" stroke="rgb(0, 0, 0)" stroke-opacity="1.0" stroke-linecap="round" stroke-linejoin="round"/>
    <path d="M 391.47540283203125 347.8440246582031 C 154.41294860839844 301.1647644042969 126.4858627319336 395.271484375 178.61865234375 354.5242004394531 C 237.6370391845703 403.5703125 314.558349609375 435.87469482421875 305.1698913574219 405.5453796386719 C 323.29144287109375 373.1487731933594 311.7420349121094 381.4716796875 300.7535705566406 339.9522399902344 C 333.5229797363281 411.5538024902344 360.5135803222656 524.0333862304688 391.47540283203125 347.8440246582031" stroke-width="0.0" fill="rgb(167, 219, 185)" opacity="0.8725748" stroke="rgb(0, 0, 0)" stroke-opacity="1.0" stroke-linecap="round" stroke-linejoin="round"/>
    <path d="M 424.66448974609375 166.21739196777344 C 366.4705810546875 162.35260009765625 330.7691650390625 193.4700469970703 355.5120849609375 207.1016387939453 C 403.5935363769531 187.1190185546875 377.1614074707031 162.133544921875 323.2984313964844 178.33221435546875 C 330.46685791015625 214.44479370117188 358.940185546875 206.57298278808594 352.06585693359375 186.3927459716797 C 394.7287902832031 177.4508819580078 420.79315185546875 221.3607177734375 424.66448974609375 166.21739196777344" stroke-width="0.0" fill="rgb(18, 23, 129)" opacity="0.82281977" stroke="rgb(0, 0, 0)" stroke-opacity="1.0" stroke-linecap="round" stroke-linejoin="round"/>
    <path d="M 151.3242950439453 314.2776184082031 C 120.85309600830078 458.7737731933594 129.62551879882812 313.8416442871094 83.18970489501953 376.83154296875 C 68.03022003173828 345.8172302246094 78.85765838623047 301.7044677734375 82.1624755859375 273.4526672363281 C -31.048309326171875 203.97325134277344 23.778411865234375 147.7054901123047 112.0180435180664 147.57237243652344 C 125.50653839111328 243.877197265625 79.64990997314453 277.7761535644531 151.3242950439453 314.2776184082031" stroke-width="0.0" fill="rgb(51, 88, 0)" opacity="1.0" stroke="rgb(0, 0, 0)" stroke-opacity="1.0" stroke-linecap="round" stroke-linejoin="round"/>
    <path d="M 281.38873291015625 179.37466430664062 C 277.7193908691406 198.03797912597656 275.2474365234375 199.62835693359375 268.9322509765625 239.13485717773438 C 249.33737182617188 212.35507202148438 254.50584411621094 215.01316833496094 269.0338134765625 192.09642028808594 C 266.3345031738281 141.7930908203125 262.324462890625 127.27832794189453 278.6564636230469 118.76751708984375 C 283.7220458984375 150.2304229736328 296.0062255859375 172.07449340820312 281.38873291015625 179.37466430664062" stroke-width="0.0" fill="rgb(0, 82, 162)" opacity="0.5280063" stroke="rgb(0, 0, 0)" stroke-opacity="1.0" stroke-linecap="round" stroke-linejoin="round"/>
    <path d="M 161.0436553955078 309.43927001953125 C 118.92313385009766 364.2243957519531 160.85226440429688 377.1318664550781 87.37256622314453 458.3358154296875 C 35.176368713378906 373.08673095703125 19.251262664794922 368.8973083496094 -17.86566734313965 330.13006591796875 C 37.3798942565918 276.1507568359375 58.788970947265625 263.8418884277344 92.44923400878906 212.01698303222656 C 98.56055450439453 267.6341857910156 119.19285583496094 278.8099670410156 161.0436553955078 309.43927001953125" stroke-width="0.0" fill="rgb(28, 48, 84)" opacity="0.14248355" stroke="rgb(0, 0, 0)" stroke-opacity="1.0" stroke-linecap="round" stroke-linejoin="round"/>
    <path d="M 289.2552185058594 288.26300048828125 C 296.90216064453125 317.5210266113281 324.5977783203125 292.79486083984375 245.53660583496094 299.3102722167969 C 214.78627014160156 285.17218017578125 257.84466552734375 268.03277587890625 266.4620056152344 249.22958374023438 C 254.8658447265625 244.92469787597656 261.4967346191406 239.43112182617188 262.0769958496094 197.51449584960938 C 278.3775634765625 201.71885681152344 274.7930603027344 226.55169677734375 289.2552185058594 288.26300048828125" stroke-width="0.0" fill="rgb(139, 70, 174)" opacity="0.70484954" stroke="rgb(0, 0, 0)" stroke-opacity="1.0" stroke-linecap="round" stroke-linejoin="round"/>
    <path d="M 289.3230895996094 227.8994903564453 C 281.8711853027344 246.6663055419922 304.8590087890625 285.74176025390625 280.70819091796875 264.857421875 C 255.46945190429688 260.7830505371094 267.4341735839844 265.869873046875 248.7707061767578 228.0897216796875 C 263.373779296875 198.75607299804688 260.8163146972656 187.28741455078125 292.21661376953125 190.12948608398438 C 289.5724182128906 191.35873413085938 275.1790466308594 195.49436950683594 289.3230895996094 227.8994903564453" stroke-width="0.0" fill="rgb(108, 123, 117)" opacity="0.6990719" stroke="rgb(0, 0, 0)" stroke-opacity="1.0" stroke-linecap="round" stroke-linejoin="round"/>
    <path d="M 351.1813659667969 366.5473327636719 C 301.92291259765625 327.8591003417969 301.60565185546875 367.10601806640625 317.901611328125 419.57769775390625 C 311.82342529296875 414.5533447265625 317.24932861328125 412.43365478515625 327.8360290527344 478.8415832519531 C 330.1321105957031 506.15972900390625 467.88897705078125 505.5263977050781 409.20751953125 440.732666015625 C 333.3883972167969 401.38763427734375 358.5552062988281 418.7258605957031 351.1813659667969 366.5473327636719" stroke-width="0.0" fill="rgb(255, 255, 212)" opacity="1.0" stroke="rgb(0, 0, 0)" stroke-opacity="1.0" stroke-linecap="round" stroke-linejoin="round"/>
    <path d="M 324.80511474609375 119.15158081054688 C 343.5204162597656 204.79660034179688 311.0986328125 189.9312286376953 320.0288391113281 194.24545288085938 C 331.505615234375 231.86444091796875 316.0768127441406 220.5261993408203 284.1681213378906 236.1269073486328 C 241.2959442138672 236.95289611816406 251.31712341308594 205.35842895507812 256.75592041015625 213.70297241210938 C 276.06939697265625 175.6552734375 248.2853240966797 143.08975219726562 324.80511474609375 119.15158081054688" stroke-width="0.0" fill="rgb(0, 70, 148)" opacity="1.0" stroke="rgb(0, 0, 0)" stroke-opacity="1.0" stroke-linecap="round" stroke-linejoin="round"/>
    <path d="M 398.16259765625 292.23248291015625 C 438.8514099121094 301.6540832519531 444.1092529296875 372.96563720703125 378.1954345703125 367.5690612792969 C 267.6438903808594 311.8041687011719 250.34219360351562 303.8363342285156 256.8537292480469 239.99111938476562 C 305.111572265625 228.84326171875 317.8363952636719 246.9650421142578 325.7535705566406 236.06558227539062 C 331.8966979980469 257.0777587890625 342.01275634765625 304.932861328125 398.16259765625 292.23248291015625" stroke-width="0.0" fill="rgb(45, 188, 101)" opacity="0.8834945" stroke="rgb(0, 0, 0)" stroke-opacity="1.0" stroke-linecap="round" stroke-linejoin="round"/>
    <path d="M 173.9947509765625 349.9565124511719 C 174.69491577148438 342.2240905761719 164.6498565673828 355.978515625 156.19088745117188 374.2149963378906 C 129.33416748046875 417.7026672363281 84.56319427490234 491.845947265625 68.58008575439453 415.04974365234375 C 89.87547302246094 274.03680419921875 114.6507568359375 253.68104553222656 172.34921264648438 309.9384765625 C 182.72994995117188 359.43670654296875 211.67218017578125 344.5698547363281 173.9947509765625 349.9565124511719" stroke-width="0.0" fill="rgb(240, 249, 213)" opacity="1.0" stroke="rgb(0, 0, 0)" stroke-opacity="1.0" stroke-linecap="round" stroke-linejoin="round"/>
    <path d="M 224.6142578125 280.0832824707031 C 225.9745330810547 280.48516845703125 208.1752166748047 282.1942138671875 188.95700073242188 276.91583251953125 C 160.81500244140625 265.6094055175781 158.38485717773438 264.9867248535156 153.79052734375 251.2448272705078 C 165.5188446044922 268.7191467285156 174.07803344726562 260.21099853515625 172.77870178222656 259.42449951171875 C 167.3589630126953 270.5960998535156 196.53013610839844 253.8260955810547 224.6142578125 280.0832824707031" stroke-width="0.0" fill="rgb(118, 90, 137)" opacity="0.0" stroke="rgb(0, 0, 0)" stroke-opacity="1.0" stroke-linecap="round" stroke-linejoin="round"/>
    <path d="M 368.1330261230469 237.3402099609375 C 381.57464599609375 240.3074951171875 383.2738037109375 282.7676696777344 377.7644348144531 285.25152587890625 C 340.64752197265625 242.7735137939453 277.9772644042969 269.1141357421875 274.6640625 220.83218383789062 C 303.7154541015625 213.44677734375 303.29791259765625 226.20416259765625 335.93133544921875 228.5301055908203 C 329.8628234863281 245.6212158203125 340.0382080078125 242.35693359375 368.1330261230469 237.3402099609375" stroke-width="0.0" fill="rgb(255, 255, 255)" opacity="1.0" stroke="rgb(0, 0, 0)" stroke-opacity="1.0" stroke-linecap="round" stroke-linejoin="round"/>
    <path d="M 143.7830047607422 447.4171447753906 C 164.33810424804688 455.1471252441406 167.73919677734375 466.0972595214844 169.65589904785156 487.7159118652344 C 108.66751861572266 495.83709716796875 88.42060852050781 481.13104248046875 72.57223510742188 417.59576416015625 C 129.90927124023438 376.8287048339844 149.58651733398438 373.0545654296875 144.00860595703125 357.7081298828125 C 111.08958435058594 385.6351623535156 117.6946792602539 425.740966796875 143.7830047607422 447.4171447753906" stroke-width="0.0" fill="rgb(255, 255, 221)" opacity="1.0" stroke="rgb(0, 0, 0)" stroke-opacity="1.0" stroke-linecap="round" stroke-linejoin="round"/>
    <path d="M 369.86590576171875 385.8022766113281 C 348.39434814453125 406.2354736328125 331.9427795410156 397.0215148925781 339.7389831542969 402.8919372558594 C 324.686767578125 424.4476013183594 334.6800537109375 423.5779724121094 331.00213623046875 410.5904235839844 C 335.46221923828125 398.9386291503906 360.6157531738281 402.3997497558594 365.7095947265625 381.7095031738281 C 365.3270568847656 346.74859619140625 371.6512451171875 369.64666748046875 369.86590576171875 385.8022766113281" stroke-width="0.0" fill="rgb(82, 155, 56)" opacity="0.08779946" stroke="rgb(0, 0, 0)" stroke-opacity="1.0" stroke-linecap="round" stroke-linejoin="round"/>
    <path d="M 174.239501953125 442.63262939453125 C 186.21739196777344 487.599365234375 209.3011016845703 449.03118896484375 189.6939239501953 456.0212707519531 C 162.8569793701172 451.8266296386719 141.63624572753906 448.11328125 124.65744018554688 433.5139465332031 C 155.90338134765625 358.5213317871094 178.2358856201172 384.7875061035156 209.20571899414062 413.43548583984375 C 207.44696044921875 463.34271240234375 228.69873046875 449.00360107421875 174.239501953125 442.63262939453125" stroke-width="0.0" fill="rgb(0, 0, 205)" opacity="0.20879559" stroke="rgb(0, 0, 0)" stroke-opacity="1.0" stroke-linecap="round" stroke-linejoin="round"/>
    <path d="M 181.79200744628906 431.5657958984375 C 150.190185546875 412.506103515625 155.90121459960938 448.6256103515625 159.3482666015625 439.0653381347656 C 142.5347900390625 438.3888244628906 138.87246704101562 443.4678649902344 160.40203857421875 436.6568603515625 C 159.9077606201172 444.56329345703125 170.9539031982422 424.9378662109375 172.7498321533203 404.6112060546875 C 169.7395477294922 403.910400390625 210.2022247314453 409.4454345703125 181.79200744628906 431.5657958984375" stroke-width="0.0" fill="rgb(11, 0, 185)" opacity="0.0" stroke="rgb(0, 0, 0)" stroke-opacity="1.0" stroke-linecap="round" stroke-linejoin="round"/>
    <path d="M 231.91323852539062 235.80477905273438 C 203.6732177734375 241.43722534179688 191.1436309814453 245.3654022216797 183.4092559814453 255.08956909179688 C 200.6983642578125 249.97149658203125 196.87451171875 246.81240844726562 174.83238220214844 243.73167419433594 C 176.05064392089844 257.0588073730469 185.9054412841797 243.08856201171875 193.1022186279297 229.46102905273438 C 203.2585906982422 227.79812622070312 219.25291442871094 225.36865234375 231.91323852539062 235.80477905273438" stroke-width="0.0" fill="rgb(204, 1, 231)" opacity="0.0" stroke="rgb(0, 0, 0)" stroke-opacity="1.0" stroke-linecap="round" stroke-linejoin="round"/>
    <path d="M 279.3458251953125 241.21929931640625 C 287.9571228027344 262.6165466308594 295.1359558105469 290.7987365722656 300.0163879394531 259.5576171875 C 269.8067626953125 267.3178405761719 251.98158264160156 275.3499755859375 276.15374755859375 241.9712371826172 C 275.8628234863281 240.33006286621094 281.794921875 245.76272583007812 273.6152038574219 261.62396240234375 C 257.08551025390625 238.0203399658203 279.0304260253906 258.82171630859375 279.3458251953125 241.21929931640625" stroke-width="0.0" fill="rgb(158, 37, 197)" opacity="0.10175949" stroke="rgb(0, 0, 0)" stroke-opacity="1.0" stroke-linecap="round" stroke-linejoin="round"/>
    <path d="M 187.14364624023438 352.6913757324219 C 186.10133361816406 352.47564697265625 172.02853393554688 366.2552185058594 163.9953155517578 357.0629577636719 C 162.71739196777344 353.2132263183594 156.31825256347656 350.5970153808594 154.4370880126953 339.37554931640625 C 148.46539306640625 333.9065856933594 154.9609375 304.9055480957031 167.2374267578125 303.300537109375 C 187.38150024414062 316.70660400390625 193.43539428710938 337.0687255859375 187.14364624023438 352.6913757324219" stroke-width="0.0" fill="rgb(66, 172, 255)" opacity="0.7997716" stroke="rgb(0, 0, 0)" stroke-opacity="1.0" stroke-linecap="round" stroke-linejoin="round"/>
    <path d="M 61.82723617553711 455.14007568359375 C 69.23865509033203 473.566650390625 68.35846710205078 471.1359558105469 63.89265060424805 465.8847961425781 C 64.68709564208984 459.9013671875 59.05672073364258 446.3631896972656 53.36713409423828 449.48291015625 C 54.26404571533203 451.30657958984375 55.2625846862793 435.6412658691406 60.18372344970703 442.26177978515625 C 61.415287017822266 434.7593078613281 78.88502502441406 438.5012512207031 61.82723617553711 455.14007568359375" stroke-width="0.0" fill="rgb(0, 0, 178)" opacity="0.0" stroke="rgb(0, 0, 0)" stroke-opacity="1.0" stroke-linecap="round" stroke-linejoin="round"/>
    <path d="M 472.8324890136719 503.7528991699219 C 459.3598327636719 505.1959533691406 424.41619873046875 491.06231689453125 426.4716796875 481.86236572265625 C 433.4149475097656 424.8866271972656 431.3891906738281 446.59820556640625 441.14593505859375 422.8658142089844 C 461.1636047363281 437.5926513671875 421.713623046875 453.8151550292969 465.842041015625 450.5060729980469 C 478.0057373046875 444.47808837890625 475.4415283203125 441.1822509765625 472.8324890136719 503.7528991699219" stroke-width="0.0" fill="rgb(3, 18, 152)" opacity="0.0" stroke="rgb(0, 0, 0)" stroke-opacity="1.0" stroke-linecap="round" stroke-linejoin="round"/>
    <path d="M 238.05271911621094 69.30859375 C 247.3639373779297 107.10002136230469 246.3524932861328 97.8355712890625 194.13636779785156 98.41112518310547 C 184.7407989501953 107.61487579345703 194.09762573242188 91.50100708007812 194.35269165039062 98.8509292602539 C 219.58140563964844 102.24702453613281 228.9699249267578 89.27052307128906 238.0516357421875 51.475730895996094 C 247.1447296142578 41.29461669921875 255.33087158203125 39.54387664794922 238.05271911621094 69.30859375" stroke-width="0.0" fill="rgb(160, 0, 161)" opacity="0.0" stroke="rgb(0, 0, 0)" stroke-opacity="1.0" stroke-linecap="round" stroke-linejoin="round"/>
    <path d="M 130.61111450195312 144.62362670898438 C 81.98844909667969 148.9550323486328 90.35401153564453 164.46240234375 104.56887817382812 122.02816772460938 C 90.84569549560547 127.3106689453125 115.03546905517578 133.0065460205078 125.50659942626953 160.03033447265625 C 98.7453384399414 203.46168518066406 108.52806091308594 163.9968719482422 94.40487670898438 127.16239166259766 C 121.73316192626953 99.28690338134766 132.91372680664062 144.6641387939453 130.61111450195312 144.62362670898438" stroke-width="0.0" fill="rgb(228, 43, 49)" opacity="0.06570894" stroke="rgb(0, 0, 0)" stroke-opacity="1.0" stroke-linecap="round" stroke-linejoin="round"/>
    <path d="M 47.528751373291016 452.1312561035156 C 91.0097885131836 482.0177917480469 76.37145233154297 491.17156982421875 75.4829330444336 473.73291015625 C 71.21937561035156 467.9084167480469 61.501888275146484 453.38714599609375 48.5578727722168 455.7370910644531 C 50.994869232177734 451.1094665527344 61.18489456176758 443.3925476074219 55.01727294921875 432.7972412109375 C 72.13578033447266 437.6803894042969 79.19551086425781 451.3153076171875 47.528751373291016 452.1312561035156" stroke-width="0.0" fill="rgb(0, 3, 184)" opacity="0.001105353" stroke="rgb(0, 0, 0)" stroke-opacity="1.0" stroke-linecap="round" stroke-linejoin="round"/>
    <path d="M 468.3053894042969 484.7530822753906 C 465.9971923828125 495.9367370605469 498.4985656738281 493.1809387207031 511.36553955078125 506.80645751953125 C 458.3695983886719 496.8011474609375 444.7708435058594 507.984619140625 431.0112609863281 497.8720703125 C 461.6952209472656 496.3565673828125 452.3340759277344 471.698974609375 441.902099609375 477.26275634765625 C 462.5899353027344 471.6718444824219 475.3414306640625 476.7555236816406 468.3053894042969 484.7530822753906" stroke-width="0.0" fill="rgb(0, 19, 175)" opacity="0.0044959974" stroke="rgb(0, 0, 0)" stroke-opacity="1.0" stroke-linecap="round" stroke-linejoin="round"/>
    <path d="M 153.36363220214844 34.96869659423828 C 136.80384826660156 43.49074172973633 131.2525177001953 51.762821197509766 144.20022583007812 53.50754928588867 C 145.2140350341797 38.37020492553711 124.9172592163086 21.017723083496094 124.44566345214844 26.47629165649414 C 121.50263977050781 42.06020736694336 129.81410217285156 21.018909454345703 124.35956573486328 22.508394241333008 C 129.84381103515625 37.911170959472656 143.26063537597656 29.85817527770996 153.36363220214844 34.96869659423828" stroke-width="0.0" fill="rgb(123, 58, 207)" opacity="0.0" stroke="rgb(0, 0, 0)" stroke-opacity="1.0" stroke-linecap="round" stroke-linejoin="round"/>
    <path d="M 43.41752624511719 322.5374755859375 C 44.93772888183594 313.203125 30.720932006835938 310.0375671386719 24.070676803588867 346.96160888671875 C 20.402355194091797 353.6242370605469 6.168900012969971 347.1870422363281 -3.4350404739379883 305.22918701171875 C -2.8449361324310303 266.7424011230469 14.00657844543457 277.6141662597656 50.14860153198242 288.1722717285156 C 49.949195861816406 293.3481750488281 43.84568786621094 309.3394775390625 43.41752624511719 322.5374755859375" stroke-width="0.0" fill="rgb(18, 2, 121)" opacity="0.08839193" stroke="rgb(0, 0, 0)" stroke-opacity="1.0" stroke-linecap="round" stroke-linejoin="round"/>
    <path d="M 406.526611328125 452.6170349121094 C 416.1865539550781 434.0223388671875 406.87188720703125 439.0867614746094 407.1301574707031 450.6750793457031 C 368.19158935546875 442.59039306640625 349.704345703125 423.3275451660156 362.9866943359375 410.0851135253906 C 404.5521545410156 420.4559326171875 409.9707946777344 411.8242492675781 370.65765380859375 441.8171691894531 C 394.2119445800781 452.0587463378906 400.68798828125 450.9169921875 406.526611328125 452.6170349121094" stroke-width="0.0" fill="rgb(0, 14, 175)" opacity="0.0" stroke="rgb(0, 0, 0)" stroke-opacity="1.0" stroke-linecap="round" stroke-linejoin="round"/>
    <path d="M 120.0739517211914 440.583740234375 C 110.50049591064453 438.0135192871094 126.74571228027344 445.73907470703125 96.45856475830078 441.3757629394531 C 102.19363403320312 427.66534423828125 94.86670684814453 431.00177001953125 85.3933334350586 418.1125793457031 C 90.47624206542969 418.03387451171875 99.189208984375 422.5869140625 98.173583984375 443.70648193359375 C 100.3132553100586 443.2801818847656 114.78321075439453 433.2430725097656 120.0739517211914 440.583740234375" stroke-width="0.0" fill="rgb(29, 59, 167)" opacity="0.0" stroke="rgb(0, 0, 0)" stroke-opacity="1.0" stroke-linecap="round" stroke-linejoin="round"/>
    <path d="M 288.55242919921875 28.119178771972656 C 257.3696594238281 55.82584762573242 240.04098510742188 71.47496032714844 212.34239196777344 78.9101333618164 C 228.62489318847656 61.32011795043945 239.5116729736328 13.834319114685059 249.03408813476562 27.806686401367188 C 222.45223999023438 30.041566848754883 230.25344848632812 18.684917449951172 255.8984375 5.7018537521362305 C 278.2809143066406 -6.212923049926758 288.79571533203125 -1.5455008745193481 288.55242919921875 28.119178771972656" stroke-width="0.0" fill="rgb(255, 31, 123)" opacity="0.44091982" stroke="rgb(0, 0, 0)" stroke-opacity="1.0" stroke-linecap="round" stroke-linejoin="round"/>
    <path d="M 150.212890625 347.6172790527344 C 132.6724853515625 336.333740234375 105.37202453613281 351.37939453125 89.58292388916016 344.5146484375 C 90.56446075439453 345.0396728515625 84.21127319335938 349.0325927734375 80.77017974853516 308.9685974121094 C 105.2131576538086 324.2635192871094 105.40821838378906 320.85528564453125 103.55648803710938 316.8050537109375 C 143.36538696289062 327.52447509765625 146.4896697998047 305.66864013671875 150.212890625 347.6172790527344" stroke-width="0.0" fill="rgb(88, 255, 41)" opacity="0.0056779594" stroke="rgb(0, 0, 0)" stroke-opacity="1.0" stroke-linecap="round" stroke-linejoin="round"/>
    <path d="M 511.14349365234375 234.1350860595703 C 513.7957763671875 249.65138244628906 496.0662536621094 236.30198669433594 474.2539367675781 226.3459930419922 C 467.8251037597656 236.63526916503906 470.6520080566406 235.15786743164062 482.4666442871094 198.28561401367188 C 464.9302062988281 198.09193420410156 486.3209228515625 220.31982421875 505.32257080078125 201.44479370117188 C 502.70196533203125 203.0507354736328 498.741455078125 218.71005249023438 511.14349365234375 234.1350860595703" stroke-width="0.0" fill="rgb(173, 0, 172)" opacity="0.013007784" stroke="rgb(0, 0, 0)" stroke-opacity="1.0" stroke-linecap="round" stroke-linejoin="round"/>
    <path d="M 523.6322021484375 50.535682678222656 C 512.6961669921875 52.86257553100586 497.87615966796875 70.72455596923828 480.5169982910156 67.12425231933594 C 467.4410705566406 88.25155639648438 450.2718505859375 100.34614562988281 446.54541015625 65.6004638671875 C 477.8874816894531 77.81939697265625 493.9150085449219 70.85543823242188 506.5682067871094 32.97288513183594 C 506.8258972167969 44.766136169433594 518.521240234375 52.888431549072266 523.6322021484375 50.535682678222656" stroke-width="0.0" fill="rgb(160, 37, 144)" opacity="0.0" stroke="rgb(0, 0, 0)" stroke-opacity="1.0" stroke-linecap="round" stroke-linejoin="round"/>
    <path d="M 20.62557029724121 217.11305236816406 C 24.842121124267578 264.45245361328125 10.367020606994629 238.7769775390625 20.823057174682617 212.87294006347656 C -5.11929178237915 227.8107452392578 -9.950360298156738 209.60604858398438 31.453327178955078 214.45420837402344 C 6.529177665710449 201.04360961914062 -3.785784959793091 166.37644958496094 39.80518341064453 194.72763061523438 C 53.14646530151367 184.48904418945312 37.09454345703125 162.89389038085938 20.62557029724121 217.11305236816406" stroke-width="0.0" fill="rgb(163, 0, 115)" opacity="0.071075834" stroke="rgb(0, 0, 0)" stroke-opacity="1.0" stroke-linecap="round" stroke-linejoin="round"/>
    <path d="M 109.5007095336914 337.68060302734375 C 113.90748596191406 298.3839416503906 98.60154724121094 318.5882568359375 86.56130981445312 343.1854248046875 C 63.632232666015625 342.1913757324219 71.04167175292969 346.9464111328125 70.76988983154297 309.336181640625 C 87.35021209716797 314.900146484375 77.52090454101562 284.6663818359375 105.76773071289062 290.76190185546875 C 104.8402328491211 309.4774169921875 115.85044860839844 348.2762145996094 109.5007095336914 337.68060302734375" stroke-width="0.0" fill="rgb(44, 157, 24)" opacity="0.09303057" stroke="rgb(0, 0, 0)" stroke-opacity="1.0" stroke-linecap="round" stroke-linejoin="round"/>
    <path d="M 60.673828125 86.18583679199219 C 36.295921325683594 109.62291717529297 30.430892944335938 113.112060546875 31.416967391967773 108.17095184326172 C 29.485857009887695 112.71503448486328 20.179203033447266 86.06814575195312 19.5602970123291 114.05181884765625 C 20.873287200927734 82.12557983398438 35.584598541259766 34.59149932861328 8.473575592041016 76.45870208740234 C 63.303165435791016 52.36832046508789 53.4185791015625 77.49629211425781 60.673828125 86.18583679199219" stroke-width="0.0" fill="rgb(216, 55, 101)" opacity="0.0" stroke="rgb(0, 0, 0)" stroke-opacity="1.0" stroke-linecap="round" stroke-linejoin="round"/>
    <path d="M 129.66049194335938 161.0831298828125 C 131.88951110839844 161.1876983642578 120.30850219726562 190.03204345703125 116.16152954101562 169.82818603515625 C 137.96127319335938 172.32859802246094 145.02780151367188 181.912841796875 141.58580017089844 174.46510314941406 C 141.64674377441406 172.33299255371094 160.0634002685547 167.03810119628906 123.39122009277344 180.16127014160156 C 162.21066284179688 166.34063720703125 161.6291961669922 157.0511474609375 129.66049194335938 161.0831298828125" stroke-width="0.0" fill="rgb(40, 78, 179)" opacity="0.0" stroke="rgb(0, 0, 0)" stroke-opacity="1.0" stroke-linecap="round" stroke-linejoin="round"/>
    <path d="M 186.4114227294922 350.66094970703125 C 191.7798614501953 382.3298034667969 167.23863220214844 402.5923767089844 119.85516357421875 386.4878234863281 C 142.99722290039062 368.423095703125 143.2486572265625 378.4286193847656 181.38461303710938 372.00872802734375 C 206.73919677734375 389.4495849609375 203.3854522705078 389.5892333984375 216.05601501464844 363.1309509277344 C 185.99624633789062 362.0841979980469 176.04025268554688 366.25042724609375 186.4114227294922 350.66094970703125" stroke-width="0.0" fill="rgb(25, 81, 78)" opacity="0.0" stroke="rgb(0, 0, 0)" stroke-opacity="1.0" stroke-linecap="round" stroke-linejoin="round"/>
    <path d="M 45.261436462402344 192.19935607910156 C 30.399206161499023 197.27955627441406 36.98185348510742 180.664306640625 61.802207946777344 192.95965576171875 C -21.871501922607422 216.19491577148438 -15.885442733764648 221.48294067382812 -25.961544036865234 190.40782165527344 C -16.9566650390625 180.57139587402344 -1.5970734357833862 167.11033630371094 18.62476921081543 135.9930419921875 C 62.78357696533203 139.5670928955078 62.25490188598633 132.84776306152344 45.261436462402344 192.19935607910156" stroke-width="0.0" fill="rgb(166, 0, 144)" opacity="0.0" stroke="rgb(0, 0, 0)" stroke-opacity="1.0" stroke-linecap="round" stroke-linejoin="round"/>
    <path d="M 104.50347137451172 91.50471496582031 C 89.67051696777344 97.6910629272461 67.22095489501953 91.96887969970703 15.166790962219238 93.1509780883789 C 27.52676010131836 53.930606842041016 35.59282684326172 72.67838287353516 11.779946327209473 60.5450553894043 C 15.846151351928711 23.499486923217773 32.79383850097656 28.128686904907227 89.1572036743164 43.60300827026367 C 135.6773681640625 40.513763427734375 118.78641510009766 33.55732727050781 104.50347137451172 91.50471496582031" stroke-width="0.0" fill="rgb(255, 50, 106)" opacity="0.035102945" stroke="rgb(0, 0, 0)" stroke-opacity="1.0" stroke-linecap="round" stroke-linejoin="round"/>
    <path d="M 27.501556396484375 211.70272827148438 C 50.966068267822266 222.0841064453125 68.05789184570312 243.65313720703125 33.87590789794922 252.77352905273438 C 22.997446060180664 215.8289031982422 5.039346694946289 195.3220977783203 37.99152755737305 194.572021484375 C 33.3386116027832 179.06993103027344 32.79094314575195 166.8282470703125 22.319793701171875 167.50665283203125 C 31.135347366333008 159.32469177246094 25.184062957763672 174.50680541992188 27.501556396484375 211.70272827148438" stroke-width="0.0" fill="rgb(132, 13, 37)" opacity="0.06584077" stroke="rgb(0, 0, 0)" stroke-opacity="1.0" stroke-linecap="round" stroke-linejoin="round"/>
    <path d="M 387.82421875 336.8365783691406 C 368.7787170410156 382.7077941894531 353.44549560546875 391.8419189453125 318.72808837890625 374.03466796875 C 290.6546325683594 369.8001403808594 268.2154235839844 365.0228576660156 243.32586669921875 362.83941650390625 C 228.3105926513672 315.5225830078125 256.76605224609375 303.96002197265625 299.8953552246094 313.9764709472656 C 298.6697998046875 332.561279296875 324.5390625 327.60284423828125 387.82421875 336.8365783691406" stroke-width="0.0" fill="rgb(37, 41, 232)" opacity="1.0" stroke="rgb(0, 0, 0)" stroke-opacity="1.0" stroke-linecap="round" stroke-linejoin="round"/>
    <path d="M 409.0574035644531 444.7713928222656 C 349.3210754394531 463.09912109375 315.4391174316406 476.5708923339844 308.1668395996094 452.7457275390625 C 346.15069580078125 417.81683349609375 345.7116394042969 439.82037353515625 383.87420654296875 420.4299011230469 C 368.9950866699219 403.1473388671875 404.987548828125 417.4884033203125 394.4209899902344 422.4208984375 C 405.1429138183594 411.2249450683594 429.7026062011719 415.6772766113281 409.0574035644531 444.7713928222656" stroke-width="0.0" fill="rgb(13, 27, 193)" opacity="0.047586" stroke="rgb(0, 0, 0)" stroke-opacity="1.0" stroke-linecap="round" stroke-linejoin="round"/>
    <path d="M 321.1440734863281 416.42626953125 C 335.6389465332031 409.4690856933594 313.3409423828125 417.23406982421875 361.10943603515625 410.01806640625 C 354.7630615234375 425.96356201171875 296.6035461425781 422.2666320800781 300.9880676269531 407.5358581542969 C 311.416015625 391.44891357421875 340.99896240234375 404.8561706542969 341.9329528808594 384.72027587890625 C 338.31219482421875 395.88873291015625 328.7607727050781 405.42425537109375 321.1440734863281 416.42626953125" stroke-width="0.0" fill="rgb(253, 255, 184)" opacity="0.080984004" stroke="rgb(0, 0, 0)" stroke-opacity="1.0" stroke-linecap="round" stroke-linejoin="round"/>
    <path d="M 489.4154968261719 250.3048095703125 C 496.05426025390625 239.9471893310547 492.0941467285156 251.38316345214844 509.065673828125 248.0140380859375 C 521.2116088867188 222.3802490234375 496.62921142578125 247.83482360839844 487.7169494628906 244.0719757080078 C 486.0411376953125 249.31556701660156 478.4891662597656 248.517822265625 502.14202880859375 247.84103393554688 C 499.6452941894531 225.7168426513672 492.4010009765625 237.3579864501953 489.4154968261719 250.3048095703125" stroke-width="0.0" fill="rgb(104, 19, 169)" opacity="0.006186689" stroke="rgb(0, 0, 0)" stroke-opacity="1.0" stroke-linecap="round" stroke-linejoin="round"/>
    <path d="M 402.345458984375 138.35452270507812 C 430.26300048828125 152.8619384765625 434.55877685546875 142.04246520996094 425.9068908691406 94.70641326904297 C 381.1521301269531 143.8498077392578 395.3060607910156 172.25543212890625 437.50689697265625 143.97755432128906 C 421.65802001953125 101.40460968017578 392.5564880371094 48.264610290527344 377.1156005859375 136.8125457763672 C 444.2906494140625 136.85659790039062 425.43072509765625 136.48760986328125 402.345458984375 138.35452270507812" stroke-width="0.0" fill="rgb(6, 61, 254)" opacity="0.4617874" stroke="rgb(0, 0, 0)" stroke-opacity="1.0" stroke-linecap="round" stroke-linejoin="round"/>
  </g>
</svg>
