<?xml version="1.0" ?>
<svg xmlns="http://www.w3.org/2000/svg" version="1.1" width="512" height="512">
  <defs/>
  <g>
    <path d="M 547.0684204101562 437.0408935546875 C 548.0579833984375 517.3278198242188 548.9373779296875 525.5354614257812 388.2547912597656 533.391357421875 C 323.1524353027344 560.1126098632812 302.0982360839844 557.2489013671875 267.9510803222656 502.27886962890625 C 325.98651123046875 331.76123046875 375.5207214355469 332.3754577636719 485.4918518066406 298.42340087890625 C 575.2294311523438 289.5702819824219 579.6906127929688 304.59326171875 547.0684204101562 437.0408935546875" stroke-width="0.0" fill="rgb(73, 18, 122)" opacity="0.9498399" stroke="rgb(0, 0, 0)" stroke-opacity="1.0" stroke-linecap="round" stroke-linejoin="round"/>
    <path d="M 293.3872375488281 443.57769775390625 C 314.58404541015625 519.4038696289062 318.09002685546875 532.5030517578125 116.99486541748047 535.928955078125 C -51.20000076293945 517.7235107421875 -51.20000076293945 507.83367919921875 -21.774600982666016 449.183837890625 C -18.38620376586914 205.44985961914062 -18.693912506103516 199.01014709472656 -9.230629920959473 240.18649291992188 C 210.5251007080078 299.4944763183594 277.4821472167969 231.46176147460938 293.3872375488281 443.57769775390625" stroke-width="0.0" fill="rgb(133, 22, 19)" opacity="0.9643354" stroke="rgb(0, 0, 0)" stroke-opacity="1.0" stroke-linecap="round" stroke-linejoin="round"/>
    <path d="M 267.2383728027344 304.3130798339844 C 218.17288208007812 423.806640625 225.166259765625 456.91015625 190.5165252685547 385.0682373046875 C 62.179046630859375 351.60516357421875 18.87371063232422 395.7519836425781 21.173099517822266 176.4617919921875 C -10.705582618713379 152.72080993652344 10.625846862792969 153.11770629882812 98.84712982177734 116.08077239990234 C 261.6329040527344 132.1764373779297 279.779052734375 129.42880249023438 267.2383728027344 304.3130798339844" stroke-width="0.0" fill="rgb(85, 47, 67)" opacity="0.4478452" stroke="rgb(0, 0, 0)" stroke-opacity="1.0" stroke-linecap="round" stroke-linejoin="round"/>
    <path d="M 297.16778564453125 38.28022766113281 C 288.7839050292969 225.9949951171875 244.10269165039062 182.07496643066406 47.88277053833008 200.11251831054688 C -22.133211135864258 185.19876098632812 -21.8673152923584 174.73153686523438 -18.482969284057617 52.26426696777344 C -14.989005088806152 -15.722881317138672 -7.218327522277832 -19.66063117980957 114.84432983398438 -52.07657241821289 C 243.57449340820312 -57.63462829589844 292.5826721191406 -81.9432373046875 297.16778564453125 38.28022766113281" stroke-width="0.0" fill="rgb(0, 11, 119)" opacity="0.96171814" stroke="rgb(0, 0, 0)" stroke-opacity="1.0" stroke-linecap="round" stroke-linejoin="round"/>
    <path d="M 546.2028198242188 63.55460739135742 C 448.98455810546875 296.8856201171875 461.9111022949219 312.01434326171875 408.001708984375 304.7251281738281 C 239.077392578125 308.72552490234375 211.84115600585938 329.94329833984375 254.19654846191406 214.60635375976562 C 261.97467041015625 45.160030364990234 200.95301818847656 -14.463288307189941 304.733642578125 -60.710716247558594 C 563.2000122070312 -6.244815349578857 563.2000122070312 4.452378749847412 546.2028198242188 63.55460739135742" stroke-width="0.0" fill="rgb(2, 15, 120)" opacity="0.9585781" stroke="rgb(0, 0, 0)" stroke-opacity="1.0" stroke-linecap="round" stroke-linejoin="round"/>
    <path d="M 484.836669921875 350.7067565917969 C 497.0762939453125 431.3063049316406 507.3087158203125 510.578369140625 298.6883850097656 543.0036010742188 C 208.81057739257812 555.5326538085938 204.05349731445312 519.9171752929688 200.56991577148438 421.005859375 C 196.46200561523438 163.9220428466797 237.3570556640625 180.10816955566406 303.0314636230469 250.80718994140625 C 414.26861572265625 280.2015686035156 461.6473083496094 272.7177734375 484.836669921875 350.7067565917969" stroke-width="0.0" fill="rgb(22, 18, 129)" opacity="1.0" stroke="rgb(0, 0, 0)" stroke-opacity="1.0" stroke-linecap="round" stroke-linejoin="round"/>
    <path d="M 538.6154174804688 205.81956481933594 C 554.3279418945312 315.92486572265625 556.1724853515625 306.3001708984375 500.021728515625 303.1079406738281 C 409.7916259765625 323.7919921875 458.00311279296875 312.2037048339844 411.5141296386719 216.42105102539062 C 417.1122131347656 147.34010314941406 401.8997802734375 89.24176788330078 548.6060180664062 85.28889465332031 C 562.2314453125 81.53736877441406 565.6800537109375 122.3120346069336 538.6154174804688 205.81956481933594" stroke-width="0.0" fill="rgb(36, 23, 118)" opacity="0.99925786" stroke="rgb(0, 0, 0)" stroke-opacity="1.0" stroke-linecap="round" stroke-linejoin="round"/>
    <path d="M 260.64031982421875 247.37918090820312 C 260.603271484375 267.026123046875 280.0372314453125 337.6134338378906 202.40652465820312 385.8825988769531 C 196.87046813964844 325.6500244140625 210.73651123046875 311.11492919921875 184.9805450439453 249.49154663085938 C 145.19456481933594 203.0128631591797 144.0908660888672 216.7460174560547 249.430908203125 196.97084045410156 C 262.7474060058594 196.92715454101562 242.96551513671875 212.81253051757812 260.64031982421875 247.37918090820312" stroke-width="0.0" fill="rgb(0, 0, 147)" opacity="0.92128044" stroke="rgb(0, 0, 0)" stroke-opacity="1.0" stroke-linecap="round" stroke-linejoin="round"/>
    <path d="M 364.05859375 69.26048278808594 C 330.67315673828125 173.8744659423828 300.24249267578125 167.31753540039062 279.0320739746094 138.0233154296875 C 223.92604064941406 115.40691375732422 203.69436645507812 126.18000030517578 189.72604370117188 86.10612487792969 C 203.58009338378906 89.5591812133789 206.3402557373047 73.89749145507812 232.48619079589844 102.87283325195312 C 252.67373657226562 113.47212982177734 301.8250427246094 62.31549072265625 364.05859375 69.26048278808594" stroke-width="0.0" fill="rgb(255, 255, 255)" opacity="1.0" stroke="rgb(0, 0, 0)" stroke-opacity="1.0" stroke-linecap="round" stroke-linejoin="round"/>
    <path d="M 200.5509490966797 336.02301025390625 C 197.2646484375 526.3313598632812 239.6394805908203 519.2904663085938 175.5178680419922 505.9139709472656 C 204.4681854248047 473.0108947753906 194.991455078125 384.17364501953125 148.85101318359375 293.19232177734375 C 225.8614044189453 299.388671875 168.36805725097656 322.7072448730469 146.4805450439453 378.31982421875 C 180.1232147216797 384.8230895996094 187.506103515625 371.37811279296875 200.5509490966797 336.02301025390625" stroke-width="0.0" fill="rgb(255, 255, 0)" opacity="1.0" stroke="rgb(0, 0, 0)" stroke-opacity="1.0" stroke-linecap="round" stroke-linejoin="round"/>
    <path d="M 223.20957946777344 214.52590942382812 C 199.54429626464844 243.5376434326172 196.4472198486328 340.48211669921875 194.43531799316406 333.5423889160156 C 120.4623031616211 324.3018493652344 223.08615112304688 336.01007080078125 189.3412628173828 310.7493591308594 C 26.80469512939453 180.11448669433594 42.87513732910156 162.4293975830078 234.148193359375 81.4228744506836 C 119.62491607666016 207.38006591796875 171.8679962158203 136.83267211914062 223.20957946777344 214.52590942382812" stroke-width="0.0" fill="rgb(255, 255, 30)" opacity="1.0" stroke="rgb(0, 0, 0)" stroke-opacity="1.0" stroke-linecap="round" stroke-linejoin="round"/>
    <path d="M 162.03118896484375 274.2542419433594 C 135.3264923095703 288.918701171875 122.18228912353516 317.28387451171875 127.03425598144531 407.5694274902344 C 121.52198791503906 519.6441040039062 16.978134155273438 535.5903930664062 -104.49813079833984 413.99346923828125 C -67.24246215820312 65.525146484375 -51.45406723022461 101.01065826416016 103.51094055175781 102.70034790039062 C 166.33204650878906 186.52359008789062 172.8251190185547 225.35560607910156 162.03118896484375 274.2542419433594" stroke-width="0.0" fill="rgb(0, 17, 124)" opacity="1.0" stroke="rgb(0, 0, 0)" stroke-opacity="1.0" stroke-linecap="round" stroke-linejoin="round"/>
    <path d="M 250.4899139404297 39.6119384765625 C 229.71697998046875 104.12288665771484 237.64773559570312 98.3000717163086 168.5182647705078 78.05049896240234 C 126.5528564453125 87.93762969970703 84.07449340820312 131.63711547851562 75.20435333251953 66.3150634765625 C 71.06047821044922 -45.241188049316406 78.04755401611328 -44.37538528442383 215.61972045898438 -63.972023010253906 C 227.84310913085938 -22.292966842651367 200.25289916992188 27.64156723022461 250.4899139404297 39.6119384765625" stroke-width="0.0" fill="rgb(0, 1, 125)" opacity="0.9675188" stroke="rgb(0, 0, 0)" stroke-opacity="1.0" stroke-linecap="round" stroke-linejoin="round"/>
    <path d="M 265.32562255859375 160.49130249023438 C 325.4800109863281 289.7509765625 324.71044921875 308.4952087402344 197.0771942138672 277.1685791015625 C 156.0780029296875 180.33297729492188 306.2650146484375 193.45175170898438 225.42446899414062 126.1486587524414 C 258.57196044921875 42.7059440612793 290.7427062988281 118.00314331054688 305.7306213378906 161.19796752929688 C 266.4899597167969 173.0889434814453 253.74606323242188 149.64306640625 265.32562255859375 160.49130249023438" stroke-width="0.0" fill="rgb(255, 255, 0)" opacity="1.0" stroke="rgb(0, 0, 0)" stroke-opacity="1.0" stroke-linecap="round" stroke-linejoin="round"/>
    <path d="M 91.56914520263672 319.7749328613281 C 90.4256362915039 315.7236328125 133.4364471435547 336.7126159667969 115.81925964355469 352.4981994628906 C 121.14873504638672 328.4535217285156 102.72881317138672 320.3911437988281 80.36056518554688 328.2211608886719 C 81.72660064697266 310.2217102050781 83.0648193359375 311.4765319824219 80.47744750976562 344.8022766113281 C 91.35189819335938 405.6116638183594 61.29143524169922 283.60028076171875 91.56914520263672 319.7749328613281" stroke-width="0.0" fill="rgb(107, 194, 108)" opacity="0.58500075" stroke="rgb(0, 0, 0)" stroke-opacity="1.0" stroke-linecap="round" stroke-linejoin="round"/>
    <path d="M 234.03509521484375 52.25638961791992 C 234.6387176513672 123.36122131347656 163.19166564941406 119.46574401855469 223.8781280517578 125.1534194946289 C 252.4003143310547 41.36518859863281 259.5945739746094 147.76905822753906 217.3536834716797 86.45127868652344 C 278.4376525878906 144.5463104248047 259.1639099121094 69.22071838378906 267.3639221191406 11.03645133972168 C 198.28179931640625 4.390293598175049 239.3540802001953 21.35186767578125 234.03509521484375 52.25638961791992" stroke-width="0.0" fill="rgb(255, 248, 0)" opacity="1.0" stroke="rgb(0, 0, 0)" stroke-opacity="1.0" stroke-linecap="round" stroke-linejoin="round"/>
    <path d="M 249.45184326171875 465.2137756347656 C 273.9255065917969 460.8177185058594 252.04449462890625 453.9739074707031 249.1863250732422 454.66778564453125 C 236.33897399902344 451.1982727050781 228.1746826171875 485.70245361328125 201.55067443847656 484.7712097167969 C 198.96107482910156 279.4524230957031 198.7455291748047 320.20440673828125 204.99598693847656 459.3977966308594 C 295.35894775390625 451.52496337890625 270.8147277832031 443.7500305175781 249.45184326171875 465.2137756347656" stroke-width="0.0" fill="rgb(198, 124, 160)" opacity="0.0" stroke="rgb(0, 0, 0)" stroke-opacity="1.0" stroke-linecap="round" stroke-linejoin="round"/>
    <path d="M 176.21359252929688 280.8172912597656 C 165.2003936767578 257.6217956542969 154.3260040283203 287.108154296875 179.91384887695312 312.43450927734375 C 211.18307495117188 279.9769592285156 205.6220703125 285.2048645019531 129.77088928222656 311.2627868652344 C 144.7145538330078 289.94757080078125 132.42483520507812 314.0558776855469 141.97305297851562 265.9389343261719 C 146.58787536621094 278.45428466796875 147.3403778076172 285.70867919921875 176.21359252929688 280.8172912597656" stroke-width="0.0" fill="rgb(255, 255, 11)" opacity="1.0" stroke="rgb(0, 0, 0)" stroke-opacity="1.0" stroke-linecap="round" stroke-linejoin="round"/>
    <path d="M 252.5900115966797 85.14075469970703 C 256.4957580566406 158.29319763183594 251.92575073242188 163.3706512451172 187.98768615722656 156.83551025390625 C 110.66455078125 157.1425018310547 135.44052124023438 123.11658477783203 169.6776123046875 114.99720001220703 C 189.611328125 97.65634155273438 183.21690368652344 73.911376953125 194.81056213378906 75.0075912475586 C 191.15695190429688 70.87684631347656 189.07525634765625 93.46165466308594 252.5900115966797 85.14075469970703" stroke-width="0.0" fill="rgb(255, 244, 43)" opacity="0.94666284" stroke="rgb(0, 0, 0)" stroke-opacity="1.0" stroke-linecap="round" stroke-linejoin="round"/>
    <path d="M 365.2681579589844 274.6769714355469 C 356.84210205078125 303.1089782714844 360.8731384277344 289.9308166503906 340.70819091796875 271.42181396484375 C 289.78302001953125 279.1890563964844 305.01971435546875 286.0567932128906 294.3232421875 221.73863220214844 C 306.34112548828125 247.53475952148438 316.98114013671875 242.96475219726562 346.79083251953125 248.04827880859375 C 362.74688720703125 232.5228729248047 353.523193359375 237.0736846923828 365.2681579589844 274.6769714355469" stroke-width="0.0" fill="rgb(54, 21, 167)" opacity="0.46072125" stroke="rgb(0, 0, 0)" stroke-opacity="1.0" stroke-linecap="round" stroke-linejoin="round"/>
    <path d="M 160.38772583007812 271.6257629394531 C 177.9113006591797 276.3753356933594 160.72406005859375 294.9352111816406 152.37269592285156 275.1138000488281 C 175.4453125 280.7105407714844 148.3831024169922 297.3740539550781 139.0618133544922 288.56658935546875 C 138.5161590576172 247.4578094482422 149.43545532226562 235.95159912109375 157.3682861328125 138.8924102783203 C 225.6002197265625 216.71435546875 183.4498748779297 231.19390869140625 160.38772583007812 271.6257629394531" stroke-width="0.0" fill="rgb(255, 255, 0)" opacity="1.0" stroke="rgb(0, 0, 0)" stroke-opacity="1.0" stroke-linecap="round" stroke-linejoin="round"/>
    <path d="M 220.24166870117188 95.07312774658203 C 207.9852294921875 125.37100982666016 219.9733428955078 146.72613525390625 171.85975646972656 149.98199462890625 C 186.0867462158203 110.72838592529297 182.54977416992188 87.18684387207031 170.98106384277344 48.341209411621094 C 137.66343688964844 28.137121200561523 180.21717834472656 -6.012392044067383 201.4731903076172 18.317031860351562 C 192.9816436767578 39.580997467041016 210.8446044921875 75.14712524414062 220.24166870117188 95.07312774658203" stroke-width="0.0" fill="rgb(255, 255, 0)" opacity="1.0" stroke="rgb(0, 0, 0)" stroke-opacity="1.0" stroke-linecap="round" stroke-linejoin="round"/>
    <path d="M 288.3492736816406 448.9652099609375 C 278.3941955566406 449.3404541015625 264.12255859375 442.2032775878906 253.0779571533203 449.8269348144531 C 238.7327117919922 481.63226318359375 228.8842315673828 482.5032958984375 212.11769104003906 485.72735595703125 C 204.7286834716797 439.58966064453125 217.84176635742188 458.0920715332031 240.41436767578125 444.8206787109375 C 261.58587646484375 446.29595947265625 275.3711242675781 447.5082702636719 288.3492736816406 448.9652099609375" stroke-width="0.0" fill="rgb(1, 10, 210)" opacity="0.9972315" stroke="rgb(0, 0, 0)" stroke-opacity="1.0" stroke-linecap="round" stroke-linejoin="round"/>
    <path d="M 389.451171875 241.81494140625 C 397.294189453125 226.92323303222656 384.5671081542969 228.54348754882812 320.0305480957031 219.31724548339844 C 297.27313232421875 259.9833984375 301.18756103515625 264.9388732910156 280.86419677734375 235.96572875976562 C 285.11492919921875 238.2566680908203 309.91650390625 229.84133911132812 367.9182434082031 219.83155822753906 C 409.72943115234375 220.96629333496094 368.18902587890625 258.8733825683594 389.451171875 241.81494140625" stroke-width="0.0" fill="rgb(61, 0, 165)" opacity="0.0" stroke="rgb(0, 0, 0)" stroke-opacity="1.0" stroke-linecap="round" stroke-linejoin="round"/>
    <path d="M 168.024658203125 130.6298828125 C 163.54388427734375 159.8419952392578 146.2477569580078 168.59127807617188 130.9524688720703 160.50233459472656 C 112.052978515625 168.26165771484375 87.6550064086914 167.6216583251953 72.384033203125 141.54559326171875 C 46.60374450683594 94.56962585449219 19.75181770324707 42.75881576538086 74.14427185058594 68.5265884399414 C 157.38897705078125 73.06275939941406 146.0592498779297 108.12751007080078 168.024658203125 130.6298828125" stroke-width="0.0" fill="rgb(255, 255, 241)" opacity="1.0" stroke="rgb(0, 0, 0)" stroke-opacity="1.0" stroke-linecap="round" stroke-linejoin="round"/>
    <path d="M 165.68658447265625 412.6992492675781 C 175.8241729736328 439.4465026855469 150.75326538085938 447.0458679199219 137.27566528320312 444.42401123046875 C 125.17401123046875 423.6935729980469 121.27622985839844 416.1009216308594 126.2799301147461 366.1053161621094 C 132.2996826171875 336.2334289550781 108.41862487792969 342.36688232421875 153.5343017578125 362.42047119140625 C 115.23155212402344 314.8050537109375 132.54579162597656 338.7550964355469 165.68658447265625 412.6992492675781" stroke-width="0.0" fill="rgb(255, 246, 9)" opacity="0.9870242" stroke="rgb(0, 0, 0)" stroke-opacity="1.0" stroke-linecap="round" stroke-linejoin="round"/>
    <path d="M 137.93162536621094 423.1470642089844 C 155.1053924560547 536.8907470703125 200.82833862304688 506.2410888671875 70.99390411376953 516.836181640625 C 85.2001953125 487.373779296875 87.64970397949219 481.2908935546875 82.90419006347656 466.576416015625 C 83.82064819335938 481.3122863769531 90.00594329833984 510.4933166503906 118.5775375366211 487.4742126464844 C 144.04666137695312 384.29315185546875 120.34762573242188 357.6871032714844 137.93162536621094 423.1470642089844" stroke-width="0.0" fill="rgb(255, 188, 10)" opacity="0.95818156" stroke="rgb(0, 0, 0)" stroke-opacity="1.0" stroke-linecap="round" stroke-linejoin="round"/>
    <path d="M 132.6167449951172 132.29588317871094 C 109.34976196289062 133.6334228515625 106.70187377929688 116.43594360351562 129.3194580078125 125.59952545166016 C 92.08564758300781 135.795166015625 113.61137390136719 152.64028930664062 152.479248046875 131.18185424804688 C 120.48487854003906 116.31954956054688 122.53841400146484 131.48109436035156 110.57264709472656 140.55796813964844 C 67.98899841308594 76.272705078125 95.3878402709961 94.03766632080078 132.6167449951172 132.29588317871094" stroke-width="0.0" fill="rgb(0, 0, 22)" opacity="1.0" stroke="rgb(0, 0, 0)" stroke-opacity="1.0" stroke-linecap="round" stroke-linejoin="round"/>
    <path d="M 96.47270965576172 134.1673583984375 C 109.6275863647461 144.1764373779297 75.8848876953125 138.80271911621094 49.29374313354492 159.22052001953125 C 26.17559814453125 142.1676483154297 29.39650535583496 130.82867431640625 24.17963981628418 139.5407257080078 C 35.55387878417969 131.02561950683594 49.57908248901367 124.57173156738281 35.86457443237305 133.0510711669922 C 47.20538330078125 127.45401000976562 60.43952941894531 122.6607666015625 96.47270965576172 134.1673583984375" stroke-width="0.0" fill="rgb(29, 1, 200)" opacity="0.0" stroke="rgb(0, 0, 0)" stroke-opacity="1.0" stroke-linecap="round" stroke-linejoin="round"/>
    <path d="M 34.47958755493164 317.8053894042969 C 43.295310974121094 335.9910583496094 36.41547393798828 320.8760681152344 45.865116119384766 329.58270263671875 C 23.86941909790039 342.0159606933594 40.5659294128418 304.0293273925781 51.2596321105957 313.9529724121094 C 60.09434127807617 312.2450866699219 46.35184860229492 332.642333984375 47.58517837524414 318.36480712890625 C 30.80137062072754 326.1557312011719 17.37443733215332 318.8527526855469 34.47958755493164 317.8053894042969" stroke-width="0.0" fill="rgb(5, 44, 164)" opacity="0.14903055" stroke="rgb(0, 0, 0)" stroke-opacity="1.0" stroke-linecap="round" stroke-linejoin="round"/>
    <path d="M 380.29547119140625 232.65869140625 C 412.8454284667969 292.526123046875 414.1425476074219 332.0431823730469 354.2129211425781 322.0904541015625 C 318.9643859863281 313.3651123046875 319.7541809082031 303.47491455078125 308.7315673828125 286.83270263671875 C 280.2568054199219 272.047119140625 301.6138610839844 185.3332977294922 322.58026123046875 228.91574096679688 C 343.7815856933594 250.48085021972656 373.166748046875 230.56187438964844 380.29547119140625 232.65869140625" stroke-width="0.0" fill="rgb(254, 232, 5)" opacity="0.9894388" stroke="rgb(0, 0, 0)" stroke-opacity="1.0" stroke-linecap="round" stroke-linejoin="round"/>
    <path d="M 172.7936248779297 208.38851928710938 C 179.78558349609375 282.48614501953125 188.8392333984375 295.97979736328125 166.9116973876953 293.28204345703125 C 141.9782257080078 268.3032531738281 166.7269744873047 261.9580993652344 154.29608154296875 275.3922424316406 C 158.9010772705078 251.90452575683594 175.13192749023438 252.24087524414062 223.54115295410156 248.74319458007812 C 205.7901153564453 199.3966827392578 152.0331573486328 199.95651245117188 172.7936248779297 208.38851928710938" stroke-width="0.0" fill="rgb(77, 4, 68)" opacity="0.95103" stroke="rgb(0, 0, 0)" stroke-opacity="1.0" stroke-linecap="round" stroke-linejoin="round"/>
    <path d="M 209.12818908691406 281.26519775390625 C 220.97610473632812 286.84393310546875 210.35040283203125 293.9285888671875 148.4425811767578 272.9371643066406 C 165.61773681640625 256.073486328125 150.13864135742188 256.2771301269531 168.81607055664062 258.5097961425781 C 201.8973846435547 274.96923828125 216.0532989501953 288.8431396484375 177.12164306640625 240.9925537109375 C 222.8480224609375 211.73362731933594 232.55247497558594 215.6905059814453 209.12818908691406 281.26519775390625" stroke-width="0.0" fill="rgb(81, 6, 144)" opacity="0.24138348" stroke="rgb(0, 0, 0)" stroke-opacity="1.0" stroke-linecap="round" stroke-linejoin="round"/>
    <path d="M 195.763427734375 349.9742431640625 C 183.00929260253906 338.62847900390625 169.57412719726562 351.45916748046875 153.72552490234375 359.9508972167969 C 176.54745483398438 349.678955078125 165.0432891845703 299.3172302246094 157.80284118652344 314.0071105957031 C 153.60325622558594 336.98309326171875 171.3983917236328 343.95208740234375 161.76271057128906 315.5687255859375 C 197.35044860839844 318.8218688964844 200.0811309814453 325.88787841796875 195.763427734375 349.9742431640625" stroke-width="0.0" fill="rgb(114, 76, 0)" opacity="0.32114607" stroke="rgb(0, 0, 0)" stroke-opacity="1.0" stroke-linecap="round" stroke-linejoin="round"/>
    <path d="M 79.56150817871094 121.55716705322266 C 98.71699523925781 168.349609375 106.31099700927734 150.14671325683594 100.13055419921875 148.83665466308594 C 74.79825592041016 163.50328063964844 53.07246780395508 167.09002685546875 44.725765228271484 142.01190185546875 C 53.80392837524414 113.81336212158203 57.319061279296875 103.78485107421875 88.96271514892578 91.77362823486328 C 92.3393783569336 80.65525817871094 86.03205871582031 87.58077239990234 79.56150817871094 121.55716705322266" stroke-width="0.0" fill="rgb(6, 28, 232)" opacity="0.0" stroke="rgb(0, 0, 0)" stroke-opacity="1.0" stroke-linecap="round" stroke-linejoin="round"/>
    <path d="M 47.73593521118164 135.2924346923828 C 57.0156135559082 100.56849670410156 13.293608665466309 132.43515014648438 26.62119483947754 137.68704223632812 C 40.25443649291992 124.25689697265625 -15.585990905761719 124.0149154663086 -24.840068817138672 118.02803802490234 C -4.132436752319336 100.15143585205078 24.006010055541992 102.64862060546875 27.093486785888672 115.830322265625 C 14.727075576782227 117.80180358886719 43.62815475463867 122.43742370605469 47.73593521118164 135.2924346923828" stroke-width="0.0" fill="rgb(0, 6, 123)" opacity="0.0" stroke="rgb(0, 0, 0)" stroke-opacity="1.0" stroke-linecap="round" stroke-linejoin="round"/>
    <path d="M 149.17445373535156 165.5640869140625 C 161.07760620117188 206.75428771972656 163.37884521484375 199.5703582763672 170.4944610595703 161.76502990722656 C 138.13687133789062 183.5386199951172 118.43522644042969 173.25326538085938 116.53358459472656 189.07997131347656 C 157.77793884277344 162.06234741210938 161.14541625976562 130.5911407470703 140.28684997558594 122.01222229003906 C 102.7649154663086 113.15245819091797 121.06532287597656 138.46292114257812 149.17445373535156 165.5640869140625" stroke-width="0.0" fill="rgb(0, 0, 75)" opacity="0.0" stroke="rgb(0, 0, 0)" stroke-opacity="1.0" stroke-linecap="round" stroke-linejoin="round"/>
    <path d="M 369.68109130859375 241.05335998535156 C 382.9112243652344 223.58287048339844 363.3809814453125 236.0192413330078 351.2906799316406 271.94061279296875 C 319.9788513183594 258.8935852050781 296.220703125 260.81298828125 350.7451171875 247.94467163085938 C 359.0281982421875 199.58782958984375 324.65570068359375 204.55038452148438 312.2035827636719 193.84645080566406 C 368.1229248046875 189.63209533691406 377.02056884765625 189.58168029785156 369.68109130859375 241.05335998535156" stroke-width="0.0" fill="rgb(252, 208, 6)" opacity="0.6635111" stroke="rgb(0, 0, 0)" stroke-opacity="1.0" stroke-linecap="round" stroke-linejoin="round"/>
    <path d="M 331.83514404296875 190.10891723632812 C 299.3275146484375 264.4817199707031 327.2144470214844 304.06134033203125 273.40252685546875 273.64764404296875 C 257.9389343261719 183.34225463867188 251.30613708496094 198.29010009765625 295.9779052734375 196.81007385253906 C 273.2679443359375 169.336669921875 227.53225708007812 176.7819061279297 286.9090576171875 122.95584106445312 C 315.53179931640625 133.09767150878906 291.686767578125 155.78770446777344 331.83514404296875 190.10891723632812" stroke-width="0.0" fill="rgb(254, 251, 2)" opacity="0.94657177" stroke="rgb(0, 0, 0)" stroke-opacity="1.0" stroke-linecap="round" stroke-linejoin="round"/>
    <path d="M 167.2717742919922 -10.469050407409668 C 158.74539184570312 35.317440032958984 160.53939819335938 48.91633605957031 139.85885620117188 51.04460906982422 C 120.7940444946289 62.09809875488281 80.43781280517578 34.57493591308594 63.96846008300781 48.323883056640625 C 53.44170379638672 6.358436107635498 64.00027465820312 18.479053497314453 129.3858642578125 28.78952407836914 C 167.3335418701172 32.28564453125 166.38885498046875 39.8620491027832 167.2717742919922 -10.469050407409668" stroke-width="0.0" fill="rgb(0, 50, 59)" opacity="0.14464305" stroke="rgb(0, 0, 0)" stroke-opacity="1.0" stroke-linecap="round" stroke-linejoin="round"/>
    <path d="M 79.18754577636719 330.3172302246094 C 52.097713470458984 321.7962646484375 39.1649284362793 344.209716796875 48.59370422363281 340.43414306640625 C 32.16341018676758 338.153076171875 27.98792839050293 339.67425537109375 34.1258659362793 310.73052978515625 C 26.080774307250977 331.8573303222656 36.14063262939453 325.6409606933594 9.174572944641113 322.0905456542969 C 57.45332717895508 309.62591552734375 78.09891510009766 284.7454528808594 79.18754577636719 330.3172302246094" stroke-width="0.0" fill="rgb(4, 38, 76)" opacity="0.34229" stroke="rgb(0, 0, 0)" stroke-opacity="1.0" stroke-linecap="round" stroke-linejoin="round"/>
    <path d="M 243.6865234375 53.05366897583008 C 245.32144165039062 46.965370178222656 240.77066040039062 54.15394973754883 249.7902374267578 51.8634147644043 C 243.1429901123047 23.85038185119629 238.96270751953125 27.584753036499023 217.44049072265625 41.77568435668945 C 230.17904663085938 37.55707550048828 254.1300506591797 38.09500503540039 256.9828796386719 30.783733367919922 C 234.10302734375 47.98137664794922 241.40625 32.70471954345703 243.6865234375 53.05366897583008" stroke-width="0.0" fill="rgb(53, 71, 15)" opacity="0.0" stroke="rgb(0, 0, 0)" stroke-opacity="1.0" stroke-linecap="round" stroke-linejoin="round"/>
    <path d="M 124.94599151611328 370.9227600097656 C 120.95500183105469 299.27801513671875 145.9451446533203 349.32891845703125 124.28813171386719 408.9557189941406 C 99.23721313476562 382.64190673828125 110.0726547241211 344.3012390136719 87.61617279052734 324.024658203125 C 103.9485092163086 313.95703125 112.43806457519531 324.0787353515625 109.71485900878906 301.7010803222656 C 130.50352478027344 256.9880065917969 144.06434631347656 306.5411376953125 124.94599151611328 370.9227600097656" stroke-width="0.0" fill="rgb(0, 20, 146)" opacity="0.9577324" stroke="rgb(0, 0, 0)" stroke-opacity="1.0" stroke-linecap="round" stroke-linejoin="round"/>
    <path d="M 211.3706512451172 377.4035949707031 C 201.5318603515625 396.3518371582031 192.3460235595703 376.4056396484375 180.05621337890625 373.13787841796875 C 166.267822265625 406.3320617675781 157.6974334716797 388.2010498046875 154.36868286132812 357.5237731933594 C 130.13412475585938 357.3031921386719 137.30862426757812 338.5835266113281 186.0054473876953 349.68157958984375 C 185.89273071289062 357.7799377441406 211.7452392578125 376.0843200683594 211.3706512451172 377.4035949707031" stroke-width="0.0" fill="rgb(156, 41, 56)" opacity="0.07972079" stroke="rgb(0, 0, 0)" stroke-opacity="1.0" stroke-linecap="round" stroke-linejoin="round"/>
    <path d="M 50.80086898803711 177.5032501220703 C 40.858707427978516 182.8639373779297 49.413333892822266 212.71554565429688 34.11898422241211 195.20770263671875 C 27.664884567260742 178.5303497314453 16.753307342529297 160.79461669921875 31.5933837890625 189.51780700683594 C 24.17955780029297 196.5955810546875 35.193050384521484 187.3121337890625 37.71675491333008 175.34243774414062 C 51.70504379272461 179.53309631347656 45.333499908447266 182.19334411621094 50.80086898803711 177.5032501220703" stroke-width="0.0" fill="rgb(0, 16, 144)" opacity="0.002493514" stroke="rgb(0, 0, 0)" stroke-opacity="1.0" stroke-linecap="round" stroke-linejoin="round"/>
    <path d="M 462.57177734375 278.83026123046875 C 442.2847900390625 343.9788818359375 444.616943359375 333.5989990234375 427.38226318359375 297.5269775390625 C 430.1221923828125 307.8402404785156 412.3326721191406 289.4473876953125 415.4446105957031 276.0306091308594 C 423.2774658203125 251.63174438476562 417.0435791015625 278.1398010253906 428.9206237792969 269.0130310058594 C 443.20404052734375 256.5688781738281 455.6449279785156 257.94097900390625 462.57177734375 278.83026123046875" stroke-width="0.0" fill="rgb(33, 8, 154)" opacity="0.07225395" stroke="rgb(0, 0, 0)" stroke-opacity="1.0" stroke-linecap="round" stroke-linejoin="round"/>
    <path d="M 11.012042045593262 112.36710357666016 C 68.74524688720703 119.96068572998047 42.51020050048828 123.07074737548828 12.56623363494873 124.34514617919922 C -9.659244537353516 134.8572235107422 -18.704710006713867 136.19737243652344 5.526499271392822 149.69776916503906 C 15.246116638183594 135.64260864257812 29.429729461669922 115.58422088623047 -13.844687461853027 122.0404281616211 C 14.339491844177246 141.3345489501953 44.86528778076172 140.63796997070312 11.012042045593262 112.36710357666016" stroke-width="0.0" fill="rgb(0, 0, 152)" opacity="0.0026842137" stroke="rgb(0, 0, 0)" stroke-opacity="1.0" stroke-linecap="round" stroke-linejoin="round"/>
    <path d="M 531.8228759765625 245.9668426513672 C 525.7208251953125 250.5249786376953 525.0156860351562 252.9954376220703 521.980224609375 259.48974609375 C 511.2854309082031 260.6088562011719 505.73388671875 249.01499938964844 492.37841796875 235.7442626953125 C 494.0388488769531 252.08920288085938 491.661376953125 238.09559631347656 486.45208740234375 234.2867889404297 C 502.3782043457031 238.43655395507812 520.541015625 240.0827178955078 531.8228759765625 245.9668426513672" stroke-width="0.0" fill="rgb(38, 14, 97)" opacity="0.024370946" stroke="rgb(0, 0, 0)" stroke-opacity="1.0" stroke-linecap="round" stroke-linejoin="round"/>
    <path d="M 276.42156982421875 119.78076171875 C 241.83615112304688 128.6935577392578 251.4228515625 135.44332885742188 218.36585998535156 95.56558990478516 C 209.9778594970703 108.53207397460938 204.76731872558594 113.93694305419922 207.97030639648438 94.68609619140625 C 235.97122192382812 115.72455596923828 258.5613708496094 111.45938110351562 259.3284606933594 53.79921340942383 C 261.5060729980469 48.93911361694336 273.3293151855469 74.11715698242188 276.42156982421875 119.78076171875" stroke-width="0.0" fill="rgb(237, 237, 0)" opacity="1.0" stroke="rgb(0, 0, 0)" stroke-opacity="1.0" stroke-linecap="round" stroke-linejoin="round"/>
    <path d="M 456.6319580078125 254.38108825683594 C 420.4588623046875 259.5838928222656 387.3777160644531 251.73318481445312 429.3702697753906 246.99632263183594 C 453.79949951171875 281.0818786621094 433.5210876464844 270.2405090332031 420.56756591796875 272.33795166015625 C 399.9571228027344 280.7701721191406 418.989013671875 268.223388671875 436.7559509277344 251.4712371826172 C 420.03363037109375 253.21453857421875 435.8600158691406 240.0381622314453 456.6319580078125 254.38108825683594" stroke-width="0.0" fill="rgb(47, 22, 136)" opacity="0.030455729" stroke="rgb(0, 0, 0)" stroke-opacity="1.0" stroke-linecap="round" stroke-linejoin="round"/>
    <path d="M 501.5955505371094 109.29524993896484 C 483.29742431640625 135.88587951660156 463.50982666015625 156.12176513671875 454.27978515625 174.0217742919922 C 463.3436279296875 146.04098510742188 463.1999206542969 159.33213806152344 496.37200927734375 160.29534912109375 C 494.20428466796875 80.70394134521484 481.29779052734375 70.84813690185547 423.83660888671875 74.52680206298828 C 472.58038330078125 129.91981506347656 485.7259521484375 144.18943786621094 501.5955505371094 109.29524993896484" stroke-width="0.0" fill="rgb(19, 46, 115)" opacity="0.071980886" stroke="rgb(0, 0, 0)" stroke-opacity="1.0" stroke-linecap="round" stroke-linejoin="round"/>
    <path d="M 533.3302001953125 169.5556640625 C 534.6619262695312 179.47654724121094 525.4314575195312 181.75070190429688 524.1171875 173.14849853515625 C 532.9776000976562 145.0601043701172 506.9934997558594 152.54469299316406 523.5286254882812 160.10060119628906 C 519.8211669921875 132.90423583984375 511.51312255859375 137.5770721435547 520.5911865234375 146.50994873046875 C 517.5389404296875 140.8603973388672 520.7774658203125 149.56753540039062 533.3302001953125 169.5556640625" stroke-width="0.0" fill="rgb(73, 11, 78)" opacity="0.19179569" stroke="rgb(0, 0, 0)" stroke-opacity="1.0" stroke-linecap="round" stroke-linejoin="round"/>
    <path d="M 64.75128936767578 357.25860595703125 C 85.35617065429688 362.7670593261719 86.59807586669922 392.9327697753906 83.9486312866211 362.8315124511719 C 33.25471878051758 390.1523132324219 48.113739013671875 368.7821044921875 45.553924560546875 350.4555969238281 C 24.900060653686523 340.1116943359375 44.46012878417969 322.2419738769531 56.17923355102539 332.5688171386719 C 59.981563568115234 337.1849365234375 61.50043487548828 359.2540283203125 64.75128936767578 357.25860595703125" stroke-width="0.0" fill="rgb(0, 27, 96)" opacity="0.058771163" stroke="rgb(0, 0, 0)" stroke-opacity="1.0" stroke-linecap="round" stroke-linejoin="round"/>
    <path d="M 326.5519714355469 241.2716522216797 C 315.8046875 255.87232971191406 291.8204040527344 247.21702575683594 317.2042541503906 249.40635681152344 C 310.32659912109375 274.5101623535156 301.35498046875 278.18182373046875 327.33441162109375 254.78326416015625 C 296.7395324707031 250.19656372070312 298.27972412109375 254.4086151123047 353.8341979980469 252.52520751953125 C 337.1330871582031 258.5315856933594 320.2270202636719 244.76918029785156 326.5519714355469 241.2716522216797" stroke-width="0.0" fill="rgb(143, 40, 232)" opacity="0.0014690586" stroke="rgb(0, 0, 0)" stroke-opacity="1.0" stroke-linecap="round" stroke-linejoin="round"/>
    <path d="M 485.8683776855469 121.98003387451172 C 512.9266967773438 139.69969177246094 490.4007263183594 163.58517456054688 519.1774291992188 126.18362426757812 C 520.9786987304688 158.3341522216797 490.80328369140625 172.00381469726562 491.51702880859375 152.402587890625 C 483.2079162597656 138.84019470214844 505.12799072265625 138.77610778808594 517.5074462890625 105.83049774169922 C 488.5662536621094 93.89634704589844 484.2827453613281 116.34882354736328 485.8683776855469 121.98003387451172" stroke-width="0.0" fill="rgb(30, 29, 114)" opacity="0.011083017" stroke="rgb(0, 0, 0)" stroke-opacity="1.0" stroke-linecap="round" stroke-linejoin="round"/>
    <path d="M 471.5128479003906 451.5609436035156 C 478.2076721191406 487.414306640625 488.6709289550781 489.5325927734375 466.8697204589844 496.57452392578125 C 459.3665771484375 472.00958251953125 449.76385498046875 441.6731872558594 450.2557373046875 449.6979064941406 C 477.16265869140625 424.653564453125 494.61895751953125 394.31439208984375 496.0241394042969 437.5283508300781 C 457.5413818359375 455.239013671875 486.85394287109375 459.3018798828125 471.5128479003906 451.5609436035156" stroke-width="0.0" fill="rgb(72, 52, 85)" opacity="0.0028186045" stroke="rgb(0, 0, 0)" stroke-opacity="1.0" stroke-linecap="round" stroke-linejoin="round"/>
    <path d="M 513.437255859375 369.310791015625 C 521.9794311523438 417.9154357910156 508.44024658203125 406.4484558105469 498.1272888183594 376.86285400390625 C 480.17254638671875 375.0578308105469 468.7020263671875 380.5853576660156 471.93939208984375 374.5530090332031 C 460.6135559082031 347.9201965332031 469.4356384277344 357.02685546875 490.227294921875 352.3351135253906 C 511.2032470703125 357.6752624511719 526.5079345703125 363.9059143066406 513.437255859375 369.310791015625" stroke-width="0.0" fill="rgb(47, 48, 69)" opacity="0.0020712146" stroke="rgb(0, 0, 0)" stroke-opacity="1.0" stroke-linecap="round" stroke-linejoin="round"/>
    <path d="M 158.2578582763672 447.9725036621094 C 173.5916290283203 478.6637268066406 204.31784057617188 463.6573181152344 184.54678344726562 424.3114318847656 C 160.3882598876953 433.2744140625 166.8188934326172 430.0221862792969 176.87136840820312 444.5235290527344 C 173.7611541748047 443.2154235839844 173.75286865234375 421.89044189453125 173.4510955810547 396.80206298828125 C 169.6886749267578 424.35888671875 177.00474548339844 442.61480712890625 158.2578582763672 447.9725036621094" stroke-width="0.0" fill="rgb(20, 27, 139)" opacity="0.19764182" stroke="rgb(0, 0, 0)" stroke-opacity="1.0" stroke-linecap="round" stroke-linejoin="round"/>
    <path d="M 83.8875503540039 189.6244354248047 C 97.31490325927734 174.0118408203125 122.67570495605469 173.6336669921875 81.8476791381836 175.11160278320312 C 70.6608657836914 190.59234619140625 64.84637451171875 175.30987548828125 59.99190139770508 161.54624938964844 C 74.42838287353516 122.80745697021484 83.69261932373047 143.5061492919922 90.02588653564453 146.04562377929688 C 77.5735092163086 150.57740783691406 79.84976959228516 165.12094116210938 83.8875503540039 189.6244354248047" stroke-width="0.0" fill="rgb(17, 14, 211)" opacity="8.022117e-05" stroke="rgb(0, 0, 0)" stroke-opacity="1.0" stroke-linecap="round" stroke-linejoin="round"/>
    <path d="M 172.32064819335938 125.22869873046875 C 167.4863739013672 143.5776824951172 162.7522735595703 144.64007568359375 151.83218383789062 114.39808654785156 C 137.97891235351562 142.01412963867188 137.41432189941406 134.9971466064453 154.25770568847656 141.23001098632812 C 167.5108184814453 133.1498565673828 185.1223907470703 126.20342254638672 178.1559295654297 112.84907531738281 C 193.30636596679688 122.38782501220703 200.81094360351562 133.37332153320312 172.32064819335938 125.22869873046875" stroke-width="0.0" fill="rgb(255, 244, 95)" opacity="0.14792669" stroke="rgb(0, 0, 0)" stroke-opacity="1.0" stroke-linecap="round" stroke-linejoin="round"/>
    <path d="M 194.03314208984375 432.1081848144531 C 205.588623046875 430.7259826660156 180.44189453125 431.610107421875 132.53826904296875 422.1553649902344 C 122.46019744873047 380.1832275390625 123.62065887451172 386.1203308105469 152.22189331054688 395.030029296875 C 172.58477783203125 356.8697814941406 133.50210571289062 349.7976379394531 137.09422302246094 385.68878173828125 C 148.44662475585938 403.08447265625 164.05006408691406 413.5986633300781 194.03314208984375 432.1081848144531" stroke-width="0.0" fill="rgb(255, 238, 0)" opacity="0.96047086" stroke="rgb(0, 0, 0)" stroke-opacity="1.0" stroke-linecap="round" stroke-linejoin="round"/>
    <path d="M 461.26129150390625 123.34738159179688 C 496.95953369140625 176.92874145507812 487.2619934082031 186.20298767089844 428.0944519042969 180.3693389892578 C 436.072998046875 150.59732055664062 435.19207763671875 141.72055053710938 460.4263916015625 129.2030792236328 C 436.7584228515625 102.59542083740234 447.7572021484375 78.17132568359375 446.7843933105469 88.7488784790039 C 442.93341064453125 132.7888946533203 450.6463623046875 144.13644409179688 461.26129150390625 123.34738159179688" stroke-width="0.0" fill="rgb(39, 29, 102)" opacity="0.024929078" stroke="rgb(0, 0, 0)" stroke-opacity="1.0" stroke-linecap="round" stroke-linejoin="round"/>
    <path d="M 235.1294403076172 292.8503112792969 C 235.60662841796875 320.102783203125 236.66061401367188 339.9366149902344 226.25820922851562 355.2588806152344 C 252.14138793945312 347.5971984863281 247.64279174804688 324.19659423828125 230.09249877929688 310.2633972167969 C 234.8073272705078 343.2802429199219 233.10345458984375 353.1298828125 252.19021606445312 334.4383239746094 C 255.96926879882812 275.6459655761719 262.60723876953125 307.2185974121094 235.1294403076172 292.8503112792969" stroke-width="0.0" fill="rgb(6, 18, 42)" opacity="0.10963501" stroke="rgb(0, 0, 0)" stroke-opacity="1.0" stroke-linecap="round" stroke-linejoin="round"/>
    <path d="M 138.4421844482422 521.4266357421875 C 167.8924102783203 492.5721740722656 147.7164764404297 498.24737548828125 154.09860229492188 510.8207092285156 C 125.2752685546875 501.1083984375 134.96157836914062 507.5819396972656 172.25521850585938 471.4660949707031 C 186.09097290039062 482.9617614746094 179.8992919921875 499.9789123535156 172.69093322753906 465.60064697265625 C 150.7154998779297 478.6407165527344 132.98118591308594 511.1207580566406 138.4421844482422 521.4266357421875" stroke-width="0.0" fill="rgb(129, 48, 28)" opacity="0.04122789" stroke="rgb(0, 0, 0)" stroke-opacity="1.0" stroke-linecap="round" stroke-linejoin="round"/>
  </g>
</svg>
