<?xml version="1.0" ?>
<svg xmlns="http://www.w3.org/2000/svg" version="1.1" width="512" height="512">
  <defs/>
  <g>
    <path d="M 286.1651611328125 387.9621887207031 C 270.9804992675781 553.9515991210938 203.41188049316406 363.8397521972656 118.93191528320312 494.6956481933594 C 25.472640991210938 420.748046875 -66.23887634277344 302.27960205078125 50.9575309753418 150.19073486328125 C 66.12104797363281 365.3213806152344 39.332977294921875 283.9937744140625 44.76358413696289 364.2941589355469 C 127.20133209228516 438.9929504394531 204.66880798339844 347.0404357910156 286.1651611328125 387.9621887207031" stroke-width="0.0" fill="rgb(0, 0, 0)" opacity="1.0" stroke="rgb(0, 0, 0)" stroke-opacity="1.0" stroke-linecap="round" stroke-linejoin="round"/>
    <path d="M 180.48818969726562 235.130615234375 C 273.84521484375 306.37347412109375 169.42965698242188 327.9730224609375 182.03305053710938 277.8775634765625 C 166.20303344726562 276.927978515625 98.56388854980469 249.2409210205078 97.17179870605469 217.91470336914062 C 87.21233367919922 235.49771118164062 -21.957773208618164 199.21456909179688 169.8854522705078 219.20216369628906 C 204.6097412109375 248.71371459960938 182.26710510253906 247.32232666015625 180.48818969726562 235.130615234375" stroke-width="0.0" fill="rgb(21, 0, 83)" opacity="1.0" stroke="rgb(0, 0, 0)" stroke-opacity="1.0" stroke-linecap="round" stroke-linejoin="round"/>
    <path d="M 412.1105651855469 207.67120361328125 C 401.69708251953125 316.4183349609375 232.24427795410156 235.75294494628906 394.33740234375 240.2185516357422 C 425.39654541015625 229.18032836914062 329.3568115234375 170.94781494140625 283.84881591796875 362.2654724121094 C 220.69358825683594 181.55543518066406 308.1492004394531 195.31605529785156 381.64788818359375 204.71890258789062 C 464.6827087402344 222.13427734375 415.1371765136719 250.1683349609375 412.1105651855469 207.67120361328125" stroke-width="0.0" fill="rgb(0, 0, 7)" opacity="1.0" stroke="rgb(0, 0, 0)" stroke-opacity="1.0" stroke-linecap="round" stroke-linejoin="round"/>
    <path d="M 233.49545288085938 190.9666748046875 C 187.3221893310547 300.23785400390625 228.9434814453125 202.21978759765625 77.31769561767578 251.48992919921875 C 1.0416810512542725 218.06715393066406 100.11956024169922 185.68568420410156 201.48672485351562 197.9674530029297 C 219.9943084716797 206.81204223632812 203.54522705078125 220.8865966796875 219.49932861328125 207.01077270507812 C 166.906982421875 102.00878143310547 178.33203125 88.99917602539062 233.49545288085938 190.9666748046875" stroke-width="0.0" fill="rgb(6, 18, 106)" opacity="1.0" stroke="rgb(0, 0, 0)" stroke-opacity="1.0" stroke-linecap="round" stroke-linejoin="round"/>
    <path d="M 550.8712768554688 327.7539367675781 C 540.4591674804688 395.8070068359375 402.92864990234375 369.7233581542969 438.9708251953125 489.147705078125 C 288.3849792480469 334.267578125 348.32098388671875 447.755126953125 280.99560546875 298.64501953125 C 420.06121826171875 384.3354797363281 297.7120056152344 336.5292663574219 382.2912292480469 344.157470703125 C 455.3172912597656 350.6637878417969 398.4405212402344 371.4219665527344 550.8712768554688 327.7539367675781" stroke-width="0.0" fill="rgb(138, 110, 124)" opacity="0.00057560095" stroke="rgb(0, 0, 0)" stroke-opacity="1.0" stroke-linecap="round" stroke-linejoin="round"/>
    <path d="M 423.62213134765625 175.9499053955078 C 449.020263671875 323.0756530761719 521.8342895507812 325.2256774902344 479.2889709472656 391.0050048828125 C 454.698974609375 277.5295715332031 429.914306640625 356.76300048828125 389.6431884765625 226.451904296875 C 463.86883544921875 122.93673706054688 458.7091064453125 16.0693302154541 456.9694519042969 69.24484252929688 C 430.8438415527344 168.76614379882812 446.5831298828125 102.17459106445312 423.62213134765625 175.9499053955078" stroke-width="0.0" fill="rgb(1, 0, 8)" opacity="0.9998759" stroke="rgb(0, 0, 0)" stroke-opacity="1.0" stroke-linecap="round" stroke-linejoin="round"/>
    <path d="M 391.92596435546875 292.9613037109375 C 272.8689270019531 321.37384033203125 292.83709716796875 361.9573059082031 305.5664367675781 327.0179138183594 C 285.55047607421875 319.3730773925781 353.116943359375 336.9381103515625 280.9833984375 329.7022399902344 C 298.82025146484375 322.1711730957031 316.0570068359375 289.6054382324219 327.4239807128906 276.10736083984375 C 317.4929504394531 249.70730590820312 328.55865478515625 267.6557312011719 391.92596435546875 292.9613037109375" stroke-width="0.0" fill="rgb(232, 225, 221)" opacity="0.5290186" stroke="rgb(0, 0, 0)" stroke-opacity="1.0" stroke-linecap="round" stroke-linejoin="round"/>
    <path d="M 377.69329833984375 238.2676239013672 C 384.6087341308594 244.89285278320312 388.6637268066406 229.81222534179688 395.3755187988281 240.27085876464844 C 371.9317321777344 242.26377868652344 360.6423645019531 234.6324462890625 348.84088134765625 237.58334350585938 C 344.7831726074219 232.4235382080078 360.05029296875 219.21884155273438 350.3512878417969 236.9939727783203 C 326.5857849121094 248.73373413085938 319.0250549316406 228.9122314453125 377.69329833984375 238.2676239013672" stroke-width="0.0" fill="rgb(57, 28, 105)" opacity="0.7336503" stroke="rgb(0, 0, 0)" stroke-opacity="1.0" stroke-linecap="round" stroke-linejoin="round"/>
    <path d="M 64.5481948852539 113.32759094238281 C 93.7203598022461 232.86416625976562 52.02975845336914 91.45877075195312 225.51174926757812 134.3744659423828 C 52.536006927490234 227.7548065185547 108.68964385986328 326.38800048828125 46.14253234863281 75.43306732177734 C 58.49817657470703 -52.79606628417969 66.18112182617188 -48.66141128540039 192.5833282470703 100.57401275634766 C 54.6724967956543 21.275060653686523 59.810813903808594 -4.59096097946167 64.5481948852539 113.32759094238281" stroke-width="0.0" fill="rgb(0, 0, 50)" opacity="1.0" stroke="rgb(0, 0, 0)" stroke-opacity="1.0" stroke-linecap="round" stroke-linejoin="round"/>
    <path d="M 229.50543212890625 290.19110107421875 C 168.43707275390625 323.97430419921875 287.6207275390625 296.08740234375 268.8767395019531 311.5670166015625 C 60.48130798339844 383.3248291015625 184.91314697265625 331.53936767578125 185.614990234375 272.0105895996094 C 141.7584686279297 211.40000915527344 199.33265686035156 234.34170532226562 208.8787078857422 255.94638061523438 C 216.83102416992188 300.390380859375 215.45477294921875 290.699462890625 229.50543212890625 290.19110107421875" stroke-width="0.0" fill="rgb(7, 9, 38)" opacity="0.8979151" stroke="rgb(0, 0, 0)" stroke-opacity="1.0" stroke-linecap="round" stroke-linejoin="round"/>
    <path d="M 371.11334228515625 246.1149139404297 C 378.5216369628906 254.06248474121094 360.8300476074219 241.6936492919922 375.311767578125 244.53977966308594 C 385.174072265625 270.1505126953125 321.4424743652344 289.53363037109375 287.4989929199219 251.22523498535156 C 354.152587890625 177.40371704101562 392.0138854980469 225.0702667236328 394.5976257324219 224.49794006347656 C 435.2835388183594 245.53890991210938 408.84686279296875 245.6890411376953 371.11334228515625 246.1149139404297" stroke-width="0.0" fill="rgb(255, 255, 239)" opacity="1.0" stroke="rgb(0, 0, 0)" stroke-opacity="1.0" stroke-linecap="round" stroke-linejoin="round"/>
    <path d="M 473.585205078125 -32.18943786621094 C 266.4505920410156 32.437198638916016 350.1371765136719 96.47294616699219 246.53517150878906 79.09220886230469 C 109.70671081542969 88.90342712402344 166.0161895751953 84.39448547363281 4.704123020172119 -32.363548278808594 C 242.39309692382812 23.323230743408203 130.68849182128906 73.40585327148438 295.4052734375 48.0292854309082 C 348.2565612792969 62.29948043823242 404.3283386230469 19.760244369506836 473.585205078125 -32.18943786621094" stroke-width="0.0" fill="rgb(3, 0, 16)" opacity="1.0" stroke="rgb(0, 0, 0)" stroke-opacity="1.0" stroke-linecap="round" stroke-linejoin="round"/>
    <path d="M 332.0391845703125 367.88458251953125 C 154.9293212890625 416.1914367675781 219.00103759765625 275.6053161621094 85.72418975830078 368.2201232910156 C 133.7434844970703 458.4912109375 180.19810485839844 408.0378723144531 163.54441833496094 375.43231201171875 C 143.25511169433594 324.9578552246094 151.77642822265625 317.0325012207031 227.32510375976562 306.2989807128906 C 289.02264404296875 297.8053894042969 344.4092712402344 313.76837158203125 332.0391845703125 367.88458251953125" stroke-width="0.0" fill="rgb(255, 255, 250)" opacity="0.99133104" stroke="rgb(0, 0, 0)" stroke-opacity="1.0" stroke-linecap="round" stroke-linejoin="round"/>
    <path d="M 476.51092529296875 101.5250244140625 C 471.092529296875 69.70858764648438 463.8960876464844 44.676109313964844 463.6316833496094 53.673641204833984 C 472.3901062011719 61.80529022216797 496.71466064453125 61.695709228515625 469.05096435546875 123.96076202392578 C 483.0508117675781 -1.2641263008117676 466.1673583984375 -30.2447509765625 499.1632385253906 -48.36835861206055 C 497.31103515625 33.577980041503906 503.9248046875 80.17472076416016 476.51092529296875 101.5250244140625" stroke-width="0.0" fill="rgb(110, 106, 55)" opacity="0.23590016" stroke="rgb(0, 0, 0)" stroke-opacity="1.0" stroke-linecap="round" stroke-linejoin="round"/>
    <path d="M 436.85052490234375 36.767845153808594 C 315.0502624511719 138.8633270263672 441.32659912109375 145.99049377441406 398.04278564453125 229.1024932861328 C 218.49900817871094 137.3710479736328 285.896484375 195.09930419921875 325.1330261230469 41.75297164916992 C 372.3949279785156 104.12911987304688 420.35076904296875 1.2224774360656738 318.0728454589844 121.58171844482422 C 387.89508056640625 154.792724609375 451.82501220703125 10.109899520874023 436.85052490234375 36.767845153808594" stroke-width="0.0" fill="rgb(0, 0, 6)" opacity="1.0" stroke="rgb(0, 0, 0)" stroke-opacity="1.0" stroke-linecap="round" stroke-linejoin="round"/>
    <path d="M 452.0287780761719 400.8945617675781 C 413.99200439453125 397.11358642578125 481.2021179199219 558.9584350585938 359.218994140625 516.747802734375 C 317.5696716308594 310.5586242675781 421.7447204589844 396.2198486328125 406.550048828125 330.4758605957031 C 561.8034057617188 436.1964111328125 367.3549499511719 353.6181945800781 424.1583251953125 362.19732666015625 C 477.3975830078125 386.8347473144531 479.2808532714844 394.9071350097656 452.0287780761719 400.8945617675781" stroke-width="0.0" fill="rgb(207, 205, 209)" opacity="0.47646436" stroke="rgb(0, 0, 0)" stroke-opacity="1.0" stroke-linecap="round" stroke-linejoin="round"/>
    <path d="M 449.83770751953125 17.460783004760742 C 402.2879333496094 -3.3076770305633545 453.69287109375 28.483577728271484 419.3086853027344 149.60226440429688 C 343.7914123535156 109.64972686767578 395.2447509765625 145.07493591308594 410.1272888183594 10.785627365112305 C 468.1813659667969 22.54681968688965 458.7153625488281 12.127220153808594 459.318359375 62.432621002197266 C 457.5431213378906 27.41001319885254 457.0751647949219 18.416027069091797 449.83770751953125 17.460783004760742" stroke-width="0.0" fill="rgb(0, 20, 20)" opacity="1.0" stroke="rgb(0, 0, 0)" stroke-opacity="1.0" stroke-linecap="round" stroke-linejoin="round"/>
    <path d="M 420.9089050292969 435.78973388671875 C 470.1546325683594 451.49139404296875 399.7588806152344 459.51776123046875 288.99920654296875 512.2196044921875 C 198.95228576660156 544.1925659179688 74.6320571899414 470.85260009765625 124.90423583984375 413.9783020019531 C 251.62417602539062 412.2320861816406 233.4681854248047 404.3458557128906 190.79116821289062 461.5771484375 C 218.7626953125 464.897216796875 325.80755615234375 475.240234375 420.9089050292969 435.78973388671875" stroke-width="0.0" fill="rgb(12, 6, 24)" opacity="0.92039496" stroke="rgb(0, 0, 0)" stroke-opacity="1.0" stroke-linecap="round" stroke-linejoin="round"/>
    <path d="M 232.6489715576172 316.7392578125 C 273.4446105957031 273.77435302734375 315.3473815917969 289.2902526855469 273.510498046875 315.5125732421875 C 200.44493103027344 265.5829772949219 225.94891357421875 290.6820068359375 219.88528442382812 226.95303344726562 C 225.63270568847656 284.5139465332031 232.96051025390625 304.9249267578125 161.1906280517578 291.4956970214844 C 145.72755432128906 355.1653747558594 158.4249725341797 299.29217529296875 232.6489715576172 316.7392578125" stroke-width="0.0" fill="rgb(255, 254, 246)" opacity="1.0" stroke="rgb(0, 0, 0)" stroke-opacity="1.0" stroke-linecap="round" stroke-linejoin="round"/>
    <path d="M 495.6510925292969 350.447509765625 C 430.3833923339844 510.6074523925781 401.40869140625 462.6653747558594 457.99359130859375 413.9538269042969 C 454.8894348144531 377.7368469238281 461.15936279296875 401.8880920410156 449.74267578125 393.472900390625 C 478.9827575683594 380.2269592285156 447.5194091796875 380.1570739746094 439.4436950683594 365.6381530761719 C 523.2019653320312 385.1419982910156 471.3702697753906 357.32403564453125 495.6510925292969 350.447509765625" stroke-width="0.0" fill="rgb(225, 213, 228)" opacity="0.29817677" stroke="rgb(0, 0, 0)" stroke-opacity="1.0" stroke-linecap="round" stroke-linejoin="round"/>
    <path d="M 304.078369140625 381.16595458984375 C 279.79522705078125 338.64776611328125 266.9175720214844 357.25628662109375 262.07086181640625 372.4295959472656 C 263.77947998046875 386.9437255859375 229.048095703125 365.44671630859375 241.4744415283203 423.2244873046875 C 226.2282257080078 455.7695617675781 233.55606079101562 408.1878967285156 299.62896728515625 301.93511962890625 C 278.1629333496094 412.4131164550781 352.6748352050781 418.0937194824219 304.078369140625 381.16595458984375" stroke-width="0.0" fill="rgb(0, 0, 9)" opacity="0.3601519" stroke="rgb(0, 0, 0)" stroke-opacity="1.0" stroke-linecap="round" stroke-linejoin="round"/>
    <path d="M 61.39164733886719 6.885036945343018 C 45.56179428100586 9.204238891601562 52.688724517822266 129.70660400390625 91.09523010253906 200.1277313232422 C 98.53954315185547 257.6715393066406 40.40452194213867 21.14561653137207 55.07246398925781 41.12627410888672 C 57.86464309692383 -35.362327575683594 40.669498443603516 -38.535987854003906 76.55033874511719 53.232852935791016 C 133.05975341796875 123.14478302001953 60.682395935058594 16.867507934570312 61.39164733886719 6.885036945343018" stroke-width="0.0" fill="rgb(2, 5, 52)" opacity="0.3200585" stroke="rgb(0, 0, 0)" stroke-opacity="1.0" stroke-linecap="round" stroke-linejoin="round"/>
    <path d="M 215.08566284179688 56.28433609008789 C 153.83985900878906 34.51133346557617 143.690673828125 8.490769386291504 184.7711944580078 76.90476989746094 C 136.2381591796875 62.604515075683594 126.49671936035156 43.153343200683594 65.3530044555664 -0.14498183131217957 C 86.33439636230469 -34.4083251953125 93.16011810302734 -30.894546508789062 173.86270141601562 -20.691085815429688 C 237.03271484375 -7.912317752838135 243.22381591796875 -10.583413124084473 215.08566284179688 56.28433609008789" stroke-width="0.0" fill="rgb(252, 220, 192)" opacity="0.64493185" stroke="rgb(0, 0, 0)" stroke-opacity="1.0" stroke-linecap="round" stroke-linejoin="round"/>
    <path d="M 133.51597595214844 348.06689453125 C 153.96649169921875 360.25115966796875 147.2123565673828 363.771728515625 104.90766143798828 358.4566650390625 C 101.35836029052734 356.99957275390625 120.01789093017578 329.1723327636719 95.77232360839844 292.23565673828125 C 53.40518569946289 258.2154235839844 62.55788040161133 258.2707214355469 64.09622955322266 255.99868774414062 C 96.02845764160156 298.3203125 95.59336853027344 313.5131530761719 133.51597595214844 348.06689453125" stroke-width="0.0" fill="rgb(163, 152, 84)" opacity="0.51018554" stroke="rgb(0, 0, 0)" stroke-opacity="1.0" stroke-linecap="round" stroke-linejoin="round"/>
    <path d="M 116.11910247802734 257.6929016113281 C 112.07876586914062 269.36956787109375 109.87409210205078 271.16229248046875 132.50997924804688 271.4172058105469 C 156.03213500976562 294.5988464355469 121.3592300415039 323.3471374511719 30.630210876464844 335.6260070800781 C 37.52549743652344 206.1147918701172 69.21207427978516 163.9299774169922 61.55128860473633 244.58291625976562 C 115.32035827636719 229.35366821289062 110.4020004272461 215.05123901367188 116.11910247802734 257.6929016113281" stroke-width="0.0" fill="rgb(232, 239, 241)" opacity="1.0" stroke="rgb(0, 0, 0)" stroke-opacity="1.0" stroke-linecap="round" stroke-linejoin="round"/>
    <path d="M 259.3704833984375 93.14246368408203 C 239.7965850830078 153.44776916503906 276.4597473144531 206.7842559814453 250.023681640625 240.8168487548828 C 215.14817810058594 168.95913696289062 198.35997009277344 140.68450927734375 208.12379455566406 131.9965362548828 C 177.2469482421875 85.23290252685547 162.41696166992188 95.30834197998047 262.8033447265625 85.35961151123047 C 268.8395080566406 118.94851684570312 252.67466735839844 112.13143920898438 259.3704833984375 93.14246368408203" stroke-width="0.0" fill="rgb(191, 174, 209)" opacity="0.20900714" stroke="rgb(0, 0, 0)" stroke-opacity="1.0" stroke-linecap="round" stroke-linejoin="round"/>
    <path d="M 305.8382873535156 358.4897155761719 C 308.8553771972656 335.43231201171875 344.49884033203125 368.82470703125 312.0962219238281 383.76202392578125 C 273.3266906738281 341.3657531738281 261.4329833984375 344.7894287109375 293.9296569824219 338.4311218261719 C 298.3218688964844 351.99639892578125 289.97198486328125 270.69769287109375 320.4139709472656 319.36126708984375 C 350.45166015625 355.0921936035156 307.6897888183594 377.1449890136719 305.8382873535156 358.4897155761719" stroke-width="0.0" fill="rgb(123, 170, 149)" opacity="0.92439175" stroke="rgb(0, 0, 0)" stroke-opacity="1.0" stroke-linecap="round" stroke-linejoin="round"/>
    <path d="M 21.946338653564453 429.32110595703125 C 13.441975593566895 419.7616882324219 114.01029968261719 385.25335693359375 22.631521224975586 362.5442810058594 C 6.025833606719971 444.38397216796875 36.63352584838867 421.7575988769531 68.75715637207031 347.8402404785156 C -27.505359649658203 348.97955322265625 2.7012290954589844 366.8359680175781 61.59136199951172 376.8052978515625 C 52.4304084777832 368.0259094238281 63.38175582885742 348.865966796875 21.946338653564453 429.32110595703125" stroke-width="0.0" fill="rgb(0, 0, 0)" opacity="0.9975523" stroke="rgb(0, 0, 0)" stroke-opacity="1.0" stroke-linecap="round" stroke-linejoin="round"/>
    <path d="M 326.1968688964844 359.0832214355469 C 318.89544677734375 397.1112976074219 318.3987121582031 466.50799560546875 286.57354736328125 465.5543518066406 C 319.42596435546875 382.35394287109375 301.3975524902344 378.86041259765625 324.76385498046875 388.9596252441406 C 332.19732666015625 401.1167297363281 301.896728515625 363.370849609375 325.7007751464844 374.496337890625 C 344.3912658691406 382.6134338378906 307.21697998046875 361.74151611328125 326.1968688964844 359.0832214355469" stroke-width="0.0" fill="rgb(0, 0, 17)" opacity="1.0" stroke="rgb(0, 0, 0)" stroke-opacity="1.0" stroke-linecap="round" stroke-linejoin="round"/>
    <path d="M 414.2648620605469 67.84066009521484 C 407.3028564453125 83.43743133544922 413.8531188964844 55.41236114501953 375.5316467285156 77.76669311523438 C 397.6849060058594 171.77159118652344 383.5614013671875 129.05323791503906 343.44488525390625 128.1033172607422 C 383.5897521972656 96.30995178222656 396.87890625 88.54638671875 386.4637756347656 84.25443267822266 C 379.6977233886719 100.4826431274414 411.2742614746094 74.6198501586914 414.2648620605469 67.84066009521484" stroke-width="0.0" fill="rgb(106, 190, 97)" opacity="0.91422313" stroke="rgb(0, 0, 0)" stroke-opacity="1.0" stroke-linecap="round" stroke-linejoin="round"/>
    <path d="M 216.4503936767578 118.52700805664062 C 200.89193725585938 127.30744934082031 213.2100830078125 147.73651123046875 197.8562469482422 140.97125244140625 C 154.5348663330078 139.6320037841797 175.24020385742188 100.94438934326172 140.22048950195312 69.29984283447266 C 106.65108489990234 32.221195220947266 136.7237091064453 71.17676544189453 163.54168701171875 87.07522583007812 C 154.19309997558594 70.76837158203125 193.5807647705078 104.6720199584961 216.4503936767578 118.52700805664062" stroke-width="0.0" fill="rgb(24, 37, 129)" opacity="0.94740033" stroke="rgb(0, 0, 0)" stroke-opacity="1.0" stroke-linecap="round" stroke-linejoin="round"/>
    <path d="M 531.8523559570312 440.48583984375 C 531.2156982421875 467.00396728515625 531.2875366210938 471.57672119140625 536.8394165039062 436.35009765625 C 518.5787963867188 441.9045104980469 502.5022277832031 448.0218505859375 503.9784240722656 442.0552673339844 C 492.69122314453125 427.7312316894531 514.236328125 423.0975646972656 543.0943603515625 428.0144348144531 C 524.2904663085938 425.6336975097656 529.3707275390625 430.8746337890625 531.8523559570312 440.48583984375" stroke-width="0.0" fill="rgb(223, 254, 169)" opacity="0.0013248948" stroke="rgb(0, 0, 0)" stroke-opacity="1.0" stroke-linecap="round" stroke-linejoin="round"/>
    <path d="M 405.8133544921875 239.23255920410156 C 390.58209228515625 246.28842163085938 362.1700439453125 282.81109619140625 362.0283508300781 260.77508544921875 C 369.2550964355469 213.1189727783203 341.7269592285156 234.81178283691406 312.39031982421875 258.0885009765625 C 302.1835632324219 282.8764343261719 338.0707092285156 270.7294006347656 348.79833984375 241.4105682373047 C 371.74896240234375 230.30459594726562 361.359130859375 229.8888397216797 405.8133544921875 239.23255920410156" stroke-width="0.0" fill="rgb(36, 1, 117)" opacity="0.99237204" stroke="rgb(0, 0, 0)" stroke-opacity="1.0" stroke-linecap="round" stroke-linejoin="round"/>
    <path d="M 511.97607421875 427.5924987792969 C 490.07281494140625 446.0218200683594 479.02752685546875 431.93780517578125 469.36370849609375 475.4278259277344 C 406.2237243652344 467.42242431640625 405.491943359375 463.6714782714844 420.8974914550781 395.93548583984375 C 408.1829833984375 363.0117492675781 424.0120849609375 345.570556640625 455.3094177246094 340.518798828125 C 494.3363952636719 380.6507873535156 512.9095458984375 355.0208740234375 511.97607421875 427.5924987792969" stroke-width="0.0" fill="rgb(127, 144, 187)" opacity="0.99900943" stroke="rgb(0, 0, 0)" stroke-opacity="1.0" stroke-linecap="round" stroke-linejoin="round"/>
    <path d="M 171.01019287109375 422.5225830078125 C 164.85769653320312 429.5318603515625 166.06300354003906 430.345458984375 149.84988403320312 430.61328125 C 128.84658813476562 420.20013427734375 128.76673889160156 418.3773193359375 124.25133514404297 411.9588317871094 C 144.3997344970703 399.0986022949219 174.55734252929688 379.03582763671875 180.2274169921875 377.9088439941406 C 154.09693908691406 394.5467529296875 174.35060119628906 404.2138977050781 171.01019287109375 422.5225830078125" stroke-width="0.0" fill="rgb(243, 255, 235)" opacity="0.98107725" stroke="rgb(0, 0, 0)" stroke-opacity="1.0" stroke-linecap="round" stroke-linejoin="round"/>
    <path d="M 426.1572570800781 397.6366271972656 C 396.3002014160156 397.5884094238281 413.7276916503906 403.7754821777344 410.0376892089844 457.1168518066406 C 374.65521240234375 432.3386535644531 386.31854248046875 401.20196533203125 389.2959289550781 370.3684997558594 C 349.5130920410156 319.318115234375 316.3236389160156 227.2552032470703 421.93255615234375 275.3350524902344 C 456.81927490234375 346.7733154296875 443.1897888183594 340.48223876953125 426.1572570800781 397.6366271972656" stroke-width="0.0" fill="rgb(182, 193, 194)" opacity="0.40776268" stroke="rgb(0, 0, 0)" stroke-opacity="1.0" stroke-linecap="round" stroke-linejoin="round"/>
    <path d="M 117.45771026611328 125.58100128173828 C 146.33436584472656 128.40187072753906 138.80284118652344 111.19119262695312 116.34083557128906 136.5340576171875 C 95.84770965576172 142.08509826660156 88.61699676513672 112.73368072509766 60.13579177856445 89.36189270019531 C 50.30868911743164 9.52997875213623 69.84060668945312 18.256502151489258 98.25006103515625 57.55129623413086 C 118.15443420410156 74.17047882080078 115.71964263916016 84.96737670898438 117.45771026611328 125.58100128173828" stroke-width="0.0" fill="rgb(0, 75, 28)" opacity="1.0" stroke="rgb(0, 0, 0)" stroke-opacity="1.0" stroke-linecap="round" stroke-linejoin="round"/>
    <path d="M 320.62091064453125 397.3007507324219 C 326.73870849609375 394.3989562988281 315.8587341308594 395.78619384765625 312.0115051269531 388.9874572753906 C 303.5894470214844 377.6448059082031 325.06915283203125 366.005859375 388.7571716308594 301.2888488769531 C 305.4721374511719 271.1015625 270.285888671875 275.1608581542969 304.4837646484375 391.04193115234375 C 298.4000549316406 422.9408264160156 328.1661071777344 392.3387756347656 320.62091064453125 397.3007507324219" stroke-width="0.0" fill="rgb(0, 0, 6)" opacity="1.0" stroke="rgb(0, 0, 0)" stroke-opacity="1.0" stroke-linecap="round" stroke-linejoin="round"/>
    <path d="M 100.47208404541016 355.6463317871094 C 121.99897766113281 369.4078369140625 108.99003601074219 369.4950256347656 84.92816925048828 383.34649658203125 C 64.244140625 365.5807189941406 68.00990295410156 377.78009033203125 41.86874771118164 376.79351806640625 C 51.01729202270508 336.642578125 49.005916595458984 352.0579528808594 112.58662414550781 356.910400390625 C 111.12293243408203 378.93035888671875 102.57845306396484 374.6114807128906 100.47208404541016 355.6463317871094" stroke-width="0.0" fill="rgb(225, 222, 173)" opacity="0.77548313" stroke="rgb(0, 0, 0)" stroke-opacity="1.0" stroke-linecap="round" stroke-linejoin="round"/>
    <path d="M 252.04493713378906 109.52169036865234 C 253.34104919433594 161.49172973632812 270.8420104980469 185.92437744140625 263.4385986328125 221.07872009277344 C 241.6909942626953 159.51670837402344 240.6560821533203 138.69656372070312 233.0955352783203 126.38658905029297 C 238.38877868652344 113.35442352294922 249.37442016601562 114.70625305175781 256.8632507324219 111.1773681640625 C 268.2438049316406 109.73743438720703 295.379638671875 97.84999084472656 252.04493713378906 109.52169036865234" stroke-width="0.0" fill="rgb(18, 45, 90)" opacity="0.68789184" stroke="rgb(0, 0, 0)" stroke-opacity="1.0" stroke-linecap="round" stroke-linejoin="round"/>
    <path d="M 438.314208984375 83.9360122680664 C 432.456298828125 93.3028564453125 427.7137756347656 120.74005126953125 437.28265380859375 84.18900299072266 C 434.08941650390625 41.22201156616211 430.81488037109375 64.41715240478516 442.52789306640625 62.036399841308594 C 429.6896057128906 69.95818328857422 437.4315185546875 68.65560150146484 441.1927185058594 54.52935028076172 C 426.7321472167969 59.7515983581543 446.1653747558594 89.72808074951172 438.314208984375 83.9360122680664" stroke-width="0.0" fill="rgb(94, 96, 154)" opacity="0.21065298" stroke="rgb(0, 0, 0)" stroke-opacity="1.0" stroke-linecap="round" stroke-linejoin="round"/>
    <path d="M 145.46347045898438 115.83283233642578 C 125.66106414794922 147.6230926513672 98.39408111572266 170.4068603515625 75.50238037109375 170.55514526367188 C 98.13825225830078 123.82778930664062 117.73622131347656 130.419189453125 101.28766632080078 122.50736999511719 C 81.73199462890625 114.33617401123047 71.44068908691406 106.1223373413086 72.74002075195312 110.03658294677734 C 109.07634735107422 137.12596130371094 136.94496154785156 134.74620056152344 145.46347045898438 115.83283233642578" stroke-width="0.0" fill="rgb(89, 147, 105)" opacity="0.9647304" stroke="rgb(0, 0, 0)" stroke-opacity="1.0" stroke-linecap="round" stroke-linejoin="round"/>
    <path d="M 539.5698852539062 465.9067687988281 C 520.4595336914062 517.4486083984375 511.7738037109375 524.1069946289062 457.010498046875 548.4746704101562 C 429.6601867675781 533.94384765625 420.6820983886719 513.6527099609375 443.6134948730469 506.17626953125 C 456.9700927734375 487.2785949707031 469.2163391113281 469.3332824707031 494.51165771484375 427.8969421386719 C 551.1865234375 434.82904052734375 552.0896606445312 439.4643859863281 539.5698852539062 465.9067687988281" stroke-width="0.0" fill="rgb(199, 198, 104)" opacity="0.15462103" stroke="rgb(0, 0, 0)" stroke-opacity="1.0" stroke-linecap="round" stroke-linejoin="round"/>
    <path d="M 256.71502685546875 324.7649230957031 C 251.6559600830078 319.97613525390625 265.43353271484375 318.08056640625 246.31260681152344 322.90594482421875 C 247.5491943359375 326.8781433105469 247.32730102539062 331.6727600097656 240.07420349121094 315.31634521484375 C 279.42376708984375 320.14154052734375 277.73358154296875 318.1708679199219 272.9855041503906 323.42449951171875 C 254.17547607421875 325.5491943359375 248.22242736816406 321.3284606933594 256.71502685546875 324.7649230957031" stroke-width="0.0" fill="rgb(15, 214, 2)" opacity="0.36616558" stroke="rgb(0, 0, 0)" stroke-opacity="1.0" stroke-linecap="round" stroke-linejoin="round"/>
    <path d="M 429.1562805175781 138.5714111328125 C 411.6552734375 146.02081298828125 414.2633361816406 167.47425842285156 417.7279968261719 208.3502197265625 C 373.8760681152344 202.36729431152344 401.8860168457031 155.48829650878906 419.404296875 146.5292510986328 C 409.1087951660156 153.9579315185547 415.3788757324219 138.88343811035156 417.04388427734375 130.11012268066406 C 407.57928466796875 139.54364013671875 412.88153076171875 140.40675354003906 429.1562805175781 138.5714111328125" stroke-width="0.0" fill="rgb(0, 0, 8)" opacity="1.0" stroke="rgb(0, 0, 0)" stroke-opacity="1.0" stroke-linecap="round" stroke-linejoin="round"/>
    <path d="M 452.4913330078125 508.09124755859375 C 461.2604675292969 518.18408203125 463.7347412109375 525.0540771484375 438.682373046875 540.9511108398438 C 434.7525939941406 532.05908203125 442.3586730957031 489.7507629394531 440.8675231933594 480.0577697753906 C 439.225830078125 478.19354248046875 423.466064453125 465.2884216308594 432.1853332519531 461.2344665527344 C 427.5045471191406 469.4092712402344 427.7518005371094 491.0058898925781 452.4913330078125 508.09124755859375" stroke-width="0.0" fill="rgb(248, 187, 164)" opacity="0.21986906" stroke="rgb(0, 0, 0)" stroke-opacity="1.0" stroke-linecap="round" stroke-linejoin="round"/>
    <path d="M 457.7916259765625 -37.775611877441406 C 460.85369873046875 -12.105841636657715 461.88916015625 6.401828765869141 461.3715515136719 -8.923502922058105 C 468.1275329589844 -6.26406717300415 434.3492431640625 -8.859394073486328 429.7215270996094 -4.319830417633057 C 443.6719665527344 -11.60085678100586 456.4753723144531 -14.063331604003906 460.2132568359375 -22.671770095825195 C 474.8860168457031 -14.387734413146973 486.1815185546875 -6.34412956237793 457.7916259765625 -37.775611877441406" stroke-width="0.0" fill="rgb(56, 25, 15)" opacity="0.34211877" stroke="rgb(0, 0, 0)" stroke-opacity="1.0" stroke-linecap="round" stroke-linejoin="round"/>
    <path d="M 190.87655639648438 269.0982360839844 C 197.21319580078125 277.19622802734375 191.75369262695312 254.4513702392578 173.0067138671875 250.03366088867188 C 164.33392333984375 255.4915008544922 155.72239685058594 251.00743103027344 133.61505126953125 215.86289978027344 C 134.52114868164062 216.8529052734375 167.64389038085938 215.9984130859375 187.4078369140625 222.68812561035156 C 175.26560974121094 244.42881774902344 170.14500427246094 252.4491424560547 190.87655639648438 269.0982360839844" stroke-width="0.0" fill="rgb(255, 255, 48)" opacity="1.0" stroke="rgb(0, 0, 0)" stroke-opacity="1.0" stroke-linecap="round" stroke-linejoin="round"/>
    <path d="M 196.5449676513672 337.8714599609375 C 169.3553924560547 407.6083068847656 179.75192260742188 462.7241516113281 178.0358123779297 445.021484375 C 173.5966339111328 465.8124694824219 160.89990234375 452.52001953125 147.44778442382812 423.7767639160156 C 134.7654571533203 423.57623291015625 150.27044677734375 415.5682678222656 208.4563446044922 449.43328857421875 C 183.4270477294922 376.092041015625 260.475830078125 390.4127197265625 196.5449676513672 337.8714599609375" stroke-width="0.0" fill="rgb(255, 249, 174)" opacity="0.826389" stroke="rgb(0, 0, 0)" stroke-opacity="1.0" stroke-linecap="round" stroke-linejoin="round"/>
    <path d="M 188.79306030273438 271.3662109375 C 209.65367126464844 270.9781799316406 200.67005920410156 262.4964904785156 198.72903442382812 259.2240905761719 C 190.63113403320312 251.3242645263672 175.51113891601562 223.91085815429688 178.22850036621094 233.8536376953125 C 200.60662841796875 240.7672882080078 194.33615112304688 218.92318725585938 179.90625 226.54275512695312 C 192.02603149414062 246.2318572998047 187.2473602294922 247.82875061035156 188.79306030273438 271.3662109375" stroke-width="0.0" fill="rgb(250, 117, 88)" opacity="0.5144592" stroke="rgb(0, 0, 0)" stroke-opacity="1.0" stroke-linecap="round" stroke-linejoin="round"/>
    <path d="M 198.98416137695312 347.6356201171875 C 198.7751922607422 368.45550537109375 192.6053924560547 381.6077575683594 183.3855743408203 400.6000671386719 C 168.58297729492188 371.4168395996094 143.61346435546875 348.9478759765625 99.81723022460938 297.7643737792969 C 142.96768188476562 278.723876953125 155.87530517578125 284.5471496582031 164.818359375 292.04022216796875 C 209.37039184570312 279.2940673828125 216.998779296875 296.8714599609375 198.98416137695312 347.6356201171875" stroke-width="0.0" fill="rgb(0, 0, 13)" opacity="1.0" stroke="rgb(0, 0, 0)" stroke-opacity="1.0" stroke-linecap="round" stroke-linejoin="round"/>
    <path d="M 74.99767303466797 455.02392578125 C 71.75466918945312 445.85504150390625 61.94841003417969 449.3954772949219 65.6067886352539 469.0076599121094 C 81.25944519042969 455.2146911621094 66.31869506835938 434.9968566894531 63.744361877441406 439.6435852050781 C 43.76763153076172 423.0998840332031 46.6860237121582 422.3405456542969 65.5642318725586 445.83758544921875 C 66.18538665771484 430.1060791015625 73.32970428466797 445.59967041015625 74.99767303466797 455.02392578125" stroke-width="0.0" fill="rgb(107, 84, 159)" opacity="0.16768219" stroke="rgb(0, 0, 0)" stroke-opacity="1.0" stroke-linecap="round" stroke-linejoin="round"/>
    <path d="M 443.615478515625 483.7312316894531 C 462.44195556640625 519.2433471679688 465.5189514160156 540.3629760742188 426.3274841308594 519.0029296875 C 420.2664489746094 474.58831787109375 427.04571533203125 478.39068603515625 451.5390930175781 449.5393371582031 C 437.6302795410156 468.4525146484375 460.5298767089844 464.38177490234375 452.6186218261719 455.5143737792969 C 465.2104797363281 503.9247131347656 465.3323059082031 490.7381591796875 443.615478515625 483.7312316894531" stroke-width="0.0" fill="rgb(238, 254, 230)" opacity="0.34152088" stroke="rgb(0, 0, 0)" stroke-opacity="1.0" stroke-linecap="round" stroke-linejoin="round"/>
    <path d="M 465.96588134765625 354.9157409667969 C 461.1203308105469 410.25469970703125 453.7120666503906 405.7635498046875 429.0473937988281 385.67730712890625 C 395.3539733886719 382.49468994140625 407.23760986328125 395.42333984375 431.85430908203125 361.5640869140625 C 419.82366943359375 323.1753845214844 434.929443359375 332.4215393066406 429.0016784667969 347.1881103515625 C 423.9422912597656 324.6343994140625 431.8471984863281 351.70782470703125 465.96588134765625 354.9157409667969" stroke-width="0.0" fill="rgb(39, 127, 95)" opacity="0.34984466" stroke="rgb(0, 0, 0)" stroke-opacity="1.0" stroke-linecap="round" stroke-linejoin="round"/>
    <path d="M 23.519779205322266 124.5067138671875 C 58.30990982055664 131.42434692382812 36.17945861816406 139.4075164794922 29.16413688659668 165.80123901367188 C 28.918733596801758 222.32925415039062 -35.27263641357422 212.56158447265625 -50.68461227416992 153.64646911621094 C -4.459207057952881 8.727727890014648 6.291050434112549 -8.510290145874023 28.983173370361328 43.04553985595703 C 32.619441986083984 82.43510437011719 19.37993812561035 97.41742706298828 23.519779205322266 124.5067138671875" stroke-width="0.0" fill="rgb(184, 124, 53)" opacity="0.21552028" stroke="rgb(0, 0, 0)" stroke-opacity="1.0" stroke-linecap="round" stroke-linejoin="round"/>
    <path d="M 89.9092025756836 488.75616455078125 C 126.9728775024414 543.4445190429688 112.79376220703125 539.6730346679688 3.455451011657715 524.7322998046875 C -3.4778425693511963 523.3223266601562 -20.33987808227539 525.5206909179688 -1.6524431705474854 457.2190246582031 C -0.2576417922973633 384.8972473144531 -24.413026809692383 373.6306457519531 46.3350830078125 426.5953369140625 C 69.8010025024414 445.4939270019531 89.19731903076172 452.2999572753906 89.9092025756836 488.75616455078125" stroke-width="0.0" fill="rgb(187, 103, 20)" opacity="0.11417272" stroke="rgb(0, 0, 0)" stroke-opacity="1.0" stroke-linecap="round" stroke-linejoin="round"/>
    <path d="M 135.88214111328125 225.35531616210938 C 103.08621215820312 226.01673889160156 103.90130615234375 222.77650451660156 115.94942474365234 243.61138916015625 C 122.19821166992188 253.46475219726562 110.96024322509766 246.16465759277344 115.7979965209961 221.70068359375 C 124.17538452148438 219.21383666992188 125.51800537109375 213.2798309326172 132.19740295410156 220.1902313232422 C 147.66712951660156 235.42576599121094 142.4012908935547 218.41775512695312 135.88214111328125 225.35531616210938" stroke-width="0.0" fill="rgb(171, 115, 233)" opacity="0.4750229" stroke="rgb(0, 0, 0)" stroke-opacity="1.0" stroke-linecap="round" stroke-linejoin="round"/>
    <path d="M 320.19036865234375 0.3968667984008789 C 298.3407897949219 36.23324203491211 285.2686462402344 56.50614929199219 274.70196533203125 44.71958923339844 C 229.982666015625 56.952125549316406 225.7533721923828 53.18940353393555 224.0406036376953 38.165775299072266 C 240.4471893310547 -2.9108729362487793 240.34632873535156 -22.78989028930664 264.1833190917969 -25.548181533813477 C 294.0478820800781 -15.508158683776855 307.8898010253906 -12.880603790283203 320.19036865234375 0.3968667984008789" stroke-width="0.0" fill="rgb(255, 251, 142)" opacity="0.030694766" stroke="rgb(0, 0, 0)" stroke-opacity="1.0" stroke-linecap="round" stroke-linejoin="round"/>
    <path d="M 136.87229919433594 147.23355102539062 C 132.53736877441406 165.3691864013672 130.5585479736328 187.95077514648438 131.07998657226562 168.4292449951172 C 115.47322082519531 172.7544708251953 116.50282287597656 163.2884979248047 115.59558868408203 169.9185791015625 C 130.65780639648438 174.16461181640625 129.2971649169922 156.25108337402344 126.95429992675781 155.1826934814453 C 119.62149810791016 155.3444366455078 136.8916473388672 164.29177856445312 136.87229919433594 147.23355102539062" stroke-width="0.0" fill="rgb(160, 192, 154)" opacity="0.0" stroke="rgb(0, 0, 0)" stroke-opacity="1.0" stroke-linecap="round" stroke-linejoin="round"/>
    <path d="M 468.1701965332031 227.72093200683594 C 465.14752197265625 238.90989685058594 483.5035095214844 249.80838012695312 499.5640563964844 260.0059814453125 C 424.47967529296875 280.4191589355469 417.2648010253906 273.1844787597656 425.2523498535156 212.08644104003906 C 436.4088134765625 222.3170623779297 439.2141418457031 246.07797241210938 438.1194763183594 251.58973693847656 C 457.8658142089844 279.90484619140625 485.7684020996094 263.90863037109375 468.1701965332031 227.72093200683594" stroke-width="0.0" fill="rgb(2, 0, 5)" opacity="0.9790569" stroke="rgb(0, 0, 0)" stroke-opacity="1.0" stroke-linecap="round" stroke-linejoin="round"/>
    <path d="M 357.4497985839844 353.5377502441406 C 348.7894592285156 373.0537414550781 330.3683166503906 369.7734069824219 329.99505615234375 397.4335632324219 C 347.7521667480469 408.3598937988281 313.536865234375 404.9481506347656 308.0508117675781 385.6172790527344 C 330.4549255371094 375.1144104003906 348.214599609375 396.64892578125 351.3211975097656 401.160888671875 C 328.8023681640625 370.86627197265625 373.9963073730469 356.2411804199219 357.4497985839844 353.5377502441406" stroke-width="0.0" fill="rgb(194, 201, 167)" opacity="0.0031176643" stroke="rgb(0, 0, 0)" stroke-opacity="1.0" stroke-linecap="round" stroke-linejoin="round"/>
    <path d="M 394.41937255859375 199.00588989257812 C 386.1802978515625 215.15431213378906 365.3112487792969 202.5967254638672 343.9113464355469 206.1210174560547 C 350.8564147949219 198.1966552734375 341.66485595703125 209.67909240722656 362.6492004394531 220.21072387695312 C 357.9793701171875 192.4603271484375 351.96136474609375 183.34283447265625 353.3531494140625 173.47752380371094 C 369.3127136230469 185.093994140625 387.04803466796875 186.08953857421875 394.41937255859375 199.00588989257812" stroke-width="0.0" fill="rgb(252, 249, 242)" opacity="0.0" stroke="rgb(0, 0, 0)" stroke-opacity="1.0" stroke-linecap="round" stroke-linejoin="round"/>
    <path d="M 101.0067367553711 444.37957763671875 C 136.20077514648438 469.5791931152344 121.200927734375 464.5139465332031 94.06732177734375 454.6831359863281 C 85.8874282836914 456.9087829589844 91.22647857666016 425.8108825683594 71.46847534179688 411.365478515625 C 65.98846435546875 425.1617736816406 85.43467712402344 420.1619567871094 78.56013488769531 411.2591857910156 C 106.33555603027344 405.5719299316406 97.64228820800781 400.0261535644531 101.0067367553711 444.37957763671875" stroke-width="0.0" fill="rgb(156, 168, 73)" opacity="0.0" stroke="rgb(0, 0, 0)" stroke-opacity="1.0" stroke-linecap="round" stroke-linejoin="round"/>
    <path d="M 85.15628814697266 449.07598876953125 C 65.1424560546875 461.1299133300781 78.0817642211914 499.93994140625 90.61085510253906 481.2849426269531 C 73.86585998535156 451.28472900390625 60.163360595703125 466.09735107421875 47.864501953125 457.1559753417969 C 69.19938659667969 448.2974548339844 45.83837890625 443.9929504394531 52.29560470581055 468.2685241699219 C 77.92231750488281 443.05810546875 92.03624725341797 438.0545959472656 85.15628814697266 449.07598876953125" stroke-width="0.0" fill="rgb(228, 167, 204)" opacity="0.0" stroke="rgb(0, 0, 0)" stroke-opacity="1.0" stroke-linecap="round" stroke-linejoin="round"/>
  </g>
</svg>
