<?xml version="1.0" ?>
<svg xmlns="http://www.w3.org/2000/svg" version="1.1" width="512" height="512">
  <defs/>
  <g>
    <path d="M 533.9583740234375 449.9190368652344 C 539.9406127929688 513.6859741210938 547.0262451171875 524.7042846679688 452.4681396484375 538.3980102539062 C 364.3198547363281 552.1265869140625 309.9962463378906 588.3641357421875 153.64193725585938 521.0999145507812 C 230.4325408935547 296.70587158203125 319.4579772949219 359.486083984375 486.28485107421875 330.47314453125 C 566.4752197265625 326.5973815917969 564.663330078125 346.26788330078125 533.9583740234375 449.9190368652344" stroke-width="0.0" fill="rgb(11, 0, 78)" opacity="1.0" stroke="rgb(0, 0, 0)" stroke-opacity="1.0" stroke-linecap="round" stroke-linejoin="round"/>
    <path d="M 286.4490051269531 415.7192687988281 C 111.76842498779297 370.8665466308594 258.65325927734375 496.68505859375 78.99588775634766 549.3080444335938 C -51.20000076293945 518.5575561523438 -51.20000076293945 507.9428405761719 -35.191261291503906 446.2390441894531 C -30.72107696533203 197.4778594970703 -19.47905921936035 200.664794921875 32.52719497680664 194.5997314453125 C 212.00257873535156 243.24583435058594 267.2784118652344 217.4805145263672 286.4490051269531 415.7192687988281" stroke-width="0.0" fill="rgb(124, 179, 45)" opacity="0.59175706" stroke="rgb(0, 0, 0)" stroke-opacity="1.0" stroke-linecap="round" stroke-linejoin="round"/>
    <path d="M 287.60247802734375 335.30145263671875 C 230.12649536132812 466.8785095214844 289.2317810058594 476.780517578125 240.8155517578125 459.5404052734375 C 115.43093872070312 297.897705078125 138.6859893798828 242.3410186767578 93.68550109863281 159.35592651367188 C 98.46150207519531 183.61541748046875 95.94686889648438 171.0391845703125 87.96404266357422 195.89633178710938 C 191.192626953125 219.75111389160156 157.49659729003906 243.96749877929688 287.60247802734375 335.30145263671875" stroke-width="0.0" fill="rgb(21, 68, 105)" opacity="0.8959457" stroke="rgb(0, 0, 0)" stroke-opacity="1.0" stroke-linecap="round" stroke-linejoin="round"/>
    <path d="M 310.03271484375 -2.0628602504730225 C 246.8299102783203 188.3546600341797 198.64602661132812 181.11441040039062 5.773828029632568 205.95379638671875 C -31.641313552856445 209.7551727294922 -42.69187545776367 204.37783813476562 -48.00259017944336 60.9173583984375 C -13.004427909851074 -13.631946563720703 -4.874516010284424 -18.456117630004883 28.458972930908203 -20.431865692138672 C 194.3328399658203 -26.185836791992188 222.6602020263672 -37.97929382324219 310.03271484375 -2.0628602504730225" stroke-width="0.0" fill="rgb(162, 216, 121)" opacity="0.8141304" stroke="rgb(0, 0, 0)" stroke-opacity="1.0" stroke-linecap="round" stroke-linejoin="round"/>
    <path d="M 546.5869140625 146.76904296875 C 448.75341796875 274.3337707519531 404.701416015625 250.05935668945312 317.2639465332031 293.5137939453125 C 261.3212585449219 342.42822265625 233.18484497070312 363.7260437011719 260.0957946777344 178.41073608398438 C 251.2102508544922 64.45404815673828 230.57760620117188 26.71298599243164 450.5885925292969 -11.232928276062012 C 563.2000122070312 0.19759994745254517 563.2000122070312 17.676347732543945 546.5869140625 146.76904296875" stroke-width="0.0" fill="rgb(0, 0, 122)" opacity="1.0" stroke="rgb(0, 0, 0)" stroke-opacity="1.0" stroke-linecap="round" stroke-linejoin="round"/>
    <path d="M 328.83447265625 51.31559371948242 C 267.7601013183594 280.4432678222656 276.8141784667969 304.0076904296875 252.15940856933594 246.29779052734375 C 90.90042114257812 209.69357299804688 61.256656646728516 230.65013122558594 54.34426498413086 211.2886199951172 C 108.57086181640625 153.92236328125 120.52503204345703 113.86775970458984 309.60968017578125 -0.6047104597091675 C 384.681640625 -40.05775833129883 402.8447265625 -38.35191345214844 328.83447265625 51.31559371948242" stroke-width="0.0" fill="rgb(130, 193, 106)" opacity="1.0" stroke="rgb(0, 0, 0)" stroke-opacity="1.0" stroke-linecap="round" stroke-linejoin="round"/>
    <path d="M 531.6404418945312 369.1324157714844 C 541.2518310546875 462.90283203125 554.951416015625 458.17230224609375 285.6540832519531 477.09881591796875 C 275.4716796875 420.44781494140625 247.36001586914062 425.2943115234375 229.14173889160156 396.13800048828125 C 196.14999389648438 194.1622314453125 231.12351989746094 194.3616485595703 340.4783020019531 197.72230529785156 C 431.2306213378906 260.85711669921875 431.7372131347656 270.2653503417969 531.6404418945312 369.1324157714844" stroke-width="0.0" fill="rgb(255, 255, 57)" opacity="1.0" stroke="rgb(0, 0, 0)" stroke-opacity="1.0" stroke-linecap="round" stroke-linejoin="round"/>
    <path d="M 528.8978271484375 208.8537139892578 C 547.3381958007812 318.60467529296875 564.7963256835938 362.60406494140625 464.8368225097656 418.1647644042969 C 288.92364501953125 434.6891174316406 315.21490478515625 397.8507385253906 384.4437255859375 195.07156372070312 C 363.8677062988281 59.749454498291016 316.53619384765625 -27.702646255493164 504.2674560546875 172.38784790039062 C 625.466796875 164.54476928710938 595.450439453125 172.51486206054688 528.8978271484375 208.8537139892578" stroke-width="0.0" fill="rgb(184, 252, 123)" opacity="1.0" stroke="rgb(0, 0, 0)" stroke-opacity="1.0" stroke-linecap="round" stroke-linejoin="round"/>
    <path d="M 299.646240234375 257.62872314453125 C 282.79595947265625 257.3079833984375 300.2140808105469 250.55601501464844 301.08660888671875 309.82330322265625 C 233.00308227539062 327.4609375 251.42507934570312 311.11920166015625 177.25839233398438 287.3186340332031 C 143.04501342773438 136.40321350097656 135.58294677734375 129.9499053955078 322.3238220214844 114.52774047851562 C 283.5361633300781 178.43966674804688 292.9232177734375 227.0665283203125 299.646240234375 257.62872314453125" stroke-width="0.0" fill="rgb(227, 201, 2)" opacity="0.12562722" stroke="rgb(0, 0, 0)" stroke-opacity="1.0" stroke-linecap="round" stroke-linejoin="round"/>
    <path d="M 459.43682861328125 375.1779479980469 C 318.27001953125 347.45574951171875 346.05877685546875 279.3413391113281 356.0482177734375 231.30487060546875 C 355.13330078125 202.77291870117188 352.217041015625 225.5630340576172 334.73284912109375 206.92893981933594 C 320.6029968261719 199.7709197998047 328.1683349609375 175.6710205078125 352.6339111328125 66.88089752197266 C 385.76776123046875 110.42539978027344 474.8816223144531 70.02806854248047 459.43682861328125 375.1779479980469" stroke-width="0.0" fill="rgb(174, 243, 124)" opacity="1.0" stroke="rgb(0, 0, 0)" stroke-opacity="1.0" stroke-linecap="round" stroke-linejoin="round"/>
    <path d="M 238.26058959960938 210.94032287597656 C 219.7159881591797 259.89141845703125 205.9056396484375 233.6020050048828 195.32461547851562 306.1137390136719 C 213.70968627929688 306.9010314941406 200.97634887695312 276.3929748535156 114.04723358154297 241.5981903076172 C 138.32057189941406 162.14614868164062 128.61582946777344 127.75323486328125 245.35850524902344 106.00324249267578 C 300.0235900878906 222.46041870117188 334.5943603515625 179.21128845214844 238.26058959960938 210.94032287597656" stroke-width="0.0" fill="rgb(0, 35, 114)" opacity="1.0" stroke="rgb(0, 0, 0)" stroke-opacity="1.0" stroke-linecap="round" stroke-linejoin="round"/>
    <path d="M 386.89288330078125 294.7062072753906 C 355.10382080078125 287.09356689453125 334.3459167480469 243.50039672851562 375.05963134765625 507.5179748535156 C 162.0946502685547 493.4992980957031 282.90313720703125 426.9046630859375 351.5780944824219 331.86553955078125 C 373.7740478515625 144.2397918701172 395.1214294433594 107.30863189697266 345.5523376464844 240.73255920410156 C 360.9471435546875 256.44732666015625 383.414794921875 295.9233093261719 386.89288330078125 294.7062072753906" stroke-width="0.0" fill="rgb(199, 233, 145)" opacity="0.7437289" stroke="rgb(0, 0, 0)" stroke-opacity="1.0" stroke-linecap="round" stroke-linejoin="round"/>
    <path d="M 519.1024169921875 62.06416702270508 C 534.9766235351562 120.90333557128906 548.92431640625 195.65184020996094 513.79736328125 245.28524780273438 C 435.539794921875 127.9937744140625 402.2781982421875 78.44080352783203 332.9571228027344 -0.3301394581794739 C 318.3820495605469 -74.7981185913086 362.3565673828125 -60.90855407714844 435.0316162109375 -51.384796142578125 C 540.7651977539062 -11.036957740783691 538.5833740234375 2.1987524032592773 519.1024169921875 62.06416702270508" stroke-width="0.0" fill="rgb(136, 215, 111)" opacity="1.0" stroke="rgb(0, 0, 0)" stroke-opacity="1.0" stroke-linecap="round" stroke-linejoin="round"/>
    <path d="M 387.5883483886719 46.076290130615234 C 356.2983093261719 28.891435623168945 363.382080078125 -26.211078643798828 337.55902099609375 6.947585582733154 C 340.5580139160156 73.63232421875 298.9083251953125 85.91219329833984 300.4524841308594 34.7402229309082 C 359.73223876953125 45.573875427246094 381.982666015625 42.56809997558594 356.17938232421875 64.53502655029297 C 341.3629455566406 78.65243530273438 404.7536926269531 80.0896987915039 387.5883483886719 46.076290130615234" stroke-width="0.0" fill="rgb(81, 38, 145)" opacity="0.996796" stroke="rgb(0, 0, 0)" stroke-opacity="1.0" stroke-linecap="round" stroke-linejoin="round"/>
    <path d="M 436.0646667480469 420.3283386230469 C 429.7085876464844 420.897705078125 433.7850341796875 422.3264465332031 437.2160339355469 449.2543029785156 C 435.9427795410156 434.1982116699219 455.15557861328125 392.0666198730469 330.2117614746094 362.33642578125 C 319.5390930175781 277.5552978515625 393.4613952636719 292.2543640136719 371.8379821777344 350.4867248535156 C 427.0301818847656 422.3282165527344 435.1742858886719 432.9198303222656 436.0646667480469 420.3283386230469" stroke-width="0.0" fill="rgb(0, 6, 178)" opacity="1.0" stroke="rgb(0, 0, 0)" stroke-opacity="1.0" stroke-linecap="round" stroke-linejoin="round"/>
    <path d="M 337.0798645019531 405.9356994628906 C 337.3652038574219 486.796630859375 352.69024658203125 522.501953125 274.7603759765625 515.936767578125 C 201.38638305664062 509.4444274902344 168.06396484375 493.6366271972656 165.52586364746094 416.5814208984375 C 191.91575622558594 360.1716613769531 249.59176635742188 334.6363525390625 264.45245361328125 327.46112060546875 C 314.864501953125 343.3182678222656 227.7589569091797 414.60833740234375 337.0798645019531 405.9356994628906" stroke-width="0.0" fill="rgb(255, 255, 35)" opacity="1.0" stroke="rgb(0, 0, 0)" stroke-opacity="1.0" stroke-linecap="round" stroke-linejoin="round"/>
    <path d="M 466.6421203613281 457.4069519042969 C 432.4229736328125 488.7191162109375 409.9343566894531 481.57891845703125 375.340576171875 522.1395263671875 C 307.417236328125 515.0309448242188 276.8824462890625 548.5767211914062 271.2598571777344 513.7797241210938 C 366.82275390625 501.6164855957031 362.92523193359375 403.10772705078125 343.3051452636719 395.1350402832031 C 429.83282470703125 383.010986328125 458.7308044433594 385.23236083984375 466.6421203613281 457.4069519042969" stroke-width="0.0" fill="rgb(0, 0, 122)" opacity="1.0" stroke="rgb(0, 0, 0)" stroke-opacity="1.0" stroke-linecap="round" stroke-linejoin="round"/>
    <path d="M 568.2637939453125 457.6283874511719 C 556.5950317382812 487.49261474609375 561.14599609375 513.0620727539062 362.57843017578125 548.3934326171875 C 331.8107604980469 500.69549560546875 424.3104553222656 475.31683349609375 421.6774597167969 399.6566162109375 C 460.7689514160156 373.04058837890625 476.1680908203125 355.3939514160156 514.2279052734375 154.3053436279297 C 557.8168334960938 211.92098999023438 565.1744995117188 312.4036865234375 568.2637939453125 457.6283874511719" stroke-width="0.0" fill="rgb(187, 217, 108)" opacity="0.99931306" stroke="rgb(0, 0, 0)" stroke-opacity="1.0" stroke-linecap="round" stroke-linejoin="round"/>
    <path d="M 250.88961791992188 386.15765380859375 C 214.32005310058594 343.8036804199219 208.2825927734375 358.6846923828125 213.1160430908203 369.99212646484375 C 251.62057495117188 361.4337463378906 268.7388916015625 367.30316162109375 251.3249969482422 327.8161315917969 C 288.14617919921875 353.46441650390625 236.7339630126953 309.9488525390625 262.9349365234375 329.90032958984375 C 263.2730712890625 337.26507568359375 259.116943359375 369.5912780761719 250.88961791992188 386.15765380859375" stroke-width="0.0" fill="rgb(252, 255, 74)" opacity="0.40576816" stroke="rgb(0, 0, 0)" stroke-opacity="1.0" stroke-linecap="round" stroke-linejoin="round"/>
    <path d="M 8.017446517944336 523.0326538085938 C 17.174198150634766 520.413330078125 10.538132667541504 527.49951171875 0.7022038698196411 530.6587524414062 C -9.364206314086914 527.7437133789062 -16.68471336364746 520.4232177734375 -19.364206314086914 510.4232177734375 C -16.684417724609375 500.4241638183594 -9.341285705566406 493.1831359863281 -12.042186737060547 503.2685241699219 C -3.677582263946533 507.53009033203125 3.6094553470611572 514.7254638671875 8.017446517944336 523.0326538085938" stroke-width="0.0" fill="rgb(29, 3, 0)" opacity="0.113359906" stroke="rgb(0, 0, 0)" stroke-opacity="1.0" stroke-linecap="round" stroke-linejoin="round"/>
    <path d="M 290.4164123535156 444.728271484375 C 250.3052520751953 456.1069641113281 273.8433532714844 387.1179504394531 259.1361389160156 479.822509765625 C 317.33050537109375 516.49755859375 274.67742919921875 453.8955078125 294.95318603515625 406.609375 C 275.54010009765625 428.494384765625 338.57421875 396.1658935546875 289.76104736328125 376.26531982421875 C 240.4304656982422 383.5115051269531 285.85833740234375 431.01226806640625 290.4164123535156 444.728271484375" stroke-width="0.0" fill="rgb(4, 8, 123)" opacity="0.98478556" stroke="rgb(0, 0, 0)" stroke-opacity="1.0" stroke-linecap="round" stroke-linejoin="round"/>
    <path d="M 303.1096496582031 300.01776123046875 C 319.55767822265625 290.79559326171875 315.1778259277344 269.6117248535156 311.3302001953125 358.042724609375 C 235.88343811035156 354.29718017578125 257.45904541015625 354.8270263671875 265.41278076171875 272.5269775390625 C 331.0387268066406 302.1514587402344 316.7037353515625 247.40806579589844 273.8185729980469 271.3634033203125 C 265.32708740234375 303.6124267578125 308.59967041015625 287.2748718261719 303.1096496582031 300.01776123046875" stroke-width="0.0" fill="rgb(0, 0, 129)" opacity="1.0" stroke="rgb(0, 0, 0)" stroke-opacity="1.0" stroke-linecap="round" stroke-linejoin="round"/>
    <path d="M 288.23785400390625 408.62994384765625 C 298.4761962890625 413.9663391113281 329.8625793457031 426.4922180175781 284.4000244140625 414.81060791015625 C 227.57546997070312 403.0543212890625 227.33380126953125 393.05670166015625 241.8297119140625 394.6483459472656 C 219.1724395751953 388.2433776855469 224.357666015625 376.310302734375 298.6963195800781 376.1202697753906 C 290.05218505859375 370.8166809082031 291.9825134277344 389.38385009765625 288.23785400390625 408.62994384765625" stroke-width="0.0" fill="rgb(233, 200, 202)" opacity="0.28000066" stroke="rgb(0, 0, 0)" stroke-opacity="1.0" stroke-linecap="round" stroke-linejoin="round"/>
    <path d="M 335.6319274902344 124.35918426513672 C 330.69952392578125 122.59441375732422 310.6712951660156 116.4166259765625 266.9798583984375 128.9124755859375 C 259.6845397949219 109.22505187988281 285.21722412109375 115.30995178222656 209.3335418701172 165.28541564941406 C 127.75804901123047 73.36146545410156 167.86305236816406 56.36301803588867 258.7913818359375 101.95701599121094 C 288.8737487792969 72.20602416992188 308.92413330078125 109.6667709350586 335.6319274902344 124.35918426513672" stroke-width="0.0" fill="rgb(0, 0, 125)" opacity="1.0" stroke="rgb(0, 0, 0)" stroke-opacity="1.0" stroke-linecap="round" stroke-linejoin="round"/>
    <path d="M 262.8851318359375 366.4958801269531 C 209.1510467529297 395.32159423828125 204.87852478027344 466.8096008300781 301.760986328125 505.1928405761719 C 304.2049865722656 382.0389709472656 305.0174560546875 380.7533874511719 268.37017822265625 393.7433776855469 C 277.25640869140625 411.2801208496094 303.9641418457031 410.9798278808594 300.73541259765625 368.8123779296875 C 295.4845886230469 411.5450439453125 314.5849304199219 367.8529052734375 262.8851318359375 366.4958801269531" stroke-width="0.0" fill="rgb(0, 0, 141)" opacity="1.0" stroke="rgb(0, 0, 0)" stroke-opacity="1.0" stroke-linecap="round" stroke-linejoin="round"/>
    <path d="M 387.7281799316406 97.28656768798828 C 395.31756591796875 79.25447082519531 395.2986145019531 112.78202056884766 396.28265380859375 71.1219482421875 C 408.9725341796875 94.99361419677734 397.16583251953125 123.28670501708984 377.68408203125 109.8363037109375 C 411.05645751953125 92.48126983642578 419.3605041503906 87.49002075195312 387.783935546875 56.9296875 C 384.4100341796875 59.93735885620117 377.5002136230469 92.38447570800781 387.7281799316406 97.28656768798828" stroke-width="0.0" fill="rgb(116, 105, 209)" opacity="0.040647212" stroke="rgb(0, 0, 0)" stroke-opacity="1.0" stroke-linecap="round" stroke-linejoin="round"/>
    <path d="M 330.3483581542969 121.40750885009766 C 294.8374328613281 159.51197814941406 293.2751159667969 196.65496826171875 297.50799560546875 178.881591796875 C 235.8839874267578 186.00436401367188 212.1834716796875 203.57843017578125 258.78814697265625 184.5819091796875 C 299.7337951660156 166.91322326660156 295.9234313964844 183.2321319580078 320.5113220214844 200.95065307617188 C 283.46124267578125 162.08372497558594 294.5539855957031 148.73391723632812 330.3483581542969 121.40750885009766" stroke-width="0.0" fill="rgb(132, 113, 178)" opacity="0.029616784" stroke="rgb(0, 0, 0)" stroke-opacity="1.0" stroke-linecap="round" stroke-linejoin="round"/>
    <path d="M 235.49356079101562 376.7901916503906 C 227.74496459960938 401.7403564453125 206.26187133789062 392.0368957519531 225.2698211669922 396.3610534667969 C 251.03323364257812 398.51739501953125 233.29273986816406 392.8447265625 216.47080993652344 363.62860107421875 C 195.2341766357422 355.1197814941406 199.2061767578125 371.6783752441406 225.071044921875 382.9461669921875 C 237.34019470214844 397.7410888671875 244.6075439453125 390.5579833984375 235.49356079101562 376.7901916503906" stroke-width="0.0" fill="rgb(229, 254, 16)" opacity="0.5936743" stroke="rgb(0, 0, 0)" stroke-opacity="1.0" stroke-linecap="round" stroke-linejoin="round"/>
    <path d="M 317.2693786621094 248.4718475341797 C 318.8968811035156 249.993408203125 310.70416259765625 262.6803283691406 317.06060791015625 268.5804748535156 C 311.5395812988281 309.4454040527344 324.6266174316406 330.7098693847656 258.0551452636719 282.6266174316406 C 295.0823059082031 218.767578125 286.2675476074219 174.5800323486328 305.0273742675781 194.30770874023438 C 336.8329772949219 174.28067016601562 319.3037109375 212.6041259765625 317.2693786621094 248.4718475341797" stroke-width="0.0" fill="rgb(0, 0, 116)" opacity="1.0" stroke="rgb(0, 0, 0)" stroke-opacity="1.0" stroke-linecap="round" stroke-linejoin="round"/>
    <path d="M 240.24609375 390.8266906738281 C 201.78724670410156 382.2505798339844 223.11630249023438 403.5221252441406 229.22396850585938 382.1014709472656 C 195.85372924804688 384.1902160644531 204.25030517578125 352.16082763671875 191.79132080078125 342.3991394042969 C 174.05043029785156 336.9374084472656 187.12356567382812 327.6557922363281 190.26803588867188 340.0870361328125 C 192.05650329589844 367.22357177734375 214.47018432617188 375.1822814941406 240.24609375 390.8266906738281" stroke-width="0.0" fill="rgb(137, 147, 103)" opacity="0.055788707" stroke="rgb(0, 0, 0)" stroke-opacity="1.0" stroke-linecap="round" stroke-linejoin="round"/>
    <path d="M 456.937255859375 386.10675048828125 C 460.447509765625 427.0093688964844 456.3278503417969 422.9638366699219 431.65704345703125 426.2774963378906 C 404.283447265625 458.6763916015625 413.5984191894531 446.74591064453125 432.971435546875 435.5927429199219 C 423.1125793457031 404.9554138183594 418.6205749511719 396.010498046875 437.6468811035156 405.8979797363281 C 479.3509216308594 386.992431640625 449.1748962402344 374.46435546875 456.937255859375 386.10675048828125" stroke-width="0.0" fill="rgb(135, 182, 171)" opacity="0.0" stroke="rgb(0, 0, 0)" stroke-opacity="1.0" stroke-linecap="round" stroke-linejoin="round"/>
    <path d="M 389.2954406738281 386.5190734863281 C 417.45477294921875 364.3015441894531 422.5068664550781 392.3780822753906 428.56134033203125 400.52801513671875 C 417.9767761230469 405.02349853515625 434.2496337890625 380.4637145996094 360.1481018066406 386.8079528808594 C 332.16705322265625 356.85235595703125 363.5998840332031 348.34637451171875 423.27349853515625 345.8840026855469 C 425.5197448730469 376.90380859375 415.8952331542969 398.1759948730469 389.2954406738281 386.5190734863281" stroke-width="0.0" fill="rgb(142, 251, 135)" opacity="1.0" stroke="rgb(0, 0, 0)" stroke-opacity="1.0" stroke-linecap="round" stroke-linejoin="round"/>
    <path d="M 282.2257995605469 127.53771209716797 C 273.2310791015625 154.62290954589844 259.537841796875 161.25634765625 219.2005615234375 149.09307861328125 C 242.5880889892578 177.161376953125 214.982421875 150.10464477539062 237.9790802001953 132.9004364013672 C 226.83224487304688 143.33663940429688 250.7304229736328 135.0227813720703 246.83380126953125 132.65048217773438 C 259.6620788574219 118.55558776855469 271.928955078125 93.10411834716797 282.2257995605469 127.53771209716797" stroke-width="0.0" fill="rgb(0, 0, 129)" opacity="0.9872912" stroke="rgb(0, 0, 0)" stroke-opacity="1.0" stroke-linecap="round" stroke-linejoin="round"/>
    <path d="M 225.41383361816406 385.119140625 C 223.99989318847656 426.513427734375 234.9768524169922 468.6336669921875 246.0341796875 470.27081298828125 C 227.00631713867188 460.353271484375 229.18637084960938 422.5476379394531 221.74093627929688 400.69390869140625 C 234.04818725585938 419.3377380371094 230.18861389160156 400.4188232421875 229.05902099609375 383.4759216308594 C 259.3923645019531 366.23712158203125 236.4569854736328 381.2879943847656 225.41383361816406 385.119140625" stroke-width="0.0" fill="rgb(138, 222, 175)" opacity="0.48472613" stroke="rgb(0, 0, 0)" stroke-opacity="1.0" stroke-linecap="round" stroke-linejoin="round"/>
    <path d="M 384.0665588378906 341.3573913574219 C 411.435302734375 337.4894714355469 365.46942138671875 345.7381896972656 373.31402587890625 353.8815002441406 C 385.8786315917969 340.76861572265625 396.1028137207031 326.5679931640625 378.9164123535156 333.9059143066406 C 345.3977966308594 317.5723571777344 339.0216369628906 279.6317138671875 352.954833984375 210.60693359375 C 435.7844543457031 260.8000183105469 411.8353271484375 296.1741943359375 384.0665588378906 341.3573913574219" stroke-width="0.0" fill="rgb(0, 3, 138)" opacity="0.9975971" stroke="rgb(0, 0, 0)" stroke-opacity="1.0" stroke-linecap="round" stroke-linejoin="round"/>
    <path d="M 213.51510620117188 274.56591796875 C 276.58294677734375 282.8806457519531 270.9697265625 287.2294616699219 259.7693786621094 306.5337219238281 C 251.4182891845703 299.9908447265625 259.90966796875 342.0796813964844 158.453369140625 339.6289367675781 C 115.50579833984375 284.4366760253906 168.70738220214844 212.8167266845703 235.63815307617188 203.2381134033203 C 245.78564453125 227.30064392089844 216.17428588867188 232.65432739257812 213.51510620117188 274.56591796875" stroke-width="0.0" fill="rgb(255, 60, 1)" opacity="1.0" stroke="rgb(0, 0, 0)" stroke-opacity="1.0" stroke-linecap="round" stroke-linejoin="round"/>
    <path d="M 273.4125061035156 294.0667724609375 C 299.0481262207031 296.16064453125 282.6365966796875 303.949951171875 276.2845153808594 301.4010009765625 C 246.32159423828125 318.3981018066406 232.33201599121094 305.0771484375 244.93641662597656 279.64141845703125 C 254.27110290527344 270.68359375 252.82321166992188 267.1556091308594 260.2749938964844 264.0210876464844 C 250.63723754882812 265.1580505371094 279.52642822265625 249.95848083496094 273.4125061035156 294.0667724609375" stroke-width="0.0" fill="rgb(0, 52, 176)" opacity="0.99923545" stroke="rgb(0, 0, 0)" stroke-opacity="1.0" stroke-linecap="round" stroke-linejoin="round"/>
    <path d="M 539.9046020507812 49.307743072509766 C 531.0439453125 82.89273834228516 531.9458618164062 91.30706787109375 498.44842529296875 74.80439758300781 C 489.4050598144531 59.99222946166992 491.7660827636719 36.03648376464844 506.2196044921875 37.86579132080078 C 500.64056396484375 27.441608428955078 524.4381713867188 39.75383377075195 523.7357788085938 44.23765182495117 C 524.76806640625 29.60936164855957 529.00439453125 36.3993034362793 539.9046020507812 49.307743072509766" stroke-width="0.0" fill="rgb(201, 212, 114)" opacity="0.6867363" stroke="rgb(0, 0, 0)" stroke-opacity="1.0" stroke-linecap="round" stroke-linejoin="round"/>
    <path d="M 274.6703186035156 306.2134704589844 C 275.0810241699219 307.7101745605469 255.3625946044922 317.81085205078125 260.353759765625 316.795654296875 C 279.5166320800781 294.38623046875 285.5037841796875 292.6841125488281 276.8221130371094 298.6457824707031 C 262.8143310546875 281.0700988769531 273.5098876953125 290.7586364746094 268.8340759277344 281.4196472167969 C 273.07135009765625 292.35308837890625 294.03265380859375 297.5079650878906 274.6703186035156 306.2134704589844" stroke-width="0.0" fill="rgb(0, 56, 157)" opacity="0.65019834" stroke="rgb(0, 0, 0)" stroke-opacity="1.0" stroke-linecap="round" stroke-linejoin="round"/>
    <path d="M 321.52142333984375 94.98117065429688 C 323.214599609375 92.33526611328125 321.2364196777344 121.7114486694336 319.054443359375 92.14498901367188 C 344.54547119140625 83.55681610107422 302.6119384765625 90.6196517944336 339.43255615234375 91.70326232910156 C 310.8331298828125 93.31568908691406 322.9962463378906 99.69861602783203 349.28729248046875 93.66194915771484 C 358.33416748046875 89.1070327758789 340.1491394042969 93.2816390991211 321.52142333984375 94.98117065429688" stroke-width="0.0" fill="rgb(125, 150, 185)" opacity="0.11115984" stroke="rgb(0, 0, 0)" stroke-opacity="1.0" stroke-linecap="round" stroke-linejoin="round"/>
    <path d="M 362.718505859375 217.89498901367188 C 381.1827087402344 237.58473205566406 338.40521240234375 251.14434814453125 342.04351806640625 229.0391845703125 C 337.94683837890625 204.5069580078125 338.8663635253906 210.6862335205078 331.8685302734375 207.02487182617188 C 334.35333251953125 215.52621459960938 365.44940185546875 213.70037841796875 337.3324279785156 209.13929748535156 C 374.3050537109375 203.6986541748047 361.77978515625 203.25601196289062 362.718505859375 217.89498901367188" stroke-width="0.0" fill="rgb(50, 59, 201)" opacity="0.9256203" stroke="rgb(0, 0, 0)" stroke-opacity="1.0" stroke-linecap="round" stroke-linejoin="round"/>
    <path d="M 189.95701599121094 262.606689453125 C 188.77662658691406 250.1348876953125 190.25949096679688 255.46435546875 181.1871337890625 269.96881103515625 C 158.596435546875 276.15386962890625 165.67369079589844 268.9412841796875 172.0748291015625 248.59921264648438 C 177.6901092529297 248.34092712402344 177.53057861328125 205.9046630859375 177.29812622070312 225.800048828125 C 174.5259552001953 254.32606506347656 185.51625061035156 261.9251403808594 189.95701599121094 262.606689453125" stroke-width="0.0" fill="rgb(35, 110, 104)" opacity="0.0011712863" stroke="rgb(0, 0, 0)" stroke-opacity="1.0" stroke-linecap="round" stroke-linejoin="round"/>
    <path d="M 202.13345336914062 80.83395385742188 C 221.81924438476562 85.75440216064453 210.79776000976562 89.60797882080078 209.1666717529297 84.83306121826172 C 207.78724670410156 95.76070404052734 204.35696411132812 95.2259292602539 205.79061889648438 68.58312225341797 C 201.4048309326172 57.0578498840332 195.16732788085938 74.8110580444336 211.2113800048828 74.16917419433594 C 206.8192901611328 75.65855407714844 200.03794860839844 89.41922760009766 202.13345336914062 80.83395385742188" stroke-width="0.0" fill="rgb(75, 105, 136)" opacity="0.14562434" stroke="rgb(0, 0, 0)" stroke-opacity="1.0" stroke-linecap="round" stroke-linejoin="round"/>
    <path d="M 425.5247497558594 363.46685791015625 C 423.90118408203125 346.92156982421875 430.4338684082031 384.40509033203125 437.3334045410156 383.43084716796875 C 437.0059509277344 420.5244140625 416.0028381347656 431.0464782714844 364.09197998046875 339.7663269042969 C 359.03717041015625 316.5289001464844 417.28240966796875 347.24853515625 437.1762390136719 365.16650390625 C 440.216796875 344.90484619140625 430.2138366699219 362.9649353027344 425.5247497558594 363.46685791015625" stroke-width="0.0" fill="rgb(181, 255, 75)" opacity="0.5965249" stroke="rgb(0, 0, 0)" stroke-opacity="1.0" stroke-linecap="round" stroke-linejoin="round"/>
    <path d="M 34.10148620605469 128.14035034179688 C 32.550315856933594 130.61911010742188 35.62145233154297 140.2869873046875 17.643098831176758 129.147216796875 C 31.653263092041016 98.67312622070312 40.48418045043945 92.16273498535156 42.2227897644043 100.09992980957031 C 43.603111267089844 126.18299102783203 61.702415466308594 138.24618530273438 38.806678771972656 136.56649780273438 C 15.901954650878906 102.63401794433594 37.51484680175781 119.89872741699219 34.10148620605469 128.14035034179688" stroke-width="0.0" fill="rgb(97, 207, 139)" opacity="0.0040949164" stroke="rgb(0, 0, 0)" stroke-opacity="1.0" stroke-linecap="round" stroke-linejoin="round"/>
    <path d="M 35.16899871826172 465.845947265625 C 44.04427719116211 484.61956787109375 33.9991340637207 497.9918518066406 39.4805908203125 491.9035339355469 C 28.360801696777344 487.6456298828125 9.059242248535156 483.6280517578125 -5.715729713439941 473.7796630859375 C 25.887481689453125 477.112060546875 19.45833396911621 459.67626953125 38.763671875 421.28704833984375 C 49.794071197509766 450.5978088378906 35.81432342529297 465.6488342285156 35.16899871826172 465.845947265625" stroke-width="0.0" fill="rgb(123, 224, 164)" opacity="0.0" stroke="rgb(0, 0, 0)" stroke-opacity="1.0" stroke-linecap="round" stroke-linejoin="round"/>
    <path d="M 136.58560180664062 246.07357788085938 C 156.60372924804688 251.58633422851562 138.05279541015625 272.56298828125 155.3695831298828 261.9051208496094 C 154.31277465820312 243.21304321289062 130.54095458984375 234.04367065429688 129.15719604492188 234.91542053222656 C 125.99420928955078 248.19393920898438 120.73342895507812 260.0701599121094 121.00150299072266 244.83335876464844 C 139.83529663085938 238.20794677734375 141.4888153076172 244.5413055419922 136.58560180664062 246.07357788085938" stroke-width="0.0" fill="rgb(52, 59, 120)" opacity="0.08750855" stroke="rgb(0, 0, 0)" stroke-opacity="1.0" stroke-linecap="round" stroke-linejoin="round"/>
    <path d="M 546.0006103515625 251.0271759033203 C 528.2279663085938 263.1829833984375 521.3010864257812 271.12066650390625 531.8489990234375 256.9980163574219 C 531.4014892578125 264.4725036621094 522.6273803710938 260.09002685546875 509.60870361328125 263.0496520996094 C 511.9117431640625 241.36505126953125 511.66339111328125 236.41961669921875 493.8068542480469 235.86676025390625 C 540.0592651367188 238.86659240722656 549.5037841796875 245.33828735351562 546.0006103515625 251.0271759033203" stroke-width="0.0" fill="rgb(145, 186, 153)" opacity="0.0" stroke="rgb(0, 0, 0)" stroke-opacity="1.0" stroke-linecap="round" stroke-linejoin="round"/>
    <path d="M 231.88555908203125 395.7573547363281 C 232.9784698486328 400.590576171875 234.47056579589844 405.031005859375 216.56234741210938 416.7904052734375 C 226.0211944580078 405.1869201660156 217.60231018066406 415.86041259765625 207.6110076904297 405.1184387207031 C 202.60501098632812 368.4571533203125 220.49209594726562 345.8309020996094 235.05099487304688 382.4473571777344 C 242.62803649902344 396.12445068359375 229.3590850830078 401.5574951171875 231.88555908203125 395.7573547363281" stroke-width="0.0" fill="rgb(250, 255, 35)" opacity="0.8514473" stroke="rgb(0, 0, 0)" stroke-opacity="1.0" stroke-linecap="round" stroke-linejoin="round"/>
    <path d="M 112.76451110839844 104.0494613647461 C 79.635498046875 114.40059661865234 50.63740539550781 132.91969299316406 102.14313507080078 124.24156188964844 C 91.45160675048828 90.43329620361328 56.1826171875 88.97569274902344 71.26666259765625 113.56797790527344 C 53.41851043701172 94.3860092163086 43.902488708496094 84.40017700195312 46.71226119995117 97.44776153564453 C 63.418174743652344 86.5601577758789 88.6255874633789 100.22029876708984 112.76451110839844 104.0494613647461" stroke-width="0.0" fill="rgb(213, 230, 186)" opacity="0.0" stroke="rgb(0, 0, 0)" stroke-opacity="1.0" stroke-linecap="round" stroke-linejoin="round"/>
    <path d="M 455.2140808105469 230.13523864746094 C 464.55426025390625 246.7153778076172 447.6900329589844 248.73477172851562 442.50482177734375 233.03871154785156 C 453.17779541015625 238.7113037109375 437.67926025390625 222.2886199951172 449.01171875 232.3699951171875 C 426.6915588378906 246.37477111816406 432.69769287109375 222.94190979003906 440.3445739746094 222.88905334472656 C 426.93963623046875 237.88238525390625 429.53363037109375 248.7919464111328 455.2140808105469 230.13523864746094" stroke-width="0.0" fill="rgb(168, 182, 197)" opacity="0.048345525" stroke="rgb(0, 0, 0)" stroke-opacity="1.0" stroke-linecap="round" stroke-linejoin="round"/>
    <path d="M 393.3475036621094 206.14620971679688 C 380.60235595703125 223.90362548828125 376.3389892578125 229.98361206054688 381.3152770996094 234.25338745117188 C 331.8084411621094 247.3411102294922 329.6035461425781 217.3248748779297 355.43438720703125 211.29855346679688 C 333.44183349609375 225.74427795410156 342.2993469238281 211.4075927734375 355.4684753417969 205.3394317626953 C 384.60833740234375 192.52764892578125 390.1977844238281 196.9212646484375 393.3475036621094 206.14620971679688" stroke-width="0.0" fill="rgb(4, 91, 181)" opacity="1.0" stroke="rgb(0, 0, 0)" stroke-opacity="1.0" stroke-linecap="round" stroke-linejoin="round"/>
    <path d="M 94.22666931152344 455.9889221191406 C 100.86369323730469 437.2709655761719 84.20220184326172 458.42730712890625 73.425537109375 460.5680236816406 C 80.36319732666016 471.414306640625 73.16097259521484 459.88458251953125 91.15384674072266 453.29315185546875 C 89.54851531982422 440.26220703125 99.99472045898438 432.7818908691406 89.41830444335938 420.3526916503906 C 85.01848602294922 438.46112060546875 92.37055969238281 452.4836730957031 94.22666931152344 455.9889221191406" stroke-width="0.0" fill="rgb(111, 192, 157)" opacity="0.0" stroke="rgb(0, 0, 0)" stroke-opacity="1.0" stroke-linecap="round" stroke-linejoin="round"/>
    <path d="M 65.86664581298828 436.2392272949219 C 91.57136535644531 451.2098388671875 91.64496612548828 466.83270263671875 72.28257751464844 468.11865234375 C 81.64036560058594 456.565185546875 76.56952667236328 458.16558837890625 71.01372528076172 467.066650390625 C 66.03064727783203 461.26513671875 65.93069458007812 433.81768798828125 74.72602844238281 429.25439453125 C 90.96760559082031 437.8659973144531 93.30157470703125 442.38458251953125 65.86664581298828 436.2392272949219" stroke-width="0.0" fill="rgb(101, 216, 159)" opacity="0.0" stroke="rgb(0, 0, 0)" stroke-opacity="1.0" stroke-linecap="round" stroke-linejoin="round"/>
    <path d="M 454.6120910644531 93.80213928222656 C 440.3602294921875 57.98447799682617 438.2836608886719 61.261802673339844 443.6438293457031 70.71162414550781 C 450.2410583496094 77.2031021118164 446.16925048828125 50.61488723754883 434.6451721191406 33.614261627197266 C 428.7118225097656 41.307865142822266 444.8020935058594 43.0937385559082 462.243896484375 38.257999420166016 C 472.69012451171875 29.695331573486328 486.94482421875 67.86531066894531 454.6120910644531 93.80213928222656" stroke-width="0.0" fill="rgb(133, 222, 121)" opacity="0.009500902" stroke="rgb(0, 0, 0)" stroke-opacity="1.0" stroke-linecap="round" stroke-linejoin="round"/>
    <path d="M 305.94000244140625 162.0226287841797 C 309.8998107910156 186.59019470214844 324.609130859375 202.26669311523438 303.9867248535156 201.19119262695312 C 295.84478759765625 180.9254913330078 297.41314697265625 163.46875 291.2475280761719 171.23426818847656 C 272.3168029785156 144.80255126953125 274.6392517089844 147.742431640625 290.254638671875 152.35733032226562 C 267.84210205078125 173.5841064453125 328.95758056640625 183.10084533691406 305.94000244140625 162.0226287841797" stroke-width="0.0" fill="rgb(180, 51, 77)" opacity="0.0" stroke="rgb(0, 0, 0)" stroke-opacity="1.0" stroke-linecap="round" stroke-linejoin="round"/>
    <path d="M 523.9039916992188 477.56903076171875 C 507.471923828125 522.8248901367188 492.087890625 523.9367065429688 475.8429260253906 545.412109375 C 440.9219970703125 522.3273315429688 445.9761047363281 497.9523620605469 470.7872009277344 461.42181396484375 C 493.34326171875 435.2030944824219 481.0271301269531 448.63238525390625 468.0374755859375 493.51031494140625 C 451.90521240234375 440.78521728515625 474.513671875 438.6784973144531 523.9039916992188 477.56903076171875" stroke-width="0.0" fill="rgb(157, 215, 145)" opacity="0.0" stroke="rgb(0, 0, 0)" stroke-opacity="1.0" stroke-linecap="round" stroke-linejoin="round"/>
    <path d="M 145.13624572753906 29.056522369384766 C 154.37974548339844 49.99383544921875 149.4159698486328 47.27508544921875 121.39616394042969 59.69108963012695 C 140.8889617919922 68.58556365966797 146.21307373046875 21.704288482666016 125.96137237548828 34.97858428955078 C 136.0832977294922 44.644737243652344 128.53736877441406 65.38785552978516 110.395751953125 17.756359100341797 C 160.34010314941406 13.519170761108398 143.04722595214844 19.26848793029785 145.13624572753906 29.056522369384766" stroke-width="0.0" fill="rgb(172, 242, 167)" opacity="0.020124098" stroke="rgb(0, 0, 0)" stroke-opacity="1.0" stroke-linecap="round" stroke-linejoin="round"/>
    <path d="M 189.26246643066406 341.4089660644531 C 186.15603637695312 320.2552490234375 193.11341857910156 349.36199951171875 189.27560424804688 320.80694580078125 C 189.4122314453125 328.01617431640625 178.34442138671875 337.6791687011719 210.67161560058594 326.0318298339844 C 194.9191131591797 320.7424621582031 188.8689727783203 339.1747131347656 192.43385314941406 330.7451171875 C 187.25311279296875 310.6916198730469 179.18507385253906 334.01611328125 189.26246643066406 341.4089660644531" stroke-width="0.0" fill="rgb(119, 1, 108)" opacity="0.0593934" stroke="rgb(0, 0, 0)" stroke-opacity="1.0" stroke-linecap="round" stroke-linejoin="round"/>
    <path d="M 40.55168914794922 310.2267761230469 C 50.47614669799805 333.152099609375 61.594905853271484 331.1575622558594 47.570011138916016 316.992919921875 C 23.184762954711914 327.7961730957031 23.705602645874023 320.24365234375 43.00362777709961 324.23126220703125 C 44.595130920410156 311.0199279785156 71.5087661743164 319.1653137207031 57.35098648071289 319.3262939453125 C 61.25693130493164 329.5614013671875 56.083560943603516 319.02545166015625 40.55168914794922 310.2267761230469" stroke-width="0.0" fill="rgb(162, 211, 139)" opacity="0.36457637" stroke="rgb(0, 0, 0)" stroke-opacity="1.0" stroke-linecap="round" stroke-linejoin="round"/>
    <path d="M 417.9480895996094 481.7520751953125 C 422.33709716796875 433.1313781738281 429.39617919921875 455.5606994628906 435.9754638671875 448.48162841796875 C 400.565673828125 446.0451354980469 385.5493469238281 441.7474365234375 395.0325012207031 434.42401123046875 C 394.5801086425781 446.7984313964844 395.750244140625 447.72369384765625 398.7861328125 431.3973083496094 C 393.1851501464844 434.4354248046875 417.6728820800781 482.59478759765625 417.9480895996094 481.7520751953125" stroke-width="0.0" fill="rgb(1, 17, 109)" opacity="0.0" stroke="rgb(0, 0, 0)" stroke-opacity="1.0" stroke-linecap="round" stroke-linejoin="round"/>
    <path d="M 134.29820251464844 256.7863464355469 C 159.35716247558594 281.1295166015625 152.38726806640625 270.9060974121094 105.02239990234375 286.44482421875 C 72.73369598388672 311.3077392578125 71.56745147705078 296.18951416015625 79.87247467041016 246.698486328125 C 93.43334197998047 259.35504150390625 101.54639434814453 255.77871704101562 109.4134521484375 250.7867431640625 C 146.3230438232422 252.20608520507812 140.58888244628906 265.40350341796875 134.29820251464844 256.7863464355469" stroke-width="0.0" fill="rgb(61, 103, 160)" opacity="0.0" stroke="rgb(0, 0, 0)" stroke-opacity="1.0" stroke-linecap="round" stroke-linejoin="round"/>
    <path d="M 125.44844055175781 462.81121826171875 C 124.05265045166016 472.7071533203125 138.46124267578125 478.87786865234375 124.01555633544922 501.5276184082031 C 102.98970794677734 458.345703125 72.09866333007812 440.0713806152344 85.50032806396484 428.74749755859375 C 93.74821472167969 426.7646179199219 72.65264892578125 438.1711730957031 115.42216491699219 430.7685546875 C 131.22691345214844 408.8501892089844 131.0283660888672 411.8171081542969 125.44844055175781 462.81121826171875" stroke-width="0.0" fill="rgb(197, 195, 147)" opacity="0.0" stroke="rgb(0, 0, 0)" stroke-opacity="1.0" stroke-linecap="round" stroke-linejoin="round"/>
    <path d="M 264.5564270019531 41.36271286010742 C 245.97378540039062 42.02211380004883 256.1702880859375 58.43787384033203 255.5030975341797 63.45152282714844 C 246.64520263671875 46.88818359375 247.01925659179688 38.76789474487305 219.2572021484375 50.800010681152344 C 234.43362426757812 41.481414794921875 266.3363037109375 30.399314880371094 254.91207885742188 51.663551330566406 C 257.1340026855469 41.716529846191406 266.9346008300781 46.79812240600586 264.5564270019531 41.36271286010742" stroke-width="0.0" fill="rgb(138, 121, 149)" opacity="0.29347253" stroke="rgb(0, 0, 0)" stroke-opacity="1.0" stroke-linecap="round" stroke-linejoin="round"/>
  </g>
</svg>
