<?xml version="1.0" ?>
<svg xmlns="http://www.w3.org/2000/svg" version="1.1" width="512" height="512">
  <defs/>
  <g>
    <path d="M 533.0535278320312 457.11041259765625 C 548.7020874023438 518.369873046875 549.9697875976562 525.8068237304688 317.68902587890625 530.7306518554688 C 225.2918701171875 528.2857666015625 161.45077514648438 496.9803771972656 312.8782653808594 489.0157165527344 C 532.2640380859375 453.9322509765625 385.4549255371094 308.7568054199219 400.22601318359375 257.8003845214844 C 555.8365478515625 290.4587707519531 552.7574462890625 322.193603515625 533.0535278320312 457.11041259765625" stroke-width="0.0" fill="rgb(255, 70, 0)" opacity="0.7578754" stroke="rgb(0, 0, 0)" stroke-opacity="1.0" stroke-linecap="round" stroke-linejoin="round"/>
    <path d="M 134.61041259765625 416.634765625 C 235.66696166992188 529.7539672851562 343.7424621582031 442.0294189453125 261.0935363769531 471.75714111328125 C -46.405555725097656 531.6174926757812 -43.769927978515625 531.6903076171875 -32.23726272583008 491.2273254394531 C -43.209686279296875 228.36795043945312 -41.181095123291016 233.88316345214844 68.38919830322266 259.208984375 C 166.50540161132812 256.6422119140625 75.39907836914062 321.6011047363281 134.61041259765625 416.634765625" stroke-width="0.0" fill="rgb(1, 6, 15)" opacity="0.9931433" stroke="rgb(0, 0, 0)" stroke-opacity="1.0" stroke-linecap="round" stroke-linejoin="round"/>
    <path d="M 143.4652099609375 285.8773193359375 C 164.421630859375 433.6162109375 123.67403411865234 366.2117919921875 127.65353393554688 253.61386108398438 C -31.685667037963867 237.64443969726562 -32.32433319091797 315.7742004394531 -9.647956848144531 180.0128173828125 C 5.082925796508789 157.2707977294922 14.917091369628906 157.11900329589844 99.281982421875 135.0451202392578 C 99.58219146728516 111.33551025390625 142.09507751464844 189.11607360839844 143.4652099609375 285.8773193359375" stroke-width="0.0" fill="rgb(0, 11, 24)" opacity="0.98288643" stroke="rgb(0, 0, 0)" stroke-opacity="1.0" stroke-linecap="round" stroke-linejoin="round"/>
    <path d="M 284.0948486328125 64.44496154785156 C 20.54486846923828 60.076725006103516 91.20478057861328 160.3555450439453 94.7767105102539 118.53559875488281 C 12.094681739807129 255.10507202148438 -13.621521949768066 239.9588165283203 -32.89744186401367 78.30747985839844 C -16.20087432861328 -17.48221778869629 -8.278695106506348 -20.73219871520996 175.3378448486328 -37.97480392456055 C 261.3523254394531 -66.53612518310547 279.07342529296875 -64.4094009399414 284.0948486328125 64.44496154785156" stroke-width="0.0" fill="rgb(5, 19, 26)" opacity="0.96983033" stroke="rgb(0, 0, 0)" stroke-opacity="1.0" stroke-linecap="round" stroke-linejoin="round"/>
    <path d="M 584.5770263671875 105.62007904052734 C 457.4845275878906 307.7980651855469 469.26873779296875 329.9454040527344 363.0970458984375 374.92474365234375 C 192.94293212890625 365.1606750488281 302.3650207519531 279.62799072265625 225.98524475097656 133.09715270996094 C 313.97711181640625 -25.1750431060791 265.7224426269531 -16.806047439575195 359.29876708984375 -42.369171142578125 C 563.2000122070312 0.6587138175964355 563.2000122070312 11.063444137573242 584.5770263671875 105.62007904052734" stroke-width="0.0" fill="rgb(249, 105, 0)" opacity="0.85226846" stroke="rgb(0, 0, 0)" stroke-opacity="1.0" stroke-linecap="round" stroke-linejoin="round"/>
    <path d="M 331.1688537597656 66.58116912841797 C 278.75213623046875 325.7216491699219 135.91017150878906 447.5528869628906 151.37599182128906 322.42266845703125 C 188.47171020507812 225.42010498046875 157.85914611816406 126.37181091308594 26.923311233520508 92.0536880493164 C 53.680355072021484 116.82115173339844 85.5053939819336 47.18739700317383 228.65078735351562 66.98120880126953 C 327.9786071777344 130.99200439453125 310.6831970214844 61.22346496582031 331.1688537597656 66.58116912841797" stroke-width="0.0" fill="rgb(0, 31, 42)" opacity="0.9983224" stroke="rgb(0, 0, 0)" stroke-opacity="1.0" stroke-linecap="round" stroke-linejoin="round"/>
    <path d="M 439.37548828125 378.26153564453125 C 360.14556884765625 513.132080078125 488.6771545410156 291.5489501953125 343.31195068359375 294.9866027832031 C 349.5086669921875 288.3514404296875 457.5727844238281 415.41912841796875 183.28860473632812 482.5401306152344 C 105.36344909667969 250.5960235595703 212.4241485595703 167.39715576171875 293.1605529785156 325.8980712890625 C 422.6861572265625 268.6303405761719 439.697021484375 228.01727294921875 439.37548828125 378.26153564453125" stroke-width="0.0" fill="rgb(0, 9, 45)" opacity="1.0" stroke="rgb(0, 0, 0)" stroke-opacity="1.0" stroke-linecap="round" stroke-linejoin="round"/>
    <path d="M 534.8027954101562 150.4931640625 C 543.6019897460938 320.09478759765625 563.1994018554688 343.2150573730469 522.648681640625 276.0672302246094 C 359.8356018066406 272.7928771972656 310.6114501953125 320.6289367675781 364.236083984375 267.44415283203125 C 303.4118957519531 205.6194610595703 438.27386474609375 212.08084106445312 568.188232421875 119.17285919189453 C 563.2000122070312 68.05618286132812 563.2000122070312 90.89309692382812 534.8027954101562 150.4931640625" stroke-width="0.0" fill="rgb(74, 107, 107)" opacity="0.52693886" stroke="rgb(0, 0, 0)" stroke-opacity="1.0" stroke-linecap="round" stroke-linejoin="round"/>
    <path d="M 240.2931365966797 165.3407440185547 C 331.69818115234375 254.41241455078125 316.3638610839844 255.0786590576172 304.10797119140625 289.1268005371094 C 262.9969787597656 294.3818054199219 251.34793090820312 305.01214599609375 251.98695373535156 265.44427490234375 C 293.4288330078125 241.77345275878906 265.42828369140625 223.3699188232422 242.5723876953125 294.0527038574219 C 284.46368408203125 253.7584228515625 254.92442321777344 250.61001586914062 240.2931365966797 165.3407440185547" stroke-width="0.0" fill="rgb(195, 145, 29)" opacity="0.8213271" stroke="rgb(0, 0, 0)" stroke-opacity="1.0" stroke-linecap="round" stroke-linejoin="round"/>
    <path d="M 249.25369262695312 67.08885192871094 C 106.89605712890625 31.949848175048828 12.705389022827148 146.93008422851562 93.04949951171875 164.94842529296875 C 182.71810913085938 321.0627746582031 -27.49178123474121 350.1341247558594 -24.05584716796875 239.5857696533203 C -35.05958938598633 -15.126534461975098 -27.25827407836914 -25.315095901489258 142.94161987304688 -53.43799591064453 C 277.8171691894531 -30.29987907409668 376.2268371582031 60.66499710083008 249.25369262695312 67.08885192871094" stroke-width="0.0" fill="rgb(251, 135, 32)" opacity="1.0" stroke="rgb(0, 0, 0)" stroke-opacity="1.0" stroke-linecap="round" stroke-linejoin="round"/>
    <path d="M 502.2340087890625 232.74954223632812 C 458.3123474121094 232.946044921875 368.55133056640625 284.8909912109375 381.0928955078125 279.9747314453125 C 218.8441162109375 328.7906494140625 482.93280029296875 301.7923583984375 360.2465515136719 292.1351623535156 C 473.5831604003906 235.16758728027344 381.59295654296875 159.12371826171875 385.3019104003906 165.90309143066406 C 327.31781005859375 304.61749267578125 326.59698486328125 273.0341491699219 502.2340087890625 232.74954223632812" stroke-width="0.0" fill="rgb(241, 0, 22)" opacity="1.0" stroke="rgb(0, 0, 0)" stroke-opacity="1.0" stroke-linecap="round" stroke-linejoin="round"/>
    <path d="M 448.9396667480469 -8.865642547607422 C 367.966552734375 230.17393493652344 290.0181884765625 188.44699096679688 232.16603088378906 207.7495574951172 C 248.46636962890625 200.8134002685547 296.449462890625 183.900634765625 318.100341796875 154.82225036621094 C 286.7855224609375 134.31124877929688 298.5437927246094 93.86084747314453 244.34140014648438 66.9088134765625 C 154.9571533203125 30.742246627807617 240.50311279296875 -59.43203353881836 448.9396667480469 -8.865642547607422" stroke-width="0.0" fill="rgb(234, 106, 9)" opacity="0.981308" stroke="rgb(0, 0, 0)" stroke-opacity="1.0" stroke-linecap="round" stroke-linejoin="round"/>
    <path d="M 260.80108642578125 451.18646240234375 C 541.2015380859375 389.9374084472656 278.3536376953125 575.9671020507812 196.65438842773438 447.62640380859375 C 229.7747802734375 454.2028503417969 180.67274475097656 420.5540466308594 143.88868713378906 355.15350341796875 C 134.21153259277344 304.30145263671875 159.15176391601562 508.7019958496094 156.0620880126953 266.5003356933594 C 278.81573486328125 182.36851501464844 94.10649871826172 477.0590515136719 260.80108642578125 451.18646240234375" stroke-width="0.0" fill="rgb(99, 211, 3)" opacity="0.5296947" stroke="rgb(0, 0, 0)" stroke-opacity="1.0" stroke-linecap="round" stroke-linejoin="round"/>
    <path d="M 558.2034301757812 192.7637939453125 C 534.2561645507812 440.6299133300781 532.8516845703125 468.0859375 472.78076171875 452.1378479003906 C 380.73443603515625 391.2748718261719 463.9411315917969 406.74578857421875 449.5523986816406 312.9368591308594 C 395.13189697265625 210.652587890625 427.89923095703125 343.68115234375 423.7123718261719 159.71334838867188 C 448.3366394042969 133.33009338378906 558.8199462890625 139.3999786376953 558.2034301757812 192.7637939453125" stroke-width="0.0" fill="rgb(236, 124, 34)" opacity="0.9692112" stroke="rgb(0, 0, 0)" stroke-opacity="1.0" stroke-linecap="round" stroke-linejoin="round"/>
    <path d="M 543.900634765625 475.1711730957031 C 529.5440673828125 514.3981323242188 520.1913452148438 527.753662109375 322.667236328125 531.8340454101562 C 260.2650451660156 493.08343505859375 319.02801513671875 502.6097717285156 391.9530029296875 460.1090087890625 C 430.8848876953125 405.6560974121094 428.05511474609375 378.9272155761719 438.5345764160156 344.8393859863281 C 469.4392395019531 389.2169189453125 495.6519775390625 394.10406494140625 543.900634765625 475.1711730957031" stroke-width="0.0" fill="rgb(255, 129, 46)" opacity="0.96198285" stroke="rgb(0, 0, 0)" stroke-opacity="1.0" stroke-linecap="round" stroke-linejoin="round"/>
    <path d="M 349.77056884765625 282.9395751953125 C 459.32281494140625 305.0531921386719 320.3591003417969 284.4346923828125 355.96112060546875 346.709228515625 C 326.6675720214844 471.54022216796875 168.9237823486328 462.2428894042969 177.24777221679688 363.4416198730469 C 221.5623016357422 368.9012145996094 201.06602478027344 345.8304443359375 228.3076629638672 306.1400451660156 C 200.0111083984375 407.2398376464844 315.8480224609375 416.3800964355469 349.77056884765625 282.9395751953125" stroke-width="0.0" fill="rgb(191, 255, 94)" opacity="1.0" stroke="rgb(0, 0, 0)" stroke-opacity="1.0" stroke-linecap="round" stroke-linejoin="round"/>
    <path d="M 194.2126007080078 231.50689697265625 C 189.1671142578125 340.0248107910156 216.20639038085938 335.0528869628906 174.66114807128906 326.9089050292969 C 187.6903533935547 300.0722961425781 178.68508911132812 260.0822448730469 190.93112182617188 262.2435302734375 C 187.08700561523438 277.2879333496094 178.87600708007812 251.55462646484375 214.8232879638672 253.29042053222656 C 259.73370361328125 245.1425018310547 258.4590148925781 215.0145721435547 194.2126007080078 231.50689697265625" stroke-width="0.0" fill="rgb(96, 246, 81)" opacity="0.603765" stroke="rgb(0, 0, 0)" stroke-opacity="1.0" stroke-linecap="round" stroke-linejoin="round"/>
    <path d="M 437.2063293457031 328.0668640136719 C 456.3144836425781 421.1945495605469 365.1380920410156 483.77410888671875 334.4057312011719 493.01141357421875 C 266.8133544921875 524.3159790039062 150.06829833984375 479.3284606933594 294.683349609375 491.6877136230469 C 377.0260314941406 480.40374755859375 384.2837219238281 434.23846435546875 413.3453674316406 411.31298828125 C 350.3440856933594 507.7686462402344 452.75506591796875 316.9121398925781 437.2063293457031 328.0668640136719" stroke-width="0.0" fill="rgb(0, 7, 37)" opacity="1.0" stroke="rgb(0, 0, 0)" stroke-opacity="1.0" stroke-linecap="round" stroke-linejoin="round"/>
    <path d="M 263.0623474121094 99.65239715576172 C 316.97955322265625 59.83211898803711 169.75848388671875 66.88133239746094 207.94247436523438 65.0913314819336 C 194.94424438476562 73.18199157714844 190.51583862304688 44.59029006958008 172.64479064941406 40.015174865722656 C 175.6615753173828 27.154422760009766 192.13015747070312 49.595767974853516 161.09201049804688 41.9531364440918 C 108.08610534667969 37.425960540771484 206.6958465576172 30.177703857421875 263.0623474121094 99.65239715576172" stroke-width="0.0" fill="rgb(6, 7, 56)" opacity="0.9159157" stroke="rgb(0, 0, 0)" stroke-opacity="1.0" stroke-linecap="round" stroke-linejoin="round"/>
    <path d="M 227.59298706054688 468.5190124511719 C 245.7410125732422 572.7586059570312 199.58306884765625 587.2098999023438 116.69080352783203 566.3800048828125 C -49.01333236694336 521.1326904296875 -42.92496109008789 500.47503662109375 -22.012893676757812 410.71917724609375 C -29.574859619140625 303.0121154785156 -37.46513366699219 267.7761535644531 29.901229858398438 287.1867370605469 C 118.88475036621094 296.5032958984375 62.361568450927734 488.6170349121094 227.59298706054688 468.5190124511719" stroke-width="0.0" fill="rgb(255, 144, 23)" opacity="1.0" stroke="rgb(0, 0, 0)" stroke-opacity="1.0" stroke-linecap="round" stroke-linejoin="round"/>
    <path d="M 293.49481201171875 355.40478515625 C 302.64495849609375 395.93048095703125 280.66015625 346.4882507324219 290.0527038574219 333.0107727050781 C 285.7452392578125 361.5672912597656 271.5640563964844 362.6511535644531 288.10430908203125 333.141357421875 C 285.3731994628906 363.0630798339844 217.808837890625 364.8944396972656 238.34927368164062 228.8050079345703 C 251.31747436523438 303.2971496582031 259.0844421386719 358.28521728515625 293.49481201171875 355.40478515625" stroke-width="0.0" fill="rgb(48, 161, 71)" opacity="0.5432073" stroke="rgb(0, 0, 0)" stroke-opacity="1.0" stroke-linecap="round" stroke-linejoin="round"/>
    <path d="M 419.743896484375 176.4176025390625 C 353.659912109375 114.56193542480469 369.92401123046875 150.88076782226562 358.21978759765625 227.4672393798828 C 360.3202819824219 200.44757080078125 350.5157470703125 222.51559448242188 336.91510009765625 190.670654296875 C 336.7515563964844 227.99925231933594 370.2781982421875 198.77975463867188 345.8412170410156 166.8852081298828 C 351.7640686035156 191.02159118652344 373.85791015625 155.0725860595703 419.743896484375 176.4176025390625" stroke-width="0.0" fill="rgb(254, 81, 30)" opacity="0.051392764" stroke="rgb(0, 0, 0)" stroke-opacity="1.0" stroke-linecap="round" stroke-linejoin="round"/>
    <path d="M 467.0991516113281 247.90054321289062 C 455.3544616699219 212.83160400390625 427.99725341796875 300.46282958984375 358.8811950683594 289.2109069824219 C 459.17608642578125 274.0599060058594 501.789306640625 197.14666748046875 361.9793395996094 247.79489135742188 C 460.47052001953125 213.1658477783203 420.9800109863281 160.06134033203125 420.6456298828125 188.08909606933594 C 437.1023864746094 271.68389892578125 395.68048095703125 254.06517028808594 467.0991516113281 247.90054321289062" stroke-width="0.0" fill="rgb(50, 173, 53)" opacity="0.024115797" stroke="rgb(0, 0, 0)" stroke-opacity="1.0" stroke-linecap="round" stroke-linejoin="round"/>
    <path d="M 117.86499786376953 288.9020080566406 C 110.0193099975586 347.4351501464844 90.3611068725586 380.6253662109375 115.38876342773438 410.4500732421875 C 79.66143798828125 326.8825988769531 33.559776306152344 313.52996826171875 -4.562355041503906 265.2915954589844 C 54.14741897583008 238.58253479003906 35.888710021972656 190.63812255859375 85.23826599121094 176.99729919433594 C 105.0915298461914 232.59613037109375 116.50203704833984 290.6495056152344 117.86499786376953 288.9020080566406" stroke-width="0.0" fill="rgb(253, 107, 0)" opacity="0.98543334" stroke="rgb(0, 0, 0)" stroke-opacity="1.0" stroke-linecap="round" stroke-linejoin="round"/>
    <path d="M 391.0051574707031 313.036865234375 C 277.4208984375 347.0611572265625 264.2922058105469 257.0947265625 251.52542114257812 186.58193969726562 C 286.2397155761719 180.78211975097656 254.37887573242188 154.9077911376953 288.10986328125 192.55783081054688 C 259.1882019042969 189.9307403564453 270.97528076171875 183.20106506347656 260.7345275878906 150.85455322265625 C 274.98638916015625 141.06275939941406 354.19122314453125 159.857421875 391.0051574707031 313.036865234375" stroke-width="0.0" fill="rgb(0, 231, 214)" opacity="0.9903214" stroke="rgb(0, 0, 0)" stroke-opacity="1.0" stroke-linecap="round" stroke-linejoin="round"/>
    <path d="M 216.3428955078125 116.23281860351562 C 212.4265899658203 110.0597915649414 240.3539581298828 132.45518493652344 251.7676239013672 94.30816650390625 C 102.50675201416016 28.892536163330078 112.36761474609375 168.76815795898438 117.81626892089844 96.23797607421875 C 110.7919921875 46.120262145996094 204.1406707763672 106.61837005615234 200.829345703125 83.2405776977539 C 201.180908203125 68.48422241210938 219.78126525878906 86.83332061767578 216.3428955078125 116.23281860351562" stroke-width="0.0" fill="rgb(128, 244, 122)" opacity="0.75629884" stroke="rgb(0, 0, 0)" stroke-opacity="1.0" stroke-linecap="round" stroke-linejoin="round"/>
    <path d="M 128.75198364257812 158.09486389160156 C 159.7595672607422 177.74588012695312 124.25338745117188 140.67864990234375 124.83199310302734 158.50839233398438 C 137.87318420410156 120.21308898925781 106.41114044189453 122.88691711425781 75.02937316894531 96.93690490722656 C 18.063819885253906 186.7636260986328 55.97395324707031 32.037322998046875 225.67709350585938 87.12716674804688 C 54.12839889526367 83.83826446533203 79.05299377441406 78.12580108642578 128.75198364257812 158.09486389160156" stroke-width="0.0" fill="rgb(193, 200, 80)" opacity="0.99203503" stroke="rgb(0, 0, 0)" stroke-opacity="1.0" stroke-linecap="round" stroke-linejoin="round"/>
    <path d="M 301.67535400390625 256.989501953125 C 272.72711181640625 279.9957275390625 298.08428955078125 310.5634765625 213.05784606933594 311.83026123046875 C 187.29759216308594 289.4955139160156 236.50437927246094 246.39828491210938 228.9288330078125 215.05897521972656 C 232.33480834960938 214.98692321777344 274.0838317871094 227.42108154296875 280.2358093261719 236.5248260498047 C 259.0169982910156 226.71270751953125 308.0653076171875 229.8738250732422 301.67535400390625 256.989501953125" stroke-width="0.0" fill="rgb(187, 215, 121)" opacity="0.874118" stroke="rgb(0, 0, 0)" stroke-opacity="1.0" stroke-linecap="round" stroke-linejoin="round"/>
    <path d="M 293.3021240234375 210.39697265625 C 240.7674102783203 232.4353790283203 185.82550048828125 69.64970397949219 190.975341796875 162.5610809326172 C 236.81936645507812 242.08360290527344 151.78656005859375 338.7928466796875 102.70259857177734 104.75350189208984 C 163.66000366210938 43.623191833496094 246.88455200195312 104.2712631225586 260.90875244140625 125.19099426269531 C 263.15338134765625 42.36451721191406 193.2446746826172 123.888427734375 293.3021240234375 210.39697265625" stroke-width="0.0" fill="rgb(149, 192, 101)" opacity="0.022201315" stroke="rgb(0, 0, 0)" stroke-opacity="1.0" stroke-linecap="round" stroke-linejoin="round"/>
    <path d="M 390.29876708984375 408.2987976074219 C 365.3276062011719 255.6366424560547 301.04498291015625 348.2436828613281 294.7202453613281 365.0771179199219 C 260.7786560058594 361.25103759765625 252.11083984375 314.9640197753906 261.22613525390625 324.1837463378906 C 278.8267517089844 352.52032470703125 298.81121826171875 326.07867431640625 292.4133605957031 362.5035400390625 C 248.66632080078125 276.39166259765625 491.0298156738281 267.34906005859375 390.29876708984375 408.2987976074219" stroke-width="0.0" fill="rgb(34, 187, 130)" opacity="0.68636763" stroke="rgb(0, 0, 0)" stroke-opacity="1.0" stroke-linecap="round" stroke-linejoin="round"/>
    <path d="M 7.6602020263671875 523.527099609375 C 16.928863525390625 520.4954833984375 10.451606750488281 527.2847900390625 0.7705464363098145 530.8681030273438 C -9.364206314086914 527.7437133789062 -16.68471336364746 520.4232177734375 -19.53505516052246 510.3761291503906 C -16.513290405273438 500.47222900390625 -9.497283935546875 493.1925964355469 -12.406676292419434 503.4660339355469 C -4.264515399932861 507.9687805175781 3.0665524005889893 515.3460693359375 7.6602020263671875 523.527099609375" stroke-width="0.0" fill="rgb(253, 10, 0)" opacity="0.1198675" stroke="rgb(0, 0, 0)" stroke-opacity="1.0" stroke-linecap="round" stroke-linejoin="round"/>
    <path d="M 169.40353393554688 240.81982421875 C 156.6288299560547 382.7237243652344 166.8914794921875 375.2890319824219 169.65065002441406 266.66485595703125 C 151.90939331054688 194.431884765625 146.83287048339844 148.34629821777344 122.87584686279297 147.6001434326172 C 92.32903289794922 101.08658599853516 31.03942108154297 114.61446380615234 140.37625122070312 102.54468536376953 C 171.7804718017578 115.49787902832031 191.6942138671875 170.09542846679688 169.40353393554688 240.81982421875" stroke-width="0.0" fill="rgb(0, 46, 25)" opacity="0.9709447" stroke="rgb(0, 0, 0)" stroke-opacity="1.0" stroke-linecap="round" stroke-linejoin="round"/>
    <path d="M 284.845947265625 355.7844543457031 C 236.45663452148438 388.3843994140625 223.0319366455078 310.8914489746094 276.33453369140625 274.6366271972656 C 323.71405029296875 280.078125 282.35498046875 288.9071350097656 258.9372863769531 280.868896484375 C 245.93751525878906 301.2209777832031 255.03916931152344 278.5805358886719 308.0699462890625 283.2619934082031 C 279.40869140625 309.8967590332031 341.7855529785156 284.5097961425781 284.845947265625 355.7844543457031" stroke-width="0.0" fill="rgb(100, 251, 163)" opacity="1.0" stroke="rgb(0, 0, 0)" stroke-opacity="1.0" stroke-linecap="round" stroke-linejoin="round"/>
    <path d="M 286.9554443359375 141.037353515625 C 248.27932739257812 199.08473205566406 281.95947265625 249.45834350585938 225.47523498535156 230.6373291015625 C 204.2343292236328 122.14329528808594 204.4370880126953 80.95413208007812 236.44097900390625 87.8026123046875 C 213.78933715820312 73.87525177001953 211.6814727783203 68.26909637451172 162.59823608398438 99.7633056640625 C 219.75352478027344 92.84852600097656 267.143798828125 76.8747787475586 286.9554443359375 141.037353515625" stroke-width="0.0" fill="rgb(0, 255, 167)" opacity="1.0" stroke="rgb(0, 0, 0)" stroke-opacity="1.0" stroke-linecap="round" stroke-linejoin="round"/>
    <path d="M 295.31036376953125 386.17266845703125 C 233.9552001953125 418.27593994140625 287.00537109375 389.8333740234375 291.9258728027344 410.9083557128906 C 253.88812255859375 434.4551696777344 207.36276245117188 351.1357727050781 179.38668823242188 313.8873596191406 C 140.1487274169922 432.86688232421875 263.6996765136719 450.2603454589844 225.30560302734375 372.8674011230469 C 247.37094116210938 387.28521728515625 245.83905029296875 394.4714050292969 295.31036376953125 386.17266845703125" stroke-width="0.0" fill="rgb(207, 255, 205)" opacity="0.98834485" stroke="rgb(0, 0, 0)" stroke-opacity="1.0" stroke-linecap="round" stroke-linejoin="round"/>
    <path d="M 133.05172729492188 235.48837280273438 C 131.1457977294922 269.22540283203125 139.69183349609375 295.2805480957031 156.19078063964844 334.2191467285156 C 113.05024719238281 351.5037536621094 117.53060913085938 298.7239990234375 111.58797454833984 283.6803283691406 C 100.78033447265625 135.12074279785156 47.87810134887695 160.62969970703125 73.88076782226562 111.54226684570312 C 160.0695343017578 207.66893005371094 133.24073791503906 339.945556640625 133.05172729492188 235.48837280273438" stroke-width="0.0" fill="rgb(233, 208, 14)" opacity="0.0" stroke="rgb(0, 0, 0)" stroke-opacity="1.0" stroke-linecap="round" stroke-linejoin="round"/>
    <path d="M 211.8817138671875 108.10083770751953 C 213.70956420898438 127.95130920410156 216.83123779296875 138.8914031982422 215.51028442382812 167.12350463867188 C 209.23306274414062 125.61033630371094 209.85008239746094 112.47179412841797 193.51431274414062 109.28204345703125 C 185.5077667236328 97.69745635986328 202.31192016601562 71.66574096679688 149.1007843017578 81.88473510742188 C 181.27967834472656 96.74610137939453 219.64361572265625 97.70791625976562 211.8817138671875 108.10083770751953" stroke-width="0.0" fill="rgb(114, 221, 108)" opacity="0.13208456" stroke="rgb(0, 0, 0)" stroke-opacity="1.0" stroke-linecap="round" stroke-linejoin="round"/>
    <path d="M 452.845458984375 292.3984375 C 448.0104064941406 272.57879638671875 466.1329040527344 291.8624572753906 444.2584228515625 283.2311706542969 C 414.6110534667969 270.5077209472656 375.07696533203125 291.8542175292969 315.74859619140625 277.1451721191406 C 331.766357421875 229.06967163085938 372.6593017578125 242.5296630859375 418.03546142578125 272.618408203125 C 430.1990966796875 272.6969299316406 450.9109802246094 286.8200988769531 452.845458984375 292.3984375" stroke-width="0.0" fill="rgb(80, 114, 98)" opacity="0.562089" stroke="rgb(0, 0, 0)" stroke-opacity="1.0" stroke-linecap="round" stroke-linejoin="round"/>
    <path d="M 291.3096618652344 402.4291076660156 C 291.17041015625 400.94793701171875 269.3717346191406 402.8840026855469 277.8863220214844 396.5715637207031 C 258.2767639160156 393.52374267578125 253.0296173095703 373.75970458984375 217.9444122314453 361.7485046386719 C 237.76333618164062 398.9226379394531 240.0810089111328 370.12921142578125 234.16488647460938 424.7369384765625 C 245.56663513183594 436.58746337890625 274.1325988769531 431.6499328613281 291.3096618652344 402.4291076660156" stroke-width="0.0" fill="rgb(228, 255, 180)" opacity="0.95082635" stroke="rgb(0, 0, 0)" stroke-opacity="1.0" stroke-linecap="round" stroke-linejoin="round"/>
    <path d="M 380.9684143066406 241.2877655029297 C 339.0696716308594 224.44383239746094 284.24713134765625 234.24472045898438 323.42828369140625 321.5351257324219 C 242.53114318847656 352.25341796875 197.09898376464844 224.14048767089844 295.30975341796875 228.83721923828125 C 257.9373474121094 172.51736450195312 326.9073181152344 150.50621032714844 362.06890869140625 194.9097900390625 C 364.8212890625 198.46218872070312 376.1718444824219 210.17234802246094 380.9684143066406 241.2877655029297" stroke-width="0.0" fill="rgb(221, 0, 16)" opacity="1.0" stroke="rgb(0, 0, 0)" stroke-opacity="1.0" stroke-linecap="round" stroke-linejoin="round"/>
    <path d="M 171.14511108398438 277.3855285644531 C 218.12017822265625 297.9957580566406 244.19467163085938 274.6578369140625 170.12413024902344 273.0313415527344 C 154.3017578125 267.40789794921875 151.79786682128906 254.80210876464844 153.97325134277344 241.9529266357422 C 188.4727020263672 264.4392395019531 194.99436950683594 274.98876953125 169.94476318359375 291.6103210449219 C 177.86276245117188 284.2344665527344 150.6422119140625 298.2793884277344 171.14511108398438 277.3855285644531" stroke-width="0.0" fill="rgb(61, 157, 0)" opacity="0.9919284" stroke="rgb(0, 0, 0)" stroke-opacity="1.0" stroke-linecap="round" stroke-linejoin="round"/>
    <path d="M 268.384521484375 413.4150390625 C 302.728271484375 397.9444274902344 309.93988037109375 423.1913146972656 265.44134521484375 428.3086853027344 C 270.696533203125 439.0100402832031 301.9352111816406 420.38409423828125 306.2852783203125 392.54241943359375 C 291.27886962890625 380.3797607421875 279.0370178222656 386.57861328125 273.9092102050781 389.8252868652344 C 287.4203186035156 392.3291931152344 258.79046630859375 410.38067626953125 268.384521484375 413.4150390625" stroke-width="0.0" fill="rgb(115, 250, 47)" opacity="0.26397827" stroke="rgb(0, 0, 0)" stroke-opacity="1.0" stroke-linecap="round" stroke-linejoin="round"/>
    <path d="M 395.2163391113281 390.903564453125 C 416.9416809082031 391.9213562011719 381.34619140625 414.9486389160156 358.6850891113281 409.4472961425781 C 421.2881774902344 396.033447265625 407.12042236328125 430.84619140625 338.70269775390625 453.6082458496094 C 335.5382995605469 404.3233947753906 354.9937438964844 362.9815979003906 388.3262939453125 385.5959167480469 C 415.7054138183594 370.5169982910156 404.8773193359375 378.7314758300781 395.2163391113281 390.903564453125" stroke-width="0.0" fill="rgb(0, 200, 55)" opacity="0.56795233" stroke="rgb(0, 0, 0)" stroke-opacity="1.0" stroke-linecap="round" stroke-linejoin="round"/>
    <path d="M 348.4729919433594 6.050635814666748 C 365.2817077636719 45.10664749145508 370.4715576171875 46.6718635559082 326.5960693359375 40.623653411865234 C 325.7109680175781 28.866609573364258 312.990966796875 14.425984382629395 313.7880859375 -9.364154815673828 C 321.40771484375 -14.73718547821045 329.42724609375 -15.283868789672852 339.0283203125 -16.241130828857422 C 354.31719970703125 -6.48836612701416 368.48846435546875 9.201587677001953 348.4729919433594 6.050635814666748" stroke-width="0.0" fill="rgb(195, 128, 30)" opacity="0.10845331" stroke="rgb(0, 0, 0)" stroke-opacity="1.0" stroke-linecap="round" stroke-linejoin="round"/>
    <path d="M 102.94607543945312 160.3720245361328 C 85.77323913574219 170.28067016601562 91.09518432617188 162.62757873535156 82.4850845336914 167.39149475097656 C 110.37538146972656 169.4611358642578 101.92737579345703 153.75637817382812 92.14828491210938 122.14413452148438 C 73.30408477783203 114.42308044433594 64.43896484375 97.49410247802734 68.82903289794922 111.85275268554688 C 119.33877563476562 123.04095458984375 112.34583282470703 128.3873291015625 102.94607543945312 160.3720245361328" stroke-width="0.0" fill="rgb(60, 126, 109)" opacity="0.09214214" stroke="rgb(0, 0, 0)" stroke-opacity="1.0" stroke-linecap="round" stroke-linejoin="round"/>
    <path d="M 416.27490234375 392.7568664550781 C 368.3954162597656 377.51263427734375 399.5460205078125 327.8149108886719 407.7179260253906 344.656005859375 C 399.4339904785156 322.32696533203125 409.7680358886719 299.4722595214844 362.6462707519531 326.2506103515625 C 348.4568176269531 254.52247619628906 350.5067138671875 221.81695556640625 380.0455322265625 241.7943572998047 C 415.7834167480469 315.4812927246094 436.8353576660156 325.26165771484375 416.27490234375 392.7568664550781" stroke-width="0.0" fill="rgb(0, 242, 198)" opacity="0.9987959" stroke="rgb(0, 0, 0)" stroke-opacity="1.0" stroke-linecap="round" stroke-linejoin="round"/>
    <path d="M 291.56915283203125 420.769287109375 C 278.2572326660156 433.7510681152344 271.76434326171875 434.9069519042969 274.251708984375 431.9628601074219 C 257.5889892578125 427.9210205078125 261.4006652832031 443.0041198730469 276.1511535644531 425.4012756347656 C 290.57623291015625 422.4680480957031 260.3658447265625 406.7991943359375 277.05267333984375 387.3844299316406 C 312.5821838378906 382.22515869140625 310.34814453125 422.7111511230469 291.56915283203125 420.769287109375" stroke-width="0.0" fill="rgb(193, 252, 92)" opacity="0.9503981" stroke="rgb(0, 0, 0)" stroke-opacity="1.0" stroke-linecap="round" stroke-linejoin="round"/>
    <path d="M 259.2444152832031 277.6051330566406 C 269.86175537109375 288.1795959472656 254.45375061035156 298.42266845703125 214.0550079345703 314.01287841796875 C 236.1947479248047 297.3376770019531 231.88194274902344 286.9857482910156 226.14002990722656 260.3084411621094 C 193.8332977294922 267.3305969238281 197.89633178710938 251.9918975830078 207.07504272460938 259.48956298828125 C 232.31948852539062 279.30029296875 249.78121948242188 277.2304382324219 259.2444152832031 277.6051330566406" stroke-width="0.0" fill="rgb(20, 128, 16)" opacity="0.0" stroke="rgb(0, 0, 0)" stroke-opacity="1.0" stroke-linecap="round" stroke-linejoin="round"/>
    <path d="M 172.69480895996094 364.4998474121094 C 188.8986053466797 361.93792724609375 167.90591430664062 367.0224914550781 158.91334533691406 420.32904052734375 C 129.1172332763672 384.3869323730469 131.63882446289062 359.7703857421875 152.37257385253906 338.73345947265625 C 156.7192840576172 383.1120300292969 170.3925323486328 381.586181640625 143.89450073242188 367.9395446777344 C 136.76950073242188 331.04302978515625 162.74819946289062 357.5047607421875 172.69480895996094 364.4998474121094" stroke-width="0.0" fill="rgb(0, 43, 14)" opacity="1.0" stroke="rgb(0, 0, 0)" stroke-opacity="1.0" stroke-linecap="round" stroke-linejoin="round"/>
    <path d="M 430.7757873535156 132.16416931152344 C 439.3332214355469 154.7776641845703 462.1033630371094 177.4644317626953 453.9180603027344 153.36431884765625 C 403.922607421875 168.010986328125 404.42999267578125 168.95164489746094 400.7354431152344 146.8857421875 C 432.2918701171875 149.83863830566406 421.4489440917969 137.64810180664062 418.544921875 142.0999298095703 C 424.2416687011719 104.30765533447266 426.13812255859375 144.38116455078125 430.7757873535156 132.16416931152344" stroke-width="0.0" fill="rgb(241, 88, 48)" opacity="0.0" stroke="rgb(0, 0, 0)" stroke-opacity="1.0" stroke-linecap="round" stroke-linejoin="round"/>
    <path d="M 115.16021728515625 463.05072021484375 C 106.0832748413086 493.4539794921875 85.5332260131836 492.5038146972656 61.137298583984375 500.6726989746094 C 67.16410064697266 483.28021240234375 82.36785888671875 443.4012756347656 43.262699127197266 473.53057861328125 C 43.373931884765625 490.1194763183594 45.84148025512695 434.79364013671875 54.923683166503906 442.0084533691406 C 85.81071472167969 445.9239807128906 90.17445373535156 454.7270202636719 115.16021728515625 463.05072021484375" stroke-width="0.0" fill="rgb(255, 97, 63)" opacity="8.6528344e-05" stroke="rgb(0, 0, 0)" stroke-opacity="1.0" stroke-linecap="round" stroke-linejoin="round"/>
    <path d="M 73.53313446044922 162.25289916992188 C 73.84241485595703 145.8015594482422 76.84091186523438 146.46737670898438 100.71466064453125 161.7438201904297 C 72.1334228515625 166.5322723388672 72.03763580322266 148.14968872070312 81.65302276611328 161.39920043945312 C 49.44200134277344 156.00509643554688 69.2878189086914 144.6043701171875 69.17041015625 146.06346130371094 C 89.30412292480469 135.36102294921875 81.58816528320312 166.1387481689453 73.53313446044922 162.25289916992188" stroke-width="0.0" fill="rgb(86, 199, 41)" opacity="0.5922782" stroke="rgb(0, 0, 0)" stroke-opacity="1.0" stroke-linecap="round" stroke-linejoin="round"/>
    <path d="M 318.7109680175781 128.53695678710938 C 315.2418212890625 90.75885772705078 318.9306945800781 84.041015625 347.1475524902344 95.75414276123047 C 334.6067810058594 126.14228820800781 308.9036560058594 119.72525787353516 324.4828186035156 84.8015365600586 C 320.66009521484375 74.21754455566406 312.05657958984375 78.18211364746094 318.8793640136719 85.2373275756836 C 329.5330505371094 93.21967315673828 338.4684753417969 98.69619750976562 318.7109680175781 128.53695678710938" stroke-width="0.0" fill="rgb(222, 62, 31)" opacity="0.03092453" stroke="rgb(0, 0, 0)" stroke-opacity="1.0" stroke-linecap="round" stroke-linejoin="round"/>
    <path d="M 471.036865234375 510.82421875 C 459.622802734375 516.7398071289062 461.135498046875 520.7696533203125 431.96380615234375 529.724365234375 C 421.96575927734375 524.4090576171875 438.8398132324219 503.5101318359375 426.1490173339844 487.0594177246094 C 412.9158935546875 446.2983093261719 416.023193359375 443.3827209472656 447.21368408203125 465.86407470703125 C 473.84564208984375 448.7318115234375 476.1337890625 448.63641357421875 471.036865234375 510.82421875" stroke-width="0.0" fill="rgb(255, 124, 50)" opacity="0.04427511" stroke="rgb(0, 0, 0)" stroke-opacity="1.0" stroke-linecap="round" stroke-linejoin="round"/>
    <path d="M 424.7411193847656 -2.217865467071533 C 436.1324768066406 29.565719604492188 445.6893005371094 36.16030502319336 469.94110107421875 21.08812713623047 C 486.0212097167969 -12.172257423400879 462.50433349609375 -10.412354469299316 456.7796630859375 -11.448704719543457 C 448.83929443359375 -21.286151885986328 459.6185302734375 -21.542585372924805 454.30950927734375 -32.057430267333984 C 469.2607421875 -22.402013778686523 484.9302978515625 -11.518975257873535 424.7411193847656 -2.217865467071533" stroke-width="0.0" fill="rgb(231, 127, 35)" opacity="0.0001107404" stroke="rgb(0, 0, 0)" stroke-opacity="1.0" stroke-linecap="round" stroke-linejoin="round"/>
    <path d="M 496.593994140625 10.915904998779297 C 514.8441162109375 5.751491546630859 511.95220947265625 48.78995132446289 486.4565124511719 30.60358238220215 C 455.47894287109375 51.279197692871094 447.1451416015625 48.42399597167969 462.24847412109375 20.642757415771484 C 448.66876220703125 -6.310816764831543 458.5165100097656 -7.487955093383789 481.7579650878906 -3.996983051300049 C 491.1588134765625 10.206146240234375 485.3581237792969 22.04467010498047 496.593994140625 10.915904998779297" stroke-width="0.0" fill="rgb(240, 140, 35)" opacity="0.012594094" stroke="rgb(0, 0, 0)" stroke-opacity="1.0" stroke-linecap="round" stroke-linejoin="round"/>
    <path d="M 57.93083572387695 344.9577331542969 C 70.86595916748047 342.8853759765625 53.883113861083984 354.2749938964844 19.57474136352539 347.73681640625 C 11.093645095825195 360.3330993652344 5.469254970550537 345.08026123046875 4.177759170532227 311.5564270019531 C 14.736148834228516 319.3338928222656 29.818347930908203 329.3726806640625 19.18024253845215 321.531005859375 C 36.915557861328125 288.9032287597656 63.870704650878906 310.68707275390625 57.93083572387695 344.9577331542969" stroke-width="0.0" fill="rgb(221, 58, 12)" opacity="0.019999545" stroke="rgb(0, 0, 0)" stroke-opacity="1.0" stroke-linecap="round" stroke-linejoin="round"/>
    <path d="M 188.31358337402344 483.3644104003906 C 205.99244689941406 485.61199951171875 230.79910278320312 520.7962646484375 253.03785705566406 466.4998474121094 C 183.7502899169922 452.0475769042969 182.66085815429688 435.57440185546875 167.07618713378906 448.3949279785156 C 177.79635620117188 492.4550476074219 195.74337768554688 489.6017761230469 225.93917846679688 477.0052185058594 C 188.16714477539062 467.63897705078125 204.2005157470703 476.146728515625 188.31358337402344 483.3644104003906" stroke-width="0.0" fill="rgb(119, 187, 8)" opacity="0.9825065" stroke="rgb(0, 0, 0)" stroke-opacity="1.0" stroke-linecap="round" stroke-linejoin="round"/>
    <path d="M 28.054908752441406 379.55914306640625 C 9.613856315612793 383.11419677734375 24.943138122558594 375.96258544921875 22.302242279052734 372.13323974609375 C 8.082792282104492 386.01605224609375 -10.869311332702637 386.5395202636719 -4.950526714324951 358.0135498046875 C -6.104235649108887 340.19293212890625 20.352264404296875 333.6999206542969 14.826898574829102 347.4282531738281 C 13.295860290527344 353.326171875 27.087848663330078 362.7934265136719 28.054908752441406 379.55914306640625" stroke-width="0.0" fill="rgb(251, 149, 52)" opacity="0.0007440766" stroke="rgb(0, 0, 0)" stroke-opacity="1.0" stroke-linecap="round" stroke-linejoin="round"/>
    <path d="M 170.8408966064453 453.36639404296875 C 203.1208953857422 454.89208984375 180.16256713867188 440.4943542480469 142.7249755859375 451.9742126464844 C 163.05934143066406 471.4613342285156 156.65115356445312 453.421142578125 171.25169372558594 458.401611328125 C 196.81651306152344 460.07293701171875 171.232666015625 443.4929504394531 157.59649658203125 450.08538818359375 C 167.0234375 448.56817626953125 177.563232421875 438.69110107421875 170.8408966064453 453.36639404296875" stroke-width="0.0" fill="rgb(224, 215, 96)" opacity="0.07391548" stroke="rgb(0, 0, 0)" stroke-opacity="1.0" stroke-linecap="round" stroke-linejoin="round"/>
    <path d="M 366.9175720214844 228.68472290039062 C 366.2353515625 202.26341247558594 364.2305908203125 221.6298828125 369.77056884765625 256.9056701660156 C 380.38934326171875 280.3873291015625 320.5066833496094 277.6810607910156 335.18157958984375 244.21238708496094 C 342.79296875 239.85337829589844 346.3357238769531 223.59918212890625 336.4112548828125 198.7415771484375 C 335.7190246582031 223.513427734375 359.6692199707031 217.2333984375 366.9175720214844 228.68472290039062" stroke-width="0.0" fill="rgb(0, 95, 92)" opacity="0.09763073" stroke="rgb(0, 0, 0)" stroke-opacity="1.0" stroke-linecap="round" stroke-linejoin="round"/>
    <path d="M 194.9394989013672 245.53836059570312 C 163.07720947265625 256.32275390625 150.8379364013672 267.091064453125 155.83236694335938 257.99896240234375 C 149.48782348632812 271.38311767578125 150.37261962890625 282.60931396484375 158.75572204589844 261.8380126953125 C 153.74630737304688 255.35560607910156 178.8294677734375 245.815185546875 194.4378204345703 249.46083068847656 C 222.5417022705078 221.28639221191406 177.57232666015625 218.47079467773438 194.9394989013672 245.53836059570312" stroke-width="0.0" fill="rgb(97, 156, 126)" opacity="0.0" stroke="rgb(0, 0, 0)" stroke-opacity="1.0" stroke-linecap="round" stroke-linejoin="round"/>
    <path d="M 183.61012268066406 427.4249572753906 C 169.64862060546875 448.334716796875 164.39845275878906 448.4098815917969 140.45816040039062 464.2239074707031 C 181.96311950683594 496.41064453125 184.3467559814453 477.8260498046875 182.02088928222656 439.401123046875 C 192.29449462890625 434.5306396484375 217.63267517089844 415.2580871582031 200.5075225830078 426.6279296875 C 198.77381896972656 414.4101867675781 180.62680053710938 424.6360778808594 183.61012268066406 427.4249572753906" stroke-width="0.0" fill="rgb(47, 0, 0)" opacity="0.12304644" stroke="rgb(0, 0, 0)" stroke-opacity="1.0" stroke-linecap="round" stroke-linejoin="round"/>
    <path d="M 525.3792114257812 226.8704071044922 C 518.850830078125 255.403076171875 517.1485595703125 259.69287109375 520.4733276367188 252.83702087402344 C 493.70599365234375 245.72203063964844 509.17083740234375 221.01341247558594 499.5669860839844 212.279052734375 C 471.2555236816406 229.94049072265625 475.78338623046875 209.42164611816406 506.7630920410156 210.2568359375 C 501.8345642089844 220.10861206054688 508.3147277832031 230.1993865966797 525.3792114257812 226.8704071044922" stroke-width="0.0" fill="rgb(222, 37, 23)" opacity="0.0" stroke="rgb(0, 0, 0)" stroke-opacity="1.0" stroke-linecap="round" stroke-linejoin="round"/>
  </g>
</svg>
