<?xml version="1.0" ?>
<svg xmlns="http://www.w3.org/2000/svg" version="1.1" width="512" height="512">
  <defs/>
  <g>
    <path d="M 559.850341796875 399.3446960449219 C 547.8762817382812 517.3806762695312 549.523193359375 525.7646484375 363.6180114746094 550.7177734375 C 291.3457336425781 564.0393676757812 269.72564697265625 559.0073852539062 190.5272979736328 439.1353759765625 C 304.3757019042969 281.6075439453125 380.7318420410156 320.48162841796875 451.4630432128906 318.76019287109375 C 585.341796875 321.2722473144531 582.6859130859375 322.16839599609375 559.850341796875 399.3446960449219" stroke-width="0.0" fill="rgb(176, 105, 148)" opacity="0.040396404" stroke="rgb(0, 0, 0)" stroke-opacity="1.0" stroke-linecap="round" stroke-linejoin="round"/>
    <path d="M 264.8380126953125 334.45355224609375 C 218.1968536376953 360.4510498046875 240.82763671875 413.98858642578125 230.01852416992188 520.948486328125 C -51.20000076293945 524.0781860351562 -51.20000076293945 515.5620727539062 -46.134464263916016 421.33367919921875 C -24.029081344604492 205.09576416015625 -18.390302658081055 203.43386840820312 52.62883758544922 205.28761291503906 C 229.35101318359375 206.2060089111328 250.36817932128906 215.50921630859375 264.8380126953125 334.45355224609375" stroke-width="0.0" fill="rgb(61, 73, 98)" opacity="0.8464646" stroke="rgb(0, 0, 0)" stroke-opacity="1.0" stroke-linecap="round" stroke-linejoin="round"/>
    <path d="M 246.2528076171875 -25.649402618408203 C 144.55198669433594 152.8728485107422 181.20834350585938 223.53697204589844 27.47898292541504 344.5025329589844 C -113.17224884033203 318.59417724609375 -79.69001007080078 262.4197998046875 -56.58381271362305 166.48342895507812 C -15.812456130981445 -17.697975158691406 -9.716771125793457 -23.272192001342773 27.615015029907227 -17.582897186279297 C 195.79283142089844 -21.859926223754883 231.64715576171875 -39.381500244140625 246.2528076171875 -25.649402618408203" stroke-width="0.0" fill="rgb(28, 19, 176)" opacity="0.9126593" stroke="rgb(0, 0, 0)" stroke-opacity="1.0" stroke-linecap="round" stroke-linejoin="round"/>
    <path d="M 537.3421020507812 101.24762725830078 C 457.9188537597656 295.1107177734375 448.63018798828125 303.0902099609375 355.9479064941406 305.3916320800781 C 289.6796875 317.5762939453125 333.7900085449219 292.9447021484375 182.12709045410156 138.0809326171875 C 211.9570770263672 83.2696533203125 185.24537658691406 33.11238479614258 251.3843994140625 -78.57417297363281 C 563.2000122070312 -12.327669143676758 556.7141723632812 3.000692367553711 537.3421020507812 101.24762725830078" stroke-width="0.0" fill="rgb(0, 81, 90)" opacity="0.7272847" stroke="rgb(0, 0, 0)" stroke-opacity="1.0" stroke-linecap="round" stroke-linejoin="round"/>
    <path d="M 383.2022399902344 52.82027816772461 C 212.63050842285156 253.13002014160156 226.3700408935547 284.1792297363281 187.2289276123047 193.52346801757812 C 47.83436965942383 199.95394897460938 115.3625717163086 229.3616943359375 27.859182357788086 157.5626678466797 C 21.09713363647461 114.65031433105469 114.84782409667969 172.2445068359375 295.5603332519531 32.380332946777344 C 313.2538146972656 -5.8550944328308105 349.078369140625 -6.685579299926758 383.2022399902344 52.82027816772461" stroke-width="0.0" fill="rgb(26, 27, 170)" opacity="0.66441524" stroke="rgb(0, 0, 0)" stroke-opacity="1.0" stroke-linecap="round" stroke-linejoin="round"/>
    <path d="M 400.7399597167969 323.88092041015625 C 402.932373046875 409.1385498046875 419.64947509765625 386.3624267578125 181.8681182861328 404.123046875 C 208.40850830078125 481.52618408203125 188.4808349609375 477.9287414550781 136.60397338867188 411.2909240722656 C 119.5316390991211 149.1807861328125 196.7902374267578 175.54910278320312 326.84490966796875 212.21484375 C 438.2132873535156 259.7465515136719 455.7841491699219 220.35052490234375 400.7399597167969 323.88092041015625" stroke-width="0.0" fill="rgb(88, 121, 139)" opacity="1.0" stroke="rgb(0, 0, 0)" stroke-opacity="1.0" stroke-linecap="round" stroke-linejoin="round"/>
    <path d="M 539.7645874023438 260.8655700683594 C 566.3687744140625 329.8557434082031 565.8245239257812 329.351806640625 397.207275390625 321.851806640625 C 300.9335021972656 402.4364013671875 295.5072021484375 409.7613220214844 404.0968322753906 186.32798767089844 C 431.8020935058594 -10.536629676818848 248.00340270996094 -5.970954895019531 430.2652282714844 6.225881099700928 C 530.6690063476562 74.12046813964844 538.882080078125 112.32296752929688 539.7645874023438 260.8655700683594" stroke-width="0.0" fill="rgb(221, 169, 0)" opacity="1.0" stroke="rgb(0, 0, 0)" stroke-opacity="1.0" stroke-linecap="round" stroke-linejoin="round"/>
    <path d="M 352.017333984375 327.7226257324219 C 280.48516845703125 326.3019104003906 344.40985107421875 285.4142761230469 271.307373046875 315.56060791015625 C 213.16647338867188 407.9616394042969 181.71090698242188 342.2860412597656 279.3555603027344 223.41806030273438 C 224.6220703125 226.0161590576172 48.28772735595703 216.51734924316406 305.316162109375 216.40184020996094 C 352.9903259277344 125.02010345458984 414.3999328613281 179.27670288085938 352.017333984375 327.7226257324219" stroke-width="0.0" fill="rgb(197, 230, 103)" opacity="0.7995171" stroke="rgb(0, 0, 0)" stroke-opacity="1.0" stroke-linecap="round" stroke-linejoin="round"/>
    <path d="M 452.0855712890625 190.846435546875 C 426.5809631347656 286.2091369628906 367.5747985839844 244.0943145751953 392.1776428222656 250.12625122070312 C 377.8612976074219 205.90679931640625 296.5953674316406 203.8640899658203 334.13714599609375 185.0051727294922 C 351.07989501953125 233.29193115234375 317.9711608886719 165.4578094482422 365.8534851074219 153.41932678222656 C 454.1146240234375 28.952220916748047 440.8855285644531 -37.468360900878906 452.0855712890625 190.846435546875" stroke-width="0.0" fill="rgb(189, 208, 178)" opacity="0.94640326" stroke="rgb(0, 0, 0)" stroke-opacity="1.0" stroke-linecap="round" stroke-linejoin="round"/>
    <path d="M 246.22019958496094 244.66616821289062 C 155.69235229492188 201.40362548828125 212.81394958496094 237.68560791015625 96.05170440673828 369.4375915527344 C 55.42870330810547 340.95294189453125 166.91603088378906 262.6565856933594 162.1392364501953 222.1717529296875 C 182.46983337402344 211.41015625 154.5128936767578 234.3524169921875 169.30020141601562 208.78460693359375 C 391.92950439453125 218.7362518310547 290.7659912109375 220.38153076171875 246.22019958496094 244.66616821289062" stroke-width="0.0" fill="rgb(255, 231, 236)" opacity="1.0" stroke="rgb(0, 0, 0)" stroke-opacity="1.0" stroke-linecap="round" stroke-linejoin="round"/>
    <path d="M 388.5563049316406 328.92138671875 C 379.54290771484375 306.53857421875 334.120849609375 320.5377502441406 350.90673828125 409.6575012207031 C 237.8764190673828 336.5217590332031 220.1405792236328 327.169189453125 321.9646911621094 280.5649719238281 C 358.35821533203125 243.023681640625 340.2239685058594 194.71966552734375 431.5450744628906 146.815185546875 C 552.5934448242188 221.46507263183594 403.23675537109375 191.9593963623047 388.5563049316406 328.92138671875" stroke-width="0.0" fill="rgb(175, 117, 0)" opacity="1.0" stroke="rgb(0, 0, 0)" stroke-opacity="1.0" stroke-linecap="round" stroke-linejoin="round"/>
    <path d="M 252.29698181152344 327.7112121582031 C 191.3557891845703 377.6548156738281 155.34718322753906 402.5970458984375 189.03994750976562 454.5867004394531 C 114.8761978149414 428.74481201171875 101.85984802246094 417.5171203613281 91.75481414794922 358.34027099609375 C 107.68302917480469 381.4621276855469 133.78053283691406 371.99774169921875 182.69432067871094 295.8143310546875 C 222.67349243164062 198.27467346191406 227.64610290527344 169.1280975341797 252.29698181152344 327.7112121582031" stroke-width="0.0" fill="rgb(255, 232, 213)" opacity="0.9879489" stroke="rgb(0, 0, 0)" stroke-opacity="1.0" stroke-linecap="round" stroke-linejoin="round"/>
    <path d="M 544.4757690429688 47.71916580200195 C 529.3389282226562 160.8524627685547 575.9114379882812 182.46229553222656 521.165771484375 153.06185913085938 C 384.95654296875 107.88180541992188 441.1874084472656 42.18301010131836 310.5994567871094 108.28015899658203 C 243.49191284179688 -25.618192672729492 308.55029296875 -20.450998306274414 415.10614013671875 -14.611529350280762 C 526.1054077148438 -27.190488815307617 526.8790283203125 -17.456684112548828 544.4757690429688 47.71916580200195" stroke-width="0.0" fill="rgb(39, 26, 193)" opacity="0.98964447" stroke="rgb(0, 0, 0)" stroke-opacity="1.0" stroke-linecap="round" stroke-linejoin="round"/>
    <path d="M 358.9767761230469 426.9785461425781 C 354.117919921875 408.3027038574219 326.8304443359375 389.7399597167969 265.5273742675781 400.76031494140625 C 207.3373260498047 395.6275939941406 178.29649353027344 409.4049072265625 169.83189392089844 431.58111572265625 C 203.02145385742188 366.2105407714844 215.0515899658203 337.37890625 250.3485107421875 359.0543212890625 C 290.7378234863281 379.5423278808594 336.33477783203125 394.6868591308594 358.9767761230469 426.9785461425781" stroke-width="0.0" fill="rgb(94, 153, 11)" opacity="0.9281995" stroke="rgb(0, 0, 0)" stroke-opacity="1.0" stroke-linecap="round" stroke-linejoin="round"/>
    <path d="M 244.0067138671875 268.3837585449219 C 229.48486328125 162.22702026367188 226.11105346679688 227.23248291015625 147.74667358398438 337.75677490234375 C 33.90439987182617 449.903564453125 175.59620666503906 280.52789306640625 177.69285583496094 250.12521362304688 C 224.56573486328125 187.28009033203125 161.92323303222656 238.44309997558594 211.91546630859375 227.6309051513672 C 229.83518981933594 209.52586364746094 248.37269592285156 213.55247497558594 244.0067138671875 268.3837585449219" stroke-width="0.0" fill="rgb(3, 55, 72)" opacity="0.71540755" stroke="rgb(0, 0, 0)" stroke-opacity="1.0" stroke-linecap="round" stroke-linejoin="round"/>
    <path d="M 347.93353271484375 4.875982761383057 C 258.6584167480469 74.6746597290039 275.3067321777344 132.51516723632812 249.5257568359375 79.62843322753906 C 182.83399963378906 34.574615478515625 199.34246826171875 109.49822235107422 151.5335693359375 72.5578384399414 C 186.5941619873047 32.933319091796875 200.92098999023438 22.904333114624023 201.9184112548828 -14.519513130187988 C 204.93170166015625 -33.438907623291016 245.32154846191406 -57.258628845214844 347.93353271484375 4.875982761383057" stroke-width="0.0" fill="rgb(47, 40, 194)" opacity="1.0" stroke="rgb(0, 0, 0)" stroke-opacity="1.0" stroke-linecap="round" stroke-linejoin="round"/>
    <path d="M 73.94752502441406 457.484619140625 C 54.01327896118164 467.1217346191406 59.0577392578125 446.8603210449219 11.811431884765625 510.9902648925781 C -38.7280387878418 492.3279724121094 0.6689268350601196 456.8570251464844 -7.705284595489502 396.5279541015625 C -3.462256669998169 369.86083984375 -13.171404838562012 338.715576171875 30.48995590209961 314.0247802734375 C 96.97694396972656 320.7746887207031 72.63502502441406 323.52191162109375 73.94752502441406 457.484619140625" stroke-width="0.0" fill="rgb(188, 103, 0)" opacity="1.0" stroke="rgb(0, 0, 0)" stroke-opacity="1.0" stroke-linecap="round" stroke-linejoin="round"/>
    <path d="M 338.72467041015625 103.96980285644531 C 388.912109375 121.93657684326172 341.16864013671875 167.48760986328125 264.62884521484375 224.74986267089844 C 149.50851440429688 128.06553649902344 28.43185043334961 351.6558532714844 190.0500030517578 118.84888458251953 C 341.4117736816406 197.40951538085938 234.1219024658203 154.18878173828125 340.74542236328125 104.96381378173828 C 357.0282897949219 85.41136932373047 341.5950927734375 51.19466018676758 338.72467041015625 103.96980285644531" stroke-width="0.0" fill="rgb(218, 224, 0)" opacity="1.0" stroke="rgb(0, 0, 0)" stroke-opacity="1.0" stroke-linecap="round" stroke-linejoin="round"/>
    <path d="M 352.608642578125 254.44131469726562 C 251.8792724609375 188.51974487304688 202.49998474121094 278.0399169921875 202.46481323242188 317.5397644042969 C 256.1717224121094 354.341552734375 276.1154479980469 306.3149108886719 193.56002807617188 304.5718078613281 C 119.53679656982422 450.3966979980469 172.65951538085938 384.7540283203125 272.82421875 375.53741455078125 C 272.6351013183594 357.8094482421875 267.41937255859375 383.9241638183594 352.608642578125 254.44131469726562" stroke-width="0.0" fill="rgb(36, 127, 0)" opacity="1.0" stroke="rgb(0, 0, 0)" stroke-opacity="1.0" stroke-linecap="round" stroke-linejoin="round"/>
    <path d="M 395.5553894042969 165.54107666015625 C 359.72216796875 120.85347747802734 371.4054870605469 140.98390197753906 359.3575134277344 152.63943481445312 C 355.567138671875 189.6700439453125 365.7749328613281 192.41372680664062 365.18096923828125 201.6984405517578 C 369.9566650390625 211.91322326660156 349.29248046875 153.0596160888672 352.349609375 152.40582275390625 C 361.44757080078125 197.9423065185547 357.3414001464844 230.36753845214844 395.5553894042969 165.54107666015625" stroke-width="0.0" fill="rgb(162, 207, 184)" opacity="0.61056703" stroke="rgb(0, 0, 0)" stroke-opacity="1.0" stroke-linecap="round" stroke-linejoin="round"/>
    <path d="M 164.73455810546875 210.11378479003906 C 68.78567504882812 315.2388916015625 111.66485595703125 260.3800354003906 78.89668273925781 418.5268249511719 C 84.55807495117188 298.7416076660156 69.29498291015625 291.25054931640625 92.17913055419922 243.48194885253906 C 109.92366027832031 261.588134765625 53.785438537597656 272.8385314941406 132.9891357421875 262.34686279296875 C 45.965797424316406 197.30148315429688 261.9425964355469 200.5154571533203 164.73455810546875 210.11378479003906" stroke-width="0.0" fill="rgb(96, 48, 74)" opacity="0.043150116" stroke="rgb(0, 0, 0)" stroke-opacity="1.0" stroke-linecap="round" stroke-linejoin="round"/>
    <path d="M 310.5960388183594 223.78189086914062 C 268.8146667480469 245.92095947265625 244.93008422851562 274.12127685546875 253.50173950195312 193.2250213623047 C 284.8551940917969 197.16651916503906 141.80093383789062 205.41087341308594 189.604736328125 173.36865234375 C 263.2428894042969 209.88052368164062 284.3123779296875 217.59292602539062 297.6607666015625 224.5840606689453 C 305.14556884765625 199.33380126953125 303.8470458984375 181.89878845214844 310.5960388183594 223.78189086914062" stroke-width="0.0" fill="rgb(226, 231, 212)" opacity="0.9354078" stroke="rgb(0, 0, 0)" stroke-opacity="1.0" stroke-linecap="round" stroke-linejoin="round"/>
    <path d="M 139.76907348632812 275.85955810546875 C 99.79772186279297 320.6221923828125 84.78793334960938 342.56903076171875 56.103973388671875 357.90179443359375 C 49.8876953125 341.4312744140625 65.06783294677734 315.5260925292969 83.19461822509766 296.06494140625 C 89.58965301513672 313.39398193359375 88.49418640136719 281.817626953125 74.52214050292969 263.7593688964844 C 60.79986572265625 312.20062255859375 76.96205139160156 286.596435546875 139.76907348632812 275.85955810546875" stroke-width="0.0" fill="rgb(127, 169, 0)" opacity="0.84135705" stroke="rgb(0, 0, 0)" stroke-opacity="1.0" stroke-linecap="round" stroke-linejoin="round"/>
    <path d="M 161.04444885253906 243.99838256835938 C 47.27887725830078 305.3352966308594 83.42362213134766 268.7003173828125 66.17316436767578 294.15667724609375 C 70.20292663574219 355.1028137207031 62.510009765625 347.40185546875 64.54271697998047 346.67279052734375 C 39.50819396972656 257.0929260253906 32.75300216674805 317.0415954589844 94.80683135986328 252.4779510498047 C 128.8922882080078 273.15252685546875 173.02340698242188 245.5022430419922 161.04444885253906 243.99838256835938" stroke-width="0.0" fill="rgb(100, 144, 37)" opacity="0.8388738" stroke="rgb(0, 0, 0)" stroke-opacity="1.0" stroke-linecap="round" stroke-linejoin="round"/>
    <path d="M 252.98660278320312 223.50927734375 C 248.5341339111328 289.2579040527344 268.8491516113281 305.32373046875 231.6167449951172 329.0751647949219 C 216.9990997314453 262.0585632324219 234.2310333251953 234.20236206054688 257.5152893066406 248.52174377441406 C 245.739990234375 248.56935119628906 256.6233825683594 228.88638305664062 253.03628540039062 210.919677734375 C 243.54917907714844 214.16378784179688 257.9642333984375 232.80296325683594 252.98660278320312 223.50927734375" stroke-width="0.0" fill="rgb(3, 101, 50)" opacity="0.71685976" stroke="rgb(0, 0, 0)" stroke-opacity="1.0" stroke-linecap="round" stroke-linejoin="round"/>
    <path d="M 289.6142272949219 163.58607482910156 C 214.090576171875 194.4397735595703 296.4447326660156 205.99159240722656 179.7310028076172 201.51382446289062 C 166.27711486816406 262.1075744628906 13.749312400817871 246.15953063964844 153.52992248535156 135.101806640625 C 192.29002380371094 73.59494018554688 252.03219604492188 104.65571594238281 261.6952819824219 124.48387145996094 C 264.84552001953125 131.41685485839844 277.1524963378906 123.80616760253906 289.6142272949219 163.58607482910156" stroke-width="0.0" fill="rgb(34, 15, 200)" opacity="0.9998327" stroke="rgb(0, 0, 0)" stroke-opacity="1.0" stroke-linecap="round" stroke-linejoin="round"/>
    <path d="M 292.998291015625 248.87744140625 C 268.7528381347656 213.18145751953125 280.787841796875 218.09242248535156 289.90509033203125 243.15762329101562 C 287.7906799316406 238.01776123046875 300.88580322265625 167.49183654785156 263.68048095703125 199.32781982421875 C 270.6633605957031 209.330810546875 252.06129455566406 243.369384765625 317.471923828125 187.50186157226562 C 352.15045166015625 293.6163635253906 332.4161682128906 120.20524597167969 292.998291015625 248.87744140625" stroke-width="0.0" fill="rgb(159, 74, 207)" opacity="0.14067501" stroke="rgb(0, 0, 0)" stroke-opacity="1.0" stroke-linecap="round" stroke-linejoin="round"/>
    <path d="M 290.50775146484375 413.55914306640625 C 265.45660400390625 396.5700988769531 251.1773681640625 393.49505615234375 170.04124450683594 406.6427001953125 C 207.05841064453125 429.0924072265625 185.67138671875 434.7859802246094 121.19485473632812 443.3001708984375 C 225.64309692382812 444.86865234375 240.29380798339844 446.3197021484375 250.02392578125 445.43341064453125 C 247.4474639892578 410.8928527832031 260.9986572265625 401.01861572265625 290.50775146484375 413.55914306640625" stroke-width="0.0" fill="rgb(187, 76, 255)" opacity="0.112094395" stroke="rgb(0, 0, 0)" stroke-opacity="1.0" stroke-linecap="round" stroke-linejoin="round"/>
    <path d="M 169.2744598388672 219.71878051757812 C 197.81700134277344 191.42759704589844 184.51077270507812 213.33438110351562 165.88473510742188 226.41033935546875 C 108.6594467163086 233.8964385986328 113.81438446044922 233.10617065429688 150.16615295410156 224.97750854492188 C 165.0963897705078 229.24549865722656 168.74737548828125 235.78831481933594 165.15936279296875 208.19247436523438 C 137.188720703125 223.76756286621094 147.630615234375 243.0203094482422 169.2744598388672 219.71878051757812" stroke-width="0.0" fill="rgb(128, 98, 145)" opacity="0.67321956" stroke="rgb(0, 0, 0)" stroke-opacity="1.0" stroke-linecap="round" stroke-linejoin="round"/>
    <path d="M 122.5411148071289 283.1401672363281 C 105.84735870361328 287.7476806640625 104.27809143066406 332.48260498046875 76.89026641845703 310.54705810546875 C 41.2347526550293 327.42095947265625 54.815486907958984 328.896240234375 44.33723068237305 323.21746826171875 C 51.8021240234375 295.0687561035156 61.740020751953125 305.7262268066406 69.35932922363281 284.3752746582031 C 87.72708129882812 236.462158203125 118.70328521728516 252.38406372070312 122.5411148071289 283.1401672363281" stroke-width="0.0" fill="rgb(253, 191, 0)" opacity="0.947489" stroke="rgb(0, 0, 0)" stroke-opacity="1.0" stroke-linecap="round" stroke-linejoin="round"/>
    <path d="M 298.6880798339844 406.5021057128906 C 309.13055419921875 426.0140380859375 277.7005920410156 431.22039794921875 298.13262939453125 418.9375 C 286.0365905761719 411.7951354980469 265.8161926269531 404.30743408203125 275.4691162109375 395.77813720703125 C 314.2375183105469 394.1443176269531 309.1220397949219 434.51727294921875 300.802001953125 452.31134033203125 C 303.23388671875 428.27301025390625 324.3561096191406 414.22528076171875 298.6880798339844 406.5021057128906" stroke-width="0.0" fill="rgb(184, 51, 205)" opacity="0.67865765" stroke="rgb(0, 0, 0)" stroke-opacity="1.0" stroke-linecap="round" stroke-linejoin="round"/>
    <path d="M 451.32464599609375 460.994140625 C 418.685302734375 478.6517639160156 393.04052734375 477.0350341796875 385.8290710449219 489.6711120605469 C 383.1395263671875 473.5179138183594 363.6158447265625 460.9373779296875 357.661376953125 452.07843017578125 C 382.46795654296875 439.6206359863281 384.1109619140625 420.5760192871094 424.5381164550781 370.33880615234375 C 477.0140380859375 375.7847900390625 464.42694091796875 416.9703369140625 451.32464599609375 460.994140625" stroke-width="0.0" fill="rgb(131, 227, 215)" opacity="0.44986784" stroke="rgb(0, 0, 0)" stroke-opacity="1.0" stroke-linecap="round" stroke-linejoin="round"/>
    <path d="M 300.7872314453125 393.4058837890625 C 294.77972412109375 397.3454895019531 282.82672119140625 408.8348693847656 260.7558898925781 406.48651123046875 C 256.5780029296875 387.1256408691406 216.21420288085938 389.4111022949219 210.5403594970703 381.5155334472656 C 214.70994567871094 353.7928466796875 243.5046844482422 331.3807067871094 270.7411804199219 326.21710205078125 C 319.63323974609375 342.45428466796875 328.60357666015625 382.5955505371094 300.7872314453125 393.4058837890625" stroke-width="0.0" fill="rgb(254, 56, 48)" opacity="0.9925001" stroke="rgb(0, 0, 0)" stroke-opacity="1.0" stroke-linecap="round" stroke-linejoin="round"/>
    <path d="M 353.79168701171875 99.08845520019531 C 270.36297607421875 138.21218872070312 290.5264892578125 129.61105346679688 283.6078796386719 88.26802062988281 C 253.3523712158203 92.3730239868164 258.8575439453125 100.7171401977539 268.78411865234375 127.3792724609375 C 252.60540771484375 104.52676391601562 279.6660461425781 104.62532806396484 300.66534423828125 111.36015319824219 C 299.31494140625 88.49444580078125 334.2315979003906 65.47815704345703 353.79168701171875 99.08845520019531" stroke-width="0.0" fill="rgb(50, 41, 211)" opacity="0.4932515" stroke="rgb(0, 0, 0)" stroke-opacity="1.0" stroke-linecap="round" stroke-linejoin="round"/>
    <path d="M 349.3216247558594 417.1499328613281 C 349.48785400390625 422.5038146972656 337.250244140625 396.0443115234375 301.8117370605469 420.8298645019531 C 334.080078125 416.7587890625 327.2179870605469 387.8552551269531 305.5113220214844 407.9852600097656 C 273.3445739746094 398.3427429199219 288.6866455078125 391.26708984375 329.7422180175781 378.8778991699219 C 363.19366455078125 375.2157897949219 351.0285339355469 368.03070068359375 349.3216247558594 417.1499328613281" stroke-width="0.0" fill="rgb(93, 93, 157)" opacity="0.87304413" stroke="rgb(0, 0, 0)" stroke-opacity="1.0" stroke-linecap="round" stroke-linejoin="round"/>
    <path d="M 435.4085693359375 99.18208312988281 C 429.14532470703125 71.23680114746094 383.6748352050781 73.0728988647461 421.2039794921875 69.20940399169922 C 359.0186462402344 87.62118530273438 308.05963134765625 85.62450408935547 360.7871398925781 104.85440063476562 C 382.3741149902344 71.26435852050781 371.7995300292969 96.17286682128906 385.6070556640625 84.82431030273438 C 361.3797302246094 84.98237609863281 370.4676513671875 114.9924545288086 435.4085693359375 99.18208312988281" stroke-width="0.0" fill="rgb(108, 115, 70)" opacity="0.65038025" stroke="rgb(0, 0, 0)" stroke-opacity="1.0" stroke-linecap="round" stroke-linejoin="round"/>
    <path d="M 81.56342315673828 496.7337341308594 C 42.7204475402832 512.639892578125 50.82329559326172 491.8870849609375 47.92045593261719 542.9635620117188 C 19.485004425048828 534.0068969726562 28.744991302490234 502.06744384765625 17.5621280670166 481.72332763671875 C -0.10922828316688538 465.8844299316406 15.905505180358887 424.1183166503906 63.24140167236328 374.1295471191406 C 107.19348907470703 418.52642822265625 114.39405059814453 468.2845153808594 81.56342315673828 496.7337341308594" stroke-width="0.0" fill="rgb(255, 255, 0)" opacity="1.0" stroke="rgb(0, 0, 0)" stroke-opacity="1.0" stroke-linecap="round" stroke-linejoin="round"/>
    <path d="M 216.4500732421875 370.6424255371094 C 200.6728057861328 354.3038330078125 180.92306518554688 378.8111877441406 170.23660278320312 396.61431884765625 C 173.2222442626953 395.51800537109375 184.56690979003906 385.6384582519531 164.3359832763672 396.4947814941406 C 163.38450622558594 376.8016662597656 166.3974609375 355.0551452636719 176.50091552734375 329.2161865234375 C 196.50723266601562 373.0022277832031 214.15121459960938 373.9607849121094 216.4500732421875 370.6424255371094" stroke-width="0.0" fill="rgb(221, 170, 117)" opacity="0.0" stroke="rgb(0, 0, 0)" stroke-opacity="1.0" stroke-linecap="round" stroke-linejoin="round"/>
    <path d="M 197.19497680664062 237.98977661132812 C 172.77267456054688 264.39996337890625 150.87417602539062 256.34417724609375 162.29640197753906 289.4674987792969 C 161.78970336914062 270.5989074707031 161.69546508789062 274.5032043457031 145.911865234375 265.43853759765625 C 170.59286499023438 254.35577392578125 205.7469482421875 227.08628845214844 176.3050537109375 236.06272888183594 C 170.143798828125 226.6145477294922 185.86380004882812 245.1666717529297 197.19497680664062 237.98977661132812" stroke-width="0.0" fill="rgb(110, 60, 148)" opacity="0.107296996" stroke="rgb(0, 0, 0)" stroke-opacity="1.0" stroke-linecap="round" stroke-linejoin="round"/>
    <path d="M 6.3821210861206055 454.40142822265625 C 19.668598175048828 450.701904296875 -8.226715087890625 464.7384033203125 -18.860437393188477 488.3340148925781 C -11.231096267700195 516.8573608398438 -19.370819091796875 508.7378234863281 -23.33714485168457 476.3544616699219 C -20.401592254638672 432.65521240234375 -29.240371704101562 407.6166076660156 -12.244729995727539 438.9007568359375 C 23.404821395874023 462.1136474609375 -1.9529637098312378 428.38482666015625 6.3821210861206055 454.40142822265625" stroke-width="0.0" fill="rgb(107, 77, 47)" opacity="0.3276591" stroke="rgb(0, 0, 0)" stroke-opacity="1.0" stroke-linecap="round" stroke-linejoin="round"/>
    <path d="M 240.5465850830078 66.79217529296875 C 238.09962463378906 107.47998046875 222.8590087890625 94.90998077392578 207.0363311767578 115.97478485107422 C 155.67831420898438 115.97245025634766 140.4490203857422 114.69979095458984 177.78099060058594 87.62454986572266 C 148.18222045898438 44.987606048583984 170.79454040527344 35.897335052490234 232.6552734375 60.665611267089844 C 212.81590270996094 72.89214324951172 247.8832550048828 53.794639587402344 240.5465850830078 66.79217529296875" stroke-width="0.0" fill="rgb(254, 61, 8)" opacity="0.9834873" stroke="rgb(0, 0, 0)" stroke-opacity="1.0" stroke-linecap="round" stroke-linejoin="round"/>
    <path d="M 211.5774383544922 447.6840515136719 C 267.22259521484375 445.1457214355469 248.62840270996094 454.0664367675781 272.7293701171875 482.8702087402344 C 240.7515411376953 482.848388671875 245.69602966308594 470.8560485839844 231.58123779296875 449.1033630371094 C 211.40008544921875 432.2923583984375 208.1348876953125 429.9415588378906 242.0386199951172 446.8812561035156 C 242.4582061767578 449.6392517089844 229.06964111328125 452.7867431640625 211.5774383544922 447.6840515136719" stroke-width="0.0" fill="rgb(227, 140, 216)" opacity="0.008319504" stroke="rgb(0, 0, 0)" stroke-opacity="1.0" stroke-linecap="round" stroke-linejoin="round"/>
    <path d="M 374.8453674316406 472.28875732421875 C 345.9595642089844 490.7915954589844 309.3694152832031 473.19024658203125 315.107421875 489.9796447753906 C 322.39495849609375 490.46734619140625 306.4525451660156 478.0343017578125 257.75506591796875 443.0683288574219 C 290.66363525390625 439.9062194824219 345.3486633300781 452.0354309082031 341.686767578125 459.5303955078125 C 362.2532043457031 451.3877868652344 377.99749755859375 457.4766845703125 374.8453674316406 472.28875732421875" stroke-width="0.0" fill="rgb(217, 255, 252)" opacity="0.04871671" stroke="rgb(0, 0, 0)" stroke-opacity="1.0" stroke-linecap="round" stroke-linejoin="round"/>
    <path d="M 368.1546936035156 231.39065551757812 C 358.9466857910156 227.76426696777344 333.66131591796875 219.4249725341797 327.2464599609375 228.7307586669922 C 323.8536376953125 238.06192016601562 322.1177062988281 243.0758819580078 295.4082946777344 253.08851623535156 C 332.982666015625 251.64462280273438 339.4362487792969 234.2613525390625 351.69622802734375 212.57920837402344 C 346.76312255859375 246.5659942626953 353.0412902832031 229.90711975097656 368.1546936035156 231.39065551757812" stroke-width="0.0" fill="rgb(181, 246, 38)" opacity="0.66093725" stroke="rgb(0, 0, 0)" stroke-opacity="1.0" stroke-linecap="round" stroke-linejoin="round"/>
    <path d="M 501.4884033203125 412.9761657714844 C 539.5143432617188 445.23297119140625 555.3159790039062 466.63641357421875 505.5021667480469 474.9053649902344 C 452.7259521484375 479.4497375488281 458.1279602050781 463.6629638671875 444.12835693359375 450.9179992675781 C 453.4644470214844 418.23406982421875 444.72515869140625 429.7770080566406 459.4024963378906 432.40380859375 C 467.65313720703125 396.46630859375 482.5506591796875 384.5017395019531 501.4884033203125 412.9761657714844" stroke-width="0.0" fill="rgb(255, 89, 2)" opacity="0.9993907" stroke="rgb(0, 0, 0)" stroke-opacity="1.0" stroke-linecap="round" stroke-linejoin="round"/>
    <path d="M 192.20767211914062 417.9171447753906 C 191.64588928222656 449.42327880859375 164.3404541015625 460.2400817871094 191.83657836914062 443.3151550292969 C 168.6100311279297 442.9599304199219 146.2444610595703 424.00067138671875 144.98585510253906 393.82672119140625 C 161.5646209716797 409.2215576171875 181.10842895507812 409.7362976074219 187.8822784423828 386.070556640625 C 196.8701171875 389.4853210449219 220.71792602539062 405.0974426269531 192.20767211914062 417.9171447753906" stroke-width="0.0" fill="rgb(247, 72, 29)" opacity="0.93996567" stroke="rgb(0, 0, 0)" stroke-opacity="1.0" stroke-linecap="round" stroke-linejoin="round"/>
    <path d="M 331.0620422363281 415.5985107421875 C 319.0143737792969 448.6546630859375 349.93780517578125 453.6527404785156 306.9930725097656 443.6521301269531 C 264.0744934082031 434.07562255859375 247.001708984375 417.57720947265625 258.1680908203125 401.614990234375 C 255.24749755859375 394.4300842285156 274.02618408203125 380.41033935546875 302.5167541503906 369.5818176269531 C 326.9471740722656 370.540283203125 341.0431823730469 369.1601257324219 331.0620422363281 415.5985107421875" stroke-width="0.0" fill="rgb(128, 71, 92)" opacity="0.034584995" stroke="rgb(0, 0, 0)" stroke-opacity="1.0" stroke-linecap="round" stroke-linejoin="round"/>
    <path d="M 406.8514099121094 390.05059814453125 C 354.53131103515625 380.6052551269531 384.46771240234375 439.00091552734375 375.1736145019531 417.04217529296875 C 386.68377685546875 399.0624084472656 354.6695556640625 416.5308532714844 381.0099792480469 396.01641845703125 C 399.2253112792969 406.97332763671875 398.2051696777344 388.1595764160156 370.8132629394531 384.7209167480469 C 413.428955078125 377.5141906738281 433.9888000488281 376.7213439941406 406.8514099121094 390.05059814453125" stroke-width="0.0" fill="rgb(173, 61, 100)" opacity="0.66735494" stroke="rgb(0, 0, 0)" stroke-opacity="1.0" stroke-linecap="round" stroke-linejoin="round"/>
    <path d="M 351.3993225097656 380.0133972167969 C 346.0726623535156 416.98675537109375 338.3677978515625 428.44354248046875 334.6356506347656 407.35638427734375 C 336.4388122558594 394.7663269042969 323.8727722167969 384.10552978515625 308.4183349609375 364.8670349121094 C 310.9303894042969 377.9661560058594 339.01727294921875 369.6225280761719 327.51580810546875 373.5047302246094 C 343.3227233886719 338.08795166015625 355.0176086425781 333.1504211425781 351.3993225097656 380.0133972167969" stroke-width="0.0" fill="rgb(79, 75, 106)" opacity="0.3505045" stroke="rgb(0, 0, 0)" stroke-opacity="1.0" stroke-linecap="round" stroke-linejoin="round"/>
    <path d="M 44.27925491333008 516.1240844726562 C 60.007484436035156 522.4855346679688 70.64861297607422 539.6915283203125 62.17112350463867 549.6895141601562 C -15.711716651916504 517.1024780273438 -20.627351760864258 503.1396789550781 -2.488464832305908 500.6551513671875 C 4.657153606414795 487.60394287109375 47.63406753540039 506.7370300292969 44.828365325927734 496.8906555175781 C 32.91563034057617 454.56524658203125 39.62542724609375 483.7381591796875 44.27925491333008 516.1240844726562" stroke-width="0.0" fill="rgb(77, 161, 0)" opacity="0.99039936" stroke="rgb(0, 0, 0)" stroke-opacity="1.0" stroke-linecap="round" stroke-linejoin="round"/>
    <path d="M 142.95318603515625 342.3678283691406 C 160.4535369873047 451.9405212402344 157.78488159179688 429.6463623046875 106.81896209716797 380.2841796875 C 102.21095275878906 362.35296630859375 88.58389282226562 387.0787658691406 99.4444808959961 400.366943359375 C 99.33084869384766 361.8108825683594 95.1207504272461 370.7856140136719 110.25740814208984 367.8128662109375 C 104.50466918945312 343.12457275390625 136.97085571289062 340.9326477050781 142.95318603515625 342.3678283691406" stroke-width="0.0" fill="rgb(16, 55, 69)" opacity="0.9828398" stroke="rgb(0, 0, 0)" stroke-opacity="1.0" stroke-linecap="round" stroke-linejoin="round"/>
    <path d="M 123.443603515625 431.60955810546875 C 109.05215454101562 445.2129211425781 111.49407958984375 439.7597961425781 112.89147186279297 427.0277404785156 C 116.70903015136719 433.7371520996094 86.14847564697266 437.3634033203125 86.19596099853516 381.4023132324219 C 90.14250946044922 394.7955627441406 86.55380249023438 424.3834533691406 84.85768127441406 401.95196533203125 C 97.67943572998047 395.68017578125 115.0693359375 402.6142578125 123.443603515625 431.60955810546875" stroke-width="0.0" fill="rgb(53, 82, 140)" opacity="0.43713534" stroke="rgb(0, 0, 0)" stroke-opacity="1.0" stroke-linecap="round" stroke-linejoin="round"/>
    <path d="M 478.9522705078125 83.78453063964844 C 483.5444030761719 183.6001434326172 463.6911315917969 141.75375366210938 423.5350646972656 110.24594116210938 C 410.27197265625 118.6019287109375 378.3305358886719 143.2119903564453 393.1688232421875 67.7804946899414 C 384.9708251953125 69.57966613769531 396.7582092285156 81.83734130859375 439.7253723144531 97.55711364746094 C 430.3353576660156 50.40498352050781 437.556396484375 93.68408966064453 478.9522705078125 83.78453063964844" stroke-width="0.0" fill="rgb(230, 198, 202)" opacity="0.995878" stroke="rgb(0, 0, 0)" stroke-opacity="1.0" stroke-linecap="round" stroke-linejoin="round"/>
    <path d="M 142.98182678222656 206.03903198242188 C 156.940185546875 224.2383270263672 103.83417510986328 227.78977966308594 82.30768585205078 178.91578674316406 C 84.05204010009766 155.7608642578125 62.30141830444336 156.95474243164062 64.84026336669922 149.51588439941406 C 72.38098907470703 131.14732360839844 67.98445892333984 137.49847412109375 49.4171142578125 135.0611572265625 C 100.3171615600586 134.50579833984375 136.9026641845703 133.1595001220703 142.98182678222656 206.03903198242188" stroke-width="0.0" fill="rgb(50, 0, 179)" opacity="0.49862573" stroke="rgb(0, 0, 0)" stroke-opacity="1.0" stroke-linecap="round" stroke-linejoin="round"/>
    <path d="M 134.21908569335938 119.87738037109375 C 138.49209594726562 160.26699829101562 122.41256713867188 168.69229125976562 108.8325424194336 171.05905151367188 C 73.37409210205078 156.1828155517578 28.691696166992188 161.04331970214844 39.19570541381836 104.13506317138672 C 48.449462890625 80.14572143554688 88.52137756347656 85.53516387939453 94.77332305908203 128.2835235595703 C 96.28705596923828 151.1655731201172 122.4024429321289 116.73043823242188 134.21908569335938 119.87738037109375" stroke-width="0.0" fill="rgb(0, 12, 228)" opacity="0.9474761" stroke="rgb(0, 0, 0)" stroke-opacity="1.0" stroke-linecap="round" stroke-linejoin="round"/>
    <path d="M 559.9075317382812 447.00628662109375 C 537.306640625 534.6031494140625 529.3564453125 542.0444946289062 372.06329345703125 531.57958984375 C 373.4789733886719 521.8619995117188 398.71099853515625 518.6795654296875 441.6911926269531 488.7959289550781 C 454.5132751464844 470.5419006347656 490.8613586425781 509.5257873535156 519.907470703125 473.1044921875 C 530.8033447265625 441.2444152832031 544.676513671875 446.9140319824219 559.9075317382812 447.00628662109375" stroke-width="0.0" fill="rgb(161, 136, 2)" opacity="0.97812307" stroke="rgb(0, 0, 0)" stroke-opacity="1.0" stroke-linecap="round" stroke-linejoin="round"/>
    <path d="M 460.96002197265625 338.7397766113281 C 456.6796569824219 317.7740783691406 399.4586486816406 306.2518615722656 385.20855712890625 327.69671630859375 C 395.65985107421875 339.71771240234375 388.3720397949219 328.72479248046875 383.33636474609375 310.5860595703125 C 385.9953308105469 298.2912292480469 375.50067138671875 260.9068298339844 426.8301086425781 209.7716064453125 C 471.7818603515625 256.694580078125 486.30499267578125 279.6718444824219 460.96002197265625 338.7397766113281" stroke-width="0.0" fill="rgb(255, 249, 0)" opacity="1.0" stroke="rgb(0, 0, 0)" stroke-opacity="1.0" stroke-linecap="round" stroke-linejoin="round"/>
    <path d="M 245.9145050048828 419.99334716796875 C 274.8742370605469 431.4665222167969 272.5646057128906 462.1396179199219 256.0822448730469 457.4159240722656 C 271.27655029296875 407.83477783203125 268.36260986328125 401.51031494140625 259.7884216308594 411.410888671875 C 273.4204406738281 410.81298828125 256.4337463378906 376.6052551269531 259.1451416015625 416.9326171875 C 257.4049987792969 421.0140686035156 253.25863647460938 423.1229553222656 245.9145050048828 419.99334716796875" stroke-width="0.0" fill="rgb(50, 15, 121)" opacity="0.8906555" stroke="rgb(0, 0, 0)" stroke-opacity="1.0" stroke-linecap="round" stroke-linejoin="round"/>
    <path d="M 160.07858276367188 341.750732421875 C 163.3314971923828 318.2101745605469 139.50860595703125 346.4810791015625 136.52789306640625 373.94647216796875 C 153.14283752441406 385.7289123535156 155.02792358398438 365.0141296386719 120.46090698242188 340.9797058105469 C 151.2395477294922 317.5967102050781 164.5214080810547 313.5540771484375 152.46173095703125 335.5090026855469 C 154.3163604736328 328.64263916015625 150.2566375732422 325.190673828125 160.07858276367188 341.750732421875" stroke-width="0.0" fill="rgb(0, 37, 65)" opacity="0.46253213" stroke="rgb(0, 0, 0)" stroke-opacity="1.0" stroke-linecap="round" stroke-linejoin="round"/>
    <path d="M 169.6315155029297 15.120295524597168 C 168.76535034179688 39.299888610839844 139.55972290039062 70.27967071533203 116.54325103759766 34.87470626831055 C 126.86660766601562 -33.04812240600586 144.35488891601562 -26.636444091796875 143.23190307617188 -10.759139060974121 C 120.77424621582031 1.3347992897033691 142.4303741455078 -13.146337509155273 163.64927673339844 -24.93532371520996 C 161.04002380371094 -9.92760181427002 158.89137268066406 7.029249668121338 169.6315155029297 15.120295524597168" stroke-width="0.0" fill="rgb(18, 1, 221)" opacity="0.03160314" stroke="rgb(0, 0, 0)" stroke-opacity="1.0" stroke-linecap="round" stroke-linejoin="round"/>
    <path d="M 289.5304870605469 277.0928039550781 C 299.4228820800781 330.62445068359375 282.51806640625 319.5286865234375 244.4254608154297 343.09423828125 C 229.6244354248047 340.38970947265625 231.2208709716797 306.1574401855469 235.53305053710938 316.8793640136719 C 244.86033630371094 297.123291015625 244.48822021484375 302.8877868652344 266.6358642578125 315.1394348144531 C 275.87811279296875 318.55670166015625 290.75494384765625 279.0090026855469 289.5304870605469 277.0928039550781" stroke-width="0.0" fill="rgb(173, 67, 8)" opacity="1.0" stroke="rgb(0, 0, 0)" stroke-opacity="1.0" stroke-linecap="round" stroke-linejoin="round"/>
    <path d="M 147.16473388671875 140.8529510498047 C 149.8667449951172 222.51486206054688 59.28832244873047 216.39801025390625 38.586158752441406 177.14013671875 C 93.7464599609375 155.72512817382812 69.9352035522461 145.86805725097656 60.36714172363281 98.53612518310547 C 36.6996955871582 97.86054992675781 26.777393341064453 89.2456283569336 69.66358184814453 68.74176788330078 C 54.221771240234375 117.42919921875 45.234596252441406 148.207275390625 147.16473388671875 140.8529510498047" stroke-width="0.0" fill="rgb(255, 59, 12)" opacity="0.9833511" stroke="rgb(0, 0, 0)" stroke-opacity="1.0" stroke-linecap="round" stroke-linejoin="round"/>
    <path d="M 424.9975891113281 152.19473266601562 C 423.9714660644531 157.15936279296875 417.3013000488281 150.77886962890625 420.21600341796875 164.5614013671875 C 402.5159912109375 161.80410766601562 394.9209899902344 171.40444946289062 408.1121826171875 164.09629821777344 C 414.9809875488281 157.13330078125 436.0160217285156 149.67410278320312 417.6220397949219 153.43362426757812 C 420.5625915527344 161.72503662109375 430.1878356933594 150.18710327148438 424.9975891113281 152.19473266601562" stroke-width="0.0" fill="rgb(133, 147, 0)" opacity="0.7337085" stroke="rgb(0, 0, 0)" stroke-opacity="1.0" stroke-linecap="round" stroke-linejoin="round"/>
    <path d="M 81.65274047851562 467.7881164550781 C 38.58317565917969 498.5802917480469 54.8560676574707 528.2460327148438 38.72026443481445 485.7677001953125 C 69.51669311523438 487.84320068359375 86.64913940429688 469.0998229980469 52.71478271484375 476.62841796875 C 52.76364517211914 425.7234191894531 72.36766815185547 419.50250244140625 35.46320343017578 460.4031066894531 C 60.979331970214844 471.29571533203125 62.579498291015625 475.20135498046875 81.65274047851562 467.7881164550781" stroke-width="0.0" fill="rgb(255, 0, 0)" opacity="0.57257944" stroke="rgb(0, 0, 0)" stroke-opacity="1.0" stroke-linecap="round" stroke-linejoin="round"/>
  </g>
</svg>
