<?xml version="1.0" ?>
<svg xmlns="http://www.w3.org/2000/svg" version="1.1" width="512" height="512">
  <defs/>
  <g>
    <path d="M 523.668212890625 492.6540832519531 C 559.6226806640625 504.5043029785156 559.5166625976562 514.043701171875 384.5038757324219 539.0308837890625 C 317.5245361328125 566.3912963867188 289.9300537109375 564.2617797851562 268.3438415527344 515.0934448242188 C 318.56927490234375 344.20184326171875 384.6423645019531 339.1743469238281 496.119140625 322.1492614746094 C 543.6359252929688 332.7724914550781 525.417724609375 360.6948547363281 523.668212890625 492.6540832519531" stroke-width="0.0" fill="rgb(16, 160, 128)" opacity="0.9316397" stroke="rgb(0, 0, 0)" stroke-opacity="1.0" stroke-linecap="round" stroke-linejoin="round"/>
    <path d="M 292.80535888671875 436.17803955078125 C 306.9124755859375 483.2451477050781 290.30535888671875 513.2599487304688 242.51937866210938 534.423828125 C -51.19208526611328 519.4700927734375 -50.67253494262695 516.346923828125 -25.272544860839844 486.212890625 C 10.965510368347168 229.94683837890625 19.23500633239746 227.6337432861328 34.32388687133789 223.96046447753906 C 225.89439392089844 263.35577392578125 256.7535705566406 212.86383056640625 292.80535888671875 436.17803955078125" stroke-width="0.0" fill="rgb(255, 114, 44)" opacity="0.85666114" stroke="rgb(0, 0, 0)" stroke-opacity="1.0" stroke-linecap="round" stroke-linejoin="round"/>
    <path d="M 313.6884765625 374.7787780761719 C 401.0292663574219 331.3488464355469 210.0497589111328 411.27740478515625 250.80967712402344 373.2694091796875 C 114.58829498291016 457.22174072265625 -17.182950973510742 348.0980224609375 42.55472946166992 200.12120056152344 C 100.19657897949219 168.04823303222656 101.72825622558594 150.080322265625 114.43795013427734 198.02447509765625 C 184.5118408203125 264.69482421875 284.5957336425781 162.88414001464844 313.6884765625 374.7787780761719" stroke-width="0.0" fill="rgb(197, 35, 33)" opacity="0.56591004" stroke="rgb(0, 0, 0)" stroke-opacity="1.0" stroke-linecap="round" stroke-linejoin="round"/>
    <path d="M 165.9844512939453 -62.29518127441406 C 162.3809356689453 142.31210327148438 156.13778686523438 138.1785430908203 28.456756591796875 253.0775604248047 C -49.628814697265625 250.96917724609375 -42.73263931274414 236.72068786621094 -22.520652770996094 159.27822875976562 C -16.190303802490234 -17.708452224731445 -9.996477127075195 -23.574756622314453 32.775753021240234 -18.098133087158203 C 196.82273864746094 -23.394615173339844 224.5518341064453 -36.593833923339844 165.9844512939453 -62.29518127441406" stroke-width="0.0" fill="rgb(17, 187, 170)" opacity="0.83947456" stroke="rgb(0, 0, 0)" stroke-opacity="1.0" stroke-linecap="round" stroke-linejoin="round"/>
    <path d="M 509.8718566894531 83.86101531982422 C 430.3970642089844 293.9382019042969 419.9153137207031 405.9585266113281 340.3930358886719 353.01910400390625 C 355.6111145019531 229.7432861328125 115.27670288085938 348.2319641113281 205.1053466796875 230.85775756835938 C 257.0576477050781 84.50193786621094 247.8577880859375 37.53507995605469 376.3121643066406 -55.545738220214844 C 614.888916015625 5.5907816886901855 638.3430786132812 56.62431335449219 509.8718566894531 83.86101531982422" stroke-width="0.0" fill="rgb(160, 171, 196)" opacity="0.9238895" stroke="rgb(0, 0, 0)" stroke-opacity="1.0" stroke-linecap="round" stroke-linejoin="round"/>
    <path d="M 263.2825622558594 186.17721557617188 C 181.9225311279297 310.1513671875 253.7201385498047 261.0649719238281 186.34474182128906 319.550537109375 C 180.26986694335938 197.7403106689453 107.09227752685547 199.0728759765625 54.722652435302734 242.34312438964844 C 151.35877990722656 142.92330932617188 115.95795440673828 61.023555755615234 336.8880615234375 0.5984141230583191 C 285.5943603515625 9.313127517700195 217.23252868652344 -17.037324905395508 263.2825622558594 186.17721557617188" stroke-width="0.0" fill="rgb(124, 104, 117)" opacity="0.96281016" stroke="rgb(0, 0, 0)" stroke-opacity="1.0" stroke-linecap="round" stroke-linejoin="round"/>
    <path d="M 455.1914978027344 315.6122741699219 C 420.1094970703125 428.48651123046875 457.74908447265625 446.12298583984375 232.09869384765625 438.739501953125 C 104.10865020751953 418.91448974609375 59.539390563964844 418.00830078125 324.3204345703125 417.60791015625 C 244.4009246826172 264.91595458984375 297.9252014160156 188.6392822265625 296.3028564453125 203.0732879638672 C 465.7718811035156 201.97142028808594 470.6003112792969 233.7995147705078 455.1914978027344 315.6122741699219" stroke-width="0.0" fill="rgb(89, 103, 255)" opacity="0.7310069" stroke="rgb(0, 0, 0)" stroke-opacity="1.0" stroke-linecap="round" stroke-linejoin="round"/>
    <path d="M 563.7822875976562 206.0090789794922 C 569.1495361328125 339.6518859863281 560.7118530273438 342.1461486816406 472.126220703125 418.0414733886719 C 399.0890808105469 377.4974060058594 426.76568603515625 330.3369140625 374.4700012207031 279.9262390136719 C 370.1927490234375 77.8455810546875 338.0242614746094 12.38782024383545 493.4451904296875 19.967164993286133 C 580.639404296875 6.389194965362549 575.2474365234375 55.77931213378906 563.7822875976562 206.0090789794922" stroke-width="0.0" fill="rgb(15, 182, 176)" opacity="0.93221396" stroke="rgb(0, 0, 0)" stroke-opacity="1.0" stroke-linecap="round" stroke-linejoin="round"/>
    <path d="M 377.7419738769531 109.38890075683594 C 378.68310546875 109.94175720214844 387.87261962890625 241.25685119628906 376.06414794921875 354.1999816894531 C 419.23309326171875 98.71484375 134.99383544921875 281.406494140625 254.7193603515625 210.57015991210938 C 237.4661102294922 203.83753967285156 325.4797058105469 191.46011352539062 388.4241638183594 202.60140991210938 C 389.112548828125 96.99164581298828 357.68560791015625 106.55033874511719 377.7419738769531 109.38890075683594" stroke-width="0.0" fill="rgb(25, 57, 110)" opacity="0.14682415" stroke="rgb(0, 0, 0)" stroke-opacity="1.0" stroke-linecap="round" stroke-linejoin="round"/>
    <path d="M 245.74200439453125 268.59893798828125 C 258.72515869140625 278.9637451171875 226.94239807128906 305.2049255371094 217.79568481445312 295.214599609375 C 246.5091552734375 282.1573791503906 213.5830535888672 267.3086242675781 185.03439331054688 278.37664794921875 C 195.12013244628906 228.7532501220703 239.37319946289062 238.91761779785156 233.1715850830078 252.42279052734375 C 218.1546173095703 261.74017333984375 241.33790588378906 229.05865478515625 245.74200439453125 268.59893798828125" stroke-width="0.0" fill="rgb(96, 115, 3)" opacity="0.5985929" stroke="rgb(0, 0, 0)" stroke-opacity="1.0" stroke-linecap="round" stroke-linejoin="round"/>
    <path d="M 374.0467834472656 237.4652099609375 C 379.6843566894531 240.1447296142578 403.7049255371094 259.1768798828125 421.1932067871094 353.93634033203125 C 354.90484619140625 341.7533264160156 367.286376953125 350.0029296875 366.97662353515625 321.48651123046875 C 364.72711181640625 152.4915313720703 372.0106201171875 206.01123046875 375.34814453125 172.94384765625 C 389.2579650878906 275.98504638671875 361.0259704589844 272.096923828125 374.0467834472656 237.4652099609375" stroke-width="0.0" fill="rgb(11, 199, 208)" opacity="0.9775035" stroke="rgb(0, 0, 0)" stroke-opacity="1.0" stroke-linecap="round" stroke-linejoin="round"/>
    <path d="M 379.4803771972656 109.15705108642578 C 267.3995361328125 99.73876190185547 264.9080810546875 106.79660034179688 137.50474548339844 113.06056213378906 C 165.99551391601562 147.9996337890625 185.77658081054688 66.91691589355469 122.52754974365234 145.18701171875 C 104.89791107177734 -2.380918025970459 122.16510772705078 -8.217936515808105 196.8876953125 -37.397865295410156 C 371.2354431152344 -35.33066940307617 375.3434143066406 -15.06491470336914 379.4803771972656 109.15705108642578" stroke-width="0.0" fill="rgb(41, 186, 175)" opacity="1.0" stroke="rgb(0, 0, 0)" stroke-opacity="1.0" stroke-linecap="round" stroke-linejoin="round"/>
    <path d="M 364.44952392578125 438.4781799316406 C 98.10804748535156 362.5367736816406 330.2304992675781 414.982666015625 78.87893676757812 413.1956787109375 C 109.13175964355469 329.63043212890625 62.94708251953125 372.0325927734375 360.1766357421875 352.8342590332031 C 213.7125701904297 347.8197021484375 -37.877899169921875 364.04052734375 -37.04244613647461 317.35382080078125 C 97.99664306640625 390.2691955566406 508.3419494628906 307.25335693359375 364.44952392578125 438.4781799316406" stroke-width="0.0" fill="rgb(206, 206, 208)" opacity="1.0" stroke="rgb(0, 0, 0)" stroke-opacity="1.0" stroke-linecap="round" stroke-linejoin="round"/>
    <path d="M 537.3118896484375 59.97067642211914 C 521.7279663085938 70.94854736328125 493.472900390625 61.114990234375 462.8481140136719 52.3994140625 C 456.9703369140625 53.77138137817383 447.729736328125 44.30147933959961 382.0945739746094 61.11790084838867 C 377.26031494140625 0.559787929058075 387.2687683105469 -19.495023727416992 448.3940124511719 -20.358619689941406 C 540.9146118164062 -10.191633224487305 536.6610717773438 3.261720895767212 537.3118896484375 59.97067642211914" stroke-width="0.0" fill="rgb(47, 186, 175)" opacity="1.0" stroke="rgb(0, 0, 0)" stroke-opacity="1.0" stroke-linecap="round" stroke-linejoin="round"/>
    <path d="M 463.0882873535156 429.4465637207031 C 450.5315856933594 445.3330383300781 452.75762939453125 442.4139709472656 387.473388671875 455.72344970703125 C 396.2667541503906 483.8886413574219 377.7803649902344 476.0669860839844 366.49481201171875 402.64739990234375 C 349.2383728027344 335.8656311035156 386.9458312988281 315.17626953125 450.1585388183594 358.2138977050781 C 442.65155029296875 412.32977294921875 482.3999938964844 406.6448059082031 463.0882873535156 429.4465637207031" stroke-width="0.0" fill="rgb(52, 197, 175)" opacity="0.9785622" stroke="rgb(0, 0, 0)" stroke-opacity="1.0" stroke-linecap="round" stroke-linejoin="round"/>
    <path d="M 318.206787109375 404.8062744140625 C 353.4190979003906 425.3832702636719 339.6545715332031 462.5587158203125 260.51611328125 554.150146484375 C 122.34353637695312 561.2808837890625 93.65534973144531 544.56103515625 66.11930847167969 426.3801574707031 C 250.63360595703125 426.88140869140625 293.1728515625 425.6299743652344 305.6891784667969 432.8661193847656 C 280.5470275878906 436.43609619140625 284.6318664550781 408.2733459472656 318.206787109375 404.8062744140625" stroke-width="0.0" fill="rgb(45, 60, 225)" opacity="0.9948636" stroke="rgb(0, 0, 0)" stroke-opacity="1.0" stroke-linecap="round" stroke-linejoin="round"/>
    <path d="M 446.41162109375 431.9546203613281 C 426.634033203125 475.5301818847656 392.32965087890625 453.0585021972656 368.7191162109375 462.8776550292969 C 329.8946533203125 459.5439453125 311.6127624511719 515.9152221679688 281.7435607910156 430.8470458984375 C 274.5482177734375 378.5008544921875 272.8929138183594 423.01544189453125 349.1279296875 436.6170349121094 C 446.2897644042969 419.1849670410156 439.27294921875 351.2596740722656 446.41162109375 431.9546203613281" stroke-width="0.0" fill="rgb(41, 160, 207)" opacity="1.0" stroke="rgb(0, 0, 0)" stroke-opacity="1.0" stroke-linecap="round" stroke-linejoin="round"/>
    <path d="M 72.08148193359375 411.397216796875 C 85.5376205444336 433.29632568359375 68.77849578857422 437.30487060546875 -15.66347599029541 444.4643859863281 C -25.81285858154297 418.9579772949219 13.237425804138184 425.7154846191406 29.497732162475586 400.33282470703125 C 52.203861236572266 416.0961608886719 55.43629837036133 409.4078674316406 69.38456726074219 421.9482116699219 C 48.63114547729492 385.96746826171875 30.3626651763916 375.2897033691406 72.08148193359375 411.397216796875" stroke-width="0.0" fill="rgb(62, 48, 184)" opacity="0.57755846" stroke="rgb(0, 0, 0)" stroke-opacity="1.0" stroke-linecap="round" stroke-linejoin="round"/>
    <path d="M 372.3737487792969 121.39579010009766 C 357.3944091796875 126.09558868408203 417.6126403808594 122.9410400390625 290.90423583984375 115.36808013916016 C 384.0071716308594 108.75470733642578 390.2449035644531 133.99728393554688 357.8039245605469 134.4652862548828 C 155.5917205810547 125.98342895507812 98.01158142089844 119.56812286376953 149.96922302246094 112.04182434082031 C 398.5959167480469 118.10637664794922 347.329833984375 97.63592529296875 372.3737487792969 121.39579010009766" stroke-width="0.0" fill="rgb(255, 33, 6)" opacity="0.98703736" stroke="rgb(0, 0, 0)" stroke-opacity="1.0" stroke-linecap="round" stroke-linejoin="round"/>
    <path d="M 363.1990051269531 188.1643524169922 C 361.72711181640625 209.38429260253906 374.1777648925781 159.16383361816406 357.17486572265625 354.1110534667969 C 350.9075622558594 135.48387145996094 421.7839050292969 232.22105407714844 198.44081115722656 219.5994110107422 C 190.48548889160156 218.22286987304688 448.9329833984375 197.75743103027344 355.2513427734375 225.49673461914062 C 380.360595703125 166.33761596679688 387.411376953125 187.43572998046875 363.1990051269531 188.1643524169922" stroke-width="0.0" fill="rgb(228, 187, 221)" opacity="0.21459806" stroke="rgb(0, 0, 0)" stroke-opacity="1.0" stroke-linecap="round" stroke-linejoin="round"/>
    <path d="M 132.60980224609375 320.35675048828125 C 133.0628662109375 372.99365234375 141.64910888671875 286.18939208984375 140.3155059814453 431.40899658203125 C 53.22383499145508 496.39178466796875 -16.64818572998047 444.1026916503906 -47.15471267700195 314.908447265625 C -0.11423834413290024 207.8222198486328 27.981340408325195 196.31475830078125 155.3099822998047 105.87355041503906 C 120.32906341552734 103.60076141357422 137.50167846679688 163.5756072998047 132.60980224609375 320.35675048828125" stroke-width="0.0" fill="rgb(13, 85, 209)" opacity="0.9991242" stroke="rgb(0, 0, 0)" stroke-opacity="1.0" stroke-linecap="round" stroke-linejoin="round"/>
    <path d="M 99.750244140625 515.365478515625 C 111.48809814453125 548.2666625976562 93.35933685302734 556.1937866210938 53.22238540649414 564.7664794921875 C 47.99394607543945 551.5803833007812 30.71798324584961 551.5784301757812 13.258859634399414 507.1419677734375 C 60.621646881103516 465.2893981933594 52.18210983276367 431.35076904296875 88.94911193847656 405.84832763671875 C 124.9370346069336 430.14532470703125 113.58149719238281 485.03277587890625 99.750244140625 515.365478515625" stroke-width="0.0" fill="rgb(79, 80, 246)" opacity="0.9629418" stroke="rgb(0, 0, 0)" stroke-opacity="1.0" stroke-linecap="round" stroke-linejoin="round"/>
    <path d="M 220.71282958984375 153.91761779785156 C 287.8570556640625 221.8228302001953 238.623779296875 55.619178771972656 288.5342712402344 160.57916259765625 C 255.0176239013672 173.03445434570312 193.9675750732422 151.9273223876953 197.47540283203125 132.73623657226562 C 226.88491821289062 238.59410095214844 333.66864013671875 115.75296020507812 236.1719970703125 117.89216613769531 C 301.2608947753906 77.8404312133789 302.0180969238281 213.9595947265625 220.71282958984375 153.91761779785156" stroke-width="0.0" fill="rgb(255, 23, 34)" opacity="0.4196397" stroke="rgb(0, 0, 0)" stroke-opacity="1.0" stroke-linecap="round" stroke-linejoin="round"/>
    <path d="M 293.5116882324219 250.86016845703125 C 248.32064819335938 237.30076599121094 249.8690185546875 272.58599853515625 260.363525390625 274.46026611328125 C 251.98599243164062 288.1222229003906 273.4511413574219 296.0836486816406 262.8897705078125 260.93206787109375 C 297.4845275878906 223.27239990234375 289.72119140625 248.88204956054688 277.4905090332031 231.08734130859375 C 268.64666748046875 235.72183227539062 284.9229431152344 228.92715454101562 293.5116882324219 250.86016845703125" stroke-width="0.0" fill="rgb(250, 250, 154)" opacity="0.28661814" stroke="rgb(0, 0, 0)" stroke-opacity="1.0" stroke-linecap="round" stroke-linejoin="round"/>
    <path d="M 283.47454833984375 149.38552856445312 C 235.32164001464844 91.5754623413086 263.7696838378906 135.563232421875 241.09063720703125 121.05643463134766 C 232.5919952392578 102.7396469116211 105.96272277832031 116.09651184082031 166.1305694580078 109.90595245361328 C 252.89393615722656 122.25865173339844 263.8183898925781 107.10369110107422 247.25582885742188 109.406005859375 C 231.9694366455078 115.07725524902344 215.1551971435547 113.6211929321289 283.47454833984375 149.38552856445312" stroke-width="0.0" fill="rgb(247, 136, 5)" opacity="0.9946341" stroke="rgb(0, 0, 0)" stroke-opacity="1.0" stroke-linecap="round" stroke-linejoin="round"/>
    <path d="M 359.9519958496094 328.6614990234375 C 353.2532958984375 289.6622619628906 309.3754577636719 307.9104919433594 286.9997863769531 322.1187744140625 C 305.225830078125 317.63153076171875 243.3848114013672 317.77508544921875 129.86764526367188 321.2144775390625 C 158.481689453125 324.32818603515625 149.74342346191406 354.1604919433594 297.8125 320.2274169921875 C 265.73687744140625 343.7489929199219 311.5514831542969 317.7662658691406 359.9519958496094 328.6614990234375" stroke-width="0.0" fill="rgb(199, 182, 246)" opacity="0.433065" stroke="rgb(0, 0, 0)" stroke-opacity="1.0" stroke-linecap="round" stroke-linejoin="round"/>
    <path d="M 61.007362365722656 525.458251953125 C 30.760190963745117 533.237060546875 12.10596752166748 529.2991333007812 0.7132576107978821 530.5223388671875 C -9.364206314086914 527.7437133789062 -16.68471336364746 520.4232177734375 -45.16511154174805 484.6590576171875 C -44.22465133666992 472.452880859375 -53.03668212890625 451.0307312011719 11.66650676727295 401.1833190917969 C 75.95552825927734 406.6565856933594 65.17061614990234 442.2322692871094 61.007362365722656 525.458251953125" stroke-width="0.0" fill="rgb(77, 83, 247)" opacity="0.9995915" stroke="rgb(0, 0, 0)" stroke-opacity="1.0" stroke-linecap="round" stroke-linejoin="round"/>
    <path d="M 162.69435119628906 200.99984741210938 C 309.5531311035156 199.16238403320312 335.6990661621094 236.55859375 139.87916564941406 229.35211181640625 C 130.27565002441406 251.82147216796875 136.02049255371094 189.8393096923828 128.8874053955078 195.94363403320312 C 136.94967651367188 173.35983276367188 123.71642303466797 117.21337127685547 142.13931274414062 119.46503448486328 C 170.97549438476562 128.2180938720703 161.1112060546875 178.42063903808594 162.69435119628906 200.99984741210938" stroke-width="0.0" fill="rgb(245, 148, 53)" opacity="0.7757721" stroke="rgb(0, 0, 0)" stroke-opacity="1.0" stroke-linecap="round" stroke-linejoin="round"/>
    <path d="M 179.45803833007812 110.56563568115234 C 161.88624572753906 121.23628234863281 176.373046875 108.63672637939453 141.2041778564453 134.6431121826172 C 124.07640075683594 151.32521057128906 141.9001007080078 102.27615356445312 146.01834106445312 112.53003692626953 C 139.68838500976562 108.46199035644531 209.0975799560547 116.82677459716797 178.80979919433594 113.90577697753906 C 145.35284423828125 106.73345184326172 176.30995178222656 109.09623718261719 179.45803833007812 110.56563568115234" stroke-width="0.0" fill="rgb(255, 101, 69)" opacity="0.87994426" stroke="rgb(0, 0, 0)" stroke-opacity="1.0" stroke-linecap="round" stroke-linejoin="round"/>
    <path d="M 440.1808166503906 118.94627380371094 C 435.3816833496094 134.49899291992188 421.5093688964844 123.02546691894531 395.01947021484375 125.65666961669922 C 350.7679748535156 143.4120330810547 373.5430603027344 142.0310821533203 360.0998840332031 98.41792297363281 C 359.3397521972656 13.78671932220459 321.82525634765625 -24.283193588256836 362.79229736328125 -58.58650588989258 C 463.88360595703125 38.662391662597656 460.8515319824219 93.22248077392578 440.1808166503906 118.94627380371094" stroke-width="0.0" fill="rgb(29, 176, 177)" opacity="1.0" stroke="rgb(0, 0, 0)" stroke-opacity="1.0" stroke-linecap="round" stroke-linejoin="round"/>
    <path d="M 356.7982482910156 260.4861755371094 C 354.5868225097656 270.5280456542969 349.3295593261719 261.3312072753906 360.45849609375 260.769287109375 C 355.7920837402344 263.64007568359375 317.93914794921875 271.7807312011719 335.05224609375 248.53201293945312 C 324.02874755859375 216.0606231689453 343.6460266113281 223.52505493164062 333.1553955078125 223.95387268066406 C 363.55975341796875 222.7273712158203 353.339599609375 217.80445861816406 356.7982482910156 260.4861755371094" stroke-width="0.0" fill="rgb(218, 255, 20)" opacity="0.99410814" stroke="rgb(0, 0, 0)" stroke-opacity="1.0" stroke-linecap="round" stroke-linejoin="round"/>
    <path d="M 256.109130859375 278.9017028808594 C 217.484130859375 297.07977294921875 202.36370849609375 347.3186340332031 158.251708984375 355.97772216796875 C 128.12411499023438 346.8082580566406 140.54539489746094 297.9297180175781 133.9661865234375 262.022216796875 C 146.5946044921875 249.9650421142578 163.8296661376953 258.3067321777344 148.96102905273438 273.1580810546875 C 190.4637908935547 275.9417419433594 217.3105926513672 268.0268859863281 256.109130859375 278.9017028808594" stroke-width="0.0" fill="rgb(228, 162, 72)" opacity="0.67383933" stroke="rgb(0, 0, 0)" stroke-opacity="1.0" stroke-linecap="round" stroke-linejoin="round"/>
    <path d="M 172.13636779785156 403.7131042480469 C 160.37899780273438 403.3640441894531 170.4552459716797 430.2715759277344 169.7107696533203 435.61676025390625 C 138.71435546875 433.80987548828125 141.26370239257812 443.58172607421875 151.92037963867188 420.3183288574219 C 144.94264221191406 422.63592529296875 112.46895599365234 396.8027038574219 194.89134216308594 405.0462646484375 C 208.2991485595703 406.3621826171875 201.78515625 416.1361389160156 172.13636779785156 403.7131042480469" stroke-width="0.0" fill="rgb(252, 132, 17)" opacity="0.9415344" stroke="rgb(0, 0, 0)" stroke-opacity="1.0" stroke-linecap="round" stroke-linejoin="round"/>
    <path d="M 431.078369140625 389.4369812011719 C 417.69464111328125 377.2315368652344 410.87994384765625 397.3390808105469 399.2640686035156 440.88983154296875 C 332.6086730957031 440.6317138671875 350.7491455078125 437.85784912109375 379.7477722167969 377.3562927246094 C 413.67913818359375 366.2326354980469 385.2109069824219 350.0732421875 424.40069580078125 358.3819885253906 C 416.0576171875 384.47076416015625 422.26287841796875 398.2619323730469 431.078369140625 389.4369812011719" stroke-width="0.0" fill="rgb(26, 207, 172)" opacity="0.9052263" stroke="rgb(0, 0, 0)" stroke-opacity="1.0" stroke-linecap="round" stroke-linejoin="round"/>
    <path d="M 243.8045654296875 168.92745971679688 C 263.4117126464844 160.08641052246094 266.6055908203125 171.5546875 233.72508239746094 188.62332153320312 C 231.19729614257812 162.3068084716797 234.5067901611328 97.9854965209961 270.71466064453125 108.36897277832031 C 259.22021484375 106.5185317993164 239.0026397705078 98.31311798095703 230.64926147460938 132.43629455566406 C 231.24078369140625 144.87811279296875 249.29962158203125 151.6555633544922 243.8045654296875 168.92745971679688" stroke-width="0.0" fill="rgb(125, 99, 98)" opacity="0.78970075" stroke="rgb(0, 0, 0)" stroke-opacity="1.0" stroke-linecap="round" stroke-linejoin="round"/>
    <path d="M 246.40286254882812 272.45257568359375 C 261.6329345703125 278.47808837890625 262.8420715332031 322.4286193847656 267.2535095214844 324.8586120605469 C 235.73391723632812 344.0514221191406 195.16542053222656 342.6444396972656 212.0525360107422 326.7334289550781 C 248.80316162109375 301.5274963378906 228.14407348632812 302.5326843261719 229.6900177001953 308.24432373046875 C 268.1286315917969 262.6706237792969 270.1180725097656 261.0384521484375 246.40286254882812 272.45257568359375" stroke-width="0.0" fill="rgb(199, 199, 100)" opacity="0.7538739" stroke="rgb(0, 0, 0)" stroke-opacity="1.0" stroke-linecap="round" stroke-linejoin="round"/>
    <path d="M 163.79161071777344 350.85125732421875 C 171.40609741210938 343.0392150878906 170.74302673339844 350.43756103515625 148.4748077392578 347.70172119140625 C 145.973876953125 379.3018798828125 150.0248260498047 389.8960266113281 144.01068115234375 352.9071960449219 C 132.2254180908203 326.57568359375 140.8648223876953 302.3807373046875 128.83131408691406 343.3395080566406 C 146.0128936767578 359.9517517089844 149.89764404296875 365.1000061035156 163.79161071777344 350.85125732421875" stroke-width="0.0" fill="rgb(239, 24, 94)" opacity="0.085548125" stroke="rgb(0, 0, 0)" stroke-opacity="1.0" stroke-linecap="round" stroke-linejoin="round"/>
    <path d="M 202.10084533691406 283.1802062988281 C 257.6819763183594 292.2717590332031 254.5683135986328 284.28680419921875 178.9024658203125 290.962890625 C 177.68399047851562 251.77468872070312 172.4063720703125 256.6302185058594 168.13804626464844 264.8354187011719 C 192.6535186767578 263.65673828125 197.6278076171875 263.5827331542969 197.79261779785156 262.0537414550781 C 216.65664672851562 258.0906677246094 204.5804901123047 256.070068359375 202.10084533691406 283.1802062988281" stroke-width="0.0" fill="rgb(24, 188, 35)" opacity="0.6899941" stroke="rgb(0, 0, 0)" stroke-opacity="1.0" stroke-linecap="round" stroke-linejoin="round"/>
    <path d="M 303.6290283203125 267.74554443359375 C 291.1775207519531 266.9145202636719 288.6108093261719 290.3191833496094 285.7065124511719 288.1674499511719 C 266.2986145019531 304.9612731933594 240.49591064453125 292.4006652832031 245.48739624023438 278.0812072753906 C 241.2840118408203 228.84613037109375 229.4761962890625 232.7333984375 240.973876953125 243.1943817138672 C 322.09100341796875 221.29605102539062 326.8730163574219 221.19070434570312 303.6290283203125 267.74554443359375" stroke-width="0.0" fill="rgb(181, 143, 99)" opacity="0.35249606" stroke="rgb(0, 0, 0)" stroke-opacity="1.0" stroke-linecap="round" stroke-linejoin="round"/>
    <path d="M 196.85409545898438 364.9139709472656 C 201.79421997070312 375.0165100097656 184.1080322265625 374.2014465332031 148.08154296875 349.3623046875 C 141.28701782226562 355.137451171875 188.80130004882812 326.25115966796875 183.3975830078125 352.99664306640625 C 189.89064025878906 307.8552551269531 196.52760314941406 308.0516052246094 206.44285583496094 338.4576721191406 C 171.6997528076172 330.1938781738281 180.75157165527344 325.5268249511719 196.85409545898438 364.9139709472656" stroke-width="0.0" fill="rgb(237, 82, 136)" opacity="0.0" stroke="rgb(0, 0, 0)" stroke-opacity="1.0" stroke-linecap="round" stroke-linejoin="round"/>
    <path d="M 88.7425537109375 458.1188659667969 C 71.92572784423828 470.10186767578125 74.98829650878906 485.8301696777344 59.60762405395508 467.711181640625 C 48.24641036987305 460.5074768066406 39.96293258666992 455.1789855957031 57.9549446105957 431.030517578125 C 49.525848388671875 443.7650146484375 72.66161346435547 433.65216064453125 61.00456237792969 447.0860595703125 C 50.721527099609375 444.0180358886719 85.35980224609375 454.38311767578125 88.7425537109375 458.1188659667969" stroke-width="0.0" fill="rgb(35, 105, 203)" opacity="0.047610927" stroke="rgb(0, 0, 0)" stroke-opacity="1.0" stroke-linecap="round" stroke-linejoin="round"/>
    <path d="M 458.4215087890625 424.9063415527344 C 484.35882568359375 494.3383483886719 493.79693603515625 478.5165100097656 440.5594787597656 460.8461608886719 C 445.7291564941406 430.6865539550781 407.6435241699219 462.42523193359375 436.88397216796875 472.34356689453125 C 414.4250793457031 445.8379821777344 421.6512145996094 458.4547119140625 428.334228515625 462.9900817871094 C 442.056396484375 469.98333740234375 452.4879455566406 459.4449157714844 458.4215087890625 424.9063415527344" stroke-width="0.0" fill="rgb(100, 132, 222)" opacity="0.0013947911" stroke="rgb(0, 0, 0)" stroke-opacity="1.0" stroke-linecap="round" stroke-linejoin="round"/>
    <path d="M 447.294921875 375.0003662109375 C 450.78350830078125 395.5933532714844 439.70062255859375 401.2656555175781 418.9378967285156 396.79736328125 C 426.8812561035156 391.86505126953125 411.47467041015625 394.6064453125 424.2750549316406 368.3581848144531 C 411.3394775390625 360.7865905761719 428.8766784667969 351.68890380859375 464.053466796875 351.0639953613281 C 461.0148620605469 336.1356201171875 452.7833251953125 337.7915344238281 447.294921875 375.0003662109375" stroke-width="0.0" fill="rgb(32, 129, 98)" opacity="0.57164955" stroke="rgb(0, 0, 0)" stroke-opacity="1.0" stroke-linecap="round" stroke-linejoin="round"/>
    <path d="M 47.98634719848633 452.682861328125 C 85.1318130493164 500.1959533691406 77.64769744873047 509.1564025878906 30.504776000976562 504.5969543457031 C 47.945556640625 481.7607421875 44.927215576171875 494.07220458984375 24.881778717041016 462.2276611328125 C 39.80475616455078 463.68524169921875 25.878807067871094 459.0601806640625 39.623512268066406 421.39111328125 C 62.531124114990234 400.96490478515625 65.54017639160156 404.1775207519531 47.98634719848633 452.682861328125" stroke-width="0.0" fill="rgb(136, 28, 225)" opacity="0.047983818" stroke="rgb(0, 0, 0)" stroke-opacity="1.0" stroke-linecap="round" stroke-linejoin="round"/>
    <path d="M 163.24087524414062 239.04989624023438 C 145.45211791992188 231.6492462158203 136.97857666015625 220.77687072753906 149.69265747070312 234.2200927734375 C 136.93348693847656 258.51287841796875 114.4335708618164 248.86492919921875 127.07897186279297 229.44088745117188 C 121.51638793945312 224.42576599121094 135.70242309570312 218.2691192626953 122.3169174194336 219.44674682617188 C 135.19866943359375 229.62060546875 149.6567840576172 235.21878051757812 163.24087524414062 239.04989624023438" stroke-width="0.0" fill="rgb(58, 113, 123)" opacity="0.0" stroke="rgb(0, 0, 0)" stroke-opacity="1.0" stroke-linecap="round" stroke-linejoin="round"/>
    <path d="M 466.3204650878906 272.3428039550781 C 439.8513488769531 245.86439514160156 452.2439270019531 263.44195556640625 460.82196044921875 259.90545654296875 C 445.64453125 244.25038146972656 448.47650146484375 230.89114379882812 452.8448486328125 251.23080444335938 C 461.3517761230469 227.7108154296875 461.70550537109375 215.30996704101562 469.7905578613281 255.65367126464844 C 466.4828796386719 242.23533630371094 489.2806091308594 259.8593444824219 466.3204650878906 272.3428039550781" stroke-width="0.0" fill="rgb(22, 192, 127)" opacity="0.03834192" stroke="rgb(0, 0, 0)" stroke-opacity="1.0" stroke-linecap="round" stroke-linejoin="round"/>
    <path d="M 357.31365966796875 184.08575439453125 C 359.940673828125 200.12794494628906 352.89825439453125 209.7457733154297 353.43560791015625 217.47412109375 C 359.6875 217.84359741210938 354.0201416015625 207.0654296875 357.8960266113281 187.43338012695312 C 346.306396484375 184.4715576171875 346.7885437011719 167.95640563964844 377.0605773925781 173.79322814941406 C 381.32769775390625 182.14080810546875 392.0834045410156 178.68431091308594 357.31365966796875 184.08575439453125" stroke-width="0.0" fill="rgb(114, 184, 194)" opacity="0.0" stroke="rgb(0, 0, 0)" stroke-opacity="1.0" stroke-linecap="round" stroke-linejoin="round"/>
    <path d="M 45.225189208984375 500.6986083984375 C 56.789466857910156 500.3554382324219 45.69611740112305 489.7356872558594 52.41011428833008 439.4967346191406 C 30.187654495239258 453.2875061035156 29.412578582763672 490.2461853027344 34.51765823364258 470.9408874511719 C 16.03536033630371 399.2594299316406 62.193485260009766 370.3893127441406 111.53746795654297 450.7063903808594 C 67.88207244873047 472.5611572265625 37.13294982910156 513.3187866210938 45.225189208984375 500.6986083984375" stroke-width="0.0" fill="rgb(85, 73, 232)" opacity="0.19525076" stroke="rgb(0, 0, 0)" stroke-opacity="1.0" stroke-linecap="round" stroke-linejoin="round"/>
    <path d="M 483.41162109375 60.94224548339844 C 505.8763732910156 53.356204986572266 489.0577087402344 54.18603515625 462.4609069824219 43.76350402832031 C 425.1318359375 49.500099182128906 411.5285949707031 61.50246047973633 438.6340637207031 68.3636245727539 C 441.0852355957031 68.52182006835938 454.36090087890625 59.10438919067383 469.661376953125 61.982765197753906 C 457.7264099121094 18.289356231689453 474.0069580078125 25.54511833190918 483.41162109375 60.94224548339844" stroke-width="0.0" fill="rgb(58, 185, 165)" opacity="0.037009213" stroke="rgb(0, 0, 0)" stroke-opacity="1.0" stroke-linecap="round" stroke-linejoin="round"/>
    <path d="M 256.45166015625 192.5017547607422 C 298.22998046875 189.17556762695312 305.150146484375 173.43869018554688 204.9232940673828 178.0577850341797 C 257.6598815917969 220.8102264404297 271.339599609375 255.44354248046875 268.6132507324219 239.3068084716797 C 265.19970703125 161.26622009277344 266.5743103027344 144.27049255371094 271.8850402832031 137.5042724609375 C 285.2035217285156 119.42626953125 267.1952819824219 104.3798828125 256.45166015625 192.5017547607422" stroke-width="0.0" fill="rgb(237, 225, 29)" opacity="0.30300412" stroke="rgb(0, 0, 0)" stroke-opacity="1.0" stroke-linecap="round" stroke-linejoin="round"/>
    <path d="M 142.7127685546875 22.93105697631836 C 145.21839904785156 48.8245735168457 139.0141143798828 64.70773315429688 128.73487854003906 72.68050384521484 C 108.0035629272461 59.4681396484375 108.30084228515625 65.87344360351562 131.02781677246094 71.72032165527344 C 143.63275146484375 16.899675369262695 124.02582550048828 32.430885314941406 141.66033935546875 43.78614807128906 C 160.04244995117188 35.42942428588867 151.1547393798828 39.12725830078125 142.7127685546875 22.93105697631836" stroke-width="0.0" fill="rgb(76, 152, 173)" opacity="0.032304388" stroke="rgb(0, 0, 0)" stroke-opacity="1.0" stroke-linecap="round" stroke-linejoin="round"/>
    <path d="M 204.21575927734375 336.9261169433594 C 190.51881408691406 335.6282653808594 190.8808135986328 352.3125 186.42230224609375 373.3504333496094 C 184.95339965820312 352.79473876953125 176.3595733642578 350.061279296875 160.92584228515625 327.433349609375 C 175.75868225097656 329.17645263671875 199.65419006347656 314.1529235839844 205.0206298828125 347.6920471191406 C 198.8114471435547 354.82708740234375 200.486328125 345.1936340332031 204.21575927734375 336.9261169433594" stroke-width="0.0" fill="rgb(152, 90, 151)" opacity="0.052564386" stroke="rgb(0, 0, 0)" stroke-opacity="1.0" stroke-linecap="round" stroke-linejoin="round"/>
    <path d="M 76.29231262207031 301.6180114746094 C 57.5408821105957 331.6463317871094 57.462303161621094 343.6317138671875 36.97809982299805 347.55224609375 C 26.657840728759766 343.9736633300781 18.312049865722656 329.0378112792969 21.539813995361328 324.8445739746094 C 17.26005744934082 314.7451477050781 37.29600143432617 306.95794677734375 35.013431549072266 305.9991149902344 C 53.58086395263672 295.37823486328125 65.79579162597656 295.5496826171875 76.29231262207031 301.6180114746094" stroke-width="0.0" fill="rgb(101, 98, 186)" opacity="0.18462706" stroke="rgb(0, 0, 0)" stroke-opacity="1.0" stroke-linecap="round" stroke-linejoin="round"/>
    <path d="M 438.0483093261719 458.5062255859375 C 429.127197265625 471.6184387207031 457.3619689941406 472.825439453125 459.49005126953125 421.75177001953125 C 399.1953430175781 434.61602783203125 380.851318359375 431.14166259765625 384.8909912109375 426.0340576171875 C 392.29949951171875 447.2115783691406 414.5992431640625 442.0188293457031 400.9729919433594 426.54205322265625 C 402.547607421875 407.5198669433594 427.4649353027344 418.2890319824219 438.0483093261719 458.5062255859375" stroke-width="0.0" fill="rgb(25, 126, 201)" opacity="0.007322706" stroke="rgb(0, 0, 0)" stroke-opacity="1.0" stroke-linecap="round" stroke-linejoin="round"/>
    <path d="M 147.07786560058594 276.9328918457031 C 154.59857177734375 278.9986877441406 148.58412170410156 321.04559326171875 137.6143798828125 301.0170593261719 C 126.40831756591797 306.59075927734375 114.57637023925781 293.0438537597656 142.6742706298828 303.822509765625 C 134.77540588378906 279.84991455078125 125.66046142578125 265.3955993652344 136.6298370361328 258.4414367675781 C 128.86843872070312 272.9146728515625 122.9305648803711 266.49615478515625 147.07786560058594 276.9328918457031" stroke-width="0.0" fill="rgb(69, 55, 175)" opacity="0.038994864" stroke="rgb(0, 0, 0)" stroke-opacity="1.0" stroke-linecap="round" stroke-linejoin="round"/>
    <path d="M 150.07635498046875 444.929443359375 C 145.23890686035156 472.29620361328125 129.83595275878906 483.4467468261719 110.61183166503906 479.5913391113281 C 111.14395141601562 453.5249328613281 84.67060089111328 454.0679016113281 96.98855590820312 450.75738525390625 C 105.26773834228516 441.52496337890625 116.73470306396484 430.16448974609375 124.24237060546875 423.4215393066406 C 146.1817626953125 400.145263671875 158.89830017089844 401.3852844238281 150.07635498046875 444.929443359375" stroke-width="0.0" fill="rgb(80, 86, 236)" opacity="1.0" stroke="rgb(0, 0, 0)" stroke-opacity="1.0" stroke-linecap="round" stroke-linejoin="round"/>
    <path d="M 263.89752197265625 33.747310638427734 C 270.0130920410156 46.63043212890625 261.74664306640625 55.06645202636719 253.77476501464844 46.567134857177734 C 241.25030517578125 57.4085807800293 236.28106689453125 46.296974182128906 237.37550354003906 46.24073028564453 C 232.6938934326172 33.16368865966797 239.53530883789062 34.4766845703125 249.24534606933594 22.783233642578125 C 255.7208709716797 34.32107925415039 268.93341064453125 35.64268493652344 263.89752197265625 33.747310638427734" stroke-width="0.0" fill="rgb(11, 110, 118)" opacity="0.2618553" stroke="rgb(0, 0, 0)" stroke-opacity="1.0" stroke-linecap="round" stroke-linejoin="round"/>
    <path d="M 134.7821502685547 318.2988586425781 C 129.88267517089844 328.6551818847656 138.68292236328125 350.8664855957031 116.76840209960938 364.05767822265625 C 101.50270080566406 354.87359619140625 89.07078552246094 345.2950439453125 94.30841064453125 331.34051513671875 C 79.04460906982422 356.5154724121094 112.63948059082031 339.8943786621094 102.94902038574219 324.189208984375 C 118.3416519165039 333.59674072265625 143.1689453125 325.52899169921875 134.7821502685547 318.2988586425781" stroke-width="0.0" fill="rgb(45, 64, 230)" opacity="0.06147351" stroke="rgb(0, 0, 0)" stroke-opacity="1.0" stroke-linecap="round" stroke-linejoin="round"/>
    <path d="M 493.71197509765625 224.54669189453125 C 497.5694274902344 228.04136657714844 486.9257507324219 230.81739807128906 492.3056945800781 242.30198669433594 C 476.7731628417969 248.41400146484375 469.9766540527344 240.70794677734375 458.50946044921875 221.52960205078125 C 441.70037841796875 198.72096252441406 463.05206298828125 192.1571807861328 475.78717041015625 205.341064453125 C 486.9777526855469 208.20660400390625 500.8464050292969 221.76510620117188 493.71197509765625 224.54669189453125" stroke-width="0.0" fill="rgb(69, 177, 186)" opacity="0.031770084" stroke="rgb(0, 0, 0)" stroke-opacity="1.0" stroke-linecap="round" stroke-linejoin="round"/>
    <path d="M 436.0599365234375 272.0998840332031 C 434.340576171875 278.7186584472656 444.5481262207031 274.21441650390625 421.8489990234375 305.57012939453125 C 410.5720520019531 302.4466247558594 417.0635986328125 283.84771728515625 425.4327087402344 236.9633026123047 C 429.3975830078125 245.6478271484375 445.0381774902344 242.88128662109375 442.1763610839844 258.7967224121094 C 423.50457763671875 254.15512084960938 439.2705383300781 253.9968719482422 436.0599365234375 272.0998840332031" stroke-width="0.0" fill="rgb(78, 177, 152)" opacity="0.036869492" stroke="rgb(0, 0, 0)" stroke-opacity="1.0" stroke-linecap="round" stroke-linejoin="round"/>
    <path d="M 530.7869873046875 70.58598327636719 C 507.2973937988281 82.74736022949219 504.9350280761719 102.83866882324219 497.6566162109375 82.15100860595703 C 488.76153564453125 79.33006286621094 476.9472961425781 72.95394897460938 475.5870361328125 63.30648422241211 C 473.5531921386719 67.63905334472656 458.91448974609375 65.8751220703125 489.7628173828125 65.22434997558594 C 495.9830017089844 53.80646896362305 502.7485046386719 54.59050369262695 530.7869873046875 70.58598327636719" stroke-width="0.0" fill="rgb(12, 175, 215)" opacity="0.11551041" stroke="rgb(0, 0, 0)" stroke-opacity="1.0" stroke-linecap="round" stroke-linejoin="round"/>
    <path d="M 18.738033294677734 224.79977416992188 C 39.16268539428711 270.1261291503906 54.266700744628906 249.67112731933594 55.010189056396484 237.19110107421875 C 28.938213348388672 219.6178436279297 37.23224639892578 209.25787353515625 17.192758560180664 243.09701538085938 C 6.721127033233643 227.51870727539062 35.552337646484375 204.9501495361328 40.570640563964844 170.03346252441406 C 68.03034210205078 192.28134155273438 45.81607437133789 189.7877655029297 18.738033294677734 224.79977416992188" stroke-width="0.0" fill="rgb(16, 134, 184)" opacity="0.0" stroke="rgb(0, 0, 0)" stroke-opacity="1.0" stroke-linecap="round" stroke-linejoin="round"/>
    <path d="M 127.4084701538086 329.4830322265625 C 136.39199829101562 356.5527648925781 136.83335876464844 349.0975036621094 103.81038665771484 330.9222106933594 C 92.03925323486328 362.7235412597656 91.29308319091797 352.0340881347656 94.68899536132812 336.9100341796875 C 87.97502136230469 338.8875732421875 101.74760437011719 313.22503662109375 107.59160614013672 325.6585388183594 C 134.60049438476562 329.8277587890625 149.98895263671875 311.94830322265625 127.4084701538086 329.4830322265625" stroke-width="0.0" fill="rgb(47, 73, 209)" opacity="0.053413853" stroke="rgb(0, 0, 0)" stroke-opacity="1.0" stroke-linecap="round" stroke-linejoin="round"/>
    <path d="M 48.85771179199219 94.18960571289062 C 39.60090637207031 102.1934585571289 26.992088317871094 120.25731658935547 37.420745849609375 92.35120391845703 C 24.405826568603516 107.75310516357422 10.472291946411133 95.58674621582031 -11.865509986877441 96.83719635009766 C 5.695843696594238 86.20012664794922 12.965658187866211 76.67823791503906 34.54832458496094 59.88278579711914 C 29.303874969482422 80.19578552246094 33.280574798583984 89.62071228027344 48.85771179199219 94.18960571289062" stroke-width="0.0" fill="rgb(70, 178, 220)" opacity="0.04864929" stroke="rgb(0, 0, 0)" stroke-opacity="1.0" stroke-linecap="round" stroke-linejoin="round"/>
  </g>
</svg>
