<?xml version="1.0" ?>
<svg xmlns="http://www.w3.org/2000/svg" version="1.1" width="512" height="512">
  <defs/>
  <g>
    <path d="M 566.1907348632812 488.8764953613281 C 548.88232421875 518.2211303710938 549.809814453125 525.8021850585938 367.3401794433594 540.4365234375 C 319.36944580078125 556.23388671875 307.2886047363281 545.3336791992188 239.85018920898438 456.83282470703125 C 297.86285400390625 338.7098693847656 397.3336181640625 348.46063232421875 491.457763671875 339.1958312988281 C 567.5700073242188 345.9300842285156 588.0379028320312 371.7437744140625 566.1907348632812 488.8764953613281" stroke-width="0.0" fill="rgb(18, 6, 118)" opacity="0.97946095" stroke="rgb(0, 0, 0)" stroke-opacity="1.0" stroke-linecap="round" stroke-linejoin="round"/>
    <path d="M 296.29632568359375 482.1966247558594 C 338.7857666015625 521.93115234375 355.072998046875 525.67529296875 226.03799438476562 528.3565063476562 C -51.100406646728516 521.1051635742188 -51.19970703125 512.4564819335938 -76.31155395507812 456.85577392578125 C -44.71070861816406 195.95321655273438 -27.197402954101562 192.87713623046875 25.72679901123047 188.12608337402344 C 144.01043701171875 308.7057189941406 176.7900848388672 307.65509033203125 296.29632568359375 482.1966247558594" stroke-width="0.0" fill="rgb(21, 15, 231)" opacity="0.99651587" stroke="rgb(0, 0, 0)" stroke-opacity="1.0" stroke-linecap="round" stroke-linejoin="round"/>
    <path d="M 342.176025390625 415.5263977050781 C 338.2955627441406 459.81011962890625 270.1196594238281 433.737548828125 206.8975830078125 412.8814392089844 C 57.09438705444336 371.9167785644531 94.6694564819336 302.2625427246094 41.28561019897461 162.75180053710938 C 28.2452392578125 180.58949279785156 33.797298431396484 167.67236328125 97.9925765991211 178.50006103515625 C 236.05697631835938 197.7766571044922 266.1790466308594 168.15826416015625 342.176025390625 415.5263977050781" stroke-width="0.0" fill="rgb(213, 208, 13)" opacity="0.9764104" stroke="rgb(0, 0, 0)" stroke-opacity="1.0" stroke-linecap="round" stroke-linejoin="round"/>
    <path d="M 247.83706665039062 1.7850896120071411 C 252.6368865966797 231.72604370117188 237.6181182861328 178.55645751953125 36.852294921875 260.8840637207031 C -40.674598693847656 221.8790740966797 -34.016700744628906 202.74346923828125 -23.729169845581055 160.98468017578125 C -16.494123458862305 -18.97837257385254 -10.838438034057617 -25.126850128173828 38.677345275878906 -32.56862258911133 C 207.71893310546875 -35.521854400634766 228.37850952148438 -43.401798248291016 247.83706665039062 1.7850896120071411" stroke-width="0.0" fill="rgb(20, 14, 241)" opacity="0.97936654" stroke="rgb(0, 0, 0)" stroke-opacity="1.0" stroke-linecap="round" stroke-linejoin="round"/>
    <path d="M 554.2123413085938 47.45463562011719 C 435.8745422363281 275.05975341796875 428.8934326171875 282.49835205078125 367.37493896484375 346.3787536621094 C 277.26837158203125 340.5712585449219 284.12481689453125 309.4119873046875 238.5863037109375 193.3378448486328 C 259.2281799316406 -2.502028703689575 187.01492309570312 -36.7977294921875 342.7143859863281 -34.00597381591797 C 563.2000122070312 -5.52442741394043 563.2000122070312 4.830130577087402 554.2123413085938 47.45463562011719" stroke-width="0.0" fill="rgb(10, 3, 236)" opacity="0.97391415" stroke="rgb(0, 0, 0)" stroke-opacity="1.0" stroke-linecap="round" stroke-linejoin="round"/>
    <path d="M 333.6477966308594 68.87188720703125 C 291.57232666015625 302.82861328125 264.3071594238281 309.6029968261719 192.99798583984375 235.21075439453125 C 57.64603805541992 244.45748901367188 56.31968688964844 241.31451416015625 90.62480163574219 230.60108947753906 C 103.14591217041016 143.3814239501953 113.72416687011719 125.80188751220703 315.9864501953125 23.66585922241211 C 344.9075012207031 28.62053108215332 288.25634765625 6.3039069175720215 333.6477966308594 68.87188720703125" stroke-width="0.0" fill="rgb(223, 193, 10)" opacity="0.82909095" stroke="rgb(0, 0, 0)" stroke-opacity="1.0" stroke-linecap="round" stroke-linejoin="round"/>
    <path d="M 460.2088317871094 322.65203857421875 C 445.19097900390625 375.9744873046875 455.5521240234375 453.6855773925781 319.5029602050781 453.2204284667969 C 283.6372375488281 420.9899597167969 262.3221435546875 431.364013671875 266.5755920410156 383.05938720703125 C 269.60955810546875 161.75083923339844 247.45404052734375 189.15869140625 334.83349609375 209.2040252685547 C 407.1439514160156 280.36065673828125 442.95306396484375 273.7609558105469 460.2088317871094 322.65203857421875" stroke-width="0.0" fill="rgb(228, 180, 28)" opacity="1.0" stroke="rgb(0, 0, 0)" stroke-opacity="1.0" stroke-linecap="round" stroke-linejoin="round"/>
    <path d="M 562.3010864257812 175.19635009765625 C 557.849853515625 322.6929626464844 553.3856811523438 339.9071960449219 442.709228515625 428.56689453125 C 337.90655517578125 419.21502685546875 361.0611572265625 345.5155029296875 378.0211181640625 256.25213623046875 C 357.7558288574219 194.55419921875 393.849365234375 130.10446166992188 534.8952026367188 85.03308868408203 C 563.2000122070312 76.2098159790039 563.2000122070312 99.41815185546875 562.3010864257812 175.19635009765625" stroke-width="0.0" fill="rgb(22, 13, 157)" opacity="0.9826643" stroke="rgb(0, 0, 0)" stroke-opacity="1.0" stroke-linecap="round" stroke-linejoin="round"/>
    <path d="M 420.2300720214844 257.9414367675781 C 443.125732421875 275.070556640625 376.7989196777344 216.88021850585938 360.09100341796875 252.3931427001953 C 339.3414611816406 251.09251403808594 293.35760498046875 202.5420684814453 179.28640747070312 253.0487823486328 C 232.068603515625 151.0478515625 263.05426025390625 187.95863342285156 321.3509521484375 186.2533721923828 C 334.3485107421875 181.0321807861328 385.4246826171875 193.37155151367188 420.2300720214844 257.9414367675781" stroke-width="0.0" fill="rgb(255, 198, 35)" opacity="0.96078026" stroke="rgb(0, 0, 0)" stroke-opacity="1.0" stroke-linecap="round" stroke-linejoin="round"/>
    <path d="M 438.134521484375 268.6755676269531 C 464.3204040527344 336.2611389160156 460.3451232910156 431.604736328125 384.57611083984375 432.32574462890625 C 316.3520202636719 337.4793701171875 369.8809814453125 262.0880126953125 296.6944580078125 174.1123809814453 C 396.6034851074219 181.3712158203125 349.7549743652344 249.1765594482422 313.4344787597656 188.27569580078125 C 397.92230224609375 128.5179443359375 439.84368896484375 271.221923828125 438.134521484375 268.6755676269531" stroke-width="0.0" fill="rgb(237, 136, 16)" opacity="0.9871972" stroke="rgb(0, 0, 0)" stroke-opacity="1.0" stroke-linecap="round" stroke-linejoin="round"/>
    <path d="M 340.1398620605469 104.78250122070312 C 297.09564208984375 84.59855651855469 270.3634338378906 106.47589874267578 248.88470458984375 171.00730895996094 C 233.0472412109375 212.15850830078125 181.2100067138672 163.06068420410156 84.07178497314453 177.0598602294922 C 112.16669464111328 -6.270123481750488 134.84048461914062 -11.355113983154297 267.9179382324219 -41.11709976196289 C 356.7514953613281 -50.54941940307617 358.2312927246094 -11.105453491210938 340.1398620605469 104.78250122070312" stroke-width="0.0" fill="rgb(11, 7, 242)" opacity="1.0" stroke="rgb(0, 0, 0)" stroke-opacity="1.0" stroke-linecap="round" stroke-linejoin="round"/>
    <path d="M 271.976318359375 400.8056335449219 C 262.63897705078125 433.5218505859375 223.24951171875 420.4052429199219 194.94244384765625 391.73016357421875 C 140.1074981689453 376.1549072265625 92.15786743164062 417.4758605957031 191.03201293945312 413.47540283203125 C 145.19821166992188 377.4889831542969 166.98472595214844 287.84722900390625 168.52963256835938 319.0127868652344 C 252.899658203125 354.8300476074219 178.02627563476562 374.66455078125 271.976318359375 400.8056335449219" stroke-width="0.0" fill="rgb(225, 112, 23)" opacity="0.8729459" stroke="rgb(0, 0, 0)" stroke-opacity="1.0" stroke-linecap="round" stroke-linejoin="round"/>
    <path d="M 466.49267578125 391.4409484863281 C 464.03729248046875 419.677978515625 452.13323974609375 433.3829345703125 414.3262023925781 448.118408203125 C 389.2000732421875 479.8667297363281 390.133056640625 454.69061279296875 359.669189453125 430.29656982421875 C 387.5941467285156 431.93084716796875 441.66253662109375 424.1341247558594 420.5719299316406 413.73583984375 C 432.846435546875 390.63482666015625 479.5255432128906 411.1920166015625 466.49267578125 391.4409484863281" stroke-width="0.0" fill="rgb(5, 0, 94)" opacity="0.9994981" stroke="rgb(0, 0, 0)" stroke-opacity="1.0" stroke-linecap="round" stroke-linejoin="round"/>
    <path d="M 347.58538818359375 399.58392333984375 C 339.89599609375 494.0581359863281 354.2997131347656 513.03271484375 299.8670349121094 477.88427734375 C 248.60098266601562 441.04345703125 228.5792999267578 418.25469970703125 224.42189025878906 408.031982421875 C 220.82872009277344 422.76519775390625 240.123046875 424.0615539550781 266.78326416015625 401.2060241699219 C 295.3128356933594 443.3145751953125 342.2884521484375 407.3538818359375 347.58538818359375 399.58392333984375" stroke-width="0.0" fill="rgb(1, 0, 132)" opacity="1.0" stroke="rgb(0, 0, 0)" stroke-opacity="1.0" stroke-linecap="round" stroke-linejoin="round"/>
    <path d="M 312.8575134277344 260.6910400390625 C 227.32249450683594 221.6217498779297 219.54257202148438 280.1220397949219 235.8612060546875 338.9573059082031 C 189.02847290039062 347.2644348144531 166.8201446533203 280.8507995605469 169.37301635742188 265.1056823730469 C 159.20176696777344 242.93316650390625 180.63510131835938 168.25682067871094 258.6949157714844 185.5911102294922 C 298.6959533691406 165.0294189453125 339.1610107421875 202.78826904296875 312.8575134277344 260.6910400390625" stroke-width="0.0" fill="rgb(250, 189, 20)" opacity="0.8517888" stroke="rgb(0, 0, 0)" stroke-opacity="1.0" stroke-linecap="round" stroke-linejoin="round"/>
    <path d="M 450.473388671875 448.3898010253906 C 423.2537536621094 489.3734130859375 413.4582824707031 499.3294677734375 386.6111145019531 498.89056396484375 C 341.5915832519531 496.56304931640625 299.939208984375 497.53143310546875 289.8065490722656 467.123779296875 C 325.5766906738281 419.0625915527344 351.0796203613281 411.9583740234375 385.3003845214844 423.8475036621094 C 445.0831298828125 401.0310363769531 424.0275573730469 410.72515869140625 450.473388671875 448.3898010253906" stroke-width="0.0" fill="rgb(25, 12, 141)" opacity="0.99874014" stroke="rgb(0, 0, 0)" stroke-opacity="1.0" stroke-linecap="round" stroke-linejoin="round"/>
    <path d="M 269.18487548828125 236.0474853515625 C 229.47207641601562 276.5663146972656 189.43910217285156 294.68341064453125 255.94027709960938 293.6046142578125 C 257.27496337890625 367.52105712890625 260.8500671386719 372.1890869140625 230.34092712402344 385.6405029296875 C 302.1379089355469 413.39984130859375 276.2716979980469 425.85418701171875 282.2483825683594 380.2803955078125 C 271.85736083984375 393.1005859375 278.58551025390625 404.3384704589844 269.18487548828125 236.0474853515625" stroke-width="0.0" fill="rgb(225, 61, 29)" opacity="0.98339605" stroke="rgb(0, 0, 0)" stroke-opacity="1.0" stroke-linecap="round" stroke-linejoin="round"/>
    <path d="M 241.25547790527344 182.95098876953125 C 77.22357940673828 124.20950317382812 52.97990798950195 436.7364501953125 178.3260955810547 422.1525573730469 C 71.78032684326172 280.0071716308594 261.525390625 113.87625885009766 117.32344055175781 164.83377075195312 C 76.14153289794922 340.2857666015625 87.49647521972656 254.08201599121094 156.0281982421875 144.38746643066406 C 148.26339721679688 349.79339599609375 150.91900634765625 254.85577392578125 241.25547790527344 182.95098876953125" stroke-width="0.0" fill="rgb(249, 185, 25)" opacity="0.99603724" stroke="rgb(0, 0, 0)" stroke-opacity="1.0" stroke-linecap="round" stroke-linejoin="round"/>
    <path d="M 327.4747009277344 164.23712158203125 C 334.3192138671875 188.4239959716797 313.4456787109375 185.09548950195312 307.1308288574219 180.97686767578125 C 311.2691650390625 180.3696746826172 296.80517578125 195.60069274902344 289.548828125 142.39620971679688 C 259.3820495605469 156.44256591796875 283.46563720703125 140.84779357910156 300.05926513671875 108.6364517211914 C 298.63525390625 121.18433380126953 314.1943664550781 92.93203735351562 327.4747009277344 164.23712158203125" stroke-width="0.0" fill="rgb(5, 20, 236)" opacity="0.9626746" stroke="rgb(0, 0, 0)" stroke-opacity="1.0" stroke-linecap="round" stroke-linejoin="round"/>
    <path d="M 157.61306762695312 199.5171661376953 C 114.96142578125 244.55699157714844 98.50472259521484 306.84210205078125 101.9825439453125 362.7275695800781 C 34.79610061645508 320.5525207519531 -14.552947044372559 305.0146179199219 -39.88919448852539 232.23411560058594 C 54.40269088745117 230.75613403320312 45.720916748046875 197.1287384033203 127.29267883300781 117.27049255371094 C 224.79983520507812 192.48780822753906 188.3536376953125 166.1659393310547 157.61306762695312 199.5171661376953" stroke-width="0.0" fill="rgb(15, 9, 237)" opacity="0.99614483" stroke="rgb(0, 0, 0)" stroke-opacity="1.0" stroke-linecap="round" stroke-linejoin="round"/>
    <path d="M 231.70880126953125 189.16818237304688 C 144.63119506835938 323.402099609375 225.2821044921875 369.2894592285156 163.78749084472656 333.78607177734375 C 160.94692993164062 304.35711669921875 176.6894073486328 231.18115234375 181.33970642089844 240.90003967285156 C 132.52609252929688 282.3536071777344 150.8949432373047 258.63763427734375 172.2577362060547 246.85317993164062 C 184.93869018554688 242.53759765625 189.5043182373047 195.13560485839844 231.70880126953125 189.16818237304688" stroke-width="0.0" fill="rgb(235, 80, 29)" opacity="0.8791396" stroke="rgb(0, 0, 0)" stroke-opacity="1.0" stroke-linecap="round" stroke-linejoin="round"/>
    <path d="M 351.8963317871094 113.24347686767578 C 311.0364990234375 228.3505401611328 304.56964111328125 55.510459899902344 279.63580322265625 180.9814910888672 C 243.4494171142578 205.7433319091797 262.55755615234375 138.5283966064453 272.65240478515625 130.51864624023438 C 242.0164794921875 149.96975708007812 288.4457702636719 133.5615692138672 279.6554260253906 115.8590316772461 C 304.1172180175781 103.50492095947266 351.6241149902344 93.82001495361328 351.8963317871094 113.24347686767578" stroke-width="0.0" fill="rgb(173, 139, 34)" opacity="0.9029209" stroke="rgb(0, 0, 0)" stroke-opacity="1.0" stroke-linecap="round" stroke-linejoin="round"/>
    <path d="M 279.6212158203125 145.90956115722656 C 264.5940856933594 170.5200653076172 262.8094177246094 170.23623657226562 296.0753173828125 173.1439971923828 C 281.901611328125 185.12599182128906 256.89874267578125 190.9867706298828 250.5640411376953 174.00503540039062 C 269.6891174316406 126.09832763671875 277.13330078125 133.11427307128906 285.1113586425781 178.42556762695312 C 292.4870910644531 182.0024871826172 285.3184509277344 166.04766845703125 279.6212158203125 145.90956115722656" stroke-width="0.0" fill="rgb(133, 181, 35)" opacity="0.17996287" stroke="rgb(0, 0, 0)" stroke-opacity="1.0" stroke-linecap="round" stroke-linejoin="round"/>
    <path d="M 204.36827087402344 406.8190002441406 C 211.73931884765625 405.3929138183594 207.33714294433594 404.0718688964844 175.64419555664062 416.0912780761719 C 135.63706970214844 418.7928771972656 157.76785278320312 405.55194091796875 173.93212890625 369.00897216796875 C 203.4167022705078 368.96954345703125 207.33045959472656 378.5652770996094 164.76585388183594 380.0906677246094 C 173.69598388671875 386.1576232910156 189.93389892578125 387.86767578125 204.36827087402344 406.8190002441406" stroke-width="0.0" fill="rgb(238, 150, 58)" opacity="0.89377433" stroke="rgb(0, 0, 0)" stroke-opacity="1.0" stroke-linecap="round" stroke-linejoin="round"/>
    <path d="M 385.8132629394531 405.0130920410156 C 377.0250244140625 414.09320068359375 355.9687805175781 410.1699523925781 362.7784423828125 401.1708679199219 C 296.6690673828125 397.45086669921875 263.5876159667969 423.643798828125 309.3904113769531 382.7199401855469 C 315.3818054199219 399.6560974121094 335.88348388671875 399.2489013671875 346.65380859375 329.9628601074219 C 355.99102783203125 363.91937255859375 367.52545166015625 370.65521240234375 385.8132629394531 405.0130920410156" stroke-width="0.0" fill="rgb(227, 82, 60)" opacity="0.8807183" stroke="rgb(0, 0, 0)" stroke-opacity="1.0" stroke-linecap="round" stroke-linejoin="round"/>
    <path d="M 266.14715576171875 257.7148742675781 C 268.1913757324219 268.5420837402344 256.1984558105469 269.1731262207031 228.6652374267578 269.8087158203125 C 221.34848022460938 280.6845397949219 211.038818359375 265.297607421875 191.96376037597656 282.08404541015625 C 223.09559631347656 325.75946044921875 219.36097717285156 311.9310607910156 242.85433959960938 276.70709228515625 C 258.2432556152344 256.1187438964844 276.98370361328125 267.2406311035156 266.14715576171875 257.7148742675781" stroke-width="0.0" fill="rgb(185, 72, 96)" opacity="0.0115599595" stroke="rgb(0, 0, 0)" stroke-opacity="1.0" stroke-linecap="round" stroke-linejoin="round"/>
    <path d="M 175.04336547851562 333.2610168457031 C 193.64306640625 364.8734436035156 179.13931274414062 362.60552978515625 174.36192321777344 364.2581481933594 C 160.9743194580078 347.4314270019531 158.5552520751953 337.0026550292969 156.21266174316406 304.5059814453125 C 111.91842651367188 314.1094970703125 128.73809814453125 321.0709228515625 161.58685302734375 341.876708984375 C 193.0837860107422 325.1903076171875 193.0360870361328 309.30938720703125 175.04336547851562 333.2610168457031" stroke-width="0.0" fill="rgb(239, 80, 90)" opacity="0.11347637" stroke="rgb(0, 0, 0)" stroke-opacity="1.0" stroke-linecap="round" stroke-linejoin="round"/>
    <path d="M 283.13641357421875 321.413330078125 C 300.0931396484375 337.6845703125 314.632080078125 340.6444396972656 305.4756774902344 340.72259521484375 C 226.88975524902344 336.93988037109375 232.74258422851562 338.9374694824219 237.11642456054688 336.9430847167969 C 260.45294189453125 305.6317138671875 264.1179504394531 292.646728515625 265.5100402832031 301.7460021972656 C 260.1759033203125 288.7558288574219 259.27899169921875 304.0646667480469 283.13641357421875 321.413330078125" stroke-width="0.0" fill="rgb(21, 0, 210)" opacity="1.0" stroke="rgb(0, 0, 0)" stroke-opacity="1.0" stroke-linecap="round" stroke-linejoin="round"/>
    <path d="M 339.7936096191406 114.2492904663086 C 345.39544677734375 111.97499084472656 336.02069091796875 122.12472534179688 349.8190612792969 120.31316375732422 C 323.3031921386719 114.14022064208984 303.7464904785156 109.26210021972656 309.9836730957031 103.9106216430664 C 307.0494689941406 84.55253601074219 337.5149841308594 89.71963500976562 319.338623046875 105.76124572753906 C 337.5851745605469 101.29756164550781 336.6662902832031 117.64286041259766 339.7936096191406 114.2492904663086" stroke-width="0.0" fill="rgb(162, 133, 15)" opacity="0.6944117" stroke="rgb(0, 0, 0)" stroke-opacity="1.0" stroke-linecap="round" stroke-linejoin="round"/>
    <path d="M 276.9546813964844 261.44232177734375 C 275.92327880859375 218.03884887695312 285.3429870605469 234.3087615966797 300.47528076171875 254.72698974609375 C 264.794677734375 253.12496948242188 239.40919494628906 250.87376403808594 247.22914123535156 247.68421936035156 C 254.79373168945312 206.64324951171875 265.0859680175781 177.9810791015625 273.98089599609375 183.08778381347656 C 276.44464111328125 193.66897583007812 274.5483093261719 226.1434326171875 276.9546813964844 261.44232177734375" stroke-width="0.0" fill="rgb(236, 96, 15)" opacity="0.6389785" stroke="rgb(0, 0, 0)" stroke-opacity="1.0" stroke-linecap="round" stroke-linejoin="round"/>
    <path d="M 281.3935852050781 238.98480224609375 C 268.92431640625 229.70233154296875 238.07449340820312 269.0960388183594 279.5417785644531 253.19642639160156 C 268.9801940917969 286.7719421386719 237.10922241210938 275.37200927734375 247.15199279785156 292.8559875488281 C 253.74209594726562 231.33538818359375 247.41526794433594 228.13169860839844 283.267822265625 271.4178771972656 C 299.0149230957031 261.0801086425781 295.78106689453125 284.4467468261719 281.3935852050781 238.98480224609375" stroke-width="0.0" fill="rgb(225, 151, 116)" opacity="0.38330844" stroke="rgb(0, 0, 0)" stroke-opacity="1.0" stroke-linecap="round" stroke-linejoin="round"/>
    <path d="M 369.4754943847656 203.75608825683594 C 372.8556213378906 215.01788330078125 363.4518737792969 242.00599670410156 354.9676513671875 236.9222412109375 C 348.1344299316406 225.9575958251953 338.6614685058594 209.10032653808594 337.73419189453125 191.95901489257812 C 330.6280822753906 193.0800323486328 331.4088439941406 180.701904296875 346.8851013183594 161.36196899414062 C 416.4974670410156 168.45884704589844 399.74127197265625 169.3465576171875 369.4754943847656 203.75608825683594" stroke-width="0.0" fill="rgb(240, 168, 0)" opacity="0.0" stroke="rgb(0, 0, 0)" stroke-opacity="1.0" stroke-linecap="round" stroke-linejoin="round"/>
    <path d="M 84.14511108398438 473.5077209472656 C 81.12801361083984 474.20172119140625 60.23477554321289 459.728271484375 76.9755859375 469.21832275390625 C 68.42855834960938 474.2630615234375 60.948970794677734 461.4988098144531 48.67772674560547 453.9533386230469 C 31.065536499023438 419.35186767578125 31.201122283935547 433.0635070800781 72.52539825439453 428.6419677734375 C 79.05813598632812 433.7864990234375 80.99301147460938 449.0940246582031 84.14511108398438 473.5077209472656" stroke-width="0.0" fill="rgb(107, 246, 2)" opacity="0.93169177" stroke="rgb(0, 0, 0)" stroke-opacity="1.0" stroke-linecap="round" stroke-linejoin="round"/>
    <path d="M 220.5926055908203 341.1377868652344 C 212.55706787109375 367.94390869140625 193.9576873779297 378.62274169921875 197.53477478027344 389.5746765136719 C 202.76654052734375 401.7170104980469 175.8235321044922 380.771484375 184.46148681640625 321.8249206542969 C 199.0395050048828 308.3545227050781 180.46998596191406 314.6078186035156 206.94847106933594 318.3437805175781 C 196.90904235839844 315.0682067871094 211.67649841308594 325.584228515625 220.5926055908203 341.1377868652344" stroke-width="0.0" fill="rgb(245, 202, 22)" opacity="0.63928366" stroke="rgb(0, 0, 0)" stroke-opacity="1.0" stroke-linecap="round" stroke-linejoin="round"/>
    <path d="M 43.68854904174805 308.89227294921875 C 43.646724700927734 339.6737365722656 29.31650733947754 333.8866271972656 40.80760955810547 345.618896484375 C 36.47333526611328 321.05010986328125 43.045162200927734 331.93170166015625 36.875911712646484 337.7765808105469 C 22.02493667602539 311.1009521484375 20.32046890258789 298.1424560546875 30.83310890197754 281.1121826171875 C 40.33076095581055 287.4040832519531 40.17254638671875 304.057861328125 43.68854904174805 308.89227294921875" stroke-width="0.0" fill="rgb(141, 238, 0)" opacity="0.9861173" stroke="rgb(0, 0, 0)" stroke-opacity="1.0" stroke-linecap="round" stroke-linejoin="round"/>
    <path d="M 135.04701232910156 418.2125549316406 C 125.59060668945312 455.93096923828125 109.15046691894531 461.5716552734375 114.05341339111328 466.0570983886719 C 107.13265991210938 466.7872314453125 97.29047393798828 479.9158020019531 98.35926818847656 453.46295166015625 C 101.0368423461914 439.15557861328125 112.0157241821289 431.1463928222656 112.10700225830078 436.5470275878906 C 115.6513442993164 422.9476623535156 132.5309295654297 427.05224609375 135.04701232910156 418.2125549316406" stroke-width="0.0" fill="rgb(198, 220, 1)" opacity="0.9555502" stroke="rgb(0, 0, 0)" stroke-opacity="1.0" stroke-linecap="round" stroke-linejoin="round"/>
    <path d="M 476.5162353515625 68.69427490234375 C 487.0384521484375 51.55122375488281 474.9259338378906 61.84739303588867 463.1990661621094 68.31421661376953 C 461.8320617675781 97.89405822753906 454.84197998046875 89.26010131835938 475.96710205078125 97.6953125 C 483.8437194824219 80.48487091064453 489.8822326660156 74.9918212890625 489.4878234863281 68.44371032714844 C 493.03558349609375 78.5798568725586 471.8184814453125 69.55330657958984 476.5162353515625 68.69427490234375" stroke-width="0.0" fill="rgb(58, 2, 194)" opacity="0.009401454" stroke="rgb(0, 0, 0)" stroke-opacity="1.0" stroke-linecap="round" stroke-linejoin="round"/>
    <path d="M 45.20188522338867 215.34390258789062 C 57.77846908569336 208.442138671875 46.31134033203125 234.02500915527344 35.19120407104492 216.8917999267578 C 35.65138626098633 212.9491424560547 35.72877883911133 214.0543212890625 37.53190612792969 208.28793334960938 C 2.7090237140655518 179.6538543701172 7.957988262176514 173.58998107910156 15.002894401550293 188.10421752929688 C 31.783435821533203 195.96966552734375 57.835472106933594 186.7304229736328 45.20188522338867 215.34390258789062" stroke-width="0.0" fill="rgb(6, 0, 232)" opacity="0.04734415" stroke="rgb(0, 0, 0)" stroke-opacity="1.0" stroke-linecap="round" stroke-linejoin="round"/>
    <path d="M 333.1556091308594 344.19378662109375 C 314.26202392578125 347.92279052734375 305.30438232421875 363.8645935058594 286.22393798828125 345.6224060058594 C 274.4140930175781 357.742919921875 247.2238006591797 358.6701965332031 273.07177734375 335.5005187988281 C 263.23297119140625 332.47320556640625 314.4618835449219 340.3072204589844 329.53173828125 332.9573669433594 C 320.6206970214844 313.6166687011719 329.4693298339844 330.8201599121094 333.1556091308594 344.19378662109375" stroke-width="0.0" fill="rgb(158, 202, 0)" opacity="0.010071706" stroke="rgb(0, 0, 0)" stroke-opacity="1.0" stroke-linecap="round" stroke-linejoin="round"/>
    <path d="M 404.1746520996094 430.2344665527344 C 392.6280212402344 419.3108825683594 399.76116943359375 409.7171325683594 332.87451171875 423.8271484375 C 320.0048828125 465.7497253417969 349.8865051269531 458.8587951660156 349.4035949707031 449.9800720214844 C 356.6854248046875 442.8954772949219 370.3551330566406 418.4989318847656 378.5657043457031 411.4028015136719 C 407.5313415527344 416.81219482421875 428.6812744140625 408.5838623046875 404.1746520996094 430.2344665527344" stroke-width="0.0" fill="rgb(18, 22, 86)" opacity="0.072334684" stroke="rgb(0, 0, 0)" stroke-opacity="1.0" stroke-linecap="round" stroke-linejoin="round"/>
    <path d="M 348.0075378417969 429.0229187011719 C 360.731689453125 442.1899719238281 371.1372985839844 458.5435485839844 373.341064453125 407.9200134277344 C 346.9020690917969 387.9852600097656 326.42376708984375 368.6882629394531 316.3001403808594 422.4696960449219 C 301.44061279296875 399.914306640625 318.71337890625 385.83514404296875 377.8019714355469 403.527099609375 C 322.8753967285156 411.5909423828125 353.3697814941406 404.6527404785156 348.0075378417969 429.0229187011719" stroke-width="0.0" fill="rgb(25, 0, 8)" opacity="0.20062134" stroke="rgb(0, 0, 0)" stroke-opacity="1.0" stroke-linecap="round" stroke-linejoin="round"/>
    <path d="M 424.43572998046875 69.0986557006836 C 423.90826416015625 70.05294799804688 419.8450012207031 93.27289581298828 407.44842529296875 115.0711898803711 C 396.55499267578125 83.33012390136719 403.00555419921875 67.88994598388672 410.1742248535156 67.75924682617188 C 399.32904052734375 87.90791320800781 406.53240966796875 66.9283218383789 415.814208984375 39.1419792175293 C 417.47857666015625 42.869056701660156 424.6983947753906 69.78009033203125 424.43572998046875 69.0986557006836" stroke-width="0.0" fill="rgb(197, 235, 0)" opacity="1.0" stroke="rgb(0, 0, 0)" stroke-opacity="1.0" stroke-linecap="round" stroke-linejoin="round"/>
    <path d="M 17.154874801635742 58.313907623291016 C 50.88645553588867 106.7586441040039 40.65348815917969 120.69197845458984 12.227654457092285 90.5484390258789 C 13.472325325012207 102.58935546875 -6.962653636932373 101.03974914550781 -18.0880126953125 80.97843933105469 C 13.155013084411621 75.7464828491211 30.947616577148438 85.4728775024414 38.86323547363281 66.88455200195312 C 45.32048416137695 53.116458892822266 26.631792068481445 48.431705474853516 17.154874801635742 58.313907623291016" stroke-width="0.0" fill="rgb(11, 24, 254)" opacity="0.019776113" stroke="rgb(0, 0, 0)" stroke-opacity="1.0" stroke-linecap="round" stroke-linejoin="round"/>
    <path d="M 23.456727981567383 119.32848358154297 C 1.115380048751831 167.33676147460938 24.31615447998047 182.39244079589844 45.829830169677734 164.48443603515625 C -9.702656745910645 170.6819610595703 -33.62436294555664 156.93348693847656 -38.50008010864258 133.09974670410156 C -34.05345916748047 113.24308013916016 -1.9452308416366577 111.22725677490234 27.889652252197266 120.66238403320312 C 45.31381607055664 136.53582763671875 54.11477279663086 133.15599060058594 23.456727981567383 119.32848358154297" stroke-width="0.0" fill="rgb(5, 5, 190)" opacity="0.00576178" stroke="rgb(0, 0, 0)" stroke-opacity="1.0" stroke-linecap="round" stroke-linejoin="round"/>
    <path d="M 552.3246459960938 267.65838623046875 C 531.5778198242188 276.0447998046875 502.6882019042969 283.265869140625 488.6596984863281 277.884521484375 C 487.6422119140625 255.2553253173828 477.4698181152344 259.15875244140625 461.61767578125 233.15301513671875 C 471.06005859375 221.1890869140625 460.5311584472656 230.67994689941406 467.8663330078125 226.24639892578125 C 518.3004760742188 212.6893310546875 532.1082153320312 226.20802307128906 552.3246459960938 267.65838623046875" stroke-width="0.0" fill="rgb(20, 0, 177)" opacity="0.049954206" stroke="rgb(0, 0, 0)" stroke-opacity="1.0" stroke-linecap="round" stroke-linejoin="round"/>
    <path d="M 308.923583984375 43.54258728027344 C 328.00067138671875 63.06439208984375 328.87847900390625 80.76274871826172 323.8327331542969 57.6374626159668 C 317.6707763671875 20.738481521606445 291.55657958984375 37.019432067871094 245.52796936035156 34.692169189453125 C 271.3497619628906 26.034774780273438 280.7705383300781 33.398033142089844 291.0821228027344 60.24673080444336 C 344.4315185546875 64.04554748535156 310.0298767089844 33.57762908935547 308.923583984375 43.54258728027344" stroke-width="0.0" fill="rgb(11, 8, 166)" opacity="0.021937417" stroke="rgb(0, 0, 0)" stroke-opacity="1.0" stroke-linecap="round" stroke-linejoin="round"/>
    <path d="M 431.8087463378906 283.9067077636719 C 423.34222412109375 272.5934143066406 440.76702880859375 278.3937072753906 430.417724609375 286.0055236816406 C 396.7427673339844 297.6769714355469 413.4056701660156 285.3416748046875 418.7877197265625 264.9306640625 C 406.9932556152344 240.50994873046875 429.43817138671875 228.5982208251953 434.228515625 254.1983642578125 C 385.2624206542969 269.701416015625 428.6342468261719 284.1715087890625 431.8087463378906 283.9067077636719" stroke-width="0.0" fill="rgb(194, 130, 20)" opacity="0.0050810752" stroke="rgb(0, 0, 0)" stroke-opacity="1.0" stroke-linecap="round" stroke-linejoin="round"/>
    <path d="M 524.6553955078125 139.61058044433594 C 516.3895874023438 158.96949768066406 504.6687316894531 178.55140686035156 479.39068603515625 172.97012329101562 C 466.5480651855469 183.04910278320312 458.993408203125 158.32073974609375 428.7668151855469 108.51978302001953 C 452.40167236328125 108.62776947021484 502.81671142578125 126.18544006347656 547.1428833007812 132.64413452148438 C 513.4273681640625 121.51030731201172 515.5072631835938 128.26885986328125 524.6553955078125 139.61058044433594" stroke-width="0.0" fill="rgb(12, 15, 160)" opacity="0.019203452" stroke="rgb(0, 0, 0)" stroke-opacity="1.0" stroke-linecap="round" stroke-linejoin="round"/>
    <path d="M 540.0599975585938 163.08506774902344 C 541.1571655273438 161.85699462890625 530.3483276367188 160.29664611816406 495.6745300292969 187.95985412597656 C 483.16400146484375 174.91293334960938 453.09869384765625 168.2601776123047 480.8222351074219 194.20382690429688 C 473.6075439453125 151.9890594482422 488.4316101074219 166.96566772460938 517.8761596679688 177.56785583496094 C 517.7416381835938 147.39990234375 525.1123657226562 154.182373046875 540.0599975585938 163.08506774902344" stroke-width="0.0" fill="rgb(26, 12, 153)" opacity="0.019045874" stroke="rgb(0, 0, 0)" stroke-opacity="1.0" stroke-linecap="round" stroke-linejoin="round"/>
    <path d="M 80.70135498046875 360.43121337890625 C 94.0195541381836 396.66851806640625 101.24271392822266 393.46563720703125 73.5007553100586 382.6644592285156 C 45.23764419555664 372.0785217285156 42.55302429199219 352.1099548339844 41.500919342041016 346.0960388183594 C 43.59770584106445 346.79620361328125 52.04034423828125 348.5820007324219 64.58567810058594 357.5824279785156 C 82.66682434082031 355.8248291015625 62.76422882080078 361.3676452636719 80.70135498046875 360.43121337890625" stroke-width="0.0" fill="rgb(157, 244, 1)" opacity="0.9664301" stroke="rgb(0, 0, 0)" stroke-opacity="1.0" stroke-linecap="round" stroke-linejoin="round"/>
    <path d="M 310.0630798339844 268.43792724609375 C 339.3598327636719 277.65069580078125 336.6439208984375 267.5140075683594 311.7002868652344 275.9935302734375 C 321.9425964355469 269.1736755371094 308.4496765136719 259.843017578125 311.8565673828125 268.4311218261719 C 332.47802734375 279.7381591796875 332.1594543457031 268.74920654296875 312.9465026855469 241.07691955566406 C 309.0115661621094 248.39529418945312 299.6190185546875 252.14276123046875 310.0630798339844 268.43792724609375" stroke-width="0.0" fill="rgb(143, 206, 1)" opacity="0.08393426" stroke="rgb(0, 0, 0)" stroke-opacity="1.0" stroke-linecap="round" stroke-linejoin="round"/>
    <path d="M 522.364990234375 139.56224060058594 C 513.5055541992188 125.45661926269531 484.0392761230469 125.71467590332031 487.67034912109375 154.0291748046875 C 479.37738037109375 152.4987335205078 465.32623291015625 134.64419555664062 468.23968505859375 100.36370849609375 C 468.11639404296875 135.2306365966797 465.40936279296875 135.11776733398438 486.387451171875 140.46316528320312 C 495.32037353515625 122.39611053466797 510.3046569824219 127.57088470458984 522.364990234375 139.56224060058594" stroke-width="0.0" fill="rgb(27, 37, 154)" opacity="0.00046712687" stroke="rgb(0, 0, 0)" stroke-opacity="1.0" stroke-linecap="round" stroke-linejoin="round"/>
    <path d="M 483.02508544921875 453.4607238769531 C 482.22314453125 442.7124328613281 466.1697692871094 459.34661865234375 469.9540710449219 472.9935607910156 C 449.77667236328125 475.2046813964844 441.56341552734375 471.0933532714844 453.87445068359375 470.2198181152344 C 441.19293212890625 422.05804443359375 438.6220703125 412.669921875 453.99957275390625 434.6374206542969 C 480.8467712402344 419.0472106933594 469.53460693359375 432.471923828125 483.02508544921875 453.4607238769531" stroke-width="0.0" fill="rgb(21, 11, 73)" opacity="0.013847197" stroke="rgb(0, 0, 0)" stroke-opacity="1.0" stroke-linecap="round" stroke-linejoin="round"/>
    <path d="M 504.53204345703125 366.6657409667969 C 493.7950134277344 384.6286315917969 487.3770446777344 370.6980895996094 483.2673645019531 360.28045654296875 C 477.5411682128906 391.8251647949219 445.7239990234375 356.0939025878906 467.79547119140625 321.86724853515625 C 492.7854309082031 364.1588134765625 486.69281005859375 359.3598937988281 482.10382080078125 361.5680236816406 C 465.9278869628906 340.8727111816406 478.60809326171875 329.3276672363281 504.53204345703125 366.6657409667969" stroke-width="0.0" fill="rgb(34, 18, 110)" opacity="0.0033218728" stroke="rgb(0, 0, 0)" stroke-opacity="1.0" stroke-linecap="round" stroke-linejoin="round"/>
    <path d="M 171.26510620117188 409.9485168457031 C 166.48934936523438 413.884765625 168.72528076171875 421.7774658203125 154.75599670410156 438.02587890625 C 115.67750549316406 448.10723876953125 139.9680938720703 432.98858642578125 127.66706848144531 425.3241882324219 C 152.1377716064453 426.1847229003906 151.02651977539062 392.43011474609375 137.99391174316406 408.9851989746094 C 165.79185485839844 410.7702331542969 176.42877197265625 418.09832763671875 171.26510620117188 409.9485168457031" stroke-width="0.0" fill="rgb(138, 78, 180)" opacity="0.104463525" stroke="rgb(0, 0, 0)" stroke-opacity="1.0" stroke-linecap="round" stroke-linejoin="round"/>
    <path d="M 96.63663482666016 132.55252075195312 C 102.13411712646484 140.84849548339844 89.30125427246094 169.0535888671875 74.49857330322266 179.3128204345703 C 95.4056396484375 179.87413024902344 97.23153686523438 153.12391662597656 64.73623657226562 148.27212524414062 C 57.78685760498047 151.4114227294922 64.65377044677734 140.28341674804688 73.76227569580078 125.7479019165039 C 98.77997589111328 133.4219207763672 118.20694732666016 134.9733428955078 96.63663482666016 132.55252075195312" stroke-width="0.0" fill="rgb(36, 25, 200)" opacity="0.022566307" stroke="rgb(0, 0, 0)" stroke-opacity="1.0" stroke-linecap="round" stroke-linejoin="round"/>
    <path d="M 191.79562377929688 115.01133728027344 C 185.63348388671875 135.0158233642578 181.33262634277344 151.115234375 170.62405395507812 173.10337829589844 C 167.12100219726562 149.6465301513672 161.23817443847656 123.9852066040039 167.54312133789062 127.10318756103516 C 161.0632781982422 138.79498291015625 167.22119140625 110.40750885009766 184.11561584472656 82.91715240478516 C 191.08384704589844 111.0746078491211 185.9143829345703 140.0388641357422 191.79562377929688 115.01133728027344" stroke-width="0.0" fill="rgb(178, 253, 5)" opacity="0.9742591" stroke="rgb(0, 0, 0)" stroke-opacity="1.0" stroke-linecap="round" stroke-linejoin="round"/>
    <path d="M 193.38514709472656 392.1165771484375 C 212.78195190429688 413.2987365722656 181.0692596435547 435.79547119140625 163.21450805664062 411.4571228027344 C 157.11727905273438 417.53387451171875 149.72515869140625 405.6585693359375 127.9302749633789 397.6767272949219 C 126.50666809082031 387.2404479980469 141.95787048339844 379.6907653808594 146.2920379638672 389.9376525878906 C 179.79908752441406 368.1900634765625 177.92555236816406 370.385498046875 193.38514709472656 392.1165771484375" stroke-width="0.0" fill="rgb(224, 123, 40)" opacity="0.9056484" stroke="rgb(0, 0, 0)" stroke-opacity="1.0" stroke-linecap="round" stroke-linejoin="round"/>
    <path d="M 463.1607666015625 105.45311737060547 C 453.1327209472656 126.61685180664062 447.6009521484375 133.7809600830078 431.7786865234375 147.18360900878906 C 410.38702392578125 155.72897338867188 407.9456481933594 161.67758178710938 423.31524658203125 134.33204650878906 C 429.45648193359375 116.69703674316406 435.9088134765625 109.5848617553711 449.637451171875 106.33206939697266 C 459.9978942871094 103.48243713378906 463.4584655761719 105.94561004638672 463.1607666015625 105.45311737060547" stroke-width="0.0" fill="rgb(183, 237, 7)" opacity="0.93737584" stroke="rgb(0, 0, 0)" stroke-opacity="1.0" stroke-linecap="round" stroke-linejoin="round"/>
    <path d="M 221.294921875 340.1693115234375 C 242.48989868164062 349.230224609375 255.08038330078125 334.3358459472656 234.1913604736328 348.8316650390625 C 229.5618133544922 344.2044677734375 236.55667114257812 331.6133117675781 229.09661865234375 333.9961242675781 C 267.7691650390625 263.46917724609375 261.33770751953125 263.32916259765625 243.80084228515625 312.2994689941406 C 218.522705078125 335.0447998046875 222.51181030273438 335.2507629394531 221.294921875 340.1693115234375" stroke-width="0.0" fill="rgb(149, 197, 85)" opacity="0.00092665176" stroke="rgb(0, 0, 0)" stroke-opacity="1.0" stroke-linecap="round" stroke-linejoin="round"/>
    <path d="M 200.75523376464844 483.806640625 C 167.59852600097656 491.9996032714844 133.03726196289062 489.83978271484375 135.11009216308594 490.5105285644531 C 130.9308319091797 497.06805419921875 107.48638916015625 493.3973693847656 87.984375 468.26885986328125 C 93.74610137939453 400.72412109375 134.6324920654297 402.5500183105469 144.03555297851562 438.9373474121094 C 145.32803344726562 454.3165283203125 183.81272888183594 454.62957763671875 200.75523376464844 483.806640625" stroke-width="0.0" fill="rgb(13, 51, 222)" opacity="0.0646608" stroke="rgb(0, 0, 0)" stroke-opacity="1.0" stroke-linecap="round" stroke-linejoin="round"/>
    <path d="M 445.2023620605469 414.81866455078125 C 461.33538818359375 362.36383056640625 464.82037353515625 401.858154296875 463.8496398925781 437.14886474609375 C 450.9825439453125 442.03070068359375 445.4507141113281 437.84759521484375 432.4163818359375 381.6787414550781 C 442.65765380859375 369.2529296875 445.047607421875 370.5146179199219 453.8201904296875 382.58258056640625 C 466.9879150390625 387.4761657714844 457.2469177246094 400.0548400878906 445.2023620605469 414.81866455078125" stroke-width="0.0" fill="rgb(24, 21, 70)" opacity="0.022006525" stroke="rgb(0, 0, 0)" stroke-opacity="1.0" stroke-linecap="round" stroke-linejoin="round"/>
    <path d="M 310.2179260253906 125.8686752319336 C 319.9178466796875 130.70028686523438 293.13006591796875 133.8015594482422 283.9697265625 113.652099609375 C 273.1770324707031 103.60115814208984 279.65814208984375 96.6247787475586 288.33935546875 106.74810028076172 C 285.7310791015625 118.5757827758789 286.905029296875 90.04366302490234 317.8414611816406 97.67121124267578 C 329.25762939453125 105.91539001464844 302.7721252441406 93.11451721191406 310.2179260253906 125.8686752319336" stroke-width="0.0" fill="rgb(168, 126, 14)" opacity="0.34533414" stroke="rgb(0, 0, 0)" stroke-opacity="1.0" stroke-linecap="round" stroke-linejoin="round"/>
    <path d="M 410.77862548828125 49.40061569213867 C 411.49285888671875 55.002376556396484 423.2754821777344 80.6297607421875 393.07330322265625 53.97813415527344 C 356.9364929199219 59.02389907836914 332.1516418457031 32.3303337097168 334.60479736328125 65.05389404296875 C 396.62005615234375 48.781402587890625 378.1097106933594 28.635433197021484 383.9897766113281 12.120201110839844 C 428.610595703125 21.185678482055664 431.9884338378906 45.212039947509766 410.77862548828125 49.40061569213867" stroke-width="0.0" fill="rgb(6, 12, 253)" opacity="0.047022223" stroke="rgb(0, 0, 0)" stroke-opacity="1.0" stroke-linecap="round" stroke-linejoin="round"/>
  </g>
</svg>
