<?xml version="1.0" ?>
<svg xmlns="http://www.w3.org/2000/svg" version="1.1" width="512" height="512">
  <defs/>
  <g>
    <path d="M 522.5135498046875 469.7423095703125 C 547.5283813476562 517.9119262695312 549.3453369140625 525.8387451171875 375.0186462402344 544.3473510742188 C 308.07391357421875 575.3883056640625 280.7954406738281 574.1307373046875 260.3507385253906 496.45184326171875 C 273.0557861328125 294.32122802734375 342.91961669921875 299.6790466308594 473.6585998535156 292.1825866699219 C 552.6402587890625 318.0245056152344 550.8787841796875 347.4534912109375 522.5135498046875 469.7423095703125" stroke-width="0.0" fill="rgb(29, 214, 105)" opacity="0.87149125" stroke="rgb(0, 0, 0)" stroke-opacity="1.0" stroke-linecap="round" stroke-linejoin="round"/>
    <path d="M 349.08123779296875 394.7284851074219 C 298.6827697753906 532.1707763671875 311.11602783203125 550.9783325195312 182.65676879882812 554.1229248046875 C -51.20000076293945 519.8477783203125 -51.20000076293945 512.7622680664062 -41.013427734375 450.2869567871094 C -20.124401092529297 207.40245056152344 -8.52768611907959 198.3882598876953 46.52399826049805 216.296630859375 C 88.92494201660156 403.03607177734375 164.30569458007812 363.58941650390625 349.08123779296875 394.7284851074219" stroke-width="0.0" fill="rgb(22, 227, 111)" opacity="0.7989531" stroke="rgb(0, 0, 0)" stroke-opacity="1.0" stroke-linecap="round" stroke-linejoin="round"/>
    <path d="M 238.15423583984375 164.25259399414062 C 240.24366760253906 451.17059326171875 265.3074951171875 357.8269958496094 210.7870635986328 407.95782470703125 C 56.07874298095703 343.92437744140625 48.88685989379883 325.36016845703125 44.17849349975586 164.87144470214844 C 2.128636598587036 189.82244873046875 99.22976684570312 112.72606658935547 169.91114807128906 225.1265869140625 C 107.50830841064453 255.31552124023438 175.53378295898438 296.5240783691406 238.15423583984375 164.25259399414062" stroke-width="0.0" fill="rgb(58, 26, 43)" opacity="0.83851093" stroke="rgb(0, 0, 0)" stroke-opacity="1.0" stroke-linecap="round" stroke-linejoin="round"/>
    <path d="M 245.2876434326172 15.266855239868164 C 254.64100646972656 216.24411010742188 226.54734802246094 158.50364685058594 30.200273513793945 202.6894073486328 C -14.822481155395508 224.22055053710938 -8.746644973754883 205.5220489501953 -14.554445266723633 179.73439025878906 C -30.29836654663086 -4.400424957275391 -24.601696014404297 -10.486400604248047 48.97020721435547 -53.12203598022461 C 221.98533630371094 -77.43081665039062 236.9823455810547 -79.85896301269531 245.2876434326172 15.266855239868164" stroke-width="0.0" fill="rgb(26, 225, 113)" opacity="0.7911824" stroke="rgb(0, 0, 0)" stroke-opacity="1.0" stroke-linecap="round" stroke-linejoin="round"/>
    <path d="M 524.735595703125 82.25130462646484 C 420.2254943847656 260.3839111328125 397.6756591796875 248.90206909179688 486.4894104003906 293.4502258300781 C 396.7492370605469 307.3747863769531 361.15496826171875 188.6156463623047 157.20433044433594 248.59767150878906 C 347.5436096191406 124.10205078125 186.93238830566406 195.3169403076172 327.2085876464844 20.44089698791504 C 565.031494140625 -35.582359313964844 536.2511596679688 -13.958684921264648 524.735595703125 82.25130462646484" stroke-width="0.0" fill="rgb(48, 29, 22)" opacity="0.87521785" stroke="rgb(0, 0, 0)" stroke-opacity="1.0" stroke-linecap="round" stroke-linejoin="round"/>
    <path d="M 221.87161254882812 170.23606872558594 C 196.1666259765625 279.27105712890625 212.86532592773438 176.7133331298828 133.79534912109375 230.74681091308594 C 72.27928161621094 252.10549926757812 58.92399978637695 288.0512390136719 57.66946792602539 225.90621948242188 C 103.85665893554688 151.08323669433594 113.84855651855469 106.06358337402344 328.3587951660156 17.740089416503906 C 372.04229736328125 47.983489990234375 307.5085754394531 36.177024841308594 221.87161254882812 170.23606872558594" stroke-width="0.0" fill="rgb(37, 41, 70)" opacity="0.90750676" stroke="rgb(0, 0, 0)" stroke-opacity="1.0" stroke-linecap="round" stroke-linejoin="round"/>
    <path d="M 469.8696594238281 333.79864501953125 C 439.9078674316406 452.6128234863281 500.04022216796875 469.42462158203125 242.3932647705078 457.5244140625 C 181.25599670410156 454.67498779296875 189.2360076904297 454.9200744628906 250.10353088378906 319.3387145996094 C 370.8211975097656 349.6539001464844 389.66729736328125 257.952880859375 323.0428161621094 219.8404541015625 C 416.4964904785156 297.64642333984375 473.6986083984375 241.72877502441406 469.8696594238281 333.79864501953125" stroke-width="0.0" fill="rgb(100, 66, 118)" opacity="0.6548877" stroke="rgb(0, 0, 0)" stroke-opacity="1.0" stroke-linecap="round" stroke-linejoin="round"/>
    <path d="M 568.682373046875 177.68081665039062 C 558.0126342773438 325.3602600097656 551.360107421875 334.53009033203125 468.4691467285156 436.29229736328125 C 337.8353576660156 415.1761474609375 327.86846923828125 356.59246826171875 378.8249206542969 288.9436950683594 C 357.94293212890625 131.03488159179688 326.54266357421875 34.10911178588867 484.421630859375 7.835290431976318 C 541.6393432617188 64.46237182617188 532.8641357421875 108.19184112548828 568.682373046875 177.68081665039062" stroke-width="0.0" fill="rgb(82, 205, 117)" opacity="1.0" stroke="rgb(0, 0, 0)" stroke-opacity="1.0" stroke-linecap="round" stroke-linejoin="round"/>
    <path d="M 395.0195617675781 251.0297088623047 C 361.01177978515625 281.4651794433594 394.34429931640625 257.4921569824219 380.7288513183594 263.6645202636719 C 347.0341796875 269.5022888183594 285.80841064453125 231.91995239257812 232.73033142089844 208.65591430664062 C 308.07501220703125 166.74249267578125 215.9958953857422 89.69525146484375 372.9161071777344 66.9314956665039 C 402.18634033203125 107.564208984375 390.15863037109375 167.78880310058594 395.0195617675781 251.0297088623047" stroke-width="0.0" fill="rgb(96, 242, 141)" opacity="1.0" stroke="rgb(0, 0, 0)" stroke-opacity="1.0" stroke-linecap="round" stroke-linejoin="round"/>
    <path d="M 391.756591796875 287.07452392578125 C 388.28387451171875 284.031494140625 495.07476806640625 337.0411071777344 456.398681640625 467.21551513671875 C 238.5049285888672 487.53973388671875 309.4192810058594 455.00103759765625 360.22369384765625 311.4598693847656 C 353.1868896484375 275.99273681640625 330.9842834472656 196.32810974121094 356.8154296875 243.39744567871094 C 374.4456481933594 269.6461181640625 380.9845275878906 302.21905517578125 391.756591796875 287.07452392578125" stroke-width="0.0" fill="rgb(225, 148, 94)" opacity="0.96486294" stroke="rgb(0, 0, 0)" stroke-opacity="1.0" stroke-linecap="round" stroke-linejoin="round"/>
    <path d="M 409.59515380859375 57.18558883666992 C 411.1230163574219 192.3347625732422 354.017578125 193.0417022705078 307.51495361328125 162.439208984375 C 138.9541778564453 31.084077835083008 127.89502716064453 143.1919403076172 121.69734954833984 187.0524139404297 C 88.28392791748047 -3.1430094242095947 140.86965942382812 3.7739484310150146 261.9082946777344 -17.982738494873047 C 364.6587829589844 -25.335792541503906 390.34832763671875 -24.75342559814453 409.59515380859375 57.18558883666992" stroke-width="0.0" fill="rgb(70, 231, 137)" opacity="1.0" stroke="rgb(0, 0, 0)" stroke-opacity="1.0" stroke-linecap="round" stroke-linejoin="round"/>
    <path d="M 189.42349243164062 372.5534973144531 C 173.0851593017578 375.4320373535156 175.2848358154297 378.1089172363281 156.5796356201172 409.1584167480469 C 163.6144256591797 402.23150634765625 197.81878662109375 387.6556701660156 101.34160614013672 391.7300720214844 C 43.71372985839844 313.9384460449219 34.6817512512207 316.6080322265625 178.188232421875 293.2233581542969 C 187.46804809570312 331.41619873046875 200.74461364746094 315.73187255859375 189.42349243164062 372.5534973144531" stroke-width="0.0" fill="rgb(124, 229, 97)" opacity="0.89725745" stroke="rgb(0, 0, 0)" stroke-opacity="1.0" stroke-linecap="round" stroke-linejoin="round"/>
    <path d="M 551.4671630859375 73.43699645996094 C 527.0670776367188 88.12293243408203 498.89569091796875 73.7119140625 504.2628479003906 78.03707885742188 C 504.130615234375 71.12630462646484 463.5975341796875 79.81072998046875 368.2027893066406 86.07660675048828 C 362.0863952636719 -72.88636016845703 345.19671630859375 -60.96375274658203 411.340087890625 -36.4845085144043 C 541.2061157226562 -10.029305458068848 535.45654296875 7.46136474609375 551.4671630859375 73.43699645996094" stroke-width="0.0" fill="rgb(78, 195, 106)" opacity="0.99900657" stroke="rgb(0, 0, 0)" stroke-opacity="1.0" stroke-linecap="round" stroke-linejoin="round"/>
    <path d="M 347.4417724609375 454.28076171875 C 356.5361328125 486.5165100097656 341.0666809082031 486.48419189453125 238.10595703125 522.0343627929688 C 207.34735107421875 482.74053955078125 189.87351989746094 462.4105529785156 144.79515075683594 417.9698791503906 C 232.09268188476562 391.158447265625 280.6572265625 389.63922119140625 269.6806945800781 358.0618591308594 C 271.2611083984375 398.77020263671875 287.33184814453125 410.08721923828125 347.4417724609375 454.28076171875" stroke-width="0.0" fill="rgb(60, 227, 130)" opacity="0.9925326" stroke="rgb(0, 0, 0)" stroke-opacity="1.0" stroke-linecap="round" stroke-linejoin="round"/>
    <path d="M 213.06593322753906 321.7379455566406 C 203.38970947265625 304.8663024902344 214.8289794921875 273.1024169921875 181.83966064453125 303.2445983886719 C 198.78419494628906 342.8759765625 174.7869110107422 368.3143310546875 152.5465850830078 293.4693908691406 C 223.1663818359375 274.4074401855469 196.47494506835938 319.41400146484375 264.0120544433594 259.05517578125 C 228.54962158203125 240.1235809326172 223.1623992919922 244.3744659423828 213.06593322753906 321.7379455566406" stroke-width="0.0" fill="rgb(123, 114, 158)" opacity="0.09238292" stroke="rgb(0, 0, 0)" stroke-opacity="1.0" stroke-linecap="round" stroke-linejoin="round"/>
    <path d="M 481.1651611328125 430.8416748046875 C 446.8486328125 502.0673828125 432.79931640625 487.7252502441406 415.6835021972656 474.4548034667969 C 327.90533447265625 497.0686340332031 298.5613098144531 524.5730590820312 279.36431884765625 416.73406982421875 C 272.36669921875 362.71221923828125 329.96246337890625 383.1167297363281 404.33612060546875 390.3450622558594 C 426.0030822753906 400.7569274902344 456.2295227050781 391.3161926269531 481.1651611328125 430.8416748046875" stroke-width="0.0" fill="rgb(92, 240, 91)" opacity="0.8717335" stroke="rgb(0, 0, 0)" stroke-opacity="1.0" stroke-linecap="round" stroke-linejoin="round"/>
    <path d="M 350.1461181640625 380.48272705078125 C 313.2149658203125 458.0116882324219 290.2538146972656 439.77386474609375 199.84176635742188 420.7518615722656 C 212.95098876953125 372.9007873535156 170.6949462890625 358.02679443359375 222.5851287841797 368.15728759765625 C 260.311767578125 377.8621826171875 242.57754516601562 359.8521423339844 262.8818054199219 375.3865966796875 C 343.9039306640625 372.8551025390625 342.8118591308594 387.4120178222656 350.1461181640625 380.48272705078125" stroke-width="0.0" fill="rgb(155, 203, 0)" opacity="1.0" stroke="rgb(0, 0, 0)" stroke-opacity="1.0" stroke-linecap="round" stroke-linejoin="round"/>
    <path d="M 182.99209594726562 312.94140625 C 249.42141723632812 384.54022216796875 44.80413818359375 334.8674621582031 139.8658905029297 264.80194091796875 C 79.2076416015625 300.7810974121094 169.62551879882812 343.3221435546875 -23.808151245117188 309.1652526855469 C 2.1349165439605713 175.94955444335938 23.50100326538086 121.9794921875 145.56578063964844 97.4815444946289 C -21.412626266479492 374.4618225097656 141.6292266845703 293.39215087890625 182.99209594726562 312.94140625" stroke-width="0.0" fill="rgb(60, 219, 125)" opacity="1.0" stroke="rgb(0, 0, 0)" stroke-opacity="1.0" stroke-linecap="round" stroke-linejoin="round"/>
    <path d="M 91.61254119873047 289.4247741699219 C 95.81483459472656 309.3013000488281 93.52963256835938 305.6595153808594 105.23139190673828 303.1771545410156 C 102.42935943603516 306.3525390625 81.90736389160156 325.9298095703125 63.510581970214844 348.5858459472656 C 26.702999114990234 319.1789855957031 62.05855178833008 311.8491516113281 101.6232681274414 280.2536926269531 C 104.12480926513672 272.3311767578125 133.6194610595703 290.7151794433594 91.61254119873047 289.4247741699219" stroke-width="0.0" fill="rgb(56, 95, 147)" opacity="0.880038" stroke="rgb(0, 0, 0)" stroke-opacity="1.0" stroke-linecap="round" stroke-linejoin="round"/>
    <path d="M 215.64942932128906 141.13043212890625 C 235.39578247070312 147.4314422607422 239.8314971923828 140.28692626953125 218.77352905273438 143.44227600097656 C 175.06387329101562 185.2267608642578 204.62969970703125 182.86659240722656 163.9324188232422 170.16270446777344 C 172.91656494140625 85.42423248291016 242.97128295898438 115.49827575683594 232.18350219726562 147.44798278808594 C 222.38107299804688 154.9982452392578 238.43252563476562 145.30911254882812 215.64942932128906 141.13043212890625" stroke-width="0.0" fill="rgb(101, 255, 151)" opacity="1.0" stroke="rgb(0, 0, 0)" stroke-opacity="1.0" stroke-linecap="round" stroke-linejoin="round"/>
    <path d="M 358.55291748046875 334.5836181640625 C 361.63165283203125 376.5074462890625 306.5840759277344 337.98150634765625 281.0796813964844 324.1577453613281 C 272.95709228515625 339.1770324707031 264.0574951171875 380.93023681640625 258.609130859375 367.3510437011719 C 267.7592468261719 322.9736328125 274.5430908203125 315.17132568359375 278.5910339355469 334.1556701660156 C 322.6851501464844 324.7972412109375 353.68719482421875 239.4720458984375 358.55291748046875 334.5836181640625" stroke-width="0.0" fill="rgb(194, 113, 112)" opacity="0.9603564" stroke="rgb(0, 0, 0)" stroke-opacity="1.0" stroke-linecap="round" stroke-linejoin="round"/>
    <path d="M 5.587613582611084 524.4996948242188 C 17.577173233032227 520.3109741210938 10.62330150604248 527.7404174804688 0.6356459259986877 530.4232177734375 C -9.364206314086914 527.7437133789062 -16.68471336364746 520.4232177734375 -19.364206314086914 510.4232177734375 C -16.684602737426758 500.42352294921875 -9.35535717010498 493.13433837890625 -12.058277130126953 503.8512268066406 C -5.482361793518066 509.3287658691406 0.8214172124862671 517.0791015625 5.587613582611084 524.4996948242188" stroke-width="0.0" fill="rgb(57, 62, 75)" opacity="0.17100312" stroke="rgb(0, 0, 0)" stroke-opacity="1.0" stroke-linecap="round" stroke-linejoin="round"/>
    <path d="M 125.03118896484375 139.18344116210938 C 129.50318908691406 187.8658905029297 149.92698669433594 171.16329956054688 95.57792663574219 248.25343322753906 C 85.32923126220703 157.43978881835938 109.12938690185547 158.69561767578125 104.3007583618164 160.57347106933594 C 100.99007415771484 183.01119995117188 105.40380096435547 149.39889526367188 111.47991943359375 146.3753204345703 C 164.23690795898438 115.37056732177734 132.95726013183594 80.82916259765625 125.03118896484375 139.18344116210938" stroke-width="0.0" fill="rgb(52, 223, 118)" opacity="0.99851245" stroke="rgb(0, 0, 0)" stroke-opacity="1.0" stroke-linecap="round" stroke-linejoin="round"/>
    <path d="M 435.2630920410156 280.40997314453125 C 444.8611145019531 287.78143310546875 451.4217529296875 290.12554931640625 424.02667236328125 316.8782653808594 C 389.4528503417969 357.0967102050781 376.97271728515625 348.2228088378906 411.9515686035156 288.23046875 C 415.6900634765625 253.59609985351562 427.45257568359375 273.96502685546875 426.7144775390625 262.61102294921875 C 430.1039123535156 281.10137939453125 447.40679931640625 283.7778015136719 435.2630920410156 280.40997314453125" stroke-width="0.0" fill="rgb(255, 183, 81)" opacity="1.0" stroke="rgb(0, 0, 0)" stroke-opacity="1.0" stroke-linecap="round" stroke-linejoin="round"/>
    <path d="M 450.95660400390625 408.6955261230469 C 460.6596984863281 426.1383056640625 433.4664611816406 446.82525634765625 429.32952880859375 398.4205627441406 C 397.9047546386719 388.78350830078125 414.3695068359375 412.8736877441406 407.6069030761719 390.642578125 C 405.2784118652344 384.4030456542969 448.0025939941406 384.7750549316406 477.2895812988281 381.2149658203125 C 453.1202087402344 416.2691650390625 448.89166259765625 430.5782165527344 450.95660400390625 408.6955261230469" stroke-width="0.0" fill="rgb(106, 249, 52)" opacity="0.5298327" stroke="rgb(0, 0, 0)" stroke-opacity="1.0" stroke-linecap="round" stroke-linejoin="round"/>
    <path d="M 263.36920166015625 184.12376403808594 C 257.27423095703125 151.4289093017578 267.89288330078125 164.83651733398438 269.4947204589844 151.18003845214844 C 257.5110778808594 84.15977478027344 275.8397521972656 119.45465850830078 213.3997802734375 165.86541748046875 C 213.66549682617188 121.24127960205078 251.7965545654297 97.46742248535156 266.2637023925781 82.20922088623047 C 273.4542541503906 97.84404754638672 282.8865661621094 129.77178955078125 263.36920166015625 184.12376403808594" stroke-width="0.0" fill="rgb(0, 26, 17)" opacity="1.0" stroke="rgb(0, 0, 0)" stroke-opacity="1.0" stroke-linecap="round" stroke-linejoin="round"/>
    <path d="M 392.1322937011719 327.2507019042969 C 411.6770324707031 341.9840393066406 405.19940185546875 351.4198303222656 410.1150817871094 351.3856506347656 C 406.05889892578125 344.5561828613281 409.3392639160156 367.0188293457031 409.88873291015625 303.6571044921875 C 375.9776916503906 285.5687561035156 388.8587646484375 283.8324279785156 388.97808837890625 287.7487487792969 C 365.9408874511719 304.6301574707031 390.4476013183594 340.4994201660156 392.1322937011719 327.2507019042969" stroke-width="0.0" fill="rgb(236, 141, 80)" opacity="0.66333884" stroke="rgb(0, 0, 0)" stroke-opacity="1.0" stroke-linecap="round" stroke-linejoin="round"/>
    <path d="M 255.01625061035156 327.0308532714844 C 275.5111389160156 320.4465637207031 282.683349609375 328.7071228027344 280.1620788574219 326.46826171875 C 289.0729064941406 385.30523681640625 260.7709655761719 371.6116027832031 259.0759582519531 343.1625671386719 C 248.22471618652344 305.8550720214844 252.18319702148438 281.7765197753906 254.8605194091797 288.0104675292969 C 259.0448303222656 293.4872741699219 245.1283416748047 369.18927001953125 255.01625061035156 327.0308532714844" stroke-width="0.0" fill="rgb(142, 153, 145)" opacity="0.023584554" stroke="rgb(0, 0, 0)" stroke-opacity="1.0" stroke-linecap="round" stroke-linejoin="round"/>
    <path d="M 361.0693664550781 105.67642974853516 C 363.8392028808594 124.14663696289062 346.5276794433594 154.58303833007812 304.9279479980469 145.57603454589844 C 301.7823791503906 136.25392150878906 287.2988586425781 132.15391540527344 287.4365539550781 104.23798370361328 C 293.4602966308594 83.82548522949219 308.2881164550781 70.02094268798828 328.2528991699219 70.68154907226562 C 347.6831970214844 74.64643859863281 356.03887939453125 83.6869125366211 361.0693664550781 105.67642974853516" stroke-width="0.0" fill="rgb(245, 255, 0)" opacity="0.9985348" stroke="rgb(0, 0, 0)" stroke-opacity="1.0" stroke-linecap="round" stroke-linejoin="round"/>
    <path d="M 168.0316925048828 212.27354431152344 C 220.03273010253906 205.6245880126953 223.5805206298828 205.9844970703125 216.89686584472656 254.41612243652344 C 213.1075439453125 255.35357666015625 195.57521057128906 250.73709106445312 222.55978393554688 248.45675659179688 C 165.8365020751953 241.79331970214844 180.82608032226562 259.2798767089844 212.63401794433594 233.89053344726562 C 201.88540649414062 190.18783569335938 186.85279846191406 211.40097045898438 168.0316925048828 212.27354431152344" stroke-width="0.0" fill="rgb(171, 172, 232)" opacity="0.5773453" stroke="rgb(0, 0, 0)" stroke-opacity="1.0" stroke-linecap="round" stroke-linejoin="round"/>
    <path d="M 189.6720733642578 333.9926452636719 C 188.5484161376953 367.4143371582031 186.14712524414062 385.8684387207031 169.63235473632812 368.8512268066406 C 153.74964904785156 382.0989990234375 160.28280639648438 373.478515625 147.15248107910156 336.713623046875 C 147.8555908203125 347.78302001953125 168.66281127929688 340.248046875 181.23268127441406 334.57098388671875 C 208.41123962402344 331.76190185546875 186.3358612060547 332.6896667480469 189.6720733642578 333.9926452636719" stroke-width="0.0" fill="rgb(90, 225, 36)" opacity="0.030723894" stroke="rgb(0, 0, 0)" stroke-opacity="1.0" stroke-linecap="round" stroke-linejoin="round"/>
    <path d="M 170.0564727783203 263.1328125 C 128.27548217773438 270.8144226074219 132.598388671875 287.38336181640625 118.94879913330078 301.815185546875 C 128.326416015625 300.25054931640625 128.6401824951172 277.9402160644531 101.025146484375 288.1880798339844 C 114.6669921875 279.37060546875 136.15870666503906 268.5154113769531 128.75852966308594 254.0800018310547 C 183.81484985351562 237.1371612548828 203.56787109375 267.9988098144531 170.0564727783203 263.1328125" stroke-width="0.0" fill="rgb(113, 90, 91)" opacity="1.0" stroke="rgb(0, 0, 0)" stroke-opacity="1.0" stroke-linecap="round" stroke-linejoin="round"/>
    <path d="M 460.9643249511719 255.71409606933594 C 452.3180847167969 279.5584411621094 435.04241943359375 278.3811340332031 437.4229736328125 285.6489562988281 C 416.7193603515625 291.4927978515625 419.5185241699219 273.7465515136719 434.3708801269531 266.60943603515625 C 434.568603515625 256.3152160644531 437.76348876953125 288.2350769042969 418.12615966796875 284.4159851074219 C 402.13275146484375 251.80130004882812 453.80340576171875 260.04168701171875 460.9643249511719 255.71409606933594" stroke-width="0.0" fill="rgb(236, 157, 88)" opacity="0.96476716" stroke="rgb(0, 0, 0)" stroke-opacity="1.0" stroke-linecap="round" stroke-linejoin="round"/>
    <path d="M 520.2579956054688 61.73178482055664 C 520.1817016601562 95.01760864257812 536.76220703125 85.04573822021484 519.4776611328125 67.13050842285156 C 512.3345336914062 70.7428970336914 470.0234375 89.78660583496094 469.4302673339844 89.0503158569336 C 464.294921875 35.619773864746094 459.2939758300781 37.947696685791016 469.9991760253906 55.311161041259766 C 516.0375366210938 55.645381927490234 533.36376953125 47.748600006103516 520.2579956054688 61.73178482055664" stroke-width="0.0" fill="rgb(43, 225, 90)" opacity="0.036388427" stroke="rgb(0, 0, 0)" stroke-opacity="1.0" stroke-linecap="round" stroke-linejoin="round"/>
    <path d="M 146.5103302001953 356.5174865722656 C 110.90558624267578 345.35491943359375 114.81700897216797 373.5259704589844 118.1046142578125 358.969970703125 C 115.77196502685547 324.3090515136719 97.39727020263672 349.1839599609375 93.8035659790039 356.4343566894531 C 98.55860900878906 310.76007080078125 93.53231048583984 312.0498046875 97.97848510742188 317.38775634765625 C 109.21891784667969 301.6579895019531 117.04461669921875 327.2111511230469 146.5103302001953 356.5174865722656" stroke-width="0.0" fill="rgb(179, 199, 0)" opacity="0.34885448" stroke="rgb(0, 0, 0)" stroke-opacity="1.0" stroke-linecap="round" stroke-linejoin="round"/>
    <path d="M 198.97462463378906 370.8498229980469 C 219.8194122314453 391.23577880859375 219.15695190429688 411.086669921875 208.02517700195312 405.3366394042969 C 155.5907440185547 410.0325622558594 135.04859924316406 420.9594421386719 152.35418701171875 378.65606689453125 C 146.4641876220703 381.6080322265625 194.92202758789062 375.3919677734375 191.2004852294922 366.68865966796875 C 186.9352569580078 376.1109313964844 184.01190185546875 387.4502258300781 198.97462463378906 370.8498229980469" stroke-width="0.0" fill="rgb(132, 118, 90)" opacity="0.6787149" stroke="rgb(0, 0, 0)" stroke-opacity="1.0" stroke-linecap="round" stroke-linejoin="round"/>
    <path d="M 66.21321868896484 187.1951446533203 C 66.81858825683594 212.63604736328125 59.172935485839844 210.6490020751953 33.038177490234375 217.4304962158203 C -21.72526741027832 224.84530639648438 -22.275197982788086 236.1978759765625 -21.990947723388672 170.224853515625 C -7.680045127868652 158.2518310546875 6.884891510009766 164.55328369140625 12.118042945861816 176.89675903320312 C 33.35080337524414 172.33013916015625 55.8350944519043 169.79115295410156 66.21321868896484 187.1951446533203" stroke-width="0.0" fill="rgb(130, 166, 157)" opacity="0.078653656" stroke="rgb(0, 0, 0)" stroke-opacity="1.0" stroke-linecap="round" stroke-linejoin="round"/>
    <path d="M 337.53717041015625 305.33734130859375 C 326.0698547363281 340.2853088378906 309.22625732421875 348.77850341796875 304.101318359375 357.18890380859375 C 296.1970520019531 350.06988525390625 287.3830871582031 341.24853515625 287.28436279296875 331.24560546875 C 266.28515625 309.1674499511719 270.2310485839844 298.2271728515625 291.1261291503906 293.61724853515625 C 321.7181396484375 314.09783935546875 325.5171203613281 321.12200927734375 337.53717041015625 305.33734130859375" stroke-width="0.0" fill="rgb(62, 153, 222)" opacity="0.81099224" stroke="rgb(0, 0, 0)" stroke-opacity="1.0" stroke-linecap="round" stroke-linejoin="round"/>
    <path d="M 422.2589111328125 287.460205078125 C 431.80474853515625 334.8189392089844 444.68463134765625 343.7517395019531 392.2257080078125 344.3077087402344 C 420.8203125 316.18212890625 422.1954040527344 302.70489501953125 391.4252014160156 301.39959716796875 C 384.5587158203125 247.45645141601562 405.8828125 264.1143493652344 425.6300354003906 317.7320861816406 C 458.906005859375 305.5198059082031 467.6822509765625 282.3431396484375 422.2589111328125 287.460205078125" stroke-width="0.0" fill="rgb(198, 180, 134)" opacity="0.0" stroke="rgb(0, 0, 0)" stroke-opacity="1.0" stroke-linecap="round" stroke-linejoin="round"/>
    <path d="M 416.26397705078125 84.3290786743164 C 431.8968505859375 83.07864379882812 407.75823974609375 89.46910858154297 387.68603515625 85.08860778808594 C 399.7417297363281 87.92890930175781 395.7481689453125 97.60484313964844 392.7381286621094 87.80023193359375 C 391.95849609375 90.49032592773438 392.73907470703125 91.21759033203125 410.75384521484375 106.51927947998047 C 406.4005126953125 83.80396270751953 430.26055908203125 74.4852294921875 416.26397705078125 84.3290786743164" stroke-width="0.0" fill="rgb(97, 229, 118)" opacity="0.07641802" stroke="rgb(0, 0, 0)" stroke-opacity="1.0" stroke-linecap="round" stroke-linejoin="round"/>
    <path d="M 187.78616333007812 407.1131591796875 C 216.17001342773438 417.23040771484375 190.44015502929688 436.6316833496094 163.3482666015625 431.7288818359375 C 179.598876953125 452.2377014160156 179.3699951171875 412.6705627441406 190.4795379638672 372.77313232421875 C 200.29409790039062 411.0741271972656 169.9961700439453 401.3700256347656 191.5862579345703 378.05035400390625 C 200.10118103027344 415.6977844238281 182.16448974609375 433.2750244140625 187.78616333007812 407.1131591796875" stroke-width="0.0" fill="rgb(78, 126, 150)" opacity="0.34949526" stroke="rgb(0, 0, 0)" stroke-opacity="1.0" stroke-linecap="round" stroke-linejoin="round"/>
    <path d="M 359.9933166503906 173.5568389892578 C 372.73248291015625 175.54310607910156 360.5869445800781 169.72467041015625 334.279296875 165.73773193359375 C 305.4632568359375 213.02195739746094 290.1156311035156 165.49722290039062 293.12200927734375 172.54360961914062 C 315.5099182128906 187.89622497558594 307.66937255859375 182.52284240722656 307.53839111328125 146.8100128173828 C 330.7445068359375 149.26739501953125 352.1985778808594 155.50662231445312 359.9933166503906 173.5568389892578" stroke-width="0.0" fill="rgb(109, 198, 102)" opacity="0.0" stroke="rgb(0, 0, 0)" stroke-opacity="1.0" stroke-linecap="round" stroke-linejoin="round"/>
    <path d="M 187.88600158691406 173.15914916992188 C 197.98934936523438 195.66908264160156 148.9602508544922 177.48345947265625 110.8863525390625 201.4914093017578 C 200.9005126953125 202.7521514892578 200.82037353515625 193.57000732421875 173.95819091796875 182.590087890625 C 124.29106140136719 192.02838134765625 139.50633239746094 172.9961700439453 151.11264038085938 168.950927734375 C 192.0225830078125 154.2903594970703 176.74615478515625 161.24000549316406 187.88600158691406 173.15914916992188" stroke-width="0.0" fill="rgb(229, 132, 141)" opacity="0.43407056" stroke="rgb(0, 0, 0)" stroke-opacity="1.0" stroke-linecap="round" stroke-linejoin="round"/>
    <path d="M 548.7484741210938 246.49220275878906 C 538.6063232421875 279.38134765625 529.458984375 300.8265686035156 494.8787536621094 283.6412048339844 C 505.0753479003906 293.72393798828125 491.0466613769531 265.7301330566406 498.08441162109375 259.98443603515625 C 494.0672302246094 240.92897033691406 496.64288330078125 251.1792449951172 472.99627685546875 204.77102661132812 C 492.4515380859375 167.7840118408203 514.3427124023438 182.3174591064453 548.7484741210938 246.49220275878906" stroke-width="0.0" fill="rgb(92, 207, 59)" opacity="0.050558474" stroke="rgb(0, 0, 0)" stroke-opacity="1.0" stroke-linecap="round" stroke-linejoin="round"/>
    <path d="M 297.2140808105469 16.042129516601562 C 312.92901611328125 53.94365692138672 311.35919189453125 73.46979522705078 309.4658508300781 73.656005859375 C 323.68389892578125 43.355873107910156 315.19390869140625 26.60853385925293 264.7973937988281 43.54631042480469 C 291.12017822265625 50.55078887939453 315.2674255371094 11.213335990905762 307.06719970703125 10.981706619262695 C 318.73040771484375 -3.7722647190093994 322.2845458984375 1.7636491060256958 297.2140808105469 16.042129516601562" stroke-width="0.0" fill="rgb(97, 226, 91)" opacity="0.0" stroke="rgb(0, 0, 0)" stroke-opacity="1.0" stroke-linecap="round" stroke-linejoin="round"/>
    <path d="M 438.90240478515625 275.76031494140625 C 413.8274230957031 264.83721923828125 418.2312316894531 276.5093078613281 435.46905517578125 283.0772705078125 C 430.81451416015625 269.6375427246094 395.3078918457031 266.3721923828125 425.3340759277344 265.9075927734375 C 409.2696838378906 274.5390625 418.2229919433594 258.70855712890625 422.73284912109375 231.10870361328125 C 445.6503601074219 235.14834594726562 436.01776123046875 252.4287872314453 438.90240478515625 275.76031494140625" stroke-width="0.0" fill="rgb(130, 196, 48)" opacity="0.8486926" stroke="rgb(0, 0, 0)" stroke-opacity="1.0" stroke-linecap="round" stroke-linejoin="round"/>
    <path d="M 522.5467529296875 126.1566162109375 C 520.5520629882812 135.66648864746094 521.2067260742188 156.59072875976562 484.2460632324219 168.2537841796875 C 495.2276916503906 145.30624389648438 500.1032409667969 143.4003448486328 502.7703552246094 104.37772369384766 C 480.62255859375 132.5909881591797 479.9902038574219 129.51686096191406 518.3595581054688 128.49354553222656 C 531.905517578125 115.37112426757812 534.8720092773438 132.78741455078125 522.5467529296875 126.1566162109375" stroke-width="0.0" fill="rgb(62, 231, 115)" opacity="0.0" stroke="rgb(0, 0, 0)" stroke-opacity="1.0" stroke-linecap="round" stroke-linejoin="round"/>
    <path d="M 542.1685791015625 155.9833526611328 C 539.7224731445312 176.5523223876953 531.4942626953125 184.76223754882812 513.5291748046875 187.85964965820312 C 496.6588439941406 196.05702209472656 472.95343017578125 181.3821563720703 470.4911804199219 144.77601623535156 C 497.3896179199219 140.5599365234375 507.462890625 141.88992309570312 513.7665405273438 135.9189910888672 C 507.968505859375 155.6790313720703 524.68212890625 153.69786071777344 542.1685791015625 155.9833526611328" stroke-width="0.0" fill="rgb(77, 194, 66)" opacity="0.022635873" stroke="rgb(0, 0, 0)" stroke-opacity="1.0" stroke-linecap="round" stroke-linejoin="round"/>
    <path d="M 97.46421813964844 350.5982360839844 C 92.55198669433594 373.1916198730469 68.09273529052734 383.23095703125 79.65838623046875 362.2507019042969 C 68.09292602539062 350.76654052734375 57.08439636230469 335.5501403808594 31.374534606933594 325.3222961425781 C 25.480300903320312 336.0763854980469 33.62126541137695 312.3232116699219 36.86046600341797 315.8055725097656 C 67.1677017211914 336.0434875488281 77.26460266113281 352.58038330078125 97.46421813964844 350.5982360839844" stroke-width="0.0" fill="rgb(236, 160, 0)" opacity="0.98635215" stroke="rgb(0, 0, 0)" stroke-opacity="1.0" stroke-linecap="round" stroke-linejoin="round"/>
    <path d="M 341.4963073730469 250.08798217773438 C 363.4593811035156 277.83642578125 361.19781494140625 316.21783447265625 306.4908142089844 315.8723449707031 C 229.01644897460938 322.49261474609375 227.18350219726562 280.4492492675781 257.2288818359375 227.55709838867188 C 316.21734619140625 235.00137329101562 324.3463134765625 244.60699462890625 316.6146545410156 247.953369140625 C 321.4725036621094 230.8612060546875 308.1747131347656 254.71304321289062 341.4963073730469 250.08798217773438" stroke-width="0.0" fill="rgb(80, 70, 106)" opacity="0.5594871" stroke="rgb(0, 0, 0)" stroke-opacity="1.0" stroke-linecap="round" stroke-linejoin="round"/>
    <path d="M 529.5980834960938 121.06304931640625 C 506.21063232421875 125.57131958007812 512.63134765625 139.97134399414062 507.2729187011719 152.56312561035156 C 492.21624755859375 143.6268768310547 454.71209716796875 145.1597900390625 475.2562561035156 119.53263854980469 C 485.2850341796875 84.204833984375 496.1133728027344 117.26953887939453 501.8387145996094 110.30477142333984 C 508.02008056640625 83.92696380615234 533.5523071289062 96.53851318359375 529.5980834960938 121.06304931640625" stroke-width="0.0" fill="rgb(85, 191, 53)" opacity="0.011122728" stroke="rgb(0, 0, 0)" stroke-opacity="1.0" stroke-linecap="round" stroke-linejoin="round"/>
    <path d="M 484.81878662109375 479.98516845703125 C 470.0619812011719 443.5379333496094 507.96014404296875 476.8429870605469 476.48541259765625 411.8594665527344 C 444.3605651855469 478.6494445800781 429.9903564453125 485.23345947265625 424.7948303222656 487.71990966796875 C 404.23126220703125 468.9208984375 404.1535339355469 479.3460693359375 469.0765686035156 475.02703857421875 C 494.1277160644531 451.3880310058594 495.774658203125 462.1784973144531 484.81878662109375 479.98516845703125" stroke-width="0.0" fill="rgb(88, 206, 73)" opacity="0.007370907" stroke="rgb(0, 0, 0)" stroke-opacity="1.0" stroke-linecap="round" stroke-linejoin="round"/>
    <path d="M 477.5706481933594 400.63677978515625 C 499.31842041015625 402.5320129394531 506.0359191894531 390.5345153808594 441.05975341796875 406.7017822265625 C 505.8999328613281 441.63299560546875 502.1051330566406 409.7312316894531 473.357421875 318.4905090332031 C 464.5361328125 310.3648681640625 490.8873596191406 328.42926025390625 505.3558654785156 344.1862487792969 C 482.83428955078125 345.19866943359375 496.1980285644531 366.55926513671875 477.5706481933594 400.63677978515625" stroke-width="0.0" fill="rgb(75, 204, 139)" opacity="0.0921475" stroke="rgb(0, 0, 0)" stroke-opacity="1.0" stroke-linecap="round" stroke-linejoin="round"/>
    <path d="M 148.49417114257812 426.8721923828125 C 150.73953247070312 457.48101806640625 171.8241729736328 443.0453186035156 181.2434539794922 419.1658020019531 C 197.5742950439453 425.1618957519531 190.54141235351562 452.14715576171875 154.595947265625 460.67291259765625 C 166.742431640625 405.9564208984375 179.46266174316406 398.47052001953125 174.5971221923828 402.7529602050781 C 185.35128784179688 386.8951110839844 179.6791229248047 408.22833251953125 148.49417114257812 426.8721923828125" stroke-width="0.0" fill="rgb(95, 252, 109)" opacity="0.08888401" stroke="rgb(0, 0, 0)" stroke-opacity="1.0" stroke-linecap="round" stroke-linejoin="round"/>
    <path d="M 105.33760833740234 200.0436553955078 C 87.59111785888672 191.8199920654297 60.337894439697266 184.0764617919922 53.02149963378906 183.24606323242188 C 73.05648803710938 192.97982788085938 41.692501068115234 208.0731201171875 30.978927612304688 171.03378295898438 C 62.357933044433594 153.78590393066406 98.51883697509766 161.77264404296875 98.62056732177734 144.36566162109375 C 80.05913543701172 167.3566436767578 110.40245056152344 177.2183074951172 105.33760833740234 200.0436553955078" stroke-width="0.0" fill="rgb(19, 221, 79)" opacity="0.034343548" stroke="rgb(0, 0, 0)" stroke-opacity="1.0" stroke-linecap="round" stroke-linejoin="round"/>
    <path d="M 172.72389221191406 127.35752868652344 C 191.7271728515625 114.27392578125 197.0552978515625 142.16653442382812 220.74505615234375 101.37835693359375 C 210.65383911132812 119.95697021484375 177.90249633789062 116.49552917480469 160.1488494873047 107.14828491210938 C 142.2545928955078 114.45753479003906 153.8889923095703 75.44384765625 159.0762176513672 111.07949829101562 C 174.9658203125 121.42725372314453 184.56192016601562 125.46082305908203 172.72389221191406 127.35752868652344" stroke-width="0.0" fill="rgb(47, 61, 6)" opacity="0.04668442" stroke="rgb(0, 0, 0)" stroke-opacity="1.0" stroke-linecap="round" stroke-linejoin="round"/>
    <path d="M 162.5484619140625 426.345703125 C 200.82183837890625 376.1562805175781 186.87782287597656 392.6335754394531 145.9594268798828 425.2464294433594 C 149.972900390625 416.4551696777344 166.44647216796875 377.4134521484375 142.81227111816406 379.5583190917969 C 124.21720123291016 410.008056640625 160.48428344726562 397.2767639160156 190.3722381591797 361.2534484863281 C 162.57728576660156 354.6887512207031 163.0787811279297 409.7002868652344 162.5484619140625 426.345703125" stroke-width="0.0" fill="rgb(140, 155, 58)" opacity="0.23826104" stroke="rgb(0, 0, 0)" stroke-opacity="1.0" stroke-linecap="round" stroke-linejoin="round"/>
    <path d="M 433.57275390625 109.03319549560547 C 453.4076232910156 121.46581268310547 436.35693359375 129.4772186279297 445.9126281738281 121.35529327392578 C 452.1186218261719 138.69056701660156 415.7838439941406 128.2006072998047 420.58221435546875 137.17381286621094 C 430.2688293457031 110.3749008178711 434.732177734375 103.34378051757812 439.550537109375 110.10942840576172 C 423.7461242675781 116.72721862792969 433.0059814453125 115.63194274902344 433.57275390625 109.03319549560547" stroke-width="0.0" fill="rgb(82, 202, 86)" opacity="0.02151307" stroke="rgb(0, 0, 0)" stroke-opacity="1.0" stroke-linecap="round" stroke-linejoin="round"/>
    <path d="M 289.9642333984375 332.67242431640625 C 266.82568359375 328.5950927734375 237.40707397460938 316.8859558105469 228.43170166015625 331.244873046875 C 214.8267059326172 383.4319152832031 225.7184295654297 382.919921875 199.65711975097656 308.93768310546875 C 224.5624237060547 300.078125 244.58489990234375 304.60919189453125 254.37745666503906 288.6927490234375 C 270.89654541015625 268.7356262207031 292.94622802734375 275.8841552734375 289.9642333984375 332.67242431640625" stroke-width="0.0" fill="rgb(130, 116, 77)" opacity="0.39118972" stroke="rgb(0, 0, 0)" stroke-opacity="1.0" stroke-linecap="round" stroke-linejoin="round"/>
    <path d="M 136.35052490234375 468.3851013183594 C 165.14027404785156 458.0491638183594 158.27767944335938 466.0546875 160.64207458496094 495.8971252441406 C 131.6066131591797 476.9194641113281 143.2410125732422 449.8558349609375 180.24240112304688 486.5149841308594 C 139.77896118164062 493.6612243652344 137.81869506835938 506.7857360839844 117.08577728271484 476.0333251953125 C 114.62422943115234 474.9373474121094 153.72781372070312 476.8697814941406 136.35052490234375 468.3851013183594" stroke-width="0.0" fill="rgb(62, 231, 164)" opacity="0.0445661" stroke="rgb(0, 0, 0)" stroke-opacity="1.0" stroke-linecap="round" stroke-linejoin="round"/>
    <path d="M 465.7960205078125 395.2218933105469 C 474.7622985839844 420.23382568359375 452.4610290527344 412.0203552246094 445.581298828125 415.1736755371094 C 431.2632141113281 432.05780029296875 400.4403381347656 405.0652160644531 420.0121154785156 380.6046447753906 C 442.012451171875 378.85284423828125 463.4490966796875 383.2332458496094 460.172607421875 387.2766418457031 C 436.2766418457031 347.1716613769531 457.129638671875 352.9365234375 465.7960205078125 395.2218933105469" stroke-width="0.0" fill="rgb(121, 233, 11)" opacity="0.28471032" stroke="rgb(0, 0, 0)" stroke-opacity="1.0" stroke-linecap="round" stroke-linejoin="round"/>
    <path d="M 250.55650329589844 82.12115478515625 C 272.8807067871094 120.81489562988281 284.50140380859375 117.60403442382812 275.1186218261719 103.51602935791016 C 259.57342529296875 136.48411560058594 275.2265930175781 117.10472869873047 263.15142822265625 91.7774429321289 C 250.64315795898438 99.53239440917969 275.3387451171875 79.5005874633789 287.57952880859375 109.37380981445312 C 293.1363830566406 98.44229125976562 299.09307861328125 77.09169006347656 250.55650329589844 82.12115478515625" stroke-width="0.0" fill="rgb(139, 130, 137)" opacity="0.006291341" stroke="rgb(0, 0, 0)" stroke-opacity="1.0" stroke-linecap="round" stroke-linejoin="round"/>
    <path d="M 397.0448913574219 44.102943420410156 C 408.0659484863281 60.466373443603516 387.6146545410156 68.9348373413086 380.239013671875 76.34368896484375 C 365.971435546875 80.76921844482422 361.58721923828125 71.1863784790039 372.1410217285156 71.38384246826172 C 380.23736572265625 57.02024841308594 401.4631042480469 55.609710693359375 388.64862060546875 46.2747688293457 C 388.2047424316406 27.94671630859375 409.4087219238281 35.01015853881836 397.0448913574219 44.102943420410156" stroke-width="0.0" fill="rgb(73, 219, 136)" opacity="0.013263613" stroke="rgb(0, 0, 0)" stroke-opacity="1.0" stroke-linecap="round" stroke-linejoin="round"/>
    <path d="M 454.95208740234375 532.47607421875 C 471.6966247558594 518.530029296875 465.5345458984375 526.6652221679688 455.6844482421875 536.9826049804688 C 447.2191162109375 531.2410278320312 441.5358581542969 515.274658203125 441.2870788574219 507.85797119140625 C 421.52880859375 488.8451232910156 420.1359558105469 488.48004150390625 432.6222229003906 500.1250915527344 C 456.0520324707031 496.01409912109375 455.03875732421875 510.5482482910156 454.95208740234375 532.47607421875" stroke-width="0.0" fill="rgb(60, 217, 123)" opacity="0.0" stroke="rgb(0, 0, 0)" stroke-opacity="1.0" stroke-linecap="round" stroke-linejoin="round"/>
  </g>
</svg>
