<?xml version="1.0" ?>
<svg xmlns="http://www.w3.org/2000/svg" version="1.1" width="512" height="512">
  <defs/>
  <g>
    <path d="M 526.8326416015625 468.79852294921875 C 548.0579833984375 517.3278198242188 548.9373779296875 525.5354614257812 356.4240417480469 553.2247314453125 C 277.2864990234375 584.341064453125 248.87460327148438 578.5762939453125 257.1532897949219 490.2041320800781 C 315.1933288574219 316.3186340332031 356.3940734863281 317.4662170410156 462.19866943359375 296.07403564453125 C 560.79541015625 317.5793151855469 561.5188598632812 334.8864440917969 526.8326416015625 468.79852294921875" stroke-width="0.0" fill="rgb(16, 34, 147)" opacity="0.8832462" stroke="rgb(0, 0, 0)" stroke-opacity="1.0" stroke-linecap="round" stroke-linejoin="round"/>
    <path d="M 274.4703674316406 465.76177978515625 C 325.24371337890625 503.65716552734375 320.6954345703125 527.4273071289062 114.75932312011719 536.13330078125 C -51.20000076293945 517.7235107421875 -51.20000076293945 507.83367919921875 -21.774600982666016 449.183837890625 C -18.38620376586914 205.44985961914062 -18.693912506103516 199.01014709472656 -32.06132507324219 260.9632873535156 C 184.10916137695312 327.7539367675781 244.93533325195312 262.95367431640625 274.4703674316406 465.76177978515625" stroke-width="0.0" fill="rgb(1, 16, 176)" opacity="0.9841458" stroke="rgb(0, 0, 0)" stroke-opacity="1.0" stroke-linecap="round" stroke-linejoin="round"/>
    <path d="M 270.1790771484375 306.0467224121094 C 202.1038818359375 424.04473876953125 202.1866455078125 469.8956298828125 176.13914489746094 375.4153137207031 C 67.1146011352539 334.3995056152344 31.71380043029785 382.2847900390625 25.62201499938965 153.94029235839844 C -3.002791404724121 153.00741577148438 8.943305015563965 151.17457580566406 104.93416595458984 100.24126434326172 C 273.40869140625 112.4553451538086 291.7529296875 113.54691314697266 270.1790771484375 306.0467224121094" stroke-width="0.0" fill="rgb(143, 154, 164)" opacity="1.0" stroke="rgb(0, 0, 0)" stroke-opacity="1.0" stroke-linecap="round" stroke-linejoin="round"/>
    <path d="M 266.5323791503906 3.30424427986145 C 256.751953125 197.87193298339844 213.46041870117188 164.6173553466797 23.41673469543457 196.83773803710938 C -31.425758361816406 199.89234924316406 -22.955547332763672 181.6508331298828 -14.99120807647705 48.18146514892578 C -14.989005088806152 -15.722881317138672 -7.218327522277832 -19.66063117980957 88.96540832519531 -41.74557113647461 C 209.97032165527344 -42.632225036621094 239.35096740722656 -54.7938346862793 266.5323791503906 3.30424427986145" stroke-width="0.0" fill="rgb(50, 32, 209)" opacity="0.98237145" stroke="rgb(0, 0, 0)" stroke-opacity="1.0" stroke-linecap="round" stroke-linejoin="round"/>
    <path d="M 534.0169677734375 50.13896942138672 C 439.7585144042969 285.99261474609375 443.1685791015625 295.2091979980469 405.8614807128906 334.110595703125 C 268.56146240234375 346.39874267578125 244.48658752441406 374.1977233886719 271.7127990722656 227.7391357421875 C 219.68304443359375 82.5888442993164 183.63180541992188 26.863027572631836 313.2275085449219 -30.80633544921875 C 563.2000122070312 -6.244815349578857 563.2000122070312 4.452378749847412 534.0169677734375 50.13896942138672" stroke-width="0.0" fill="rgb(42, 17, 195)" opacity="0.93099886" stroke="rgb(0, 0, 0)" stroke-opacity="1.0" stroke-linecap="round" stroke-linejoin="round"/>
    <path d="M 503.8594055175781 367.9452819824219 C 504.83154296875 419.7700500488281 497.895751953125 507.3059997558594 293.03875732421875 551.9872436523438 C 190.57583618164062 558.2745971679688 217.64004516601562 544.5576782226562 238.66421508789062 458.0104064941406 C 238.86985778808594 195.62799072265625 264.9974365234375 185.49041748046875 293.3036804199219 247.84474182128906 C 412.31427001953125 281.2232360839844 451.44830322265625 281.6273498535156 503.8594055175781 367.9452819824219" stroke-width="0.0" fill="rgb(11, 38, 146)" opacity="0.9906134" stroke="rgb(0, 0, 0)" stroke-opacity="1.0" stroke-linecap="round" stroke-linejoin="round"/>
    <path d="M 546.8631591796875 232.41824340820312 C 559.832763671875 342.8971252441406 556.544677734375 341.8820495605469 472.8434753417969 330.0583190917969 C 375.1057434082031 328.7200622558594 405.0323486328125 326.3403625488281 401.3918151855469 217.90560913085938 C 413.0810241699219 85.75910949707031 364.9949035644531 60.49790573120117 496.3440246582031 46.546722412109375 C 586.9442138671875 63.40304946899414 600.7042236328125 112.05919647216797 546.8631591796875 232.41824340820312" stroke-width="0.0" fill="rgb(41, 44, 127)" opacity="0.9455965" stroke="rgb(0, 0, 0)" stroke-opacity="1.0" stroke-linecap="round" stroke-linejoin="round"/>
    <path d="M 245.14474487304688 288.06640625 C 252.57664489746094 316.0672607421875 281.0785217285156 322.2491455078125 233.04965209960938 342.62493896484375 C 213.20614624023438 330.7461242675781 212.37860107421875 334.9960021972656 175.12646484375 265.47845458984375 C 177.05416870117188 176.2252960205078 164.99325561523438 215.52964782714844 234.1186065673828 193.05113220214844 C 270.7659912109375 209.20614624023438 254.91737365722656 214.3728790283203 245.14474487304688 288.06640625" stroke-width="0.0" fill="rgb(199, 158, 61)" opacity="0.57458" stroke="rgb(0, 0, 0)" stroke-opacity="1.0" stroke-linecap="round" stroke-linejoin="round"/>
    <path d="M 269.8432922363281 55.504207611083984 C 253.6256866455078 87.23477172851562 237.19847106933594 98.32076263427734 225.8744659423828 122.97331237792969 C 223.2840118408203 150.64488220214844 200.6561737060547 148.20106506347656 151.0333251953125 122.53392791748047 C 210.94728088378906 71.9854736328125 204.53065490722656 62.29071807861328 206.65567016601562 102.82563018798828 C 218.20057678222656 86.37980651855469 271.031005859375 57.3779296875 269.8432922363281 55.504207611083984" stroke-width="0.0" fill="rgb(191, 201, 145)" opacity="0.756919" stroke="rgb(0, 0, 0)" stroke-opacity="1.0" stroke-linecap="round" stroke-linejoin="round"/>
    <path d="M 192.5331573486328 348.0557861328125 C 150.80010986328125 494.1568298339844 214.1077880859375 501.7091979980469 160.37966918945312 491.4820251464844 C 151.66986083984375 413.6246337890625 164.12252807617188 356.11785888671875 158.5654754638672 303.44970703125 C 204.86871337890625 318.51629638671875 134.4612274169922 319.4673156738281 162.62184143066406 335.27001953125 C 194.88916015625 362.9839782714844 204.16488647460938 363.221435546875 192.5331573486328 348.0557861328125" stroke-width="0.0" fill="rgb(158, 169, 108)" opacity="0.70997417" stroke="rgb(0, 0, 0)" stroke-opacity="1.0" stroke-linecap="round" stroke-linejoin="round"/>
    <path d="M 214.69851684570312 202.30104064941406 C 211.17079162597656 248.0774688720703 216.78187561035156 338.0669860839844 215.84210205078125 332.3724060058594 C 121.2808609008789 346.8174743652344 246.07814025878906 343.9630126953125 234.87786865234375 260.0475158691406 C 87.40900421142578 121.2408218383789 23.88233184814453 138.8550567626953 212.99728393554688 61.10308837890625 C 144.43386840820312 180.8856964111328 191.2332763671875 96.9865493774414 214.69851684570312 202.30104064941406" stroke-width="0.0" fill="rgb(191, 179, 94)" opacity="1.0" stroke="rgb(0, 0, 0)" stroke-opacity="1.0" stroke-linecap="round" stroke-linejoin="round"/>
    <path d="M 157.59664916992188 253.05780029296875 C 103.08645629882812 219.35276794433594 81.73140716552734 252.14108276367188 80.94107818603516 315.8788146972656 C 129.64370727539062 403.67852783203125 104.12137603759766 389.35821533203125 -0.7554376721382141 270.5732727050781 C -48.38355255126953 83.17147064208984 -32.1334342956543 117.1129150390625 130.53768920898438 104.41747283935547 C 194.2965545654297 161.5271453857422 202.71401977539062 196.11764526367188 157.59664916992188 253.05780029296875" stroke-width="0.0" fill="rgb(19, 17, 208)" opacity="1.0" stroke="rgb(0, 0, 0)" stroke-opacity="1.0" stroke-linecap="round" stroke-linejoin="round"/>
    <path d="M 232.9676055908203 37.09751892089844 C 212.4802703857422 94.99208068847656 204.9633026123047 102.09729766845703 193.6724395751953 111.97463989257812 C 176.41188049316406 122.6273422241211 112.72418975830078 125.3861083984375 70.14160919189453 61.22586441040039 C 67.04647827148438 -48.26186752319336 65.46598052978516 -59.4913444519043 181.57611083984375 -49.00385665893555 C 201.022705078125 -22.216320037841797 193.13111877441406 17.95647430419922 232.9676055908203 37.09751892089844" stroke-width="0.0" fill="rgb(44, 27, 216)" opacity="0.98398733" stroke="rgb(0, 0, 0)" stroke-opacity="1.0" stroke-linecap="round" stroke-linejoin="round"/>
    <path d="M 279.1207275390625 140.84573364257812 C 347.3662109375 235.4162139892578 332.105224609375 268.80462646484375 245.1958465576172 230.74615478515625 C 208.8734130859375 204.48757934570312 282.44696044921875 188.5585174560547 199.38119506835938 122.8236312866211 C 237.8751678466797 81.15669250488281 283.6186828613281 128.43736267089844 317.570556640625 160.03919982910156 C 311.6229248046875 216.19287109375 246.16900634765625 158.9988555908203 279.1207275390625 140.84573364257812" stroke-width="0.0" fill="rgb(189, 154, 112)" opacity="0.9030623" stroke="rgb(0, 0, 0)" stroke-opacity="1.0" stroke-linecap="round" stroke-linejoin="round"/>
    <path d="M 84.00263214111328 303.2059020996094 C 81.82013702392578 331.5510559082031 143.86842346191406 340.0585021972656 107.89202880859375 398.1052551269531 C 95.40364074707031 344.9776611328125 85.16304016113281 306.080810546875 95.50174713134766 319.365966796875 C 91.97265625 325.263427734375 86.57278442382812 311.68902587890625 70.83302307128906 325.6556091308594 C 83.80084228515625 390.2843322753906 24.752954483032227 305.5523376464844 84.00263214111328 303.2059020996094" stroke-width="0.0" fill="rgb(255, 162, 0)" opacity="1.0" stroke="rgb(0, 0, 0)" stroke-opacity="1.0" stroke-linecap="round" stroke-linejoin="round"/>
    <path d="M 189.08969116210938 114.0311508178711 C 235.86050415039062 113.11994934082031 214.8520965576172 88.73875427246094 215.7848663330078 135.0822296142578 C 228.69732666015625 32.49199295043945 228.4880828857422 131.03024291992188 187.1189727783203 90.85607147216797 C 248.44651794433594 159.42178344726562 223.92391967773438 77.52088165283203 194.46498107910156 36.621578216552734 C 161.61936950683594 53.198936462402344 183.59803771972656 82.26402282714844 189.08969116210938 114.0311508178711" stroke-width="0.0" fill="rgb(230, 153, 0)" opacity="0.9145971" stroke="rgb(0, 0, 0)" stroke-opacity="1.0" stroke-linecap="round" stroke-linejoin="round"/>
    <path d="M 291.8523254394531 459.1313781738281 C 246.39938354492188 452.3096923828125 220.38377380371094 454.68206787109375 264.13287353515625 457.5628356933594 C 258.1053161621094 448.2742919921875 232.39990234375 492.0875549316406 194.51593017578125 479.1396789550781 C 205.97715759277344 275.41583251953125 203.38218688964844 304.5160827636719 222.29937744140625 461.4811096191406 C 291.5462646484375 456.42864990234375 273.4007568359375 447.4984436035156 291.8523254394531 459.1313781738281" stroke-width="0.0" fill="rgb(183, 148, 84)" opacity="0.79814065" stroke="rgb(0, 0, 0)" stroke-opacity="1.0" stroke-linecap="round" stroke-linejoin="round"/>
    <path d="M 161.14378356933594 256.9519958496094 C 173.40443420410156 280.0589294433594 158.04713439941406 310.2423095703125 151.80679321289062 283.038818359375 C 146.22471618652344 251.51742553710938 157.69204711914062 263.59564208984375 129.0992431640625 296.12969970703125 C 113.47570037841797 317.8183288574219 105.04939270019531 292.415283203125 125.39962768554688 261.6204528808594 C 154.7538299560547 278.9670715332031 130.40142822265625 278.6852111816406 161.14378356933594 256.9519958496094" stroke-width="0.0" fill="rgb(151, 196, 174)" opacity="0.5021586" stroke="rgb(0, 0, 0)" stroke-opacity="1.0" stroke-linecap="round" stroke-linejoin="round"/>
    <path d="M 191.0450897216797 70.46490478515625 C 220.2122802734375 143.551513671875 237.1353302001953 146.95046997070312 202.06387329101562 159.94036865234375 C 144.70228576660156 138.88218688964844 170.7149200439453 153.61373901367188 198.61395263671875 127.84391021728516 C 208.66824340820312 104.37088775634766 192.11769104003906 77.6323013305664 175.92196655273438 72.51571655273438 C 170.86279296875 92.3823471069336 166.4740753173828 82.30706024169922 191.0450897216797 70.46490478515625" stroke-width="0.0" fill="rgb(202, 164, 142)" opacity="0.926616" stroke="rgb(0, 0, 0)" stroke-opacity="1.0" stroke-linecap="round" stroke-linejoin="round"/>
    <path d="M 371.8236389160156 265.2197265625 C 375.2215576171875 305.8726806640625 394.74786376953125 303.1610107421875 354.5260925292969 296.5320739746094 C 271.9934997558594 266.6598815917969 296.3056640625 306.0428771972656 290.752685546875 244.72996520996094 C 306.84515380859375 243.55967712402344 306.1620178222656 215.9242401123047 358.01605224609375 218.55148315429688 C 373.365234375 244.01840209960938 367.4118347167969 232.18276977539062 371.8236389160156 265.2197265625" stroke-width="0.0" fill="rgb(88, 28, 204)" opacity="0.9262654" stroke="rgb(0, 0, 0)" stroke-opacity="1.0" stroke-linecap="round" stroke-linejoin="round"/>
    <path d="M 171.61032104492188 275.2499084472656 C 194.0609893798828 293.62310791015625 151.9011993408203 318.984619140625 157.7213897705078 270.6341552734375 C 148.81787109375 257.45025634765625 139.6660919189453 276.9643859863281 146.73294067382812 283.947509765625 C 177.4732666015625 253.884765625 181.52401733398438 269.9627685546875 195.90219116210938 191.7380828857422 C 220.5987548828125 217.35903930664062 175.8354034423828 220.61376953125 171.61032104492188 275.2499084472656" stroke-width="0.0" fill="rgb(139, 175, 84)" opacity="0.4628909" stroke="rgb(0, 0, 0)" stroke-opacity="1.0" stroke-linecap="round" stroke-linejoin="round"/>
    <path d="M 197.81947326660156 94.24465942382812 C 182.70458984375 117.9980697631836 205.2265625 136.70013427734375 199.0966796875 111.26679992675781 C 194.0316619873047 83.81668090820312 176.6178436279297 80.06507873535156 181.75814819335938 78.31301879882812 C 177.26634216308594 100.89569091796875 200.87991333007812 39.6833381652832 201.09381103515625 59.12298583984375 C 189.1936798095703 49.27206039428711 208.67230224609375 68.23587799072266 197.81947326660156 94.24465942382812" stroke-width="0.0" fill="rgb(182, 172, 81)" opacity="0.6903488" stroke="rgb(0, 0, 0)" stroke-opacity="1.0" stroke-linecap="round" stroke-linejoin="round"/>
    <path d="M 268.35601806640625 467.8887023925781 C 267.3255310058594 455.858154296875 277.2569885253906 466.6773986816406 260.83062744140625 465.78350830078125 C 245.1230926513672 481.5167236328125 234.9111328125 485.0738525390625 228.3753204345703 497.9289245605469 C 201.8074493408203 455.3620300292969 218.15098571777344 463.0558776855469 235.5123291015625 452.9359130859375 C 263.8910827636719 459.5375061035156 256.5708923339844 459.336181640625 268.35601806640625 467.8887023925781" stroke-width="0.0" fill="rgb(27, 46, 135)" opacity="0.917486" stroke="rgb(0, 0, 0)" stroke-opacity="1.0" stroke-linecap="round" stroke-linejoin="round"/>
    <path d="M 374.747802734375 234.77003479003906 C 382.2879333496094 249.31973266601562 364.9304504394531 237.5287628173828 320.00921630859375 232.55169677734375 C 294.5136413574219 264.0284729003906 279.3390808105469 273.29364013671875 277.5940856933594 222.4441375732422 C 291.9853820800781 241.1500244140625 325.00042724609375 237.4826202392578 351.4870910644531 234.3556671142578 C 354.4187316894531 203.8399200439453 346.7735290527344 199.8875274658203 374.747802734375 234.77003479003906" stroke-width="0.0" fill="rgb(109, 35, 245)" opacity="0.2918787" stroke="rgb(0, 0, 0)" stroke-opacity="1.0" stroke-linecap="round" stroke-linejoin="round"/>
    <path d="M 194.92239379882812 137.31300354003906 C 205.61814880371094 191.34674072265625 176.38668823242188 168.4286651611328 135.11720275878906 148.10247802734375 C 128.36444091796875 145.7530059814453 126.07750701904297 136.8990936279297 112.50128936767578 117.15888977050781 C 101.36329650878906 89.5851821899414 99.10315704345703 91.44629669189453 104.29460906982422 91.29510498046875 C 137.13597106933594 112.37544250488281 170.43931579589844 109.88021087646484 194.92239379882812 137.31300354003906" stroke-width="0.0" fill="rgb(255, 222, 86)" opacity="0.9537844" stroke="rgb(0, 0, 0)" stroke-opacity="1.0" stroke-linecap="round" stroke-linejoin="round"/>
    <path d="M 127.3307876586914 364.3399963378906 C 118.59355163574219 383.2975769042969 105.29345703125 394.0357666015625 115.3639907836914 448.0107727050781 C 88.12355041503906 412.3557434082031 99.86573791503906 380.78778076171875 98.09259033203125 349.7874755859375 C 80.38768005371094 308.6570739746094 82.13508605957031 324.62451171875 133.69483947753906 342.5937194824219 C 115.06735229492188 318.437255859375 126.11841583251953 332.3396301269531 127.3307876586914 364.3399963378906" stroke-width="0.0" fill="rgb(138, 185, 99)" opacity="0.49283838" stroke="rgb(0, 0, 0)" stroke-opacity="1.0" stroke-linecap="round" stroke-linejoin="round"/>
    <path d="M 107.4234619140625 403.2953796386719 C 131.0289306640625 486.4870910644531 123.19977569580078 469.188232421875 83.11299896240234 464.59954833984375 C 90.92117309570312 478.5119934082031 123.36141967773438 479.5461730957031 85.90680694580078 461.7206726074219 C 93.75605773925781 432.60205078125 102.01608276367188 407.1331787109375 91.8112564086914 375.2348937988281 C 114.47576141357422 329.68597412109375 114.2228775024414 355.06365966796875 107.4234619140625 403.2953796386719" stroke-width="0.0" fill="rgb(210, 200, 51)" opacity="0.94566256" stroke="rgb(0, 0, 0)" stroke-opacity="1.0" stroke-linecap="round" stroke-linejoin="round"/>
    <path d="M 172.20455932617188 142.7773895263672 C 141.37522888183594 134.388916015625 96.75820922851562 113.99613189697266 120.32487487792969 129.7446746826172 C 122.14458465576172 121.15709686279297 111.45697021484375 123.28433990478516 88.40425109863281 121.91835021972656 C 82.29045867919922 143.8343048095703 76.26615905761719 144.9572296142578 122.2616958618164 150.34625244140625 C 125.4689712524414 117.84465026855469 126.60430908203125 120.42144775390625 172.20455932617188 142.7773895263672" stroke-width="0.0" fill="rgb(53, 22, 140)" opacity="0.10165386" stroke="rgb(0, 0, 0)" stroke-opacity="1.0" stroke-linecap="round" stroke-linejoin="round"/>
    <path d="M 108.15918731689453 120.8484115600586 C 75.1717529296875 128.72080993652344 55.298622131347656 124.7319107055664 29.024160385131836 138.89862060546875 C 34.53679656982422 131.83132934570312 37.16669464111328 103.77544403076172 44.427040100097656 113.18602752685547 C 34.61669158935547 136.77822875976562 36.97594451904297 145.69190979003906 24.917043685913086 112.1192626953125 C 47.54535675048828 83.17108917236328 76.52204132080078 91.4149169921875 108.15918731689453 120.8484115600586" stroke-width="0.0" fill="rgb(64, 11, 255)" opacity="0.049432077" stroke="rgb(0, 0, 0)" stroke-opacity="1.0" stroke-linecap="round" stroke-linejoin="round"/>
    <path d="M 32.05830383300781 327.4039001464844 C 43.6086540222168 338.17852783203125 36.8059196472168 337.6932067871094 17.634504318237305 320.99127197265625 C 5.812256336212158 330.1994323730469 36.79484558105469 329.6553649902344 9.690652847290039 316.4680480957031 C 14.405489921569824 295.4339294433594 30.16240119934082 300.1076965332031 19.219837188720703 314.0809020996094 C 46.49222946166992 309.0775451660156 61.091636657714844 325.81976318359375 32.05830383300781 327.4039001464844" stroke-width="0.0" fill="rgb(31, 6, 187)" opacity="0.0563068" stroke="rgb(0, 0, 0)" stroke-opacity="1.0" stroke-linecap="round" stroke-linejoin="round"/>
    <path d="M 376.7030944824219 200.22470092773438 C 381.1272277832031 272.24859619140625 387.1460876464844 266.4869689941406 361.59130859375 272.3572998046875 C 354.3088073730469 239.63294982910156 362.72930908203125 242.5234832763672 365.2935791015625 239.39453125 C 355.0628967285156 213.49020385742188 359.9717712402344 177.991455078125 353.5023498535156 174.686279296875 C 376.83929443359375 202.19818115234375 375.8459167480469 195.07748413085938 376.7030944824219 200.22470092773438" stroke-width="0.0" fill="rgb(218, 130, 38)" opacity="0.8574286" stroke="rgb(0, 0, 0)" stroke-opacity="1.0" stroke-linecap="round" stroke-linejoin="round"/>
    <path d="M 183.55093383789062 286.3553161621094 C 201.26763916015625 308.3582458496094 194.87269592285156 300.20318603515625 181.4015350341797 258.6335754394531 C 153.25869750976562 291.42108154296875 164.45025634765625 255.8922882080078 164.5948944091797 254.67230224609375 C 170.4630584716797 259.8563537597656 169.4198760986328 227.78677368164062 177.41970825195312 244.12725830078125 C 179.41915893554688 247.1114959716797 169.52284240722656 244.26271057128906 183.55093383789062 286.3553161621094" stroke-width="0.0" fill="rgb(196, 32, 65)" opacity="0.7394688" stroke="rgb(0, 0, 0)" stroke-opacity="1.0" stroke-linecap="round" stroke-linejoin="round"/>
    <path d="M 192.77468872070312 280.646484375 C 197.05856323242188 218.40231323242188 201.47665405273438 237.30990600585938 213.7466583251953 251.3945770263672 C 183.80224609375 250.43243408203125 190.8199920654297 253.65054321289062 184.5723114013672 258.6453857421875 C 180.37234497070312 255.10879516601562 188.3500518798828 234.7136688232422 198.8169403076172 201.83309936523438 C 193.67523193359375 258.6298828125 193.23446655273438 277.804931640625 192.77468872070312 280.646484375" stroke-width="0.0" fill="rgb(162, 203, 61)" opacity="0.09786922" stroke="rgb(0, 0, 0)" stroke-opacity="1.0" stroke-linecap="round" stroke-linejoin="round"/>
    <path d="M 206.29067993164062 334.8818664550781 C 192.64585876464844 347.77423095703125 170.59353637695312 345.8024597167969 179.7430419921875 350.8309020996094 C 189.97547912597656 348.40032958984375 176.0091094970703 320.2422790527344 158.0608673095703 341.4177551269531 C 181.49205017089844 349.38824462890625 167.32199096679688 319.67864990234375 183.28765869140625 321.5658264160156 C 189.05499267578125 341.34796142578125 191.7050018310547 333.8600158691406 206.29067993164062 334.8818664550781" stroke-width="0.0" fill="rgb(195, 123, 32)" opacity="0.8365802" stroke="rgb(0, 0, 0)" stroke-opacity="1.0" stroke-linecap="round" stroke-linejoin="round"/>
    <path d="M 106.39058685302734 128.3926544189453 C 113.9250259399414 116.86318969726562 70.36749267578125 121.60193634033203 79.12139892578125 153.2698211669922 C 60.94451141357422 147.54962158203125 48.664306640625 146.0221405029297 62.97344207763672 141.49404907226562 C 60.707401275634766 126.47760772705078 74.9809799194336 125.5177993774414 107.70330047607422 96.0522689819336 C 103.6761474609375 78.78080749511719 109.25635528564453 112.01732635498047 106.39058685302734 128.3926544189453" stroke-width="0.0" fill="rgb(50, 6, 213)" opacity="0.19226994" stroke="rgb(0, 0, 0)" stroke-opacity="1.0" stroke-linecap="round" stroke-linejoin="round"/>
    <path d="M 79.40033721923828 106.5800552368164 C 51.27094650268555 154.5201416015625 47.43242263793945 146.37899780273438 48.585357666015625 136.3029022216797 C 15.705635070800781 182.1489715576172 -12.843160629272461 166.08419799804688 -21.990222930908203 113.68779754638672 C -19.624004364013672 104.23546600341797 -13.983694076538086 106.26322937011719 35.095558166503906 85.96215057373047 C 57.17660903930664 89.6762924194336 84.26417541503906 80.57791137695312 79.40033721923828 106.5800552368164" stroke-width="0.0" fill="rgb(8, 19, 224)" opacity="0.010829111" stroke="rgb(0, 0, 0)" stroke-opacity="1.0" stroke-linecap="round" stroke-linejoin="round"/>
    <path d="M 139.92552185058594 158.84353637695312 C 143.6586151123047 188.73948669433594 150.29598999023438 180.91502380371094 104.18455505371094 175.82977294921875 C 116.73857116699219 185.29104614257812 98.97116088867188 164.68772888183594 114.87382507324219 165.4398956298828 C 104.54179382324219 155.388671875 108.68070983886719 122.02901458740234 113.35990905761719 122.05178833007812 C 126.63240051269531 111.72578430175781 138.95726013183594 135.1995391845703 139.92552185058594 158.84353637695312" stroke-width="0.0" fill="rgb(37, 16, 195)" opacity="0.17765023" stroke="rgb(0, 0, 0)" stroke-opacity="1.0" stroke-linecap="round" stroke-linejoin="round"/>
    <path d="M 400.5053405761719 215.57936096191406 C 397.83392333984375 219.70443725585938 374.3370361328125 258.2712097167969 357.6250915527344 252.56875610351562 C 358.4071044921875 218.61473083496094 338.4734191894531 225.43092346191406 344.9034118652344 193.1923065185547 C 340.82598876953125 186.79283142089844 352.9007568359375 173.67628479003906 364.2896728515625 179.75241088867188 C 363.9796142578125 173.72105407714844 398.4233093261719 179.23507690429688 400.5053405761719 215.57936096191406" stroke-width="0.0" fill="rgb(255, 248, 131)" opacity="1.0" stroke="rgb(0, 0, 0)" stroke-opacity="1.0" stroke-linecap="round" stroke-linejoin="round"/>
    <path d="M 320.6153869628906 160.0560302734375 C 344.3480529785156 203.3910369873047 337.84954833984375 197.290283203125 296.69439697265625 219.67076110839844 C 273.630126953125 198.31724548339844 262.3692932128906 187.62869262695312 306.6055603027344 152.13938903808594 C 293.0818786621094 141.08226013183594 259.0350341796875 128.25369262695312 281.42266845703125 141.1168212890625 C 298.1807556152344 151.6806182861328 297.923828125 152.2035369873047 320.6153869628906 160.0560302734375" stroke-width="0.0" fill="rgb(223, 214, 95)" opacity="0.9170594" stroke="rgb(0, 0, 0)" stroke-opacity="1.0" stroke-linecap="round" stroke-linejoin="round"/>
    <path d="M 144.7435302734375 -6.247808456420898 C 150.01080322265625 36.93547058105469 148.30584716796875 33.67994689941406 136.28736877441406 57.08469772338867 C 117.05776977539062 65.99226379394531 101.44280242919922 38.845157623291016 112.04361724853516 27.899911880493164 C 110.2530746459961 21.54486846923828 118.1434326171875 5.958333969116211 127.8097915649414 20.18052864074707 C 158.6473846435547 18.41950225830078 163.31063842773438 21.43581771850586 144.7435302734375 -6.247808456420898" stroke-width="0.0" fill="rgb(22, 28, 164)" opacity="0.049577333" stroke="rgb(0, 0, 0)" stroke-opacity="1.0" stroke-linecap="round" stroke-linejoin="round"/>
    <path d="M 55.257076263427734 340.488037109375 C 54.973052978515625 328.7467041015625 52.255088806152344 357.6895751953125 57.10374450683594 346.3358459472656 C 15.359641075134277 338.11395263671875 11.402039527893066 332.0518798828125 15.16398811340332 321.4885559082031 C 4.152105331420898 322.76519775390625 14.701010704040527 310.60015869140625 51.75541687011719 305.6663513183594 C 55.2086181640625 299.733642578125 45.7194709777832 323.64239501953125 55.257076263427734 340.488037109375" stroke-width="0.0" fill="rgb(32, 28, 208)" opacity="0.20177346" stroke="rgb(0, 0, 0)" stroke-opacity="1.0" stroke-linecap="round" stroke-linejoin="round"/>
    <path d="M 242.21755981445312 60.502323150634766 C 255.0257568359375 55.334190368652344 247.98309326171875 58.873023986816406 249.63694763183594 55.40376281738281 C 228.47662353515625 30.726016998291016 223.7515869140625 29.783519744873047 221.3330078125 58.53293228149414 C 237.95545959472656 62.124263763427734 241.61282348632812 48.00994873046875 239.11598205566406 36.37038040161133 C 247.7696533203125 41.01387405395508 252.5865020751953 27.12648582458496 242.21755981445312 60.502323150634766" stroke-width="0.0" fill="rgb(66, 84, 103)" opacity="0.0135312965" stroke="rgb(0, 0, 0)" stroke-opacity="1.0" stroke-linecap="round" stroke-linejoin="round"/>
    <path d="M 114.53511047363281 309.3366394042969 C 123.08897399902344 316.82012939453125 132.5379180908203 355.7325134277344 109.49826049804688 374.9931945800781 C 98.14256286621094 362.1075744628906 94.21812438964844 341.8186340332031 98.61138153076172 303.1648864746094 C 93.50077819824219 303.7655334472656 83.54863739013672 306.3173522949219 104.00077056884766 302.2001647949219 C 103.35075378417969 309.3664245605469 101.05558013916016 320.1927490234375 114.53511047363281 309.3366394042969" stroke-width="0.0" fill="rgb(191, 168, 123)" opacity="0.11296735" stroke="rgb(0, 0, 0)" stroke-opacity="1.0" stroke-linecap="round" stroke-linejoin="round"/>
    <path d="M 219.26364135742188 384.949951171875 C 214.6798858642578 401.8628234863281 212.1257781982422 397.87176513671875 209.78570556640625 395.62451171875 C 198.924560546875 406.814697265625 203.22711181640625 372.6311950683594 177.22137451171875 386.534423828125 C 135.36810302734375 390.71295166015625 144.48069763183594 330.79168701171875 226.7262420654297 327.72711181640625 C 199.08853149414062 366.36883544921875 214.9566650390625 365.6414489746094 219.26364135742188 384.949951171875" stroke-width="0.0" fill="rgb(241, 118, 108)" opacity="0.21286418" stroke="rgb(0, 0, 0)" stroke-opacity="1.0" stroke-linecap="round" stroke-linejoin="round"/>
    <path d="M 70.90579223632812 172.09317016601562 C 61.9405632019043 194.99563598632812 62.555267333984375 236.70729064941406 12.573270797729492 234.16152954101562 C 6.010101795196533 193.54208374023438 8.30792236328125 183.9169921875 37.203338623046875 165.1227264404297 C 21.475828170776367 185.25302124023438 28.939712524414062 178.8259735107422 41.57319259643555 133.05152893066406 C 65.59007263183594 149.70408630371094 72.23825073242188 160.24253845214844 70.90579223632812 172.09317016601562" stroke-width="0.0" fill="rgb(38, 42, 183)" opacity="0.0" stroke="rgb(0, 0, 0)" stroke-opacity="1.0" stroke-linecap="round" stroke-linejoin="round"/>
    <path d="M 440.9903869628906 320.8999328613281 C 491.1184387207031 322.2003173828125 466.1739501953125 315.3161315917969 442.93243408203125 300.9320983886719 C 452.4654235839844 315.324462890625 400.8385925292969 307.69818115234375 397.6119384765625 301.55499267578125 C 393.81683349609375 279.95513916015625 408.54473876953125 278.3870849609375 454.1875 279.68212890625 C 453.92108154296875 263.4565734863281 436.7729797363281 259.8485107421875 440.9903869628906 320.8999328613281" stroke-width="0.0" fill="rgb(55, 31, 78)" opacity="0.004898111" stroke="rgb(0, 0, 0)" stroke-opacity="1.0" stroke-linecap="round" stroke-linejoin="round"/>
    <path d="M 8.528240203857422 135.8780975341797 C 12.05518627166748 149.52867126464844 32.53205490112305 117.43611907958984 43.97892379760742 108.5132064819336 C 11.306925773620605 151.39422607421875 0.06958597153425217 147.29104614257812 11.021271705627441 119.01666259765625 C 20.530866622924805 126.9063720703125 6.309041976928711 111.65721893310547 -8.975000381469727 125.38480377197266 C 4.818297386169434 138.513671875 21.529661178588867 133.12136840820312 8.528240203857422 135.8780975341797" stroke-width="0.0" fill="rgb(0, 12, 204)" opacity="0.0" stroke="rgb(0, 0, 0)" stroke-opacity="1.0" stroke-linecap="round" stroke-linejoin="round"/>
    <path d="M 520.7241821289062 201.56541442871094 C 524.4945678710938 261.2552795410156 525.5489501953125 265.71136474609375 483.68572998046875 263.35272216796875 C 474.5174865722656 280.3096923828125 471.2586669921875 251.2574920654297 503.4906311035156 227.85264587402344 C 524.12353515625 183.82164001464844 471.83441162109375 208.41522216796875 503.9776611328125 258.15155029296875 C 499.77520751953125 221.96920776367188 499.5585021972656 205.2191162109375 520.7241821289062 201.56541442871094" stroke-width="0.0" fill="rgb(49, 60, 103)" opacity="0.00040156764" stroke="rgb(0, 0, 0)" stroke-opacity="1.0" stroke-linecap="round" stroke-linejoin="round"/>
    <path d="M 230.71585083007812 118.89212799072266 C 233.036865234375 133.42828369140625 244.1305694580078 126.5304946899414 231.53118896484375 113.10184478759766 C 222.63978576660156 127.54793548583984 207.0074462890625 108.0338134765625 206.85446166992188 113.56945037841797 C 222.08494567871094 112.04634094238281 217.05325317382812 105.39140319824219 212.64512634277344 56.76089096069336 C 237.53512573242188 90.73798370361328 225.88084411621094 114.56865692138672 230.71585083007812 118.89212799072266" stroke-width="0.0" fill="rgb(145, 148, 116)" opacity="0.0" stroke="rgb(0, 0, 0)" stroke-opacity="1.0" stroke-linecap="round" stroke-linejoin="round"/>
    <path d="M 450.5970153808594 234.50523376464844 C 462.7577819824219 249.16845703125 430.9942321777344 269.3708801269531 417.16961669921875 290.9085388183594 C 382.1976623535156 339.3502502441406 388.04119873046875 312.5752868652344 415.5015563964844 276.6087341308594 C 391.75830078125 273.1866760253906 392.03570556640625 258.9617004394531 402.072509765625 223.62548828125 C 439.0919494628906 205.56845092773438 444.6473693847656 209.27618408203125 450.5970153808594 234.50523376464844" stroke-width="0.0" fill="rgb(57, 29, 74)" opacity="0.0024107657" stroke="rgb(0, 0, 0)" stroke-opacity="1.0" stroke-linecap="round" stroke-linejoin="round"/>
    <path d="M 544.0545043945312 119.8772201538086 C 521.7430419921875 124.2562026977539 511.54461669921875 117.61326599121094 505.0008239746094 117.92385864257812 C 481.97222900390625 137.75125122070312 477.6221618652344 143.05360412597656 490.8722229003906 104.65018463134766 C 500.9233703613281 107.31437683105469 495.8647766113281 115.8062744140625 497.87451171875 111.02006530761719 C 522.0210571289062 83.93385314941406 526.1251220703125 89.57908630371094 544.0545043945312 119.8772201538086" stroke-width="0.0" fill="rgb(62, 44, 91)" opacity="0.034278627" stroke="rgb(0, 0, 0)" stroke-opacity="1.0" stroke-linecap="round" stroke-linejoin="round"/>
    <path d="M 557.9891357421875 179.49008178710938 C 549.4052124023438 182.96568298339844 529.0015258789062 181.7662811279297 477.11871337890625 176.8274688720703 C 476.3941345214844 178.70399475097656 481.4935302734375 183.6306915283203 485.49658203125 138.93035888671875 C 487.7580261230469 141.7373046875 484.3418884277344 161.64752197265625 487.82452392578125 171.58770751953125 C 546.33740234375 152.94488525390625 551.5388793945312 163.81785583496094 557.9891357421875 179.49008178710938" stroke-width="0.0" fill="rgb(63, 3, 167)" opacity="0.038749017" stroke="rgb(0, 0, 0)" stroke-opacity="1.0" stroke-linecap="round" stroke-linejoin="round"/>
    <path d="M 89.48176574707031 346.79144287109375 C 68.89764404296875 352.0187683105469 61.08498001098633 367.3483581542969 64.97988891601562 356.7372741699219 C 55.438133239746094 380.982177734375 50.20079803466797 372.85198974609375 52.45372772216797 315.8932189941406 C 46.4564208984375 314.3229675292969 37.13936233520508 325.3800354003906 55.8101921081543 342.72998046875 C 79.27062225341797 318.93023681640625 79.26922607421875 336.7144470214844 89.48176574707031 346.79144287109375" stroke-width="0.0" fill="rgb(51, 20, 202)" opacity="0.0" stroke="rgb(0, 0, 0)" stroke-opacity="1.0" stroke-linecap="round" stroke-linejoin="round"/>
    <path d="M 346.9143371582031 243.52883911132812 C 356.44677734375 308.97515869140625 346.4961853027344 302.65997314453125 278.9775695800781 292.4130859375 C 284.71441650390625 273.9761657714844 285.8394775390625 286.75848388671875 297.5775146484375 293.9420166015625 C 306.3251647949219 237.9342803955078 310.72869873046875 242.82862854003906 357.3907470703125 249.2305450439453 C 345.1907958984375 248.96621704101562 325.08087158203125 245.7291717529297 346.9143371582031 243.52883911132812" stroke-width="0.0" fill="rgb(99, 11, 193)" opacity="0.0" stroke="rgb(0, 0, 0)" stroke-opacity="1.0" stroke-linecap="round" stroke-linejoin="round"/>
    <path d="M 523.8126831054688 142.53219604492188 C 520.8202514648438 159.82656860351562 517.4164428710938 160.8310089111328 512.7730102539062 154.12429809570312 C 494.5724182128906 142.04788208007812 478.83221435546875 128.87364196777344 489.9794921875 127.48709869384766 C 478.05718994140625 117.7557144165039 461.2206726074219 103.14602661132812 497.02740478515625 118.13774108886719 C 507.6081237792969 87.63264465332031 522.313720703125 115.36164093017578 523.8126831054688 142.53219604492188" stroke-width="0.0" fill="rgb(44, 45, 119)" opacity="0.037562195" stroke="rgb(0, 0, 0)" stroke-opacity="1.0" stroke-linecap="round" stroke-linejoin="round"/>
    <path d="M 483.33892822265625 461.9443054199219 C 482.2383117675781 479.7185974121094 463.66064453125 478.3581237792969 456.05352783203125 486.6417541503906 C 456.3833923339844 519.3390502929688 451.0398864746094 499.3230285644531 443.3548889160156 456.7176818847656 C 431.9309997558594 435.9583740234375 454.5586853027344 422.14312744140625 479.1951904296875 444.7737731933594 C 478.9337463378906 433.8165283203125 483.0453186035156 434.63311767578125 483.33892822265625 461.9443054199219" stroke-width="0.0" fill="rgb(26, 93, 105)" opacity="0.027822629" stroke="rgb(0, 0, 0)" stroke-opacity="1.0" stroke-linecap="round" stroke-linejoin="round"/>
    <path d="M 514.0802001953125 363.84136962890625 C 523.3163452148438 379.27789306640625 503.5198974609375 394.49615478515625 508.5474853515625 379.0456848144531 C 484.6737365722656 382.8800354003906 469.95025634765625 378.6669921875 470.3675537109375 367.5369873046875 C 456.9945983886719 350.6416320800781 477.5814514160156 348.47943115234375 472.58355712890625 370.64306640625 C 505.0843811035156 373.49041748046875 518.945068359375 365.11279296875 514.0802001953125 363.84136962890625" stroke-width="0.0" fill="rgb(9, 79, 139)" opacity="0.0835985" stroke="rgb(0, 0, 0)" stroke-opacity="1.0" stroke-linecap="round" stroke-linejoin="round"/>
    <path d="M 186.44317626953125 477.20831298828125 C 182.21502685546875 447.92999267578125 182.57211303710938 480.2236328125 156.48681640625 474.81146240234375 C 169.10397338867188 483.6807861328125 156.8611602783203 458.7148132324219 159.31834411621094 416.0263977050781 C 141.6531524658203 409.7412414550781 152.01156616210938 379.4454650878906 168.96653747558594 372.519287109375 C 177.2288055419922 407.5151062011719 153.4792938232422 463.6213684082031 186.44317626953125 477.20831298828125" stroke-width="0.0" fill="rgb(106, 74, 29)" opacity="0.35737786" stroke="rgb(0, 0, 0)" stroke-opacity="1.0" stroke-linecap="round" stroke-linejoin="round"/>
    <path d="M 118.17496490478516 133.35452270507812 C 107.53178405761719 180.6106414794922 89.52330017089844 178.16783142089844 67.68028259277344 167.54693603515625 C 77.76985931396484 162.72589111328125 61.064353942871094 166.2434844970703 66.46549224853516 155.94595336914062 C 61.249202728271484 139.8144073486328 94.47650909423828 141.88916015625 84.66692352294922 143.7117462158203 C 97.04782104492188 163.86973571777344 106.20245361328125 154.09817504882812 118.17496490478516 133.35452270507812" stroke-width="0.0" fill="rgb(18, 11, 215)" opacity="0.024695445" stroke="rgb(0, 0, 0)" stroke-opacity="1.0" stroke-linecap="round" stroke-linejoin="round"/>
    <path d="M 167.00437927246094 140.83651733398438 C 185.0149688720703 133.1084747314453 177.58279418945312 139.61813354492188 176.10704040527344 154.84396362304688 C 176.76194763183594 149.7559814453125 176.85540771484375 132.657958984375 174.63656616210938 158.73997497558594 C 193.8311309814453 145.86968994140625 208.85433959960938 123.24278259277344 181.3795623779297 133.5182647705078 C 186.62265014648438 140.74671936035156 196.30445861816406 132.58609008789062 167.00437927246094 140.83651733398438" stroke-width="0.0" fill="rgb(214, 255, 118)" opacity="0.24611485" stroke="rgb(0, 0, 0)" stroke-opacity="1.0" stroke-linecap="round" stroke-linejoin="round"/>
    <path d="M 155.44430541992188 412.08636474609375 C 153.4993896484375 408.2525939941406 149.36831665039062 407.2314758300781 157.533447265625 413.1486511230469 C 144.88787841796875 385.4513854980469 135.88697814941406 425.834716796875 118.28109741210938 410.0348205566406 C 133.74623107910156 387.49542236328125 182.91888427734375 370.6495056152344 162.53228759765625 384.4344787597656 C 166.74444580078125 393.868408203125 168.24009704589844 395.5015869140625 155.44430541992188 412.08636474609375" stroke-width="0.0" fill="rgb(31, 10, 180)" opacity="0.00020788699" stroke="rgb(0, 0, 0)" stroke-opacity="1.0" stroke-linecap="round" stroke-linejoin="round"/>
    <path d="M 421.94781494140625 166.55035400390625 C 406.7699279785156 118.56211853027344 410.721435546875 129.14666748046875 426.7417907714844 162.59564208984375 C 408.3726806640625 191.3944854736328 394.0159912109375 185.18478393554688 384.9173889160156 139.75755310058594 C 420.6243896484375 140.6269989013672 411.9357604980469 114.92292022705078 426.0928649902344 122.60543823242188 C 433.99688720703125 135.04904174804688 427.36785888671875 144.51495361328125 421.94781494140625 166.55035400390625" stroke-width="0.0" fill="rgb(47, 1, 120)" opacity="0.0029871312" stroke="rgb(0, 0, 0)" stroke-opacity="1.0" stroke-linecap="round" stroke-linejoin="round"/>
    <path d="M 256.04229736328125 291.93890380859375 C 273.09149169921875 324.53717041015625 214.2067413330078 329.8112487792969 213.12123107910156 345.3981628417969 C 274.1062316894531 336.74560546875 244.1232452392578 304.8206787109375 241.1429901123047 300.73638916015625 C 223.03240966796875 324.57635498046875 231.5000457763672 327.1546936035156 257.4644775390625 318.1324157714844 C 245.18994140625 278.184326171875 262.4894714355469 293.1493225097656 256.04229736328125 291.93890380859375" stroke-width="0.0" fill="rgb(204, 57, 128)" opacity="0.0" stroke="rgb(0, 0, 0)" stroke-opacity="1.0" stroke-linecap="round" stroke-linejoin="round"/>
    <path d="M 179.4038848876953 489.69354248046875 C 172.12557983398438 469.8138732910156 160.10037231445312 487.5612487792969 117.7139663696289 464.9797668457031 C 123.13330078125 478.97491455078125 106.23323822021484 476.58197021484375 133.97177124023438 484.96136474609375 C 155.70797729492188 480.86700439453125 185.24830627441406 444.44891357421875 153.66380310058594 433.17156982421875 C 138.8336944580078 479.23126220703125 157.524169921875 466.9957580566406 179.4038848876953 489.69354248046875" stroke-width="0.0" fill="rgb(79, 26, 222)" opacity="0.0014266773" stroke="rgb(0, 0, 0)" stroke-opacity="1.0" stroke-linecap="round" stroke-linejoin="round"/>
  </g>
</svg>
