<?xml version="1.0" ?>
<svg xmlns="http://www.w3.org/2000/svg" version="1.1" width="512" height="512">
  <defs/>
  <g>
    <path d="M 539.0521850585938 471.81597900390625 C 548.88232421875 518.2211303710938 549.809814453125 525.8021850585938 389.7911376953125 525.7328491210938 C 337.8437194824219 541.9664916992188 315.414306640625 539.1818237304688 237.05799865722656 456.3665771484375 C 281.7474365234375 308.25738525390625 373.9197082519531 341.7716064453125 505.1697082519531 339.3976135253906 C 557.822265625 348.68011474609375 568.6904907226562 360.9447326660156 539.0521850585938 471.81597900390625" stroke-width="0.0" fill="rgb(15, 7, 106)" opacity="0.9802922" stroke="rgb(0, 0, 0)" stroke-opacity="1.0" stroke-linecap="round" stroke-linejoin="round"/>
    <path d="M 292.61676025390625 486.29815673828125 C 335.68109130859375 527.600341796875 355.3526306152344 528.3187866210938 223.03810119628906 525.7279663085938 C -51.100406646728516 521.1051635742188 -51.19970703125 512.4564819335938 -61.57724380493164 449.6935119628906 C -46.92111587524414 179.6201171875 -38.21510314941406 175.327880859375 25.35500144958496 189.00051879882812 C 148.08949279785156 302.3269958496094 163.087890625 316.2041931152344 292.61676025390625 486.29815673828125" stroke-width="0.0" fill="rgb(9, 4, 213)" opacity="0.9831491" stroke="rgb(0, 0, 0)" stroke-opacity="1.0" stroke-linecap="round" stroke-linejoin="round"/>
    <path d="M 322.8433837890625 350.76373291015625 C 305.8684387207031 421.5322570800781 273.7402648925781 402.82293701171875 187.0037841796875 423.484130859375 C 74.22018432617188 361.03924560546875 101.63163757324219 290.91064453125 40.944793701171875 161.44700622558594 C 32.1550178527832 177.4642333984375 43.08246994018555 177.77281188964844 119.617919921875 184.19369506835938 C 258.7668762207031 181.8995819091797 307.14984130859375 149.33163452148438 322.8433837890625 350.76373291015625" stroke-width="0.0" fill="rgb(210, 254, 48)" opacity="0.96413535" stroke="rgb(0, 0, 0)" stroke-opacity="1.0" stroke-linecap="round" stroke-linejoin="round"/>
    <path d="M 265.91717529296875 21.965717315673828 C 276.0791931152344 237.91323852539062 251.88108825683594 175.92373657226562 37.26902389526367 242.15316772460938 C -55.1175537109375 241.10044860839844 -52.80742645263672 227.29498291015625 -44.91201400756836 188.2399444580078 C -16.494123458862305 -18.97837257385254 -10.838438034057617 -25.126850128173828 55.2433967590332 -46.03367614746094 C 225.4035186767578 -51.055572509765625 246.3147430419922 -58.9051513671875 265.91717529296875 21.965717315673828" stroke-width="0.0" fill="rgb(15, 19, 222)" opacity="0.97797763" stroke="rgb(0, 0, 0)" stroke-opacity="1.0" stroke-linecap="round" stroke-linejoin="round"/>
    <path d="M 554.317138671875 48.38124465942383 C 432.7167053222656 275.1304626464844 436.06536865234375 294.0246887207031 365.0057373046875 321.4067687988281 C 257.7606506347656 345.1116943359375 292.003173828125 336.2842102050781 248.5634307861328 185.74879455566406 C 254.97853088378906 23.270509719848633 183.44122314453125 -30.29607582092285 339.4843444824219 -31.305906295776367 C 563.2000122070312 -5.52442741394043 563.2000122070312 4.830130577087402 554.317138671875 48.38124465942383" stroke-width="0.0" fill="rgb(4, 2, 226)" opacity="0.980385" stroke="rgb(0, 0, 0)" stroke-opacity="1.0" stroke-linecap="round" stroke-linejoin="round"/>
    <path d="M 342.23638916015625 67.59375 C 293.7462158203125 289.4791564941406 252.62429809570312 278.6143798828125 208.8349609375 234.090087890625 C 61.32157897949219 256.7539367675781 43.7502555847168 254.06451416015625 92.01593017578125 212.2806854248047 C 107.4987564086914 146.66065979003906 113.31134033203125 122.34527587890625 301.5160217285156 7.49971342086792 C 316.0186767578125 -61.247337341308594 310.1585388183594 -36.05251693725586 342.23638916015625 67.59375" stroke-width="0.0" fill="rgb(185, 221, 5)" opacity="0.8091501" stroke="rgb(0, 0, 0)" stroke-opacity="1.0" stroke-linecap="round" stroke-linejoin="round"/>
    <path d="M 471.4380798339844 314.99310302734375 C 434.1034851074219 384.01556396484375 462.9191589355469 475.52130126953125 339.14324951171875 446.21356201171875 C 288.1812744140625 418.5877685546875 267.78076171875 421.17193603515625 260.61956787109375 387.433349609375 C 248.05250549316406 153.65135192871094 220.4508056640625 163.45327758789062 315.27850341796875 201.06829833984375 C 445.83966064453125 248.00025939941406 478.7086181640625 244.0240936279297 471.4380798339844 314.99310302734375" stroke-width="0.0" fill="rgb(190, 243, 45)" opacity="0.97844565" stroke="rgb(0, 0, 0)" stroke-opacity="1.0" stroke-linecap="round" stroke-linejoin="round"/>
    <path d="M 571.9149780273438 188.33563232421875 C 568.5531005859375 334.5938720703125 556.9046020507812 342.2611389160156 435.1756896972656 434.1548156738281 C 322.0980529785156 428.9591979980469 361.649169921875 367.15887451171875 388.2255859375 278.34747314453125 C 362.8264465332031 190.1378631591797 393.91796875 133.29197692871094 532.7266845703125 80.87345123291016 C 563.2000122070312 76.2098159790039 563.2000122070312 99.41815185546875 571.9149780273438 188.33563232421875" stroke-width="0.0" fill="rgb(8, 14, 187)" opacity="0.9576443" stroke="rgb(0, 0, 0)" stroke-opacity="1.0" stroke-linecap="round" stroke-linejoin="round"/>
    <path d="M 413.392333984375 260.6506042480469 C 387.7299499511719 322.0249328613281 352.9147033691406 259.62640380859375 370.7018127441406 237.7218017578125 C 354.2106628417969 223.6488494873047 324.6979064941406 180.92645263671875 141.68606567382812 230.56729125976562 C 198.25424194335938 138.42478942871094 256.6532287597656 173.95066833496094 333.81329345703125 161.04336547851562 C 360.20672607421875 158.51397705078125 391.6907653808594 186.9777374267578 413.392333984375 260.6506042480469" stroke-width="0.0" fill="rgb(255, 167, 0)" opacity="1.0" stroke="rgb(0, 0, 0)" stroke-opacity="1.0" stroke-linecap="round" stroke-linejoin="round"/>
    <path d="M 440.97503662109375 256.0323181152344 C 459.2408447265625 330.9642333984375 450.0771484375 427.3379211425781 355.011962890625 434.578369140625 C 335.4373779296875 350.96826171875 388.33831787109375 254.88031005859375 309.62481689453125 171.2001495361328 C 379.2071838378906 202.29721069335938 373.29046630859375 218.2411651611328 346.67987060546875 184.03616333007812 C 410.5009460449219 126.64773559570312 442.068603515625 264.4622497558594 440.97503662109375 256.0323181152344" stroke-width="0.0" fill="rgb(231, 69, 0)" opacity="1.0" stroke="rgb(0, 0, 0)" stroke-opacity="1.0" stroke-linecap="round" stroke-linejoin="round"/>
    <path d="M 341.4856872558594 101.05091857910156 C 300.17120361328125 74.27828216552734 272.5740051269531 104.34800720214844 244.13397216796875 164.9883575439453 C 200.90802001953125 190.5816192626953 195.52664184570312 139.09510803222656 87.39924621582031 162.1796112060547 C 110.7618637084961 -7.465294361114502 133.0924835205078 -12.812265396118164 264.3355712890625 -44.59762191772461 C 352.3157653808594 -58.11729431152344 354.8359375 -11.999238014221191 341.4856872558594 101.05091857910156" stroke-width="0.0" fill="rgb(3, 7, 234)" opacity="0.99109066" stroke="rgb(0, 0, 0)" stroke-opacity="1.0" stroke-linecap="round" stroke-linejoin="round"/>
    <path d="M 289.0129699707031 401.6972351074219 C 265.16912841796875 448.0269470214844 225.5097198486328 425.716064453125 183.4525909423828 411.7442626953125 C 140.7193603515625 393.0751037597656 140.74298095703125 421.8789978027344 197.01878356933594 422.79327392578125 C 146.73095703125 364.5221862792969 158.2455596923828 273.348876953125 166.40174865722656 275.2658996582031 C 237.19407653808594 343.9574890136719 164.75001525878906 375.674072265625 289.0129699707031 401.6972351074219" stroke-width="0.0" fill="rgb(230, 74, 13)" opacity="1.0" stroke="rgb(0, 0, 0)" stroke-opacity="1.0" stroke-linecap="round" stroke-linejoin="round"/>
    <path d="M 467.6188049316406 396.4256896972656 C 466.6577453613281 420.3712463378906 448.763427734375 431.4682922363281 414.9460754394531 450.245361328125 C 384.7718811035156 478.48309326171875 392.4703674316406 449.3021545410156 364.939208984375 429.3663330078125 C 388.8427734375 426.3337707519531 423.6235656738281 403.2831726074219 435.3086242675781 401.76995849609375 C 467.51385498046875 400.0596008300781 486.6166687011719 402.7105407714844 467.6188049316406 396.4256896972656" stroke-width="0.0" fill="rgb(16, 6, 93)" opacity="0.95047784" stroke="rgb(0, 0, 0)" stroke-opacity="1.0" stroke-linecap="round" stroke-linejoin="round"/>
    <path d="M 349.697021484375 394.24993896484375 C 316.1235656738281 465.216064453125 322.9876403808594 475.1404113769531 302.1221923828125 476.8154602050781 C 236.45590209960938 446.8919677734375 237.8120880126953 417.71209716796875 223.9243927001953 428.5100402832031 C 235.56686401367188 426.5829162597656 258.9541015625 429.0731506347656 262.6036071777344 416.9591369628906 C 307.50067138671875 448.8158264160156 352.2992248535156 421.8837585449219 349.697021484375 394.24993896484375" stroke-width="0.0" fill="rgb(9, 0, 123)" opacity="0.9207659" stroke="rgb(0, 0, 0)" stroke-opacity="1.0" stroke-linecap="round" stroke-linejoin="round"/>
    <path d="M 319.1134948730469 262.66619873046875 C 240.17933654785156 246.23963928222656 204.73910522460938 301.4311828613281 246.05165100097656 331.4654541015625 C 159.54205322265625 354.6481018066406 169.80714416503906 309.88861083984375 172.47218322753906 259.9522705078125 C 163.9154052734375 277.98870849609375 202.27500915527344 261.7268371582031 273.1585693359375 214.52545166015625 C 262.7236633300781 201.1776580810547 310.9482116699219 232.5071563720703 319.1134948730469 262.66619873046875" stroke-width="0.0" fill="rgb(210, 255, 49)" opacity="0.9838169" stroke="rgb(0, 0, 0)" stroke-opacity="1.0" stroke-linecap="round" stroke-linejoin="round"/>
    <path d="M 446.7004089355469 451.8880615234375 C 425.8189697265625 491.0782775878906 407.9867858886719 493.8017883300781 381.3430480957031 512.6070556640625 C 338.8026123046875 518.1397705078125 313.1043395996094 504.959228515625 284.3976745605469 460.4998779296875 C 317.4386291503906 412.8495178222656 346.5790710449219 411.9812927246094 376.9069519042969 425.62030029296875 C 436.70904541015625 400.1668395996094 441.0784912109375 418.5976867675781 446.7004089355469 451.8880615234375" stroke-width="0.0" fill="rgb(20, 8, 135)" opacity="0.996106" stroke="rgb(0, 0, 0)" stroke-opacity="1.0" stroke-linecap="round" stroke-linejoin="round"/>
    <path d="M 279.3790283203125 227.97479248046875 C 250.99819946289062 294.537353515625 202.81805419921875 362.6438293457031 270.9923400878906 325.158447265625 C 258.4382019042969 357.9693603515625 244.90383911132812 378.96051025390625 235.59600830078125 389.0864562988281 C 282.619140625 409.7840881347656 293.7431335449219 406.1561279296875 304.2777404785156 394.1765441894531 C 273.36737060546875 386.58673095703125 278.9203186035156 390.8804626464844 279.3790283203125 227.97479248046875" stroke-width="0.0" fill="rgb(247, 35, 27)" opacity="0.9887511" stroke="rgb(0, 0, 0)" stroke-opacity="1.0" stroke-linecap="round" stroke-linejoin="round"/>
    <path d="M 225.98165893554688 176.52706909179688 C 69.81074523925781 88.52843475341797 55.62794494628906 429.3377380371094 187.5070343017578 426.26531982421875 C 76.54586029052734 281.7821350097656 263.41546630859375 95.60502624511719 113.06646728515625 183.7432861328125 C 58.73271179199219 326.9172058105469 61.82572555541992 233.47738647460938 156.6988983154297 152.79747009277344 C 127.39993286132812 333.62335205078125 119.51274108886719 233.7431182861328 225.98165893554688 176.52706909179688" stroke-width="0.0" fill="rgb(255, 177, 0)" opacity="0.9985359" stroke="rgb(0, 0, 0)" stroke-opacity="1.0" stroke-linecap="round" stroke-linejoin="round"/>
    <path d="M 334.25994873046875 153.63949584960938 C 316.27630615234375 177.05613708496094 315.6068115234375 166.92164611816406 292.58050537109375 164.92568969726562 C 321.91705322265625 166.1195831298828 308.6230163574219 178.97036743164062 283.44317626953125 146.09970092773438 C 255.95375061035156 163.31246948242188 282.5765075683594 142.2662353515625 317.1626892089844 126.3753890991211 C 349.66192626953125 125.0896987915039 344.9060363769531 81.92134094238281 334.25994873046875 153.63949584960938" stroke-width="0.0" fill="rgb(1, 3, 224)" opacity="1.0" stroke="rgb(0, 0, 0)" stroke-opacity="1.0" stroke-linecap="round" stroke-linejoin="round"/>
    <path d="M 144.3961181640625 184.09742736816406 C 106.36717224121094 231.533447265625 95.76251983642578 302.4999084472656 107.25120544433594 355.0080261230469 C -4.029651641845703 362.389404296875 -33.69153594970703 337.014892578125 -40.943626403808594 233.02696228027344 C 53.099853515625 228.6752471923828 43.32955551147461 194.364013671875 125.65589904785156 121.44020080566406 C 234.8030242919922 179.35073852539062 175.3140106201172 143.61712646484375 144.3961181640625 184.09742736816406" stroke-width="0.0" fill="rgb(7, 4, 229)" opacity="0.99673784" stroke="rgb(0, 0, 0)" stroke-opacity="1.0" stroke-linecap="round" stroke-linejoin="round"/>
    <path d="M 218.7089080810547 173.82896423339844 C 144.38229370117188 320.43524169921875 226.5844268798828 364.02752685546875 163.5659942626953 319.8237609863281 C 158.8007354736328 283.2822570800781 170.60189819335938 208.06239318847656 182.39642333984375 250.2959747314453 C 117.97880554199219 271.6163330078125 156.0908203125 261.0645446777344 158.4640350341797 250.2122802734375 C 177.88388061523438 236.23472595214844 184.6347198486328 181.13699340820312 218.7089080810547 173.82896423339844" stroke-width="0.0" fill="rgb(223, 44, 16)" opacity="1.0" stroke="rgb(0, 0, 0)" stroke-opacity="1.0" stroke-linecap="round" stroke-linejoin="round"/>
    <path d="M 359.6979064941406 112.11726379394531 C 328.0213623046875 195.57984924316406 316.7994079589844 51.637386322021484 286.6226806640625 166.29721069335938 C 241.75331115722656 190.84228515625 258.5349426269531 135.75758361816406 284.43157958984375 120.8152084350586 C 256.2192687988281 109.16080474853516 280.0122375488281 115.18929290771484 271.2752685546875 125.73778533935547 C 289.1965026855469 92.49468231201172 335.5214538574219 88.74405670166016 359.6979064941406 112.11726379394531" stroke-width="0.0" fill="rgb(143, 92, 6)" opacity="0.989306" stroke="rgb(0, 0, 0)" stroke-opacity="1.0" stroke-linecap="round" stroke-linejoin="round"/>
    <path d="M 276.8980712890625 140.87548828125 C 271.0270690917969 175.338134765625 282.73272705078125 165.68902587890625 265.4633483886719 164.4033966064453 C 264.99908447265625 186.40719604492188 291.0929260253906 159.1514129638672 259.8728332519531 161.9463653564453 C 257.7031555175781 147.86643981933594 274.0549621582031 173.7697296142578 278.6913146972656 169.77220153808594 C 287.4222717285156 153.3968963623047 269.66729736328125 150.23062133789062 276.8980712890625 140.87548828125" stroke-width="0.0" fill="rgb(44, 169, 17)" opacity="0.2806178" stroke="rgb(0, 0, 0)" stroke-opacity="1.0" stroke-linecap="round" stroke-linejoin="round"/>
    <path d="M 203.68043518066406 394.95819091796875 C 214.3374786376953 409.8419189453125 219.4714813232422 415.71441650390625 208.60113525390625 415.3050842285156 C 192.98336791992188 419.49163818359375 186.2792205810547 390.01629638671875 175.65328979492188 375.9915466308594 C 213.026123046875 363.3514709472656 211.37001037597656 412.0184020996094 197.17523193359375 406.2095031738281 C 190.26980590820312 388.0551452636719 198.62794494628906 421.2260437011719 203.68043518066406 394.95819091796875" stroke-width="0.0" fill="rgb(228, 98, 4)" opacity="0.9326996" stroke="rgb(0, 0, 0)" stroke-opacity="1.0" stroke-linecap="round" stroke-linejoin="round"/>
    <path d="M 388.31317138671875 392.4855041503906 C 365.4803161621094 416.7007141113281 372.07513427734375 421.7458801269531 354.1292724609375 407.3476257324219 C 267.7861022949219 406.57586669921875 258.5157775878906 406.0134582519531 309.5933532714844 378.1189880371094 C 291.3399353027344 389.77447509765625 323.5530700683594 380.9685974121094 337.580078125 334.6731872558594 C 375.8143615722656 346.27099609375 385.4895324707031 356.6878662109375 388.31317138671875 392.4855041503906" stroke-width="0.0" fill="rgb(243, 85, 22)" opacity="1.0" stroke="rgb(0, 0, 0)" stroke-opacity="1.0" stroke-linecap="round" stroke-linejoin="round"/>
    <path d="M 299.6610412597656 272.4324035644531 C 248.18589782714844 282.4949951171875 242.31494140625 286.29998779296875 202.8483123779297 314.5702209472656 C 238.37550354003906 259.5733337402344 220.17599487304688 272.4962463378906 228.07057189941406 255.1829071044922 C 248.19586181640625 266.9013977050781 253.23487854003906 268.2287902832031 226.1029052734375 265.8342590332031 C 227.18115234375 245.07785034179688 270.21270751953125 245.30953979492188 299.6610412597656 272.4324035644531" stroke-width="0.0" fill="rgb(250, 153, 125)" opacity="0.03248374" stroke="rgb(0, 0, 0)" stroke-opacity="1.0" stroke-linecap="round" stroke-linejoin="round"/>
    <path d="M 187.59146118164062 359.498046875 C 235.3546142578125 374.1450500488281 227.78675842285156 390.6408996582031 148.47735595703125 388.4591979980469 C 144.51878356933594 348.0694885253906 171.35015869140625 343.0053405761719 150.28286743164062 347.5334777832031 C 142.6336669921875 344.83026123046875 163.5347900390625 335.13232421875 175.5556182861328 315.49468994140625 C 172.8397979736328 310.0345764160156 172.47140502929688 343.52093505859375 187.59146118164062 359.498046875" stroke-width="0.0" fill="rgb(216, 95, 95)" opacity="0.0036747279" stroke="rgb(0, 0, 0)" stroke-opacity="1.0" stroke-linecap="round" stroke-linejoin="round"/>
    <path d="M 285.2111511230469 316.3173828125 C 300.2770690917969 348.7458801269531 304.33599853515625 332.4476013183594 280.2546691894531 334.7090759277344 C 228.10800170898438 334.2298583984375 222.6135711669922 332.4411315917969 240.5717010498047 337.40655517578125 C 253.98670959472656 300.779296875 262.5157470703125 288.03125 263.2638244628906 272.424072265625 C 278.7498779296875 260.128662109375 268.5883483886719 285.36322021484375 285.2111511230469 316.3173828125" stroke-width="0.0" fill="rgb(0, 0, 239)" opacity="1.0" stroke="rgb(0, 0, 0)" stroke-opacity="1.0" stroke-linecap="round" stroke-linejoin="round"/>
    <path d="M 335.5640869140625 104.96692657470703 C 344.06951904296875 139.26824951171875 331.40228271484375 145.97071838378906 335.8448486328125 117.08246612548828 C 334.0831298828125 108.29692840576172 320.87548828125 90.75150299072266 290.0487365722656 91.3275146484375 C 299.902587890625 90.86788940429688 315.9903259277344 93.63563537597656 317.9193420410156 90.14315795898438 C 327.7896728515625 92.82420349121094 351.6198425292969 101.94464874267578 335.5640869140625 104.96692657470703" stroke-width="0.0" fill="rgb(123, 131, 5)" opacity="0.9069761" stroke="rgb(0, 0, 0)" stroke-opacity="1.0" stroke-linecap="round" stroke-linejoin="round"/>
    <path d="M 284.89324951171875 232.7533416748047 C 278.22882080078125 219.56039428710938 270.8194274902344 252.47755432128906 279.9282531738281 239.9659881591797 C 245.45091247558594 247.41030883789062 244.46820068359375 257.4591369628906 251.22735595703125 231.4932403564453 C 268.0077819824219 180.1806182861328 261.1034851074219 157.8802947998047 276.5531005859375 190.9237060546875 C 277.78289794921875 232.4707489013672 278.87420654296875 230.18185424804688 284.89324951171875 232.7533416748047" stroke-width="0.0" fill="rgb(225, 70, 10)" opacity="1.0" stroke="rgb(0, 0, 0)" stroke-opacity="1.0" stroke-linecap="round" stroke-linejoin="round"/>
    <path d="M 278.0371398925781 269.07415771484375 C 261.2740783691406 254.6504364013672 255.16131591796875 265.9883728027344 260.155517578125 248.84609985351562 C 273.6822814941406 269.1410217285156 251.5448455810547 255.42218017578125 245.67681884765625 254.91380310058594 C 250.3357391357422 218.71920776367188 251.27256774902344 216.0767059326172 277.49072265625 242.42247009277344 C 272.29486083984375 241.02085876464844 273.23663330078125 270.78839111328125 278.0371398925781 269.07415771484375" stroke-width="0.0" fill="rgb(252, 119, 39)" opacity="0.0818976" stroke="rgb(0, 0, 0)" stroke-opacity="1.0" stroke-linecap="round" stroke-linejoin="round"/>
    <path d="M 371.7631530761719 207.87440490722656 C 371.08062744140625 225.58497619628906 380.365966796875 237.3601531982422 355.9898986816406 222.76129150390625 C 339.7834167480469 235.3151397705078 335.00518798828125 214.6649932861328 340.9701232910156 182.8711395263672 C 339.9219970703125 169.50205993652344 322.3340148925781 171.33349609375 373.81103515625 158.7950897216797 C 367.035888671875 187.1880340576172 392.37347412109375 182.9481658935547 371.7631530761719 207.87440490722656" stroke-width="0.0" fill="rgb(248, 150, 4)" opacity="0.0" stroke="rgb(0, 0, 0)" stroke-opacity="1.0" stroke-linecap="round" stroke-linejoin="round"/>
    <path d="M 75.85884857177734 453.85186767578125 C 78.1825180053711 464.9212951660156 83.48929595947266 459.1353759765625 81.49629211425781 469.5899963378906 C 75.88422393798828 468.0799560546875 62.60568618774414 463.58599853515625 47.77229309082031 452.58056640625 C 33.042083740234375 431.4485778808594 34.391178131103516 444.5804138183594 78.49534606933594 424.9554138183594 C 73.3719711303711 432.2033386230469 66.56558990478516 458.4017333984375 75.85884857177734 453.85186767578125" stroke-width="0.0" fill="rgb(118, 216, 18)" opacity="0.87864" stroke="rgb(0, 0, 0)" stroke-opacity="1.0" stroke-linecap="round" stroke-linejoin="round"/>
    <path d="M 211.83468627929688 333.6766662597656 C 215.55560302734375 350.709228515625 206.60853576660156 355.01898193359375 194.98348999023438 364.2311706542969 C 184.7880096435547 385.7104797363281 197.38232421875 385.4326171875 207.38499450683594 328.3895263671875 C 194.838134765625 330.0508728027344 177.37991333007812 326.6612854003906 192.20143127441406 317.9521179199219 C 204.26141357421875 313.3324279785156 217.33335876464844 326.7350769042969 211.83468627929688 333.6766662597656" stroke-width="0.0" fill="rgb(251, 153, 153)" opacity="0.08089661" stroke="rgb(0, 0, 0)" stroke-opacity="1.0" stroke-linecap="round" stroke-linejoin="round"/>
    <path d="M 45.046382904052734 305.0756530761719 C 53.81257247924805 326.1986389160156 40.1241569519043 334.4439697265625 38.90658950805664 349.2809753417969 C 37.98731231689453 329.6768798828125 34.167720794677734 332.4542236328125 27.664745330810547 314.5763854980469 C 23.4897403717041 307.0274963378906 25.28705596923828 302.7034606933594 30.84261131286621 280.47454833984375 C 38.089698791503906 286.9283447265625 44.158172607421875 298.5826110839844 45.046382904052734 305.0756530761719" stroke-width="0.0" fill="rgb(156, 193, 8)" opacity="0.9125148" stroke="rgb(0, 0, 0)" stroke-opacity="1.0" stroke-linecap="round" stroke-linejoin="round"/>
    <path d="M 128.3071746826172 437.7293395996094 C 132.04440307617188 441.69683837890625 119.75315856933594 461.389892578125 109.55451965332031 464.50506591796875 C 100.47079467773438 467.3598937988281 97.07302856445312 478.68548583984375 101.3807144165039 452.4073486328125 C 99.69820404052734 442.81976318359375 117.48887634277344 432.67486572265625 121.43412780761719 421.849609375 C 136.7476043701172 421.1619873046875 134.720947265625 428.56488037109375 128.3071746826172 437.7293395996094" stroke-width="0.0" fill="rgb(203, 236, 0)" opacity="0.9413162" stroke="rgb(0, 0, 0)" stroke-opacity="1.0" stroke-linecap="round" stroke-linejoin="round"/>
    <path d="M 486.82611083984375 64.16513061523438 C 501.1370849609375 61.15904998779297 478.3934020996094 69.2956314086914 473.8902893066406 77.85688781738281 C 465.6126403808594 97.29563903808594 459.40869140625 92.40587615966797 468.6162414550781 91.44830322265625 C 483.398681640625 71.46990966796875 488.37176513671875 60.136051177978516 492.9234619140625 67.70553588867188 C 488.720947265625 54.67477035522461 479.1961975097656 52.21120071411133 486.82611083984375 64.16513061523438" stroke-width="0.0" fill="rgb(67, 20, 190)" opacity="0.042439017" stroke="rgb(0, 0, 0)" stroke-opacity="1.0" stroke-linecap="round" stroke-linejoin="round"/>
    <path d="M 34.456199645996094 174.3748016357422 C 31.46354866027832 181.4573974609375 6.649875640869141 194.44552612304688 24.974042892456055 205.80795288085938 C 33.73878860473633 198.17730712890625 18.990280151367188 215.01744079589844 -6.982813358306885 220.2149200439453 C 10.993953704833984 195.1659393310547 38.369266510009766 188.0548858642578 63.5189208984375 195.46778869628906 C 98.09245300292969 173.18081665039062 75.79671478271484 157.1796112060547 34.456199645996094 174.3748016357422" stroke-width="0.0" fill="rgb(30, 5, 211)" opacity="0.02314774" stroke="rgb(0, 0, 0)" stroke-opacity="1.0" stroke-linecap="round" stroke-linejoin="round"/>
    <path d="M 310.172607421875 341.0117492675781 C 311.7074279785156 343.0440673828125 303.8606872558594 349.6458435058594 289.8517761230469 362.2203674316406 C 281.3230895996094 366.2151184082031 264.06158447265625 365.2520446777344 271.8495788574219 351.25115966796875 C 287.34002685546875 334.6556091308594 336.5466613769531 335.23150634765625 315.13323974609375 333.79351806640625 C 318.7106628417969 316.0487060546875 333.12152099609375 322.1331787109375 310.172607421875 341.0117492675781" stroke-width="0.0" fill="rgb(133, 252, 7)" opacity="0.0" stroke="rgb(0, 0, 0)" stroke-opacity="1.0" stroke-linecap="round" stroke-linejoin="round"/>
    <path d="M 387.08642578125 448.7164306640625 C 370.6487121582031 414.490966796875 349.1042785644531 430.0136413574219 356.7156066894531 441.0332336425781 C 365.83203125 486.60919189453125 360.80780029296875 450.2579650878906 331.0960693359375 470.91595458984375 C 330.2034912109375 424.4656066894531 339.4440002441406 416.20233154296875 348.99609375 442.05670166015625 C 398.1114501953125 410.5434265136719 403.94781494140625 424.0527648925781 387.08642578125 448.7164306640625" stroke-width="0.0" fill="rgb(100, 20, 79)" opacity="0.008718694" stroke="rgb(0, 0, 0)" stroke-opacity="1.0" stroke-linecap="round" stroke-linejoin="round"/>
    <path d="M 336.9057922363281 405.4397277832031 C 338.58233642578125 421.681640625 342.226806640625 423.9489440917969 345.0884094238281 430.0094909667969 C 331.5945739746094 443.9687194824219 324.4151611328125 419.328857421875 306.4268798828125 411.506591796875 C 306.08697509765625 401.7058410644531 324.7750244140625 398.16314697265625 356.58050537109375 395.2464904785156 C 352.9759521484375 394.4619140625 346.7057189941406 401.72869873046875 336.9057922363281 405.4397277832031" stroke-width="0.0" fill="rgb(133, 17, 23)" opacity="0.0" stroke="rgb(0, 0, 0)" stroke-opacity="1.0" stroke-linecap="round" stroke-linejoin="round"/>
    <path d="M 425.0198059082031 71.37313079833984 C 422.1744079589844 79.05785369873047 415.86944580078125 100.54688262939453 407.0071105957031 110.34850311279297 C 397.7276611328125 89.2253646850586 401.260009765625 67.06207275390625 411.44683837890625 63.757789611816406 C 402.3139343261719 87.40006256103516 404.8542785644531 60.671966552734375 413.2370910644531 46.41727828979492 C 415.48187255859375 31.73676872253418 424.1860656738281 64.26718139648438 425.0198059082031 71.37313079833984" stroke-width="0.0" fill="rgb(163, 246, 0)" opacity="0.96813065" stroke="rgb(0, 0, 0)" stroke-opacity="1.0" stroke-linecap="round" stroke-linejoin="round"/>
    <path d="M 45.27738571166992 62.495765686035156 C 28.425222396850586 69.7198486328125 41.71364212036133 104.60649108886719 42.33827590942383 95.57331085205078 C 18.844751358032227 89.36512756347656 8.493550300598145 88.26919555664062 -14.03860092163086 72.25784301757812 C 6.475894451141357 68.823974609375 18.56842041015625 57.35218048095703 32.7922477722168 90.78446960449219 C 50.12379837036133 79.80957794189453 61.62053680419922 94.45922088623047 45.27738571166992 62.495765686035156" stroke-width="0.0" fill="rgb(19, 13, 208)" opacity="0.00016695194" stroke="rgb(0, 0, 0)" stroke-opacity="1.0" stroke-linecap="round" stroke-linejoin="round"/>
    <path d="M 18.20297622680664 201.3780975341797 C 31.409507751464844 222.62168884277344 58.369606018066406 199.08021545410156 27.938888549804688 162.66952514648438 C 30.408489227294922 133.878662109375 23.865676879882812 129.65069580078125 19.108522415161133 136.0374755859375 C 43.66559982299805 133.13922119140625 14.095248222351074 118.48986053466797 -4.974290370941162 107.5757827758789 C 26.29672622680664 121.03045654296875 41.82817077636719 133.3467254638672 18.20297622680664 201.3780975341797" stroke-width="0.0" fill="rgb(17, 0, 217)" opacity="0.014004606" stroke="rgb(0, 0, 0)" stroke-opacity="1.0" stroke-linecap="round" stroke-linejoin="round"/>
    <path d="M 532.5315551757812 236.92713928222656 C 516.5599975585938 249.14215087890625 502.3436584472656 257.7455139160156 473.8520812988281 249.889404296875 C 469.9708251953125 269.4402160644531 488.4415283203125 255.33993530273438 490.3179626464844 241.75640869140625 C 472.6741027832031 217.98260498046875 466.6001281738281 215.50540161132812 494.01483154296875 214.9225311279297 C 523.2930297851562 208.49522399902344 532.353271484375 211.06088256835938 532.5315551757812 236.92713928222656" stroke-width="0.0" fill="rgb(27, 27, 156)" opacity="0.04715768" stroke="rgb(0, 0, 0)" stroke-opacity="1.0" stroke-linecap="round" stroke-linejoin="round"/>
    <path d="M 328.79302978515625 64.51602935791016 C 281.3782958984375 54.95702362060547 285.9046630859375 46.56623840332031 318.9991760253906 42.37488555908203 C 324.5751647949219 46.57039260864258 309.716796875 28.73262596130371 274.63128662109375 29.502717971801758 C 249.7085418701172 60.31849670410156 273.6174011230469 53.51239013671875 258.3460998535156 16.69451332092285 C 323.6017150878906 12.370521545410156 339.1672058105469 35.99660873413086 328.79302978515625 64.51602935791016" stroke-width="0.0" fill="rgb(27, 1, 210)" opacity="0.027671838" stroke="rgb(0, 0, 0)" stroke-opacity="1.0" stroke-linecap="round" stroke-linejoin="round"/>
    <path d="M 408.7251281738281 252.1214599609375 C 426.357666015625 279.42938232421875 437.5572814941406 289.6490173339844 440.55755615234375 288.4713439941406 C 401.1684265136719 294.70062255859375 420.8692932128906 276.2356262207031 406.5620422363281 272.6897888183594 C 398.2052001953125 264.89520263671875 413.12713623046875 261.38482666015625 469.5680236816406 295.2979431152344 C 460.8059387207031 260.4109191894531 459.2271423339844 256.9141540527344 408.7251281738281 252.1214599609375" stroke-width="0.0" fill="rgb(137, 76, 33)" opacity="0.011507328" stroke="rgb(0, 0, 0)" stroke-opacity="1.0" stroke-linecap="round" stroke-linejoin="round"/>
    <path d="M 528.2368774414062 134.7625732421875 C 528.0655517578125 155.33200073242188 522.9755249023438 155.27923583984375 489.528564453125 164.00894165039062 C 459.29852294921875 180.322509765625 458.8153991699219 127.3595962524414 456.87615966796875 137.62738037109375 C 514.1033325195312 139.21823120117188 520.04638671875 127.59346771240234 539.7405395507812 132.6523895263672 C 533.5242919921875 124.56084442138672 528.6635131835938 120.37513732910156 528.2368774414062 134.7625732421875" stroke-width="0.0" fill="rgb(12, 0, 204)" opacity="0.0945208" stroke="rgb(0, 0, 0)" stroke-opacity="1.0" stroke-linecap="round" stroke-linejoin="round"/>
    <path d="M 525.26708984375 154.72158813476562 C 527.5507202148438 161.92333984375 528.2333984375 170.81076049804688 518.0813598632812 174.915283203125 C 496.47650146484375 183.35308837890625 482.5584716796875 175.53594970703125 492.0494689941406 188.28697204589844 C 487.246337890625 172.2288360595703 514.697509765625 173.5745849609375 538.275634765625 170.29441833496094 C 517.7416381835938 147.39990234375 525.1123657226562 154.182373046875 525.26708984375 154.72158813476562" stroke-width="0.0" fill="rgb(20, 18, 97)" opacity="0.025171304" stroke="rgb(0, 0, 0)" stroke-opacity="1.0" stroke-linecap="round" stroke-linejoin="round"/>
    <path d="M 79.2861328125 360.2878723144531 C 98.3851089477539 394.85455322265625 97.57527923583984 396.9742736816406 66.04537963867188 378.88836669921875 C 41.58815383911133 371.2733459472656 47.296287536621094 358.2232666015625 47.81116485595703 355.07696533203125 C 34.393341064453125 342.01458740234375 53.420196533203125 347.2175598144531 62.444419860839844 356.9490051269531 C 44.66978073120117 354.029541015625 63.11368942260742 350.68914794921875 79.2861328125 360.2878723144531" stroke-width="0.0" fill="rgb(142, 233, 30)" opacity="0.87506" stroke="rgb(0, 0, 0)" stroke-opacity="1.0" stroke-linecap="round" stroke-linejoin="round"/>
    <path d="M 334.346923828125 283.6059265136719 C 350.1142883300781 292.0976257324219 349.5221862792969 265.2073974609375 320.6265563964844 263.0263671875 C 320.31475830078125 272.3373107910156 296.75250244140625 268.352294921875 278.7817687988281 252.25296020507812 C 313.5016784667969 259.5287780761719 338.1263732910156 235.80123901367188 331.313720703125 205.69558715820312 C 332.7841491699219 226.944091796875 343.24285888671875 243.4410400390625 334.346923828125 283.6059265136719" stroke-width="0.0" fill="rgb(187, 237, 24)" opacity="0.07133743" stroke="rgb(0, 0, 0)" stroke-opacity="1.0" stroke-linecap="round" stroke-linejoin="round"/>
    <path d="M 500.56060791015625 160.3153533935547 C 469.1282043457031 138.2371368408203 489.20989990234375 127.48713684082031 495.73297119140625 133.4307861328125 C 466.2684326171875 146.18328857421875 474.2451171875 141.5236358642578 494.5326232910156 133.03753662109375 C 477.4771423339844 98.57524108886719 472.06402587890625 122.51946258544922 462.4643249511719 104.37469482421875 C 513.6016845703125 90.4445571899414 530.4244995117188 129.20169067382812 500.56060791015625 160.3153533935547" stroke-width="0.0" fill="rgb(2, 3, 197)" opacity="0.01697834" stroke="rgb(0, 0, 0)" stroke-opacity="1.0" stroke-linecap="round" stroke-linejoin="round"/>
    <path d="M 464.60040283203125 478.47906494140625 C 481.4405517578125 468.1853942871094 458.74169921875 455.3541259765625 466.2440490722656 467.31353759765625 C 469.0348815917969 457.39013671875 475.0636291503906 455.009765625 449.0660705566406 437.25445556640625 C 438.3581237792969 377.3687744140625 438.9988098144531 391.65325927734375 418.54974365234375 422.34600830078125 C 456.0913391113281 436.0901794433594 447.4588317871094 482.5439758300781 464.60040283203125 478.47906494140625" stroke-width="0.0" fill="rgb(8, 17, 24)" opacity="0.0033097412" stroke="rgb(0, 0, 0)" stroke-opacity="1.0" stroke-linecap="round" stroke-linejoin="round"/>
    <path d="M 492.9117431640625 374.16143798828125 C 511.4461975097656 372.7632141113281 500.9710388183594 380.1809387207031 483.9444274902344 382.3903503417969 C 499.6543273925781 400.4081115722656 484.9005126953125 360.6534118652344 491.9898986816406 379.0077209472656 C 483.49871826171875 349.566650390625 478.3440856933594 334.25103759765625 482.8765869140625 384.12615966796875 C 479.9901123046875 384.8050537109375 489.57635498046875 376.4822082519531 492.9117431640625 374.16143798828125" stroke-width="0.0" fill="rgb(42, 29, 77)" opacity="0.041195385" stroke="rgb(0, 0, 0)" stroke-opacity="1.0" stroke-linecap="round" stroke-linejoin="round"/>
    <path d="M 154.59535217285156 404.480712890625 C 188.58094787597656 408.7200927734375 172.19139099121094 437.49066162109375 157.38510131835938 437.2186279296875 C 131.1659698486328 443.570068359375 121.82649230957031 443.1176452636719 124.30152893066406 420.8501892089844 C 142.49501037597656 403.9822692871094 151.7534637451172 384.85430908203125 141.43455505371094 418.4859924316406 C 154.99192810058594 411.7817077636719 159.54690551757812 432.1902770996094 154.59535217285156 404.480712890625" stroke-width="0.0" fill="rgb(60, 35, 171)" opacity="0.078133106" stroke="rgb(0, 0, 0)" stroke-opacity="1.0" stroke-linecap="round" stroke-linejoin="round"/>
    <path d="M 94.11095428466797 131.63746643066406 C 111.5501708984375 160.51541137695312 80.62433624267578 168.57276916503906 110.47808837890625 161.89869689941406 C 89.3512191772461 165.8399200439453 60.11347579956055 165.1570587158203 57.220947265625 158.77598571777344 C 72.1316146850586 184.34178161621094 61.46385955810547 173.59417724609375 67.9239501953125 124.58137512207031 C 95.07564544677734 131.49000549316406 98.61918640136719 152.0082550048828 94.11095428466797 131.63746643066406" stroke-width="0.0" fill="rgb(50, 42, 180)" opacity="0.063278556" stroke="rgb(0, 0, 0)" stroke-opacity="1.0" stroke-linecap="round" stroke-linejoin="round"/>
    <path d="M 186.79660034179688 124.9545669555664 C 189.70465087890625 142.61837768554688 176.93934631347656 147.9814453125 173.00245666503906 161.1944122314453 C 165.28553771972656 149.0978546142578 157.9427032470703 130.79595947265625 171.21041870117188 118.18171691894531 C 161.7169952392578 131.2892608642578 168.5675048828125 111.20987701416016 184.22024536132812 85.3850326538086 C 190.42567443847656 106.08464050292969 187.6490020751953 138.6942596435547 186.79660034179688 124.9545669555664" stroke-width="0.0" fill="rgb(161, 244, 0)" opacity="0.9535575" stroke="rgb(0, 0, 0)" stroke-opacity="1.0" stroke-linecap="round" stroke-linejoin="round"/>
    <path d="M 179.6792449951172 409.7668151855469 C 169.68336486816406 408.5495910644531 179.44699096679688 427.3272705078125 193.9134979248047 420.6142578125 C 154.7981719970703 417.6622314453125 153.4838409423828 403.8207702636719 152.49380493164062 387.439208984375 C 157.37716674804688 373.96533203125 150.22320556640625 387.2355651855469 168.5683135986328 375.92889404296875 C 175.37757873535156 396.2226257324219 195.0900115966797 404.1378479003906 179.6792449951172 409.7668151855469" stroke-width="0.0" fill="rgb(255, 173, 16)" opacity="0.52995664" stroke="rgb(0, 0, 0)" stroke-opacity="1.0" stroke-linecap="round" stroke-linejoin="round"/>
    <path d="M 458.69000244140625 107.13790130615234 C 450.8575439453125 126.7012939453125 445.0409851074219 150.5793914794922 424.8927307128906 133.0166015625 C 411.26898193359375 148.21815490722656 419.7523193359375 160.25225830078125 431.65362548828125 142.56236267089844 C 417.68048095703125 119.70800018310547 434.3233642578125 110.65715026855469 443.9566955566406 109.26432800292969 C 451.3788146972656 102.5835189819336 463.7760314941406 104.71315002441406 458.69000244140625 107.13790130615234" stroke-width="0.0" fill="rgb(153, 237, 10)" opacity="0.917144" stroke="rgb(0, 0, 0)" stroke-opacity="1.0" stroke-linecap="round" stroke-linejoin="round"/>
    <path d="M 259.633544921875 316.8485412597656 C 242.29840087890625 312.669677734375 254.1123504638672 324.48883056640625 246.66331481933594 321.00823974609375 C 229.99716186523438 317.53271484375 243.57928466796875 327.59259033203125 259.5600280761719 322.04864501953125 C 240.5386199951172 293.8581237792969 238.6651611328125 290.3313293457031 256.8410949707031 318.0675964355469 C 253.15374755859375 313.6031799316406 247.19947814941406 305.54248046875 259.633544921875 316.8485412597656" stroke-width="0.0" fill="rgb(140, 0, 111)" opacity="0.0023773066" stroke="rgb(0, 0, 0)" stroke-opacity="1.0" stroke-linecap="round" stroke-linejoin="round"/>
    <path d="M 149.31959533691406 466.2927551269531 C 118.29424285888672 476.1253356933594 139.3128204345703 463.842529296875 146.77830505371094 465.7274475097656 C 144.7776641845703 483.7170715332031 113.28460693359375 495.9375 98.57573699951172 478.88153076171875 C 112.28135681152344 470.8521728515625 140.56947326660156 478.962646484375 155.4266815185547 444.1525573730469 C 153.8073272705078 485.17584228515625 170.62673950195312 489.6424255371094 149.31959533691406 466.2927551269531" stroke-width="0.0" fill="rgb(0, 0, 207)" opacity="0.020338738" stroke="rgb(0, 0, 0)" stroke-opacity="1.0" stroke-linecap="round" stroke-linejoin="round"/>
    <path d="M 486.9559631347656 413.9613952636719 C 453.7240295410156 422.287841796875 433.5814208984375 412.693359375 466.1537780761719 421.5503234863281 C 462.02679443359375 405.52642822265625 435.9105224609375 405.6776428222656 453.3447265625 393.92510986328125 C 445.17840576171875 357.0981750488281 453.351318359375 356.77191162109375 463.8501892089844 386.969482421875 C 461.8566589355469 385.8210754394531 454.151611328125 391.50018310546875 486.9559631347656 413.9613952636719" stroke-width="0.0" fill="rgb(33, 39, 19)" opacity="0.030353332" stroke="rgb(0, 0, 0)" stroke-opacity="1.0" stroke-linecap="round" stroke-linejoin="round"/>
    <path d="M 282.93408203125 108.47697448730469 C 293.74176025390625 135.41915893554688 285.273193359375 144.03384399414062 273.3047790527344 142.13047790527344 C 266.93023681640625 115.18781280517578 238.4411163330078 102.71065521240234 262.4928283691406 115.22927856445312 C 283.091552734375 103.02168273925781 292.32208251953125 79.66322326660156 284.0970458984375 112.99466705322266 C 269.6778259277344 102.2959976196289 283.2640075683594 87.46246337890625 282.93408203125 108.47697448730469" stroke-width="0.0" fill="rgb(127, 105, 10)" opacity="0.075641856" stroke="rgb(0, 0, 0)" stroke-opacity="1.0" stroke-linecap="round" stroke-linejoin="round"/>
    <path d="M 405.37701416015625 30.994489669799805 C 395.8748779296875 55.09029769897461 370.749755859375 43.63349533081055 352.86614990234375 70.54041290283203 C 361.1221923828125 58.249961853027344 375.48651123046875 54.018306732177734 387.2297058105469 51.801856994628906 C 383.36883544921875 46.59293746948242 394.3714599609375 50.714385986328125 403.29571533203125 41.41790771484375 C 401.9616394042969 32.05949783325195 411.13323974609375 62.66856002807617 405.37701416015625 30.994489669799805" stroke-width="0.0" fill="rgb(13, 16, 222)" opacity="0.006669881" stroke="rgb(0, 0, 0)" stroke-opacity="1.0" stroke-linecap="round" stroke-linejoin="round"/>
  </g>
</svg>
