<?xml version="1.0" ?>
<svg xmlns="http://www.w3.org/2000/svg" version="1.1" width="512" height="512">
  <defs/>
  <g>
    <path d="M 515.9502563476562 450.2948303222656 C 429.7662353515625 451.8401184082031 385.4161376953125 562.7240600585938 502.6648864746094 558.7312622070312 C 565.8495483398438 440.5104675292969 509.97357177734375 474.32574462890625 482.58990478515625 429.59381103515625 C 481.8239440917969 489.25689697265625 473.65716552734375 467.3861389160156 465.3649597167969 424.67633056640625 C 514.6732177734375 402.5779724121094 539.8623046875 390.16436767578125 515.9502563476562 450.2948303222656" stroke-width="0.0" fill="rgb(47, 31, 85)" opacity="0.941928" stroke="rgb(0, 0, 0)" stroke-opacity="1.0" stroke-linecap="round" stroke-linejoin="round"/>
    <path d="M 270.0478210449219 523.6439208984375 C 274.253173828125 528.6607666015625 196.09808349609375 556.7232666015625 134.3751983642578 417.1063537597656 C 17.964046478271484 404.6382751464844 133.8667449951172 397.25665283203125 -46.9778938293457 346.033447265625 C 36.58567428588867 204.7497100830078 -47.54963302612305 276.91168212890625 -37.00276565551758 185.17800903320312 C 88.46707916259766 79.85818481445312 211.065185546875 232.1573944091797 270.0478210449219 523.6439208984375" stroke-width="0.0" fill="rgb(41, 221, 21)" opacity="0.9467118" stroke="rgb(0, 0, 0)" stroke-opacity="1.0" stroke-linecap="round" stroke-linejoin="round"/>
    <path d="M 486.5799865722656 100.2713623046875 C 485.0948181152344 291.06805419921875 427.99871826171875 315.0306091308594 250.3050537109375 343.1151123046875 C 139.15769958496094 341.75616455078125 108.92384338378906 332.24365234375 251.9315948486328 90.31362915039062 C 111.91105651855469 48.175601959228516 142.40093994140625 -5.729333400726318 363.3341064453125 -17.95718002319336 C 415.7972717285156 78.64845275878906 499.0417785644531 3.8357746601104736 486.5799865722656 100.2713623046875" stroke-width="0.0" fill="rgb(163, 195, 107)" opacity="0.49403217" stroke="rgb(0, 0, 0)" stroke-opacity="1.0" stroke-linecap="round" stroke-linejoin="round"/>
    <path d="M 356.69305419921875 141.9314422607422 C 385.2103576660156 394.2577819824219 325.65875244140625 405.0292663574219 183.8982391357422 325.07086181640625 C 52.49457931518555 206.29754638671875 -9.713390350341797 257.62335205078125 52.27122497558594 162.60238647460938 C 54.38881301879883 84.71611022949219 145.5745086669922 91.9222183227539 104.33143615722656 4.785057544708252 C 206.9617919921875 -36.47472381591797 255.34300231933594 3.1433792114257812 356.69305419921875 141.9314422607422" stroke-width="0.0" fill="rgb(150, 131, 187)" opacity="0.9283614" stroke="rgb(0, 0, 0)" stroke-opacity="1.0" stroke-linecap="round" stroke-linejoin="round"/>
    <path d="M 465.6518859863281 377.6072998046875 C 367.7553405761719 518.4793090820312 362.5820617675781 337.67681884765625 419.063232421875 465.10565185546875 C 251.54771423339844 525.49169921875 360.7693786621094 523.0615844726562 313.04791259765625 424.92327880859375 C 237.40109252929688 213.05563354492188 243.2407684326172 276.24847412109375 335.27813720703125 204.97714233398438 C 487.765869140625 86.5606918334961 607.2153930664062 136.41561889648438 465.6518859863281 377.6072998046875" stroke-width="0.0" fill="rgb(132, 93, 149)" opacity="0.3629842" stroke="rgb(0, 0, 0)" stroke-opacity="1.0" stroke-linecap="round" stroke-linejoin="round"/>
    <path d="M 505.9216613769531 226.8673095703125 C 543.9227294921875 323.4496765136719 485.1575012207031 240.26589965820312 582.94775390625 354.4605407714844 C 464.7301330566406 426.456787109375 249.41314697265625 317.3183288574219 464.50567626953125 201.42950439453125 C 338.8772888183594 171.7747344970703 383.642333984375 105.09588623046875 426.54736328125 128.6669464111328 C 451.97564697265625 198.2744140625 486.581298828125 159.30355834960938 505.9216613769531 226.8673095703125" stroke-width="0.0" fill="rgb(0, 134, 72)" opacity="0.9905765" stroke="rgb(0, 0, 0)" stroke-opacity="1.0" stroke-linecap="round" stroke-linejoin="round"/>
    <path d="M 427.2223205566406 204.64707946777344 C 311.5136413574219 265.82476806640625 308.5833740234375 266.3578186035156 282.5897521972656 289.99664306640625 C 243.20692443847656 300.39349365234375 304.6429443359375 329.86639404296875 76.23188781738281 195.47540283203125 C 323.1110534667969 221.09324645996094 198.360107421875 288.49560546875 281.5111083984375 246.34754943847656 C 344.60809326171875 206.63714599609375 439.8660583496094 174.63926696777344 427.2223205566406 204.64707946777344" stroke-width="0.0" fill="rgb(5, 245, 98)" opacity="0.9720423" stroke="rgb(0, 0, 0)" stroke-opacity="1.0" stroke-linecap="round" stroke-linejoin="round"/>
    <path d="M 397.241943359375 162.48187255859375 C 387.8263854980469 213.3333282470703 357.5277404785156 200.27684020996094 337.14959716796875 222.90252685546875 C 325.0561218261719 238.09495544433594 336.30487060546875 226.72084045410156 284.65069580078125 232.84573364257812 C 323.2336730957031 68.52030181884766 218.83340454101562 162.49618530273438 358.8756103515625 117.35105895996094 C 416.8804931640625 165.89273071289062 531.5030517578125 197.0779266357422 397.241943359375 162.48187255859375" stroke-width="0.0" fill="rgb(26, 50, 147)" opacity="0.92287636" stroke="rgb(0, 0, 0)" stroke-opacity="1.0" stroke-linecap="round" stroke-linejoin="round"/>
    <path d="M 288.2664489746094 284.0796813964844 C 245.40476989746094 288.78076171875 282.3020935058594 267.9403381347656 249.4876251220703 268.8257751464844 C 244.27479553222656 247.71372985839844 212.47694396972656 251.85398864746094 117.66612243652344 194.212646484375 C 275.1991271972656 147.8947296142578 200.61033630371094 233.90611267089844 222.093017578125 229.17662048339844 C 236.8057403564453 226.0160369873047 243.90951538085938 277.6891784667969 288.2664489746094 284.0796813964844" stroke-width="0.0" fill="rgb(163, 163, 153)" opacity="0.52950156" stroke="rgb(0, 0, 0)" stroke-opacity="1.0" stroke-linecap="round" stroke-linejoin="round"/>
    <path d="M 426.19873046875 222.03350830078125 C 274.6733093261719 307.92010498046875 568.8124389648438 252.1791534423828 457.3170166015625 391.3009033203125 C 183.16929626464844 372.54962158203125 196.46682739257812 382.2305603027344 241.5372772216797 360.48052978515625 C 374.3316650390625 246.80099487304688 388.89996337890625 246.81002807617188 405.59515380859375 271.1717529296875 C 398.03216552734375 250.42161560058594 445.1329040527344 220.9157257080078 426.19873046875 222.03350830078125" stroke-width="0.0" fill="rgb(9, 96, 20)" opacity="0.8350395" stroke="rgb(0, 0, 0)" stroke-opacity="1.0" stroke-linecap="round" stroke-linejoin="round"/>
    <path d="M 172.76104736328125 104.0254898071289 C 220.79527282714844 120.39517974853516 269.8671569824219 143.93800354003906 187.6636199951172 82.96238708496094 C 93.44608306884766 153.78485107421875 -64.16931915283203 308.8796691894531 63.40660095214844 -5.2615227699279785 C 317.932861328125 32.94599914550781 242.294921875 174.4821014404297 143.68223571777344 56.162899017333984 C 337.1370544433594 -37.62314987182617 211.54930114746094 45.166072845458984 172.76104736328125 104.0254898071289" stroke-width="0.0" fill="rgb(38, 210, 80)" opacity="0.57199836" stroke="rgb(0, 0, 0)" stroke-opacity="1.0" stroke-linecap="round" stroke-linejoin="round"/>
    <path d="M 121.1895751953125 380.36700439453125 C 133.70884704589844 372.5967712402344 171.7698211669922 370.66046142578125 172.75588989257812 431.0091857910156 C 135.32427978515625 393.3917541503906 129.44769287109375 414.8887939453125 137.56509399414062 365.5863342285156 C 140.04978942871094 364.381103515625 102.16315460205078 317.1190490722656 157.06045532226562 267.2894287109375 C 142.23133850097656 350.6419982910156 143.57696533203125 371.89312744140625 121.1895751953125 380.36700439453125" stroke-width="0.0" fill="rgb(87, 212, 52)" opacity="0.054443162" stroke="rgb(0, 0, 0)" stroke-opacity="1.0" stroke-linecap="round" stroke-linejoin="round"/>
    <path d="M 418.2614440917969 44.96119689941406 C 406.82464599609375 72.40814208984375 414.28955078125 101.85602569580078 395.9884338378906 62.5470085144043 C 385.8500671386719 27.304153442382812 360.18768310546875 21.25644874572754 382.90216064453125 76.12037658691406 C 354.5967712402344 82.53225708007812 360.8791198730469 37.08176803588867 356.68670654296875 54.80859375 C 393.6504821777344 72.30061340332031 391.4289245605469 70.78895568847656 418.2614440917969 44.96119689941406" stroke-width="0.0" fill="rgb(189, 196, 164)" opacity="0.0" stroke="rgb(0, 0, 0)" stroke-opacity="1.0" stroke-linecap="round" stroke-linejoin="round"/>
    <path d="M 542.1852416992188 75.49652862548828 C 523.5206298828125 111.25377655029297 498.7154846191406 84.80790710449219 476.0261535644531 50.256690979003906 C 462.1153869628906 37.914161682128906 457.2463684082031 31.569744110107422 432.3428649902344 20.73975944519043 C 426.3443298339844 -4.705036163330078 433.5469055175781 -35.60585403442383 452.1315002441406 -44.42910385131836 C 506.32745361328125 -21.283451080322266 523.69287109375 -22.13045310974121 542.1852416992188 75.49652862548828" stroke-width="0.0" fill="rgb(38, 12, 109)" opacity="0.906423" stroke="rgb(0, 0, 0)" stroke-opacity="1.0" stroke-linecap="round" stroke-linejoin="round"/>
    <path d="M 346.6127014160156 499.16845703125 C 332.2909240722656 537.900634765625 363.1518859863281 499.4616394042969 317.9133605957031 528.868408203125 C 152.0055694580078 569.15771484375 144.55592346191406 474.3362731933594 169.41697692871094 463.8542175292969 C 206.87069702148438 402.0904235839844 223.05035400390625 369.5387268066406 328.9825439453125 317.04296875 C 463.97503662109375 277.7647399902344 423.8993835449219 261.0171813964844 346.6127014160156 499.16845703125" stroke-width="0.0" fill="rgb(85, 217, 37)" opacity="0.9941844" stroke="rgb(0, 0, 0)" stroke-opacity="1.0" stroke-linecap="round" stroke-linejoin="round"/>
    <path d="M 221.94049072265625 282.5740051269531 C 257.8695983886719 366.6080627441406 261.4924011230469 326.92767333984375 267.059326171875 310.5525817871094 C 144.83201599121094 272.3607177734375 30.30944061279297 232.80894470214844 79.34762573242188 224.2399444580078 C 108.1603775024414 189.0303192138672 166.2484588623047 281.6814270019531 250.6917266845703 299.5364685058594 C 217.09934997558594 296.4284973144531 181.6625518798828 252.8419189453125 221.94049072265625 282.5740051269531" stroke-width="0.0" fill="rgb(251, 145, 52)" opacity="0.255923" stroke="rgb(0, 0, 0)" stroke-opacity="1.0" stroke-linecap="round" stroke-linejoin="round"/>
    <path d="M 410.26031494140625 424.5740966796875 C 397.3526916503906 460.4976806640625 328.88751220703125 445.04925537109375 335.0274963378906 474.9092712402344 C 373.30548095703125 453.083251953125 368.45648193359375 455.5935363769531 300.3611145019531 528.6168212890625 C 238.349853515625 396.1666259765625 247.45675659179688 300.2532958984375 359.5636901855469 295.091796875 C 383.138916015625 419.25018310546875 400.7057800292969 386.2771301269531 410.26031494140625 424.5740966796875" stroke-width="0.0" fill="rgb(17, 59, 89)" opacity="0.535097" stroke="rgb(0, 0, 0)" stroke-opacity="1.0" stroke-linecap="round" stroke-linejoin="round"/>
    <path d="M 274.0871276855469 149.4475555419922 C 399.31622314453125 144.0921173095703 360.2928466796875 163.7576904296875 317.1578674316406 166.5946044921875 C 245.0715789794922 149.62139892578125 288.3877868652344 187.3070831298828 260.0041809082031 113.69942474365234 C 251.62136840820312 62.43831253051758 289.3768005371094 9.651991844177246 300.4395751953125 77.6566162109375 C 297.2959289550781 137.8918914794922 358.9320983886719 97.61106872558594 274.0871276855469 149.4475555419922" stroke-width="0.0" fill="rgb(2, 69, 142)" opacity="0.9452182" stroke="rgb(0, 0, 0)" stroke-opacity="1.0" stroke-linecap="round" stroke-linejoin="round"/>
    <path d="M 421.230712890625 305.7309265136719 C 272.1073913574219 367.2712097167969 275.3542785644531 387.68896484375 287.7757263183594 363.6116638183594 C 246.47360229492188 442.3758544921875 207.88150024414062 367.28204345703125 92.23397064208984 291.7164306640625 C 116.27570343017578 267.5036315917969 147.58168029785156 287.7830505371094 254.28932189941406 350.3232421875 C 429.03363037109375 258.3480529785156 550.2403564453125 171.9182586669922 421.230712890625 305.7309265136719" stroke-width="0.0" fill="rgb(13, 255, 73)" opacity="1.0" stroke="rgb(0, 0, 0)" stroke-opacity="1.0" stroke-linecap="round" stroke-linejoin="round"/>
    <path d="M 421.7451171875 189.7181854248047 C 374.5616760253906 199.53909301757812 380.4595947265625 206.17884826660156 350.26190185546875 216.93374633789062 C 399.0704345703125 214.6778106689453 358.1528015136719 225.93463134765625 324.8296813964844 211.78424072265625 C 337.4776916503906 218.91677856445312 377.7118225097656 251.8957061767578 358.7990417480469 150.21202087402344 C 386.7311706542969 179.91845703125 425.64044189453125 176.49317932128906 421.7451171875 189.7181854248047" stroke-width="0.0" fill="rgb(29, 0, 168)" opacity="0.5808065" stroke="rgb(0, 0, 0)" stroke-opacity="1.0" stroke-linecap="round" stroke-linejoin="round"/>
    <path d="M 460.27874755859375 260.4670715332031 C 467.3044738769531 238.0989532470703 473.6902770996094 227.4624786376953 423.850830078125 244.35411071777344 C 327.9829406738281 304.0361328125 327.98052978515625 279.5895690917969 421.5163269042969 221.81675720214844 C 434.2163391113281 177.51161193847656 418.72894287109375 200.650390625 399.0793151855469 162.5198211669922 C 498.6341247558594 183.78550720214844 472.9391174316406 200.90072631835938 460.27874755859375 260.4670715332031" stroke-width="0.0" fill="rgb(212, 48, 227)" opacity="0.5524753" stroke="rgb(0, 0, 0)" stroke-opacity="1.0" stroke-linecap="round" stroke-linejoin="round"/>
    <path d="M 147.36212158203125 307.2483215332031 C 139.07244873046875 305.02557373046875 132.48936462402344 319.9393615722656 78.26433563232422 288.0444641113281 C 39.68721389770508 285.6959533691406 89.86090087890625 303.20452880859375 -27.901899337768555 239.97776794433594 C 27.46440315246582 199.78463745117188 12.981125831604004 214.68600463867188 94.48770904541016 263.98004150390625 C 121.88422393798828 301.2335510253906 155.01632690429688 323.26885986328125 147.36212158203125 307.2483215332031" stroke-width="0.0" fill="rgb(27, 255, 81)" opacity="0.9379938" stroke="rgb(0, 0, 0)" stroke-opacity="1.0" stroke-linecap="round" stroke-linejoin="round"/>
    <path d="M 45.514381408691406 24.266517639160156 C 48.300174713134766 50.286705017089844 38.88533020019531 55.34343719482422 54.56654357910156 29.744522094726562 C 92.59416961669922 -6.108503818511963 136.84178161621094 -7.249372482299805 2.7263026237487793 -17.6986141204834 C -29.80329132080078 138.3094024658203 4.954269886016846 94.6148452758789 20.281185150146484 77.1390609741211 C 58.04478454589844 40.23637771606445 50.053810119628906 30.399255752563477 45.514381408691406 24.266517639160156" stroke-width="0.0" fill="rgb(34, 0, 63)" opacity="0.7406223" stroke="rgb(0, 0, 0)" stroke-opacity="1.0" stroke-linecap="round" stroke-linejoin="round"/>
    <path d="M 315.1403503417969 177.2837371826172 C 316.4351501464844 232.92007446289062 345.65655517578125 232.12098693847656 295.5575866699219 251.5695343017578 C 238.22354125976562 242.9171905517578 259.004150390625 258.0909423828125 259.74151611328125 161.47767639160156 C 290.3716735839844 156.04356384277344 261.3514404296875 186.79783630371094 276.3316650390625 128.56884765625 C 317.2856750488281 142.4961700439453 344.68096923828125 149.80506896972656 315.1403503417969 177.2837371826172" stroke-width="0.0" fill="rgb(32, 68, 156)" opacity="0.64811754" stroke="rgb(0, 0, 0)" stroke-opacity="1.0" stroke-linecap="round" stroke-linejoin="round"/>
    <path d="M 159.3206024169922 510.5555114746094 C 132.32162475585938 475.4073486328125 136.4962615966797 488.3790283203125 127.92584991455078 480.69549560546875 C 125.12773895263672 487.947998046875 136.02354431152344 489.5897521972656 132.9321746826172 486.5513916015625 C 115.23043060302734 444.0013122558594 101.09622192382812 398.9396667480469 131.01473999023438 404.66375732421875 C 172.08689880371094 446.4619445800781 168.31192016601562 499.1189270019531 159.3206024169922 510.5555114746094" stroke-width="0.0" fill="rgb(220, 158, 75)" opacity="0.067939" stroke="rgb(0, 0, 0)" stroke-opacity="1.0" stroke-linecap="round" stroke-linejoin="round"/>
    <path d="M 118.2499771118164 233.6334991455078 C 130.0939178466797 255.52305603027344 60.967018127441406 251.58067321777344 81.17689514160156 238.11021423339844 C 106.93590545654297 209.27854919433594 90.58930969238281 195.46322631835938 91.53426361083984 183.76193237304688 C 104.59577178955078 203.3636016845703 98.01494598388672 224.34994506835938 120.02104187011719 179.04293823242188 C 134.8846893310547 232.31710815429688 128.33560180664062 256.2080383300781 118.2499771118164 233.6334991455078" stroke-width="0.0" fill="rgb(115, 176, 165)" opacity="0.0013661543" stroke="rgb(0, 0, 0)" stroke-opacity="1.0" stroke-linecap="round" stroke-linejoin="round"/>
    <path d="M 104.44051361083984 151.87115478515625 C 106.4030990600586 166.19046020507812 68.50016021728516 138.52806091308594 66.28531646728516 142.2758026123047 C 70.3852767944336 195.24940490722656 27.203914642333984 194.7892303466797 36.64662551879883 96.09551239013672 C 40.37964630126953 77.58317565917969 111.36664581298828 89.86658477783203 104.20121002197266 87.586669921875 C 113.33343505859375 149.2301025390625 126.98013305664062 128.5166015625 104.44051361083984 151.87115478515625" stroke-width="0.0" fill="rgb(98, 255, 61)" opacity="1.0" stroke="rgb(0, 0, 0)" stroke-opacity="1.0" stroke-linecap="round" stroke-linejoin="round"/>
    <path d="M 292.21636962890625 221.2293701171875 C 359.5713806152344 276.83282470703125 325.00811767578125 241.68919372558594 298.3692932128906 235.31698608398438 C 263.78753662109375 271.926025390625 251.70582580566406 260.22149658203125 207.23866271972656 212.01148986816406 C 226.66514587402344 201.4480438232422 212.76547241210938 185.3282470703125 237.81678771972656 244.7096405029297 C 311.1041564941406 224.19955444335938 286.2779541015625 174.98779296875 292.21636962890625 221.2293701171875" stroke-width="0.0" fill="rgb(66, 38, 116)" opacity="0.048806325" stroke="rgb(0, 0, 0)" stroke-opacity="1.0" stroke-linecap="round" stroke-linejoin="round"/>
    <path d="M 224.35935974121094 129.2325897216797 C 216.80667114257812 123.11013793945312 213.53953552246094 120.0214614868164 254.98699951171875 125.37804412841797 C 226.64529418945312 123.34507751464844 179.52786254882812 165.2063446044922 83.78057098388672 198.35369873046875 C 173.14036560058594 127.27214050292969 215.6859893798828 127.5732650756836 214.30264282226562 97.95760345458984 C 240.3134765625 97.28739166259766 247.76515197753906 106.40601348876953 224.35935974121094 129.2325897216797" stroke-width="0.0" fill="rgb(57, 93, 154)" opacity="0.45265657" stroke="rgb(0, 0, 0)" stroke-opacity="1.0" stroke-linecap="round" stroke-linejoin="round"/>
    <path d="M 84.33463287353516 527.3858032226562 C 42.45839309692383 539.5292358398438 15.03414249420166 530.3245849609375 0.8111952543258667 530.5191040039062 C -9.364206314086914 527.7437133789062 -16.68471336364746 520.4232177734375 -21.20284080505371 510.0506896972656 C -18.48799705505371 494.70721435546875 -31.987857818603516 464.11956787109375 -19.339963912963867 411.18707275390625 C 47.515193939208984 445.2231140136719 55.09439468383789 465.7110290527344 84.33463287353516 527.3858032226562" stroke-width="0.0" fill="rgb(57, 3, 42)" opacity="0.70422137" stroke="rgb(0, 0, 0)" stroke-opacity="1.0" stroke-linecap="round" stroke-linejoin="round"/>
    <path d="M 204.8385009765625 125.72645568847656 C 246.95559692382812 121.77674865722656 168.90774536132812 123.50922393798828 129.66270446777344 190.9846649169922 C 86.08969116210938 206.11605834960938 113.48283386230469 216.5868682861328 153.2744140625 175.59536743164062 C 170.56118774414062 201.59739685058594 153.81361389160156 194.54222106933594 133.6662139892578 212.6390838623047 C 176.10902404785156 191.00732421875 127.58006286621094 154.92327880859375 204.8385009765625 125.72645568847656" stroke-width="0.0" fill="rgb(59, 199, 149)" opacity="0.62971276" stroke="rgb(0, 0, 0)" stroke-opacity="1.0" stroke-linecap="round" stroke-linejoin="round"/>
    <path d="M 468.3476257324219 238.8969268798828 C 336.2159118652344 302.90093994140625 334.7275695800781 323.24713134765625 342.1323547363281 314.8672180175781 C 273.5152282714844 328.8823547363281 247.65420532226562 377.4071044921875 256.03851318359375 317.9234619140625 C 293.7107849121094 285.8985900878906 313.5897521972656 301.5593566894531 357.44696044921875 257.3161926269531 C 301.4760437011719 314.3829040527344 406.9100036621094 183.3008575439453 468.3476257324219 238.8969268798828" stroke-width="0.0" fill="rgb(8, 2, 127)" opacity="0.7153118" stroke="rgb(0, 0, 0)" stroke-opacity="1.0" stroke-linecap="round" stroke-linejoin="round"/>
    <path d="M 265.1779479980469 103.71951293945312 C 195.44351196289062 164.77566528320312 204.739990234375 161.7003173828125 147.8069610595703 166.6526336669922 C 150.96568298339844 136.9528045654297 155.5263671875 143.9617156982422 161.19264221191406 117.43073272705078 C 176.0340118408203 101.68222045898438 164.96066284179688 76.33716583251953 188.57891845703125 42.996742248535156 C 231.85415649414062 69.8498764038086 248.58689880371094 48.76775360107422 265.1779479980469 103.71951293945312" stroke-width="0.0" fill="rgb(178, 155, 186)" opacity="0.8634863" stroke="rgb(0, 0, 0)" stroke-opacity="1.0" stroke-linecap="round" stroke-linejoin="round"/>
    <path d="M 177.91091918945312 90.82366180419922 C 166.97055053710938 84.42894744873047 172.86587524414062 104.39692687988281 170.6126251220703 94.85026550292969 C 152.646728515625 59.00099563598633 159.93341064453125 140.6554718017578 148.5699920654297 96.3711166381836 C 116.91471099853516 22.850698471069336 136.53807067871094 -25.147192001342773 217.84703063964844 -8.897479057312012 C 217.16653442382812 101.7069320678711 207.74635314941406 73.45091247558594 177.91091918945312 90.82366180419922" stroke-width="0.0" fill="rgb(145, 255, 82)" opacity="1.0" stroke="rgb(0, 0, 0)" stroke-opacity="1.0" stroke-linecap="round" stroke-linejoin="round"/>
    <path d="M 374.7405090332031 101.92523193359375 C 378.7768249511719 96.42918395996094 346.220947265625 92.13239288330078 328.2601013183594 122.11273956298828 C 355.6518249511719 130.12686157226562 381.34246826171875 94.6231689453125 400.6564025878906 55.80314254760742 C 398.8556823730469 76.11669921875 391.46337890625 92.61944580078125 392.3385314941406 94.59711456298828 C 394.6033935546875 127.99099731445312 373.21807861328125 113.17230987548828 374.7405090332031 101.92523193359375" stroke-width="0.0" fill="rgb(175, 242, 166)" opacity="0.0" stroke="rgb(0, 0, 0)" stroke-opacity="1.0" stroke-linecap="round" stroke-linejoin="round"/>
    <path d="M 327.2056579589844 512.5765380859375 C 342.4066162109375 521.9838256835938 339.63922119140625 526.7438354492188 315.7064514160156 537.7717895507812 C 261.4447326660156 536.3601684570312 257.61920166015625 530.6345825195312 266.1660461425781 461.2085876464844 C 266.661865234375 433.3329162597656 271.47259521484375 397.0715026855469 279.77703857421875 398.724365234375 C 306.3670654296875 457.27105712890625 314.3704833984375 492.78564453125 327.2056579589844 512.5765380859375" stroke-width="0.0" fill="rgb(51, 122, 6)" opacity="0.4396217" stroke="rgb(0, 0, 0)" stroke-opacity="1.0" stroke-linecap="round" stroke-linejoin="round"/>
    <path d="M 308.8456726074219 184.48385620117188 C 308.7132873535156 144.1052703857422 317.4720764160156 149.7936248779297 317.0303649902344 214.3537139892578 C 307.62615966796875 148.65196228027344 314.587890625 147.6726531982422 291.63720703125 172.35614013671875 C 267.50750732421875 170.46090698242188 299.7891845703125 177.58782958984375 315.07037353515625 179.41122436523438 C 294.9510192871094 154.40664672851562 304.71685791015625 177.80552673339844 308.8456726074219 184.48385620117188" stroke-width="0.0" fill="rgb(21, 103, 105)" opacity="0.14270955" stroke="rgb(0, 0, 0)" stroke-opacity="1.0" stroke-linecap="round" stroke-linejoin="round"/>
    <path d="M 274.5208740234375 34.22372817993164 C 281.6023254394531 50.030517578125 266.40618896484375 36.759254455566406 270.65936279296875 44.08057403564453 C 253.68270874023438 31.487804412841797 254.24295043945312 6.436699390411377 257.1678771972656 -27.780681610107422 C 238.64450073242188 -9.246618270874023 253.09144592285156 -14.597795486450195 258.34613037109375 -4.133974075317383 C 268.1307373046875 -2.5360922813415527 274.7864074707031 16.213367462158203 274.5208740234375 34.22372817993164" stroke-width="0.0" fill="rgb(66, 132, 197)" opacity="0.37643358" stroke="rgb(0, 0, 0)" stroke-opacity="1.0" stroke-linecap="round" stroke-linejoin="round"/>
    <path d="M 378.2214050292969 245.54476928710938 C 346.1901550292969 267.8382568359375 320.4371032714844 266.6366882324219 338.0688171386719 260.7258605957031 C 324.976806640625 291.4294128417969 309.1275939941406 271.01898193359375 318.3987731933594 270.92730712890625 C 332.9832763671875 259.98944091796875 337.09991455078125 241.4855194091797 336.5212097167969 248.60504150390625 C 334.69085693359375 240.8494110107422 376.99078369140625 248.60110473632812 378.2214050292969 245.54476928710938" stroke-width="0.0" fill="rgb(226, 134, 236)" opacity="0.22476803" stroke="rgb(0, 0, 0)" stroke-opacity="1.0" stroke-linecap="round" stroke-linejoin="round"/>
    <path d="M 190.7709197998047 48.21808624267578 C 206.2678985595703 62.711814880371094 221.32208251953125 102.8551025390625 209.2724609375 123.51354217529297 C 166.7367401123047 96.45390319824219 154.94725036621094 102.4193344116211 150.4604034423828 102.84040069580078 C 172.15769958496094 117.19017028808594 190.1949920654297 95.92422485351562 153.6732177734375 71.73182678222656 C 165.57229614257812 73.17154693603516 197.83377075195312 80.47225952148438 190.7709197998047 48.21808624267578" stroke-width="0.0" fill="rgb(86, 202, 92)" opacity="0.037331793" stroke="rgb(0, 0, 0)" stroke-opacity="1.0" stroke-linecap="round" stroke-linejoin="round"/>
    <path d="M 540.1083374023438 460.4657287597656 C 554.9467163085938 473.20623779296875 542.6956176757812 481.20782470703125 482.2330627441406 469.4910583496094 C 482.06695556640625 462.80328369140625 477.1528015136719 471.7642822265625 467.64031982421875 451.6646728515625 C 480.9245910644531 420.5830993652344 491.63592529296875 419.06561279296875 510.3862609863281 437.5180358886719 C 547.4254150390625 442.7499084472656 557.3265380859375 454.9701232910156 540.1083374023438 460.4657287597656" stroke-width="0.0" fill="rgb(100, 88, 133)" opacity="0.95584893" stroke="rgb(0, 0, 0)" stroke-opacity="1.0" stroke-linecap="round" stroke-linejoin="round"/>
    <path d="M 335.0930480957031 489.5608215332031 C 354.32147216796875 499.0140686035156 339.663330078125 496.9861145019531 309.71746826171875 500.98309326171875 C 317.6562805175781 519.8837890625 334.87664794921875 462.7171325683594 343.2828369140625 500.1535949707031 C 358.9629211425781 486.5775451660156 342.9174499511719 493.46026611328125 346.2998962402344 475.90032958984375 C 373.5433349609375 466.4002685546875 353.524658203125 507.25091552734375 335.0930480957031 489.5608215332031" stroke-width="0.0" fill="rgb(75, 98, 38)" opacity="0.07004327" stroke="rgb(0, 0, 0)" stroke-opacity="1.0" stroke-linecap="round" stroke-linejoin="round"/>
    <path d="M 485.3310852050781 379.0640869140625 C 469.85626220703125 411.81158447265625 416.81280517578125 411.9686279296875 406.3951110839844 451.4659118652344 C 400.4375 450.19061279296875 392.99993896484375 447.6357727050781 403.893310546875 393.2789001464844 C 429.9515686035156 398.45404052734375 419.8305358886719 402.7815856933594 442.17755126953125 367.4561767578125 C 474.648193359375 362.10064697265625 479.4944152832031 361.334228515625 485.3310852050781 379.0640869140625" stroke-width="0.0" fill="rgb(132, 131, 209)" opacity="0.913186" stroke="rgb(0, 0, 0)" stroke-opacity="1.0" stroke-linecap="round" stroke-linejoin="round"/>
    <path d="M 416.0934753417969 407.4313049316406 C 426.8863220214844 421.8516845703125 393.36199951171875 422.4191589355469 358.41546630859375 425.31121826171875 C 380.142578125 408.8450012207031 369.88458251953125 406.7445068359375 382.9486999511719 385.7785949707031 C 373.15777587890625 377.0040588378906 379.211669921875 376.3613586425781 378.4502868652344 374.81982421875 C 437.4813232421875 367.23199462890625 452.8089294433594 366.4420166015625 416.0934753417969 407.4313049316406" stroke-width="0.0" fill="rgb(19, 140, 41)" opacity="0.8127001" stroke="rgb(0, 0, 0)" stroke-opacity="1.0" stroke-linecap="round" stroke-linejoin="round"/>
    <path d="M 278.64898681640625 130.88502502441406 C 255.71597290039062 105.75323486328125 268.6390686035156 118.18447875976562 246.5768280029297 132.43850708007812 C 238.3685302734375 153.61184692382812 230.06744384765625 139.1702423095703 206.9700927734375 143.5537567138672 C 226.92527770996094 114.61707305908203 234.02691650390625 132.78244018554688 244.8904571533203 122.8203353881836 C 259.771240234375 120.83305358886719 265.1128234863281 132.582763671875 278.64898681640625 130.88502502441406" stroke-width="0.0" fill="rgb(50, 166, 212)" opacity="0.9106493" stroke="rgb(0, 0, 0)" stroke-opacity="1.0" stroke-linecap="round" stroke-linejoin="round"/>
    <path d="M 120.77164459228516 414.6629943847656 C 116.92182922363281 456.7306823730469 110.78927612304688 459.3542175292969 70.26924896240234 456.7335510253906 C 66.3901596069336 438.2825622558594 68.0733642578125 424.2806396484375 34.52699279785156 410.3694152832031 C 42.55348587036133 388.9307861328125 49.77580261230469 379.2926940917969 51.11000442504883 375.9287414550781 C 89.52266693115234 414.1595764160156 105.22261047363281 406.2876281738281 120.77164459228516 414.6629943847656" stroke-width="0.0" fill="rgb(163, 133, 67)" opacity="0.07497064" stroke="rgb(0, 0, 0)" stroke-opacity="1.0" stroke-linecap="round" stroke-linejoin="round"/>
    <path d="M 472.22210693359375 64.9803237915039 C 447.70587158203125 77.3736801147461 426.57373046875 91.36151123046875 432.4329833984375 118.48426818847656 C 403.4619140625 98.70297241210938 382.8260498046875 99.9587173461914 363.5810852050781 40.462459564208984 C 358.34686279296875 -8.237375259399414 405.1561584472656 3.0717108249664307 446.81341552734375 4.53257942199707 C 462.4574279785156 31.3710994720459 466.7010192871094 36.99116897583008 472.22210693359375 64.9803237915039" stroke-width="0.0" fill="rgb(94, 69, 191)" opacity="0.114148945" stroke="rgb(0, 0, 0)" stroke-opacity="1.0" stroke-linecap="round" stroke-linejoin="round"/>
    <path d="M 212.5233154296875 18.08043098449707 C 222.70419311523438 30.401641845703125 203.47271728515625 33.380184173583984 187.69654846191406 33.31818771362305 C 175.6131591796875 44.27803039550781 193.82754516601562 35.02205276489258 198.72152709960938 27.067949295043945 C 187.20787048339844 3.6242940425872803 212.9179229736328 2.6205742359161377 218.37127685546875 -17.289087295532227 C 166.1357879638672 -2.65716814994812 178.9385223388672 27.39088249206543 212.5233154296875 18.08043098449707" stroke-width="0.0" fill="rgb(167, 221, 94)" opacity="0.37254134" stroke="rgb(0, 0, 0)" stroke-opacity="1.0" stroke-linecap="round" stroke-linejoin="round"/>
    <path d="M 501.9819030761719 200.1926727294922 C 512.6475830078125 181.02943420410156 504.834228515625 197.7316131591797 524.4105834960938 227.6025390625 C 502.5237121582031 198.24757385253906 468.6871337890625 194.46743774414062 483.34405517578125 186.29202270507812 C 465.5021057128906 141.24603271484375 454.7796936035156 131.48899841308594 519.7191162109375 162.989501953125 C 506.7655334472656 200.04307556152344 492.5651550292969 206.5816650390625 501.9819030761719 200.1926727294922" stroke-width="0.0" fill="rgb(232, 255, 129)" opacity="0.33236724" stroke="rgb(0, 0, 0)" stroke-opacity="1.0" stroke-linecap="round" stroke-linejoin="round"/>
    <path d="M 405.1617126464844 314.9091491699219 C 408.9228820800781 330.1634826660156 395.7035217285156 339.87957763671875 394.3192138671875 354.1732177734375 C 397.70391845703125 360.11163330078125 387.19329833984375 344.4615783691406 378.28533935546875 310.181640625 C 361.2528076171875 301.6355895996094 390.65509033203125 294.9312744140625 394.8504638671875 292.2415771484375 C 412.4447937011719 296.52972412109375 405.2444763183594 291.5829772949219 405.1617126464844 314.9091491699219" stroke-width="0.0" fill="rgb(56, 233, 59)" opacity="0.034365796" stroke="rgb(0, 0, 0)" stroke-opacity="1.0" stroke-linecap="round" stroke-linejoin="round"/>
    <path d="M 276.84979248046875 271.69268798828125 C 286.1622314453125 290.6226501464844 261.1248779296875 279.4693298339844 258.03558349609375 283.5319519042969 C 243.00616455078125 289.03546142578125 236.5562286376953 278.61566162109375 215.82264709472656 276.4041442871094 C 217.4354248046875 268.7383117675781 235.67816162109375 263.12860107421875 234.32911682128906 255.66029357910156 C 245.74237060546875 259.69842529296875 258.9841003417969 273.07733154296875 276.84979248046875 271.69268798828125" stroke-width="0.0" fill="rgb(155, 169, 184)" opacity="0.7125805" stroke="rgb(0, 0, 0)" stroke-opacity="1.0" stroke-linecap="round" stroke-linejoin="round"/>
    <path d="M 294.92266845703125 288.71954345703125 C 276.8316345214844 286.23590087890625 264.03570556640625 279.82171630859375 252.54574584960938 281.95477294921875 C 234.6089630126953 306.6155700683594 216.14840698242188 319.4449157714844 216.73638916015625 294.56842041015625 C 239.98614501953125 316.95025634765625 235.4544219970703 305.78839111328125 249.52493286132812 263.70220947265625 C 300.4515380859375 274.3753967285156 301.48052978515625 302.0785217285156 294.92266845703125 288.71954345703125" stroke-width="0.0" fill="rgb(71, 255, 35)" opacity="0.13560934" stroke="rgb(0, 0, 0)" stroke-opacity="1.0" stroke-linecap="round" stroke-linejoin="round"/>
    <path d="M 40.93934631347656 104.7361831665039 C 22.131637573242188 107.72799682617188 19.93092918395996 134.88067626953125 24.67794418334961 187.2492218017578 C -0.7547249794006348 178.59640502929688 -3.30195951461792 159.16299438476562 -7.17083740234375 133.26646423339844 C -8.350884437561035 118.31838989257812 4.840697288513184 102.6550521850586 -1.7134860754013062 84.28184509277344 C 24.764951705932617 115.173583984375 53.315677642822266 128.2040557861328 40.93934631347656 104.7361831665039" stroke-width="0.0" fill="rgb(104, 169, 119)" opacity="0.20195003" stroke="rgb(0, 0, 0)" stroke-opacity="1.0" stroke-linecap="round" stroke-linejoin="round"/>
    <path d="M 437.1086730957031 152.52130126953125 C 439.2713928222656 155.34481811523438 426.6295471191406 130.90301513671875 436.7134094238281 133.63027954101562 C 423.95928955078125 148.91444396972656 408.44024658203125 164.17396545410156 407.8912048339844 141.22454833984375 C 389.2862548828125 115.70870971679688 393.88079833984375 106.22571563720703 414.40032958984375 119.43051147460938 C 436.9909973144531 121.67674255371094 437.77264404296875 125.63621520996094 437.1086730957031 152.52130126953125" stroke-width="0.0" fill="rgb(71, 255, 24)" opacity="0.4262088" stroke="rgb(0, 0, 0)" stroke-opacity="1.0" stroke-linecap="round" stroke-linejoin="round"/>
    <path d="M 149.0638885498047 475.8333435058594 C 152.93304443359375 514.7628784179688 111.77227020263672 493.1669616699219 111.5733413696289 490.4464111328125 C 56.51985549926758 506.87493896484375 39.09206771850586 490.31573486328125 40.28169250488281 498.03692626953125 C 39.01647186279297 460.8620910644531 56.09626388549805 444.1101379394531 78.01836395263672 426.40618896484375 C 95.53160858154297 434.450439453125 124.14501190185547 436.91131591796875 149.0638885498047 475.8333435058594" stroke-width="0.0" fill="rgb(122, 182, 103)" opacity="0.08352613" stroke="rgb(0, 0, 0)" stroke-opacity="1.0" stroke-linecap="round" stroke-linejoin="round"/>
    <path d="M 511.8992004394531 50.66263961791992 C 522.6568603515625 48.38412857055664 511.289306640625 57.908935546875 508.272705078125 58.0482292175293 C 495.7496643066406 54.007568359375 496.7696838378906 36.82578659057617 499.7174377441406 46.2190055847168 C 487.5087890625 47.8914909362793 483.64459228515625 25.729223251342773 483.44049072265625 24.572439193725586 C 489.22686767578125 35.38711929321289 496.60107421875 49.81352233886719 511.8992004394531 50.66263961791992" stroke-width="0.0" fill="rgb(127, 82, 166)" opacity="0.009334341" stroke="rgb(0, 0, 0)" stroke-opacity="1.0" stroke-linecap="round" stroke-linejoin="round"/>
    <path d="M 312.35003662109375 307.1195983886719 C 312.9900817871094 350.443115234375 314.95989990234375 355.39935302734375 282.18878173828125 311.2818298339844 C 266.4572448730469 344.72589111328125 272.5631408691406 343.7989807128906 288.74407958984375 305.7178039550781 C 271.7598876953125 330.8722229003906 274.5133056640625 290.62640380859375 268.9002990722656 275.2535705566406 C 251.2543487548828 284.8634033203125 271.6965637207031 334.1167907714844 312.35003662109375 307.1195983886719" stroke-width="0.0" fill="rgb(1, 45, 203)" opacity="0.013053159" stroke="rgb(0, 0, 0)" stroke-opacity="1.0" stroke-linecap="round" stroke-linejoin="round"/>
    <path d="M 337.5456237792969 137.5099334716797 C 309.24566650390625 125.00670623779297 322.7027282714844 130.50460815429688 338.111328125 129.1962432861328 C 313.3604736328125 125.482177734375 331.68731689453125 90.02369689941406 315.42425537109375 76.48818969726562 C 306.02728271484375 113.37519073486328 314.303955078125 95.20252990722656 328.9582214355469 78.79447174072266 C 333.62933349609375 96.87834930419922 341.77264404296875 99.26140594482422 337.5456237792969 137.5099334716797" stroke-width="0.0" fill="rgb(7, 76, 135)" opacity="0.34308228" stroke="rgb(0, 0, 0)" stroke-opacity="1.0" stroke-linecap="round" stroke-linejoin="round"/>
    <path d="M 137.4116973876953 81.48770141601562 C 125.58242797851562 71.59141540527344 123.96827697753906 97.09650421142578 141.85394287109375 104.52464294433594 C 121.6323013305664 83.48846435546875 117.38934326171875 62.75431442260742 78.31646728515625 41.5456657409668 C 96.69139862060547 -9.812588691711426 103.95368194580078 26.16444206237793 105.15209197998047 75.2164306640625 C 121.98107147216797 81.07089233398438 144.41921997070312 83.20539093017578 137.4116973876953 81.48770141601562" stroke-width="0.0" fill="rgb(108, 169, 80)" opacity="0.0" stroke="rgb(0, 0, 0)" stroke-opacity="1.0" stroke-linecap="round" stroke-linejoin="round"/>
    <path d="M 467.6692199707031 455.70440673828125 C 478.1588134765625 492.8934020996094 449.9880676269531 529.8201293945312 440.7661437988281 551.926513671875 C 425.17291259765625 524.1387939453125 429.65496826171875 507.7343444824219 430.59832763671875 497.7174072265625 C 396.3543395996094 469.44287109375 398.58367919921875 482.7999267578125 446.4241638183594 450.48504638671875 C 461.6416015625 441.0731506347656 457.71185302734375 460.6827087402344 467.6692199707031 455.70440673828125" stroke-width="0.0" fill="rgb(68, 59, 203)" opacity="0.1252864" stroke="rgb(0, 0, 0)" stroke-opacity="1.0" stroke-linecap="round" stroke-linejoin="round"/>
    <path d="M 186.91131591796875 94.84687042236328 C 208.09127807617188 79.75797271728516 203.92884826660156 89.85504913330078 218.56324768066406 96.72342681884766 C 225.08999633789062 95.85789489746094 192.47401428222656 82.80297088623047 167.66241455078125 60.610740661621094 C 158.7279510498047 58.18693923950195 165.01800537109375 70.20446014404297 158.04550170898438 74.2071533203125 C 181.8191375732422 79.06053161621094 177.89207458496094 97.18818664550781 186.91131591796875 94.84687042236328" stroke-width="0.0" fill="rgb(127, 183, 129)" opacity="0.0" stroke="rgb(0, 0, 0)" stroke-opacity="1.0" stroke-linecap="round" stroke-linejoin="round"/>
    <path d="M 296.5583190917969 216.60699462890625 C 268.4852294921875 210.28656005859375 275.24725341796875 231.8372802734375 262.56854248046875 236.76638793945312 C 262.0705871582031 233.02235412597656 278.8688049316406 198.82119750976562 261.5253601074219 197.22132873535156 C 220.90219116210938 192.21070861816406 250.30335998535156 200.200927734375 298.5473327636719 202.3509063720703 C 284.8807373046875 211.91993713378906 300.00054931640625 219.98936462402344 296.5583190917969 216.60699462890625" stroke-width="0.0" fill="rgb(116, 36, 134)" opacity="0.2797235" stroke="rgb(0, 0, 0)" stroke-opacity="1.0" stroke-linecap="round" stroke-linejoin="round"/>
    <path d="M 508.5941162109375 28.193552017211914 C 497.118408203125 28.97900390625 487.2944641113281 38.53029251098633 474.3564758300781 35.91292953491211 C 442.2008972167969 26.795148849487305 452.3733215332031 2.6994972229003906 470.1187438964844 -19.037452697753906 C 466.64691162109375 -34.08964157104492 472.043212890625 -35.8317985534668 475.3245544433594 -29.5924015045166 C 486.67327880859375 -25.82561683654785 489.90643310546875 -14.221851348876953 508.5941162109375 28.193552017211914" stroke-width="0.0" fill="rgb(106, 73, 154)" opacity="0.0728759" stroke="rgb(0, 0, 0)" stroke-opacity="1.0" stroke-linecap="round" stroke-linejoin="round"/>
    <path d="M 172.4331512451172 428.8774719238281 C 180.65281677246094 452.9527282714844 158.895751953125 437.49945068359375 121.82711791992188 457.85528564453125 C 117.48819732666016 462.4403076171875 108.37793731689453 461.4000244140625 128.8082275390625 454.3867492675781 C 118.79021453857422 422.0749816894531 119.40010833740234 395.8860168457031 123.86640167236328 393.8707580566406 C 146.70068359375 415.66729736328125 161.28492736816406 422.85064697265625 172.4331512451172 428.8774719238281" stroke-width="0.0" fill="rgb(201, 195, 127)" opacity="0.0" stroke="rgb(0, 0, 0)" stroke-opacity="1.0" stroke-linecap="round" stroke-linejoin="round"/>
  </g>
</svg>
