<?xml version="1.0" ?>
<svg xmlns="http://www.w3.org/2000/svg" version="1.1" width="512" height="512">
  <defs/>
  <g>
    <path d="M 552.1527099609375 433.6971435546875 C 547.4852905273438 516.6414794921875 548.3889770507812 525.1383666992188 398.7850341796875 526.8408203125 C 340.84771728515625 543.3457641601562 311.4855651855469 544.1475219726562 284.91107177734375 524.2518920898438 C 325.9181213378906 354.03045654296875 390.73162841796875 351.12310791015625 493.4976501464844 316.97271728515625 C 587.6735229492188 311.3280944824219 582.1527709960938 320.0970764160156 552.1527099609375 433.6971435546875" stroke-width="0.0" fill="rgb(3, 155, 141)" opacity="0.9436472" stroke="rgb(0, 0, 0)" stroke-opacity="1.0" stroke-linecap="round" stroke-linejoin="round"/>
    <path d="M 300.0679931640625 432.22808837890625 C 287.5323181152344 495.8920593261719 282.25885009765625 516.5858154296875 240.11424255371094 537.0340576171875 C -51.20000076293945 519.230712890625 -51.20000076293945 511.73809814453125 -27.829866409301758 496.913818359375 C 2.3182058334350586 232.3413848876953 12.656107902526855 230.40420532226562 43.2545280456543 221.95870971679688 C 226.7338104248047 268.3662109375 268.4512939453125 211.3535919189453 300.0679931640625 432.22808837890625" stroke-width="0.0" fill="rgb(123, 130, 146)" opacity="0.68727505" stroke="rgb(0, 0, 0)" stroke-opacity="1.0" stroke-linecap="round" stroke-linejoin="round"/>
    <path d="M 329.1589660644531 341.2684326171875 C 419.4789123535156 380.28216552734375 236.6168212890625 438.7168273925781 257.1563720703125 374.0392761230469 C 118.91571044921875 461.1180725097656 -7.04799222946167 351.5526428222656 53.60997772216797 183.79107666015625 C 57.9501953125 183.78138732910156 44.27648162841797 176.88584899902344 158.9636993408203 151.56158447265625 C 243.89735412597656 199.3450164794922 330.27685546875 94.19058227539062 329.1589660644531 341.2684326171875" stroke-width="0.0" fill="rgb(82, 69, 64)" opacity="0.65732044" stroke="rgb(0, 0, 0)" stroke-opacity="1.0" stroke-linecap="round" stroke-linejoin="round"/>
    <path d="M 198.862548828125 -35.87897872924805 C 189.90269470214844 157.20164489746094 171.16488647460938 133.9268798828125 10.829330444335938 231.92222595214844 C -43.207275390625 236.51856994628906 -40.97742462158203 220.9884796142578 -27.100358963012695 150.10716247558594 C -16.190303802490234 -17.708452224731445 -9.996477127075195 -23.574756622314453 32.775753021240234 -18.098133087158203 C 196.82273864746094 -23.394615173339844 224.5518341064453 -36.593833923339844 198.862548828125 -35.87897872924805" stroke-width="0.0" fill="rgb(25, 151, 187)" opacity="0.8419523" stroke="rgb(0, 0, 0)" stroke-opacity="1.0" stroke-linecap="round" stroke-linejoin="round"/>
    <path d="M 508.7052917480469 84.36835479736328 C 431.9532165527344 294.6895446777344 409.73992919921875 411.0379638671875 299.2975769042969 364.728759765625 C 375.4189758300781 211.21987915039062 144.10935974121094 330.9265441894531 214.7181396484375 206.77488708496094 C 232.09498596191406 59.08720016479492 212.70237731933594 17.89885711669922 352.8507385253906 -50.62065505981445 C 605.2239990234375 5.495079040527344 621.9761352539062 78.68011474609375 508.7052917480469 84.36835479736328" stroke-width="0.0" fill="rgb(184, 177, 184)" opacity="0.60253567" stroke="rgb(0, 0, 0)" stroke-opacity="1.0" stroke-linecap="round" stroke-linejoin="round"/>
    <path d="M 271.2176818847656 170.3701171875 C 194.3764190673828 317.8035583496094 264.00531005859375 240.3760528564453 179.42990112304688 290.4253845214844 C 188.79379272460938 184.19435119628906 124.05499267578125 187.73291015625 71.87028503417969 243.88079833984375 C 153.75474548339844 149.58299255371094 121.20199584960938 65.7182846069336 329.6212158203125 -22.742389678955078 C 287.6949768066406 -37.68553924560547 217.23641967773438 -58.23636245727539 271.2176818847656 170.3701171875" stroke-width="0.0" fill="rgb(237, 197, 114)" opacity="0.9064195" stroke="rgb(0, 0, 0)" stroke-opacity="1.0" stroke-linecap="round" stroke-linejoin="round"/>
    <path d="M 455.6220703125 322.8587951660156 C 426.0910339355469 416.5270690917969 429.1717529296875 452.2709045410156 224.5338134765625 448.20947265625 C 119.75931549072266 452.1578063964844 87.23059844970703 474.9119567871094 321.1495056152344 459.302734375 C 245.96707153320312 274.2492370605469 303.3404541015625 195.7559051513672 315.55340576171875 203.81573486328125 C 450.14581298828125 208.44688415527344 460.4587707519531 243.62179565429688 455.6220703125 322.8587951660156" stroke-width="0.0" fill="rgb(105, 137, 198)" opacity="0.5242548" stroke="rgb(0, 0, 0)" stroke-opacity="1.0" stroke-linecap="round" stroke-linejoin="round"/>
    <path d="M 549.9228515625 189.49368286132812 C 559.4638061523438 328.3201904296875 562.8872680664062 345.11700439453125 462.87677001953125 427.5860595703125 C 390.16290283203125 387.1919250488281 420.6139221191406 333.4308166503906 342.6065368652344 275.4109191894531 C 349.856689453125 71.7477798461914 325.6754150390625 10.351175308227539 484.33355712890625 17.037593841552734 C 567.4083862304688 44.58657455444336 558.6341552734375 93.76629638671875 549.9228515625 189.49368286132812" stroke-width="0.0" fill="rgb(3, 169, 148)" opacity="0.93617636" stroke="rgb(0, 0, 0)" stroke-opacity="1.0" stroke-linecap="round" stroke-linejoin="round"/>
    <path d="M 386.8861999511719 104.70589447021484 C 383.90374755859375 110.45649719238281 390.8221435546875 254.36056518554688 369.78131103515625 406.390380859375 C 370.3277893066406 138.7693328857422 124.27239990234375 306.7429504394531 253.89822387695312 230.30064392089844 C 225.44911193847656 214.32757568359375 307.6932067871094 203.11875915527344 355.79742431640625 195.62570190429688 C 365.9933776855469 91.92827606201172 338.455810546875 115.04375457763672 386.8861999511719 104.70589447021484" stroke-width="0.0" fill="rgb(0, 80, 121)" opacity="0.21915677" stroke="rgb(0, 0, 0)" stroke-opacity="1.0" stroke-linecap="round" stroke-linejoin="round"/>
    <path d="M 219.38034057617188 257.4828186035156 C 232.48037719726562 239.90237426757812 188.69424438476562 276.67742919921875 203.30780029296875 294.8768005371094 C 245.4912109375 275.93505859375 213.76077270507812 258.770751953125 204.71823120117188 293.71014404296875 C 216.4870147705078 236.24014282226562 245.89735412597656 236.1091766357422 222.976318359375 276.7409362792969 C 237.61329650878906 278.63433837890625 214.57254028320312 217.0244598388672 219.38034057617188 257.4828186035156" stroke-width="0.0" fill="rgb(88, 60, 1)" opacity="0.5334299" stroke="rgb(0, 0, 0)" stroke-opacity="1.0" stroke-linecap="round" stroke-linejoin="round"/>
    <path d="M 385.59112548828125 243.245849609375 C 348.2138671875 274.8528137207031 355.5093688964844 303.4031677246094 389.46295166015625 369.15765380859375 C 379.66705322265625 328.2149353027344 393.9796447753906 330.15997314453125 365.86065673828125 313.1715393066406 C 353.0005798339844 183.68092346191406 395.8021240234375 234.39990234375 382.67169189453125 198.44430541992188 C 398.6802062988281 223.32241821289062 378.03692626953125 240.17800903320312 385.59112548828125 243.245849609375" stroke-width="0.0" fill="rgb(23, 186, 159)" opacity="0.948833" stroke="rgb(0, 0, 0)" stroke-opacity="1.0" stroke-linecap="round" stroke-linejoin="round"/>
    <path d="M 362.83746337890625 106.5494613647461 C 241.18670654296875 100.47120666503906 209.71755981445312 86.13426208496094 180.05154418945312 89.71560668945312 C 178.9258270263672 127.27836608886719 196.46810913085938 52.23176193237305 128.6715545654297 181.3407745361328 C 115.4462661743164 33.525577545166016 147.21449279785156 2.650519847869873 204.62832641601562 -47.86030960083008 C 372.888916015625 -20.75279998779297 398.3086242675781 5.526010036468506 362.83746337890625 106.5494613647461" stroke-width="0.0" fill="rgb(36, 162, 193)" opacity="0.99994785" stroke="rgb(0, 0, 0)" stroke-opacity="1.0" stroke-linecap="round" stroke-linejoin="round"/>
    <path d="M 348.7229309082031 449.858642578125 C 99.12800598144531 369.015380859375 367.2598876953125 412.7694396972656 116.6747055053711 417.9029846191406 C 111.17448425292969 334.6014099121094 87.07584381103516 396.18658447265625 388.56982421875 353.1334533691406 C 211.03131103515625 321.2165832519531 -41.57120132446289 346.64093017578125 -44.9056510925293 308.6676330566406 C 81.06483459472656 388.71759033203125 491.3095703125 316.5383605957031 348.7229309082031 449.858642578125" stroke-width="0.0" fill="rgb(180, 178, 177)" opacity="0.982671" stroke="rgb(0, 0, 0)" stroke-opacity="1.0" stroke-linecap="round" stroke-linejoin="round"/>
    <path d="M 524.7978515625 42.48939895629883 C 504.17218017578125 52.27460479736328 473.5254211425781 56.062049865722656 446.40118408203125 49.79605484008789 C 471.8154602050781 48.16584396362305 445.985595703125 33.80876541137695 383.5754699707031 48.50891876220703 C 394.3310546875 1.0298402309417725 393.3487854003906 -27.88188362121582 443.638427734375 -20.642723083496094 C 540.9146118164062 -10.191633224487305 536.6610717773438 3.261720895767212 524.7978515625 42.48939895629883" stroke-width="0.0" fill="rgb(24, 194, 170)" opacity="0.99051213" stroke="rgb(0, 0, 0)" stroke-opacity="1.0" stroke-linecap="round" stroke-linejoin="round"/>
    <path d="M 460.1163635253906 431.0111999511719 C 446.1471252441406 443.6898193359375 445.4784851074219 443.8504333496094 414.4153747558594 457.9884033203125 C 399.9116516113281 466.03106689453125 381.34539794921875 469.3360290527344 372.5152893066406 408.8092956542969 C 374.9917297363281 339.50445556640625 402.49603271484375 316.1963195800781 445.46881103515625 364.0458068847656 C 450.7569885253906 418.5136413574219 481.10150146484375 407.5328674316406 460.1163635253906 431.0111999511719" stroke-width="0.0" fill="rgb(32, 186, 174)" opacity="0.8777023" stroke="rgb(0, 0, 0)" stroke-opacity="1.0" stroke-linecap="round" stroke-linejoin="round"/>
    <path d="M 348.9346618652344 405.7029113769531 C 353.2968444824219 413.2835998535156 332.7405700683594 459.6603088378906 266.85302734375 564.1284790039062 C 129.38284301757812 556.7350463867188 106.25748443603516 534.1529541015625 31.04974937438965 448.79412841796875 C 197.31256103515625 465.2491455078125 239.0511932373047 465.25665283203125 257.7552185058594 473.71124267578125 C 312.3737487792969 428.9161682128906 323.0601806640625 417.05059814453125 348.9346618652344 405.7029113769531" stroke-width="0.0" fill="rgb(46, 57, 215)" opacity="0.99258083" stroke="rgb(0, 0, 0)" stroke-opacity="1.0" stroke-linecap="round" stroke-linejoin="round"/>
    <path d="M 447.32220458984375 432.80853271484375 C 418.8028259277344 474.6703186035156 386.8775329589844 450.2324523925781 354.32586669921875 459.8565673828125 C 337.8673400878906 456.420654296875 323.05413818359375 497.1585693359375 279.280029296875 450.3399963378906 C 291.0054626464844 434.6864929199219 291.5329284667969 430.9995422363281 375.7911376953125 416.2586669921875 C 437.87493896484375 428.1228332519531 439.02337646484375 356.26470947265625 447.32220458984375 432.80853271484375" stroke-width="0.0" fill="rgb(31, 150, 196)" opacity="0.8271724" stroke="rgb(0, 0, 0)" stroke-opacity="1.0" stroke-linecap="round" stroke-linejoin="round"/>
    <path d="M 67.51043701171875 380.8208312988281 C 67.40497589111328 420.3281555175781 78.67208099365234 474.3729553222656 -5.518988609313965 492.741455078125 C -16.406845092773438 393.80780029296875 27.28875160217285 408.666015625 16.65850067138672 402.92730712890625 C 49.030853271484375 417.5234375 56.266807556152344 414.5305480957031 79.12232971191406 431.8705749511719 C 77.6083984375 420.0331115722656 62.791194915771484 391.0318908691406 67.51043701171875 380.8208312988281" stroke-width="0.0" fill="rgb(66, 69, 196)" opacity="0.6089476" stroke="rgb(0, 0, 0)" stroke-opacity="1.0" stroke-linecap="round" stroke-linejoin="round"/>
    <path d="M 341.2755432128906 128.4381561279297 C 336.4427490234375 125.67131805419922 408.7130126953125 143.69454956054688 314.2533874511719 150.32333374023438 C 351.7427673339844 129.173583984375 372.243896484375 149.09707641601562 354.59942626953125 113.55996704101562 C 168.7884521484375 104.35308837890625 125.90878295898438 105.81609344482422 187.6043243408203 115.23355102539062 C 414.4349670410156 122.26679992675781 377.04229736328125 107.75862884521484 341.2755432128906 128.4381561279297" stroke-width="0.0" fill="rgb(173, 120, 92)" opacity="0.25958037" stroke="rgb(0, 0, 0)" stroke-opacity="1.0" stroke-linecap="round" stroke-linejoin="round"/>
    <path d="M 399.0517272949219 197.62498474121094 C 379.3297424316406 206.34017944335938 366.2532958984375 157.19395446777344 331.72406005859375 309.7344055175781 C 331.754638671875 77.95598602294922 406.8346862792969 184.39207458496094 146.89889526367188 175.5729217529297 C 150.60365295410156 206.7054443359375 416.18408203125 185.20848083496094 342.9351501464844 178.77651977539062 C 379.5015869140625 178.85232543945312 403.873046875 212.02061462402344 399.0517272949219 197.62498474121094" stroke-width="0.0" fill="rgb(182, 232, 176)" opacity="0.049221974" stroke="rgb(0, 0, 0)" stroke-opacity="1.0" stroke-linecap="round" stroke-linejoin="round"/>
    <path d="M 171.1785125732422 300.0266418457031 C 160.7379608154297 346.27923583984375 118.69517517089844 272.48724365234375 129.6170196533203 434.3642272949219 C 55.92938232421875 494.38116455078125 -37.672767639160156 452.40869140625 -62.20165252685547 310.8988037109375 C 4.237642765045166 219.0233154296875 23.083709716796875 187.4208526611328 158.21580505371094 111.85552978515625 C 118.00914001464844 147.32945251464844 174.0899658203125 177.7102508544922 171.1785125732422 300.0266418457031" stroke-width="0.0" fill="rgb(25, 94, 217)" opacity="0.9973927" stroke="rgb(0, 0, 0)" stroke-opacity="1.0" stroke-linecap="round" stroke-linejoin="round"/>
    <path d="M 110.63870239257812 514.978759765625 C 101.98380279541016 542.758544921875 94.60737609863281 540.794921875 89.29209899902344 530.0711669921875 C 72.74085235595703 527.80712890625 62.41757583618164 523.9678344726562 12.91154670715332 481.00836181640625 C 32.76762390136719 439.747802734375 24.979665756225586 408.3824462890625 74.11624145507812 404.2443542480469 C 151.75961303710938 422.31549072265625 122.33063507080078 462.2469482421875 110.63870239257812 514.978759765625" stroke-width="0.0" fill="rgb(75, 42, 230)" opacity="0.9677589" stroke="rgb(0, 0, 0)" stroke-opacity="1.0" stroke-linecap="round" stroke-linejoin="round"/>
    <path d="M 224.63583374023438 144.159912109375 C 285.27349853515625 214.44705200195312 261.79010009765625 74.50857543945312 292.5317077636719 143.00985717773438 C 277.5439147949219 173.55384826660156 219.2330780029297 141.09629821777344 229.545166015625 121.97437286376953 C 214.95506286621094 219.6846923828125 310.8451843261719 108.90168762207031 222.6968994140625 117.16651916503906 C 297.8532409667969 61.139591217041016 293.9314880371094 221.02825927734375 224.63583374023438 144.159912109375" stroke-width="0.0" fill="rgb(255, 52, 10)" opacity="0.9062099" stroke="rgb(0, 0, 0)" stroke-opacity="1.0" stroke-linecap="round" stroke-linejoin="round"/>
    <path d="M 274.81683349609375 250.03363037109375 C 286.06280517578125 249.3040008544922 288.7843322753906 278.9642333984375 289.2419128417969 217.006103515625 C 312.4678649902344 258.64483642578125 323.9510192871094 262.14837646484375 275.9974060058594 270.5303955078125 C 267.230224609375 206.96458435058594 303.2201843261719 214.13327026367188 290.2950134277344 238.9463653564453 C 267.34075927734375 236.05006408691406 280.6679382324219 195.156494140625 274.81683349609375 250.03363037109375" stroke-width="0.0" fill="rgb(168, 77, 79)" opacity="0.30792978" stroke="rgb(0, 0, 0)" stroke-opacity="1.0" stroke-linecap="round" stroke-linejoin="round"/>
    <path d="M 244.08648681640625 167.34475708007812 C 188.49278259277344 112.49799346923828 240.05148315429688 143.0944061279297 226.98948669433594 135.13262939453125 C 308.0635986328125 140.78575134277344 115.26595306396484 152.85830688476562 157.74569702148438 120.24207305908203 C 187.2186737060547 125.7903823852539 215.27297973632812 110.27346801757812 223.21026611328125 86.89317321777344 C 246.09490966796875 112.24470520019531 202.80349731445312 124.4195785522461 244.08648681640625 167.34475708007812" stroke-width="0.0" fill="rgb(255, 17, 34)" opacity="0.9592478" stroke="rgb(0, 0, 0)" stroke-opacity="1.0" stroke-linecap="round" stroke-linejoin="round"/>
    <path d="M 358.1581726074219 347.20941162109375 C 320.6366882324219 323.1317138671875 277.99505615234375 318.2577819824219 272.5739440917969 372.3355712890625 C 376.8793029785156 361.2091369628906 299.20294189453125 352.1805419921875 122.11561584472656 338.85198974609375 C 136.03599548339844 302.7712707519531 163.96505737304688 332.82354736328125 326.2909851074219 327.7239685058594 C 286.2506408691406 342.791748046875 342.2790222167969 304.006591796875 358.1581726074219 347.20941162109375" stroke-width="0.0" fill="rgb(234, 238, 238)" opacity="0.85334367" stroke="rgb(0, 0, 0)" stroke-opacity="1.0" stroke-linecap="round" stroke-linejoin="round"/>
    <path d="M 98.88794708251953 500.8157653808594 C 88.22712707519531 579.9885864257812 75.80699157714844 587.0913696289062 69.40692138671875 594.8309326171875 C -9.364206314086914 527.7437133789062 -16.68471336364746 520.4232177734375 -32.19697952270508 498.1271057128906 C -32.88438415527344 483.2230224609375 -50.77072525024414 450.0264587402344 0.09422585368156433 399.333251953125 C 56.27436447143555 430.17413330078125 83.61467742919922 466.720947265625 98.88794708251953 500.8157653808594" stroke-width="0.0" fill="rgb(104, 52, 223)" opacity="0.9749802" stroke="rgb(0, 0, 0)" stroke-opacity="1.0" stroke-linecap="round" stroke-linejoin="round"/>
    <path d="M 170.1044158935547 207.1980438232422 C 290.3584899902344 232.05238342285156 337.36077880859375 220.23934936523438 160.6657257080078 208.4279022216797 C 142.92237854003906 163.91514587402344 114.76316833496094 138.16860961914062 129.69627380371094 137.44631958007812 C 135.97604370117188 164.8321075439453 116.31576538085938 123.54486846923828 141.4415283203125 135.62925720214844 C 159.6595458984375 113.21179962158203 149.37545776367188 160.61732482910156 170.1044158935547 207.1980438232422" stroke-width="0.0" fill="rgb(239, 200, 99)" opacity="0.9838242" stroke="rgb(0, 0, 0)" stroke-opacity="1.0" stroke-linecap="round" stroke-linejoin="round"/>
    <path d="M 209.15882873535156 93.7596664428711 C 182.9624786376953 121.31082153320312 165.14215087890625 127.63782501220703 169.25942993164062 126.40677642822266 C 134.84597778320312 127.88549041748047 149.15354919433594 115.2464370727539 183.30633544921875 85.84956359863281 C 146.57070922851562 82.06867980957031 189.14340209960938 90.9937973022461 219.59056091308594 65.22088623046875 C 217.6092529296875 120.2764892578125 188.1012420654297 111.66603088378906 209.15882873535156 93.7596664428711" stroke-width="0.0" fill="rgb(255, 27, 0)" opacity="0.96109545" stroke="rgb(0, 0, 0)" stroke-opacity="1.0" stroke-linecap="round" stroke-linejoin="round"/>
    <path d="M 449.89794921875 105.89392852783203 C 420.5799255371094 124.81210327148438 399.61138916015625 121.73856353759766 390.807373046875 122.59257507324219 C 388.37615966796875 139.52468872070312 381.1219787597656 124.43541717529297 339.8031311035156 104.79308319091797 C 381.3120422363281 35.98186111450195 318.5262145996094 -8.33847427368164 354.896240234375 -54.56475067138672 C 477.9147644042969 27.727937698364258 469.04913330078125 70.57874298095703 449.89794921875 105.89392852783203" stroke-width="0.0" fill="rgb(33, 180, 168)" opacity="0.99934083" stroke="rgb(0, 0, 0)" stroke-opacity="1.0" stroke-linecap="round" stroke-linejoin="round"/>
    <path d="M 350.1303405761719 279.9302062988281 C 371.1942138671875 279.8634338378906 366.177734375 270.3072814941406 359.4829406738281 241.8635711669922 C 328.7073669433594 238.1775665283203 316.1634826660156 251.97488403320312 310.522216796875 237.29898071289062 C 306.9125061035156 209.26861572265625 326.60357666015625 210.34344482421875 319.3087463378906 220.1466827392578 C 336.7430725097656 236.42306518554688 368.4860534667969 240.03167724609375 350.1303405761719 279.9302062988281" stroke-width="0.0" fill="rgb(225, 194, 162)" opacity="0.8213962" stroke="rgb(0, 0, 0)" stroke-opacity="1.0" stroke-linecap="round" stroke-linejoin="round"/>
    <path d="M 245.54681396484375 265.9027099609375 C 229.09530639648438 296.89483642578125 215.8012237548828 344.6817321777344 203.29249572753906 338.073486328125 C 181.34828186035156 290.81561279296875 171.0283203125 253.77066040039062 174.43069458007812 261.86328125 C 172.64517211914062 268.725341796875 163.2708282470703 262.2366027832031 177.4164276123047 237.70074462890625 C 197.61000061035156 270.0781555175781 196.20816040039062 276.11431884765625 245.54681396484375 265.9027099609375" stroke-width="0.0" fill="rgb(226, 213, 188)" opacity="0.9743129" stroke="rgb(0, 0, 0)" stroke-opacity="1.0" stroke-linecap="round" stroke-linejoin="round"/>
    <path d="M 176.13597106933594 419.4801330566406 C 163.87542724609375 415.8297424316406 160.2703094482422 413.7666931152344 167.14093017578125 466.5267639160156 C 127.2373046875 466.6978454589844 131.80824279785156 455.76385498046875 123.02838897705078 428.53277587890625 C 134.01165771484375 433.597900390625 163.02291870117188 412.8425598144531 211.80125427246094 402.6383972167969 C 168.8629150390625 420.8125305175781 184.35755920410156 418.152587890625 176.13597106933594 419.4801330566406" stroke-width="0.0" fill="rgb(164, 149, 168)" opacity="0.4969965" stroke="rgb(0, 0, 0)" stroke-opacity="1.0" stroke-linecap="round" stroke-linejoin="round"/>
    <path d="M 439.57318115234375 397.1600036621094 C 403.5194396972656 383.08978271484375 412.82568359375 397.9264831542969 397.6341857910156 445.0179748535156 C 371.56781005859375 440.6862487792969 360.9347229003906 430.0321960449219 351.3713073730469 366.8226318359375 C 354.1778869628906 318.3287048339844 336.7535705566406 312.4774475097656 420.8457336425781 332.0768737792969 C 427.745361328125 372.4274597167969 450.971923828125 390.2953186035156 439.57318115234375 397.1600036621094" stroke-width="0.0" fill="rgb(21, 157, 149)" opacity="0.9436303" stroke="rgb(0, 0, 0)" stroke-opacity="1.0" stroke-linecap="round" stroke-linejoin="round"/>
    <path d="M 281.2850646972656 132.92486572265625 C 290.1744689941406 159.93736267089844 277.7884521484375 167.3207244873047 224.41844177246094 176.30726623535156 C 248.60084533691406 175.93165588378906 250.44778442382812 131.31336975097656 228.50192260742188 74.36205291748047 C 145.2427215576172 109.69709777832031 168.52317810058594 100.87550354003906 199.69570922851562 119.720947265625 C 222.6133575439453 127.47803497314453 254.20521545410156 142.72860717773438 281.2850646972656 132.92486572265625" stroke-width="0.0" fill="rgb(255, 227, 124)" opacity="0.80500305" stroke="rgb(0, 0, 0)" stroke-opacity="1.0" stroke-linecap="round" stroke-linejoin="round"/>
    <path d="M 266.2266845703125 262.43829345703125 C 262.1145935058594 271.01190185546875 247.95680236816406 308.56488037109375 246.32302856445312 311.94049072265625 C 243.55343627929688 320.8219299316406 208.52273559570312 310.172607421875 197.55357360839844 315.4647216796875 C 253.52322387695312 282.86053466796875 236.14476013183594 282.734619140625 197.50999450683594 295.0301513671875 C 251.30349731445312 286.8143310546875 246.56639099121094 302.1718444824219 266.2266845703125 262.43829345703125" stroke-width="0.0" fill="rgb(231, 222, 215)" opacity="0.7601536" stroke="rgb(0, 0, 0)" stroke-opacity="1.0" stroke-linecap="round" stroke-linejoin="round"/>
    <path d="M 188.0134735107422 362.0382995605469 C 167.24156188964844 368.1644287109375 158.3943328857422 386.2803039550781 146.8824920654297 357.3018798828125 C 131.61582946777344 377.3095397949219 124.60791015625 390.8587646484375 120.80916595458984 352.6791076660156 C 111.48550415039062 331.2728576660156 127.94416046142578 326.4061584472656 125.70628356933594 339.0789794921875 C 164.95578002929688 350.90838623046875 155.5481414794922 366.2821044921875 188.0134735107422 362.0382995605469" stroke-width="0.0" fill="rgb(227, 101, 97)" opacity="0.030655926" stroke="rgb(0, 0, 0)" stroke-opacity="1.0" stroke-linecap="round" stroke-linejoin="round"/>
    <path d="M 200.79751586914062 274.0346374511719 C 234.39279174804688 277.70941162109375 222.0233917236328 294.7664489746094 166.80250549316406 292.99139404296875 C 169.0023956298828 285.43243408203125 184.814697265625 303.0301208496094 172.9773406982422 262.0290832519531 C 199.68527221679688 261.2922668457031 207.22720336914062 242.69338989257812 205.2995147705078 249.50294494628906 C 164.40423583984375 245.80191040039062 171.1000213623047 246.34976196289062 200.79751586914062 274.0346374511719" stroke-width="0.0" fill="rgb(117, 120, 30)" opacity="0.13204284" stroke="rgb(0, 0, 0)" stroke-opacity="1.0" stroke-linecap="round" stroke-linejoin="round"/>
    <path d="M 282.98095703125 242.40579223632812 C 277.680908203125 238.5579376220703 286.713623046875 233.94943237304688 291.8502502441406 275.588134765625 C 256.0584411621094 278.8669128417969 246.5695343017578 275.6585388183594 231.8778533935547 276.25653076171875 C 227.58468627929688 229.4906768798828 219.1850128173828 230.99386596679688 273.2961120605469 239.07235717773438 C 269.5119323730469 199.845458984375 287.5942687988281 188.13284301757812 282.98095703125 242.40579223632812" stroke-width="0.0" fill="rgb(204, 205, 221)" opacity="0.6413244" stroke="rgb(0, 0, 0)" stroke-opacity="1.0" stroke-linecap="round" stroke-linejoin="round"/>
    <path d="M 233.36192321777344 364.9156494140625 C 179.16122436523438 385.8023681640625 164.16513061523438 365.1910095214844 173.05638122558594 347.6009521484375 C 102.27723693847656 367.2109680175781 149.16744995117188 372.541015625 168.2119598388672 359.8548583984375 C 200.07630920410156 340.9116516113281 190.26119995117188 326.17803955078125 202.29783630371094 361.4751892089844 C 188.01634216308594 381.9131774902344 189.57012939453125 354.55810546875 233.36192321777344 364.9156494140625" stroke-width="0.0" fill="rgb(207, 195, 191)" opacity="0.06522942" stroke="rgb(0, 0, 0)" stroke-opacity="1.0" stroke-linecap="round" stroke-linejoin="round"/>
    <path d="M 101.97842407226562 457.6174011230469 C 105.704345703125 485.2283935546875 93.83203125 468.63946533203125 53.41481399536133 460.3066101074219 C 52.81285095214844 462.292724609375 78.76573181152344 451.1097412109375 69.54881286621094 472.4361267089844 C 58.3878288269043 440.2871398925781 56.1451301574707 431.6136474609375 52.02207946777344 445.669921875 C 59.21937561035156 431.17987060546875 82.87140655517578 433.777587890625 101.97842407226562 457.6174011230469" stroke-width="0.0" fill="rgb(75, 121, 157)" opacity="0.111729935" stroke="rgb(0, 0, 0)" stroke-opacity="1.0" stroke-linecap="round" stroke-linejoin="round"/>
    <path d="M 433.5511779785156 465.6632385253906 C 443.20452880859375 492.0284729003906 454.6456604003906 460.6326599121094 442.13153076171875 467.5118713378906 C 459.3157043457031 463.87982177734375 442.9150085449219 443.29827880859375 435.6646423339844 442.6633605957031 C 427.8618469238281 434.85772705078125 428.7816162109375 437.6488342285156 436.48394775390625 437.802734375 C 410.71661376953125 433.67388916015625 414.674560546875 463.0547790527344 433.5511779785156 465.6632385253906" stroke-width="0.0" fill="rgb(22, 98, 207)" opacity="0.060386658" stroke="rgb(0, 0, 0)" stroke-opacity="1.0" stroke-linecap="round" stroke-linejoin="round"/>
    <path d="M 460.1185607910156 358.32550048828125 C 456.52008056640625 387.4465026855469 457.8869323730469 427.8360595703125 425.4284973144531 409.6828308105469 C 434.4293518066406 388.8824768066406 412.6136474609375 392.23028564453125 423.1193542480469 366.5455627441406 C 415.32635498046875 352.96734619140625 433.072021484375 348.8518981933594 453.9116516113281 353.0384826660156 C 451.2795715332031 357.8783874511719 448.63433837890625 340.74957275390625 460.1185607910156 358.32550048828125" stroke-width="0.0" fill="rgb(32, 153, 104)" opacity="0.50352216" stroke="rgb(0, 0, 0)" stroke-opacity="1.0" stroke-linecap="round" stroke-linejoin="round"/>
    <path d="M 38.82378005981445 497.1645202636719 C 62.185829162597656 481.41510009765625 40.59202194213867 485.2987365722656 23.44539451599121 458.5018005371094 C 4.521323204040527 478.99835205078125 28.249732971191406 473.6850891113281 27.507505416870117 484.7444763183594 C 0.7484151721000671 467.6943664550781 8.320441246032715 436.57183837890625 54.558204650878906 465.5403137207031 C 37.80717468261719 456.851806640625 46.239891052246094 461.8222351074219 38.82378005981445 497.1645202636719" stroke-width="0.0" fill="rgb(110, 18, 204)" opacity="0.0" stroke="rgb(0, 0, 0)" stroke-opacity="1.0" stroke-linecap="round" stroke-linejoin="round"/>
    <path d="M 179.59390258789062 256.1659851074219 C 154.78036499023438 246.66188049316406 130.433349609375 257.66851806640625 107.4144515991211 244.4898681640625 C 105.7853012084961 256.8890075683594 118.78260040283203 253.80917358398438 113.8140640258789 249.5775146484375 C 97.04615020751953 241.5634002685547 117.02327728271484 201.68711853027344 144.0494384765625 253.66253662109375 C 168.9957733154297 234.97085571289062 176.68325805664062 228.35511779785156 179.59390258789062 256.1659851074219" stroke-width="0.0" fill="rgb(47, 102, 194)" opacity="0.081436336" stroke="rgb(0, 0, 0)" stroke-opacity="1.0" stroke-linecap="round" stroke-linejoin="round"/>
    <path d="M 477.563232421875 250.8612060546875 C 475.6507263183594 264.38275146484375 472.4090881347656 263.7782897949219 474.9071350097656 258.2831726074219 C 447.4866943359375 253.62864685058594 427.3677978515625 253.5608367919922 419.87335205078125 227.5155029296875 C 435.39312744140625 217.59622192382812 452.6326599121094 215.29319763183594 471.7806091308594 205.9272003173828 C 453.5058898925781 186.49046325683594 476.5537414550781 208.49713134765625 477.563232421875 250.8612060546875" stroke-width="0.0" fill="rgb(19, 171, 120)" opacity="0.0020766563" stroke="rgb(0, 0, 0)" stroke-opacity="1.0" stroke-linecap="round" stroke-linejoin="round"/>
    <path d="M 392.77667236328125 204.67208862304688 C 394.4792175292969 220.57229614257812 372.18707275390625 234.1847381591797 373.02496337890625 253.69000244140625 C 342.69512939453125 251.60214233398438 302.3585510253906 251.30934143066406 285.5633850097656 221.16055297851562 C 330.0304870605469 186.80735778808594 340.4944763183594 180.04510498046875 366.4042663574219 190.13058471679688 C 379.2306213378906 175.48068237304688 384.0598449707031 176.14173889160156 392.77667236328125 204.67208862304688" stroke-width="0.0" fill="rgb(53, 149, 200)" opacity="0.107202865" stroke="rgb(0, 0, 0)" stroke-opacity="1.0" stroke-linecap="round" stroke-linejoin="round"/>
    <path d="M 83.8259048461914 429.66925048828125 C 83.36203002929688 445.8027648925781 78.67115020751953 453.6064453125 85.96794128417969 453.0062255859375 C 69.55876922607422 420.5939636230469 53.87453842163086 405.068359375 62.4041748046875 458.9305419921875 C 51.9854736328125 425.00390625 55.84406280517578 436.74078369140625 78.25792694091797 454.30780029296875 C 106.17082214355469 440.1978454589844 88.75733184814453 443.12799072265625 83.8259048461914 429.66925048828125" stroke-width="0.0" fill="rgb(66, 81, 169)" opacity="0.07029685" stroke="rgb(0, 0, 0)" stroke-opacity="1.0" stroke-linecap="round" stroke-linejoin="round"/>
    <path d="M 447.9229431152344 59.745018005371094 C 444.5184020996094 67.87077331542969 425.69952392578125 76.26458740234375 427.8293762207031 62.55581283569336 C 448.3049621582031 31.237789154052734 439.1282653808594 49.61171340942383 481.29876708984375 40.64225387573242 C 465.7862243652344 16.969871520996094 445.6781005859375 -0.6967715620994568 442.1003112792969 41.58261489868164 C 468.94085693359375 40.67892074584961 446.1351013183594 22.178695678710938 447.9229431152344 59.745018005371094" stroke-width="0.0" fill="rgb(31, 175, 233)" opacity="0.0" stroke="rgb(0, 0, 0)" stroke-opacity="1.0" stroke-linecap="round" stroke-linejoin="round"/>
    <path d="M 300.7302551269531 168.53672790527344 C 288.0701599121094 174.84336853027344 274.7181396484375 187.86781311035156 301.7111511230469 182.7012481689453 C 306.1162414550781 163.3845977783203 293.47772216796875 164.4449462890625 237.15692138671875 173.70913696289062 C 262.5211181640625 151.56565856933594 289.83770751953125 137.0384063720703 287.7166442871094 126.86711883544922 C 303.9495849609375 119.46771240234375 300.9205627441406 121.1667709350586 300.7302551269531 168.53672790527344" stroke-width="0.0" fill="rgb(235, 252, 169)" opacity="0.15572731" stroke="rgb(0, 0, 0)" stroke-opacity="1.0" stroke-linecap="round" stroke-linejoin="round"/>
    <path d="M 166.51316833496094 33.70895767211914 C 173.1929168701172 55.42289352416992 166.90115356445312 44.22728729248047 148.95896911621094 76.75924682617188 C 138.05458068847656 81.2763442993164 155.84237670898438 47.06773376464844 143.95098876953125 49.91133117675781 C 115.45476531982422 46.77128219604492 116.07634735107422 52.03932189941406 118.13822937011719 31.54659652709961 C 152.80332946777344 35.174644470214844 158.693603515625 28.63451385498047 166.51316833496094 33.70895767211914" stroke-width="0.0" fill="rgb(44, 146, 194)" opacity="0.0" stroke="rgb(0, 0, 0)" stroke-opacity="1.0" stroke-linecap="round" stroke-linejoin="round"/>
    <path d="M 213.87564086914062 337.5082702636719 C 203.46380615234375 357.9232177734375 188.9670867919922 361.9877624511719 187.97903442382812 376.3639221191406 C 174.11166381835938 364.4503173828125 166.0950927734375 346.6115417480469 163.50442504882812 359.08624267578125 C 170.11166381835938 348.89520263671875 162.5040283203125 341.7596435546875 169.4082794189453 350.2712707519531 C 165.1156768798828 323.9331359863281 178.63082885742188 326.5484313964844 213.87564086914062 337.5082702636719" stroke-width="0.0" fill="rgb(187, 222, 175)" opacity="0.035631325" stroke="rgb(0, 0, 0)" stroke-opacity="1.0" stroke-linecap="round" stroke-linejoin="round"/>
    <path d="M 63.05227279663086 317.04034423828125 C 62.5692024230957 338.24664306640625 53.90756607055664 344.70989990234375 38.669532775878906 345.7154541015625 C 21.164894104003906 342.9532775878906 13.493491172790527 331.4820556640625 15.154253005981445 317.6678771972656 C 15.289806365966797 311.51318359375 27.176416397094727 302.1559753417969 45.71320724487305 296.0635986328125 C 53.982177734375 298.2931823730469 54.5229377746582 300.4200744628906 63.05227279663086 317.04034423828125" stroke-width="0.0" fill="rgb(84, 125, 227)" opacity="0.15653276" stroke="rgb(0, 0, 0)" stroke-opacity="1.0" stroke-linecap="round" stroke-linejoin="round"/>
    <path d="M 430.7120056152344 461.7597961425781 C 428.6030578613281 456.95440673828125 432.794189453125 471.7118225097656 426.59228515625 446.8955993652344 C 379.15277099609375 447.2099914550781 384.38909912109375 438.1674499511719 386.68524169921875 442.91326904296875 C 383.4984130859375 419.3234558105469 454.3539123535156 442.06964111328125 461.1036071777344 402.1710510253906 C 425.8450012207031 401.3529968261719 436.24066162109375 436.5357971191406 430.7120056152344 461.7597961425781" stroke-width="0.0" fill="rgb(16, 160, 178)" opacity="0.020558657" stroke="rgb(0, 0, 0)" stroke-opacity="1.0" stroke-linecap="round" stroke-linejoin="round"/>
    <path d="M 159.0043487548828 283.5882568359375 C 146.78619384765625 272.6487121582031 123.8878402709961 275.2229309082031 118.33953857421875 255.96786499023438 C 162.79873657226562 272.43206787109375 124.1529541015625 290.5777893066406 118.7365951538086 295.435791015625 C 112.6419906616211 287.3422546386719 113.22262573242188 272.9900207519531 150.75460815429688 279.6201477050781 C 140.596435546875 285.17962646484375 138.0600128173828 288.53668212890625 159.0043487548828 283.5882568359375" stroke-width="0.0" fill="rgb(54, 63, 134)" opacity="0.07395537" stroke="rgb(0, 0, 0)" stroke-opacity="1.0" stroke-linecap="round" stroke-linejoin="round"/>
    <path d="M 148.20997619628906 459.6483154296875 C 163.55015563964844 488.7850646972656 155.47299194335938 506.8613586425781 136.44497680664062 490.0334777832031 C 112.62593841552734 461.7435302734375 88.68915557861328 465.2662048339844 95.991455078125 444.28802490234375 C 91.26181030273438 435.02783203125 105.80294799804688 419.64599609375 112.60416412353516 431.9442443847656 C 105.09898376464844 420.3475036621094 129.12933349609375 435.6568298339844 148.20997619628906 459.6483154296875" stroke-width="0.0" fill="rgb(64, 41, 225)" opacity="0.5425894" stroke="rgb(0, 0, 0)" stroke-opacity="1.0" stroke-linecap="round" stroke-linejoin="round"/>
    <path d="M 265.9002685546875 37.11513137817383 C 264.50469970703125 52.78132247924805 265.28155517578125 51.827110290527344 250.3256378173828 49.3932991027832 C 241.412841796875 57.97570037841797 251.59881591796875 56.29813766479492 256.7720642089844 36.744842529296875 C 253.49618530273438 22.92969512939453 248.89657592773438 26.345149993896484 252.7013702392578 29.969207763671875 C 250.4617462158203 26.949827194213867 250.31507873535156 24.764455795288086 265.9002685546875 37.11513137817383" stroke-width="0.0" fill="rgb(78, 103, 140)" opacity="0.23136692" stroke="rgb(0, 0, 0)" stroke-opacity="1.0" stroke-linecap="round" stroke-linejoin="round"/>
    <path d="M 161.77938842773438 388.984130859375 C 129.46011352539062 359.4685974121094 104.93633270263672 343.9736633300781 139.15675354003906 330.62921142578125 C 154.65257263183594 402.016357421875 158.49131774902344 407.52923583984375 111.10674285888672 380.373291015625 C 89.32656860351562 295.4434814453125 94.62413787841797 285.4332580566406 190.40982055664062 341.3148193359375 C 158.8168487548828 372.677490234375 135.9692840576172 366.8561706542969 161.77938842773438 388.984130859375" stroke-width="0.0" fill="rgb(84, 98, 219)" opacity="0.0" stroke="rgb(0, 0, 0)" stroke-opacity="1.0" stroke-linecap="round" stroke-linejoin="round"/>
    <path d="M 481.9888610839844 261.17987060546875 C 537.51708984375 226.29074096679688 516.463134765625 220.3704833984375 487.69244384765625 228.52284240722656 C 474.6328430175781 230.2049102783203 471.5283203125 240.03302001953125 490.4766845703125 240.41879272460938 C 493.772705078125 222.98146057128906 519.677978515625 228.46279907226562 508.25653076171875 222.3326416015625 C 478.6428527832031 169.6610107421875 487.59552001953125 189.88279724121094 481.9888610839844 261.17987060546875" stroke-width="0.0" fill="rgb(19, 187, 123)" opacity="0.050677776" stroke="rgb(0, 0, 0)" stroke-opacity="1.0" stroke-linecap="round" stroke-linejoin="round"/>
    <path d="M 444.74713134765625 211.29782104492188 C 443.52392578125 282.02923583984375 443.23028564453125 280.93017578125 425.5328063964844 306.1460876464844 C 401.07830810546875 298.75054931640625 389.47210693359375 275.2793884277344 413.6982727050781 266.255615234375 C 406.6513366699219 251.4816436767578 435.6875305175781 255.9451904296875 447.31298828125 247.67771911621094 C 465.9381408691406 247.88316345214844 485.40863037109375 243.4724884033203 444.74713134765625 211.29782104492188" stroke-width="0.0" fill="rgb(72, 151, 119)" opacity="0.07645469" stroke="rgb(0, 0, 0)" stroke-opacity="1.0" stroke-linecap="round" stroke-linejoin="round"/>
    <path d="M 497.6091613769531 80.77356719970703 C 498.5675354003906 78.47444152832031 486.1129150390625 93.15330505371094 468.16619873046875 61.81161880493164 C 461.256591796875 78.00035858154297 465.0621337890625 76.99673461914062 477.9155578613281 36.40729904174805 C 455.6996154785156 54.773033142089844 453.0049133300781 65.78926086425781 457.5309143066406 45.34371566772461 C 469.257080078125 62.523643493652344 495.00628662109375 72.03224182128906 497.6091613769531 80.77356719970703" stroke-width="0.0" fill="rgb(17, 168, 203)" opacity="0.05834091" stroke="rgb(0, 0, 0)" stroke-opacity="1.0" stroke-linecap="round" stroke-linejoin="round"/>
    <path d="M 46.61611557006836 196.74154663085938 C 41.38404846191406 195.48294067382812 42.39497756958008 184.86573791503906 56.443756103515625 191.43771362304688 C 50.795196533203125 195.64764404296875 33.52273941040039 188.3135528564453 36.43731689453125 184.29075622558594 C 20.904834747314453 177.17498779296875 36.42491912841797 172.96292114257812 30.29955291748047 179.56887817382812 C 34.47523880004883 188.0360870361328 40.87367630004883 184.164794921875 46.61611557006836 196.74154663085938" stroke-width="0.0" fill="rgb(55, 90, 169)" opacity="0.0" stroke="rgb(0, 0, 0)" stroke-opacity="1.0" stroke-linecap="round" stroke-linejoin="round"/>
    <path d="M 117.95606994628906 312.7275085449219 C 121.1237564086914 347.21380615234375 124.07342529296875 352.66412353515625 123.49578857421875 354.40997314453125 C 110.21198272705078 359.1594543457031 76.83448791503906 352.84564208984375 89.937255859375 335.73486328125 C 97.59369659423828 320.5915222167969 111.82588958740234 316.2575988769531 91.08527374267578 316.2876281738281 C 113.81503295898438 318.7910461425781 116.89720153808594 322.48126220703125 117.95606994628906 312.7275085449219" stroke-width="0.0" fill="rgb(71, 67, 205)" opacity="0.08579221" stroke="rgb(0, 0, 0)" stroke-opacity="1.0" stroke-linecap="round" stroke-linejoin="round"/>
    <path d="M 41.13554763793945 101.6878890991211 C 36.123008728027344 95.05569458007812 42.948890686035156 88.08527374267578 37.037532806396484 91.67715454101562 C 49.50168991088867 106.35523986816406 11.786101341247559 96.69692993164062 -19.11420440673828 95.96187591552734 C -5.198745250701904 58.760345458984375 2.4148175716400146 53.13347625732422 16.086944580078125 63.48065948486328 C 33.177764892578125 72.64439392089844 44.216514587402344 79.39273071289062 41.13554763793945 101.6878890991211" stroke-width="0.0" fill="rgb(99, 152, 217)" opacity="0.07702468" stroke="rgb(0, 0, 0)" stroke-opacity="1.0" stroke-linecap="round" stroke-linejoin="round"/>
  </g>
</svg>
