<?xml version="1.0" ?>
<svg xmlns="http://www.w3.org/2000/svg" version="1.1" width="512" height="512">
  <defs/>
  <g>
    <path d="M 514.7647094726562 445.59808349609375 C 434.4640808105469 447.5140380859375 394.3368835449219 563.26513671875 513.0171508789062 562.3458251953125 C 566.8128051757812 428.56927490234375 513.0155639648438 463.7733154296875 466.1043395996094 466.5000305175781 C 484.94940185546875 500.0208740234375 484.0521545410156 466.3915100097656 498.3684387207031 419.76654052734375 C 507.5548095703125 401.13812255859375 553.740966796875 392.8399658203125 514.7647094726562 445.59808349609375" stroke-width="0.0" fill="rgb(70, 71, 92)" opacity="0.7779536" stroke="rgb(0, 0, 0)" stroke-opacity="1.0" stroke-linecap="round" stroke-linejoin="round"/>
    <path d="M 275.115966796875 503.0660095214844 C 258.0760498046875 539.3445434570312 186.84799194335938 567.33642578125 136.96849060058594 418.86383056640625 C 17.765026092529297 399.6566162109375 126.79914855957031 398.784912109375 -50.13900375366211 347.9842529296875 C 36.58567428588867 204.7497100830078 -47.54963302612305 276.91168212890625 -46.288246154785156 153.56871032714844 C 107.25750732421875 47.37122344970703 226.0210418701172 204.23052978515625 275.115966796875 503.0660095214844" stroke-width="0.0" fill="rgb(20, 255, 28)" opacity="0.9113937" stroke="rgb(0, 0, 0)" stroke-opacity="1.0" stroke-linecap="round" stroke-linejoin="round"/>
    <path d="M 414.5409851074219 143.3453369140625 C 423.8600769042969 312.753173828125 364.8941650390625 273.2097473144531 232.38890075683594 338.42681884765625 C 164.2611083984375 340.6599426269531 110.27227020263672 324.65020751953125 245.68455505371094 100.2263412475586 C 157.96774291992188 100.16638946533203 191.4780731201172 39.317626953125 360.00225830078125 3.193403959274292 C 425.7884826660156 122.27967834472656 424.88543701171875 72.9345474243164 414.5409851074219 143.3453369140625" stroke-width="0.0" fill="rgb(138, 254, 50)" opacity="0.6616784" stroke="rgb(0, 0, 0)" stroke-opacity="1.0" stroke-linecap="round" stroke-linejoin="round"/>
    <path d="M 379.9936828613281 118.349365234375 C 357.7515869140625 322.0262145996094 236.82821655273438 364.45428466796875 154.27915954589844 307.53729248046875 C 41.91215133666992 202.394287109375 -27.16628646850586 259.8585205078125 52.02155685424805 178.7750244140625 C 59.51256561279297 98.15498352050781 157.6317596435547 101.06304168701172 137.10987854003906 20.6977596282959 C 211.51962280273438 -39.21703338623047 254.5048065185547 0.35565924644470215 379.9936828613281 118.349365234375" stroke-width="0.0" fill="rgb(195, 161, 168)" opacity="0.91770625" stroke="rgb(0, 0, 0)" stroke-opacity="1.0" stroke-linecap="round" stroke-linejoin="round"/>
    <path d="M 468.0872802734375 380.5403137207031 C 346.3799133300781 488.5171203613281 338.38409423828125 333.01287841796875 419.79461669921875 461.7993469238281 C 230.8125457763672 505.7436218261719 321.38128662109375 494.0508117675781 303.3363952636719 432.3270263671875 C 232.67860412597656 233.1697540283203 260.1697692871094 283.0767822265625 301.57415771484375 210.01385498046875 C 421.8118896484375 120.14250946044922 554.7477416992188 188.41650390625 468.0872802734375 380.5403137207031" stroke-width="0.0" fill="rgb(31, 51, 181)" opacity="0.7343297" stroke="rgb(0, 0, 0)" stroke-opacity="1.0" stroke-linecap="round" stroke-linejoin="round"/>
    <path d="M 521.5999145507812 214.044921875 C 561.41357421875 299.6468200683594 498.3244934082031 221.07559204101562 571.5138549804688 351.6876220703125 C 449.76690673828125 425.40301513671875 254.1614532470703 325.05657958984375 466.4898376464844 196.64561462402344 C 327.5473937988281 188.71969604492188 360.2205505371094 117.95748138427734 428.3041687011719 141.5336151123047 C 452.8104248046875 183.04888916015625 492.348388671875 151.55662536621094 521.5999145507812 214.044921875" stroke-width="0.0" fill="rgb(0, 104, 17)" opacity="0.99796915" stroke="rgb(0, 0, 0)" stroke-opacity="1.0" stroke-linecap="round" stroke-linejoin="round"/>
    <path d="M 421.2204284667969 202.87574768066406 C 302.7470703125 253.94126892089844 298.5753173828125 258.6104431152344 266.6838684082031 281.3862609863281 C 247.17552185058594 299.65155029296875 312.9295349121094 323.8280029296875 74.62730407714844 196.97589111328125 C 317.906982421875 242.9351043701172 198.0741424560547 308.8088684082031 288.14910888671875 259.71087646484375 C 360.71978759765625 219.17015075683594 450.28533935546875 175.76559448242188 421.2204284667969 202.87574768066406" stroke-width="0.0" fill="rgb(12, 178, 89)" opacity="0.6138604" stroke="rgb(0, 0, 0)" stroke-opacity="1.0" stroke-linecap="round" stroke-linejoin="round"/>
    <path d="M 384.641357421875 186.1890869140625 C 367.8132019042969 241.14822387695312 349.91766357421875 193.1273193359375 350.7682800292969 203.58168029785156 C 325.062744140625 227.46066284179688 341.4871826171875 215.06536865234375 270.845947265625 218.13357543945312 C 319.5600891113281 96.36640930175781 230.65261840820312 190.39585876464844 380.4513854980469 119.10356903076172 C 419.2134704589844 173.62449645996094 509.96978759765625 226.7543182373047 384.641357421875 186.1890869140625" stroke-width="0.0" fill="rgb(22, 38, 102)" opacity="0.90756994" stroke="rgb(0, 0, 0)" stroke-opacity="1.0" stroke-linecap="round" stroke-linejoin="round"/>
    <path d="M 287.958740234375 276.235107421875 C 259.03143310546875 294.5030517578125 261.2292785644531 283.3321533203125 235.8262176513672 294.5579528808594 C 230.15982055664062 255.24411010742188 205.90615844726562 258.93408203125 117.4302978515625 197.29808044433594 C 247.46568298339844 168.33285522460938 176.68313598632812 239.74227905273438 224.07577514648438 224.72576904296875 C 220.7543487548828 237.3833770751953 246.14572143554688 273.4449462890625 287.958740234375 276.235107421875" stroke-width="0.0" fill="rgb(170, 176, 121)" opacity="0.97870547" stroke="rgb(0, 0, 0)" stroke-opacity="1.0" stroke-linecap="round" stroke-linejoin="round"/>
    <path d="M 485.6336975097656 232.9236297607422 C 278.0657958984375 331.1241455078125 540.1334838867188 250.81666564941406 463.05694580078125 406.49761962890625 C 187.66795349121094 373.5080871582031 234.18490600585938 367.1393127441406 247.17567443847656 372.2022399902344 C 378.6244812011719 249.8494873046875 388.2281188964844 240.03866577148438 430.3035888671875 251.80162048339844 C 423.3172302246094 237.72250366210938 458.13067626953125 185.32785034179688 485.6336975097656 232.9236297607422" stroke-width="0.0" fill="rgb(0, 102, 16)" opacity="0.9490265" stroke="rgb(0, 0, 0)" stroke-opacity="1.0" stroke-linecap="round" stroke-linejoin="round"/>
    <path d="M 163.2895050048828 89.24781036376953 C 252.60377502441406 69.09095764160156 258.39306640625 134.07789611816406 169.780517578125 85.2113037109375 C 90.00472259521484 138.0364990234375 -54.05648422241211 299.3314208984375 86.23719024658203 7.4466447830200195 C 307.7627258300781 46.426025390625 230.7158203125 177.974853515625 144.11839294433594 62.60468292236328 C 341.5129089355469 -32.58681106567383 207.48341369628906 40.56983947753906 163.2895050048828 89.24781036376953" stroke-width="0.0" fill="rgb(36, 184, 63)" opacity="0.60989505" stroke="rgb(0, 0, 0)" stroke-opacity="1.0" stroke-linecap="round" stroke-linejoin="round"/>
    <path d="M 133.0330352783203 409.2174987792969 C 153.04888916015625 417.6134948730469 163.2786407470703 418.66925048828125 169.21060180664062 447.13543701171875 C 126.55280303955078 396.2264709472656 139.9021453857422 412.41876220703125 139.69729614257812 345.2905578613281 C 154.34397888183594 305.1235046386719 125.5691909790039 286.7135009765625 152.21669006347656 294.604248046875 C 122.9805908203125 372.12054443359375 121.7057876586914 380.96875 133.0330352783203 409.2174987792969" stroke-width="0.0" fill="rgb(129, 234, 41)" opacity="0.0" stroke="rgb(0, 0, 0)" stroke-opacity="1.0" stroke-linecap="round" stroke-linejoin="round"/>
    <path d="M 416.9413146972656 55.50774383544922 C 417.3192138671875 72.74964141845703 427.2378234863281 106.19660949707031 395.9600524902344 81.56422424316406 C 363.7374572753906 74.46158599853516 366.39581298828125 48.18215560913086 383.8863830566406 61.873294830322266 C 357.7908935546875 48.937034606933594 369.1742858886719 35.593082427978516 381.12945556640625 46.19454574584961 C 382.8000793457031 53.13379669189453 384.5188903808594 53.98440933227539 416.9413146972656 55.50774383544922" stroke-width="0.0" fill="rgb(98, 217, 159)" opacity="0.0040152376" stroke="rgb(0, 0, 0)" stroke-opacity="1.0" stroke-linecap="round" stroke-linejoin="round"/>
    <path d="M 534.7708740234375 94.83493041992188 C 524.9127197265625 119.19042205810547 500.72491455078125 87.60694885253906 475.70452880859375 51.39834213256836 C 459.7250671386719 37.89336395263672 451.2518615722656 39.12037658691406 437.070068359375 19.901660919189453 C 425.00042724609375 -0.42161625623703003 433.2140808105469 -18.273229598999023 455.9403991699219 -30.260025024414062 C 505.8658447265625 -20.8315372467041 523.230712890625 -21.678184509277344 534.7708740234375 94.83493041992188" stroke-width="0.0" fill="rgb(69, 58, 100)" opacity="0.65314776" stroke="rgb(0, 0, 0)" stroke-opacity="1.0" stroke-linecap="round" stroke-linejoin="round"/>
    <path d="M 351.0516052246094 491.8059997558594 C 296.0287780761719 520.9060668945312 349.7097473144531 482.5886535644531 327.3402099609375 516.7234497070312 C 152.37158203125 546.2726440429688 136.76625061035156 475.1344299316406 165.81161499023438 474.7711181640625 C 204.5050048828125 402.29962158203125 218.85125732421875 362.82550048828125 313.61187744140625 321.5500793457031 C 445.66827392578125 301.339111328125 431.22296142578125 281.14288330078125 351.0516052246094 491.8059997558594" stroke-width="0.0" fill="rgb(75, 237, 33)" opacity="0.99180573" stroke="rgb(0, 0, 0)" stroke-opacity="1.0" stroke-linecap="round" stroke-linejoin="round"/>
    <path d="M 225.6415252685547 273.4530334472656 C 318.5589904785156 299.0700988769531 320.32879638671875 284.99755859375 239.7584686279297 345.15875244140625 C 141.97203063964844 277.9672546386719 39.72636032104492 227.11187744140625 60.01914596557617 229.94041442871094 C 81.65328216552734 204.50450134277344 156.38658142089844 300.16485595703125 233.804931640625 316.3385009765625 C 248.4736328125 256.0197448730469 186.47727966308594 241.99996948242188 225.6415252685547 273.4530334472656" stroke-width="0.0" fill="rgb(144, 154, 113)" opacity="0.09506367" stroke="rgb(0, 0, 0)" stroke-opacity="1.0" stroke-linecap="round" stroke-linejoin="round"/>
    <path d="M 385.883544921875 419.1007080078125 C 385.8898620605469 465.86724853515625 337.3793029785156 453.8966064453125 368.2718505859375 475.64556884765625 C 365.52740478515625 474.2320861816406 372.50848388671875 462.4794006347656 311.1382141113281 539.8069458007812 C 256.94451904296875 367.7557678222656 252.66969299316406 280.9970397949219 370.4282531738281 319.3914489746094 C 398.2194519042969 406.2529296875 393.8843078613281 387.7690124511719 385.883544921875 419.1007080078125" stroke-width="0.0" fill="rgb(0, 60, 65)" opacity="0.59686565" stroke="rgb(0, 0, 0)" stroke-opacity="1.0" stroke-linecap="round" stroke-linejoin="round"/>
    <path d="M 331.9456787109375 137.21932983398438 C 415.5707092285156 93.19913482666016 375.49029541015625 138.42140197753906 308.64630126953125 161.49952697753906 C 243.8583221435547 141.5681915283203 259.2802429199219 203.23776245117188 258.841552734375 85.71473693847656 C 245.19187927246094 12.82395076751709 259.2107849121094 3.001819610595703 303.62408447265625 55.8705940246582 C 349.0599670410156 102.67115783691406 389.7854309082031 101.33142852783203 331.9456787109375 137.21932983398438" stroke-width="0.0" fill="rgb(38, 50, 69)" opacity="0.9687099" stroke="rgb(0, 0, 0)" stroke-opacity="1.0" stroke-linecap="round" stroke-linejoin="round"/>
    <path d="M 423.1748352050781 302.91461181640625 C 296.458251953125 376.85015869140625 306.1864318847656 407.80230712890625 305.20135498046875 394.2036437988281 C 215.32528686523438 450.9572448730469 179.2095184326172 389.140380859375 98.73221588134766 293.2072448730469 C 124.6427993774414 251.3766326904297 147.89492797851562 282.0794677734375 260.83258056640625 346.1512756347656 C 423.6618347167969 251.86346435546875 557.9982299804688 173.88543701171875 423.1748352050781 302.91461181640625" stroke-width="0.0" fill="rgb(1, 247, 26)" opacity="0.9506873" stroke="rgb(0, 0, 0)" stroke-opacity="1.0" stroke-linecap="round" stroke-linejoin="round"/>
    <path d="M 406.2427673339844 202.02886962890625 C 393.2090148925781 207.3070831298828 397.7474670410156 219.15354919433594 374.1999206542969 224.5563201904297 C 385.94317626953125 203.07174682617188 360.7307434082031 235.5405731201172 330.61053466796875 230.6636962890625 C 346.85498046875 196.05783081054688 373.9481506347656 249.2453155517578 357.2340393066406 146.60662841796875 C 407.2763671875 158.2398223876953 415.0792236328125 183.2474822998047 406.2427673339844 202.02886962890625" stroke-width="0.0" fill="rgb(38, 28, 52)" opacity="0.5239069" stroke="rgb(0, 0, 0)" stroke-opacity="1.0" stroke-linecap="round" stroke-linejoin="round"/>
    <path d="M 466.9989013671875 235.59402465820312 C 458.0084228515625 244.99879455566406 485.3860168457031 216.75665283203125 423.256103515625 242.82020568847656 C 330.3853454589844 304.4608459472656 330.7308044433594 284.51385498046875 420.59246826171875 210.8860626220703 C 403.4598693847656 207.70098876953125 384.91015625 249.1686248779297 397.1008605957031 181.06752014160156 C 485.4114074707031 198.81317138671875 456.8394470214844 187.9755096435547 466.9989013671875 235.59402465820312" stroke-width="0.0" fill="rgb(160, 4, 249)" opacity="0.3615626" stroke="rgb(0, 0, 0)" stroke-opacity="1.0" stroke-linecap="round" stroke-linejoin="round"/>
    <path d="M 157.01910400390625 291.384765625 C 127.14260864257812 292.7540283203125 126.18714141845703 322.66217041015625 86.97476959228516 286.5029602050781 C 48.29944610595703 270.1065979003906 102.4617919921875 288.76690673828125 -17.74536895751953 209.78472900390625 C 20.966299057006836 195.5970458984375 25.1220645904541 206.0277099609375 107.85810852050781 253.53065490722656 C 151.17674255371094 276.427734375 186.38760375976562 299.0505065917969 157.01910400390625 291.384765625" stroke-width="0.0" fill="rgb(15, 251, 29)" opacity="0.87760097" stroke="rgb(0, 0, 0)" stroke-opacity="1.0" stroke-linecap="round" stroke-linejoin="round"/>
    <path d="M 55.1285514831543 14.186226844787598 C 30.79494857788086 33.72987747192383 24.45102310180664 34.19487762451172 66.82537841796875 40.07936477661133 C 133.77487182617188 30.29596519470215 171.63754272460938 -5.895047187805176 1.8230892419815063 -27.485042572021484 C -25.939876556396484 166.0124969482422 8.202280044555664 108.53164672851562 27.55559730529785 81.30689239501953 C 64.36719512939453 37.94279861450195 72.37751770019531 10.999682426452637 55.1285514831543 14.186226844787598" stroke-width="0.0" fill="rgb(53, 36, 86)" opacity="0.3929763" stroke="rgb(0, 0, 0)" stroke-opacity="1.0" stroke-linecap="round" stroke-linejoin="round"/>
    <path d="M 335.38702392578125 151.90673828125 C 333.9994201660156 263.80828857421875 349.66680908203125 236.7858123779297 315.32598876953125 223.79241943359375 C 246.85482788085938 259.60919189453125 264.6621398925781 257.82666015625 264.1614685058594 164.22671508789062 C 301.8802490234375 175.286376953125 281.00439453125 198.27410888671875 285.97509765625 127.81786346435547 C 298.6977844238281 166.05081176757812 280.972412109375 157.705322265625 335.38702392578125 151.90673828125" stroke-width="0.0" fill="rgb(31, 39, 82)" opacity="1.0" stroke="rgb(0, 0, 0)" stroke-opacity="1.0" stroke-linecap="round" stroke-linejoin="round"/>
    <path d="M 179.96966552734375 483.0146484375 C 131.79931640625 471.4483337402344 144.0700225830078 485.1895751953125 152.46670532226562 472.8770751953125 C 162.5947265625 496.987548828125 162.22303771972656 487.37347412109375 119.4019546508789 487.7860107421875 C 95.07875061035156 444.2928771972656 77.75225830078125 399.8623352050781 121.83574676513672 395.2137451171875 C 184.95570373535156 444.6678466796875 180.9779510498047 489.6962890625 179.96966552734375 483.0146484375" stroke-width="0.0" fill="rgb(251, 167, 117)" opacity="0.06346311" stroke="rgb(0, 0, 0)" stroke-opacity="1.0" stroke-linecap="round" stroke-linejoin="round"/>
    <path d="M 113.07212829589844 229.54415893554688 C 152.61572265625 241.7630615234375 92.1357650756836 216.5103759765625 94.79212951660156 223.8670196533203 C 94.16812133789062 221.67123413085938 71.78247833251953 216.97911071777344 65.40656280517578 206.2611541748047 C 90.02944946289062 226.6781005859375 99.86749267578125 242.39186096191406 133.84756469726562 205.20164489746094 C 170.32989501953125 220.98817443847656 141.10598754882812 242.38853454589844 113.07212829589844 229.54415893554688" stroke-width="0.0" fill="rgb(100, 197, 126)" opacity="0.0" stroke="rgb(0, 0, 0)" stroke-opacity="1.0" stroke-linecap="round" stroke-linejoin="round"/>
    <path d="M 99.93563079833984 139.402587890625 C 111.86443328857422 152.53994750976562 71.31273651123047 135.12789916992188 74.0330810546875 144.98536682128906 C 59.05025863647461 193.08746337890625 31.205799102783203 199.3519744873047 46.442569732666016 97.18359375 C 38.61208724975586 100.43531036376953 104.85250854492188 109.22842407226562 121.59319305419922 83.79429626464844 C 128.24769592285156 127.20446014404297 125.48040008544922 116.60509490966797 99.93563079833984 139.402587890625" stroke-width="0.0" fill="rgb(22, 255, 30)" opacity="1.0" stroke="rgb(0, 0, 0)" stroke-opacity="1.0" stroke-linecap="round" stroke-linejoin="round"/>
    <path d="M 252.4145965576172 228.6622772216797 C 345.4898681640625 293.10479736328125 328.11944580078125 232.5716094970703 292.278564453125 197.89309692382812 C 249.10963439941406 266.3027648925781 257.2004089355469 255.84280395507812 202.6123504638672 205.13307189941406 C 221.5280303955078 189.87673950195312 238.4573516845703 165.80625915527344 275.0102844238281 200.47311401367188 C 304.38134765625 197.5180206298828 270.31170654296875 141.81248474121094 252.4145965576172 228.6622772216797" stroke-width="0.0" fill="rgb(40, 97, 120)" opacity="0.108783126" stroke="rgb(0, 0, 0)" stroke-opacity="1.0" stroke-linecap="round" stroke-linejoin="round"/>
    <path d="M 223.23594665527344 129.0530242919922 C 196.4532012939453 123.21449279785156 194.28042602539062 117.32953643798828 223.25511169433594 101.64009857177734 C 205.89479064941406 104.46634674072266 177.0982666015625 163.69651794433594 107.06501007080078 217.3619842529297 C 164.5706024169922 117.31593322753906 194.34457397460938 111.37276458740234 188.52169799804688 78.81204986572266 C 237.7285614013672 102.0342788696289 254.04542541503906 111.50773620605469 223.23594665527344 129.0530242919922" stroke-width="0.0" fill="rgb(130, 99, 125)" opacity="0.24289781" stroke="rgb(0, 0, 0)" stroke-opacity="1.0" stroke-linecap="round" stroke-linejoin="round"/>
    <path d="M 33.86423110961914 563.4332885742188 C 42.45839309692383 539.5292358398438 15.03414249420166 530.3245849609375 0.8111952543258667 530.5191040039062 C -9.364206314086914 527.7437133789062 -16.68471336364746 520.4232177734375 -21.20284080505371 510.0506896972656 C -18.48799705505371 494.70721435546875 -31.987857818603516 464.11956787109375 -11.969639778137207 405.2503662109375 C 26.223318099975586 444.1914367675781 8.65638256072998 489.84979248046875 33.86423110961914 563.4332885742188" stroke-width="0.0" fill="rgb(103, 42, 76)" opacity="0.2983496" stroke="rgb(0, 0, 0)" stroke-opacity="1.0" stroke-linecap="round" stroke-linejoin="round"/>
    <path d="M 224.68101501464844 136.14181518554688 C 261.5226135253906 128.6005096435547 173.699951171875 130.7973175048828 124.30323791503906 201.50238037109375 C 95.50129699707031 195.69969177246094 132.0293731689453 215.65719604492188 160.0462188720703 198.3345947265625 C 144.4193878173828 214.98294067382812 138.56552124023438 212.2152557373047 108.77511596679688 211.9512176513672 C 148.53317260742188 171.97792053222656 122.8946304321289 167.35423278808594 224.68101501464844 136.14181518554688" stroke-width="0.0" fill="rgb(105, 190, 109)" opacity="0.19078054" stroke="rgb(0, 0, 0)" stroke-opacity="1.0" stroke-linecap="round" stroke-linejoin="round"/>
    <path d="M 470.5002136230469 237.04519653320312 C 338.1165466308594 304.9219055175781 330.9101257324219 328.6672058105469 350.6435852050781 324.0042419433594 C 299.8298645019531 337.26605224609375 234.2809295654297 368.51513671875 249.93739318847656 326.9216613769531 C 290.5283203125 285.49139404296875 292.4953918457031 273.7942199707031 335.9997253417969 248.8311309814453 C 294.3988037109375 322.2257080078125 405.19195556640625 193.61679077148438 470.5002136230469 237.04519653320312" stroke-width="0.0" fill="rgb(0, 16, 28)" opacity="0.7031366" stroke="rgb(0, 0, 0)" stroke-opacity="1.0" stroke-linecap="round" stroke-linejoin="round"/>
    <path d="M 256.11126708984375 123.4910659790039 C 209.36834716796875 163.75279235839844 206.23721313476562 150.14154052734375 203.76388549804688 126.2458724975586 C 172.6452178955078 123.6236801147461 171.69578552246094 107.62274169921875 161.03268432617188 105.6867904663086 C 173.84909057617188 86.55132293701172 178.24676513671875 64.14328002929688 200.22500610351562 47.658023834228516 C 230.5178680419922 70.2378921508789 234.52203369140625 58.665504455566406 256.11126708984375 123.4910659790039" stroke-width="0.0" fill="rgb(209, 187, 155)" opacity="0.9843674" stroke="rgb(0, 0, 0)" stroke-opacity="1.0" stroke-linecap="round" stroke-linejoin="round"/>
    <path d="M 190.7655487060547 69.71466064453125 C 166.544189453125 81.89503479003906 164.4779510498047 98.08773040771484 174.88827514648438 89.4361801147461 C 158.97410583496094 63.389774322509766 144.58575439453125 139.23692321777344 150.94097900390625 86.6977310180664 C 139.60787963867188 18.69256019592285 151.68560791015625 -34.999454498291016 222.34585571289062 16.508758544921875 C 217.78555297851562 66.11292266845703 208.73391723632812 40.63524627685547 190.7655487060547 69.71466064453125" stroke-width="0.0" fill="rgb(172, 249, 105)" opacity="0.9927707" stroke="rgb(0, 0, 0)" stroke-opacity="1.0" stroke-linecap="round" stroke-linejoin="round"/>
    <path d="M 399.1400451660156 58.509056091308594 C 393.19317626953125 66.48046875 370.9235534667969 64.34603881835938 390.3788146972656 115.31486511230469 C 384.37994384765625 159.7109375 387.1806945800781 129.8985137939453 403.5608215332031 68.48950958251953 C 439.1056823730469 68.65643310546875 436.4477233886719 85.99132537841797 378.4535217285156 63.38154983520508 C 363.88824462890625 93.13935852050781 372.1023864746094 78.23794555664062 399.1400451660156 58.509056091308594" stroke-width="0.0" fill="rgb(157, 234, 62)" opacity="0.004161187" stroke="rgb(0, 0, 0)" stroke-opacity="1.0" stroke-linecap="round" stroke-linejoin="round"/>
    <path d="M 315.405517578125 495.6554260253906 C 332.7734375 519.6197509765625 330.7615966796875 524.9603271484375 313.54864501953125 534.176513671875 C 298.8825378417969 529.9498291015625 303.4456787109375 535.1820678710938 290.49224853515625 469.3908996582031 C 283.2443542480469 453.25054931640625 293.9878234863281 411.47698974609375 281.03314208984375 412.5827941894531 C 299.1877746582031 452.35748291015625 307.4225769042969 469.9705810546875 315.405517578125 495.6554260253906" stroke-width="0.0" fill="rgb(19, 90, 8)" opacity="0.1860469" stroke="rgb(0, 0, 0)" stroke-opacity="1.0" stroke-linecap="round" stroke-linejoin="round"/>
    <path d="M 311.9924621582031 181.5090789794922 C 318.8091735839844 155.5035400390625 311.5901794433594 157.83599853515625 333.0292663574219 224.93443298339844 C 293.0161437988281 166.77593994140625 294.4750671386719 166.93289184570312 276.4279479980469 151.0748748779297 C 248.07679748535156 163.524169921875 260.2718200683594 187.71519470214844 297.3842468261719 194.9444122314453 C 305.8944396972656 161.87164306640625 320.1158142089844 162.76544189453125 311.9924621582031 181.5090789794922" stroke-width="0.0" fill="rgb(62, 44, 38)" opacity="0.40207592" stroke="rgb(0, 0, 0)" stroke-opacity="1.0" stroke-linecap="round" stroke-linejoin="round"/>
    <path d="M 274.761962890625 24.529935836791992 C 275.1288146972656 24.02581024169922 274.32489013671875 33.74324417114258 288.7508850097656 40.487483978271484 C 261.9250793457031 43.28121566772461 275.4482727050781 16.013710021972656 268.5043640136719 -34.84369659423828 C 285.1806945800781 1.4565813541412354 290.2884826660156 -0.3501926362514496 247.9451904296875 13.238619804382324 C 243.4948272705078 22.995386123657227 276.9720458984375 26.654674530029297 274.761962890625 24.529935836791992" stroke-width="0.0" fill="rgb(101, 0, 169)" opacity="0.815644" stroke="rgb(0, 0, 0)" stroke-opacity="1.0" stroke-linecap="round" stroke-linejoin="round"/>
    <path d="M 343.4250793457031 246.6418914794922 C 338.92254638671875 241.83383178710938 331.62359619140625 254.1336212158203 343.8968200683594 277.1334533691406 C 317.71490478515625 277.2903747558594 312.1221008300781 254.10768127441406 309.734375 272.5101623535156 C 335.2535400390625 268.37646484375 348.25970458984375 251.9327392578125 355.3440246582031 232.50430297851562 C 325.56231689453125 250.03863525390625 342.6553955078125 248.7494354248047 343.4250793457031 246.6418914794922" stroke-width="0.0" fill="rgb(72, 55, 44)" opacity="0.025573703" stroke="rgb(0, 0, 0)" stroke-opacity="1.0" stroke-linecap="round" stroke-linejoin="round"/>
    <path d="M 176.94813537597656 91.88233184814453 C 175.29354858398438 96.14240264892578 160.99514770507812 101.62960815429688 163.5635528564453 92.57617950439453 C 181.98541259765625 89.62256622314453 183.5322265625 72.22352600097656 134.9776153564453 43.000633239746094 C 127.44707489013672 98.8202133178711 155.6484832763672 85.66490173339844 158.05474853515625 80.3437271118164 C 182.23500061035156 76.75045776367188 181.86082458496094 78.7324447631836 176.94813537597656 91.88233184814453" stroke-width="0.0" fill="rgb(108, 238, 49)" opacity="0.022646405" stroke="rgb(0, 0, 0)" stroke-opacity="1.0" stroke-linecap="round" stroke-linejoin="round"/>
    <path d="M 533.446044921875 452.0454406738281 C 544.3661499023438 464.4320068359375 537.0787353515625 478.9754638671875 498.27471923828125 472.6885681152344 C 453.5299072265625 474.9351806640625 433.817626953125 468.7626037597656 454.3688659667969 427.86029052734375 C 467.9647216796875 406.39862060546875 484.27276611328125 406.4016418457031 517.6386108398438 439.42266845703125 C 530.565673828125 434.62933349609375 529.984130859375 438.04608154296875 533.446044921875 452.0454406738281" stroke-width="0.0" fill="rgb(143, 134, 127)" opacity="0.6856627" stroke="rgb(0, 0, 0)" stroke-opacity="1.0" stroke-linecap="round" stroke-linejoin="round"/>
    <path d="M 332.9007568359375 489.7319641113281 C 363.254638671875 479.8023986816406 352.7322998046875 492.9544372558594 314.239990234375 503.1284484863281 C 293.8817138671875 531.5665893554688 295.6156921386719 509.39190673828125 299.4715576171875 515.2613525390625 C 343.9702453613281 508.5972900390625 344.61700439453125 515.3597412109375 343.6705322265625 479.9412536621094 C 347.4036865234375 449.2561340332031 322.0342712402344 473.82879638671875 332.9007568359375 489.7319641113281" stroke-width="0.0" fill="rgb(48, 71, 70)" opacity="0.13763931" stroke="rgb(0, 0, 0)" stroke-opacity="1.0" stroke-linecap="round" stroke-linejoin="round"/>
    <path d="M 482.7774658203125 414.1074523925781 C 479.79766845703125 421.7279968261719 452.2158508300781 432.4506530761719 437.0126953125 428.50750732421875 C 406.6031188964844 436.0386657714844 400.4295654296875 437.996826171875 415.752197265625 393.5411376953125 C 428.1783447265625 386.2466125488281 453.2066345214844 395.8168029785156 473.0912780761719 371.6247253417969 C 494.0597229003906 363.9742431640625 479.3125 386.4561767578125 482.7774658203125 414.1074523925781" stroke-width="0.0" fill="rgb(118, 146, 255)" opacity="0.9459826" stroke="rgb(0, 0, 0)" stroke-opacity="1.0" stroke-linecap="round" stroke-linejoin="round"/>
    <path d="M 436.5686950683594 396.15570068359375 C 412.2289123535156 421.2391052246094 417.02960205078125 443.9728088378906 367.818359375 438.2458190917969 C 361.83270263671875 431.92291259765625 379.9763488769531 436.20294189453125 385.1011047363281 387.7298889160156 C 391.84991455078125 388.0224304199219 400.8934326171875 391.98162841796875 416.4454650878906 343.1545104980469 C 431.6789855957031 350.7046203613281 444.3771057128906 363.6201171875 436.5686950683594 396.15570068359375" stroke-width="0.0" fill="rgb(23, 122, 39)" opacity="1.0" stroke="rgb(0, 0, 0)" stroke-opacity="1.0" stroke-linecap="round" stroke-linejoin="round"/>
    <path d="M 258.9529724121094 139.51768493652344 C 234.361572265625 128.55868530273438 235.5195770263672 124.0494155883789 247.27964782714844 131.84214782714844 C 246.59890747070312 163.561279296875 237.79017639160156 146.32733154296875 212.57252502441406 135.65333557128906 C 227.79664611816406 114.036376953125 254.8666229248047 134.32911682128906 275.9627990722656 125.93760681152344 C 274.5084533691406 134.96975708007812 283.09991455078125 155.67543029785156 258.9529724121094 139.51768493652344" stroke-width="0.0" fill="rgb(1, 162, 216)" opacity="0.25225997" stroke="rgb(0, 0, 0)" stroke-opacity="1.0" stroke-linecap="round" stroke-linejoin="round"/>
    <path d="M 132.29299926757812 428.7309265136719 C 126.49552154541016 457.18524169921875 109.41329193115234 453.67999267578125 79.09523010253906 457.6195983886719 C 61.56134033203125 455.48162841796875 53.314361572265625 439.82794189453125 36.95772171020508 413.881103515625 C 47.06108474731445 404.8485412597656 24.13965606689453 388.98345947265625 43.4302978515625 361.1957702636719 C 98.60254669189453 403.293701171875 123.22390747070312 394.2144775390625 132.29299926757812 428.7309265136719" stroke-width="0.0" fill="rgb(220, 195, 136)" opacity="0.046267822" stroke="rgb(0, 0, 0)" stroke-opacity="1.0" stroke-linecap="round" stroke-linejoin="round"/>
    <path d="M 491.5673522949219 86.9886703491211 C 440.9261779785156 107.9922103881836 432.3110656738281 122.0712890625 428.6164855957031 134.8330841064453 C 411.1612548828125 93.96977996826172 394.7503967285156 103.01221466064453 379.3460388183594 74.28057861328125 C 354.51641845703125 8.517684936523438 374.14984130859375 19.49411392211914 416.8327941894531 44.09815216064453 C 480.1277770996094 22.92298698425293 475.7843017578125 34.567779541015625 491.5673522949219 86.9886703491211" stroke-width="0.0" fill="rgb(33, 78, 174)" opacity="0.3546855" stroke="rgb(0, 0, 0)" stroke-opacity="1.0" stroke-linecap="round" stroke-linejoin="round"/>
    <path d="M 218.87037658691406 14.46557903289795 C 230.90274047851562 16.906612396240234 242.8111572265625 15.538331031799316 222.6870574951172 28.031593322753906 C 154.0160675048828 31.247217178344727 165.83238220214844 14.000672340393066 207.14450073242188 5.326977252960205 C 198.94664001464844 22.014562606811523 200.05160522460938 34.32984924316406 196.98667907714844 4.62364387512207 C 193.66845703125 -24.44392967224121 229.12026977539062 -13.0508394241333 218.87037658691406 14.46557903289795" stroke-width="0.0" fill="rgb(240, 218, 255)" opacity="0.85302013" stroke="rgb(0, 0, 0)" stroke-opacity="1.0" stroke-linecap="round" stroke-linejoin="round"/>
    <path d="M 495.1051330566406 189.20274353027344 C 529.1370239257812 198.44552612304688 506.8936462402344 200.16490173339844 500.9258117675781 225.38539123535156 C 461.8592529296875 213.52467346191406 470.64892578125 186.75942993164062 501.54443359375 193.87652587890625 C 504.0668029785156 161.65020751953125 487.5401916503906 165.0865478515625 491.2740478515625 165.8305206298828 C 492.28887939453125 150.81024169921875 481.9712219238281 194.33200073242188 495.1051330566406 189.20274353027344" stroke-width="0.0" fill="rgb(182, 197, 133)" opacity="0.0" stroke="rgb(0, 0, 0)" stroke-opacity="1.0" stroke-linecap="round" stroke-linejoin="round"/>
    <path d="M 403.5362243652344 297.8548889160156 C 407.4244384765625 287.96075439453125 394.3182067871094 303.63232421875 401.1018371582031 324.0957336425781 C 400.4341735839844 370.38385009765625 395.33428955078125 341.7626037597656 370.2323303222656 324.8533935546875 C 374.4918212890625 296.6118469238281 403.1748352050781 286.010009765625 420.8663330078125 300.4185791015625 C 415.61871337890625 291.2680358886719 411.9356689453125 297.01837158203125 403.5362243652344 297.8548889160156" stroke-width="0.0" fill="rgb(4, 222, 69)" opacity="0.0010627402" stroke="rgb(0, 0, 0)" stroke-opacity="1.0" stroke-linecap="round" stroke-linejoin="round"/>
    <path d="M 259.3863830566406 284.39581298828125 C 261.4409484863281 291.443603515625 261.075439453125 304.2850646972656 254.1814727783203 303.2713317871094 C 251.20314025878906 288.5316467285156 228.14517211914062 283.9118347167969 217.0868682861328 277.2925720214844 C 209.51914978027344 274.2623596191406 232.72047424316406 257.9593200683594 242.38812255859375 257.4893493652344 C 251.130859375 264.1480712890625 247.46359252929688 284.19317626953125 259.3863830566406 284.39581298828125" stroke-width="0.0" fill="rgb(209, 100, 255)" opacity="0.84461004" stroke="rgb(0, 0, 0)" stroke-opacity="1.0" stroke-linecap="round" stroke-linejoin="round"/>
    <path d="M 257.1187744140625 266.7192077636719 C 259.71197509765625 271.7416076660156 259.7899475097656 280.1981506347656 264.3008728027344 294.2058410644531 C 273.7824401855469 303.0825500488281 256.1031188964844 293.0586242675781 227.05429077148438 295.7761535644531 C 245.38430786132812 325.3926696777344 249.5009307861328 292.09051513671875 247.30564880371094 268.0791320800781 C 238.3762969970703 274.7433776855469 264.3171691894531 271.10650634765625 257.1187744140625 266.7192077636719" stroke-width="0.0" fill="rgb(66, 248, 185)" opacity="0.11555174" stroke="rgb(0, 0, 0)" stroke-opacity="1.0" stroke-linecap="round" stroke-linejoin="round"/>
    <path d="M 38.87678146362305 114.5218734741211 C 14.574898719787598 90.16270446777344 25.860363006591797 108.30818939208984 39.693119049072266 158.03875732421875 C 44.07310104370117 146.67530822753906 44.139190673828125 124.41725158691406 44.34756851196289 115.13910675048828 C 5.201837062835693 133.9567413330078 19.804014205932617 122.08143615722656 66.39546203613281 123.54507446289062 C 51.52633285522461 156.75450134277344 66.79190826416016 162.7801971435547 38.87678146362305 114.5218734741211" stroke-width="0.0" fill="rgb(240, 188, 232)" opacity="0.0" stroke="rgb(0, 0, 0)" stroke-opacity="1.0" stroke-linecap="round" stroke-linejoin="round"/>
    <path d="M 433.48223876953125 162.34231567382812 C 451.4955139160156 148.8509063720703 431.76446533203125 136.28521728515625 423.3130187988281 126.07672119140625 C 425.03497314453125 165.82421875 406.4251403808594 143.22250366210938 407.36993408203125 139.94113159179688 C 389.3880920410156 129.54539489746094 403.4543151855469 120.46646881103516 433.2015075683594 123.4631118774414 C 426.5065612792969 132.58522033691406 414.0544128417969 148.48968505859375 433.48223876953125 162.34231567382812" stroke-width="0.0" fill="rgb(26, 203, 26)" opacity="0.59009194" stroke="rgb(0, 0, 0)" stroke-opacity="1.0" stroke-linecap="round" stroke-linejoin="round"/>
    <path d="M 97.64723205566406 454.6892395019531 C 87.0231704711914 491.77655029296875 95.11874389648438 495.9056396484375 74.39552307128906 517.8848876953125 C 36.47024917602539 543.9578857421875 48.88941192626953 521.3878173828125 -6.9846296310424805 491.1201477050781 C 18.29343605041504 424.8671875 51.71836471557617 427.227783203125 64.29815673828125 457.5715026855469 C 63.09162902832031 455.1038513183594 101.21900939941406 450.89227294921875 97.64723205566406 454.6892395019531" stroke-width="0.0" fill="rgb(173, 123, 173)" opacity="0.14789005" stroke="rgb(0, 0, 0)" stroke-opacity="1.0" stroke-linecap="round" stroke-linejoin="round"/>
    <path d="M 534.9318237304688 29.067842483520508 C 530.4124145507812 73.25946807861328 520.6975708007812 88.32689666748047 502.4665222167969 70.51869201660156 C 494.1948547363281 44.95785140991211 490.0260925292969 32.89153289794922 480.2749938964844 53.482994079589844 C 476.81884765625 36.26730728149414 500.19482421875 20.50684928894043 517.8517456054688 38.303955078125 C 516.094482421875 25.705238342285156 527.8638305664062 19.027284622192383 534.9318237304688 29.067842483520508" stroke-width="0.0" fill="rgb(196, 138, 168)" opacity="0.08679621" stroke="rgb(0, 0, 0)" stroke-opacity="1.0" stroke-linecap="round" stroke-linejoin="round"/>
    <path d="M 299.6294860839844 299.2035827636719 C 302.9826354980469 332.93511962890625 302.5631103515625 363.7639465332031 267.11004638671875 296.63995361328125 C 268.80865478515625 292.77325439453125 279.8666076660156 313.8813171386719 332.9815979003906 291.1819152832031 C 314.6585693359375 314.8347473144531 295.88043212890625 301.7244567871094 331.2828369140625 316.9584045410156 C 309.565673828125 327.2120056152344 278.773193359375 303.4574890136719 299.6294860839844 299.2035827636719" stroke-width="0.0" fill="rgb(24, 26, 191)" opacity="0.0" stroke="rgb(0, 0, 0)" stroke-opacity="1.0" stroke-linecap="round" stroke-linejoin="round"/>
    <path d="M 333.51922607421875 124.20589447021484 C 310.2121276855469 131.5299835205078 324.6837158203125 122.072265625 327.07281494140625 114.67591094970703 C 316.83935546875 129.69912719726562 325.9551696777344 104.15979766845703 305.6441650390625 73.40888214111328 C 292.3880920410156 66.79084014892578 302.5543518066406 53.444435119628906 284.5717468261719 89.54903411865234 C 325.1020202636719 98.81742858886719 337.8940734863281 102.61029815673828 333.51922607421875 124.20589447021484" stroke-width="0.0" fill="rgb(0, 0, 105)" opacity="0.2820429" stroke="rgb(0, 0, 0)" stroke-opacity="1.0" stroke-linecap="round" stroke-linejoin="round"/>
    <path d="M 134.09178161621094 56.83915328979492 C 140.01431274414062 78.3075942993164 147.17198181152344 129.53158569335938 124.29613494873047 128.9228973388672 C 107.42513275146484 89.68411254882812 102.68103790283203 84.58882141113281 93.63123321533203 69.3296890258789 C 93.30926513671875 28.379968643188477 116.30501556396484 34.825439453125 93.962158203125 57.154293060302734 C 119.9504165649414 82.76714324951172 116.40773010253906 79.86588287353516 134.09178161621094 56.83915328979492" stroke-width="0.0" fill="rgb(79, 226, 70)" opacity="0.043478545" stroke="rgb(0, 0, 0)" stroke-opacity="1.0" stroke-linecap="round" stroke-linejoin="round"/>
    <path d="M 448.3529357910156 477.5334777832031 C 461.76483154296875 518.0916748046875 440.30322265625 528.5673828125 450.6000061035156 518.9232788085938 C 448.7459411621094 502.87744140625 433.4449462890625 495.80535888671875 450.5394287109375 509.46563720703125 C 466.53564453125 457.1210632324219 454.1943054199219 447.31134033203125 403.7398681640625 461.1612854003906 C 442.1055603027344 489.7434387207031 446.7091369628906 496.0456848144531 448.3529357910156 477.5334777832031" stroke-width="0.0" fill="rgb(247, 254, 233)" opacity="0.12855402" stroke="rgb(0, 0, 0)" stroke-opacity="1.0" stroke-linecap="round" stroke-linejoin="round"/>
    <path d="M 183.6019744873047 90.32658386230469 C 224.22994995117188 57.312129974365234 204.8673553466797 71.4031982421875 157.2578887939453 98.23407745361328 C 186.42745971679688 115.8573989868164 174.38404846191406 87.46454620361328 172.08860778808594 84.06790161132812 C 168.75184631347656 70.93347930908203 206.16531372070312 79.3949203491211 162.0028076171875 104.03912353515625 C 169.0594024658203 84.37360382080078 180.80804443359375 72.37366485595703 183.6019744873047 90.32658386230469" stroke-width="0.0" fill="rgb(121, 81, 109)" opacity="0.17941286" stroke="rgb(0, 0, 0)" stroke-opacity="1.0" stroke-linecap="round" stroke-linejoin="round"/>
    <path d="M 288.2850036621094 198.8464813232422 C 263.86566162109375 208.8848114013672 266.6499938964844 233.51211547851562 265.8898010253906 247.8736114501953 C 265.0633239746094 240.1142578125 281.43695068359375 225.87451171875 251.48536682128906 206.33277893066406 C 257.1809387207031 225.763427734375 273.8954772949219 230.52603149414062 277.0523681640625 230.88238525390625 C 265.8133850097656 213.421875 281.4053649902344 229.390869140625 288.2850036621094 198.8464813232422" stroke-width="0.0" fill="rgb(43, 18, 107)" opacity="0.15589556" stroke="rgb(0, 0, 0)" stroke-opacity="1.0" stroke-linecap="round" stroke-linejoin="round"/>
    <path d="M 468.4769592285156 -21.425554275512695 C 454.6688537597656 -16.71500587463379 453.20269775390625 -3.3875324726104736 461.75872802734375 24.7209529876709 C 465.363525390625 18.195432662963867 470.2625732421875 22.482206344604492 454.5451965332031 -9.762299537658691 C 443.02642822265625 -11.118226051330566 452.07421875 -16.323915481567383 464.5194396972656 -17.583200454711914 C 476.8262023925781 -16.114213943481445 486.2515869140625 -11.2457275390625 468.4769592285156 -21.425554275512695" stroke-width="0.0" fill="rgb(135, 117, 102)" opacity="0.0046949447" stroke="rgb(0, 0, 0)" stroke-opacity="1.0" stroke-linecap="round" stroke-linejoin="round"/>
    <path d="M 171.79241943359375 436.1363220214844 C 171.7054901123047 433.2532043457031 157.3385009765625 441.6086730957031 149.04075622558594 447.887939453125 C 135.64158630371094 442.5174560546875 108.79731750488281 424.7347717285156 126.62317657470703 407.189453125 C 156.52133178710938 426.0953674316406 145.44276428222656 420.0371398925781 130.4471435546875 430.5084533691406 C 137.82313537597656 415.3873291015625 164.15663146972656 413.6123046875 171.79241943359375 436.1363220214844" stroke-width="0.0" fill="rgb(75, 226, 73)" opacity="0.04011145" stroke="rgb(0, 0, 0)" stroke-opacity="1.0" stroke-linecap="round" stroke-linejoin="round"/>
  </g>
</svg>
