<?xml version="1.0" ?>
<svg xmlns="http://www.w3.org/2000/svg" version="1.1" width="512" height="512">
  <defs/>
  <g>
    <path d="M 257.68463134765625 341.3228454589844 C 173.61016845703125 525.0670166015625 165.5421600341797 330.5260925292969 128.34310913085938 467.4112854003906 C 72.64637756347656 397.5673828125 -14.2662935256958 254.20013427734375 82.16107177734375 172.0388946533203 C 78.6732177734375 371.6336364746094 65.44800567626953 309.78375244140625 83.81063079833984 373.5341796875 C 106.06303405761719 376.328369140625 79.97776794433594 315.9221496582031 257.68463134765625 341.3228454589844" stroke-width="0.0" fill="rgb(0, 25, 13)" opacity="0.99010444" stroke="rgb(0, 0, 0)" stroke-opacity="1.0" stroke-linecap="round" stroke-linejoin="round"/>
    <path d="M 197.9042205810547 227.14932250976562 C 239.79701232910156 278.6127014160156 142.6808624267578 276.65045166015625 165.85850524902344 313.7779846191406 C 141.90908813476562 306.9756774902344 92.9149398803711 272.06915283203125 115.72425842285156 222.28662109375 C 113.13855743408203 242.80142211914062 50.247310638427734 256.15960693359375 149.78713989257812 219.99942016601562 C 121.1128921508789 315.0704040527344 189.08486938476562 300.8410949707031 197.9042205810547 227.14932250976562" stroke-width="0.0" fill="rgb(0, 27, 15)" opacity="0.94297075" stroke="rgb(0, 0, 0)" stroke-opacity="1.0" stroke-linecap="round" stroke-linejoin="round"/>
    <path d="M 417.66265869140625 239.3569793701172 C 413.7528076171875 386.3563537597656 222.6522979736328 295.55108642578125 389.5291748046875 242.0773162841797 C 442.95806884765625 222.32803344726562 342.5625 170.1341094970703 322.08251953125 376.35430908203125 C 268.1921081542969 229.88375854492188 358.9824523925781 226.3485107421875 395.3259582519531 216.47129821777344 C 456.2754821777344 242.10235595703125 430.0228576660156 238.2713623046875 417.66265869140625 239.3569793701172" stroke-width="0.0" fill="rgb(20, 17, 74)" opacity="0.8740678" stroke="rgb(0, 0, 0)" stroke-opacity="1.0" stroke-linecap="round" stroke-linejoin="round"/>
    <path d="M 190.35472106933594 239.1640167236328 C 165.0060577392578 270.4704895019531 219.4236602783203 224.3690643310547 115.7827377319336 243.5006103515625 C 50.006935119628906 241.22518920898438 147.341064453125 221.92694091796875 146.77099609375 225.89871215820312 C 168.6710205078125 183.78964233398438 171.3654022216797 195.10179138183594 194.63218688964844 163.70741271972656 C 183.00140380859375 92.62537384033203 166.74510192871094 101.68634033203125 190.35472106933594 239.1640167236328" stroke-width="0.0" fill="rgb(85, 51, 25)" opacity="0.7310383" stroke="rgb(0, 0, 0)" stroke-opacity="1.0" stroke-linecap="round" stroke-linejoin="round"/>
    <path d="M 560.1089477539062 332.6983642578125 C 557.2509765625 416.53570556640625 410.87078857421875 386.32196044921875 450.2369079589844 482.1229248046875 C 296.1382751464844 332.1683654785156 371.40185546875 432.3440246582031 311.7196960449219 260.95904541015625 C 450.0379333496094 355.55712890625 321.6087951660156 318.1298522949219 394.9468994140625 334.4857177734375 C 460.548828125 357.2426452636719 397.5740661621094 374.18487548828125 560.1089477539062 332.6983642578125" stroke-width="0.0" fill="rgb(33, 29, 106)" opacity="0.7468205" stroke="rgb(0, 0, 0)" stroke-opacity="1.0" stroke-linecap="round" stroke-linejoin="round"/>
    <path d="M 421.270751953125 181.87290954589844 C 462.65557861328125 292.5666198730469 490.9085693359375 325.79931640625 458.7022705078125 419.21954345703125 C 463.71844482421875 271.6902770996094 467.5903015136719 328.8181457519531 399.2772521972656 179.93426513671875 C 464.47332763671875 107.5949935913086 498.6968688964844 11.741656303405762 481.0010986328125 77.3469009399414 C 444.57666015625 173.37319946289062 458.5252990722656 118.48113250732422 421.270751953125 181.87290954589844" stroke-width="0.0" fill="rgb(6, 6, 34)" opacity="0.9697786" stroke="rgb(0, 0, 0)" stroke-opacity="1.0" stroke-linecap="round" stroke-linejoin="round"/>
    <path d="M 367.31072998046875 299.4574890136719 C 313.57330322265625 338.7939758300781 350.1282043457031 375.439208984375 343.08355712890625 349.0191650390625 C 265.7745666503906 362.5304870605469 367.4855041503906 337.79840087890625 315.583740234375 334.8994445800781 C 317.628173828125 308.77496337890625 312.6716613769531 264.0287170410156 314.4943542480469 268.110595703125 C 312.23748779296875 257.34405517578125 330.1576843261719 274.9474182128906 367.31072998046875 299.4574890136719" stroke-width="0.0" fill="rgb(241, 232, 244)" opacity="0.9365611" stroke="rgb(0, 0, 0)" stroke-opacity="1.0" stroke-linecap="round" stroke-linejoin="round"/>
    <path d="M 366.0245056152344 260.14520263671875 C 422.1650085449219 231.80943298339844 396.64019775390625 240.18797302246094 370.27447509765625 200.4618377685547 C 358.61328125 208.7571563720703 369.6316223144531 226.57801818847656 292.2198486328125 225.4432373046875 C 285.4313659667969 234.0391082763672 293.90179443359375 181.95486450195312 348.97698974609375 207.2388916015625 C 332.2042541503906 265.70166015625 321.7566833496094 258.92987060546875 366.0245056152344 260.14520263671875" stroke-width="0.0" fill="rgb(20, 30, 61)" opacity="0.9378774" stroke="rgb(0, 0, 0)" stroke-opacity="1.0" stroke-linecap="round" stroke-linejoin="round"/>
    <path d="M 69.32514190673828 83.3301010131836 C 95.59703826904297 225.88246154785156 70.58512115478516 114.8854751586914 206.29954528808594 106.52906799316406 C 42.69724655151367 193.98324584960938 101.76546478271484 341.90948486328125 44.61693572998047 76.25887298583984 C 34.835140228271484 -57.0940055847168 65.22440338134766 -64.8140640258789 190.41368103027344 98.1010971069336 C 55.1490364074707 1.880075216293335 49.14503479003906 -44.24781036376953 69.32514190673828 83.3301010131836" stroke-width="0.0" fill="rgb(3, 10, 7)" opacity="0.9847737" stroke="rgb(0, 0, 0)" stroke-opacity="1.0" stroke-linecap="round" stroke-linejoin="round"/>
    <path d="M 212.4217987060547 322.14520263671875 C 201.42478942871094 322.2064514160156 287.28521728515625 287.5528259277344 254.991943359375 322.99609375 C 55.72963333129883 366.6068115234375 175.99862670898438 316.1031494140625 166.2710418701172 245.0454559326172 C 153.23464965820312 164.31661987304688 227.46995544433594 191.20599365234375 228.3557586669922 227.20361328125 C 220.82627868652344 289.9150695800781 197.7681121826172 302.8572082519531 212.4217987060547 322.14520263671875" stroke-width="0.0" fill="rgb(3, 23, 22)" opacity="0.9389137" stroke="rgb(0, 0, 0)" stroke-opacity="1.0" stroke-linecap="round" stroke-linejoin="round"/>
    <path d="M 423.2583312988281 302.176025390625 C 383.5036926269531 230.75360107421875 380.86297607421875 176.36793518066406 375.8321838378906 262.1357727050781 C 392.6357727050781 299.3690490722656 336.8561096191406 325.46124267578125 298.0574035644531 244.7174072265625 C 304.414306640625 195.53819274902344 319.1444396972656 228.704345703125 376.1913757324219 180.9329071044922 C 421.7150573730469 227.87554931640625 423.4438171386719 316.8597412109375 423.2583312988281 302.176025390625" stroke-width="0.0" fill="rgb(248, 252, 255)" opacity="0.9830099" stroke="rgb(0, 0, 0)" stroke-opacity="1.0" stroke-linecap="round" stroke-linejoin="round"/>
    <path d="M 482.81121826171875 -15.837488174438477 C 283.05181884765625 47.08658218383789 316.2351989746094 61.75931930541992 221.4438934326172 87.19052124023438 C 129.6067352294922 92.540283203125 189.81002807617188 60.088748931884766 -0.7515891194343567 -25.451030731201172 C 220.45668029785156 35.05339050292969 110.946533203125 101.83973693847656 285.5888366699219 87.59457397460938 C 347.980224609375 65.72949981689453 376.35345458984375 -1.038895845413208 482.81121826171875 -15.837488174438477" stroke-width="0.0" fill="rgb(7, 7, 42)" opacity="0.9428033" stroke="rgb(0, 0, 0)" stroke-opacity="1.0" stroke-linecap="round" stroke-linejoin="round"/>
    <path d="M 343.58111572265625 378.1968078613281 C 95.65336608886719 455.243408203125 227.01919555664062 320.7664489746094 127.22737121582031 395.9114990234375 C 133.72467041015625 410.51043701171875 174.96739196777344 357.58154296875 170.8184356689453 379.17822265625 C 154.2870635986328 345.3050842285156 161.02853393554688 299.8241882324219 196.43283081054688 312.3174743652344 C 294.6678466796875 327.7655944824219 369.5904846191406 297.4278259277344 343.58111572265625 378.1968078613281" stroke-width="0.0" fill="rgb(248, 249, 255)" opacity="0.9681487" stroke="rgb(0, 0, 0)" stroke-opacity="1.0" stroke-linecap="round" stroke-linejoin="round"/>
    <path d="M 457.7803649902344 67.36744689941406 C 483.68011474609375 65.90595245361328 474.9604187011719 73.86174011230469 481.57318115234375 70.40377807617188 C 458.14111328125 76.98124694824219 453.61749267578125 61.258358001708984 456.2999267578125 82.72718811035156 C 468.3454895019531 15.976404190063477 443.5247802734375 -22.357683181762695 456.5551452636719 -43.679954528808594 C 462.8415222167969 21.02700424194336 469.9104919433594 53.20964050292969 457.7803649902344 67.36744689941406" stroke-width="0.0" fill="rgb(123, 95, 50)" opacity="0.32255268" stroke="rgb(0, 0, 0)" stroke-opacity="1.0" stroke-linecap="round" stroke-linejoin="round"/>
    <path d="M 444.3744812011719 81.7359390258789 C 304.9042663574219 128.0890350341797 416.4077453613281 123.06861877441406 409.0862731933594 161.0642547607422 C 265.6875305175781 87.39149475097656 302.521728515625 162.34573364257812 370.1321716308594 53.00780487060547 C 360.7816467285156 87.99654388427734 390.4625549316406 13.55227279663086 324.3355407714844 116.32344055175781 C 362.04803466796875 119.37958526611328 460.460205078125 17.752676010131836 444.3744812011719 81.7359390258789" stroke-width="0.0" fill="rgb(23, 19, 70)" opacity="0.9087114" stroke="rgb(0, 0, 0)" stroke-opacity="1.0" stroke-linecap="round" stroke-linejoin="round"/>
    <path d="M 452.1034240722656 410.38031005859375 C 446.9184265136719 367.5357666015625 502.8375244140625 516.8621215820312 394.4952392578125 536.4004516601562 C 375.9645690917969 364.93231201171875 449.4678039550781 454.473876953125 396.1883544921875 391.121826171875 C 537.9617919921875 470.27947998046875 341.7774353027344 372.63360595703125 421.08465576171875 361.13623046875 C 464.2829284667969 391.5181884765625 463.6237487792969 409.3321533203125 452.1034240722656 410.38031005859375" stroke-width="0.0" fill="rgb(197, 151, 130)" opacity="0.5047265" stroke="rgb(0, 0, 0)" stroke-opacity="1.0" stroke-linecap="round" stroke-linejoin="round"/>
    <path d="M 485.1506042480469 33.07328796386719 C 439.9201354980469 10.218730926513672 474.4349060058594 44.967838287353516 438.45672607421875 164.10987854003906 C 416.2451171875 125.77743530273438 448.5909729003906 206.7259063720703 436.8187561035156 56.42247772216797 C 438.7322692871094 77.5445556640625 434.868408203125 66.57780456542969 464.61859130859375 62.84444808959961 C 464.01239013671875 31.728649139404297 457.6022033691406 22.66639518737793 485.1506042480469 33.07328796386719" stroke-width="0.0" fill="rgb(12, 13, 50)" opacity="1.0" stroke="rgb(0, 0, 0)" stroke-opacity="1.0" stroke-linecap="round" stroke-linejoin="round"/>
    <path d="M 388.8356628417969 401.44732666015625 C 459.1875915527344 429.9253234863281 394.89129638671875 458.53167724609375 303.0954895019531 471.78497314453125 C 232.3820343017578 475.54248046875 129.61019897460938 418.5548095703125 162.62171936035156 409.6454772949219 C 236.44680786132812 454.3588562011719 250.70603942871094 442.4277038574219 243.01429748535156 449.5918273925781 C 240.21401977539062 440.32806396484375 317.9200744628906 443.1934814453125 388.8356628417969 401.44732666015625" stroke-width="0.0" fill="rgb(62, 10, 0)" opacity="0.6533231" stroke="rgb(0, 0, 0)" stroke-opacity="1.0" stroke-linecap="round" stroke-linejoin="round"/>
    <path d="M 175.10939025878906 316.0325622558594 C 269.5605163574219 277.986572265625 335.9060974121094 295.4486389160156 264.37738037109375 336.1695251464844 C 184.89234924316406 322.20172119140625 202.0567626953125 338.053955078125 193.15676879882812 251.38720703125 C 190.98849487304688 229.7366485595703 188.21669006347656 258.0892028808594 151.3499298095703 286.8793640136719 C 131.6913299560547 344.3987731933594 139.25509643554688 293.33221435546875 175.10939025878906 316.0325622558594" stroke-width="0.0" fill="rgb(246, 242, 242)" opacity="0.94881725" stroke="rgb(0, 0, 0)" stroke-opacity="1.0" stroke-linecap="round" stroke-linejoin="round"/>
    <path d="M 545.1806030273438 403.9387512207031 C 481.6466369628906 552.345947265625 395.33697509765625 492.4762878417969 403.8763427734375 425.7622375488281 C 444.4989318847656 394.1307373046875 460.75537109375 376.0783386230469 463.8491516113281 394.68548583984375 C 515.21240234375 386.52984619140625 449.33251953125 356.7912292480469 474.9562683105469 377.8961181640625 C 551.1171264648438 416.9664001464844 496.4661560058594 393.7825927734375 545.1806030273438 403.9387512207031" stroke-width="0.0" fill="rgb(235, 196, 181)" opacity="0.7959497" stroke="rgb(0, 0, 0)" stroke-opacity="1.0" stroke-linecap="round" stroke-linejoin="round"/>
    <path d="M 275.9703063964844 403.1003723144531 C 296.311767578125 334.1096496582031 237.12139892578125 363.3722229003906 279.79052734375 398.7037658691406 C 293.17218017578125 417.6016845703125 257.30426025390625 384.7840576171875 233.61203002929688 405.239013671875 C 188.17947387695312 413.54840087890625 221.51467895507812 399.4639587402344 286.9691467285156 304.15606689453125 C 250.40977478027344 430.1202697753906 327.37091064453125 417.3719482421875 275.9703063964844 403.1003723144531" stroke-width="0.0" fill="rgb(1, 9, 39)" opacity="0.9799485" stroke="rgb(0, 0, 0)" stroke-opacity="1.0" stroke-linecap="round" stroke-linejoin="round"/>
    <path d="M 85.6336669921875 23.00946807861328 C 47.807861328125 52.16199493408203 33.884300231933594 151.9958953857422 88.2808609008789 174.036376953125 C 67.6386947631836 290.267333984375 34.35338592529297 32.56367111206055 43.0221061706543 35.989376068115234 C 26.713794708251953 -41.035213470458984 17.28870964050293 -51.1527214050293 111.76628875732422 17.593189239501953 C 139.2699432373047 112.80584716796875 62.227882385253906 20.230545043945312 85.6336669921875 23.00946807861328" stroke-width="0.0" fill="rgb(242, 241, 237)" opacity="0.9625641" stroke="rgb(0, 0, 0)" stroke-opacity="1.0" stroke-linecap="round" stroke-linejoin="round"/>
    <path d="M 212.80093383789062 46.270164489746094 C 181.48464965820312 50.74862289428711 169.79237365722656 48.108909606933594 169.03790283203125 80.22694396972656 C 123.7164077758789 64.73894500732422 120.41500091552734 47.896141052246094 78.83319854736328 -2.9827239513397217 C 106.04847717285156 -25.97222137451172 103.52243041992188 -26.682144165039062 137.5710906982422 -17.259159088134766 C 186.22705078125 -0.9041438102722168 207.23681640625 -0.4870428442955017 212.80093383789062 46.270164489746094" stroke-width="0.0" fill="rgb(236, 214, 188)" opacity="0.9515528" stroke="rgb(0, 0, 0)" stroke-opacity="1.0" stroke-linecap="round" stroke-linejoin="round"/>
    <path d="M 169.71229553222656 291.47137451171875 C 121.9766616821289 354.61651611328125 123.95246887207031 361.397216796875 99.02633666992188 399.9871520996094 C 66.59446716308594 346.39678955078125 77.72529602050781 346.235107421875 35.434234619140625 345.7550048828125 C 29.08422088623047 259.54400634765625 39.396339416503906 296.5593566894531 73.87898254394531 258.1122741699219 C 115.38833618164062 275.2057800292969 129.86376953125 280.1765441894531 169.71229553222656 291.47137451171875" stroke-width="0.0" fill="rgb(105, 53, 24)" opacity="1.0" stroke="rgb(0, 0, 0)" stroke-opacity="1.0" stroke-linecap="round" stroke-linejoin="round"/>
    <path d="M 103.47251892089844 270.97259521484375 C 113.02633666992188 240.5507049560547 108.81673431396484 242.6060791015625 89.9613037109375 234.43637084960938 C 44.530303955078125 218.49546813964844 69.38858032226562 281.2681579589844 22.831384658813477 296.8008117675781 C 11.65557861328125 154.82855224609375 51.41960144042969 108.69718170166016 69.85205841064453 230.1082763671875 C 98.3729019165039 245.27810668945312 91.47039031982422 229.31503295898438 103.47251892089844 270.97259521484375" stroke-width="0.0" fill="rgb(246, 242, 255)" opacity="0.9766884" stroke="rgb(0, 0, 0)" stroke-opacity="1.0" stroke-linecap="round" stroke-linejoin="round"/>
    <path d="M 262.13323974609375 96.2442855834961 C 247.177734375 163.12547302246094 274.837890625 194.60687255859375 222.24813842773438 228.0122528076172 C 195.8346405029297 164.62164306640625 166.9749755859375 161.9723358154297 176.55355834960938 129.55201721191406 C 186.99688720703125 57.84439468383789 184.56161499023438 84.48756408691406 196.488525390625 111.61824798583984 C 242.1707305908203 127.2303237915039 271.4580078125 106.88057708740234 262.13323974609375 96.2442855834961" stroke-width="0.0" fill="rgb(249, 172, 64)" opacity="0.41395423" stroke="rgb(0, 0, 0)" stroke-opacity="1.0" stroke-linecap="round" stroke-linejoin="round"/>
    <path d="M 290.6604309082031 360.2012634277344 C 286.80889892578125 355.69769287109375 311.16778564453125 374.27691650390625 307.0931396484375 357.32635498046875 C 282.0702819824219 343.9532775878906 285.0389099121094 353.6002197265625 274.3255920410156 351.4822692871094 C 270.33795166015625 353.0293884277344 277.9395751953125 308.30413818359375 310.239990234375 323.3663635253906 C 316.4549865722656 325.6003723144531 291.166259765625 347.8644104003906 290.6604309082031 360.2012634277344" stroke-width="0.0" fill="rgb(0, 50, 166)" opacity="0.9931658" stroke="rgb(0, 0, 0)" stroke-opacity="1.0" stroke-linecap="round" stroke-linejoin="round"/>
    <path d="M 42.053192138671875 453.6649475097656 C 1.618116021156311 424.0013732910156 130.34107971191406 388.9959411621094 46.97673797607422 364.4385681152344 C 3.3246233463287354 427.6865539550781 -11.831469535827637 371.18060302734375 76.54812622070312 343.53118896484375 C -16.110204696655273 367.8443603515625 19.390823364257812 374.74017333984375 61.05987548828125 360.79949951171875 C 63.13751983642578 372.03900146484375 91.29600524902344 383.0037841796875 42.053192138671875 453.6649475097656" stroke-width="0.0" fill="rgb(37, 71, 9)" opacity="0.13477644" stroke="rgb(0, 0, 0)" stroke-opacity="1.0" stroke-linecap="round" stroke-linejoin="round"/>
    <path d="M 324.15380859375 451.4012145996094 C 312.8221130371094 407.0724182128906 310.2215270996094 416.8607177734375 306.6588439941406 412.28314208984375 C 307.2523193359375 414.2313537597656 305.3277587890625 403.66851806640625 323.6595764160156 407.2017822265625 C 318.4242248535156 431.85784912109375 246.91416931152344 393.4132385253906 309.3955078125 408.460693359375 C 378.0537109375 379.9939880371094 360.1970520019531 389.355224609375 324.15380859375 451.4012145996094" stroke-width="0.0" fill="rgb(26, 22, 70)" opacity="0.89485323" stroke="rgb(0, 0, 0)" stroke-opacity="1.0" stroke-linecap="round" stroke-linejoin="round"/>
    <path d="M 430.6688537597656 103.01383209228516 C 429.9707336425781 99.33304595947266 447.8353271484375 85.19159698486328 399.6808776855469 132.9539031982422 C 404.4534606933594 149.87030029296875 395.73052978515625 113.28385925292969 348.2161560058594 128.17591857910156 C 386.6673583984375 101.8429183959961 400.0611267089844 91.25962829589844 374.73980712890625 98.14437866210938 C 354.3580627441406 121.33164978027344 423.3217468261719 93.27326965332031 430.6688537597656 103.01383209228516" stroke-width="0.0" fill="rgb(28, 69, 157)" opacity="0.99801356" stroke="rgb(0, 0, 0)" stroke-opacity="1.0" stroke-linecap="round" stroke-linejoin="round"/>
    <path d="M 233.08187866210938 120.32701873779297 C 195.9781036376953 112.00790405273438 187.4095916748047 121.32398986816406 187.6392059326172 126.15630340576172 C 179.21507263183594 113.33528137207031 174.83831787109375 92.8466796875 123.90877532958984 58.952091217041016 C 97.69454193115234 -8.86450481414795 154.66429138183594 18.83935546875 203.1724090576172 40.897178649902344 C 223.81248474121094 46.78017044067383 246.41839599609375 57.42858123779297 233.08187866210938 120.32701873779297" stroke-width="0.0" fill="rgb(131, 73, 49)" opacity="0.97581065" stroke="rgb(0, 0, 0)" stroke-opacity="1.0" stroke-linecap="round" stroke-linejoin="round"/>
    <path d="M 531.8523559570312 440.48583984375 C 531.2156982421875 467.00396728515625 531.2875366210938 471.57672119140625 528.648193359375 458.2475891113281 C 517.8549194335938 453.5450439453125 510.86602783203125 439.5617980957031 498.7830810546875 430.8715515136719 C 499.060791015625 446.4664611816406 507.9419860839844 438.1293640136719 536.31494140625 429.9884948730469 C 524.2904663085938 425.6336975097656 529.3707275390625 430.8746337890625 531.8523559570312 440.48583984375" stroke-width="0.0" fill="rgb(215, 224, 168)" opacity="0.020441612" stroke="rgb(0, 0, 0)" stroke-opacity="1.0" stroke-linecap="round" stroke-linejoin="round"/>
    <path d="M 349.978271484375 196.36715698242188 C 371.7674255371094 213.73638916015625 340.0847473144531 241.1220703125 318.5440368652344 226.45184326171875 C 349.08740234375 220.85794067382812 343.48333740234375 233.41632080078125 296.47332763671875 227.52992248535156 C 318.5354309082031 286.31060791015625 307.62359619140625 295.2221374511719 285.5093688964844 217.81626892089844 C 316.6937561035156 219.01515197753906 313.5308532714844 254.7019500732422 349.978271484375 196.36715698242188" stroke-width="0.0" fill="rgb(14, 45, 121)" opacity="0.96354973" stroke="rgb(0, 0, 0)" stroke-opacity="1.0" stroke-linecap="round" stroke-linejoin="round"/>
    <path d="M 484.75274658203125 403.41949462890625 C 470.3583068847656 417.72039794921875 450.3695983886719 430.6864013671875 428.91912841796875 470.4674987792969 C 422.0299377441406 442.5233459472656 445.564453125 428.4402160644531 428.8749694824219 399.71490478515625 C 411.33477783203125 350.58880615234375 424.04339599609375 329.24609375 433.14202880859375 357.6230163574219 C 466.3268127441406 390.97491455078125 494.8471984863281 389.7478332519531 484.75274658203125 403.41949462890625" stroke-width="0.0" fill="rgb(231, 237, 206)" opacity="0.61217755" stroke="rgb(0, 0, 0)" stroke-opacity="1.0" stroke-linecap="round" stroke-linejoin="round"/>
    <path d="M 186.4750213623047 448.7087097167969 C 176.56324768066406 454.8450622558594 184.44525146484375 420.92449951171875 181.83663940429688 438.92889404296875 C 155.718994140625 430.3529052734375 148.7346954345703 424.9440612792969 146.32528686523438 419.6853942871094 C 157.2386474609375 408.3390808105469 170.79501342773438 398.4618835449219 174.59727478027344 400.48931884765625 C 164.53086853027344 407.0525207519531 182.20790100097656 406.7017822265625 186.4750213623047 448.7087097167969" stroke-width="0.0" fill="rgb(244, 214, 142)" opacity="0.80097336" stroke="rgb(0, 0, 0)" stroke-opacity="1.0" stroke-linecap="round" stroke-linejoin="round"/>
    <path d="M 414.4421691894531 389.4933166503906 C 404.03729248046875 397.7131652832031 414.5147705078125 414.32696533203125 420.5942687988281 439.18304443359375 C 393.9994812011719 410.5788269042969 395.81549072265625 382.1968078613281 387.22235107421875 361.6826171875 C 364.4983825683594 332.95159912109375 358.0585021972656 293.6903991699219 408.07843017578125 313.6485595703125 C 405.96527099609375 363.2918701171875 409.7086181640625 356.3629455566406 414.4421691894531 389.4933166503906" stroke-width="0.0" fill="rgb(145, 149, 201)" opacity="0.58513623" stroke="rgb(0, 0, 0)" stroke-opacity="1.0" stroke-linecap="round" stroke-linejoin="round"/>
    <path d="M 137.01531982421875 101.02482604980469 C 184.5680694580078 120.67387390136719 161.07037353515625 119.92312622070312 104.47142791748047 124.86880493164062 C 113.19506072998047 117.90660858154297 110.94815063476562 75.42961120605469 66.56954193115234 81.1095199584961 C 60.706390380859375 69.53961944580078 79.32444763183594 68.28910827636719 99.03380584716797 71.0546646118164 C 124.55305480957031 60.48527908325195 124.27774047851562 76.28937530517578 137.01531982421875 101.02482604980469" stroke-width="0.0" fill="rgb(7, 17, 31)" opacity="0.97097963" stroke="rgb(0, 0, 0)" stroke-opacity="1.0" stroke-linecap="round" stroke-linejoin="round"/>
    <path d="M 356.024658203125 400.89434814453125 C 363.7962341308594 401.5285949707031 365.0744323730469 422.03973388671875 337.5691833496094 418.29241943359375 C 311.97991943359375 392.48919677734375 333.7176513671875 368.4671630859375 340.3432922363281 361.4519958496094 C 304.61663818359375 347.45367431640625 294.5820617675781 341.69976806640625 321.8538513183594 364.8504333496094 C 348.2231750488281 368.990966796875 369.284423828125 361.39385986328125 356.024658203125 400.89434814453125" stroke-width="0.0" fill="rgb(25, 12, 41)" opacity="0.62552345" stroke="rgb(0, 0, 0)" stroke-opacity="1.0" stroke-linecap="round" stroke-linejoin="round"/>
    <path d="M 134.6291046142578 369.43634033203125 C 115.3071060180664 344.64019775390625 109.4378662109375 371.6864929199219 122.7061538696289 396.4360046386719 C 98.690673828125 359.5452880859375 101.16754150390625 335.3123474121094 87.27786254882812 335.2336120605469 C 69.45635986328125 338.7591247558594 72.37403106689453 350.0082702636719 105.03955078125 358.9671936035156 C 103.76935577392578 355.37677001953125 124.37989807128906 381.20574951171875 134.6291046142578 369.43634033203125" stroke-width="0.0" fill="rgb(128, 89, 46)" opacity="0.89546716" stroke="rgb(0, 0, 0)" stroke-opacity="1.0" stroke-linecap="round" stroke-linejoin="round"/>
    <path d="M 272.534423828125 48.454254150390625 C 263.4451599121094 157.96237182617188 275.642578125 195.8549041748047 234.71229553222656 219.86036682128906 C 219.40341186523438 157.35845947265625 237.62603759765625 133.5303497314453 240.06216430664062 122.03227233886719 C 229.382080078125 100.11375427246094 219.29763793945312 80.25987243652344 224.7213592529297 43.3840446472168 C 251.16856384277344 12.930572509765625 298.91259765625 3.471595287322998 272.534423828125 48.454254150390625" stroke-width="0.0" fill="rgb(66, 34, 33)" opacity="0.96666205" stroke="rgb(0, 0, 0)" stroke-opacity="1.0" stroke-linecap="round" stroke-linejoin="round"/>
    <path d="M 441.9158020019531 55.103187561035156 C 438.8645324707031 74.11573028564453 450.92620849609375 69.91566467285156 455.6408386230469 74.49533081054688 C 443.6688232421875 69.28108215332031 436.04425048828125 67.37732696533203 443.00872802734375 67.41311645507812 C 429.3604736328125 79.77752685546875 443.885009765625 78.12820434570312 443.9027099609375 54.37315368652344 C 433.70343017578125 63.585567474365234 440.38726806640625 75.64115142822266 441.9158020019531 55.103187561035156" stroke-width="0.0" fill="rgb(125, 126, 202)" opacity="0.53961337" stroke="rgb(0, 0, 0)" stroke-opacity="1.0" stroke-linecap="round" stroke-linejoin="round"/>
    <path d="M 111.37703704833984 106.09088134765625 C 99.62046813964844 122.3434829711914 89.27894592285156 148.61338806152344 100.9469985961914 156.88145446777344 C 96.27774810791016 93.53666687011719 103.64057159423828 78.77588653564453 101.26341247558594 96.34584045410156 C 78.4326400756836 86.00563049316406 61.78229904174805 85.65612030029297 76.97076416015625 79.64994812011719 C 138.0801544189453 112.40701293945312 158.75238037109375 114.45439147949219 111.37703704833984 106.09088134765625" stroke-width="0.0" fill="rgb(148, 97, 50)" opacity="0.8613999" stroke="rgb(0, 0, 0)" stroke-opacity="1.0" stroke-linecap="round" stroke-linejoin="round"/>
    <path d="M 543.9728393554688 470.6438903808594 C 520.4595336914062 517.4486083984375 511.7738037109375 524.1069946289062 484.19110107421875 551.5941772460938 C 459.1117858886719 544.4268188476562 450.3265380859375 539.938232421875 465.56597900390625 511.5472412109375 C 452.7730712890625 489.1960144042969 478.0002136230469 476.2221374511719 496.8534240722656 448.7734375 C 551.7939453125 448.3758850097656 557.2673950195312 450.03375244140625 543.9728393554688 470.6438903808594" stroke-width="0.0" fill="rgb(226, 147, 15)" opacity="0.5286017" stroke="rgb(0, 0, 0)" stroke-opacity="1.0" stroke-linecap="round" stroke-linejoin="round"/>
    <path d="M 252.8227081298828 300.1273498535156 C 248.92633056640625 260.88690185546875 250.4546661376953 298.6923522949219 252.3538818359375 371.0251770019531 C 210.4524688720703 338.95050048828125 189.9162139892578 344.394775390625 204.15504455566406 316.7795715332031 C 252.51145935058594 334.3641662597656 259.6116943359375 335.0140686035156 247.9489288330078 336.7603759765625 C 253.8419647216797 287.6581726074219 261.252685546875 294.90167236328125 252.8227081298828 300.1273498535156" stroke-width="0.0" fill="rgb(2, 5, 23)" opacity="0.9853711" stroke="rgb(0, 0, 0)" stroke-opacity="1.0" stroke-linecap="round" stroke-linejoin="round"/>
    <path d="M 430.239013671875 168.0770721435547 C 430.47088623046875 165.7469482421875 430.16851806640625 169.50323486328125 412.9269714355469 193.8453369140625 C 381.5263671875 175.38790893554688 361.90570068359375 132.86160278320312 353.0580139160156 134.9283905029297 C 429.6353759765625 164.19570922851562 413.3310852050781 168.58863830566406 399.5588684082031 149.93663024902344 C 399.8875732421875 179.0965576171875 404.3681945800781 173.30667114257812 430.239013671875 168.0770721435547" stroke-width="0.0" fill="rgb(28, 7, 35)" opacity="0.9932854" stroke="rgb(0, 0, 0)" stroke-opacity="1.0" stroke-linecap="round" stroke-linejoin="round"/>
    <path d="M 472.37213134765625 477.32171630859375 C 471.5835266113281 517.8085327148438 470.3786926269531 525.482666015625 432.04754638671875 537.4020385742188 C 421.6139831542969 538.3097534179688 433.1568908691406 513.0886840820312 438.0140686035156 497.869873046875 C 429.62469482421875 471.0285949707031 436.0743713378906 470.853515625 444.8988952636719 457.55902099609375 C 442.2851257324219 460.016357421875 445.2193603515625 475.6217956542969 472.37213134765625 477.32171630859375" stroke-width="0.0" fill="rgb(226, 109, 109)" opacity="0.37279597" stroke="rgb(0, 0, 0)" stroke-opacity="1.0" stroke-linecap="round" stroke-linejoin="round"/>
    <path d="M 465.48687744140625 -16.21038818359375 C 466.6451416015625 4.683676719665527 459.6023254394531 22.068416595458984 465.2320251464844 24.42608642578125 C 467.1308898925781 14.018152236938477 462.692138671875 23.056697845458984 463.96533203125 26.92542839050293 C 465.2257995605469 3.0907974243164062 467.72802734375 -7.62327766418457 465.2372741699219 -19.70240020751953 C 474.8860168457031 -14.387734413146973 486.1815185546875 -6.34412956237793 465.48687744140625 -16.21038818359375" stroke-width="0.0" fill="rgb(25, 75, 9)" opacity="0.0" stroke="rgb(0, 0, 0)" stroke-opacity="1.0" stroke-linecap="round" stroke-linejoin="round"/>
    <path d="M 152.32376098632812 279.7254638671875 C 170.1350860595703 272.6054382324219 171.9092559814453 246.90341186523438 157.47183227539062 299.0105285644531 C 138.90216064453125 270.7342529296875 146.7119903564453 239.0338592529297 147.8831787109375 196.6643524169922 C 142.04550170898438 194.46929931640625 158.24215698242188 180.66867065429688 188.6919708251953 230.50717163085938 C 178.53961181640625 254.76144409179688 165.39859008789062 228.35214233398438 152.32376098632812 279.7254638671875" stroke-width="0.0" fill="rgb(242, 223, 216)" opacity="0.9987848" stroke="rgb(0, 0, 0)" stroke-opacity="1.0" stroke-linecap="round" stroke-linejoin="round"/>
    <path d="M 182.7590789794922 425.0753173828125 C 194.04664611816406 414.8226623535156 189.5252685546875 450.8919372558594 203.1328582763672 474.4906005859375 C 159.66342163085938 468.74432373046875 144.1018829345703 460.3415222167969 142.50096130371094 412.9502868652344 C 129.8734588623047 371.01361083984375 165.07400512695312 365.32403564453125 204.71453857421875 398.8781433105469 C 189.37429809570312 419.2512512207031 184.95538330078125 440.0047912597656 182.7590789794922 425.0753173828125" stroke-width="0.0" fill="rgb(178, 140, 198)" opacity="0.0" stroke="rgb(0, 0, 0)" stroke-opacity="1.0" stroke-linecap="round" stroke-linejoin="round"/>
    <path d="M 177.62942504882812 248.6717987060547 C 208.45785522460938 251.42291259765625 193.3397216796875 249.75765991210938 183.08572387695312 269.45684814453125 C 137.6674346923828 274.363525390625 130.1563720703125 262.23834228515625 163.82870483398438 231.5526123046875 C 211.4456329345703 216.15318298339844 199.03013610839844 226.716064453125 217.5186004638672 243.5245819091797 C 204.34523010253906 278.127685546875 188.2705078125 281.4797668457031 177.62942504882812 248.6717987060547" stroke-width="0.0" fill="rgb(247, 247, 226)" opacity="0.9874814" stroke="rgb(0, 0, 0)" stroke-opacity="1.0" stroke-linecap="round" stroke-linejoin="round"/>
    <path d="M 178.40768432617188 344.6995849609375 C 198.77000427246094 361.4754333496094 168.68006896972656 356.0777282714844 161.7783660888672 384.81622314453125 C 173.00784301757812 371.96148681640625 155.06796264648438 341.3418273925781 184.323974609375 353.81768798828125 C 185.8391876220703 368.1976623535156 211.35525512695312 357.8431701660156 173.33494567871094 329.97625732421875 C 156.94358825683594 344.9076232910156 178.31260681152344 338.1387634277344 178.40768432617188 344.6995849609375" stroke-width="0.0" fill="rgb(42, 17, 62)" opacity="0.70272624" stroke="rgb(0, 0, 0)" stroke-opacity="1.0" stroke-linecap="round" stroke-linejoin="round"/>
    <path d="M 80.11176300048828 419.2250061035156 C 85.71194458007812 451.0334777832031 85.216796875 448.7902526855469 74.57852172851562 444.6326904296875 C 62.28531265258789 454.3841552734375 59.91082763671875 438.37445068359375 65.02405548095703 447.896240234375 C 52.590797424316406 460.4920959472656 57.22739791870117 446.5148010253906 38.94900131225586 414.351806640625 C 83.22401428222656 414.9637145996094 100.73563385009766 427.19293212890625 80.11176300048828 419.2250061035156" stroke-width="0.0" fill="rgb(255, 251, 254)" opacity="0.04118664" stroke="rgb(0, 0, 0)" stroke-opacity="1.0" stroke-linecap="round" stroke-linejoin="round"/>
    <path d="M 450.2247009277344 462.9108581542969 C 454.7142333984375 508.13690185546875 482.0721130371094 472.76275634765625 475.9714660644531 453.5047302246094 C 436.9447021484375 461.186279296875 447.9950866699219 434.88226318359375 410.3280944824219 437.3424987792969 C 411.9112854003906 463.47149658203125 461.4822692871094 444.7603454589844 454.3032531738281 462.8895263671875 C 447.20294189453125 464.03173828125 443.4165954589844 492.64990234375 450.2247009277344 462.9108581542969" stroke-width="0.0" fill="rgb(215, 196, 245)" opacity="0.0" stroke="rgb(0, 0, 0)" stroke-opacity="1.0" stroke-linecap="round" stroke-linejoin="round"/>
    <path d="M 474.2448425292969 388.68768310546875 C 481.1169738769531 383.1074523925781 460.0028381347656 391.3836669921875 413.4265441894531 384.1786193847656 C 405.58660888671875 389.14166259765625 409.26409912109375 390.7430725097656 426.048095703125 362.10968017578125 C 412.7096862792969 357.1645812988281 409.04022216796875 320.8134460449219 428.9964904785156 327.7168884277344 C 452.7394104003906 345.8163757324219 457.2267150878906 345.0658874511719 474.2448425292969 388.68768310546875" stroke-width="0.0" fill="rgb(143, 166, 166)" opacity="0.16128016" stroke="rgb(0, 0, 0)" stroke-opacity="1.0" stroke-linecap="round" stroke-linejoin="round"/>
    <path d="M 62.342342376708984 105.32917785644531 C 69.01123809814453 153.183349609375 78.25350189208984 188.7367706298828 51.469024658203125 181.7650909423828 C 49.6116828918457 111.2594985961914 37.56715393066406 102.29312896728516 14.351018905639648 123.38146209716797 C 23.61786651611328 146.86354064941406 40.23707580566406 100.95756530761719 64.71764373779297 97.59646606445312 C 60.872005462646484 116.7513198852539 41.04877853393555 123.7468490600586 62.342342376708984 105.32917785644531" stroke-width="0.0" fill="rgb(201, 138, 188)" opacity="0.0" stroke="rgb(0, 0, 0)" stroke-opacity="1.0" stroke-linecap="round" stroke-linejoin="round"/>
    <path d="M 89.11570739746094 497.0011291503906 C 81.12359619140625 517.3046264648438 69.12129211425781 521.8103637695312 25.865373611450195 525.3985595703125 C -11.223889350891113 513.1321411132812 -1.1572412252426147 476.7771911621094 -4.100796699523926 463.4970703125 C 29.73834800720215 451.420166015625 42.23601531982422 458.393310546875 39.4442024230957 444.2278137207031 C 13.268949508666992 453.1911315917969 47.81937789916992 459.64080810546875 89.11570739746094 497.0011291503906" stroke-width="0.0" fill="rgb(182, 226, 236)" opacity="0.0008008955" stroke="rgb(0, 0, 0)" stroke-opacity="1.0" stroke-linecap="round" stroke-linejoin="round"/>
    <path d="M 156.22862243652344 209.28536987304688 C 138.42037963867188 226.73817443847656 156.05160522460938 222.92503356933594 149.49899291992188 260.0738220214844 C 152.28753662109375 241.25123596191406 125.48999786376953 241.68472290039062 130.14549255371094 210.4908905029297 C 136.64974975585938 241.7509002685547 92.47810363769531 264.2721862792969 124.4987564086914 227.29598999023438 C 153.6952362060547 244.96141052246094 155.0463409423828 223.66944885253906 156.22862243652344 209.28536987304688" stroke-width="0.0" fill="rgb(141, 147, 158)" opacity="0.35507748" stroke="rgb(0, 0, 0)" stroke-opacity="1.0" stroke-linecap="round" stroke-linejoin="round"/>
    <path d="M 318.2303161621094 13.82784366607666 C 287.8702697753906 30.888439178466797 280.72894287109375 57.274696350097656 273.6649169921875 53.654998779296875 C 275.1138000488281 38.75519943237305 256.77716064453125 47.303627014160156 223.47579956054688 41.497127532958984 C 216.9621124267578 -8.404085159301758 235.0279998779297 -31.88775062561035 271.8888244628906 -16.7897891998291 C 295.1880798339844 -17.002046585083008 313.23199462890625 -20.10995101928711 318.2303161621094 13.82784366607666" stroke-width="0.0" fill="rgb(131, 111, 99)" opacity="0.2038214" stroke="rgb(0, 0, 0)" stroke-opacity="1.0" stroke-linecap="round" stroke-linejoin="round"/>
    <path d="M 132.44923400878906 171.721923828125 C 121.54651641845703 148.07522583007812 114.1054458618164 179.8173065185547 128.36497497558594 201.68966674804688 C 101.31888580322266 212.3523406982422 79.20907592773438 204.58453369140625 76.08161163330078 192.13995361328125 C 141.69058227539062 175.83949279785156 137.60064697265625 157.1907501220703 146.12583923339844 129.9720001220703 C 179.96998596191406 133.77040100097656 173.1858367919922 169.7223663330078 132.44923400878906 171.721923828125" stroke-width="0.0" fill="rgb(204, 165, 215)" opacity="0.001978288" stroke="rgb(0, 0, 0)" stroke-opacity="1.0" stroke-linecap="round" stroke-linejoin="round"/>
    <path d="M 482.92279052734375 257.23663330078125 C 435.14794921875 264.31121826171875 437.3243408203125 238.65164184570312 442.15509033203125 249.3728485107422 C 461.4398193359375 252.46377563476562 443.1610412597656 244.3397979736328 416.57330322265625 251.3998565673828 C 426.824951171875 260.06231689453125 474.1388854980469 260.50537109375 488.1070556640625 238.21852111816406 C 476.3800354003906 207.20587158203125 480.5263671875 222.8079071044922 482.92279052734375 257.23663330078125" stroke-width="0.0" fill="rgb(29, 22, 37)" opacity="0.7197014" stroke="rgb(0, 0, 0)" stroke-opacity="1.0" stroke-linecap="round" stroke-linejoin="round"/>
    <path d="M 398.6458740234375 353.3717346191406 C 376.8440246582031 396.5234069824219 350.5733947753906 415.994384765625 323.41925048828125 404.09588623046875 C 338.1723937988281 402.75177001953125 337.7328796386719 411.01312255859375 347.05450439453125 376.48046875 C 363.3567199707031 389.9391174316406 346.812255859375 384.4256591796875 322.994140625 352.59832763671875 C 353.17584228515625 322.0712890625 384.18853759765625 368.0530700683594 398.6458740234375 353.3717346191406" stroke-width="0.0" fill="rgb(113, 22, 80)" opacity="0.1561186" stroke="rgb(0, 0, 0)" stroke-opacity="1.0" stroke-linecap="round" stroke-linejoin="round"/>
    <path d="M 407.669677734375 203.64662170410156 C 389.8456115722656 227.4583282470703 353.80706787109375 229.77584838867188 363.8550720214844 234.40628051757812 C 377.44512939453125 225.0281219482422 356.0901794433594 202.31710815429688 318.370849609375 207.5860137939453 C 303.597412109375 203.02525329589844 307.9422302246094 177.4864044189453 350.7820129394531 164.5099334716797 C 392.38592529296875 163.86766052246094 391.3305969238281 178.78427124023438 407.669677734375 203.64662170410156" stroke-width="0.0" fill="rgb(255, 255, 255)" opacity="0.0010010104" stroke="rgb(0, 0, 0)" stroke-opacity="1.0" stroke-linecap="round" stroke-linejoin="round"/>
    <path d="M 129.95697021484375 442.0403137207031 C 121.74703979492188 490.838623046875 164.2773895263672 464.9513244628906 136.0204620361328 459.29010009765625 C 57.011512756347656 445.38543701171875 69.78267669677734 444.4261169433594 82.61604309082031 442.3891296386719 C 80.24213409423828 441.9075012207031 74.28649139404297 443.18365478515625 63.00587844848633 438.2432861328125 C 78.0948715209961 448.79876708984375 102.64029693603516 443.429443359375 129.95697021484375 442.0403137207031" stroke-width="0.0" fill="rgb(246, 251, 247)" opacity="0.0065453653" stroke="rgb(0, 0, 0)" stroke-opacity="1.0" stroke-linecap="round" stroke-linejoin="round"/>
    <path d="M 141.27362060546875 433.10882568359375 C 124.95536041259766 512.8890991210938 126.048828125 520.5087890625 130.57215881347656 489.16082763671875 C 45.75514221191406 468.61468505859375 6.838194847106934 491.06072998046875 -20.269502639770508 446.0090637207031 C -1.0384095907211304 386.96142578125 26.976280212402344 376.1817626953125 77.5514144897461 380.666748046875 C 95.39913940429688 389.8295593261719 112.46257019042969 408.72711181640625 141.27362060546875 433.10882568359375" stroke-width="0.0" fill="rgb(159, 197, 226)" opacity="0.076762274" stroke="rgb(0, 0, 0)" stroke-opacity="1.0" stroke-linecap="round" stroke-linejoin="round"/>
  </g>
</svg>
