<?xml version="1.0" ?>
<svg xmlns="http://www.w3.org/2000/svg" version="1.1" width="512" height="512">
  <defs/>
  <g>
    <path d="M 551.9797973632812 438.705078125 C 548.7020874023438 518.369873046875 549.9697875976562 525.8068237304688 337.5559387207031 530.581298828125 C 250.43576049804688 543.4610595703125 188.11221313476562 524.2489624023438 293.376708984375 465.52093505859375 C 509.59283447265625 405.10089111328125 382.8695373535156 301.0762939453125 387.0825500488281 252.62689208984375 C 571.1309814453125 279.75299072265625 571.4840698242188 305.64984130859375 551.9797973632812 438.705078125" stroke-width="0.0" fill="rgb(224, 10, 21)" opacity="0.8694806" stroke="rgb(0, 0, 0)" stroke-opacity="1.0" stroke-linecap="round" stroke-linejoin="round"/>
    <path d="M 156.9063262939453 405.9259338378906 C 244.24998474121094 505.00872802734375 378.5644226074219 421.4876708984375 285.7767028808594 472.7099609375 C -45.688392639160156 531.763671875 -40.26144790649414 534.9520874023438 -29.670793533325195 493.38848876953125 C -13.992952346801758 212.20187377929688 -18.354860305786133 208.69468688964844 59.1147575378418 256.0462951660156 C 167.53427124023438 251.00906372070312 95.40752410888672 289.9202880859375 156.9063262939453 405.9259338378906" stroke-width="0.0" fill="rgb(37, 7, 36)" opacity="0.928939" stroke="rgb(0, 0, 0)" stroke-opacity="1.0" stroke-linecap="round" stroke-linejoin="round"/>
    <path d="M 123.60142517089844 291.14788818359375 C 166.2205352783203 432.2930603027344 140.34678649902344 351.4324035644531 130.07382202148438 286.0167541503906 C -62.21310806274414 279.00909423828125 -49.16804504394531 339.23956298828125 -27.287975311279297 167.25888061523438 C -10.38633918762207 140.56011962890625 9.513206481933594 153.87454223632812 89.14132690429688 150.8624725341797 C 85.85944366455078 122.81256866455078 122.13893127441406 191.75396728515625 123.60142517089844 291.14788818359375" stroke-width="0.0" fill="rgb(66, 52, 101)" opacity="0.71623" stroke="rgb(0, 0, 0)" stroke-opacity="1.0" stroke-linecap="round" stroke-linejoin="round"/>
    <path d="M 275.1799011230469 87.00750732421875 C 16.739112854003906 66.81098175048828 76.99014282226562 171.7347869873047 55.92384338378906 116.94434356689453 C 11.020769119262695 270.7763671875 5.003315448760986 266.10089111328125 -32.57814025878906 92.18023681640625 C -28.04749298095703 -29.3453369140625 -20.105697631835938 -32.58071517944336 200.66708374023438 -36.15774154663086 C 283.365234375 -64.72848510742188 298.5086669921875 -64.05030059814453 275.1799011230469 87.00750732421875" stroke-width="0.0" fill="rgb(99, 25, 43)" opacity="0.76335424" stroke="rgb(0, 0, 0)" stroke-opacity="1.0" stroke-linecap="round" stroke-linejoin="round"/>
    <path d="M 574.8094482421875 84.00726318359375 C 405.5855712890625 255.32122802734375 408.255859375 268.9576416015625 301.88201904296875 327.2754821777344 C 198.54946899414062 379.3806457519531 306.21624755859375 285.9403991699219 227.4400634765625 137.9157257080078 C 310.2688293457031 -24.610925674438477 250.53700256347656 -28.561655044555664 328.5193786621094 -71.78668975830078 C 563.2000122070312 0.6587138175964355 563.2000122070312 11.063444137573242 574.8094482421875 84.00726318359375" stroke-width="0.0" fill="rgb(213, 30, 11)" opacity="0.89326066" stroke="rgb(0, 0, 0)" stroke-opacity="1.0" stroke-linecap="round" stroke-linejoin="round"/>
    <path d="M 328.5690612792969 63.468711853027344 C 287.7298583984375 337.17401123046875 184.49581909179688 441.6498107910156 157.55133056640625 294.22918701171875 C 159.640380859375 249.0634002685547 118.96977233886719 141.66835021972656 26.085800170898438 84.694580078125 C 58.74712371826172 110.5298843383789 103.79067993164062 21.596572875976562 199.01072692871094 72.10965728759766 C 300.89739990234375 129.8184814453125 292.60736083984375 47.37576675415039 328.5690612792969 63.468711853027344" stroke-width="0.0" fill="rgb(19, 48, 48)" opacity="0.9874035" stroke="rgb(0, 0, 0)" stroke-opacity="1.0" stroke-linecap="round" stroke-linejoin="round"/>
    <path d="M 417.35968017578125 380.12457275390625 C 310.32305908203125 506.5260925292969 456.03399658203125 275.5287780761719 336.506103515625 306.6855773925781 C 359.47589111328125 309.951171875 470.63916015625 421.7533874511719 183.65069580078125 475.7073669433594 C 116.26181030273438 175.3089141845703 216.33885192871094 127.74937438964844 284.61376953125 343.1947021484375 C 443.4095458984375 285.247802734375 472.3553466796875 267.3819580078125 417.35968017578125 380.12457275390625" stroke-width="0.0" fill="rgb(35, 55, 53)" opacity="0.99204224" stroke="rgb(0, 0, 0)" stroke-opacity="1.0" stroke-linecap="round" stroke-linejoin="round"/>
    <path d="M 534.8027954101562 150.4931640625 C 543.6019897460938 320.09478759765625 563.1994018554688 343.2150573730469 531.8275756835938 281.7855224609375 C 372.0973815917969 270.19989013671875 320.36920166015625 307.3612365722656 363.7960510253906 264.80511474609375 C 289.28045654296875 189.064453125 421.9901428222656 193.01426696777344 556.7304077148438 106.2760238647461 C 563.2000122070312 68.05618286132812 563.2000122070312 90.89309692382812 534.8027954101562 150.4931640625" stroke-width="0.0" fill="rgb(35, 228, 158)" opacity="0.9221471" stroke="rgb(0, 0, 0)" stroke-opacity="1.0" stroke-linecap="round" stroke-linejoin="round"/>
    <path d="M 243.35940551757812 188.38336181640625 C 312.65582275390625 269.4547119140625 307.484130859375 273.8763427734375 304.85040283203125 257.47015380859375 C 257.9753112792969 270.7005615234375 259.794189453125 311.5235900878906 271.2078857421875 262.2839660644531 C 292.1822814941406 246.0718994140625 284.0397644042969 240.02076721191406 261.05316162109375 320.3050537109375 C 272.76580810546875 264.5420227050781 258.3597412109375 253.61404418945312 243.35940551757812 188.38336181640625" stroke-width="0.0" fill="rgb(168, 114, 16)" opacity="0.6685715" stroke="rgb(0, 0, 0)" stroke-opacity="1.0" stroke-linecap="round" stroke-linejoin="round"/>
    <path d="M 257.32928466796875 60.06426239013672 C 107.15272521972656 36.54413604736328 5.093069553375244 151.44271850585938 113.30938720703125 145.5475616455078 C 186.2149200439453 287.5967712402344 -43.851905822753906 316.30914306640625 -67.24028015136719 216.9763641357422 C -38.64645004272461 -18.714088439941406 -30.84695816040039 -28.904321670532227 126.43335723876953 -42.363014221191406 C 257.57476806640625 -11.308791160583496 352.6490173339844 78.48983001708984 257.32928466796875 60.06426239013672" stroke-width="0.0" fill="rgb(218, 56, 29)" opacity="0.9991899" stroke="rgb(0, 0, 0)" stroke-opacity="1.0" stroke-linecap="round" stroke-linejoin="round"/>
    <path d="M 488.3768615722656 218.93670654296875 C 456.12664794921875 226.12899780273438 376.77056884765625 291.487548828125 416.7130432128906 305.6353759765625 C 217.09689331054688 351.90216064453125 449.82275390625 300.1208190917969 297.3127746582031 260.0322570800781 C 434.27142333984375 186.79373168945312 360.567626953125 84.90281677246094 379.0506896972656 134.9337921142578 C 302.8766784667969 285.9277038574219 314.1338806152344 268.6393737792969 488.3768615722656 218.93670654296875" stroke-width="0.0" fill="rgb(190, 15, 4)" opacity="0.8473545" stroke="rgb(0, 0, 0)" stroke-opacity="1.0" stroke-linecap="round" stroke-linejoin="round"/>
    <path d="M 475.56463623046875 49.165096282958984 C 392.0986022949219 233.05335998535156 287.48577880859375 183.49038696289062 242.484130859375 220.03756713867188 C 257.5042419433594 203.28150939941406 318.1979064941406 197.8759307861328 322.90289306640625 142.64578247070312 C 291.70819091796875 141.55966186523438 311.975830078125 89.67141723632812 234.2615203857422 77.39338684082031 C 152.08511352539062 24.801525115966797 230.2618408203125 -63.65816879272461 475.56463623046875 49.165096282958984" stroke-width="0.0" fill="rgb(226, 30, 30)" opacity="1.0" stroke="rgb(0, 0, 0)" stroke-opacity="1.0" stroke-linecap="round" stroke-linejoin="round"/>
    <path d="M 257.67083740234375 448.1134948730469 C 483.0953369140625 404.9328308105469 251.2544403076172 542.6088256835938 182.263427734375 433.75360107421875 C 214.684814453125 482.3605651855469 163.4005584716797 446.7142333984375 141.87464904785156 323.8750305175781 C 163.76869201660156 253.929931640625 168.6656036376953 505.5973205566406 132.03770446777344 205.35072326660156 C 256.5093994140625 134.4573974609375 78.5062255859375 424.2708435058594 257.67083740234375 448.1134948730469" stroke-width="0.0" fill="rgb(209, 177, 0)" opacity="0.9757236" stroke="rgb(0, 0, 0)" stroke-opacity="1.0" stroke-linecap="round" stroke-linejoin="round"/>
    <path d="M 573.3982543945312 175.73052978515625 C 548.3642578125 436.3497314453125 544.486328125 452.1939697265625 475.7701110839844 430.19830322265625 C 368.535888671875 385.3495788574219 435.4878845214844 399.18670654296875 421.76531982421875 318.44561767578125 C 389.62164306640625 202.84605407714844 434.9677734375 338.59619140625 417.2220764160156 145.88352966308594 C 457.85028076171875 115.96405029296875 574.583984375 123.17955017089844 573.3982543945312 175.73052978515625" stroke-width="0.0" fill="rgb(223, 65, 33)" opacity="0.9855965" stroke="rgb(0, 0, 0)" stroke-opacity="1.0" stroke-linecap="round" stroke-linejoin="round"/>
    <path d="M 542.5154418945312 477.1905517578125 C 535.7349853515625 520.544677734375 527.0595092773438 532.3209228515625 334.3038330078125 517.0919189453125 C 260.5003967285156 471.0484619140625 309.305419921875 490.28961181640625 380.56439208984375 438.3972473144531 C 415.4967956542969 383.5199279785156 413.48828125 373.3223876953125 443.0431823730469 353.7893371582031 C 473.2873840332031 387.3697814941406 494.24041748046875 395.30560302734375 542.5154418945312 477.1905517578125" stroke-width="0.0" fill="rgb(238, 75, 60)" opacity="0.94191426" stroke="rgb(0, 0, 0)" stroke-opacity="1.0" stroke-linecap="round" stroke-linejoin="round"/>
    <path d="M 358.87591552734375 301.86505126953125 C 446.17724609375 301.2847900390625 303.38543701171875 302.47882080078125 360.5122375488281 352.4154968261719 C 334.5583190917969 456.8880920410156 185.17457580566406 443.62640380859375 198.25706481933594 350.2361755371094 C 210.57742309570312 334.1356201171875 197.99037170410156 344.1440734863281 217.08534240722656 319.43768310546875 C 193.7982177734375 405.97845458984375 323.7737731933594 422.01898193359375 358.87591552734375 301.86505126953125" stroke-width="0.0" fill="rgb(213, 179, 21)" opacity="0.84364885" stroke="rgb(0, 0, 0)" stroke-opacity="1.0" stroke-linecap="round" stroke-linejoin="round"/>
    <path d="M 226.4407501220703 267.22259521484375 C 199.94252014160156 335.6197509765625 220.84922790527344 309.52606201171875 200.37521362304688 323.80926513671875 C 194.03050231933594 289.1329040527344 190.61990356445312 265.4488220214844 203.6824493408203 288.1557922363281 C 195.03506469726562 256.8143005371094 191.84352111816406 261.02020263671875 203.55484008789062 241.10153198242188 C 231.2345733642578 234.8605499267578 255.37843322753906 246.7958221435547 226.4407501220703 267.22259521484375" stroke-width="0.0" fill="rgb(199, 163, 102)" opacity="0.5967374" stroke="rgb(0, 0, 0)" stroke-opacity="1.0" stroke-linecap="round" stroke-linejoin="round"/>
    <path d="M 417.540283203125 324.173828125 C 439.38848876953125 407.9809265136719 347.32598876953125 465.6668395996094 321.6964111328125 474.2107849121094 C 263.85211181640625 507.8550720214844 148.04177856445312 475.244873046875 282.1067199707031 469.7539367675781 C 346.6198425292969 448.7823791503906 356.84857177734375 413.1097106933594 364.363525390625 363.6861877441406 C 342.09661865234375 475.4621887207031 449.3796691894531 312.58245849609375 417.540283203125 324.173828125" stroke-width="0.0" fill="rgb(33, 51, 47)" opacity="0.7447783" stroke="rgb(0, 0, 0)" stroke-opacity="1.0" stroke-linecap="round" stroke-linejoin="round"/>
    <path d="M 267.7681884765625 114.68086242675781 C 306.7346496582031 67.07616424560547 175.1894989013672 56.021060943603516 229.42250061035156 73.51404571533203 C 191.54763793945312 58.49748992919922 183.51499938964844 48.94775390625 200.619873046875 40.19430160522461 C 184.17092895507812 49.315330505371094 207.5485076904297 52.244537353515625 190.02493286132812 62.14174270629883 C 63.45232009887695 92.15937805175781 205.85980224609375 59.94800567626953 267.7681884765625 114.68086242675781" stroke-width="0.0" fill="rgb(36, 54, 58)" opacity="0.789798" stroke="rgb(0, 0, 0)" stroke-opacity="1.0" stroke-linecap="round" stroke-linejoin="round"/>
    <path d="M 252.29542541503906 487.5815734863281 C 250.9444580078125 566.052001953125 215.79937744140625 572.6292114257812 131.55783081054688 548.7332763671875 C -49.01333236694336 521.1326904296875 -42.92496109008789 500.47503662109375 -40.17359924316406 404.98284912109375 C -54.300785064697266 296.4864501953125 -63.233707427978516 261.75750732421875 20.067523956298828 273.06884765625 C 136.6120147705078 267.1552734375 97.20179748535156 455.9552001953125 252.29542541503906 487.5815734863281" stroke-width="0.0" fill="rgb(244, 64, 48)" opacity="0.9979512" stroke="rgb(0, 0, 0)" stroke-opacity="1.0" stroke-linecap="round" stroke-linejoin="round"/>
    <path d="M 318.5667419433594 365.6356506347656 C 309.2057800292969 384.8058776855469 245.39108276367188 356.4979248046875 253.140869140625 359.1009216308594 C 261.5315246582031 362.2901306152344 261.3815002441406 369.9234313964844 272.8113708496094 361.74407958984375 C 269.2497863769531 383.8450622558594 192.11634826660156 372.4440612792969 244.62164306640625 250.88905334472656 C 275.9979248046875 282.02947998046875 278.8770446777344 354.8886413574219 318.5667419433594 365.6356506347656" stroke-width="0.0" fill="rgb(242, 2, 26)" opacity="0.9732831" stroke="rgb(0, 0, 0)" stroke-opacity="1.0" stroke-linecap="round" stroke-linejoin="round"/>
    <path d="M 438.9971618652344 182.90928649902344 C 325.7207946777344 68.60535430908203 362.0090637207031 97.08043670654297 328.919921875 202.06057739257812 C 382.666015625 192.7518768310547 391.7867126464844 209.8684844970703 365.9407958984375 172.52133178710938 C 331.5716552734375 187.86192321777344 379.6094055175781 182.38877868652344 378.3316345214844 206.15292358398438 C 395.0259704589844 231.84031677246094 406.50457763671875 184.64268493652344 438.9971618652344 182.90928649902344" stroke-width="0.0" fill="rgb(188, 72, 55)" opacity="0.0" stroke="rgb(0, 0, 0)" stroke-opacity="1.0" stroke-linecap="round" stroke-linejoin="round"/>
    <path d="M 437.65911865234375 230.8854522705078 C 449.8612060546875 225.66281127929688 429.6213684082031 320.3426818847656 373.9294738769531 292.7698974609375 C 465.70245361328125 275.4355163574219 523.8863525390625 211.1094207763672 376.1959533691406 264.9829406738281 C 443.84796142578125 235.03114318847656 387.40020751953125 186.2032470703125 394.2897644042969 181.69163513183594 C 407.4256591796875 271.19879150390625 380.294677734375 249.08145141601562 437.65911865234375 230.8854522705078" stroke-width="0.0" fill="rgb(55, 198, 76)" opacity="0.00013811188" stroke="rgb(0, 0, 0)" stroke-opacity="1.0" stroke-linecap="round" stroke-linejoin="round"/>
    <path d="M 131.8459014892578 247.69515991210938 C 121.8979721069336 283.5946350097656 113.12886810302734 324.6499328613281 143.77757263183594 417.38397216796875 C 47.29791259765625 362.72308349609375 27.448741912841797 322.0521545410156 2.697437286376953 262.4545593261719 C 49.84124755859375 225.48793029785156 49.35152053833008 181.52406311035156 75.6697006225586 184.2461395263672 C 96.94110870361328 225.21841430664062 114.19425964355469 286.5355224609375 131.8459014892578 247.69515991210938" stroke-width="0.0" fill="rgb(222, 41, 20)" opacity="0.9962085" stroke="rgb(0, 0, 0)" stroke-opacity="1.0" stroke-linecap="round" stroke-linejoin="round"/>
    <path d="M 358.36065673828125 290.9264831542969 C 298.9859924316406 308.19000244140625 268.90631103515625 233.01638793945312 260.144775390625 219.1154022216797 C 284.68243408203125 190.61837768554688 264.59259033203125 163.16339111328125 291.191650390625 176.37954711914062 C 277.3477783203125 172.3851776123047 267.7925109863281 188.28707885742188 270.0531311035156 172.46986389160156 C 293.5107421875 153.27706909179688 379.69049072265625 145.1021270751953 358.36065673828125 290.9264831542969" stroke-width="0.0" fill="rgb(87, 215, 148)" opacity="0.8762798" stroke="rgb(0, 0, 0)" stroke-opacity="1.0" stroke-linecap="round" stroke-linejoin="round"/>
    <path d="M 209.16201782226562 115.80658721923828 C 231.8535919189453 95.8191909790039 234.014892578125 121.51776885986328 219.60409545898438 122.59713745117188 C 108.00875854492188 67.73323822021484 111.59064483642578 200.313720703125 78.61354064941406 140.34732055664062 C 145.11346435546875 75.44241333007812 257.42572021484375 122.25499725341797 259.29278564453125 125.17568969726562 C 235.5409698486328 99.03337097167969 215.37716674804688 122.26105499267578 209.16201782226562 115.80658721923828" stroke-width="0.0" fill="rgb(86, 161, 35)" opacity="0.267817" stroke="rgb(0, 0, 0)" stroke-opacity="1.0" stroke-linecap="round" stroke-linejoin="round"/>
    <path d="M 67.9509506225586 149.8551025390625 C 80.38865661621094 181.33204650878906 107.56832122802734 170.29144287109375 147.3505859375 143.1918182373047 C 163.44134521484375 81.32793426513672 131.18490600585938 84.1400375366211 76.95469665527344 124.97721099853516 C 26.425554275512695 201.88291931152344 51.234291076660156 54.193023681640625 233.95181274414062 97.34993743896484 C 90.75270080566406 117.84158325195312 74.96025085449219 124.49515533447266 67.9509506225586 149.8551025390625" stroke-width="0.0" fill="rgb(104, 101, 60)" opacity="0.5120292" stroke="rgb(0, 0, 0)" stroke-opacity="1.0" stroke-linecap="round" stroke-linejoin="round"/>
    <path d="M 318.2987060546875 260.31390380859375 C 264.51092529296875 271.9660339355469 303.7511291503906 299.5784606933594 264.174560546875 287.29730224609375 C 209.7208251953125 276.83447265625 224.62185668945312 255.05995178222656 204.0357666015625 234.80267333984375 C 230.0048370361328 223.2678680419922 259.28594970703125 218.1365966796875 281.9684753417969 214.62181091308594 C 264.12664794921875 229.72024536132812 300.6336669921875 234.96392822265625 318.2987060546875 260.31390380859375" stroke-width="0.0" fill="rgb(70, 173, 130)" opacity="0.99976075" stroke="rgb(0, 0, 0)" stroke-opacity="1.0" stroke-linecap="round" stroke-linejoin="round"/>
    <path d="M 286.39794921875 228.97305297851562 C 232.42361450195312 240.9698486328125 211.2305145263672 79.68656158447266 195.76065063476562 180.0391387939453 C 231.9851531982422 244.76580810546875 137.76544189453125 347.0469970703125 87.20414733886719 121.45877838134766 C 161.57240295410156 43.56504821777344 212.53660583496094 109.45653533935547 219.1832733154297 155.07481384277344 C 257.0130615234375 63.5126953125 195.9861297607422 106.94534301757812 286.39794921875 228.97305297851562" stroke-width="0.0" fill="rgb(209, 160, 75)" opacity="0.72092" stroke="rgb(0, 0, 0)" stroke-opacity="1.0" stroke-linecap="round" stroke-linejoin="round"/>
    <path d="M 376.2339782714844 403.3067321777344 C 327.3876647949219 292.3780212402344 285.8902893066406 380.2326965332031 296.5174560546875 368.7645568847656 C 251.16897583007812 375.194091796875 257.6726989746094 326.9666748046875 298.71630859375 325.4217224121094 C 305.2024841308594 324.5312805175781 313.03094482421875 307.3028564453125 293.5989990234375 362.3812255859375 C 257.3141174316406 283.1780700683594 475.97161865234375 262.1554870605469 376.2339782714844 403.3067321777344" stroke-width="0.0" fill="rgb(78, 185, 114)" opacity="1.0" stroke="rgb(0, 0, 0)" stroke-opacity="1.0" stroke-linecap="round" stroke-linejoin="round"/>
    <path d="M 7.6602020263671875 523.527099609375 C 16.928863525390625 520.4954833984375 10.451606750488281 527.2847900390625 0.7705464363098145 530.8681030273438 C -9.364206314086914 527.7437133789062 -16.68471336364746 520.4232177734375 -19.53505516052246 510.3761291503906 C -16.513290405273438 500.47222900390625 -9.497283935546875 493.1925964355469 -12.406676292419434 503.4660339355469 C -4.264515399932861 507.9687805175781 3.0665524005889893 515.3460693359375 7.6602020263671875 523.527099609375" stroke-width="0.0" fill="rgb(253, 10, 0)" opacity="0.1198675" stroke="rgb(0, 0, 0)" stroke-opacity="1.0" stroke-linecap="round" stroke-linejoin="round"/>
    <path d="M 145.351806640625 270.6722106933594 C 184.40150451660156 392.9825744628906 163.34507751464844 378.1936950683594 154.97183227539062 277.152587890625 C 135.11859130859375 216.33261108398438 133.59974670410156 174.7290802001953 129.84320068359375 196.54049682617188 C 60.56460952758789 139.74729919433594 29.086278915405273 138.9260711669922 133.2490692138672 87.16181945800781 C 142.52139282226562 152.14691162109375 151.8714141845703 220.95465087890625 145.351806640625 270.6722106933594" stroke-width="0.0" fill="rgb(163, 130, 54)" opacity="0.78832304" stroke="rgb(0, 0, 0)" stroke-opacity="1.0" stroke-linecap="round" stroke-linejoin="round"/>
    <path d="M 327.7096862792969 369.72357177734375 C 269.2679443359375 409.8636779785156 246.103271484375 331.4953918457031 293.43609619140625 303.4642333984375 C 318.22589111328125 304.0309753417969 302.3778381347656 311.5102844238281 273.7451477050781 295.1461181640625 C 227.3964385986328 293.4731750488281 244.83204650878906 288.08135986328125 311.5722961425781 293.6857604980469 C 293.8551940917969 318.44732666015625 380.41021728515625 324.9445495605469 327.7096862792969 369.72357177734375" stroke-width="0.0" fill="rgb(90, 186, 145)" opacity="0.7783374" stroke="rgb(0, 0, 0)" stroke-opacity="1.0" stroke-linecap="round" stroke-linejoin="round"/>
    <path d="M 263.897705078125 153.8238525390625 C 254.6924285888672 193.64019775390625 239.7142333984375 216.1497802734375 193.64324951171875 216.6790313720703 C 178.15957641601562 143.2780303955078 235.5726776123047 126.93595886230469 224.80174255371094 145.3914794921875 C 185.06982421875 131.83155822753906 170.07835388183594 92.17034149169922 150.19700622558594 103.5829849243164 C 183.19847106933594 129.93617248535156 263.8789978027344 117.02747344970703 263.897705078125 153.8238525390625" stroke-width="0.0" fill="rgb(226, 49, 27)" opacity="0.93086255" stroke="rgb(0, 0, 0)" stroke-opacity="1.0" stroke-linecap="round" stroke-linejoin="round"/>
    <path d="M 293.55108642578125 395.443115234375 C 223.20755004882812 404.4358825683594 286.35992431640625 419.7018737792969 241.85609436035156 398.8459777832031 C 226.56483459472656 439.8141784667969 210.85958862304688 352.1272888183594 196.67283630371094 296.7796936035156 C 163.02871704101562 401.1320495605469 297.5611267089844 400.6064147949219 233.68800354003906 393.8514709472656 C 243.85714721679688 417.501953125 247.440673828125 419.3124084472656 293.55108642578125 395.443115234375" stroke-width="0.0" fill="rgb(191, 205, 134)" opacity="0.44172734" stroke="rgb(0, 0, 0)" stroke-opacity="1.0" stroke-linecap="round" stroke-linejoin="round"/>
    <path d="M 140.46670532226562 226.40798950195312 C 130.0923614501953 264.1871337890625 158.50721740722656 269.66510009765625 162.82989501953125 356.6357727050781 C 113.35578155517578 382.16937255859375 144.05950927734375 320.6705627441406 151.96900939941406 249.72315979003906 C 130.3541259765625 102.83407592773438 55.19853973388672 144.14520263671875 71.69255065917969 145.24078369140625 C 196.90785217285156 187.55136108398438 160.90623474121094 310.09686279296875 140.46670532226562 226.40798950195312" stroke-width="0.0" fill="rgb(229, 199, 98)" opacity="0.4515095" stroke="rgb(0, 0, 0)" stroke-opacity="1.0" stroke-linecap="round" stroke-linejoin="round"/>
    <path d="M 222.41738891601562 125.2685546875 C 218.9988555908203 178.68670654296875 191.1086883544922 148.07431030273438 164.682861328125 119.90003967285156 C 195.0847930908203 139.95811462402344 198.83486938476562 113.63277435302734 174.71319580078125 127.33931732177734 C 177.8507080078125 110.44960021972656 174.09474182128906 133.58428955078125 139.0077667236328 98.92677307128906 C 161.70059204101562 72.90309143066406 177.5883331298828 104.49378204345703 222.41738891601562 125.2685546875" stroke-width="0.0" fill="rgb(127, 246, 81)" opacity="0.88438356" stroke="rgb(0, 0, 0)" stroke-opacity="1.0" stroke-linecap="round" stroke-linejoin="round"/>
    <path d="M 453.9490966796875 294.3037109375 C 455.8452453613281 279.2238464355469 464.0210266113281 304.6170654296875 425.2464599609375 320.15594482421875 C 364.3724060058594 312.88720703125 358.80230712890625 316.9376220703125 378.9840087890625 297.1843566894531 C 380.7095947265625 233.50685119628906 397.7285461425781 234.37472534179688 424.79791259765625 251.22178649902344 C 440.2361755371094 247.8993377685547 461.93084716796875 264.2900390625 453.9490966796875 294.3037109375" stroke-width="0.0" fill="rgb(76, 210, 135)" opacity="1.0" stroke="rgb(0, 0, 0)" stroke-opacity="1.0" stroke-linecap="round" stroke-linejoin="round"/>
    <path d="M 295.7487487792969 390.9557189941406 C 252.49560546875 393.22149658203125 248.3037109375 412.74713134765625 279.0768127441406 400.0767822265625 C 249.27830505371094 397.9867858886719 243.28494262695312 397.618408203125 217.05343627929688 384.5793151855469 C 210.80763244628906 369.10443115234375 231.2924346923828 370.6499328613281 251.5796661376953 402.979248046875 C 262.6612548828125 435.7663269042969 288.97119140625 434.49261474609375 295.7487487792969 390.9557189941406" stroke-width="0.0" fill="rgb(218, 219, 92)" opacity="0.73423535" stroke="rgb(0, 0, 0)" stroke-opacity="1.0" stroke-linecap="round" stroke-linejoin="round"/>
    <path d="M 381.9410400390625 263.319580078125 C 338.5014343261719 238.17413330078125 311.83984375 246.478271484375 318.8974609375 307.64166259765625 C 290.10308837890625 319.1475524902344 258.13153076171875 278.69329833984375 314.72271728515625 270.1324157714844 C 292.5081481933594 231.61293029785156 342.91680908203125 207.90220642089844 349.8119201660156 246.1823272705078 C 370.0443420410156 220.58163452148438 394.44390869140625 244.13339233398438 381.9410400390625 263.319580078125" stroke-width="0.0" fill="rgb(254, 10, 26)" opacity="0.9569667" stroke="rgb(0, 0, 0)" stroke-opacity="1.0" stroke-linecap="round" stroke-linejoin="round"/>
    <path d="M 212.86631774902344 266.0203857421875 C 213.71034240722656 253.89732360839844 179.1092529296875 258.53399658203125 172.23135375976562 293.51177978515625 C 154.18939208984375 266.5155334472656 147.18319702148438 244.48553466796875 131.49830627441406 268.184326171875 C 137.03038024902344 293.1380310058594 193.64877319335938 284.19830322265625 160.01673889160156 233.32862854003906 C 189.65391540527344 220.6951141357422 191.1671600341797 282.361572265625 212.86631774902344 266.0203857421875" stroke-width="0.0" fill="rgb(50, 96, 30)" opacity="0.81757337" stroke="rgb(0, 0, 0)" stroke-opacity="1.0" stroke-linecap="round" stroke-linejoin="round"/>
    <path d="M 308.72711181640625 401.7583312988281 C 318.9633483886719 408.21453857421875 311.93829345703125 436.31439208984375 292.32196044921875 434.968505859375 C 270.5185546875 417.13250732421875 278.3537292480469 398.7412109375 317.34490966796875 395.6117248535156 C 295.1718444824219 386.0186767578125 282.9145202636719 368.44866943359375 266.9479675292969 366.5947570800781 C 310.1366882324219 375.17987060546875 319.1853942871094 392.4616394042969 308.72711181640625 401.7583312988281" stroke-width="0.0" fill="rgb(122, 135, 71)" opacity="0.4776441" stroke="rgb(0, 0, 0)" stroke-opacity="1.0" stroke-linecap="round" stroke-linejoin="round"/>
    <path d="M 359.52789306640625 430.03253173828125 C 352.12139892578125 400.0343322753906 341.28826904296875 373.9726257324219 346.9860534667969 405.5235290527344 C 370.3804626464844 416.0449523925781 376.3076477050781 430.5604553222656 380.0123596191406 425.88824462890625 C 382.0697326660156 366.2615966796875 368.5245361328125 358.18524169921875 392.1655578613281 388.7658996582031 C 382.7187194824219 372.6563720703125 360.88360595703125 361.88348388671875 359.52789306640625 430.03253173828125" stroke-width="0.0" fill="rgb(104, 100, 22)" opacity="0.6575036" stroke="rgb(0, 0, 0)" stroke-opacity="1.0" stroke-linecap="round" stroke-linejoin="round"/>
    <path d="M 357.8728332519531 -13.69926929473877 C 359.5093994140625 23.98179817199707 353.2004089355469 43.35600662231445 332.37225341796875 37.72257995605469 C 317.73321533203125 16.307952880859375 314.36517333984375 3.366666316986084 323.2569580078125 -14.325212478637695 C 317.227294921875 -12.882319450378418 323.5438232421875 -15.54205322265625 331.9080810546875 -24.408884048461914 C 338.00433349609375 -10.534789085388184 343.3406677246094 3.3281443119049072 357.8728332519531 -13.69926929473877" stroke-width="0.0" fill="rgb(129, 107, 15)" opacity="0.035190452" stroke="rgb(0, 0, 0)" stroke-opacity="1.0" stroke-linecap="round" stroke-linejoin="round"/>
    <path d="M 161.8662567138672 157.43582153320312 C 130.89332580566406 174.87014770507812 91.69112396240234 169.3935089111328 61.14723587036133 138.99754333496094 C 97.95233917236328 136.5755615234375 103.21735382080078 141.8111114501953 69.97988891601562 155.88278198242188 C 51.990665435791016 141.0173797607422 59.44448471069336 100.66494750976562 96.4189224243164 105.8567886352539 C 117.77525329589844 119.54869842529297 87.64522552490234 125.69842529296875 161.8662567138672 157.43582153320312" stroke-width="0.0" fill="rgb(171, 254, 141)" opacity="0.8513931" stroke="rgb(0, 0, 0)" stroke-opacity="1.0" stroke-linecap="round" stroke-linejoin="round"/>
    <path d="M 409.7256164550781 307.58355712890625 C 407.05108642578125 331.5736083984375 412.1069030761719 327.87225341796875 398.7645568847656 353.28656005859375 C 400.4732666015625 345.7863464355469 394.5884704589844 316.70831298828125 371.0850830078125 314.2308654785156 C 374.7718505859375 314.7970886230469 378.109375 288.6936340332031 388.38885498046875 300.23211669921875 C 411.1556091308594 302.90252685546875 398.458740234375 333.1612548828125 409.7256164550781 307.58355712890625" stroke-width="0.0" fill="rgb(88, 169, 91)" opacity="0.9254987" stroke="rgb(0, 0, 0)" stroke-opacity="1.0" stroke-linecap="round" stroke-linejoin="round"/>
    <path d="M 295.0093078613281 474.1759033203125 C 297.0137634277344 459.879638671875 288.2584228515625 470.1136779785156 241.95587158203125 431.71710205078125 C 232.4682159423828 446.88336181640625 265.4061279296875 472.427978515625 329.6420593261719 446.4876708984375 C 270.131103515625 405.29595947265625 264.840576171875 421.6194152832031 277.8105163574219 424.0826721191406 C 279.12664794921875 426.91522216796875 311.0827941894531 447.9549560546875 295.0093078613281 474.1759033203125" stroke-width="0.0" fill="rgb(15, 62, 24)" opacity="0.6598788" stroke="rgb(0, 0, 0)" stroke-opacity="1.0" stroke-linecap="round" stroke-linejoin="round"/>
    <path d="M 242.39752197265625 315.4532775878906 C 255.21090698242188 337.60235595703125 248.2797393798828 346.4212951660156 221.2536163330078 326.3737487792969 C 232.44400024414062 294.4684753417969 219.16114807128906 286.10198974609375 214.34913635253906 269.325439453125 C 220.94134521484375 276.2747802734375 234.55426025390625 270.38006591796875 211.7892608642578 259.2789611816406 C 222.28858947753906 287.4051208496094 256.9418029785156 290.6487121582031 242.39752197265625 315.4532775878906" stroke-width="0.0" fill="rgb(89, 38, 17)" opacity="0.023357265" stroke="rgb(0, 0, 0)" stroke-opacity="1.0" stroke-linecap="round" stroke-linejoin="round"/>
    <path d="M 195.4303436279297 384.0704345703125 C 185.14649963378906 377.5934753417969 153.87599182128906 375.6306457519531 180.55218505859375 362.7236328125 C 157.76425170898438 352.9153137207031 135.06201171875 332.1806335449219 144.29537963867188 321.41082763671875 C 173.9058074951172 353.869140625 180.0233917236328 374.845458984375 145.58387756347656 381.0025939941406 C 159.79698181152344 343.6910705566406 144.2357177734375 371.5691833496094 195.4303436279297 384.0704345703125" stroke-width="0.0" fill="rgb(44, 79, 53)" opacity="0.7160687" stroke="rgb(0, 0, 0)" stroke-opacity="1.0" stroke-linecap="round" stroke-linejoin="round"/>
    <path d="M 437.5100402832031 169.84426879882812 C 421.9952697753906 186.17271423339844 402.4143981933594 186.73876953125 397.0097351074219 149.66043090820312 C 341.633544921875 143.09457397460938 363.6292419433594 168.40463256835938 402.227783203125 161.27049255371094 C 402.3374328613281 151.876953125 415.6886291503906 139.8199005126953 415.20977783203125 120.58342742919922 C 444.13970947265625 130.02049255371094 437.9661865234375 153.1790771484375 437.5100402832031 169.84426879882812" stroke-width="0.0" fill="rgb(223, 22, 77)" opacity="0.0010084306" stroke="rgb(0, 0, 0)" stroke-opacity="1.0" stroke-linecap="round" stroke-linejoin="round"/>
    <path d="M 86.80706024169922 486.6057434082031 C 92.85595703125 515.8001708984375 74.01654052734375 490.83697509765625 30.688949584960938 468.1743469238281 C 36.03159713745117 449.3426818847656 48.29551696777344 439.2866516113281 55.42622756958008 453.200927734375 C 62.7201042175293 448.3792419433594 89.36577606201172 410.0981750488281 66.29769134521484 417.0565490722656 C 83.4824447631836 437.3193054199219 115.15240478515625 427.71014404296875 86.80706024169922 486.6057434082031" stroke-width="0.0" fill="rgb(236, 80, 39)" opacity="0.04344717" stroke="rgb(0, 0, 0)" stroke-opacity="1.0" stroke-linecap="round" stroke-linejoin="round"/>
    <path d="M 96.7598876953125 159.29283142089844 C 96.76737976074219 171.9697723388672 84.93964385986328 159.41598510742188 76.38958740234375 155.2216796875 C 86.85963439941406 159.0340118408203 103.77079010009766 136.62841796875 96.03843688964844 124.90162658691406 C 72.22286224365234 119.55508422851562 74.77973937988281 111.41426849365234 89.88314819335938 105.04900360107422 C 105.95720672607422 106.30806732177734 110.40904235839844 110.9387435913086 96.7598876953125 159.29283142089844" stroke-width="0.0" fill="rgb(175, 180, 78)" opacity="0.11658125" stroke="rgb(0, 0, 0)" stroke-opacity="1.0" stroke-linecap="round" stroke-linejoin="round"/>
    <path d="M 331.0240783691406 102.83704376220703 C 330.8457946777344 125.09703063964844 352.9713439941406 151.05772399902344 291.1032409667969 131.1642608642578 C 300.26153564453125 94.0677261352539 305.7527160644531 95.12911987304688 316.59478759765625 79.36363220214844 C 313.5717468261719 86.32589721679688 318.5940246582031 84.89724731445312 312.10174560546875 79.42717742919922 C 318.3832702636719 89.8650894165039 337.7730712890625 103.23429107666016 331.0240783691406 102.83704376220703" stroke-width="0.0" fill="rgb(179, 36, 42)" opacity="0.0" stroke="rgb(0, 0, 0)" stroke-opacity="1.0" stroke-linecap="round" stroke-linejoin="round"/>
    <path d="M 460.765869140625 474.591552734375 C 495.6606140136719 483.8140563964844 478.5247802734375 505.70654296875 436.2428283691406 523.7537841796875 C 413.6376647949219 521.34814453125 383.970703125 508.7132568359375 394.42279052734375 478.77996826171875 C 408.7283935546875 479.6435241699219 444.1714172363281 463.6736755371094 465.2882385253906 489.060791015625 C 482.0232238769531 466.6366271972656 469.67193603515625 446.4449157714844 460.765869140625 474.591552734375" stroke-width="0.0" fill="rgb(234, 88, 51)" opacity="0.007963228" stroke="rgb(0, 0, 0)" stroke-opacity="1.0" stroke-linecap="round" stroke-linejoin="round"/>
    <path d="M 472.387451171875 -28.098941802978516 C 476.6712341308594 -18.467538833618164 456.9232177734375 3.5914998054504395 427.5327453613281 23.416118621826172 C 458.1829833984375 47.431617736816406 426.6523132324219 36.302860260009766 440.6517639160156 46.729427337646484 C 444.3971252441406 -7.247338771820068 447.9664611816406 -19.334041595458984 445.7195129394531 -17.690982818603516 C 475.6451110839844 -15.263940811157227 484.9078063964844 -9.626988410949707 472.387451171875 -28.098941802978516" stroke-width="0.0" fill="rgb(165, 38, 95)" opacity="0.06875198" stroke="rgb(0, 0, 0)" stroke-opacity="1.0" stroke-linecap="round" stroke-linejoin="round"/>
    <path d="M 482.7509460449219 15.615324974060059 C 482.7572326660156 49.80978775024414 490.1534423828125 60.829959869384766 476.71527099609375 25.360851287841797 C 471.01361083984375 18.645633697509766 442.3392333984375 36.920997619628906 450.2218322753906 61.32744216918945 C 458.18438720703125 4.434221267700195 473.8895568847656 9.752044677734375 478.2212829589844 -5.257465362548828 C 467.4543151855469 13.647428512573242 481.6374206542969 39.402374267578125 482.7509460449219 15.615324974060059" stroke-width="0.0" fill="rgb(205, 69, 40)" opacity="0.037628703" stroke="rgb(0, 0, 0)" stroke-opacity="1.0" stroke-linecap="round" stroke-linejoin="round"/>
    <path d="M 57.908226013183594 327.4389953613281 C 63.44868087768555 361.21435546875 48.86224365234375 349.5244445800781 37.98808670043945 338.06011962890625 C 32.99814224243164 329.2412109375 5.665496826171875 324.17828369140625 29.044065475463867 305.02978515625 C 24.69111442565918 308.9222412109375 7.819329261779785 295.9151611328125 28.64864158630371 308.6871643066406 C 45.156856536865234 293.5578918457031 61.08999252319336 308.01702880859375 57.908226013183594 327.4389953613281" stroke-width="0.0" fill="rgb(138, 72, 44)" opacity="0.14297958" stroke="rgb(0, 0, 0)" stroke-opacity="1.0" stroke-linecap="round" stroke-linejoin="round"/>
    <path d="M 225.51368713378906 409.47540283203125 C 194.40536499023438 455.5487976074219 189.87327575683594 463.9107666015625 192.98960876464844 445.538330078125 C 182.85662841796875 465.3727111816406 180.58119201660156 461.54766845703125 183.00930786132812 424.1368103027344 C 197.3392791748047 428.9107971191406 186.9654998779297 420.0460510253906 157.52508544921875 446.1543273925781 C 212.4713134765625 464.1070556640625 258.0011291503906 459.1393127441406 225.51368713378906 409.47540283203125" stroke-width="0.0" fill="rgb(0, 31, 95)" opacity="0.3739235" stroke="rgb(0, 0, 0)" stroke-opacity="1.0" stroke-linecap="round" stroke-linejoin="round"/>
    <path d="M 42.25189971923828 335.17864990234375 C 7.537875652313232 332.2981872558594 34.101173400878906 359.91497802734375 25.44697380065918 410.3742980957031 C 5.877893924713135 391.2679138183594 15.439886093139648 363.9735107421875 11.144521713256836 372.2060241699219 C 11.75465202331543 351.0014953613281 30.579410552978516 340.156982421875 54.83732986450195 349.7250671386719 C 44.02467346191406 377.2418518066406 49.47810363769531 359.48699951171875 42.25189971923828 335.17864990234375" stroke-width="0.0" fill="rgb(200, 109, 78)" opacity="0.025444675" stroke="rgb(0, 0, 0)" stroke-opacity="1.0" stroke-linecap="round" stroke-linejoin="round"/>
    <path d="M 172.3563232421875 446.32958984375 C 198.97702026367188 453.2879333496094 225.6947021484375 471.0805358886719 209.3278350830078 443.9402160644531 C 188.2179718017578 443.1988220214844 165.2887420654297 447.8263244628906 149.7742156982422 430.0888977050781 C 167.52308654785156 434.6358947753906 173.5159454345703 438.9617614746094 180.3605499267578 411.759033203125 C 189.0342559814453 399.0179138183594 168.55453491210938 399.4793701171875 172.3563232421875 446.32958984375" stroke-width="0.0" fill="rgb(76, 63, 41)" opacity="0.15996161" stroke="rgb(0, 0, 0)" stroke-opacity="1.0" stroke-linecap="round" stroke-linejoin="round"/>
    <path d="M 368.7450256347656 207.44789123535156 C 364.04339599609375 256.1984558105469 334.39935302734375 261.4986267089844 305.5751647949219 218.91159057617188 C 325.5941467285156 178.5186309814453 338.3099365234375 206.87081909179688 331.1612854003906 221.69329833984375 C 304.9895935058594 201.8921661376953 319.3315124511719 202.3632049560547 315.3929443359375 225.55099487304688 C 289.51263427734375 186.20315551757812 309.28204345703125 183.59432983398438 368.7450256347656 207.44789123535156" stroke-width="0.0" fill="rgb(7, 242, 207)" opacity="0.2410131" stroke="rgb(0, 0, 0)" stroke-opacity="1.0" stroke-linecap="round" stroke-linejoin="round"/>
    <path d="M 170.206298828125 279.3453063964844 C 156.26983642578125 248.74761962890625 164.43663024902344 262.9625549316406 162.18905639648438 269.8799133300781 C 171.79039001464844 277.3021240234375 161.02098083496094 261.6184997558594 156.07432556152344 239.69778442382812 C 158.1670684814453 232.12918090820312 161.43983459472656 226.44761657714844 150.51377868652344 218.2856903076172 C 191.3841552734375 205.2386932373047 177.41070556640625 259.32977294921875 170.206298828125 279.3453063964844" stroke-width="0.0" fill="rgb(236, 218, 173)" opacity="0.013671203" stroke="rgb(0, 0, 0)" stroke-opacity="1.0" stroke-linecap="round" stroke-linejoin="round"/>
    <path d="M 184.8158416748047 428.0132141113281 C 204.2095184326172 460.6391906738281 198.6103973388672 466.1426086425781 169.41664123535156 451.3407897949219 C 148.24134826660156 454.0704040527344 137.0574493408203 432.26849365234375 165.90350341796875 447.4501037597656 C 175.79000854492188 439.592529296875 178.74746704101562 437.56964111328125 158.305908203125 438.9636535644531 C 162.21031188964844 435.4450988769531 188.5346221923828 438.56243896484375 184.8158416748047 428.0132141113281" stroke-width="0.0" fill="rgb(140, 65, 37)" opacity="0.06849413" stroke="rgb(0, 0, 0)" stroke-opacity="1.0" stroke-linecap="round" stroke-linejoin="round"/>
    <path d="M 518.063720703125 237.7753448486328 C 530.4067993164062 259.4838562011719 525.7948608398438 263.79144287109375 481.3284912109375 253.75192260742188 C 463.6328125 275.0766906738281 470.7914733886719 257.10174560546875 481.2748718261719 231.0369873046875 C 465.5954895019531 220.8954620361328 464.9201965332031 216.898681640625 477.1058044433594 212.28524780273438 C 484.0787048339844 230.28829956054688 498.35784912109375 236.7767333984375 518.063720703125 237.7753448486328" stroke-width="0.0" fill="rgb(220, 37, 23)" opacity="0.01655466" stroke="rgb(0, 0, 0)" stroke-opacity="1.0" stroke-linecap="round" stroke-linejoin="round"/>
  </g>
</svg>
