<?xml version="1.0" ?>
<svg xmlns="http://www.w3.org/2000/svg" version="1.1" width="512" height="512">
  <defs/>
  <g>
    <path d="M 525.931396484375 453.35638427734375 C 444.2356872558594 456.14959716796875 404.9148254394531 566.2515258789062 526.1543579101562 563.0037231445312 C 577.1591796875 395.7324523925781 510.2339172363281 427.3438720703125 477.9051513671875 430.20361328125 C 463.7833557128906 480.82373046875 477.79949951171875 452.17523193359375 488.6853332519531 451.999755859375 C 538.4401245117188 442.0885925292969 565.431396484375 442.3197021484375 525.931396484375 453.35638427734375" stroke-width="0.0" fill="rgb(89, 43, 103)" opacity="0.84182507" stroke="rgb(0, 0, 0)" stroke-opacity="1.0" stroke-linecap="round" stroke-linejoin="round"/>
    <path d="M 269.0587463378906 526.1060180664062 C 269.9383239746094 532.6143798828125 192.19918823242188 560.99609375 132.0074005126953 419.4309997558594 C 15.492374420166016 412.5232849121094 138.1518096923828 394.1216125488281 -48.071956634521484 350.2287292480469 C 36.58567428588867 204.7497100830078 -47.54963302612305 276.91168212890625 -5.806504726409912 216.77447509765625 C 128.025146484375 97.37102508544922 193.91908264160156 224.9385986328125 269.0587463378906 526.1060180664062" stroke-width="0.0" fill="rgb(61, 201, 0)" opacity="1.0" stroke="rgb(0, 0, 0)" stroke-opacity="1.0" stroke-linecap="round" stroke-linejoin="round"/>
    <path d="M 427.4087829589844 141.86196899414062 C 448.2894592285156 335.57476806640625 432.33184814453125 334.07415771484375 270.9577331542969 330.24456787109375 C 140.53704833984375 335.9035339355469 101.41007232666016 321.8782958984375 244.00250244140625 85.74602508544922 C 155.2910919189453 97.29058837890625 200.43136596679688 48.127418518066406 386.3948669433594 28.50645637512207 C 402.294921875 119.26705169677734 469.45758056640625 39.590457916259766 427.4087829589844 141.86196899414062" stroke-width="0.0" fill="rgb(143, 248, 20)" opacity="0.87471133" stroke="rgb(0, 0, 0)" stroke-opacity="1.0" stroke-linecap="round" stroke-linejoin="round"/>
    <path d="M 342.05218505859375 157.19581604003906 C 387.6243591308594 367.22247314453125 284.2019348144531 409.71112060546875 169.66748046875 328.5545349121094 C 71.06237030029297 216.32078552246094 7.913139343261719 288.24432373046875 64.73127746582031 163.175048828125 C 46.11091232299805 73.28085327148438 153.8189697265625 88.33373260498047 144.77041625976562 42.42607498168945 C 218.19717407226562 -23.721908569335938 264.03607177734375 -0.0077354758977890015 342.05218505859375 157.19581604003906" stroke-width="0.0" fill="rgb(182, 115, 172)" opacity="0.9330768" stroke="rgb(0, 0, 0)" stroke-opacity="1.0" stroke-linecap="round" stroke-linejoin="round"/>
    <path d="M 456.1488037109375 397.5694885253906 C 406.76751708984375 496.2017822265625 370.0931396484375 310.8693542480469 419.1990966796875 456.1248474121094 C 237.6712188720703 511.78704833984375 334.6206359863281 501.9294128417969 294.77789306640625 446.1345520019531 C 221.89199829101562 245.91458129882812 249.50099182128906 285.7902526855469 292.8731689453125 210.13449096679688 C 425.38262939453125 118.21905517578125 537.5840454101562 171.3213348388672 456.1488037109375 397.5694885253906" stroke-width="0.0" fill="rgb(177, 79, 202)" opacity="0.7216235" stroke="rgb(0, 0, 0)" stroke-opacity="1.0" stroke-linecap="round" stroke-linejoin="round"/>
    <path d="M 506.7784729003906 226.52304077148438 C 548.40771484375 317.8867492675781 490.4922180175781 231.04579162597656 566.128173828125 350.83929443359375 C 455.61474609375 424.8758850097656 264.72967529296875 318.88031005859375 452.85040283203125 197.64578247070312 C 335.03643798828125 195.349365234375 378.89593505859375 100.81501770019531 416.8473205566406 124.00569152832031 C 440.63739013671875 204.39817810058594 490.2071533203125 159.66880798339844 506.7784729003906 226.52304077148438" stroke-width="0.0" fill="rgb(0, 94, 45)" opacity="1.0" stroke="rgb(0, 0, 0)" stroke-opacity="1.0" stroke-linecap="round" stroke-linejoin="round"/>
    <path d="M 430.525390625 204.3687286376953 C 315.1716003417969 266.9469299316406 320.9529724121094 276.745361328125 284.42327880859375 293.9792785644531 C 238.8378143310547 321.48590087890625 298.4666748046875 339.9678955078125 62.597164154052734 197.1698760986328 C 299.5619812011719 209.52796936035156 178.0694580078125 293.3946228027344 284.90704345703125 254.53147888183594 C 347.8739929199219 203.00926208496094 442.48211669921875 147.70787048339844 430.525390625 204.3687286376953" stroke-width="0.0" fill="rgb(14, 232, 0)" opacity="0.9880359" stroke="rgb(0, 0, 0)" stroke-opacity="1.0" stroke-linecap="round" stroke-linejoin="round"/>
    <path d="M 385.2272644042969 180.02516174316406 C 395.01434326171875 209.9079132080078 364.08978271484375 206.9486846923828 343.4114685058594 226.7705078125 C 314.21661376953125 242.26959228515625 327.831298828125 231.9412841796875 282.3712158203125 236.9163055419922 C 338.21392822265625 74.01213073730469 254.60397338867188 179.52223205566406 361.8664245605469 141.3526153564453 C 398.8440856933594 178.06544494628906 517.9044799804688 210.90293884277344 385.2272644042969 180.02516174316406" stroke-width="0.0" fill="rgb(6, 14, 104)" opacity="0.755748" stroke="rgb(0, 0, 0)" stroke-opacity="1.0" stroke-linecap="round" stroke-linejoin="round"/>
    <path d="M 256.234130859375 271.2077331542969 C 224.0938262939453 282.68572998046875 272.4112854003906 259.2858581542969 273.6949157714844 244.34158325195312 C 249.57472229003906 246.951904296875 211.52749633789062 263.76983642578125 135.72732543945312 199.11183166503906 C 230.6056671142578 174.16073608398438 158.9260711669922 245.9641571044922 203.18331909179688 213.83595275878906 C 234.35191345214844 229.103515625 243.75396728515625 274.00762939453125 256.234130859375 271.2077331542969" stroke-width="0.0" fill="rgb(198, 136, 143)" opacity="0.7854716" stroke="rgb(0, 0, 0)" stroke-opacity="1.0" stroke-linecap="round" stroke-linejoin="round"/>
    <path d="M 449.6490783691406 216.84934997558594 C 284.75244140625 324.127197265625 551.2462158203125 249.3861846923828 461.0492858886719 380.7972412109375 C 179.3451690673828 372.73248291015625 166.28550720214844 364.2796325683594 232.4818878173828 356.6127014160156 C 365.3759765625 238.4618682861328 380.2481384277344 241.40093994140625 393.48095703125 266.921630859375 C 407.9452819824219 262.1005554199219 454.6360778808594 216.21337890625 449.6490783691406 216.84934997558594" stroke-width="0.0" fill="rgb(16, 90, 2)" opacity="0.715125" stroke="rgb(0, 0, 0)" stroke-opacity="1.0" stroke-linecap="round" stroke-linejoin="round"/>
    <path d="M 163.47862243652344 69.8629379272461 C 228.75784301757812 84.79258728027344 240.57723999023438 156.44000244140625 197.8836669921875 113.97872161865234 C 109.53069305419922 153.42872619628906 -50.63510513305664 298.266357421875 63.63228225708008 47.44786071777344 C 300.648681640625 78.17415618896484 245.05088806152344 197.74017333984375 144.72650146484375 47.58310317993164 C 334.343994140625 -26.640869140625 220.23245239257812 64.26472473144531 163.47862243652344 69.8629379272461" stroke-width="0.0" fill="rgb(64, 138, 24)" opacity="0.99887204" stroke="rgb(0, 0, 0)" stroke-opacity="1.0" stroke-linecap="round" stroke-linejoin="round"/>
    <path d="M 139.75491333007812 405.4024353027344 C 170.77081298828125 414.8914794921875 190.09115600585938 404.9237976074219 162.0355682373047 454.9351501464844 C 119.9406967163086 413.2908630371094 131.74249267578125 429.643310546875 117.6171646118164 376.3796081542969 C 131.6704559326172 357.4604187011719 106.75315856933594 315.66705322265625 160.23867797851562 306.3730773925781 C 146.72813415527344 384.5126953125 159.59478759765625 376.49853515625 139.75491333007812 405.4024353027344" stroke-width="0.0" fill="rgb(121, 214, 50)" opacity="0.00044192758" stroke="rgb(0, 0, 0)" stroke-opacity="1.0" stroke-linecap="round" stroke-linejoin="round"/>
    <path d="M 441.27838134765625 39.34819793701172 C 424.09259033203125 125.60250091552734 418.6788635253906 140.89572143554688 373.47900390625 83.93284606933594 C 361.50933837890625 77.73226165771484 386.6760559082031 86.47603607177734 400.62158203125 74.03150939941406 C 367.51568603515625 70.2120361328125 378.7027893066406 56.10652160644531 374.6584167480469 76.08179473876953 C 403.59442138671875 75.14369201660156 368.4528503417969 51.0986328125 441.27838134765625 39.34819793701172" stroke-width="0.0" fill="rgb(171, 232, 115)" opacity="0.10724785" stroke="rgb(0, 0, 0)" stroke-opacity="1.0" stroke-linecap="round" stroke-linejoin="round"/>
    <path d="M 542.04541015625 70.4085922241211 C 519.0823364257812 110.618896484375 499.7452697753906 83.36808776855469 470.18878173828125 48.6305046081543 C 450.30548095703125 29.62559700012207 464.0011291503906 28.217140197753906 442.77789306640625 43.845523834228516 C 432.54791259765625 -3.9002034664154053 443.0697937011719 -26.772140502929688 465.6593017578125 -39.48751449584961 C 504.9688415527344 -19.909107208251953 522.3434448242188 -20.76429557800293 542.04541015625 70.4085922241211" stroke-width="0.0" fill="rgb(166, 23, 177)" opacity="0.45318657" stroke="rgb(0, 0, 0)" stroke-opacity="1.0" stroke-linecap="round" stroke-linejoin="round"/>
    <path d="M 342.8465881347656 490.26129150390625 C 339.260498046875 527.0386352539062 354.1622314453125 477.89825439453125 314.152099609375 515.4913940429688 C 154.3277587890625 556.8338623046875 135.6034393310547 467.7049255371094 167.3548583984375 473.9856262207031 C 212.94036865234375 411.0238037109375 217.88291931152344 365.5769348144531 313.0755920410156 329.38189697265625 C 451.8457336425781 300.5972595214844 425.0497131347656 276.7903747558594 342.8465881347656 490.26129150390625" stroke-width="0.0" fill="rgb(60, 196, 4)" opacity="1.0" stroke="rgb(0, 0, 0)" stroke-opacity="1.0" stroke-linecap="round" stroke-linejoin="round"/>
    <path d="M 239.61819458007812 284.95458984375 C 271.1502990722656 342.46881103515625 259.08441162109375 265.3876037597656 226.4064483642578 348.19036865234375 C 134.3878173828125 285.52685546875 34.675941467285156 232.80545043945312 64.11249542236328 230.04458618164062 C 84.27249908447266 204.76077270507812 162.99038696289062 294.3712158203125 243.89064025878906 319.1387023925781 C 267.00286865234375 259.5190734863281 230.52418518066406 244.14285278320312 239.61819458007812 284.95458984375" stroke-width="0.0" fill="rgb(238, 101, 32)" opacity="0.20970502" stroke="rgb(0, 0, 0)" stroke-opacity="1.0" stroke-linecap="round" stroke-linejoin="round"/>
    <path d="M 418.5875244140625 447.0567626953125 C 406.220703125 455.27044677734375 325.3904724121094 418.0854797363281 337.5199279785156 512.014404296875 C 376.97454833984375 476.7083435058594 355.3798522949219 440.3306579589844 312.2613830566406 528.9920043945312 C 248.0014190673828 393.4290466308594 256.07379150390625 320.3548583984375 361.509521484375 320.93804931640625 C 390.8792419433594 411.4708251953125 393.7740783691406 389.74786376953125 418.5875244140625 447.0567626953125" stroke-width="0.0" fill="rgb(0, 34, 86)" opacity="0.44779584" stroke="rgb(0, 0, 0)" stroke-opacity="1.0" stroke-linecap="round" stroke-linejoin="round"/>
    <path d="M 298.91741943359375 135.0619354248047 C 400.35479736328125 130.31141662597656 361.4913024902344 152.6865234375 309.90185546875 163.61492919921875 C 233.88699340820312 136.82125854492188 293.8180236816406 177.29920959472656 252.99844360351562 110.60509490966797 C 248.1276397705078 52.91968536376953 302.90692138671875 5.669340133666992 294.1705322265625 75.13565826416016 C 316.4123229980469 126.27690887451172 380.68353271484375 90.76127624511719 298.91741943359375 135.0619354248047" stroke-width="0.0" fill="rgb(35, 76, 146)" opacity="0.9826023" stroke="rgb(0, 0, 0)" stroke-opacity="1.0" stroke-linecap="round" stroke-linejoin="round"/>
    <path d="M 429.0692443847656 302.9081726074219 C 274.84246826171875 363.45538330078125 294.09039306640625 385.3699035644531 292.81695556640625 374.45794677734375 C 246.85464477539062 428.55816650390625 207.84388732910156 362.369140625 93.90987396240234 295.12445068359375 C 113.58509826660156 263.5618896484375 142.17523193359375 289.0617980957031 250.76048278808594 357.8597412109375 C 411.4122009277344 241.24078369140625 545.5740356445312 160.54176330566406 429.0692443847656 302.9081726074219" stroke-width="0.0" fill="rgb(17, 252, 33)" opacity="0.96789503" stroke="rgb(0, 0, 0)" stroke-opacity="1.0" stroke-linecap="round" stroke-linejoin="round"/>
    <path d="M 434.1788635253906 194.7845458984375 C 394.6939392089844 188.76992797851562 392.2947998046875 216.92257690429688 348.926025390625 213.91067504882812 C 385.23150634765625 183.07945251464844 346.8555908203125 223.3028564453125 320.7381591796875 231.14523315429688 C 335.64813232421875 204.6934356689453 372.841796875 241.06187438964844 358.0621643066406 148.95201110839844 C 387.9417724609375 165.4485321044922 425.10382080078125 172.12899780273438 434.1788635253906 194.7845458984375" stroke-width="0.0" fill="rgb(13, 62, 80)" opacity="0.92239517" stroke="rgb(0, 0, 0)" stroke-opacity="1.0" stroke-linecap="round" stroke-linejoin="round"/>
    <path d="M 454.9433898925781 222.5579833984375 C 439.9638366699219 245.3019561767578 488.3353576660156 233.4202423095703 436.5263366699219 258.13092041015625 C 338.3188781738281 304.8667907714844 330.1877136230469 278.845947265625 428.3470153808594 208.8238067626953 C 422.0657043457031 169.9529266357422 405.7470397949219 194.94459533691406 398.9036560058594 174.6217041015625 C 478.20263671875 211.659912109375 439.956298828125 207.12533569335938 454.9433898925781 222.5579833984375" stroke-width="0.0" fill="rgb(230, 9, 200)" opacity="0.5326112" stroke="rgb(0, 0, 0)" stroke-opacity="1.0" stroke-linecap="round" stroke-linejoin="round"/>
    <path d="M 154.5704345703125 317.7815856933594 C 140.99203491210938 291.7384338378906 113.79412078857422 319.7838439941406 71.33645629882812 294.8304138183594 C 46.90343475341797 280.7724609375 91.2917251586914 304.3101806640625 -35.452877044677734 236.83702087402344 C 25.35080909729004 205.12525939941406 16.529890060424805 215.63807678222656 99.90672302246094 261.87457275390625 C 140.2849884033203 286.22650146484375 156.203857421875 305.3177490234375 154.5704345703125 317.7815856933594" stroke-width="0.0" fill="rgb(13, 250, 24)" opacity="0.93772846" stroke="rgb(0, 0, 0)" stroke-opacity="1.0" stroke-linecap="round" stroke-linejoin="round"/>
    <path d="M 51.17221450805664 65.20169067382812 C 86.1820068359375 42.32599639892578 57.298065185546875 24.837270736694336 73.51068878173828 49.09572982788086 C 109.61454772949219 28.64148712158203 119.06420135498047 -36.919559478759766 -6.920880317687988 -45.377254486083984 C -33.04025650024414 141.87509155273438 9.753416061401367 93.93356323242188 41.02592849731445 71.35360717773438 C 68.26454162597656 54.88152313232422 48.69484329223633 69.22692108154297 51.17221450805664 65.20169067382812" stroke-width="0.0" fill="rgb(73, 13, 123)" opacity="0.51468825" stroke="rgb(0, 0, 0)" stroke-opacity="1.0" stroke-linecap="round" stroke-linejoin="round"/>
    <path d="M 320.00848388671875 174.87550354003906 C 314.5040588378906 209.5984649658203 338.13250732421875 216.62838745117188 315.5875549316406 223.4214324951172 C 248.86842346191406 263.3393859863281 254.97625732421875 270.0903625488281 255.22177124023438 162.4645233154297 C 272.6991882324219 189.9525146484375 260.2861328125 209.1628875732422 278.1201171875 127.33885192871094 C 294.9021911621094 144.65298461914062 299.69158935546875 162.64366149902344 320.00848388671875 174.87550354003906" stroke-width="0.0" fill="rgb(30, 56, 134)" opacity="0.9318646" stroke="rgb(0, 0, 0)" stroke-opacity="1.0" stroke-linecap="round" stroke-linejoin="round"/>
    <path d="M 159.22227478027344 481.87127685546875 C 151.06553649902344 464.5141906738281 170.76339721679688 481.73187255859375 139.45947265625 496.4736328125 C 138.43228149414062 475.5862731933594 136.48377990722656 477.5264587402344 125.70013427734375 458.9673156738281 C 95.80452728271484 438.2018127441406 69.95487213134766 407.40618896484375 121.35304260253906 406.9947814941406 C 171.6816864013672 451.94696044921875 157.55776977539062 481.2319641113281 159.22227478027344 481.87127685546875" stroke-width="0.0" fill="rgb(255, 86, 153)" opacity="0.09890762" stroke="rgb(0, 0, 0)" stroke-opacity="1.0" stroke-linecap="round" stroke-linejoin="round"/>
    <path d="M 84.15398406982422 249.67935180664062 C 158.47113037109375 238.3199462890625 83.76997375488281 228.43113708496094 109.85517883300781 241.3486785888672 C 113.0545883178711 220.3028564453125 76.28067779541016 205.6083984375 39.56499099731445 203.500732421875 C 57.012107849121094 201.40362548828125 56.0944938659668 205.98822021484375 84.15550994873047 184.72178649902344 C 110.19993591308594 273.140625 92.39761352539062 279.3228454589844 84.15398406982422 249.67935180664062" stroke-width="0.0" fill="rgb(63, 229, 207)" opacity="0.18136425" stroke="rgb(0, 0, 0)" stroke-opacity="1.0" stroke-linecap="round" stroke-linejoin="round"/>
    <path d="M 107.61447143554688 163.35964965820312 C 99.9024429321289 165.17758178710938 85.0533218383789 144.29751586914062 62.24476623535156 164.14576721191406 C 71.22361755371094 220.3265838623047 34.94963455200195 207.0654296875 36.103458404541016 88.44477081298828 C 33.70648956298828 80.34366607666016 107.18280792236328 89.06201171875 107.26969146728516 91.65235900878906 C 109.52495574951172 122.16007995605469 115.1319351196289 150.58883666992188 107.61447143554688 163.35964965820312" stroke-width="0.0" fill="rgb(122, 255, 8)" opacity="1.0" stroke="rgb(0, 0, 0)" stroke-opacity="1.0" stroke-linecap="round" stroke-linejoin="round"/>
    <path d="M 284.3771667480469 220.89895629882812 C 355.6979064941406 246.70640563964844 294.4573669433594 243.23709106445312 292.08282470703125 219.60137939453125 C 290.6969299316406 230.31410217285156 294.4523620605469 212.8675994873047 219.99205017089844 179.83926391601562 C 236.33853149414062 233.46636962890625 255.9927215576172 206.5469512939453 248.3973846435547 198.58956909179688 C 264.70928955078125 170.64480590820312 267.6354064941406 158.8896942138672 284.3771667480469 220.89895629882812" stroke-width="0.0" fill="rgb(28, 35, 162)" opacity="0.22076575" stroke="rgb(0, 0, 0)" stroke-opacity="1.0" stroke-linecap="round" stroke-linejoin="round"/>
    <path d="M 245.2301483154297 162.5498046875 C 208.0323486328125 120.53568267822266 217.17843627929688 113.53614044189453 224.32237243652344 107.8198013305664 C 204.9691925048828 102.42735290527344 186.18980407714844 173.42605590820312 78.00199890136719 198.68341064453125 C 171.5695037841797 126.71513366699219 215.35116577148438 129.46328735351562 208.76283264160156 111.95039367675781 C 261.0436096191406 95.57132720947266 276.8193359375 106.12374114990234 245.2301483154297 162.5498046875" stroke-width="0.0" fill="rgb(23, 53, 75)" opacity="0.88952595" stroke="rgb(0, 0, 0)" stroke-opacity="1.0" stroke-linecap="round" stroke-linejoin="round"/>
    <path d="M 72.35093688964844 533.7999877929688 C 42.45839309692383 539.5292358398438 15.03414249420166 530.3245849609375 0.8111952543258667 530.5191040039062 C -9.364206314086914 527.7437133789062 -16.68471336364746 520.4232177734375 -21.20284080505371 510.0506896972656 C -18.48799705505371 494.70721435546875 -31.987857818603516 464.11956787109375 -41.391700744628906 444.90716552734375 C 40.24550247192383 459.8475341796875 52.831451416015625 465.8359680175781 72.35093688964844 533.7999877929688" stroke-width="0.0" fill="rgb(130, 25, 128)" opacity="0.45459217" stroke="rgb(0, 0, 0)" stroke-opacity="1.0" stroke-linecap="round" stroke-linejoin="round"/>
    <path d="M 212.26715087890625 129.63406372070312 C 260.0252990722656 134.79635620117188 165.66648864746094 124.59732818603516 125.1986083984375 210.25685119628906 C 41.942893981933594 210.5753936767578 107.15088653564453 214.0164794921875 156.54885864257812 194.97845458984375 C 132.64892578125 210.18240356445312 140.40869140625 229.83106994628906 93.96389770507812 208.99252319335938 C 125.10765838623047 159.02122497558594 123.29591369628906 177.52345275878906 212.26715087890625 129.63406372070312" stroke-width="0.0" fill="rgb(50, 247, 10)" opacity="0.9758133" stroke="rgb(0, 0, 0)" stroke-opacity="1.0" stroke-linecap="round" stroke-linejoin="round"/>
    <path d="M 467.59112548828125 234.35433959960938 C 324.6664123535156 291.3631896972656 321.5135498046875 332.6156311035156 339.09503173828125 335.2208557128906 C 306.110595703125 337.43084716796875 240.30812072753906 372.85308837890625 252.60113525390625 323.74163818359375 C 295.1565246582031 284.74041748046875 309.5591735839844 283.6595153808594 363.1631774902344 276.6746520996094 C 292.78179931640625 307.13421630859375 398.0091247558594 192.0931396484375 467.59112548828125 234.35433959960938" stroke-width="0.0" fill="rgb(3, 18, 95)" opacity="0.8047791" stroke="rgb(0, 0, 0)" stroke-opacity="1.0" stroke-linecap="round" stroke-linejoin="round"/>
    <path d="M 259.3633728027344 117.56748962402344 C 238.05642700195312 183.2921142578125 238.71969604492188 143.8072052001953 204.82733154296875 126.52261352539062 C 178.44361877441406 107.643798828125 162.36038208007812 102.5071792602539 163.13023376464844 99.63369750976562 C 186.85360717773438 106.06028747558594 189.46583557128906 83.22466278076172 185.3098907470703 62.874977111816406 C 211.97962951660156 91.90914154052734 246.26870727539062 69.04804992675781 259.3633728027344 117.56748962402344" stroke-width="0.0" fill="rgb(199, 176, 201)" opacity="0.9515739" stroke="rgb(0, 0, 0)" stroke-opacity="1.0" stroke-linecap="round" stroke-linejoin="round"/>
    <path d="M 193.760986328125 95.32410430908203 C 174.6798553466797 102.48103332519531 164.31240844726562 94.32722473144531 186.4932403564453 95.5611801147461 C 141.46319580078125 59.06105041503906 129.70977783203125 146.3152313232422 152.3594207763672 98.36460876464844 C 120.53108978271484 24.242637634277344 140.9078369140625 -23.061670303344727 213.82008361816406 6.181294918060303 C 223.68820190429688 101.54186248779297 216.02210998535156 72.5023422241211 193.760986328125 95.32410430908203" stroke-width="0.0" fill="rgb(99, 221, 0)" opacity="0.9794349" stroke="rgb(0, 0, 0)" stroke-opacity="1.0" stroke-linecap="round" stroke-linejoin="round"/>
    <path d="M 432.54638671875 70.88849639892578 C 397.83978271484375 92.81649017333984 369.31072998046875 101.23139953613281 343.5073547363281 134.82566833496094 C 368.536376953125 160.0923309326172 380.400146484375 125.92625427246094 358.4383239746094 82.30421447753906 C 376.60211181640625 97.132080078125 344.0662536621094 115.66838073730469 347.2391662597656 85.13257598876953 C 378.0086669921875 102.35860443115234 395.0189514160156 70.11703491210938 432.54638671875 70.88849639892578" stroke-width="0.0" fill="rgb(162, 255, 58)" opacity="0.3493173" stroke="rgb(0, 0, 0)" stroke-opacity="1.0" stroke-linecap="round" stroke-linejoin="round"/>
    <path d="M 318.4017028808594 497.4622497558594 C 334.044189453125 518.6328735351562 329.7685852050781 521.6051025390625 310.3606872558594 528.2354736328125 C 277.31201171875 554.801513671875 279.4001159667969 549.1526489257812 280.7056884765625 463.3838195800781 C 283.2278747558594 436.61370849609375 285.6919250488281 432.1151428222656 280.42633056640625 413.4112548828125 C 302.23333740234375 449.7146301269531 306.3149108886719 470.30517578125 318.4017028808594 497.4622497558594" stroke-width="0.0" fill="rgb(0, 116, 24)" opacity="0.42424536" stroke="rgb(0, 0, 0)" stroke-opacity="1.0" stroke-linecap="round" stroke-linejoin="round"/>
    <path d="M 311.1869812011719 188.58168029785156 C 321.9276123046875 161.3912353515625 320.0341491699219 153.6895294189453 319.94403076171875 201.8166961669922 C 297.0755615234375 166.83187866210938 299.08380126953125 159.1256866455078 245.28509521484375 151.54713439941406 C 256.8133544921875 163.78109741210938 296.8221435546875 168.61212158203125 290.90826416015625 185.66021728515625 C 290.9411926269531 170.85667419433594 330.7350769042969 190.10775756835938 311.1869812011719 188.58168029785156" stroke-width="0.0" fill="rgb(51, 63, 145)" opacity="0.24364372" stroke="rgb(0, 0, 0)" stroke-opacity="1.0" stroke-linecap="round" stroke-linejoin="round"/>
    <path d="M 256.62799072265625 30.70040512084961 C 284.3636474609375 43.585445404052734 271.3085021972656 42.25623321533203 264.802001953125 29.385108947753906 C 272.6331481933594 67.38123321533203 279.7522888183594 24.228092193603516 278.1987609863281 -28.674304962158203 C 249.25294494628906 -37.856380462646484 265.7151184082031 -38.832462310791016 244.36907958984375 1.6014541387557983 C 269.6756591796875 0.6815351843833923 253.7715301513672 32.83250045776367 256.62799072265625 30.70040512084961" stroke-width="0.0" fill="rgb(142, 24, 255)" opacity="0.90901977" stroke="rgb(0, 0, 0)" stroke-opacity="1.0" stroke-linecap="round" stroke-linejoin="round"/>
    <path d="M 360.7249450683594 239.95169067382812 C 367.8525390625 239.1603546142578 367.3279113769531 256.42779541015625 353.33807373046875 251.33114624023438 C 295.04034423828125 281.2537841796875 306.4468078613281 273.1427917480469 310.3304138183594 242.54148864746094 C 342.0102844238281 250.91053771972656 358.5806884765625 257.985595703125 336.34796142578125 271.4251403808594 C 312.7459716796875 246.55935668945312 346.1327209472656 232.32350158691406 360.7249450683594 239.95169067382812" stroke-width="0.0" fill="rgb(177, 165, 104)" opacity="0.044228036" stroke="rgb(0, 0, 0)" stroke-opacity="1.0" stroke-linecap="round" stroke-linejoin="round"/>
    <path d="M 198.8245849609375 84.92591857910156 C 179.5185546875 79.47611236572266 177.527099609375 89.02886962890625 177.216064453125 94.1065902709961 C 195.42474365234375 81.2049560546875 171.30545043945312 86.3486557006836 177.65188598632812 65.27633666992188 C 172.13787841796875 69.7469482421875 180.461669921875 74.76154327392578 168.97393798828125 74.4621810913086 C 173.0822296142578 70.42379760742188 184.15379333496094 84.99458312988281 198.8245849609375 84.92591857910156" stroke-width="0.0" fill="rgb(106, 214, 17)" opacity="0.0" stroke="rgb(0, 0, 0)" stroke-opacity="1.0" stroke-linecap="round" stroke-linejoin="round"/>
    <path d="M 562.6502075195312 418.4602966308594 C 529.3845825195312 448.22515869140625 501.67291259765625 479.49163818359375 469.7921447753906 488.17779541015625 C 472.1962890625 512.5116577148438 441.110107421875 505.0604248046875 465.5790710449219 468.2409362792969 C 460.2128601074219 423.0628356933594 459.30218505859375 445.1477355957031 464.8572692871094 411.2882080078125 C 509.1524963378906 392.98052978515625 539.9237060546875 406.0002136230469 562.6502075195312 418.4602966308594" stroke-width="0.0" fill="rgb(167, 92, 142)" opacity="0.778947" stroke="rgb(0, 0, 0)" stroke-opacity="1.0" stroke-linecap="round" stroke-linejoin="round"/>
    <path d="M 329.3211975097656 479.56427001953125 C 339.48614501953125 480.4051513671875 336.3452453613281 481.4374084472656 311.10211181640625 498.5619812011719 C 312.3608093261719 496.7890625 319.4377746582031 489.1808776855469 316.24078369140625 495.86065673828125 C 319.8728332519531 480.8860168457031 324.8226318359375 509.1124267578125 350.5015869140625 498.6841125488281 C 342.1248779296875 441.21893310546875 342.0955810546875 466.9584045410156 329.3211975097656 479.56427001953125" stroke-width="0.0" fill="rgb(17, 126, 61)" opacity="0.20807068" stroke="rgb(0, 0, 0)" stroke-opacity="1.0" stroke-linecap="round" stroke-linejoin="round"/>
    <path d="M 469.9607238769531 381.0887451171875 C 480.7777099609375 428.2349548339844 470.29290771484375 443.87158203125 427.8385314941406 447.5062255859375 C 385.565185546875 435.2327880859375 396.63177490234375 440.1939392089844 405.8583984375 390.95196533203125 C 422.0855712890625 396.5160217285156 437.6268615722656 392.2558898925781 451.1387023925781 373.8160095214844 C 460.1413879394531 361.3722229003906 446.37200927734375 354.07513427734375 469.9607238769531 381.0887451171875" stroke-width="0.0" fill="rgb(143, 99, 210)" opacity="1.0" stroke="rgb(0, 0, 0)" stroke-opacity="1.0" stroke-linecap="round" stroke-linejoin="round"/>
    <path d="M 437.6226806640625 396.7214050292969 C 411.2781982421875 412.25579833984375 396.813720703125 423.8475341796875 386.4338073730469 421.8160400390625 C 381.83270263671875 422.791259765625 372.91815185546875 410.4245300292969 386.86187744140625 366.92559814453125 C 377.6113586425781 378.9033508300781 381.66180419921875 365.1451721191406 370.2256774902344 370.6055908203125 C 430.82525634765625 361.7610168457031 460.7177429199219 373.4742431640625 437.6226806640625 396.7214050292969" stroke-width="0.0" fill="rgb(2, 133, 16)" opacity="0.92832786" stroke="rgb(0, 0, 0)" stroke-opacity="1.0" stroke-linecap="round" stroke-linejoin="round"/>
    <path d="M 288.8938293457031 129.22256469726562 C 264.9185485839844 86.61019134521484 264.935546875 93.79264831542969 248.21817016601562 129.17813110351562 C 247.2557830810547 147.74362182617188 226.38743591308594 149.88182067871094 210.86898803710938 136.0065460205078 C 241.17144775390625 110.79271697998047 251.58143615722656 135.1934814453125 282.0159912109375 114.67568969726562 C 272.6910400390625 102.83811950683594 275.27880859375 136.23666381835938 288.8938293457031 129.22256469726562" stroke-width="0.0" fill="rgb(58, 100, 194)" opacity="0.76554424" stroke="rgb(0, 0, 0)" stroke-opacity="1.0" stroke-linecap="round" stroke-linejoin="round"/>
    <path d="M 137.76417541503906 419.94830322265625 C 139.674560546875 456.6987609863281 98.43714904785156 436.93817138671875 86.70405578613281 444.29656982421875 C 76.68411254882812 447.78521728515625 76.83512878417969 417.6058349609375 29.269763946533203 393.301513671875 C 34.447364807128906 400.00567626953125 34.96260070800781 362.57489013671875 40.20341491699219 367.56170654296875 C 89.8227310180664 417.46734619140625 92.16004943847656 418.2618408203125 137.76417541503906 419.94830322265625" stroke-width="0.0" fill="rgb(226, 53, 147)" opacity="0.17295207" stroke="rgb(0, 0, 0)" stroke-opacity="1.0" stroke-linecap="round" stroke-linejoin="round"/>
    <path d="M 453.2061462402344 76.74335479736328 C 452.44122314453125 98.70448303222656 450.5221862792969 109.84492492675781 445.2158203125 121.8946304321289 C 400.02032470703125 115.74702453613281 394.3556823730469 99.32487487792969 378.8632507324219 79.77633666992188 C 380.0072021484375 36.77522277832031 385.2585144042969 31.78284454345703 418.2674560546875 46.24002456665039 C 438.0068054199219 57.4277458190918 451.42047119140625 56.54519271850586 453.2061462402344 76.74335479736328" stroke-width="0.0" fill="rgb(10, 82, 13)" opacity="0.8972603" stroke="rgb(0, 0, 0)" stroke-opacity="1.0" stroke-linecap="round" stroke-linejoin="round"/>
    <path d="M 247.5426483154297 38.3818244934082 C 234.3712158203125 46.61306381225586 216.71359252929688 40.511810302734375 190.79074096679688 25.376392364501953 C 172.4925994873047 34.278717041015625 177.52989196777344 25.922317504882812 192.39064025878906 25.457408905029297 C 194.09185791015625 18.401185989379883 207.33839416503906 19.02692222595215 205.42837524414062 -6.366628170013428 C 175.62335205078125 -0.15877489745616913 202.80508422851562 11.027691841125488 247.5426483154297 38.3818244934082" stroke-width="0.0" fill="rgb(178, 228, 47)" opacity="0.17674336" stroke="rgb(0, 0, 0)" stroke-opacity="1.0" stroke-linecap="round" stroke-linejoin="round"/>
    <path d="M 499.2045593261719 205.2650146484375 C 485.7424621582031 200.90032958984375 479.5697937011719 214.53086853027344 493.5459899902344 230.3331298828125 C 471.4634704589844 246.70606994628906 440.96917724609375 221.32736206054688 459.2105407714844 170.29371643066406 C 491.6766357421875 135.22116088867188 466.53826904296875 149.09393310546875 477.14984130859375 163.03762817382812 C 479.29388427734375 196.58807373046875 485.278076171875 212.8717498779297 499.2045593261719 205.2650146484375" stroke-width="0.0" fill="rgb(255, 215, 255)" opacity="0.0" stroke="rgb(0, 0, 0)" stroke-opacity="1.0" stroke-linecap="round" stroke-linejoin="round"/>
    <path d="M 417.1629943847656 309.2030944824219 C 413.8046875 319.6192932128906 409.6569519042969 335.08917236328125 427.4518127441406 341.5006408691406 C 422.9866638183594 308.1366271972656 421.3155822753906 288.6259460449219 414.5395202636719 298.3058166503906 C 388.2123107910156 317.7640380859375 386.7801208496094 309.04864501953125 412.9855651855469 316.82269287109375 C 425.93792724609375 311.4644775390625 410.0011901855469 313.0603332519531 417.1629943847656 309.2030944824219" stroke-width="0.0" fill="rgb(2, 105, 32)" opacity="0.022293316" stroke="rgb(0, 0, 0)" stroke-opacity="1.0" stroke-linecap="round" stroke-linejoin="round"/>
    <path d="M 246.77340698242188 251.54644775390625 C 239.4552001953125 268.54461669921875 241.61343383789062 258.89739990234375 272.386474609375 283.6299743652344 C 255.13519287109375 288.3312683105469 212.25559997558594 283.9730224609375 227.78907775878906 277.0955810546875 C 210.44232177734375 272.9366760253906 242.57337951660156 258.9970397949219 235.80386352539062 280.07879638671875 C 247.71449279785156 274.5671081542969 267.2810363769531 260.2684326171875 246.77340698242188 251.54644775390625" stroke-width="0.0" fill="rgb(255, 86, 252)" opacity="0.9983221" stroke="rgb(0, 0, 0)" stroke-opacity="1.0" stroke-linecap="round" stroke-linejoin="round"/>
    <path d="M 289.7921447753906 288.8697204589844 C 244.97891235351562 318.384033203125 222.8759002685547 325.7475280761719 265.38037109375 308.3246154785156 C 283.6709899902344 311.35968017578125 242.25222778320312 320.283203125 216.26425170898438 289.6980285644531 C 240.86659240722656 275.0260009765625 241.63592529296875 279.62640380859375 268.54119873046875 296.5421142578125 C 261.0528869628906 258.0796203613281 299.3869323730469 259.8401184082031 289.7921447753906 288.8697204589844" stroke-width="0.0" fill="rgb(74, 252, 0)" opacity="0.1731512" stroke="rgb(0, 0, 0)" stroke-opacity="1.0" stroke-linecap="round" stroke-linejoin="round"/>
    <path d="M 70.9971923828125 139.6622314453125 C 26.595308303833008 164.41197204589844 9.275436401367188 168.97799682617188 35.3037223815918 181.4484100341797 C 62.75464630126953 152.3845977783203 46.65130615234375 129.98887634277344 39.8575553894043 113.19593811035156 C 16.032663345336914 111.30221557617188 19.984037399291992 112.6751937866211 46.743690490722656 119.35893249511719 C 51.80415725708008 117.7214126586914 55.22455978393555 125.36629486083984 70.9971923828125 139.6622314453125" stroke-width="0.0" fill="rgb(242, 176, 173)" opacity="0.030963104" stroke="rgb(0, 0, 0)" stroke-opacity="1.0" stroke-linecap="round" stroke-linejoin="round"/>
    <path d="M 435.3652038574219 170.6337127685547 C 436.010009765625 148.8044891357422 417.26617431640625 152.86451721191406 413.6187438964844 152.0162811279297 C 414.9766540527344 164.7157440185547 410.4892272949219 140.05406188964844 414.58660888671875 131.9403839111328 C 404.558349609375 127.63206481933594 419.31317138671875 114.16395568847656 428.0176086425781 131.70953369140625 C 420.25347900390625 150.32757568359375 439.6076965332031 146.17198181152344 435.3652038574219 170.6337127685547" stroke-width="0.0" fill="rgb(114, 211, 25)" opacity="0.9996583" stroke="rgb(0, 0, 0)" stroke-opacity="1.0" stroke-linecap="round" stroke-linejoin="round"/>
    <path d="M 165.3474884033203 454.6877746582031 C 153.7548065185547 497.9759826660156 84.32880401611328 490.2076110839844 33.12187957763672 488.1155700683594 C 34.64292907714844 487.0736083984375 30.372072219848633 483.8658447265625 27.50914764404297 484.8346252441406 C 51.49928283691406 465.1317138671875 59.83707046508789 448.05377197265625 64.67959594726562 448.8560485839844 C 66.13923645019531 452.9552917480469 98.58428192138672 441.7607116699219 165.3474884033203 454.6877746582031" stroke-width="0.0" fill="rgb(179, 218, 250)" opacity="0.004328317" stroke="rgb(0, 0, 0)" stroke-opacity="1.0" stroke-linecap="round" stroke-linejoin="round"/>
    <path d="M 521.78271484375 47.591880798339844 C 529.17724609375 46.26820373535156 544.7715454101562 69.65160369873047 508.6706848144531 78.38656616210938 C 491.34234619140625 62.78886032104492 467.81524658203125 52.204219818115234 473.0336608886719 20.504980087280273 C 519.6367797851562 20.249855041503906 537.3980712890625 -11.730527877807617 476.72406005859375 -4.598024368286133 C 473.4920959472656 26.673110961914062 476.4058837890625 42.036766052246094 521.78271484375 47.591880798339844" stroke-width="0.0" fill="rgb(223, 143, 230)" opacity="0.0376739" stroke="rgb(0, 0, 0)" stroke-opacity="1.0" stroke-linecap="round" stroke-linejoin="round"/>
    <path d="M 313.2990417480469 275.8887023925781 C 283.01141357421875 287.813232421875 298.31787109375 304.77850341796875 291.4327087402344 308.75457763671875 C 307.2464294433594 292.7039489746094 304.9431457519531 276.8134460449219 302.1729736328125 304.9793395996094 C 308.8280334472656 341.8741455078125 325.8436584472656 338.7245178222656 340.2164001464844 295.80975341796875 C 301.06365966796875 280.203125 303.1754455566406 279.1585388183594 313.2990417480469 275.8887023925781" stroke-width="0.0" fill="rgb(45, 0, 45)" opacity="0.016811926" stroke="rgb(0, 0, 0)" stroke-opacity="1.0" stroke-linecap="round" stroke-linejoin="round"/>
    <path d="M 334.0964660644531 101.123291015625 C 363.3779602050781 96.05084228515625 360.68975830078125 120.46577453613281 344.91729736328125 139.55975341796875 C 339.2723693847656 104.867919921875 319.6893005371094 104.87203979492188 287.18743896484375 93.37090301513672 C 287.0257263183594 68.82994842529297 300.25390625 69.79194641113281 276.8251037597656 77.67251586914062 C 305.7565002441406 93.26006317138672 319.8922119140625 116.07646179199219 334.0964660644531 101.123291015625" stroke-width="0.0" fill="rgb(27, 70, 222)" opacity="0.0004337389" stroke="rgb(0, 0, 0)" stroke-opacity="1.0" stroke-linecap="round" stroke-linejoin="round"/>
    <path d="M 116.01179504394531 43.98350143432617 C 127.4278793334961 33.24384307861328 127.84070587158203 36.14239501953125 133.28347778320312 79.8465347290039 C 131.23190307617188 70.23302459716797 107.47721862792969 69.15696716308594 108.8806381225586 94.0346450805664 C 110.99836730957031 77.28900146484375 118.98420715332031 85.44686126708984 112.98196411132812 68.84043884277344 C 166.05233764648438 60.69252395629883 164.9316864013672 22.681081771850586 116.01179504394531 43.98350143432617" stroke-width="0.0" fill="rgb(13, 145, 63)" opacity="0.0" stroke="rgb(0, 0, 0)" stroke-opacity="1.0" stroke-linecap="round" stroke-linejoin="round"/>
    <path d="M 479.53070068359375 466.3119201660156 C 473.66094970703125 508.6639099121094 462.1859436035156 517.7246704101562 440.8371276855469 541.225341796875 C 438.2226257324219 500.9228210449219 438.0404052734375 504.52764892578125 375.8552551269531 483.46759033203125 C 404.9722595214844 449.6683044433594 425.3904113769531 458.0274658203125 433.587890625 431.8436279296875 C 471.3205871582031 443.32208251953125 479.1083068847656 453.4028625488281 479.53070068359375 466.3119201660156" stroke-width="0.0" fill="rgb(146, 203, 255)" opacity="0.0" stroke="rgb(0, 0, 0)" stroke-opacity="1.0" stroke-linecap="round" stroke-linejoin="round"/>
    <path d="M 182.26918029785156 51.08549118041992 C 194.63821411132812 87.2391586303711 211.51560974121094 102.06202697753906 199.55982971191406 107.15198516845703 C 186.66932678222656 91.14978790283203 172.51817321777344 87.55680084228516 148.91517639160156 74.37037658691406 C 169.52362060546875 66.417236328125 191.55096435546875 57.72152328491211 239.58517456054688 18.68086814880371 C 238.89976501464844 72.95977020263672 233.37570190429688 69.72077941894531 182.26918029785156 51.08549118041992" stroke-width="0.0" fill="rgb(112, 228, 11)" opacity="0.037810266" stroke="rgb(0, 0, 0)" stroke-opacity="1.0" stroke-linecap="round" stroke-linejoin="round"/>
    <path d="M 305.0257263183594 205.00045776367188 C 286.0041809082031 233.27383422851562 269.5068359375 246.90011596679688 257.7519836425781 244.75424194335938 C 270.7738342285156 250.03555297851562 254.94985961914062 245.7043914794922 240.66937255859375 232.35260009765625 C 257.1709899902344 211.33859252929688 278.6309814453125 211.42124938964844 289.46124267578125 198.46788024902344 C 305.6253662109375 202.4969482421875 325.4469299316406 223.19723510742188 305.0257263183594 205.00045776367188" stroke-width="0.0" fill="rgb(167, 118, 176)" opacity="0.7288237" stroke="rgb(0, 0, 0)" stroke-opacity="1.0" stroke-linecap="round" stroke-linejoin="round"/>
    <path d="M 460.9591369628906 -26.392484664916992 C 447.6759338378906 -24.966251373291016 449.24847412109375 -9.898005485534668 424.508544921875 -23.04305648803711 C 425.9172668457031 -6.665055274963379 434.3974914550781 2.6494808197021484 441.84429931640625 -13.658297538757324 C 457.24884033203125 -3.0495686531066895 455.0682678222656 -21.07890510559082 461.2543640136719 -28.052051544189453 C 476.8262023925781 -16.114213943481445 486.2515869140625 -11.2457275390625 460.9591369628906 -26.392484664916992" stroke-width="0.0" fill="rgb(202, 111, 120)" opacity="0.1355287" stroke="rgb(0, 0, 0)" stroke-opacity="1.0" stroke-linecap="round" stroke-linejoin="round"/>
    <path d="M 121.92693328857422 417.568115234375 C 118.7530517578125 482.4682312011719 117.5585708618164 465.4284362792969 140.0615234375 435.5472106933594 C 163.68370056152344 424.0263977050781 154.8871612548828 426.0801086425781 157.58253479003906 478.00201416015625 C 151.13856506347656 440.73284912109375 136.22052001953125 399.0266418457031 119.85337829589844 383.5713195800781 C 121.01715850830078 414.2436828613281 109.36197662353516 411.76300048828125 121.92693328857422 417.568115234375" stroke-width="0.0" fill="rgb(220, 147, 102)" opacity="0.04228657" stroke="rgb(0, 0, 0)" stroke-opacity="1.0" stroke-linecap="round" stroke-linejoin="round"/>
  </g>
</svg>
