<?xml version="1.0" ?>
<svg xmlns="http://www.w3.org/2000/svg" version="1.1" width="512" height="512">
  <defs/>
  <g>
    <path d="M 568.1107788085938 426.95416259765625 C 538.4114379882812 527.0253295898438 539.2344360351562 535.239013671875 404.302978515625 520.9525756835938 C 353.078857421875 531.8343505859375 326.7021179199219 532.0404052734375 264.78204345703125 486.34210205078125 C 310.42474365234375 301.5183410644531 346.9231262207031 308.62255859375 475.8592224121094 302.423828125 C 572.4677124023438 303.0152893066406 589.3048095703125 305.5785217285156 568.1107788085938 426.95416259765625" stroke-width="0.0" fill="rgb(37, 43, 123)" opacity="0.8245301" stroke="rgb(0, 0, 0)" stroke-opacity="1.0" stroke-linecap="round" stroke-linejoin="round"/>
    <path d="M 263.1951599121094 465.61297607421875 C 312.1827392578125 525.3714599609375 334.9461364746094 538.0208129882812 127.36479949951172 558.5814208984375 C -76.31083679199219 519.64404296875 -75.80018615722656 509.09405517578125 -12.789624214172363 411.6341552734375 C -0.08960868418216705 188.2593536376953 -19.4501895904541 188.8265838623047 0.09692172706127167 218.0162353515625 C 198.6046905517578 297.3143615722656 250.34133911132812 238.65301513671875 263.1951599121094 465.61297607421875" stroke-width="0.0" fill="rgb(15, 14, 172)" opacity="0.9570774" stroke="rgb(0, 0, 0)" stroke-opacity="1.0" stroke-linecap="round" stroke-linejoin="round"/>
    <path d="M 289.7887878417969 319.162353515625 C 189.38815307617188 434.7184753417969 179.4649658203125 482.6590576171875 184.01953125 352.3538818359375 C 86.38005065917969 322.8887634277344 14.457260131835938 382.026611328125 18.9894962310791 178.13235473632812 C -6.170292377471924 160.32958984375 8.62667465209961 156.80743408203125 101.26973724365234 103.69351959228516 C 276.9938049316406 122.70227813720703 299.74188232421875 121.16081237792969 289.7887878417969 319.162353515625" stroke-width="0.0" fill="rgb(109, 143, 157)" opacity="0.74011195" stroke="rgb(0, 0, 0)" stroke-opacity="1.0" stroke-linecap="round" stroke-linejoin="round"/>
    <path d="M 265.6321105957031 12.545999526977539 C 269.16302490234375 208.7101593017578 226.24752807617188 171.29563903808594 30.880441665649414 191.0267333984375 C -34.74430465698242 206.91465759277344 -33.19969940185547 192.408447265625 -20.09880256652832 62.342132568359375 C -14.989005088806152 -15.722881317138672 -7.218327522277832 -19.66063117980957 55.097557067871094 -15.636929512023926 C 182.74264526367188 -21.06905174255371 232.919921875 -44.78096008300781 265.6321105957031 12.545999526977539" stroke-width="0.0" fill="rgb(41, 26, 199)" opacity="0.9985305" stroke="rgb(0, 0, 0)" stroke-opacity="1.0" stroke-linecap="round" stroke-linejoin="round"/>
    <path d="M 526.0037231445312 41.99798583984375 C 430.182861328125 281.82879638671875 452.7843017578125 312.11627197265625 421.7825927734375 314.86212158203125 C 273.3981018066406 292.4046325683594 242.1619873046875 321.947509765625 267.509033203125 217.6991729736328 C 220.86683654785156 54.26651382446289 187.08493041992188 -4.984144687652588 307.2626037597656 -58.68782043457031 C 563.2000122070312 -6.244815349578857 563.2000122070312 4.452378749847412 526.0037231445312 41.99798583984375" stroke-width="0.0" fill="rgb(39, 17, 172)" opacity="0.9727119" stroke="rgb(0, 0, 0)" stroke-opacity="1.0" stroke-linecap="round" stroke-linejoin="round"/>
    <path d="M 492.2633972167969 348.3722229003906 C 492.7351379394531 431.3939208984375 506.2205505371094 510.56201171875 296.3701171875 545.7998046875 C 184.55349731445312 550.2141723632812 193.06829833984375 523.6928100585938 229.8525848388672 427.8134460449219 C 232.17227172851562 200.44862365722656 275.87933349609375 196.84530639648438 308.5718078613281 246.95126342773438 C 406.0942687988281 281.7036437988281 451.7642517089844 285.26959228515625 492.2633972167969 348.3722229003906" stroke-width="0.0" fill="rgb(21, 42, 140)" opacity="1.0" stroke="rgb(0, 0, 0)" stroke-opacity="1.0" stroke-linecap="round" stroke-linejoin="round"/>
    <path d="M 546.4306030273438 201.5545196533203 C 561.0291748046875 309.7847900390625 554.6121826171875 307.1960144042969 478.83319091796875 310.3830871582031 C 385.56219482421875 340.2130126953125 404.65252685546875 336.13848876953125 412.6597900390625 245.6241912841797 C 420.81097412109375 92.84456634521484 376.9498596191406 74.05265045166016 492.4244689941406 75.51504516601562 C 534.4657592773438 45.54613494873047 532.6486206054688 81.99988555908203 546.4306030273438 201.5545196533203" stroke-width="0.0" fill="rgb(38, 37, 134)" opacity="0.9972699" stroke="rgb(0, 0, 0)" stroke-opacity="1.0" stroke-linecap="round" stroke-linejoin="round"/>
    <path d="M 265.3494567871094 268.503662109375 C 230.704833984375 311.23760986328125 272.7591857910156 302.5662536621094 223.98931884765625 349.4071960449219 C 238.6279754638672 302.4497985839844 218.41525268554688 340.3870544433594 156.0950164794922 287.7218322753906 C 137.73263549804688 168.31097412109375 133.4874267578125 179.7281494140625 233.83876037597656 176.95828247070312 C 259.0560607910156 207.05458068847656 251.147216796875 212.9581298828125 265.3494567871094 268.503662109375" stroke-width="0.0" fill="rgb(148, 162, 166)" opacity="0.65518093" stroke="rgb(0, 0, 0)" stroke-opacity="1.0" stroke-linecap="round" stroke-linejoin="round"/>
    <path d="M 274.43524169921875 100.23565673828125 C 266.6656188964844 105.38633728027344 246.5170440673828 112.65478515625 226.89048767089844 114.75203704833984 C 234.57667541503906 112.85201263427734 226.58546447753906 111.69695281982422 195.58241271972656 90.1236343383789 C 220.41632080078125 89.99858093261719 204.06524658203125 81.91812896728516 212.33718872070312 89.4979248046875 C 236.11270141601562 107.12699890136719 283.3779296875 89.14923095703125 274.43524169921875 100.23565673828125" stroke-width="0.0" fill="rgb(127, 198, 209)" opacity="0.6403989" stroke="rgb(0, 0, 0)" stroke-opacity="1.0" stroke-linecap="round" stroke-linejoin="round"/>
    <path d="M 183.74208068847656 323.6698913574219 C 160.23182678222656 414.921630859375 248.31813049316406 452.7623596191406 187.5480499267578 468.96307373046875 C 162.81350708007812 432.7357482910156 165.26673889160156 393.1048889160156 160.86614990234375 318.20526123046875 C 186.39010620117188 326.81060791015625 167.314697265625 330.4114074707031 163.64524841308594 360.8063049316406 C 193.4967803955078 374.8595886230469 179.49917602539062 374.98309326171875 183.74208068847656 323.6698913574219" stroke-width="0.0" fill="rgb(195, 192, 108)" opacity="0.9071202" stroke="rgb(0, 0, 0)" stroke-opacity="1.0" stroke-linecap="round" stroke-linejoin="round"/>
    <path d="M 214.40638732910156 200.6675262451172 C 200.765869140625 248.18199157714844 204.96444702148438 317.0190734863281 192.16629028320312 327.4715270996094 C 137.42066955566406 372.8348388671875 221.5606231689453 349.1264953613281 198.49913024902344 267.91949462890625 C 67.35687255859375 145.35888671875 22.556087493896484 137.93458557128906 220.7220458984375 77.96327209472656 C 144.06564331054688 174.5185089111328 193.92633056640625 84.99525451660156 214.40638732910156 200.6675262451172" stroke-width="0.0" fill="rgb(179, 225, 116)" opacity="0.9908735" stroke="rgb(0, 0, 0)" stroke-opacity="1.0" stroke-linecap="round" stroke-linejoin="round"/>
    <path d="M 171.2415771484375 285.5332336425781 C 110.07530975341797 262.484130859375 108.32102966308594 272.9986877441406 105.41254425048828 305.92864990234375 C 94.44670867919922 395.8564147949219 98.306884765625 384.8417053222656 -5.109928131103516 268.13983154296875 C -80.7517318725586 61.47541427612305 -63.30698013305664 97.15377044677734 126.44000244140625 74.77535247802734 C 194.3748321533203 140.8308563232422 193.76608276367188 198.69334411621094 171.2415771484375 285.5332336425781" stroke-width="0.0" fill="rgb(27, 21, 203)" opacity="1.0" stroke="rgb(0, 0, 0)" stroke-opacity="1.0" stroke-linecap="round" stroke-linejoin="round"/>
    <path d="M 243.18670654296875 55.998966217041016 C 222.86456298828125 96.51535034179688 241.8369598388672 116.86675262451172 216.40097045898438 121.3450698852539 C 161.0516357421875 133.31643676757812 89.25975036621094 145.1656951904297 64.83443450927734 64.70721435546875 C 73.60197448730469 -51.2476921081543 63.8249397277832 -72.07203674316406 190.5102081298828 -43.31480026245117 C 196.8153839111328 -5.3054728507995605 176.45941162109375 30.634885787963867 243.18670654296875 55.998966217041016" stroke-width="0.0" fill="rgb(39, 15, 178)" opacity="0.88201904" stroke="rgb(0, 0, 0)" stroke-opacity="1.0" stroke-linecap="round" stroke-linejoin="round"/>
    <path d="M 274.0995178222656 131.53057861328125 C 346.7377014160156 197.36085510253906 313.35443115234375 247.4135284423828 258.7420654296875 195.03443908691406 C 167.02865600585938 152.5897674560547 254.17535400390625 127.64984130859375 202.5707550048828 90.8858413696289 C 252.41387939453125 65.28116607666016 280.5699768066406 130.30718994140625 299.8114929199219 165.19390869140625 C 274.45391845703125 185.2615203857422 237.31651306152344 123.81254577636719 274.0995178222656 131.53057861328125" stroke-width="0.0" fill="rgb(160, 136, 96)" opacity="1.0" stroke="rgb(0, 0, 0)" stroke-opacity="1.0" stroke-linecap="round" stroke-linejoin="round"/>
    <path d="M 93.6167221069336 302.3961181640625 C 99.24208068847656 309.9433288574219 125.78990173339844 325.7978210449219 116.40523529052734 344.06231689453125 C 121.72571563720703 342.8815612792969 108.2086410522461 336.3279724121094 109.12737274169922 312.5295104980469 C 98.71048736572266 313.40576171875 91.4512710571289 307.9958801269531 66.72258758544922 331.0705261230469 C 75.1095962524414 413.1627197265625 22.909996032714844 299.7292785644531 93.6167221069336 302.3961181640625" stroke-width="0.0" fill="rgb(250, 253, 30)" opacity="0.9950326" stroke="rgb(0, 0, 0)" stroke-opacity="1.0" stroke-linecap="round" stroke-linejoin="round"/>
    <path d="M 197.8013458251953 93.12503051757812 C 229.3526153564453 116.05789947509766 189.0184326171875 111.53205871582031 218.05233764648438 145.1760711669922 C 233.0076904296875 23.655445098876953 237.543212890625 130.45816040039062 195.4754180908203 92.75495910644531 C 254.55056762695312 140.80722045898438 221.20411682128906 76.37060546875 202.74571228027344 55.27421188354492 C 194.25863647460938 67.5616455078125 201.9063262939453 86.43692016601562 197.8013458251953 93.12503051757812" stroke-width="0.0" fill="rgb(160, 161, 79)" opacity="0.8474083" stroke="rgb(0, 0, 0)" stroke-opacity="1.0" stroke-linecap="round" stroke-linejoin="round"/>
    <path d="M 280.1163024902344 445.4149475097656 C 267.93121337890625 451.5633239746094 228.35597229003906 446.1849670410156 267.931884765625 448.7496643066406 C 247.42018127441406 450.4713134765625 233.41360473632812 461.6125183105469 216.72161865234375 481.8632507324219 C 212.67161560058594 307.84307861328125 211.58279418945312 316.658935546875 190.1778564453125 439.29248046875 C 312.1246337890625 453.8962097167969 271.03289794921875 454.2980041503906 280.1163024902344 445.4149475097656" stroke-width="0.0" fill="rgb(108, 57, 154)" opacity="0.38792148" stroke="rgb(0, 0, 0)" stroke-opacity="1.0" stroke-linecap="round" stroke-linejoin="round"/>
    <path d="M 151.36459350585938 258.68377685546875 C 162.12501525878906 277.9461669921875 145.58460998535156 311.9116516113281 155.0739288330078 341.27215576171875 C 170.0531005859375 316.500244140625 149.9644775390625 304.4805908203125 107.80974578857422 286.9932861328125 C 115.77153778076172 333.4041442871094 120.2081527709961 335.2373046875 153.18362426757812 279.9030456542969 C 150.04747009277344 283.5555114746094 136.73782348632812 282.3650207519531 151.36459350585938 258.68377685546875" stroke-width="0.0" fill="rgb(72, 167, 111)" opacity="0.46816617" stroke="rgb(0, 0, 0)" stroke-opacity="1.0" stroke-linecap="round" stroke-linejoin="round"/>
    <path d="M 194.30508422851562 86.4465560913086 C 203.98101806640625 97.2606430053711 201.49609375 126.42290496826172 184.70645141601562 155.4012451171875 C 176.72540283203125 124.2136001586914 169.97360229492188 131.99667358398438 184.5206298828125 113.72545623779297 C 194.8448944091797 88.81510162353516 185.93389892578125 76.16128540039062 177.4859161376953 93.5873794555664 C 183.53033447265625 95.54796600341797 188.56044006347656 112.55094909667969 194.30508422851562 86.4465560913086" stroke-width="0.0" fill="rgb(177, 244, 60)" opacity="0.8180258" stroke="rgb(0, 0, 0)" stroke-opacity="1.0" stroke-linecap="round" stroke-linejoin="round"/>
    <path d="M 371.66259765625 266.03070068359375 C 345.6761474609375 301.79620361328125 368.3016662597656 298.0492248535156 332.2379455566406 285.1588439941406 C 284.3023681640625 278.8707275390625 307.9024658203125 303.4113464355469 298.8858337402344 223.3242645263672 C 313.5710754394531 224.1369171142578 294.7556457519531 218.60464477539062 329.3995361328125 238.7607421875 C 332.3699035644531 251.11318969726562 354.01739501953125 218.8117218017578 371.66259765625 266.03070068359375" stroke-width="0.0" fill="rgb(143, 9, 216)" opacity="0.9032839" stroke="rgb(0, 0, 0)" stroke-opacity="1.0" stroke-linecap="round" stroke-linejoin="round"/>
    <path d="M 138.6328887939453 281.2431945800781 C 175.21649169921875 321.03460693359375 179.4502716064453 318.3713684082031 168.55482482910156 266.4267578125 C 141.59393310546875 238.02764892578125 102.37580108642578 266.8577575683594 141.01925659179688 300.6369323730469 C 175.7734375 272.43682861328125 169.97894287109375 258.8263244628906 183.06317138671875 165.3581085205078 C 234.97254943847656 223.61505126953125 171.34019470214844 221.22140502929688 138.6328887939453 281.2431945800781" stroke-width="0.0" fill="rgb(179, 190, 83)" opacity="0.7285366" stroke="rgb(0, 0, 0)" stroke-opacity="1.0" stroke-linecap="round" stroke-linejoin="round"/>
    <path d="M 204.76918029785156 85.49803924560547 C 218.8220977783203 101.55673217773438 225.16558837890625 120.62771606445312 192.56396484375 115.54502868652344 C 172.76939392089844 97.98380279541016 142.7386474609375 90.6256103515625 156.0221405029297 61.59181213378906 C 147.2728729248047 69.6108627319336 181.43748474121094 39.96406173706055 169.5876007080078 44.648094177246094 C 157.04798889160156 72.6083984375 182.09274291992188 76.0015869140625 204.76918029785156 85.49803924560547" stroke-width="0.0" fill="rgb(246, 247, 47)" opacity="0.9890322" stroke="rgb(0, 0, 0)" stroke-opacity="1.0" stroke-linecap="round" stroke-linejoin="round"/>
    <path d="M 245.5822296142578 463.7778015136719 C 269.7662658691406 465.701416015625 269.9429016113281 461.891357421875 248.31216430664062 476.1661682128906 C 255.19944763183594 471.9299621582031 219.05859375 472.6302185058594 230.1486053466797 485.2894592285156 C 232.5380401611328 444.60418701171875 243.15313720703125 458.046630859375 253.65557861328125 428.1694641113281 C 261.48883056640625 415.54864501953125 250.63345336914062 421.9187927246094 245.5822296142578 463.7778015136719" stroke-width="0.0" fill="rgb(43, 73, 170)" opacity="0.9607572" stroke="rgb(0, 0, 0)" stroke-opacity="1.0" stroke-linecap="round" stroke-linejoin="round"/>
    <path d="M 356.61798095703125 242.6503143310547 C 352.3158874511719 255.4729461669922 339.0331115722656 255.95285034179688 324.5523986816406 244.6768035888672 C 297.83367919921875 233.7742919921875 271.5601806640625 250.71847534179688 245.38868713378906 223.73435974121094 C 258.515625 205.80616760253906 315.8046569824219 216.9051971435547 350.0315246582031 214.0063018798828 C 354.6614074707031 200.6057586669922 357.226806640625 198.3531036376953 356.61798095703125 242.6503143310547" stroke-width="0.0" fill="rgb(113, 11, 201)" opacity="0.42153633" stroke="rgb(0, 0, 0)" stroke-opacity="1.0" stroke-linecap="round" stroke-linejoin="round"/>
    <path d="M 198.84060668945312 100.0125732421875 C 182.03744506835938 173.42379760742188 158.96804809570312 156.56436157226562 124.90341186523438 149.83477783203125 C 103.12037658691406 147.6173095703125 82.89885711669922 127.028564453125 116.95043182373047 123.66999053955078 C 92.51799011230469 97.1097183227539 86.3192138671875 75.17793273925781 112.17567443847656 99.51618194580078 C 176.38673400878906 94.70642852783203 215.50836181640625 83.35111999511719 198.84060668945312 100.0125732421875" stroke-width="0.0" fill="rgb(254, 250, 44)" opacity="0.99243563" stroke="rgb(0, 0, 0)" stroke-opacity="1.0" stroke-linecap="round" stroke-linejoin="round"/>
    <path d="M 137.8405303955078 353.9609375 C 117.56292724609375 372.9459228515625 109.52883911132812 381.8082580566406 109.69478607177734 425.5283203125 C 89.71282196044922 410.5849914550781 99.5635986328125 389.3730773925781 97.54969024658203 368.3249816894531 C 100.24342346191406 333.87255859375 94.89200592041016 318.6340026855469 113.00593566894531 350.848388671875 C 111.84335327148438 322.3421936035156 123.40312194824219 337.45550537109375 137.8405303955078 353.9609375" stroke-width="0.0" fill="rgb(104, 206, 136)" opacity="0.6967066" stroke="rgb(0, 0, 0)" stroke-opacity="1.0" stroke-linecap="round" stroke-linejoin="round"/>
    <path d="M 114.41796112060547 433.49755859375 C 107.45508575439453 474.1556396484375 114.30911254882812 461.3352966308594 112.63263702392578 472.5925598144531 C 89.19432830810547 479.177490234375 79.67802429199219 472.0901794433594 93.39514923095703 456.4396057128906 C 95.30086517333984 415.44854736328125 108.17853546142578 364.8193664550781 101.4865951538086 364.2424011230469 C 87.27530670166016 376.6706237792969 100.52391052246094 394.11102294921875 114.41796112060547 433.49755859375" stroke-width="0.0" fill="rgb(207, 211, 58)" opacity="0.8716392" stroke="rgb(0, 0, 0)" stroke-opacity="1.0" stroke-linecap="round" stroke-linejoin="round"/>
    <path d="M 131.37997436523438 135.55247497558594 C 147.13551330566406 121.68779754638672 125.87541961669922 118.76676940917969 84.3699722290039 120.97307586669922 C 100.56599426269531 125.80593872070312 80.6844253540039 136.36709594726562 82.77571105957031 109.43889617919922 C 89.94255828857422 117.44905853271484 115.13126373291016 160.1986846923828 134.09634399414062 131.60379028320312 C 94.20079040527344 109.32323455810547 94.50698852539062 128.00950622558594 131.37997436523438 135.55247497558594" stroke-width="0.0" fill="rgb(7, 10, 142)" opacity="1.0" stroke="rgb(0, 0, 0)" stroke-opacity="1.0" stroke-linecap="round" stroke-linejoin="round"/>
    <path d="M 78.3060302734375 130.09375 C 46.8116340637207 125.08815002441406 41.636470794677734 123.25875854492188 37.104801177978516 136.70896911621094 C 42.409423828125 97.9800033569336 36.75126647949219 103.02952575683594 32.788429260253906 108.23229217529297 C 43.44865417480469 133.52029418945312 51.01762008666992 119.43885803222656 11.912303924560547 124.20592498779297 C 19.5853214263916 116.69754028320312 51.3696403503418 116.73625946044922 78.3060302734375 130.09375" stroke-width="0.0" fill="rgb(35, 0, 167)" opacity="0.010517801" stroke="rgb(0, 0, 0)" stroke-opacity="1.0" stroke-linecap="round" stroke-linejoin="round"/>
    <path d="M 53.84407043457031 310.69635009765625 C 63.63102722167969 310.5655212402344 48.2154541015625 312.71673583984375 37.585357666015625 297.8681945800781 C 19.964588165283203 325.26220703125 7.354306221008301 310.8373107910156 -1.0192421674728394 328.7896423339844 C 23.45124626159668 328.64263916015625 48.57598876953125 318.599609375 13.904824256896973 316.6526794433594 C 24.192089080810547 362.4820861816406 44.6396369934082 375.8446350097656 53.84407043457031 310.69635009765625" stroke-width="0.0" fill="rgb(28, 16, 237)" opacity="0.016567944" stroke="rgb(0, 0, 0)" stroke-opacity="1.0" stroke-linecap="round" stroke-linejoin="round"/>
    <path d="M 372.3590393066406 231.26438903808594 C 377.8009338378906 295.8631896972656 397.28662109375 297.429443359375 368.5975341796875 289.7987365722656 C 337.8304443359375 297.21923828125 376.7452697753906 261.7474670410156 354.4861145019531 223.0708770751953 C 351.25054931640625 234.17347717285156 366.7150573730469 224.89654541015625 356.8905334472656 224.99423217773438 C 370.1814880371094 232.1813507080078 373.5838928222656 227.8570098876953 372.3590393066406 231.26438903808594" stroke-width="0.0" fill="rgb(235, 199, 15)" opacity="0.92437077" stroke="rgb(0, 0, 0)" stroke-opacity="1.0" stroke-linecap="round" stroke-linejoin="round"/>
    <path d="M 174.99244689941406 267.9778747558594 C 200.7616424560547 270.474365234375 193.32089233398438 288.9451904296875 158.81927490234375 288.2130432128906 C 154.71742248535156 257.1971740722656 167.80673217773438 269.8424377441406 182.79185485839844 235.9835205078125 C 197.12844848632812 220.35641479492188 179.66683959960938 198.3163299560547 166.19259643554688 244.02369689941406 C 183.4839324951172 255.4749298095703 194.98341369628906 252.91432189941406 174.99244689941406 267.9778747558594" stroke-width="0.0" fill="rgb(209, 30, 85)" opacity="0.369152" stroke="rgb(0, 0, 0)" stroke-opacity="1.0" stroke-linecap="round" stroke-linejoin="round"/>
    <path d="M 195.11398315429688 256.29388427734375 C 208.32644653320312 268.4666748046875 196.38336181640625 264.114501953125 217.72315979003906 261.2198486328125 C 191.62918090820312 259.6064758300781 157.82049560546875 270.840087890625 183.58912658691406 266.09161376953125 C 204.4783172607422 245.0935821533203 194.81736755371094 219.9399871826172 206.765869140625 207.0102996826172 C 202.78628540039062 229.75892639160156 196.674072265625 245.85487365722656 195.11398315429688 256.29388427734375" stroke-width="0.0" fill="rgb(163, 176, 154)" opacity="0.01215846" stroke="rgb(0, 0, 0)" stroke-opacity="1.0" stroke-linecap="round" stroke-linejoin="round"/>
    <path d="M 200.54554748535156 379.9755554199219 C 164.5253448486328 342.4662170410156 159.40957641601562 344.326904296875 172.39053344726562 355.4075622558594 C 156.8289031982422 371.02777099609375 150.43844604492188 333.2446594238281 169.16976928710938 293.0238342285156 C 175.00796508789062 278.4608154296875 143.93560791015625 283.727783203125 137.92620849609375 329.90625 C 175.2777557373047 351.3838806152344 216.279541015625 361.211181640625 200.54554748535156 379.9755554199219" stroke-width="0.0" fill="rgb(24, 76, 175)" opacity="0.47944954" stroke="rgb(0, 0, 0)" stroke-opacity="1.0" stroke-linecap="round" stroke-linejoin="round"/>
    <path d="M 87.76527404785156 106.76131439208984 C 114.43965148925781 172.68763732910156 83.69091796875 179.831298828125 89.53715515136719 149.2227020263672 C 69.45711517333984 136.48464965820312 56.010223388671875 145.25474548339844 62.465721130371094 139.1688690185547 C 62.7486457824707 124.19661712646484 60.99635314941406 101.44481658935547 85.78752899169922 94.38882446289062 C 83.12380981445312 103.19995880126953 80.53592681884766 87.51150512695312 87.76527404785156 106.76131439208984" stroke-width="0.0" fill="rgb(49, 4, 211)" opacity="0.32943636" stroke="rgb(0, 0, 0)" stroke-opacity="1.0" stroke-linecap="round" stroke-linejoin="round"/>
    <path d="M 68.05838775634766 104.64982604980469 C 78.0977783203125 112.68473052978516 95.36763000488281 113.802490234375 28.153772354125977 72.31475830078125 C -21.232234954833984 96.32228088378906 -24.22714614868164 130.05418395996094 -6.151728630065918 132.7021026611328 C 42.805599212646484 101.05359649658203 57.6526985168457 97.17962646484375 43.70374298095703 89.08098602294922 C 61.73419189453125 92.81817626953125 85.14246368408203 93.29031372070312 68.05838775634766 104.64982604980469" stroke-width="0.0" fill="rgb(84, 44, 231)" opacity="0.11300542" stroke="rgb(0, 0, 0)" stroke-opacity="1.0" stroke-linecap="round" stroke-linejoin="round"/>
    <path d="M 140.76536560058594 158.21481323242188 C 140.912109375 166.2108917236328 136.95835876464844 155.51699829101562 145.01437377929688 176.9869842529297 C 109.13247680664062 179.6936798095703 88.91014862060547 165.7433319091797 82.22330474853516 147.9290771484375 C 70.17219543457031 118.51032257080078 100.99420928955078 116.45862579345703 93.52164459228516 97.11531066894531 C 83.87877655029297 112.58634948730469 109.8193130493164 138.73117065429688 140.76536560058594 158.21481323242188" stroke-width="0.0" fill="rgb(58, 33, 145)" opacity="0.02909975" stroke="rgb(0, 0, 0)" stroke-opacity="1.0" stroke-linecap="round" stroke-linejoin="round"/>
    <path d="M 419.6792297363281 206.804443359375 C 408.6617431640625 209.10693359375 377.3134460449219 245.30018615722656 355.87225341796875 288.2326965332031 C 344.5966796875 197.60450744628906 330.75042724609375 208.51478576660156 357.2113037109375 223.1328887939453 C 343.1565856933594 169.13790893554688 338.8224182128906 154.2253875732422 345.60235595703125 163.93594360351562 C 368.78924560546875 185.56748962402344 393.3487854003906 188.5659637451172 419.6792297363281 206.804443359375" stroke-width="0.0" fill="rgb(194, 255, 180)" opacity="0.8294323" stroke="rgb(0, 0, 0)" stroke-opacity="1.0" stroke-linecap="round" stroke-linejoin="round"/>
    <path d="M 330.3565979003906 177.41546630859375 C 342.43414306640625 196.68112182617188 330.2242431640625 212.0143585205078 288.0783386230469 239.96401977539062 C 262.3961486816406 221.71229553222656 272.310546875 198.7552947998047 312.8441162109375 185.8495635986328 C 282.6510314941406 145.51405334472656 234.28167724609375 119.2629165649414 269.09466552734375 111.36553192138672 C 307.1874694824219 142.00775146484375 309.9114074707031 161.02569580078125 330.3565979003906 177.41546630859375" stroke-width="0.0" fill="rgb(185, 214, 181)" opacity="0.90387136" stroke="rgb(0, 0, 0)" stroke-opacity="1.0" stroke-linecap="round" stroke-linejoin="round"/>
    <path d="M 138.2230987548828 30.437952041625977 C 156.03575134277344 47.27727508544922 157.95639038085938 66.57579040527344 147.6822052001953 53.803932189941406 C 123.04469299316406 48.53083038330078 124.97865295410156 33.541439056396484 99.82239532470703 47.919044494628906 C 103.1660385131836 30.001253128051758 127.3843994140625 26.226423263549805 126.6939468383789 26.638078689575195 C 108.28246307373047 10.577940940856934 158.6923065185547 21.14530372619629 138.2230987548828 30.437952041625977" stroke-width="0.0" fill="rgb(78, 68, 139)" opacity="0.0" stroke="rgb(0, 0, 0)" stroke-opacity="1.0" stroke-linecap="round" stroke-linejoin="round"/>
    <path d="M 50.24711227416992 334.8947448730469 C 57.07358932495117 327.73822021484375 50.6964111328125 335.6817626953125 41.89183807373047 329.28753662109375 C 12.631802558898926 335.2177734375 5.21158504486084 348.9233093261719 6.580687046051025 324.7550964355469 C -13.004721641540527 315.5125427246094 16.717994689941406 298.265625 41.52054214477539 291.2392272949219 C 41.05342483520508 303.21478271484375 49.98167419433594 317.95458984375 50.24711227416992 334.8947448730469" stroke-width="0.0" fill="rgb(31, 12, 213)" opacity="0.1444368" stroke="rgb(0, 0, 0)" stroke-opacity="1.0" stroke-linecap="round" stroke-linejoin="round"/>
    <path d="M 249.24063110351562 66.8046875 C 257.8664245605469 65.62708282470703 253.21197509765625 68.27490997314453 257.6304016113281 58.857688903808594 C 235.09060668945312 53.537994384765625 221.42347717285156 40.67110824584961 222.42813110351562 18.65363121032715 C 253.4266815185547 30.223546981811523 253.9460906982422 36.53230667114258 254.1931610107422 17.807004928588867 C 254.25596618652344 2.745452642440796 258.36236572265625 12.511284828186035 249.24063110351562 66.8046875" stroke-width="0.0" fill="rgb(26, 46, 105)" opacity="0.0" stroke="rgb(0, 0, 0)" stroke-opacity="1.0" stroke-linecap="round" stroke-linejoin="round"/>
    <path d="M 108.60527801513672 330.8992919921875 C 118.50112915039062 302.67181396484375 122.78900146484375 335.8949890136719 103.93431091308594 383.64990234375 C 107.90018463134766 372.29339599609375 110.1343765258789 357.3563537597656 109.54691314697266 329.7850646972656 C 98.76922607421875 302.5062561035156 107.17247772216797 288.9926452636719 119.49488067626953 310.950927734375 C 113.87133026123047 298.0124816894531 109.66077423095703 313.1759948730469 108.60527801513672 330.8992919921875" stroke-width="0.0" fill="rgb(134, 153, 131)" opacity="0.5535665" stroke="rgb(0, 0, 0)" stroke-opacity="1.0" stroke-linecap="round" stroke-linejoin="round"/>
    <path d="M 199.73675537109375 394.041259765625 C 211.6094512939453 420.9355163574219 220.3157196044922 402.1513366699219 202.11944580078125 381.4071044921875 C 187.496826171875 388.2184143066406 192.98321533203125 392.0283508300781 176.6290283203125 398.66571044921875 C 195.21559143066406 365.9922790527344 190.82920837402344 356.3680114746094 175.66429138183594 354.4012756347656 C 197.12802124023438 349.6824645996094 212.14988708496094 362.69305419921875 199.73675537109375 394.041259765625" stroke-width="0.0" fill="rgb(21, 5, 181)" opacity="0.74774826" stroke="rgb(0, 0, 0)" stroke-opacity="1.0" stroke-linecap="round" stroke-linejoin="round"/>
    <path d="M 14.886067390441895 184.484130859375 C 37.61378860473633 184.46641540527344 39.57863235473633 204.47366333007812 7.472731590270996 195.8813934326172 C 17.50938606262207 205.152587890625 -1.5697152614593506 205.3244171142578 25.58472442626953 226.13194274902344 C 49.729000091552734 218.74462890625 34.895076751708984 194.29058837890625 22.856143951416016 203.1527862548828 C 41.147430419921875 203.46900939941406 49.00962448120117 199.1688995361328 14.886067390441895 184.484130859375" stroke-width="0.0" fill="rgb(42, 55, 245)" opacity="0.0" stroke="rgb(0, 0, 0)" stroke-opacity="1.0" stroke-linecap="round" stroke-linejoin="round"/>
    <path d="M 472.68157958984375 333.3115234375 C 447.1472473144531 354.2276916503906 425.041259765625 350.5410461425781 437.8187255859375 317.5305480957031 C 403.83966064453125 323.2320251464844 413.5623474121094 323.26348876953125 412.2563171386719 296.3582763671875 C 417.9292297363281 300.3973388671875 428.4943542480469 278.428466796875 417.54718017578125 291.0063171386719 C 419.0283508300781 301.0099182128906 438.2336120605469 297.7238464355469 472.68157958984375 333.3115234375" stroke-width="0.0" fill="rgb(83, 56, 122)" opacity="0.013080472" stroke="rgb(0, 0, 0)" stroke-opacity="1.0" stroke-linecap="round" stroke-linejoin="round"/>
    <path d="M 11.772844314575195 146.5511016845703 C 23.387495040893555 142.71534729003906 40.64887237548828 131.3328399658203 20.698068618774414 167.5756072998047 C -0.9107712507247925 161.75762939453125 -7.968291759490967 144.77880859375 -19.52337646484375 144.91189575195312 C -26.4846248626709 110.40385437011719 -12.30488109588623 121.34859466552734 37.76883316040039 105.65769958496094 C 21.13091278076172 141.3829345703125 27.093469619750977 135.00918579101562 11.772844314575195 146.5511016845703" stroke-width="0.0" fill="rgb(10, 5, 250)" opacity="0.11527896" stroke="rgb(0, 0, 0)" stroke-opacity="1.0" stroke-linecap="round" stroke-linejoin="round"/>
    <path d="M 550.6680908203125 234.551513671875 C 516.75927734375 290.8276062011719 499.81402587890625 284.23358154296875 489.64544677734375 273.78167724609375 C 523.4403076171875 285.9251708984375 483.1283264160156 297.7755432128906 431.036865234375 280.5337219238281 C 464.1315612792969 209.4130096435547 465.4254150390625 203.0063018798828 487.4344482421875 218.43910217285156 C 529.538330078125 217.2556915283203 538.7536010742188 215.99058532714844 550.6680908203125 234.551513671875" stroke-width="0.0" fill="rgb(31, 68, 77)" opacity="0.08964384" stroke="rgb(0, 0, 0)" stroke-opacity="1.0" stroke-linecap="round" stroke-linejoin="round"/>
    <path d="M 232.1417694091797 91.42915344238281 C 238.97731018066406 99.1496810913086 235.88626098632812 98.6561279296875 223.74966430664062 119.48954772949219 C 199.6748504638672 149.61819458007812 193.0735626220703 133.6868896484375 200.13282775878906 99.50963592529297 C 218.16079711914062 106.79871368408203 222.18675231933594 89.7308120727539 243.98814392089844 57.841922760009766 C 259.7867431640625 86.41743469238281 236.68788146972656 106.39986419677734 232.1417694091797 91.42915344238281" stroke-width="0.0" fill="rgb(183, 184, 87)" opacity="0.7611585" stroke="rgb(0, 0, 0)" stroke-opacity="1.0" stroke-linecap="round" stroke-linejoin="round"/>
    <path d="M 444.8631286621094 277.6554870605469 C 428.8725280761719 287.3207092285156 425.465576171875 305.77301025390625 389.3492126464844 269.2285461425781 C 432.2132568359375 261.8423156738281 437.82000732421875 258.3796081542969 421.2647399902344 282.5507507324219 C 416.4010009765625 243.43954467773438 423.3603515625 239.85482788085938 429.38690185546875 267.8406066894531 C 413.5853576660156 274.1128234863281 450.01080322265625 280.72454833984375 444.8631286621094 277.6554870605469" stroke-width="0.0" fill="rgb(14, 65, 64)" opacity="0.07663199" stroke="rgb(0, 0, 0)" stroke-opacity="1.0" stroke-linecap="round" stroke-linejoin="round"/>
    <path d="M 566.3564453125 149.2475128173828 C 519.1046752929688 195.25352478027344 485.5179748535156 206.76025390625 479.8045959472656 177.82896423339844 C 515.5164184570312 195.76275634765625 503.4543151855469 173.3533935546875 506.7909240722656 86.1376953125 C 483.9605712890625 87.90210723876953 494.9173583984375 90.45282745361328 532.1095581054688 94.27980041503906 C 527.4639892578125 105.2236099243164 539.8698120117188 112.67231750488281 566.3564453125 149.2475128173828" stroke-width="0.0" fill="rgb(76, 41, 88)" opacity="0.009584162" stroke="rgb(0, 0, 0)" stroke-opacity="1.0" stroke-linecap="round" stroke-linejoin="round"/>
    <path d="M 544.3460083007812 185.59963989257812 C 535.268798828125 183.71044921875 516.8585205078125 178.76124572753906 508.9036865234375 173.24525451660156 C 493.01300048828125 178.26065063476562 488.87957763671875 168.47837829589844 490.9519348144531 154.9998016357422 C 491.3447265625 148.92034912109375 488.9649658203125 144.42137145996094 512.353759765625 151.96531677246094 C 540.7316284179688 163.51220703125 534.8898315429688 165.04281616210938 544.3460083007812 185.59963989257812" stroke-width="0.0" fill="rgb(82, 41, 157)" opacity="0.07776143" stroke="rgb(0, 0, 0)" stroke-opacity="1.0" stroke-linecap="round" stroke-linejoin="round"/>
    <path d="M 34.231536865234375 371.7316589355469 C 33.91143798828125 392.42742919921875 74.21002960205078 382.7770080566406 44.0166130065918 343.61669921875 C 12.850265502929688 359.67279052734375 36.18003463745117 366.6319885253906 21.907777786254883 332.048095703125 C 31.96934700012207 317.7843933105469 17.517608642578125 322.64208984375 45.22751998901367 331.4915771484375 C 49.41288375854492 349.28753662109375 48.955360412597656 353.1532897949219 34.231536865234375 371.7316589355469" stroke-width="0.0" fill="rgb(58, 37, 170)" opacity="0.021826444" stroke="rgb(0, 0, 0)" stroke-opacity="1.0" stroke-linecap="round" stroke-linejoin="round"/>
    <path d="M 319.5734558105469 267.8746643066406 C 350.07061767578125 270.5462341308594 344.4163513183594 268.39105224609375 303.6504211425781 261.3001403808594 C 323.0018615722656 248.24839782714844 282.5086364746094 259.26904296875 262.0177001953125 260.5050964355469 C 303.81011962890625 260.134765625 323.9610595703125 253.35169982910156 313.8228454589844 241.5410919189453 C 317.5435485839844 260.99285888671875 341.1104431152344 257.7927551269531 319.5734558105469 267.8746643066406" stroke-width="0.0" fill="rgb(49, 0, 204)" opacity="0.0038480891" stroke="rgb(0, 0, 0)" stroke-opacity="1.0" stroke-linecap="round" stroke-linejoin="round"/>
    <path d="M 513.61328125 143.8579559326172 C 529.8998413085938 115.00932312011719 495.1344909667969 116.0156478881836 500.3858947753906 123.45327758789062 C 501.1105041503906 164.9491424560547 480.0193176269531 157.3428497314453 493.7000732421875 163.50086975097656 C 512.8907470703125 144.64317321777344 522.4401245117188 128.02247619628906 529.6207885742188 138.53526306152344 C 462.4478759765625 129.55357360839844 471.47845458984375 140.80007934570312 513.61328125 143.8579559326172" stroke-width="0.0" fill="rgb(69, 35, 167)" opacity="0.04606755" stroke="rgb(0, 0, 0)" stroke-opacity="1.0" stroke-linecap="round" stroke-linejoin="round"/>
    <path d="M 496.64739990234375 459.80401611328125 C 474.220947265625 476.5278625488281 482.8023376464844 475.02813720703125 491.0775451660156 486.88909912109375 C 443.7533264160156 516.220947265625 438.0983581542969 508.5173645019531 467.59954833984375 495.21441650390625 C 451.05499267578125 440.55096435546875 460.855224609375 407.9062805175781 478.335205078125 416.4559020996094 C 501.2230224609375 425.29608154296875 511.35552978515625 425.7069396972656 496.64739990234375 459.80401611328125" stroke-width="0.0" fill="rgb(5, 41, 138)" opacity="0.004062237" stroke="rgb(0, 0, 0)" stroke-opacity="1.0" stroke-linecap="round" stroke-linejoin="round"/>
    <path d="M 524.74365234375 383.21539306640625 C 539.152587890625 399.0181884765625 513.8433227539062 399.36248779296875 514.8436279296875 385.0545654296875 C 494.2263488769531 362.2024841308594 474.48846435546875 379.3681640625 472.1600036621094 368.2903747558594 C 457.4889221191406 347.3115539550781 470.4549255371094 359.41571044921875 484.8038635253906 343.0099182128906 C 496.8616027832031 358.9729919433594 520.462158203125 367.4965515136719 524.74365234375 383.21539306640625" stroke-width="0.0" fill="rgb(57, 87, 159)" opacity="0.104444236" stroke="rgb(0, 0, 0)" stroke-opacity="1.0" stroke-linecap="round" stroke-linejoin="round"/>
    <path d="M 168.30368041992188 412.5514221191406 C 177.58901977539062 422.7618408203125 164.54905700683594 432.9462890625 158.2469482421875 452.54095458984375 C 111.51529693603516 439.8506164550781 150.17738342285156 421.7524108886719 134.61695861816406 423.7482604980469 C 142.81820678710938 416.4174499511719 139.30906677246094 397.44927978515625 156.12542724609375 394.4885559082031 C 166.27565002441406 393.7288513183594 158.21533203125 423.96826171875 168.30368041992188 412.5514221191406" stroke-width="0.0" fill="rgb(86, 63, 133)" opacity="0.07717001" stroke="rgb(0, 0, 0)" stroke-opacity="1.0" stroke-linecap="round" stroke-linejoin="round"/>
    <path d="M 133.41873168945312 120.14945983886719 C 105.83654022216797 201.1584014892578 93.05450439453125 209.31515502929688 85.439208984375 176.01817321777344 C 100.57550048828125 149.6739044189453 76.45757293701172 174.2311248779297 86.93069458007812 165.18215942382812 C 85.54816436767578 144.54461669921875 75.1123275756836 145.36721801757812 78.4879379272461 164.81295776367188 C 74.86376953125 143.90286254882812 108.42607116699219 110.17771911621094 133.41873168945312 120.14945983886719" stroke-width="0.0" fill="rgb(28, 13, 199)" opacity="0.20650198" stroke="rgb(0, 0, 0)" stroke-opacity="1.0" stroke-linecap="round" stroke-linejoin="round"/>
    <path d="M 190.17141723632812 139.8917694091797 C 163.5917510986328 122.04706573486328 155.70912170410156 128.70872497558594 162.22396850585938 131.43911743164062 C 165.49949645996094 124.4740219116211 172.8798370361328 123.3261947631836 181.22731018066406 129.30960083007812 C 166.8655548095703 126.92671966552734 177.15274047851562 129.30697631835938 181.5857696533203 136.15118408203125 C 179.9471435546875 114.66368865966797 191.4605712890625 119.5513916015625 190.17141723632812 139.8917694091797" stroke-width="0.0" fill="rgb(237, 233, 107)" opacity="0.0" stroke="rgb(0, 0, 0)" stroke-opacity="1.0" stroke-linecap="round" stroke-linejoin="round"/>
    <path d="M 181.0244140625 423.1489562988281 C 174.72239685058594 407.4820251464844 176.5626220703125 413.13067626953125 169.9066619873047 403.3446350097656 C 163.4258270263672 404.23223876953125 148.08128356933594 406.0127258300781 133.8087921142578 394.39617919921875 C 161.3875274658203 395.980712890625 182.71580505371094 415.51824951171875 167.95443725585938 368.3309326171875 C 131.10484313964844 396.77239990234375 163.2476348876953 405.7579345703125 181.0244140625 423.1489562988281" stroke-width="0.0" fill="rgb(95, 33, 121)" opacity="0.032601386" stroke="rgb(0, 0, 0)" stroke-opacity="1.0" stroke-linecap="round" stroke-linejoin="round"/>
    <path d="M 440.3354797363281 108.35845947265625 C 427.46820068359375 122.73092651367188 444.4129333496094 134.82093811035156 412.91204833984375 173.68814086914062 C 409.8729248046875 150.45941162109375 433.13458251953125 136.0774688720703 432.4523620605469 101.58981323242188 C 399.8326416015625 122.73486328125 431.43084716796875 135.30274963378906 460.74871826171875 137.90692138671875 C 455.72943115234375 122.22442626953125 443.7604064941406 131.20953369140625 440.3354797363281 108.35845947265625" stroke-width="0.0" fill="rgb(88, 25, 171)" opacity="0.0" stroke="rgb(0, 0, 0)" stroke-opacity="1.0" stroke-linecap="round" stroke-linejoin="round"/>
    <path d="M 268.4822998046875 319.76971435546875 C 263.0268249511719 325.27685546875 252.80963134765625 341.12335205078125 229.18307495117188 334.397705078125 C 239.84649658203125 305.3647766113281 253.87945556640625 301.4820251464844 256.9107360839844 308.90325927734375 C 236.86415100097656 308.724609375 251.9556884765625 296.4463195800781 237.56259155273438 294.9915466308594 C 242.50540161132812 303.3016052246094 259.98687744140625 314.83160400390625 268.4822998046875 319.76971435546875" stroke-width="0.0" fill="rgb(81, 83, 125)" opacity="0.015606098" stroke="rgb(0, 0, 0)" stroke-opacity="1.0" stroke-linecap="round" stroke-linejoin="round"/>
    <path d="M 142.87620544433594 470.9810485839844 C 130.12554931640625 517.643310546875 110.32847595214844 502.9107360839844 157.42117309570312 505.1440734863281 C 152.98582458496094 519.7750244140625 122.40682983398438 501.669189453125 98.54299926757812 496.5384216308594 C 105.0487289428711 507.0050964355469 117.82894897460938 470.0501708984375 143.85812377929688 468.252197265625 C 155.5262908935547 439.4403991699219 158.49215698242188 492.8521423339844 142.87620544433594 470.9810485839844" stroke-width="0.0" fill="rgb(34, 59, 101)" opacity="0.030799072" stroke="rgb(0, 0, 0)" stroke-opacity="1.0" stroke-linecap="round" stroke-linejoin="round"/>
  </g>
</svg>
