<?xml version="1.0" ?>
<svg xmlns="http://www.w3.org/2000/svg" version="1.1" width="512" height="512">
  <defs/>
  <g>
    <path d="M 557.0660400390625 436.29534912109375 C 563.3934326171875 525.319091796875 567.8947143554688 518.79345703125 348.0094909667969 528.548828125 C 252.8538818359375 536.5621337890625 183.22157287597656 516.5220336914062 297.11773681640625 479.4687194824219 C 496.579833984375 429.4642639160156 363.7189636230469 315.660400390625 371.276123046875 250.80667114257812 C 562.9174194335938 296.4905700683594 573.0927734375 308.6203918457031 557.0660400390625 436.29534912109375" stroke-width="0.0" fill="rgb(229, 55, 5)" opacity="0.8662346" stroke="rgb(0, 0, 0)" stroke-opacity="1.0" stroke-linecap="round" stroke-linejoin="round"/>
    <path d="M 166.24563598632812 400.1368103027344 C 253.7138214111328 510.9019470214844 397.9049987792969 437.4128112792969 307.17803955078125 484.0364990234375 C -28.57366943359375 548.3881225585938 -31.112287521362305 544.8980102539062 -42.162113189697266 499.7195739746094 C -23.94682502746582 223.47955322265625 -21.18335723876953 224.40000915527344 70.35968780517578 254.97671508789062 C 180.24481201171875 239.25613403320312 107.0177230834961 278.6533203125 166.24563598632812 400.1368103027344" stroke-width="0.0" fill="rgb(12, 2, 98)" opacity="0.9552537" stroke="rgb(0, 0, 0)" stroke-opacity="1.0" stroke-linecap="round" stroke-linejoin="round"/>
    <path d="M 135.29942321777344 279.44476318359375 C 143.21751403808594 421.46380615234375 129.24530029296875 341.79693603515625 126.71047973632812 274.19879150390625 C -29.729528427124023 237.35350036621094 -32.72447967529297 325.3883056640625 -44.778560638427734 175.92469787597656 C -17.69459342956543 136.33633422851562 -0.40954864025115967 149.61717224121094 80.23805236816406 137.5956268310547 C 88.99775695800781 117.50418853759766 126.34173583984375 194.75389099121094 135.29942321777344 279.44476318359375" stroke-width="0.0" fill="rgb(29, 18, 89)" opacity="0.8727475" stroke="rgb(0, 0, 0)" stroke-opacity="1.0" stroke-linecap="round" stroke-linejoin="round"/>
    <path d="M 260.2354431152344 81.62861633300781 C -2.6158440113067627 49.89146041870117 70.75518798828125 151.619384765625 92.16162109375 125.40404510498047 C 16.785219192504883 267.1908874511719 -22.392677307128906 250.43638610839844 -53.51739501953125 83.86687469482422 C -16.20087432861328 -17.48221778869629 -8.278695106506348 -20.73219871520996 178.28826904296875 -28.625362396240234 C 269.7198486328125 -56.18565368652344 290.3897399902344 -56.83345413208008 260.2354431152344 81.62861633300781" stroke-width="0.0" fill="rgb(38, 26, 96)" opacity="0.94434017" stroke="rgb(0, 0, 0)" stroke-opacity="1.0" stroke-linecap="round" stroke-linejoin="round"/>
    <path d="M 563.5158081054688 80.38958740234375 C 417.9194030761719 267.9033508300781 424.94061279296875 285.3905029296875 320.0257263183594 332.6668701171875 C 185.67007446289062 325.2348937988281 289.3370361328125 285.31298828125 211.2140655517578 148.8452911376953 C 308.0101623535156 -27.944591522216797 252.145263671875 -29.331573486328125 348.0431213378906 -53.63258743286133 C 563.2000122070312 0.6587138175964355 563.2000122070312 11.063444137573242 563.5158081054688 80.38958740234375" stroke-width="0.0" fill="rgb(225, 64, 5)" opacity="0.87634057" stroke="rgb(0, 0, 0)" stroke-opacity="1.0" stroke-linecap="round" stroke-linejoin="round"/>
    <path d="M 320.4352111816406 49.2308235168457 C 267.9380798339844 314.37445068359375 152.9038848876953 431.13671875 159.6647491455078 283.760986328125 C 166.16726684570312 236.04312133789062 112.47245025634766 173.32395935058594 -2.0359418392181396 119.90699768066406 C 60.11522674560547 116.23145294189453 78.45153045654297 44.28635787963867 208.06724548339844 79.93167114257812 C 323.5954895019531 124.18397521972656 296.7898864746094 47.7357292175293 320.4352111816406 49.2308235168457" stroke-width="0.0" fill="rgb(51, 18, 49)" opacity="0.9686384" stroke="rgb(0, 0, 0)" stroke-opacity="1.0" stroke-linecap="round" stroke-linejoin="round"/>
    <path d="M 431.2808837890625 376.9718017578125 C 329.71624755859375 474.2923583984375 466.1901550292969 249.84999084472656 353.0048828125 296.0834655761719 C 358.2672119140625 297.9790954589844 463.7596435546875 413.1627197265625 187.11830139160156 493.19586181640625 C 129.4241485595703 205.5469512939453 220.03807067871094 142.84266662597656 292.999755859375 344.4337463378906 C 438.2070007324219 279.6728210449219 452.0001220703125 247.18344116210938 431.2808837890625 376.9718017578125" stroke-width="0.0" fill="rgb(40, 9, 62)" opacity="0.95840156" stroke="rgb(0, 0, 0)" stroke-opacity="1.0" stroke-linecap="round" stroke-linejoin="round"/>
    <path d="M 534.8027954101562 150.4931640625 C 543.6019897460938 320.09478759765625 563.1994018554688 343.2150573730469 533.3313598632812 282.3031921386719 C 369.73504638671875 292.5296936035156 327.7524719238281 343.3330078125 384.9619445800781 269.5792236328125 C 285.13427734375 198.4407196044922 425.176513671875 202.2098846435547 559.0877075195312 108.97138214111328 C 563.2000122070312 68.05618286132812 563.2000122070312 90.89309692382812 534.8027954101562 150.4931640625" stroke-width="0.0" fill="rgb(48, 196, 236)" opacity="0.8706218" stroke="rgb(0, 0, 0)" stroke-opacity="1.0" stroke-linecap="round" stroke-linejoin="round"/>
    <path d="M 245.8542022705078 191.2898712158203 C 332.5114440917969 254.47682189941406 301.8382263183594 232.5574188232422 275.63165283203125 254.28062438964844 C 243.6346893310547 276.1396484375 234.56271362304688 304.0350341796875 261.689697265625 278.8238525390625 C 303.29083251953125 259.074462890625 265.3397521972656 233.08358764648438 225.6190948486328 274.0242004394531 C 257.92913818359375 251.7888946533203 243.88978576660156 253.72808837890625 245.8542022705078 191.2898712158203" stroke-width="0.0" fill="rgb(108, 70, 99)" opacity="0.6967159" stroke="rgb(0, 0, 0)" stroke-opacity="1.0" stroke-linecap="round" stroke-linejoin="round"/>
    <path d="M 241.3301544189453 60.86464309692383 C 78.86558532714844 16.417757034301758 -21.905790328979492 128.20587158203125 74.49970245361328 163.85353088378906 C 156.87002563476562 317.0104675292969 -61.63467788696289 330.79266357421875 -58.54245376586914 204.34823608398438 C -30.266315460205078 -10.329251289367676 -22.464635848999023 -20.51752471923828 144.06271362304688 -49.65510940551758 C 279.3023376464844 -27.448192596435547 366.3460693359375 55.38343048095703 241.3301544189453 60.86464309692383" stroke-width="0.0" fill="rgb(227, 81, 20)" opacity="0.9703991" stroke="rgb(0, 0, 0)" stroke-opacity="1.0" stroke-linecap="round" stroke-linejoin="round"/>
    <path d="M 490.6680603027344 228.7482452392578 C 456.28076171875 237.31663513183594 369.6981201171875 307.3328857421875 409.6614685058594 293.10186767578125 C 257.1697998046875 360.01806640625 501.5144348144531 312.5372009277344 330.6300964355469 240.4299774169922 C 425.5083312988281 176.8396453857422 363.5982971191406 80.473388671875 397.84124755859375 147.50379943847656 C 315.3077392578125 294.4908142089844 319.4177551269531 269.2618103027344 490.6680603027344 228.7482452392578" stroke-width="0.0" fill="rgb(229, 62, 31)" opacity="0.8795284" stroke="rgb(0, 0, 0)" stroke-opacity="1.0" stroke-linecap="round" stroke-linejoin="round"/>
    <path d="M 454.0318603515625 -6.995112419128418 C 364.74700927734375 221.9923858642578 292.2709655761719 199.9860382080078 233.9139404296875 206.91419982910156 C 244.64486694335938 184.7865753173828 283.6666259765625 165.41944885253906 320.88134765625 131.0175323486328 C 280.0534362792969 126.79048156738281 314.4163818359375 73.71046447753906 239.28199768066406 88.94713592529297 C 141.4420928955078 43.61631393432617 223.50111389160156 -60.38972473144531 454.0318603515625 -6.995112419128418" stroke-width="0.0" fill="rgb(200, 64, 19)" opacity="1.0" stroke="rgb(0, 0, 0)" stroke-opacity="1.0" stroke-linecap="round" stroke-linejoin="round"/>
    <path d="M 264.8077392578125 451.08270263671875 C 491.29248046875 418.9698791503906 269.5745849609375 537.8507080078125 176.30615234375 430.4189147949219 C 229.68910217285156 461.7532653808594 149.1090850830078 449.0591735839844 146.29595947265625 350.5363464355469 C 174.07518005371094 259.5533752441406 174.11354064941406 496.0464782714844 146.95550537109375 209.91526794433594 C 256.31494140625 127.63312530517578 78.85433197021484 435.59747314453125 264.8077392578125 451.08270263671875" stroke-width="0.0" fill="rgb(248, 235, 0)" opacity="1.0" stroke="rgb(0, 0, 0)" stroke-opacity="1.0" stroke-linecap="round" stroke-linejoin="round"/>
    <path d="M 572.7728881835938 183.01687622070312 C 561.6177368164062 463.4871520996094 544.4097900390625 486.1978759765625 456.27508544921875 439.4517822265625 C 358.4668273925781 383.4726257324219 430.6007385253906 404.0947570800781 421.429931640625 305.6960144042969 C 390.45233154296875 197.03636169433594 424.5760192871094 339.6258544921875 414.57763671875 144.83937072753906 C 461.90142822265625 130.20790100097656 576.8167724609375 133.31263732910156 572.7728881835938 183.01687622070312" stroke-width="0.0" fill="rgb(213, 75, 25)" opacity="0.97524273" stroke="rgb(0, 0, 0)" stroke-opacity="1.0" stroke-linecap="round" stroke-linejoin="round"/>
    <path d="M 544.7058715820312 475.63934326171875 C 529.5440673828125 514.3981323242188 520.1913452148438 527.753662109375 354.671630859375 531.5069580078125 C 296.7277526855469 488.2126159667969 324.6348876953125 481.20062255859375 371.0226135253906 428.9541320800781 C 417.375 396.6976013183594 411.77880859375 370.37890625 442.17218017578125 355.27569580078125 C 470.2503356933594 387.53662109375 488.3892517089844 400.5959777832031 544.7058715820312 475.63934326171875" stroke-width="0.0" fill="rgb(227, 83, 36)" opacity="0.92727107" stroke="rgb(0, 0, 0)" stroke-opacity="1.0" stroke-linecap="round" stroke-linejoin="round"/>
    <path d="M 354.49853515625 277.0095520019531 C 451.40185546875 295.45684814453125 308.5057678222656 314.8917541503906 354.8650207519531 354.0196533203125 C 344.7375183105469 464.0636901855469 174.21807861328125 449.2831115722656 202.4752960205078 359.16015625 C 229.33653259277344 268.5049133300781 193.05015563964844 293.7424621582031 221.74484252929688 297.2959289550781 C 209.2652130126953 414.2807922363281 325.6649169921875 433.8868713378906 354.49853515625 277.0095520019531" stroke-width="0.0" fill="rgb(249, 91, 9)" opacity="0.8723482" stroke="rgb(0, 0, 0)" stroke-opacity="1.0" stroke-linecap="round" stroke-linejoin="round"/>
    <path d="M 217.2374725341797 254.21348571777344 C 197.45797729492188 327.22796630859375 232.42076110839844 315.2851257324219 203.9329376220703 323.5348815917969 C 205.500732421875 286.1216735839844 193.3389129638672 274.3380432128906 204.99813842773438 284.837158203125 C 201.6981964111328 277.55352783203125 201.79794311523438 263.1172790527344 206.7510223388672 239.59620666503906 C 220.52426147460938 221.92539978027344 250.8990020751953 232.1756591796875 217.2374725341797 254.21348571777344" stroke-width="0.0" fill="rgb(215, 165, 29)" opacity="0.7344038" stroke="rgb(0, 0, 0)" stroke-opacity="1.0" stroke-linecap="round" stroke-linejoin="round"/>
    <path d="M 396.276611328125 325.72467041015625 C 436.7826232910156 412.4112243652344 353.1732177734375 468.8160400390625 317.86712646484375 482.1379699707031 C 261.08233642578125 505.09161376953125 142.31329345703125 454.5176086425781 271.05560302734375 472.1323547363281 C 350.40203857421875 455.5473937988281 370.5990295410156 412.32769775390625 389.4625549316406 379.07183837890625 C 329.8518371582031 472.4259033203125 446.380615234375 299.0420837402344 396.276611328125 325.72467041015625" stroke-width="0.0" fill="rgb(48, 28, 71)" opacity="0.94093746" stroke="rgb(0, 0, 0)" stroke-opacity="1.0" stroke-linecap="round" stroke-linejoin="round"/>
    <path d="M 272.37786865234375 112.61943054199219 C 310.742431640625 58.8560905456543 177.8677978515625 50.89028549194336 216.10182189941406 49.19392395019531 C 186.1027374267578 57.86992645263672 181.85888671875 55.03679656982422 181.417236328125 42.49467086791992 C 190.00791931152344 38.96283721923828 202.86431884765625 66.19779205322266 150.84996032714844 72.63082885742188 C 59.992313385009766 105.8046646118164 202.29049682617188 67.73893737792969 272.37786865234375 112.61943054199219" stroke-width="0.0" fill="rgb(55, 8, 69)" opacity="0.8258767" stroke="rgb(0, 0, 0)" stroke-opacity="1.0" stroke-linecap="round" stroke-linejoin="round"/>
    <path d="M 251.83013916015625 490.24884033203125 C 257.38787841796875 554.7903442382812 202.38726806640625 556.2501831054688 105.99282836914062 526.987060546875 C -49.01333236694336 521.1326904296875 -42.92496109008789 500.47503662109375 -35.992340087890625 417.58624267578125 C -48.64975357055664 311.3121643066406 -63.11717987060547 277.57586669921875 35.01662063598633 270.4631652832031 C 133.8331298828125 272.4668884277344 85.84798431396484 463.9200134277344 251.83013916015625 490.24884033203125" stroke-width="0.0" fill="rgb(233, 86, 30)" opacity="0.98241687" stroke="rgb(0, 0, 0)" stroke-opacity="1.0" stroke-linecap="round" stroke-linejoin="round"/>
    <path d="M 305.169921875 349.96429443359375 C 292.0204772949219 413.2049560546875 251.2239532470703 377.6593017578125 258.1905517578125 356.5153503417969 C 265.33892822265625 365.6337890625 251.66294860839844 350.4224548339844 261.4732971191406 358.2536315917969 C 250.12547302246094 397.542724609375 181.1121368408203 392.4459533691406 221.00347900390625 251.88009643554688 C 267.86572265625 287.61077880859375 263.9122619628906 354.3710632324219 305.169921875 349.96429443359375" stroke-width="0.0" fill="rgb(226, 73, 29)" opacity="0.8750134" stroke="rgb(0, 0, 0)" stroke-opacity="1.0" stroke-linecap="round" stroke-linejoin="round"/>
    <path d="M 441.9051208496094 142.72850036621094 C 355.9846496582031 45.1094856262207 363.82177734375 89.38455200195312 351.6067199707031 207.3109893798828 C 375.5439147949219 203.8939971923828 364.431640625 228.3543701171875 381.882568359375 206.54563903808594 C 368.2751159667969 230.30470275878906 393.18359375 219.18701171875 363.8386535644531 194.50140380859375 C 355.3108825683594 197.0662078857422 375.9713439941406 161.88182067871094 441.9051208496094 142.72850036621094" stroke-width="0.0" fill="rgb(219, 71, 84)" opacity="0.016483165" stroke="rgb(0, 0, 0)" stroke-opacity="1.0" stroke-linecap="round" stroke-linejoin="round"/>
    <path d="M 462.4038391113281 247.06048583984375 C 487.0841369628906 277.5794677734375 475.70269775390625 369.87493896484375 380.6944580078125 310.5891418457031 C 443.3941345214844 261.40966796875 491.859130859375 190.58384704589844 392.30596923828125 272.1112365722656 C 487.062744140625 242.0970458984375 432.8355407714844 184.67303466796875 442.14166259765625 182.90916442871094 C 434.51263427734375 263.1844177246094 386.4557800292969 242.51597595214844 462.4038391113281 247.06048583984375" stroke-width="0.0" fill="rgb(102, 122, 76)" opacity="0.011893392" stroke="rgb(0, 0, 0)" stroke-opacity="1.0" stroke-linecap="round" stroke-linejoin="round"/>
    <path d="M 99.88540649414062 278.57220458984375 C 125.51222229003906 289.1823425292969 115.04012298583984 329.436767578125 137.34786987304688 412.83465576171875 C 41.41456985473633 364.39324951171875 12.24628734588623 328.3248291015625 -10.112631797790527 270.12567138671875 C 52.908809661865234 238.759033203125 38.13127517700195 185.55697631835938 82.4220962524414 176.52809143066406 C 110.55475616455078 219.4980926513672 123.72334289550781 289.3704833984375 99.88540649414062 278.57220458984375" stroke-width="0.0" fill="rgb(221, 65, 13)" opacity="1.0" stroke="rgb(0, 0, 0)" stroke-opacity="1.0" stroke-linecap="round" stroke-linejoin="round"/>
    <path d="M 362.4998779296875 291.8621520996094 C 302.5517578125 319.0207214355469 274.7095031738281 228.83872985839844 296.8436279296875 199.2895965576172 C 308.3140563964844 170.3850555419922 269.91168212890625 147.41470336914062 293.10272216796875 165.3981475830078 C 273.7325439453125 152.36795043945312 286.43328857421875 161.03062438964844 274.3700256347656 169.80728149414062 C 290.8167419433594 145.2474822998047 373.9989318847656 141.17112731933594 362.4998779296875 291.8621520996094" stroke-width="0.0" fill="rgb(66, 194, 239)" opacity="0.9377581" stroke="rgb(0, 0, 0)" stroke-opacity="1.0" stroke-linecap="round" stroke-linejoin="round"/>
    <path d="M 155.33860778808594 105.0946044921875 C 210.75424194335938 93.55488586425781 208.10208129882812 119.00950622558594 222.9715576171875 107.28766632080078 C 85.5943374633789 72.51287841796875 109.36553192138672 195.3767547607422 99.72611999511719 148.96302795410156 C 185.2926788330078 78.22210693359375 241.42108154296875 106.620361328125 188.19500732421875 112.11466979980469 C 183.4436798095703 106.99376678466797 172.72157287597656 107.24839782714844 155.33860778808594 105.0946044921875" stroke-width="0.0" fill="rgb(210, 245, 126)" opacity="0.69042116" stroke="rgb(0, 0, 0)" stroke-opacity="1.0" stroke-linecap="round" stroke-linejoin="round"/>
    <path d="M 101.22798919677734 143.62413024902344 C 111.67393493652344 166.96034240722656 98.43951416015625 145.25823974609375 109.14293670654297 161.22744750976562 C 107.29655456542969 149.74732971191406 83.88532257080078 128.37539672851562 114.29517364501953 121.43339538574219 C 46.54120635986328 191.27232360839844 56.338802337646484 42.249656677246094 228.50900268554688 108.48805236816406 C 94.80978393554688 124.05296325683594 87.09928894042969 120.39720153808594 101.22798919677734 143.62413024902344" stroke-width="0.0" fill="rgb(199, 149, 6)" opacity="0.82638377" stroke="rgb(0, 0, 0)" stroke-opacity="1.0" stroke-linecap="round" stroke-linejoin="round"/>
    <path d="M 300.21533203125 256.8251647949219 C 274.2500305175781 303.1316833496094 320.327392578125 342.9404296875 225.59901428222656 324.1864929199219 C 213.40003967285156 308.09039306640625 260.47149658203125 258.83782958984375 211.6742706298828 230.5032958984375 C 238.39317321777344 217.56663513183594 278.761474609375 211.6075439453125 286.7220153808594 207.55209350585938 C 272.71197509765625 213.0767364501953 300.54833984375 223.56915283203125 300.21533203125 256.8251647949219" stroke-width="0.0" fill="rgb(92, 209, 227)" opacity="0.8764792" stroke="rgb(0, 0, 0)" stroke-opacity="1.0" stroke-linecap="round" stroke-linejoin="round"/>
    <path d="M 287.60858154296875 219.87098693847656 C 247.00489807128906 234.1051025390625 215.2054901123047 61.02604293823242 203.858154296875 153.2645263671875 C 221.28016662597656 231.5290985107422 152.0188446044922 326.19476318359375 82.59365844726562 128.72157287597656 C 160.03140258789062 65.0119857788086 231.17608642578125 126.0595474243164 206.9545440673828 134.96034240722656 C 253.91603088378906 60.443904876708984 202.84535217285156 120.1783218383789 287.60858154296875 219.87098693847656" stroke-width="0.0" fill="rgb(237, 231, 15)" opacity="0.9489866" stroke="rgb(0, 0, 0)" stroke-opacity="1.0" stroke-linecap="round" stroke-linejoin="round"/>
    <path d="M 381.6351623535156 389.3194274902344 C 343.88262939453125 286.7875061035156 286.8999938964844 374.593017578125 319.3558044433594 342.94140625 C 276.4983215332031 359.56988525390625 281.3191223144531 333.74530029296875 304.8756408691406 338.89794921875 C 297.0537109375 348.1825866699219 303.64654541015625 321.01397705078125 282.4289855957031 379.252197265625 C 258.1283264160156 286.4446716308594 468.2007141113281 268.060791015625 381.6351623535156 389.3194274902344" stroke-width="0.0" fill="rgb(71, 191, 207)" opacity="0.90022975" stroke="rgb(0, 0, 0)" stroke-opacity="1.0" stroke-linecap="round" stroke-linejoin="round"/>
    <path d="M 7.6602020263671875 523.527099609375 C 16.928863525390625 520.4954833984375 10.451606750488281 527.2847900390625 0.7705464363098145 530.8681030273438 C -9.364206314086914 527.7437133789062 -16.68471336364746 520.4232177734375 -19.53505516052246 510.3761291503906 C -16.513290405273438 500.47222900390625 -9.497283935546875 493.1925964355469 -12.406676292419434 503.4660339355469 C -4.264515399932861 507.9687805175781 3.0665524005889893 515.3460693359375 7.6602020263671875 523.527099609375" stroke-width="0.0" fill="rgb(253, 10, 0)" opacity="0.1198675" stroke="rgb(0, 0, 0)" stroke-opacity="1.0" stroke-linecap="round" stroke-linejoin="round"/>
    <path d="M 142.2258758544922 289.22369384765625 C 170.73414611816406 409.0300598144531 166.10853576660156 393.7594299316406 148.33375549316406 300.380859375 C 127.64826202392578 231.270263671875 131.09188842773438 197.40264892578125 119.83193969726562 174.97779846191406 C 97.46134948730469 108.23806762695312 47.9832878112793 130.3931121826172 107.14303588867188 106.97921752929688 C 130.17193603515625 170.78030395507812 154.551513671875 224.5592498779297 142.2258758544922 289.22369384765625" stroke-width="0.0" fill="rgb(190, 116, 3)" opacity="0.8925665" stroke="rgb(0, 0, 0)" stroke-opacity="1.0" stroke-linecap="round" stroke-linejoin="round"/>
    <path d="M 324.17291259765625 374.53460693359375 C 300.1549072265625 401.24420166015625 275.6455993652344 287.1302185058594 292.5658264160156 280.7984924316406 C 323.08782958984375 305.0412292480469 290.7336730957031 321.8988342285156 277.1283874511719 305.3817443847656 C 238.57421875 279.1454162597656 220.33241271972656 287.6575622558594 319.0068359375 306.9192199707031 C 321.34625244140625 313.4873046875 388.4035339355469 343.1883544921875 324.17291259765625 374.53460693359375" stroke-width="0.0" fill="rgb(104, 218, 222)" opacity="0.95349014" stroke="rgb(0, 0, 0)" stroke-opacity="1.0" stroke-linecap="round" stroke-linejoin="round"/>
    <path d="M 255.2985382080078 123.24443817138672 C 197.82742309570312 168.01434326171875 231.1518096923828 223.1619415283203 185.61727905273438 225.86671447753906 C 198.2924041748047 144.43295288085938 225.3483123779297 97.46224975585938 217.8966522216797 117.12036895751953 C 198.20843505859375 134.82333374023438 192.97836303710938 98.57182312011719 121.79701232910156 81.18720245361328 C 181.4274444580078 68.08575439453125 254.97593688964844 104.56584167480469 255.2985382080078 123.24443817138672" stroke-width="0.0" fill="rgb(216, 131, 5)" opacity="0.9007645" stroke="rgb(0, 0, 0)" stroke-opacity="1.0" stroke-linecap="round" stroke-linejoin="round"/>
    <path d="M 309.7205505371094 403.17144775390625 C 230.53280639648438 402.3653564453125 278.2810974121094 413.3321838378906 297.39935302734375 399.3476867675781 C 241.80401611328125 433.77655029296875 205.1167755126953 360.7278137207031 204.52426147460938 298.9594421386719 C 165.39549255371094 399.5422058105469 301.1669921875 404.2650146484375 223.78762817382812 385.40618896484375 C 211.84442138671875 401.9508972167969 218.89129638671875 402.250732421875 309.7205505371094 403.17144775390625" stroke-width="0.0" fill="rgb(215, 199, 42)" opacity="0.8919616" stroke="rgb(0, 0, 0)" stroke-opacity="1.0" stroke-linecap="round" stroke-linejoin="round"/>
    <path d="M 144.0474395751953 246.5601806640625 C 146.71055603027344 285.7143859863281 163.62710571289062 287.6397399902344 165.26712036132812 358.179443359375 C 103.56285095214844 374.9661560058594 106.38522338867188 297.4395446777344 127.67598724365234 265.2621154785156 C 117.90348815917969 128.27354431152344 59.308441162109375 163.42359924316406 58.53700256347656 121.92570495605469 C 163.24424743652344 223.8858184814453 142.126953125 343.1940002441406 144.0474395751953 246.5601806640625" stroke-width="0.0" fill="rgb(234, 229, 75)" opacity="0.12157971" stroke="rgb(0, 0, 0)" stroke-opacity="1.0" stroke-linecap="round" stroke-linejoin="round"/>
    <path d="M 218.34365844726562 102.890869140625 C 229.77735900878906 132.64944458007812 213.11134338378906 136.1150665283203 205.13504028320312 152.20582580566406 C 160.1945343017578 153.41650390625 167.0933074951172 114.89239501953125 148.94094848632812 102.23692321777344 C 124.73735809326172 107.70210266113281 164.43405151367188 115.58087921142578 148.8538360595703 106.20805358886719 C 160.80734252929688 85.04906463623047 201.27587890625 103.50173950195312 218.34365844726562 102.890869140625" stroke-width="0.0" fill="rgb(237, 230, 7)" opacity="0.9961365" stroke="rgb(0, 0, 0)" stroke-opacity="1.0" stroke-linecap="round" stroke-linejoin="round"/>
    <path d="M 444.7463073730469 270.15478515625 C 452.0708923339844 287.48785400390625 464.0169982910156 307.9784851074219 421.69732666015625 302.7438659667969 C 363.40716552734375 309.7759094238281 369.47113037109375 336.2344665527344 381.7643127441406 272.69964599609375 C 375.88690185546875 244.94544982910156 388.2414855957031 245.4205322265625 426.55303955078125 258.36517333984375 C 434.5034484863281 258.327880859375 446.6544494628906 274.92254638671875 444.7463073730469 270.15478515625" stroke-width="0.0" fill="rgb(77, 206, 228)" opacity="0.9914511" stroke="rgb(0, 0, 0)" stroke-opacity="1.0" stroke-linecap="round" stroke-linejoin="round"/>
    <path d="M 295.35552978515625 385.15850830078125 C 277.5174865722656 405.4739074707031 278.9945983886719 412.1072082519531 268.61004638671875 402.1019592285156 C 241.6013946533203 412.1421813964844 243.89413452148438 387.7965393066406 229.05897521972656 376.1907958984375 C 254.6817626953125 395.78729248046875 224.8894805908203 401.9534606933594 241.63565063476562 402.68182373046875 C 216.98794555664062 385.3192138671875 245.9157257080078 367.5206604003906 295.35552978515625 385.15850830078125" stroke-width="0.0" fill="rgb(197, 234, 25)" opacity="0.70748794" stroke="rgb(0, 0, 0)" stroke-opacity="1.0" stroke-linecap="round" stroke-linejoin="round"/>
    <path d="M 373.69097900390625 272.4131774902344 C 347.4224548339844 221.4832000732422 296.3143005371094 234.2781524658203 305.8347473144531 282.6948547363281 C 294.2150573730469 307.1325988769531 267.05657958984375 274.7827453613281 294.56427001953125 242.55328369140625 C 290.1060791015625 228.65127563476562 336.2252197265625 219.97679138183594 328.9864807128906 223.58433532714844 C 348.1066589355469 225.7040252685547 392.92694091796875 248.6309356689453 373.69097900390625 272.4131774902344" stroke-width="0.0" fill="rgb(255, 123, 0)" opacity="1.0" stroke="rgb(0, 0, 0)" stroke-opacity="1.0" stroke-linecap="round" stroke-linejoin="round"/>
    <path d="M 203.3820037841797 267.965087890625 C 224.02598571777344 309.08245849609375 230.1420135498047 296.0741882324219 143.20362854003906 290.7617492675781 C 132.73602294921875 285.3658752441406 142.78846740722656 300.1557922363281 140.32241821289062 275.89984130859375 C 172.53445434570312 273.5715026855469 214.15187072753906 278.16314697265625 177.72381591796875 284.0714416503906 C 186.213623046875 253.63412475585938 184.799560546875 289.9638366699219 203.3820037841797 267.965087890625" stroke-width="0.0" fill="rgb(27, 0, 88)" opacity="0.95249784" stroke="rgb(0, 0, 0)" stroke-opacity="1.0" stroke-linecap="round" stroke-linejoin="round"/>
    <path d="M 295.4151306152344 423.2248840332031 C 297.2381286621094 418.1279296875 295.849609375 433.0807800292969 278.65570068359375 437.22076416015625 C 270.6192932128906 438.9967346191406 269.70068359375 412.65460205078125 249.05946350097656 397.2100524902344 C 263.8407287597656 395.51983642578125 282.70745849609375 376.978759765625 280.8836364746094 355.771728515625 C 311.6975402832031 374.77850341796875 308.7792663574219 394.2143249511719 295.4151306152344 423.2248840332031" stroke-width="0.0" fill="rgb(76, 197, 0)" opacity="0.89930546" stroke="rgb(0, 0, 0)" stroke-opacity="1.0" stroke-linecap="round" stroke-linejoin="round"/>
    <path d="M 393.61712646484375 422.3390197753906 C 403.9613952636719 413.4637451171875 396.5621337890625 429.28643798828125 369.4273986816406 407.8988952636719 C 375.6008605957031 406.65283203125 357.1624755859375 426.82025146484375 368.5083923339844 407.1739501953125 C 377.3843078613281 384.41619873046875 356.6324768066406 347.9678039550781 392.72705078125 382.9599609375 C 382.5691223144531 380.99444580078125 385.3085021972656 385.16650390625 393.61712646484375 422.3390197753906" stroke-width="0.0" fill="rgb(207, 194, 0)" opacity="0.6594753" stroke="rgb(0, 0, 0)" stroke-opacity="1.0" stroke-linecap="round" stroke-linejoin="round"/>
    <path d="M 344.1538391113281 11.757513999938965 C 365.6907653808594 32.50225067138672 368.5393371582031 54.079078674316406 339.378662109375 39.56475067138672 C 325.07757568359375 38.16771697998047 316.6856994628906 12.064492225646973 322.8565673828125 -9.607030868530273 C 317.7588806152344 -7.974994659423828 341.504638671875 -24.89207649230957 327.0322265625 -12.33823013305664 C 325.4017333984375 -3.5753860473632812 329.0520935058594 14.850635528564453 344.1538391113281 11.757513999938965" stroke-width="0.0" fill="rgb(144, 93, 12)" opacity="0.07722696" stroke="rgb(0, 0, 0)" stroke-opacity="1.0" stroke-linecap="round" stroke-linejoin="round"/>
    <path d="M 92.50887298583984 135.53741455078125 C 121.92166137695312 151.74949645996094 109.50315856933594 161.82264709472656 104.1741943359375 168.44094848632812 C 95.8289794921875 173.6714324951172 95.53324127197266 148.65980529785156 79.43885803222656 121.88249206542969 C 77.1897201538086 144.56971740722656 61.024070739746094 128.14772033691406 67.31372833251953 117.11959838867188 C 108.9526596069336 122.71537780761719 101.89020538330078 130.32217407226562 92.50887298583984 135.53741455078125" stroke-width="0.0" fill="rgb(215, 240, 10)" opacity="0.88405037" stroke="rgb(0, 0, 0)" stroke-opacity="1.0" stroke-linecap="round" stroke-linejoin="round"/>
    <path d="M 389.7029113769531 314.6021728515625 C 395.15447998046875 300.4439392089844 407.3702697753906 325.6330261230469 401.1526184082031 336.6778259277344 C 399.9615173339844 342.6809997558594 403.3409118652344 322.1161804199219 361.5403137207031 321.33050537109375 C 350.608642578125 291.6947937011719 370.849365234375 290.9733581542969 388.5401916503906 303.95318603515625 C 408.323486328125 317.0951843261719 411.7695617675781 332.6014099121094 389.7029113769531 314.6021728515625" stroke-width="0.0" fill="rgb(42, 233, 240)" opacity="0.96707666" stroke="rgb(0, 0, 0)" stroke-opacity="1.0" stroke-linecap="round" stroke-linejoin="round"/>
    <path d="M 286.1626281738281 449.6610107421875 C 282.83526611328125 446.48193359375 272.01593017578125 467.63482666015625 274.5281066894531 459.3527526855469 C 257.02044677734375 447.0749206542969 265.7146301269531 459.3325500488281 273.7599182128906 412.28704833984375 C 275.8606262207031 362.823974609375 287.465087890625 371.71710205078125 298.57293701171875 392.00982666015625 C 283.702880859375 394.9945068359375 283.43988037109375 446.1786804199219 286.1626281738281 449.6610107421875" stroke-width="0.0" fill="rgb(125, 253, 47)" opacity="0.99561405" stroke="rgb(0, 0, 0)" stroke-opacity="1.0" stroke-linecap="round" stroke-linejoin="round"/>
    <path d="M 244.77830505371094 288.05450439453125 C 263.9071350097656 300.9280700683594 255.102294921875 318.63995361328125 241.85218811035156 318.1840515136719 C 255.41070556640625 280.6062316894531 235.94793701171875 268.5954895019531 223.66787719726562 260.5849914550781 C 214.253662109375 282.31390380859375 213.61465454101562 274.1451110839844 209.90081787109375 276.12994384765625 C 234.76449584960938 284.3960876464844 266.93792724609375 269.7005310058594 244.77830505371094 288.05450439453125" stroke-width="0.0" fill="rgb(59, 51, 67)" opacity="0.047688097" stroke="rgb(0, 0, 0)" stroke-opacity="1.0" stroke-linecap="round" stroke-linejoin="round"/>
    <path d="M 177.3975830078125 343.37872314453125 C 191.96217346191406 376.1396789550781 175.30014038085938 388.2139892578125 174.46974182128906 372.9611511230469 C 153.46014404296875 370.77130126953125 141.42347717285156 353.68408203125 144.57406616210938 335.0838317871094 C 149.82534790039062 363.67047119140625 178.39393615722656 350.97760009765625 170.5835723876953 355.65216064453125 C 177.00729370117188 338.10894775390625 170.95338439941406 316.4671936035156 177.3975830078125 343.37872314453125" stroke-width="0.0" fill="rgb(128, 151, 18)" opacity="0.9600868" stroke="rgb(0, 0, 0)" stroke-opacity="1.0" stroke-linecap="round" stroke-linejoin="round"/>
    <path d="M 405.84552001953125 123.877197265625 C 432.94464111328125 142.0925750732422 412.0937194824219 161.8082733154297 377.6686096191406 156.74856567382812 C 394.08612060546875 141.19464111328125 383.155517578125 137.77291870117188 406.447265625 163.5557861328125 C 427.6864318847656 144.7005615234375 411.53057861328125 113.86796569824219 433.7593994140625 134.44476318359375 C 422.5341491699219 150.55763244628906 395.6317443847656 158.93673706054688 405.84552001953125 123.877197265625" stroke-width="0.0" fill="rgb(185, 106, 70)" opacity="0.022566756" stroke="rgb(0, 0, 0)" stroke-opacity="1.0" stroke-linecap="round" stroke-linejoin="round"/>
    <path d="M 119.6283187866211 471.5868835449219 C 114.66415405273438 483.474609375 101.69091796875 481.12542724609375 82.67035675048828 464.3706970214844 C 58.55821990966797 470.8447265625 41.54021072387695 483.1300048828125 40.110435485839844 489.9094543457031 C 43.05828094482422 448.22802734375 64.68950653076172 438.26287841796875 102.20825958251953 433.37432861328125 C 107.35767364501953 438.87255859375 97.0157699584961 472.33551025390625 119.6283187866211 471.5868835449219" stroke-width="0.0" fill="rgb(238, 81, 29)" opacity="0.007626123" stroke="rgb(0, 0, 0)" stroke-opacity="1.0" stroke-linecap="round" stroke-linejoin="round"/>
    <path d="M 73.69894409179688 127.69205474853516 C 89.92638397216797 121.61991882324219 110.16360473632812 125.97173309326172 108.7052993774414 108.7883529663086 C 79.47917175292969 131.5414581298828 81.15434265136719 139.65875244140625 74.48343658447266 134.84750366210938 C 65.55473327636719 140.4399871826172 82.04273986816406 104.5262451171875 101.82196807861328 111.43904113769531 C 87.97615051269531 92.40521240234375 100.03203582763672 96.05961608886719 73.69894409179688 127.69205474853516" stroke-width="0.0" fill="rgb(205, 227, 26)" opacity="0.51477516" stroke="rgb(0, 0, 0)" stroke-opacity="1.0" stroke-linecap="round" stroke-linejoin="round"/>
    <path d="M 348.25390625 89.0239028930664 C 342.6880798339844 115.7138442993164 325.084228515625 129.62451171875 319.3290710449219 141.05287170410156 C 323.9944152832031 137.3155059814453 313.78179931640625 133.2649383544922 313.2326965332031 130.09791564941406 C 277.32562255859375 152.04368591308594 257.45489501953125 118.9021987915039 291.1479187011719 84.4390869140625 C 308.5925598144531 90.6065902709961 334.6728820800781 80.39120483398438 348.25390625 89.0239028930664" stroke-width="0.0" fill="rgb(191, 67, 0)" opacity="0.1420689" stroke="rgb(0, 0, 0)" stroke-opacity="1.0" stroke-linecap="round" stroke-linejoin="round"/>
    <path d="M 457.9176940917969 502.20306396484375 C 459.7574768066406 508.8316650390625 455.735107421875 519.1471557617188 434.64996337890625 529.9226684570312 C 433.82830810546875 539.2526245117188 444.98187255859375 526.4027709960938 451.1583251953125 493.45867919921875 C 451.369140625 514.0958862304688 462.4518737792969 482.4628601074219 469.807373046875 480.1349792480469 C 477.565185546875 469.9635925292969 478.2275085449219 470.5619812011719 457.9176940917969 502.20306396484375" stroke-width="0.0" fill="rgb(234, 75, 53)" opacity="0.019750757" stroke="rgb(0, 0, 0)" stroke-opacity="1.0" stroke-linecap="round" stroke-linejoin="round"/>
    <path d="M 449.5065612792969 -5.507726192474365 C 474.2593688964844 17.295475006103516 466.9422302246094 11.569488525390625 467.5399475097656 9.838045120239258 C 470.9073486328125 4.030728816986084 432.4755554199219 11.31390380859375 435.9068908691406 16.37602424621582 C 439.2547607421875 10.683063507080078 443.5995788574219 -10.28734016418457 440.62628173828125 -52.41429138183594 C 478.57098388671875 -11.570134162902832 494.3737487792969 -11.040258407592773 449.5065612792969 -5.507726192474365" stroke-width="0.0" fill="rgb(134, 110, 36)" opacity="0.00064248964" stroke="rgb(0, 0, 0)" stroke-opacity="1.0" stroke-linecap="round" stroke-linejoin="round"/>
    <path d="M 488.1991882324219 13.649605751037598 C 489.6247863769531 31.7204647064209 486.0596008300781 43.884952545166016 490.0249938964844 37.34074401855469 C 493.7099609375 32.80112838745117 472.0494384765625 29.783071517944336 469.2331237792969 35.60523223876953 C 475.02587890625 16.88926887512207 474.4872131347656 0.5827335119247437 477.3719177246094 -4.822081089019775 C 475.7142333984375 16.03984832763672 474.122802734375 33.037689208984375 488.1991882324219 13.649605751037598" stroke-width="0.0" fill="rgb(215, 79, 56)" opacity="0.003385563" stroke="rgb(0, 0, 0)" stroke-opacity="1.0" stroke-linecap="round" stroke-linejoin="round"/>
    <path d="M 58.06178283691406 330.8421630859375 C 60.98628234863281 357.50921630859375 60.94130325317383 344.0386657714844 43.883697509765625 343.64715576171875 C 26.134172439575195 338.8916931152344 0.15872293710708618 327.2545471191406 25.70248031616211 321.87432861328125 C 8.534185409545898 313.9092102050781 44.10108184814453 295.49267578125 53.87343215942383 308.1205139160156 C 55.73223114013672 310.1322021484375 56.94493103027344 307.0919494628906 58.06178283691406 330.8421630859375" stroke-width="0.0" fill="rgb(171, 44, 1)" opacity="0.102598175" stroke="rgb(0, 0, 0)" stroke-opacity="1.0" stroke-linecap="round" stroke-linejoin="round"/>
    <path d="M 227.16693115234375 443.1234436035156 C 193.98577880859375 451.9639587402344 197.79444885253906 473.99432373046875 189.35128784179688 469.4372863769531 C 192.2151641845703 470.403564453125 193.20770263671875 461.9671936035156 187.04248046875 453.3782653808594 C 207.29881286621094 476.1281433105469 210.52853393554688 465.416259765625 192.35926818847656 467.0958557128906 C 215.68092346191406 460.2919921875 233.7292938232422 470.1986999511719 227.16693115234375 443.1234436035156" stroke-width="0.0" fill="rgb(58, 33, 123)" opacity="0.109630235" stroke="rgb(0, 0, 0)" stroke-opacity="1.0" stroke-linecap="round" stroke-linejoin="round"/>
    <path d="M 23.595426559448242 396.2445068359375 C 10.200509071350098 357.4769592285156 18.816478729248047 363.3812561035156 24.578811645507812 372.9634704589844 C 25.42508888244629 374.06640625 6.886714935302734 374.90362548828125 7.722837924957275 374.80682373046875 C 6.651884078979492 376.2747497558594 16.58648109436035 378.9455261230469 3.0708179473876953 360.7933654785156 C 25.78384780883789 356.94952392578125 32.4190559387207 378.6736145019531 23.595426559448242 396.2445068359375" stroke-width="0.0" fill="rgb(177, 93, 45)" opacity="0.008372156" stroke="rgb(0, 0, 0)" stroke-opacity="1.0" stroke-linecap="round" stroke-linejoin="round"/>
    <path d="M 164.84335327148438 437.5549621582031 C 199.1978302001953 419.9092102050781 199.92015075683594 426.5714111328125 182.1171112060547 455.15069580078125 C 184.38226318359375 459.7752685546875 173.52650451660156 443.0372619628906 164.383544921875 437.3170166015625 C 135.02854919433594 429.20538330078125 152.28846740722656 425.57415771484375 183.98497009277344 425.0386047363281 C 193.88587951660156 427.6669921875 187.5438995361328 437.84393310546875 164.84335327148438 437.5549621582031" stroke-width="0.0" fill="rgb(139, 62, 108)" opacity="0.033463" stroke="rgb(0, 0, 0)" stroke-opacity="1.0" stroke-linecap="round" stroke-linejoin="round"/>
    <path d="M 391.4167785644531 207.72616577148438 C 381.3729248046875 254.3636474609375 378.552978515625 229.1836700439453 324.8951416015625 243.89512634277344 C 364.6260070800781 250.9215087890625 336.6307373046875 247.26580810546875 282.0911560058594 238.8406524658203 C 331.3834533691406 214.41702270507812 345.1729736328125 214.08743286132812 348.26751708984375 216.86849975585938 C 354.35247802734375 196.82618713378906 381.39593505859375 183.55189514160156 391.4167785644531 207.72616577148438" stroke-width="0.0" fill="rgb(137, 203, 160)" opacity="0.0" stroke="rgb(0, 0, 0)" stroke-opacity="1.0" stroke-linecap="round" stroke-linejoin="round"/>
    <path d="M 184.6493682861328 226.70950317382812 C 225.11228942871094 252.23756408691406 202.4166717529297 256.6929016113281 177.94674682617188 297.2148132324219 C 167.45040893554688 288.3413391113281 170.60653686523438 274.2738342285156 163.8295135498047 234.12400817871094 C 163.17550659179688 229.17257690429688 168.61532592773438 219.22637939453125 148.26983642578125 224.49058532714844 C 180.7201690673828 225.03912353515625 190.3607177734375 240.4443817138672 184.6493682861328 226.70950317382812" stroke-width="0.0" fill="rgb(139, 184, 60)" opacity="0.03613873" stroke="rgb(0, 0, 0)" stroke-opacity="1.0" stroke-linecap="round" stroke-linejoin="round"/>
    <path d="M 164.18951416015625 458.71881103515625 C 157.5384979248047 410.4405212402344 190.95028686523438 413.17877197265625 145.83477783203125 436.94903564453125 C 156.64404296875 468.5596618652344 192.3441162109375 447.9718322753906 176.8089141845703 424.5860900878906 C 169.49337768554688 430.3749694824219 174.5164794921875 430.11126708984375 175.73080444335938 433.8470764160156 C 184.93325805664062 405.5255126953125 187.56680297851562 433.3329162597656 164.18951416015625 458.71881103515625" stroke-width="0.0" fill="rgb(214, 88, 104)" opacity="0.06297448" stroke="rgb(0, 0, 0)" stroke-opacity="1.0" stroke-linecap="round" stroke-linejoin="round"/>
    <path d="M 536.7127685546875 212.64381408691406 C 527.02783203125 259.7325134277344 520.3948364257812 263.600341796875 496.3915710449219 270.8594665527344 C 449.26458740234375 280.0015563964844 458.9436950683594 281.1213073730469 454.5964660644531 257.55126953125 C 453.0792541503906 218.05349731445312 462.53125 220.0513153076172 497.8470153808594 215.5832977294922 C 508.32421875 204.8856201171875 527.286376953125 203.40325927734375 536.7127685546875 212.64381408691406" stroke-width="0.0" fill="rgb(221, 57, 36)" opacity="0.01627337" stroke="rgb(0, 0, 0)" stroke-opacity="1.0" stroke-linecap="round" stroke-linejoin="round"/>
  </g>
</svg>
