<?xml version="1.0" ?>
<svg xmlns="http://www.w3.org/2000/svg" version="1.1" width="512" height="512">
  <defs/>
  <g>
    <path d="M 540.8761596679688 470.1182861328125 C 548.88232421875 518.2211303710938 549.809814453125 525.8021850585938 382.8209228515625 535.9752807617188 C 350.8724060058594 532.5205688476562 346.2538146972656 507.8860778808594 275.8731689453125 432.40533447265625 C 292.3799133300781 326.1356506347656 389.1304931640625 331.50958251953125 510.5244445800781 344.33856201171875 C 569.4194946289062 342.49774169921875 571.3516235351562 358.2642517089844 540.8761596679688 470.1182861328125" stroke-width="0.0" fill="rgb(18, 9, 79)" opacity="0.96803665" stroke="rgb(0, 0, 0)" stroke-opacity="1.0" stroke-linecap="round" stroke-linejoin="round"/>
    <path d="M 315.751708984375 469.5762634277344 C 360.89801025390625 527.5629272460938 395.38433837890625 529.59375 278.0755615234375 532.793701171875 C -51.100406646728516 521.1051635742188 -51.19970703125 512.4564819335938 -63.91958999633789 460.3481140136719 C -40.09908676147461 196.91848754882812 -24.936052322387695 195.2293243408203 19.2691593170166 200.16783142089844 C 156.54071044921875 294.1231384277344 176.3810577392578 303.139892578125 315.751708984375 469.5762634277344" stroke-width="0.0" fill="rgb(19, 19, 244)" opacity="0.98027587" stroke="rgb(0, 0, 0)" stroke-opacity="1.0" stroke-linecap="round" stroke-linejoin="round"/>
    <path d="M 323.0139465332031 342.6234436035156 C 314.0035705566406 409.5164489746094 274.7580261230469 392.5589294433594 205.1844024658203 415.6356201171875 C 84.50402069091797 347.54168701171875 114.15290069580078 282.14849853515625 45.6756706237793 153.82763671875 C 27.212772369384766 176.95108032226562 36.92555236816406 172.9415283203125 149.517578125 176.4035186767578 C 296.7969665527344 166.5919189453125 303.6070861816406 121.89615631103516 323.0139465332031 342.6234436035156" stroke-width="0.0" fill="rgb(212, 246, 77)" opacity="1.0" stroke="rgb(0, 0, 0)" stroke-opacity="1.0" stroke-linecap="round" stroke-linejoin="round"/>
    <path d="M 255.129150390625 26.067655563354492 C 267.3089599609375 248.69131469726562 254.56320190429688 187.20155334472656 40.997013092041016 250.5080108642578 C -48.38199234008789 230.93722534179688 -39.259422302246094 209.03335571289062 -28.13058853149414 166.14810180664062 C -16.494123458862305 -18.97837257385254 -10.838438034057617 -25.126850128173828 34.593955993652344 -27.545637130737305 C 212.11656188964844 -39.205936431884766 238.9645233154297 -53.22097396850586 255.129150390625 26.067655563354492" stroke-width="0.0" fill="rgb(27, 22, 255)" opacity="0.99757123" stroke="rgb(0, 0, 0)" stroke-opacity="1.0" stroke-linecap="round" stroke-linejoin="round"/>
    <path d="M 555.9702758789062 49.372406005859375 C 434.0119934082031 274.887451171875 433.4225769042969 288.1054992675781 367.3441467285156 303.6214599609375 C 265.6557922363281 324.521728515625 286.5643005371094 316.50372314453125 224.0590362548828 181.6824493408203 C 235.11447143554688 1.7251676321029663 196.50961303710938 -21.0881290435791 353.663818359375 -19.48828887939453 C 563.2000122070312 -5.52442741394043 563.2000122070312 4.830130577087402 555.9702758789062 49.372406005859375" stroke-width="0.0" fill="rgb(18, 3, 253)" opacity="0.9697509" stroke="rgb(0, 0, 0)" stroke-opacity="1.0" stroke-linecap="round" stroke-linejoin="round"/>
    <path d="M 348.1230773925781 83.59123229980469 C 291.99871826171875 291.6869201660156 245.41339111328125 287.09197998046875 232.26234436035156 277.94573974609375 C 108.1168212890625 301.94854736328125 90.9887924194336 296.2198486328125 94.23770904541016 257.30426025390625 C 114.31392669677734 161.83885192871094 126.99425506591797 120.52484130859375 288.5806884765625 12.892179489135742 C 293.6314392089844 26.57706069946289 263.6999206542969 15.238004684448242 348.1230773925781 83.59123229980469" stroke-width="0.0" fill="rgb(214, 234, 46)" opacity="0.9002098" stroke="rgb(0, 0, 0)" stroke-opacity="1.0" stroke-linecap="round" stroke-linejoin="round"/>
    <path d="M 458.6944274902344 324.8259582519531 C 449.34442138671875 392.9707336425781 467.2533874511719 441.4563903808594 310.5657653808594 441.07598876953125 C 280.07635498046875 433.96868896484375 249.6626434326172 431.8960266113281 248.218505859375 408.091064453125 C 241.5853271484375 169.15652465820312 238.26719665527344 179.63368225097656 340.83917236328125 187.81736755371094 C 409.137451171875 292.2334289550781 459.15362548828125 278.7491149902344 458.6944274902344 324.8259582519531" stroke-width="0.0" fill="rgb(185, 205, 41)" opacity="1.0" stroke="rgb(0, 0, 0)" stroke-opacity="1.0" stroke-linecap="round" stroke-linejoin="round"/>
    <path d="M 551.6316528320312 170.48880004882812 C 558.9219360351562 327.36181640625 555.5916137695312 342.83514404296875 434.3128356933594 433.5797119140625 C 334.296142578125 435.6285400390625 391.4466247558594 382.84356689453125 386.8955078125 265.58685302734375 C 353.69781494140625 190.92388916015625 390.967529296875 131.61981201171875 535.0590209960938 83.50923156738281 C 563.2000122070312 76.2098159790039 563.2000122070312 99.41815185546875 551.6316528320312 170.48880004882812" stroke-width="0.0" fill="rgb(20, 15, 109)" opacity="0.96437126" stroke="rgb(0, 0, 0)" stroke-opacity="1.0" stroke-linecap="round" stroke-linejoin="round"/>
    <path d="M 407.0442199707031 241.40557861328125 C 418.7496337890625 271.06634521484375 381.8359069824219 218.75201416015625 383.4106750488281 238.20645141601562 C 352.9286804199219 235.51988220214844 307.36004638671875 191.89230346679688 171.8183135986328 258.16986083984375 C 238.6918487548828 163.13552856445312 271.2526550292969 197.56309509277344 310.7380065917969 183.42657470703125 C 358.1064147949219 166.89047241210938 401.2519226074219 175.9854278564453 407.0442199707031 241.40557861328125" stroke-width="0.0" fill="rgb(199, 244, 48)" opacity="0.82261413" stroke="rgb(0, 0, 0)" stroke-opacity="1.0" stroke-linecap="round" stroke-linejoin="round"/>
    <path d="M 429.94647216796875 275.8143615722656 C 439.1123962402344 287.890380859375 419.92987060546875 407.0816345214844 364.3920593261719 418.2548522949219 C 343.1371765136719 316.02923583984375 406.3088073730469 250.64231872558594 290.36810302734375 167.2325897216797 C 394.4530029296875 148.84872436523438 375.7914733886719 220.02984619140625 305.3406066894531 154.74110412597656 C 407.2612609863281 127.64537811279297 440.6684265136719 269.9010009765625 429.94647216796875 275.8143615722656" stroke-width="0.0" fill="rgb(185, 81, 1)" opacity="0.9767816" stroke="rgb(0, 0, 0)" stroke-opacity="1.0" stroke-linecap="round" stroke-linejoin="round"/>
    <path d="M 349.5729675292969 95.6015625 C 298.0630798339844 79.30464172363281 261.6587829589844 99.65999603271484 268.82568359375 162.30783081054688 C 226.00009155273438 176.6728515625 196.78570556640625 124.21886444091797 86.2000961303711 160.13221740722656 C 114.2815933227539 -5.617475986480713 135.3739013671875 -13.832719802856445 268.0079040527344 -53.276519775390625 C 349.07763671875 -53.94221115112305 348.05169677734375 -6.836719989776611 349.5729675292969 95.6015625" stroke-width="0.0" fill="rgb(16, 12, 255)" opacity="0.99845517" stroke="rgb(0, 0, 0)" stroke-opacity="1.0" stroke-linecap="round" stroke-linejoin="round"/>
    <path d="M 260.6441345214844 401.53326416015625 C 252.60354614257812 432.1989440917969 207.8094024658203 425.15460205078125 180.42181396484375 397.74591064453125 C 144.47967529296875 367.15179443359375 122.71747589111328 389.9494323730469 183.96038818359375 422.212890625 C 129.09024047851562 379.9580383300781 149.87303161621094 305.0249938964844 169.67054748535156 307.3822326660156 C 242.7921905517578 346.1278381347656 172.4347686767578 371.3001708984375 260.6441345214844 401.53326416015625" stroke-width="0.0" fill="rgb(225, 252, 87)" opacity="0.8515382" stroke="rgb(0, 0, 0)" stroke-opacity="1.0" stroke-linecap="round" stroke-linejoin="round"/>
    <path d="M 448.07354736328125 385.7967834472656 C 443.1077880859375 410.92633056640625 435.4347839355469 425.1627502441406 406.135498046875 446.7899169921875 C 373.6310729980469 494.88385009765625 375.9908142089844 457.22760009765625 355.1346435546875 427.73651123046875 C 387.9601135253906 433.0956726074219 430.90667724609375 412.9544982910156 440.0450439453125 396.89312744140625 C 433.32928466796875 389.2408447265625 450.9896545410156 401.31890869140625 448.07354736328125 385.7967834472656" stroke-width="0.0" fill="rgb(12, 20, 37)" opacity="0.8255192" stroke="rgb(0, 0, 0)" stroke-opacity="1.0" stroke-linecap="round" stroke-linejoin="round"/>
    <path d="M 361.7105407714844 400.9096984863281 C 341.5491638183594 479.7117614746094 343.4986572265625 483.6902160644531 317.3270568847656 464.1320495605469 C 274.8218688964844 428.7981262207031 251.2108154296875 430.6209411621094 212.1461944580078 426.34912109375 C 232.4224395751953 424.98980712890625 240.1469268798828 412.7884826660156 266.6404724121094 415.3177795410156 C 331.0672302246094 448.76068115234375 350.05914306640625 428.1238098144531 361.7105407714844 400.9096984863281" stroke-width="0.0" fill="rgb(16, 23, 138)" opacity="1.0" stroke="rgb(0, 0, 0)" stroke-opacity="1.0" stroke-linecap="round" stroke-linejoin="round"/>
    <path d="M 296.10101318359375 278.49505615234375 C 235.40370178222656 260.330810546875 209.76715087890625 302.3242492675781 244.4290008544922 329.9779357910156 C 164.2236328125 350.8751525878906 169.02764892578125 295.71405029296875 159.0032196044922 261.0221862792969 C 133.69854736328125 236.53976440429688 149.9142303466797 154.5155792236328 243.0205078125 191.44898986816406 C 344.40924072265625 172.4331512451172 356.3025207519531 160.81964111328125 296.10101318359375 278.49505615234375" stroke-width="0.0" fill="rgb(225, 251, 82)" opacity="0.85721284" stroke="rgb(0, 0, 0)" stroke-opacity="1.0" stroke-linecap="round" stroke-linejoin="round"/>
    <path d="M 444.7673645019531 452.96868896484375 C 417.1623840332031 495.80853271484375 431.6221923828125 518.4227294921875 400.854736328125 516.7393188476562 C 343.5957946777344 507.3864440917969 342.49102783203125 498.43536376953125 289.7201232910156 434.9840393066406 C 318.7413024902344 412.47845458984375 338.6509094238281 419.95501708984375 357.1781921386719 411.7662048339844 C 415.1119689941406 385.69390869140625 445.737548828125 418.7133483886719 444.7673645019531 452.96868896484375" stroke-width="0.0" fill="rgb(27, 16, 95)" opacity="0.99424523" stroke="rgb(0, 0, 0)" stroke-opacity="1.0" stroke-linecap="round" stroke-linejoin="round"/>
    <path d="M 279.26373291015625 264.61077880859375 C 206.10433959960938 228.8201446533203 196.61956787109375 291.1092529296875 251.68128967285156 340.4596862792969 C 263.523681640625 361.4483642578125 256.953125 382.8856506347656 233.89852905273438 381.3277587890625 C 282.3285217285156 428.4542236328125 291.5339050292969 419.43353271484375 277.4776306152344 398.1242980957031 C 267.0557556152344 395.3377685546875 281.93243408203125 399.8874206542969 279.26373291015625 264.61077880859375" stroke-width="0.0" fill="rgb(167, 165, 2)" opacity="0.5934646" stroke="rgb(0, 0, 0)" stroke-opacity="1.0" stroke-linecap="round" stroke-linejoin="round"/>
    <path d="M 217.73126220703125 175.99151611328125 C 58.504940032958984 74.89556121826172 72.12687683105469 411.2161560058594 194.698486328125 437.5468444824219 C 72.40415954589844 252.17596435546875 255.0770263671875 96.02352142333984 111.61447143554688 189.28402709960938 C 50.31783676147461 315.20574951171875 61.200870513916016 232.2099151611328 156.38279724121094 160.875732421875 C 140.34234619140625 336.8660583496094 118.77066802978516 223.91722106933594 217.73126220703125 175.99151611328125" stroke-width="0.0" fill="rgb(234, 248, 82)" opacity="1.0" stroke="rgb(0, 0, 0)" stroke-opacity="1.0" stroke-linecap="round" stroke-linejoin="round"/>
    <path d="M 302.02532958984375 157.55577087402344 C 310.3168029785156 194.85662841796875 292.858642578125 181.30300903320312 300.0520324707031 171.84608459472656 C 323.7887268066406 158.1265106201172 301.08203125 155.8904571533203 268.28485107421875 164.98594665527344 C 249.4778289794922 182.60601806640625 275.1798095703125 130.70094299316406 298.23236083984375 119.34916687011719 C 323.29425048828125 141.55104064941406 328.93096923828125 95.77969360351562 302.02532958984375 157.55577087402344" stroke-width="0.0" fill="rgb(36, 179, 165)" opacity="0.8071485" stroke="rgb(0, 0, 0)" stroke-opacity="1.0" stroke-linecap="round" stroke-linejoin="round"/>
    <path d="M 138.41806030273438 179.69325256347656 C 99.51396179199219 219.35816955566406 97.44263458251953 288.6861877441406 115.29322052001953 350.8819274902344 C 14.950071334838867 353.2076110839844 -8.545204162597656 316.8947448730469 -33.95219039916992 226.87615966796875 C 62.08757400512695 229.81671142578125 46.79961395263672 192.76773071289062 122.74950408935547 123.90492248535156 C 240.83946228027344 162.04881286621094 178.12567138671875 132.12440490722656 138.41806030273438 179.69325256347656" stroke-width="0.0" fill="rgb(17, 10, 255)" opacity="1.0" stroke="rgb(0, 0, 0)" stroke-opacity="1.0" stroke-linecap="round" stroke-linejoin="round"/>
    <path d="M 206.92263793945312 164.84768676757812 C 148.32211303710938 307.06378173828125 240.45045471191406 381.4820861816406 169.41505432128906 322.47454833984375 C 159.08241271972656 291.05523681640625 178.81045532226562 226.77227783203125 172.1773223876953 232.3445587158203 C 119.88419342041016 269.3148498535156 154.97329711914062 261.0713195800781 169.56356811523438 256.8755187988281 C 174.3972625732422 224.4727325439453 187.17344665527344 188.37692260742188 206.92263793945312 164.84768676757812" stroke-width="0.0" fill="rgb(229, 236, 103)" opacity="0.2878976" stroke="rgb(0, 0, 0)" stroke-opacity="1.0" stroke-linecap="round" stroke-linejoin="round"/>
    <path d="M 359.8728942871094 106.76364135742188 C 298.352783203125 230.43890380859375 278.438232421875 71.52445220947266 274.333251953125 174.11480712890625 C 277.39129638671875 172.68612670898438 262.9660339355469 134.45115661621094 254.6562957763672 142.580810546875 C 242.1475067138672 96.13617706298828 255.09693908691406 115.88561248779297 259.5751647949219 142.20956420898438 C 300.765869140625 82.01435852050781 374.5202331542969 60.029396057128906 359.8728942871094 106.76364135742188" stroke-width="0.0" fill="rgb(10, 229, 87)" opacity="0.9186421" stroke="rgb(0, 0, 0)" stroke-opacity="1.0" stroke-linecap="round" stroke-linejoin="round"/>
    <path d="M 298.9624328613281 152.26524353027344 C 276.9476623535156 161.63790893554688 281.8318786621094 175.62188720703125 279.8484191894531 162.71983337402344 C 278.4731750488281 168.08245849609375 285.3202819824219 166.63438415527344 264.09625244140625 165.647705078125 C 282.5554504394531 136.07508850097656 268.9438171386719 140.81881713867188 290.009033203125 183.51231384277344 C 271.9349365234375 184.46658325195312 259.6586608886719 165.94937133789062 298.9624328613281 152.26524353027344" stroke-width="0.0" fill="rgb(79, 160, 229)" opacity="0.21590285" stroke="rgb(0, 0, 0)" stroke-opacity="1.0" stroke-linecap="round" stroke-linejoin="round"/>
    <path d="M 234.47474670410156 396.0838623046875 C 235.16268920898438 422.2524719238281 229.8300323486328 427.68603515625 204.87631225585938 434.50634765625 C 168.20700073242188 427.1390380859375 168.14535522460938 398.60284423828125 167.60305786132812 371.1525573730469 C 175.70298767089844 375.1048889160156 170.32546997070312 367.3167724609375 206.0700225830078 350.587646484375 C 199.8173370361328 382.0681457519531 188.92030334472656 386.7332458496094 234.47474670410156 396.0838623046875" stroke-width="0.0" fill="rgb(227, 253, 88)" opacity="1.0" stroke="rgb(0, 0, 0)" stroke-opacity="1.0" stroke-linecap="round" stroke-linejoin="round"/>
    <path d="M 381.4630126953125 410.037841796875 C 361.9830017089844 440.2864685058594 300.0935363769531 443.1707763671875 312.82403564453125 418.3797607421875 C 329.6268005371094 401.8382568359375 305.7366027832031 431.2821960449219 332.29608154296875 394.06756591796875 C 317.61944580078125 407.5978698730469 341.2138977050781 399.37957763671875 366.0851135253906 328.79974365234375 C 376.090576171875 362.0720520019531 424.48968505859375 382.440673828125 381.4630126953125 410.037841796875" stroke-width="0.0" fill="rgb(177, 77, 15)" opacity="1.0" stroke="rgb(0, 0, 0)" stroke-opacity="1.0" stroke-linecap="round" stroke-linejoin="round"/>
    <path d="M 292.25067138671875 288.3638610839844 C 248.5277862548828 272.8043518066406 257.0946350097656 300.343505859375 221.9952850341797 337.87872314453125 C 191.2941131591797 296.5642395019531 207.83090209960938 262.0356140136719 207.10829162597656 267.994873046875 C 208.9619903564453 250.95863342285156 236.90016174316406 228.9001922607422 264.1746520996094 257.0899963378906 C 253.02638244628906 273.8263244628906 278.2685546875 275.1820983886719 292.25067138671875 288.3638610839844" stroke-width="0.0" fill="rgb(255, 34, 0)" opacity="0.91577226" stroke="rgb(0, 0, 0)" stroke-opacity="1.0" stroke-linecap="round" stroke-linejoin="round"/>
    <path d="M 203.06715393066406 333.6805419921875 C 191.76004028320312 419.27789306640625 175.82981872558594 384.6815185546875 146.92327880859375 380.43560791015625 C 142.00498962402344 369.8279724121094 148.22125244140625 346.8471984863281 149.78660583496094 352.9960632324219 C 163.26971435546875 337.613525390625 144.70388793945312 328.6601257324219 139.90908813476562 323.3388977050781 C 163.3087921142578 291.6310119628906 207.0765838623047 306.1853942871094 203.06715393066406 333.6805419921875" stroke-width="0.0" fill="rgb(223, 253, 69)" opacity="0.3041177" stroke="rgb(0, 0, 0)" stroke-opacity="1.0" stroke-linecap="round" stroke-linejoin="round"/>
    <path d="M 298.64361572265625 281.29010009765625 C 305.877197265625 338.7796936035156 343.1864318847656 292.8019714355469 301.83868408203125 347.3289489746094 C 240.93124389648438 335.095458984375 221.5666961669922 361.0827331542969 248.64625549316406 325.1044616699219 C 231.45761108398438 291.934326171875 233.52410888671875 246.21737670898438 251.37588500976562 250.90353393554688 C 332.5272521972656 231.4449920654297 308.134765625 253.2092742919922 298.64361572265625 281.29010009765625" stroke-width="0.0" fill="rgb(197, 10, 127)" opacity="0.961164" stroke="rgb(0, 0, 0)" stroke-opacity="1.0" stroke-linecap="round" stroke-linejoin="round"/>
    <path d="M 357.2390441894531 94.5209732055664 C 364.461669921875 84.5491714477539 346.32623291015625 94.9142074584961 362.90045166015625 84.77645111083984 C 356.48260498046875 95.66393280029297 337.1161804199219 95.758056640625 307.1940612792969 109.68598937988281 C 294.7825622558594 83.44107055664062 317.91510009765625 92.0555419921875 317.4328918457031 85.28404998779297 C 343.9115905761719 83.33087921142578 366.70037841796875 93.13060760498047 357.2390441894531 94.5209732055664" stroke-width="0.0" fill="rgb(60, 218, 32)" opacity="0.6927642" stroke="rgb(0, 0, 0)" stroke-opacity="1.0" stroke-linecap="round" stroke-linejoin="round"/>
    <path d="M 256.23583984375 254.1988983154297 C 286.4372863769531 221.92379760742188 274.40753173828125 213.1106719970703 269.0118103027344 234.4034423828125 C 270.0264587402344 235.9384765625 248.69923400878906 261.3674621582031 275.20281982421875 236.95840454101562 C 271.9853515625 108.36604309082031 282.05621337890625 55.57749938964844 229.235595703125 99.1402359008789 C 276.16802978515625 180.2827606201172 268.9149169921875 243.59230041503906 256.23583984375 254.1988983154297" stroke-width="0.0" fill="rgb(172, 96, 0)" opacity="0.9376404" stroke="rgb(0, 0, 0)" stroke-opacity="1.0" stroke-linecap="round" stroke-linejoin="round"/>
    <path d="M 256.13720703125 257.2376708984375 C 256.9183349609375 249.85069274902344 271.9214172363281 279.9405212402344 280.3810729980469 262.91845703125 C 252.16107177734375 255.5747528076172 256.22186279296875 270.1661682128906 278.8095397949219 266.4726257324219 C 256.41241455078125 241.25990295410156 251.38275146484375 245.4625244140625 266.6715087890625 218.62353515625 C 317.758056640625 183.8488006591797 289.81304931640625 222.88763427734375 256.13720703125 257.2376708984375" stroke-width="0.0" fill="rgb(133, 0, 230)" opacity="0.73066425" stroke="rgb(0, 0, 0)" stroke-opacity="1.0" stroke-linecap="round" stroke-linejoin="round"/>
    <path d="M 361.1266174316406 222.68104553222656 C 354.49609375 212.8209991455078 378.4337463378906 229.3835906982422 359.6980895996094 225.13754272460938 C 327.63604736328125 228.785888671875 326.9159851074219 227.62918090820312 344.6960144042969 219.29554748535156 C 358.54351806640625 209.63479614257812 364.7328186035156 206.42459106445312 386.41632080078125 186.20628356933594 C 379.5394287109375 175.59613037109375 378.5194091796875 171.0510711669922 361.1266174316406 222.68104553222656" stroke-width="0.0" fill="rgb(191, 139, 5)" opacity="0.0061999992" stroke="rgb(0, 0, 0)" stroke-opacity="1.0" stroke-linecap="round" stroke-linejoin="round"/>
    <path d="M 84.66097259521484 467.8548583984375 C 84.76792907714844 472.6104431152344 82.92776489257812 470.307373046875 87.29134368896484 469.71978759765625 C 69.54137420654297 469.5175476074219 61.70606994628906 461.16290283203125 48.970638275146484 447.59619140625 C 40.20110321044922 416.770751953125 47.701595306396484 432.07464599609375 65.62981414794922 428.7063903808594 C 75.89289093017578 434.5240783691406 78.51054382324219 450.935302734375 84.66097259521484 467.8548583984375" stroke-width="0.0" fill="rgb(64, 197, 27)" opacity="0.7872639" stroke="rgb(0, 0, 0)" stroke-opacity="1.0" stroke-linecap="round" stroke-linejoin="round"/>
    <path d="M 197.54302978515625 347.64959716796875 C 210.4683837890625 363.5837097167969 205.34779357910156 368.1313171386719 205.41683959960938 359.22467041015625 C 209.59510803222656 352.62158203125 207.47494506835938 350.50860595703125 187.94451904296875 345.286376953125 C 196.51385498046875 320.4917907714844 177.55526733398438 321.0592346191406 196.40863037109375 322.70751953125 C 204.43359375 307.7286682128906 207.56546020507812 333.2574157714844 197.54302978515625 347.64959716796875" stroke-width="0.0" fill="rgb(249, 231, 71)" opacity="0.023690408" stroke="rgb(0, 0, 0)" stroke-opacity="1.0" stroke-linecap="round" stroke-linejoin="round"/>
    <path d="M 43.68006134033203 308.1180114746094 C 50.31306457519531 335.5558166503906 38.982200622558594 340.85931396484375 37.955718994140625 347.0705871582031 C 34.94471740722656 335.4175720214844 34.707088470458984 335.8856506347656 28.016862869262695 319.056884765625 C 20.01888084411621 297.8425598144531 27.85818862915039 291.3807373046875 29.56935691833496 278.1598205566406 C 36.32426071166992 282.51239013671875 43.786216735839844 291.39031982421875 43.68006134033203 308.1180114746094" stroke-width="0.0" fill="rgb(107, 204, 57)" opacity="0.71687216" stroke="rgb(0, 0, 0)" stroke-opacity="1.0" stroke-linecap="round" stroke-linejoin="round"/>
    <path d="M 131.56475830078125 427.60272216796875 C 129.9862518310547 447.3792419433594 117.49263000488281 468.2047119140625 98.6996841430664 471.01129150390625 C 101.83470916748047 458.6397399902344 102.9970932006836 454.8941955566406 98.98170471191406 469.484130859375 C 101.00944519042969 444.6282653808594 113.7703628540039 428.522705078125 121.80919647216797 427.7242736816406 C 114.12810516357422 418.7997131347656 135.19578552246094 425.323486328125 131.56475830078125 427.60272216796875" stroke-width="0.0" fill="rgb(172, 241, 67)" opacity="0.7974402" stroke="rgb(0, 0, 0)" stroke-opacity="1.0" stroke-linecap="round" stroke-linejoin="round"/>
    <path d="M 484.1378479003906 68.46180725097656 C 481.5282897949219 53.833282470703125 477.7182922363281 66.62728881835938 470.71160888671875 78.51326751708984 C 470.187255859375 100.71205139160156 483.70635986328125 86.89195251464844 457.59368896484375 101.03030395507812 C 478.41058349609375 73.56385803222656 490.1838073730469 71.10444641113281 510.34600830078125 58.428131103515625 C 472.7001647949219 61.52189636230469 480.5223388671875 71.7117691040039 484.1378479003906 68.46180725097656" stroke-width="0.0" fill="rgb(44, 8, 223)" opacity="0.003977725" stroke="rgb(0, 0, 0)" stroke-opacity="1.0" stroke-linecap="round" stroke-linejoin="round"/>
    <path d="M 47.795806884765625 183.8861846923828 C 57.45185852050781 193.68035888671875 33.6068229675293 205.5587615966797 55.97011184692383 212.33233642578125 C 58.37891387939453 183.0092010498047 37.41916275024414 203.28196716308594 -3.50003981590271 213.2372283935547 C -11.644692420959473 172.22494506835938 2.815133571624756 162.50650024414062 34.24551010131836 162.82455444335938 C 49.80877685546875 160.39036560058594 67.62694549560547 174.38609313964844 47.795806884765625 183.8861846923828" stroke-width="0.0" fill="rgb(49, 26, 227)" opacity="0.054500207" stroke="rgb(0, 0, 0)" stroke-opacity="1.0" stroke-linecap="round" stroke-linejoin="round"/>
    <path d="M 316.4197082519531 345.4700927734375 C 316.5777587890625 349.5294189453125 313.6130065917969 359.0188293457031 286.9769287109375 375.5221862792969 C 285.3952941894531 361.5442810058594 268.91790771484375 358.7791442871094 273.0887756347656 322.73394775390625 C 269.1390686035156 309.8615417480469 282.976806640625 325.29022216796875 319.4556884765625 324.1044616699219 C 329.700439453125 328.6539306640625 326.7097473144531 334.27606201171875 316.4197082519531 345.4700927734375" stroke-width="0.0" fill="rgb(173, 184, 38)" opacity="0.007577543" stroke="rgb(0, 0, 0)" stroke-opacity="1.0" stroke-linecap="round" stroke-linejoin="round"/>
    <path d="M 360.7205810546875 423.4308776855469 C 390.80987548828125 438.4524230957031 387.81561279296875 431.852783203125 338.57769775390625 436.3348083496094 C 361.6556396484375 473.9851989746094 349.1178283691406 445.77020263671875 338.5888977050781 411.5390319824219 C 336.74359130859375 456.2041015625 360.517333984375 429.2345275878906 379.2950744628906 433.6407165527344 C 396.8078918457031 421.98040771484375 385.8356018066406 408.662109375 360.7205810546875 423.4308776855469" stroke-width="0.0" fill="rgb(1, 0, 57)" opacity="0.11921053" stroke="rgb(0, 0, 0)" stroke-opacity="1.0" stroke-linecap="round" stroke-linejoin="round"/>
    <path d="M 368.0861511230469 429.0791015625 C 359.98138427734375 443.7690124511719 365.5743713378906 454.3640441894531 349.9271240234375 451.256103515625 C 328.4411926269531 445.8238830566406 315.31707763671875 425.95330810546875 310.7315368652344 413.16143798828125 C 316.73883056640625 425.51873779296875 355.6950988769531 433.19769287109375 367.2852478027344 421.6015930175781 C 378.3662414550781 426.47662353515625 356.02813720703125 432.31976318359375 368.0861511230469 429.0791015625" stroke-width="0.0" fill="rgb(99, 2, 35)" opacity="0.029602144" stroke="rgb(0, 0, 0)" stroke-opacity="1.0" stroke-linecap="round" stroke-linejoin="round"/>
    <path d="M 424.2743835449219 65.91156005859375 C 429.21099853515625 77.01580047607422 420.8453063964844 96.80139923095703 406.2935791015625 109.39683532714844 C 398.9833984375 90.3539047241211 408.0637512207031 68.39447784423828 416.5826721191406 93.29056549072266 C 394.4335632324219 100.1744384765625 402.85894775390625 66.82079315185547 416.68292236328125 45.632633209228516 C 416.339111328125 33.49563217163086 420.5355529785156 53.66596221923828 424.2743835449219 65.91156005859375" stroke-width="0.0" fill="rgb(96, 208, 38)" opacity="0.8136744" stroke="rgb(0, 0, 0)" stroke-opacity="1.0" stroke-linecap="round" stroke-linejoin="round"/>
    <path d="M 34.47178649902344 67.62648010253906 C 17.943191528320312 72.98068237304688 19.90216827392578 87.07972717285156 26.56673812866211 125.82952117919922 C -14.75405502319336 118.4857406616211 -28.763734817504883 116.20789337158203 -9.621182441711426 103.38787841796875 C 19.147031784057617 96.43778228759766 30.791622161865234 98.30587768554688 36.00238037109375 114.26416015625 C 39.81972122192383 72.49381256103516 39.90979766845703 75.59452819824219 34.47178649902344 67.62648010253906" stroke-width="0.0" fill="rgb(36, 13, 246)" opacity="0.022518355" stroke="rgb(0, 0, 0)" stroke-opacity="1.0" stroke-linecap="round" stroke-linejoin="round"/>
    <path d="M -10.478588104248047 170.99794006347656 C 18.22359275817871 148.44947814941406 4.726733207702637 135.70394897460938 14.686695098876953 155.55575561523438 C 34.80427932739258 169.43276977539062 10.79294204711914 167.65406799316406 -38.74382781982422 164.6758270263672 C -37.58719253540039 136.14743041992188 -23.55821418762207 139.71170043945312 17.022602081298828 153.85984802246094 C 5.959399223327637 152.66232299804688 -20.71060562133789 176.6859130859375 -10.478588104248047 170.99794006347656" stroke-width="0.0" fill="rgb(19, 51, 254)" opacity="0.0" stroke="rgb(0, 0, 0)" stroke-opacity="1.0" stroke-linecap="round" stroke-linejoin="round"/>
    <path d="M 532.20654296875 293.43511962890625 C 516.5443115234375 300.0679626464844 504.033447265625 300.89044189453125 474.2923583984375 281.4690246582031 C 448.066650390625 298.4881591796875 407.5931091308594 304.43499755859375 412.47125244140625 252.44821166992188 C 444.6494445800781 194.92669677734375 467.0347900390625 161.3384246826172 526.3707885742188 182.8794403076172 C 530.2451782226562 216.0409698486328 540.6708374023438 231.28114318847656 532.20654296875 293.43511962890625" stroke-width="0.0" fill="rgb(19, 7, 150)" opacity="0.015413439" stroke="rgb(0, 0, 0)" stroke-opacity="1.0" stroke-linecap="round" stroke-linejoin="round"/>
    <path d="M 274.30255126953125 59.55751037597656 C 283.70135498046875 110.2986068725586 290.17071533203125 93.0388412475586 304.658203125 52.339962005615234 C 325.7770690917969 29.243558883666992 310.8565673828125 36.16544723510742 287.20770263671875 22.761280059814453 C 254.0367431640625 39.713294982910156 266.8152160644531 66.79214477539062 326.3603515625 55.81875991821289 C 321.7401428222656 7.722687721252441 277.6590881347656 15.882649421691895 274.30255126953125 59.55751037597656" stroke-width="0.0" fill="rgb(30, 2, 243)" opacity="0.02251994" stroke="rgb(0, 0, 0)" stroke-opacity="1.0" stroke-linecap="round" stroke-linejoin="round"/>
    <path d="M 429.2176513671875 262.2502746582031 C 439.78521728515625 289.6115417480469 450.81549072265625 279.9781188964844 444.4303894042969 272.7346496582031 C 407.63519287109375 314.7208251953125 422.15594482421875 282.4638977050781 399.3951416015625 269.1474914550781 C 412.9935302734375 275.03594970703125 436.18414306640625 284.8927001953125 458.349853515625 253.11509704589844 C 432.55340576171875 220.83529663085938 443.32806396484375 247.71107482910156 429.2176513671875 262.2502746582031" stroke-width="0.0" fill="rgb(134, 60, 27)" opacity="0.0" stroke="rgb(0, 0, 0)" stroke-opacity="1.0" stroke-linecap="round" stroke-linejoin="round"/>
    <path d="M 555.0010986328125 142.43734741210938 C 542.3351440429688 153.24227905273438 518.6031494140625 155.79525756835938 482.4590759277344 169.605712890625 C 469.1625061035156 140.51300048828125 484.02410888671875 136.2374725341797 459.90777587890625 163.10098266601562 C 431.3417053222656 114.6832275390625 461.08868408203125 105.04544830322266 511.4497985839844 113.70286560058594 C 552.4656372070312 118.78321075439453 559.065673828125 140.52383422851562 555.0010986328125 142.43734741210938" stroke-width="0.0" fill="rgb(21, 0, 176)" opacity="0.21339469" stroke="rgb(0, 0, 0)" stroke-opacity="1.0" stroke-linecap="round" stroke-linejoin="round"/>
    <path d="M 591.7952270507812 192.63388061523438 C 573.351806640625 181.67637634277344 541.2642822265625 166.2572021484375 486.50921630859375 210.33505249023438 C 463.1934509277344 210.46237182617188 473.8164978027344 149.6964874267578 473.7978515625 156.363525390625 C 463.55987548828125 160.23629760742188 495.5481262207031 151.89633178710938 539.2826538085938 147.47483825683594 C 517.7416381835938 147.39990234375 525.1123657226562 154.182373046875 591.7952270507812 192.63388061523438" stroke-width="0.0" fill="rgb(16, 7, 125)" opacity="0.05257673" stroke="rgb(0, 0, 0)" stroke-opacity="1.0" stroke-linecap="round" stroke-linejoin="round"/>
    <path d="M 77.71015167236328 360.60150146484375 C 99.23147583007812 394.6504821777344 95.64250183105469 393.8505554199219 67.69711303710938 379.832763671875 C 45.48304748535156 374.3292541503906 40.10258102416992 345.3543701171875 47.16497039794922 350.05010986328125 C 37.69835662841797 350.5445861816406 55.749427795410156 344.8229064941406 76.18972778320312 361.3316345214844 C 53.444541931152344 361.3819580078125 64.42219543457031 346.7808837890625 77.71015167236328 360.60150146484375" stroke-width="0.0" fill="rgb(84, 188, 63)" opacity="0.72159237" stroke="rgb(0, 0, 0)" stroke-opacity="1.0" stroke-linecap="round" stroke-linejoin="round"/>
    <path d="M 332.0001220703125 255.34498596191406 C 337.20361328125 260.6759338378906 322.6312561035156 248.78396606445312 309.44012451171875 280.16644287109375 C 321.5635070800781 271.94732666015625 326.4562072753906 244.43675231933594 317.388427734375 262.39874267578125 C 314.9361572265625 265.5996398925781 322.9961242675781 245.45303344726562 334.59002685546875 236.38229370117188 C 337.2293701171875 224.32403564453125 357.85040283203125 254.65284729003906 332.0001220703125 255.34498596191406" stroke-width="0.0" fill="rgb(192, 228, 28)" opacity="0.02003797" stroke="rgb(0, 0, 0)" stroke-opacity="1.0" stroke-linecap="round" stroke-linejoin="round"/>
    <path d="M 502.18170166015625 159.98350524902344 C 477.00616455078125 114.5906982421875 482.23175048828125 104.42173767089844 504.1224365234375 109.16687774658203 C 537.4142456054688 104.32064819335938 525.6512451171875 96.58428955078125 474.4542541503906 74.1868896484375 C 462.9536437988281 100.7508544921875 469.60205078125 131.588623046875 522.2825317382812 128.48870849609375 C 460.18609619140625 53.54746627807617 475.56884765625 86.85679626464844 502.18170166015625 159.98350524902344" stroke-width="0.0" fill="rgb(2, 1, 189)" opacity="0.045212187" stroke="rgb(0, 0, 0)" stroke-opacity="1.0" stroke-linecap="round" stroke-linejoin="round"/>
    <path d="M 476.1191711425781 437.0030212402344 C 491.82733154296875 443.0982666015625 500.2429504394531 481.21612548828125 502.79205322265625 498.9267883300781 C 484.4757080078125 462.9516296386719 441.34381103515625 472.73876953125 425.41552734375 457.22393798828125 C 436.7576599121094 442.5956726074219 448.58282470703125 443.3077392578125 472.21710205078125 437.7945251464844 C 473.2075500488281 443.1202697753906 474.6015625 454.4805908203125 476.1191711425781 437.0030212402344" stroke-width="0.0" fill="rgb(0, 5, 54)" opacity="0.007357597" stroke="rgb(0, 0, 0)" stroke-opacity="1.0" stroke-linecap="round" stroke-linejoin="round"/>
    <path d="M 493.4083557128906 378.218994140625 C 498.2643127441406 361.2537841796875 482.8546447753906 384.56329345703125 512.3165893554688 388.8468322753906 C 489.9068298339844 395.5055847167969 468.8386535644531 403.3714599609375 497.3228454589844 399.1572265625 C 477.3458557128906 344.9922790527344 463.05230712890625 343.5070495605469 473.0078430175781 367.759521484375 C 484.64239501953125 358.5858154296875 484.54998779296875 393.4111022949219 493.4083557128906 378.218994140625" stroke-width="0.0" fill="rgb(34, 30, 81)" opacity="0.03176869" stroke="rgb(0, 0, 0)" stroke-opacity="1.0" stroke-linecap="round" stroke-linejoin="round"/>
    <path d="M 147.47569274902344 418.2139892578125 C 161.2479248046875 408.8015441894531 173.40199279785156 439.41937255859375 169.321533203125 429.6777038574219 C 150.10110473632812 446.0562744140625 132.570068359375 446.1453552246094 136.44578552246094 437.919189453125 C 163.799072265625 436.2383728027344 152.1300048828125 405.68231201171875 149.02841186523438 408.3052062988281 C 152.5941925048828 416.6708984375 153.23654174804688 425.0384521484375 147.47569274902344 418.2139892578125" stroke-width="0.0" fill="rgb(88, 48, 233)" opacity="0.029158782" stroke="rgb(0, 0, 0)" stroke-opacity="1.0" stroke-linecap="round" stroke-linejoin="round"/>
    <path d="M 100.2892837524414 130.814208984375 C 93.47968292236328 146.25050354003906 59.807960510253906 139.77377319335938 72.4405517578125 166.2406005859375 C 94.38646697998047 184.811279296875 69.58326721191406 172.3710174560547 66.01660919189453 141.9510498046875 C 57.72689437866211 150.81362915039062 83.58484649658203 120.15611267089844 104.11754608154297 159.5951690673828 C 102.3044204711914 151.9183349609375 96.02133178710938 145.6560516357422 100.2892837524414 130.814208984375" stroke-width="0.0" fill="rgb(52, 0, 250)" opacity="0.07918427" stroke="rgb(0, 0, 0)" stroke-opacity="1.0" stroke-linecap="round" stroke-linejoin="round"/>
    <path d="M 185.2707061767578 126.55316162109375 C 187.2391357421875 140.24978637695312 169.15066528320312 147.30357360839844 174.2114715576172 154.35386657714844 C 170.75164794921875 147.35975646972656 158.8629150390625 143.2701873779297 169.20745849609375 108.00225830078125 C 168.32835388183594 120.17547607421875 165.4697723388672 106.618408203125 184.29510498046875 82.6473617553711 C 188.7657928466797 98.49874877929688 187.13113403320312 130.8925323486328 185.2707061767578 126.55316162109375" stroke-width="0.0" fill="rgb(108, 221, 65)" opacity="0.6844312" stroke="rgb(0, 0, 0)" stroke-opacity="1.0" stroke-linecap="round" stroke-linejoin="round"/>
    <path d="M 175.6644744873047 396.4107971191406 C 179.97976684570312 401.02032470703125 158.79244995117188 416.2297668457031 172.6460418701172 399.8661193847656 C 171.91238403320312 386.3946533203125 168.4804229736328 373.77642822265625 169.38294982910156 374.37518310546875 C 150.00506591796875 402.0789489746094 162.09048461914062 400.7686462402344 149.7744140625 401.3956298828125 C 158.71498107910156 364.7194519042969 165.6769561767578 389.5986328125 175.6644744873047 396.4107971191406" stroke-width="0.0" fill="rgb(214, 171, 69)" opacity="0.06731223" stroke="rgb(0, 0, 0)" stroke-opacity="1.0" stroke-linecap="round" stroke-linejoin="round"/>
    <path d="M 460.95452880859375 105.55805206298828 C 454.3377380371094 125.63845825195312 444.44873046875 142.5823516845703 425.8743896484375 144.4596710205078 C 417.354736328125 148.0232391357422 423.3404846191406 157.01231384277344 424.8697814941406 144.67970275878906 C 425.89898681640625 116.12925720214844 442.3205871582031 110.00001525878906 457.6213684082031 104.26104736328125 C 457.6533203125 104.2336196899414 464.9872131347656 107.64757537841797 460.95452880859375 105.55805206298828" stroke-width="0.0" fill="rgb(75, 156, 15)" opacity="0.8916759" stroke="rgb(0, 0, 0)" stroke-opacity="1.0" stroke-linecap="round" stroke-linejoin="round"/>
    <path d="M 240.06149291992188 343.85980224609375 C 249.75332641601562 323.406494140625 253.3683624267578 314.8739013671875 261.6741027832031 316.1262512207031 C 248.67919921875 318.7534484863281 264.1293029785156 307.3382873535156 247.69407653808594 289.3514099121094 C 247.54942321777344 318.6409606933594 244.2909393310547 317.8138732910156 220.4855499267578 319.7156982421875 C 231.95291137695312 340.1156921386719 217.6246337890625 356.4139404296875 240.06149291992188 343.85980224609375" stroke-width="0.0" fill="rgb(220, 6, 115)" opacity="0.29898524" stroke="rgb(0, 0, 0)" stroke-opacity="1.0" stroke-linecap="round" stroke-linejoin="round"/>
    <path d="M 154.39096069335938 482.6931457519531 C 129.12734985351562 454.4505310058594 134.5362548828125 467.70428466796875 137.61343383789062 477.053466796875 C 138.9549560546875 469.61480712890625 110.99675750732422 447.9730529785156 118.04540252685547 477.22076416015625 C 128.77438354492188 471.6834411621094 140.04417419433594 475.3689270019531 116.31460571289062 484.4315490722656 C 133.02210998535156 472.7565612792969 161.40988159179688 477.93682861328125 154.39096069335938 482.6931457519531" stroke-width="0.0" fill="rgb(47, 48, 222)" opacity="0.0008591907" stroke="rgb(0, 0, 0)" stroke-opacity="1.0" stroke-linecap="round" stroke-linejoin="round"/>
    <path d="M 456.7467346191406 360.9490051269531 C 449.27435302734375 372.26708984375 460.0514221191406 412.75152587890625 468.68341064453125 406.4034423828125 C 450.1669616699219 395.85662841796875 440.2330627441406 384.762939453125 452.5684509277344 394.507080078125 C 424.0886535644531 360.40850830078125 423.2350158691406 350.61517333984375 434.76727294921875 370.4882507324219 C 445.1842346191406 391.1175231933594 442.7967529296875 355.006591796875 456.7467346191406 360.9490051269531" stroke-width="0.0" fill="rgb(6, 60, 33)" opacity="0.15166633" stroke="rgb(0, 0, 0)" stroke-opacity="1.0" stroke-linecap="round" stroke-linejoin="round"/>
    <path d="M 306.77362060546875 130.77430725097656 C 294.849365234375 134.9249267578125 301.8585205078125 133.5066375732422 299.38885498046875 117.82418060302734 C 299.9263000488281 97.1751480102539 280.8546142578125 103.25096893310547 307.4609069824219 93.43397521972656 C 295.6729736328125 96.92662048339844 293.1102294921875 86.3626480102539 278.3580627441406 101.6303939819336 C 290.91851806640625 100.99485778808594 293.9942321777344 100.66612243652344 306.77362060546875 130.77430725097656" stroke-width="0.0" fill="rgb(137, 144, 22)" opacity="0.035098433" stroke="rgb(0, 0, 0)" stroke-opacity="1.0" stroke-linecap="round" stroke-linejoin="round"/>
    <path d="M 388.38995361328125 32.83115005493164 C 400.7431945800781 66.0078353881836 382.01702880859375 109.40204620361328 356.0743103027344 72.67552947998047 C 362.80010986328125 9.116251945495605 378.8245544433594 18.470918655395508 387.251953125 51.12480545043945 C 367.50732421875 56.65282440185547 356.4571228027344 25.865413665771484 358.03594970703125 25.063968658447266 C 404.9347229003906 17.953977584838867 413.3131103515625 19.09054946899414 388.38995361328125 32.83115005493164" stroke-width="0.0" fill="rgb(31, 17, 224)" opacity="0.053295605" stroke="rgb(0, 0, 0)" stroke-opacity="1.0" stroke-linecap="round" stroke-linejoin="round"/>
  </g>
</svg>
