<?xml version="1.0" ?>
<svg xmlns="http://www.w3.org/2000/svg" version="1.1" width="512" height="512">
  <defs/>
  <g>
    <path d="M 545.902099609375 491.64599609375 C 548.88232421875 518.2211303710938 549.809814453125 525.8021850585938 375.4200134277344 537.11572265625 C 322.8018493652344 554.6597900390625 300.7388916015625 551.7880859375 240.1177978515625 475.62359619140625 C 295.9728088378906 337.2627258300781 395.52484130859375 356.50439453125 491.5155334472656 343.50299072265625 C 549.2588500976562 323.2013854980469 564.2403564453125 360.87030029296875 545.902099609375 491.64599609375" stroke-width="0.0" fill="rgb(5, 13, 107)" opacity="0.96267873" stroke="rgb(0, 0, 0)" stroke-opacity="1.0" stroke-linecap="round" stroke-linejoin="round"/>
    <path d="M 299.4151916503906 474.2298889160156 C 346.6891784667969 514.2098999023438 359.3879699707031 526.6651611328125 223.98072814941406 532.5118408203125 C -51.100406646728516 521.1051635742188 -51.19970703125 512.4564819335938 -54.18950653076172 467.79827880859375 C -33.75844192504883 201.45396423339844 -22.294771194458008 192.50347900390625 25.0992431640625 187.20249938964844 C 150.30389404296875 300.6663513183594 158.6472625732422 319.9289855957031 299.4151916503906 474.2298889160156" stroke-width="0.0" fill="rgb(16, 25, 251)" opacity="1.0" stroke="rgb(0, 0, 0)" stroke-opacity="1.0" stroke-linecap="round" stroke-linejoin="round"/>
    <path d="M 303.94091796875 331.9434814453125 C 268.964111328125 401.4207458496094 260.4076843261719 406.8871154785156 220.18190002441406 416.60272216796875 C 68.97988891601562 364.07232666015625 115.48750305175781 293.9714050292969 41.67509460449219 161.50172424316406 C 32.863525390625 173.2716064453125 43.544273376464844 172.50344848632812 117.46968078613281 191.22914123535156 C 272.7204284667969 178.10284423828125 292.8320617675781 138.9194793701172 303.94091796875 331.9434814453125" stroke-width="0.0" fill="rgb(231, 118, 85)" opacity="1.0" stroke="rgb(0, 0, 0)" stroke-opacity="1.0" stroke-linecap="round" stroke-linejoin="round"/>
    <path d="M 266.45928955078125 15.535305976867676 C 270.7496643066406 241.47471618652344 251.07217407226562 184.22108459472656 48.42179489135742 260.88580322265625 C -39.629310607910156 216.2349853515625 -35.08079147338867 201.13734436035156 -25.68915557861328 161.64552307128906 C -16.494123458862305 -18.97837257385254 -10.838438034057617 -25.126850128173828 30.902854919433594 -26.302885055541992 C 198.98609924316406 -28.730424880981445 219.8435516357422 -36.52174758911133 266.45928955078125 15.535305976867676" stroke-width="0.0" fill="rgb(28, 40, 253)" opacity="0.9650425" stroke="rgb(0, 0, 0)" stroke-opacity="1.0" stroke-linecap="round" stroke-linejoin="round"/>
    <path d="M 549.6007690429688 43.61410903930664 C 435.8094482421875 276.1604919433594 433.4732360839844 288.7451477050781 370.99615478515625 335.52142333984375 C 283.84130859375 331.9676513671875 299.81903076171875 305.0670471191406 251.70431518554688 186.75070190429688 C 253.94595336914062 7.2349019050598145 179.138427734375 -31.706335067749023 333.30230712890625 -32.046512603759766 C 563.2000122070312 -5.52442741394043 563.2000122070312 4.830130577087402 549.6007690429688 43.61410903930664" stroke-width="0.0" fill="rgb(4, 14, 255)" opacity="0.96200126" stroke="rgb(0, 0, 0)" stroke-opacity="1.0" stroke-linecap="round" stroke-linejoin="round"/>
    <path d="M 346.59881591796875 68.28889465332031 C 308.5482482910156 302.77581787109375 275.98016357421875 274.19927978515625 199.3105926513672 236.0784149169922 C 78.64973449707031 277.5718994140625 52.264835357666016 292.1260070800781 100.38468170166016 252.98757934570312 C 119.5141830444336 163.92413330078125 132.92910766601562 142.01536560058594 284.904052734375 41.88810729980469 C 276.05499267578125 23.31839942932129 272.87841796875 3.854802370071411 346.59881591796875 68.28889465332031" stroke-width="0.0" fill="rgb(187, 254, 113)" opacity="0.96743834" stroke="rgb(0, 0, 0)" stroke-opacity="1.0" stroke-linecap="round" stroke-linejoin="round"/>
    <path d="M 448.8443603515625 319.89666748046875 C 433.68939208984375 384.5369567871094 457.8822021484375 442.6446838378906 305.4468994140625 440.4601135253906 C 267.2259216308594 444.0506286621094 247.80328369140625 444.53131103515625 247.2444610595703 423.3939208984375 C 270.7889099121094 180.85923767089844 249.60195922851562 171.86358642578125 341.8337097167969 195.770751953125 C 413.2913513183594 274.9303894042969 449.515625 273.7629089355469 448.8443603515625 319.89666748046875" stroke-width="0.0" fill="rgb(41, 219, 0)" opacity="0.8384459" stroke="rgb(0, 0, 0)" stroke-opacity="1.0" stroke-linecap="round" stroke-linejoin="round"/>
    <path d="M 529.2166748046875 148.61370849609375 C 543.8438110351562 314.4792175292969 552.7840576171875 341.9609680175781 462.0369873046875 416.0316162109375 C 365.9984436035156 400.6005859375 388.8827819824219 324.5294494628906 360.55096435546875 264.6759338378906 C 370.9632873535156 196.4845733642578 393.38775634765625 125.27173614501953 530.7763671875 82.8525161743164 C 563.2000122070312 76.2098159790039 563.2000122070312 99.41815185546875 529.2166748046875 148.61370849609375" stroke-width="0.0" fill="rgb(19, 24, 156)" opacity="1.0" stroke="rgb(0, 0, 0)" stroke-opacity="1.0" stroke-linecap="round" stroke-linejoin="round"/>
    <path d="M 399.1047668457031 244.09950256347656 C 371.5869140625 272.5249328613281 349.5238342285156 238.71087646484375 358.3526611328125 256.3658447265625 C 342.231201171875 244.10458374023438 301.14239501953125 191.5684814453125 175.03573608398438 253.9140167236328 C 241.7945556640625 149.8960723876953 278.3791809082031 168.6741180419922 320.9338073730469 151.5281219482422 C 339.9657287597656 168.41375732421875 385.0443115234375 188.81622314453125 399.1047668457031 244.09950256347656" stroke-width="0.0" fill="rgb(255, 190, 16)" opacity="0.65537554" stroke="rgb(0, 0, 0)" stroke-opacity="1.0" stroke-linecap="round" stroke-linejoin="round"/>
    <path d="M 435.53350830078125 282.73175048828125 C 476.98504638671875 363.8438720703125 486.414794921875 408.6425476074219 381.69549560546875 405.22186279296875 C 313.4989929199219 322.5245056152344 375.7197570800781 265.25726318359375 293.98834228515625 177.63575744628906 C 332.7620849609375 165.6339569091797 247.7726593017578 256.95355224609375 320.35772705078125 121.84806823730469 C 364.1403503417969 87.80436706542969 415.60186767578125 270.3852233886719 435.53350830078125 282.73175048828125" stroke-width="0.0" fill="rgb(255, 97, 63)" opacity="0.99973077" stroke="rgb(0, 0, 0)" stroke-opacity="1.0" stroke-linecap="round" stroke-linejoin="round"/>
    <path d="M 365.4573974609375 105.91400146484375 C 320.9089660644531 96.00430297851562 258.1950378417969 111.46046447753906 237.41847229003906 166.59878540039062 C 231.37672424316406 205.75961303710938 188.9874725341797 149.9016876220703 81.23858642578125 173.68858337402344 C 113.06158447265625 -5.561515808105469 137.13153076171875 -13.411566734313965 263.76092529296875 -49.156578063964844 C 354.7231750488281 -39.685752868652344 359.10357666015625 -7.383395671844482 365.4573974609375 105.91400146484375" stroke-width="0.0" fill="rgb(12, 21, 253)" opacity="0.99988014" stroke="rgb(0, 0, 0)" stroke-opacity="1.0" stroke-linecap="round" stroke-linejoin="round"/>
    <path d="M 251.13845825195312 394.15484619140625 C 242.5458984375 430.2822570800781 214.29537963867188 423.8634338378906 191.8050994873047 394.41351318359375 C 162.5508575439453 362.10919189453125 155.6956787109375 381.70367431640625 197.49595642089844 395.8150329589844 C 115.4888687133789 386.6011657714844 106.2455825805664 286.5860900878906 126.74542236328125 262.0316162109375 C 255.88729858398438 339.20318603515625 175.75759887695312 378.93408203125 251.13845825195312 394.15484619140625" stroke-width="0.0" fill="rgb(247, 135, 68)" opacity="0.86569166" stroke="rgb(0, 0, 0)" stroke-opacity="1.0" stroke-linecap="round" stroke-linejoin="round"/>
    <path d="M 470.1158142089844 394.7334899902344 C 452.6251220703125 408.6134948730469 444.87872314453125 424.6893310546875 415.68072509765625 448.7686462402344 C 414.6856994628906 458.4223327636719 414.36328125 440.12103271484375 395.10595703125 440.42510986328125 C 404.7815246582031 445.9338073730469 421.964599609375 409.5722961425781 432.03662109375 399.73895263671875 C 445.0871276855469 395.917724609375 465.0335998535156 399.7203369140625 470.1158142089844 394.7334899902344" stroke-width="0.0" fill="rgb(17, 22, 95)" opacity="0.7276095" stroke="rgb(0, 0, 0)" stroke-opacity="1.0" stroke-linecap="round" stroke-linejoin="round"/>
    <path d="M 325.5006408691406 376.83837890625 C 319.0097961425781 459.55718994140625 333.1328430175781 474.0726318359375 301.1510925292969 477.43359375 C 251.13868713378906 444.955322265625 230.65162658691406 424.10260009765625 211.54248046875 416.4185791015625 C 222.1874542236328 413.9415283203125 255.32359313964844 426.151123046875 269.0713195800781 409.1255798339844 C 309.4480895996094 446.69866943359375 328.57891845703125 417.6202697753906 325.5006408691406 376.83837890625" stroke-width="0.0" fill="rgb(0, 41, 130)" opacity="0.98572546" stroke="rgb(0, 0, 0)" stroke-opacity="1.0" stroke-linecap="round" stroke-linejoin="round"/>
    <path d="M 337.2877502441406 265.2757263183594 C 198.27059936523438 255.54803466796875 184.19692993164062 294.43023681640625 237.8138427734375 326.22930908203125 C 158.36599731445312 346.7416076660156 159.81504821777344 302.21160888671875 169.80921936035156 270.1233215332031 C 164.86416625976562 244.58946228027344 168.92181396484375 180.56185913085938 224.14634704589844 172.10166931152344 C 296.8688659667969 167.95394897460938 325.0721740722656 196.45620727539062 337.2877502441406 265.2757263183594" stroke-width="0.0" fill="rgb(141, 219, 5)" opacity="0.97546196" stroke="rgb(0, 0, 0)" stroke-opacity="1.0" stroke-linecap="round" stroke-linejoin="round"/>
    <path d="M 444.8692932128906 450.22882080078125 C 432.3397216796875 482.6802978515625 407.8034362792969 494.74798583984375 368.798095703125 504.19189453125 C 327.83648681640625 497.52056884765625 310.7020263671875 503.345947265625 274.8191833496094 457.2871398925781 C 328.8304138183594 421.36297607421875 302.13427734375 434.98577880859375 359.28558349609375 434.65869140625 C 453.12213134765625 405.91192626953125 430.09307861328125 403.91143798828125 444.8692932128906 450.22882080078125" stroke-width="0.0" fill="rgb(23, 23, 142)" opacity="0.99007344" stroke="rgb(0, 0, 0)" stroke-opacity="1.0" stroke-linecap="round" stroke-linejoin="round"/>
    <path d="M 303.7262268066406 225.9215087890625 C 232.79039001464844 272.72430419921875 202.35569763183594 305.9303283691406 233.6463623046875 330.6329345703125 C 243.63314819335938 386.4348449707031 255.4398956298828 363.88922119140625 231.72567749023438 380.61053466796875 C 270.673583984375 409.8251037597656 249.65696716308594 396.8791198730469 257.14080810546875 397.9442138671875 C 277.2547302246094 390.8381042480469 339.7298583984375 339.63519287109375 303.7262268066406 225.9215087890625" stroke-width="0.0" fill="rgb(243, 105, 100)" opacity="0.9624917" stroke="rgb(0, 0, 0)" stroke-opacity="1.0" stroke-linecap="round" stroke-linejoin="round"/>
    <path d="M 219.87936401367188 169.72732543945312 C 62.71491622924805 106.57584381103516 57.0159912109375 410.3684387207031 178.09742736816406 411.0340881347656 C 31.015443801879883 277.794921875 221.2092742919922 183.4613037109375 120.03433990478516 202.50469970703125 C 65.08442687988281 306.4679870605469 56.60328674316406 223.97950744628906 132.1956024169922 153.56687927246094 C 123.7552719116211 340.09271240234375 135.56202697753906 244.55372619628906 219.87936401367188 169.72732543945312" stroke-width="0.0" fill="rgb(110, 212, 20)" opacity="0.927003" stroke="rgb(0, 0, 0)" stroke-opacity="1.0" stroke-linecap="round" stroke-linejoin="round"/>
    <path d="M 316.06536865234375 161.70692443847656 C 340.36029052734375 189.0262908935547 310.7252502441406 184.99252319335938 303.17413330078125 168.97955322265625 C 301.16558837890625 161.2266387939453 312.8134460449219 171.1323699951172 298.9070129394531 167.7681427001953 C 276.0379333496094 178.29470825195312 286.750732421875 132.6659393310547 310.6882019042969 119.1474838256836 C 319.5947570800781 166.49607849121094 327.0256652832031 90.64037322998047 316.06536865234375 161.70692443847656" stroke-width="0.0" fill="rgb(71, 88, 161)" opacity="0.48539516" stroke="rgb(0, 0, 0)" stroke-opacity="1.0" stroke-linecap="round" stroke-linejoin="round"/>
    <path d="M 150.02972412109375 185.21202087402344 C 100.84609985351562 227.414306640625 86.68222045898438 294.8309020996094 99.22044372558594 368.8375244140625 C 18.152721405029297 348.0329284667969 -12.95483112335205 312.0799865722656 -37.459228515625 229.58987426757812 C 58.710853576660156 228.32273864746094 47.92708206176758 193.33056640625 127.02899169921875 113.61984252929688 C 249.18104553222656 178.11148071289062 192.9153289794922 143.52015686035156 150.02972412109375 185.21202087402344" stroke-width="0.0" fill="rgb(15, 29, 251)" opacity="0.9979312" stroke="rgb(0, 0, 0)" stroke-opacity="1.0" stroke-linecap="round" stroke-linejoin="round"/>
    <path d="M 260.1813659667969 190.7957305908203 C 188.299072265625 381.3654479980469 260.92926025390625 388.8028869628906 138.35440063476562 325.8780517578125 C 144.5467529296875 287.2922058105469 172.4735107421875 222.5411834716797 186.29319763183594 271.4451599121094 C 113.84229278564453 304.1059875488281 117.7447509765625 255.29013061523438 144.55319213867188 229.50621032714844 C 159.67100524902344 215.07041931152344 179.91807556152344 167.3699188232422 260.1813659667969 190.7957305908203" stroke-width="0.0" fill="rgb(255, 118, 85)" opacity="0.9988272" stroke="rgb(0, 0, 0)" stroke-opacity="1.0" stroke-linecap="round" stroke-linejoin="round"/>
    <path d="M 353.6509704589844 121.15523529052734 C 295.4303894042969 209.3946075439453 285.48883056640625 60.062339782714844 263.658935546875 190.75770568847656 C 258.53887939453125 205.26089477539062 263.5203552246094 142.39166259765625 282.69525146484375 127.72273254394531 C 250.78431701660156 132.6826171875 252.1692657470703 153.5794219970703 269.1870422363281 135.2615203857422 C 295.6971130371094 97.4822998046875 315.1131896972656 95.44744873046875 353.6509704589844 121.15523529052734" stroke-width="0.0" fill="rgb(116, 199, 43)" opacity="0.8394834" stroke="rgb(0, 0, 0)" stroke-opacity="1.0" stroke-linecap="round" stroke-linejoin="round"/>
    <path d="M 293.77105712890625 152.33702087402344 C 261.6598205566406 171.6604766845703 273.91046142578125 180.70521545410156 273.965576171875 168.09849548339844 C 307.33331298828125 173.71165466308594 296.7689208984375 160.21554565429688 272.7818603515625 152.66549682617188 C 295.6552429199219 130.42251586914062 275.91827392578125 135.8966827392578 259.6383361816406 138.052490234375 C 307.002685546875 159.1913299560547 318.9047546386719 167.2226104736328 293.77105712890625 152.33702087402344" stroke-width="0.0" fill="rgb(144, 168, 144)" opacity="0.30621764" stroke="rgb(0, 0, 0)" stroke-opacity="1.0" stroke-linecap="round" stroke-linejoin="round"/>
    <path d="M 246.91336059570312 399.4364318847656 C 264.8294982910156 416.6291809082031 236.97677612304688 436.9206237792969 187.64085388183594 416.75604248046875 C 152.6945037841797 404.17230224609375 157.94236755371094 395.3984069824219 155.19464111328125 386.6783142089844 C 183.3067169189453 390.86676025390625 199.76937866210938 396.5833435058594 194.96905517578125 383.89971923828125 C 194.378173828125 385.7610778808594 193.38807678222656 407.1080322265625 246.91336059570312 399.4364318847656" stroke-width="0.0" fill="rgb(94, 250, 31)" opacity="0.83102345" stroke="rgb(0, 0, 0)" stroke-opacity="1.0" stroke-linecap="round" stroke-linejoin="round"/>
    <path d="M 389.60272216796875 402.0610656738281 C 370.7615966796875 392.9275207519531 381.5766906738281 405.0537109375 342.1799011230469 406.9484558105469 C 299.6940612792969 399.4359130859375 284.2539978027344 393.36431884765625 314.9771423339844 376.56646728515625 C 290.0184326171875 396.8077087402344 324.18890380859375 391.1617736816406 345.18548583984375 294.8789978027344 C 373.49456787109375 361.8912658691406 375.5393981933594 367.7874450683594 389.60272216796875 402.0610656738281" stroke-width="0.0" fill="rgb(229, 30, 39)" opacity="0.99970347" stroke="rgb(0, 0, 0)" stroke-opacity="1.0" stroke-linecap="round" stroke-linejoin="round"/>
    <path d="M 300.13726806640625 238.08718872070312 C 255.35169982910156 284.3221435546875 247.8729248046875 303.8429260253906 264.0079040527344 300.12591552734375 C 236.55702209472656 270.93389892578125 211.89849853515625 297.9584045410156 202.5619659423828 254.11380004882812 C 257.193359375 250.3555145263672 277.5222473144531 236.2191925048828 235.02783203125 230.63922119140625 C 249.6249542236328 200.4452667236328 316.98638916015625 205.2209014892578 300.13726806640625 238.08718872070312" stroke-width="0.0" fill="rgb(248, 110, 84)" opacity="0.8119721" stroke="rgb(0, 0, 0)" stroke-opacity="1.0" stroke-linecap="round" stroke-linejoin="round"/>
    <path d="M 194.73171997070312 334.3811950683594 C 207.35159301757812 394.21734619140625 213.91629028320312 391.0157165527344 176.95460510253906 393.1866760253906 C 149.17538452148438 361.89068603515625 140.42425537109375 366.8629150390625 118.57660675048828 340.6494140625 C 137.55104064941406 363.1923522949219 162.86866760253906 366.9024963378906 170.9761505126953 329.2921447753906 C 157.0614776611328 302.8206787109375 178.2964630126953 311.2440490722656 194.73171997070312 334.3811950683594" stroke-width="0.0" fill="rgb(255, 92, 101)" opacity="0.17712495" stroke="rgb(0, 0, 0)" stroke-opacity="1.0" stroke-linecap="round" stroke-linejoin="round"/>
    <path d="M 272.70654296875 322.4946594238281 C 284.71966552734375 292.0062561035156 284.503662109375 304.88446044921875 275.4316711425781 300.8858337402344 C 257.7240905761719 335.5448913574219 236.3326873779297 341.7539367675781 250.48544311523438 321.8162536621094 C 263.3672790527344 303.0674133300781 274.5042419433594 283.58544921875 265.9459533691406 269.83148193359375 C 242.95448303222656 282.3792724609375 247.26588439941406 301.7579345703125 272.70654296875 322.4946594238281" stroke-width="0.0" fill="rgb(122, 42, 133)" opacity="0.5630719" stroke="rgb(0, 0, 0)" stroke-opacity="1.0" stroke-linecap="round" stroke-linejoin="round"/>
    <path d="M 339.21710205078125 124.67254638671875 C 359.548095703125 121.45936584472656 333.7001037597656 112.48460388183594 329.5917053222656 105.51522064208984 C 366.8941650390625 114.63038635253906 338.8744201660156 113.7714614868164 305.50311279296875 109.65164947509766 C 290.4071044921875 101.56871795654297 325.71038818359375 108.75887298583984 318.3335876464844 109.960693359375 C 341.7104187011719 85.01123046875 345.60540771484375 82.72727966308594 339.21710205078125 124.67254638671875" stroke-width="0.0" fill="rgb(85, 255, 0)" opacity="0.70997214" stroke="rgb(0, 0, 0)" stroke-opacity="1.0" stroke-linecap="round" stroke-linejoin="round"/>
    <path d="M 258.2174377441406 238.5868377685547 C 263.82830810546875 234.2247772216797 269.6566467285156 258.9735107421875 280.3970031738281 234.12271118164062 C 225.37986755371094 247.43759155273438 208.78887939453125 266.9305419921875 233.40625 213.58375549316406 C 257.8878479003906 176.90638732910156 262.4216613769531 186.77117919921875 261.69219970703125 195.06838989257812 C 301.0469055175781 205.3791961669922 294.3537292480469 214.12693786621094 258.2174377441406 238.5868377685547" stroke-width="0.0" fill="rgb(254, 126, 91)" opacity="0.9952855" stroke="rgb(0, 0, 0)" stroke-opacity="1.0" stroke-linecap="round" stroke-linejoin="round"/>
    <path d="M 274.97607421875 279.85540771484375 C 290.70587158203125 270.2663269042969 289.0081481933594 301.0974426269531 304.7974548339844 249.27081298828125 C 262.500244140625 272.72564697265625 244.208984375 267.4206237792969 250.98672485351562 251.21424865722656 C 252.3206329345703 196.41932678222656 270.8668212890625 193.45118713378906 267.5258483886719 254.5195770263672 C 284.98504638671875 231.5897674560547 289.00152587890625 280.2733459472656 274.97607421875 279.85540771484375" stroke-width="0.0" fill="rgb(253, 122, 98)" opacity="0.6861303" stroke="rgb(0, 0, 0)" stroke-opacity="1.0" stroke-linecap="round" stroke-linejoin="round"/>
    <path d="M 372.0521545410156 210.17381286621094 C 361.1662902832031 203.90077209472656 368.9883117675781 231.56239318847656 357.6407470703125 223.9798583984375 C 347.7054443359375 230.43617248535156 342.0860290527344 214.76734924316406 327.6143798828125 205.09390258789062 C 339.30487060546875 190.5989532470703 341.7835693359375 176.56651306152344 369.4676818847656 174.0241241455078 C 388.0584411621094 183.76268005371094 373.57586669921875 178.57562255859375 372.0521545410156 210.17381286621094" stroke-width="0.0" fill="rgb(224, 98, 96)" opacity="0.0" stroke="rgb(0, 0, 0)" stroke-opacity="1.0" stroke-linecap="round" stroke-linejoin="round"/>
    <path d="M 79.87545013427734 456.1610107421875 C 90.4964599609375 468.3743591308594 89.0851821899414 470.0250244140625 87.21934509277344 469.44989013671875 C 67.99053955078125 467.25030517578125 52.39826965332031 460.29925537109375 43.39753341674805 445.82574462890625 C 38.53776931762695 420.47235107421875 37.8075065612793 429.120361328125 60.771697998046875 430.4068908691406 C 78.67034149169922 429.50390625 80.33521270751953 452.03350830078125 79.87545013427734 456.1610107421875" stroke-width="0.0" fill="rgb(44, 182, 14)" opacity="0.83828986" stroke="rgb(0, 0, 0)" stroke-opacity="1.0" stroke-linecap="round" stroke-linejoin="round"/>
    <path d="M 178.9358367919922 330.7131652832031 C 190.67250061035156 357.4464111328125 191.1990966796875 364.5138244628906 172.21836853027344 386.0437927246094 C 214.02830505371094 360.6054382324219 209.3563995361328 339.4354553222656 212.82876586914062 328.0018615722656 C 212.9716796875 346.80389404296875 176.9990234375 357.20965576171875 190.72409057617188 309.1638488769531 C 191.05764770507812 347.9459228515625 162.57748413085938 343.8448791503906 178.9358367919922 330.7131652832031" stroke-width="0.0" fill="rgb(255, 142, 171)" opacity="0.43766403" stroke="rgb(0, 0, 0)" stroke-opacity="1.0" stroke-linecap="round" stroke-linejoin="round"/>
    <path d="M 43.81452560424805 303.762939453125 C 50.43926239013672 334.12689208984375 46.296592712402344 344.3990478515625 37.14958190917969 339.569091796875 C 56.39604949951172 355.1419372558594 49.36528778076172 361.87542724609375 28.578941345214844 340.6103515625 C 22.690916061401367 314.1081237792969 27.454174041748047 297.5989990234375 27.605010986328125 283.7903137207031 C 28.805416107177734 277.1030578613281 43.5767822265625 292.25958251953125 43.81452560424805 303.762939453125" stroke-width="0.0" fill="rgb(105, 188, 17)" opacity="0.84835374" stroke="rgb(0, 0, 0)" stroke-opacity="1.0" stroke-linecap="round" stroke-linejoin="round"/>
    <path d="M 131.0267333984375 421.6188049316406 C 129.32887268066406 450.84375 117.77400970458984 466.2565612792969 101.68643188476562 467.16455078125 C 106.06124877929688 457.236083984375 99.3050537109375 479.37945556640625 97.12877655029297 458.4391784667969 C 96.42903137207031 439.5338439941406 109.98975372314453 424.59625244140625 120.73815155029297 424.1495056152344 C 109.92735290527344 418.350830078125 134.00076293945312 427.9737548828125 131.0267333984375 421.6188049316406" stroke-width="0.0" fill="rgb(202, 216, 12)" opacity="0.8187705" stroke="rgb(0, 0, 0)" stroke-opacity="1.0" stroke-linecap="round" stroke-linejoin="round"/>
    <path d="M 503.009033203125 57.23850631713867 C 467.52728271484375 48.2120475769043 448.8871154785156 67.70685577392578 472.1619873046875 98.7959213256836 C 481.45697021484375 100.55252838134766 468.82696533203125 87.79801177978516 477.941650390625 72.59974670410156 C 471.03863525390625 52.452545166015625 472.0968017578125 50.42826461791992 490.4134521484375 67.42525482177734 C 485.27130126953125 83.12290954589844 498.31011962890625 75.32050323486328 503.009033203125 57.23850631713867" stroke-width="0.0" fill="rgb(58, 18, 224)" opacity="0.0" stroke="rgb(0, 0, 0)" stroke-opacity="1.0" stroke-linecap="round" stroke-linejoin="round"/>
    <path d="M 79.07811737060547 199.66932678222656 C 42.73727035522461 195.46632385253906 36.32209777832031 203.57443237304688 59.66773986816406 185.504638671875 C 43.69735336303711 183.06248474121094 61.99940490722656 187.45982360839844 77.18392181396484 212.01087951660156 C 1.08744478225708 217.9684600830078 9.532074928283691 206.9864044189453 19.93547821044922 140.62977600097656 C 69.21599578857422 147.63690185546875 83.16828155517578 148.3881072998047 79.07811737060547 199.66932678222656" stroke-width="0.0" fill="rgb(32, 27, 252)" opacity="0.0052702758" stroke="rgb(0, 0, 0)" stroke-opacity="1.0" stroke-linecap="round" stroke-linejoin="round"/>
    <path d="M 330.16064453125 313.7790222167969 C 323.9012145996094 355.7180480957031 293.3587951660156 386.1192932128906 315.7440185546875 374.2601013183594 C 304.2851867675781 354.29791259765625 266.24615478515625 374.97930908203125 287.6769104003906 333.9300842285156 C 292.9523010253906 330.64715576171875 300.5179748535156 328.1066589355469 292.8614196777344 314.9130859375 C 316.06439208984375 245.62933349609375 356.8506774902344 268.636962890625 330.16064453125 313.7790222167969" stroke-width="0.0" fill="rgb(255, 202, 56)" opacity="0.44052956" stroke="rgb(0, 0, 0)" stroke-opacity="1.0" stroke-linecap="round" stroke-linejoin="round"/>
    <path d="M 389.3599548339844 457.3123474121094 C 358.6040954589844 423.900146484375 382.60382080078125 458.1518859863281 331.56158447265625 468.088623046875 C 309.8130187988281 449.0497131347656 312.2236328125 397.2137451171875 322.8581237792969 390.94940185546875 C 355.9854736328125 417.1361083984375 384.7239685058594 413.3472595214844 367.74359130859375 419.53997802734375 C 365.04559326171875 427.4957275390625 400.4056701660156 440.2403869628906 389.3599548339844 457.3123474121094" stroke-width="0.0" fill="rgb(0, 57, 95)" opacity="0.044013865" stroke="rgb(0, 0, 0)" stroke-opacity="1.0" stroke-linecap="round" stroke-linejoin="round"/>
    <path d="M 361.87432861328125 435.6375427246094 C 361.15374755859375 451.9138488769531 353.3734130859375 448.0812683105469 335.91607666015625 454.0389709472656 C 325.3128356933594 431.91729736328125 329.7165222167969 406.3113708496094 321.6680908203125 420.4783020019531 C 310.87493896484375 415.9615783691406 334.5894775390625 403.384521484375 359.6473693847656 426.6417236328125 C 341.4975280761719 416.9434814453125 355.07928466796875 412.51495361328125 361.87432861328125 435.6375427246094" stroke-width="0.0" fill="rgb(84, 110, 67)" opacity="0.0018535799" stroke="rgb(0, 0, 0)" stroke-opacity="1.0" stroke-linecap="round" stroke-linejoin="round"/>
    <path d="M 422.0115966796875 73.89000701904297 C 421.8461608886719 90.20307159423828 410.8693542480469 95.38731384277344 404.6226806640625 98.7094497680664 C 397.4269104003906 83.65061950683594 401.09136962890625 72.68981170654297 409.6426696777344 45.55508804321289 C 413.0650329589844 48.3365592956543 409.34674072265625 46.050567626953125 415.93853759765625 40.37785720825195 C 417.15179443359375 42.30133819580078 428.82647705078125 61.455474853515625 422.0115966796875 73.89000701904297" stroke-width="0.0" fill="rgb(137, 220, 24)" opacity="0.87989575" stroke="rgb(0, 0, 0)" stroke-opacity="1.0" stroke-linecap="round" stroke-linejoin="round"/>
    <path d="M 18.781085968017578 112.13154602050781 C -12.320218086242676 87.28715515136719 -0.06476571410894394 84.5560302734375 23.71724510192871 101.32971954345703 C 2.7482926845550537 99.35860443115234 -20.639833450317383 105.58496856689453 -25.636573791503906 70.13700866699219 C 2.801241397857666 60.28359603881836 35.75993347167969 65.92659759521484 46.857757568359375 71.97305297851562 C 25.77977752685547 85.5806655883789 25.643648147583008 92.50865936279297 18.781085968017578 112.13154602050781" stroke-width="0.0" fill="rgb(37, 47, 254)" opacity="0.029273333" stroke="rgb(0, 0, 0)" stroke-opacity="1.0" stroke-linecap="round" stroke-linejoin="round"/>
    <path d="M 32.211814880371094 135.64988708496094 C 34.78908157348633 148.4639129638672 32.48133850097656 163.44039916992188 19.98394775390625 154.11753845214844 C 28.96378517150879 148.27928161621094 12.119686126708984 149.2877960205078 -15.448826789855957 155.3083953857422 C -24.638399124145508 132.11346435546875 -12.798979759216309 137.97698974609375 5.229735374450684 144.58668518066406 C 9.941106796264648 115.33341979980469 17.658422470092773 132.4127197265625 32.211814880371094 135.64988708496094" stroke-width="0.0" fill="rgb(50, 53, 225)" opacity="0.03933823" stroke="rgb(0, 0, 0)" stroke-opacity="1.0" stroke-linecap="round" stroke-linejoin="round"/>
    <path d="M 548.0631713867188 231.96762084960938 C 522.5535888671875 254.24789428710938 505.3267822265625 268.8611755371094 503.5753173828125 251.7631378173828 C 502.2440490722656 264.4712829589844 483.7430114746094 261.1035461425781 470.0719299316406 258.4515380859375 C 473.3479919433594 223.03306579589844 478.0115661621094 222.13218688964844 506.2806091308594 204.63003540039062 C 531.517333984375 207.89425659179688 539.4554443359375 211.36016845703125 548.0631713867188 231.96762084960938" stroke-width="0.0" fill="rgb(39, 27, 157)" opacity="0.014082838" stroke="rgb(0, 0, 0)" stroke-opacity="1.0" stroke-linecap="round" stroke-linejoin="round"/>
    <path d="M 347.8873291015625 25.00260353088379 C 330.7877197265625 54.68675994873047 309.3299560546875 62.054847717285156 267.25537109375 13.767959594726562 C 305.5107421875 -26.541500091552734 336.2769470214844 -12.00450611114502 307.10894775390625 44.7086181640625 C 258.17156982421875 62.5592155456543 254.6728057861328 42.3120002746582 265.39801025390625 14.681024551391602 C 359.2769470214844 29.412376403808594 355.3255920410156 32.93878936767578 347.8873291015625 25.00260353088379" stroke-width="0.0" fill="rgb(29, 9, 255)" opacity="0.013228986" stroke="rgb(0, 0, 0)" stroke-opacity="1.0" stroke-linecap="round" stroke-linejoin="round"/>
    <path d="M 431.34295654296875 269.33929443359375 C 453.939453125 304.5506591796875 458.2202453613281 296.2494201660156 437.97357177734375 273.4432373046875 C 399.55615234375 291.49468994140625 419.17816162109375 269.576904296875 392.1402282714844 264.83465576171875 C 394.36773681640625 246.1714630126953 378.42852783203125 265.361328125 430.0272216796875 308.5900573730469 C 425.78875732421875 245.8319091796875 444.79754638671875 252.2347869873047 431.34295654296875 269.33929443359375" stroke-width="0.0" fill="rgb(113, 104, 5)" opacity="0.0" stroke="rgb(0, 0, 0)" stroke-opacity="1.0" stroke-linecap="round" stroke-linejoin="round"/>
    <path d="M 548.5408325195312 120.83822631835938 C 536.696044921875 144.6175537109375 529.3931884765625 144.079345703125 496.7115783691406 148.19058227539062 C 492.7880859375 162.28721618652344 491.7125549316406 150.15492248535156 438.9846496582031 126.91193389892578 C 474.6329650878906 106.78118896484375 495.7930603027344 105.41117858886719 491.8149719238281 87.41598510742188 C 538.4933471679688 99.73318481445312 573.9544677734375 98.98237609863281 548.5408325195312 120.83822631835938" stroke-width="0.0" fill="rgb(6, 3, 233)" opacity="0.10084467" stroke="rgb(0, 0, 0)" stroke-opacity="1.0" stroke-linecap="round" stroke-linejoin="round"/>
    <path d="M 539.702392578125 163.67648315429688 C 523.7683715820312 158.63421630859375 510.7833251953125 156.00648498535156 503.8065490722656 180.38978576660156 C 488.4775695800781 184.20603942871094 504.4259338378906 180.7881317138672 495.9416809082031 177.5857696533203 C 476.2426452636719 154.92169189453125 505.14697265625 164.7010498046875 520.0498657226562 168.94859313964844 C 501.4163513183594 130.36766052246094 537.3762817382812 166.13253784179688 539.702392578125 163.67648315429688" stroke-width="0.0" fill="rgb(32, 15, 98)" opacity="0.0" stroke="rgb(0, 0, 0)" stroke-opacity="1.0" stroke-linecap="round" stroke-linejoin="round"/>
    <path d="M 83.34568786621094 362.1633605957031 C 97.90570831298828 401.3439636230469 90.71772766113281 402.0360412597656 71.80918884277344 381.9906005859375 C 49.37002944946289 369.0675964355469 45.51568603515625 364.9349365234375 50.82188415527344 354.0942077636719 C 31.938655853271484 342.01031494140625 40.7441520690918 350.0948486328125 79.88933563232422 360.0198669433594 C 54.19123458862305 356.8774108886719 75.96065521240234 352.0537414550781 83.34568786621094 362.1633605957031" stroke-width="0.0" fill="rgb(46, 166, 34)" opacity="0.74846315" stroke="rgb(0, 0, 0)" stroke-opacity="1.0" stroke-linecap="round" stroke-linejoin="round"/>
    <path d="M 325.553466796875 284.93505859375 C 333.6449890136719 282.7984924316406 335.35491943359375 282.50823974609375 336.7688903808594 272.43878173828125 C 283.93634033203125 294.2868347167969 291.23040771484375 284.17169189453125 301.22393798828125 278.22137451171875 C 342.65728759765625 281.3476867675781 346.1184387207031 259.9315490722656 326.99884033203125 223.29527282714844 C 335.77728271484375 234.19796752929688 330.900634765625 238.81854248046875 325.553466796875 284.93505859375" stroke-width="0.0" fill="rgb(141, 200, 25)" opacity="0.09797968" stroke="rgb(0, 0, 0)" stroke-opacity="1.0" stroke-linecap="round" stroke-linejoin="round"/>
    <path d="M 514.0730590820312 162.06541442871094 C 492.4100036621094 139.52243041992188 485.7700500488281 158.66477966308594 483.9414367675781 144.99525451660156 C 482.9288330078125 152.78466796875 480.88201904296875 152.302978515625 498.4731140136719 134.22589111328125 C 490.39117431640625 104.74617767333984 488.5923767089844 105.7816390991211 446.5566101074219 110.7013168334961 C 458.1990661621094 151.1707305908203 482.3996276855469 170.10780334472656 514.0730590820312 162.06541442871094" stroke-width="0.0" fill="rgb(6, 16, 195)" opacity="0.106015824" stroke="rgb(0, 0, 0)" stroke-opacity="1.0" stroke-linecap="round" stroke-linejoin="round"/>
    <path d="M 477.4847717285156 453.76837158203125 C 480.8719787597656 476.2897033691406 455.2565612792969 460.54034423828125 458.1576232910156 467.57843017578125 C 468.7496032714844 480.833984375 466.8740234375 463.41815185546875 468.0640563964844 488.2168884277344 C 445.80560302734375 451.46990966796875 450.1131896972656 436.5933837890625 437.93133544921875 441.7796630859375 C 461.506591796875 459.2537536621094 466.8368225097656 457.9845886230469 477.4847717285156 453.76837158203125" stroke-width="0.0" fill="rgb(0, 29, 61)" opacity="0.0" stroke="rgb(0, 0, 0)" stroke-opacity="1.0" stroke-linecap="round" stroke-linejoin="round"/>
    <path d="M 537.704833984375 366.1151123046875 C 516.677001953125 380.6441345214844 506.2713928222656 389.7344970703125 521.1788940429688 391.2775573730469 C 526.8529663085938 373.4557800292969 491.4623718261719 381.7258605957031 492.9910888671875 369.69512939453125 C 476.88812255859375 336.814453125 465.6043701171875 331.83782958984375 508.3448181152344 345.8880310058594 C 508.8074645996094 342.11187744140625 521.6288452148438 351.8897399902344 537.704833984375 366.1151123046875" stroke-width="0.0" fill="rgb(14, 23, 210)" opacity="0.060552247" stroke="rgb(0, 0, 0)" stroke-opacity="1.0" stroke-linecap="round" stroke-linejoin="round"/>
    <path d="M 166.54397583007812 435.05682373046875 C 162.1490936279297 425.0469970703125 157.9193572998047 446.84368896484375 163.10183715820312 434.5295104980469 C 135.56166076660156 447.16851806640625 117.5723648071289 446.7723693847656 129.15724182128906 420.6307678222656 C 159.96981811523438 396.8752746582031 130.3556671142578 383.1727294921875 158.822265625 405.49468994140625 C 152.005126953125 415.8358154296875 135.90956115722656 433.11505126953125 166.54397583007812 435.05682373046875" stroke-width="0.0" fill="rgb(51, 54, 228)" opacity="0.09917395" stroke="rgb(0, 0, 0)" stroke-opacity="1.0" stroke-linecap="round" stroke-linejoin="round"/>
    <path d="M 104.34690856933594 166.05221557617188 C 96.07296752929688 183.50616455078125 90.23701477050781 191.04823303222656 71.09158325195312 156.34341430664062 C 58.43695068359375 165.64785766601562 50.748294830322266 164.6714324951172 76.46807861328125 165.34400939941406 C 49.70569610595703 132.8036346435547 75.37039184570312 147.34764099121094 108.43160247802734 141.79736328125 C 111.26981353759766 129.66322326660156 114.209716796875 141.6681671142578 104.34690856933594 166.05221557617188" stroke-width="0.0" fill="rgb(82, 17, 250)" opacity="0.08268987" stroke="rgb(0, 0, 0)" stroke-opacity="1.0" stroke-linecap="round" stroke-linejoin="round"/>
    <path d="M 183.77870178222656 128.2972412109375 C 187.03433227539062 133.2266387939453 178.06680297851562 145.21302795410156 182.23779296875 163.76304626464844 C 166.54286193847656 154.4839630126953 161.43348693847656 132.16519165039062 165.22161865234375 133.14547729492188 C 159.06430053710938 127.46173095703125 167.61813354492188 104.64996337890625 187.355712890625 84.94329833984375 C 190.60133361816406 105.77410888671875 184.4178924560547 124.85062408447266 183.77870178222656 128.2972412109375" stroke-width="0.0" fill="rgb(94, 236, 40)" opacity="0.8727406" stroke="rgb(0, 0, 0)" stroke-opacity="1.0" stroke-linecap="round" stroke-linejoin="round"/>
    <path d="M 140.4923553466797 367.15576171875 C 133.47268676757812 374.88616943359375 144.21714782714844 408.3505554199219 161.55459594726562 388.3373107910156 C 166.09262084960938 396.6737976074219 159.6802520751953 399.7441101074219 164.48326110839844 400.9296569824219 C 178.2351837158203 399.781494140625 196.4309844970703 423.4427490234375 176.4329071044922 414.4133605957031 C 182.59579467773438 384.38897705078125 178.6459197998047 395.5028991699219 140.4923553466797 367.15576171875" stroke-width="0.0" fill="rgb(92, 238, 31)" opacity="0.9953877" stroke="rgb(0, 0, 0)" stroke-opacity="1.0" stroke-linecap="round" stroke-linejoin="round"/>
    <path d="M 464.7425842285156 112.36714172363281 C 457.9826354980469 122.3568344116211 446.3253479003906 137.75599670410156 433.3485412597656 145.2596893310547 C 415.5929260253906 156.86178588867188 417.6150817871094 157.03927612304688 425.1740417480469 136.06729125976562 C 426.6172790527344 119.46276092529297 432.08355712890625 109.4202880859375 449.831298828125 105.90677642822266 C 464.30194091796875 96.44183349609375 460.8803405761719 100.5560531616211 464.7425842285156 112.36714172363281" stroke-width="0.0" fill="rgb(60, 205, 12)" opacity="0.78609186" stroke="rgb(0, 0, 0)" stroke-opacity="1.0" stroke-linecap="round" stroke-linejoin="round"/>
    <path d="M 231.53411865234375 335.8196716308594 C 268.1884765625 346.22650146484375 262.20562744140625 359.66998291015625 227.72052001953125 370.6028747558594 C 243.94012451171875 316.5096740722656 266.1532287597656 298.8638916015625 241.9457550048828 322.0736999511719 C 255.59202575683594 297.5804138183594 258.6595764160156 289.5528564453125 219.24928283691406 292.78582763671875 C 191.12942504882812 316.91033935546875 214.73060607910156 344.0794372558594 231.53411865234375 335.8196716308594" stroke-width="0.0" fill="rgb(219, 150, 0)" opacity="0.13723804" stroke="rgb(0, 0, 0)" stroke-opacity="1.0" stroke-linecap="round" stroke-linejoin="round"/>
    <path d="M 171.34799194335938 479.1308898925781 C 152.34446716308594 476.7278137207031 141.96875 488.486083984375 156.75222778320312 482.94635009765625 C 146.50057983398438 481.1295471191406 133.8857879638672 474.484375 147.2581024169922 474.8160400390625 C 138.21499633789062 448.05804443359375 138.9522247314453 435.6795654296875 178.81028747558594 468.2593688964844 C 173.81143188476562 472.70062255859375 171.4211883544922 468.5848083496094 171.34799194335938 479.1308898925781" stroke-width="0.0" fill="rgb(41, 44, 245)" opacity="0.0" stroke="rgb(0, 0, 0)" stroke-opacity="1.0" stroke-linecap="round" stroke-linejoin="round"/>
    <path d="M 466.7478942871094 374.6878356933594 C 481.8787841796875 372.3031921386719 475.68701171875 380.1131896972656 437.21588134765625 395.27667236328125 C 438.7652282714844 393.0840759277344 448.7016296386719 402.0037536621094 403.5055236816406 416.9142150878906 C 406.77935791015625 386.90924072265625 441.2348327636719 355.2698974609375 472.64642333984375 363.4921875 C 463.1915283203125 405.869873046875 461.0245361328125 374.86480712890625 466.7478942871094 374.6878356933594" stroke-width="0.0" fill="rgb(0, 205, 14)" opacity="0.8616114" stroke="rgb(0, 0, 0)" stroke-opacity="1.0" stroke-linecap="round" stroke-linejoin="round"/>
    <path d="M 285.4298400878906 77.13732147216797 C 269.54241943359375 131.55206298828125 303.59954833984375 105.91403198242188 288.9540100097656 99.56291961669922 C 273.55499267578125 108.06411743164062 275.2355651855469 94.75312805175781 268.294189453125 107.62062072753906 C 273.07220458984375 104.70549011230469 285.7068176269531 74.74137115478516 309.3677978515625 81.64058685302734 C 329.67218017578125 91.31864166259766 310.1937561035156 76.60090637207031 285.4298400878906 77.13732147216797" stroke-width="0.0" fill="rgb(97, 102, 24)" opacity="0.016037548" stroke="rgb(0, 0, 0)" stroke-opacity="1.0" stroke-linecap="round" stroke-linejoin="round"/>
    <path d="M 386.0764465332031 32.686180114746094 C 387.9662780761719 66.80821990966797 395.4039611816406 19.24828338623047 339.86529541015625 32.137413024902344 C 339.879150390625 87.32820129394531 340.0675048828125 67.2741470336914 418.33782958984375 26.707256317138672 C 388.563232421875 1.7935014963150024 368.1953430175781 35.370914459228516 381.8395690917969 39.37332534790039 C 392.0999450683594 35.828155517578125 387.4432373046875 41.593563079833984 386.0764465332031 32.686180114746094" stroke-width="0.0" fill="rgb(27, 18, 241)" opacity="0.04365531" stroke="rgb(0, 0, 0)" stroke-opacity="1.0" stroke-linecap="round" stroke-linejoin="round"/>
  </g>
</svg>
