<?xml version="1.0" ?>
<svg xmlns="http://www.w3.org/2000/svg" version="1.1" width="512" height="512">
  <defs/>
  <g>
    <path d="M 353.01654052734375 499.424560546875 C 371.436279296875 525.0550537109375 314.2066650390625 538.0238647460938 192.50552368164062 525.5438842773438 C 68.79765319824219 500.6446838378906 23.706064224243164 419.7013854980469 2.7104227542877197 362.12152099609375 C -44.13798904418945 239.73948669433594 9.817761421203613 133.05548095703125 13.077798843383789 207.94273376464844 C 222.15261840820312 291.763916015625 279.9603576660156 183.76373291015625 353.01654052734375 499.424560546875" stroke-width="0.0" fill="rgb(222, 88, 11)" opacity="0.91352797" stroke="rgb(0, 0, 0)" stroke-opacity="1.0" stroke-linecap="round" stroke-linejoin="round"/>
    <path d="M 335.8900146484375 74.86385345458984 C 175.20416259765625 57.86476516723633 73.87995910644531 131.1502227783203 51.9021110534668 205.1487274169922 C -37.7117919921875 283.4808044433594 -9.35185718536377 215.7792205810547 19.20659065246582 121.18146514892578 C 34.28286361694336 71.7861099243164 86.42684936523438 26.830734252929688 143.38758850097656 -3.7843704223632812 C 260.8193664550781 -41.34025573730469 387.89227294921875 1.1349936723709106 335.8900146484375 74.86385345458984" stroke-width="0.0" fill="rgb(243, 88, 24)" opacity="0.96910924" stroke="rgb(0, 0, 0)" stroke-opacity="1.0" stroke-linecap="round" stroke-linejoin="round"/>
    <path d="M 363.8416442871094 215.30355834960938 C 398.0314636230469 300.5516662597656 439.75225830078125 281.7826843261719 389.39599609375 293.3000183105469 C 250.64572143554688 370.8760986328125 230.5038299560547 377.3477478027344 191.79263305664062 146.18255615234375 C 421.01416015625 74.81584930419922 348.4999084472656 221.57003784179688 415.777587890625 182.35708618164062 C 383.13751220703125 185.19039916992188 400.5815734863281 158.24253845214844 363.8416442871094 215.30355834960938" stroke-width="0.0" fill="rgb(168, 62, 9)" opacity="0.8926316" stroke="rgb(0, 0, 0)" stroke-opacity="1.0" stroke-linecap="round" stroke-linejoin="round"/>
    <path d="M 197.90382385253906 178.21438598632812 C 273.6274719238281 283.06109619140625 278.66851806640625 251.18612670898438 220.1769256591797 321.6412048339844 C 90.81031036376953 229.68844604492188 90.89385986328125 223.5443878173828 99.36502838134766 183.4961395263672 C 105.47639465332031 157.37689208984375 118.23430633544922 150.04000854492188 96.36810302734375 171.07171630859375 C 190.34410095214844 118.88337707519531 173.56228637695312 199.9715576171875 197.90382385253906 178.21438598632812" stroke-width="0.0" fill="rgb(155, 237, 51)" opacity="1.0" stroke="rgb(0, 0, 0)" stroke-opacity="1.0" stroke-linecap="round" stroke-linejoin="round"/>
    <path d="M 490.51922607421875 416.6514587402344 C 501.76690673828125 461.9141845703125 426.9583435058594 518.5723876953125 322.9720153808594 532.7667846679688 C 173.74769592285156 498.8497009277344 207.54588317871094 510.2744140625 287.4901123046875 460.3582458496094 C 209.86251831054688 240.33132934570312 237.8322296142578 214.16529846191406 330.4890441894531 282.82037353515625 C 463.5507507324219 242.6479034423828 435.2703552246094 241.8072509765625 490.51922607421875 416.6514587402344" stroke-width="0.0" fill="rgb(177, 72, 34)" opacity="0.9692002" stroke="rgb(0, 0, 0)" stroke-opacity="1.0" stroke-linecap="round" stroke-linejoin="round"/>
    <path d="M 539.342041015625 227.10752868652344 C 535.9913940429688 268.4176940917969 540.7310180664062 350.14068603515625 509.62530517578125 410.038818359375 C 328.7633361816406 340.034912109375 420.8576965332031 296.33929443359375 474.6778869628906 203.37693786621094 C 412.5567626953125 78.5189208984375 237.27259826660156 81.84894561767578 331.0773620605469 -18.260860443115234 C 484.0373229980469 -3.311046600341797 547.8654174804688 124.55237579345703 539.342041015625 227.10752868652344" stroke-width="0.0" fill="rgb(214, 55, 3)" opacity="0.9087714" stroke="rgb(0, 0, 0)" stroke-opacity="1.0" stroke-linecap="round" stroke-linejoin="round"/>
    <path d="M 330.84429931640625 287.9900817871094 C 321.60321044921875 356.7873840332031 406.1471862792969 422.13226318359375 357.87896728515625 441.7374572753906 C 285.6266174316406 289.42047119140625 272.9166259765625 296.3648681640625 287.5340270996094 298.3362731933594 C 285.5611877441406 263.30657958984375 295.6932678222656 261.242431640625 317.74395751953125 223.43426513671875 C 423.85791015625 260.8995361328125 423.8331604003906 298.40716552734375 330.84429931640625 287.9900817871094" stroke-width="0.0" fill="rgb(168, 31, 87)" opacity="0.13237438" stroke="rgb(0, 0, 0)" stroke-opacity="1.0" stroke-linecap="round" stroke-linejoin="round"/>
    <path d="M 395.7672119140625 235.58091735839844 C 383.94805908203125 212.3317413330078 370.1293640136719 241.58355712890625 308.9134826660156 235.4299774169922 C 250.07437133789062 235.16152954101562 283.1018981933594 238.40719604492188 326.4768371582031 224.18739318847656 C 306.007080078125 166.87008666992188 260.67431640625 167.76487731933594 397.6766052246094 118.83934020996094 C 425.0407409667969 211.22328186035156 392.16961669921875 227.17283630371094 395.7672119140625 235.58091735839844" stroke-width="0.0" fill="rgb(132, 253, 66)" opacity="1.0" stroke="rgb(0, 0, 0)" stroke-opacity="1.0" stroke-linecap="round" stroke-linejoin="round"/>
    <path d="M 304.62823486328125 181.41183471679688 C 177.77401733398438 312.98602294921875 306.75872802734375 406.2773132324219 238.43878173828125 307.535400390625 C 356.5924987792969 163.3983612060547 178.02760314941406 348.5290832519531 216.35276794433594 269.4910888671875 C 219.69915771484375 302.18060302734375 168.32760620117188 280.7220153808594 207.314453125 260.63958740234375 C 296.3893737792969 292.0762634277344 196.39935302734375 199.02243041992188 304.62823486328125 181.41183471679688" stroke-width="0.0" fill="rgb(169, 100, 27)" opacity="0.90114796" stroke="rgb(0, 0, 0)" stroke-opacity="1.0" stroke-linecap="round" stroke-linejoin="round"/>
    <path d="M 471.4897155761719 80.71146392822266 C 571.093017578125 227.7367401123047 512.4912109375 427.3564453125 408.3810729980469 451.7486877441406 C 349.7460632324219 406.4332580566406 277.17047119140625 360.8912048339844 307.8397521972656 287.506591796875 C 343.01202392578125 249.3662872314453 334.83099365234375 273.57373046875 362.1184997558594 212.94869995117188 C 379.2298889160156 255.05587768554688 425.5421142578125 241.4058837890625 471.4897155761719 80.71146392822266" stroke-width="0.0" fill="rgb(33, 93, 172)" opacity="0.9966699" stroke="rgb(0, 0, 0)" stroke-opacity="1.0" stroke-linecap="round" stroke-linejoin="round"/>
    <path d="M 232.96377563476562 413.44525146484375 C 135.73043823242188 460.667236328125 167.22711181640625 377.2657775878906 242.81068420410156 509.1252136230469 C 125.20233917236328 503.36651611328125 28.23261833190918 418.5380554199219 17.17306900024414 316.15472412109375 C -9.02646541595459 197.4818572998047 57.055110931396484 26.08824920654297 129.26748657226562 252.9964599609375 C 267.1319885253906 253.08349609375 261.7208557128906 304.9830017089844 232.96377563476562 413.44525146484375" stroke-width="0.0" fill="rgb(85, 90, 215)" opacity="0.996662" stroke="rgb(0, 0, 0)" stroke-opacity="1.0" stroke-linecap="round" stroke-linejoin="round"/>
    <path d="M 493.8502502441406 113.62557220458984 C 446.27606201171875 210.71788024902344 442.5453796386719 205.92803955078125 412.242431640625 168.3765869140625 C 380.4827575683594 74.83277893066406 309.3685302734375 76.6434555053711 258.13873291015625 73.45623016357422 C 167.59141540527344 58.166473388671875 192.70623779296875 78.95333862304688 252.4700469970703 -12.86153507232666 C 361.75836181640625 -7.571226119995117 467.4425048828125 35.48579025268555 493.8502502441406 113.62557220458984" stroke-width="0.0" fill="rgb(88, 100, 229)" opacity="1.0" stroke="rgb(0, 0, 0)" stroke-opacity="1.0" stroke-linecap="round" stroke-linejoin="round"/>
    <path d="M 313.5876770019531 440.3878173828125 C 343.6431579589844 441.24395751953125 290.98828125 444.4803771972656 181.06243896484375 417.5550231933594 C 194.02772521972656 420.6495666503906 189.8509521484375 340.70037841796875 281.6205139160156 406.34326171875 C 237.35906982421875 451.8816833496094 256.9807434082031 432.5084533691406 292.89630126953125 394.71435546875 C 276.9559020996094 226.07752990722656 262.10650634765625 312.7154846191406 313.5876770019531 440.3878173828125" stroke-width="0.0" fill="rgb(97, 128, 85)" opacity="9.495656e-05" stroke="rgb(0, 0, 0)" stroke-opacity="1.0" stroke-linecap="round" stroke-linejoin="round"/>
    <path d="M 450.1092529296875 443.79193115234375 C 417.77996826171875 455.48046875 372.6162109375 497.759033203125 292.56036376953125 507.32659912109375 C 235.33432006835938 518.0449829101562 226.0494384765625 493.8330993652344 177.46978759765625 450.6458740234375 C 337.04034423828125 453.6940002441406 392.08782958984375 446.5323791503906 415.31427001953125 433.3224792480469 C 492.053955078125 426.1479797363281 495.1907653808594 406.84210205078125 450.1092529296875 443.79193115234375" stroke-width="0.0" fill="rgb(21, 94, 162)" opacity="0.9751488" stroke="rgb(0, 0, 0)" stroke-opacity="1.0" stroke-linecap="round" stroke-linejoin="round"/>
    <path d="M 358.39678955078125 25.5529727935791 C 291.385009765625 -44.01163101196289 96.60623931884766 2.4048752784729004 124.37628173828125 85.33782196044922 C 220.43905639648438 110.04495239257812 179.63058471679688 -33.670135498046875 112.25404357910156 92.60723114013672 C 107.44441986083984 69.72636413574219 211.8626708984375 -8.298421859741211 156.74984741210938 29.862722396850586 C 232.56175231933594 85.03131103515625 114.55448150634766 123.48942565917969 358.39678955078125 25.5529727935791" stroke-width="0.0" fill="rgb(87, 98, 220)" opacity="0.8761913" stroke="rgb(0, 0, 0)" stroke-opacity="1.0" stroke-linecap="round" stroke-linejoin="round"/>
    <path d="M 307.001953125 137.15008544921875 C 338.7754211425781 164.48785400390625 295.775634765625 210.66590881347656 427.7569885253906 178.95965576171875 C 413.6201477050781 90.10780334472656 315.0833435058594 30.118398666381836 215.69882202148438 61.89723205566406 C 200.6302490234375 227.3678741455078 261.1950988769531 189.4000244140625 304.0565490722656 148.77615356445312 C 316.0647277832031 136.2068328857422 326.747802734375 137.87985229492188 307.001953125 137.15008544921875" stroke-width="0.0" fill="rgb(150, 225, 43)" opacity="0.9985074" stroke="rgb(0, 0, 0)" stroke-opacity="1.0" stroke-linecap="round" stroke-linejoin="round"/>
    <path d="M 309.3040466308594 171.4429168701172 C 338.2744445800781 183.44752502441406 344.8397521972656 193.15914916992188 361.9463195800781 219.66307067871094 C 356.8391418457031 196.06015014648438 313.93408203125 170.0716552734375 287.8668212890625 210.28553771972656 C 378.3455810546875 243.28269958496094 387.35723876953125 264.41229248046875 374.3327331542969 206.2315673828125 C 322.54541015625 199.24169921875 328.29052734375 175.86935424804688 309.3040466308594 171.4429168701172" stroke-width="0.0" fill="rgb(133, 237, 81)" opacity="0.26608744" stroke="rgb(0, 0, 0)" stroke-opacity="1.0" stroke-linecap="round" stroke-linejoin="round"/>
    <path d="M 442.7222595214844 168.12013244628906 C 442.5545654296875 195.39688110351562 432.53375244140625 205.04141235351562 421.5172119140625 236.76809692382812 C 372.5251770019531 291.69671630859375 337.6746520996094 279.66943359375 319.1477355957031 243.43824768066406 C 376.62371826171875 187.00762939453125 395.02691650390625 167.46852111816406 411.9024658203125 128.17051696777344 C 446.0843200683594 221.08758544921875 443.4515380859375 181.07833862304688 442.7222595214844 168.12013244628906" stroke-width="0.0" fill="rgb(70, 205, 61)" opacity="1.0" stroke="rgb(0, 0, 0)" stroke-opacity="1.0" stroke-linecap="round" stroke-linejoin="round"/>
    <path d="M 304.6347351074219 151.65122985839844 C 282.97833251953125 167.13623046875 271.9595031738281 195.39028930664062 253.2457733154297 212.7030792236328 C 241.47711181640625 211.89553833007812 221.2300567626953 203.8704376220703 196.44761657714844 150.3073272705078 C 277.65509033203125 137.6798553466797 264.52630615234375 147.67750549316406 280.1061096191406 163.69898986816406 C 293.8204650878906 152.66236877441406 293.1004333496094 169.59632873535156 304.6347351074219 151.65122985839844" stroke-width="0.0" fill="rgb(130, 241, 39)" opacity="0.9785648" stroke="rgb(0, 0, 0)" stroke-opacity="1.0" stroke-linecap="round" stroke-linejoin="round"/>
    <path d="M 74.64784240722656 88.7696533203125 C 79.10199737548828 70.85910034179688 41.18206024169922 92.4232177734375 25.019184112548828 189.3625030517578 C 131.619140625 246.82533264160156 95.06710815429688 208.52752685546875 120.72280883789062 167.7953643798828 C 157.53346252441406 157.01296997070312 211.4322052001953 149.51600646972656 189.20773315429688 14.173994064331055 C 65.1951675415039 55.356319427490234 61.75112533569336 108.41394805908203 74.64784240722656 88.7696533203125" stroke-width="0.0" fill="rgb(96, 92, 224)" opacity="1.0" stroke="rgb(0, 0, 0)" stroke-opacity="1.0" stroke-linecap="round" stroke-linejoin="round"/>
    <path d="M 313.5858459472656 261.1877746582031 C 309.2777099609375 258.17889404296875 282.16204833984375 263.6601257324219 247.76516723632812 272.04974365234375 C 226.39869689941406 284.5762939453125 253.35861206054688 256.7456359863281 254.54754638671875 232.6710662841797 C 262.6874694824219 232.04135131835938 258.3484802246094 214.84669494628906 287.0401306152344 231.53677368164062 C 312.0785217285156 210.09288024902344 296.8290710449219 204.18222045898438 313.5858459472656 261.1877746582031" stroke-width="0.0" fill="rgb(186, 103, 29)" opacity="0.9488206" stroke="rgb(0, 0, 0)" stroke-opacity="1.0" stroke-linecap="round" stroke-linejoin="round"/>
    <path d="M 246.56085205078125 129.26864624023438 C 239.33383178710938 145.9239044189453 226.1552276611328 134.75958251953125 197.785888671875 188.9484405517578 C 165.130615234375 223.03794860839844 145.5369415283203 205.36557006835938 108.1368179321289 187.53131103515625 C 128.5426483154297 105.49012756347656 173.33653259277344 75.79145050048828 216.16497802734375 67.19029235839844 C 263.3960266113281 82.33314514160156 260.7366943359375 111.9185562133789 246.56085205078125 129.26864624023438" stroke-width="0.0" fill="rgb(186, 252, 46)" opacity="0.9951118" stroke="rgb(0, 0, 0)" stroke-opacity="1.0" stroke-linecap="round" stroke-linejoin="round"/>
    <path d="M 280.67327880859375 339.90606689453125 C 258.1354064941406 330.7296447753906 227.90338134765625 341.20086669921875 262.2366943359375 390.0408935546875 C 291.02630615234375 350.6768493652344 275.9053039550781 326.2583312988281 272.62646484375 321.93280029296875 C 242.72300720214844 381.29156494140625 275.0296325683594 350.9881591796875 271.75274658203125 276.570556640625 C 298.3717346191406 339.08221435546875 295.8982849121094 332.7026672363281 280.67327880859375 339.90606689453125" stroke-width="0.0" fill="rgb(171, 93, 0)" opacity="0.10176151" stroke="rgb(0, 0, 0)" stroke-opacity="1.0" stroke-linecap="round" stroke-linejoin="round"/>
    <path d="M 320.22515869140625 160.3566131591797 C 362.8443603515625 242.87313842773438 325.2381896972656 227.49411010742188 300.55535888671875 258.434326171875 C 298.0232238769531 233.28472900390625 307.8611755371094 251.86485290527344 311.3660888671875 257.2763671875 C 305.63531494140625 258.35748291015625 314.68353271484375 277.2730407714844 272.4519958496094 255.9302978515625 C 252.6136016845703 247.1148223876953 258.3456726074219 206.37294006347656 320.22515869140625 160.3566131591797" stroke-width="0.0" fill="rgb(126, 234, 30)" opacity="1.0" stroke="rgb(0, 0, 0)" stroke-opacity="1.0" stroke-linecap="round" stroke-linejoin="round"/>
    <path d="M 554.0401000976562 93.77925109863281 C 534.5942993164062 143.75396728515625 519.1420288085938 156.6872100830078 512.2162475585938 126.73854064941406 C 462.8359069824219 111.78933715820312 449.475830078125 105.10211944580078 450.4776611328125 37.843807220458984 C 441.0994873046875 18.288806915283203 438.36749267578125 21.875938415527344 491.0134582519531 -18.114463806152344 C 554.9822387695312 12.421269416809082 552.7431640625 23.69692611694336 554.0401000976562 93.77925109863281" stroke-width="0.0" fill="rgb(98, 187, 31)" opacity="0.99036425" stroke="rgb(0, 0, 0)" stroke-opacity="1.0" stroke-linecap="round" stroke-linejoin="round"/>
    <path d="M 118.53501892089844 480.24609375 C 118.17843627929688 537.415771484375 105.49717712402344 531.4558715820312 43.7225227355957 538.7670288085938 C 55.35938262939453 501.98681640625 62.387386322021484 467.71356201171875 56.269866943359375 499.8371887207031 C 53.08993911743164 494.0599060058594 45.5803337097168 450.2266540527344 63.5684814453125 400.7735595703125 C 96.25282287597656 408.66680908203125 111.68508911132812 428.495849609375 118.53501892089844 480.24609375" stroke-width="0.0" fill="rgb(110, 216, 77)" opacity="0.9990386" stroke="rgb(0, 0, 0)" stroke-opacity="1.0" stroke-linecap="round" stroke-linejoin="round"/>
    <path d="M 255.7587127685547 419.7223205566406 C 273.22772216796875 417.03741455078125 244.481689453125 404.16644287109375 223.98265075683594 417.4013366699219 C 214.1275177001953 421.4100646972656 203.25555419921875 422.95904541015625 237.48928833007812 420.67108154296875 C 251.15982055664062 396.77154541015625 273.4765625 390.37939453125 259.91107177734375 370.856201171875 C 266.9296875 393.43267822265625 271.80865478515625 388.6890563964844 255.7587127685547 419.7223205566406" stroke-width="0.0" fill="rgb(232, 86, 137)" opacity="0.058951735" stroke="rgb(0, 0, 0)" stroke-opacity="1.0" stroke-linecap="round" stroke-linejoin="round"/>
    <path d="M 71.42352294921875 429.7898254394531 C 39.216854095458984 494.0374755859375 47.8889274597168 520.946044921875 9.968544006347656 514.3309326171875 C -13.365188598632812 497.8780822753906 -17.601791381835938 490.7740478515625 -24.75505828857422 488.5856628417969 C -32.91522216796875 437.49627685546875 -52.2595329284668 389.07073974609375 -9.968299865722656 377.80889892578125 C 57.19248580932617 381.2381896972656 96.66140747070312 411.71441650390625 71.42352294921875 429.7898254394531" stroke-width="0.0" fill="rgb(118, 193, 32)" opacity="1.0" stroke="rgb(0, 0, 0)" stroke-opacity="1.0" stroke-linecap="round" stroke-linejoin="round"/>
    <path d="M 527.8389282226562 444.4350280761719 C 533.1174926757812 511.4598388671875 532.705322265625 521.4187622070312 463.8984069824219 534.5933837890625 C 423.065673828125 525.841796875 409.626220703125 522.2011108398438 428.8292541503906 425.05914306640625 C 446.4133605957031 398.7837829589844 469.6200866699219 391.7590637207031 490.68292236328125 392.4929504394531 C 512.1228637695312 377.28302001953125 516.8618774414062 387.310302734375 527.8389282226562 444.4350280761719" stroke-width="0.0" fill="rgb(38, 162, 23)" opacity="0.99317235" stroke="rgb(0, 0, 0)" stroke-opacity="1.0" stroke-linecap="round" stroke-linejoin="round"/>
    <path d="M 368.2151794433594 430.9234924316406 C 354.4122009277344 434.8089904785156 380.804443359375 421.21368408203125 329.4731140136719 427.2927551269531 C 314.44097900390625 421.1963195800781 309.816650390625 408.12481689453125 308.4778137207031 401.2948303222656 C 308.10870361328125 399.2534484863281 298.4677429199219 330.2567443847656 304.102783203125 352.792236328125 C 349.7601318359375 364.95086669921875 358.0061340332031 381.3475036621094 368.2151794433594 430.9234924316406" stroke-width="0.0" fill="rgb(53, 116, 84)" opacity="1.0" stroke="rgb(0, 0, 0)" stroke-opacity="1.0" stroke-linecap="round" stroke-linejoin="round"/>
    <path d="M 60.025516510009766 517.9282836914062 C 77.81202697753906 516.1946411132812 50.95014953613281 516.3572998046875 15.088953018188477 526.9402465820312 C 2.5686471462249756 516.5128173828125 -4.220098972320557 511.42901611328125 -24.214563369750977 483.9495849609375 C 2.4891953468322754 481.39581298828125 42.39120864868164 500.1372375488281 46.4798583984375 460.8394470214844 C 56.45174026489258 429.9967956542969 72.26910400390625 447.3878479003906 60.025516510009766 517.9282836914062" stroke-width="0.0" fill="rgb(130, 235, 47)" opacity="1.0" stroke="rgb(0, 0, 0)" stroke-opacity="1.0" stroke-linecap="round" stroke-linejoin="round"/>
    <path d="M 546.25830078125 209.21279907226562 C 542.0912475585938 229.140380859375 514.0298461914062 216.99114990234375 502.23358154296875 238.31234741210938 C 484.2447204589844 225.86875915527344 476.9585266113281 210.29843139648438 452.5117492675781 188.33226013183594 C 446.4024353027344 182.1011505126953 442.2450256347656 178.10586547851562 505.31195068359375 176.08074951171875 C 518.5897216796875 194.7666778564453 524.1156616210938 188.91732788085938 546.25830078125 209.21279907226562" stroke-width="0.0" fill="rgb(137, 73, 229)" opacity="0.57547206" stroke="rgb(0, 0, 0)" stroke-opacity="1.0" stroke-linecap="round" stroke-linejoin="round"/>
    <path d="M 252.87344360351562 266.434326171875 C 255.67124938964844 303.92462158203125 256.97344970703125 311.80242919921875 254.4680938720703 305.173095703125 C 246.33460998535156 299.7085876464844 245.42405700683594 298.5920715332031 227.35890197753906 274.4620056152344 C 181.45587158203125 281.6744079589844 194.53262329101562 256.6328125 235.2374725341797 254.96583557128906 C 255.8809051513672 272.8807067871094 259.78314208984375 270.57733154296875 252.87344360351562 266.434326171875" stroke-width="0.0" fill="rgb(160, 73, 53)" opacity="0.9696693" stroke="rgb(0, 0, 0)" stroke-opacity="1.0" stroke-linecap="round" stroke-linejoin="round"/>
    <path d="M 430.36541748046875 162.72190856933594 C 444.4634704589844 180.99497985839844 426.8099060058594 170.58450317382812 411.9822082519531 154.05625915527344 C 428.86785888671875 149.8593292236328 421.7135925292969 148.8004608154297 414.38037109375 163.1036834716797 C 415.6500244140625 154.7667999267578 413.5231628417969 146.07705688476562 406.3879089355469 144.9463348388672 C 416.5536193847656 147.7552032470703 430.4505615234375 151.85101318359375 430.36541748046875 162.72190856933594" stroke-width="0.0" fill="rgb(11, 138, 67)" opacity="0.6390209" stroke="rgb(0, 0, 0)" stroke-opacity="1.0" stroke-linecap="round" stroke-linejoin="round"/>
    <path d="M 468.806884765625 508.6471252441406 C 484.4122619628906 547.3287963867188 483.61810302734375 549.0700073242188 437.22515869140625 539.6185302734375 C 404.01202392578125 524.9540405273438 384.4891052246094 508.50994873046875 378.5882873535156 499.6602783203125 C 417.45001220703125 480.38104248046875 405.6026306152344 448.5367431640625 435.458251953125 416.59210205078125 C 478.37371826171875 438.1799011230469 459.1128234863281 461.97320556640625 468.806884765625 508.6471252441406" stroke-width="0.0" fill="rgb(61, 166, 43)" opacity="0.96585953" stroke="rgb(0, 0, 0)" stroke-opacity="1.0" stroke-linecap="round" stroke-linejoin="round"/>
    <path d="M 197.52505493164062 50.886653900146484 C 182.03286743164062 64.78018188476562 175.5867156982422 81.65267944335938 164.0111846923828 60.07356643676758 C 173.46275329589844 57.80744934082031 166.08348083496094 65.89041900634766 150.0106201171875 68.43700408935547 C 164.87969970703125 62.37493896484375 165.34347534179688 74.53396606445312 185.9956512451172 93.77265930175781 C 200.00192260742188 95.33306121826172 203.46315002441406 99.7999267578125 197.52505493164062 50.886653900146484" stroke-width="0.0" fill="rgb(133, 198, 41)" opacity="0.0" stroke="rgb(0, 0, 0)" stroke-opacity="1.0" stroke-linecap="round" stroke-linejoin="round"/>
    <path d="M 460.5294494628906 -8.979903221130371 C 477.1927490234375 -7.186836242675781 490.07470703125 19.294967651367188 467.5556945800781 35.16838836669922 C 434.1541748046875 38.62004852294922 413.9005126953125 34.748165130615234 411.2662353515625 23.397953033447266 C 406.522216796875 -6.700608253479004 406.491943359375 -28.540014266967773 428.2090759277344 -35.50062942504883 C 470.95880126953125 -21.053966522216797 477.76568603515625 -15.926697731018066 460.5294494628906 -8.979903221130371" stroke-width="0.0" fill="rgb(78, 230, 57)" opacity="0.7859373" stroke="rgb(0, 0, 0)" stroke-opacity="1.0" stroke-linecap="round" stroke-linejoin="round"/>
    <path d="M 541.4309692382812 22.32508659362793 C 517.9762573242188 47.37424087524414 493.2231140136719 57.91123580932617 468.7359313964844 47.91171646118164 C 483.4673767089844 38.5718994140625 457.53448486328125 50.25373077392578 429.2367248535156 22.88089370727539 C 419.3236999511719 -12.995569229125977 437.3425598144531 -18.683473587036133 476.0249328613281 -11.098631858825684 C 516.0076904296875 -10.219571113586426 523.8924560546875 -5.525226593017578 541.4309692382812 22.32508659362793" stroke-width="0.0" fill="rgb(73, 216, 28)" opacity="0.9774184" stroke="rgb(0, 0, 0)" stroke-opacity="1.0" stroke-linecap="round" stroke-linejoin="round"/>
    <path d="M 193.60670471191406 435.7294921875 C 184.27615356445312 424.58154296875 166.42282104492188 438.7674560546875 181.84324645996094 456.83966064453125 C 179.58180236816406 463.9794921875 173.14022827148438 451.0124206542969 165.4465789794922 432.0445251464844 C 190.2301788330078 439.83294677734375 181.03189086914062 418.8633117675781 203.649169921875 425.2154846191406 C 206.5145263671875 426.188720703125 175.88209533691406 424.9942932128906 193.60670471191406 435.7294921875" stroke-width="0.0" fill="rgb(111, 144, 215)" opacity="0.7828658" stroke="rgb(0, 0, 0)" stroke-opacity="1.0" stroke-linecap="round" stroke-linejoin="round"/>
    <path d="M 356.3115234375 223.18724060058594 C 374.652587890625 252.20712280273438 379.31707763671875 284.0091857910156 360.453369140625 269.3119812011719 C 330.02435302734375 247.2677459716797 323.22576904296875 244.55130004882812 326.4110107421875 210.31895446777344 C 339.6706237792969 217.04269409179688 332.2543029785156 196.25704956054688 349.2923278808594 194.26873779296875 C 341.93084716796875 221.3713836669922 356.80743408203125 219.95669555664062 356.3115234375 223.18724060058594" stroke-width="0.0" fill="rgb(93, 204, 27)" opacity="0.9425097" stroke="rgb(0, 0, 0)" stroke-opacity="1.0" stroke-linecap="round" stroke-linejoin="round"/>
    <path d="M 186.44874572753906 265.0916442871094 C 211.1260223388672 251.56422424316406 206.09500122070312 276.7646789550781 198.54283142089844 269.00830078125 C 167.67152404785156 265.1591796875 153.21607971191406 256.716552734375 146.55459594726562 249.87548828125 C 148.13333129882812 264.7721862792969 158.59547424316406 260.0606994628906 150.07933044433594 252.1320343017578 C 163.39181518554688 247.87924194335938 165.484375 253.8707733154297 186.44874572753906 265.0916442871094" stroke-width="0.0" fill="rgb(76, 228, 22)" opacity="0.9775797" stroke="rgb(0, 0, 0)" stroke-opacity="1.0" stroke-linecap="round" stroke-linejoin="round"/>
    <path d="M 208.90304565429688 424.3089294433594 C 203.79588317871094 457.4183044433594 223.20240783691406 446.1910400390625 167.00445556640625 446.0514221191406 C 146.73818969726562 444.9441833496094 130.5530548095703 437.09112548828125 150.95623779296875 433.0085754394531 C 167.2417449951172 430.8717346191406 189.65972900390625 423.5033264160156 192.08457946777344 428.0700378417969 C 181.58279418945312 430.98590087890625 205.05947875976562 423.28118896484375 208.90304565429688 424.3089294433594" stroke-width="0.0" fill="rgb(218, 113, 59)" opacity="0.895058" stroke="rgb(0, 0, 0)" stroke-opacity="1.0" stroke-linecap="round" stroke-linejoin="round"/>
    <path d="M 223.70748901367188 254.4546661376953 C 230.86827087402344 254.908447265625 203.17138671875 284.5309143066406 163.25186157226562 265.1387634277344 C 143.90557861328125 259.0616149902344 146.08856201171875 274.1242980957031 132.551513671875 252.80519104003906 C 140.34671020507812 218.9470672607422 194.27622985839844 254.91929626464844 212.84930419921875 256.0408935546875 C 213.86618041992188 234.81231689453125 213.03091430664062 255.97911071777344 223.70748901367188 254.4546661376953" stroke-width="0.0" fill="rgb(130, 234, 31)" opacity="0.9887051" stroke="rgb(0, 0, 0)" stroke-opacity="1.0" stroke-linecap="round" stroke-linejoin="round"/>
    <path d="M 247.70205688476562 86.42135620117188 C 246.45188903808594 85.43733978271484 232.08193969726562 109.63069152832031 211.75340270996094 77.74624633789062 C 175.16091918945312 75.9605712890625 161.4952850341797 88.93038177490234 236.76805114746094 83.43802642822266 C 215.7582244873047 64.34762573242188 196.49154663085938 49.006710052490234 181.426513671875 75.9414291381836 C 188.3319549560547 96.65431213378906 216.69837951660156 85.14178466796875 247.70205688476562 86.42135620117188" stroke-width="0.0" fill="rgb(167, 230, 64)" opacity="0.017268937" stroke="rgb(0, 0, 0)" stroke-opacity="1.0" stroke-linecap="round" stroke-linejoin="round"/>
    <path d="M 49.82968521118164 128.9977264404297 C 49.583831787109375 124.53861236572266 44.34207534790039 146.32681274414062 28.00452995300293 157.80165100097656 C -18.85938835144043 170.17071533203125 -31.293537139892578 175.3294219970703 -28.15741729736328 140.28956604003906 C -21.388540267944336 63.61891555786133 -51.9770622253418 6.375474452972412 21.856184005737305 -6.614024639129639 C 82.07582092285156 42.20063400268555 58.983280181884766 92.98031616210938 49.82968521118164 128.9977264404297" stroke-width="0.0" fill="rgb(132, 221, 52)" opacity="0.988574" stroke="rgb(0, 0, 0)" stroke-opacity="1.0" stroke-linecap="round" stroke-linejoin="round"/>
    <path d="M 386.24884033203125 102.95143127441406 C 375.947265625 99.79344940185547 382.7281799316406 120.83769989013672 380.98760986328125 116.4853286743164 C 355.10174560546875 114.45863342285156 338.1457824707031 122.14344787597656 344.4262390136719 108.5251235961914 C 319.3649597167969 77.79009246826172 347.44866943359375 70.14130401611328 383.95587158203125 86.35660552978516 C 385.9884033203125 83.10214233398438 385.2174072265625 90.79157257080078 386.24884033203125 102.95143127441406" stroke-width="0.0" fill="rgb(70, 233, 103)" opacity="0.019390224" stroke="rgb(0, 0, 0)" stroke-opacity="1.0" stroke-linecap="round" stroke-linejoin="round"/>
    <path d="M 59.99021530151367 465.17694091796875 C 54.271575927734375 506.5899963378906 37.93035888671875 519.9979858398438 23.651756286621094 467.48748779296875 C 14.896531105041504 463.83831787109375 -9.314949989318848 497.2330322265625 -7.1695451736450195 452.9180908203125 C 28.85120964050293 454.0085754394531 46.54452133178711 436.8813781738281 52.96318817138672 443.2793273925781 C 76.31539916992188 464.9400634765625 61.0883903503418 458.5469970703125 59.99021530151367 465.17694091796875" stroke-width="0.0" fill="rgb(132, 206, 37)" opacity="0.22838366" stroke="rgb(0, 0, 0)" stroke-opacity="1.0" stroke-linecap="round" stroke-linejoin="round"/>
    <path d="M 144.83677673339844 235.03768920898438 C 160.07418823242188 234.07708740234375 139.00021362304688 235.31298828125 135.55087280273438 271.9836730957031 C 131.2659149169922 270.7188720703125 124.05036163330078 249.3426971435547 127.39905548095703 221.3062744140625 C 118.93073272705078 230.44102478027344 131.6968994140625 211.11903381347656 133.30030822753906 222.95411682128906 C 145.7567138671875 222.3039093017578 160.72377014160156 228.162841796875 144.83677673339844 235.03768920898438" stroke-width="0.0" fill="rgb(165, 218, 27)" opacity="0.69860137" stroke="rgb(0, 0, 0)" stroke-opacity="1.0" stroke-linecap="round" stroke-linejoin="round"/>
    <path d="M 266.5400085449219 14.431066513061523 C 308.8367614746094 35.11779022216797 290.41082763671875 41.03791809082031 274.33551025390625 17.614940643310547 C 263.92291259765625 -4.989331245422363 273.2806701660156 6.723140716552734 291.65234375 -7.366648197174072 C 280.0715026855469 -24.103681564331055 280.76092529296875 -32.25631332397461 287.0417175292969 -33.910213470458984 C 285.1506042480469 -29.58648681640625 280.6969299316406 -21.34150505065918 266.5400085449219 14.431066513061523" stroke-width="0.0" fill="rgb(75, 108, 217)" opacity="0.0" stroke="rgb(0, 0, 0)" stroke-opacity="1.0" stroke-linecap="round" stroke-linejoin="round"/>
    <path d="M 554.3652954101562 228.8444366455078 C 532.401123046875 254.8331756591797 523.54345703125 267.05328369140625 521.73193359375 277.04180908203125 C 512.7259521484375 277.49444580078125 504.7945251464844 278.6472473144531 489.5646667480469 266.0463562011719 C 500.7856140136719 274.6144104003906 483.7226257324219 266.3139343261719 496.8204040527344 240.42457580566406 C 527.108642578125 229.7088623046875 544.9291381835938 229.81512451171875 554.3652954101562 228.8444366455078" stroke-width="0.0" fill="rgb(12, 106, 200)" opacity="0.016507631" stroke="rgb(0, 0, 0)" stroke-opacity="1.0" stroke-linecap="round" stroke-linejoin="round"/>
    <path d="M 275.9295959472656 401.1274108886719 C 270.638427734375 413.57940673828125 248.01083374023438 422.17218017578125 215.32794189453125 424.1351013183594 C 229.21839904785156 436.80108642578125 246.2679443359375 417.67724609375 233.28062438964844 421.7857360839844 C 244.82272338867188 409.65380859375 246.57275390625 397.5293273925781 243.22203063964844 407.05218505859375 C 261.594970703125 417.5010070800781 275.7469787597656 409.4454040527344 275.9295959472656 401.1274108886719" stroke-width="0.0" fill="rgb(132, 163, 0)" opacity="0.32346132" stroke="rgb(0, 0, 0)" stroke-opacity="1.0" stroke-linecap="round" stroke-linejoin="round"/>
    <path d="M 91.12726593017578 128.943359375 C 67.37934875488281 143.1114959716797 91.74434661865234 113.77116394042969 68.57697296142578 87.49275970458984 C 68.42149353027344 104.70889282226562 31.492414474487305 114.29249572753906 48.41845703125 132.6239776611328 C 66.85894012451172 110.67415618896484 67.20601654052734 84.10389709472656 66.9108657836914 92.05400085449219 C 97.48477172851562 109.6192398071289 96.57875061035156 115.95025634765625 91.12726593017578 128.943359375" stroke-width="0.0" fill="rgb(75, 124, 193)" opacity="0.0" stroke="rgb(0, 0, 0)" stroke-opacity="1.0" stroke-linecap="round" stroke-linejoin="round"/>
    <path d="M 449.0741271972656 235.5987548828125 C 469.1885070800781 230.76670837402344 438.61822509765625 243.88961791992188 453.61798095703125 252.3806915283203 C 436.5472106933594 267.1454162597656 446.2882385253906 259.9298095703125 425.3876953125 253.5927734375 C 419.0589904785156 239.73001098632812 442.60064697265625 225.12014770507812 449.23199462890625 222.380126953125 C 432.2559814453125 210.0761260986328 424.9791564941406 221.71804809570312 449.0741271972656 235.5987548828125" stroke-width="0.0" fill="rgb(18, 118, 134)" opacity="0.04018665" stroke="rgb(0, 0, 0)" stroke-opacity="1.0" stroke-linecap="round" stroke-linejoin="round"/>
    <path d="M 335.2554016113281 392.2569274902344 C 373.7501525878906 407.9283142089844 360.7162780761719 398.7662353515625 352.3330993652344 397.1866455078125 C 341.29901123046875 399.4988098144531 325.52008056640625 385.61334228515625 311.7869873046875 378.91815185546875 C 335.9076843261719 380.2141418457031 311.2403259277344 368.54693603515625 304.4784851074219 356.4354553222656 C 340.5606384277344 380.6146240234375 331.50347900390625 386.84808349609375 335.2554016113281 392.2569274902344" stroke-width="0.0" fill="rgb(51, 114, 78)" opacity="0.011760282" stroke="rgb(0, 0, 0)" stroke-opacity="1.0" stroke-linecap="round" stroke-linejoin="round"/>
    <path d="M 385.3676452636719 186.84800720214844 C 320.5971374511719 174.87567138671875 318.35870361328125 219.40927124023438 352.2330627441406 216.2405242919922 C 372.4939270019531 219.9779052734375 317.0462341308594 219.4013671875 341.4446105957031 225.6621551513672 C 355.9173278808594 173.02236938476562 353.1954345703125 162.0103302001953 359.4830017089844 196.3504180908203 C 374.1114501953125 190.43646240234375 382.05487060546875 198.22079467773438 385.3676452636719 186.84800720214844" stroke-width="0.0" fill="rgb(63, 237, 6)" opacity="0.106779546" stroke="rgb(0, 0, 0)" stroke-opacity="1.0" stroke-linecap="round" stroke-linejoin="round"/>
    <path d="M 83.94515228271484 462.1518859863281 C 130.59747314453125 463.9311218261719 124.6709213256836 456.8670654296875 101.7806396484375 433.0753173828125 C 85.51091766357422 446.9721374511719 105.59203338623047 461.5090637207031 111.68728637695312 464.06329345703125 C 93.27564239501953 444.7774658203125 70.38005065917969 449.1524353027344 63.59586715698242 401.0362243652344 C 91.03639221191406 421.3219299316406 95.5800552368164 438.0335693359375 83.94515228271484 462.1518859863281" stroke-width="0.0" fill="rgb(102, 252, 28)" opacity="0.039693296" stroke="rgb(0, 0, 0)" stroke-opacity="1.0" stroke-linecap="round" stroke-linejoin="round"/>
    <path d="M 96.2571792602539 478.5885314941406 C 67.58222961425781 475.4448547363281 60.254554748535156 484.7861633300781 54.96734619140625 469.3240661621094 C 53.62616729736328 502.7823791503906 26.882802963256836 464.41717529296875 64.7669677734375 481.87860107421875 C 108.70555877685547 465.592529296875 94.95279693603516 417.3155212402344 55.56392288208008 397.9782409667969 C 67.40154266357422 443.61962890625 89.72630310058594 454.25445556640625 96.2571792602539 478.5885314941406" stroke-width="0.0" fill="rgb(118, 222, 94)" opacity="0.0013001319" stroke="rgb(0, 0, 0)" stroke-opacity="1.0" stroke-linecap="round" stroke-linejoin="round"/>
    <path d="M 459.9654235839844 46.581695556640625 C 476.1146240234375 70.74658966064453 463.43603515625 63.16366958618164 447.7716064453125 58.1143798828125 C 429.7642822265625 61.58119583129883 432.5880126953125 62.69072723388672 454.0189208984375 44.58153533935547 C 431.46551513671875 29.602279663085938 421.95086669921875 18.623634338378906 429.1878356933594 18.26247215270996 C 448.0437316894531 34.070526123046875 459.60150146484375 33.56821060180664 459.9654235839844 46.581695556640625" stroke-width="0.0" fill="rgb(224, 102, 85)" opacity="0.11055811" stroke="rgb(0, 0, 0)" stroke-opacity="1.0" stroke-linecap="round" stroke-linejoin="round"/>
    <path d="M 277.5180358886719 159.61314392089844 C 301.2082214355469 188.556884765625 313.475341796875 191.63278198242188 288.8275146484375 170.6300048828125 C 309.9605712890625 188.4130401611328 267.4332275390625 172.23590087890625 299.2962341308594 178.5201416015625 C 289.50152587890625 170.34384155273438 254.63101196289062 140.69956970214844 270.1911315917969 137.360595703125 C 284.9935302734375 129.56028747558594 293.2927551269531 155.0485382080078 277.5180358886719 159.61314392089844" stroke-width="0.0" fill="rgb(151, 124, 93)" opacity="0.0010544856" stroke="rgb(0, 0, 0)" stroke-opacity="1.0" stroke-linecap="round" stroke-linejoin="round"/>
    <path d="M 161.03990173339844 30.90107536315918 C 152.86106872558594 59.979530334472656 150.86814880371094 63.9709587097168 142.32545471191406 58.21638488769531 C 132.87744140625 50.179351806640625 115.21632385253906 38.6164665222168 79.48674011230469 27.388723373413086 C 50.1968994140625 9.441770553588867 54.18789291381836 -33.285194396972656 127.32714080810547 -10.7466402053833 C 156.11351013183594 -1.4796301126480103 155.54786682128906 9.332266807556152 161.03990173339844 30.90107536315918" stroke-width="0.0" fill="rgb(101, 212, 73)" opacity="0.99196875" stroke="rgb(0, 0, 0)" stroke-opacity="1.0" stroke-linecap="round" stroke-linejoin="round"/>
    <path d="M 166.80906677246094 379.73736572265625 C 185.15487670898438 401.3092041015625 187.14266967773438 393.721923828125 165.95120239257812 373.22796630859375 C 162.30516052246094 348.33404541015625 152.4734344482422 361.77178955078125 186.03182983398438 364.8442077636719 C 169.0780792236328 367.98883056640625 172.0911407470703 364.3472900390625 159.00025939941406 360.60406494140625 C 183.83633422851562 372.2729797363281 198.5074462890625 375.71453857421875 166.80906677246094 379.73736572265625" stroke-width="0.0" fill="rgb(69, 98, 236)" opacity="0.0013796687" stroke="rgb(0, 0, 0)" stroke-opacity="1.0" stroke-linecap="round" stroke-linejoin="round"/>
    <path d="M 54.3642578125 335.3736877441406 C 27.12937355041504 345.6334533691406 22.585399627685547 330.30535888671875 49.19518280029297 327.63507080078125 C 36.00735855102539 341.829833984375 25.00351905822754 333.6226501464844 4.910722732543945 351.4146423339844 C -12.224921226501465 315.3336181640625 -33.1710090637207 276.3536376953125 5.666431427001953 291.1205749511719 C 37.5206413269043 300.44342041015625 57.06211853027344 323.4212951660156 54.3642578125 335.3736877441406" stroke-width="0.0" fill="rgb(113, 227, 45)" opacity="0.86024547" stroke="rgb(0, 0, 0)" stroke-opacity="1.0" stroke-linecap="round" stroke-linejoin="round"/>
    <path d="M 413.30499267578125 429.88690185546875 C 424.9402770996094 464.0219421386719 421.6230163574219 473.3475341796875 392.72540283203125 469.8072204589844 C 388.5052185058594 457.0748596191406 396.8551330566406 442.09893798828125 381.74822998046875 422.2116394042969 C 374.7931823730469 421.5407409667969 387.6247863769531 429.59429931640625 404.2761535644531 436.10076904296875 C 406.3370666503906 437.4669494628906 418.5585632324219 422.5812683105469 413.30499267578125 429.88690185546875" stroke-width="0.0" fill="rgb(50, 114, 150)" opacity="0.020873923" stroke="rgb(0, 0, 0)" stroke-opacity="1.0" stroke-linecap="round" stroke-linejoin="round"/>
    <path d="M 130.6466522216797 287.6055908203125 C 148.52896118164062 293.1675720214844 140.8334197998047 308.8340759277344 164.673095703125 310.17919921875 C 165.78099060058594 278.5576477050781 121.77369689941406 278.4549865722656 130.17666625976562 280.12908935546875 C 127.5718002319336 274.65203857421875 93.60638427734375 262.4584655761719 119.62322998046875 230.4356231689453 C 149.47715759277344 264.27001953125 152.30947875976562 279.9723205566406 130.6466522216797 287.6055908203125" stroke-width="0.0" fill="rgb(92, 92, 226)" opacity="0.5665996" stroke="rgb(0, 0, 0)" stroke-opacity="1.0" stroke-linecap="round" stroke-linejoin="round"/>
  </g>
</svg>
