<?xml version="1.0" ?>
<svg xmlns="http://www.w3.org/2000/svg" version="1.1" width="512" height="512">
  <defs/>
  <g>
    <path d="M 556.5989379882812 451.58660888671875 C 554.8630981445312 484.7214050292969 504.4278564453125 532.0775756835938 448.7355651855469 549.3016967773438 C 310.7704162597656 544.1632690429688 290.6776123046875 547.3385009765625 204.2843475341797 434.6719055175781 C 304.3003845214844 386.5374755859375 406.5982360839844 400.3092956542969 511.0310363769531 352.4592590332031 C 555.388671875 325.3413391113281 563.21826171875 352.54779052734375 556.5989379882812 451.58660888671875" stroke-width="0.0" fill="rgb(29, 173, 34)" opacity="0.8446569" stroke="rgb(0, 0, 0)" stroke-opacity="1.0" stroke-linecap="round" stroke-linejoin="round"/>
    <path d="M 242.1696014404297 395.2997131347656 C 253.75086975097656 472.2981872558594 352.71636962890625 401.1207580566406 213.5654754638672 545.3234252929688 C -41.479393005371094 563.2000122070312 -20.873289108276367 492.0749206542969 -43.689369201660156 405.0256042480469 C -40.1970329284668 237.90965270996094 -16.045141220092773 209.74998474121094 65.06427764892578 161.0833282470703 C 218.718505859375 218.83401489257812 155.30836486816406 260.09332275390625 242.1696014404297 395.2997131347656" stroke-width="0.0" fill="rgb(197, 245, 1)" opacity="0.76308393" stroke="rgb(0, 0, 0)" stroke-opacity="1.0" stroke-linecap="round" stroke-linejoin="round"/>
    <path d="M 128.943115234375 307.3239440917969 C 144.0341339111328 266.8657531738281 141.7511749267578 286.51708984375 156.7777099609375 327.8231201171875 C 34.43047332763672 313.522216796875 -4.3807878494262695 350.7978515625 -26.942092895507812 176.49378967285156 C -3.925028085708618 131.0269775390625 11.142840385437012 120.16487884521484 172.29595947265625 182.95252990722656 C 161.31369018554688 311.27911376953125 139.16622924804688 303.7181091308594 128.943115234375 307.3239440917969" stroke-width="0.0" fill="rgb(196, 234, 40)" opacity="0.98285514" stroke="rgb(0, 0, 0)" stroke-opacity="1.0" stroke-linecap="round" stroke-linejoin="round"/>
    <path d="M 376.27825927734375 105.87246704101562 C 252.41314697265625 152.67587280273438 177.4168243408203 17.559764862060547 42.967411041259766 150.0570526123047 C -57.22249984741211 168.6318817138672 -70.19331359863281 149.0379180908203 -50.96916961669922 69.58148956298828 C -48.08198928833008 21.886917114257812 17.95058822631836 -22.269336700439453 72.42523193359375 -42.9882926940918 C 324.87445068359375 -78.80284881591797 348.8426513671875 -79.99971771240234 376.27825927734375 105.87246704101562" stroke-width="0.0" fill="rgb(191, 232, 11)" opacity="0.88729376" stroke="rgb(0, 0, 0)" stroke-opacity="1.0" stroke-linecap="round" stroke-linejoin="round"/>
    <path d="M 233.38079833984375 128.77862548828125 C 219.74081420898438 215.85153198242188 190.01026916503906 192.89454650878906 170.19284057617188 248.92945861816406 C 170.17942810058594 240.5072021484375 113.57157897949219 197.72166442871094 29.480670928955078 164.21697998046875 C 32.6558723449707 108.03711700439453 223.45506286621094 -21.06966781616211 355.7413024902344 147.34193420410156 C 214.78216552734375 282.6097106933594 161.79222106933594 119.98291778564453 233.38079833984375 128.77862548828125" stroke-width="0.0" fill="rgb(179, 233, 36)" opacity="0.9960082" stroke="rgb(0, 0, 0)" stroke-opacity="1.0" stroke-linecap="round" stroke-linejoin="round"/>
    <path d="M 481.27618408203125 188.11917114257812 C 464.2823791503906 451.51385498046875 407.8351135253906 428.5620422363281 218.51283264160156 398.5711669921875 C 358.8802490234375 374.474609375 318.357421875 318.5353088378906 356.4611511230469 338.6281433105469 C 338.20416259765625 386.2234802246094 338.2314147949219 397.02197265625 333.657470703125 321.8169250488281 C 407.37847900390625 224.94537353515625 341.4884033203125 211.74586486816406 481.27618408203125 188.11917114257812" stroke-width="0.0" fill="rgb(68, 184, 42)" opacity="0.99072504" stroke="rgb(0, 0, 0)" stroke-opacity="1.0" stroke-linecap="round" stroke-linejoin="round"/>
    <path d="M 541.5443115234375 98.1453857421875 C 571.6612548828125 354.15313720703125 559.501220703125 371.14459228515625 468.78997802734375 402.5873718261719 C 306.5143737792969 351.6922302246094 378.984375 303.6932678222656 325.00335693359375 221.31764221191406 C 311.2906494140625 78.62646484375 267.46624755859375 138.6018829345703 330.6778564453125 1.742475152015686 C 571.0174560546875 -46.770904541015625 546.3216552734375 35.59132385253906 541.5443115234375 98.1453857421875" stroke-width="0.0" fill="rgb(78, 189, 59)" opacity="0.9955151" stroke="rgb(0, 0, 0)" stroke-opacity="1.0" stroke-linecap="round" stroke-linejoin="round"/>
    <path d="M 350.8798828125 257.4488525390625 C 344.3597106933594 400.6697998046875 366.4928894042969 222.17166137695312 245.09072875976562 541.0765380859375 C 206.1399688720703 347.24786376953125 185.67515563964844 372.8215637207031 238.05393981933594 250.47372436523438 C 331.0175476074219 264.30859375 241.1925811767578 194.92616271972656 279.4001770019531 175.4859161376953 C 280.72979736328125 309.6294860839844 330.5762023925781 201.88888549804688 350.8798828125 257.4488525390625" stroke-width="0.0" fill="rgb(56, 51, 60)" opacity="1.0" stroke="rgb(0, 0, 0)" stroke-opacity="1.0" stroke-linecap="round" stroke-linejoin="round"/>
    <path d="M 303.215087890625 246.61314392089844 C 179.70449829101562 337.05657958984375 230.4933624267578 195.7716827392578 184.43319702148438 511.7740478515625 C 188.56365966796875 185.2169189453125 201.0731201171875 308.21539306640625 209.9730682373047 262.56463623046875 C 184.87960815429688 193.8530731201172 275.8278503417969 -49.96298599243164 162.76361083984375 256.4886474609375 C 249.25692749023438 281.6707458496094 234.13795471191406 -10.564895629882812 303.215087890625 246.61314392089844" stroke-width="0.0" fill="rgb(71, 67, 76)" opacity="0.97181815" stroke="rgb(0, 0, 0)" stroke-opacity="1.0" stroke-linecap="round" stroke-linejoin="round"/>
    <path d="M 535.863037109375 95.96881866455078 C 490.3953552246094 100.26535034179688 490.7414245605469 79.25618743896484 470.0824890136719 102.79302215576172 C 462.4199523925781 102.30156707763672 444.8937683105469 102.34757232666016 348.3142395019531 4.297934055328369 C 310.7963562011719 -8.069052696228027 377.32330322265625 -21.818378448486328 488.8555908203125 -35.999534606933594 C 524.1558227539062 -13.975769996643066 536.4097290039062 30.708364486694336 535.863037109375 95.96881866455078" stroke-width="0.0" fill="rgb(200, 236, 51)" opacity="0.95690274" stroke="rgb(0, 0, 0)" stroke-opacity="1.0" stroke-linecap="round" stroke-linejoin="round"/>
    <path d="M 239.5981903076172 403.944580078125 C 263.982666015625 413.69757080078125 282.2812805175781 496.18243408203125 230.94769287109375 475.9460754394531 C 253.34869384765625 399.7279968261719 264.5884094238281 389.0090026855469 258.9169921875 393.4575500488281 C 266.4521484375 391.12506103515625 280.07763671875 388.680908203125 265.413818359375 365.3727722167969 C 258.3678283691406 341.3258972167969 242.4312286376953 382.63970947265625 239.5981903076172 403.944580078125" stroke-width="0.0" fill="rgb(206, 255, 4)" opacity="1.0" stroke="rgb(0, 0, 0)" stroke-opacity="1.0" stroke-linecap="round" stroke-linejoin="round"/>
    <path d="M 240.21749877929688 254.01339721679688 C 244.7922821044922 209.87799072265625 246.76023864746094 280.6710510253906 217.21556091308594 306.83892822265625 C 201.2937469482422 328.1393737792969 142.77906799316406 337.5785827636719 175.43345642089844 244.92349243164062 C 190.45535278320312 257.48065185546875 189.35009765625 284.913330078125 213.52146911621094 240.806396484375 C 248.50503540039062 123.31990051269531 242.9976348876953 201.72119140625 240.21749877929688 254.01339721679688" stroke-width="0.0" fill="rgb(19, 76, 51)" opacity="0.7272724" stroke="rgb(0, 0, 0)" stroke-opacity="1.0" stroke-linecap="round" stroke-linejoin="round"/>
    <path d="M 471.0320739746094 393.025390625 C 474.3289794921875 411.7668151855469 454.59295654296875 404.4803466796875 455.7702941894531 418.38812255859375 C 445.3971862792969 434.768310546875 410.832763671875 446.8722229003906 394.4810485839844 405.5732421875 C 400.1300048828125 355.4881591796875 420.31451416015625 343.7936096191406 445.2300720214844 365.2500305175781 C 473.3878479003906 389.6630859375 484.34375 381.2135009765625 471.0320739746094 393.025390625" stroke-width="0.0" fill="rgb(56, 210, 84)" opacity="0.9763995" stroke="rgb(0, 0, 0)" stroke-opacity="1.0" stroke-linecap="round" stroke-linejoin="round"/>
    <path d="M 310.1788024902344 390.8959655761719 C 311.8737487792969 407.9727478027344 252.59716796875 403.471435546875 242.49855041503906 396.520263671875 C 244.68104553222656 420.9651794433594 185.96487426757812 388.4267578125 212.57763671875 382.5889892578125 C 264.9312438964844 399.9234313964844 267.6824951171875 389.2825012207031 253.55865478515625 374.8815002441406 C 281.92791748046875 374.1635437011719 249.7998504638672 407.3146057128906 310.1788024902344 390.8959655761719" stroke-width="0.0" fill="rgb(204, 108, 24)" opacity="0.7483536" stroke="rgb(0, 0, 0)" stroke-opacity="1.0" stroke-linecap="round" stroke-linejoin="round"/>
    <path d="M 326.93341064453125 159.00070190429688 C 345.83807373046875 271.93951416015625 317.5511779785156 266.1002197265625 296.7131652832031 204.03668212890625 C 297.6288146972656 174.52505493164062 243.67039489746094 168.32167053222656 238.59730529785156 187.3292999267578 C 287.6168212890625 185.1156005859375 315.790771484375 200.31405639648438 322.8060302734375 185.87045288085938 C 326.9184875488281 140.6961669921875 311.1067199707031 123.85311126708984 326.93341064453125 159.00070190429688" stroke-width="0.0" fill="rgb(225, 221, 218)" opacity="1.0" stroke="rgb(0, 0, 0)" stroke-opacity="1.0" stroke-linecap="round" stroke-linejoin="round"/>
    <path d="M 250.82803344726562 86.13375854492188 C 222.64117431640625 94.1924819946289 218.84786987304688 89.1053466796875 235.68739318847656 125.7968521118164 C 229.4332733154297 161.8389129638672 203.67942810058594 155.71315002441406 216.84226989746094 88.09490203857422 C 197.09446716308594 80.98300170898438 190.2677459716797 52.105712890625 209.61984252929688 13.820804595947266 C 216.60826110839844 56.84381103515625 216.1175079345703 66.84358215332031 250.82803344726562 86.13375854492188" stroke-width="0.0" fill="rgb(109, 100, 134)" opacity="0.80296934" stroke="rgb(0, 0, 0)" stroke-opacity="1.0" stroke-linecap="round" stroke-linejoin="round"/>
    <path d="M 285.6103210449219 230.35159301757812 C 271.094970703125 244.472900390625 253.25364685058594 225.8528289794922 272.3861083984375 222.05419921875 C 265.37939453125 263.1981201171875 265.7309265136719 289.40740966796875 247.88363647460938 247.84481811523438 C 248.9740753173828 212.3788604736328 259.44842529296875 194.92431640625 260.7406005859375 229.79544067382812 C 257.65185546875 248.03985595703125 242.40174865722656 235.635986328125 285.6103210449219 230.35159301757812" stroke-width="0.0" fill="rgb(71, 120, 125)" opacity="0.30891976" stroke="rgb(0, 0, 0)" stroke-opacity="1.0" stroke-linecap="round" stroke-linejoin="round"/>
    <path d="M 241.3383331298828 105.1494369506836 C 246.4136199951172 195.05882263183594 254.52377319335938 251.1118927001953 159.9927520751953 232.7042694091797 C 147.9068603515625 187.69786071777344 205.21630859375 202.2179718017578 213.89129638671875 144.62596130371094 C 200.71107482910156 116.28447723388672 185.79281616210938 120.85336303710938 259.2326965332031 132.3439483642578 C 253.90155029296875 83.85578155517578 249.3655548095703 106.07203674316406 241.3383331298828 105.1494369506836" stroke-width="0.0" fill="rgb(174, 95, 45)" opacity="0.9299122" stroke="rgb(0, 0, 0)" stroke-opacity="1.0" stroke-linecap="round" stroke-linejoin="round"/>
    <path d="M 323.2908935546875 377.5982666015625 C 305.2656555175781 388.1268005371094 330.86151123046875 380.4272766113281 297.072265625 420.59991455078125 C 272.5729675292969 349.3000793457031 306.0732116699219 410.69793701171875 319.7943115234375 381.22528076171875 C 288.7288818359375 332.0218505859375 257.0587463378906 342.0160827636719 310.59979248046875 251.42124938964844 C 368.7427062988281 349.4524230957031 321.23944091796875 349.2320861816406 323.2908935546875 377.5982666015625" stroke-width="0.0" fill="rgb(175, 193, 191)" opacity="0.8190802" stroke="rgb(0, 0, 0)" stroke-opacity="1.0" stroke-linecap="round" stroke-linejoin="round"/>
    <path d="M 350.1227722167969 265.49285888671875 C 324.06866455078125 272.3846130371094 348.2806701660156 242.65350341796875 313.31170654296875 305.1874084472656 C 309.5560302734375 225.3203125 257.71563720703125 287.29302978515625 262.2682800292969 184.9099578857422 C 269.40185546875 283.468994140625 259.7978820800781 181.80548095703125 310.4462585449219 201.9197540283203 C 339.77105712890625 114.74747467041016 345.84234619140625 195.6017303466797 350.1227722167969 265.49285888671875" stroke-width="0.0" fill="rgb(194, 196, 194)" opacity="0.78578407" stroke="rgb(0, 0, 0)" stroke-opacity="1.0" stroke-linecap="round" stroke-linejoin="round"/>
    <path d="M 293.88616943359375 412.3315124511719 C 298.49859619140625 410.6289978027344 302.9737243652344 449.8424377441406 333.70294189453125 440.7557067871094 C 333.3007507324219 437.6073913574219 321.3631896972656 433.0257263183594 309.48052978515625 411.764404296875 C 323.00775146484375 392.0443420410156 297.1429443359375 353.6725158691406 329.4050598144531 327.5213623046875 C 327.68524169921875 452.8547058105469 313.633544921875 458.4500732421875 293.88616943359375 412.3315124511719" stroke-width="0.0" fill="rgb(96, 205, 20)" opacity="0.024408579" stroke="rgb(0, 0, 0)" stroke-opacity="1.0" stroke-linecap="round" stroke-linejoin="round"/>
    <path d="M 277.0056457519531 449.6670227050781 C 290.849365234375 445.50115966796875 272.6238098144531 432.9947509765625 282.818359375 525.751220703125 C 218.84654235839844 506.6314697265625 181.70120239257812 499.2622985839844 238.17295837402344 467.41278076171875 C 230.27853393554688 442.4839782714844 228.3108367919922 476.7058410644531 254.23876953125 468.174560546875 C 274.0697937011719 484.091064453125 275.1332702636719 465.26141357421875 277.0056457519531 449.6670227050781" stroke-width="0.0" fill="rgb(20, 170, 38)" opacity="1.0" stroke="rgb(0, 0, 0)" stroke-opacity="1.0" stroke-linecap="round" stroke-linejoin="round"/>
    <path d="M 292.3338623046875 323.3752136230469 C 323.39666748046875 305.24029541015625 287.66912841796875 296.8434753417969 297.6544189453125 313.3667297363281 C 288.7125549316406 292.81390380859375 329.9081115722656 302.4297180175781 311.9541931152344 308.8663024902344 C 279.0842590332031 322.89862060546875 263.075439453125 270.3363037109375 314.30975341796875 254.43157958984375 C 304.34539794921875 242.8295135498047 299.235595703125 321.884521484375 292.3338623046875 323.3752136230469" stroke-width="0.0" fill="rgb(131, 151, 31)" opacity="0.97717947" stroke="rgb(0, 0, 0)" stroke-opacity="1.0" stroke-linecap="round" stroke-linejoin="round"/>
    <path d="M 216.26202392578125 460.4792785644531 C 200.9291534423828 508.643310546875 201.67388916015625 545.648681640625 190.09185791015625 538.8736572265625 C 190.77037048339844 521.9652099609375 185.09869384765625 516.156005859375 181.09571838378906 505.8812561035156 C 217.97547912597656 495.1440124511719 211.87252807617188 471.2073974609375 192.0962371826172 464.1307067871094 C 208.52125549316406 497.7536926269531 218.74192810058594 491.3731384277344 216.26202392578125 460.4792785644531" stroke-width="0.0" fill="rgb(214, 254, 93)" opacity="0.8559623" stroke="rgb(0, 0, 0)" stroke-opacity="1.0" stroke-linecap="round" stroke-linejoin="round"/>
    <path d="M 237.8657989501953 399.1949157714844 C 263.36309814453125 394.9004211425781 248.30162048339844 381.30499267578125 262.3243408203125 435.6413269042969 C 234.1699981689453 450.5771789550781 246.58648681640625 419.4203186035156 247.65179443359375 430.2117919921875 C 265.33489990234375 314.3645935058594 256.081298828125 252.55599975585938 268.389404296875 381.8478698730469 C 250.77685546875 374.7723693847656 260.0906677246094 386.34747314453125 237.8657989501953 399.1949157714844" stroke-width="0.0" fill="rgb(215, 148, 0)" opacity="0.91005534" stroke="rgb(0, 0, 0)" stroke-opacity="1.0" stroke-linecap="round" stroke-linejoin="round"/>
    <path d="M 315.1397399902344 485.4451904296875 C 318.0159606933594 491.9530334472656 274.0130310058594 497.5360412597656 303.6970520019531 487.5302429199219 C 280.89398193359375 491.6354675292969 264.0303649902344 478.99951171875 262.9280700683594 481.417236328125 C 264.76202392578125 432.9922790527344 274.7926940917969 417.3822937011719 283.57928466796875 447.2993469238281 C 278.2407531738281 472.1531982421875 306.2431640625 476.11749267578125 315.1397399902344 485.4451904296875" stroke-width="0.0" fill="rgb(57, 35, 86)" opacity="0.937916" stroke="rgb(0, 0, 0)" stroke-opacity="1.0" stroke-linecap="round" stroke-linejoin="round"/>
    <path d="M 536.5798950195312 107.88829040527344 C 555.17431640625 126.02254486083984 553.9258422851562 148.34510803222656 506.4632568359375 150.2505340576172 C 467.1595458984375 107.75570678710938 446.4898986816406 98.94342803955078 441.6220397949219 86.95972442626953 C 479.42376708984375 98.80699157714844 472.7090759277344 96.91267395019531 490.0870361328125 79.85951232910156 C 501.9184265136719 74.2630615234375 507.1760559082031 73.72674560546875 536.5798950195312 107.88829040527344" stroke-width="0.0" fill="rgb(183, 228, 28)" opacity="0.9921833" stroke="rgb(0, 0, 0)" stroke-opacity="1.0" stroke-linecap="round" stroke-linejoin="round"/>
    <path d="M 325.59844970703125 177.3330078125 C 314.97088623046875 169.07290649414062 300.45562744140625 176.3760528564453 294.1261291503906 187.69166564941406 C 268.00750732421875 200.4857177734375 254.06956481933594 222.2286834716797 247.3351287841797 187.99786376953125 C 253.0824432373047 110.82553100585938 251.50457763671875 134.57431030273438 292.9547119140625 149.74778747558594 C 293.00390625 184.5315704345703 304.88360595703125 177.74319458007812 325.59844970703125 177.3330078125" stroke-width="0.0" fill="rgb(198, 173, 137)" opacity="0.15587355" stroke="rgb(0, 0, 0)" stroke-opacity="1.0" stroke-linecap="round" stroke-linejoin="round"/>
    <path d="M 236.3622283935547 379.96539306640625 C 238.15675354003906 376.97576904296875 245.55230712890625 441.94580078125 221.0713653564453 488.1258850097656 C 211.73268127441406 398.8313903808594 229.44461059570312 425.3247985839844 252.92144775390625 402.12872314453125 C 236.94895935058594 382.31964111328125 238.95567321777344 390.6826477050781 242.68011474609375 380.03668212890625 C 248.7625732421875 389.8652648925781 235.84039306640625 383.07183837890625 236.3622283935547 379.96539306640625" stroke-width="0.0" fill="rgb(66, 75, 146)" opacity="0.8790281" stroke="rgb(0, 0, 0)" stroke-opacity="1.0" stroke-linecap="round" stroke-linejoin="round"/>
    <path d="M 235.8287811279297 453.783935546875 C 235.83030700683594 498.6695556640625 241.32583618164062 496.49517822265625 244.6171112060547 493.1778564453125 C 183.47300720214844 503.5215148925781 166.61770629882812 495.3728332519531 217.92080688476562 473.76458740234375 C 229.21990966796875 482.78515625 207.281494140625 493.5397644042969 223.6973876953125 438.4262390136719 C 243.9380340576172 430.22601318359375 249.6313934326172 414.5482177734375 235.8287811279297 453.783935546875" stroke-width="0.0" fill="rgb(53, 47, 53)" opacity="0.7942017" stroke="rgb(0, 0, 0)" stroke-opacity="1.0" stroke-linecap="round" stroke-linejoin="round"/>
    <path d="M 542.6268310546875 479.8914489746094 C 519.0442504882812 515.8566284179688 510.5816650390625 522.5712280273438 484.6906433105469 532.0502319335938 C 465.0831604003906 531.114013671875 461.5205383300781 525.078125 474.0914001464844 539.4620971679688 C 481.2816162109375 515.8410034179688 489.0477600097656 486.18963623046875 470.0650634765625 471.4403076171875 C 500.0811767578125 467.54229736328125 537.5015258789062 474.7210998535156 542.6268310546875 479.8914489746094" stroke-width="0.0" fill="rgb(22, 190, 86)" opacity="0.92938507" stroke="rgb(0, 0, 0)" stroke-opacity="1.0" stroke-linecap="round" stroke-linejoin="round"/>
    <path d="M 287.1498718261719 289.0608825683594 C 240.96900939941406 302.9420166015625 181.56080627441406 288.8262023925781 270.1007385253906 289.0085144042969 C 235.00538635253906 270.6581115722656 215.95164489746094 293.16644287109375 228.4580535888672 258.12677001953125 C 235.48556518554688 252.70034790039062 222.29718017578125 285.3167419433594 210.31663513183594 245.6949462890625 C 252.78469848632812 280.00628662109375 283.7498474121094 269.8370666503906 287.1498718261719 289.0608825683594" stroke-width="0.0" fill="rgb(221, 76, 9)" opacity="0.9800306" stroke="rgb(0, 0, 0)" stroke-opacity="1.0" stroke-linecap="round" stroke-linejoin="round"/>
    <path d="M 295.9281921386719 304.4020080566406 C 301.02508544921875 342.616455078125 300.071044921875 318.9684143066406 259.5107116699219 333.0120849609375 C 206.0780029296875 316.22125244140625 215.7175750732422 323.458251953125 264.1055603027344 289.26141357421875 C 270.41943359375 290.3935546875 254.37176513671875 309.3683776855469 273.3460693359375 256.30914306640625 C 291.95318603515625 255.13108825683594 290.0565490722656 288.8668518066406 295.9281921386719 304.4020080566406" stroke-width="0.0" fill="rgb(144, 70, 25)" opacity="0.63905954" stroke="rgb(0, 0, 0)" stroke-opacity="1.0" stroke-linecap="round" stroke-linejoin="round"/>
    <path d="M 131.0707244873047 89.44264221191406 C 132.65798950195312 86.94561767578125 120.45829772949219 79.43763732910156 93.16423034667969 100.66911315917969 C 77.35073852539062 91.65266418457031 79.10526275634766 70.12493896484375 107.24172973632812 81.85269927978516 C 143.80604553222656 91.85857391357422 151.18972778320312 70.15058898925781 149.944580078125 77.98466491699219 C 137.46116638183594 80.23698425292969 149.94137573242188 82.68506622314453 131.0707244873047 89.44264221191406" stroke-width="0.0" fill="rgb(168, 235, 71)" opacity="0.050039627" stroke="rgb(0, 0, 0)" stroke-opacity="1.0" stroke-linecap="round" stroke-linejoin="round"/>
    <path d="M 216.72486877441406 87.67224884033203 C 210.56573486328125 38.03573989868164 192.66470336914062 86.31336212158203 210.47634887695312 95.72684478759766 C 209.61988830566406 78.22127532958984 198.79495239257812 77.72843170166016 196.42149353027344 42.04167175292969 C 213.56484985351562 62.46900177001953 203.84054565429688 74.42622375488281 186.70774841308594 82.75004577636719 C 179.52236938476562 75.01071166992188 188.1968231201172 81.52289581298828 216.72486877441406 87.67224884033203" stroke-width="0.0" fill="rgb(168, 236, 38)" opacity="0.98500055" stroke="rgb(0, 0, 0)" stroke-opacity="1.0" stroke-linecap="round" stroke-linejoin="round"/>
    <path d="M 235.1594696044922 227.04197692871094 C 237.35923767089844 245.26051330566406 213.91787719726562 254.73744201660156 177.5420379638672 263.3948059082031 C 193.2689666748047 236.26821899414062 210.2694549560547 246.63629150390625 186.052490234375 251.42416381835938 C 195.16615295410156 242.15545654296875 193.00106811523438 237.2620086669922 184.28753662109375 222.5911865234375 C 169.96644592285156 230.31675720214844 226.69277954101562 226.83380126953125 235.1594696044922 227.04197692871094" stroke-width="0.0" fill="rgb(49, 34, 75)" opacity="0.3358331" stroke="rgb(0, 0, 0)" stroke-opacity="1.0" stroke-linecap="round" stroke-linejoin="round"/>
    <path d="M 91.00629425048828 197.32919311523438 C 139.12252807617188 149.10598754882812 106.94676971435547 112.43898010253906 83.50916290283203 147.3520965576172 C 91.84716033935547 158.39857482910156 69.73065948486328 173.5430145263672 95.97222137451172 175.8874969482422 C 109.26200866699219 121.47943115234375 71.09790802001953 79.25560760498047 13.867891311645508 168.0901336669922 C 59.17008972167969 220.06065368652344 83.23738861083984 209.8302001953125 91.00629425048828 197.32919311523438" stroke-width="0.0" fill="rgb(186, 236, 0)" opacity="0.17042917" stroke="rgb(0, 0, 0)" stroke-opacity="1.0" stroke-linecap="round" stroke-linejoin="round"/>
    <path d="M 96.89421081542969 102.19496154785156 C 69.19393920898438 119.50593566894531 87.86415100097656 140.9265594482422 83.17211151123047 139.36351013183594 C 59.17079544067383 188.6953582763672 40.281394958496094 199.67318725585938 60.78486251831055 156.64895629882812 C 58.875328063964844 97.10287475585938 29.09526824951172 67.95386505126953 74.47552490234375 86.32965087890625 C 57.94978332519531 96.78280639648438 71.83539581298828 94.95204162597656 96.89421081542969 102.19496154785156" stroke-width="0.0" fill="rgb(198, 237, 0)" opacity="0.08981936" stroke="rgb(0, 0, 0)" stroke-opacity="1.0" stroke-linecap="round" stroke-linejoin="round"/>
    <path d="M 376.4499206542969 391.937744140625 C 409.1141662597656 428.22308349609375 407.04052734375 449.3143310546875 372.42657470703125 408.82757568359375 C 359.7105407714844 390.4944152832031 343.799072265625 380.0583190917969 323.8775634765625 345.3099670410156 C 301.4824523925781 336.95770263671875 321.89215087890625 350.036376953125 346.7698059082031 351.315673828125 C 342.22796630859375 352.12408447265625 363.4728698730469 369.8235168457031 376.4499206542969 391.937744140625" stroke-width="0.0" fill="rgb(181, 167, 194)" opacity="0.9688693" stroke="rgb(0, 0, 0)" stroke-opacity="1.0" stroke-linecap="round" stroke-linejoin="round"/>
    <path d="M 77.17220306396484 469.2415771484375 C 85.6899185180664 458.38873291015625 78.89352416992188 463.4307861328125 68.32490539550781 447.976318359375 C 83.7397232055664 451.4067687988281 68.13115692138672 450.5390930175781 60.235198974609375 460.5193786621094 C 56.851383209228516 451.4924621582031 74.17884063720703 452.34686279296875 83.58173370361328 446.32037353515625 C 81.30690002441406 441.21710205078125 79.27548217773438 464.1124267578125 77.17220306396484 469.2415771484375" stroke-width="0.0" fill="rgb(192, 230, 45)" opacity="0.034047384" stroke="rgb(0, 0, 0)" stroke-opacity="1.0" stroke-linecap="round" stroke-linejoin="round"/>
    <path d="M 468.881591796875 475.0234375 C 462.4456787109375 490.5084228515625 484.426025390625 511.26220703125 481.4231872558594 546.3045043945312 C 440.3946838378906 530.4821166992188 430.302001953125 513.4862670898438 433.44793701171875 506.5068359375 C 453.261474609375 480.7340393066406 464.3195495605469 480.1854248046875 454.62744140625 490.1820983886719 C 464.8532409667969 473.3147888183594 476.259765625 477.3214111328125 468.881591796875 475.0234375" stroke-width="0.0" fill="rgb(34, 175, 145)" opacity="0.06034253" stroke="rgb(0, 0, 0)" stroke-opacity="1.0" stroke-linecap="round" stroke-linejoin="round"/>
    <path d="M 147.17359924316406 21.391376495361328 C 139.85308837890625 42.76410675048828 124.37952423095703 44.66422653198242 127.5737533569336 52.362022399902344 C 130.22911071777344 55.14991760253906 122.52515411376953 34.0312385559082 106.98197174072266 3.114746570587158 C 116.95226287841797 -6.576656818389893 141.32366943359375 -7.212911128997803 119.50262451171875 19.4508113861084 C 146.51815795898438 9.010834693908691 145.77557373046875 22.040456771850586 147.17359924316406 21.391376495361328" stroke-width="0.0" fill="rgb(186, 235, 50)" opacity="0.07115614" stroke="rgb(0, 0, 0)" stroke-opacity="1.0" stroke-linecap="round" stroke-linejoin="round"/>
    <path d="M 192.02084350585938 312.8955383300781 C 185.5642547607422 331.2152099609375 175.1776123046875 353.8643798828125 170.73977661132812 396.8874816894531 C 162.27642822265625 384.5273742675781 167.03330993652344 365.4188537597656 174.15496826171875 330.13958740234375 C 149.20701599121094 320.6796875 167.22911071777344 313.0329895019531 203.47219848632812 309.3341064453125 C 184.64625549316406 330.8570251464844 187.61087036132812 332.23095703125 192.02084350585938 312.8955383300781" stroke-width="0.0" fill="rgb(220, 235, 74)" opacity="0.10428308" stroke="rgb(0, 0, 0)" stroke-opacity="1.0" stroke-linecap="round" stroke-linejoin="round"/>
    <path d="M 54.7227783203125 336.2796630859375 C 69.04731750488281 341.68707275390625 105.55363464355469 307.53985595703125 40.504947662353516 295.3991394042969 C 3.7785675525665283 343.4936218261719 11.901750564575195 333.4884033203125 13.355023384094238 313.6798095703125 C -2.5528273582458496 320.35626220703125 -4.792102336883545 302.07464599609375 22.76070785522461 281.4920349121094 C 45.30524826049805 300.16363525390625 41.99590301513672 315.3059997558594 54.7227783203125 336.2796630859375" stroke-width="0.0" fill="rgb(180, 242, 105)" opacity="0.0" stroke="rgb(0, 0, 0)" stroke-opacity="1.0" stroke-linecap="round" stroke-linejoin="round"/>
    <path d="M 431.97113037109375 455.98968505859375 C 434.2676696777344 463.1408386230469 429.1898498535156 465.8238830566406 420.931640625 455.07879638671875 C 411.8365783691406 443.9728698730469 389.0350341796875 440.3859558105469 401.2854919433594 429.4812316894531 C 373.2574157714844 419.7234802246094 386.0584411621094 412.1644287109375 403.1328125 425.20794677734375 C 401.0022888183594 430.1953430175781 415.1251220703125 434.1102294921875 431.97113037109375 455.98968505859375" stroke-width="0.0" fill="rgb(194, 181, 209)" opacity="0.7856294" stroke="rgb(0, 0, 0)" stroke-opacity="1.0" stroke-linecap="round" stroke-linejoin="round"/>
    <path d="M 126.96607971191406 363.4314880371094 C 135.9762420654297 366.99188232421875 118.81621551513672 338.5041809082031 101.94595336914062 352.01995849609375 C 104.3272705078125 354.5638122558594 97.4511489868164 341.06219482421875 106.78398132324219 384.5976867675781 C 142.43310546875 384.20513916015625 114.885986328125 368.1332092285156 105.93447875976562 329.1793518066406 C 62.49918746948242 324.5820007324219 91.37989807128906 331.89398193359375 126.96607971191406 363.4314880371094" stroke-width="0.0" fill="rgb(210, 255, 98)" opacity="0.0004045421" stroke="rgb(0, 0, 0)" stroke-opacity="1.0" stroke-linecap="round" stroke-linejoin="round"/>
    <path d="M 40.47034454345703 181.6488800048828 C 57.65018081665039 207.22067260742188 48.50539779663086 211.9102783203125 45.137290954589844 192.56246948242188 C 27.57853126525879 188.6953582763672 29.829811096191406 174.66726684570312 47.04177474975586 189.23489379882812 C -10.676230430603027 200.08126831054688 -8.228904724121094 172.7509765625 37.2297477722168 184.2630157470703 C 48.02757263183594 160.82688903808594 43.34333419799805 167.31732177734375 40.47034454345703 181.6488800048828" stroke-width="0.0" fill="rgb(187, 241, 46)" opacity="0.0" stroke="rgb(0, 0, 0)" stroke-opacity="1.0" stroke-linecap="round" stroke-linejoin="round"/>
    <path d="M 104.8568344116211 312.9739074707031 C 87.20872497558594 328.495849609375 114.78626251220703 339.5024108886719 118.25650024414062 337.0850524902344 C 121.85716247558594 337.9729309082031 106.80155944824219 338.22625732421875 114.9993667602539 304.3111572265625 C 96.11451721191406 321.0679016113281 115.00543212890625 327.3396301269531 111.20486450195312 326.7025451660156 C 109.1979751586914 343.5270080566406 120.59097290039062 348.1212158203125 104.8568344116211 312.9739074707031" stroke-width="0.0" fill="rgb(214, 237, 55)" opacity="0.03704502" stroke="rgb(0, 0, 0)" stroke-opacity="1.0" stroke-linecap="round" stroke-linejoin="round"/>
    <path d="M -3.3694612979888916 85.80778503417969 C 36.7220344543457 89.1716079711914 40.9925537109375 89.08147430419922 18.726320266723633 84.05774688720703 C 12.248322486877441 84.4344711303711 -4.001972675323486 72.67862701416016 60.37601089477539 80.84231567382812 C 70.85619354248047 44.84675979614258 40.5737419128418 49.82789993286133 -12.232501029968262 111.37014770507812 C 50.78142547607422 74.7304458618164 38.04356002807617 87.8678970336914 -3.3694612979888916 85.80778503417969" stroke-width="0.0" fill="rgb(195, 230, 11)" opacity="0.05373478" stroke="rgb(0, 0, 0)" stroke-opacity="1.0" stroke-linecap="round" stroke-linejoin="round"/>
    <path d="M 179.21524047851562 169.76161193847656 C 167.1112823486328 208.97647094726562 146.59605407714844 203.62310791015625 135.3420867919922 201.45950317382812 C 149.9589080810547 206.7810516357422 129.52357482910156 183.23712158203125 128.70379638671875 184.3871307373047 C 119.83863067626953 177.47950744628906 133.62753295898438 165.71800231933594 154.5565185546875 144.32192993164062 C 154.6604461669922 152.17921447753906 167.93035888671875 161.90078735351562 179.21524047851562 169.76161193847656" stroke-width="0.0" fill="rgb(140, 227, 53)" opacity="0.0" stroke="rgb(0, 0, 0)" stroke-opacity="1.0" stroke-linecap="round" stroke-linejoin="round"/>
    <path d="M 213.10821533203125 391.3341369628906 C 198.47024536132812 401.2446594238281 202.4881591796875 426.3288269042969 202.12435913085938 412.5079650878906 C 182.81895446777344 386.6308898925781 166.93124389648438 395.5754089355469 182.5873565673828 328.26531982421875 C 216.76708984375 343.1160888671875 189.73399353027344 361.74127197265625 187.62420654296875 334.1490783691406 C 207.8080596923828 365.4751892089844 240.38478088378906 383.2705383300781 213.10821533203125 391.3341369628906" stroke-width="0.0" fill="rgb(240, 255, 77)" opacity="0.13600716" stroke="rgb(0, 0, 0)" stroke-opacity="1.0" stroke-linecap="round" stroke-linejoin="round"/>
    <path d="M 123.4019546508789 52.1514892578125 C 83.02054595947266 29.554916381835938 72.47775268554688 65.32427978515625 40.470115661621094 75.23533630371094 C 90.7790756225586 70.52880859375 73.0511703491211 50.34371566772461 38.87440872192383 38.89100646972656 C 24.657194137573242 63.36976623535156 39.25682067871094 33.9941520690918 37.228668212890625 57.77210998535156 C 68.30366516113281 72.85136413574219 82.0844497680664 101.99778747558594 123.4019546508789 52.1514892578125" stroke-width="0.0" fill="rgb(208, 255, 51)" opacity="0.0015786788" stroke="rgb(0, 0, 0)" stroke-opacity="1.0" stroke-linecap="round" stroke-linejoin="round"/>
    <path d="M 66.03569030761719 185.16001892089844 C 39.440853118896484 174.13232421875 25.811119079589844 182.11863708496094 26.24893569946289 205.17031860351562 C 33.15436553955078 197.29595947265625 17.627696990966797 185.88235473632812 13.815729141235352 197.92640686035156 C 7.5385894775390625 161.35545349121094 0.8748440146446228 175.76585388183594 37.35919952392578 161.50408935546875 C 56.45820617675781 159.026611328125 94.8063735961914 186.61297607421875 66.03569030761719 185.16001892089844" stroke-width="0.0" fill="rgb(197, 243, 14)" opacity="0.110269934" stroke="rgb(0, 0, 0)" stroke-opacity="1.0" stroke-linecap="round" stroke-linejoin="round"/>
    <path d="M 306.1724548339844 332.1130676269531 C 343.3353576660156 355.4919738769531 313.32843017578125 355.9820861816406 306.59893798828125 377.0234680175781 C 329.12762451171875 363.27923583984375 316.9443664550781 356.23089599609375 307.5677490234375 347.1884460449219 C 294.553466796875 333.5950927734375 266.6374816894531 306.4238586425781 311.2524719238281 354.83795166015625 C 327.6053466796875 309.4151611328125 325.8303527832031 322.0767822265625 306.1724548339844 332.1130676269531" stroke-width="0.0" fill="rgb(131, 130, 83)" opacity="0.8848243" stroke="rgb(0, 0, 0)" stroke-opacity="1.0" stroke-linecap="round" stroke-linejoin="round"/>
    <path d="M 386.06329345703125 437.9710693359375 C 378.79754638671875 430.0862121582031 382.36688232421875 454.56201171875 385.6964416503906 463.5367126464844 C 345.5666809082031 468.3096008300781 329.9096984863281 460.1223449707031 330.8219909667969 439.1203918457031 C 321.9324645996094 422.4077453613281 312.4483947753906 432.24798583984375 338.0873718261719 442.4151306152344 C 364.5978698730469 416.3390197753906 385.52545166015625 414.2591857910156 386.06329345703125 437.9710693359375" stroke-width="0.0" fill="rgb(76, 231, 36)" opacity="0.0" stroke="rgb(0, 0, 0)" stroke-opacity="1.0" stroke-linecap="round" stroke-linejoin="round"/>
    <path d="M 332.2387390136719 441.5574951171875 C 348.0719909667969 406.7426452636719 353.4212951660156 436.0766296386719 342.8953552246094 435.09967041015625 C 309.8363037109375 445.0489807128906 319.7441101074219 446.02679443359375 311.60400390625 414.04705810546875 C 295.60693359375 421.7194519042969 322.1511535644531 432.8758544921875 334.81378173828125 443.4029541015625 C 318.64569091796875 436.14141845703125 352.0262145996094 439.1214904785156 332.2387390136719 441.5574951171875" stroke-width="0.0" fill="rgb(18, 198, 13)" opacity="0.02654333" stroke="rgb(0, 0, 0)" stroke-opacity="1.0" stroke-linecap="round" stroke-linejoin="round"/>
    <path d="M 486.9916076660156 232.320556640625 C 480.27960205078125 229.9492645263672 488.8719482421875 212.82196044921875 472.4145812988281 259.11407470703125 C 480.3091735839844 265.4801940917969 469.5749206542969 251.57046508789062 471.78790283203125 245.7020721435547 C 489.44146728515625 233.1290283203125 495.67230224609375 213.46385192871094 489.8194885253906 219.6638641357422 C 497.2049255371094 251.28732299804688 522.1638793945312 229.60362243652344 486.9916076660156 232.320556640625" stroke-width="0.0" fill="rgb(80, 195, 56)" opacity="0.008676775" stroke="rgb(0, 0, 0)" stroke-opacity="1.0" stroke-linecap="round" stroke-linejoin="round"/>
    <path d="M 425.1184997558594 154.18511962890625 C 462.0093078613281 149.79214477539062 455.6646728515625 147.74989318847656 430.8124084472656 172.79776000976562 C 420.13153076171875 192.9457244873047 391.5443115234375 179.97251892089844 392.15325927734375 128.83251953125 C 432.725341796875 164.6732635498047 433.1557922363281 163.5380401611328 436.08294677734375 131.53494262695312 C 440.0804138183594 140.14541625976562 438.4674377441406 138.58377075195312 425.1184997558594 154.18511962890625" stroke-width="0.0" fill="rgb(104, 200, 49)" opacity="0.0" stroke="rgb(0, 0, 0)" stroke-opacity="1.0" stroke-linecap="round" stroke-linejoin="round"/>
    <path d="M 418.31219482421875 274.5615234375 C 447.77398681640625 297.7019348144531 435.43121337890625 312.4394226074219 398.362060546875 307.6684875488281 C 383.5025329589844 312.2237854003906 400.36553955078125 332.6545104980469 397.0946044921875 297.3832092285156 C 413.3456726074219 312.51470947265625 427.4493408203125 282.85150146484375 444.95440673828125 250.242919921875 C 418.0135803222656 261.3415832519531 403.9187316894531 269.2620544433594 418.31219482421875 274.5615234375" stroke-width="0.0" fill="rgb(85, 183, 48)" opacity="0.0" stroke="rgb(0, 0, 0)" stroke-opacity="1.0" stroke-linecap="round" stroke-linejoin="round"/>
    <path d="M 409.5986633300781 66.46479034423828 C 423.5272216796875 89.828857421875 406.54193115234375 78.04164123535156 389.203857421875 48.905433654785156 C 415.711181640625 43.56160354614258 403.0564880371094 54.7298469543457 439.3130798339844 60.85211181640625 C 407.1320495605469 55.343116760253906 418.4715270996094 57.346168518066406 411.6373596191406 77.13438415527344 C 436.6228332519531 62.35940170288086 415.50390625 62.02528762817383 409.5986633300781 66.46479034423828" stroke-width="0.0" fill="rgb(97, 202, 7)" opacity="0.0" stroke="rgb(0, 0, 0)" stroke-opacity="1.0" stroke-linecap="round" stroke-linejoin="round"/>
    <path d="M 414.7268371582031 432.4444580078125 C 390.0858154296875 445.22540283203125 386.2637023925781 459.5530700683594 401.0693664550781 465.15130615234375 C 378.3633728027344 460.4798278808594 365.11224365234375 457.8759765625 350.9770202636719 449.28411865234375 C 367.7449035644531 446.3908996582031 377.88739013671875 436.55096435546875 388.3352966308594 426.92230224609375 C 405.78887939453125 420.56768798828125 422.6152648925781 420.46820068359375 414.7268371582031 432.4444580078125" stroke-width="0.0" fill="rgb(98, 159, 71)" opacity="0.033553634" stroke="rgb(0, 0, 0)" stroke-opacity="1.0" stroke-linecap="round" stroke-linejoin="round"/>
    <path d="M 55.710113525390625 98.73721313476562 C 71.67754364013672 137.21376037597656 83.00350952148438 147.9841766357422 47.90488815307617 117.10916137695312 C -2.560438871383667 127.8978500366211 -8.341794967651367 103.4990005493164 -10.867780685424805 125.88764190673828 C -23.417455673217773 75.03289794921875 -31.9095516204834 6.875535011291504 16.70305061340332 -18.53681755065918 C 79.45515441894531 9.372350692749023 53.86262512207031 52.846736907958984 55.710113525390625 98.73721313476562" stroke-width="0.0" fill="rgb(226, 223, 0)" opacity="0.17139666" stroke="rgb(0, 0, 0)" stroke-opacity="1.0" stroke-linecap="round" stroke-linejoin="round"/>
    <path d="M 202.53570556640625 388.3943786621094 C 223.38226318359375 445.220947265625 221.15914916992188 457.23797607421875 212.421630859375 449.7591552734375 C 179.27621459960938 430.6751708984375 166.023193359375 432.2200012207031 175.8542938232422 409.46575927734375 C 162.5628662109375 412.96417236328125 179.0115509033203 404.6960754394531 171.24932861328125 392.641845703125 C 202.48583984375 380.73040771484375 209.59661865234375 370.4628601074219 202.53570556640625 388.3943786621094" stroke-width="0.0" fill="rgb(215, 227, 79)" opacity="0.03396162" stroke="rgb(0, 0, 0)" stroke-opacity="1.0" stroke-linecap="round" stroke-linejoin="round"/>
    <path d="M 315.94647216796875 183.9779510498047 C 304.16632080078125 162.0159149169922 323.2449035644531 149.0388641357422 313.477783203125 140.2344970703125 C 318.1365966796875 167.9033966064453 321.4874572753906 157.3306884765625 318.4149169921875 168.9881591796875 C 328.3067626953125 185.98681640625 326.34356689453125 158.72286987304688 333.6689147949219 157.44891357421875 C 334.725830078125 168.2807159423828 337.8259582519531 179.31475830078125 315.94647216796875 183.9779510498047" stroke-width="0.0" fill="rgb(248, 128, 230)" opacity="0.01007934" stroke="rgb(0, 0, 0)" stroke-opacity="1.0" stroke-linecap="round" stroke-linejoin="round"/>
  </g>
</svg>
