<?xml version="1.0" ?>
<svg xmlns="http://www.w3.org/2000/svg" version="1.1" width="512" height="512">
  <defs/>
  <g>
    <path d="M 575.0829467773438 381.55450439453125 C 547.165283203125 516.641845703125 548.8319091796875 525.4011840820312 418.56085205078125 539.2700805664062 C 332.9070739746094 543.4480590820312 262.5549621582031 518.3870849609375 329.5274963378906 432.5697937011719 C 266.55523681640625 305.3085632324219 262.4785461425781 285.7901306152344 453.1991882324219 242.90257263183594 C 595.9635620117188 286.49249267578125 593.9666748046875 291.0311584472656 575.0829467773438 381.55450439453125" stroke-width="0.0" fill="rgb(34, 26, 184)" opacity="0.8971767" stroke="rgb(0, 0, 0)" stroke-opacity="1.0" stroke-linecap="round" stroke-linejoin="round"/>
    <path d="M 296.19305419921875 389.90838623046875 C 371.24700927734375 504.1000061035156 354.0411376953125 535.6758422851562 265.3070373535156 539.5353393554688 C -57.79176330566406 525.7081298828125 -57.79457473754883 518.3362426757812 -50.054534912109375 476.1175842285156 C -21.45261001586914 208.513671875 -5.481344699859619 221.479248046875 70.63198852539062 141.42880249023438 C 124.42749786376953 311.446533203125 163.22886657714844 295.3355712890625 296.19305419921875 389.90838623046875" stroke-width="0.0" fill="rgb(37, 48, 184)" opacity="1.0" stroke="rgb(0, 0, 0)" stroke-opacity="1.0" stroke-linecap="round" stroke-linejoin="round"/>
    <path d="M 302.5061950683594 188.11044311523438 C 307.3494567871094 367.76953125 289.74334716796875 371.2677307128906 205.36288452148438 352.1551513671875 C 68.6722640991211 494.22027587890625 43.52312469482422 430.459716796875 -31.323619842529297 160.8376007080078 C 7.392140865325928 146.54469299316406 20.689050674438477 166.9092559814453 113.00519561767578 210.8512420654297 C 160.88381958007812 223.28639221191406 183.5679931640625 212.1181640625 302.5061950683594 188.11044311523438" stroke-width="0.0" fill="rgb(37, 49, 180)" opacity="0.9742877" stroke="rgb(0, 0, 0)" stroke-opacity="1.0" stroke-linecap="round" stroke-linejoin="round"/>
    <path d="M 269.0259094238281 21.05013656616211 C 255.2127685546875 286.53240966796875 101.11140441894531 169.92112731933594 43.062286376953125 196.76551818847656 C 10.206080436706543 140.6046142578125 -20.61455726623535 185.53591918945312 -46.249473571777344 145.7620391845703 C -16.39366340637207 -18.030452728271484 -10.150599479675293 -23.750812530517578 66.28620910644531 -47.378746032714844 C 236.66941833496094 -61.85084915161133 259.9435119628906 -71.41206359863281 269.0259094238281 21.05013656616211" stroke-width="0.0" fill="rgb(45, 47, 170)" opacity="0.9312327" stroke="rgb(0, 0, 0)" stroke-opacity="1.0" stroke-linecap="round" stroke-linejoin="round"/>
    <path d="M 496.6988525390625 91.73654174804688 C 423.39678955078125 280.25555419921875 390.3360290527344 235.39036560058594 355.0430908203125 305.9032287597656 C 285.2313537597656 291.5862731933594 280.51141357421875 316.15576171875 259.65087890625 155.15618896484375 C 242.4790802001953 47.6904182434082 205.35472106933594 6.2838053703308105 361.1799011230469 -40.879180908203125 C 605.3618774414062 -3.04734468460083 579.529296875 47.54397201538086 496.6988525390625 91.73654174804688" stroke-width="0.0" fill="rgb(233, 130, 0)" opacity="0.9632457" stroke="rgb(0, 0, 0)" stroke-opacity="1.0" stroke-linecap="round" stroke-linejoin="round"/>
    <path d="M 272.2579345703125 61.53461837768555 C 209.22723388671875 198.77740478515625 390.28228759765625 194.36293029785156 197.71803283691406 305.2497253417969 C 142.3236541748047 160.85292053222656 125.11244201660156 157.30734252929688 99.41952514648438 116.94277954101562 C 83.53642272949219 119.36066436767578 93.090087890625 111.87787628173828 303.49810791015625 -43.25068283081055 C 468.52685546875 73.31201934814453 324.0767822265625 -34.70660400390625 272.2579345703125 61.53461837768555" stroke-width="0.0" fill="rgb(57, 33, 199)" opacity="0.9967021" stroke="rgb(0, 0, 0)" stroke-opacity="1.0" stroke-linecap="round" stroke-linejoin="round"/>
    <path d="M 558.6465454101562 149.15638732910156 C 603.7611694335938 276.2883605957031 574.9733276367188 321.5499572753906 496.9405517578125 295.6108093261719 C 400.48223876953125 266.35394287109375 386.7718200683594 265.1330261230469 413.1227111816406 189.2808837890625 C 433.40155029296875 126.26924896240234 368.902587890625 79.98226928710938 460.76751708984375 16.136938095092773 C 560.521728515625 22.227752685546875 529.5746459960938 84.18535614013672 558.6465454101562 149.15638732910156" stroke-width="0.0" fill="rgb(78, 44, 193)" opacity="0.99920774" stroke="rgb(0, 0, 0)" stroke-opacity="1.0" stroke-linecap="round" stroke-linejoin="round"/>
    <path d="M 321.404541015625 221.3095245361328 C 332.9132080078125 289.88897705078125 311.79974365234375 302.90924072265625 292.01806640625 301.48236083984375 C 303.68414306640625 294.1577453613281 254.6130828857422 290.459716796875 182.15884399414062 291.4571838378906 C 278.33477783203125 250.67184448242188 269.0689697265625 232.29518127441406 301.35284423828125 192.352294921875 C 361.9887390136719 111.031005859375 355.030517578125 166.56866455078125 321.404541015625 221.3095245361328" stroke-width="0.0" fill="rgb(71, 59, 254)" opacity="0.91149485" stroke="rgb(0, 0, 0)" stroke-opacity="1.0" stroke-linecap="round" stroke-linejoin="round"/>
    <path d="M 420.7793884277344 199.1679229736328 C 397.5114440917969 256.7679748535156 525.7925415039062 232.93588256835938 339.6882629394531 280.7776794433594 C 313.0877380371094 213.5745086669922 345.5511474609375 233.54556274414062 287.28765869140625 215.6108856201172 C 233.1240234375 -22.853313446044922 324.93157958984375 98.10028839111328 316.7125549316406 139.9373016357422 C 403.6744384765625 134.65927124023438 406.94830322265625 155.947265625 420.7793884277344 199.1679229736328" stroke-width="0.0" fill="rgb(232, 159, 41)" opacity="0.9690285" stroke="rgb(0, 0, 0)" stroke-opacity="1.0" stroke-linecap="round" stroke-linejoin="round"/>
    <path d="M 229.08560180664062 264.1945495605469 C 348.83685302734375 290.0190734863281 255.42550659179688 275.1214294433594 211.12608337402344 330.80206298828125 C 103.2281723022461 370.19061279296875 155.31256103515625 236.08486938476562 182.54013061523438 265.05560302734375 C 65.78236389160156 202.0223846435547 -4.061818599700928 178.08021545410156 226.95138549804688 194.4521026611328 C 261.05322265625 164.69338989257812 255.33555603027344 241.86355590820312 229.08560180664062 264.1945495605469" stroke-width="0.0" fill="rgb(64, 54, 169)" opacity="0.5052928" stroke="rgb(0, 0, 0)" stroke-opacity="1.0" stroke-linecap="round" stroke-linejoin="round"/>
    <path d="M 415.68048095703125 251.14463806152344 C 472.18408203125 222.29904174804688 436.1963195800781 281.5162048339844 388.2412109375 267.29998779296875 C 374.75054931640625 282.90155029296875 354.9801940917969 331.3358459472656 363.3746032714844 228.5719451904297 C 435.1213073730469 262.409912109375 413.28021240234375 263.34271240234375 410.6809997558594 274.6355895996094 C 397.67144775390625 250.533447265625 460.2118835449219 277.91729736328125 415.68048095703125 251.14463806152344" stroke-width="0.0" fill="rgb(16, 39, 81)" opacity="0.9768874" stroke="rgb(0, 0, 0)" stroke-opacity="1.0" stroke-linecap="round" stroke-linejoin="round"/>
    <path d="M 335.6127624511719 388.4638977050781 C 136.06092834472656 318.1942138671875 239.67405700683594 393.5721740722656 162.78936767578125 445.8987121582031 C 157.55764770507812 425.4461364746094 145.8238067626953 415.9752197265625 146.5861358642578 375.7149353027344 C 156.91912841796875 355.4848327636719 181.8182373046875 389.1706237792969 205.44371032714844 380.8184509277344 C 228.91012573242188 355.5730895996094 158.08900451660156 387.6533508300781 335.6127624511719 388.4638977050781" stroke-width="0.0" fill="rgb(59, 54, 119)" opacity="0.5778476" stroke="rgb(0, 0, 0)" stroke-opacity="1.0" stroke-linecap="round" stroke-linejoin="round"/>
    <path d="M 548.0931396484375 39.73167037963867 C 520.1361083984375 71.34281921386719 502.33721923828125 67.27689361572266 486.6950988769531 92.59707641601562 C 436.5242614746094 26.631471633911133 412.3763427734375 91.18511962890625 408.3709716796875 66.62239837646484 C 423.4323425292969 -7.339471340179443 329.94464111328125 130.98529052734375 348.7946472167969 -7.797936916351318 C 517.5903930664062 -47.727176666259766 528.4946899414062 -16.225982666015625 548.0931396484375 39.73167037963867" stroke-width="0.0" fill="rgb(91, 36, 196)" opacity="0.99919325" stroke="rgb(0, 0, 0)" stroke-opacity="1.0" stroke-linecap="round" stroke-linejoin="round"/>
    <path d="M 414.4331970214844 127.76264190673828 C 411.73687744140625 205.56121826171875 455.57012939453125 142.60491943359375 387.4801940917969 124.22909545898438 C 351.9064025878906 103.69312286376953 393.401611328125 97.06330108642578 394.3592224121094 111.23607635498047 C 375.6938171386719 106.30487060546875 393.83758544921875 55.96383285522461 401.1820373535156 59.625953674316406 C 397.7109069824219 45.28864669799805 423.0013732910156 43.431339263916016 414.4331970214844 127.76264190673828" stroke-width="0.0" fill="rgb(229, 154, 75)" opacity="0.90298045" stroke="rgb(0, 0, 0)" stroke-opacity="1.0" stroke-linecap="round" stroke-linejoin="round"/>
    <path d="M 258.4130859375 290.2619323730469 C 241.58590698242188 306.02008056640625 215.87039184570312 304.4501647949219 217.23068237304688 303.6949768066406 C 180.27540588378906 309.4292297363281 162.6971435546875 376.9247131347656 92.64250183105469 198.10401916503906 C 50.20578384399414 209.5033721923828 102.41837310791016 193.4693603515625 185.49644470214844 192.7837677001953 C 245.00930786132812 220.7528076171875 263.8525390625 275.8662109375 258.4130859375 290.2619323730469" stroke-width="0.0" fill="rgb(245, 84, 25)" opacity="0.914003" stroke="rgb(0, 0, 0)" stroke-opacity="1.0" stroke-linecap="round" stroke-linejoin="round"/>
    <path d="M 407.3692321777344 421.73114013671875 C 431.8780822753906 480.4839172363281 350.73101806640625 509.3652648925781 298.41552734375 442.1764831542969 C 261.3509216308594 245.53518676757812 325.0523681640625 467.3906555175781 412.9479064941406 448.6385192871094 C 355.0073547363281 421.7080078125 314.8250427246094 489.9674987792969 306.2617492675781 343.16455078125 C 392.2622985839844 453.19573974609375 364.0704040527344 401.5385437011719 407.3692321777344 421.73114013671875" stroke-width="0.0" fill="rgb(30, 31, 33)" opacity="0.9856999" stroke="rgb(0, 0, 0)" stroke-opacity="1.0" stroke-linecap="round" stroke-linejoin="round"/>
    <path d="M 355.21807861328125 111.42688751220703 C 357.1741943359375 101.32384490966797 357.27325439453125 110.47666931152344 320.2518005371094 117.72479248046875 C 337.61456298828125 128.59841918945312 301.0513000488281 65.26140594482422 277.7494812011719 46.52467346191406 C 251.7298126220703 8.660002708435059 252.96548461914062 -45.0211296081543 406.5 44.54151153564453 C 355.735107421875 100.4156723022461 363.0264892578125 108.70796966552734 355.21807861328125 111.42688751220703" stroke-width="0.0" fill="rgb(53, 29, 207)" opacity="1.0" stroke="rgb(0, 0, 0)" stroke-opacity="1.0" stroke-linecap="round" stroke-linejoin="round"/>
    <path d="M 350.7921142578125 304.8458251953125 C 146.75440979003906 242.05081176757812 152.2935028076172 366.6344299316406 223.2234649658203 378.8116149902344 C 224.3704376220703 395.8218078613281 300.8587646484375 411.3579406738281 269.4010314941406 380.9398193359375 C 266.53607177734375 406.181640625 310.14312744140625 411.4298400878906 301.38433837890625 388.0849304199219 C 307.26397705078125 403.27703857421875 357.3713684082031 489.9108581542969 350.7921142578125 304.8458251953125" stroke-width="0.0" fill="rgb(233, 115, 0)" opacity="1.0" stroke="rgb(0, 0, 0)" stroke-opacity="1.0" stroke-linecap="round" stroke-linejoin="round"/>
    <path d="M 372.8614196777344 185.49583435058594 C 319.1513366699219 174.27735900878906 306.7392883300781 177.66310119628906 393.11199951171875 218.0988006591797 C 392.379150390625 245.0946044921875 359.00018310546875 174.0690460205078 344.1854553222656 161.78128051757812 C 348.0934143066406 215.42425537109375 372.2896728515625 194.17733764648438 363.3821716308594 185.94581604003906 C 345.3168029785156 185.5894317626953 356.5144958496094 193.85389709472656 372.8614196777344 185.49583435058594" stroke-width="0.0" fill="rgb(63, 73, 140)" opacity="0.7737434" stroke="rgb(0, 0, 0)" stroke-opacity="1.0" stroke-linecap="round" stroke-linejoin="round"/>
    <path d="M 196.5130157470703 298.3160400390625 C 150.36761474609375 452.5823974609375 142.98146057128906 295.2925720214844 145.68296813964844 313.1092224121094 C 110.33670043945312 294.6437072753906 92.95313262939453 260.9086608886719 97.00140380859375 254.0075225830078 C 43.38127136230469 157.6365966796875 78.36376190185547 143.28363037109375 94.81914520263672 151.6384735107422 C 118.2191390991211 221.94793701171875 105.40982055664062 249.14935302734375 196.5130157470703 298.3160400390625" stroke-width="0.0" fill="rgb(61, 57, 204)" opacity="0.9363762" stroke="rgb(0, 0, 0)" stroke-opacity="1.0" stroke-linecap="round" stroke-linejoin="round"/>
    <path d="M 275.9053649902344 213.63856506347656 C 293.7774353027344 232.4026336669922 308.10040283203125 237.0504608154297 277.6202697753906 263.627197265625 C 219.4514617919922 244.95266723632812 232.99029541015625 240.0342254638672 258.3663024902344 208.7548370361328 C 274.5139465332031 190.45681762695312 273.88421630859375 123.28514862060547 243.60719299316406 133.36289978027344 C 266.09716796875 167.58035278320312 284.6678771972656 189.45042419433594 275.9053649902344 213.63856506347656" stroke-width="0.0" fill="rgb(55, 32, 220)" opacity="0.7042519" stroke="rgb(0, 0, 0)" stroke-opacity="1.0" stroke-linecap="round" stroke-linejoin="round"/>
    <path d="M 197.64801025390625 335.83770751953125 C 174.9334716796875 424.8923645019531 198.70999145507812 415.3512878417969 106.84394073486328 437.7843322753906 C 37.578636169433594 371.75946044921875 28.537195205688477 358.1026916503906 -12.225846290588379 327.8091735839844 C 39.589595794677734 282.2048034667969 53.35490798950195 260.2678527832031 108.54840087890625 195.65908813476562 C 102.15423583984375 261.5995788574219 126.32426452636719 280.4659118652344 197.64801025390625 335.83770751953125" stroke-width="0.0" fill="rgb(26, 59, 188)" opacity="0.67253315" stroke="rgb(0, 0, 0)" stroke-opacity="1.0" stroke-linecap="round" stroke-linejoin="round"/>
    <path d="M 305.7705993652344 289.519287109375 C 267.8135986328125 359.5947265625 279.7499084472656 303.8604431152344 249.84829711914062 294.7790222167969 C 260.7850341796875 294.7872314453125 247.18246459960938 245.53343200683594 253.08822631835938 224.06373596191406 C 264.5428771972656 235.33204650878906 276.60906982421875 245.27536010742188 283.2917785644531 241.80845642089844 C 288.33251953125 217.0908966064453 275.404052734375 219.48265075683594 305.7705993652344 289.519287109375" stroke-width="0.0" fill="rgb(53, 42, 206)" opacity="0.8635427" stroke="rgb(0, 0, 0)" stroke-opacity="1.0" stroke-linecap="round" stroke-linejoin="round"/>
    <path d="M 290.949462890625 221.9204864501953 C 279.373779296875 203.24517822265625 288.00286865234375 256.7234191894531 277.0357360839844 269.93865966796875 C 234.79209899902344 275.2873229980469 231.01553344726562 278.9728698730469 237.84132385253906 195.90980529785156 C 260.77239990234375 195.2351531982422 247.4035186767578 199.64002990722656 284.931396484375 194.0206756591797 C 276.60614013671875 184.1397247314453 263.7312927246094 208.3675079345703 290.949462890625 221.9204864501953" stroke-width="0.0" fill="rgb(44, 33, 224)" opacity="0.27488756" stroke="rgb(0, 0, 0)" stroke-opacity="1.0" stroke-linecap="round" stroke-linejoin="round"/>
    <path d="M 324.6235656738281 405.1545715332031 C 285.45416259765625 377.8022155761719 292.0669860839844 396.82818603515625 288.93914794921875 398.5231628417969 C 292.89312744140625 385.5771484375 332.1964111328125 388.3154602050781 335.602294921875 417.3302001953125 C 334.34954833984375 445.3758850097656 389.9117431640625 455.2748718261719 358.9665222167969 435.3267517089844 C 312.5222473144531 420.8780517578125 318.2856750488281 435.2603759765625 324.6235656738281 405.1545715332031" stroke-width="0.0" fill="rgb(146, 73, 129)" opacity="0.38921773" stroke="rgb(0, 0, 0)" stroke-opacity="1.0" stroke-linecap="round" stroke-linejoin="round"/>
    <path d="M 321.4456481933594 167.5713653564453 C 292.63372802734375 163.07313537597656 302.755126953125 168.94480895996094 338.59521484375 206.81878662109375 C 274.8466796875 208.42514038085938 285.19970703125 189.76344299316406 300.2751159667969 214.24525451660156 C 234.02713012695312 203.34967041015625 257.4362487792969 214.7013397216797 279.25372314453125 161.92855834960938 C 291.8808898925781 149.41432189941406 322.0584716796875 164.22279357910156 321.4456481933594 167.5713653564453" stroke-width="0.0" fill="rgb(243, 134, 17)" opacity="0.953527" stroke="rgb(0, 0, 0)" stroke-opacity="1.0" stroke-linecap="round" stroke-linejoin="round"/>
    <path d="M 377.3528747558594 262.90625 C 408.3385314941406 278.7799377441406 412.9854431152344 352.1557312011719 361.2336120605469 370.29583740234375 C 296.9828186035156 296.0212707519531 287.64068603515625 328.4139404296875 314.63433837890625 271.9566345214844 C 323.88763427734375 243.90438842773438 316.2433776855469 232.83035278320312 312.5777587890625 215.3549041748047 C 332.76409912109375 257.2508850097656 331.7951354980469 285.0225524902344 377.3528747558594 262.90625" stroke-width="0.0" fill="rgb(242, 102, 41)" opacity="0.9264133" stroke="rgb(0, 0, 0)" stroke-opacity="1.0" stroke-linecap="round" stroke-linejoin="round"/>
    <path d="M 195.42117309570312 350.186767578125 C 169.23109436035156 378.5632019042969 186.1907196044922 404.2936706542969 175.2559051513672 397.2374572753906 C 144.11306762695312 396.097900390625 154.65533447265625 405.09716796875 151.51480102539062 401.63885498046875 C 154.07598876953125 364.9762878417969 169.784423828125 339.8235168457031 200.5685272216797 321.1539001464844 C 185.72752380371094 357.73223876953125 196.42233276367188 367.5696716308594 195.42117309570312 350.186767578125" stroke-width="0.0" fill="rgb(66, 72, 104)" opacity="0.5970235" stroke="rgb(0, 0, 0)" stroke-opacity="1.0" stroke-linecap="round" stroke-linejoin="round"/>
    <path d="M 214.54791259765625 275.08807373046875 C 204.17262268066406 289.8978576660156 194.61734008789062 291.2606506347656 172.99574279785156 272.9193115234375 C 157.77462768554688 277.38568115234375 175.77667236328125 262.45050048828125 153.11422729492188 255.01800537109375 C 171.23764038085938 287.5060729980469 155.7112274169922 244.9706268310547 170.19000244140625 234.56561279296875 C 185.2817840576172 249.70550537109375 203.71958923339844 248.47412109375 214.54791259765625 275.08807373046875" stroke-width="0.0" fill="rgb(246, 73, 43)" opacity="0.2853505" stroke="rgb(0, 0, 0)" stroke-opacity="1.0" stroke-linecap="round" stroke-linejoin="round"/>
    <path d="M 371.19073486328125 231.14341735839844 C 387.0833435058594 251.87005615234375 393.908935546875 298.8636779785156 383.32861328125 309.3926086425781 C 342.28948974609375 256.4818420410156 326.6060485839844 293.7977600097656 322.67022705078125 244.5913848876953 C 281.8511657714844 220.2067108154297 241.0801544189453 206.6728057861328 331.5939636230469 206.03775024414062 C 389.62664794921875 222.7296905517578 379.016357421875 226.6626434326172 371.19073486328125 231.14341735839844" stroke-width="0.0" fill="rgb(254, 255, 249)" opacity="0.96521777" stroke="rgb(0, 0, 0)" stroke-opacity="1.0" stroke-linecap="round" stroke-linejoin="round"/>
    <path d="M 136.38412475585938 446.6294250488281 C 143.6066131591797 443.24920654296875 130.41751098632812 444.5335693359375 133.27896118164062 435.7862548828125 C 146.35662841796875 441.7337646484375 150.790771484375 448.4238586425781 144.03591918945312 421.6555480957031 C 156.39830017089844 409.27044677734375 148.19186401367188 392.35675048828125 162.82452392578125 394.20904541015625 C 148.92819213867188 414.0987854003906 135.8815155029297 442.6309814453125 136.38412475585938 446.6294250488281" stroke-width="0.0" fill="rgb(67, 95, 123)" opacity="0.5256179" stroke="rgb(0, 0, 0)" stroke-opacity="1.0" stroke-linecap="round" stroke-linejoin="round"/>
    <path d="M 391.8146667480469 345.4519348144531 C 378.9770812988281 408.44818115234375 374.2962646484375 436.5431213378906 358.74835205078125 425.4159851074219 C 328.406005859375 443.91900634765625 334.4659118652344 431.74664306640625 329.08111572265625 394.83026123046875 C 325.514892578125 358.12347412109375 321.1648864746094 348.22344970703125 320.0716552734375 344.8470458984375 C 348.4333190917969 341.70367431640625 352.7706604003906 367.0837097167969 391.8146667480469 345.4519348144531" stroke-width="0.0" fill="rgb(46, 21, 31)" opacity="0.8744349" stroke="rgb(0, 0, 0)" stroke-opacity="1.0" stroke-linecap="round" stroke-linejoin="round"/>
    <path d="M 193.06356811523438 429.777099609375 C 194.0167694091797 431.6018981933594 151.32952880859375 418.1381530761719 131.9546661376953 424.4432373046875 C 192.2987823486328 442.7480163574219 187.4739990234375 450.0736999511719 171.79188537597656 452.5970764160156 C 183.0509796142578 412.5243225097656 184.35496520996094 409.37274169921875 207.2733154296875 430.9768371582031 C 194.840087890625 456.06292724609375 175.02735900878906 439.33221435546875 193.06356811523438 429.777099609375" stroke-width="0.0" fill="rgb(59, 51, 248)" opacity="0.0" stroke="rgb(0, 0, 0)" stroke-opacity="1.0" stroke-linecap="round" stroke-linejoin="round"/>
    <path d="M 147.3193817138672 473.4517822265625 C 114.71868133544922 452.98614501953125 126.65093231201172 464.3812561035156 112.17047119140625 406.68463134765625 C 149.5019989013672 407.7216491699219 128.01170349121094 379.32794189453125 197.6651611328125 386.38458251953125 C 143.6931915283203 382.7643127441406 168.77830505371094 359.4461975097656 255.78623962402344 367.34210205078125 C 211.13409423828125 455.0727233886719 209.07574462890625 468.38885498046875 147.3193817138672 473.4517822265625" stroke-width="0.0" fill="rgb(61, 43, 229)" opacity="0.1750298" stroke="rgb(0, 0, 0)" stroke-opacity="1.0" stroke-linecap="round" stroke-linejoin="round"/>
    <path d="M 232.84144592285156 240.51087951660156 C 209.8119354248047 242.94818115234375 199.0882110595703 249.44322204589844 189.4886932373047 243.87078857421875 C 147.33851623535156 258.21771240234375 190.4686737060547 275.0869445800781 185.16380310058594 259.9683532714844 C 187.821044921875 257.553466796875 193.77740478515625 249.15139770507812 187.36192321777344 223.3246307373047 C 199.36654663085938 222.68426513671875 212.28225708007812 228.9908447265625 232.84144592285156 240.51087951660156" stroke-width="0.0" fill="rgb(255, 7, 196)" opacity="0.035531517" stroke="rgb(0, 0, 0)" stroke-opacity="1.0" stroke-linecap="round" stroke-linejoin="round"/>
    <path d="M 300.4230041503906 222.8565216064453 C 307.3605041503906 275.1896667480469 300.6380920410156 308.68731689453125 295.5592041015625 267.6695556640625 C 276.5948181152344 246.47645568847656 263.669677734375 256.5222473144531 266.42706298828125 241.725830078125 C 272.3194580078125 228.68392944335938 264.98577880859375 230.7953643798828 289.1969909667969 253.7570037841797 C 278.04058837890625 226.5335693359375 290.9762268066406 240.5364990234375 300.4230041503906 222.8565216064453" stroke-width="0.0" fill="rgb(27, 2, 236)" opacity="0.22924733" stroke="rgb(0, 0, 0)" stroke-opacity="1.0" stroke-linecap="round" stroke-linejoin="round"/>
    <path d="M 194.3639373779297 318.85504150390625 C 177.01483154296875 328.9642639160156 171.07269287109375 347.80670166015625 172.5556640625 373.05963134765625 C 164.07655334472656 396.6020812988281 177.98077392578125 367.4498596191406 175.75425720214844 359.5654602050781 C 176.6352996826172 353.68792724609375 182.4641571044922 330.2917175292969 194.1277313232422 345.2210693359375 C 199.8183135986328 356.90228271484375 195.27157592773438 335.21527099609375 194.3639373779297 318.85504150390625" stroke-width="0.0" fill="rgb(194, 114, 43)" opacity="0.039938644" stroke="rgb(0, 0, 0)" stroke-opacity="1.0" stroke-linecap="round" stroke-linejoin="round"/>
    <path d="M 82.53580474853516 448.1233215332031 C 89.4878921508789 451.6489562988281 74.4882583618164 463.9409484863281 60.16693878173828 476.5989990234375 C 72.9382095336914 459.9442443847656 72.14025115966797 430.9344482421875 67.26478576660156 473.22662353515625 C 50.73286437988281 460.96295166015625 50.530189514160156 428.8255615234375 62.60397720336914 447.7479248046875 C 60.67814254760742 439.91851806640625 70.32403564453125 445.30718994140625 82.53580474853516 448.1233215332031" stroke-width="0.0" fill="rgb(21, 27, 223)" opacity="0.038386032" stroke="rgb(0, 0, 0)" stroke-opacity="1.0" stroke-linecap="round" stroke-linejoin="round"/>
    <path d="M 502.33935546875 485.14630126953125 C 459.2829895019531 480.4446105957031 418.4956970214844 492.54632568359375 430.496337890625 444.40399169921875 C 395.9075012207031 479.7666015625 388.95135498046875 468.5308532714844 416.1143798828125 436.43011474609375 C 456.3603515625 449.9505615234375 451.00201416015625 441.9933776855469 443.63104248046875 422.2282409667969 C 516.1454467773438 408.8537902832031 518.0244750976562 423.1097717285156 502.33935546875 485.14630126953125" stroke-width="0.0" fill="rgb(26, 44, 215)" opacity="0.045267325" stroke="rgb(0, 0, 0)" stroke-opacity="1.0" stroke-linecap="round" stroke-linejoin="round"/>
    <path d="M 220.66299438476562 94.0521469116211 C 204.1730194091797 112.42594909667969 209.01333618164062 123.69725799560547 186.9129180908203 113.20130920410156 C 175.18753051757812 96.94034576416016 198.4379119873047 66.33633422851562 212.41111755371094 89.94466400146484 C 194.79092407226562 96.9397201538086 208.03610229492188 71.03003692626953 206.94126892089844 69.82565307617188 C 209.38221740722656 61.783390045166016 234.20970153808594 71.58368682861328 220.66299438476562 94.0521469116211" stroke-width="0.0" fill="rgb(66, 11, 216)" opacity="0.02158182" stroke="rgb(0, 0, 0)" stroke-opacity="1.0" stroke-linecap="round" stroke-linejoin="round"/>
    <path d="M 147.1319122314453 165.37286376953125 C 153.24794006347656 166.6116180419922 121.86229705810547 169.3551788330078 93.41973876953125 175.46786499023438 C 83.08602142333984 144.2935333251953 86.71965789794922 113.63652801513672 108.13523864746094 112.58748626708984 C 106.08325958251953 147.0682373046875 87.47975158691406 126.35787200927734 104.89315795898438 128.6120147705078 C 160.17770385742188 152.85092163085938 156.13111877441406 131.00601196289062 147.1319122314453 165.37286376953125" stroke-width="0.0" fill="rgb(88, 31, 191)" opacity="0.11753916" stroke="rgb(0, 0, 0)" stroke-opacity="1.0" stroke-linecap="round" stroke-linejoin="round"/>
    <path d="M 70.98851013183594 437.0489807128906 C 111.514892578125 450.5844421386719 97.03914642333984 482.28533935546875 75.05181121826172 472.71209716796875 C 69.38188934326172 463.3013000488281 67.85720825195312 454.77447509765625 58.78234100341797 441.5142517089844 C 69.28630828857422 470.19189453125 58.53778076171875 450.0128173828125 50.84217071533203 420.7794189453125 C 69.68022155761719 431.8978576660156 67.71329498291016 452.9429931640625 70.98851013183594 437.0489807128906" stroke-width="0.0" fill="rgb(16, 36, 250)" opacity="0.041092023" stroke="rgb(0, 0, 0)" stroke-opacity="1.0" stroke-linecap="round" stroke-linejoin="round"/>
    <path d="M 477.72039794921875 511.1676330566406 C 472.1943054199219 523.3238525390625 471.35150146484375 539.9033813476562 460.8973693847656 542.1976318359375 C 434.19549560546875 529.9344482421875 433.3451843261719 525.9312133789062 442.1607666015625 519.8068237304688 C 435.12420654296875 495.3918151855469 428.195068359375 464.5033874511719 462.626708984375 470.4833984375 C 458.14630126953125 469.6932067871094 462.8995666503906 457.70440673828125 477.72039794921875 511.1676330566406" stroke-width="0.0" fill="rgb(11, 52, 189)" opacity="0.007182306" stroke="rgb(0, 0, 0)" stroke-opacity="1.0" stroke-linecap="round" stroke-linejoin="round"/>
    <path d="M 163.75160217285156 52.2384033203125 C 153.98060607910156 67.756103515625 135.21713256835938 57.66272735595703 137.9799041748047 37.70181655883789 C 136.60336303710938 43.00058364868164 140.41213989257812 47.76564407348633 132.46755981445312 74.57203674316406 C 118.87487030029297 67.9712905883789 117.45921325683594 25.121015548706055 109.5931625366211 17.34109878540039 C 129.84120178222656 34.40134811401367 155.89230346679688 35.96581268310547 163.75160217285156 52.2384033203125" stroke-width="0.0" fill="rgb(107, 87, 213)" opacity="0.00040439877" stroke="rgb(0, 0, 0)" stroke-opacity="1.0" stroke-linecap="round" stroke-linejoin="round"/>
    <path d="M 42.59333801269531 306.21728515625 C 48.44721984863281 310.0939636230469 31.455881118774414 322.6517333984375 20.761266708374023 358.1426696777344 C 13.158123970031738 335.0989990234375 9.634743690490723 348.5614013671875 15.39754581451416 316.1531677246094 C 11.438214302062988 286.6708068847656 3.965888500213623 285.0477600097656 13.71369457244873 286.9803161621094 C 34.256351470947266 255.75384521484375 35.986385345458984 243.5690155029297 42.59333801269531 306.21728515625" stroke-width="0.0" fill="rgb(8, 88, 168)" opacity="0.06490043" stroke="rgb(0, 0, 0)" stroke-opacity="1.0" stroke-linecap="round" stroke-linejoin="round"/>
    <path d="M 373.8981018066406 428.7364807128906 C 391.1807556152344 475.08221435546875 390.5022277832031 505.15301513671875 371.9151306152344 470.357177734375 C 358.1966857910156 470.3072814941406 358.23358154296875 463.7631530761719 381.3031311035156 476.8885498046875 C 405.5043640136719 461.2637023925781 366.9961853027344 451.97076416015625 355.72906494140625 433.3710021972656 C 368.3896484375 454.29132080078125 408.1028747558594 417.2861328125 373.8981018066406 428.7364807128906" stroke-width="0.0" fill="rgb(36, 5, 149)" opacity="0.13632797" stroke="rgb(0, 0, 0)" stroke-opacity="1.0" stroke-linecap="round" stroke-linejoin="round"/>
    <path d="M 130.85035705566406 457.26904296875 C 145.39810180664062 471.7101745605469 119.87418365478516 479.5229797363281 98.2359390258789 445.66748046875 C 96.2181167602539 447.9196472167969 83.82073211669922 461.7080383300781 109.10425567626953 454.09796142578125 C 101.39173126220703 440.4872131347656 112.15584564208984 432.6314697265625 118.02669525146484 416.30889892578125 C 132.21205139160156 423.672607421875 124.88825988769531 446.2059020996094 130.85035705566406 457.26904296875" stroke-width="0.0" fill="rgb(40, 51, 193)" opacity="0.60655755" stroke="rgb(0, 0, 0)" stroke-opacity="1.0" stroke-linecap="round" stroke-linejoin="round"/>
    <path d="M 273.3680725097656 35.611663818359375 C 271.310791015625 54.22223663330078 279.8677062988281 49.44094467163086 248.95602416992188 47.14903259277344 C 225.1847381591797 59.81309127807617 210.64962768554688 86.29644775390625 211.85223388671875 80.29143524169922 C 233.8196258544922 24.44172477722168 244.65663146972656 16.502422332763672 237.48924255371094 9.473773956298828 C 251.02487182617188 5.498867034912109 249.41297912597656 34.772972106933594 273.3680725097656 35.611663818359375" stroke-width="0.0" fill="rgb(78, 7, 204)" opacity="0.057032026" stroke="rgb(0, 0, 0)" stroke-opacity="1.0" stroke-linecap="round" stroke-linejoin="round"/>
    <path d="M 124.05963134765625 341.796142578125 C 118.31388092041016 338.34759521484375 96.35318756103516 339.24395751953125 125.03659057617188 347.2733154296875 C 119.20498657226562 350.60076904296875 112.07740020751953 332.5799560546875 94.00921630859375 328.5185852050781 C 94.94638061523438 326.09674072265625 105.7452392578125 313.1416320800781 122.7990493774414 320.88250732421875 C 126.43802642822266 323.20806884765625 126.996826171875 325.99853515625 124.05963134765625 341.796142578125" stroke-width="0.0" fill="rgb(53, 61, 218)" opacity="0.032122772" stroke="rgb(0, 0, 0)" stroke-opacity="1.0" stroke-linecap="round" stroke-linejoin="round"/>
    <path d="M 475.2427673339844 251.2007598876953 C 506.4875793457031 268.5154113769531 505.4021911621094 230.49008178710938 494.97369384765625 213.84368896484375 C 522.7987060546875 222.7445526123047 509.6708984375 216.68212890625 502.4669494628906 189.17678833007812 C 468.3954772949219 212.2009735107422 493.4233703613281 230.3379669189453 501.1118469238281 241.66635131835938 C 488.90252685546875 207.43809509277344 476.9408874511719 204.03358459472656 475.2427673339844 251.2007598876953" stroke-width="0.0" fill="rgb(54, 69, 205)" opacity="0.028500265" stroke="rgb(0, 0, 0)" stroke-opacity="1.0" stroke-linecap="round" stroke-linejoin="round"/>
    <path d="M 500.888671875 69.61053466796875 C 522.7393188476562 82.57856750488281 521.3169555664062 95.11168670654297 518.84521484375 79.31998443603516 C 510.0914001464844 49.16699981689453 484.5853576660156 62.85504913330078 495.25909423828125 64.55635833740234 C 482.5439758300781 56.3588981628418 499.4744567871094 48.89287185668945 497.69451904296875 60.3115119934082 C 492.3773193359375 61.42561721801758 520.9925537109375 45.522918701171875 500.888671875 69.61053466796875" stroke-width="0.0" fill="rgb(87, 53, 223)" opacity="0.02762147" stroke="rgb(0, 0, 0)" stroke-opacity="1.0" stroke-linecap="round" stroke-linejoin="round"/>
    <path d="M 37.53063201904297 218.47984313964844 C 36.00054931640625 192.63343811035156 30.762651443481445 236.5545196533203 15.939384460449219 207.60504150390625 C 0.31046345829963684 193.76771545410156 17.63300132751465 218.28866577148438 11.618703842163086 224.01678466796875 C 49.12223434448242 213.0022735595703 67.1951904296875 185.56024169921875 26.3834171295166 178.62506103515625 C 2.9165737628936768 183.74847412109375 23.661697387695312 204.76284790039062 37.53063201904297 218.47984313964844" stroke-width="0.0" fill="rgb(5, 48, 136)" opacity="0.0" stroke="rgb(0, 0, 0)" stroke-opacity="1.0" stroke-linecap="round" stroke-linejoin="round"/>
    <path d="M 111.60887145996094 346.12371826171875 C 96.57903289794922 321.3623962402344 100.91985321044922 333.9602355957031 109.33179473876953 356.7124328613281 C 105.12129211425781 367.9895324707031 108.05632781982422 343.093017578125 112.2697982788086 352.175537109375 C 105.95808410644531 375.2865295410156 122.13126373291016 330.0411682128906 115.80364227294922 298.3406982421875 C 149.33863830566406 298.5548095703125 150.41802978515625 297.3033142089844 111.60887145996094 346.12371826171875" stroke-width="0.0" fill="rgb(28, 58, 217)" opacity="0.041948996" stroke="rgb(0, 0, 0)" stroke-opacity="1.0" stroke-linecap="round" stroke-linejoin="round"/>
    <path d="M 7.745665550231934 100.48485565185547 C 19.21890640258789 128.28085327148438 20.797643661499023 120.89619445800781 16.863630294799805 110.677490234375 C 41.64202117919922 119.6216812133789 39.10370635986328 90.060791015625 53.529991149902344 84.98335266113281 C 18.22256851196289 99.07450866699219 -16.27143096923828 93.1552505493164 -4.7116546630859375 80.69569396972656 C -3.3203179836273193 62.816192626953125 15.652199745178223 46.71342849731445 7.745665550231934 100.48485565185547" stroke-width="0.0" fill="rgb(60, 71, 153)" opacity="0.029577058" stroke="rgb(0, 0, 0)" stroke-opacity="1.0" stroke-linecap="round" stroke-linejoin="round"/>
    <path d="M 143.26795959472656 176.01730346679688 C 161.5019989013672 190.3624725341797 147.61184692382812 200.78489685058594 136.27626037597656 210.62725830078125 C 119.05999755859375 202.22254943847656 96.18565368652344 199.10130310058594 102.13212585449219 168.4349822998047 C 122.11675262451172 167.11749267578125 139.9719696044922 148.52561950683594 132.78021240234375 149.78013610839844 C 131.26083374023438 171.2709503173828 133.50421142578125 167.17575073242188 143.26795959472656 176.01730346679688" stroke-width="0.0" fill="rgb(51, 110, 73)" opacity="0.06669545" stroke="rgb(0, 0, 0)" stroke-opacity="1.0" stroke-linecap="round" stroke-linejoin="round"/>
    <path d="M 194.85137939453125 332.70159912109375 C 230.88180541992188 424.740478515625 225.57867431640625 421.2832946777344 168.2359619140625 402.45684814453125 C 149.7104034423828 365.85992431640625 161.6392364501953 350.0647277832031 198.5841522216797 362.6761779785156 C 181.72698974609375 372.6866760253906 158.24545288085938 353.100341796875 172.0915069580078 371.55902099609375 C 155.83995056152344 381.39031982421875 166.00308227539062 356.5364685058594 194.85137939453125 332.70159912109375" stroke-width="0.0" fill="rgb(52, 84, 252)" opacity="0.6046125" stroke="rgb(0, 0, 0)" stroke-opacity="1.0" stroke-linecap="round" stroke-linejoin="round"/>
    <path d="M 39.38827133178711 207.8868408203125 C 39.1883659362793 192.47483825683594 21.9930362701416 204.38674926757812 29.24279022216797 209.91163635253906 C 7.080951690673828 203.47613525390625 -22.139371871948242 218.81893920898438 -13.731025695800781 185.41920471191406 C -0.6186414361000061 177.14549255371094 17.383230209350586 189.6228790283203 37.32212448120117 212.24742126464844 C 34.427940368652344 202.6593475341797 28.477094650268555 199.24525451660156 39.38827133178711 207.8868408203125" stroke-width="0.0" fill="rgb(11, 55, 185)" opacity="0.07938446" stroke="rgb(0, 0, 0)" stroke-opacity="1.0" stroke-linecap="round" stroke-linejoin="round"/>
    <path d="M 83.75627899169922 31.499893188476562 C 75.64012145996094 42.13412094116211 69.90985107421875 54.0543098449707 53.60004425048828 75.45596313476562 C 47.98514938354492 77.99292755126953 71.39832305908203 58.701351165771484 76.61530303955078 46.941646575927734 C 85.04983520507812 51.03092575073242 75.71500396728516 53.19659423828125 56.64863967895508 28.24030303955078 C 56.31105422973633 18.195049285888672 73.90886688232422 30.91377830505371 83.75627899169922 31.499893188476562" stroke-width="0.0" fill="rgb(66, 75, 219)" opacity="0.0" stroke="rgb(0, 0, 0)" stroke-opacity="1.0" stroke-linecap="round" stroke-linejoin="round"/>
    <path d="M 69.87126159667969 188.6981201171875 C 46.01753234863281 190.97683715820312 43.330055236816406 219.3299560546875 13.009572982788086 221.98843383789062 C 16.46398162841797 191.39015197753906 -9.258484840393066 193.15585327148438 -22.449399948120117 189.62413024902344 C -11.546443939208984 156.9049835205078 4.593385696411133 147.28138732910156 51.41196060180664 191.96188354492188 C 57.4820442199707 187.00729370117188 66.24195098876953 169.06187438964844 69.87126159667969 188.6981201171875" stroke-width="0.0" fill="rgb(32, 50, 143)" opacity="0.12210684" stroke="rgb(0, 0, 0)" stroke-opacity="1.0" stroke-linecap="round" stroke-linejoin="round"/>
    <path d="M 341.8687438964844 315.9739990234375 C 335.6328430175781 345.2721252441406 313.7581787109375 348.553955078125 320.9979248046875 336.80950927734375 C 325.6796875 338.3428039550781 297.558349609375 337.9810791015625 292.8574523925781 332.126708984375 C 288.45098876953125 305.3130187988281 303.6735534667969 290.88421630859375 297.3726806640625 323.2875671386719 C 306.8894958496094 317.016845703125 329.1484680175781 305.9427795410156 341.8687438964844 315.9739990234375" stroke-width="0.0" fill="rgb(225, 100, 62)" opacity="0.5971764" stroke="rgb(0, 0, 0)" stroke-opacity="1.0" stroke-linecap="round" stroke-linejoin="round"/>
    <path d="M 361.2439880371094 421.3635559082031 C 379.6265869140625 427.3175354003906 368.0184020996094 447.4320373535156 361.14813232421875 427.34063720703125 C 368.64801025390625 417.7983703613281 389.4752502441406 418.6119079589844 363.8122253417969 414.20538330078125 C 338.0515441894531 410.26239013671875 308.16314697265625 415.6741943359375 322.9162902832031 420.36920166015625 C 369.5736083984375 408.0016784667969 374.091796875 403.5885925292969 361.2439880371094 421.3635559082031" stroke-width="0.0" fill="rgb(9, 8, 162)" opacity="0.008743907" stroke="rgb(0, 0, 0)" stroke-opacity="1.0" stroke-linecap="round" stroke-linejoin="round"/>
    <path d="M 328.3617858886719 447.6481628417969 C 367.08935546875 417.4413146972656 329.60205078125 426.2451171875 317.08538818359375 436.6848449707031 C 323.11236572265625 426.5573425292969 308.3930358886719 431.2978210449219 323.3772277832031 430.7867126464844 C 333.69378662109375 427.2523498535156 350.8767395019531 412.8734130859375 339.0296325683594 389.1538391113281 C 299.2874450683594 394.9772644042969 305.1075439453125 432.7874755859375 328.3617858886719 447.6481628417969" stroke-width="0.0" fill="rgb(34, 44, 39)" opacity="0.090208925" stroke="rgb(0, 0, 0)" stroke-opacity="1.0" stroke-linecap="round" stroke-linejoin="round"/>
    <path d="M 520.9401245117188 252.59036254882812 C 526.5980224609375 273.6287841796875 487.4184875488281 283.9403381347656 503.81707763671875 253.4492645263672 C 507.2968444824219 228.35165405273438 481.1393737792969 235.08453369140625 473.4501647949219 221.84652709960938 C 461.88177490234375 217.66943359375 469.0373840332031 229.99351501464844 475.94635009765625 239.443115234375 C 466.2257080078125 222.51197814941406 491.3233337402344 221.9993438720703 520.9401245117188 252.59036254882812" stroke-width="0.0" fill="rgb(54, 43, 235)" opacity="0.060094833" stroke="rgb(0, 0, 0)" stroke-opacity="1.0" stroke-linecap="round" stroke-linejoin="round"/>
    <path d="M 408.4924011230469 196.86691284179688 C 436.6864013671875 159.12176513671875 421.3635559082031 160.47531127929688 439.62017822265625 166.24484252929688 C 415.7486572265625 142.51220703125 419.3555603027344 143.76553344726562 418.10516357421875 149.8761749267578 C 452.4818420410156 140.54359436035156 446.966796875 115.28942108154297 392.3998107910156 127.15559387207031 C 409.7583923339844 139.1851043701172 416.593017578125 151.9788055419922 408.4924011230469 196.86691284179688" stroke-width="0.0" fill="rgb(176, 151, 62)" opacity="0.2259606" stroke="rgb(0, 0, 0)" stroke-opacity="1.0" stroke-linecap="round" stroke-linejoin="round"/>
  </g>
</svg>
