<?xml version="1.0" ?>
<svg xmlns="http://www.w3.org/2000/svg" version="1.1" width="512" height="512">
  <defs/>
  <g>
    <path d="M 574.301025390625 383.47589111328125 C 547.165283203125 516.641845703125 548.8319091796875 525.4011840820312 429.0491027832031 517.8161010742188 C 344.9329833984375 525.8438110351562 278.53533935546875 507.00531005859375 318.8414611816406 445.48175048828125 C 263.4002990722656 303.67059326171875 249.12547302246094 265.58648681640625 440.7696533203125 232.2919921875 C 591.9402465820312 292.6271057128906 588.5901489257812 297.9291076660156 574.301025390625 383.47589111328125" stroke-width="0.0" fill="rgb(29, 28, 176)" opacity="0.91545796" stroke="rgb(0, 0, 0)" stroke-opacity="1.0" stroke-linecap="round" stroke-linejoin="round"/>
    <path d="M 303.1943359375 403.4110412597656 C 401.0341796875 472.0283203125 378.6949768066406 515.8110961914062 277.626953125 547.8865356445312 C -51.20000076293945 519.133544921875 -51.20000076293945 511.7567443847656 -78.11708068847656 440.0653381347656 C -55.751609802246094 168.79754638671875 -29.097705841064453 197.16128540039062 66.47468566894531 167.5926513671875 C 108.53860473632812 322.6448059082031 131.91390991210938 330.3785705566406 303.1943359375 403.4110412597656" stroke-width="0.0" fill="rgb(41, 41, 184)" opacity="1.0" stroke="rgb(0, 0, 0)" stroke-opacity="1.0" stroke-linecap="round" stroke-linejoin="round"/>
    <path d="M 321.2304992675781 220.18515014648438 C 328.8934326171875 411.07257080078125 316.9133605957031 419.56591796875 224.7058868408203 389.6930236816406 C 76.77997589111328 520.976318359375 50.6453857421875 450.03253173828125 -25.813386917114258 161.1947479248047 C 5.939708709716797 148.25674438476562 24.096248626708984 172.6764678955078 133.62997436523438 206.84133911132812 C 180.8820343017578 217.33782958984375 208.71151733398438 217.90176391601562 321.2304992675781 220.18515014648438" stroke-width="0.0" fill="rgb(56, 66, 184)" opacity="0.96931666" stroke="rgb(0, 0, 0)" stroke-opacity="1.0" stroke-linecap="round" stroke-linejoin="round"/>
    <path d="M 279.437744140625 16.469463348388672 C 275.0184020996094 271.1424865722656 108.39227294921875 153.38034057617188 18.490854263305664 192.46961975097656 C -29.236724853515625 173.39146423339844 -39.16172790527344 206.4013671875 -33.42903137207031 136.48760986328125 C -27.951068878173828 -6.463287353515625 3.5513699054718018 -37.64183044433594 16.796253204345703 -13.692695617675781 C 200.30809020996094 -26.67087173461914 228.072998046875 -38.102901458740234 279.437744140625 16.469463348388672" stroke-width="0.0" fill="rgb(52, 59, 180)" opacity="0.86874145" stroke="rgb(0, 0, 0)" stroke-opacity="1.0" stroke-linecap="round" stroke-linejoin="round"/>
    <path d="M 492.9677734375 87.84536743164062 C 426.4246826171875 281.96539306640625 403.3863220214844 250.27420043945312 362.68585205078125 304.8775329589844 C 294.2833557128906 273.26983642578125 275.0057373046875 301.9422912597656 246.15576171875 163.99411010742188 C 213.7459716796875 56.9609489440918 184.80409240722656 4.021453380584717 356.7086181640625 -44.03725814819336 C 562.3690795898438 -9.401595115661621 549.5136108398438 14.212664604187012 492.9677734375 87.84536743164062" stroke-width="0.0" fill="rgb(115, 86, 28)" opacity="0.882084" stroke="rgb(0, 0, 0)" stroke-opacity="1.0" stroke-linecap="round" stroke-linejoin="round"/>
    <path d="M 259.95965576171875 49.08612823486328 C 232.81166076660156 218.2850341796875 387.492919921875 198.40452575683594 184.34671020507812 316.44915771484375 C 153.19969177246094 142.78773498535156 148.27647399902344 147.14697265625 97.33785247802734 153.951416015625 C 78.71826171875 127.1946792602539 86.65528869628906 103.38848876953125 308.7192077636719 -36.1562385559082 C 494.6778564453125 94.82406616210938 387.09954833984375 2.6184327602386475 259.95965576171875 49.08612823486328" stroke-width="0.0" fill="rgb(71, 35, 209)" opacity="0.9985511" stroke="rgb(0, 0, 0)" stroke-opacity="1.0" stroke-linecap="round" stroke-linejoin="round"/>
    <path d="M 532.7406005859375 177.38092041015625 C 566.2588500976562 311.4488220214844 580.6927490234375 317.7655029296875 519.5621337890625 269.0267028808594 C 389.2151794433594 268.1563415527344 370.001953125 295.2315368652344 423.72393798828125 203.4253692626953 C 445.12591552734375 138.52252197265625 393.4560852050781 36.302005767822266 478.3399353027344 -27.097631454467773 C 575.6367797851562 18.356964111328125 575.921875 46.0611686706543 532.7406005859375 177.38092041015625" stroke-width="0.0" fill="rgb(80, 51, 190)" opacity="0.9989803" stroke="rgb(0, 0, 0)" stroke-opacity="1.0" stroke-linecap="round" stroke-linejoin="round"/>
    <path d="M 306.26055908203125 220.35369873046875 C 357.48974609375 262.2377014160156 334.12030029296875 323.5843811035156 297.57598876953125 326.48028564453125 C 284.6026611328125 318.3973388671875 253.037841796875 298.7408447265625 176.9122314453125 308.4331359863281 C 257.6011047363281 218.52565002441406 252.62582397460938 207.43321228027344 315.1609802246094 172.3990020751953 C 340.076171875 133.590576171875 299.0626525878906 160.1993865966797 306.26055908203125 220.35369873046875" stroke-width="0.0" fill="rgb(61, 56, 226)" opacity="0.8677541" stroke="rgb(0, 0, 0)" stroke-opacity="1.0" stroke-linecap="round" stroke-linejoin="round"/>
    <path d="M 427.58673095703125 183.93931579589844 C 372.720458984375 266.4981689453125 495.1982727050781 219.56300354003906 342.6543884277344 288.1200256347656 C 308.0773010253906 218.5161590576172 332.1703186035156 249.9974822998047 265.6774597167969 222.9202117919922 C 227.99952697753906 -30.957199096679688 329.95501708984375 77.22347259521484 317.0707092285156 123.3226547241211 C 395.01318359375 147.16407775878906 424.6461486816406 164.66336059570312 427.58673095703125 183.93931579589844" stroke-width="0.0" fill="rgb(214, 197, 118)" opacity="0.8995776" stroke="rgb(0, 0, 0)" stroke-opacity="1.0" stroke-linecap="round" stroke-linejoin="round"/>
    <path d="M 239.51580810546875 256.08917236328125 C 383.38079833984375 292.2301025390625 258.7709045410156 276.7537536621094 190.56910705566406 314.8084411621094 C 62.71664047241211 370.6653137207031 156.1990966796875 277.5630187988281 197.89117431640625 277.3009338378906 C 78.17741394042969 226.52069091796875 -0.8760842084884644 200.3030548095703 246.50540161132812 204.99685668945312 C 260.5057067871094 174.77279663085938 243.63845825195312 247.83592224121094 239.51580810546875 256.08917236328125" stroke-width="0.0" fill="rgb(64, 81, 143)" opacity="0.8531105" stroke="rgb(0, 0, 0)" stroke-opacity="1.0" stroke-linecap="round" stroke-linejoin="round"/>
    <path d="M 413.3943176269531 236.4612579345703 C 454.14056396484375 218.74679565429688 423.8852233886719 277.0965270996094 374.321044921875 280.3048095703125 C 396.58807373046875 292.0047302246094 379.39422607421875 358.9197998046875 382.4513244628906 241.99693298339844 C 437.248046875 254.6380615234375 405.95831298828125 264.06591796875 380.9766845703125 249.45484924316406 C 352.5287170410156 225.06369018554688 436.25732421875 229.19345092773438 413.3943176269531 236.4612579345703" stroke-width="0.0" fill="rgb(77, 28, 186)" opacity="0.90419155" stroke="rgb(0, 0, 0)" stroke-opacity="1.0" stroke-linecap="round" stroke-linejoin="round"/>
    <path d="M 333.8483581542969 440.2720031738281 C 171.69894409179688 265.6285095214844 236.0917205810547 359.485595703125 139.0616912841797 423.39959716796875 C 153.54864501953125 413.2580261230469 157.30255126953125 431.31005859375 135.4396514892578 388.73272705078125 C 160.87802124023438 365.7825927734375 156.30120849609375 369.27545166015625 180.30384826660156 340.60662841796875 C 224.4506072998047 387.6709289550781 126.99363708496094 452.4794921875 333.8483581542969 440.2720031738281" stroke-width="0.0" fill="rgb(119, 91, 36)" opacity="0.8665048" stroke="rgb(0, 0, 0)" stroke-opacity="1.0" stroke-linecap="round" stroke-linejoin="round"/>
    <path d="M 546.2503051757812 37.651039123535156 C 526.8310546875 77.87370300292969 511.46588134765625 74.44613647460938 467.73736572265625 126.30003356933594 C 436.89111328125 64.3437728881836 449.50299072265625 106.10774230957031 425.6389465332031 74.01953887939453 C 409.4534912109375 -16.945892333984375 345.0944519042969 116.34199523925781 347.73828125 -6.806828498840332 C 529.0829467773438 -34.93727493286133 539.5521850585938 -4.501864433288574 546.2503051757812 37.651039123535156" stroke-width="0.0" fill="rgb(94, 40, 199)" opacity="0.99372256" stroke="rgb(0, 0, 0)" stroke-opacity="1.0" stroke-linecap="round" stroke-linejoin="round"/>
    <path d="M 421.0649108886719 95.18370056152344 C 406.3380432128906 194.30776977539062 413.6099548339844 152.33299255371094 341.9464111328125 141.0508575439453 C 351.9777526855469 132.85574340820312 380.5592346191406 95.8848648071289 381.1616516113281 88.86193084716797 C 374.56976318359375 90.9522705078125 397.9119567871094 52.830291748046875 388.9277038574219 61.53839111328125 C 398.06756591796875 51.1064338684082 436.22601318359375 43.87031173706055 421.0649108886719 95.18370056152344" stroke-width="0.0" fill="rgb(206, 100, 98)" opacity="0.8109489" stroke="rgb(0, 0, 0)" stroke-opacity="1.0" stroke-linecap="round" stroke-linejoin="round"/>
    <path d="M 220.54962158203125 259.45794677734375 C 216.7940216064453 276.75048828125 194.41510009765625 280.6080322265625 221.50389099121094 283.43475341796875 C 174.68267822265625 297.9222412109375 163.5350341796875 367.23223876953125 104.66381072998047 196.33815002441406 C 47.68640899658203 189.43817138671875 77.67375946044922 179.22918701171875 201.9501953125 184.0828094482422 C 235.33251953125 191.11415100097656 233.70132446289062 264.3080749511719 220.54962158203125 259.45794677734375" stroke-width="0.0" fill="rgb(111, 29, 136)" opacity="0.65294564" stroke="rgb(0, 0, 0)" stroke-opacity="1.0" stroke-linecap="round" stroke-linejoin="round"/>
    <path d="M 374.63739013671875 443.1391296386719 C 424.39129638671875 469.63720703125 345.63275146484375 500.85894775390625 293.0830993652344 439.58245849609375 C 273.7253112792969 236.44284057617188 339.4649963378906 479.5066223144531 388.4010009765625 447.5317687988281 C 362.8306884765625 411.2494812011719 311.6786804199219 489.81268310546875 304.1250915527344 350.9473571777344 C 390.9317626953125 471.8450927734375 346.0610046386719 427.2849426269531 374.63739013671875 443.1391296386719" stroke-width="0.0" fill="rgb(33, 38, 173)" opacity="0.7097376" stroke="rgb(0, 0, 0)" stroke-opacity="1.0" stroke-linecap="round" stroke-linejoin="round"/>
    <path d="M 370.2157897949219 94.64723205566406 C 349.03692626953125 117.48619842529297 347.5140075683594 95.7254409790039 330.59735107421875 101.18184661865234 C 329.7900390625 125.23855590820312 297.24591064453125 65.70966339111328 274.3734130859375 43.92924880981445 C 256.302978515625 -35.62665939331055 282.7328186035156 -73.71241760253906 408.55560302734375 42.15247344970703 C 358.4328308105469 92.02400970458984 367.20465087890625 112.313232421875 370.2157897949219 94.64723205566406" stroke-width="0.0" fill="rgb(64, 30, 199)" opacity="0.98137003" stroke="rgb(0, 0, 0)" stroke-opacity="1.0" stroke-linecap="round" stroke-linejoin="round"/>
    <path d="M 371.7998352050781 288.7552185058594 C 171.0523681640625 244.7770233154297 158.4751739501953 407.17529296875 226.84857177734375 364.8373718261719 C 277.6934509277344 363.3298645019531 331.82861328125 402.3510437011719 311.2211608886719 391.7768859863281 C 318.01708984375 379.5193786621094 320.26495361328125 379.9005432128906 307.78778076171875 360.2958679199219 C 333.5546569824219 409.65679931640625 356.7328186035156 521.3630981445312 371.7998352050781 288.7552185058594" stroke-width="0.0" fill="rgb(197, 153, 16)" opacity="0.79075664" stroke="rgb(0, 0, 0)" stroke-opacity="1.0" stroke-linecap="round" stroke-linejoin="round"/>
    <path d="M 378.4638977050781 179.32568359375 C 367.49041748046875 196.192626953125 310.0914306640625 216.3029327392578 385.6263122558594 190.1443328857422 C 440.54046630859375 212.10520935058594 377.5283508300781 187.0257110595703 316.08660888671875 187.6724090576172 C 330.47930908203125 207.5537567138672 352.4833068847656 157.83090209960938 367.77947998046875 179.7470703125 C 390.9036865234375 167.5377960205078 386.2818298339844 180.76251220703125 378.4638977050781 179.32568359375" stroke-width="0.0" fill="rgb(184, 76, 35)" opacity="0.52587914" stroke="rgb(0, 0, 0)" stroke-opacity="1.0" stroke-linecap="round" stroke-linejoin="round"/>
    <path d="M 177.2842254638672 300.43218994140625 C 145.6427001953125 452.8525390625 143.28134155273438 307.0818786621094 134.46153259277344 325.1136474609375 C 113.68620300292969 292.4911804199219 100.64668273925781 265.2568664550781 99.13896942138672 242.92892456054688 C 32.336910247802734 161.34158325195312 64.21543884277344 147.54237365722656 105.81582641601562 162.51902770996094 C 123.06420135498047 225.93502807617188 88.99700927734375 276.2723388671875 177.2842254638672 300.43218994140625" stroke-width="0.0" fill="rgb(33, 50, 163)" opacity="0.99918747" stroke="rgb(0, 0, 0)" stroke-opacity="1.0" stroke-linecap="round" stroke-linejoin="round"/>
    <path d="M 319.4356689453125 175.80984497070312 C 320.1429748535156 203.18719482421875 287.169189453125 201.26365661621094 256.5826416015625 247.76499938964844 C 228.59861755371094 249.31991577148438 239.04129028320312 232.94821166992188 244.21559143066406 199.848876953125 C 257.46441650390625 143.8734588623047 263.4081726074219 117.7875747680664 250.23770141601562 143.55552673339844 C 251.8276824951172 169.8311767578125 267.5995788574219 171.36634826660156 319.4356689453125 175.80984497070312" stroke-width="0.0" fill="rgb(119, 6, 79)" opacity="0.1362557" stroke="rgb(0, 0, 0)" stroke-opacity="1.0" stroke-linecap="round" stroke-linejoin="round"/>
    <path d="M 200.36868286132812 298.5160827636719 C 123.53402709960938 399.4513244628906 163.12210083007812 394.1636962890625 111.14229583740234 431.4614562988281 C 23.436416625976562 389.928955078125 20.855905532836914 368.3136901855469 -1.1832700967788696 316.89093017578125 C 48.49005889892578 283.6338195800781 40.885650634765625 244.67337036132812 106.14655303955078 185.36643981933594 C 133.92791748046875 243.64181518554688 146.99639892578125 257.1352233886719 200.36868286132812 298.5160827636719" stroke-width="0.0" fill="rgb(48, 50, 181)" opacity="0.9328392" stroke="rgb(0, 0, 0)" stroke-opacity="1.0" stroke-linecap="round" stroke-linejoin="round"/>
    <path d="M 300.739501953125 263.7814636230469 C 309.1343688964844 278.8114929199219 320.22515869140625 272.2644958496094 226.1173858642578 272.9855651855469 C 196.58616638183594 290.86871337890625 215.51626586914062 217.90158081054688 232.76133728027344 209.98985290527344 C 250.0349578857422 230.39268493652344 242.3772430419922 226.2733917236328 249.5093231201172 233.38504028320312 C 283.4400329589844 245.86862182617188 274.5776672363281 241.40447998046875 300.739501953125 263.7814636230469" stroke-width="0.0" fill="rgb(68, 74, 194)" opacity="0.6334711" stroke="rgb(0, 0, 0)" stroke-opacity="1.0" stroke-linecap="round" stroke-linejoin="round"/>
    <path d="M 298.3544006347656 238.291259765625 C 279.9124755859375 229.4647979736328 290.7144470214844 264.56756591796875 258.74871826171875 276.3439025878906 C 222.86227416992188 274.8929443359375 238.5373992919922 283.70587158203125 274.95849609375 240.99388122558594 C 300.38360595703125 177.05287170410156 277.4324951171875 151.78924560546875 304.1755676269531 165.8274688720703 C 325.0467529296875 188.01043701171875 295.3712463378906 183.9899444580078 298.3544006347656 238.291259765625" stroke-width="0.0" fill="rgb(156, 74, 170)" opacity="0.009500913" stroke="rgb(0, 0, 0)" stroke-opacity="1.0" stroke-linecap="round" stroke-linejoin="round"/>
    <path d="M 330.3573303222656 386.6720886230469 C 266.8214416503906 369.4482727050781 284.5919494628906 388.1946716308594 301.7225036621094 429.41412353515625 C 321.73956298828125 406.38043212890625 317.1987609863281 381.65118408203125 320.5735168457031 429.759521484375 C 325.458251953125 457.6319580078125 334.9988098144531 459.20733642578125 346.2191162109375 450.20220947265625 C 344.12322998046875 427.8711242675781 354.66180419921875 399.5785827636719 330.3573303222656 386.6720886230469" stroke-width="0.0" fill="rgb(216, 212, 77)" opacity="0.7633256" stroke="rgb(0, 0, 0)" stroke-opacity="1.0" stroke-linecap="round" stroke-linejoin="round"/>
    <path d="M 289.3829650878906 163.0181884765625 C 293.9534606933594 200.7032928466797 318.7474670410156 194.54847717285156 300.4931640625 194.5672149658203 C 279.4401550292969 207.657470703125 263.7591857910156 197.60638427734375 257.274169921875 201.209716796875 C 269.70318603515625 213.3903045654297 261.9598693847656 211.52679443359375 263.729248046875 163.5618896484375 C 266.3918762207031 188.54336547851562 276.6779479980469 184.33949279785156 289.3829650878906 163.0181884765625" stroke-width="0.0" fill="rgb(125, 96, 82)" opacity="0.8219161" stroke="rgb(0, 0, 0)" stroke-opacity="1.0" stroke-linecap="round" stroke-linejoin="round"/>
    <path d="M 397.4616394042969 252.06195068359375 C 429.7870178222656 259.2781677246094 431.60369873046875 347.86346435546875 387.80950927734375 339.7306823730469 C 305.9769287109375 277.6571350097656 282.0279235839844 322.73187255859375 299.76470947265625 265.2367858886719 C 324.7030334472656 254.68490600585938 315.7996826171875 237.04083251953125 323.00067138671875 249.17088317871094 C 324.4668273925781 254.7126007080078 343.1482849121094 286.76544189453125 397.4616394042969 252.06195068359375" stroke-width="0.0" fill="rgb(241, 59, 103)" opacity="0.95647293" stroke="rgb(0, 0, 0)" stroke-opacity="1.0" stroke-linecap="round" stroke-linejoin="round"/>
    <path d="M 200.87208557128906 358.43267822265625 C 149.91476440429688 348.4539489746094 158.99151611328125 380.6689453125 165.37393188476562 417.86114501953125 C 140.7756805419922 419.5815124511719 140.62596130371094 435.166015625 140.70184326171875 402.4280700683594 C 155.46961975097656 364.9448547363281 172.8361358642578 345.334228515625 189.89239501953125 328.6024169921875 C 198.45758056640625 373.90142822265625 231.68197631835938 371.65576171875 200.87208557128906 358.43267822265625" stroke-width="0.0" fill="rgb(121, 138, 2)" opacity="0.6401698" stroke="rgb(0, 0, 0)" stroke-opacity="1.0" stroke-linecap="round" stroke-linejoin="round"/>
    <path d="M 222.90872192382812 283.63763427734375 C 213.50054931640625 285.2659606933594 200.83132934570312 281.0355529785156 195.5482635498047 259.9144287109375 C 157.2439422607422 246.28045654296875 158.91429138183594 245.45298767089844 172.12576293945312 242.8359832763672 C 159.37083435058594 280.8810119628906 168.4948272705078 245.64300537109375 172.42514038085938 235.9759521484375 C 188.8710479736328 246.45318603515625 195.618408203125 252.32496643066406 222.90872192382812 283.63763427734375" stroke-width="0.0" fill="rgb(96, 81, 172)" opacity="0.69490737" stroke="rgb(0, 0, 0)" stroke-opacity="1.0" stroke-linecap="round" stroke-linejoin="round"/>
    <path d="M 378.7543029785156 238.1634063720703 C 386.33673095703125 231.96224975585938 376.67010498046875 283.57025146484375 350.34429931640625 276.8229064941406 C 323.1982116699219 262.77777099609375 326.4574279785156 271.5193786621094 313.8365783691406 256.3000793457031 C 311.1344299316406 239.09530639648438 331.24591064453125 224.29273986816406 297.44171142578125 250.9626007080078 C 313.4388122558594 244.95330810546875 281.8725891113281 237.65835571289062 378.7543029785156 238.1634063720703" stroke-width="0.0" fill="rgb(242, 242, 201)" opacity="1.0" stroke="rgb(0, 0, 0)" stroke-opacity="1.0" stroke-linecap="round" stroke-linejoin="round"/>
    <path d="M 163.3953857421875 456.22509765625 C 183.2558135986328 460.7852478027344 208.11058044433594 475.893798828125 205.09739685058594 452.0395812988281 C 157.52713012695312 440.7301940917969 170.53741455078125 419.85986328125 164.9760284423828 395.6593933105469 C 147.4486541748047 388.044189453125 152.4746551513672 379.700439453125 174.91673278808594 399.4925842285156 C 137.1365509033203 408.83349609375 126.5445327758789 425.1639709472656 163.3953857421875 456.22509765625" stroke-width="0.0" fill="rgb(141, 160, 91)" opacity="0.7622699" stroke="rgb(0, 0, 0)" stroke-opacity="1.0" stroke-linecap="round" stroke-linejoin="round"/>
    <path d="M 351.41461181640625 346.19976806640625 C 356.1794128417969 385.98968505859375 344.00714111328125 398.8367919921875 348.83941650390625 413.89154052734375 C 326.9545593261719 434.87286376953125 311.1455078125 408.5126647949219 320.4769592285156 422.674560546875 C 344.9801025390625 423.01141357421875 340.02154541015625 395.74627685546875 341.29229736328125 368.30108642578125 C 346.15411376953125 340.0118103027344 358.46087646484375 323.22882080078125 351.41461181640625 346.19976806640625" stroke-width="0.0" fill="rgb(68, 44, 104)" opacity="0.6660492" stroke="rgb(0, 0, 0)" stroke-opacity="1.0" stroke-linecap="round" stroke-linejoin="round"/>
    <path d="M 184.34759521484375 419.73065185546875 C 163.5160675048828 460.5426025390625 167.82061767578125 480.81085205078125 192.69651794433594 438.6085205078125 C 180.0594940185547 466.10577392578125 150.99249267578125 462.0166015625 182.25579833984375 475.1504211425781 C 174.1071319580078 405.7004089355469 178.97879028320312 430.6494140625 177.62484741210938 461.72662353515625 C 168.39842224121094 431.3231506347656 202.32566833496094 430.8774719238281 184.34759521484375 419.73065185546875" stroke-width="0.0" fill="rgb(102, 57, 166)" opacity="0.07218217" stroke="rgb(0, 0, 0)" stroke-opacity="1.0" stroke-linecap="round" stroke-linejoin="round"/>
    <path d="M 181.74681091308594 426.82049560546875 C 198.77468872070312 427.5307922363281 189.27809143066406 456.131591796875 173.5372314453125 439.71697998046875 C 186.03591918945312 436.32318115234375 173.69668579101562 406.8170166015625 145.7200164794922 433.5575866699219 C 172.06626892089844 449.0177917480469 180.57044982910156 408.17144775390625 197.06585693359375 388.8225402832031 C 190.75645446777344 477.20489501953125 196.55767822265625 447.286865234375 181.74681091308594 426.82049560546875" stroke-width="0.0" fill="rgb(42, 45, 217)" opacity="0.44123548" stroke="rgb(0, 0, 0)" stroke-opacity="1.0" stroke-linecap="round" stroke-linejoin="round"/>
    <path d="M 223.99916076660156 231.70074462890625 C 203.54559326171875 240.9796905517578 196.5400390625 251.93423461914062 180.06809997558594 238.59396362304688 C 209.4068603515625 235.66473388671875 187.0754852294922 235.4969940185547 187.22354125976562 243.87413024902344 C 183.8665008544922 257.7001037597656 188.71365356445312 244.63397216796875 196.25489807128906 216.88485717773438 C 195.1513671875 212.05360412597656 208.9490509033203 224.2391815185547 223.99916076660156 231.70074462890625" stroke-width="0.0" fill="rgb(178, 2, 128)" opacity="0.032552954" stroke="rgb(0, 0, 0)" stroke-opacity="1.0" stroke-linecap="round" stroke-linejoin="round"/>
    <path d="M 280.1146545410156 246.65586853027344 C 306.0135498046875 265.7573547363281 296.59844970703125 287.849609375 279.0928039550781 261.10015869140625 C 265.6165466308594 258.47686767578125 242.14723205566406 277.34600830078125 260.2138671875 249.1439666748047 C 242.6811065673828 239.750244140625 261.3243408203125 234.63999938964844 282.87762451171875 233.8682403564453 C 273.1397705078125 225.9243927001953 275.7986145019531 242.0612335205078 280.1146545410156 246.65586853027344" stroke-width="0.0" fill="rgb(26, 44, 188)" opacity="0.5430371" stroke="rgb(0, 0, 0)" stroke-opacity="1.0" stroke-linecap="round" stroke-linejoin="round"/>
    <path d="M 183.059326171875 327.747802734375 C 202.409912109375 359.9490661621094 187.8398895263672 372.920654296875 170.83583068847656 353.1153259277344 C 169.42262268066406 358.5653076171875 168.6339874267578 349.8843078613281 166.2408447265625 361.01739501953125 C 170.8795166015625 350.0843811035156 184.2299346923828 340.8406677246094 195.56777954101562 339.9786071777344 C 193.87747192382812 343.98797607421875 180.0608673095703 351.6888122558594 183.059326171875 327.747802734375" stroke-width="0.0" fill="rgb(171, 140, 106)" opacity="0.7729286" stroke="rgb(0, 0, 0)" stroke-opacity="1.0" stroke-linecap="round" stroke-linejoin="round"/>
    <path d="M 84.22969055175781 447.8636169433594 C 100.23811340332031 462.7010498046875 87.71100616455078 474.65185546875 36.10888671875 477.205078125 C 34.27936553955078 476.633544921875 29.656835556030273 481.8851013183594 37.7569694519043 460.7443542480469 C 68.12406158447266 468.88897705078125 82.56031799316406 452.11553955078125 100.48214721679688 430.74163818359375 C 46.45316696166992 421.9095153808594 60.753623962402344 449.5706481933594 84.22969055175781 447.8636169433594" stroke-width="0.0" fill="rgb(58, 18, 227)" opacity="0.0" stroke="rgb(0, 0, 0)" stroke-opacity="1.0" stroke-linecap="round" stroke-linejoin="round"/>
    <path d="M 469.407470703125 434.7928161621094 C 492.8995056152344 422.46502685546875 477.4281311035156 413.8393249511719 461.7112121582031 483.24224853515625 C 449.3035583496094 454.28289794921875 421.51165771484375 446.3603515625 420.4185791015625 420.6158752441406 C 437.5760192871094 425.3157653808594 429.6216735839844 446.0687255859375 456.1898498535156 436.5465393066406 C 478.4349365234375 449.1346130371094 468.3775939941406 415.92242431640625 469.407470703125 434.7928161621094" stroke-width="0.0" fill="rgb(47, 25, 232)" opacity="0.005596965" stroke="rgb(0, 0, 0)" stroke-opacity="1.0" stroke-linecap="round" stroke-linejoin="round"/>
    <path d="M 234.85150146484375 93.55014038085938 C 258.1065368652344 94.68072509765625 240.61402893066406 82.92688751220703 189.6190948486328 81.06488037109375 C 208.54393005371094 56.559051513671875 216.10403442382812 54.671329498291016 220.43768310546875 75.05441284179688 C 191.53062438964844 62.28691101074219 220.14053344726562 99.75826263427734 210.08065795898438 63.62696838378906 C 216.24961853027344 37.058841705322266 232.25987243652344 52.65158462524414 234.85150146484375 93.55014038085938" stroke-width="0.0" fill="rgb(90, 14, 217)" opacity="0.015535429" stroke="rgb(0, 0, 0)" stroke-opacity="1.0" stroke-linecap="round" stroke-linejoin="round"/>
    <path d="M 137.46234130859375 173.3402099609375 C 164.64788818359375 172.018798828125 157.5980987548828 177.60321044921875 120.54243469238281 163.31968688964844 C 73.04268646240234 129.8935546875 93.37385559082031 126.29306030273438 120.31245422363281 130.7882537841797 C 106.19578552246094 124.1972427368164 115.56684112548828 115.2346420288086 128.00967407226562 159.409423828125 C 129.97903442382812 182.9813690185547 140.95999145507812 173.56344604492188 137.46234130859375 173.3402099609375" stroke-width="0.0" fill="rgb(22, 84, 102)" opacity="0.0" stroke="rgb(0, 0, 0)" stroke-opacity="1.0" stroke-linecap="round" stroke-linejoin="round"/>
    <path d="M 56.54765319824219 440.5492248535156 C 79.02274322509766 468.2580261230469 79.28224182128906 467.97412109375 104.4113998413086 448.8314514160156 C 60.58788299560547 470.0386047363281 56.611175537109375 462.58734130859375 36.997623443603516 453.5129089355469 C 26.10927391052246 436.1410827636719 34.423885345458984 418.19476318359375 36.04316711425781 443.72625732421875 C 66.20511627197266 461.0061340332031 78.61588287353516 441.8883972167969 56.54765319824219 440.5492248535156" stroke-width="0.0" fill="rgb(45, 40, 215)" opacity="0.009529149" stroke="rgb(0, 0, 0)" stroke-opacity="1.0" stroke-linecap="round" stroke-linejoin="round"/>
    <path d="M 469.3748474121094 517.2348022460938 C 470.3537292480469 543.4835815429688 463.8829345703125 560.54541015625 475.3910217285156 536.8930053710938 C 457.3306579589844 519.6587524414062 443.75018310546875 505.3866271972656 432.46942138671875 484.1153869628906 C 437.2392272949219 477.4732666015625 450.9628601074219 462.7125549316406 460.2235412597656 456.6885070800781 C 479.2959899902344 470.45770263671875 500.2942199707031 483.8872375488281 469.3748474121094 517.2348022460938" stroke-width="0.0" fill="rgb(73, 58, 208)" opacity="0.0" stroke="rgb(0, 0, 0)" stroke-opacity="1.0" stroke-linecap="round" stroke-linejoin="round"/>
    <path d="M 160.17437744140625 62.307498931884766 C 136.95550537109375 77.27022552490234 130.9828643798828 70.03617095947266 126.66150665283203 33.72944259643555 C 143.29063415527344 28.52277946472168 149.7935028076172 29.886959075927734 128.86805725097656 35.920509338378906 C 117.24060821533203 36.740570068359375 120.16464233398438 13.56749439239502 128.64027404785156 14.652579307556152 C 134.00926208496094 31.4197940826416 147.70187377929688 40.71047592163086 160.17437744140625 62.307498931884766" stroke-width="0.0" fill="rgb(76, 84, 194)" opacity="0.016899614" stroke="rgb(0, 0, 0)" stroke-opacity="1.0" stroke-linecap="round" stroke-linejoin="round"/>
    <path d="M 38.44690704345703 315.4526672363281 C 46.88001251220703 320.9401550292969 20.819639205932617 331.1761779785156 -0.03654823824763298 340.2098083496094 C 25.311729431152344 338.69122314453125 16.03956413269043 329.6436767578125 -3.659818410873413 312.21893310546875 C -5.140700340270996 291.74078369140625 11.223908424377441 289.4737854003906 47.77799606323242 306.91717529296875 C 49.61397933959961 291.0292663574219 27.048587799072266 279.66046142578125 38.44690704345703 315.4526672363281" stroke-width="0.0" fill="rgb(10, 50, 219)" opacity="0.063507706" stroke="rgb(0, 0, 0)" stroke-opacity="1.0" stroke-linecap="round" stroke-linejoin="round"/>
    <path d="M 403.968994140625 429.3546142578125 C 405.84161376953125 429.2308044433594 415.3022766113281 440.03680419921875 372.7371826171875 435.9630432128906 C 365.3575744628906 462.9300842285156 367.9526062011719 446.7335205078125 383.40411376953125 427.7421569824219 C 380.17974853515625 438.7544860839844 383.4028625488281 426.9775695800781 390.93096923828125 434.6255187988281 C 403.0236511230469 435.8209533691406 403.8594665527344 433.3409118652344 403.968994140625 429.3546142578125" stroke-width="0.0" fill="rgb(37, 78, 201)" opacity="0.01120132" stroke="rgb(0, 0, 0)" stroke-opacity="1.0" stroke-linecap="round" stroke-linejoin="round"/>
    <path d="M 163.8644256591797 429.8759765625 C 168.70437622070312 448.83447265625 130.05459594726562 467.5697021484375 99.05970001220703 457.26141357421875 C 98.30154418945312 458.10931396484375 83.09959411621094 454.1419982910156 105.0478744506836 426.65020751953125 C 102.9107894897461 420.2127380371094 106.55763244628906 422.7045593261719 116.3656234741211 420.31512451171875 C 110.72126007080078 442.24847412109375 112.02466583251953 439.2461853027344 163.8644256591797 429.8759765625" stroke-width="0.0" fill="rgb(62, 73, 216)" opacity="0.33676723" stroke="rgb(0, 0, 0)" stroke-opacity="1.0" stroke-linecap="round" stroke-linejoin="round"/>
    <path d="M 259.6483154296875 46.16645812988281 C 275.2303771972656 65.56083679199219 258.3785400390625 44.621315002441406 257.0628356933594 60.86250305175781 C 269.2488098144531 43.33803176879883 268.2005920410156 67.34663391113281 231.4891815185547 75.71231079101562 C 225.5484161376953 17.70845603942871 246.6107177734375 19.220462799072266 267.4051208496094 31.558162689208984 C 273.5965576171875 -6.525680065155029 296.2781677246094 13.12402629852295 259.6483154296875 46.16645812988281" stroke-width="0.0" fill="rgb(82, 35, 236)" opacity="0.004027624" stroke="rgb(0, 0, 0)" stroke-opacity="1.0" stroke-linecap="round" stroke-linejoin="round"/>
    <path d="M 123.0566177368164 324.1372985839844 C 127.84452056884766 341.11004638671875 109.0294189453125 348.0977783203125 116.15192413330078 346.8182067871094 C 103.06947326660156 351.4140930175781 77.81842041015625 341.7790222167969 89.51183319091797 338.1692199707031 C 97.56364440917969 323.86981201171875 101.84093475341797 312.6299133300781 114.56062316894531 322.3827209472656 C 92.65254211425781 336.4308776855469 114.1690673828125 344.8573303222656 123.0566177368164 324.1372985839844" stroke-width="0.0" fill="rgb(66, 73, 165)" opacity="0.05519599" stroke="rgb(0, 0, 0)" stroke-opacity="1.0" stroke-linecap="round" stroke-linejoin="round"/>
    <path d="M 540.78662109375 237.5906524658203 C 517.2650146484375 237.08038330078125 486.9721374511719 239.12620544433594 490.5386657714844 253.4381866455078 C 465.781982421875 243.5120086669922 452.6090393066406 230.0152130126953 471.20263671875 215.1282501220703 C 475.90167236328125 200.42063903808594 482.252685546875 207.2771759033203 512.8659057617188 209.13644409179688 C 511.64752197265625 175.46810913085938 516.5077514648438 185.08868408203125 540.78662109375 237.5906524658203" stroke-width="0.0" fill="rgb(114, 47, 150)" opacity="0.0" stroke="rgb(0, 0, 0)" stroke-opacity="1.0" stroke-linecap="round" stroke-linejoin="round"/>
    <path d="M 469.1412658691406 88.0871353149414 C 482.0276184082031 91.94697570800781 474.9240417480469 82.17756652832031 515.0327758789062 67.6688232421875 C 511.6499328613281 43.146053314208984 511.8724670410156 39.341487884521484 525.716064453125 76.30760192871094 C 500.75933837890625 84.87383270263672 492.8180847167969 56.33009338378906 515.9317016601562 21.989933013916016 C 499.9752197265625 46.868980407714844 502.8421630859375 49.55134582519531 469.1412658691406 88.0871353149414" stroke-width="0.0" fill="rgb(46, 56, 205)" opacity="0.0" stroke="rgb(0, 0, 0)" stroke-opacity="1.0" stroke-linecap="round" stroke-linejoin="round"/>
    <path d="M 24.1667537689209 216.31893920898438 C 49.230045318603516 209.82456970214844 45.16133499145508 213.16995239257812 24.34955596923828 228.42047119140625 C 27.188505172729492 229.62551879882812 -1.3398935794830322 224.0121612548828 -5.592554092407227 196.0514373779297 C 22.52679443359375 200.3616485595703 26.89686393737793 197.80271911621094 63.0584602355957 193.73428344726562 C 60.48512649536133 188.23599243164062 71.65861511230469 205.76998901367188 24.1667537689209 216.31893920898438" stroke-width="0.0" fill="rgb(30, 40, 204)" opacity="0.03938604" stroke="rgb(0, 0, 0)" stroke-opacity="1.0" stroke-linecap="round" stroke-linejoin="round"/>
    <path d="M 110.5430908203125 349.87347412109375 C 130.4779052734375 364.2347717285156 113.33902740478516 341.4881896972656 103.94615173339844 340.60626220703125 C 86.83888244628906 359.5682373046875 64.5541000366211 352.9850158691406 66.8490219116211 351.9839782714844 C 79.26941680908203 318.744384765625 89.77967834472656 321.29754638671875 96.3216323852539 344.79010009765625 C 109.80427551269531 330.8418273925781 123.0357437133789 335.6388854980469 110.5430908203125 349.87347412109375" stroke-width="0.0" fill="rgb(10, 46, 189)" opacity="0.024843428" stroke="rgb(0, 0, 0)" stroke-opacity="1.0" stroke-linecap="round" stroke-linejoin="round"/>
    <path d="M 37.4752082824707 64.01651763916016 C 11.460196495056152 62.119441986083984 -12.113046646118164 62.98789596557617 4.056966781616211 142.29441833496094 C 19.91568946838379 156.3858642578125 11.041987419128418 121.77886199951172 9.141875267028809 44.93281936645508 C 13.33553409576416 40.92334747314453 -7.625638008117676 62.250057220458984 -5.439191818237305 90.43795013427734 C 26.280179977416992 65.73175048828125 44.362491607666016 73.21607971191406 37.4752082824707 64.01651763916016" stroke-width="0.0" fill="rgb(87, 64, 227)" opacity="8.51797e-05" stroke="rgb(0, 0, 0)" stroke-opacity="1.0" stroke-linecap="round" stroke-linejoin="round"/>
    <path d="M 145.13746643066406 157.5167999267578 C 155.660888671875 170.46714782714844 134.53529357910156 172.055419921875 163.7169952392578 197.5244598388672 C 118.19702911376953 199.6440887451172 75.30293273925781 210.82400512695312 109.25337219238281 176.82501220703125 C 149.61636352539062 172.0817108154297 150.42503356933594 174.022705078125 156.15625 219.6339111328125 C 84.05211639404297 208.6542510986328 89.02081298828125 182.92391967773438 145.13746643066406 157.5167999267578" stroke-width="0.0" fill="rgb(87, 83, 74)" opacity="0.44887587" stroke="rgb(0, 0, 0)" stroke-opacity="1.0" stroke-linecap="round" stroke-linejoin="round"/>
    <path d="M 219.27574157714844 423.1284484863281 C 209.51080322265625 401.0846252441406 204.88272094726562 396.9689636230469 173.84075927734375 398.0489807128906 C 188.53672790527344 416.189453125 174.28921508789062 380.827880859375 151.24085998535156 390.2934265136719 C 139.47894287109375 377.8333740234375 151.4595489501953 353.4354248046875 156.60629272460938 355.8796691894531 C 179.32846069335938 387.0823059082031 209.68167114257812 401.3987731933594 219.27574157714844 423.1284484863281" stroke-width="0.0" fill="rgb(38, 90, 195)" opacity="0.16816048" stroke="rgb(0, 0, 0)" stroke-opacity="1.0" stroke-linecap="round" stroke-linejoin="round"/>
    <path d="M 39.21123504638672 202.1236114501953 C 20.11762237548828 184.528076171875 17.742862701416016 203.7296905517578 51.341487884521484 206.0791473388672 C 23.52474021911621 216.44094848632812 24.623855590820312 210.04029846191406 9.785844802856445 208.06419372558594 C 21.76900863647461 207.9744110107422 45.65988540649414 205.99710083007812 53.28982162475586 189.97755432128906 C 50.35622787475586 201.99148559570312 41.51054382324219 222.33375549316406 39.21123504638672 202.1236114501953" stroke-width="0.0" fill="rgb(50, 49, 195)" opacity="0.0" stroke="rgb(0, 0, 0)" stroke-opacity="1.0" stroke-linecap="round" stroke-linejoin="round"/>
    <path d="M 96.873291015625 39.557769775390625 C 86.90713500976562 75.60255432128906 91.66299438476562 72.8182373046875 70.8356704711914 68.79367065429688 C 46.65861892700195 59.008975982666016 48.29066467285156 47.873409271240234 52.19765853881836 33.23463821411133 C 53.685428619384766 43.81183624267578 51.03335189819336 37.39179229736328 53.468597412109375 32.99844741821289 C 77.40679168701172 37.17454147338867 90.96534729003906 30.653614044189453 96.873291015625 39.557769775390625" stroke-width="0.0" fill="rgb(71, 89, 206)" opacity="0.033998005" stroke="rgb(0, 0, 0)" stroke-opacity="1.0" stroke-linecap="round" stroke-linejoin="round"/>
    <path d="M 45.21591567993164 194.0558319091797 C 82.30609893798828 219.97171020507812 89.47492218017578 240.8224639892578 42.97978591918945 216.21734619140625 C 29.61566162109375 197.84336853027344 13.254880905151367 173.64817810058594 29.074949264526367 142.5380401611328 C 22.25141143798828 157.43557739257812 38.886802673339844 147.5613555908203 54.48114013671875 169.49609375 C 30.817983627319336 172.45498657226562 52.06985092163086 157.64791870117188 45.21591567993164 194.0558319091797" stroke-width="0.0" fill="rgb(56, 57, 205)" opacity="0.00071482465" stroke="rgb(0, 0, 0)" stroke-opacity="1.0" stroke-linecap="round" stroke-linejoin="round"/>
    <path d="M 356.47869873046875 329.6131286621094 C 334.7701110839844 343.0431823730469 314.9197082519531 362.26397705078125 319.1716003417969 371.2675476074219 C 315.69061279296875 344.8837890625 294.9024658203125 341.4932861328125 292.46441650390625 319.69970703125 C 282.8817443847656 296.6744384765625 287.255859375 296.9793395996094 303.91058349609375 284.3951721191406 C 329.45013427734375 292.6063232421875 348.9447326660156 303.8177490234375 356.47869873046875 329.6131286621094" stroke-width="0.0" fill="rgb(238, 61, 130)" opacity="1.0" stroke="rgb(0, 0, 0)" stroke-opacity="1.0" stroke-linecap="round" stroke-linejoin="round"/>
    <path d="M 375.5574035644531 389.915283203125 C 380.94097900390625 426.08551025390625 381.44696044921875 423.05780029296875 361.72576904296875 412.7289733886719 C 371.6808776855469 424.1557922363281 341.0268859863281 415.111328125 358.73822021484375 467.15380859375 C 350.90362548828125 435.3429870605469 356.2840576171875 407.94561767578125 386.34124755859375 412.3242492675781 C 377.8190612792969 416.4454650878906 332.7757873535156 424.68359375 375.5574035644531 389.915283203125" stroke-width="0.0" fill="rgb(93, 101, 64)" opacity="0.019429699" stroke="rgb(0, 0, 0)" stroke-opacity="1.0" stroke-linecap="round" stroke-linejoin="round"/>
    <path d="M 341.8066101074219 426.89605712890625 C 339.4226989746094 431.92864990234375 330.7066650390625 423.79034423828125 340.5078430175781 413.95458984375 C 335.8558044433594 421.8913269042969 341.2965087890625 420.130126953125 306.73980712890625 424.5080871582031 C 313.7149353027344 418.6293029785156 342.0368347167969 405.6637878417969 351.1490173339844 405.5302429199219 C 337.9767761230469 413.4440612792969 352.5548095703125 403.7696533203125 341.8066101074219 426.89605712890625" stroke-width="0.0" fill="rgb(56, 131, 43)" opacity="0.06292099" stroke="rgb(0, 0, 0)" stroke-opacity="1.0" stroke-linecap="round" stroke-linejoin="round"/>
    <path d="M 488.6022644042969 268.4902648925781 C 558.3450927734375 248.49024963378906 528.0484619140625 253.22523498535156 513.4896240234375 242.1597900390625 C 487.02691650390625 240.72076416015625 491.0145263671875 238.6822967529297 484.509765625 234.2382354736328 C 468.79876708984375 259.3250427246094 439.4819641113281 269.95623779296875 462.1274108886719 259.3854064941406 C 467.7963562011719 248.35968017578125 481.8062438964844 271.04266357421875 488.6022644042969 268.4902648925781" stroke-width="0.0" fill="rgb(66, 39, 222)" opacity="0.0" stroke="rgb(0, 0, 0)" stroke-opacity="1.0" stroke-linecap="round" stroke-linejoin="round"/>
    <path d="M 425.60784912109375 171.86550903320312 C 432.69580078125 187.26666259765625 425.2900390625 222.13722229003906 385.6146240234375 187.5041046142578 C 367.26959228515625 171.00503540039062 372.7060546875 161.6757354736328 364.8042297363281 141.28688049316406 C 369.9052429199219 99.7064437866211 387.04180908203125 85.4482650756836 406.3885803222656 119.30467987060547 C 412.2035827636719 155.97769165039062 418.7034912109375 172.35079956054688 425.60784912109375 171.86550903320312" stroke-width="0.0" fill="rgb(50, 196, 0)" opacity="0.21483935" stroke="rgb(0, 0, 0)" stroke-opacity="1.0" stroke-linecap="round" stroke-linejoin="round"/>
  </g>
</svg>
