<?xml version="1.0" ?>
<svg xmlns="http://www.w3.org/2000/svg" version="1.1" width="512" height="512">
  <defs/>
  <g>
    <path d="M 355.0190734863281 488.328369140625 C 327.8317565917969 481.19866943359375 282.3055114746094 516.4501953125 183.510498046875 533.1068725585938 C 58.0262565612793 511.33514404296875 29.279672622680664 424.72149658203125 0.3863474428653717 360.40155029296875 C -39.85917282104492 242.1597442626953 8.290548324584961 147.06626892089844 0.9437366724014282 207.77490234375 C 205.45098876953125 307.3074645996094 277.34600830078125 186.15887451171875 355.0190734863281 488.328369140625" stroke-width="0.0" fill="rgb(255, 144, 15)" opacity="0.74190044" stroke="rgb(0, 0, 0)" stroke-opacity="1.0" stroke-linecap="round" stroke-linejoin="round"/>
    <path d="M 333.4024963378906 68.93455505371094 C 149.91282653808594 56.716041564941406 62.02021789550781 115.03032684326172 42.76931381225586 162.065673828125 C -43.23476028442383 245.0080108642578 -18.185604095458984 188.14178466796875 11.0439453125 121.03970336914062 C 40.6552734375 77.40785217285156 89.8758773803711 30.07992935180664 141.8000030517578 -8.505252838134766 C 255.2667236328125 -67.19915008544922 392.44970703125 -17.074783325195312 333.4024963378906 68.93455505371094" stroke-width="0.0" fill="rgb(244, 151, 36)" opacity="0.84847766" stroke="rgb(0, 0, 0)" stroke-opacity="1.0" stroke-linecap="round" stroke-linejoin="round"/>
    <path d="M 369.02117919921875 210.2318115234375 C 403.8844909667969 290.91412353515625 446.7332458496094 269.2987365722656 334.299560546875 247.0202178955078 C 199.80177307128906 315.5519714355469 224.58348083496094 337.40679931640625 201.5257568359375 160.0021209716797 C 404.0082092285156 89.52583312988281 338.6770324707031 234.0151824951172 412.8244934082031 181.65301513671875 C 393.85797119140625 203.8542022705078 412.6169738769531 175.15896606445312 369.02117919921875 210.2318115234375" stroke-width="0.0" fill="rgb(135, 29, 22)" opacity="0.91634953" stroke="rgb(0, 0, 0)" stroke-opacity="1.0" stroke-linecap="round" stroke-linejoin="round"/>
    <path d="M 205.5925750732422 171.8952178955078 C 277.2265930175781 276.0550842285156 276.39599609375 252.3249053955078 241.00584411621094 342.21697998046875 C 92.66077423095703 227.9405059814453 92.73462677001953 220.3823699951172 98.89662170410156 172.1103973388672 C 124.49226379394531 137.27529907226562 164.9171600341797 136.41616821289062 136.9700164794922 194.18267822265625 C 185.86985778808594 133.43836975097656 144.4217987060547 208.8289337158203 205.5925750732422 171.8952178955078" stroke-width="0.0" fill="rgb(171, 248, 56)" opacity="0.9685745" stroke="rgb(0, 0, 0)" stroke-opacity="1.0" stroke-linecap="round" stroke-linejoin="round"/>
    <path d="M 502.8553161621094 395.1767272949219 C 491.8774108886719 453.498779296875 423.12750244140625 516.476318359375 326.92059326171875 535.6035766601562 C 170.08900451660156 499.4197692871094 215.39898681640625 523.25830078125 283.930908203125 443.3765563964844 C 207.05979919433594 240.86087036132812 241.1912384033203 222.46121215820312 379.7655944824219 266.3990173339844 C 519.0020751953125 273.3222961425781 471.0224609375 247.29039001464844 502.8553161621094 395.1767272949219" stroke-width="0.0" fill="rgb(202, 67, 22)" opacity="0.8156415" stroke="rgb(0, 0, 0)" stroke-opacity="1.0" stroke-linecap="round" stroke-linejoin="round"/>
    <path d="M 555.5762939453125 209.1111602783203 C 542.6957397460938 275.4126281738281 544.9783325195312 354.3992004394531 510.4358825683594 402.21990966796875 C 356.4587097167969 344.9125061035156 460.66217041015625 340.2889709472656 458.51123046875 212.78536987304688 C 413.2318420410156 76.77668762207031 240.56173706054688 72.78913879394531 343.84991455078125 -30.023086547851562 C 494.4830017089844 -10.486687660217285 565.4100952148438 112.89051818847656 555.5762939453125 209.1111602783203" stroke-width="0.0" fill="rgb(227, 94, 31)" opacity="0.75262845" stroke="rgb(0, 0, 0)" stroke-opacity="1.0" stroke-linecap="round" stroke-linejoin="round"/>
    <path d="M 323.8822326660156 298.5284118652344 C 300.5986633300781 385.3018798828125 405.1639404296875 443.86688232421875 355.8321228027344 438.4510803222656 C 273.137451171875 311.3787536621094 271.3158874511719 329.10589599609375 307.46307373046875 286.8719482421875 C 283.37152099609375 252.8756866455078 289.8611145019531 255.11964416503906 308.5787048339844 227.2053680419922 C 376.4848327636719 230.07681274414062 413.84149169921875 295.6165466308594 323.8822326660156 298.5284118652344" stroke-width="0.0" fill="rgb(181, 48, 19)" opacity="0.09375551" stroke="rgb(0, 0, 0)" stroke-opacity="1.0" stroke-linecap="round" stroke-linejoin="round"/>
    <path d="M 394.6923828125 198.93893432617188 C 384.4633483886719 210.9493408203125 371.399169921875 226.97752380371094 356.81573486328125 217.65159606933594 C 270.6404724121094 248.7050323486328 280.1818542480469 224.31613159179688 311.955322265625 210.32606506347656 C 312.8218078613281 167.96237182617188 270.6138610839844 172.66485595703125 424.4608459472656 132.62374877929688 C 428.10260009765625 197.61293029785156 378.6030578613281 208.91209411621094 394.6923828125 198.93893432617188" stroke-width="0.0" fill="rgb(114, 215, 50)" opacity="0.97317237" stroke="rgb(0, 0, 0)" stroke-opacity="1.0" stroke-linecap="round" stroke-linejoin="round"/>
    <path d="M 297.8426208496094 194.5341796875 C 168.96255493164062 301.41912841796875 292.2982482910156 403.7253112792969 250.1221160888672 318.8489074707031 C 357.5671081542969 165.2418975830078 172.7875213623047 337.538818359375 225.2576904296875 265.3907470703125 C 241.41925048828125 307.9384765625 170.3785400390625 263.19390869140625 214.5253448486328 252.52879333496094 C 299.52081298828125 267.931640625 197.9894561767578 222.6395721435547 297.8426208496094 194.5341796875" stroke-width="0.0" fill="rgb(205, 78, 24)" opacity="0.8553494" stroke="rgb(0, 0, 0)" stroke-opacity="1.0" stroke-linecap="round" stroke-linejoin="round"/>
    <path d="M 469.8606262207031 83.07183837890625 C 568.8814697265625 238.62843322753906 518.3439331054688 435.34893798828125 414.73785400390625 461.1201477050781 C 340.64849853515625 417.9114685058594 273.7699279785156 366.31829833984375 307.9173583984375 274.431640625 C 355.1595764160156 250.3583526611328 353.2838134765625 289.104248046875 362.6192321777344 209.34584045410156 C 384.74664306640625 246.76449584960938 440.9442443847656 248.5605010986328 469.8606262207031 83.07183837890625" stroke-width="0.0" fill="rgb(41, 72, 188)" opacity="1.0" stroke="rgb(0, 0, 0)" stroke-opacity="1.0" stroke-linecap="round" stroke-linejoin="round"/>
    <path d="M 244.70693969726562 417.224365234375 C 113.30905151367188 476.7231140136719 159.69525146484375 384.48736572265625 249.80419921875 519.7488403320312 C 122.97160339355469 510.2274475097656 29.917390823364258 419.0180358886719 16.57304573059082 312.3794250488281 C -13.361663818359375 188.6133575439453 56.3993034362793 21.369272232055664 149.80667114257812 250.62652587890625 C 272.274169921875 246.8933563232422 262.97589111328125 292.5395812988281 244.70693969726562 417.224365234375" stroke-width="0.0" fill="rgb(91, 61, 202)" opacity="0.9988106" stroke="rgb(0, 0, 0)" stroke-opacity="1.0" stroke-linecap="round" stroke-linejoin="round"/>
    <path d="M 491.12353515625 115.85636901855469 C 441.111328125 214.65280151367188 449.0046081542969 209.60166931152344 403.3422546386719 173.97865295410156 C 341.586181640625 97.29335021972656 306.3642883300781 74.08997344970703 256.5088195800781 61.36902618408203 C 152.48365783691406 75.36831665039062 191.20794677734375 87.739013671875 243.4715576171875 -5.295748710632324 C 356.10333251953125 -2.0949110984802246 455.6250305175781 42.350494384765625 491.12353515625 115.85636901855469" stroke-width="0.0" fill="rgb(80, 82, 217)" opacity="0.9728096" stroke="rgb(0, 0, 0)" stroke-opacity="1.0" stroke-linecap="round" stroke-linejoin="round"/>
    <path d="M 354.13818359375 393.20782470703125 C 344.9956970214844 414.4665832519531 298.3102111816406 411.1968688964844 163.80838012695312 402.6421813964844 C 181.29196166992188 419.05267333984375 207.0971221923828 364.81707763671875 242.21932983398438 390.9776916503906 C 187.5331268310547 451.9875793457031 249.4827880859375 440.0443115234375 286.0421142578125 388.054931640625 C 309.8410949707031 193.8175048828125 278.3880310058594 285.127685546875 354.13818359375 393.20782470703125" stroke-width="0.0" fill="rgb(109, 49, 137)" opacity="0.0030591558" stroke="rgb(0, 0, 0)" stroke-opacity="1.0" stroke-linecap="round" stroke-linejoin="round"/>
    <path d="M 459.66363525390625 453.7018737792969 C 430.66229248046875 469.7873840332031 384.8553466796875 508.6044616699219 294.7251892089844 517.3328857421875 C 247.64781188964844 536.53466796875 223.6141357421875 490.49200439453125 174.89706420898438 451.9796447753906 C 350.5178527832031 459.4068298339844 399.07501220703125 453.2623291015625 401.1275939941406 445.0372009277344 C 468.009521484375 460.23272705078125 490.72161865234375 423.55487060546875 459.66363525390625 453.7018737792969" stroke-width="0.0" fill="rgb(36, 79, 166)" opacity="0.9975614" stroke="rgb(0, 0, 0)" stroke-opacity="1.0" stroke-linecap="round" stroke-linejoin="round"/>
    <path d="M 372.7184143066406 11.525923728942871 C 280.49017333984375 -37.38529586791992 97.32705688476562 0.2014015167951584 130.2186737060547 90.03144073486328 C 243.89883422851562 138.22471618652344 181.66831970214844 -27.212560653686523 110.95223999023438 91.11341857910156 C 119.87791442871094 80.7191390991211 230.20748901367188 15.690256118774414 160.90029907226562 59.174434661865234 C 251.57275390625 108.1988296508789 123.2645492553711 131.40237426757812 372.7184143066406 11.525923728942871" stroke-width="0.0" fill="rgb(92, 81, 218)" opacity="0.97381353" stroke="rgb(0, 0, 0)" stroke-opacity="1.0" stroke-linecap="round" stroke-linejoin="round"/>
    <path d="M 307.4408874511719 142.66351318359375 C 330.9993591308594 164.58689880371094 305.4991760253906 199.5124053955078 420.2601318359375 174.0828094482422 C 409.79254150390625 88.35916900634766 321.9424743652344 33.61012268066406 215.5716094970703 64.7758560180664 C 166.929443359375 200.01866149902344 254.6700897216797 173.35321044921875 295.30413818359375 149.91683959960938 C 287.1822509765625 152.13987731933594 297.34930419921875 164.2867431640625 307.4408874511719 142.66351318359375" stroke-width="0.0" fill="rgb(162, 245, 68)" opacity="0.9890169" stroke="rgb(0, 0, 0)" stroke-opacity="1.0" stroke-linecap="round" stroke-linejoin="round"/>
    <path d="M 374.53485107421875 177.51768493652344 C 355.8505859375 171.98953247070312 349.6646423339844 168.06153869628906 362.25506591796875 161.68084716796875 C 365.5825500488281 165.1795196533203 333.81671142578125 153.69717407226562 295.2972106933594 208.69387817382812 C 366.15606689453125 244.3826904296875 370.4161682128906 261.18035888671875 403.4144287109375 181.61231994628906 C 346.25946044921875 173.75057983398438 355.8675537109375 189.3025360107422 374.53485107421875 177.51768493652344" stroke-width="0.0" fill="rgb(165, 254, 83)" opacity="0.27553397" stroke="rgb(0, 0, 0)" stroke-opacity="1.0" stroke-linecap="round" stroke-linejoin="round"/>
    <path d="M 448.7751159667969 147.021240234375 C 447.8889465332031 227.05264282226562 417.4490966796875 200.21192932128906 422.85260009765625 243.93585205078125 C 369.3406982421875 290.1928405761719 341.8438415527344 276.4344177246094 319.9973449707031 252.1806182861328 C 378.99444580078125 191.9173583984375 393.84906005859375 165.3629913330078 405.21514892578125 136.55148315429688 C 445.5235900878906 224.6746826171875 443.06085205078125 179.90536499023438 448.7751159667969 147.021240234375" stroke-width="0.0" fill="rgb(63, 216, 78)" opacity="1.0" stroke="rgb(0, 0, 0)" stroke-opacity="1.0" stroke-linecap="round" stroke-linejoin="round"/>
    <path d="M 307.0872802734375 138.45272827148438 C 289.9412536621094 171.87156677246094 270.5861511230469 192.24354553222656 253.90975952148438 222.71432495117188 C 248.27471923828125 205.7926788330078 235.85423278808594 190.85365295410156 200.4856719970703 140.15704345703125 C 291.1363525390625 113.07024383544922 287.80316162109375 137.48245239257812 306.3623046875 139.25526428222656 C 318.2355041503906 142.62844848632812 318.9253845214844 142.18870544433594 307.0872802734375 138.45272827148438" stroke-width="0.0" fill="rgb(167, 243, 65)" opacity="1.0" stroke="rgb(0, 0, 0)" stroke-opacity="1.0" stroke-linecap="round" stroke-linejoin="round"/>
    <path d="M 77.47139739990234 105.09378814697266 C 92.97109985351562 79.229248046875 49.8129768371582 106.49337005615234 23.621862411499023 180.7575225830078 C 137.1612091064453 255.98350524902344 96.88160705566406 211.13023376464844 113.49315643310547 171.52127075195312 C 165.25198364257812 131.29974365234375 224.23550415039062 142.0539093017578 190.37039184570312 14.280508041381836 C 62.9939079284668 57.41691970825195 53.406314849853516 119.5263900756836 77.47139739990234 105.09378814697266" stroke-width="0.0" fill="rgb(103, 67, 211)" opacity="1.0" stroke="rgb(0, 0, 0)" stroke-opacity="1.0" stroke-linecap="round" stroke-linejoin="round"/>
    <path d="M 306.0845642089844 271.3131408691406 C 303.1211853027344 274.9977111816406 306.6897277832031 289.0000915527344 261.38653564453125 269.59320068359375 C 226.6374969482422 278.73883056640625 245.8653106689453 271.2848815917969 259.0346984863281 231.0502471923828 C 234.17587280273438 227.2047882080078 262.5481262207031 204.9629669189453 294.79766845703125 210.0792236328125 C 290.0094299316406 246.97579956054688 289.7459411621094 229.784912109375 306.0845642089844 271.3131408691406" stroke-width="0.0" fill="rgb(176, 75, 48)" opacity="0.94883615" stroke="rgb(0, 0, 0)" stroke-opacity="1.0" stroke-linecap="round" stroke-linejoin="round"/>
    <path d="M 257.2379455566406 123.00725555419922 C 225.2554168701172 138.8297119140625 228.710205078125 136.9622802734375 195.0981903076172 189.5451202392578 C 150.03802490234375 230.76026916503906 143.16168212890625 218.9287109375 127.71626281738281 196.32028198242188 C 130.3190155029297 111.05320739746094 176.6315155029297 82.85724639892578 223.46192932128906 67.21604919433594 C 272.1087951660156 72.25222778320312 270.43389892578125 105.37517547607422 257.2379455566406 123.00725555419922" stroke-width="0.0" fill="rgb(194, 252, 66)" opacity="0.98404527" stroke="rgb(0, 0, 0)" stroke-opacity="1.0" stroke-linecap="round" stroke-linejoin="round"/>
    <path d="M 293.7275085449219 321.6871032714844 C 297.1684875488281 351.35107421875 242.4407196044922 360.0493469238281 249.87335205078125 421.5538024902344 C 285.2687683105469 377.24566650390625 288.47686767578125 373.26763916015625 327.4981384277344 363.7298889160156 C 256.7780456542969 356.9958190917969 259.06195068359375 303.9802551269531 295.2314758300781 285.8733215332031 C 269.1287841796875 344.8954772949219 274.1902160644531 328.229248046875 293.7275085449219 321.6871032714844" stroke-width="0.0" fill="rgb(179, 125, 24)" opacity="0.0" stroke="rgb(0, 0, 0)" stroke-opacity="1.0" stroke-linecap="round" stroke-linejoin="round"/>
    <path d="M 318.6114807128906 159.1250457763672 C 363.8431091308594 255.01112365722656 316.2122497558594 225.61509704589844 300.2262268066406 257.9101257324219 C 298.1280517578125 245.6828155517578 297.77825927734375 256.332763671875 305.130126953125 238.71435546875 C 310.9317321777344 231.08966064453125 314.55755615234375 276.2191467285156 268.5184631347656 265.59014892578125 C 257.61431884765625 248.82586669921875 259.5615234375 214.63868713378906 318.6114807128906 159.1250457763672" stroke-width="0.0" fill="rgb(117, 236, 59)" opacity="0.9846346" stroke="rgb(0, 0, 0)" stroke-opacity="1.0" stroke-linecap="round" stroke-linejoin="round"/>
    <path d="M 541.471923828125 96.99486541748047 C 529.4613647460938 141.3180694580078 519.564208984375 162.31106567382812 511.4102478027344 131.92971801757812 C 459.4952392578125 111.78289794921875 443.7344970703125 114.89058685302734 445.6562194824219 54.47164535522461 C 453.6546630859375 10.213191032409668 448.20367431640625 -0.008624296635389328 487.6531677246094 -20.659610748291016 C 548.052734375 14.581787109375 523.6743774414062 47.936668395996094 541.471923828125 96.99486541748047" stroke-width="0.0" fill="rgb(78, 203, 46)" opacity="0.9912056" stroke="rgb(0, 0, 0)" stroke-opacity="1.0" stroke-linecap="round" stroke-linejoin="round"/>
    <path d="M 119.52271270751953 478.3724365234375 C 117.10636901855469 542.2734985351562 109.87278747558594 539.568603515625 49.34550094604492 549.1801147460938 C 50.54743957519531 513.9116821289062 66.40582275390625 496.539306640625 36.435516357421875 466.2356262207031 C 47.716148376464844 477.702392578125 20.835359573364258 413.3553466796875 62.660953521728516 395.8077697753906 C 90.42635345458984 419.01202392578125 113.68448638916016 429.36273193359375 119.52271270751953 478.3724365234375" stroke-width="0.0" fill="rgb(84, 233, 91)" opacity="0.96173275" stroke="rgb(0, 0, 0)" stroke-opacity="1.0" stroke-linecap="round" stroke-linejoin="round"/>
    <path d="M 293.3497009277344 406.8481140136719 C 298.5158996582031 384.1077880859375 209.5195770263672 377.2778625488281 213.92950439453125 457.5466613769531 C 240.58680725097656 461.2845458984375 229.93130493164062 444.4380798339844 226.51551818847656 399.13470458984375 C 248.02999877929688 396.09027099609375 251.32254028320312 396.0589599609375 225.19430541992188 381.33551025390625 C 274.09710693359375 357.0891418457031 293.8931884765625 379.7841491699219 293.3497009277344 406.8481140136719" stroke-width="0.0" fill="rgb(177, 131, 25)" opacity="0.00031657636" stroke="rgb(0, 0, 0)" stroke-opacity="1.0" stroke-linecap="round" stroke-linejoin="round"/>
    <path d="M 75.43211364746094 426.47442626953125 C 37.903167724609375 486.8039245605469 33.18451690673828 503.72747802734375 -1.2384511232376099 521.6505737304688 C -5.2079668045043945 501.78802490234375 -20.986488342285156 506.18450927734375 -49.43233108520508 487.3329162597656 C -54.01072311401367 417.9764099121094 -77.64871978759766 393.30572509765625 3.1060094833374023 396.988525390625 C 50.85580062866211 379.2724304199219 95.20572662353516 416.7486877441406 75.43211364746094 426.47442626953125" stroke-width="0.0" fill="rgb(96, 204, 46)" opacity="0.9960047" stroke="rgb(0, 0, 0)" stroke-opacity="1.0" stroke-linecap="round" stroke-linejoin="round"/>
    <path d="M 527.6432495117188 442.4619445800781 C 533.1174926757812 511.4598388671875 532.705322265625 521.4187622070312 460.9580993652344 554.1358642578125 C 423.31695556640625 528.9542236328125 396.653564453125 496.07025146484375 432.7201232910156 435.1126708984375 C 461.3357238769531 406.64935302734375 480.922607421875 399.21234130859375 498.4482727050781 394.9013977050781 C 505.11602783203125 372.8281555175781 514.4524536132812 385.68072509765625 527.6432495117188 442.4619445800781" stroke-width="0.0" fill="rgb(21, 165, 50)" opacity="0.9984363" stroke="rgb(0, 0, 0)" stroke-opacity="1.0" stroke-linecap="round" stroke-linejoin="round"/>
    <path d="M 363.85345458984375 397.107421875 C 368.2515869140625 440.0057067871094 377.296630859375 434.988525390625 320.46246337890625 426.6761474609375 C 315.4836730957031 425.3427429199219 305.29718017578125 408.4708251953125 304.4072570800781 393.0616760253906 C 306.6901550292969 402.48760986328125 294.758544921875 342.6473388671875 314.92376708984375 343.2344665527344 C 352.8197326660156 359.90643310546875 357.2073974609375 373.50555419921875 363.85345458984375 397.107421875" stroke-width="0.0" fill="rgb(46, 141, 84)" opacity="0.995417" stroke="rgb(0, 0, 0)" stroke-opacity="1.0" stroke-linecap="round" stroke-linejoin="round"/>
    <path d="M 66.96033477783203 524.4868774414062 C 77.81202697753906 516.1946411132812 50.95014953613281 516.3572998046875 15.088953018188477 526.9402465820312 C 2.5686471462249756 516.5128173828125 -4.220098972320557 511.42901611328125 -42.601234436035156 476.39349365234375 C -28.405193328857422 462.4952697753906 5.180732250213623 471.39788818359375 38.84070587158203 459.90771484375 C 59.757625579833984 441.91583251953125 61.4512939453125 454.2287292480469 66.96033477783203 524.4868774414062" stroke-width="0.0" fill="rgb(111, 250, 66)" opacity="0.9975714" stroke="rgb(0, 0, 0)" stroke-opacity="1.0" stroke-linecap="round" stroke-linejoin="round"/>
    <path d="M 548.180419921875 212.26016235351562 C 529.7228393554688 222.02659606933594 497.33831787109375 206.7638397216797 482.9492492675781 210.7532501220703 C 487.572509765625 211.06204223632812 492.85400390625 206.0244903564453 475.9603271484375 179.6173858642578 C 446.3990783691406 189.16578674316406 469.1038818359375 194.73590087890625 517.95166015625 169.47137451171875 C 526.601318359375 183.42918395996094 529.6181640625 177.2206573486328 548.180419921875 212.26016235351562" stroke-width="0.0" fill="rgb(123, 12, 140)" opacity="0.57337517" stroke="rgb(0, 0, 0)" stroke-opacity="1.0" stroke-linecap="round" stroke-linejoin="round"/>
    <path d="M 259.2977294921875 242.57395935058594 C 256.5810852050781 291.6498718261719 251.8150634765625 277.2773132324219 251.27696228027344 282.09521484375 C 251.97430419921875 303.0588073730469 264.1962585449219 288.79168701171875 235.06350708007812 278.3377685546875 C 211.9513702392578 252.33006286621094 203.75875854492188 246.4414825439453 236.90980529785156 264.5275573730469 C 242.5465850830078 261.6199035644531 260.7827453613281 230.52627563476562 259.2977294921875 242.57395935058594" stroke-width="0.0" fill="rgb(199, 99, 59)" opacity="1.0" stroke="rgb(0, 0, 0)" stroke-opacity="1.0" stroke-linecap="round" stroke-linejoin="round"/>
    <path d="M 442.5948791503906 151.28819274902344 C 445.0199279785156 171.74148559570312 419.3184509277344 168.8343505859375 412.8802185058594 170.93565368652344 C 431.3865051269531 188.82456970214844 433.5729675292969 174.53189086914062 432.4019775390625 139.40164184570312 C 414.63848876953125 141.61717224121094 394.301513671875 136.6442413330078 409.96435546875 133.0615234375 C 432.9884948730469 130.90432739257812 422.736328125 167.85386657714844 442.5948791503906 151.28819274902344" stroke-width="0.0" fill="rgb(41, 119, 151)" opacity="0.7061543" stroke="rgb(0, 0, 0)" stroke-opacity="1.0" stroke-linecap="round" stroke-linejoin="round"/>
    <path d="M 470.2497253417969 478.7603759765625 C 463.7547607421875 531.5778198242188 474.2578430175781 547.6622314453125 443.2297668457031 530.03857421875 C 410.1811828613281 514.88037109375 387.76116943359375 507.5079650878906 397.39215087890625 495.55487060546875 C 418.84173583984375 476.2939147949219 416.4620666503906 452.06787109375 437.52691650390625 418.8900146484375 C 473.94415283203125 442.58331298828125 466.9507141113281 459.2106628417969 470.2497253417969 478.7603759765625" stroke-width="0.0" fill="rgb(65, 160, 69)" opacity="0.5219763" stroke="rgb(0, 0, 0)" stroke-opacity="1.0" stroke-linecap="round" stroke-linejoin="round"/>
    <path d="M 229.87232971191406 85.05040740966797 C 201.50601196289062 85.34945678710938 172.4123992919922 83.08300018310547 174.31405639648438 62.17885208129883 C 182.7342071533203 63.9715576171875 197.3091278076172 62.721160888671875 191.69247436523438 86.0042495727539 C 176.78067016601562 75.95390319824219 182.1634063720703 68.03124237060547 207.31201171875 73.12664794921875 C 205.25697326660156 59.2493782043457 222.63763427734375 61.52595901489258 229.87232971191406 85.05040740966797" stroke-width="0.0" fill="rgb(107, 178, 70)" opacity="0.012491168" stroke="rgb(0, 0, 0)" stroke-opacity="1.0" stroke-linecap="round" stroke-linejoin="round"/>
    <path d="M 476.0353088378906 -17.615249633789062 C 483.76361083984375 -10.985285758972168 478.8041076660156 9.32802963256836 468.83221435546875 40.81810760498047 C 440.08404541015625 41.6881103515625 413.4601745605469 29.18083953857422 391.10980224609375 9.970236778259277 C 383.2518310546875 -16.618858337402344 386.1532897949219 -23.266931533813477 410.96630859375 -28.115314483642578 C 475.2845764160156 -15.137412071228027 483.57513427734375 -9.005395889282227 476.0353088378906 -17.615249633789062" stroke-width="0.0" fill="rgb(41, 240, 77)" opacity="0.8133873" stroke="rgb(0, 0, 0)" stroke-opacity="1.0" stroke-linecap="round" stroke-linejoin="round"/>
    <path d="M 545.6695556640625 24.847700119018555 C 534.2913208007812 51.01530075073242 504.1866455078125 49.87179183959961 485.2027282714844 41.980560302734375 C 464.2760925292969 37.334285736083984 453.20941162109375 38.40793228149414 433.23052978515625 30.263853073120117 C 417.189697265625 -24.641475677490234 424.35284423828125 -45.56504440307617 450.8806457519531 -54.639808654785156 C 513.3515625 -7.466573715209961 521.2838745117188 -2.8233680725097656 545.6695556640625 24.847700119018555" stroke-width="0.0" fill="rgb(25, 238, 55)" opacity="0.9892508" stroke="rgb(0, 0, 0)" stroke-opacity="1.0" stroke-linecap="round" stroke-linejoin="round"/>
    <path d="M 203.771728515625 437.7391357421875 C 198.26039123535156 442.3155212402344 187.37936401367188 457.0128479003906 178.52284240722656 461.9971618652344 C 175.2773895263672 464.7744140625 175.91448974609375 442.2825622558594 187.4027862548828 433.15185546875 C 173.50198364257812 451.4534606933594 185.9407958984375 429.138427734375 188.78964233398438 442.6541442871094 C 204.42404174804688 441.9886169433594 205.0271759033203 426.1872863769531 203.771728515625 437.7391357421875" stroke-width="0.0" fill="rgb(91, 110, 199)" opacity="0.7258977" stroke="rgb(0, 0, 0)" stroke-opacity="1.0" stroke-linecap="round" stroke-linejoin="round"/>
    <path d="M 355.5841064453125 225.22735595703125 C 372.4609680175781 248.3917999267578 368.8269958496094 266.71881103515625 345.95208740234375 260.4256896972656 C 325.4376525878906 264.2677917480469 327.8453369140625 249.5240936279297 324.222900390625 213.622802734375 C 339.72686767578125 212.777587890625 336.64208984375 193.74853515625 345.24932861328125 200.3344268798828 C 351.7008972167969 218.99468994140625 351.7252502441406 229.7635955810547 355.5841064453125 225.22735595703125" stroke-width="0.0" fill="rgb(59, 220, 38)" opacity="0.97072995" stroke="rgb(0, 0, 0)" stroke-opacity="1.0" stroke-linecap="round" stroke-linejoin="round"/>
    <path d="M 191.52919006347656 245.88548278808594 C 192.39065551757812 258.93707275390625 202.9839324951172 271.0820007324219 171.92369079589844 260.1298828125 C 175.69993591308594 279.05877685546875 152.01539611816406 273.9832458496094 143.43275451660156 246.5216827392578 C 153.9365997314453 241.7785186767578 183.1566925048828 265.86029052734375 163.5491943359375 236.99440002441406 C 179.76129150390625 219.95298767089844 200.77362060546875 235.63336181640625 191.52919006347656 245.88548278808594" stroke-width="0.0" fill="rgb(72, 215, 19)" opacity="0.893649" stroke="rgb(0, 0, 0)" stroke-opacity="1.0" stroke-linecap="round" stroke-linejoin="round"/>
    <path d="M 245.9231719970703 433.00311279296875 C 220.506103515625 461.92803955078125 204.5543212890625 458.0274963378906 164.1148681640625 453.43902587890625 C 151.27919006347656 441.9404602050781 143.8023223876953 446.2766418457031 156.97764587402344 446.79937744140625 C 155.8286895751953 431.3211364746094 186.5393829345703 426.4823913574219 185.79318237304688 429.6031188964844 C 186.29693603515625 433.5299377441406 241.75596618652344 423.1962890625 245.9231719970703 433.00311279296875" stroke-width="0.0" fill="rgb(255, 200, 63)" opacity="0.91656965" stroke="rgb(0, 0, 0)" stroke-opacity="1.0" stroke-linecap="round" stroke-linejoin="round"/>
    <path d="M 220.16928100585938 246.57461547851562 C 227.50320434570312 264.9024353027344 211.0425567626953 287.3968505859375 191.7712860107422 280.1788635253906 C 171.22750854492188 261.8296203613281 164.3795166015625 256.8670654296875 139.73388671875 245.2510223388672 C 126.81806945800781 223.94520568847656 159.8897247314453 230.13632202148438 179.3239288330078 223.13270568847656 C 208.96505737304688 223.42909240722656 191.84747314453125 249.4512176513672 220.16928100585938 246.57461547851562" stroke-width="0.0" fill="rgb(123, 228, 35)" opacity="0.9866674" stroke="rgb(0, 0, 0)" stroke-opacity="1.0" stroke-linecap="round" stroke-linejoin="round"/>
    <path d="M 217.7411346435547 94.02949523925781 C 225.70155334472656 99.09308624267578 238.12477111816406 105.11768341064453 217.71957397460938 75.96050262451172 C 202.11819458007812 84.46602630615234 192.44973754882812 75.232421875 194.14051818847656 86.10163116455078 C 192.8658447265625 55.115028381347656 197.85272216796875 50.53654861450195 203.08926391601562 78.52363586425781 C 206.07159423828125 84.71600341796875 215.5199737548828 96.299072265625 217.7411346435547 94.02949523925781" stroke-width="0.0" fill="rgb(146, 239, 36)" opacity="0.010211562" stroke="rgb(0, 0, 0)" stroke-opacity="1.0" stroke-linecap="round" stroke-linejoin="round"/>
    <path d="M 24.8212947845459 118.351318359375 C 33.0339241027832 140.4739532470703 43.30596923828125 161.68243408203125 15.639765739440918 166.29428100585938 C -2.692753314971924 172.23159790039062 -6.502055644989014 156.5237579345703 -35.24553298950195 107.33196258544922 C -27.522703170776367 64.96621704101562 -41.286434173583984 16.214874267578125 22.719470977783203 -5.18151330947876 C 63.49778366088867 72.20912170410156 43.34024429321289 112.3353271484375 24.8212947845459 118.351318359375" stroke-width="0.0" fill="rgb(132, 219, 75)" opacity="0.975297" stroke="rgb(0, 0, 0)" stroke-opacity="1.0" stroke-linecap="round" stroke-linejoin="round"/>
    <path d="M 380.1405334472656 104.52208709716797 C 382.2604675292969 111.63934326171875 374.0615539550781 117.90319061279297 377.4071350097656 106.34178161621094 C 369.8686828613281 122.24671173095703 366.4572448730469 116.80147552490234 361.6852111816406 110.97268676757812 C 332.3294982910156 96.15637969970703 350.1217956542969 74.67202758789062 357.7309875488281 90.57181549072266 C 375.8355407714844 98.49032592773438 380.3997802734375 100.97704315185547 380.1405334472656 104.52208709716797" stroke-width="0.0" fill="rgb(85, 238, 86)" opacity="0.04738048" stroke="rgb(0, 0, 0)" stroke-opacity="1.0" stroke-linecap="round" stroke-linejoin="round"/>
    <path d="M 37.25963592529297 484.3609619140625 C 60.383079528808594 466.07806396484375 43.790245056152344 476.1676025390625 16.993362426757812 475.0968017578125 C 14.365222930908203 464.4589538574219 6.3314409255981445 474.8414306640625 40.87272262573242 483.3672180175781 C 29.84087371826172 480.51580810546875 43.75566482543945 465.7382507324219 41.56825256347656 470.09075927734375 C 30.837507247924805 481.3019714355469 11.169755935668945 478.33782958984375 37.25963592529297 484.3609619140625" stroke-width="0.0" fill="rgb(108, 234, 55)" opacity="0.002578151" stroke="rgb(0, 0, 0)" stroke-opacity="1.0" stroke-linecap="round" stroke-linejoin="round"/>
    <path d="M 154.27796936035156 247.31668090820312 C 143.71737670898438 262.3780822753906 154.1546630859375 250.9339599609375 152.53549194335938 258.2023010253906 C 146.34608459472656 263.27203369140625 138.08412170410156 239.16128540039062 132.9932098388672 253.2204132080078 C 122.84593963623047 242.43910217285156 133.8671417236328 213.60711669921875 140.53219604492188 229.0086212158203 C 140.2508544921875 232.40956115722656 154.49517822265625 239.90850830078125 154.27796936035156 247.31668090820312" stroke-width="0.0" fill="rgb(201, 247, 95)" opacity="0.8645439" stroke="rgb(0, 0, 0)" stroke-opacity="1.0" stroke-linecap="round" stroke-linejoin="round"/>
    <path d="M 278.4776611328125 14.090576171875 C 293.6964416503906 31.98771095275879 283.6597595214844 41.25867462158203 283.5746765136719 23.698781967163086 C 272.6963806152344 17.23237419128418 264.2624816894531 4.108292102813721 274.2382507324219 8.717863082885742 C 262.188720703125 -12.26845645904541 259.4521179199219 -24.18701171875 273.0592346191406 -25.9521484375 C 281.6707458496094 -14.302871704101562 286.44964599609375 -7.315250396728516 278.4776611328125 14.090576171875" stroke-width="0.0" fill="rgb(83, 98, 221)" opacity="0.0" stroke="rgb(0, 0, 0)" stroke-opacity="1.0" stroke-linecap="round" stroke-linejoin="round"/>
    <path d="M 534.18017578125 246.78395080566406 C 524.046875 256.45794677734375 516.8931274414062 267.6753845214844 516.9960327148438 257.00689697265625 C 517.3177490234375 251.2666015625 508.3818664550781 241.60452270507812 502.1726379394531 247.5347442626953 C 521.4288330078125 248.03260803222656 514.6209716796875 234.01019287109375 521.4595947265625 225.84957885742188 C 526.2696533203125 230.32701110839844 535.1322631835938 236.9660186767578 534.18017578125 246.78395080566406" stroke-width="0.0" fill="rgb(35, 93, 158)" opacity="0.0038092604" stroke="rgb(0, 0, 0)" stroke-opacity="1.0" stroke-linecap="round" stroke-linejoin="round"/>
    <path d="M 264.31109619140625 411.9800109863281 C 270.83538818359375 407.88519287109375 267.96612548828125 412.3311462402344 246.17630004882812 406.43707275390625 C 242.1773223876953 430.34088134765625 257.6563415527344 422.7268981933594 245.99935913085938 421.11077880859375 C 251.13031005859375 395.24017333984375 245.1005096435547 383.86431884765625 247.67953491210938 377.38482666015625 C 243.8477325439453 381.9905700683594 244.12278747558594 400.076904296875 264.31109619140625 411.9800109863281" stroke-width="0.0" fill="rgb(152, 181, 37)" opacity="0.3714757" stroke="rgb(0, 0, 0)" stroke-opacity="1.0" stroke-linecap="round" stroke-linejoin="round"/>
    <path d="M 59.289756774902344 120.81880187988281 C 107.72867584228516 133.5205841064453 81.76836395263672 134.14599609375 91.63050079345703 118.80950927734375 C 96.23300170898438 125.14958190917969 49.670738220214844 121.08969116210938 61.52785110473633 127.56387329101562 C 46.99435806274414 169.55789184570312 49.41632080078125 150.5897979736328 74.3350830078125 99.2210922241211 C 58.023948669433594 74.77033233642578 34.43394470214844 106.1821060180664 59.289756774902344 120.81880187988281" stroke-width="0.0" fill="rgb(112, 123, 107)" opacity="0.014578796" stroke="rgb(0, 0, 0)" stroke-opacity="1.0" stroke-linecap="round" stroke-linejoin="round"/>
    <path d="M 446.7908630371094 229.26612854003906 C 467.72821044921875 233.97044372558594 442.3026428222656 226.19833374023438 449.4278869628906 258.0821533203125 C 424.23876953125 243.3376007080078 405.7679138183594 222.93551635742188 411.99737548828125 213.22801208496094 C 421.5981140136719 218.95697021484375 420.0408020019531 204.1821746826172 430.3149719238281 211.0637969970703 C 452.7579345703125 215.27162170410156 447.5766906738281 236.329345703125 446.7908630371094 229.26612854003906" stroke-width="0.0" fill="rgb(54, 117, 153)" opacity="0.0" stroke="rgb(0, 0, 0)" stroke-opacity="1.0" stroke-linecap="round" stroke-linejoin="round"/>
    <path d="M 357.8736572265625 376.3053283691406 C 390.5946960449219 354.6600036621094 375.1416015625 381.55987548828125 371.6829833984375 346.3287353515625 C 366.000732421875 375.86114501953125 331.4752502441406 371.2629089355469 313.5858154296875 376.1968688964844 C 308.930908203125 351.5174255371094 322.5115051269531 343.1809997558594 332.8835754394531 346.9394226074219 C 314.4497985839844 362.30438232421875 319.3368225097656 391.80938720703125 357.8736572265625 376.3053283691406" stroke-width="0.0" fill="rgb(17, 128, 98)" opacity="0.00070281967" stroke="rgb(0, 0, 0)" stroke-opacity="1.0" stroke-linecap="round" stroke-linejoin="round"/>
    <path d="M 371.7463073730469 202.40985107421875 C 377.79248046875 196.24867248535156 369.6385803222656 216.5896453857422 353.99310302734375 211.11553955078125 C 340.3948974609375 220.27935791015625 291.6153869628906 193.91555786132812 341.4774475097656 220.4557647705078 C 351.8992614746094 189.0234375 372.2873229980469 166.21444702148438 356.802001953125 193.7592315673828 C 374.28515625 183.52342224121094 373.3092041015625 187.29901123046875 371.7463073730469 202.40985107421875" stroke-width="0.0" fill="rgb(114, 254, 53)" opacity="0.088124715" stroke="rgb(0, 0, 0)" stroke-opacity="1.0" stroke-linecap="round" stroke-linejoin="round"/>
    <path d="M 92.57093048095703 446.69232177734375 C 103.06575775146484 452.694580078125 101.63336944580078 452.75762939453125 70.71661376953125 445.0672607421875 C 58.27325439453125 451.5362854003906 60.871429443359375 451.3415832519531 91.15421295166016 445.6014404296875 C 95.03539276123047 438.29840087890625 91.86968231201172 439.0518798828125 110.38094329833984 433.6502990722656 C 102.83360290527344 434.44610595703125 92.08782196044922 440.79083251953125 92.57093048095703 446.69232177734375" stroke-width="0.0" fill="rgb(100, 225, 64)" opacity="0.0005995662" stroke="rgb(0, 0, 0)" stroke-opacity="1.0" stroke-linecap="round" stroke-linejoin="round"/>
    <path d="M 67.91234588623047 465.150146484375 C 66.5082778930664 425.8883361816406 94.92179107666016 490.6757507324219 89.40831756591797 475.57745361328125 C 52.325157165527344 508.09765625 38.40951156616211 490.8609313964844 52.57740783691406 477.3047790527344 C 82.5626220703125 469.0741271972656 100.82648468017578 466.93756103515625 118.8482666015625 432.67059326171875 C 86.93490600585938 426.0858154296875 73.4007568359375 463.763427734375 67.91234588623047 465.150146484375" stroke-width="0.0" fill="rgb(88, 204, 109)" opacity="0.06324795" stroke="rgb(0, 0, 0)" stroke-opacity="1.0" stroke-linecap="round" stroke-linejoin="round"/>
    <path d="M 446.0489196777344 76.22615814208984 C 431.21929931640625 84.06459045410156 429.8556823730469 81.42498016357422 442.411376953125 49.75861358642578 C 446.44610595703125 49.83889389038086 441.8507385253906 45.1879768371582 424.81817626953125 42.4931755065918 C 431.49365234375 77.4236068725586 442.043212890625 56.942745208740234 464.6837158203125 29.708786010742188 C 451.0507507324219 43.80707931518555 462.7485656738281 54.8764762878418 446.0489196777344 76.22615814208984" stroke-width="0.0" fill="rgb(174, 113, 72)" opacity="0.013530701" stroke="rgb(0, 0, 0)" stroke-opacity="1.0" stroke-linecap="round" stroke-linejoin="round"/>
    <path d="M 311.38592529296875 162.1004638671875 C 338.0053405761719 154.56356811523438 305.4717712402344 159.1266326904297 287.4129943847656 155.51132202148438 C 294.7064514160156 204.30064392089844 275.878662109375 208.6856231689453 277.4898681640625 200.11093139648438 C 292.7433776855469 177.29278564453125 293.9443664550781 165.1636199951172 308.74359130859375 150.80172729492188 C 316.2117614746094 140.51683044433594 319.90679931640625 180.9518585205078 311.38592529296875 162.1004638671875" stroke-width="0.0" fill="rgb(183, 133, 97)" opacity="0.039726418" stroke="rgb(0, 0, 0)" stroke-opacity="1.0" stroke-linecap="round" stroke-linejoin="round"/>
    <path d="M 159.5499725341797 17.836393356323242 C 165.91725158691406 56.27106475830078 167.13070678710938 65.843994140625 131.46571350097656 51.98579788208008 C 124.33013153076172 50.6220817565918 110.17240905761719 50.23834991455078 91.05413055419922 14.563377380371094 C 75.67987823486328 -24.282167434692383 77.26207733154297 -25.603307723999023 125.31913757324219 -10.168988227844238 C 147.6745147705078 12.254826545715332 155.1638641357422 12.38798713684082 159.5499725341797 17.836393356323242" stroke-width="0.0" fill="rgb(68, 252, 37)" opacity="1.0" stroke="rgb(0, 0, 0)" stroke-opacity="1.0" stroke-linecap="round" stroke-linejoin="round"/>
    <path d="M 192.6269989013672 349.0621032714844 C 224.27880859375 372.9713439941406 204.13792419433594 381.9248962402344 177.35411071777344 367.3271789550781 C 192.4701385498047 341.7650146484375 173.2554473876953 328.85125732421875 196.82276916503906 344.865234375 C 183.49630737304688 364.50494384765625 211.1523895263672 329.04559326171875 195.47412109375 313.94903564453125 C 203.06968688964844 330.1268615722656 209.7801513671875 319.5486145019531 192.6269989013672 349.0621032714844" stroke-width="0.0" fill="rgb(110, 129, 217)" opacity="0.0" stroke="rgb(0, 0, 0)" stroke-opacity="1.0" stroke-linecap="round" stroke-linejoin="round"/>
    <path d="M 53.02426528930664 326.8497009277344 C 60.85134506225586 335.3357849121094 42.72720718383789 345.52874755859375 -1.231780767440796 343.60650634765625 C -11.28750991821289 350.8735656738281 -17.32994842529297 351.9149169921875 -7.836082935333252 332.413818359375 C -0.411628782749176 305.8448791503906 -9.902968406677246 299.16156005859375 7.960695266723633 302.3960876464844 C 27.585205078125 298.5187072753906 39.395263671875 315.7975158691406 53.02426528930664 326.8497009277344" stroke-width="0.0" fill="rgb(64, 242, 23)" opacity="0.9659093" stroke="rgb(0, 0, 0)" stroke-opacity="1.0" stroke-linecap="round" stroke-linejoin="round"/>
    <path d="M 438.470703125 444.0386657714844 C 428.86236572265625 453.9811096191406 414.5919494628906 449.4004211425781 414.1676025390625 456.9936218261719 C 409.35260009765625 436.31549072265625 399.0540771484375 426.34466552734375 400.3218994140625 433.469482421875 C 401.81695556640625 431.6024475097656 400.8796081542969 423.5156555175781 412.4610900878906 434.94720458984375 C 413.5587463378906 436.90301513671875 418.9263610839844 440.2948913574219 438.470703125 444.0386657714844" stroke-width="0.0" fill="rgb(44, 74, 152)" opacity="0.0" stroke="rgb(0, 0, 0)" stroke-opacity="1.0" stroke-linecap="round" stroke-linejoin="round"/>
    <path d="M 160.2029266357422 252.2222442626953 C 155.157470703125 280.7861022949219 142.51187133789062 290.6393737792969 137.32716369628906 311.73004150390625 C 106.85719299316406 319.3034362792969 106.96239471435547 296.16162109375 112.18158721923828 274.0038146972656 C 110.86035919189453 258.14031982421875 109.94926452636719 249.03182983398438 121.05501556396484 235.3418426513672 C 160.14102172851562 219.28648376464844 175.7329864501953 221.1946563720703 160.2029266357422 252.2222442626953" stroke-width="0.0" fill="rgb(61, 98, 179)" opacity="0.016622715" stroke="rgb(0, 0, 0)" stroke-opacity="1.0" stroke-linecap="round" stroke-linejoin="round"/>
  </g>
</svg>
