<?xml version="1.0" ?>
<svg xmlns="http://www.w3.org/2000/svg" version="1.1" width="512" height="512">
  <defs/>
  <g>
    <path d="M 512.2288818359375 437.41937255859375 C 431.6625671386719 427.3817138671875 391.2525329589844 529.7138061523438 517.4868774414062 529.6768798828125 C 588.3580322265625 423.6969909667969 509.4303894042969 460.37274169921875 473.6534729003906 464.1443786621094 C 468.45648193359375 496.5747985839844 475.7395324707031 495.012451171875 490.09136962890625 415.4947509765625 C 507.13885498046875 407.94085693359375 536.9270629882812 415.0972595214844 512.2288818359375 437.41937255859375" stroke-width="0.0" fill="rgb(52, 68, 95)" opacity="0.8819076" stroke="rgb(0, 0, 0)" stroke-opacity="1.0" stroke-linecap="round" stroke-linejoin="round"/>
    <path d="M 274.28009033203125 508.6680603027344 C 276.7406005859375 525.9581909179688 191.5481719970703 559.48193359375 115.36383056640625 449.12713623046875 C 44.750186920166016 415.2227478027344 150.24612426757812 394.7892761230469 -49.624420166015625 353.9524230957031 C 42.89243698120117 211.0126953125 -40.676700592041016 283.73809814453125 -45.4302864074707 167.79336547851562 C 83.70732879638672 49.32433319091797 204.3289031982422 193.6243896484375 274.28009033203125 508.6680603027344" stroke-width="0.0" fill="rgb(75, 233, 22)" opacity="0.8619847" stroke="rgb(0, 0, 0)" stroke-opacity="1.0" stroke-linecap="round" stroke-linejoin="round"/>
    <path d="M 458.36236572265625 128.41580200195312 C 480.4678039550781 297.577880859375 434.8232421875 328.6124572753906 281.56060791015625 350.267333984375 C 168.28541564941406 348.9531555175781 136.12979125976562 351.3954772949219 253.7223358154297 83.88255310058594 C 157.66017150878906 92.93257904052734 199.02194213867188 49.19844436645508 390.541259765625 40.402870178222656 C 429.5491943359375 136.55726623535156 485.920654296875 72.27734375 458.36236572265625 128.41580200195312" stroke-width="0.0" fill="rgb(67, 255, 16)" opacity="0.97130406" stroke="rgb(0, 0, 0)" stroke-opacity="1.0" stroke-linecap="round" stroke-linejoin="round"/>
    <path d="M 364.6867370605469 128.6671600341797 C 372.768798828125 351.07257080078125 259.8915100097656 398.5644226074219 165.93592834472656 329.6184997558594 C 28.530010223388672 205.50747680664062 -33.617164611816406 263.77557373046875 48.985477447509766 157.5708770751953 C 63.38286209106445 89.76966094970703 180.96975708007812 108.7423095703125 147.45823669433594 53.416664123535156 C 224.4340362548828 -17.5676212310791 282.0858154296875 -9.035782814025879 364.6867370605469 128.6671600341797" stroke-width="0.0" fill="rgb(158, 133, 142)" opacity="0.9794774" stroke="rgb(0, 0, 0)" stroke-opacity="1.0" stroke-linecap="round" stroke-linejoin="round"/>
    <path d="M 440.6914978027344 380.5010681152344 C 383.7654724121094 502.9398193359375 330.2737121582031 340.75384521484375 415.5290222167969 468.3101501464844 C 229.75514221191406 504.8843078613281 320.6185302734375 487.1546936035156 321.6522521972656 420.9330139160156 C 257.07269287109375 238.20254516601562 275.9994812011719 292.4871520996094 299.989990234375 188.33982849121094 C 439.3276062011719 87.92581939697266 556.765869140625 153.18209838867188 440.6914978027344 380.5010681152344" stroke-width="0.0" fill="rgb(156, 109, 148)" opacity="0.87733907" stroke="rgb(0, 0, 0)" stroke-opacity="1.0" stroke-linecap="round" stroke-linejoin="round"/>
    <path d="M 502.2975158691406 225.36695861816406 C 549.7880859375 315.75482177734375 493.7530212402344 226.83010864257812 567.7650756835938 354.3603820800781 C 458.91986083984375 430.630859375 267.63232421875 330.17352294921875 447.8559265136719 191.2987518310547 C 303.932861328125 199.7220458984375 368.4281005859375 132.5733184814453 415.00067138671875 129.04164123535156 C 457.0531311035156 192.296630859375 485.6060485839844 158.5958709716797 502.2975158691406 225.36695861816406" stroke-width="0.0" fill="rgb(0, 106, 31)" opacity="0.970029" stroke="rgb(0, 0, 0)" stroke-opacity="1.0" stroke-linecap="round" stroke-linejoin="round"/>
    <path d="M 426.21026611328125 214.59022521972656 C 318.8534240722656 273.4229736328125 313.85589599609375 272.0417785644531 285.48492431640625 291.1415100097656 C 234.04574584960938 300.0977783203125 299.02532958984375 332.88519287109375 24.261077880859375 183.71568298339844 C 320.78753662109375 211.73802185058594 194.57046508789062 288.2886657714844 287.8455505371094 252.3167724609375 C 356.2186279296875 214.5653533935547 433.58587646484375 170.0030975341797 426.21026611328125 214.59022521972656" stroke-width="0.0" fill="rgb(43, 249, 19)" opacity="0.9535171" stroke="rgb(0, 0, 0)" stroke-opacity="1.0" stroke-linecap="round" stroke-linejoin="round"/>
    <path d="M 398.76226806640625 206.0771942138672 C 412.9921569824219 212.3138885498047 393.7843933105469 218.77944946289062 342.5838623046875 213.76974487304688 C 308.65765380859375 230.64474487304688 332.82293701171875 221.8323211669922 266.3436584472656 230.49668884277344 C 297.4667053222656 66.46902465820312 209.34283447265625 179.05477905273438 355.05743408203125 152.19219970703125 C 403.4729919433594 169.64051818847656 520.8792114257812 214.061767578125 398.76226806640625 206.0771942138672" stroke-width="0.0" fill="rgb(11, 26, 43)" opacity="0.7285625" stroke="rgb(0, 0, 0)" stroke-opacity="1.0" stroke-linecap="round" stroke-linejoin="round"/>
    <path d="M 282.83697509765625 280.551025390625 C 248.01864624023438 300.18865966796875 271.43890380859375 257.0347595214844 270.7350158691406 261.8306579589844 C 247.52359008789062 251.77552795410156 216.0976104736328 253.7205352783203 127.28141784667969 198.65257263183594 C 221.26287841796875 181.14112854003906 137.37380981445312 235.34231567382812 217.58416748046875 212.78561401367188 C 252.86537170410156 212.6044921875 256.49420166015625 263.18023681640625 282.83697509765625 280.551025390625" stroke-width="0.0" fill="rgb(200, 142, 139)" opacity="0.811045" stroke="rgb(0, 0, 0)" stroke-opacity="1.0" stroke-linecap="round" stroke-linejoin="round"/>
    <path d="M 453.11199951171875 223.2883758544922 C 273.7084655761719 287.21173095703125 537.4373779296875 236.0792236328125 459.1806945800781 374.37982177734375 C 207.32705688476562 358.21917724609375 244.6234130859375 365.68914794921875 242.5902099609375 366.6286926269531 C 383.64678955078125 256.6140441894531 388.1595458984375 256.32684326171875 407.7907409667969 286.390625 C 412.30438232421875 264.6128234863281 460.53094482421875 213.29769897460938 453.11199951171875 223.2883758544922" stroke-width="0.0" fill="rgb(23, 76, 54)" opacity="0.8319843" stroke="rgb(0, 0, 0)" stroke-opacity="1.0" stroke-linecap="round" stroke-linejoin="round"/>
    <path d="M 168.4582977294922 91.08551788330078 C 238.90350341796875 75.69578552246094 235.81307983398438 159.6193084716797 170.2644500732422 88.68534088134766 C 101.29034423828125 143.79568481445312 -47.596614837646484 295.49395751953125 76.74736022949219 29.144180297851562 C 308.22161865234375 71.00798797607422 262.4302978515625 180.33009338378906 151.19969177246094 52.832763671875 C 339.9019470214844 -37.57947540283203 208.33424377441406 39.84493637084961 168.4582977294922 91.08551788330078" stroke-width="0.0" fill="rgb(64, 189, 21)" opacity="0.7750064" stroke="rgb(0, 0, 0)" stroke-opacity="1.0" stroke-linecap="round" stroke-linejoin="round"/>
    <path d="M 191.4053955078125 397.1910400390625 C 168.50900268554688 403.83905029296875 175.56544494628906 368.7095642089844 234.11526489257812 418.6407470703125 C 178.40101623535156 423.6825866699219 153.05076599121094 456.2390441894531 142.71896362304688 392.7524108886719 C 159.46009826660156 298.83709716796875 131.35401916503906 307.8799133300781 168.3970489501953 308.0944519042969 C 131.54998779296875 373.8919372558594 155.02464294433594 347.8575744628906 191.4053955078125 397.1910400390625" stroke-width="0.0" fill="rgb(137, 171, 88)" opacity="0.062317457" stroke="rgb(0, 0, 0)" stroke-opacity="1.0" stroke-linecap="round" stroke-linejoin="round"/>
    <path d="M 399.5098876953125 55.21719741821289 C 406.3894348144531 103.5758056640625 411.19354248046875 111.26026916503906 375.3966979980469 86.78914642333984 C 340.843017578125 82.02099609375 327.93096923828125 38.3088493347168 364.26177978515625 49.27349853515625 C 363.3232727050781 56.928226470947266 373.69683837890625 29.366880416870117 372.35394287109375 50.912620544433594 C 387.57525634765625 42.54365921020508 396.1167907714844 65.0089340209961 399.5098876953125 55.21719741821289" stroke-width="0.0" fill="rgb(133, 144, 111)" opacity="0.5155807" stroke="rgb(0, 0, 0)" stroke-opacity="1.0" stroke-linecap="round" stroke-linejoin="round"/>
    <path d="M 537.7382202148438 71.33103942871094 C 514.5699462890625 114.24288940429688 497.6343994140625 86.52120971679688 476.67755126953125 49.067684173583984 C 449.8327941894531 45.733306884765625 440.8489074707031 45.46281814575195 415.10186767578125 44.881263732910156 C 424.4688720703125 0.7454795837402344 443.26300048828125 -19.317752838134766 467.9974365234375 -32.33081817626953 C 506.75030517578125 -21.71392822265625 524.1144409179688 -22.55989646911621 537.7382202148438 71.33103942871094" stroke-width="0.0" fill="rgb(119, 73, 76)" opacity="0.43445888" stroke="rgb(0, 0, 0)" stroke-opacity="1.0" stroke-linecap="round" stroke-linejoin="round"/>
    <path d="M 331.1649475097656 497.8868713378906 C 309.2976989746094 537.2716064453125 356.5252685546875 497.22064208984375 307.7650451660156 527.3106079101562 C 142.78382873535156 595.6310424804688 130.28384399414062 496.677734375 163.2559356689453 465.22161865234375 C 212.02418518066406 399.4106140136719 210.11105346679688 352.0932312011719 306.5850524902344 317.1507263183594 C 453.69793701171875 303.09912109375 434.4466552734375 286.2923278808594 331.1649475097656 497.8868713378906" stroke-width="0.0" fill="rgb(101, 183, 45)" opacity="1.0" stroke="rgb(0, 0, 0)" stroke-opacity="1.0" stroke-linecap="round" stroke-linejoin="round"/>
    <path d="M 204.68634033203125 286.2273254394531 C 267.36907958984375 328.2922058105469 268.5046691894531 268.835693359375 231.55642700195312 352.5127258300781 C 131.83839416503906 288.880615234375 42.617305755615234 237.19595336914062 70.44091033935547 225.97122192382812 C 94.45543670654297 199.21917724609375 164.11553955078125 289.90753173828125 237.04818725585938 324.2550048828125 C 224.4649200439453 278.69342041015625 157.42112731933594 257.5906982421875 204.68634033203125 286.2273254394531" stroke-width="0.0" fill="rgb(224, 127, 69)" opacity="0.1349021" stroke="rgb(0, 0, 0)" stroke-opacity="1.0" stroke-linecap="round" stroke-linejoin="round"/>
    <path d="M 403.0922546386719 425.3006896972656 C 397.1420593261719 454.3611755371094 333.7445373535156 443.170166015625 340.33795166015625 474.400634765625 C 374.96063232421875 457.1293029785156 361.0343933105469 451.364501953125 310.71307373046875 525.1746215820312 C 248.8981170654297 394.77777099609375 256.5829162597656 317.67724609375 371.7288818359375 307.43902587890625 C 406.8710632324219 385.969482421875 405.0988464355469 366.2145080566406 403.0922546386719 425.3006896972656" stroke-width="0.0" fill="rgb(5, 60, 65)" opacity="0.61211956" stroke="rgb(0, 0, 0)" stroke-opacity="1.0" stroke-linecap="round" stroke-linejoin="round"/>
    <path d="M 298.91790771484375 135.71182250976562 C 386.0614013671875 104.84795379638672 363.427001953125 161.41046142578125 296.240234375 188.32896423339844 C 255.8196258544922 162.80184936523438 305.3185119628906 195.33351135253906 274.7101745605469 150.66635131835938 C 275.29205322265625 68.2146987915039 309.4851379394531 10.4472017288208 311.920166015625 48.24024200439453 C 333.99530029296875 111.38040924072266 373.32196044921875 96.19862365722656 298.91790771484375 135.71182250976562" stroke-width="0.0" fill="rgb(20, 48, 71)" opacity="0.9901011" stroke="rgb(0, 0, 0)" stroke-opacity="1.0" stroke-linecap="round" stroke-linejoin="round"/>
    <path d="M 422.3396301269531 299.5224609375 C 287.18304443359375 367.9320983886719 293.24267578125 414.8054504394531 300.24835205078125 406.8894348144531 C 212.71047973632812 439.17974853515625 153.1215057373047 404.00872802734375 62.66569519042969 321.14691162109375 C 121.60245513916016 254.43316650390625 143.6862335205078 288.21319580078125 259.9725341796875 354.1443786621094 C 418.60968017578125 250.4760284423828 552.5657958984375 175.8420867919922 422.3396301269531 299.5224609375" stroke-width="0.0" fill="rgb(36, 237, 22)" opacity="0.9767762" stroke="rgb(0, 0, 0)" stroke-opacity="1.0" stroke-linecap="round" stroke-linejoin="round"/>
    <path d="M 415.11480712890625 180.95046997070312 C 407.6728515625 202.95249938964844 402.41473388671875 199.2269744873047 382.29290771484375 191.80404663085938 C 402.3907775878906 200.8952178955078 350.9454650878906 220.83047485351562 320.6120910644531 232.79530334472656 C 355.7633361816406 193.61842346191406 377.2921142578125 248.12942504882812 359.5536193847656 127.93367004394531 C 381.7098388671875 175.0027313232422 380.9681701660156 200.8551788330078 415.11480712890625 180.95046997070312" stroke-width="0.0" fill="rgb(10, 13, 116)" opacity="0.9207402" stroke="rgb(0, 0, 0)" stroke-opacity="1.0" stroke-linecap="round" stroke-linejoin="round"/>
    <path d="M 459.1268310546875 231.69081115722656 C 430.6389465332031 253.09100341796875 449.0393371582031 213.1011505126953 425.73291015625 248.4577178955078 C 337.5654602050781 300.1487121582031 322.720703125 274.1007385253906 437.6929626464844 235.0076446533203 C 408.5596008300781 169.00050354003906 400.670166015625 176.8961181640625 386.2708435058594 181.5220947265625 C 481.0279541015625 215.94215393066406 449.8344421386719 199.05224609375 459.1268310546875 231.69081115722656" stroke-width="0.0" fill="rgb(254, 85, 194)" opacity="0.6699828" stroke="rgb(0, 0, 0)" stroke-opacity="1.0" stroke-linecap="round" stroke-linejoin="round"/>
    <path d="M 175.33865356445312 313.454833984375 C 126.66943359375 313.9493713378906 112.19274139404297 344.1130065917969 69.0183334350586 331.4499206542969 C 19.723379135131836 306.324462890625 62.85200881958008 318.7913513183594 -63.732059478759766 252.43492126464844 C 21.793087005615234 201.07225036621094 15.687939643859863 213.35838317871094 98.46366119384766 260.4831848144531 C 139.20298767089844 287.572265625 184.15408325195312 300.6724853515625 175.33865356445312 313.454833984375" stroke-width="0.0" fill="rgb(23, 245, 26)" opacity="0.9007112" stroke="rgb(0, 0, 0)" stroke-opacity="1.0" stroke-linecap="round" stroke-linejoin="round"/>
    <path d="M 51.44144058227539 38.09629821777344 C 38.50700759887695 68.70577239990234 57.46201705932617 59.22603988647461 108.89414978027344 62.47782897949219 C 117.4177017211914 -1.7416489124298096 138.69317626953125 -50.59231185913086 -8.045186042785645 -6.196311950683594 C -35.046504974365234 157.91049194335938 -2.7553749084472656 102.1548843383789 71.3094482421875 96.40940856933594 C 91.83614349365234 85.24198913574219 71.28498077392578 55.89674377441406 51.44144058227539 38.09629821777344" stroke-width="0.0" fill="rgb(73, 29, 40)" opacity="0.3444419" stroke="rgb(0, 0, 0)" stroke-opacity="1.0" stroke-linecap="round" stroke-linejoin="round"/>
    <path d="M 328.7926330566406 184.50608825683594 C 333.4282531738281 220.20904541015625 353.61944580078125 216.26522827148438 316.5816650390625 226.067138671875 C 232.53038024902344 267.03643798828125 258.0312194824219 253.27017211914062 272.59246826171875 176.2183074951172 C 306.139892578125 156.10365295410156 270.899658203125 168.38739013671875 281.0204772949219 133.66542053222656 C 283.3516845703125 177.66751098632812 277.7787170410156 194.54293823242188 328.7926330566406 184.50608825683594" stroke-width="0.0" fill="rgb(12, 39, 67)" opacity="0.8913568" stroke="rgb(0, 0, 0)" stroke-opacity="1.0" stroke-linecap="round" stroke-linejoin="round"/>
    <path d="M 153.1527862548828 503.1822814941406 C 123.8333740234375 487.2666015625 129.41221618652344 506.3926086425781 103.04396057128906 506.29327392578125 C 91.22723388671875 503.70904541015625 102.41345977783203 505.3093566894531 92.71839141845703 486.1353759765625 C 103.05369567871094 461.10870361328125 106.0089340209961 422.27191162109375 122.1056900024414 432.9539489746094 C 166.3580322265625 470.8011169433594 166.05113220214844 451.461669921875 153.1527862548828 503.1822814941406" stroke-width="0.0" fill="rgb(174, 119, 152)" opacity="0.34636092" stroke="rgb(0, 0, 0)" stroke-opacity="1.0" stroke-linecap="round" stroke-linejoin="round"/>
    <path d="M 122.47393035888672 227.5214385986328 C 140.7766571044922 256.8706970214844 94.24468231201172 215.65530395507812 101.94426727294922 212.30567932128906 C 88.67547607421875 227.30340576171875 81.30594635009766 186.1551971435547 43.32808303833008 204.32115173339844 C 85.0404281616211 218.58106994628906 70.7813949584961 231.3972930908203 95.8731460571289 216.60910034179688 C 144.98370361328125 240.12310791015625 142.0160369873047 249.89979553222656 122.47393035888672 227.5214385986328" stroke-width="0.0" fill="rgb(19, 215, 225)" opacity="0.16513216" stroke="rgb(0, 0, 0)" stroke-opacity="1.0" stroke-linecap="round" stroke-linejoin="round"/>
    <path d="M 97.80957794189453 156.43191528320312 C 94.31439208984375 194.8416290283203 44.887088775634766 157.12112426757812 75.25999450683594 143.8599853515625 C 65.829833984375 204.2613983154297 31.47418785095215 199.92803955078125 41.67644119262695 88.11661529541016 C 16.82066535949707 86.70484161376953 89.01171875 99.51683044433594 112.30567932128906 101.89102935791016 C 122.41431427001953 110.35746765136719 123.88642120361328 134.1088104248047 97.80957794189453 156.43191528320312" stroke-width="0.0" fill="rgb(85, 254, 24)" opacity="0.98830736" stroke="rgb(0, 0, 0)" stroke-opacity="1.0" stroke-linecap="round" stroke-linejoin="round"/>
    <path d="M 276.78814697265625 198.21124267578125 C 314.8621520996094 260.01629638671875 317.759521484375 194.8207244873047 283.30126953125 193.52569580078125 C 260.1622009277344 265.2569580078125 264.50738525390625 261.1385192871094 194.31346130371094 228.20016479492188 C 227.8405303955078 212.98678588867188 234.05987548828125 183.98109436035156 242.39602661132812 207.49273681640625 C 284.030517578125 190.62779235839844 285.522216796875 171.9368438720703 276.78814697265625 198.21124267578125" stroke-width="0.0" fill="rgb(99, 58, 76)" opacity="0.11951698" stroke="rgb(0, 0, 0)" stroke-opacity="1.0" stroke-linecap="round" stroke-linejoin="round"/>
    <path d="M 227.1530303955078 130.91815185546875 C 191.13584899902344 133.9842987060547 195.44017028808594 121.81072235107422 210.1647491455078 108.62794494628906 C 189.51828002929688 93.6031494140625 176.04241943359375 167.3793487548828 91.78815460205078 222.01107788085938 C 187.7350311279297 145.20306396484375 243.18634033203125 155.26925659179688 220.0275115966797 116.32254791259766 C 224.82127380371094 86.96473693847656 265.6925964355469 104.06069946289062 227.1530303955078 130.91815185546875" stroke-width="0.0" fill="rgb(115, 95, 21)" opacity="0.2673448" stroke="rgb(0, 0, 0)" stroke-opacity="1.0" stroke-linecap="round" stroke-linejoin="round"/>
    <path d="M 126.15341186523438 499.67669677734375 C 79.1965103149414 585.8468017578125 24.185638427734375 547.06982421875 -8.487081527709961 528.3162231445312 C -9.364206314086914 527.7437133789062 -16.68471336364746 520.4232177734375 -36.637386322021484 495.2917175292969 C -31.957406997680664 485.3763427734375 -57.90034484863281 444.1412658691406 18.734024047851562 371.6362609863281 C 76.00615692138672 404.7895202636719 78.01203155517578 436.4843444824219 126.15341186523438 499.67669677734375" stroke-width="0.0" fill="rgb(103, 54, 74)" opacity="0.26923242" stroke="rgb(0, 0, 0)" stroke-opacity="1.0" stroke-linecap="round" stroke-linejoin="round"/>
    <path d="M 210.136962890625 127.29322052001953 C 244.21466064453125 95.9395523071289 154.91827392578125 106.39977264404297 113.22827911376953 195.60189819335938 C 74.37455749511719 229.6156463623047 113.0576400756836 225.07559204101562 158.2324676513672 187.42837524414062 C 154.5678253173828 221.11428833007812 139.4503173828125 196.13047790527344 94.62946319580078 190.97677612304688 C 122.98342895507812 158.4286651611328 107.03231811523438 161.21380615234375 210.136962890625 127.29322052001953" stroke-width="0.0" fill="rgb(83, 181, 73)" opacity="0.39065677" stroke="rgb(0, 0, 0)" stroke-opacity="1.0" stroke-linecap="round" stroke-linejoin="round"/>
    <path d="M 475.6366882324219 239.30734252929688 C 335.6827087402344 304.7288513183594 320.41015625 330.3421936035156 337.3966979980469 321.2911376953125 C 268.75653076171875 327.6802062988281 234.61410522460938 373.4611511230469 254.33685302734375 308.93853759765625 C 293.8628845214844 287.8870544433594 321.6949157714844 295.82086181640625 322.8385925292969 247.1682891845703 C 303.7278747558594 324.4667663574219 407.4214172363281 190.93565368652344 475.6366882324219 239.30734252929688" stroke-width="0.0" fill="rgb(0, 26, 57)" opacity="0.8389769" stroke="rgb(0, 0, 0)" stroke-opacity="1.0" stroke-linecap="round" stroke-linejoin="round"/>
    <path d="M 249.51852416992188 102.88433074951172 C 235.38430786132812 150.81834411621094 231.4355010986328 138.2842559814453 184.22418212890625 124.23643493652344 C 138.6033172607422 118.12216186523438 129.82008361816406 127.66236114501953 163.36843872070312 86.91819763183594 C 170.0840301513672 79.64767456054688 182.706298828125 78.47864532470703 206.07801818847656 55.21881103515625 C 232.03256225585938 83.15711975097656 256.2495422363281 57.016414642333984 249.51852416992188 102.88433074951172" stroke-width="0.0" fill="rgb(168, 92, 126)" opacity="0.700327" stroke="rgb(0, 0, 0)" stroke-opacity="1.0" stroke-linecap="round" stroke-linejoin="round"/>
    <path d="M 199.9014129638672 80.68878173828125 C 166.2965850830078 71.76435089111328 161.8142547607422 89.75791931152344 183.57180786132812 97.13424682617188 C 160.7791290283203 63.09165954589844 142.00462341308594 149.96177673339844 152.1829071044922 109.02702331542969 C 124.0501708984375 25.069080352783203 144.2826385498047 -24.642789840698242 222.15965270996094 10.711565017700195 C 214.08999633789062 91.57865905761719 196.7803955078125 43.843631744384766 199.9014129638672 80.68878173828125" stroke-width="0.0" fill="rgb(113, 231, 47)" opacity="1.0" stroke="rgb(0, 0, 0)" stroke-opacity="1.0" stroke-linecap="round" stroke-linejoin="round"/>
    <path d="M 385.4153747558594 72.68934631347656 C 368.0067138671875 58.8323974609375 350.57513427734375 71.72880554199219 395.0268249511719 126.91126251220703 C 391.05523681640625 168.07296752929688 387.0958251953125 136.11196899414062 386.34442138671875 116.0848617553711 C 443.5698547363281 115.22509002685547 443.192138671875 79.33592224121094 387.6836242675781 73.51990509033203 C 379.5203552246094 108.05420684814453 382.43731689453125 96.8432846069336 385.4153747558594 72.68934631347656" stroke-width="0.0" fill="rgb(99, 221, 0)" opacity="0.00532475" stroke="rgb(0, 0, 0)" stroke-opacity="1.0" stroke-linecap="round" stroke-linejoin="round"/>
    <path d="M 309.9411315917969 507.16754150390625 C 339.57958984375 505.34674072265625 331.7104797363281 511.3345642089844 318.7754821777344 531.2833251953125 C 328.1648254394531 518.4847412109375 316.1168212890625 522.53759765625 295.26025390625 449.1775817871094 C 269.9444274902344 413.03173828125 272.1348571777344 394.8219909667969 274.8212890625 411.3844299316406 C 302.5840759277344 447.66485595703125 292.83782958984375 474.57794189453125 309.9411315917969 507.16754150390625" stroke-width="0.0" fill="rgb(79, 117, 104)" opacity="0.17264095" stroke="rgb(0, 0, 0)" stroke-opacity="1.0" stroke-linecap="round" stroke-linejoin="round"/>
    <path d="M 286.7879333496094 136.7156524658203 C 314.0457763671875 121.12885284423828 316.2228698730469 147.7453155517578 343.88763427734375 169.038330078125 C 302.63055419921875 174.24647521972656 305.66815185546875 195.7642822265625 277.0440368652344 159.739990234375 C 274.32855224609375 139.84861755371094 294.48779296875 154.251953125 319.17132568359375 209.33445739746094 C 330.164794921875 163.26785278320312 316.8511962890625 182.85171508789062 286.7879333496094 136.7156524658203" stroke-width="0.0" fill="rgb(50, 59, 142)" opacity="0.40701944" stroke="rgb(0, 0, 0)" stroke-opacity="1.0" stroke-linecap="round" stroke-linejoin="round"/>
    <path d="M 286.50030517578125 26.32617950439453 C 308.9664306640625 39.20622253417969 296.3608703613281 15.8558931350708 294.9767150878906 33.093929290771484 C 240.24156188964844 41.25484848022461 250.5585479736328 20.762290954589844 256.2616882324219 -0.2565706968307495 C 240.24258422851562 -23.654272079467773 251.53387451171875 -28.942108154296875 246.50726318359375 21.24677848815918 C 269.87567138671875 12.793249130249023 260.9977111816406 13.313128471374512 286.50030517578125 26.32617950439453" stroke-width="0.0" fill="rgb(44, 54, 125)" opacity="0.6176351" stroke="rgb(0, 0, 0)" stroke-opacity="1.0" stroke-linecap="round" stroke-linejoin="round"/>
    <path d="M 335.2459716796875 263.9770202636719 C 340.6853332519531 246.4979705810547 311.9615783691406 264.99896240234375 316.8918762207031 306.6541442871094 C 305.5231628417969 296.7464294433594 296.1851501464844 273.9031066894531 298.5093688964844 272.7513122558594 C 333.3984069824219 266.6407775878906 339.21929931640625 255.00161743164062 321.83160400390625 277.26251220703125 C 326.5301208496094 234.09512329101562 329.228271484375 249.007568359375 335.2459716796875 263.9770202636719" stroke-width="0.0" fill="rgb(244, 189, 113)" opacity="0.51760423" stroke="rgb(0, 0, 0)" stroke-opacity="1.0" stroke-linecap="round" stroke-linejoin="round"/>
    <path d="M 243.2227325439453 124.4643783569336 C 203.79661560058594 126.71360778808594 180.2836456298828 138.4005126953125 158.48007202148438 122.67828369140625 C 176.93067932128906 67.55534362792969 195.1017608642578 103.69086456298828 186.6364288330078 96.1788330078125 C 160.0679931640625 94.79576873779297 126.02630615234375 81.25650024414062 133.62307739257812 68.2651596069336 C 131.8757781982422 100.90637969970703 179.59808349609375 108.63634490966797 243.2227325439453 124.4643783569336" stroke-width="0.0" fill="rgb(118, 255, 99)" opacity="0.24560696" stroke="rgb(0, 0, 0)" stroke-opacity="1.0" stroke-linecap="round" stroke-linejoin="round"/>
    <path d="M 546.4071044921875 474.739990234375 C 542.5703735351562 468.3053894042969 531.2154541015625 486.767578125 516.4449462890625 492.2367248535156 C 475.6637268066406 486.385498046875 457.0818176269531 482.18450927734375 463.6553039550781 461.2743835449219 C 483.8795471191406 413.0597839355469 492.3266296386719 408.4756164550781 530.9003295898438 449.26348876953125 C 536.1104736328125 461.2797546386719 538.46484375 465.6029968261719 546.4071044921875 474.739990234375" stroke-width="0.0" fill="rgb(131, 127, 162)" opacity="0.98083925" stroke="rgb(0, 0, 0)" stroke-opacity="1.0" stroke-linecap="round" stroke-linejoin="round"/>
    <path d="M 352.072509765625 483.63446044921875 C 381.23956298828125 480.0218505859375 370.2669372558594 462.5185546875 335.4903259277344 473.6479797363281 C 311.40228271484375 481.65899658203125 313.24090576171875 462.50079345703125 313.77081298828125 489.9158630371094 C 329.34228515625 474.7344665527344 342.6374816894531 486.62579345703125 344.1287841796875 481.7997741699219 C 343.0394287109375 446.34246826171875 341.60760498046875 469.2244567871094 352.072509765625 483.63446044921875" stroke-width="0.0" fill="rgb(48, 87, 112)" opacity="0.15866141" stroke="rgb(0, 0, 0)" stroke-opacity="1.0" stroke-linecap="round" stroke-linejoin="round"/>
    <path d="M 491.2011413574219 398.64788818359375 C 511.94232177734375 450.28515625 468.9275817871094 466.5227355957031 426.18017578125 455.47650146484375 C 419.5262451171875 429.20550537109375 396.3089599609375 433.5249938964844 401.8294677734375 375.5005187988281 C 420.6164245605469 380.0682373046875 425.222412109375 373.399658203125 458.3580322265625 371.122314453125 C 472.8227844238281 358.5873718261719 450.6575012207031 375.7085266113281 491.2011413574219 398.64788818359375" stroke-width="0.0" fill="rgb(217, 207, 208)" opacity="0.9001023" stroke="rgb(0, 0, 0)" stroke-opacity="1.0" stroke-linecap="round" stroke-linejoin="round"/>
    <path d="M 441.7987060546875 387.4056091308594 C 414.4474182128906 428.56292724609375 391.3098449707031 453.9867248535156 384.5113220214844 431.2691955566406 C 384.0458984375 429.5280456542969 372.58544921875 423.9688415527344 376.8658447265625 398.0154724121094 C 370.97515869140625 382.5162353515625 387.8042297363281 393.5369873046875 400.1832580566406 378.5560607910156 C 427.3923034667969 350.3032531738281 441.7746276855469 365.8456115722656 441.7987060546875 387.4056091308594" stroke-width="0.0" fill="rgb(48, 120, 64)" opacity="0.9732445" stroke="rgb(0, 0, 0)" stroke-opacity="1.0" stroke-linecap="round" stroke-linejoin="round"/>
    <path d="M 244.03109741210938 116.67520904541016 C 262.3398132324219 111.23873138427734 259.6070251464844 115.21939086914062 231.52249145507812 150.38204956054688 C 285.6533508300781 162.82733154296875 258.45526123046875 143.9490966796875 223.525634765625 126.17025756835938 C 230.0330810546875 98.19469451904297 239.37193298339844 120.3746337890625 301.5736999511719 135.12997436523438 C 266.6993713378906 135.21620178222656 254.97088623046875 150.1431884765625 244.03109741210938 116.67520904541016" stroke-width="0.0" fill="rgb(128, 126, 85)" opacity="0.9149589" stroke="rgb(0, 0, 0)" stroke-opacity="1.0" stroke-linecap="round" stroke-linejoin="round"/>
    <path d="M 121.90388488769531 430.52459716796875 C 115.78776550292969 450.3276672363281 103.4515380859375 446.5062255859375 89.61652374267578 470.4972229003906 C 65.74879455566406 431.3582763671875 73.8009262084961 406.7967529296875 26.996740341186523 382.0434875488281 C 38.935787200927734 383.8157043457031 36.103736877441406 356.5481262207031 44.368385314941406 367.5512390136719 C 98.12190246582031 409.9521484375 117.10313415527344 416.85186767578125 121.90388488769531 430.52459716796875" stroke-width="0.0" fill="rgb(142, 86, 169)" opacity="0.25897175" stroke="rgb(0, 0, 0)" stroke-opacity="1.0" stroke-linecap="round" stroke-linejoin="round"/>
    <path d="M 495.6897888183594 103.34807586669922 C 453.17449951171875 100.82707214355469 432.3050842285156 108.76551818847656 414.263916015625 109.17267608642578 C 394.8152770996094 108.15576934814453 375.1334533691406 112.50655364990234 377.2914733886719 73.95600128173828 C 362.24267578125 41.621612548828125 391.6495666503906 34.10813903808594 413.0035400390625 49.010986328125 C 448.7472229003906 50.28114318847656 476.5013122558594 39.3096809387207 495.6897888183594 103.34807586669922" stroke-width="0.0" fill="rgb(43, 70, 90)" opacity="0.4038864" stroke="rgb(0, 0, 0)" stroke-opacity="1.0" stroke-linecap="round" stroke-linejoin="round"/>
    <path d="M 242.7382049560547 -1.5680183172225952 C 229.3238525390625 32.0948486328125 207.74075317382812 38.04676818847656 172.46214294433594 28.152725219726562 C 196.03414916992188 16.456159591674805 205.3260955810547 29.16166877746582 151.73780822753906 20.26306915283203 C 189.12423706054688 -1.0388115644454956 210.1962432861328 -2.698481798171997 213.87059020996094 -19.545835494995117 C 214.75653076171875 -17.139019012451172 225.70660400390625 -8.620609283447266 242.7382049560547 -1.5680183172225952" stroke-width="0.0" fill="rgb(216, 178, 203)" opacity="0.69618505" stroke="rgb(0, 0, 0)" stroke-opacity="1.0" stroke-linecap="round" stroke-linejoin="round"/>
    <path d="M 487.4975891113281 170.88079833984375 C 504.9987487792969 183.73568725585938 489.1377868652344 188.12689208984375 502.5784606933594 216.0059051513672 C 470.070068359375 211.27261352539062 479.44720458984375 214.27207946777344 486.4550476074219 205.94496154785156 C 455.171630859375 186.7508544921875 453.9178466796875 171.841552734375 496.2059020996094 185.52012634277344 C 505.75506591796875 175.43722534179688 503.6199645996094 173.55410766601562 487.4975891113281 170.88079833984375" stroke-width="0.0" fill="rgb(84, 255, 32)" opacity="0.004948912" stroke="rgb(0, 0, 0)" stroke-opacity="1.0" stroke-linecap="round" stroke-linejoin="round"/>
    <path d="M 379.2724914550781 344.3838806152344 C 391.4749450683594 326.1152038574219 395.7012634277344 329.5348205566406 399.36309814453125 302.13946533203125 C 428.51361083984375 300.5518798828125 431.04376220703125 280.64324951171875 397.4395446777344 265.3213806152344 C 393.24725341796875 283.3777770996094 394.7611389160156 306.5832824707031 427.1973876953125 313.50408935546875 C 435.19891357421875 345.4787292480469 416.2305603027344 346.47772216796875 379.2724914550781 344.3838806152344" stroke-width="0.0" fill="rgb(53, 127, 4)" opacity="0.009982772" stroke="rgb(0, 0, 0)" stroke-opacity="1.0" stroke-linecap="round" stroke-linejoin="round"/>
    <path d="M 251.3895721435547 318.5010070800781 C 254.15843200683594 305.0967712402344 231.11595153808594 311.1312255859375 252.515380859375 303.82293701171875 C 221.46324157714844 307.60858154296875 205.36666870117188 304.01934814453125 200.54486083984375 279.8204650878906 C 251.5555877685547 285.2922058105469 269.662353515625 257.6184997558594 235.9440155029297 264.9081726074219 C 195.6781768798828 294.5184631347656 234.68319702148438 291.6164855957031 251.3895721435547 318.5010070800781" stroke-width="0.0" fill="rgb(204, 119, 144)" opacity="0.91086066" stroke="rgb(0, 0, 0)" stroke-opacity="1.0" stroke-linecap="round" stroke-linejoin="round"/>
    <path d="M 207.7569122314453 324.9316101074219 C 228.76443481445312 326.19000244140625 239.74864196777344 318.5453186035156 257.2934265136719 300.5187072753906 C 254.66970825195312 308.9895324707031 233.86041259765625 316.67523193359375 222.52325439453125 293.7098693847656 C 247.11135864257812 297.4403076171875 231.24734497070312 297.0891418457031 264.04962158203125 316.22003173828125 C 289.95855712890625 304.6634216308594 304.787841796875 303.2191467285156 207.7569122314453 324.9316101074219" stroke-width="0.0" fill="rgb(98, 220, 4)" opacity="0.0" stroke="rgb(0, 0, 0)" stroke-opacity="1.0" stroke-linecap="round" stroke-linejoin="round"/>
    <path d="M 59.77332305908203 104.72794342041016 C 19.362213134765625 123.58747100830078 28.472026824951172 155.03985595703125 43.408775329589844 174.4651336669922 C 33.581581115722656 154.22174072265625 16.363954544067383 150.48098754882812 35.43600845336914 141.28250122070312 C 19.170913696289062 136.94676208496094 48.0389518737793 125.87538146972656 68.4228286743164 116.84598541259766 C 18.625633239746094 94.4334945678711 38.99817657470703 82.96192932128906 59.77332305908203 104.72794342041016" stroke-width="0.0" fill="rgb(217, 180, 149)" opacity="0.10885371" stroke="rgb(0, 0, 0)" stroke-opacity="1.0" stroke-linecap="round" stroke-linejoin="round"/>
    <path d="M 479.8739013671875 178.11514282226562 C 484.1763916015625 143.68601989746094 457.8608703613281 143.8037109375 432.5000305175781 127.10226440429688 C 427.5985107421875 157.05929565429688 425.6981201171875 133.1417694091797 409.3834533691406 115.5136489868164 C 371.0960693359375 127.82633209228516 395.66265869140625 117.12295532226562 409.7983093261719 147.62350463867188 C 406.8276672363281 149.9685516357422 423.2116394042969 142.50082397460938 479.8739013671875 178.11514282226562" stroke-width="0.0" fill="rgb(48, 255, 9)" opacity="0.9640007" stroke="rgb(0, 0, 0)" stroke-opacity="1.0" stroke-linecap="round" stroke-linejoin="round"/>
    <path d="M 113.39510345458984 466.25140380859375 C 96.81146240234375 486.7947692871094 77.25785064697266 494.31048583984375 69.65552520751953 483.9797058105469 C 57.195682525634766 508.9467468261719 44.83193588256836 495.0940856933594 28.009883880615234 474.1792297363281 C 44.485572814941406 454.7341613769531 51.893733978271484 449.0353698730469 65.96439361572266 439.997802734375 C 99.29130554199219 425.3580322265625 101.74251556396484 438.7833251953125 113.39510345458984 466.25140380859375" stroke-width="0.0" fill="rgb(181, 176, 198)" opacity="0.074369" stroke="rgb(0, 0, 0)" stroke-opacity="1.0" stroke-linecap="round" stroke-linejoin="round"/>
    <path d="M 533.2047119140625 32.234657287597656 C 519.233642578125 42.064453125 528.9359741210938 65.12094116210938 530.7493896484375 63.45958709716797 C 491.9542541503906 58.92300796508789 482.2455139160156 37.45487976074219 473.5858154296875 34.16865539550781 C 462.3236389160156 30.09607696533203 465.2831115722656 4.482730388641357 481.6681823730469 8.640957832336426 C 513.7191162109375 31.59040641784668 528.8163452148438 30.57973861694336 533.2047119140625 32.234657287597656" stroke-width="0.0" fill="rgb(113, 174, 138)" opacity="0.001288459" stroke="rgb(0, 0, 0)" stroke-opacity="1.0" stroke-linecap="round" stroke-linejoin="round"/>
    <path d="M 319.5480651855469 274.8777770996094 C 296.1732177734375 280.99945068359375 315.9471435546875 298.51080322265625 318.7198486328125 276.2401123046875 C 258.208740234375 292.3362121582031 242.4234619140625 296.4518737792969 263.33453369140625 285.7003173828125 C 275.2610168457031 305.0165100097656 280.1480712890625 287.4657897949219 304.37322998046875 286.1175842285156 C 306.67974853515625 266.72930908203125 300.92816162109375 268.14886474609375 319.5480651855469 274.8777770996094" stroke-width="0.0" fill="rgb(147, 25, 122)" opacity="0.07423579" stroke="rgb(0, 0, 0)" stroke-opacity="1.0" stroke-linecap="round" stroke-linejoin="round"/>
    <path d="M 350.90521240234375 106.12374877929688 C 308.606201171875 118.70492553710938 308.1304931640625 134.0399932861328 313.29486083984375 115.31562042236328 C 319.34326171875 91.35772705078125 335.5752868652344 89.92115783691406 316.2934265136719 79.8233413696289 C 308.0342102050781 70.0650634765625 334.3504333496094 76.59547424316406 315.8932189941406 74.78211212158203 C 319.9033203125 93.94744110107422 332.38238525390625 97.50066375732422 350.90521240234375 106.12374877929688" stroke-width="0.0" fill="rgb(0, 0, 122)" opacity="0.2801594" stroke="rgb(0, 0, 0)" stroke-opacity="1.0" stroke-linecap="round" stroke-linejoin="round"/>
    <path d="M 135.4669189453125 65.12992858886719 C 108.67804718017578 73.95993041992188 106.9500503540039 86.11357116699219 128.0842742919922 60.196266174316406 C 105.58927917480469 73.62680053710938 85.86320495605469 69.33097076416016 78.40254211425781 68.26458740234375 C 103.47919464111328 53.188297271728516 90.9842758178711 38.73714828491211 124.83842468261719 4.0216450691223145 C 168.1609649658203 22.508838653564453 152.09951782226562 31.31680679321289 135.4669189453125 65.12992858886719" stroke-width="0.0" fill="rgb(52, 53, 136)" opacity="0.1443783" stroke="rgb(0, 0, 0)" stroke-opacity="1.0" stroke-linecap="round" stroke-linejoin="round"/>
    <path d="M 453.039794921875 513.3051147460938 C 464.5176696777344 519.9351806640625 476.21844482421875 519.267333984375 448.82110595703125 522.3489379882812 C 422.7095642089844 527.9534912109375 408.0235900878906 529.6609497070312 392.25555419921875 528.698486328125 C 409.9599304199219 480.4023742675781 429.5645446777344 467.4836120605469 469.3394470214844 469.3262939453125 C 471.41973876953125 480.641845703125 477.14105224609375 507.90203857421875 453.039794921875 513.3051147460938" stroke-width="0.0" fill="rgb(105, 78, 99)" opacity="0.24355611" stroke="rgb(0, 0, 0)" stroke-opacity="1.0" stroke-linecap="round" stroke-linejoin="round"/>
    <path d="M 176.32659912109375 84.98436737060547 C 195.24725341796875 87.35035705566406 201.6853485107422 89.58728790283203 203.0973358154297 95.4704360961914 C 193.8716583251953 117.68077850341797 150.31739807128906 114.40373992919922 158.8472900390625 80.16162872314453 C 212.8203582763672 80.49940490722656 175.69139099121094 53.95304870605469 181.7464599609375 49.26939010620117 C 182.2410888671875 62.10891342163086 195.49603271484375 53.15315246582031 176.32659912109375 84.98436737060547" stroke-width="0.0" fill="rgb(153, 206, 81)" opacity="0.0876308" stroke="rgb(0, 0, 0)" stroke-opacity="1.0" stroke-linecap="round" stroke-linejoin="round"/>
    <path d="M 306.5345153808594 184.74880981445312 C 261.22772216796875 204.55001831054688 246.44468688964844 207.93063354492188 274.3304748535156 192.52792358398438 C 255.14674377441406 187.2037353515625 248.19161987304688 192.3542022705078 278.0041809082031 202.29412841796875 C 231.3658447265625 215.113525390625 262.29083251953125 202.25758361816406 276.7346496582031 198.31455993652344 C 256.3502197265625 197.32870483398438 304.2710266113281 202.287109375 306.5345153808594 184.74880981445312" stroke-width="0.0" fill="rgb(193, 131, 131)" opacity="0.9932285" stroke="rgb(0, 0, 0)" stroke-opacity="1.0" stroke-linecap="round" stroke-linejoin="round"/>
    <path d="M 478.4370422363281 -39.35209274291992 C 465.8807678222656 -33.49661636352539 449.9285888671875 9.096513748168945 451.7367858886719 36.62696838378906 C 468.43408203125 12.755200386047363 440.3871154785156 2.8400256633758545 460.7163391113281 12.028532028198242 C 468.5296630859375 -3.389443874359131 462.2767639160156 -27.97612190246582 467.9126281738281 -27.835458755493164 C 476.8262023925781 -16.114213943481445 486.2515869140625 -11.2457275390625 478.4370422363281 -39.35209274291992" stroke-width="0.0" fill="rgb(115, 89, 63)" opacity="0.16748542" stroke="rgb(0, 0, 0)" stroke-opacity="1.0" stroke-linecap="round" stroke-linejoin="round"/>
    <path d="M 179.65933227539062 442.1099548339844 C 173.17086791992188 459.1125183105469 163.8898162841797 461.489990234375 137.75355529785156 442.4282531738281 C 142.7062225341797 422.4809875488281 136.65565490722656 435.6946716308594 143.79713439941406 423.30548095703125 C 129.72756958007812 421.0041809082031 130.2056427001953 410.30487060546875 132.0448760986328 425.5859069824219 C 181.2424774169922 397.3315734863281 211.522705078125 395.7285461425781 179.65933227539062 442.1099548339844" stroke-width="0.0" fill="rgb(141, 192, 96)" opacity="0.14108324" stroke="rgb(0, 0, 0)" stroke-opacity="1.0" stroke-linecap="round" stroke-linejoin="round"/>
  </g>
</svg>
