<?xml version="1.0" ?>
<svg xmlns="http://www.w3.org/2000/svg" version="1.1" width="512" height="512">
  <defs/>
  <g>
    <path d="M 558.7202758789062 423.6169128417969 C 548.0579833984375 517.3278198242188 548.9373779296875 525.5354614257812 355.8138732910156 565.305419921875 C 287.4804992675781 596.6602783203125 273.42803955078125 588.4685668945312 264.44061279296875 493.7900695800781 C 327.3970947265625 326.405517578125 360.40576171875 308.4701232910156 462.05438232421875 266.8050231933594 C 595.2547607421875 264.1946105957031 591.4371337890625 284.8448486328125 558.7202758789062 423.6169128417969" stroke-width="0.0" fill="rgb(28, 34, 135)" opacity="0.8390349" stroke="rgb(0, 0, 0)" stroke-opacity="1.0" stroke-linecap="round" stroke-linejoin="round"/>
    <path d="M 271.5895690917969 451.3240661621094 C 294.4021911621094 514.6279907226562 286.6452941894531 521.447021484375 90.78033447265625 529.0967407226562 C -51.20000076293945 517.7235107421875 -51.20000076293945 507.83367919921875 -21.774600982666016 449.183837890625 C -18.38620376586914 205.44985961914062 -18.693912506103516 199.01014709472656 -26.360227584838867 261.6900939941406 C 205.3403778076172 307.8142395019531 261.0379943847656 232.9020233154297 271.5895690917969 451.3240661621094" stroke-width="0.0" fill="rgb(14, 11, 177)" opacity="0.95621866" stroke="rgb(0, 0, 0)" stroke-opacity="1.0" stroke-linecap="round" stroke-linejoin="round"/>
    <path d="M 279.2862243652344 306.3000793457031 C 215.92527770996094 420.24212646484375 252.00509643554688 444.6496276855469 214.67601013183594 361.14013671875 C 94.54346466064453 354.06048583984375 44.074920654296875 414.97265625 47.279544830322266 177.9883270263672 C 25.426034927368164 174.99319458007812 35.405879974365234 177.485595703125 120.25261688232422 79.34904479980469 C 277.6802062988281 108.00684356689453 310.41070556640625 114.00269317626953 279.2862243652344 306.3000793457031" stroke-width="0.0" fill="rgb(185, 159, 92)" opacity="0.91470474" stroke="rgb(0, 0, 0)" stroke-opacity="1.0" stroke-linecap="round" stroke-linejoin="round"/>
    <path d="M 265.795166015625 16.741382598876953 C 252.55552673339844 195.61849975585938 210.0996551513672 168.43661499023438 28.06602668762207 204.35906982421875 C -24.928335189819336 204.76849365234375 -18.24268913269043 185.8514404296875 -12.36718463897705 55.30718994140625 C -14.989005088806152 -15.722881317138672 -7.218327522277832 -19.66063117980957 69.26349639892578 -29.695852279663086 C 194.9735565185547 -32.583683013916016 236.7891845703125 -49.76369094848633 265.795166015625 16.741382598876953" stroke-width="0.0" fill="rgb(47, 30, 206)" opacity="0.9064692" stroke="rgb(0, 0, 0)" stroke-opacity="1.0" stroke-linecap="round" stroke-linejoin="round"/>
    <path d="M 533.5247802734375 49.000823974609375 C 437.37939453125 283.48785400390625 446.9207458496094 300.1214904785156 406.36370849609375 318.3855285644531 C 248.02833557128906 318.70684814453125 220.13304138183594 339.1523132324219 244.44134521484375 216.65805053710938 C 235.00152587890625 55.90974426269531 204.27088928222656 -1.972994089126587 319.8240051269531 -51.342098236083984 C 563.2000122070312 -6.244815349578857 563.2000122070312 4.452378749847412 533.5247802734375 49.000823974609375" stroke-width="0.0" fill="rgb(41, 17, 190)" opacity="0.9779861" stroke="rgb(0, 0, 0)" stroke-opacity="1.0" stroke-linecap="round" stroke-linejoin="round"/>
    <path d="M 485.0572509765625 342.321533203125 C 488.6203918457031 432.4533386230469 503.2923278808594 515.0263061523438 298.59417724609375 545.8538818359375 C 184.5045928955078 536.4783325195312 199.0193634033203 519.5428466796875 222.10923767089844 453.3302307128906 C 232.4055938720703 207.6441650390625 288.2503662109375 190.8408966064453 304.7418518066406 244.19808959960938 C 405.4632873535156 284.8326721191406 447.9044494628906 283.9316711425781 485.0572509765625 342.321533203125" stroke-width="0.0" fill="rgb(1, 36, 140)" opacity="0.99926317" stroke="rgb(0, 0, 0)" stroke-opacity="1.0" stroke-linecap="round" stroke-linejoin="round"/>
    <path d="M 559.8323364257812 206.21742248535156 C 549.6314086914062 297.8887634277344 529.0491943359375 306.0954895019531 479.1995544433594 332.6903991699219 C 388.24603271484375 342.4367980957031 422.9339599609375 327.26763916015625 414.4800720214844 217.20310974121094 C 445.6180725097656 104.99644470214844 417.00445556640625 64.82199096679688 498.4855651855469 79.12390899658203 C 541.6007080078125 61.278831481933594 550.6466064453125 129.4589080810547 559.8323364257812 206.21742248535156" stroke-width="0.0" fill="rgb(32, 36, 116)" opacity="0.963415" stroke="rgb(0, 0, 0)" stroke-opacity="1.0" stroke-linecap="round" stroke-linejoin="round"/>
    <path d="M 260.2038879394531 251.1256103515625 C 260.890625 296.8987121582031 280.0160217285156 313.0569152832031 232.5458221435547 349.734619140625 C 231.5116424560547 308.765380859375 236.61474609375 314.02581787109375 212.29806518554688 243.7260284423828 C 142.81787109375 198.86412048339844 142.38568115234375 199.83688354492188 269.3828430175781 176.68212890625 C 305.24798583984375 200.65054321289062 252.8739776611328 230.9507598876953 260.2038879394531 251.1256103515625" stroke-width="0.0" fill="rgb(253, 161, 5)" opacity="0.97967416" stroke="rgb(0, 0, 0)" stroke-opacity="1.0" stroke-linecap="round" stroke-linejoin="round"/>
    <path d="M 293.57891845703125 90.12474060058594 C 274.6851806640625 109.17992401123047 245.25570678710938 109.87252807617188 216.03651428222656 116.15784454345703 C 188.50634765625 138.8922119140625 195.00462341308594 140.4842529296875 199.99098205566406 105.22679138183594 C 215.8080596923828 77.30928802490234 215.7188720703125 60.758609771728516 234.02943420410156 98.8298110961914 C 254.5943145751953 111.84195709228516 288.0085144042969 75.2989730834961 293.57891845703125 90.12474060058594" stroke-width="0.0" fill="rgb(185, 136, 202)" opacity="0.59852153" stroke="rgb(0, 0, 0)" stroke-opacity="1.0" stroke-linecap="round" stroke-linejoin="round"/>
    <path d="M 210.60691833496094 326.2986145019531 C 194.49960327148438 471.90478515625 213.6696319580078 462.3875732421875 182.984130859375 459.2008361816406 C 186.6781768798828 405.685791015625 188.1399383544922 358.1304016113281 161.00543212890625 300.4595947265625 C 183.6294708251953 307.7032775878906 146.46771240234375 307.4676208496094 181.30555725097656 335.324951171875 C 184.52471923828125 362.48480224609375 189.9137420654297 357.787841796875 210.60691833496094 326.2986145019531" stroke-width="0.0" fill="rgb(255, 255, 82)" opacity="1.0" stroke="rgb(0, 0, 0)" stroke-opacity="1.0" stroke-linecap="round" stroke-linejoin="round"/>
    <path d="M 212.77017211914062 194.7026824951172 C 200.8242950439453 247.88186645507812 209.41412353515625 326.91009521484375 216.32351684570312 334.2268371582031 C 128.5866241455078 364.6570129394531 234.7188720703125 352.5385437011719 177.85818481445312 312.2221984863281 C 23.303796768188477 175.65863037109375 20.882144927978516 144.52932739257812 235.25750732421875 68.8457260131836 C 139.73143005371094 181.14781188964844 201.019775390625 94.0080337524414 212.77017211914062 194.7026824951172" stroke-width="0.0" fill="rgb(198, 191, 61)" opacity="1.0" stroke="rgb(0, 0, 0)" stroke-opacity="1.0" stroke-linecap="round" stroke-linejoin="round"/>
    <path d="M 212.8782196044922 273.5794982910156 C 82.75403594970703 265.4861145019531 53.59198760986328 267.1504211425781 72.07359313964844 323.48529052734375 C 117.26942443847656 397.369140625 89.24532318115234 391.75128173828125 -9.671064376831055 280.0516357421875 C -42.02848434448242 90.57736206054688 -28.778932571411133 116.86444854736328 99.40127563476562 98.45646667480469 C 201.5688934326172 192.98146057128906 252.56597900390625 202.6301727294922 212.8782196044922 273.5794982910156" stroke-width="0.0" fill="rgb(17, 25, 205)" opacity="0.9964021" stroke="rgb(0, 0, 0)" stroke-opacity="1.0" stroke-linecap="round" stroke-linejoin="round"/>
    <path d="M 246.9699249267578 45.255165100097656 C 224.8387908935547 108.87140655517578 236.5884552001953 116.7999038696289 217.494140625 121.73902130126953 C 187.47508239746094 143.1622772216797 95.06831359863281 146.7189178466797 61.87223815917969 56.821922302246094 C 70.09001922607422 -45.03458023071289 86.47129821777344 -41.56690979003906 177.48214721679688 -42.44596862792969 C 194.85940551757812 -15.53370189666748 184.82281494140625 22.34761619567871 246.9699249267578 45.255165100097656" stroke-width="0.0" fill="rgb(47, 22, 202)" opacity="0.96307003" stroke="rgb(0, 0, 0)" stroke-opacity="1.0" stroke-linecap="round" stroke-linejoin="round"/>
    <path d="M 274.8689880371094 141.31991577148438 C 339.8236083984375 183.5557861328125 315.6513671875 215.61463928222656 236.96131896972656 220.25953674316406 C 163.03164672851562 173.8290252685547 277.92584228515625 147.60595703125 220.0305633544922 99.98008728027344 C 220.12767028808594 92.23219299316406 255.77047729492188 160.17919921875 299.3883361816406 176.35134887695312 C 268.7304992675781 175.2526397705078 187.3349151611328 138.08322143554688 274.8689880371094 141.31991577148438" stroke-width="0.0" fill="rgb(244, 189, 9)" opacity="0.87271327" stroke="rgb(0, 0, 0)" stroke-opacity="1.0" stroke-linecap="round" stroke-linejoin="round"/>
    <path d="M 80.33840942382812 302.9708251953125 C 94.9949951171875 306.0014343261719 132.14450073242188 320.4680480957031 100.54576873779297 368.39044189453125 C 90.45454406738281 361.0448303222656 74.79888153076172 344.4184265136719 89.46566772460938 304.23651123046875 C 88.22925567626953 312.00604248046875 95.90696716308594 303.2000732421875 89.6414566040039 329.7916564941406 C 71.26387023925781 387.4169006347656 20.46224594116211 272.1615905761719 80.33840942382812 302.9708251953125" stroke-width="0.0" fill="rgb(240, 234, 7)" opacity="0.952087" stroke="rgb(0, 0, 0)" stroke-opacity="1.0" stroke-linecap="round" stroke-linejoin="round"/>
    <path d="M 229.82029724121094 79.03590393066406 C 246.42962646484375 111.8100357055664 198.49166870117188 101.18705749511719 209.74317932128906 104.13851165771484 C 206.31112670898438 -38.027835845947266 198.44960021972656 97.57429504394531 190.9881591796875 86.62296295166016 C 254.52743530273438 154.52963256835938 243.79019165039062 46.541934967041016 231.8896026611328 53.69447708129883 C 200.08218383789062 47.30740737915039 228.27984619140625 49.18885803222656 229.82029724121094 79.03590393066406" stroke-width="0.0" fill="rgb(218, 236, 130)" opacity="0.9388959" stroke="rgb(0, 0, 0)" stroke-opacity="1.0" stroke-linecap="round" stroke-linejoin="round"/>
    <path d="M 274.5328369140625 453.9152526855469 C 242.19790649414062 462.48828125 228.41241455078125 454.7945861816406 243.4885711669922 451.0650939941406 C 246.17823791503906 456.8843688964844 250.42620849609375 473.5027770996094 234.90573120117188 459.84326171875 C 208.2921905517578 274.5160827636719 243.84906005859375 288.8272705078125 245.66183471679688 452.7843017578125 C 318.6921081542969 466.19561767578125 285.0018310546875 451.39935302734375 274.5328369140625 453.9152526855469" stroke-width="0.0" fill="rgb(234, 187, 116)" opacity="0.88388264" stroke="rgb(0, 0, 0)" stroke-opacity="1.0" stroke-linecap="round" stroke-linejoin="round"/>
    <path d="M 154.14422607421875 274.1632995605469 C 161.51548767089844 264.3570251464844 142.28079223632812 299.73260498046875 163.02517700195312 319.9461975097656 C 199.71351623535156 277.6908874511719 185.25509643554688 262.7110900878906 103.9112777709961 292.97698974609375 C 116.2565689086914 297.5854797363281 124.50150299072266 302.510009765625 168.2575225830078 275.8912658691406 C 160.88351440429688 278.5226745605469 146.9175567626953 282.8899841308594 154.14422607421875 274.1632995605469" stroke-width="0.0" fill="rgb(127, 182, 66)" opacity="0.8171983" stroke="rgb(0, 0, 0)" stroke-opacity="1.0" stroke-linecap="round" stroke-linejoin="round"/>
    <path d="M 218.2266387939453 103.92256927490234 C 220.62486267089844 114.21955108642578 215.99481201171875 121.13324737548828 174.0559844970703 138.36590576171875 C 138.67466735839844 131.75392150878906 155.50926208496094 129.96060180664062 194.97421264648438 119.2508316040039 C 214.3289337158203 116.8868408203125 190.50869750976562 93.21559143066406 172.49697875976562 86.52531433105469 C 168.49301147460938 73.36132049560547 183.5862274169922 101.24044799804688 218.2266387939453 103.92256927490234" stroke-width="0.0" fill="rgb(181, 147, 76)" opacity="0.8199647" stroke="rgb(0, 0, 0)" stroke-opacity="1.0" stroke-linecap="round" stroke-linejoin="round"/>
    <path d="M 369.96478271484375 281.9381408691406 C 355.07806396484375 296.6348876953125 371.6776123046875 291.2897644042969 328.2747497558594 277.0097961425781 C 282.7061462402344 283.3099670410156 298.78887939453125 287.5711975097656 304.09197998046875 247.7974395751953 C 301.87091064453125 236.5531768798828 325.98345947265625 242.64724731445312 368.7060546875 246.38917541503906 C 361.1288146972656 224.220458984375 370.90948486328125 229.48880004882812 369.96478271484375 281.9381408691406" stroke-width="0.0" fill="rgb(94, 16, 232)" opacity="0.9718306" stroke="rgb(0, 0, 0)" stroke-opacity="1.0" stroke-linecap="round" stroke-linejoin="round"/>
    <path d="M 177.1136474609375 294.9775085449219 C 195.87144470214844 300.0679626464844 160.49476623535156 305.4395446777344 157.33303833007812 268.91485595703125 C 170.50900268554688 270.1151123046875 139.46766662597656 274.7486267089844 150.2691192626953 292.9837951660156 C 213.10275268554688 286.5330810546875 201.7384796142578 291.9900817871094 214.05357360839844 193.9332275390625 C 232.73399353027344 214.89199829101562 200.43809509277344 244.93283081054688 177.1136474609375 294.9775085449219" stroke-width="0.0" fill="rgb(172, 162, 101)" opacity="0.110692695" stroke="rgb(0, 0, 0)" stroke-opacity="1.0" stroke-linecap="round" stroke-linejoin="round"/>
    <path d="M 201.30526733398438 79.79195404052734 C 214.13201904296875 88.348876953125 239.00006103515625 145.4365997314453 214.33238220214844 125.36890411376953 C 200.89572143554688 100.32962036132812 176.02333068847656 96.24846649169922 160.21817016601562 90.63489532470703 C 146.0576934814453 53.842262268066406 181.30020141601562 12.44111156463623 175.93170166015625 37.989952087402344 C 156.54075622558594 76.39057159423828 183.3865966796875 94.86067962646484 201.30526733398438 79.79195404052734" stroke-width="0.0" fill="rgb(237, 251, 95)" opacity="0.9927187" stroke="rgb(0, 0, 0)" stroke-opacity="1.0" stroke-linecap="round" stroke-linejoin="round"/>
    <path d="M 266.6914978027344 452.7026672363281 C 276.9559020996094 457.44451904296875 260.4918518066406 455.23443603515625 266.0658264160156 464.1047668457031 C 243.9528350830078 472.0238037109375 250.24252319335938 467.810791015625 233.1332244873047 476.0751953125 C 236.05929565429688 427.3623962402344 237.37509155273438 450.63330078125 225.76112365722656 456.88726806640625 C 261.5796203613281 449.6875305175781 262.2334899902344 443.7370300292969 266.6914978027344 452.7026672363281" stroke-width="0.0" fill="rgb(58, 72, 140)" opacity="1.0" stroke="rgb(0, 0, 0)" stroke-opacity="1.0" stroke-linecap="round" stroke-linejoin="round"/>
    <path d="M 367.43603515625 223.95272827148438 C 362.0919494628906 228.3074188232422 359.5419616699219 228.1845703125 366.1573181152344 261.44000244140625 C 312.8985900878906 266.9995422363281 304.60308837890625 247.81640625 293.8426513671875 227.08969116210938 C 281.4488525390625 236.16116333007812 308.94134521484375 226.16030883789062 341.00811767578125 226.54710388183594 C 332.8413391113281 203.01913452148438 332.8870544433594 218.5833282470703 367.43603515625 223.95272827148438" stroke-width="0.0" fill="rgb(70, 2, 221)" opacity="0.05853149" stroke="rgb(0, 0, 0)" stroke-opacity="1.0" stroke-linecap="round" stroke-linejoin="round"/>
    <path d="M 174.6138916015625 150.32350158691406 C 212.78846740722656 174.34262084960938 187.9185791015625 158.75563049316406 149.30577087402344 154.67686462402344 C 131.5935821533203 142.0749969482422 122.0555419921875 135.2786407470703 114.5301742553711 103.15132904052734 C 112.7524642944336 93.36237335205078 110.88643646240234 95.19053649902344 114.53751373291016 92.1425552368164 C 137.62002563476562 105.31324768066406 164.01739501953125 115.12706756591797 174.6138916015625 150.32350158691406" stroke-width="0.0" fill="rgb(255, 221, 56)" opacity="0.99896747" stroke="rgb(0, 0, 0)" stroke-opacity="1.0" stroke-linecap="round" stroke-linejoin="round"/>
    <path d="M 119.8447036743164 347.3349609375 C 114.16635131835938 377.4295959472656 92.41410064697266 375.879150390625 83.038330078125 408.8713684082031 C 54.667457580566406 398.1078796386719 77.15707397460938 385.26708984375 88.35757446289062 362.5718994140625 C 80.5518798828125 331.4588317871094 67.52668762207031 338.3181457519531 92.77886199951172 314.3890686035156 C 131.43692016601562 258.75830078125 132.33091735839844 279.32611083984375 119.8447036743164 347.3349609375" stroke-width="0.0" fill="rgb(186, 193, 75)" opacity="0.9869292" stroke="rgb(0, 0, 0)" stroke-opacity="1.0" stroke-linecap="round" stroke-linejoin="round"/>
    <path d="M 114.4320068359375 429.1670227050781 C 133.05445861816406 498.6410217285156 123.5226821899414 479.7846374511719 93.8245849609375 444.7493591308594 C 107.23761749267578 484.59759521484375 82.34852600097656 481.3223876953125 85.26262664794922 461.4670715332031 C 76.41703796386719 412.2510070800781 59.18169021606445 378.2184143066406 75.304443359375 395.2177734375 C 110.26246643066406 388.9173889160156 98.55836486816406 385.23260498046875 114.4320068359375 429.1670227050781" stroke-width="0.0" fill="rgb(195, 134, 63)" opacity="0.79157454" stroke="rgb(0, 0, 0)" stroke-opacity="1.0" stroke-linecap="round" stroke-linejoin="round"/>
    <path d="M 160.5092010498047 144.04110717773438 C 141.5485382080078 151.3754425048828 113.79544830322266 122.618896484375 106.75804138183594 121.25782775878906 C 108.16197204589844 123.32311248779297 108.62036895751953 121.41213989257812 89.99072265625 122.84362030029297 C 81.04157257080078 137.6283721923828 75.22391510009766 142.30628967285156 150.92306518554688 144.01998901367188 C 127.18782806396484 116.02655792236328 122.96542358398438 115.84017181396484 160.5092010498047 144.04110717773438" stroke-width="0.0" fill="rgb(24, 0, 107)" opacity="0.315635" stroke="rgb(0, 0, 0)" stroke-opacity="1.0" stroke-linecap="round" stroke-linejoin="round"/>
    <path d="M 111.44857025146484 107.15764617919922 C 92.2073745727539 129.98287963867188 66.34912872314453 118.32292175292969 34.79328918457031 140.8638458251953 C 28.83896255493164 145.42340087890625 44.22809600830078 117.4909896850586 27.477258682250977 131.0668182373047 C 25.452590942382812 120.0025634765625 53.57835006713867 129.3841552734375 56.2633171081543 144.4587860107422 C 88.2570571899414 125.25664520263672 89.71943664550781 90.95406341552734 111.44857025146484 107.15764617919922" stroke-width="0.0" fill="rgb(64, 28, 186)" opacity="0.04923808" stroke="rgb(0, 0, 0)" stroke-opacity="1.0" stroke-linecap="round" stroke-linejoin="round"/>
    <path d="M 38.177978515625 300.62353515625 C 43.91385269165039 329.78350830078125 39.97406005859375 320.6463928222656 18.03212547302246 325.3018493652344 C 29.146848678588867 329.93988037109375 40.22453308105469 330.2530212402344 29.282344818115234 327.0913391113281 C 12.025433540344238 327.40850830078125 37.31097412109375 329.1260986328125 48.53419876098633 327.4600830078125 C 26.843355178833008 310.36602783203125 26.857240676879883 298.5118408203125 38.177978515625 300.62353515625" stroke-width="0.0" fill="rgb(40, 2, 161)" opacity="0.18507072" stroke="rgb(0, 0, 0)" stroke-opacity="1.0" stroke-linecap="round" stroke-linejoin="round"/>
    <path d="M 379.5680236816406 214.60655212402344 C 382.95220947265625 287.0097351074219 384.5251159667969 275.92449951171875 361.88006591796875 282.46051025390625 C 360.4229736328125 244.57481384277344 365.9678955078125 241.6554412841797 356.9855041503906 240.17213439941406 C 348.1248474121094 220.07862854003906 355.7518615722656 195.61338806152344 355.2889709472656 192.23455810546875 C 367.4778747558594 189.7731475830078 382.9184875488281 205.56045532226562 379.5680236816406 214.60655212402344" stroke-width="0.0" fill="rgb(116, 252, 164)" opacity="0.90543526" stroke="rgb(0, 0, 0)" stroke-opacity="1.0" stroke-linecap="round" stroke-linejoin="round"/>
    <path d="M 176.64410400390625 263.7315368652344 C 179.0968017578125 305.6648864746094 203.07733154296875 275.2673034667969 193.78590393066406 266.29339599609375 C 180.5137939453125 282.7135009765625 195.62030029296875 256.095458984375 163.44798278808594 278.19866943359375 C 179.51641845703125 277.99359130859375 199.79495239257812 252.29209899902344 186.95884704589844 253.99618530273438 C 193.9668731689453 273.03570556640625 187.2947235107422 283.48992919921875 176.64410400390625 263.7315368652344" stroke-width="0.0" fill="rgb(231, 43, 18)" opacity="0.29725918" stroke="rgb(0, 0, 0)" stroke-opacity="1.0" stroke-linecap="round" stroke-linejoin="round"/>
    <path d="M 189.4149932861328 261.84161376953125 C 180.97988891601562 259.02435302734375 180.62496948242188 240.284912109375 210.5781707763672 233.37623596191406 C 190.50877380371094 221.92442321777344 181.121337890625 229.00991821289062 174.54769897460938 252.7020721435547 C 180.88348388671875 239.67027282714844 185.4413299560547 232.24139404296875 173.19500732421875 208.85781860351562 C 191.7649383544922 232.70245361328125 194.6610107421875 238.3725128173828 189.4149932861328 261.84161376953125" stroke-width="0.0" fill="rgb(138, 113, 0)" opacity="0.005783789" stroke="rgb(0, 0, 0)" stroke-opacity="1.0" stroke-linecap="round" stroke-linejoin="round"/>
    <path d="M 180.85055541992188 326.8415222167969 C 211.3432159423828 338.5680847167969 192.27915954589844 360.64190673828125 157.70091247558594 382.4724426269531 C 163.04498291015625 331.7933044433594 155.56089782714844 330.12371826171875 170.94308471679688 342.6726989746094 C 179.951171875 304.6095886230469 167.6197967529297 299.48919677734375 169.60313415527344 325.8587646484375 C 192.1754913330078 325.5386657714844 182.3255615234375 320.7625427246094 180.85055541992188 326.8415222167969" stroke-width="0.0" fill="rgb(190, 115, 114)" opacity="0.31407544" stroke="rgb(0, 0, 0)" stroke-opacity="1.0" stroke-linecap="round" stroke-linejoin="round"/>
    <path d="M 82.25863647460938 124.00592041015625 C 123.30641174316406 138.6376953125 109.8731918334961 122.19046020507812 99.2645263671875 117.87400817871094 C 65.536376953125 139.47715759277344 38.67108917236328 128.26133728027344 58.970848083496094 127.3105697631836 C 63.821224212646484 124.44711303710938 65.82373046875 110.02389526367188 94.6198959350586 89.99365997314453 C 89.107666015625 70.90167236328125 86.5553970336914 83.90655517578125 82.25863647460938 124.00592041015625" stroke-width="0.0" fill="rgb(48, 14, 243)" opacity="0.039762635" stroke="rgb(0, 0, 0)" stroke-opacity="1.0" stroke-linecap="round" stroke-linejoin="round"/>
    <path d="M 73.36973571777344 131.0159149169922 C 49.816680908203125 149.18875122070312 47.75115203857422 164.08201599121094 26.882951736450195 143.78846740722656 C 26.31159019470215 132.46104431152344 -9.188913345336914 148.9428253173828 -20.703824996948242 111.9880142211914 C 1.174070954322815 68.49120330810547 8.644392967224121 87.30242156982422 53.61137008666992 90.20645904541016 C 46.33148956298828 102.41887664794922 46.0152702331543 109.9631118774414 73.36973571777344 131.0159149169922" stroke-width="0.0" fill="rgb(51, 29, 227)" opacity="0.004088214" stroke="rgb(0, 0, 0)" stroke-opacity="1.0" stroke-linecap="round" stroke-linejoin="round"/>
    <path d="M 117.35706329345703 162.3599395751953 C 163.533447265625 119.193115234375 176.8209686279297 136.84999084472656 131.46998596191406 169.307373046875 C 105.92845153808594 185.60995483398438 106.08489990234375 170.10386657714844 69.24581909179688 150.58993530273438 C 81.50940704345703 117.64305114746094 96.0456314086914 114.1625747680664 105.59920501708984 126.79830169677734 C 96.96687316894531 145.60487365722656 102.47952270507812 158.37635803222656 117.35706329345703 162.3599395751953" stroke-width="0.0" fill="rgb(43, 17, 218)" opacity="0.037422877" stroke="rgb(0, 0, 0)" stroke-opacity="1.0" stroke-linecap="round" stroke-linejoin="round"/>
    <path d="M 399.4751892089844 212.8888702392578 C 404.9376220703125 234.71481323242188 381.1712951660156 257.0024719238281 362.5801696777344 254.05123901367188 C 375.2844543457031 205.49542236328125 364.9504089355469 205.447998046875 356.134765625 199.43032836914062 C 346.755615234375 184.60707092285156 359.2477722167969 179.0080108642578 363.5905456542969 180.46743774414062 C 363.22149658203125 171.82431030273438 399.2010803222656 169.75335693359375 399.4751892089844 212.8888702392578" stroke-width="0.0" fill="rgb(83, 239, 161)" opacity="0.7107215" stroke="rgb(0, 0, 0)" stroke-opacity="1.0" stroke-linecap="round" stroke-linejoin="round"/>
    <path d="M 321.4384460449219 175.22909545898438 C 344.3276672363281 180.41537475585938 333.4496154785156 203.04959106445312 304.00634765625 197.28314208984375 C 256.6072998046875 193.00479125976562 254.28379821777344 203.71336364746094 295.4746398925781 157.92303466796875 C 276.3798522949219 144.4971923828125 246.55270385742188 150.00376892089844 311.4855041503906 111.38202667236328 C 310.4226989746094 158.37144470214844 286.9727478027344 159.2371368408203 321.4384460449219 175.22909545898438" stroke-width="0.0" fill="rgb(222, 255, 21)" opacity="0.9258004" stroke="rgb(0, 0, 0)" stroke-opacity="1.0" stroke-linecap="round" stroke-linejoin="round"/>
    <path d="M 145.82406616210938 18.917888641357422 C 142.65025329589844 31.98124885559082 136.2129669189453 59.24543762207031 140.2596435546875 56.15593719482422 C 117.23973846435547 66.28876495361328 107.22991943359375 46.9543571472168 110.85641479492188 40.18967819213867 C 113.48345947265625 17.73687171936035 117.44940185546875 13.361984252929688 126.16929626464844 20.0202693939209 C 122.25233459472656 13.597542762756348 139.49545288085938 19.974842071533203 145.82406616210938 18.917888641357422" stroke-width="0.0" fill="rgb(31, 56, 178)" opacity="0.008244546" stroke="rgb(0, 0, 0)" stroke-opacity="1.0" stroke-linecap="round" stroke-linejoin="round"/>
    <path d="M 69.6480484008789 314.9693603515625 C 85.91059112548828 353.06243896484375 89.5710220336914 351.4596862792969 48.73573303222656 338.1070251464844 C 28.46441650390625 322.95379638671875 28.59599494934082 330.1308288574219 25.772951126098633 318.0053405761719 C 18.803903579711914 296.3839416503906 26.593839645385742 295.9593200683594 34.127254486083984 295.8409729003906 C 58.154022216796875 301.7770690917969 45.02815628051758 331.0872497558594 69.6480484008789 314.9693603515625" stroke-width="0.0" fill="rgb(22, 15, 217)" opacity="0.8660352" stroke="rgb(0, 0, 0)" stroke-opacity="1.0" stroke-linecap="round" stroke-linejoin="round"/>
    <path d="M 271.7891540527344 69.89391326904297 C 245.19284057617188 30.313941955566406 243.89259338378906 36.2067985534668 241.38722229003906 62.79045104980469 C 239.7756805419922 54.150875091552734 236.83180236816406 56.28092575073242 237.10592651367188 36.84452819824219 C 237.3666534423828 44.61391067504883 250.83731079101562 53.026424407958984 227.67901611328125 53.85547637939453 C 218.39004516601562 44.19748306274414 247.21575927734375 6.313843250274658 271.7891540527344 69.89391326904297" stroke-width="0.0" fill="rgb(70, 37, 48)" opacity="0.023084624" stroke="rgb(0, 0, 0)" stroke-opacity="1.0" stroke-linecap="round" stroke-linejoin="round"/>
    <path d="M 104.02074432373047 309.0453796386719 C 134.64442443847656 309.64666748046875 150.6540069580078 337.8138122558594 120.6485824584961 367.3591613769531 C 90.23584747314453 421.2480773925781 104.49993896484375 374.2923583984375 108.39297485351562 349.1105041503906 C 115.47586059570312 322.59002685546875 119.47730255126953 294.7928161621094 124.65901947021484 307.06549072265625 C 113.65348052978516 312.3868103027344 113.353515625 295.9826965332031 104.02074432373047 309.0453796386719" stroke-width="0.0" fill="rgb(243, 192, 51)" opacity="0.6071114" stroke="rgb(0, 0, 0)" stroke-opacity="1.0" stroke-linecap="round" stroke-linejoin="round"/>
    <path d="M 217.3855743408203 354.32672119140625 C 231.79493713378906 393.1195068359375 236.48504638671875 386.9125671386719 226.88702392578125 396.8136901855469 C 172.07791137695312 387.6266784667969 165.44273376464844 379.7842712402344 182.1702117919922 360.31866455078125 C 164.7786865234375 368.9251403808594 156.8981170654297 349.2502136230469 207.96914672851562 344.1280212402344 C 224.39649963378906 337.1713562011719 225.03672790527344 352.1540222167969 217.3855743408203 354.32672119140625" stroke-width="0.0" fill="rgb(211, 0, 201)" opacity="0.14640093" stroke="rgb(0, 0, 0)" stroke-opacity="1.0" stroke-linecap="round" stroke-linejoin="round"/>
    <path d="M 47.696624755859375 193.74180603027344 C 45.87565994262695 194.5572509765625 57.962223052978516 221.27166748046875 22.44364356994629 205.7255859375 C 17.95859146118164 199.5992889404297 3.214373826980591 160.85972595214844 17.890968322753906 142.2423553466797 C 3.917764902114868 205.71263122558594 14.77537727355957 215.80941772460938 28.936189651489258 171.48336791992188 C 17.115447998046875 171.8096923828125 33.03955078125 192.021240234375 47.696624755859375 193.74180603027344" stroke-width="0.0" fill="rgb(5, 25, 204)" opacity="0.009755798" stroke="rgb(0, 0, 0)" stroke-opacity="1.0" stroke-linecap="round" stroke-linejoin="round"/>
    <path d="M 460.6493835449219 317.5674133300781 C 465.2073059082031 329.67071533203125 446.13641357421875 328.2901611328125 420.3492431640625 309.4767150878906 C 397.5474548339844 316.85595703125 387.765869140625 320.4284973144531 405.380126953125 293.6979675292969 C 400.6465148925781 248.75624084472656 409.26983642578125 238.3323974609375 447.1708984375 263.45123291015625 C 457.2174072265625 280.88623046875 452.52008056640625 269.0011901855469 460.6493835449219 317.5674133300781" stroke-width="0.0" fill="rgb(40, 31, 118)" opacity="0.03164364" stroke="rgb(0, 0, 0)" stroke-opacity="1.0" stroke-linecap="round" stroke-linejoin="round"/>
    <path d="M 69.66670989990234 146.52755737304688 C 79.3148193359375 108.10396575927734 47.53067398071289 121.58908081054688 44.00545120239258 137.10183715820312 C -15.359614372253418 138.103271484375 -10.971543312072754 132.35238647460938 2.2962801456451416 121.4630355834961 C 8.450167655944824 112.22511291503906 24.45775604248047 121.03572082519531 42.163143157958984 128.4893341064453 C 25.37769889831543 127.08402252197266 48.64229965209961 143.36349487304688 69.66670989990234 146.52755737304688" stroke-width="0.0" fill="rgb(30, 30, 205)" opacity="0.028354406" stroke="rgb(0, 0, 0)" stroke-opacity="1.0" stroke-linecap="round" stroke-linejoin="round"/>
    <path d="M 542.2931518554688 236.7556610107422 C 505.9806213378906 244.13461303710938 498.61932373046875 243.28271484375 509.91595458984375 236.6151885986328 C 495.1333312988281 271.1546630859375 490.0411071777344 254.0807342529297 486.62139892578125 226.59677124023438 C 488.8900451660156 226.49342346191406 467.5517272949219 254.3707733154297 499.219970703125 246.98257446289062 C 509.6252746582031 230.87661743164062 535.3485717773438 230.88560485839844 542.2931518554688 236.7556610107422" stroke-width="0.0" fill="rgb(26, 56, 136)" opacity="0.0041140197" stroke="rgb(0, 0, 0)" stroke-opacity="1.0" stroke-linecap="round" stroke-linejoin="round"/>
    <path d="M 224.23623657226562 85.70758819580078 C 242.68585205078125 76.3380126953125 254.15658569335938 96.96215057373047 251.07394409179688 137.40362548828125 C 231.2659454345703 151.1103973388672 199.05894470214844 133.27919006347656 208.7624969482422 102.63949584960938 C 240.28701782226562 110.55941772460938 233.4860382080078 76.74214935302734 226.93356323242188 48.29570388793945 C 218.52450561523438 84.68457794189453 228.6261749267578 110.62566375732422 224.23623657226562 85.70758819580078" stroke-width="0.0" fill="rgb(155, 123, 136)" opacity="0.6119841" stroke="rgb(0, 0, 0)" stroke-opacity="1.0" stroke-linecap="round" stroke-linejoin="round"/>
    <path d="M 447.1971130371094 248.76663208007812 C 430.9200134277344 236.94276428222656 434.89923095703125 262.683837890625 434.0572204589844 323.8854675292969 C 415.8953552246094 316.0309753417969 415.9974060058594 285.220458984375 417.109130859375 264.2918701171875 C 418.2491149902344 263.4701232910156 428.2204284667969 250.8372344970703 427.4579162597656 248.74755859375 C 420.0456237792969 212.87594604492188 426.1826477050781 236.6191864013672 447.1971130371094 248.76663208007812" stroke-width="0.0" fill="rgb(38, 25, 175)" opacity="0.019317804" stroke="rgb(0, 0, 0)" stroke-opacity="1.0" stroke-linecap="round" stroke-linejoin="round"/>
    <path d="M 544.2208862304688 134.43585205078125 C 536.2123413085938 153.61842346191406 523.4886474609375 140.8956298828125 486.7421875 132.91629028320312 C 474.5977478027344 155.6999053955078 475.4205017089844 151.06231689453125 473.07696533203125 121.53875732421875 C 463.72412109375 116.92736053466797 493.38775634765625 112.80949401855469 516.2717895507812 122.09717559814453 C 522.2803955078125 112.54203033447266 528.9947509765625 118.52981567382812 544.2208862304688 134.43585205078125" stroke-width="0.0" fill="rgb(7, 33, 116)" opacity="0.01802757" stroke="rgb(0, 0, 0)" stroke-opacity="1.0" stroke-linecap="round" stroke-linejoin="round"/>
    <path d="M 522.04052734375 155.39576721191406 C 519.0618896484375 162.0661163330078 519.5472412109375 173.45582580566406 516.5142822265625 180.19212341308594 C 489.2058410644531 176.33181762695312 495.5992736816406 183.87838745117188 500.1918029785156 169.2935028076172 C 486.4916687011719 161.30943298339844 505.651611328125 146.14356994628906 528.4847412109375 150.48025512695312 C 521.8390502929688 155.87742614746094 527.8367919921875 165.4813232421875 522.04052734375 155.39576721191406" stroke-width="0.0" fill="rgb(44, 11, 160)" opacity="0.05839737" stroke="rgb(0, 0, 0)" stroke-opacity="1.0" stroke-linecap="round" stroke-linejoin="round"/>
    <path d="M 52.25202941894531 376.675048828125 C 30.333646774291992 360.1619873046875 51.43802261352539 354.8525390625 70.91796112060547 370.80322265625 C 36.885868072509766 385.29644775390625 31.461471557617188 387.07403564453125 55.16160583496094 327.5785827636719 C 20.36279296875 316.45306396484375 13.755868911743164 310.43878173828125 66.6954574584961 320.9485778808594 C 95.15210723876953 333.5920104980469 92.00019836425781 374.4414367675781 52.25202941894531 376.675048828125" stroke-width="0.0" fill="rgb(5, 13, 196)" opacity="0.13421841" stroke="rgb(0, 0, 0)" stroke-opacity="1.0" stroke-linecap="round" stroke-linejoin="round"/>
    <path d="M 345.3564453125 233.9944305419922 C 330.4938049316406 251.34695434570312 335.319580078125 303.0711669921875 358.9405212402344 260.56890869140625 C 348.0207214355469 252.58792114257812 311.1250915527344 253.66278076171875 298.16510009765625 279.78680419921875 C 302.1575622558594 281.9835205078125 311.0754699707031 250.37197875976562 309.7231140136719 236.39207458496094 C 339.0577697753906 217.33544921875 355.9165344238281 233.95779418945312 345.3564453125 233.9944305419922" stroke-width="0.0" fill="rgb(80, 24, 202)" opacity="0.006277489" stroke="rgb(0, 0, 0)" stroke-opacity="1.0" stroke-linecap="round" stroke-linejoin="round"/>
    <path d="M 486.8487243652344 148.44772338867188 C 495.1485290527344 138.43606567382812 493.43304443359375 148.38780212402344 473.58380126953125 135.00030517578125 C 482.9306335449219 141.12583923339844 467.2832946777344 132.1044921875 458.1293029785156 126.44432830810547 C 472.62384033203125 142.73504638671875 480.3763427734375 124.68083190917969 495.0742492675781 134.49632263183594 C 510.7255859375 122.41156005859375 483.0578918457031 131.41439819335938 486.8487243652344 148.44772338867188" stroke-width="0.0" fill="rgb(21, 58, 142)" opacity="0.0" stroke="rgb(0, 0, 0)" stroke-opacity="1.0" stroke-linecap="round" stroke-linejoin="round"/>
    <path d="M 481.39581298828125 466.99041748046875 C 482.1588134765625 475.6094665527344 477.95855712890625 472.0640563964844 440.32171630859375 473.6558532714844 C 450.3532409667969 529.4744873046875 484.8183288574219 520.8353881835938 498.2869567871094 483.2872009277344 C 466.9226379394531 438.2641296386719 462.5036926269531 442.4042053222656 462.71270751953125 456.49737548828125 C 466.88848876953125 450.7104187011719 480.94677734375 453.3610534667969 481.39581298828125 466.99041748046875" stroke-width="0.0" fill="rgb(37, 57, 143)" opacity="0.00041935808" stroke="rgb(0, 0, 0)" stroke-opacity="1.0" stroke-linecap="round" stroke-linejoin="round"/>
    <path d="M 516.7770385742188 359.0018615722656 C 520.2803344726562 391.57965087890625 507.57977294921875 382.0745544433594 480.95733642578125 384.6567687988281 C 486.0970458984375 387.74456787109375 476.4233703613281 374.1584777832031 469.8407287597656 368.1721496582031 C 452.3414306640625 342.94049072265625 455.6798400878906 345.8354187011719 487.1885681152344 373.6371765136719 C 527.839111328125 355.7069396972656 518.9757080078125 339.2381286621094 516.7770385742188 359.0018615722656" stroke-width="0.0" fill="rgb(37, 99, 147)" opacity="0.0981898" stroke="rgb(0, 0, 0)" stroke-opacity="1.0" stroke-linecap="round" stroke-linejoin="round"/>
    <path d="M 161.1700897216797 427.4778747558594 C 171.2366180419922 416.0291748046875 171.96426391601562 441.3414306640625 162.14633178710938 443.8786926269531 C 137.92587280273438 439.7059631347656 141.37167358398438 446.59130859375 140.13182067871094 447.6764831542969 C 137.11865234375 419.61846923828125 136.3937225341797 400.0759582519531 157.3838653564453 394.40948486328125 C 167.17672729492188 404.89715576171875 160.0985565185547 439.86993408203125 161.1700897216797 427.4778747558594" stroke-width="0.0" fill="rgb(34, 54, 242)" opacity="0.20237485" stroke="rgb(0, 0, 0)" stroke-opacity="1.0" stroke-linecap="round" stroke-linejoin="round"/>
    <path d="M 113.14945220947266 130.0136260986328 C 99.41704559326172 181.06057739257812 110.82218933105469 149.7707061767578 91.86415100097656 141.18434143066406 C 69.8182601928711 171.32176208496094 86.23957824707031 165.21864318847656 88.66566467285156 157.55059814453125 C 51.262847900390625 117.8728256225586 49.088462829589844 133.0584716796875 61.69179916381836 114.02816772460938 C 88.5394058227539 123.00578308105469 122.47592163085938 114.42090606689453 113.14945220947266 130.0136260986328" stroke-width="0.0" fill="rgb(25, 24, 217)" opacity="0.09435349" stroke="rgb(0, 0, 0)" stroke-opacity="1.0" stroke-linecap="round" stroke-linejoin="round"/>
    <path d="M 196.6201934814453 130.3612060546875 C 201.7935028076172 134.7750701904297 186.8025665283203 135.64767456054688 180.29344177246094 138.4931640625 C 176.69276428222656 136.80130004882812 168.50006103515625 108.37258911132812 166.36563110351562 130.17208862304688 C 150.5208282470703 147.61810302734375 145.15562438964844 144.37591552734375 169.4223175048828 103.25252532958984 C 174.3292999267578 131.17034912109375 190.71298217773438 136.85049438476562 196.6201934814453 130.3612060546875" stroke-width="0.0" fill="rgb(220, 141, 46)" opacity="0.0" stroke="rgb(0, 0, 0)" stroke-opacity="1.0" stroke-linecap="round" stroke-linejoin="round"/>
    <path d="M 176.23825073242188 398.08856201171875 C 172.49783325195312 399.1026306152344 163.5214385986328 403.4571228027344 157.74298095703125 394.5580139160156 C 135.9488983154297 386.3972473144531 134.56297302246094 367.3100280761719 137.4364013671875 397.6351318359375 C 136.40074157714844 408.8105773925781 145.78634643554688 403.0591125488281 133.4056396484375 396.557861328125 C 128.00111389160156 396.58636474609375 154.33514404296875 410.0313720703125 176.23825073242188 398.08856201171875" stroke-width="0.0" fill="rgb(29, 18, 167)" opacity="0.0" stroke="rgb(0, 0, 0)" stroke-opacity="1.0" stroke-linecap="round" stroke-linejoin="round"/>
    <path d="M 454.6870422363281 95.84019470214844 C 460.1917724609375 147.08575439453125 470.4391174316406 157.7151641845703 454.2362365722656 162.23477172851562 C 440.9535827636719 142.86968994140625 441.83709716796875 125.90980529785156 434.6596374511719 116.2404556274414 C 409.2074890136719 131.17994689941406 450.4452819824219 132.54762268066406 438.0437927246094 123.10195922851562 C 463.279296875 116.73226165771484 460.9105224609375 116.19373321533203 454.6870422363281 95.84019470214844" stroke-width="0.0" fill="rgb(48, 27, 93)" opacity="0.016405363" stroke="rgb(0, 0, 0)" stroke-opacity="1.0" stroke-linecap="round" stroke-linejoin="round"/>
    <path d="M 237.855712890625 279.94927978515625 C 252.24530029296875 275.0594177246094 249.5597686767578 265.33001708984375 246.39617919921875 298.28546142578125 C 277.5152282714844 314.8843688964844 238.43145751953125 317.1929016113281 222.895263671875 313.7359619140625 C 235.04237365722656 294.85546875 239.2644500732422 306.5977478027344 215.39271545410156 308.3879699707031 C 233.80096435546875 304.807373046875 253.86532592773438 310.3478088378906 237.855712890625 279.94927978515625" stroke-width="0.0" fill="rgb(147, 80, 232)" opacity="0.026120322" stroke="rgb(0, 0, 0)" stroke-opacity="1.0" stroke-linecap="round" stroke-linejoin="round"/>
    <path d="M 157.42799377441406 486.8024597167969 C 156.3062286376953 470.9658203125 162.2006072998047 467.8206787109375 161.33766174316406 477.6427001953125 C 134.2320098876953 487.06707763671875 123.64276123046875 477.1208190917969 158.60678100585938 456.51092529296875 C 154.9198760986328 476.6133117675781 160.8176727294922 480.6009826660156 176.07723999023438 463.97540283203125 C 141.29183959960938 471.19842529296875 154.84104919433594 473.0174560546875 157.42799377441406 486.8024597167969" stroke-width="0.0" fill="rgb(25, 0, 57)" opacity="0.0" stroke="rgb(0, 0, 0)" stroke-opacity="1.0" stroke-linecap="round" stroke-linejoin="round"/>
  </g>
</svg>
