<?xml version="1.0" ?>
<svg xmlns="http://www.w3.org/2000/svg" version="1.1" width="512" height="512">
  <defs/>
  <g>
    <path d="M 536.645751953125 441.2688293457031 C 539.9406127929688 513.6859741210938 547.0262451171875 524.7042846679688 433.4178771972656 553.6790771484375 C 361.1095886230469 555.7477416992188 316.2030944824219 583.2462768554688 211.08384704589844 524.8049926757812 C 263.27587890625 298.2458801269531 326.0845947265625 345.19586181640625 477.88189697265625 325.77081298828125 C 563.3583984375 316.0337219238281 561.6338500976562 339.2242126464844 536.645751953125 441.2688293457031" stroke-width="0.0" fill="rgb(32, 94, 164)" opacity="0.9468442" stroke="rgb(0, 0, 0)" stroke-opacity="1.0" stroke-linecap="round" stroke-linejoin="round"/>
    <path d="M 304.4925842285156 450.9650573730469 C 151.496337890625 426.1767883300781 311.6212158203125 542.0177612304688 128.2008514404297 573.05224609375 C -51.20000076293945 518.5575561523438 -51.20000076293945 507.9428405761719 -37.23229217529297 439.61065673828125 C -37.57768630981445 184.63157653808594 -31.688613891601562 182.7654571533203 34.599491119384766 163.09678649902344 C 178.25616455078125 278.147705078125 241.2743682861328 256.0217590332031 304.4925842285156 450.9650573730469" stroke-width="0.0" fill="rgb(28, 140, 130)" opacity="0.8185852" stroke="rgb(0, 0, 0)" stroke-opacity="1.0" stroke-linecap="round" stroke-linejoin="round"/>
    <path d="M 283.66455078125 265.7486572265625 C 194.4289093017578 435.92999267578125 289.1166076660156 475.4297180175781 217.1234588623047 472.94622802734375 C 65.57968139648438 343.2673034667969 91.21104431152344 290.08380126953125 56.583396911621094 163.5375518798828 C 45.25107955932617 162.72799682617188 54.27128601074219 152.8307647705078 83.1700668334961 163.9598388671875 C 216.87338256835938 196.7236328125 187.9427032470703 207.7161407470703 283.66455078125 265.7486572265625" stroke-width="0.0" fill="rgb(63, 99, 150)" opacity="0.95201886" stroke="rgb(0, 0, 0)" stroke-opacity="1.0" stroke-linecap="round" stroke-linejoin="round"/>
    <path d="M 285.3405456542969 -6.002692699432373 C 227.0801239013672 150.68798828125 179.33499145507812 156.90481567382812 -2.1817524433135986 202.13650512695312 C -3.9011240005493164 202.7169952392578 -10.326148986816406 185.23324584960938 -9.119970321655273 26.975908279418945 C -13.004427909851074 -13.631946563720703 -4.874516010284424 -18.456117630004883 24.976186752319336 -16.1602840423584 C 185.19146728515625 -17.893600463867188 202.89389038085938 -19.61880111694336 285.3405456542969 -6.002692699432373" stroke-width="0.0" fill="rgb(49, 157, 160)" opacity="0.9958921" stroke="rgb(0, 0, 0)" stroke-opacity="1.0" stroke-linecap="round" stroke-linejoin="round"/>
    <path d="M 572.9227294921875 173.82864379882812 C 474.33856201171875 299.297119140625 422.8680114746094 260.68414306640625 336.0929260253906 315.9139404296875 C 260.47613525390625 344.9956359863281 232.11473083496094 363.640625 223.6522216796875 174.02427673339844 C 208.2091827392578 36.038875579833984 196.25799560546875 -7.45746374130249 415.4367980957031 -51.68843078613281 C 563.2000122070312 0.19759994745254517 563.2000122070312 17.676347732543945 572.9227294921875 173.82864379882812" stroke-width="0.0" fill="rgb(48, 71, 135)" opacity="0.7515794" stroke="rgb(0, 0, 0)" stroke-opacity="1.0" stroke-linecap="round" stroke-linejoin="round"/>
    <path d="M 352.3761291503906 91.55396270751953 C 259.1407165527344 272.3786926269531 254.59271240234375 315.81878662109375 222.5704803466797 277.5921630859375 C 86.2290267944336 204.52911376953125 55.04500198364258 249.7913360595703 54.74211883544922 200.61895751953125 C 98.49674224853516 131.45135498046875 92.17066192626953 80.26773071289062 284.13421630859375 -22.600297927856445 C 409.4820556640625 -5.879026412963867 442.7906188964844 7.367334365844727 352.3761291503906 91.55396270751953" stroke-width="0.0" fill="rgb(43, 106, 188)" opacity="0.9777602" stroke="rgb(0, 0, 0)" stroke-opacity="1.0" stroke-linecap="round" stroke-linejoin="round"/>
    <path d="M 538.6708374023438 320.9952697753906 C 512.8303833007812 439.0855407714844 540.1069946289062 472.80279541015625 298.9457092285156 508.71990966796875 C 281.24200439453125 418.658935546875 264.4889221191406 436.686767578125 268.2391052246094 361.94952392578125 C 231.29371643066406 221.89669799804688 275.34552001953125 235.13906860351562 317.0334777832031 243.7901153564453 C 411.2716064453125 275.72613525390625 437.41595458984375 262.2852783203125 538.6708374023438 320.9952697753906" stroke-width="0.0" fill="rgb(177, 245, 224)" opacity="0.85486716" stroke="rgb(0, 0, 0)" stroke-opacity="1.0" stroke-linecap="round" stroke-linejoin="round"/>
    <path d="M 517.8763427734375 158.4713592529297 C 526.6041870117188 295.4260559082031 549.4444580078125 349.61083984375 483.3335266113281 411.388671875 C 301.6509094238281 437.97821044921875 322.6639404296875 388.241455078125 379.61907958984375 171.20181274414062 C 375.640625 45.84913635253906 332.7699279785156 -61.86652374267578 516.0330200195312 131.00091552734375 C 569.464599609375 137.231201171875 555.034423828125 139.70216369628906 517.8763427734375 158.4713592529297" stroke-width="0.0" fill="rgb(36, 122, 150)" opacity="0.9992744" stroke="rgb(0, 0, 0)" stroke-opacity="1.0" stroke-linecap="round" stroke-linejoin="round"/>
    <path d="M 324.2327575683594 246.04385375976562 C 296.045166015625 251.40902709960938 274.9651794433594 250.10641479492188 257.9394836425781 300.77960205078125 C 260.7428894042969 315.5480651855469 280.2431945800781 293.29229736328125 196.3655242919922 255.4711151123047 C 107.85195922851562 116.14783477783203 110.90286254882812 135.8580780029297 354.0310363769531 98.60063171386719 C 299.76934814453125 190.85629272460938 302.9477844238281 211.81820678710938 324.2327575683594 246.04385375976562" stroke-width="0.0" fill="rgb(222, 123, 39)" opacity="0.95262784" stroke="rgb(0, 0, 0)" stroke-opacity="1.0" stroke-linecap="round" stroke-linejoin="round"/>
    <path d="M 457.34588623046875 414.46533203125 C 340.67095947265625 370.0661926269531 373.53314208984375 242.58497619628906 351.7581787109375 246.96722412109375 C 333.1806335449219 234.8784637451172 355.86224365234375 226.5264129638672 359.5865783691406 226.66856384277344 C 340.53607177734375 214.74954223632812 351.55517578125 201.68545532226562 379.594970703125 97.1812973022461 C 414.7952880859375 113.48123168945312 483.0019226074219 36.20340347290039 457.34588623046875 414.46533203125" stroke-width="0.0" fill="rgb(37, 97, 175)" opacity="0.9139267" stroke="rgb(0, 0, 0)" stroke-opacity="1.0" stroke-linecap="round" stroke-linejoin="round"/>
    <path d="M 251.95919799804688 257.65216064453125 C 230.00558471679688 283.3816223144531 229.83859252929688 275.8775939941406 215.74923706054688 313.1600036621094 C 202.0736083984375 312.206787109375 181.99560546875 295.1772766113281 94.8724365234375 231.4641571044922 C 133.67872619628906 158.30889892578125 124.71505737304688 124.33226776123047 162.09024047851562 123.33020782470703 C 293.2919921875 200.71099853515625 309.8960876464844 181.4373016357422 251.95919799804688 257.65216064453125" stroke-width="0.0" fill="rgb(16, 111, 168)" opacity="1.0" stroke="rgb(0, 0, 0)" stroke-opacity="1.0" stroke-linecap="round" stroke-linejoin="round"/>
    <path d="M 409.0423583984375 300.9639892578125 C 398.12384033203125 314.8370666503906 361.69842529296875 266.82562255859375 383.1905212402344 527.294677734375 C 148.58065795898438 511.6063232421875 272.9209289550781 430.71826171875 335.9443664550781 314.06610107421875 C 398.037353515625 167.5056915283203 388.63348388671875 92.54682159423828 363.4446716308594 244.39691162109375 C 376.44122314453125 243.9586181640625 401.2657470703125 275.44195556640625 409.0423583984375 300.9639892578125" stroke-width="0.0" fill="rgb(185, 238, 203)" opacity="0.7934977" stroke="rgb(0, 0, 0)" stroke-opacity="1.0" stroke-linecap="round" stroke-linejoin="round"/>
    <path d="M 519.5899047851562 57.66010284423828 C 522.8505249023438 108.92620086669922 540.390625 184.67491149902344 503.7815856933594 247.48406982421875 C 448.4296569824219 112.85985565185547 409.00390625 73.18470001220703 335.21795654296875 -0.4806491434574127 C 348.99407958984375 -66.19284057617188 393.247314453125 -42.31740188598633 468.1250305175781 -24.97075080871582 C 547.5928955078125 -3.493370294570923 540.1698608398438 3.9230055809020996 519.5899047851562 57.66010284423828" stroke-width="0.0" fill="rgb(31, 155, 151)" opacity="0.99095124" stroke="rgb(0, 0, 0)" stroke-opacity="1.0" stroke-linecap="round" stroke-linejoin="round"/>
    <path d="M 397.31719970703125 56.71141815185547 C 395.0597839355469 18.52389144897461 383.1363220214844 6.777866840362549 395.1493225097656 61.276222229003906 C 363.8607482910156 87.6962661743164 368.14947509765625 82.06554412841797 376.795654296875 79.6493148803711 C 370.6020202636719 63.0555419921875 386.2884826660156 72.21359252929688 361.11566162109375 39.32493591308594 C 349.7454833984375 94.99839782714844 404.7989807128906 90.91770935058594 397.31719970703125 56.71141815185547" stroke-width="0.0" fill="rgb(230, 79, 14)" opacity="0.81469244" stroke="rgb(0, 0, 0)" stroke-opacity="1.0" stroke-linecap="round" stroke-linejoin="round"/>
    <path d="M 431.5796813964844 427.1502990722656 C 467.7113952636719 409.2426452636719 444.6279602050781 417.9394226074219 442.11151123046875 446.4623107910156 C 433.4751892089844 437.6545104980469 451.59637451171875 395.7824401855469 354.9172668457031 359.6932678222656 C 346.9460754394531 302.0959777832031 394.15380859375 324.9366149902344 390.1581115722656 343.59490966796875 C 425.36370849609375 423.5086975097656 428.1062927246094 442.11962890625 431.5796813964844 427.1502990722656" stroke-width="0.0" fill="rgb(19, 112, 197)" opacity="0.9474223" stroke="rgb(0, 0, 0)" stroke-opacity="1.0" stroke-linecap="round" stroke-linejoin="round"/>
    <path d="M 324.6923522949219 403.4271240234375 C 282.4555969238281 448.7068786621094 307.49609375 492.71600341796875 264.273681640625 501.6055603027344 C 226.69602966308594 485.6292724609375 205.76101684570312 453.2428283691406 215.90870666503906 420.65338134765625 C 226.76870727539062 386.3591003417969 257.1842346191406 339.7867431640625 282.9619445800781 338.3134765625 C 322.0003662109375 327.7212829589844 232.71072387695312 417.8826904296875 324.6923522949219 403.4271240234375" stroke-width="0.0" fill="rgb(163, 232, 223)" opacity="1.0" stroke="rgb(0, 0, 0)" stroke-opacity="1.0" stroke-linecap="round" stroke-linejoin="round"/>
    <path d="M 491.5597229003906 458.8543395996094 C 437.6746826171875 489.9683837890625 408.04559326171875 468.9044189453125 386.927978515625 527.130615234375 C 337.4763488769531 497.43524169921875 309.812255859375 522.4052124023438 274.6904602050781 497.33203125 C 396.2095031738281 499.5274353027344 394.51556396484375 406.4988708496094 378.0398254394531 403.7027282714844 C 451.064453125 394.5441589355469 460.7496643066406 366.8404235839844 491.5597229003906 458.8543395996094" stroke-width="0.0" fill="rgb(63, 97, 168)" opacity="0.97024375" stroke="rgb(0, 0, 0)" stroke-opacity="1.0" stroke-linecap="round" stroke-linejoin="round"/>
    <path d="M 567.2723388671875 455.3962097167969 C 554.9819946289062 484.5833740234375 558.6320190429688 508.951416015625 392.1200866699219 544.0350341796875 C 322.16363525390625 452.8291931152344 381.64691162109375 429.7379455566406 432.4626159667969 402.409912109375 C 469.28753662109375 365.1330261230469 485.91278076171875 362.01007080078125 509.8637390136719 162.84664916992188 C 570.5631713867188 197.15769958496094 583.8859252929688 292.0936279296875 567.2723388671875 455.3962097167969" stroke-width="0.0" fill="rgb(27, 133, 143)" opacity="0.99928033" stroke="rgb(0, 0, 0)" stroke-opacity="1.0" stroke-linecap="round" stroke-linejoin="round"/>
    <path d="M 258.0449523925781 356.7179260253906 C 210.4292449951172 373.6565856933594 180.73895263671875 381.0656433105469 202.88299560546875 377.7943420410156 C 243.4778289794922 370.54052734375 247.76336669921875 373.9659423828125 253.6180419921875 345.967529296875 C 279.64422607421875 343.9244689941406 238.73751831054688 299.712158203125 265.7542419433594 323.5685119628906 C 269.79583740234375 339.43145751953125 262.5982971191406 359.2470703125 258.0449523925781 356.7179260253906" stroke-width="0.0" fill="rgb(158, 82, 105)" opacity="0.99680626" stroke="rgb(0, 0, 0)" stroke-opacity="1.0" stroke-linecap="round" stroke-linejoin="round"/>
    <path d="M 8.017446517944336 523.0326538085938 C 17.174198150634766 520.413330078125 10.538132667541504 527.49951171875 0.7022038698196411 530.6587524414062 C -9.364206314086914 527.7437133789062 -16.68471336364746 520.4232177734375 -19.364206314086914 510.4232177734375 C -16.684417724609375 500.4241638183594 -9.341285705566406 493.1831359863281 -12.042186737060547 503.2685241699219 C -3.677582263946533 507.53009033203125 3.6094553470611572 514.7254638671875 8.017446517944336 523.0326538085938" stroke-width="0.0" fill="rgb(29, 3, 0)" opacity="0.113359906" stroke="rgb(0, 0, 0)" stroke-opacity="1.0" stroke-linecap="round" stroke-linejoin="round"/>
    <path d="M 304.756103515625 425.0465393066406 C 282.42266845703125 447.3707275390625 305.91314697265625 391.5522155761719 283.7502136230469 492.46685791015625 C 325.39569091796875 513.9236450195312 282.00323486328125 437.65289306640625 310.70904541015625 405.3610534667969 C 260.71240234375 442.6325378417969 330.6444091796875 428.1529541015625 313.1423645019531 404.1361999511719 C 256.6534423828125 385.99334716796875 299.09674072265625 422.0927429199219 304.756103515625 425.0465393066406" stroke-width="0.0" fill="rgb(43, 17, 105)" opacity="0.9313191" stroke="rgb(0, 0, 0)" stroke-opacity="1.0" stroke-linecap="round" stroke-linejoin="round"/>
    <path d="M 308.7469177246094 291.8597412109375 C 351.009521484375 263.1600646972656 332.23553466796875 256.0704650878906 317.8425598144531 351.39227294921875 C 263.8620300292969 340.6770935058594 287.0336608886719 357.5347595214844 302.7179260253906 283.5439453125 C 334.8190002441406 296.213623046875 342.3876953125 252.76235961914062 318.2712097167969 301.6820983886719 C 302.140380859375 304.0719909667969 311.91900634765625 289.5750427246094 308.7469177246094 291.8597412109375" stroke-width="0.0" fill="rgb(39, 0, 58)" opacity="0.9774038" stroke="rgb(0, 0, 0)" stroke-opacity="1.0" stroke-linecap="round" stroke-linejoin="round"/>
    <path d="M 275.2604675292969 408.8503112792969 C 291.97625732421875 415.9927062988281 330.4174499511719 422.608154296875 278.56512451171875 419.8707275390625 C 229.9741668701172 425.4212646484375 242.85760498046875 407.54290771484375 259.6859436035156 373.6572265625 C 224.3907928466797 375.95587158203125 268.1855773925781 367.57464599609375 317.99713134765625 375.904541015625 C 291.3197326660156 382.91802978515625 286.7109069824219 368.1343688964844 275.2604675292969 408.8503112792969" stroke-width="0.0" fill="rgb(182, 178, 144)" opacity="0.04465731" stroke="rgb(0, 0, 0)" stroke-opacity="1.0" stroke-linecap="round" stroke-linejoin="round"/>
    <path d="M 355.2426452636719 89.85829162597656 C 314.2959289550781 116.01717376708984 322.015869140625 144.38571166992188 311.1230163574219 128.7231903076172 C 286.57281494140625 135.74273681640625 277.3036804199219 131.06631469726562 259.1941223144531 142.82887268066406 C 194.5890350341797 102.49198913574219 222.10409545898438 88.37004089355469 257.90325927734375 81.52620697021484 C 324.6941223144531 42.15045166015625 348.714599609375 87.7651596069336 355.2426452636719 89.85829162597656" stroke-width="0.0" fill="rgb(11, 117, 183)" opacity="1.0" stroke="rgb(0, 0, 0)" stroke-opacity="1.0" stroke-linecap="round" stroke-linejoin="round"/>
    <path d="M 272.8110656738281 406.41619873046875 C 273.8260192871094 369.7344665527344 274.3452453613281 389.6223449707031 291.486328125 482.5662536621094 C 315.45489501953125 397.5760803222656 342.1446838378906 398.5666198730469 288.55548095703125 390.5216979980469 C 277.7481689453125 403.5958557128906 298.2088928222656 399.0416259765625 297.77392578125 338.5322570800781 C 295.6201171875 409.6247863769531 288.87725830078125 415.63592529296875 272.8110656738281 406.41619873046875" stroke-width="0.0" fill="rgb(38, 19, 74)" opacity="0.94136626" stroke="rgb(0, 0, 0)" stroke-opacity="1.0" stroke-linecap="round" stroke-linejoin="round"/>
    <path d="M 400.67791748046875 64.4410400390625 C 360.0236511230469 39.80085754394531 356.7630920410156 84.51406860351562 361.2699890136719 72.35748291015625 C 377.969970703125 75.06726837158203 364.4389953613281 87.56011199951172 359.94500732421875 89.03609466552734 C 368.4427490234375 67.21300506591797 396.3741760253906 52.71299743652344 384.41802978515625 50.00431442260742 C 379.56402587890625 56.833038330078125 383.0487365722656 79.57291412353516 400.67791748046875 64.4410400390625" stroke-width="0.0" fill="rgb(152, 70, 139)" opacity="0.11886515" stroke="rgb(0, 0, 0)" stroke-opacity="1.0" stroke-linecap="round" stroke-linejoin="round"/>
    <path d="M 332.5655517578125 128.75209045410156 C 332.6024475097656 213.15260314941406 326.406005859375 248.04110717773438 333.328857421875 213.7113800048828 C 225.76792907714844 224.1526641845703 231.1214141845703 249.62498474121094 260.40447998046875 175.79473876953125 C 264.97454833984375 158.27191162109375 273.1115417480469 194.4098663330078 295.9498291015625 229.7096710205078 C 282.7745666503906 134.0303955078125 277.48590087890625 130.80691528320312 332.5655517578125 128.75209045410156" stroke-width="0.0" fill="rgb(212, 120, 15)" opacity="0.9002039" stroke="rgb(0, 0, 0)" stroke-opacity="1.0" stroke-linecap="round" stroke-linejoin="round"/>
    <path d="M 267.5524597167969 398.99072265625 C 244.81643676757812 416.83697509765625 252.6497802734375 387.4512023925781 236.6986846923828 401.2247314453125 C 216.04531860351562 408.8070373535156 197.75576782226562 417.1884460449219 196.1265106201172 391.6519775390625 C 214.80653381347656 364.7041015625 224.1581573486328 370.95880126953125 220.69967651367188 386.325927734375 C 230.44619750976562 399.9947204589844 244.18312072753906 400.6125793457031 267.5524597167969 398.99072265625" stroke-width="0.0" fill="rgb(255, 120, 89)" opacity="0.78849584" stroke="rgb(0, 0, 0)" stroke-opacity="1.0" stroke-linecap="round" stroke-linejoin="round"/>
    <path d="M 332.4726867675781 247.54916381835938 C 337.35833740234375 286.0993347167969 322.20050048828125 278.45196533203125 340.5820617675781 253.14173889160156 C 333.36187744140625 287.6419982910156 328.6040954589844 292.2818298339844 302.6322937011719 307.52093505859375 C 326.4811096191406 255.60757446289062 333.7021484375 221.37937927246094 340.1057434082031 209.37030029296875 C 369.7241516113281 192.2945098876953 332.1217346191406 203.1653289794922 332.4726867675781 247.54916381835938" stroke-width="0.0" fill="rgb(86, 40, 99)" opacity="0.8598086" stroke="rgb(0, 0, 0)" stroke-opacity="1.0" stroke-linecap="round" stroke-linejoin="round"/>
    <path d="M 251.07492065429688 375.2315368652344 C 221.12567138671875 405.6824645996094 218.29957580566406 417.09197998046875 187.03211975097656 410.2017517089844 C 174.40750122070312 402.1752624511719 165.4043731689453 366.4834289550781 197.01194763183594 351.2627258300781 C 197.71841430664062 319.7472839355469 187.88485717773438 320.1599426269531 185.04092407226562 367.3458557128906 C 179.62635803222656 362.57159423828125 224.58445739746094 357.8002014160156 251.07492065429688 375.2315368652344" stroke-width="0.0" fill="rgb(255, 234, 0)" opacity="1.0" stroke="rgb(0, 0, 0)" stroke-opacity="1.0" stroke-linecap="round" stroke-linejoin="round"/>
    <path d="M 450.13446044921875 378.2299499511719 C 470.3132019042969 418.02227783203125 459.6446228027344 420.5829772949219 439.3843078613281 422.44342041015625 C 436.04559326171875 438.5400390625 429.81829833984375 425.56048583984375 431.2314453125 427.2984313964844 C 430.0182800292969 395.31646728515625 431.7296447753906 366.0897216796875 459.4554748535156 351.1349792480469 C 461.3762512207031 385.0309143066406 454.5058288574219 387.97296142578125 450.13446044921875 378.2299499511719" stroke-width="0.0" fill="rgb(51, 100, 156)" opacity="0.012506035" stroke="rgb(0, 0, 0)" stroke-opacity="1.0" stroke-linecap="round" stroke-linejoin="round"/>
    <path d="M 404.48486328125 394.94549560546875 C 410.87744140625 405.2722473144531 399.48492431640625 405.1932373046875 401.33514404296875 405.2406005859375 C 384.1344909667969 422.1175231933594 412.1665344238281 399.4299621582031 366.17767333984375 394.52166748046875 C 345.9394836425781 385.32635498046875 371.2558288574219 362.0270690917969 410.3424377441406 347.0406494140625 C 431.8807678222656 389.7474365234375 413.08563232421875 406.2031555175781 404.48486328125 394.94549560546875" stroke-width="0.0" fill="rgb(244, 116, 55)" opacity="0.857439" stroke="rgb(0, 0, 0)" stroke-opacity="1.0" stroke-linecap="round" stroke-linejoin="round"/>
    <path d="M 259.7428283691406 138.38499450683594 C 267.17950439453125 152.0248565673828 268.2511291503906 147.31723022460938 220.87576293945312 141.93101501464844 C 210.1856689453125 170.06532287597656 206.39451599121094 133.8526153564453 227.30397033691406 129.068603515625 C 205.6144256591797 103.59735870361328 224.35403442382812 95.14057922363281 265.7781677246094 120.01564025878906 C 273.20184326171875 134.44442749023438 277.0928955078125 122.52210235595703 259.7428283691406 138.38499450683594" stroke-width="0.0" fill="rgb(202, 44, 91)" opacity="0.46704647" stroke="rgb(0, 0, 0)" stroke-opacity="1.0" stroke-linecap="round" stroke-linejoin="round"/>
    <path d="M 264.15081787109375 414.6745300292969 C 278.9938049316406 429.7424621582031 278.6933898925781 437.44427490234375 232.26776123046875 420.2587890625 C 229.72450256347656 425.5693664550781 241.23458862304688 407.55316162109375 245.77117919921875 411.3904113769531 C 248.5238494873047 409.874267578125 254.4955596923828 396.26361083984375 240.26138305664062 394.2513427734375 C 224.93455505371094 402.3747863769531 235.53672790527344 414.0911865234375 264.15081787109375 414.6745300292969" stroke-width="0.0" fill="rgb(136, 238, 166)" opacity="0.7418324" stroke="rgb(0, 0, 0)" stroke-opacity="1.0" stroke-linecap="round" stroke-linejoin="round"/>
    <path d="M 380.81243896484375 298.60595703125 C 403.27313232421875 336.732177734375 388.2010803222656 360.8605651855469 417.16717529296875 354.3681335449219 C 428.4893493652344 331.77618408203125 387.6042785644531 321.85491943359375 380.1393127441406 321.1224670410156 C 399.33648681640625 321.87213134765625 404.3356018066406 310.1376647949219 392.9859313964844 259.1009216308594 C 420.60089111328125 293.4486083984375 422.35284423828125 300.92938232421875 380.81243896484375 298.60595703125" stroke-width="0.0" fill="rgb(110, 55, 122)" opacity="0.56506157" stroke="rgb(0, 0, 0)" stroke-opacity="1.0" stroke-linecap="round" stroke-linejoin="round"/>
    <path d="M 250.59304809570312 270.4518127441406 C 253.40611267089844 317.48028564453125 252.4149932861328 302.8764953613281 229.32437133789062 318.5268249511719 C 212.59463500976562 342.8724060058594 203.9315643310547 317.1033630371094 204.35806274414062 309.0087890625 C 225.53053283691406 295.4725341796875 240.1724853515625 264.5187683105469 260.99462890625 261.3047790527344 C 238.79818725585938 251.5914306640625 246.58917236328125 263.1429138183594 250.59304809570312 270.4518127441406" stroke-width="0.0" fill="rgb(255, 113, 62)" opacity="1.0" stroke="rgb(0, 0, 0)" stroke-opacity="1.0" stroke-linecap="round" stroke-linejoin="round"/>
    <path d="M 251.58766174316406 321.29437255859375 C 280.3380126953125 337.8295593261719 268.858154296875 359.5057373046875 248.7468719482422 338.33349609375 C 258.34405517578125 306.05743408203125 269.2716979980469 304.4146728515625 262.5606689453125 296.63848876953125 C 247.66845703125 271.71893310546875 237.50814819335938 265.08306884765625 253.6562957763672 253.6230010986328 C 235.82638549804688 280.12030029296875 239.43943786621094 296.6968688964844 251.58766174316406 321.29437255859375" stroke-width="0.0" fill="rgb(162, 155, 63)" opacity="0.9963711" stroke="rgb(0, 0, 0)" stroke-opacity="1.0" stroke-linecap="round" stroke-linejoin="round"/>
    <path d="M 540.3839721679688 44.91490936279297 C 542.8811645507812 64.1281509399414 539.9976806640625 65.927978515625 503.5361633300781 71.92244720458984 C 491.1331787109375 71.24052429199219 487.6680603027344 44.555328369140625 510.1106872558594 46.95343017578125 C 490.95880126953125 49.0575065612793 505.8581848144531 33.25452423095703 521.685546875 46.25184631347656 C 528.5393676757812 39.13339614868164 525.1775512695312 36.73057556152344 540.3839721679688 44.91490936279297" stroke-width="0.0" fill="rgb(251, 129, 41)" opacity="0.98114645" stroke="rgb(0, 0, 0)" stroke-opacity="1.0" stroke-linecap="round" stroke-linejoin="round"/>
    <path d="M 296.4833068847656 303.7550354003906 C 302.76983642578125 300.07891845703125 289.32757568359375 313.89666748046875 285.375244140625 307.57330322265625 C 278.1708984375 299.3076171875 280.51129150390625 290.3553466796875 289.09423828125 293.2347106933594 C 269.74603271484375 273.5210876464844 300.4949035644531 272.6229248046875 286.9058532714844 291.9438781738281 C 288.0190734863281 292.7338562011719 293.63427734375 292.7840270996094 296.4833068847656 303.7550354003906" stroke-width="0.0" fill="rgb(156, 211, 89)" opacity="0.5544118" stroke="rgb(0, 0, 0)" stroke-opacity="1.0" stroke-linecap="round" stroke-linejoin="round"/>
    <path d="M 337.57403564453125 107.6683349609375 C 353.88909912109375 98.87318420410156 338.4432067871094 113.96456146240234 336.5418395996094 109.46734619140625 C 330.8137512207031 115.69224548339844 321.7088623046875 139.7571258544922 309.6225280761719 131.27847290039062 C 296.8375244140625 69.01581573486328 303.7626647949219 82.9306640625 337.00836181640625 51.90666580200195 C 350.30462646484375 72.60092163085938 329.14007568359375 113.09254455566406 337.57403564453125 107.6683349609375" stroke-width="0.0" fill="rgb(161, 181, 103)" opacity="0.5836715" stroke="rgb(0, 0, 0)" stroke-opacity="1.0" stroke-linecap="round" stroke-linejoin="round"/>
    <path d="M 371.34295654296875 238.3600311279297 C 376.93634033203125 235.2566680908203 369.29547119140625 244.2627410888672 360.851318359375 227.30648803710938 C 315.65667724609375 209.08409118652344 304.40997314453125 209.9621124267578 361.42071533203125 195.27249145507812 C 333.7802429199219 215.68984985351562 357.00164794921875 216.3341827392578 335.78271484375 208.4645538330078 C 344.9241943359375 197.57351684570312 360.9903869628906 218.13470458984375 371.34295654296875 238.3600311279297" stroke-width="0.0" fill="rgb(39, 49, 186)" opacity="0.653189" stroke="rgb(0, 0, 0)" stroke-opacity="1.0" stroke-linecap="round" stroke-linejoin="round"/>
    <path d="M 192.35714721679688 246.34332275390625 C 179.0411376953125 240.2264862060547 190.79888916015625 262.6842956542969 190.9895477294922 263.533935546875 C 176.20777893066406 261.6645202636719 166.338623046875 239.61361694335938 182.4826202392578 231.9431915283203 C 177.8295135498047 240.64169311523438 168.031005859375 259.9449157714844 170.21334838867188 239.42652893066406 C 195.8240509033203 243.20428466796875 200.2310333251953 258.89263916015625 192.35714721679688 246.34332275390625" stroke-width="0.0" fill="rgb(1, 114, 110)" opacity="0.002471541" stroke="rgb(0, 0, 0)" stroke-opacity="1.0" stroke-linecap="round" stroke-linejoin="round"/>
    <path d="M 233.00335693359375 82.0420150756836 C 236.76792907714844 128.2789764404297 245.084228515625 134.1482391357422 222.3557891845703 109.89364624023438 C 196.9934844970703 95.77884674072266 189.708740234375 78.15726470947266 193.44976806640625 73.7863540649414 C 178.15699768066406 40.0355110168457 202.37876892089844 86.90754699707031 216.1763916015625 75.76753234863281 C 225.76113891601562 47.73165512084961 238.55758666992188 65.1288070678711 233.00335693359375 82.0420150756836" stroke-width="0.0" fill="rgb(182, 79, 46)" opacity="0.8424952" stroke="rgb(0, 0, 0)" stroke-opacity="1.0" stroke-linecap="round" stroke-linejoin="round"/>
    <path d="M 428.71002197265625 380.04095458984375 C 426.917236328125 377.7568359375 409.3438720703125 364.0688781738281 375.1023254394531 368.9046630859375 C 403.0942687988281 396.0599670410156 436.2386474609375 402.1806640625 414.05584716796875 392.4967041015625 C 392.49847412109375 320.45074462890625 390.20391845703125 298.6323547363281 416.8532409667969 312.57220458984375 C 420.0252380371094 379.4453125 435.41790771484375 372.71832275390625 428.71002197265625 380.04095458984375" stroke-width="0.0" fill="rgb(159, 85, 116)" opacity="0.11221864" stroke="rgb(0, 0, 0)" stroke-opacity="1.0" stroke-linecap="round" stroke-linejoin="round"/>
    <path d="M 81.53205108642578 144.22689819335938 C 45.20748519897461 126.81608581542969 38.59654235839844 135.30877685546875 39.88077926635742 135.99176025390625 C 42.55027389526367 104.58554077148438 38.29248809814453 102.4234390258789 26.105375289916992 81.40413665771484 C 23.913530349731445 96.95891571044922 30.844837188720703 94.08604431152344 35.06849670410156 74.4416732788086 C 45.21261978149414 85.57112121582031 71.68193054199219 104.36685180664062 81.53205108642578 144.22689819335938" stroke-width="0.0" fill="rgb(71, 181, 170)" opacity="0.006845192" stroke="rgb(0, 0, 0)" stroke-opacity="1.0" stroke-linecap="round" stroke-linejoin="round"/>
    <path d="M 73.76872253417969 468.68408203125 C 64.64166259765625 486.3135986328125 50.26966094970703 489.42425537109375 26.426843643188477 480.3624267578125 C 11.105807304382324 495.97662353515625 3.601313829421997 490.83160400390625 -22.016382217407227 469.75897216796875 C 32.32435607910156 468.23504638671875 32.82192611694336 468.1622314453125 34.8246955871582 442.5196838378906 C 47.256107330322266 439.8046875 57.96396255493164 448.12835693359375 73.76872253417969 468.68408203125" stroke-width="0.0" fill="rgb(81, 178, 183)" opacity="0.0" stroke="rgb(0, 0, 0)" stroke-opacity="1.0" stroke-linecap="round" stroke-linejoin="round"/>
    <path d="M 158.60568237304688 258.1956481933594 C 150.3074951171875 261.6271057128906 148.25833129882812 272.5194396972656 145.13278198242188 272.6125183105469 C 137.98968505859375 275.65753173828125 128.8419952392578 250.211181640625 124.8219223022461 250.11614990234375 C 127.18424987792969 253.72842407226562 131.1468505859375 236.97691345214844 135.79534912109375 243.36146545410156 C 135.52699279785156 233.3681182861328 158.83920288085938 238.64492797851562 158.60568237304688 258.1956481933594" stroke-width="0.0" fill="rgb(157, 56, 162)" opacity="0.7676723" stroke="rgb(0, 0, 0)" stroke-opacity="1.0" stroke-linecap="round" stroke-linejoin="round"/>
    <path d="M 557.4387817382812 255.4895477294922 C 528.2279663085938 263.1829833984375 521.3010864257812 271.12066650390625 554.3482055664062 274.6446838378906 C 542.3392333984375 277.10546875 521.8428955078125 260.9967346191406 488.712890625 284.9571533203125 C 485.12774658203125 256.7596740722656 502.3275146484375 230.55552673339844 506.6766662597656 268.6005859375 C 537.0580444335938 265.36639404296875 555.781494140625 259.95111083984375 557.4387817382812 255.4895477294922" stroke-width="0.0" fill="rgb(17, 157, 83)" opacity="0.050381154" stroke="rgb(0, 0, 0)" stroke-opacity="1.0" stroke-linecap="round" stroke-linejoin="round"/>
    <path d="M 224.7871856689453 416.08245849609375 C 246.1500244140625 426.345947265625 244.78126525878906 421.2196044921875 268.9557189941406 404.60595703125 C 258.20062255859375 394.18035888671875 243.53094482421875 407.0530090332031 247.1815948486328 412.1452331542969 C 268.1239318847656 395.4393005371094 256.7098083496094 378.5489807128906 233.83912658691406 387.1564025878906 C 242.59222412109375 381.4465026855469 236.80064392089844 365.1333923339844 224.7871856689453 416.08245849609375" stroke-width="0.0" fill="rgb(168, 246, 141)" opacity="0.8147213" stroke="rgb(0, 0, 0)" stroke-opacity="1.0" stroke-linecap="round" stroke-linejoin="round"/>
    <path d="M 64.75901794433594 78.2804946899414 C 66.65907287597656 101.686767578125 66.14556121826172 105.69586181640625 96.77021026611328 104.4063949584961 C 81.25977325439453 95.66607666015625 54.913082122802734 96.5290298461914 77.1361312866211 109.16327667236328 C 80.78530883789062 123.31879425048828 91.35475158691406 115.39204406738281 69.27991485595703 77.46334075927734 C 86.56448364257812 78.14129638671875 95.18495178222656 92.89940643310547 64.75901794433594 78.2804946899414" stroke-width="0.0" fill="rgb(66, 164, 147)" opacity="0.024246631" stroke="rgb(0, 0, 0)" stroke-opacity="1.0" stroke-linecap="round" stroke-linejoin="round"/>
    <path d="M 466.117919921875 228.08045959472656 C 467.3547058105469 243.87437438964844 467.88616943359375 244.9979248046875 466.88275146484375 239.01893615722656 C 463.172119140625 249.5402374267578 463.8372497558594 230.95968627929688 430.5640563964844 232.05992126464844 C 425.0196228027344 224.9323272705078 450.0487365722656 210.45162963867188 464.4970703125 225.253173828125 C 464.5406188964844 228.54257202148438 472.756103515625 226.90945434570312 466.117919921875 228.08045959472656" stroke-width="0.0" fill="rgb(89, 55, 164)" opacity="0.3327099" stroke="rgb(0, 0, 0)" stroke-opacity="1.0" stroke-linecap="round" stroke-linejoin="round"/>
    <path d="M 371.32232666015625 220.71649169921875 C 366.254638671875 211.90298461914062 376.62353515625 210.86412048339844 372.80963134765625 216.49264526367188 C 370.60931396484375 212.22479248046875 359.31280517578125 224.3910369873047 371.95294189453125 229.25955200195312 C 357.8852233886719 204.80520629882812 356.7713928222656 193.10775756835938 366.69891357421875 173.9925079345703 C 355.31207275390625 197.81817626953125 365.25982666015625 209.70477294921875 371.32232666015625 220.71649169921875" stroke-width="0.0" fill="rgb(42, 96, 169)" opacity="0.34899744" stroke="rgb(0, 0, 0)" stroke-opacity="1.0" stroke-linecap="round" stroke-linejoin="round"/>
    <path d="M 103.83724975585938 455.16339111328125 C 109.18280792236328 442.7613220214844 96.74082946777344 446.5877990722656 82.95379638671875 450.8986511230469 C 62.32016372680664 460.6048889160156 75.43385314941406 469.7017517089844 84.80810546875 468.2283935546875 C 70.49593353271484 437.4317932128906 86.12158203125 422.2506103515625 109.37826538085938 423.0009460449219 C 101.14665222167969 443.57196044921875 111.86180877685547 452.6213073730469 103.83724975585938 455.16339111328125" stroke-width="0.0" fill="rgb(61, 157, 141)" opacity="0.0078237485" stroke="rgb(0, 0, 0)" stroke-opacity="1.0" stroke-linecap="round" stroke-linejoin="round"/>
    <path d="M 93.29825592041016 434.4200134277344 C 100.47319793701172 465.1688537597656 74.96607971191406 478.2017822265625 83.2296371459961 474.16241455078125 C 87.5045394897461 460.4630126953125 72.69422912597656 453.249755859375 95.15799713134766 447.9229736328125 C 68.7450180053711 427.6287841796875 60.102535247802734 420.1454772949219 76.08690643310547 429.374267578125 C 78.83438873291016 403.0617980957031 100.21075439453125 427.3882751464844 93.29825592041016 434.4200134277344" stroke-width="0.0" fill="rgb(64, 141, 136)" opacity="0.0" stroke="rgb(0, 0, 0)" stroke-opacity="1.0" stroke-linecap="round" stroke-linejoin="round"/>
    <path d="M 468.7023010253906 40.67991256713867 C 463.5685119628906 75.88113403320312 462.14703369140625 95.5638427734375 456.56219482421875 85.93313598632812 C 429.7169189453125 74.83145141601562 421.1127624511719 66.53097534179688 421.4619445800781 79.37715911865234 C 460.4230041503906 67.6817398071289 488.2408142089844 50.31214904785156 490.34716796875 44.06975555419922 C 451.15643310546875 27.54606819152832 469.20611572265625 9.345259666442871 468.7023010253906 40.67991256713867" stroke-width="0.0" fill="rgb(25, 158, 164)" opacity="0.041637123" stroke="rgb(0, 0, 0)" stroke-opacity="1.0" stroke-linecap="round" stroke-linejoin="round"/>
    <path d="M 288.534423828125 195.72195434570312 C 294.50030517578125 197.54708862304688 301.1793518066406 189.96702575683594 286.9658508300781 192.07440185546875 C 293.89227294921875 183.32493591308594 297.2862854003906 172.17889404296875 270.2547912597656 167.81639099121094 C 271.5828857421875 174.80552673339844 277.60479736328125 164.89149475097656 295.37945556640625 179.68174743652344 C 311.20489501953125 158.05999755859375 311.5699462890625 161.7569122314453 288.534423828125 195.72195434570312" stroke-width="0.0" fill="rgb(162, 84, 150)" opacity="0.023083454" stroke="rgb(0, 0, 0)" stroke-opacity="1.0" stroke-linecap="round" stroke-linejoin="round"/>
    <path d="M 454.12005615234375 519.8250122070312 C 473.5421142578125 529.8993530273438 475.0595703125 526.9749145507812 460.93975830078125 531.9508666992188 C 446.21771240234375 525.9329833984375 447.3576354980469 521.16064453125 445.80340576171875 525.7401123046875 C 432.92529296875 512.2582397460938 471.9151306152344 480.3768005371094 493.8532409667969 504.914306640625 C 470.3336181640625 473.0318603515625 487.80535888671875 495.0653076171875 454.12005615234375 519.8250122070312" stroke-width="0.0" fill="rgb(0, 144, 164)" opacity="0.0" stroke="rgb(0, 0, 0)" stroke-opacity="1.0" stroke-linecap="round" stroke-linejoin="round"/>
    <path d="M 153.90386962890625 52.15116500854492 C 153.974853515625 38.03162384033203 145.10882568359375 47.18516159057617 142.88888549804688 63.395748138427734 C 145.88076782226562 54.348270416259766 134.5648193359375 21.873628616333008 124.28888702392578 25.990764617919922 C 129.6376495361328 22.3770751953125 122.77769470214844 31.07662010192871 116.68699645996094 16.114118576049805 C 138.66046142578125 15.10855484008789 140.3848876953125 41.09357833862305 153.90386962890625 52.15116500854492" stroke-width="0.0" fill="rgb(70, 165, 174)" opacity="0.0" stroke="rgb(0, 0, 0)" stroke-opacity="1.0" stroke-linecap="round" stroke-linejoin="round"/>
    <path d="M 204.64671325683594 338.056396484375 C 186.2559814453125 328.8285827636719 184.41078186035156 320.6913757324219 175.38784790039062 371.5093994140625 C 182.1148681640625 366.0670471191406 192.92063903808594 373.67523193359375 219.06129455566406 328.8343200683594 C 214.72848510742188 285.1984558105469 186.14813232421875 324.56549072265625 183.34454345703125 336.7151184082031 C 200.2415008544922 349.71649169921875 197.33740234375 361.0611572265625 204.64671325683594 338.056396484375" stroke-width="0.0" fill="rgb(255, 60, 0)" opacity="0.85811675" stroke="rgb(0, 0, 0)" stroke-opacity="1.0" stroke-linecap="round" stroke-linejoin="round"/>
    <path d="M 61.9775505065918 319.5582275390625 C 57.54644775390625 318.2865905761719 42.48042297363281 331.019287109375 42.03135299682617 328.927001953125 C 40.482643127441406 326.63330078125 35.128231048583984 320.4829406738281 41.716651916503906 315.9078674316406 C 27.80585479736328 319.78778076171875 46.60076904296875 308.7529296875 45.128604888916016 307.9588928222656 C 46.67095947265625 310.2823791503906 57.56167221069336 305.4151306152344 61.9775505065918 319.5582275390625" stroke-width="0.0" fill="rgb(191, 150, 44)" opacity="0.76575416" stroke="rgb(0, 0, 0)" stroke-opacity="1.0" stroke-linecap="round" stroke-linejoin="round"/>
    <path d="M 421.93524169921875 427.9561767578125 C 417.15887451171875 444.024169921875 406.1037292480469 452.6004943847656 402.0343322753906 464.34967041015625 C 426.0503234863281 428.5873107910156 402.6060485839844 423.9291687011719 376.9870910644531 422.860107421875 C 382.6938171386719 425.01129150390625 397.1764221191406 414.2589111328125 415.6530456542969 429.0452575683594 C 409.20501708984375 409.58154296875 425.4631042480469 411.5961608886719 421.93524169921875 427.9561767578125" stroke-width="0.0" fill="rgb(63, 192, 255)" opacity="0.17061858" stroke="rgb(0, 0, 0)" stroke-opacity="1.0" stroke-linecap="round" stroke-linejoin="round"/>
    <path d="M 137.33058166503906 245.64572143554688 C 83.6577377319336 227.0228729248047 92.24227905273438 263.3250427246094 122.44103240966797 303.16741943359375 C 135.95704650878906 264.39862060546875 126.75313568115234 269.0174560546875 101.65571594238281 277.38037109375 C 84.33824157714844 290.6624450683594 69.72614288330078 284.7231750488281 105.6758041381836 299.33502197265625 C 153.88504028320312 285.1612243652344 167.30300903320312 284.0078430175781 137.33058166503906 245.64572143554688" stroke-width="0.0" fill="rgb(52, 116, 166)" opacity="0.052024677" stroke="rgb(0, 0, 0)" stroke-opacity="1.0" stroke-linecap="round" stroke-linejoin="round"/>
    <path d="M 128.99050903320312 459.51422119140625 C 126.13713073730469 442.7750549316406 124.50531768798828 458.0577697753906 97.24939727783203 469.4947509765625 C 88.08349609375 443.07550048828125 99.96743774414062 435.9030456542969 114.02471160888672 467.9679870605469 C 101.72425079345703 456.3128356933594 121.23735809326172 443.4452819824219 117.94599151611328 426.8727722167969 C 104.21529388427734 423.8330383300781 112.1978530883789 460.43060302734375 128.99050903320312 459.51422119140625" stroke-width="0.0" fill="rgb(97, 175, 177)" opacity="0.0" stroke="rgb(0, 0, 0)" stroke-opacity="1.0" stroke-linecap="round" stroke-linejoin="round"/>
    <path d="M 249.1910400390625 49.106136322021484 C 249.7615509033203 35.29692840576172 250.20901489257812 33.941619873046875 257.0561218261719 49.53003692626953 C 247.68309020996094 71.75947570800781 258.4804992675781 63.4371452331543 252.27366638183594 61.74049758911133 C 217.70973205566406 53.047584533691406 226.12728881835938 34.87895584106445 247.37173461914062 35.27489471435547 C 241.0225372314453 30.99123764038086 266.1257629394531 50.65815353393555 249.1910400390625 49.106136322021484" stroke-width="0.0" fill="rgb(129, 67, 206)" opacity="0.5441128" stroke="rgb(0, 0, 0)" stroke-opacity="1.0" stroke-linecap="round" stroke-linejoin="round"/>
  </g>
</svg>
