<?xml version="1.0" ?>
<svg xmlns="http://www.w3.org/2000/svg" version="1.1" width="512" height="512">
  <defs/>
  <g>
    <path d="M 517.1279907226562 434.4254455566406 C 440.6448669433594 444.1652526855469 403.7166442871094 559.7530517578125 528.3861083984375 558.7247314453125 C 543.3644409179688 405.537109375 477.738525390625 426.59716796875 462.25189208984375 448.43701171875 C 468.2170104980469 484.9353942871094 508.812744140625 479.8244323730469 503.318115234375 439.0163879394531 C 529.2060546875 426.2873229980469 556.061767578125 427.39752197265625 517.1279907226562 434.4254455566406" stroke-width="0.0" fill="rgb(61, 55, 70)" opacity="0.8786126" stroke="rgb(0, 0, 0)" stroke-opacity="1.0" stroke-linecap="round" stroke-linejoin="round"/>
    <path d="M 292.5283508300781 501.21038818359375 C 264.7776184082031 540.5269165039062 192.3169403076172 562.3897705078125 133.3463134765625 423.5874938964844 C 18.32347297668457 410.2515869140625 138.78810119628906 398.55023193359375 -54.63988494873047 359.80615234375 C 15.08379077911377 183.15472412109375 -72.03099060058594 252.14990234375 -14.91065788269043 208.4576873779297 C 120.25436401367188 94.21664428710938 230.12745666503906 220.84390258789062 292.5283508300781 501.21038818359375" stroke-width="0.0" fill="rgb(52, 224, 6)" opacity="0.9872306" stroke="rgb(0, 0, 0)" stroke-opacity="1.0" stroke-linecap="round" stroke-linejoin="round"/>
    <path d="M 437.4762268066406 161.8334503173828 C 451.4745178222656 336.0906677246094 415.5611877441406 351.5179748535156 285.1026306152344 334.04302978515625 C 158.76202392578125 333.2032165527344 122.64247131347656 337.60418701171875 264.95819091796875 101.71710205078125 C 139.3535919189453 77.47405242919922 181.35665893554688 35.615516662597656 385.67523193359375 38.95406723022461 C 405.1579895019531 129.53988647460938 439.3695373535156 84.5972671508789 437.4762268066406 161.8334503173828" stroke-width="0.0" fill="rgb(117, 246, 1)" opacity="0.9777282" stroke="rgb(0, 0, 0)" stroke-opacity="1.0" stroke-linecap="round" stroke-linejoin="round"/>
    <path d="M 345.8868103027344 138.6221466064453 C 346.0567932128906 367.33575439453125 274.748291015625 402.9915466308594 181.9782257080078 336.83917236328125 C 68.9661865234375 234.91371154785156 -2.7617321014404297 291.0766296386719 41.25653076171875 120.51624298095703 C 22.638442993164062 35.77077102661133 136.4414825439453 53.368804931640625 152.14854431152344 33.702178955078125 C 230.87258911132812 -33.33998107910156 279.4749755859375 -11.955012321472168 345.8868103027344 138.6221466064453" stroke-width="0.0" fill="rgb(157, 135, 151)" opacity="0.9931812" stroke="rgb(0, 0, 0)" stroke-opacity="1.0" stroke-linecap="round" stroke-linejoin="round"/>
    <path d="M 447.6134948730469 397.1128845214844 C 375.3104248046875 524.8006591796875 358.72210693359375 345.1028137207031 413.7228698730469 461.7254943847656 C 243.9890899658203 519.3558349609375 344.3979797363281 516.5907592773438 297.8980712890625 446.13580322265625 C 228.23831176757812 231.9835205078125 243.28201293945312 282.5938415527344 320.3844909667969 181.79171752929688 C 446.9966125488281 81.72362518310547 558.0012817382812 146.8463134765625 447.6134948730469 397.1128845214844" stroke-width="0.0" fill="rgb(150, 137, 166)" opacity="0.779429" stroke="rgb(0, 0, 0)" stroke-opacity="1.0" stroke-linecap="round" stroke-linejoin="round"/>
    <path d="M 510.310302734375 220.85305786132812 C 548.24169921875 315.2168273925781 486.7728576660156 234.36354064941406 564.3291015625 346.5023193359375 C 451.59619140625 422.680908203125 259.6524353027344 322.18414306640625 444.3316345214844 196.9879913330078 C 338.8446350097656 187.5613555908203 387.5658874511719 111.97917175292969 400.9673156738281 121.72740173339844 C 443.8854675292969 193.54696655273438 480.50494384765625 149.01528930664062 510.310302734375 220.85305786132812" stroke-width="0.0" fill="rgb(4, 104, 53)" opacity="0.99915534" stroke="rgb(0, 0, 0)" stroke-opacity="1.0" stroke-linecap="round" stroke-linejoin="round"/>
    <path d="M 423.57940673828125 212.6943359375 C 300.67852783203125 263.8744201660156 316.2860412597656 300.70318603515625 255.21774291992188 289.3329772949219 C 228.2034454345703 309.92095947265625 289.9824523925781 346.7574768066406 66.87423706054688 196.56488037109375 C 323.6123046875 214.11280822753906 198.6666717529297 283.36669921875 289.8262023925781 252.2100830078125 C 362.4436340332031 215.40223693847656 428.87261962890625 151.41961669921875 423.57940673828125 212.6943359375" stroke-width="0.0" fill="rgb(40, 235, 8)" opacity="0.9380368" stroke="rgb(0, 0, 0)" stroke-opacity="1.0" stroke-linecap="round" stroke-linejoin="round"/>
    <path d="M 380.7841796875 196.88975524902344 C 380.5357666015625 213.7154083251953 346.1615905761719 208.4009246826172 335.93017578125 202.13758850097656 C 301.88385009765625 215.8189697265625 291.3094177246094 215.43264770507812 285.0896911621094 232.67333984375 C 320.74371337890625 67.12044525146484 218.09909057617188 174.93017578125 344.4179382324219 136.1046600341797 C 396.2458801269531 185.86279296875 522.6351928710938 224.63638305664062 380.7841796875 196.88975524902344" stroke-width="0.0" fill="rgb(29, 29, 110)" opacity="0.8181736" stroke="rgb(0, 0, 0)" stroke-opacity="1.0" stroke-linecap="round" stroke-linejoin="round"/>
    <path d="M 277.8475036621094 248.92877197265625 C 240.03277587890625 303.49664306640625 271.7938537597656 273.9098815917969 265.7413024902344 265.6124572753906 C 234.29481506347656 265.8089904785156 218.35958862304688 253.23867797851562 142.8881378173828 193.93756103515625 C 245.38136291503906 172.49009704589844 151.99551391601562 246.0142822265625 203.71258544921875 210.27639770507812 C 243.4182586669922 219.58114624023438 253.08131408691406 254.16517639160156 277.8475036621094 248.92877197265625" stroke-width="0.0" fill="rgb(201, 165, 185)" opacity="0.8299655" stroke="rgb(0, 0, 0)" stroke-opacity="1.0" stroke-linecap="round" stroke-linejoin="round"/>
    <path d="M 451.220703125 227.46478271484375 C 299.45361328125 288.2672119140625 553.9683837890625 208.5726318359375 440.32244873046875 389.8224792480469 C 188.56639099121094 379.12103271484375 218.0135498046875 386.61993408203125 243.7741241455078 367.9847717285156 C 365.39959716796875 246.43128967285156 394.4299011230469 256.54150390625 443.57501220703125 272.4315490722656 C 410.00970458984375 231.90863037109375 425.1753234863281 180.0740509033203 451.220703125 227.46478271484375" stroke-width="0.0" fill="rgb(32, 130, 0)" opacity="0.64013064" stroke="rgb(0, 0, 0)" stroke-opacity="1.0" stroke-linecap="round" stroke-linejoin="round"/>
    <path d="M 159.8716583251953 87.29991149902344 C 245.18359375 83.28363037109375 242.24819946289062 145.4824981689453 190.38751220703125 103.78146362304688 C 76.15111541748047 137.6746368408203 -74.6030502319336 285.9514465332031 59.57323455810547 39.5328369140625 C 313.578369140625 61.326263427734375 245.62713623046875 190.8088836669922 145.46875 74.6319351196289 C 331.3731994628906 -31.45574951171875 211.1725616455078 48.37278366088867 159.8716583251953 87.29991149902344" stroke-width="0.0" fill="rgb(104, 174, 68)" opacity="0.77887803" stroke="rgb(0, 0, 0)" stroke-opacity="1.0" stroke-linecap="round" stroke-linejoin="round"/>
    <path d="M 141.11265563964844 414.25634765625 C 139.8133544921875 390.5992126464844 155.7132568359375 363.50177001953125 157.92430114746094 446.0452880859375 C 132.54669189453125 395.9574279785156 140.70265197753906 411.1261901855469 139.6517333984375 363.0555419921875 C 146.53199768066406 311.5634765625 97.8026123046875 292.01800537109375 140.4171600341797 269.3998107910156 C 139.12745666503906 351.27008056640625 142.32257080078125 366.7849426269531 141.11265563964844 414.25634765625" stroke-width="0.0" fill="rgb(147, 243, 77)" opacity="0.06800713" stroke="rgb(0, 0, 0)" stroke-opacity="1.0" stroke-linecap="round" stroke-linejoin="round"/>
    <path d="M 396.58428955078125 74.5514144897461 C 409.7265625 87.54326629638672 425.998046875 100.75438690185547 385.9829406738281 75.59571838378906 C 367.19158935546875 50.87535858154297 360.39276123046875 21.432872772216797 368.4014892578125 67.4427719116211 C 363.2103271484375 47.96406936645508 372.5635681152344 17.3996639251709 368.0556945800781 53.68369674682617 C 389.61102294921875 50.33192825317383 380.020751953125 49.56205368041992 396.58428955078125 74.5514144897461" stroke-width="0.0" fill="rgb(98, 219, 37)" opacity="0.04332705" stroke="rgb(0, 0, 0)" stroke-opacity="1.0" stroke-linecap="round" stroke-linejoin="round"/>
    <path d="M 544.1404418945312 71.97181701660156 C 522.0397338867188 112.02005004882812 498.0514221191406 88.0370864868164 473.2268371582031 55.80633544921875 C 461.2565612792969 35.352901458740234 457.947265625 24.99065589904785 448.9549560546875 15.78156852722168 C 438.0415344238281 -13.556132316589355 449.107177734375 -26.21776008605957 468.9703369140625 -30.771949768066406 C 503.07623291015625 -18.05959701538086 520.4375610351562 -18.90193748474121 544.1404418945312 71.97181701660156" stroke-width="0.0" fill="rgb(79, 36, 57)" opacity="0.7573714" stroke="rgb(0, 0, 0)" stroke-opacity="1.0" stroke-linecap="round" stroke-linejoin="round"/>
    <path d="M 343.14154052734375 495.404541015625 C 309.2281799316406 503.3808898925781 346.96966552734375 493.9322814941406 309.7940673828125 521.7036743164062 C 140.20327758789062 560.1995239257812 122.70706939697266 486.0827941894531 152.1042022705078 485.4315185546875 C 208.19174194335938 404.9505310058594 217.41200256347656 363.07501220703125 319.3604431152344 327.7983093261719 C 451.85931396484375 294.7091979980469 416.9411315917969 268.48846435546875 343.14154052734375 495.404541015625" stroke-width="0.0" fill="rgb(68, 206, 15)" opacity="0.99907076" stroke="rgb(0, 0, 0)" stroke-opacity="1.0" stroke-linecap="round" stroke-linejoin="round"/>
    <path d="M 225.69821166992188 277.4024658203125 C 319.7742614746094 315.7661437988281 327.0430908203125 300.87054443359375 261.0367736816406 335.1608581542969 C 142.84178161621094 279.1139831542969 34.62771987915039 233.32984924316406 70.1129379272461 222.8385467529297 C 83.07465362548828 197.39962768554688 149.1662139892578 301.5970764160156 229.13525390625 301.3054504394531 C 259.06378173828125 275.5298156738281 184.61196899414062 274.8675231933594 225.69821166992188 277.4024658203125" stroke-width="0.0" fill="rgb(181, 88, 61)" opacity="0.23317824" stroke="rgb(0, 0, 0)" stroke-opacity="1.0" stroke-linecap="round" stroke-linejoin="round"/>
    <path d="M 404.800537109375 423.0895690917969 C 402.8717346191406 456.20062255859375 313.36138916015625 449.00421142578125 341.2354736328125 484.4482116699219 C 371.8028259277344 470.3885498046875 367.3760070800781 450.5734558105469 311.79803466796875 523.6884155273438 C 245.75328063964844 386.3922119140625 257.9839172363281 328.74005126953125 372.6081848144531 326.3824462890625 C 409.50726318359375 386.2709655761719 410.2585144042969 359.89251708984375 404.800537109375 423.0895690917969" stroke-width="0.0" fill="rgb(4, 56, 54)" opacity="0.4965151" stroke="rgb(0, 0, 0)" stroke-opacity="1.0" stroke-linecap="round" stroke-linejoin="round"/>
    <path d="M 307.4962463378906 131.2178497314453 C 396.8940124511719 125.1829605102539 359.4010314941406 148.1997528076172 290.907958984375 166.02984619140625 C 217.5397186279297 144.5629425048828 266.38043212890625 206.81129455566406 269.0727233886719 118.44654846191406 C 253.2698516845703 38.2920036315918 306.2511291503906 -11.950089454650879 297.22418212890625 85.1284408569336 C 313.8127746582031 110.21430206298828 396.04461669921875 98.47056579589844 307.4962463378906 131.2178497314453" stroke-width="0.0" fill="rgb(37, 64, 100)" opacity="0.85831004" stroke="rgb(0, 0, 0)" stroke-opacity="1.0" stroke-linecap="round" stroke-linejoin="round"/>
    <path d="M 423.5272521972656 301.09942626953125 C 269.5838317871094 360.4073181152344 287.55963134765625 387.8638916015625 287.4811706542969 374.37005615234375 C 242.73696899414062 446.3982849121094 185.07664489746094 388.845458984375 86.9565200805664 317.1541442871094 C 119.134521484375 259.08447265625 147.61366271972656 285.0064392089844 256.9041748046875 370.07598876953125 C 434.3020935058594 260.8033142089844 555.4773559570312 167.7519073486328 423.5272521972656 301.09942626953125" stroke-width="0.0" fill="rgb(14, 230, 0)" opacity="0.9508762" stroke="rgb(0, 0, 0)" stroke-opacity="1.0" stroke-linecap="round" stroke-linejoin="round"/>
    <path d="M 424.0174865722656 188.01400756835938 C 406.07733154296875 198.32275390625 395.1123962402344 205.85418701171875 347.3602600097656 214.2908172607422 C 388.1997985839844 207.08029174804688 350.814697265625 226.2918243408203 296.1418762207031 227.2722625732422 C 339.8708190917969 192.6299285888672 355.41680908203125 226.71995544433594 361.4268798828125 119.84679412841797 C 389.1304626464844 162.1997528076172 415.965576171875 177.4050750732422 424.0174865722656 188.01400756835938" stroke-width="0.0" fill="rgb(39, 62, 102)" opacity="0.991668" stroke="rgb(0, 0, 0)" stroke-opacity="1.0" stroke-linecap="round" stroke-linejoin="round"/>
    <path d="M 460.59246826171875 232.74685668945312 C 437.8340759277344 247.4028778076172 460.8518371582031 229.34385681152344 419.8467712402344 241.79864501953125 C 330.0052795410156 298.3161926269531 327.0858459472656 273.9552917480469 421.5238037109375 219.24188232421875 C 418.471435546875 204.71331787109375 414.10784912109375 235.41534423828125 419.1593017578125 166.70657348632812 C 494.28021240234375 188.3650665283203 444.3410949707031 181.3185577392578 460.59246826171875 232.74685668945312" stroke-width="0.0" fill="rgb(233, 112, 177)" opacity="0.76836896" stroke="rgb(0, 0, 0)" stroke-opacity="1.0" stroke-linecap="round" stroke-linejoin="round"/>
    <path d="M 134.3127899169922 304.0235290527344 C 136.8309783935547 313.78082275390625 117.75169372558594 329.87030029296875 81.17852020263672 280.50054931640625 C 47.27407455444336 281.9301452636719 97.8499984741211 292.0321960449219 -25.42208480834961 234.08511352539062 C 25.544342041015625 213.59317016601562 20.528364181518555 215.76377868652344 98.51337432861328 263.3504638671875 C 135.92413330078125 288.7069396972656 165.7290802001953 311.3942565917969 134.3127899169922 304.0235290527344" stroke-width="0.0" fill="rgb(22, 251, 18)" opacity="0.87101144" stroke="rgb(0, 0, 0)" stroke-opacity="1.0" stroke-linecap="round" stroke-linejoin="round"/>
    <path d="M 49.22958755493164 45.34252166748047 C 48.75893020629883 45.18813705444336 43.847713470458984 41.651756286621094 58.79533004760742 40.343326568603516 C 76.213623046875 1.2549766302108765 83.16023254394531 -48.129302978515625 -25.70272445678711 -35.78623580932617 C -25.516265869140625 128.74095153808594 19.57071876525879 88.46595001220703 25.202573776245117 78.13008880615234 C 43.067684173583984 47.89520263671875 42.31595993041992 59.448123931884766 49.22958755493164 45.34252166748047" stroke-width="0.0" fill="rgb(32, 2, 33)" opacity="0.67329234" stroke="rgb(0, 0, 0)" stroke-opacity="1.0" stroke-linecap="round" stroke-linejoin="round"/>
    <path d="M 321.24560546875 172.76763916015625 C 323.05889892578125 216.09983825683594 342.23187255859375 228.44932556152344 305.2314453125 225.3809051513672 C 242.13763427734375 248.68524169921875 264.45098876953125 278.0687255859375 257.3652648925781 162.3004913330078 C 290.5563049316406 163.7389373779297 272.6134033203125 186.19024658203125 291.677490234375 108.11148834228516 C 305.445068359375 155.86288452148438 284.78240966796875 178.44158935546875 321.24560546875 172.76763916015625" stroke-width="0.0" fill="rgb(61, 71, 137)" opacity="0.98646736" stroke="rgb(0, 0, 0)" stroke-opacity="1.0" stroke-linecap="round" stroke-linejoin="round"/>
    <path d="M 151.63417053222656 478.6302185058594 C 161.9838104248047 464.43035888671875 168.4778594970703 478.84375 151.63592529296875 490.05877685546875 C 102.37393188476562 482.870849609375 105.2900390625 489.537841796875 124.08625793457031 457.3662414550781 C 98.56897735595703 444.9228515625 83.60508728027344 407.6217346191406 118.21029663085938 412.3298645019531 C 169.5386962890625 447.94158935546875 159.72039794921875 483.74609375 151.63417053222656 478.6302185058594" stroke-width="0.0" fill="rgb(140, 138, 120)" opacity="0.3180928" stroke="rgb(0, 0, 0)" stroke-opacity="1.0" stroke-linecap="round" stroke-linejoin="round"/>
    <path d="M 108.66852569580078 231.59474182128906 C 158.86279296875 253.6873321533203 68.9925537109375 217.0576171875 78.25569915771484 215.31378173828125 C 115.09012603759766 213.89825439453125 105.91602325439453 229.18995666503906 76.86944580078125 225.71022033691406 C 50.62998962402344 240.7230987548828 40.41272735595703 207.53466796875 86.878662109375 146.77197265625 C 139.72061157226562 229.8451385498047 114.97291564941406 258.1038513183594 108.66852569580078 231.59474182128906" stroke-width="0.0" fill="rgb(130, 136, 188)" opacity="0.08923722" stroke="rgb(0, 0, 0)" stroke-opacity="1.0" stroke-linecap="round" stroke-linejoin="round"/>
    <path d="M 102.7450180053711 136.5250701904297 C 106.20823669433594 169.52041625976562 73.7861557006836 131.24395751953125 73.5513916015625 134.51544189453125 C 64.54695892333984 194.62384033203125 34.63542175292969 193.16331481933594 37.82038497924805 91.94926452636719 C 44.48420333862305 63.165672302246094 107.2340087890625 85.14715576171875 107.12039184570312 96.45155334472656 C 112.85314178466797 108.10013580322266 107.40737915039062 112.88227081298828 102.7450180053711 136.5250701904297" stroke-width="0.0" fill="rgb(119, 249, 13)" opacity="0.945853" stroke="rgb(0, 0, 0)" stroke-opacity="1.0" stroke-linecap="round" stroke-linejoin="round"/>
    <path d="M 294.3663635253906 210.98731994628906 C 370.1058654785156 246.7843475341797 355.6174011230469 186.61807250976562 295.8362731933594 192.208740234375 C 264.9339294433594 252.82444763183594 261.9112854003906 246.01097106933594 236.12557983398438 196.20114135742188 C 217.77740478515625 243.94967651367188 228.81341552734375 221.30111694335938 259.6004943847656 234.90805053710938 C 343.7383728027344 224.1708526611328 329.3056335449219 209.32440185546875 294.3663635253906 210.98731994628906" stroke-width="0.0" fill="rgb(53, 32, 92)" opacity="0.12639354" stroke="rgb(0, 0, 0)" stroke-opacity="1.0" stroke-linecap="round" stroke-linejoin="round"/>
    <path d="M 232.0255584716797 143.81002807617188 C 193.03916931152344 124.98704528808594 182.1964111328125 110.38653564453125 227.8951416015625 92.73653411865234 C 216.77297973632812 115.64253997802734 189.93345642089844 178.0453643798828 36.175594329833984 185.25389099121094 C 163.7920379638672 124.7354507446289 223.52093505859375 141.14012145996094 221.33285522460938 102.9960708618164 C 223.05355834960938 88.07486724853516 230.3843536376953 82.32904815673828 232.0255584716797 143.81002807617188" stroke-width="0.0" fill="rgb(19, 48, 101)" opacity="0.705901" stroke="rgb(0, 0, 0)" stroke-opacity="1.0" stroke-linecap="round" stroke-linejoin="round"/>
    <path d="M 73.40049743652344 530.7412109375 C 42.45839309692383 539.5292358398438 15.03414249420166 530.3245849609375 0.8111952543258667 530.5191040039062 C -9.364206314086914 527.7437133789062 -16.68471336364746 520.4232177734375 -21.20284080505371 510.0506896972656 C -18.48799705505371 494.70721435546875 -31.987857818603516 464.11956787109375 -19.87307357788086 406.47882080078125 C 43.04899215698242 446.5208740234375 58.815860748291016 466.73114013671875 73.40049743652344 530.7412109375" stroke-width="0.0" fill="rgb(52, 7, 37)" opacity="0.71331394" stroke="rgb(0, 0, 0)" stroke-opacity="1.0" stroke-linecap="round" stroke-linejoin="round"/>
    <path d="M 204.74554443359375 123.21092987060547 C 260.365234375 130.7528839111328 179.16485595703125 133.1390380859375 125.32754516601562 221.2654266357422 C 39.69540786743164 204.49374389648438 95.19904327392578 212.5171356201172 166.31126403808594 162.9716033935547 C 166.03573608398438 207.11778259277344 154.09127807617188 220.13031005859375 94.99552917480469 201.4815673828125 C 162.12579345703125 181.06472778320312 140.3976287841797 177.9862518310547 204.74554443359375 123.21092987060547" stroke-width="0.0" fill="rgb(59, 221, 32)" opacity="0.96030897" stroke="rgb(0, 0, 0)" stroke-opacity="1.0" stroke-linecap="round" stroke-linejoin="round"/>
    <path d="M 491.9149475097656 222.66473388671875 C 339.65509033203125 302.0134582519531 340.315673828125 345.74407958984375 344.2384033203125 331.9541931152344 C 299.3533935546875 334.8177490234375 238.5518035888672 371.4190368652344 248.2126007080078 309.9210510253906 C 289.7204284667969 286.58355712890625 310.5191650390625 294.071533203125 350.0987548828125 253.58062744140625 C 303.6763000488281 316.8805847167969 408.7948913574219 183.9623565673828 491.9149475097656 222.66473388671875" stroke-width="0.0" fill="rgb(38, 43, 97)" opacity="0.74692535" stroke="rgb(0, 0, 0)" stroke-opacity="1.0" stroke-linecap="round" stroke-linejoin="round"/>
    <path d="M 285.9507141113281 126.19377136230469 C 200.28297424316406 176.52865600585938 225.63088989257812 186.71578979492188 169.35443115234375 178.80624389648438 C 165.2535400390625 130.41940307617188 173.53665161132812 123.42210388183594 158.4394989013672 85.10467529296875 C 171.3338165283203 81.33386993408203 181.65176391601562 75.76827239990234 191.0333251953125 47.88772964477539 C 220.36769104003906 82.02483367919922 256.4584655761719 58.56112289428711 285.9507141113281 126.19377136230469" stroke-width="0.0" fill="rgb(192, 162, 163)" opacity="0.8368852" stroke="rgb(0, 0, 0)" stroke-opacity="1.0" stroke-linecap="round" stroke-linejoin="round"/>
    <path d="M 190.00437927246094 85.64802551269531 C 177.46217346191406 81.9600601196289 180.7347412109375 104.48491668701172 175.18154907226562 80.85953521728516 C 165.6479034423828 64.75953674316406 147.9070587158203 154.20567321777344 137.26998901367188 89.84642028808594 C 115.56123352050781 36.21233367919922 146.42379760742188 -18.350725173950195 207.1322784423828 3.4189791679382324 C 219.9508819580078 115.57259368896484 229.45620727539062 84.54561614990234 190.00437927246094 85.64802551269531" stroke-width="0.0" fill="rgb(45, 190, 0)" opacity="1.0" stroke="rgb(0, 0, 0)" stroke-opacity="1.0" stroke-linecap="round" stroke-linejoin="round"/>
    <path d="M 372.2867431640625 103.52507019042969 C 357.56695556640625 71.02204132080078 335.9494323730469 29.746997833251953 345.2071838378906 111.44075775146484 C 373.2890930175781 142.10598754882812 389.34918212890625 117.33562469482422 402.0935974121094 73.59144592285156 C 441.5829772949219 91.69624328613281 451.0448303222656 60.33299255371094 417.1453857421875 35.714576721191406 C 406.8357849121094 115.01329803466797 392.50885009765625 87.05977630615234 372.2867431640625 103.52507019042969" stroke-width="0.0" fill="rgb(76, 255, 41)" opacity="0.0" stroke="rgb(0, 0, 0)" stroke-opacity="1.0" stroke-linecap="round" stroke-linejoin="round"/>
    <path d="M 319.84649658203125 506.1842346191406 C 315.7105407714844 533.311279296875 316.5614929199219 529.2675170898438 299.3528747558594 530.2745971679688 C 270.1167297363281 537.5707397460938 273.547119140625 538.908203125 284.9865417480469 480.7821350097656 C 286.4669189453125 449.4020690917969 292.2679748535156 416.31671142578125 282.7505187988281 413.15863037109375 C 298.14190673828125 452.16131591796875 308.16864013671875 474.3641662597656 319.84649658203125 506.1842346191406" stroke-width="0.0" fill="rgb(6, 85, 19)" opacity="0.18594283" stroke="rgb(0, 0, 0)" stroke-opacity="1.0" stroke-linecap="round" stroke-linejoin="round"/>
    <path d="M 297.8369445800781 160.2734375 C 313.1308288574219 121.72237396240234 330.1178894042969 130.83836364746094 305.5721740722656 238.5499725341797 C 288.7921142578125 167.69345092773438 302.2029113769531 161.28355407714844 250.44850158691406 162.17141723632812 C 258.70916748046875 168.32505798339844 294.4399719238281 147.3636474609375 279.86956787109375 159.01406860351562 C 306.49053955078125 153.4235382080078 312.23016357421875 194.45469665527344 297.8369445800781 160.2734375" stroke-width="0.0" fill="rgb(11, 113, 88)" opacity="0.27361608" stroke="rgb(0, 0, 0)" stroke-opacity="1.0" stroke-linecap="round" stroke-linejoin="round"/>
    <path d="M 304.896484375 47.425865173339844 C 331.66156005859375 -6.4723358154296875 289.28399658203125 -27.685617446899414 278.05731201171875 17.675189971923828 C 228.12570190429688 52.62565231323242 243.2556915283203 27.133455276489258 255.10504150390625 -19.392637252807617 C 266.105224609375 -27.088268280029297 275.79620361328125 -33.86811065673828 275.8541259765625 4.572309970855713 C 283.7457275390625 33.258548736572266 251.93838500976562 64.78399658203125 304.896484375 47.425865173339844" stroke-width="0.0" fill="rgb(92, 91, 107)" opacity="0.94656825" stroke="rgb(0, 0, 0)" stroke-opacity="1.0" stroke-linecap="round" stroke-linejoin="round"/>
    <path d="M 368.784912109375 240.99598693847656 C 332.57470703125 250.84710693359375 308.93359375 264.2211608886719 341.2498779296875 283.8564453125 C 329.8992004394531 277.6477355957031 309.9772644042969 259.38763427734375 327.7671203613281 264.6136474609375 C 339.7099609375 263.7348327636719 346.3769836425781 245.88864135742188 342.1713562011719 264.7572937011719 C 322.6975402832031 249.9836883544922 350.03570556640625 240.4644317626953 368.784912109375 240.99598693847656" stroke-width="0.0" fill="rgb(171, 134, 159)" opacity="0.00079164706" stroke="rgb(0, 0, 0)" stroke-opacity="1.0" stroke-linecap="round" stroke-linejoin="round"/>
    <path d="M 162.57264709472656 80.85084533691406 C 200.5251922607422 56.24740219116211 225.2836456298828 80.18383026123047 163.61297607421875 82.7404556274414 C 167.44708251953125 58.840877532958984 143.14569091796875 62.18311309814453 197.56179809570312 52.08051300048828 C 188.07020568847656 126.3644027709961 201.7327880859375 134.0066680908203 200.5440216064453 64.4794921875 C 192.2509307861328 60.758934020996094 167.13438415527344 106.45879364013672 162.57264709472656 80.85084533691406" stroke-width="0.0" fill="rgb(167, 76, 215)" opacity="0.786976" stroke="rgb(0, 0, 0)" stroke-opacity="1.0" stroke-linecap="round" stroke-linejoin="round"/>
    <path d="M 538.3187866210938 468.6209716796875 C 550.4898681640625 485.4811096191406 535.5072631835938 485.7626647949219 494.1113586425781 460.80242919921875 C 485.31817626953125 481.3032531738281 470.25531005859375 469.0313415527344 466.01580810546875 418.654052734375 C 455.16546630859375 396.93231201171875 471.32684326171875 400.7660827636719 517.8887939453125 406.57415771484375 C 527.0748291015625 439.2276611328125 529.75927734375 442.85821533203125 538.3187866210938 468.6209716796875" stroke-width="0.0" fill="rgb(106, 109, 112)" opacity="0.70282793" stroke="rgb(0, 0, 0)" stroke-opacity="1.0" stroke-linecap="round" stroke-linejoin="round"/>
    <path d="M 339.61029052734375 497.2620849609375 C 358.0630798339844 491.8069152832031 344.9427490234375 498.0893249511719 318.1404113769531 501.34649658203125 C 321.09918212890625 493.57177734375 315.8578186035156 486.2674560546875 321.7820129394531 493.3070068359375 C 317.88568115234375 487.2188415527344 336.9477233886719 491.73577880859375 367.7859802246094 479.3982238769531 C 355.7080993652344 472.7112121582031 342.0918884277344 499.6659240722656 339.61029052734375 497.2620849609375" stroke-width="0.0" fill="rgb(77, 72, 97)" opacity="0.061010256" stroke="rgb(0, 0, 0)" stroke-opacity="1.0" stroke-linecap="round" stroke-linejoin="round"/>
    <path d="M 455.4639892578125 376.8716125488281 C 475.5813903808594 416.15509033203125 472.3726806640625 424.6130065917969 457.0068664550781 446.2247009277344 C 395.09014892578125 451.7383728027344 373.14898681640625 466.9081115722656 380.3490905761719 437.6763916015625 C 445.4855651855469 398.0804443359375 435.8866882324219 378.8485107421875 466.85888671875 386.59771728515625 C 467.4412841796875 373.5205993652344 448.9029235839844 388.9511413574219 455.4639892578125 376.8716125488281" stroke-width="0.0" fill="rgb(197, 196, 200)" opacity="0.85673684" stroke="rgb(0, 0, 0)" stroke-opacity="1.0" stroke-linecap="round" stroke-linejoin="round"/>
    <path d="M 427.1239929199219 403.96893310546875 C 429.9229736328125 417.2115173339844 423.3217468261719 437.9280090332031 399.8916015625 444.7204284667969 C 376.847900390625 418.6437683105469 382.8984375 439.0902099609375 379.3582458496094 391.7025146484375 C 372.7981872558594 374.936279296875 378.5196533203125 382.7839050292969 365.0284729003906 359.4100341796875 C 418.8033142089844 343.7023010253906 451.3974609375 370.4192810058594 427.1239929199219 403.96893310546875" stroke-width="0.0" fill="rgb(61, 107, 81)" opacity="0.99517226" stroke="rgb(0, 0, 0)" stroke-opacity="1.0" stroke-linecap="round" stroke-linejoin="round"/>
    <path d="M 283.2317810058594 145.64305114746094 C 263.8722229003906 134.3364715576172 252.5552520751953 131.21849060058594 250.24130249023438 82.30257415771484 C 278.71875 136.93658447265625 248.2103729248047 140.2096405029297 189.93777465820312 123.66639709472656 C 233.6810760498047 117.05574035644531 241.4843292236328 152.28395080566406 253.4778594970703 141.64427185058594 C 244.90939331054688 83.0404052734375 275.72393798828125 122.68785095214844 283.2317810058594 145.64305114746094" stroke-width="0.0" fill="rgb(76, 88, 131)" opacity="0.80547595" stroke="rgb(0, 0, 0)" stroke-opacity="1.0" stroke-linecap="round" stroke-linejoin="round"/>
    <path d="M 89.82734680175781 406.7091369628906 C 100.17131805419922 440.1640930175781 98.204833984375 433.68621826171875 96.21671295166016 439.0117492675781 C 89.24378967285156 423.06756591796875 71.85581970214844 426.5738220214844 26.709890365600586 412.4801025390625 C 24.46939468383789 361.7874450683594 21.24559211730957 346.5666198730469 45.364471435546875 370.0303955078125 C 87.0090560913086 413.5407409667969 97.28668212890625 411.12225341796875 89.82734680175781 406.7091369628906" stroke-width="0.0" fill="rgb(120, 106, 89)" opacity="0.24716468" stroke="rgb(0, 0, 0)" stroke-opacity="1.0" stroke-linecap="round" stroke-linejoin="round"/>
    <path d="M 462.2674560546875 83.76119232177734 C 450.70477294921875 106.44791412353516 428.0151062011719 115.03559875488281 426.97906494140625 121.5494155883789 C 408.1259765625 101.87102508544922 388.283203125 101.80807495117188 377.41644287109375 81.54783630371094 C 364.3739929199219 48.11210632324219 377.1789245605469 48.54186248779297 425.5377197265625 60.65986251831055 C 436.0374755859375 67.15162658691406 454.61724853515625 56.685062408447266 462.2674560546875 83.76119232177734" stroke-width="0.0" fill="rgb(38, 63, 84)" opacity="0.4536025" stroke="rgb(0, 0, 0)" stroke-opacity="1.0" stroke-linecap="round" stroke-linejoin="round"/>
    <path d="M 219.3677215576172 32.52350616455078 C 212.1378631591797 21.27174186706543 216.41070556640625 9.65427017211914 223.5561981201172 26.473745346069336 C 193.24644470214844 38.420166015625 212.7810821533203 33.777259826660156 219.14547729492188 14.850712776184082 C 214.6820068359375 16.933271408081055 236.52072143554688 10.864023208618164 230.9358673095703 35.41843795776367 C 200.95895385742188 12.265920639038086 193.97198486328125 21.51700782775879 219.3677215576172 32.52350616455078" stroke-width="0.0" fill="rgb(208, 132, 255)" opacity="0.54162157" stroke="rgb(0, 0, 0)" stroke-opacity="1.0" stroke-linecap="round" stroke-linejoin="round"/>
    <path d="M 466.5890808105469 192.74790954589844 C 467.069091796875 202.4953155517578 469.1405944824219 194.18936157226562 502.95074462890625 202.97750854492188 C 502.4005126953125 218.234130859375 506.01708984375 209.56170654296875 537.078369140625 177.65184020996094 C 499.4845886230469 163.18487548828125 459.23455810546875 178.13648986816406 479.6101379394531 146.84414672851562 C 501.7698974609375 134.77713012695312 485.5422668457031 159.08560180664062 466.5890808105469 192.74790954589844" stroke-width="0.0" fill="rgb(226, 255, 153)" opacity="0.0052213287" stroke="rgb(0, 0, 0)" stroke-opacity="1.0" stroke-linecap="round" stroke-linejoin="round"/>
    <path d="M 421.947265625 328.54425048828125 C 409.8898010253906 324.6720886230469 403.2439270019531 339.60638427734375 397.7031555175781 327.65966796875 C 408.0298767089844 323.11822509765625 398.94708251953125 318.2490234375 386.3662414550781 303.03607177734375 C 372.1690979003906 300.71026611328125 380.8062438964844 305.9236755371094 408.9052734375 331.1487121582031 C 420.2135009765625 308.0285949707031 400.9562072753906 321.4701232910156 421.947265625 328.54425048828125" stroke-width="0.0" fill="rgb(22, 185, 47)" opacity="0.017783895" stroke="rgb(0, 0, 0)" stroke-opacity="1.0" stroke-linecap="round" stroke-linejoin="round"/>
    <path d="M 236.35284423828125 302.1053771972656 C 255.46170043945312 297.5003967285156 244.52061462402344 306.71258544921875 216.13229370117188 286.9284973144531 C 244.3015899658203 282.51544189453125 248.59234619140625 298.6294860839844 230.5674285888672 319.599365234375 C 226.36846923828125 276.9726257324219 240.00186157226562 288.00701904296875 249.03126525878906 275.75982666015625 C 239.57945251464844 276.6428527832031 246.32400512695312 276.21942138671875 236.35284423828125 302.1053771972656" stroke-width="0.0" fill="rgb(225, 113, 184)" opacity="0.84829646" stroke="rgb(0, 0, 0)" stroke-opacity="1.0" stroke-linecap="round" stroke-linejoin="round"/>
    <path d="M 275.19879150390625 271.4825134277344 C 307.020263671875 294.4150695800781 302.2173156738281 307.9273986816406 263.9955749511719 301.7227783203125 C 250.12115478515625 308.8899230957031 230.98233032226562 322.23297119140625 235.95138549804688 295.47027587890625 C 239.736572265625 291.4127502441406 253.85183715820312 275.03424072265625 268.14447021484375 244.85227966308594 C 279.28912353515625 250.1015625 274.63299560546875 269.36944580078125 275.19879150390625 271.4825134277344" stroke-width="0.0" fill="rgb(119, 218, 54)" opacity="0.2762575" stroke="rgb(0, 0, 0)" stroke-opacity="1.0" stroke-linecap="round" stroke-linejoin="round"/>
    <path d="M 56.210689544677734 107.67123413085938 C 25.00170135498047 128.31057739257812 50.627742767333984 141.5529022216797 68.62552642822266 160.78549194335938 C 39.228153228759766 149.02261352539062 34.05222702026367 136.3790283203125 13.846129417419434 114.9965591430664 C 22.226865768432617 117.12801361083984 50.58473205566406 125.4703598022461 71.37289428710938 126.79545593261719 C 81.6623764038086 138.72923278808594 104.4654769897461 122.31131744384766 56.210689544677734 107.67123413085938" stroke-width="0.0" fill="rgb(155, 241, 9)" opacity="0.12651819" stroke="rgb(0, 0, 0)" stroke-opacity="1.0" stroke-linecap="round" stroke-linejoin="round"/>
    <path d="M 435.8108215332031 167.82608032226562 C 430.4425964355469 162.228759765625 419.1966552734375 147.8514404296875 422.1504821777344 140.23329162597656 C 453.5329895019531 168.42791748046875 459.8782653808594 143.4571533203125 459.5116882324219 132.51795959472656 C 423.88812255859375 116.04840850830078 419.0325927734375 104.97996520996094 393.70263671875 122.6627426147461 C 411.1305847167969 155.41619873046875 424.5618591308594 164.2012481689453 435.8108215332031 167.82608032226562" stroke-width="0.0" fill="rgb(77, 149, 11)" opacity="0.7749057" stroke="rgb(0, 0, 0)" stroke-opacity="1.0" stroke-linecap="round" stroke-linejoin="round"/>
    <path d="M 97.21290588378906 479.30865478515625 C 114.72713470458984 498.79168701171875 85.82744598388672 494.41143798828125 85.14574432373047 476.30853271484375 C 52.88408279418945 483.1069641113281 33.60667419433594 462.95721435546875 29.7364501953125 501.7694091796875 C 68.3102798461914 465.4497375488281 68.51741027832031 446.4224548339844 51.70967483520508 443.33929443359375 C 104.49005889892578 426.3164978027344 107.13949584960938 437.3215026855469 97.21290588378906 479.30865478515625" stroke-width="0.0" fill="rgb(249, 199, 246)" opacity="0.001522175" stroke="rgb(0, 0, 0)" stroke-opacity="1.0" stroke-linecap="round" stroke-linejoin="round"/>
    <path d="M 549.315185546875 28.90607261657715 C 548.6229858398438 45.34791564941406 556.80078125 53.769309997558594 502.39178466796875 64.56607055664062 C 471.47125244140625 80.15735626220703 483.2622375488281 40.484031677246094 501.01171875 41.89215087890625 C 488.2983703613281 49.15161895751953 502.6893310546875 22.104198455810547 489.2330322265625 26.421873092651367 C 513.8858032226562 16.263845443725586 534.0226440429688 15.97413158416748 549.315185546875 28.90607261657715" stroke-width="0.0" fill="rgb(99, 104, 108)" opacity="0.0" stroke="rgb(0, 0, 0)" stroke-opacity="1.0" stroke-linecap="round" stroke-linejoin="round"/>
    <path d="M 242.7820587158203 263.18865966796875 C 246.7844696044922 296.3876953125 232.384033203125 296.33837890625 260.08807373046875 322.491455078125 C 258.35992431640625 317.27838134765625 236.3772735595703 289.8497314453125 253.2640380859375 300.3512878417969 C 294.7486267089844 322.7525634765625 263.5594482421875 329.1973876953125 281.50048828125 338.95086669921875 C 271.3711853027344 292.72784423828125 287.6038513183594 276.1260986328125 242.7820587158203 263.18865966796875" stroke-width="0.0" fill="rgb(43, 66, 151)" opacity="0.621077" stroke="rgb(0, 0, 0)" stroke-opacity="1.0" stroke-linecap="round" stroke-linejoin="round"/>
    <path d="M 344.95867919921875 115.15735626220703 C 327.19232177734375 107.42523956298828 319.6649169921875 112.50214385986328 326.91156005859375 146.24620056152344 C 350.7070007324219 134.61032104492188 348.62493896484375 84.87496185302734 317.3149719238281 107.16543579101562 C 318.8519592285156 51.44758224487305 321.2303161621094 38.4783821105957 313.1829833984375 63.241493225097656 C 360.84637451171875 36.23037338256836 352.5531921386719 95.06609344482422 344.95867919921875 115.15735626220703" stroke-width="0.0" fill="rgb(71, 0, 194)" opacity="0.6915226" stroke="rgb(0, 0, 0)" stroke-opacity="1.0" stroke-linecap="round" stroke-linejoin="round"/>
    <path d="M 118.17217254638672 40.946083068847656 C 135.406982421875 63.66436767578125 119.00983428955078 78.67212677001953 130.26614379882812 103.40060424804688 C 107.94026947021484 100.05157470703125 106.28189086914062 85.57776641845703 94.99537658691406 65.68091583251953 C 82.90386962890625 54.66755294799805 81.45365142822266 70.14082336425781 102.21752166748047 88.20201110839844 C 133.6434326171875 70.50557708740234 134.68858337402344 70.34793853759766 118.17217254638672 40.946083068847656" stroke-width="0.0" fill="rgb(33, 167, 77)" opacity="0.091125056" stroke="rgb(0, 0, 0)" stroke-opacity="1.0" stroke-linecap="round" stroke-linejoin="round"/>
    <path d="M 472.5631408691406 441.9576721191406 C 463.0184326171875 507.225830078125 470.39404296875 535.3074340820312 449.5550231933594 554.558837890625 C 411.5843505859375 518.2100830078125 408.3583679199219 504.8544921875 463.4297180175781 517.3343505859375 C 471.0228271484375 464.9646911621094 459.5101013183594 450.97247314453125 443.4001770019531 464.673095703125 C 457.7965087890625 448.56756591796875 468.62030029296875 462.2812805175781 472.5631408691406 441.9576721191406" stroke-width="0.0" fill="rgb(164, 208, 198)" opacity="0.013850067" stroke="rgb(0, 0, 0)" stroke-opacity="1.0" stroke-linecap="round" stroke-linejoin="round"/>
    <path d="M 216.84954833984375 78.98406982421875 C 203.86627197265625 72.51575469970703 194.79888916015625 87.48419189453125 163.40444946289062 85.69009399414062 C 159.545654296875 79.6269302368164 174.3009796142578 74.25647735595703 150.20030212402344 61.62600326538086 C 164.3851776123047 56.42977523803711 174.77005004882812 53.80023193359375 172.10276794433594 55.16667556762695 C 196.859375 60.3343505859375 219.21751403808594 73.76175689697266 216.84954833984375 78.98406982421875" stroke-width="0.0" fill="rgb(120, 191, 99)" opacity="0.025811866" stroke="rgb(0, 0, 0)" stroke-opacity="1.0" stroke-linecap="round" stroke-linejoin="round"/>
    <path d="M 286.7059020996094 203.78106689453125 C 271.65521240234375 209.82919311523438 266.10760498046875 223.10296630859375 273.5198974609375 259.62567138671875 C 237.0958251953125 279.134521484375 248.19871520996094 248.54690551757812 252.84629821777344 195.97755432128906 C 260.35284423828125 204.58218383789062 279.8001708984375 209.4129180908203 280.7275085449219 209.980224609375 C 273.99188232421875 222.97857666015625 293.546875 219.67750549316406 286.7059020996094 203.78106689453125" stroke-width="0.0" fill="rgb(194, 145, 206)" opacity="0.2988518" stroke="rgb(0, 0, 0)" stroke-opacity="1.0" stroke-linecap="round" stroke-linejoin="round"/>
    <path d="M 469.80029296875 -31.076974868774414 C 460.7563171386719 -26.572542190551758 462.3107604980469 -3.4874651432037354 465.4180603027344 10.47038459777832 C 454.5979919433594 20.769664764404297 455.2898254394531 19.873435974121094 445.6102294921875 14.200892448425293 C 446.71002197265625 -4.374918460845947 459.39154052734375 -10.635628700256348 475.4308166503906 -18.21009635925293 C 464.40252685546875 -4.592637538909912 482.8239440917969 -10.247859001159668 469.80029296875 -31.076974868774414" stroke-width="0.0" fill="rgb(143, 94, 65)" opacity="0.083521366" stroke="rgb(0, 0, 0)" stroke-opacity="1.0" stroke-linecap="round" stroke-linejoin="round"/>
    <path d="M 143.28807067871094 422.1017761230469 C 136.68768310546875 403.12054443359375 136.35452270507812 423.3546142578125 141.33367919921875 430.46624755859375 C 111.17988586425781 429.880859375 126.67424011230469 421.1069030761719 121.84074401855469 398.9438171386719 C 144.7073516845703 408.4023132324219 136.19342041015625 396.77978515625 128.28262329101562 401.78411865234375 C 135.93838500976562 425.36431884765625 152.59432983398438 429.8680114746094 143.28807067871094 422.1017761230469" stroke-width="0.0" fill="rgb(137, 134, 86)" opacity="0.056112792" stroke="rgb(0, 0, 0)" stroke-opacity="1.0" stroke-linecap="round" stroke-linejoin="round"/>
  </g>
</svg>
