<?xml version="1.0" ?>
<svg xmlns="http://www.w3.org/2000/svg" version="1.1" width="512" height="512">
  <defs/>
  <g>
    <path d="M 247.8777618408203 350.96527099609375 C 177.90231323242188 505.8265686035156 184.9984893798828 304.6078186035156 94.99246215820312 493.4485168457031 C 49.7001838684082 436.26031494140625 -28.32257652282715 291.3014221191406 68.56046295166016 208.52908325195312 C 65.6439208984375 342.2288818359375 57.437801361083984 259.57672119140625 94.5722885131836 340.7672424316406 C 117.22244262695312 384.1096496582031 98.64689636230469 343.14031982421875 247.8777618408203 350.96527099609375" stroke-width="0.0" fill="rgb(67, 23, 56)" opacity="0.7103417" stroke="rgb(0, 0, 0)" stroke-opacity="1.0" stroke-linecap="round" stroke-linejoin="round"/>
    <path d="M 179.47267150878906 218.88279724121094 C 244.40684509277344 277.39306640625 146.5096435546875 288.0810546875 165.44091796875 297.09075927734375 C 147.0198516845703 297.412841796875 100.0147933959961 259.6150207519531 114.8512954711914 198.7042236328125 C 104.83920288085938 260.2810974121094 40.61555862426758 252.74435424804688 176.29676818847656 219.999267578125 C 193.7132568359375 267.6283874511719 197.75238037109375 261.6500549316406 179.47267150878906 218.88279724121094" stroke-width="0.0" fill="rgb(44, 4, 101)" opacity="0.9456001" stroke="rgb(0, 0, 0)" stroke-opacity="1.0" stroke-linecap="round" stroke-linejoin="round"/>
    <path d="M 407.145263671875 241.21678161621094 C 391.5311279296875 350.0867919921875 216.4171600341797 268.84893798828125 380.1645202636719 229.57174682617188 C 420.5927734375 224.28648376464844 321.7088623046875 171.14511108398438 308.5052795410156 348.9560852050781 C 251.43594360351562 180.8765411376953 324.26519775390625 173.68917846679688 367.4101867675781 210.21560668945312 C 503.8062438964844 218.48126220703125 452.15966796875 268.8406677246094 407.145263671875 241.21678161621094" stroke-width="0.0" fill="rgb(52, 8, 118)" opacity="0.7614765" stroke="rgb(0, 0, 0)" stroke-opacity="1.0" stroke-linecap="round" stroke-linejoin="round"/>
    <path d="M 201.50086975097656 207.23123168945312 C 164.22393798828125 252.56846618652344 210.62728881835938 239.0447540283203 108.79197692871094 252.3252716064453 C 13.382500648498535 214.38717651367188 99.36309814453125 207.51414489746094 172.75274658203125 215.91131591796875 C 228.7044219970703 227.0512237548828 217.4723358154297 220.12188720703125 211.61788940429688 167.14772033691406 C 143.0064697265625 142.74334716796875 178.51556396484375 101.76530456542969 201.50086975097656 207.23123168945312" stroke-width="0.0" fill="rgb(71, 24, 113)" opacity="0.95024824" stroke="rgb(0, 0, 0)" stroke-opacity="1.0" stroke-linecap="round" stroke-linejoin="round"/>
    <path d="M 575.241943359375 344.5132751464844 C 556.271240234375 413.23760986328125 411.8308410644531 382.0514831542969 454.61737060546875 477.6077880859375 C 301.48138427734375 322.1877136230469 374.498046875 430.2991638183594 302.4602355957031 274.2942810058594 C 420.87127685546875 378.1485595703125 300.0199890136719 329.3148193359375 382.9443054199219 347.75054931640625 C 437.0035400390625 362.6240539550781 400.79766845703125 381.9654235839844 575.241943359375 344.5132751464844" stroke-width="0.0" fill="rgb(76, 94, 249)" opacity="0.30830136" stroke="rgb(0, 0, 0)" stroke-opacity="1.0" stroke-linecap="round" stroke-linejoin="round"/>
    <path d="M 447.32049560546875 205.18386840820312 C 467.10888671875 324.13153076171875 520.9874877929688 358.4789733886719 456.70977783203125 428.73809814453125 C 447.255615234375 295.7348937988281 455.8894958496094 335.2766418457031 404.6761169433594 206.49386596679688 C 476.25445556640625 120.36648559570312 487.8958740234375 -6.996242523193359 480.4396667480469 74.57965087890625 C 448.7235107421875 192.9718017578125 486.2159118652344 148.56163024902344 447.32049560546875 205.18386840820312" stroke-width="0.0" fill="rgb(51, 8, 71)" opacity="0.8990217" stroke="rgb(0, 0, 0)" stroke-opacity="1.0" stroke-linecap="round" stroke-linejoin="round"/>
    <path d="M 381.290771484375 308.1910095214844 C 290.2831726074219 326.8188171386719 323.98956298828125 376.03021240234375 350.9001770019531 354.1733093261719 C 249.9886932373047 344.8524169921875 322.60986328125 342.0481872558594 280.5069580078125 322.9606018066406 C 281.2237243652344 295.09820556640625 291.2325744628906 273.943359375 295.463134765625 264.2996826171875 C 287.2168884277344 238.20806884765625 322.1791687011719 268.771484375 381.290771484375 308.1910095214844" stroke-width="0.0" fill="rgb(241, 250, 250)" opacity="1.0" stroke="rgb(0, 0, 0)" stroke-opacity="1.0" stroke-linecap="round" stroke-linejoin="round"/>
    <path d="M 366.6258850097656 250.6298370361328 C 392.47491455078125 238.97357177734375 371.8895568847656 227.60987854003906 362.45599365234375 242.1545867919922 C 343.89300537109375 238.10379028320312 357.1508483886719 215.69064331054688 342.7291259765625 216.31549072265625 C 342.35491943359375 226.23670959472656 339.538818359375 210.06602478027344 320.426513671875 218.44015502929688 C 307.7489929199219 258.4891357421875 317.52838134765625 232.38314819335938 366.6258850097656 250.6298370361328" stroke-width="0.0" fill="rgb(69, 82, 0)" opacity="1.0" stroke="rgb(0, 0, 0)" stroke-opacity="1.0" stroke-linecap="round" stroke-linejoin="round"/>
    <path d="M 69.73149871826172 73.14588165283203 C 124.60018157958984 164.28094482421875 66.00138092041016 85.15386962890625 218.42642211914062 104.0074691772461 C 58.706729888916016 218.4017791748047 67.76502990722656 368.9796447753906 23.65666389465332 89.64789581298828 C 24.126846313476562 -69.1378173828125 56.55586624145508 -72.41417694091797 160.46612548828125 133.18923950195312 C 20.04461669921875 48.68716049194336 38.28427505493164 -0.16974861919879913 69.73149871826172 73.14588165283203" stroke-width="0.0" fill="rgb(51, 14, 79)" opacity="0.9516658" stroke="rgb(0, 0, 0)" stroke-opacity="1.0" stroke-linecap="round" stroke-linejoin="round"/>
    <path d="M 234.35073852539062 282.9844055175781 C 214.98577880859375 294.2649230957031 310.92767333984375 269.69329833984375 293.737060546875 320.0760498046875 C 43.01387023925781 373.8980407714844 172.83033752441406 325.6869201660156 155.6502227783203 257.8021240234375 C 117.03003692626953 160.8400115966797 200.57310485839844 196.60202026367188 232.7446746826172 203.0593719482422 C 206.680419921875 284.7539367675781 214.1400604248047 314.3250732421875 234.35073852539062 282.9844055175781" stroke-width="0.0" fill="rgb(74, 32, 74)" opacity="0.999524" stroke="rgb(0, 0, 0)" stroke-opacity="1.0" stroke-linecap="round" stroke-linejoin="round"/>
    <path d="M 413.23040771484375 246.00865173339844 C 394.68341064453125 243.01783752441406 383.63421630859375 236.91143798828125 371.771728515625 252.54417419433594 C 372.7820129394531 261.5332946777344 371.2598571777344 267.1960144042969 306.60162353515625 237.16531372070312 C 375.21124267578125 225.9081268310547 317.1053466796875 261.49871826171875 348.8438415527344 221.52333068847656 C 399.24688720703125 210.30078125 400.4380187988281 225.2391357421875 413.23040771484375 246.00865173339844" stroke-width="0.0" fill="rgb(171, 97, 151)" opacity="0.78102905" stroke="rgb(0, 0, 0)" stroke-opacity="1.0" stroke-linecap="round" stroke-linejoin="round"/>
    <path d="M 456.21697998046875 -48.016170501708984 C 302.29559326171875 54.38551712036133 361.8151550292969 94.71161651611328 247.25332641601562 129.33555603027344 C 125.0985107421875 120.49596405029297 202.43861389160156 52.68849182128906 33.52298355102539 -57.95815658569336 C 238.7557830810547 15.322073936462402 111.73706817626953 76.91461181640625 293.63397216796875 60.9381217956543 C 349.33740234375 70.81902313232422 353.4682922363281 -26.399869918823242 456.21697998046875 -48.016170501708984" stroke-width="0.0" fill="rgb(52, 16, 72)" opacity="0.957131" stroke="rgb(0, 0, 0)" stroke-opacity="1.0" stroke-linecap="round" stroke-linejoin="round"/>
    <path d="M 344.2170104980469 364.36126708984375 C 99.81686401367188 446.2101745605469 217.41098022460938 323.9773254394531 138.2033233642578 390.5411376953125 C 132.36129760742188 418.6607971191406 174.5 388.16253662109375 166.07962036132812 379.23675537109375 C 145.21697998046875 322.7747497558594 150.25823974609375 306.4793701171875 208.9054412841797 306.73040771484375 C 298.5653076171875 332.88165283203125 379.6182556152344 311.8794250488281 344.2170104980469 364.36126708984375" stroke-width="0.0" fill="rgb(238, 252, 255)" opacity="0.9996861" stroke="rgb(0, 0, 0)" stroke-opacity="1.0" stroke-linecap="round" stroke-linejoin="round"/>
    <path d="M 463.5155334472656 66.3958969116211 C 476.9732360839844 50.85371017456055 472.4765625 47.45222091674805 481.5644836425781 36.515586853027344 C 476.8397216796875 42.974796295166016 492.2933654785156 86.74441528320312 463.6455383300781 78.48270416259766 C 470.8702392578125 24.814334869384766 436.20440673828125 -18.59679412841797 470.7679138183594 -43.67507553100586 C 475.4848327636719 28.697418212890625 487.69207763671875 61.25435256958008 463.5155334472656 66.3958969116211" stroke-width="0.0" fill="rgb(24, 3, 46)" opacity="0.99912274" stroke="rgb(0, 0, 0)" stroke-opacity="1.0" stroke-linecap="round" stroke-linejoin="round"/>
    <path d="M 447.5694885253906 29.073604583740234 C 320.03277587890625 146.6276397705078 446.9079895019531 103.69808197021484 400.50347900390625 212.31155395507812 C 280.07318115234375 68.21903991699219 283.5342102050781 123.01720428466797 348.6459045410156 37.07963943481445 C 321.24151611328125 76.54303741455078 360.4859924316406 3.6229166984558105 342.33306884765625 95.62313842773438 C 334.65289306640625 76.04229736328125 416.45147705078125 -37.599952697753906 447.5694885253906 29.073604583740234" stroke-width="0.0" fill="rgb(62, 34, 93)" opacity="0.8824448" stroke="rgb(0, 0, 0)" stroke-opacity="1.0" stroke-linecap="round" stroke-linejoin="round"/>
    <path d="M 466.1040344238281 411.12518310546875 C 438.39141845703125 399.38275146484375 516.7721557617188 530.6638793945312 373.7859802246094 519.5431518554688 C 350.32989501953125 362.2505187988281 431.5665588378906 456.6784973144531 397.8479309082031 335.672119140625 C 552.3189086914062 444.1539306640625 339.1216735839844 387.2728271484375 417.48248291015625 347.5003356933594 C 475.1311950683594 390.7752990722656 493.6648254394531 412.9782409667969 466.1040344238281 411.12518310546875" stroke-width="0.0" fill="rgb(212, 144, 147)" opacity="0.5335087" stroke="rgb(0, 0, 0)" stroke-opacity="1.0" stroke-linecap="round" stroke-linejoin="round"/>
    <path d="M 479.2696838378906 37.1312370300293 C 448.989990234375 15.2116060256958 491.4247131347656 40.02019119262695 409.1822509765625 139.1343536376953 C 379.29425048828125 123.53377532958984 420.972900390625 165.9442901611328 435.5538024902344 22.972652435302734 C 462.358154296875 26.576065063476562 446.28955078125 44.659751892089844 449.7537536621094 99.41033172607422 C 477.1949462890625 35.308555603027344 478.2220764160156 6.5805816650390625 479.2696838378906 37.1312370300293" stroke-width="0.0" fill="rgb(79, 65, 89)" opacity="0.24830645" stroke="rgb(0, 0, 0)" stroke-opacity="1.0" stroke-linecap="round" stroke-linejoin="round"/>
    <path d="M 428.4400634765625 419.59442138671875 C 465.583740234375 443.71435546875 423.3146667480469 500.7485656738281 348.0167541503906 507.00079345703125 C 240.9680938720703 473.17498779296875 137.7283172607422 411.2723693847656 161.54486083984375 403.2483825683594 C 256.58074951171875 436.5570068359375 260.7449645996094 435.0435791015625 220.86663818359375 414.310302734375 C 272.784912109375 415.9574279785156 358.2294006347656 451.9271545410156 428.4400634765625 419.59442138671875" stroke-width="0.0" fill="rgb(61, 28, 88)" opacity="0.2863855" stroke="rgb(0, 0, 0)" stroke-opacity="1.0" stroke-linecap="round" stroke-linejoin="round"/>
    <path d="M 213.3200225830078 315.328857421875 C 263.9475402832031 291.769775390625 304.0238342285156 301.9131774902344 225.87564086914062 302.16693115234375 C 205.12428283691406 309.30621337890625 236.13162231445312 308.8798828125 230.6427001953125 227.0483856201172 C 199.18902587890625 263.2151794433594 181.6156005859375 269.02020263671875 134.92173767089844 298.27325439453125 C 147.0041046142578 367.5185546875 159.92767333984375 308.21063232421875 213.3200225830078 315.328857421875" stroke-width="0.0" fill="rgb(254, 250, 249)" opacity="0.9977386" stroke="rgb(0, 0, 0)" stroke-opacity="1.0" stroke-linecap="round" stroke-linejoin="round"/>
    <path d="M 543.48876953125 396.2355651855469 C 467.0411376953125 562.067626953125 414.21954345703125 514.2000732421875 435.9497375488281 408.65130615234375 C 438.55584716796875 397.5232849121094 448.9743957519531 394.0192565917969 463.9388122558594 388.6443786621094 C 497.3955383300781 396.07110595703125 442.7077941894531 408.8562927246094 451.0794677734375 386.5096130371094 C 553.8369140625 405.04473876953125 485.70501708984375 378.4520568847656 543.48876953125 396.2355651855469" stroke-width="0.0" fill="rgb(221, 178, 151)" opacity="0.53762597" stroke="rgb(0, 0, 0)" stroke-opacity="1.0" stroke-linecap="round" stroke-linejoin="round"/>
    <path d="M 300.7132873535156 410.98724365234375 C 256.8788146972656 376.9120788574219 219.74705505371094 380.675048828125 298.1582336425781 375.72119140625 C 307.1621398925781 415.38531494140625 240.0248260498047 391.456787109375 212.705810546875 405.431640625 C 191.55606079101562 428.6896667480469 206.00485229492188 378.9022521972656 301.5557861328125 309.7163391113281 C 290.8013916015625 424.8995666503906 344.0626525878906 423.1510009765625 300.7132873535156 410.98724365234375" stroke-width="0.0" fill="rgb(39, 0, 107)" opacity="0.95910436" stroke="rgb(0, 0, 0)" stroke-opacity="1.0" stroke-linecap="round" stroke-linejoin="round"/>
    <path d="M 52.387271881103516 6.19996452331543 C 52.44954299926758 -3.53183650970459 86.73616027832031 98.74967193603516 82.19222259521484 175.37452697753906 C 65.04519653320312 276.6167907714844 25.253625869750977 35.609580993652344 41.011966705322266 61.089046478271484 C 35.690399169921875 -18.522214889526367 37.16557693481445 -55.2471809387207 117.98982238769531 15.331640243530273 C 164.69363403320312 90.26554870605469 85.87765502929688 -8.791572570800781 52.387271881103516 6.19996452331543" stroke-width="0.0" fill="rgb(193, 140, 136)" opacity="0.8626523" stroke="rgb(0, 0, 0)" stroke-opacity="1.0" stroke-linecap="round" stroke-linejoin="round"/>
    <path d="M 194.2533416748047 54.70817184448242 C 167.84873962402344 65.89505004882812 173.5947723388672 37.56492233276367 176.8712158203125 46.87333297729492 C 148.52517700195312 46.45759201049805 145.6123504638672 21.078115463256836 108.36622619628906 -17.83314323425293 C 113.13079071044922 -14.411408424377441 104.26224517822266 -22.02728271484375 150.32830810546875 -28.593311309814453 C 186.32740783691406 -15.696625709533691 196.20286560058594 -13.271171569824219 194.2533416748047 54.70817184448242" stroke-width="0.0" fill="rgb(255, 255, 252)" opacity="1.0" stroke="rgb(0, 0, 0)" stroke-opacity="1.0" stroke-linecap="round" stroke-linejoin="round"/>
    <path d="M 178.5819091796875 333.00653076171875 C 150.93106079101562 377.365966796875 155.20358276367188 387.2046203613281 86.082275390625 366.8688659667969 C 55.133392333984375 361.1351013183594 79.06896209716797 335.44854736328125 22.302217483520508 342.407958984375 C 10.301615715026855 248.87838745117188 25.196752548217773 266.1876525878906 100.44795227050781 244.07693481445312 C 119.55817413330078 275.7393798828125 118.70576477050781 291.21905517578125 178.5819091796875 333.00653076171875" stroke-width="0.0" fill="rgb(240, 202, 166)" opacity="0.30134863" stroke="rgb(0, 0, 0)" stroke-opacity="1.0" stroke-linecap="round" stroke-linejoin="round"/>
    <path d="M 98.36785125732422 254.24172973632812 C 105.12905883789062 260.8807067871094 92.828857421875 262.1272277832031 100.9093246459961 237.83177185058594 C 79.26582336425781 248.39456176757812 70.46949005126953 279.2857360839844 33.0343132019043 282.72467041015625 C 53.802093505859375 199.41029357910156 83.24282836914062 141.71282958984375 97.2210464477539 227.84307861328125 C 112.63448333740234 231.97377014160156 90.1392822265625 221.4656982421875 98.36785125732422 254.24172973632812" stroke-width="0.0" fill="rgb(97, 82, 178)" opacity="0.5901606" stroke="rgb(0, 0, 0)" stroke-opacity="1.0" stroke-linecap="round" stroke-linejoin="round"/>
    <path d="M 276.928955078125 112.57784271240234 C 245.53875732421875 153.61866760253906 282.1273193359375 215.1571502685547 251.95152282714844 239.59982299804688 C 187.6421356201172 176.5535430908203 161.90151977539062 147.4265594482422 162.7012481689453 140.63548278808594 C 215.6526641845703 70.94387817382812 216.0958251953125 65.44108581542969 222.59884643554688 103.7543716430664 C 247.3573760986328 92.29060363769531 275.3088684082031 82.23369598388672 276.928955078125 112.57784271240234" stroke-width="0.0" fill="rgb(142, 86, 75)" opacity="0.40938368" stroke="rgb(0, 0, 0)" stroke-opacity="1.0" stroke-linecap="round" stroke-linejoin="round"/>
    <path d="M 289.66815185546875 354.9718017578125 C 280.5108947753906 357.4346923828125 314.20452880859375 395.93377685546875 320.9841613769531 390.3009033203125 C 296.98388671875 325.3233642578125 285.50830078125 341.3578186035156 289.3621826171875 326.099609375 C 305.43731689453125 357.3711242675781 306.51165771484375 292.92376708984375 335.77789306640625 315.3558654785156 C 351.4456481933594 325.9036865234375 287.3140869140625 357.37994384765625 289.66815185546875 354.9718017578125" stroke-width="0.0" fill="rgb(239, 255, 255)" opacity="0.27148828" stroke="rgb(0, 0, 0)" stroke-opacity="1.0" stroke-linecap="round" stroke-linejoin="round"/>
    <path d="M 23.919870376586914 429.1475524902344 C -9.433427810668945 421.57623291015625 134.58419799804688 392.78173828125 47.12217330932617 364.21142578125 C 12.514410972595215 430.7386169433594 22.34772491455078 395.18316650390625 83.02861022949219 337.9928894042969 C -53.97434997558594 346.4017639160156 -22.790306091308594 339.9438171386719 58.58793640136719 345.2980041503906 C 70.44355773925781 377.5033264160156 89.10613250732422 376.36358642578125 23.919870376586914 429.1475524902344" stroke-width="0.0" fill="rgb(31, 69, 31)" opacity="0.03624834" stroke="rgb(0, 0, 0)" stroke-opacity="1.0" stroke-linecap="round" stroke-linejoin="round"/>
    <path d="M 335.5982666015625 402.8709411621094 C 330.767333984375 394.22998046875 324.3065185546875 412.3986511230469 328.98468017578125 399.3124084472656 C 331.390625 406.02496337890625 334.29461669921875 386.4993591308594 333.9329833984375 404.19940185546875 C 316.9765319824219 437.0870666503906 266.3336181640625 406.974609375 321.7240905761719 396.9728698730469 C 341.8714904785156 338.0887451171875 355.32769775390625 350.6827392578125 335.5982666015625 402.8709411621094" stroke-width="0.0" fill="rgb(54, 19, 122)" opacity="0.991236" stroke="rgb(0, 0, 0)" stroke-opacity="1.0" stroke-linecap="round" stroke-linejoin="round"/>
    <path d="M 406.5387268066406 55.677146911621094 C 421.3384094238281 75.13117218017578 455.6505126953125 61.054927825927734 420.0023193359375 118.59113311767578 C 416.6338195800781 176.9456329345703 393.9753723144531 123.06927490234375 355.9825134277344 97.55374145507812 C 373.55279541015625 77.25980377197266 382.48565673828125 46.702293395996094 419.5903625488281 14.733466148376465 C 397.82562255859375 86.26863098144531 423.4128112792969 52.52187728881836 406.5387268066406 55.677146911621094" stroke-width="0.0" fill="rgb(106, 20, 122)" opacity="0.8534986" stroke="rgb(0, 0, 0)" stroke-opacity="1.0" stroke-linecap="round" stroke-linejoin="round"/>
    <path d="M 171.9870147705078 110.57861328125 C 179.7649383544922 85.51605987548828 185.25067138671875 102.29695892333984 186.8354949951172 105.85029602050781 C 158.28530883789062 126.86937713623047 148.39413452148438 117.88168334960938 118.179443359375 77.12609100341797 C 93.84759521484375 -12.202474594116211 147.55221557617188 36.768192291259766 172.87684631347656 75.18224334716797 C 195.32969665527344 50.984222412109375 200.3864288330078 80.62787628173828 171.9870147705078 110.57861328125" stroke-width="0.0" fill="rgb(100, 44, 73)" opacity="0.8372942" stroke="rgb(0, 0, 0)" stroke-opacity="1.0" stroke-linecap="round" stroke-linejoin="round"/>
    <path d="M 531.8523559570312 440.48583984375 C 531.2156982421875 467.00396728515625 531.2875366210938 471.57672119140625 525.7294921875 442.6719665527344 C 503.226806640625 452.5916442871094 491.3315124511719 452.203857421875 502.7848205566406 453.80224609375 C 487.01971435546875 430.49072265625 499.90313720703125 413.1754150390625 538.135009765625 416.8082275390625 C 524.2904663085938 425.6336975097656 529.3707275390625 430.8746337890625 531.8523559570312 440.48583984375" stroke-width="0.0" fill="rgb(222, 185, 142)" opacity="0.2186609" stroke="rgb(0, 0, 0)" stroke-opacity="1.0" stroke-linecap="round" stroke-linejoin="round"/>
    <path d="M 398.20587158203125 214.69354248046875 C 411.0710754394531 238.91783142089844 374.7312927246094 294.1689147949219 340.3614501953125 269.9410400390625 C 325.89508056640625 221.8310089111328 297.61077880859375 225.55506896972656 297.2421875 236.00469970703125 C 346.5024108886719 244.20419311523438 342.0816345214844 252.35939025878906 338.493896484375 237.74356079101562 C 376.4069519042969 232.79537963867188 335.8544616699219 227.97592163085938 398.20587158203125 214.69354248046875" stroke-width="0.0" fill="rgb(83, 50, 137)" opacity="0.67169124" stroke="rgb(0, 0, 0)" stroke-opacity="1.0" stroke-linecap="round" stroke-linejoin="round"/>
    <path d="M 468.96075439453125 397.7240905761719 C 469.0812683105469 409.420166015625 460.6936950683594 423.26409912109375 432.41961669921875 452.90252685546875 C 409.28173828125 458.9820556640625 414.0304260253906 452.7413330078125 410.0318603515625 403.225830078125 C 402.8756408691406 377.8806457519531 427.01776123046875 354.23101806640625 443.5906982421875 348.3196105957031 C 457.9444885253906 394.3447265625 481.1479187011719 407.8443298339844 468.96075439453125 397.7240905761719" stroke-width="0.0" fill="rgb(170, 135, 146)" opacity="0.67610013" stroke="rgb(0, 0, 0)" stroke-opacity="1.0" stroke-linecap="round" stroke-linejoin="round"/>
    <path d="M 180.67599487304688 417.2164001464844 C 169.01602172851562 430.45770263671875 173.5101776123047 432.4087219238281 165.34814453125 426.0810241699219 C 143.81407165527344 432.1708984375 150.7205810546875 439.7290344238281 143.77598571777344 409.7298583984375 C 147.4733428955078 368.39495849609375 158.27349853515625 365.6933288574219 172.62550354003906 394.4608459472656 C 165.95008850097656 399.2974853515625 181.37249755859375 388.1081848144531 180.67599487304688 417.2164001464844" stroke-width="0.0" fill="rgb(215, 224, 215)" opacity="1.0" stroke="rgb(0, 0, 0)" stroke-opacity="1.0" stroke-linecap="round" stroke-linejoin="round"/>
    <path d="M 418.3768005371094 383.9930725097656 C 427.0478515625 396.9086608886719 431.0367736816406 409.78741455078125 427.46295166015625 428.799560546875 C 400.8744812011719 408.70550537109375 394.91729736328125 384.919677734375 419.5978698730469 328.87908935546875 C 401.963134765625 301.9368591308594 373.01165771484375 293.0158996582031 378.62042236328125 363.3909912109375 C 418.14031982421875 380.7893371582031 414.8846435546875 351.43804931640625 418.3768005371094 383.9930725097656" stroke-width="0.0" fill="rgb(197, 194, 226)" opacity="0.09436517" stroke="rgb(0, 0, 0)" stroke-opacity="1.0" stroke-linecap="round" stroke-linejoin="round"/>
    <path d="M 155.2733154296875 97.41154479980469 C 183.28945922851562 123.99972534179688 167.4401092529297 120.73209381103516 140.08157348632812 118.79314422607422 C 95.6729965209961 142.27508544921875 95.73229217529297 94.17131042480469 82.01737213134766 73.99946594238281 C 69.90875244140625 30.06419563293457 74.90487670898438 29.955121994018555 89.5939712524414 67.7586441040039 C 123.49822998046875 75.41181945800781 132.9493408203125 99.4244384765625 155.2733154296875 97.41154479980469" stroke-width="0.0" fill="rgb(103, 22, 116)" opacity="0.95582473" stroke="rgb(0, 0, 0)" stroke-opacity="1.0" stroke-linecap="round" stroke-linejoin="round"/>
    <path d="M 358.48223876953125 375.1048583984375 C 336.72076416015625 376.2297668457031 328.8311767578125 388.1303405761719 308.7450256347656 394.1366882324219 C 324.3096923828125 414.875244140625 344.2390441894531 390.6202392578125 347.2185974121094 351.01885986328125 C 328.5957336425781 341.3467712402344 322.8021545410156 349.52142333984375 351.8980712890625 345.8829345703125 C 359.8162536621094 357.46209716796875 347.7186584472656 358.6466064453125 358.48223876953125 375.1048583984375" stroke-width="0.0" fill="rgb(87, 27, 125)" opacity="0.16061136" stroke="rgb(0, 0, 0)" stroke-opacity="1.0" stroke-linecap="round" stroke-linejoin="round"/>
    <path d="M 106.44419860839844 365.94354248046875 C 99.08383178710938 355.8448791503906 75.49506378173828 345.9051513671875 69.51123809814453 352.95703125 C 71.1833267211914 371.1867370605469 61.327186584472656 365.9141540527344 63.3432502746582 350.8380126953125 C 70.89423370361328 323.462646484375 102.22541809082031 342.1056823730469 105.35527038574219 358.5828857421875 C 97.47697448730469 369.5448913574219 102.50179290771484 382.3947448730469 106.44419860839844 365.94354248046875" stroke-width="0.0" fill="rgb(165, 108, 64)" opacity="0.51031315" stroke="rgb(0, 0, 0)" stroke-opacity="1.0" stroke-linecap="round" stroke-linejoin="round"/>
    <path d="M 308.5939025878906 124.8188247680664 C 266.4614562988281 146.54818725585938 265.4792785644531 227.47637939453125 275.08831787109375 224.13291931152344 C 251.73379516601562 143.92074584960938 254.46014404296875 125.63825225830078 253.34976196289062 96.20405578613281 C 248.42132568359375 62.3997917175293 236.58035278320312 54.88691329956055 242.02194213867188 79.50605010986328 C 278.43377685546875 95.72893524169922 329.82763671875 81.87503814697266 308.5939025878906 124.8188247680664" stroke-width="0.0" fill="rgb(45, 38, 99)" opacity="1.0" stroke="rgb(0, 0, 0)" stroke-opacity="1.0" stroke-linecap="round" stroke-linejoin="round"/>
    <path d="M 437.6728210449219 84.53288269042969 C 441.14971923828125 116.52400970458984 431.0628967285156 117.76741790771484 433.578857421875 123.90074157714844 C 416.93414306640625 90.43235778808594 414.2432861328125 76.2046890258789 403.1335754394531 66.0058822631836 C 394.970703125 71.36416625976562 409.701416015625 56.02486801147461 446.1810302734375 15.965415954589844 C 455.30084228515625 7.870512008666992 451.5748596191406 55.80900573730469 437.6728210449219 84.53288269042969" stroke-width="0.0" fill="rgb(88, 35, 161)" opacity="0.6408978" stroke="rgb(0, 0, 0)" stroke-opacity="1.0" stroke-linecap="round" stroke-linejoin="round"/>
    <path d="M 123.07054138183594 115.84857177734375 C 112.4474105834961 134.66380310058594 95.60549926757812 148.3025665283203 99.55824279785156 143.6630401611328 C 82.55069732666016 115.6904067993164 79.28620910644531 113.92425537109375 95.3965072631836 122.63285064697266 C 81.22090148925781 103.96354675292969 66.18891906738281 86.89774322509766 75.82272338867188 65.9061508178711 C 143.02984619140625 103.99072265625 143.56373596191406 106.3961181640625 123.07054138183594 115.84857177734375" stroke-width="0.0" fill="rgb(150, 45, 111)" opacity="0.6209133" stroke="rgb(0, 0, 0)" stroke-opacity="1.0" stroke-linecap="round" stroke-linejoin="round"/>
    <path d="M 534.273193359375 476.8078308105469 C 520.4595336914062 517.4486083984375 511.7738037109375 524.1069946289062 461.8874816894531 548.8660278320312 C 425.3085632324219 530.0245361328125 416.9305114746094 509.5818176269531 448.3645324707031 508.41595458984375 C 465.47601318359375 486.0264587402344 475.1134338378906 474.90899658203125 495.2981262207031 452.1448974609375 C 551.533447265625 449.2218933105469 547.38427734375 452.1758728027344 534.273193359375 476.8078308105469" stroke-width="0.0" fill="rgb(248, 221, 67)" opacity="0.13343386" stroke="rgb(0, 0, 0)" stroke-opacity="1.0" stroke-linecap="round" stroke-linejoin="round"/>
    <path d="M 284.54034423828125 304.4838562011719 C 279.3626403808594 306.061279296875 275.9405822753906 308.0058898925781 255.11341857910156 366.0086975097656 C 202.89865112304688 369.0094299316406 199.36837768554688 328.0824279785156 210.6896209716797 301.64984130859375 C 241.237060546875 292.89306640625 265.49005126953125 297.27734375 274.1698303222656 306.8059387207031 C 280.2398376464844 313.6763000488281 298.42120361328125 328.51959228515625 284.54034423828125 304.4838562011719" stroke-width="0.0" fill="rgb(37, 4, 74)" opacity="0.9912367" stroke="rgb(0, 0, 0)" stroke-opacity="1.0" stroke-linecap="round" stroke-linejoin="round"/>
    <path d="M 411.7218933105469 160.41123962402344 C 451.6991882324219 148.19863891601562 443.58831787109375 154.50856018066406 418.4281921386719 219.9765167236328 C 370.9073486328125 210.34835815429688 400.7157897949219 178.25160217285156 397.4830627441406 121.83753967285156 C 417.62506103515625 148.81646728515625 394.4346618652344 132.54852294921875 418.85491943359375 130.1626739501953 C 435.0146484375 166.40138244628906 419.76483154296875 128.18975830078125 411.7218933105469 160.41123962402344" stroke-width="0.0" fill="rgb(94, 63, 138)" opacity="0.99961406" stroke="rgb(0, 0, 0)" stroke-opacity="1.0" stroke-linecap="round" stroke-linejoin="round"/>
    <path d="M 451.8030700683594 507.3507080078125 C 458.88555908203125 541.2539672851562 467.9854431152344 534.8926391601562 439.9472961425781 529.773193359375 C 428.6133728027344 512.6957397460938 439.0254821777344 486.6702575683594 434.5823974609375 491.4920349121094 C 422.17755126953125 481.1451110839844 442.4721374511719 477.97802734375 449.86053466796875 477.10723876953125 C 444.9878234863281 477.43218994140625 451.5323486328125 494.57568359375 451.8030700683594 507.3507080078125" stroke-width="0.0" fill="rgb(206, 143, 153)" opacity="0.45686826" stroke="rgb(0, 0, 0)" stroke-opacity="1.0" stroke-linecap="round" stroke-linejoin="round"/>
    <path d="M 470.85687255859375 -29.344589233398438 C 467.5931701660156 -29.870214462280273 466.484130859375 -8.304333686828613 455.0304870605469 11.593369483947754 C 489.01727294921875 26.385053634643555 446.3597412109375 32.955257415771484 371.618408203125 24.262874603271484 C 412.5954895019531 -35.095211029052734 437.97357177734375 -28.438846588134766 446.8088073730469 -34.11610412597656 C 474.8860168457031 -14.387734413146973 486.1815185546875 -6.34412956237793 470.85687255859375 -29.344589233398438" stroke-width="0.0" fill="rgb(117, 86, 126)" opacity="0.47662905" stroke="rgb(0, 0, 0)" stroke-opacity="1.0" stroke-linecap="round" stroke-linejoin="round"/>
    <path d="M 197.1515350341797 235.4249725341797 C 196.88330078125 227.99742126464844 194.9296112060547 234.35325622558594 170.15956115722656 232.82998657226562 C 168.6280059814453 253.55844116210938 137.19696044921875 220.56809997558594 171.7471923828125 219.7251434326172 C 168.3833770751953 250.83668518066406 167.840576171875 252.84176635742188 197.30296325683594 231.4624786376953 C 170.85256958007812 241.79330444335938 176.46771240234375 243.98614501953125 197.1515350341797 235.4249725341797" stroke-width="0.0" fill="rgb(252, 182, 0)" opacity="0.9975523" stroke="rgb(0, 0, 0)" stroke-opacity="1.0" stroke-linecap="round" stroke-linejoin="round"/>
    <path d="M 211.16709899902344 419.6312561035156 C 175.79141235351562 421.0605163574219 163.71957397460938 432.7415466308594 171.9937286376953 453.1928405761719 C 148.5800323486328 462.44818115234375 147.2749786376953 459.5927429199219 138.73031616210938 420.5161437988281 C 135.36483764648438 395.5359191894531 149.1991729736328 399.62237548828125 173.1488800048828 410.8448791503906 C 196.45977783203125 402.99627685546875 207.60757446289062 408.5946350097656 211.16709899902344 419.6312561035156" stroke-width="0.0" fill="rgb(234, 241, 156)" opacity="0.09248985" stroke="rgb(0, 0, 0)" stroke-opacity="1.0" stroke-linecap="round" stroke-linejoin="round"/>
    <path d="M 212.07464599609375 238.84864807128906 C 185.35047912597656 233.30828857421875 178.5426025390625 251.0053253173828 197.4750518798828 214.03643798828125 C 197.12310791015625 208.4178924560547 181.6739044189453 194.80787658691406 203.23216247558594 214.74082946777344 C 198.36480712890625 247.9935760498047 187.12564086914062 241.99227905273438 188.1827392578125 237.15882873535156 C 200.7292938232422 211.0858612060547 217.43618774414062 218.83578491210938 212.07464599609375 238.84864807128906" stroke-width="0.0" fill="rgb(170, 121, 6)" opacity="0.77405447" stroke="rgb(0, 0, 0)" stroke-opacity="1.0" stroke-linecap="round" stroke-linejoin="round"/>
    <path d="M 186.4958038330078 350.59912109375 C 177.41644287109375 335.91436767578125 175.38687133789062 344.9029235839844 177.26791381835938 373.3535461425781 C 154.33843994140625 367.6986389160156 149.36143493652344 365.1236877441406 166.62771606445312 350.4143371582031 C 179.6867218017578 345.53564453125 212.06251525878906 355.10595703125 175.5849609375 336.4944152832031 C 165.72454833984375 341.23736572265625 178.15029907226562 344.7781066894531 186.4958038330078 350.59912109375" stroke-width="0.0" fill="rgb(105, 93, 229)" opacity="0.28200674" stroke="rgb(0, 0, 0)" stroke-opacity="1.0" stroke-linecap="round" stroke-linejoin="round"/>
    <path d="M 60.86133575439453 460.8171081542969 C 83.40445709228516 492.8415222167969 65.06353759765625 486.2007751464844 81.31973266601562 462.9220275878906 C 66.24996948242188 478.53363037109375 49.47920608520508 465.09185791015625 36.78065872192383 458.4884033203125 C 44.960601806640625 451.81964111328125 41.676483154296875 428.47052001953125 48.25160598754883 401.0018005371094 C 66.8636245727539 426.4568176269531 71.73362731933594 435.7547302246094 60.86133575439453 460.8171081542969" stroke-width="0.0" fill="rgb(239, 237, 241)" opacity="0.009768179" stroke="rgb(0, 0, 0)" stroke-opacity="1.0" stroke-linecap="round" stroke-linejoin="round"/>
    <path d="M 455.2631530761719 429.0585021972656 C 445.1637268066406 478.3047790527344 439.80316162109375 498.7924499511719 466.39727783203125 491.47015380859375 C 476.7647399902344 455.656494140625 450.3121032714844 464.97564697265625 439.07794189453125 462.8856506347656 C 431.8046875 436.4317932128906 443.1923522949219 426.6361999511719 437.78167724609375 436.05340576171875 C 445.23162841796875 426.7257385253906 468.20062255859375 442.8264465332031 455.2631530761719 429.0585021972656" stroke-width="0.0" fill="rgb(213, 204, 124)" opacity="0.0" stroke="rgb(0, 0, 0)" stroke-opacity="1.0" stroke-linecap="round" stroke-linejoin="round"/>
    <path d="M 399.859130859375 360.99163818359375 C 452.4125671386719 366.5527038574219 467.5169372558594 397.7662658691406 465.3586730957031 385.3153381347656 C 420.01275634765625 390.1786804199219 410.180419921875 382.9623718261719 414.8553771972656 369.10650634765625 C 442.90460205078125 375.83172607421875 450.8728332519531 364.0321350097656 459.21038818359375 341.2250061035156 C 420.461669921875 299.8265686035156 404.7419738769531 311.1405029296875 399.859130859375 360.99163818359375" stroke-width="0.0" fill="rgb(184, 150, 120)" opacity="0.18788719" stroke="rgb(0, 0, 0)" stroke-opacity="1.0" stroke-linecap="round" stroke-linejoin="round"/>
    <path d="M 49.49116134643555 110.93197631835938 C 34.20619201660156 122.62533569335938 60.34206008911133 129.724609375 52.49896240234375 158.69180297851562 C 26.890331268310547 131.1163330078125 19.463233947753906 129.7809600830078 -8.904669761657715 121.10862731933594 C -11.842899322509766 84.45893096923828 3.402416944503784 68.257568359375 10.4556884765625 82.4374008178711 C 52.651275634765625 86.60344696044922 70.13203430175781 97.58418273925781 49.49116134643555 110.93197631835938" stroke-width="0.0" fill="rgb(227, 255, 228)" opacity="0.090205744" stroke="rgb(0, 0, 0)" stroke-opacity="1.0" stroke-linecap="round" stroke-linejoin="round"/>
    <path d="M 109.42855072021484 520.3145141601562 C 77.29415130615234 530.6701049804688 44.663841247558594 514.9519653320312 2.1997787952423096 512.3029174804688 C 41.63373947143555 488.92169189453125 13.879434585571289 485.5850524902344 10.140201568603516 445.2956848144531 C -6.804233551025391 465.3854675292969 1.6045283079147339 458.79486083984375 -22.228212356567383 441.2154235839844 C 46.420310974121094 435.95489501953125 70.04212188720703 452.70660400390625 109.42855072021484 520.3145141601562" stroke-width="0.0" fill="rgb(244, 255, 255)" opacity="0.0" stroke="rgb(0, 0, 0)" stroke-opacity="1.0" stroke-linecap="round" stroke-linejoin="round"/>
    <path d="M 109.1296615600586 213.2778778076172 C 102.4855728149414 236.58424377441406 125.98324584960938 226.50460815429688 126.55712890625 246.921875 C 152.5532989501953 262.682373046875 140.01341247558594 236.80323791503906 113.27932739257812 219.784423828125 C 139.84158325195312 229.72256469726562 136.72572326660156 230.07400512695312 144.67433166503906 217.98104858398438 C 152.5589599609375 228.97662353515625 157.36923217773438 213.78115844726562 109.1296615600586 213.2778778076172" stroke-width="0.0" fill="rgb(41, 83, 237)" opacity="0.34093088" stroke="rgb(0, 0, 0)" stroke-opacity="1.0" stroke-linecap="round" stroke-linejoin="round"/>
    <path d="M 279.01092529296875 -5.113466739654541 C 284.9732666015625 39.910064697265625 262.5516662597656 59.55485916137695 269.6857604980469 57.004051208496094 C 280.6321716308594 47.31737518310547 288.28125 24.093523025512695 274.32177734375 -27.312641143798828 C 245.86817932128906 -31.397762298583984 254.16888427734375 -52.16611099243164 243.27194213867188 10.864391326904297 C 226.03277587890625 8.953227996826172 238.2373809814453 14.726932525634766 279.01092529296875 -5.113466739654541" stroke-width="0.0" fill="rgb(254, 255, 130)" opacity="0.0018122029" stroke="rgb(0, 0, 0)" stroke-opacity="1.0" stroke-linecap="round" stroke-linejoin="round"/>
    <path d="M 144.4369659423828 154.17494201660156 C 142.21566772460938 155.634765625 138.6420440673828 168.931396484375 103.47662353515625 190.44285583496094 C 120.88914489746094 187.572998046875 115.83367919921875 160.18836975097656 109.88809204101562 163.87332153320312 C 106.21956634521484 162.11492919921875 121.19779968261719 159.033935546875 138.82965087890625 172.9907989501953 C 148.59347534179688 174.4729766845703 143.0169219970703 152.12570190429688 144.4369659423828 154.17494201660156" stroke-width="0.0" fill="rgb(79, 51, 214)" opacity="0.0107028" stroke="rgb(0, 0, 0)" stroke-opacity="1.0" stroke-linecap="round" stroke-linejoin="round"/>
    <path d="M 472.82611083984375 234.8060302734375 C 456.34832763671875 241.51206970214844 426.2538146972656 231.62660217285156 427.5724182128906 225.94297790527344 C 422.93243408203125 235.88108825683594 424.4520568847656 252.59617614746094 438.6015930175781 227.0016632080078 C 441.8877868652344 231.2335662841797 451.1871032714844 254.7617645263672 483.91937255859375 234.7132568359375 C 465.86602783203125 226.93914794921875 478.893798828125 235.88284301757812 472.82611083984375 234.8060302734375" stroke-width="0.0" fill="rgb(53, 24, 148)" opacity="0.6647707" stroke="rgb(0, 0, 0)" stroke-opacity="1.0" stroke-linecap="round" stroke-linejoin="round"/>
    <path d="M 412.29656982421875 377.3128662109375 C 382.67919921875 380.5107116699219 375.02362060546875 378.391357421875 369.1138916015625 375.5257873535156 C 345.8504638671875 431.80047607421875 333.8422546386719 436.2803039550781 290.998046875 395.5010986328125 C 318.59832763671875 369.3055114746094 327.2889709472656 357.2051696777344 337.0100402832031 326.6244812011719 C 375.66302490234375 346.0559997558594 379.7214050292969 377.7598876953125 412.29656982421875 377.3128662109375" stroke-width="0.0" fill="rgb(84, 105, 255)" opacity="0.12734897" stroke="rgb(0, 0, 0)" stroke-opacity="1.0" stroke-linecap="round" stroke-linejoin="round"/>
    <path d="M 378.0926513671875 195.71194458007812 C 370.9711608886719 186.07920837402344 367.80474853515625 192.33998107910156 362.22113037109375 197.94540405273438 C 335.23883056640625 243.63978576660156 337.3880310058594 239.34927368164062 351.752197265625 234.1331024169922 C 346.1667785644531 163.0587158203125 325.0200500488281 133.1030731201172 331.876708984375 150.58883666992188 C 365.62872314453125 181.87701416015625 378.3888244628906 208.23794555664062 378.0926513671875 195.71194458007812" stroke-width="0.0" fill="rgb(254, 253, 251)" opacity="0.012699347" stroke="rgb(0, 0, 0)" stroke-opacity="1.0" stroke-linecap="round" stroke-linejoin="round"/>
    <path d="M 123.93321228027344 447.18524169921875 C 100.49835205078125 481.97039794921875 95.79508972167969 477.8746643066406 97.62864685058594 486.42266845703125 C 70.96633911132812 478.93743896484375 86.99376678466797 436.0955810546875 67.72705078125 451.8518371582031 C 92.29376983642578 430.1001281738281 85.10224914550781 414.5342712402344 110.47063446044922 426.9269714355469 C 109.55818939208984 427.9921569824219 100.7071533203125 446.1836853027344 123.93321228027344 447.18524169921875" stroke-width="0.0" fill="rgb(241, 157, 250)" opacity="0.14440548" stroke="rgb(0, 0, 0)" stroke-opacity="1.0" stroke-linecap="round" stroke-linejoin="round"/>
    <path d="M 129.68545532226562 479.00787353515625 C 103.86539459228516 492.46881103515625 91.25202178955078 495.9559326171875 80.32056427001953 513.1151733398438 C 56.6402473449707 482.8805847167969 40.3616943359375 480.5766296386719 18.138195037841797 434.9576416015625 C 20.449426651000977 424.8455810546875 50.085182189941406 408.83758544921875 81.60279083251953 417.6473388671875 C 77.67340850830078 442.1946105957031 97.6761245727539 460.8043518066406 129.68545532226562 479.00787353515625" stroke-width="0.0" fill="rgb(175, 212, 255)" opacity="0.00036526896" stroke="rgb(0, 0, 0)" stroke-opacity="1.0" stroke-linecap="round" stroke-linejoin="round"/>
  </g>
</svg>
