<?xml version="1.0" ?>
<svg xmlns="http://www.w3.org/2000/svg" version="1.1" width="512" height="512">
  <defs/>
  <g>
    <path d="M 233.74542236328125 333.6264953613281 C 169.33297729492188 536.1949462890625 200.99002075195312 358.9571533203125 119.35130310058594 443.41192626953125 C 50.7347297668457 400.70965576171875 -42.19017791748047 268.71282958984375 53.31947326660156 186.56378173828125 C 42.259071350097656 386.0061950683594 41.850460052490234 286.8848571777344 50.786930084228516 326.511962890625 C 71.3538589477539 362.1990661621094 57.006446838378906 319.5537109375 233.74542236328125 333.6264953613281" stroke-width="0.0" fill="rgb(23, 9, 10)" opacity="0.9398604" stroke="rgb(0, 0, 0)" stroke-opacity="1.0" stroke-linecap="round" stroke-linejoin="round"/>
    <path d="M 185.73126220703125 192.55889892578125 C 247.0296630859375 258.37652587890625 126.65050506591797 281.2946472167969 177.0830535888672 270.43817138671875 C 144.72706604003906 283.6141357421875 70.92443084716797 268.4122619628906 68.90251159667969 235.7049560546875 C 104.70699310302734 227.61146545410156 5.073983192443848 200.6275634765625 163.86895751953125 184.34808349609375 C 156.16958618164062 289.2198486328125 181.7637481689453 268.9724426269531 185.73126220703125 192.55889892578125" stroke-width="0.0" fill="rgb(16, 14, 14)" opacity="0.9639044" stroke="rgb(0, 0, 0)" stroke-opacity="1.0" stroke-linecap="round" stroke-linejoin="round"/>
    <path d="M 410.6214599609375 275.3035583496094 C 440.4464416503906 371.3428649902344 271.24908447265625 278.24407958984375 381.16363525390625 240.61900329589844 C 413.58074951171875 211.84463500976562 318.96185302734375 147.53085327148438 303.4798889160156 363.7115173339844 C 249.87644958496094 203.7127685546875 334.25726318359375 204.8121795654297 379.133544921875 194.11465454101562 C 422.4596252441406 213.4991912841797 386.5915832519531 269.29443359375 410.6214599609375 275.3035583496094" stroke-width="0.0" fill="rgb(29, 8, 29)" opacity="0.91711575" stroke="rgb(0, 0, 0)" stroke-opacity="1.0" stroke-linecap="round" stroke-linejoin="round"/>
    <path d="M 157.11245727539062 156.6995391845703 C 159.87559509277344 235.1477813720703 247.73487854003906 225.25550842285156 124.11219024658203 226.79937744140625 C 38.43416213989258 229.9821014404297 113.638671875 218.786865234375 140.9046630859375 227.25538635253906 C 188.48211669921875 195.8294219970703 184.01560974121094 209.52967834472656 182.4810791015625 207.49237060546875 C 151.07276916503906 135.3151397705078 169.85618591308594 113.56869506835938 157.11245727539062 156.6995391845703" stroke-width="0.0" fill="rgb(26, 27, 50)" opacity="0.82400125" stroke="rgb(0, 0, 0)" stroke-opacity="1.0" stroke-linecap="round" stroke-linejoin="round"/>
    <path d="M 571.095703125 343.1756286621094 C 544.5638427734375 405.40850830078125 397.5374755859375 375.3697509765625 444.5733947753906 473.91033935546875 C 302.9469299316406 323.4067687988281 353.5358581542969 440.04443359375 294.5147705078125 272.0852355957031 C 432.469970703125 364.69329833984375 300.6555480957031 337.4345397949219 392.3673400878906 342.32366943359375 C 455.5409851074219 351.7971496582031 405.3263244628906 377.1543273925781 571.095703125 343.1756286621094" stroke-width="0.0" fill="rgb(22, 16, 74)" opacity="0.84755796" stroke="rgb(0, 0, 0)" stroke-opacity="1.0" stroke-linecap="round" stroke-linejoin="round"/>
    <path d="M 422.9563293457031 174.98062133789062 C 458.2557678222656 285.6971740722656 479.39984130859375 316.3132629394531 419.7291259765625 395.02801513671875 C 438.3557434082031 283.3855285644531 445.6042785644531 344.91802978515625 404.20538330078125 204.0813751220703 C 474.03076171875 112.30845642089844 488.40509033203125 -4.301455974578857 488.1298828125 83.56307220458984 C 453.02099609375 210.39712524414062 453.8545227050781 127.3584213256836 422.9563293457031 174.98062133789062" stroke-width="0.0" fill="rgb(24, 13, 34)" opacity="0.91101366" stroke="rgb(0, 0, 0)" stroke-opacity="1.0" stroke-linecap="round" stroke-linejoin="round"/>
    <path d="M 365.20318603515625 297.34881591796875 C 281.11810302734375 316.1529541015625 341.7130126953125 382.9345703125 355.99078369140625 334.26953125 C 277.1628723144531 342.13409423828125 341.3492736816406 348.728515625 286.2785949707031 347.9396667480469 C 286.9661865234375 313.5240783691406 278.891357421875 241.28834533691406 295.47210693359375 229.28994750976562 C 302.63568115234375 242.51097106933594 312.64990234375 278.94012451171875 365.20318603515625 297.34881591796875" stroke-width="0.0" fill="rgb(240, 255, 254)" opacity="0.9968494" stroke="rgb(0, 0, 0)" stroke-opacity="1.0" stroke-linecap="round" stroke-linejoin="round"/>
    <path d="M 341.4492492675781 241.60513305664062 C 354.8600769042969 189.0100860595703 398.5213928222656 222.49295043945312 397.2522888183594 163.34869384765625 C 351.4176025390625 178.51654052734375 391.9482421875 226.85321044921875 378.538818359375 205.0713348388672 C 330.4258728027344 191.80348205566406 286.1855163574219 206.65939331054688 313.94647216796875 242.43324279785156 C 367.19384765625 224.94114685058594 325.9797668457031 255.54400634765625 341.4492492675781 241.60513305664062" stroke-width="0.0" fill="rgb(17, 18, 53)" opacity="0.99885696" stroke="rgb(0, 0, 0)" stroke-opacity="1.0" stroke-linecap="round" stroke-linejoin="round"/>
    <path d="M 55.65394973754883 90.10235595703125 C 131.0549774169922 216.7870635986328 62.61320495605469 113.81463623046875 197.16793823242188 101.01571655273438 C 52.64592361450195 193.85205078125 114.10629272460938 355.86663818359375 35.50297927856445 71.13065338134766 C 29.232885360717773 -26.07034683227539 57.97615432739258 -50.1162109375 156.58628845214844 105.59357452392578 C 56.67844009399414 42.187355041503906 70.10601806640625 16.964710235595703 55.65394973754883 90.10235595703125" stroke-width="0.0" fill="rgb(13, 0, 13)" opacity="0.99175054" stroke="rgb(0, 0, 0)" stroke-opacity="1.0" stroke-linecap="round" stroke-linejoin="round"/>
    <path d="M 223.97413635253906 303.19940185546875 C 229.2740478515625 313.909912109375 339.4139709472656 280.2663269042969 305.0083923339844 325.8282165527344 C 38.06940841674805 361.23297119140625 152.03421020507812 302.8939208984375 163.37783813476562 251.70481872558594 C 123.99790954589844 204.87693786621094 171.438720703125 244.12393188476562 190.71339416503906 267.87261962890625 C 224.90928649902344 291.4877014160156 217.19187927246094 311.9898376464844 223.97413635253906 303.19940185546875" stroke-width="0.0" fill="rgb(50, 52, 77)" opacity="0.93858546" stroke="rgb(0, 0, 0)" stroke-opacity="1.0" stroke-linecap="round" stroke-linejoin="round"/>
    <path d="M 404.1708068847656 252.99913024902344 C 406.7210998535156 291.9662170410156 390.9212646484375 242.29258728027344 399.3038635253906 266.2904968261719 C 410.2353210449219 311.2213134765625 348.3084411621094 323.7080993652344 308.0259704589844 240.27273559570312 C 345.678466796875 223.4354248046875 318.6794738769531 259.9407043457031 346.8804931640625 226.73092651367188 C 357.8039855957031 272.61871337890625 382.7088928222656 282.16845703125 404.1708068847656 252.99913024902344" stroke-width="0.0" fill="rgb(252, 255, 254)" opacity="0.99998486" stroke="rgb(0, 0, 0)" stroke-opacity="1.0" stroke-linecap="round" stroke-linejoin="round"/>
    <path d="M 500.8118591308594 12.82356071472168 C 313.24481201171875 73.12984466552734 350.65460205078125 87.63960266113281 239.68939208984375 117.002197265625 C 125.27865600585938 114.89654541015625 177.3690948486328 75.11019134521484 -9.139232635498047 -22.804931640625 C 219.2265625 21.033384323120117 105.5565185546875 82.19042205810547 313.0368347167969 70.38957977294922 C 374.5987243652344 96.16341400146484 400.1289367675781 27.89640998840332 500.8118591308594 12.82356071472168" stroke-width="0.0" fill="rgb(11, 1, 22)" opacity="0.92927134" stroke="rgb(0, 0, 0)" stroke-opacity="1.0" stroke-linecap="round" stroke-linejoin="round"/>
    <path d="M 352.91162109375 366.83892822265625 C 126.613525390625 448.1973571777344 209.4341278076172 312.1174011230469 111.35380554199219 389.45416259765625 C 100.71659851074219 391.1842041015625 168.55810546875 358.3114929199219 168.1514434814453 368.90008544921875 C 141.96417236328125 349.53411865234375 162.3711395263672 316.5647277832031 201.08279418945312 309.3997802734375 C 273.9139404296875 364.39703369140625 378.5575256347656 324.5014343261719 352.91162109375 366.83892822265625" stroke-width="0.0" fill="rgb(254, 249, 255)" opacity="0.9965684" stroke="rgb(0, 0, 0)" stroke-opacity="1.0" stroke-linecap="round" stroke-linejoin="round"/>
    <path d="M 433.7823486328125 66.42254638671875 C 520.324462890625 59.817115783691406 483.6044006347656 11.860613822937012 473.73577880859375 57.09157180786133 C 469.0422668457031 43.386749267578125 468.4594421386719 54.00830841064453 437.8062438964844 83.6203384399414 C 462.19183349609375 -10.116706848144531 443.6803283691406 -51.57801055908203 455.9500732421875 -52.76879119873047 C 450.2098083496094 4.031871795654297 443.178466796875 22.378671646118164 433.7823486328125 66.42254638671875" stroke-width="0.0" fill="rgb(19, 48, 64)" opacity="0.22401607" stroke="rgb(0, 0, 0)" stroke-opacity="1.0" stroke-linecap="round" stroke-linejoin="round"/>
    <path d="M 456.404541015625 53.94874572753906 C 262.5783996582031 134.0969696044922 417.76666259765625 92.87274169921875 386.2507629394531 173.19895935058594 C 287.3020935058594 60.706398010253906 329.921630859375 166.63211059570312 374.10040283203125 72.3434829711914 C 354.8356628417969 109.43791961669922 388.7254943847656 23.457534790039062 324.5896301269531 103.2947006225586 C 344.7591247558594 95.82295227050781 430.0287170410156 -16.42157745361328 456.404541015625 53.94874572753906" stroke-width="0.0" fill="rgb(20, 9, 37)" opacity="0.99042475" stroke="rgb(0, 0, 0)" stroke-opacity="1.0" stroke-linecap="round" stroke-linejoin="round"/>
    <path d="M 451.8297119140625 433.0513000488281 C 424.43768310546875 426.7001953125 478.8832702636719 502.1404724121094 384.75518798828125 537.5776977539062 C 370.8455810546875 380.1126708984375 453.60400390625 457.7685852050781 397.6787109375 355.1038513183594 C 544.84814453125 454.18206787109375 334.4930419921875 371.78594970703125 404.8095397949219 334.0298767089844 C 491.7095642089844 373.7528381347656 494.72845458984375 388.71905517578125 451.8297119140625 433.0513000488281" stroke-width="0.0" fill="rgb(230, 176, 136)" opacity="0.70629984" stroke="rgb(0, 0, 0)" stroke-opacity="1.0" stroke-linecap="round" stroke-linejoin="round"/>
    <path d="M 482.03021240234375 18.03400421142578 C 459.15679931640625 -31.510242462158203 469.7738952636719 9.69381332397461 427.4017639160156 149.30404663085938 C 415.0733947753906 56.87609100341797 435.2833557128906 163.0961151123047 446.9584655761719 51.93727493286133 C 438.8670349121094 63.567378997802734 442.7005615234375 75.98365783691406 438.32025146484375 76.13215637207031 C 451.267578125 23.185497283935547 440.2505798339844 1.7731853723526 482.03021240234375 18.03400421142578" stroke-width="0.0" fill="rgb(53, 58, 87)" opacity="0.52807605" stroke="rgb(0, 0, 0)" stroke-opacity="1.0" stroke-linecap="round" stroke-linejoin="round"/>
    <path d="M 442.045654296875 438.0044250488281 C 491.8670959472656 446.98748779296875 420.19122314453125 493.13262939453125 319.6867980957031 490.5555114746094 C 228.78787231445312 475.328369140625 135.28182983398438 423.4317626953125 150.1112060546875 410.43414306640625 C 223.4822998046875 458.3296203613281 260.1112060546875 425.9187316894531 240.02294921875 446.0215148925781 C 227.2942352294922 443.5488586425781 340.5400390625 461.1642150878906 442.045654296875 438.0044250488281" stroke-width="0.0" fill="rgb(50, 34, 25)" opacity="0.2595785" stroke="rgb(0, 0, 0)" stroke-opacity="1.0" stroke-linecap="round" stroke-linejoin="round"/>
    <path d="M 221.9113311767578 298.80255126953125 C 298.6791076660156 289.33367919921875 337.1803283691406 306.1109313964844 263.15240478515625 308.40716552734375 C 237.54945373535156 276.0779724121094 260.80487060546875 280.39813232421875 234.1426544189453 212.06033325195312 C 187.0352325439453 252.6136474609375 169.81869506835938 259.6489562988281 159.89801025390625 267.23504638671875 C 137.3933868408203 368.9252014160156 135.13047790527344 290.61480712890625 221.9113311767578 298.80255126953125" stroke-width="0.0" fill="rgb(251, 203, 130)" opacity="0.9987824" stroke="rgb(0, 0, 0)" stroke-opacity="1.0" stroke-linecap="round" stroke-linejoin="round"/>
    <path d="M 542.333984375 398.61273193359375 C 477.7762145996094 555.6392211914062 408.14422607421875 495.3392028808594 437.8591003417969 413.03118896484375 C 461.64080810546875 402.7538757324219 468.4989318847656 419.42974853515625 439.48492431640625 421.4342346191406 C 452.9451904296875 381.5176696777344 435.51068115234375 384.2310791015625 461.00213623046875 388.70281982421875 C 562.505615234375 408.0397644042969 488.9720458984375 388.6289978027344 542.333984375 398.61273193359375" stroke-width="0.0" fill="rgb(217, 173, 170)" opacity="0.5705138" stroke="rgb(0, 0, 0)" stroke-opacity="1.0" stroke-linecap="round" stroke-linejoin="round"/>
    <path d="M 319.1500244140625 403.16033935546875 C 262.9631042480469 371.3789367675781 220.2429962158203 380.36077880859375 269.138916015625 366.0186462402344 C 299.2294921875 386.8799133300781 265.62701416015625 374.86724853515625 229.14137268066406 390.5065002441406 C 185.50668334960938 414.6550598144531 218.37506103515625 394.3655700683594 296.9093933105469 313.84649658203125 C 278.8161315917969 401.77264404296875 369.0764465332031 416.2745361328125 319.1500244140625 403.16033935546875" stroke-width="0.0" fill="rgb(18, 8, 63)" opacity="0.9636937" stroke="rgb(0, 0, 0)" stroke-opacity="1.0" stroke-linecap="round" stroke-linejoin="round"/>
    <path d="M 64.02674102783203 41.10057067871094 C 37.62574768066406 28.934558868408203 46.14838409423828 125.09517669677734 106.45691680908203 170.4482879638672 C 88.40896606445312 277.0979309082031 41.856109619140625 24.45821762084961 40.91310119628906 73.63349151611328 C 14.767603874206543 5.290308952331543 -17.480144500732422 -32.83156967163086 108.25828552246094 17.659814834594727 C 151.6361083984375 105.56771850585938 74.51665496826172 23.74955940246582 64.02674102783203 41.10057067871094" stroke-width="0.0" fill="rgb(235, 207, 160)" opacity="1.0" stroke="rgb(0, 0, 0)" stroke-opacity="1.0" stroke-linecap="round" stroke-linejoin="round"/>
    <path d="M 209.0934600830078 51.37812042236328 C 190.90628051757812 39.189208984375 185.39585876464844 38.81180953979492 184.7159423828125 87.41813659667969 C 126.51103210449219 62.97036361694336 119.98526000976562 44.714561462402344 81.72596740722656 13.895121574401855 C 74.28021240234375 -44.36798095703125 61.8917121887207 -66.28580474853516 145.9644012451172 -27.490825653076172 C 191.8954315185547 -8.984658241271973 205.37094116210938 -5.347652435302734 209.0934600830078 51.37812042236328" stroke-width="0.0" fill="rgb(245, 229, 226)" opacity="1.0" stroke="rgb(0, 0, 0)" stroke-opacity="1.0" stroke-linecap="round" stroke-linejoin="round"/>
    <path d="M 151.9174041748047 308.3853759765625 C 141.7703857421875 352.68389892578125 134.0520477294922 358.2672119140625 91.54557037353516 366.3483581542969 C 66.2669906616211 337.6795654296875 61.285888671875 355.4821472167969 40.14351272583008 322.2829895019531 C 17.125795364379883 277.33905029296875 22.9742488861084 246.5809326171875 102.42593383789062 230.4096221923828 C 108.78845977783203 296.83416748046875 119.59442901611328 292.1268005371094 151.9174041748047 308.3853759765625" stroke-width="0.0" fill="rgb(111, 82, 59)" opacity="0.7711553" stroke="rgb(0, 0, 0)" stroke-opacity="1.0" stroke-linecap="round" stroke-linejoin="round"/>
    <path d="M 84.98250579833984 261.06927490234375 C 102.2470474243164 299.1410217285156 87.6672134399414 262.26580810546875 98.36572265625 214.7658233642578 C 42.68220138549805 198.45632934570312 82.90172576904297 271.9635925292969 47.6528205871582 297.0151672363281 C 40.401580810546875 179.8678436279297 95.45013427734375 114.35095977783203 84.40805053710938 215.18243408203125 C 130.2024688720703 203.7527618408203 87.84244537353516 214.903076171875 84.98250579833984 261.06927490234375" stroke-width="0.0" fill="rgb(255, 198, 120)" opacity="1.0" stroke="rgb(0, 0, 0)" stroke-opacity="1.0" stroke-linecap="round" stroke-linejoin="round"/>
    <path d="M 289.2629699707031 141.2527618408203 C 248.64630126953125 166.9656524658203 286.16595458984375 224.71485900878906 222.54847717285156 233.32737731933594 C 183.43177795410156 181.65321350097656 166.17919921875 166.488525390625 189.76817321777344 118.74356842041016 C 141.6035919189453 53.07472229003906 177.45523071289062 63.868011474609375 219.68882751464844 107.13807678222656 C 248.25146484375 122.78351593017578 335.28076171875 123.07461547851562 289.2629699707031 141.2527618408203" stroke-width="0.0" fill="rgb(180, 51, 0)" opacity="1.0" stroke="rgb(0, 0, 0)" stroke-opacity="1.0" stroke-linecap="round" stroke-linejoin="round"/>
    <path d="M 306.3076477050781 365.02294921875 C 309.6059265136719 341.1870422363281 333.0418701171875 361.701904296875 294.1391906738281 389.1260070800781 C 270.0929870605469 339.3634948730469 263.17626953125 342.22283935546875 237.92974853515625 314.51910400390625 C 254.0843505859375 312.0487365722656 281.1270446777344 269.1485595703125 314.5296630859375 314.0002746582031 C 345.27777099609375 344.86126708984375 306.4825134277344 373.1149597167969 306.3076477050781 365.02294921875" stroke-width="0.0" fill="rgb(219, 231, 255)" opacity="0.45942867" stroke="rgb(0, 0, 0)" stroke-opacity="1.0" stroke-linecap="round" stroke-linejoin="round"/>
    <path d="M 36.06637954711914 472.1017150878906 C 14.930768013000488 432.4932556152344 132.70848083496094 387.44757080078125 64.72692108154297 380.80218505859375 C 1.7125840187072754 447.5845642089844 7.80521297454834 398.9765930175781 93.69453430175781 349.4782409667969 C -31.067237854003906 368.0477600097656 6.889684677124023 365.1653137207031 96.60564422607422 371.0858459472656 C 102.78202819824219 408.7132568359375 108.99028015136719 391.06329345703125 36.06637954711914 472.1017150878906" stroke-width="0.0" fill="rgb(60, 35, 12)" opacity="0.6010713" stroke="rgb(0, 0, 0)" stroke-opacity="1.0" stroke-linecap="round" stroke-linejoin="round"/>
    <path d="M 334.1728210449219 438.9625244140625 C 324.2579345703125 427.2499084472656 330.7008972167969 425.79510498046875 313.88092041015625 394.24151611328125 C 329.62646484375 414.8764343261719 311.26397705078125 403.0347595214844 330.4041442871094 399.99200439453125 C 346.22735595703125 394.3530578613281 296.9186096191406 372.24237060546875 352.5401306152344 377.9202575683594 C 369.8292236328125 407.19927978515625 365.94427490234375 409.24481201171875 334.1728210449219 438.9625244140625" stroke-width="0.0" fill="rgb(61, 34, 68)" opacity="1.0" stroke="rgb(0, 0, 0)" stroke-opacity="1.0" stroke-linecap="round" stroke-linejoin="round"/>
    <path d="M 441.94342041015625 69.37909698486328 C 436.2631530761719 58.117164611816406 471.61248779296875 22.851909637451172 437.1086730957031 116.64671325683594 C 436.9742126464844 155.00283813476562 412.2878112792969 92.92060089111328 362.4172668457031 113.77381134033203 C 401.171630859375 113.18276977539062 425.31396484375 111.60308074951172 392.1132507324219 107.30675506591797 C 385.9661560058594 109.44950866699219 445.23046875 100.81543731689453 441.94342041015625 69.37909698486328" stroke-width="0.0" fill="rgb(142, 137, 202)" opacity="0.6621357" stroke="rgb(0, 0, 0)" stroke-opacity="1.0" stroke-linecap="round" stroke-linejoin="round"/>
    <path d="M 180.3208465576172 100.58848571777344 C 191.89535522460938 87.64083099365234 190.47776794433594 114.71343231201172 185.5179443359375 113.52408599853516 C 169.97462463378906 110.91952514648438 159.30068969726562 100.78083038330078 143.3372344970703 61.948280334472656 C 133.6053466796875 21.48775291442871 152.58689880371094 57.46320343017578 157.9867401123047 86.4356460571289 C 152.22491455078125 93.15634155273438 205.6560821533203 96.4074935913086 180.3208465576172 100.58848571777344" stroke-width="0.0" fill="rgb(217, 105, 0)" opacity="0.8460905" stroke="rgb(0, 0, 0)" stroke-opacity="1.0" stroke-linecap="round" stroke-linejoin="round"/>
    <path d="M 536.9404296875 458.1600036621094 C 554.9682006835938 476.1405029296875 560.726806640625 463.0633544921875 518.7833251953125 452.07110595703125 C 504.9676513671875 468.4790954589844 500.1620178222656 440.1911315917969 496.7950744628906 435.90887451171875 C 489.33905029296875 423.81982421875 515.2588500976562 425.7693176269531 546.6957397460938 427.3797302246094 C 524.2904663085938 425.6336975097656 529.3707275390625 430.8746337890625 536.9404296875 458.1600036621094" stroke-width="0.0" fill="rgb(253, 155, 92)" opacity="0.4382957" stroke="rgb(0, 0, 0)" stroke-opacity="1.0" stroke-linecap="round" stroke-linejoin="round"/>
    <path d="M 359.5594177246094 258.6880798339844 C 368.643310546875 246.98570251464844 358.9281921386719 272.4410400390625 347.18255615234375 261.7196350097656 C 348.8193359375 193.1904296875 296.63031005859375 217.6378173828125 323.6030578613281 238.60397338867188 C 382.9060363769531 243.9472198486328 363.18328857421875 225.52439880371094 318.3848876953125 242.0754852294922 C 383.9364013671875 247.32919311523438 398.92999267578125 261.4444580078125 359.5594177246094 258.6880798339844" stroke-width="0.0" fill="rgb(163, 138, 153)" opacity="0.64214957" stroke="rgb(0, 0, 0)" stroke-opacity="1.0" stroke-linecap="round" stroke-linejoin="round"/>
    <path d="M 479.26251220703125 436.2429504394531 C 471.50830078125 417.7412414550781 479.7750549316406 447.5018005371094 450.027099609375 496.3990783691406 C 413.38519287109375 453.9554138183594 417.5087890625 438.5333251953125 413.70452880859375 395.34130859375 C 410.4604187011719 365.4607238769531 431.8341979980469 348.90850830078125 437.45361328125 359.2615051269531 C 466.6661376953125 396.9056701660156 493.42132568359375 410.0450744628906 479.26251220703125 436.2429504394531" stroke-width="0.0" fill="rgb(228, 204, 173)" opacity="0.6408056" stroke="rgb(0, 0, 0)" stroke-opacity="1.0" stroke-linecap="round" stroke-linejoin="round"/>
    <path d="M 160.37850952148438 420.3812255859375 C 191.88345336914062 413.42645263671875 172.7737579345703 424.5816345214844 180.46170043945312 429.7244873046875 C 149.45858764648438 448.9757385253906 142.09866333007812 470.398193359375 153.7955322265625 445.2000427246094 C 148.5892333984375 406.7303466796875 170.4199981689453 401.29425048828125 176.29090881347656 390.0892028808594 C 147.9471893310547 408.685546875 153.58023071289062 407.5753173828125 160.37850952148438 420.3812255859375" stroke-width="0.0" fill="rgb(200, 225, 231)" opacity="0.8454862" stroke="rgb(0, 0, 0)" stroke-opacity="1.0" stroke-linecap="round" stroke-linejoin="round"/>
    <path d="M 406.78973388671875 394.51226806640625 C 403.28704833984375 404.1212463378906 419.77410888671875 411.6981201171875 429.6243896484375 420.8806457519531 C 407.17242431640625 397.52239990234375 415.0555419921875 366.4173889160156 392.0285339355469 357.8618469238281 C 386.94866943359375 309.00726318359375 385.2764892578125 299.32220458984375 408.9379577636719 347.7473449707031 C 424.1224365234375 376.84722900390625 424.2294616699219 356.905029296875 406.78973388671875 394.51226806640625" stroke-width="0.0" fill="rgb(125, 99, 229)" opacity="0.72826034" stroke="rgb(0, 0, 0)" stroke-opacity="1.0" stroke-linecap="round" stroke-linejoin="round"/>
    <path d="M 115.72089385986328 100.0689926147461 C 155.65533447265625 115.18672943115234 156.01219177246094 129.60662841796875 152.90475463867188 135.9965362548828 C 144.7753143310547 97.53060913085938 128.06166076660156 61.530426025390625 86.80065155029297 78.31914520263672 C 75.27371215820312 46.6712760925293 84.08782958984375 48.147804260253906 82.0633544921875 80.58655548095703 C 101.02677154541016 87.99617004394531 117.0342025756836 85.50432586669922 115.72089385986328 100.0689926147461" stroke-width="0.0" fill="rgb(126, 72, 67)" opacity="0.7425051" stroke="rgb(0, 0, 0)" stroke-opacity="1.0" stroke-linecap="round" stroke-linejoin="round"/>
    <path d="M 383.0999755859375 436.0765075683594 C 344.4276428222656 398.6700439453125 363.64031982421875 424.47259521484375 295.099365234375 459.25665283203125 C 317.3626403808594 419.2040710449219 349.4659729003906 397.8403625488281 372.3213806152344 366.83404541015625 C 318.3813171386719 342.93890380859375 287.83660888671875 355.4932556152344 320.3110656738281 364.4854431152344 C 351.9834289550781 371.2187194824219 380.91748046875 383.55523681640625 383.0999755859375 436.0765075683594" stroke-width="0.0" fill="rgb(36, 32, 41)" opacity="0.7377187" stroke="rgb(0, 0, 0)" stroke-opacity="1.0" stroke-linecap="round" stroke-linejoin="round"/>
    <path d="M 137.9200439453125 352.296875 C 121.460693359375 369.264892578125 104.19638061523438 378.17462158203125 81.21548461914062 396.0596618652344 C 77.82127380371094 399.3255310058594 56.919288635253906 383.2442321777344 63.80189514160156 353.50372314453125 C 58.57032775878906 338.8831787109375 70.55915832519531 340.04913330078125 111.85474395751953 341.82916259765625 C 121.89971160888672 337.56170654296875 133.12435913085938 371.8976135253906 137.9200439453125 352.296875" stroke-width="0.0" fill="rgb(71, 39, 65)" opacity="0.8825979" stroke="rgb(0, 0, 0)" stroke-opacity="1.0" stroke-linecap="round" stroke-linejoin="round"/>
    <path d="M 312.1375732421875 92.70066833496094 C 301.8043518066406 209.12368774414062 310.4527587890625 219.02957153320312 275.4085998535156 183.18589782714844 C 244.90733337402344 173.87484741210938 261.9154052734375 126.02550506591797 264.2828369140625 109.0610122680664 C 254.6321258544922 139.4720001220703 219.27552795410156 161.9422149658203 203.41903686523438 67.82744598388672 C 178.53684997558594 43.88057327270508 310.7281799316406 48.5345458984375 312.1375732421875 92.70066833496094" stroke-width="0.0" fill="rgb(92, 15, 11)" opacity="0.82017255" stroke="rgb(0, 0, 0)" stroke-opacity="1.0" stroke-linecap="round" stroke-linejoin="round"/>
    <path d="M 452.42431640625 80.04107666015625 C 430.1416015625 112.8205337524414 417.4287414550781 133.3605194091797 433.0050964355469 93.40461730957031 C 433.6871643066406 66.35488891601562 424.1117248535156 68.42655181884766 417.77587890625 65.04695892333984 C 419.59759521484375 62.51076126098633 419.0173034667969 56.14799499511719 442.73675537109375 52.507904052734375 C 449.7872619628906 45.031822204589844 462.27874755859375 95.98546600341797 452.42431640625 80.04107666015625" stroke-width="0.0" fill="rgb(204, 153, 235)" opacity="0.82820916" stroke="rgb(0, 0, 0)" stroke-opacity="1.0" stroke-linecap="round" stroke-linejoin="round"/>
    <path d="M 115.64323425292969 142.03091430664062 C 123.52690124511719 152.14739990234375 114.3365707397461 183.84373474121094 93.83027648925781 179.79180908203125 C 80.87930297851562 138.34390258789062 109.09016418457031 158.118408203125 122.35769653320312 116.69705200195312 C 91.30768585205078 91.8249282836914 72.65108489990234 92.20592498779297 66.05006408691406 90.6170654296875 C 140.2589111328125 113.11671447753906 160.06527709960938 122.95745849609375 115.64323425292969 142.03091430664062" stroke-width="0.0" fill="rgb(251, 110, 51)" opacity="0.577096" stroke="rgb(0, 0, 0)" stroke-opacity="1.0" stroke-linecap="round" stroke-linejoin="round"/>
    <path d="M 526.4730834960938 472.0145263671875 C 520.4595336914062 517.4486083984375 511.7738037109375 524.1069946289062 482.21868896484375 561.29931640625 C 459.81439208984375 538.1294555664062 441.87762451171875 513.8472290039062 452.2503967285156 493.8022155761719 C 458.1323547363281 486.5132141113281 475.03912353515625 480.1249694824219 502.5141296386719 449.9187316894531 C 537.4796752929688 444.3289489746094 537.60205078125 445.35711669921875 526.4730834960938 472.0145263671875" stroke-width="0.0" fill="rgb(224, 167, 28)" opacity="0.3749973" stroke="rgb(0, 0, 0)" stroke-opacity="1.0" stroke-linecap="round" stroke-linejoin="round"/>
    <path d="M 280.9278564453125 320.8422546386719 C 265.2187194824219 312.12744140625 265.62371826171875 305.6016540527344 255.4413604736328 321.3595886230469 C 252.44581604003906 305.4481201171875 215.23822021484375 303.0850524902344 223.9060516357422 316.84869384765625 C 265.99871826171875 317.90643310546875 271.97589111328125 304.4404602050781 290.6700134277344 319.2769470214844 C 278.7031555175781 315.111083984375 255.22268676757812 322.7769470214844 280.9278564453125 320.8422546386719" stroke-width="0.0" fill="rgb(163, 24, 169)" opacity="0.9406927" stroke="rgb(0, 0, 0)" stroke-opacity="1.0" stroke-linecap="round" stroke-linejoin="round"/>
    <path d="M 426.67156982421875 138.69677734375 C 442.6562805175781 138.42063903808594 441.53118896484375 170.30921936035156 412.85308837890625 193.84901428222656 C 404.3940734863281 185.34176635742188 404.23583984375 159.75067138671875 394.0877380371094 173.0766143798828 C 409.99322509765625 190.4591522216797 425.4949035644531 177.49734497070312 455.84356689453125 157.28724670410156 C 440.1564636230469 139.56517028808594 377.0634460449219 134.5637664794922 426.67156982421875 138.69677734375" stroke-width="0.0" fill="rgb(125, 98, 143)" opacity="1.0" stroke="rgb(0, 0, 0)" stroke-opacity="1.0" stroke-linecap="round" stroke-linejoin="round"/>
    <path d="M 450.7643127441406 510.7977600097656 C 466.7763366699219 534.17724609375 474.69354248046875 532.8175048828125 415.2097473144531 517.1776123046875 C 416.18316650390625 507.2426452636719 440.662109375 492.16986083984375 429.0126953125 486.34942626953125 C 427.59521484375 475.3241882324219 423.7169494628906 477.9920654296875 438.2129821777344 454.99786376953125 C 456.1324462890625 451.2691345214844 444.2660827636719 490.21343994140625 450.7643127441406 510.7977600097656" stroke-width="0.0" fill="rgb(233, 110, 56)" opacity="0.45008847" stroke="rgb(0, 0, 0)" stroke-opacity="1.0" stroke-linecap="round" stroke-linejoin="round"/>
    <path d="M 462.6209716796875 -13.758455276489258 C 464.9333801269531 13.010842323303223 467.81256103515625 12.779834747314453 463.1453857421875 19.434341430664062 C 482.5613098144531 11.192136764526367 445.8841857910156 15.99189281463623 455.4339294433594 26.438644409179688 C 474.7599792480469 14.077716827392578 463.83355712890625 -3.825472354888916 448.5382385253906 -27.934337615966797 C 445.21954345703125 -41.981346130371094 465.8711853027344 -26.002944946289062 462.6209716796875 -13.758455276489258" stroke-width="0.0" fill="rgb(45, 117, 112)" opacity="0.35999542" stroke="rgb(0, 0, 0)" stroke-opacity="1.0" stroke-linecap="round" stroke-linejoin="round"/>
    <path d="M 161.54005432128906 249.88723754882812 C 181.15988159179688 253.3042755126953 182.0753631591797 259.83837890625 171.65817260742188 268.8143005371094 C 137.31069946289062 258.4789123535156 105.42029571533203 249.02957153320312 124.9505386352539 190.9002685546875 C 191.1592559814453 235.73153686523438 198.943603515625 224.0279541015625 177.66368103027344 246.50448608398438 C 175.67507934570312 265.7969970703125 189.6548614501953 280.6055603027344 161.54005432128906 249.88723754882812" stroke-width="0.0" fill="rgb(254, 179, 106)" opacity="0.9784554" stroke="rgb(0, 0, 0)" stroke-opacity="1.0" stroke-linecap="round" stroke-linejoin="round"/>
    <path d="M 154.28367614746094 397.815673828125 C 157.03321838378906 393.1357116699219 187.49465942382812 433.5981750488281 203.66864013671875 445.3832092285156 C 194.9869384765625 441.47113037109375 165.03306579589844 439.9877624511719 123.5368423461914 430.4310607910156 C 147.36334228515625 406.7633056640625 167.7085418701172 409.6842041015625 156.75433349609375 407.0623474121094 C 174.74525451660156 393.718994140625 186.16925048828125 386.7348937988281 154.28367614746094 397.815673828125" stroke-width="0.0" fill="rgb(201, 238, 215)" opacity="0.23551975" stroke="rgb(0, 0, 0)" stroke-opacity="1.0" stroke-linecap="round" stroke-linejoin="round"/>
    <path d="M 197.56683349609375 257.84356689453125 C 213.80850219726562 232.9171905517578 201.58160400390625 247.73110961914062 202.7766571044922 272.81805419921875 C 198.86134338378906 243.7201385498047 167.83154296875 222.92431640625 160.22836303710938 226.8810272216797 C 181.698974609375 236.5713348388672 165.80010986328125 250.2195281982422 181.9812469482422 250.6240234375 C 204.1724395751953 250.22219848632812 200.73776245117188 260.8053283691406 197.56683349609375 257.84356689453125" stroke-width="0.0" fill="rgb(224, 70, 0)" opacity="0.4079323" stroke="rgb(0, 0, 0)" stroke-opacity="1.0" stroke-linecap="round" stroke-linejoin="round"/>
    <path d="M 231.60211181640625 341.4374694824219 C 204.37002563476562 360.5298767089844 175.8757781982422 340.36822509765625 170.55677795410156 351.2410888671875 C 169.40078735351562 367.645263671875 172.88833618164062 374.9731750488281 177.43629455566406 379.19049072265625 C 139.33482360839844 345.30023193359375 183.41383361816406 377.35247802734375 189.1579132080078 363.0869140625 C 142.39385986328125 338.9627685546875 152.1744384765625 318.1575927734375 231.60211181640625 341.4374694824219" stroke-width="0.0" fill="rgb(19, 0, 49)" opacity="0.93795294" stroke="rgb(0, 0, 0)" stroke-opacity="1.0" stroke-linecap="round" stroke-linejoin="round"/>
    <path d="M 78.27827453613281 452.2010803222656 C 85.24598693847656 451.1476135253906 71.25260925292969 462.0523681640625 47.31519317626953 467.3798522949219 C 69.2313232421875 455.3841552734375 61.73670196533203 459.0848693847656 60.933841705322266 461.95489501953125 C 59.26313400268555 456.64892578125 78.17732238769531 449.5817565917969 81.125 432.8010559082031 C 75.0473861694336 434.9752502441406 80.71015167236328 438.5966796875 78.27827453613281 452.2010803222656" stroke-width="0.0" fill="rgb(246, 255, 251)" opacity="0.00044773688" stroke="rgb(0, 0, 0)" stroke-opacity="1.0" stroke-linecap="round" stroke-linejoin="round"/>
    <path d="M 473.8927307128906 433.1610107421875 C 460.4464416503906 461.2472229003906 457.1369934082031 478.30487060546875 459.74798583984375 471.16644287109375 C 450.6744689941406 459.5218811035156 434.0776062011719 458.9989318847656 429.6739807128906 457.7539978027344 C 434.8341979980469 448.7637634277344 442.2723693847656 433.5604553222656 460.44927978515625 451.0359191894531 C 455.74481201171875 424.7938537597656 475.0748291015625 428.4081115722656 473.8927307128906 433.1610107421875" stroke-width="0.0" fill="rgb(255, 205, 140)" opacity="0.03705816" stroke="rgb(0, 0, 0)" stroke-opacity="1.0" stroke-linecap="round" stroke-linejoin="round"/>
    <path d="M 435.31304931640625 390.8411560058594 C 467.32025146484375 377.705322265625 465.4955139160156 389.2468566894531 448.7811584472656 378.55487060546875 C 419.762451171875 389.30072021484375 413.13812255859375 383.08056640625 409.791259765625 374.7548522949219 C 429.70745849609375 364.5125732421875 439.31683349609375 357.091064453125 450.3155822753906 353.55023193359375 C 460.1412048339844 356.93817138671875 444.8875427246094 375.9967346191406 435.31304931640625 390.8411560058594" stroke-width="0.0" fill="rgb(121, 161, 38)" opacity="0.21303461" stroke="rgb(0, 0, 0)" stroke-opacity="1.0" stroke-linecap="round" stroke-linejoin="round"/>
    <path d="M 27.80843734741211 99.01461029052734 C 39.829307556152344 128.4726104736328 32.30029296875 141.83029174804688 27.870336532592773 154.90048217773438 C 19.885831832885742 121.92446899414062 21.44280242919922 99.1791763305664 1.937638282775879 101.70793151855469 C -10.989749908447266 82.21550750732422 -6.679629802703857 73.41848754882812 37.49894714355469 85.33407592773438 C 23.732389450073242 79.15982055664062 21.267715454101562 90.53926849365234 27.80843734741211 99.01461029052734" stroke-width="0.0" fill="rgb(239, 253, 252)" opacity="0.008558471" stroke="rgb(0, 0, 0)" stroke-opacity="1.0" stroke-linecap="round" stroke-linejoin="round"/>
    <path d="M 65.16827392578125 493.2516174316406 C 75.87886810302734 527.4217529296875 88.2461166381836 512.4393310546875 17.71005630493164 519.8365478515625 C -25.867450714111328 520.933837890625 -20.301490783691406 484.94317626953125 30.7667236328125 478.0071105957031 C 15.93810749053955 464.8155822753906 10.12385368347168 454.8789367675781 -0.4349476099014282 425.0477600097656 C 47.4429817199707 435.7015380859375 58.75593566894531 454.3009338378906 65.16827392578125 493.2516174316406" stroke-width="0.0" fill="rgb(135, 198, 231)" opacity="0.11623323" stroke="rgb(0, 0, 0)" stroke-opacity="1.0" stroke-linecap="round" stroke-linejoin="round"/>
    <path d="M 114.71807861328125 227.16336059570312 C 96.34364318847656 247.2702178955078 96.95570373535156 272.68450927734375 153.01751708984375 277.9361877441406 C 131.15228271484375 273.1479187011719 102.29744720458984 265.6919860839844 101.64865112304688 223.17782592773438 C 139.65216064453125 229.4790802001953 116.12545776367188 240.53973388671875 138.65679931640625 217.77581787109375 C 137.14834594726562 247.23233032226562 150.2678680419922 236.76702880859375 114.71807861328125 227.16336059570312" stroke-width="0.0" fill="rgb(216, 215, 218)" opacity="0.73086005" stroke="rgb(0, 0, 0)" stroke-opacity="1.0" stroke-linecap="round" stroke-linejoin="round"/>
    <path d="M 332.9129333496094 48.348812103271484 C 342.5714111328125 61.44951248168945 323.4453430175781 91.1618881225586 266.2056884765625 82.29537963867188 C 258.2046203613281 57.62160110473633 258.5617980957031 16.303112030029297 230.27951049804688 24.27335548400879 C 238.23255920410156 52.332313537597656 219.2543182373047 25.778369903564453 225.03591918945312 -19.815265655517578 C 309.18072509765625 -28.006357192993164 307.0065002441406 -8.999067306518555 332.9129333496094 48.348812103271484" stroke-width="0.0" fill="rgb(153, 204, 251)" opacity="0.11123158" stroke="rgb(0, 0, 0)" stroke-opacity="1.0" stroke-linecap="round" stroke-linejoin="round"/>
    <path d="M 148.25514221191406 130.8874969482422 C 121.99637603759766 165.4196319580078 120.16555786132812 202.5809783935547 110.1257553100586 220.8979034423828 C 108.60599517822266 158.5211181640625 126.30892181396484 144.25096130371094 134.90472412109375 174.0159912109375 C 146.51239013671875 204.63169860839844 121.43314361572266 208.42994689941406 132.94261169433594 171.53070068359375 C 132.54495239257812 148.5441436767578 155.15013122558594 147.25379943847656 148.25514221191406 130.8874969482422" stroke-width="0.0" fill="rgb(222, 100, 2)" opacity="0.35361862" stroke="rgb(0, 0, 0)" stroke-opacity="1.0" stroke-linecap="round" stroke-linejoin="round"/>
    <path d="M 491.8077697753906 233.69296264648438 C 479.7705383300781 267.78680419921875 445.4691162109375 245.98069763183594 440.1959533691406 248.9137725830078 C 455.3117980957031 264.15203857421875 445.533935546875 271.06488037109375 455.26690673828125 268.3992004394531 C 456.97857666015625 236.0919647216797 475.8499755859375 256.0918273925781 499.4594421386719 266.716064453125 C 434.37164306640625 177.80960083007812 442.4852600097656 158.9712677001953 491.8077697753906 233.69296264648438" stroke-width="0.0" fill="rgb(52, 18, 21)" opacity="0.9143083" stroke="rgb(0, 0, 0)" stroke-opacity="1.0" stroke-linecap="round" stroke-linejoin="round"/>
    <path d="M 346.7508239746094 368.03607177734375 C 356.4505920410156 394.9765319824219 354.96099853515625 387.84033203125 350.4595031738281 393.47784423828125 C 352.8455810546875 390.48291015625 339.89569091796875 370.3019104003906 334.277099609375 355.1295471191406 C 329.2550964355469 362.5947265625 366.94976806640625 373.90289306640625 363.73004150390625 373.3604736328125 C 340.5625 370.05523681640625 388.2267150878906 360.4623718261719 346.7508239746094 368.03607177734375" stroke-width="0.0" fill="rgb(83, 49, 63)" opacity="0.10969447" stroke="rgb(0, 0, 0)" stroke-opacity="1.0" stroke-linecap="round" stroke-linejoin="round"/>
    <path d="M 353.8829345703125 198.0316162109375 C 378.91754150390625 206.6251220703125 350.8589172363281 195.44223022460938 315.62420654296875 223.3294677734375 C 313.789794921875 202.5574188232422 313.57952880859375 211.666259765625 347.7956237792969 223.64881896972656 C 351.28875732421875 187.1019744873047 325.2572021484375 208.3391571044922 328.6101379394531 200.00978088378906 C 362.76275634765625 199.0497283935547 379.3330078125 201.47520446777344 353.8829345703125 198.0316162109375" stroke-width="0.0" fill="rgb(110, 125, 178)" opacity="0.786889" stroke="rgb(0, 0, 0)" stroke-opacity="1.0" stroke-linecap="round" stroke-linejoin="round"/>
    <path d="M 108.67295837402344 420.0955505371094 C 101.39481353759766 427.0725402832031 85.937255859375 446.4944763183594 78.46659088134766 479.1122741699219 C 94.47151184082031 451.8554992675781 93.75652313232422 430.2204284667969 110.28763580322266 453.9482727050781 C 94.62501525878906 448.8573303222656 93.67749786376953 453.6927795410156 83.68565368652344 431.38397216796875 C 117.8250503540039 429.6434020996094 115.15364837646484 430.1577453613281 108.67295837402344 420.0955505371094" stroke-width="0.0" fill="rgb(248, 242, 201)" opacity="0.0" stroke="rgb(0, 0, 0)" stroke-opacity="1.0" stroke-linecap="round" stroke-linejoin="round"/>
    <path d="M 106.6798324584961 461.1164855957031 C 100.82259368896484 451.65423583984375 75.08863830566406 468.29425048828125 62.140296936035156 482.8716125488281 C 61.51813507080078 481.47216796875 52.03995895385742 472.39312744140625 27.535995483398438 419.8871765136719 C 26.985979080200195 417.43719482421875 34.67765808105469 423.0148010253906 77.16553497314453 401.6285400390625 C 94.7237777709961 437.05511474609375 107.62879180908203 461.2978210449219 106.6798324584961 461.1164855957031" stroke-width="0.0" fill="rgb(224, 255, 237)" opacity="0.0057550278" stroke="rgb(0, 0, 0)" stroke-opacity="1.0" stroke-linecap="round" stroke-linejoin="round"/>
  </g>
</svg>
