<?xml version="1.0" ?>
<svg xmlns="http://www.w3.org/2000/svg" version="1.1" width="512" height="512">
  <defs/>
  <g>
    <path d="M 558.4249267578125 439.78216552734375 C 548.0579833984375 517.3278198242188 548.9373779296875 525.5354614257812 364.1825256347656 545.5339965820312 C 293.2892761230469 577.4776000976562 268.38946533203125 578.7083740234375 267.5273742675781 498.4583740234375 C 328.6201477050781 335.3586730957031 381.3267822265625 337.38287353515625 492.7772216796875 300.25897216796875 C 578.6419677734375 302.18792724609375 585.0228881835938 313.57318115234375 558.4249267578125 439.78216552734375" stroke-width="0.0" fill="rgb(17, 41, 142)" opacity="0.89651215" stroke="rgb(0, 0, 0)" stroke-opacity="1.0" stroke-linecap="round" stroke-linejoin="round"/>
    <path d="M 267.5625 478.1023864746094 C 316.3074645996094 524.8978881835938 320.1517028808594 527.966796875 112.8016128540039 529.842041015625 C -65.22312927246094 531.7466430664062 -65.22306823730469 521.856689453125 -35.79689407348633 463.2068786621094 C -18.38620376586914 205.44985961914062 -18.693912506103516 199.01014709472656 -23.533897399902344 252.199462890625 C 184.8109588623047 320.9938049316406 242.28189086914062 259.9587707519531 267.5625 478.1023864746094" stroke-width="0.0" fill="rgb(6, 22, 164)" opacity="0.9675483" stroke="rgb(0, 0, 0)" stroke-opacity="1.0" stroke-linecap="round" stroke-linejoin="round"/>
    <path d="M 297.30865478515625 337.966552734375 C 217.52639770507812 465.3788146972656 205.61485290527344 509.8842468261719 192.7730255126953 381.16961669921875 C 78.34942626953125 358.037841796875 41.984344482421875 406.9808349609375 51.266807556152344 167.76641845703125 C -9.919885635375977 144.5756072998047 -9.546920776367188 134.36813354492188 110.31036376953125 121.15347290039062 C 270.1653137207031 127.17420959472656 289.82440185546875 113.79403686523438 297.30865478515625 337.966552734375" stroke-width="0.0" fill="rgb(186, 214, 190)" opacity="0.82981557" stroke="rgb(0, 0, 0)" stroke-opacity="1.0" stroke-linecap="round" stroke-linejoin="round"/>
    <path d="M 256.1983947753906 16.209026336669922 C 259.3145446777344 202.32728576660156 219.83888244628906 166.63894653320312 22.052600860595703 189.80230712890625 C -56.84010696411133 188.39706420898438 -40.37111282348633 179.4121551513672 -30.0633602142334 58.963016510009766 C -14.989005088806152 -15.722881317138672 -7.218327522277832 -19.66063117980957 80.56396484375 -34.31503677368164 C 204.07415771484375 -37.954444885253906 237.8101806640625 -54.85969161987305 256.1983947753906 16.209026336669922" stroke-width="0.0" fill="rgb(75, 22, 174)" opacity="0.9216337" stroke="rgb(0, 0, 0)" stroke-opacity="1.0" stroke-linecap="round" stroke-linejoin="round"/>
    <path d="M 544.839599609375 60.34103012084961 C 446.7649841308594 291.8267517089844 451.8592224121094 304.6186828613281 396.52392578125 336.3951416015625 C 239.65908813476562 337.6500244140625 233.7973175048828 370.3040771484375 249.01414489746094 197.90415954589844 C 228.67538452148438 76.66602325439453 199.5821990966797 10.859827995300293 320.124267578125 -51.83027648925781 C 563.2000122070312 -6.244815349578857 563.2000122070312 4.452378749847412 544.839599609375 60.34103012084961" stroke-width="0.0" fill="rgb(51, 5, 195)" opacity="0.9947605" stroke="rgb(0, 0, 0)" stroke-opacity="1.0" stroke-linecap="round" stroke-linejoin="round"/>
    <path d="M 514.6839599609375 341.77972412109375 C 489.3767395019531 438.3236389160156 506.1752014160156 512.0632934570312 298.7852783203125 540.6495971679688 C 197.9664306640625 534.4107666015625 199.9667205810547 502.1364440917969 206.31944274902344 441.97247314453125 C 242.68902587890625 217.54678344726562 296.8629455566406 211.9918975830078 279.6787414550781 250.2355194091797 C 414.22265625 279.35321044921875 459.3138427734375 279.2856140136719 514.6839599609375 341.77972412109375" stroke-width="0.0" fill="rgb(13, 38, 146)" opacity="1.0" stroke="rgb(0, 0, 0)" stroke-opacity="1.0" stroke-linecap="round" stroke-linejoin="round"/>
    <path d="M 559.6372680664062 195.54348754882812 C 561.1411743164062 318.67156982421875 561.7435913085938 316.4896240234375 499.5987854003906 318.16595458984375 C 388.55718994140625 341.79071044921875 412.8743591308594 331.4169006347656 408.51849365234375 263.2345886230469 C 415.6890563964844 101.75285339355469 376.41961669921875 88.55196380615234 481.8206481933594 75.13475036621094 C 539.2404174804688 30.387161254882812 569.4955444335938 79.2331771850586 559.6372680664062 195.54348754882812" stroke-width="0.0" fill="rgb(31, 38, 115)" opacity="1.0" stroke="rgb(0, 0, 0)" stroke-opacity="1.0" stroke-linecap="round" stroke-linejoin="round"/>
    <path d="M 221.25848388671875 266.5901794433594 C 211.94932556152344 331.5052795410156 251.71096801757812 336.28204345703125 213.88270568847656 337.0412902832031 C 224.4302520751953 289.52227783203125 235.96636962890625 302.1988525390625 187.61041259765625 245.54547119140625 C 134.72105407714844 191.21145629882812 145.79983520507812 205.69871520996094 225.1778106689453 194.58984375 C 261.8066711425781 184.6199951171875 232.3963623046875 204.0916748046875 221.25848388671875 266.5901794433594" stroke-width="0.0" fill="rgb(136, 117, 55)" opacity="0.27628008" stroke="rgb(0, 0, 0)" stroke-opacity="1.0" stroke-linecap="round" stroke-linejoin="round"/>
    <path d="M 283.6397399902344 83.33039093017578 C 275.1358337402344 110.7658462524414 260.2177734375 125.5178451538086 262.96087646484375 137.306396484375 C 245.48614501953125 111.2469711303711 224.66323852539062 117.03839111328125 197.47335815429688 85.12797546386719 C 209.29244995117188 79.63884735107422 204.56228637695312 73.32523345947266 235.06591796875 128.9163360595703 C 251.55841064453125 118.40520477294922 268.8703308105469 63.388946533203125 283.6397399902344 83.33039093017578" stroke-width="0.0" fill="rgb(201, 232, 163)" opacity="0.89074504" stroke="rgb(0, 0, 0)" stroke-opacity="1.0" stroke-linecap="round" stroke-linejoin="round"/>
    <path d="M 225.85009765625 337.4647521972656 C 187.89195251464844 484.5157470703125 234.07562255859375 474.8077087402344 196.29148864746094 466.1292419433594 C 191.1900634765625 424.0244140625 192.34677124023438 367.8153991699219 160.73898315429688 300.2674255371094 C 184.29066467285156 339.0755310058594 143.95651245117188 353.0665283203125 157.51075744628906 360.0470275878906 C 172.9333038330078 353.9061279296875 181.0642547607422 357.1938781738281 225.85009765625 337.4647521972656" stroke-width="0.0" fill="rgb(243, 223, 146)" opacity="0.97967696" stroke="rgb(0, 0, 0)" stroke-opacity="1.0" stroke-linecap="round" stroke-linejoin="round"/>
    <path d="M 246.13058471679688 207.44369506835938 C 238.60049438476562 313.17315673828125 247.71641540527344 390.06646728515625 221.2282257080078 319.0206298828125 C 113.94552612304688 353.95086669921875 208.10409545898438 333.62188720703125 182.6684112548828 285.9069519042969 C 52.53083038330078 155.46995544433594 24.97648048400879 131.88523864746094 225.102783203125 51.87310791015625 C 139.38658142089844 183.85533142089844 196.7241668701172 97.16093444824219 246.13058471679688 207.44369506835938" stroke-width="0.0" fill="rgb(191, 228, 175)" opacity="0.84175867" stroke="rgb(0, 0, 0)" stroke-opacity="1.0" stroke-linecap="round" stroke-linejoin="round"/>
    <path d="M 171.9170379638672 273.15802001953125 C 71.9028549194336 266.4535827636719 62.0367431640625 267.2310791015625 62.140350341796875 307.1152648925781 C 77.57994079589844 409.8014831542969 104.67976379394531 378.57470703125 -14.94091796875 279.31549072265625 C -57.05167007446289 97.43694305419922 -26.524320602416992 132.3466033935547 165.49151611328125 98.75163269042969 C 204.06863403320312 141.779296875 188.46116638183594 197.94435119628906 171.9170379638672 273.15802001953125" stroke-width="0.0" fill="rgb(27, 17, 210)" opacity="1.0" stroke="rgb(0, 0, 0)" stroke-opacity="1.0" stroke-linecap="round" stroke-linejoin="round"/>
    <path d="M 250.506103515625 56.1202278137207 C 229.01907348632812 108.76214599609375 240.23892211914062 130.1714324951172 220.5196533203125 147.4568328857422 C 165.45960998535156 150.482666015625 104.22117614746094 145.9394989013672 59.773780822753906 60.2945556640625 C 79.12539672851562 -44.6690673828125 80.82955169677734 -50.61606979370117 182.277587890625 -39.581851959228516 C 192.85678100585938 -7.965365409851074 175.2608642578125 35.07966232299805 250.506103515625 56.1202278137207" stroke-width="0.0" fill="rgb(65, 15, 167)" opacity="0.925708" stroke="rgb(0, 0, 0)" stroke-opacity="1.0" stroke-linecap="round" stroke-linejoin="round"/>
    <path d="M 282.6605224609375 136.99075317382812 C 319.3952941894531 181.7958984375 308.3952331542969 208.16297912597656 237.0268096923828 195.6235809326172 C 190.1394805908203 130.8176727294922 288.0621032714844 157.3441925048828 198.0755157470703 143.20712280273438 C 235.85952758789062 82.67166900634766 275.2867736816406 132.883056640625 309.5731201171875 142.39895629882812 C 294.4629211425781 179.80740356445312 231.14659118652344 122.02043914794922 282.6605224609375 136.99075317382812" stroke-width="0.0" fill="rgb(255, 219, 128)" opacity="1.0" stroke="rgb(0, 0, 0)" stroke-opacity="1.0" stroke-linecap="round" stroke-linejoin="round"/>
    <path d="M 95.58837127685547 303.68597412109375 C 67.34274291992188 357.0016174316406 118.90679168701172 360.7497863769531 123.73182678222656 368.6004638671875 C 141.152587890625 311.8684387207031 96.7060775756836 317.7897033691406 81.16947174072266 299.6675109863281 C 109.91845703125 316.21435546875 96.99658203125 308.8786926269531 88.01608276367188 332.05615234375 C 62.99769973754883 386.2709655761719 30.172836303710938 282.4396057128906 95.58837127685547 303.68597412109375" stroke-width="0.0" fill="rgb(227, 255, 87)" opacity="0.8840608" stroke="rgb(0, 0, 0)" stroke-opacity="1.0" stroke-linecap="round" stroke-linejoin="round"/>
    <path d="M 196.17393493652344 93.10667419433594 C 230.24261474609375 146.1211700439453 155.28250122070312 136.48704528808594 201.0216827392578 154.53909301757812 C 230.3624267578125 29.05923080444336 228.87399291992188 139.23794555664062 202.8950653076172 92.39752197265625 C 219.70323181152344 149.33058166503906 201.50709533691406 51.09140396118164 218.20689392089844 46.20588684082031 C 184.10586547851562 42.250091552734375 204.0142364501953 69.86770629882812 196.17393493652344 93.10667419433594" stroke-width="0.0" fill="rgb(211, 145, 140)" opacity="0.5611256" stroke="rgb(0, 0, 0)" stroke-opacity="1.0" stroke-linecap="round" stroke-linejoin="round"/>
    <path d="M 298.70379638671875 457.5262756347656 C 258.8865051269531 457.46575927734375 221.8815460205078 455.8900451660156 246.23709106445312 460.19281005859375 C 261.2190856933594 468.431884765625 254.8901824951172 489.13751220703125 211.18226623535156 479.6109924316406 C 217.33004760742188 296.3492736816406 228.91395568847656 317.3052673339844 218.74444580078125 459.4113464355469 C 302.72943115234375 444.523681640625 285.6038818359375 457.3769836425781 298.70379638671875 457.5262756347656" stroke-width="0.0" fill="rgb(150, 65, 131)" opacity="0.3785922" stroke="rgb(0, 0, 0)" stroke-opacity="1.0" stroke-linecap="round" stroke-linejoin="round"/>
    <path d="M 178.20567321777344 274.0518493652344 C 171.71075439453125 289.51123046875 142.50587463378906 304.50946044921875 152.22964477539062 307.8249816894531 C 159.90878295898438 272.5164489746094 159.72364807128906 265.4956359863281 101.48239135742188 301.8174133300781 C 157.5801544189453 309.7159118652344 137.05148315429688 317.9183654785156 136.1225128173828 266.0841064453125 C 137.310546875 272.11285400390625 132.23033142089844 276.0278625488281 178.20567321777344 274.0518493652344" stroke-width="0.0" fill="rgb(153, 232, 119)" opacity="0.3468391" stroke="rgb(0, 0, 0)" stroke-opacity="1.0" stroke-linecap="round" stroke-linejoin="round"/>
    <path d="M 204.24998474121094 46.56512451171875 C 230.2617950439453 122.69258117675781 228.4374237060547 130.89126586914062 185.21092224121094 143.7867889404297 C 200.36209106445312 169.20774841308594 201.57798767089844 174.50604248046875 205.204833984375 125.48715209960938 C 204.90322875976562 65.6860122680664 194.52635192871094 69.91166687011719 200.79632568359375 91.16793823242188 C 218.75184631347656 124.91927337646484 183.02589416503906 97.51295471191406 204.24998474121094 46.56512451171875" stroke-width="0.0" fill="rgb(246, 232, 92)" opacity="0.94920814" stroke="rgb(0, 0, 0)" stroke-opacity="1.0" stroke-linecap="round" stroke-linejoin="round"/>
    <path d="M 363.93621826171875 284.8643493652344 C 349.354736328125 293.50518798828125 363.0467224121094 291.5284729003906 331.6050109863281 281.97943115234375 C 283.4769287109375 284.3056640625 295.7815856933594 297.0982666015625 307.0843505859375 242.66156005859375 C 310.590576171875 242.0316619873047 315.8713073730469 237.27195739746094 324.0711669921875 222.0260772705078 C 351.2147216796875 239.05137634277344 376.328369140625 268.55914306640625 363.93621826171875 284.8643493652344" stroke-width="0.0" fill="rgb(103, 0, 255)" opacity="1.0" stroke="rgb(0, 0, 0)" stroke-opacity="1.0" stroke-linecap="round" stroke-linejoin="round"/>
    <path d="M 175.4855499267578 298.4378356933594 C 189.93789672851562 275.2093505859375 176.8160400390625 285.14105224609375 181.4564971923828 274.259765625 C 168.89752197265625 283.26751708984375 132.1495819091797 287.95147705078125 189.4246826171875 337.3392333984375 C 187.89393615722656 293.8302307128906 172.84043884277344 285.28228759765625 197.48866271972656 188.86724853515625 C 254.9329833984375 210.52687072753906 207.52772521972656 237.77340698242188 175.4855499267578 298.4378356933594" stroke-width="0.0" fill="rgb(206, 255, 177)" opacity="0.8277835" stroke="rgb(0, 0, 0)" stroke-opacity="1.0" stroke-linecap="round" stroke-linejoin="round"/>
    <path d="M 200.35891723632812 81.4283218383789 C 190.09951782226562 99.376220703125 207.05416870117188 148.55404663085938 177.4313201904297 181.47714233398438 C 178.88766479492188 116.19969177246094 169.05795288085938 102.98514556884766 167.2390594482422 77.49891662597656 C 158.69662475585938 81.56587982177734 187.16390991210938 31.734224319458008 165.0548095703125 41.94404220581055 C 169.73866271972656 52.89109420776367 176.57754516601562 85.38462829589844 200.35891723632812 81.4283218383789" stroke-width="0.0" fill="rgb(62, 41, 177)" opacity="0.5692251" stroke="rgb(0, 0, 0)" stroke-opacity="1.0" stroke-linecap="round" stroke-linejoin="round"/>
    <path d="M 257.75836181640625 455.900146484375 C 265.7558288574219 435.9566650390625 262.0834045410156 441.29754638671875 264.8242492675781 462.77978515625 C 238.57569885253906 477.130859375 217.4803009033203 474.3820495605469 199.8964385986328 487.30181884765625 C 204.453125 441.5068054199219 222.2921905517578 458.719482421875 238.75387573242188 440.573974609375 C 262.3495178222656 431.64337158203125 271.2662048339844 448.0802307128906 257.75836181640625 455.900146484375" stroke-width="0.0" fill="rgb(21, 37, 164)" opacity="0.9974977" stroke="rgb(0, 0, 0)" stroke-opacity="1.0" stroke-linecap="round" stroke-linejoin="round"/>
    <path d="M 362.9216003417969 251.122314453125 C 354.64105224609375 248.1019744873047 353.904296875 236.2008819580078 324.0517883300781 231.64501953125 C 287.63775634765625 278.5438537597656 282.0133361816406 262.51031494140625 282.3543701171875 213.37905883789062 C 296.1943359375 225.28761291503906 312.7774353027344 230.40687561035156 328.5623474121094 236.78408813476562 C 368.7395935058594 220.7957000732422 367.1956787109375 223.39169311523438 362.9216003417969 251.122314453125" stroke-width="0.0" fill="rgb(79, 0, 233)" opacity="0.054462317" stroke="rgb(0, 0, 0)" stroke-opacity="1.0" stroke-linecap="round" stroke-linejoin="round"/>
    <path d="M 150.39923095703125 143.55471801757812 C 161.9697265625 173.8072052001953 167.12860107421875 157.44998168945312 158.65362548828125 133.6551513671875 C 112.8187484741211 161.38821411132812 101.5195083618164 143.6517333984375 111.559814453125 133.9840850830078 C 95.84656524658203 119.45288848876953 78.0300064086914 101.02730560302734 90.75315856933594 93.16610717773438 C 141.8485870361328 103.56138610839844 155.17889404296875 127.33758544921875 150.39923095703125 143.55471801757812" stroke-width="0.0" fill="rgb(154, 86, 212)" opacity="0.5922941" stroke="rgb(0, 0, 0)" stroke-opacity="1.0" stroke-linecap="round" stroke-linejoin="round"/>
    <path d="M 116.97071075439453 340.4182434082031 C 116.19609069824219 364.06890869140625 105.11580657958984 376.1293029785156 96.25164031982422 437.8403015136719 C 75.71654510498047 431.6322937011719 77.54304504394531 397.4219665527344 85.42796325683594 342.4426574707031 C 74.8235855102539 314.0727233886719 70.19021606445312 334.2897644042969 135.41769409179688 358.76800537109375 C 128.3040771484375 315.7682189941406 131.06134033203125 339.1767272949219 116.97071075439453 340.4182434082031" stroke-width="0.0" fill="rgb(205, 207, 134)" opacity="0.8039946" stroke="rgb(0, 0, 0)" stroke-opacity="1.0" stroke-linecap="round" stroke-linejoin="round"/>
    <path d="M 117.02600860595703 437.23370361328125 C 118.85063171386719 476.81488037109375 107.02936553955078 468.97216796875 101.66474151611328 448.4853210449219 C 102.51805877685547 468.497314453125 83.439453125 476.46722412109375 85.76676177978516 459.52886962890625 C 83.98204803466797 424.2724609375 84.05126953125 403.2214660644531 100.89523315429688 392.264892578125 C 101.75617218017578 352.8156433105469 126.54873657226562 363.34478759765625 117.02600860595703 437.23370361328125" stroke-width="0.0" fill="rgb(213, 162, 51)" opacity="0.857912" stroke="rgb(0, 0, 0)" stroke-opacity="1.0" stroke-linecap="round" stroke-linejoin="round"/>
    <path d="M 156.7269287109375 155.1655731201172 C 142.83323669433594 144.71279907226562 92.9448013305664 128.86758422851562 101.3438949584961 132.72442626953125 C 134.55279541015625 128.68701171875 126.4583511352539 121.23724365234375 81.80364227294922 125.19042205810547 C 75.09332275390625 134.7628936767578 88.99302673339844 130.5797882080078 139.61497497558594 130.16615295410156 C 112.83798217773438 109.60862731933594 97.21446228027344 133.28211975097656 156.7269287109375 155.1655731201172" stroke-width="0.0" fill="rgb(40, 15, 197)" opacity="0.7277898" stroke="rgb(0, 0, 0)" stroke-opacity="1.0" stroke-linecap="round" stroke-linejoin="round"/>
    <path d="M 108.55262756347656 97.04083251953125 C 81.32408905029297 136.61502075195312 78.44275665283203 147.3937225341797 86.92176818847656 125.9981689453125 C 24.38261604309082 122.7110366821289 15.980087280273438 99.6700439453125 -5.004599094390869 108.92791748046875 C 21.216211318969727 121.0893325805664 38.96477127075195 159.359619140625 43.04430389404297 100.7074966430664 C 84.84286499023438 116.85530853271484 99.62030029296875 94.66009521484375 108.55262756347656 97.04083251953125" stroke-width="0.0" fill="rgb(73, 36, 147)" opacity="0.16811064" stroke="rgb(0, 0, 0)" stroke-opacity="1.0" stroke-linecap="round" stroke-linejoin="round"/>
    <path d="M 38.387451171875 320.5727844238281 C 52.372432708740234 326.922119140625 45.16886520385742 329.6548156738281 28.665605545043945 308.1086730957031 C 21.211044311523438 311.3431091308594 10.407008171081543 314.6972351074219 17.26757049560547 303.2064208984375 C 35.600276947021484 296.9580993652344 41.753421783447266 277.8274841308594 51.4027214050293 296.5191345214844 C 19.37131118774414 320.0370178222656 31.74367904663086 328.0701904296875 38.387451171875 320.5727844238281" stroke-width="0.0" fill="rgb(37, 14, 189)" opacity="0.017623113" stroke="rgb(0, 0, 0)" stroke-opacity="1.0" stroke-linecap="round" stroke-linejoin="round"/>
    <path d="M 385.1373596191406 230.68801879882812 C 382.1809387207031 289.84417724609375 390.60076904296875 249.18653869628906 366.53826904296875 276.6389465332031 C 362.7462463378906 231.0579833984375 354.93267822265625 224.9611053466797 370.0438537597656 220.62918090820312 C 355.70562744140625 208.3796844482422 351.3558349609375 183.6397247314453 351.1465148925781 209.55352783203125 C 367.61444091796875 209.261962890625 388.40472412109375 199.36964416503906 385.1373596191406 230.68801879882812" stroke-width="0.0" fill="rgb(255, 147, 52)" opacity="0.9864325" stroke="rgb(0, 0, 0)" stroke-opacity="1.0" stroke-linecap="round" stroke-linejoin="round"/>
    <path d="M 207.62570190429688 256.586181640625 C 202.13209533691406 249.13999938964844 182.9517822265625 272.5518493652344 183.38572692871094 271.276611328125 C 172.7638702392578 266.0414733886719 188.2421417236328 261.93560791015625 201.24424743652344 260.43853759765625 C 202.5890350341797 270.8594665527344 190.3538055419922 262.35650634765625 197.30245971679688 258.2615051269531 C 211.3828887939453 262.74554443359375 203.6219482421875 260.39080810546875 207.62570190429688 256.586181640625" stroke-width="0.0" fill="rgb(240, 130, 97)" opacity="0.55533075" stroke="rgb(0, 0, 0)" stroke-opacity="1.0" stroke-linecap="round" stroke-linejoin="round"/>
    <path d="M 200.7735137939453 244.2153778076172 C 205.91738891601562 249.17181396484375 211.61485290527344 239.71939086914062 216.78089904785156 257.4439392089844 C 196.4365692138672 266.2960510253906 179.90130615234375 261.2683410644531 187.6454315185547 259.3280334472656 C 186.77098083496094 233.93917846679688 187.12835693359375 262.4088134765625 214.94796752929688 251.55857849121094 C 222.66563415527344 240.72328186035156 233.09007263183594 258.14605712890625 200.7735137939453 244.2153778076172" stroke-width="0.0" fill="rgb(169, 230, 153)" opacity="0.106146" stroke="rgb(0, 0, 0)" stroke-opacity="1.0" stroke-linecap="round" stroke-linejoin="round"/>
    <path d="M 181.3726043701172 362.3184509277344 C 184.9652862548828 336.90521240234375 178.83460998535156 346.1474304199219 181.68353271484375 347.0224609375 C 179.819091796875 338.62860107421875 176.7570037841797 329.76611328125 153.3780517578125 333.3781433105469 C 175.0157928466797 344.1068420410156 195.23101806640625 346.30108642578125 183.519775390625 327.3771057128906 C 183.01034545898438 328.1888732910156 179.49560546875 335.7012023925781 181.3726043701172 362.3184509277344" stroke-width="0.0" fill="rgb(190, 143, 54)" opacity="0.74806887" stroke="rgb(0, 0, 0)" stroke-opacity="1.0" stroke-linecap="round" stroke-linejoin="round"/>
    <path d="M 113.09796142578125 149.63070678710938 C 97.38102722167969 186.30604553222656 92.24471282958984 175.0113067626953 82.91619873046875 163.8267364501953 C 80.21240234375 133.7216033935547 62.47816467285156 133.8186492919922 60.82341766357422 132.49293518066406 C 46.76904296875 117.62415313720703 49.79990005493164 95.61176300048828 86.11185455322266 114.07054901123047 C 105.66976165771484 93.68346405029297 130.6023406982422 118.32585144042969 113.09796142578125 149.63070678710938" stroke-width="0.0" fill="rgb(45, 9, 199)" opacity="0.9477331" stroke="rgb(0, 0, 0)" stroke-opacity="1.0" stroke-linecap="round" stroke-linejoin="round"/>
    <path d="M 65.8721694946289 100.34480285644531 C 55.644737243652344 177.04139709472656 35.185333251953125 171.7434539794922 2.9217586517333984 124.98709106445312 C -5.484070777893066 114.50177764892578 -10.06983470916748 132.4949493408203 -10.05965518951416 111.08684539794922 C -15.695537567138672 97.31510162353516 -8.335931777954102 103.89295959472656 16.41522789001465 90.46235656738281 C 33.08305740356445 97.29501342773438 64.73678588867188 88.89485931396484 65.8721694946289 100.34480285644531" stroke-width="0.0" fill="rgb(51, 27, 198)" opacity="0.10976442" stroke="rgb(0, 0, 0)" stroke-opacity="1.0" stroke-linecap="round" stroke-linejoin="round"/>
    <path d="M 121.35487365722656 164.0911865234375 C 141.25308227539062 171.46742248535156 161.6485137939453 180.0220489501953 152.39881896972656 151.9151153564453 C 141.79690551757812 154.07455444335938 153.3778076171875 135.6314697265625 107.83909606933594 150.0734405517578 C 76.08293151855469 120.17257690429688 101.74439239501953 106.13504791259766 131.86964416503906 140.83444213867188 C 122.84184265136719 173.23947143554688 114.65006256103516 160.60995483398438 121.35487365722656 164.0911865234375" stroke-width="0.0" fill="rgb(27, 18, 158)" opacity="0.43824214" stroke="rgb(0, 0, 0)" stroke-opacity="1.0" stroke-linecap="round" stroke-linejoin="round"/>
    <path d="M 419.5283203125 209.52235412597656 C 408.6101379394531 223.47540283203125 383.4635925292969 249.11509704589844 369.4449768066406 264.258056640625 C 361.9275207519531 219.2330322265625 335.6171875 231.78793334960938 335.685791015625 203.89859008789062 C 335.4375915527344 187.84524536132812 348.9760437011719 175.27642822265625 362.7146911621094 169.61997985839844 C 378.9336853027344 159.97116088867188 404.5708923339844 168.8369598388672 419.5283203125 209.52235412597656" stroke-width="0.0" fill="rgb(254, 250, 47)" opacity="0.9954843" stroke="rgb(0, 0, 0)" stroke-opacity="1.0" stroke-linecap="round" stroke-linejoin="round"/>
    <path d="M 303.5372314453125 179.54847717285156 C 311.2523193359375 182.5645751953125 303.99908447265625 196.0070343017578 280.8030700683594 198.36541748046875 C 250.6332550048828 181.72042846679688 240.53651428222656 167.91468811035156 306.80712890625 174.16468811035156 C 315.2247009277344 146.3447265625 279.5335998535156 153.51197814941406 274.130859375 147.56320190429688 C 320.3997497558594 168.42510986328125 295.3529357910156 161.73231506347656 303.5372314453125 179.54847717285156" stroke-width="0.0" fill="rgb(157, 161, 88)" opacity="0.84252274" stroke="rgb(0, 0, 0)" stroke-opacity="1.0" stroke-linecap="round" stroke-linejoin="round"/>
    <path d="M 152.53726196289062 41.39339065551758 C 163.1000518798828 38.86789321899414 154.357666015625 51.34172821044922 139.89492797851562 54.756065368652344 C 111.11256408691406 63.84090042114258 112.39276123046875 50.130775451660156 117.10551452636719 45.60074996948242 C 101.10211944580078 13.542957305908203 102.67315673828125 15.982460021972656 122.2706527709961 29.218984603881836 C 137.67147827148438 22.730867385864258 146.28907775878906 26.04323959350586 152.53726196289062 41.39339065551758" stroke-width="0.0" fill="rgb(66, 41, 142)" opacity="0.033426538" stroke="rgb(0, 0, 0)" stroke-opacity="1.0" stroke-linecap="round" stroke-linejoin="round"/>
    <path d="M 74.7244873046875 343.15435791015625 C 56.2400016784668 339.1939697265625 61.06459045410156 351.6792907714844 51.79280090332031 339.5047302246094 C 42.5911979675293 351.4403076171875 23.665496826171875 326.4489440917969 12.828243255615234 315.4698486328125 C 16.331933975219727 294.164794921875 8.561299324035645 296.356689453125 45.341590881347656 302.182373046875 C 57.208091735839844 307.60858154296875 61.141929626464844 310.6014404296875 74.7244873046875 343.15435791015625" stroke-width="0.0" fill="rgb(36, 6, 196)" opacity="0.2625716" stroke="rgb(0, 0, 0)" stroke-opacity="1.0" stroke-linecap="round" stroke-linejoin="round"/>
    <path d="M 264.8852844238281 86.65380859375 C 242.04498291015625 53.81166458129883 254.48406982421875 76.59608459472656 272.5352783203125 84.18717193603516 C 246.15611267089844 32.74055099487305 241.18870544433594 60.284244537353516 264.407958984375 68.0230484008789 C 260.6394348144531 42.12907409667969 250.71434020996094 23.188339233398438 249.54747009277344 37.32462692260742 C 216.56605529785156 66.951416015625 242.39503479003906 60.80878448486328 264.8852844238281 86.65380859375" stroke-width="0.0" fill="rgb(20, 34, 100)" opacity="0.051337637" stroke="rgb(0, 0, 0)" stroke-opacity="1.0" stroke-linecap="round" stroke-linejoin="round"/>
    <path d="M 96.57669067382812 329.8764953613281 C 93.11746978759766 326.9003601074219 110.88748931884766 350.73388671875 102.54991912841797 378.693603515625 C 92.91683197021484 358.850341796875 105.21656799316406 356.96356201171875 111.42765808105469 346.46917724609375 C 65.2674789428711 341.1957702636719 73.26229858398438 312.53350830078125 105.60710144042969 305.76971435546875 C 117.40325164794922 313.11474609375 122.60096740722656 315.779052734375 96.57669067382812 329.8764953613281" stroke-width="0.0" fill="rgb(183, 182, 121)" opacity="0.37388977" stroke="rgb(0, 0, 0)" stroke-opacity="1.0" stroke-linecap="round" stroke-linejoin="round"/>
    <path d="M 226.65518188476562 363.734375 C 215.9995574951172 410.8468933105469 213.0980224609375 407.8410949707031 175.57183837890625 395.027587890625 C 165.2865753173828 394.14410400390625 183.7292022705078 374.5820007324219 180.59031677246094 366.4172058105469 C 151.36056518554688 360.083251953125 141.6158447265625 325.6294860839844 198.99008178710938 340.1468811035156 C 194.39720153808594 378.09600830078125 210.3479766845703 380.1691589355469 226.65518188476562 363.734375" stroke-width="0.0" fill="rgb(227, 70, 141)" opacity="0.12507758" stroke="rgb(0, 0, 0)" stroke-opacity="1.0" stroke-linecap="round" stroke-linejoin="round"/>
    <path d="M 33.232723236083984 201.30162048339844 C 37.1011962890625 184.82098388671875 45.99118423461914 208.149169921875 29.96770668029785 219.84716796875 C 37.82591247558594 208.93556213378906 45.74013137817383 197.9849853515625 56.98219299316406 192.60997009277344 C 22.845651626586914 200.8207550048828 49.53156280517578 212.3664093017578 64.40006256103516 197.89418029785156 C 42.355743408203125 192.43829345703125 49.37087631225586 201.3826141357422 33.232723236083984 201.30162048339844" stroke-width="0.0" fill="rgb(39, 5, 200)" opacity="0.0" stroke="rgb(0, 0, 0)" stroke-opacity="1.0" stroke-linecap="round" stroke-linejoin="round"/>
    <path d="M 457.5111083984375 322.9398498535156 C 448.0286865234375 318.55975341796875 410.17236328125 328.9311218261719 406.8059387207031 313.3255310058594 C 423.4438171386719 312.4962463378906 408.0988464355469 331.830322265625 385.37091064453125 308.8402404785156 C 398.47442626953125 254.59646606445312 405.2742004394531 251.47711181640625 416.8512878417969 268.86456298828125 C 430.1533203125 275.9371643066406 439.8096618652344 283.1485290527344 457.5111083984375 322.9398498535156" stroke-width="0.0" fill="rgb(23, 53, 161)" opacity="0.0" stroke="rgb(0, 0, 0)" stroke-opacity="1.0" stroke-linecap="round" stroke-linejoin="round"/>
    <path d="M 42.80516052246094 142.84515380859375 C 64.74160766601562 117.6759262084961 68.6098861694336 99.08296203613281 27.688962936401367 85.11568450927734 C 23.664764404296875 145.936279296875 10.742045402526855 170.17991638183594 -4.8419647216796875 157.32772827148438 C 37.313270568847656 143.69227600097656 30.513710021972656 122.60073852539062 -3.6729395389556885 130.5192413330078 C -19.955028533935547 160.8430938720703 9.303573608398438 157.29615783691406 42.80516052246094 142.84515380859375" stroke-width="0.0" fill="rgb(15, 2, 213)" opacity="0.00022625638" stroke="rgb(0, 0, 0)" stroke-opacity="1.0" stroke-linecap="round" stroke-linejoin="round"/>
    <path d="M 526.7763671875 234.86740112304688 C 518.1388549804688 269.6311340332031 512.0358276367188 272.9934997558594 503.5242004394531 260.36602783203125 C 478.0708312988281 260.30096435546875 471.5543212890625 248.87632751464844 489.33050537109375 219.50244140625 C 489.0170593261719 214.7333526611328 467.4795837402344 233.1372833251953 479.203369140625 232.29017639160156 C 510.65631103515625 227.80259704589844 524.44287109375 224.7974853515625 526.7763671875 234.86740112304688" stroke-width="0.0" fill="rgb(17, 77, 142)" opacity="0.0" stroke="rgb(0, 0, 0)" stroke-opacity="1.0" stroke-linecap="round" stroke-linejoin="round"/>
    <path d="M 238.80715942382812 112.6153793334961 C 237.8033905029297 110.47742462158203 238.40943908691406 123.14118957519531 223.2298126220703 118.555908203125 C 188.44349670410156 139.83729553222656 187.33595275878906 121.4765625 210.58041381835938 109.5302505493164 C 215.8274688720703 116.49626159667969 217.00872802734375 94.09292602539062 230.70823669433594 71.65220642089844 C 220.9904022216797 98.84729766845703 221.40948486328125 126.1472396850586 238.80715942382812 112.6153793334961" stroke-width="0.0" fill="rgb(223, 207, 140)" opacity="0.10103742" stroke="rgb(0, 0, 0)" stroke-opacity="1.0" stroke-linecap="round" stroke-linejoin="round"/>
    <path d="M 440.7972106933594 248.4569854736328 C 421.09429931640625 263.72015380859375 413.7018737792969 280.3700256347656 405.53155517578125 288.9726867675781 C 400.5349426269531 283.0532531738281 407.8904113769531 262.29095458984375 409.75128173828125 279.5606689453125 C 402.5506591796875 267.204833984375 417.18658447265625 258.1539001464844 439.8507385253906 257.4408264160156 C 436.570068359375 239.7180633544922 440.5223693847656 231.44879150390625 440.7972106933594 248.4569854736328" stroke-width="0.0" fill="rgb(26, 57, 95)" opacity="0.0005389607" stroke="rgb(0, 0, 0)" stroke-opacity="1.0" stroke-linecap="round" stroke-linejoin="round"/>
    <path d="M 537.5636596679688 119.64441680908203 C 531.6268310546875 145.96932983398438 520.77197265625 142.5864715576172 523.4666137695312 145.89617919921875 C 530.2130737304688 113.20146942138672 529.9505004882812 89.38483428955078 487.98388671875 59.39361572265625 C 450.7489929199219 86.45132446289062 474.7520751953125 123.2664794921875 511.16754150390625 135.3494873046875 C 530.193603515625 102.51722717285156 535.1388549804688 102.86188507080078 537.5636596679688 119.64441680908203" stroke-width="0.0" fill="rgb(75, 51, 76)" opacity="0.0" stroke="rgb(0, 0, 0)" stroke-opacity="1.0" stroke-linecap="round" stroke-linejoin="round"/>
    <path d="M 548.7764282226562 165.5831298828125 C 530.3787841796875 176.91114807128906 521.2869873046875 186.96389770507812 521.6353149414062 182.05226135253906 C 502.18084716796875 177.01895141601562 498.75225830078125 175.69033813476562 508.0628662109375 161.6817626953125 C 509.1731262207031 167.20960998535156 529.4493408203125 151.1083984375 496.48309326171875 146.14999389648438 C 517.0756225585938 169.5916748046875 539.7623291015625 165.9599609375 548.7764282226562 165.5831298828125" stroke-width="0.0" fill="rgb(64, 15, 142)" opacity="0.047959533" stroke="rgb(0, 0, 0)" stroke-opacity="1.0" stroke-linecap="round" stroke-linejoin="round"/>
    <path d="M 75.38460540771484 375.718994140625 C 78.749267578125 369.9232482910156 66.53197479248047 370.2083435058594 68.93755340576172 381.8542175292969 C 37.36157989501953 388.63226318359375 18.28592872619629 384.52862548828125 23.61329460144043 338.6553649902344 C 37.939517974853516 322.05419921875 40.845848083496094 315.2365417480469 40.79884338378906 340.53875732421875 C 77.18678283691406 348.59503173828125 76.62411499023438 364.12225341796875 75.38460540771484 375.718994140625" stroke-width="0.0" fill="rgb(0, 24, 210)" opacity="0.11516677" stroke="rgb(0, 0, 0)" stroke-opacity="1.0" stroke-linecap="round" stroke-linejoin="round"/>
    <path d="M 299.6398010253906 260.73583984375 C 301.56842041015625 227.598876953125 295.07025146484375 242.8777618408203 313.24310302734375 220.44561767578125 C 299.2677917480469 241.95408630371094 288.2515869140625 271.3299255371094 283.8830261230469 238.77833557128906 C 284.1872253417969 231.43605041503906 307.7288513183594 243.85769653320312 318.0105895996094 249.6512908935547 C 313.59161376953125 248.39366149902344 321.8045349121094 279.16033935546875 299.6398010253906 260.73583984375" stroke-width="0.0" fill="rgb(59, 0, 250)" opacity="0.032079116" stroke="rgb(0, 0, 0)" stroke-opacity="1.0" stroke-linecap="round" stroke-linejoin="round"/>
    <path d="M 528.8560180664062 134.83175659179688 C 522.7815551757812 140.6137237548828 506.8018798828125 150.94039916992188 523.7665405273438 133.4396209716797 C 537.1920166015625 134.76576232910156 510.8315124511719 137.24525451660156 519.05419921875 171.23309326171875 C 516.0170288085938 150.5780029296875 518.1356811523438 143.13526916503906 528.2066040039062 99.73807525634766 C 525.3857421875 110.63591766357422 527.343994140625 118.81944274902344 528.8560180664062 134.83175659179688" stroke-width="0.0" fill="rgb(63, 79, 188)" opacity="0.15778627" stroke="rgb(0, 0, 0)" stroke-opacity="1.0" stroke-linecap="round" stroke-linejoin="round"/>
    <path d="M 464.934326171875 415.77520751953125 C 462.82568359375 479.8072509765625 449.67352294921875 490.7411804199219 447.9945373535156 486.8404541015625 C 448.2317810058594 488.52557373046875 414.26422119140625 475.39068603515625 422.4197998046875 443.8953857421875 C 431.1463928222656 428.81646728515625 440.0442810058594 419.99658203125 430.4483642578125 445.18463134765625 C 473.2762756347656 429.0225830078125 498.5373840332031 423.7331237792969 464.934326171875 415.77520751953125" stroke-width="0.0" fill="rgb(1, 61, 81)" opacity="0.0510201" stroke="rgb(0, 0, 0)" stroke-opacity="1.0" stroke-linecap="round" stroke-linejoin="round"/>
    <path d="M 527.8427124023438 367.5946350097656 C 510.24462890625 371.2630310058594 504.14324951171875 385.35870361328125 512.0596923828125 367.6777648925781 C 478.4343566894531 378.76806640625 477.8202819824219 374.5772399902344 471.18914794921875 371.7467041015625 C 454.71551513671875 355.52935791015625 459.8838806152344 352.59674072265625 455.591552734375 349.11102294921875 C 515.1033325195312 358.1419982910156 542.6104125976562 354.4716796875 527.8427124023438 367.5946350097656" stroke-width="0.0" fill="rgb(21, 51, 93)" opacity="0.07415807" stroke="rgb(0, 0, 0)" stroke-opacity="1.0" stroke-linecap="round" stroke-linejoin="round"/>
    <path d="M 153.6924591064453 456.6917724609375 C 196.02459716796875 452.4739990234375 212.42897033691406 451.62744140625 171.97019958496094 444.378173828125 C 138.26194763183594 454.225341796875 135.38668823242188 440.0403747558594 180.9581298828125 446.7225341796875 C 168.49462890625 458.5579528808594 178.55593872070312 416.1009216308594 171.6614532470703 391.75970458984375 C 156.11349487304688 380.820556640625 164.680419921875 428.1986999511719 153.6924591064453 456.6917724609375" stroke-width="0.0" fill="rgb(93, 144, 91)" opacity="0.46070582" stroke="rgb(0, 0, 0)" stroke-opacity="1.0" stroke-linecap="round" stroke-linejoin="round"/>
    <path d="M 108.11972045898438 184.0828857421875 C 82.96732330322266 168.5836944580078 84.76559448242188 177.64915466308594 65.31747436523438 174.65188598632812 C 61.355194091796875 185.48458862304688 55.55751037597656 191.93145751953125 78.17076873779297 158.7899932861328 C 81.1815414428711 166.55226135253906 66.3901596069336 133.7989044189453 73.5948257446289 124.87489318847656 C 94.59366607666016 151.7295379638672 105.69291687011719 171.96115112304688 108.11972045898438 184.0828857421875" stroke-width="0.0" fill="rgb(47, 0, 223)" opacity="0.08532705" stroke="rgb(0, 0, 0)" stroke-opacity="1.0" stroke-linecap="round" stroke-linejoin="round"/>
    <path d="M 177.77467346191406 98.2067642211914 C 163.70587158203125 137.2533721923828 179.51547241210938 152.43218994140625 196.0972137451172 168.7997589111328 C 186.95455932617188 152.64959716796875 184.6855010986328 130.73045349121094 155.2566680908203 156.78662109375 C 185.93446350097656 194.33706665039062 203.6603546142578 154.34767150878906 188.35580444335938 129.88613891601562 C 184.82070922851562 116.38533782958984 220.0042724609375 102.84597778320312 177.77467346191406 98.2067642211914" stroke-width="0.0" fill="rgb(0, 44, 170)" opacity="0.11186183" stroke="rgb(0, 0, 0)" stroke-opacity="1.0" stroke-linecap="round" stroke-linejoin="round"/>
    <path d="M 168.0273895263672 427.5086975097656 C 162.49020385742188 437.5051574707031 134.55453491210938 451.6001892089844 143.94552612304688 466.952392578125 C 160.9033203125 442.4823303222656 141.3099365234375 462.5228271484375 138.89093017578125 413.90771484375 C 147.07643127441406 389.2602844238281 163.92393493652344 373.6815490722656 161.71873474121094 402.78570556640625 C 194.6253204345703 402.5787048339844 225.82496643066406 424.7180480957031 168.0273895263672 427.5086975097656" stroke-width="0.0" fill="rgb(30, 31, 110)" opacity="0.061624967" stroke="rgb(0, 0, 0)" stroke-opacity="1.0" stroke-linecap="round" stroke-linejoin="round"/>
    <path d="M 453.50439453125 144.94737243652344 C 465.56231689453125 162.13848876953125 474.6279602050781 159.6026611328125 450.6085510253906 142.44821166992188 C 445.4670104980469 140.73526000976562 442.7051696777344 138.88009643554688 459.9381103515625 138.1085662841797 C 464.30670166015625 135.81983947753906 473.7668151855469 133.278076171875 438.9763488769531 116.28571319580078 C 454.92510986328125 114.36583709716797 463.1954345703125 123.55652618408203 453.50439453125 144.94737243652344" stroke-width="0.0" fill="rgb(11, 38, 122)" opacity="0.0070715924" stroke="rgb(0, 0, 0)" stroke-opacity="1.0" stroke-linecap="round" stroke-linejoin="round"/>
    <path d="M 263.245361328125 297.2623291015625 C 266.84442138671875 329.2958679199219 231.04006958007812 335.6756286621094 248.92359924316406 329.15411376953125 C 259.82904052734375 267.14459228515625 252.5660858154297 225.6653594970703 237.2722625732422 255.10760498046875 C 251.1353302001953 348.9435729980469 234.0185546875 349.76666259765625 232.0984344482422 289.4883728027344 C 242.9584503173828 274.2538146972656 257.3583679199219 261.9765319824219 263.245361328125 297.2623291015625" stroke-width="0.0" fill="rgb(92, 109, 157)" opacity="0.05502405" stroke="rgb(0, 0, 0)" stroke-opacity="1.0" stroke-linecap="round" stroke-linejoin="round"/>
    <path d="M 136.80731201171875 469.56512451171875 C 149.13751220703125 474.0301818847656 135.64231872558594 486.67431640625 133.55886840820312 502.121337890625 C 141.55992126464844 481.19757080078125 128.9952392578125 478.9296569824219 124.50237274169922 467.1015625 C 142.0284881591797 465.7437438964844 146.9919891357422 470.3457946777344 141.4375457763672 459.28497314453125 C 133.5657501220703 479.5423889160156 140.2718505859375 486.7920837402344 136.80731201171875 469.56512451171875" stroke-width="0.0" fill="rgb(21, 61, 90)" opacity="0.00081618124" stroke="rgb(0, 0, 0)" stroke-opacity="1.0" stroke-linecap="round" stroke-linejoin="round"/>
  </g>
</svg>
