<?xml version="1.0" ?>
<svg xmlns="http://www.w3.org/2000/svg" version="1.1" width="512" height="512">
  <defs/>
  <g>
    <path d="M 588.8092651367188 369.12237548828125 C 547.165283203125 516.641845703125 548.8319091796875 525.4011840820312 391.6458435058594 535.6361694335938 C 299.15216064453125 543.7996826171875 231.0856475830078 521.7581787109375 316.6641540527344 441.0019836425781 C 247.5491180419922 308.1556701660156 244.00961303710938 274.7025451660156 427.4328918457031 240.96633911132812 C 590.9642333984375 294.6197814941406 601.97900390625 285.43585205078125 588.8092651367188 369.12237548828125" stroke-width="0.0" fill="rgb(31, 25, 177)" opacity="0.9292085" stroke="rgb(0, 0, 0)" stroke-opacity="1.0" stroke-linecap="round" stroke-linejoin="round"/>
    <path d="M 306.17706298828125 375.83209228515625 C 363.5716857910156 520.2415771484375 358.7210388183594 528.640625 265.58367919921875 532.9579467773438 C -51.20000076293945 519.133544921875 -51.20000076293945 511.7567443847656 -48.19358444213867 477.06494140625 C -24.177780151367188 208.89288330078125 -3.4683079719543457 226.59747314453125 78.56854248046875 180.14675903320312 C 115.5169906616211 310.4056091308594 181.4596710205078 278.7118225097656 306.17706298828125 375.83209228515625" stroke-width="0.0" fill="rgb(18, 34, 167)" opacity="1.0" stroke="rgb(0, 0, 0)" stroke-opacity="1.0" stroke-linecap="round" stroke-linejoin="round"/>
    <path d="M 308.7908630371094 180.1460418701172 C 320.09918212890625 385.9351806640625 321.27545166015625 374.7488098144531 218.81668090820312 351.07843017578125 C 95.97075653076172 542.95166015625 53.429298400878906 457.5806884765625 -28.746566772460938 164.1047821044922 C 7.918988227844238 147.42462158203125 25.052291870117188 169.55160522460938 128.01397705078125 210.09446716308594 C 169.593505859375 198.2675018310547 132.0316925048828 172.67079162597656 308.7908630371094 180.1460418701172" stroke-width="0.0" fill="rgb(27, 41, 181)" opacity="0.89950013" stroke="rgb(0, 0, 0)" stroke-opacity="1.0" stroke-linecap="round" stroke-linejoin="round"/>
    <path d="M 279.153564453125 23.68027687072754 C 252.6132049560547 298.17694091796875 103.40621185302734 194.96527099609375 58.735069274902344 192.64004516601562 C -5.6903076171875 161.0115966796875 -31.645614624023438 204.26510620117188 -37.00432586669922 148.15963745117188 C -16.39366340637207 -18.030452728271484 -10.150599479675293 -23.750812530517578 50.93571853637695 -32.80991744995117 C 218.80531311035156 -45.409854888916016 237.89645385742188 -52.74111557006836 279.153564453125 23.68027687072754" stroke-width="0.0" fill="rgb(57, 30, 173)" opacity="0.897482" stroke="rgb(0, 0, 0)" stroke-opacity="1.0" stroke-linecap="round" stroke-linejoin="round"/>
    <path d="M 485.14111328125 81.38206481933594 C 420.7151184082031 277.8249206542969 405.6507263183594 255.6278839111328 368.35406494140625 322.4703369140625 C 308.0107727050781 266.9419250488281 287.00335693359375 291.6957092285156 234.86712646484375 174.98568725585938 C 205.916748046875 88.80084228515625 218.08624267578125 2.1321864128112793 361.1343994140625 -46.78296661376953 C 593.6583862304688 3.060011148452759 571.7342529296875 39.771690368652344 485.14111328125 81.38206481933594" stroke-width="0.0" fill="rgb(157, 100, 10)" opacity="1.0" stroke="rgb(0, 0, 0)" stroke-opacity="1.0" stroke-linecap="round" stroke-linejoin="round"/>
    <path d="M 248.73765563964844 97.78691864013672 C 174.49981689453125 240.48379516601562 346.1822509765625 217.95803833007812 176.0419158935547 321.5753479003906 C 146.26319885253906 155.6705780029297 134.33837890625 153.3736114501953 97.87167358398438 132.92990112304688 C 72.48802185058594 121.54517364501953 91.95269012451172 112.1263656616211 307.0202941894531 -39.80216598510742 C 425.125732421875 65.09538269042969 376.9214172363281 -10.650965690612793 248.73765563964844 97.78691864013672" stroke-width="0.0" fill="rgb(76, 38, 210)" opacity="0.9667578" stroke="rgb(0, 0, 0)" stroke-opacity="1.0" stroke-linecap="round" stroke-linejoin="round"/>
    <path d="M 538.4223022460938 171.4356231689453 C 558.97412109375 320.5009460449219 570.3196411132812 328.6640625 512.2078247070312 282.5315856933594 C 399.6891174316406 249.98634338378906 356.14715576171875 237.39369201660156 429.4899597167969 211.46255493164062 C 487.90960693359375 174.9643096923828 433.0474548339844 86.50970458984375 508.1186218261719 -9.42750072479248 C 563.2000122070312 29.02372932434082 563.2000122070312 58.49845886230469 538.4223022460938 171.4356231689453" stroke-width="0.0" fill="rgb(57, 39, 202)" opacity="0.99809945" stroke="rgb(0, 0, 0)" stroke-opacity="1.0" stroke-linecap="round" stroke-linejoin="round"/>
    <path d="M 304.9007873535156 208.78872680664062 C 337.6182556152344 281.7629699707031 319.7314453125 302.8642578125 275.87371826171875 321.5914611816406 C 280.2408142089844 310.9743347167969 237.70968627929688 303.9501953125 202.69854736328125 319.6162414550781 C 299.3585510253906 265.1485290527344 281.6435852050781 242.7173309326172 334.9726257324219 184.43392944335938 C 353.4065246582031 84.67559051513672 317.10272216796875 113.1516342163086 304.9007873535156 208.78872680664062" stroke-width="0.0" fill="rgb(115, 60, 203)" opacity="0.6738002" stroke="rgb(0, 0, 0)" stroke-opacity="1.0" stroke-linecap="round" stroke-linejoin="round"/>
    <path d="M 421.2669372558594 198.69725036621094 C 367.5883483886719 278.1263427734375 502.11346435546875 240.0080108642578 341.69287109375 312.5528869628906 C 295.80352783203125 235.82400512695312 349.1744079589844 225.54803466796875 296.5299987792969 198.29466247558594 C 238.83946228027344 -17.83195686340332 364.1209411621094 77.37146759033203 318.9866943359375 149.2876739501953 C 372.6574401855469 165.61705017089844 400.36004638671875 182.5266571044922 421.2669372558594 198.69725036621094" stroke-width="0.0" fill="rgb(195, 178, 75)" opacity="0.77982527" stroke="rgb(0, 0, 0)" stroke-opacity="1.0" stroke-linecap="round" stroke-linejoin="round"/>
    <path d="M 250.49630737304688 240.10511779785156 C 361.2667541503906 270.8235168457031 247.94773864746094 262.66912841796875 194.754638671875 317.5644226074219 C 104.71687316894531 406.830078125 176.96878051757812 288.0287170410156 217.59701538085938 237.33399963378906 C 67.17140197753906 203.30877685546875 -17.02088737487793 181.19737243652344 220.11602783203125 166.0397186279297 C 258.6033630371094 168.1731719970703 244.32070922851562 265.8616027832031 250.49630737304688 240.10511779785156" stroke-width="0.0" fill="rgb(42, 75, 218)" opacity="0.560052" stroke="rgb(0, 0, 0)" stroke-opacity="1.0" stroke-linecap="round" stroke-linejoin="round"/>
    <path d="M 374.4485168457031 199.3050994873047 C 465.4329833984375 195.2779998779297 442.55987548828125 282.8494567871094 403.12872314453125 278.1040344238281 C 387.2249450683594 309.67498779296875 335.6356506347656 334.9358215332031 344.9571228027344 232.97320556640625 C 359.4897766113281 309.0009460449219 348.2452392578125 300.7091369628906 411.5264892578125 290.1610412597656 C 399.1274108886719 261.9354553222656 424.2302551269531 304.1944580078125 374.4485168457031 199.3050994873047" stroke-width="0.0" fill="rgb(49, 23, 244)" opacity="0.87896264" stroke="rgb(0, 0, 0)" stroke-opacity="1.0" stroke-linecap="round" stroke-linejoin="round"/>
    <path d="M 351.6860046386719 380.19989013671875 C 139.97012329101562 306.0931701660156 237.4379425048828 388.6067199707031 156.4951629638672 438.40972900390625 C 143.6276397705078 430.1393737792969 164.9338836669922 403.36376953125 149.3219757080078 393.3197326660156 C 172.97152709960938 399.4826965332031 173.13082885742188 420.92694091796875 175.22817993164062 349.36865234375 C 228.15255737304688 333.91497802734375 171.30409240722656 375.263427734375 351.6860046386719 380.19989013671875" stroke-width="0.0" fill="rgb(30, 15, 196)" opacity="0.4381449" stroke="rgb(0, 0, 0)" stroke-opacity="1.0" stroke-linecap="round" stroke-linejoin="round"/>
    <path d="M 551.1159057617188 46.22476577758789 C 539.1475830078125 93.91163635253906 529.0799560546875 96.99752044677734 475.0840759277344 142.8670196533203 C 435.98931884765625 71.2671127319336 441.92974853515625 118.34283447265625 422.9967041015625 83.45780181884766 C 364.1700134277344 -3.3913962841033936 297.7024841308594 121.27767944335938 339.4718017578125 -19.07065773010254 C 515.840576171875 -48.0586051940918 522.9652099609375 -21.389463424682617 551.1159057617188 46.22476577758789" stroke-width="0.0" fill="rgb(99, 34, 200)" opacity="0.99054974" stroke="rgb(0, 0, 0)" stroke-opacity="1.0" stroke-linecap="round" stroke-linejoin="round"/>
    <path d="M 429.92742919921875 98.8929443359375 C 428.613037109375 211.8698272705078 410.4986267089844 179.0660400390625 330.0575256347656 163.39947509765625 C 344.5527648925781 127.41323852539062 381.06427001953125 91.58161926269531 376.3398132324219 100.37680053710938 C 376.34130859375 66.13269805908203 388.9339294433594 60.49017333984375 405.1399230957031 85.40808868408203 C 378.230712890625 84.88432312011719 443.04913330078125 80.68521881103516 429.92742919921875 98.8929443359375" stroke-width="0.0" fill="rgb(155, 101, 27)" opacity="0.5252553" stroke="rgb(0, 0, 0)" stroke-opacity="1.0" stroke-linecap="round" stroke-linejoin="round"/>
    <path d="M 228.45501708984375 261.6722412109375 C 217.62220764160156 271.80218505859375 182.4118194580078 268.1190490722656 206.56964111328125 290.2784118652344 C 163.37940979003906 301.33905029296875 155.59915161132812 374.35955810546875 79.01844787597656 218.98060607910156 C 55.452552795410156 215.1305694580078 98.68766021728516 200.99412536621094 209.21429443359375 187.63446044921875 C 227.51097106933594 198.63136291503906 239.90859985351562 275.513916015625 228.45501708984375 261.6722412109375" stroke-width="0.0" fill="rgb(227, 26, 208)" opacity="0.8771439" stroke="rgb(0, 0, 0)" stroke-opacity="1.0" stroke-linecap="round" stroke-linejoin="round"/>
    <path d="M 386.5915222167969 434.794677734375 C 439.6194152832031 450.0534362792969 373.90533447265625 477.0677795410156 301.0708923339844 418.9763488769531 C 268.08367919921875 289.7676086425781 321.0220642089844 512.352783203125 384.5903625488281 470.8012390136719 C 388.4306335449219 403.7325439453125 347.0318908691406 473.84429931640625 305.8635559082031 344.255126953125 C 392.69482421875 473.89166259765625 346.753662109375 421.14593505859375 386.5915222167969 434.794677734375" stroke-width="0.0" fill="rgb(49, 41, 137)" opacity="0.14695506" stroke="rgb(0, 0, 0)" stroke-opacity="1.0" stroke-linecap="round" stroke-linejoin="round"/>
    <path d="M 342.9985046386719 101.94236755371094 C 353.35772705078125 117.99392700195312 368.550048828125 127.1641845703125 356.8061828613281 136.9910888671875 C 368.47637939453125 106.14389038085938 334.09136962890625 46.13841247558594 282.1075439453125 49.513187408447266 C 237.46751403808594 -2.3066189289093018 270.81072998046875 -62.63114929199219 390.74407958984375 23.71363639831543 C 322.5456237792969 56.88602828979492 339.20440673828125 72.85302734375 342.9985046386719 101.94236755371094" stroke-width="0.0" fill="rgb(83, 31, 218)" opacity="0.13989834" stroke="rgb(0, 0, 0)" stroke-opacity="1.0" stroke-linecap="round" stroke-linejoin="round"/>
    <path d="M 373.0848388671875 302.6234130859375 C 125.18223571777344 245.04298400878906 106.15778350830078 359.3798828125 231.1029052734375 352.091064453125 C 259.80523681640625 377.8563537597656 317.71527099609375 386.70928955078125 290.9300842285156 341.42852783203125 C 286.7353515625 362.7434997558594 296.41632080078125 374.7989807128906 292.85174560546875 358.07781982421875 C 305.1984558105469 385.4022216796875 331.0421447753906 485.9922180175781 373.0848388671875 302.6234130859375" stroke-width="0.0" fill="rgb(223, 224, 155)" opacity="0.90484595" stroke="rgb(0, 0, 0)" stroke-opacity="1.0" stroke-linecap="round" stroke-linejoin="round"/>
    <path d="M 376.9551696777344 188.46217346191406 C 350.6863708496094 171.0943145751953 308.9520263671875 185.58128356933594 357.24224853515625 207.239501953125 C 399.82330322265625 172.61654663085938 359.23236083984375 160.65037536621094 337.7348327636719 176.960693359375 C 323.1571960449219 203.78700256347656 380.6241455078125 185.090087890625 397.8962707519531 178.95513916015625 C 370.2261962890625 178.89732360839844 386.14483642578125 175.65211486816406 376.9551696777344 188.46217346191406" stroke-width="0.0" fill="rgb(0, 0, 7)" opacity="1.0" stroke="rgb(0, 0, 0)" stroke-opacity="1.0" stroke-linecap="round" stroke-linejoin="round"/>
    <path d="M 184.59437561035156 318.1504211425781 C 159.90408325195312 440.2073974609375 160.4835205078125 297.8334045410156 159.24786376953125 348.6153564453125 C 94.6191177368164 319.5380554199219 86.08895111083984 269.7748107910156 89.23738098144531 253.47628784179688 C 29.928211212158203 185.88449096679688 64.1978988647461 172.0835723876953 104.98580932617188 190.2107696533203 C 131.6300048828125 238.23211669921875 90.2739486694336 286.2725830078125 184.59437561035156 318.1504211425781" stroke-width="0.0" fill="rgb(34, 38, 179)" opacity="0.9410638" stroke="rgb(0, 0, 0)" stroke-opacity="1.0" stroke-linecap="round" stroke-linejoin="round"/>
    <path d="M 288.88726806640625 211.75149536132812 C 304.8391418457031 200.80459594726562 301.2887268066406 209.2367401123047 286.3421630859375 242.19065856933594 C 250.8533477783203 239.93714904785156 259.25469970703125 240.30113220214844 260.79559326171875 215.0050811767578 C 237.51129150390625 172.612548828125 235.18080139160156 110.86713409423828 250.02467346191406 135.86880493164062 C 231.50950622558594 192.28758239746094 251.505615234375 209.9983673095703 288.88726806640625 211.75149536132812" stroke-width="0.0" fill="rgb(145, 90, 153)" opacity="0.47625318" stroke="rgb(0, 0, 0)" stroke-opacity="1.0" stroke-linecap="round" stroke-linejoin="round"/>
    <path d="M 151.1999969482422 312.29742431640625 C 103.29524993896484 369.9888610839844 149.36312866210938 376.67779541015625 97.80093383789062 440.8701477050781 C 30.297420501708984 377.69427490234375 24.806537628173828 360.7095947265625 -15.59649658203125 330.40740966796875 C 40.43586730957031 280.18328857421875 49.88306427001953 254.3558349609375 96.74823760986328 211.9162139892578 C 100.07410430908203 279.9686584472656 105.91787719726562 296.57464599609375 151.1999969482422 312.29742431640625" stroke-width="0.0" fill="rgb(28, 62, 197)" opacity="0.9764073" stroke="rgb(0, 0, 0)" stroke-opacity="1.0" stroke-linecap="round" stroke-linejoin="round"/>
    <path d="M 295.19097900390625 268.7525939941406 C 285.11077880859375 299.3414001464844 285.05059814453125 277.698486328125 236.47300720214844 284.1806335449219 C 226.81951904296875 278.9344482421875 257.3884582519531 261.8568115234375 252.185546875 223.72723388671875 C 265.59783935546875 225.35879516601562 246.58636474609375 238.24197387695312 247.6444549560547 211.8817138671875 C 301.4331359863281 184.9822998046875 295.6964416503906 199.38934326171875 295.19097900390625 268.7525939941406" stroke-width="0.0" fill="rgb(18, 11, 208)" opacity="0.54405206" stroke="rgb(0, 0, 0)" stroke-opacity="1.0" stroke-linecap="round" stroke-linejoin="round"/>
    <path d="M 312.1383056640625 243.57620239257812 C 306.072021484375 209.1688995361328 306.6231384277344 256.1300354003906 286.9110412597656 269.00830078125 C 247.9544219970703 251.8959197998047 266.7142028808594 264.2028503417969 242.5258026123047 186.53924560546875 C 235.763427734375 210.41268920898438 263.3101501464844 219.39881896972656 290.3468322753906 185.3196258544922 C 322.5076599121094 185.85565185546875 321.4434814453125 217.70555114746094 312.1383056640625 243.57620239257812" stroke-width="0.0" fill="rgb(0, 15, 213)" opacity="0.99174863" stroke="rgb(0, 0, 0)" stroke-opacity="1.0" stroke-linecap="round" stroke-linejoin="round"/>
    <path d="M 346.49969482421875 381.4705505371094 C 281.674560546875 364.95770263671875 279.1231689453125 393.12652587890625 301.2787780761719 425.37615966796875 C 307.83978271484375 418.4150085449219 311.1523742675781 419.2763366699219 304.2164306640625 452.14117431640625 C 304.7781066894531 464.1947021484375 392.9448547363281 474.1718444824219 360.4071350097656 437.0668640136719 C 324.8641052246094 429.8175964355469 363.4873352050781 417.84259033203125 346.49969482421875 381.4705505371094" stroke-width="0.0" fill="rgb(211, 221, 170)" opacity="0.9172443" stroke="rgb(0, 0, 0)" stroke-opacity="1.0" stroke-linecap="round" stroke-linejoin="round"/>
    <path d="M 308.95367431640625 168.6860809326172 C 317.5059509277344 214.19642639160156 299.8896179199219 225.39076232910156 274.2599182128906 218.12281799316406 C 271.6554260253906 188.4482421875 288.4259338378906 187.4215087890625 261.94940185546875 209.96229553222656 C 255.03106689453125 190.7577667236328 268.8442077636719 173.17562866210938 273.8844299316406 183.17857360839844 C 295.2279968261719 165.88987731933594 301.50482177734375 167.93142700195312 308.95367431640625 168.6860809326172" stroke-width="0.0" fill="rgb(162, 130, 26)" opacity="0.9914505" stroke="rgb(0, 0, 0)" stroke-opacity="1.0" stroke-linecap="round" stroke-linejoin="round"/>
    <path d="M 400.34765625 259.5227355957031 C 462.01617431640625 292.221923828125 451.8729553222656 342.9855651855469 371.0616149902344 350.7439270019531 C 276.1669616699219 302.7512512207031 225.8104705810547 313.8562316894531 268.76873779296875 253.7020721435547 C 348.8600769042969 224.85443115234375 352.8863830566406 276.6737365722656 347.9859619140625 233.0118865966797 C 348.6352844238281 267.5899963378906 359.29827880859375 319.6940612792969 400.34765625 259.5227355957031" stroke-width="0.0" fill="rgb(255, 45, 242)" opacity="0.9962006" stroke="rgb(0, 0, 0)" stroke-opacity="1.0" stroke-linecap="round" stroke-linejoin="round"/>
    <path d="M 217.3541259765625 372.88580322265625 C 209.62940979003906 366.19158935546875 217.00491333007812 397.5847473144531 179.0028839111328 399.4316711425781 C 156.1227264404297 418.7294616699219 144.00315856933594 430.9969787597656 137.6644287109375 380.7251281738281 C 145.6759033203125 346.5573425292969 157.19593811035156 335.22509765625 189.73129272460938 338.66009521484375 C 195.44696044921875 360.5688171386719 213.25270080566406 371.885498046875 217.3541259765625 372.88580322265625" stroke-width="0.0" fill="rgb(228, 214, 201)" opacity="0.87475216" stroke="rgb(0, 0, 0)" stroke-opacity="1.0" stroke-linecap="round" stroke-linejoin="round"/>
    <path d="M 214.02166748046875 279.7029113769531 C 199.98594665527344 289.27532958984375 192.37037658691406 311.21563720703125 179.79173278808594 298.2156066894531 C 133.68101501464844 285.72625732421875 154.55393981933594 266.8919982910156 159.51235961914062 249.38609313964844 C 154.77001953125 261.28228759765625 155.5320587158203 245.05743408203125 176.64979553222656 234.97157287597656 C 175.89259338378906 250.9212646484375 195.5687255859375 258.0110168457031 214.02166748046875 279.7029113769531" stroke-width="0.0" fill="rgb(226, 34, 238)" opacity="0.9866726" stroke="rgb(0, 0, 0)" stroke-opacity="1.0" stroke-linecap="round" stroke-linejoin="round"/>
    <path d="M 356.5094909667969 211.386474609375 C 361.35687255859375 226.03211975097656 375.8730163574219 261.4900207519531 347.5342102050781 288.7751770019531 C 324.1806335449219 274.8374328613281 313.7909851074219 294.70928955078125 311.8085021972656 248.6995391845703 C 314.2013854980469 210.23866271972656 337.7864990234375 240.91015625 310.9042663574219 267.42694091796875 C 279.6429138183594 241.55587768554688 295.0682678222656 217.7339630126953 356.5094909667969 211.386474609375" stroke-width="0.0" fill="rgb(181, 161, 49)" opacity="0.93530554" stroke="rgb(0, 0, 0)" stroke-opacity="1.0" stroke-linecap="round" stroke-linejoin="round"/>
    <path d="M 172.5512237548828 439.3691101074219 C 193.52633666992188 434.9300231933594 189.29574584960938 458.3173828125 180.625 468.2928161621094 C 101.66703796386719 472.4554443359375 146.57334899902344 454.816650390625 122.34832763671875 419.59735107421875 C 121.64041900634766 386.7059020996094 155.90765380859375 371.62548828125 180.4616241455078 397.8549499511719 C 171.6051483154297 420.24737548828125 167.7384796142578 422.1202697753906 172.5512237548828 439.3691101074219" stroke-width="0.0" fill="rgb(206, 198, 190)" opacity="0.97110355" stroke="rgb(0, 0, 0)" stroke-opacity="1.0" stroke-linecap="round" stroke-linejoin="round"/>
    <path d="M 358.62152099609375 388.5732727050781 C 348.768798828125 408.29296875 342.7862243652344 388.8439636230469 353.6482238769531 399.6041564941406 C 314.1723937988281 412.9253234863281 312.89971923828125 395.47637939453125 340.5791015625 406.8949279785156 C 343.5342712402344 404.31707763671875 356.91168212890625 391.447021484375 343.8809509277344 363.254150390625 C 364.7496337890625 364.5384216308594 370.5281066894531 368.5405578613281 358.62152099609375 388.5732727050781" stroke-width="0.0" fill="rgb(49, 50, 133)" opacity="0.7747407" stroke="rgb(0, 0, 0)" stroke-opacity="1.0" stroke-linecap="round" stroke-linejoin="round"/>
    <path d="M 186.6945343017578 424.2147216796875 C 204.60662841796875 458.9752197265625 190.56878662109375 446.2520446777344 203.74343872070312 460.572509765625 C 181.99871826171875 471.9521484375 171.7303466796875 471.6419982910156 197.2620391845703 471.0384521484375 C 193.6808319091797 414.74371337890625 175.20237731933594 424.03106689453125 173.72610473632812 444.9616394042969 C 161.15280151367188 447.917724609375 205.41036987304688 433.6253967285156 186.6945343017578 424.2147216796875" stroke-width="0.0" fill="rgb(40, 10, 148)" opacity="0.06735756" stroke="rgb(0, 0, 0)" stroke-opacity="1.0" stroke-linecap="round" stroke-linejoin="round"/>
    <path d="M 189.42669677734375 431.5952453613281 C 168.17796325683594 430.5862121582031 167.37478637695312 463.09002685546875 180.11489868164062 440.5007629394531 C 196.8898468017578 450.7449951171875 189.21676635742188 423.7701721191406 185.82638549804688 413.4037780761719 C 168.22459411621094 426.1886901855469 178.2121124267578 407.1383361816406 154.63568115234375 398.93841552734375 C 171.8111114501953 412.1578674316406 185.4749298095703 417.423828125 189.42669677734375 431.5952453613281" stroke-width="0.0" fill="rgb(127, 26, 156)" opacity="0.0" stroke="rgb(0, 0, 0)" stroke-opacity="1.0" stroke-linecap="round" stroke-linejoin="round"/>
    <path d="M 242.403564453125 214.00416564941406 C 197.1267547607422 234.17747497558594 174.7740020751953 218.2176055908203 187.14852905273438 238.28160095214844 C 186.58876037597656 280.3340148925781 177.0667724609375 271.775634765625 172.8327178955078 268.69036865234375 C 174.52870178222656 243.673583984375 196.53184509277344 253.2922821044922 190.81837463378906 236.96075439453125 C 217.62454223632812 219.37156677246094 223.16159057617188 220.8807373046875 242.403564453125 214.00416564941406" stroke-width="0.0" fill="rgb(233, 13, 251)" opacity="0.047898896" stroke="rgb(0, 0, 0)" stroke-opacity="1.0" stroke-linecap="round" stroke-linejoin="round"/>
    <path d="M 273.2049560546875 265.7477111816406 C 286.2939758300781 273.70458984375 275.2811584472656 286.6290588378906 281.7977600097656 256.7208557128906 C 286.3856201171875 267.9451904296875 247.407470703125 281.9078369140625 257.6666259765625 246.4703826904297 C 236.52911376953125 225.74371337890625 230.30126953125 218.84866333007812 298.95452880859375 214.83970642089844 C 258.85601806640625 237.318603515625 272.2715148925781 249.2379150390625 273.2049560546875 265.7477111816406" stroke-width="0.0" fill="rgb(38, 44, 250)" opacity="0.22797298" stroke="rgb(0, 0, 0)" stroke-opacity="1.0" stroke-linecap="round" stroke-linejoin="round"/>
    <path d="M 226.10337829589844 329.0188903808594 C 230.74427795410156 368.0563049316406 210.5122528076172 386.4837951660156 194.96749877929688 355.95660400390625 C 135.93698120117188 369.3685607910156 127.1030502319336 357.4668273925781 150.71240234375 334.4150695800781 C 147.8814239501953 327.5697021484375 153.7651824951172 313.70623779296875 156.85231018066406 315.0401306152344 C 171.066650390625 285.48626708984375 190.0113983154297 300.4198913574219 226.10337829589844 329.0188903808594" stroke-width="0.0" fill="rgb(208, 219, 166)" opacity="0.9958825" stroke="rgb(0, 0, 0)" stroke-opacity="1.0" stroke-linecap="round" stroke-linejoin="round"/>
    <path d="M 71.17608642578125 437.210693359375 C 78.64371490478516 458.8763427734375 95.42108917236328 470.6095275878906 101.28475952148438 435.09478759765625 C 58.291358947753906 443.30914306640625 57.33499526977539 458.2725830078125 53.12705993652344 452.8954772949219 C 56.45267868041992 445.4842834472656 54.758758544921875 438.1807556152344 70.0313949584961 450.56268310546875 C 99.10520935058594 416.692138671875 87.61239624023438 425.44854736328125 71.17608642578125 437.210693359375" stroke-width="0.0" fill="rgb(18, 8, 190)" opacity="0.022192873" stroke="rgb(0, 0, 0)" stroke-opacity="1.0" stroke-linecap="round" stroke-linejoin="round"/>
    <path d="M 459.7308654785156 458.353759765625 C 447.0693054199219 462.3834228515625 447.6685485839844 484.2012023925781 445.86492919921875 512.3035278320312 C 437.1675109863281 457.1034240722656 437.9893798828125 457.3053894042969 445.0147705078125 447.658935546875 C 419.36907958984375 453.2770080566406 438.15753173828125 431.7571716308594 452.966064453125 432.0679931640625 C 459.49761962890625 440.84100341796875 483.9414978027344 443.73919677734375 459.7308654785156 458.353759765625" stroke-width="0.0" fill="rgb(74, 44, 180)" opacity="0.0" stroke="rgb(0, 0, 0)" stroke-opacity="1.0" stroke-linecap="round" stroke-linejoin="round"/>
    <path d="M 230.2982940673828 79.05462646484375 C 234.03334045410156 91.7658920288086 246.48187255859375 113.50559997558594 188.47320556640625 136.384521484375 C 148.8914031982422 67.51480102539062 171.46649169921875 5.1210103034973145 208.21847534179688 64.49382781982422 C 203.37042236328125 74.73592376708984 194.77223205566406 34.33908462524414 224.14013671875 43.53065872192383 C 230.51022338867188 40.369388580322266 232.06298828125 79.94866943359375 230.2982940673828 79.05462646484375" stroke-width="0.0" fill="rgb(69, 4, 193)" opacity="0.0038235234" stroke="rgb(0, 0, 0)" stroke-opacity="1.0" stroke-linecap="round" stroke-linejoin="round"/>
    <path d="M 130.48268127441406 140.3108367919922 C 136.6414031982422 157.04991149902344 135.0406951904297 153.40882873535156 105.70122528076172 115.26162719726562 C 91.21099090576172 151.3391876220703 88.4504165649414 168.53321838378906 66.64241027832031 176.62339782714844 C 65.27567291259766 108.37462615966797 68.41907501220703 119.73529052734375 107.35704803466797 127.62059020996094 C 144.23854064941406 121.7153549194336 139.427978515625 120.76254272460938 130.48268127441406 140.3108367919922" stroke-width="0.0" fill="rgb(35, 70, 213)" opacity="0.06792647" stroke="rgb(0, 0, 0)" stroke-opacity="1.0" stroke-linecap="round" stroke-linejoin="round"/>
    <path d="M 114.49239349365234 446.81744384765625 C 111.90377044677734 463.79052734375 87.09649658203125 459.54449462890625 75.98892974853516 442.1200866699219 C 112.71624755859375 423.6383361816406 110.39070892333984 431.20343017578125 54.094791412353516 453.916748046875 C 76.90060424804688 435.77728271484375 51.74925994873047 425.3505554199219 63.206111907958984 458.6383056640625 C 97.25221252441406 431.2981262207031 113.25457763671875 416.0610046386719 114.49239349365234 446.81744384765625" stroke-width="0.0" fill="rgb(7, 22, 198)" opacity="0.05812432" stroke="rgb(0, 0, 0)" stroke-opacity="1.0" stroke-linecap="round" stroke-linejoin="round"/>
    <path d="M 503.3828430175781 493.4022521972656 C 480.9078674316406 551.3612670898438 487.16522216796875 558.1266479492188 452.5549621582031 552.003662109375 C 452.12982177734375 527.6365966796875 436.4937744140625 519.5142822265625 425.90191650390625 512.125732421875 C 466.1668701171875 528.48388671875 484.5480651855469 518.3379516601562 485.6336669921875 509.00604248046875 C 458.028076171875 485.7510070800781 472.2295227050781 479.0867004394531 503.3828430175781 493.4022521972656" stroke-width="0.0" fill="rgb(54, 32, 191)" opacity="0.012087028" stroke="rgb(0, 0, 0)" stroke-opacity="1.0" stroke-linecap="round" stroke-linejoin="round"/>
    <path d="M 136.1782684326172 -1.5384513139724731 C 128.88206481933594 32.41193771362305 129.2681884765625 40.52168273925781 133.9631805419922 54.84894561767578 C 134.04498291015625 42.572731018066406 137.82952880859375 43.0922737121582 149.4905242919922 42.62001037597656 C 132.26449584960938 38.77743148803711 124.02996063232422 26.81494140625 134.85012817382812 27.266887664794922 C 145.30712890625 7.0612101554870605 160.36019897460938 -9.773179054260254 136.1782684326172 -1.5384513139724731" stroke-width="0.0" fill="rgb(69, 49, 209)" opacity="0.027247436" stroke="rgb(0, 0, 0)" stroke-opacity="1.0" stroke-linecap="round" stroke-linejoin="round"/>
    <path d="M 28.971534729003906 329.8773498535156 C 51.79962158203125 307.25286865234375 24.599336624145508 313.0487365722656 40.147911071777344 348.10955810546875 C 16.543495178222656 339.2694396972656 -3.4301207065582275 334.71368408203125 -6.285661220550537 298.5653076171875 C -3.6722309589385986 302.14752197265625 14.42434024810791 298.31610107421875 34.75606155395508 302.16253662109375 C 52.541996002197266 307.14501953125 55.258113861083984 310.9658203125 28.971534729003906 329.8773498535156" stroke-width="0.0" fill="rgb(30, 63, 171)" opacity="0.06256385" stroke="rgb(0, 0, 0)" stroke-opacity="1.0" stroke-linecap="round" stroke-linejoin="round"/>
    <path d="M 400.4243469238281 435.1173400878906 C 421.43951416015625 455.4892272949219 414.14666748046875 439.0038146972656 413.2237854003906 463.7113952636719 C 398.6547546386719 457.5963134765625 393.6074523925781 435.0565490722656 397.11279296875 422.5824279785156 C 404.49871826171875 424.3432922363281 384.9078369140625 438.6422119140625 368.8931579589844 443.24444580078125 C 421.33404541015625 435.52154541015625 408.9660339355469 424.3973083496094 400.4243469238281 435.1173400878906" stroke-width="0.0" fill="rgb(35, 47, 182)" opacity="0.0" stroke="rgb(0, 0, 0)" stroke-opacity="1.0" stroke-linecap="round" stroke-linejoin="round"/>
    <path d="M 122.35145568847656 464.1426696777344 C 134.0162811279297 451.0311584472656 120.4337158203125 448.8830871582031 84.71818542480469 449.5068054199219 C 93.72854614257812 448.1327819824219 79.13400268554688 461.8704833984375 87.88739013671875 429.0342102050781 C 94.37364959716797 440.8304748535156 124.25299835205078 443.3310241699219 141.94003295898438 433.2176818847656 C 118.06208038330078 414.9907531738281 118.12129974365234 457.5943603515625 122.35145568847656 464.1426696777344" stroke-width="0.0" fill="rgb(17, 41, 191)" opacity="0.9822355" stroke="rgb(0, 0, 0)" stroke-opacity="1.0" stroke-linecap="round" stroke-linejoin="round"/>
    <path d="M 232.56805419921875 39.77585220336914 C 255.7396240234375 78.47166442871094 271.6061706542969 74.46741485595703 242.6421356201172 47.68653106689453 C 230.05677795410156 44.44597244262695 223.73904418945312 43.3858528137207 215.27748107910156 34.299903869628906 C 207.10537719726562 21.17652130126953 222.15225219726562 23.659286499023438 250.26187133789062 37.502296447753906 C 257.10955810546875 -3.1894516944885254 277.6976623535156 12.29687786102295 232.56805419921875 39.77585220336914" stroke-width="0.0" fill="rgb(77, 11, 219)" opacity="0.001522355" stroke="rgb(0, 0, 0)" stroke-opacity="1.0" stroke-linecap="round" stroke-linejoin="round"/>
    <path d="M 120.948974609375 318.29931640625 C 124.33615112304688 336.3372802734375 110.0727767944336 352.7326965332031 110.93464660644531 350.8936767578125 C 115.28321838378906 350.6769714355469 85.51554870605469 345.62445068359375 96.21111297607422 325.1981506347656 C 99.84608459472656 337.0939636230469 119.43452453613281 346.9578552246094 117.28475952148438 336.8011169433594 C 120.24342346191406 325.5066223144531 134.44692993164062 325.3131103515625 120.948974609375 318.29931640625" stroke-width="0.0" fill="rgb(63, 44, 188)" opacity="0.020948172" stroke="rgb(0, 0, 0)" stroke-opacity="1.0" stroke-linecap="round" stroke-linejoin="round"/>
    <path d="M 534.7271118164062 220.344970703125 C 496.3145751953125 248.99539184570312 498.0859680175781 221.3779296875 486.34930419921875 227.24954223632812 C 473.2854309082031 248.18991088867188 466.9896240234375 241.91268920898438 460.39776611328125 201.80374145507812 C 508.66607666015625 206.5283203125 506.0198059082031 212.40635681152344 512.7786865234375 201.3856201171875 C 508.3159484863281 169.1662139892578 526.5618896484375 184.61439514160156 534.7271118164062 220.344970703125" stroke-width="0.0" fill="rgb(76, 32, 188)" opacity="0.03798051" stroke="rgb(0, 0, 0)" stroke-opacity="1.0" stroke-linecap="round" stroke-linejoin="round"/>
    <path d="M 510.8778076171875 24.705427169799805 C 527.1682739257812 83.08719635009766 527.1968994140625 118.73680114746094 513.0064697265625 108.55751037597656 C 509.1587829589844 34.631080627441406 499.41534423828125 64.62055206298828 464.06561279296875 96.16513061523438 C 509.7989807128906 101.98011016845703 509.5168151855469 97.27982330322266 493.5303039550781 45.264930725097656 C 484.8160400390625 48.17902374267578 477.5959777832031 73.36998748779297 510.8778076171875 24.705427169799805" stroke-width="0.0" fill="rgb(105, 35, 167)" opacity="0.056725547" stroke="rgb(0, 0, 0)" stroke-opacity="1.0" stroke-linecap="round" stroke-linejoin="round"/>
    <path d="M 13.108294486999512 202.9099884033203 C 56.53879928588867 217.61618041992188 57.04600143432617 212.1143035888672 7.150427341461182 206.19967651367188 C 38.8557243347168 231.6622314453125 29.806720733642578 224.39625549316406 74.7742919921875 195.37088012695312 C 27.341564178466797 168.26809692382812 22.0838565826416 147.7318115234375 36.393760681152344 197.7361602783203 C 43.91001892089844 194.21897888183594 55.51918411254883 200.11959838867188 13.108294486999512 202.9099884033203" stroke-width="0.0" fill="rgb(18, 53, 220)" opacity="0.1260771" stroke="rgb(0, 0, 0)" stroke-opacity="1.0" stroke-linecap="round" stroke-linejoin="round"/>
    <path d="M 151.27066040039062 354.626953125 C 122.54236602783203 355.05206298828125 117.25556182861328 346.3786926269531 133.05723571777344 332.67803955078125 C 85.53288269042969 332.236083984375 67.69510650634766 327.43792724609375 99.09677124023438 329.74981689453125 C 111.44491577148438 322.25146484375 115.59943389892578 294.47174072265625 112.70254516601562 303.7524108886719 C 137.57888793945312 318.95635986328125 159.36155700683594 349.16754150390625 151.27066040039062 354.626953125" stroke-width="0.0" fill="rgb(30, 17, 205)" opacity="0.041771777" stroke="rgb(0, 0, 0)" stroke-opacity="1.0" stroke-linecap="round" stroke-linejoin="round"/>
    <path d="M 24.672691345214844 39.43115997314453 C 39.969520568847656 86.25605010986328 8.80662727355957 95.37358093261719 29.550458908081055 109.54178619384766 C -11.594507217407227 123.29400634765625 -11.476825714111328 100.58543395996094 -10.402020454406738 87.79066467285156 C -4.51749324798584 72.53147888183594 -3.393394708633423 67.30802917480469 31.795656204223633 90.2573471069336 C 40.230342864990234 64.94770812988281 33.85602569580078 54.563167572021484 24.672691345214844 39.43115997314453" stroke-width="0.0" fill="rgb(79, 46, 221)" opacity="0.00033879123" stroke="rgb(0, 0, 0)" stroke-opacity="1.0" stroke-linecap="round" stroke-linejoin="round"/>
    <path d="M 120.1746826171875 167.41522216796875 C 141.3015594482422 168.7965087890625 125.76622009277344 170.57205200195312 147.67190551757812 178.1148223876953 C 148.13621520996094 175.35824584960938 136.76901245117188 186.22406005859375 174.13461303710938 174.30828857421875 C 160.3042449951172 197.6380157470703 153.71365356445312 145.29945373535156 156.56723022460938 167.32664489746094 C 179.63108825683594 153.39852905273438 166.91802978515625 156.09544372558594 120.1746826171875 167.41522216796875" stroke-width="0.0" fill="rgb(14, 51, 210)" opacity="0.04222104" stroke="rgb(0, 0, 0)" stroke-opacity="1.0" stroke-linecap="round" stroke-linejoin="round"/>
    <path d="M 200.27464294433594 356.0716247558594 C 194.63775634765625 390.6246643066406 201.28907775878906 407.2728271484375 191.0751495361328 402.9747314453125 C 168.375732421875 393.291748046875 179.16053771972656 385.58819580078125 173.3282928466797 403.5363464355469 C 179.74700927734375 379.8891906738281 168.18150329589844 353.8222961425781 184.1050262451172 353.7958068847656 C 202.16845703125 362.15087890625 201.26583862304688 366.7943115234375 200.27464294433594 356.0716247558594" stroke-width="0.0" fill="rgb(174, 217, 190)" opacity="0.00023963119" stroke="rgb(0, 0, 0)" stroke-opacity="1.0" stroke-linecap="round" stroke-linejoin="round"/>
    <path d="M 58.51081848144531 195.5677032470703 C 64.60057830810547 204.47738647460938 63.41545867919922 230.91358947753906 41.55545425415039 215.11827087402344 C -1.7729154825210571 223.61245727539062 -15.14406967163086 228.36537170410156 -20.878252029418945 197.63426208496094 C 7.178394317626953 189.12794494628906 34.076141357421875 188.18356323242188 26.28032684326172 196.49974060058594 C 11.14510726928711 174.84295654296875 40.90898895263672 172.3604736328125 58.51081848144531 195.5677032470703" stroke-width="0.0" fill="rgb(44, 50, 198)" opacity="6.53214e-05" stroke="rgb(0, 0, 0)" stroke-opacity="1.0" stroke-linecap="round" stroke-linejoin="round"/>
    <path d="M 86.46685791015625 64.32839965820312 C 108.47549438476562 32.443050384521484 115.02092742919922 42.036521911621094 88.5950927734375 16.409269332885742 C 31.885696411132812 71.64291381835938 42.35453796386719 84.64248657226562 54.976802825927734 22.585386276245117 C 24.854000091552734 34.27735900878906 61.55232620239258 10.400797843933105 71.63489532470703 29.796751022338867 C 64.40434265136719 43.13307571411133 77.72319793701172 38.058311462402344 86.46685791015625 64.32839965820312" stroke-width="0.0" fill="rgb(25, 44, 167)" opacity="0.00025456818" stroke="rgb(0, 0, 0)" stroke-opacity="1.0" stroke-linecap="round" stroke-linejoin="round"/>
    <path d="M 104.62808227539062 218.82369995117188 C 92.8372802734375 228.58187866210938 52.54924392700195 218.8678436279297 17.01984977722168 214.5274658203125 C 29.264097213745117 184.16592407226562 5.369948863983154 160.3534393310547 -10.937225341796875 175.90025329589844 C 3.8223047256469727 213.57339477539062 26.55837059020996 196.50669860839844 56.520416259765625 203.5987548828125 C 60.38386535644531 171.35379028320312 113.25474548339844 152.10879516601562 104.62808227539062 218.82369995117188" stroke-width="0.0" fill="rgb(58, 40, 139)" opacity="0.08596124" stroke="rgb(0, 0, 0)" stroke-opacity="1.0" stroke-linecap="round" stroke-linejoin="round"/>
    <path d="M 360.2378845214844 331.4250793457031 C 355.9632263183594 362.630859375 317.6063232421875 355.2873229980469 320.5199279785156 329.50225830078125 C 324.20257568359375 342.6918029785156 287.7438049316406 340.8070373535156 293.2953186035156 328.4071960449219 C 266.4969177246094 328.6364440917969 270.89093017578125 298.5641174316406 299.38250732421875 284.9929504394531 C 311.05401611328125 307.9234619140625 333.2298278808594 301.9323425292969 360.2378845214844 331.4250793457031" stroke-width="0.0" fill="rgb(255, 29, 253)" opacity="0.9994773" stroke="rgb(0, 0, 0)" stroke-opacity="1.0" stroke-linecap="round" stroke-linejoin="round"/>
    <path d="M 366.16815185546875 466.7704772949219 C 396.48052978515625 435.3780212402344 372.3196105957031 418.15496826171875 386.45648193359375 421.2875671386719 C 395.9097595214844 447.8319396972656 350.0351867675781 428.489990234375 371.2240295410156 418.22796630859375 C 353.5331726074219 416.316650390625 328.0235900878906 427.4358825683594 389.2904968261719 421.9213562011719 C 379.1766662597656 414.972412109375 370.448486328125 424.2779235839844 366.16815185546875 466.7704772949219" stroke-width="0.0" fill="rgb(64, 77, 249)" opacity="0.0" stroke="rgb(0, 0, 0)" stroke-opacity="1.0" stroke-linecap="round" stroke-linejoin="round"/>
    <path d="M 334.13739013671875 438.7445373535156 C 342.2686767578125 428.19873046875 330.6117858886719 426.4947814941406 340.8154296875 427.03466796875 C 334.2850646972656 429.9095458984375 312.33154296875 427.826171875 315.3454284667969 408.3800964355469 C 308.6313781738281 407.4518127441406 322.4688720703125 412.0485534667969 338.13702392578125 416.4405517578125 C 337.0158996582031 386.8368835449219 330.2184753417969 408.41534423828125 334.13739013671875 438.7445373535156" stroke-width="0.0" fill="rgb(202, 221, 54)" opacity="0.08843692" stroke="rgb(0, 0, 0)" stroke-opacity="1.0" stroke-linecap="round" stroke-linejoin="round"/>
    <path d="M 505.9511413574219 223.1502227783203 C 516.2603759765625 224.08477783203125 511.9891357421875 248.64828491210938 478.9287109375 261.52923583984375 C 487.26641845703125 243.03253173828125 496.10491943359375 237.11630249023438 508.810546875 216.9639434814453 C 479.2230224609375 222.79351806640625 496.8661193847656 213.97299194335938 500.38629150390625 225.26417541503906 C 482.71746826171875 230.03219604492188 499.2787170410156 217.8424530029297 505.9511413574219 223.1502227783203" stroke-width="0.0" fill="rgb(57, 46, 139)" opacity="0.0" stroke="rgb(0, 0, 0)" stroke-opacity="1.0" stroke-linecap="round" stroke-linejoin="round"/>
    <path d="M 470.4884033203125 134.0243682861328 C 489.978759765625 171.54019165039062 439.9645080566406 188.39234924316406 465.4649658203125 193.81649780273438 C 403.38970947265625 209.77304077148438 382.154296875 198.78126525878906 360.8505859375 144.12965393066406 C 376.22161865234375 146.78323364257812 380.7760009765625 203.67236328125 439.1037902832031 198.5135498046875 C 474.7854919433594 148.6011505126953 437.10284423828125 110.11090850830078 470.4884033203125 134.0243682861328" stroke-width="0.0" fill="rgb(160, 132, 21)" opacity="0.9071467" stroke="rgb(0, 0, 0)" stroke-opacity="1.0" stroke-linecap="round" stroke-linejoin="round"/>
  </g>
</svg>
