<?xml version="1.0" ?>
<svg xmlns="http://www.w3.org/2000/svg" version="1.1" width="512" height="512">
  <defs/>
  <g>
    <path d="M 254.2160186767578 338.9234313964844 C 188.77915954589844 498.7599792480469 223.15049743652344 341.07403564453125 127.69202423095703 436.3237609863281 C 62.78175354003906 448.6672668457031 -8.269643783569336 280.3880310058594 91.0201644897461 163.81103515625 C 153.54852294921875 352.3331604003906 120.76133728027344 321.6005859375 94.70257568359375 353.2691955566406 C 97.11653137207031 368.78265380859375 65.77338409423828 329.7858581542969 254.2160186767578 338.9234313964844" stroke-width="0.0" fill="rgb(2, 2, 40)" opacity="0.99941105" stroke="rgb(0, 0, 0)" stroke-opacity="1.0" stroke-linecap="round" stroke-linejoin="round"/>
    <path d="M 180.07513427734375 236.4210968017578 C 215.9136962890625 269.49078369140625 128.0651397705078 243.2447052001953 170.1543731689453 293.2980041503906 C 139.0475311279297 303.5479736328125 79.19086456298828 270.8144226074219 82.87788391113281 237.51072692871094 C 107.45305633544922 234.71580505371094 6.320194244384766 222.7083740234375 136.63792419433594 208.50355529785156 C 172.0279083251953 274.2723083496094 206.76675415039062 251.56381225585938 180.07513427734375 236.4210968017578" stroke-width="0.0" fill="rgb(80, 8, 55)" opacity="0.8424575" stroke="rgb(0, 0, 0)" stroke-opacity="1.0" stroke-linecap="round" stroke-linejoin="round"/>
    <path d="M 407.27606201171875 235.21888732910156 C 418.0867614746094 346.46380615234375 229.85861206054688 253.52780151367188 372.8995666503906 227.65235900878906 C 397.72430419921875 199.51467895507812 317.67437744140625 133.47218322753906 278.2555847167969 358.1911315917969 C 225.63906860351562 208.7320098876953 325.6659240722656 218.60316467285156 395.7086181640625 219.34283447265625 C 446.2160339355469 238.7548370361328 415.79718017578125 241.50534057617188 407.27606201171875 235.21888732910156" stroke-width="0.0" fill="rgb(91, 0, 116)" opacity="0.77268505" stroke="rgb(0, 0, 0)" stroke-opacity="1.0" stroke-linecap="round" stroke-linejoin="round"/>
    <path d="M 206.3175811767578 207.74322509765625 C 149.59364318847656 260.39654541015625 204.44287109375 220.87864685058594 84.8639144897461 252.4332733154297 C 37.96760177612305 211.84361267089844 141.04847717285156 173.5696258544922 159.9287109375 232.44171142578125 C 184.85739135742188 226.8394317626953 181.61801147460938 209.6433563232422 210.04978942871094 199.10250854492188 C 174.99432373046875 99.87117767333984 166.3505096435547 105.90187072753906 206.3175811767578 207.74322509765625" stroke-width="0.0" fill="rgb(0, 7, 46)" opacity="0.92119706" stroke="rgb(0, 0, 0)" stroke-opacity="1.0" stroke-linecap="round" stroke-linejoin="round"/>
    <path d="M 571.28076171875 343.2140808105469 C 561.1565551757812 418.8812561035156 414.28314208984375 383.8944396972656 450.8165283203125 478.65606689453125 C 303.2924499511719 317.5899353027344 352.99560546875 433.5370178222656 281.029052734375 265.603271484375 C 432.41839599609375 367.2998046875 314.2041015625 334.4037170410156 398.62225341796875 344.512451171875 C 439.3452453613281 355.8946838378906 396.8724060058594 375.5749206542969 571.28076171875 343.2140808105469" stroke-width="0.0" fill="rgb(83, 43, 199)" opacity="0.66726524" stroke="rgb(0, 0, 0)" stroke-opacity="1.0" stroke-linecap="round" stroke-linejoin="round"/>
    <path d="M 433.0927429199219 172.68460083007812 C 460.71844482421875 308.4312744140625 501.2191467285156 345.4971008300781 488.4091491699219 414.9932556152344 C 450.37054443359375 290.9938049316406 457.17626953125 334.11126708984375 412.2366638183594 168.55087280273438 C 474.71575927734375 114.0693588256836 470.49322509765625 -22.31026840209961 484.376708984375 66.28780364990234 C 446.1021423339844 177.13259887695312 456.98858642578125 122.7099609375 433.0927429199219 172.68460083007812" stroke-width="0.0" fill="rgb(0, 0, 44)" opacity="1.0" stroke="rgb(0, 0, 0)" stroke-opacity="1.0" stroke-linecap="round" stroke-linejoin="round"/>
    <path d="M 321.5711975097656 310.3891906738281 C 292.0043029785156 330.8722229003906 322.5406799316406 393.0642395019531 329.1664733886719 357.3916015625 C 316.4357604980469 343.0382080078125 371.4619445800781 335.4034423828125 320.66119384765625 325.9261169433594 C 307.8891296386719 296.10302734375 295.61846923828125 262.864990234375 308.908447265625 210.9424591064453 C 321.3099365234375 231.55422973632812 291.1392517089844 291.6844787597656 321.5711975097656 310.3891906738281" stroke-width="0.0" fill="rgb(191, 207, 255)" opacity="0.9549662" stroke="rgb(0, 0, 0)" stroke-opacity="1.0" stroke-linecap="round" stroke-linejoin="round"/>
    <path d="M 365.6645202636719 281.1799621582031 C 389.34063720703125 226.46002197265625 406.51910400390625 251.0960693359375 413.2607727050781 223.10931396484375 C 364.2242126464844 193.93345642089844 337.3313903808594 194.54226684570312 320.7161560058594 218.56448364257812 C 340.6614074707031 229.06068420410156 353.4511413574219 206.3822021484375 333.7184143066406 197.7075958251953 C 290.21966552734375 252.72683715820312 274.4539489746094 258.5151062011719 365.6645202636719 281.1799621582031" stroke-width="0.0" fill="rgb(0, 0, 54)" opacity="1.0" stroke="rgb(0, 0, 0)" stroke-opacity="1.0" stroke-linecap="round" stroke-linejoin="round"/>
    <path d="M 47.38811492919922 107.98677825927734 C 79.41841125488281 242.74154663085938 58.415771484375 116.34444427490234 213.6888885498047 113.01011657714844 C 38.824127197265625 185.80233764648438 100.84236907958984 313.04827880859375 41.608760833740234 66.60459899902344 C 17.214332580566406 -74.68470764160156 10.428645133972168 -37.12455749511719 154.8822479248047 127.77989959716797 C 17.62938117980957 36.41368865966797 26.92695426940918 -14.0552339553833 47.38811492919922 107.98677825927734" stroke-width="0.0" fill="rgb(64, 18, 52)" opacity="0.7737176" stroke="rgb(0, 0, 0)" stroke-opacity="1.0" stroke-linecap="round" stroke-linejoin="round"/>
    <path d="M 255.8557891845703 331.4317626953125 C 196.14784240722656 334.8899841308594 297.56097412109375 307.3063049316406 280.12652587890625 332.69329833984375 C 41.1266975402832 362.8147888183594 163.2284698486328 312.17242431640625 188.56460571289062 259.74481201171875 C 173.1631622314453 187.27127075195312 202.58883666992188 226.79681396484375 199.82089233398438 271.3752136230469 C 256.8478698730469 279.5147705078125 266.64129638671875 270.5303649902344 255.8557891845703 331.4317626953125" stroke-width="0.0" fill="rgb(60, 30, 134)" opacity="0.82995737" stroke="rgb(0, 0, 0)" stroke-opacity="1.0" stroke-linecap="round" stroke-linejoin="round"/>
    <path d="M 382.5684509277344 227.474853515625 C 404.7261047363281 239.1703643798828 380.8511962890625 275.79571533203125 371.4198913574219 268.4771728515625 C 372.25738525390625 271.7039794921875 338.4756774902344 265.7629089355469 312.7961730957031 243.2362060546875 C 345.89794921875 224.29135131835938 346.5768127441406 306.87335205078125 398.5077209472656 257.72625732421875 C 420.2813720703125 227.91075134277344 365.71588134765625 234.0071258544922 382.5684509277344 227.474853515625" stroke-width="0.0" fill="rgb(253, 218, 49)" opacity="0.96847314" stroke="rgb(0, 0, 0)" stroke-opacity="1.0" stroke-linecap="round" stroke-linejoin="round"/>
    <path d="M 492.3783264160156 -22.756837844848633 C 317.6129455566406 81.94615173339844 364.5494079589844 108.52572631835938 263.3804931640625 115.69944763183594 C 133.8209991455078 97.57391357421875 187.3741912841797 66.93282318115234 -3.0150811672210693 -23.890531539916992 C 258.4743957519531 5.012062072753906 150.25592041015625 85.67271423339844 275.9111633300781 76.51742553710938 C 339.4588317871094 54.7735710144043 375.1940612792969 -16.22764015197754 492.3783264160156 -22.756837844848633" stroke-width="0.0" fill="rgb(55, 22, 55)" opacity="0.8847827" stroke="rgb(0, 0, 0)" stroke-opacity="1.0" stroke-linecap="round" stroke-linejoin="round"/>
    <path d="M 365.8038330078125 400.1297912597656 C 153.29971313476562 462.33331298828125 230.95211791992188 326.7619934082031 129.45733642578125 410.96923828125 C 106.41897583007812 405.0157165527344 164.64175415039062 350.9648742675781 152.9200897216797 361.8839416503906 C 150.447998046875 355.2077331542969 165.22402954101562 312.35546875 202.84828186035156 306.26361083984375 C 292.6929016113281 295.677001953125 369.8971252441406 305.02264404296875 365.8038330078125 400.1297912597656" stroke-width="0.0" fill="rgb(234, 185, 253)" opacity="0.8495286" stroke="rgb(0, 0, 0)" stroke-opacity="1.0" stroke-linecap="round" stroke-linejoin="round"/>
    <path d="M 484.50213623046875 68.6445083618164 C 462.4715881347656 52.28004837036133 457.634521484375 34.848148345947266 475.5342712402344 40.272029876708984 C 459.03375244140625 43.004974365234375 467.5705261230469 43.03525161743164 460.39630126953125 92.57892608642578 C 468.380615234375 10.790326118469238 445.7993469238281 -34.0582275390625 474.0070495605469 -62.205135345458984 C 473.1242980957031 1.0577622652053833 478.8904113769531 37.67478942871094 484.50213623046875 68.6445083618164" stroke-width="0.0" fill="rgb(0, 5, 31)" opacity="1.0" stroke="rgb(0, 0, 0)" stroke-opacity="1.0" stroke-linecap="round" stroke-linejoin="round"/>
    <path d="M 435.4054870605469 29.186351776123047 C 318.86773681640625 138.61264038085938 422.2572937011719 128.36000061035156 404.02008056640625 156.61839294433594 C 283.171142578125 74.56744384765625 307.0021057128906 150.6419677734375 351.6072082519531 36.23392868041992 C 348.7359924316406 77.3475112915039 381.2133483886719 -10.190300941467285 343.3241882324219 124.96022033691406 C 367.0389709472656 113.36927795410156 434.91912841796875 -23.092880249023438 435.4054870605469 29.186351776123047" stroke-width="0.0" fill="rgb(88, 26, 27)" opacity="0.62607145" stroke="rgb(0, 0, 0)" stroke-opacity="1.0" stroke-linecap="round" stroke-linejoin="round"/>
    <path d="M 465.61004638671875 415.86407470703125 C 450.7505187988281 394.393798828125 513.0455932617188 522.0850830078125 398.9774475097656 515.44189453125 C 374.2087707519531 363.76513671875 451.34271240234375 461.8058776855469 405.90509033203125 351.1260681152344 C 558.6902465820312 468.0118408203125 345.2894592285156 383.5679931640625 420.46453857421875 347.0384826660156 C 480.1817626953125 390.7977600097656 498.88079833984375 417.7093200683594 465.61004638671875 415.86407470703125" stroke-width="0.0" fill="rgb(233, 93, 144)" opacity="0.9768136" stroke="rgb(0, 0, 0)" stroke-opacity="1.0" stroke-linecap="round" stroke-linejoin="round"/>
    <path d="M 469.7237548828125 30.01018524169922 C 466.76409912109375 19.451902389526367 472.392333984375 31.009824752807617 413.63238525390625 149.32489013671875 C 392.9405822753906 133.03091430664062 409.4363098144531 132.43418884277344 438.37109375 -6.548929691314697 C 457.6062316894531 10.613917350769043 445.1835021972656 40.79914093017578 440.378173828125 95.74319458007812 C 483.4666442871094 38.24429702758789 457.22442626953125 10.997848510742188 469.7237548828125 30.01018524169922" stroke-width="0.0" fill="rgb(6, 1, 60)" opacity="1.0" stroke="rgb(0, 0, 0)" stroke-opacity="1.0" stroke-linecap="round" stroke-linejoin="round"/>
    <path d="M 407.23150634765625 402.2471008300781 C 451.1354675292969 442.37506103515625 418.0640869140625 500.02838134765625 347.8968505859375 532.363525390625 C 248.4983673095703 459.4127502441406 133.73312377929688 404.65399169921875 179.5639190673828 393.16436767578125 C 278.37518310546875 404.1681213378906 274.5006103515625 401.63671875 272.04840087890625 389.14013671875 C 289.08929443359375 404.1793518066406 333.21221923828125 429.8304138183594 407.23150634765625 402.2471008300781" stroke-width="0.0" fill="rgb(104, 0, 87)" opacity="0.48357338" stroke="rgb(0, 0, 0)" stroke-opacity="1.0" stroke-linecap="round" stroke-linejoin="round"/>
    <path d="M 184.29310607910156 325.50250244140625 C 298.93487548828125 284.908935546875 342.0136413574219 300.00390625 278.0937194824219 339.69580078125 C 205.77992248535156 361.25482177734375 255.53944396972656 326.2525939941406 217.14376831054688 249.65232849121094 C 156.83470153808594 234.53286743164062 129.88136291503906 238.07115173339844 153.1334686279297 266.8695068359375 C 159.33358764648438 345.7652893066406 158.85476684570312 306.3863525390625 184.29310607910156 325.50250244140625" stroke-width="0.0" fill="rgb(237, 203, 254)" opacity="0.9994011" stroke="rgb(0, 0, 0)" stroke-opacity="1.0" stroke-linecap="round" stroke-linejoin="round"/>
    <path d="M 542.4893798828125 396.0350036621094 C 475.51708984375 550.6815795898438 431.55230712890625 493.7272644042969 442.9426574707031 403.4701843261719 C 445.8216552734375 383.5479431152344 441.80560302734375 376.61212158203125 449.0916748046875 387.785888671875 C 489.5327453613281 396.7495422363281 446.40814208984375 396.9710388183594 445.62445068359375 392.0611267089844 C 539.5883178710938 408.64501953125 473.3923645019531 378.6600036621094 542.4893798828125 396.0350036621094" stroke-width="0.0" fill="rgb(146, 149, 71)" opacity="0.9142432" stroke="rgb(0, 0, 0)" stroke-opacity="1.0" stroke-linecap="round" stroke-linejoin="round"/>
    <path d="M 304.90545654296875 397.2003479003906 C 278.1421813964844 353.8134765625 239.92079162597656 362.2779235839844 248.27676391601562 353.9735107421875 C 248.85292053222656 368.04852294921875 237.18687438964844 330.9770812988281 233.37342834472656 382.5224304199219 C 202.62428283691406 417.5052185058594 213.88742065429688 386.47662353515625 270.40728759765625 289.73358154296875 C 289.3145751953125 386.46435546875 342.6291198730469 391.68988037109375 304.90545654296875 397.2003479003906" stroke-width="0.0" fill="rgb(34, 80, 255)" opacity="0.5958826" stroke="rgb(0, 0, 0)" stroke-opacity="1.0" stroke-linecap="round" stroke-linejoin="round"/>
    <path d="M 44.07470703125 -4.977203369140625 C 27.534608840942383 16.08460235595703 39.83259582519531 136.0266571044922 79.81719207763672 203.83541870117188 C 77.0542984008789 285.7802734375 36.41582107543945 28.366003036499023 45.07482147216797 39.362117767333984 C 27.89011573791504 5.119856357574463 22.30231475830078 -27.291641235351562 114.35758209228516 27.037145614624023 C 147.60520935058594 100.1082534790039 79.2664794921875 -1.912016749382019 44.07470703125 -4.977203369140625" stroke-width="0.0" fill="rgb(186, 110, 62)" opacity="0.77758104" stroke="rgb(0, 0, 0)" stroke-opacity="1.0" stroke-linecap="round" stroke-linejoin="round"/>
    <path d="M 189.2827911376953 58.694393157958984 C 169.2377471923828 51.626163482666016 178.93235778808594 31.605239868164062 183.32861328125 44.57999801635742 C 155.07420349121094 34.99056625366211 141.674072265625 27.493478775024414 99.42815399169922 -12.925827026367188 C 105.32174682617188 -21.168041229248047 99.33128356933594 -26.98932456970215 154.39308166503906 -48.700130462646484 C 193.1407928466797 -22.02740478515625 207.24876403808594 -16.38923454284668 189.2827911376953 58.694393157958984" stroke-width="0.0" fill="rgb(254, 255, 255)" opacity="1.0" stroke="rgb(0, 0, 0)" stroke-opacity="1.0" stroke-linecap="round" stroke-linejoin="round"/>
    <path d="M 149.73812866210938 311.0378112792969 C 148.5402374267578 363.6934814453125 134.69705200195312 362.50970458984375 100.43963623046875 371.22503662109375 C 89.38665008544922 345.5675964355469 93.90753936767578 349.2249755859375 42.15318298339844 355.88946533203125 C 32.05207824707031 292.6462097167969 49.26471710205078 258.3119812011719 85.82626342773438 248.306884765625 C 123.70323944091797 270.3550720214844 129.66336059570312 276.4078369140625 149.73812866210938 311.0378112792969" stroke-width="0.0" fill="rgb(87, 57, 44)" opacity="0.9087798" stroke="rgb(0, 0, 0)" stroke-opacity="1.0" stroke-linecap="round" stroke-linejoin="round"/>
    <path d="M 96.4948501586914 249.1906280517578 C 77.58319091796875 238.3188018798828 80.55415344238281 218.4357452392578 102.34129333496094 234.52481079101562 C 93.88963317871094 245.447265625 71.86212158203125 314.69842529296875 12.681102752685547 288.86614990234375 C 13.022445678710938 151.27845764160156 73.07878112792969 91.34959411621094 73.14845275878906 215.0985107421875 C 81.77539825439453 245.82931518554688 94.68557739257812 226.59909057617188 96.4948501586914 249.1906280517578" stroke-width="0.0" fill="rgb(255, 255, 255)" opacity="1.0" stroke="rgb(0, 0, 0)" stroke-opacity="1.0" stroke-linecap="round" stroke-linejoin="round"/>
    <path d="M 285.5400390625 99.23750305175781 C 248.9126434326172 152.43270874023438 264.5892028808594 182.9990234375 218.93319702148438 229.07164001464844 C 161.7932586669922 181.4497833251953 150.8566131591797 179.0068359375 155.1800994873047 140.482421875 C 167.75531005859375 53.625823974609375 187.2339630126953 79.13892364501953 217.1701202392578 102.68025970458984 C 245.4259490966797 100.57829284667969 299.1462707519531 85.27702331542969 285.5400390625 99.23750305175781" stroke-width="0.0" fill="rgb(183, 88, 18)" opacity="1.0" stroke="rgb(0, 0, 0)" stroke-opacity="1.0" stroke-linecap="round" stroke-linejoin="round"/>
    <path d="M 310.96978759765625 346.5705871582031 C 316.3977966308594 330.4156188964844 358.7075500488281 372.72296142578125 338.0397033691406 373.0809020996094 C 280.0809326171875 339.7081604003906 241.8556671142578 354.5985107421875 244.35435485839844 332.6893310546875 C 307.2608337402344 353.1727600097656 304.9704895019531 304.1528625488281 310.61480712890625 336.62823486328125 C 354.8130187988281 332.8520812988281 316.45263671875 388.41943359375 310.96978759765625 346.5705871582031" stroke-width="0.0" fill="rgb(91, 241, 239)" opacity="0.8057777" stroke="rgb(0, 0, 0)" stroke-opacity="1.0" stroke-linecap="round" stroke-linejoin="round"/>
    <path d="M 24.02867889404297 432.3535461425781 C -8.112994194030762 398.94183349609375 113.20267486572266 358.9222412109375 50.055519104003906 365.3905944824219 C -18.74208641052246 424.2108154296875 4.372817039489746 394.8431701660156 91.57844543457031 349.0556945800781 C -51.61504364013672 357.47552490234375 -7.4198384284973145 358.9505920410156 80.51116180419922 363.4330749511719 C 70.97023010253906 369.9842529296875 74.42198944091797 356.9345703125 24.02867889404297 432.3535461425781" stroke-width="0.0" fill="rgb(78, 111, 21)" opacity="0.035901655" stroke="rgb(0, 0, 0)" stroke-opacity="1.0" stroke-linecap="round" stroke-linejoin="round"/>
    <path d="M 344.5606384277344 391.9365234375 C 338.0224914550781 387.2984313964844 332.6690979003906 416.1242370605469 335.3667297363281 380.4337158203125 C 318.988525390625 388.4820251464844 305.6126403808594 398.37030029296875 318.5411376953125 388.0999755859375 C 320.4316101074219 412.7948913574219 280.2329406738281 412.9906005859375 325.9872741699219 389.6893615722656 C 337.6678466796875 352.2361145019531 348.81304931640625 377.9131164550781 344.5606384277344 391.9365234375" stroke-width="0.0" fill="rgb(146, 111, 255)" opacity="0.07651693" stroke="rgb(0, 0, 0)" stroke-opacity="1.0" stroke-linecap="round" stroke-linejoin="round"/>
    <path d="M 425.9902648925781 95.45291137695312 C 444.15631103515625 67.85823059082031 447.57244873046875 38.53703308105469 411.1157531738281 124.01005554199219 C 372.31622314453125 183.52359008789062 369.0335998535156 138.52587890625 369.1507873535156 105.21293640136719 C 392.91363525390625 107.38845825195312 394.04022216796875 67.58269500732422 396.6273498535156 53.2529182434082 C 387.70440673828125 82.30904388427734 419.9024963378906 64.93195343017578 425.9902648925781 95.45291137695312" stroke-width="0.0" fill="rgb(52, 15, 125)" opacity="0.5048941" stroke="rgb(0, 0, 0)" stroke-opacity="1.0" stroke-linecap="round" stroke-linejoin="round"/>
    <path d="M 190.4434814453125 63.77366256713867 C 203.3284149169922 77.99676513671875 204.01255798339844 83.97438049316406 194.3757781982422 133.77874755859375 C 173.9914093017578 113.29219818115234 168.94613647460938 101.31744384765625 126.70738220214844 72.54334259033203 C 97.36412811279297 31.035802841186523 139.1410675048828 57.595855712890625 179.60562133789062 67.78981018066406 C 197.49496459960938 83.34671020507812 206.2344970703125 77.34203338623047 190.4434814453125 63.77366256713867" stroke-width="0.0" fill="rgb(170, 75, 43)" opacity="0.92126924" stroke="rgb(0, 0, 0)" stroke-opacity="1.0" stroke-linecap="round" stroke-linejoin="round"/>
    <path d="M 531.8523559570312 440.48583984375 C 531.2156982421875 467.00396728515625 531.2875366210938 471.57672119140625 519.8515014648438 464.087158203125 C 504.42181396484375 466.9474792480469 491.9844970703125 450.9454650878906 491.0216064453125 426.2054748535156 C 475.43280029296875 477.4613342285156 500.31036376953125 462.5175476074219 542.1298217773438 445.2102355957031 C 524.2904663085938 425.6336975097656 529.3707275390625 430.8746337890625 531.8523559570312 440.48583984375" stroke-width="0.0" fill="rgb(168, 213, 132)" opacity="0.34044304" stroke="rgb(0, 0, 0)" stroke-opacity="1.0" stroke-linecap="round" stroke-linejoin="round"/>
    <path d="M 363.7893371582031 198.6243896484375 C 360.917724609375 220.53378295898438 342.4830322265625 260.4990539550781 339.44903564453125 276.9315185546875 C 319.9650573730469 222.07986450195312 325.55462646484375 229.2962646484375 334.4606018066406 234.58267211914062 C 353.54931640625 239.86007690429688 354.76019287109375 242.0830535888672 333.9319763183594 231.58241271972656 C 385.58172607421875 217.37469482421875 349.3515319824219 211.7703857421875 363.7893371582031 198.6243896484375" stroke-width="0.0" fill="rgb(73, 20, 42)" opacity="0.5059483" stroke="rgb(0, 0, 0)" stroke-opacity="1.0" stroke-linecap="round" stroke-linejoin="round"/>
    <path d="M 470.94427490234375 416.288818359375 C 458.74676513671875 416.5247497558594 468.0753173828125 422.4140625 473.5984802246094 432.69256591796875 C 433.5025634765625 419.4053039550781 414.54559326171875 436.0976867675781 415.8648681640625 392.9085388183594 C 401.6366271972656 349.12042236328125 408.2030944824219 319.8725280761719 447.5086975097656 329.8555603027344 C 474.2837829589844 380.8546447753906 493.74542236328125 397.5574035644531 470.94427490234375 416.288818359375" stroke-width="0.0" fill="rgb(176, 248, 109)" opacity="0.6504043" stroke="rgb(0, 0, 0)" stroke-opacity="1.0" stroke-linecap="round" stroke-linejoin="round"/>
    <path d="M 177.12100219726562 420.1093444824219 C 179.76907348632812 423.4567565917969 171.647705078125 426.1787109375 166.88417053222656 416.3420104980469 C 111.1508560180664 430.379638671875 141.44937133789062 425.0811767578125 145.25970458984375 419.8055725097656 C 149.4470672607422 405.29498291015625 175.24244689941406 388.423583984375 194.27679443359375 387.6214294433594 C 195.44410705566406 411.6471252441406 205.1319122314453 418.3345031738281 177.12100219726562 420.1093444824219" stroke-width="0.0" fill="rgb(72, 183, 246)" opacity="0.6703811" stroke="rgb(0, 0, 0)" stroke-opacity="1.0" stroke-linecap="round" stroke-linejoin="round"/>
    <path d="M 404.6221618652344 384.3949279785156 C 398.58636474609375 400.8991394042969 421.0463562011719 402.75579833984375 454.6555480957031 397.7086181640625 C 420.6014099121094 385.9833068847656 414.7950134277344 367.8714599609375 404.47259521484375 352.6748046875 C 387.74725341796875 294.88299560546875 364.79473876953125 261.72216796875 420.04345703125 277.57012939453125 C 441.23797607421875 351.2159423828125 431.9751281738281 338.8506774902344 404.6221618652344 384.3949279785156" stroke-width="0.0" fill="rgb(224, 140, 227)" opacity="0.5568101" stroke="rgb(0, 0, 0)" stroke-opacity="1.0" stroke-linecap="round" stroke-linejoin="round"/>
    <path d="M 124.7359619140625 120.79389190673828 C 159.9792938232422 139.61651611328125 165.00796508789062 107.23294830322266 154.68067932128906 145.03074645996094 C 96.33191680908203 165.70489501953125 99.09620666503906 118.06420135498047 78.09458923339844 104.99142456054688 C 47.45279312133789 25.884521484375 66.9090576171875 32.55766296386719 99.66472625732422 54.95457077026367 C 105.51483154296875 78.66472625732422 108.24068450927734 93.22760009765625 124.7359619140625 120.79389190673828" stroke-width="0.0" fill="rgb(24, 9, 46)" opacity="1.0" stroke="rgb(0, 0, 0)" stroke-opacity="1.0" stroke-linecap="round" stroke-linejoin="round"/>
    <path d="M 330.2847595214844 372.9768981933594 C 327.8787536621094 368.1707458496094 340.62078857421875 403.5734558105469 346.9932861328125 389.34857177734375 C 321.9808349609375 376.196533203125 328.0115966796875 363.6020202636719 333.2615051269531 380.9963684082031 C 301.1515808105469 348.2828674316406 296.8798522949219 335.7578430175781 335.730224609375 358.9013366699219 C 350.14813232421875 382.2662353515625 377.7139892578125 380.2965393066406 330.2847595214844 372.9768981933594" stroke-width="0.0" fill="rgb(112, 145, 56)" opacity="0.0" stroke="rgb(0, 0, 0)" stroke-opacity="1.0" stroke-linecap="round" stroke-linejoin="round"/>
    <path d="M 139.33554077148438 336.4701843261719 C 140.7281494140625 361.08221435546875 111.56928253173828 377.26910400390625 84.955078125 393.2540283203125 C 78.23048400878906 383.1085205078125 60.80646514892578 368.22119140625 67.33531188964844 370.9544677734375 C 70.12355041503906 376.3211364746094 96.78927612304688 369.9353332519531 119.13355255126953 355.34698486328125 C 110.80005645751953 372.4371643066406 107.59205627441406 380.7126159667969 139.33554077148438 336.4701843261719" stroke-width="0.0" fill="rgb(204, 49, 44)" opacity="0.77734417" stroke="rgb(0, 0, 0)" stroke-opacity="1.0" stroke-linecap="round" stroke-linejoin="round"/>
    <path d="M 298.7047424316406 85.52132415771484 C 310.3889465332031 177.43478393554688 302.0626525878906 185.15965270996094 226.5384979248047 187.85440063476562 C 221.52943420410156 179.70066833496094 241.84945678710938 162.1002197265625 249.70582580566406 147.33578491210938 C 246.2244873046875 124.52322387695312 252.85723876953125 115.22154998779297 229.18812561035156 54.9154167175293 C 226.35894775390625 5.252832889556885 299.28179931640625 12.848484992980957 298.7047424316406 85.52132415771484" stroke-width="0.0" fill="rgb(150, 83, 45)" opacity="0.9767289" stroke="rgb(0, 0, 0)" stroke-opacity="1.0" stroke-linecap="round" stroke-linejoin="round"/>
    <path d="M 442.85638427734375 105.41321563720703 C 428.0467529296875 115.55760955810547 408.8648986816406 118.72146606445312 455.61822509765625 75.96045684814453 C 455.8059997558594 50.107017517089844 413.5655517578125 61.13716125488281 405.6874084472656 56.19166564941406 C 392.6642761230469 56.930606842041016 406.41961669921875 52.22819900512695 446.26318359375 15.080389976501465 C 452.9298400878906 11.807333946228027 449.0191345214844 80.33711242675781 442.85638427734375 105.41321563720703" stroke-width="0.0" fill="rgb(75, 10, 137)" opacity="0.44973963" stroke="rgb(0, 0, 0)" stroke-opacity="1.0" stroke-linecap="round" stroke-linejoin="round"/>
    <path d="M 127.48043060302734 152.22755432128906 C 90.2546157836914 147.6731719970703 44.798011779785156 177.78050231933594 92.8325424194336 211.19424438476562 C 128.96221923828125 141.22048950195312 126.66876220703125 126.61775970458984 107.96766662597656 110.06816864013672 C 94.70024871826172 95.90631866455078 75.73478698730469 87.29882049560547 71.01374816894531 93.47315216064453 C 146.71827697753906 107.57678985595703 173.61224365234375 131.97996520996094 127.48043060302734 152.22755432128906" stroke-width="0.0" fill="rgb(123, 73, 110)" opacity="0.65714085" stroke="rgb(0, 0, 0)" stroke-opacity="1.0" stroke-linecap="round" stroke-linejoin="round"/>
    <path d="M 563.5552368164062 475.28472900390625 C 520.4595336914062 517.4486083984375 511.7738037109375 524.1069946289062 481.3875732421875 557.5770263671875 C 455.6199035644531 537.3894653320312 441.6303405761719 514.3803100585938 450.2229309082031 485.9148254394531 C 464.1866455078125 483.5460205078125 475.1018981933594 477.5518798828125 498.98150634765625 449.38739013671875 C 557.503662109375 454.6289367675781 569.2344970703125 453.9151611328125 563.5552368164062 475.28472900390625" stroke-width="0.0" fill="rgb(234, 152, 0)" opacity="0.87354016" stroke="rgb(0, 0, 0)" stroke-opacity="1.0" stroke-linecap="round" stroke-linejoin="round"/>
    <path d="M 284.8392028808594 302.95257568359375 C 251.294189453125 274.5694580078125 250.4825897216797 302.5044860839844 244.98977661132812 345.5863952636719 C 207.40728759765625 352.0712890625 207.6343536376953 327.2140808105469 220.43943786621094 312.70660400390625 C 220.89505004882812 334.272705078125 243.6580047607422 316.9815368652344 244.25546264648438 287.2235107421875 C 256.248291015625 298.0840148925781 256.8753356933594 319.9872131347656 284.8392028808594 302.95257568359375" stroke-width="0.0" fill="rgb(87, 81, 148)" opacity="0.2761512" stroke="rgb(0, 0, 0)" stroke-opacity="1.0" stroke-linecap="round" stroke-linejoin="round"/>
    <path d="M 374.7489318847656 120.04281616210938 C 406.44439697265625 126.82034301757812 399.7056884765625 140.1741485595703 410.67071533203125 195.06838989257812 C 376.7799072265625 187.3129425048828 388.21575927734375 155.1084747314453 414.6372985839844 148.5300750732422 C 389.3815002441406 154.7018280029297 391.0063171386719 144.8345947265625 399.8304748535156 128.3585205078125 C 421.484619140625 124.647705078125 410.7396240234375 120.66190338134766 374.7489318847656 120.04281616210938" stroke-width="0.0" fill="rgb(135, 26, 188)" opacity="0.53984964" stroke="rgb(0, 0, 0)" stroke-opacity="1.0" stroke-linecap="round" stroke-linejoin="round"/>
    <path d="M 466.0630187988281 487.2377014160156 C 472.2821960449219 526.573974609375 466.18634033203125 536.5026245117188 430.82769775390625 539.4308471679688 C 423.0167236328125 519.3829956054688 427.3009338378906 500.77001953125 416.6067199707031 482.61761474609375 C 421.8110046386719 473.56695556640625 437.8191223144531 490.0346984863281 427.64837646484375 465.3183898925781 C 436.90740966796875 471.37017822265625 451.035888671875 478.3985900878906 466.0630187988281 487.2377014160156" stroke-width="0.0" fill="rgb(242, 45, 147)" opacity="0.8324551" stroke="rgb(0, 0, 0)" stroke-opacity="1.0" stroke-linecap="round" stroke-linejoin="round"/>
    <path d="M 463.5552673339844 -17.477642059326172 C 455.5692138671875 -10.409196853637695 443.89385986328125 8.61281967163086 468.9388122558594 -2.3657381534576416 C 470.0013122558594 -11.30086612701416 432.3644104003906 -13.335766792297363 398.4347229003906 -2.822094440460205 C 418.3681640625 -33.86437225341797 444.4230651855469 -21.973106384277344 456.3592224121094 -23.84284782409668 C 474.8860168457031 -14.387734413146973 486.1815185546875 -6.34412956237793 463.5552673339844 -17.477642059326172" stroke-width="0.0" fill="rgb(21, 0, 70)" opacity="0.7174968" stroke="rgb(0, 0, 0)" stroke-opacity="1.0" stroke-linecap="round" stroke-linejoin="round"/>
    <path d="M 179.05067443847656 252.75758361816406 C 189.59303283691406 244.46981811523438 185.5151824951172 235.2225799560547 180.26023864746094 236.31553649902344 C 173.2115936279297 280.48614501953125 168.90235900878906 286.74139404296875 178.9396514892578 267.0191345214844 C 190.033447265625 246.9336700439453 180.3550262451172 224.54498291015625 171.95326232910156 226.20309448242188 C 170.38575744628906 237.97865295410156 177.5812225341797 255.68702697753906 179.05067443847656 252.75758361816406" stroke-width="0.0" fill="rgb(224, 159, 195)" opacity="0.4961573" stroke="rgb(0, 0, 0)" stroke-opacity="1.0" stroke-linecap="round" stroke-linejoin="round"/>
    <path d="M 188.5188446044922 406.28033447265625 C 190.0404510498047 427.7391052246094 188.88917541503906 449.75244140625 179.0911102294922 454.659912109375 C 145.54830932617188 468.20599365234375 123.88422393798828 468.53662109375 139.31271362304688 454.1214599609375 C 145.73739624023438 395.60345458984375 153.59629821777344 390.1873474121094 171.937744140625 394.4607238769531 C 160.18695068359375 408.0538635253906 175.89505004882812 399.5500183105469 188.5188446044922 406.28033447265625" stroke-width="0.0" fill="rgb(246, 255, 169)" opacity="0.0" stroke="rgb(0, 0, 0)" stroke-opacity="1.0" stroke-linecap="round" stroke-linejoin="round"/>
    <path d="M 174.0081024169922 236.27928161621094 C 212.79483032226562 255.1758270263672 208.41143798828125 260.234619140625 199.7093963623047 250.0243377685547 C 166.0635986328125 260.8945007324219 145.20010375976562 236.66720581054688 184.54127502441406 217.7390594482422 C 219.03297424316406 221.34979248046875 197.20220947265625 252.4281005859375 169.95596313476562 262.4525451660156 C 127.20256805419922 222.99806213378906 151.19857788085938 220.36611938476562 174.0081024169922 236.27928161621094" stroke-width="0.0" fill="rgb(240, 183, 254)" opacity="0.99930054" stroke="rgb(0, 0, 0)" stroke-opacity="1.0" stroke-linecap="round" stroke-linejoin="round"/>
    <path d="M 190.5699920654297 343.1778564453125 C 191.81777954101562 347.7562255859375 182.89581298828125 362.6106262207031 168.8055877685547 374.7401428222656 C 149.64468383789062 354.1905822753906 164.8428497314453 336.6216125488281 183.41798400878906 351.9079895019531 C 160.08131408691406 353.0657653808594 176.9784698486328 319.3456115722656 174.2693328857422 337.0318603515625 C 159.30628967285156 349.8766174316406 168.59017944335938 332.5921936035156 190.5699920654297 343.1778564453125" stroke-width="0.0" fill="rgb(49, 8, 133)" opacity="0.6929996" stroke="rgb(0, 0, 0)" stroke-opacity="1.0" stroke-linecap="round" stroke-linejoin="round"/>
    <path d="M 53.218017578125 408.01739501953125 C 76.61109924316406 459.22479248046875 68.69044494628906 420.2220153808594 89.46634674072266 461.364013671875 C 64.44122314453125 416.25384521484375 42.28765106201172 394.529296875 39.98417282104492 431.6417541503906 C 71.99383544921875 451.1347351074219 84.59166717529297 444.8935852050781 105.97740936279297 404.826171875 C 97.77176666259766 393.5397033691406 78.27335357666016 392.3403015136719 53.218017578125 408.01739501953125" stroke-width="0.0" fill="rgb(155, 255, 246)" opacity="0.02595631" stroke="rgb(0, 0, 0)" stroke-opacity="1.0" stroke-linecap="round" stroke-linejoin="round"/>
    <path d="M 443.8163146972656 428.5249938964844 C 452.0007629394531 470.4550476074219 436.6854553222656 469.95721435546875 436.90032958984375 450.0486755371094 C 437.7391357421875 455.4974670410156 416.29376220703125 469.96453857421875 429.1882629394531 446.04742431640625 C 403.98577880859375 417.5955505371094 419.17926025390625 407.7843017578125 443.88067626953125 457.22918701171875 C 475.5962829589844 402.07757568359375 454.58477783203125 431.6750183105469 443.8163146972656 428.5249938964844" stroke-width="0.0" fill="rgb(241, 188, 38)" opacity="0.35856584" stroke="rgb(0, 0, 0)" stroke-opacity="1.0" stroke-linecap="round" stroke-linejoin="round"/>
    <path d="M 457.8357238769531 371.64044189453125 C 479.18670654296875 399.6700134277344 499.6425476074219 403.6889343261719 447.0400390625 392.4434509277344 C 438.4064636230469 370.3582458496094 453.0604553222656 345.6877136230469 432.2762145996094 329.18975830078125 C 420.0172424316406 342.27056884765625 390.4981994628906 312.60272216796875 427.62493896484375 244.5079803466797 C 475.0602111816406 320.39727783203125 467.2501525878906 369.4473571777344 457.8357238769531 371.64044189453125" stroke-width="0.0" fill="rgb(125, 247, 28)" opacity="0.44787982" stroke="rgb(0, 0, 0)" stroke-opacity="1.0" stroke-linecap="round" stroke-linejoin="round"/>
    <path d="M 55.16436767578125 164.0350799560547 C 23.51952362060547 129.5503387451172 23.950572967529297 129.83575439453125 28.013019561767578 112.09440612792969 C 42.426639556884766 119.03736114501953 25.491849899291992 148.29454040527344 -23.61720848083496 112.93445587158203 C -16.14169692993164 87.94176483154297 11.61212158203125 101.49274444580078 47.25542068481445 108.7716064453125 C 58.26026153564453 98.93806457519531 74.6080322265625 130.12611389160156 55.16436767578125 164.0350799560547" stroke-width="0.0" fill="rgb(221, 255, 235)" opacity="0.014975486" stroke="rgb(0, 0, 0)" stroke-opacity="1.0" stroke-linecap="round" stroke-linejoin="round"/>
    <path d="M 72.87702941894531 476.0469055175781 C 67.66606903076172 527.7176513671875 81.247802734375 526.1668090820312 -6.316779136657715 514.9755859375 C 4.001462459564209 465.32891845703125 13.245558738708496 458.9709167480469 31.027751922607422 467.10986328125 C 22.965585708618164 461.6983642578125 21.73776626586914 452.4377136230469 14.279273986816406 460.102294921875 C 46.79264450073242 461.8791809082031 62.2020263671875 472.00030517578125 72.87702941894531 476.0469055175781" stroke-width="0.0" fill="rgb(195, 249, 223)" opacity="0.00218795" stroke="rgb(0, 0, 0)" stroke-opacity="1.0" stroke-linecap="round" stroke-linejoin="round"/>
    <path d="M 130.1541290283203 221.71864318847656 C 143.9518585205078 257.28753662109375 157.6246337890625 244.31271362304688 123.54169464111328 272.0343933105469 C 123.68836212158203 263.5108337402344 94.85514068603516 257.05517578125 94.0760269165039 224.62777709960938 C 135.76893615722656 223.92160034179688 92.79733276367188 203.05751037597656 91.36836242675781 248.7837371826172 C 161.00653076171875 254.53993225097656 156.7987518310547 230.7187042236328 130.1541290283203 221.71864318847656" stroke-width="0.0" fill="rgb(85, 208, 231)" opacity="0.7779417" stroke="rgb(0, 0, 0)" stroke-opacity="1.0" stroke-linecap="round" stroke-linejoin="round"/>
    <path d="M 303.2882385253906 51.96441650390625 C 322.58392333984375 52.49373245239258 321.69500732421875 69.72760772705078 308.6689147949219 54.71611785888672 C 266.68408203125 20.515460968017578 270.31097412109375 37.502689361572266 235.8477020263672 65.68865203857422 C 231.8118438720703 -22.651687622070312 238.77426147460938 -22.639999389648438 275.4407653808594 -26.266803741455078 C 283.12799072265625 -7.71529483795166 272.3343811035156 17.425701141357422 303.2882385253906 51.96441650390625" stroke-width="0.0" fill="rgb(132, 255, 201)" opacity="0.014304452" stroke="rgb(0, 0, 0)" stroke-opacity="1.0" stroke-linecap="round" stroke-linejoin="round"/>
    <path d="M 131.0921173095703 163.57275390625 C 111.63814544677734 155.45648193359375 113.42137145996094 175.68153381347656 124.38516235351562 190.53994750976562 C 78.92506408691406 198.90855407714844 81.9721908569336 194.1243438720703 68.9037094116211 201.8848114013672 C 122.3311996459961 163.78306579589844 129.31993103027344 153.31051635742188 132.15310668945312 158.0548858642578 C 156.68736267089844 151.25485229492188 149.16249084472656 190.572998046875 131.0921173095703 163.57275390625" stroke-width="0.0" fill="rgb(234, 255, 218)" opacity="0.24554653" stroke="rgb(0, 0, 0)" stroke-opacity="1.0" stroke-linecap="round" stroke-linejoin="round"/>
    <path d="M 487.37750244140625 223.08070373535156 C 474.7377014160156 232.0241241455078 439.65576171875 234.4741668701172 428.2798156738281 228.69090270996094 C 405.5500183105469 220.58274841308594 400.78009033203125 235.88568115234375 431.7265930175781 240.3419647216797 C 412.27532958984375 234.5946044921875 425.5459899902344 237.92344665527344 467.2110290527344 228.60824584960938 C 479.5496520996094 233.8133544921875 475.5594177246094 227.50027465820312 487.37750244140625 223.08070373535156" stroke-width="0.0" fill="rgb(51, 6, 46)" opacity="0.67710567" stroke="rgb(0, 0, 0)" stroke-opacity="1.0" stroke-linecap="round" stroke-linejoin="round"/>
    <path d="M 350.92840576171875 385.89105224609375 C 346.565185546875 363.7753601074219 355.9814453125 347.3456115722656 378.0376892089844 431.1831359863281 C 338.5458984375 440.7380676269531 329.014404296875 422.47406005859375 330.6689453125 402.44830322265625 C 350.9206848144531 400.69183349609375 351.4411315917969 385.8214416503906 334.0664978027344 381.1175231933594 C 361.54730224609375 382.978271484375 385.58697509765625 385.677734375 350.92840576171875 385.89105224609375" stroke-width="0.0" fill="rgb(224, 116, 252)" opacity="0.08784784" stroke="rgb(0, 0, 0)" stroke-opacity="1.0" stroke-linecap="round" stroke-linejoin="round"/>
    <path d="M 352.36114501953125 210.05921936035156 C 350.6940002441406 191.71636962890625 343.0811462402344 170.3103790283203 339.34234619140625 222.67881774902344 C 287.089599609375 237.0784454345703 298.8782043457031 207.12258911132812 371.12188720703125 191.18914794921875 C 390.6796569824219 229.3106231689453 381.244873046875 213.22340393066406 386.9871826171875 150.19711303710938 C 345.0581359863281 200.3467559814453 349.8397216796875 210.59716796875 352.36114501953125 210.05921936035156" stroke-width="0.0" fill="rgb(208, 214, 217)" opacity="0.08680935" stroke="rgb(0, 0, 0)" stroke-opacity="1.0" stroke-linecap="round" stroke-linejoin="round"/>
    <path d="M 124.02892303466797 466.4388427734375 C 169.46372985839844 495.35693359375 165.56512451171875 514.9190673828125 101.6267318725586 537.4522705078125 C 69.02246856689453 473.4261779785156 87.1182861328125 437.15362548828125 78.61953735351562 451.18212890625 C 98.1075668334961 436.0873718261719 104.22807312011719 446.3055114746094 108.47136688232422 412.44775390625 C 137.0326385498047 424.21728515625 130.6934814453125 428.56585693359375 124.02892303466797 466.4388427734375" stroke-width="0.0" fill="rgb(213, 255, 191)" opacity="0.0" stroke="rgb(0, 0, 0)" stroke-opacity="1.0" stroke-linecap="round" stroke-linejoin="round"/>
    <path d="M 104.02902221679688 445.72039794921875 C 102.0541763305664 443.2658386230469 89.8179931640625 470.6317443847656 82.44859313964844 471.7850341796875 C 66.07410430908203 473.4800109863281 63.522560119628906 463.64874267578125 64.53976440429688 447.64910888671875 C 48.67099380493164 442.3213806152344 63.448036193847656 426.1916809082031 82.68182373046875 421.6348571777344 C 93.20630645751953 444.568359375 107.0346908569336 441.0121765136719 104.02902221679688 445.72039794921875" stroke-width="0.0" fill="rgb(255, 251, 212)" opacity="2.226682e-05" stroke="rgb(0, 0, 0)" stroke-opacity="1.0" stroke-linecap="round" stroke-linejoin="round"/>
  </g>
</svg>
