<?xml version="1.0" ?>
<svg xmlns="http://www.w3.org/2000/svg" version="1.1" width="512" height="512">
  <defs/>
  <g>
    <path d="M 534.9074096679688 416.71514892578125 C 547.8762817382812 517.3806762695312 549.523193359375 525.7646484375 358.7082214355469 552.8778076171875 C 279.42401123046875 574.111083984375 257.4341125488281 570.3743286132812 198.17062377929688 467.2993469238281 C 340.4964904785156 319.4874267578125 364.0895690917969 326.734619140625 438.73529052734375 300.9462585449219 C 559.9671020507812 332.04364013671875 559.5819091796875 340.35089111328125 534.9074096679688 416.71514892578125" stroke-width="0.0" fill="rgb(146, 115, 175)" opacity="0.15558739" stroke="rgb(0, 0, 0)" stroke-opacity="1.0" stroke-linecap="round" stroke-linejoin="round"/>
    <path d="M 259.04510498046875 336.671630859375 C 213.06863403320312 398.68524169921875 236.91354370117188 458.3011169433594 230.83970642089844 561.7919921875 C -51.20000076293945 524.0781860351562 -51.20000076293945 515.5620727539062 -51.66631317138672 410.2156982421875 C -35.354190826416016 187.6528778076172 -33.51941680908203 176.23678588867188 33.99019241333008 186.89149475097656 C 219.5635986328125 228.0105743408203 247.3671875 222.9485321044922 259.04510498046875 336.671630859375" stroke-width="0.0" fill="rgb(22, 51, 151)" opacity="0.9761358" stroke="rgb(0, 0, 0)" stroke-opacity="1.0" stroke-linecap="round" stroke-linejoin="round"/>
    <path d="M 255.49288940429688 -15.322471618652344 C 164.1075439453125 169.87374877929688 180.7001190185547 199.7371826171875 36.25346374511719 264.8460388183594 C -52.850746154785156 248.35162353515625 -47.902652740478516 217.29307556152344 -54.29911804199219 153.2527313232422 C -15.812456130981445 -17.697975158691406 -9.716771125793457 -23.272192001342773 27.615015029907227 -17.582897186279297 C 195.79283142089844 -21.859926223754883 231.64715576171875 -39.381500244140625 255.49288940429688 -15.322471618652344" stroke-width="0.0" fill="rgb(20, 14, 172)" opacity="0.9841592" stroke="rgb(0, 0, 0)" stroke-opacity="1.0" stroke-linecap="round" stroke-linejoin="round"/>
    <path d="M 580.9783325195312 133.02728271484375 C 474.77227783203125 292.3943176269531 434.4133605957031 263.11578369140625 344.6834716796875 293.83538818359375 C 279.8087463378906 326.0107727050781 336.22625732421875 288.7374572753906 218.02484130859375 136.03558349609375 C 250.26402282714844 120.84468841552734 215.15220642089844 66.22246551513672 271.6944580078125 -53.025970458984375 C 563.2000122070312 -12.327669143676758 556.7141723632812 3.000692367553711 580.9783325195312 133.02728271484375" stroke-width="0.0" fill="rgb(10, 39, 202)" opacity="0.7757583" stroke="rgb(0, 0, 0)" stroke-opacity="1.0" stroke-linecap="round" stroke-linejoin="round"/>
    <path d="M 377.9975891113281 47.38998031616211 C 224.1999969482422 265.93597412109375 245.99481201171875 302.9726257324219 225.79446411132812 201.072021484375 C 75.47459411621094 222.52098083496094 129.04812622070312 245.0779266357422 35.96900177001953 160.2043914794922 C 29.69222068786621 103.47853088378906 95.93644714355469 142.57754516601562 287.8103332519531 15.346549034118652 C 323.4534606933594 -14.375846862792969 348.2801208496094 -0.7413496375083923 377.9975891113281 47.38998031616211" stroke-width="0.0" fill="rgb(0, 23, 166)" opacity="0.7315318" stroke="rgb(0, 0, 0)" stroke-opacity="1.0" stroke-linecap="round" stroke-linejoin="round"/>
    <path d="M 403.4935607910156 331.0724792480469 C 408.3260803222656 411.2242126464844 417.5330505371094 408.5224914550781 196.5646209716797 433.42523193359375 C 229.12161254882812 467.298828125 221.17381286621094 457.878173828125 140.3131866455078 406.61102294921875 C 118.30059051513672 152.23377990722656 204.906494140625 174.6368408203125 329.2014465332031 215.2356414794922 C 435.0129699707031 216.54708862304688 460.635986328125 238.43411254882812 403.4935607910156 331.0724792480469" stroke-width="0.0" fill="rgb(50, 60, 175)" opacity="1.0" stroke="rgb(0, 0, 0)" stroke-opacity="1.0" stroke-linecap="round" stroke-linejoin="round"/>
    <path d="M 558.0609130859375 259.91741943359375 C 571.508056640625 334.47344970703125 561.9439697265625 342.2766418457031 427.22894287109375 333.3936462402344 C 272.8726806640625 354.8296203613281 303.701904296875 368.5776672363281 431.0555725097656 166.49090576171875 C 426.0748596191406 0.5579641461372375 242.5379638671875 7.552909851074219 477.2257995605469 -31.852981567382812 C 565.5443725585938 36.2000732421875 574.4537353515625 72.98712158203125 558.0609130859375 259.91741943359375" stroke-width="0.0" fill="rgb(97, 216, 49)" opacity="0.9978017" stroke="rgb(0, 0, 0)" stroke-opacity="1.0" stroke-linecap="round" stroke-linejoin="round"/>
    <path d="M 337.18072509765625 318.78704833984375 C 301.26458740234375 313.587158203125 357.42266845703125 309.07440185546875 311.1443176269531 345.071044921875 C 220.00982666015625 411.9844970703125 178.9465789794922 338.5708923339844 268.066162109375 210.391845703125 C 210.9227294921875 217.81112670898438 69.50785064697266 211.65692138671875 293.21142578125 205.39324951171875 C 332.2276611328125 154.60089111328125 404.0422668457031 234.1020965576172 337.18072509765625 318.78704833984375" stroke-width="0.0" fill="rgb(241, 244, 200)" opacity="0.9126803" stroke="rgb(0, 0, 0)" stroke-opacity="1.0" stroke-linecap="round" stroke-linejoin="round"/>
    <path d="M 454.2242736816406 180.7378387451172 C 420.86761474609375 271.8643798828125 355.8507995605469 217.7078094482422 364.4779052734375 292.4671325683594 C 384.3562316894531 234.0145263671875 315.3089294433594 205.06349182128906 351.2397155761719 162.4786834716797 C 385.83502197265625 217.83253479003906 347.0038757324219 154.2589569091797 358.7601318359375 143.49574279785156 C 455.1595458984375 25.463035583496094 444.505615234375 -40.50935363769531 454.2242736816406 180.7378387451172" stroke-width="0.0" fill="rgb(223, 201, 191)" opacity="0.9449355" stroke="rgb(0, 0, 0)" stroke-opacity="1.0" stroke-linecap="round" stroke-linejoin="round"/>
    <path d="M 253.4545135498047 239.32415771484375 C 176.90310668945312 229.9371795654297 241.6744842529297 268.4659118652344 100.25804138183594 382.2216491699219 C 68.80270385742188 361.9349670410156 190.510009765625 284.9584655761719 185.69309997558594 250.984375 C 219.77870178222656 260.755859375 193.13925170898438 270.236328125 200.28594970703125 226.27523803710938 C 382.3955078125 236.347900390625 266.2403259277344 223.6635284423828 253.4545135498047 239.32415771484375" stroke-width="0.0" fill="rgb(222, 229, 168)" opacity="0.9255327" stroke="rgb(0, 0, 0)" stroke-opacity="1.0" stroke-linecap="round" stroke-linejoin="round"/>
    <path d="M 384.6165771484375 339.2997741699219 C 383.8739013671875 280.473876953125 355.2161865234375 293.8659973144531 364.8966369628906 431.0440979003906 C 198.6378173828125 392.2691345214844 280.8991394042969 388.71807861328125 321.5502624511719 292.9818115234375 C 374.4114990234375 250.5994110107422 360.1755676269531 201.8338165283203 423.5096740722656 132.4029998779297 C 523.7186889648438 216.17849731445312 396.4051513671875 190.31796264648438 384.6165771484375 339.2997741699219" stroke-width="0.0" fill="rgb(101, 219, 61)" opacity="0.9989836" stroke="rgb(0, 0, 0)" stroke-opacity="1.0" stroke-linecap="round" stroke-linejoin="round"/>
    <path d="M 267.3805847167969 320.3059387207031 C 238.03416442871094 425.7377014160156 193.7338104248047 458.07257080078125 190.27847290039062 444.54046630859375 C 84.58177947998047 424.31353759765625 74.3746566772461 428.96417236328125 65.65967559814453 343.5499572753906 C 137.17091369628906 363.3077087402344 146.00048828125 375.9948425292969 193.1282501220703 302.8426513671875 C 259.4855041503906 210.049560546875 245.80502319335938 172.5580291748047 267.3805847167969 320.3059387207031" stroke-width="0.0" fill="rgb(220, 208, 195)" opacity="0.96741736" stroke="rgb(0, 0, 0)" stroke-opacity="1.0" stroke-linecap="round" stroke-linejoin="round"/>
    <path d="M 547.36474609375 36.69603729248047 C 546.8214111328125 101.14716339111328 563.2000122070312 131.33303833007812 534.863525390625 125.06827545166016 C 404.1717834472656 92.81817626953125 468.91815185546875 33.010032653808594 305.669921875 115.60906219482422 C 242.3590087890625 -8.940563201904297 319.2908020019531 -18.89117431640625 426.0533142089844 -21.793224334716797 C 541.44287109375 -11.839082717895508 540.9603881835938 -2.2575111389160156 547.36474609375 36.69603729248047" stroke-width="0.0" fill="rgb(9, 19, 180)" opacity="0.948213" stroke="rgb(0, 0, 0)" stroke-opacity="1.0" stroke-linecap="round" stroke-linejoin="round"/>
    <path d="M 358.61334228515625 424.9259338378906 C 330.3214111328125 439.34710693359375 313.2174072265625 445.35198974609375 285.09381103515625 441.56646728515625 C 233.6820068359375 448.2229309082031 180.19277954101562 456.8348388671875 183.189697265625 441.17535400390625 C 233.01364135742188 396.2138977050781 250.24459838867188 372.81597900390625 281.7059020996094 352.6376647949219 C 319.139892578125 346.05804443359375 329.03070068359375 394.2515869140625 358.61334228515625 424.9259338378906" stroke-width="0.0" fill="rgb(0, 174, 54)" opacity="1.0" stroke="rgb(0, 0, 0)" stroke-opacity="1.0" stroke-linecap="round" stroke-linejoin="round"/>
    <path d="M 255.8218536376953 262.0104064941406 C 252.51010131835938 176.60903930664062 256.3575134277344 249.82049560546875 160.0446319580078 337.399169921875 C 60.84267044067383 445.7572326660156 223.18800354003906 320.76129150390625 201.2334747314453 281.2333984375 C 242.69725036621094 201.10203552246094 175.19882202148438 224.18960571289062 246.0 226.8639373779297 C 276.28045654296875 215.40536499023438 276.4376220703125 220.5320281982422 255.8218536376953 262.0104064941406" stroke-width="0.0" fill="rgb(43, 79, 148)" opacity="0.5775043" stroke="rgb(0, 0, 0)" stroke-opacity="1.0" stroke-linecap="round" stroke-linejoin="round"/>
    <path d="M 375.8909606933594 16.902467727661133 C 279.7928161621094 109.49840545654297 282.53302001953125 162.5670623779297 201.92051696777344 138.5263214111328 C 150.95343017578125 64.57177734375 200.70089721679688 96.34691619873047 164.14022827148438 68.02938079833984 C 200.42332458496094 58.9176139831543 213.2012481689453 38.0629997253418 200.19432067871094 -4.215307712554932 C 167.12754821777344 -17.766530990600586 234.84449768066406 -49.49713897705078 375.8909606933594 16.902467727661133" stroke-width="0.0" fill="rgb(15, 26, 204)" opacity="0.9986357" stroke="rgb(0, 0, 0)" stroke-opacity="1.0" stroke-linecap="round" stroke-linejoin="round"/>
    <path d="M 55.461788177490234 447.1304016113281 C 68.12850189208984 454.5310363769531 85.83195495605469 470.57574462890625 12.379404067993164 491.64013671875 C -18.36688804626465 462.7612609863281 -20.13180160522461 425.3892822265625 -4.502577781677246 411.4584045410156 C -0.34111201763153076 380.4508056640625 1.4461023807525635 358.6645202636719 50.64232635498047 332.7528381347656 C 77.24955749511719 334.9197082519531 50.516971588134766 319.1263732910156 55.461788177490234 447.1304016113281" stroke-width="0.0" fill="rgb(16, 147, 54)" opacity="0.94097936" stroke="rgb(0, 0, 0)" stroke-opacity="1.0" stroke-linecap="round" stroke-linejoin="round"/>
    <path d="M 359.7944641113281 119.70110321044922 C 365.4883117675781 126.87154388427734 344.0389709472656 192.9466094970703 312.60125732421875 202.41783142089844 C 161.09068298339844 108.01051330566406 -1.8462008237838745 359.46563720703125 175.42251586914062 139.89256286621094 C 309.2231140136719 174.23780822753906 220.59642028808594 131.49249267578125 331.6259460449219 88.42752838134766 C 344.1085510253906 94.55583190917969 356.50775146484375 98.76132202148438 359.7944641113281 119.70110321044922" stroke-width="0.0" fill="rgb(4, 156, 56)" opacity="1.0" stroke="rgb(0, 0, 0)" stroke-opacity="1.0" stroke-linecap="round" stroke-linejoin="round"/>
    <path d="M 327.120361328125 303.8988037109375 C 281.3516540527344 233.4469451904297 264.4256591796875 337.7421875 248.7138671875 370.4724426269531 C 235.84664916992188 348.5625305175781 230.73788452148438 313.29791259765625 246.1012420654297 345.9692687988281 C 164.02601623535156 487.78265380859375 217.385986328125 418.0007629394531 299.3788146972656 404.2423095703125 C 277.8560791015625 364.3852233886719 261.67852783203125 381.5875549316406 327.120361328125 303.8988037109375" stroke-width="0.0" fill="rgb(34, 197, 37)" opacity="0.8701426" stroke="rgb(0, 0, 0)" stroke-opacity="1.0" stroke-linecap="round" stroke-linejoin="round"/>
    <path d="M 382.3501281738281 156.21202087402344 C 372.12213134765625 141.79049682617188 372.4608459472656 161.68182373046875 359.8875427246094 178.8660430908203 C 371.11572265625 187.96424865722656 382.21002197265625 194.22837829589844 343.3343200683594 197.08187866210938 C 345.1701965332031 180.8876190185547 368.4006042480469 154.30043029785156 348.472900390625 179.56773376464844 C 352.3260192871094 190.36007690429688 334.4533386230469 211.7342987060547 382.3501281738281 156.21202087402344" stroke-width="0.0" fill="rgb(228, 208, 207)" opacity="0.14894389" stroke="rgb(0, 0, 0)" stroke-opacity="1.0" stroke-linecap="round" stroke-linejoin="round"/>
    <path d="M 155.4807891845703 200.59765625 C 53.99677658081055 300.7931823730469 65.6229248046875 241.3888397216797 52.37797546386719 406.3623046875 C 80.58434295654297 311.6249694824219 55.0329475402832 301.62176513671875 70.57512664794922 216.99900817871094 C 109.73641204833984 264.2752990722656 53.99787139892578 287.72869873046875 118.94942474365234 259.9230651855469 C -1.4313483238220215 194.1527557373047 250.3404541015625 216.15435791015625 155.4807891845703 200.59765625" stroke-width="0.0" fill="rgb(160, 35, 146)" opacity="0.13763632" stroke="rgb(0, 0, 0)" stroke-opacity="1.0" stroke-linecap="round" stroke-linejoin="round"/>
    <path d="M 304.2524719238281 227.21481323242188 C 298.4598083496094 222.78994750976562 265.36712646484375 240.23489379882812 267.0592956542969 189.8151092529297 C 274.1369934082031 177.5157470703125 141.35873413085938 184.10174560546875 198.72198486328125 193.1876678466797 C 262.7030029296875 173.6263427734375 282.3130187988281 167.10568237304688 304.74517822265625 181.33016967773438 C 311.7028503417969 188.38621520996094 304.56317138671875 177.17454528808594 304.2524719238281 227.21481323242188" stroke-width="0.0" fill="rgb(195, 215, 157)" opacity="0.9408579" stroke="rgb(0, 0, 0)" stroke-opacity="1.0" stroke-linecap="round" stroke-linejoin="round"/>
    <path d="M 161.66204833984375 294.4588317871094 C 123.04827117919922 347.69573974609375 109.8952865600586 361.6784362792969 58.97690963745117 350.81658935546875 C 51.10258483886719 344.8216247558594 64.73381042480469 322.4220886230469 57.74321365356445 334.2580261230469 C 74.29716491699219 334.2730712890625 77.0328369140625 293.0672302246094 81.66844940185547 269.26129150390625 C 63.413658142089844 334.8076477050781 112.37599182128906 319.28662109375 161.66204833984375 294.4588317871094" stroke-width="0.0" fill="rgb(12, 163, 57)" opacity="0.804215" stroke="rgb(0, 0, 0)" stroke-opacity="1.0" stroke-linecap="round" stroke-linejoin="round"/>
    <path d="M 171.3806915283203 224.91062927246094 C 17.572975158691406 282.3124694824219 68.61986541748047 254.61451721191406 42.66255569458008 282.0098571777344 C 66.5693359375 355.74371337890625 70.26627349853516 326.8478698730469 64.40923309326172 332.8976745605469 C 45.04953384399414 236.81439208984375 -7.956662654876709 293.0471496582031 63.9218864440918 222.83395385742188 C 137.07347106933594 229.6952362060547 211.49984741210938 182.5345458984375 171.3806915283203 224.91062927246094" stroke-width="0.0" fill="rgb(18, 121, 126)" opacity="0.9085325" stroke="rgb(0, 0, 0)" stroke-opacity="1.0" stroke-linecap="round" stroke-linejoin="round"/>
    <path d="M 260.0904235839844 203.7439727783203 C 273.50970458984375 258.3973693847656 279.67620849609375 286.388671875 260.14068603515625 347.1435852050781 C 247.60357666015625 271.3264465332031 248.57237243652344 226.8466033935547 254.92282104492188 234.3592529296875 C 256.2676696777344 241.9217987060547 265.27789306640625 244.6742706298828 265.3966979980469 223.6065216064453 C 241.63223266601562 186.44061279296875 276.6099853515625 190.15830993652344 260.0904235839844 203.7439727783203" stroke-width="0.0" fill="rgb(55, 75, 241)" opacity="0.84408295" stroke="rgb(0, 0, 0)" stroke-opacity="1.0" stroke-linecap="round" stroke-linejoin="round"/>
    <path d="M 251.7808380126953 167.76358032226562 C 208.7195281982422 201.96624755859375 286.9211120605469 199.09774780273438 194.3102264404297 182.04798889160156 C 197.45840454101562 270.144775390625 23.976184844970703 233.76318359375 135.60678100585938 121.78459930419922 C 176.59597778320312 88.64157104492188 226.0690460205078 129.22805786132812 247.9534912109375 149.2752685546875 C 233.61288452148438 126.61746978759766 222.9522247314453 139.7538604736328 251.7808380126953 167.76358032226562" stroke-width="0.0" fill="rgb(3, 30, 157)" opacity="0.65062535" stroke="rgb(0, 0, 0)" stroke-opacity="1.0" stroke-linecap="round" stroke-linejoin="round"/>
    <path d="M 291.6234436035156 227.95761108398438 C 299.9685363769531 216.42214965820312 262.7914733886719 212.88087463378906 268.71429443359375 219.69464111328125 C 266.69342041015625 224.17420959472656 276.2384338378906 192.01011657714844 264.16912841796875 200.2710418701172 C 281.370361328125 181.73361206054688 266.62799072265625 232.64495849609375 328.30804443359375 190.2881622314453 C 317.0419006347656 322.5570983886719 294.7967834472656 127.47966003417969 291.6234436035156 227.95761108398438" stroke-width="0.0" fill="rgb(255, 58, 78)" opacity="0.46323264" stroke="rgb(0, 0, 0)" stroke-opacity="1.0" stroke-linecap="round" stroke-linejoin="round"/>
    <path d="M 322.2074890136719 417.7188720703125 C 285.5740051269531 433.02044677734375 254.5161895751953 440.3132019042969 194.04144287109375 433.9087219238281 C 215.78851318359375 426.0946350097656 205.1393585205078 440.76715087890625 108.39604187011719 425.9675598144531 C 211.51455688476562 425.7655334472656 226.70944213867188 438.8648986816406 249.44056701660156 454.3238830566406 C 253.1319122314453 424.3144836425781 295.43402099609375 401.9141540527344 322.2074890136719 417.7188720703125" stroke-width="0.0" fill="rgb(232, 98, 192)" opacity="0.0" stroke="rgb(0, 0, 0)" stroke-opacity="1.0" stroke-linecap="round" stroke-linejoin="round"/>
    <path d="M 139.9416046142578 174.8641357421875 C 197.2655792236328 181.0468292236328 188.16165161132812 213.053466796875 173.49655151367188 239.28697204589844 C 81.47834014892578 226.87254333496094 67.88789367675781 229.044189453125 97.62859344482422 196.91165161132812 C 144.13641357421875 183.87124633789062 136.28732299804688 192.90304565429688 138.70777893066406 176.9754180908203 C 139.04678344726562 188.700439453125 130.30149841308594 206.25796508789062 139.9416046142578 174.8641357421875" stroke-width="0.0" fill="rgb(16, 147, 114)" opacity="0.87682307" stroke="rgb(0, 0, 0)" stroke-opacity="1.0" stroke-linecap="round" stroke-linejoin="round"/>
    <path d="M 105.3787841796875 276.5655517578125 C 125.17391204833984 302.26788330078125 95.44088745117188 327.056396484375 84.7151107788086 342.35986328125 C 65.93168640136719 346.3787841796875 74.192626953125 295.2832946777344 56.06809997558594 319.9769592285156 C 50.5349235534668 283.4083557128906 49.6335563659668 280.0267333984375 74.10327911376953 264.2044372558594 C 100.04657745361328 266.4311218261719 95.9913558959961 269.03338623046875 105.3787841796875 276.5655517578125" stroke-width="0.0" fill="rgb(251, 42, 94)" opacity="1.0" stroke="rgb(0, 0, 0)" stroke-opacity="1.0" stroke-linecap="round" stroke-linejoin="round"/>
    <path d="M 284.1336669921875 419.8789367675781 C 305.55670166015625 424.50634765625 276.0542907714844 437.3826904296875 259.60162353515625 439.77020263671875 C 256.8031311035156 449.32666015625 261.9248352050781 435.4940490722656 281.2044982910156 407.2872009277344 C 294.4216613769531 406.6199951171875 281.61676025390625 403.32135009765625 277.0113830566406 387.79241943359375 C 283.8433837890625 399.3616638183594 289.6695861816406 420.8419494628906 284.1336669921875 419.8789367675781" stroke-width="0.0" fill="rgb(32, 147, 111)" opacity="0.5442197" stroke="rgb(0, 0, 0)" stroke-opacity="1.0" stroke-linecap="round" stroke-linejoin="round"/>
    <path d="M 419.8445739746094 447.5835876464844 C 391.7341003417969 448.88726806640625 384.7112731933594 454.9057922363281 380.8200378417969 489.1296691894531 C 382.3907470703125 467.9783630371094 368.2776794433594 461.83575439453125 372.20098876953125 449.00653076171875 C 388.12030029296875 439.1113586425781 377.0169372558594 415.1405334472656 415.9522399902344 396.05218505859375 C 462.3714599609375 401.8881530761719 467.2654113769531 440.57763671875 419.8445739746094 447.5835876464844" stroke-width="0.0" fill="rgb(197, 254, 214)" opacity="0.17875616" stroke="rgb(0, 0, 0)" stroke-opacity="1.0" stroke-linecap="round" stroke-linejoin="round"/>
    <path d="M 350.5133361816406 354.1565856933594 C 293.7903747558594 428.68682861328125 295.7323913574219 406.6121826171875 237.22328186035156 405.81884765625 C 241.8147735595703 412.5998840332031 209.8948974609375 393.5697937011719 221.46591186523438 383.3487854003906 C 242.99557495117188 361.628662109375 234.95452880859375 336.05474853515625 230.8623809814453 332.2315368652344 C 283.64654541015625 348.0695495605469 326.1118469238281 335.19775390625 350.5133361816406 354.1565856933594" stroke-width="0.0" fill="rgb(84, 212, 59)" opacity="0.97358656" stroke="rgb(0, 0, 0)" stroke-opacity="1.0" stroke-linecap="round" stroke-linejoin="round"/>
    <path d="M 345.32391357421875 93.02142333984375 C 261.2918395996094 125.82255554199219 291.9593811035156 126.96421813964844 271.3302917480469 128.10707092285156 C 246.27200317382812 125.55756378173828 262.1051025390625 122.68941497802734 268.43670654296875 129.11000061035156 C 278.71820068359375 115.24034881591797 297.28826904296875 99.6536636352539 290.0669860839844 88.61994934082031 C 306.79071044921875 83.54472351074219 349.666748046875 62.617462158203125 345.32391357421875 93.02142333984375" stroke-width="0.0" fill="rgb(46, 44, 162)" opacity="0.04509109" stroke="rgb(0, 0, 0)" stroke-opacity="1.0" stroke-linecap="round" stroke-linejoin="round"/>
    <path d="M 391.03497314453125 434.2716369628906 C 325.48040771484375 449.03094482421875 313.3253479003906 448.4937438964844 327.6886901855469 416.2870178222656 C 329.2699279785156 393.9868469238281 324.5527648925781 365.0304260253906 291.98760986328125 395.52374267578125 C 293.25909423828125 412.2431945800781 308.52581787109375 393.9735107421875 315.3236083984375 387.6178283691406 C 386.6626281738281 378.1983642578125 412.9015808105469 365.0727844238281 391.03497314453125 434.2716369628906" stroke-width="0.0" fill="rgb(63, 88, 193)" opacity="0.82892597" stroke="rgb(0, 0, 0)" stroke-opacity="1.0" stroke-linecap="round" stroke-linejoin="round"/>
    <path d="M 429.42608642578125 74.79085540771484 C 413.52740478515625 40.50337219238281 377.477294921875 54.792057037353516 426.8697814941406 84.59819793701172 C 382.3312072753906 92.84120178222656 351.37933349609375 85.83419799804688 359.720703125 99.31735229492188 C 364.9671325683594 63.92512893676758 365.57623291015625 91.39958953857422 399.4699401855469 80.67898559570312 C 401.56329345703125 41.376182556152344 412.37347412109375 101.30449676513672 429.42608642578125 74.79085540771484" stroke-width="0.0" fill="rgb(98, 122, 195)" opacity="0.7717106" stroke="rgb(0, 0, 0)" stroke-opacity="1.0" stroke-linecap="round" stroke-linejoin="round"/>
    <path d="M 65.40851593017578 492.35540771484375 C 35.95457458496094 505.1993103027344 67.15975189208984 527.7031860351562 44.76282501220703 543.0149536132812 C 15.775019645690918 518.2803344726562 11.618657112121582 508.72900390625 12.151780128479004 488.6533203125 C 16.89031982421875 472.1454162597656 33.27373504638672 448.70562744140625 54.06873321533203 440.87481689453125 C 79.69771575927734 438.70068359375 80.84789276123047 464.3379821777344 65.40851593017578 492.35540771484375" stroke-width="0.0" fill="rgb(231, 245, 0)" opacity="0.9759061" stroke="rgb(0, 0, 0)" stroke-opacity="1.0" stroke-linecap="round" stroke-linejoin="round"/>
    <path d="M 195.59393310546875 351.27874755859375 C 199.6826934814453 387.3817443847656 196.89456176757812 410.77081298828125 190.19869995117188 429.8564147949219 C 160.9766387939453 411.9864196777344 168.1188201904297 393.1566162109375 170.96131896972656 391.032958984375 C 173.68344116210938 389.9380798339844 190.3201446533203 373.05780029296875 207.8077392578125 333.36724853515625 C 210.56838989257812 351.61956787109375 223.12095642089844 355.61041259765625 195.59393310546875 351.27874755859375" stroke-width="0.0" fill="rgb(255, 184, 182)" opacity="0.3219786" stroke="rgb(0, 0, 0)" stroke-opacity="1.0" stroke-linecap="round" stroke-linejoin="round"/>
    <path d="M 213.21163940429688 224.60809326171875 C 192.89561462402344 275.1491394042969 172.3389434814453 279.76995849609375 157.56689453125 313.768310546875 C 139.5880889892578 275.25469970703125 151.52099609375 271.4172668457031 121.23299407958984 251.59390258789062 C 139.6619415283203 265.2826843261719 168.24417114257812 256.7649841308594 164.37020874023438 232.46826171875 C 163.38255310058594 231.9729461669922 190.95242309570312 234.2613983154297 213.21163940429688 224.60809326171875" stroke-width="0.0" fill="rgb(49, 72, 188)" opacity="0.84876794" stroke="rgb(0, 0, 0)" stroke-opacity="1.0" stroke-linecap="round" stroke-linejoin="round"/>
    <path d="M 31.255212783813477 448.64801025390625 C 30.08734130859375 483.1015930175781 50.88202667236328 479.9998474121094 69.08514404296875 519.837890625 C 2.8774209022521973 537.484130859375 -8.656201362609863 529.6141357421875 -40.20860290527344 482.0166931152344 C -31.060163497924805 443.3857116699219 -26.489896774291992 415.98345947265625 24.89977264404297 413.2910461425781 C 48.13766098022461 451.6585998535156 19.570112228393555 456.3306884765625 31.255212783813477 448.64801025390625" stroke-width="0.0" fill="rgb(23, 105, 57)" opacity="0.84287035" stroke="rgb(0, 0, 0)" stroke-opacity="1.0" stroke-linecap="round" stroke-linejoin="round"/>
    <path d="M 205.59889221191406 111.61744689941406 C 187.75279235839844 144.22897338867188 178.01849365234375 118.79817962646484 197.1431121826172 143.6257781982422 C 159.72769165039062 110.39228820800781 159.91908264160156 97.08748626708984 172.25332641601562 89.3087158203125 C 175.74606323242188 94.44173431396484 179.27456665039062 84.73832702636719 164.96347045898438 91.18684387207031 C 171.76145935058594 71.40997314453125 222.272705078125 75.2842025756836 205.59889221191406 111.61744689941406" stroke-width="0.0" fill="rgb(244, 231, 0)" opacity="0.95559525" stroke="rgb(0, 0, 0)" stroke-opacity="1.0" stroke-linecap="round" stroke-linejoin="round"/>
    <path d="M 259.9374694824219 457.1729736328125 C 260.6871643066406 467.17852783203125 252.01820373535156 480.25341796875 275.4127197265625 459.37286376953125 C 242.54396057128906 436.9024353027344 191.32948303222656 437.9266357421875 194.2769317626953 469.7735595703125 C 228.5019073486328 445.39239501953125 231.53001403808594 439.9300231933594 235.69937133789062 423.0514831542969 C 263.0927429199219 424.8728332519531 260.84393310546875 438.2001647949219 259.9374694824219 457.1729736328125" stroke-width="0.0" fill="rgb(216, 139, 165)" opacity="0.26429537" stroke="rgb(0, 0, 0)" stroke-opacity="1.0" stroke-linecap="round" stroke-linejoin="round"/>
    <path d="M 366.525390625 479.4295349121094 C 354.16387939453125 487.7603759765625 355.3430480957031 456.53729248046875 320.7786560058594 465.3267822265625 C 310.1722717285156 490.9455871582031 289.3577880859375 494.6232604980469 287.42120361328125 465.8326721191406 C 317.00885009765625 433.3739929199219 357.5208740234375 440.20880126953125 319.5874328613281 443.5592041015625 C 362.6527099609375 426.1735534667969 367.9739074707031 442.5081481933594 366.525390625 479.4295349121094" stroke-width="0.0" fill="rgb(244, 218, 255)" opacity="0.10174279" stroke="rgb(0, 0, 0)" stroke-opacity="1.0" stroke-linecap="round" stroke-linejoin="round"/>
    <path d="M 338.82916259765625 231.58352661132812 C 366.0453796386719 231.58360290527344 358.17724609375 252.40655517578125 317.7555847167969 256.146240234375 C 314.1968688964844 256.7830505371094 317.44732666015625 238.1219940185547 280.6799621582031 232.029296875 C 317.54730224609375 221.12380981445312 336.1168518066406 215.06777954101562 360.67669677734375 189.77023315429688 C 337.89202880859375 220.70433044433594 339.8329772949219 229.8101806640625 338.82916259765625 231.58352661132812" stroke-width="0.0" fill="rgb(207, 229, 184)" opacity="0.7897718" stroke="rgb(0, 0, 0)" stroke-opacity="1.0" stroke-linecap="round" stroke-linejoin="round"/>
    <path d="M 503.2278747558594 410.5517272949219 C 538.4967651367188 447.26104736328125 537.7744750976562 477.4249572753906 480.2230529785156 484.5036926269531 C 444.1581115722656 497.6419372558594 453.0960388183594 458.1616516113281 456.27587890625 412.0892333984375 C 450.98028564453125 391.8022766113281 464.12060546875 422.64605712890625 458.75445556640625 420.5829772949219 C 467.9315185546875 399.9279479980469 470.6642761230469 390.5312194824219 503.2278747558594 410.5517272949219" stroke-width="0.0" fill="rgb(106, 215, 17)" opacity="0.8241488" stroke="rgb(0, 0, 0)" stroke-opacity="1.0" stroke-linecap="round" stroke-linejoin="round"/>
    <path d="M 195.7589874267578 424.4140319824219 C 195.4720916748047 456.5294494628906 171.6663360595703 482.6769714355469 185.7997283935547 435.7066955566406 C 160.48753356933594 439.98223876953125 140.84083557128906 428.52484130859375 147.5411376953125 423.9107971191406 C 147.30966186523438 403.6177673339844 175.23672485351562 396.5804748535156 167.67684936523438 399.4378356933594 C 172.8174285888672 392.829833984375 191.52236938476562 402.806884765625 195.7589874267578 424.4140319824219" stroke-width="0.0" fill="rgb(201, 255, 14)" opacity="0.9941759" stroke="rgb(0, 0, 0)" stroke-opacity="1.0" stroke-linecap="round" stroke-linejoin="round"/>
    <path d="M 344.48992919921875 420.49053955078125 C 302.42779541015625 462.9087219238281 355.95294189453125 476.019775390625 337.11419677734375 423.2480163574219 C 250.4300079345703 434.6839599609375 249.00213623046875 424.23126220703125 253.1554412841797 405.6923828125 C 262.28631591796875 397.7213439941406 273.3507385253906 385.4139404296875 290.70379638671875 400.5147399902344 C 295.9254455566406 389.7524719238281 337.1461181640625 403.7176513671875 344.48992919921875 420.49053955078125" stroke-width="0.0" fill="rgb(38, 101, 73)" opacity="0.969476" stroke="rgb(0, 0, 0)" stroke-opacity="1.0" stroke-linecap="round" stroke-linejoin="round"/>
    <path d="M 432.1788024902344 406.3049011230469 C 389.5702819824219 386.36956787109375 424.97662353515625 450.10333251953125 397.9203796386719 418.8131103515625 C 389.7638244628906 425.8719177246094 362.9986267089844 425.0267028808594 388.9587707519531 409.635009765625 C 385.3328552246094 406.9909973144531 380.5828857421875 395.5928039550781 401.97454833984375 383.1056823730469 C 444.3396911621094 371.1570129394531 458.3578796386719 364.17437744140625 432.1788024902344 406.3049011230469" stroke-width="0.0" fill="rgb(40, 71, 149)" opacity="0.93097425" stroke="rgb(0, 0, 0)" stroke-opacity="1.0" stroke-linecap="round" stroke-linejoin="round"/>
    <path d="M 365.6422119140625 433.7395935058594 C 379.51904296875 462.28802490234375 380.59295654296875 450.0216979980469 342.86016845703125 425.2596130371094 C 317.6217041015625 407.9208068847656 324.7336730957031 426.54754638671875 289.5848693847656 389.94189453125 C 309.80780029296875 367.80706787109375 320.84185791015625 368.87066650390625 329.781005859375 373.51116943359375 C 363.4349670410156 347.8775329589844 361.3201904296875 352.1685791015625 365.6422119140625 433.7395935058594" stroke-width="0.0" fill="rgb(23, 115, 97)" opacity="0.93916386" stroke="rgb(0, 0, 0)" stroke-opacity="1.0" stroke-linecap="round" stroke-linejoin="round"/>
    <path d="M 63.86952209472656 505.61785888671875 C 63.74143600463867 542.4733276367188 70.72056579589844 550.8739624023438 59.518470764160156 561.1162719726562 C -20.895048141479492 520.1978759765625 -17.657888412475586 511.2311706542969 -2.127319812774658 504.1697082519531 C 2.110128879547119 491.3976135253906 13.590396881103516 476.2130432128906 32.796546936035156 469.1316833496094 C 31.643959045410156 468.70050048828125 54.59199905395508 488.5959777832031 63.86952209472656 505.61785888671875" stroke-width="0.0" fill="rgb(30, 138, 3)" opacity="0.7304521" stroke="rgb(0, 0, 0)" stroke-opacity="1.0" stroke-linecap="round" stroke-linejoin="round"/>
    <path d="M 113.37487030029297 346.12298583984375 C 111.24385070800781 419.0049133300781 115.67314147949219 406.0069274902344 97.87850189208984 393.1525573730469 C 75.1760025024414 405.8268737792969 97.72864532470703 399.3833923339844 111.52801513671875 381.947021484375 C 118.7542495727539 364.9811096191406 102.50353240966797 381.12188720703125 105.18517303466797 366.4159851074219 C 108.41382598876953 346.5973205566406 95.3218765258789 349.7815246582031 113.37487030029297 346.12298583984375" stroke-width="0.0" fill="rgb(49, 118, 124)" opacity="0.7562311" stroke="rgb(0, 0, 0)" stroke-opacity="1.0" stroke-linecap="round" stroke-linejoin="round"/>
    <path d="M 136.97622680664062 441.35028076171875 C 100.2123031616211 449.11492919921875 103.45148468017578 422.92926025390625 109.8842544555664 426.35540771484375 C 111.17416381835938 438.205078125 81.48828887939453 441.2810363769531 70.41392517089844 410.2431335449219 C 83.5658187866211 431.8967590332031 95.5936279296875 456.5885314941406 97.6891860961914 367.4825744628906 C 97.85186004638672 381.794677734375 118.56666564941406 399.2096862792969 136.97622680664062 441.35028076171875" stroke-width="0.0" fill="rgb(52, 52, 141)" opacity="0.57570475" stroke="rgb(0, 0, 0)" stroke-opacity="1.0" stroke-linecap="round" stroke-linejoin="round"/>
    <path d="M 461.1500549316406 62.312255859375 C 469.2724914550781 135.61343383789062 473.3362121582031 95.12724304199219 401.6999816894531 87.18758392333984 C 402.0289306640625 96.1502456665039 417.5542297363281 130.0482635498047 408.74322509765625 56.2646369934082 C 412.8948059082031 58.24521255493164 416.9631042480469 49.451480865478516 421.8879089355469 73.69271850585938 C 421.1185607910156 44.21518325805664 437.8095397949219 70.24857330322266 461.1500549316406 62.312255859375" stroke-width="0.0" fill="rgb(222, 232, 217)" opacity="1.0" stroke="rgb(0, 0, 0)" stroke-opacity="1.0" stroke-linecap="round" stroke-linejoin="round"/>
    <path d="M 110.75511932373047 161.90567016601562 C 117.46391296386719 177.28848266601562 112.4273681640625 184.56695556640625 110.7519302368164 164.89151000976562 C 93.6490478515625 191.00222778320312 54.96157455444336 206.78536987304688 82.99591064453125 164.8436737060547 C 62.24168395996094 118.45478820800781 45.69035339355469 120.05843353271484 59.086647033691406 142.3500213623047 C 94.90760040283203 138.70941162109375 116.52116394042969 141.7668914794922 110.75511932373047 161.90567016601562" stroke-width="0.0" fill="rgb(253, 0, 52)" opacity="0.990105" stroke="rgb(0, 0, 0)" stroke-opacity="1.0" stroke-linecap="round" stroke-linejoin="round"/>
    <path d="M 138.04759216308594 129.4200897216797 C 145.14833068847656 153.3422393798828 121.45955657958984 175.63650512695312 104.55953216552734 189.08241271972656 C 76.59515380859375 150.7745361328125 63.7612190246582 139.73977661132812 47.00572204589844 129.54312133789062 C 95.1329345703125 153.2329559326172 80.2839584350586 127.80048370361328 80.94612884521484 110.81385803222656 C 115.77995300292969 104.53826904296875 135.09169006347656 110.4441146850586 138.04759216308594 129.4200897216797" stroke-width="0.0" fill="rgb(11, 7, 225)" opacity="0.99820065" stroke="rgb(0, 0, 0)" stroke-opacity="1.0" stroke-linecap="round" stroke-linejoin="round"/>
    <path d="M 551.567138671875 472.41558837890625 C 531.1830444335938 528.4595947265625 523.2429809570312 535.9074096679688 400.8308410644531 519.5164184570312 C 394.09136962890625 512.3744506835938 409.2061462402344 516.17333984375 440.1435546875 486.8239440917969 C 454.1436462402344 467.5996398925781 463.4305419921875 466.99237060546875 525.1360473632812 471.5628967285156 C 532.0164184570312 450.23150634765625 540.6093139648438 462.8525085449219 551.567138671875 472.41558837890625" stroke-width="0.0" fill="rgb(109, 255, 43)" opacity="0.9794284" stroke="rgb(0, 0, 0)" stroke-opacity="1.0" stroke-linecap="round" stroke-linejoin="round"/>
    <path d="M 408.8318176269531 329.42742919921875 C 414.28955078125 318.313232421875 389.7163391113281 319.6983947753906 381.24285888671875 351.7759704589844 C 387.95379638671875 376.7735290527344 374.4263000488281 350.3239440917969 381.7530212402344 318.31951904296875 C 380.1410217285156 306.452392578125 388.07659912109375 294.93902587890625 400.7736511230469 292.94024658203125 C 416.7031555175781 296.489990234375 429.7754211425781 314.6030578613281 408.8318176269531 329.42742919921875" stroke-width="0.0" fill="rgb(205, 193, 35)" opacity="0.634167" stroke="rgb(0, 0, 0)" stroke-opacity="1.0" stroke-linecap="round" stroke-linejoin="round"/>
    <path d="M 300.4270324707031 426.7160339355469 C 305.3194885253906 461.5267028808594 297.1422424316406 487.8515625 282.7232360839844 444.9471130371094 C 289.5842590332031 444.3182067871094 281.9224853515625 448.2684020996094 255.8810272216797 424.69012451171875 C 237.63211059570312 414.6897888183594 242.03070068359375 420.01220703125 253.0568084716797 414.0382995605469 C 282.0847473144531 430.64642333984375 283.11614990234375 440.5191345214844 300.4270324707031 426.7160339355469" stroke-width="0.0" fill="rgb(22, 136, 118)" opacity="0.9826149" stroke="rgb(0, 0, 0)" stroke-opacity="1.0" stroke-linecap="round" stroke-linejoin="round"/>
    <path d="M 170.91954040527344 336.568115234375 C 167.43643188476562 340.7812805175781 154.00018310546875 358.25994873046875 157.87307739257812 387.12322998046875 C 122.2701416015625 411.5792541503906 127.08031463623047 387.5284118652344 135.69464111328125 363.04437255859375 C 145.97654724121094 335.33233642578125 143.73556518554688 301.24676513671875 118.52757263183594 341.74102783203125 C 154.16685485839844 356.22235107421875 169.03228759765625 344.2998962402344 170.91954040527344 336.568115234375" stroke-width="0.0" fill="rgb(112, 106, 108)" opacity="0.0" stroke="rgb(0, 0, 0)" stroke-opacity="1.0" stroke-linecap="round" stroke-linejoin="round"/>
    <path d="M 134.52317810058594 -1.561853051185608 C 144.18408203125 54.39749526977539 154.39309692382812 74.8758773803711 129.34718322753906 60.94503402709961 C 162.7930145263672 -8.528099060058594 160.08245849609375 -7.6635003089904785 151.95266723632812 -20.5466365814209 C 127.5690689086914 -7.532655239105225 135.10716247558594 -14.702235221862793 152.28903198242188 -26.233253479003906 C 159.0918731689453 -22.024263381958008 163.33348083496094 -15.156434059143066 134.52317810058594 -1.561853051185608" stroke-width="0.0" fill="rgb(18, 10, 155)" opacity="0.014280713" stroke="rgb(0, 0, 0)" stroke-opacity="1.0" stroke-linecap="round" stroke-linejoin="round"/>
    <path d="M 285.2549743652344 323.2239990234375 C 293.7984924316406 325.3620910644531 268.9344177246094 316.472900390625 253.15597534179688 350.55316162109375 C 248.73654174804688 328.7750549316406 240.11630249023438 316.9833068847656 247.39544677734375 311.34820556640625 C 255.73655700683594 303.8112487792969 252.10916137695312 284.9994812011719 279.3795166015625 297.7486267089844 C 272.8694152832031 301.7022399902344 294.3398132324219 300.9812927246094 285.2549743652344 323.2239990234375" stroke-width="0.0" fill="rgb(117, 242, 40)" opacity="0.9441633" stroke="rgb(0, 0, 0)" stroke-opacity="1.0" stroke-linecap="round" stroke-linejoin="round"/>
    <path d="M 105.0043716430664 149.5807647705078 C 64.39877319335938 180.3387908935547 69.60669708251953 190.39991760253906 78.93922424316406 166.8200225830078 C 43.869903564453125 151.2207489013672 39.291481018066406 120.60623168945312 35.03574752807617 102.76576232910156 C 42.43621826171875 110.22918701171875 29.41373062133789 90.29532623291016 57.42798614501953 69.6554946899414 C 110.36224365234375 48.5029411315918 148.73294067382812 92.33673858642578 105.0043716430664 149.5807647705078" stroke-width="0.0" fill="rgb(254, 181, 15)" opacity="0.9980311" stroke="rgb(0, 0, 0)" stroke-opacity="1.0" stroke-linecap="round" stroke-linejoin="round"/>
    <path d="M 417.7471618652344 146.1701202392578 C 415.7369384765625 143.99844360351562 420.21844482421875 170.524658203125 419.4896240234375 164.4976348876953 C 406.1661682128906 169.54734802246094 389.5975341796875 161.13021850585938 405.1332702636719 143.5909881591797 C 409.6965026855469 142.35931396484375 413.14532470703125 137.0230712890625 430.8327331542969 139.07308959960938 C 439.39495849609375 138.5613555908203 438.9930419921875 144.35948181152344 417.7471618652344 146.1701202392578" stroke-width="0.0" fill="rgb(75, 246, 19)" opacity="0.9310017" stroke="rgb(0, 0, 0)" stroke-opacity="1.0" stroke-linecap="round" stroke-linejoin="round"/>
    <path d="M 52.00433349609375 475.5515441894531 C 61.195980072021484 492.66864013671875 56.41172790527344 500.4131774902344 47.434120178222656 496.023681640625 C 33.98576354980469 469.84515380859375 37.7282829284668 457.134765625 75.10601043701172 487.69671630859375 C 88.77027130126953 474.236083984375 71.724365234375 465.56463623046875 41.69475555419922 469.42388916015625 C 45.8032341003418 491.0428771972656 55.98667907714844 492.9155578613281 52.00433349609375 475.5515441894531" stroke-width="0.0" fill="rgb(138, 73, 84)" opacity="0.15577683" stroke="rgb(0, 0, 0)" stroke-opacity="1.0" stroke-linecap="round" stroke-linejoin="round"/>
  </g>
</svg>
