<?xml version="1.0" ?>
<svg xmlns="http://www.w3.org/2000/svg" version="1.1" width="512" height="512">
  <defs/>
  <g>
    <path d="M 557.6699829101562 434.441162109375 C 536.5677490234375 529.1453247070312 539.1365966796875 535.3344116210938 400.875 521.4130249023438 C 327.039794921875 555.8915405273438 304.53045654296875 555.557373046875 288.2898254394531 490.73028564453125 C 316.81878662109375 328.5399169921875 376.6621398925781 342.44439697265625 473.5035400390625 305.40570068359375 C 585.7354736328125 300.6867980957031 589.177978515625 307.7495422363281 557.6699829101562 434.441162109375" stroke-width="0.0" fill="rgb(3, 40, 127)" opacity="0.9336281" stroke="rgb(0, 0, 0)" stroke-opacity="1.0" stroke-linecap="round" stroke-linejoin="round"/>
    <path d="M 286.34814453125 450.8809509277344 C 340.6905822753906 504.92559814453125 338.8233337402344 549.4568481445312 159.19143676757812 568.8021850585938 C -51.20000076293945 517.7235107421875 -51.20000076293945 507.83367919921875 -21.774600982666016 449.183837890625 C -18.38620376586914 205.44985961914062 -18.693912506103516 199.01014709472656 -13.958904266357422 247.57200622558594 C 207.843017578125 303.6680908203125 265.193359375 234.8069305419922 286.34814453125 450.8809509277344" stroke-width="0.0" fill="rgb(14, 20, 150)" opacity="0.94962966" stroke="rgb(0, 0, 0)" stroke-opacity="1.0" stroke-linecap="round" stroke-linejoin="round"/>
    <path d="M 274.77264404296875 305.6803283691406 C 200.3151092529297 436.81439208984375 220.7771759033203 463.49957275390625 193.49009704589844 377.0545959472656 C 79.94579315185547 333.7490234375 27.27052879333496 372.247314453125 18.197525024414062 161.6404266357422 C 27.74905014038086 191.64566040039062 37.89955139160156 172.40577697753906 116.09907531738281 117.9730453491211 C 288.6274719238281 127.33645629882812 308.0418395996094 113.34068298339844 274.77264404296875 305.6803283691406" stroke-width="0.0" fill="rgb(200, 179, 137)" opacity="0.97319245" stroke="rgb(0, 0, 0)" stroke-opacity="1.0" stroke-linecap="round" stroke-linejoin="round"/>
    <path d="M 267.7835998535156 10.846013069152832 C 253.8162841796875 203.89659118652344 217.40235900878906 169.45199584960938 22.77501678466797 198.35076904296875 C -33.324588775634766 210.0907745361328 -23.91568374633789 183.48007202148438 -11.846331596374512 42.8140983581543 C -14.989005088806152 -15.722881317138672 -7.218327522277832 -19.66063117980957 68.537841796875 -25.305280685424805 C 187.17686462402344 -26.016294479370117 224.6595916748047 -45.60879898071289 267.7835998535156 10.846013069152832" stroke-width="0.0" fill="rgb(65, 7, 189)" opacity="0.8855728" stroke="rgb(0, 0, 0)" stroke-opacity="1.0" stroke-linecap="round" stroke-linejoin="round"/>
    <path d="M 529.2322998046875 45.79201126098633 C 429.3685607910156 280.22161865234375 436.49688720703125 292.9778137207031 406.97967529296875 328.92620849609375 C 242.37437438964844 345.4812316894531 240.4576416015625 393.95989990234375 257.0998229980469 230.55587768554688 C 242.72146606445312 45.0839729309082 203.19430541992188 -3.4598376750946045 320.5264892578125 -55.201026916503906 C 563.2000122070312 -6.244815349578857 563.2000122070312 4.452378749847412 529.2322998046875 45.79201126098633" stroke-width="0.0" fill="rgb(40, 18, 205)" opacity="1.0" stroke="rgb(0, 0, 0)" stroke-opacity="1.0" stroke-linecap="round" stroke-linejoin="round"/>
    <path d="M 493.8446350097656 349.012451171875 C 493.2540283203125 421.7810974121094 502.27484130859375 516.4622192382812 305.236328125 560.7241821289062 C 185.67286682128906 540.6231079101562 196.14451599121094 503.7393798828125 239.15328979492188 469.7414245605469 C 249.42169189453125 212.1474151611328 290.6949157714844 197.42855834960938 307.93463134765625 255.127685546875 C 409.1070861816406 281.92767333984375 452.4482727050781 282.3984375 493.8446350097656 349.012451171875" stroke-width="0.0" fill="rgb(16, 46, 134)" opacity="1.0" stroke="rgb(0, 0, 0)" stroke-opacity="1.0" stroke-linecap="round" stroke-linejoin="round"/>
    <path d="M 531.25341796875 212.1436309814453 C 543.960693359375 327.3421936035156 536.5463256835938 337.7414855957031 466.3936462402344 324.19384765625 C 390.00311279296875 337.06085205078125 422.1839294433594 329.1607971191406 419.7230529785156 225.8440399169922 C 439.9989013671875 74.74244689941406 373.32550048828125 74.50546264648438 512.0638427734375 64.57796478271484 C 565.7930908203125 75.93336486816406 570.8894653320312 119.39238739013672 531.25341796875 212.1436309814453" stroke-width="0.0" fill="rgb(48, 36, 118)" opacity="0.9451223" stroke="rgb(0, 0, 0)" stroke-opacity="1.0" stroke-linecap="round" stroke-linejoin="round"/>
    <path d="M 238.84796142578125 260.41162109375 C 225.1807403564453 286.5538024902344 253.70553588867188 307.15948486328125 223.5205535888672 352.6645202636719 C 230.501708984375 280.8393859863281 250.56373596191406 276.43768310546875 194.57717895507812 243.4960479736328 C 155.63787841796875 202.52252197265625 137.5388946533203 201.1537322998047 237.95751953125 183.52293395996094 C 271.1872863769531 191.9580078125 255.92742919921875 242.18939208984375 238.84796142578125 260.41162109375" stroke-width="0.0" fill="rgb(231, 187, 64)" opacity="0.29193383" stroke="rgb(0, 0, 0)" stroke-opacity="1.0" stroke-linecap="round" stroke-linejoin="round"/>
    <path d="M 297.7920227050781 65.72026824951172 C 311.7425231933594 118.69994354248047 267.7401428222656 120.83231353759766 230.7437744140625 123.18366241455078 C 229.0206756591797 118.1576156616211 203.4698944091797 129.75059509277344 199.04653930664062 108.36320495605469 C 235.4324951171875 85.37347412109375 232.20005798339844 54.20353317260742 243.48927307128906 96.64997100830078 C 259.0098876953125 115.79115295410156 294.31024169921875 76.9890365600586 297.7920227050781 65.72026824951172" stroke-width="0.0" fill="rgb(204, 213, 179)" opacity="0.82326823" stroke="rgb(0, 0, 0)" stroke-opacity="1.0" stroke-linecap="round" stroke-linejoin="round"/>
    <path d="M 219.92318725585938 357.4198303222656 C 181.38815307617188 492.6526184082031 211.12887573242188 467.33648681640625 188.66802978515625 470.5625 C 169.31182861328125 436.2930908203125 163.04811096191406 390.14208984375 149.5477294921875 321.4173583984375 C 238.01998901367188 324.6018981933594 179.12327575683594 340.89495849609375 181.7734832763672 348.501220703125 C 180.17047119140625 362.5143737792969 174.57711791992188 345.7222900390625 219.92318725585938 357.4198303222656" stroke-width="0.0" fill="rgb(217, 191, 137)" opacity="0.95180947" stroke="rgb(0, 0, 0)" stroke-opacity="1.0" stroke-linecap="round" stroke-linejoin="round"/>
    <path d="M 233.13644409179688 214.14645385742188 C 220.1469268798828 269.8547668457031 213.1156463623047 315.4488525390625 212.1788787841797 318.0413513183594 C 126.4325180053711 330.0433654785156 228.95701599121094 334.6496276855469 177.8159637451172 304.9056701660156 C 68.52603912353516 119.74794006347656 8.936982154846191 107.67413330078125 208.94947814941406 50.95518493652344 C 134.02305603027344 200.7555694580078 196.65313720703125 113.21234130859375 233.13644409179688 214.14645385742188" stroke-width="0.0" fill="rgb(203, 185, 125)" opacity="1.0" stroke="rgb(0, 0, 0)" stroke-opacity="1.0" stroke-linecap="round" stroke-linejoin="round"/>
    <path d="M 184.3050079345703 284.9583740234375 C 88.47535705566406 273.744140625 66.49394989013672 283.523681640625 73.2822494506836 326.5353698730469 C 109.99079132080078 411.46856689453125 89.02595520019531 397.95477294921875 -17.49097442626953 290.0874938964844 C -28.863059997558594 102.02718353271484 -17.50111198425293 128.33697509765625 123.32850646972656 104.80404663085938 C 188.6190185546875 175.02215576171875 209.0069122314453 210.44192504882812 184.3050079345703 284.9583740234375" stroke-width="0.0" fill="rgb(28, 13, 190)" opacity="1.0" stroke="rgb(0, 0, 0)" stroke-opacity="1.0" stroke-linecap="round" stroke-linejoin="round"/>
    <path d="M 228.2019500732422 64.79214477539062 C 211.73944091796875 82.52848052978516 212.29827880859375 73.1992416381836 187.10205078125 89.31739807128906 C 166.3249969482422 113.07891845703125 114.48139190673828 126.53909301757812 61.74867248535156 60.322227478027344 C 82.18344116210938 -42.927066802978516 77.31085968017578 -58.99394989013672 177.95394897460938 -39.77196502685547 C 185.78826904296875 -2.693925380706787 170.1715087890625 33.95151901245117 228.2019500732422 64.79214477539062" stroke-width="0.0" fill="rgb(76, 33, 213)" opacity="1.0" stroke="rgb(0, 0, 0)" stroke-opacity="1.0" stroke-linecap="round" stroke-linejoin="round"/>
    <path d="M 275.4403381347656 121.55789947509766 C 306.7251892089844 176.21307373046875 290.4221496582031 221.88917541503906 221.8356170654297 205.01173400878906 C 169.3642578125 154.19334411621094 266.3406982421875 157.22506713867188 202.56585693359375 126.87081909179688 C 278.90240478515625 64.00469970703125 289.4822998046875 126.97103118896484 308.90350341796875 162.71282958984375 C 278.27899169921875 181.67086791992188 227.7852783203125 92.41691589355469 275.4403381347656 121.55789947509766" stroke-width="0.0" fill="rgb(198, 102, 51)" opacity="0.9799321" stroke="rgb(0, 0, 0)" stroke-opacity="1.0" stroke-linecap="round" stroke-linejoin="round"/>
    <path d="M 94.11644744873047 315.4613952636719 C 58.301475524902344 343.0545349121094 114.14201354980469 354.0071105957031 100.16165161132812 410.5921325683594 C 119.7170639038086 334.5732727050781 95.36437225341797 332.0909729003906 92.91476440429688 331.93658447265625 C 114.67540740966797 323.4386291503906 101.673583984375 324.11895751953125 100.76482391357422 321.2580261230469 C 76.72855377197266 368.8935241699219 34.07018280029297 276.2879333496094 94.11644744873047 315.4613952636719" stroke-width="0.0" fill="rgb(249, 238, 2)" opacity="0.96342903" stroke="rgb(0, 0, 0)" stroke-opacity="1.0" stroke-linecap="round" stroke-linejoin="round"/>
    <path d="M 193.609130859375 97.99456024169922 C 227.88592529296875 106.47305297851562 147.76873779296875 121.50472259521484 205.78115844726562 150.3015899658203 C 228.62548828125 38.953060150146484 223.03231811523438 133.21556091308594 172.68666076660156 93.99546813964844 C 242.96273803710938 166.52342224121094 219.21478271484375 91.14019012451172 206.9563751220703 67.00334167480469 C 188.92784118652344 48.598121643066406 197.55258178710938 80.46855926513672 193.609130859375 97.99456024169922" stroke-width="0.0" fill="rgb(155, 90, 111)" opacity="0.5537427" stroke="rgb(0, 0, 0)" stroke-opacity="1.0" stroke-linecap="round" stroke-linejoin="round"/>
    <path d="M 268.9870910644531 446.6192321777344 C 237.53419494628906 440.3645324707031 207.79273986816406 443.3921203613281 237.4229278564453 458.5993957519531 C 228.03892517089844 448.8469543457031 210.3867645263672 465.486328125 209.4690704345703 470.7582702636719 C 189.671142578125 311.59564208984375 229.0010986328125 318.7174072265625 224.45346069335938 444.2923278808594 C 299.5524597167969 459.4901123046875 296.3348388671875 459.1256103515625 268.9870910644531 446.6192321777344" stroke-width="0.0" fill="rgb(183, 139, 119)" opacity="0.9678623" stroke="rgb(0, 0, 0)" stroke-opacity="1.0" stroke-linecap="round" stroke-linejoin="round"/>
    <path d="M 166.68687438964844 288.7877197265625 C 160.75927734375 252.26937866210938 124.57658386230469 278.40264892578125 154.5619354248047 306.1048583984375 C 171.61378479003906 299.2688293457031 161.5116729736328 288.0091857910156 119.84469604492188 284.64556884765625 C 134.14193725585938 317.7129211425781 141.8248748779297 308.23394775390625 154.65650939941406 267.0085144042969 C 141.16845703125 285.7934875488281 138.63973999023438 300.2337951660156 166.68687438964844 288.7877197265625" stroke-width="0.0" fill="rgb(208, 225, 161)" opacity="0.2703982" stroke="rgb(0, 0, 0)" stroke-opacity="1.0" stroke-linecap="round" stroke-linejoin="round"/>
    <path d="M 201.6720733642578 80.80533599853516 C 222.16590881347656 121.5061264038086 220.8735809326172 124.0261459350586 181.8912353515625 156.3555145263672 C 144.75840759277344 177.1123504638672 156.65652465820312 141.73614501953125 159.68389892578125 114.26984405517578 C 208.61827087402344 123.2827377319336 201.55722045898438 108.68545532226562 190.8331298828125 93.99606323242188 C 164.88259887695312 97.94338989257812 167.13723754882812 111.05939483642578 201.6720733642578 80.80533599853516" stroke-width="0.0" fill="rgb(241, 220, 0)" opacity="1.0" stroke="rgb(0, 0, 0)" stroke-opacity="1.0" stroke-linecap="round" stroke-linejoin="round"/>
    <path d="M 372.287841796875 265.38751220703125 C 348.0152282714844 284.4764099121094 364.3939208984375 290.5527038574219 311.40625 284.02783203125 C 268.9090270996094 282.0311584472656 295.4436340332031 296.8267822265625 318.4610595703125 228.50485229492188 C 346.79571533203125 212.35372924804688 350.49267578125 219.9459686279297 358.9159240722656 230.66424560546875 C 385.2646484375 236.8871612548828 372.1159973144531 234.66378784179688 372.287841796875 265.38751220703125" stroke-width="0.0" fill="rgb(98, 8, 249)" opacity="0.9904697" stroke="rgb(0, 0, 0)" stroke-opacity="1.0" stroke-linecap="round" stroke-linejoin="round"/>
    <path d="M 181.93743896484375 308.6545104980469 C 177.3130340576172 287.5464782714844 170.076416015625 284.23309326171875 158.15396118164062 288.490478515625 C 154.01866149902344 287.783203125 149.86839294433594 303.3721618652344 163.00025939941406 291.2208251953125 C 193.62486267089844 286.54913330078125 182.41123962402344 278.8509216308594 191.7238006591797 178.70556640625 C 256.3409118652344 253.70309448242188 217.0124969482422 257.39837646484375 181.93743896484375 308.6545104980469" stroke-width="0.0" fill="rgb(193, 185, 147)" opacity="1.0" stroke="rgb(0, 0, 0)" stroke-opacity="1.0" stroke-linecap="round" stroke-linejoin="round"/>
    <path d="M 194.18850708007812 89.93399047851562 C 195.51211547851562 113.11664581298828 216.2160186767578 112.79960632324219 170.3211669921875 138.90557861328125 C 148.40777587890625 135.39859008789062 143.1061248779297 119.14643096923828 152.24923706054688 83.3174819946289 C 165.26173400878906 82.0795669555664 172.85670471191406 23.374643325805664 183.82908630371094 41.99794006347656 C 169.5212860107422 60.95832824707031 202.49598693847656 80.86016082763672 194.18850708007812 89.93399047851562" stroke-width="0.0" fill="rgb(82, 35, 178)" opacity="0.9897903" stroke="rgb(0, 0, 0)" stroke-opacity="1.0" stroke-linecap="round" stroke-linejoin="round"/>
    <path d="M 264.3852233886719 472.43646240234375 C 241.21670532226562 429.4415588378906 280.77606201171875 432.1143798828125 274.0782775878906 448.2240295410156 C 235.69403076171875 482.65545654296875 213.74209594726562 483.31024169921875 222.3713836669922 492.7625732421875 C 213.37767028808594 420.2931213378906 207.35765075683594 448.984375 224.57369995117188 429.5682067871094 C 256.1877136230469 453.5630798339844 245.0184783935547 470.3522033691406 264.3852233886719 472.43646240234375" stroke-width="0.0" fill="rgb(17, 49, 183)" opacity="0.9702967" stroke="rgb(0, 0, 0)" stroke-opacity="1.0" stroke-linecap="round" stroke-linejoin="round"/>
    <path d="M 373.1302185058594 238.5959014892578 C 393.52099609375 229.65516662597656 350.075439453125 238.46588134765625 309.7006530761719 233.51927185058594 C 314.0799255371094 236.96075439453125 307.16156005859375 238.82716369628906 272.73046875 221.2887420654297 C 252.6039276123047 228.5571746826172 271.0076904296875 227.11257934570312 352.4904479980469 222.95791625976562 C 362.2580261230469 216.14334106445312 342.68475341796875 217.7029571533203 373.1302185058594 238.5959014892578" stroke-width="0.0" fill="rgb(89, 29, 217)" opacity="0.41094953" stroke="rgb(0, 0, 0)" stroke-opacity="1.0" stroke-linecap="round" stroke-linejoin="round"/>
    <path d="M 177.46632385253906 135.70912170410156 C 176.4734649658203 155.283447265625 153.99166870117188 139.3399200439453 134.04913330078125 128.9823760986328 C 136.60328674316406 137.59278869628906 134.59814453125 115.56266784667969 110.30583190917969 109.75912475585938 C 100.26065826416016 105.01467895507812 86.6998291015625 107.69662475585938 111.80847930908203 90.42667388916016 C 151.16249084472656 98.90933227539062 180.23944091796875 96.93548583984375 177.46632385253906 135.70912170410156" stroke-width="0.0" fill="rgb(225, 210, 201)" opacity="0.87652516" stroke="rgb(0, 0, 0)" stroke-opacity="1.0" stroke-linecap="round" stroke-linejoin="round"/>
    <path d="M 135.89576721191406 374.49072265625 C 126.31157684326172 396.92620849609375 104.00544738769531 381.70245361328125 92.99907684326172 453.7327575683594 C 53.449947357177734 440.7746276855469 81.86426544189453 383.5401916503906 73.2472915649414 334.51123046875 C 62.044673919677734 310.7644348144531 86.51126861572266 325.4233703613281 111.20521545410156 332.33447265625 C 116.75377655029297 289.2196350097656 144.91380310058594 321.6199645996094 135.89576721191406 374.49072265625" stroke-width="0.0" fill="rgb(187, 170, 131)" opacity="0.8834026" stroke="rgb(0, 0, 0)" stroke-opacity="1.0" stroke-linecap="round" stroke-linejoin="round"/>
    <path d="M 117.88613891601562 434.3083190917969 C 123.12454986572266 484.4689636230469 122.85694885253906 480.94854736328125 92.09832000732422 450.521728515625 C 97.31876373291016 487.7206115722656 76.69522094726562 482.7687683105469 85.50595092773438 440.7854309082031 C 82.69371032714844 417.3514404296875 76.78515625 393.6462707519531 91.06303405761719 402.7809143066406 C 122.72010040283203 375.2305603027344 137.29969787597656 387.95538330078125 117.88613891601562 434.3083190917969" stroke-width="0.0" fill="rgb(183, 156, 106)" opacity="0.90191334" stroke="rgb(0, 0, 0)" stroke-opacity="1.0" stroke-linecap="round" stroke-linejoin="round"/>
    <path d="M 146.81881713867188 139.6980438232422 C 110.4004135131836 166.58384704589844 104.96834564208984 140.76905822753906 101.56367492675781 130.4946746826172 C 107.31354522705078 145.8721160888672 106.02775573730469 136.52149963378906 96.45072937011719 115.14122009277344 C 85.01966094970703 118.90543365478516 88.37493896484375 136.88296508789062 134.6434326171875 142.53858947753906 C 91.0684585571289 101.99935913085938 114.29559326171875 102.87435913085938 146.81881713867188 139.6980438232422" stroke-width="0.0" fill="rgb(91, 26, 193)" opacity="0.59186417" stroke="rgb(0, 0, 0)" stroke-opacity="1.0" stroke-linecap="round" stroke-linejoin="round"/>
    <path d="M 95.6081771850586 154.64678955078125 C 64.45050048828125 139.72576904296875 71.55265808105469 97.58012390136719 40.94529342651367 103.23516845703125 C 34.23540496826172 135.82325744628906 57.566009521484375 108.5751953125 44.60454559326172 114.439453125 C 20.345867156982422 108.8902816772461 45.97554016113281 103.08881378173828 38.50782775878906 108.98961639404297 C 41.258018493652344 104.52393341064453 75.76939392089844 107.89427185058594 95.6081771850586 154.64678955078125" stroke-width="0.0" fill="rgb(78, 13, 245)" opacity="0.1887208" stroke="rgb(0, 0, 0)" stroke-opacity="1.0" stroke-linecap="round" stroke-linejoin="round"/>
    <path d="M 15.264404296875 346.4875183105469 C 45.893287658691406 365.5741882324219 74.21257019042969 310.8125305175781 40.55177688598633 305.4764099121094 C 31.672122955322266 341.15509033203125 33.25144577026367 323.41986083984375 29.234905242919922 320.053955078125 C 26.968568801879883 303.6786193847656 30.545612335205078 316.4955749511719 49.86669158935547 316.51922607421875 C 44.58048629760742 327.0780944824219 61.487091064453125 332.2500915527344 15.264404296875 346.4875183105469" stroke-width="0.0" fill="rgb(21, 40, 161)" opacity="0.053191148" stroke="rgb(0, 0, 0)" stroke-opacity="1.0" stroke-linecap="round" stroke-linejoin="round"/>
    <path d="M 378.6284484863281 220.85752868652344 C 372.8019104003906 279.98248291015625 382.7831726074219 279.7555847167969 356.6822814941406 285.003173828125 C 370.3039245605469 238.36148071289062 356.27374267578125 233.23545837402344 382.5112609863281 205.2224884033203 C 385.88092041015625 177.3330078125 356.8231506347656 192.985107421875 360.0071716308594 190.06199645996094 C 354.4472351074219 212.8186492919922 360.5935974121094 198.15298461914062 378.6284484863281 220.85752868652344" stroke-width="0.0" fill="rgb(255, 178, 50)" opacity="0.97051054" stroke="rgb(0, 0, 0)" stroke-opacity="1.0" stroke-linecap="round" stroke-linejoin="round"/>
    <path d="M 189.75442504882812 249.70175170898438 C 187.25218200683594 288.506591796875 178.0421905517578 296.2359924316406 176.42930603027344 288.8099060058594 C 184.87600708007812 290.1166076660156 189.75863647460938 288.5246887207031 166.86041259765625 294.9017333984375 C 188.1227569580078 288.7160339355469 214.04881286621094 256.1930236816406 196.50942993164062 246.60067749023438 C 165.11441040039062 266.4920654296875 195.87417602539062 269.7505798339844 189.75442504882812 249.70175170898438" stroke-width="0.0" fill="rgb(247, 140, 153)" opacity="0.3042595" stroke="rgb(0, 0, 0)" stroke-opacity="1.0" stroke-linecap="round" stroke-linejoin="round"/>
    <path d="M 222.66049194335938 218.521484375 C 225.97438049316406 247.81643676757812 203.63186645507812 260.87640380859375 211.8393096923828 263.46533203125 C 199.08595275878906 245.62974548339844 209.67015075683594 241.52517700195312 186.14346313476562 245.7686767578125 C 194.2784881591797 220.9046630859375 194.08506774902344 196.90847778320312 188.55792236328125 199.796142578125 C 193.71241760253906 214.91729736328125 223.73928833007812 214.02987670898438 222.66049194335938 218.521484375" stroke-width="0.0" fill="rgb(241, 169, 66)" opacity="0.0" stroke="rgb(0, 0, 0)" stroke-opacity="1.0" stroke-linecap="round" stroke-linejoin="round"/>
    <path d="M 199.55763244628906 333.0841979980469 C 164.79458618164062 331.83642578125 170.5860137939453 332.4017639160156 192.1439666748047 344.10150146484375 C 176.6276092529297 371.56646728515625 183.80592346191406 359.68853759765625 177.6477508544922 307.44720458984375 C 159.4370880126953 299.75048828125 168.8983154296875 301.01141357421875 143.97618103027344 341.1919860839844 C 172.20567321777344 338.8768005371094 196.71337890625 360.3542785644531 199.55763244628906 333.0841979980469" stroke-width="0.0" fill="rgb(163, 157, 105)" opacity="0.40318426" stroke="rgb(0, 0, 0)" stroke-opacity="1.0" stroke-linecap="round" stroke-linejoin="round"/>
    <path d="M 58.39914321899414 131.41749572753906 C 133.67967224121094 116.41571807861328 107.51981353759766 126.48121643066406 107.13538360595703 144.8885040283203 C 85.685546875 132.2576446533203 96.54238891601562 110.01525115966797 76.73229217529297 115.31340789794922 C 43.27984619140625 131.88909912109375 47.87445068359375 143.65335083007812 123.05782318115234 135.77735900878906 C 119.02880859375 42.6224479675293 89.64421844482422 57.578460693359375 58.39914321899414 131.41749572753906" stroke-width="0.0" fill="rgb(51, 18, 206)" opacity="0.80569434" stroke="rgb(0, 0, 0)" stroke-opacity="1.0" stroke-linecap="round" stroke-linejoin="round"/>
    <path d="M 45.56833267211914 96.0215072631836 C 12.517748832702637 118.89947509765625 16.621553421020508 101.0670394897461 37.34315490722656 99.0352554321289 C 20.382156372070312 111.00789642333984 -27.438997268676758 102.66339874267578 -40.57455825805664 115.10223388671875 C -8.939117431640625 92.1037368774414 -6.095886707305908 120.83966827392578 33.3783073425293 100.44727325439453 C 46.60304260253906 93.60649108886719 59.81183624267578 108.94842529296875 45.56833267211914 96.0215072631836" stroke-width="0.0" fill="rgb(58, 35, 220)" opacity="0.055273995" stroke="rgb(0, 0, 0)" stroke-opacity="1.0" stroke-linecap="round" stroke-linejoin="round"/>
    <path d="M 154.61428833007812 154.28695678710938 C 149.1211395263672 199.83103942871094 150.53134155273438 172.88348388671875 90.74922943115234 169.9661407470703 C 109.0212631225586 169.9995880126953 93.29731750488281 144.3552703857422 96.97572326660156 152.06495666503906 C 128.928466796875 136.51113891601562 125.8011703491211 122.18425750732422 108.6358642578125 124.871337890625 C 118.0501937866211 123.73039245605469 134.93678283691406 134.80935668945312 154.61428833007812 154.28695678710938" stroke-width="0.0" fill="rgb(58, 3, 186)" opacity="0.072613984" stroke="rgb(0, 0, 0)" stroke-opacity="1.0" stroke-linecap="round" stroke-linejoin="round"/>
    <path d="M 398.41717529296875 209.31027221679688 C 417.9763488769531 234.67115783691406 383.847412109375 245.62686157226562 361.65509033203125 244.11570739746094 C 349.1424255371094 236.40573120117188 341.2376708984375 233.51321411132812 351.5129699707031 206.521484375 C 356.356689453125 205.2695770263672 360.53582763671875 182.62997436523438 378.0762939453125 180.9652099609375 C 369.8737487792969 182.36534118652344 394.3143615722656 182.2912139892578 398.41717529296875 209.31027221679688" stroke-width="0.0" fill="rgb(88, 255, 139)" opacity="1.0" stroke="rgb(0, 0, 0)" stroke-opacity="1.0" stroke-linecap="round" stroke-linejoin="round"/>
    <path d="M 302.3441162109375 159.90577697753906 C 317.92034912109375 176.61935424804688 308.1209411621094 188.18104553222656 295.1210021972656 184.214599609375 C 268.8089294433594 179.18263244628906 263.0846252441406 175.61563110351562 273.3978576660156 139.37899780273438 C 290.701904296875 132.64541625976562 279.69891357421875 135.53480529785156 312.2384338378906 142.20245361328125 C 330.6505432128906 159.56036376953125 263.5873718261719 151.55642700195312 302.3441162109375 159.90577697753906" stroke-width="0.0" fill="rgb(238, 255, 204)" opacity="0.9616031" stroke="rgb(0, 0, 0)" stroke-opacity="1.0" stroke-linecap="round" stroke-linejoin="round"/>
    <path d="M 145.96417236328125 27.94283676147461 C 149.3854217529297 38.49972152709961 138.0152587890625 48.753299713134766 131.7340850830078 65.40574645996094 C 118.03229522705078 66.5526351928711 109.66841125488281 39.44707489013672 106.8468246459961 37.462459564208984 C 113.73982238769531 15.813239097595215 125.42485046386719 -2.2048089504241943 134.62489318847656 12.846749305725098 C 111.556396484375 23.049448013305664 152.7141876220703 23.145557403564453 145.96417236328125 27.94283676147461" stroke-width="0.0" fill="rgb(31, 37, 136)" opacity="0.019774465" stroke="rgb(0, 0, 0)" stroke-opacity="1.0" stroke-linecap="round" stroke-linejoin="round"/>
    <path d="M 40.966407775878906 350.28033447265625 C 56.89446258544922 302.6499328613281 62.59149932861328 306.2314453125 64.80667114257812 335.8164978027344 C 9.365452766418457 332.2358093261719 -0.6749037504196167 334.2075500488281 35.702857971191406 302.59967041015625 C 34.300506591796875 283.7926940917969 31.550193786621094 293.2625427246094 41.86627197265625 287.25396728515625 C 35.38079071044922 303.4941711425781 7.299561977386475 344.712646484375 40.966407775878906 350.28033447265625" stroke-width="0.0" fill="rgb(17, 28, 174)" opacity="0.15816171" stroke="rgb(0, 0, 0)" stroke-opacity="1.0" stroke-linecap="round" stroke-linejoin="round"/>
    <path d="M 228.33033752441406 20.132802963256836 C 242.8196563720703 26.76620864868164 241.15548706054688 50.012046813964844 259.7593078613281 59.496192932128906 C 249.09979248046875 20.120092391967773 209.08216857910156 13.667658805847168 205.87310791015625 52.87416458129883 C 241.73403930664062 24.38751983642578 236.66014099121094 20.08963394165039 242.48605346679688 2.793487071990967 C 263.45355224609375 48.244972229003906 271.7776184082031 49.66574478149414 228.33033752441406 20.132802963256836" stroke-width="0.0" fill="rgb(32, 59, 99)" opacity="0.0" stroke="rgb(0, 0, 0)" stroke-opacity="1.0" stroke-linecap="round" stroke-linejoin="round"/>
    <path d="M 111.32655334472656 344.8084716796875 C 122.04192352294922 309.797119140625 140.4012451171875 347.5121765136719 112.74050903320312 381.3428039550781 C 79.7834701538086 372.72076416015625 106.50687408447266 363.1699523925781 113.95873260498047 338.34417724609375 C 92.80841827392578 334.0223388671875 111.19976043701172 323.50604248046875 102.32527160644531 301.1710510253906 C 85.64965057373047 314.03692626953125 103.51692199707031 359.99700927734375 111.32655334472656 344.8084716796875" stroke-width="0.0" fill="rgb(224, 174, 62)" opacity="0.052008513" stroke="rgb(0, 0, 0)" stroke-opacity="1.0" stroke-linecap="round" stroke-linejoin="round"/>
    <path d="M 215.125 352.4939880371094 C 224.31422424316406 428.02069091796875 233.88986206054688 397.2244873046875 221.60372924804688 413.7134704589844 C 175.3992462158203 399.95367431640625 185.2110595703125 381.3641662597656 185.84030151367188 370.3818054199219 C 188.23316955566406 360.5421142578125 173.75701904296875 326.3842468261719 195.43661499023438 359.55230712890625 C 207.85504150390625 353.45703125 237.21005249023438 339.7393798828125 215.125 352.4939880371094" stroke-width="0.0" fill="rgb(171, 81, 34)" opacity="0.103588805" stroke="rgb(0, 0, 0)" stroke-opacity="1.0" stroke-linecap="round" stroke-linejoin="round"/>
    <path d="M 54.001644134521484 206.06246948242188 C 67.46927642822266 210.48838806152344 70.62850952148438 201.37464904785156 72.75614929199219 198.57232666015625 C 56.03502655029297 179.09359741210938 31.458688735961914 183.76441955566406 40.370731353759766 189.7454071044922 C 25.10531234741211 201.8848419189453 50.75917053222656 187.90829467773438 37.22002029418945 179.25401306152344 C 10.453825950622559 205.06256103515625 23.96579360961914 211.3390655517578 54.001644134521484 206.06246948242188" stroke-width="0.0" fill="rgb(18, 2, 208)" opacity="0.04889299" stroke="rgb(0, 0, 0)" stroke-opacity="1.0" stroke-linecap="round" stroke-linejoin="round"/>
    <path d="M 453.5489807128906 313.64398193359375 C 467.1150207519531 345.425537109375 457.5408935546875 335.3378601074219 407.62335205078125 305.1962890625 C 399.4355163574219 293.2697448730469 418.4647216796875 283.4872741699219 426.36297607421875 241.61729431152344 C 417.4473571777344 229.9592742919922 422.5538330078125 248.7214813232422 446.09857177734375 272.97332763671875 C 471.98931884765625 292.9090576171875 464.7312316894531 293.8848876953125 453.5489807128906 313.64398193359375" stroke-width="0.0" fill="rgb(55, 48, 99)" opacity="0.06255984" stroke="rgb(0, 0, 0)" stroke-opacity="1.0" stroke-linecap="round" stroke-linejoin="round"/>
    <path d="M 31.83358383178711 156.95436096191406 C 45.27812576293945 133.22238159179688 35.24661636352539 180.93788146972656 8.353209495544434 173.4762725830078 C -30.721817016601562 167.9073028564453 -17.277767181396484 161.66229248046875 -10.167086601257324 143.7294158935547 C 11.462262153625488 144.87844848632812 20.979490280151367 143.30581665039062 31.41162109375 137.52783203125 C 22.930652618408203 147.01171875 55.11183547973633 163.22055053710938 31.83358383178711 156.95436096191406" stroke-width="0.0" fill="rgb(28, 32, 234)" opacity="0.0026304903" stroke="rgb(0, 0, 0)" stroke-opacity="1.0" stroke-linecap="round" stroke-linejoin="round"/>
    <path d="M 550.2136840820312 243.33941650390625 C 526.4210815429688 254.81300354003906 525.6099853515625 254.11705017089844 521.9769287109375 245.1310272216797 C 517.1444091796875 253.48638916015625 506.2276306152344 246.63275146484375 496.1385803222656 238.3505096435547 C 515.15771484375 225.99220275878906 492.9911804199219 208.84144592285156 492.74072265625 226.4520721435547 C 529.5674438476562 236.77561950683594 550.3472290039062 236.9195098876953 550.2136840820312 243.33941650390625" stroke-width="0.0" fill="rgb(32, 27, 162)" opacity="0.042765528" stroke="rgb(0, 0, 0)" stroke-opacity="1.0" stroke-linecap="round" stroke-linejoin="round"/>
    <path d="M 232.46978759765625 102.6717300415039 C 243.5207061767578 120.71552276611328 243.05511474609375 125.3725814819336 209.31951904296875 124.66326904296875 C 205.44515991210938 109.14306640625 203.34463500976562 93.44609832763672 199.71197509765625 101.1102066040039 C 213.25570678710938 98.11680603027344 235.60635375976562 93.7344970703125 229.69284057617188 82.99290466308594 C 234.81185913085938 77.63482666015625 275.4591064453125 78.62332153320312 232.46978759765625 102.6717300415039" stroke-width="0.0" fill="rgb(187, 255, 76)" opacity="0.7750155" stroke="rgb(0, 0, 0)" stroke-opacity="1.0" stroke-linecap="round" stroke-linejoin="round"/>
    <path d="M 402.3543701171875 298.2852783203125 C 442.2215881347656 294.1683654785156 452.0743103027344 289.99212646484375 409.7643127441406 267.7827453613281 C 405.4105224609375 343.9269104003906 428.0683288574219 313.515869140625 420.014892578125 238.18408203125 C 408.79754638671875 252.97116088867188 419.3507385253906 266.87530517578125 398.6714172363281 274.11065673828125 C 396.6221618652344 278.1160888671875 385.16387939453125 283.7942199707031 402.3543701171875 298.2852783203125" stroke-width="0.0" fill="rgb(27, 48, 114)" opacity="0.03711196" stroke="rgb(0, 0, 0)" stroke-opacity="1.0" stroke-linecap="round" stroke-linejoin="round"/>
    <path d="M 533.6873168945312 122.501220703125 C 524.3668823242188 147.4005889892578 512.789794921875 145.65760803222656 518.2496948242188 187.20730590820312 C 481.5623779296875 178.1331329345703 471.333740234375 156.09922790527344 494.9685363769531 125.4156265258789 C 518.9865112304688 115.82933807373047 511.6072082519531 140.5355682373047 500.2616271972656 119.37675476074219 C 539.2174072265625 101.88137817382812 543.104736328125 104.6387939453125 533.6873168945312 122.501220703125" stroke-width="0.0" fill="rgb(37, 35, 142)" opacity="0.020606436" stroke="rgb(0, 0, 0)" stroke-opacity="1.0" stroke-linecap="round" stroke-linejoin="round"/>
    <path d="M 538.1936645507812 172.70401000976562 C 534.565185546875 178.49111938476562 525.1010131835938 182.29229736328125 526.1718139648438 186.01034545898438 C 501.7107238769531 172.14755249023438 485.45770263671875 161.06459045410156 509.5185241699219 168.91676330566406 C 506.0703125 152.38937377929688 507.5589599609375 152.47430419921875 518.9221801757812 150.31422424316406 C 522.3248291015625 146.18287658691406 525.625732421875 154.03567504882812 538.1936645507812 172.70401000976562" stroke-width="0.0" fill="rgb(46, 22, 183)" opacity="0.015850017" stroke="rgb(0, 0, 0)" stroke-opacity="1.0" stroke-linecap="round" stroke-linejoin="round"/>
    <path d="M 55.18313980102539 349.4819641113281 C 51.39738082885742 361.78857421875 56.54584503173828 356.1716003417969 75.75627899169922 371.17840576171875 C 30.133838653564453 374.3821716308594 40.16960906982422 370.0230407714844 32.44630813598633 319.3992614746094 C 10.673243522644043 323.74957275390625 29.662538528442383 321.1627502441406 70.26741790771484 332.8434143066406 C 81.85454559326172 324.15142822265625 71.9306640625 313.9503173828125 55.18313980102539 349.4819641113281" stroke-width="0.0" fill="rgb(0, 46, 103)" opacity="0.09068475" stroke="rgb(0, 0, 0)" stroke-opacity="1.0" stroke-linecap="round" stroke-linejoin="round"/>
    <path d="M 343.2613525390625 216.61456298828125 C 346.8947448730469 244.7599639892578 295.18695068359375 229.52151489257812 254.313720703125 254.24403381347656 C 266.79217529296875 303.8297119140625 327.7164306640625 312.5259704589844 333.5663757324219 267.1618347167969 C 297.73309326171875 195.15663146972656 346.051025390625 191.46534729003906 362.8993225097656 245.4236602783203 C 377.9869689941406 240.80325317382812 336.866943359375 223.2420196533203 343.2613525390625 216.61456298828125" stroke-width="0.0" fill="rgb(68, 0, 191)" opacity="0.16648993" stroke="rgb(0, 0, 0)" stroke-opacity="1.0" stroke-linecap="round" stroke-linejoin="round"/>
    <path d="M 503.5486145019531 143.35665893554688 C 503.1676940917969 140.4930419921875 490.5146179199219 141.6085968017578 494.018310546875 130.87515258789062 C 478.75384521484375 134.47850036621094 467.6282653808594 134.47511291503906 470.5390319824219 123.17477416992188 C 468.83453369140625 131.4992218017578 480.7493896484375 147.64378356933594 496.72393798828125 139.80409240722656 C 495.1072998046875 118.66715240478516 485.4243469238281 126.40966796875 503.5486145019531 143.35665893554688" stroke-width="0.0" fill="rgb(41, 36, 151)" opacity="0.0" stroke="rgb(0, 0, 0)" stroke-opacity="1.0" stroke-linecap="round" stroke-linejoin="round"/>
    <path d="M 490.2200927734375 435.0912170410156 C 488.34429931640625 501.393798828125 444.76226806640625 501.8167419433594 438.72369384765625 494.71490478515625 C 455.5710754394531 485.2005920410156 421.43499755859375 470.0980224609375 465.50030517578125 492.24530029296875 C 479.4030456542969 529.5872192382812 466.173583984375 447.9725036621094 471.126953125 418.0544738769531 C 506.9452209472656 408.24664306640625 508.8919677734375 426.5928649902344 490.2200927734375 435.0912170410156" stroke-width="0.0" fill="rgb(26, 77, 87)" opacity="0.009090152" stroke="rgb(0, 0, 0)" stroke-opacity="1.0" stroke-linecap="round" stroke-linejoin="round"/>
    <path d="M 532.8471069335938 370.5599060058594 C 516.8389892578125 373.3480529785156 500.1954650878906 384.35211181640625 502.302490234375 391.0894775390625 C 483.38226318359375 368.9844970703125 468.7152099609375 374.6325988769531 488.0091857910156 358.03369140625 C 467.6060485839844 344.0680236816406 460.72467041015625 354.3238525390625 458.7746276855469 369.67034912109375 C 476.15655517578125 381.638916015625 520.396484375 366.5965576171875 532.8471069335938 370.5599060058594" stroke-width="0.0" fill="rgb(12, 71, 74)" opacity="0.089545354" stroke="rgb(0, 0, 0)" stroke-opacity="1.0" stroke-linecap="round" stroke-linejoin="round"/>
    <path d="M 167.8787078857422 421.98443603515625 C 171.5831298828125 416.56256103515625 168.5395965576172 447.518798828125 162.54466247558594 444.8732604980469 C 134.12423706054688 440.46234130859375 149.4854736328125 444.19000244140625 143.595947265625 436.0691223144531 C 134.5391082763672 414.7471618652344 122.72572326660156 375.3091735839844 149.5334930419922 360.9986877441406 C 155.5349578857422 383.3703918457031 154.3275909423828 442.12542724609375 167.8787078857422 421.98443603515625" stroke-width="0.0" fill="rgb(52, 24, 212)" opacity="0.14264832" stroke="rgb(0, 0, 0)" stroke-opacity="1.0" stroke-linecap="round" stroke-linejoin="round"/>
    <path d="M 105.10894012451172 164.88970947265625 C 94.0244140625 186.4617919921875 96.4549560546875 190.7083282470703 69.41252136230469 183.20738220214844 C 77.15819549560547 181.51097106933594 74.73371124267578 188.49783325195312 71.82467651367188 170.00440979003906 C 75.84770965576172 142.02122497558594 84.07594299316406 151.2725372314453 73.31597137451172 147.77333068847656 C 97.0896224975586 145.323486328125 107.44636535644531 147.84512329101562 105.10894012451172 164.88970947265625" stroke-width="0.0" fill="rgb(17, 0, 212)" opacity="0.073207654" stroke="rgb(0, 0, 0)" stroke-opacity="1.0" stroke-linecap="round" stroke-linejoin="round"/>
    <path d="M 214.60752868652344 127.66386413574219 C 191.27342224121094 153.2774200439453 186.45071411132812 137.89158630371094 198.7080841064453 162.9989776611328 C 172.0562286376953 152.1721649169922 158.66119384765625 133.6792449951172 134.77301025390625 111.2575912475586 C 147.3681640625 108.41226959228516 154.77102661132812 113.83402252197266 165.34878540039062 128.22918701171875 C 189.5607147216797 90.11683654785156 202.77835083007812 93.61587524414062 214.60752868652344 127.66386413574219" stroke-width="0.0" fill="rgb(235, 172, 0)" opacity="0.67704463" stroke="rgb(0, 0, 0)" stroke-opacity="1.0" stroke-linecap="round" stroke-linejoin="round"/>
    <path d="M 162.4194793701172 408.95233154296875 C 173.81259155273438 389.6500244140625 179.13522338867188 412.6744689941406 164.69595336914062 401.4453125 C 129.7084197998047 408.68524169921875 140.3969268798828 412.8956298828125 151.1566925048828 360.6069030761719 C 139.59158325195312 379.4740905761719 159.56446838378906 396.88116455078125 129.70816040039062 417.8362121582031 C 132.543212890625 386.8860778808594 157.67733764648438 404.29583740234375 162.4194793701172 408.95233154296875" stroke-width="0.0" fill="rgb(57, 6, 112)" opacity="0.03330359" stroke="rgb(0, 0, 0)" stroke-opacity="1.0" stroke-linecap="round" stroke-linejoin="round"/>
    <path d="M 473.120849609375 95.3421859741211 C 504.33709716796875 136.06466674804688 462.6883544921875 165.87318420410156 436.607421875 146.68222045898438 C 431.6304931640625 135.7377166748047 434.9146423339844 123.45174407958984 446.1074523925781 119.44436645507812 C 451.4698791503906 134.4769287109375 462.08209228515625 135.51123046875 457.3479919433594 102.86955261230469 C 446.3285217285156 108.27799224853516 446.4322814941406 118.1509017944336 473.120849609375 95.3421859741211" stroke-width="0.0" fill="rgb(29, 56, 114)" opacity="0.03763619" stroke="rgb(0, 0, 0)" stroke-opacity="1.0" stroke-linecap="round" stroke-linejoin="round"/>
    <path d="M 270.365234375 327.3435363769531 C 232.57403564453125 343.4457702636719 213.37295532226562 356.13623046875 254.9546661376953 351.54229736328125 C 258.7919616699219 321.1813049316406 236.29959106445312 296.5733337402344 281.18304443359375 268.1005554199219 C 264.6922912597656 320.1205139160156 258.56915283203125 311.5268859863281 237.31239318847656 305.6850280761719 C 248.6621551513672 308.3398132324219 236.96058654785156 349.4462585449219 270.365234375 327.3435363769531" stroke-width="0.0" fill="rgb(38, 10, 144)" opacity="0.043461554" stroke="rgb(0, 0, 0)" stroke-opacity="1.0" stroke-linecap="round" stroke-linejoin="round"/>
    <path d="M 144.5830841064453 469.2532043457031 C 137.41978454589844 460.98138427734375 132.61703491210938 473.6630554199219 156.05044555664062 501.6625061035156 C 172.54873657226562 471.9556884765625 167.68057250976562 428.0322265625 135.36212158203125 445.9144287109375 C 150.0585479736328 473.02313232421875 151.8810272216797 458.32220458984375 144.731201171875 421.1765441894531 C 141.57174682617188 451.6014099121094 152.5933074951172 467.2607421875 144.5830841064453 469.2532043457031" stroke-width="0.0" fill="rgb(36, 51, 104)" opacity="0.023245936" stroke="rgb(0, 0, 0)" stroke-opacity="1.0" stroke-linecap="round" stroke-linejoin="round"/>
  </g>
</svg>
