<?xml version="1.0" ?>
<svg xmlns="http://www.w3.org/2000/svg" version="1.1" width="512" height="512">
  <defs/>
  <g>
    <path d="M 526.0322265625 433.4322204589844 C 561.7095947265625 502.42352294921875 562.1876831054688 511.7049255371094 391.8512268066406 531.5706787109375 C 336.37969970703125 546.8797607421875 303.014404296875 547.8720092773438 259.73284912109375 516.6072998046875 C 327.87054443359375 356.6753845214844 396.034423828125 347.2927551269531 483.6654357910156 294.2089538574219 C 542.6903686523438 301.79083251953125 542.17626953125 327.9651794433594 526.0322265625 433.4322204589844" stroke-width="0.0" fill="rgb(10, 167, 164)" opacity="0.93582314" stroke="rgb(0, 0, 0)" stroke-opacity="1.0" stroke-linecap="round" stroke-linejoin="round"/>
    <path d="M 315.4741516113281 406.6809387207031 C 278.0916748046875 474.7014465332031 284.2494201660156 515.5343627929688 243.02978515625 537.095703125 C -51.20000076293945 519.230712890625 -51.20000076293945 511.73809814453125 -41.14265060424805 486.8990783691406 C -14.431493759155273 222.4551239013672 -10.19351577758789 224.76861572265625 25.15436363220215 242.0164794921875 C 244.16604614257812 277.7184753417969 285.3460388183594 199.51564025878906 315.4741516113281 406.6809387207031" stroke-width="0.0" fill="rgb(234, 126, 0)" opacity="0.9636376" stroke="rgb(0, 0, 0)" stroke-opacity="1.0" stroke-linecap="round" stroke-linejoin="round"/>
    <path d="M 278.5500183105469 348.7506408691406 C 396.7611083984375 294.40631103515625 201.00018310546875 412.7440185546875 240.2716064453125 384.6102294921875 C 136.26080322265625 466.6380615234375 7.594767093658447 355.0868225097656 55.28023910522461 191.1397705078125 C 63.787025451660156 177.70294189453125 52.32963943481445 184.45480346679688 158.8065643310547 164.3045654296875 C 217.71450805664062 235.46995544433594 292.1784973144531 137.88331604003906 278.5500183105469 348.7506408691406" stroke-width="0.0" fill="rgb(68, 49, 0)" opacity="0.7816289" stroke="rgb(0, 0, 0)" stroke-opacity="1.0" stroke-linecap="round" stroke-linejoin="round"/>
    <path d="M 221.46084594726562 -33.351566314697266 C 191.55906677246094 144.06460571289062 160.56005859375 121.9761962890625 15.784133911132812 248.8672332763672 C -57.8007926940918 253.31568908691406 -58.83658981323242 239.36239624023438 -44.97245407104492 168.8795166015625 C -16.190303802490234 -17.708452224731445 -9.996477127075195 -23.574756622314453 32.775753021240234 -18.098133087158203 C 196.82273864746094 -23.394615173339844 224.5518341064453 -36.593833923339844 221.46084594726562 -33.351566314697266" stroke-width="0.0" fill="rgb(47, 175, 202)" opacity="0.7265792" stroke="rgb(0, 0, 0)" stroke-opacity="1.0" stroke-linecap="round" stroke-linejoin="round"/>
    <path d="M 512.6106567382812 84.72160339355469 C 422.8177795410156 276.69000244140625 476.9474182128906 362.4243469238281 361.3368225097656 295.0541687011719 C 360.0787658691406 198.579345703125 128.07057189941406 318.7125549316406 202.1773223876953 210.58876037597656 C 209.64132690429688 34.43300247192383 187.38552856445312 9.2395658493042 345.3480224609375 -46.9379997253418 C 592.674560546875 -8.822440147399902 597.99560546875 43.75554656982422 512.6106567382812 84.72160339355469" stroke-width="0.0" fill="rgb(183, 127, 25)" opacity="0.9227452" stroke="rgb(0, 0, 0)" stroke-opacity="1.0" stroke-linecap="round" stroke-linejoin="round"/>
    <path d="M 259.31005859375 157.2379913330078 C 160.18426513671875 283.38006591796875 252.1783905029297 254.19664001464844 170.7459716796875 297.38067626953125 C 196.03138732910156 158.11402893066406 152.66014099121094 169.43191528320312 98.52550506591797 240.6603546142578 C 152.20094299316406 144.36138916015625 114.99614715576172 62.53697204589844 341.1356201171875 2.451422691345215 C 319.1520690917969 -17.807538986206055 244.83523559570312 -52.191429138183594 259.31005859375 157.2379913330078" stroke-width="0.0" fill="rgb(154, 132, 42)" opacity="1.0" stroke="rgb(0, 0, 0)" stroke-opacity="1.0" stroke-linecap="round" stroke-linejoin="round"/>
    <path d="M 452.03271484375 320.3341979980469 C 448.256591796875 429.01177978515625 459.1490783691406 446.09844970703125 221.579345703125 441.6565246582031 C 71.8490982055664 410.33538818359375 48.46702575683594 415.0517272949219 336.53607177734375 398.0837707519531 C 218.95468139648438 246.38304138183594 273.5577697753906 206.00941467285156 305.8460388183594 209.06126403808594 C 464.92047119140625 207.38873291015625 477.44744873046875 238.69534301757812 452.03271484375 320.3341979980469" stroke-width="0.0" fill="rgb(113, 58, 77)" opacity="0.5839063" stroke="rgb(0, 0, 0)" stroke-opacity="1.0" stroke-linecap="round" stroke-linejoin="round"/>
    <path d="M 566.8255615234375 204.32757568359375 C 566.8388671875 334.03607177734375 562.3397216796875 344.1443786621094 465.7349548339844 424.3953552246094 C 383.4541015625 395.592041015625 411.1541748046875 335.898193359375 374.9859924316406 280.2203063964844 C 380.41021728515625 90.38910675048828 337.5578918457031 -1.117914080619812 477.74267578125 -39.26858139038086 C 603.8848266601562 9.554759979248047 598.2796020507812 54.200321197509766 566.8255615234375 204.32757568359375" stroke-width="0.0" fill="rgb(22, 195, 200)" opacity="0.9797326" stroke="rgb(0, 0, 0)" stroke-opacity="1.0" stroke-linecap="round" stroke-linejoin="round"/>
    <path d="M 355.56317138671875 153.5570526123047 C 357.2745666503906 146.46926879882812 378.0534973144531 255.42555236816406 376.5734558105469 378.4006652832031 C 403.8447570800781 116.5047607421875 125.8547134399414 291.0015869140625 219.63995361328125 199.71534729003906 C 219.6360626220703 190.35386657714844 333.2669982910156 196.21730041503906 385.14666748046875 216.47691345214844 C 390.3388977050781 105.40953063964844 353.130615234375 122.71818542480469 355.56317138671875 153.5570526123047" stroke-width="0.0" fill="rgb(104, 87, 64)" opacity="0.79740036" stroke="rgb(0, 0, 0)" stroke-opacity="1.0" stroke-linecap="round" stroke-linejoin="round"/>
    <path d="M 251.2921905517578 255.56582641601562 C 269.5015869140625 270.7593078613281 233.71742248535156 319.0127258300781 248.09471130371094 309.0015563964844 C 302.0767822265625 268.41912841796875 258.2914733886719 250.78379821777344 160.88800048828125 252.0326690673828 C 200.7643585205078 210.2574920654297 242.59828186035156 215.469482421875 201.3197021484375 252.48654174804688 C 221.71690368652344 268.8188781738281 202.03294372558594 225.5690155029297 251.2921905517578 255.56582641601562" stroke-width="0.0" fill="rgb(116, 102, 34)" opacity="0.7886743" stroke="rgb(0, 0, 0)" stroke-opacity="1.0" stroke-linecap="round" stroke-linejoin="round"/>
    <path d="M 384.1177673339844 265.71221923828125 C 380.58697509765625 259.19976806640625 380.5034484863281 283.8817138671875 405.7958984375 363.684326171875 C 366.5152893066406 306.5496826171875 392.5029296875 284.38250732421875 346.0757751464844 303.9964294433594 C 361.7314147949219 186.75460815429688 379.5390319824219 221.24378967285156 360.76153564453125 193.98699951171875 C 405.6514587402344 264.0221252441406 386.61968994140625 263.1389465332031 384.1177673339844 265.71221923828125" stroke-width="0.0" fill="rgb(141, 159, 159)" opacity="0.45003754" stroke="rgb(0, 0, 0)" stroke-opacity="1.0" stroke-linecap="round" stroke-linejoin="round"/>
    <path d="M 362.6132507324219 111.22669219970703 C 237.7394561767578 108.57186126708984 254.47303771972656 96.60523223876953 184.1505584716797 112.5627212524414 C 158.1068115234375 136.2549591064453 183.8870849609375 60.51463317871094 138.8818359375 179.9270477294922 C 126.0408935546875 24.198461532592773 144.70054626464844 5.411623477935791 210.61776733398438 -33.73214340209961 C 374.4576721191406 -14.938576698303223 401.322265625 17.933298110961914 362.6132507324219 111.22669219970703" stroke-width="0.0" fill="rgb(37, 187, 205)" opacity="0.993133" stroke="rgb(0, 0, 0)" stroke-opacity="1.0" stroke-linecap="round" stroke-linejoin="round"/>
    <path d="M 357.7713928222656 414.9915771484375 C 103.69712829589844 355.7710266113281 354.6690673828125 426.75604248046875 109.8420639038086 420.0530700683594 C 107.33987426757812 303.12652587890625 60.359107971191406 349.66741943359375 384.1367492675781 319.9042663574219 C 201.184814453125 316.4355773925781 -74.93856811523438 334.3591613769531 -51.56599044799805 335.7498474121094 C 91.12781524658203 406.0889587402344 489.6130065917969 314.9800720214844 357.7713928222656 414.9915771484375" stroke-width="0.0" fill="rgb(180, 39, 0)" opacity="0.83983415" stroke="rgb(0, 0, 0)" stroke-opacity="1.0" stroke-linecap="round" stroke-linejoin="round"/>
    <path d="M 530.9232788085938 69.799072265625 C 510.85333251953125 75.08045196533203 478.9717712402344 62.915977478027344 492.6368103027344 52.22078323364258 C 487.4867858886719 57.98078918457031 450.2467346191406 47.504486083984375 384.5939025878906 63.34688186645508 C 395.8747253417969 4.798872470855713 392.1443786621094 -22.77933120727539 447.18341064453125 -20.91135025024414 C 540.9146118164062 -10.191633224487305 536.6610717773438 3.261720895767212 530.9232788085938 69.799072265625" stroke-width="0.0" fill="rgb(17, 200, 149)" opacity="0.8237207" stroke="rgb(0, 0, 0)" stroke-opacity="1.0" stroke-linecap="round" stroke-linejoin="round"/>
    <path d="M 461.8716125488281 421.776123046875 C 459.0266418457031 446.316162109375 442.3324279785156 435.0652160644531 415.206787109375 453.47186279296875 C 404.9100036621094 473.4917297363281 397.9702453613281 465.60968017578125 390.116943359375 398.9136962890625 C 375.9710998535156 322.8526916503906 385.77374267578125 315.9845886230469 449.8089294433594 361.54931640625 C 448.6962890625 414.4712829589844 487.1453552246094 409.13629150390625 461.8716125488281 421.776123046875" stroke-width="0.0" fill="rgb(82, 195, 186)" opacity="0.95958525" stroke="rgb(0, 0, 0)" stroke-opacity="1.0" stroke-linecap="round" stroke-linejoin="round"/>
    <path d="M 329.39520263671875 415.1473388671875 C 343.0885925292969 394.4228515625 342.73223876953125 478.9337463378906 266.1744079589844 556.5215454101562 C 108.65625 565.3317260742188 80.36663055419922 554.8358154296875 102.24202728271484 412.7821350097656 C 274.9810791015625 406.8552551269531 289.5611572265625 413.7295837402344 301.7982177734375 428.2858581542969 C 274.0546875 406.09539794921875 286.4960632324219 420.6590270996094 329.39520263671875 415.1473388671875" stroke-width="0.0" fill="rgb(73, 103, 221)" opacity="0.99336284" stroke="rgb(0, 0, 0)" stroke-opacity="1.0" stroke-linecap="round" stroke-linejoin="round"/>
    <path d="M 447.1654357910156 434.7807922363281 C 425.5590515136719 479.4012756347656 385.25311279296875 461.8766784667969 333.87615966796875 453.2381896972656 C 334.5204162597656 450.76434326171875 297.4753723144531 508.5147705078125 282.3782958984375 438.2084655761719 C 278.76318359375 402.3004150390625 289.4190979003906 422.68646240234375 364.14569091796875 440.1396789550781 C 427.7369079589844 417.2227478027344 436.50042724609375 360.15924072265625 447.1654357910156 434.7807922363281" stroke-width="0.0" fill="rgb(75, 160, 217)" opacity="0.88153017" stroke="rgb(0, 0, 0)" stroke-opacity="1.0" stroke-linecap="round" stroke-linejoin="round"/>
    <path d="M 56.68199920654297 376.0085144042969 C 86.06090545654297 447.52386474609375 111.79483795166016 501.2432861328125 0.6865543127059937 503.6780700683594 C -33.69769287109375 413.8905334472656 3.4161972999572754 425.51239013671875 47.53483200073242 431.1911926269531 C 34.84440231323242 401.46527099609375 11.061798095703125 385.28228759765625 59.615413665771484 387.0125427246094 C 38.850215911865234 421.6166687011719 5.768096446990967 386.8152160644531 56.68199920654297 376.0085144042969" stroke-width="0.0" fill="rgb(95, 41, 178)" opacity="0.52572054" stroke="rgb(0, 0, 0)" stroke-opacity="1.0" stroke-linecap="round" stroke-linejoin="round"/>
    <path d="M 375.89697265625 137.06207275390625 C 371.22845458984375 139.19058227539062 433.3500061035156 149.95399475097656 276.35845947265625 140.84841918945312 C 311.89935302734375 122.12969207763672 318.83563232421875 141.0201873779297 318.0583190917969 115.98894500732422 C 170.8942108154297 108.01931762695312 136.18896484375 111.76103210449219 166.33975219726562 109.26058197021484 C 391.5193176269531 111.97279357910156 352.3488464355469 98.51195526123047 375.89697265625 137.06207275390625" stroke-width="0.0" fill="rgb(182, 34, 70)" opacity="0.5286623" stroke="rgb(0, 0, 0)" stroke-opacity="1.0" stroke-linecap="round" stroke-linejoin="round"/>
    <path d="M 387.9231872558594 216.7854766845703 C 365.69122314453125 193.36187744140625 355.0655212402344 135.90684509277344 343.7868957519531 365.38397216796875 C 315.2745361328125 175.50494384765625 385.2283935546875 268.3383483886719 185.83746337890625 206.36907958984375 C 162.67788696289062 211.48936462402344 423.2104797363281 198.78419494628906 331.55828857421875 204.9295654296875 C 391.0627746582031 147.57980346679688 398.05340576171875 188.57945251464844 387.9231872558594 216.7854766845703" stroke-width="0.0" fill="rgb(234, 191, 143)" opacity="0.18657483" stroke="rgb(0, 0, 0)" stroke-opacity="1.0" stroke-linecap="round" stroke-linejoin="round"/>
    <path d="M 161.80833435058594 276.3980407714844 C 111.90894317626953 348.6010437011719 93.20391082763672 272.67620849609375 144.10337829589844 419.21392822265625 C 50.803680419921875 491.48760986328125 -23.4368896484375 441.32354736328125 -46.125301361083984 312.5542907714844 C -3.45477557182312 205.3748321533203 31.881053924560547 202.28916931152344 151.33518981933594 109.6185073852539 C 132.08604431152344 162.89715576171875 181.08377075195312 185.76296997070312 161.80833435058594 276.3980407714844" stroke-width="0.0" fill="rgb(34, 94, 212)" opacity="1.0" stroke="rgb(0, 0, 0)" stroke-opacity="1.0" stroke-linecap="round" stroke-linejoin="round"/>
    <path d="M 156.27735900878906 523.0652465820312 C 123.9425277709961 521.8115844726562 111.82440948486328 523.4666748046875 83.96806335449219 534.1394653320312 C 71.73294830322266 530.6502075195312 63.6741828918457 521.1268310546875 24.109573364257812 472.7444152832031 C 32.44266891479492 444.29437255859375 26.35624122619629 409.1368103027344 82.91385650634766 391.8119201660156 C 144.19090270996094 427.06121826171875 152.63778686523438 493.5556945800781 156.27735900878906 523.0652465820312" stroke-width="0.0" fill="rgb(87, 65, 232)" opacity="0.9756658" stroke="rgb(0, 0, 0)" stroke-opacity="1.0" stroke-linecap="round" stroke-linejoin="round"/>
    <path d="M 252.71743774414062 129.31564331054688 C 287.8800964355469 235.32737731933594 263.2098693847656 59.945674896240234 295.1299743652344 134.5563201904297 C 245.8267364501953 170.86788940429688 212.61837768554688 149.2422332763672 231.2437744140625 114.72898864746094 C 215.31944274902344 207.5463409423828 306.2897033691406 102.6475830078125 210.3583984375 112.29010009765625 C 282.4630126953125 41.23003387451172 303.38653564453125 186.86361694335938 252.71743774414062 129.31564331054688" stroke-width="0.0" fill="rgb(168, 59, 2)" opacity="0.884393" stroke="rgb(0, 0, 0)" stroke-opacity="1.0" stroke-linecap="round" stroke-linejoin="round"/>
    <path d="M 275.77178955078125 232.5506134033203 C 278.2543640136719 245.24667358398438 295.6433410644531 259.41473388671875 265.59368896484375 229.86683654785156 C 266.2254333496094 219.85177612304688 270.6900329589844 236.37594604492188 302.30908203125 242.27938842773438 C 297.1745300292969 242.76458740234375 302.8882141113281 280.027099609375 333.0160217285156 235.6869354248047 C 288.2485046386719 211.52813720703125 279.07843017578125 195.9943389892578 275.77178955078125 232.5506134033203" stroke-width="0.0" fill="rgb(255, 247, 66)" opacity="0.5870108" stroke="rgb(0, 0, 0)" stroke-opacity="1.0" stroke-linecap="round" stroke-linejoin="round"/>
    <path d="M 312.2855224609375 133.27162170410156 C 211.02621459960938 100.70057678222656 234.4833221435547 118.50310516357422 215.09852600097656 143.79754638671875 C 268.3214416503906 141.67800903320312 101.17459869384766 150.18402099609375 135.75094604492188 126.19569396972656 C 240.6249237060547 133.4214630126953 244.13426208496094 128.09251403808594 224.05975341796875 144.2797088623047 C 263.6593017578125 143.0775909423828 221.09036254882812 130.665283203125 312.2855224609375 133.27162170410156" stroke-width="0.0" fill="rgb(193, 28, 0)" opacity="0.7451434" stroke="rgb(0, 0, 0)" stroke-opacity="1.0" stroke-linecap="round" stroke-linejoin="round"/>
    <path d="M 362.5137634277344 366.6070556640625 C 393.3552551269531 307.0927429199219 321.2480163574219 316.814208984375 243.39952087402344 325.22015380859375 C 296.4903564453125 361.0813293457031 240.0921630859375 354.5031433105469 141.99942016601562 342.0091247558594 C 163.4577178955078 351.47723388671875 150.17825317382812 380.7106628417969 343.71405029296875 370.9803466796875 C 267.8618469238281 331.8287353515625 298.609375 337.31524658203125 362.5137634277344 366.6070556640625" stroke-width="0.0" fill="rgb(197, 104, 44)" opacity="0.6029093" stroke="rgb(0, 0, 0)" stroke-opacity="1.0" stroke-linecap="round" stroke-linejoin="round"/>
    <path d="M 64.45175170898438 528.903564453125 C 30.760190963745117 533.237060546875 12.10596752166748 529.2991333007812 0.7132576107978821 530.5223388671875 C -9.364206314086914 527.7437133789062 -16.68471336364746 520.4232177734375 -45.95388412475586 484.5249328613281 C -37.83758544921875 480.70013427734375 -42.935829162597656 463.7582092285156 9.036088943481445 409.4161376953125 C 62.83110427856445 429.18792724609375 63.09517288208008 458.31390380859375 64.45175170898438 528.903564453125" stroke-width="0.0" fill="rgb(104, 69, 244)" opacity="0.974413" stroke="rgb(0, 0, 0)" stroke-opacity="1.0" stroke-linecap="round" stroke-linejoin="round"/>
    <path d="M 181.92234802246094 200.77395629882812 C 287.4188537597656 211.19650268554688 322.5451354980469 212.2228240966797 157.95948791503906 209.96229553222656 C 140.76014709472656 177.58106994628906 127.98786926269531 140.25428771972656 115.4117202758789 146.366455078125 C 113.01578521728516 149.5082244873047 111.46209716796875 110.7859878540039 141.90985107421875 116.16389465332031 C 146.146240234375 111.92987060546875 149.4197998046875 159.53834533691406 181.92234802246094 200.77395629882812" stroke-width="0.0" fill="rgb(178, 55, 0)" opacity="1.0" stroke="rgb(0, 0, 0)" stroke-opacity="1.0" stroke-linecap="round" stroke-linejoin="round"/>
    <path d="M 174.38450622558594 111.63592529296875 C 166.84283447265625 132.4937744140625 172.92434692382812 118.72871398925781 137.28334045410156 155.04150390625 C 102.3670883178711 156.03509521484375 135.375 116.06859588623047 137.2604217529297 108.0826644897461 C 165.34637451171875 107.26997375488281 214.67886352539062 106.41182708740234 196.65740966796875 106.84980773925781 C 203.65042114257812 115.11151885986328 166.2764129638672 120.94274139404297 174.38450622558594 111.63592529296875" stroke-width="0.0" fill="rgb(237, 29, 0)" opacity="0.83968306" stroke="rgb(0, 0, 0)" stroke-opacity="1.0" stroke-linecap="round" stroke-linejoin="round"/>
    <path d="M 444.7814025878906 117.71722412109375 C 413.3310852050781 158.9669189453125 409.26470947265625 137.9092559814453 397.60894775390625 135.29856872558594 C 373.7945861816406 158.47340393066406 371.6142578125 148.55165100097656 352.78369140625 97.24946594238281 C 358.51373291015625 41.934574127197266 320.83428955078125 -9.01226806640625 359.4751892089844 -53.39411926269531 C 459.9960632324219 48.52619552612305 460.1645202636719 85.71918487548828 444.7814025878906 117.71722412109375" stroke-width="0.0" fill="rgb(33, 207, 210)" opacity="0.99224687" stroke="rgb(0, 0, 0)" stroke-opacity="1.0" stroke-linecap="round" stroke-linejoin="round"/>
    <path d="M 362.31842041015625 272.16656494140625 C 378.84344482421875 265.6772766113281 365.9875183105469 245.1300506591797 338.4461975097656 263.9305114746094 C 324.6251220703125 260.38623046875 301.54315185546875 265.2767028808594 304.6841735839844 236.39932250976562 C 317.7835693359375 226.3167266845703 334.0384826660156 228.78707885742188 346.439453125 209.4189910888672 C 344.0888671875 221.79891967773438 371.0054016113281 231.5855255126953 362.31842041015625 272.16656494140625" stroke-width="0.0" fill="rgb(206, 190, 106)" opacity="0.9924035" stroke="rgb(0, 0, 0)" stroke-opacity="1.0" stroke-linecap="round" stroke-linejoin="round"/>
    <path d="M 253.38905334472656 302.7841491699219 C 250.18008422851562 343.27215576171875 256.05572509765625 353.0700378417969 181.06527709960938 334.9980773925781 C 123.6524887084961 339.8372802734375 106.46570587158203 287.5450744628906 135.34674072265625 270.0352478027344 C 173.95657348632812 288.01214599609375 152.79795837402344 258.23968505859375 182.0814208984375 247.89898681640625 C 232.25479125976562 236.71780395507812 209.62091064453125 259.2020568847656 253.38905334472656 302.7841491699219" stroke-width="0.0" fill="rgb(255, 201, 34)" opacity="0.9223442" stroke="rgb(0, 0, 0)" stroke-opacity="1.0" stroke-linecap="round" stroke-linejoin="round"/>
    <path d="M 198.55148315429688 430.5148620605469 C 182.6233673095703 415.582763671875 172.9004364013672 427.36505126953125 175.63084411621094 431.2269592285156 C 151.5094451904297 411.1910095214844 125.65901947021484 415.7548522949219 144.11949157714844 395.4148254394531 C 152.1588592529297 411.6592712402344 177.7849578857422 422.3880920410156 211.6652069091797 428.1164245605469 C 186.52952575683594 413.13421630859375 189.38525390625 418.6229553222656 198.55148315429688 430.5148620605469" stroke-width="0.0" fill="rgb(219, 100, 142)" opacity="0.38818523" stroke="rgb(0, 0, 0)" stroke-opacity="1.0" stroke-linecap="round" stroke-linejoin="round"/>
    <path d="M 426.4306945800781 371.705322265625 C 418.7451477050781 384.1331787109375 412.21136474609375 400.4296875 395.4460754394531 434.5555419921875 C 335.79840087890625 436.6708679199219 356.3478698730469 444.1470031738281 375.5946350097656 373.08935546875 C 387.6985168457031 313.9960632324219 385.5952453613281 345.51263427734375 427.4914245605469 367.17242431640625 C 415.5458679199219 398.2782287597656 409.3307189941406 384.1652526855469 426.4306945800781 371.705322265625" stroke-width="0.0" fill="rgb(12, 150, 216)" opacity="0.97242624" stroke="rgb(0, 0, 0)" stroke-opacity="1.0" stroke-linecap="round" stroke-linejoin="round"/>
    <path d="M 252.2937469482422 152.1200408935547 C 281.7144470214844 153.13729858398438 269.3944091796875 171.88658142089844 252.7830810546875 172.22567749023438 C 243.27137756347656 165.86032104492188 254.89151000976562 149.35231018066406 255.3756866455078 99.96649932861328 C 225.4550018310547 96.76219177246094 261.55718994140625 106.62059783935547 247.76602172851562 133.20286560058594 C 253.9703369140625 110.75822448730469 268.5461120605469 120.66142272949219 252.2937469482422 152.1200408935547" stroke-width="0.0" fill="rgb(247, 215, 0)" opacity="1.0" stroke="rgb(0, 0, 0)" stroke-opacity="1.0" stroke-linecap="round" stroke-linejoin="round"/>
    <path d="M 254.06024169921875 275.1280517578125 C 283.6828918457031 283.7785949707031 302.2738952636719 309.6395568847656 284.5950012207031 326.92242431640625 C 233.53213500976562 327.4808654785156 198.53125 315.3246154785156 213.00379943847656 304.7511901855469 C 259.9771728515625 297.2393493652344 244.8429412841797 278.2470397949219 216.5424041748047 280.288818359375 C 246.33058166503906 263.90093994140625 266.0006408691406 276.6529235839844 254.06024169921875 275.1280517578125" stroke-width="0.0" fill="rgb(255, 228, 115)" opacity="0.85526824" stroke="rgb(0, 0, 0)" stroke-opacity="1.0" stroke-linecap="round" stroke-linejoin="round"/>
    <path d="M 206.84910583496094 336.03369140625 C 168.55706787109375 355.60260009765625 162.67503356933594 369.21832275390625 183.0831298828125 364.5321350097656 C 184.59829711914062 419.5167541503906 153.74632263183594 402.92303466796875 113.22608184814453 341.8978271484375 C 128.79629516601562 318.5562744140625 135.66648864746094 289.1195373535156 112.20018768310547 321.478515625 C 187.71543884277344 330.7342529296875 211.71156311035156 314.66876220703125 206.84910583496094 336.03369140625" stroke-width="0.0" fill="rgb(229, 39, 22)" opacity="0.7709196" stroke="rgb(0, 0, 0)" stroke-opacity="1.0" stroke-linecap="round" stroke-linejoin="round"/>
    <path d="M 193.72987365722656 290.63055419921875 C 252.74436950683594 286.90142822265625 231.78321838378906 261.0774841308594 166.0708465576172 291.46710205078125 C 138.2968292236328 265.9971923828125 128.8642120361328 274.34112548828125 161.9534912109375 285.28857421875 C 175.6705322265625 243.67169189453125 180.05023193359375 229.73150634765625 187.41542053222656 230.5727081298828 C 148.15286254882812 226.48110961914062 163.08116149902344 248.93133544921875 193.72987365722656 290.63055419921875" stroke-width="0.0" fill="rgb(152, 110, 48)" opacity="0.62949425" stroke="rgb(0, 0, 0)" stroke-opacity="1.0" stroke-linecap="round" stroke-linejoin="round"/>
    <path d="M 286.16302490234375 259.5078430175781 C 286.5372009277344 273.3606262207031 298.6510925292969 272.8229064941406 278.3802185058594 292.0657958984375 C 260.39874267578125 289.0564880371094 271.5669250488281 268.8843078613281 235.66783142089844 248.6319122314453 C 226.07545471191406 198.65652465820312 235.14695739746094 197.33560180664062 274.7945251464844 230.94053649902344 C 286.5300598144531 229.87989807128906 286.00982666015625 237.97157287597656 286.16302490234375 259.5078430175781" stroke-width="0.0" fill="rgb(233, 174, 88)" opacity="0.7246877" stroke="rgb(0, 0, 0)" stroke-opacity="1.0" stroke-linecap="round" stroke-linejoin="round"/>
    <path d="M 194.94654846191406 295.0998840332031 C 155.412353515625 325.1985778808594 143.0419464111328 333.430908203125 125.18916320800781 333.0567932128906 C 147.8675994873047 354.6943359375 157.1636199951172 358.33929443359375 178.45228576660156 369.77685546875 C 164.25453186035156 336.1683654785156 154.7760467529297 336.7158508300781 191.6310577392578 357.69873046875 C 163.0352020263672 352.8446350097656 171.07347106933594 342.16278076171875 194.94654846191406 295.0998840332031" stroke-width="0.0" fill="rgb(81, 98, 66)" opacity="0.19711843" stroke="rgb(0, 0, 0)" stroke-opacity="1.0" stroke-linecap="round" stroke-linejoin="round"/>
    <path d="M 98.44075775146484 451.18768310546875 C 76.12138366699219 457.3332824707031 78.92822265625 471.9202880859375 55.664058685302734 469.9365234375 C 63.33427810668945 458.107421875 51.90311813354492 454.06524658203125 50.314640045166016 444.1976013183594 C 44.528499603271484 436.3104553222656 76.07898712158203 444.38775634765625 86.68897247314453 439.81170654296875 C 76.33804321289062 428.3686218261719 91.73139953613281 433.5176696777344 98.44075775146484 451.18768310546875" stroke-width="0.0" fill="rgb(56, 92, 208)" opacity="0.04451357" stroke="rgb(0, 0, 0)" stroke-opacity="1.0" stroke-linecap="round" stroke-linejoin="round"/>
    <path d="M 453.1171875 444.3588562011719 C 462.3154296875 465.89166259765625 450.05828857421875 481.6714782714844 459.0682678222656 459.12615966796875 C 464.6057434082031 451.870849609375 452.7706604003906 462.8453063964844 441.9267883300781 471.02972412109375 C 446.830810546875 467.2735595703125 451.5115051269531 451.14385986328125 469.5584716796875 440.9444885253906 C 451.87677001953125 454.8248291015625 448.6427917480469 447.6341247558594 453.1171875 444.3588562011719" stroke-width="0.0" fill="rgb(30, 160, 131)" opacity="3.2639586e-05" stroke="rgb(0, 0, 0)" stroke-opacity="1.0" stroke-linecap="round" stroke-linejoin="round"/>
    <path d="M 450.95477294921875 349.5374755859375 C 449.7943420410156 364.3382873535156 452.5238037109375 394.5436096191406 420.75115966796875 383.20330810546875 C 416.5940856933594 382.2848205566406 429.05377197265625 386.2046813964844 423.1427917480469 378.25836181640625 C 413.3071594238281 357.74798583984375 417.73736572265625 352.59576416015625 456.8500671386719 358.8944091796875 C 450.2182312011719 356.8211975097656 462.9250183105469 352.77239990234375 450.95477294921875 349.5374755859375" stroke-width="0.0" fill="rgb(17, 160, 162)" opacity="0.396678" stroke="rgb(0, 0, 0)" stroke-opacity="1.0" stroke-linecap="round" stroke-linejoin="round"/>
    <path d="M 32.18281936645508 430.5281982421875 C 73.80076599121094 483.957763671875 50.96835708618164 504.4958190917969 21.45547866821289 493.87872314453125 C 64.13919830322266 485.1845397949219 83.4250717163086 469.8460693359375 62.59642791748047 446.6079406738281 C 27.1956844329834 469.31658935546875 19.851404190063477 437.3053894042969 72.01700592041016 457.59063720703125 C 16.86618423461914 495.79718017578125 -18.22695541381836 437.4022521972656 32.18281936645508 430.5281982421875" stroke-width="0.0" fill="rgb(131, 64, 231)" opacity="0.0228723" stroke="rgb(0, 0, 0)" stroke-opacity="1.0" stroke-linecap="round" stroke-linejoin="round"/>
    <path d="M 118.68885803222656 260.7563171386719 C 159.32447814941406 271.4886474609375 157.41770935058594 282.4106750488281 156.2636260986328 288.7253112792969 C 157.37550354003906 257.7568359375 112.10041046142578 233.75254821777344 127.35250854492188 245.678466796875 C 107.32926177978516 259.64715576171875 92.13874053955078 214.3953094482422 112.13050842285156 237.06082153320312 C 103.4058837890625 249.93966674804688 116.32464599609375 276.1038818359375 118.68885803222656 260.7563171386719" stroke-width="0.0" fill="rgb(38, 100, 156)" opacity="0.0" stroke="rgb(0, 0, 0)" stroke-opacity="1.0" stroke-linecap="round" stroke-linejoin="round"/>
    <path d="M 443.0760498046875 250.2585906982422 C 456.5133972167969 267.80206298828125 449.61505126953125 231.0823974609375 456.795166015625 241.628662109375 C 447.75189208984375 245.37953186035156 437.4631652832031 241.95785522460938 437.6572570800781 218.5477294921875 C 454.5759582519531 203.23989868164062 435.9800720214844 220.68869018554688 450.05828857421875 232.31021118164062 C 463.9110107421875 218.50038146972656 463.5899963378906 206.3249053955078 443.0760498046875 250.2585906982422" stroke-width="0.0" fill="rgb(43, 189, 133)" opacity="0.055977352" stroke="rgb(0, 0, 0)" stroke-opacity="1.0" stroke-linecap="round" stroke-linejoin="round"/>
    <path d="M 388.8592529296875 195.0770263671875 C 368.0009460449219 188.07431030273438 368.901123046875 198.2089080810547 387.8558349609375 196.15130615234375 C 371.3206481933594 184.79183959960938 351.17022705078125 186.74404907226562 325.133544921875 217.2805938720703 C 312.3168640136719 187.05911254882812 319.6244812011719 173.32887268066406 355.2062072753906 186.90528869628906 C 373.8806457519531 173.35855102539062 398.4134521484375 180.02198791503906 388.8592529296875 195.0770263671875" stroke-width="0.0" fill="rgb(105, 166, 68)" opacity="0.14144686" stroke="rgb(0, 0, 0)" stroke-opacity="1.0" stroke-linecap="round" stroke-linejoin="round"/>
    <path d="M 63.288822174072266 469.46710205078125 C 65.73319244384766 459.8248596191406 84.09929656982422 462.1601867675781 82.03137969970703 471.5072021484375 C 79.2449722290039 468.3564453125 62.14463424682617 445.2148742675781 81.45333099365234 453.45098876953125 C 62.34077453613281 434.39892578125 87.97623443603516 443.2969970703125 91.46247100830078 398.92333984375 C 34.13810729980469 436.9519958496094 52.18267822265625 476.6431579589844 63.288822174072266 469.46710205078125" stroke-width="0.0" fill="rgb(76, 85, 179)" opacity="0.087524235" stroke="rgb(0, 0, 0)" stroke-opacity="1.0" stroke-linecap="round" stroke-linejoin="round"/>
    <path d="M 460.2100830078125 55.982723236083984 C 447.9922790527344 69.00711822509766 460.9976501464844 81.00118255615234 486.369873046875 61.1337776184082 C 479.96380615234375 89.5195541381836 444.6776123046875 82.50182342529297 452.16204833984375 65.92414093017578 C 453.2089538574219 74.46903991699219 463.24853515625 62.12107849121094 456.9900817871094 44.9476318359375 C 482.6275939941406 48.877479553222656 481.42529296875 49.037559509277344 460.2100830078125 55.982723236083984" stroke-width="0.0" fill="rgb(75, 176, 210)" opacity="0.0" stroke="rgb(0, 0, 0)" stroke-opacity="1.0" stroke-linecap="round" stroke-linejoin="round"/>
    <path d="M 337.0826110839844 181.41009521484375 C 333.1269836425781 199.1144256591797 314.9928283691406 208.0641326904297 278.3471984863281 175.16656494140625 C 262.450927734375 226.5328369140625 260.8261413574219 251.74468994140625 258.7752685546875 200.5050048828125 C 263.33599853515625 136.2755889892578 279.21771240234375 128.96998596191406 294.6629638671875 151.10064697265625 C 295.4267272949219 141.93629455566406 317.0146789550781 159.85586547851562 337.0826110839844 181.41009521484375" stroke-width="0.0" fill="rgb(156, 192, 13)" opacity="0.18797928" stroke="rgb(0, 0, 0)" stroke-opacity="1.0" stroke-linecap="round" stroke-linejoin="round"/>
    <path d="M 155.57394409179688 34.26526641845703 C 152.71791076660156 56.91794204711914 152.38768005371094 63.09286880493164 151.33969116210938 52.76937484741211 C 136.04954528808594 44.66790771484375 120.92218017578125 45.37968063354492 157.9055633544922 45.96333694458008 C 169.40188598632812 13.829246520996094 150.4158935546875 12.823282241821289 167.1914825439453 27.605993270874023 C 149.1975555419922 32.127315521240234 154.78053283691406 26.534378051757812 155.57394409179688 34.26526641845703" stroke-width="0.0" fill="rgb(51, 179, 192)" opacity="0.14297616" stroke="rgb(0, 0, 0)" stroke-opacity="1.0" stroke-linecap="round" stroke-linejoin="round"/>
    <path d="M 223.6616973876953 344.30755615234375 C 194.0902099609375 349.61236572265625 191.28382873535156 365.9117736816406 214.5547637939453 364.2544860839844 C 188.83932495117188 355.5378112792969 173.9052276611328 348.2280578613281 117.8822250366211 332.0975036621094 C 148.46043395996094 317.01300048828125 169.82540893554688 306.1556396484375 191.39114379882812 328.5746765136719 C 208.42083740234375 319.0237121582031 229.5373077392578 322.9398193359375 223.6616973876953 344.30755615234375" stroke-width="0.0" fill="rgb(172, 3, 29)" opacity="0.33862546" stroke="rgb(0, 0, 0)" stroke-opacity="1.0" stroke-linecap="round" stroke-linejoin="round"/>
    <path d="M 60.195316314697266 319.2725524902344 C 48.54026794433594 335.2621154785156 45.579219818115234 341.6196594238281 31.804725646972656 356.0370178222656 C 16.67104721069336 352.2911071777344 19.630334854125977 318.9066467285156 18.716764450073242 324.2095947265625 C 18.172710418701172 313.47406005859375 28.560176849365234 302.7844543457031 42.36735916137695 298.0903015136719 C 49.150062561035156 299.7878723144531 58.27948760986328 306.1509704589844 60.195316314697266 319.2725524902344" stroke-width="0.0" fill="rgb(141, 98, 230)" opacity="0.31240276" stroke="rgb(0, 0, 0)" stroke-opacity="1.0" stroke-linecap="round" stroke-linejoin="round"/>
    <path d="M 411.18194580078125 450.749755859375 C 422.28033447265625 441.56976318359375 386.5686950683594 432.67071533203125 375.4223327636719 433.21246337890625 C 378.4476623535156 455.9836120605469 368.63848876953125 474.0680236816406 364.3892517089844 411.7468566894531 C 374.53546142578125 428.3375244140625 416.4915771484375 458.4825134277344 411.8221740722656 441.8083190917969 C 389.3624572753906 438.8768005371094 390.747802734375 421.6156005859375 411.18194580078125 450.749755859375" stroke-width="0.0" fill="rgb(91, 185, 124)" opacity="0.1584435" stroke="rgb(0, 0, 0)" stroke-opacity="1.0" stroke-linecap="round" stroke-linejoin="round"/>
    <path d="M 147.9598388671875 342.12066650390625 C 118.63001251220703 315.60986328125 156.65847778320312 282.1206359863281 141.148681640625 273.7945556640625 C 118.72386932373047 301.2735290527344 147.25767517089844 295.0532531738281 136.11920166015625 280.685302734375 C 132.32164001464844 250.24075317382812 110.2674331665039 263.4225158691406 155.41030883789062 292.8520812988281 C 199.72628784179688 254.9492645263672 203.49717712402344 310.2791442871094 147.9598388671875 342.12066650390625" stroke-width="0.0" fill="rgb(45, 112, 76)" opacity="0.006130014" stroke="rgb(0, 0, 0)" stroke-opacity="1.0" stroke-linecap="round" stroke-linejoin="round"/>
    <path d="M 150.77590942382812 453.7415466308594 C 156.6470947265625 461.58319091796875 120.6998062133789 485.50787353515625 113.898681640625 476.1197814941406 C 88.18634796142578 453.18890380859375 94.23424530029297 450.0201416015625 105.46353149414062 439.4429931640625 C 92.83126068115234 433.00592041015625 112.02777099609375 420.9443664550781 127.67161560058594 434.51348876953125 C 127.50228118896484 408.2352294921875 134.82701110839844 410.6163330078125 150.77590942382812 453.7415466308594" stroke-width="0.0" fill="rgb(110, 88, 232)" opacity="0.93262786" stroke="rgb(0, 0, 0)" stroke-opacity="1.0" stroke-linecap="round" stroke-linejoin="round"/>
    <path d="M 265.5479431152344 34.589839935302734 C 265.6703796386719 48.13788986206055 263.3093566894531 45.00596618652344 267.06512451171875 48.53425979614258 C 239.23211669921875 54.76786804199219 236.85653686523438 52.144439697265625 242.48658752441406 53.330291748046875 C 231.6915740966797 47.61653137207031 233.3262481689453 28.954404830932617 247.1038818359375 23.893142700195312 C 249.74874877929688 16.027196884155273 258.3834533691406 29.3125 265.5479431152344 34.589839935302734" stroke-width="0.0" fill="rgb(10, 120, 156)" opacity="0.22904369" stroke="rgb(0, 0, 0)" stroke-opacity="1.0" stroke-linecap="round" stroke-linejoin="round"/>
    <path d="M 105.9613037109375 383.3465881347656 C 134.14576721191406 367.8902282714844 162.94732666015625 358.7475891113281 148.6946258544922 356.6609191894531 C 101.03408813476562 374.8908996582031 111.79582214355469 337.97979736328125 114.47655487060547 344.2488098144531 C 87.97157287597656 332.7846374511719 120.81700897216797 337.6076965332031 127.94676971435547 319.6378479003906 C 139.74635314941406 363.9402770996094 123.04667663574219 345.4704895019531 105.9613037109375 383.3465881347656" stroke-width="0.0" fill="rgb(64, 92, 239)" opacity="0.15988731" stroke="rgb(0, 0, 0)" stroke-opacity="1.0" stroke-linecap="round" stroke-linejoin="round"/>
    <path d="M 480.5351257324219 232.30625915527344 C 505.3538818359375 199.63189697265625 507.5127868652344 204.45919799804688 508.80316162109375 249.8021240234375 C 464.77410888671875 269.4872741699219 480.497314453125 250.65118408203125 494.23944091796875 243.67672729492188 C 480.8427429199219 224.5562286376953 477.2558288574219 204.18719482421875 509.5347595214844 226.96543884277344 C 496.2693786621094 232.8224639892578 489.10833740234375 247.83163452148438 480.5351257324219 232.30625915527344" stroke-width="0.0" fill="rgb(12, 224, 196)" opacity="0.029459283" stroke="rgb(0, 0, 0)" stroke-opacity="1.0" stroke-linecap="round" stroke-linejoin="round"/>
    <path d="M 455.7784729003906 263.0301513671875 C 448.7779235839844 274.1314392089844 450.88775634765625 291.37249755859375 437.91436767578125 292.6356506347656 C 420.31829833984375 284.6133728027344 413.1688537597656 267.6473083496094 416.0925598144531 258.694580078125 C 419.1027526855469 255.73495483398438 434.1441345214844 255.63685607910156 439.4266052246094 249.09173583984375 C 446.4877624511719 240.0172119140625 464.4996032714844 264.64508056640625 455.7784729003906 263.0301513671875" stroke-width="0.0" fill="rgb(83, 201, 213)" opacity="0.060633413" stroke="rgb(0, 0, 0)" stroke-opacity="1.0" stroke-linecap="round" stroke-linejoin="round"/>
    <path d="M 529.8052368164062 61.39076614379883 C 506.8160400390625 78.5096664428711 495.0511474609375 81.13090515136719 487.8592224121094 86.00324249267578 C 470.6828918457031 84.66666412353516 463.7298583984375 89.29486846923828 465.8908996582031 50.57081985473633 C 458.1880798339844 51.994720458984375 459.7547607421875 47.44203567504883 487.0686340332031 51.90040969848633 C 501.4874572753906 37.88188934326172 513.3970336914062 36.85311508178711 529.8052368164062 61.39076614379883" stroke-width="0.0" fill="rgb(20, 204, 181)" opacity="0.042051174" stroke="rgb(0, 0, 0)" stroke-opacity="1.0" stroke-linecap="round" stroke-linejoin="round"/>
    <path d="M 78.5306396484375 181.8533477783203 C 83.79634857177734 211.8247528076172 89.38993835449219 228.14329528808594 45.38269805908203 217.07008361816406 C 0.813235342502594 218.13162231445312 6.770725727081299 215.22695922851562 5.2182207107543945 203.269287109375 C -17.375207901000977 224.05519104003906 31.85071563720703 219.07933044433594 75.26141357421875 193.46871948242188 C 58.047061920166016 199.50775146484375 59.191287994384766 209.86865234375 78.5306396484375 181.8533477783203" stroke-width="0.0" fill="rgb(27, 100, 237)" opacity="0.00081096217" stroke="rgb(0, 0, 0)" stroke-opacity="1.0" stroke-linecap="round" stroke-linejoin="round"/>
    <path d="M 110.18352508544922 317.7422180175781 C 110.54122924804688 333.27032470703125 108.91413879394531 348.769287109375 107.86961364746094 363.67572021484375 C 99.03138732910156 358.0148620605469 86.76371002197266 357.2107238769531 98.494384765625 366.2552795410156 C 105.01683044433594 310.1956481933594 86.01054382324219 303.3005676269531 105.92311096191406 321.8393249511719 C 105.86905670166016 320.1581115722656 108.70292663574219 320.1500244140625 110.18352508544922 317.7422180175781" stroke-width="0.0" fill="rgb(39, 56, 201)" opacity="0.0061945724" stroke="rgb(0, 0, 0)" stroke-opacity="1.0" stroke-linecap="round" stroke-linejoin="round"/>
    <path d="M 39.62315368652344 106.7882080078125 C 31.012298583984375 92.87403106689453 22.570659637451172 112.32482147216797 30.399686813354492 110.22038269042969 C 45.805362701416016 101.7252426147461 25.179340362548828 97.33274841308594 -9.849678039550781 87.73263549804688 C -9.222492218017578 56.14108657836914 -9.562054634094238 55.151241302490234 22.882579803466797 65.2235107421875 C 41.14456558227539 55.20111846923828 43.222496032714844 67.90203094482422 39.62315368652344 106.7882080078125" stroke-width="0.0" fill="rgb(103, 190, 226)" opacity="0.0067337085" stroke="rgb(0, 0, 0)" stroke-opacity="1.0" stroke-linecap="round" stroke-linejoin="round"/>
  </g>
</svg>
