<?xml version="1.0" ?>
<svg xmlns="http://www.w3.org/2000/svg" version="1.1" width="512" height="512">
  <defs/>
  <g>
    <path d="M 539.0467529296875 453.6759948730469 C 548.0579833984375 517.3278198242188 548.9373779296875 525.5354614257812 397.54266357421875 525.583984375 C 326.628662109375 558.2774047851562 316.1357116699219 548.9678955078125 286.60931396484375 488.8251953125 C 327.01763916015625 337.5425109863281 384.95367431640625 345.1483459472656 497.5299072265625 297.4788513183594 C 574.0671997070312 298.6234130859375 570.6009521484375 318.01556396484375 539.0467529296875 453.6759948730469" stroke-width="0.0" fill="rgb(147, 33, 6)" opacity="0.7222763" stroke="rgb(0, 0, 0)" stroke-opacity="1.0" stroke-linecap="round" stroke-linejoin="round"/>
    <path d="M 293.46112060546875 439.91766357421875 C 290.23834228515625 507.442138671875 277.091064453125 530.7319946289062 96.49810028076172 533.1819458007812 C -51.20000076293945 517.7235107421875 -51.20000076293945 507.83367919921875 -12.323843002319336 438.4610595703125 C -10.968490600585938 190.47254943847656 -17.01561164855957 193.38516235351562 -1.0524401664733887 225.49581909179688 C 222.40699768066406 285.05426025390625 277.6740417480469 220.57591247558594 293.46112060546875 439.91766357421875" stroke-width="0.0" fill="rgb(7, 13, 181)" opacity="0.9838228" stroke="rgb(0, 0, 0)" stroke-opacity="1.0" stroke-linecap="round" stroke-linejoin="round"/>
    <path d="M 253.22467041015625 318.6382751464844 C 233.79795837402344 441.2434387207031 239.0449676513672 462.55328369140625 202.7077178955078 367.7910461425781 C 76.42277526855469 342.7624206542969 36.31991195678711 392.4857177734375 22.741600036621094 162.2410888671875 C 14.118073463439941 167.75588989257812 -8.212955474853516 137.26771545410156 98.42793273925781 91.64285278320312 C 250.1002960205078 87.01579284667969 261.7254638671875 95.12901306152344 253.22467041015625 318.6382751464844" stroke-width="0.0" fill="rgb(214, 108, 4)" opacity="0.8351156" stroke="rgb(0, 0, 0)" stroke-opacity="1.0" stroke-linecap="round" stroke-linejoin="round"/>
    <path d="M 267.014404296875 10.611207008361816 C 251.40875244140625 198.13438415527344 211.5125732421875 167.14968872070312 26.61028289794922 203.58029174804688 C -22.433795928955078 214.94041442871094 -26.551986694335938 193.01708984375 -8.752677917480469 53.322139739990234 C -23.767539978027344 -6.740253925323486 -16.88488006591797 -10.027039527893066 77.02141571044922 -30.61976432800293 C 199.3477325439453 -33.29450225830078 231.26165771484375 -46.88896179199219 267.014404296875 10.611207008361816" stroke-width="0.0" fill="rgb(23, 0, 216)" opacity="0.9029118" stroke="rgb(0, 0, 0)" stroke-opacity="1.0" stroke-linecap="round" stroke-linejoin="round"/>
    <path d="M 538.0457763671875 54.896812438964844 C 436.9303283691406 284.1280822753906 453.34637451171875 305.119384765625 401.0320739746094 306.4544677734375 C 242.66151428222656 318.716796875 220.25872802734375 350.5207824707031 231.35836791992188 234.2071075439453 C 231.90061950683594 65.8846664428711 206.05145263671875 2.980962038040161 322.9849548339844 -50.243560791015625 C 563.2000122070312 -6.244815349578857 563.2000122070312 4.452378749847412 538.0457763671875 54.896812438964844" stroke-width="0.0" fill="rgb(36, 12, 212)" opacity="0.97344846" stroke="rgb(0, 0, 0)" stroke-opacity="1.0" stroke-linecap="round" stroke-linejoin="round"/>
    <path d="M 495.7562255859375 355.2308349609375 C 496.1316833496094 509.1959228515625 541.1856079101562 555.68115234375 340.5535888671875 546.9176025390625 C 204.08096313476562 566.4913940429688 230.450927734375 549.2965087890625 223.1824188232422 446.69921875 C 229.02508544921875 195.7028045654297 273.05853271484375 193.06817626953125 297.3651123046875 251.4854736328125 C 413.41802978515625 273.3828430175781 451.5186462402344 280.7080078125 495.7562255859375 355.2308349609375" stroke-width="0.0" fill="rgb(0, 37, 147)" opacity="0.998038" stroke="rgb(0, 0, 0)" stroke-opacity="1.0" stroke-linecap="round" stroke-linejoin="round"/>
    <path d="M 545.997802734375 206.01837158203125 C 565.7804565429688 320.58563232421875 569.4609985351562 326.9399719238281 486.22369384765625 320.69757080078125 C 425.38568115234375 345.0388488769531 397.3888244628906 310.7294921875 390.3855285644531 261.19195556640625 C 438.17425537109375 159.2793731689453 419.19903564453125 102.87236022949219 546.181396484375 109.14247131347656 C 548.5968017578125 78.41077423095703 550.0535278320312 129.66563415527344 545.997802734375 206.01837158203125" stroke-width="0.0" fill="rgb(18, 86, 97)" opacity="0.9151123" stroke="rgb(0, 0, 0)" stroke-opacity="1.0" stroke-linecap="round" stroke-linejoin="round"/>
    <path d="M 252.67042541503906 251.07647705078125 C 271.30950927734375 288.0140380859375 292.5959777832031 321.01898193359375 227.62913513183594 344.2454833984375 C 232.20053100585938 312.48040771484375 241.65109252929688 301.53448486328125 183.61962890625 255.9801788330078 C 122.43592071533203 173.3585662841797 130.82339477539062 192.4359130859375 248.3982391357422 181.02853393554688 C 260.9635009765625 202.7071990966797 235.74874877929688 227.67288208007812 252.67042541503906 251.07647705078125" stroke-width="0.0" fill="rgb(17, 35, 154)" opacity="0.9998767" stroke="rgb(0, 0, 0)" stroke-opacity="1.0" stroke-linecap="round" stroke-linejoin="round"/>
    <path d="M 276.0843505859375 57.00891876220703 C 275.0078430175781 114.8082504272461 258.0746765136719 116.16156005859375 235.7789306640625 118.98069763183594 C 240.14627075195312 122.07860565185547 237.5023651123047 101.26944732666016 202.79139709472656 52.2161750793457 C 209.35470581054688 80.63495635986328 214.34918212890625 73.61863708496094 203.39251708984375 65.47640228271484 C 204.66915893554688 68.4842758178711 259.0567321777344 37.164520263671875 276.0843505859375 57.00891876220703" stroke-width="0.0" fill="rgb(228, 226, 238)" opacity="0.89266896" stroke="rgb(0, 0, 0)" stroke-opacity="1.0" stroke-linecap="round" stroke-linejoin="round"/>
    <path d="M 208.91017150878906 325.7396545410156 C 174.7289276123047 504.5953369140625 208.17149353027344 488.92401123046875 176.45669555664062 489.8503112792969 C 183.8932342529297 442.54913330078125 186.10671997070312 355.8111267089844 161.17901611328125 296.2471618652344 C 204.75808715820312 323.9754333496094 172.5095977783203 324.5487976074219 171.84939575195312 351.87548828125 C 191.6981658935547 362.8154602050781 168.47039794921875 345.7059326171875 208.91017150878906 325.7396545410156" stroke-width="0.0" fill="rgb(254, 245, 52)" opacity="0.9849546" stroke="rgb(0, 0, 0)" stroke-opacity="1.0" stroke-linecap="round" stroke-linejoin="round"/>
    <path d="M 210.28562927246094 193.21319580078125 C 202.83084106445312 244.26266479492188 207.99838256835938 330.1717834472656 215.3444061279297 328.8905334472656 C 94.38755798339844 332.9750061035156 205.37469482421875 305.5750427246094 199.4051971435547 280.3550109863281 C 66.18563842773438 127.68072509765625 7.9499359130859375 123.12240600585938 221.60427856445312 73.16426086425781 C 129.720458984375 206.68702697753906 210.233642578125 114.78478240966797 210.28562927246094 193.21319580078125" stroke-width="0.0" fill="rgb(244, 232, 23)" opacity="0.93141496" stroke="rgb(0, 0, 0)" stroke-opacity="1.0" stroke-linecap="round" stroke-linejoin="round"/>
    <path d="M 167.67440795898438 264.8544616699219 C 104.65650177001953 259.61737060546875 72.41161346435547 285.91510009765625 84.63507843017578 319.074462890625 C 119.20777130126953 405.69573974609375 92.57125854492188 394.6402587890625 -8.76042652130127 275.31243896484375 C -68.03356170654297 65.31997680664062 -54.448795318603516 102.59263610839844 127.39407348632812 82.75894927978516 C 195.21510314941406 164.23379516601562 206.9641571044922 198.76095581054688 167.67440795898438 264.8544616699219" stroke-width="0.0" fill="rgb(28, 18, 214)" opacity="1.0" stroke="rgb(0, 0, 0)" stroke-opacity="1.0" stroke-linecap="round" stroke-linejoin="round"/>
    <path d="M 229.71417236328125 51.097721099853516 C 217.4746551513672 102.85828399658203 225.66676330566406 121.94811248779297 198.486572265625 124.00650787353516 C 164.333740234375 133.23895263671875 95.3301773071289 144.5691680908203 59.873809814453125 63.882694244384766 C 74.93207550048828 -42.842079162597656 90.3067626953125 -41.099037170410156 179.341552734375 -52.57907485961914 C 198.91566467285156 -4.650393486022949 174.99359130859375 44.81395721435547 229.71417236328125 51.097721099853516" stroke-width="0.0" fill="rgb(43, 18, 225)" opacity="1.0" stroke="rgb(0, 0, 0)" stroke-opacity="1.0" stroke-linecap="round" stroke-linejoin="round"/>
    <path d="M 290.56976318359375 138.89999389648438 C 311.3870849609375 198.91192626953125 318.5221252441406 221.659423828125 269.5671691894531 179.97679138183594 C 171.593017578125 167.7756805419922 269.759765625 160.0533905029297 210.21519470214844 101.78482055664062 C 259.36956787109375 58.80099868774414 266.3140869140625 139.77066040039062 298.0243835449219 151.36570739746094 C 265.271484375 177.0495147705078 270.3572998046875 158.49935913085938 290.56976318359375 138.89999389648438" stroke-width="0.0" fill="rgb(249, 197, 0)" opacity="0.99422055" stroke="rgb(0, 0, 0)" stroke-opacity="1.0" stroke-linecap="round" stroke-linejoin="round"/>
    <path d="M 111.73442840576172 308.1848449707031 C 62.80241394042969 330.4974365234375 118.07064819335938 335.2146911621094 101.86305236816406 383.61932373046875 C 100.86476135253906 344.7135314941406 75.7727279663086 331.9750671386719 79.32804870605469 299.7727966308594 C 75.6094970703125 301.3624267578125 50.14444351196289 297.42138671875 68.59832763671875 328.490966796875 C 70.88777923583984 424.24017333984375 24.0853271484375 295.4873962402344 111.73442840576172 308.1848449707031" stroke-width="0.0" fill="rgb(239, 252, 0)" opacity="0.9877208" stroke="rgb(0, 0, 0)" stroke-opacity="1.0" stroke-linecap="round" stroke-linejoin="round"/>
    <path d="M 195.49163818359375 91.15522766113281 C 211.2230682373047 135.96826171875 153.9835205078125 136.3094482421875 207.78305053710938 133.22918701171875 C 239.3613739013672 42.54810333251953 218.00607299804688 147.6759033203125 174.46470642089844 101.45459747314453 C 240.06040954589844 182.08213806152344 200.1929473876953 103.39817810058594 202.016357421875 35.374481201171875 C 144.5799102783203 38.968597412109375 193.23350524902344 52.96512985229492 195.49163818359375 91.15522766113281" stroke-width="0.0" fill="rgb(255, 255, 0)" opacity="1.0" stroke="rgb(0, 0, 0)" stroke-opacity="1.0" stroke-linecap="round" stroke-linejoin="round"/>
    <path d="M 271.40313720703125 452.14581298828125 C 260.8927307128906 455.7523193359375 244.65284729003906 455.717041015625 248.9439697265625 452.60687255859375 C 257.4117431640625 456.727294921875 247.27236938476562 501.9739990234375 229.33111572265625 489.20208740234375 C 207.71041870117188 286.551025390625 230.62713623046875 303.749267578125 233.08444213867188 450.2906494140625 C 300.42059326171875 458.6370849609375 289.9704284667969 453.7959289550781 271.40313720703125 452.14581298828125" stroke-width="0.0" fill="rgb(225, 190, 87)" opacity="0.9302386" stroke="rgb(0, 0, 0)" stroke-opacity="1.0" stroke-linecap="round" stroke-linejoin="round"/>
    <path d="M 170.47157287597656 246.38600158691406 C 148.16819763183594 267.15032958984375 98.12678527832031 290.56915283203125 153.56857299804688 300.77923583984375 C 190.50872802734375 299.7724609375 150.37892150878906 266.1463928222656 85.77861022949219 313.47027587890625 C 156.72850036621094 298.78814697265625 135.8552703857422 299.3668518066406 118.47208404541016 272.2011413574219 C 144.085205078125 268.5513000488281 129.7123260498047 274.27252197265625 170.47157287597656 246.38600158691406" stroke-width="0.0" fill="rgb(255, 241, 6)" opacity="0.94042015" stroke="rgb(0, 0, 0)" stroke-opacity="1.0" stroke-linecap="round" stroke-linejoin="round"/>
    <path d="M 216.85671997070312 92.27717590332031 C 236.86094665527344 118.34230041503906 234.1183624267578 143.8732147216797 190.85684204101562 149.83323669433594 C 163.46484375 140.6554718017578 175.45140075683594 114.00852966308594 183.48191833496094 115.81727600097656 C 171.4598388671875 89.15460205078125 160.67202758789062 72.71316528320312 167.36692810058594 98.22293090820312 C 172.46835327148438 103.63375091552734 175.27442932128906 119.12163543701172 216.85671997070312 92.27717590332031" stroke-width="0.0" fill="rgb(246, 215, 84)" opacity="1.0" stroke="rgb(0, 0, 0)" stroke-opacity="1.0" stroke-linecap="round" stroke-linejoin="round"/>
    <path d="M 356.09326171875 281.4435729980469 C 355.21160888671875 309.16522216796875 372.1935729980469 288.5162048339844 327.6639709472656 275.9320983886719 C 259.4129943847656 282.6146240234375 308.8902893066406 309.74591064453125 288.2389221191406 226.15773010253906 C 341.7870178222656 245.59471130371094 348.71307373046875 241.51058959960938 332.1573486328125 249.77212524414062 C 361.5433654785156 255.0640106201172 381.2742004394531 246.06385803222656 356.09326171875 281.4435729980469" stroke-width="0.0" fill="rgb(53, 2, 240)" opacity="0.9201934" stroke="rgb(0, 0, 0)" stroke-opacity="1.0" stroke-linecap="round" stroke-linejoin="round"/>
    <path d="M 164.70675659179688 291.90850830078125 C 157.57322692871094 289.5371398925781 148.67120361328125 306.84783935546875 155.2406768798828 270.7934875488281 C 171.92906188964844 277.2400207519531 124.19532775878906 278.82440185546875 121.90038299560547 273.4322509765625 C 167.5927734375 257.539794921875 175.34584045410156 248.66567993164062 176.5658721923828 148.84927368164062 C 228.73202514648438 204.81407165527344 185.44876098632812 226.1941680908203 164.70675659179688 291.90850830078125" stroke-width="0.0" fill="rgb(240, 186, 21)" opacity="0.7495535" stroke="rgb(0, 0, 0)" stroke-opacity="1.0" stroke-linecap="round" stroke-linejoin="round"/>
    <path d="M 184.2341766357422 107.00235748291016 C 194.43601989746094 115.54393005371094 229.19097900390625 91.49545288085938 168.6421661376953 126.5050048828125 C 178.39215087890625 114.77665710449219 175.39146423339844 97.8897933959961 157.98455810546875 82.6644515991211 C 138.85264587402344 83.33289337158203 170.63328552246094 57.93817138671875 171.22657775878906 81.21406555175781 C 162.55772399902344 75.85430145263672 175.57369995117188 97.40438079833984 184.2341766357422 107.00235748291016" stroke-width="0.0" fill="rgb(224, 160, 61)" opacity="0.8800082" stroke="rgb(0, 0, 0)" stroke-opacity="1.0" stroke-linecap="round" stroke-linejoin="round"/>
    <path d="M 258.4903869628906 470.70916748046875 C 238.69601440429688 465.7327575683594 260.3316650390625 439.81048583984375 267.7651062011719 461.6658630371094 C 266.9117126464844 490.24090576171875 240.341796875 490.96258544921875 245.0419921875 490.08160400390625 C 229.7597198486328 444.92999267578125 239.93968200683594 459.294189453125 233.33154296875 446.7453308105469 C 252.15907287597656 429.4421691894531 272.2329406738281 435.81201171875 258.4903869628906 470.70916748046875" stroke-width="0.0" fill="rgb(60, 80, 122)" opacity="1.0" stroke="rgb(0, 0, 0)" stroke-opacity="1.0" stroke-linecap="round" stroke-linejoin="round"/>
    <path d="M 353.2605895996094 238.4388427734375 C 360.791015625 240.8314666748047 360.27496337890625 241.33761596679688 336.79156494140625 238.40504455566406 C 310.24163818359375 255.47378540039062 301.6443176269531 248.6405029296875 297.5594787597656 216.02777099609375 C 285.6592102050781 222.52975463867188 310.3292541503906 217.19113159179688 312.02691650390625 212.48275756835938 C 346.7858581542969 233.93997192382812 338.1759033203125 234.37570190429688 353.2605895996094 238.4388427734375" stroke-width="0.0" fill="rgb(51, 9, 216)" opacity="0.0886343" stroke="rgb(0, 0, 0)" stroke-opacity="1.0" stroke-linecap="round" stroke-linejoin="round"/>
    <path d="M 177.92431640625 116.36612701416016 C 174.38795471191406 155.83982849121094 148.2632598876953 149.135009765625 124.61539459228516 142.697265625 C 129.27565002441406 145.34336853027344 111.6419448852539 134.17489624023438 102.17924499511719 108.56307983398438 C 100.75646209716797 95.59562683105469 114.19487762451172 93.7038803100586 122.6198959350586 90.22547912597656 C 140.2826385498047 82.95484161376953 164.78720092773438 107.97772216796875 177.92431640625 116.36612701416016" stroke-width="0.0" fill="rgb(223, 244, 255)" opacity="0.9346056" stroke="rgb(0, 0, 0)" stroke-opacity="1.0" stroke-linecap="round" stroke-linejoin="round"/>
    <path d="M 129.32847595214844 349.5751953125 C 125.55018615722656 387.93951416015625 104.35539245605469 384.873779296875 102.7462158203125 433.40460205078125 C 100.56106567382812 386.3110046386719 92.9790267944336 390.1763610839844 95.82168579101562 378.6985168457031 C 96.69271850585938 344.1329040527344 89.58126831054688 336.5923156738281 120.58274841308594 333.9389953613281 C 100.01446533203125 273.3208923339844 132.24456787109375 313.18853759765625 129.32847595214844 349.5751953125" stroke-width="0.0" fill="rgb(251, 232, 8)" opacity="0.98214144" stroke="rgb(0, 0, 0)" stroke-opacity="1.0" stroke-linecap="round" stroke-linejoin="round"/>
    <path d="M 115.03848266601562 424.9311828613281 C 122.2101058959961 510.0992126464844 143.09573364257812 486.6996154785156 87.87809753417969 490.0642395019531 C 90.21511840820312 490.218017578125 87.88512420654297 475.3914794921875 91.38623809814453 429.2605285644531 C 88.90995025634766 416.7191467285156 90.27432250976562 416.58013916015625 85.22000122070312 399.89404296875 C 107.1603775024414 369.2999267578125 99.59456634521484 376.2168273925781 115.03848266601562 424.9311828613281" stroke-width="0.0" fill="rgb(254, 192, 28)" opacity="0.9079982" stroke="rgb(0, 0, 0)" stroke-opacity="1.0" stroke-linecap="round" stroke-linejoin="round"/>
    <path d="M 176.44322204589844 134.64373779296875 C 144.05494689941406 149.12738037109375 105.7769546508789 134.09619140625 94.71157836914062 144.65252685546875 C 109.62887573242188 129.54588317871094 103.18490600585938 127.2032470703125 93.47319793701172 115.9998550415039 C 79.55462646484375 139.26295471191406 78.07626342773438 145.81390380859375 139.265625 154.40463256835938 C 131.8896026611328 89.89761352539062 128.83993530273438 97.435546875 176.44322204589844 134.64373779296875" stroke-width="0.0" fill="rgb(27, 35, 135)" opacity="0.32908246" stroke="rgb(0, 0, 0)" stroke-opacity="1.0" stroke-linecap="round" stroke-linejoin="round"/>
    <path d="M 91.2706527709961 136.14788818359375 C 79.547607421875 133.2108612060547 66.14469146728516 125.08792877197266 37.10285949707031 133.6240234375 C 33.232295989990234 130.5089874267578 29.134618759155273 130.2657928466797 32.2100830078125 136.73318481445312 C 28.762983322143555 139.91883850097656 50.60957717895508 123.66609191894531 34.332122802734375 96.57205200195312 C 44.55679702758789 106.6939697265625 58.914058685302734 104.88525390625 91.2706527709961 136.14788818359375" stroke-width="0.0" fill="rgb(81, 18, 204)" opacity="0.021804268" stroke="rgb(0, 0, 0)" stroke-opacity="1.0" stroke-linecap="round" stroke-linejoin="round"/>
    <path d="M 48.44591522216797 318.8509216308594 C 51.12114715576172 355.5653076171875 31.037425994873047 348.5147705078125 19.89938735961914 315.82501220703125 C 19.461109161376953 334.8129577636719 35.89775466918945 332.82208251953125 32.14981460571289 304.9241943359375 C 14.91319751739502 294.87322998046875 29.394866943359375 299.56060791015625 43.170082092285156 301.78643798828125 C 31.65114402770996 310.81195068359375 37.1291389465332 311.0975036621094 48.44591522216797 318.8509216308594" stroke-width="0.0" fill="rgb(24, 11, 169)" opacity="0.26108378" stroke="rgb(0, 0, 0)" stroke-opacity="1.0" stroke-linecap="round" stroke-linejoin="round"/>
    <path d="M 379.483642578125 233.50772094726562 C 373.7322082519531 248.26583862304688 379.98675537109375 260.7998962402344 368.5194396972656 282.56243896484375 C 355.0521545410156 251.86895751953125 364.8640441894531 218.6739501953125 355.6446533203125 224.44285583496094 C 355.3134460449219 209.24530029296875 350.765625 180.85641479492188 341.5824890136719 182.18019104003906 C 363.9342956542969 200.76654052734375 373.0085144042969 203.62889099121094 379.483642578125 233.50772094726562" stroke-width="0.0" fill="rgb(77, 114, 67)" opacity="0.53001404" stroke="rgb(0, 0, 0)" stroke-opacity="1.0" stroke-linecap="round" stroke-linejoin="round"/>
    <path d="M 179.82717895507812 226.3080291748047 C 213.3963623046875 274.8460998535156 205.95335388183594 277.0448913574219 176.05343627929688 264.7669982910156 C 187.28648376464844 280.2051086425781 194.55906677246094 258.7121887207031 173.33152770996094 264.86431884765625 C 201.86900329589844 300.83050537109375 209.08328247070312 282.59869384765625 170.94459533691406 236.6669464111328 C 143.5341796875 254.84873962402344 165.44036865234375 266.76507568359375 179.82717895507812 226.3080291748047" stroke-width="0.0" fill="rgb(213, 69, 49)" opacity="0.50943846" stroke="rgb(0, 0, 0)" stroke-opacity="1.0" stroke-linecap="round" stroke-linejoin="round"/>
    <path d="M 193.57545471191406 264.12982177734375 C 185.49822998046875 220.22239685058594 196.10470581054688 243.6459197998047 197.85955810546875 266.6510925292969 C 198.4261016845703 268.7339782714844 161.00282287597656 277.8282470703125 163.65817260742188 274.9031066894531 C 209.5048828125 260.7325134277344 201.2532196044922 249.3208465576172 192.3406982421875 235.4396514892578 C 190.9257049560547 249.6251678466797 199.2964630126953 269.2717590332031 193.57545471191406 264.12982177734375" stroke-width="0.0" fill="rgb(234, 196, 24)" opacity="0.0104732765" stroke="rgb(0, 0, 0)" stroke-opacity="1.0" stroke-linecap="round" stroke-linejoin="round"/>
    <path d="M 236.42926025390625 353.5467224121094 C 210.998779296875 356.3554382324219 166.3218536376953 339.5487365722656 146.86697387695312 342.8153076171875 C 162.99388122558594 356.32183837890625 157.05076599121094 317.5271911621094 154.3548583984375 330.1770324707031 C 169.0314483642578 352.2129211425781 167.87986755371094 331.3167419433594 173.5941925048828 318.8785400390625 C 195.53805541992188 303.9765319824219 228.4931640625 306.0086364746094 236.42926025390625 353.5467224121094" stroke-width="0.0" fill="rgb(151, 49, 12)" opacity="0.4470652" stroke="rgb(0, 0, 0)" stroke-opacity="1.0" stroke-linecap="round" stroke-linejoin="round"/>
    <path d="M 108.72254943847656 122.68276977539062 C 126.96327209472656 160.1942901611328 137.48550415039062 128.5454559326172 103.49274444580078 136.01026916503906 C 61.121009826660156 141.82028198242188 58.502540588378906 144.9364776611328 62.083091735839844 138.13131713867188 C 61.80131149291992 116.2181625366211 63.30865478515625 107.77952575683594 98.42442321777344 105.84745025634766 C 98.00349426269531 82.87162780761719 103.3385009765625 95.33940124511719 108.72254943847656 122.68276977539062" stroke-width="0.0" fill="rgb(27, 6, 245)" opacity="0.22502117" stroke="rgb(0, 0, 0)" stroke-opacity="1.0" stroke-linecap="round" stroke-linejoin="round"/>
    <path d="M 68.13968658447266 121.94194793701172 C 44.15106201171875 135.19052124023438 41.32182312011719 141.7052459716797 37.758995056152344 79.05675506591797 C 14.198260307312012 76.75305938720703 -9.00466537475586 73.01615142822266 -3.2676000595092773 106.70514678955078 C 14.769405364990234 124.34276580810547 10.085539817810059 125.59038543701172 38.19268035888672 112.20523834228516 C 40.03400802612305 108.50779724121094 62.272884368896484 111.28974151611328 68.13968658447266 121.94194793701172" stroke-width="0.0" fill="rgb(53, 35, 234)" opacity="0.01740003" stroke="rgb(0, 0, 0)" stroke-opacity="1.0" stroke-linecap="round" stroke-linejoin="round"/>
    <path d="M 94.22303009033203 139.61239624023438 C 118.9184341430664 155.17994689941406 91.94780731201172 151.38742065429688 91.71373748779297 180.31793212890625 C 96.97993469238281 188.78025817871094 101.37852478027344 171.38339233398438 106.65298461914062 151.62571716308594 C 134.4874725341797 130.21353149414062 108.12152099609375 132.88095092773438 120.1236343383789 145.8109893798828 C 140.60592651367188 123.1412353515625 126.59423828125 115.86727905273438 94.22303009033203 139.61239624023438" stroke-width="0.0" fill="rgb(42, 59, 173)" opacity="0.008757855" stroke="rgb(0, 0, 0)" stroke-opacity="1.0" stroke-linecap="round" stroke-linejoin="round"/>
    <path d="M 434.124267578125 214.00506591796875 C 447.2723693847656 252.35025024414062 407.07421875 276.92633056640625 359.2188415527344 260.3075256347656 C 333.5725402832031 224.06288146972656 349.4440002441406 198.36245727539062 351.7630920410156 191.97352600097656 C 348.8647155761719 195.4556121826172 349.7076110839844 178.47232055664062 351.19500732421875 179.06423950195312 C 386.6839904785156 177.58753967285156 414.2049865722656 177.31678771972656 434.124267578125 214.00506591796875" stroke-width="0.0" fill="rgb(59, 155, 97)" opacity="0.9238132" stroke="rgb(0, 0, 0)" stroke-opacity="1.0" stroke-linecap="round" stroke-linejoin="round"/>
    <path d="M 320.89434814453125 159.14456176757812 C 341.77557373046875 195.17384338378906 328.23883056640625 227.63754272460938 302.5428466796875 217.46653747558594 C 267.7811584472656 190.51556396484375 270.2162170410156 164.51333618164062 319.08795166015625 159.35714721679688 C 295.1120910644531 132.73617553710938 270.8026428222656 112.81396484375 290.7723693847656 134.18515014648438 C 326.2604675292969 136.0084686279297 307.817626953125 162.6028594970703 320.89434814453125 159.14456176757812" stroke-width="0.0" fill="rgb(240, 253, 38)" opacity="0.9787689" stroke="rgb(0, 0, 0)" stroke-opacity="1.0" stroke-linecap="round" stroke-linejoin="round"/>
    <path d="M 144.66192626953125 28.73406410217285 C 151.2716064453125 22.443805694580078 147.08702087402344 43.804893493652344 123.84541320800781 45.598045349121094 C 108.13677215576172 58.11140823364258 109.83441162109375 43.664955139160156 107.20469665527344 42.43045425415039 C 116.24439239501953 16.886112213134766 109.33305358886719 15.179767608642578 123.23253631591797 22.599193572998047 C 151.60572814941406 12.010944366455078 149.14825439453125 24.040491104125977 144.66192626953125 28.73406410217285" stroke-width="0.0" fill="rgb(29, 36, 120)" opacity="0.055860396" stroke="rgb(0, 0, 0)" stroke-opacity="1.0" stroke-linecap="round" stroke-linejoin="round"/>
    <path d="M 46.59263610839844 333.9617614746094 C 55.07231140136719 329.8365478515625 35.156551361083984 351.0058898925781 75.93814849853516 332.8095703125 C 18.99905014038086 335.9100036621094 34.95013427734375 352.46051025390625 26.321603775024414 310.75201416015625 C 8.383913040161133 307.3501892089844 16.586166381835938 288.76715087890625 44.76347732543945 296.9140319824219 C 34.77314376831055 294.5162353515625 64.00701141357422 320.4222717285156 46.59263610839844 333.9617614746094" stroke-width="0.0" fill="rgb(52, 2, 245)" opacity="0.8007688" stroke="rgb(0, 0, 0)" stroke-opacity="1.0" stroke-linecap="round" stroke-linejoin="round"/>
    <path d="M 239.12811279296875 84.54457092285156 C 260.9949035644531 31.05365753173828 256.3345642089844 42.376121520996094 221.17149353027344 37.95699691772461 C 211.08106994628906 38.39561462402344 221.78211975097656 61.3244743347168 229.43499755859375 60.014163970947266 C 228.0522918701172 61.185935974121094 262.24493408203125 67.62323760986328 235.4809112548828 47.73934555053711 C 248.20440673828125 65.66987609863281 235.13607788085938 54.01774215698242 239.12811279296875 84.54457092285156" stroke-width="0.0" fill="rgb(70, 47, 12)" opacity="0.337784" stroke="rgb(0, 0, 0)" stroke-opacity="1.0" stroke-linecap="round" stroke-linejoin="round"/>
    <path d="M 112.15695190429688 316.29931640625 C 105.6269760131836 327.1166687011719 134.38990783691406 360.60174560546875 113.37486267089844 374.8102722167969 C 99.4616928100586 379.5073547363281 96.21451568603516 349.62200927734375 118.06739807128906 337.39959716796875 C 89.51134490966797 323.16717529296875 101.34302520751953 301.5970764160156 110.67500305175781 333.6808776855469 C 112.55705261230469 342.7929382324219 101.84392547607422 345.0845947265625 112.15695190429688 316.29931640625" stroke-width="0.0" fill="rgb(187, 76, 32)" opacity="0.7770162" stroke="rgb(0, 0, 0)" stroke-opacity="1.0" stroke-linecap="round" stroke-linejoin="round"/>
    <path d="M 222.39161682128906 385.3919372558594 C 205.15924072265625 382.8213195800781 213.78639221191406 375.1563720703125 168.3919677734375 384.1062927246094 C 177.43365478515625 394.9495544433594 178.90830993652344 376.3236389160156 182.87472534179688 356.38348388671875 C 174.99630737304688 366.2762451171875 167.34771728515625 346.73907470703125 194.12460327148438 344.7690124511719 C 224.1478271484375 335.82244873046875 243.94114685058594 358.9912414550781 222.39161682128906 385.3919372558594" stroke-width="0.0" fill="rgb(211, 64, 17)" opacity="0.1786902" stroke="rgb(0, 0, 0)" stroke-opacity="1.0" stroke-linecap="round" stroke-linejoin="round"/>
    <path d="M 70.89483642578125 149.6761016845703 C 48.17812728881836 131.50375366210938 41.77384567260742 194.0460662841797 41.090431213378906 200.26382446289062 C 46.023921966552734 185.81884765625 5.422024250030518 170.73306274414062 1.3532088994979858 182.83058166503906 C 26.90081214904785 195.77378845214844 33.231388092041016 196.61639404296875 63.79267501831055 206.4691925048828 C 63.53011703491211 177.19879150390625 94.57162475585938 183.47035217285156 70.89483642578125 149.6761016845703" stroke-width="0.0" fill="rgb(22, 12, 212)" opacity="0.0056943363" stroke="rgb(0, 0, 0)" stroke-opacity="1.0" stroke-linecap="round" stroke-linejoin="round"/>
    <path d="M 441.0609130859375 303.64794921875 C 457.8894348144531 319.79339599609375 431.68310546875 325.841552734375 415.54254150390625 314.4058532714844 C 402.47406005859375 313.80352783203125 404.3465270996094 313.0123596191406 408.62225341796875 295.7540283203125 C 391.58099365234375 285.5274658203125 394.25396728515625 276.8101806640625 440.2167053222656 268.6065979003906 C 449.36834716796875 284.9902038574219 444.8804016113281 296.3721618652344 441.0609130859375 303.64794921875" stroke-width="0.0" fill="rgb(53, 86, 79)" opacity="0.030670255" stroke="rgb(0, 0, 0)" stroke-opacity="1.0" stroke-linecap="round" stroke-linejoin="round"/>
    <path d="M 22.368751525878906 122.7850341796875 C 42.49190139770508 161.13795471191406 5.574099540710449 158.1383819580078 10.851452827453613 125.5131607055664 C 16.375242233276367 113.60383605957031 19.81353759765625 127.82489776611328 49.513431549072266 122.60995483398438 C 41.890220642089844 92.7654037475586 26.167144775390625 125.15046691894531 -5.495479583740234 114.73348999023438 C 31.627464294433594 123.7815933227539 65.80167388916016 127.46774291992188 22.368751525878906 122.7850341796875" stroke-width="0.0" fill="rgb(20, 0, 218)" opacity="0.037762325" stroke="rgb(0, 0, 0)" stroke-opacity="1.0" stroke-linecap="round" stroke-linejoin="round"/>
    <path d="M 552.8314208984375 240.34596252441406 C 527.6417236328125 275.3782043457031 519.113525390625 264.4347229003906 521.8758544921875 281.3075256347656 C 495.2649230957031 283.47283935546875 496.3125305175781 258.851318359375 486.5241394042969 239.1690216064453 C 490.52294921875 227.21104431152344 498.4219055175781 253.34442138671875 482.8373107910156 248.42556762695312 C 505.7524108886719 241.2000732421875 530.2006225585938 233.08712768554688 552.8314208984375 240.34596252441406" stroke-width="0.0" fill="rgb(1, 73, 80)" opacity="0.0055336547" stroke="rgb(0, 0, 0)" stroke-opacity="1.0" stroke-linecap="round" stroke-linejoin="round"/>
    <path d="M 238.36692810058594 94.72601318359375 C 227.0181427001953 87.59927368164062 236.38198852539062 108.19281005859375 230.9292449951172 116.4911880493164 C 217.23573303222656 108.0943832397461 196.46038818359375 110.28400421142578 186.2912139892578 111.5437240600586 C 204.36795043945312 94.3707046508789 195.1218719482422 63.675331115722656 209.0202178955078 81.23416137695312 C 214.28155517578125 107.54007720947266 242.43875122070312 98.17017364501953 238.36692810058594 94.72601318359375" stroke-width="0.0" fill="rgb(255, 234, 0)" opacity="1.0" stroke="rgb(0, 0, 0)" stroke-opacity="1.0" stroke-linecap="round" stroke-linejoin="round"/>
    <path d="M 430.21539306640625 260.9898376464844 C 431.0615539550781 291.0458068847656 427.6470642089844 285.0386962890625 422.1781921386719 243.8089141845703 C 400.976318359375 293.8756408691406 415.30865478515625 283.4046936035156 422.4768981933594 241.2039794921875 C 417.0544738769531 280.9140625 432.405029296875 281.6195068359375 437.37127685546875 260.4763488769531 C 434.2595520019531 240.82640075683594 453.1501159667969 248.7996063232422 430.21539306640625 260.9898376464844" stroke-width="0.0" fill="rgb(55, 56, 142)" opacity="0.035179105" stroke="rgb(0, 0, 0)" stroke-opacity="1.0" stroke-linecap="round" stroke-linejoin="round"/>
    <path d="M 530.2852783203125 128.77333068847656 C 542.0107421875 162.81564331054688 550.3974609375 182.1653289794922 524.5478515625 172.05886840820312 C 474.0218505859375 157.39646911621094 463.15289306640625 152.83351135253906 453.1942138671875 147.04112243652344 C 475.2196960449219 105.31369018554688 496.10760498046875 100.61991119384766 509.35455322265625 110.74369812011719 C 522.3749389648438 108.23554229736328 534.3804931640625 113.18521881103516 530.2852783203125 128.77333068847656" stroke-width="0.0" fill="rgb(12, 93, 93)" opacity="0.22518946" stroke="rgb(0, 0, 0)" stroke-opacity="1.0" stroke-linecap="round" stroke-linejoin="round"/>
    <path d="M 534.0846557617188 170.6536102294922 C 528.3980102539062 178.21974182128906 520.0794067382812 185.03900146484375 530.449462890625 207.4266815185547 C 484.99566650390625 214.17254638671875 463.341064453125 212.7437744140625 456.779052734375 203.33193969726562 C 530.7570190429688 174.07228088378906 524.3991088867188 153.45704650878906 520.6162109375 148.6620635986328 C 520.5421142578125 145.31556701660156 527.0242309570312 154.71644592285156 534.0846557617188 170.6536102294922" stroke-width="0.0" fill="rgb(0, 107, 59)" opacity="0.08663676" stroke="rgb(0, 0, 0)" stroke-opacity="1.0" stroke-linecap="round" stroke-linejoin="round"/>
    <path d="M 77.26371765136719 372.3057556152344 C 31.884315490722656 371.3988037109375 61.43448257446289 363.9635314941406 49.179725646972656 347.04400634765625 C 25.03829002380371 330.821533203125 40.2745475769043 320.1046142578125 26.849124908447266 324.6097412109375 C 61.36387634277344 325.61578369140625 14.021060943603516 328.7155456542969 30.76255226135254 333.0246887207031 C 34.56694030761719 326.19403076171875 56.68722915649414 319.3299865722656 77.26371765136719 372.3057556152344" stroke-width="0.0" fill="rgb(1, 91, 42)" opacity="0.26688716" stroke="rgb(0, 0, 0)" stroke-opacity="1.0" stroke-linecap="round" stroke-linejoin="round"/>
    <path d="M 309.0604248046875 194.71066284179688 C 322.19830322265625 265.460205078125 307.22442626953125 247.44456481933594 318.2774353027344 254.66790771484375 C 300.1800842285156 272.9085693359375 289.912109375 269.7035827636719 305.3331604003906 269.87725830078125 C 311.26776123046875 235.99288940429688 313.7543029785156 225.6709747314453 364.8313903808594 225.12783813476562 C 356.8749084472656 192.57345581054688 307.4251403808594 212.046875 309.0604248046875 194.71066284179688" stroke-width="0.0" fill="rgb(68, 41, 255)" opacity="0.033447962" stroke="rgb(0, 0, 0)" stroke-opacity="1.0" stroke-linecap="round" stroke-linejoin="round"/>
    <path d="M 518.1646118164062 137.5912322998047 C 534.43310546875 181.25328063964844 464.7283935546875 192.81239318847656 481.3776550292969 193.07037353515625 C 463.30731201171875 146.5258331298828 463.3833312988281 145.04196166992188 476.61383056640625 155.72909545898438 C 452.10052490234375 144.4236602783203 466.04620361328125 113.37643432617188 454.95660400390625 137.81248474121094 C 479.8478088378906 163.5072021484375 499.6127624511719 148.83351135253906 518.1646118164062 137.5912322998047" stroke-width="0.0" fill="rgb(2, 116, 78)" opacity="0.016015355" stroke="rgb(0, 0, 0)" stroke-opacity="1.0" stroke-linecap="round" stroke-linejoin="round"/>
    <path d="M 465.12615966796875 458.35455322265625 C 473.5158386230469 461.7407531738281 450.286376953125 460.9623107910156 463.90606689453125 472.1007080078125 C 449.5961608886719 504.63336181640625 440.06854248046875 473.84130859375 439.83233642578125 446.8780517578125 C 439.9432678222656 442.04486083984375 439.11181640625 434.22467041015625 455.5474853515625 446.1282653808594 C 460.72967529296875 447.0572204589844 478.9871520996094 440.32080078125 465.12615966796875 458.35455322265625" stroke-width="0.0" fill="rgb(1, 27, 173)" opacity="0.04691364" stroke="rgb(0, 0, 0)" stroke-opacity="1.0" stroke-linecap="round" stroke-linejoin="round"/>
    <path d="M 529.3528442382812 369.2396545410156 C 525.7223510742188 384.2188720703125 503.9844970703125 384.9964904785156 483.3380432128906 380.8828125 C 487.88720703125 379.7484130859375 494.3642883300781 359.445556640625 476.84527587890625 364.62359619140625 C 465.23699951171875 360.6168212890625 473.1237487792969 355.8982849121094 488.3186340332031 356.9537353515625 C 498.273681640625 362.105712890625 530.9910278320312 351.798583984375 529.3528442382812 369.2396545410156" stroke-width="0.0" fill="rgb(23, 43, 73)" opacity="0.0029966985" stroke="rgb(0, 0, 0)" stroke-opacity="1.0" stroke-linecap="round" stroke-linejoin="round"/>
    <path d="M 203.9432830810547 432.3436584472656 C 190.90110778808594 438.37738037109375 182.08023071289062 448.31866455078125 168.59425354003906 451.044189453125 C 130.5961456298828 459.1434326171875 157.5974578857422 455.3801574707031 146.24916076660156 444.883544921875 C 138.2285614013672 423.5865478515625 137.91220092773438 386.538330078125 174.84083557128906 377.5374755859375 C 177.9554443359375 378.5364990234375 152.8553009033203 420.06768798828125 203.9432830810547 432.3436584472656" stroke-width="0.0" fill="rgb(100, 77, 164)" opacity="0.075380124" stroke="rgb(0, 0, 0)" stroke-opacity="1.0" stroke-linecap="round" stroke-linejoin="round"/>
    <path d="M 117.45672607421875 184.43263244628906 C 112.24874877929688 187.6783447265625 116.95075988769531 185.08680725097656 90.47404479980469 187.46923828125 C 71.08820343017578 171.13795471191406 65.4228515625 167.62234497070312 75.63038635253906 162.65353393554688 C 71.03556823730469 149.4459991455078 68.58928680419922 148.6315155029297 77.19346618652344 114.7142105102539 C 101.52114868164062 131.30142211914062 106.50347900390625 145.76016235351562 117.45672607421875 184.43263244628906" stroke-width="0.0" fill="rgb(39, 9, 232)" opacity="0.13600326" stroke="rgb(0, 0, 0)" stroke-opacity="1.0" stroke-linecap="round" stroke-linejoin="round"/>
    <path d="M 162.84939575195312 119.63563537597656 C 163.40008544921875 113.14064025878906 169.4942626953125 123.25686645507812 172.01724243164062 141.17245483398438 C 168.12908935546875 127.07144165039062 164.2668914794922 114.34233093261719 183.54074096679688 140.4079132080078 C 174.2919464111328 152.68923950195312 179.00845336914062 124.60088348388672 180.3094024658203 131.7863311767578 C 187.88705444335938 119.79762268066406 193.15362548828125 119.9989013671875 162.84939575195312 119.63563537597656" stroke-width="0.0" fill="rgb(224, 214, 100)" opacity="0.0" stroke="rgb(0, 0, 0)" stroke-opacity="1.0" stroke-linecap="round" stroke-linejoin="round"/>
    <path d="M 171.53399658203125 442.81304931640625 C 188.50413513183594 404.49267578125 156.31581115722656 407.7574768066406 161.9894561767578 417.390380859375 C 183.81033325195312 424.94012451171875 167.12783813476562 431.4295654296875 136.177734375 413.7976379394531 C 163.44825744628906 389.04833984375 158.07919311523438 386.1927795410156 150.8084259033203 389.41510009765625 C 157.22120666503906 387.06256103515625 155.57997131347656 404.73687744140625 171.53399658203125 442.81304931640625" stroke-width="0.0" fill="rgb(82, 63, 124)" opacity="0.09994921" stroke="rgb(0, 0, 0)" stroke-opacity="1.0" stroke-linecap="round" stroke-linejoin="round"/>
    <path d="M 485.6023864746094 84.0291748046875 C 493.79437255859375 70.45974731445312 493.189208984375 94.55397033691406 415.7698974609375 67.00053405761719 C 385.5768127441406 150.76986694335938 384.1442565917969 193.197021484375 426.80340576171875 187.98599243164062 C 475.72515869140625 212.02883911132812 464.83172607421875 159.05865478515625 431.71929931640625 143.43673706054688 C 474.76409912109375 120.55302429199219 487.1229553222656 150.23941040039062 485.6023864746094 84.0291748046875" stroke-width="0.0" fill="rgb(30, 75, 111)" opacity="0.09757614" stroke="rgb(0, 0, 0)" stroke-opacity="1.0" stroke-linecap="round" stroke-linejoin="round"/>
    <path d="M 261.6043395996094 327.77764892578125 C 269.3828430175781 302.8690185546875 247.2971954345703 300.8926086425781 243.744873046875 313.75469970703125 C 246.92431640625 325.2745056152344 230.84669494628906 314.7159118652344 238.8719940185547 332.78387451171875 C 198.87754821777344 323.57342529296875 202.75570678710938 321.08843994140625 246.32321166992188 327.59906005859375 C 249.64260864257812 298.9689025878906 260.8869323730469 312.4581298828125 261.6043395996094 327.77764892578125" stroke-width="0.0" fill="rgb(19, 42, 117)" opacity="0.01986733" stroke="rgb(0, 0, 0)" stroke-opacity="1.0" stroke-linecap="round" stroke-linejoin="round"/>
    <path d="M 150.4302520751953 443.7521667480469 C 140.5303497314453 446.7327880859375 147.73313903808594 481.8341064453125 134.9168243408203 487.1603698730469 C 143.97543334960938 483.84466552734375 144.35848999023438 471.7505187988281 134.0691680908203 453.75811767578125 C 142.78729248046875 487.9616394042969 143.11964416503906 463.3998718261719 137.2731475830078 439.55462646484375 C 145.04481506347656 451.82366943359375 158.492431640625 464.6195068359375 150.4302520751953 443.7521667480469" stroke-width="0.0" fill="rgb(12, 46, 101)" opacity="0.0" stroke="rgb(0, 0, 0)" stroke-opacity="1.0" stroke-linecap="round" stroke-linejoin="round"/>
  </g>
</svg>
