<?xml version="1.0" ?>
<svg xmlns="http://www.w3.org/2000/svg" version="1.1" width="512" height="512">
  <defs/>
  <g>
    <path d="M 546.1881103515625 427.9090576171875 C 538.6600952148438 511.1578369140625 545.4749145507812 524.1809692382812 424.7994689941406 567.5979614257812 C 312.82220458984375 586.5527954101562 245.18544006347656 587.6572265625 161.35533142089844 461.29986572265625 C 266.8912048339844 284.6510925292969 348.2771911621094 310.1394958496094 414.9769592285156 223.3402557373047 C 558.4227294921875 275.4622497558594 555.6416625976562 295.21795654296875 546.1881103515625 427.9090576171875" stroke-width="0.0" fill="rgb(184, 195, 41)" opacity="0.77779835" stroke="rgb(0, 0, 0)" stroke-opacity="1.0" stroke-linecap="round" stroke-linejoin="round"/>
    <path d="M 278.3997497558594 254.4088897705078 C 174.6535186767578 504.5732727050781 227.4783172607422 528.8683471679688 88.4286117553711 537.6090698242188 C -51.20000076293945 515.2716064453125 -49.78134536743164 499.9927062988281 -56.19438552856445 287.3744812011719 C -35.38138961791992 195.5023193359375 14.220848083496094 185.90664672851562 151.56521606445312 102.50826263427734 C 304.4413757324219 254.59986877441406 221.8447265625 222.9868927001953 278.3997497558594 254.4088897705078" stroke-width="0.0" fill="rgb(55, 219, 93)" opacity="0.7088834" stroke="rgb(0, 0, 0)" stroke-opacity="1.0" stroke-linecap="round" stroke-linejoin="round"/>
    <path d="M 288.8915710449219 58.645626068115234 C 79.66598510742188 79.878173828125 196.75010681152344 132.1985626220703 84.73129272460938 183.41282653808594 C -61.7260856628418 177.74424743652344 -75.52650451660156 229.04376220703125 -53.157569885253906 81.98836517333984 C -30.4117374420166 -30.986705780029297 -21.97018051147461 -35.10495376586914 176.4180908203125 -19.03275489807129 C 308.8419189453125 -19.536113739013672 401.50445556640625 18.265216827392578 288.8915710449219 58.645626068115234" stroke-width="0.0" fill="rgb(185, 249, 102)" opacity="0.70847404" stroke="rgb(0, 0, 0)" stroke-opacity="1.0" stroke-linecap="round" stroke-linejoin="round"/>
    <path d="M 439.6976318359375 231.71585083007812 C 452.7765197753906 261.7277526855469 367.58941650390625 248.32781982421875 407.2406005859375 244.06007385253906 C 215.26478576660156 307.68597412109375 262.44659423828125 226.0010223388672 228.58807373046875 205.875244140625 C 370.5369567871094 130.3693389892578 330.1224365234375 88.847412109375 327.0238342285156 62.23607635498047 C 415.0349426269531 119.34043884277344 402.8952941894531 125.31791687011719 439.6976318359375 231.71585083007812" stroke-width="0.0" fill="rgb(19, 157, 56)" opacity="0.9440894" stroke="rgb(0, 0, 0)" stroke-opacity="1.0" stroke-linecap="round" stroke-linejoin="round"/>
    <path d="M 353.90093994140625 103.046142578125 C 371.8390197753906 201.1562042236328 299.6863098144531 248.1634979248047 128.76783752441406 234.65280151367188 C 86.64704895019531 197.61578369140625 104.23184967041016 190.9898681640625 84.4488296508789 162.8483428955078 C 116.10086822509766 143.97499084472656 113.46920013427734 91.44564056396484 239.77264404296875 65.10733795166016 C 282.19671630859375 54.56975173950195 342.9790954589844 52.77878189086914 353.90093994140625 103.046142578125" stroke-width="0.0" fill="rgb(70, 203, 60)" opacity="0.9009514" stroke="rgb(0, 0, 0)" stroke-opacity="1.0" stroke-linecap="round" stroke-linejoin="round"/>
    <path d="M 440.4332275390625 218.2967987060547 C 371.0053405761719 320.9895324707031 339.02001953125 348.500732421875 243.1929931640625 333.0810241699219 C 293.014404296875 449.6082458496094 165.9093475341797 506.19012451171875 197.5899658203125 427.71197509765625 C 353.1217041015625 143.17552185058594 245.5728302001953 315.2850036621094 323.4376220703125 249.19268798828125 C 462.2622375488281 227.80577087402344 437.45758056640625 266.746826171875 440.4332275390625 218.2967987060547" stroke-width="0.0" fill="rgb(24, 171, 63)" opacity="0.9986983" stroke="rgb(0, 0, 0)" stroke-opacity="1.0" stroke-linecap="round" stroke-linejoin="round"/>
    <path d="M 570.885498046875 137.79693603515625 C 546.0416870117188 318.6876525878906 563.1805419921875 343.6037902832031 568.0855102539062 238.31057739257812 C 390.24957275390625 196.41287231445312 383.6382141113281 273.058349609375 344.39581298828125 25.89090919494629 C 320.1912841796875 206.00514221191406 248.457275390625 -6.266653060913086 283.3789367675781 -53.48154067993164 C 586.7609252929688 -24.84459114074707 583.1972045898438 15.388212203979492 570.885498046875 137.79693603515625" stroke-width="0.0" fill="rgb(195, 172, 1)" opacity="0.46534172" stroke="rgb(0, 0, 0)" stroke-opacity="1.0" stroke-linecap="round" stroke-linejoin="round"/>
    <path d="M 316.955078125 291.7092590332031 C 329.49859619140625 265.19573974609375 372.66400146484375 234.4864044189453 335.3319091796875 193.79942321777344 C 288.27667236328125 334.5602111816406 163.65362548828125 231.38088989257812 270.78521728515625 333.5546569824219 C 308.7552795410156 210.6571502685547 354.14739990234375 322.85040283203125 404.9490051269531 236.82615661621094 C 290.6297912597656 243.02651977539062 322.95977783203125 269.40838623046875 316.955078125 291.7092590332031" stroke-width="0.0" fill="rgb(39, 144, 71)" opacity="0.8455367" stroke="rgb(0, 0, 0)" stroke-opacity="1.0" stroke-linecap="round" stroke-linejoin="round"/>
    <path d="M 132.10604858398438 113.60603332519531 C 112.4049301147461 132.9754180908203 111.63066101074219 145.59390258789062 69.96223449707031 128.33392333984375 C 62.81446838378906 134.05140686035156 13.348873138427734 143.93576049804688 -36.48603439331055 65.03511047363281 C -20.984371185302734 -2.3304123878479004 -17.199241638183594 -11.274316787719727 125.97759246826172 -29.620389938354492 C 190.3344268798828 23.309194564819336 160.06967163085938 73.57638549804688 132.10604858398438 113.60603332519531" stroke-width="0.0" fill="rgb(222, 247, 153)" opacity="0.036077" stroke="rgb(0, 0, 0)" stroke-opacity="1.0" stroke-linecap="round" stroke-linejoin="round"/>
    <path d="M 249.0474395751953 320.05682373046875 C 288.8276672363281 391.2845458984375 234.16668701171875 477.4129638671875 198.1765594482422 490.8318176269531 C 101.4302749633789 457.45257568359375 -5.771911144256592 421.9374694824219 24.889495849609375 177.74053955078125 C 110.76248931884766 164.20420837402344 57.307132720947266 355.7887268066406 234.15744018554688 338.32281494140625 C 302.54730224609375 345.95758056640625 211.58689880371094 295.6086730957031 249.0474395751953 320.05682373046875" stroke-width="0.0" fill="rgb(186, 244, 90)" opacity="0.9006643" stroke="rgb(0, 0, 0)" stroke-opacity="1.0" stroke-linecap="round" stroke-linejoin="round"/>
    <path d="M 563.3833618164062 60.79081344604492 C 572.5035400390625 137.14964294433594 554.082763671875 147.7676239013672 470.2225341796875 146.58766174316406 C 471.61737060546875 91.0907974243164 466.73431396484375 72.90126037597656 371.63348388671875 4.822023391723633 C 360.7430725097656 -41.58826446533203 396.5268249511719 -36.04871368408203 469.0782165527344 -28.598020553588867 C 540.84521484375 -11.616264343261719 538.4585571289062 -0.5953571200370789 563.3833618164062 60.79081344604492" stroke-width="0.0" fill="rgb(251, 207, 32)" opacity="0.3230248" stroke="rgb(0, 0, 0)" stroke-opacity="1.0" stroke-linecap="round" stroke-linejoin="round"/>
    <path d="M 432.8125 84.01595306396484 C 482.95306396484375 160.02401733398438 505.9689025878906 130.88169860839844 367.9847717285156 123.96755981445312 C 396.8476867675781 143.17234802246094 293.5166320800781 39.146060943603516 237.39422607421875 60.75113296508789 C 225.08209228515625 -15.767327308654785 339.0281982421875 25.800975799560547 380.97930908203125 27.538410186767578 C 372.98565673828125 50.045589447021484 380.38409423828125 49.98854064941406 432.8125 84.01595306396484" stroke-width="0.0" fill="rgb(238, 253, 87)" opacity="0.99744296" stroke="rgb(0, 0, 0)" stroke-opacity="1.0" stroke-linecap="round" stroke-linejoin="round"/>
    <path d="M 560.9801025390625 467.7001647949219 C 546.2811889648438 517.0755004882812 539.6810913085938 526.2149047851562 411.2757263183594 540.9005737304688 C 384.2663879394531 461.4352111816406 397.11749267578125 401.22991943359375 402.743408203125 393.49639892578125 C 438.91302490234375 426.0531311035156 450.6129150390625 425.8254699707031 447.3627014160156 422.6576843261719 C 453.4447937011719 409.951171875 488.76068115234375 390.63262939453125 560.9801025390625 467.7001647949219" stroke-width="0.0" fill="rgb(251, 204, 27)" opacity="0.984831" stroke="rgb(0, 0, 0)" stroke-opacity="1.0" stroke-linecap="round" stroke-linejoin="round"/>
    <path d="M 533.2721557617188 54.358673095703125 C 529.1298217773438 100.74911499023438 547.7828979492188 81.92759704589844 504.12396240234375 69.92403411865234 C 497.62921142578125 7.895253658294678 478.75323486328125 12.971870422363281 415.8057556152344 -17.75012969970703 C 418.2878723144531 -18.644319534301758 442.1639404296875 -16.06859016418457 487.4190673828125 -23.179899215698242 C 518.22216796875 -25.648662567138672 535.574462890625 -24.40635108947754 533.2721557617188 54.358673095703125" stroke-width="0.0" fill="rgb(255, 226, 6)" opacity="0.98034036" stroke="rgb(0, 0, 0)" stroke-opacity="1.0" stroke-linecap="round" stroke-linejoin="round"/>
    <path d="M 275.59002685546875 436.5483703613281 C 279.750732421875 460.3812561035156 292.95343017578125 467.6405944824219 280.0852355957031 466.5176086425781 C 196.24156188964844 463.1017761230469 207.11117553710938 482.9037780761719 215.89923095703125 427.55889892578125 C 221.61094665527344 314.689453125 175.16297912597656 295.16046142578125 294.8955993652344 293.8128967285156 C 258.88323974609375 360.2504577636719 269.8898010253906 395.7159423828125 275.59002685546875 436.5483703613281" stroke-width="0.0" fill="rgb(45, 12, 28)" opacity="0.98756975" stroke="rgb(0, 0, 0)" stroke-opacity="1.0" stroke-linecap="round" stroke-linejoin="round"/>
    <path d="M 586.6942138671875 281.059814453125 C 544.4238891601562 443.390625 524.395751953125 426.659423828125 480.6806945800781 430.0761413574219 C 463.0799255371094 447.7648620605469 442.9625244140625 448.3597106933594 347.48876953125 423.4647521972656 C 393.00457763671875 352.095458984375 418.3128967285156 359.51385498046875 461.734375 198.85386657714844 C 534.5108032226562 164.80703735351562 572.73876953125 190.17710876464844 586.6942138671875 281.059814453125" stroke-width="0.0" fill="rgb(255, 209, 15)" opacity="0.91928905" stroke="rgb(0, 0, 0)" stroke-opacity="1.0" stroke-linecap="round" stroke-linejoin="round"/>
    <path d="M 501.432861328125 251.9193572998047 C 488.83905029296875 268.5701599121094 532.9133911132812 391.1097106933594 364.82147216796875 419.88702392578125 C 385.7197265625 261.09051513671875 408.51568603515625 259.7535705566406 400.99957275390625 221.88308715820312 C 408.7297668457031 218.84054565429688 405.095458984375 179.8760223388672 363.7132873535156 98.08332061767578 C 510.75860595703125 108.8458480834961 485.75286865234375 193.3167724609375 501.432861328125 251.9193572998047" stroke-width="0.0" fill="rgb(195, 212, 13)" opacity="0.99577534" stroke="rgb(0, 0, 0)" stroke-opacity="1.0" stroke-linecap="round" stroke-linejoin="round"/>
    <path d="M 327.3924865722656 73.22940826416016 C 235.51516723632812 51.54212951660156 175.78453063964844 71.43345642089844 104.76872253417969 145.9580078125 C 65.06912231445312 123.21540069580078 97.47827911376953 63.764427185058594 148.55776977539062 52.02289581298828 C 154.2913055419922 34.253726959228516 164.84854125976562 19.079479217529297 163.23435974121094 25.10306739807129 C 170.42160034179688 18.35712242126465 260.4708251953125 -26.458099365234375 327.3924865722656 73.22940826416016" stroke-width="0.0" fill="rgb(202, 254, 90)" opacity="0.9957069" stroke="rgb(0, 0, 0)" stroke-opacity="1.0" stroke-linecap="round" stroke-linejoin="round"/>
    <path d="M 257.1559143066406 474.4126281738281 C 253.44525146484375 551.6135864257812 205.95556640625 551.7150268554688 152.7471923828125 543.4210815429688 C 146.7970428466797 498.0197448730469 167.27130126953125 476.677490234375 132.14073181152344 456.3562316894531 C 91.57673645019531 429.2534484863281 44.88161849975586 397.9291687011719 57.47808074951172 209.62109375 C 251.64828491210938 495.7465515136719 187.1398162841797 492.559326171875 257.1559143066406 474.4126281738281" stroke-width="0.0" fill="rgb(164, 233, 122)" opacity="0.9915662" stroke="rgb(0, 0, 0)" stroke-opacity="1.0" stroke-linecap="round" stroke-linejoin="round"/>
    <path d="M 117.18179321289062 266.1387939453125 C 62.68751525878906 273.69354248046875 63.55782699584961 234.34774780273438 107.25450134277344 252.76893615722656 C 103.70741271972656 308.5337829589844 7.451648235321045 315.462646484375 16.27577781677246 262.40771484375 C 17.166257858276367 194.09182739257812 -3.412620782852173 157.6129150390625 129.76795959472656 122.2446517944336 C 54.90303421020508 270.88726806640625 135.85336303710938 249.14117431640625 117.18179321289062 266.1387939453125" stroke-width="0.0" fill="rgb(206, 237, 111)" opacity="0.99626094" stroke="rgb(0, 0, 0)" stroke-opacity="1.0" stroke-linecap="round" stroke-linejoin="round"/>
    <path d="M 25.6462345123291 556.044921875 C 33.093910217285156 533.848388671875 12.798440933227539 529.4495239257812 0.7255993485450745 530.4913330078125 C -9.364206314086914 527.7437133789062 -16.68471336364746 520.4232177734375 -34.302337646484375 490.7812805175781 C -34.11323165893555 489.4405517578125 -33.19624710083008 496.09185791015625 1.851159691810608 414.5440673828125 C 28.990121841430664 426.70416259765625 8.819087028503418 471.4101257324219 25.6462345123291 556.044921875" stroke-width="0.0" fill="rgb(136, 241, 169)" opacity="0.5189413" stroke="rgb(0, 0, 0)" stroke-opacity="1.0" stroke-linecap="round" stroke-linejoin="round"/>
    <path d="M 466.2699279785156 366.3725891113281 C 426.9793701171875 499.2868957519531 346.0773620605469 458.58636474609375 297.6970520019531 462.6095886230469 C 294.29095458984375 460.9887390136719 294.8923645019531 426.6849365234375 283.254150390625 422.2169189453125 C 290.55120849609375 430.68609619140625 295.569091796875 424.8315734863281 303.3296203613281 410.6509704589844 C 336.10003662109375 392.173583984375 370.5262451171875 343.59295654296875 466.2699279785156 366.3725891113281" stroke-width="0.0" fill="rgb(186, 223, 42)" opacity="0.94353765" stroke="rgb(0, 0, 0)" stroke-opacity="1.0" stroke-linecap="round" stroke-linejoin="round"/>
    <path d="M 159.3861846923828 503.7939758300781 C 122.81053924560547 527.59423828125 120.79334259033203 536.7798461914062 140.12782287597656 520.0972900390625 C 155.56825256347656 493.0615234375 147.51451110839844 476.7859802246094 122.36181640625 469.8161315917969 C 94.4234390258789 443.1287536621094 74.40178680419922 458.3757019042969 94.0430679321289 430.10699462890625 C 146.1924591064453 458.2467041015625 148.07839965820312 475.0861511230469 159.3861846923828 503.7939758300781" stroke-width="0.0" fill="rgb(129, 231, 137)" opacity="0.3638181" stroke="rgb(0, 0, 0)" stroke-opacity="1.0" stroke-linecap="round" stroke-linejoin="round"/>
    <path d="M 73.80580139160156 411.9270935058594 C 2.382894515991211 377.1055603027344 20.069175720214844 378.9207763671875 19.97613525390625 431.1692810058594 C -8.31718921661377 444.2048645019531 -7.752892971038818 425.1957092285156 -47.66508483886719 380.4048767089844 C -52.71195602416992 281.9274597167969 -51.85818099975586 182.7407989501953 49.81138229370117 125.40205383300781 C 84.71805572509766 314.7070617675781 49.746009826660156 357.36474609375 73.80580139160156 411.9270935058594" stroke-width="0.0" fill="rgb(163, 221, 152)" opacity="0.7900985" stroke="rgb(0, 0, 0)" stroke-opacity="1.0" stroke-linecap="round" stroke-linejoin="round"/>
    <path d="M 498.337890625 457.1767883300781 C 462.4984130859375 516.8425903320312 439.1134948730469 507.70855712890625 310.2042236328125 536.9157104492188 C 297.2930603027344 581.0738525390625 279.9671325683594 531.1992797851562 332.12786865234375 517.172119140625 C 403.093017578125 478.8909606933594 401.9356384277344 450.60546875 434.6369934082031 432.99664306640625 C 450.7574157714844 427.43792724609375 478.42889404296875 403.5828857421875 498.337890625 457.1767883300781" stroke-width="0.0" fill="rgb(186, 182, 55)" opacity="0.45724386" stroke="rgb(0, 0, 0)" stroke-opacity="1.0" stroke-linecap="round" stroke-linejoin="round"/>
    <path d="M 324.51837158203125 6.6625871658325195 C 311.51202392578125 26.737852096557617 280.2080078125 21.969560623168945 285.7926940917969 -4.304601192474365 C 280.5089416503906 19.28046226501465 265.1983642578125 39.20913314819336 240.51943969726562 34.098384857177734 C 240.01934814453125 -34.04705047607422 245.06887817382812 -50.53073501586914 265.14361572265625 -37.520694732666016 C 315.22235107421875 -56.72453308105469 334.9232177734375 -54.30363464355469 324.51837158203125 6.6625871658325195" stroke-width="0.0" fill="rgb(214, 248, 109)" opacity="0.87693936" stroke="rgb(0, 0, 0)" stroke-opacity="1.0" stroke-linecap="round" stroke-linejoin="round"/>
    <path d="M 417.9314270019531 15.772164344787598 C 405.22796630859375 42.760807037353516 416.52020263671875 65.83558654785156 409.3398132324219 58.51839065551758 C 361.5202941894531 40.4029655456543 356.4970397949219 31.265108108520508 345.9079284667969 16.20270538330078 C 375.510009765625 11.724870681762695 381.1632995605469 -17.667205810546875 382.9615478515625 -29.83833885192871 C 405.3349304199219 -30.04941749572754 418.1966552734375 -20.840221405029297 417.9314270019531 15.772164344787598" stroke-width="0.0" fill="rgb(213, 240, 73)" opacity="0.48082736" stroke="rgb(0, 0, 0)" stroke-opacity="1.0" stroke-linecap="round" stroke-linejoin="round"/>
    <path d="M 387.3307800292969 -12.108804702758789 C 397.21575927734375 19.862308502197266 387.48681640625 29.263864517211914 354.6270751953125 33.92039489746094 C 329.5093688964844 29.183557510375977 312.4654235839844 36.61325454711914 315.9725036621094 -4.55128288269043 C 308.8440856933594 -25.16469955444336 322.2219543457031 -21.011505126953125 341.1880798339844 -14.37496280670166 C 353.3772888183594 -17.19244956970215 366.29840087890625 -20.443058013916016 387.3307800292969 -12.108804702758789" stroke-width="0.0" fill="rgb(226, 11, 19)" opacity="0.87729025" stroke="rgb(0, 0, 0)" stroke-opacity="1.0" stroke-linecap="round" stroke-linejoin="round"/>
    <path d="M 548.3613891601562 206.79779052734375 C 523.3633422851562 223.02334594726562 483.9388732910156 219.5305938720703 489.2040710449219 222.14947509765625 C 486.1110534667969 207.00302124023438 465.9145812988281 196.23394775390625 498.2624816894531 179.68704223632812 C 499.3537902832031 208.59707641601562 505.9215087890625 210.2527618408203 498.2496032714844 136.38394165039062 C 522.6221313476562 153.11557006835938 532.03271484375 166.91845703125 548.3613891601562 206.79779052734375" stroke-width="0.0" fill="rgb(225, 238, 25)" opacity="0.0066253915" stroke="rgb(0, 0, 0)" stroke-opacity="1.0" stroke-linecap="round" stroke-linejoin="round"/>
    <path d="M 276.21771240234375 283.215087890625 C 276.3328857421875 308.2954406738281 262.2549743652344 313.4418029785156 248.93731689453125 330.67486572265625 C 250.80865478515625 323.51715087890625 224.534912109375 335.8550109863281 198.17550659179688 306.11968994140625 C 213.74038696289062 293.5680236816406 247.08392333984375 290.0791320800781 271.55438232421875 284.4626159667969 C 274.0131530761719 309.5142822265625 272.295654296875 301.67962646484375 276.21771240234375 283.215087890625" stroke-width="0.0" fill="rgb(0, 179, 55)" opacity="1.0" stroke="rgb(0, 0, 0)" stroke-opacity="1.0" stroke-linecap="round" stroke-linejoin="round"/>
    <path d="M 75.38326263427734 154.66851806640625 C 68.82770538330078 131.48779296875 58.92222595214844 146.03018188476562 3.0922343730926514 141.12640380859375 C 18.47335433959961 147.16915893554688 26.158288955688477 142.4065704345703 14.271965026855469 133.23855590820312 C 36.29446029663086 131.4090576171875 72.09461975097656 119.51103210449219 61.385494232177734 128.04498291015625 C 35.80232620239258 137.796875 51.1779899597168 139.63916015625 75.38326263427734 154.66851806640625" stroke-width="0.0" fill="rgb(162, 230, 195)" opacity="0.022040345" stroke="rgb(0, 0, 0)" stroke-opacity="1.0" stroke-linecap="round" stroke-linejoin="round"/>
    <path d="M 93.307373046875 130.1880645751953 C 90.631103515625 134.119873046875 89.26372528076172 162.7408905029297 85.70281219482422 171.42979431152344 C 57.43981170654297 158.4205780029297 49.813377380371094 166.14517211914062 39.40955352783203 143.91485595703125 C 39.38676834106445 130.6484375 66.86479949951172 120.21831512451172 65.76712036132812 116.98768615722656 C 95.71163940429688 128.71141052246094 106.6695556640625 120.59183502197266 93.307373046875 130.1880645751953" stroke-width="0.0" fill="rgb(198, 234, 146)" opacity="0.09649279" stroke="rgb(0, 0, 0)" stroke-opacity="1.0" stroke-linecap="round" stroke-linejoin="round"/>
    <path d="M 345.5542907714844 118.59201049804688 C 361.24285888671875 139.11148071289062 351.0375061035156 137.94601440429688 369.743896484375 106.74748992919922 C 346.7231140136719 102.10245513916016 312.05230712890625 96.48643493652344 298.2942810058594 97.37321472167969 C 304.39727783203125 80.24401092529297 296.2679443359375 73.13109588623047 287.5262756347656 104.62336730957031 C 300.99560546875 113.85671997070312 300.08642578125 134.66195678710938 345.5542907714844 118.59201049804688" stroke-width="0.0" fill="rgb(97, 228, 93)" opacity="0.04057911" stroke="rgb(0, 0, 0)" stroke-opacity="1.0" stroke-linecap="round" stroke-linejoin="round"/>
    <path d="M 287.20941162109375 296.9518127441406 C 305.2613220214844 264.70025634765625 282.3468933105469 238.3681182861328 256.6150817871094 231.4787139892578 C 258.23126220703125 233.1728515625 262.2584533691406 260.5794372558594 262.3133544921875 235.37240600585938 C 267.6298828125 255.3808135986328 292.4971923828125 267.67474365234375 268.3130798339844 239.43258666992188 C 263.718994140625 190.58718872070312 251.94894409179688 239.533447265625 287.20941162109375 296.9518127441406" stroke-width="0.0" fill="rgb(6, 94, 59)" opacity="0.23624349" stroke="rgb(0, 0, 0)" stroke-opacity="1.0" stroke-linecap="round" stroke-linejoin="round"/>
    <path d="M 364.7493896484375 258.4351806640625 C 372.3197021484375 228.1210479736328 344.0859680175781 218.025634765625 340.83349609375 250.81790161132812 C 295.5661315917969 276.0025329589844 283.9705505371094 258.1896057128906 291.80712890625 222.88763427734375 C 337.8301696777344 210.54263305664062 335.770751953125 205.39920043945312 336.1885986328125 221.77906799316406 C 339.3785400390625 218.4636993408203 341.63690185546875 234.29367065429688 364.7493896484375 258.4351806640625" stroke-width="0.0" fill="rgb(99, 134, 47)" opacity="0.014909111" stroke="rgb(0, 0, 0)" stroke-opacity="1.0" stroke-linecap="round" stroke-linejoin="round"/>
    <path d="M 178.33641052246094 250.8144073486328 C 182.1208038330078 261.7838439941406 181.9319610595703 271.6589660644531 194.7841339111328 291.7366943359375 C 227.98167419433594 255.0205535888672 239.27197265625 254.9658966064453 193.68894958496094 280.3301086425781 C 161.67852783203125 280.7973327636719 199.8839569091797 269.5159912109375 195.24786376953125 237.03945922851562 C 177.69647216796875 234.79336547851562 170.26625061035156 248.5940399169922 178.33641052246094 250.8144073486328" stroke-width="0.0" fill="rgb(74, 217, 196)" opacity="0.0015584484" stroke="rgb(0, 0, 0)" stroke-opacity="1.0" stroke-linecap="round" stroke-linejoin="round"/>
    <path d="M 216.1466827392578 244.24217224121094 C 186.37757873535156 232.6033935546875 160.42897033691406 221.28402709960938 159.65777587890625 257.5301818847656 C 173.9969482421875 260.92742919921875 184.47813415527344 237.5236053466797 209.2641143798828 269.5477600097656 C 244.09498596191406 252.97842407226562 236.6425323486328 226.43963623046875 182.95249938964844 233.95574951171875 C 180.9187774658203 232.43157958984375 204.89280700683594 241.00021362304688 216.1466827392578 244.24217224121094" stroke-width="0.0" fill="rgb(213, 28, 30)" opacity="0.91361463" stroke="rgb(0, 0, 0)" stroke-opacity="1.0" stroke-linecap="round" stroke-linejoin="round"/>
    <path d="M 258.3394775390625 242.42529296875 C 292.4411315917969 273.464599609375 283.189697265625 278.46875 295.433349609375 273.8568420410156 C 321.78558349609375 247.839111328125 279.9814758300781 233.64781188964844 265.5402526855469 215.63548278808594 C 266.4708557128906 233.19078063964844 257.6563720703125 239.6781463623047 296.0400085449219 242.97695922851562 C 288.47900390625 208.68814086914062 276.6448974609375 201.5328369140625 258.3394775390625 242.42529296875" stroke-width="0.0" fill="rgb(19, 176, 86)" opacity="0.18571746" stroke="rgb(0, 0, 0)" stroke-opacity="1.0" stroke-linecap="round" stroke-linejoin="round"/>
    <path d="M 88.5545425415039 143.53541564941406 C 85.95785522460938 158.82884216308594 70.42536163330078 157.72279357910156 81.76770782470703 153.76548767089844 C 67.29978942871094 148.9409942626953 57.878719329833984 176.0384979248047 51.984371185302734 166.7486114501953 C 30.943716049194336 124.22509765625 45.1893424987793 135.5130157470703 43.52565383911133 155.48912048339844 C 43.797027587890625 152.78700256347656 83.9282455444336 150.36972045898438 88.5545425415039 143.53541564941406" stroke-width="0.0" fill="rgb(184, 233, 141)" opacity="0.0027769632" stroke="rgb(0, 0, 0)" stroke-opacity="1.0" stroke-linecap="round" stroke-linejoin="round"/>
    <path d="M 219.4164581298828 44.93694305419922 C 206.02410888671875 64.38605499267578 189.53866577148438 71.36954498291016 196.2986602783203 67.94063568115234 C 199.50119018554688 80.33084869384766 174.5254669189453 86.93944549560547 168.56893920898438 78.82392883300781 C 177.8033447265625 63.3563346862793 195.9097900390625 59.12385940551758 193.1787872314453 53.54265213012695 C 214.73696899414062 46.731998443603516 241.69285583496094 56.481319427490234 219.4164581298828 44.93694305419922" stroke-width="0.0" fill="rgb(172, 217, 54)" opacity="0.019813593" stroke="rgb(0, 0, 0)" stroke-opacity="1.0" stroke-linecap="round" stroke-linejoin="round"/>
    <path d="M 147.5830078125 247.12167358398438 C 160.5430908203125 261.6173400878906 154.64891052246094 263.333984375 146.8860626220703 256.5737609863281 C 126.09587097167969 268.6332092285156 132.51255798339844 248.0339813232422 127.29652404785156 217.93228149414062 C 87.5587387084961 215.1497344970703 120.95809173583984 221.0242919921875 146.16110229492188 208.76687622070312 C 138.13365173339844 217.7693328857422 149.1452178955078 223.46304321289062 147.5830078125 247.12167358398438" stroke-width="0.0" fill="rgb(66, 245, 123)" opacity="0.016498808" stroke="rgb(0, 0, 0)" stroke-opacity="1.0" stroke-linecap="round" stroke-linejoin="round"/>
    <path d="M 277.1783447265625 -6.984586238861084 C 279.8703918457031 30.12009620666504 291.6329650878906 50.55486297607422 259.5395202636719 28.74297332763672 C 232.7144012451172 12.22057056427002 230.65927124023438 23.342330932617188 245.14698791503906 6.632837772369385 C 238.4222412109375 -5.599786281585693 247.8948516845703 -12.281970024108887 261.3177490234375 -18.197731018066406 C 295.8955993652344 -14.31855583190918 300.08050537109375 -13.415173530578613 277.1783447265625 -6.984586238861084" stroke-width="0.0" fill="rgb(243, 243, 141)" opacity="0.13227978" stroke="rgb(0, 0, 0)" stroke-opacity="1.0" stroke-linecap="round" stroke-linejoin="round"/>
    <path d="M 500.96112060546875 231.98849487304688 C 508.21063232421875 270.87994384765625 520.9745483398438 259.33837890625 543.1151123046875 249.60072326660156 C 518.662841796875 254.55821228027344 508.5377197265625 255.46969604492188 524.8345336914062 256.083984375 C 532.5611572265625 252.4079132080078 508.43914794921875 241.6635284423828 485.7533874511719 242.97117614746094 C 485.9426574707031 226.92709350585938 493.7181701660156 208.88302612304688 500.96112060546875 231.98849487304688" stroke-width="0.0" fill="rgb(231, 178, 73)" opacity="0.025956027" stroke="rgb(0, 0, 0)" stroke-opacity="1.0" stroke-linecap="round" stroke-linejoin="round"/>
    <path d="M 255.22042846679688 424.82318115234375 C 254.7913055419922 435.4872131347656 275.34967041015625 433.07391357421875 247.58355712890625 409.103759765625 C 235.32583618164062 413.154052734375 215.7360382080078 410.2804870605469 218.99778747558594 407.34222412109375 C 214.1003875732422 373.8050231933594 225.04710388183594 372.7563781738281 235.28567504882812 383.6389465332031 C 246.1841278076172 383.3503723144531 255.82418823242188 384.05560302734375 255.22042846679688 424.82318115234375" stroke-width="0.0" fill="rgb(61, 33, 0)" opacity="0.26209897" stroke="rgb(0, 0, 0)" stroke-opacity="1.0" stroke-linecap="round" stroke-linejoin="round"/>
    <path d="M 68.82307434082031 97.27410888671875 C 56.83757781982422 103.48217010498047 64.92201232910156 111.54795837402344 77.55825805664062 131.32186889648438 C 58.107688903808594 126.65827941894531 48.504695892333984 119.323486328125 53.49231719970703 102.4200210571289 C 69.36968994140625 104.70265197753906 76.40676879882812 97.85862731933594 69.87145233154297 84.14142608642578 C 77.49030303955078 89.79959106445312 78.69222259521484 101.38802337646484 68.82307434082031 97.27410888671875" stroke-width="0.0" fill="rgb(205, 218, 131)" opacity="0.0" stroke="rgb(0, 0, 0)" stroke-opacity="1.0" stroke-linecap="round" stroke-linejoin="round"/>
    <path d="M 470.4367980957031 239.61045837402344 C 483.1808776855469 249.23568725585938 465.3156433105469 250.87442016601562 470.0544738769531 235.9054718017578 C 455.6568298339844 237.7325897216797 441.8941650390625 244.09881591796875 442.5439147949219 249.21945190429688 C 441.9232482910156 225.56825256347656 444.0318603515625 215.64686584472656 448.324462890625 209.38519287109375 C 455.0644836425781 220.1320343017578 458.70147705078125 229.60968017578125 470.4367980957031 239.61045837402344" stroke-width="0.0" fill="rgb(187, 217, 20)" opacity="0.015014713" stroke="rgb(0, 0, 0)" stroke-opacity="1.0" stroke-linecap="round" stroke-linejoin="round"/>
    <path d="M 377.6243591308594 226.74801635742188 C 359.7698669433594 211.55833435058594 357.170654296875 204.9087677001953 380.3630065917969 246.8745880126953 C 349.38189697265625 245.21165466308594 330.4205017089844 221.75216674804688 317.37054443359375 208.01907348632812 C 305.13397216796875 187.34567260742188 324.8356628417969 196.90597534179688 358.2817687988281 193.197265625 C 353.99078369140625 160.4897003173828 362.66229248046875 183.7716522216797 377.6243591308594 226.74801635742188" stroke-width="0.0" fill="rgb(5, 171, 41)" opacity="0.030096237" stroke="rgb(0, 0, 0)" stroke-opacity="1.0" stroke-linecap="round" stroke-linejoin="round"/>
    <path d="M 127.89720153808594 435.72894287109375 C 97.39016723632812 471.7964172363281 68.7650146484375 448.6453857421875 73.49176025390625 466.9918212890625 C 76.84715270996094 457.74456787109375 41.05855178833008 467.1991882324219 59.43912887573242 456.61688232421875 C 75.04055786132812 443.4702453613281 58.31523895263672 428.2012634277344 69.20928955078125 425.52099609375 C 86.9692153930664 424.93890380859375 120.35707092285156 418.0424499511719 127.89720153808594 435.72894287109375" stroke-width="0.0" fill="rgb(109, 187, 165)" opacity="0.0" stroke="rgb(0, 0, 0)" stroke-opacity="1.0" stroke-linecap="round" stroke-linejoin="round"/>
    <path d="M 447.06005859375 45.40251159667969 C 457.8953857421875 83.2659912109375 441.64764404296875 76.52537536621094 438.6043701171875 59.53992462158203 C 452.11181640625 60.643890380859375 455.3441467285156 34.939842224121094 439.1500244140625 50.971248626708984 C 427.7913513183594 64.39968872070312 449.478759765625 59.992393493652344 444.8110656738281 66.20084381103516 C 431.7207336425781 57.47541046142578 432.0851745605469 51.60139083862305 447.06005859375 45.40251159667969" stroke-width="0.0" fill="rgb(225, 239, 124)" opacity="0.0" stroke="rgb(0, 0, 0)" stroke-opacity="1.0" stroke-linecap="round" stroke-linejoin="round"/>
    <path d="M 340.3824462890625 168.44581604003906 C 329.14019775390625 231.52792358398438 309.21588134765625 224.11917114257812 298.73968505859375 191.83419799804688 C 310.71295166015625 176.13430786132812 316.8813781738281 163.18331909179688 292.6543884277344 261.2110290527344 C 263.27276611328125 199.57659912109375 276.12408447265625 145.8179168701172 257.2650146484375 161.29202270507812 C 295.550048828125 159.1531982421875 335.306884765625 141.3868408203125 340.3824462890625 168.44581604003906" stroke-width="0.0" fill="rgb(108, 158, 46)" opacity="0.0038554198" stroke="rgb(0, 0, 0)" stroke-opacity="1.0" stroke-linecap="round" stroke-linejoin="round"/>
    <path d="M 462.7816467285156 477.897705078125 C 460.18096923828125 488.4494934082031 443.4490966796875 490.0924072265625 431.5771789550781 495.1440734863281 C 433.22723388671875 510.5191345214844 417.5675964355469 512.2737426757812 432.787841796875 510.2142028808594 C 421.515380859375 483.22412109375 448.3933410644531 475.1807556152344 454.3215026855469 484.5787658691406 C 467.7518310546875 472.5819091796875 490.61114501953125 495.1697692871094 462.7816467285156 477.897705078125" stroke-width="0.0" fill="rgb(241, 181, 47)" opacity="0.013821546" stroke="rgb(0, 0, 0)" stroke-opacity="1.0" stroke-linecap="round" stroke-linejoin="round"/>
    <path d="M 160.52772521972656 25.90972137451172 C 163.07456970214844 24.407217025756836 164.0993194580078 64.28587341308594 150.16847229003906 71.11453247070312 C 119.85202026367188 59.4084587097168 117.89146423339844 42.741722106933594 132.64759826660156 40.153934478759766 C 129.58132934570312 41.58857345581055 111.7675552368164 31.221256256103516 148.07241821289062 62.868370056152344 C 149.4367218017578 31.958438873291016 141.5517120361328 28.839574813842773 160.52772521972656 25.90972137451172" stroke-width="0.0" fill="rgb(208, 232, 119)" opacity="0.035785403" stroke="rgb(0, 0, 0)" stroke-opacity="1.0" stroke-linecap="round" stroke-linejoin="round"/>
    <path d="M 192.7869110107422 357.34912109375 C 193.07435607910156 352.71905517578125 187.32925415039062 367.01263427734375 203.77235412597656 358.6253967285156 C 191.8491668701172 360.0986633300781 170.3554229736328 359.8510437011719 170.3920135498047 361.6592712402344 C 186.6034393310547 330.8546447753906 186.43003845214844 323.0376281738281 168.76393127441406 327.0516052246094 C 200.75967407226562 320.1663513183594 200.44691467285156 336.6346435546875 192.7869110107422 357.34912109375" stroke-width="0.0" fill="rgb(158, 204, 102)" opacity="0.009921982" stroke="rgb(0, 0, 0)" stroke-opacity="1.0" stroke-linecap="round" stroke-linejoin="round"/>
    <path d="M 441.4465637207031 443.8545227050781 C 416.3545227050781 444.2651062011719 395.1445617675781 458.67401123046875 366.40948486328125 454.8842468261719 C 369.7413330078125 440.5884094238281 384.302001953125 440.9476013183594 396.57940673828125 446.3486328125 C 377.3699035644531 417.7974548339844 396.2388610839844 438.7986145019531 409.3846435546875 431.7431335449219 C 412.6501770019531 427.29217529296875 424.0498962402344 416.43035888671875 441.4465637207031 443.8545227050781" stroke-width="0.0" fill="rgb(214, 239, 112)" opacity="0.0024501425" stroke="rgb(0, 0, 0)" stroke-opacity="1.0" stroke-linecap="round" stroke-linejoin="round"/>
    <path d="M 150.778564453125 280.8680419921875 C 172.15223693847656 310.61944580078125 144.1065216064453 333.4002685546875 132.97361755371094 296.80572509765625 C 128.48902893066406 285.22186279296875 112.69397735595703 291.3157653808594 113.36405181884766 276.68231201171875 C 94.75265502929688 256.27081298828125 101.80491638183594 236.50624084472656 112.3543701171875 240.5494384765625 C 142.1366729736328 226.574462890625 120.56456756591797 238.69955444335938 150.778564453125 280.8680419921875" stroke-width="0.0" fill="rgb(85, 252, 173)" opacity="0.027552621" stroke="rgb(0, 0, 0)" stroke-opacity="1.0" stroke-linecap="round" stroke-linejoin="round"/>
    <path d="M 165.90023803710938 446.5450439453125 C 177.41197204589844 461.32440185546875 150.9079132080078 466.3617248535156 125.41646575927734 480.6451721191406 C 108.92987060546875 445.0038757324219 115.96005249023438 442.2109069824219 124.06551361083984 445.68731689453125 C 88.0736083984375 444.62115478515625 97.45796966552734 446.1606750488281 128.3831787109375 419.6282958984375 C 122.1978988647461 417.0437927246094 129.3968048095703 431.6353454589844 165.90023803710938 446.5450439453125" stroke-width="0.0" fill="rgb(158, 211, 152)" opacity="0.01592844" stroke="rgb(0, 0, 0)" stroke-opacity="1.0" stroke-linecap="round" stroke-linejoin="round"/>
    <path d="M 243.51779174804688 73.61209106445312 C 239.9998779296875 55.72795867919922 243.30653381347656 42.300907135009766 231.20333862304688 47.05863952636719 C 254.28118896484375 26.30518341064453 267.34637451171875 24.054767608642578 265.23919677734375 12.122223854064941 C 216.77108764648438 21.662248611450195 255.57962036132812 21.272171020507812 251.1085662841797 26.344276428222656 C 255.0550537109375 6.235229969024658 240.7902069091797 45.47300338745117 243.51779174804688 73.61209106445312" stroke-width="0.0" fill="rgb(209, 208, 65)" opacity="0.14944679" stroke="rgb(0, 0, 0)" stroke-opacity="1.0" stroke-linecap="round" stroke-linejoin="round"/>
    <path d="M 158.69491577148438 359.71881103515625 C 106.73182678222656 333.37841796875 106.39009857177734 334.5450134277344 121.34907531738281 350.39385986328125 C 131.2857208251953 334.0473937988281 125.00598907470703 331.2960510253906 126.29793548583984 361.2587585449219 C 116.71322631835938 320.7869873046875 96.6880874633789 323.0943908691406 116.39903259277344 328.7132873535156 C 124.06558990478516 309.5485534667969 140.3682403564453 329.6338806152344 158.69491577148438 359.71881103515625" stroke-width="0.0" fill="rgb(167, 216, 138)" opacity="0.04563231" stroke="rgb(0, 0, 0)" stroke-opacity="1.0" stroke-linecap="round" stroke-linejoin="round"/>
    <path d="M 493.4777526855469 209.12977600097656 C 522.9201049804688 211.33775329589844 526.3981323242188 227.94837951660156 503.00421142578125 227.0128173828125 C 500.6249084472656 229.3586883544922 478.5944519042969 216.90870666503906 480.6082763671875 212.69918823242188 C 469.2592468261719 226.43408203125 490.5878601074219 212.4870147705078 496.1346130371094 202.4400177001953 C 491.55303955078125 225.82315063476562 488.9700927734375 237.22532653808594 493.4777526855469 209.12977600097656" stroke-width="0.0" fill="rgb(251, 189, 25)" opacity="0.08695967" stroke="rgb(0, 0, 0)" stroke-opacity="1.0" stroke-linecap="round" stroke-linejoin="round"/>
    <path d="M 446.95941162109375 222.1820068359375 C 436.7841491699219 247.1800079345703 446.1111145019531 235.2953338623047 407.8738098144531 227.11349487304688 C 414.89080810546875 255.12840270996094 404.5139465332031 266.0781555175781 404.17913818359375 270.0442810058594 C 437.1520080566406 271.0314025878906 423.7337341308594 254.56570434570312 417.6083068847656 230.27932739257812 C 440.46173095703125 233.91668701171875 457.8848876953125 224.8877716064453 446.95941162109375 222.1820068359375" stroke-width="0.0" fill="rgb(180, 200, 18)" opacity="0.0" stroke="rgb(0, 0, 0)" stroke-opacity="1.0" stroke-linecap="round" stroke-linejoin="round"/>
    <path d="M 519.7376098632812 99.62149810791016 C 506.14453125 92.19312286376953 502.1876525878906 99.23759460449219 488.5148620605469 86.16160583496094 C 471.1821594238281 105.06495666503906 457.1540222167969 93.91426849365234 456.4740295410156 49.710880279541016 C 467.8629150390625 50.00453567504883 476.7774658203125 37.88212585449219 485.0525817871094 63.47018051147461 C 482.0387268066406 71.83409118652344 516.3729248046875 75.97895050048828 519.7376098632812 99.62149810791016" stroke-width="0.0" fill="rgb(230, 208, 129)" opacity="0.0" stroke="rgb(0, 0, 0)" stroke-opacity="1.0" stroke-linecap="round" stroke-linejoin="round"/>
    <path d="M 51.13787078857422 198.84561157226562 C 43.04233169555664 202.10960388183594 52.589290618896484 219.85769653320312 45.933509826660156 202.1956329345703 C 27.735139846801758 201.25848388671875 19.15376091003418 190.5015869140625 20.686159133911133 169.455322265625 C 21.920103073120117 182.031982421875 18.583383560180664 176.50384521484375 15.388236999511719 179.71214294433594 C 41.88664627075195 165.815185546875 52.25666809082031 171.050048828125 51.13787078857422 198.84561157226562" stroke-width="0.0" fill="rgb(191, 210, 83)" opacity="0.1286729" stroke="rgb(0, 0, 0)" stroke-opacity="1.0" stroke-linecap="round" stroke-linejoin="round"/>
    <path d="M 160.55233764648438 333.5182189941406 C 175.530029296875 342.6350402832031 133.14352416992188 344.2498474121094 122.77998352050781 354.67315673828125 C 119.69335174560547 326.6728210449219 122.0361099243164 317.58642578125 86.39663696289062 337.2869873046875 C 65.27490234375 326.47528076171875 81.24864959716797 316.24310302734375 93.04950714111328 320.47601318359375 C 113.73442077636719 324.3265380859375 127.96463012695312 323.77056884765625 160.55233764648438 333.5182189941406" stroke-width="0.0" fill="rgb(173, 213, 149)" opacity="0.0030744066" stroke="rgb(0, 0, 0)" stroke-opacity="1.0" stroke-linecap="round" stroke-linejoin="round"/>
    <path d="M 41.10099411010742 90.6217041015625 C 44.286102294921875 99.43907165527344 35.43513870239258 110.0539779663086 24.890050888061523 108.4327621459961 C 18.147676467895508 109.60801696777344 10.832176208496094 96.92707824707031 17.641279220581055 85.22711181640625 C 7.701392650604248 74.47525787353516 16.7983455657959 72.97605895996094 21.814537048339844 57.25912857055664 C 50.29204559326172 69.1686019897461 48.668121337890625 83.80519104003906 41.10099411010742 90.6217041015625" stroke-width="0.0" fill="rgb(189, 255, 100)" opacity="0.07952998" stroke="rgb(0, 0, 0)" stroke-opacity="1.0" stroke-linecap="round" stroke-linejoin="round"/>
  </g>
</svg>
