<?xml version="1.0" ?>
<svg xmlns="http://www.w3.org/2000/svg" version="1.1" width="512" height="512">
  <defs/>
  <g>
    <path d="M 516.6539306640625 448.3481140136719 C 434.4058532714844 447.7038879394531 393.97711181640625 559.6343383789062 515.7920532226562 554.9375610351562 C 583.8345336914062 434.9356689453125 524.4655151367188 469.1650695800781 480.4612121582031 469.9533386230469 C 448.4013671875 466.4150695800781 465.3440856933594 450.3621826171875 491.1441955566406 446.9806823730469 C 521.4633178710938 421.1666259765625 554.0269775390625 426.0756530761719 516.6539306640625 448.3481140136719" stroke-width="0.0" fill="rgb(46, 44, 48)" opacity="0.9330687" stroke="rgb(0, 0, 0)" stroke-opacity="1.0" stroke-linecap="round" stroke-linejoin="round"/>
    <path d="M 268.14697265625 513.6522216796875 C 270.34185791015625 539.4949951171875 194.12738037109375 560.3314819335938 132.4841766357422 419.01318359375 C 7.5932087898254395 402.4758605957031 134.0582275390625 386.80133056640625 -44.25248336791992 345.29315185546875 C 36.58567428588867 204.7497100830078 -47.54963302612305 276.91168212890625 -37.43262481689453 181.86672973632812 C 103.08360290527344 71.81224060058594 216.25283813476562 210.2394561767578 268.14697265625 513.6522216796875" stroke-width="0.0" fill="rgb(50, 197, 0)" opacity="0.99974734" stroke="rgb(0, 0, 0)" stroke-opacity="1.0" stroke-linecap="round" stroke-linejoin="round"/>
    <path d="M 428.15338134765625 128.2918701171875 C 464.68560791015625 326.990966796875 429.2878112792969 329.5553283691406 294.09356689453125 333.9874572753906 C 158.2337646484375 338.2896423339844 101.63899993896484 308.1708068847656 231.89524841308594 87.14154815673828 C 156.434814453125 102.77500915527344 203.3592987060547 54.44895935058594 396.2007141113281 37.338470458984375 C 425.42669677734375 87.0909423828125 468.1019287109375 40.780757904052734 428.15338134765625 128.2918701171875" stroke-width="0.0" fill="rgb(110, 196, 9)" opacity="0.96037465" stroke="rgb(0, 0, 0)" stroke-opacity="1.0" stroke-linecap="round" stroke-linejoin="round"/>
    <path d="M 365.3303527832031 147.272705078125 C 361.56805419921875 341.9988708496094 245.4219512939453 402.94366455078125 172.98536682128906 324.64794921875 C 60.26327896118164 205.59092712402344 -10.888972282409668 272.9533386230469 54.31240463256836 172.91676330566406 C 62.325889587402344 91.67341613769531 170.10536193847656 105.2720718383789 148.71812438964844 24.8718318939209 C 205.96336364746094 -27.50464630126953 251.06231689453125 8.891860008239746 365.3303527832031 147.272705078125" stroke-width="0.0" fill="rgb(170, 151, 149)" opacity="0.96967375" stroke="rgb(0, 0, 0)" stroke-opacity="1.0" stroke-linecap="round" stroke-linejoin="round"/>
    <path d="M 457.8037109375 399.35546875 C 379.8134460449219 510.4388732910156 363.06280517578125 338.7513732910156 430.9793395996094 451.4715881347656 C 227.823486328125 501.756591796875 310.28704833984375 476.5525817871094 309.386962890625 416.0677795410156 C 227.8764190673828 251.122314453125 279.4588623046875 321.7219543457031 306.83929443359375 172.8554229736328 C 455.8197937011719 72.63347625732422 558.2034301757812 135.27438354492188 457.8037109375 399.35546875" stroke-width="0.0" fill="rgb(163, 116, 198)" opacity="0.65217847" stroke="rgb(0, 0, 0)" stroke-opacity="1.0" stroke-linecap="round" stroke-linejoin="round"/>
    <path d="M 520.5625 217.15000915527344 C 549.2262573242188 321.760009765625 480.2275390625 242.22439575195312 575.8539428710938 347.2717590332031 C 446.3976745605469 420.31622314453125 268.1842956542969 327.126953125 478.6600646972656 195.13612365722656 C 316.8511657714844 190.6904296875 363.80517578125 106.43414306640625 410.47491455078125 124.10465240478516 C 450.1413269042969 195.97181701660156 497.7200622558594 156.32437133789062 520.5625 217.15000915527344" stroke-width="0.0" fill="rgb(5, 109, 27)" opacity="0.90550447" stroke="rgb(0, 0, 0)" stroke-opacity="1.0" stroke-linecap="round" stroke-linejoin="round"/>
    <path d="M 420.6556701660156 211.63299560546875 C 321.4112548828125 270.8069763183594 322.5026550292969 275.1339416503906 283.7970886230469 295.467041015625 C 241.73370361328125 314.79583740234375 292.7062072753906 345.08111572265625 65.28225708007812 203.91526794433594 C 325.2576904296875 202.12718200683594 200.96853637695312 304.0673522949219 282.4468078613281 253.8754425048828 C 344.65740966796875 214.90380859375 431.3914489746094 182.2235870361328 420.6556701660156 211.63299560546875" stroke-width="0.0" fill="rgb(18, 247, 1)" opacity="0.9468877" stroke="rgb(0, 0, 0)" stroke-opacity="1.0" stroke-linecap="round" stroke-linejoin="round"/>
    <path d="M 375.9261474609375 202.27369689941406 C 380.056640625 220.11410522460938 350.48486328125 209.299560546875 339.5601806640625 218.86453247070312 C 304.9593200683594 218.58522033691406 325.0672607421875 209.64474487304688 275.74932861328125 220.75637817382812 C 318.7620544433594 53.59227752685547 248.9667205810547 185.92300415039062 370.80987548828125 138.4566192626953 C 416.5973815917969 167.55819702148438 542.0921020507812 213.09866333007812 375.9261474609375 202.27369689941406" stroke-width="0.0" fill="rgb(47, 56, 126)" opacity="0.7840309" stroke="rgb(0, 0, 0)" stroke-opacity="1.0" stroke-linecap="round" stroke-linejoin="round"/>
    <path d="M 286.9183654785156 276.4172058105469 C 239.39395141601562 298.484375 263.2427673339844 288.9315185546875 240.56129455566406 273.45001220703125 C 241.4951171875 253.2343292236328 212.03221130371094 256.40667724609375 138.33213806152344 202.98219299316406 C 239.54869079589844 141.82591247558594 156.83840942382812 240.37277221679688 206.20889282226562 212.27061462402344 C 247.89889526367188 223.51123046875 260.81451416015625 255.61294555664062 286.9183654785156 276.4172058105469" stroke-width="0.0" fill="rgb(216, 165, 169)" opacity="0.8734132" stroke="rgb(0, 0, 0)" stroke-opacity="1.0" stroke-linecap="round" stroke-linejoin="round"/>
    <path d="M 457.8849182128906 239.9183349609375 C 273.48004150390625 326.9186096191406 558.1453857421875 250.0245361328125 460.1935119628906 374.4903869628906 C 186.60208129882812 367.9457702636719 201.71734619140625 381.97998046875 241.5644989013672 365.9388122558594 C 366.4390869140625 241.57049560546875 391.5199890136719 244.24237060546875 379.30419921875 249.87582397460938 C 395.6357421875 245.82843017578125 453.9293212890625 195.77090454101562 457.8849182128906 239.9183349609375" stroke-width="0.0" fill="rgb(35, 84, 20)" opacity="0.6386445" stroke="rgb(0, 0, 0)" stroke-opacity="1.0" stroke-linecap="round" stroke-linejoin="round"/>
    <path d="M 169.32252502441406 95.49578094482422 C 251.50193786621094 83.67610168457031 254.0255889892578 174.24481201171875 208.70301818847656 126.51973724365234 C 111.5250473022461 147.16864013671875 -45.36054229736328 290.05950927734375 72.2678451538086 40.53483581542969 C 318.896484375 68.84025573730469 264.5292663574219 172.5356903076172 143.95449829101562 38.87060546875 C 342.7193603515625 -25.71170425415039 226.04991149902344 63.39780044555664 169.32252502441406 95.49578094482422" stroke-width="0.0" fill="rgb(63, 117, 51)" opacity="0.8503347" stroke="rgb(0, 0, 0)" stroke-opacity="1.0" stroke-linecap="round" stroke-linejoin="round"/>
    <path d="M 149.47023010253906 391.8970031738281 C 136.35159301757812 367.704833984375 160.72132873535156 370.3381652832031 131.10699462890625 454.90045166015625 C 110.32865142822266 420.9674072265625 115.6031723022461 426.7601318359375 128.92074584960938 352.0083923339844 C 156.65725708007812 320.3927917480469 137.1253662109375 328.9914855957031 150.6473388671875 288.8080749511719 C 117.540283203125 349.4412536621094 153.64085388183594 344.20672607421875 149.47023010253906 391.8970031738281" stroke-width="0.0" fill="rgb(106, 157, 23)" opacity="0.05587869" stroke="rgb(0, 0, 0)" stroke-opacity="1.0" stroke-linecap="round" stroke-linejoin="round"/>
    <path d="M 401.552734375 53.341732025146484 C 401.4275207519531 80.69942474365234 425.4746398925781 93.1959457397461 391.8198547363281 76.9305419921875 C 361.81793212890625 68.46334838867188 358.3580627441406 46.77351379394531 370.1594543457031 73.99383544921875 C 350.5558166503906 63.492942810058594 390.2583312988281 65.00849914550781 405.5683288574219 26.239694595336914 C 391.9378662109375 30.54613494873047 370.3995361328125 39.43344497680664 401.552734375 53.341732025146484" stroke-width="0.0" fill="rgb(172, 89, 121)" opacity="0.11849674" stroke="rgb(0, 0, 0)" stroke-opacity="1.0" stroke-linecap="round" stroke-linejoin="round"/>
    <path d="M 550.65673828125 69.28262329101562 C 531.2897338867188 105.163818359375 499.1462097167969 84.79009246826172 472.1377868652344 54.88624572753906 C 462.1037292480469 40.50151443481445 459.511474609375 34.377174377441406 440.3750915527344 21.006240844726562 C 434.8175354003906 -10.512948036193848 448.4152526855469 -31.171594619750977 467.1452941894531 -51.14058303833008 C 509.6241455078125 -24.588525772094727 526.9865112304688 -25.43280601501465 550.65673828125 69.28262329101562" stroke-width="0.0" fill="rgb(57, 38, 66)" opacity="0.8566667" stroke="rgb(0, 0, 0)" stroke-opacity="1.0" stroke-linecap="round" stroke-linejoin="round"/>
    <path d="M 347.65386962890625 493.3742980957031 C 330.7356872558594 522.492431640625 361.0638122558594 490.67523193359375 316.7140197753906 517.9495239257812 C 153.9310302734375 554.037353515625 137.58831787109375 468.29534912109375 163.90606689453125 469.7118225097656 C 216.0426483154297 408.3189697265625 215.42674255371094 360.15997314453125 316.6037902832031 329.93463134765625 C 456.47528076171875 304.20660400390625 419.2295837402344 273.8953552246094 347.65386962890625 493.3742980957031" stroke-width="0.0" fill="rgb(84, 187, 3)" opacity="0.9980196" stroke="rgb(0, 0, 0)" stroke-opacity="1.0" stroke-linecap="round" stroke-linejoin="round"/>
    <path d="M 233.97647094726562 273.7928466796875 C 281.2320556640625 329.9222717285156 273.7451171875 305.08917236328125 248.8002166748047 344.1292419433594 C 154.20578002929688 266.030029296875 49.941165924072266 218.15452575683594 73.88606262207031 225.79248046875 C 104.9864273071289 191.90225219726562 181.1105499267578 271.391357421875 250.19467163085938 303.4579772949219 C 237.73243713378906 275.0458679199219 200.3649444580078 267.490234375 233.97647094726562 273.7928466796875" stroke-width="0.0" fill="rgb(196, 62, 131)" opacity="0.31481612" stroke="rgb(0, 0, 0)" stroke-opacity="1.0" stroke-linecap="round" stroke-linejoin="round"/>
    <path d="M 412.9685363769531 437.3227233886719 C 400.9505920410156 472.6667785644531 307.1884765625 441.94134521484375 350.3084716796875 495.0939025878906 C 367.2577209472656 467.4527893066406 365.886474609375 457.50732421875 312.4518127441406 524.31884765625 C 252.7586669921875 406.74114990234375 266.9108581542969 350.3292541503906 375.1416015625 325.01593017578125 C 384.6780090332031 407.34259033203125 395.51611328125 379.0062561035156 412.9685363769531 437.3227233886719" stroke-width="0.0" fill="rgb(35, 75, 56)" opacity="0.58510876" stroke="rgb(0, 0, 0)" stroke-opacity="1.0" stroke-linecap="round" stroke-linejoin="round"/>
    <path d="M 316.98236083984375 118.87117767333984 C 416.2172546386719 123.83626556396484 377.6661376953125 158.1375732421875 303.8994445800781 158.0252227783203 C 235.839599609375 126.0556869506836 273.7525329589844 156.65415954589844 277.4375 102.5986557006836 C 261.22723388671875 47.650455474853516 308.1517333984375 8.36130428314209 298.7759094238281 100.80147552490234 C 316.6970520019531 111.89442443847656 383.8267822265625 90.9142074584961 316.98236083984375 118.87117767333984" stroke-width="0.0" fill="rgb(88, 109, 149)" opacity="0.77613765" stroke="rgb(0, 0, 0)" stroke-opacity="1.0" stroke-linecap="round" stroke-linejoin="round"/>
    <path d="M 432.3129577636719 296.2141418457031 C 283.1147155761719 368.9007568359375 296.35504150390625 410.9240417480469 292.3734130859375 397.135009765625 C 231.81417846679688 439.2998046875 214.04739379882812 357.4563293457031 85.04794311523438 304.2305908203125 C 122.72017669677734 260.0782775878906 145.87416076660156 287.8136901855469 256.36822509765625 355.95269775390625 C 404.9026794433594 232.40966796875 550.7391357421875 167.6582794189453 432.3129577636719 296.2141418457031" stroke-width="0.0" fill="rgb(35, 191, 8)" opacity="0.9848295" stroke="rgb(0, 0, 0)" stroke-opacity="1.0" stroke-linecap="round" stroke-linejoin="round"/>
    <path d="M 377.58038330078125 214.80996704101562 C 364.1529235839844 221.3394317626953 389.9668273925781 204.58009338378906 396.6793518066406 237.920654296875 C 389.5081481933594 235.43865966796875 363.2073974609375 263.423095703125 302.10565185546875 257.4541320800781 C 343.58642578125 205.04818725585938 376.7425231933594 262.23089599609375 360.5163879394531 159.15469360351562 C 392.9726867675781 160.4272003173828 397.7032165527344 176.1300506591797 377.58038330078125 214.80996704101562" stroke-width="0.0" fill="rgb(24, 26, 112)" opacity="0.3536891" stroke="rgb(0, 0, 0)" stroke-opacity="1.0" stroke-linecap="round" stroke-linejoin="round"/>
    <path d="M 444.2601623535156 231.62005615234375 C 454.2720642089844 227.9852752685547 488.4723205566406 211.0287322998047 415.3793640136719 231.24072265625 C 324.3518981933594 294.13165283203125 328.3198547363281 278.247314453125 427.4276428222656 213.56126403808594 C 421.8298645019531 179.84889221191406 411.39105224609375 245.4320068359375 402.0951232910156 194.6383514404297 C 490.0142822265625 193.07760620117188 460.623291015625 173.2029266357422 444.2601623535156 231.62005615234375" stroke-width="0.0" fill="rgb(224, 113, 198)" opacity="0.7749191" stroke="rgb(0, 0, 0)" stroke-opacity="1.0" stroke-linecap="round" stroke-linejoin="round"/>
    <path d="M 138.41677856445312 317.1033020019531 C 132.4447021484375 306.8858642578125 139.00430297851562 327.92596435546875 89.47769927978516 293.2864074707031 C 58.09506607055664 276.6767272949219 105.19857025146484 285.8984680175781 -18.05265998840332 238.917236328125 C 28.005746841430664 236.27716064453125 40.94290542602539 215.17007446289062 102.7648696899414 251.04049682617188 C 138.77845764160156 286.2533874511719 169.77647399902344 305.20196533203125 138.41677856445312 317.1033020019531" stroke-width="0.0" fill="rgb(9, 213, 55)" opacity="0.35785463" stroke="rgb(0, 0, 0)" stroke-opacity="1.0" stroke-linecap="round" stroke-linejoin="round"/>
    <path d="M 47.713836669921875 46.5216178894043 C 43.16933059692383 45.8347053527832 27.08062744140625 34.02079391479492 44.41266632080078 43.447330474853516 C 84.8141860961914 16.766494750976562 98.43433380126953 -33.39524459838867 -22.782716751098633 -45.015838623046875 C -43.799713134765625 129.3884735107422 -8.05339241027832 81.84508514404297 26.0009708404541 72.5924072265625 C 65.14386749267578 63.190818786621094 46.16482162475586 64.35404968261719 47.713836669921875 46.5216178894043" stroke-width="0.0" fill="rgb(12, 6, 25)" opacity="0.7168373" stroke="rgb(0, 0, 0)" stroke-opacity="1.0" stroke-linecap="round" stroke-linejoin="round"/>
    <path d="M 310.4967956542969 154.95361328125 C 326.53070068359375 188.7177276611328 338.0374450683594 233.28656005859375 310.7725830078125 245.87583923339844 C 231.73484802246094 272.3773193359375 253.25555419921875 283.3282470703125 248.82736206054688 146.50950622558594 C 286.4674377441406 174.24871826171875 280.21527099609375 195.18963623046875 278.1775817871094 117.28297424316406 C 298.3440246582031 172.50917053222656 289.266357421875 181.45162963867188 310.4967956542969 154.95361328125" stroke-width="0.0" fill="rgb(32, 65, 142)" opacity="0.7794082" stroke="rgb(0, 0, 0)" stroke-opacity="1.0" stroke-linecap="round" stroke-linejoin="round"/>
    <path d="M 162.11964416503906 489.7731018066406 C 126.61536407470703 470.04400634765625 131.1219024658203 454.06524658203125 149.1611328125 452.2475280761719 C 157.6864776611328 479.63897705078125 150.07162475585938 467.552734375 148.20606994628906 449.34112548828125 C 113.60150146484375 434.14251708984375 92.77408599853516 391.1121826171875 122.10163116455078 407.041748046875 C 168.64212036132812 462.1009216308594 168.44912719726562 494.87725830078125 162.11964416503906 489.7731018066406" stroke-width="0.0" fill="rgb(184, 108, 120)" opacity="0.10941855" stroke="rgb(0, 0, 0)" stroke-opacity="1.0" stroke-linecap="round" stroke-linejoin="round"/>
    <path d="M 157.3557891845703 244.29644775390625 C 157.46554565429688 250.9414825439453 75.67726135253906 236.82830810546875 129.65423583984375 228.4068603515625 C 123.98158264160156 244.128662109375 79.46864318847656 233.917236328125 21.744524002075195 205.90171813964844 C 38.369117736816406 179.3003387451172 50.62542724609375 204.96641540527344 117.27182006835938 150.9501190185547 C 128.14662170410156 232.18475341796875 133.280029296875 278.4703674316406 157.3557891845703 244.29644775390625" stroke-width="0.0" fill="rgb(35, 31, 195)" opacity="0.15395655" stroke="rgb(0, 0, 0)" stroke-opacity="1.0" stroke-linecap="round" stroke-linejoin="round"/>
    <path d="M 82.56094360351562 159.4995880126953 C 98.84065246582031 167.64920043945312 82.17484283447266 136.6058349609375 68.48597717285156 148.17469787597656 C 73.49005126953125 211.32070922851562 24.642074584960938 196.05455017089844 36.70009231567383 99.07605743408203 C 50.53354263305664 71.46519470214844 103.87373352050781 82.0860824584961 109.00493621826172 93.91024017333984 C 124.68626403808594 108.42533111572266 116.35035705566406 121.09125518798828 82.56094360351562 159.4995880126953" stroke-width="0.0" fill="rgb(105, 227, 0)" opacity="0.93748635" stroke="rgb(0, 0, 0)" stroke-opacity="1.0" stroke-linecap="round" stroke-linejoin="round"/>
    <path d="M 323.1544494628906 232.38446044921875 C 372.21685791015625 259.07177734375 344.4795227050781 214.8697052001953 309.4770202636719 222.8766632080078 C 268.1029968261719 260.0199279785156 265.4482727050781 245.87521362304688 188.723876953125 209.36276245117188 C 193.14437866210938 227.63209533691406 223.4943389892578 198.51683044433594 256.1514587402344 223.1728973388672 C 323.4145202636719 185.79513549804688 340.6485595703125 164.05027770996094 323.1544494628906 232.38446044921875" stroke-width="0.0" fill="rgb(69, 32, 8)" opacity="0.2327465" stroke="rgb(0, 0, 0)" stroke-opacity="1.0" stroke-linecap="round" stroke-linejoin="round"/>
    <path d="M 204.00851440429688 113.2985610961914 C 202.3034210205078 113.42970275878906 197.93536376953125 111.88661193847656 239.72402954101562 121.52830505371094 C 195.20835876464844 94.93750762939453 153.57037353515625 138.36749267578125 68.6991195678711 203.91009521484375 C 182.0277099609375 138.6571044921875 240.27613830566406 155.5408477783203 207.121826171875 115.92072296142578 C 249.3436737060547 80.48108673095703 243.5327606201172 86.98318481445312 204.00851440429688 113.2985610961914" stroke-width="0.0" fill="rgb(74, 62, 139)" opacity="0.49109662" stroke="rgb(0, 0, 0)" stroke-opacity="1.0" stroke-linecap="round" stroke-linejoin="round"/>
    <path d="M 79.94815063476562 524.2293090820312 C 42.45839309692383 539.5292358398438 15.03414249420166 530.3245849609375 0.8111952543258667 530.5191040039062 C -9.364206314086914 527.7437133789062 -16.68471336364746 520.4232177734375 -21.20284080505371 510.0506896972656 C -18.48799705505371 494.70721435546875 -31.987857818603516 464.11956787109375 -29.168838500976562 418.9903869628906 C 44.5604362487793 446.8222351074219 65.87879180908203 463.71160888671875 79.94815063476562 524.2293090820312" stroke-width="0.0" fill="rgb(33, 8, 39)" opacity="0.7369011" stroke="rgb(0, 0, 0)" stroke-opacity="1.0" stroke-linecap="round" stroke-linejoin="round"/>
    <path d="M 223.8329315185547 151.81358337402344 C 245.31680297851562 102.82778930664062 176.65843200683594 125.0087661743164 122.66331481933594 202.63113403320312 C 39.75569152832031 225.62985229492188 104.71683502197266 236.4959716796875 165.21035766601562 197.27061462402344 C 176.22251892089844 213.77857971191406 179.50540161132812 184.06472778320312 91.47423553466797 167.91184997558594 C 139.76638793945312 164.7834014892578 115.53749084472656 166.87930297851562 223.8329315185547 151.81358337402344" stroke-width="0.0" fill="rgb(228, 201, 178)" opacity="0.44161448" stroke="rgb(0, 0, 0)" stroke-opacity="1.0" stroke-linecap="round" stroke-linejoin="round"/>
    <path d="M 470.92828369140625 232.76585388183594 C 335.61083984375 303.857421875 323.1913757324219 329.97662353515625 356.0429382324219 334.058837890625 C 279.9932556152344 332.367431640625 241.19265747070312 372.58294677734375 253.2831573486328 326.8641052246094 C 301.66845703125 288.8214111328125 318.9130554199219 293.2463073730469 362.040771484375 256.7825927734375 C 299.6748962402344 315.8933410644531 397.056640625 191.49093627929688 470.92828369140625 232.76585388183594" stroke-width="0.0" fill="rgb(22, 30, 95)" opacity="0.77871597" stroke="rgb(0, 0, 0)" stroke-opacity="1.0" stroke-linecap="round" stroke-linejoin="round"/>
    <path d="M 250.97630310058594 112.36708068847656 C 220.05079650878906 164.34632873535156 237.67654418945312 147.97923278808594 172.27586364746094 154.36151123046875 C 166.34564208984375 131.78640747070312 179.31097412109375 97.16565704345703 165.15530395507812 90.79905700683594 C 181.06748962402344 92.15265655517578 181.13377380371094 83.68260955810547 196.4086151123047 53.67649841308594 C 217.838623046875 88.55416870117188 251.7936248779297 67.91445922851562 250.97630310058594 112.36708068847656" stroke-width="0.0" fill="rgb(204, 167, 176)" opacity="0.7860285" stroke="rgb(0, 0, 0)" stroke-opacity="1.0" stroke-linecap="round" stroke-linejoin="round"/>
    <path d="M 212.1529083251953 82.45332336425781 C 176.83509826660156 101.18072509765625 145.66773986816406 105.88992309570312 196.86517333984375 108.3780288696289 C 154.79061889648438 65.38442993164062 148.68069458007812 144.23049926757812 143.658203125 91.68798065185547 C 125.97879028320312 26.837570190429688 147.3870849609375 -19.009126663208008 216.43971252441406 20.710124969482422 C 208.84335327148438 107.65966033935547 219.71304321289062 69.59616088867188 212.1529083251953 82.45332336425781" stroke-width="0.0" fill="rgb(93, 184, 1)" opacity="0.99856156" stroke="rgb(0, 0, 0)" stroke-opacity="1.0" stroke-linecap="round" stroke-linejoin="round"/>
    <path d="M 369.6524963378906 45.20590591430664 C 367.48309326171875 40.148345947265625 364.60711669921875 71.68424224853516 381.0958251953125 129.7281036376953 C 389.83892822265625 178.80160522460938 393.072021484375 144.90829467773438 395.9350891113281 92.15836334228516 C 414.8287048339844 92.19479370117188 427.2086181640625 76.17501831054688 379.6465148925781 59.019412994384766 C 372.61773681640625 77.76569366455078 391.7099304199219 66.65733337402344 369.6524963378906 45.20590591430664" stroke-width="0.0" fill="rgb(33, 143, 2)" opacity="0.027169354" stroke="rgb(0, 0, 0)" stroke-opacity="1.0" stroke-linecap="round" stroke-linejoin="round"/>
    <path d="M 320.0854797363281 502.86773681640625 C 333.93121337890625 517.3267822265625 331.2856140136719 518.6696166992188 315.7440185546875 527.7449340820312 C 293.5489196777344 539.8379516601562 292.96771240234375 546.6334838867188 278.2988586425781 457.58758544921875 C 286.035400390625 427.08477783203125 290.77191162109375 413.35186767578125 275.4333801269531 402.3293762207031 C 298.9318542480469 454.03765869140625 302.18536376953125 477.3111267089844 320.0854797363281 502.86773681640625" stroke-width="0.0" fill="rgb(26, 97, 14)" opacity="0.28688306" stroke="rgb(0, 0, 0)" stroke-opacity="1.0" stroke-linecap="round" stroke-linejoin="round"/>
    <path d="M 297.5946350097656 138.95053100585938 C 319.2653503417969 114.24737548828125 325.8387145996094 116.42536926269531 321.43603515625 219.66909790039062 C 306.4693603515625 172.58151245117188 300.4336242675781 183.5709228515625 259.8750915527344 147.8406219482422 C 266.77569580078125 145.8540802001953 315.1333312988281 159.04965209960938 303.0514221191406 180.3308563232422 C 309.25970458984375 170.32176208496094 311.1300048828125 161.26205444335938 297.5946350097656 138.95053100585938" stroke-width="0.0" fill="rgb(208, 166, 168)" opacity="0.7317491" stroke="rgb(0, 0, 0)" stroke-opacity="1.0" stroke-linecap="round" stroke-linejoin="round"/>
    <path d="M 259.05108642578125 40.471832275390625 C 249.89991760253906 19.391244888305664 268.8982238769531 12.974366188049316 271.00592041015625 44.89360809326172 C 254.6280517578125 22.28338050842285 260.0293273925781 -10.158132553100586 259.716064453125 -49.45999526977539 C 228.8026580810547 -21.23381233215332 256.0662841796875 -24.14623260498047 262.32562255859375 8.893218994140625 C 258.5225830078125 21.924531936645508 280.0993957519531 12.121682167053223 259.05108642578125 40.471832275390625" stroke-width="0.0" fill="rgb(73, 58, 154)" opacity="0.79734945" stroke="rgb(0, 0, 0)" stroke-opacity="1.0" stroke-linecap="round" stroke-linejoin="round"/>
    <path d="M 348.0271301269531 257.7003173828125 C 348.8642578125 251.0165252685547 329.3692321777344 268.8257751464844 327.1201171875 290.1656188964844 C 376.67730712890625 272.98016357421875 364.01898193359375 243.51455688476562 320.8853454589844 275.04827880859375 C 350.9905700683594 276.8283996582031 350.09222412109375 248.80490112304688 346.2414245605469 266.51348876953125 C 324.9906005859375 243.83612060546875 328.382080078125 242.67564392089844 348.0271301269531 257.7003173828125" stroke-width="0.0" fill="rgb(203, 152, 172)" opacity="0.12862869" stroke="rgb(0, 0, 0)" stroke-opacity="1.0" stroke-linecap="round" stroke-linejoin="round"/>
    <path d="M 208.9976043701172 76.3655014038086 C 171.0113983154297 73.56653594970703 174.9010467529297 90.1888427734375 171.40518188476562 78.13705444335938 C 202.50364685058594 72.30006408691406 188.58070373535156 66.36054229736328 181.7821807861328 83.00623321533203 C 172.04405212402344 107.92473602294922 181.32276916503906 92.86396789550781 150.38966369628906 74.6170883178711 C 177.06932067871094 60.267452239990234 207.69381713867188 68.15052032470703 208.9976043701172 76.3655014038086" stroke-width="0.0" fill="rgb(95, 177, 35)" opacity="0.055140756" stroke="rgb(0, 0, 0)" stroke-opacity="1.0" stroke-linecap="round" stroke-linejoin="round"/>
    <path d="M 562.8787841796875 467.0809020996094 C 558.5722045898438 477.0141906738281 530.9427490234375 492.4588928222656 499.519287109375 467.71380615234375 C 478.9776611328125 472.9565734863281 455.75665283203125 481.317138671875 473.82952880859375 473.78564453125 C 495.111083984375 432.4212341308594 487.8977355957031 434.272216796875 515.9400634765625 442.6447448730469 C 559.8816528320312 451.2558288574219 557.8524780273438 468.089599609375 562.8787841796875 467.0809020996094" stroke-width="0.0" fill="rgb(76, 50, 73)" opacity="0.96194625" stroke="rgb(0, 0, 0)" stroke-opacity="1.0" stroke-linecap="round" stroke-linejoin="round"/>
    <path d="M 340.8937683105469 487.7655029296875 C 360.1798095703125 479.0154724121094 345.99627685546875 480.09576416015625 313.55908203125 493.4140930175781 C 326.8422546386719 492.62322998046875 323.936767578125 475.968017578125 328.69207763671875 476.27978515625 C 351.33587646484375 496.5445556640625 340.89837646484375 531.731689453125 352.638916015625 455.1700744628906 C 334.109130859375 445.71356201171875 316.93255615234375 477.337646484375 340.8937683105469 487.7655029296875" stroke-width="0.0" fill="rgb(39, 117, 49)" opacity="0.10924059" stroke="rgb(0, 0, 0)" stroke-opacity="1.0" stroke-linecap="round" stroke-linejoin="round"/>
    <path d="M 462.8716735839844 406.124267578125 C 442.59490966796875 394.7310791015625 432.95245361328125 411.87969970703125 428.8182678222656 430.4805603027344 C 382.4955139160156 435.6441650390625 389.9034729003906 446.37286376953125 402.2575988769531 407.21783447265625 C 439.42364501953125 399.7828674316406 436.02191162109375 394.94219970703125 453.8924255371094 376.471435546875 C 465.6846923828125 360.7291564941406 456.14959716796875 386.9638977050781 462.8716735839844 406.124267578125" stroke-width="0.0" fill="rgb(180, 133, 218)" opacity="0.9748573" stroke="rgb(0, 0, 0)" stroke-opacity="1.0" stroke-linecap="round" stroke-linejoin="round"/>
    <path d="M 439.670654296875 391.388916015625 C 439.6913146972656 436.1894226074219 419.54705810546875 422.5417175292969 361.1830749511719 431.8995361328125 C 355.0610656738281 424.19580078125 360.2959899902344 440.4444274902344 367.3267517089844 411.8437805175781 C 382.0137939453125 355.91522216796875 386.23394775390625 356.8207092285156 391.1085205078125 370.97900390625 C 439.30352783203125 363.91668701171875 467.3123779296875 364.52801513671875 439.670654296875 391.388916015625" stroke-width="0.0" fill="rgb(61, 118, 49)" opacity="0.8056661" stroke="rgb(0, 0, 0)" stroke-opacity="1.0" stroke-linecap="round" stroke-linejoin="round"/>
    <path d="M 269.477294921875 129.25123596191406 C 251.1786346435547 116.89966583251953 250.0008087158203 126.54105377197266 239.54420471191406 133.15965270996094 C 266.2705993652344 159.73854064941406 230.7286834716797 146.6004638671875 207.7675323486328 132.2798309326172 C 234.472412109375 116.26727294921875 237.16775512695312 142.1986846923828 269.9480895996094 124.81592559814453 C 288.2400207519531 76.8315200805664 262.4584655761719 86.1740951538086 269.477294921875 129.25123596191406" stroke-width="0.0" fill="rgb(46, 98, 192)" opacity="0.83948815" stroke="rgb(0, 0, 0)" stroke-opacity="1.0" stroke-linecap="round" stroke-linejoin="round"/>
    <path d="M 129.61239624023438 435.6795654296875 C 128.1849822998047 458.2803649902344 120.24253845214844 436.09197998046875 77.0802230834961 430.5168762207031 C 69.11490631103516 445.579833984375 68.82575225830078 420.6811828613281 48.85782241821289 408.9702453613281 C 29.145763397216797 399.50140380859375 35.06212615966797 383.37457275390625 54.83957290649414 369.1256408691406 C 90.1852035522461 415.87274169921875 115.62698364257812 400.2422790527344 129.61239624023438 435.6795654296875" stroke-width="0.0" fill="rgb(186, 39, 188)" opacity="0.24567205" stroke="rgb(0, 0, 0)" stroke-opacity="1.0" stroke-linecap="round" stroke-linejoin="round"/>
    <path d="M 456.51214599609375 77.15023803710938 C 482.3580017089844 103.29421997070312 464.9206848144531 105.25626373291016 422.5433044433594 119.25838470458984 C 405.384521484375 96.10140991210938 386.6786804199219 101.1111831665039 374.2908935546875 76.31908416748047 C 362.0074157714844 38.12938690185547 385.5628662109375 35.22166061401367 410.61016845703125 48.213966369628906 C 434.7751159667969 59.72296905517578 448.781005859375 56.3333625793457 456.51214599609375 77.15023803710938" stroke-width="0.0" fill="rgb(39, 67, 149)" opacity="0.53217006" stroke="rgb(0, 0, 0)" stroke-opacity="1.0" stroke-linecap="round" stroke-linejoin="round"/>
    <path d="M 213.76483154296875 19.991201400756836 C 212.8603515625 20.0533504486084 196.3173065185547 26.795246124267578 186.71527099609375 29.116212844848633 C 165.3791961669922 21.533098220825195 178.0048065185547 32.45881271362305 185.060302734375 41.242340087890625 C 191.9737091064453 23.537281036376953 210.1056365966797 13.030438423156738 207.2818145751953 -10.19398307800293 C 207.02810668945312 -10.087041854858398 210.58578491210938 7.789316177368164 213.76483154296875 19.991201400756836" stroke-width="0.0" fill="rgb(144, 224, 112)" opacity="0.127927" stroke="rgb(0, 0, 0)" stroke-opacity="1.0" stroke-linecap="round" stroke-linejoin="round"/>
    <path d="M 490.861572265625 222.23594665527344 C 512.6757202148438 246.60360717773438 511.8931884765625 254.4569854736328 513.8948974609375 223.48060607910156 C 514.1058959960938 202.07537841796875 480.8631896972656 222.58531188964844 496.4111328125 188.5315704345703 C 465.0628662109375 157.19253540039062 464.3831481933594 143.9688720703125 491.8129577636719 159.4115447998047 C 485.17510986328125 183.11251831054688 483.36993408203125 207.24884033203125 490.861572265625 222.23594665527344" stroke-width="0.0" fill="rgb(119, 255, 64)" opacity="0.10767571" stroke="rgb(0, 0, 0)" stroke-opacity="1.0" stroke-linecap="round" stroke-linejoin="round"/>
    <path d="M 403.91094970703125 302.6434020996094 C 404.6806640625 316.7624206542969 398.2559509277344 339.34027099609375 419.06591796875 341.8257751464844 C 422.12164306640625 307.5569152832031 416.51080322265625 294.2196960449219 408.4169006347656 276.19476318359375 C 335.5394287109375 315.4967956542969 373.1343994140625 313.9209899902344 422.8174743652344 326.69073486328125 C 441.1056823730469 286.30029296875 414.7281799316406 291.73529052734375 403.91094970703125 302.6434020996094" stroke-width="0.0" fill="rgb(38, 156, 71)" opacity="0.0" stroke="rgb(0, 0, 0)" stroke-opacity="1.0" stroke-linecap="round" stroke-linejoin="round"/>
    <path d="M 271.3746643066406 300.02423095703125 C 249.0023956298828 306.3665466308594 226.09683227539062 308.7490539550781 254.91763305664062 288.6498107910156 C 253.3791961669922 284.9029846191406 228.6971435546875 284.6998291015625 220.64817810058594 275.2182312011719 C 219.8239288330078 266.9010925292969 244.1586456298828 263.50823974609375 239.30650329589844 264.9360656738281 C 239.46304321289062 259.5460510253906 242.33892822265625 283.59381103515625 271.3746643066406 300.02423095703125" stroke-width="0.0" fill="rgb(199, 104, 246)" opacity="0.94341314" stroke="rgb(0, 0, 0)" stroke-opacity="1.0" stroke-linecap="round" stroke-linejoin="round"/>
    <path d="M 276.9908752441406 289.0140075683594 C 279.03564453125 327.10089111328125 259.6755676269531 330.84930419921875 254.64442443847656 330.3114013671875 C 252.2007598876953 324.37200927734375 221.94725036621094 325.0829772949219 229.21932983398438 283.2749938964844 C 245.98049926757812 309.3408508300781 264.93475341796875 319.2771911621094 241.6897430419922 282.102294921875 C 258.58251953125 283.8747863769531 288.28900146484375 292.17242431640625 276.9908752441406 289.0140075683594" stroke-width="0.0" fill="rgb(0, 157, 135)" opacity="0.156954" stroke="rgb(0, 0, 0)" stroke-opacity="1.0" stroke-linecap="round" stroke-linejoin="round"/>
    <path d="M 76.96422576904297 104.50679779052734 C 46.09977340698242 112.87625885009766 51.472900390625 84.82213592529297 39.87876510620117 153.67483520507812 C 41.91981887817383 137.41468811035156 15.322443962097168 122.4594497680664 6.169502258300781 112.70862579345703 C 39.71928787231445 130.81959533691406 60.28461456298828 125.75102996826172 55.42327117919922 115.08672332763672 C 39.20048141479492 122.26811218261719 68.64752960205078 137.462158203125 76.96422576904297 104.50679779052734" stroke-width="0.0" fill="rgb(199, 156, 62)" opacity="0.0442446" stroke="rgb(0, 0, 0)" stroke-opacity="1.0" stroke-linecap="round" stroke-linejoin="round"/>
    <path d="M 446.9113464355469 149.2930450439453 C 422.9437255859375 155.84494018554688 401.86724853515625 150.12939453125 408.22906494140625 146.8251953125 C 415.990234375 158.05538940429688 409.9341125488281 142.4770050048828 397.9155578613281 125.57949829101562 C 376.7369079589844 146.64894104003906 403.62347412109375 130.36228942871094 407.4296569824219 121.05831146240234 C 431.261962890625 136.02857971191406 452.58331298828125 133.73268127441406 446.9113464355469 149.2930450439453" stroke-width="0.0" fill="rgb(28, 229, 0)" opacity="0.98012966" stroke="rgb(0, 0, 0)" stroke-opacity="1.0" stroke-linecap="round" stroke-linejoin="round"/>
    <path d="M 113.80767822265625 488.59747314453125 C 134.63316345214844 501.9696044921875 113.37186431884766 483.24127197265625 104.52461242675781 458.2942199707031 C 77.29022216796875 490.9648132324219 69.04298400878906 479.6630554199219 42.81593322753906 480.53729248046875 C 64.07208251953125 469.5088806152344 69.74357604980469 464.4127197265625 85.13633728027344 458.94598388671875 C 100.34881591796875 438.6430969238281 112.12434387207031 432.3539733886719 113.80767822265625 488.59747314453125" stroke-width="0.0" fill="rgb(254, 242, 252)" opacity="0.0" stroke="rgb(0, 0, 0)" stroke-opacity="1.0" stroke-linecap="round" stroke-linejoin="round"/>
    <path d="M 507.51959228515625 45.28446578979492 C 518.0571899414062 37.39683151245117 538.368408203125 40.2355842590332 494.6891174316406 34.35557556152344 C 479.9465026855469 77.1137466430664 512.4205932617188 61.38861083984375 516.366943359375 28.594350814819336 C 462.83636474609375 12.658585548400879 456.5704345703125 -5.775259971618652 493.9540100097656 -0.8278904557228088 C 474.7286376953125 56.77388381958008 488.0443115234375 89.65345001220703 507.51959228515625 45.28446578979492" stroke-width="0.0" fill="rgb(84, 64, 68)" opacity="0.10806249" stroke="rgb(0, 0, 0)" stroke-opacity="1.0" stroke-linecap="round" stroke-linejoin="round"/>
    <path d="M 320.115478515625 296.4919128417969 C 299.796630859375 333.5308837890625 298.9898376464844 339.9416809082031 249.6579132080078 296.4407653808594 C 311.0079040527344 317.4956970214844 279.2738952636719 319.5648498535156 282.40399169921875 250.10671997070312 C 333.05364990234375 284.9289855957031 331.7702941894531 300.1067199707031 349.3685302734375 277.8504943847656 C 319.0504150390625 258.21453857421875 339.81512451171875 254.40940856933594 320.115478515625 296.4919128417969" stroke-width="0.0" fill="rgb(0, 34, 117)" opacity="0.15391476" stroke="rgb(0, 0, 0)" stroke-opacity="1.0" stroke-linecap="round" stroke-linejoin="round"/>
    <path d="M 339.6485900878906 100.15049743652344 C 340.4320983886719 93.01192474365234 325.85369873046875 118.04280853271484 328.6208801269531 111.24098205566406 C 316.6955871582031 125.2630386352539 309.07147216796875 110.7891845703125 258.3851013183594 102.06777954101562 C 281.1697998046875 72.1382064819336 279.6743469238281 60.536800384521484 306.28228759765625 84.1026382446289 C 336.06243896484375 58.90347671508789 320.55035400390625 92.3089370727539 339.6485900878906 100.15049743652344" stroke-width="0.0" fill="rgb(99, 109, 223)" opacity="0.2223723" stroke="rgb(0, 0, 0)" stroke-opacity="1.0" stroke-linecap="round" stroke-linejoin="round"/>
    <path d="M 166.32156372070312 93.39567565917969 C 142.0493927001953 70.95894622802734 169.35769653320312 67.75758361816406 157.25669860839844 97.95524597167969 C 121.21681213378906 81.90486907958984 116.13321685791016 72.06400299072266 127.10481262207031 69.82698822021484 C 109.78077697753906 47.02389907836914 130.21604919433594 53.216766357421875 124.18692779541016 54.409366607666016 C 140.5664825439453 57.426849365234375 142.3336639404297 80.1215591430664 166.32156372070312 93.39567565917969" stroke-width="0.0" fill="rgb(81, 181, 32)" opacity="0.28020498" stroke="rgb(0, 0, 0)" stroke-opacity="1.0" stroke-linecap="round" stroke-linejoin="round"/>
    <path d="M 468.1844177246094 470.3402099609375 C 464.3817138671875 516.7250366210938 457.800537109375 533.7744140625 447.3601989746094 506.6202087402344 C 458.9236755371094 467.4588317871094 468.8836975097656 463.4383850097656 427.3858337402344 466.3531494140625 C 425.0718994140625 471.60498046875 431.3078308105469 480.9533386230469 479.8218078613281 459.3437805175781 C 489.42816162109375 439.26873779296875 490.25738525390625 457.89019775390625 468.1844177246094 470.3402099609375" stroke-width="0.0" fill="rgb(119, 89, 92)" opacity="0.11856084" stroke="rgb(0, 0, 0)" stroke-opacity="1.0" stroke-linecap="round" stroke-linejoin="round"/>
    <path d="M 210.1702117919922 69.32828521728516 C 218.19366455078125 90.72669982910156 205.46267700195312 103.7225112915039 184.86444091796875 99.55905151367188 C 201.0421600341797 90.82823944091797 187.37313842773438 81.79383087158203 177.45982360839844 70.0849609375 C 191.04281616210938 81.45626068115234 204.65396118164062 79.86614990234375 209.176025390625 54.93821716308594 C 204.3601531982422 59.77698516845703 219.35231018066406 64.23348236083984 210.1702117919922 69.32828521728516" stroke-width="0.0" fill="rgb(130, 195, 44)" opacity="0.0" stroke="rgb(0, 0, 0)" stroke-opacity="1.0" stroke-linecap="round" stroke-linejoin="round"/>
    <path d="M 314.5202331542969 204.30062866210938 C 281.7018127441406 222.73802185058594 267.2122802734375 230.14349365234375 240.00888061523438 232.96038818359375 C 248.57139587402344 252.42190551757812 266.09844970703125 227.08665466308594 267.3210144042969 221.8059539794922 C 243.5807342529297 203.68121337890625 252.2676239013672 196.62625122070312 275.29669189453125 191.68699645996094 C 266.2361145019531 210.33621215820312 263.70428466796875 213.15464782714844 314.5202331542969 204.30062866210938" stroke-width="0.0" fill="rgb(197, 145, 143)" opacity="0.5746258" stroke="rgb(0, 0, 0)" stroke-opacity="1.0" stroke-linecap="round" stroke-linejoin="round"/>
    <path d="M 470.02069091796875 -18.143543243408203 C 443.79046630859375 -26.828393936157227 438.6737976074219 -18.66200065612793 438.4581604003906 -10.50377082824707 C 450.9559326171875 -5.199913024902344 452.5839538574219 -2.7040843963623047 460.5521545410156 -19.064828872680664 C 443.02642822265625 -11.118226051330566 452.07421875 -16.323915481567383 464.5194396972656 -17.583200454711914 C 476.8262023925781 -16.114213943481445 486.2515869140625 -11.2457275390625 470.02069091796875 -18.143543243408203" stroke-width="0.0" fill="rgb(0, 30, 74)" opacity="0.2985766" stroke="rgb(0, 0, 0)" stroke-opacity="1.0" stroke-linecap="round" stroke-linejoin="round"/>
    <path d="M 154.36618041992188 441.7739562988281 C 149.6947784423828 444.8267822265625 159.25013732910156 435.2035827636719 154.083251953125 424.9039306640625 C 144.69239807128906 432.5918884277344 132.01878356933594 450.2393798828125 122.64173126220703 439.1283874511719 C 116.35348510742188 426.7585144042969 136.19825744628906 434.0378723144531 139.99966430664062 443.0428771972656 C 106.50941467285156 414.0116271972656 145.68756103515625 433.7999267578125 154.36618041992188 441.7739562988281" stroke-width="0.0" fill="rgb(125, 124, 63)" opacity="0.14972165" stroke="rgb(0, 0, 0)" stroke-opacity="1.0" stroke-linecap="round" stroke-linejoin="round"/>
  </g>
</svg>
