<?xml version="1.0" ?>
<svg xmlns="http://www.w3.org/2000/svg" version="1.1" width="512" height="512">
  <defs/>
  <g>
    <path d="M 553.156005859375 404.880126953125 C 547.165283203125 516.641845703125 548.8319091796875 525.4011840820312 409.6579895019531 547.5162963867188 C 333.088623046875 556.774169921875 272.8270263671875 537.171630859375 334.25335693359375 443.7028503417969 C 273.3868103027344 322.6585388183594 261.3423156738281 286.5851135253906 422.729736328125 249.5986785888672 C 571.6217041015625 312.37542724609375 569.712646484375 316.922607421875 553.156005859375 404.880126953125" stroke-width="0.0" fill="rgb(38, 20, 140)" opacity="0.91921085" stroke="rgb(0, 0, 0)" stroke-opacity="1.0" stroke-linecap="round" stroke-linejoin="round"/>
    <path d="M 298.77838134765625 402.3709716796875 C 369.06549072265625 507.3017883300781 360.84130859375 522.9564208984375 267.2962646484375 528.78857421875 C -51.20000076293945 519.133544921875 -51.20000076293945 511.7567443847656 -54.45560836791992 472.722900390625 C -27.621463775634766 206.5260009765625 -1.5330536365509033 231.54234313964844 75.33140563964844 173.99026489257812 C 99.87911224365234 335.4100341796875 139.85232543945312 324.1182556152344 298.77838134765625 402.3709716796875" stroke-width="0.0" fill="rgb(34, 21, 139)" opacity="0.94851524" stroke="rgb(0, 0, 0)" stroke-opacity="1.0" stroke-linecap="round" stroke-linejoin="round"/>
    <path d="M 306.20733642578125 203.40740966796875 C 327.5140686035156 367.31597900390625 319.12615966796875 412.6622314453125 237.6565399169922 385.8473815917969 C 90.83342742919922 509.8731994628906 55.925655364990234 434.2581481933594 -19.50093650817871 163.0301055908203 C 0.7380056977272034 156.32310485839844 33.510704040527344 167.8788299560547 151.4835205078125 178.3377685546875 C 183.05471801757812 210.2771453857422 216.03573608398438 233.1627197265625 306.20733642578125 203.40740966796875" stroke-width="0.0" fill="rgb(32, 35, 150)" opacity="0.94287753" stroke="rgb(0, 0, 0)" stroke-opacity="1.0" stroke-linecap="round" stroke-linejoin="round"/>
    <path d="M 277.7564697265625 19.823320388793945 C 240.51278686523438 296.4381408691406 99.05045318603516 178.34490966796875 32.656681060791016 203.49542236328125 C -17.03781509399414 171.93304443359375 -28.164270401000977 217.08795166015625 -29.877059936523438 167.5261688232422 C -16.39366340637207 -18.030452728271484 -10.150599479675293 -23.750812530517578 41.997806549072266 -25.840227127075195 C 208.83029174804688 -38.02085494995117 228.66261291503906 -45.613670349121094 277.7564697265625 19.823320388793945" stroke-width="0.0" fill="rgb(52, 50, 152)" opacity="0.9953375" stroke="rgb(0, 0, 0)" stroke-opacity="1.0" stroke-linecap="round" stroke-linejoin="round"/>
    <path d="M 500.283203125 96.5239486694336 C 439.7620849609375 297.32733154296875 425.7810974121094 272.79766845703125 391.2633056640625 329.3786926269531 C 318.5517272949219 255.43714904785156 301.2197265625 273.5336608886719 225.57064819335938 167.63900756835938 C 217.5790252685547 58.23680114746094 200.3475799560547 0.4276238977909088 360.89385986328125 -49.180545806884766 C 589.3195190429688 -13.188252449035645 561.4207763671875 25.716840744018555 500.283203125 96.5239486694336" stroke-width="0.0" fill="rgb(73, 61, 92)" opacity="0.8269961" stroke="rgb(0, 0, 0)" stroke-opacity="1.0" stroke-linecap="round" stroke-linejoin="round"/>
    <path d="M 277.7892761230469 52.26767349243164 C 221.82640075683594 265.6006164550781 355.713134765625 220.66175842285156 172.59548950195312 293.40447998046875 C 142.8279266357422 158.52493286132812 130.47265625 152.40382385253906 103.80379486083984 134.10958862304688 C 81.2778549194336 127.33451843261719 86.49246978759766 104.70399475097656 306.6171875 -39.035911560058594 C 404.59326171875 44.94615936279297 340.7922058105469 -34.983787536621094 277.7892761230469 52.26767349243164" stroke-width="0.0" fill="rgb(64, 20, 175)" opacity="0.9671115" stroke="rgb(0, 0, 0)" stroke-opacity="1.0" stroke-linecap="round" stroke-linejoin="round"/>
    <path d="M 569.0958251953125 132.50506591796875 C 587.65869140625 281.58087158203125 574.4907836914062 313.0202331542969 501.2568359375 290.52593994140625 C 404.27679443359375 260.7275085449219 382.40948486328125 261.35296630859375 447.3755187988281 201.1684112548828 C 455.79913330078125 118.96745300292969 401.0621337890625 43.851951599121094 495.4642333984375 4.559775352478027 C 576.6200561523438 17.382144927978516 567.7155151367188 57.50678634643555 569.0958251953125 132.50506591796875" stroke-width="0.0" fill="rgb(57, 31, 145)" opacity="0.9909859" stroke="rgb(0, 0, 0)" stroke-opacity="1.0" stroke-linecap="round" stroke-linejoin="round"/>
    <path d="M 324.6308288574219 233.08522033691406 C 352.23065185546875 280.4451904296875 327.18603515625 307.8799743652344 305.8049621582031 303.4541320800781 C 303.71417236328125 294.53656005859375 253.07273864746094 290.70428466796875 169.16127014160156 286.7057189941406 C 262.9255676269531 217.61940002441406 287.030029296875 237.8706817626953 316.33770751953125 205.73765563964844 C 304.614990234375 106.9001693725586 331.0174255371094 172.24884033203125 324.6308288574219 233.08522033691406" stroke-width="0.0" fill="rgb(30, 30, 176)" opacity="0.9947449" stroke="rgb(0, 0, 0)" stroke-opacity="1.0" stroke-linecap="round" stroke-linejoin="round"/>
    <path d="M 443.8501892089844 213.00340270996094 C 365.1613464355469 273.9387512207031 475.7479553222656 217.45880126953125 351.6716003417969 301.96221923828125 C 295.132080078125 247.42359924316406 327.412109375 269.53387451171875 274.7294616699219 226.1629180908203 C 235.00814819335938 -38.962928771972656 358.8753662109375 53.3383903503418 295.8387145996094 155.01666259765625 C 426.3754577636719 141.79820251464844 389.2261657714844 147.1263885498047 443.8501892089844 213.00340270996094" stroke-width="0.0" fill="rgb(240, 250, 230)" opacity="0.9762097" stroke="rgb(0, 0, 0)" stroke-opacity="1.0" stroke-linecap="round" stroke-linejoin="round"/>
    <path d="M 264.690673828125 248.1012420654297 C 337.6253356933594 269.6632385253906 243.72804260253906 260.1189270019531 187.39028930664062 320.6334533691406 C 77.98815155029297 380.5988464355469 142.3150177001953 247.89773559570312 212.8753662109375 240.60874938964844 C 41.29053497314453 188.71044921875 -13.067886352539062 147.9164581298828 181.94882202148438 166.13934326171875 C 224.31832885742188 210.40919494628906 254.14141845703125 273.34033203125 264.690673828125 248.1012420654297" stroke-width="0.0" fill="rgb(115, 101, 59)" opacity="0.7015337" stroke="rgb(0, 0, 0)" stroke-opacity="1.0" stroke-linecap="round" stroke-linejoin="round"/>
    <path d="M 411.9927062988281 231.7623291015625 C 481.6842956542969 220.38323974609375 452.8883056640625 298.0416564941406 396.21246337890625 290.58306884765625 C 371.7932434082031 298.3885498046875 318.0832214355469 324.3502197265625 330.8205261230469 270.8551330566406 C 388.87384033203125 300.6069641113281 364.0416564941406 255.82675170898438 389.2124938964844 286.40557861328125 C 406.5074768066406 252.8059539794922 470.6194152832031 260.4903564453125 411.9927062988281 231.7623291015625" stroke-width="0.0" fill="rgb(77, 28, 95)" opacity="0.6061816" stroke="rgb(0, 0, 0)" stroke-opacity="1.0" stroke-linecap="round" stroke-linejoin="round"/>
    <path d="M 336.763427734375 395.5108947753906 C 148.11520385742188 316.29473876953125 252.1646728515625 393.99493408203125 158.57701110839844 425.6475830078125 C 160.34620666503906 435.4408874511719 166.98019409179688 433.50860595703125 160.31954956054688 400.18768310546875 C 163.67103576660156 386.1172790527344 185.19737243652344 390.8982849121094 179.61061096191406 371.4860534667969 C 213.6947021484375 356.5325622558594 152.70526123046875 391.9383239746094 336.763427734375 395.5108947753906" stroke-width="0.0" fill="rgb(10, 6, 159)" opacity="0.61676276" stroke="rgb(0, 0, 0)" stroke-opacity="1.0" stroke-linecap="round" stroke-linejoin="round"/>
    <path d="M 537.9419555664062 27.432071685791016 C 518.4555053710938 66.809326171875 506.4806213378906 67.23091125488281 475.16705322265625 120.43966674804688 C 440.1075134277344 68.77588653564453 441.2557678222656 123.69829559326172 432.6664733886719 64.56363677978516 C 422.0889587402344 -18.168622970581055 349.0724182128906 118.91402435302734 345.9443054199219 -1.9359092712402344 C 523.405517578125 -40.4858283996582 531.0452270507812 -12.650843620300293 537.9419555664062 27.432071685791016" stroke-width="0.0" fill="rgb(65, 22, 157)" opacity="0.9932604" stroke="rgb(0, 0, 0)" stroke-opacity="1.0" stroke-linecap="round" stroke-linejoin="round"/>
    <path d="M 444.71636962890625 116.21813201904297 C 444.3362121582031 174.3489532470703 443.12982177734375 139.8005828857422 394.56097412109375 105.38272094726562 C 380.54827880859375 98.20394134521484 393.92041015625 101.19469451904297 390.5072937011719 85.87615203857422 C 387.57794189453125 96.79383850097656 406.0401611328125 60.835105895996094 403.13031005859375 67.9464340209961 C 409.15252685546875 38.81483459472656 430.02252197265625 46.1820068359375 444.71636962890625 116.21813201904297" stroke-width="0.0" fill="rgb(240, 220, 205)" opacity="0.94620216" stroke="rgb(0, 0, 0)" stroke-opacity="1.0" stroke-linecap="round" stroke-linejoin="round"/>
    <path d="M 222.24000549316406 266.04547119140625 C 226.45822143554688 286.2257385253906 179.78469848632812 292.3944091796875 180.62623596191406 289.6399841308594 C 148.66807556152344 292.6885070800781 146.6560516357422 378.76068115234375 86.02597045898438 196.4481964111328 C 69.00006103515625 197.78399658203125 109.97887420654297 205.8760528564453 227.96458435058594 206.65859985351562 C 242.8359832763672 191.1196746826172 238.2565460205078 263.0041809082031 222.24000549316406 266.04547119140625" stroke-width="0.0" fill="rgb(190, 20, 195)" opacity="0.7510421" stroke="rgb(0, 0, 0)" stroke-opacity="1.0" stroke-linecap="round" stroke-linejoin="round"/>
    <path d="M 368.59564208984375 439.9361267089844 C 354.0641174316406 443.5749206542969 306.7524108886719 496.0914306640625 308.5961608886719 442.738525390625 C 273.6519775390625 251.9414825439453 319.3909912109375 482.0734558105469 362.9271240234375 435.6949157714844 C 372.637939453125 417.5916442871094 337.66021728515625 474.29473876953125 280.9891662597656 347.9726867675781 C 398.2434997558594 430.1954650878906 361.88177490234375 386.4674072265625 368.59564208984375 439.9361267089844" stroke-width="0.0" fill="rgb(88, 105, 146)" opacity="0.8998213" stroke="rgb(0, 0, 0)" stroke-opacity="1.0" stroke-linecap="round" stroke-linejoin="round"/>
    <path d="M 330.5345458984375 92.53845977783203 C 340.76251220703125 156.10946655273438 351.8261413574219 140.9016571044922 354.1299743652344 134.74295043945312 C 352.3910217285156 122.62763977050781 313.4312744140625 57.81480407714844 299.90447998046875 39.075416564941406 C 235.02130126953125 37.008182525634766 250.22850036621094 -49.716773986816406 405.30242919921875 39.65327072143555 C 369.7195129394531 96.73606872558594 390.0812683105469 93.68883514404297 330.5345458984375 92.53845977783203" stroke-width="0.0" fill="rgb(51, 18, 185)" opacity="0.97295284" stroke="rgb(0, 0, 0)" stroke-opacity="1.0" stroke-linecap="round" stroke-linejoin="round"/>
    <path d="M 348.54168701171875 291.2183532714844 C 172.2587432861328 244.18441772460938 160.2957000732422 383.82373046875 220.95138549804688 357.7083435058594 C 265.93218994140625 372.0179138183594 323.2155456542969 387.14935302734375 292.72918701171875 366.78363037109375 C 298.9083251953125 390.1477966308594 305.8304443359375 400.6101379394531 291.65789794921875 369.84515380859375 C 314.1087341308594 399.1486511230469 332.7547302246094 494.6724853515625 348.54168701171875 291.2183532714844" stroke-width="0.0" fill="rgb(222, 217, 125)" opacity="0.861398" stroke="rgb(0, 0, 0)" stroke-opacity="1.0" stroke-linecap="round" stroke-linejoin="round"/>
    <path d="M 416.00103759765625 175.822509765625 C 362.7766418457031 146.5141143798828 319.8824157714844 202.37635803222656 360.07720947265625 247.32427978515625 C 403.022705078125 209.7183837890625 365.9544677734375 197.77944946289062 292.433349609375 177.57212829589844 C 310.0635681152344 171.23606872558594 357.22515869140625 154.8800048828125 332.043212890625 192.39486694335938 C 339.3987121582031 201.49838256835938 366.2888488769531 207.95248413085938 416.00103759765625 175.822509765625" stroke-width="0.0" fill="rgb(44, 47, 64)" opacity="0.80931157" stroke="rgb(0, 0, 0)" stroke-opacity="1.0" stroke-linecap="round" stroke-linejoin="round"/>
    <path d="M 154.4064178466797 312.3855895996094 C 140.045166015625 454.56280517578125 149.65176391601562 312.0733337402344 141.866455078125 319.8699645996094 C 99.96507263183594 306.4888610839844 98.509033203125 289.5843505859375 98.92298126220703 256.9082946777344 C 32.0575065612793 175.0530548095703 75.29351806640625 155.50193786621094 105.94100952148438 138.2158966064453 C 116.49979400634766 233.60958862304688 94.98342895507812 268.62237548828125 154.4064178466797 312.3855895996094" stroke-width="0.0" fill="rgb(61, 79, 60)" opacity="0.96379745" stroke="rgb(0, 0, 0)" stroke-opacity="1.0" stroke-linecap="round" stroke-linejoin="round"/>
    <path d="M 265.2239990234375 214.45083618164062 C 279.03619384765625 190.46165466308594 270.8089904785156 188.48153686523438 261.65972900390625 229.0372314453125 C 246.15589904785156 226.4236297607422 262.0541687011719 228.2687530517578 258.3829040527344 211.6217041015625 C 264.8541564941406 130.51641845703125 257.7034606933594 109.70071411132812 258.60284423828125 115.25726318359375 C 258.0374755859375 199.07493591308594 259.43365478515625 218.44375610351562 265.2239990234375 214.45083618164062" stroke-width="0.0" fill="rgb(61, 23, 180)" opacity="0.7689286" stroke="rgb(0, 0, 0)" stroke-opacity="1.0" stroke-linecap="round" stroke-linejoin="round"/>
    <path d="M 158.9446563720703 316.0721435546875 C 118.25386810302734 372.37274169921875 152.1730499267578 368.1612548828125 97.37420654296875 445.62127685546875 C 35.69698715209961 376.97760009765625 28.862712860107422 359.6781005859375 -10.189911842346191 322.617431640625 C 41.05791473388672 279.06976318359375 59.01738357543945 265.0538024902344 107.18750762939453 209.40191650390625 C 114.52790832519531 276.80029296875 120.75069427490234 286.5564880371094 158.9446563720703 316.0721435546875" stroke-width="0.0" fill="rgb(14, 36, 193)" opacity="0.66715807" stroke="rgb(0, 0, 0)" stroke-opacity="1.0" stroke-linecap="round" stroke-linejoin="round"/>
    <path d="M 300.5328063964844 267.8898010253906 C 281.81500244140625 312.410400390625 308.96612548828125 276.9928283691406 202.20762634277344 271.9309997558594 C 228.04202270507812 321.73529052734375 262.44635009765625 271.6269836425781 258.61138916015625 230.6865234375 C 238.68222045898438 231.44732666015625 251.43174743652344 240.43301391601562 263.8801574707031 219.24314880371094 C 287.1055908203125 249.28298950195312 291.67010498046875 250.9700927734375 300.5328063964844 267.8898010253906" stroke-width="0.0" fill="rgb(103, 94, 141)" opacity="0.6698107" stroke="rgb(0, 0, 0)" stroke-opacity="1.0" stroke-linecap="round" stroke-linejoin="round"/>
    <path d="M 269.43231201171875 266.02032470703125 C 287.0770568847656 261.8857727050781 298.2987976074219 275.84051513671875 279.8475646972656 254.63563537597656 C 231.6253662109375 238.73709106445312 227.2429962158203 240.28817749023438 252.07080078125 201.1923828125 C 249.9627227783203 184.68157958984375 259.72064208984375 175.59378051757812 269.3102111816406 192.05897521972656 C 271.3704528808594 177.00128173828125 260.5118103027344 202.48428344726562 269.43231201171875 266.02032470703125" stroke-width="0.0" fill="rgb(120, 70, 186)" opacity="0.48694706" stroke="rgb(0, 0, 0)" stroke-opacity="1.0" stroke-linecap="round" stroke-linejoin="round"/>
    <path d="M 341.822265625 356.6496276855469 C 278.4053039550781 349.7608947753906 277.9776916503906 405.2822265625 294.85491943359375 427.3404846191406 C 295.81951904296875 399.71044921875 288.8873291015625 427.6602478027344 309.7952880859375 462.0187072753906 C 316.23577880859375 488.4636535644531 378.3638610839844 483.8509521484375 347.599365234375 438.0000305175781 C 316.6386413574219 426.713134765625 335.95703125 426.1850891113281 341.822265625 356.6496276855469" stroke-width="0.0" fill="rgb(220, 238, 228)" opacity="0.9421164" stroke="rgb(0, 0, 0)" stroke-opacity="1.0" stroke-linecap="round" stroke-linejoin="round"/>
    <path d="M 318.831787109375 142.42059326171875 C 305.5091857910156 193.97396850585938 279.4564514160156 194.41517639160156 262.2342224121094 207.1938018798828 C 260.3133850097656 175.32557678222656 278.12286376953125 185.2614288330078 264.9461975097656 234.44093322753906 C 256.26580810546875 190.79835510253906 257.7998046875 154.9432830810547 265.0581970214844 153.1514892578125 C 294.9617004394531 124.78781127929688 329.8660583496094 107.48109436035156 318.831787109375 142.42059326171875" stroke-width="0.0" fill="rgb(29, 115, 149)" opacity="0.94299906" stroke="rgb(0, 0, 0)" stroke-opacity="1.0" stroke-linecap="round" stroke-linejoin="round"/>
    <path d="M 405.1946105957031 279.3646545410156 C 446.920166015625 298.7921142578125 445.34674072265625 351.8314208984375 362.2340087890625 348.2779541015625 C 294.42626953125 286.857666015625 299.5017395019531 322.89599609375 321.9176025390625 289.7851867675781 C 356.0526428222656 257.555419921875 351.56719970703125 237.0504913330078 351.51898193359375 237.04617309570312 C 333.9059143066406 284.0362548828125 315.97509765625 298.30352783203125 405.1946105957031 279.3646545410156" stroke-width="0.0" fill="rgb(214, 47, 198)" opacity="0.9896212" stroke="rgb(0, 0, 0)" stroke-opacity="1.0" stroke-linecap="round" stroke-linejoin="round"/>
    <path d="M 200.51536560058594 391.95697021484375 C 195.38516235351562 358.0660400390625 201.9077911376953 380.2308654785156 181.32984924316406 382.55914306640625 C 168.09124755859375 402.1693115234375 142.5386505126953 420.99163818359375 133.9983673095703 402.53424072265625 C 142.60629272460938 335.85565185546875 140.84027099609375 305.7745666503906 166.67137145996094 336.3849182128906 C 177.69039916992188 382.0659484863281 195.7754364013672 397.9461669921875 200.51536560058594 391.95697021484375" stroke-width="0.0" fill="rgb(234, 229, 234)" opacity="0.8827351" stroke="rgb(0, 0, 0)" stroke-opacity="1.0" stroke-linecap="round" stroke-linejoin="round"/>
    <path d="M 211.44558715820312 281.72869873046875 C 208.50833129882812 278.401123046875 168.0457763671875 274.04815673828125 158.02944946289062 281.7203674316406 C 140.3502655029297 309.4858093261719 149.93096923828125 294.17144775390625 155.84890747070312 260.02703857421875 C 158.2312774658203 272.25189208984375 160.64968872070312 246.2765350341797 169.9901885986328 234.67672729492188 C 183.88063049316406 247.86830139160156 199.40994262695312 242.4206085205078 211.44558715820312 281.72869873046875" stroke-width="0.0" fill="rgb(199, 10, 213)" opacity="0.73671657" stroke="rgb(0, 0, 0)" stroke-opacity="1.0" stroke-linecap="round" stroke-linejoin="round"/>
    <path d="M 383.6160888671875 240.13119506835938 C 379.1325378417969 251.31097412109375 377.7242736816406 271.3895263671875 349.00946044921875 267.34814453125 C 323.4026184082031 244.13922119140625 323.4993591308594 230.2093048095703 320.17254638671875 244.15541076660156 C 314.3671569824219 244.24789428710938 322.20892333984375 240.65411376953125 320.0565185546875 226.8982391357422 C 325.2242126464844 238.2803192138672 336.935791015625 250.13511657714844 383.6160888671875 240.13119506835938" stroke-width="0.0" fill="rgb(231, 99, 115)" opacity="1.0" stroke="rgb(0, 0, 0)" stroke-opacity="1.0" stroke-linecap="round" stroke-linejoin="round"/>
    <path d="M 169.8123779296875 425.31256103515625 C 173.8416748046875 420.90771484375 180.15992736816406 442.3088073730469 151.95077514648438 440.440673828125 C 138.485595703125 436.76361083984375 140.90635681152344 434.3404541015625 135.1923370361328 414.67413330078125 C 143.3624267578125 369.8293762207031 142.5966339111328 357.0910949707031 168.9242401123047 394.5692443847656 C 160.62203979492188 419.0600280761719 162.1219024658203 399.2083435058594 169.8123779296875 425.31256103515625" stroke-width="0.0" fill="rgb(207, 242, 224)" opacity="0.98662233" stroke="rgb(0, 0, 0)" stroke-opacity="1.0" stroke-linecap="round" stroke-linejoin="round"/>
    <path d="M 350.1471252441406 375.4776611328125 C 343.2713317871094 388.5508117675781 346.75299072265625 409.52349853515625 327.63336181640625 394.38818359375 C 319.0439147949219 434.14666748046875 309.4704895019531 417.4318542480469 326.5089416503906 399.97509765625 C 327.6336975097656 396.16357421875 343.0594482421875 384.41375732421875 341.9905700683594 352.915771484375 C 349.4611511230469 342.9582214355469 369.4280700683594 356.5605163574219 350.1471252441406 375.4776611328125" stroke-width="0.0" fill="rgb(52, 127, 110)" opacity="0.98201615" stroke="rgb(0, 0, 0)" stroke-opacity="1.0" stroke-linecap="round" stroke-linejoin="round"/>
    <path d="M 196.23333740234375 425.8104248046875 C 201.02389526367188 457.15771484375 207.3882598876953 465.8917236328125 183.609375 456.8196716308594 C 160.18360900878906 453.702392578125 144.239990234375 454.034912109375 141.25498962402344 468.8113098144531 C 141.7899932861328 436.88421630859375 155.2160186767578 421.8063659667969 178.51820373535156 455.19091796875 C 179.0234375 450.2538757324219 182.9862060546875 432.3858642578125 196.23333740234375 425.8104248046875" stroke-width="0.0" fill="rgb(44, 23, 162)" opacity="0.0" stroke="rgb(0, 0, 0)" stroke-opacity="1.0" stroke-linecap="round" stroke-linejoin="round"/>
    <path d="M 141.9141387939453 443.339111328125 C 172.75135803222656 407.151123046875 178.41348266601562 421.3839416503906 175.94528198242188 434.8688659667969 C 173.84951782226562 445.3965148925781 147.4691162109375 443.2349548339844 162.24392700195312 422.68121337890625 C 165.56417846679688 462.1437072753906 192.30120849609375 440.119873046875 201.39151000976562 426.822998046875 C 165.7507781982422 434.1155700683594 167.63143920898438 461.9110107421875 141.9141387939453 443.339111328125" stroke-width="0.0" fill="rgb(150, 0, 155)" opacity="0.019468943" stroke="rgb(0, 0, 0)" stroke-opacity="1.0" stroke-linecap="round" stroke-linejoin="round"/>
    <path d="M 252.58770751953125 246.24171447753906 C 228.02377319335938 263.28594970703125 218.67022705078125 261.14154052734375 201.3122100830078 240.12802124023438 C 192.51138305664062 249.53494262695312 186.06478881835938 262.30322265625 180.20046997070312 265.19012451171875 C 193.39364624023438 275.50054931640625 195.174560546875 246.28704833984375 182.3679656982422 243.59034729003906 C 207.18197631835938 215.9907989501953 228.4796142578125 202.4425811767578 252.58770751953125 246.24171447753906" stroke-width="0.0" fill="rgb(219, 2, 122)" opacity="0.37325045" stroke="rgb(0, 0, 0)" stroke-opacity="1.0" stroke-linecap="round" stroke-linejoin="round"/>
    <path d="M 318.7811279296875 233.48431396484375 C 327.1923522949219 305.3211975097656 328.2285461425781 319.7596130371094 289.40771484375 289.15753173828125 C 262.3284912109375 274.8323669433594 247.2882537841797 292.466796875 271.19482421875 259.86065673828125 C 264.8321228027344 229.02471923828125 233.07015991210938 256.8613586425781 266.4564208984375 268.76129150390625 C 319.83038330078125 256.79034423828125 326.10784912109375 276.9061584472656 318.7811279296875 233.48431396484375" stroke-width="0.0" fill="rgb(98, 73, 249)" opacity="0.7147695" stroke="rgb(0, 0, 0)" stroke-opacity="1.0" stroke-linecap="round" stroke-linejoin="round"/>
    <path d="M 202.3107147216797 340.63360595703125 C 214.60910034179688 360.019775390625 219.2405548095703 392.66375732421875 156.2453155517578 390.7239990234375 C 129.35476684570312 382.3839416503906 144.7391815185547 369.4682922363281 152.48562622070312 352.4621276855469 C 140.1437530517578 328.3440856933594 142.53518676757812 286.6766052246094 152.06146240234375 299.5990905761719 C 182.52711486816406 312.0497131347656 206.4379119873047 323.3183288574219 202.3107147216797 340.63360595703125" stroke-width="0.0" fill="rgb(190, 221, 223)" opacity="0.93317264" stroke="rgb(0, 0, 0)" stroke-opacity="1.0" stroke-linecap="round" stroke-linejoin="round"/>
    <path d="M 99.4464340209961 435.0484313964844 C 94.69529724121094 453.9851379394531 83.43189239501953 451.5654296875 47.869850158691406 450.65740966796875 C 70.56097412109375 441.8382568359375 80.01668548583984 433.1367492675781 61.10649108886719 441.208984375 C 91.85526275634766 433.4203186035156 112.8159408569336 422.9065246582031 69.89081573486328 413.90966796875 C 84.1056900024414 414.4728088378906 97.25390625 423.03009033203125 99.4464340209961 435.0484313964844" stroke-width="0.0" fill="rgb(5, 32, 175)" opacity="0.008733625" stroke="rgb(0, 0, 0)" stroke-opacity="1.0" stroke-linecap="round" stroke-linejoin="round"/>
    <path d="M 490.7654113769531 547.45654296875 C 423.8750305175781 526.7880249023438 420.2095031738281 503.02093505859375 441.9362487792969 451.62066650390625 C 402.1966247558594 458.40673828125 400.6339111328125 462.7437438964844 417.2664794921875 400.6341552734375 C 433.8011474609375 390.2492980957031 450.8512878417969 409.2685852050781 454.63702392578125 434.2041015625 C 466.9779052734375 426.8031921386719 523.744873046875 446.2973327636719 490.7654113769531 547.45654296875" stroke-width="0.0" fill="rgb(44, 29, 205)" opacity="0.042293824" stroke="rgb(0, 0, 0)" stroke-opacity="1.0" stroke-linecap="round" stroke-linejoin="round"/>
    <path d="M 243.47067260742188 87.45768737792969 C 244.05731201171875 125.8875732421875 237.35043334960938 118.82813262939453 208.1416015625 104.6257095336914 C 219.8123016357422 76.57402038574219 203.33251953125 56.86380386352539 191.60948181152344 80.0010986328125 C 205.09934997558594 71.54033660888672 199.89317321777344 60.929161071777344 207.94215393066406 90.23577880859375 C 218.10887145996094 64.60692596435547 227.5213165283203 73.17830657958984 243.47067260742188 87.45768737792969" stroke-width="0.0" fill="rgb(66, 1, 172)" opacity="0.037525956" stroke="rgb(0, 0, 0)" stroke-opacity="1.0" stroke-linecap="round" stroke-linejoin="round"/>
    <path d="M 142.3775634765625 162.27581787109375 C 161.9769287109375 164.61602783203125 174.0400848388672 225.71067810058594 116.72076416015625 218.1717987060547 C 108.12047576904297 170.04690551757812 90.1513900756836 161.6448516845703 103.56222534179688 163.6294403076172 C 121.87527465820312 130.44557189941406 123.03112030029297 89.87764739990234 122.34974670410156 95.51763916015625 C 106.21965789794922 137.9062042236328 125.477783203125 140.0478057861328 142.3775634765625 162.27581787109375" stroke-width="0.0" fill="rgb(86, 80, 0)" opacity="0.24965692" stroke="rgb(0, 0, 0)" stroke-opacity="1.0" stroke-linecap="round" stroke-linejoin="round"/>
    <path d="M 68.72042083740234 437.8741149902344 C 76.141845703125 489.6764221191406 78.63623046875 460.85150146484375 81.29374694824219 473.4565734863281 C 68.1663589477539 466.9850769042969 56.7416877746582 446.484619140625 55.18131637573242 451.2243347167969 C 51.76536560058594 459.3163757324219 61.494407653808594 436.33587646484375 65.70624542236328 439.5355224609375 C 74.62675476074219 460.7518615722656 106.17869567871094 450.2781982421875 68.72042083740234 437.8741149902344" stroke-width="0.0" fill="rgb(17, 8, 231)" opacity="0.014363242" stroke="rgb(0, 0, 0)" stroke-opacity="1.0" stroke-linecap="round" stroke-linejoin="round"/>
    <path d="M 466.6341247558594 488.32452392578125 C 473.5384216308594 513.5094604492188 475.75274658203125 536.4606323242188 442.54901123046875 542.5813598632812 C 406.9502868652344 497.0142822265625 427.7645568847656 482.26263427734375 433.4534912109375 460.1357116699219 C 439.2782287597656 477.6254577636719 453.5337219238281 476.9983215332031 482.136962890625 470.7766418457031 C 456.74151611328125 477.953857421875 472.94940185546875 468.0045471191406 466.6341247558594 488.32452392578125" stroke-width="0.0" fill="rgb(34, 29, 186)" opacity="0.016946841" stroke="rgb(0, 0, 0)" stroke-opacity="1.0" stroke-linecap="round" stroke-linejoin="round"/>
    <path d="M 151.10313415527344 19.540935516357422 C 131.55050659179688 38.761680603027344 137.36045837402344 58.263877868652344 121.50201416015625 40.92425537109375 C 128.26431274414062 35.23883819580078 117.87931060791016 44.843658447265625 121.21035766601562 53.040916442871094 C 103.4753646850586 10.27467155456543 131.6410369873047 6.4670844078063965 142.51380920410156 4.9663004875183105 C 126.31480407714844 25.433570861816406 129.46563720703125 23.93703842163086 151.10313415527344 19.540935516357422" stroke-width="0.0" fill="rgb(68, 38, 169)" opacity="0.032509357" stroke="rgb(0, 0, 0)" stroke-opacity="1.0" stroke-linecap="round" stroke-linejoin="round"/>
    <path d="M 44.74162673950195 321.75238037109375 C 43.79309844970703 312.1648254394531 28.465099334716797 311.7856750488281 27.49785804748535 340.7754821777344 C 23.861928939819336 347.75128173828125 8.03628158569336 339.4089660644531 9.825920104980469 320.9213562011719 C 11.638755798339844 271.47747802734375 13.165027618408203 268.6344299316406 30.5627384185791 301.1566467285156 C 46.737998962402344 310.3656005859375 44.954952239990234 315.8139343261719 44.74162673950195 321.75238037109375" stroke-width="0.0" fill="rgb(29, 69, 186)" opacity="0.11294591" stroke="rgb(0, 0, 0)" stroke-opacity="1.0" stroke-linecap="round" stroke-linejoin="round"/>
    <path d="M 404.175048828125 466.8164978027344 C 363.5787048339844 474.9091491699219 373.7048645019531 411.4446105957031 353.5939636230469 428.25140380859375 C 377.515380859375 432.6601867675781 380.3187561035156 442.228515625 383.3855895996094 429.1980285644531 C 376.9018249511719 421.8215637207031 364.7063903808594 420.5982971191406 391.93072509765625 448.3272399902344 C 409.1565246582031 457.14910888671875 418.4070129394531 456.0942687988281 404.175048828125 466.8164978027344" stroke-width="0.0" fill="rgb(78, 45, 126)" opacity="0.04322291" stroke="rgb(0, 0, 0)" stroke-opacity="1.0" stroke-linecap="round" stroke-linejoin="round"/>
    <path d="M 143.3983917236328 440.6207275390625 C 144.03012084960938 440.475341796875 117.06361389160156 462.976806640625 94.46553039550781 438.8969421386719 C 105.1086196899414 465.3822021484375 98.73385620117188 452.239013671875 81.99132537841797 437.6435546875 C 90.6930923461914 428.50933837890625 100.91554260253906 423.8756408691406 116.5364761352539 411.4053955078125 C 128.9051971435547 439.450439453125 129.20028686523438 458.02374267578125 143.3983917236328 440.6207275390625" stroke-width="0.0" fill="rgb(29, 33, 220)" opacity="0.49915394" stroke="rgb(0, 0, 0)" stroke-opacity="1.0" stroke-linecap="round" stroke-linejoin="round"/>
    <path d="M 248.5275115966797 -4.085628509521484 C 277.558837890625 14.10927677154541 255.59823608398438 31.897804260253906 239.62820434570312 37.55085754394531 C 243.8788299560547 54.614166259765625 222.95236206054688 51.2862663269043 222.21299743652344 53.951786041259766 C 217.18771362304688 27.279170989990234 241.4410400390625 35.02311325073242 234.2344512939453 21.626035690307617 C 240.77313232421875 16.775821685791016 244.8443603515625 41.91164779663086 248.5275115966797 -4.085628509521484" stroke-width="0.0" fill="rgb(73, 11, 150)" opacity="0.048748467" stroke="rgb(0, 0, 0)" stroke-opacity="1.0" stroke-linecap="round" stroke-linejoin="round"/>
    <path d="M 121.21581268310547 343.05804443359375 C 119.84095764160156 353.11541748046875 119.63470458984375 354.6567077636719 114.96993255615234 342.0141296386719 C 107.07596588134766 347.3866271972656 81.98567962646484 339.6331481933594 94.41305541992188 329.7706298828125 C 79.40892791748047 328.346923828125 103.12963104248047 327.1512145996094 122.63499450683594 313.4025573730469 C 138.12103271484375 315.8143005371094 129.7680206298828 315.3740234375 121.21581268310547 343.05804443359375" stroke-width="0.0" fill="rgb(42, 23, 155)" opacity="0.0" stroke="rgb(0, 0, 0)" stroke-opacity="1.0" stroke-linecap="round" stroke-linejoin="round"/>
    <path d="M 525.6272583007812 214.92208862304688 C 494.8536682128906 226.04588317871094 455.1609802246094 237.45262145996094 490.043701171875 232.54776000976562 C 490.4659423828125 218.01771545410156 475.9782409667969 221.9553680419922 483.15606689453125 188.83786010742188 C 480.3154296875 206.46243286132812 511.1406555175781 221.40618896484375 518.1314086914062 206.4695587158203 C 512.2349853515625 189.71363830566406 513.7122802734375 199.32720947265625 525.6272583007812 214.92208862304688" stroke-width="0.0" fill="rgb(50, 25, 119)" opacity="0.0057295384" stroke="rgb(0, 0, 0)" stroke-opacity="1.0" stroke-linecap="round" stroke-linejoin="round"/>
    <path d="M 522.1820678710938 19.6908016204834 C 496.9438781738281 73.58203887939453 467.6184387207031 71.65319061279297 493.6561279296875 56.51188278198242 C 522.0562744140625 75.23551940917969 492.6416015625 94.27639770507812 484.6264343261719 75.65925598144531 C 472.0029296875 91.72747039794922 524.8275756835938 116.75325775146484 506.5959167480469 86.99009704589844 C 481.7583923339844 22.78938102722168 507.3308410644531 -3.0922789573669434 522.1820678710938 19.6908016204834" stroke-width="0.0" fill="rgb(40, 49, 102)" opacity="0.0013710347" stroke="rgb(0, 0, 0)" stroke-opacity="1.0" stroke-linecap="round" stroke-linejoin="round"/>
    <path d="M 26.058156967163086 187.1957550048828 C 29.902835845947266 185.42747497558594 14.057066917419434 162.71646118164062 -8.08935546875 185.09478759765625 C -3.7730679512023926 200.50340270996094 22.34299659729004 182.5508270263672 19.006969451904297 190.93215942382812 C 18.605255126953125 188.6465301513672 52.93474578857422 167.13023376464844 36.38401412963867 178.34158325195312 C 17.335186004638672 209.17076110839844 22.949060440063477 201.73133850097656 26.058156967163086 187.1957550048828" stroke-width="0.0" fill="rgb(17, 72, 173)" opacity="0.006479644" stroke="rgb(0, 0, 0)" stroke-opacity="1.0" stroke-linecap="round" stroke-linejoin="round"/>
    <path d="M 130.5959930419922 325.3211669921875 C 116.94115447998047 335.1321716308594 83.91243743896484 354.2555847167969 107.23573303222656 353.7083435058594 C 91.11874389648438 349.79046630859375 69.24713134765625 343.00335693359375 80.8302230834961 318.99749755859375 C 87.99784851074219 320.76202392578125 105.207275390625 321.87548828125 109.02118682861328 300.13201904296875 C 106.29619598388672 305.6136779785156 113.4118423461914 321.35235595703125 130.5959930419922 325.3211669921875" stroke-width="0.0" fill="rgb(37, 67, 179)" opacity="0.019928256" stroke="rgb(0, 0, 0)" stroke-opacity="1.0" stroke-linecap="round" stroke-linejoin="round"/>
    <path d="M 58.87331771850586 81.8111572265625 C 49.14939880371094 88.75525665283203 49.263526916503906 95.16439056396484 4.559937477111816 56.48086929321289 C 7.7115936279296875 130.50582885742188 18.545164108276367 159.66409301757812 -19.028409957885742 106.69519805908203 C -5.382014751434326 30.19747543334961 -1.6991766691207886 30.286775588989258 -7.652501106262207 57.488346099853516 C 31.591455459594727 63.583961486816406 55.93845748901367 73.5336685180664 58.87331771850586 81.8111572265625" stroke-width="0.0" fill="rgb(25, 53, 167)" opacity="0.024581896" stroke="rgb(0, 0, 0)" stroke-opacity="1.0" stroke-linecap="round" stroke-linejoin="round"/>
    <path d="M 156.14328002929688 148.4693145751953 C 162.12014770507812 162.1140899658203 161.43490600585938 176.47230529785156 160.07479858398438 218.48712158203125 C 135.81253051757812 185.52015686035156 125.1083984375 181.30604553222656 141.1561279296875 184.66073608398438 C 143.2436065673828 167.51463317871094 140.3328857421875 147.60862731933594 128.988525390625 159.26795959472656 C 144.63426208496094 160.67440795898438 124.18070983886719 148.86895751953125 156.14328002929688 148.4693145751953" stroke-width="0.0" fill="rgb(48, 46, 99)" opacity="0.059006255" stroke="rgb(0, 0, 0)" stroke-opacity="1.0" stroke-linecap="round" stroke-linejoin="round"/>
    <path d="M 202.21389770507812 394.7696838378906 C 244.64483642578125 405.00689697265625 212.93666076660156 427.7752380371094 179.65725708007812 406.4090270996094 C 174.8593292236328 401.2530212402344 170.88523864746094 402.9059143066406 167.88800048828125 402.79315185546875 C 181.4924774169922 391.4566955566406 187.99368286132812 379.8310546875 219.14479064941406 344.13848876953125 C 176.6784210205078 354.25689697265625 190.14019775390625 383.3510437011719 202.21389770507812 394.7696838378906" stroke-width="0.0" fill="rgb(182, 160, 91)" opacity="0.48796025" stroke="rgb(0, 0, 0)" stroke-opacity="1.0" stroke-linecap="round" stroke-linejoin="round"/>
    <path d="M 54.80660629272461 206.61947631835938 C 33.839839935302734 206.08303833007812 19.351898193359375 216.85888671875 28.138076782226562 194.54736328125 C 14.955594062805176 204.25213623046875 -10.24006462097168 219.02088928222656 -28.564619064331055 209.81178283691406 C -26.920059204101562 209.81832885742188 8.793907165527344 218.90333557128906 38.762516021728516 216.08897399902344 C 37.60688400268555 199.0035858154297 44.733070373535156 221.75050354003906 54.80660629272461 206.61947631835938" stroke-width="0.0" fill="rgb(20, 59, 171)" opacity="0.20066632" stroke="rgb(0, 0, 0)" stroke-opacity="1.0" stroke-linecap="round" stroke-linejoin="round"/>
    <path d="M 74.83560180664062 56.3181037902832 C 82.43102264404297 64.82933044433594 84.40156555175781 65.00084686279297 48.62523651123047 60.69173812866211 C 59.94536590576172 55.99754333496094 66.40470123291016 50.70854187011719 57.15536880493164 74.0822525024414 C 29.022279739379883 49.549163818359375 31.448362350463867 32.85734558105469 80.78685760498047 29.104896545410156 C 79.18949127197266 30.73892593383789 82.55052185058594 45.39638900756836 74.83560180664062 56.3181037902832" stroke-width="0.0" fill="rgb(39, 51, 188)" opacity="0.070450015" stroke="rgb(0, 0, 0)" stroke-opacity="1.0" stroke-linecap="round" stroke-linejoin="round"/>
    <path d="M 34.819854736328125 183.36827087402344 C 49.31174087524414 190.4488983154297 38.34457778930664 198.19496154785156 28.104284286499023 204.24708557128906 C 45.21907043457031 199.72207641601562 6.7289862632751465 205.8854522705078 6.967694282531738 191.81863403320312 C 20.850915908813477 176.79119873046875 35.42323303222656 163.1137237548828 28.7668514251709 178.6812286376953 C 40.348541259765625 185.32156372070312 49.73061752319336 186.83740234375 34.819854736328125 183.36827087402344" stroke-width="0.0" fill="rgb(29, 34, 202)" opacity="0.049587674" stroke="rgb(0, 0, 0)" stroke-opacity="1.0" stroke-linecap="round" stroke-linejoin="round"/>
    <path d="M 371.0049133300781 338.9684753417969 C 370.45513916015625 373.09869384765625 358.0274353027344 357.1640319824219 335.65924072265625 359.04486083984375 C 311.10943603515625 352.6503601074219 289.34930419921875 341.15777587890625 296.7186279296875 315.7078552246094 C 241.0133819580078 313.6539001464844 234.9646453857422 248.9146728515625 269.42919921875 266.7338562011719 C 312.92315673828125 306.2529296875 341.2727355957031 295.9779968261719 371.0049133300781 338.9684753417969" stroke-width="0.0" fill="rgb(227, 16, 244)" opacity="0.9406688" stroke="rgb(0, 0, 0)" stroke-opacity="1.0" stroke-linecap="round" stroke-linejoin="round"/>
    <path d="M 349.74462890625 438.1642761230469 C 394.7369384765625 420.0307922363281 400.6073303222656 395.3707580566406 379.9295349121094 455.3888244628906 C 353.6266174316406 440.2598571777344 338.0342102050781 421.98931884765625 372.6079406738281 418.03399658203125 C 357.3057556152344 364.95574951171875 353.08935546875 339.3384704589844 366.118896484375 369.32257080078125 C 354.2278747558594 422.14654541015625 365.9176940917969 379.2572937011719 349.74462890625 438.1642761230469" stroke-width="0.0" fill="rgb(83, 79, 185)" opacity="0.06927299" stroke="rgb(0, 0, 0)" stroke-opacity="1.0" stroke-linecap="round" stroke-linejoin="round"/>
    <path d="M 315.53790283203125 418.7283630371094 C 321.27789306640625 409.7163391113281 307.86444091796875 420.1324157714844 314.14453125 415.53106689453125 C 316.81158447265625 410.1654357910156 315.16375732421875 401.2345886230469 321.1424255371094 396.5101013183594 C 317.00714111328125 395.9397277832031 341.712890625 385.8690185546875 333.035400390625 401.537841796875 C 314.7396545410156 403.13360595703125 324.87005615234375 394.4002990722656 315.53790283203125 418.7283630371094" stroke-width="0.0" fill="rgb(136, 255, 120)" opacity="0.12399201" stroke="rgb(0, 0, 0)" stroke-opacity="1.0" stroke-linecap="round" stroke-linejoin="round"/>
    <path d="M 495.7962341308594 270.9945983886719 C 533.632080078125 256.67181396484375 506.85101318359375 269.0612487792969 513.6436767578125 261.1846618652344 C 495.239013671875 249.10357666015625 490.9237976074219 236.40101623535156 478.5883483886719 238.70068359375 C 479.0943908691406 236.72280883789062 469.9449462890625 226.47776794433594 483.2484436035156 234.40084838867188 C 487.8051452636719 243.7481689453125 488.6142272949219 256.91778564453125 495.7962341308594 270.9945983886719" stroke-width="0.0" fill="rgb(51, 9, 178)" opacity="0.0" stroke="rgb(0, 0, 0)" stroke-opacity="1.0" stroke-linecap="round" stroke-linejoin="round"/>
    <path d="M 410.1632385253906 126.29283905029297 C 420.35498046875 139.75889587402344 419.297119140625 171.84625244140625 442.0259094238281 144.85289001464844 C 419.2306213378906 147.4896240234375 412.7274169921875 143.87071228027344 422.2062072753906 146.17372131347656 C 410.37158203125 141.50912475585938 389.6172180175781 128.16307067871094 396.3959655761719 106.7330322265625 C 448.9183044433594 86.47236633300781 428.4637756347656 89.42356872558594 410.1632385253906 126.29283905029297" stroke-width="0.0" fill="rgb(121, 131, 53)" opacity="0.016537914" stroke="rgb(0, 0, 0)" stroke-opacity="1.0" stroke-linecap="round" stroke-linejoin="round"/>
  </g>
</svg>
