<?xml version="1.0" ?>
<svg xmlns="http://www.w3.org/2000/svg" version="1.1" width="512" height="512">
  <defs/>
  <g>
    <path d="M 541.0415649414062 443.9388122558594 C 548.0579833984375 517.3278198242188 548.9373779296875 525.5354614257812 388.4120178222656 532.198486328125 C 312.4812316894531 568.4536743164062 291.1589050292969 571.1275634765625 289.0792236328125 516.9744262695312 C 338.406494140625 344.1103820800781 391.34063720703125 353.42059326171875 497.96209716796875 315.86956787109375 C 566.6990966796875 303.1302185058594 568.5614624023438 315.3426818847656 541.0415649414062 443.9388122558594" stroke-width="0.0" fill="rgb(45, 17, 167)" opacity="0.8250423" stroke="rgb(0, 0, 0)" stroke-opacity="1.0" stroke-linecap="round" stroke-linejoin="round"/>
    <path d="M 295.0528564453125 440.995849609375 C 345.7999572753906 524.0011596679688 332.3260192871094 542.7572631835938 128.88772583007812 541.3392333984375 C -51.20000076293945 517.7235107421875 -51.20000076293945 507.83367919921875 -21.774600982666016 449.183837890625 C -18.38620376586914 205.44985961914062 -18.693912506103516 199.01014709472656 -10.325875282287598 246.1165771484375 C 213.88955688476562 301.300048828125 275.7681579589844 229.81187438964844 295.0528564453125 440.995849609375" stroke-width="0.0" fill="rgb(9, 17, 177)" opacity="0.95789427" stroke="rgb(0, 0, 0)" stroke-opacity="1.0" stroke-linecap="round" stroke-linejoin="round"/>
    <path d="M 275.9747009277344 251.4271240234375 C 171.94895935058594 397.8496398925781 199.7140655517578 457.1523132324219 181.02145385742188 387.9046630859375 C 69.64029693603516 361.0520324707031 36.22962188720703 388.37518310546875 49.195457458496094 163.18162536621094 C -30.954547882080078 141.33067321777344 11.940659523010254 156.50621032714844 125.57508850097656 109.06072235107422 C 288.1575622558594 112.79847717285156 313.025146484375 106.48052215576172 275.9747009277344 251.4271240234375" stroke-width="0.0" fill="rgb(211, 106, 2)" opacity="0.7673236" stroke="rgb(0, 0, 0)" stroke-opacity="1.0" stroke-linecap="round" stroke-linejoin="round"/>
    <path d="M 267.3014831542969 13.50012493133545 C 260.7943115234375 203.58250427246094 220.83119201660156 165.6595001220703 34.58655548095703 197.515625 C -7.314225673675537 182.05593872070312 -30.904752731323242 176.9609375 -47.0986213684082 63.97716522216797 C -14.989005088806152 -15.722881317138672 -7.218327522277832 -19.66063117980957 57.22660446166992 -11.03445053100586 C 186.0545654296875 -18.804243087768555 231.86050415039062 -44.483001708984375 267.3014831542969 13.50012493133545" stroke-width="0.0" fill="rgb(11, 4, 193)" opacity="0.9407218" stroke="rgb(0, 0, 0)" stroke-opacity="1.0" stroke-linecap="round" stroke-linejoin="round"/>
    <path d="M 536.7553100585938 53.347103118896484 C 439.30584716796875 284.4842529296875 451.1888427734375 303.0091247558594 400.0794677734375 314.47698974609375 C 238.952392578125 324.3491516113281 218.87973022460938 377.2777404785156 222.5638885498047 241.82273864746094 C 228.20262145996094 47.821563720703125 193.5842742919922 -11.310578346252441 309.2989807128906 -55.47725296020508 C 563.2000122070312 -6.244815349578857 563.2000122070312 4.452378749847412 536.7553100585938 53.347103118896484" stroke-width="0.0" fill="rgb(41, 7, 199)" opacity="0.9883228" stroke="rgb(0, 0, 0)" stroke-opacity="1.0" stroke-linecap="round" stroke-linejoin="round"/>
    <path d="M 500.4899597167969 352.6716003417969 C 505.0000305175781 426.30303955078125 501.93975830078125 509.75537109375 293.9142150878906 546.9315185546875 C 185.8252716064453 558.6504516601562 200.216796875 528.1594848632812 232.24456787109375 445.6009521484375 C 221.16265869140625 207.1457977294922 269.38031005859375 212.41253662109375 293.978515625 259.697509765625 C 411.9712829589844 279.3686828613281 467.0564270019531 277.07861328125 500.4899597167969 352.6716003417969" stroke-width="0.0" fill="rgb(0, 27, 155)" opacity="0.99982953" stroke="rgb(0, 0, 0)" stroke-opacity="1.0" stroke-linecap="round" stroke-linejoin="round"/>
    <path d="M 551.8313598632812 214.0611114501953 C 562.8489379882812 316.7921142578125 549.2802734375 308.7132568359375 474.06378173828125 326.40576171875 C 396.2188415527344 347.0402526855469 424.57373046875 325.6038818359375 395.2516784667969 228.7671356201172 C 414.7934875488281 96.4749984741211 375.96240234375 65.1832504272461 512.002197265625 77.18794250488281 C 555.2783203125 69.73639678955078 561.7838745117188 113.63848114013672 551.8313598632812 214.0611114501953" stroke-width="0.0" fill="rgb(38, 31, 143)" opacity="1.0" stroke="rgb(0, 0, 0)" stroke-opacity="1.0" stroke-linecap="round" stroke-linejoin="round"/>
    <path d="M 241.40501403808594 285.55902099609375 C 257.3979187011719 291.4199523925781 274.12139892578125 294.225341796875 218.55540466308594 377.46051025390625 C 217.22772216796875 349.9918518066406 216.36328125 342.73309326171875 182.64950561523438 255.04249572753906 C 130.04074096679688 182.2992401123047 134.5848388671875 197.38011169433594 248.14698791503906 183.98468017578125 C 248.57870483398438 186.78981018066406 233.974365234375 224.80796813964844 241.40501403808594 285.55902099609375" stroke-width="0.0" fill="rgb(25, 39, 155)" opacity="0.99693936" stroke="rgb(0, 0, 0)" stroke-opacity="1.0" stroke-linecap="round" stroke-linejoin="round"/>
    <path d="M 314.347900390625 91.75873565673828 C 284.4167785644531 131.27920532226562 267.9347229003906 131.64324951171875 249.3612823486328 117.56565856933594 C 236.30909729003906 122.10045623779297 231.08352661132812 111.8943099975586 225.13563537597656 78.13446807861328 C 234.91433715820312 56.4628791809082 228.11837768554688 47.16799545288086 231.08819580078125 94.79596710205078 C 241.82655334472656 108.09326171875 296.8717956542969 75.00179290771484 314.347900390625 91.75873565673828" stroke-width="0.0" fill="rgb(253, 245, 255)" opacity="0.9867171" stroke="rgb(0, 0, 0)" stroke-opacity="1.0" stroke-linecap="round" stroke-linejoin="round"/>
    <path d="M 208.8209228515625 334.3126220703125 C 159.36090087890625 497.3267517089844 205.30377197265625 494.1704406738281 171.29244995117188 491.0724792480469 C 173.57940673828125 465.2772521972656 165.4539031982422 390.2785339355469 147.71119689941406 328.1944580078125 C 191.7452392578125 329.7891845703125 152.9864044189453 325.29193115234375 162.10423278808594 360.5137939453125 C 190.68856811523438 368.9988708496094 184.87930297851562 356.02655029296875 208.8209228515625 334.3126220703125" stroke-width="0.0" fill="rgb(248, 208, 11)" opacity="0.9298613" stroke="rgb(0, 0, 0)" stroke-opacity="1.0" stroke-linecap="round" stroke-linejoin="round"/>
    <path d="M 220.25762939453125 207.411865234375 C 207.68727111816406 267.1026916503906 190.2716064453125 338.56292724609375 201.64320373535156 318.7304992675781 C 106.07118225097656 347.28662109375 218.91659545898438 342.1435241699219 192.08863830566406 284.50347900390625 C 61.606990814208984 154.38258361816406 64.54061126708984 186.10906982421875 227.46974182128906 75.88778686523438 C 126.16910552978516 203.3521270751953 198.93777465820312 111.94220733642578 220.25762939453125 207.411865234375" stroke-width="0.0" fill="rgb(241, 237, 15)" opacity="0.9851396" stroke="rgb(0, 0, 0)" stroke-opacity="1.0" stroke-linecap="round" stroke-linejoin="round"/>
    <path d="M 168.0953369140625 284.50677490234375 C 127.1417465209961 285.0375671386719 90.78810119628906 305.9653625488281 94.83487701416016 337.9869079589844 C 118.0911636352539 403.5294189453125 99.31452178955078 387.1926574707031 -25.01435089111328 293.2272644042969 C -49.61665344238281 68.93209838867188 -42.02401351928711 96.76085662841797 106.7550048828125 89.32855987548828 C 188.80018615722656 175.74331665039062 204.0186004638672 196.6318817138672 168.0953369140625 284.50677490234375" stroke-width="0.0" fill="rgb(9, 22, 194)" opacity="0.9989597" stroke="rgb(0, 0, 0)" stroke-opacity="1.0" stroke-linecap="round" stroke-linejoin="round"/>
    <path d="M 222.1744384765625 27.890439987182617 C 221.67971801757812 92.29447174072266 252.25784301757812 120.95750427246094 194.24691772460938 111.51177978515625 C 155.2407989501953 136.0572052001953 76.19746398925781 159.17164611816406 70.74085998535156 67.25173950195312 C 76.08767700195312 -40.7399787902832 81.54780578613281 -42.62569808959961 207.3768310546875 -60.76742172241211 C 226.8699188232422 -17.72825813293457 204.3353271484375 33.56828308105469 222.1744384765625 27.890439987182617" stroke-width="0.0" fill="rgb(42, 20, 207)" opacity="1.0" stroke="rgb(0, 0, 0)" stroke-opacity="1.0" stroke-linecap="round" stroke-linejoin="round"/>
    <path d="M 284.4847106933594 150.07015991210938 C 326.3541259765625 217.1734619140625 342.0220642089844 210.51742553710938 252.74510192871094 203.28384399414062 C 137.42428588867188 208.786376953125 268.20001220703125 166.997802734375 211.35047912597656 104.85887145996094 C 251.04730224609375 52.879329681396484 272.9560852050781 134.42474365234375 319.7547302246094 158.78353881835938 C 277.78143310546875 158.4276885986328 270.2587585449219 130.87265014648438 284.4847106933594 150.07015991210938" stroke-width="0.0" fill="rgb(253, 222, 38)" opacity="0.9998639" stroke="rgb(0, 0, 0)" stroke-opacity="1.0" stroke-linecap="round" stroke-linejoin="round"/>
    <path d="M 98.62890625 315.4184875488281 C 90.34217834472656 329.1148986816406 126.0221176147461 346.5321044921875 90.54885864257812 421.0636291503906 C 97.5798568725586 356.01513671875 89.89073944091797 339.2865905761719 100.19261169433594 321.6018371582031 C 83.09396362304688 307.0093688964844 87.83219146728516 292.8531188964844 75.8697738647461 334.84051513671875 C 54.22434997558594 398.505615234375 7.993153095245361 290.177978515625 98.62890625 315.4184875488281" stroke-width="0.0" fill="rgb(70, 243, 39)" opacity="0.83863837" stroke="rgb(0, 0, 0)" stroke-opacity="1.0" stroke-linecap="round" stroke-linejoin="round"/>
    <path d="M 225.9539031982422 87.49726867675781 C 212.52915954589844 107.6133804321289 127.5904541015625 116.4553451538086 216.1209716796875 134.89048767089844 C 256.53485107421875 42.03636932373047 234.9208984375 137.7117156982422 196.72166442871094 90.02298736572266 C 253.45826721191406 141.62718200683594 225.43739318847656 73.73713684082031 238.4715576171875 27.464588165283203 C 178.6112823486328 27.17098045349121 222.45498657226562 30.8857421875 225.9539031982422 87.49726867675781" stroke-width="0.0" fill="rgb(254, 190, 1)" opacity="0.9835613" stroke="rgb(0, 0, 0)" stroke-opacity="1.0" stroke-linecap="round" stroke-linejoin="round"/>
    <path d="M 286.07318115234375 455.51092529296875 C 231.819091796875 461.66998291015625 223.94839477539062 470.9784240722656 238.23667907714844 449.5918273925781 C 235.47279357910156 456.3438720703125 236.61444091796875 496.7140808105469 206.75823974609375 490.5963439941406 C 180.15126037597656 293.6402282714844 211.59201049804688 319.4673767089844 218.17108154296875 465.3970642089844 C 286.76336669921875 450.7289123535156 289.9626770019531 452.5723876953125 286.07318115234375 455.51092529296875" stroke-width="0.0" fill="rgb(255, 208, 52)" opacity="1.0" stroke="rgb(0, 0, 0)" stroke-opacity="1.0" stroke-linecap="round" stroke-linejoin="round"/>
    <path d="M 166.64146423339844 276.04620361328125 C 172.35646057128906 290.1837463378906 162.44378662109375 323.42486572265625 161.40501403808594 338.1127014160156 C 178.91262817382812 282.6616516113281 189.48910522460938 289.0773620605469 119.79045104980469 309.1158447265625 C 123.59382629394531 298.2018127441406 128.876220703125 318.15118408203125 150.47117614746094 300.8632507324219 C 140.24600219726562 279.3529052734375 141.11553955078125 289.6585998535156 166.64146423339844 276.04620361328125" stroke-width="0.0" fill="rgb(255, 255, 5)" opacity="1.0" stroke="rgb(0, 0, 0)" stroke-opacity="1.0" stroke-linecap="round" stroke-linejoin="round"/>
    <path d="M 221.62525939941406 94.03850555419922 C 228.16722106933594 121.81692504882812 236.17446899414062 143.2035369873047 191.7339630126953 150.72586059570312 C 136.34812927246094 146.6309814453125 145.969970703125 127.82251739501953 188.6374969482422 119.5552749633789 C 209.21759033203125 103.25350952148438 214.924560546875 93.33521270751953 200.8604736328125 92.11566925048828 C 194.5523223876953 68.77101135253906 195.5255584716797 94.94528198242188 221.62525939941406 94.03850555419922" stroke-width="0.0" fill="rgb(255, 240, 33)" opacity="1.0" stroke="rgb(0, 0, 0)" stroke-opacity="1.0" stroke-linecap="round" stroke-linejoin="round"/>
    <path d="M 360.59442138671875 285.992919921875 C 343.5167236328125 310.90557861328125 355.87969970703125 300.16455078125 319.7505187988281 285.08990478515625 C 270.6307678222656 277.43548583984375 298.2557067871094 297.45269775390625 301.0429992675781 239.9733123779297 C 291.3687744140625 233.2635040283203 324.0437316894531 215.81729125976562 358.80938720703125 230.08123779296875 C 380.22857666015625 239.024169921875 368.0302429199219 214.16578674316406 360.59442138671875 285.992919921875" stroke-width="0.0" fill="rgb(64, 3, 219)" opacity="0.9196594" stroke="rgb(0, 0, 0)" stroke-opacity="1.0" stroke-linecap="round" stroke-linejoin="round"/>
    <path d="M 172.75933837890625 298.9745788574219 C 213.66673278808594 303.74310302734375 181.73887634277344 318.0399475097656 166.02276611328125 276.36590576171875 C 148.75421142578125 260.09326171875 153.3505859375 279.7489013671875 141.53428649902344 287.3350524902344 C 160.68145751953125 266.4770812988281 172.32589721679688 242.1748046875 179.9083709716797 175.33058166503906 C 215.81314086914062 204.05670166015625 181.9951171875 238.39974975585938 172.75933837890625 298.9745788574219" stroke-width="0.0" fill="rgb(248, 159, 6)" opacity="0.7657717" stroke="rgb(0, 0, 0)" stroke-opacity="1.0" stroke-linecap="round" stroke-linejoin="round"/>
    <path d="M 203.5596160888672 82.05363464355469 C 221.08006286621094 97.07804870605469 226.01043701171875 112.14203643798828 185.313232421875 112.00785064697266 C 190.87332153320312 107.0438003540039 180.89796447753906 80.28443908691406 170.37942504882812 57.406951904296875 C 138.64207458496094 56.84898376464844 180.28378295898438 22.522541046142578 189.8657684326172 43.055686950683594 C 181.52093505859375 42.441158294677734 202.61767578125 68.66107940673828 203.5596160888672 82.05363464355469" stroke-width="0.0" fill="rgb(255, 226, 3)" opacity="0.99779695" stroke="rgb(0, 0, 0)" stroke-opacity="1.0" stroke-linecap="round" stroke-linejoin="round"/>
    <path d="M 251.85984802246094 439.51898193359375 C 265.2174072265625 445.4654541015625 271.71563720703125 450.5768127441406 263.6842346191406 473.6289367675781 C 238.28590393066406 472.0892333984375 224.352294921875 471.8341369628906 215.5978240966797 495.6750183105469 C 207.2772979736328 448.51153564453125 215.37222290039062 461.3470153808594 242.39125061035156 443.8871154785156 C 248.8619384765625 440.6722412109375 259.2884521484375 440.11920166015625 251.85984802246094 439.51898193359375" stroke-width="0.0" fill="rgb(60, 56, 153)" opacity="0.9816034" stroke="rgb(0, 0, 0)" stroke-opacity="1.0" stroke-linecap="round" stroke-linejoin="round"/>
    <path d="M 359.27655029296875 191.2552490234375 C 362.2203674316406 231.50881958007812 336.21258544921875 246.5069580078125 333.8077697753906 238.55227661132812 C 328.2906188964844 207.21580505371094 314.8043518066406 227.80001831054688 303.4611511230469 213.33523559570312 C 265.6163330078125 238.73843383789062 292.0158386230469 238.88845825195312 330.18988037109375 234.07843017578125 C 352.86456298828125 206.1398468017578 388.0634460449219 207.093994140625 359.27655029296875 191.2552490234375" stroke-width="0.0" fill="rgb(73, 0, 148)" opacity="0.35728154" stroke="rgb(0, 0, 0)" stroke-opacity="1.0" stroke-linecap="round" stroke-linejoin="round"/>
    <path d="M 168.83839416503906 135.044921875 C 182.41615295410156 164.3583221435547 151.24070739746094 167.02577209472656 136.07162475585938 172.703369140625 C 102.70990753173828 165.2467803955078 93.92552947998047 155.69390869140625 83.1082763671875 133.00181579589844 C 71.78191375732422 110.89720916748047 75.22763061523438 95.30516815185547 88.4787826538086 101.85993957519531 C 139.4675750732422 100.38484191894531 170.3946075439453 117.22109985351562 168.83839416503906 135.044921875" stroke-width="0.0" fill="rgb(244, 251, 246)" opacity="0.981198" stroke="rgb(0, 0, 0)" stroke-opacity="1.0" stroke-linecap="round" stroke-linejoin="round"/>
    <path d="M 146.20274353027344 361.13018798828125 C 136.8274688720703 402.20855712890625 123.00895690917969 413.60858154296875 101.49427795410156 441.0514831542969 C 101.84033203125 392.28955078125 100.64234924316406 384.2690734863281 95.86719512939453 377.4571533203125 C 78.15703582763672 329.4338073730469 95.78473663330078 301.860595703125 134.6171417236328 313.65765380859375 C 115.62633514404297 318.2823181152344 131.12879943847656 344.9447021484375 146.20274353027344 361.13018798828125" stroke-width="0.0" fill="rgb(255, 188, 20)" opacity="0.83347607" stroke="rgb(0, 0, 0)" stroke-opacity="1.0" stroke-linecap="round" stroke-linejoin="round"/>
    <path d="M 117.11477661132812 422.88128662109375 C 122.33114624023438 510.60455322265625 152.2806396484375 490.4968566894531 86.65480041503906 489.1494140625 C 83.33622741699219 486.3918151855469 85.6338119506836 494.1649169921875 87.73644256591797 447.2701721191406 C 88.45375061035156 428.489990234375 80.6487045288086 428.0542297363281 81.78565979003906 411.49456787109375 C 117.5954818725586 374.94305419921875 98.83413696289062 374.54522705078125 117.11477661132812 422.88128662109375" stroke-width="0.0" fill="rgb(252, 182, 23)" opacity="0.94545335" stroke="rgb(0, 0, 0)" stroke-opacity="1.0" stroke-linecap="round" stroke-linejoin="round"/>
    <path d="M 154.66038513183594 149.1622772216797 C 144.362060546875 168.34962463378906 108.84814453125 147.07662963867188 105.07689666748047 124.888671875 C 99.95792388916016 128.06207275390625 97.65316772460938 129.3460235595703 80.35301208496094 137.08937072753906 C 101.85199737548828 125.76815795898438 108.5194091796875 108.6254653930664 114.31192016601562 134.99273681640625 C 75.10431671142578 105.30172729492188 94.05111694335938 110.30577087402344 154.66038513183594 149.1622772216797" stroke-width="0.0" fill="rgb(22, 3, 147)" opacity="0.83571804" stroke="rgb(0, 0, 0)" stroke-opacity="1.0" stroke-linecap="round" stroke-linejoin="round"/>
    <path d="M 70.15817260742188 123.09420776367188 C 82.38613891601562 130.2494659423828 63.4978141784668 125.961669921875 31.633529663085938 132.00921630859375 C 36.774932861328125 135.63833618164062 46.64727020263672 116.57564544677734 40.4509391784668 116.17652893066406 C 24.351245880126953 104.55064392089844 31.9041748046875 116.66327667236328 33.80600357055664 107.67091369628906 C 72.19912719726562 81.88148498535156 85.0481948852539 74.1305923461914 70.15817260742188 123.09420776367188" stroke-width="0.0" fill="rgb(16, 18, 254)" opacity="0.13306682" stroke="rgb(0, 0, 0)" stroke-opacity="1.0" stroke-linecap="round" stroke-linejoin="round"/>
    <path d="M 37.22835159301758 289.9849548339844 C 44.25564193725586 338.4900207519531 41.72148132324219 334.7541809082031 8.753013610839844 311.49078369140625 C 6.174410343170166 339.0288391113281 13.067275047302246 312.42193603515625 43.34028244018555 305.7926940917969 C 39.20475769042969 278.8165283203125 21.91213035583496 297.5437316894531 28.324295043945312 305.65283203125 C 55.26510238647461 310.21466064453125 36.55836486816406 299.72955322265625 37.22835159301758 289.9849548339844" stroke-width="0.0" fill="rgb(42, 23, 210)" opacity="0.18406364" stroke="rgb(0, 0, 0)" stroke-opacity="1.0" stroke-linecap="round" stroke-linejoin="round"/>
    <path d="M 374.294189453125 243.6766815185547 C 371.1295166015625 267.6994934082031 379.4290771484375 281.0380859375 364.92041015625 286.321533203125 C 350.56365966796875 246.32955932617188 345.0113525390625 209.40951538085938 364.5169372558594 222.7831268310547 C 375.4400329589844 201.81004333496094 371.7560729980469 175.92572021484375 356.9686584472656 187.02053833007812 C 360.9154357910156 192.7918243408203 351.085693359375 206.36721801757812 374.294189453125 243.6766815185547" stroke-width="0.0" fill="rgb(255, 203, 0)" opacity="1.0" stroke="rgb(0, 0, 0)" stroke-opacity="1.0" stroke-linecap="round" stroke-linejoin="round"/>
    <path d="M 206.81951904296875 250.24911499023438 C 200.37841796875 282.7581787109375 198.67108154296875 283.6748352050781 175.70565795898438 259.4732666015625 C 170.31454467773438 270.8670654296875 176.74758911132812 303.1026306152344 154.63125610351562 285.1353454589844 C 167.5222625732422 250.51910400390625 176.77154541015625 233.0109100341797 168.59686279296875 268.272705078125 C 178.79666137695312 293.5184631347656 150.90347290039062 273.88690185546875 206.81951904296875 250.24911499023438" stroke-width="0.0" fill="rgb(162, 51, 5)" opacity="0.88777184" stroke="rgb(0, 0, 0)" stroke-opacity="1.0" stroke-linecap="round" stroke-linejoin="round"/>
    <path d="M 224.7688751220703 220.80941772460938 C 197.3474578857422 238.03005981445312 176.0810546875 227.1547088623047 173.0395965576172 263.2796936035156 C 204.15939331054688 263.3040771484375 164.23565673828125 267.0164489746094 155.48843383789062 274.06756591796875 C 171.7683868408203 239.45884704589844 190.0843048095703 225.9134979248047 194.48306274414062 197.82440185546875 C 203.4230499267578 206.96792602539062 208.57936096191406 215.35891723632812 224.7688751220703 220.80941772460938" stroke-width="0.0" fill="rgb(191, 94, 0)" opacity="0.012573667" stroke="rgb(0, 0, 0)" stroke-opacity="1.0" stroke-linecap="round" stroke-linejoin="round"/>
    <path d="M 187.82235717773438 331.5831604003906 C 183.7673797607422 332.5111999511719 150.96754455566406 356.0288391113281 171.4243927001953 356.0323181152344 C 161.973876953125 351.2201232910156 171.12295532226562 327.3372497558594 170.7691650390625 331.5088195800781 C 161.60716247558594 328.5058288574219 170.0359649658203 351.2741394042969 147.44451904296875 321.984130859375 C 215.4110565185547 316.8441467285156 221.22857666015625 320.3800964355469 187.82235717773438 331.5831604003906" stroke-width="0.0" fill="rgb(238, 131, 23)" opacity="0.2608636" stroke="rgb(0, 0, 0)" stroke-opacity="1.0" stroke-linecap="round" stroke-linejoin="round"/>
    <path d="M 73.1317367553711 124.50418090820312 C 118.15582275390625 155.12158203125 81.49964141845703 156.8641815185547 73.8556137084961 140.00254821777344 C 62.90336608886719 141.08865356445312 57.853546142578125 141.52755737304688 65.26561737060547 135.2715606689453 C 59.024871826171875 117.54053497314453 57.11864471435547 109.26736450195312 82.01225280761719 83.78105163574219 C 81.36309051513672 83.80677032470703 77.94950103759766 81.19479370117188 73.1317367553711 124.50418090820312" stroke-width="0.0" fill="rgb(61, 2, 255)" opacity="0.007414873" stroke="rgb(0, 0, 0)" stroke-opacity="1.0" stroke-linecap="round" stroke-linejoin="round"/>
    <path d="M 76.539794921875 116.94288635253906 C 45.81074142456055 141.7567901611328 40.76009750366211 143.81166076660156 17.137493133544922 137.28225708007812 C 9.322808265686035 145.958740234375 -1.0699845552444458 148.9687042236328 -19.53997802734375 121.36256408691406 C -4.898276329040527 99.6215591430664 1.4769890308380127 112.53675079345703 23.972139358520508 115.89532470703125 C 43.4075927734375 111.74566650390625 58.66977310180664 105.20720672607422 76.539794921875 116.94288635253906" stroke-width="0.0" fill="rgb(3, 16, 242)" opacity="0.04804636" stroke="rgb(0, 0, 0)" stroke-opacity="1.0" stroke-linecap="round" stroke-linejoin="round"/>
    <path d="M 118.06639099121094 139.24539184570312 C 113.8017349243164 186.19496154785156 129.27528381347656 189.20838928222656 116.97989654541016 197.669189453125 C 85.68222045898438 191.37940979003906 70.84893798828125 183.707763671875 121.6142807006836 197.5033416748047 C 132.956298828125 158.43894958496094 130.60218811035156 139.01553344726562 135.54432678222656 124.8734359741211 C 117.48258972167969 130.01113891601562 115.02910614013672 143.42161560058594 118.06639099121094 139.24539184570312" stroke-width="0.0" fill="rgb(62, 56, 161)" opacity="0.01594362" stroke="rgb(0, 0, 0)" stroke-opacity="1.0" stroke-linecap="round" stroke-linejoin="round"/>
    <path d="M 383.79901123046875 240.0494384765625 C 388.66656494140625 232.97885131835938 384.7260437011719 252.42977905273438 365.3090515136719 233.09288024902344 C 349.9626770019531 230.87771606445312 316.03155517578125 240.5052032470703 306.7214050292969 216.255859375 C 325.60675048828125 184.3777618408203 346.8353271484375 172.38299560546875 356.8942565917969 176.27117919921875 C 367.3808898925781 180.1800079345703 392.79150390625 195.26251220703125 383.79901123046875 240.0494384765625" stroke-width="0.0" fill="rgb(151, 234, 31)" opacity="0.8791763" stroke="rgb(0, 0, 0)" stroke-opacity="1.0" stroke-linecap="round" stroke-linejoin="round"/>
    <path d="M 322.5247497558594 164.2819366455078 C 335.6927795410156 206.29978942871094 324.60467529296875 237.80503845214844 301.8772888183594 219.7608642578125 C 264.7644958496094 194.9022216796875 252.31561279296875 164.4234161376953 309.75927734375 160.57913208007812 C 300.94000244140625 122.77220153808594 261.9757385253906 128.30227661132812 287.80694580078125 145.95025634765625 C 303.5111999511719 154.6483917236328 288.238037109375 163.49391174316406 322.5247497558594 164.2819366455078" stroke-width="0.0" fill="rgb(255, 197, 24)" opacity="1.0" stroke="rgb(0, 0, 0)" stroke-opacity="1.0" stroke-linecap="round" stroke-linejoin="round"/>
    <path d="M 143.488525390625 12.575610160827637 C 149.29898071289062 26.989089965820312 136.3056640625 61.34967041015625 129.6924285888672 57.78935623168945 C 118.60539245605469 66.53936004638672 104.81980895996094 39.6097412109375 111.41459655761719 37.188499450683594 C 115.30180358886719 23.90191078186035 112.19023895263672 16.929176330566406 115.07792663574219 16.09147071838379 C 145.87623596191406 18.60582733154297 148.02822875976562 27.446338653564453 143.488525390625 12.575610160827637" stroke-width="0.0" fill="rgb(46, 15, 115)" opacity="0.032192957" stroke="rgb(0, 0, 0)" stroke-opacity="1.0" stroke-linecap="round" stroke-linejoin="round"/>
    <path d="M 71.33311462402344 306.8415222167969 C 78.1372299194336 335.65679931640625 65.25625610351562 373.2297668457031 91.5918960571289 329.13104248046875 C 27.94705581665039 323.2545166015625 3.882711172103882 321.888916015625 18.097326278686523 311.48199462890625 C 29.604248046875 300.3487548828125 21.870210647583008 280.24493408203125 47.74375534057617 286.77545166015625 C 58.635162353515625 291.7178955078125 65.13187408447266 303.0030822753906 71.33311462402344 306.8415222167969" stroke-width="0.0" fill="rgb(13, 21, 175)" opacity="0.14634849" stroke="rgb(0, 0, 0)" stroke-opacity="1.0" stroke-linecap="round" stroke-linejoin="round"/>
    <path d="M 263.451171875 44.24583053588867 C 258.9997253417969 27.089054107666016 232.26304626464844 11.127981185913086 228.84315490722656 60.696956634521484 C 205.9370574951172 13.393977165222168 209.6279754638672 10.258187294006348 210.5897216796875 10.197123527526855 C 205.19801330566406 27.390071868896484 231.76922607421875 38.051971435546875 256.49365234375 38.14476013183594 C 258.4578552246094 48.32615280151367 251.6571807861328 41.709754943847656 263.451171875 44.24583053588867" stroke-width="0.0" fill="rgb(110, 36, 9)" opacity="0.11106668" stroke="rgb(0, 0, 0)" stroke-opacity="1.0" stroke-linecap="round" stroke-linejoin="round"/>
    <path d="M 124.99819946289062 341.48260498046875 C 87.20572662353516 355.1313781738281 129.16885375976562 356.8004455566406 108.76557159423828 367.41400146484375 C 96.93209838867188 374.1821594238281 91.4266357421875 338.0267639160156 117.0583724975586 345.4870910644531 C 94.58499908447266 336.708740234375 97.317626953125 319.0426940917969 120.21018981933594 294.8079833984375 C 119.39641571044922 311.55316162109375 118.27622985839844 323.84417724609375 124.99819946289062 341.48260498046875" stroke-width="0.0" fill="rgb(167, 77, 31)" opacity="0.8253165" stroke="rgb(0, 0, 0)" stroke-opacity="1.0" stroke-linecap="round" stroke-linejoin="round"/>
    <path d="M 204.1251983642578 354.8548583984375 C 202.16763305664062 387.19329833984375 213.41136169433594 382.7373352050781 182.16802978515625 407.1310119628906 C 152.55543518066406 400.95166015625 178.2070770263672 394.8320007324219 171.85890197753906 365.7336730957031 C 173.43487548828125 389.90545654296875 182.71238708496094 368.6358947753906 217.3594970703125 359.2265319824219 C 214.82200622558594 340.779052734375 216.36190795898438 356.1999816894531 204.1251983642578 354.8548583984375" stroke-width="0.0" fill="rgb(255, 71, 108)" opacity="0.10186811" stroke="rgb(0, 0, 0)" stroke-opacity="1.0" stroke-linecap="round" stroke-linejoin="round"/>
    <path d="M 49.62038803100586 203.46173095703125 C 51.0718879699707 191.00013732910156 48.08103561401367 221.7788543701172 37.044837951660156 197.75668334960938 C 24.54219627380371 187.06475830078125 10.303698539733887 187.43666076660156 27.261768341064453 186.99652099609375 C 39.740928649902344 208.0004425048828 50.91701889038086 204.89930725097656 46.72624588012695 172.93963623046875 C 35.976383209228516 181.11676025390625 43.96316909790039 194.9102020263672 49.62038803100586 203.46173095703125" stroke-width="0.0" fill="rgb(1, 11, 179)" opacity="0.14480552" stroke="rgb(0, 0, 0)" stroke-opacity="1.0" stroke-linecap="round" stroke-linejoin="round"/>
    <path d="M 441.8554992675781 310.5746765136719 C 463.2630310058594 314.44287109375 469.74237060546875 307.97296142578125 433.1413269042969 303.7397155761719 C 394.93597412109375 322.170654296875 386.78900146484375 315.9435729980469 403.3868713378906 267.8692321777344 C 391.3744201660156 271.42425537109375 372.87921142578125 269.68707275390625 433.1541442871094 275.2459716796875 C 457.2427978515625 284.9478759765625 448.9681091308594 266.299560546875 441.8554992675781 310.5746765136719" stroke-width="0.0" fill="rgb(62, 9, 97)" opacity="0.01397083" stroke="rgb(0, 0, 0)" stroke-opacity="1.0" stroke-linecap="round" stroke-linejoin="round"/>
    <path d="M 34.77168655395508 133.9987335205078 C 20.472137451171875 139.88877868652344 13.71120834350586 127.25210571289062 18.29558753967285 137.88780212402344 C 14.5579195022583 135.11285400390625 -1.1173311471939087 127.92279052734375 -16.368494033813477 137.39268493652344 C -1.896560549736023 146.74037170410156 13.655977249145508 135.62014770507812 16.061233520507812 138.7576446533203 C 6.200592994689941 156.42323303222656 35.47298812866211 164.49073791503906 34.77168655395508 133.9987335205078" stroke-width="0.0" fill="rgb(11, 7, 203)" opacity="0.009031311" stroke="rgb(0, 0, 0)" stroke-opacity="1.0" stroke-linecap="round" stroke-linejoin="round"/>
    <path d="M 537.3960571289062 251.29568481445312 C 506.1836853027344 268.44866943359375 521.8109741210938 277.62030029296875 526.397705078125 249.1344757080078 C 495.128662109375 256.1750793457031 492.1888122558594 244.34674072265625 493.3710632324219 231.91989135742188 C 482.2152099609375 251.99310302734375 481.50274658203125 242.68763732910156 492.474365234375 230.82943725585938 C 514.6702270507812 234.9690399169922 534.7861328125 229.9962615966797 537.3960571289062 251.29568481445312" stroke-width="0.0" fill="rgb(25, 28, 167)" opacity="0.08794088" stroke="rgb(0, 0, 0)" stroke-opacity="1.0" stroke-linecap="round" stroke-linejoin="round"/>
    <path d="M 251.04293823242188 98.67432403564453 C 243.56483459472656 124.83843231201172 257.92852783203125 136.06332397460938 209.0462188720703 126.26914978027344 C 213.08670043945312 107.12946319580078 198.25274658203125 117.82722473144531 206.36465454101562 107.18360900878906 C 215.26907348632812 86.09686279296875 230.01783752441406 106.656005859375 232.03182983398438 39.26563262939453 C 241.99290466308594 84.53751373291016 258.89959716796875 94.40888214111328 251.04293823242188 98.67432403564453" stroke-width="0.0" fill="rgb(255, 223, 39)" opacity="1.0" stroke="rgb(0, 0, 0)" stroke-opacity="1.0" stroke-linecap="round" stroke-linejoin="round"/>
    <path d="M 438.138427734375 254.5384979248047 C 432.4690246582031 263.5486755371094 419.7061462402344 268.2488098144531 440.0147705078125 266.3189697265625 C 430.0729675292969 271.13665771484375 431.32049560546875 255.8560333251953 424.228515625 256.39794921875 C 405.39495849609375 258.90496826171875 414.4716491699219 255.19723510742188 431.7869567871094 249.04672241210938 C 437.5523986816406 249.39898681640625 435.6082763671875 255.68772888183594 438.138427734375 254.5384979248047" stroke-width="0.0" fill="rgb(28, 43, 130)" opacity="0.0027270657" stroke="rgb(0, 0, 0)" stroke-opacity="1.0" stroke-linecap="round" stroke-linejoin="round"/>
    <path d="M 527.2105102539062 118.08710479736328 C 522.3528442382812 135.0595703125 519.6643676757812 143.60289001464844 507.699462890625 156.9678497314453 C 504.6033020019531 189.3980255126953 467.0585632324219 176.60836791992188 460.4978942871094 151.18394470214844 C 448.11798095703125 111.32264709472656 462.2635192871094 93.67241668701172 477.3343505859375 104.02503967285156 C 507.95758056640625 117.97682189941406 540.49462890625 113.16411590576172 527.2105102539062 118.08710479736328" stroke-width="0.0" fill="rgb(38, 44, 124)" opacity="0.0646305" stroke="rgb(0, 0, 0)" stroke-opacity="1.0" stroke-linecap="round" stroke-linejoin="round"/>
    <path d="M 550.92236328125 158.42495727539062 C 544.2474975585938 168.74826049804688 532.1497802734375 182.53134155273438 509.9171142578125 162.71006774902344 C 477.3566589355469 164.43946838378906 476.53533935546875 158.08934020996094 481.25860595703125 169.04530334472656 C 495.2414855957031 152.76712036132812 508.5972595214844 150.13296508789062 516.35595703125 150.30032348632812 C 489.34368896484375 132.35145568847656 528.7227783203125 145.41448974609375 550.92236328125 158.42495727539062" stroke-width="0.0" fill="rgb(26, 26, 177)" opacity="0.06487309" stroke="rgb(0, 0, 0)" stroke-opacity="1.0" stroke-linecap="round" stroke-linejoin="round"/>
    <path d="M 70.46919250488281 363.53839111328125 C 65.97949981689453 372.3470153808594 37.41569900512695 374.6217041015625 57.17408752441406 368.09014892578125 C 28.321496963500977 365.22698974609375 22.246185302734375 359.8883972167969 32.261043548583984 352.19744873046875 C 74.3310317993164 358.6206970214844 58.44594955444336 351.0113525390625 77.91511535644531 316.4488220214844 C 80.43279266357422 343.5508728027344 63.20887756347656 362.37274169921875 70.46919250488281 363.53839111328125" stroke-width="0.0" fill="rgb(0, 38, 164)" opacity="0.11679175" stroke="rgb(0, 0, 0)" stroke-opacity="1.0" stroke-linecap="round" stroke-linejoin="round"/>
    <path d="M 348.674072265625 247.72732543945312 C 336.5120849609375 263.0243835449219 337.8268737792969 258.39227294921875 328.0822448730469 270.8636474609375 C 305.3639831542969 252.65675354003906 297.0295715332031 251.090576171875 322.9773864746094 256.6821594238281 C 307.4637756347656 242.27647399902344 305.1236877441406 241.98846435546875 331.6148986816406 248.01803588867188 C 334.8468933105469 232.19215393066406 323.6549072265625 250.1011199951172 348.674072265625 247.72732543945312" stroke-width="0.0" fill="rgb(76, 0, 187)" opacity="0.0" stroke="rgb(0, 0, 0)" stroke-opacity="1.0" stroke-linecap="round" stroke-linejoin="round"/>
    <path d="M 510.2122497558594 109.5062026977539 C 525.4166259765625 156.3091583251953 518.8580322265625 166.0198211669922 486.2659606933594 167.8644256591797 C 447.53021240234375 175.68666076660156 440.6686096191406 171.97610473632812 455.74993896484375 93.11237335205078 C 484.41375732421875 106.26969909667969 491.7690124511719 112.29788970947266 520.4915161132812 122.3764419555664 C 486.8263244628906 130.27040100097656 477.8776550292969 118.47227478027344 510.2122497558594 109.5062026977539" stroke-width="0.0" fill="rgb(36, 43, 130)" opacity="0.053352233" stroke="rgb(0, 0, 0)" stroke-opacity="1.0" stroke-linecap="round" stroke-linejoin="round"/>
    <path d="M 481.62548828125 465.56610107421875 C 508.2716064453125 462.363525390625 487.4931945800781 470.8060302734375 473.5468444824219 484.4367370605469 C 473.4228515625 457.3848571777344 456.1264343261719 441.4797668457031 455.9906311035156 436.4271545410156 C 460.8728942871094 466.6635437011719 465.3414001464844 475.87884521484375 463.676513671875 437.2444152832031 C 478.064208984375 449.49420166015625 491.38433837890625 461.32989501953125 481.62548828125 465.56610107421875" stroke-width="0.0" fill="rgb(35, 43, 164)" opacity="0.0" stroke="rgb(0, 0, 0)" stroke-opacity="1.0" stroke-linecap="round" stroke-linejoin="round"/>
    <path d="M 516.8726806640625 373.9701232910156 C 520.8697509765625 383.27008056640625 516.4795532226562 382.3897399902344 503.52252197265625 382.3186950683594 C 470.21905517578125 391.12109375 475.20916748046875 391.96380615234375 471.2373046875 367.617919921875 C 456.9234313964844 348.15252685546875 463.5684509277344 353.82733154296875 504.01702880859375 357.21685791015625 C 518.8259887695312 350.0615234375 519.2601928710938 352.0198974609375 516.8726806640625 373.9701232910156" stroke-width="0.0" fill="rgb(45, 71, 96)" opacity="0.03636142" stroke="rgb(0, 0, 0)" stroke-opacity="1.0" stroke-linecap="round" stroke-linejoin="round"/>
    <path d="M 185.64151000976562 431.88720703125 C 160.06817626953125 421.4847106933594 142.5559844970703 450.4084777832031 141.05592346191406 458.9295349121094 C 148.15423583984375 458.6280212402344 155.4110870361328 469.06005859375 145.4501953125 430.1929931640625 C 139.3525848388672 432.7041931152344 141.69686889648438 413.4311828613281 161.32412719726562 400.64190673828125 C 160.55723571777344 412.7908630371094 148.68405151367188 427.1968688964844 185.64151000976562 431.88720703125" stroke-width="0.0" fill="rgb(83, 59, 180)" opacity="0.10784258" stroke="rgb(0, 0, 0)" stroke-opacity="1.0" stroke-linecap="round" stroke-linejoin="round"/>
    <path d="M 102.71466827392578 140.85296630859375 C 95.76007080078125 166.3367156982422 97.174560546875 183.99998474121094 83.4858169555664 168.3705596923828 C 80.16598510742188 170.19093322753906 74.28968811035156 167.4897918701172 75.07832336425781 163.2894287109375 C 71.15541076660156 141.57424926757812 71.06067657470703 115.22224426269531 102.90985107421875 138.45069885253906 C 137.33827209472656 129.91998291015625 127.27021789550781 114.09729766845703 102.71466827392578 140.85296630859375" stroke-width="0.0" fill="rgb(41, 26, 208)" opacity="0.00030505031" stroke="rgb(0, 0, 0)" stroke-opacity="1.0" stroke-linecap="round" stroke-linejoin="round"/>
    <path d="M 163.63092041015625 131.67391967773438 C 156.98043823242188 131.32521057128906 148.07301330566406 161.1406707763672 174.76475524902344 156.1565704345703 C 178.10494995117188 148.98646545410156 161.24520874023438 129.6899871826172 166.5033721923828 149.13970947265625 C 171.5676727294922 141.77325439453125 161.220947265625 119.03496551513672 160.75257873535156 135.31663513183594 C 181.91172790527344 126.71790313720703 191.0432586669922 116.96855926513672 163.63092041015625 131.67391967773438" stroke-width="0.0" fill="rgb(254, 255, 100)" opacity="0.01774657" stroke="rgb(0, 0, 0)" stroke-opacity="1.0" stroke-linecap="round" stroke-linejoin="round"/>
    <path d="M 163.65113830566406 388.6582946777344 C 158.39492797851562 406.5307312011719 171.36685180664062 420.1401062011719 162.70126342773438 417.18048095703125 C 166.68603515625 466.92474365234375 136.104736328125 459.6273498535156 117.7047119140625 446.4127197265625 C 125.38542938232422 413.5731506347656 126.70553588867188 391.6114807128906 94.05323791503906 384.8648681640625 C 166.79043579101562 368.8759460449219 174.15765380859375 378.85040283203125 163.65113830566406 388.6582946777344" stroke-width="0.0" fill="rgb(103, 23, 139)" opacity="0.18954015" stroke="rgb(0, 0, 0)" stroke-opacity="1.0" stroke-linecap="round" stroke-linejoin="round"/>
    <path d="M 444.3889465332031 91.08787536621094 C 442.70648193359375 153.76121520996094 449.69903564453125 170.78343200683594 423.35009765625 151.87246704101562 C 435.9814758300781 138.47340393066406 425.0830078125 124.5103988647461 407.8765869140625 125.64629364013672 C 442.9355163574219 143.2613525390625 448.6148986816406 121.80237579345703 456.7295837402344 96.93941497802734 C 460.9064025878906 122.67777252197266 470.512939453125 119.7745361328125 444.3889465332031 91.08787536621094" stroke-width="0.0" fill="rgb(50, 33, 99)" opacity="0.048418935" stroke="rgb(0, 0, 0)" stroke-opacity="1.0" stroke-linecap="round" stroke-linejoin="round"/>
    <path d="M 249.58920288085938 301.8215026855469 C 255.63218688964844 307.56103515625 241.6310577392578 347.5219421386719 260.0440673828125 337.23162841796875 C 236.37928771972656 324.8605651855469 221.30577087402344 322.9669189453125 215.63563537597656 303.8674621582031 C 209.02735900878906 328.9673767089844 241.10052490234375 309.99505615234375 240.0437774658203 302.8842468261719 C 231.68182373046875 317.8980407714844 245.3291473388672 316.7456359863281 249.58920288085938 301.8215026855469" stroke-width="0.0" fill="rgb(43, 34, 149)" opacity="0.012261129" stroke="rgb(0, 0, 0)" stroke-opacity="1.0" stroke-linecap="round" stroke-linejoin="round"/>
    <path d="M 167.33631896972656 479.46563720703125 C 137.84933471679688 458.338623046875 123.52387237548828 458.5007629394531 148.55889892578125 460.50982666015625 C 139.33663940429688 467.4182434082031 136.9607696533203 447.45855712890625 146.00985717773438 433.89453125 C 141.063232421875 486.7880859375 113.92007446289062 530.1279296875 131.4697265625 447.2659606933594 C 153.77381896972656 442.95135498046875 158.05078125 459.55267333984375 167.33631896972656 479.46563720703125" stroke-width="0.0" fill="rgb(24, 20, 119)" opacity="0.037526697" stroke="rgb(0, 0, 0)" stroke-opacity="1.0" stroke-linecap="round" stroke-linejoin="round"/>
  </g>
</svg>
