<?xml version="1.0" ?>
<svg xmlns="http://www.w3.org/2000/svg" version="1.1" width="512" height="512">
  <defs/>
  <g>
    <path d="M 266.263916015625 372.74066162109375 C 198.00961303710938 510.3998107910156 207.70008850097656 285.0865173339844 108.39276123046875 456.8432312011719 C 55.71323013305664 419.4157409667969 -23.641321182250977 278.594482421875 72.33191680908203 182.30079650878906 C 64.50016021728516 348.7542419433594 60.732688903808594 264.14312744140625 130.63003540039062 371.3222351074219 C 103.60372161865234 380.1224365234375 56.53157043457031 347.2601623535156 266.263916015625 372.74066162109375" stroke-width="0.0" fill="rgb(59, 28, 25)" opacity="0.7212068" stroke="rgb(0, 0, 0)" stroke-opacity="1.0" stroke-linecap="round" stroke-linejoin="round"/>
    <path d="M 189.7723846435547 185.85610961914062 C 283.5321044921875 269.00909423828125 189.71324157714844 292.4381103515625 171.9489288330078 293.0296630859375 C 142.1725311279297 300.929443359375 82.46295166015625 266.27484130859375 87.82769012451172 226.73382568359375 C 109.87896728515625 233.60459899902344 20.661828994750977 230.83627319335938 171.57333374023438 206.35366821289062 C 145.3419189453125 273.420166015625 130.40052795410156 213.63880920410156 189.7723846435547 185.85610961914062" stroke-width="0.0" fill="rgb(40, 19, 107)" opacity="0.84515923" stroke="rgb(0, 0, 0)" stroke-opacity="1.0" stroke-linecap="round" stroke-linejoin="round"/>
    <path d="M 387.9352111816406 214.3228759765625 C 372.12225341796875 340.3731689453125 206.9951934814453 257.86175537109375 392.0328369140625 245.1292724609375 C 432.4591979980469 227.1341552734375 339.6575622558594 177.86570739746094 289.3335266113281 377.9447937011719 C 235.98365783691406 220.837890625 337.6162109375 216.9649200439453 391.58062744140625 215.15419006347656 C 453.22186279296875 241.2273406982422 411.4263000488281 234.09445190429688 387.9352111816406 214.3228759765625" stroke-width="0.0" fill="rgb(80, 52, 178)" opacity="0.453929" stroke="rgb(0, 0, 0)" stroke-opacity="1.0" stroke-linecap="round" stroke-linejoin="round"/>
    <path d="M 199.8985595703125 211.7292938232422 C 154.5258026123047 269.298095703125 200.71047973632812 251.49513244628906 105.01741790771484 252.0869903564453 C 37.32318878173828 238.9896697998047 136.09506225585938 214.24313354492188 180.17030334472656 230.6346435546875 C 160.43606567382812 216.52178955078125 169.61074829101562 209.03097534179688 200.0115203857422 193.53713989257812 C 164.5098114013672 106.9432144165039 174.88201904296875 93.20948791503906 199.8985595703125 211.7292938232422" stroke-width="0.0" fill="rgb(23, 17, 120)" opacity="0.8651734" stroke="rgb(0, 0, 0)" stroke-opacity="1.0" stroke-linecap="round" stroke-linejoin="round"/>
    <path d="M 579.833740234375 353.25634765625 C 554.1842651367188 417.2453308105469 391.7721252441406 369.5372619628906 447.19122314453125 473.5115051269531 C 297.46368408203125 321.2458190917969 369.8316650390625 421.47137451171875 301.5438537597656 265.1155700683594 C 413.5037841796875 376.2038879394531 288.039306640625 333.17230224609375 390.7723693847656 343.68426513671875 C 472.34075927734375 366.3755798339844 421.7934875488281 395.2703857421875 579.833740234375 353.25634765625" stroke-width="0.0" fill="rgb(80, 69, 205)" opacity="0.5097917" stroke="rgb(0, 0, 0)" stroke-opacity="1.0" stroke-linecap="round" stroke-linejoin="round"/>
    <path d="M 440.75140380859375 206.34197998046875 C 476.7188415527344 310.71356201171875 503.88299560546875 307.99786376953125 431.048095703125 391.9894104003906 C 444.92315673828125 261.4771423339844 475.4085388183594 305.1513977050781 422.7159423828125 212.39208984375 C 475.316650390625 120.52108764648438 492.34423828125 3.35969614982605 487.43218994140625 89.25548553466797 C 462.0616760253906 202.37542724609375 474.54364013671875 146.25473022460938 440.75140380859375 206.34197998046875" stroke-width="0.0" fill="rgb(17, 26, 67)" opacity="0.93307585" stroke="rgb(0, 0, 0)" stroke-opacity="1.0" stroke-linecap="round" stroke-linejoin="round"/>
    <path d="M 389.0672912597656 305.9991455078125 C 308.1280822753906 345.3070983886719 336.46026611328125 403.8840637207031 321.1578369140625 353.7711486816406 C 276.7677001953125 336.7951965332031 349.0030212402344 323.2543029785156 282.6358947753906 314.595703125 C 293.586181640625 305.14727783203125 298.8667297363281 264.7196044921875 307.0532531738281 281.7044677734375 C 299.91802978515625 249.22601318359375 323.3658447265625 276.0220642089844 389.0672912597656 305.9991455078125" stroke-width="0.0" fill="rgb(203, 210, 222)" opacity="0.7238614" stroke="rgb(0, 0, 0)" stroke-opacity="1.0" stroke-linecap="round" stroke-linejoin="round"/>
    <path d="M 373.21630859375 252.93838500976562 C 393.51312255859375 236.31053161621094 391.22625732421875 238.73486328125 408.3056640625 223.11044311523438 C 375.2904968261719 216.6173553466797 350.44097900390625 198.90208435058594 332.1679382324219 197.30221557617188 C 312.6994323730469 232.06092834472656 350.7689514160156 207.17047119140625 326.33673095703125 212.39990234375 C 281.14300537109375 234.47830200195312 274.88592529296875 234.003173828125 373.21630859375 252.93838500976562" stroke-width="0.0" fill="rgb(77, 63, 126)" opacity="0.9752612" stroke="rgb(0, 0, 0)" stroke-opacity="1.0" stroke-linecap="round" stroke-linejoin="round"/>
    <path d="M 71.8539047241211 83.96089935302734 C 106.42340850830078 181.24020385742188 42.94039535522461 92.53153228759766 215.8420867919922 119.72203063964844 C 44.37138366699219 208.84262084960938 89.07089233398438 326.9042053222656 31.257709503173828 77.11830139160156 C 13.172471046447754 -53.334190368652344 48.31435775756836 -73.67796325683594 171.72760009765625 124.45122528076172 C 15.84874439239502 56.25020217895508 49.0775032043457 -6.365161418914795 71.8539047241211 83.96089935302734" stroke-width="0.0" fill="rgb(25, 9, 53)" opacity="0.9299095" stroke="rgb(0, 0, 0)" stroke-opacity="1.0" stroke-linecap="round" stroke-linejoin="round"/>
    <path d="M 220.93287658691406 315.7865905761719 C 166.0640411376953 334.06793212890625 273.8423767089844 311.0581359863281 248.94772338867188 361.6877136230469 C 9.095870971679688 408.28656005859375 136.06007385253906 339.0292053222656 142.30455017089844 257.29888916015625 C 133.7538604736328 217.7393341064453 182.71414184570312 247.46253967285156 213.3674774169922 243.82583618164062 C 236.64404296875 275.93328857421875 230.77146911621094 274.5890808105469 220.93287658691406 315.7865905761719" stroke-width="0.0" fill="rgb(60, 31, 79)" opacity="0.5332603" stroke="rgb(0, 0, 0)" stroke-opacity="1.0" stroke-linecap="round" stroke-linejoin="round"/>
    <path d="M 364.6612854003906 253.81826782226562 C 378.1103210449219 268.6882019042969 358.6603088378906 257.6129455566406 414.73321533203125 266.80731201171875 C 424.7135314941406 253.7854461669922 353.83697509765625 251.0166778564453 314.123291015625 253.89981079101562 C 344.3832702636719 207.2037353515625 380.92877197265625 232.9717559814453 375.485595703125 239.22189331054688 C 377.86846923828125 229.6283416748047 378.9617614746094 235.669189453125 364.6612854003906 253.81826782226562" stroke-width="0.0" fill="rgb(254, 254, 14)" opacity="1.0" stroke="rgb(0, 0, 0)" stroke-opacity="1.0" stroke-linecap="round" stroke-linejoin="round"/>
    <path d="M 484.96807861328125 -29.741907119750977 C 303.21588134765625 61.412261962890625 338.73828125 77.19210052490234 232.49139404296875 91.34526824951172 C 125.21929931640625 101.63014221191406 170.67141723632812 78.69021606445312 1.517479419708252 -33.04510498046875 C 253.9463653564453 3.1231021881103516 131.253662109375 67.06184387207031 275.8224792480469 29.991249084472656 C 335.84307861328125 54.507877349853516 362.9198303222656 -21.33517837524414 484.96807861328125 -29.741907119750977" stroke-width="0.0" fill="rgb(24, 4, 39)" opacity="0.95458525" stroke="rgb(0, 0, 0)" stroke-opacity="1.0" stroke-linecap="round" stroke-linejoin="round"/>
    <path d="M 354.4455261230469 382.50762939453125 C 102.66921997070312 449.685791015625 202.14585876464844 317.6806335449219 154.36764526367188 403.3766174316406 C 141.9517822265625 409.83135986328125 208.7294921875 389.3709411621094 184.0508270263672 362.7577819824219 C 156.1422576904297 355.8792419433594 183.26968383789062 338.8399963378906 237.97193908691406 312.2342529296875 C 282.6799011230469 298.3263854980469 372.0506286621094 308.40618896484375 354.4455261230469 382.50762939453125" stroke-width="0.0" fill="rgb(225, 254, 247)" opacity="0.9548181" stroke="rgb(0, 0, 0)" stroke-opacity="1.0" stroke-linecap="round" stroke-linejoin="round"/>
    <path d="M 478.0143737792969 101.19237518310547 C 482.6629638671875 40.501190185546875 478.1974182128906 53.1315803527832 485.4752502441406 104.58722686767578 C 466.7161560058594 90.89927673339844 489.46221923828125 92.37071990966797 465.62994384765625 91.60047912597656 C 471.63983154296875 -3.1932356357574463 450.0138244628906 -42.66352844238281 483.8143615722656 -60.910099029541016 C 481.829345703125 34.50698471069336 493.3136291503906 96.62049865722656 478.0143737792969 101.19237518310547" stroke-width="0.0" fill="rgb(35, 45, 62)" opacity="0.88709426" stroke="rgb(0, 0, 0)" stroke-opacity="1.0" stroke-linecap="round" stroke-linejoin="round"/>
    <path d="M 447.9788513183594 31.198833465576172 C 346.3174133300781 158.0697784423828 440.6886291503906 116.95452880859375 402.51092529296875 178.855224609375 C 280.59796142578125 72.58768463134766 315.6125793457031 145.27383422851562 371.7408142089844 59.148414611816406 C 346.48577880859375 92.35848999023438 387.5299072265625 4.661248207092285 322.8896789550781 119.7118148803711 C 360.235595703125 110.17381286621094 435.8431396484375 -24.566768646240234 447.9788513183594 31.198833465576172" stroke-width="0.0" fill="rgb(31, 13, 75)" opacity="0.9187882" stroke="rgb(0, 0, 0)" stroke-opacity="1.0" stroke-linecap="round" stroke-linejoin="round"/>
    <path d="M 454.74951171875 400.34429931640625 C 434.9410400390625 404.16351318359375 504.1728515625 549.608154296875 373.12469482421875 532.265625 C 366.85626220703125 398.1830139160156 468.96697998046875 485.1346740722656 415.4786682128906 345.8138732910156 C 560.1343994140625 403.6347961425781 362.4024353027344 345.3000183105469 409.4425354003906 341.1515197753906 C 483.7469482421875 384.8438720703125 494.6263732910156 389.01275634765625 454.74951171875 400.34429931640625" stroke-width="0.0" fill="rgb(231, 232, 225)" opacity="0.921515" stroke="rgb(0, 0, 0)" stroke-opacity="1.0" stroke-linecap="round" stroke-linejoin="round"/>
    <path d="M 470.2652282714844 29.94099235534668 C 438.06201171875 -1.523576021194458 462.8291320800781 16.48676872253418 410.8534851074219 138.16258239746094 C 350.06365966796875 98.41376495361328 390.2792663574219 139.309326171875 440.4718322753906 18.407249450683594 C 497.84490966796875 -4.495241641998291 476.6238708496094 11.935927391052246 468.14349365234375 71.99114227294922 C 479.4403381347656 18.55640411376953 466.8724365234375 -12.366674423217773 470.2652282714844 29.94099235534668" stroke-width="0.0" fill="rgb(10, 17, 75)" opacity="0.68216634" stroke="rgb(0, 0, 0)" stroke-opacity="1.0" stroke-linecap="round" stroke-linejoin="round"/>
    <path d="M 418.0581970214844 413.81488037109375 C 435.5044860839844 421.2304382324219 383.7192077636719 462.9950256347656 323.069091796875 497.7010803222656 C 228.4994354248047 481.57342529296875 119.6251449584961 429.0877990722656 165.977294921875 388.1199951171875 C 232.50218200683594 446.8897705078125 229.5634002685547 447.9072570800781 209.58665466308594 436.59320068359375 C 255.71932983398438 415.57147216796875 344.0064392089844 435.6094665527344 418.0581970214844 413.81488037109375" stroke-width="0.0" fill="rgb(83, 19, 59)" opacity="0.45635822" stroke="rgb(0, 0, 0)" stroke-opacity="1.0" stroke-linecap="round" stroke-linejoin="round"/>
    <path d="M 210.41656494140625 349.2015075683594 C 293.5520935058594 317.5435791015625 321.8087463378906 320.9864501953125 265.1439514160156 322.537841796875 C 259.0097351074219 306.8283996582031 267.5646667480469 304.4475402832031 198.7541046142578 325.78857421875 C 199.8102569580078 274.2713623046875 201.257568359375 280.98663330078125 157.24111938476562 272.444580078125 C 145.44741821289062 333.343994140625 140.71315002441406 300.7151794433594 210.41656494140625 349.2015075683594" stroke-width="0.0" fill="rgb(220, 242, 234)" opacity="0.93744284" stroke="rgb(0, 0, 0)" stroke-opacity="1.0" stroke-linecap="round" stroke-linejoin="round"/>
    <path d="M 542.8468017578125 398.01544189453125 C 472.620849609375 552.239013671875 411.8421630859375 498.9271545410156 444.62811279296875 403.82135009765625 C 467.2455749511719 397.8205871582031 455.70867919921875 413.81121826171875 477.7858581542969 441.2166442871094 C 532.0303344726562 437.30487060546875 464.2569580078125 408.1075439453125 445.6273193359375 381.37298583984375 C 548.1599731445312 405.3887634277344 482.56463623046875 383.59112548828125 542.8468017578125 398.01544189453125" stroke-width="0.0" fill="rgb(216, 203, 188)" opacity="0.31299418" stroke="rgb(0, 0, 0)" stroke-opacity="1.0" stroke-linecap="round" stroke-linejoin="round"/>
    <path d="M 282.2655334472656 425.2627258300781 C 237.0270233154297 428.7654724121094 188.21865844726562 423.85504150390625 245.29835510253906 400.0922546386719 C 235.76486206054688 399.5546569824219 228.02769470214844 357.7698974609375 258.45233154296875 411.97393798828125 C 200.9521484375 405.2709655761719 193.05996704101562 357.65142822265625 295.2731628417969 317.3741149902344 C 298.0775451660156 394.5549621582031 301.7557678222656 411.779296875 282.2655334472656 425.2627258300781" stroke-width="0.0" fill="rgb(1, 5, 59)" opacity="0.99062675" stroke="rgb(0, 0, 0)" stroke-opacity="1.0" stroke-linecap="round" stroke-linejoin="round"/>
    <path d="M 54.96849060058594 14.459566116333008 C 53.812660217285156 -17.24526023864746 76.95309448242188 98.75287628173828 82.52454376220703 188.90243530273438 C 72.90364074707031 273.7897033691406 22.66529655456543 34.16593933105469 36.262916564941406 47.58047103881836 C 39.42885971069336 -0.1980864256620407 19.61809730529785 -24.55965805053711 118.99730682373047 30.272632598876953 C 170.69247436523438 94.78907775878906 79.27613067626953 5.77547550201416 54.96849060058594 14.459566116333008" stroke-width="0.0" fill="rgb(240, 120, 104)" opacity="0.9818666" stroke="rgb(0, 0, 0)" stroke-opacity="1.0" stroke-linecap="round" stroke-linejoin="round"/>
    <path d="M 209.06195068359375 51.285552978515625 C 164.3818359375 32.89937973022461 154.4696502685547 4.5766215324401855 157.54873657226562 37.495479583740234 C 162.62088012695312 21.888307571411133 155.907470703125 15.167756080627441 102.93350982666016 -18.045806884765625 C 83.70821380615234 -42.55888748168945 76.55178833007812 -48.90409851074219 132.93441772460938 -30.57845687866211 C 173.12393188476562 0.14667311310768127 194.34901428222656 4.380236625671387 209.06195068359375 51.285552978515625" stroke-width="0.0" fill="rgb(231, 228, 240)" opacity="0.9074568" stroke="rgb(0, 0, 0)" stroke-opacity="1.0" stroke-linecap="round" stroke-linejoin="round"/>
    <path d="M 168.66429138183594 269.8318786621094 C 136.1646728515625 350.7443542480469 128.43649291992188 349.870361328125 87.23519897460938 354.1307067871094 C 45.3299446105957 375.5420837402344 64.33858489990234 378.6316833496094 39.98976516723633 333.299560546875 C 29.5589542388916 299.49725341796875 44.686031341552734 259.39361572265625 81.98974609375 236.60858154296875 C 134.95947265625 252.9263153076172 150.29156494140625 250.9213409423828 168.66429138183594 269.8318786621094" stroke-width="0.0" fill="rgb(155, 116, 116)" opacity="0.89764065" stroke="rgb(0, 0, 0)" stroke-opacity="1.0" stroke-linecap="round" stroke-linejoin="round"/>
    <path d="M 95.73404693603516 246.08453369140625 C 97.07080841064453 229.91064453125 77.39900207519531 255.0741729736328 115.28662872314453 249.4808807373047 C 106.91612243652344 249.0671844482422 85.07280731201172 284.3293762207031 25.122276306152344 285.7685241699219 C 30.105253219604492 174.71177673339844 73.63434600830078 129.6814422607422 89.46236419677734 220.01376342773438 C 83.1944580078125 232.5917205810547 93.53875732421875 201.61241149902344 95.73404693603516 246.08453369140625" stroke-width="0.0" fill="rgb(135, 129, 173)" opacity="0.9655031" stroke="rgb(0, 0, 0)" stroke-opacity="1.0" stroke-linecap="round" stroke-linejoin="round"/>
    <path d="M 271.2726135253906 87.39462280273438 C 264.93389892578125 187.80311584472656 285.8732604980469 187.05641174316406 221.69424438476562 222.97552490234375 C 172.78628540039062 183.720458984375 162.7360382080078 179.61705017089844 172.29039001464844 129.83880615234375 C 199.0529327392578 92.81243133544922 191.33094787597656 115.87201690673828 224.48268127441406 92.81694030761719 C 224.3656005859375 89.50657653808594 280.53009033203125 68.02146911621094 271.2726135253906 87.39462280273438" stroke-width="0.0" fill="rgb(212, 141, 142)" opacity="0.9590561" stroke="rgb(0, 0, 0)" stroke-opacity="1.0" stroke-linecap="round" stroke-linejoin="round"/>
    <path d="M 309.3245849609375 371.956787109375 C 300.9069519042969 367.2619934082031 324.3374938964844 371.63494873046875 323.0011901855469 371.35345458984375 C 270.5013122558594 339.7938537597656 246.0496368408203 343.41064453125 299.978515625 351.1665954589844 C 331.17095947265625 382.8783874511719 331.2135314941406 304.2005310058594 330.0717468261719 328.786376953125 C 349.6549377441406 343.6999206542969 304.4447021484375 365.87445068359375 309.3245849609375 371.956787109375" stroke-width="0.0" fill="rgb(186, 225, 251)" opacity="0.23928383" stroke="rgb(0, 0, 0)" stroke-opacity="1.0" stroke-linecap="round" stroke-linejoin="round"/>
    <path d="M 36.66713333129883 450.3246154785156 C 21.057907104492188 439.14508056640625 143.69522094726562 395.78021240234375 52.886104583740234 354.7971496582031 C 12.872598648071289 442.9427795410156 31.161056518554688 414.94342041015625 114.29641723632812 353.1773986816406 C -42.90685272216797 356.8498229980469 -21.405654907226562 364.19293212890625 67.20614624023438 353.54400634765625 C 62.63084411621094 370.1927185058594 83.72673797607422 372.09783935546875 36.66713333129883 450.3246154785156" stroke-width="0.0" fill="rgb(70, 87, 2)" opacity="0.054331314" stroke="rgb(0, 0, 0)" stroke-opacity="1.0" stroke-linecap="round" stroke-linejoin="round"/>
    <path d="M 330.8044738769531 381.2961730957031 C 345.4073181152344 388.1222229003906 314.4728088378906 410.8463134765625 307.8923034667969 400.7041320800781 C 279.985595703125 396.6465148925781 284.1111755371094 419.30987548828125 341.3931884765625 395.84539794921875 C 304.2905578613281 400.7587890625 258.8833923339844 392.1429138183594 344.8976745605469 402.4700012207031 C 382.5341796875 385.03155517578125 352.3916931152344 355.916015625 330.8044738769531 381.2961730957031" stroke-width="0.0" fill="rgb(143, 133, 219)" opacity="0.59093505" stroke="rgb(0, 0, 0)" stroke-opacity="1.0" stroke-linecap="round" stroke-linejoin="round"/>
    <path d="M 434.9599609375 76.61870574951172 C 410.80059814453125 77.07884979248047 446.623291015625 60.26954650878906 415.9721984863281 119.8695297241211 C 397.7592468261719 173.09579467773438 379.0829772949219 134.0233612060547 360.6789245605469 119.48656463623047 C 387.0933532714844 109.6726303100586 387.0023498535156 76.43207550048828 415.6982727050781 49.70611572265625 C 406.0668029785156 76.99445343017578 439.7951354980469 60.924503326416016 434.9599609375 76.61870574951172" stroke-width="0.0" fill="rgb(77, 85, 162)" opacity="0.46847337" stroke="rgb(0, 0, 0)" stroke-opacity="1.0" stroke-linecap="round" stroke-linejoin="round"/>
    <path d="M 244.697998046875 98.52098846435547 C 212.2983856201172 116.29326629638672 186.59890747070312 123.09648895263672 171.1939239501953 145.60006713867188 C 179.9239044189453 114.39567565917969 140.62156677246094 135.5272216796875 127.90811920166016 75.66831970214844 C 99.29822540283203 1.0797770023345947 142.9480438232422 38.641910552978516 182.16847229003906 61.653289794921875 C 196.5950469970703 71.43826293945312 218.45864868164062 91.20291137695312 244.697998046875 98.52098846435547" stroke-width="0.0" fill="rgb(227, 130, 179)" opacity="0.99994856" stroke="rgb(0, 0, 0)" stroke-opacity="1.0" stroke-linecap="round" stroke-linejoin="round"/>
    <path d="M 531.8523559570312 440.48583984375 C 531.2156982421875 467.00396728515625 531.2875366210938 471.57672119140625 522.1268920898438 464.480224609375 C 507.6446228027344 458.7393798828125 483.12445068359375 444.9383850097656 497.31182861328125 424.22003173828125 C 497.8968811035156 428.8694763183594 505.55169677734375 422.8304138183594 537.1380615234375 431.883544921875 C 524.2904663085938 425.6336975097656 529.3707275390625 430.8746337890625 531.8523559570312 440.48583984375" stroke-width="0.0" fill="rgb(179, 164, 156)" opacity="0.27421418" stroke="rgb(0, 0, 0)" stroke-opacity="1.0" stroke-linecap="round" stroke-linejoin="round"/>
    <path d="M 384.2512512207031 230.41152954101562 C 383.33935546875 230.0626983642578 358.20001220703125 291.49420166015625 328.3400573730469 264.89453125 C 384.2010803222656 212.3719024658203 383.7886047363281 219.5960235595703 291.93414306640625 251.4597930908203 C 327.51287841796875 274.46234130859375 340.8349304199219 256.5931701660156 314.8134765625 257.8804931640625 C 346.5488586425781 212.25146484375 311.5760192871094 241.62088012695312 384.2512512207031 230.41152954101562" stroke-width="0.0" fill="rgb(83, 20, 245)" opacity="0.9850809" stroke="rgb(0, 0, 0)" stroke-opacity="1.0" stroke-linecap="round" stroke-linejoin="round"/>
    <path d="M 478.95135498046875 405.3386535644531 C 477.3348693847656 394.06097412109375 470.2021179199219 417.042724609375 459.88958740234375 454.7710266113281 C 441.5475769042969 432.3275451660156 443.14300537109375 412.9407653808594 433.1414489746094 359.3172302246094 C 392.5569763183594 336.3486022949219 402.2674865722656 334.9322814941406 444.8246765136719 361.062744140625 C 477.48370361328125 388.51129150390625 500.245361328125 394.9140930175781 478.95135498046875 405.3386535644531" stroke-width="0.0" fill="rgb(182, 190, 222)" opacity="0.9906893" stroke="rgb(0, 0, 0)" stroke-opacity="1.0" stroke-linecap="round" stroke-linejoin="round"/>
    <path d="M 158.5272216796875 427.7367858886719 C 173.114013671875 418.4540710449219 148.8199462890625 421.2437438964844 155.72401428222656 426.54718017578125 C 149.9584503173828 422.8332824707031 162.67074584960938 431.3463134765625 163.36866760253906 427.8834533691406 C 160.36160278320312 405.5151062011719 169.0192413330078 403.1194152832031 153.76437377929688 416.601806640625 C 171.51072692871094 421.9986572265625 148.63674926757812 425.37774658203125 158.5272216796875 427.7367858886719" stroke-width="0.0" fill="rgb(195, 218, 223)" opacity="0.7906465" stroke="rgb(0, 0, 0)" stroke-opacity="1.0" stroke-linecap="round" stroke-linejoin="round"/>
    <path d="M 415.9459228515625 365.3993225097656 C 434.3255920410156 379.9647521972656 446.9169006347656 371.5649108886719 450.9189147949219 422.65667724609375 C 407.40374755859375 403.2679138183594 415.0229187011719 380.32611083984375 427.5477294921875 321.6049499511719 C 391.84112548828125 314.5389099121094 367.829833984375 300.8835754394531 404.251708984375 320.4664001464844 C 444.90185546875 349.5440979003906 438.0894470214844 349.70074462890625 415.9459228515625 365.3993225097656" stroke-width="0.0" fill="rgb(181, 212, 241)" opacity="0.63209355" stroke="rgb(0, 0, 0)" stroke-opacity="1.0" stroke-linecap="round" stroke-linejoin="round"/>
    <path d="M 138.82867431640625 95.78584289550781 C 166.88754272460938 141.0318603515625 164.1065673828125 114.23487854003906 132.4495849609375 119.93269348144531 C 119.8811264038086 112.00724029541016 102.32181549072266 97.7911148071289 102.95874786376953 65.29051971435547 C 76.4271240234375 23.575925827026367 54.690677642822266 53.54346466064453 79.952880859375 68.37898254394531 C 120.97138977050781 59.24510955810547 136.54922485351562 56.82966232299805 138.82867431640625 95.78584289550781" stroke-width="0.0" fill="rgb(0, 1, 94)" opacity="0.8511505" stroke="rgb(0, 0, 0)" stroke-opacity="1.0" stroke-linecap="round" stroke-linejoin="round"/>
    <path d="M 340.17047119140625 363.80755615234375 C 331.6517333984375 379.4644775390625 316.8669128417969 386.3152160644531 331.6432189941406 376.5422668457031 C 320.8327941894531 373.9077453613281 328.4815673828125 375.28668212890625 348.95379638671875 382.3276062011719 C 352.47454833984375 339.2872009277344 331.3680114746094 359.2327880859375 333.1595458984375 371.4757995605469 C 317.60821533203125 360.065185546875 343.2048645019531 348.79833984375 340.17047119140625 363.80755615234375" stroke-width="0.0" fill="rgb(73, 13, 139)" opacity="0.718162" stroke="rgb(0, 0, 0)" stroke-opacity="1.0" stroke-linecap="round" stroke-linejoin="round"/>
    <path d="M 122.37848663330078 338.8153381347656 C 101.7164306640625 338.16156005859375 91.31599426269531 356.5692443847656 80.35459899902344 369.8192138671875 C 60.880584716796875 398.624267578125 67.67749786376953 393.1653137207031 64.90083312988281 356.87713623046875 C 61.245445251464844 338.3387756347656 64.69563293457031 347.496337890625 113.73138427734375 357.8843994140625 C 132.62074279785156 343.01678466796875 148.9095458984375 375.764892578125 122.37848663330078 338.8153381347656" stroke-width="0.0" fill="rgb(207, 85, 69)" opacity="0.94051397" stroke="rgb(0, 0, 0)" stroke-opacity="1.0" stroke-linecap="round" stroke-linejoin="round"/>
    <path d="M 300.3489685058594 88.40119934082031 C 294.2544860839844 165.7715301513672 306.3353271484375 180.92263793945312 247.56446838378906 177.02662658691406 C 235.55426025390625 174.40614318847656 251.598876953125 112.79631805419922 247.47982788085938 123.77397918701172 C 243.34793090820312 119.3879623413086 261.78076171875 121.78225708007812 261.4754943847656 82.34207916259766 C 258.0346984863281 77.72362518310547 337.9167785644531 73.8242416381836 300.3489685058594 88.40119934082031" stroke-width="0.0" fill="rgb(81, 54, 174)" opacity="0.5075909" stroke="rgb(0, 0, 0)" stroke-opacity="1.0" stroke-linecap="round" stroke-linejoin="round"/>
    <path d="M 428.7430725097656 62.290809631347656 C 420.06781005859375 57.08152389526367 430.167236328125 64.46041107177734 412.6971435546875 91.53529357910156 C 416.8236083984375 87.6209487915039 403.27593994140625 87.1009750366211 387.4656982421875 62.17011260986328 C 411.98712158203125 55.10514450073242 424.87078857421875 54.0467643737793 427.92340087890625 41.450897216796875 C 430.53662109375 48.259681701660156 430.033203125 77.34370422363281 428.7430725097656 62.290809631347656" stroke-width="0.0" fill="rgb(81, 69, 161)" opacity="0.25214395" stroke="rgb(0, 0, 0)" stroke-opacity="1.0" stroke-linecap="round" stroke-linejoin="round"/>
    <path d="M 122.21082305908203 129.8143310546875 C 110.82815551757812 137.7895965576172 81.6182632446289 158.46075439453125 83.47600555419922 145.50732421875 C 99.76691436767578 132.5677032470703 97.41373443603516 132.7307891845703 110.04899597167969 118.1316909790039 C 88.76943969726562 83.91869354248047 76.59169006347656 45.882347106933594 95.262451171875 78.34700775146484 C 126.81195068359375 118.8348159790039 160.54591369628906 115.39704132080078 122.21082305908203 129.8143310546875" stroke-width="0.0" fill="rgb(112, 97, 118)" opacity="0.64426655" stroke="rgb(0, 0, 0)" stroke-opacity="1.0" stroke-linecap="round" stroke-linejoin="round"/>
    <path d="M 522.9105834960938 521.4174194335938 C 527.06396484375 511.572265625 519.2811889648438 516.984375 440.5614318847656 531.9783935546875 C 414.0675354003906 529.01416015625 405.10089111328125 520.666748046875 463.26251220703125 505.6840515136719 C 457.6099853515625 485.2739562988281 480.4644775390625 480.3367614746094 496.8583984375 452.9237976074219 C 547.3399658203125 457.071044921875 544.2628173828125 463.69891357421875 522.9105834960938 521.4174194335938" stroke-width="0.0" fill="rgb(208, 169, 73)" opacity="0.21985745" stroke="rgb(0, 0, 0)" stroke-opacity="1.0" stroke-linecap="round" stroke-linejoin="round"/>
    <path d="M 273.5992736816406 303.74755859375 C 277.9455261230469 311.15472412109375 294.29132080078125 357.4360656738281 240.88626098632812 356.5255126953125 C 211.38082885742188 374.2041320800781 212.8634796142578 342.74920654296875 231.2298583984375 338.0882568359375 C 276.07269287109375 327.9043884277344 279.22076416015625 302.0284729003906 293.2669372558594 318.1208801269531 C 263.3938293457031 342.238037109375 261.5506896972656 346.7064208984375 273.5992736816406 303.74755859375" stroke-width="0.0" fill="rgb(82, 117, 160)" opacity="0.72591805" stroke="rgb(0, 0, 0)" stroke-opacity="1.0" stroke-linecap="round" stroke-linejoin="round"/>
    <path d="M 422.1869201660156 132.3647918701172 C 413.9521789550781 122.34290313720703 428.8336181640625 139.38076782226562 435.7661437988281 212.3238983154297 C 375.04925537109375 194.5223846435547 391.9938659667969 167.96408081054688 400.7757263183594 161.00120544433594 C 388.6809387207031 161.28726196289062 421.7185363769531 163.50961303710938 431.9759216308594 109.14213562011719 C 399.71429443359375 117.06121063232422 406.2529602050781 135.34161376953125 422.1869201660156 132.3647918701172" stroke-width="0.0" fill="rgb(41, 27, 110)" opacity="0.92534566" stroke="rgb(0, 0, 0)" stroke-opacity="1.0" stroke-linecap="round" stroke-linejoin="round"/>
    <path d="M 456.18634033203125 511.1984558105469 C 461.97003173828125 537.2919311523438 472.73004150390625 540.3753662109375 437.28875732421875 536.993896484375 C 428.4501647949219 528.1818237304688 437.3168029785156 508.3668212890625 431.8031005859375 464.7774353027344 C 438.94219970703125 468.6053771972656 436.3377380371094 472.2850341796875 445.4808654785156 473.1626892089844 C 445.7976989746094 456.7542419433594 442.9656066894531 494.5869445800781 456.18634033203125 511.1984558105469" stroke-width="0.0" fill="rgb(212, 105, 111)" opacity="0.18325724" stroke="rgb(0, 0, 0)" stroke-opacity="1.0" stroke-linecap="round" stroke-linejoin="round"/>
    <path d="M 465.6590270996094 5.104036331176758 C 473.300048828125 16.500228881835938 470.9642333984375 11.244032859802246 471.49945068359375 10.07927131652832 C 469.7865295410156 12.850988388061523 414.23126220703125 4.700973987579346 412.880615234375 0.6683580875396729 C 427.5659484863281 -8.874123573303223 440.6412048339844 -20.14352798461914 438.6040954589844 -39.35424041748047 C 463.5885314941406 -32.993534088134766 473.7996826171875 -23.696857452392578 465.6590270996094 5.104036331176758" stroke-width="0.0" fill="rgb(45, 0, 207)" opacity="0.24835664" stroke="rgb(0, 0, 0)" stroke-opacity="1.0" stroke-linecap="round" stroke-linejoin="round"/>
    <path d="M 186.0678253173828 250.37088012695312 C 179.93045043945312 238.50352478027344 176.86390686035156 247.2625274658203 178.37478637695312 253.3426055908203 C 172.61978149414062 256.60260009765625 169.19139099121094 254.37681579589844 178.48965454101562 246.92137145996094 C 163.85867309570312 254.46560668945312 160.91062927246094 242.1443634033203 166.4705810546875 254.93551635742188 C 180.61216735839844 252.54351806640625 189.32089233398438 260.50244140625 186.0678253173828 250.37088012695312" stroke-width="0.0" fill="rgb(167, 119, 0)" opacity="0.64901704" stroke="rgb(0, 0, 0)" stroke-opacity="1.0" stroke-linecap="round" stroke-linejoin="round"/>
    <path d="M 191.75978088378906 415.6484375 C 184.23321533203125 423.3346862792969 176.13583374023438 453.73590087890625 192.26016235351562 465.1845703125 C 161.0976104736328 487.1146545410156 127.63418579101562 483.4877624511719 118.01228332519531 454.0480651855469 C 132.41098022460938 368.000732421875 150.10748291015625 378.8879089355469 168.37399291992188 404.350830078125 C 180.03231811523438 414.4384460449219 190.88905334472656 416.30511474609375 191.75978088378906 415.6484375" stroke-width="0.0" fill="rgb(201, 218, 206)" opacity="0.07255907" stroke="rgb(0, 0, 0)" stroke-opacity="1.0" stroke-linecap="round" stroke-linejoin="round"/>
    <path d="M 191.84449768066406 260.9672546386719 C 191.53517150878906 251.9927215576172 193.44967651367188 256.2901916503906 188.72576904296875 255.94651794433594 C 169.81121826171875 259.02667236328125 138.91439819335938 216.76832580566406 147.49559020996094 227.38357543945312 C 197.0616455078125 226.6873016357422 190.3260498046875 252.26849365234375 189.39857482910156 230.86317443847656 C 207.92433166503906 240.41537475585938 191.43560791015625 229.88919067382812 191.84449768066406 260.9672546386719" stroke-width="0.0" fill="rgb(255, 255, 0)" opacity="1.0" stroke="rgb(0, 0, 0)" stroke-opacity="1.0" stroke-linecap="round" stroke-linejoin="round"/>
    <path d="M 188.60592651367188 340.5430603027344 C 184.91677856445312 342.4068908691406 184.70504760742188 354.6553039550781 192.67333984375 376.7694091796875 C 158.22604370117188 399.5611267089844 169.6792449951172 383.94622802734375 162.0854034423828 346.93157958984375 C 176.24746704101562 332.5476989746094 184.96420288085938 346.8194580078125 166.325439453125 332.59234619140625 C 167.66104125976562 328.0700988769531 172.86878967285156 339.60870361328125 188.60592651367188 340.5430603027344" stroke-width="0.0" fill="rgb(47, 36, 150)" opacity="0.48546875" stroke="rgb(0, 0, 0)" stroke-opacity="1.0" stroke-linecap="round" stroke-linejoin="round"/>
    <path d="M 61.02742004394531 428.015380859375 C 70.91048431396484 446.52618408203125 48.45836639404297 446.1279602050781 57.88045883178711 468.6308898925781 C 73.85225677490234 467.6576843261719 67.1856689453125 464.7870178222656 84.34623718261719 462.0735778808594 C 62.42662048339844 458.5310363769531 70.38876342773438 456.37713623046875 58.04317092895508 453.9030456542969 C 52.22482681274414 444.70172119140625 45.58345413208008 439.806396484375 61.02742004394531 428.015380859375" stroke-width="0.0" fill="rgb(230, 252, 229)" opacity="0.015737148" stroke="rgb(0, 0, 0)" stroke-opacity="1.0" stroke-linecap="round" stroke-linejoin="round"/>
    <path d="M 486.9327392578125 403.04156494140625 C 450.5396728515625 464.6225280761719 457.5868835449219 495.4161376953125 429.4997253417969 477.3879089355469 C 437.4293212890625 477.0824890136719 418.99200439453125 457.4049072265625 415.1850280761719 434.6016845703125 C 435.2682800292969 451.62823486328125 426.2335510253906 466.4664001464844 453.712158203125 470.0484619140625 C 493.2916564941406 431.16607666015625 521.822021484375 458.71466064453125 486.9327392578125 403.04156494140625" stroke-width="0.0" fill="rgb(224, 234, 161)" opacity="0.016315395" stroke="rgb(0, 0, 0)" stroke-opacity="1.0" stroke-linecap="round" stroke-linejoin="round"/>
    <path d="M 450.4447326660156 395.619384765625 C 451.5145568847656 394.6429748535156 476.236083984375 379.6224060058594 448.52789306640625 378.8296813964844 C 435.648681640625 362.5390319824219 416.6475830078125 372.76190185546875 408.9948425292969 351.54010009765625 C 416.8154602050781 358.97735595703125 406.22137451171875 344.1998291015625 434.46624755859375 290.94903564453125 C 489.1495056152344 275.36456298828125 457.2508850097656 312.83837890625 450.4447326660156 395.619384765625" stroke-width="0.0" fill="rgb(138, 153, 199)" opacity="0.19900383" stroke="rgb(0, 0, 0)" stroke-opacity="1.0" stroke-linecap="round" stroke-linejoin="round"/>
    <path d="M 45.002342224121094 138.5771026611328 C 35.02045440673828 138.55712890625 29.54783058166504 145.83673095703125 26.176410675048828 155.93536376953125 C 25.122831344604492 151.99130249023438 1.745679497718811 134.19642639160156 -9.538403511047363 121.855712890625 C -23.447784423828125 99.90060424804688 -11.666974067687988 97.92207336425781 10.424720764160156 98.06320190429688 C 30.683908462524414 103.28129577636719 33.453514099121094 123.23025512695312 45.002342224121094 138.5771026611328" stroke-width="0.0" fill="rgb(255, 255, 209)" opacity="0.011573253" stroke="rgb(0, 0, 0)" stroke-opacity="1.0" stroke-linecap="round" stroke-linejoin="round"/>
    <path d="M 95.22044372558594 501.62249755859375 C 82.60660552978516 514.736083984375 71.995849609375 527.768798828125 28.0553035736084 524.3885498046875 C 40.26866149902344 516.4385986328125 32.03260803222656 480.0889587402344 3.422755718231201 445.66339111328125 C -16.29710578918457 462.4611511230469 0.8313484787940979 474.35162353515625 47.19499969482422 460.0526123046875 C 74.02875518798828 421.1865234375 79.61650848388672 432.6106262207031 95.22044372558594 501.62249755859375" stroke-width="0.0" fill="rgb(224, 255, 136)" opacity="0.013131525" stroke="rgb(0, 0, 0)" stroke-opacity="1.0" stroke-linecap="round" stroke-linejoin="round"/>
    <path d="M 121.71321868896484 225.38418579101562 C 127.3963623046875 227.53993225097656 123.93834686279297 234.11102294921875 121.61557006835938 244.3075714111328 C 141.583984375 239.9088592529297 119.17072296142578 243.96388244628906 102.26165008544922 223.8953094482422 C 130.12074279785156 220.829345703125 114.26282501220703 222.14109802246094 140.55929565429688 230.50753784179688 C 153.46063232421875 234.80636596679688 133.17063903808594 223.06326293945312 121.71321868896484 225.38418579101562" stroke-width="0.0" fill="rgb(63, 154, 191)" opacity="0.454606" stroke="rgb(0, 0, 0)" stroke-opacity="1.0" stroke-linecap="round" stroke-linejoin="round"/>
    <path d="M 314.0009765625 -16.637840270996094 C 326.7644958496094 10.995326042175293 315.1412658691406 18.79135513305664 290.8537292480469 30.979162216186523 C 231.79788208007812 85.06246948242188 214.71865844726562 87.03660583496094 227.8992156982422 46.904998779296875 C 268.1900329589844 54.006412506103516 284.95770263671875 36.96059036254883 255.6980438232422 15.42836856842041 C 267.7295227050781 -57.25161361694336 291.6611328125 -19.3658390045166 314.0009765625 -16.637840270996094" stroke-width="0.0" fill="rgb(238, 237, 93)" opacity="0.060140025" stroke="rgb(0, 0, 0)" stroke-opacity="1.0" stroke-linecap="round" stroke-linejoin="round"/>
    <path d="M 154.6973114013672 173.20211791992188 C 126.35110473632812 181.82215881347656 108.64591979980469 201.2508544921875 113.14667510986328 203.13612365722656 C 101.82534790039062 186.24412536621094 82.95026397705078 165.7478790283203 87.34990692138672 177.71717834472656 C 108.43954467773438 156.03965759277344 107.05379486083984 155.8783721923828 126.27044677734375 179.62359619140625 C 137.7109375 146.72732543945312 159.78501892089844 138.90577697753906 154.6973114013672 173.20211791992188" stroke-width="0.0" fill="rgb(196, 187, 212)" opacity="0.05870683" stroke="rgb(0, 0, 0)" stroke-opacity="1.0" stroke-linecap="round" stroke-linejoin="round"/>
    <path d="M 472.9115295410156 254.18365478515625 C 452.6730041503906 243.4442596435547 455.91534423828125 242.79296875 455.64593505859375 273.2059326171875 C 446.1518859863281 270.96331787109375 427.080078125 258.19049072265625 390.279541015625 223.88528442382812 C 416.4535217285156 220.4869842529297 452.1382751464844 257.6585388183594 443.93133544921875 260.4981994628906 C 420.5970153808594 205.5081329345703 436.40008544921875 214.63780212402344 472.9115295410156 254.18365478515625" stroke-width="0.0" fill="rgb(26, 19, 97)" opacity="0.9512505" stroke="rgb(0, 0, 0)" stroke-opacity="1.0" stroke-linecap="round" stroke-linejoin="round"/>
    <path d="M 347.3804016113281 350.3941345214844 C 339.94659423828125 365.2637939453125 322.93243408203125 357.65716552734375 320.7897033691406 364.1744079589844 C 315.3692321777344 399.7054138183594 301.3636474609375 428.4808349609375 278.4621887207031 405.4986267089844 C 334.4328918457031 371.21893310546875 353.595703125 372.7430419921875 338.6749572753906 359.54656982421875 C 349.48046875 366.059326171875 361.32366943359375 366.9814147949219 347.3804016113281 350.3941345214844" stroke-width="0.0" fill="rgb(140, 112, 234)" opacity="0.5733813" stroke="rgb(0, 0, 0)" stroke-opacity="1.0" stroke-linecap="round" stroke-linejoin="round"/>
    <path d="M 365.9937744140625 173.9780731201172 C 359.4930725097656 183.6110076904297 337.4999694824219 189.0418243408203 330.3335266113281 218.1002197265625 C 349.5273132324219 223.95712280273438 340.11114501953125 244.0312042236328 366.34747314453125 207.79302978515625 C 333.6125793457031 172.42459106445312 320.42388916015625 145.8557891845703 355.1075744628906 129.7086944580078 C 383.4044189453125 168.45016479492188 358.9668884277344 202.04759216308594 365.9937744140625 173.9780731201172" stroke-width="0.0" fill="rgb(236, 255, 228)" opacity="0.081633955" stroke="rgb(0, 0, 0)" stroke-opacity="1.0" stroke-linecap="round" stroke-linejoin="round"/>
    <path d="M 111.15843200683594 465.3739929199219 C 129.85104370117188 474.0260925292969 124.06404876708984 491.47967529296875 133.51364135742188 468.0994567871094 C 134.22756958007812 428.725341796875 109.86992645263672 429.09417724609375 69.8944320678711 416.4276428222656 C 68.59307861328125 403.4039001464844 79.345703125 424.46612548828125 36.355464935302734 427.6006774902344 C 88.5334243774414 415.6633605957031 102.64000701904297 425.0167236328125 111.15843200683594 465.3739929199219" stroke-width="0.0" fill="rgb(198, 255, 153)" opacity="0.0" stroke="rgb(0, 0, 0)" stroke-opacity="1.0" stroke-linecap="round" stroke-linejoin="round"/>
    <path d="M 129.59893798828125 456.8343811035156 C 115.01156616210938 421.0067443847656 110.44361114501953 463.11224365234375 108.00227355957031 463.4258728027344 C 97.75890350341797 436.2786865234375 64.70967102050781 455.7453918457031 45.411869049072266 451.2350769042969 C 40.56717300415039 408.8736877441406 69.00050354003906 398.17242431640625 71.4541244506836 438.68450927734375 C 97.49978637695312 431.29833984375 105.95153045654297 451.52099609375 129.59893798828125 456.8343811035156" stroke-width="0.0" fill="rgb(180, 255, 134)" opacity="0.06432631" stroke="rgb(0, 0, 0)" stroke-opacity="1.0" stroke-linecap="round" stroke-linejoin="round"/>
  </g>
</svg>
