<?xml version="1.0" ?>
<svg xmlns="http://www.w3.org/2000/svg" version="1.1" width="512" height="512">
  <defs/>
  <g>
    <path d="M 552.4641723632812 447.56182861328125 C 539.9406127929688 513.6859741210938 547.0262451171875 524.7042846679688 398.8675231933594 589.1865234375 C 339.4200439453125 579.8575439453125 317.22991943359375 586.744873046875 193.2630157470703 506.4591064453125 C 242.66226196289062 277.0166015625 294.6241149902344 333.7652282714844 449.0074157714844 323.0746765136719 C 567.7548828125 344.7747802734375 573.4940795898438 355.1246643066406 552.4641723632812 447.56182861328125" stroke-width="0.0" fill="rgb(32, 86, 132)" opacity="0.9241842" stroke="rgb(0, 0, 0)" stroke-opacity="1.0" stroke-linecap="round" stroke-linejoin="round"/>
    <path d="M 298.3687744140625 478.63372802734375 C 163.23968505859375 428.7287902832031 309.5618591308594 529.2611694335938 112.63590240478516 552.4467163085938 C -51.20000076293945 518.5575561523438 -51.20000076293945 507.9428405761719 -51.45539093017578 431.313720703125 C -43.96866226196289 187.03355407714844 -25.786531448364258 200.85153198242188 43.3090934753418 157.54373168945312 C 197.355224609375 263.4354248046875 247.0415802001953 245.59365844726562 298.3687744140625 478.63372802734375" stroke-width="0.0" fill="rgb(15, 155, 138)" opacity="0.79578424" stroke="rgb(0, 0, 0)" stroke-opacity="1.0" stroke-linecap="round" stroke-linejoin="round"/>
    <path d="M 309.06329345703125 324.7039794921875 C 243.23512268066406 476.81512451171875 291.8627624511719 483.4352111816406 213.3764190673828 472.628173828125 C 67.838623046875 341.0240478515625 93.76492309570312 286.24560546875 59.74713897705078 159.57391357421875 C 74.53814697265625 155.20851135253906 73.12794494628906 190.85755920410156 88.80488586425781 188.62155151367188 C 207.96917724609375 200.79444885253906 167.41336059570312 232.36102294921875 309.06329345703125 324.7039794921875" stroke-width="0.0" fill="rgb(54, 81, 189)" opacity="0.8626163" stroke="rgb(0, 0, 0)" stroke-opacity="1.0" stroke-linecap="round" stroke-linejoin="round"/>
    <path d="M 283.9303894042969 -1.5045595169067383 C 223.20765686035156 151.4980010986328 172.48684692382812 157.27084350585938 -9.94986343383789 197.06016540527344 C -32.18320846557617 201.2867889404297 -30.31455421447754 187.3277130126953 -28.072978973388672 44.263431549072266 C -13.004427909851074 -13.631946563720703 -4.874516010284424 -18.456117630004883 24.976186752319336 -16.1602840423584 C 185.19146728515625 -17.893600463867188 202.89389038085938 -19.61880111694336 283.9303894042969 -1.5045595169067383" stroke-width="0.0" fill="rgb(59, 180, 164)" opacity="0.99763846" stroke="rgb(0, 0, 0)" stroke-opacity="1.0" stroke-linecap="round" stroke-linejoin="round"/>
    <path d="M 576.6181640625 177.21849060058594 C 476.9241638183594 305.1219482421875 440.6704406738281 291.6528015136719 301.40740966796875 337.4461364746094 C 247.9359893798828 385.15087890625 223.27890014648438 406.4353942871094 241.47555541992188 208.2818603515625 C 223.5375213623047 31.882417678833008 205.27597045898438 -12.505975723266602 414.4832458496094 -54.757286071777344 C 563.2000122070312 0.19759994745254517 563.2000122070312 17.676347732543945 576.6181640625 177.21849060058594" stroke-width="0.0" fill="rgb(68, 2, 88)" opacity="0.9436762" stroke="rgb(0, 0, 0)" stroke-opacity="1.0" stroke-linecap="round" stroke-linejoin="round"/>
    <path d="M 344.6476745605469 72.68452453613281 C 269.5692138671875 297.3278503417969 280.3305358886719 355.630126953125 235.5623321533203 316.5524597167969 C 96.7301025390625 201.1333770751953 53.32623291015625 245.00552368164062 56.20109939575195 202.27291870117188 C 92.13483428955078 134.30902099609375 97.40544891357422 81.4305648803711 285.0967102050781 -21.102705001831055 C 415.3999938964844 -4.677707195281982 425.9793395996094 -13.015713691711426 344.6476745605469 72.68452453613281" stroke-width="0.0" fill="rgb(34, 86, 182)" opacity="1.0" stroke="rgb(0, 0, 0)" stroke-opacity="1.0" stroke-linecap="round" stroke-linejoin="round"/>
    <path d="M 549.456787109375 360.9185791015625 C 538.1974487304688 457.35052490234375 543.9185791015625 452.65374755859375 276.3645935058594 466.7537841796875 C 261.28350830078125 428.8389587402344 252.8425750732422 420.47869873046875 271.4731750488281 352.1599426269531 C 222.69024658203125 219.17929077148438 277.4936218261719 208.7346954345703 347.93768310546875 215.46339416503906 C 450.87677001953125 239.0321044921875 454.134765625 249.3699493408203 549.456787109375 360.9185791015625" stroke-width="0.0" fill="rgb(232, 255, 67)" opacity="1.0" stroke="rgb(0, 0, 0)" stroke-opacity="1.0" stroke-linecap="round" stroke-linejoin="round"/>
    <path d="M 546.0960693359375 221.27952575683594 C 568.1563110351562 337.3162841796875 575.4503173828125 368.15191650390625 491.90606689453125 394.61309814453125 C 316.1018371582031 402.712646484375 320.5356140136719 361.3085021972656 397.6271667480469 195.12718200683594 C 382.2615661621094 49.79612731933594 338.2372131347656 -50.116233825683594 513.8558959960938 138.5065460205078 C 564.44091796875 132.00584411621094 552.3492431640625 136.25399780273438 546.0960693359375 221.27952575683594" stroke-width="0.0" fill="rgb(54, 172, 144)" opacity="0.9999261" stroke="rgb(0, 0, 0)" stroke-opacity="1.0" stroke-linecap="round" stroke-linejoin="round"/>
    <path d="M 315.9315185546875 253.85513305664062 C 294.97955322265625 251.96925354003906 309.6031799316406 263.5630798339844 299.8921203613281 289.4664001464844 C 237.2278594970703 322.7011413574219 262.6424865722656 308.35137939453125 211.24644470214844 266.2543640136719 C 158.01622009277344 111.37959289550781 129.1073760986328 107.76544952392578 330.2930603027344 112.18595886230469 C 310.0663757324219 204.77809143066406 312.6495666503906 251.23619079589844 315.9315185546875 253.85513305664062" stroke-width="0.0" fill="rgb(255, 173, 9)" opacity="0.4360519" stroke="rgb(0, 0, 0)" stroke-opacity="1.0" stroke-linecap="round" stroke-linejoin="round"/>
    <path d="M 457.23577880859375 398.8711242675781 C 335.62445068359375 360.5322570800781 369.0805969238281 275.2808532714844 368.6866760253906 233.557373046875 C 358.4217834472656 225.10906982421875 353.16973876953125 227.85105895996094 350.37103271484375 225.234130859375 C 331.92205810546875 207.98919677734375 342.94244384765625 197.99790954589844 364.0525817871094 77.56440734863281 C 397.7864990234375 99.32975769042969 483.2144775390625 50.70635223388672 457.23577880859375 398.8711242675781" stroke-width="0.0" fill="rgb(29, 106, 198)" opacity="0.8953146" stroke="rgb(0, 0, 0)" stroke-opacity="1.0" stroke-linecap="round" stroke-linejoin="round"/>
    <path d="M 244.00759887695312 257.9676818847656 C 249.2675323486328 293.57464599609375 245.2210693359375 282.9339294433594 203.57052612304688 304.9935607910156 C 207.48435974121094 309.7364807128906 208.8206024169922 273.6903991699219 110.12122344970703 227.77366638183594 C 132.72140502929688 159.8080291748047 121.03620147705078 125.52471923828125 174.8119354248047 120.40486907958984 C 250.9884490966797 249.00601196289062 303.81219482421875 180.22348022460938 244.00759887695312 257.9676818847656" stroke-width="0.0" fill="rgb(45, 103, 163)" opacity="0.99819326" stroke="rgb(0, 0, 0)" stroke-opacity="1.0" stroke-linecap="round" stroke-linejoin="round"/>
    <path d="M 401.7822265625 301.170654296875 C 375.1217346191406 314.11932373046875 362.8212585449219 256.3768310546875 393.3132629394531 511.5174560546875 C 167.65957641601562 491.8509521484375 267.2207336425781 403.90045166015625 334.86993408203125 306.1141662597656 C 376.7960205078125 163.00299072265625 384.7138977050781 132.58157348632812 355.8642578125 220.87530517578125 C 377.1915588378906 236.8955841064453 407.0144958496094 276.7511901855469 401.7822265625 301.170654296875" stroke-width="0.0" fill="rgb(233, 251, 97)" opacity="0.9941741" stroke="rgb(0, 0, 0)" stroke-opacity="1.0" stroke-linecap="round" stroke-linejoin="round"/>
    <path d="M 518.335205078125 51.07855224609375 C 529.7528686523438 102.9663314819336 554.818359375 201.86383056640625 496.9153137207031 251.87815856933594 C 441.94384765625 112.31336212158203 418.15911865234375 60.528202056884766 328.1970520019531 5.919615268707275 C 345.9970703125 -68.47374725341797 386.17340087890625 -46.66786193847656 455.3987121582031 -33.90930938720703 C 554.635009765625 2.2700655460357666 551.8678588867188 14.962742805480957 518.335205078125 51.07855224609375" stroke-width="0.0" fill="rgb(28, 156, 156)" opacity="1.0" stroke="rgb(0, 0, 0)" stroke-opacity="1.0" stroke-linecap="round" stroke-linejoin="round"/>
    <path d="M 380.11822509765625 60.899776458740234 C 397.6534729003906 55.3565559387207 358.67041015625 30.035358428955078 352.4010009765625 43.976219177246094 C 396.2843322753906 63.01214599609375 378.29541015625 23.55233383178711 360.5933532714844 34.004005432128906 C 359.41339111328125 21.112916946411133 375.8908386230469 17.458389282226562 369.9148254394531 50.94861602783203 C 347.2241516113281 69.96717071533203 393.1069030761719 68.13411712646484 380.11822509765625 60.899776458740234" stroke-width="0.0" fill="rgb(235, 57, 61)" opacity="0.661783" stroke="rgb(0, 0, 0)" stroke-opacity="1.0" stroke-linecap="round" stroke-linejoin="round"/>
    <path d="M 451.129150390625 413.15069580078125 C 457.31683349609375 413.9662780761719 451.484130859375 437.40234375 439.6441345214844 450.825439453125 C 428.5765380859375 447.1978454589844 436.4906311035156 413.26324462890625 356.126953125 360.54376220703125 C 346.19439697265625 305.6835632324219 391.1492919921875 321.4657897949219 398.3634948730469 342.7059326171875 C 432.0705261230469 417.73309326171875 433.9512939453125 439.5252990722656 451.129150390625 413.15069580078125" stroke-width="0.0" fill="rgb(7, 93, 211)" opacity="0.9777058" stroke="rgb(0, 0, 0)" stroke-opacity="1.0" stroke-linecap="round" stroke-linejoin="round"/>
    <path d="M 334.5738830566406 409.0060119628906 C 301.21673583984375 457.3263854980469 308.5120544433594 502.7317810058594 281.86114501953125 498.5264587402344 C 230.32994079589844 477.0898132324219 217.8259735107422 452.8292236328125 229.53831481933594 411.718017578125 C 242.75035095214844 366.2452087402344 265.24163818359375 323.1833190917969 281.6075439453125 354.5129699707031 C 318.09283447265625 349.6487731933594 231.9892120361328 412.5458068847656 334.5738830566406 409.0060119628906" stroke-width="0.0" fill="rgb(223, 255, 116)" opacity="0.9064109" stroke="rgb(0, 0, 0)" stroke-opacity="1.0" stroke-linecap="round" stroke-linejoin="round"/>
    <path d="M 480.15899658203125 445.2207946777344 C 438.48504638671875 494.9034118652344 407.7637023925781 480.485595703125 380.9803771972656 521.3494873046875 C 304.80059814453125 543.1765747070312 299.6429138183594 550.6281127929688 278.6279602050781 493.5256652832031 C 398.4853210449219 504.0977478027344 400.8619384765625 406.7518615722656 377.02398681640625 391.7684326171875 C 456.7109680175781 375.6632995605469 471.69122314453125 366.5658264160156 480.15899658203125 445.2207946777344" stroke-width="0.0" fill="rgb(51, 86, 115)" opacity="1.0" stroke="rgb(0, 0, 0)" stroke-opacity="1.0" stroke-linecap="round" stroke-linejoin="round"/>
    <path d="M 563.2861328125 451.37469482421875 C 552.0597534179688 481.5760192871094 556.5428466796875 506.9779357910156 403.36407470703125 573.29345703125 C 344.2181701660156 492.6639709472656 400.958740234375 434.2162170410156 452.6104736328125 421.8600769042969 C 466.7663879394531 377.1489562988281 477.7392272949219 368.20172119140625 515.4120483398438 166.37551879882812 C 561.7499389648438 208.6778106689453 573.0216064453125 305.0029296875 563.2861328125 451.37469482421875" stroke-width="0.0" fill="rgb(34, 143, 150)" opacity="0.9821697" stroke="rgb(0, 0, 0)" stroke-opacity="1.0" stroke-linecap="round" stroke-linejoin="round"/>
    <path d="M 244.6257781982422 389.05377197265625 C 187.38291931152344 366.78662109375 175.5797576904297 379.6418762207031 242.86061096191406 419.5181579589844 C 276.5083312988281 399.4499206542969 279.0292053222656 389.239013671875 259.7927551269531 334.41851806640625 C 291.96405029296875 319.2803649902344 219.37347412109375 285.17486572265625 255.7512969970703 332.8131408691406 C 278.2451477050781 325.3246154785156 264.317138671875 365.0094299316406 244.6257781982422 389.05377197265625" stroke-width="0.0" fill="rgb(100, 148, 108)" opacity="0.47452214" stroke="rgb(0, 0, 0)" stroke-opacity="1.0" stroke-linecap="round" stroke-linejoin="round"/>
    <path d="M 8.017446517944336 523.0326538085938 C 17.174198150634766 520.413330078125 10.538132667541504 527.49951171875 0.7022038698196411 530.6587524414062 C -9.364206314086914 527.7437133789062 -16.68471336364746 520.4232177734375 -19.364206314086914 510.4232177734375 C -16.684417724609375 500.4241638183594 -9.341285705566406 493.1831359863281 -12.042186737060547 503.2685241699219 C -3.677582263946533 507.53009033203125 3.6094553470611572 514.7254638671875 8.017446517944336 523.0326538085938" stroke-width="0.0" fill="rgb(29, 3, 0)" opacity="0.113359906" stroke="rgb(0, 0, 0)" stroke-opacity="1.0" stroke-linecap="round" stroke-linejoin="round"/>
    <path d="M 315.55267333984375 426.04827880859375 C 289.5139465332031 442.3299255371094 317.0936584472656 395.6317138671875 293.8863525390625 493.6058349609375 C 329.3206787109375 503.9503479003906 283.52679443359375 438.9332275390625 306.3876953125 401.12542724609375 C 293.1466979980469 417.5546875 335.7958984375 419.7831726074219 299.28607177734375 400.8086853027344 C 275.8325500488281 390.7877197265625 310.3204040527344 429.1143798828125 315.55267333984375 426.04827880859375" stroke-width="0.0" fill="rgb(13, 0, 66)" opacity="1.0" stroke="rgb(0, 0, 0)" stroke-opacity="1.0" stroke-linecap="round" stroke-linejoin="round"/>
    <path d="M 302.1827087402344 283.5069580078125 C 352.28009033203125 256.86114501953125 332.4878234863281 250.44007873535156 328.3412780761719 347.095703125 C 272.21832275390625 343.1813049316406 299.4120788574219 359.90673828125 300.0459289550781 284.7847595214844 C 323.9707946777344 276.57293701171875 330.4017639160156 249.46665954589844 277.86883544921875 281.30572509765625 C 272.46728515625 300.7377624511719 301.3644104003906 277.2561950683594 302.1827087402344 283.5069580078125" stroke-width="0.0" fill="rgb(24, 3, 90)" opacity="0.9789045" stroke="rgb(0, 0, 0)" stroke-opacity="1.0" stroke-linecap="round" stroke-linejoin="round"/>
    <path d="M 274.17852783203125 420.87591552734375 C 293.0939025878906 412.58343505859375 318.2444152832031 409.6996765136719 278.03253173828125 392.2430419921875 C 233.34425354003906 425.2534484863281 262.7151794433594 421.5063781738281 265.80230712890625 371.1653137207031 C 238.76829528808594 367.1087646484375 255.88926696777344 372.3518981933594 289.5952453613281 380.6089172363281 C 278.6272888183594 374.9258117675781 280.4413757324219 393.65509033203125 274.17852783203125 420.87591552734375" stroke-width="0.0" fill="rgb(183, 200, 41)" opacity="0.10601628" stroke="rgb(0, 0, 0)" stroke-opacity="1.0" stroke-linecap="round" stroke-linejoin="round"/>
    <path d="M 338.93218994140625 106.8053207397461 C 297.4880065917969 106.91232299804688 282.5467529296875 118.13116455078125 273.7953796386719 115.94309997558594 C 290.354248046875 124.1753158569336 279.46722412109375 115.17871856689453 234.56011962890625 136.97515869140625 C 189.53233337402344 106.17188262939453 232.1896514892578 87.71179962158203 255.6893768310547 75.18524932861328 C 318.66107177734375 79.61566925048828 334.1292724609375 84.30216979980469 338.93218994140625 106.8053207397461" stroke-width="0.0" fill="rgb(51, 94, 178)" opacity="0.9958757" stroke="rgb(0, 0, 0)" stroke-opacity="1.0" stroke-linecap="round" stroke-linejoin="round"/>
    <path d="M 303.6947937011719 420.5538635253906 C 298.0426330566406 388.1133117675781 280.19635009765625 390.8549499511719 298.72283935546875 491.71038818359375 C 322.1902770996094 393.74639892578125 349.1423034667969 386.1790771484375 287.7560119628906 394.7887268066406 C 279.78912353515625 379.9075622558594 280.5262756347656 386.55230712890625 278.9847717285156 361.4059753417969 C 274.1755065917969 403.0963439941406 284.37677001953125 401.0210876464844 303.6947937011719 420.5538635253906" stroke-width="0.0" fill="rgb(18, 0, 107)" opacity="1.0" stroke="rgb(0, 0, 0)" stroke-opacity="1.0" stroke-linecap="round" stroke-linejoin="round"/>
    <path d="M 373.1003723144531 60.77851486206055 C 401.640625 52.84717559814453 405.9429016113281 86.2127685546875 364.4459228515625 82.89088439941406 C 373.1966552734375 85.07083129882812 365.9917907714844 81.83220672607422 370.1479797363281 85.52814483642578 C 399.5041198730469 66.68699645996094 415.7622375488281 92.22322082519531 392.0907287597656 72.17864990234375 C 350.5011901855469 63.39045715332031 366.6325378417969 106.04450988769531 373.1003723144531 60.77851486206055" stroke-width="0.0" fill="rgb(115, 73, 169)" opacity="0.32874918" stroke="rgb(0, 0, 0)" stroke-opacity="1.0" stroke-linecap="round" stroke-linejoin="round"/>
    <path d="M 325.53399658203125 125.9271469116211 C 314.5615539550781 192.0064697265625 317.7735290527344 228.93446350097656 290.3384094238281 195.81700134277344 C 192.49038696289062 206.0824432373047 181.9762420654297 241.70428466796875 255.0028533935547 192.27252197265625 C 287.9001770019531 175.46798706054688 255.88143920898438 195.14707946777344 336.55889892578125 181.580810546875 C 292.0595703125 137.9165496826172 281.22076416015625 151.09742736816406 325.53399658203125 125.9271469116211" stroke-width="0.0" fill="rgb(207, 218, 129)" opacity="0.7621978" stroke="rgb(0, 0, 0)" stroke-opacity="1.0" stroke-linecap="round" stroke-linejoin="round"/>
    <path d="M 245.38494873046875 392.821044921875 C 245.43826293945312 430.49810791015625 245.69667053222656 404.0247802734375 248.40310668945312 432.8167419433594 C 237.5023193359375 431.0559997558594 206.77294921875 423.15386962890625 193.6151123046875 397.81396484375 C 165.6500701904297 334.6211242675781 185.40769958496094 345.7542724609375 241.83123779296875 377.5294494628906 C 260.7528076171875 383.2430419921875 248.4756622314453 370.6751708984375 245.38494873046875 392.821044921875" stroke-width="0.0" fill="rgb(169, 16, 48)" opacity="0.7691431" stroke="rgb(0, 0, 0)" stroke-opacity="1.0" stroke-linecap="round" stroke-linejoin="round"/>
    <path d="M 331.109130859375 236.89732360839844 C 329.2107238769531 245.98385620117188 333.4482421875 238.48703002929688 334.1183166503906 260.9413146972656 C 326.85211181640625 301.2540283203125 330.438720703125 301.68450927734375 292.7967224121094 286.5977478027344 C 307.20703125 222.38662719726562 316.816162109375 193.48880004882812 304.1782531738281 214.6206512451172 C 340.48809814453125 191.22866821289062 332.6317138671875 189.8845977783203 331.109130859375 236.89732360839844" stroke-width="0.0" fill="rgb(24, 0, 102)" opacity="1.0" stroke="rgb(0, 0, 0)" stroke-opacity="1.0" stroke-linecap="round" stroke-linejoin="round"/>
    <path d="M 246.63125610351562 385.4527587890625 C 205.9697723388672 396.9865417480469 210.840576171875 407.7347717285156 212.2321014404297 403.7828369140625 C 186.73838806152344 410.2069091796875 178.65928649902344 363.51251220703125 184.25668334960938 347.8551940917969 C 194.18447875976562 346.7981872558594 186.65005493164062 334.0082092285156 189.00482177734375 344.5483703613281 C 203.53884887695312 350.2981872558594 227.37960815429688 355.19696044921875 246.63125610351562 385.4527587890625" stroke-width="0.0" fill="rgb(210, 79, 13)" opacity="0.7372625" stroke="rgb(0, 0, 0)" stroke-opacity="1.0" stroke-linecap="round" stroke-linejoin="round"/>
    <path d="M 463.8464050292969 383.24932861328125 C 465.0381164550781 440.9145812988281 430.07965087890625 461.2738037109375 385.3138122558594 415.1174011230469 C 418.9899597167969 407.9450988769531 423.3290710449219 440.2388000488281 437.2042236328125 410.83355712890625 C 430.0202941894531 412.5694274902344 442.90643310546875 377.91162109375 461.1099853515625 384.01861572265625 C 441.2079772949219 385.2726745605469 447.3683166503906 373.4010009765625 463.8464050292969 383.24932861328125" stroke-width="0.0" fill="rgb(13, 139, 164)" opacity="0.25526395" stroke="rgb(0, 0, 0)" stroke-opacity="1.0" stroke-linecap="round" stroke-linejoin="round"/>
    <path d="M 400.3547058105469 388.7803955078125 C 397.5721740722656 379.9932556152344 391.40850830078125 406.8011779785156 382.6265869140625 401.9549865722656 C 381.3876037597656 408.96392822265625 396.34710693359375 408.92047119140625 372.84637451171875 382.5452880859375 C 354.2738342285156 356.8955383300781 361.1564025878906 363.7063903808594 424.1788330078125 349.0786437988281 C 430.23284912109375 370.8109436035156 403.8268737792969 391.8727111816406 400.3547058105469 388.7803955078125" stroke-width="0.0" fill="rgb(205, 44, 33)" opacity="0.7491387" stroke="rgb(0, 0, 0)" stroke-opacity="1.0" stroke-linecap="round" stroke-linejoin="round"/>
    <path d="M 249.142822265625 135.49510192871094 C 271.1907958984375 163.0269775390625 295.50982666015625 151.96713256835938 237.80172729492188 166.74571228027344 C 220.42681884765625 184.09036254882812 221.0405731201172 155.53826904296875 229.3428955078125 150.90628051757812 C 152.2172393798828 128.9044952392578 190.64991760253906 87.19465637207031 239.64019775390625 129.09996032714844 C 258.42547607421875 124.7802734375 291.5918884277344 104.7782974243164 249.142822265625 135.49510192871094" stroke-width="0.0" fill="rgb(85, 11, 71)" opacity="0.53666633" stroke="rgb(0, 0, 0)" stroke-opacity="1.0" stroke-linecap="round" stroke-linejoin="round"/>
    <path d="M 249.54217529296875 384.7618408203125 C 260.12579345703125 429.8498229980469 262.5991516113281 430.16619873046875 254.0649871826172 450.6581726074219 C 218.1903533935547 466.5802001953125 218.6389923095703 411.4731750488281 237.0160369873047 394.2612609863281 C 244.6850128173828 384.0942077636719 245.6930389404297 392.6601257324219 245.6015167236328 398.54266357421875 C 245.5326385498047 404.86041259765625 251.40823364257812 403.1898193359375 249.54217529296875 384.7618408203125" stroke-width="0.0" fill="rgb(184, 252, 111)" opacity="0.917757" stroke="rgb(0, 0, 0)" stroke-opacity="1.0" stroke-linecap="round" stroke-linejoin="round"/>
    <path d="M 424.1618957519531 337.4064025878906 C 402.7375183105469 338.1513977050781 392.92626953125 339.50152587890625 406.9405212402344 325.59295654296875 C 420.1526794433594 331.0270080566406 397.5592041015625 317.3710632324219 389.9523620605469 311.63653564453125 C 389.5384521484375 318.1029357910156 384.4824523925781 305.0213928222656 394.4939270019531 257.96136474609375 C 420.0277099609375 305.827392578125 424.1065979003906 333.9598388671875 424.1618957519531 337.4064025878906" stroke-width="0.0" fill="rgb(34, 53, 170)" opacity="0.45089218" stroke="rgb(0, 0, 0)" stroke-opacity="1.0" stroke-linecap="round" stroke-linejoin="round"/>
    <path d="M 274.1087951660156 281.46435546875 C 258.87359619140625 303.173583984375 261.210693359375 298.9727783203125 258.8674011230469 313.42657470703125 C 250.6653594970703 317.1317443847656 232.09661865234375 319.363037109375 205.89007568359375 312.5129089355469 C 194.0467987060547 276.4380798339844 203.6389923095703 225.3604736328125 255.1700897216797 200.6036834716797 C 257.80224609375 247.37310791015625 260.41229248046875 279.4200439453125 274.1087951660156 281.46435546875" stroke-width="0.0" fill="rgb(226, 72, 20)" opacity="0.6677601" stroke="rgb(0, 0, 0)" stroke-opacity="1.0" stroke-linecap="round" stroke-linejoin="round"/>
    <path d="M 278.5513610839844 302.9198303222656 C 283.0858459472656 334.7545471191406 272.9920654296875 320.9294128417969 260.2148742675781 322.47088623046875 C 271.6204528808594 344.4547119140625 273.9189147949219 310.07232666015625 269.8028259277344 295.8101501464844 C 253.94873046875 300.21868896484375 245.60137939453125 273.3580017089844 276.5907897949219 268.4569091796875 C 259.33392333984375 292.45611572265625 257.8560485839844 296.1964111328125 278.5513610839844 302.9198303222656" stroke-width="0.0" fill="rgb(46, 84, 120)" opacity="0.2178194" stroke="rgb(0, 0, 0)" stroke-opacity="1.0" stroke-linecap="round" stroke-linejoin="round"/>
    <path d="M 530.94189453125 53.36918258666992 C 534.3703002929688 69.6583023071289 532.7606201171875 72.82471466064453 506.0015563964844 67.66594696044922 C 495.3416442871094 70.3650894165039 478.356689453125 36.09466552734375 514.5286865234375 47.17927932739258 C 488.7879333496094 48.857357025146484 491.476806640625 38.999481201171875 521.5245971679688 47.599918365478516 C 539.1282958984375 49.03256607055664 540.1729736328125 50.02915573120117 530.94189453125 53.36918258666992" stroke-width="0.0" fill="rgb(241, 123, 32)" opacity="0.94857395" stroke="rgb(0, 0, 0)" stroke-opacity="1.0" stroke-linecap="round" stroke-linejoin="round"/>
    <path d="M 314.0185546875 300.5716247558594 C 303.1138916015625 305.3183288574219 291.3141784667969 309.9062194824219 232.60215759277344 298.3584289550781 C 273.1709899902344 285.3983459472656 280.63446044921875 276.6883850097656 250.89378356933594 298.1031799316406 C 245.39967346191406 271.4923400878906 255.1890411376953 287.3987121582031 290.2620544433594 259.53997802734375 C 295.78070068359375 259.342529296875 318.4227600097656 301.6205749511719 314.0185546875 300.5716247558594" stroke-width="0.0" fill="rgb(166, 51, 62)" opacity="0.96004266" stroke="rgb(0, 0, 0)" stroke-opacity="1.0" stroke-linecap="round" stroke-linejoin="round"/>
    <path d="M 350.384765625 108.14562225341797 C 350.1266784667969 86.36174011230469 335.9812927246094 92.36003875732422 322.06585693359375 114.97357940673828 C 310.37664794921875 119.85395812988281 309.2706298828125 116.24627685546875 293.9747009277344 111.49398040771484 C 299.8732604980469 81.79944610595703 314.0107421875 54.1019401550293 318.8606262207031 62.3327751159668 C 342.3449401855469 82.14165496826172 341.3270263671875 111.24891662597656 350.384765625 108.14562225341797" stroke-width="0.0" fill="rgb(177, 166, 131)" opacity="0.70596945" stroke="rgb(0, 0, 0)" stroke-opacity="1.0" stroke-linecap="round" stroke-linejoin="round"/>
    <path d="M 358.39007568359375 225.86904907226562 C 383.3992614746094 234.4169921875 372.8714904785156 220.76596069335938 338.2334289550781 201.21453857421875 C 321.5936279296875 229.11036682128906 333.59918212890625 215.2425994873047 337.4610290527344 217.15455627441406 C 325.13519287109375 216.4252166748047 348.80047607421875 211.94032287597656 348.69024658203125 218.41746520996094 C 353.0191955566406 209.2904510498047 362.3154296875 212.65098571777344 358.39007568359375 225.86904907226562" stroke-width="0.0" fill="rgb(199, 31, 89)" opacity="0.9359055" stroke="rgb(0, 0, 0)" stroke-opacity="1.0" stroke-linecap="round" stroke-linejoin="round"/>
    <path d="M 211.74497985839844 258.66351318359375 C 187.83303833007812 248.0607147216797 184.2863311767578 287.0176086425781 176.33425903320312 252.86097717285156 C 135.94577026367188 256.87359619140625 140.1623992919922 258.2498779296875 165.51905822753906 232.06100463867188 C 163.4254913330078 228.01431274414062 184.7089385986328 204.17120361328125 193.0417022705078 197.7552947998047 C 203.69467163085938 224.38841247558594 204.97520446777344 240.5076446533203 211.74497985839844 258.66351318359375" stroke-width="0.0" fill="rgb(52, 92, 142)" opacity="0.004329364" stroke="rgb(0, 0, 0)" stroke-opacity="1.0" stroke-linecap="round" stroke-linejoin="round"/>
    <path d="M 185.378662109375 122.37433624267578 C 209.8328399658203 141.94537353515625 194.5962677001953 123.4115982055664 187.18887329101562 122.74048614501953 C 193.1270751953125 129.7545623779297 194.23548889160156 107.47023010253906 194.93283081054688 92.05569458007812 C 201.4055938720703 104.15074920654297 192.77688598632812 106.36380004882812 195.7135009765625 110.84567260742188 C 202.94798278808594 113.33968353271484 187.93328857421875 109.47880554199219 185.378662109375 122.37433624267578" stroke-width="0.0" fill="rgb(60, 70, 144)" opacity="0.586089" stroke="rgb(0, 0, 0)" stroke-opacity="1.0" stroke-linecap="round" stroke-linejoin="round"/>
    <path d="M 435.2492370605469 391.4158935546875 C 452.0272521972656 424.9581298828125 431.4688415527344 406.25616455078125 416.328125 387.79205322265625 C 407.6646423339844 387.1175842285156 403.1468505859375 381.6195983886719 421.92388916015625 372.61480712890625 C 420.77117919921875 374.94757080078125 405.0126037597656 352.92218017578125 397.71893310546875 356.83026123046875 C 436.3349914550781 361.3053283691406 462.5539245605469 342.8582458496094 435.2492370605469 391.4158935546875" stroke-width="0.0" fill="rgb(37, 143, 70)" opacity="0.044404246" stroke="rgb(0, 0, 0)" stroke-opacity="1.0" stroke-linecap="round" stroke-linejoin="round"/>
    <path d="M 35.243350982666016 104.86275482177734 C 37.3837890625 122.34611511230469 31.30997085571289 130.01577758789062 19.647815704345703 128.3450469970703 C 54.76483917236328 121.62694549560547 54.3105354309082 103.43623352050781 17.195619583129883 102.25241088867188 C 32.2758903503418 127.40837097167969 44.88625717163086 134.26992797851562 62.71479034423828 97.8388671875 C 37.42236328125 76.97705841064453 55.15769577026367 102.26981353759766 35.243350982666016 104.86275482177734" stroke-width="0.0" fill="rgb(47, 183, 152)" opacity="0.0136166625" stroke="rgb(0, 0, 0)" stroke-opacity="1.0" stroke-linecap="round" stroke-linejoin="round"/>
    <path d="M 71.543212890625 467.6550598144531 C 39.35946273803711 479.4919738769531 32.930599212646484 495.846923828125 34.3000602722168 488.3487854003906 C 33.299835205078125 468.90576171875 10.62756061553955 476.1213684082031 6.43294620513916 492.79095458984375 C 32.06064987182617 487.50048828125 25.106916427612305 460.3804016113281 34.04597854614258 438.18499755859375 C 55.09273147583008 434.4540100097656 78.8807144165039 444.8126525878906 71.543212890625 467.6550598144531" stroke-width="0.0" fill="rgb(41, 186, 165)" opacity="0.02606074" stroke="rgb(0, 0, 0)" stroke-opacity="1.0" stroke-linecap="round" stroke-linejoin="round"/>
    <path d="M 148.8224639892578 251.91770935058594 C 150.65863037109375 249.71986389160156 147.43955993652344 266.14886474609375 140.6319580078125 265.88372802734375 C 134.4938507080078 271.523193359375 118.93869018554688 255.38067626953125 124.0338363647461 252.4774169921875 C 123.91705322265625 244.70980834960938 141.42337036132812 233.818603515625 132.01596069335938 252.07049560546875 C 131.92214965820312 233.81617736816406 141.60791015625 250.8206329345703 148.8224639892578 251.91770935058594" stroke-width="0.0" fill="rgb(165, 74, 125)" opacity="0.75468016" stroke="rgb(0, 0, 0)" stroke-opacity="1.0" stroke-linecap="round" stroke-linejoin="round"/>
    <path d="M 533.3616943359375 242.11195373535156 C 554.25439453125 231.85302734375 523.041015625 258.0448303222656 519.5247802734375 240.6539764404297 C 507.3294677734375 241.9001922607422 491.127197265625 232.15675354003906 469.2514343261719 246.67628479003906 C 474.65594482421875 239.1481475830078 484.1146545410156 224.9888153076172 485.3216247558594 233.1947021484375 C 502.7869873046875 245.1761932373047 521.4671020507812 236.86106872558594 533.3616943359375 242.11195373535156" stroke-width="0.0" fill="rgb(74, 150, 183)" opacity="0.030995637" stroke="rgb(0, 0, 0)" stroke-opacity="1.0" stroke-linecap="round" stroke-linejoin="round"/>
    <path d="M 248.923095703125 405.05767822265625 C 251.05575561523438 410.3671875 239.29689025878906 399.517333984375 245.81068420410156 400.6764221191406 C 269.0164489746094 410.5578308105469 265.0159606933594 407.69488525390625 231.1363983154297 423.7822570800781 C 217.1560821533203 408.7200927734375 224.9306640625 381.653076171875 260.9254150390625 370.04644775390625 C 278.4360656738281 379.81304931640625 265.5079040527344 385.8843994140625 248.923095703125 405.05767822265625" stroke-width="0.0" fill="rgb(246, 255, 91)" opacity="1.0" stroke="rgb(0, 0, 0)" stroke-opacity="1.0" stroke-linecap="round" stroke-linejoin="round"/>
    <path d="M 102.7806625366211 102.37744140625 C 85.64656066894531 107.41466522216797 82.918701171875 129.8433837890625 76.48676300048828 132.27532958984375 C 56.83161163330078 110.2865982055664 67.33611297607422 102.1800308227539 72.76112365722656 116.42050170898438 C 57.5850830078125 114.88063049316406 70.19088745117188 122.48885345458984 86.17958068847656 134.65774536132812 C 92.70010375976562 104.51201629638672 86.93402099609375 110.39205169677734 102.7806625366211 102.37744140625" stroke-width="0.0" fill="rgb(54, 182, 169)" opacity="0.001931146" stroke="rgb(0, 0, 0)" stroke-opacity="1.0" stroke-linecap="round" stroke-linejoin="round"/>
    <path d="M 460.370361328125 240.88638305664062 C 468.7088317871094 243.77383422851562 448.068603515625 242.88119506835938 450.6873779296875 235.54330444335938 C 451.5595397949219 242.1272430419922 441.87091064453125 237.36151123046875 435.16143798828125 231.9158477783203 C 433.7522277832031 223.9710235595703 436.3511657714844 210.99301147460938 455.9718017578125 226.49037170410156 C 465.9409484863281 222.7569580078125 466.23699951171875 240.8458251953125 460.370361328125 240.88638305664062" stroke-width="0.0" fill="rgb(150, 90, 208)" opacity="0.57414997" stroke="rgb(0, 0, 0)" stroke-opacity="1.0" stroke-linecap="round" stroke-linejoin="round"/>
    <path d="M 336.41619873046875 206.42845153808594 C 356.7127685546875 222.6308135986328 364.59368896484375 223.2585906982422 328.029296875 214.5894775390625 C 330.3629455566406 236.2285614013672 321.2696533203125 210.07618713378906 361.8218994140625 196.4934539794922 C 350.9267578125 195.9065704345703 350.2604064941406 190.20191955566406 341.42822265625 175.22618103027344 C 367.3100280761719 192.66371154785156 367.767578125 202.3228302001953 336.41619873046875 206.42845153808594" stroke-width="0.0" fill="rgb(52, 84, 215)" opacity="0.49700248" stroke="rgb(0, 0, 0)" stroke-opacity="1.0" stroke-linecap="round" stroke-linejoin="round"/>
    <path d="M 125.7459945678711 434.88299560546875 C 128.0417022705078 477.11212158203125 118.96220397949219 484.4186096191406 79.70320892333984 475.3785705566406 C 33.341068267822266 463.90570068359375 31.234010696411133 437.0444030761719 51.785465240478516 433.6128234863281 C 88.72469329833984 439.8201904296875 95.45973205566406 415.8076171875 82.0066909790039 444.8730773925781 C 95.4775619506836 432.3632507324219 109.76741027832031 442.7181701660156 125.7459945678711 434.88299560546875" stroke-width="0.0" fill="rgb(65, 167, 171)" opacity="0.0" stroke="rgb(0, 0, 0)" stroke-opacity="1.0" stroke-linecap="round" stroke-linejoin="round"/>
    <path d="M 103.29839324951172 439.9986877441406 C 104.52567291259766 475.825439453125 90.10018157958984 480.0357666015625 75.95647430419922 487.97943115234375 C 79.16737365722656 460.093017578125 64.15846252441406 446.630615234375 70.91140747070312 456.8343200683594 C 51.84361267089844 433.3599853515625 53.741737365722656 423.05120849609375 77.75882720947266 395.66571044921875 C 115.24471282958984 398.2735900878906 109.95271301269531 433.8858947753906 103.29839324951172 439.9986877441406" stroke-width="0.0" fill="rgb(72, 162, 179)" opacity="0.0" stroke="rgb(0, 0, 0)" stroke-opacity="1.0" stroke-linecap="round" stroke-linejoin="round"/>
    <path d="M 498.0711669921875 34.27973937988281 C 480.9236145019531 66.6296615600586 462.8453674316406 75.95470428466797 464.4570617675781 76.16947937011719 C 425.7131042480469 77.89055633544922 423.1542663574219 68.8467025756836 431.7167053222656 40.013702392578125 C 428.7804260253906 28.207609176635742 439.4914245605469 22.819778442382812 444.67523193359375 -7.61967134475708 C 518.6466064453125 -21.256420135498047 529.3650512695312 -22.880111694335938 498.0711669921875 34.27973937988281" stroke-width="0.0" fill="rgb(48, 146, 170)" opacity="0.09890472" stroke="rgb(0, 0, 0)" stroke-opacity="1.0" stroke-linecap="round" stroke-linejoin="round"/>
    <path d="M 314.6965026855469 144.1406707763672 C 309.99505615234375 126.98432922363281 296.89959716796875 177.05355834960938 263.9332275390625 184.61447143554688 C 283.7317199707031 195.99520874023438 288.417724609375 197.5751953125 281.8475646972656 178.4588623046875 C 256.73291015625 186.5713348388672 243.103515625 168.53475952148438 284.77447509765625 169.3920135498047 C 301.20965576171875 183.68016052246094 296.14227294921875 208.7175750732422 314.6965026855469 144.1406707763672" stroke-width="0.0" fill="rgb(200, 254, 226)" opacity="0.7964924" stroke="rgb(0, 0, 0)" stroke-opacity="1.0" stroke-linecap="round" stroke-linejoin="round"/>
    <path d="M 476.30029296875 463.5045471191406 C 477.6438293457031 515.2921752929688 471.6431579589844 529.3375244140625 449.83526611328125 548.5174560546875 C 452.4111328125 535.4093017578125 465.34246826171875 512.7863159179688 459.0537109375 479.339111328125 C 447.7994079589844 477.2080383300781 471.7431945800781 482.5416259765625 487.0820617675781 479.5814208984375 C 443.16473388671875 488.0466003417969 462.9847717285156 486.0294189453125 476.30029296875 463.5045471191406" stroke-width="0.0" fill="rgb(48, 136, 138)" opacity="0.012877238" stroke="rgb(0, 0, 0)" stroke-opacity="1.0" stroke-linecap="round" stroke-linejoin="round"/>
    <path d="M 139.0908966064453 41.621315002441406 C 124.7157211303711 31.08498191833496 140.93634033203125 58.840267181396484 126.30853271484375 77.1355972290039 C 134.91162109375 50.13892364501953 126.36310577392578 24.96426773071289 131.5345001220703 13.435769081115723 C 113.3176498413086 41.82709503173828 131.61264038085938 31.991579055786133 103.75560760498047 27.046388626098633 C 115.16998291015625 43.70126724243164 136.63771057128906 52.499305725097656 139.0908966064453 41.621315002441406" stroke-width="0.0" fill="rgb(55, 158, 195)" opacity="0.0" stroke="rgb(0, 0, 0)" stroke-opacity="1.0" stroke-linecap="round" stroke-linejoin="round"/>
    <path d="M 182.57443237304688 323.71612548828125 C 202.72250366210938 338.9151611328125 188.6328125 343.3509826660156 184.99569702148438 360.3251647949219 C 174.26278686523438 380.7740478515625 184.96327209472656 355.4571228027344 192.99337768554688 314.3539123535156 C 203.1986541748047 333.18426513671875 179.7836151123047 340.8060302734375 175.76962280273438 326.8841857910156 C 182.27566528320312 338.26611328125 180.7515411376953 348.9951171875 182.57443237304688 323.71612548828125" stroke-width="0.0" fill="rgb(156, 103, 87)" opacity="0.15432486" stroke="rgb(0, 0, 0)" stroke-opacity="1.0" stroke-linecap="round" stroke-linejoin="round"/>
    <path d="M 54.56630325317383 318.1311950683594 C 37.170989990234375 322.84619140625 26.13934326171875 335.93768310546875 38.90087127685547 330.42041015625 C 36.194427490234375 340.45562744140625 24.92934799194336 331.7434997558594 41.393760681152344 332.25323486328125 C 43.505821228027344 334.63616943359375 55.76616668701172 334.44415283203125 52.828880310058594 321.030517578125 C 54.447391510009766 305.4560852050781 53.33761215209961 315.2308349609375 54.56630325317383 318.1311950683594" stroke-width="0.0" fill="rgb(229, 108, 33)" opacity="0.89823353" stroke="rgb(0, 0, 0)" stroke-opacity="1.0" stroke-linecap="round" stroke-linejoin="round"/>
    <path d="M 400.4416809082031 423.3935241699219 C 390.3141784667969 438.8827819824219 387.4569091796875 470.1380310058594 350.21661376953125 473.807373046875 C 333.4415588378906 453.01495361328125 361.0599670410156 451.25506591796875 389.42547607421875 415.5045471191406 C 392.3809814453125 452.6491394042969 393.81768798828125 444.50872802734375 380.2698059082031 445.8955383300781 C 379.8968505859375 399.9875183105469 398.441162109375 404.42657470703125 400.4416809082031 423.3935241699219" stroke-width="0.0" fill="rgb(34, 112, 187)" opacity="0.03538897" stroke="rgb(0, 0, 0)" stroke-opacity="1.0" stroke-linecap="round" stroke-linejoin="round"/>
    <path d="M 140.3896026611328 251.47401428222656 C 162.20240783691406 281.41790771484375 139.13287353515625 277.52813720703125 154.1551513671875 289.73577880859375 C 140.25186157226562 279.2236328125 119.96778869628906 274.7637939453125 110.72036743164062 244.4445037841797 C 104.69136810302734 243.07452392578125 125.92991638183594 227.01454162597656 120.35453033447266 244.99203491210938 C 139.0653533935547 261.70245361328125 138.37857055664062 257.71746826171875 140.3896026611328 251.47401428222656" stroke-width="0.0" fill="rgb(63, 132, 126)" opacity="0.017237503" stroke="rgb(0, 0, 0)" stroke-opacity="1.0" stroke-linecap="round" stroke-linejoin="round"/>
    <path d="M 156.84535217285156 438.86083984375 C 140.75445556640625 462.05224609375 142.6761016845703 482.14129638671875 118.19632720947266 483.6346740722656 C 100.0558853149414 459.5727233886719 97.43997192382812 456.17144775390625 93.38802337646484 460.2332763671875 C 75.1369857788086 453.2119140625 89.2824935913086 429.64227294921875 89.90325164794922 423.3620910644531 C 121.7469711303711 411.1124267578125 134.42971801757812 419.5859069824219 156.84535217285156 438.86083984375" stroke-width="0.0" fill="rgb(71, 175, 157)" opacity="0.0" stroke="rgb(0, 0, 0)" stroke-opacity="1.0" stroke-linecap="round" stroke-linejoin="round"/>
    <path d="M 259.0847473144531 48.34926223754883 C 266.6534729003906 46.389225006103516 250.6669158935547 64.7665023803711 247.66555786132812 60.01356887817383 C 244.40109252929688 59.25247573852539 231.1329345703125 50.8331184387207 232.2447509765625 42.664215087890625 C 239.85142517089844 38.049495697021484 246.5961456298828 25.41333770751953 245.96507263183594 32.88995361328125 C 241.5576171875 27.137964248657227 263.5727844238281 43.966068267822266 259.0847473144531 48.34926223754883" stroke-width="0.0" fill="rgb(74, 9, 227)" opacity="0.6250862" stroke="rgb(0, 0, 0)" stroke-opacity="1.0" stroke-linecap="round" stroke-linejoin="round"/>
  </g>
</svg>
