<?xml version="1.0" ?>
<svg xmlns="http://www.w3.org/2000/svg" version="1.1" width="512" height="512">
  <defs/>
  <g>
    <path d="M 545.781494140625 441.5091552734375 C 548.7020874023438 518.369873046875 549.9697875976562 525.8068237304688 319.1675109863281 527.3737182617188 C 212.99598693847656 516.373046875 156.40402221679688 500.00494384765625 293.6800231933594 468.67431640625 C 510.8824768066406 445.2966613769531 363.8796691894531 329.0428161621094 356.71051025390625 237.5892791748047 C 574.83984375 273.0859375 569.47265625 304.2575378417969 545.781494140625 441.5091552734375" stroke-width="0.0" fill="rgb(210, 24, 30)" opacity="0.86227894" stroke="rgb(0, 0, 0)" stroke-opacity="1.0" stroke-linecap="round" stroke-linejoin="round"/>
    <path d="M 160.1723175048828 396.7255859375 C 270.3743591308594 503.4925842285156 384.281494140625 425.0908508300781 287.51318359375 478.2061462402344 C -35.15039825439453 541.559326171875 -35.60976791381836 539.6154174804688 -50.39451217651367 485.0220642089844 C -22.906652450561523 191.01063537597656 -2.711901903152466 181.8593292236328 46.6475830078125 265.731689453125 C 153.735595703125 262.3903503417969 75.3861312866211 306.7358093261719 160.1723175048828 396.7255859375" stroke-width="0.0" fill="rgb(52, 0, 12)" opacity="0.9465342" stroke="rgb(0, 0, 0)" stroke-opacity="1.0" stroke-linecap="round" stroke-linejoin="round"/>
    <path d="M 108.21057891845703 290.0088195800781 C 125.0239486694336 434.0152893066406 109.96851348876953 364.7742614746094 116.467041015625 294.89483642578125 C -49.948177337646484 256.9414367675781 -26.517995834350586 316.34259033203125 -22.71558952331543 182.23236083984375 C -3.4793498516082764 152.1280059814453 9.565245628356934 150.63258361816406 86.19503021240234 128.6168212890625 C 89.43758392333984 114.19972229003906 120.00643157958984 185.4646759033203 108.21057891845703 290.0088195800781" stroke-width="0.0" fill="rgb(59, 0, 22)" opacity="0.9522564" stroke="rgb(0, 0, 0)" stroke-opacity="1.0" stroke-linecap="round" stroke-linejoin="round"/>
    <path d="M 276.5937805175781 81.08332061767578 C 16.150537490844727 53.294288635253906 90.41503143310547 161.17530822753906 108.57217407226562 151.98480224609375 C 33.931297302246094 281.1120910644531 -12.636122703552246 260.1434631347656 -65.58055114746094 90.85039520263672 C -20.388439178466797 -21.671945571899414 -12.453291893005371 -24.909971237182617 172.51788330078125 -43.83147430419922 C 264.63006591796875 -69.49207305908203 285.8157958984375 -62.945743560791016 276.5937805175781 81.08332061767578" stroke-width="0.0" fill="rgb(100, 21, 34)" opacity="0.9331792" stroke="rgb(0, 0, 0)" stroke-opacity="1.0" stroke-linecap="round" stroke-linejoin="round"/>
    <path d="M 554.4332275390625 75.3731689453125 C 425.49810791015625 274.04351806640625 425.65875244140625 283.5762939453125 319.4341125488281 338.2717590332031 C 200.90048217773438 383.33758544921875 325.7903747558594 295.0738525390625 249.86056518554688 144.4523162841797 C 324.39776611328125 -12.026723861694336 270.91351318359375 -12.275222778320312 366.093994140625 -40.437355041503906 C 563.2000122070312 0.6587138175964355 563.2000122070312 11.063444137573242 554.4332275390625 75.3731689453125" stroke-width="0.0" fill="rgb(214, 20, 23)" opacity="0.86736774" stroke="rgb(0, 0, 0)" stroke-opacity="1.0" stroke-linecap="round" stroke-linejoin="round"/>
    <path d="M 297.4285583496094 28.43874740600586 C 251.6717987060547 313.5862121582031 166.712646484375 434.96856689453125 166.03929138183594 275.38134765625 C 180.48574829101562 205.33731079101562 157.37594604492188 136.52450561523438 39.26731491088867 107.39358520507812 C 67.89216613769531 119.64353942871094 88.19694519042969 34.867347717285156 207.97149658203125 69.61909484863281 C 314.7319030761719 119.05010986328125 281.217041015625 40.35719299316406 297.4285583496094 28.43874740600586" stroke-width="0.0" fill="rgb(60, 7, 34)" opacity="0.98865694" stroke="rgb(0, 0, 0)" stroke-opacity="1.0" stroke-linecap="round" stroke-linejoin="round"/>
    <path d="M 438.0689697265625 385.0698547363281 C 339.8456726074219 497.6455078125 476.7740478515625 276.4636535644531 332.6980285644531 305.75396728515625 C 342.9344787597656 301.0213623046875 456.4726257324219 411.9247131347656 210.57054138183594 480.2137451171875 C 137.42381286621094 200.68833923339844 223.7379913330078 158.14651489257812 291.8769226074219 324.7152099609375 C 423.1951904296875 258.2899169921875 445.97882080078125 224.80490112304688 438.0689697265625 385.0698547363281" stroke-width="0.0" fill="rgb(73, 35, 43)" opacity="0.8634547" stroke="rgb(0, 0, 0)" stroke-opacity="1.0" stroke-linecap="round" stroke-linejoin="round"/>
    <path d="M 534.8027954101562 150.4931640625 C 543.6019897460938 320.09478759765625 563.1994018554688 343.2150573730469 552.0330810546875 283.7534484863281 C 400.3761291503906 276.3337707519531 360.1245422363281 328.9501647949219 402.01727294921875 257.037109375 C 292.2362060546875 188.36993408203125 419.658447265625 190.2032470703125 545.7200317382812 93.84899139404297 C 563.2000122070312 68.05618286132812 563.2000122070312 90.89309692382812 534.8027954101562 150.4931640625" stroke-width="0.0" fill="rgb(49, 241, 174)" opacity="0.9456882" stroke="rgb(0, 0, 0)" stroke-opacity="1.0" stroke-linecap="round" stroke-linejoin="round"/>
    <path d="M 260.2715759277344 198.32659912109375 C 331.995849609375 256.1099853515625 319.2613220214844 244.5115966796875 310.3550720214844 276.0512390136719 C 280.6495666503906 276.94012451171875 271.07818603515625 301.94775390625 276.7307434082031 247.3398895263672 C 288.1176452636719 234.31527709960938 269.9071350097656 219.78248596191406 254.64024353027344 304.1524963378906 C 258.7763366699219 261.3860168457031 251.57635498046875 265.78594970703125 260.2715759277344 198.32659912109375" stroke-width="0.0" fill="rgb(134, 89, 46)" opacity="0.6129835" stroke="rgb(0, 0, 0)" stroke-opacity="1.0" stroke-linecap="round" stroke-linejoin="round"/>
    <path d="M 216.42791748046875 59.97294998168945 C 69.79241943359375 12.011453628540039 -26.323497772216797 126.23295593261719 65.06188201904297 177.0113067626953 C 154.4505615234375 311.37615966796875 -64.81430053710938 322.09368896484375 -68.13959503173828 209.18504333496094 C -28.702957153320312 -8.770925521850586 -20.898948669433594 -18.956607818603516 125.31797790527344 -41.64421844482422 C 257.5667419433594 -27.297712326049805 345.5682067871094 63.96031188964844 216.42791748046875 59.97294998168945" stroke-width="0.0" fill="rgb(219, 40, 18)" opacity="0.9247898" stroke="rgb(0, 0, 0)" stroke-opacity="1.0" stroke-linecap="round" stroke-linejoin="round"/>
    <path d="M 498.90118408203125 234.284423828125 C 445.9903259277344 215.75624084472656 360.5728759765625 270.5374755859375 385.9684753417969 274.486572265625 C 234.17796325683594 327.8310852050781 494.9893798828125 314.7042541503906 310.9111022949219 253.24111938476562 C 428.3574523925781 174.56710815429688 360.9292297363281 81.03778839111328 402.0637512207031 151.893310546875 C 331.8016357421875 301.2201843261719 319.9239807128906 267.31109619140625 498.90118408203125 234.284423828125" stroke-width="0.0" fill="rgb(242, 17, 21)" opacity="0.43163753" stroke="rgb(0, 0, 0)" stroke-opacity="1.0" stroke-linecap="round" stroke-linejoin="round"/>
    <path d="M 453.5741882324219 -4.592582702636719 C 365.96331787109375 223.1922149658203 292.41363525390625 198.5115203857422 255.93138122558594 227.4008331298828 C 254.1907196044922 193.76954650878906 292.8866882324219 173.25302124023438 287.5823974609375 165.44949340820312 C 256.9770202636719 167.51614379882812 276.1709899902344 120.70872497558594 225.6553497314453 87.52708435058594 C 158.62022399902344 15.65839672088623 231.0720672607422 -40.46799087524414 453.5741882324219 -4.592582702636719" stroke-width="0.0" fill="rgb(199, 20, 19)" opacity="1.0" stroke="rgb(0, 0, 0)" stroke-opacity="1.0" stroke-linecap="round" stroke-linejoin="round"/>
    <path d="M 262.2308044433594 445.17620849609375 C 518.5208740234375 417.3943176269531 293.4552917480469 528.3289184570312 193.2314453125 412.2752990722656 C 247.43531799316406 455.0780334472656 198.43258666992188 414.3235168457031 168.7406005859375 315.5896911621094 C 142.34059143066406 279.1627197265625 194.58351135253906 463.2230529785156 168.82479858398438 189.19850158691406 C 271.1591796875 139.43458557128906 86.25975799560547 438.15869140625 262.2308044433594 445.17620849609375" stroke-width="0.0" fill="rgb(182, 146, 78)" opacity="0.8119307" stroke="rgb(0, 0, 0)" stroke-opacity="1.0" stroke-linecap="round" stroke-linejoin="round"/>
    <path d="M 597.658447265625 153.17193603515625 C 569.124755859375 458.32489013671875 558.4022827148438 463.1670837402344 474.68408203125 453.8048095703125 C 377.0552978515625 389.79595947265625 443.552978515625 405.41363525390625 427.02789306640625 321.8575744628906 C 386.98846435546875 200.81871032714844 426.314697265625 342.6873779296875 415.2348937988281 145.4755401611328 C 464.5182189941406 100.20320129394531 595.4298095703125 102.41618347167969 597.658447265625 153.17193603515625" stroke-width="0.0" fill="rgb(198, 29, 25)" opacity="0.99367714" stroke="rgb(0, 0, 0)" stroke-opacity="1.0" stroke-linecap="round" stroke-linejoin="round"/>
    <path d="M 541.6165771484375 479.0849914550781 C 529.5440673828125 514.3981323242188 520.1913452148438 527.753662109375 300.2378234863281 539.0938110351562 C 217.2159423828125 476.5136413574219 266.63323974609375 465.4504699707031 327.1000061035156 387.41876220703125 C 399.8236083984375 363.95269775390625 406.4223327636719 354.1714782714844 425.1771545410156 345.0799865722656 C 467.7958068847656 389.5907287597656 488.1404724121094 402.0119323730469 541.6165771484375 479.0849914550781" stroke-width="0.0" fill="rgb(215, 51, 55)" opacity="1.0" stroke="rgb(0, 0, 0)" stroke-opacity="1.0" stroke-linecap="round" stroke-linejoin="round"/>
    <path d="M 365.45703125 268.51629638671875 C 406.9139404296875 255.049072265625 270.23895263671875 265.2911682128906 376.4085998535156 372.30316162109375 C 359.63671875 486.925048828125 175.67691040039062 469.5986328125 183.96963500976562 371.9183044433594 C 198.67697143554688 335.1029052734375 187.72177124023438 347.7212219238281 184.7122039794922 322.8652038574219 C 213.96685791015625 407.3297424316406 338.96368408203125 432.4500732421875 365.45703125 268.51629638671875" stroke-width="0.0" fill="rgb(210, 181, 97)" opacity="0.9082397" stroke="rgb(0, 0, 0)" stroke-opacity="1.0" stroke-linecap="round" stroke-linejoin="round"/>
    <path d="M 196.13345336914062 263.8863220214844 C 177.06610107421875 317.8445739746094 227.31314086914062 307.6092529296875 212.68653869628906 313.62225341796875 C 219.07925415039062 289.3877258300781 197.4567108154297 269.1041564941406 182.05340576171875 281.0400390625 C 199.19801330566406 280.4639892578125 210.57215881347656 280.1684265136719 223.7941436767578 250.58155822753906 C 229.1482391357422 230.32533264160156 228.8971405029297 219.98779296875 196.13345336914062 263.8863220214844" stroke-width="0.0" fill="rgb(148, 203, 68)" opacity="0.64681697" stroke="rgb(0, 0, 0)" stroke-opacity="1.0" stroke-linecap="round" stroke-linejoin="round"/>
    <path d="M 428.9845275878906 314.4738464355469 C 447.36328125 398.2596130371094 337.906005859375 453.17584228515625 316.988525390625 462.5876770019531 C 253.06101989746094 489.2952575683594 118.7143783569336 452.7039489746094 252.0904541015625 434.98211669921875 C 346.5967102050781 441.6405029296875 351.2678527832031 403.6152038574219 383.4898376464844 374.8619384765625 C 326.57928466796875 477.2403869628906 423.3960266113281 276.82977294921875 428.9845275878906 314.4738464355469" stroke-width="0.0" fill="rgb(58, 14, 22)" opacity="0.87626475" stroke="rgb(0, 0, 0)" stroke-opacity="1.0" stroke-linecap="round" stroke-linejoin="round"/>
    <path d="M 280.467041015625 106.37712860107422 C 288.5181884765625 78.70093536376953 176.48377990722656 56.37218475341797 210.017822265625 45.046653747558594 C 165.31170654296875 53.309539794921875 172.1165771484375 50.543434143066406 174.1118621826172 82.48139190673828 C 178.16978454589844 76.53178405761719 213.404541015625 54.394691467285156 184.46629333496094 35.9630241394043 C 86.47637176513672 68.14830017089844 216.3521270751953 37.39957046508789 280.467041015625 106.37712860107422" stroke-width="0.0" fill="rgb(157, 12, 22)" opacity="0.8756941" stroke="rgb(0, 0, 0)" stroke-opacity="1.0" stroke-linecap="round" stroke-linejoin="round"/>
    <path d="M 266.9344787597656 472.72637939453125 C 257.7406311035156 548.5879516601562 198.10061645507812 552.01708984375 104.73085021972656 530.85888671875 C -57.12466812133789 529.0943603515625 -51.09564208984375 508.5310363769531 -41.72792434692383 421.58160400390625 C -33.398624420166016 291.429443359375 -39.72677993774414 254.03675842285156 23.108367919921875 289.4328308105469 C 129.8639678955078 270.822509765625 93.02037811279297 449.8497314453125 266.9344787597656 472.72637939453125" stroke-width="0.0" fill="rgb(224, 51, 29)" opacity="0.98903507" stroke="rgb(0, 0, 0)" stroke-opacity="1.0" stroke-linecap="round" stroke-linejoin="round"/>
    <path d="M 284.5941162109375 350.4975280761719 C 272.30389404296875 399.021728515625 250.7020263671875 364.1208190917969 268.11712646484375 353.2093505859375 C 267.5347595214844 358.5198059082031 268.2701110839844 365.2451477050781 270.7718200683594 358.9731750488281 C 269.09490966796875 386.9050598144531 193.47491455078125 377.9306335449219 238.7021026611328 260.324462890625 C 261.1514587402344 295.0981750488281 268.441650390625 361.68328857421875 284.5941162109375 350.4975280761719" stroke-width="0.0" fill="rgb(156, 83, 64)" opacity="0.68641406" stroke="rgb(0, 0, 0)" stroke-opacity="1.0" stroke-linecap="round" stroke-linejoin="round"/>
    <path d="M 462.8921813964844 146.55406188964844 C 370.3224792480469 18.95676612854004 394.5921630859375 97.58308410644531 371.162109375 217.54922485351562 C 362.6924743652344 168.82310485839844 368.5186462402344 170.99000549316406 387.3760070800781 170.35400390625 C 355.9960632324219 201.7283477783203 385.5035400390625 183.96839904785156 367.6759033203125 166.9720001220703 C 377.57110595703125 204.29769897460938 395.8225402832031 169.2010498046875 462.8921813964844 146.55406188964844" stroke-width="0.0" fill="rgb(243, 0, 61)" opacity="0.059012674" stroke="rgb(0, 0, 0)" stroke-opacity="1.0" stroke-linecap="round" stroke-linejoin="round"/>
    <path d="M 425.5085754394531 214.76177978515625 C 453.5697937011719 243.04835510253906 448.2921447753906 324.28997802734375 378.4102783203125 303.94482421875 C 459.8493957519531 277.21392822265625 536.1546630859375 236.2175750732422 380.7971496582031 273.224853515625 C 460.9886474609375 235.50196838378906 410.4637451171875 183.69610595703125 447.35736083984375 195.95327758789062 C 443.7176513671875 274.836181640625 385.90582275390625 244.56288146972656 425.5085754394531 214.76177978515625" stroke-width="0.0" fill="rgb(144, 84, 2)" opacity="0.048814982" stroke="rgb(0, 0, 0)" stroke-opacity="1.0" stroke-linecap="round" stroke-linejoin="round"/>
    <path d="M 101.79483795166016 262.9504699707031 C 105.27214050292969 293.1952209472656 100.89671325683594 345.1114501953125 135.4112091064453 379.4370422363281 C 76.89733123779297 316.4344177246094 12.531171798706055 314.6836853027344 -21.55217170715332 274.607666015625 C 60.26494216918945 238.8426971435547 32.14741516113281 184.60511779785156 90.24208068847656 177.21961975097656 C 115.84968566894531 197.91859436035156 96.79764556884766 288.0486755371094 101.79483795166016 262.9504699707031" stroke-width="0.0" fill="rgb(202, 25, 13)" opacity="0.97624415" stroke="rgb(0, 0, 0)" stroke-opacity="1.0" stroke-linecap="round" stroke-linejoin="round"/>
    <path d="M 389.2086181640625 286.3008117675781 C 295.9730224609375 315.360107421875 258.5345153808594 230.2860107421875 257.0340881347656 179.21437072753906 C 290.92047119140625 173.5627899169922 284.2867126464844 152.2786865234375 290.9170837402344 179.99481201171875 C 267.1824645996094 181.60198974609375 275.6995544433594 163.80567932128906 289.13983154296875 167.5859832763672 C 301.6488037109375 142.54795837402344 383.65032958984375 132.15554809570312 389.2086181640625 286.3008117675781" stroke-width="0.0" fill="rgb(146, 220, 184)" opacity="0.83447206" stroke="rgb(0, 0, 0)" stroke-opacity="1.0" stroke-linecap="round" stroke-linejoin="round"/>
    <path d="M 206.82766723632812 101.64704895019531 C 202.2100067138672 87.02609252929688 213.9746856689453 114.8778305053711 218.09835815429688 115.84363555908203 C 88.54584503173828 59.658084869384766 129.03138732910156 203.38336181640625 99.3217544555664 154.76129150390625 C 165.90504455566406 83.6882095336914 257.2344970703125 120.5122299194336 199.21026611328125 98.79663848876953 C 210.32875061035156 91.87818145751953 225.59951782226562 98.0114517211914 206.82766723632812 101.64704895019531" stroke-width="0.0" fill="rgb(140, 120, 123)" opacity="0.58249646" stroke="rgb(0, 0, 0)" stroke-opacity="1.0" stroke-linecap="round" stroke-linejoin="round"/>
    <path d="M 120.582275390625 116.981689453125 C 155.857666015625 120.49308776855469 122.09044647216797 107.72330474853516 136.1836395263672 138.18553161621094 C 111.83804321289062 140.74070739746094 67.70460510253906 145.53546142578125 69.39688873291016 117.2859115600586 C 36.857147216796875 212.3734893798828 78.15997314453125 56.737144470214844 223.72210693359375 119.2511215209961 C 84.17296600341797 106.2007827758789 91.38151550292969 99.54159545898438 120.582275390625 116.981689453125" stroke-width="0.0" fill="rgb(184, 133, 54)" opacity="0.85577416" stroke="rgb(0, 0, 0)" stroke-opacity="1.0" stroke-linecap="round" stroke-linejoin="round"/>
    <path d="M 312.4021301269531 259.0395202636719 C 272.9990234375 274.765380859375 304.47674560546875 292.04461669921875 261.05340576171875 292.6219177246094 C 213.18252563476562 272.547119140625 242.91258239746094 245.60592651367188 210.94264221191406 245.4718780517578 C 220.92703247070312 213.8310546875 254.9396209716797 223.48831176757812 274.4642333984375 224.8356475830078 C 277.14990234375 215.86228942871094 297.5962829589844 228.7484893798828 312.4021301269531 259.0395202636719" stroke-width="0.0" fill="rgb(83, 249, 201)" opacity="1.0" stroke="rgb(0, 0, 0)" stroke-opacity="1.0" stroke-linecap="round" stroke-linejoin="round"/>
    <path d="M 287.315185546875 244.04945373535156 C 237.17640686035156 243.58750915527344 212.62904357910156 62.96595001220703 207.0283966064453 164.6327362060547 C 237.57676696777344 224.86146545410156 152.63377380371094 321.86181640625 96.51950073242188 110.50863647460938 C 154.8988800048828 34.536888122558594 246.41844177246094 97.76531982421875 227.62892150878906 141.49124145507812 C 262.5540466308594 76.87889099121094 200.51036071777344 123.78201293945312 287.315185546875 244.04945373535156" stroke-width="0.0" fill="rgb(187, 117, 74)" opacity="0.9982505" stroke="rgb(0, 0, 0)" stroke-opacity="1.0" stroke-linecap="round" stroke-linejoin="round"/>
    <path d="M 386.78314208984375 411.1030578613281 C 325.8403625488281 290.58062744140625 286.4847717285156 363.3765563964844 317.9598693847656 350.25897216796875 C 259.7073059082031 373.7511901855469 262.09173583984375 341.21588134765625 280.11053466796875 348.4852600097656 C 280.33966064453125 350.9088134765625 299.81341552734375 326.6228942871094 279.6640930175781 361.9159851074219 C 252.73043823242188 281.43634033203125 473.32171630859375 266.6225891113281 386.78314208984375 411.1030578613281" stroke-width="0.0" fill="rgb(54, 237, 176)" opacity="1.0" stroke="rgb(0, 0, 0)" stroke-opacity="1.0" stroke-linecap="round" stroke-linejoin="round"/>
    <path d="M 7.6602020263671875 523.527099609375 C 16.928863525390625 520.4954833984375 10.451606750488281 527.2847900390625 0.7705464363098145 530.8681030273438 C -9.364206314086914 527.7437133789062 -16.68471336364746 520.4232177734375 -19.53505516052246 510.3761291503906 C -16.513290405273438 500.47222900390625 -9.497283935546875 493.1925964355469 -12.406676292419434 503.4660339355469 C -4.264515399932861 507.9687805175781 3.0665524005889893 515.3460693359375 7.6602020263671875 523.527099609375" stroke-width="0.0" fill="rgb(253, 10, 0)" opacity="0.1198675" stroke="rgb(0, 0, 0)" stroke-opacity="1.0" stroke-linecap="round" stroke-linejoin="round"/>
    <path d="M 151.88034057617188 251.22494506835938 C 183.64894104003906 378.90252685546875 173.46119689941406 363.4717102050781 137.26173400878906 276.6678161621094 C 139.0645294189453 204.8826141357422 125.1360855102539 208.53807067871094 108.12513732910156 202.5755157470703 C 100.79280853271484 106.90080261230469 45.00669860839844 109.83964538574219 107.31066131591797 86.0437240600586 C 173.3403778076172 122.91403198242188 170.26284790039062 186.8192596435547 151.88034057617188 251.22494506835938" stroke-width="0.0" fill="rgb(181, 58, 45)" opacity="0.71332026" stroke="rgb(0, 0, 0)" stroke-opacity="1.0" stroke-linecap="round" stroke-linejoin="round"/>
    <path d="M 328.10693359375 365.5494384765625 C 254.03004455566406 382.8549499511719 213.45330810546875 299.599853515625 274.3328857421875 263.784423828125 C 349.10870361328125 276.0791931152344 309.505615234375 322.9481506347656 275.0987548828125 296.96331787109375 C 231.2364959716797 271.6487121582031 249.6242218017578 275.7303161621094 324.33355712890625 306.63311767578125 C 308.78912353515625 307.53143310546875 375.0065002441406 340.2510681152344 328.10693359375 365.5494384765625" stroke-width="0.0" fill="rgb(131, 194, 194)" opacity="0.98551273" stroke="rgb(0, 0, 0)" stroke-opacity="1.0" stroke-linecap="round" stroke-linejoin="round"/>
    <path d="M 252.754150390625 145.77896118164062 C 212.39292907714844 174.7161407470703 234.50692749023438 242.4717254638672 180.9296112060547 235.65150451660156 C 199.36935424804688 144.6923065185547 231.58505249023438 100.19261932373047 217.04331970214844 103.59757995605469 C 212.4625244140625 96.54737854003906 201.51795959472656 74.79479217529297 147.59967041015625 80.41096496582031 C 189.42642211914062 85.9241714477539 248.24838256835938 103.04825592041016 252.754150390625 145.77896118164062" stroke-width="0.0" fill="rgb(184, 90, 46)" opacity="0.7698567" stroke="rgb(0, 0, 0)" stroke-opacity="1.0" stroke-linecap="round" stroke-linejoin="round"/>
    <path d="M 301.2691650390625 383.5781555175781 C 233.20179748535156 417.01953125 281.6253356933594 414.4498596191406 306.7919006347656 395.3141784667969 C 258.5165710449219 410.6591796875 204.32638549804688 347.1295166015625 184.46853637695312 293.90423583984375 C 153.55682373046875 420.66552734375 284.43157958984375 442.7193298339844 229.730712890625 378.4193420410156 C 231.1515350341797 401.2726745605469 225.79676818847656 391.87078857421875 301.2691650390625 383.5781555175781" stroke-width="0.0" fill="rgb(238, 242, 181)" opacity="0.93009335" stroke="rgb(0, 0, 0)" stroke-opacity="1.0" stroke-linecap="round" stroke-linejoin="round"/>
    <path d="M 135.6996612548828 202.2095947265625 C 172.8872528076172 237.2997283935547 192.875732421875 256.79351806640625 177.51812744140625 333.4117126464844 C 119.01195526123047 342.6249084472656 120.74275970458984 288.5924377441406 118.94054412841797 279.21234130859375 C 118.5417251586914 118.9292221069336 66.70448303222656 155.60585021972656 112.67935943603516 120.67694854736328 C 177.1492156982422 168.9971160888672 135.16197204589844 305.96966552734375 135.6996612548828 202.2095947265625" stroke-width="0.0" fill="rgb(230, 192, 66)" opacity="0.5624165" stroke="rgb(0, 0, 0)" stroke-opacity="1.0" stroke-linecap="round" stroke-linejoin="round"/>
    <path d="M 202.62948608398438 109.13340759277344 C 201.85220336914062 133.02719116210938 220.59707641601562 148.20599365234375 208.21519470214844 159.28871154785156 C 188.23158264160156 136.99024963378906 158.22698974609375 135.39981079101562 167.75592041015625 107.16851806640625 C 193.99281311035156 101.74122619628906 212.52230834960938 101.88020324707031 144.33811950683594 116.09806060791016 C 168.9590606689453 80.70350646972656 191.67584228515625 95.6738510131836 202.62948608398438 109.13340759277344" stroke-width="0.0" fill="rgb(211, 166, 87)" opacity="0.6466651" stroke="rgb(0, 0, 0)" stroke-opacity="1.0" stroke-linecap="round" stroke-linejoin="round"/>
    <path d="M 449.1253662109375 295.8724365234375 C 442.68548583984375 282.65118408203125 446.4754333496094 309.0776062011719 419.6969909667969 317.6891174316406 C 374.7395935058594 327.8856201171875 378.89105224609375 325.419677734375 372.69268798828125 271.9013977050781 C 365.56390380859375 272.59600830078125 399.0859375 259.14776611328125 434.0522155761719 254.6654815673828 C 443.7486877441406 252.55601501464844 464.75750732421875 269.602294921875 449.1253662109375 295.8724365234375" stroke-width="0.0" fill="rgb(68, 241, 185)" opacity="0.8935266" stroke="rgb(0, 0, 0)" stroke-opacity="1.0" stroke-linecap="round" stroke-linejoin="round"/>
    <path d="M 318.78399658203125 390.9007568359375 C 234.73683166503906 371.43988037109375 226.51190185546875 380.0562744140625 252.6370849609375 423.58746337890625 C 229.31430053710938 415.1628723144531 240.58872985839844 385.47869873046875 218.3219757080078 389.8370056152344 C 222.5888671875 379.80352783203125 240.25738525390625 363.9074401855469 227.80050659179688 430.2154541015625 C 256.84234619140625 441.5080261230469 307.2982482910156 435.7654724121094 318.78399658203125 390.9007568359375" stroke-width="0.0" fill="rgb(217, 227, 128)" opacity="0.9207837" stroke="rgb(0, 0, 0)" stroke-opacity="1.0" stroke-linecap="round" stroke-linejoin="round"/>
    <path d="M 372.93017578125 247.22288513183594 C 354.23712158203125 233.46926879882812 308.38592529296875 245.98048400878906 318.486572265625 274.90936279296875 C 302.52978515625 299.1480712890625 260.9781799316406 264.7102966308594 309.9753112792969 267.4447937011719 C 285.9430847167969 231.02931213378906 313.038330078125 218.1939697265625 343.0853576660156 252.87168884277344 C 359.8951110839844 212.69419860839844 380.3373107910156 225.6854248046875 372.93017578125 247.22288513183594" stroke-width="0.0" fill="rgb(234, 74, 28)" opacity="0.8120607" stroke="rgb(0, 0, 0)" stroke-opacity="1.0" stroke-linecap="round" stroke-linejoin="round"/>
    <path d="M 213.61167907714844 259.91607666015625 C 231.28964233398438 293.9369201660156 235.55819702148438 274.17303466796875 164.278076171875 276.5155029296875 C 134.86537170410156 282.55023193359375 138.481689453125 292.22332763671875 167.84750366210938 279.6508483886719 C 184.0220489501953 293.5497741699219 218.91537475585938 285.89013671875 211.78765869140625 290.2206115722656 C 220.639404296875 228.9190216064453 188.30426025390625 252.65652465820312 213.61167907714844 259.91607666015625" stroke-width="0.0" fill="rgb(90, 68, 42)" opacity="0.70345324" stroke="rgb(0, 0, 0)" stroke-opacity="1.0" stroke-linecap="round" stroke-linejoin="round"/>
    <path d="M 279.5779724121094 404.6909484863281 C 293.04998779296875 419.2508850097656 309.19244384765625 451.9351501464844 331.44158935546875 420.1265869140625 C 297.7388916015625 432.78076171875 298.1062316894531 440.0829772949219 291.6669921875 408.2333679199219 C 314.2293701171875 367.8515930175781 305.2515869140625 358.86566162109375 264.7801513671875 377.2642822265625 C 283.3004455566406 395.57025146484375 302.4270324707031 409.3819885253906 279.5779724121094 404.6909484863281" stroke-width="0.0" fill="rgb(95, 117, 23)" opacity="0.34036398" stroke="rgb(0, 0, 0)" stroke-opacity="1.0" stroke-linecap="round" stroke-linejoin="round"/>
    <path d="M 394.7610168457031 408.2209167480469 C 401.3249206542969 401.3291015625 372.6747741699219 399.6799011230469 388.8543701171875 395.9056701660156 C 392.63348388671875 397.88214111328125 386.69927978515625 395.9128723144531 368.4319763183594 393.73748779296875 C 351.91583251953125 374.285400390625 356.3446350097656 369.3723449707031 408.5775146484375 398.3259582519531 C 428.72772216796875 365.3914489746094 404.73602294921875 384.2508239746094 394.7610168457031 408.2209167480469" stroke-width="0.0" fill="rgb(90, 80, 91)" opacity="0.4531737" stroke="rgb(0, 0, 0)" stroke-opacity="1.0" stroke-linecap="round" stroke-linejoin="round"/>
    <path d="M 348.223876953125 14.890820503234863 C 360.6401062011719 31.967384338378906 366.4839782714844 41.547386169433594 338.9450988769531 42.36787796020508 C 323.55999755859375 41.21630859375 317.588623046875 16.53390884399414 322.4233093261719 -7.832233905792236 C 320.9332580566406 -7.896914958953857 310.6588439941406 -29.999467849731445 330.69927978515625 -11.523972511291504 C 333.5328369140625 1.030148983001709 337.2353515625 19.39091682434082 348.223876953125 14.890820503234863" stroke-width="0.0" fill="rgb(123, 76, 0)" opacity="0.09807655" stroke="rgb(0, 0, 0)" stroke-opacity="1.0" stroke-linecap="round" stroke-linejoin="round"/>
    <path d="M 113.69834899902344 159.81529235839844 C 114.50177764892578 174.5331573486328 122.08643341064453 152.62501525878906 105.1950454711914 173.28292846679688 C 97.11318969726562 168.8121795654297 94.36488342285156 137.2353515625 89.88166046142578 136.50733947753906 C 60.06356430053711 129.01747131347656 62.545654296875 89.19939422607422 47.032772064208984 114.8460464477539 C 108.99411010742188 116.11065673828125 90.13248443603516 127.00547790527344 113.69834899902344 159.81529235839844" stroke-width="0.0" fill="rgb(163, 222, 50)" opacity="0.8978323" stroke="rgb(0, 0, 0)" stroke-opacity="1.0" stroke-linecap="round" stroke-linejoin="round"/>
    <path d="M 408.8842468261719 305.3719482421875 C 410.8680725097656 320.6795654296875 392.4884033203125 314.66107177734375 395.569091796875 341.0435791015625 C 400.53924560546875 332.4032897949219 389.76495361328125 324.02923583984375 380.5552062988281 321.54486083984375 C 359.7423400878906 295.8396301269531 379.030517578125 285.84710693359375 401.31402587890625 298.5979919433594 C 418.66058349609375 314.1634521484375 415.0211181640625 315.54931640625 408.8842468261719 305.3719482421875" stroke-width="0.0" fill="rgb(74, 223, 111)" opacity="1.0" stroke="rgb(0, 0, 0)" stroke-opacity="1.0" stroke-linecap="round" stroke-linejoin="round"/>
    <path d="M 291.8562316894531 425.6904296875 C 259.9627380371094 433.0605163574219 250.51687622070312 436.3618469238281 251.058349609375 441.044677734375 C 266.4966735839844 453.21026611328125 274.30584716796875 466.62811279296875 289.6528625488281 446.55609130859375 C 267.2007751464844 385.6422424316406 253.70367431640625 395.9593811035156 279.7864074707031 406.9676818847656 C 292.7628173828125 401.1383361816406 303.4812316894531 431.1310119628906 291.8562316894531 425.6904296875" stroke-width="0.0" fill="rgb(176, 175, 67)" opacity="0.36829728" stroke="rgb(0, 0, 0)" stroke-opacity="1.0" stroke-linecap="round" stroke-linejoin="round"/>
    <path d="M 271.912109375 273.9549560546875 C 285.0049133300781 288.8358459472656 278.8153076171875 310.103759765625 204.48753356933594 325.6519775390625 C 197.00201416015625 313.48876953125 205.74447631835938 281.71563720703125 202.23342895507812 265.7400817871094 C 221.00901794433594 282.78253173828125 208.41627502441406 288.61041259765625 211.01182556152344 280.6368713378906 C 209.51626586914062 293.8833312988281 244.1341552734375 288.4510803222656 271.912109375 273.9549560546875" stroke-width="0.0" fill="rgb(109, 77, 69)" opacity="0.24350609" stroke="rgb(0, 0, 0)" stroke-opacity="1.0" stroke-linecap="round" stroke-linejoin="round"/>
    <path d="M 187.8174591064453 319.79364013671875 C 215.57290649414062 359.7552490234375 173.23728942871094 397.18536376953125 167.12889099121094 355.0433654785156 C 169.11260986328125 328.3520202636719 144.1375732421875 340.04986572265625 153.4755401611328 354.1681823730469 C 146.33811950683594 365.8244323730469 184.52719116210938 365.7786560058594 142.5645294189453 350.3226013183594 C 164.7083282470703 322.78497314453125 164.3284912109375 308.58087158203125 187.8174591064453 319.79364013671875" stroke-width="0.0" fill="rgb(186, 137, 26)" opacity="0.643366" stroke="rgb(0, 0, 0)" stroke-opacity="1.0" stroke-linecap="round" stroke-linejoin="round"/>
    <path d="M 411.09716796875 134.98350524902344 C 442.4417419433594 157.6699676513672 444.6371154785156 191.3712921142578 400.2338562011719 188.1617889404297 C 394.0970153808594 171.978271484375 393.24005126953125 153.91258239746094 397.5315246582031 141.66311645507812 C 417.49127197265625 194.25204467773438 428.3508605957031 169.2515411376953 419.4532165527344 129.34466552734375 C 415.3326416015625 118.15484619140625 409.7508239746094 137.31915283203125 411.09716796875 134.98350524902344" stroke-width="0.0" fill="rgb(223, 14, 58)" opacity="0.0" stroke="rgb(0, 0, 0)" stroke-opacity="1.0" stroke-linecap="round" stroke-linejoin="round"/>
    <path d="M 109.27360534667969 498.5958251953125 C 93.44994354248047 505.3081970214844 49.222442626953125 499.95916748046875 47.1342887878418 483.97015380859375 C 45.823951721191406 473.0526428222656 31.027809143066406 460.7731018066406 36.279930114746094 447.60784912109375 C 56.07725143432617 462.0931396484375 92.45591735839844 440.5041809082031 81.51119232177734 457.510498046875 C 81.8094711303711 445.486328125 84.36795806884766 451.6712646484375 109.27360534667969 498.5958251953125" stroke-width="0.0" fill="rgb(207, 76, 68)" opacity="0.0017480375" stroke="rgb(0, 0, 0)" stroke-opacity="1.0" stroke-linecap="round" stroke-linejoin="round"/>
    <path d="M 84.69490051269531 161.50930786132812 C 108.9684829711914 157.26516723632812 107.4242172241211 146.77859497070312 132.2108917236328 169.6855926513672 C 94.02051544189453 166.29515075683594 73.63911437988281 141.35064697265625 73.03410339355469 131.15225219726562 C 67.17271423339844 121.92250061035156 93.8910140991211 119.23020935058594 73.05551147460938 128.49655151367188 C 66.4720458984375 125.41326904296875 88.51707458496094 134.61354064941406 84.69490051269531 161.50930786132812" stroke-width="0.0" fill="rgb(191, 135, 76)" opacity="0.27811885" stroke="rgb(0, 0, 0)" stroke-opacity="1.0" stroke-linecap="round" stroke-linejoin="round"/>
    <path d="M 333.8290710449219 104.37998962402344 C 329.66094970703125 106.57412719726562 332.8149108886719 122.58850860595703 271.9707946777344 130.50608825683594 C 340.7263488769531 109.21006774902344 341.2868957519531 98.10173034667969 331.5450134277344 96.86654663085938 C 326.865966796875 88.20304107666016 329.31256103515625 97.80361938476562 312.3363037109375 137.7321319580078 C 347.728271484375 129.6323699951172 334.9302062988281 110.19881439208984 333.8290710449219 104.37998962402344" stroke-width="0.0" fill="rgb(154, 0, 90)" opacity="0.055757843" stroke="rgb(0, 0, 0)" stroke-opacity="1.0" stroke-linecap="round" stroke-linejoin="round"/>
    <path d="M 469.81231689453125 465.552490234375 C 455.5762023925781 511.5572204589844 473.442138671875 524.4845581054688 452.6888122558594 519.0433349609375 C 434.0522155761719 503.2566223144531 421.9714050292969 498.8099365234375 434.1888122558594 498.6224365234375 C 444.7507629394531 512.0167846679688 434.40826416015625 515.607177734375 404.9993896484375 491.59893798828125 C 454.8962707519531 459.2276916503906 459.24090576171875 454.0799255371094 469.81231689453125 465.552490234375" stroke-width="0.0" fill="rgb(231, 58, 29)" opacity="0.0059616035" stroke="rgb(0, 0, 0)" stroke-opacity="1.0" stroke-linecap="round" stroke-linejoin="round"/>
    <path d="M 461.7029113769531 -13.307153701782227 C 475.7056579589844 -9.254986763000488 475.1168212890625 21.631380081176758 465.11572265625 24.759929656982422 C 452.9920349121094 27.081771850585938 452.9906921386719 2.29353928565979 462.0627136230469 -12.289968490600586 C 452.048583984375 -25.091032028198242 462.0220642089844 -25.90433692932129 467.6995544433594 -26.350269317626953 C 468.9287414550781 -22.148361206054688 477.5956115722656 -17.040916442871094 461.7029113769531 -13.307153701782227" stroke-width="0.0" fill="rgb(127, 109, 14)" opacity="0.08040667" stroke="rgb(0, 0, 0)" stroke-opacity="1.0" stroke-linecap="round" stroke-linejoin="round"/>
    <path d="M 472.280517578125 28.516826629638672 C 492.1946105957031 40.55692672729492 475.5613098144531 44.8178596496582 502.35467529296875 43.291446685791016 C 489.3887634277344 54.204246520996094 465.3746337890625 46.30989456176758 467.364990234375 44.41206359863281 C 488.76519775390625 36.212154388427734 498.54925537109375 26.122692108154297 513.5772094726562 10.588276863098145 C 481.97705078125 26.15851402282715 487.025634765625 39.003665924072266 472.280517578125 28.516826629638672" stroke-width="0.0" fill="rgb(244, 61, 60)" opacity="0.04756538" stroke="rgb(0, 0, 0)" stroke-opacity="1.0" stroke-linecap="round" stroke-linejoin="round"/>
    <path d="M 59.896244049072266 314.6778259277344 C 68.82780456542969 346.4596252441406 63.241085052490234 345.600830078125 18.330480575561523 354.20880126953125 C 24.078277587890625 358.52178955078125 4.088571548461914 335.58447265625 11.106414794921875 332.5146789550781 C 23.556045532226562 319.6647644042969 24.300426483154297 300.07037353515625 20.38482666015625 310.90240478515625 C 49.06673049926758 296.8584899902344 58.9715690612793 309.99969482421875 59.896244049072266 314.6778259277344" stroke-width="0.0" fill="rgb(156, 33, 2)" opacity="0.07899435" stroke="rgb(0, 0, 0)" stroke-opacity="1.0" stroke-linecap="round" stroke-linejoin="round"/>
    <path d="M 215.65589904785156 451.1806945800781 C 197.8452911376953 452.3294982910156 192.53738403320312 462.4829406738281 198.7135009765625 481.73486328125 C 198.6986083984375 476.4374084472656 194.8582763671875 476.7437744140625 197.88075256347656 448.92620849609375 C 200.58949279785156 458.41192626953125 192.05712890625 445.251220703125 199.04452514648438 472.04974365234375 C 207.89332580566406 459.9841613769531 214.67852783203125 455.85430908203125 215.65589904785156 451.1806945800781" stroke-width="0.0" fill="rgb(118, 77, 153)" opacity="0.0" stroke="rgb(0, 0, 0)" stroke-opacity="1.0" stroke-linecap="round" stroke-linejoin="round"/>
    <path d="M 12.047401428222656 378.2334289550781 C 32.273250579833984 386.49859619140625 18.767457962036133 369.5065002441406 9.733991622924805 382.67181396484375 C 14.24107837677002 373.3595886230469 -10.761178016662598 363.0777282714844 38.098812103271484 361.9781188964844 C 18.369997024536133 340.4345703125 5.37530517578125 317.106201171875 18.937639236450195 337.2681884765625 C 31.29482078552246 352.5459289550781 29.46979331970215 373.12890625 12.047401428222656 378.2334289550781" stroke-width="0.0" fill="rgb(152, 81, 44)" opacity="0.052449986" stroke="rgb(0, 0, 0)" stroke-opacity="1.0" stroke-linecap="round" stroke-linejoin="round"/>
    <path d="M 199.1505889892578 438.2920227050781 C 174.84251403808594 407.30389404296875 165.1088104248047 420.1446533203125 163.4775848388672 455.6689453125 C 167.1282958984375 465.03009033203125 163.26185607910156 449.4588317871094 151.97947692871094 448.6925048828125 C 129.1460418701172 433.4089660644531 147.70945739746094 439.8013000488281 163.32102966308594 435.47454833984375 C 166.87876892089844 443.4170227050781 182.9197998046875 458.86895751953125 199.1505889892578 438.2920227050781" stroke-width="0.0" fill="rgb(218, 94, 139)" opacity="0.100701295" stroke="rgb(0, 0, 0)" stroke-opacity="1.0" stroke-linecap="round" stroke-linejoin="round"/>
    <path d="M 376.8330078125 228.41209411621094 C 373.0434875488281 198.3343963623047 363.2319641113281 191.9878387451172 346.1956787109375 206.019287109375 C 316.0432434082031 233.99215698242188 314.0774230957031 243.68368530273438 335.84735107421875 241.55337524414062 C 350.6366882324219 225.8992156982422 335.07318115234375 251.28550720214844 350.7122497558594 277.7114562988281 C 399.4720764160156 262.3979187011719 406.41912841796875 227.81219482421875 376.8330078125 228.41209411621094" stroke-width="0.0" fill="rgb(119, 197, 104)" opacity="0.10055053" stroke="rgb(0, 0, 0)" stroke-opacity="1.0" stroke-linecap="round" stroke-linejoin="round"/>
    <path d="M 193.09898376464844 223.1899871826172 C 199.71034240722656 256.4352722167969 205.23019409179688 271.8825988769531 183.38320922851562 250.5712127685547 C 152.668701171875 299.9499206542969 139.4046173095703 306.8804626464844 160.31741333007812 272.41229248046875 C 148.5436248779297 230.32740783691406 135.51722717285156 211.34280395507812 179.9447479248047 191.35589599609375 C 191.4755859375 195.6356964111328 194.85586547851562 205.2539520263672 193.09898376464844 223.1899871826172" stroke-width="0.0" fill="rgb(90, 111, 23)" opacity="0.37940958" stroke="rgb(0, 0, 0)" stroke-opacity="1.0" stroke-linecap="round" stroke-linejoin="round"/>
    <path d="M 177.7072296142578 434.19879150390625 C 199.51119995117188 442.99127197265625 195.1537322998047 438.724365234375 202.35116577148438 475.2850341796875 C 160.24002075195312 467.2526550292969 152.32879638671875 446.2247619628906 176.2420654296875 454.5426025390625 C 169.267333984375 436.02508544921875 181.1312255859375 437.889892578125 150.6159210205078 429.7651062011719 C 156.95590209960938 409.49884033203125 162.20005798339844 410.82464599609375 177.7072296142578 434.19879150390625" stroke-width="0.0" fill="rgb(224, 31, 9)" opacity="0.059025448" stroke="rgb(0, 0, 0)" stroke-opacity="1.0" stroke-linecap="round" stroke-linejoin="round"/>
    <path d="M 525.112060546875 240.58975219726562 C 539.0987548828125 268.0668640136719 517.5723266601562 269.8858337402344 495.9210205078125 265.8452453613281 C 480.0274353027344 265.5250549316406 487.9915466308594 264.7878723144531 504.4725646972656 236.20835876464844 C 498.57891845703125 231.43499755859375 499.43798828125 222.22647094726562 521.4196166992188 218.18472290039062 C 523.54736328125 207.407470703125 520.8161010742188 213.7393798828125 525.112060546875 240.58975219726562" stroke-width="0.0" fill="rgb(212, 44, 9)" opacity="0.0386339" stroke="rgb(0, 0, 0)" stroke-opacity="1.0" stroke-linecap="round" stroke-linejoin="round"/>
  </g>
</svg>
