<?xml version="1.0" ?>
<svg xmlns="http://www.w3.org/2000/svg" version="1.1" width="512" height="512">
  <defs/>
  <g>
    <path d="M 532.9341430664062 425.6756896972656 C 547.8762817382812 517.3806762695312 549.523193359375 525.7646484375 370.40435791015625 542.0289306640625 C 290.5059814453125 563.166748046875 260.851318359375 565.1451416015625 159.16677856445312 476.3785400390625 C 317.4412536621094 298.447021484375 366.5565490722656 330.7123718261719 441.680419921875 303.4632263183594 C 563.720458984375 327.754638671875 554.3468017578125 349.1396789550781 532.9341430664062 425.6756896972656" stroke-width="0.0" fill="rgb(210, 123, 60)" opacity="0.29158396" stroke="rgb(0, 0, 0)" stroke-opacity="1.0" stroke-linecap="round" stroke-linejoin="round"/>
    <path d="M 281.343505859375 293.6100158691406 C 215.55386352539062 386.5968322753906 245.7721710205078 440.44482421875 242.3289337158203 537.9595947265625 C -51.20000076293945 524.0781860351562 -51.20000076293945 515.5620727539062 -60.73017120361328 418.3358459472656 C -35.90980911254883 200.6079559326172 -17.72255516052246 185.4840087890625 71.77386474609375 203.62123107910156 C 288.57818603515625 203.5894775390625 316.7740478515625 185.37298583984375 281.343505859375 293.6100158691406" stroke-width="0.0" fill="rgb(39, 53, 148)" opacity="0.9100861" stroke="rgb(0, 0, 0)" stroke-opacity="1.0" stroke-linecap="round" stroke-linejoin="round"/>
    <path d="M 238.60690307617188 -32.76347732543945 C 130.35659790039062 137.55897521972656 159.62953186035156 188.50534057617188 19.615127563476562 272.30572509765625 C -45.10283660888672 244.29603576660156 -28.441959381103516 200.5228271484375 -21.88432502746582 120.6147232055664 C -15.812456130981445 -17.697975158691406 -9.716771125793457 -23.272192001342773 27.615015029907227 -17.582897186279297 C 195.79283142089844 -21.859926223754883 231.64715576171875 -39.381500244140625 238.60690307617188 -32.76347732543945" stroke-width="0.0" fill="rgb(21, 20, 202)" opacity="0.933892" stroke="rgb(0, 0, 0)" stroke-opacity="1.0" stroke-linecap="round" stroke-linejoin="round"/>
    <path d="M 587.513916015625 150.92225646972656 C 500.57989501953125 323.5978698730469 471.373779296875 311.3180847167969 353.3770751953125 320.9987487792969 C 277.9415283203125 331.3839416503906 336.6785888671875 289.0070495605469 194.16053771972656 143.81295776367188 C 240.68707275390625 106.9212646484375 217.53208923339844 62.25881576538086 275.0517883300781 -56.107418060302734 C 563.2000122070312 -12.327669143676758 556.7141723632812 3.000692367553711 587.513916015625 150.92225646972656" stroke-width="0.0" fill="rgb(34, 30, 180)" opacity="0.7640835" stroke="rgb(0, 0, 0)" stroke-opacity="1.0" stroke-linecap="round" stroke-linejoin="round"/>
    <path d="M 383.0750427246094 51.662845611572266 C 207.93942260742188 248.47308349609375 225.48953247070312 276.3487243652344 206.7554473876953 229.54598999023438 C 67.31793975830078 222.7914581298828 126.24609375 244.2085418701172 47.436702728271484 155.4586181640625 C 49.71816635131836 126.91158294677734 109.82252502441406 158.7340850830078 288.9312438964844 18.557706832885742 C 319.7218933105469 -10.619865417480469 336.3177490234375 -1.7450376749038696 383.0750427246094 51.662845611572266" stroke-width="0.0" fill="rgb(32, 31, 192)" opacity="0.31663713" stroke="rgb(0, 0, 0)" stroke-opacity="1.0" stroke-linecap="round" stroke-linejoin="round"/>
    <path d="M 402.63690185546875 333.9226379394531 C 416.7818908691406 413.95501708984375 430.55853271484375 428.810302734375 217.06629943847656 437.3299865722656 C 244.12649536132812 498.34442138671875 222.37640380859375 485.6067199707031 130.5692901611328 410.85272216796875 C 113.61392211914062 124.18171691894531 205.95228576660156 134.8819122314453 356.98529052734375 168.69863891601562 C 442.6580505371094 249.1475372314453 437.06500244140625 212.82229614257812 402.63690185546875 333.9226379394531" stroke-width="0.0" fill="rgb(97, 57, 197)" opacity="0.89862496" stroke="rgb(0, 0, 0)" stroke-opacity="1.0" stroke-linecap="round" stroke-linejoin="round"/>
    <path d="M 558.17724609375 258.55078125 C 569.0950927734375 336.0442199707031 557.1080932617188 346.9394836425781 428.3077392578125 330.9244689941406 C 289.0640869140625 366.446044921875 306.7507019042969 375.6652526855469 443.1025085449219 152.11695861816406 C 434.59033203125 -9.504396438598633 252.73118591308594 -8.269111633300781 461.72735595703125 -29.637006759643555 C 542.975830078125 62.45589065551758 553.297607421875 96.79554748535156 558.17724609375 258.55078125" stroke-width="0.0" fill="rgb(68, 194, 41)" opacity="0.99417746" stroke="rgb(0, 0, 0)" stroke-opacity="1.0" stroke-linecap="round" stroke-linejoin="round"/>
    <path d="M 342.3201599121094 323.04736328125 C 291.2532653808594 324.9940185546875 375.10479736328125 323.4676208496094 280.9240417480469 317.5931396484375 C 235.74778747558594 423.3432922363281 194.23953247070312 350.3498229980469 286.44561767578125 212.05079650878906 C 213.10389709472656 216.7008514404297 49.22565841674805 211.29319763183594 302.6074523925781 207.33538818359375 C 349.67034912109375 156.40687561035156 418.5917053222656 224.49769592285156 342.3201599121094 323.04736328125" stroke-width="0.0" fill="rgb(253, 241, 172)" opacity="0.95507026" stroke="rgb(0, 0, 0)" stroke-opacity="1.0" stroke-linecap="round" stroke-linejoin="round"/>
    <path d="M 476.5317687988281 151.63046264648438 C 419.4090881347656 283.0342712402344 371.7147521972656 236.83221435546875 366.7794494628906 286.5072326660156 C 364.8018493652344 246.3911590576172 294.26727294921875 221.43548583984375 353.350341796875 171.04408264160156 C 357.5910339355469 245.8167724609375 331.55029296875 200.64279174804688 361.9916687011719 147.43502807617188 C 450.3718566894531 19.67717742919922 453.2720642089844 -55.45683670043945 476.5317687988281 151.63046264648438" stroke-width="0.0" fill="rgb(250, 199, 163)" opacity="0.97685635" stroke="rgb(0, 0, 0)" stroke-opacity="1.0" stroke-linecap="round" stroke-linejoin="round"/>
    <path d="M 255.1383819580078 247.1190185546875 C 180.47171020507812 212.5644073486328 240.4983367919922 259.67486572265625 99.06172180175781 393.1118469238281 C 53.646724700927734 368.8172607421875 185.86749267578125 285.4135437011719 178.79974365234375 259.6494140625 C 208.23590087890625 222.6420135498047 197.3711395263672 197.84439086914062 215.8758544921875 231.15280151367188 C 383.4676208496094 221.8969268798828 277.79241943359375 219.5161895751953 255.1383819580078 247.1190185546875" stroke-width="0.0" fill="rgb(255, 233, 136)" opacity="0.964129" stroke="rgb(0, 0, 0)" stroke-opacity="1.0" stroke-linecap="round" stroke-linejoin="round"/>
    <path d="M 402.1348876953125 326.6639709472656 C 384.687255859375 284.7625732421875 342.32269287109375 301.55963134765625 359.0238952636719 415.5700378417969 C 195.85231018066406 376.0050964355469 259.8394470214844 382.900390625 325.2039794921875 297.2508239746094 C 371.2869873046875 248.82778930664062 359.029052734375 201.70974731445312 425.972900390625 133.58944702148438 C 521.2391357421875 227.57334899902344 374.4842224121094 197.76547241210938 402.1348876953125 326.6639709472656" stroke-width="0.0" fill="rgb(90, 205, 51)" opacity="1.0" stroke="rgb(0, 0, 0)" stroke-opacity="1.0" stroke-linecap="round" stroke-linejoin="round"/>
    <path d="M 269.9791564941406 322.6016540527344 C 212.49610900878906 396.4402160644531 177.43995666503906 420.6152038574219 179.26126098632812 446.1282958984375 C 94.00292205810547 418.8387145996094 88.98750305175781 422.88519287109375 95.37420654296875 375.6771545410156 C 135.07183837890625 394.566650390625 137.0791015625 384.9400634765625 191.3919677734375 304.4244079589844 C 250.08648681640625 206.12191772460938 245.25958251953125 165.58583068847656 269.9791564941406 322.6016540527344" stroke-width="0.0" fill="rgb(247, 217, 197)" opacity="0.9727329" stroke="rgb(0, 0, 0)" stroke-opacity="1.0" stroke-linecap="round" stroke-linejoin="round"/>
    <path d="M 547.36474609375 36.69603729248047 C 546.8214111328125 101.14716339111328 563.2000122070312 131.33303833007812 531.343994140625 124.19876098632812 C 388.08404541015625 88.37985229492188 451.5139465332031 15.930801391601562 309.7283630371094 108.95223999023438 C 245.81072998046875 -19.570560455322266 316.590576171875 -33.20316696166992 417.81463623046875 -34.18076705932617 C 541.44287109375 -11.839082717895508 540.9603881835938 -2.2575111389160156 547.36474609375 36.69603729248047" stroke-width="0.0" fill="rgb(28, 27, 190)" opacity="0.99681014" stroke="rgb(0, 0, 0)" stroke-opacity="1.0" stroke-linecap="round" stroke-linejoin="round"/>
    <path d="M 372.4750671386719 415.7335510253906 C 299.7886962890625 416.31060791015625 277.24871826171875 419.5877990722656 269.19769287109375 447.7540283203125 C 241.12339782714844 432.1963195800781 218.63717651367188 458.8827209472656 188.56248474121094 445.86053466796875 C 210.82818603515625 374.6576843261719 226.6094970703125 351.92926025390625 252.1512451171875 365.68084716796875 C 282.3421936035156 377.83929443359375 318.76043701171875 392.62493896484375 372.4750671386719 415.7335510253906" stroke-width="0.0" fill="rgb(0, 171, 51)" opacity="1.0" stroke="rgb(0, 0, 0)" stroke-opacity="1.0" stroke-linecap="round" stroke-linejoin="round"/>
    <path d="M 267.0184020996094 223.97869873046875 C 249.48736572265625 181.7192840576172 238.98269653320312 245.6808319091797 169.2357940673828 342.68072509765625 C 33.99327850341797 431.6210632324219 191.1805419921875 288.5207214355469 189.4224395751953 265.394775390625 C 227.96295166015625 172.2962646484375 156.81109619140625 209.41366577148438 205.00135803222656 235.5966033935547 C 254.0428924560547 202.39913940429688 288.09625244140625 204.5415802001953 267.0184020996094 223.97869873046875" stroke-width="0.0" fill="rgb(0, 23, 124)" opacity="0.48428673" stroke="rgb(0, 0, 0)" stroke-opacity="1.0" stroke-linecap="round" stroke-linejoin="round"/>
    <path d="M 387.3740539550781 2.3158113956451416 C 281.9477844238281 114.610595703125 276.7815246582031 168.54611206054688 211.51031494140625 138.34388732910156 C 162.06463623046875 65.32369995117188 181.83230590820312 130.60763549804688 155.8746337890625 85.05181121826172 C 171.7481689453125 15.505796432495117 196.46087646484375 14.507057189941406 205.90621948242188 -10.149506568908691 C 203.8855438232422 -30.91486358642578 250.21401977539062 -62.4205436706543 387.3740539550781 2.3158113956451416" stroke-width="0.0" fill="rgb(32, 41, 231)" opacity="0.99714816" stroke="rgb(0, 0, 0)" stroke-opacity="1.0" stroke-linecap="round" stroke-linejoin="round"/>
    <path d="M 72.45304870605469 467.2428283691406 C 55.80231857299805 491.2245178222656 37.298683166503906 455.65960693359375 6.527215003967285 476.6939697265625 C -30.442363739013672 476.211669921875 -22.561553955078125 420.2237548828125 -2.953062057495117 415.1850891113281 C 3.7458994388580322 386.9954833984375 0.05059795826673508 346.5472717285156 42.822757720947266 330.8122253417969 C 102.24700927734375 346.43511962890625 74.61898803710938 342.4028625488281 72.45304870605469 467.2428283691406" stroke-width="0.0" fill="rgb(14, 106, 43)" opacity="0.9100528" stroke="rgb(0, 0, 0)" stroke-opacity="1.0" stroke-linecap="round" stroke-linejoin="round"/>
    <path d="M 347.07269287109375 118.52628326416016 C 351.4342346191406 136.81004333496094 347.8013000488281 197.51229858398438 295.7926025390625 200.3400115966797 C 159.49789428710938 118.93989562988281 -9.818726539611816 331.8783874511719 169.4029083251953 88.23160552978516 C 322.2549133300781 169.72291564941406 220.9031219482422 123.49311065673828 323.5489807128906 94.70623016357422 C 350.645263671875 95.50850677490234 350.8218078613281 94.90393829345703 347.07269287109375 118.52628326416016" stroke-width="0.0" fill="rgb(7, 160, 48)" opacity="0.99863124" stroke="rgb(0, 0, 0)" stroke-opacity="1.0" stroke-linecap="round" stroke-linejoin="round"/>
    <path d="M 329.0109558105469 305.9593200683594 C 276.75958251953125 224.5267791748047 234.6343536376953 319.023681640625 224.12356567382812 354.8853759765625 C 259.6656188964844 366.4608154296875 251.76539611816406 332.7304382324219 218.8399200439453 352.0011901855469 C 160.73336791992188 472.24725341796875 196.18202209472656 398.0612487792969 269.6142578125 375.3773193359375 C 262.6261291503906 350.9011535644531 264.80157470703125 380.8030090332031 329.0109558105469 305.9593200683594" stroke-width="0.0" fill="rgb(64, 198, 53)" opacity="1.0" stroke="rgb(0, 0, 0)" stroke-opacity="1.0" stroke-linecap="round" stroke-linejoin="round"/>
    <path d="M 393.0799255371094 144.9336395263672 C 395.563232421875 126.60366821289062 382.9607849121094 160.28578186035156 365.87432861328125 179.2926483154297 C 363.8087463378906 190.13528442382812 346.03082275390625 180.48297119140625 326.4637451171875 193.67391967773438 C 345.4634094238281 190.51730346679688 359.7499084472656 146.49464416503906 359.3343505859375 174.66746520996094 C 353.7392883300781 206.84945678710938 345.545654296875 228.58335876464844 393.0799255371094 144.9336395263672" stroke-width="0.0" fill="rgb(255, 240, 201)" opacity="0.8525878" stroke="rgb(0, 0, 0)" stroke-opacity="1.0" stroke-linecap="round" stroke-linejoin="round"/>
    <path d="M 167.8689727783203 207.5751953125 C 77.17462158203125 323.50341796875 101.64238739013672 264.82672119140625 70.1790542602539 408.3085021972656 C 92.26367950439453 311.84674072265625 63.89383316040039 293.8097839355469 60.712745666503906 223.2728729248047 C 124.23529815673828 280.3960876464844 67.34536743164062 296.021728515625 114.6338119506836 293.5210876464844 C -3.8840298652648926 222.95550537109375 260.7553405761719 209.426025390625 167.8689727783203 207.5751953125" stroke-width="0.0" fill="rgb(157, 52, 54)" opacity="0.140548" stroke="rgb(0, 0, 0)" stroke-opacity="1.0" stroke-linecap="round" stroke-linejoin="round"/>
    <path d="M 290.4934387207031 199.32894897460938 C 292.712158203125 254.9835662841797 261.9794006347656 276.80194091796875 266.7552185058594 167.3730926513672 C 263.6728820800781 165.57302856445312 113.9889907836914 171.3807373046875 210.5534210205078 182.84002685546875 C 299.79656982421875 183.86534118652344 304.4813537597656 188.9686737060547 305.1591796875 181.7580108642578 C 306.826171875 220.04498291015625 297.84796142578125 201.69012451171875 290.4934387207031 199.32894897460938" stroke-width="0.0" fill="rgb(244, 217, 156)" opacity="0.95567733" stroke="rgb(0, 0, 0)" stroke-opacity="1.0" stroke-linecap="round" stroke-linejoin="round"/>
    <path d="M 152.26974487304688 299.8481140136719 C 123.13428497314453 345.2854309082031 91.07869720458984 348.3293762207031 72.1668930053711 369.0491943359375 C 30.24067497253418 354.641845703125 52.03879165649414 319.0846862792969 77.43268585205078 318.5660400390625 C 69.0252914428711 310.483642578125 66.50602722167969 290.702880859375 71.25286865234375 281.9533996582031 C 68.44503784179688 313.4481506347656 85.25404357910156 288.563232421875 152.26974487304688 299.8481140136719" stroke-width="0.0" fill="rgb(25, 157, 107)" opacity="0.8155675" stroke="rgb(0, 0, 0)" stroke-opacity="1.0" stroke-linecap="round" stroke-linejoin="round"/>
    <path d="M 172.10330200195312 238.8773956298828 C 18.070085525512695 287.2049255371094 68.00684356689453 261.1968078613281 49.93695068359375 281.2054138183594 C 76.17977905273438 347.80755615234375 59.500797271728516 354.48223876953125 61.468021392822266 348.3262634277344 C 39.66013717651367 241.61412048339844 -4.959772109985352 278.7626647949219 63.711143493652344 221.50491333007812 C 113.742431640625 237.6962890625 177.492431640625 192.65391540527344 172.10330200195312 238.8773956298828" stroke-width="0.0" fill="rgb(18, 163, 66)" opacity="0.98098874" stroke="rgb(0, 0, 0)" stroke-opacity="1.0" stroke-linecap="round" stroke-linejoin="round"/>
    <path d="M 265.9193115234375 214.1413116455078 C 263.3131408691406 282.3921813964844 279.9088439941406 273.39093017578125 252.30284118652344 345.4122619628906 C 244.34982299804688 279.95684814453125 254.97901916503906 223.46839904785156 247.61473083496094 204.89151000976562 C 242.78599548339844 233.47299194335938 255.139404296875 236.03482055664062 260.6785583496094 226.55078125 C 258.4607238769531 196.99169921875 268.0255432128906 201.41476440429688 265.9193115234375 214.1413116455078" stroke-width="0.0" fill="rgb(71, 79, 223)" opacity="0.90272427" stroke="rgb(0, 0, 0)" stroke-opacity="1.0" stroke-linecap="round" stroke-linejoin="round"/>
    <path d="M 251.4313201904297 128.32894897460938 C 231.87818908691406 192.5621337890625 325.53466796875 210.0078582763672 173.2382354736328 200.2466583251953 C 186.867919921875 259.58966064453125 43.88078689575195 222.5372314453125 153.40489196777344 124.78407287597656 C 178.0128936767578 98.65445709228516 222.65232849121094 134.5982208251953 251.25845336914062 132.5103759765625 C 247.7814178466797 131.5316925048828 267.2826843261719 121.16345977783203 251.4313201904297 128.32894897460938" stroke-width="0.0" fill="rgb(38, 88, 84)" opacity="0.35986492" stroke="rgb(0, 0, 0)" stroke-opacity="1.0" stroke-linecap="round" stroke-linejoin="round"/>
    <path d="M 303.59259033203125 219.82131958007812 C 344.302001953125 170.4630889892578 337.23236083984375 234.2703399658203 306.19091796875 215.9038543701172 C 281.29132080078125 253.71241760253906 280.6860046386719 206.7020721435547 278.48211669921875 207.11236572265625 C 286.1361083984375 199.7196044921875 261.63519287109375 236.38385009765625 319.5789489746094 178.74514770507812 C 320.3236389160156 299.892333984375 310.24163818359375 123.45455932617188 303.59259033203125 219.82131958007812" stroke-width="0.0" fill="rgb(136, 53, 101)" opacity="0.37936565" stroke="rgb(0, 0, 0)" stroke-opacity="1.0" stroke-linecap="round" stroke-linejoin="round"/>
    <path d="M 275.0389404296875 415.8620300292969 C 273.8393249511719 421.54730224609375 258.51348876953125 421.3400573730469 205.72219848632812 434.7886047363281 C 224.70460510253906 453.3529968261719 211.0751190185547 453.2525939941406 122.3606185913086 402.76165771484375 C 208.33465576171875 397.97589111328125 224.82301330566406 425.13873291015625 261.2447509765625 435.2862854003906 C 243.89065551757812 405.86614990234375 245.67210388183594 427.7544860839844 275.0389404296875 415.8620300292969" stroke-width="0.0" fill="rgb(228, 90, 119)" opacity="0.0032227845" stroke="rgb(0, 0, 0)" stroke-opacity="1.0" stroke-linecap="round" stroke-linejoin="round"/>
    <path d="M 128.0961151123047 166.35519409179688 C 184.30340576171875 168.87051391601562 174.41204833984375 211.66262817382812 175.26547241210938 243.52220153808594 C 75.92227935791016 231.27603149414062 69.6766357421875 228.6830596923828 109.0605239868164 200.04917907714844 C 130.1405792236328 203.6359100341797 111.23857879638672 205.4685516357422 121.87727355957031 191.16067504882812 C 135.12811279296875 201.1915740966797 112.36280059814453 209.76708984375 128.0961151123047 166.35519409179688" stroke-width="0.0" fill="rgb(58, 190, 74)" opacity="0.913876" stroke="rgb(0, 0, 0)" stroke-opacity="1.0" stroke-linecap="round" stroke-linejoin="round"/>
    <path d="M 107.16763305664062 266.84039306640625 C 107.75310516357422 301.09820556640625 86.7433090209961 304.102783203125 79.8716049194336 320.83551025390625 C 63.61024475097656 328.25286865234375 80.32164001464844 287.70184326171875 67.10713958740234 311.6705322265625 C 68.76470184326172 277.1767272949219 60.1617431640625 278.1795654296875 68.62352752685547 280.859375 C 98.41573333740234 301.44488525390625 86.51599884033203 270.3873291015625 107.16763305664062 266.84039306640625" stroke-width="0.0" fill="rgb(91, 74, 173)" opacity="0.97790784" stroke="rgb(0, 0, 0)" stroke-opacity="1.0" stroke-linecap="round" stroke-linejoin="round"/>
    <path d="M 295.0260314941406 416.5541076660156 C 294.3378601074219 439.2214050292969 286.3934020996094 437.8084716796875 267.7179870605469 425.3450927734375 C 249.48025512695312 431.45343017578125 236.06149291992188 410.55242919921875 258.3473205566406 393.54132080078125 C 282.2830810546875 406.8520812988281 281.84625244140625 389.0234069824219 279.0157775878906 407.81097412109375 C 293.7029724121094 399.5702209472656 294.0707702636719 408.4120788574219 295.0260314941406 416.5541076660156" stroke-width="0.0" fill="rgb(14, 75, 71)" opacity="0.9538513" stroke="rgb(0, 0, 0)" stroke-opacity="1.0" stroke-linecap="round" stroke-linejoin="round"/>
    <path d="M 401.0015563964844 417.71136474609375 C 391.037353515625 449.4035339355469 390.5162658691406 458.1706237792969 387.2336730957031 476.9828796386719 C 397.5797119140625 472.62200927734375 376.9219055175781 462.6632385253906 368.0841369628906 449.24468994140625 C 381.7981262207031 454.55810546875 369.1626281738281 441.2437744140625 417.8405456542969 441.1546630859375 C 460.65496826171875 400.3859558105469 444.50653076171875 410.9670104980469 401.0015563964844 417.71136474609375" stroke-width="0.0" fill="rgb(201, 211, 155)" opacity="0.34682292" stroke="rgb(0, 0, 0)" stroke-opacity="1.0" stroke-linecap="round" stroke-linejoin="round"/>
    <path d="M 315.3689270019531 400.5605773925781 C 308.1863708496094 425.1126403808594 303.81298828125 415.5703430175781 231.29273986816406 405.65997314453125 C 248.6981201171875 430.8105773925781 221.7908172607422 403.8765563964844 207.46165466308594 376.6776428222656 C 219.63949584960938 353.4361267089844 230.4386749267578 339.0378723144531 260.39520263671875 359.259521484375 C 281.0208740234375 362.66619873046875 303.16815185546875 363.95123291015625 315.3689270019531 400.5605773925781" stroke-width="0.0" fill="rgb(82, 197, 59)" opacity="0.9131549" stroke="rgb(0, 0, 0)" stroke-opacity="1.0" stroke-linecap="round" stroke-linejoin="round"/>
    <path d="M 346.3259582519531 88.8022232055664 C 260.26898193359375 122.58992767333984 303.74517822265625 128.6292724609375 276.1053466796875 113.36566925048828 C 261.2120361328125 108.68795013427734 274.4096984863281 102.75979614257812 262.8337707519531 134.5227508544922 C 286.1708679199219 134.6114959716797 285.8863525390625 98.51512145996094 289.8797607421875 106.71874237060547 C 312.4651794433594 110.92588806152344 338.8092346191406 75.43160247802734 346.3259582519531 88.8022232055664" stroke-width="0.0" fill="rgb(76, 52, 188)" opacity="0.09702542" stroke="rgb(0, 0, 0)" stroke-opacity="1.0" stroke-linecap="round" stroke-linejoin="round"/>
    <path d="M 365.61322021484375 443.49017333984375 C 317.6599426269531 448.5732727050781 331.3892517089844 445.8516845703125 305.4124450683594 440.62744140625 C 292.0220947265625 436.816162109375 284.39422607421875 409.7181396484375 297.12115478515625 407.0932922363281 C 295.7778015136719 415.8699035644531 293.6260070800781 396.74951171875 313.6542663574219 372.6878662109375 C 331.9040832519531 353.5299377441406 353.44012451171875 366.8272705078125 365.61322021484375 443.49017333984375" stroke-width="0.0" fill="rgb(3, 63, 108)" opacity="0.7446733" stroke="rgb(0, 0, 0)" stroke-opacity="1.0" stroke-linecap="round" stroke-linejoin="round"/>
    <path d="M 428.4460754394531 74.6666030883789 C 437.97406005859375 55.43930435180664 393.93109130859375 69.09661102294922 413.0150451660156 85.97119903564453 C 394.047607421875 77.84262084960938 337.9986572265625 60.79161071777344 346.1507873535156 104.82152557373047 C 343.5522155761719 47.49851989746094 331.9461975097656 84.35281372070312 403.8669128417969 65.84832000732422 C 397.64068603515625 60.205265045166016 403.3699645996094 101.57470703125 428.4460754394531 74.6666030883789" stroke-width="0.0" fill="rgb(120, 99, 158)" opacity="0.8744546" stroke="rgb(0, 0, 0)" stroke-opacity="1.0" stroke-linecap="round" stroke-linejoin="round"/>
    <path d="M 57.131656646728516 485.9378356933594 C 63.26326370239258 503.1030578613281 59.079647064208984 509.0505065917969 54.9745979309082 532.0379028320312 C 38.58931350708008 507.3917236328125 39.50131607055664 482.4661560058594 3.1532437801361084 472.3509826660156 C -2.0831551551818848 447.1831359863281 42.14567947387695 451.8251953125 57.79234313964844 430.1355285644531 C 69.04119873046875 442.4859313964844 64.25825500488281 464.1673278808594 57.131656646728516 485.9378356933594" stroke-width="0.0" fill="rgb(248, 186, 2)" opacity="0.98574674" stroke="rgb(0, 0, 0)" stroke-opacity="1.0" stroke-linecap="round" stroke-linejoin="round"/>
    <path d="M 198.0004119873047 366.14404296875 C 204.9484405517578 383.2533264160156 195.00819396972656 397.7041015625 174.80833435058594 426.5899658203125 C 160.90000915527344 418.6288146972656 166.15982055664062 385.5330810546875 166.3233642578125 399.3424987792969 C 174.7470703125 378.1758117675781 191.84686279296875 370.8891296386719 201.7798614501953 333.4540100097656 C 195.99684143066406 341.6991271972656 200.1728973388672 355.8958435058594 198.0004119873047 366.14404296875" stroke-width="0.0" fill="rgb(255, 185, 94)" opacity="0.51230085" stroke="rgb(0, 0, 0)" stroke-opacity="1.0" stroke-linecap="round" stroke-linejoin="round"/>
    <path d="M 214.64309692382812 225.21395874023438 C 178.87234497070312 266.0612487792969 156.3902130126953 266.705322265625 161.81158447265625 313.6846923828125 C 156.18943786621094 287.08416748046875 135.05105590820312 294.61285400390625 118.59686279296875 274.0414123535156 C 113.17301940917969 207.57412719726562 153.79278564453125 224.76963806152344 175.10585021972656 241.49578857421875 C 208.1578826904297 225.10223388671875 225.4925994873047 237.387939453125 214.64309692382812 225.21395874023438" stroke-width="0.0" fill="rgb(42, 60, 122)" opacity="0.32748196" stroke="rgb(0, 0, 0)" stroke-opacity="1.0" stroke-linecap="round" stroke-linejoin="round"/>
    <path d="M 39.148826599121094 464.1664733886719 C 15.630051612854004 477.2170104980469 23.46391487121582 499.9389953613281 26.3936710357666 522.6044921875 C -42.28227996826172 527.1709594726562 -56.00776290893555 521.2158203125 -9.151896476745605 496.6474914550781 C 0.8791011571884155 438.6264953613281 -5.056947231292725 382.0886535644531 23.083694458007812 424.59271240234375 C 28.901155471801758 432.1211853027344 22.862747192382812 444.71875 39.148826599121094 464.1664733886719" stroke-width="0.0" fill="rgb(5, 101, 96)" opacity="1.0" stroke="rgb(0, 0, 0)" stroke-opacity="1.0" stroke-linecap="round" stroke-linejoin="round"/>
    <path d="M 213.9735870361328 119.74742889404297 C 191.8019256591797 153.60682678222656 198.9650421142578 123.1580810546875 184.15164184570312 119.83438873291016 C 162.547119140625 103.0060806274414 168.4329833984375 74.77202606201172 184.62477111816406 84.35624694824219 C 162.4827423095703 99.5362319946289 184.21005249023438 81.1708755493164 179.0966796875 86.73674774169922 C 178.37530517578125 83.29869079589844 214.07505798339844 78.37055206298828 213.9735870361328 119.74742889404297" stroke-width="0.0" fill="rgb(106, 235, 48)" opacity="0.9590524" stroke="rgb(0, 0, 0)" stroke-opacity="1.0" stroke-linecap="round" stroke-linejoin="round"/>
    <path d="M 252.5457305908203 459.2821350097656 C 288.8971252441406 464.02960205078125 254.90908813476562 473.0594787597656 252.9640350341797 474.0251770019531 C 225.46987915039062 468.6589050292969 224.7356414794922 466.15472412109375 205.78274536132812 467.5245361328125 C 197.00071716308594 435.96697998046875 222.20968627929688 438.3643493652344 244.5402374267578 439.83648681640625 C 242.33148193359375 442.2693176269531 242.64356994628906 465.6963806152344 252.5457305908203 459.2821350097656" stroke-width="0.0" fill="rgb(164, 66, 155)" opacity="0.0" stroke="rgb(0, 0, 0)" stroke-opacity="1.0" stroke-linecap="round" stroke-linejoin="round"/>
    <path d="M 409.771484375 463.53533935546875 C 354.3471984863281 503.9981994628906 322.97698974609375 496.0245361328125 314.1286926269531 509.49774169921875 C 337.56103515625 476.3721618652344 348.73870849609375 450.4617919921875 306.6466979980469 447.2254333496094 C 290.0618896484375 450.05078125 337.1204528808594 462.9407958984375 338.95452880859375 439.0863342285156 C 357.36474609375 411.0472106933594 404.9964904785156 414.0476989746094 409.771484375 463.53533935546875" stroke-width="0.0" fill="rgb(253, 243, 222)" opacity="0.2748586" stroke="rgb(0, 0, 0)" stroke-opacity="1.0" stroke-linecap="round" stroke-linejoin="round"/>
    <path d="M 348.03704833984375 217.5109405517578 C 350.0693054199219 251.1129608154297 364.0587463378906 266.2729187011719 295.6174621582031 281.8933410644531 C 323.35675048828125 227.5395965576172 338.1714782714844 237.33657836914062 265.9420166015625 204.37637329101562 C 308.5635986328125 204.43734741210938 324.86273193359375 204.00572204589844 324.8359375 172.37405395507812 C 353.5080871582031 219.14447021484375 337.2760925292969 215.7283172607422 348.03704833984375 217.5109405517578" stroke-width="0.0" fill="rgb(255, 214, 134)" opacity="0.8042863" stroke="rgb(0, 0, 0)" stroke-opacity="1.0" stroke-linecap="round" stroke-linejoin="round"/>
    <path d="M 504.4673767089844 418.1210632324219 C 537.5570068359375 459.51788330078125 532.4465942382812 486.9770812988281 490.1989440917969 496.9471740722656 C 446.9319152832031 505.3206481933594 447.77728271484375 452.4766540527344 440.6351013183594 433.40753173828125 C 449.1473388671875 406.6103820800781 438.02362060546875 427.74676513671875 476.9762268066406 427.1788330078125 C 470.0845947265625 395.0995788574219 462.32928466796875 388.9453125 504.4673767089844 418.1210632324219" stroke-width="0.0" fill="rgb(128, 218, 0)" opacity="1.0" stroke="rgb(0, 0, 0)" stroke-opacity="1.0" stroke-linecap="round" stroke-linejoin="round"/>
    <path d="M 207.16502380371094 419.6568603515625 C 222.33277893066406 460.4185485839844 190.4657440185547 487.25518798828125 204.8275604248047 446.30633544921875 C 153.3593292236328 448.8328857421875 132.92788696289062 430.6081848144531 150.6575927734375 415.8843078613281 C 163.92474365234375 421.0238952636719 165.94735717773438 422.06463623046875 170.34591674804688 401.8839111328125 C 160.7045440673828 373.9206237792969 193.81307983398438 389.8869323730469 207.16502380371094 419.6568603515625" stroke-width="0.0" fill="rgb(194, 225, 2)" opacity="0.9561119" stroke="rgb(0, 0, 0)" stroke-opacity="1.0" stroke-linecap="round" stroke-linejoin="round"/>
    <path d="M 328.167236328125 429.6560974121094 C 290.138916015625 424.4133605957031 314.2083740234375 471.03704833984375 302.3510437011719 447.7231140136719 C 266.2286376953125 449.06170654296875 260.69256591796875 444.27996826171875 260.570556640625 421.6317443847656 C 265.9520568847656 397.890869140625 276.875 400.80615234375 325.6175842285156 394.9490966796875 C 309.42010498046875 375.20068359375 338.30181884765625 382.2631530761719 328.167236328125 429.6560974121094" stroke-width="0.0" fill="rgb(16, 96, 65)" opacity="0.99203897" stroke="rgb(0, 0, 0)" stroke-opacity="1.0" stroke-linecap="round" stroke-linejoin="round"/>
    <path d="M 425.77911376953125 408.4540710449219 C 373.7442932128906 387.4302673339844 407.99224853515625 460.055908203125 382.14447021484375 420.77593994140625 C 356.0782775878906 424.67169189453125 346.14605712890625 436.5966491699219 358.1450500488281 386.5509338378906 C 356.0561218261719 374.0098571777344 388.0364685058594 403.6570739746094 413.9801025390625 397.4715576171875 C 419.655517578125 373.2812805175781 448.4297790527344 365.385986328125 425.77911376953125 408.4540710449219" stroke-width="0.0" fill="rgb(76, 92, 177)" opacity="0.85949117" stroke="rgb(0, 0, 0)" stroke-opacity="1.0" stroke-linecap="round" stroke-linejoin="round"/>
    <path d="M 330.2662658691406 379.96099853515625 C 341.0003662109375 381.8569030761719 326.2220153808594 421.20220947265625 340.701904296875 425.03289794921875 C 343.9883117675781 389.2507629394531 310.84503173828125 392.59954833984375 304.23370361328125 388.5488586425781 C 308.21563720703125 376.67388916015625 318.8646240234375 376.6304016113281 318.7883605957031 383.260986328125 C 327.6955871582031 355.4364929199219 330.8226318359375 367.6073913574219 330.2662658691406 379.96099853515625" stroke-width="0.0" fill="rgb(5, 119, 100)" opacity="0.32482904" stroke="rgb(0, 0, 0)" stroke-opacity="1.0" stroke-linecap="round" stroke-linejoin="round"/>
    <path d="M 77.91194915771484 457.3815612792969 C 61.15816116333008 529.5939331054688 61.8717041015625 541.3529052734375 49.71754455566406 554.8204345703125 C -7.321460247039795 532.9614868164062 -12.452421188354492 514.7509155273438 -8.5864896774292 493.65185546875 C -5.3854265213012695 473.8078918457031 1.8624048233032227 466.67279052734375 25.85580062866211 464.7374267578125 C 58.62718200683594 459.4486083984375 77.68070983886719 476.5327453613281 77.91194915771484 457.3815612792969" stroke-width="0.0" fill="rgb(21, 153, 56)" opacity="1.0" stroke="rgb(0, 0, 0)" stroke-opacity="1.0" stroke-linecap="round" stroke-linejoin="round"/>
    <path d="M 98.50324249267578 342.5924072265625 C 97.9588623046875 403.50189208984375 111.15673828125 396.1458740234375 105.52289581298828 391.7924499511719 C 82.19963836669922 400.2491455078125 94.23804473876953 401.3719177246094 110.47486114501953 382.555908203125 C 116.55817413330078 381.7774353027344 101.75690460205078 393.80804443359375 111.66321563720703 370.72821044921875 C 116.73171997070312 355.9376220703125 92.23176574707031 353.0506591796875 98.50324249267578 342.5924072265625" stroke-width="0.0" fill="rgb(141, 65, 124)" opacity="0.5953034" stroke="rgb(0, 0, 0)" stroke-opacity="1.0" stroke-linecap="round" stroke-linejoin="round"/>
    <path d="M 146.31002807617188 440.0435485839844 C 120.7055892944336 447.6971130371094 92.20457458496094 410.0229797363281 100.1611557006836 386.5730285644531 C 113.6927261352539 393.1723937988281 114.6162109375 439.7748107910156 97.00929260253906 438.4648132324219 C 87.22996520996094 412.87506103515625 79.71686553955078 415.741455078125 88.42707061767578 374.88873291015625 C 96.27092742919922 381.26092529296875 98.87816619873047 413.5120544433594 146.31002807617188 440.0435485839844" stroke-width="0.0" fill="rgb(61, 35, 134)" opacity="0.58896804" stroke="rgb(0, 0, 0)" stroke-opacity="1.0" stroke-linecap="round" stroke-linejoin="round"/>
    <path d="M 457.9499206542969 72.16877746582031 C 464.2297668457031 119.43889617919922 446.22113037109375 92.15660858154297 424.0389404296875 90.13517761230469 C 410.639892578125 93.67460632324219 405.418212890625 109.89533233642578 389.0632629394531 67.9474868774414 C 395.942138671875 53.81270980834961 396.50921630859375 63.18399429321289 404.85174560546875 79.05288696289062 C 417.7389831542969 59.232269287109375 463.55670166015625 72.59427642822266 457.9499206542969 72.16877746582031" stroke-width="0.0" fill="rgb(240, 218, 193)" opacity="1.0" stroke="rgb(0, 0, 0)" stroke-opacity="1.0" stroke-linecap="round" stroke-linejoin="round"/>
    <path d="M 140.58309936523438 186.67356872558594 C 120.42539978027344 178.09567260742188 84.1100082397461 163.5669708251953 71.42742919921875 176.3461456298828 C 71.2774887084961 176.49087524414062 36.03780746459961 173.5283966064453 54.964656829833984 168.91188049316406 C 68.82108306884766 131.2193145751953 66.1590576171875 131.63966369628906 52.975154876708984 135.94981384277344 C 89.69193267822266 130.70391845703125 120.1522445678711 130.94357299804688 140.58309936523438 186.67356872558594" stroke-width="0.0" fill="rgb(50, 19, 172)" opacity="0.15762448" stroke="rgb(0, 0, 0)" stroke-opacity="1.0" stroke-linecap="round" stroke-linejoin="round"/>
    <path d="M 141.73529052734375 116.41541290283203 C 142.76913452148438 158.5814971923828 123.71843719482422 188.0236053466797 104.20531463623047 176.6028594970703 C 90.01519775390625 129.3054656982422 66.16323852539062 132.29983520507812 55.65550231933594 147.04872131347656 C 68.47310638427734 123.79611206054688 76.88622283935547 126.21613311767578 94.04383087158203 132.9499969482422 C 130.5383758544922 131.80050659179688 150.45672607421875 120.4567642211914 141.73529052734375 116.41541290283203" stroke-width="0.0" fill="rgb(18, 20, 210)" opacity="0.92074084" stroke="rgb(0, 0, 0)" stroke-opacity="1.0" stroke-linecap="round" stroke-linejoin="round"/>
    <path d="M 591.4144287109375 505.1866760253906 C 519.4004516601562 516.6699829101562 511.4638977050781 524.1195068359375 430.4123840332031 553.1620483398438 C 408.66998291015625 531.3269653320312 409.47210693359375 510.01031494140625 437.01141357421875 482.8179626464844 C 453.8845520019531 453.39764404296875 441.389404296875 468.1320495605469 480.1328430175781 487.0641784667969 C 535.625244140625 472.2790832519531 575.1792602539062 494.3076171875 591.4144287109375 505.1866760253906" stroke-width="0.0" fill="rgb(65, 203, 38)" opacity="1.0" stroke="rgb(0, 0, 0)" stroke-opacity="1.0" stroke-linecap="round" stroke-linejoin="round"/>
    <path d="M 437.27569580078125 314.650390625 C 456.3681945800781 323.351318359375 384.65118408203125 323.0047912597656 387.0140686035156 334.44390869140625 C 362.4150695800781 354.8161315917969 374.22613525390625 358.3372802734375 389.6112365722656 338.6142883300781 C 380.669921875 334.0409851074219 374.01953125 303.4417419433594 400.1468200683594 274.3968505859375 C 429.11492919921875 303.057861328125 463.9873962402344 282.5284118652344 437.27569580078125 314.650390625" stroke-width="0.0" fill="rgb(183, 215, 0)" opacity="0.90383005" stroke="rgb(0, 0, 0)" stroke-opacity="1.0" stroke-linecap="round" stroke-linejoin="round"/>
    <path d="M 273.6290588378906 422.5301513671875 C 273.5947570800781 463.5014953613281 273.1053771972656 465.3435363769531 268.44525146484375 468.6932678222656 C 270.00323486328125 445.68719482421875 269.4242858886719 420.1097717285156 260.6399230957031 419.143798828125 C 252.16030883789062 397.95440673828125 255.00559997558594 405.8270568847656 273.6119384765625 430.3399963378906 C 284.9191589355469 422.893798828125 280.8905029296875 412.3732604980469 273.6290588378906 422.5301513671875" stroke-width="0.0" fill="rgb(50, 120, 171)" opacity="0.72589505" stroke="rgb(0, 0, 0)" stroke-opacity="1.0" stroke-linecap="round" stroke-linejoin="round"/>
    <path d="M 151.46038818359375 324.5928649902344 C 143.58126831054688 355.31585693359375 132.9099578857422 362.8768005371094 150.13095092773438 384.6663513183594 C 155.73435974121094 350.6207580566406 157.7298126220703 321.57122802734375 148.47544860839844 358.8606872558594 C 157.02540588378906 358.3877258300781 165.14828491210938 338.1558837890625 149.3548583984375 344.0018005371094 C 168.49652099609375 355.0587158203125 183.4861602783203 360.8641357421875 151.46038818359375 324.5928649902344" stroke-width="0.0" fill="rgb(16, 59, 113)" opacity="0.8103513" stroke="rgb(0, 0, 0)" stroke-opacity="1.0" stroke-linecap="round" stroke-linejoin="round"/>
    <path d="M 168.580078125 20.029598236083984 C 188.1360321044922 47.93535614013672 162.9534912109375 64.33184814453125 157.90362548828125 46.3705940246582 C 154.20684814453125 44.32823181152344 166.0144805908203 12.434192657470703 166.3562774658203 -1.6356803178787231 C 140.16920471191406 -26.62120819091797 149.7132568359375 -29.916461944580078 152.2257537841797 -37.9225959777832 C 154.41217041015625 -28.01934242248535 136.11883544921875 -5.668033123016357 168.580078125 20.029598236083984" stroke-width="0.0" fill="rgb(50, 28, 180)" opacity="0.037737988" stroke="rgb(0, 0, 0)" stroke-opacity="1.0" stroke-linecap="round" stroke-linejoin="round"/>
    <path d="M 263.69305419921875 327.4037780761719 C 317.4573059082031 309.95556640625 276.7224426269531 306.3419494628906 255.7792510986328 331.6413879394531 C 225.8574981689453 343.3828125 222.4123077392578 308.1152038574219 236.6054229736328 300.21270751953125 C 265.3639221191406 331.8619689941406 250.07235717773438 281.2984313964844 277.7006530761719 286.6656188964844 C 275.41925048828125 289.55731201171875 278.37310791015625 300.54296875 263.69305419921875 327.4037780761719" stroke-width="0.0" fill="rgb(138, 236, 1)" opacity="0.93355846" stroke="rgb(0, 0, 0)" stroke-opacity="1.0" stroke-linecap="round" stroke-linejoin="round"/>
    <path d="M 112.43623352050781 122.66471862792969 C 90.91865539550781 160.898681640625 62.184547424316406 173.3789520263672 80.0219955444336 142.507568359375 C 42.489356994628906 135.7983856201172 31.248342514038086 152.79833984375 51.89708709716797 128.9122314453125 C 85.55003356933594 115.23068237304688 46.722801208496094 128.13755798339844 52.7244987487793 93.08091735839844 C 96.85247039794922 111.49767303466797 118.96592712402344 90.12574768066406 112.43623352050781 122.66471862792969" stroke-width="0.0" fill="rgb(250, 79, 13)" opacity="0.9514542" stroke="rgb(0, 0, 0)" stroke-opacity="1.0" stroke-linecap="round" stroke-linejoin="round"/>
    <path d="M 398.5140686035156 176.45614624023438 C 388.6317443847656 169.80751037597656 403.024169921875 150.58273315429688 408.6688232421875 171.56150817871094 C 419.3153991699219 160.45706176757812 404.5358581542969 158.7759552001953 410.6195983886719 150.65025329589844 C 411.3895263671875 144.6780242919922 427.8976135253906 132.35379028320312 424.5273742675781 141.2699432373047 C 438.7644958496094 149.45306396484375 429.90740966796875 158.17506408691406 398.5140686035156 176.45614624023438" stroke-width="0.0" fill="rgb(68, 235, 55)" opacity="0.9395198" stroke="rgb(0, 0, 0)" stroke-opacity="1.0" stroke-linecap="round" stroke-linejoin="round"/>
    <path d="M 55.1701774597168 482.2640380859375 C 62.23257827758789 482.3918151855469 61.14548110961914 487.9508056640625 45.06178283691406 448.57391357421875 C 50.02057647705078 444.20306396484375 73.01054382324219 473.76275634765625 90.36033630371094 481.1784362792969 C 67.20365905761719 471.5157165527344 66.72635650634766 471.534423828125 60.38790512084961 462.9995422363281 C 90.66978454589844 463.06671142578125 95.77804565429688 477.5687255859375 55.1701774597168 482.2640380859375" stroke-width="0.0" fill="rgb(210, 88, 175)" opacity="0.16360784" stroke="rgb(0, 0, 0)" stroke-opacity="1.0" stroke-linecap="round" stroke-linejoin="round"/>
  </g>
</svg>
