<?xml version="1.0" ?>
<svg xmlns="http://www.w3.org/2000/svg" version="1.1" width="512" height="512">
  <defs/>
  <g>
    <path d="M 528.6923217773438 452.8617858886719 C 547.4852905273438 516.6414794921875 548.3889770507812 525.1383666992188 391.3504943847656 531.8592529296875 C 319.76873779296875 563.2000122070312 290.24560546875 563.2000122070312 266.612548828125 526.7598266601562 C 353.7411193847656 390.17919921875 440.4890441894531 393.9844665527344 524.429931640625 331.89599609375 C 561.1741943359375 314.37054443359375 558.3201904296875 331.7438659667969 528.6923217773438 452.8617858886719" stroke-width="0.0" fill="rgb(15, 121, 218)" opacity="0.95143884" stroke="rgb(0, 0, 0)" stroke-opacity="1.0" stroke-linecap="round" stroke-linejoin="round"/>
    <path d="M 341.03173828125 386.6236572265625 C 312.3388366699219 488.88348388671875 294.6378479003906 515.1346435546875 237.08639526367188 527.1287231445312 C -71.76006317138672 516.2854614257812 -51.727169036865234 519.5074462890625 -24.57526969909668 499.8572998046875 C 4.799552917480469 238.66293334960938 18.008005142211914 242.20050048828125 64.38766479492188 192.42263793945312 C 254.08790588378906 243.53155517578125 299.6202087402344 185.26754760742188 341.03173828125 386.6236572265625" stroke-width="0.0" fill="rgb(225, 253, 157)" opacity="0.49260056" stroke="rgb(0, 0, 0)" stroke-opacity="1.0" stroke-linecap="round" stroke-linejoin="round"/>
    <path d="M 312.35693359375 369.3863525390625 C 384.2704772949219 335.4159240722656 233.31349182128906 416.69219970703125 235.3794708251953 341.7327575683594 C 115.13009643554688 423.9754943847656 50.401893615722656 316.26434326171875 84.12118530273438 159.67678833007812 C 48.870819091796875 181.72042846679688 34.26597213745117 169.5983428955078 131.56251525878906 165.20326232910156 C 197.7096710205078 250.4824981689453 297.9359436035156 152.4779815673828 312.35693359375 369.3863525390625" stroke-width="0.0" fill="rgb(148, 140, 81)" opacity="0.03960299" stroke="rgb(0, 0, 0)" stroke-opacity="1.0" stroke-linecap="round" stroke-linejoin="round"/>
    <path d="M 195.17308044433594 -61.04623031616211 C 159.7899932861328 116.4088363647461 132.24647521972656 99.59168243408203 -1.824785828590393 256.0145263671875 C -59.361392974853516 242.98648071289062 -48.30719757080078 220.05886840820312 -27.0666446685791 145.69007873535156 C -16.190303802490234 -17.708452224731445 -9.996477127075195 -23.574756622314453 32.775753021240234 -18.098133087158203 C 196.82273864746094 -23.394615173339844 224.5518341064453 -36.593833923339844 195.17308044433594 -61.04623031616211" stroke-width="0.0" fill="rgb(33, 61, 255)" opacity="1.0" stroke="rgb(0, 0, 0)" stroke-opacity="1.0" stroke-linecap="round" stroke-linejoin="round"/>
    <path d="M 514.6597900390625 94.60001373291016 C 443.4870910644531 295.2186584472656 423.8805236816406 393.4928283691406 294.1500244140625 334.2825927734375 C 319.34869384765625 211.23194885253906 123.72550201416016 323.4785461425781 211.9862823486328 208.50074768066406 C 220.31906127929688 45.22334289550781 188.9677734375 -9.037755012512207 327.0772705078125 -76.69145202636719 C 566.3250732421875 -7.126285552978516 569.0944213867188 13.388509750366211 514.6597900390625 94.60001373291016" stroke-width="0.0" fill="rgb(212, 207, 189)" opacity="0.6222997" stroke="rgb(0, 0, 0)" stroke-opacity="1.0" stroke-linecap="round" stroke-linejoin="round"/>
    <path d="M 231.15504455566406 170.6779022216797 C 216.98095703125 350.7285461425781 268.5516357421875 259.6109313964844 152.33738708496094 297.2711181640625 C 157.85707092285156 181.7910919189453 114.24454498291016 180.6373291015625 99.36626434326172 244.90061950683594 C 158.68466186523438 154.4969024658203 123.46868896484375 70.8321533203125 342.1284484863281 3.3757083415985107 C 242.52349853515625 -14.731318473815918 189.0021209716797 -28.302602767944336 231.15504455566406 170.6779022216797" stroke-width="0.0" fill="rgb(31, 74, 149)" opacity="0.97756267" stroke="rgb(0, 0, 0)" stroke-opacity="1.0" stroke-linecap="round" stroke-linejoin="round"/>
    <path d="M 456.21405029296875 332.96673583984375 C 443.18841552734375 433.44622802734375 460.3131103515625 452.6125793457031 228.4982147216797 446.4167785644531 C 86.33153533935547 427.3078308105469 44.79206085205078 433.0473937988281 339.9162292480469 431.0892333984375 C 283.83184814453125 260.88946533203125 339.055419921875 197.3015594482422 324.2909851074219 234.00299072265625 C 447.404052734375 233.8354949951172 465.7333984375 261.4029541015625 456.21405029296875 332.96673583984375" stroke-width="0.0" fill="rgb(101, 92, 86)" opacity="0.20315002" stroke="rgb(0, 0, 0)" stroke-opacity="1.0" stroke-linecap="round" stroke-linejoin="round"/>
    <path d="M 572.1396484375 200.46336364746094 C 583.2501831054688 364.3863220214844 601.4768676757812 397.6294250488281 497.8702392578125 434.2329406738281 C 385.71600341796875 396.92279052734375 416.85931396484375 337.91925048828125 372.0237121582031 271.7049560546875 C 376.6145324707031 55.569881439208984 336.5858154296875 -36.48897933959961 479.0843811035156 8.8585844039917 C 554.608154296875 53.097904205322266 527.5089721679688 117.27976989746094 572.1396484375 200.46336364746094" stroke-width="0.0" fill="rgb(1, 138, 143)" opacity="0.99956906" stroke="rgb(0, 0, 0)" stroke-opacity="1.0" stroke-linecap="round" stroke-linejoin="round"/>
    <path d="M 379.6963806152344 106.26112365722656 C 374.9602355957031 102.97460174560547 383.0711975097656 233.3521270751953 360.5557556152344 376.85162353515625 C 393.461669921875 111.54899597167969 128.35345458984375 281.6463623046875 231.40748596191406 196.04798889160156 C 204.61184692382812 209.8671417236328 298.6658630371094 207.98548889160156 378.3695983886719 206.97970581054688 C 399.7195129394531 92.77159881591797 372.2616882324219 125.92428588867188 379.6963806152344 106.26112365722656" stroke-width="0.0" fill="rgb(58, 57, 104)" opacity="0.0" stroke="rgb(0, 0, 0)" stroke-opacity="1.0" stroke-linecap="round" stroke-linejoin="round"/>
    <path d="M 225.73707580566406 267.6009826660156 C 246.41748046875 248.39854431152344 216.5315704345703 289.1127624511719 229.20655822753906 302.505615234375 C 227.3399200439453 280.71356201171875 218.66871643066406 259.2520751953125 205.61878967285156 270.7200622558594 C 198.19798278808594 194.69650268554688 233.92550659179688 193.7126922607422 224.83792114257812 250.48709106445312 C 234.39895629882812 293.3887023925781 223.84750366210938 239.77810668945312 225.73707580566406 267.6009826660156" stroke-width="0.0" fill="rgb(12, 37, 109)" opacity="0.55206" stroke="rgb(0, 0, 0)" stroke-opacity="1.0" stroke-linecap="round" stroke-linejoin="round"/>
    <path d="M 386.8092041015625 247.2878875732422 C 374.60943603515625 265.15069580078125 388.98126220703125 276.2594909667969 422.74359130859375 361.876953125 C 362.98773193359375 343.93707275390625 375.681640625 351.77069091796875 371.7353515625 330.5930480957031 C 361.1774597167969 174.68580627441406 391.2718200683594 226.58335876464844 381.5715637207031 188.08322143554688 C 400.1549072265625 265.886962890625 371.7144775390625 263.5626525878906 386.8092041015625 247.2878875732422" stroke-width="0.0" fill="rgb(2, 152, 139)" opacity="0.9840967" stroke="rgb(0, 0, 0)" stroke-opacity="1.0" stroke-linecap="round" stroke-linejoin="round"/>
    <path d="M 392.0703430175781 63.220699310302734 C 311.5617370605469 36.25639343261719 258.4500427246094 49.92576217651367 130.0602264404297 76.46183013916016 C 146.480224609375 142.4210662841797 147.9506072998047 55.61922073364258 120.58682250976562 136.3751220703125 C 128.48104858398438 17.381389617919922 141.03973388671875 -4.387755393981934 200.81484985351562 -45.519657135009766 C 370.2727355957031 -24.44976806640625 404.09759521484375 23.601835250854492 392.0703430175781 63.220699310302734" stroke-width="0.0" fill="rgb(14, 124, 217)" opacity="0.9941471" stroke="rgb(0, 0, 0)" stroke-opacity="1.0" stroke-linecap="round" stroke-linejoin="round"/>
    <path d="M 343.1343688964844 449.71630859375 C 124.15686798095703 360.9699401855469 397.7873229980469 373.6998596191406 160.9434814453125 362.38140869140625 C 145.90963745117188 317.48748779296875 122.3690185546875 376.8903503417969 410.8247985839844 366.4766540527344 C 210.25437927246094 349.2977600097656 -69.71590423583984 377.2721252441406 -39.562984466552734 326.14337158203125 C 109.84111022949219 387.2217712402344 521.8499755859375 297.2624816894531 343.1343688964844 449.71630859375" stroke-width="0.0" fill="rgb(233, 224, 215)" opacity="0.66033626" stroke="rgb(0, 0, 0)" stroke-opacity="1.0" stroke-linecap="round" stroke-linejoin="round"/>
    <path d="M 544.2288208007812 59.2760124206543 C 499.6285705566406 66.7248764038086 450.6536865234375 70.72059631347656 465.1152648925781 63.50355911254883 C 484.96002197265625 70.54165649414062 441.7779846191406 57.32910919189453 375.58575439453125 71.72052764892578 C 370.1474914550781 -3.604828357696533 381.9266052246094 -29.798568725585938 437.0734558105469 -27.88467788696289 C 540.9146118164062 -10.191633224487305 536.6610717773438 3.261720895767212 544.2288208007812 59.2760124206543" stroke-width="0.0" fill="rgb(0, 149, 115)" opacity="0.9949132" stroke="rgb(0, 0, 0)" stroke-opacity="1.0" stroke-linecap="round" stroke-linejoin="round"/>
    <path d="M 507.4770812988281 458.978759765625 C 496.78887939453125 480.8638916015625 476.6764221191406 478.4437255859375 411.3196716308594 460.8600158691406 C 347.5460510253906 452.34747314453125 328.613037109375 457.1927490234375 376.9644775390625 397.47259521484375 C 364.2995300292969 306.9532165527344 376.8193359375 298.34625244140625 444.9239807128906 345.67919921875 C 480.5127868652344 387.4879150390625 499.0610656738281 407.8071594238281 507.4770812988281 458.978759765625" stroke-width="0.0" fill="rgb(0, 151, 194)" opacity="0.98615724" stroke="rgb(0, 0, 0)" stroke-opacity="1.0" stroke-linecap="round" stroke-linejoin="round"/>
    <path d="M 320.62420654296875 415.16766357421875 C 343.2515563964844 443.460205078125 339.08404541015625 473.8777160644531 253.23228454589844 541.8798828125 C 88.32943725585938 582.8977661132812 47.773441314697266 577.477783203125 24.13574981689453 432.0260925292969 C 225.05282592773438 433.39166259765625 273.59686279296875 440.8220520019531 299.6655578613281 457.65228271484375 C 324.6146545410156 432.85186767578125 338.9072265625 431.0787048339844 320.62420654296875 415.16766357421875" stroke-width="0.0" fill="rgb(40, 41, 254)" opacity="0.9977069" stroke="rgb(0, 0, 0)" stroke-opacity="1.0" stroke-linecap="round" stroke-linejoin="round"/>
    <path d="M 438.5238952636719 428.80963134765625 C 420.9568786621094 468.46484375 386.8052978515625 449.4039306640625 357.1024169921875 457.4927978515625 C 333.7021179199219 462.08258056640625 324.5130615234375 493.65386962890625 286.470947265625 399.6511535644531 C 280.112548828125 374.1513366699219 296.7065734863281 412.107177734375 349.5566101074219 437.6576843261719 C 444.7524108886719 417.82574462890625 422.1859130859375 350.727294921875 438.5238952636719 428.80963134765625" stroke-width="0.0" fill="rgb(93, 75, 254)" opacity="0.05962499" stroke="rgb(0, 0, 0)" stroke-opacity="1.0" stroke-linecap="round" stroke-linejoin="round"/>
    <path d="M 49.1897087097168 434.6751403808594 C 61.56788635253906 422.21832275390625 61.02095031738281 425.7623596191406 5.784714698791504 489.46478271484375 C 20.07378578186035 406.36767578125 48.29697799682617 391.72650146484375 52.86354064941406 370.9180603027344 C 8.075645446777344 402.3696594238281 18.264087677001953 362.4646911621094 67.09190368652344 372.4447937011719 C 54.45830535888672 420.06396484375 81.32649230957031 405.8348693847656 49.1897087097168 434.6751403808594" stroke-width="0.0" fill="rgb(247, 71, 247)" opacity="0.58341485" stroke="rgb(0, 0, 0)" stroke-opacity="1.0" stroke-linecap="round" stroke-linejoin="round"/>
    <path d="M 364.86773681640625 110.34175872802734 C 380.1273193359375 116.56999969482422 442.38983154296875 114.1312255859375 311.46014404296875 111.10676574707031 C 357.81329345703125 125.10316467285156 351.4906921386719 147.5074005126953 347.6470642089844 108.57293701171875 C 171.67445373535156 119.10570526123047 108.18919372558594 127.16046905517578 144.32518005371094 109.16622161865234 C 382.6886291503906 109.40603637695312 326.9989013671875 83.81201934814453 364.86773681640625 110.34175872802734" stroke-width="0.0" fill="rgb(145, 128, 104)" opacity="0.25296944" stroke="rgb(0, 0, 0)" stroke-opacity="1.0" stroke-linecap="round" stroke-linejoin="round"/>
    <path d="M 354.4445495605469 217.511962890625 C 339.7416687011719 232.23524475097656 357.7124938964844 173.0219268798828 354.4175109863281 338.4558410644531 C 345.22979736328125 121.22708129882812 417.2454528808594 219.3804931640625 207.04281616210938 207.21746826171875 C 180.22418212890625 223.6385498046875 433.7265319824219 204.8238067626953 353.4635314941406 204.50550842285156 C 372.02783203125 185.1331024169922 391.4498291015625 208.87583923339844 354.4445495605469 217.511962890625" stroke-width="0.0" fill="rgb(185, 227, 177)" opacity="0.0021510487" stroke="rgb(0, 0, 0)" stroke-opacity="1.0" stroke-linecap="round" stroke-linejoin="round"/>
    <path d="M 115.55123138427734 328.7152099609375 C 127.78764343261719 366.3284912109375 105.84883880615234 283.7159729003906 115.83111572265625 445.0667419433594 C 20.214282989501953 473.04766845703125 -43.777854919433594 447.96490478515625 -45.63584899902344 310.35113525390625 C -3.82926082611084 204.85345458984375 14.423262596130371 188.68438720703125 128.81300354003906 83.71985626220703 C 118.8413314819336 94.28226470947266 112.95709991455078 186.3860626220703 115.55123138427734 328.7152099609375" stroke-width="0.0" fill="rgb(48, 22, 255)" opacity="0.9929379" stroke="rgb(0, 0, 0)" stroke-opacity="1.0" stroke-linecap="round" stroke-linejoin="round"/>
    <path d="M 139.2301788330078 536.5977172851562 C 123.9425277709961 521.8115844726562 111.82440948486328 523.4666748046875 76.89894104003906 540.3554077148438 C 53.242950439453125 548.1367797851562 37.029930114746094 547.5507202148438 -25.077735900878906 445.668212890625 C -17.82215118408203 417.8125305175781 -4.552192211151123 413.55987548828125 75.8086166381836 415.34454345703125 C 157.8871612548828 424.8668518066406 152.64610290527344 481.1517333984375 139.2301788330078 536.5977172851562" stroke-width="0.0" fill="rgb(86, 18, 253)" opacity="0.9467057" stroke="rgb(0, 0, 0)" stroke-opacity="1.0" stroke-linecap="round" stroke-linejoin="round"/>
    <path d="M 220.74591064453125 152.47543334960938 C 295.3321838378906 239.2731475830078 271.0797119140625 51.499542236328125 288.4140319824219 139.24139404296875 C 272.05029296875 180.85035705566406 226.85951232910156 146.52813720703125 238.4746856689453 119.08676147460938 C 231.60984802246094 231.0554656982422 330.2882080078125 104.2176742553711 251.89247131347656 107.71719360351562 C 300.6760559082031 65.01652526855469 302.6930236816406 214.63583374023438 220.74591064453125 152.47543334960938" stroke-width="0.0" fill="rgb(198, 255, 123)" opacity="0.26661232" stroke="rgb(0, 0, 0)" stroke-opacity="1.0" stroke-linecap="round" stroke-linejoin="round"/>
    <path d="M 286.8023681640625 248.107666015625 C 274.4559020996094 246.98997497558594 257.98004150390625 246.7310028076172 267.90435791015625 244.3104248046875 C 258.2035827636719 259.6837463378906 268.48492431640625 275.20037841796875 286.10986328125 258.7940673828125 C 269.71917724609375 190.97467041015625 291.2640380859375 213.33590698242188 287.8491516113281 210.81590270996094 C 285.0174255371094 218.93173217773438 282.5404052734375 209.30845642089844 286.8023681640625 248.107666015625" stroke-width="0.0" fill="rgb(245, 255, 39)" opacity="0.18145774" stroke="rgb(0, 0, 0)" stroke-opacity="1.0" stroke-linecap="round" stroke-linejoin="round"/>
    <path d="M 288.20587158203125 138.70713806152344 C 216.63046264648438 102.67012786865234 262.5743103027344 105.2224349975586 238.05221557617188 123.74560546875 C 232.73516845703125 114.23673248291016 81.9550552368164 116.24512481689453 125.41748046875 120.24737548828125 C 177.47120666503906 152.0120849609375 190.52191162109375 157.61109924316406 228.23956298828125 165.45208740234375 C 244.61502075195312 119.1262435913086 218.0277099609375 104.27592468261719 288.20587158203125 138.70713806152344" stroke-width="0.0" fill="rgb(0, 53, 151)" opacity="0.9177973" stroke="rgb(0, 0, 0)" stroke-opacity="1.0" stroke-linecap="round" stroke-linejoin="round"/>
    <path d="M 368.3882751464844 325.98529052734375 C 376.6283264160156 302.0615234375 321.3985290527344 330.3813171386719 277.5634460449219 349.8330993652344 C 300.4711608886719 336.3318786621094 245.62551879882812 336.6570129394531 136.98109436035156 335.9443054199219 C 147.1427459716797 319.1304016113281 120.19951629638672 331.5257263183594 307.0869445800781 328.17333984375 C 258.108642578125 339.97686767578125 315.1617431640625 323.6028137207031 368.3882751464844 325.98529052734375" stroke-width="0.0" fill="rgb(254, 191, 231)" opacity="0.2791094" stroke="rgb(0, 0, 0)" stroke-opacity="1.0" stroke-linecap="round" stroke-linejoin="round"/>
    <path d="M 48.91621017456055 510.6238708496094 C 34.8084831237793 537.8701782226562 16.9820613861084 534.9241333007812 6.32031774520874 536.6248779296875 C -9.364206314086914 527.7437133789062 -16.68471336364746 520.4232177734375 -28.931922912597656 501.913330078125 C -28.24751091003418 489.398193359375 -40.74066925048828 463.6904602050781 -13.730059623718262 421.7215576171875 C 72.65374755859375 426.7488098144531 50.425174713134766 422.0323486328125 48.91621017456055 510.6238708496094" stroke-width="0.0" fill="rgb(96, 12, 249)" opacity="1.0" stroke="rgb(0, 0, 0)" stroke-opacity="1.0" stroke-linecap="round" stroke-linejoin="round"/>
    <path d="M 152.43362426757812 208.430908203125 C 287.0777587890625 218.5144500732422 324.1979064941406 228.8255615234375 128.48497009277344 222.9239501953125 C 108.54869842529297 218.8231964111328 115.22952270507812 161.9489288330078 112.58243560791016 120.0077896118164 C 120.91288757324219 115.94464874267578 104.08403778076172 72.3544692993164 140.4062042236328 82.56452941894531 C 152.89434814453125 114.4225082397461 139.57749938964844 203.21861267089844 152.43362426757812 208.430908203125" stroke-width="0.0" fill="rgb(226, 243, 141)" opacity="0.9511913" stroke="rgb(0, 0, 0)" stroke-opacity="1.0" stroke-linecap="round" stroke-linejoin="round"/>
    <path d="M 254.16973876953125 59.44740295410156 C 122.59817504882812 53.59670639038086 153.27798461914062 57.29090881347656 171.37294006347656 104.7543716430664 C 109.75218200683594 126.31229400634766 106.40189361572266 76.68650817871094 149.44151306152344 60.16880416870117 C 164.0885009765625 96.42829132080078 176.86648559570312 123.85589599609375 200.3916473388672 90.9314956665039 C 203.56539916992188 109.1480712890625 223.14407348632812 112.04431915283203 254.16973876953125 59.44740295410156" stroke-width="0.0" fill="rgb(255, 255, 0)" opacity="0.99868035" stroke="rgb(0, 0, 0)" stroke-opacity="1.0" stroke-linecap="round" stroke-linejoin="round"/>
    <path d="M 449.60357666015625 100.22019958496094 C 415.8818359375 112.95867919921875 416.63330078125 114.87212371826172 386.98834228515625 143.53897094726562 C 365.6794738769531 155.07447814941406 383.9058532714844 143.3336639404297 372.0398254394531 66.82295227050781 C 333.6554870605469 54.02372360229492 265.48089599609375 42.070499420166016 335.0585632324219 -47.28391647338867 C 454.37127685546875 44.586769104003906 451.20477294921875 98.22753143310547 449.60357666015625 100.22019958496094" stroke-width="0.0" fill="rgb(0, 139, 153)" opacity="1.0" stroke="rgb(0, 0, 0)" stroke-opacity="1.0" stroke-linecap="round" stroke-linejoin="round"/>
    <path d="M 360.72344970703125 256.66552734375 C 371.5107116699219 293.0504455566406 351.7303771972656 288.321044921875 361.3677062988281 244.38235473632812 C 358.5566711425781 233.6011199951172 324.9056396484375 254.9931640625 321.02459716796875 239.67904663085938 C 314.72271728515625 219.0346221923828 327.3831787109375 219.72250366210938 317.4737243652344 209.04440307617188 C 336.0378723144531 206.74215698242188 365.4766845703125 205.52410888671875 360.72344970703125 256.66552734375" stroke-width="0.0" fill="rgb(188, 161, 166)" opacity="0.6196598" stroke="rgb(0, 0, 0)" stroke-opacity="1.0" stroke-linecap="round" stroke-linejoin="round"/>
    <path d="M 241.1810302734375 291.9393005371094 C 241.2244415283203 304.5625 227.7649383544922 330.5262145996094 160.32095336914062 310.35760498046875 C 137.24082946777344 327.7040100097656 152.44091796875 296.68377685546875 152.2873992919922 289.8038635253906 C 157.7906036376953 278.5067138671875 186.7747039794922 285.0087585449219 216.2488250732422 285.84466552734375 C 213.03897094726562 292.1222229003906 216.57659912109375 281.84844970703125 241.1810302734375 291.9393005371094" stroke-width="0.0" fill="rgb(207, 182, 210)" opacity="0.9999866" stroke="rgb(0, 0, 0)" stroke-opacity="1.0" stroke-linecap="round" stroke-linejoin="round"/>
    <path d="M 174.9974822998047 403.032470703125 C 161.20068359375 405.0501403808594 143.82830810546875 405.6768798828125 151.55047607421875 451.1005859375 C 142.52536010742188 455.11505126953125 125.83119201660156 460.95294189453125 143.62509155273438 432.2859802246094 C 116.55438232421875 429.00665283203125 138.04534912109375 415.39068603515625 196.74278259277344 410.68798828125 C 180.69837951660156 404.2418212890625 187.0409393310547 404.072265625 174.9974822998047 403.032470703125" stroke-width="0.0" fill="rgb(226, 245, 74)" opacity="0.92584795" stroke="rgb(0, 0, 0)" stroke-opacity="1.0" stroke-linecap="round" stroke-linejoin="round"/>
    <path d="M 441.0600280761719 407.31036376953125 C 450.87353515625 429.5487365722656 444.35308837890625 426.2067565917969 387.40545654296875 428.67144775390625 C 375.0983581542969 441.4773254394531 382.739013671875 446.7755432128906 385.38079833984375 389.4356689453125 C 379.15533447265625 353.9307556152344 382.9755554199219 366.40576171875 416.9808349609375 355.2666015625 C 416.9014892578125 378.57501220703125 442.51495361328125 385.3825378417969 441.0600280761719 407.31036376953125" stroke-width="0.0" fill="rgb(1, 151, 207)" opacity="0.14819463" stroke="rgb(0, 0, 0)" stroke-opacity="1.0" stroke-linecap="round" stroke-linejoin="round"/>
    <path d="M 285.68023681640625 143.09823608398438 C 287.33282470703125 163.74769592285156 299.3470458984375 190.03199768066406 256.7568664550781 192.83013916015625 C 245.87814331054688 124.13927459716797 256.74908447265625 76.21894836425781 260.31890869140625 107.03527069091797 C 236.1439971923828 111.44384765625 242.06045532226562 102.19889831542969 245.64346313476562 126.51319122314453 C 273.6765441894531 117.92225646972656 293.248046875 113.12395477294922 285.68023681640625 143.09823608398438" stroke-width="0.0" fill="rgb(255, 201, 28)" opacity="0.95646036" stroke="rgb(0, 0, 0)" stroke-opacity="1.0" stroke-linecap="round" stroke-linejoin="round"/>
    <path d="M 237.41641235351562 282.9983215332031 C 268.9545593261719 299.9531555175781 267.6796875 277.4848327636719 252.27711486816406 293.1178283691406 C 238.9104766845703 327.3145751953125 202.85374450683594 315.4379577636719 214.6955108642578 299.4915466308594 C 273.4373474121094 310.95343017578125 251.1127166748047 286.5029602050781 203.09817504882812 284.8457336425781 C 210.7557373046875 282.045654296875 229.19564819335938 306.615234375 237.41641235351562 282.9983215332031" stroke-width="0.0" fill="rgb(210, 219, 197)" opacity="0.7396759" stroke="rgb(0, 0, 0)" stroke-opacity="1.0" stroke-linecap="round" stroke-linejoin="round"/>
    <path d="M 182.80230712890625 340.41241455078125 C 171.82884216308594 365.9255676269531 181.2823028564453 375.10711669921875 145.37718200683594 351.12738037109375 C 123.30155181884766 368.6722717285156 126.52701568603516 381.71881103515625 134.74603271484375 354.5615234375 C 130.01083374023438 335.8249816894531 153.0587921142578 327.3652648925781 142.72634887695312 327.98236083984375 C 168.33892822265625 350.3330383300781 175.73638916015625 364.9456787109375 182.80230712890625 340.41241455078125" stroke-width="0.0" fill="rgb(250, 109, 18)" opacity="0.008237946" stroke="rgb(0, 0, 0)" stroke-opacity="1.0" stroke-linecap="round" stroke-linejoin="round"/>
    <path d="M 187.18531799316406 268.7353820800781 C 215.29281616210938 278.8480224609375 211.84291076660156 255.04058837890625 172.81695556640625 267.5444641113281 C 157.07952880859375 269.55615234375 164.56736755371094 261.85467529296875 197.36148071289062 268.3973083496094 C 210.68858337402344 270.2986755371094 211.6985321044922 237.0536651611328 196.2842254638672 239.43218994140625 C 182.7610321044922 227.1783447265625 180.2594451904297 258.3815612792969 187.18531799316406 268.7353820800781" stroke-width="0.0" fill="rgb(0, 124, 24)" opacity="0.54266244" stroke="rgb(0, 0, 0)" stroke-opacity="1.0" stroke-linecap="round" stroke-linejoin="round"/>
    <path d="M 299.2471618652344 247.54312133789062 C 278.0084533691406 244.9706573486328 274.0384521484375 270.61529541015625 272.9655456542969 266.93328857421875 C 266.0966491699219 271.3371276855469 258.6777648925781 268.72296142578125 257.6096496582031 255.68922424316406 C 250.79933166503906 229.2268524169922 250.2914276123047 213.9122314453125 273.8486022949219 223.97776794433594 C 274.72186279296875 233.3082733154297 292.0020751953125 245.35214233398438 299.2471618652344 247.54312133789062" stroke-width="0.0" fill="rgb(255, 242, 169)" opacity="0.41488045" stroke="rgb(0, 0, 0)" stroke-opacity="1.0" stroke-linecap="round" stroke-linejoin="round"/>
    <path d="M 146.1094207763672 335.7662658691406 C 176.99090576171875 348.760498046875 181.58419799804688 343.31524658203125 190.73007202148438 362.66351318359375 C 179.7998046875 335.8150634765625 164.10398864746094 347.5442199707031 136.9859619140625 368.00592041015625 C 137.79782104492188 363.79876708984375 144.23757934570312 361.06585693359375 176.40264892578125 351.451171875 C 171.49131774902344 322.7213439941406 159.4585418701172 333.5447692871094 146.1094207763672 335.7662658691406" stroke-width="0.0" fill="rgb(197, 254, 241)" opacity="0.0002736244" stroke="rgb(0, 0, 0)" stroke-opacity="1.0" stroke-linecap="round" stroke-linejoin="round"/>
    <path d="M 84.651611328125 454.85479736328125 C 61.575599670410156 477.8015441894531 66.01325225830078 510.5857849121094 101.11932373046875 462.1672058105469 C 58.56486892700195 467.5206298828125 29.114418029785156 468.6843566894531 59.83787536621094 442.5066833496094 C 16.811378479003906 446.6559143066406 36.1967658996582 422.5375061035156 41.47844696044922 434.1788330078125 C 90.2132568359375 434.2076721191406 111.3995590209961 432.24920654296875 84.651611328125 454.85479736328125" stroke-width="0.0" fill="rgb(58, 64, 230)" opacity="0.023733372" stroke="rgb(0, 0, 0)" stroke-opacity="1.0" stroke-linecap="round" stroke-linejoin="round"/>
    <path d="M 504.19769287109375 542.7298583984375 C 435.2131042480469 506.21197509765625 450.0044250488281 465.73876953125 406.3208923339844 480.7931213378906 C 392.7525329589844 491.6203918457031 370.7557373046875 536.6173706054688 465.4703369140625 528.4019165039062 C 473.2956848144531 459.8450012207031 469.0492858886719 429.6787109375 467.25360107421875 409.8088073730469 C 502.5876159667969 385.8992004394531 559.7920532226562 389.74652099609375 504.19769287109375 542.7298583984375" stroke-width="0.0" fill="rgb(10, 125, 98)" opacity="0.47821373" stroke="rgb(0, 0, 0)" stroke-opacity="1.0" stroke-linecap="round" stroke-linejoin="round"/>
    <path d="M 456.455078125 351.2293395996094 C 451.2959289550781 387.28326416015625 460.04339599609375 393.2119445800781 439.39117431640625 411.47174072265625 C 407.5965576171875 421.44281005859375 406.91119384765625 409.319580078125 421.6924743652344 355.65234375 C 402.2745361328125 349.8065490722656 408.4855651855469 354.982421875 426.7646179199219 368.5017395019531 C 422.9243469238281 354.8335876464844 458.7032165527344 335.53594970703125 456.455078125 351.2293395996094" stroke-width="0.0" fill="rgb(0, 162, 178)" opacity="0.054363582" stroke="rgb(0, 0, 0)" stroke-opacity="1.0" stroke-linecap="round" stroke-linejoin="round"/>
    <path d="M 81.6491470336914 455.3684387207031 C 71.2420883178711 502.0400390625 29.762977600097656 479.7591857910156 40.87285232543945 454.88922119140625 C -2.7521655559539795 454.38165283203125 38.109867095947266 484.77166748046875 34.020992279052734 435.4774169921875 C 3.2610833644866943 456.65740966796875 32.9578742980957 445.2052917480469 52.25565719604492 472.8216247558594 C -11.155186653137207 494.0589599609375 24.86296272277832 454.44384765625 81.6491470336914 455.3684387207031" stroke-width="0.0" fill="rgb(67, 51, 242)" opacity="0.059265044" stroke="rgb(0, 0, 0)" stroke-opacity="1.0" stroke-linecap="round" stroke-linejoin="round"/>
    <path d="M 181.13754272460938 239.57269287109375 C 163.5096435546875 257.34979248046875 135.31663513183594 256.1211242675781 143.10052490234375 279.49627685546875 C 161.78712463378906 260.0504455566406 154.1605987548828 295.7812194824219 134.41358947753906 282.3769226074219 C 97.13893127441406 232.70474243164062 82.67930603027344 235.548583984375 113.9286117553711 207.8343048095703 C 182.83775329589844 199.30284118652344 188.1790008544922 197.86343383789062 181.13754272460938 239.57269287109375" stroke-width="0.0" fill="rgb(5, 56, 255)" opacity="0.016383735" stroke="rgb(0, 0, 0)" stroke-opacity="1.0" stroke-linecap="round" stroke-linejoin="round"/>
    <path d="M 453.26898193359375 201.081787109375 C 459.711669921875 245.69729614257812 464.9294738769531 248.93653869628906 468.0262451171875 249.47219848632812 C 463.33154296875 226.00592041015625 461.5871887207031 208.8513641357422 448.95281982421875 210.7811737060547 C 439.43890380859375 244.11988830566406 438.752685546875 259.6337890625 462.1425476074219 249.92562866210938 C 471.91937255859375 215.821533203125 474.5975036621094 207.68746948242188 453.26898193359375 201.081787109375" stroke-width="0.0" fill="rgb(29, 120, 111)" opacity="0.01652122" stroke="rgb(0, 0, 0)" stroke-opacity="1.0" stroke-linecap="round" stroke-linejoin="round"/>
    <path d="M 387.4238586425781 195.54017639160156 C 378.6995849609375 221.71604919433594 374.612060546875 244.98756408691406 338.089599609375 167.13650512695312 C 324.17364501953125 189.09791564941406 331.6343994140625 210.66737365722656 306.7001953125 265.1535339355469 C 280.6875915527344 199.28614807128906 304.2310485839844 163.22286987304688 390.4958190917969 163.9591827392578 C 384.98675537109375 188.88233947753906 390.0396728515625 195.1593780517578 387.4238586425781 195.54017639160156" stroke-width="0.0" fill="rgb(178, 131, 237)" opacity="0.0" stroke="rgb(0, 0, 0)" stroke-opacity="1.0" stroke-linecap="round" stroke-linejoin="round"/>
    <path d="M 112.76690673828125 416.9804992675781 C 78.12791442871094 485.10540771484375 79.28840637207031 473.5748291015625 78.12403869628906 441.08721923828125 C 53.541969299316406 477.4492492675781 27.236806869506836 484.8809814453125 44.43235397338867 441.2659606933594 C 31.341896057128906 432.9553527832031 37.149391174316406 439.3199768066406 36.622127532958984 428.5681457519531 C 58.5662956237793 369.09991455078125 71.40176391601562 387.8901672363281 112.76690673828125 416.9804992675781" stroke-width="0.0" fill="rgb(63, 23, 243)" opacity="0.014240601" stroke="rgb(0, 0, 0)" stroke-opacity="1.0" stroke-linecap="round" stroke-linejoin="round"/>
    <path d="M 473.2099609375 46.8035888671875 C 478.781005859375 51.299861907958984 453.2154846191406 59.612342834472656 443.7142333984375 37.934303283691406 C 448.9136047363281 42.40602111816406 459.0576477050781 59.926334381103516 450.96795654296875 43.33014678955078 C 436.21881103515625 48.18667984008789 442.3090515136719 43.94993591308594 468.9467468261719 49.603607177734375 C 469.5037841796875 41.20390319824219 468.8179016113281 48.29267501831055 473.2099609375 46.8035888671875" stroke-width="0.0" fill="rgb(36, 149, 178)" opacity="0.0" stroke="rgb(0, 0, 0)" stroke-opacity="1.0" stroke-linecap="round" stroke-linejoin="round"/>
    <path d="M 275.22076416015625 166.9759521484375 C 276.70684814453125 202.3717803955078 300.99810791015625 188.74244689941406 311.2141418457031 182.3702850341797 C 276.1690673828125 194.8813934326172 296.88079833984375 218.4470977783203 285.8135986328125 180.20130920410156 C 257.8459777832031 157.29212951660156 260.5279541015625 129.48924255371094 263.3924560546875 130.9332275390625 C 296.7149353027344 146.76846313476562 284.1653137207031 180.22242736816406 275.22076416015625 166.9759521484375" stroke-width="0.0" fill="rgb(184, 242, 122)" opacity="0.0" stroke="rgb(0, 0, 0)" stroke-opacity="1.0" stroke-linecap="round" stroke-linejoin="round"/>
    <path d="M 174.63922119140625 -11.835535049438477 C 199.11337280273438 62.196083068847656 185.5387420654297 50.29322052001953 147.61878967285156 64.77411651611328 C 105.63631439208984 79.11968231201172 126.14945983886719 73.09878540039062 105.79020690917969 114.60568237304688 C 79.5433120727539 121.38729095458984 92.34754943847656 52.45805358886719 87.41630554199219 29.332794189453125 C 74.83203125 -21.464414596557617 96.79725646972656 -14.01522159576416 174.63922119140625 -11.835535049438477" stroke-width="0.0" fill="rgb(21, 75, 239)" opacity="0.53891444" stroke="rgb(0, 0, 0)" stroke-opacity="1.0" stroke-linecap="round" stroke-linejoin="round"/>
    <path d="M 209.59719848632812 359.9256896972656 C 191.72467041015625 350.3966064453125 201.78028869628906 343.22149658203125 213.91184997558594 360.8142395019531 C 182.81085205078125 370.7531433105469 174.45095825195312 355.76361083984375 148.08473205566406 345.5312805175781 C 156.9502716064453 310.55615234375 175.01022338867188 303.2514343261719 191.9323272705078 319.3804016113281 C 205.45562744140625 332.47491455078125 196.2993621826172 356.1726379394531 209.59719848632812 359.9256896972656" stroke-width="0.0" fill="rgb(251, 252, 151)" opacity="0.033100434" stroke="rgb(0, 0, 0)" stroke-opacity="1.0" stroke-linecap="round" stroke-linejoin="round"/>
    <path d="M 55.677005767822266 320.8848571777344 C 44.928958892822266 326.8004150390625 43.60903549194336 333.3154602050781 42.494773864746094 322.81317138671875 C 33.89536666870117 323.5912170410156 24.168115615844727 324.25238037109375 22.672805786132812 335.1227111816406 C 32.608402252197266 322.51129150390625 42.557891845703125 310.5690612792969 48.53794860839844 310.939453125 C 51.72840118408203 307.8587341308594 60.38916015625 314.181640625 55.677005767822266 320.8848571777344" stroke-width="0.0" fill="rgb(27, 79, 247)" opacity="0.039752625" stroke="rgb(0, 0, 0)" stroke-opacity="1.0" stroke-linecap="round" stroke-linejoin="round"/>
    <path d="M 437.19586181640625 468.3761901855469 C 443.8312683105469 467.6143798828125 433.3988952636719 478.8708190917969 404.30908203125 460.6556701660156 C 373.8232421875 470.3658447265625 383.1473693847656 469.3300476074219 350.4496154785156 474.2877502441406 C 346.8455505371094 431.5042724609375 349.5698547363281 410.07354736328125 372.29913330078125 423.5914001464844 C 425.8841247558594 427.6531982421875 432.72747802734375 416.36614990234375 437.19586181640625 468.3761901855469" stroke-width="0.0" fill="rgb(37, 111, 247)" opacity="0.30700788" stroke="rgb(0, 0, 0)" stroke-opacity="1.0" stroke-linecap="round" stroke-linejoin="round"/>
    <path d="M 145.86984252929688 260.3657531738281 C 141.6779327392578 266.8979187011719 121.700439453125 263.70794677734375 84.76473999023438 282.6628112792969 C 126.01549530029297 316.88775634765625 157.20912170410156 298.1381530761719 140.8403778076172 317.9762878417969 C 144.49380493164062 314.24462890625 149.7425079345703 282.89617919921875 123.92105102539062 240.78541564941406 C 108.35191345214844 257.84637451171875 140.68113708496094 278.7086486816406 145.86984252929688 260.3657531738281" stroke-width="0.0" fill="rgb(148, 255, 255)" opacity="0.0" stroke="rgb(0, 0, 0)" stroke-opacity="1.0" stroke-linecap="round" stroke-linejoin="round"/>
    <path d="M 133.64637756347656 449.3010559082031 C 149.55816650390625 482.3466491699219 144.43357849121094 495.05242919921875 142.80795288085938 472.4834899902344 C 114.66915893554688 441.9727783203125 85.02734375 435.29144287109375 124.08629608154297 444.4781188964844 C 102.46397399902344 454.124267578125 97.85768127441406 444.25421142578125 116.43950653076172 434.6351013183594 C 135.43402099609375 431.8514404296875 147.19158935546875 436.3368225097656 133.64637756347656 449.3010559082031" stroke-width="0.0" fill="rgb(53, 36, 244)" opacity="0.54999846" stroke="rgb(0, 0, 0)" stroke-opacity="1.0" stroke-linecap="round" stroke-linejoin="round"/>
    <path d="M 258.0589294433594 36.324119567871094 C 259.5187683105469 45.99686813354492 259.5587463378906 57.86198806762695 256.0880432128906 48.40214920043945 C 253.16067504882812 54.39624786376953 243.39878845214844 40.700923919677734 249.9590606689453 35.697532653808594 C 240.14456176757812 38.16981887817383 250.0888214111328 28.140920639038086 248.48533630371094 27.291093826293945 C 252.13514709472656 31.333829879760742 254.11524963378906 30.75225257873535 258.0589294433594 36.324119567871094" stroke-width="0.0" fill="rgb(0, 183, 141)" opacity="0.061775543" stroke="rgb(0, 0, 0)" stroke-opacity="1.0" stroke-linecap="round" stroke-linejoin="round"/>
    <path d="M 91.28353118896484 339.8601379394531 C 106.78470611572266 377.572265625 111.10845947265625 389.590087890625 110.66871643066406 360.7976989746094 C 121.01731872558594 348.07342529296875 106.62644958496094 343.41510009765625 91.51858520507812 359.333251953125 C 103.9592514038086 337.8880615234375 99.5483627319336 335.3896179199219 100.99266815185547 331.1373291015625 C 98.2257308959961 314.6955261230469 100.99504852294922 306.7090148925781 91.28353118896484 339.8601379394531" stroke-width="0.0" fill="rgb(51, 57, 234)" opacity="0.03103566" stroke="rgb(0, 0, 0)" stroke-opacity="1.0" stroke-linecap="round" stroke-linejoin="round"/>
    <path d="M 520.8558959960938 325.6184387207031 C 486.7336730957031 270.4620361328125 469.8977355957031 248.87393188476562 473.6126708984375 223.5160675048828 C 489.2226257324219 240.11119079589844 480.3453369140625 251.47555541992188 471.2035217285156 224.44525146484375 C 468.028564453125 208.9875946044922 472.3470764160156 200.93299865722656 476.9478454589844 95.56413269042969 C 570.7361450195312 89.41295623779297 572.6908569335938 99.15283203125 520.8558959960938 325.6184387207031" stroke-width="0.0" fill="rgb(11, 163, 66)" opacity="0.06589155" stroke="rgb(0, 0, 0)" stroke-opacity="1.0" stroke-linecap="round" stroke-linejoin="round"/>
    <path d="M 440.5679016113281 280.58892822265625 C 449.58697509765625 293.93780517578125 447.3481140136719 331.0693359375 439.85614013671875 337.2981262207031 C 386.64349365234375 320.582763671875 381.4241027832031 270.1504821777344 378.6404113769531 217.53794860839844 C 387.6709289550781 226.8922882080078 429.4323425292969 222.43653869628906 409.509521484375 220.74586486816406 C 416.0122985839844 250.9661407470703 421.188720703125 251.93638610839844 440.5679016113281 280.58892822265625" stroke-width="0.0" fill="rgb(16, 105, 198)" opacity="0.064678796" stroke="rgb(0, 0, 0)" stroke-opacity="1.0" stroke-linecap="round" stroke-linejoin="round"/>
    <path d="M 552.1582641601562 73.74044799804688 C 531.7421264648438 169.21046447753906 489.5865478515625 197.30462646484375 464.2425842285156 126.43526458740234 C 451.8230895996094 66.3826675415039 469.7900390625 84.83674621582031 457.1882019042969 92.37350463867188 C 435.3711242675781 45.13258743286133 430.3038330078125 25.75069236755371 496.9844970703125 32.47560501098633 C 493.7108459472656 17.734344482421875 519.2446899414062 30.32029151916504 552.1582641601562 73.74044799804688" stroke-width="0.0" fill="rgb(0, 164, 76)" opacity="0.13639107" stroke="rgb(0, 0, 0)" stroke-opacity="1.0" stroke-linecap="round" stroke-linejoin="round"/>
    <path d="M 79.14371490478516 141.5300750732422 C 68.97824096679688 212.6683349609375 48.702880859375 219.7875213623047 43.08297348022461 204.8147735595703 C 18.980690002441406 224.83975219726562 40.44487380981445 219.75955200195312 18.679468154907227 246.7748565673828 C -8.72271728515625 220.60391235351562 34.41017150878906 200.142333984375 42.89131546020508 171.8791961669922 C 17.927989959716797 189.0484161376953 43.4184684753418 187.3816680908203 79.14371490478516 141.5300750732422" stroke-width="0.0" fill="rgb(41, 74, 233)" opacity="0.04504757" stroke="rgb(0, 0, 0)" stroke-opacity="1.0" stroke-linecap="round" stroke-linejoin="round"/>
    <path d="M 134.9633026123047 325.767822265625 C 127.6813735961914 334.0525207519531 141.94752502441406 334.373291015625 121.10443878173828 322.3678283691406 C 97.03184509277344 344.4256591796875 95.54998016357422 342.3727111816406 66.75242614746094 336.5618591308594 C 81.70813751220703 318.7455139160156 103.69959259033203 308.4993896484375 110.88434600830078 292.6729736328125 C 121.31730651855469 295.02728271484375 129.71533203125 302.7243347167969 134.9633026123047 325.767822265625" stroke-width="0.0" fill="rgb(12, 96, 253)" opacity="0.02226428" stroke="rgb(0, 0, 0)" stroke-opacity="1.0" stroke-linecap="round" stroke-linejoin="round"/>
    <path d="M 40.79960250854492 89.211181640625 C 58.11851119995117 75.11685943603516 68.2568130493164 93.95256042480469 42.41246795654297 86.43992614746094 C 55.69809341430664 111.52731323242188 28.028705596923828 95.5656967163086 9.04139518737793 84.29743957519531 C 11.612378120422363 86.6807861328125 22.655616760253906 69.1302490234375 23.971500396728516 65.22694396972656 C 19.12090492248535 67.72723388671875 39.15188980102539 85.20890808105469 40.79960250854492 89.211181640625" stroke-width="0.0" fill="rgb(13, 142, 192)" opacity="0.0" stroke="rgb(0, 0, 0)" stroke-opacity="1.0" stroke-linecap="round" stroke-linejoin="round"/>
  </g>
</svg>
