<?xml version="1.0" ?>
<svg xmlns="http://www.w3.org/2000/svg" version="1.1" width="512" height="512">
  <defs/>
  <g>
    <path d="M 543.8507080078125 452.8994140625 C 548.88232421875 518.2211303710938 549.809814453125 525.8021850585938 396.0311279296875 514.9113159179688 C 339.3677978515625 536.6471557617188 312.61065673828125 538.3114013671875 239.80221557617188 440.30908203125 C 279.6891784667969 346.6119079589844 401.1737976074219 368.8233642578125 504.96246337890625 356.44659423828125 C 589.4959106445312 339.4074401855469 584.9244995117188 344.05059814453125 543.8507080078125 452.8994140625" stroke-width="0.0" fill="rgb(21, 14, 142)" opacity="0.91567016" stroke="rgb(0, 0, 0)" stroke-opacity="1.0" stroke-linecap="round" stroke-linejoin="round"/>
    <path d="M 291.7290344238281 485.9192199707031 C 332.37335205078125 527.9618530273438 342.2512512207031 536.05615234375 212.13504028320312 532.904296875 C -51.100406646728516 521.1051635742188 -51.19970703125 512.4564819335938 -64.22359466552734 426.72052001953125 C -61.64272689819336 161.87232971191406 -66.53871154785156 174.9439239501953 30.429851531982422 185.65774536132812 C 160.0682830810547 290.71649169921875 160.8462371826172 317.01153564453125 291.7290344238281 485.9192199707031" stroke-width="0.0" fill="rgb(31, 24, 173)" opacity="0.9606534" stroke="rgb(0, 0, 0)" stroke-opacity="1.0" stroke-linecap="round" stroke-linejoin="round"/>
    <path d="M 320.5518798828125 348.0496826171875 C 335.52325439453125 459.39111328125 338.8508605957031 435.2216796875 197.85104370117188 441.96417236328125 C 63.39949417114258 364.4039001464844 85.67261505126953 304.69732666015625 17.972139358520508 179.6497802734375 C 18.93831443786621 171.25735473632812 22.581966400146484 178.61300659179688 123.2097396850586 180.45489501953125 C 283.0652160644531 160.17544555664062 297.5956726074219 121.37593841552734 320.5518798828125 348.0496826171875" stroke-width="0.0" fill="rgb(255, 235, 4)" opacity="0.7786599" stroke="rgb(0, 0, 0)" stroke-opacity="1.0" stroke-linecap="round" stroke-linejoin="round"/>
    <path d="M 249.73883056640625 26.16307258605957 C 269.8806457519531 241.05715942382812 253.44866943359375 189.40243530273438 52.23453140258789 264.3168029785156 C -48.398719787597656 228.87086486816406 -44.57914733886719 214.92633056640625 -30.038843154907227 170.99710083007812 C -16.494123458862305 -18.97837257385254 -10.838438034057617 -25.126850128173828 25.4498233795166 -22.843158721923828 C 186.03890991210938 -18.5479736328125 204.61990356445312 -22.334026336669922 249.73883056640625 26.16307258605957" stroke-width="0.0" fill="rgb(46, 44, 178)" opacity="0.9808943" stroke="rgb(0, 0, 0)" stroke-opacity="1.0" stroke-linecap="round" stroke-linejoin="round"/>
    <path d="M 556.4359130859375 50.193077087402344 C 437.615478515625 277.79364013671875 429.52557373046875 284.1127014160156 370.5774230957031 317.8858337402344 C 266.71875 334.7499084472656 283.79901123046875 319.8174133300781 245.97865295410156 183.16468811035156 C 254.168212890625 1.2507350444793701 182.07809448242188 -24.285669326782227 344.66571044921875 -20.231698989868164 C 563.2000122070312 -5.52442741394043 563.2000122070312 4.830130577087402 556.4359130859375 50.193077087402344" stroke-width="0.0" fill="rgb(23, 19, 164)" opacity="0.9122855" stroke="rgb(0, 0, 0)" stroke-opacity="1.0" stroke-linecap="round" stroke-linejoin="round"/>
    <path d="M 340.6936340332031 52.13494110107422 C 278.2169494628906 278.19879150390625 207.1807861328125 278.27215576171875 140.15597534179688 229.2496337890625 C 82.57618713378906 264.25 77.76598358154297 288.4635925292969 107.281982421875 250.5312957763672 C 115.10372924804688 153.51681518554688 119.25436401367188 122.09039306640625 289.7983093261719 4.992354869842529 C 319.9953308105469 -39.17331314086914 313.5670166015625 -32.21430206298828 340.6936340332031 52.13494110107422" stroke-width="0.0" fill="rgb(173, 95, 0)" opacity="1.0" stroke="rgb(0, 0, 0)" stroke-opacity="1.0" stroke-linecap="round" stroke-linejoin="round"/>
    <path d="M 449.891845703125 330.490234375 C 427.3108825683594 366.4316101074219 437.2734375 458.95263671875 329.55279541015625 461.6960754394531 C 284.15997314453125 421.68658447265625 267.9597473144531 419.38702392578125 282.3621520996094 385.9638977050781 C 272.54736328125 175.04786682128906 249.15489196777344 177.51148986816406 354.7156066894531 199.67738342285156 C 409.36956787109375 276.4571533203125 440.60089111328125 278.0745849609375 449.891845703125 330.490234375" stroke-width="0.0" fill="rgb(255, 232, 49)" opacity="0.9933888" stroke="rgb(0, 0, 0)" stroke-opacity="1.0" stroke-linecap="round" stroke-linejoin="round"/>
    <path d="M 571.7733154296875 193.51881408691406 C 571.3872680664062 338.8233947753906 553.5423583984375 336.7254333496094 444.6401672363281 407.0694274902344 C 341.1915588378906 413.4908142089844 387.0193786621094 351.677978515625 377.71533203125 269.0803527832031 C 358.4031677246094 184.04354858398438 392.8233947753906 137.23072814941406 551.6318969726562 111.00016784667969 C 563.2000122070312 76.2098159790039 563.2000122070312 99.41815185546875 571.7733154296875 193.51881408691406" stroke-width="0.0" fill="rgb(46, 37, 150)" opacity="1.0" stroke="rgb(0, 0, 0)" stroke-opacity="1.0" stroke-linecap="round" stroke-linejoin="round"/>
    <path d="M 417.13690185546875 276.2411804199219 C 397.2335205078125 314.896240234375 366.2257385253906 261.04888916015625 324.9090881347656 243.23876953125 C 274.8834228515625 265.68487548828125 232.1278839111328 243.32069396972656 135.6177978515625 248.9480438232422 C 224.44651794433594 162.09523010253906 272.98162841796875 190.54159545898438 322.16375732421875 175.28988647460938 C 351.7120666503906 174.13687133789062 403.8694763183594 188.50355529785156 417.13690185546875 276.2411804199219" stroke-width="0.0" fill="rgb(255, 119, 8)" opacity="0.9343835" stroke="rgb(0, 0, 0)" stroke-opacity="1.0" stroke-linecap="round" stroke-linejoin="round"/>
    <path d="M 440.2635803222656 269.4577941894531 C 461.3779296875 317.6131286621094 447.54541015625 424.4107971191406 377.96954345703125 443.36077880859375 C 365.7352294921875 301.5850830078125 393.0015563964844 261.4975280761719 294.80499267578125 168.7327880859375 C 374.7674560546875 173.45962524414062 314.239990234375 270.6757507324219 295.0537109375 190.89385986328125 C 397.7967834472656 133.43893432617188 441.30072021484375 272.3864440917969 440.2635803222656 269.4577941894531" stroke-width="0.0" fill="rgb(255, 95, 0)" opacity="1.0" stroke="rgb(0, 0, 0)" stroke-opacity="1.0" stroke-linecap="round" stroke-linejoin="round"/>
    <path d="M 350.44287109375 90.47941589355469 C 268.0519714355469 47.16981506347656 218.96270751953125 65.68486785888672 229.08145141601562 147.62086486816406 C 201.67391967773438 221.8037872314453 205.3724822998047 150.47674560546875 91.70201110839844 172.4539337158203 C 74.33209991455078 -41.035491943359375 86.99085235595703 -45.44982147216797 235.64695739746094 -78.47444152832031 C 362.4375 -77.59518432617188 371.93780517578125 4.123288631439209 350.44287109375 90.47941589355469" stroke-width="0.0" fill="rgb(38, 43, 177)" opacity="1.0" stroke="rgb(0, 0, 0)" stroke-opacity="1.0" stroke-linecap="round" stroke-linejoin="round"/>
    <path d="M 332.26715087890625 439.7942199707031 C 252.51278686523438 471.3888854980469 194.45590209960938 460.4111633300781 176.4110107421875 414.1654052734375 C 161.58164978027344 347.306884765625 95.01145935058594 414.6664733886719 183.88409423828125 445.9039611816406 C 154.07125854492188 373.1678771972656 179.80003356933594 280.4873962402344 182.9716796875 328.7840576171875 C 218.0171356201172 375.2989501953125 155.85475158691406 364.3583984375 332.26715087890625 439.7942199707031" stroke-width="0.0" fill="rgb(253, 104, 22)" opacity="0.9494235" stroke="rgb(0, 0, 0)" stroke-opacity="1.0" stroke-linecap="round" stroke-linejoin="round"/>
    <path d="M 467.3941345214844 395.6533203125 C 469.302490234375 425.5101623535156 454.62109375 432.73236083984375 412.8365783691406 445.8990173339844 C 377.55133056640625 489.7853698730469 401.8570251464844 439.81036376953125 372.89190673828125 422.5685119628906 C 386.1580505371094 452.3319396972656 432.30438232421875 428.7838439941406 456.26837158203125 417.4366149902344 C 444.50836181640625 396.34222412109375 469.9834289550781 403.6196594238281 467.3941345214844 395.6533203125" stroke-width="0.0" fill="rgb(43, 33, 161)" opacity="0.15857251" stroke="rgb(0, 0, 0)" stroke-opacity="1.0" stroke-linecap="round" stroke-linejoin="round"/>
    <path d="M 396.4117431640625 449.6474609375 C 338.64202880859375 487.22247314453125 352.93994140625 504.65277099609375 302.26153564453125 481.3307800292969 C 266.66143798828125 449.6784362792969 268.6243896484375 428.81292724609375 265.16302490234375 420.7750549316406 C 240.88668823242188 437.075927734375 269.38177490234375 457.0870666503906 276.47308349609375 442.5019836425781 C 309.7274169921875 465.9366760253906 374.0384521484375 444.1681213378906 396.4117431640625 449.6474609375" stroke-width="0.0" fill="rgb(64, 37, 170)" opacity="0.7758826" stroke="rgb(0, 0, 0)" stroke-opacity="1.0" stroke-linecap="round" stroke-linejoin="round"/>
    <path d="M 303.2362976074219 289.6415710449219 C 181.9142303466797 265.5241394042969 165.30177307128906 276.6729736328125 239.58950805664062 323.1504821777344 C 185.58529663085938 345.250732421875 185.3165740966797 288.0700378417969 162.22312927246094 278.8157653808594 C 133.24720764160156 258.81103515625 164.69281005859375 202.85169982910156 233.40281677246094 186.25961303710938 C 283.6545104980469 163.7366485595703 309.74658203125 203.5606231689453 303.2362976074219 289.6415710449219" stroke-width="0.0" fill="rgb(255, 97, 3)" opacity="0.85229224" stroke="rgb(0, 0, 0)" stroke-opacity="1.0" stroke-linecap="round" stroke-linejoin="round"/>
    <path d="M 418.3526306152344 473.7169189453125 C 438.4980163574219 514.670166015625 444.33428955078125 512.9572143554688 392.39892578125 508.0145568847656 C 348.416259765625 498.79248046875 291.4556579589844 521.2635498046875 292.62890625 486.6179504394531 C 338.519287109375 433.6426696777344 356.2210693359375 434.04901123046875 396.5030212402344 433.6512756347656 C 441.1748962402344 405.64605712890625 430.4942932128906 422.5089111328125 418.3526306152344 473.7169189453125" stroke-width="0.0" fill="rgb(39, 32, 155)" opacity="1.0" stroke="rgb(0, 0, 0)" stroke-opacity="1.0" stroke-linecap="round" stroke-linejoin="round"/>
    <path d="M 283.59405517578125 215.06976318359375 C 230.35791015625 281.8213806152344 182.9339141845703 354.7796325683594 276.49273681640625 341.80975341796875 C 281.9899597167969 399.3871765136719 266.8271484375 409.70947265625 244.41983032226562 401.4784851074219 C 286.5733642578125 431.1669006347656 292.5700988769531 435.2744140625 281.2778625488281 392.6712646484375 C 304.1059875488281 400.2401428222656 302.3157958984375 424.2686767578125 283.59405517578125 215.06976318359375" stroke-width="0.0" fill="rgb(254, 104, 0)" opacity="0.9612375" stroke="rgb(0, 0, 0)" stroke-opacity="1.0" stroke-linecap="round" stroke-linejoin="round"/>
    <path d="M 227.96168518066406 187.3404541015625 C 37.875179290771484 133.38644409179688 18.9621524810791 462.43402099609375 184.07603454589844 445.5207824707031 C 113.83534240722656 273.1572265625 277.13311767578125 117.03499603271484 95.6759262084961 184.680419921875 C 39.75619125366211 316.581298828125 71.1407470703125 244.8727264404297 195.79908752441406 215.54299926757812 C 178.11476135253906 383.6398620605469 161.15411376953125 263.98895263671875 227.96168518066406 187.3404541015625" stroke-width="0.0" fill="rgb(255, 118, 3)" opacity="1.0" stroke="rgb(0, 0, 0)" stroke-opacity="1.0" stroke-linecap="round" stroke-linejoin="round"/>
    <path d="M 340.22662353515625 156.4171600341797 C 340.9441223144531 186.1492919921875 307.8570861816406 174.85293579101562 293.93426513671875 174.49990844726562 C 306.1860046386719 180.29832458496094 294.93048095703125 183.986328125 275.804443359375 143.75613403320312 C 270.7649841308594 130.95355224609375 259.6846923828125 101.68514251708984 282.80859375 93.20602416992188 C 330.3236999511719 114.57756805419922 316.69952392578125 83.36402893066406 340.22662353515625 156.4171600341797" stroke-width="0.0" fill="rgb(2, 10, 224)" opacity="1.0" stroke="rgb(0, 0, 0)" stroke-opacity="1.0" stroke-linecap="round" stroke-linejoin="round"/>
    <path d="M 140.50355529785156 185.63133239746094 C 90.8348159790039 216.05743408203125 67.26380920410156 286.61041259765625 73.37017059326172 360.0024108886719 C 13.445756912231445 342.8856506347656 -26.69587516784668 316.9231872558594 -63.87495803833008 179.77798461914062 C 57.138118743896484 187.69589233398438 58.73011779785156 184.4183349609375 142.31048583984375 153.26609802246094 C 247.5067901611328 203.8693389892578 189.65692138671875 160.26878356933594 140.50355529785156 185.63133239746094" stroke-width="0.0" fill="rgb(41, 38, 172)" opacity="0.99908394" stroke="rgb(0, 0, 0)" stroke-opacity="1.0" stroke-linecap="round" stroke-linejoin="round"/>
    <path d="M 236.14157104492188 183.79815673828125 C 146.1523895263672 341.3893737792969 225.30999755859375 389.4805908203125 164.07540893554688 345.560546875 C 162.96771240234375 295.8402099609375 179.41270446777344 220.43807983398438 189.96731567382812 249.91514587402344 C 138.81942749023438 257.17449951171875 174.32650756835938 242.45191955566406 168.43052673339844 256.3244934082031 C 184.44656372070312 246.0735321044922 188.55218505859375 181.2635498046875 236.14157104492188 183.79815673828125" stroke-width="0.0" fill="rgb(255, 154, 20)" opacity="0.9904447" stroke="rgb(0, 0, 0)" stroke-opacity="1.0" stroke-linecap="round" stroke-linejoin="round"/>
    <path d="M 364.7756652832031 122.21434783935547 C 326.7294921875 214.3402099609375 288.37353515625 10.045614242553711 269.5641784667969 152.28294372558594 C 224.6813507080078 196.44418334960938 252.9414825439453 145.56924438476562 234.027099609375 144.60911560058594 C 196.2090301513672 74.28170776367188 250.637451171875 71.57881927490234 272.2195129394531 83.9123764038086 C 298.6678771972656 91.25699615478516 305.52301025390625 101.16372680664062 364.7756652832031 122.21434783935547" stroke-width="0.0" fill="rgb(159, 82, 16)" opacity="0.89024645" stroke="rgb(0, 0, 0)" stroke-opacity="1.0" stroke-linecap="round" stroke-linejoin="round"/>
    <path d="M 276.74853515625 146.25167846679688 C 314.29486083984375 169.4446258544922 305.9937744140625 160.57513427734375 302.5026550292969 191.525390625 C 277.5279846191406 195.7142333984375 282.20538330078125 195.09066772460938 298.02850341796875 174.00062561035156 C 273.9856262207031 127.79312133789062 273.0929260253906 147.50259399414062 265.4034423828125 176.2200469970703 C 282.84039306640625 162.21939086914062 272.9939880371094 141.43472290039062 276.74853515625 146.25167846679688" stroke-width="0.0" fill="rgb(107, 158, 0)" opacity="0.0" stroke="rgb(0, 0, 0)" stroke-opacity="1.0" stroke-linecap="round" stroke-linejoin="round"/>
    <path d="M 220.9739532470703 397.450439453125 C 231.9957275390625 420.0556945800781 237.6437225341797 428.29638671875 190.71530151367188 447.8569641113281 C 140.24867248535156 448.8503112792969 172.50364685058594 421.4373779296875 194.6561279296875 392.0290832519531 C 189.80252075195312 364.8464660644531 198.01922607421875 389.629638671875 206.86558532714844 377.2821044921875 C 200.56430053710938 372.5023498535156 202.5030975341797 390.2631530761719 220.9739532470703 397.450439453125" stroke-width="0.0" fill="rgb(255, 98, 30)" opacity="0.8723645" stroke="rgb(0, 0, 0)" stroke-opacity="1.0" stroke-linecap="round" stroke-linejoin="round"/>
    <path d="M 387.38543701171875 387.88201904296875 C 371.1874694824219 414.861083984375 353.58758544921875 441.7685241699219 340.9119873046875 455.58123779296875 C 286.0673522949219 461.81500244140625 229.83380126953125 455.05364990234375 259.31121826171875 398.8258972167969 C 300.1939697265625 403.2307434082031 355.14306640625 401.8880310058594 379.98876953125 328.7283935546875 C 407.9197082519531 312.236572265625 394.72528076171875 340.8893737792969 387.38543701171875 387.88201904296875" stroke-width="0.0" fill="rgb(255, 99, 20)" opacity="0.98513615" stroke="rgb(0, 0, 0)" stroke-opacity="1.0" stroke-linecap="round" stroke-linejoin="round"/>
    <path d="M 255.3350830078125 271.5055236816406 C 262.2615051269531 290.710693359375 244.99964904785156 302.1966857910156 239.92239379882812 290.6665954589844 C 239.75894165039062 274.35858154296875 226.3328094482422 277.1306457519531 230.7460479736328 214.50987243652344 C 256.8807678222656 255.9882049560547 219.9628448486328 231.97653198242188 226.35296630859375 221.68226623535156 C 265.40509033203125 232.4408721923828 266.2038879394531 251.86001586914062 255.3350830078125 271.5055236816406" stroke-width="0.0" fill="rgb(246, 136, 35)" opacity="0.10690611" stroke="rgb(0, 0, 0)" stroke-opacity="1.0" stroke-linecap="round" stroke-linejoin="round"/>
    <path d="M 206.74476623535156 348.32867431640625 C 213.10284423828125 365.2341003417969 226.60189819335938 343.990478515625 185.97149658203125 355.9398193359375 C 179.0579071044922 323.0087585449219 191.11676025390625 333.4168701171875 171.60836791992188 334.0274658203125 C 127.17362213134766 332.0833435058594 138.28578186035156 354.87591552734375 186.2332305908203 341.7823181152344 C 154.82186889648438 330.0429382324219 171.5134735107422 346.7378845214844 206.74476623535156 348.32867431640625" stroke-width="0.0" fill="rgb(242, 116, 152)" opacity="0.06332408" stroke="rgb(0, 0, 0)" stroke-opacity="1.0" stroke-linecap="round" stroke-linejoin="round"/>
    <path d="M 280.3290710449219 318.697998046875 C 292.8680725097656 338.6180419921875 305.2952880859375 331.6034851074219 288.1304626464844 331.2848815917969 C 232.0855255126953 331.9307556152344 237.58843994140625 334.0679931640625 244.34103393554688 321.4963684082031 C 253.1488037109375 299.55816650390625 261.037353515625 286.343017578125 268.2651062011719 285.9793701171875 C 257.02496337890625 286.53302001953125 261.75921630859375 297.0594482421875 280.3290710449219 318.697998046875" stroke-width="0.0" fill="rgb(23, 19, 142)" opacity="0.927118" stroke="rgb(0, 0, 0)" stroke-opacity="1.0" stroke-linecap="round" stroke-linejoin="round"/>
    <path d="M 335.3908996582031 117.81999206542969 C 337.1802062988281 109.91600036621094 332.6549377441406 111.1380615234375 335.3703918457031 120.77278137207031 C 347.7252502441406 112.5182876586914 335.2837829589844 104.4359130859375 342.52484130859375 79.75874328613281 C 330.6116027832031 69.8370590209961 326.8638000488281 82.90209197998047 316.5632019042969 83.53333282470703 C 301.1254577636719 113.52073669433594 314.9746398925781 122.88481140136719 335.3908996582031 117.81999206542969" stroke-width="0.0" fill="rgb(156, 104, 2)" opacity="0.889956" stroke="rgb(0, 0, 0)" stroke-opacity="1.0" stroke-linecap="round" stroke-linejoin="round"/>
    <path d="M 305.2090148925781 239.11282348632812 C 301.3251953125 226.95697021484375 289.0517883300781 243.77761840820312 272.81524658203125 238.47607421875 C 257.2795104980469 238.33485412597656 245.2544403076172 245.3036346435547 254.45654296875 216.5242156982422 C 251.2218017578125 185.1042022705078 264.0182800292969 181.34202575683594 299.22576904296875 174.28160095214844 C 286.4360046386719 214.95030212402344 281.5064392089844 226.09344482421875 305.2090148925781 239.11282348632812" stroke-width="0.0" fill="rgb(254, 96, 0)" opacity="0.58618605" stroke="rgb(0, 0, 0)" stroke-opacity="1.0" stroke-linecap="round" stroke-linejoin="round"/>
    <path d="M 327.13751220703125 270.23095703125 C 293.0503234863281 242.16802978515625 242.2419891357422 257.3610534667969 233.81936645507812 271.3559875488281 C 268.9869689941406 277.0609436035156 253.40257263183594 270.1610107421875 259.6758728027344 281.67041015625 C 264.367919921875 243.1062774658203 262.74652099609375 233.65640258789062 283.3545837402344 252.05606079101562 C 290.2510681152344 254.4578857421875 281.4156188964844 286.0326843261719 327.13751220703125 270.23095703125" stroke-width="0.0" fill="rgb(252, 103, 63)" opacity="0.47583604" stroke="rgb(0, 0, 0)" stroke-opacity="1.0" stroke-linecap="round" stroke-linejoin="round"/>
    <path d="M 362.2171630859375 179.8939971923828 C 324.0059509277344 172.38011169433594 385.3079833984375 218.43524169921875 388.5389404296875 279.36572265625 C 365.23614501953125 225.6320037841797 347.31640625 207.83163452148438 347.4459533691406 194.93104553222656 C 340.3669128417969 173.097900390625 315.7328796386719 176.3988494873047 325.8765563964844 187.2987060546875 C 357.58599853515625 207.18418884277344 378.1257019042969 207.11972045898438 362.2171630859375 179.8939971923828" stroke-width="0.0" fill="rgb(255, 240, 76)" opacity="0.28044334" stroke="rgb(0, 0, 0)" stroke-opacity="1.0" stroke-linecap="round" stroke-linejoin="round"/>
    <path d="M 79.88117218017578 462.5497741699219 C 84.32476806640625 465.35675048828125 81.13362121582031 457.9930725097656 82.51703643798828 461.0278015136719 C 81.48775482177734 456.6224670410156 73.27057647705078 444.2082824707031 63.73307418823242 440.4822998046875 C 51.88420486450195 422.7120056152344 55.453887939453125 432.9090881347656 64.40689849853516 436.7519226074219 C 68.95536804199219 442.514404296875 78.9044189453125 449.64837646484375 79.88117218017578 462.5497741699219" stroke-width="0.0" fill="rgb(36, 61, 159)" opacity="0.34274274" stroke="rgb(0, 0, 0)" stroke-opacity="1.0" stroke-linecap="round" stroke-linejoin="round"/>
    <path d="M 216.2387237548828 340.9219055175781 C 210.31405639648438 362.9984436035156 222.39166259765625 367.4895935058594 211.67654418945312 355.1207580566406 C 199.60964965820312 359.83905029296875 208.9970245361328 349.4715270996094 202.1807861328125 341.5179748535156 C 204.15216064453125 329.4825439453125 194.26458740234375 332.355224609375 217.0519561767578 296.1911315917969 C 235.556640625 303.7265625 227.3714599609375 311.9756164550781 216.2387237548828 340.9219055175781" stroke-width="0.0" fill="rgb(255, 236, 60)" opacity="0.6136404" stroke="rgb(0, 0, 0)" stroke-opacity="1.0" stroke-linecap="round" stroke-linejoin="round"/>
    <path d="M 31.468610763549805 316.622314453125 C 34.15022277832031 325.5503234863281 36.57101821899414 324.4330749511719 33.30216979980469 322.481201171875 C 35.68842315673828 324.25311279296875 34.70945358276367 327.06072998046875 32.14868927001953 317.908203125 C 31.52394676208496 315.3460388183594 28.541095733642578 306.4273986816406 31.244979858398438 294.8590393066406 C 29.63422966003418 302.0921630859375 31.088029861450195 311.3160400390625 31.468610763549805 316.622314453125" stroke-width="0.0" fill="rgb(1, 87, 106)" opacity="0.46117625" stroke="rgb(0, 0, 0)" stroke-opacity="1.0" stroke-linecap="round" stroke-linejoin="round"/>
    <path d="M 132.36981201171875 421.3177795410156 C 116.67487335205078 439.8927001953125 102.43751525878906 449.8788146972656 103.34881591796875 456.4178466796875 C 107.45380401611328 448.4208068847656 103.52759552001953 453.38604736328125 108.75617980957031 451.1786804199219 C 110.65264892578125 448.4179382324219 114.87515258789062 436.8912353515625 130.52444458007812 440.046875 C 112.84962463378906 432.36920166015625 129.1389923095703 432.15106201171875 132.36981201171875 421.3177795410156" stroke-width="0.0" fill="rgb(63, 47, 129)" opacity="0.23837718" stroke="rgb(0, 0, 0)" stroke-opacity="1.0" stroke-linecap="round" stroke-linejoin="round"/>
    <path d="M 464.4275817871094 50.401485443115234 C 484.4715881347656 63.251712799072266 483.6226806640625 71.71021270751953 462.7658386230469 78.9822998046875 C 458.3695068359375 94.51248931884766 470.5937805175781 104.7242431640625 477.40313720703125 88.1735610961914 C 483.3824768066406 67.31745910644531 476.020751953125 53.568321228027344 476.49896240234375 80.75347900390625 C 489.6982116699219 61.918357849121094 467.36883544921875 53.307472229003906 464.4275817871094 50.401485443115234" stroke-width="0.0" fill="rgb(72, 42, 179)" opacity="0.020382753" stroke="rgb(0, 0, 0)" stroke-opacity="1.0" stroke-linecap="round" stroke-linejoin="round"/>
    <path d="M 81.56366729736328 228.96299743652344 C 48.07477569580078 232.40553283691406 38.65300750732422 235.62680053710938 25.824432373046875 223.84059143066406 C 24.128398895263672 216.239990234375 20.934701919555664 203.82847595214844 30.818010330200195 206.75865173339844 C 22.933500289916992 188.52943420410156 21.909868240356445 210.2596435546875 18.195751190185547 196.52371215820312 C 76.45211791992188 179.21226501464844 76.35150146484375 173.78720092773438 81.56366729736328 228.96299743652344" stroke-width="0.0" fill="rgb(43, 49, 167)" opacity="0.08837907" stroke="rgb(0, 0, 0)" stroke-opacity="1.0" stroke-linecap="round" stroke-linejoin="round"/>
    <path d="M 290.2427673339844 364.4076843261719 C 277.48016357421875 388.3816223144531 279.8414611816406 382.14556884765625 281.3709716796875 389.24017333984375 C 296.0538024902344 358.0750427246094 293.0844421386719 352.3282470703125 283.0340270996094 346.9385681152344 C 285.58038330078125 343.7493896484375 294.6319580078125 330.8348693847656 315.2357482910156 292.4260559082031 C 292.10321044921875 286.8517761230469 307.8019714355469 339.30487060546875 290.2427673339844 364.4076843261719" stroke-width="0.0" fill="rgb(221, 209, 0)" opacity="0.03502864" stroke="rgb(0, 0, 0)" stroke-opacity="1.0" stroke-linecap="round" stroke-linejoin="round"/>
    <path d="M 381.8203125 431.3504943847656 C 398.70562744140625 467.3153991699219 403.28778076171875 465.0321960449219 306.0980529785156 464.80975341796875 C 312.96112060546875 475.3896484375 342.4070739746094 432.2329406738281 393.6427917480469 445.220458984375 C 344.9383239746094 478.2828369140625 367.4461669921875 447.2620849609375 367.4969482421875 450.85833740234375 C 393.0783386230469 441.9992370605469 410.726806640625 429.4353942871094 381.8203125 431.3504943847656" stroke-width="0.0" fill="rgb(172, 58, 126)" opacity="5.0442086e-05" stroke="rgb(0, 0, 0)" stroke-opacity="1.0" stroke-linecap="round" stroke-linejoin="round"/>
    <path d="M 338.3148193359375 401.8870544433594 C 366.1110534667969 430.09619140625 373.1348876953125 469.0224914550781 328.0096130371094 441.72998046875 C 338.1429138183594 428.3561096191406 340.8128356933594 411.3006896972656 326.183837890625 414.8078308105469 C 325.96624755859375 422.8597717285156 356.6051025390625 448.1938781738281 361.302978515625 461.3497314453125 C 385.69561767578125 377.35430908203125 406.1735534667969 405.8481750488281 338.3148193359375 401.8870544433594" stroke-width="0.0" fill="rgb(247, 100, 66)" opacity="0.16341724" stroke="rgb(0, 0, 0)" stroke-opacity="1.0" stroke-linecap="round" stroke-linejoin="round"/>
    <path d="M 417.1164245605469 67.39974212646484 C 415.6203308105469 79.35995483398438 411.2515563964844 86.16705322265625 413.8335266113281 79.37937927246094 C 412.0585632324219 84.93913269042969 413.74957275390625 82.4678955078125 415.4812316894531 75.15050506591797 C 414.4562072753906 85.31724548339844 416.82763671875 70.77915954589844 414.68359375 69.62936401367188 C 415.4187316894531 69.68769836425781 414.47369384765625 83.13179779052734 417.1164245605469 67.39974212646484" stroke-width="0.0" fill="rgb(14, 98, 83)" opacity="0.6373138" stroke="rgb(0, 0, 0)" stroke-opacity="1.0" stroke-linecap="round" stroke-linejoin="round"/>
    <path d="M 56.786903381347656 59.569244384765625 C 61.017574310302734 102.42101287841797 53.68914794921875 90.80509948730469 10.324559211730957 101.88040161132812 C -13.365723609924316 102.58856964111328 -21.48133087158203 103.84005737304688 -6.694465160369873 82.34272766113281 C 26.122541427612305 75.15292358398438 31.509979248046875 69.77180480957031 34.387569427490234 77.66485595703125 C 35.1953239440918 90.89066314697266 38.0191650390625 70.24124145507812 56.786903381347656 59.569244384765625" stroke-width="0.0" fill="rgb(39, 42, 162)" opacity="0.0" stroke="rgb(0, 0, 0)" stroke-opacity="1.0" stroke-linecap="round" stroke-linejoin="round"/>
    <path d="M 22.424747467041016 130.004638671875 C 43.0865364074707 113.96128845214844 45.813812255859375 145.82923889160156 44.89305877685547 158.23695373535156 C 36.6297492980957 151.81036376953125 2.1059494018554688 152.66299438476562 -24.292613983154297 150.40391540527344 C -26.563804626464844 126.39913177490234 -9.56171989440918 125.13096618652344 32.43303680419922 130.21786499023438 C 21.075435638427734 122.44937896728516 28.68345832824707 142.53684997558594 22.424747467041016 130.004638671875" stroke-width="0.0" fill="rgb(65, 39, 189)" opacity="0.024262425" stroke="rgb(0, 0, 0)" stroke-opacity="1.0" stroke-linecap="round" stroke-linejoin="round"/>
    <path d="M 530.1441650390625 265.5122375488281 C 524.947021484375 255.09213256835938 514.3148193359375 244.0213165283203 489.084716796875 238.2180633544922 C 490.22918701171875 263.1037902832031 495.8603515625 264.7893371582031 482.4849853515625 231.88558959960938 C 469.229736328125 214.7838134765625 470.8530578613281 214.284912109375 509.87646484375 219.71322631835938 C 507.70416259765625 199.8295135498047 515.6753540039062 205.20033264160156 530.1441650390625 265.5122375488281" stroke-width="0.0" fill="rgb(43, 11, 169)" opacity="0.0054342584" stroke="rgb(0, 0, 0)" stroke-opacity="1.0" stroke-linecap="round" stroke-linejoin="round"/>
    <path d="M 322.6515197753906 19.328248977661133 C 328.4572448730469 91.90271759033203 316.9217834472656 105.77208709716797 300.9932556152344 59.29433822631836 C 303.5270080566406 32.57442855834961 296.37060546875 43.31798553466797 299.638427734375 39.678619384765625 C 285.88848876953125 28.863985061645508 287.5120544433594 31.74734115600586 286.9780578613281 52.424556732177734 C 291.3446350097656 68.776123046875 299.5167236328125 42.1314811706543 322.6515197753906 19.328248977661133" stroke-width="0.0" fill="rgb(74, 52, 157)" opacity="0.0009515374" stroke="rgb(0, 0, 0)" stroke-opacity="1.0" stroke-linecap="round" stroke-linejoin="round"/>
    <path d="M 456.94781494140625 278.0863037109375 C 450.32293701171875 300.2638244628906 457.6964111328125 321.2713623046875 456.4515686035156 322.8021545410156 C 418.9259948730469 270.2298278808594 404.32183837890625 279.0122375488281 385.5141906738281 265.7818908691406 C 413.2279357910156 264.55120849609375 464.9587707519531 253.2184600830078 441.4936828613281 247.40313720703125 C 425.3266296386719 242.57339477539062 451.0845642089844 248.74984741210938 456.94781494140625 278.0863037109375" stroke-width="0.0" fill="rgb(253, 23, 0)" opacity="0.0" stroke="rgb(0, 0, 0)" stroke-opacity="1.0" stroke-linecap="round" stroke-linejoin="round"/>
    <path d="M 549.38525390625 149.83740234375 C 557.7424926757812 171.84573364257812 554.3988647460938 171.77655029296875 503.0443115234375 165.67002868652344 C 507.873291015625 162.27052307128906 499.6958923339844 129.01673889160156 493.62261962890625 130.50543212890625 C 499.0869445800781 129.8660430908203 490.23529052734375 136.78607177734375 516.4804077148438 139.21719360351562 C 520.5720825195312 111.61329650878906 523.3575439453125 117.5732192993164 549.38525390625 149.83740234375" stroke-width="0.0" fill="rgb(50, 28, 136)" opacity="0.045917727" stroke="rgb(0, 0, 0)" stroke-opacity="1.0" stroke-linecap="round" stroke-linejoin="round"/>
    <path d="M 528.4974365234375 164.07888793945312 C 528.4251098632812 177.85980224609375 526.9271850585938 191.3303985595703 515.8516235351562 183.19644165039062 C 487.88433837890625 175.3737335205078 477.6458435058594 171.22146606445312 488.6180419921875 189.37796020507812 C 491.1248474121094 158.23416137695312 512.2183227539062 162.21287536621094 538.93310546875 160.3958282470703 C 517.7416381835938 147.39990234375 525.1123657226562 154.182373046875 528.4974365234375 164.07888793945312" stroke-width="0.0" fill="rgb(46, 34, 137)" opacity="0.0" stroke="rgb(0, 0, 0)" stroke-opacity="1.0" stroke-linecap="round" stroke-linejoin="round"/>
    <path d="M 75.8868408203125 363.77252197265625 C 84.88235473632812 396.33587646484375 80.6876220703125 391.8444519042969 68.07621765136719 377.4928894042969 C 62.978702545166016 356.40869140625 58.17704391479492 352.5656433105469 64.62774658203125 356.22564697265625 C 61.44124221801758 361.2674865722656 55.815513610839844 354.8296813964844 58.2628173828125 358.47601318359375 C 54.44469451904297 358.05419921875 69.57160949707031 354.0264587402344 75.8868408203125 363.77252197265625" stroke-width="0.0" fill="rgb(51, 63, 177)" opacity="0.40461794" stroke="rgb(0, 0, 0)" stroke-opacity="1.0" stroke-linecap="round" stroke-linejoin="round"/>
    <path d="M 356.5225830078125 240.1728057861328 C 335.91680908203125 293.72906494140625 304.926513671875 295.265625 281.4409484863281 279.3855285644531 C 304.6385192871094 266.5631103515625 310.98577880859375 277.4030456542969 330.52435302734375 265.2996520996094 C 310.5222473144531 273.5601501464844 310.60174560546875 267.6923828125 327.1024475097656 247.64468383789062 C 325.7685546875 230.03164672851562 327.05322265625 243.17539978027344 356.5225830078125 240.1728057861328" stroke-width="0.0" fill="rgb(200, 219, 0)" opacity="0.013171567" stroke="rgb(0, 0, 0)" stroke-opacity="1.0" stroke-linecap="round" stroke-linejoin="round"/>
    <path d="M 520.8428955078125 134.23948669433594 C 489.6350402832031 131.36654663085938 472.01690673828125 135.7908935546875 491.2021179199219 130.309326171875 C 502.15423583984375 144.03639221191406 482.8333435058594 134.34889221191406 489.23583984375 130.25523376464844 C 488.56011962890625 135.88385009765625 495.98602294921875 122.2513427734375 487.64990234375 127.27185821533203 C 492.0919189453125 129.94677734375 524.467041015625 122.86921691894531 520.8428955078125 134.23948669433594" stroke-width="0.0" fill="rgb(38, 26, 162)" opacity="0.035151888" stroke="rgb(0, 0, 0)" stroke-opacity="1.0" stroke-linecap="round" stroke-linejoin="round"/>
    <path d="M 467.86590576171875 429.9751281738281 C 472.08831787109375 450.85443115234375 474.6296081542969 460.6497497558594 467.71856689453125 460.1121826171875 C 450.81524658203125 482.81988525390625 462.47064208984375 463.2909851074219 440.8159484863281 452.98193359375 C 433.433837890625 440.65802001953125 440.7398681640625 436.9754943847656 465.99298095703125 446.0088806152344 C 481.4604187011719 432.2397155761719 485.6939697265625 436.3885803222656 467.86590576171875 429.9751281738281" stroke-width="0.0" fill="rgb(53, 44, 138)" opacity="0.0066293958" stroke="rgb(0, 0, 0)" stroke-opacity="1.0" stroke-linecap="round" stroke-linejoin="round"/>
    <path d="M 523.59912109375 348.48974609375 C 537.6992797851562 415.21563720703125 537.4110107421875 432.5771789550781 465.4035949707031 428.88623046875 C 497.8032531738281 391.6690979003906 451.5306701660156 427.86419677734375 450.3724060058594 400.79583740234375 C 474.2760925292969 377.5873107910156 457.2322692871094 364.8292236328125 466.38677978515625 359.0895080566406 C 462.78814697265625 368.7395324707031 481.2384338378906 355.7068786621094 523.59912109375 348.48974609375" stroke-width="0.0" fill="rgb(28, 59, 133)" opacity="0.01381572" stroke="rgb(0, 0, 0)" stroke-opacity="1.0" stroke-linecap="round" stroke-linejoin="round"/>
    <path d="M 135.92449951171875 422.8206787109375 C 144.74925231933594 481.115234375 184.8174285888672 463.4971923828125 157.01129150390625 461.8865661621094 C 123.83391571044922 445.8063659667969 103.85845947265625 447.6032409667969 108.44952392578125 427.2663269042969 C 131.23831176757812 423.477294921875 143.5579833984375 409.57843017578125 134.4429168701172 407.76922607421875 C 146.5634765625 418.1429748535156 153.98341369628906 420.5408020019531 135.92449951171875 422.8206787109375" stroke-width="0.0" fill="rgb(96, 40, 205)" opacity="0.0" stroke="rgb(0, 0, 0)" stroke-opacity="1.0" stroke-linecap="round" stroke-linejoin="round"/>
    <path d="M 131.41751098632812 181.23887634277344 C 120.6495590209961 175.51315307617188 94.67742156982422 162.64598083496094 96.1077651977539 170.1770477294922 C 90.87735748291016 172.96876525878906 80.53620147705078 159.69020080566406 93.67730712890625 148.95272827148438 C 90.65957641601562 149.1522674560547 74.79249572753906 139.1642608642578 68.41962432861328 115.30474090576172 C 139.2060546875 96.1072769165039 136.97860717773438 105.143798828125 131.41751098632812 181.23887634277344" stroke-width="0.0" fill="rgb(55, 51, 140)" opacity="0.16161974" stroke="rgb(0, 0, 0)" stroke-opacity="1.0" stroke-linecap="round" stroke-linejoin="round"/>
    <path d="M 176.55361938476562 108.71886444091797 C 174.76731872558594 115.9112319946289 176.0608367919922 128.38270568847656 176.8082733154297 130.45877075195312 C 175.54937744140625 120.45687866210938 175.3426971435547 120.88247680664062 175.9388427734375 134.45339965820312 C 176.25865173339844 128.2837371826172 174.5707550048828 114.74464416503906 175.93392944335938 107.7193374633789 C 173.16697692871094 111.81156158447266 175.87557983398438 106.71636962890625 176.55361938476562 108.71886444091797" stroke-width="0.0" fill="rgb(17, 73, 121)" opacity="0.4733281" stroke="rgb(0, 0, 0)" stroke-opacity="1.0" stroke-linecap="round" stroke-linejoin="round"/>
    <path d="M 165.74806213378906 413.814208984375 C 169.09080505371094 422.9534606933594 199.75003051757812 448.9950866699219 180.81686401367188 438.88018798828125 C 152.55335998535156 416.3164367675781 156.27774047851562 385.6873474121094 162.3674774169922 378.4365234375 C 144.23477172851562 360.05865478515625 152.59083557128906 365.7357177734375 156.48959350585938 376.0865173339844 C 159.81356811523438 392.1983642578125 167.1952667236328 409.9228210449219 165.74806213378906 413.814208984375" stroke-width="0.0" fill="rgb(238, 106, 6)" opacity="0.47096723" stroke="rgb(0, 0, 0)" stroke-opacity="1.0" stroke-linecap="round" stroke-linejoin="round"/>
    <path d="M 449.41473388671875 115.47407531738281 C 447.3466491699219 112.49153900146484 444.1448669433594 126.40693664550781 441.7428283691406 141.54586791992188 C 431.1954040527344 146.67477416992188 427.7987976074219 143.4288330078125 429.9417724609375 135.09201049804688 C 434.6924133300781 128.93125915527344 448.933837890625 120.81746673583984 456.74993896484375 123.9295425415039 C 447.6629333496094 122.68754577636719 449.2101135253906 122.11811065673828 449.41473388671875 115.47407531738281" stroke-width="0.0" fill="rgb(32, 47, 147)" opacity="0.40206972" stroke="rgb(0, 0, 0)" stroke-opacity="1.0" stroke-linecap="round" stroke-linejoin="round"/>
    <path d="M 199.78280639648438 330.08807373046875 C 223.50514221191406 305.4944152832031 255.4756622314453 303.9290466308594 275.7289123535156 325.1852111816406 C 212.29603576660156 340.9543151855469 222.5137939453125 349.05706787109375 215.52767944335938 333.32684326171875 C 243.155029296875 310.7189636230469 278.50714111328125 319.33209228515625 266.89794921875 329.0017395019531 C 253.7501678466797 317.8726806640625 233.9796600341797 361.6332702636719 199.78280639648438 330.08807373046875" stroke-width="0.0" fill="rgb(254, 87, 35)" opacity="0.0024021151" stroke="rgb(0, 0, 0)" stroke-opacity="1.0" stroke-linecap="round" stroke-linejoin="round"/>
    <path d="M 220.654541015625 483.9234924316406 C 180.73777770996094 468.8428039550781 160.9843292236328 489.7615966796875 130.16014099121094 476.3565673828125 C 138.0994415283203 505.3177185058594 140.44400024414062 515.4105834960938 153.3396759033203 528.9392700195312 C 148.3598175048828 502.71478271484375 140.5213623046875 483.70184326171875 116.577392578125 488.88677978515625 C 144.41195678710938 502.0016784667969 219.53964233398438 501.2633056640625 220.654541015625 483.9234924316406" stroke-width="0.0" fill="rgb(46, 75, 108)" opacity="0.057610445" stroke="rgb(0, 0, 0)" stroke-opacity="1.0" stroke-linecap="round" stroke-linejoin="round"/>
    <path d="M 466.2943115234375 416.1278991699219 C 478.2465515136719 388.63433837890625 476.5160827636719 413.3460388183594 472.0810852050781 419.8275451660156 C 452.4103088378906 407.6414489746094 452.13824462890625 395.5484313964844 425.100830078125 421.69342041015625 C 414.4355773925781 376.6054382324219 436.1406555175781 355.6881103515625 458.3277282714844 380.1373596191406 C 468.7220764160156 373.8540344238281 464.2613525390625 383.4380187988281 466.2943115234375 416.1278991699219" stroke-width="0.0" fill="rgb(73, 53, 118)" opacity="0.0" stroke="rgb(0, 0, 0)" stroke-opacity="1.0" stroke-linecap="round" stroke-linejoin="round"/>
    <path d="M 295.5224914550781 97.29354858398438 C 273.59033203125 99.71526336669922 283.64501953125 105.52689361572266 290.66278076171875 101.05279541015625 C 291.3206787109375 119.71638488769531 236.78175354003906 119.63971710205078 229.79798889160156 104.38384246826172 C 260.4797058105469 104.26190185546875 281.3142395019531 92.30915832519531 315.1654357910156 113.12113952636719 C 318.0597229003906 118.49130249023438 296.3091735839844 115.44554138183594 295.5224914550781 97.29354858398438" stroke-width="0.0" fill="rgb(190, 43, 28)" opacity="0.025594931" stroke="rgb(0, 0, 0)" stroke-opacity="1.0" stroke-linecap="round" stroke-linejoin="round"/>
    <path d="M 384.5566101074219 31.03208351135254 C 381.3299255371094 44.73764419555664 362.7360534667969 43.288822174072266 367.96563720703125 48.523536682128906 C 367.2906799316406 53.48723220825195 352.0179748535156 46.03025436401367 395.98553466796875 67.00161743164062 C 386.9425354003906 28.022865295410156 366.7694091796875 34.105411529541016 375.6523742675781 36.196720123291016 C 374.5907897949219 54.30550003051758 391.75177001953125 54.41582489013672 384.5566101074219 31.03208351135254" stroke-width="0.0" fill="rgb(18, 36, 172)" opacity="0.0007215552" stroke="rgb(0, 0, 0)" stroke-opacity="1.0" stroke-linecap="round" stroke-linejoin="round"/>
  </g>
</svg>
