<?xml version="1.0" ?>
<svg xmlns="http://www.w3.org/2000/svg" version="1.1" width="512" height="512">
  <defs/>
  <g>
    <path d="M 535.5755615234375 456.7292785644531 C 547.5283813476562 517.9119262695312 549.3453369140625 525.8387451171875 385.3958435058594 531.1290283203125 C 318.15032958984375 563.0292358398438 289.2483215332031 563.0621337890625 281.306884765625 508.62554931640625 C 300.2525329589844 322.8265686035156 370.498291015625 323.1944885253906 464.14752197265625 303.7381286621094 C 558.7865600585938 315.4428405761719 561.6617431640625 335.862548828125 535.5755615234375 456.7292785644531" stroke-width="0.0" fill="rgb(44, 206, 176)" opacity="0.85420203" stroke="rgb(0, 0, 0)" stroke-opacity="1.0" stroke-linecap="round" stroke-linejoin="round"/>
    <path d="M 342.54254150390625 397.72698974609375 C 298.53814697265625 529.5538940429688 309.0923156738281 547.5415649414062 180.7264862060547 551.308837890625 C -51.20000076293945 519.8477783203125 -51.20000076293945 512.7622680664062 -25.460819244384766 456.794921875 C -9.812960624694824 203.7610626220703 -7.847853660583496 180.5283203125 60.896175384521484 187.03518676757812 C 115.64835357666016 392.7809753417969 171.70436096191406 357.3769836425781 342.54254150390625 397.72698974609375" stroke-width="0.0" fill="rgb(30, 214, 165)" opacity="0.7820549" stroke="rgb(0, 0, 0)" stroke-opacity="1.0" stroke-linecap="round" stroke-linejoin="round"/>
    <path d="M 219.79293823242188 209.7730712890625 C 201.0779266357422 447.65155029296875 223.61834716796875 353.66668701171875 198.66441345214844 387.6192321777344 C 44.48493576049805 336.287353515625 25.718120574951172 344.4982604980469 15.076171875 183.28665161132812 C 13.124402046203613 171.12188720703125 114.62255859375 74.37922668457031 107.1567153930664 220.7213134765625 C 62.019996643066406 276.9800109863281 197.90628051757812 328.3000793457031 219.79293823242188 209.7730712890625" stroke-width="0.0" fill="rgb(0, 0, 28)" opacity="1.0" stroke="rgb(0, 0, 0)" stroke-opacity="1.0" stroke-linecap="round" stroke-linejoin="round"/>
    <path d="M 245.15036010742188 -7.952408790588379 C 232.0991973876953 192.00302124023438 200.56028747558594 148.9539794921875 17.86971092224121 208.6094207763672 C -33.16041564941406 224.35568237304688 -23.36431121826172 200.4203643798828 -10.630346298217773 116.15476989746094 C -26.88894271850586 -8.490645408630371 -12.780694961547852 -24.167957305908203 26.150405883789062 -17.92392921447754 C 195.05523681640625 -22.393009185791016 217.5651092529297 -31.314271926879883 245.15036010742188 -7.952408790588379" stroke-width="0.0" fill="rgb(56, 227, 191)" opacity="0.79214495" stroke="rgb(0, 0, 0)" stroke-opacity="1.0" stroke-linecap="round" stroke-linejoin="round"/>
    <path d="M 542.866943359375 100.55069732666016 C 435.0855712890625 281.0069580078125 406.94964599609375 281.59698486328125 526.01513671875 270.03387451171875 C 416.22454833984375 318.1014404296875 358.32110595703125 225.25193786621094 127.06990051269531 230.86956787109375 C 329.1072082519531 111.19314575195312 170.4958038330078 180.5672607421875 311.22772216796875 17.701969146728516 C 601.8218994140625 5.868151664733887 603.886962890625 9.175305366516113 542.866943359375 100.55069732666016" stroke-width="0.0" fill="rgb(0, 0, 28)" opacity="1.0" stroke="rgb(0, 0, 0)" stroke-opacity="1.0" stroke-linecap="round" stroke-linejoin="round"/>
    <path d="M 203.73997497558594 154.44088745117188 C 167.5745849609375 226.68011474609375 188.071044921875 139.65557861328125 113.74710845947266 218.1277618408203 C 58.96894836425781 239.73968505859375 44.299530029296875 267.348876953125 90.85818481445312 235.6082000732422 C 113.34589385986328 152.1805419921875 109.5242691040039 97.84233093261719 319.8182678222656 8.478455543518066 C 386.46636962890625 59.84982681274414 307.48809814453125 39.66785430908203 203.73997497558594 154.44088745117188" stroke-width="0.0" fill="rgb(0, 0, 23)" opacity="1.0" stroke="rgb(0, 0, 0)" stroke-opacity="1.0" stroke-linecap="round" stroke-linejoin="round"/>
    <path d="M 443.86474609375 292.2621154785156 C 400.9323425292969 389.1958312988281 436.1333923339844 425.9777526855469 209.1188507080078 428.6664733886719 C 183.86431884765625 451.5185241699219 196.84803771972656 461.00030517578125 256.4978942871094 328.52154541015625 C 390.3497314453125 374.287353515625 399.04681396484375 293.5356750488281 326.23541259765625 225.46334838867188 C 436.84271240234375 267.7574157714844 465.12255859375 237.4617156982422 443.86474609375 292.2621154785156" stroke-width="0.0" fill="rgb(0, 0, 32)" opacity="1.0" stroke="rgb(0, 0, 0)" stroke-opacity="1.0" stroke-linecap="round" stroke-linejoin="round"/>
    <path d="M 523.8084716796875 149.27845764160156 C 534.9380493164062 306.3541564941406 528.4430541992188 307.4233093261719 436.7672424316406 382.88067626953125 C 374.076904296875 413.75250244140625 357.3837585449219 377.99713134765625 420.9500732421875 321.88262939453125 C 357.84552001953125 131.93145751953125 312.0740661621094 36.96988296508789 488.0625915527344 21.5318603515625 C 564.45947265625 48.173641204833984 574.3765258789062 74.13184356689453 523.8084716796875 149.27845764160156" stroke-width="0.0" fill="rgb(91, 231, 206)" opacity="1.0" stroke="rgb(0, 0, 0)" stroke-opacity="1.0" stroke-linecap="round" stroke-linejoin="round"/>
    <path d="M 403.27227783203125 235.17652893066406 C 397.7518615722656 276.2599182128906 430.9540100097656 240.76560974121094 392.8116149902344 255.00909423828125 C 374.31903076171875 232.878173828125 310.2076110839844 237.1608123779297 222.21372985839844 200.18557739257812 C 303.375732421875 147.1515655517578 221.69947814941406 94.75084686279297 371.829345703125 78.98917388916016 C 381.36151123046875 170.7924041748047 384.24139404296875 199.4300994873047 403.27227783203125 235.17652893066406" stroke-width="0.0" fill="rgb(64, 248, 180)" opacity="0.9952067" stroke="rgb(0, 0, 0)" stroke-opacity="1.0" stroke-linecap="round" stroke-linejoin="round"/>
    <path d="M 410.10345458984375 285.40106201171875 C 393.4189147949219 287.0586242675781 494.7456970214844 325.3640441894531 432.0723571777344 419.5137023925781 C 219.69439697265625 461.0985412597656 346.35589599609375 487.8923034667969 402.62652587890625 327.7012634277344 C 410.20391845703125 230.2173309326172 369.6296081542969 206.42025756835938 397.3924560546875 227.6533966064453 C 393.3044738769531 249.17906188964844 408.6329040527344 283.198974609375 410.10345458984375 285.40106201171875" stroke-width="0.0" fill="rgb(145, 253, 0)" opacity="1.0" stroke="rgb(0, 0, 0)" stroke-opacity="1.0" stroke-linecap="round" stroke-linejoin="round"/>
    <path d="M 412.3604431152344 79.25888061523438 C 424.6742248535156 223.61083984375 403.461181640625 185.2661895751953 304.3187255859375 159.0668487548828 C 133.9433135986328 26.908246994018555 108.87126159667969 133.45191955566406 101.31285095214844 164.7461700439453 C 75.35484313964844 -31.04054069519043 113.09394073486328 -12.940384864807129 241.73023986816406 -27.4451847076416 C 354.6440734863281 -20.45115852355957 378.0054931640625 -15.478163719177246 412.3604431152344 79.25888061523438" stroke-width="0.0" fill="rgb(93, 233, 198)" opacity="0.9997162" stroke="rgb(0, 0, 0)" stroke-opacity="1.0" stroke-linecap="round" stroke-linejoin="round"/>
    <path d="M 179.36817932128906 358.42431640625 C 186.8340606689453 399.58514404296875 205.36184692382812 424.4342346191406 108.37947082519531 430.72113037109375 C 63.11358642578125 420.1700744628906 98.9548110961914 382.5015563964844 64.99846649169922 387.3465576171875 C 60.568336486816406 316.2027893066406 50.60401153564453 320.37554931640625 171.48712158203125 300.8236999511719 C 170.8478546142578 338.0410461425781 180.42782592773438 325.5760803222656 179.36817932128906 358.42431640625" stroke-width="0.0" fill="rgb(109, 255, 11)" opacity="1.0" stroke="rgb(0, 0, 0)" stroke-opacity="1.0" stroke-linecap="round" stroke-linejoin="round"/>
    <path d="M 530.2105712890625 53.25511169433594 C 539.3358154296875 75.75447845458984 531.6778564453125 74.61368560791016 512.8825073242188 101.01557922363281 C 528.4908447265625 99.59227752685547 480.98223876953125 98.26190185546875 364.6386413574219 82.27701568603516 C 352.0860595703125 -47.251895904541016 357.0252380371094 -60.62874984741211 432.8314208984375 -43.09353256225586 C 541.2061157226562 -10.029305458068848 535.45654296875 7.46136474609375 530.2105712890625 53.25511169433594" stroke-width="0.0" fill="rgb(99, 228, 205)" opacity="1.0" stroke="rgb(0, 0, 0)" stroke-opacity="1.0" stroke-linecap="round" stroke-linejoin="round"/>
    <path d="M 379.4729919433594 448.8838806152344 C 356.9883117675781 516.59033203125 364.17742919921875 535.1574096679688 232.7517547607422 550.7100830078125 C 161.48037719726562 528.7139282226562 163.32992553710938 514.0694580078125 184.4858856201172 430.5354309082031 C 203.9502410888672 375.522705078125 235.86561584472656 379.5422058105469 255.57330322265625 384.9704284667969 C 307.6229248046875 359.35931396484375 312.3318176269531 367.28125 379.4729919433594 448.8838806152344" stroke-width="0.0" fill="rgb(73, 213, 190)" opacity="0.98999125" stroke="rgb(0, 0, 0)" stroke-opacity="1.0" stroke-linecap="round" stroke-linejoin="round"/>
    <path d="M 235.53628540039062 342.7825927734375 C 180.7949676513672 329.0355224609375 199.70892333984375 283.6554870605469 173.49227905273438 309.8218688964844 C 168.73532104492188 341.1611022949219 170.08047485351562 341.5596923828125 167.33639526367188 312.82830810546875 C 226.41600036621094 276.0375061035156 172.8611602783203 276.0453796386719 211.73294067382812 222.76205444335938 C 248.3947296142578 218.65223693847656 244.3589324951172 226.73744201660156 235.53628540039062 342.7825927734375" stroke-width="0.0" fill="rgb(253, 245, 218)" opacity="0.9993622" stroke="rgb(0, 0, 0)" stroke-opacity="1.0" stroke-linecap="round" stroke-linejoin="round"/>
    <path d="M 487.12890625 449.2033996582031 C 486.9549255371094 494.8995666503906 424.2033996582031 451.1067810058594 365.6411437988281 471.9908752441406 C 314.96783447265625 493.01690673828125 299.0914306640625 510.98760986328125 289.93499755859375 411.2149658203125 C 284.2967529296875 382.836669921875 336.9972229003906 411.2095031738281 336.4296569824219 439.8235168457031 C 424.1579895019531 446.4684753417969 461.2652282714844 434.1640319824219 487.12890625 449.2033996582031" stroke-width="0.0" fill="rgb(73, 212, 186)" opacity="0.8485779" stroke="rgb(0, 0, 0)" stroke-opacity="1.0" stroke-linecap="round" stroke-linejoin="round"/>
    <path d="M 354.09832763671875 370.3050537109375 C 397.68798828125 450.70733642578125 350.00640869140625 423.5993347167969 187.0018768310547 431.1708984375 C 129.6099090576172 438.76678466796875 137.82826232910156 384.82501220703125 201.4515380859375 381.9879150390625 C 251.94041442871094 363.453857421875 217.78164672851562 378.4329833984375 244.1920623779297 382.3724365234375 C 327.2041320800781 345.5513610839844 337.33111572265625 350.13470458984375 354.09832763671875 370.3050537109375" stroke-width="0.0" fill="rgb(167, 254, 0)" opacity="1.0" stroke="rgb(0, 0, 0)" stroke-opacity="1.0" stroke-linecap="round" stroke-linejoin="round"/>
    <path d="M 164.82847595214844 296.8779602050781 C 223.21604919433594 383.78515625 15.675813674926758 346.49676513671875 122.88577270507812 265.3649597167969 C 73.10790252685547 284.79241943359375 152.63893127441406 332.229248046875 -38.26697540283203 316.71209716796875 C -13.600873947143555 153.26734924316406 3.9751434326171875 97.42378997802734 130.04640197753906 94.16090393066406 C -20.205411911010742 376.9095458984375 162.2855682373047 294.80877685546875 164.82847595214844 296.8779602050781" stroke-width="0.0" fill="rgb(81, 254, 175)" opacity="1.0" stroke="rgb(0, 0, 0)" stroke-opacity="1.0" stroke-linecap="round" stroke-linejoin="round"/>
    <path d="M 106.9913101196289 295.8489074707031 C 76.68907928466797 306.2436828613281 104.2410659790039 327.2066955566406 90.6535415649414 315.9866943359375 C 94.58186340332031 306.6961364746094 79.8200454711914 320.2109375 60.216129302978516 315.65093994140625 C 33.26436233520508 315.1332092285156 60.56627655029297 306.888671875 102.54178619384766 273.0806884765625 C 128.21640014648438 254.31361389160156 129.19082641601562 288.3735046386719 106.9913101196289 295.8489074707031" stroke-width="0.0" fill="rgb(9, 16, 70)" opacity="0.98683476" stroke="rgb(0, 0, 0)" stroke-opacity="1.0" stroke-linecap="round" stroke-linejoin="round"/>
    <path d="M 210.73989868164062 155.6151123046875 C 248.6536102294922 156.9048614501953 272.2242431640625 125.70392608642578 198.3222198486328 123.04086303710938 C 153.54208374023438 154.76608276367188 179.31373596191406 172.24200439453125 156.5255889892578 165.08538818359375 C 148.94630432128906 83.58423614501953 230.79946899414062 122.48303985595703 216.11032104492188 145.4891357421875 C 183.82833862304688 171.1410369873047 230.86569213867188 144.0404510498047 210.73989868164062 155.6151123046875" stroke-width="0.0" fill="rgb(255, 218, 45)" opacity="1.0" stroke="rgb(0, 0, 0)" stroke-opacity="1.0" stroke-linecap="round" stroke-linejoin="round"/>
    <path d="M 363.7990417480469 338.20416259765625 C 347.90155029296875 394.880126953125 333.4063415527344 352.6127624511719 272.76123046875 369.83184814453125 C 279.2400817871094 361.973388671875 250.77578735351562 390.04315185546875 269.16461181640625 354.79974365234375 C 258.4287414550781 350.2710266113281 283.12713623046875 356.9089660644531 294.8065490722656 361.94183349609375 C 331.9470520019531 322.36053466796875 385.2178039550781 232.48541259765625 363.7990417480469 338.20416259765625" stroke-width="0.0" fill="rgb(170, 223, 76)" opacity="0.9618206" stroke="rgb(0, 0, 0)" stroke-opacity="1.0" stroke-linecap="round" stroke-linejoin="round"/>
    <path d="M 5.587613582611084 524.4996948242188 C 17.577173233032227 520.3109741210938 10.62330150604248 527.7404174804688 0.6356459259986877 530.4232177734375 C -9.364206314086914 527.7437133789062 -16.68471336364746 520.4232177734375 -19.364206314086914 510.4232177734375 C -16.684602737426758 500.42352294921875 -9.35535717010498 493.13433837890625 -12.058277130126953 503.8512268066406 C -5.482361793518066 509.3287658691406 0.8214172124862671 517.0791015625 5.587613582611084 524.4996948242188" stroke-width="0.0" fill="rgb(57, 62, 75)" opacity="0.17100312" stroke="rgb(0, 0, 0)" stroke-opacity="1.0" stroke-linecap="round" stroke-linejoin="round"/>
    <path d="M 127.49392700195312 141.97970581054688 C 122.57282257080078 188.04864501953125 143.17129516601562 156.02635192871094 72.08722686767578 217.82713317871094 C 91.23667907714844 148.0570831298828 106.78489685058594 143.1965789794922 108.69248962402344 147.95193481445312 C 98.89051055908203 153.82241821289062 106.86925506591797 144.04774475097656 95.2755126953125 123.11974334716797 C 141.7615509033203 99.14600372314453 142.38275146484375 73.08550262451172 127.49392700195312 141.97970581054688" stroke-width="0.0" fill="rgb(81, 249, 181)" opacity="1.0" stroke="rgb(0, 0, 0)" stroke-opacity="1.0" stroke-linecap="round" stroke-linejoin="round"/>
    <path d="M 442.4750061035156 276.9917907714844 C 449.38043212890625 270.0105895996094 449.65142822265625 283.94140625 438.95306396484375 316.0110778808594 C 408.44061279296875 323.95196533203125 411.0634765625 314.7896423339844 417.9326171875 289.2987976074219 C 423.01800537109375 251.00376892089844 413.43524169921875 243.14532470703125 449.2265930175781 241.9003448486328 C 445.82037353515625 278.3850402832031 444.0760498046875 283.1087341308594 442.4750061035156 276.9917907714844" stroke-width="0.0" fill="rgb(111, 246, 28)" opacity="0.7055057" stroke="rgb(0, 0, 0)" stroke-opacity="1.0" stroke-linecap="round" stroke-linejoin="round"/>
    <path d="M 489.895751953125 409.80230712890625 C 487.76263427734375 434.4420166015625 489.5504150390625 428.7611999511719 473.8374938964844 441.0753479003906 C 400.88037109375 459.88104248046875 402.8832702636719 452.18914794921875 413.33770751953125 387.6937561035156 C 411.1889953613281 387.1401062011719 458.66900634765625 388.5538635253906 460.4745788574219 388.6233215332031 C 464.01104736328125 388.4986877441406 490.61993408203125 394.7380676269531 489.895751953125 409.80230712890625" stroke-width="0.0" fill="rgb(74, 247, 121)" opacity="0.00014354111" stroke="rgb(0, 0, 0)" stroke-opacity="1.0" stroke-linecap="round" stroke-linejoin="round"/>
    <path d="M 256.11004638671875 149.66966247558594 C 250.55047607421875 137.2991485595703 251.1899871826172 152.8517303466797 241.54449462890625 157.81678771972656 C 242.44744873046875 96.64510345458984 257.9272155761719 117.79134368896484 194.0841827392578 154.69932556152344 C 184.3897705078125 111.8193130493164 235.65895080566406 96.98865509033203 258.8868408203125 96.14456176757812 C 277.86004638671875 91.56034088134766 283.8642883300781 108.10650634765625 256.11004638671875 149.66966247558594" stroke-width="0.0" fill="rgb(0, 0, 31)" opacity="1.0" stroke="rgb(0, 0, 0)" stroke-opacity="1.0" stroke-linecap="round" stroke-linejoin="round"/>
    <path d="M 414.24700927734375 301.8703308105469 C 427.18121337890625 300.65283203125 410.40911865234375 328.24542236328125 416.7560119628906 329.7865295410156 C 393.979736328125 324.56732177734375 401.2394714355469 344.3460998535156 404.7602233886719 356.3572692871094 C 406.4041442871094 315.4366149902344 410.2896423339844 306.1961669921875 408.99554443359375 304.06304931640625 C 405.5626525878906 308.0220031738281 412.982177734375 323.0648498535156 414.24700927734375 301.8703308105469" stroke-width="0.0" fill="rgb(106, 238, 0)" opacity="0.28397873" stroke="rgb(0, 0, 0)" stroke-opacity="1.0" stroke-linecap="round" stroke-linejoin="round"/>
    <path d="M 255.79539489746094 308.205078125 C 249.7344207763672 314.21026611328125 233.03204345703125 333.9761962890625 241.7504425048828 357.1710205078125 C 236.38560485839844 360.4822692871094 208.9222412109375 359.9754943847656 255.3197021484375 337.9793395996094 C 234.4244842529297 321.6771240234375 238.5980682373047 295.67626953125 257.2082824707031 311.8724365234375 C 259.5623474121094 324.6125183105469 245.4755096435547 334.51611328125 255.79539489746094 308.205078125" stroke-width="0.0" fill="rgb(66, 0, 182)" opacity="0.010940275" stroke="rgb(0, 0, 0)" stroke-opacity="1.0" stroke-linecap="round" stroke-linejoin="round"/>
    <path d="M 337.6407470703125 113.80882263183594 C 340.6136779785156 119.54508972167969 340.11322021484375 135.69349670410156 321.2746276855469 137.21395874023438 C 307.864501953125 138.20484924316406 308.7555236816406 128.24574279785156 306.6448669433594 118.3316421508789 C 304.9043273925781 105.44039154052734 323.762939453125 105.28060150146484 322.1416015625 104.86260223388672 C 323.9901123046875 106.14816284179688 337.70562744140625 103.60863494873047 337.6407470703125 113.80882263183594" stroke-width="0.0" fill="rgb(145, 246, 100)" opacity="0.6542561" stroke="rgb(0, 0, 0)" stroke-opacity="1.0" stroke-linecap="round" stroke-linejoin="round"/>
    <path d="M 230.96768188476562 227.898193359375 C 228.63796997070312 243.97793579101562 218.73468017578125 240.32595825195312 206.98403930664062 235.4489288330078 C 210.53030395507812 246.30422973632812 176.080078125 241.0208282470703 174.11341857910156 242.6742401123047 C 173.1504364013672 201.86102294921875 157.5501251220703 188.9439239501953 182.8502197265625 195.5304718017578 C 196.51405334472656 220.60939025878906 210.7825927734375 218.62936401367188 230.96768188476562 227.898193359375" stroke-width="0.0" fill="rgb(255, 239, 219)" opacity="1.0" stroke="rgb(0, 0, 0)" stroke-opacity="1.0" stroke-linecap="round" stroke-linejoin="round"/>
    <path d="M 178.3024139404297 331.26007080078125 C 185.83554077148438 353.5950927734375 183.28292846679688 368.0629577636719 173.46324157714844 396.8675842285156 C 150.49838256835938 351.86224365234375 168.54592895507812 322.18511962890625 165.49635314941406 305.8237609863281 C 156.07754516601562 319.279296875 157.81259155273438 313.2123718261719 170.72804260253906 324.2826843261719 C 183.65887451171875 335.1178283691406 169.48785400390625 323.038330078125 178.3024139404297 331.26007080078125" stroke-width="0.0" fill="rgb(113, 255, 35)" opacity="0.047917824" stroke="rgb(0, 0, 0)" stroke-opacity="1.0" stroke-linecap="round" stroke-linejoin="round"/>
    <path d="M 182.22616577148438 269.5986633300781 C 131.54615783691406 284.71514892578125 125.43643951416016 280.22125244140625 108.45687103271484 292.1330871582031 C 104.14808654785156 317.38555908203125 101.47909545898438 299.96923828125 84.76214599609375 285.87261962890625 C 116.37407684326172 267.3069152832031 102.52066040039062 261.61834716796875 101.01801300048828 228.89642333984375 C 187.6434783935547 220.6655731201172 194.05589294433594 251.06561279296875 182.22616577148438 269.5986633300781" stroke-width="0.0" fill="rgb(255, 205, 118)" opacity="0.1322715" stroke="rgb(0, 0, 0)" stroke-opacity="1.0" stroke-linecap="round" stroke-linejoin="round"/>
    <path d="M 440.3513488769531 249.7645263671875 C 431.3105773925781 251.00408935546875 421.28643798828125 256.7632141113281 422.6229553222656 281.08538818359375 C 438.4723205566406 237.72470092773438 442.9949951171875 239.3747100830078 435.79791259765625 279.06494140625 C 437.4640197753906 241.95291137695312 430.64129638671875 199.30335998535156 415.2117614746094 254.94271850585938 C 432.4756774902344 272.4465637207031 445.3201904296875 266.77056884765625 440.3513488769531 249.7645263671875" stroke-width="0.0" fill="rgb(125, 236, 70)" opacity="0.34903184" stroke="rgb(0, 0, 0)" stroke-opacity="1.0" stroke-linecap="round" stroke-linejoin="round"/>
    <path d="M 514.7088623046875 75.46878814697266 C 507.44671630859375 84.12750244140625 532.5216674804688 76.6045150756836 480.647705078125 82.1564712524414 C 493.6746520996094 98.05975341796875 468.9967041015625 90.16098022460938 480.9590148925781 69.19902801513672 C 495.2483215332031 79.96925354003906 481.7796325683594 68.60082244873047 467.3849182128906 64.22288513183594 C 492.2293701171875 64.25323486328125 511.16497802734375 65.48714447021484 514.7088623046875 75.46878814697266" stroke-width="0.0" fill="rgb(92, 225, 199)" opacity="0.019561151" stroke="rgb(0, 0, 0)" stroke-opacity="1.0" stroke-linecap="round" stroke-linejoin="round"/>
    <path d="M 141.12838745117188 337.2813415527344 C 145.18197631835938 338.6602783203125 135.2559051513672 362.12353515625 126.63792419433594 353.1244201660156 C 94.48790740966797 375.5335693359375 64.08724975585938 386.5880126953125 70.42650604248047 340.4292297363281 C 66.87723541259766 319.0394592285156 88.33422088623047 302.24273681640625 113.49061584472656 294.6241149902344 C 110.10022735595703 319.4376525878906 109.81378173828125 333.7837219238281 141.12838745117188 337.2813415527344" stroke-width="0.0" fill="rgb(60, 255, 113)" opacity="0.0" stroke="rgb(0, 0, 0)" stroke-opacity="1.0" stroke-linecap="round" stroke-linejoin="round"/>
    <path d="M 194.94589233398438 395.8868408203125 C 248.10330200195312 419.98126220703125 253.42742919921875 424.9317932128906 203.93771362304688 410.89154052734375 C 144.8336181640625 406.0616149902344 127.86377716064453 421.99896240234375 125.873291015625 389.4552001953125 C 127.0924072265625 354.08856201171875 175.326171875 370.9792175292969 165.98155212402344 357.4803771972656 C 172.2034149169922 356.41705322265625 189.22854614257812 368.2283020019531 194.94589233398438 395.8868408203125" stroke-width="0.0" fill="rgb(135, 255, 0)" opacity="0.6793207" stroke="rgb(0, 0, 0)" stroke-opacity="1.0" stroke-linecap="round" stroke-linejoin="round"/>
    <path d="M 72.7348861694336 189.7481689453125 C 62.64503860473633 224.3563232421875 75.4037094116211 225.49623107910156 55.514888763427734 220.7753143310547 C -28.49398422241211 225.1552734375 -33.60439682006836 230.4604034423828 -17.221298217773438 172.57875061035156 C -10.643338203430176 135.37847900390625 9.289280891418457 104.97357940673828 75.7820816040039 138.70297241210938 C 90.76602172851562 142.14041137695312 94.29828643798828 144.72821044921875 72.7348861694336 189.7481689453125" stroke-width="0.0" fill="rgb(112, 221, 209)" opacity="0.17725426" stroke="rgb(0, 0, 0)" stroke-opacity="1.0" stroke-linecap="round" stroke-linejoin="round"/>
    <path d="M 335.2078552246094 319.09112548828125 C 358.8462219238281 278.4433898925781 360.0964050292969 346.37542724609375 318.3210754394531 347.7379150390625 C 317.6840515136719 368.332275390625 297.5381774902344 343.6021423339844 286.1925048828125 326.0120544433594 C 284.35516357421875 294.1272277832031 285.074462890625 291.2806396484375 334.39129638671875 303.2005310058594 C 340.19122314453125 301.2997741699219 346.57391357421875 321.4134521484375 335.2078552246094 319.09112548828125" stroke-width="0.0" fill="rgb(203, 200, 130)" opacity="0.2431066" stroke="rgb(0, 0, 0)" stroke-opacity="1.0" stroke-linecap="round" stroke-linejoin="round"/>
    <path d="M 452.6978759765625 304.48187255859375 C 453.88275146484375 329.24993896484375 442.6549987792969 341.32635498046875 429.2902526855469 332.94207763671875 C 412.9707336425781 319.6029357910156 413.1103820800781 312.7679748535156 394.0797424316406 319.05810546875 C 405.60498046875 309.87744140625 378.50958251953125 311.3211975097656 372.8621520996094 302.5910339355469 C 431.0906677246094 282.8338928222656 456.04248046875 289.5364074707031 452.6978759765625 304.48187255859375" stroke-width="0.0" fill="rgb(74, 244, 106)" opacity="0.0" stroke="rgb(0, 0, 0)" stroke-opacity="1.0" stroke-linecap="round" stroke-linejoin="round"/>
    <path d="M 385.95538330078125 73.2537612915039 C 438.3852233886719 84.73532104492188 438.0627136230469 88.52909851074219 404.2098083496094 67.26249694824219 C 386.4349670410156 44.09892272949219 400.5791320800781 73.67353057861328 394.7021789550781 69.49375915527344 C 390.3951721191406 66.4249267578125 405.6770935058594 57.742088317871094 384.3306579589844 54.87923812866211 C 369.9090881347656 54.448211669921875 406.54083251953125 68.88854217529297 385.95538330078125 73.2537612915039" stroke-width="0.0" fill="rgb(81, 237, 181)" opacity="0.0" stroke="rgb(0, 0, 0)" stroke-opacity="1.0" stroke-linecap="round" stroke-linejoin="round"/>
    <path d="M 183.6450958251953 405.8516845703125 C 187.06407165527344 415.66845703125 184.7733612060547 427.2959899902344 177.9242401123047 441.5685119628906 C 184.76756286621094 433.4005432128906 172.87017822265625 408.22412109375 167.88888549804688 397.0709228515625 C 178.98094177246094 398.40850830078125 175.98110961914062 394.9744873046875 175.37571716308594 432.175048828125 C 181.1896514892578 417.756591796875 193.4999237060547 420.42156982421875 183.6450958251953 405.8516845703125" stroke-width="0.0" fill="rgb(62, 223, 77)" opacity="0.015262822" stroke="rgb(0, 0, 0)" stroke-opacity="1.0" stroke-linecap="round" stroke-linejoin="round"/>
    <path d="M 343.9893798828125 186.1514434814453 C 354.74163818359375 189.19808959960938 329.36279296875 186.18789672851562 317.53558349609375 179.74183654785156 C 324.3948669433594 192.75611877441406 303.9106140136719 165.43853759765625 304.7216491699219 169.49246215820312 C 315.373291015625 179.14512634277344 322.211669921875 162.26809692382812 309.4966125488281 146.3319091796875 C 321.927001953125 150.15713500976562 326.0391540527344 159.7484893798828 343.9893798828125 186.1514434814453" stroke-width="0.0" fill="rgb(107, 251, 104)" opacity="0.004622313" stroke="rgb(0, 0, 0)" stroke-opacity="1.0" stroke-linecap="round" stroke-linejoin="round"/>
    <path d="M 165.03643798828125 175.62387084960938 C 154.71136474609375 171.87811279296875 155.0047607421875 171.28424072265625 160.7305145263672 175.00750732421875 C 159.8975830078125 161.06846618652344 150.3346710205078 151.530029296875 164.80953979492188 163.7044219970703 C 138.81546020507812 172.0943603515625 154.0338592529297 154.13815307617188 155.86119079589844 129.67178344726562 C 170.75372314453125 165.41534423828125 171.6929168701172 165.66661071777344 165.03643798828125 175.62387084960938" stroke-width="0.0" fill="rgb(249, 83, 167)" opacity="0.0" stroke="rgb(0, 0, 0)" stroke-opacity="1.0" stroke-linecap="round" stroke-linejoin="round"/>
    <path d="M 534.1631469726562 287.24578857421875 C 490.7249450683594 315.6634216308594 493.16705322265625 284.1410827636719 488.5429992675781 254.510498046875 C 515.49609375 251.5589599609375 498.1767883300781 252.43272399902344 489.5992431640625 256.93231201171875 C 487.3617858886719 242.92344665527344 487.5648193359375 233.1036376953125 490.4939270019531 219.8016357421875 C 487.4228820800781 173.66387939453125 532.0628662109375 172.5735321044922 534.1631469726562 287.24578857421875" stroke-width="0.0" fill="rgb(126, 203, 236)" opacity="0.124097496" stroke="rgb(0, 0, 0)" stroke-opacity="1.0" stroke-linecap="round" stroke-linejoin="round"/>
    <path d="M 316.349853515625 55.741249084472656 C 321.84014892578125 66.05883026123047 319.0520324707031 74.72444915771484 307.6632385253906 68.10466003417969 C 292.18402099609375 75.93962097167969 294.9791259765625 61.73860168457031 295.5801086425781 64.75731658935547 C 297.9341125488281 36.91651916503906 295.39404296875 19.65119743347168 303.5705261230469 27.33107566833496 C 319.4609680175781 25.519582748413086 321.7722473144531 38.78998565673828 316.349853515625 55.741249084472656" stroke-width="0.0" fill="rgb(93, 233, 142)" opacity="0.0" stroke="rgb(0, 0, 0)" stroke-opacity="1.0" stroke-linecap="round" stroke-linejoin="round"/>
    <path d="M 428.5216979980469 263.19390869140625 C 423.7971496582031 274.05731201171875 427.0021667480469 283.65545654296875 420.5699768066406 309.9085998535156 C 402.8923645019531 292.1982727050781 405.4603271484375 244.5009765625 403.1995849609375 259.7809143066406 C 418.7829284667969 260.0226135253906 408.4277038574219 241.03875732421875 428.4747314453125 227.02407836914062 C 437.960205078125 213.10879516601562 430.56512451171875 249.50205993652344 428.5216979980469 263.19390869140625" stroke-width="0.0" fill="rgb(89, 252, 22)" opacity="0.89511085" stroke="rgb(0, 0, 0)" stroke-opacity="1.0" stroke-linecap="round" stroke-linejoin="round"/>
    <path d="M 524.386962890625 126.82428741455078 C 521.029052734375 126.76717376708984 508.1553649902344 127.73463439941406 508.05682373046875 127.4579086303711 C 503.0714416503906 138.9832000732422 493.4668884277344 139.09893798828125 508.4108581542969 142.48812866210938 C 500.14984130859375 126.33747100830078 507.4795837402344 124.76428985595703 520.6070556640625 127.51361846923828 C 512.9617309570312 101.27521514892578 517.728515625 113.92268371582031 524.386962890625 126.82428741455078" stroke-width="0.0" fill="rgb(55, 222, 117)" opacity="0.0" stroke="rgb(0, 0, 0)" stroke-opacity="1.0" stroke-linecap="round" stroke-linejoin="round"/>
    <path d="M 531.0208129882812 185.74302673339844 C 532.912353515625 201.37271118164062 532.0369873046875 205.43722534179688 485.1271667480469 186.83367919921875 C 469.5151062011719 199.43099975585938 485.39892578125 215.20037841796875 476.2481384277344 155.17581176757812 C 472.8243713378906 125.54739379882812 484.53155517578125 131.88941955566406 517.8645629882812 135.3875732421875 C 518.8762817382812 148.7013702392578 525.755615234375 158.18002319335938 531.0208129882812 185.74302673339844" stroke-width="0.0" fill="rgb(124, 205, 216)" opacity="0.057469267" stroke="rgb(0, 0, 0)" stroke-opacity="1.0" stroke-linecap="round" stroke-linejoin="round"/>
    <path d="M 80.3802261352539 319.0699768066406 C 50.00543212890625 322.3750915527344 42.22780990600586 345.54376220703125 10.69271469116211 351.3542785644531 C 25.91405487060547 369.5755310058594 15.488021850585938 378.72711181640625 -15.372950553894043 344.7073974609375 C 16.95937156677246 318.2734069824219 29.053892135620117 317.3332214355469 67.795654296875 284.92755126953125 C 79.41374206542969 317.6530456542969 79.54512786865234 322.0620422363281 80.3802261352539 319.0699768066406" stroke-width="0.0" fill="rgb(242, 24, 42)" opacity="1.0" stroke="rgb(0, 0, 0)" stroke-opacity="1.0" stroke-linecap="round" stroke-linejoin="round"/>
    <path d="M 350.5608215332031 256.7840270996094 C 389.8536376953125 303.2955322265625 375.9444580078125 315.02069091796875 310.6142883300781 323.5561218261719 C 304.3753662109375 273.1653137207031 308.8027648925781 258.8201599121094 270.51409912109375 245.21665954589844 C 226.3362274169922 217.29200744628906 245.2266082763672 253.60389709472656 296.74017333984375 247.71273803710938 C 305.7462158203125 241.95921325683594 305.35540771484375 247.60130310058594 350.5608215332031 256.7840270996094" stroke-width="0.0" fill="rgb(243, 176, 57)" opacity="0.033450823" stroke="rgb(0, 0, 0)" stroke-opacity="1.0" stroke-linecap="round" stroke-linejoin="round"/>
    <path d="M 523.2473754882812 147.7865753173828 C 513.0065307617188 216.64471435546875 495.662353515625 169.9427947998047 507.2327880859375 164.13209533691406 C 501.5451965332031 138.76531982421875 502.5841369628906 125.12605285644531 504.81219482421875 153.4852752685547 C 493.4303283691406 96.97254943847656 503.66363525390625 86.96790313720703 513.3817749023438 92.09286499023438 C 512.04931640625 72.34590911865234 515.941650390625 45.246551513671875 523.2473754882812 147.7865753173828" stroke-width="0.0" fill="rgb(160, 190, 227)" opacity="0.1060735" stroke="rgb(0, 0, 0)" stroke-opacity="1.0" stroke-linecap="round" stroke-linejoin="round"/>
    <path d="M 483.73828125 472.87451171875 C 433.4071044921875 476.9778747558594 417.93890380859375 486.9915466308594 444.36370849609375 453.7900390625 C 455.730712890625 501.31781005859375 453.40838623046875 497.7802734375 445.52227783203125 443.1018981933594 C 453.4983215332031 420.7391357421875 487.9930114746094 441.1341247558594 472.1274108886719 440.6253662109375 C 472.4551696777344 453.0325012207031 480.3947448730469 471.8660888671875 483.73828125 472.87451171875" stroke-width="0.0" fill="rgb(76, 245, 167)" opacity="0.030086061" stroke="rgb(0, 0, 0)" stroke-opacity="1.0" stroke-linecap="round" stroke-linejoin="round"/>
    <path d="M 516.1072387695312 406.8993225097656 C 519.8006591796875 395.974853515625 504.62359619140625 393.7110595703125 454.1951599121094 385.5780944824219 C 460.2409362792969 343.3457336425781 464.5323486328125 360.64605712890625 477.2144470214844 335.371337890625 C 435.0628967285156 310.9995422363281 482.5667724609375 294.1615295410156 510.6738586425781 329.5029296875 C 530.2450561523438 349.19940185546875 525.357177734375 352.1822509765625 516.1072387695312 406.8993225097656" stroke-width="0.0" fill="rgb(131, 213, 220)" opacity="0.012941467" stroke="rgb(0, 0, 0)" stroke-opacity="1.0" stroke-linecap="round" stroke-linejoin="round"/>
    <path d="M 153.16653442382812 427.0005798339844 C 143.38336181640625 400.7088928222656 140.1692352294922 416.6820068359375 121.99700927734375 411.4618835449219 C 143.53994750976562 421.9487609863281 132.1270294189453 439.8816223144531 159.3870086669922 433.38311767578125 C 137.1285858154297 395.9140319824219 130.01904296875 382.36846923828125 113.04444885253906 432.04376220703125 C 142.56983947753906 436.9903259277344 168.03176879882812 428.52947998046875 153.16653442382812 427.0005798339844" stroke-width="0.0" fill="rgb(128, 246, 123)" opacity="0.0037539483" stroke="rgb(0, 0, 0)" stroke-opacity="1.0" stroke-linecap="round" stroke-linejoin="round"/>
    <path d="M 54.821102142333984 155.36058044433594 C 73.6592025756836 183.67564392089844 69.0572738647461 175.45394897460938 48.351444244384766 181.1611328125 C 62.98005294799805 202.57589721679688 35.623687744140625 199.31869506835938 46.21392822265625 165.89205932617188 C 26.14327049255371 109.32373809814453 10.932374954223633 116.20791625976562 78.1527099609375 125.17893981933594 C 87.4152603149414 144.8948516845703 83.29315185546875 155.70323181152344 54.821102142333984 155.36058044433594" stroke-width="0.0" fill="rgb(92, 231, 212)" opacity="0.07129074" stroke="rgb(0, 0, 0)" stroke-opacity="1.0" stroke-linecap="round" stroke-linejoin="round"/>
    <path d="M 203.91554260253906 147.29600524902344 C 208.18887329101562 156.33412170410156 204.85028076171875 140.94314575195312 160.48878479003906 136.60472106933594 C 175.6822967529297 109.7925033569336 183.97412109375 115.5437240600586 164.83905029296875 124.71136474609375 C 155.1737518310547 117.33036804199219 160.27572631835938 112.41719055175781 160.98333740234375 106.30252838134766 C 161.62525939941406 132.4550323486328 175.8550567626953 135.01528930664062 203.91554260253906 147.29600524902344" stroke-width="0.0" fill="rgb(129, 89, 177)" opacity="0.0" stroke="rgb(0, 0, 0)" stroke-opacity="1.0" stroke-linecap="round" stroke-linejoin="round"/>
    <path d="M 156.3064422607422 392.73345947265625 C 167.85089111328125 374.9212951660156 159.25787353515625 383.650390625 157.01068115234375 383.5934753417969 C 135.510498046875 412.7683410644531 113.1128158569336 416.8800964355469 175.502685546875 411.8274230957031 C 153.2197723388672 402.9970397949219 146.65879821777344 372.6044921875 170.6549835205078 402.3196105957031 C 159.92547607421875 400.51690673828125 156.17526245117188 415.8617248535156 156.3064422607422 392.73345947265625" stroke-width="0.0" fill="rgb(136, 252, 0)" opacity="0.11757167" stroke="rgb(0, 0, 0)" stroke-opacity="1.0" stroke-linecap="round" stroke-linejoin="round"/>
    <path d="M 453.4175720214844 73.9537353515625 C 457.13409423828125 152.12081909179688 446.55584716796875 152.45166015625 433.3536682128906 107.04805755615234 C 446.04376220703125 135.80398559570312 461.6298522949219 119.64078521728516 449.4465637207031 114.2562484741211 C 441.2900085449219 141.16763305664062 447.8540954589844 148.14077758789062 442.7052307128906 118.7592544555664 C 441.9699401855469 82.19037628173828 463.7479553222656 70.60205078125 453.4175720214844 73.9537353515625" stroke-width="0.0" fill="rgb(114, 235, 173)" opacity="0.008314276" stroke="rgb(0, 0, 0)" stroke-opacity="1.0" stroke-linecap="round" stroke-linejoin="round"/>
    <path d="M 300.6011047363281 336.7982482910156 C 263.3782043457031 332.3408508300781 255.8578643798828 323.8995666503906 245.38192749023438 353.5670166015625 C 221.80982971191406 407.4493713378906 202.82203674316406 405.6435241699219 214.30059814453125 323.39471435546875 C 222.71783447265625 302.03924560546875 209.29872131347656 297.70050048828125 189.24884033203125 234.02679443359375 C 318.73260498046875 237.80960083007812 322.5521240234375 241.610595703125 300.6011047363281 336.7982482910156" stroke-width="0.0" fill="rgb(251, 217, 114)" opacity="0.113087654" stroke="rgb(0, 0, 0)" stroke-opacity="1.0" stroke-linecap="round" stroke-linejoin="round"/>
    <path d="M 133.64817810058594 493.28594970703125 C 160.43206787109375 503.0387878417969 152.81292724609375 500.25445556640625 144.1298370361328 491.1136169433594 C 149.83802795410156 456.4725036621094 155.21934509277344 471.3143615722656 151.01304626464844 478.1586608886719 C 147.1959228515625 478.3249816894531 150.20651245117188 484.9206237792969 154.06881713867188 483.474853515625 C 166.42381286621094 447.3874816894531 138.3489227294922 445.8934326171875 133.64817810058594 493.28594970703125" stroke-width="0.0" fill="rgb(78, 224, 149)" opacity="0.0" stroke="rgb(0, 0, 0)" stroke-opacity="1.0" stroke-linecap="round" stroke-linejoin="round"/>
    <path d="M 461.32708740234375 392.2842102050781 C 493.09033203125 392.16741943359375 472.26910400390625 388.7690734863281 447.70025634765625 392.57769775390625 C 452.1874694824219 421.571533203125 427.9107360839844 409.7743835449219 442.1477355957031 390.9178161621094 C 439.6680603027344 367.1985168457031 439.5715637207031 363.6573791503906 454.7973937988281 369.08209228515625 C 465.83905029296875 376.3888854980469 457.5463562011719 410.8747253417969 461.32708740234375 392.2842102050781" stroke-width="0.0" fill="rgb(145, 249, 61)" opacity="0.0012349922" stroke="rgb(0, 0, 0)" stroke-opacity="1.0" stroke-linecap="round" stroke-linejoin="round"/>
    <path d="M 283.4221496582031 107.38264465332031 C 296.1385192871094 121.23921203613281 290.8000793457031 122.127197265625 276.63079833984375 120.60096740722656 C 274.4158935546875 134.06910705566406 270.27886962890625 113.21397399902344 290.5517883300781 104.81600952148438 C 278.7545166015625 132.2694854736328 298.274658203125 110.21917724609375 280.07305908203125 84.97103881835938 C 282.15155029296875 82.28986358642578 287.96478271484375 86.8052978515625 283.4221496582031 107.38264465332031" stroke-width="0.0" fill="rgb(94, 238, 191)" opacity="0.0028759497" stroke="rgb(0, 0, 0)" stroke-opacity="1.0" stroke-linecap="round" stroke-linejoin="round"/>
    <path d="M 411.6148986816406 34.98959732055664 C 419.7699890136719 59.5155029296875 413.68939208984375 65.94290924072266 381.8266296386719 63.8993034362793 C 368.3910217285156 74.82837677001953 368.91143798828125 70.0839614868164 370.4167175292969 42.72015380859375 C 352.1412048339844 28.265979766845703 367.3641662597656 33.403629302978516 398.4714660644531 47.17332077026367 C 392.7605285644531 48.05332946777344 402.13836669921875 48.505374908447266 411.6148986816406 34.98959732055664" stroke-width="0.0" fill="rgb(104, 235, 195)" opacity="0.010832368" stroke="rgb(0, 0, 0)" stroke-opacity="1.0" stroke-linecap="round" stroke-linejoin="round"/>
    <path d="M 462.3811340332031 540.9356689453125 C 471.6966247558594 518.530029296875 465.5345458984375 526.6652221679688 457.9485778808594 531.0173950195312 C 449.34393310546875 529.0183715820312 445.21661376953125 519.3460083007812 447.12164306640625 524.0540771484375 C 443.5234375 512.6630859375 436.89544677734375 503.51263427734375 457.21527099609375 530.5460205078125 C 473.40802001953125 519.3662719726562 468.4353942871094 509.9273986816406 462.3811340332031 540.9356689453125" stroke-width="0.0" fill="rgb(57, 250, 166)" opacity="0.0" stroke="rgb(0, 0, 0)" stroke-opacity="1.0" stroke-linecap="round" stroke-linejoin="round"/>
  </g>
</svg>
