<?xml version="1.0" ?>
<svg xmlns="http://www.w3.org/2000/svg" version="1.1" width="512" height="512">
  <defs/>
  <g>
    <path d="M 531.8068237304688 463.49139404296875 C 548.0579833984375 517.3278198242188 548.9373779296875 525.5354614257812 378.5179748535156 542.00537109375 C 307.12451171875 575.9198608398438 280.20098876953125 577.4603271484375 268.6140441894531 500.506591796875 C 321.550048828125 318.8744201660156 361.6965026855469 319.1379089355469 474.7231140136719 302.70916748046875 C 561.418212890625 313.622314453125 562.6765747070312 329.9706115722656 531.8068237304688 463.49139404296875" stroke-width="0.0" fill="rgb(12, 12, 138)" opacity="0.9586304" stroke="rgb(0, 0, 0)" stroke-opacity="1.0" stroke-linecap="round" stroke-linejoin="round"/>
    <path d="M 276.1087341308594 453.3897705078125 C 314.19683837890625 528.2625732421875 325.72576904296875 546.081787109375 131.70924377441406 548.089111328125 C -51.20000076293945 517.7235107421875 -51.20000076293945 507.83367919921875 -21.774600982666016 449.183837890625 C -18.38620376586914 205.44985961914062 -18.693912506103516 199.01014709472656 -28.829551696777344 264.5224304199219 C 202.67153930664062 310.1650390625 261.3100280761719 236.7483673095703 276.1087341308594 453.3897705078125" stroke-width="0.0" fill="rgb(10, 10, 139)" opacity="0.96684223" stroke="rgb(0, 0, 0)" stroke-opacity="1.0" stroke-linecap="round" stroke-linejoin="round"/>
    <path d="M 281.9236145019531 301.5000915527344 C 230.20191955566406 413.5549621582031 248.82859802246094 437.730224609375 211.62156677246094 360.1108093261719 C 60.210899353027344 341.80975341796875 11.299385070800781 397.58636474609375 23.651119232177734 182.31320190429688 C 36.915626525878906 200.91001892089844 53.082271575927734 194.43194580078125 119.31956481933594 103.21398162841797 C 266.0432434082031 106.81951141357422 287.02178955078125 107.23338317871094 281.9236145019531 301.5000915527344" stroke-width="0.0" fill="rgb(225, 150, 60)" opacity="0.8536278" stroke="rgb(0, 0, 0)" stroke-opacity="1.0" stroke-linecap="round" stroke-linejoin="round"/>
    <path d="M 280.3091735839844 13.138690948486328 C 258.4481506347656 196.6022186279297 213.93336486816406 164.40985107421875 26.627172470092773 201.6666259765625 C -63.41616439819336 200.90768432617188 -57.132957458496094 189.7667694091797 -41.10331726074219 58.678741455078125 C -14.989005088806152 -15.722881317138672 -7.218327522277832 -19.66063117980957 89.36248016357422 -33.18010330200195 C 226.95236206054688 -47.50253677368164 272.029052734375 -75.22032165527344 280.3091735839844 13.138690948486328" stroke-width="0.0" fill="rgb(23, 18, 135)" opacity="0.9482667" stroke="rgb(0, 0, 0)" stroke-opacity="1.0" stroke-linecap="round" stroke-linejoin="round"/>
    <path d="M 540.0155639648438 56.576786041259766 C 444.73370361328125 289.69476318359375 454.0379333496094 305.1910400390625 410.924560546875 320.2232666015625 C 246.7607879638672 330.044189453125 233.75604248046875 368.75933837890625 265.083251953125 254.89349365234375 C 264.87603759765625 6.748212814331055 198.55001831054688 -32.260589599609375 290.08056640625 -70.20033264160156 C 563.2000122070312 -6.244815349578857 563.2000122070312 4.452378749847412 540.0155639648438 56.576786041259766" stroke-width="0.0" fill="rgb(20, 19, 146)" opacity="0.98656565" stroke="rgb(0, 0, 0)" stroke-opacity="1.0" stroke-linecap="round" stroke-linejoin="round"/>
    <path d="M 478.2219543457031 354.2127990722656 C 482.1916198730469 426.5611877441406 499.9539489746094 520.605712890625 310.7588195800781 566.720703125 C 205.24417114257812 550.5654907226562 207.1223602294922 499.6253356933594 232.9673614501953 453.9967346191406 C 243.06478881835938 215.93035888671875 292.5859375 207.85513305664062 319.18426513671875 261.19085693359375 C 405.5937805175781 287.96923828125 447.28314208984375 288.81072998046875 478.2219543457031 354.2127990722656" stroke-width="0.0" fill="rgb(17, 21, 140)" opacity="1.0" stroke="rgb(0, 0, 0)" stroke-opacity="1.0" stroke-linecap="round" stroke-linejoin="round"/>
    <path d="M 551.2354736328125 219.71456909179688 C 571.0936889648438 331.5409240722656 571.7066650390625 330.19134521484375 502.13751220703125 352.37982177734375 C 372.8194580078125 363.9190368652344 407.6839599609375 356.9111022949219 398.7491760253906 222.11399841308594 C 414.8241882324219 99.52059936523438 366.1356201171875 86.71845245361328 512.5228271484375 87.43667602539062 C 574.5723876953125 85.44046020507812 575.1578369140625 121.201171875 551.2354736328125 219.71456909179688" stroke-width="0.0" fill="rgb(16, 21, 139)" opacity="0.9991103" stroke="rgb(0, 0, 0)" stroke-opacity="1.0" stroke-linecap="round" stroke-linejoin="round"/>
    <path d="M 252.99974060058594 268.5950622558594 C 233.37124633789062 301.2853088378906 271.5332946777344 334.1556396484375 218.43862915039062 334.85772705078125 C 234.0147247314453 287.9662780761719 251.6715545654297 288.8011169433594 205.37362670898438 235.08450317382812 C 161.29788208007812 199.3512420654297 152.24221801757812 210.86790466308594 256.8927307128906 189.9846954345703 C 289.07244873046875 205.64381408691406 277.56793212890625 247.55224609375 252.99974060058594 268.5950622558594" stroke-width="0.0" fill="rgb(200, 140, 12)" opacity="0.8467806" stroke="rgb(0, 0, 0)" stroke-opacity="1.0" stroke-linecap="round" stroke-linejoin="round"/>
    <path d="M 349.7174987792969 36.27769088745117 C 298.1570129394531 134.21011352539062 272.1463317871094 130.53814697265625 250.0455780029297 130.49684143066406 C 245.75990295410156 109.34174346923828 235.2200927734375 109.3873062133789 201.58631896972656 81.1507339477539 C 220.7641143798828 77.73583221435547 214.2206268310547 70.13595581054688 274.45855712890625 119.12510681152344 C 263.5438232421875 114.79999542236328 277.51434326171875 43.81223678588867 349.7174987792969 36.27769088745117" stroke-width="0.0" fill="rgb(255, 255, 156)" opacity="1.0" stroke="rgb(0, 0, 0)" stroke-opacity="1.0" stroke-linecap="round" stroke-linejoin="round"/>
    <path d="M 204.9049835205078 334.3710632324219 C 174.7698516845703 496.6461486816406 232.51864624023438 502.2016296386719 157.05084228515625 472.8900451660156 C 168.55477905273438 410.67718505859375 162.55023193359375 398.1541442871094 137.29959106445312 332.0767517089844 C 203.74081420898438 315.06585693359375 188.58779907226562 325.3457946777344 183.56202697753906 349.1601867675781 C 176.1924591064453 354.3893737792969 178.96005249023438 350.52264404296875 204.9049835205078 334.3710632324219" stroke-width="0.0" fill="rgb(255, 255, 150)" opacity="1.0" stroke="rgb(0, 0, 0)" stroke-opacity="1.0" stroke-linecap="round" stroke-linejoin="round"/>
    <path d="M 286.08160400390625 238.05039978027344 C 280.1430969238281 319.2464294433594 249.65504455566406 363.0816345214844 219.76026916503906 358.0749206542969 C 123.63626861572266 356.7823486328125 209.72694396972656 338.5705871582031 199.4220733642578 272.5781555175781 C 91.36669921875 141.6220245361328 43.03645706176758 158.69454956054688 249.3583984375 74.93444061279297 C 144.3822021484375 186.39865112304688 210.8747100830078 93.40200805664062 286.08160400390625 238.05039978027344" stroke-width="0.0" fill="rgb(255, 255, 198)" opacity="1.0" stroke="rgb(0, 0, 0)" stroke-opacity="1.0" stroke-linecap="round" stroke-linejoin="round"/>
    <path d="M 176.23048400878906 234.0887908935547 C 103.18225860595703 199.78529357910156 71.55055236816406 236.6407012939453 96.99466705322266 309.964111328125 C 119.77287292480469 413.45611572265625 86.0745849609375 405.66851806640625 -17.896093368530273 290.7741394042969 C -51.416297912597656 94.81645202636719 -23.71132469177246 134.17324829101562 142.4525909423828 122.92708587646484 C 215.44093322753906 172.28323364257812 232.43348693847656 195.91563415527344 176.23048400878906 234.0887908935547" stroke-width="0.0" fill="rgb(23, 25, 141)" opacity="1.0" stroke="rgb(0, 0, 0)" stroke-opacity="1.0" stroke-linecap="round" stroke-linejoin="round"/>
    <path d="M 268.0630798339844 58.99139404296875 C 246.77053833007812 122.25509643554688 237.30319213867188 124.14506530761719 222.7758026123047 180.67971801757812 C 169.6288604736328 192.76535034179688 94.80644989013672 161.88912963867188 99.8186264038086 56.136688232421875 C 98.11790466308594 -49.301151275634766 113.2538833618164 -36.109580993652344 208.5778045654297 -66.15229797363281 C 224.33895874023438 -29.424373626708984 202.86709594726562 21.480398178100586 268.0630798339844 58.99139404296875" stroke-width="0.0" fill="rgb(14, 14, 147)" opacity="1.0" stroke="rgb(0, 0, 0)" stroke-opacity="1.0" stroke-linecap="round" stroke-linejoin="round"/>
    <path d="M 313.9049377441406 144.65158081054688 C 366.0672912597656 255.25341796875 286.54595947265625 296.1539306640625 262.3741149902344 246.5507354736328 C 214.57650756835938 151.07337951660156 302.0044860839844 139.24630737304688 231.6176300048828 132.430908203125 C 270.32000732421875 85.50132751464844 303.7587890625 102.19348907470703 349.2668151855469 117.83411407470703 C 306.67254638671875 201.09934997558594 276.4036865234375 166.49832153320312 313.9049377441406 144.65158081054688" stroke-width="0.0" fill="rgb(214, 193, 156)" opacity="0.99162257" stroke="rgb(0, 0, 0)" stroke-opacity="1.0" stroke-linecap="round" stroke-linejoin="round"/>
    <path d="M 100.54003143310547 286.9217834472656 C 92.25851440429688 326.5760192871094 128.55078125 345.47021484375 102.38509368896484 371.9469909667969 C 108.92063903808594 337.5155334472656 86.83867645263672 326.455078125 78.0473861694336 294.0536804199219 C 83.1680908203125 307.55499267578125 58.651126861572266 297.9448547363281 77.03606414794922 345.6249694824219 C 89.77173614501953 421.5152282714844 33.75432586669922 278.83441162109375 100.54003143310547 286.9217834472656" stroke-width="0.0" fill="rgb(220, 98, 20)" opacity="0.84645516" stroke="rgb(0, 0, 0)" stroke-opacity="1.0" stroke-linecap="round" stroke-linejoin="round"/>
    <path d="M 216.78939819335938 82.1279296875 C 239.61199951171875 136.01580810546875 198.93597412109375 149.447021484375 210.4185791015625 152.3238067626953 C 227.52774047851562 27.177196502685547 221.55462646484375 124.78618621826172 185.22341918945312 80.55865478515625 C 233.17530822753906 156.36917114257812 216.4893035888672 67.207275390625 212.01364135742188 55.10700988769531 C 201.10247802734375 46.21246337890625 216.6498565673828 49.100128173828125 216.78939819335938 82.1279296875" stroke-width="0.0" fill="rgb(31, 1, 140)" opacity="0.27968195" stroke="rgb(0, 0, 0)" stroke-opacity="1.0" stroke-linecap="round" stroke-linejoin="round"/>
    <path d="M 262.9040832519531 455.26220703125 C 266.0760498046875 460.88189697265625 257.6404113769531 472.7754211425781 264.0541687011719 463.31982421875 C 265.15655517578125 480.9444274902344 264.34918212890625 494.0697021484375 222.17562866210938 473.0577697753906 C 241.12704467773438 311.4474792480469 259.11322021484375 308.7825012207031 257.4900207519531 443.80841064453125 C 271.013671875 465.802978515625 252.80845642089844 457.73577880859375 262.9040832519531 455.26220703125" stroke-width="0.0" fill="rgb(254, 196, 53)" opacity="0.9935218" stroke="rgb(0, 0, 0)" stroke-opacity="1.0" stroke-linecap="round" stroke-linejoin="round"/>
    <path d="M 169.63804626464844 257.876953125 C 173.87147521972656 281.0848693847656 152.8125762939453 312.3576354980469 151.894775390625 300.79327392578125 C 170.08306884765625 271.6067810058594 177.58270263671875 285.46575927734375 125.0346908569336 303.1791687011719 C 157.48475646972656 297.73724365234375 131.2077178955078 313.17327880859375 132.1508331298828 272.0044860839844 C 128.01524353027344 264.7973327636719 130.88412475585938 269.7298889160156 169.63804626464844 257.876953125" stroke-width="0.0" fill="rgb(170, 149, 56)" opacity="0.45443115" stroke="rgb(0, 0, 0)" stroke-opacity="1.0" stroke-linecap="round" stroke-linejoin="round"/>
    <path d="M 236.87823486328125 76.22699737548828 C 273.12237548828125 109.15797424316406 255.7615966796875 160.96218872070312 208.6324920654297 161.3222198486328 C 168.55638122558594 143.87774658203125 200.11306762695312 170.90548706054688 241.66297912597656 153.95240783691406 C 210.00152587890625 101.82164001464844 189.2744598388672 88.74581146240234 193.7677001953125 71.88666534423828 C 176.916259765625 79.0997543334961 195.90850830078125 72.94126892089844 236.87823486328125 76.22699737548828" stroke-width="0.0" fill="rgb(254, 175, 38)" opacity="0.99257815" stroke="rgb(0, 0, 0)" stroke-opacity="1.0" stroke-linecap="round" stroke-linejoin="round"/>
    <path d="M 362.03558349609375 270.4522705078125 C 355.42791748046875 298.4162902832031 349.95294189453125 306.50933837890625 320.50732421875 306.3414001464844 C 312.91802978515625 281.6792297363281 325.4483337402344 297.29949951171875 312.6760559082031 215.7564697265625 C 289.34552001953125 234.09768676757812 291.6615905761719 231.16221618652344 341.37109375 247.88348388671875 C 367.7066650390625 237.68536376953125 362.5477600097656 237.64968872070312 362.03558349609375 270.4522705078125" stroke-width="0.0" fill="rgb(12, 11, 174)" opacity="0.66008425" stroke="rgb(0, 0, 0)" stroke-opacity="1.0" stroke-linecap="round" stroke-linejoin="round"/>
    <path d="M 192.0050048828125 306.8419494628906 C 178.16983032226562 293.45947265625 166.59413146972656 291.8402099609375 153.23060607910156 294.6526794433594 C 151.616455078125 299.740234375 118.7798080444336 313.6015625 139.4521484375 266.01544189453125 C 145.89077758789062 205.4802703857422 179.37611389160156 236.305419921875 209.5643768310547 193.89527893066406 C 213.5791015625 193.8933563232422 185.72463989257812 222.50650024414062 192.0050048828125 306.8419494628906" stroke-width="0.0" fill="rgb(167, 135, 80)" opacity="1.0" stroke="rgb(0, 0, 0)" stroke-opacity="1.0" stroke-linecap="round" stroke-linejoin="round"/>
    <path d="M 216.90234375 69.4473648071289 C 240.29330444335938 76.4801025390625 235.3732452392578 144.8001251220703 207.59756469726562 117.71070861816406 C 188.28759765625 104.26152038574219 180.01536560058594 84.98417663574219 183.00701904296875 72.30687713623047 C 175.13121032714844 71.2639389038086 177.62460327148438 35.216941833496094 184.5286102294922 44.06244659423828 C 192.30628967285156 29.54936408996582 203.7183380126953 64.69840240478516 216.90234375 69.4473648071289" stroke-width="0.0" fill="rgb(255, 189, 2)" opacity="1.0" stroke="rgb(0, 0, 0)" stroke-opacity="1.0" stroke-linecap="round" stroke-linejoin="round"/>
    <path d="M 251.34645080566406 454.36004638671875 C 248.68002319335938 441.9853210449219 265.828857421875 430.51019287109375 271.28753662109375 478.0421447753906 C 241.90725708007812 486.9875793457031 220.01956176757812 482.58892822265625 263.1510009765625 489.4024963378906 C 263.1354675292969 440.10906982421875 261.313720703125 472.4766845703125 252.50729370117188 428.30291748046875 C 263.621826171875 428.72991943359375 252.6783447265625 448.049072265625 251.34645080566406 454.36004638671875" stroke-width="0.0" fill="rgb(33, 18, 144)" opacity="0.73660415" stroke="rgb(0, 0, 0)" stroke-opacity="1.0" stroke-linecap="round" stroke-linejoin="round"/>
    <path d="M 358.7181091308594 222.53536987304688 C 375.0209655761719 236.16964721679688 368.53253173828125 237.4089813232422 301.9380187988281 232.6183319091797 C 284.56427001953125 232.13735961914062 299.1295166015625 249.60813903808594 296.7817687988281 215.70677185058594 C 283.7972106933594 224.13063049316406 314.3436584472656 226.321044921875 346.3330078125 225.6064453125 C 371.8877868652344 227.37960815429688 356.3779296875 230.51388549804688 358.7181091308594 222.53536987304688" stroke-width="0.0" fill="rgb(80, 30, 214)" opacity="0.077811085" stroke="rgb(0, 0, 0)" stroke-opacity="1.0" stroke-linecap="round" stroke-linejoin="round"/>
    <path d="M 206.40721130371094 194.46803283691406 C 203.96315002441406 206.3291778564453 163.3265380859375 181.96286010742188 138.7147979736328 154.05300903320312 C 119.67857360839844 146.7539520263672 109.1099853515625 141.53204345703125 101.22948455810547 135.63136291503906 C 100.14286804199219 135.97390747070312 91.46100616455078 122.02288055419922 109.98501586914062 132.93605041503906 C 138.20042419433594 114.2950668334961 127.92473602294922 127.38478088378906 206.40721130371094 194.46803283691406" stroke-width="0.0" fill="rgb(157, 164, 254)" opacity="0.6699373" stroke="rgb(0, 0, 0)" stroke-opacity="1.0" stroke-linecap="round" stroke-linejoin="round"/>
    <path d="M 134.34312438964844 363.57684326171875 C 129.1941680908203 392.6583557128906 119.49696350097656 402.5291748046875 112.7707290649414 422.7781982421875 C 90.92224884033203 389.69873046875 99.94789123535156 384.3951721191406 94.95143127441406 359.17547607421875 C 90.81793975830078 326.0115966796875 80.59593963623047 308.6575012207031 121.56334686279297 327.2760009765625 C 110.27142333984375 325.1711730957031 123.8029556274414 338.6916198730469 134.34312438964844 363.57684326171875" stroke-width="0.0" fill="rgb(255, 242, 136)" opacity="0.9955226" stroke="rgb(0, 0, 0)" stroke-opacity="1.0" stroke-linecap="round" stroke-linejoin="round"/>
    <path d="M 122.69741821289062 394.0114440917969 C 127.5771484375 458.3589782714844 127.03695678710938 461.4395751953125 104.60482025146484 457.780517578125 C 90.539306640625 454.6687316894531 91.97020721435547 446.82635498046875 96.92091369628906 436.8914794921875 C 103.83040618896484 429.5384521484375 98.6547622680664 399.501953125 105.20697784423828 371.9153747558594 C 121.80720520019531 381.0928955078125 120.36583709716797 391.8081970214844 122.69741821289062 394.0114440917969" stroke-width="0.0" fill="rgb(254, 249, 113)" opacity="0.99941945" stroke="rgb(0, 0, 0)" stroke-opacity="1.0" stroke-linecap="round" stroke-linejoin="round"/>
    <path d="M 169.38748168945312 154.67626953125 C 141.21412658691406 175.16769409179688 103.99153137207031 134.862548828125 91.08427429199219 137.0412139892578 C 94.9159927368164 114.20396423339844 129.22573852539062 103.86444091796875 125.91218566894531 129.4349822998047 C 83.5224838256836 133.19664001464844 102.0454330444336 123.0145492553711 121.01221466064453 144.46633911132812 C 93.44127655029297 133.96424865722656 150.9021759033203 102.35095977783203 169.38748168945312 154.67626953125" stroke-width="0.0" fill="rgb(0, 21, 151)" opacity="0.44170672" stroke="rgb(0, 0, 0)" stroke-opacity="1.0" stroke-linecap="round" stroke-linejoin="round"/>
    <path d="M 96.21158599853516 98.71460723876953 C 71.20789337158203 113.15258026123047 54.05596923828125 119.8906478881836 14.315220832824707 114.26693725585938 C 23.5234432220459 126.30628967285156 19.01922035217285 105.87174224853516 32.909339904785156 111.13868713378906 C 40.759281158447266 115.95491027832031 50.39202880859375 140.3749237060547 36.126129150390625 95.02867889404297 C 59.759559631347656 95.9716796875 86.95719909667969 104.29166412353516 96.21158599853516 98.71460723876953" stroke-width="0.0" fill="rgb(29, 3, 127)" opacity="0.007970144" stroke="rgb(0, 0, 0)" stroke-opacity="1.0" stroke-linecap="round" stroke-linejoin="round"/>
    <path d="M 41.61613082885742 315.812255859375 C 47.05908966064453 350.7659606933594 52.330448150634766 343.9100341796875 35.520973205566406 311.8254089355469 C 40.722503662109375 345.45489501953125 18.39333152770996 340.14434814453125 25.70089340209961 320.6520690917969 C 38.433258056640625 305.33538818359375 30.774330139160156 304.0862121582031 22.406919479370117 315.2098693847656 C 17.908113479614258 339.4645080566406 27.18271827697754 330.68695068359375 41.61613082885742 315.812255859375" stroke-width="0.0" fill="rgb(27, 9, 197)" opacity="0.0966396" stroke="rgb(0, 0, 0)" stroke-opacity="1.0" stroke-linecap="round" stroke-linejoin="round"/>
    <path d="M 377.4750671386719 223.26963806152344 C 367.42578125 255.87924194335938 370.4296875 258.74542236328125 354.55126953125 257.0411682128906 C 354.4528503417969 233.4342803955078 358.62066650390625 243.80422973632812 362.1052551269531 235.84957885742188 C 350.6755065917969 214.54739379882812 348.4571838378906 193.4847869873047 353.7179260253906 194.4380340576172 C 368.8475036621094 200.69351196289062 376.2821044921875 203.8784637451172 377.4750671386719 223.26963806152344" stroke-width="0.0" fill="rgb(74, 68, 153)" opacity="0.34811416" stroke="rgb(0, 0, 0)" stroke-opacity="1.0" stroke-linecap="round" stroke-linejoin="round"/>
    <path d="M 213.93243408203125 264.8765869140625 C 199.3048553466797 262.45806884765625 206.61712646484375 265.9544982910156 195.6400604248047 263.40643310546875 C 170.12249755859375 256.828125 169.10047912597656 242.24517822265625 179.98931884765625 256.2931823730469 C 186.91921997070312 263.6223449707031 171.7388153076172 246.93008422851562 171.2222900390625 256.52874755859375 C 178.42916870117188 265.6917419433594 200.0615234375 270.14508056640625 213.93243408203125 264.8765869140625" stroke-width="0.0" fill="rgb(237, 154, 49)" opacity="0.0001914853" stroke="rgb(0, 0, 0)" stroke-opacity="1.0" stroke-linecap="round" stroke-linejoin="round"/>
    <path d="M 209.88958740234375 257.8735656738281 C 187.38363647460938 256.07342529296875 189.2911834716797 254.94287109375 200.67068481445312 256.2620544433594 C 200.53598022460938 251.7423553466797 177.79360961914062 253.62442016601562 173.6835479736328 251.82904052734375 C 188.7116241455078 244.3055877685547 192.42108154296875 234.262939453125 192.3961944580078 228.25518798828125 C 191.89898681640625 238.15069580078125 213.59388732910156 245.2864227294922 209.88958740234375 257.8735656738281" stroke-width="0.0" fill="rgb(254, 235, 35)" opacity="0.0030478747" stroke="rgb(0, 0, 0)" stroke-opacity="1.0" stroke-linecap="round" stroke-linejoin="round"/>
    <path d="M 185.23977661132812 347.15936279296875 C 187.8927764892578 342.552001953125 175.71929931640625 330.8782043457031 186.6348419189453 331.7310791015625 C 177.3927764892578 340.10565185546875 177.62542724609375 328.3204040527344 177.6310272216797 327.0428161621094 C 181.17584228515625 337.799072265625 180.7416229248047 336.1064453125 183.92356872558594 320.7579650878906 C 195.6826934814453 319.5504455566406 187.2812042236328 316.3045959472656 185.23977661132812 347.15936279296875" stroke-width="0.0" fill="rgb(255, 155, 63)" opacity="0.021006642" stroke="rgb(0, 0, 0)" stroke-opacity="1.0" stroke-linecap="round" stroke-linejoin="round"/>
    <path d="M 72.56538391113281 116.784423828125 C 117.19591522216797 177.43597412109375 102.75518798828125 169.8421630859375 88.6025161743164 152.75352478027344 C 58.526466369628906 154.14144897460938 52.9992561340332 134.30184936523438 42.68014907836914 137.11468505859375 C 36.45821762084961 118.65260314941406 61.18460464477539 113.03333282470703 106.4394302368164 103.64374542236328 C 96.76097106933594 71.30699920654297 84.49309539794922 83.35665893554688 72.56538391113281 116.784423828125" stroke-width="0.0" fill="rgb(21, 9, 180)" opacity="0.026619397" stroke="rgb(0, 0, 0)" stroke-opacity="1.0" stroke-linecap="round" stroke-linejoin="round"/>
    <path d="M 65.78934478759766 118.77937316894531 C 55.70881652832031 162.9398193359375 62.20294189453125 172.01116943359375 65.71845245361328 176.53086853027344 C 7.173670768737793 194.55859375 -28.73943328857422 190.66651916503906 -38.34626007080078 160.65414428710938 C -43.84844970703125 119.39342498779297 -3.4318602085113525 130.48573303222656 33.19981384277344 127.0635986328125 C 43.73671340942383 110.8225326538086 73.1468734741211 110.42237091064453 65.78934478759766 118.77937316894531" stroke-width="0.0" fill="rgb(29, 27, 117)" opacity="0.13192385" stroke="rgb(0, 0, 0)" stroke-opacity="1.0" stroke-linecap="round" stroke-linejoin="round"/>
    <path d="M 104.43724060058594 159.44808959960938 C 147.83880615234375 143.58602905273438 139.34413146972656 161.9479217529297 123.73443603515625 177.0767822265625 C 122.71341705322266 183.12738037109375 118.38610076904297 170.90579223632812 101.36227416992188 158.61209106445312 C 86.07828521728516 149.98223876953125 88.54745483398438 134.38031005859375 107.127197265625 140.32940673828125 C 104.7947998046875 138.46832275390625 98.2685775756836 160.8024444580078 104.43724060058594 159.44808959960938" stroke-width="0.0" fill="rgb(6, 33, 210)" opacity="0.016672164" stroke="rgb(0, 0, 0)" stroke-opacity="1.0" stroke-linecap="round" stroke-linejoin="round"/>
    <path d="M 410.77313232421875 222.8632049560547 C 448.1716003417969 246.6595001220703 446.4822998046875 283.06048583984375 380.21246337890625 300.60302734375 C 323.8140563964844 240.6450653076172 298.33392333984375 257.4919738769531 327.89947509765625 201.83473205566406 C 337.1545715332031 192.1630096435547 345.471923828125 179.46263122558594 348.3002014160156 157.7905731201172 C 376.3193054199219 197.39259338378906 425.7932434082031 190.26495361328125 410.77313232421875 222.8632049560547" stroke-width="0.0" fill="rgb(255, 254, 183)" opacity="1.0" stroke="rgb(0, 0, 0)" stroke-opacity="1.0" stroke-linecap="round" stroke-linejoin="round"/>
    <path d="M 359.40545654296875 154.0701141357422 C 342.5323791503906 209.8390655517578 355.3826599121094 258.0951843261719 322.77117919921875 271.9222412109375 C 246.922607421875 240.55325317382812 287.0854187011719 229.80206298828125 327.52374267578125 180.59967041015625 C 277.74951171875 171.429931640625 252.24427795410156 175.35585021972656 278.14801025390625 156.714111328125 C 324.54229736328125 130.29074096679688 336.5474548339844 121.96552276611328 359.40545654296875 154.0701141357422" stroke-width="0.0" fill="rgb(255, 242, 134)" opacity="1.0" stroke="rgb(0, 0, 0)" stroke-opacity="1.0" stroke-linecap="round" stroke-linejoin="round"/>
    <path d="M 177.8905792236328 53.961341857910156 C 144.607666015625 58.66843795776367 125.6751708984375 56.02727127075195 125.57795715332031 51.055633544921875 C 73.21399688720703 50.756587982177734 94.52137756347656 78.04612731933594 83.6759033203125 12.042695999145508 C 70.90983581542969 -39.292686462402344 117.13795471191406 -18.616682052612305 153.0920867919922 -6.008008003234863 C 210.44976806640625 -12.311970710754395 201.67654418945312 -2.1892294883728027 177.8905792236328 53.961341857910156" stroke-width="0.0" fill="rgb(1, 21, 104)" opacity="0.024607422" stroke="rgb(0, 0, 0)" stroke-opacity="1.0" stroke-linecap="round" stroke-linejoin="round"/>
    <path d="M 45.9896125793457 328.96875 C 62.55485534667969 352.19293212890625 70.52704620361328 362.4203796386719 33.61847686767578 358.93804931640625 C 31.682544708251953 343.89910888671875 32.03621292114258 344.85699462890625 35.17688751220703 303.4673156738281 C 19.688968658447266 295.54974365234375 29.04279136657715 297.0038146972656 24.86518096923828 311.82244873046875 C 41.873409271240234 313.0724182128906 48.690738677978516 307.5282287597656 45.9896125793457 328.96875" stroke-width="0.0" fill="rgb(16, 21, 160)" opacity="0.31193507" stroke="rgb(0, 0, 0)" stroke-opacity="1.0" stroke-linecap="round" stroke-linejoin="round"/>
    <path d="M 253.658935546875 56.6189079284668 C 215.14666748046875 47.315494537353516 227.06689453125 74.13037872314453 238.839599609375 73.02701568603516 C 241.88754272460938 46.90653610229492 239.98196411132812 56.700538635253906 205.8771514892578 37.13453674316406 C 235.6335906982422 35.46003723144531 252.9552459716797 29.664274215698242 268.0994873046875 23.36664390563965 C 235.66476440429688 24.17436981201172 240.4743194580078 21.390182495117188 253.658935546875 56.6189079284668" stroke-width="0.0" fill="rgb(8, 66, 43)" opacity="0.06701549" stroke="rgb(0, 0, 0)" stroke-opacity="1.0" stroke-linecap="round" stroke-linejoin="round"/>
    <path d="M 123.36648559570312 339.6955871582031 C 107.55708312988281 342.4718017578125 114.50020599365234 372.7256164550781 134.8745574951172 347.07611083984375 C 116.5135498046875 329.6750183105469 115.55950164794922 338.452392578125 118.24354553222656 324.6539611816406 C 104.59542083740234 321.4732666015625 103.6548080444336 291.3415222167969 124.46587371826172 311.891357421875 C 141.93751525878906 312.1676940917969 144.67709350585938 327.48193359375 123.36648559570312 339.6955871582031" stroke-width="0.0" fill="rgb(216, 73, 174)" opacity="0.17808865" stroke="rgb(0, 0, 0)" stroke-opacity="1.0" stroke-linecap="round" stroke-linejoin="round"/>
    <path d="M 224.39913940429688 382.90460205078125 C 217.8390350341797 397.30828857421875 229.89370727539062 388.01043701171875 201.90647888183594 380.2431335449219 C 180.39132690429688 368.8052673339844 187.92596435546875 355.6749267578125 185.6946563720703 355.06512451171875 C 175.9379119873047 369.69366455078125 182.4697723388672 372.216796875 189.39918518066406 359.3061828613281 C 170.58958435058594 384.7693176269531 185.2167510986328 393.49066162109375 224.39913940429688 382.90460205078125" stroke-width="0.0" fill="rgb(241, 50, 129)" opacity="0.0003694992" stroke="rgb(0, 0, 0)" stroke-opacity="1.0" stroke-linecap="round" stroke-linejoin="round"/>
    <path d="M 47.993553161621094 186.42269897460938 C 53.15715408325195 182.28668212890625 29.95888328552246 184.81576538085938 87.28726959228516 131.623046875 C 98.8395767211914 180.12808227539062 84.23538970947266 198.72256469726562 39.275203704833984 241.33213806152344 C -7.864345550537109 204.8967742919922 -13.720727920532227 185.34078979492188 14.700604438781738 118.3089599609375 C 64.73745727539062 139.40667724609375 47.2176628112793 170.83192443847656 47.993553161621094 186.42269897460938" stroke-width="0.0" fill="rgb(44, 26, 126)" opacity="0.06342131" stroke="rgb(0, 0, 0)" stroke-opacity="1.0" stroke-linecap="round" stroke-linejoin="round"/>
    <path d="M 418.681884765625 326.43914794921875 C 459.9603271484375 319.66973876953125 452.4967346191406 324.4193115234375 411.013916015625 326.7591247558594 C 427.6535949707031 308.0714111328125 405.951171875 310.2315673828125 415.6042175292969 263.8685607910156 C 407.2259216308594 246.8042449951172 408.0232238769531 251.5405731201172 422.9747619628906 229.0838623046875 C 450.34014892578125 262.8857727050781 443.2777404785156 278.406982421875 418.681884765625 326.43914794921875" stroke-width="0.0" fill="rgb(13, 24, 102)" opacity="0.0" stroke="rgb(0, 0, 0)" stroke-opacity="1.0" stroke-linecap="round" stroke-linejoin="round"/>
    <path d="M 39.27482223510742 144.03289794921875 C 47.49094009399414 164.2523956298828 34.45308303833008 158.5142364501953 38.53759765625 106.66094207763672 C -9.542922019958496 128.07481384277344 -32.40907669067383 127.22264862060547 -1.5000383853912354 145.27931213378906 C 0.4175984859466553 117.41194915771484 13.013312339782715 113.17366790771484 25.23929214477539 132.64212036132812 C 29.933324813842773 136.2779998779297 39.07975387573242 176.05767822265625 39.27482223510742 144.03289794921875" stroke-width="0.0" fill="rgb(22, 33, 133)" opacity="0.0396715" stroke="rgb(0, 0, 0)" stroke-opacity="1.0" stroke-linecap="round" stroke-linejoin="round"/>
    <path d="M 528.7619018554688 245.37025451660156 C 529.0897827148438 243.45973205566406 526.4285888671875 247.26336669921875 514.6906127929688 254.97039794921875 C 478.6252136230469 274.3846130371094 472.4870300292969 258.6304931640625 481.9422912597656 255.45993041992188 C 476.6117858886719 270.0786437988281 486.5970153808594 259.1746520996094 475.3782653808594 235.9959259033203 C 507.59625244140625 246.7885284423828 525.201904296875 239.25796508789062 528.7619018554688 245.37025451660156" stroke-width="0.0" fill="rgb(33, 31, 155)" opacity="0.013403516" stroke="rgb(0, 0, 0)" stroke-opacity="1.0" stroke-linecap="round" stroke-linejoin="round"/>
    <path d="M 236.94732666015625 119.5086898803711 C 252.67881774902344 121.02295684814453 255.95559692382812 100.13448333740234 224.03042602539062 104.02323913574219 C 222.2711639404297 97.54019927978516 202.4135284423828 75.18678283691406 206.46661376953125 97.19073486328125 C 208.93292236328125 102.88047790527344 215.71478271484375 95.34090423583984 218.68006896972656 77.76952362060547 C 226.1046600341797 93.24829864501953 226.3983154296875 112.62277221679688 236.94732666015625 119.5086898803711" stroke-width="0.0" fill="rgb(254, 199, 0)" opacity="0.6453499" stroke="rgb(0, 0, 0)" stroke-opacity="1.0" stroke-linecap="round" stroke-linejoin="round"/>
    <path d="M 461.3949279785156 282.3160705566406 C 458.20489501953125 295.2917785644531 457.7969055175781 289.63348388671875 407.62969970703125 291.7192077636719 C 399.82049560546875 326.2878112792969 403.7765197753906 291.8832092285156 429.4022216796875 280.3483581542969 C 421.91839599609375 279.3352966308594 425.5821228027344 261.31097412109375 481.3955993652344 240.98443603515625 C 457.94171142578125 244.64967346191406 458.8111572265625 267.1195983886719 461.3949279785156 282.3160705566406" stroke-width="0.0" fill="rgb(19, 63, 90)" opacity="0.001280901" stroke="rgb(0, 0, 0)" stroke-opacity="1.0" stroke-linecap="round" stroke-linejoin="round"/>
    <path d="M 567.3915405273438 121.81813049316406 C 533.7915649414062 142.55172729492188 504.8523864746094 130.53028869628906 479.53192138671875 132.5667724609375 C 488.99847412109375 146.1415252685547 484.66162109375 137.33006286621094 498.926025390625 120.62419891357422 C 493.5865478515625 111.47718811035156 487.7740783691406 118.21678924560547 494.0894470214844 121.82268524169922 C 517.1411743164062 95.67251586914062 519.3734130859375 75.98819732666016 567.3915405273438 121.81813049316406" stroke-width="0.0" fill="rgb(24, 53, 107)" opacity="0.00016685562" stroke="rgb(0, 0, 0)" stroke-opacity="1.0" stroke-linecap="round" stroke-linejoin="round"/>
    <path d="M 532.5430297851562 167.01617431640625 C 528.9552612304688 174.5453643798828 520.9437255859375 179.36277770996094 511.963623046875 170.6962890625 C 477.6532897949219 179.36256408691406 477.7066650390625 187.75045776367188 486.02825927734375 137.62899780273438 C 466.1776123046875 134.39285278320312 502.1560363769531 136.07489013671875 526.470703125 134.89088439941406 C 527.8495483398438 141.11940002441406 534.4315795898438 148.83868408203125 532.5430297851562 167.01617431640625" stroke-width="0.0" fill="rgb(18, 25, 137)" opacity="0.009823654" stroke="rgb(0, 0, 0)" stroke-opacity="1.0" stroke-linecap="round" stroke-linejoin="round"/>
    <path d="M 71.7015609741211 349.9810485839844 C 101.89947509765625 340.702392578125 99.0816879272461 354.9202575683594 88.0503158569336 343.87591552734375 C 81.756591796875 328.5531005859375 49.35256576538086 342.5954284667969 43.0990104675293 347.8194274902344 C 45.973114013671875 335.4877014160156 35.68401336669922 339.2540588378906 62.79494857788086 335.01593017578125 C 75.50967407226562 325.0002136230469 69.67755889892578 370.21917724609375 71.7015609741211 349.9810485839844" stroke-width="0.0" fill="rgb(52, 15, 125)" opacity="0.09616024" stroke="rgb(0, 0, 0)" stroke-opacity="1.0" stroke-linecap="round" stroke-linejoin="round"/>
    <path d="M 353.72943115234375 242.6576385498047 C 350.8749084472656 264.4609069824219 340.0292663574219 255.6851806640625 329.58203125 229.50738525390625 C 296.01580810546875 222.41383361816406 300.11895751953125 248.0828094482422 309.1212463378906 253.3192138671875 C 304.1605224609375 248.6573486328125 335.95599365234375 268.0040588378906 359.2774658203125 239.65708923339844 C 337.9558410644531 212.97808837890625 347.33447265625 227.7471923828125 353.72943115234375 242.6576385498047" stroke-width="0.0" fill="rgb(44, 7, 211)" opacity="0.011607747" stroke="rgb(0, 0, 0)" stroke-opacity="1.0" stroke-linecap="round" stroke-linejoin="round"/>
    <path d="M 516.4021606445312 124.40161895751953 C 511.0098876953125 154.53359985351562 501.09674072265625 157.39315795898438 482.5265808105469 160.4111328125 C 472.9859313964844 139.17124938964844 463.77911376953125 135.05270385742188 459.811279296875 125.02184295654297 C 482.40679931640625 128.94308471679688 499.6863708496094 128.4339599609375 477.16534423828125 133.9299774169922 C 477.52685546875 138.02174377441406 480.8536071777344 134.16152954101562 516.4021606445312 124.40161895751953" stroke-width="0.0" fill="rgb(5, 18, 128)" opacity="0.0" stroke="rgb(0, 0, 0)" stroke-opacity="1.0" stroke-linecap="round" stroke-linejoin="round"/>
    <path d="M 469.89288330078125 490.7529296875 C 523.5791625976562 497.545654296875 483.0837097167969 474.613037109375 452.141357421875 471.6529541015625 C 461.36187744140625 465.7964782714844 448.3593444824219 462.2151794433594 464.2680969238281 452.5787048339844 C 460.1664123535156 462.07830810546875 463.5643615722656 449.9282531738281 457.1430358886719 439.41400146484375 C 480.001220703125 431.6892395019531 473.1408386230469 446.9446105957031 469.89288330078125 490.7529296875" stroke-width="0.0" fill="rgb(21, 11, 137)" opacity="0.0051719174" stroke="rgb(0, 0, 0)" stroke-opacity="1.0" stroke-linecap="round" stroke-linejoin="round"/>
    <path d="M 519.345947265625 372.4474792480469 C 509.8602294921875 384.9676208496094 500.8203430175781 384.2267150878906 502.26007080078125 364.5224914550781 C 490.1460876464844 386.07586669921875 492.37213134765625 382.7492980957031 493.6744384765625 362.84906005859375 C 455.0063781738281 347.3493957519531 448.4123229980469 337.9866027832031 490.8143615722656 343.4360046386719 C 494.12908935546875 366.69244384765625 509.0590515136719 368.9474182128906 519.345947265625 372.4474792480469" stroke-width="0.0" fill="rgb(11, 32, 127)" opacity="0.0064769774" stroke="rgb(0, 0, 0)" stroke-opacity="1.0" stroke-linecap="round" stroke-linejoin="round"/>
    <path d="M 173.4903106689453 430.87921142578125 C 166.73851013183594 435.8130187988281 162.28822326660156 454.83270263671875 141.87242126464844 446.8122253417969 C 139.69764709472656 447.92919921875 118.99961853027344 447.3174133300781 137.45741271972656 431.7355651855469 C 135.97206115722656 398.84173583984375 113.67279052734375 384.30328369140625 157.5570831298828 394.2637634277344 C 164.09654235839844 389.8489074707031 158.58889770507812 449.1422424316406 173.4903106689453 430.87921142578125" stroke-width="0.0" fill="rgb(0, 0, 219)" opacity="0.05191612" stroke="rgb(0, 0, 0)" stroke-opacity="1.0" stroke-linecap="round" stroke-linejoin="round"/>
    <path d="M 92.06160736083984 179.3673095703125 C 105.24696350097656 205.1431121826172 113.70152282714844 191.4808807373047 71.33904266357422 183.15333557128906 C 83.00237274169922 190.0174560546875 80.680908203125 194.80751037597656 98.43102264404297 166.74679565429688 C 80.26651763916016 142.06224060058594 76.13029479980469 153.17857360839844 68.0418701171875 152.05923461914062 C 94.29368591308594 147.9945526123047 96.30879211425781 150.21054077148438 92.06160736083984 179.3673095703125" stroke-width="0.0" fill="rgb(27, 4, 176)" opacity="0.0" stroke="rgb(0, 0, 0)" stroke-opacity="1.0" stroke-linecap="round" stroke-linejoin="round"/>
    <path d="M 165.20425415039062 97.0732192993164 C 167.7589569091797 116.50285339355469 163.71163940429688 122.61260223388672 166.40443420410156 157.85899353027344 C 160.55886840820312 151.91525268554688 166.6772003173828 129.25559997558594 156.93905639648438 147.50733947753906 C 149.18455505371094 127.18043518066406 179.7482147216797 124.05925750732422 189.0042724609375 136.36538696289062 C 175.93954467773438 120.28471374511719 192.89169311523438 103.23827362060547 165.20425415039062 97.0732192993164" stroke-width="0.0" fill="rgb(182, 209, 134)" opacity="0.053147957" stroke="rgb(0, 0, 0)" stroke-opacity="1.0" stroke-linecap="round" stroke-linejoin="round"/>
    <path d="M 157.2790985107422 403.0888977050781 C 165.51510620117188 365.5015869140625 161.5215606689453 381.7890625 141.31101989746094 381.0325927734375 C 149.9029541015625 384.48773193359375 144.58702087402344 391.3816833496094 146.97630310058594 390.9181823730469 C 141.02700805664062 400.4230041503906 163.77577209472656 409.2707214355469 154.4893035888672 397.302001953125 C 153.58448791503906 396.79827880859375 161.20887756347656 408.1105041503906 157.2790985107422 403.0888977050781" stroke-width="0.0" fill="rgb(14, 15, 163)" opacity="0.0040432047" stroke="rgb(0, 0, 0)" stroke-opacity="1.0" stroke-linecap="round" stroke-linejoin="round"/>
    <path d="M 457.03192138671875 130.77732849121094 C 458.8841247558594 158.0330810546875 470.6222229003906 153.8045196533203 439.1837463378906 146.5458221435547 C 450.6468505859375 151.75999450683594 432.5757751464844 144.30233764648438 448.83270263671875 128.1533203125 C 453.1288146972656 110.53469848632812 440.18316650390625 108.09751892089844 441.6510925292969 100.62958526611328 C 444.49481201171875 128.8581085205078 432.8728942871094 140.8654022216797 457.03192138671875 130.77732849121094" stroke-width="0.0" fill="rgb(26, 12, 182)" opacity="0.008371775" stroke="rgb(0, 0, 0)" stroke-opacity="1.0" stroke-linecap="round" stroke-linejoin="round"/>
    <path d="M 229.01971435546875 322.16949462890625 C 253.43795776367188 317.306396484375 250.02442932128906 330.2454833984375 268.1293640136719 324.07061767578125 C 233.73435974121094 303.0563049316406 211.7283172607422 311.87042236328125 229.10968017578125 346.2048034667969 C 236.94903564453125 302.302734375 251.29177856445312 298.82940673828125 246.9188232421875 286.1441955566406 C 240.4656219482422 310.3610534667969 255.70101928710938 324.686767578125 229.01971435546875 322.16949462890625" stroke-width="0.0" fill="rgb(180, 41, 128)" opacity="0.031585306" stroke="rgb(0, 0, 0)" stroke-opacity="1.0" stroke-linecap="round" stroke-linejoin="round"/>
    <path d="M 115.19469451904297 448.0054016113281 C 117.6654052734375 492.2641296386719 143.9896240234375 491.78680419921875 143.36111450195312 488.47210693359375 C 153.88067626953125 464.5415344238281 160.2189178466797 476.39697265625 125.07009887695312 482.8642578125 C 92.21268463134766 467.5478820800781 95.36983489990234 464.928955078125 150.5035400390625 462.67755126953125 C 170.73167419433594 417.5147399902344 152.3231964111328 440.1539306640625 115.19469451904297 448.0054016113281" stroke-width="0.0" fill="rgb(7, 59, 77)" opacity="0.004446331" stroke="rgb(0, 0, 0)" stroke-opacity="1.0" stroke-linecap="round" stroke-linejoin="round"/>
  </g>
</svg>
