<?xml version="1.0" ?>
<svg xmlns="http://www.w3.org/2000/svg" version="1.1" width="512" height="512">
  <defs/>
  <g>
    <path d="M 544.9064331054688 466.3401794433594 C 548.88232421875 518.2211303710938 549.809814453125 525.8021850585938 364.34869384765625 546.1268310546875 C 308.9438781738281 566.941650390625 284.1558837890625 566.9180908203125 234.76025390625 462.7225646972656 C 281.2510070800781 319.68548583984375 381.22454833984375 354.7803649902344 510.23883056640625 361.9175109863281 C 573.785888671875 336.7617492675781 576.8912963867188 353.01751708984375 544.9064331054688 466.3401794433594" stroke-width="0.0" fill="rgb(8, 16, 165)" opacity="0.9350685" stroke="rgb(0, 0, 0)" stroke-opacity="1.0" stroke-linecap="round" stroke-linejoin="round"/>
    <path d="M 289.14263916015625 491.621337890625 C 323.54168701171875 539.5818481445312 345.873046875 533.5531616210938 217.8776397705078 527.9522094726562 C -59.343788146972656 528.9669799804688 -60.32487869262695 520.5524291992188 -59.99741744995117 458.4700927734375 C -35.039093017578125 180.07431030273438 -27.165788650512695 172.19297790527344 37.226051330566406 174.4556884765625 C 147.58157348632812 304.9817199707031 173.69302368164062 306.47711181640625 289.14263916015625 491.621337890625" stroke-width="0.0" fill="rgb(25, 53, 202)" opacity="0.964825" stroke="rgb(0, 0, 0)" stroke-opacity="1.0" stroke-linecap="round" stroke-linejoin="round"/>
    <path d="M 323.14404296875 339.1834716796875 C 287.9748229980469 420.0270080566406 285.10247802734375 418.1539001464844 208.8528289794922 440.667724609375 C 77.97679138183594 352.312255859375 113.45896911621094 290.9113464355469 76.93489837646484 149.96646118164062 C 37.96615982055664 191.56552124023438 40.150665283203125 179.50924682617188 113.06221771240234 177.69876098632812 C 274.42462158203125 168.42735290527344 308.3131103515625 131.74635314941406 323.14404296875 339.1834716796875" stroke-width="0.0" fill="rgb(255, 233, 0)" opacity="1.0" stroke="rgb(0, 0, 0)" stroke-opacity="1.0" stroke-linecap="round" stroke-linejoin="round"/>
    <path d="M 252.91146850585938 5.999950885772705 C 264.53485107421875 240.3688201904297 244.8305206298828 183.37718200683594 40.96641159057617 258.5127258300781 C -42.86746597290039 227.04246520996094 -30.024293899536133 199.8769989013672 -16.767757415771484 154.89317321777344 C -16.494123458862305 -18.97837257385254 -10.838438034057617 -25.126850128173828 50.80177688598633 -43.942203521728516 C 217.40211486816406 -44.90153503417969 236.65969848632812 -51.010250091552734 252.91146850585938 5.999950885772705" stroke-width="0.0" fill="rgb(25, 44, 207)" opacity="0.9956864" stroke="rgb(0, 0, 0)" stroke-opacity="1.0" stroke-linecap="round" stroke-linejoin="round"/>
    <path d="M 569.7445678710938 64.56414794921875 C 447.8923645019531 287.4874572753906 437.1400451660156 292.76873779296875 347.724853515625 323.910888671875 C 263.6494445800781 350.3061828613281 288.9356994628906 319.43743896484375 241.16090393066406 186.8217010498047 C 265.249755859375 3.03747296333313 193.92193603515625 -24.688915252685547 349.2337341308594 -22.77216148376465 C 563.2000122070312 -5.52442741394043 563.2000122070312 4.830130577087402 569.7445678710938 64.56414794921875" stroke-width="0.0" fill="rgb(3, 29, 193)" opacity="0.92284644" stroke="rgb(0, 0, 0)" stroke-opacity="1.0" stroke-linecap="round" stroke-linejoin="round"/>
    <path d="M 344.46337890625 71.80199432373047 C 312.63116455078125 282.43902587890625 239.7025604248047 271.9073486328125 161.8806610107422 234.58248901367188 C 50.45601272583008 239.18829345703125 28.60759162902832 232.3528594970703 80.16673278808594 216.22982788085938 C 103.28781127929688 146.6632843017578 115.15946197509766 131.40516662597656 297.0376281738281 15.484808921813965 C 288.4567565917969 -9.438246726989746 288.0237121582031 -3.7863852977752686 344.46337890625 71.80199432373047" stroke-width="0.0" fill="rgb(71, 123, 0)" opacity="1.0" stroke="rgb(0, 0, 0)" stroke-opacity="1.0" stroke-linecap="round" stroke-linejoin="round"/>
    <path d="M 448.2066955566406 308.2552795410156 C 430.91998291015625 385.40655517578125 454.1585388183594 475.05963134765625 333.4338073730469 456.8111267089844 C 290.32049560546875 416.3938293457031 267.5937194824219 420.5714416503906 259.9173889160156 403.2767028808594 C 258.70880126953125 173.417236328125 241.75985717773438 181.54945373535156 346.65289306640625 194.2371063232422 C 431.5415954589844 255.0393524169922 454.5093688964844 256.00286865234375 448.2066955566406 308.2552795410156" stroke-width="0.0" fill="rgb(255, 186, 0)" opacity="1.0" stroke="rgb(0, 0, 0)" stroke-opacity="1.0" stroke-linecap="round" stroke-linejoin="round"/>
    <path d="M 562.8385009765625 185.1155242919922 C 573.448486328125 344.07049560546875 574.883056640625 362.30157470703125 467.7267150878906 425.56591796875 C 348.4629211425781 409.9118957519531 390.39599609375 342.4407958984375 383.7546691894531 276.2552185058594 C 375.8070373535156 209.49900817871094 419.1368713378906 162.01866149902344 556.17919921875 103.56803894042969 C 563.2000122070312 76.2098159790039 563.2000122070312 99.41815185546875 562.8385009765625 185.1155242919922" stroke-width="0.0" fill="rgb(17, 26, 193)" opacity="0.9999905" stroke="rgb(0, 0, 0)" stroke-opacity="1.0" stroke-linecap="round" stroke-linejoin="round"/>
    <path d="M 438.84906005859375 241.99600219726562 C 439.15277099609375 325.1335754394531 394.100341796875 255.67469787597656 322.7831726074219 279.6756591796875 C 304.0055236816406 282.1590270996094 265.2032470703125 235.6907196044922 143.46087646484375 231.25721740722656 C 194.54774475097656 137.40980529785156 235.50462341308594 189.83413696289062 348.3183898925781 171.0486297607422 C 364.58203125 159.54136657714844 407.8469543457031 187.66322326660156 438.84906005859375 241.99600219726562" stroke-width="0.0" fill="rgb(194, 70, 74)" opacity="1.0" stroke="rgb(0, 0, 0)" stroke-opacity="1.0" stroke-linecap="round" stroke-linejoin="round"/>
    <path d="M 469.4101867675781 250.33743286132812 C 493.21197509765625 321.5744934082031 465.9503173828125 435.8934020996094 383.9000549316406 445.3022766113281 C 353.26080322265625 303.96051025390625 405.2921142578125 239.80943298339844 313.322509765625 167.4217071533203 C 388.4676818847656 166.31671142578125 379.7691650390625 232.18243408203125 335.11517333984375 177.35983276367188 C 425.3981628417969 111.18479919433594 467.7229919433594 244.48977661132812 469.4101867675781 250.33743286132812" stroke-width="0.0" fill="rgb(255, 156, 0)" opacity="1.0" stroke="rgb(0, 0, 0)" stroke-opacity="1.0" stroke-linecap="round" stroke-linejoin="round"/>
    <path d="M 359.44720458984375 61.83278274536133 C 284.48834228515625 48.1330451965332 254.49151611328125 83.04716491699219 252.17681884765625 153.81076049804688 C 212.73568725585938 203.56993103027344 190.6694793701172 142.0849151611328 109.382080078125 163.6079864501953 C 113.52033996582031 -21.946962356567383 114.3302993774414 -39.71502685546875 235.3032989501953 -76.35740661621094 C 347.9001159667969 -55.71435546875 349.5381774902344 -4.746360778808594 359.44720458984375 61.83278274536133" stroke-width="0.0" fill="rgb(26, 54, 194)" opacity="1.0" stroke="rgb(0, 0, 0)" stroke-opacity="1.0" stroke-linecap="round" stroke-linejoin="round"/>
    <path d="M 319.193359375 429.81109619140625 C 273.1603088378906 486.3019714355469 213.22897338867188 453.62335205078125 191.77357482910156 395.645263671875 C 155.33045959472656 347.9232177734375 116.40382385253906 382.48638916015625 183.55494689941406 432.7216796875 C 139.14541625976562 382.55987548828125 156.2029266357422 294.451171875 141.4332733154297 307.869140625 C 225.05941772460938 363.293701171875 173.0881805419922 363.12115478515625 319.193359375 429.81109619140625" stroke-width="0.0" fill="rgb(255, 189, 0)" opacity="1.0" stroke="rgb(0, 0, 0)" stroke-opacity="1.0" stroke-linecap="round" stroke-linejoin="round"/>
    <path d="M 480.41265869140625 415.28216552734375 C 471.2257385253906 439.74066162109375 465.6317138671875 449.62518310546875 417.69635009765625 453.66143798828125 C 413.047119140625 486.76715087890625 388.0206298828125 472.30267333984375 348.8344421386719 451.0294189453125 C 384.007080078125 437.1400146484375 453.7725830078125 433.58294677734375 438.98651123046875 423.7831115722656 C 432.2196044921875 415.7178039550781 476.9721374511719 416.26226806640625 480.41265869140625 415.28216552734375" stroke-width="0.0" fill="rgb(28, 4, 166)" opacity="0.05060415" stroke="rgb(0, 0, 0)" stroke-opacity="1.0" stroke-linecap="round" stroke-linejoin="round"/>
    <path d="M 378.76226806640625 432.60333251953125 C 343.94482421875 487.5111389160156 336.6380310058594 483.41766357421875 295.1856994628906 483.4416198730469 C 254.5039520263672 451.70916748046875 247.29205322265625 436.3721618652344 212.84906005859375 440.1153259277344 C 220.70068359375 462.67376708984375 272.4327392578125 477.9760437011719 290.36883544921875 455.973876953125 C 309.8287658691406 474.2330627441406 365.9723205566406 450.033447265625 378.76226806640625 432.60333251953125" stroke-width="0.0" fill="rgb(30, 1, 201)" opacity="0.88822776" stroke="rgb(0, 0, 0)" stroke-opacity="1.0" stroke-linecap="round" stroke-linejoin="round"/>
    <path d="M 309.4893493652344 303.92169189453125 C 227.9347381591797 257.468017578125 205.91693115234375 286.22955322265625 252.77865600585938 313.0109558105469 C 167.52981567382812 332.10040283203125 171.61273193359375 284.2694091796875 161.29779052734375 269.14111328125 C 150.57431030273438 234.66903686523438 167.4768524169922 187.85317993164062 239.69195556640625 174.11862182617188 C 308.50213623046875 181.4590606689453 331.80133056640625 189.5389862060547 309.4893493652344 303.92169189453125" stroke-width="0.0" fill="rgb(255, 237, 0)" opacity="1.0" stroke="rgb(0, 0, 0)" stroke-opacity="1.0" stroke-linecap="round" stroke-linejoin="round"/>
    <path d="M 455.22906494140625 448.9765625 C 413.0128173828125 469.1051940917969 410.635009765625 465.3857116699219 376.2828369140625 472.2594299316406 C 335.20904541015625 483.6054992675781 301.0249328613281 505.0658874511719 271.4281005859375 484.5406799316406 C 327.3987121582031 444.2492980957031 358.3890380859375 454.0335998535156 396.2458190917969 443.6481018066406 C 464.272705078125 409.3701171875 453.22003173828125 408.4312744140625 455.22906494140625 448.9765625" stroke-width="0.0" fill="rgb(21, 20, 188)" opacity="0.9580297" stroke="rgb(0, 0, 0)" stroke-opacity="1.0" stroke-linecap="round" stroke-linejoin="round"/>
    <path d="M 277.5763854980469 224.34938049316406 C 244.84475708007812 285.1328125 200.56101989746094 333.07855224609375 292.2425537109375 307.60235595703125 C 269.9068298339844 368.2132873535156 236.88507080078125 358.0156555175781 198.812744140625 382.2663879394531 C 300.9488525390625 396.47332763671875 325.6880187988281 395.0419006347656 284.30340576171875 373.8197326660156 C 295.80377197265625 392.7855224609375 301.4079284667969 403.9244079589844 277.5763854980469 224.34938049316406" stroke-width="0.0" fill="rgb(9, 8, 139)" opacity="0.94583505" stroke="rgb(0, 0, 0)" stroke-opacity="1.0" stroke-linecap="round" stroke-linejoin="round"/>
    <path d="M 215.7790985107422 169.60926818847656 C 73.23312377929688 91.47299194335938 46.70893859863281 451.8898620605469 184.2255859375 443.698486328125 C 118.87821197509766 294.1000061035156 302.580810546875 135.40548706054688 122.24893951416016 174.60243225097656 C 22.364730834960938 282.6337585449219 59.49931716918945 226.30174255371094 122.96635437011719 175.37738037109375 C 138.41006469726562 348.1170654296875 128.210693359375 240.95262145996094 215.7790985107422 169.60926818847656" stroke-width="0.0" fill="rgb(255, 163, 0)" opacity="1.0" stroke="rgb(0, 0, 0)" stroke-opacity="1.0" stroke-linecap="round" stroke-linejoin="round"/>
    <path d="M 356.28668212890625 154.5704803466797 C 355.1315612792969 161.6632843017578 340.03466796875 152.50765991210938 323.0207214355469 170.7451171875 C 330.4837341308594 174.37599182128906 319.3041076660156 163.27679443359375 298.0166931152344 122.96253204345703 C 261.350830078125 143.0396728515625 286.28857421875 143.83409118652344 314.57611083984375 91.05101776123047 C 356.6376037597656 102.72372436523438 352.32537841796875 60.30601119995117 356.28668212890625 154.5704803466797" stroke-width="0.0" fill="rgb(10, 13, 255)" opacity="0.9664896" stroke="rgb(0, 0, 0)" stroke-opacity="1.0" stroke-linecap="round" stroke-linejoin="round"/>
    <path d="M 140.47885131835938 180.79595947265625 C 96.9997787475586 227.93887329101562 77.06119537353516 305.0937194824219 82.82813262939453 370.63018798828125 C 37.88121795654297 328.5986633300781 8.933103561401367 284.05645751953125 -42.13862228393555 208.12338256835938 C 38.27924728393555 212.31077575683594 24.83782386779785 173.2255096435547 121.02994537353516 102.01602172851562 C 223.94725036621094 177.90512084960938 176.4093475341797 145.7212677001953 140.47885131835938 180.79595947265625" stroke-width="0.0" fill="rgb(23, 44, 217)" opacity="1.0" stroke="rgb(0, 0, 0)" stroke-opacity="1.0" stroke-linecap="round" stroke-linejoin="round"/>
    <path d="M 245.6468048095703 185.19956970214844 C 180.42018127441406 358.3441162109375 238.7389678955078 385.1434326171875 211.42784118652344 276.3385925292969 C 167.50473022460938 277.6493835449219 138.0762176513672 277.8338623046875 152.6553192138672 229.07916259765625 C 136.8183135986328 253.47018432617188 159.42477416992188 225.12489318847656 160.26380920410156 259.8844909667969 C 174.49659729003906 246.75729370117188 196.23789978027344 196.5265350341797 245.6468048095703 185.19956970214844" stroke-width="0.0" fill="rgb(171, 43, 98)" opacity="1.0" stroke="rgb(0, 0, 0)" stroke-opacity="1.0" stroke-linecap="round" stroke-linejoin="round"/>
    <path d="M 390.145263671875 91.26468658447266 C 357.7414855957031 185.25314331054688 319.5082702636719 6.954264163970947 304.0063171386719 162.3294219970703 C 265.0237731933594 193.78208923339844 257.6222839355469 123.11337280273438 259.6436462402344 119.41710662841797 C 260.6553955078125 91.39009094238281 266.9750061035156 119.96519470214844 288.1612548828125 118.28211212158203 C 319.9016418457031 71.1208267211914 390.7251281738281 46.283447265625 390.145263671875 91.26468658447266" stroke-width="0.0" fill="rgb(69, 121, 0)" opacity="0.99672943" stroke="rgb(0, 0, 0)" stroke-opacity="1.0" stroke-linecap="round" stroke-linejoin="round"/>
    <path d="M 279.46759033203125 132.796875 C 294.0350341796875 160.40750122070312 333.3212585449219 164.8341522216797 351.08038330078125 164.18038940429688 C 309.8360595703125 137.56521606445312 301.2147216796875 132.91456604003906 276.6763916015625 163.9210968017578 C 266.8576965332031 145.974609375 282.3564758300781 153.6492462158203 300.9091796875 170.74679565429688 C 285.7688293457031 178.8433074951172 277.99609375 183.9874267578125 279.46759033203125 132.796875" stroke-width="0.0" fill="rgb(13, 145, 0)" opacity="0.16614959" stroke="rgb(0, 0, 0)" stroke-opacity="1.0" stroke-linecap="round" stroke-linejoin="round"/>
    <path d="M 213.21072387695312 424.6800537109375 C 241.05712890625 430.8388977050781 255.52249145507812 456.9804382324219 202.69677734375 458.41168212890625 C 144.26470947265625 441.0580749511719 148.66331481933594 404.9935302734375 168.7420196533203 373.02392578125 C 201.60092163085938 370.7393798828125 199.8710174560547 370.7367858886719 188.6416473388672 363.91351318359375 C 158.5511016845703 360.6188049316406 172.4795379638672 417.0943908691406 213.21072387695312 424.6800537109375" stroke-width="0.0" fill="rgb(255, 152, 2)" opacity="0.99842155" stroke="rgb(0, 0, 0)" stroke-opacity="1.0" stroke-linecap="round" stroke-linejoin="round"/>
    <path d="M 351.6042175292969 387.1722717285156 C 321.4455871582031 398.08917236328125 332.17413330078125 426.11260986328125 330.0592956542969 400.07269287109375 C 261.0838317871094 425.08660888671875 250.89938354492188 435.0238037109375 276.39788818359375 354.5951843261719 C 306.6269836425781 380.4981689453125 300.265869140625 367.8479309082031 356.146728515625 326.30120849609375 C 428.6000671386719 265.5746765136719 402.3265380859375 324.34417724609375 351.6042175292969 387.1722717285156" stroke-width="0.0" fill="rgb(1, 0, 121)" opacity="0.9940251" stroke="rgb(0, 0, 0)" stroke-opacity="1.0" stroke-linecap="round" stroke-linejoin="round"/>
    <path d="M 258.4157409667969 234.5891876220703 C 228.6386260986328 258.70574951171875 233.18023681640625 281.7076110839844 242.944580078125 267.4385681152344 C 243.80117797851562 265.68389892578125 234.47947692871094 278.15740966796875 205.15904235839844 281.24627685546875 C 228.50656127929688 292.3546447753906 228.81918334960938 276.336181640625 239.29080200195312 272.8121337890625 C 239.22103881835938 245.91128540039062 277.1285095214844 237.17808532714844 258.4157409667969 234.5891876220703" stroke-width="0.0" fill="rgb(254, 169, 23)" opacity="0.025420554" stroke="rgb(0, 0, 0)" stroke-opacity="1.0" stroke-linecap="round" stroke-linejoin="round"/>
    <path d="M 225.9991455078125 340.9018249511719 C 219.34109497070312 445.7101135253906 200.44937133789062 404.28765869140625 174.18759155273438 385.9349060058594 C 154.7996368408203 359.1524963378906 163.68319702148438 340.4333190917969 189.42245483398438 377.0532531738281 C 170.28863525390625 386.9134216308594 151.7489776611328 381.16546630859375 134.76600646972656 278.0910339355469 C 145.0129852294922 303.56671142578125 168.91453552246094 332.3990173339844 225.9991455078125 340.9018249511719" stroke-width="0.0" fill="rgb(0, 0, 114)" opacity="1.0" stroke="rgb(0, 0, 0)" stroke-opacity="1.0" stroke-linecap="round" stroke-linejoin="round"/>
    <path d="M 304.20819091796875 304.8547668457031 C 307.4105529785156 325.17138671875 317.6060485839844 309.41680908203125 283.7381286621094 313.0166015625 C 244.54571533203125 313.45513916015625 235.66831970214844 317.8458251953125 220.90237426757812 313.6084289550781 C 239.76829528808594 289.8517150878906 250.8494415283203 278.2836608886719 268.2714538574219 243.2897491455078 C 290.654541015625 261.4332580566406 287.8470458984375 279.56854248046875 304.20819091796875 304.8547668457031" stroke-width="0.0" fill="rgb(0, 0, 133)" opacity="0.99392295" stroke="rgb(0, 0, 0)" stroke-opacity="1.0" stroke-linecap="round" stroke-linejoin="round"/>
    <path d="M 362.7517395019531 118.1983413696289 C 361.1495056152344 119.13154602050781 344.6060791015625 122.93766784667969 350.5272216796875 93.51002502441406 C 344.6222229003906 82.94346618652344 314.0463562011719 86.49225616455078 318.15985107421875 89.99311828613281 C 316.45880126953125 71.21522521972656 320.2015075683594 92.30421447753906 318.5657958984375 65.489501953125 C 367.1221923828125 55.30841827392578 366.0965576171875 67.24375915527344 362.7517395019531 118.1983413696289" stroke-width="0.0" fill="rgb(88, 122, 0)" opacity="0.996441" stroke="rgb(0, 0, 0)" stroke-opacity="1.0" stroke-linecap="round" stroke-linejoin="round"/>
    <path d="M 291.57989501953125 223.62820434570312 C 279.1709289550781 215.83016967773438 299.9055480957031 237.21446228027344 278.9165344238281 237.46047973632812 C 240.436279296875 214.39747619628906 247.6844024658203 227.45419311523438 264.8746032714844 228.6524658203125 C 272.4873046875 204.3623809814453 275.08404541015625 185.16708374023438 303.2927551269531 172.94827270507812 C 294.4365234375 193.1562957763672 287.3829345703125 211.17051696777344 291.57989501953125 223.62820434570312" stroke-width="0.0" fill="rgb(255, 107, 0)" opacity="0.62199295" stroke="rgb(0, 0, 0)" stroke-opacity="1.0" stroke-linecap="round" stroke-linejoin="round"/>
    <path d="M 297.7885437011719 271.50823974609375 C 287.45245361328125 263.99151611328125 273.0924377441406 256.0087890625 278.7255859375 251.11363220214844 C 294.0241394042969 266.7267150878906 274.9772033691406 259.7737121582031 252.7163543701172 264.165283203125 C 284.1584777832031 262.3201599121094 235.5443115234375 228.1947784423828 277.8961181640625 233.70758056640625 C 282.1669616699219 227.05067443847656 292.0801696777344 241.1676025390625 297.7885437011719 271.50823974609375" stroke-width="0.0" fill="rgb(255, 79, 16)" opacity="0.24259208" stroke="rgb(0, 0, 0)" stroke-opacity="1.0" stroke-linecap="round" stroke-linejoin="round"/>
    <path d="M 384.53692626953125 212.18344116210938 C 389.4671325683594 237.9423828125 402.4646911621094 232.32810974121094 351.18902587890625 191.8563232421875 C 340.4158935546875 202.3955841064453 340.4826354980469 201.612548828125 352.04071044921875 191.6071014404297 C 339.5928039550781 146.54898071289062 324.3211669921875 131.6256561279297 393.94342041015625 142.30746459960938 C 395.4661560058594 179.92376708984375 391.026123046875 203.02671813964844 384.53692626953125 212.18344116210938" stroke-width="0.0" fill="rgb(255, 126, 2)" opacity="0.0" stroke="rgb(0, 0, 0)" stroke-opacity="1.0" stroke-linecap="round" stroke-linejoin="round"/>
    <path d="M 80.7641372680664 457.1729736328125 C 82.86084747314453 462.207275390625 74.63558959960938 446.31146240234375 84.05191040039062 453.8822326660156 C 83.364013671875 455.3197937011719 77.46720123291016 439.5135498046875 76.15142822265625 437.1081848144531 C 59.15784454345703 423.9212341308594 74.9068603515625 444.43572998046875 61.62033462524414 436.223388671875 C 65.19081115722656 450.45892333984375 73.19252014160156 457.6234436035156 80.7641372680664 457.1729736328125" stroke-width="0.0" fill="rgb(32, 60, 190)" opacity="0.38448364" stroke="rgb(0, 0, 0)" stroke-opacity="1.0" stroke-linecap="round" stroke-linejoin="round"/>
    <path d="M 205.5919189453125 330.8670654296875 C 210.3527374267578 368.4794921875 200.03762817382812 352.8786315917969 198.9056396484375 348.1863708496094 C 208.718017578125 313.0578308105469 203.54005432128906 318.36468505859375 204.72366333007812 327.1929931640625 C 185.21641540527344 315.6138916015625 161.87188720703125 321.0032043457031 202.37722778320312 327.5189208984375 C 208.66543579101562 313.2784729003906 213.76649475097656 318.3069152832031 205.5919189453125 330.8670654296875" stroke-width="0.0" fill="rgb(229, 184, 0)" opacity="0.0032455388" stroke="rgb(0, 0, 0)" stroke-opacity="1.0" stroke-linecap="round" stroke-linejoin="round"/>
    <path d="M 37.338199615478516 312.40118408203125 C 41.04694366455078 318.1342468261719 39.822593688964844 326.0237731933594 40.593994140625 327.3118591308594 C 39.19246292114258 316.98565673828125 45.49060821533203 315.8070983886719 44.995521545410156 301.9278564453125 C 45.82473373413086 307.1871337890625 43.9780158996582 309.2620544433594 45.40668869018555 303.892333984375 C 39.8424072265625 317.70245361328125 39.329742431640625 329.9151306152344 37.338199615478516 312.40118408203125" stroke-width="0.0" fill="rgb(0, 81, 151)" opacity="0.36873758" stroke="rgb(0, 0, 0)" stroke-opacity="1.0" stroke-linecap="round" stroke-linejoin="round"/>
    <path d="M 116.66588592529297 448.3866271972656 C 115.22405242919922 440.2701721191406 104.99626159667969 451.83392333984375 102.62568664550781 456.154052734375 C 111.91719818115234 447.295166015625 99.43142700195312 458.009521484375 108.46505737304688 449.9906311035156 C 108.4962158203125 441.6971130371094 111.53768157958984 446.61328125 119.48602294921875 449.09185791015625 C 114.10983276367188 447.307861328125 111.16275024414062 455.4633483886719 116.66588592529297 448.3866271972656" stroke-width="0.0" fill="rgb(63, 65, 157)" opacity="0.3033467" stroke="rgb(0, 0, 0)" stroke-opacity="1.0" stroke-linecap="round" stroke-linejoin="round"/>
    <path d="M 478.3701171875 67.3082046508789 C 479.8681335449219 57.350006103515625 472.9473571777344 58.027732849121094 456.3350830078125 62.7947998046875 C 459.5989074707031 89.70040893554688 457.2892150878906 86.22034454345703 474.8287353515625 87.23699188232422 C 485.0401611328125 79.70398712158203 477.4886779785156 61.573097229003906 474.3624572753906 60.145973205566406 C 508.7663269042969 72.75798034667969 498.5111083984375 64.1803970336914 478.3701171875 67.3082046508789" stroke-width="0.0" fill="rgb(34, 56, 171)" opacity="0.029507585" stroke="rgb(0, 0, 0)" stroke-opacity="1.0" stroke-linecap="round" stroke-linejoin="round"/>
    <path d="M 73.87167358398438 169.2490692138672 C 73.86487579345703 205.24143981933594 77.31343078613281 255.74697875976562 58.94124984741211 249.322021484375 C -52.44325637817383 262.28033447265625 -27.598957061767578 206.955322265625 15.238279342651367 204.3842315673828 C 13.117539405822754 190.2661590576172 34.00013732910156 190.36111450195312 40.94694137573242 150.1243438720703 C 71.27604675292969 141.63931274414062 67.03634643554688 161.026123046875 73.87167358398438 169.2490692138672" stroke-width="0.0" fill="rgb(29, 52, 173)" opacity="0.052298654" stroke="rgb(0, 0, 0)" stroke-opacity="1.0" stroke-linecap="round" stroke-linejoin="round"/>
    <path d="M 302.3533630371094 370.2518310546875 C 321.64501953125 368.7371520996094 361.8857727050781 376.51123046875 332.6988830566406 342.13958740234375 C 312.45587158203125 337.1251525878906 272.618896484375 351.931884765625 266.4939880371094 335.2989807128906 C 263.6012878417969 320.13861083984375 286.49090576171875 313.1899719238281 319.8801574707031 312.7015075683594 C 299.3416748046875 322.9859619140625 302.2237243652344 324.56964111328125 302.3533630371094 370.2518310546875" stroke-width="0.0" fill="rgb(255, 185, 0)" opacity="0.93061113" stroke="rgb(0, 0, 0)" stroke-opacity="1.0" stroke-linecap="round" stroke-linejoin="round"/>
    <path d="M 373.2704772949219 455.09893798828125 C 377.56591796875 433.115966796875 409.5546875 436.7875671386719 349.36761474609375 422.2104797363281 C 339.13433837890625 459.1768798828125 341.3641357421875 416.0873107910156 311.2381591796875 443.7099914550781 C 365.1785888671875 443.0233459472656 408.240234375 433.4395446777344 363.24810791015625 445.5745544433594 C 319.5190124511719 442.658935546875 369.8841857910156 420.4147644042969 373.2704772949219 455.09893798828125" stroke-width="0.0" fill="rgb(255, 6, 0)" opacity="0.19104674" stroke="rgb(0, 0, 0)" stroke-opacity="1.0" stroke-linecap="round" stroke-linejoin="round"/>
    <path d="M 349.32049560546875 393.8384704589844 C 330.63287353515625 397.6004333496094 325.8885498046875 421.6742858886719 339.1018371582031 419.4303894042969 C 328.08984375 446.0184631347656 326.2103271484375 413.7420349121094 315.0614013671875 411.8660888671875 C 320.0876770019531 440.93243408203125 313.0487060546875 406.3153381347656 336.2511291503906 388.6470947265625 C 339.0824890136719 389.241943359375 355.00555419921875 406.59112548828125 349.32049560546875 393.8384704589844" stroke-width="0.0" fill="rgb(214, 37, 0)" opacity="0.07716082" stroke="rgb(0, 0, 0)" stroke-opacity="1.0" stroke-linecap="round" stroke-linejoin="round"/>
    <path d="M 412.3440856933594 70.93378448486328 C 413.5135803222656 70.5295181274414 411.2571105957031 89.37027740478516 412.0600280761719 93.65228271484375 C 411.6032409667969 87.3638916015625 413.3677978515625 77.94351196289062 414.11920166015625 67.9906005859375 C 412.4441223144531 85.76278686523438 412.45343017578125 68.77336120605469 413.5660400390625 70.74093627929688 C 412.2927551269531 71.0562515258789 413.0307312011719 77.48255157470703 412.3440856933594 70.93378448486328" stroke-width="0.0" fill="rgb(22, 91, 132)" opacity="0.52694684" stroke="rgb(0, 0, 0)" stroke-opacity="1.0" stroke-linecap="round" stroke-linejoin="round"/>
    <path d="M 30.18954086303711 81.0073013305664 C 60.11359405517578 119.81729888916016 38.574798583984375 120.86333465576172 27.186983108520508 78.80362701416016 C 8.62171745300293 90.08463287353516 -7.069704532623291 97.62274169921875 -1.5728801488876343 99.44867706298828 C 53.41631317138672 93.12445831298828 77.69641876220703 101.14041137695312 52.99781799316406 41.04326248168945 C 42.085933685302734 54.245296478271484 36.9986572265625 47.02693557739258 30.18954086303711 81.0073013305664" stroke-width="0.0" fill="rgb(33, 44, 179)" opacity="0.046964165" stroke="rgb(0, 0, 0)" stroke-opacity="1.0" stroke-linecap="round" stroke-linejoin="round"/>
    <path d="M 40.18595504760742 138.853759765625 C 46.53404235839844 146.38377380371094 51.007057189941406 163.14122009277344 37.53915023803711 153.1654815673828 C 28.296640396118164 139.14276123046875 -7.709573745727539 134.7938690185547 -46.12119674682617 126.11622619628906 C -13.327401161193848 103.8099136352539 11.097609519958496 115.23734283447266 39.549713134765625 122.60508728027344 C 38.89955520629883 130.20970153808594 51.80370330810547 133.9995880126953 40.18595504760742 138.853759765625" stroke-width="0.0" fill="rgb(76, 88, 196)" opacity="0.003953787" stroke="rgb(0, 0, 0)" stroke-opacity="1.0" stroke-linecap="round" stroke-linejoin="round"/>
    <path d="M 536.06787109375 246.20217895507812 C 529.3890991210938 257.5009765625 523.970947265625 269.14434814453125 476.8645324707031 233.27481079101562 C 441.46453857421875 244.06781005859375 445.0830993652344 282.7186584472656 440.4164733886719 280.3162536621094 C 508.23321533203125 249.13414001464844 502.37054443359375 244.72726440429688 513.8199462890625 223.06503295898438 C 519.7571411132812 222.8683624267578 526.3670043945312 227.22088623046875 536.06787109375 246.20217895507812" stroke-width="0.0" fill="rgb(41, 0, 125)" opacity="0.0" stroke="rgb(0, 0, 0)" stroke-opacity="1.0" stroke-linecap="round" stroke-linejoin="round"/>
    <path d="M 300.29180908203125 64.081298828125 C 311.7737731933594 109.38204956054688 340.9616394042969 116.3783950805664 341.41387939453125 85.29328155517578 C 285.53240966796875 62.93320846557617 306.7257995605469 33.253482818603516 304.5160827636719 26.431488037109375 C 297.888427734375 88.00738525390625 293.7582092285156 88.7210693359375 268.9048767089844 51.075618743896484 C 305.79071044921875 31.45038604736328 297.8869934082031 23.2346134185791 300.29180908203125 64.081298828125" stroke-width="0.0" fill="rgb(12, 49, 199)" opacity="0.0" stroke="rgb(0, 0, 0)" stroke-opacity="1.0" stroke-linecap="round" stroke-linejoin="round"/>
    <path d="M 416.1206970214844 251.09262084960938 C 432.8045959472656 255.73768615722656 415.4988098144531 256.1662902832031 418.19036865234375 272.0271301269531 C 404.06903076171875 269.1582946777344 410.7715759277344 259.1560974121094 416.3790283203125 271.2418518066406 C 413.1966247558594 275.0674133300781 427.9713439941406 256.2354431152344 436.8969421386719 257.34149169921875 C 422.5049743652344 259.859619140625 427.5895080566406 270.52532958984375 416.1206970214844 251.09262084960938" stroke-width="0.0" fill="rgb(255, 143, 0)" opacity="0.0" stroke="rgb(0, 0, 0)" stroke-opacity="1.0" stroke-linecap="round" stroke-linejoin="round"/>
    <path d="M 511.18768310546875 146.91111755371094 C 528.9805908203125 177.34991455078125 508.81024169921875 171.09364318847656 489.32232666015625 167.93104553222656 C 486.0553283691406 163.49964904785156 478.0473327636719 128.82553100585938 493.518798828125 145.38389587402344 C 500.6611633300781 126.3917465209961 496.4462890625 104.73914337158203 505.44720458984375 104.88680267333984 C 532.556640625 121.40951538085938 530.9016723632812 124.92355346679688 511.18768310546875 146.91111755371094" stroke-width="0.0" fill="rgb(19, 55, 121)" opacity="0.03695624" stroke="rgb(0, 0, 0)" stroke-opacity="1.0" stroke-linecap="round" stroke-linejoin="round"/>
    <path d="M 528.4924926757812 164.05300903320312 C 527.9321899414062 175.66017150878906 521.6045532226562 183.3399200439453 537.8364868164062 186.68873596191406 C 511.6001892089844 182.69586181640625 461.1620178222656 175.530029296875 493.8432922363281 175.42733764648438 C 479.8346252441406 130.99041748046875 494.0206298828125 133.23301696777344 519.1878662109375 130.30734252929688 C 517.7416381835938 147.39990234375 525.1123657226562 154.182373046875 528.4924926757812 164.05300903320312" stroke-width="0.0" fill="rgb(27, 60, 114)" opacity="0.090525724" stroke="rgb(0, 0, 0)" stroke-opacity="1.0" stroke-linecap="round" stroke-linejoin="round"/>
    <path d="M 64.45075225830078 378.3578796386719 C 85.47605895996094 405.4136657714844 78.87664794921875 398.1146240234375 65.19403839111328 375.9369812011719 C 48.668338775634766 368.63232421875 50.379547119140625 357.17950439453125 57.44284439086914 355.2529602050781 C 49.27521514892578 364.12646484375 48.179561614990234 361.34173583984375 65.9167709350586 366.37750244140625 C 52.481231689453125 364.69683837890625 63.21385192871094 361.67852783203125 64.45075225830078 378.3578796386719" stroke-width="0.0" fill="rgb(34, 63, 199)" opacity="0.44711003" stroke="rgb(0, 0, 0)" stroke-opacity="1.0" stroke-linecap="round" stroke-linejoin="round"/>
    <path d="M 332.791259765625 282.6461486816406 C 346.233154296875 303.1439208984375 348.49871826171875 294.36651611328125 353.3270263671875 264.56903076171875 C 314.51202392578125 244.33311462402344 290.80828857421875 246.28369140625 288.4902648925781 263.7649841308594 C 314.6818542480469 236.7850799560547 338.3373718261719 237.67904663085938 334.6716003417969 228.30264282226562 C 328.2310791015625 231.1056671142578 342.88897705078125 243.82843017578125 332.791259765625 282.6461486816406" stroke-width="0.0" fill="rgb(152, 169, 58)" opacity="0.0" stroke="rgb(0, 0, 0)" stroke-opacity="1.0" stroke-linecap="round" stroke-linejoin="round"/>
    <path d="M 499.14874267578125 118.50525665283203 C 503.58477783203125 134.90957641601562 485.9998779296875 141.38768005371094 486.72271728515625 128.644775390625 C 501.0425109863281 139.44789123535156 487.34234619140625 132.0737762451172 483.1985778808594 133.05657958984375 C 474.2811279296875 126.2217788696289 477.31683349609375 114.15620422363281 494.1347961425781 118.04346466064453 C 532.61181640625 114.56503295898438 526.45458984375 126.79515838623047 499.14874267578125 118.50525665283203" stroke-width="0.0" fill="rgb(15, 67, 160)" opacity="0.10128079" stroke="rgb(0, 0, 0)" stroke-opacity="1.0" stroke-linecap="round" stroke-linejoin="round"/>
    <path d="M 491.736328125 494.6846008300781 C 528.3155517578125 502.5758361816406 496.5714416503906 484.379150390625 423.8669128417969 478.32611083984375 C 426.5976867675781 470.64471435546875 420.0254211425781 437.968505859375 436.9469299316406 456.7289123535156 C 431.15997314453125 437.4813232421875 462.5509033203125 449.9430236816406 457.4390869140625 418.7167053222656 C 460.0144348144531 402.49365234375 446.84881591796875 449.4568176269531 491.736328125 494.6846008300781" stroke-width="0.0" fill="rgb(42, 38, 122)" opacity="0.015722197" stroke="rgb(0, 0, 0)" stroke-opacity="1.0" stroke-linecap="round" stroke-linejoin="round"/>
    <path d="M 518.5328369140625 349.51324462890625 C 525.9550170898438 386.54766845703125 514.8006591796875 402.7662658691406 501.4215393066406 401.58843994140625 C 431.1993408203125 401.3355407714844 437.92083740234375 410.7530517578125 496.5657043457031 413.3536682128906 C 478.8804626464844 353.36724853515625 470.2699279785156 352.0339050292969 489.4476318359375 362.1529846191406 C 505.626708984375 353.4323425292969 479.94122314453125 353.2122497558594 518.5328369140625 349.51324462890625" stroke-width="0.0" fill="rgb(14, 45, 134)" opacity="0.0696696" stroke="rgb(0, 0, 0)" stroke-opacity="1.0" stroke-linecap="round" stroke-linejoin="round"/>
    <path d="M 162.3408966064453 406.50531005859375 C 151.66754150390625 413.7804260253906 150.92669677734375 430.8860778808594 150.0521240234375 444.0378112792969 C 140.337646484375 432.54986572265625 133.1713409423828 447.739501953125 153.47491455078125 440.7625427246094 C 143.67501831054688 421.4132080078125 132.35433959960938 403.24285888671875 145.67965698242188 416.4487609863281 C 168.42271423339844 414.28570556640625 160.4633026123047 427.7366943359375 162.3408966064453 406.50531005859375" stroke-width="0.0" fill="rgb(42, 21, 206)" opacity="0.0" stroke="rgb(0, 0, 0)" stroke-opacity="1.0" stroke-linecap="round" stroke-linejoin="round"/>
    <path d="M 81.22024536132812 199.05621337890625 C 78.17772674560547 187.01438903808594 59.238975524902344 189.63491821289062 12.489510536193848 198.90435791015625 C 20.370380401611328 185.91506958007812 26.432777404785156 148.45814514160156 56.006507873535156 137.4359130859375 C 67.39622497558594 120.76544189453125 45.676673889160156 121.33770751953125 83.79645538330078 127.18824768066406 C 100.99136352539062 91.08708953857422 93.8148193359375 114.5655288696289 81.22024536132812 199.05621337890625" stroke-width="0.0" fill="rgb(20, 64, 200)" opacity="0.017491836" stroke="rgb(0, 0, 0)" stroke-opacity="1.0" stroke-linecap="round" stroke-linejoin="round"/>
    <path d="M 172.82383728027344 113.48570251464844 C 174.46890258789062 121.57843017578125 174.43417358398438 124.2925796508789 175.40567016601562 125.61798095703125 C 175.47396850585938 124.76228332519531 175.27444458007812 124.00536346435547 175.01795959472656 127.74711608886719 C 175.65806579589844 126.21813201904297 173.88995361328125 120.64778137207031 171.91624450683594 110.6867446899414 C 174.40298461914062 125.04418182373047 174.16146850585938 118.7962646484375 172.82383728027344 113.48570251464844" stroke-width="0.0" fill="rgb(37, 75, 118)" opacity="0.46634394" stroke="rgb(0, 0, 0)" stroke-opacity="1.0" stroke-linecap="round" stroke-linejoin="round"/>
    <path d="M 168.70741271972656 401.6002502441406 C 163.8061065673828 412.96612548828125 169.7042694091797 421.36651611328125 172.07391357421875 403.3787536621094 C 164.350830078125 404.4758605957031 150.2547607421875 401.5698547363281 141.66958618164062 395.31085205078125 C 133.80941772460938 386.6396484375 148.93421936035156 399.6578369140625 168.61489868164062 395.6415710449219 C 167.26400756835938 385.2240295410156 175.26312255859375 377.406494140625 168.70741271972656 401.6002502441406" stroke-width="0.0" fill="rgb(254, 139, 30)" opacity="0.122137636" stroke="rgb(0, 0, 0)" stroke-opacity="1.0" stroke-linecap="round" stroke-linejoin="round"/>
    <path d="M 441.7582702636719 113.89488983154297 C 444.8763122558594 130.53895568847656 432.50738525390625 131.79571533203125 418.6339416503906 127.62612915039062 C 416.5362854003906 131.39102172851562 432.2261657714844 153.33192443847656 439.7602233886719 142.9922637939453 C 437.3574523925781 131.5198211669922 442.6707763671875 116.11083221435547 444.59014892578125 116.5005874633789 C 441.12750244140625 120.2653579711914 442.791748046875 121.32283020019531 441.7582702636719 113.89488983154297" stroke-width="0.0" fill="rgb(35, 49, 200)" opacity="0.30139524" stroke="rgb(0, 0, 0)" stroke-opacity="1.0" stroke-linecap="round" stroke-linejoin="round"/>
    <path d="M 263.366455078125 303.5992126464844 C 246.63955688476562 321.95013427734375 255.33790588378906 321.53631591796875 252.63975524902344 345.9772033691406 C 226.47805786132812 341.6419677734375 226.32568359375 328.7431640625 219.1895751953125 326.8804626464844 C 233.5968017578125 316.24957275390625 236.86190795898438 318.8810119628906 249.1224822998047 338.1414794921875 C 254.9957275390625 347.8264465332031 270.5567626953125 307.443603515625 263.366455078125 303.5992126464844" stroke-width="0.0" fill="rgb(254, 70, 71)" opacity="0.0" stroke="rgb(0, 0, 0)" stroke-opacity="1.0" stroke-linecap="round" stroke-linejoin="round"/>
    <path d="M 184.0594024658203 476.142822265625 C 171.7417755126953 478.318359375 156.3460693359375 473.78192138671875 142.14430236816406 480.3109130859375 C 117.32585144042969 472.2748107910156 115.13568115234375 474.04632568359375 130.1304931640625 478.2275390625 C 107.78733825683594 471.0898742675781 97.7073974609375 454.2073974609375 179.28173828125 455.50146484375 C 186.34085083007812 465.1014709472656 214.20843505859375 485.3336486816406 184.0594024658203 476.142822265625" stroke-width="0.0" fill="rgb(20, 64, 171)" opacity="0.0" stroke="rgb(0, 0, 0)" stroke-opacity="1.0" stroke-linecap="round" stroke-linejoin="round"/>
    <path d="M 485.98077392578125 425.52325439453125 C 467.8117980957031 427.33929443359375 483.9484558105469 439.3870849609375 476.6611328125 419.0876770019531 C 413.7728576660156 409.4736633300781 382.3502502441406 420.68463134765625 426.0840148925781 406.677734375 C 445.59002685546875 373.8926696777344 458.48406982421875 376.46881103515625 476.49896240234375 383.63037109375 C 470.9986267089844 388.15631103515625 478.71319580078125 394.18914794921875 485.98077392578125 425.52325439453125" stroke-width="0.0" fill="rgb(25, 0, 154)" opacity="0.0" stroke="rgb(0, 0, 0)" stroke-opacity="1.0" stroke-linecap="round" stroke-linejoin="round"/>
    <path d="M 298.34698486328125 104.9561996459961 C 295.8310852050781 109.14227294921875 279.0219421386719 107.47673034667969 281.7624206542969 114.32125091552734 C 280.1969299316406 111.19566345214844 269.1033630371094 112.91764068603516 269.8015441894531 104.2918701171875 C 266.7121887207031 91.72234344482422 278.88818359375 94.44247436523438 296.24749755859375 96.75502014160156 C 288.42803955078125 87.54326629638672 287.8726806640625 81.11356353759766 298.34698486328125 104.9561996459961" stroke-width="0.0" fill="rgb(93, 120, 0)" opacity="0.028153019" stroke="rgb(0, 0, 0)" stroke-opacity="1.0" stroke-linecap="round" stroke-linejoin="round"/>
    <path d="M 393.6908264160156 13.855141639709473 C 383.69354248046875 37.348270416259766 376.2133483886719 53.02486801147461 370.82135009765625 53.12116241455078 C 386.84417724609375 38.79010009765625 365.9812927246094 65.83863067626953 378.64129638671875 72.69525146484375 C 382.36895751953125 34.48200988769531 383.6243591308594 58.462677001953125 382.3144836425781 6.91818904876709 C 396.1013488769531 28.264240264892578 424.4613952636719 38.833377838134766 393.6908264160156 13.855141639709473" stroke-width="0.0" fill="rgb(29, 50, 184)" opacity="0.0062940875" stroke="rgb(0, 0, 0)" stroke-opacity="1.0" stroke-linecap="round" stroke-linejoin="round"/>
  </g>
</svg>
