<?xml version="1.0" ?>
<svg xmlns="http://www.w3.org/2000/svg" version="1.1" width="512" height="512">
  <defs/>
  <g>
    <path d="M 514.7213745117188 440.9441833496094 C 431.79656982421875 451.19036865234375 387.5275573730469 563.9556274414062 504.2545166015625 556.1121215820312 C 585.3644409179688 417.6051025390625 516.644775390625 452.7203369140625 478.0338439941406 453.7287902832031 C 475.65228271484375 484.6475524902344 520.579345703125 494.56427001953125 516.2101440429688 440.9669494628906 C 532.0951538085938 429.7005920410156 557.442626953125 429.1484069824219 514.7213745117188 440.9441833496094" stroke-width="0.0" fill="rgb(0, 79, 152)" opacity="0.99941826" stroke="rgb(0, 0, 0)" stroke-opacity="1.0" stroke-linecap="round" stroke-linejoin="round"/>
    <path d="M 294.00494384765625 509.3963317871094 C 240.32064819335938 562.6636962890625 155.6533203125 594.0496215820312 92.23919677734375 471.1787109375 C -1.4146397113800049 440.79486083984375 97.35675811767578 440.99774169921875 -92.48639678955078 394.9580993652344 C 36.58567428588867 204.7497100830078 -47.54963302612305 276.91168212890625 -43.14307403564453 173.31727600097656 C 78.0758056640625 46.31694793701172 222.3335723876953 178.99241638183594 294.00494384765625 509.3963317871094" stroke-width="0.0" fill="rgb(71, 199, 41)" opacity="0.8920061" stroke="rgb(0, 0, 0)" stroke-opacity="1.0" stroke-linecap="round" stroke-linejoin="round"/>
    <path d="M 510.8194885253906 55.60911178588867 C 549.05908203125 270.81976318359375 516.400146484375 348.9053039550781 345.7986755371094 338.27410888671875 C 147.0164794921875 339.5427551269531 110.24332427978516 332.77276611328125 254.0592498779297 91.32357788085938 C 121.66361236572266 53.37969207763672 149.76939392089844 -3.906151533126831 411.9467468261719 -25.105003356933594 C 484.2430114746094 56.401981353759766 510.5929870605469 8.236145973205566 510.8194885253906 55.60911178588867" stroke-width="0.0" fill="rgb(65, 207, 48)" opacity="0.9311096" stroke="rgb(0, 0, 0)" stroke-opacity="1.0" stroke-linecap="round" stroke-linejoin="round"/>
    <path d="M 368.291748046875 133.38145446777344 C 357.8341064453125 346.6394958496094 280.1105041503906 385.3956604003906 188.2744140625 332.26617431640625 C 94.43538665771484 251.27565002441406 20.32559585571289 290.2725830078125 54.261314392089844 149.3130340576172 C 37.4978141784668 69.31258392333984 146.36627197265625 81.08394622802734 132.24679565429688 50.186920166015625 C 182.3422393798828 8.338388442993164 229.4359130859375 46.688133239746094 368.291748046875 133.38145446777344" stroke-width="0.0" fill="rgb(224, 72, 254)" opacity="0.9990127" stroke="rgb(0, 0, 0)" stroke-opacity="1.0" stroke-linecap="round" stroke-linejoin="round"/>
    <path d="M 442.9552307128906 388.4776916503906 C 377.4429931640625 501.2756652832031 390.64556884765625 295.8804931640625 458.66339111328125 481.4881591796875 C 257.45281982421875 531.1306762695312 346.1722412109375 525.0469360351562 308.7575378417969 432.33843994140625 C 238.7560272216797 217.37728881835938 259.99822998046875 256.212646484375 282.0881652832031 220.79837036132812 C 411.3641357421875 138.2549591064453 537.398193359375 198.37962341308594 442.9552307128906 388.4776916503906" stroke-width="0.0" fill="rgb(214, 79, 255)" opacity="0.96782917" stroke="rgb(0, 0, 0)" stroke-opacity="1.0" stroke-linecap="round" stroke-linejoin="round"/>
    <path d="M 503.5700988769531 241.76535034179688 C 545.2244262695312 330.219970703125 500.27728271484375 227.89068603515625 575.2063598632812 364.5708312988281 C 461.0522155761719 440.3409729003906 247.59707641601562 329.0395812988281 442.10125732421875 173.14645385742188 C 309.7540283203125 195.185302734375 368.6722717285156 122.20013427734375 404.3321228027344 146.43556213378906 C 426.0501708984375 213.9436798095703 469.3924865722656 184.06027221679688 503.5700988769531 241.76535034179688" stroke-width="0.0" fill="rgb(0, 113, 112)" opacity="1.0" stroke="rgb(0, 0, 0)" stroke-opacity="1.0" stroke-linecap="round" stroke-linejoin="round"/>
    <path d="M 414.3616027832031 198.1875457763672 C 302.9578552246094 256.1059265136719 302.26336669921875 259.5000915527344 270.2236022949219 278.8109130859375 C 240.8551483154297 283.1733703613281 304.0855407714844 325.32818603515625 82.5155029296875 183.75575256347656 C 316.4054260253906 176.28790283203125 202.01394653320312 280.3670959472656 273.250732421875 230.58209228515625 C 330.8172912597656 189.46604919433594 426.0001220703125 150.87193298339844 414.3616027832031 198.1875457763672" stroke-width="0.0" fill="rgb(40, 255, 105)" opacity="0.99674475" stroke="rgb(0, 0, 0)" stroke-opacity="1.0" stroke-linecap="round" stroke-linejoin="round"/>
    <path d="M 380.4838562011719 175.9330291748047 C 379.16900634765625 185.63186645507812 350.9776306152344 181.6189727783203 332.94732666015625 209.9458465576172 C 305.9426574707031 223.69851684570312 328.4688415527344 219.7411346435547 265.0973815917969 219.69114685058594 C 312.1490783691406 97.03784942626953 232.3316192626953 203.99925231933594 363.8854675292969 137.80918884277344 C 411.95703125 154.9551239013672 500.22210693359375 208.4473419189453 380.4838562011719 175.9330291748047" stroke-width="0.0" fill="rgb(50, 5, 244)" opacity="0.955199" stroke="rgb(0, 0, 0)" stroke-opacity="1.0" stroke-linecap="round" stroke-linejoin="round"/>
    <path d="M 274.187744140625 240.21263122558594 C 226.7162322998047 248.73672485351562 264.6038513183594 236.67054748535156 252.03564453125 249.27691650390625 C 250.42852783203125 244.17344665527344 238.03912353515625 231.02200317382812 155.73696899414062 185.3893280029297 C 240.93023681640625 158.52276611328125 153.59506225585938 199.71409606933594 228.58135986328125 190.24327087402344 C 244.21556091308594 216.97320556640625 269.8365478515625 241.8094024658203 274.187744140625 240.21263122558594" stroke-width="0.0" fill="rgb(165, 101, 242)" opacity="0.93096536" stroke="rgb(0, 0, 0)" stroke-opacity="1.0" stroke-linecap="round" stroke-linejoin="round"/>
    <path d="M 440.22216796875 216.7957305908203 C 272.2005920410156 314.2931213378906 543.6248168945312 249.32923889160156 481.6880187988281 403.2108154296875 C 211.8002166748047 390.0531921386719 242.54481506347656 370.5161437988281 240.52601623535156 364.20831298828125 C 372.12286376953125 253.15818786621094 376.20037841796875 273.1403503417969 395.61767578125 307.56591796875 C 383.79290771484375 235.10069274902344 436.2010498046875 204.92930603027344 440.22216796875 216.7957305908203" stroke-width="0.0" fill="rgb(0, 121, 77)" opacity="1.0" stroke="rgb(0, 0, 0)" stroke-opacity="1.0" stroke-linecap="round" stroke-linejoin="round"/>
    <path d="M 193.0938720703125 102.98002624511719 C 256.9064025878906 92.71258544921875 248.97988891601562 162.72169494628906 195.22177124023438 106.12757873535156 C 96.75116729736328 142.06724548339844 -67.35079193115234 294.1501159667969 55.045997619628906 -11.818997383117676 C 330.5377197265625 6.959322929382324 234.58856201171875 161.94207763671875 138.30523681640625 50.85197448730469 C 359.8341064453125 -21.048025131225586 242.233154296875 78.5346908569336 193.0938720703125 102.98002624511719" stroke-width="0.0" fill="rgb(115, 219, 12)" opacity="0.9865391" stroke="rgb(0, 0, 0)" stroke-opacity="1.0" stroke-linecap="round" stroke-linejoin="round"/>
    <path d="M 202.02899169921875 431.04315185546875 C 140.97216796875 440.6282958984375 182.06101989746094 398.3122253417969 181.08091735839844 457.8699645996094 C 127.3142318725586 402.4623718261719 108.35741424560547 421.650634765625 101.04846954345703 363.0882263183594 C 96.95530700683594 271.3807373046875 69.18199157714844 250.0617218017578 155.85411071777344 271.5897216796875 C 149.2135772705078 360.2665710449219 186.89697265625 331.8589782714844 202.02899169921875 431.04315185546875" stroke-width="0.0" fill="rgb(115, 191, 97)" opacity="0.034777854" stroke="rgb(0, 0, 0)" stroke-opacity="1.0" stroke-linecap="round" stroke-linejoin="round"/>
    <path d="M 399.46893310546875 59.82093048095703 C 397.6843566894531 91.91082000732422 415.1494445800781 111.92874145507812 388.90576171875 72.50598907470703 C 369.56884765625 62.3809700012207 360.54541015625 53.73870849609375 371.95709228515625 64.51519012451172 C 357.8200988769531 58.52122497558594 373.9832458496094 42.563228607177734 374.7048645019531 37.06559371948242 C 391.1189270019531 54.86686706542969 381.27691650390625 55.084228515625 399.46893310546875 59.82093048095703" stroke-width="0.0" fill="rgb(105, 216, 60)" opacity="0.0008380092" stroke="rgb(0, 0, 0)" stroke-opacity="1.0" stroke-linecap="round" stroke-linejoin="round"/>
    <path d="M 548.8565063476562 63.86420822143555 C 535.2297973632812 98.420654296875 517.7898559570312 66.38813018798828 476.92852783203125 32.32968521118164 C 449.5975036621094 43.29466247558594 447.19384765625 32.76164245605469 430.1903076171875 28.1972599029541 C 416.927978515625 6.7946343421936035 425.25250244140625 -9.36125659942627 447.9643249511719 -19.158872604370117 C 506.5408935546875 -21.502674102783203 523.9093017578125 -22.353635787963867 548.8565063476562 63.86420822143555" stroke-width="0.0" fill="rgb(51, 188, 9)" opacity="0.7747109" stroke="rgb(0, 0, 0)" stroke-opacity="1.0" stroke-linecap="round" stroke-linejoin="round"/>
    <path d="M 415.630126953125 539.0855712890625 C 306.62890625 527.2941284179688 357.43157958984375 494.5706481933594 315.7184753417969 530.8692626953125 C 106.68409729003906 594.1732788085938 88.40181732177734 505.9256896972656 117.07312774658203 479.96527099609375 C 236.03028869628906 438.8072204589844 238.47421264648438 380.2507629394531 323.90283203125 324.74920654296875 C 458.6896667480469 283.6457824707031 449.9905700683594 264.46441650390625 415.630126953125 539.0855712890625" stroke-width="0.0" fill="rgb(62, 178, 67)" opacity="0.97051185" stroke="rgb(0, 0, 0)" stroke-opacity="1.0" stroke-linecap="round" stroke-linejoin="round"/>
    <path d="M 216.11375427246094 288.6889343261719 C 274.8432312011719 349.9117431640625 309.56060791015625 301.89306640625 233.89938354492188 350.8886413574219 C 139.69740295410156 279.36016845703125 35.952880859375 228.5944061279297 80.12178802490234 234.3965606689453 C 99.19139862060547 194.60665893554688 164.1889190673828 285.5638732910156 249.8863525390625 298.0306091308594 C 225.84616088867188 282.0799560546875 187.0668487548828 257.8621826171875 216.11375427246094 288.6889343261719" stroke-width="0.0" fill="rgb(163, 88, 200)" opacity="0.0877956" stroke="rgb(0, 0, 0)" stroke-opacity="1.0" stroke-linecap="round" stroke-linejoin="round"/>
    <path d="M 417.2079772949219 449.3409423828125 C 422.12518310546875 489.5154724121094 363.3191223144531 479.46942138671875 373.576416015625 497.3056640625 C 361.2062072753906 473.1109313964844 365.95880126953125 466.16864013671875 355.6435852050781 496.6260681152344 C 300.45294189453125 321.1866760253906 286.9016418457031 263.9670715332031 402.9374084472656 263.5335388183594 C 419.6521301269531 388.8918151855469 434.1615905761719 361.467529296875 417.2079772949219 449.3409423828125" stroke-width="0.0" fill="rgb(0, 114, 105)" opacity="0.99253106" stroke="rgb(0, 0, 0)" stroke-opacity="1.0" stroke-linecap="round" stroke-linejoin="round"/>
    <path d="M 316.65716552734375 144.96917724609375 C 384.40277099609375 122.78453826904297 353.3649597167969 158.23789978027344 288.9499816894531 192.55914306640625 C 229.90887451171875 147.19064331054688 274.1231994628906 159.7957305908203 249.75181579589844 107.37220764160156 C 238.20108032226562 70.05975341796875 258.1629638671875 47.32583236694336 282.2835693359375 90.43121337890625 C 312.0820617675781 133.52850341796875 376.296142578125 141.4424285888672 316.65716552734375 144.96917724609375" stroke-width="0.0" fill="rgb(50, 0, 255)" opacity="0.99785686" stroke="rgb(0, 0, 0)" stroke-opacity="1.0" stroke-linecap="round" stroke-linejoin="round"/>
    <path d="M 409.7070617675781 284.9329833984375 C 262.7662048339844 352.7651672363281 272.61309814453125 374.7397766113281 263.5749206542969 354.6147155761719 C 225.01014709472656 429.34765625 221.1133575439453 356.25396728515625 114.09503936767578 277.077880859375 C 118.09323120117188 263.98028564453125 141.27017211914062 290.9862060546875 261.91998291015625 356.7859802246094 C 435.32366943359375 262.6150207519531 564.5426635742188 178.04844665527344 409.7070617675781 284.9329833984375" stroke-width="0.0" fill="rgb(81, 211, 52)" opacity="0.803638" stroke="rgb(0, 0, 0)" stroke-opacity="1.0" stroke-linecap="round" stroke-linejoin="round"/>
    <path d="M 392.8997802734375 179.82119750976562 C 382.81787109375 179.4805908203125 371.53839111328125 189.96372985839844 333.16253662109375 195.70126342773438 C 368.12066650390625 176.90716552734375 337.81500244140625 212.8931121826172 313.5857849121094 219.76022338867188 C 336.8064880371094 180.63885498046875 359.44451904296875 222.3359375 339.1120300292969 137.0098876953125 C 391.79388427734375 157.84788513183594 396.05853271484375 186.65530395507812 392.8997802734375 179.82119750976562" stroke-width="0.0" fill="rgb(0, 114, 180)" opacity="0.9789718" stroke="rgb(0, 0, 0)" stroke-opacity="1.0" stroke-linecap="round" stroke-linejoin="round"/>
    <path d="M 449.57818603515625 229.55613708496094 C 434.2269287109375 245.5311279296875 469.91986083984375 216.7657012939453 425.50762939453125 246.5997314453125 C 309.3550109863281 297.29913330078125 295.6294860839844 255.79788208007812 408.56610107421875 197.05799865722656 C 419.0305480957031 172.57411193847656 391.22247314453125 188.35821533203125 415.32916259765625 168.4032745361328 C 479.368896484375 177.31483459472656 445.98321533203125 192.1858673095703 449.57818603515625 229.55613708496094" stroke-width="0.0" fill="rgb(234, 7, 254)" opacity="0.77242297" stroke="rgb(0, 0, 0)" stroke-opacity="1.0" stroke-linecap="round" stroke-linejoin="round"/>
    <path d="M 164.58790588378906 301.37725830078125 C 155.6773681640625 262.24542236328125 142.76556396484375 276.5478515625 89.62447357177734 279.7306213378906 C 47.344600677490234 282.2354736328125 90.31278228759766 303.7537536621094 -40.03055191040039 241.62704467773438 C 8.220160484313965 223.07366943359375 25.888904571533203 218.08291625976562 103.55445098876953 257.45196533203125 C 146.15133666992188 278.545166015625 180.44525146484375 304.51934814453125 164.58790588378906 301.37725830078125" stroke-width="0.0" fill="rgb(100, 204, 50)" opacity="0.7160151" stroke="rgb(0, 0, 0)" stroke-opacity="1.0" stroke-linecap="round" stroke-linejoin="round"/>
    <path d="M 32.61085510253906 48.64517593383789 C 28.940536499023438 50.82509994506836 36.200462341308594 51.82881164550781 39.852874755859375 33.27680206298828 C 58.3394660949707 -14.189491271972656 82.07867431640625 -49.56307601928711 -25.172292709350586 -41.8938102722168 C -23.893463134765625 131.88352966308594 5.932223796844482 90.40267944335938 24.264034271240234 79.22854614257812 C 43.03899383544922 28.266563415527344 33.99378967285156 45.47126770019531 32.61085510253906 48.64517593383789" stroke-width="0.0" fill="rgb(85, 216, 0)" opacity="0.6783756" stroke="rgb(0, 0, 0)" stroke-opacity="1.0" stroke-linecap="round" stroke-linejoin="round"/>
    <path d="M 315.6983642578125 159.929931640625 C 309.5326232910156 222.0411376953125 330.3309631347656 212.7216796875 303.20477294921875 227.07122802734375 C 232.03147888183594 255.05520629882812 260.70166015625 265.54119873046875 256.057373046875 162.74032592773438 C 308.7123718261719 146.50904846191406 273.3741760253906 178.61984252929688 275.6894836425781 159.00668334960938 C 297.3841552734375 167.87881469726562 302.41796875 160.73294067382812 315.6983642578125 159.929931640625" stroke-width="0.0" fill="rgb(42, 4, 255)" opacity="0.9900442" stroke="rgb(0, 0, 0)" stroke-opacity="1.0" stroke-linecap="round" stroke-linejoin="round"/>
    <path d="M 160.265380859375 497.39410400390625 C 135.96932983398438 472.3640441894531 147.64598083496094 475.43353271484375 131.67172241210938 470.33685302734375 C 135.33517456054688 492.881591796875 144.55299377441406 487.65179443359375 140.4683380126953 469.92926025390625 C 120.92141723632812 440.062255859375 112.37238311767578 387.38323974609375 122.22099304199219 406.7190856933594 C 172.48191833496094 455.4073181152344 172.671142578125 488.6687316894531 160.265380859375 497.39410400390625" stroke-width="0.0" fill="rgb(196, 118, 110)" opacity="0.038546328" stroke="rgb(0, 0, 0)" stroke-opacity="1.0" stroke-linecap="round" stroke-linejoin="round"/>
    <path d="M 134.12664794921875 199.47584533691406 C 190.6086883544922 235.27561950683594 79.34339904785156 222.414794921875 95.334716796875 231.2388458251953 C 110.71867370605469 211.3144989013672 88.12013244628906 210.4075927734375 63.052894592285156 209.48353576660156 C 71.52462005615234 236.2371826171875 73.12114715576172 228.35719299316406 101.8230972290039 190.9416046142578 C 137.63597106933594 227.88973999023438 111.54743194580078 249.06307983398438 134.12664794921875 199.47584533691406" stroke-width="0.0" fill="rgb(97, 123, 105)" opacity="0.0041567255" stroke="rgb(0, 0, 0)" stroke-opacity="1.0" stroke-linecap="round" stroke-linejoin="round"/>
    <path d="M 131.96376037597656 143.009765625 C 136.5496826171875 143.26669311523438 107.83576202392578 139.61207580566406 83.97908782958984 159.62623596191406 C 54.513206481933594 218.30548095703125 -8.414168357849121 225.88925170898438 -3.2677886486053467 87.97823333740234 C 23.250211715698242 62.67033767700195 103.86675262451172 70.11529541015625 109.53489685058594 83.27949523925781 C 115.8168716430664 121.30326080322266 120.94186401367188 150.68418884277344 131.96376037597656 143.009765625" stroke-width="0.0" fill="rgb(108, 213, 34)" opacity="0.99959844" stroke="rgb(0, 0, 0)" stroke-opacity="1.0" stroke-linecap="round" stroke-linejoin="round"/>
    <path d="M 281.9659118652344 231.1475372314453 C 333.9057312011719 283.26995849609375 312.20538330078125 228.81849670410156 307.7270812988281 222.41677856445312 C 300.9815979003906 267.3878173828125 287.8050842285156 239.25230407714844 212.70901489257812 206.79013061523438 C 217.15475463867188 212.06817626953125 227.62286376953125 183.53944396972656 264.95538330078125 193.85719299316406 C 297.6386413574219 198.4613037109375 318.828369140625 201.5827178955078 281.9659118652344 231.1475372314453" stroke-width="0.0" fill="rgb(18, 24, 131)" opacity="0.029966634" stroke="rgb(0, 0, 0)" stroke-opacity="1.0" stroke-linecap="round" stroke-linejoin="round"/>
    <path d="M 226.93385314941406 133.1621551513672 C 201.45272827148438 112.88005828857422 194.39044189453125 106.79076385498047 232.46014404296875 106.1661605834961 C 206.6165771484375 103.2232894897461 169.34854125976562 159.8015594482422 78.38506317138672 195.16481018066406 C 153.8797607421875 105.52851867675781 209.57688903808594 118.2247543334961 237.80918884277344 101.56709289550781 C 264.2627868652344 88.62245178222656 244.3534698486328 82.04655456542969 226.93385314941406 133.1621551513672" stroke-width="0.0" fill="rgb(44, 15, 235)" opacity="0.9722433" stroke="rgb(0, 0, 0)" stroke-opacity="1.0" stroke-linecap="round" stroke-linejoin="round"/>
    <path d="M 108.45841979980469 500.6191101074219 C 99.436279296875 590.4649658203125 57.44546890258789 567.1416625976562 26.1500244140625 551.1644287109375 C -9.364206314086914 527.7437133789062 -16.68471336364746 520.4232177734375 -21.20284080505371 510.0506896972656 C -18.48799705505371 494.70721435546875 -31.987857818603516 464.11956787109375 -4.767157554626465 394.6853332519531 C 67.94048309326172 422.3664855957031 79.2505111694336 440.99285888671875 108.45841979980469 500.6191101074219" stroke-width="0.0" fill="rgb(21, 170, 31)" opacity="0.7446598" stroke="rgb(0, 0, 0)" stroke-opacity="1.0" stroke-linecap="round" stroke-linejoin="round"/>
    <path d="M 205.61647033691406 120.74117279052734 C 241.04379272460938 108.23535919189453 176.2476806640625 124.55657958984375 147.1788787841797 212.0612335205078 C 96.9520034790039 164.07958984375 140.52288818359375 218.74169921875 172.34536743164062 184.22482299804688 C 133.15145874023438 194.29920959472656 127.56141662597656 187.46864318847656 103.204345703125 188.4358367919922 C 126.42589569091797 160.5880889892578 114.5318832397461 163.5009765625 205.61647033691406 120.74117279052734" stroke-width="0.0" fill="rgb(48, 254, 109)" opacity="0.9780131" stroke="rgb(0, 0, 0)" stroke-opacity="1.0" stroke-linecap="round" stroke-linejoin="round"/>
    <path d="M 472.5678405761719 229.91653442382812 C 342.5621337890625 314.07965087890625 310.11273193359375 325.91497802734375 313.93328857421875 324.4188232421875 C 295.49957275390625 348.6102600097656 237.8028564453125 403.4843444824219 246.68910217285156 310.8498229980469 C 279.0727844238281 279.0242919921875 291.77557373046875 272.80743408203125 356.6590576171875 254.23971557617188 C 300.7499694824219 309.1078186035156 403.075439453125 154.70004272460938 472.5678405761719 229.91653442382812" stroke-width="0.0" fill="rgb(22, 0, 253)" opacity="0.984282" stroke="rgb(0, 0, 0)" stroke-opacity="1.0" stroke-linecap="round" stroke-linejoin="round"/>
    <path d="M 259.10101318359375 115.5431137084961 C 250.668212890625 191.351806640625 229.3668670654297 171.4233856201172 169.5321044921875 165.64309692382812 C 162.70767211914062 126.880615234375 172.78561401367188 119.41535186767578 174.82862854003906 105.16925811767578 C 197.1454315185547 101.20953369140625 210.025634765625 97.82821655273438 233.56129455566406 72.37845611572266 C 260.7782287597656 52.381126403808594 253.54360961914062 29.92479133605957 259.10101318359375 115.5431137084961" stroke-width="0.0" fill="rgb(255, 74, 253)" opacity="1.0" stroke="rgb(0, 0, 0)" stroke-opacity="1.0" stroke-linecap="round" stroke-linejoin="round"/>
    <path d="M 203.8603515625 87.00985717773438 C 169.4291534423828 86.11219024658203 153.35255432128906 104.97610473632812 152.97085571289062 103.88728332519531 C 142.42227172851562 52.39218521118164 151.47410583496094 127.78772735595703 157.9008026123047 89.5383529663086 C 118.9713363647461 7.325136661529541 134.67727661132812 -37.24031066894531 246.470947265625 2.2576465606689453 C 227.82191467285156 105.20542907714844 212.70144653320312 74.96272277832031 203.8603515625 87.00985717773438" stroke-width="0.0" fill="rgb(106, 216, 25)" opacity="0.99478775" stroke="rgb(0, 0, 0)" stroke-opacity="1.0" stroke-linecap="round" stroke-linejoin="round"/>
    <path d="M 385.0169677734375 77.77733612060547 C 378.7081604003906 67.16614532470703 370.7216491699219 63.448062896728516 379.48016357421875 115.1255111694336 C 382.0750427246094 159.77432250976562 401.9479064941406 132.92539978027344 400.6961975097656 77.69869232177734 C 429.15142822265625 85.43949890136719 423.57574462890625 79.4600601196289 388.6894226074219 52.81752014160156 C 386.4449462890625 105.10370635986328 383.5467834472656 92.82127380371094 385.0169677734375 77.77733612060547" stroke-width="0.0" fill="rgb(98, 204, 56)" opacity="0.04062456" stroke="rgb(0, 0, 0)" stroke-opacity="1.0" stroke-linecap="round" stroke-linejoin="round"/>
    <path d="M 295.73126220703125 528.723876953125 C 338.0796813964844 511.74310302734375 333.3623352050781 511.630859375 311.27655029296875 524.1566772460938 C 292.5696105957031 549.904296875 296.6705017089844 555.3303833007812 297.3002014160156 476.50299072265625 C 278.0560302734375 439.7198486328125 280.5257873535156 426.2254638671875 281.0165710449219 419.2755432128906 C 273.1933898925781 471.793701171875 284.3279113769531 489.1541748046875 295.73126220703125 528.723876953125" stroke-width="0.0" fill="rgb(49, 166, 33)" opacity="0.040020205" stroke="rgb(0, 0, 0)" stroke-opacity="1.0" stroke-linecap="round" stroke-linejoin="round"/>
    <path d="M 292.6526184082031 179.10975646972656 C 305.17401123046875 144.82769775390625 315.8963928222656 151.4134521484375 315.43231201171875 209.72122192382812 C 302.4382019042969 160.45082092285156 307.4599914550781 150.45265197753906 253.9224090576172 147.77218627929688 C 251.0278778076172 164.3314666748047 288.89910888671875 175.5206756591797 291.4662170410156 194.54324340820312 C 292.7821350097656 162.72628784179688 311.0652770996094 176.74339294433594 292.6526184082031 179.10975646972656" stroke-width="0.0" fill="rgb(11, 53, 138)" opacity="0.0" stroke="rgb(0, 0, 0)" stroke-opacity="1.0" stroke-linecap="round" stroke-linejoin="round"/>
    <path d="M 280.6201171875 6.037191390991211 C 275.02093505859375 21.18292999267578 284.0486145019531 13.067941665649414 279.94598388671875 33.24934768676758 C 263.9621887207031 58.976314544677734 267.3600158691406 19.8945369720459 265.1466064453125 -16.25360107421875 C 243.4957275390625 -34.131797790527344 249.43336486816406 -42.123207092285156 260.7076110839844 19.958173751831055 C 288.4973449707031 8.03857421875 295.7384338378906 5.384008884429932 280.6201171875 6.037191390991211" stroke-width="0.0" fill="rgb(117, 181, 80)" opacity="0.5404645" stroke="rgb(0, 0, 0)" stroke-opacity="1.0" stroke-linecap="round" stroke-linejoin="round"/>
    <path d="M 345.07208251953125 237.05361938476562 C 339.5752258300781 252.9816436767578 321.11846923828125 271.2120361328125 332.21868896484375 278.8475036621094 C 318.4942932128906 285.3605651855469 324.4921875 263.337890625 321.72076416015625 265.27703857421875 C 337.1878967285156 268.1612243652344 343.38934326171875 251.69528198242188 340.50933837890625 255.3888702392578 C 316.5916442871094 234.6680145263672 340.5165100097656 235.6101837158203 345.07208251953125 237.05361938476562" stroke-width="0.0" fill="rgb(225, 119, 222)" opacity="0.0709915" stroke="rgb(0, 0, 0)" stroke-opacity="1.0" stroke-linecap="round" stroke-linejoin="round"/>
    <path d="M 224.62608337402344 78.4393081665039 C 190.18795776367188 76.69015502929688 186.92047119140625 98.44744873046875 170.76663208007812 107.40966796875 C 165.01060485839844 100.1448745727539 155.031982421875 94.07298278808594 170.1431121826172 82.26634216308594 C 177.00498962402344 96.64083099365234 195.4453582763672 76.20384216308594 184.61766052246094 66.9795150756836 C 176.4275360107422 84.77792358398438 202.04518127441406 91.78926086425781 224.62608337402344 78.4393081665039" stroke-width="0.0" fill="rgb(84, 244, 10)" opacity="0.34970698" stroke="rgb(0, 0, 0)" stroke-opacity="1.0" stroke-linecap="round" stroke-linejoin="round"/>
    <path d="M 548.3236694335938 463.0303039550781 C 558.7713012695312 473.8854675292969 553.0081787109375 477.4956970214844 496.25579833984375 479.7670593261719 C 471.1075439453125 487.665771484375 465.551513671875 469.8683166503906 458.6244812011719 451.5852355957031 C 477.47845458984375 423.3559875488281 493.1532287597656 420.4762268066406 529.8926391601562 429.825927734375 C 522.9414672851562 435.2409362792969 525.7348022460938 438.7987365722656 548.3236694335938 463.0303039550781" stroke-width="0.0" fill="rgb(2, 85, 142)" opacity="1.0" stroke="rgb(0, 0, 0)" stroke-opacity="1.0" stroke-linecap="round" stroke-linejoin="round"/>
    <path d="M 318.6352233886719 490.9132385253906 C 356.31463623046875 490.57879638671875 346.1798400878906 486.726806640625 315.06689453125 500.05126953125 C 305.1781921386719 516.3145141601562 307.7106018066406 490.5569152832031 312.5054016113281 492.4906921386719 C 335.9690246582031 490.06317138671875 347.66009521484375 491.94415283203125 332.8891296386719 436.6936340332031 C 334.9741516113281 447.9152526855469 314.26904296875 479.30877685546875 318.6352233886719 490.9132385253906" stroke-width="0.0" fill="rgb(91, 132, 87)" opacity="0.05840622" stroke="rgb(0, 0, 0)" stroke-opacity="1.0" stroke-linecap="round" stroke-linejoin="round"/>
    <path d="M 506.5091247558594 439.50244140625 C 482.9765930175781 427.980224609375 480.8627014160156 433.7408752441406 464.9962463378906 451.6085510253906 C 405.06610107421875 452.35382080078125 399.1578063964844 463.94512939453125 406.53094482421875 387.2110900878906 C 436.8146667480469 386.7174377441406 458.72271728515625 400.3631286621094 483.5567932128906 385.9049072265625 C 541.21484375 369.2640380859375 520.5092163085938 441.2742004394531 506.5091247558594 439.50244140625" stroke-width="0.0" fill="rgb(0, 104, 110)" opacity="1.0" stroke="rgb(0, 0, 0)" stroke-opacity="1.0" stroke-linecap="round" stroke-linejoin="round"/>
    <path d="M 479.4298400878906 423.31689453125 C 446.6477355957031 443.0369567871094 425.3163146972656 433.9281921386719 397.4195556640625 417.8865661621094 C 399.2928161621094 411.85943603515625 390.7533874511719 407.8144836425781 386.7851867675781 379.76202392578125 C 391.3308410644531 393.4611511230469 388.30926513671875 379.572998046875 385.0174865722656 383.529541015625 C 440.2052917480469 375.42645263671875 468.85137939453125 369.2224426269531 479.4298400878906 423.31689453125" stroke-width="0.0" fill="rgb(0, 120, 93)" opacity="0.7222782" stroke="rgb(0, 0, 0)" stroke-opacity="1.0" stroke-linecap="round" stroke-linejoin="round"/>
    <path d="M 261.49029541015625 136.5101318359375 C 249.24427795410156 136.8779754638672 225.7230224609375 129.37411499023438 230.93548583984375 153.4652557373047 C 268.2696533203125 163.06541442871094 253.08493041992188 148.05934143066406 211.6414337158203 142.29873657226562 C 242.27490234375 140.0509796142578 258.9796142578125 146.59774780273438 252.97181701660156 126.83126831054688 C 255.97113037109375 128.6617889404297 248.59915161132812 137.3203887939453 261.49029541015625 136.5101318359375" stroke-width="0.0" fill="rgb(220, 156, 184)" opacity="0.052054863" stroke="rgb(0, 0, 0)" stroke-opacity="1.0" stroke-linecap="round" stroke-linejoin="round"/>
    <path d="M 118.13131713867188 425.76922607421875 C 118.46260070800781 462.714111328125 109.02464294433594 447.2976989746094 73.48723602294922 439.00482177734375 C 66.06299591064453 428.7961120605469 52.504905700683594 431.8117980957031 18.848037719726562 420.47149658203125 C 21.383655548095703 392.5506896972656 31.66978645324707 371.6169738769531 42.777740478515625 370.8788757324219 C 91.37928771972656 405.7610778808594 110.37135314941406 400.037109375 118.13131713867188 425.76922607421875" stroke-width="0.0" fill="rgb(157, 121, 131)" opacity="0.03467427" stroke="rgb(0, 0, 0)" stroke-opacity="1.0" stroke-linecap="round" stroke-linejoin="round"/>
    <path d="M 451.2088928222656 79.09201049804688 C 447.8483581542969 114.81681060791016 449.0511779785156 138.07676696777344 422.3192443847656 125.94866180419922 C 406.74853515625 99.76817321777344 413.9638366699219 86.82083129882812 407.09820556640625 51.93289566040039 C 396.1023254394531 15.709122657775879 397.34716796875 20.152788162231445 422.6161193847656 44.253135681152344 C 436.5603332519531 61.78087615966797 451.445068359375 66.20841217041016 451.2088928222656 79.09201049804688" stroke-width="0.0" fill="rgb(95, 200, 73)" opacity="0.4377324" stroke="rgb(0, 0, 0)" stroke-opacity="1.0" stroke-linecap="round" stroke-linejoin="round"/>
    <path d="M 288.3852844238281 23.6313419342041 C 287.3350830078125 59.25971603393555 239.15121459960938 37.87882614135742 186.2433624267578 26.297412872314453 C 196.2431182861328 12.666006088256836 209.8792724609375 29.74923324584961 182.90740966796875 23.963279724121094 C 173.40223693847656 5.249960899353027 190.67974853515625 2.6216137409210205 205.255615234375 -2.386713743209839 C 230.8643798828125 -27.745046615600586 261.1401672363281 -35.357791900634766 288.3852844238281 23.6313419342041" stroke-width="0.0" fill="rgb(107, 215, 36)" opacity="0.77313656" stroke="rgb(0, 0, 0)" stroke-opacity="1.0" stroke-linecap="round" stroke-linejoin="round"/>
    <path d="M 519.74169921875 197.77908325195312 C 524.8861083984375 226.94668579101562 504.786865234375 242.40130615234375 491.47265625 252.3076171875 C 492.0252380371094 185.913330078125 494.8730773925781 175.36740112304688 489.36419677734375 188.8399658203125 C 465.39105224609375 159.5442352294922 463.9444274902344 153.7773895263672 499.8056335449219 158.866943359375 C 498.5095520019531 154.41598510742188 507.31463623046875 180.10842895507812 519.74169921875 197.77908325195312" stroke-width="0.0" fill="rgb(104, 171, 133)" opacity="0.02756702" stroke="rgb(0, 0, 0)" stroke-opacity="1.0" stroke-linecap="round" stroke-linejoin="round"/>
    <path d="M 444.1842041015625 266.16412353515625 C 444.3560791015625 328.0285949707031 420.4610595703125 315.6253356933594 396.5067138671875 312.7437438964844 C 400.66949462890625 328.17559814453125 399.3280334472656 339.3890380859375 406.0664367675781 321.1104736328125 C 371.2204284667969 271.0874328613281 364.7472229003906 304.24920654296875 401.07012939453125 331.1403503417969 C 412.1659851074219 270.2805480957031 425.0058288574219 258.85015869140625 444.1842041015625 266.16412353515625" stroke-width="0.0" fill="rgb(0, 149, 5)" opacity="0.17995742" stroke="rgb(0, 0, 0)" stroke-opacity="1.0" stroke-linecap="round" stroke-linejoin="round"/>
    <path d="M 242.64712524414062 272.9494323730469 C 255.56387329101562 269.80047607421875 249.2622833251953 280.3450012207031 244.3148956298828 283.1020202636719 C 249.40208435058594 269.58245849609375 248.5662841796875 257.1640319824219 238.3466339111328 264.6746520996094 C 227.70147705078125 265.8268737792969 230.91490173339844 271.45501708984375 247.10208129882812 260.3199462890625 C 245.51446533203125 275.924072265625 239.0144805908203 289.5632629394531 242.64712524414062 272.9494323730469" stroke-width="0.0" fill="rgb(99, 196, 169)" opacity="0.29627556" stroke="rgb(0, 0, 0)" stroke-opacity="1.0" stroke-linecap="round" stroke-linejoin="round"/>
    <path d="M 256.6116638183594 282.11651611328125 C 270.1434326171875 294.06500244140625 265.18817138671875 301.9204406738281 233.69375610351562 306.4681091308594 C 262.3212585449219 303.368408203125 261.9521789550781 301.7709655761719 250.9690704345703 275.7375793457031 C 239.1739959716797 311.8785095214844 253.13290405273438 291.1871032714844 259.5469970703125 273.73406982421875 C 278.48175048828125 277.55322265625 273.8058776855469 288.36724853515625 256.6116638183594 282.11651611328125" stroke-width="0.0" fill="rgb(57, 223, 123)" opacity="0.0070928033" stroke="rgb(0, 0, 0)" stroke-opacity="1.0" stroke-linecap="round" stroke-linejoin="round"/>
    <path d="M 23.433189392089844 118.24049377441406 C 41.36742401123047 118.4278564453125 62.46531677246094 134.89382934570312 66.8343505859375 157.06663513183594 C 48.9945068359375 135.48533630371094 37.36500930786133 127.9124526977539 13.348773002624512 101.97819519042969 C 6.289576053619385 117.02415466308594 27.92241096496582 110.32437896728516 42.44679260253906 108.05789184570312 C 52.69389724731445 118.58123016357422 54.357059478759766 110.6198501586914 23.433189392089844 118.24049377441406" stroke-width="0.0" fill="rgb(176, 131, 183)" opacity="0.03348791" stroke="rgb(0, 0, 0)" stroke-opacity="1.0" stroke-linecap="round" stroke-linejoin="round"/>
    <path d="M 425.79443359375 145.37782287597656 C 424.38751220703125 149.63455200195312 417.3192443847656 154.37806701660156 417.580078125 147.5332794189453 C 401.2080993652344 125.94750213623047 406.3141174316406 143.1035614013672 407.50225830078125 140.5020751953125 C 408.7030944824219 132.9813232421875 407.5030517578125 122.44573211669922 410.9925537109375 132.576171875 C 413.7531433105469 144.9196319580078 425.06292724609375 152.78909301757812 425.79443359375 145.37782287597656" stroke-width="0.0" fill="rgb(38, 200, 17)" opacity="0.59837556" stroke="rgb(0, 0, 0)" stroke-opacity="1.0" stroke-linecap="round" stroke-linejoin="round"/>
    <path d="M 122.29293060302734 467.01824951171875 C 122.1585922241211 511.7359313964844 91.697021484375 499.77716064453125 77.54466247558594 498.4393005371094 C 54.45542907714844 496.3807678222656 50.23363494873047 488.49456787109375 54.838951110839844 508.9082336425781 C 49.73979187011719 476.30926513671875 47.424922943115234 461.5567321777344 43.74285888671875 444.9349670410156 C 101.42092895507812 436.0139465332031 118.23929595947266 440.4271545410156 122.29293060302734 467.01824951171875" stroke-width="0.0" fill="rgb(92, 158, 171)" opacity="0.11069106" stroke="rgb(0, 0, 0)" stroke-opacity="1.0" stroke-linecap="round" stroke-linejoin="round"/>
    <path d="M 517.1539916992188 41.06755828857422 C 542.75 50.309120178222656 540.5686645507812 78.52033996582031 515.7514038085938 78.86217498779297 C 492.2345886230469 57.454559326171875 499.2754211425781 26.330333709716797 513.943359375 72.44657135009766 C 474.1109924316406 80.05360412597656 451.09625244140625 52.83818435668945 479.6497802734375 -13.864398002624512 C 532.8070068359375 -17.371671676635742 524.6279907226562 12.832250595092773 517.1539916992188 41.06755828857422" stroke-width="0.0" fill="rgb(65, 216, 49)" opacity="0.5147747" stroke="rgb(0, 0, 0)" stroke-opacity="1.0" stroke-linecap="round" stroke-linejoin="round"/>
    <path d="M 302.21954345703125 271.6103210449219 C 279.73297119140625 278.0419006347656 286.9595947265625 331.73284912109375 299.361572265625 321.1788330078125 C 301.517822265625 320.3106689453125 285.7375183105469 297.8480224609375 269.37408447265625 269.06939697265625 C 285.85162353515625 305.7627868652344 288.3503723144531 294.2569274902344 308.4856262207031 296.03936767578125 C 310.7126159667969 301.79681396484375 304.2389221191406 313.1443176269531 302.21954345703125 271.6103210449219" stroke-width="0.0" fill="rgb(97, 10, 184)" opacity="0.0221475" stroke="rgb(0, 0, 0)" stroke-opacity="1.0" stroke-linecap="round" stroke-linejoin="round"/>
    <path d="M 335.5727844238281 106.76907348632812 C 332.67169189453125 91.5257339477539 326.3865661621094 104.32781219482422 311.8383483886719 103.21304321289062 C 324.7101745605469 111.25321960449219 321.4252014160156 113.45618438720703 310.60552978515625 99.20750427246094 C 319.42626953125 101.82228088378906 324.677490234375 94.52198028564453 316.0371398925781 83.17533111572266 C 323.048828125 92.36183166503906 328.0730895996094 103.55416107177734 335.5727844238281 106.76907348632812" stroke-width="0.0" fill="rgb(0, 53, 190)" opacity="0.00021638778" stroke="rgb(0, 0, 0)" stroke-opacity="1.0" stroke-linecap="round" stroke-linejoin="round"/>
    <path d="M 148.9109344482422 74.3215560913086 C 148.18800354003906 99.69477844238281 152.87869262695312 102.96308898925781 137.1497344970703 104.72942352294922 C 105.50102996826172 102.47103118896484 101.6318588256836 92.78807830810547 101.35403442382812 83.6966323852539 C 114.9490966796875 71.03520965576172 125.51580047607422 70.02192687988281 113.65632629394531 80.58711242675781 C 110.36460876464844 64.5464859008789 143.9553985595703 76.72183227539062 148.9109344482422 74.3215560913086" stroke-width="0.0" fill="rgb(61, 231, 28)" opacity="0.053657018" stroke="rgb(0, 0, 0)" stroke-opacity="1.0" stroke-linecap="round" stroke-linejoin="round"/>
    <path d="M 474.73455810546875 457.47821044921875 C 455.3717956542969 491.6642761230469 444.0268859863281 506.1305236816406 425.9472351074219 532.0339965820312 C 422.0917663574219 529.4334716796875 407.8367919921875 530.9415893554688 398.35992431640625 508.8365478515625 C 383.5246887207031 452.7344970703125 403.92559814453125 447.7817687988281 412.6850891113281 450.63226318359375 C 471.22564697265625 441.1901550292969 473.37677001953125 418.4820861816406 474.73455810546875 457.47821044921875" stroke-width="0.0" fill="rgb(0, 99, 138)" opacity="1.0" stroke="rgb(0, 0, 0)" stroke-opacity="1.0" stroke-linecap="round" stroke-linejoin="round"/>
    <path d="M 238.71871948242188 88.49713897705078 C 223.5841064453125 103.57662200927734 207.9434814453125 109.76709747314453 200.1699981689453 109.34990692138672 C 185.0585479736328 97.15271759033203 159.63279724121094 106.07029724121094 174.80250549316406 87.1207504272461 C 212.17031860351562 111.45096588134766 230.7100830078125 98.05177307128906 219.8854522705078 71.89312744140625 C 196.14553833007812 60.472354888916016 208.7071990966797 62.8472785949707 238.71871948242188 88.49713897705078" stroke-width="0.0" fill="rgb(111, 229, 51)" opacity="0.0" stroke="rgb(0, 0, 0)" stroke-opacity="1.0" stroke-linecap="round" stroke-linejoin="round"/>
    <path d="M 278.749755859375 198.5660400390625 C 257.9085693359375 199.69912719726562 245.25758361816406 204.91012573242188 245.8887176513672 227.05026245117188 C 251.5762939453125 256.533203125 248.0135040283203 231.74220275878906 251.43760681152344 203.6641082763672 C 238.39100646972656 206.95382690429688 253.232421875 205.536376953125 268.76068115234375 187.30458068847656 C 295.3593444824219 195.12002563476562 292.1756286621094 203.11129760742188 278.749755859375 198.5660400390625" stroke-width="0.0" fill="rgb(204, 49, 231)" opacity="0.0021628789" stroke="rgb(0, 0, 0)" stroke-opacity="1.0" stroke-linecap="round" stroke-linejoin="round"/>
    <path d="M 477.5553894042969 -13.658132553100586 C 459.8650817871094 -7.369174480438232 460.654052734375 3.8581488132476807 466.4880676269531 29.68026351928711 C 464.3802490234375 38.233726501464844 479.1647644042969 22.53599739074707 467.9946594238281 10.080851554870605 C 448.48809814453125 -17.00743865966797 464.5641174316406 -28.79584312438965 484.0198974609375 -36.54064178466797 C 476.8262023925781 -16.114213943481445 486.2515869140625 -11.2457275390625 477.5553894042969 -13.658132553100586" stroke-width="0.0" fill="rgb(83, 94, 69)" opacity="0.0036759968" stroke="rgb(0, 0, 0)" stroke-opacity="1.0" stroke-linecap="round" stroke-linejoin="round"/>
    <path d="M 148.89263916015625 413.4439697265625 C 153.96661376953125 436.94854736328125 162.39942932128906 451.71307373046875 150.40615844726562 447.8233337402344 C 148.70138549804688 437.7560119628906 130.1659698486328 434.5248107910156 133.97125244140625 435.9205322265625 C 137.09768676757812 436.8815002441406 139.50762939453125 423.58087158203125 129.34573364257812 421.2492980957031 C 135.09371948242188 430.9808349609375 140.91775512695312 436.5714111328125 148.89263916015625 413.4439697265625" stroke-width="0.0" fill="rgb(131, 177, 110)" opacity="0.033677906" stroke="rgb(0, 0, 0)" stroke-opacity="1.0" stroke-linecap="round" stroke-linejoin="round"/>
  </g>
</svg>
