<?xml version="1.0" ?>
<svg xmlns="http://www.w3.org/2000/svg" version="1.1" width="512" height="512">
  <defs/>
  <g>
    <path d="M 561.3534545898438 439.59912109375 C 547.4852905273438 516.6414794921875 548.3889770507812 525.1383666992188 410.5906066894531 522.2997436523438 C 345.4957275390625 548.5838012695312 321.1719055175781 542.7715454101562 241.85911560058594 491.687744140625 C 297.1871032714844 327.68109130859375 371.60382080078125 336.83050537109375 477.0321350097656 311.0858459472656 C 550.1588745117188 332.9659423828125 574.595703125 337.50048828125 561.3534545898438 439.59912109375" stroke-width="0.0" fill="rgb(21, 100, 188)" opacity="0.9762554" stroke="rgb(0, 0, 0)" stroke-opacity="1.0" stroke-linecap="round" stroke-linejoin="round"/>
    <path d="M 287.3827819824219 432.192626953125 C 302.81951904296875 498.42095947265625 278.19873046875 519.1334838867188 239.00372314453125 545.4966430664062 C -51.20000076293945 519.230712890625 -51.20000076293945 511.73809814453125 -38.66730499267578 480.39544677734375 C -14.057563781738281 215.016845703125 -6.35650110244751 216.44869995117188 50.47822189331055 220.7681121826172 C 249.4233856201172 256.09918212890625 272.089599609375 194.99307250976562 287.3827819824219 432.192626953125" stroke-width="0.0" fill="rgb(210, 202, 172)" opacity="0.85536337" stroke="rgb(0, 0, 0)" stroke-opacity="1.0" stroke-linecap="round" stroke-linejoin="round"/>
    <path d="M 304.7593688964844 373.74945068359375 C 425.8397216796875 357.9366455078125 263.87713623046875 450.7695617675781 289.9835510253906 383.8094787597656 C 147.83843994140625 444.6375427246094 6.051578998565674 332.4348449707031 45.7541389465332 179.5430450439453 C 79.36198425292969 171.46463012695312 74.60376739501953 178.59063720703125 132.03067016601562 181.08570861816406 C 213.58592224121094 251.8394012451172 324.375244140625 146.68556213378906 304.7593688964844 373.74945068359375" stroke-width="0.0" fill="rgb(99, 97, 131)" opacity="0.5977672" stroke="rgb(0, 0, 0)" stroke-opacity="1.0" stroke-linecap="round" stroke-linejoin="round"/>
    <path d="M 205.47698974609375 -35.679290771484375 C 191.54238891601562 157.2496795654297 173.8279266357422 143.14247131347656 33.3464469909668 282.28863525390625 C -64.56322479248047 264.7560729980469 -68.0034408569336 241.84185791015625 -57.63819122314453 166.2427520751953 C -16.190303802490234 -17.708452224731445 -9.996477127075195 -23.574756622314453 32.775753021240234 -18.098133087158203 C 196.82273864746094 -23.394615173339844 224.5518341064453 -36.593833923339844 205.47698974609375 -35.679290771484375" stroke-width="0.0" fill="rgb(108, 67, 245)" opacity="0.99189645" stroke="rgb(0, 0, 0)" stroke-opacity="1.0" stroke-linecap="round" stroke-linejoin="round"/>
    <path d="M 514.7291259765625 87.89396667480469 C 450.2497253417969 306.6485595703125 453.07049560546875 396.8032531738281 298.0589904785156 321.9265441894531 C 336.987060546875 206.40501403808594 148.95095825195312 324.7997131347656 210.2212371826172 196.78640747070312 C 221.23294067382812 41.723487854003906 192.12393188476562 1.4374191761016846 340.543212890625 -61.92071533203125 C 563.301025390625 -9.803133010864258 567.2191162109375 11.297791481018066 514.7291259765625 87.89396667480469" stroke-width="0.0" fill="rgb(255, 252, 117)" opacity="0.44659063" stroke="rgb(0, 0, 0)" stroke-opacity="1.0" stroke-linecap="round" stroke-linejoin="round"/>
    <path d="M 237.4663543701172 126.134033203125 C 140.14895629882812 284.5107727050781 216.46658325195312 245.0699920654297 213.89247131347656 282.2920837402344 C 210.34005737304688 158.5808868408203 147.82655334472656 168.04006958007812 101.15433502197266 251.32025146484375 C 165.97442626953125 161.56011962890625 133.5722198486328 81.36888122558594 357.14312744140625 10.061187744140625 C 325.9933166503906 -28.445648193359375 255.25437927246094 -46.42661666870117 237.4663543701172 126.134033203125" stroke-width="0.0" fill="rgb(255, 255, 169)" opacity="0.6154634" stroke="rgb(0, 0, 0)" stroke-opacity="1.0" stroke-linecap="round" stroke-linejoin="round"/>
    <path d="M 466.7615966796875 314.1163330078125 C 431.5243835449219 431.9312744140625 454.0972595214844 453.59228515625 220.86663818359375 458.26837158203125 C 84.27980041503906 406.6368408203125 50.0223274230957 431.4244384765625 318.89453125 440.5716247558594 C 240.37081909179688 283.3145751953125 306.44219970703125 216.07887268066406 329.84619140625 244.0294647216797 C 492.0731201171875 231.73802185058594 472.2068786621094 249.95143127441406 466.7615966796875 314.1163330078125" stroke-width="0.0" fill="rgb(99, 105, 115)" opacity="0.7369156" stroke="rgb(0, 0, 0)" stroke-opacity="1.0" stroke-linecap="round" stroke-linejoin="round"/>
    <path d="M 575.1802978515625 218.16053771972656 C 576.1961669921875 346.594482421875 562.5484619140625 343.4252014160156 451.802490234375 407.6144714355469 C 395.0556945800781 386.36474609375 424.3255920410156 330.67852783203125 367.7720031738281 265.709716796875 C 380.5177917480469 95.6417465209961 353.73822021484375 10.07553768157959 510.5211181640625 28.25061798095703 C 545.929443359375 65.10315704345703 551.5210571289062 99.84661865234375 575.1802978515625 218.16053771972656" stroke-width="0.0" fill="rgb(21, 101, 195)" opacity="0.97032714" stroke="rgb(0, 0, 0)" stroke-opacity="1.0" stroke-linecap="round" stroke-linejoin="round"/>
    <path d="M 377.0882263183594 104.72342681884766 C 370.8937683105469 109.055419921875 374.3870544433594 232.90264892578125 346.18487548828125 368.750732421875 C 378.5465393066406 103.96783447265625 116.36479187011719 272.6171569824219 224.39413452148438 201.3699188232422 C 199.33958435058594 216.2974395751953 295.6365661621094 216.06800842285156 376.0557556152344 224.6079864501953 C 391.0078430175781 96.63516998291016 359.8855285644531 118.40198516845703 377.0882263183594 104.72342681884766" stroke-width="0.0" fill="rgb(97, 104, 173)" opacity="0.051052563" stroke="rgb(0, 0, 0)" stroke-opacity="1.0" stroke-linecap="round" stroke-linejoin="round"/>
    <path d="M 237.39393615722656 273.7882995605469 C 270.31884765625 268.7254638671875 242.21832275390625 321.458740234375 218.43870544433594 310.94219970703125 C 251.99794006347656 282.6968078613281 238.44207763671875 269.8848571777344 189.33645629882812 266.2919006347656 C 181.08436584472656 194.7100067138672 193.30250549316406 204.95626831054688 206.63563537597656 237.360107421875 C 237.62420654296875 258.83544921875 211.01780700683594 248.00680541992188 237.39393615722656 273.7882995605469" stroke-width="0.0" fill="rgb(111, 125, 68)" opacity="0.3698232" stroke="rgb(0, 0, 0)" stroke-opacity="1.0" stroke-linecap="round" stroke-linejoin="round"/>
    <path d="M 387.3185729980469 242.97996520996094 C 389.6759033203125 258.986572265625 391.1996154785156 277.6231384277344 417.3108825683594 356.1703186035156 C 357.5314636230469 327.2394104003906 358.6833801269531 337.9624938964844 351.87811279296875 335.8596496582031 C 357.8583679199219 192.72642517089844 380.9288635253906 240.79501342773438 362.9582214355469 223.6517791748047 C 396.1771545410156 276.7448425292969 378.30322265625 255.0319366455078 387.3185729980469 242.97996520996094" stroke-width="0.0" fill="rgb(15, 99, 196)" opacity="0.99619323" stroke="rgb(0, 0, 0)" stroke-opacity="1.0" stroke-linecap="round" stroke-linejoin="round"/>
    <path d="M 336.185546875 96.98873901367188 C 292.5386047363281 14.20844554901123 270.5110168457031 5.244596481323242 212.50660705566406 98.5091781616211 C 171.619873046875 153.96607971191406 205.66094970703125 80.69071197509766 151.56529235839844 213.47886657714844 C 134.4136199951172 53.35239028930664 174.3124542236328 17.35223960876465 227.46783447265625 -33.42915344238281 C 367.9501037597656 -43.16788101196289 366.3528137207031 -36.55240249633789 336.185546875 96.98873901367188" stroke-width="0.0" fill="rgb(80, 49, 252)" opacity="0.9925123" stroke="rgb(0, 0, 0)" stroke-opacity="1.0" stroke-linecap="round" stroke-linejoin="round"/>
    <path d="M 362.35455322265625 431.72216796875 C 89.4424057006836 384.0882263183594 387.6239013671875 410.33441162109375 115.06078338623047 391.7489013671875 C 121.83756256103516 330.03692626953125 115.77644348144531 403.3162536621094 379.3428955078125 359.26983642578125 C 196.04649353027344 337.1795654296875 -60.13650894165039 360.1978759765625 -31.901294708251953 310.4750671386719 C 106.56096649169922 380.56671142578125 521.21923828125 298.7419128417969 362.35455322265625 431.72216796875" stroke-width="0.0" fill="rgb(169, 179, 181)" opacity="0.815323" stroke="rgb(0, 0, 0)" stroke-opacity="1.0" stroke-linecap="round" stroke-linejoin="round"/>
    <path d="M 551.4609985351562 50.062049865722656 C 532.1774291992188 52.784767150878906 494.8223571777344 37.2929801940918 466.0621643066406 43.12306594848633 C 487.89739990234375 48.78883361816406 461.7491149902344 29.207706451416016 384.4859619140625 41.867923736572266 C 366.36358642578125 4.370778560638428 377.13580322265625 -18.00355339050293 443.69671630859375 -16.376689910888672 C 540.9146118164062 -10.191633224487305 536.6610717773438 3.261720895767212 551.4609985351562 50.062049865722656" stroke-width="0.0" fill="rgb(30, 97, 227)" opacity="1.0" stroke="rgb(0, 0, 0)" stroke-opacity="1.0" stroke-linecap="round" stroke-linejoin="round"/>
    <path d="M 497.4350891113281 452.21038818359375 C 467.33343505859375 478.0643615722656 455.998291015625 479.2036437988281 431.76519775390625 450.8131103515625 C 384.5002136230469 439.267333984375 368.5375061035156 464.6816101074219 388.8605651855469 400.1436767578125 C 374.82305908203125 329.072265625 404.646484375 311.72760009765625 464.55657958984375 348.5810852050781 C 485.75848388671875 371.5517883300781 516.7960815429688 383.77099609375 497.4350891113281 452.21038818359375" stroke-width="0.0" fill="rgb(27, 98, 194)" opacity="0.9946294" stroke="rgb(0, 0, 0)" stroke-opacity="1.0" stroke-linecap="round" stroke-linejoin="round"/>
    <path d="M 312.4669494628906 438.3530578613281 C 364.87115478515625 390.92608642578125 357.8059997558594 454.2604675292969 271.06365966796875 549.7471313476562 C 90.66804504394531 580.6336059570312 50.97296905517578 575.4718017578125 59.466773986816406 425.3975524902344 C 218.02142333984375 445.09521484375 246.5673065185547 454.44000244140625 300.1414794921875 452.0423889160156 C 307.19488525390625 397.1080322265625 269.354736328125 419.21087646484375 312.4669494628906 438.3530578613281" stroke-width="0.0" fill="rgb(21, 106, 235)" opacity="1.0" stroke="rgb(0, 0, 0)" stroke-opacity="1.0" stroke-linecap="round" stroke-linejoin="round"/>
    <path d="M 421.3697814941406 443.6276550292969 C 419.1998291015625 487.7294921875 407.449462890625 462.23333740234375 358.0172119140625 468.9847717285156 C 336.8262939453125 475.2406311035156 316.33514404296875 525.5119018554688 285.5510559082031 452.90411376953125 C 328.8301086425781 400.46923828125 334.7028503417969 401.8629150390625 354.07568359375 448.7445983886719 C 434.4098205566406 426.8713073730469 423.2046813964844 345.8048095703125 421.3697814941406 443.6276550292969" stroke-width="0.0" fill="rgb(44, 108, 179)" opacity="0.03937829" stroke="rgb(0, 0, 0)" stroke-opacity="1.0" stroke-linecap="round" stroke-linejoin="round"/>
    <path d="M 82.27226257324219 391.2275085449219 C 96.9273452758789 428.0379638671875 90.4831314086914 475.78839111328125 6.386107921600342 499.47991943359375 C -43.34564971923828 413.9444274902344 -3.2664108276367188 404.7939453125 30.15677261352539 410.1157531738281 C 23.468000411987305 419.36376953125 24.370189666748047 411.0653381347656 73.5822982788086 422.76934814453125 C 47.09566116333008 402.4634094238281 40.13666915893555 362.56256103515625 82.27226257324219 391.2275085449219" stroke-width="0.0" fill="rgb(154, 51, 229)" opacity="0.78254867" stroke="rgb(0, 0, 0)" stroke-opacity="1.0" stroke-linecap="round" stroke-linejoin="round"/>
    <path d="M 360.57012939453125 126.60917663574219 C 362.5682678222656 140.12808227539062 425.2601318359375 140.5467987060547 264.2573547363281 137.8885040283203 C 372.33941650390625 127.99392700195312 381.47100830078125 153.6023712158203 353.0817565917969 106.764892578125 C 225.32730102539062 117.66966247558594 157.28407287597656 126.24634552001953 203.4937744140625 91.45828247070312 C 381.0010986328125 111.421630859375 323.5965881347656 92.95809936523438 360.57012939453125 126.60917663574219" stroke-width="0.0" fill="rgb(255, 238, 26)" opacity="0.019871114" stroke="rgb(0, 0, 0)" stroke-opacity="1.0" stroke-linecap="round" stroke-linejoin="round"/>
    <path d="M 359.881103515625 222.31329345703125 C 341.9071350097656 218.56443786621094 349.92254638671875 162.3582763671875 346.629638671875 341.1511535644531 C 341.09210205078125 146.70059204101562 411.90765380859375 232.52159118652344 192.45608520507812 198.8150634765625 C 172.08514404296875 226.8510284423828 440.34466552734375 205.87538146972656 352.6300964355469 211.17161560058594 C 367.4399719238281 184.6636962890625 392.2698059082031 226.8303985595703 359.881103515625 222.31329345703125" stroke-width="0.0" fill="rgb(191, 230, 179)" opacity="0.0" stroke="rgb(0, 0, 0)" stroke-opacity="1.0" stroke-linecap="round" stroke-linejoin="round"/>
    <path d="M 180.59878540039062 324.58709716796875 C 164.52511596679688 374.7579040527344 101.36151123046875 279.7133483886719 125.56275939941406 437.2762145996094 C 55.56053161621094 495.7772521972656 -3.9212749004364014 469.241943359375 -41.727596282958984 323.5015869140625 C 27.6684513092041 242.1475830078125 46.316680908203125 220.0000762939453 151.37384033203125 109.50331115722656 C 140.81690979003906 116.35935974121094 163.3067169189453 186.08493041992188 180.59878540039062 324.58709716796875" stroke-width="0.0" fill="rgb(76, 55, 252)" opacity="1.0" stroke="rgb(0, 0, 0)" stroke-opacity="1.0" stroke-linecap="round" stroke-linejoin="round"/>
    <path d="M 149.2165985107422 540.0735473632812 C 123.9425277709961 521.8115844726562 111.82440948486328 523.4666748046875 71.47157287597656 552.0791625976562 C 57.1573486328125 544.0708618164062 35.43041229248047 547.209716796875 -30.7003231048584 438.29547119140625 C -37.18433380126953 377.7190856933594 11.000401496887207 374.2186584472656 66.82530212402344 397.101806640625 C 147.45297241210938 434.2470703125 148.99546813964844 484.9096374511719 149.2165985107422 540.0735473632812" stroke-width="0.0" fill="rgb(83, 50, 255)" opacity="0.98758596" stroke="rgb(0, 0, 0)" stroke-opacity="1.0" stroke-linecap="round" stroke-linejoin="round"/>
    <path d="M 228.69058227539062 139.87435913085938 C 292.4715881347656 227.9045867919922 258.7852783203125 55.41804885864258 281.0559387207031 147.72071838378906 C 251.50094604492188 198.98265075683594 200.03228759765625 175.32138061523438 233.25628662109375 123.68498229980469 C 219.68746948242188 226.85325622558594 303.5638427734375 122.78348541259766 238.66563415527344 111.549560546875 C 306.6594543457031 66.55937194824219 301.8190612792969 205.18423461914062 228.69058227539062 139.87435913085938" stroke-width="0.0" fill="rgb(255, 207, 100)" opacity="0.015356576" stroke="rgb(0, 0, 0)" stroke-opacity="1.0" stroke-linecap="round" stroke-linejoin="round"/>
    <path d="M 275.7679748535156 261.8134765625 C 284.1142883300781 243.627197265625 275.11090087890625 244.81405639648438 257.14349365234375 246.73373413085938 C 255.51808166503906 269.1374206542969 241.24652099609375 270.252197265625 303.8463134765625 263.54339599609375 C 294.6520690917969 238.24081420898438 271.865478515625 215.0362548828125 303.40899658203125 244.11630249023438 C 277.9870910644531 250.73928833007812 279.7835998535156 213.7064208984375 275.7679748535156 261.8134765625" stroke-width="0.0" fill="rgb(88, 145, 255)" opacity="0.32624105" stroke="rgb(0, 0, 0)" stroke-opacity="1.0" stroke-linecap="round" stroke-linejoin="round"/>
    <path d="M 301.85479736328125 134.1503143310547 C 210.7900848388672 115.20532989501953 253.56280517578125 143.4645233154297 256.762451171875 150.89625549316406 C 277.63287353515625 156.3577423095703 142.8535919189453 166.96820068359375 141.3480987548828 156.2832794189453 C 206.58544921875 143.21286010742188 218.7664031982422 126.1430435180664 225.48118591308594 150.7130584716797 C 252.81173706054688 142.83522033691406 224.4542694091797 121.02302551269531 301.85479736328125 134.1503143310547" stroke-width="0.0" fill="rgb(255, 153, 96)" opacity="0.0" stroke="rgb(0, 0, 0)" stroke-opacity="1.0" stroke-linecap="round" stroke-linejoin="round"/>
    <path d="M 366.529296875 359.0135498046875 C 345.3901672363281 322.82830810546875 324.8061828613281 340.3857116699219 308.7248229980469 370.9185791015625 C 338.56842041015625 341.3331604003906 278.1587829589844 342.2241516113281 164.0914764404297 343.8606262207031 C 192.87335205078125 316.06536865234375 162.11473083496094 344.0769348144531 314.361083984375 332.8675842285156 C 271.38690185546875 333.9573669433594 310.8828125 325.0881652832031 366.529296875 359.0135498046875" stroke-width="0.0" fill="rgb(138, 139, 149)" opacity="0.4211369" stroke="rgb(0, 0, 0)" stroke-opacity="1.0" stroke-linecap="round" stroke-linejoin="round"/>
    <path d="M 44.78084945678711 512.2811889648438 C 49.9745979309082 552.4300537109375 26.333595275878906 544.4257202148438 8.993830680847168 537.4406127929688 C -9.364206314086914 527.7437133789062 -16.68471336364746 520.4232177734375 -32.08259582519531 497.89599609375 C -41.531044006347656 471.09820556640625 -63.27537155151367 436.57562255859375 -3.0120534896850586 391.68115234375 C 74.55119323730469 392.6055908203125 53.276206970214844 433.5451965332031 44.78084945678711 512.2811889648438" stroke-width="0.0" fill="rgb(85, 45, 253)" opacity="1.0" stroke="rgb(0, 0, 0)" stroke-opacity="1.0" stroke-linecap="round" stroke-linejoin="round"/>
    <path d="M 228.59219360351562 186.58773803710938 C 279.86431884765625 230.79322814941406 331.10870361328125 226.10498046875 147.66519165039062 222.35049438476562 C 150.16041564941406 194.73321533203125 164.04490661621094 150.16098022460938 151.97201538085938 164.16241455078125 C 157.84017944335938 152.25096130371094 141.7401123046875 140.94461059570312 151.3460693359375 151.73724365234375 C 155.56561279296875 164.23092651367188 176.52903747558594 152.9964141845703 228.59219360351562 186.58773803710938" stroke-width="0.0" fill="rgb(255, 231, 81)" opacity="0.99584943" stroke="rgb(0, 0, 0)" stroke-opacity="1.0" stroke-linecap="round" stroke-linejoin="round"/>
    <path d="M 207.544677734375 109.18755340576172 C 177.6044921875 112.12266540527344 180.37632751464844 104.3781509399414 167.44122314453125 155.22494506835938 C 140.65383911132812 170.89877319335938 173.04849243164062 146.1587371826172 175.7756805419922 120.23937225341797 C 176.90074157714844 102.2801742553711 221.54026794433594 114.91001892089844 209.0546112060547 108.8485107421875 C 201.1903076171875 112.33687591552734 207.66305541992188 112.62229919433594 207.544677734375 109.18755340576172" stroke-width="0.0" fill="rgb(239, 114, 111)" opacity="0.0" stroke="rgb(0, 0, 0)" stroke-opacity="1.0" stroke-linecap="round" stroke-linejoin="round"/>
    <path d="M 451.33599853515625 105.10179901123047 C 428.627197265625 123.22124481201172 434.5328674316406 131.89710998535156 379.47479248046875 174.40318298339844 C 339.5634765625 143.82369995117188 369.40069580078125 140.51596069335938 325.5547790527344 92.98037719726562 C 345.5844421386719 11.314767837524414 327.4203796386719 -11.708075523376465 390.1855773925781 -78.20083618164062 C 503.4808654785156 2.6025896072387695 486.4325866699219 52.99964141845703 451.33599853515625 105.10179901123047" stroke-width="0.0" fill="rgb(97, 56, 254)" opacity="0.9979553" stroke="rgb(0, 0, 0)" stroke-opacity="1.0" stroke-linecap="round" stroke-linejoin="round"/>
    <path d="M 379.9284362792969 242.80540466308594 C 388.8503112792969 279.938232421875 392.829345703125 258.5768127441406 387.10772705078125 239.34571838378906 C 352.260986328125 233.34811401367188 349.85723876953125 242.3550567626953 348.73565673828125 234.70602416992188 C 329.1445617675781 225.78375244140625 326.1113586425781 222.8846893310547 319.51104736328125 239.07936096191406 C 323.5545349121094 254.3596954345703 363.8134460449219 239.42193603515625 379.9284362792969 242.80540466308594" stroke-width="0.0" fill="rgb(151, 128, 159)" opacity="0.3836636" stroke="rgb(0, 0, 0)" stroke-opacity="1.0" stroke-linecap="round" stroke-linejoin="round"/>
    <path d="M 250.62930297851562 288.10260009765625 C 245.41360473632812 325.5019836425781 246.03591918945312 363.60809326171875 223.89663696289062 322.0873718261719 C 200.58981323242188 263.7412414550781 172.4423370361328 248.9816131591797 181.43496704101562 278.8848876953125 C 174.36087036132812 271.9429016113281 178.7093048095703 250.29725646972656 205.93206787109375 259.7168273925781 C 222.92848205566406 258.70782470703125 229.0035858154297 258.2205505371094 250.62930297851562 288.10260009765625" stroke-width="0.0" fill="rgb(220, 235, 223)" opacity="0.98713565" stroke="rgb(0, 0, 0)" stroke-opacity="1.0" stroke-linecap="round" stroke-linejoin="round"/>
    <path d="M 171.24267578125 435.03125 C 181.26364135742188 423.8037414550781 188.0340576171875 441.2990417480469 178.9064483642578 466.376220703125 C 138.57733154296875 470.7691955566406 152.81288146972656 458.57574462890625 140.11285400390625 424.49859619140625 C 129.18692016601562 435.2188720703125 175.25448608398438 434.321044921875 182.85231018066406 432.843994140625 C 167.3081512451172 428.46124267578125 172.81283569335938 435.9251403808594 171.24267578125 435.03125" stroke-width="0.0" fill="rgb(72, 34, 0)" opacity="1.0" stroke="rgb(0, 0, 0)" stroke-opacity="1.0" stroke-linecap="round" stroke-linejoin="round"/>
    <path d="M 413.660888671875 390.61492919921875 C 386.65460205078125 377.475830078125 409.53521728515625 380.9183349609375 408.6771240234375 414.637939453125 C 341.90423583984375 411.7406005859375 356.34552001953125 404.4552307128906 377.46014404296875 411.9355773925781 C 380.3432922363281 343.0863037109375 352.59783935546875 356.1348571777344 421.50714111328125 365.3893737792969 C 426.20361328125 383.6759033203125 424.5885925292969 386.7052001953125 413.660888671875 390.61492919921875" stroke-width="0.0" fill="rgb(18, 94, 208)" opacity="0.73167294" stroke="rgb(0, 0, 0)" stroke-opacity="1.0" stroke-linecap="round" stroke-linejoin="round"/>
    <path d="M 280.7371826171875 151.25022888183594 C 258.8878173828125 141.80419921875 259.08795166015625 154.09458923339844 256.7104797363281 162.65879821777344 C 262.438720703125 173.80380249023438 250.71961975097656 158.3994598388672 238.20748901367188 142.55494689941406 C 213.4151153564453 136.40579223632812 240.1527099609375 129.93853759765625 234.35848999023438 147.73257446289062 C 246.89906311035156 143.4385986328125 292.43743896484375 143.22682189941406 280.7371826171875 151.25022888183594" stroke-width="0.0" fill="rgb(255, 255, 190)" opacity="0.42525336" stroke="rgb(0, 0, 0)" stroke-opacity="1.0" stroke-linecap="round" stroke-linejoin="round"/>
    <path d="M 250.72747802734375 270.764404296875 C 265.6422424316406 299.1216125488281 270.3644714355469 280.7318420410156 253.2130584716797 319.7781066894531 C 245.58154296875 369.9878845214844 238.44436645507812 361.31414794921875 229.8557586669922 299.9741516113281 C 260.6135559082031 295.37457275390625 240.4026336669922 291.97406005859375 218.91653442382812 292.587646484375 C 210.77862548828125 247.05824279785156 239.66000366210938 259.9448547363281 250.72747802734375 270.764404296875" stroke-width="0.0" fill="rgb(213, 223, 221)" opacity="0.97057986" stroke="rgb(0, 0, 0)" stroke-opacity="1.0" stroke-linecap="round" stroke-linejoin="round"/>
    <path d="M 206.96067810058594 362.9859619140625 C 173.7497100830078 353.9052734375 168.61163330078125 350.6949157714844 149.22108459472656 363.0767822265625 C 130.55291748046875 369.06463623046875 116.36597442626953 369.8158264160156 116.57286834716797 353.4266052246094 C 126.83956909179688 343.25811767578125 167.71975708007812 337.14361572265625 161.25608825683594 342.2722473144531 C 201.18051147460938 339.5200500488281 192.09080505371094 334.9269104003906 206.96067810058594 362.9859619140625" stroke-width="0.0" fill="rgb(220, 101, 74)" opacity="0.1302417" stroke="rgb(0, 0, 0)" stroke-opacity="1.0" stroke-linecap="round" stroke-linejoin="round"/>
    <path d="M 211.9129180908203 259.0423889160156 C 229.6200714111328 287.6370849609375 233.91607666015625 284.4294738769531 198.64407348632812 278.6797180175781 C 167.63156127929688 260.35870361328125 174.0254669189453 258.10491943359375 187.7135009765625 256.87347412109375 C 207.6175994873047 259.96728515625 209.77809143066406 250.605224609375 180.42340087890625 260.2772521972656 C 172.4483184814453 223.3012237548828 185.8810577392578 230.15399169921875 211.9129180908203 259.0423889160156" stroke-width="0.0" fill="rgb(160, 178, 11)" opacity="0.076641805" stroke="rgb(0, 0, 0)" stroke-opacity="1.0" stroke-linecap="round" stroke-linejoin="round"/>
    <path d="M 282.5872802734375 252.53829956054688 C 273.77197265625 238.93777465820312 290.8395690917969 245.9718475341797 289.6966247558594 256.6199035644531 C 266.33367919921875 268.82403564453125 241.3765411376953 268.1143493652344 261.283935546875 284.326171875 C 266.2585144042969 237.32354736328125 268.77459716796875 230.3596954345703 276.57354736328125 229.8074951171875 C 271.77685546875 236.7731475830078 279.6949768066406 242.61807250976562 282.5872802734375 252.53829956054688" stroke-width="0.0" fill="rgb(180, 155, 234)" opacity="0.33665645" stroke="rgb(0, 0, 0)" stroke-opacity="1.0" stroke-linecap="round" stroke-linejoin="round"/>
    <path d="M 182.90771484375 339.56488037109375 C 191.376708984375 343.7039794921875 177.94537353515625 341.7384338378906 151.831787109375 335.7774353027344 C 157.1324005126953 366.6523742675781 152.3844757080078 346.26275634765625 161.4494171142578 346.86370849609375 C 166.49130249023438 342.0480651855469 180.74452209472656 338.53631591796875 189.27716064453125 343.76202392578125 C 188.1851043701172 338.392333984375 183.36256408691406 333.8264465332031 182.90771484375 339.56488037109375" stroke-width="0.0" fill="rgb(86, 92, 150)" opacity="0.019014692" stroke="rgb(0, 0, 0)" stroke-opacity="1.0" stroke-linecap="round" stroke-linejoin="round"/>
    <path d="M 101.80008697509766 406.8941345214844 C 70.54798126220703 440.23480224609375 86.96269989013672 472.62738037109375 96.76317596435547 453.45880126953125 C 57.60062789916992 452.0917663574219 66.14508819580078 462.4462890625 54.25320816040039 481.72100830078125 C 39.33661651611328 428.1765441894531 53.463172912597656 393.17138671875 41.31719207763672 409.0512390136719 C 68.78562927246094 417.9776306152344 109.1209716796875 420.876953125 101.80008697509766 406.8941345214844" stroke-width="0.0" fill="rgb(78, 68, 249)" opacity="0.06176613" stroke="rgb(0, 0, 0)" stroke-opacity="1.0" stroke-linecap="round" stroke-linejoin="round"/>
    <path d="M 438.7122802734375 451.9351501464844 C 430.91925048828125 462.3277282714844 430.61370849609375 493.4201965332031 458.1535339355469 465.9606018066406 C 454.87469482421875 453.1913146972656 427.4913330078125 475.7903137207031 395.68292236328125 459.1669921875 C 423.5425720214844 395.4021911621094 417.693359375 404.4062805175781 429.193603515625 416.128173828125 C 428.7000427246094 469.2666320800781 437.84197998046875 452.2662048339844 438.7122802734375 451.9351501464844" stroke-width="0.0" fill="rgb(19, 91, 216)" opacity="0.11905346" stroke="rgb(0, 0, 0)" stroke-opacity="1.0" stroke-linecap="round" stroke-linejoin="round"/>
    <path d="M 443.6132507324219 364.3240661621094 C 451.5834045410156 375.962646484375 458.3222351074219 393.1689147949219 431.58538818359375 379.83123779296875 C 421.7479553222656 398.4103698730469 426.5423889160156 384.56134033203125 421.4367370605469 366.91143798828125 C 418.8755187988281 371.9598083496094 438.14093017578125 366.5778503417969 458.2167053222656 366.3728332519531 C 453.99310302734375 361.06158447265625 437.6064758300781 352.1270446777344 443.6132507324219 364.3240661621094" stroke-width="0.0" fill="rgb(5, 116, 193)" opacity="0.0012204966" stroke="rgb(0, 0, 0)" stroke-opacity="1.0" stroke-linecap="round" stroke-linejoin="round"/>
    <path d="M 47.249427795410156 456.5762939453125 C 38.012123107910156 459.63201904296875 27.656471252441406 462.964599609375 8.39852523803711 495.84088134765625 C 26.19928550720215 503.20013427734375 34.7377815246582 497.2025146484375 54.14622116088867 471.3063049316406 C 48.59877395629883 443.35540771484375 55.1740608215332 435.1568298339844 28.310775756835938 442.21246337890625 C 8.106858253479004 474.8466796875 33.60898208618164 477.35284423828125 47.249427795410156 456.5762939453125" stroke-width="0.0" fill="rgb(90, 66, 234)" opacity="0.025160097" stroke="rgb(0, 0, 0)" stroke-opacity="1.0" stroke-linecap="round" stroke-linejoin="round"/>
    <path d="M 144.86386108398438 238.0913848876953 C 168.80174255371094 246.0091094970703 156.82681274414062 264.37298583984375 145.73431396484375 279.8258056640625 C 107.45743560791016 279.9393310546875 116.46248626708984 289.8312072753906 100.45903015136719 249.44325256347656 C 97.08426666259766 234.21607971191406 100.15316772460938 222.76646423339844 105.81297302246094 215.5590362548828 C 135.796875 209.94448852539062 135.01271057128906 235.2206268310547 144.86386108398438 238.0913848876953" stroke-width="0.0" fill="rgb(19, 93, 254)" opacity="0.034584388" stroke="rgb(0, 0, 0)" stroke-opacity="1.0" stroke-linecap="round" stroke-linejoin="round"/>
    <path d="M 471.30206298828125 234.58497619628906 C 482.4895935058594 251.1944580078125 468.4739074707031 236.859130859375 473.055908203125 243.10379028320312 C 463.9814453125 236.09510803222656 438.2122802734375 239.37405395507812 440.6531677246094 236.67431640625 C 459.6966247558594 252.4649658203125 429.0570068359375 260.9118347167969 461.43939208984375 259.38641357421875 C 460.6622009277344 213.6148223876953 483.7527770996094 230.23304748535156 471.30206298828125 234.58497619628906" stroke-width="0.0" fill="rgb(15, 118, 149)" opacity="0.005325377" stroke="rgb(0, 0, 0)" stroke-opacity="1.0" stroke-linecap="round" stroke-linejoin="round"/>
    <path d="M 382.20281982421875 182.7799835205078 C 354.4863586425781 187.02003479003906 363.617919921875 200.9046630859375 366.8030700683594 214.66741943359375 C 367.82110595703125 219.8482666015625 342.0603332519531 219.2377166748047 337.2456359863281 213.2312469482422 C 337.1398010253906 184.05262756347656 339.2221984863281 175.70184326171875 348.2133483886719 187.83779907226562 C 348.8744201660156 191.1410675048828 369.08154296875 186.31643676757812 382.20281982421875 182.7799835205078" stroke-width="0.0" fill="rgb(226, 252, 249)" opacity="0.0" stroke="rgb(0, 0, 0)" stroke-opacity="1.0" stroke-linecap="round" stroke-linejoin="round"/>
    <path d="M 85.71175384521484 440.8965759277344 C 82.71833801269531 444.0261535644531 71.00189208984375 439.80706787109375 71.75263977050781 476.95770263671875 C 44.60762405395508 487.7499084472656 41.80024337768555 484.3543395996094 33.958553314208984 463.97674560546875 C 41.94229507446289 390.82916259765625 74.48757934570312 393.94573974609375 62.296165466308594 449.5853271484375 C 84.74182891845703 448.5343017578125 70.2641830444336 450.1507263183594 85.71175384521484 440.8965759277344" stroke-width="0.0" fill="rgb(92, 63, 238)" opacity="0.026809242" stroke="rgb(0, 0, 0)" stroke-opacity="1.0" stroke-linecap="round" stroke-linejoin="round"/>
    <path d="M 472.96588134765625 80.8475112915039 C 444.8438720703125 56.67613220214844 446.5742492675781 57.49989318847656 453.4608459472656 55.16746520996094 C 444.2619934082031 46.87665557861328 433.75506591796875 47.87033462524414 430.01202392578125 87.81147766113281 C 451.0845031738281 101.67436981201172 460.57220458984375 69.0822525024414 465.4804992675781 29.832050323486328 C 482.2371520996094 24.27635955810547 483.34686279296875 22.10965919494629 472.96588134765625 80.8475112915039" stroke-width="0.0" fill="rgb(43, 98, 191)" opacity="0.0" stroke="rgb(0, 0, 0)" stroke-opacity="1.0" stroke-linecap="round" stroke-linejoin="round"/>
    <path d="M 301.56072998046875 154.9820556640625 C 299.7514953613281 174.2838134765625 294.27130126953125 188.80023193359375 285.250732421875 170.54974365234375 C 270.7331848144531 161.4541015625 264.30023193359375 195.53787231445312 309.00726318359375 195.51419067382812 C 306.1500549316406 164.51327514648438 291.79034423828125 142.65354919433594 257.7743225097656 148.88327026367188 C 288.8807067871094 153.9322967529297 294.22216796875 154.6669464111328 301.56072998046875 154.9820556640625" stroke-width="0.0" fill="rgb(255, 254, 175)" opacity="0.062474012" stroke="rgb(0, 0, 0)" stroke-opacity="1.0" stroke-linecap="round" stroke-linejoin="round"/>
    <path d="M 180.66514587402344 -19.28525733947754 C 199.36703491210938 97.61235046386719 177.66343688964844 125.40739440917969 108.75936126708984 96.33887481689453 C 114.63966369628906 37.104881286621094 108.7540054321289 15.63773250579834 148.864990234375 30.560319900512695 C 165.3615264892578 6.709550857543945 160.4366455078125 24.177385330200195 159.1352996826172 9.073458671569824 C 145.37838745117188 5.268158912658691 128.5785675048828 11.687976837158203 180.66514587402344 -19.28525733947754" stroke-width="0.0" fill="rgb(73, 83, 240)" opacity="0.025047917" stroke="rgb(0, 0, 0)" stroke-opacity="1.0" stroke-linecap="round" stroke-linejoin="round"/>
    <path d="M 221.75291442871094 340.3699951171875 C 213.65408325195312 341.3529968261719 202.53842163085938 327.44775390625 204.99124145507812 337.4576721191406 C 196.57040405273438 330.54052734375 177.21702575683594 329.32574462890625 169.26577758789062 354.0480651855469 C 169.88534545898438 334.3219909667969 188.64698791503906 316.2133483886719 201.845703125 357.7292785644531 C 178.7479705810547 346.06597900390625 198.26800537109375 347.98895263671875 221.75291442871094 340.3699951171875" stroke-width="0.0" fill="rgb(121, 176, 137)" opacity="0.016396685" stroke="rgb(0, 0, 0)" stroke-opacity="1.0" stroke-linecap="round" stroke-linejoin="round"/>
    <path d="M 64.58790588378906 320.83880615234375 C 61.201114654541016 345.54901123046875 57.85993957519531 352.12811279296875 24.264785766601562 345.9091491699219 C 16.424598693847656 348.1514892578125 16.818233489990234 326.63958740234375 16.882366180419922 312.3931579589844 C 10.765377044677734 298.52655029296875 17.180774688720703 289.5187072753906 46.325626373291016 293.4865417480469 C 58.27513122558594 295.43560791015625 61.99732208251953 305.31134033203125 64.58790588378906 320.83880615234375" stroke-width="0.0" fill="rgb(92, 61, 238)" opacity="0.08171071" stroke="rgb(0, 0, 0)" stroke-opacity="1.0" stroke-linecap="round" stroke-linejoin="round"/>
    <path d="M 424.34320068359375 452.2556457519531 C 418.6788635253906 420.63897705078125 387.2339172363281 433.1552734375 406.20068359375 441.8512878417969 C 401.5174255371094 430.926513671875 362.2790222167969 404.05804443359375 362.4941711425781 421.7865905761719 C 362.57867431640625 431.91680908203125 404.80474853515625 424.2884826660156 412.9064025878906 434.0970458984375 C 400.86541748046875 429.9447937011719 406.7442932128906 437.44915771484375 424.34320068359375 452.2556457519531" stroke-width="0.0" fill="rgb(3, 100, 206)" opacity="0.1673423" stroke="rgb(0, 0, 0)" stroke-opacity="1.0" stroke-linecap="round" stroke-linejoin="round"/>
    <path d="M 121.56377410888672 291.8983459472656 C 126.67259216308594 289.4709777832031 130.66986083984375 298.1910400390625 124.02910614013672 289.0477600097656 C 99.12481689453125 282.08294677734375 86.63587188720703 294.5271301269531 93.15001678466797 270.79095458984375 C 88.10779571533203 238.370361328125 104.17193603515625 233.63845825195312 103.00221252441406 250.46690368652344 C 107.9897232055664 283.30438232421875 139.79261779785156 285.2946472167969 121.56377410888672 291.8983459472656" stroke-width="0.0" fill="rgb(2, 61, 241)" opacity="0.00023906503" stroke="rgb(0, 0, 0)" stroke-opacity="1.0" stroke-linecap="round" stroke-linejoin="round"/>
    <path d="M 144.98129272460938 438.7781982421875 C 159.94601440429688 437.5447082519531 116.38230895996094 444.60107421875 104.00759887695312 448.3534240722656 C 105.53004455566406 458.66949462890625 98.37663269042969 456.79254150390625 107.19097137451172 444.4404602050781 C 105.30934143066406 437.69049072265625 111.43925476074219 409.1697692871094 151.71710205078125 424.61956787109375 C 155.11587524414062 434.8245544433594 140.24313354492188 423.0155029296875 144.98129272460938 438.7781982421875" stroke-width="0.0" fill="rgb(49, 65, 253)" opacity="0.16020606" stroke="rgb(0, 0, 0)" stroke-opacity="1.0" stroke-linecap="round" stroke-linejoin="round"/>
    <path d="M 247.3358612060547 29.312175750732422 C 234.6742401123047 23.364715576171875 233.48069763183594 46.48414611816406 244.72169494628906 37.39323425292969 C 249.38975524902344 42.16621398925781 248.59524536132812 18.576440811157227 252.56216430664062 54.560543060302734 C 229.03172302246094 62.4821891784668 246.91836547851562 28.561378479003906 246.2303009033203 37.33209228515625 C 240.4931182861328 30.558279037475586 233.133544921875 50.00089645385742 247.3358612060547 29.312175750732422" stroke-width="0.0" fill="rgb(0, 148, 134)" opacity="0.0" stroke="rgb(0, 0, 0)" stroke-opacity="1.0" stroke-linecap="round" stroke-linejoin="round"/>
    <path d="M 94.00660705566406 350.2991027832031 C 101.25880432128906 371.4874572753906 119.66348266601562 377.9932861328125 101.7427978515625 376.828857421875 C 88.77019500732422 370.9778137207031 93.99588775634766 364.4471435546875 87.70618438720703 339.78228759765625 C 97.29733276367188 329.4081115722656 102.78730010986328 324.32464599609375 114.42828369140625 345.4295654296875 C 112.63938903808594 328.8098449707031 110.8960189819336 331.7940673828125 94.00660705566406 350.2991027832031" stroke-width="0.0" fill="rgb(64, 85, 225)" opacity="0.003097988" stroke="rgb(0, 0, 0)" stroke-opacity="1.0" stroke-linecap="round" stroke-linejoin="round"/>
    <path d="M 521.7330932617188 223.53578186035156 C 535.8900756835938 277.1231689453125 533.5780029296875 298.49261474609375 510.1895751953125 268.3346862792969 C 475.15106201171875 229.98434448242188 469.3759765625 233.9230499267578 471.5449523925781 196.40736389160156 C 488.49676513671875 250.91273498535156 484.00054931640625 235.8048553466797 501.6691589355469 102.6769027709961 C 555.050048828125 109.1165771484375 520.0137329101562 169.6391143798828 521.7330932617188 223.53578186035156" stroke-width="0.0" fill="rgb(38, 93, 154)" opacity="0.011054757" stroke="rgb(0, 0, 0)" stroke-opacity="1.0" stroke-linecap="round" stroke-linejoin="round"/>
    <path d="M 440.40020751953125 250.5033721923828 C 446.98284912109375 265.77593994140625 457.0339660644531 314.3265380859375 421.4097900390625 346.2679443359375 C 356.51690673828125 326.60498046875 380.04742431640625 306.9681396484375 405.1334533691406 251.19566345214844 C 415.6929931640625 251.36264038085938 435.72735595703125 250.05587768554688 425.6527099609375 232.67788696289062 C 409.3966979980469 234.2090301513672 431.2561950683594 261.3249816894531 440.40020751953125 250.5033721923828" stroke-width="0.0" fill="rgb(18, 96, 218)" opacity="0.052100644" stroke="rgb(0, 0, 0)" stroke-opacity="1.0" stroke-linecap="round" stroke-linejoin="round"/>
    <path d="M 496.9201354980469 90.6878662109375 C 479.4186706542969 70.49736022949219 483.3636474609375 99.87544250488281 472.96240234375 121.85427856445312 C 453.52398681640625 100.52080535888672 441.5049133300781 93.48146057128906 435.46026611328125 36.1857795715332 C 464.8188781738281 32.49772262573242 493.9240417480469 29.119571685791016 518.3033447265625 34.58369827270508 C 519.2448120117188 31.06299591064453 522.1300659179688 55.137535095214844 496.9201354980469 90.6878662109375" stroke-width="0.0" fill="rgb(9, 105, 182)" opacity="0.004537001" stroke="rgb(0, 0, 0)" stroke-opacity="1.0" stroke-linecap="round" stroke-linejoin="round"/>
    <path d="M 42.05560302734375 149.08702087402344 C 40.56875991821289 216.08096313476562 34.00053787231445 233.12937927246094 33.222740173339844 230.53317260742188 C 56.18809509277344 187.0298614501953 16.158348083496094 188.90167236328125 21.43549156188965 234.44390869140625 C 67.59149932861328 209.62142944335938 53.14079284667969 201.17489624023438 46.42912292480469 197.42440795898438 C 50.42190170288086 176.0683135986328 50.41419982910156 162.55503845214844 42.05560302734375 149.08702087402344" stroke-width="0.0" fill="rgb(68, 82, 217)" opacity="0.036732852" stroke="rgb(0, 0, 0)" stroke-opacity="1.0" stroke-linecap="round" stroke-linejoin="round"/>
    <path d="M 109.26724243164062 357.8221130371094 C 127.03389739990234 361.5491943359375 123.48529815673828 360.3924560546875 97.31012725830078 351.04736328125 C 114.47856903076172 343.1998596191406 108.78790283203125 332.5183410644531 99.51223754882812 323.6457214355469 C 89.6607437133789 327.927490234375 99.99835968017578 312.7546691894531 94.9912338256836 325.9196472167969 C 107.13835144042969 326.29742431640625 118.3815689086914 335.1194763183594 109.26724243164062 357.8221130371094" stroke-width="0.0" fill="rgb(26, 100, 246)" opacity="0.0077383746" stroke="rgb(0, 0, 0)" stroke-opacity="1.0" stroke-linecap="round" stroke-linejoin="round"/>
    <path d="M 44.01907730102539 131.57669067382812 C 42.285743713378906 126.81776428222656 53.12199783325195 111.18478393554688 41.32973861694336 156.84286499023438 C 0.26646938920021057 179.52120971679688 -40.14808654785156 173.94821166992188 -38.00149154663086 130.00721740722656 C -34.01750564575195 10.567392349243164 9.325843811035156 1.9452661275863647 39.27296829223633 13.291979789733887 C 52.90714645385742 73.2757797241211 72.63091278076172 80.79161071777344 44.01907730102539 131.57669067382812" stroke-width="0.0" fill="rgb(112, 59, 254)" opacity="0.35292906" stroke="rgb(0, 0, 0)" stroke-opacity="1.0" stroke-linecap="round" stroke-linejoin="round"/>
  </g>
</svg>
