<?xml version="1.0" ?>
<svg xmlns="http://www.w3.org/2000/svg" version="1.1" width="512" height="512">
  <defs/>
  <g>
    <path d="M 531.9596557617188 442.9224548339844 C 461.5697021484375 461.6434326171875 426.6034851074219 582.1655883789062 546.8029174804688 585.1832275390625 C 564.6033325195312 424.79962158203125 485.37835693359375 445.99053955078125 479.05242919921875 437.2023010253906 C 517.1231079101562 472.5468444824219 513.4602661132812 466.91424560546875 501.81805419921875 439.7665100097656 C 527.956787109375 425.85540771484375 554.2904663085938 427.8861999511719 531.9596557617188 442.9224548339844" stroke-width="0.0" fill="rgb(121, 132, 54)" opacity="0.6338979" stroke="rgb(0, 0, 0)" stroke-opacity="1.0" stroke-linecap="round" stroke-linejoin="round"/>
    <path d="M 285.8628234863281 514.0991821289062 C 237.58218383789062 568.0572509765625 160.22349548339844 594.6502685546875 104.03890991210938 464.23992919921875 C -13.131378173828125 444.57012939453125 83.00578308105469 444.8225402832031 -88.3312759399414 384.4411315917969 C 36.58567428588867 204.7497100830078 -47.54963302612305 276.91168212890625 -30.79573631286621 188.8350830078125 C 97.92203521728516 72.27435302734375 214.711669921875 215.6884307861328 285.8628234863281 514.0991821289062" stroke-width="0.0" fill="rgb(255, 254, 17)" opacity="0.87236005" stroke="rgb(0, 0, 0)" stroke-opacity="1.0" stroke-linecap="round" stroke-linejoin="round"/>
    <path d="M 444.67266845703125 172.8160858154297 C 453.71807861328125 320.42071533203125 406.3626708984375 331.95538330078125 276.40399169921875 333.72235107421875 C 150.93365478515625 332.3915100097656 103.57881927490234 318.8822937011719 240.60621643066406 86.09180450439453 C 107.78373718261719 44.60570526123047 144.35028076171875 -4.849344730377197 450.2053527832031 -18.0660400390625 C 544.2556762695312 15.98220157623291 557.6446533203125 61.215267181396484 444.67266845703125 172.8160858154297" stroke-width="0.0" fill="rgb(236, 222, 29)" opacity="0.6425357" stroke="rgb(0, 0, 0)" stroke-opacity="1.0" stroke-linecap="round" stroke-linejoin="round"/>
    <path d="M 352.7900695800781 143.7314910888672 C 372.4216613769531 365.0904846191406 280.79339599609375 404.1516418457031 165.84710693359375 342.237060546875 C 65.99118041992188 235.7667999267578 -0.16476571559906006 285.003662109375 52.23280715942383 147.47117614746094 C 58.344642639160156 85.81951904296875 177.26138305664062 104.8995361328125 152.12147521972656 54.42315673828125 C 220.49388122558594 -17.01628303527832 263.31292724609375 5.948220729827881 352.7900695800781 143.7314910888672" stroke-width="0.0" fill="rgb(178, 185, 236)" opacity="0.9793106" stroke="rgb(0, 0, 0)" stroke-opacity="1.0" stroke-linecap="round" stroke-linejoin="round"/>
    <path d="M 516.4226684570312 412.7264099121094 C 356.3040771484375 517.531494140625 394.2577209472656 343.3562927246094 445.4692077636719 456.24822998046875 C 280.93487548828125 549.67041015625 348.4818115234375 556.447998046875 303.2931213378906 438.72711181640625 C 224.9530792236328 222.9632110595703 248.61465454101562 268.2082214355469 327.68597412109375 186.3658447265625 C 490.2778015136719 75.20149230957031 630.6773071289062 134.86474609375 516.4226684570312 412.7264099121094" stroke-width="0.0" fill="rgb(54, 63, 131)" opacity="1.0" stroke="rgb(0, 0, 0)" stroke-opacity="1.0" stroke-linecap="round" stroke-linejoin="round"/>
    <path d="M 517.2395629882812 222.12533569335938 C 542.2369995117188 318.7628173828125 476.89544677734375 237.78250122070312 573.1812133789062 361.16571044921875 C 456.3826904296875 434.4995422363281 267.8778381347656 326.53778076171875 439.1011962890625 180.7053680419922 C 301.9061279296875 190.5557098388672 354.8600769042969 143.197509765625 436.1092834472656 138.905029296875 C 475.68951416015625 170.0428009033203 494.1886901855469 166.03485107421875 517.2395629882812 222.12533569335938" stroke-width="0.0" fill="rgb(0, 53, 1)" opacity="1.0" stroke="rgb(0, 0, 0)" stroke-opacity="1.0" stroke-linecap="round" stroke-linejoin="round"/>
    <path d="M 402.44989013671875 190.95533752441406 C 298.832275390625 251.65647888183594 302.64178466796875 260.327880859375 251.4879608154297 275.779541015625 C 237.93063354492188 299.92034912109375 315.9373474121094 319.7245178222656 86.28150939941406 178.94696044921875 C 317.31689453125 227.53196716308594 196.4856719970703 315.0529479980469 287.7897033691406 262.3438720703125 C 358.52813720703125 219.12196350097656 449.53216552734375 174.0620880126953 402.44989013671875 190.95533752441406" stroke-width="0.0" fill="rgb(108, 219, 136)" opacity="0.6174285" stroke="rgb(0, 0, 0)" stroke-opacity="1.0" stroke-linecap="round" stroke-linejoin="round"/>
    <path d="M 372.1197509765625 183.1151123046875 C 382.5376892089844 213.73692321777344 362.28668212890625 205.6613311767578 344.0463562011719 220.28738403320312 C 327.5328369140625 255.53466796875 354.4442443847656 248.27894592285156 287.40478515625 244.2858428955078 C 329.0897521972656 64.03146362304688 229.7281951904297 153.20443725585938 380.47467041015625 116.04351806640625 C 422.4582824707031 158.9198455810547 518.4939575195312 210.77859497070312 372.1197509765625 183.1151123046875" stroke-width="0.0" fill="rgb(8, 13, 63)" opacity="1.0" stroke="rgb(0, 0, 0)" stroke-opacity="1.0" stroke-linecap="round" stroke-linejoin="round"/>
    <path d="M 282.2039794921875 270.5462951660156 C 230.67295837402344 284.9669189453125 251.9974822998047 281.6812438964844 249.4733123779297 287.4583740234375 C 221.24081420898438 278.4231872558594 199.24578857421875 272.4085693359375 93.10930633544922 211.76527404785156 C 280.76934814453125 166.293701171875 169.92613220214844 231.51348876953125 215.65098571777344 175.9710693359375 C 239.97589111328125 230.29432678222656 242.5684814453125 278.8101806640625 282.2039794921875 270.5462951660156" stroke-width="0.0" fill="rgb(158, 162, 216)" opacity="0.97011083" stroke="rgb(0, 0, 0)" stroke-opacity="1.0" stroke-linecap="round" stroke-linejoin="round"/>
    <path d="M 441.33526611328125 201.16152954101562 C 319.36480712890625 259.7474365234375 621.1731567382812 191.5323944091797 494.9086608886719 404.6697998046875 C 178.1344451904297 400.9139099121094 206.97244262695312 395.07568359375 234.99148559570312 359.77691650390625 C 379.99609375 253.14334106445312 398.8473205566406 252.356689453125 396.7861633300781 258.8661804199219 C 370.08416748046875 223.29222106933594 437.765869140625 198.65805053710938 441.33526611328125 201.16152954101562" stroke-width="0.0" fill="rgb(80, 48, 0)" opacity="0.96933043" stroke="rgb(0, 0, 0)" stroke-opacity="1.0" stroke-linecap="round" stroke-linejoin="round"/>
    <path d="M 171.19061279296875 78.60234069824219 C 265.1370849609375 64.01480102539062 273.5224609375 157.2928924560547 162.4781036376953 82.88594818115234 C 81.38688659667969 166.1096954345703 -96.29440307617188 333.9335632324219 11.565773963928223 -32.891117095947266 C 322.6601257324219 30.839683532714844 236.1004180908203 186.49301147460938 134.33303833007812 30.11048126220703 C 346.668212890625 -57.012088775634766 221.5417022705078 42.63926696777344 171.19061279296875 78.60234069824219" stroke-width="0.0" fill="rgb(226, 223, 27)" opacity="0.66323787" stroke="rgb(0, 0, 0)" stroke-opacity="1.0" stroke-linecap="round" stroke-linejoin="round"/>
    <path d="M 185.58615112304688 383.1240234375 C 158.90679931640625 392.9586181640625 172.65284729003906 384.6663513183594 169.11912536621094 436.1446228027344 C 144.2633819580078 387.7804260253906 151.8684844970703 398.3858337402344 150.2342071533203 328.31756591796875 C 160.94679260253906 317.76019287109375 130.3110809326172 314.3021240234375 178.5079345703125 306.6776428222656 C 155.53330993652344 388.03387451171875 166.5889892578125 374.0513916015625 185.58615112304688 383.1240234375" stroke-width="0.0" fill="rgb(255, 229, 4)" opacity="0.029022178" stroke="rgb(0, 0, 0)" stroke-opacity="1.0" stroke-linecap="round" stroke-linejoin="round"/>
    <path d="M 394.114501953125 71.02413940429688 C 385.8288269042969 61.39960861206055 397.04290771484375 100.35446166992188 381.11865234375 78.44876098632812 C 373.209228515625 59.47226333618164 360.97357177734375 37.446495056152344 363.2843017578125 57.9297981262207 C 354.1567687988281 72.90040588378906 380.78546142578125 66.21604919433594 356.0824279785156 62.94540786743164 C 350.42938232421875 37.899818420410156 378.9006652832031 52.719879150390625 394.114501953125 71.02413940429688" stroke-width="0.0" fill="rgb(227, 249, 131)" opacity="0.01542201" stroke="rgb(0, 0, 0)" stroke-opacity="1.0" stroke-linecap="round" stroke-linejoin="round"/>
    <path d="M 514.906494140625 163.89088439941406 C 495.6983642578125 167.06117248535156 482.6887512207031 121.92442321777344 453.34088134765625 90.40762329101562 C 434.169189453125 59.5069465637207 429.5871276855469 53.61577606201172 433.09246826171875 30.50951385498047 C 414.9626770019531 -1.2890777587890625 405.6125183105469 -30.740598678588867 407.2588195800781 -47.93324279785156 C 527.3424072265625 -41.322906494140625 544.5836791992188 -42.00150680541992 514.906494140625 163.89088439941406" stroke-width="0.0" fill="rgb(135, 118, 86)" opacity="0.33505297" stroke="rgb(0, 0, 0)" stroke-opacity="1.0" stroke-linecap="round" stroke-linejoin="round"/>
    <path d="M 322.4418029785156 493.2329406738281 C 324.81939697265625 548.7146606445312 367.018310546875 502.0732421875 322.00006103515625 529.8392333984375 C 131.98138427734375 594.3204956054688 125.4615249633789 523.8193969726562 219.93507385253906 539.5089111328125 C 263.0032043457031 450.74786376953125 245.140380859375 374.9873046875 309.172119140625 301.7130432128906 C 445.0963439941406 271.905517578125 413.7457580566406 251.9293670654297 322.4418029785156 493.2329406738281" stroke-width="0.0" fill="rgb(216, 108, 0)" opacity="0.99863446" stroke="rgb(0, 0, 0)" stroke-opacity="1.0" stroke-linecap="round" stroke-linejoin="round"/>
    <path d="M 224.7634735107422 286.26007080078125 C 303.5354919433594 333.09771728515625 318.591796875 323.2561340332031 242.25677490234375 354.6369323730469 C 143.06942749023438 276.29345703125 39.521995544433594 231.81661987304688 63.63576889038086 222.5196990966797 C 92.01288604736328 187.64608764648438 160.84896850585938 284.9393005371094 270.6974182128906 296.689453125 C 266.8592834472656 282.9205322265625 192.19248962402344 282.07000732421875 224.7634735107422 286.26007080078125" stroke-width="0.0" fill="rgb(185, 219, 156)" opacity="0.22013545" stroke="rgb(0, 0, 0)" stroke-opacity="1.0" stroke-linecap="round" stroke-linejoin="round"/>
    <path d="M 399.3719177246094 406.2162780761719 C 375.22052001953125 441.82696533203125 337.5946960449219 433.7466735839844 342.1038513183594 469.75469970703125 C 347.6025695800781 464.5838928222656 370.2839660644531 467.1413269042969 303.2572937011719 536.4076538085938 C 234.94752502441406 393.3896484375 221.99732971191406 328.91961669921875 384.0647277832031 299.7946472167969 C 416.69146728515625 394.752197265625 414.8634033203125 375.4327392578125 399.3719177246094 406.2162780761719" stroke-width="0.0" fill="rgb(71, 47, 0)" opacity="0.9826115" stroke="rgb(0, 0, 0)" stroke-opacity="1.0" stroke-linecap="round" stroke-linejoin="round"/>
    <path d="M 346.6959533691406 122.88662719726562 C 410.3619079589844 89.56022644042969 384.2656555175781 152.47540283203125 295.29766845703125 186.54531860351562 C 237.52392578125 155.09097290039062 263.83935546875 170.45460510253906 259.1100158691406 98.12540435791016 C 243.98023986816406 23.299320220947266 258.0213928222656 14.649863243103027 307.7353820800781 54.04532241821289 C 354.33746337890625 101.54180908203125 410.3272705078125 129.546875 346.6959533691406 122.88662719726562" stroke-width="0.0" fill="rgb(10, 13, 56)" opacity="0.998451" stroke="rgb(0, 0, 0)" stroke-opacity="1.0" stroke-linecap="round" stroke-linejoin="round"/>
    <path d="M 459.0036926269531 294.7919006347656 C 298.3985900878906 388.3999938964844 291.0534362792969 397.1875305175781 294.7946472167969 387.521484375 C 252.4693145751953 444.668212890625 210.29205322265625 372.8335266113281 71.16761779785156 314.6863098144531 C 142.18353271484375 227.97409057617188 158.297119140625 267.8775634765625 261.4164123535156 322.0361328125 C 398.289794921875 189.4125518798828 650.1964721679688 157.9844970703125 459.0036926269531 294.7919006347656" stroke-width="0.0" fill="rgb(10, 255, 45)" opacity="1.0" stroke="rgb(0, 0, 0)" stroke-opacity="1.0" stroke-linecap="round" stroke-linejoin="round"/>
    <path d="M 426.8152160644531 210.32464599609375 C 389.1313171386719 203.89859008789062 404.499267578125 221.1420135498047 386.84796142578125 228.34481811523438 C 403.8819274902344 194.8390350341797 363.2612609863281 230.75425720214844 332.69287109375 242.26144409179688 C 328.35504150390625 188.6163787841797 344.2752990722656 237.6844940185547 329.47015380859375 169.98768615722656 C 408.9472961425781 186.48826599121094 447.7821350097656 183.55807495117188 426.8152160644531 210.32464599609375" stroke-width="0.0" fill="rgb(9, 22, 60)" opacity="1.0" stroke="rgb(0, 0, 0)" stroke-opacity="1.0" stroke-linecap="round" stroke-linejoin="round"/>
    <path d="M 435.2325744628906 230.6953582763672 C 434.5655517578125 228.15463256835938 450.69708251953125 195.16099548339844 412.0605163574219 230.5164337158203 C 322.9557800292969 289.6697082519531 314.77691650390625 264.5903015136719 406.9107971191406 209.83949279785156 C 415.13311767578125 193.99395751953125 415.4509582519531 214.62692260742188 433.3655090332031 186.70326232910156 C 497.1404113769531 185.69903564453125 447.23651123046875 204.4414520263672 435.2325744628906 230.6953582763672" stroke-width="0.0" fill="rgb(83, 0, 221)" opacity="0.41283336" stroke="rgb(0, 0, 0)" stroke-opacity="1.0" stroke-linecap="round" stroke-linejoin="round"/>
    <path d="M 167.19363403320312 298.3553771972656 C 133.29013061523438 306.6306457519531 110.01390838623047 331.1958312988281 64.29467010498047 306.519775390625 C 38.51887893676758 286.809326171875 73.47634887695312 316.2071838378906 -52.660884857177734 237.29588317871094 C 34.67797088623047 170.41049194335938 20.991403579711914 197.20028686523438 115.45947265625 241.40493774414062 C 158.83018493652344 264.870361328125 192.95062255859375 286.9437561035156 167.19363403320312 298.3553771972656" stroke-width="0.0" fill="rgb(15, 255, 47)" opacity="0.9861225" stroke="rgb(0, 0, 0)" stroke-opacity="1.0" stroke-linecap="round" stroke-linejoin="round"/>
    <path d="M 53.55226516723633 59.72017288208008 C 49.21918869018555 46.995723724365234 54.56364822387695 34.949501037597656 56.90454864501953 32.61971664428711 C 75.85442352294922 -7.1008758544921875 94.57331085205078 -42.93070602416992 -22.252504348754883 -28.224807739257812 C -22.58351707458496 140.383544921875 9.020219802856445 96.357421875 25.29578971862793 80.99425506591797 C 61.9462890625 44.62273406982422 51.1509895324707 54.53285598754883 53.55226516723633 59.72017288208008" stroke-width="0.0" fill="rgb(103, 67, 44)" opacity="0.23960926" stroke="rgb(0, 0, 0)" stroke-opacity="1.0" stroke-linecap="round" stroke-linejoin="round"/>
    <path d="M 348.0244445800781 148.86366271972656 C 350.03753662109375 231.11566162109375 363.96514892578125 231.97323608398438 327.43975830078125 252.26995849609375 C 254.56936645507812 285.95562744140625 268.6695556640625 302.8978271484375 255.4091339111328 170.61370849609375 C 299.8006286621094 143.80039978027344 256.70306396484375 204.65980529785156 288.1725158691406 143.95077514648438 C 300.8140869140625 153.98020935058594 291.531494140625 167.3420867919922 348.0244445800781 148.86366271972656" stroke-width="0.0" fill="rgb(12, 24, 49)" opacity="0.993853" stroke="rgb(0, 0, 0)" stroke-opacity="1.0" stroke-linecap="round" stroke-linejoin="round"/>
    <path d="M 164.6240997314453 507.4774475097656 C 128.13804626464844 481.8769836425781 139.2372283935547 493.469482421875 131.9696044921875 486.51123046875 C 131.57493591308594 476.891845703125 137.1376953125 476.2345275878906 115.59549713134766 479.7644348144531 C 79.42878723144531 475.6312561035156 79.50955200195312 425.9377746582031 111.3625259399414 397.4625244140625 C 184.09776306152344 449.55950927734375 189.64846801757812 495.018798828125 164.6240997314453 507.4774475097656" stroke-width="0.0" fill="rgb(255, 216, 123)" opacity="0.079866655" stroke="rgb(0, 0, 0)" stroke-opacity="1.0" stroke-linecap="round" stroke-linejoin="round"/>
    <path d="M 102.7664566040039 222.65675354003906 C 159.8933868408203 213.857421875 116.90397644042969 196.4431915283203 94.40473175048828 193.7454376220703 C 127.10484313964844 183.56307983398438 125.96849822998047 185.9960479736328 63.68088912963867 219.83438110351562 C 77.36810302734375 228.92408752441406 56.29751968383789 231.54104614257812 105.19942474365234 171.44775390625 C 153.85354614257812 193.1280059814453 122.16485595703125 242.08175659179688 102.7664566040039 222.65675354003906" stroke-width="0.0" fill="rgb(238, 152, 255)" opacity="0.10949427" stroke="rgb(0, 0, 0)" stroke-opacity="1.0" stroke-linecap="round" stroke-linejoin="round"/>
    <path d="M 80.32737731933594 148.34954833984375 C 96.77410125732422 152.70748901367188 79.23165893554688 146.58090209960938 65.59423065185547 150.6711883544922 C 51.51304244995117 208.5866241455078 -31.84237289428711 203.55960083007812 19.857223510742188 86.1805419921875 C 31.56393814086914 65.70866394042969 97.18852996826172 82.29388427734375 105.09465026855469 87.29905700683594 C 111.36357116699219 82.85400390625 110.80919647216797 130.53219604492188 80.32737731933594 148.34954833984375" stroke-width="0.0" fill="rgb(231, 226, 89)" opacity="0.9615911" stroke="rgb(0, 0, 0)" stroke-opacity="1.0" stroke-linecap="round" stroke-linejoin="round"/>
    <path d="M 288.8205261230469 225.80641174316406 C 346.2742004394531 271.5628356933594 323.262939453125 223.6161651611328 277.1528625488281 210.50979614257812 C 286.1365051269531 227.04721069335938 298.371337890625 215.6257781982422 229.1652374267578 187.04013061523438 C 234.10305786132812 213.14149475097656 258.04205322265625 171.41415405273438 276.892822265625 203.42117309570312 C 321.7416687011719 228.08616638183594 296.4815979003906 193.8815155029297 288.8205261230469 225.80641174316406" stroke-width="0.0" fill="rgb(16, 9, 63)" opacity="0.0011790642" stroke="rgb(0, 0, 0)" stroke-opacity="1.0" stroke-linecap="round" stroke-linejoin="round"/>
    <path d="M 220.90261840820312 130.69985961914062 C 203.2786865234375 116.28765869140625 193.4916229248047 105.69890594482422 224.868408203125 104.25544738769531 C 204.420654296875 102.11669158935547 169.98501586914062 157.263671875 76.08476257324219 198.1371612548828 C 168.0869598388672 122.8117904663086 216.90255737304688 131.5353546142578 226.8070526123047 102.60977935791016 C 235.2600555419922 87.06653594970703 249.57708740234375 105.76448822021484 220.90261840820312 130.69985961914062" stroke-width="0.0" fill="rgb(128, 117, 84)" opacity="0.0033245627" stroke="rgb(0, 0, 0)" stroke-opacity="1.0" stroke-linecap="round" stroke-linejoin="round"/>
    <path d="M 32.78500747680664 544.8837890625 C 42.45839309692383 539.5292358398438 15.03414249420166 530.3245849609375 0.8111952543258667 530.5191040039062 C -9.364206314086914 527.7437133789062 -16.68471336364746 520.4232177734375 -21.20284080505371 510.0506896972656 C -18.48799705505371 494.70721435546875 -31.987857818603516 464.11956787109375 -20.42593765258789 416.8892822265625 C 43.25914764404297 438.7978210449219 23.54745101928711 465.4960632324219 32.78500747680664 544.8837890625" stroke-width="0.0" fill="rgb(114, 91, 45)" opacity="0.19800875" stroke="rgb(0, 0, 0)" stroke-opacity="1.0" stroke-linecap="round" stroke-linejoin="round"/>
    <path d="M 228.3517303466797 143.9351043701172 C 257.65216064453125 121.50808715820312 176.8949432373047 131.50926208496094 118.07780456542969 206.7670440673828 C 56.92672348022461 181.84326171875 127.71241760253906 205.09698486328125 149.3882598876953 193.07391357421875 C 130.82167053222656 211.48106384277344 119.28571319580078 192.60507202148438 111.48812866210938 203.92605590820312 C 151.28163146972656 176.22702026367188 131.51560974121094 176.70457458496094 228.3517303466797 143.9351043701172" stroke-width="0.0" fill="rgb(160, 208, 161)" opacity="0.02781638" stroke="rgb(0, 0, 0)" stroke-opacity="1.0" stroke-linecap="round" stroke-linejoin="round"/>
    <path d="M 465.1263732910156 202.1841583251953 C 345.34442138671875 306.35760498046875 300.93035888671875 307.5433654785156 300.6840515136719 312.0188293457031 C 263.50567626953125 311.4731140136719 254.79684448242188 341.4073486328125 258.6979064941406 301.0376892089844 C 280.697509765625 280.624267578125 312.362060546875 285.20379638671875 327.7557067871094 229.58963012695312 C 303.3606872558594 313.2476806640625 421.1520080566406 170.95677185058594 465.1263732910156 202.1841583251953" stroke-width="0.0" fill="rgb(1, 25, 24)" opacity="0.9090889" stroke="rgb(0, 0, 0)" stroke-opacity="1.0" stroke-linecap="round" stroke-linejoin="round"/>
    <path d="M 262.1598205566406 85.52169036865234 C 217.5041961669922 162.99447631835938 222.5777587890625 145.2302703857422 198.1320037841797 121.30743408203125 C 179.80929565429688 98.12032318115234 167.1050262451172 100.05429077148438 149.85159301757812 82.28829956054688 C 163.76028442382812 80.80410766601562 176.28524780273438 70.37065887451172 195.383544921875 35.3625602722168 C 244.12074279785156 49.74540328979492 260.8913879394531 32.980918884277344 262.1598205566406 85.52169036865234" stroke-width="0.0" fill="rgb(168, 179, 248)" opacity="0.9996308" stroke="rgb(0, 0, 0)" stroke-opacity="1.0" stroke-linecap="round" stroke-linejoin="round"/>
    <path d="M 180.45489501953125 76.68077850341797 C 164.6103973388672 86.61158752441406 151.90982055664062 87.81291198730469 161.0524139404297 106.04283142089844 C 154.56109619140625 74.95758056640625 142.10394287109375 132.9156951904297 112.9631118774414 86.87421417236328 C 100.23248291015625 -5.112510681152344 118.51904296875 -47.21765899658203 224.3357696533203 -9.14628791809082 C 214.5000457763672 66.20706176757812 199.13465881347656 47.3458366394043 180.45489501953125 76.68077850341797" stroke-width="0.0" fill="rgb(231, 214, 104)" opacity="1.0" stroke="rgb(0, 0, 0)" stroke-opacity="1.0" stroke-linecap="round" stroke-linejoin="round"/>
    <path d="M 384.7823486328125 70.21102142333984 C 371.1563720703125 67.16410827636719 370.7876892089844 66.19755554199219 377.84918212890625 118.46640014648438 C 381.2554626464844 164.0284881591797 404.6871337890625 137.4736328125 408.8148498535156 91.359375 C 391.2940673828125 79.42613983154297 407.907470703125 62.772857666015625 379.5982666015625 70.7897720336914 C 385.08953857421875 87.1783676147461 395.3106384277344 64.82229614257812 384.7823486328125 70.21102142333984" stroke-width="0.0" fill="rgb(162, 255, 15)" opacity="0.0" stroke="rgb(0, 0, 0)" stroke-opacity="1.0" stroke-linecap="round" stroke-linejoin="round"/>
    <path d="M 328.9256591796875 474.451904296875 C 336.2251281738281 476.2490234375 329.2268981933594 487.4097595214844 287.4115905761719 510.13134765625 C 288.0428466796875 547.7378540039062 299.61651611328125 553.4378662109375 306.20843505859375 483.9118347167969 C 290.3558044433594 449.736083984375 297.4940185546875 435.3547668457031 301.6977844238281 410.9967041015625 C 322.6484069824219 433.29632568359375 323.9859313964844 448.9823303222656 328.9256591796875 474.451904296875" stroke-width="0.0" fill="rgb(4, 78, 26)" opacity="0.018105712" stroke="rgb(0, 0, 0)" stroke-opacity="1.0" stroke-linecap="round" stroke-linejoin="round"/>
    <path d="M 312.24609375 189.03195190429688 C 317.8606262207031 141.55958557128906 317.5035705566406 151.31259155273438 316.9780578613281 191.56809997558594 C 313.58367919921875 169.38214111328125 320.12408447265625 170.10923767089844 270.30218505859375 167.76832580566406 C 263.78558349609375 157.9222869873047 279.7916564941406 181.1239013671875 281.0908508300781 197.73085021972656 C 281.9383239746094 162.5561065673828 275.03192138671875 176.72122192382812 312.24609375 189.03195190429688" stroke-width="0.0" fill="rgb(11, 14, 23)" opacity="0.0692818" stroke="rgb(0, 0, 0)" stroke-opacity="1.0" stroke-linecap="round" stroke-linejoin="round"/>
    <path d="M 280.9519958496094 33.88178634643555 C 280.30194091796875 38.03996658325195 287.3202209472656 47.310848236083984 296.4647521972656 51.36782455444336 C 249.0664520263672 71.4202651977539 253.6316680908203 23.68703842163086 254.8433837890625 -27.024267196655273 C 242.23878479003906 -31.07333755493164 254.8678436279297 -32.432987213134766 258.3187255859375 5.183238983154297 C 251.9319610595703 14.40734577178955 270.4140930175781 27.48253631591797 280.9519958496094 33.88178634643555" stroke-width="0.0" fill="rgb(8, 3, 72)" opacity="0.9985118" stroke="rgb(0, 0, 0)" stroke-opacity="1.0" stroke-linecap="round" stroke-linejoin="round"/>
    <path d="M 333.21258544921875 258.2430419921875 C 350.0612487792969 246.49874877929688 333.67706298828125 246.78269958496094 319.38482666015625 252.8043212890625 C 290.8485107421875 275.7727966308594 296.2691955566406 267.84100341796875 292.9332580566406 286.02069091796875 C 332.1881103515625 282.083251953125 315.8408508300781 259.7497863769531 296.9971008300781 276.36309814453125 C 320.7975769042969 260.0784606933594 329.4910888671875 259.21588134765625 333.21258544921875 258.2430419921875" stroke-width="0.0" fill="rgb(147, 0, 255)" opacity="0.20107296" stroke="rgb(0, 0, 0)" stroke-opacity="1.0" stroke-linecap="round" stroke-linejoin="round"/>
    <path d="M 163.95263671875 82.40701293945312 C 154.0152130126953 64.16851043701172 158.89695739746094 88.1274185180664 157.974365234375 101.21932220458984 C 194.5605010986328 84.61970520019531 182.92117309570312 112.30060577392578 177.6143035888672 125.95140075683594 C 194.9855194091797 109.98339080810547 212.87039184570312 77.29163360595703 224.63177490234375 58.535770416259766 C 214.12818908691406 74.04383850097656 177.49508666992188 113.35638427734375 163.95263671875 82.40701293945312" stroke-width="0.0" fill="rgb(101, 163, 74)" opacity="0.06690622" stroke="rgb(0, 0, 0)" stroke-opacity="1.0" stroke-linecap="round" stroke-linejoin="round"/>
    <path d="M 536.87939453125 451.2057189941406 C 545.408447265625 462.7418518066406 541.4659423828125 477.496826171875 516.2310791015625 473.5507507324219 C 473.3038024902344 491.9317932128906 435.7624816894531 501.9626770019531 452.622314453125 468.59710693359375 C 474.345703125 422.1938171386719 501.5286560058594 423.1699523925781 545.631103515625 408.4349060058594 C 518.3302001953125 430.6427917480469 521.70263671875 434.3207092285156 536.87939453125 451.2057189941406" stroke-width="0.0" fill="rgb(191, 185, 103)" opacity="0.7508488" stroke="rgb(0, 0, 0)" stroke-opacity="1.0" stroke-linecap="round" stroke-linejoin="round"/>
    <path d="M 326.24127197265625 484.76617431640625 C 354.80517578125 485.5037536621094 348.74176025390625 499.0223083496094 321.2262878417969 500.4667663574219 C 312.9396667480469 475.2529296875 305.402099609375 472.4364929199219 325.0644836425781 479.6455383300781 C 332.64801025390625 482.2835388183594 343.9996643066406 496.5257568359375 361.0262756347656 447.4674072265625 C 365.6028137207031 432.8064880371094 338.0450134277344 468.8601379394531 326.24127197265625 484.76617431640625" stroke-width="0.0" fill="rgb(45, 71, 121)" opacity="0.023325529" stroke="rgb(0, 0, 0)" stroke-opacity="1.0" stroke-linecap="round" stroke-linejoin="round"/>
    <path d="M 473.0401306152344 407.0905456542969 C 494.78857421875 435.53314208984375 484.3616027832031 438.18853759765625 451.7801208496094 456.3348388671875 C 387.1725769042969 465.42742919921875 385.310791015625 462.1825256347656 382.179931640625 388.158935546875 C 430.45855712890625 390.341796875 444.14727783203125 399.9407653808594 452.91314697265625 402.7870178222656 C 470.085205078125 398.41094970703125 462.32489013671875 409.9371032714844 473.0401306152344 407.0905456542969" stroke-width="0.0" fill="rgb(40, 71, 133)" opacity="1.0" stroke="rgb(0, 0, 0)" stroke-opacity="1.0" stroke-linecap="round" stroke-linejoin="round"/>
    <path d="M 455.2703552246094 406.232666015625 C 422.3558654785156 415.78485107421875 411.630126953125 429.7118225097656 391.1112060546875 428.0972595214844 C 380.85791015625 448.2389831542969 375.76251220703125 425.3258056640625 355.3868408203125 375.4212951660156 C 357.39794921875 364.55816650390625 376.6381530761719 372.4525451660156 394.06671142578125 376.4904479980469 C 424.9853820800781 368.8167724609375 463.62841796875 374.5592346191406 455.2703552246094 406.232666015625" stroke-width="0.0" fill="rgb(73, 59, 0)" opacity="1.0" stroke="rgb(0, 0, 0)" stroke-opacity="1.0" stroke-linecap="round" stroke-linejoin="round"/>
    <path d="M 267.5466003417969 122.35099792480469 C 270.14410400390625 124.29180145263672 258.17059326171875 139.00033569335938 263.54766845703125 145.51536560058594 C 269.211181640625 141.17343139648438 252.74560546875 131.2272491455078 220.79678344726562 145.02479553222656 C 224.7712860107422 131.2981719970703 255.9434814453125 142.036865234375 287.3132629394531 131.6767578125 C 285.2467956542969 116.63890075683594 281.32965087890625 140.83656311035156 267.5466003417969 122.35099792480469" stroke-width="0.0" fill="rgb(156, 164, 146)" opacity="0.0007356957" stroke="rgb(0, 0, 0)" stroke-opacity="1.0" stroke-linecap="round" stroke-linejoin="round"/>
    <path d="M 125.01527404785156 420.42010498046875 C 113.92546081542969 452.54095458984375 104.67317199707031 445.2320861816406 74.56074523925781 442.5528259277344 C 77.72257232666016 446.5794982910156 68.33808135986328 435.623046875 39.32231903076172 418.3231506347656 C 36.7070426940918 382.02557373046875 39.52694320678711 369.39019775390625 47.89293670654297 371.1944274902344 C 96.1562271118164 399.92156982421875 117.88228607177734 393.52130126953125 125.01527404785156 420.42010498046875" stroke-width="0.0" fill="rgb(255, 168, 138)" opacity="0.03698317" stroke="rgb(0, 0, 0)" stroke-opacity="1.0" stroke-linecap="round" stroke-linejoin="round"/>
    <path d="M 444.47064208984375 60.458675384521484 C 438.9267578125 102.14722442626953 444.988525390625 111.9967041015625 443.0060729980469 94.08058166503906 C 447.6246032714844 69.0677719116211 434.989013671875 60.222190856933594 406.2319641113281 37.51847457885742 C 403.4937744140625 15.987232208251953 429.6112365722656 17.316179275512695 445.3227844238281 36.25984573364258 C 459.20794677734375 50.7524528503418 470.0501708984375 47.79555130004883 444.47064208984375 60.458675384521484" stroke-width="0.0" fill="rgb(84, 142, 87)" opacity="0.12868446" stroke="rgb(0, 0, 0)" stroke-opacity="1.0" stroke-linecap="round" stroke-linejoin="round"/>
    <path d="M 229.11331176757812 15.553958892822266 C 199.8303985595703 21.097585678100586 189.78636169433594 20.604751586914062 194.5374755859375 4.177585124969482 C 188.09671020507812 7.087430000305176 202.57574462890625 19.345853805541992 201.42868041992188 4.511285781860352 C 199.22567749023438 13.951299667358398 196.4346160888672 -13.70826244354248 207.44985961914062 -2.4739387035369873 C 210.46327209472656 -17.993640899658203 222.35189819335938 -5.902571678161621 229.11331176757812 15.553958892822266" stroke-width="0.0" fill="rgb(239, 229, 91)" opacity="0.12308575" stroke="rgb(0, 0, 0)" stroke-opacity="1.0" stroke-linecap="round" stroke-linejoin="round"/>
    <path d="M 509.11212158203125 187.8310089111328 C 518.7484130859375 204.2237091064453 516.2637329101562 223.09820556640625 515.3934936523438 190.75955200195312 C 528.671875 188.59967041015625 516.0663452148438 178.095947265625 495.9238586425781 179.1305694580078 C 466.2005615234375 157.2544708251953 443.30450439453125 140.606201171875 466.4642028808594 154.6594696044922 C 496.98089599609375 162.77304077148438 505.9417724609375 176.34188842773438 509.11212158203125 187.8310089111328" stroke-width="0.0" fill="rgb(204, 102, 208)" opacity="0.0" stroke="rgb(0, 0, 0)" stroke-opacity="1.0" stroke-linecap="round" stroke-linejoin="round"/>
    <path d="M 415.7411804199219 294.9344482421875 C 424.095458984375 318.19940185546875 423.7893371582031 339.4433898925781 420.8539123535156 353.3888244628906 C 409.9151306152344 323.232177734375 403.3545837402344 317.0306396484375 364.4770202636719 333.8345031738281 C 369.7218322753906 305.37347412109375 385.94091796875 314.02569580078125 403.4687194824219 336.451904296875 C 404.1451721191406 290.46527099609375 399.0256652832031 303.6165771484375 415.7411804199219 294.9344482421875" stroke-width="0.0" fill="rgb(39, 98, 93)" opacity="0.0" stroke="rgb(0, 0, 0)" stroke-opacity="1.0" stroke-linecap="round" stroke-linejoin="round"/>
    <path d="M 266.8160705566406 278.2666015625 C 258.4307861328125 285.679443359375 245.89747619628906 297.6185302734375 236.77841186523438 288.0523986816406 C 231.2760467529297 288.7779235839844 222.63243103027344 273.5502014160156 213.88157653808594 269.84857177734375 C 250.55245971679688 280.7593688964844 280.49139404296875 281.60931396484375 261.6234130859375 282.2289123535156 C 259.0174865722656 259.50238037109375 263.62957763671875 262.64556884765625 266.8160705566406 278.2666015625" stroke-width="0.0" fill="rgb(83, 44, 219)" opacity="0.49943328" stroke="rgb(0, 0, 0)" stroke-opacity="1.0" stroke-linecap="round" stroke-linejoin="round"/>
    <path d="M 275.7585754394531 281.1488342285156 C 270.236572265625 290.649658203125 285.7720642089844 275.9496154785156 241.40550231933594 270.0915222167969 C 240.76669311523438 303.9790344238281 236.2560577392578 313.2428283691406 223.70248413085938 286.2301025390625 C 256.1855773925781 280.5288391113281 292.4053039550781 286.5146179199219 277.5597839355469 286.8952331542969 C 288.1600036621094 300.8569030761719 319.85089111328125 300.98687744140625 275.7585754394531 281.1488342285156" stroke-width="0.0" fill="rgb(30, 202, 130)" opacity="0.06298826" stroke="rgb(0, 0, 0)" stroke-opacity="1.0" stroke-linecap="round" stroke-linejoin="round"/>
    <path d="M 58.45714569091797 162.3358154296875 C 32.0586051940918 132.7932586669922 28.243825912475586 140.91876220703125 31.74034309387207 141.48362731933594 C 51.36880874633789 136.66798400878906 15.145530700683594 151.78350830078125 -20.740520477294922 143.49168395996094 C -18.302953720092773 87.40843963623047 -2.502897262573242 76.34632110595703 54.74498748779297 84.43754577636719 C 71.81268310546875 136.7485809326172 80.947998046875 168.5731201171875 58.45714569091797 162.3358154296875" stroke-width="0.0" fill="rgb(235, 194, 143)" opacity="0.18384683" stroke="rgb(0, 0, 0)" stroke-opacity="1.0" stroke-linecap="round" stroke-linejoin="round"/>
    <path d="M 431.7173156738281 152.75772094726562 C 468.3027038574219 157.30377197265625 451.4095153808594 154.0204620361328 443.0881042480469 142.84100341796875 C 438.7145690917969 126.22467041015625 418.71197509765625 127.0622329711914 413.5745544433594 147.4905548095703 C 426.04180908203125 137.79806518554688 419.4808349609375 161.9814453125 421.44134521484375 140.38546752929688 C 422.48095703125 140.6147003173828 431.4297180175781 148.7046661376953 431.7173156738281 152.75772094726562" stroke-width="0.0" fill="rgb(100, 220, 0)" opacity="0.4858676" stroke="rgb(0, 0, 0)" stroke-opacity="1.0" stroke-linecap="round" stroke-linejoin="round"/>
    <path d="M 157.84751892089844 477.41021728515625 C 156.17298889160156 541.3096313476562 118.2450180053711 522.7120361328125 84.28032684326172 525.9334106445312 C 1.592534065246582 535.1357421875 -19.71419334411621 540.4854736328125 2.8694589138031006 455.7300720214844 C 17.191709518432617 420.9983215332031 44.73942565917969 418.20587158203125 80.77751922607422 434.30084228515625 C 92.69010925292969 466.7177429199219 124.81342315673828 447.3486633300781 157.84751892089844 477.41021728515625" stroke-width="0.0" fill="rgb(187, 172, 99)" opacity="0.44385555" stroke="rgb(0, 0, 0)" stroke-opacity="1.0" stroke-linecap="round" stroke-linejoin="round"/>
    <path d="M 531.3700561523438 16.72073745727539 C 511.2274169921875 57.712013244628906 505.49432373046875 63.0189094543457 522.427490234375 32.31655502319336 C 525.73291015625 27.867219924926758 515.67822265625 20.494434356689453 510.3445739746094 6.581919193267822 C 531.9179077148438 37.20866775512695 510.3567199707031 35.48311233520508 508.4693603515625 38.12189483642578 C 492.8094177246094 6.314960479736328 513.0160522460938 15.286623001098633 531.3700561523438 16.72073745727539" stroke-width="0.0" fill="rgb(196, 184, 134)" opacity="0.015358999" stroke="rgb(0, 0, 0)" stroke-opacity="1.0" stroke-linecap="round" stroke-linejoin="round"/>
    <path d="M 320.45770263671875 321.2321472167969 C 315.41552734375 316.1206970214844 311.47857666015625 327.4798278808594 276.31640625 299.1864929199219 C 256.7530517578125 304.9861755371094 247.22238159179688 308.8970642089844 282.07196044921875 295.4103698730469 C 298.4239807128906 319.5711669921875 279.37890625 299.2418212890625 268.3410339355469 278.16455078125 C 307.5256652832031 278.5182800292969 284.2047424316406 312.1290588378906 320.45770263671875 321.2321472167969" stroke-width="0.0" fill="rgb(0, 0, 136)" opacity="0.03507185" stroke="rgb(0, 0, 0)" stroke-opacity="1.0" stroke-linecap="round" stroke-linejoin="round"/>
    <path d="M 332.70196533203125 94.66038513183594 C 349.268798828125 124.29473114013672 346.4960632324219 116.69882202148438 325.3274230957031 122.56673431396484 C 303.9996032714844 99.21998596191406 313.6592712402344 84.28062438964844 316.7615966796875 80.23605346679688 C 290.5157165527344 82.9977035522461 287.9215087890625 72.62664031982422 300.7345275878906 75.9967269897461 C 312.9185791015625 101.50949096679688 323.5901794433594 96.18142700195312 332.70196533203125 94.66038513183594" stroke-width="0.0" fill="rgb(0, 0, 146)" opacity="0.069170326" stroke="rgb(0, 0, 0)" stroke-opacity="1.0" stroke-linecap="round" stroke-linejoin="round"/>
    <path d="M 148.4003143310547 67.55540466308594 C 107.89904022216797 81.7728500366211 110.28478240966797 96.6624984741211 108.14356994628906 67.04090118408203 C 115.32910919189453 71.14727783203125 93.47603607177734 69.23961639404297 97.01983642578125 71.8090591430664 C 88.30157470703125 57.56153869628906 91.58484649658203 58.498653411865234 93.39401245117188 45.0530891418457 C 110.23182678222656 69.81765747070312 133.71128845214844 77.46509552001953 148.4003143310547 67.55540466308594" stroke-width="0.0" fill="rgb(148, 200, 104)" opacity="0.0" stroke="rgb(0, 0, 0)" stroke-opacity="1.0" stroke-linecap="round" stroke-linejoin="round"/>
    <path d="M 482.9173889160156 470.6092224121094 C 496.4640808105469 514.3150634765625 484.09613037109375 539.9237670898438 437.0502014160156 558.0118408203125 C 405.27764892578125 544.4467163085938 389.6418151855469 545.4041748046875 338.9998474121094 507.7814636230469 C 371.6224670410156 403.0294189453125 404.3063049316406 448.62890625 470.27484130859375 434.9312744140625 C 470.2332763671875 421.4310607910156 461.482421875 455.1716003417969 482.9173889160156 470.6092224121094" stroke-width="0.0" fill="rgb(74, 98, 23)" opacity="0.16078264" stroke="rgb(0, 0, 0)" stroke-opacity="1.0" stroke-linecap="round" stroke-linejoin="round"/>
    <path d="M 173.1621551513672 71.80410766601562 C 204.9908905029297 71.70979309082031 191.61550903320312 60.332298278808594 171.40542602539062 70.99201965332031 C 178.60401916503906 99.5960922241211 179.5658416748047 103.58155822753906 225.4894561767578 85.75942993164062 C 222.8058319091797 91.76648712158203 213.8516387939453 66.37349700927734 181.84690856933594 87.60728454589844 C 205.6542510986328 85.0916976928711 182.76449584960938 73.23651123046875 173.1621551513672 71.80410766601562" stroke-width="0.0" fill="rgb(144, 145, 83)" opacity="2.2715805e-05" stroke="rgb(0, 0, 0)" stroke-opacity="1.0" stroke-linecap="round" stroke-linejoin="round"/>
    <path d="M 289.9564514160156 204.7993927001953 C 268.345703125 212.5645751953125 243.15660095214844 209.90322875976562 249.93128967285156 224.8110809326172 C 245.7367706298828 250.7729949951172 247.49270629882812 244.4482421875 245.4829864501953 218.74334716796875 C 249.57989501953125 218.5298614501953 275.0606994628906 219.18499755859375 277.75775146484375 202.52743530273438 C 281.1902160644531 208.3739013671875 300.4593200683594 210.3257293701172 289.9564514160156 204.7993927001953" stroke-width="0.0" fill="rgb(62, 3, 151)" opacity="0.0" stroke="rgb(0, 0, 0)" stroke-opacity="1.0" stroke-linecap="round" stroke-linejoin="round"/>
    <path d="M 486.17022705078125 18.939523696899414 C 509.2743225097656 35.099239349365234 473.2271423339844 -1.755556583404541 444.34075927734375 4.723537921905518 C 456.25555419921875 43.56897735595703 452.371826171875 -4.613961696624756 449.275146484375 -36.325416564941406 C 443.02642822265625 -11.118226051330566 452.07421875 -16.323915481567383 497.9637756347656 -42.520652770996094 C 503.2785949707031 -42.86077880859375 497.1636657714844 -43.18644714355469 486.17022705078125 18.939523696899414" stroke-width="0.0" fill="rgb(210, 244, 163)" opacity="0.0006646843" stroke="rgb(0, 0, 0)" stroke-opacity="1.0" stroke-linecap="round" stroke-linejoin="round"/>
    <path d="M 165.15687561035156 429.67242431640625 C 146.57864379882812 436.2437744140625 134.4100341796875 452.95037841796875 131.7333221435547 431.5212097167969 C 142.36509704589844 441.70245361328125 123.3558120727539 442.0303649902344 111.5643310546875 426.694091796875 C 145.22190856933594 436.323974609375 160.68783569335938 438.3237609863281 121.7990951538086 418.0909423828125 C 129.3036651611328 452.8651123046875 117.47623443603516 452.0080871582031 165.15687561035156 429.67242431640625" stroke-width="0.0" fill="rgb(255, 205, 103)" opacity="0.0179683" stroke="rgb(0, 0, 0)" stroke-opacity="1.0" stroke-linecap="round" stroke-linejoin="round"/>
  </g>
</svg>
