<?xml version="1.0" ?>
<svg xmlns="http://www.w3.org/2000/svg" version="1.1" width="512" height="512">
  <defs/>
  <g>
    <path d="M 234.81939697265625 352.7201843261719 C 170.57908630371094 543.2128295898438 200.72703552246094 354.7271728515625 105.64461517333984 449.4283752441406 C 80.39802551269531 391.29766845703125 -15.222905158996582 278.0723571777344 88.54019927978516 188.36732482910156 C 127.2140884399414 302.3130798339844 77.74219512939453 264.7124938964844 78.46477508544922 332.9999084472656 C 103.63507080078125 368.8089294433594 77.25004577636719 333.4818420410156 234.81939697265625 352.7201843261719" stroke-width="0.0" fill="rgb(0, 0, 31)" opacity="1.0" stroke="rgb(0, 0, 0)" stroke-opacity="1.0" stroke-linecap="round" stroke-linejoin="round"/>
    <path d="M 187.48069763183594 228.2811737060547 C 243.04933166503906 287.4903869628906 153.68939208984375 293.9621887207031 187.3632354736328 286.3153381347656 C 174.15194702148438 269.6424255371094 114.69517517089844 237.67388916015625 119.75320434570312 188.2007293701172 C 106.26085662841797 217.22462463378906 40.24988555908203 225.59182739257812 146.171142578125 212.53973388671875 C 170.015625 278.9468078613281 203.1519775390625 258.3469543457031 187.48069763183594 228.2811737060547" stroke-width="0.0" fill="rgb(123, 90, 0)" opacity="0.64483005" stroke="rgb(0, 0, 0)" stroke-opacity="1.0" stroke-linecap="round" stroke-linejoin="round"/>
    <path d="M 396.8251037597656 207.93545532226562 C 391.1278076171875 326.65008544921875 207.16128540039062 251.86636352539062 392.6195373535156 262.99761962890625 C 433.0789489746094 210.98582458496094 343.2602844238281 158.30467224121094 325.00628662109375 355.8014221191406 C 262.0895690917969 184.58349609375 333.8028869628906 184.62594604492188 366.6170959472656 220.88905334472656 C 453.0630798339844 224.91998291015625 397.86932373046875 221.49679565429688 396.8251037597656 207.93545532226562" stroke-width="0.0" fill="rgb(5, 1, 13)" opacity="0.98886573" stroke="rgb(0, 0, 0)" stroke-opacity="1.0" stroke-linecap="round" stroke-linejoin="round"/>
    <path d="M 191.69638061523438 210.58175659179688 C 180.47915649414062 266.8041076660156 233.29257202148438 224.2191925048828 114.228271484375 240.21066284179688 C 42.981895446777344 226.88134765625 132.5192413330078 199.86558532714844 191.6107177734375 208.1494598388672 C 198.6993865966797 211.232421875 178.70730590820312 215.21348571777344 197.57041931152344 188.71095275878906 C 160.6142120361328 108.20094299316406 157.72068786621094 110.32210540771484 191.69638061523438 210.58175659179688" stroke-width="0.0" fill="rgb(130, 48, 19)" opacity="0.88458246" stroke="rgb(0, 0, 0)" stroke-opacity="1.0" stroke-linecap="round" stroke-linejoin="round"/>
    <path d="M 554.9443359375 330.6926574707031 C 537.2902221679688 392.08935546875 395.7430419921875 372.11676025390625 446.89605712890625 474.7120361328125 C 278.1202087402344 348.6341552734375 349.29266357421875 455.7640075683594 323.03680419921875 250.79127502441406 C 459.5841979980469 325.94891357421875 320.19586181640625 311.4809265136719 390.250732421875 354.0621643066406 C 472.1443176269531 351.9462890625 405.9462890625 376.2137145996094 554.9443359375 330.6926574707031" stroke-width="0.0" fill="rgb(0, 0, 19)" opacity="1.0" stroke="rgb(0, 0, 0)" stroke-opacity="1.0" stroke-linecap="round" stroke-linejoin="round"/>
    <path d="M 425.2748718261719 189.59030151367188 C 483.29205322265625 240.52999877929688 490.09716796875 303.7835693359375 443.1167907714844 410.6487731933594 C 449.4419250488281 273.5918273925781 472.37725830078125 285.6014404296875 401.00628662109375 188.0862579345703 C 448.4031066894531 97.62779998779297 476.5863952636719 16.1046085357666 450.6813659667969 78.3817367553711 C 457.38702392578125 180.89462280273438 464.9849853515625 130.46893310546875 425.2748718261719 189.59030151367188" stroke-width="0.0" fill="rgb(0, 0, 25)" opacity="0.99997616" stroke="rgb(0, 0, 0)" stroke-opacity="1.0" stroke-linecap="round" stroke-linejoin="round"/>
    <path d="M 380.8119201660156 284.4558410644531 C 317.9773864746094 346.293212890625 351.7574157714844 403.7237854003906 327.6504211425781 340.616455078125 C 259.527587890625 340.74481201171875 319.99188232421875 345.7297668457031 306.8558654785156 314.8184509277344 C 298.7310485839844 291.6037902832031 303.1922302246094 248.65493774414062 316.3680725097656 216.15660095214844 C 333.8445739746094 217.2576904296875 337.5599670410156 266.2698974609375 380.8119201660156 284.4558410644531" stroke-width="0.0" fill="rgb(250, 236, 211)" opacity="0.9036601" stroke="rgb(0, 0, 0)" stroke-opacity="1.0" stroke-linecap="round" stroke-linejoin="round"/>
    <path d="M 358.125 234.0059051513672 C 380.8994140625 211.7479248046875 369.96429443359375 217.56515502929688 385.9574279785156 225.89215087890625 C 393.134765625 219.5453643798828 376.78436279296875 219.7706756591797 337.8087158203125 226.6286163330078 C 332.93511962890625 221.6971435546875 340.7782287597656 215.02542114257812 333.70147705078125 226.53961181640625 C 331.4975280761719 251.6624755859375 313.4515686035156 237.68048095703125 358.125 234.0059051513672" stroke-width="0.0" fill="rgb(0, 0, 12)" opacity="0.9201677" stroke="rgb(0, 0, 0)" stroke-opacity="1.0" stroke-linecap="round" stroke-linejoin="round"/>
    <path d="M 64.59963989257812 76.63471221923828 C 133.46011352539062 175.39334106445312 86.20020294189453 72.93058013916016 221.36807250976562 114.29971313476562 C 67.73157501220703 186.73463439941406 104.3971176147461 307.3931884765625 50.760013580322266 64.59265899658203 C 26.781757354736328 -58.39579772949219 49.71937561035156 -61.37885284423828 178.22256469726562 111.28179931640625 C 43.46434783935547 17.5009822845459 37.070804595947266 -14.758421897888184 64.59963989257812 76.63471221923828" stroke-width="0.0" fill="rgb(3, 15, 8)" opacity="0.9169201" stroke="rgb(0, 0, 0)" stroke-opacity="1.0" stroke-linecap="round" stroke-linejoin="round"/>
    <path d="M 221.97909545898438 329.1709899902344 C 232.7100830078125 328.2391357421875 349.19293212890625 290.63470458984375 297.21673583984375 346.04205322265625 C 38.78887939453125 389.3092346191406 156.58529663085938 318.5873718261719 162.2239532470703 256.35357666015625 C 141.67666625976562 165.81948852539062 214.3151397705078 194.40382385253906 214.12261962890625 238.2520294189453 C 215.12417602539062 302.77020263671875 194.02606201171875 313.22357177734375 221.97909545898438 329.1709899902344" stroke-width="0.0" fill="rgb(4, 5, 9)" opacity="0.9780078" stroke="rgb(0, 0, 0)" stroke-opacity="1.0" stroke-linecap="round" stroke-linejoin="round"/>
    <path d="M 406.37786865234375 240.47821044921875 C 396.3489990234375 208.34915161132812 425.83502197265625 181.46597290039062 461.6957702636719 291.6883239746094 C 412.90673828125 298.3818359375 367.4058532714844 308.8949279785156 317.24957275390625 228.573486328125 C 358.93316650390625 194.5177764892578 364.36102294921875 224.71438598632812 378.3289794921875 153.16702270507812 C 443.4283447265625 162.514404296875 424.5977478027344 231.1228790283203 406.37786865234375 240.47821044921875" stroke-width="0.0" fill="rgb(255, 240, 112)" opacity="0.9967326" stroke="rgb(0, 0, 0)" stroke-opacity="1.0" stroke-linecap="round" stroke-linejoin="round"/>
    <path d="M 492.4825439453125 10.644205093383789 C 305.10467529296875 59.45114517211914 342.9306335449219 81.71826171875 237.24398803710938 112.25086212158203 C 115.43486022949219 114.86632537841797 172.19876098632812 81.97760009765625 4.114935398101807 -19.409427642822266 C 319.3821716308594 -35.14772415161133 245.6802520751953 46.51315689086914 285.3350524902344 65.14091491699219 C 305.55059814453125 17.4298095703125 395.7262878417969 46.55188751220703 492.4825439453125 10.644205093383789" stroke-width="0.0" fill="rgb(0, 0, 20)" opacity="1.0" stroke="rgb(0, 0, 0)" stroke-opacity="1.0" stroke-linecap="round" stroke-linejoin="round"/>
    <path d="M 335.38433837890625 368.7481689453125 C 109.79862976074219 462.9347839355469 217.73648071289062 318.5631408691406 146.30918884277344 388.5496520996094 C 140.39739990234375 408.9822692871094 177.13246154785156 372.37091064453125 173.51222229003906 348.2532653808594 C 167.5150604248047 309.74664306640625 138.20774841308594 307.6011657714844 181.52169799804688 316.5196228027344 C 298.8252868652344 358.7256774902344 366.75311279296875 302.4549865722656 335.38433837890625 368.7481689453125" stroke-width="0.0" fill="rgb(255, 250, 255)" opacity="1.0" stroke="rgb(0, 0, 0)" stroke-opacity="1.0" stroke-linecap="round" stroke-linejoin="round"/>
    <path d="M 459.99334716796875 61.497127532958984 C 475.68096923828125 50.9859504699707 470.8316650390625 62.43383026123047 472.2366638183594 55.197776794433594 C 464.070068359375 63.34566116333008 465.494384765625 78.86421966552734 468.77984619140625 103.08491516113281 C 477.9246520996094 4.760519504547119 460.76434326171875 -46.560237884521484 475.87030029296875 -43.76781463623047 C 470.2410583496094 37.85873794555664 474.6824645996094 72.3874282836914 459.99334716796875 61.497127532958984" stroke-width="0.0" fill="rgb(53, 100, 35)" opacity="0.001592631" stroke="rgb(0, 0, 0)" stroke-opacity="1.0" stroke-linecap="round" stroke-linejoin="round"/>
    <path d="M 439.87396240234375 47.24553680419922 C 343.29913330078125 115.17948913574219 459.6839599609375 99.05282592773438 387.12127685546875 180.47918701171875 C 288.49072265625 84.32736206054688 325.9307556152344 164.336181640625 356.23394775390625 48.459556579589844 C 346.81866455078125 104.80762481689453 373.5237121582031 10.17750358581543 335.3717956542969 86.80224609375 C 375.9599609375 117.73819732666016 461.24371337890625 19.929285049438477 439.87396240234375 47.24553680419922" stroke-width="0.0" fill="rgb(23, 42, 0)" opacity="0.9134278" stroke="rgb(0, 0, 0)" stroke-opacity="1.0" stroke-linecap="round" stroke-linejoin="round"/>
    <path d="M 456.0343322753906 417.6719970703125 C 433.39373779296875 411.9026794433594 517.4907836914062 545.0888671875 386.346923828125 515.9271240234375 C 358.1513977050781 370.1123962402344 445.2400817871094 479.8793029785156 401.52423095703125 368.3414611816406 C 547.8635864257812 451.34613037109375 339.0904846191406 368.66998291015625 419.4980163574219 331.98992919921875 C 485.718505859375 382.14495849609375 495.8188781738281 391.9230041503906 456.0343322753906 417.6719970703125" stroke-width="0.0" fill="rgb(175, 210, 224)" opacity="0.036845054" stroke="rgb(0, 0, 0)" stroke-opacity="1.0" stroke-linecap="round" stroke-linejoin="round"/>
    <path d="M 479.98883056640625 65.00105285644531 C 450.05523681640625 35.05718231201172 468.19720458984375 46.00518035888672 427.4496154785156 153.03179931640625 C 392.38824462890625 115.25738525390625 409.2593688964844 164.5343475341797 441.2555847167969 34.897254943847656 C 435.4615783691406 74.1869888305664 417.818115234375 79.02691650390625 447.2008056640625 90.82640838623047 C 467.1717834472656 51.22187805175781 459.6240234375 41.407649993896484 479.98883056640625 65.00105285644531" stroke-width="0.0" fill="rgb(4, 5, 28)" opacity="1.0" stroke="rgb(0, 0, 0)" stroke-opacity="1.0" stroke-linecap="round" stroke-linejoin="round"/>
    <path d="M 420.8139343261719 422.87933349609375 C 454.7874450683594 419.19189453125 362.1856384277344 426.11566162109375 284.3484802246094 474.92919921875 C 227.76841735839844 520.6890869140625 139.75486755371094 441.0102844238281 167.5257568359375 413.1233825683594 C 233.0869903564453 444.8005065917969 208.6773681640625 443.33184814453125 210.11680603027344 446.36346435546875 C 215.7211456298828 456.3095703125 325.22479248046875 458.5801086425781 420.8139343261719 422.87933349609375" stroke-width="0.0" fill="rgb(0, 1, 35)" opacity="0.9990143" stroke="rgb(0, 0, 0)" stroke-opacity="1.0" stroke-linecap="round" stroke-linejoin="round"/>
    <path d="M 192.02394104003906 329.7296447753906 C 259.8843078613281 259.5645751953125 311.744140625 270.6477966308594 228.38308715820312 277.7543029785156 C 237.2389678955078 299.6817626953125 294.0091857910156 293.9583435058594 274.3104553222656 203.8847198486328 C 168.32106018066406 233.95230102539062 166.74256896972656 263.5902404785156 144.93051147460938 275.7587585449219 C 133.03208923339844 328.8011169433594 125.45854949951172 281.23541259765625 192.02394104003906 329.7296447753906" stroke-width="0.0" fill="rgb(255, 246, 217)" opacity="0.81128544" stroke="rgb(0, 0, 0)" stroke-opacity="1.0" stroke-linecap="round" stroke-linejoin="round"/>
    <path d="M 539.0166015625 384.2751770019531 C 464.2657165527344 539.0498657226562 407.5588684082031 485.5909423828125 435.7657470703125 412.1289978027344 C 456.8507385253906 398.1446838378906 455.45001220703125 400.3317565917969 449.5249938964844 411.0040588378906 C 490.7363586425781 415.8177490234375 424.2689514160156 411.6061096191406 458.9739990234375 345.21051025390625 C 562.8290405273438 377.4982604980469 480.7192687988281 359.9142150878906 539.0166015625 384.2751770019531" stroke-width="0.0" fill="rgb(224, 227, 233)" opacity="0.64646435" stroke="rgb(0, 0, 0)" stroke-opacity="1.0" stroke-linecap="round" stroke-linejoin="round"/>
    <path d="M 295.2851867675781 409.3632507324219 C 249.04371643066406 392.6744079589844 211.83340454101562 399.70904541015625 250.47364807128906 384.70098876953125 C 293.5241394042969 397.6112060546875 267.4493408203125 393.2747802734375 219.3349151611328 415.5521240234375 C 178.7770538330078 403.4526672363281 238.2237091064453 414.7005920410156 310.2530517578125 309.9070129394531 C 318.384521484375 412.0451354980469 367.0941162109375 432.76849365234375 295.2851867675781 409.3632507324219" stroke-width="0.0" fill="rgb(0, 0, 23)" opacity="1.0" stroke="rgb(0, 0, 0)" stroke-opacity="1.0" stroke-linecap="round" stroke-linejoin="round"/>
    <path d="M 61.446258544921875 36.146610260009766 C 91.21778106689453 -18.924901962280273 64.54296112060547 143.98451232910156 154.2499237060547 206.61148071289062 C 135.72836303710938 263.0008239746094 69.15478515625 28.464494705200195 37.50020980834961 97.1417465209961 C 24.211944580078125 -19.88298988342285 15.729009628295898 -61.40343475341797 102.65379333496094 3.2114837169647217 C 131.32296752929688 109.32684326171875 60.79056930541992 17.711647033691406 61.446258544921875 36.146610260009766" stroke-width="0.0" fill="rgb(248, 251, 255)" opacity="1.0" stroke="rgb(0, 0, 0)" stroke-opacity="1.0" stroke-linecap="round" stroke-linejoin="round"/>
    <path d="M 236.92813110351562 60.90993118286133 C 168.89500427246094 24.462635040283203 156.25660705566406 31.888734817504883 158.60467529296875 35.033321380615234 C 144.1866912841797 31.886478424072266 119.40644073486328 51.75518035888672 74.8388442993164 32.10268783569336 C 71.8376693725586 -35.251827239990234 56.172264099121094 -41.325782775878906 167.69656372070312 -25.38837432861328 C 225.40750122070312 -26.061634063720703 236.92733764648438 -42.7718391418457 236.92813110351562 60.90993118286133" stroke-width="0.0" fill="rgb(250, 250, 255)" opacity="1.0" stroke="rgb(0, 0, 0)" stroke-opacity="1.0" stroke-linecap="round" stroke-linejoin="round"/>
    <path d="M 150.3990936279297 274.6640930175781 C 142.74034118652344 345.9732666015625 167.02879333496094 367.78271484375 123.1485595703125 387.9422607421875 C 59.776912689208984 369.1223449707031 70.349609375 362.2030944824219 56.436031341552734 318.12933349609375 C 45.42299270629883 269.0413513183594 70.27130889892578 273.55303955078125 124.03607177734375 172.4863739013672 C 173.99072265625 214.34268188476562 160.40635681152344 239.673583984375 150.3990936279297 274.6640930175781" stroke-width="0.0" fill="rgb(255, 206, 43)" opacity="1.0" stroke="rgb(0, 0, 0)" stroke-opacity="1.0" stroke-linecap="round" stroke-linejoin="round"/>
    <path d="M 134.5232391357422 225.73681640625 C 98.12444305419922 266.6045837402344 70.05558013916016 267.97698974609375 88.45762634277344 243.7248992919922 C 78.79782104492188 260.8415222167969 62.78554916381836 278.61236572265625 61.55025100708008 276.02032470703125 C 69.02228546142578 230.6685791015625 126.95055389404297 170.21458435058594 112.15233612060547 227.2559051513672 C 98.00130462646484 231.7532196044922 114.34915924072266 191.894775390625 134.5232391357422 225.73681640625" stroke-width="0.0" fill="rgb(255, 254, 35)" opacity="0.99456125" stroke="rgb(0, 0, 0)" stroke-opacity="1.0" stroke-linecap="round" stroke-linejoin="round"/>
    <path d="M 331.70709228515625 104.39818572998047 C 268.3205871582031 210.2685546875 295.10321044921875 235.8580780029297 260.3837890625 219.9237060546875 C 151.2360076904297 190.15911865234375 126.80702209472656 208.35118103027344 152.46209716796875 157.33714294433594 C 234.0902862548828 82.20349884033203 190.22715759277344 71.24867248535156 217.47637939453125 101.51815032958984 C 242.9037628173828 109.21613311767578 360.76202392578125 36.66386795043945 331.70709228515625 104.39818572998047" stroke-width="0.0" fill="rgb(255, 232, 176)" opacity="0.9895383" stroke="rgb(0, 0, 0)" stroke-opacity="1.0" stroke-linecap="round" stroke-linejoin="round"/>
    <path d="M 331.5587158203125 347.90264892578125 C 330.8915100097656 307.2027282714844 354.1068115234375 357.3678283691406 322.9104919433594 407.6065368652344 C 251.2284698486328 380.0992431640625 255.4425506591797 378.8146667480469 266.1454162597656 336.3978271484375 C 304.01806640625 347.6236572265625 326.3484191894531 299.1532897949219 331.9026184082031 316.7964172363281 C 356.01324462890625 359.1712646484375 310.2463073730469 384.3018493652344 331.5587158203125 347.90264892578125" stroke-width="0.0" fill="rgb(255, 252, 255)" opacity="1.0" stroke="rgb(0, 0, 0)" stroke-opacity="1.0" stroke-linecap="round" stroke-linejoin="round"/>
    <path d="M 28.690807342529297 444.18609619140625 C -1.2159051895141602 415.574951171875 126.87264251708984 376.57672119140625 54.75277328491211 371.636474609375 C 6.405132293701172 422.2168884277344 13.165904998779297 392.9639587402344 96.91094970703125 356.3957214355469 C -36.78352737426758 352.56976318359375 7.318345069885254 359.21990966796875 71.34466552734375 358.0665588378906 C 71.62907409667969 381.1408996582031 90.47413635253906 376.5609130859375 28.690807342529297 444.18609619140625" stroke-width="0.0" fill="rgb(87, 114, 27)" opacity="0.00063386466" stroke="rgb(0, 0, 0)" stroke-opacity="1.0" stroke-linecap="round" stroke-linejoin="round"/>
    <path d="M 331.9423522949219 414.43255615234375 C 344.0320739746094 404.2373046875 325.0329895019531 421.8292236328125 300.0794677734375 405.4451904296875 C 324.97308349609375 407.1457214355469 316.3481140136719 420.5367126464844 341.79315185546875 406.1919250488281 C 312.40625 408.70147705078125 271.7365417480469 407.0884704589844 327.5853576660156 396.020751953125 C 365.57037353515625 362.1534423828125 353.7023010253906 369.5399169921875 331.9423522949219 414.43255615234375" stroke-width="0.0" fill="rgb(0, 0, 33)" opacity="0.97746193" stroke="rgb(0, 0, 0)" stroke-opacity="1.0" stroke-linecap="round" stroke-linejoin="round"/>
    <path d="M 423.4295349121094 77.87033081054688 C 408.2071838378906 71.68582153320312 438.3031921386719 57.65372848510742 436.2352294921875 147.4925537109375 C 409.6060791015625 188.81492614746094 393.3141174316406 118.16192626953125 370.4416809082031 123.28189849853516 C 408.6583251953125 118.60011291503906 417.1290588378906 91.5286636352539 415.00225830078125 88.91616821289062 C 362.6122131347656 67.49049377441406 396.1135559082031 56.701210021972656 423.4295349121094 77.87033081054688" stroke-width="0.0" fill="rgb(180, 131, 8)" opacity="0.9318837" stroke="rgb(0, 0, 0)" stroke-opacity="1.0" stroke-linecap="round" stroke-linejoin="round"/>
    <path d="M 232.041259765625 111.30046844482422 C 217.67593383789062 110.68628692626953 201.75042724609375 113.88497924804688 180.37319946289062 123.16270446777344 C 171.1043701171875 111.0556869506836 163.68389892578125 117.8176498413086 86.50556945800781 108.29020690917969 C 67.82461547851562 42.520755767822266 134.0921173095703 47.48871612548828 163.046875 54.26099395751953 C 192.7838134765625 72.49308776855469 212.6391143798828 80.78617858886719 232.041259765625 111.30046844482422" stroke-width="0.0" fill="rgb(254, 239, 16)" opacity="0.9993611" stroke="rgb(0, 0, 0)" stroke-opacity="1.0" stroke-linecap="round" stroke-linejoin="round"/>
    <path d="M 541.5938110351562 450.505126953125 C 540.7627563476562 471.9844665527344 541.0794067382812 474.3217468261719 513.4801025390625 467.3625183105469 C 499.8557434082031 464.02606201171875 501.2806701660156 441.42999267578125 496.9781188964844 434.1554870605469 C 480.0035705566406 434.8099060058594 490.3420104980469 424.1709289550781 530.0108642578125 426.13751220703125 C 524.2904663085938 425.6336975097656 529.3707275390625 430.8746337890625 541.5938110351562 450.505126953125" stroke-width="0.0" fill="rgb(200, 190, 221)" opacity="0.025918178" stroke="rgb(0, 0, 0)" stroke-opacity="1.0" stroke-linecap="round" stroke-linejoin="round"/>
    <path d="M 330.07958984375 196.3050537109375 C 337.6480712890625 198.6324005126953 314.5458679199219 242.7827911376953 324.5264892578125 273.88140869140625 C 349.51666259765625 226.51805114746094 333.6708068847656 221.07884216308594 353.91119384765625 224.50527954101562 C 345.7022399902344 231.5841827392578 351.77398681640625 234.9363555908203 365.9559326171875 205.1221923828125 C 369.9390869140625 203.8700714111328 326.0024719238281 219.55081176757812 330.07958984375 196.3050537109375" stroke-width="0.0" fill="rgb(15, 10, 41)" opacity="0.4554776" stroke="rgb(0, 0, 0)" stroke-opacity="1.0" stroke-linecap="round" stroke-linejoin="round"/>
    <path d="M 488.7120056152344 402.3037109375 C 478.6749267578125 419.3643798828125 466.66705322265625 436.16668701171875 433.04638671875 507.6138610839844 C 422.36151123046875 452.5347900390625 424.6501770019531 433.757568359375 394.167724609375 396.0615539550781 C 359.14898681640625 362.5185241699219 380.7550354003906 341.35601806640625 515.2417602539062 307.3915710449219 C 538.8299560546875 331.98236083984375 533.7207641601562 355.1636657714844 488.7120056152344 402.3037109375" stroke-width="0.0" fill="rgb(245, 248, 252)" opacity="0.9880156" stroke="rgb(0, 0, 0)" stroke-opacity="1.0" stroke-linecap="round" stroke-linejoin="round"/>
    <path d="M 168.58763122558594 413.7854309082031 C 174.63107299804688 431.0752868652344 160.56436157226562 429.40655517578125 169.15460205078125 416.8305969238281 C 149.59446716308594 438.2374267578125 155.70166015625 439.894775390625 134.26043701171875 429.060791015625 C 161.55783081054688 407.2565612792969 180.57923889160156 398.060302734375 162.02975463867188 415.78778076171875 C 159.3905792236328 411.390625 170.94827270507812 418.88995361328125 168.58763122558594 413.7854309082031" stroke-width="0.0" fill="rgb(250, 254, 232)" opacity="0.89407974" stroke="rgb(0, 0, 0)" stroke-opacity="1.0" stroke-linecap="round" stroke-linejoin="round"/>
    <path d="M 432.58673095703125 407.05914306640625 C 416.9784240722656 427.6673583984375 414.3743896484375 406.3196716308594 421.6512756347656 404.11822509765625 C 407.87139892578125 413.3963623046875 399.6180419921875 398.2811279296875 375.8252258300781 374.3673095703125 C 345.109375 334.4280700683594 358.16668701171875 266.58172607421875 445.8648986816406 277.68084716796875 C 482.638427734375 338.3038330078125 461.5763244628906 366.48883056640625 432.58673095703125 407.05914306640625" stroke-width="0.0" fill="rgb(255, 245, 85)" opacity="0.9914948" stroke="rgb(0, 0, 0)" stroke-opacity="1.0" stroke-linecap="round" stroke-linejoin="round"/>
    <path d="M 138.96653747558594 104.51969146728516 C 201.25811767578125 109.8048324584961 178.85739135742188 117.50743865966797 133.1109619140625 114.35066223144531 C 105.00517272949219 129.9091033935547 113.37581634521484 102.1167984008789 74.34176635742188 118.20240783691406 C 69.04277801513672 68.79937744140625 111.91511535644531 53.45197677612305 83.71931457519531 81.47400665283203 C 102.4983139038086 91.2629165649414 109.32862854003906 102.42373657226562 138.96653747558594 104.51969146728516" stroke-width="0.0" fill="rgb(91, 53, 17)" opacity="0.89940685" stroke="rgb(0, 0, 0)" stroke-opacity="1.0" stroke-linecap="round" stroke-linejoin="round"/>
    <path d="M 362.0041809082031 396.94061279296875 C 351.3326416015625 394.03936767578125 356.0465087890625 422.385986328125 341.5774841308594 489.7590026855469 C 282.7224426269531 448.06353759765625 328.7012939453125 383.021728515625 349.628662109375 370.5270690917969 C 315.0068359375 355.23779296875 314.3740234375 353.6981201171875 332.2707824707031 364.1584167480469 C 350.14031982421875 369.3712158203125 361.48284912109375 371.6769104003906 362.0041809082031 396.94061279296875" stroke-width="0.0" fill="rgb(0, 0, 26)" opacity="0.9980662" stroke="rgb(0, 0, 0)" stroke-opacity="1.0" stroke-linecap="round" stroke-linejoin="round"/>
    <path d="M 118.19969177246094 367.95416259765625 C 147.6320037841797 373.17816162109375 132.117919921875 388.88916015625 101.24847412109375 429.9039611816406 C 50.32027816772461 394.0426330566406 39.64686965942383 385.9348449707031 27.23148536682129 351.1892395019531 C 73.64604187011719 325.43023681640625 78.1499252319336 342.3344421386719 104.80582427978516 356.63714599609375 C 113.52349090576172 359.4891357421875 114.9019775390625 373.4599914550781 118.19969177246094 367.95416259765625" stroke-width="0.0" fill="rgb(255, 213, 104)" opacity="1.0" stroke="rgb(0, 0, 0)" stroke-opacity="1.0" stroke-linecap="round" stroke-linejoin="round"/>
    <path d="M 267.11279296875 132.95327758789062 C 241.87925720214844 195.72750854492188 251.4429473876953 216.46495056152344 264.66375732421875 193.1041259765625 C 267.4767150878906 159.34950256347656 255.0424346923828 144.37661743164062 234.96861267089844 119.03632354736328 C 218.862060546875 94.04647827148438 220.78094482421875 96.46804809570312 248.53041076660156 86.36407470703125 C 312.06512451171875 68.83296966552734 342.8437194824219 61.44367218017578 267.11279296875 132.95327758789062" stroke-width="0.0" fill="rgb(0, 0, 22)" opacity="1.0" stroke="rgb(0, 0, 0)" stroke-opacity="1.0" stroke-linecap="round" stroke-linejoin="round"/>
    <path d="M 429.58148193359375 69.17189025878906 C 441.87420654296875 100.3305892944336 431.78619384765625 98.2099380493164 389.47894287109375 109.38420867919922 C 387.5995788574219 73.46182250976562 410.27838134765625 78.9070816040039 403.896484375 72.94583129882812 C 430.61846923828125 87.24014282226562 432.22955322265625 76.00433349609375 440.1565246582031 38.840431213378906 C 440.52191162109375 60.332542419433594 433.19281005859375 88.03580474853516 429.58148193359375 69.17189025878906" stroke-width="0.0" fill="rgb(37, 44, 39)" opacity="1.0" stroke="rgb(0, 0, 0)" stroke-opacity="1.0" stroke-linecap="round" stroke-linejoin="round"/>
    <path d="M 133.73638916015625 120.16627502441406 C 110.76164245605469 143.88885498046875 105.93959045410156 182.7186279296875 87.30603790283203 139.05178833007812 C 86.79261016845703 140.47134399414062 85.76863098144531 138.72190856933594 79.00480651855469 122.91390991210938 C 79.51192474365234 104.2057876586914 48.52067184448242 93.31851959228516 69.56085205078125 100.64556121826172 C 172.61837768554688 102.04833984375 217.95535278320312 109.93289947509766 133.73638916015625 120.16627502441406" stroke-width="0.0" fill="rgb(64, 43, 13)" opacity="0.99911624" stroke="rgb(0, 0, 0)" stroke-opacity="1.0" stroke-linecap="round" stroke-linejoin="round"/>
    <path d="M 524.6383666992188 441.2094421386719 C 531.93798828125 506.018310546875 524.3755493164062 512.1331176757812 482.4648742675781 549.0808715820312 C 451.3592529296875 549.1085205078125 445.27069091796875 554.990234375 453.26043701171875 496.2763671875 C 461.5652770996094 465.1566467285156 487.4253234863281 465.26116943359375 509.672119140625 447.4063415527344 C 531.3673706054688 432.7489929199219 516.0538940429688 419.1792907714844 524.6383666992188 441.2094421386719" stroke-width="0.0" fill="rgb(129, 142, 162)" opacity="0.42457178" stroke="rgb(0, 0, 0)" stroke-opacity="1.0" stroke-linecap="round" stroke-linejoin="round"/>
    <path d="M 306.7247619628906 320.83990478515625 C 303.5552978515625 326.8143005371094 292.1337585449219 325.213134765625 257.6495666503906 369.981201171875 C 232.47328186035156 316.9078063964844 183.19647216796875 337.60394287109375 224.07278442382812 315.5563049316406 C 265.6805725097656 324.767333984375 274.19384765625 331.03155517578125 287.0788269042969 322.2997741699219 C 272.0794677734375 312.6810302734375 250.36312866210938 327.24493408203125 306.7247619628906 320.83990478515625" stroke-width="0.0" fill="rgb(0, 0, 14)" opacity="1.0" stroke="rgb(0, 0, 0)" stroke-opacity="1.0" stroke-linecap="round" stroke-linejoin="round"/>
    <path d="M 436.2646484375 142.06423950195312 C 428.60626220703125 169.4686737060547 422.9601745605469 181.05984497070312 430.0836181640625 215.7759552001953 C 390.6405944824219 189.88059997558594 391.3233642578125 171.18870544433594 401.06719970703125 176.3155975341797 C 412.9437255859375 168.74789428710938 414.93072509765625 162.0382080078125 432.74249267578125 151.48504638671875 C 448.3769226074219 145.51255798339844 442.5804138183594 150.05081176757812 436.2646484375 142.06423950195312" stroke-width="0.0" fill="rgb(0, 1, 31)" opacity="0.9908621" stroke="rgb(0, 0, 0)" stroke-opacity="1.0" stroke-linecap="round" stroke-linejoin="round"/>
    <path d="M 461.1562194824219 500.83612060546875 C 465.9072265625 525.7030639648438 472.1388854980469 529.104248046875 445.0883483886719 525.1557006835938 C 436.3199768066406 520.7608642578125 454.7895202636719 537.1962280273438 467.1451721191406 502.6240234375 C 443.3486328125 459.46881103515625 438.79510498046875 464.4532775878906 432.67510986328125 462.15679931640625 C 439.1700439453125 465.5537414550781 441.2261962890625 489.2429504394531 461.1562194824219 500.83612060546875" stroke-width="0.0" fill="rgb(135, 150, 109)" opacity="0.41228786" stroke="rgb(0, 0, 0)" stroke-opacity="1.0" stroke-linecap="round" stroke-linejoin="round"/>
    <path d="M 473.0860290527344 -7.358773231506348 C 477.7154235839844 0.6389420628547668 460.5443115234375 8.112980842590332 481.1463928222656 -1.895941138267517 C 501.3704833984375 26.948392868041992 458.31793212890625 40.48493194580078 432.8005065917969 50.709903717041016 C 443.62432861328125 4.594418525695801 446.81011962890625 -5.124021053314209 446.0666198730469 -22.569677352905273 C 466.85028076171875 -22.389808654785156 480.4515075683594 -12.099517822265625 473.0860290527344 -7.358773231506348" stroke-width="0.0" fill="rgb(120, 207, 50)" opacity="0.0" stroke="rgb(0, 0, 0)" stroke-opacity="1.0" stroke-linecap="round" stroke-linejoin="round"/>
    <path d="M 183.3194122314453 251.20712280273438 C 192.0111541748047 263.6250915527344 183.9054412841797 270.2628173828125 183.23609924316406 268.4549560546875 C 164.1188507080078 268.08477783203125 156.95721435546875 257.73321533203125 162.52503967285156 225.35128784179688 C 198.71624755859375 230.06427001953125 193.06114196777344 256.04046630859375 171.4794921875 240.3754425048828 C 174.9051513671875 241.20188903808594 188.6774139404297 244.37857055664062 183.3194122314453 251.20712280273438" stroke-width="0.0" fill="rgb(251, 199, 63)" opacity="0.88541836" stroke="rgb(0, 0, 0)" stroke-opacity="1.0" stroke-linecap="round" stroke-linejoin="round"/>
    <path d="M 168.04075622558594 408.4907531738281 C 172.48013305664062 423.46026611328125 179.19212341308594 461.0787658691406 185.5382843017578 447.5180969238281 C 148.9275360107422 451.5234375 131.6787567138672 455.3698425292969 122.6400146484375 435.1972351074219 C 129.54977416992188 395.24560546875 149.26266479492188 404.1822204589844 164.38856506347656 399.1300048828125 C 180.6534423828125 395.71600341796875 192.03793334960938 405.26287841796875 168.04075622558594 408.4907531738281" stroke-width="0.0" fill="rgb(253, 252, 234)" opacity="0.0" stroke="rgb(0, 0, 0)" stroke-opacity="1.0" stroke-linecap="round" stroke-linejoin="round"/>
    <path d="M 165.90452575683594 229.21426391601562 C 199.07754516601562 203.40353393554688 215.76734924316406 222.19692993164062 198.02859497070312 267.22845458984375 C 138.03700256347656 291.07366943359375 127.38851165771484 259.3387451171875 151.5375213623047 212.0761260986328 C 203.45797729492188 224.7146759033203 201.4944610595703 244.23272705078125 175.8258819580078 234.48736572265625 C 185.84324645996094 232.59046936035156 199.93804931640625 243.06857299804688 165.90452575683594 229.21426391601562" stroke-width="0.0" fill="rgb(253, 234, 208)" opacity="0.9760345" stroke="rgb(0, 0, 0)" stroke-opacity="1.0" stroke-linecap="round" stroke-linejoin="round"/>
    <path d="M 191.4471893310547 332.7324523925781 C 181.9622802734375 348.242431640625 166.56057739257812 348.5418395996094 174.52896118164062 390.51519775390625 C 108.75458526611328 425.90216064453125 127.11422729492188 372.4320983886719 160.3733367919922 358.81732177734375 C 174.1599884033203 347.528564453125 195.26904296875 335.59320068359375 188.03369140625 337.80230712890625 C 186.83265686035156 340.9013977050781 190.99314880371094 332.7954406738281 191.4471893310547 332.7324523925781" stroke-width="0.0" fill="rgb(0, 1, 22)" opacity="1.0" stroke="rgb(0, 0, 0)" stroke-opacity="1.0" stroke-linecap="round" stroke-linejoin="round"/>
    <path d="M 105.55121612548828 427.95440673828125 C 107.83252716064453 506.27301025390625 81.36356353759766 497.11639404296875 59.36907958984375 490.86041259765625 C 75.5970687866211 465.8470458984375 67.46599578857422 450.5008239746094 52.352909088134766 467.8612976074219 C 38.84434127807617 432.95074462890625 44.74583053588867 412.4775085449219 39.44193649291992 420.3282165527344 C 88.13384246826172 408.609619140625 90.87361145019531 401.46099853515625 105.55121612548828 427.95440673828125" stroke-width="0.0" fill="rgb(183, 242, 255)" opacity="0.0055374773" stroke="rgb(0, 0, 0)" stroke-opacity="1.0" stroke-linecap="round" stroke-linejoin="round"/>
    <path d="M 459.7026062011719 438.0611267089844 C 459.1451110839844 484.70867919921875 459.95758056640625 509.0504150390625 428.5973205566406 525.6779174804688 C 378.3616638183594 522.0337524414062 372.4980773925781 481.7649230957031 406.64263916015625 453.908447265625 C 442.2729187011719 448.2552795410156 462.37188720703125 449.5180358886719 464.57818603515625 459.1756591796875 C 460.24737548828125 422.574462890625 468.92901611328125 442.8182678222656 459.7026062011719 438.0611267089844" stroke-width="0.0" fill="rgb(221, 244, 255)" opacity="0.147149" stroke="rgb(0, 0, 0)" stroke-opacity="1.0" stroke-linecap="round" stroke-linejoin="round"/>
    <path d="M 443.6747741699219 379.7698669433594 C 452.7188415527344 371.4962463378906 464.53204345703125 375.6005859375 458.1784973144531 378.2861328125 C 428.93817138671875 398.6328125 430.45501708984375 387.59881591796875 425.02691650390625 361.15240478515625 C 417.55816650390625 349.64776611328125 425.5487060546875 345.292236328125 429.35430908203125 325.877197265625 C 419.00146484375 324.63385009765625 419.5101013183594 353.7325439453125 443.6747741699219 379.7698669433594" stroke-width="0.0" fill="rgb(221, 219, 215)" opacity="0.010060641" stroke="rgb(0, 0, 0)" stroke-opacity="1.0" stroke-linecap="round" stroke-linejoin="round"/>
    <path d="M 64.38461303710938 87.3199234008789 C 72.2955551147461 107.71492004394531 66.17294311523438 147.57342529296875 25.81803321838379 293.9080810546875 C -70.85576629638672 285.0154724121094 -19.452880859375 214.1666717529297 -13.363317489624023 49.09315490722656 C -11.681785583496094 -41.15449905395508 48.135929107666016 -26.988388061523438 39.57537841796875 68.82234191894531 C 26.129531860351562 73.21553802490234 22.68631362915039 87.38895416259766 64.38461303710938 87.3199234008789" stroke-width="0.0" fill="rgb(160, 171, 195)" opacity="0.10729893" stroke="rgb(0, 0, 0)" stroke-opacity="1.0" stroke-linecap="round" stroke-linejoin="round"/>
    <path d="M 54.51112365722656 489.4667663574219 C 212.59962463378906 450.02874755859375 210.872802734375 501.973876953125 92.02252197265625 533.8790283203125 C 45.152130126953125 513.4470825195312 32.82851791381836 526.6917724609375 -38.53925323486328 501.42083740234375 C -36.13029098510742 377.3238830566406 -2.836418390274048 389.1311340332031 -7.621520042419434 447.405029296875 C 5.379265308380127 475.8011474609375 16.733991622924805 506.66827392578125 54.51112365722656 489.4667663574219" stroke-width="0.0" fill="rgb(51, 97, 99)" opacity="0.15435939" stroke="rgb(0, 0, 0)" stroke-opacity="1.0" stroke-linecap="round" stroke-linejoin="round"/>
    <path d="M 130.12278747558594 226.30282592773438 C 122.2995834350586 244.23545837402344 128.79641723632812 231.17794799804688 140.9263458251953 242.67543029785156 C 138.12933349609375 258.19586181640625 124.92325592041016 242.3946990966797 113.61173248291016 224.6342315673828 C 138.99472045898438 231.7101593017578 124.99992370605469 242.63230895996094 129.77760314941406 230.47195434570312 C 139.9183349609375 232.93341064453125 129.44174194335938 231.7991943359375 130.12278747558594 226.30282592773438" stroke-width="0.0" fill="rgb(217, 209, 74)" opacity="0.06617766" stroke="rgb(0, 0, 0)" stroke-opacity="1.0" stroke-linecap="round" stroke-linejoin="round"/>
    <path d="M 371.30706787109375 10.2499418258667 C 332.7940673828125 38.16285705566406 302.982666015625 30.300151824951172 273.5325622558594 37.01355743408203 C 262.3808288574219 40.34067916870117 269.2489929199219 17.404176712036133 240.0742950439453 -22.181760787963867 C 222.2881317138672 -28.277481079101562 234.6321563720703 -29.788969039916992 265.7622985839844 -37.94414138793945 C 307.90728759765625 -30.915241241455078 321.3914489746094 -30.07405662536621 371.30706787109375 10.2499418258667" stroke-width="0.0" fill="rgb(173, 226, 222)" opacity="0.0" stroke="rgb(0, 0, 0)" stroke-opacity="1.0" stroke-linecap="round" stroke-linejoin="round"/>
    <path d="M 168.1034393310547 145.44667053222656 C 173.33642578125 195.6891632080078 172.8001251220703 219.18267822265625 104.20719146728516 227.97621154785156 C 109.55645751953125 177.27911376953125 143.41094970703125 168.7261505126953 140.9449462890625 174.8685760498047 C 136.74127197265625 170.9498748779297 135.72732543945312 174.66270446777344 123.7576675415039 192.65757751464844 C 107.02935028076172 191.56512451171875 126.18470001220703 178.29022216796875 168.1034393310547 145.44667053222656" stroke-width="0.0" fill="rgb(255, 235, 1)" opacity="0.42081985" stroke="rgb(0, 0, 0)" stroke-opacity="1.0" stroke-linecap="round" stroke-linejoin="round"/>
    <path d="M 468.1200256347656 249.46377563476562 C 459.71868896484375 253.95309448242188 474.87872314453125 267.55291748046875 460.489013671875 279.5652160644531 C 435.9149169921875 242.06582641601562 416.120849609375 234.7252197265625 434.6236572265625 245.8010711669922 C 459.1187744140625 276.21221923828125 440.72772216796875 259.1114501953125 447.5063781738281 222.55007934570312 C 461.46673583984375 230.12478637695312 463.91510009765625 240.15061950683594 468.1200256347656 249.46377563476562" stroke-width="0.0" fill="rgb(0, 1, 20)" opacity="0.87007844" stroke="rgb(0, 0, 0)" stroke-opacity="1.0" stroke-linecap="round" stroke-linejoin="round"/>
    <path d="M 370.9006042480469 383.4490966796875 C 366.491943359375 401.7900085449219 357.8493957519531 398.11785888671875 349.3428649902344 395.3999938964844 C 315.8307189941406 396.4018859863281 301.5234069824219 417.88067626953125 280.7483825683594 395.98382568359375 C 335.92462158203125 385.20086669921875 350.4917297363281 382.9384460449219 358.88262939453125 369.9325256347656 C 346.65435791015625 378.07135009765625 368.55767822265625 375.5627746582031 370.9006042480469 383.4490966796875" stroke-width="0.0" fill="rgb(0, 6, 32)" opacity="0.0" stroke="rgb(0, 0, 0)" stroke-opacity="1.0" stroke-linecap="round" stroke-linejoin="round"/>
    <path d="M 424.972412109375 216.0772705078125 C 381.6895446777344 215.9842529296875 357.9862060546875 218.29945373535156 356.8878173828125 227.85848999023438 C 363.3807373046875 218.81752014160156 359.42645263671875 225.71852111816406 351.41607666015625 231.6514892578125 C 333.6918640136719 181.9140167236328 327.38604736328125 163.74066162109375 336.4113464355469 144.91998291015625 C 401.7257080078125 143.1766815185547 414.2068786621094 144.9441375732422 424.972412109375 216.0772705078125" stroke-width="0.0" fill="rgb(216, 246, 39)" opacity="0.016533216" stroke="rgb(0, 0, 0)" stroke-opacity="1.0" stroke-linecap="round" stroke-linejoin="round"/>
    <path d="M 87.64976501464844 465.7432556152344 C 114.02661895751953 471.10784912109375 108.7666244506836 483.280029296875 87.0732421875 482.9624328613281 C 77.30751037597656 472.9866027832031 78.26850128173828 436.6365661621094 79.48400115966797 399.9921569824219 C 52.17617416381836 406.2472229003906 54.41925811767578 407.5067443847656 67.69356536865234 425.91009521484375 C 89.84156036376953 419.6501159667969 83.96453857421875 445.27685546875 87.64976501464844 465.7432556152344" stroke-width="0.0" fill="rgb(225, 255, 133)" opacity="0.0" stroke="rgb(0, 0, 0)" stroke-opacity="1.0" stroke-linecap="round" stroke-linejoin="round"/>
    <path d="M 86.23102569580078 417.86077880859375 C 133.91929626464844 461.63958740234375 125.60913848876953 492.7257080078125 60.015228271484375 499.9006042480469 C 14.758052825927734 497.8231201171875 3.6083462238311768 506.9972229003906 -27.136390686035156 395.25830078125 C 1.0864821672439575 320.1773376464844 38.88736343383789 335.0047912597656 76.1487045288086 405.8809814453125 C 72.92784881591797 426.7730407714844 67.53431701660156 446.0378723144531 86.23102569580078 417.86077880859375" stroke-width="0.0" fill="rgb(100, 193, 243)" opacity="0.07816631" stroke="rgb(0, 0, 0)" stroke-opacity="1.0" stroke-linecap="round" stroke-linejoin="round"/>
  </g>
</svg>
