<?xml version="1.0" ?>
<svg xmlns="http://www.w3.org/2000/svg" version="1.1" width="512" height="512">
  <defs/>
  <g>
    <path d="M 550.9244384765625 442.52801513671875 C 548.1302490234375 523.7100830078125 536.9373779296875 540.3314819335938 332.2550354003906 524.4002075195312 C 232.56387329101562 525.5352783203125 153.5764923095703 483.7450866699219 276.6105041503906 461.3877258300781 C 498.6936950683594 441.81787109375 353.6357421875 338.0402526855469 360.6219177246094 259.8812561035156 C 564.4693603515625 288.9418029785156 567.6226806640625 313.566650390625 550.9244384765625 442.52801513671875" stroke-width="0.0" fill="rgb(249, 16, 10)" opacity="0.9342097" stroke="rgb(0, 0, 0)" stroke-opacity="1.0" stroke-linecap="round" stroke-linejoin="round"/>
    <path d="M 151.18212890625 403.9154968261719 C 250.62106323242188 501.728759765625 386.3074035644531 413.6966552734375 281.5417785644531 460.556884765625 C -44.794189453125 531.6455688476562 -30.7197265625 542.08349609375 -21.26163101196289 499.8231506347656 C -33.29422378540039 212.45352172851562 -11.853556632995605 206.2347869873047 44.23952865600586 270.3479919433594 C 147.6676788330078 271.66632080078125 72.08470153808594 314.1960754394531 151.18212890625 403.9154968261719" stroke-width="0.0" fill="rgb(0, 2, 53)" opacity="1.0" stroke="rgb(0, 0, 0)" stroke-opacity="1.0" stroke-linecap="round" stroke-linejoin="round"/>
    <path d="M 130.88040161132812 277.37750244140625 C 170.189697265625 408.489501953125 146.75839233398438 336.4023742675781 132.77012634277344 298.210205078125 C -78.17562103271484 286.7998962402344 -58.22657012939453 343.10992431640625 -10.836519241333008 188.0616455078125 C 1.8437447547912598 153.39443969726562 14.663128852844238 160.5911865234375 88.23503112792969 148.20326232910156 C 89.99980926513672 116.49220275878906 119.18433380126953 195.9990234375 130.88040161132812 277.37750244140625" stroke-width="0.0" fill="rgb(108, 20, 40)" opacity="0.85914755" stroke="rgb(0, 0, 0)" stroke-opacity="1.0" stroke-linecap="round" stroke-linejoin="round"/>
    <path d="M 294.8820495605469 71.68479919433594 C 29.043813705444336 62.69799041748047 93.78868103027344 177.90032958984375 111.18416595458984 158.29747009277344 C 24.50992202758789 268.9510498046875 -16.158994674682617 248.48179626464844 -23.879989624023438 77.93115234375 C -16.20087432861328 -17.48221778869629 -8.278695106506348 -20.73219871520996 193.32693481445312 -50.6972770690918 C 280.6568603515625 -80.42586517333984 300.3988952636719 -78.70880126953125 294.8820495605469 71.68479919433594" stroke-width="0.0" fill="rgb(44, 112, 0)" opacity="0.7561945" stroke="rgb(0, 0, 0)" stroke-opacity="1.0" stroke-linecap="round" stroke-linejoin="round"/>
    <path d="M 579.4346313476562 93.48120880126953 C 436.1431579589844 282.7159729003906 435.8625793457031 294.0708923339844 323.7983703613281 342.16314697265625 C 164.0018768310547 382.4866027832031 284.60150146484375 296.44268798828125 219.21954345703125 145.86495971679688 C 309.27899169921875 -27.691186904907227 253.2170867919922 -31.430994033813477 349.2666320800781 -59.04381561279297 C 563.2000122070312 0.6587138175964355 563.2000122070312 11.063444137573242 579.4346313476562 93.48120880126953" stroke-width="0.0" fill="rgb(239, 14, 12)" opacity="0.9360558" stroke="rgb(0, 0, 0)" stroke-opacity="1.0" stroke-linecap="round" stroke-linejoin="round"/>
    <path d="M 342.119873046875 65.92163848876953 C 275.0458679199219 305.3617248535156 150.49569702148438 395.89459228515625 155.53717041015625 274.1056823730469 C 160.10427856445312 232.3587188720703 128.96307373046875 140.8333740234375 43.76094055175781 94.73307800292969 C 80.38217163085938 142.13864135742188 119.1015853881836 74.4818115234375 253.56808471679688 76.29525756835938 C 359.7423095703125 87.53538513183594 344.0000915527344 31.286376953125 342.119873046875 65.92163848876953" stroke-width="0.0" fill="rgb(0, 195, 2)" opacity="0.93762344" stroke="rgb(0, 0, 0)" stroke-opacity="1.0" stroke-linecap="round" stroke-linejoin="round"/>
    <path d="M 413.93182373046875 400.62689208984375 C 313.9013366699219 499.599609375 465.9292907714844 269.205322265625 347.4804992675781 314.16302490234375 C 353.27410888671875 302.8195495605469 463.82208251953125 418.2940368652344 187.86009216308594 484.1348876953125 C 153.69131469726562 242.9998016357422 261.8207092285156 177.58021545410156 284.88140869140625 350.67462158203125 C 453.5054626464844 292.5744934082031 475.68231201171875 258.8793640136719 413.93182373046875 400.62689208984375" stroke-width="0.0" fill="rgb(0, 0, 60)" opacity="1.0" stroke="rgb(0, 0, 0)" stroke-opacity="1.0" stroke-linecap="round" stroke-linejoin="round"/>
    <path d="M 534.8027954101562 150.4931640625 C 543.6019897460938 320.09478759765625 563.1994018554688 343.2150573730469 511.8852844238281 254.81581115722656 C 367.6904296875 262.0202941894531 339.1473388671875 330.8758544921875 399.4581298828125 260.8609313964844 C 291.2821350097656 184.08633422851562 426.117919921875 203.43939208984375 575.4203491210938 136.98025512695312 C 563.2000122070312 68.05618286132812 563.2000122070312 90.89309692382812 534.8027954101562 150.4931640625" stroke-width="0.0" fill="rgb(39, 238, 109)" opacity="0.9367448" stroke="rgb(0, 0, 0)" stroke-opacity="1.0" stroke-linecap="round" stroke-linejoin="round"/>
    <path d="M 248.29476928710938 195.27728271484375 C 294.1349792480469 291.84490966796875 288.15106201171875 280.6361083984375 289.39056396484375 291.4854736328125 C 276.0729675292969 284.77777099609375 257.982666015625 295.2980651855469 254.66859436035156 238.43679809570312 C 310.1098327636719 270.4661560058594 292.9831848144531 249.94064331054688 276.2014465332031 326.99658203125 C 294.3061828613281 244.13357543945312 274.36956787109375 236.64703369140625 248.29476928710938 195.27728271484375" stroke-width="0.0" fill="rgb(123, 98, 8)" opacity="0.40018925" stroke="rgb(0, 0, 0)" stroke-opacity="1.0" stroke-linecap="round" stroke-linejoin="round"/>
    <path d="M 216.9280242919922 81.17060852050781 C 74.5428466796875 30.182811737060547 -13.863064765930176 122.96820068359375 129.64244079589844 160.24342346191406 C 226.08212280273438 349.3990173339844 6.389742374420166 372.717529296875 -4.463399410247803 245.88955688476562 C -34.990760803222656 -14.439041137695312 -27.00482177734375 -24.470155715942383 150.55596923828125 -62.95819091796875 C 299.7155456542969 -47.55181121826172 399.8736267089844 55.98335647583008 216.9280242919922 81.17060852050781" stroke-width="0.0" fill="rgb(252, 29, 25)" opacity="1.0" stroke="rgb(0, 0, 0)" stroke-opacity="1.0" stroke-linecap="round" stroke-linejoin="round"/>
    <path d="M 505.7909851074219 237.8925018310547 C 469.5124206542969 236.36636352539062 385.99267578125 301.90911865234375 418.9162902832031 297.9265441894531 C 250.7633819580078 358.0949401855469 476.9493103027344 344.80340576171875 286.6711730957031 292.02734375 C 416.6516418457031 170.50025939941406 350.7901611328125 69.97222137451172 380.93841552734375 143.51699829101562 C 312.473876953125 306.0412902832031 331.461181640625 281.17169189453125 505.7909851074219 237.8925018310547" stroke-width="0.0" fill="rgb(247, 0, 125)" opacity="1.0" stroke="rgb(0, 0, 0)" stroke-opacity="1.0" stroke-linecap="round" stroke-linejoin="round"/>
    <path d="M 455.7640686035156 2.2723207473754883 C 401.7782287597656 247.815185546875 304.6299743652344 198.80288696289062 236.0605010986328 227.54110717773438 C 240.90396118164062 183.15261840820312 306.6670227050781 183.01368713378906 345.4844665527344 149.41885375976562 C 310.1837158203125 113.66651153564453 324.30657958984375 75.33950805664062 240.71188354492188 73.97474670410156 C 152.07467651367188 30.215229034423828 227.53338623046875 -54.813560485839844 455.7640686035156 2.2723207473754883" stroke-width="0.0" fill="rgb(255, 31, 22)" opacity="0.94475543" stroke="rgb(0, 0, 0)" stroke-opacity="1.0" stroke-linecap="round" stroke-linejoin="round"/>
    <path d="M 277.62481689453125 419.2465515136719 C 526.8782348632812 381.8013000488281 269.9607238769531 522.9962158203125 171.056640625 426.9617004394531 C 223.92852783203125 445.38250732421875 144.27725219726562 447.546142578125 134.89959716796875 343.7006530761719 C 160.21873474121094 212.30101013183594 181.86410522460938 472.5956726074219 143.7659454345703 229.56451416015625 C 262.70819091796875 137.7919464111328 80.70149993896484 411.6888122558594 277.62481689453125 419.2465515136719" stroke-width="0.0" fill="rgb(107, 233, 48)" opacity="0.9400106" stroke="rgb(0, 0, 0)" stroke-opacity="1.0" stroke-linecap="round" stroke-linejoin="round"/>
    <path d="M 568.782470703125 169.79428100585938 C 561.02685546875 457.6801452636719 545.52490234375 496.2996826171875 463.67645263671875 464.8552551269531 C 370.5616455078125 395.55133056640625 442.12957763671875 406.5638427734375 422.4066467285156 311.9413146972656 C 424.2789001464844 163.11659240722656 455.0489501953125 305.9163513183594 414.3414611816406 151.88156127929688 C 430.3324890136719 111.97569274902344 562.2112426757812 117.60530853271484 568.782470703125 169.79428100585938" stroke-width="0.0" fill="rgb(254, 32, 24)" opacity="1.0" stroke="rgb(0, 0, 0)" stroke-opacity="1.0" stroke-linecap="round" stroke-linejoin="round"/>
    <path d="M 543.515625 475.4486083984375 C 529.5440673828125 514.3981323242188 520.1913452148438 527.753662109375 347.3792419433594 517.3753051757812 C 278.77734375 444.3925476074219 307.516357421875 457.0948486328125 370.508056640625 429.7381896972656 C 423.7268371582031 398.6895446777344 418.608154296875 373.21588134765625 447.88629150390625 326.9778137207031 C 482.0161437988281 375.367919921875 495.5312194824219 391.48358154296875 543.515625 475.4486083984375" stroke-width="0.0" fill="rgb(251, 34, 25)" opacity="0.98175216" stroke="rgb(0, 0, 0)" stroke-opacity="1.0" stroke-linecap="round" stroke-linejoin="round"/>
    <path d="M 377.5638122558594 326.17724609375 C 404.7179870605469 296.9515075683594 278.68994140625 286.08160400390625 385.75579833984375 367.3979187011719 C 337.8684997558594 478.2493591308594 178.98526000976562 461.2577819824219 188.02122497558594 367.9099426269531 C 169.0621795654297 339.1726989746094 155.4915008544922 328.6427917480469 185.2425537109375 332.10302734375 C 166.6515655517578 422.298583984375 342.793212890625 435.0999450683594 377.5638122558594 326.17724609375" stroke-width="0.0" fill="rgb(60, 228, 44)" opacity="1.0" stroke="rgb(0, 0, 0)" stroke-opacity="1.0" stroke-linecap="round" stroke-linejoin="round"/>
    <path d="M 242.46585083007812 288.3569641113281 C 188.66580200195312 303.3978576660156 204.6929473876953 306.0348815917969 176.06610107421875 338.5895690917969 C 176.36874389648438 291.2254943847656 189.286865234375 266.7800598144531 198.46929931640625 283.82318115234375 C 181.22702026367188 281.0345458984375 195.17218017578125 266.0316162109375 216.63455200195312 255.95167541503906 C 234.7555694580078 226.89688110351562 265.79510498046875 231.88211059570312 242.46585083007812 288.3569641113281" stroke-width="0.0" fill="rgb(109, 250, 28)" opacity="0.8490195" stroke="rgb(0, 0, 0)" stroke-opacity="1.0" stroke-linecap="round" stroke-linejoin="round"/>
    <path d="M 402.7500305175781 331.4403381347656 C 437.0215759277344 407.6678771972656 346.6256408691406 461.13714599609375 321.6167297363281 466.5692443847656 C 266.3341064453125 488.8317565917969 164.33547973632812 473.61993408203125 274.95196533203125 460.6983337402344 C 350.6388244628906 447.57958984375 366.6056213378906 413.0661926269531 399.17559814453125 394.1064147949219 C 340.58538818359375 489.3331298828125 443.0216979980469 308.669677734375 402.7500305175781 331.4403381347656" stroke-width="0.0" fill="rgb(0, 0, 61)" opacity="1.0" stroke="rgb(0, 0, 0)" stroke-opacity="1.0" stroke-linecap="round" stroke-linejoin="round"/>
    <path d="M 267.4802551269531 127.97262573242188 C 309.7809753417969 56.0884895324707 184.0050506591797 44.21025466918945 221.59461975097656 50.72562789916992 C 181.90737915039062 72.63593292236328 160.79798889160156 90.0828628540039 179.48162841796875 70.59371948242188 C 165.44322204589844 72.10382843017578 200.40797424316406 67.68209075927734 182.7050018310547 75.33040618896484 C 72.86378479003906 88.73328399658203 201.22494506835938 55.07181167602539 267.4802551269531 127.97262573242188" stroke-width="0.0" fill="rgb(0, 0, 49)" opacity="0.9780831" stroke="rgb(0, 0, 0)" stroke-opacity="1.0" stroke-linecap="round" stroke-linejoin="round"/>
    <path d="M 266.80364990234375 475.37408447265625 C 293.2537841796875 552.2745971679688 245.41250610351562 578.15087890625 158.21920776367188 560.4620361328125 C -49.01333236694336 521.1326904296875 -42.92496109008789 500.47503662109375 -37.302276611328125 407.1521911621094 C -49.8102912902832 297.2443542480469 -61.742671966552734 257.6859130859375 31.10760498046875 279.47943115234375 C 132.77955627441406 274.221923828125 85.36872100830078 459.6742248535156 266.80364990234375 475.37408447265625" stroke-width="0.0" fill="rgb(245, 30, 26)" opacity="1.0" stroke="rgb(0, 0, 0)" stroke-opacity="1.0" stroke-linecap="round" stroke-linejoin="round"/>
    <path d="M 326.498779296875 349.4140930175781 C 286.30804443359375 410.7135925292969 232.8301239013672 386.0497131347656 244.46966552734375 374.9689025878906 C 256.9325256347656 353.5632019042969 279.3884582519531 344.92913818359375 277.610107421875 378.5597839355469 C 243.98939514160156 402.1827697753906 154.6446990966797 354.8104248046875 229.9647674560547 313.10723876953125 C 300.33892822265625 295.2358093261719 296.4500427246094 327.9775085449219 326.498779296875 349.4140930175781" stroke-width="0.0" fill="rgb(254, 1, 21)" opacity="0.99993867" stroke="rgb(0, 0, 0)" stroke-opacity="1.0" stroke-linecap="round" stroke-linejoin="round"/>
    <path d="M 430.7990417480469 175.116943359375 C 330.19000244140625 92.29785919189453 383.06793212890625 129.6419219970703 381.6338195800781 195.827880859375 C 363.25244140625 177.40118408203125 354.65045166015625 205.96728515625 342.0595703125 201.22097778320312 C 356.2492370605469 229.3521270751953 378.9266357421875 215.0586700439453 355.6670837402344 193.7410125732422 C 378.836669921875 202.47683715820312 400.3691711425781 158.738525390625 430.7990417480469 175.116943359375" stroke-width="0.0" fill="rgb(223, 11, 4)" opacity="0.0075628483" stroke="rgb(0, 0, 0)" stroke-opacity="1.0" stroke-linecap="round" stroke-linejoin="round"/>
    <path d="M 444.0066833496094 239.83729553222656 C 447.3621826171875 205.54983520507812 428.5562438964844 300.1024475097656 364.34320068359375 269.800048828125 C 450.93280029296875 285.9817199707031 507.0644836425781 216.9069061279297 391.3223571777344 277.592529296875 C 477.0953369140625 247.46824645996094 419.20831298828125 199.97850036621094 436.2119445800781 205.87831115722656 C 444.3267517089844 263.6571350097656 394.7733154296875 247.9112548828125 444.0066833496094 239.83729553222656" stroke-width="0.0" fill="rgb(94, 168, 3)" opacity="0.015480375" stroke="rgb(0, 0, 0)" stroke-opacity="1.0" stroke-linecap="round" stroke-linejoin="round"/>
    <path d="M 118.17044830322266 252.97686767578125 C 133.94610595703125 283.1780700683594 128.18701171875 320.512939453125 142.11175537109375 423.7580871582031 C 25.007062911987305 384.757080078125 2.1750683784484863 335.39447021484375 -8.521722793579102 267.03167724609375 C 85.5675048828125 265.37628173828125 59.272621154785156 191.89620971679688 95.91382598876953 162.65455627441406 C 108.55499267578125 216.8511199951172 111.88024139404297 273.8197937011719 118.17044830322266 252.97686767578125" stroke-width="0.0" fill="rgb(254, 26, 23)" opacity="0.9988543" stroke="rgb(0, 0, 0)" stroke-opacity="1.0" stroke-linecap="round" stroke-linejoin="round"/>
    <path d="M 371.67120361328125 264.8820495605469 C 309.1703186035156 295.01165771484375 295.41937255859375 205.0221710205078 289.31121826171875 188.97976684570312 C 294.8763427734375 159.35202026367188 260.5257263183594 146.98182678222656 264.33349609375 178.2870635986328 C 268.0198059082031 157.7509307861328 284.0197448730469 149.9630126953125 296.79058837890625 148.917724609375 C 304.5101013183594 131.79481506347656 393.71246337890625 124.92195892333984 371.67120361328125 264.8820495605469" stroke-width="0.0" fill="rgb(27, 237, 86)" opacity="0.9848285" stroke="rgb(0, 0, 0)" stroke-opacity="1.0" stroke-linecap="round" stroke-linejoin="round"/>
    <path d="M 213.91368103027344 97.06790161132812 C 192.22003173828125 106.51144409179688 198.57608032226562 129.44998168945312 232.0864715576172 88.1507797241211 C 90.7801513671875 47.713844299316406 100.08467102050781 192.77407836914062 79.40721893310547 151.95767211914062 C 148.68096923828125 54.855098724365234 245.9023895263672 102.81840515136719 207.61785888671875 101.668212890625 C 208.83106994628906 94.54922485351562 224.16688537597656 105.80599975585938 213.91368103027344 97.06790161132812" stroke-width="0.0" fill="rgb(106, 218, 158)" opacity="0.70856327" stroke="rgb(0, 0, 0)" stroke-opacity="1.0" stroke-linecap="round" stroke-linejoin="round"/>
    <path d="M 112.4946060180664 109.51752471923828 C 115.12467956542969 147.42584228515625 103.88904571533203 180.78375244140625 124.03411102294922 159.3384552001953 C 109.75763702392578 125.88510131835938 97.89649963378906 127.30684661865234 98.9560546875 130.7168731689453 C 37.501014709472656 200.86265563964844 69.46504974365234 39.4116096496582 228.44119262695312 100.95248413085938 C 83.97265625 116.24345397949219 84.24212646484375 112.07743072509766 112.4946060180664 109.51752471923828" stroke-width="0.0" fill="rgb(150, 0, 12)" opacity="0.99254954" stroke="rgb(0, 0, 0)" stroke-opacity="1.0" stroke-linecap="round" stroke-linejoin="round"/>
    <path d="M 344.2559814453125 251.35569763183594 C 289.4080505371094 292.16802978515625 316.39605712890625 303.25 261.34765625 294.2276916503906 C 218.4757080078125 280.4020690917969 248.6944122314453 232.919677734375 228.96896362304688 211.71055603027344 C 219.28485107421875 230.13351440429688 239.49740600585938 222.7764892578125 257.8448486328125 224.77835083007812 C 248.40013122558594 236.8675994873047 315.4156494140625 221.21640014648438 344.2559814453125 251.35569763183594" stroke-width="0.0" fill="rgb(31, 230, 103)" opacity="0.99700004" stroke="rgb(0, 0, 0)" stroke-opacity="1.0" stroke-linecap="round" stroke-linejoin="round"/>
    <path d="M 270.38665771484375 237.6739501953125 C 220.91305541992188 252.69764709472656 196.18746948242188 78.7469711303711 206.9683380126953 159.61256408691406 C 237.20074462890625 229.13180541992188 172.38589477539062 314.2767333984375 102.88003540039062 98.10484313964844 C 167.6332244873047 36.58427810668945 243.97007751464844 94.09319305419922 217.45616149902344 130.23097229003906 C 247.13009643554688 49.572261810302734 193.7679901123047 125.02218627929688 270.38665771484375 237.6739501953125" stroke-width="0.0" fill="rgb(164, 228, 59)" opacity="0.52163875" stroke="rgb(0, 0, 0)" stroke-opacity="1.0" stroke-linecap="round" stroke-linejoin="round"/>
    <path d="M 389.06121826171875 394.0113830566406 C 340.3215637207031 280.9806823730469 292.91119384765625 366.8052062988281 321.2252502441406 354.47509765625 C 281.4081115722656 351.0177001953125 281.778076171875 332.4427795410156 294.02423095703125 341.8028259277344 C 285.42938232421875 324.86578369140625 301.7516784667969 298.38751220703125 324.9217834472656 360.52752685546875 C 288.550048828125 301.5019226074219 489.85546875 282.5050354003906 389.06121826171875 394.0113830566406" stroke-width="0.0" fill="rgb(71, 220, 117)" opacity="0.9850294" stroke="rgb(0, 0, 0)" stroke-opacity="1.0" stroke-linecap="round" stroke-linejoin="round"/>
    <path d="M 7.6602020263671875 523.527099609375 C 16.928863525390625 520.4954833984375 10.451606750488281 527.2847900390625 0.7705464363098145 530.8681030273438 C -9.364206314086914 527.7437133789062 -16.68471336364746 520.4232177734375 -19.53505516052246 510.3761291503906 C -16.513290405273438 500.47222900390625 -9.497283935546875 493.1925964355469 -12.406676292419434 503.4660339355469 C -4.264515399932861 507.9687805175781 3.0665524005889893 515.3460693359375 7.6602020263671875 523.527099609375" stroke-width="0.0" fill="rgb(253, 10, 0)" opacity="0.1198675" stroke="rgb(0, 0, 0)" stroke-opacity="1.0" stroke-linecap="round" stroke-linejoin="round"/>
    <path d="M 175.5958709716797 231.65431213378906 C 186.56781005859375 374.87603759765625 154.44281005859375 389.631591796875 126.35189819335938 332.98895263671875 C 132.33087158203125 268.4736022949219 152.76251220703125 251.34474182128906 145.9346160888672 195.48065185546875 C 78.05204010009766 113.00972747802734 22.110387802124023 97.31314849853516 75.71407318115234 95.83438873291016 C 131.39503479003906 182.57920837402344 176.08309936523438 186.70114135742188 175.5958709716797 231.65431213378906" stroke-width="0.0" fill="rgb(111, 134, 58)" opacity="0.66475064" stroke="rgb(0, 0, 0)" stroke-opacity="1.0" stroke-linecap="round" stroke-linejoin="round"/>
    <path d="M 333.4799499511719 359.5886535644531 C 281.96051025390625 386.5784912109375 259.9411315917969 313.3927917480469 298.86297607421875 299.2671203613281 C 304.5423278808594 307.1321716308594 289.51202392578125 307.9333190917969 278.23175048828125 308.5147705078125 C 240.69874572753906 296.9913330078125 260.5219421386719 265.2481994628906 317.77899169921875 267.24127197265625 C 282.5733642578125 339.3912048339844 376.168701171875 317.8134765625 333.4799499511719 359.5886535644531" stroke-width="0.0" fill="rgb(65, 224, 102)" opacity="1.0" stroke="rgb(0, 0, 0)" stroke-opacity="1.0" stroke-linecap="round" stroke-linejoin="round"/>
    <path d="M 282.3605651855469 175.3763427734375 C 271.7639465332031 215.25869750976562 257.15118408203125 257.9895324707031 150.4223175048828 252.38221740722656 C 208.79244995117188 153.73487854003906 247.1784210205078 126.65863800048828 215.2925567626953 108.61383819580078 C 210.9964141845703 96.84881591796875 220.87120056152344 75.29357147216797 163.98963928222656 73.01888275146484 C 191.72642517089844 78.62705993652344 246.3287811279297 103.8891372680664 282.3605651855469 175.3763427734375" stroke-width="0.0" fill="rgb(248, 23, 20)" opacity="0.94985956" stroke="rgb(0, 0, 0)" stroke-opacity="1.0" stroke-linecap="round" stroke-linejoin="round"/>
    <path d="M 310.5808410644531 408.4808044433594 C 231.08726501464844 406.66412353515625 257.48358154296875 405.24407958984375 259.7751770019531 411.6922302246094 C 221.41549682617188 461.87677001953125 184.1713409423828 377.0182189941406 166.73013305664062 298.6296691894531 C 135.07546997070312 414.8462829589844 262.63787841796875 427.0126953125 199.911376953125 412.0350036621094 C 231.33502197265625 409.1742248535156 228.0424346923828 404.33831787109375 310.5808410644531 408.4808044433594" stroke-width="0.0" fill="rgb(94, 208, 52)" opacity="0.85883045" stroke="rgb(0, 0, 0)" stroke-opacity="1.0" stroke-linecap="round" stroke-linejoin="round"/>
    <path d="M 150.26864624023438 239.576904296875 C 142.7550048828125 266.78265380859375 152.46656799316406 276.3121032714844 170.8876953125 335.8015441894531 C 119.6212158203125 351.2428894042969 132.0102996826172 291.072265625 144.33444213867188 258.13421630859375 C 133.00054931640625 116.77606201171875 61.12574005126953 157.30010986328125 87.66719818115234 128.4857635498047 C 191.1993865966797 178.33827209472656 158.55496215820312 319.3401184082031 150.26864624023438 239.576904296875" stroke-width="0.0" fill="rgb(203, 135, 78)" opacity="0.15519817" stroke="rgb(0, 0, 0)" stroke-opacity="1.0" stroke-linecap="round" stroke-linejoin="round"/>
    <path d="M 265.4976501464844 106.4684066772461 C 263.08782958984375 140.39779663085938 249.94383239746094 162.95567321777344 201.77789306640625 173.0508575439453 C 183.60995483398438 136.39549255371094 186.25250244140625 92.67528533935547 174.35670471191406 95.12062072753906 C 126.02621459960938 117.89978790283203 127.17378234863281 110.41217803955078 129.41220092773438 75.21976470947266 C 224.38511657714844 63.81793975830078 258.3616943359375 60.43388366699219 265.4976501464844 106.4684066772461" stroke-width="0.0" fill="rgb(48, 255, 37)" opacity="1.0" stroke="rgb(0, 0, 0)" stroke-opacity="1.0" stroke-linecap="round" stroke-linejoin="round"/>
    <path d="M 456.8450622558594 298.7352600097656 C 458.9053039550781 283.6955261230469 456.1260681152344 315.6873779296875 422.8435974121094 326.1451721191406 C 375.130859375 325.9301452636719 385.816650390625 320.63787841796875 403.2551574707031 290.2425537109375 C 347.5859375 256.6895751953125 372.05194091796875 242.91574096679688 422.012451171875 248.9335174560547 C 439.438232421875 255.75567626953125 456.3457946777344 265.0348815917969 456.8450622558594 298.7352600097656" stroke-width="0.0" fill="rgb(64, 237, 108)" opacity="0.97982395" stroke="rgb(0, 0, 0)" stroke-opacity="1.0" stroke-linecap="round" stroke-linejoin="round"/>
    <path d="M 291.36590576171875 420.8017272949219 C 280.8484802246094 411.4599609375 258.3910217285156 409.89215087890625 293.7183532714844 410.0533752441406 C 250.38812255859375 405.8775939941406 235.4459686279297 398.98663330078125 195.1542205810547 399.4870910644531 C 210.8236083984375 400.0069885253906 212.66290283203125 387.4054260253906 225.9021453857422 442.23974609375 C 259.5662841796875 437.47601318359375 297.1318054199219 435.3443908691406 291.36590576171875 420.8017272949219" stroke-width="0.0" fill="rgb(52, 226, 39)" opacity="0.9827178" stroke="rgb(0, 0, 0)" stroke-opacity="1.0" stroke-linecap="round" stroke-linejoin="round"/>
    <path d="M 365.9461364746094 285.950927734375 C 331.5405578613281 265.37530517578125 324.00225830078125 273.07763671875 347.3905944824219 282.9540100097656 C 305.6430969238281 295.29779052734375 279.3233337402344 286.5649108886719 321.60992431640625 273.9224548339844 C 299.7513122558594 223.86642456054688 339.085205078125 207.7859649658203 357.2816162109375 245.39956665039062 C 388.6640930175781 211.2123260498047 425.7353210449219 233.45864868164062 365.9461364746094 285.950927734375" stroke-width="0.0" fill="rgb(206, 0, 106)" opacity="1.0" stroke="rgb(0, 0, 0)" stroke-opacity="1.0" stroke-linecap="round" stroke-linejoin="round"/>
    <path d="M 186.61563110351562 290.9965515136719 C 211.17623901367188 304.3009033203125 230.4862060546875 254.48886108398438 165.88143920898438 265.4865417480469 C 159.4759063720703 277.6293029785156 145.2606201171875 287.8343811035156 147.85035705566406 288.622802734375 C 127.55142211914062 300.8822937011719 129.15113830566406 322.29913330078125 173.15716552734375 323.7698669433594 C 200.89666748046875 263.87628173828125 178.50128173828125 286.6807556152344 186.61563110351562 290.9965515136719" stroke-width="0.0" fill="rgb(9, 246, 45)" opacity="0.95536137" stroke="rgb(0, 0, 0)" stroke-opacity="1.0" stroke-linecap="round" stroke-linejoin="round"/>
    <path d="M 275.5700988769531 416.3003234863281 C 288.5509948730469 404.5884094238281 281.4568786621094 398.96759033203125 247.5127716064453 422.20709228515625 C 270.95062255859375 451.8887634277344 294.4598693847656 417.4375305175781 296.60394287109375 406.92327880859375 C 257.1105041503906 415.4700927734375 265.63421630859375 397.3534851074219 243.2384796142578 414.4688720703125 C 259.45770263671875 416.72796630859375 281.6351623535156 413.9097900390625 275.5700988769531 416.3003234863281" stroke-width="0.0" fill="rgb(30, 170, 33)" opacity="0.5296346" stroke="rgb(0, 0, 0)" stroke-opacity="1.0" stroke-linecap="round" stroke-linejoin="round"/>
    <path d="M 382.5810852050781 399.0739440917969 C 372.8858337402344 403.6470642089844 363.98828125 420.0988464355469 358.58306884765625 414.9641418457031 C 379.6581726074219 403.6916809082031 381.6507873535156 423.1521911621094 333.38507080078125 420.74658203125 C 332.02679443359375 371.80487060546875 358.1391906738281 381.3078918457031 396.6205749511719 383.4586486816406 C 415.1800537109375 348.114501953125 408.0333251953125 379.7093811035156 382.5810852050781 399.0739440917969" stroke-width="0.0" fill="rgb(86, 236, 9)" opacity="0.8644591" stroke="rgb(0, 0, 0)" stroke-opacity="1.0" stroke-linecap="round" stroke-linejoin="round"/>
    <path d="M 381.7139892578125 -7.334151744842529 C 383.9175109863281 34.31214904785156 395.37127685546875 38.89765548706055 368.5054626464844 32.16634750366211 C 317.690185546875 41.15530776977539 324.5225830078125 28.32750701904297 319.0282897949219 16.317169189453125 C 319.7767028808594 13.923698425292969 305.81494140625 -0.278143048286438 325.4070739746094 -16.61087417602539 C 327.5946350097656 -4.960123062133789 339.3320007324219 -2.292118787765503 381.7139892578125 -7.334151744842529" stroke-width="0.0" fill="rgb(203, 91, 7)" opacity="0.011538036" stroke="rgb(0, 0, 0)" stroke-opacity="1.0" stroke-linecap="round" stroke-linejoin="round"/>
    <path d="M 152.1744384765625 149.93482971191406 C 185.53607177734375 181.12887573242188 124.55874633789062 181.83676147460938 80.88146209716797 158.13143920898438 C 99.8460922241211 158.31845092773438 78.84388732910156 161.87548828125 71.1405258178711 148.5026092529297 C 56.51628494262695 136.97332763671875 66.12126922607422 105.1881332397461 72.38993072509766 105.0621337890625 C 80.49756622314453 148.13938903808594 78.99817657470703 140.68983459472656 152.1744384765625 149.93482971191406" stroke-width="0.0" fill="rgb(255, 255, 125)" opacity="1.0" stroke="rgb(0, 0, 0)" stroke-opacity="1.0" stroke-linecap="round" stroke-linejoin="round"/>
    <path d="M 413.267333984375 359.2054748535156 C 381.3305358886719 331.4916076660156 385.9064636230469 301.49420166015625 378.1877746582031 326.6163024902344 C 350.0128479003906 338.568359375 369.82769775390625 310.847900390625 365.95074462890625 312.3807373046875 C 376.5376281738281 308.2038879394531 378.6903076171875 300.3569030761719 389.37109375 319.18597412109375 C 425.8253479003906 300.3739929199219 437.37896728515625 331.6172180175781 413.267333984375 359.2054748535156" stroke-width="0.0" fill="rgb(48, 215, 103)" opacity="0.8626306" stroke="rgb(0, 0, 0)" stroke-opacity="1.0" stroke-linecap="round" stroke-linejoin="round"/>
    <path d="M 296.54962158203125 445.9208679199219 C 290.2445983886719 457.0252685546875 285.32208251953125 466.0173645019531 275.0185241699219 451.6394348144531 C 248.99066162109375 447.4209289550781 267.3307189941406 440.6620788574219 283.78515625 419.5659484863281 C 312.8584289550781 415.1495361328125 329.8458557128906 441.7208557128906 291.74395751953125 453.763427734375 C 269.0167541503906 448.05133056640625 277.59173583984375 454.0094299316406 296.54962158203125 445.9208679199219" stroke-width="0.0" fill="rgb(141, 253, 59)" opacity="0.7065775" stroke="rgb(0, 0, 0)" stroke-opacity="1.0" stroke-linecap="round" stroke-linejoin="round"/>
    <path d="M 278.23089599609375 294.2767028808594 C 277.0510559082031 294.3144836425781 296.51495361328125 297.9651184082031 254.22662353515625 300.10064697265625 C 236.45252990722656 291.6632385253906 232.63189697265625 275.1839904785156 238.14854431152344 279.2451171875 C 218.2252655029297 262.207275390625 231.9129638671875 269.42034912109375 228.73646545410156 262.2152099609375 C 231.1092071533203 286.9902648925781 253.98748779296875 290.34326171875 278.23089599609375 294.2767028808594" stroke-width="0.0" fill="rgb(49, 15, 21)" opacity="0.0" stroke="rgb(0, 0, 0)" stroke-opacity="1.0" stroke-linecap="round" stroke-linejoin="round"/>
    <path d="M 158.89697265625 324.7627868652344 C 182.92404174804688 367.59124755859375 172.34622192382812 362.0886535644531 164.26316833496094 420.1242980957031 C 120.46011352539062 405.33282470703125 117.67317962646484 346.7218933105469 133.7684326171875 305.63372802734375 C 190.25498962402344 323.3650207519531 162.26914978027344 349.49639892578125 157.62356567382812 348.3336486816406 C 151.9263916015625 339.5105895996094 152.6010284423828 339.3534851074219 158.89697265625 324.7627868652344" stroke-width="0.0" fill="rgb(27, 232, 36)" opacity="0.9781643" stroke="rgb(0, 0, 0)" stroke-opacity="1.0" stroke-linecap="round" stroke-linejoin="round"/>
    <path d="M 437.3791809082031 143.59007263183594 C 452.355712890625 161.72927856445312 444.8789978027344 158.95533752441406 426.06390380859375 156.23243713378906 C 423.4752197265625 173.35211181640625 443.46368408203125 193.04347229003906 451.5658264160156 163.99993896484375 C 412.14019775390625 148.88345336914062 429.0386962890625 146.08639526367188 432.13885498046875 156.5334014892578 C 421.86297607421875 145.3628692626953 440.5586242675781 138.87445068359375 437.3791809082031 143.59007263183594" stroke-width="0.0" fill="rgb(189, 67, 24)" opacity="0.0" stroke="rgb(0, 0, 0)" stroke-opacity="1.0" stroke-linecap="round" stroke-linejoin="round"/>
    <path d="M 93.46318054199219 464.5534362792969 C 91.32506561279297 492.4513244628906 81.38858795166016 484.1932067871094 75.5732421875 470.61602783203125 C 72.1824722290039 471.25640869140625 67.02653503417969 459.8744201660156 70.63862609863281 459.8848876953125 C 64.32533264160156 457.28387451171875 61.175880432128906 435.7904357910156 62.53296661376953 450.5522155761719 C 83.01481628417969 448.3936462402344 85.93159484863281 452.87908935546875 93.46318054199219 464.5534362792969" stroke-width="0.0" fill="rgb(233, 37, 32)" opacity="0.03963361" stroke="rgb(0, 0, 0)" stroke-opacity="1.0" stroke-linecap="round" stroke-linejoin="round"/>
    <path d="M 138.17015075683594 140.4931182861328 C 101.20320129394531 146.37533569335938 77.17635345458984 116.92176818847656 97.22706604003906 130.65684509277344 C 74.01604461669922 147.05714416503906 45.897666931152344 126.54551696777344 86.40115356445312 134.51849365234375 C 45.77928161621094 134.6857147216797 54.7799072265625 114.05445861816406 62.87507629394531 100.238525390625 C 99.83261108398438 93.23790740966797 127.6754150390625 96.6380615234375 138.17015075683594 140.4931182861328" stroke-width="0.0" fill="rgb(55, 242, 47)" opacity="1.0" stroke="rgb(0, 0, 0)" stroke-opacity="1.0" stroke-linecap="round" stroke-linejoin="round"/>
    <path d="M 349.3408203125 97.46324920654297 C 346.59710693359375 92.10326385498047 342.8289794921875 98.76923370361328 337.513671875 95.0960693359375 C 328.9584045410156 96.11658477783203 316.2394714355469 84.3900375366211 307.1817321777344 82.57159423828125 C 317.4004821777344 93.44570922851562 323.4476013183594 85.61367797851562 320.374267578125 84.02561950683594 C 322.4908752441406 94.72683715820312 339.37469482421875 97.83464050292969 349.3408203125 97.46324920654297" stroke-width="0.0" fill="rgb(204, 40, 40)" opacity="0.0" stroke="rgb(0, 0, 0)" stroke-opacity="1.0" stroke-linecap="round" stroke-linejoin="round"/>
    <path d="M 466.9899597167969 476.3389892578125 C 504.0003356933594 503.6054992675781 518.7429809570312 530.340576171875 395.2745361328125 577.9703369140625 C 390.73907470703125 531.71533203125 395.027587890625 472.70703125 401.5462646484375 490.5637512207031 C 431.92852783203125 477.31390380859375 433.70758056640625 457.9270935058594 434.57855224609375 467.92230224609375 C 426.39044189453125 470.1060485839844 443.86456298828125 458.18048095703125 466.9899597167969 476.3389892578125" stroke-width="0.0" fill="rgb(204, 71, 16)" opacity="0.10117072" stroke="rgb(0, 0, 0)" stroke-opacity="1.0" stroke-linecap="round" stroke-linejoin="round"/>
    <path d="M 454.88153076171875 -10.710593223571777 C 478.9453430175781 -0.3689110279083252 476.3786926269531 -9.833974838256836 476.9161071777344 21.237281799316406 C 459.3878173828125 17.560359954833984 442.8368835449219 9.60960865020752 461.47308349609375 2.767322540283203 C 453.1253967285156 -36.07185745239258 462.01605224609375 -29.6916446685791 469.12347412109375 -25.198558807373047 C 451.8371276855469 -31.86245346069336 460.9497375488281 -25.330493927001953 454.88153076171875 -10.710593223571777" stroke-width="0.0" fill="rgb(206, 109, 11)" opacity="0.0151652815" stroke="rgb(0, 0, 0)" stroke-opacity="1.0" stroke-linecap="round" stroke-linejoin="round"/>
    <path d="M 495.243408203125 16.65702247619629 C 532.3788452148438 47.21840286254883 533.5357055664062 57.32522201538086 523.7208251953125 47.96237564086914 C 449.9510498046875 40.327640533447266 430.8861083984375 35.648067474365234 432.1504821777344 19.551353454589844 C 422.7450866699219 -24.09369659423828 438.01568603515625 -22.719369888305664 476.5067443847656 -5.896483898162842 C 514.9747924804688 11.51251220703125 530.9099731445312 26.712167739868164 495.243408203125 16.65702247619629" stroke-width="0.0" fill="rgb(164, 99, 20)" opacity="0.03979695" stroke="rgb(0, 0, 0)" stroke-opacity="1.0" stroke-linecap="round" stroke-linejoin="round"/>
    <path d="M 84.2372817993164 318.5338134765625 C 92.72737121582031 394.23297119140625 96.59542083740234 393.2056884765625 25.899009704589844 385.1562805175781 C 12.326132774353027 354.53173828125 -4.225305557250977 353.6129455566406 -0.16886039078235626 326.65106201171875 C 0.6129467487335205 300.13677978515625 17.287349700927734 285.16278076171875 46.69841384887695 303.79144287109375 C 30.883092880249023 298.363525390625 42.18596267700195 302.0770568847656 84.2372817993164 318.5338134765625" stroke-width="0.0" fill="rgb(219, 49, 22)" opacity="0.12061158" stroke="rgb(0, 0, 0)" stroke-opacity="1.0" stroke-linecap="round" stroke-linejoin="round"/>
    <path d="M 227.5077667236328 459.1200256347656 C 226.6893310546875 469.836669921875 204.2856903076172 462.9607849121094 180.8836212158203 463.0968017578125 C 203.48089599609375 448.87811279296875 201.43341064453125 449.2849426269531 200.49513244628906 450.7540283203125 C 181.02059936523438 436.98919677734375 201.54238891601562 441.3406677246094 205.850830078125 451.46319580078125 C 229.72906494140625 423.373291015625 245.79383850097656 435.5285949707031 227.5077667236328 459.1200256347656" stroke-width="0.0" fill="rgb(67, 4, 73)" opacity="0.051264185" stroke="rgb(0, 0, 0)" stroke-opacity="1.0" stroke-linecap="round" stroke-linejoin="round"/>
    <path d="M 29.632558822631836 365.1394958496094 C 40.0909423828125 376.6529846191406 31.5042667388916 392.6123962402344 57.73554229736328 391.4337463378906 C 0.5142118334770203 400.9333801269531 7.018270015716553 393.32220458984375 12.537357330322266 359.8631896972656 C 3.9148550033569336 344.3731994628906 2.55340313911438 340.2389831542969 8.0527982711792 297.456787109375 C 33.69880676269531 335.38128662109375 43.2176513671875 357.39910888671875 29.632558822631836 365.1394958496094" stroke-width="0.0" fill="rgb(206, 64, 57)" opacity="0.040352456" stroke="rgb(0, 0, 0)" stroke-opacity="1.0" stroke-linecap="round" stroke-linejoin="round"/>
    <path d="M 185.40411376953125 450.7235107421875 C 181.45025634765625 446.2790222167969 183.46969604492188 456.882568359375 186.4215850830078 457.10296630859375 C 181.76841735839844 467.3670959472656 175.49783325195312 453.3489990234375 182.9790802001953 448.6983947753906 C 204.6963653564453 440.4011535644531 203.76739501953125 456.4920959472656 194.56817626953125 451.2591247558594 C 180.36761474609375 423.2342834472656 181.72299194335938 436.5924377441406 185.40411376953125 450.7235107421875" stroke-width="0.0" fill="rgb(12, 39, 111)" opacity="0.0005154272" stroke="rgb(0, 0, 0)" stroke-opacity="1.0" stroke-linecap="round" stroke-linejoin="round"/>
    <path d="M 383.25213623046875 225.10960388183594 C 371.6452331542969 214.19712829589844 350.3353576660156 217.03941345214844 346.9020690917969 224.06373596191406 C 355.01239013671875 222.8230438232422 342.49072265625 214.54066467285156 338.2985534667969 221.61363220214844 C 364.7444763183594 230.00393676757812 369.7749938964844 231.88174438476562 330.2285461425781 215.5836639404297 C 337.1053466796875 219.8821563720703 348.5912170410156 225.7488250732422 383.25213623046875 225.10960388183594" stroke-width="0.0" fill="rgb(37, 199, 91)" opacity="0.032779615" stroke="rgb(0, 0, 0)" stroke-opacity="1.0" stroke-linecap="round" stroke-linejoin="round"/>
    <path d="M 203.4689178466797 223.38946533203125 C 160.50518798828125 228.5654296875 172.43380737304688 278.4315185546875 155.94638061523438 270.2319030761719 C 160.9236297607422 276.5065612792969 139.3618621826172 290.72064208984375 144.203125 275.1905517578125 C 94.16706085205078 248.52630615234375 145.21180725097656 236.62852478027344 114.9666748046875 180.1555938720703 C 207.76905822753906 152.88607788085938 256.2835693359375 187.94801330566406 203.4689178466797 223.38946533203125" stroke-width="0.0" fill="rgb(255, 18, 30)" opacity="1.0" stroke="rgb(0, 0, 0)" stroke-opacity="1.0" stroke-linecap="round" stroke-linejoin="round"/>
    <path d="M 186.770263671875 430.9512634277344 C 180.80743408203125 418.36004638671875 173.50216674804688 423.905517578125 153.3224639892578 442.4308166503906 C 161.85446166992188 455.09661865234375 169.0725860595703 453.98822021484375 152.87420654296875 442.9523620605469 C 167.35093688964844 434.12359619140625 181.44581604003906 458.5944519042969 183.16314697265625 454.0384826660156 C 175.85726928710938 429.3180236816406 187.38229370117188 428.7636413574219 186.770263671875 430.9512634277344" stroke-width="0.0" fill="rgb(41, 9, 35)" opacity="0.0" stroke="rgb(0, 0, 0)" stroke-opacity="1.0" stroke-linecap="round" stroke-linejoin="round"/>
    <path d="M 518.7203369140625 243.91119384765625 C 520.8551635742188 259.589599609375 517.154052734375 270.87322998046875 522.4193725585938 256.13665771484375 C 494.2196960449219 250.36009216308594 512.4041748046875 235.0546417236328 476.5727844238281 227.109619140625 C 470.27471923828125 219.5137481689453 474.858642578125 199.83370971679688 481.652587890625 178.75404357910156 C 512.7383422851562 194.76937866210938 511.25262451171875 221.66973876953125 518.7203369140625 243.91119384765625" stroke-width="0.0" fill="rgb(245, 54, 54)" opacity="0.0051532187" stroke="rgb(0, 0, 0)" stroke-opacity="1.0" stroke-linecap="round" stroke-linejoin="round"/>
  </g>
</svg>
