<?xml version="1.0" ?>
<svg xmlns="http://www.w3.org/2000/svg" version="1.1" width="512" height="512">
  <defs/>
  <g>
    <path d="M 535.5916748046875 444.77325439453125 C 460.4515686035156 457.51385498046875 424.9902648925781 573.0596923828125 549.282958984375 572.546875 C 608.7559814453125 415.6486511230469 544.1119995117188 441.5968017578125 492.481201171875 437.49444580078125 C 461.0558166503906 465.3323059082031 462.27545166015625 454.8869323730469 467.2303771972656 413.3771057128906 C 510.20123291015625 401.68878173828125 538.6409301757812 404.3390197753906 535.5916748046875 444.77325439453125" stroke-width="0.0" fill="rgb(158, 110, 226)" opacity="0.3693914" stroke="rgb(0, 0, 0)" stroke-opacity="1.0" stroke-linecap="round" stroke-linejoin="round"/>
    <path d="M 268.9066467285156 520.335205078125 C 278.998046875 522.154052734375 193.44873046875 553.78125 121.73517608642578 430.2004089355469 C 19.03338050842285 415.0830078125 127.30244445800781 396.36376953125 -52.91087341308594 349.15228271484375 C 36.58567428588867 204.7497100830078 -47.54963302612305 276.91168212890625 -24.27223014831543 196.09539794921875 C 98.40476989746094 70.38809967041016 208.15016174316406 213.44070434570312 268.9066467285156 520.335205078125" stroke-width="0.0" fill="rgb(94, 191, 0)" opacity="0.99948055" stroke="rgb(0, 0, 0)" stroke-opacity="1.0" stroke-linecap="round" stroke-linejoin="round"/>
    <path d="M 417.0403747558594 126.83739471435547 C 448.5387268066406 331.996826171875 401.3516845703125 357.14300537109375 270.1124572753906 350.1583251953125 C 124.58270263671875 336.13372802734375 69.24378967285156 287.78924560546875 220.65281677246094 59.19736862182617 C 166.5264434814453 97.54367065429688 190.29039001464844 33.78582000732422 412.1480407714844 -2.1549785137176514 C 451.6875305175781 75.25846099853516 454.7012634277344 48.3589973449707 417.0403747558594 126.83739471435547" stroke-width="0.0" fill="rgb(88, 185, 5)" opacity="0.97892064" stroke="rgb(0, 0, 0)" stroke-opacity="1.0" stroke-linecap="round" stroke-linejoin="round"/>
    <path d="M 352.7091979980469 135.57286071777344 C 359.0849914550781 373.886474609375 278.1695861816406 411.48406982421875 177.74087524414062 344.7649230957031 C 67.8824234008789 266.55609130859375 11.112778663635254 318.65704345703125 57.193817138671875 156.35177612304688 C 40.167205810546875 66.97138977050781 156.42352294921875 84.37300109863281 148.28781127929688 27.177337646484375 C 219.8293914794922 -31.92503547668457 245.37196350097656 4.41554594039917 352.7091979980469 135.57286071777344" stroke-width="0.0" fill="rgb(254, 123, 151)" opacity="0.9559379" stroke="rgb(0, 0, 0)" stroke-opacity="1.0" stroke-linecap="round" stroke-linejoin="round"/>
    <path d="M 477.4226989746094 404.4886169433594 C 394.59454345703125 502.88629150390625 375.9869079589844 316.7688293457031 427.30621337890625 476.3102111816406 C 253.52867126464844 527.4476318359375 340.3525695800781 509.7713317871094 330.81170654296875 408.0353698730469 C 257.29595947265625 203.4827880859375 273.8356018066406 267.38616943359375 302.5963439941406 202.89988708496094 C 430.958984375 112.79674530029297 560.1729736328125 176.70571899414062 477.4226989746094 404.4886169433594" stroke-width="0.0" fill="rgb(204, 80, 247)" opacity="0.9060938" stroke="rgb(0, 0, 0)" stroke-opacity="1.0" stroke-linecap="round" stroke-linejoin="round"/>
    <path d="M 520.9526977539062 225.72259521484375 C 546.054443359375 317.6427917480469 479.7674560546875 241.0545654296875 563.1779174804688 366.47882080078125 C 440.6655578613281 445.21002197265625 248.77130126953125 336.9105224609375 440.8430480957031 198.2761688232422 C 331.9051513671875 200.92935180664062 384.42828369140625 121.40607452392578 400.8672790527344 125.55271911621094 C 447.8410949707031 185.37257385253906 484.21380615234375 158.19700622558594 520.9526977539062 225.72259521484375" stroke-width="0.0" fill="rgb(0, 76, 37)" opacity="1.0" stroke="rgb(0, 0, 0)" stroke-opacity="1.0" stroke-linecap="round" stroke-linejoin="round"/>
    <path d="M 415.7213439941406 201.39634704589844 C 310.08758544921875 262.18731689453125 305.9656677246094 262.4557800292969 273.1275939941406 281.6469421386719 C 235.36009216308594 292.9126281738281 306.2749328613281 325.3815612792969 73.73846435546875 191.57205200195312 C 327.734619140625 191.19039916992188 208.3506622314453 304.73773193359375 267.3446350097656 237.0731201171875 C 343.4692077636719 204.08148193359375 423.1190185546875 177.0047607421875 415.7213439941406 201.39634704589844" stroke-width="0.0" fill="rgb(44, 255, 0)" opacity="1.0" stroke="rgb(0, 0, 0)" stroke-opacity="1.0" stroke-linecap="round" stroke-linejoin="round"/>
    <path d="M 368.41119384765625 178.36715698242188 C 375.5897521972656 215.46112060546875 354.49993896484375 205.2859649658203 333.56640625 210.59523010253906 C 303.9061584472656 222.18670654296875 319.1663818359375 219.46954345703125 282.6814270019531 230.76808166503906 C 321.4726867675781 145.6597900390625 212.6358642578125 183.64617919921875 364.34490966796875 127.37760162353516 C 419.7314758300781 160.3164825439453 521.0258178710938 205.98861694335938 368.41119384765625 178.36715698242188" stroke-width="0.0" fill="rgb(66, 2, 126)" opacity="0.8299971" stroke="rgb(0, 0, 0)" stroke-opacity="1.0" stroke-linecap="round" stroke-linejoin="round"/>
    <path d="M 295.8360290527344 279.82977294921875 C 269.1474304199219 288.3424377441406 298.2314453125 258.53997802734375 252.538330078125 260.5237121582031 C 246.17803955078125 245.35581970214844 224.11260986328125 243.437744140625 151.3751983642578 192.6860809326172 C 232.331298828125 185.86936950683594 143.41055297851562 220.04774475097656 225.62124633789062 191.96719360351562 C 239.8769989013672 223.6168212890625 255.95599365234375 266.0104064941406 295.8360290527344 279.82977294921875" stroke-width="0.0" fill="rgb(249, 144, 133)" opacity="0.85505474" stroke="rgb(0, 0, 0)" stroke-opacity="1.0" stroke-linecap="round" stroke-linejoin="round"/>
    <path d="M 454.0646667480469 234.4988250732422 C 277.30865478515625 297.696044921875 546.9840698242188 231.69200134277344 456.6314392089844 385.06829833984375 C 194.1929473876953 381.5230407714844 213.44232177734375 381.8624572753906 254.52789306640625 378.04150390625 C 378.8585510253906 251.99179077148438 397.1811828613281 255.14596557617188 417.02789306640625 273.6116027832031 C 383.32806396484375 244.2205810546875 440.5421447753906 202.8725128173828 454.0646667480469 234.4988250732422" stroke-width="0.0" fill="rgb(0, 70, 36)" opacity="0.32302755" stroke="rgb(0, 0, 0)" stroke-opacity="1.0" stroke-linecap="round" stroke-linejoin="round"/>
    <path d="M 145.76087951660156 61.14332580566406 C 243.46348571777344 62.25499725341797 229.24237060546875 151.57908630371094 190.85275268554688 100.07183074951172 C 97.73170471191406 127.66799926757812 -33.57275390625 283.2712707519531 75.28984069824219 19.453210830688477 C 307.86297607421875 54.88420486450195 240.3426513671875 184.82713317871094 103.07080078125 37.12532043457031 C 298.0716552734375 -54.384029388427734 185.572021484375 33.01576232910156 145.76087951660156 61.14332580566406" stroke-width="0.0" fill="rgb(65, 128, 0)" opacity="1.0" stroke="rgb(0, 0, 0)" stroke-opacity="1.0" stroke-linecap="round" stroke-linejoin="round"/>
    <path d="M 155.37374877929688 415.8431396484375 C 146.17031860351562 386.0799560546875 162.89344787597656 375.37969970703125 153.65589904785156 463.3692626953125 C 115.21176147460938 416.43017578125 127.2796401977539 437.482421875 119.32760620117188 375.786865234375 C 135.7210693359375 327.2391662597656 117.97157287597656 301.01385498046875 136.67369079589844 294.5329895019531 C 158.5595703125 357.4710693359375 158.50921630859375 362.67083740234375 155.37374877929688 415.8431396484375" stroke-width="0.0" fill="rgb(115, 154, 17)" opacity="0.080262706" stroke="rgb(0, 0, 0)" stroke-opacity="1.0" stroke-linecap="round" stroke-linejoin="round"/>
    <path d="M 409.98895263671875 51.62350845336914 C 409.9656677246094 73.0146713256836 425.1076354980469 92.0854721069336 386.52349853515625 71.44923400878906 C 373.56329345703125 53.48393630981445 358.31854248046875 26.685680389404297 362.5823059082031 58.653663635253906 C 353.3130798339844 66.62803649902344 376.3421630859375 48.425777435302734 366.7171325683594 48.718875885009766 C 364.84393310546875 49.678184509277344 381.17718505859375 33.480613708496094 409.98895263671875 51.62350845336914" stroke-width="0.0" fill="rgb(67, 233, 18)" opacity="0.0" stroke="rgb(0, 0, 0)" stroke-opacity="1.0" stroke-linecap="round" stroke-linejoin="round"/>
    <path d="M 545.166748046875 64.50236511230469 C 524.6195678710938 103.71907806396484 494.2449035644531 83.5086898803711 452.5074462890625 63.404056549072266 C 436.3815002441406 46.947792053222656 440.9989318847656 27.120145797729492 434.92669677734375 29.76987075805664 C 425.2437438964844 -1.7732677459716797 442.5963134765625 -31.387075424194336 469.96881103515625 -52.534934997558594 C 501.29168701171875 -16.257373809814453 518.6566772460938 -17.103946685791016 545.166748046875 64.50236511230469" stroke-width="0.0" fill="rgb(243, 65, 192)" opacity="0.20830892" stroke="rgb(0, 0, 0)" stroke-opacity="1.0" stroke-linecap="round" stroke-linejoin="round"/>
    <path d="M 347.0455627441406 483.8202209472656 C 322.34405517578125 495.1225280761719 371.3795166015625 470.0881042480469 332.7878112792969 523.7366333007812 C 149.487060546875 545.7962646484375 120.71183013916016 463.8697204589844 146.91278076171875 458.74713134765625 C 233.105712890625 433.5616149902344 240.71275329589844 382.5802001953125 327.0616149902344 342.56719970703125 C 470.81463623046875 323.5588684082031 443.876953125 311.3842468261719 347.0455627441406 483.8202209472656" stroke-width="0.0" fill="rgb(99, 177, 0)" opacity="0.9993896" stroke="rgb(0, 0, 0)" stroke-opacity="1.0" stroke-linecap="round" stroke-linejoin="round"/>
    <path d="M 208.4098663330078 276.8701171875 C 311.1204833984375 321.0097961425781 327.9003601074219 310.1283264160156 256.04522705078125 344.037841796875 C 161.00204467773438 259.4398193359375 63.0797233581543 203.81398010253906 83.3935317993164 197.78965759277344 C 100.6192626953125 190.4856719970703 164.08074951171875 288.8468322753906 247.95494079589844 311.3381042480469 C 237.64767456054688 265.5764465332031 146.77545166015625 245.13877868652344 208.4098663330078 276.8701171875" stroke-width="0.0" fill="rgb(234, 116, 140)" opacity="0.211459" stroke="rgb(0, 0, 0)" stroke-opacity="1.0" stroke-linecap="round" stroke-linejoin="round"/>
    <path d="M 403.35247802734375 412.10467529296875 C 386.6788635253906 441.70867919921875 345.9620361328125 437.00128173828125 376.48077392578125 487.7913818359375 C 403.1449890136719 499.6715087890625 384.6355895996094 481.89691162109375 307.64654541015625 530.812744140625 C 236.1060333251953 428.9093017578125 257.0803527832031 344.27490234375 370.1676025390625 323.051513671875 C 361.5796813964844 432.12548828125 366.4366455078125 402.9584655761719 403.35247802734375 412.10467529296875" stroke-width="0.0" fill="rgb(0, 82, 70)" opacity="0.99752694" stroke="rgb(0, 0, 0)" stroke-opacity="1.0" stroke-linecap="round" stroke-linejoin="round"/>
    <path d="M 321.3576965332031 130.46824645996094 C 381.0660095214844 141.66864013671875 343.54290771484375 156.1451873779297 288.573974609375 178.069091796875 C 229.4864959716797 146.51779174804688 276.58489990234375 199.1327362060547 244.4396514892578 114.91963958740234 C 241.34133911132812 34.97758483886719 351.65118408203125 -9.830280303955078 299.8900146484375 62.807613372802734 C 324.4833068847656 116.14868927001953 390.6607360839844 93.16016387939453 321.3576965332031 130.46824645996094" stroke-width="0.0" fill="rgb(60, 77, 242)" opacity="0.92903477" stroke="rgb(0, 0, 0)" stroke-opacity="1.0" stroke-linecap="round" stroke-linejoin="round"/>
    <path d="M 434.4145812988281 305.13958740234375 C 280.8991394042969 367.03082275390625 293.1719665527344 395.7268981933594 297.4483947753906 387.49072265625 C 224.76991271972656 441.40277099609375 201.31793212890625 371.39398193359375 83.5899429321289 292.1507568359375 C 110.3215103149414 266.09930419921875 135.21205139160156 297.0570373535156 248.15423583984375 369.5617980957031 C 444.3726806640625 269.790283203125 605.03564453125 202.7489471435547 434.4145812988281 305.13958740234375" stroke-width="0.0" fill="rgb(71, 211, 1)" opacity="0.99264604" stroke="rgb(0, 0, 0)" stroke-opacity="1.0" stroke-linecap="round" stroke-linejoin="round"/>
    <path d="M 431.9471740722656 194.92819213867188 C 405.8653869628906 197.86090087890625 385.607666015625 205.2877197265625 354.48321533203125 213.68333435058594 C 359.35980224609375 185.13299560546875 332.36529541015625 204.4785614013672 288.02056884765625 220.13536071777344 C 336.3921813964844 206.081787109375 385.11322021484375 235.9431915283203 325.1524353027344 144.8177947998047 C 389.25921630859375 160.71493530273438 409.6190185546875 187.0789794921875 431.9471740722656 194.92819213867188" stroke-width="0.0" fill="rgb(0, 101, 65)" opacity="1.0" stroke="rgb(0, 0, 0)" stroke-opacity="1.0" stroke-linecap="round" stroke-linejoin="round"/>
    <path d="M 457.8804016113281 223.51123046875 C 417.0109558105469 243.113525390625 434.7914123535156 215.09024047851562 393.9058837890625 210.408447265625 C 300.23724365234375 271.3992919921875 307.3304748535156 266.1545104980469 399.3282470703125 211.9700927734375 C 439.0028991699219 175.57095336914062 427.9884033203125 202.45944213867188 427.9579772949219 182.51942443847656 C 467.8775939941406 184.95448303222656 437.450439453125 196.957763671875 457.8804016113281 223.51123046875" stroke-width="0.0" fill="rgb(237, 0, 166)" opacity="0.5281301" stroke="rgb(0, 0, 0)" stroke-opacity="1.0" stroke-linecap="round" stroke-linejoin="round"/>
    <path d="M 138.06912231445312 315.3655090332031 C 112.90108489990234 304.0470275878906 110.15343475341797 325.74664306640625 80.21764373779297 299.6112976074219 C 54.29094314575195 290.9318542480469 92.8854751586914 311.74609375 -41.79729461669922 242.4947509765625 C 27.883407592773438 192.27012634277344 2.116459846496582 227.67559814453125 85.37823486328125 271.4217529296875 C 134.87208557128906 289.0327453613281 161.7637176513672 315.4305114746094 138.06912231445312 315.3655090332031" stroke-width="0.0" fill="rgb(64, 215, 0)" opacity="0.9274906" stroke="rgb(0, 0, 0)" stroke-opacity="1.0" stroke-linecap="round" stroke-linejoin="round"/>
    <path d="M 49.308013916015625 67.39958190917969 C 55.432395935058594 69.72323608398438 56.78923416137695 62.43856430053711 63.96706008911133 40.38888931274414 C 80.09321594238281 -4.980052471160889 87.08055877685547 -54.1064453125 -37.426185607910156 -20.349885940551758 C -28.00278091430664 145.69744873046875 17.093358993530273 100.26589965820312 44.8364143371582 86.82527160644531 C 71.18473815917969 64.29969024658203 51.687374114990234 57.25149917602539 49.308013916015625 67.39958190917969" stroke-width="0.0" fill="rgb(90, 36, 253)" opacity="0.31519353" stroke="rgb(0, 0, 0)" stroke-opacity="1.0" stroke-linecap="round" stroke-linejoin="round"/>
    <path d="M 312.22967529296875 195.22950744628906 C 319.3905029296875 210.0115966796875 330.6865234375 218.15509033203125 296.32635498046875 228.39376831054688 C 234.63182067871094 262.06719970703125 257.4260559082031 272.82525634765625 255.0797119140625 157.12814331054688 C 298.56805419921875 138.0911102294922 295.9635314941406 168.7965545654297 306.61279296875 159.40354919433594 C 286.196044921875 153.7388458251953 276.78564453125 177.734130859375 312.22967529296875 195.22950744628906" stroke-width="0.0" fill="rgb(64, 33, 132)" opacity="0.94893813" stroke="rgb(0, 0, 0)" stroke-opacity="1.0" stroke-linecap="round" stroke-linejoin="round"/>
    <path d="M 146.0758514404297 528.0866088867188 C 131.7991943359375 492.3747253417969 162.04627990722656 513.2670288085938 136.10830688476562 481.4156799316406 C 131.50929260253906 489.73187255859375 153.45407104492188 478.22052001953125 138.3378143310547 491.8932189941406 C 67.83362579345703 490.79034423828125 66.48081970214844 438.37847900390625 117.58399963378906 420.0651550292969 C 160.38702392578125 461.34552001953125 162.26251220703125 507.27362060546875 146.0758514404297 528.0866088867188" stroke-width="0.0" fill="rgb(255, 48, 162)" opacity="0.24645135" stroke="rgb(0, 0, 0)" stroke-opacity="1.0" stroke-linecap="round" stroke-linejoin="round"/>
    <path d="M 137.50450134277344 223.8245849609375 C 176.80650329589844 264.7656555175781 97.93136596679688 227.8398895263672 97.55714416503906 214.382080078125 C 123.71611022949219 200.04147338867188 87.47463989257812 188.34654235839844 73.14155578613281 201.5846710205078 C 102.42411804199219 205.58473205566406 62.50408935546875 186.90719604492188 76.37166595458984 180.18739318847656 C 115.39466094970703 231.99209594726562 107.76266479492188 224.74513244628906 137.50450134277344 223.8245849609375" stroke-width="0.0" fill="rgb(64, 118, 203)" opacity="0.22123127" stroke="rgb(0, 0, 0)" stroke-opacity="1.0" stroke-linecap="round" stroke-linejoin="round"/>
    <path d="M 86.48190307617188 170.94345092773438 C 100.11168670654297 173.30718994140625 71.22274780273438 144.43536376953125 62.62800979614258 155.62890625 C 37.65851974487305 233.817626953125 -34.79258346557617 261.4158630371094 -1.4942766427993774 133.3451690673828 C 36.70218276977539 92.59964752197266 80.3082504272461 105.39749908447266 76.79878997802734 104.52395629882812 C 85.94693756103516 150.6253204345703 91.71223449707031 160.24705505371094 86.48190307617188 170.94345092773438" stroke-width="0.0" fill="rgb(63, 218, 0)" opacity="1.0" stroke="rgb(0, 0, 0)" stroke-opacity="1.0" stroke-linecap="round" stroke-linejoin="round"/>
    <path d="M 281.4166564941406 223.9787139892578 C 328.3083190917969 256.1847229003906 308.80279541015625 208.23890686035156 268.0577697753906 211.00621032714844 C 268.0663757324219 236.3514404296875 264.6508483886719 239.29559326171875 196.9434051513672 203.6484375 C 153.8994903564453 193.0929718017578 173.54847717285156 187.18272399902344 240.17733764648438 232.77212524414062 C 340.1476135253906 224.1954803466797 324.44427490234375 204.64620971679688 281.4166564941406 223.9787139892578" stroke-width="0.0" fill="rgb(62, 30, 108)" opacity="0.15892631" stroke="rgb(0, 0, 0)" stroke-opacity="1.0" stroke-linecap="round" stroke-linejoin="round"/>
    <path d="M 212.9693603515625 106.32109832763672 C 186.86865234375 123.65787506103516 181.03797912597656 119.26554870605469 203.14891052246094 85.36331176757812 C 183.5021514892578 85.7486572265625 168.12405395507812 169.93673706054688 59.52084732055664 192.8761749267578 C 155.7533721923828 103.1209716796875 188.2960205078125 95.5417709350586 201.240966796875 86.51676940917969 C 246.5474395751953 76.5914306640625 245.38827514648438 78.54393005371094 212.9693603515625 106.32109832763672" stroke-width="0.0" fill="rgb(49, 0, 67)" opacity="0.87640995" stroke="rgb(0, 0, 0)" stroke-opacity="1.0" stroke-linecap="round" stroke-linejoin="round"/>
    <path d="M 63.3502197265625 525.0294799804688 C 42.45839309692383 539.5292358398438 15.03414249420166 530.3245849609375 0.8111952543258667 530.5191040039062 C -9.364206314086914 527.7437133789062 -16.68471336364746 520.4232177734375 -21.20284080505371 510.0506896972656 C -18.48799705505371 494.70721435546875 -31.987857818603516 464.11956787109375 -31.91862678527832 429.94586181640625 C 50.070587158203125 452.5395812988281 65.85285186767578 459.0854797363281 63.3502197265625 525.0294799804688" stroke-width="0.0" fill="rgb(113, 21, 211)" opacity="0.12042931" stroke="rgb(0, 0, 0)" stroke-opacity="1.0" stroke-linecap="round" stroke-linejoin="round"/>
    <path d="M 211.2786865234375 124.39761352539062 C 244.4173126220703 111.72149658203125 161.1173095703125 118.70233917236328 142.60379028320312 211.8318328857422 C 92.0282974243164 183.68829345703125 154.6211395263672 222.483642578125 150.242431640625 205.6058807373047 C 133.15512084960938 208.43751525878906 144.25680541992188 220.578857421875 82.85179901123047 191.50852966308594 C 128.19522094726562 153.1132049560547 119.26282501220703 162.35862731933594 211.2786865234375 124.39761352539062" stroke-width="0.0" fill="rgb(49, 254, 0)" opacity="0.9954865" stroke="rgb(0, 0, 0)" stroke-opacity="1.0" stroke-linecap="round" stroke-linejoin="round"/>
    <path d="M 465.2395935058594 238.97923278808594 C 342.04486083984375 307.3482666015625 335.41827392578125 344.8666076660156 323.60699462890625 340.92022705078125 C 280.00543212890625 344.3704528808594 240.73519897460938 411.53045654296875 253.8867950439453 310.0482482910156 C 289.12969970703125 283.5907897949219 302.7915344238281 276.10028076171875 343.6210632324219 241.48904418945312 C 298.1091003417969 312.6282043457031 406.4486083984375 171.97036743164062 465.2395935058594 238.97923278808594" stroke-width="0.0" fill="rgb(64, 9, 130)" opacity="0.8695695" stroke="rgb(0, 0, 0)" stroke-opacity="1.0" stroke-linecap="round" stroke-linejoin="round"/>
    <path d="M 257.9652099609375 114.49132537841797 C 259.52935791015625 192.8036651611328 247.34268188476562 156.22596740722656 184.37648010253906 133.15216064453125 C 163.0718536376953 116.07829284667969 138.9933319091797 113.12007904052734 149.3551483154297 100.48281860351562 C 187.04417419433594 98.73225402832031 169.2391815185547 75.30608367919922 196.93997192382812 5.88449764251709 C 269.279296875 45.753746032714844 256.2209777832031 32.48813247680664 257.9652099609375 114.49132537841797" stroke-width="0.0" fill="rgb(254, 234, 247)" opacity="0.9796158" stroke="rgb(0, 0, 0)" stroke-opacity="1.0" stroke-linecap="round" stroke-linejoin="round"/>
    <path d="M 212.00186157226562 56.7038688659668 C 189.52792358398438 93.00406646728516 177.0144805908203 96.71790313720703 154.3314971923828 82.75467681884766 C 130.24510192871094 28.38239097595215 139.06666564941406 123.1789321899414 143.8667449951172 81.88541412353516 C 91.56060028076172 6.148303985595703 108.75162506103516 -35.0333366394043 226.9399871826172 4.9364848136901855 C 175.354248046875 55.417484283447266 174.02792358398438 30.338951110839844 212.00186157226562 56.7038688659668" stroke-width="0.0" fill="rgb(72, 206, 0)" opacity="1.0" stroke="rgb(0, 0, 0)" stroke-opacity="1.0" stroke-linecap="round" stroke-linejoin="round"/>
    <path d="M 408.4911804199219 43.795875549316406 C 371.9976806640625 75.40509033203125 350.55908203125 71.27103424072266 370.7152099609375 122.08575439453125 C 401.78472900390625 179.7492218017578 410.27191162109375 162.87384033203125 413.8053894042969 121.57477569580078 C 391.4934997558594 129.81683349609375 400.6557922363281 108.82808685302734 393.295166015625 75.02301025390625 C 401.8482971191406 90.85206604003906 399.79522705078125 74.74044036865234 408.4911804199219 43.795875549316406" stroke-width="0.0" fill="rgb(67, 170, 2)" opacity="0.08182272" stroke="rgb(0, 0, 0)" stroke-opacity="1.0" stroke-linecap="round" stroke-linejoin="round"/>
    <path d="M 323.1363830566406 511.2048645019531 C 297.8725280761719 524.9551391601562 313.2351379394531 513.532470703125 302.056396484375 527.2406005859375 C 268.419189453125 561.7053833007812 275.227783203125 551.9208984375 265.32232666015625 439.3271179199219 C 282.7918701171875 432.8066711425781 282.02020263671875 395.73760986328125 253.0814666748047 414.5386962890625 C 264.6061706542969 451.4818420410156 296.5307922363281 458.2080078125 323.1363830566406 511.2048645019531" stroke-width="0.0" fill="rgb(0, 85, 72)" opacity="1.0" stroke="rgb(0, 0, 0)" stroke-opacity="1.0" stroke-linecap="round" stroke-linejoin="round"/>
    <path d="M 294.8155517578125 189.18304443359375 C 300.1031494140625 151.55921936035156 309.7490234375 168.38174438476562 317.1723327636719 199.1705780029297 C 300.677734375 151.92523193359375 321.00048828125 145.2190399169922 274.9311218261719 160.79225158691406 C 262.5689697265625 161.4888153076172 277.90179443359375 175.22206115722656 271.49273681640625 178.74122619628906 C 286.6300048828125 147.63174438476562 305.4544982910156 178.12803649902344 294.8155517578125 189.18304443359375" stroke-width="0.0" fill="rgb(105, 60, 128)" opacity="0.14811818" stroke="rgb(0, 0, 0)" stroke-opacity="1.0" stroke-linecap="round" stroke-linejoin="round"/>
    <path d="M 305.8424072265625 25.51177406311035 C 313.163818359375 16.208852767944336 307.8277282714844 28.85085678100586 279.7005310058594 53.921295166015625 C 246.23277282714844 72.81166076660156 252.87789916992188 21.028427124023438 256.411865234375 -22.74009895324707 C 243.88031005859375 -20.630767822265625 251.03440856933594 -26.283449172973633 253.2091064453125 -2.1264963150024414 C 287.4021911621094 -22.25629234313965 284.0400695800781 7.878889560699463 305.8424072265625 25.51177406311035" stroke-width="0.0" fill="rgb(71, 71, 229)" opacity="0.92042035" stroke="rgb(0, 0, 0)" stroke-opacity="1.0" stroke-linecap="round" stroke-linejoin="round"/>
    <path d="M 355.1402587890625 224.0189208984375 C 357.4716491699219 252.32061767578125 332.1186218261719 265.3169860839844 346.86334228515625 279.3339538574219 C 332.8324890136719 281.4815979003906 313.13641357421875 236.699462890625 297.6834411621094 274.55975341796875 C 324.0318908691406 261.8304443359375 323.3992004394531 227.31536865234375 335.1770935058594 243.4002685546875 C 312.55645751953125 245.65594482421875 334.75604248046875 221.8475799560547 355.1402587890625 224.0189208984375" stroke-width="0.0" fill="rgb(255, 123, 133)" opacity="0.9889568" stroke="rgb(0, 0, 0)" stroke-opacity="1.0" stroke-linecap="round" stroke-linejoin="round"/>
    <path d="M 189.54864501953125 62.47093200683594 C 163.8485870361328 60.25739288330078 161.4553680419922 87.16901397705078 192.34071350097656 93.11256408691406 C 195.82798767089844 79.74388122558594 161.15625 80.3818359375 161.70584106445312 42.168678283691406 C 200.44601440429688 56.2435302734375 202.92015075683594 43.19364547729492 216.46221923828125 67.69673156738281 C 175.98831176757812 41.01679229736328 195.13485717773438 58.818450927734375 189.54864501953125 62.47093200683594" stroke-width="0.0" fill="rgb(71, 204, 32)" opacity="0.0" stroke="rgb(0, 0, 0)" stroke-opacity="1.0" stroke-linecap="round" stroke-linejoin="round"/>
    <path d="M 516.240478515625 531.8043212890625 C 466.6052551269531 526.4988403320312 446.2506103515625 523.37841796875 467.1896667480469 485.2664794921875 C 472.20489501953125 498.4114990234375 466.66217041015625 508.17877197265625 457.2181091308594 455.8192443847656 C 488.971923828125 420.0611877441406 497.2724304199219 418.30084228515625 526.7803955078125 432.3515319824219 C 543.7765502929688 455.33837890625 542.376220703125 454.38397216796875 516.240478515625 531.8043212890625" stroke-width="0.0" fill="rgb(154, 150, 255)" opacity="0.9913815" stroke="rgb(0, 0, 0)" stroke-opacity="1.0" stroke-linecap="round" stroke-linejoin="round"/>
    <path d="M 343.34063720703125 503.78924560546875 C 362.9643859863281 487.8749694824219 362.9043884277344 508.7882385253906 344.4840087890625 534.1917724609375 C 295.0420227050781 532.5439453125 306.81695556640625 476.40972900390625 347.30743408203125 526.0789184570312 C 427.0664367675781 510.416748046875 389.27783203125 478.75103759765625 375.76800537109375 466.00128173828125 C 382.68231201171875 467.4950256347656 365.17962646484375 502.549072265625 343.34063720703125 503.78924560546875" stroke-width="0.0" fill="rgb(0, 49, 124)" opacity="0.6059362" stroke="rgb(0, 0, 0)" stroke-opacity="1.0" stroke-linecap="round" stroke-linejoin="round"/>
    <path d="M 508.20806884765625 427.56109619140625 C 479.3985900878906 428.8771667480469 482.7906799316406 449.70159912109375 462.75439453125 465.891357421875 C 398.5771179199219 469.1585388183594 387.87982177734375 481.38262939453125 406.5536193847656 399.28143310546875 C 428.8782043457031 409.35797119140625 429.81561279296875 400.2859191894531 506.5408935546875 363.37127685546875 C 537.2075805664062 331.1964416503906 527.2523803710938 432.9960021972656 508.20806884765625 427.56109619140625" stroke-width="0.0" fill="rgb(113, 126, 255)" opacity="1.0" stroke="rgb(0, 0, 0)" stroke-opacity="1.0" stroke-linecap="round" stroke-linejoin="round"/>
    <path d="M 463.0294494628906 404.3887634277344 C 428.6810607910156 431.0257873535156 429.68157958984375 442.7364807128906 406.3123779296875 428.3273010253906 C 392.7955017089844 401.4507141113281 386.95733642578125 395.0337219238281 393.1241455078125 406.8691711425781 C 397.99420166015625 388.7947692871094 409.7160339355469 392.2132568359375 419.4012451171875 341.4746398925781 C 436.3790283203125 324.1468505859375 459.0159606933594 350.3832702636719 463.0294494628906 404.3887634277344" stroke-width="0.0" fill="rgb(24, 117, 24)" opacity="0.94005233" stroke="rgb(0, 0, 0)" stroke-opacity="1.0" stroke-linecap="round" stroke-linejoin="round"/>
    <path d="M 232.99517822265625 100.83280181884766 C 248.1184539794922 122.05579376220703 268.1841125488281 146.71484375 251.02772521972656 161.91595458984375 C 240.12371826171875 160.2719268798828 246.614990234375 150.56141662597656 233.04537963867188 150.0347137451172 C 230.97315979003906 96.70648956298828 231.45053100585938 110.39550018310547 262.29278564453125 119.06460571289062 C 273.4374084472656 109.96101379394531 279.70343017578125 105.53958129882812 232.99517822265625 100.83280181884766" stroke-width="0.0" fill="rgb(254, 246, 242)" opacity="0.6699209" stroke="rgb(0, 0, 0)" stroke-opacity="1.0" stroke-linecap="round" stroke-linejoin="round"/>
    <path d="M 119.35539245605469 418.0209045410156 C 115.46770477294922 448.3699951171875 102.15316009521484 444.5802001953125 50.40531539916992 466.0166015625 C 42.414161682128906 464.7536926269531 39.40669631958008 455.8330078125 -4.32918119430542 431.0852966308594 C -9.533828735351562 347.78729248046875 -2.198713779449463 362.36102294921875 36.644752502441406 379.637451171875 C 91.68446350097656 406.28619384765625 105.48294067382812 407.00335693359375 119.35539245605469 418.0209045410156" stroke-width="0.0" fill="rgb(255, 87, 94)" opacity="0.120172024" stroke="rgb(0, 0, 0)" stroke-opacity="1.0" stroke-linecap="round" stroke-linejoin="round"/>
    <path d="M 456.4408874511719 73.83946990966797 C 458.3324279785156 114.92430877685547 455.2586975097656 131.56370544433594 419.35906982421875 138.5548095703125 C 390.8623962402344 142.51644897460938 412.513916015625 118.11406707763672 417.78375244140625 89.12252044677734 C 383.1578674316406 53.96632385253906 386.2056579589844 60.632225036621094 432.72308349609375 54.89902877807617 C 446.81829833984375 54.70703887939453 444.4187927246094 67.8580322265625 456.4408874511719 73.83946990966797" stroke-width="0.0" fill="rgb(7, 85, 18)" opacity="0.9781934" stroke="rgb(0, 0, 0)" stroke-opacity="1.0" stroke-linecap="round" stroke-linejoin="round"/>
    <path d="M 223.9553680419922 13.04919147491455 C 211.76327514648438 10.974157333374023 188.326904296875 10.8583345413208 172.2512969970703 18.343412399291992 C 164.66629028320312 8.810673713684082 175.43527221679688 14.603432655334473 190.21119689941406 26.2116641998291 C 189.29190063476562 9.022003173828125 221.2155303955078 11.612545013427734 221.07310485839844 -8.724740028381348 C 194.96981811523438 -8.395188331604004 210.13778686523438 6.728042125701904 223.9553680419922 13.04919147491455" stroke-width="0.0" fill="rgb(88, 197, 86)" opacity="0.018116575" stroke="rgb(0, 0, 0)" stroke-opacity="1.0" stroke-linecap="round" stroke-linejoin="round"/>
    <path d="M 486.0450439453125 199.21144104003906 C 481.712646484375 204.43821716308594 474.3456115722656 212.98773193359375 503.393798828125 195.01510620117188 C 477.3651123046875 181.15133666992188 461.6003112792969 177.2626495361328 477.0603332519531 189.42678833007812 C 465.89422607421875 176.49659729003906 470.93438720703125 176.9284210205078 487.1118469238281 197.37327575683594 C 490.3016662597656 182.002685546875 494.9747009277344 196.1028289794922 486.0450439453125 199.21144104003906" stroke-width="0.0" fill="rgb(212, 115, 218)" opacity="0.01081758" stroke="rgb(0, 0, 0)" stroke-opacity="1.0" stroke-linecap="round" stroke-linejoin="round"/>
    <path d="M 413.0519714355469 302.9229736328125 C 399.0613708496094 296.86944580078125 388.5197448730469 319.0978698730469 407.3370056152344 350.8987121582031 C 403.6006164550781 323.3133239746094 404.8082275390625 317.92767333984375 416.4162292480469 322.49261474609375 C 393.8999938964844 315.987060546875 379.9924011230469 320.34228515625 420.4897766113281 324.72412109375 C 409.7004089355469 312.8548583984375 413.4289855957031 301.5669250488281 413.0519714355469 302.9229736328125" stroke-width="0.0" fill="rgb(69, 163, 44)" opacity="0.117256775" stroke="rgb(0, 0, 0)" stroke-opacity="1.0" stroke-linecap="round" stroke-linejoin="round"/>
    <path d="M 233.4564208984375 271.4638977050781 C 230.0130157470703 268.33770751953125 223.12120056152344 268.76031494140625 226.70118713378906 287.7451477050781 C 237.4725799560547 277.2220458984375 239.94358825683594 267.3338623046875 229.56822204589844 266.9731750488281 C 237.41758728027344 275.83270263671875 236.5529022216797 269.455810546875 235.23548889160156 260.75579833984375 C 232.00872802734375 265.30206298828125 225.61767578125 256.4156799316406 233.4564208984375 271.4638977050781" stroke-width="0.0" fill="rgb(212, 95, 120)" opacity="0.65667903" stroke="rgb(0, 0, 0)" stroke-opacity="1.0" stroke-linecap="round" stroke-linejoin="round"/>
    <path d="M 251.64956665039062 291.3878479003906 C 251.6663055419922 290.2333068847656 253.09974670410156 288.87445068359375 234.67904663085938 316.0681457519531 C 264.2778015136719 323.51885986328125 261.76922607421875 306.15191650390625 234.12599182128906 282.7979431152344 C 265.7266540527344 285.6477355957031 272.70941162109375 294.240234375 282.77825927734375 271.7685852050781 C 283.0231628417969 272.70684814453125 272.11944580078125 277.61822509765625 251.64956665039062 291.3878479003906" stroke-width="0.0" fill="rgb(81, 254, 79)" opacity="0.10843533" stroke="rgb(0, 0, 0)" stroke-opacity="1.0" stroke-linecap="round" stroke-linejoin="round"/>
    <path d="M 44.756290435791016 120.3250961303711 C 46.9922981262207 113.6578140258789 54.137359619140625 113.85569763183594 37.30312728881836 146.575927734375 C 35.11048889160156 147.09718322753906 14.845754623413086 142.96160888671875 -1.1729419231414795 109.55462646484375 C -3.2732458114624023 107.55735778808594 24.700101852416992 111.39505004882812 51.57746124267578 73.2983627319336 C 64.57487487792969 101.2948989868164 48.65996551513672 140.65255737304688 44.756290435791016 120.3250961303711" stroke-width="0.0" fill="rgb(247, 170, 109)" opacity="0.016780863" stroke="rgb(0, 0, 0)" stroke-opacity="1.0" stroke-linecap="round" stroke-linejoin="round"/>
    <path d="M 415.2790222167969 142.4488983154297 C 422.7590637207031 140.3353729248047 413.51385498046875 131.27716064453125 377.81329345703125 131.56259155273438 C 391.4945373535156 144.64483642578125 394.26708984375 141.76011657714844 399.0824279785156 117.84754180908203 C 393.47607421875 118.41854095458984 402.054443359375 120.4127426147461 408.5977783203125 136.478759765625 C 406.3406066894531 149.57608032226562 426.96551513671875 135.7793426513672 415.2790222167969 142.4488983154297" stroke-width="0.0" fill="rgb(96, 134, 20)" opacity="0.7007004" stroke="rgb(0, 0, 0)" stroke-opacity="1.0" stroke-linecap="round" stroke-linejoin="round"/>
    <path d="M 154.57025146484375 474.49395751953125 C 141.960693359375 548.4417114257812 75.10345458984375 543.631103515625 44.062984466552734 510.6108093261719 C 51.52602767944336 519.2037963867188 51.42130661010742 513.064697265625 41.52894973754883 512.6249389648438 C 45.906578063964844 451.44757080078125 46.578643798828125 445.37554931640625 55.37397003173828 460.7739562988281 C 85.46109771728516 427.4323425292969 150.70970153808594 413.72235107421875 154.57025146484375 474.49395751953125" stroke-width="0.0" fill="rgb(255, 96, 255)" opacity="0.1542495" stroke="rgb(0, 0, 0)" stroke-opacity="1.0" stroke-linecap="round" stroke-linejoin="round"/>
    <path d="M 548.1171264648438 55.67319869995117 C 544.7676391601562 77.06853485107422 557.2985229492188 93.2805404663086 524.581787109375 78.20394134521484 C 482.4871826171875 50.38577651977539 453.7339782714844 5.17358922958374 466.21405029296875 0.9216740727424622 C 500.4635314941406 58.26932907104492 485.67974853515625 64.48196411132812 500.7243957519531 46.60407257080078 C 507.25286865234375 42.52024459838867 530.725830078125 52.10029602050781 548.1171264648438 55.67319869995117" stroke-width="0.0" fill="rgb(254, 218, 247)" opacity="0.0071345204" stroke="rgb(0, 0, 0)" stroke-opacity="1.0" stroke-linecap="round" stroke-linejoin="round"/>
    <path d="M 310.4629821777344 303.5827941894531 C 298.36236572265625 301.5816345214844 310.2301940917969 321.0034484863281 296.857666015625 318.31732177734375 C 289.1218566894531 323.09375 270.77197265625 316.0481262207031 281.09765625 265.1257019042969 C 285.580322265625 302.30126953125 277.43896484375 306.30194091796875 293.2959899902344 305.9394226074219 C 285.1719665527344 295.57635498046875 302.7436828613281 291.30572509765625 310.4629821777344 303.5827941894531" stroke-width="0.0" fill="rgb(121, 0, 121)" opacity="0.024713168" stroke="rgb(0, 0, 0)" stroke-opacity="1.0" stroke-linecap="round" stroke-linejoin="round"/>
    <path d="M 353.38287353515625 100.02447509765625 C 347.4353332519531 115.31938934326172 333.8324279785156 121.78378295898438 305.19732666015625 129.2552947998047 C 314.5196228027344 120.41377258300781 319.4513854980469 103.07112884521484 306.4215087890625 107.36131286621094 C 315.7945861816406 109.67630767822266 317.611572265625 100.46175384521484 311.85357666015625 92.47367858886719 C 323.1756591796875 85.93620300292969 332.5756530761719 91.14341735839844 353.38287353515625 100.02447509765625" stroke-width="0.0" fill="rgb(83, 53, 255)" opacity="0.33551767" stroke="rgb(0, 0, 0)" stroke-opacity="1.0" stroke-linecap="round" stroke-linejoin="round"/>
    <path d="M 113.84944915771484 97.86900329589844 C 121.8771743774414 106.74854278564453 140.51925659179688 87.63690185546875 156.96420288085938 77.76631927490234 C 123.12320709228516 81.3084716796875 80.55625915527344 90.06193542480469 141.99700927734375 128.37193298339844 C 149.80433654785156 87.7053451538086 134.2563934326172 75.72517395019531 141.16766357421875 50.1082763671875 C 105.42085266113281 91.5794906616211 132.26425170898438 95.2352066040039 113.84944915771484 97.86900329589844" stroke-width="0.0" fill="rgb(31, 97, 78)" opacity="0.07282723" stroke="rgb(0, 0, 0)" stroke-opacity="1.0" stroke-linecap="round" stroke-linejoin="round"/>
    <path d="M 472.389892578125 495.5859375 C 476.1542053222656 512.9791259765625 471.2420654296875 528.5042114257812 456.1479797363281 564.8148193359375 C 391.6161193847656 551.0841064453125 368.01080322265625 553.5422973632812 351.4827575683594 505.8998107910156 C 390.30670166015625 421.4952697753906 402.670166015625 410.81854248046875 446.9741516113281 430.86016845703125 C 471.94512939453125 440.38897705078125 459.5521545410156 460.7015075683594 472.389892578125 495.5859375" stroke-width="0.0" fill="rgb(154, 54, 255)" opacity="0.26858035" stroke="rgb(0, 0, 0)" stroke-opacity="1.0" stroke-linecap="round" stroke-linejoin="round"/>
    <path d="M 232.50033569335938 73.86542510986328 C 209.67901611328125 87.89352416992188 193.3040008544922 98.2427978515625 192.43649291992188 102.43758392333984 C 187.71212768554688 62.12053680419922 178.7288360595703 79.41024780273438 155.0452423095703 85.45367431640625 C 174.3186798095703 80.21155548095703 184.21095275878906 69.54545593261719 209.06190490722656 77.0493392944336 C 198.91127014160156 57.64488983154297 209.27244567871094 44.29149627685547 232.50033569335938 73.86542510986328" stroke-width="0.0" fill="rgb(147, 130, 115)" opacity="0.117862485" stroke="rgb(0, 0, 0)" stroke-opacity="1.0" stroke-linecap="round" stroke-linejoin="round"/>
    <path d="M 294.00177001953125 200.70834350585938 C 266.2158203125 216.59352111816406 261.2832946777344 225.8067169189453 246.87130737304688 226.85511779785156 C 251.78033447265625 226.0414581298828 253.65928649902344 220.2323455810547 233.5290069580078 221.05050659179688 C 246.28952026367188 233.7982177734375 278.3178405761719 230.76260375976562 299.71478271484375 210.0912628173828 C 283.9541015625 202.2294921875 303.7660217285156 200.0332489013672 294.00177001953125 200.70834350585938" stroke-width="0.0" fill="rgb(246, 121, 184)" opacity="0.90106267" stroke="rgb(0, 0, 0)" stroke-opacity="1.0" stroke-linecap="round" stroke-linejoin="round"/>
    <path d="M 469.021240234375 -14.88322925567627 C 455.9173889160156 4.834752082824707 469.3216247558594 26.760168075561523 484.41363525390625 14.91443157196045 C 494.79693603515625 -11.606922149658203 491.40765380859375 -28.317974090576172 479.09588623046875 -27.230648040771484 C 443.02642822265625 -11.118226051330566 452.07421875 -16.323915481567383 464.5194396972656 -17.583200454711914 C 476.8262023925781 -16.114213943481445 486.2515869140625 -11.2457275390625 469.021240234375 -14.88322925567627" stroke-width="0.0" fill="rgb(255, 255, 144)" opacity="0.057903983" stroke="rgb(0, 0, 0)" stroke-opacity="1.0" stroke-linecap="round" stroke-linejoin="round"/>
    <path d="M 175.1796875 451.4165344238281 C 177.10455322265625 461.18267822265625 191.37533569335938 468.1820983886719 153.4917449951172 449.87518310546875 C 150.19827270507812 437.6455383300781 124.82402801513672 432.8736877441406 102.67697143554688 444.8077087402344 C 139.4197540283203 453.57513427734375 143.7682647705078 429.4627380371094 137.51658630371094 408.0177917480469 C 165.09825134277344 405.3476867675781 169.01165771484375 413.2086486816406 175.1796875 451.4165344238281" stroke-width="0.0" fill="rgb(170, 141, 38)" opacity="0.00046571286" stroke="rgb(0, 0, 0)" stroke-opacity="1.0" stroke-linecap="round" stroke-linejoin="round"/>
  </g>
</svg>
