<?xml version="1.0" ?>
<svg xmlns="http://www.w3.org/2000/svg" version="1.1" width="512" height="512">
  <defs/>
  <g>
    <path d="M 529.4534301757812 467.8022766113281 C 548.0579833984375 517.3278198242188 548.9373779296875 525.5354614257812 381.32958984375 540.6143798828125 C 304.0293884277344 577.8184814453125 267.14599609375 584.9812622070312 270.4115905761719 498.5599670410156 C 323.80096435546875 314.7419738769531 359.9477844238281 326.0258483886719 484.0838317871094 306.8270568847656 C 556.7715454101562 313.21612548828125 556.7073364257812 337.3705139160156 529.4534301757812 467.8022766113281" stroke-width="0.0" fill="rgb(17, 18, 129)" opacity="0.9796388" stroke="rgb(0, 0, 0)" stroke-opacity="1.0" stroke-linecap="round" stroke-linejoin="round"/>
    <path d="M 257.21099853515625 484.4225769042969 C 321.263916015625 512.010498046875 325.512939453125 524.2271118164062 124.97472381591797 531.4977416992188 C -51.20000076293945 517.7235107421875 -51.20000076293945 507.83367919921875 -21.774600982666016 449.183837890625 C -18.38620376586914 205.44985961914062 -18.693912506103516 199.01014709472656 -13.871175765991211 239.00009155273438 C 179.88551330566406 314.1002502441406 225.22344970703125 261.37615966796875 257.21099853515625 484.4225769042969" stroke-width="0.0" fill="rgb(20, 8, 141)" opacity="0.9530108" stroke="rgb(0, 0, 0)" stroke-opacity="1.0" stroke-linecap="round" stroke-linejoin="round"/>
    <path d="M 280.044189453125 311.70294189453125 C 219.62449645996094 428.6329650878906 221.587646484375 462.8972473144531 185.922607421875 342.1612243652344 C 84.94383239746094 322.1410827636719 18.89417839050293 395.6211853027344 12.851832389831543 180.5210723876953 C 2.1309516429901123 163.78277587890625 23.072120666503906 165.93231201171875 110.4034194946289 112.23959350585938 C 261.088623046875 119.5103530883789 279.98333740234375 116.57000732421875 280.044189453125 311.70294189453125" stroke-width="0.0" fill="rgb(255, 253, 193)" opacity="0.90333074" stroke="rgb(0, 0, 0)" stroke-opacity="1.0" stroke-linecap="round" stroke-linejoin="round"/>
    <path d="M 251.9221649169922 -1.2678900957107544 C 241.32411193847656 179.78964233398438 196.56179809570312 145.1016082763672 22.587242126464844 199.66677856445312 C -13.256450653076172 227.36434936523438 -1.5097196102142334 210.08944702148438 -8.014448165893555 90.34619140625 C -23.888456344604492 -6.837573528289795 -15.595806121826172 -13.364106178283691 71.11925506591797 -21.808273315429688 C 196.72335815429688 -26.920007705688477 233.11181640625 -44.36729049682617 251.9221649169922 -1.2678900957107544" stroke-width="0.0" fill="rgb(33, 14, 125)" opacity="0.9658689" stroke="rgb(0, 0, 0)" stroke-opacity="1.0" stroke-linecap="round" stroke-linejoin="round"/>
    <path d="M 524.1862182617188 41.844764709472656 C 429.7964782714844 279.4603271484375 457.2182312011719 313.7049865722656 398.7315673828125 312.3748474121094 C 253.30174255371094 314.7469482421875 242.9771270751953 348.1028747558594 238.7705535888672 226.77703857421875 C 236.4543914794922 37.73014450073242 196.32647705078125 -31.341991424560547 296.9427185058594 -80.68730163574219 C 563.2000122070312 -6.244815349578857 563.2000122070312 4.452378749847412 524.1862182617188 41.844764709472656" stroke-width="0.0" fill="rgb(30, 21, 134)" opacity="0.99951315" stroke="rgb(0, 0, 0)" stroke-opacity="1.0" stroke-linecap="round" stroke-linejoin="round"/>
    <path d="M 497.754150390625 327.8029479980469 C 494.33038330078125 428.4058837890625 503.34112548828125 508.62371826171875 300.638671875 550.227294921875 C 200.32449340820312 557.7757568359375 201.0033416748047 518.4656372070312 209.8013916015625 432.6298522949219 C 220.4288330078125 192.1496124267578 261.9894104003906 198.03846740722656 311.6927490234375 233.81320190429688 C 439.9541015625 249.01318359375 491.9682922363281 251.65194702148438 497.754150390625 327.8029479980469" stroke-width="0.0" fill="rgb(27, 26, 132)" opacity="0.999647" stroke="rgb(0, 0, 0)" stroke-opacity="1.0" stroke-linecap="round" stroke-linejoin="round"/>
    <path d="M 549.2748413085938 213.70562744140625 C 564.7236938476562 315.6802673339844 559.755859375 312.2565002441406 468.8740234375 311.6526184082031 C 389.5486145019531 330.720703125 428.9368591308594 328.5633544921875 412.7619934082031 222.52891540527344 C 422.4974670410156 103.75908660888672 376.81317138671875 72.26510620117188 510.4668273925781 69.69341278076172 C 564.205322265625 61.992984771728516 560.739013671875 105.89899444580078 549.2748413085938 213.70562744140625" stroke-width="0.0" fill="rgb(30, 22, 134)" opacity="1.0" stroke="rgb(0, 0, 0)" stroke-opacity="1.0" stroke-linecap="round" stroke-linejoin="round"/>
    <path d="M 245.17616271972656 241.57666015625 C 254.86276245117188 321.13909912109375 264.60467529296875 336.4602966308594 218.66209411621094 325.8939208984375 C 225.36399841308594 301.75146484375 240.24761962890625 301.3415832519531 196.94752502441406 242.83482360839844 C 180.79818725585938 192.64727783203125 147.10362243652344 203.3996124267578 255.63002014160156 182.1422882080078 C 284.990966796875 179.2769317626953 250.67271423339844 195.3224639892578 245.17616271972656 241.57666015625" stroke-width="0.0" fill="rgb(69, 31, 136)" opacity="0.6327471" stroke="rgb(0, 0, 0)" stroke-opacity="1.0" stroke-linecap="round" stroke-linejoin="round"/>
    <path d="M 321.44403076171875 67.55845642089844 C 322.583984375 136.47415161132812 278.55694580078125 114.2443618774414 240.3163604736328 107.52045440673828 C 242.83441162109375 129.27865600585938 227.4627685546875 124.0180892944336 174.08917236328125 77.82083129882812 C 194.29705810546875 58.78914260864258 196.89187622070312 45.326171875 233.85519409179688 100.38168334960938 C 262.5009765625 121.62348937988281 302.2484130859375 80.91547393798828 321.44403076171875 67.55845642089844" stroke-width="0.0" fill="rgb(235, 226, 72)" opacity="0.9328598" stroke="rgb(0, 0, 0)" stroke-opacity="1.0" stroke-linecap="round" stroke-linejoin="round"/>
    <path d="M 229.77183532714844 393.84454345703125 C 160.2590789794922 509.7310485839844 208.38522338867188 465.61090087890625 165.18890380859375 475.3900146484375 C 185.354736328125 407.8287353515625 209.81581115722656 382.9302062988281 193.1104736328125 309.5087585449219 C 198.07550048828125 332.9213562011719 130.44639587402344 312.76300048828125 135.34579467773438 335.931396484375 C 209.0094757080078 347.06976318359375 192.1714630126953 356.7384338378906 229.77183532714844 393.84454345703125" stroke-width="0.0" fill="rgb(195, 173, 144)" opacity="0.92049724" stroke="rgb(0, 0, 0)" stroke-opacity="1.0" stroke-linecap="round" stroke-linejoin="round"/>
    <path d="M 293.1777038574219 204.99612426757812 C 274.5325927734375 321.94085693359375 245.96055603027344 364.9601745605469 219.7450714111328 343.20733642578125 C 159.34495544433594 346.6422424316406 242.7112274169922 338.7587890625 211.75527954101562 272.2917175292969 C 92.25882720947266 115.55232238769531 34.254520416259766 128.79147338867188 235.8672332763672 65.04264068603516 C 139.21646118164062 199.55783081054688 227.2994842529297 94.6699447631836 293.1777038574219 204.99612426757812" stroke-width="0.0" fill="rgb(255, 249, 196)" opacity="1.0" stroke="rgb(0, 0, 0)" stroke-opacity="1.0" stroke-linecap="round" stroke-linejoin="round"/>
    <path d="M 108.5390853881836 210.117919921875 C 67.59928894042969 202.7587127685547 64.12181854248047 256.5088806152344 82.18215942382812 329.6436462402344 C 130.36216735839844 393.1632385253906 103.88086700439453 384.4629821777344 -3.0676722526550293 273.25579833984375 C -71.6954574584961 77.1502914428711 -42.38946533203125 115.4275131225586 123.41854095458984 105.63399505615234 C 198.17237854003906 175.33819580078125 209.61729431152344 213.75631713867188 108.5390853881836 210.117919921875" stroke-width="0.0" fill="rgb(33, 25, 143)" opacity="1.0" stroke="rgb(0, 0, 0)" stroke-opacity="1.0" stroke-linecap="round" stroke-linejoin="round"/>
    <path d="M 234.29734802246094 55.07869338989258 C 253.7886199951172 143.5364227294922 279.2096862792969 122.3095474243164 206.5697784423828 126.65991973876953 C 183.80784606933594 148.65859985351562 114.78273010253906 162.5973358154297 83.573486328125 76.71977996826172 C 78.97328186035156 -56.8201904296875 65.99018096923828 -68.37609100341797 228.93417358398438 -74.12321472167969 C 252.9848175048828 -27.830781936645508 227.2332763671875 25.59244155883789 234.29734802246094 55.07869338989258" stroke-width="0.0" fill="rgb(40, 29, 133)" opacity="1.0" stroke="rgb(0, 0, 0)" stroke-opacity="1.0" stroke-linecap="round" stroke-linejoin="round"/>
    <path d="M 282.41387939453125 130.37783813476562 C 345.1562805175781 188.75538635253906 350.0775451660156 213.98313903808594 278.77703857421875 188.5472412109375 C 171.45550537109375 163.36294555664062 262.4826965332031 172.86392211914062 226.38632202148438 129.35589599609375 C 312.9391174316406 53.85519027709961 342.5762939453125 93.95740509033203 380.7891540527344 143.58139038085938 C 312.6559143066406 215.88632202148438 303.02325439453125 186.33802795410156 282.41387939453125 130.37783813476562" stroke-width="0.0" fill="rgb(255, 248, 203)" opacity="1.0" stroke="rgb(0, 0, 0)" stroke-opacity="1.0" stroke-linecap="round" stroke-linejoin="round"/>
    <path d="M 105.252685546875 291.1584777832031 C 89.11495971679688 332.4808654785156 128.2040557861328 344.5649108886719 122.72747802734375 358.0616455078125 C 116.12030029296875 334.8816833496094 93.68468475341797 321.8729553222656 105.00731658935547 319.83868408203125 C 116.39371490478516 345.968994140625 106.18115997314453 333.705322265625 112.59571838378906 350.32330322265625 C 99.70677947998047 388.6235656738281 42.34086608886719 286.1375427246094 105.252685546875 291.1584777832031" stroke-width="0.0" fill="rgb(207, 196, 182)" opacity="0.643289" stroke="rgb(0, 0, 0)" stroke-opacity="1.0" stroke-linecap="round" stroke-linejoin="round"/>
    <path d="M 220.6651611328125 98.96688079833984 C 219.29576110839844 148.12789916992188 149.45509338378906 140.4906463623047 203.99530029296875 159.7742919921875 C 246.03744506835938 29.598474502563477 226.85549926757812 126.68050384521484 191.06906127929688 93.74616241455078 C 237.09681701660156 161.0902099609375 220.47970581054688 72.38744354248047 206.55511474609375 68.17072296142578 C 191.2652130126953 62.72819900512695 241.1779022216797 51.673824310302734 220.6651611328125 98.96688079833984" stroke-width="0.0" fill="rgb(74, 46, 176)" opacity="0.26629785" stroke="rgb(0, 0, 0)" stroke-opacity="1.0" stroke-linecap="round" stroke-linejoin="round"/>
    <path d="M 254.08644104003906 462.84906005859375 C 249.3942413330078 463.17431640625 221.12783813476562 461.09771728515625 267.1632995605469 445.7013854980469 C 296.326171875 466.1531982421875 278.0107421875 479.5299377441406 235.4031982421875 483.6795349121094 C 185.8927001953125 295.4065246582031 216.192138671875 325.3851318359375 248.06773376464844 412.758056640625 C 289.45526123046875 469.0646057128906 256.01019287109375 466.3564758300781 254.08644104003906 462.84906005859375" stroke-width="0.0" fill="rgb(254, 252, 61)" opacity="0.9960809" stroke="rgb(0, 0, 0)" stroke-opacity="1.0" stroke-linecap="round" stroke-linejoin="round"/>
    <path d="M 162.53219604492188 265.7703552246094 C 172.67002868652344 273.56170654296875 160.27780151367188 301.20025634765625 156.5309600830078 298.1894836425781 C 153.2337188720703 269.5400695800781 167.92242431640625 279.0520935058594 113.49674224853516 300.044189453125 C 137.08590698242188 289.59906005859375 127.6795883178711 305.2376403808594 151.63998413085938 259.488525390625 C 132.2911834716797 258.8753662109375 130.4783172607422 269.52032470703125 162.53219604492188 265.7703552246094" stroke-width="0.0" fill="rgb(255, 188, 47)" opacity="0.0" stroke="rgb(0, 0, 0)" stroke-opacity="1.0" stroke-linecap="round" stroke-linejoin="round"/>
    <path d="M 255.7400665283203 79.76917266845703 C 261.498291015625 149.7982177734375 266.4314880371094 168.88465881347656 213.0516815185547 182.62396240234375 C 134.49546813964844 183.99774169921875 168.8150634765625 148.7009735107422 209.3485565185547 124.82357025146484 C 195.52432250976562 104.4424819946289 188.5213165283203 78.67021942138672 181.23756408691406 85.51728057861328 C 216.14892578125 75.02606964111328 242.31980895996094 79.0022201538086 255.7400665283203 79.76917266845703" stroke-width="0.0" fill="rgb(65, 230, 255)" opacity="1.0" stroke="rgb(0, 0, 0)" stroke-opacity="1.0" stroke-linecap="round" stroke-linejoin="round"/>
    <path d="M 353.78204345703125 266.9436950683594 C 346.8871765136719 288.14178466796875 359.9818115234375 263.8778381347656 336.15283203125 272.0242614746094 C 294.8072814941406 281.2220458984375 310.52923583984375 306.0611267089844 294.7273254394531 206.5836639404297 C 347.92401123046875 230.06591796875 341.10205078125 238.6084442138672 356.37158203125 240.15501403808594 C 377.9925231933594 237.85586547851562 350.85986328125 225.2794189453125 353.78204345703125 266.9436950683594" stroke-width="0.0" fill="rgb(26, 1, 173)" opacity="0.49026972" stroke="rgb(0, 0, 0)" stroke-opacity="1.0" stroke-linecap="round" stroke-linejoin="round"/>
    <path d="M 167.39434814453125 287.76055908203125 C 185.6890106201172 287.3409423828125 166.42958068847656 295.42022705078125 169.64418029785156 279.3128356933594 C 174.30755615234375 293.3244323730469 153.25579833984375 286.4322509765625 135.4913787841797 281.0020446777344 C 168.8691864013672 250.77383422851562 169.98231506347656 244.13690185546875 170.93145751953125 164.1726531982422 C 244.0281524658203 214.59767150878906 202.27137756347656 247.21453857421875 167.39434814453125 287.76055908203125" stroke-width="0.0" fill="rgb(255, 254, 200)" opacity="0.7363238" stroke="rgb(0, 0, 0)" stroke-opacity="1.0" stroke-linecap="round" stroke-linejoin="round"/>
    <path d="M 205.21771240234375 101.183349609375 C 223.1550750732422 101.27465057373047 225.62762451171875 118.50837707519531 199.85250854492188 105.98766326904297 C 192.60740661621094 96.39977264404297 172.65884399414062 89.97471618652344 180.5144500732422 77.86090087890625 C 169.21609497070312 93.23758697509766 198.88214111328125 57.947776794433594 184.94422912597656 81.74432373046875 C 180.2769775390625 71.1808853149414 193.1715850830078 100.8385238647461 205.21771240234375 101.183349609375" stroke-width="0.0" fill="rgb(155, 158, 164)" opacity="0.60142684" stroke="rgb(0, 0, 0)" stroke-opacity="1.0" stroke-linecap="round" stroke-linejoin="round"/>
    <path d="M 276.98907470703125 446.5072021484375 C 258.82275390625 457.60089111328125 275.0075378417969 452.71649169921875 272.6024475097656 492.569580078125 C 268.6192321777344 496.2198791503906 237.30540466308594 484.3487854003906 265.1578369140625 496.63348388671875 C 270.53302001953125 439.6501770019531 274.7471618652344 454.5619812011719 263.288330078125 436.1316223144531 C 280.27069091796875 428.6856994628906 257.1961975097656 418.2838134765625 276.98907470703125 446.5072021484375" stroke-width="0.0" fill="rgb(20, 17, 127)" opacity="0.92882323" stroke="rgb(0, 0, 0)" stroke-opacity="1.0" stroke-linecap="round" stroke-linejoin="round"/>
    <path d="M 367.43072509765625 220.00189208984375 C 365.9732360839844 234.2828826904297 347.4704284667969 236.38829040527344 347.9005126953125 245.28245544433594 C 332.52264404296875 254.7050323486328 319.02606201171875 232.06092834472656 303.4696350097656 213.1079864501953 C 298.5829772949219 224.48011779785156 314.7440185546875 223.98597717285156 352.0169982910156 220.83106994628906 C 378.0938720703125 226.14508056640625 362.54473876953125 221.41384887695312 367.43072509765625 220.00189208984375" stroke-width="0.0" fill="rgb(42, 0, 217)" opacity="0.10070801" stroke="rgb(0, 0, 0)" stroke-opacity="1.0" stroke-linecap="round" stroke-linejoin="round"/>
    <path d="M 176.95260620117188 148.53306579589844 C 190.1904754638672 178.2904510498047 159.79576110839844 171.8331756591797 154.57640075683594 133.93081665039062 C 156.5999755859375 115.64128112792969 119.89917755126953 128.9232940673828 114.55884552001953 120.51854705810547 C 114.07219696044922 109.19805908203125 112.73178100585938 103.38639068603516 113.81566619873047 117.92792510986328 C 134.41848754882812 131.96502685546875 171.12091064453125 140.11065673828125 176.95260620117188 148.53306579589844" stroke-width="0.0" fill="rgb(173, 229, 213)" opacity="0.7927714" stroke="rgb(0, 0, 0)" stroke-opacity="1.0" stroke-linecap="round" stroke-linejoin="round"/>
    <path d="M 130.18357849121094 365.4567565917969 C 127.96791076660156 385.767578125 120.47168731689453 392.76776123046875 125.89772033691406 424.313232421875 C 109.27938079833984 395.4850158691406 109.79766845703125 386.8963623046875 96.65496826171875 362.9040832519531 C 90.4674072265625 306.9240417480469 87.16150665283203 307.3576354980469 130.58816528320312 328.7344970703125 C 132.75782775878906 297.1971130371094 135.7086181640625 315.4631042480469 130.18357849121094 365.4567565917969" stroke-width="0.0" fill="rgb(255, 255, 83)" opacity="1.0" stroke="rgb(0, 0, 0)" stroke-opacity="1.0" stroke-linecap="round" stroke-linejoin="round"/>
    <path d="M 141.46478271484375 433.02728271484375 C 133.84762573242188 516.2254638671875 150.44862365722656 471.42822265625 106.27469635009766 472.4032287597656 C 108.8642807006836 473.3098449707031 109.92660522460938 444.384765625 106.66636657714844 458.3582763671875 C 110.33882141113281 456.8753967285156 110.78363800048828 440.75714111328125 114.6086654663086 376.54949951171875 C 130.83465576171875 342.7916564941406 142.43975830078125 362.27239990234375 141.46478271484375 433.02728271484375" stroke-width="0.0" fill="rgb(255, 254, 36)" opacity="0.9992577" stroke="rgb(0, 0, 0)" stroke-opacity="1.0" stroke-linecap="round" stroke-linejoin="round"/>
    <path d="M 172.41339111328125 126.10568237304688 C 166.1778564453125 158.9794158935547 127.2261962890625 141.76870727539062 103.01870727539062 141.41883850097656 C 98.0920181274414 129.3513641357422 102.43601989746094 129.9661865234375 94.32910919189453 134.08900451660156 C 100.5338134765625 130.24954223632812 91.64153289794922 134.21080017089844 109.10688781738281 140.68939208984375 C 87.08183288574219 85.84674835205078 110.9854507446289 92.0688247680664 172.41339111328125 126.10568237304688" stroke-width="0.0" fill="rgb(50, 24, 153)" opacity="1.0" stroke="rgb(0, 0, 0)" stroke-opacity="1.0" stroke-linecap="round" stroke-linejoin="round"/>
    <path d="M 90.58014678955078 124.18901062011719 C 78.91657257080078 121.29508209228516 52.389251708984375 115.38138580322266 28.624013900756836 122.66129302978516 C 19.063640594482422 126.04434204101562 27.774913787841797 118.5601806640625 31.67466926574707 120.77320861816406 C 31.848068237304688 103.1294174194336 47.92642593383789 131.2853546142578 53.05905532836914 130.9998016357422 C 79.25788879394531 119.3707504272461 86.95249938964844 114.55712127685547 90.58014678955078 124.18901062011719" stroke-width="0.0" fill="rgb(26, 28, 176)" opacity="0.0022203652" stroke="rgb(0, 0, 0)" stroke-opacity="1.0" stroke-linecap="round" stroke-linejoin="round"/>
    <path d="M 73.47991180419922 301.81085205078125 C 83.94196319580078 358.94757080078125 61.3851432800293 354.6825866699219 16.89579200744629 334.80584716796875 C 22.738096237182617 350.6042785644531 17.291011810302734 344.4891662597656 25.594308853149414 314.2040710449219 C 19.78561782836914 271.860107421875 24.585477828979492 282.0726623535156 38.67755126953125 311.819091796875 C 21.13232421875 308.5056457519531 24.07761001586914 281.1326599121094 73.47991180419922 301.81085205078125" stroke-width="0.0" fill="rgb(27, 21, 141)" opacity="0.96845555" stroke="rgb(0, 0, 0)" stroke-opacity="1.0" stroke-linecap="round" stroke-linejoin="round"/>
    <path d="M 365.5730895996094 241.7048797607422 C 373.5076599121094 254.03302001953125 371.84521484375 275.9521179199219 368.65338134765625 284.80731201171875 C 372.16162109375 235.22764587402344 371.588134765625 244.4129180908203 355.1226806640625 248.46205139160156 C 341.3487548828125 224.0997772216797 344.3473815917969 198.35806274414062 355.9476013183594 200.32737731933594 C 361.7581481933594 206.2677001953125 364.6902770996094 205.8238525390625 365.5730895996094 241.7048797607422" stroke-width="0.0" fill="rgb(24, 36, 98)" opacity="0.2392586" stroke="rgb(0, 0, 0)" stroke-opacity="1.0" stroke-linecap="round" stroke-linejoin="round"/>
    <path d="M 197.77134704589844 245.6372528076172 C 197.0392303466797 281.8925476074219 208.2801971435547 278.71270751953125 186.8617706298828 260.3663024902344 C 165.30712890625 271.12249755859375 179.40966796875 270.259521484375 184.98272705078125 257.1248474121094 C 177.23033142089844 246.5017852783203 175.3572998046875 245.0223846435547 183.60433959960938 251.4687957763672 C 168.147216796875 243.14097595214844 188.37811279296875 253.96205139160156 197.77134704589844 245.6372528076172" stroke-width="0.0" fill="rgb(255, 228, 129)" opacity="0.0042762198" stroke="rgb(0, 0, 0)" stroke-opacity="1.0" stroke-linecap="round" stroke-linejoin="round"/>
    <path d="M 214.0206298828125 261.7671203613281 C 201.1021728515625 251.34939575195312 198.85232543945312 256.7371826171875 207.86886596679688 258.3009338378906 C 219.07301330566406 243.39395141601562 188.39517211914062 245.90589904785156 156.4064483642578 232.60153198242188 C 177.2600860595703 224.0524139404297 195.79473876953125 249.01193237304688 191.35507202148438 201.35293579101562 C 182.4581756591797 234.96751403808594 191.5525360107422 237.84498596191406 214.0206298828125 261.7671203613281" stroke-width="0.0" fill="rgb(255, 229, 143)" opacity="0.026411647" stroke="rgb(0, 0, 0)" stroke-opacity="1.0" stroke-linecap="round" stroke-linejoin="round"/>
    <path d="M 178.8531494140625 338.45953369140625 C 169.78634643554688 348.6426696777344 171.5765380859375 366.0179748535156 168.1491241455078 356.29901123046875 C 178.83889770507812 349.34539794921875 183.30491638183594 327.5044860839844 185.54345703125 324.2809753417969 C 172.89328002929688 336.5086669921875 168.89100646972656 317.7669982910156 180.4837646484375 336.20684814453125 C 180.5497589111328 330.7998962402344 177.0754852294922 330.7180480957031 178.8531494140625 338.45953369140625" stroke-width="0.0" fill="rgb(226, 203, 108)" opacity="0.0" stroke="rgb(0, 0, 0)" stroke-opacity="1.0" stroke-linecap="round" stroke-linejoin="round"/>
    <path d="M 104.95321655273438 126.90215301513672 C 121.11919403076172 155.66952514648438 111.27754974365234 129.201171875 106.02136993408203 155.7069549560547 C 76.1413345336914 163.19935607910156 78.52666473388672 149.14468383789062 85.31640625 129.77578735351562 C 61.96692657470703 122.92859649658203 70.70001983642578 113.0367202758789 118.77021789550781 118.1233139038086 C 108.08429718017578 70.97830963134766 96.57575225830078 99.00901794433594 104.95321655273438 126.90215301513672" stroke-width="0.0" fill="rgb(47, 23, 155)" opacity="0.26185477" stroke="rgb(0, 0, 0)" stroke-opacity="1.0" stroke-linecap="round" stroke-linejoin="round"/>
    <path d="M 61.774410247802734 120.81339263916016 C 52.73381423950195 154.43283081054688 59.36760330200195 151.38958740234375 30.70317268371582 142.34048461914062 C 21.195865631103516 131.96771240234375 3.443509340286255 136.90794372558594 -13.969085693359375 110.89871978759766 C -28.063547134399414 86.69995880126953 -2.181180715560913 97.5433349609375 46.76539611816406 101.44949340820312 C 45.8795280456543 109.88129425048828 61.50300216674805 109.2708969116211 61.774410247802734 120.81339263916016" stroke-width="0.0" fill="rgb(33, 13, 164)" opacity="0.005926351" stroke="rgb(0, 0, 0)" stroke-opacity="1.0" stroke-linecap="round" stroke-linejoin="round"/>
    <path d="M 111.4880599975586 163.84649658203125 C 135.23460388183594 156.69009399414062 135.83480834960938 182.93724060058594 127.73924255371094 152.5493621826172 C 95.82833862304688 177.23045349121094 85.85222625732422 174.43959045410156 100.99526977539062 175.1763458251953 C 100.33185577392578 144.21292114257812 117.2680892944336 135.89752197265625 115.57128143310547 128.78729248046875 C 103.58470916748047 130.51266479492188 112.55188751220703 152.04843139648438 111.4880599975586 163.84649658203125" stroke-width="0.0" fill="rgb(0, 23, 137)" opacity="0.01615211" stroke="rgb(0, 0, 0)" stroke-opacity="1.0" stroke-linecap="round" stroke-linejoin="round"/>
    <path d="M 379.5133056640625 202.18548583984375 C 385.2838134765625 230.88291931152344 387.908935546875 246.54237365722656 366.78338623046875 245.17291259765625 C 363.36444091796875 205.4609832763672 353.4970397949219 199.38955688476562 345.9014892578125 199.68312072753906 C 354.19854736328125 206.4738006591797 372.2281799316406 186.88194274902344 366.9325866699219 186.44679260253906 C 362.5836181640625 193.64332580566406 380.8504943847656 194.07009887695312 379.5133056640625 202.18548583984375" stroke-width="0.0" fill="rgb(106, 81, 158)" opacity="0.42479107" stroke="rgb(0, 0, 0)" stroke-opacity="1.0" stroke-linecap="round" stroke-linejoin="round"/>
    <path d="M 357.91015625 153.13034057617188 C 394.1755676269531 228.22300720214844 425.02313232421875 256.16888427734375 357.2130432128906 265.6976623535156 C 324.9653015136719 160.01832580566406 284.8223876953125 175.9579620361328 296.90277099609375 187.97300720214844 C 287.27691650390625 131.96224975585938 265.1836853027344 136.1630401611328 315.3156433105469 127.19634246826172 C 323.8220520019531 127.9785385131836 321.264892578125 144.67657470703125 357.91015625 153.13034057617188" stroke-width="0.0" fill="rgb(255, 239, 171)" opacity="1.0" stroke="rgb(0, 0, 0)" stroke-opacity="1.0" stroke-linecap="round" stroke-linejoin="round"/>
    <path d="M 165.67176818847656 37.80570602416992 C 158.42698669433594 64.95474243164062 154.60606384277344 80.33599090576172 155.73878479003906 90.18389892578125 C 97.25347900390625 97.83322143554688 114.6887435913086 85.4166488647461 98.26355743408203 54.965301513671875 C 93.25748443603516 -11.217659950256348 81.35974884033203 -8.567657470703125 152.70980834960938 -7.427479267120361 C 171.0885467529297 -8.85701847076416 163.76019287109375 21.1254825592041 165.67176818847656 37.80570602416992" stroke-width="0.0" fill="rgb(60, 49, 83)" opacity="0.1018766" stroke="rgb(0, 0, 0)" stroke-opacity="1.0" stroke-linecap="round" stroke-linejoin="round"/>
    <path d="M 63.722835540771484 311.3905029296875 C 60.16460037231445 307.0471496582031 68.0412368774414 351.5133056640625 60.82160568237305 351.03662109375 C 24.068395614624023 354.640625 30.326126098632812 350.52008056640625 17.23021125793457 313.3346862792969 C -3.3596394062042236 284.0883483886719 -1.204900860786438 278.86859130859375 40.93450927734375 287.129638671875 C 40.26837158203125 304.80694580078125 50.68553924560547 315.0406188964844 63.722835540771484 311.3905029296875" stroke-width="0.0" fill="rgb(33, 19, 142)" opacity="0.8732689" stroke="rgb(0, 0, 0)" stroke-opacity="1.0" stroke-linecap="round" stroke-linejoin="round"/>
    <path d="M 228.281005859375 67.08164978027344 C 249.88148498535156 26.414615631103516 234.6358184814453 33.85214614868164 234.68389892578125 50.98174285888672 C 239.92543029785156 42.8475227355957 241.87135314941406 41.57191848754883 202.88563537597656 54.14912796020508 C 219.6961212158203 70.83173370361328 222.8596649169922 52.63935089111328 232.1687469482422 9.479750633239746 C 232.9562225341797 38.809837341308594 210.11012268066406 28.99729347229004 228.281005859375 67.08164978027344" stroke-width="0.0" fill="rgb(5, 70, 94)" opacity="0.028833032" stroke="rgb(0, 0, 0)" stroke-opacity="1.0" stroke-linecap="round" stroke-linejoin="round"/>
    <path d="M 124.70455169677734 340.76800537109375 C 97.9843521118164 333.0627136230469 107.77056121826172 346.3472900390625 93.3501968383789 355.14453125 C 100.02324676513672 364.25341796875 105.7818603515625 355.13946533203125 131.99923706054688 331.7364807128906 C 113.8434829711914 315.55218505859375 101.05612182617188 326.6944274902344 100.77349853515625 324.4337463378906 C 118.99540710449219 321.7522277832031 125.4280776977539 334.4119567871094 124.70455169677734 340.76800537109375" stroke-width="0.0" fill="rgb(255, 163, 60)" opacity="0.0" stroke="rgb(0, 0, 0)" stroke-opacity="1.0" stroke-linecap="round" stroke-linejoin="round"/>
    <path d="M 204.09390258789062 369.82855224609375 C 205.20997619628906 390.15264892578125 226.6850128173828 392.9151611328125 199.49954223632812 398.94091796875 C 176.7037353515625 408.7950744628906 192.22865295410156 385.093017578125 178.37588500976562 405.115234375 C 166.19064331054688 375.419921875 166.503173828125 352.0595397949219 202.0846405029297 368.6332702636719 C 199.51016235351562 370.8846740722656 218.17984008789062 363.8448486328125 204.09390258789062 369.82855224609375" stroke-width="0.0" fill="rgb(232, 64, 101)" opacity="0.0" stroke="rgb(0, 0, 0)" stroke-opacity="1.0" stroke-linecap="round" stroke-linejoin="round"/>
    <path d="M 49.73672103881836 199.9851837158203 C 44.089141845703125 190.8934326171875 40.88103485107422 208.96929931640625 38.5001335144043 204.72528076171875 C 37.39653778076172 187.41409301757812 31.20787811279297 176.0625 35.054115295410156 193.25360107421875 C 45.361083984375 201.32318115234375 57.05458068847656 184.22015380859375 21.47972297668457 185.71478271484375 C 23.31624984741211 203.03102111816406 24.21596908569336 217.8358612060547 49.73672103881836 199.9851837158203" stroke-width="0.0" fill="rgb(30, 23, 168)" opacity="0.03849403" stroke="rgb(0, 0, 0)" stroke-opacity="1.0" stroke-linecap="round" stroke-linejoin="round"/>
    <path d="M 448.0309143066406 320.4415588378906 C 459.5883483886719 332.0129699707031 449.578369140625 328.8057556152344 429.2060852050781 307.7506103515625 C 436.2572021484375 275.2735290527344 438.57916259765625 282.3729553222656 397.54986572265625 284.310546875 C 401.9600830078125 268.553466796875 392.49859619140625 286.0046691894531 420.2086486816406 282.4914855957031 C 448.9189147949219 283.6413879394531 452.0168762207031 279.7381591796875 448.0309143066406 320.4415588378906" stroke-width="0.0" fill="rgb(9, 52, 93)" opacity="0.030536119" stroke="rgb(0, 0, 0)" stroke-opacity="1.0" stroke-linecap="round" stroke-linejoin="round"/>
    <path d="M 12.842421531677246 161.25230407714844 C 24.814029693603516 170.9710693359375 21.895505905151367 160.7010955810547 13.787696838378906 131.89718627929688 C 17.687454223632812 138.92694091796875 -18.152099609375 136.45289611816406 -10.925511360168457 134.53216552734375 C -6.246784687042236 94.80233764648438 10.631474494934082 88.09980010986328 3.1483678817749023 88.22095489501953 C 6.189589023590088 120.4957046508789 5.748371601104736 141.22154235839844 12.842421531677246 161.25230407714844" stroke-width="0.0" fill="rgb(53, 18, 149)" opacity="0.043368418" stroke="rgb(0, 0, 0)" stroke-opacity="1.0" stroke-linecap="round" stroke-linejoin="round"/>
    <path d="M 519.3331298828125 249.9963836669922 C 530.0394897460938 251.409423828125 528.7466430664062 251.58688354492188 502.5727844238281 260.9842834472656 C 498.77783203125 263.223876953125 507.25701904296875 238.2666473388672 495.9855041503906 215.10092163085938 C 471.3786926269531 216.51882934570312 468.9508056640625 214.23081970214844 514.0812377929688 219.0555877685547 C 514.147216796875 233.05419921875 519.401123046875 237.84173583984375 519.3331298828125 249.9963836669922" stroke-width="0.0" fill="rgb(27, 23, 143)" opacity="0.0" stroke="rgb(0, 0, 0)" stroke-opacity="1.0" stroke-linecap="round" stroke-linejoin="round"/>
    <path d="M 312.5011901855469 100.51506042480469 C 299.8580322265625 156.3639678955078 270.2577209472656 140.59713745117188 248.62149047851562 157.35203552246094 C 211.83810424804688 147.2617645263672 190.98187255859375 172.61471557617188 206.37730407714844 107.57462310791016 C 218.5133514404297 85.3395767211914 237.8228759765625 82.98970794677734 254.35169982910156 76.21266174316406 C 272.6564025878906 72.115234375 277.7479248046875 46.05956268310547 312.5011901855469 100.51506042480469" stroke-width="0.0" fill="rgb(56, 238, 255)" opacity="1.0" stroke="rgb(0, 0, 0)" stroke-opacity="1.0" stroke-linecap="round" stroke-linejoin="round"/>
    <path d="M 444.5873107910156 277.3752136230469 C 435.59197998046875 293.8892517089844 412.95037841796875 311.5435791015625 404.1086730957031 299.8786315917969 C 416.7568359375 257.68670654296875 418.6652526855469 258.3188781738281 411.845458984375 255.56979370117188 C 403.7444152832031 258.0092468261719 420.6601257324219 251.8018798828125 442.27008056640625 245.37818908691406 C 443.0977783203125 248.27940368652344 448.4578552246094 253.76112365722656 444.5873107910156 277.3752136230469" stroke-width="0.0" fill="rgb(10, 22, 110)" opacity="0.012684892" stroke="rgb(0, 0, 0)" stroke-opacity="1.0" stroke-linecap="round" stroke-linejoin="round"/>
    <path d="M 526.1576538085938 130.3361053466797 C 539.9130859375 142.05064392089844 524.4019165039062 140.5888214111328 494.5888366699219 140.37240600585938 C 491.88763427734375 144.59165954589844 487.974365234375 143.28761291503906 489.8828125 113.47488403320312 C 489.61785888671875 110.19355010986328 491.66119384765625 113.40800476074219 490.33221435546875 100.72627258300781 C 518.368896484375 98.37312316894531 531.897705078125 115.17928314208984 526.1576538085938 130.3361053466797" stroke-width="0.0" fill="rgb(16, 41, 143)" opacity="0.0" stroke="rgb(0, 0, 0)" stroke-opacity="1.0" stroke-linecap="round" stroke-linejoin="round"/>
    <path d="M 525.6326293945312 162.30789184570312 C 524.4721069335938 173.9883575439453 517.555908203125 186.28175354003906 498.75567626953125 185.2563934326172 C 465.9153137207031 180.7829132080078 470.37420654296875 191.88160705566406 471.22271728515625 158.7873077392578 C 478.345947265625 165.47276306152344 502.1300048828125 159.4650115966797 522.9599609375 157.4241485595703 C 525.236083984375 150.9864959716797 529.533935546875 160.2105255126953 525.6326293945312 162.30789184570312" stroke-width="0.0" fill="rgb(41, 23, 120)" opacity="0.046206135" stroke="rgb(0, 0, 0)" stroke-opacity="1.0" stroke-linecap="round" stroke-linejoin="round"/>
    <path d="M 64.12448120117188 375.9859924316406 C 66.37489318847656 371.3753967285156 78.97981262207031 393.61199951171875 103.68458557128906 388.11456298828125 C 63.84489059448242 369.7103576660156 51.11750411987305 355.03863525390625 16.583127975463867 345.0165100097656 C 31.734445571899414 307.7236633300781 37.11104202270508 343.31024169921875 67.34748840332031 327.5443420410156 C 83.4751968383789 337.5495300292969 68.88043975830078 368.6885070800781 64.12448120117188 375.9859924316406" stroke-width="0.0" fill="rgb(30, 4, 178)" opacity="0.04420571" stroke="rgb(0, 0, 0)" stroke-opacity="1.0" stroke-linecap="round" stroke-linejoin="round"/>
    <path d="M 330.23638916015625 252.169189453125 C 319.73052978515625 263.2796325683594 303.9132385253906 270.6434326171875 293.8668518066406 262.4559020996094 C 296.19842529296875 269.94854736328125 294.8786926269531 268.60797119140625 294.5769348144531 251.43804931640625 C 279.28167724609375 214.8631591796875 322.4802551269531 216.21412658691406 320.7810974121094 242.6717529296875 C 316.7892761230469 245.14454650878906 316.673583984375 256.77557373046875 330.23638916015625 252.169189453125" stroke-width="0.0" fill="rgb(11, 2, 197)" opacity="0.12348445" stroke="rgb(0, 0, 0)" stroke-opacity="1.0" stroke-linecap="round" stroke-linejoin="round"/>
    <path d="M 488.5262451171875 121.22232818603516 C 495.6728210449219 120.9150161743164 498.17340087890625 153.83108520507812 491.2724304199219 164.82467651367188 C 482.1836242675781 147.11215209960938 475.67266845703125 142.6542205810547 487.6637878417969 152.70745849609375 C 485.3388671875 153.4631805419922 480.9964904785156 128.62677001953125 497.272216796875 83.41927337646484 C 507.5739440917969 110.58604431152344 499.0412902832031 148.75709533691406 488.5262451171875 121.22232818603516" stroke-width="0.0" fill="rgb(64, 15, 188)" opacity="0.0" stroke="rgb(0, 0, 0)" stroke-opacity="1.0" stroke-linecap="round" stroke-linejoin="round"/>
    <path d="M 491.7245788574219 489.9403381347656 C 480.1036071777344 539.3189697265625 462.1527099609375 505.80303955078125 471.17999267578125 486.24371337890625 C 464.1977233886719 481.55712890625 469.9956359863281 473.34832763671875 466.2401123046875 465.1610107421875 C 448.1475524902344 444.3769836425781 450.02337646484375 440.97540283203125 456.79693603515625 456.7268981933594 C 488.4869079589844 459.4599609375 492.157958984375 447.2861633300781 491.7245788574219 489.9403381347656" stroke-width="0.0" fill="rgb(35, 16, 166)" opacity="0.0061002085" stroke="rgb(0, 0, 0)" stroke-opacity="1.0" stroke-linecap="round" stroke-linejoin="round"/>
    <path d="M 532.0465698242188 357.5386047363281 C 525.7117309570312 354.2980651855469 523.347900390625 352.4818115234375 485.87890625 356.78363037109375 C 485.32965087890625 383.6557922363281 467.64154052734375 381.3614501953125 462.7261047363281 378.0125427246094 C 458.03143310546875 353.4889221191406 465.01983642578125 348.6676025390625 474.0476379394531 362.3946228027344 C 504.1646423339844 368.7815246582031 526.7023315429688 360.4940185546875 532.0465698242188 357.5386047363281" stroke-width="0.0" fill="rgb(10, 36, 104)" opacity="0.011441624" stroke="rgb(0, 0, 0)" stroke-opacity="1.0" stroke-linecap="round" stroke-linejoin="round"/>
    <path d="M 165.21151733398438 424.0400085449219 C 161.46775817871094 441.4112548828125 155.95448303222656 451.1460266113281 157.91421508789062 430.365966796875 C 144.5116729736328 443.54534912109375 117.1947021484375 437.5979919433594 155.0599822998047 418.7680969238281 C 155.1079864501953 398.2755126953125 139.6243133544922 392.9958801269531 136.9862060546875 418.9951171875 C 163.02479553222656 400.4695129394531 158.5504150390625 426.74169921875 165.21151733398438 424.0400085449219" stroke-width="0.0" fill="rgb(6, 30, 186)" opacity="0.019395977" stroke="rgb(0, 0, 0)" stroke-opacity="1.0" stroke-linecap="round" stroke-linejoin="round"/>
    <path d="M 85.38768005371094 176.0960693359375 C 99.53907775878906 187.3515167236328 109.27913665771484 190.46864318847656 76.76478576660156 185.70384216308594 C 68.5422134399414 187.0982666015625 56.367164611816406 169.7172393798828 82.72599792480469 165.8605499267578 C 68.26905822753906 150.67848205566406 74.85157775878906 149.3905792236328 76.9953842163086 150.29605102539062 C 84.66072082519531 147.6388702392578 82.40070343017578 152.54449462890625 85.38768005371094 176.0960693359375" stroke-width="0.0" fill="rgb(40, 28, 202)" opacity="0.0" stroke="rgb(0, 0, 0)" stroke-opacity="1.0" stroke-linecap="round" stroke-linejoin="round"/>
    <path d="M 211.40431213378906 142.3451690673828 C 209.4763946533203 116.27396392822266 219.5478515625 152.092041015625 204.89749145507812 229.21163940429688 C 142.4363555908203 180.48533630371094 146.97750854492188 132.7459259033203 154.4305419921875 166.5413055419922 C 154.07406616210938 152.34271240234375 159.1516571044922 134.54429626464844 192.70384216308594 141.99388122558594 C 197.32908630371094 121.29847717285156 225.69851684570312 125.87948608398438 211.40431213378906 142.3451690673828" stroke-width="0.0" fill="rgb(37, 218, 255)" opacity="0.9986668" stroke="rgb(0, 0, 0)" stroke-opacity="1.0" stroke-linecap="round" stroke-linejoin="round"/>
    <path d="M 171.16586303710938 403.9994201660156 C 170.21063232421875 409.273681640625 172.1926727294922 407.66046142578125 161.66912841796875 408.7463073730469 C 169.45925903320312 405.37689208984375 154.4860076904297 368.7401123046875 124.75352478027344 354.8871154785156 C 122.09684753417969 385.9170227050781 158.8127899169922 366.457275390625 160.0169219970703 385.01177978515625 C 152.0815887451172 397.03436279296875 164.6673583984375 399.323486328125 171.16586303710938 403.9994201660156" stroke-width="0.0" fill="rgb(1, 28, 175)" opacity="0.020081613" stroke="rgb(0, 0, 0)" stroke-opacity="1.0" stroke-linecap="round" stroke-linejoin="round"/>
    <path d="M 462.8344421386719 143.61520385742188 C 474.7731018066406 128.39500427246094 473.19842529296875 139.03457641601562 452.2715759277344 135.82261657714844 C 431.4007263183594 142.75479125976562 436.3973083496094 148.91360473632812 436.5894775390625 124.70049285888672 C 440.3078308105469 130.92234802246094 454.23577880859375 125.79671478271484 456.3049011230469 90.29688262939453 C 468.45513916015625 106.30750274658203 459.14825439453125 131.08767700195312 462.8344421386719 143.61520385742188" stroke-width="0.0" fill="rgb(36, 11, 184)" opacity="0.02540022" stroke="rgb(0, 0, 0)" stroke-opacity="1.0" stroke-linecap="round" stroke-linejoin="round"/>
    <path d="M 246.16746520996094 315.37945556640625 C 247.8702850341797 303.85943603515625 246.78501892089844 335.8908386230469 243.77261352539062 327.59637451171875 C 252.8888702392578 317.0119934082031 227.97604370117188 306.0078430175781 226.64620971679688 307.78607177734375 C 229.9788818359375 297.9660339355469 246.25762939453125 280.1115417480469 247.95960998535156 300.2330627441406 C 228.28485107421875 294.69573974609375 232.82073974609375 310.34539794921875 246.16746520996094 315.37945556640625" stroke-width="0.0" fill="rgb(111, 72, 81)" opacity="0.00018583871" stroke="rgb(0, 0, 0)" stroke-opacity="1.0" stroke-linecap="round" stroke-linejoin="round"/>
    <path d="M 185.87899780273438 492.9203186035156 C 172.29196166992188 512.4148559570312 156.24534606933594 524.4569702148438 145.73904418945312 516.750244140625 C 123.13909912109375 495.04205322265625 129.48617553710938 471.47265625 132.40480041503906 518.9237060546875 C 124.96704864501953 505.9409484863281 106.11930084228516 509.86968994140625 140.10205078125 474.8310852050781 C 202.21578979492188 430.57586669921875 184.1985321044922 449.9756164550781 185.87899780273438 492.9203186035156" stroke-width="0.0" fill="rgb(42, 110, 68)" opacity="0.0010473394" stroke="rgb(0, 0, 0)" stroke-opacity="1.0" stroke-linecap="round" stroke-linejoin="round"/>
  </g>
</svg>
