<?xml version="1.0" ?>
<svg xmlns="http://www.w3.org/2000/svg" version="1.1" width="512" height="512">
  <defs/>
  <g>
    <path d="M 548.7398071289062 441.8183288574219 C 544.531005859375 528.8132934570312 537.87353515625 538.6441040039062 338.6628723144531 523.9492797851562 C 244.90171813964844 535.5160522460938 178.64451599121094 516.9345703125 288.48870849609375 468.6553649902344 C 493.2409362792969 414.2517395019531 354.20611572265625 326.1533203125 353.3404846191406 253.4460906982422 C 570.0593872070312 280.35418701171875 568.1998291015625 309.8250427246094 548.7398071289062 441.8183288574219" stroke-width="0.0" fill="rgb(106, 0, 147)" opacity="1.0" stroke="rgb(0, 0, 0)" stroke-opacity="1.0" stroke-linecap="round" stroke-linejoin="round"/>
    <path d="M 147.5290069580078 413.75286865234375 C 251.8253936767578 522.580810546875 371.0762634277344 443.7918701171875 312.1910705566406 500.9637145996094 C -12.973530769348145 563.9059448242188 -9.663168907165527 564.6140747070312 -8.987733840942383 514.767578125 C -36.79916763305664 214.80203247070312 -26.411638259887695 213.2917022705078 46.91415786743164 277.5773010253906 C 162.58859252929688 267.1896057128906 91.36032104492188 313.94647216796875 147.5290069580078 413.75286865234375" stroke-width="0.0" fill="rgb(17, 0, 143)" opacity="0.97619826" stroke="rgb(0, 0, 0)" stroke-opacity="1.0" stroke-linecap="round" stroke-linejoin="round"/>
    <path d="M 114.47256469726562 292.56744384765625 C 134.1747283935547 436.1563720703125 124.43009185791016 357.67352294921875 117.84027099609375 294.6020812988281 C -72.4054946899414 282.2691650390625 -38.3536262512207 334.10626220703125 -10.598370552062988 174.37567138671875 C -1.4887359142303467 147.58056640625 29.906572341918945 171.59878540039062 67.95896911621094 131.7485809326172 C 83.52699279785156 125.34500885009766 115.61662292480469 198.64263916015625 114.47256469726562 292.56744384765625" stroke-width="0.0" fill="rgb(23, 0, 156)" opacity="0.9943821" stroke="rgb(0, 0, 0)" stroke-opacity="1.0" stroke-linecap="round" stroke-linejoin="round"/>
    <path d="M 267.7998352050781 90.14530181884766 C 5.075187683105469 54.87916564941406 77.14485168457031 157.09384155273438 79.31195068359375 116.17892456054688 C 9.208456039428711 252.29722595214844 -14.626205444335938 233.29647827148438 -18.120019912719727 63.63483810424805 C -16.182899475097656 -17.61954116821289 4.027286052703857 -35.606475830078125 139.80564880371094 -15.316534042358398 C 245.83908081054688 -20.46170997619629 278.2437744140625 -19.082075119018555 267.7998352050781 90.14530181884766" stroke-width="0.0" fill="rgb(12, 1, 126)" opacity="1.0" stroke="rgb(0, 0, 0)" stroke-opacity="1.0" stroke-linecap="round" stroke-linejoin="round"/>
    <path d="M 575.422119140625 95.33311462402344 C 448.3310241699219 306.0507507324219 476.350830078125 340.6230163574219 365.4183654785156 373.5005798339844 C 145.38502502441406 385.6529846191406 276.26129150390625 299.2508850097656 224.9729766845703 146.99899291992188 C 321.150634765625 -14.790362358093262 263.9892883300781 -16.872278213500977 346.0606994628906 -54.438175201416016 C 563.2000122070312 0.6587138175964355 563.2000122070312 11.063444137573242 575.422119140625 95.33311462402344" stroke-width="0.0" fill="rgb(104, 6, 113)" opacity="0.9679608" stroke="rgb(0, 0, 0)" stroke-opacity="1.0" stroke-linecap="round" stroke-linejoin="round"/>
    <path d="M 303.6479797363281 37.25629425048828 C 265.4140625 318.9801940917969 168.1771697998047 429.68682861328125 158.210205078125 291.82135009765625 C 159.91848754882812 224.693115234375 142.46148681640625 122.00662994384766 39.471961975097656 109.71693420410156 C 71.96495819091797 130.17996215820312 97.31591033935547 52.88873291015625 223.36029052734375 68.77752685546875 C 319.4644470214844 117.4283218383789 284.115478515625 44.258914947509766 303.6479797363281 37.25629425048828" stroke-width="0.0" fill="rgb(33, 0, 116)" opacity="0.95412284" stroke="rgb(0, 0, 0)" stroke-opacity="1.0" stroke-linecap="round" stroke-linejoin="round"/>
    <path d="M 427.25 370.94757080078125 C 332.8219909667969 481.69293212890625 470.7047424316406 269.9322509765625 333.7655944824219 317.22113037109375 C 318.791748046875 286.7633361816406 439.0208740234375 407.5376281738281 172.14402770996094 476.18585205078125 C 130.70230102539062 186.5457763671875 235.78857421875 122.78484344482422 303.6369934082031 330.6086120605469 C 464.2296142578125 307.6432800292969 481.0208435058594 275.1739807128906 427.25 370.94757080078125" stroke-width="0.0" fill="rgb(30, 0, 130)" opacity="0.9883884" stroke="rgb(0, 0, 0)" stroke-opacity="1.0" stroke-linecap="round" stroke-linejoin="round"/>
    <path d="M 534.8027954101562 150.4931640625 C 543.6019897460938 320.09478759765625 563.1994018554688 343.2150573730469 533.667236328125 292.701171875 C 388.4820861816406 297.0838928222656 359.4663391113281 368.48663330078125 403.62896728515625 257.05859375 C 274.28497314453125 164.69435119628906 401.4679870605469 170.7179718017578 546.8381958007812 97.15487670898438 C 563.2000122070312 68.05618286132812 563.2000122070312 90.89309692382812 534.8027954101562 150.4931640625" stroke-width="0.0" fill="rgb(85, 255, 205)" opacity="1.0" stroke="rgb(0, 0, 0)" stroke-opacity="1.0" stroke-linecap="round" stroke-linejoin="round"/>
    <path d="M 247.1210174560547 191.21697998046875 C 309.7248229980469 278.2727966308594 297.545654296875 282.94561767578125 306.3158874511719 305.162109375 C 284.71856689453125 262.8251647949219 278.4803161621094 270.12615966796875 276.7322692871094 237.77418518066406 C 255.95054626464844 235.09390258789062 264.6660461425781 214.4354705810547 269.2528991699219 258.4876403808594 C 273.04742431640625 244.9279022216797 254.77444458007812 260.8457336425781 247.1210174560547 191.21697998046875" stroke-width="0.0" fill="rgb(163, 120, 109)" opacity="0.6913932" stroke="rgb(0, 0, 0)" stroke-opacity="1.0" stroke-linecap="round" stroke-linejoin="round"/>
    <path d="M 228.25772094726562 74.4128646850586 C 57.694313049316406 30.034412384033203 -47.50016403198242 114.51236724853516 65.14325714111328 146.9919891357422 C 148.8583221435547 320.955078125 -69.33964538574219 330.6899719238281 -59.30523681640625 198.18017578125 C -34.97905731201172 -15.127614974975586 -27.280202865600586 -25.398874282836914 147.68319702148438 -51.01815414428711 C 286.534423828125 -35.51306915283203 382.5228271484375 76.5963363647461 228.25772094726562 74.4128646850586" stroke-width="0.0" fill="rgb(158, 21, 146)" opacity="0.5799047" stroke="rgb(0, 0, 0)" stroke-opacity="1.0" stroke-linecap="round" stroke-linejoin="round"/>
    <path d="M 491.4305725097656 226.9459991455078 C 458.1160888671875 224.8460235595703 383.7460632324219 299.9674072265625 421.1239318847656 313.6507873535156 C 228.55316162109375 346.3451232910156 468.2990417480469 353.2226257324219 290.2614440917969 259.4903259277344 C 414.64056396484375 165.28347778320312 356.2143859863281 57.85570526123047 382.5898742675781 139.3389129638672 C 307.2467956542969 289.4828186035156 314.8619079589844 267.5097351074219 491.4305725097656 226.9459991455078" stroke-width="0.0" fill="rgb(255, 122, 0)" opacity="1.0" stroke="rgb(0, 0, 0)" stroke-opacity="1.0" stroke-linecap="round" stroke-linejoin="round"/>
    <path d="M 456.31500244140625 -0.4626610279083252 C 394.5494689941406 246.76153564453125 319.849365234375 217.90017700195312 216.8948516845703 246.8380126953125 C 215.85906982421875 150.4041748046875 259.3817443847656 139.9205322265625 295.66131591796875 118.50135803222656 C 286.9884948730469 130.65660095214844 309.34564208984375 88.8415298461914 250.2483673095703 80.08984375 C 160.6409912109375 -1.2212803363800049 221.66319274902344 -87.61289978027344 456.31500244140625 -0.4626610279083252" stroke-width="0.0" fill="rgb(108, 11, 132)" opacity="1.0" stroke="rgb(0, 0, 0)" stroke-opacity="1.0" stroke-linecap="round" stroke-linejoin="round"/>
    <path d="M 263.2263488769531 437.1484680175781 C 529.3969116210938 382.62408447265625 269.3092346191406 580.653564453125 164.10733032226562 466.651123046875 C 207.1407012939453 481.5353698730469 120.24616241455078 470.5964050292969 120.79196166992188 360.7514953613281 C 172.9292449951172 244.02926635742188 161.63279724121094 495.6075134277344 141.03009033203125 220.85328674316406 C 269.2339782714844 155.119873046875 79.94801330566406 433.6238708496094 263.2263488769531 437.1484680175781" stroke-width="0.0" fill="rgb(255, 248, 12)" opacity="1.0" stroke="rgb(0, 0, 0)" stroke-opacity="1.0" stroke-linecap="round" stroke-linejoin="round"/>
    <path d="M 595.1129760742188 150.74024963378906 C 605.8993530273438 479.5093688964844 584.9669799804688 492.2086486816406 454.17120361328125 484.166748046875 C 363.0614013671875 388.8171691894531 431.7137451171875 400.556884765625 422.6306457519531 301.9852600097656 C 361.7133483886719 156.7406768798828 423.521484375 292.421142578125 402.16717529296875 126.47808837890625 C 450.75274658203125 102.83238220214844 591.4647216796875 104.29747009277344 595.1129760742188 150.74024963378906" stroke-width="0.0" fill="rgb(107, 5, 134)" opacity="0.9935453" stroke="rgb(0, 0, 0)" stroke-opacity="1.0" stroke-linecap="round" stroke-linejoin="round"/>
    <path d="M 561.4498901367188 456.2878112792969 C 529.5440673828125 514.3981323242188 520.1913452148438 527.753662109375 345.8961486816406 547.668701171875 C 297.4359130859375 486.8475646972656 342.7052001953125 490.0933837890625 399.1709899902344 452.577880859375 C 421.2341003417969 387.2640380859375 406.6430969238281 362.15191650390625 445.1927185058594 370.7582702636719 C 501.2865905761719 360.04620361328125 511.1678161621094 371.1332092285156 561.4498901367188 456.2878112792969" stroke-width="0.0" fill="rgb(104, 13, 123)" opacity="0.58293766" stroke="rgb(0, 0, 0)" stroke-opacity="1.0" stroke-linecap="round" stroke-linejoin="round"/>
    <path d="M 330.9655456542969 290.188232421875 C 437.91357421875 306.55255126953125 301.0785217285156 319.10406494140625 328.1117858886719 345.1725769042969 C 327.374755859375 449.947509765625 186.4801788330078 434.69976806640625 173.7834014892578 334.801025390625 C 184.02670288085938 280.0719299316406 184.55755615234375 315.7958679199219 190.8581085205078 329.3965759277344 C 191.88027954101562 423.2493591308594 319.08404541015625 441.7492370605469 330.9655456542969 290.188232421875" stroke-width="0.0" fill="rgb(253, 129, 5)" opacity="0.992483" stroke="rgb(0, 0, 0)" stroke-opacity="1.0" stroke-linecap="round" stroke-linejoin="round"/>
    <path d="M 202.1520538330078 267.09686279296875 C 180.03591918945312 285.06353759765625 206.37225341796875 330.9094543457031 172.4976806640625 344.166259765625 C 164.7559356689453 276.77740478515625 169.2951202392578 243.9552459716797 175.73268127441406 285.7292785644531 C 186.67391967773438 241.94175720214844 187.10813903808594 234.23348999023438 203.4376983642578 239.8546600341797 C 254.00802612304688 232.0488739013672 272.8058776855469 268.1983337402344 202.1520538330078 267.09686279296875" stroke-width="0.0" fill="rgb(255, 247, 0)" opacity="1.0" stroke="rgb(0, 0, 0)" stroke-opacity="1.0" stroke-linecap="round" stroke-linejoin="round"/>
    <path d="M 405.42083740234375 305.9956359863281 C 432.9954833984375 413.1977233886719 357.954345703125 481.2884216308594 336.68829345703125 492.7479248046875 C 274.17596435546875 539.213623046875 159.04225158691406 515.4230346679688 297.73309326171875 496.9759521484375 C 365.9983825683594 463.4551086425781 379.6338806152344 428.9220275878906 385.5435485839844 394.17083740234375 C 330.548095703125 486.8188171386719 440.1194763183594 302.9537048339844 405.42083740234375 305.9956359863281" stroke-width="0.0" fill="rgb(27, 1, 142)" opacity="0.9974525" stroke="rgb(0, 0, 0)" stroke-opacity="1.0" stroke-linecap="round" stroke-linejoin="round"/>
    <path d="M 275.6216735839844 113.54894256591797 C 300.4341735839844 65.77725982666016 168.28724670410156 53.865867614746094 213.61695861816406 67.45060729980469 C 186.46165466308594 62.05952072143555 167.91246032714844 50.20613098144531 168.5552215576172 35.27069091796875 C 168.51986694335938 31.194028854370117 190.1894989013672 46.62432861328125 160.91900634765625 56.33958053588867 C 71.17767333984375 77.04249572753906 208.71437072753906 51.627769470214844 275.6216735839844 113.54894256591797" stroke-width="0.0" fill="rgb(22, 1, 111)" opacity="0.9803103" stroke="rgb(0, 0, 0)" stroke-opacity="1.0" stroke-linecap="round" stroke-linejoin="round"/>
    <path d="M 218.39430236816406 524.0333862304688 C 259.5814514160156 552.6036987304688 211.40496826171875 562.6773071289062 119.64763641357422 551.348876953125 C -49.01333236694336 521.1326904296875 -42.92496109008789 500.47503662109375 -32.0189208984375 422.12115478515625 C -44.2130126953125 318.21624755859375 -58.20757293701172 289.7942810058594 19.873266220092773 308.2485656738281 C 119.62043762207031 292.00726318359375 66.72023010253906 487.6726379394531 218.39430236816406 524.0333862304688" stroke-width="0.0" fill="rgb(116, 18, 143)" opacity="0.795443" stroke="rgb(0, 0, 0)" stroke-opacity="1.0" stroke-linecap="round" stroke-linejoin="round"/>
    <path d="M 288.9792175292969 378.029541015625 C 284.956787109375 396.96002197265625 247.99295043945312 365.9023132324219 253.95433044433594 359.8070373535156 C 263.98175048828125 364.558837890625 261.3250732421875 366.4526062011719 289.46868896484375 389.36724853515625 C 247.80801391601562 405.6795959472656 176.9489288330078 407.3204040527344 212.44703674316406 264.9118347167969 C 265.6424255371094 298.673095703125 269.31158447265625 365.6546630859375 288.9792175292969 378.029541015625" stroke-width="0.0" fill="rgb(151, 9, 156)" opacity="0.6138432" stroke="rgb(0, 0, 0)" stroke-opacity="1.0" stroke-linecap="round" stroke-linejoin="round"/>
    <path d="M 408.92901611328125 152.7979278564453 C 325.2300720214844 64.31627655029297 364.60101318359375 97.94480895996094 346.25042724609375 223.3457794189453 C 367.9889831542969 198.07225036621094 359.64642333984375 204.33779907226562 358.0445556640625 162.62646484375 C 340.4765319824219 211.6136932373047 364.4148254394531 182.3015594482422 355.5021057128906 165.11341857910156 C 355.7449951171875 191.08065795898438 369.4162902832031 149.71527099609375 408.92901611328125 152.7979278564453" stroke-width="0.0" fill="rgb(104, 0, 156)" opacity="0.39857092" stroke="rgb(0, 0, 0)" stroke-opacity="1.0" stroke-linecap="round" stroke-linejoin="round"/>
    <path d="M 428.3491516113281 210.81105041503906 C 443.0863342285156 203.59800720214844 427.3321838378906 305.1209716796875 382.7629699707031 308.68853759765625 C 476.266845703125 279.2911376953125 523.639892578125 190.22039794921875 388.1454162597656 264.96478271484375 C 472.6875305175781 228.41725158691406 434.0593566894531 185.7845916748047 432.6199035644531 222.22808837890625 C 459.558837890625 274.0096130371094 401.3716735839844 247.7008819580078 428.3491516113281 210.81105041503906" stroke-width="0.0" fill="rgb(72, 140, 34)" opacity="0.015903147" stroke="rgb(0, 0, 0)" stroke-opacity="1.0" stroke-linecap="round" stroke-linejoin="round"/>
    <path d="M 86.76630401611328 281.1752624511719 C 109.54139709472656 299.5941467285156 91.99177551269531 350.8123474121094 112.63289642333984 431.0368957519531 C 7.5497727394104 387.6863708496094 -17.13869857788086 359.2671813964844 -24.878589630126953 253.6544647216797 C 37.08488845825195 203.85403442382812 9.018648147583008 116.3646469116211 74.03266906738281 176.754638671875 C 95.93821716308594 229.25564575195312 98.51944732666016 306.6595458984375 86.76630401611328 281.1752624511719" stroke-width="0.0" fill="rgb(96, 16, 139)" opacity="0.9899753" stroke="rgb(0, 0, 0)" stroke-opacity="1.0" stroke-linecap="round" stroke-linejoin="round"/>
    <path d="M 346.6747131347656 280.1380920410156 C 327.77880859375 293.0802917480469 296.16192626953125 207.36671447753906 297.74053955078125 183.23023986816406 C 306.8313293457031 163.5899658203125 264.09857177734375 155.41921997070312 262.8632507324219 165.05784606933594 C 271.67828369140625 148.74752807617188 290.82196044921875 166.0025634765625 294.5474548339844 174.8862762451172 C 297.6500549316406 159.73973083496094 372.99835205078125 146.9501495361328 346.6747131347656 280.1380920410156" stroke-width="0.0" fill="rgb(39, 255, 221)" opacity="1.0" stroke="rgb(0, 0, 0)" stroke-opacity="1.0" stroke-linecap="round" stroke-linejoin="round"/>
    <path d="M 198.492919921875 93.40789031982422 C 193.16204833984375 91.74806213378906 201.78781127929688 109.84588623046875 229.06582641601562 101.12721252441406 C 104.66692352294922 74.24848937988281 105.6854476928711 199.33782958984375 83.252197265625 140.879150390625 C 148.40753173828125 60.349090576171875 243.12960815429688 102.76065063476562 204.16932678222656 96.86919403076172 C 206.50070190429688 90.27639770507812 214.58316040039062 93.78154754638672 198.492919921875 93.40789031982422" stroke-width="0.0" fill="rgb(253, 251, 97)" opacity="0.7439626" stroke="rgb(0, 0, 0)" stroke-opacity="1.0" stroke-linecap="round" stroke-linejoin="round"/>
    <path d="M 99.5070571899414 137.5099334716797 C 143.74586486816406 150.43536376953125 133.1874542236328 138.1905975341797 145.38711547851562 131.35568237304688 C 117.27564239501953 130.20010375976562 55.510433197021484 140.84410095214844 72.51219177246094 98.09229278564453 C -19.05192756652832 151.42320251464844 25.59685707092285 19.768901824951172 247.11380004882812 81.01091766357422 C 128.049072265625 148.31817626953125 112.80266571044922 138.0355224609375 99.5070571899414 137.5099334716797" stroke-width="0.0" fill="rgb(249, 246, 26)" opacity="0.99402416" stroke="rgb(0, 0, 0)" stroke-opacity="1.0" stroke-linecap="round" stroke-linejoin="round"/>
    <path d="M 317.5472106933594 238.53192138671875 C 297.6641540527344 303.3152770996094 330.52264404296875 303.5685119628906 275.7532653808594 278.2876892089844 C 216.7374725341797 274.76312255859375 240.6580352783203 239.0019073486328 234.85191345214844 253.991943359375 C 255.8577423095703 223.5797119140625 279.4129638671875 219.25692749023438 284.06365966796875 222.35581970214844 C 282.389404296875 221.46739196777344 306.4920959472656 229.02328491210938 317.5472106933594 238.53192138671875" stroke-width="0.0" fill="rgb(96, 251, 224)" opacity="0.98488545" stroke="rgb(0, 0, 0)" stroke-opacity="1.0" stroke-linecap="round" stroke-linejoin="round"/>
    <path d="M 285.2344970703125 225.2870635986328 C 256.57330322265625 207.97308349609375 209.13572692871094 53.776390075683594 193.32421875 156.7546844482422 C 225.2502899169922 255.8189697265625 147.34872436523438 356.19036865234375 91.4754867553711 120.33351135253906 C 156.758056640625 39.36775588989258 226.15585327148438 100.90792083740234 199.32078552246094 142.20968627929688 C 234.96006774902344 52.42176055908203 191.6998291015625 119.02765655517578 285.2344970703125 225.2870635986328" stroke-width="0.0" fill="rgb(251, 245, 9)" opacity="0.9902711" stroke="rgb(0, 0, 0)" stroke-opacity="1.0" stroke-linecap="round" stroke-linejoin="round"/>
    <path d="M 385.3778076171875 380.5104064941406 C 337.0379638671875 279.62774658203125 289.14532470703125 353.64398193359375 336.37347412109375 348.5301818847656 C 301.5186767578125 357.43719482421875 304.95281982421875 318.765625 317.20367431640625 329.149658203125 C 311.5720520019531 333.2922058105469 317.57977294921875 300.09649658203125 317.23333740234375 359.0007019042969 C 264.41156005859375 304.4261169433594 474.68780517578125 284.91180419921875 385.3778076171875 380.5104064941406" stroke-width="0.0" fill="rgb(92, 233, 241)" opacity="0.99050176" stroke="rgb(0, 0, 0)" stroke-opacity="1.0" stroke-linecap="round" stroke-linejoin="round"/>
    <path d="M 7.6602020263671875 523.527099609375 C 16.928863525390625 520.4954833984375 10.451606750488281 527.2847900390625 0.7705464363098145 530.8681030273438 C -9.364206314086914 527.7437133789062 -16.68471336364746 520.4232177734375 -19.53505516052246 510.3761291503906 C -16.513290405273438 500.47222900390625 -9.497283935546875 493.1925964355469 -12.406676292419434 503.4660339355469 C -4.264515399932861 507.9687805175781 3.0665524005889893 515.3460693359375 7.6602020263671875 523.527099609375" stroke-width="0.0" fill="rgb(253, 10, 0)" opacity="0.1198675" stroke="rgb(0, 0, 0)" stroke-opacity="1.0" stroke-linecap="round" stroke-linejoin="round"/>
    <path d="M 138.87721252441406 258.9302978515625 C 171.1132354736328 398.3941955566406 143.2423858642578 388.3752136230469 156.99929809570312 275.9144287109375 C 165.14163208007812 184.08937072753906 168.91978454589844 149.7947540283203 165.5972900390625 131.6586456298828 C 134.7357940673828 77.6568832397461 67.1720962524414 132.77577209472656 120.30144500732422 98.68875122070312 C 147.93959045410156 146.09169006347656 149.37759399414062 194.45587158203125 138.87721252441406 258.9302978515625" stroke-width="0.0" fill="rgb(255, 153, 4)" opacity="0.66307515" stroke="rgb(0, 0, 0)" stroke-opacity="1.0" stroke-linecap="round" stroke-linejoin="round"/>
    <path d="M 338.3675231933594 367.3129577636719 C 313.0201721191406 399.7608337402344 295.1095275878906 312.0079345703125 312.9178771972656 287.5226135253906 C 305.18316650390625 304.7685546875 322.10784912109375 332.6777648925781 270.1836242675781 343.5458679199219 C 223.98330688476562 355.0221862792969 263.68170166015625 282.84246826171875 303.8283386230469 272.4311828613281 C 296.5836181640625 309.8024597167969 406.2681579589844 311.38385009765625 338.3675231933594 367.3129577636719" stroke-width="0.0" fill="rgb(122, 255, 225)" opacity="1.0" stroke="rgb(0, 0, 0)" stroke-opacity="1.0" stroke-linecap="round" stroke-linejoin="round"/>
    <path d="M 276.9358825683594 111.26719665527344 C 185.5187225341797 152.71408081054688 221.4268341064453 228.05844116210938 190.3327178955078 233.97854614257812 C 201.20751953125 148.81436157226562 228.1517791748047 102.86824035644531 225.84420776367188 114.5726318359375 C 198.4970703125 118.28634643554688 200.2765350341797 84.91429138183594 148.98696899414062 89.83000946044922 C 211.31248474121094 69.64688110351562 290.63568115234375 79.75052642822266 276.9358825683594 111.26719665527344" stroke-width="0.0" fill="rgb(255, 213, 0)" opacity="1.0" stroke="rgb(0, 0, 0)" stroke-opacity="1.0" stroke-linecap="round" stroke-linejoin="round"/>
    <path d="M 303.972412109375 422.02374267578125 C 239.5524444580078 426.93707275390625 295.8836364746094 441.1468505859375 293.52783203125 408.75274658203125 C 210.86106872558594 444.9722900390625 169.29205322265625 379.2232666015625 183.98849487304688 279.0462341308594 C 161.4204559326172 395.4562072753906 289.57305908203125 419.7869567871094 217.2515106201172 381.857666015625 C 245.1095428466797 393.69189453125 224.5666961669922 406.6440124511719 303.972412109375 422.02374267578125" stroke-width="0.0" fill="rgb(250, 196, 37)" opacity="0.74953526" stroke="rgb(0, 0, 0)" stroke-opacity="1.0" stroke-linecap="round" stroke-linejoin="round"/>
    <path d="M 139.50018310546875 235.5939483642578 C 146.44029235839844 255.5415802001953 154.13633728027344 283.0591735839844 157.87144470214844 353.1269226074219 C 99.78677368164062 380.5917053222656 121.8177490234375 294.07147216796875 110.34215545654297 274.8615417480469 C 109.7300033569336 128.79864501953125 57.76248550415039 145.76788330078125 92.00984191894531 99.3840560913086 C 177.947509765625 196.87130737304688 147.1710205078125 337.7093200683594 139.50018310546875 235.5939483642578" stroke-width="0.0" fill="rgb(250, 243, 29)" opacity="0.5805332" stroke="rgb(0, 0, 0)" stroke-opacity="1.0" stroke-linecap="round" stroke-linejoin="round"/>
    <path d="M 260.5208435058594 99.08173370361328 C 229.98512268066406 137.80548095703125 217.65390014648438 136.5376434326172 209.20611572265625 177.64413452148438 C 159.30555725097656 204.40248107910156 184.1810302734375 146.8271026611328 186.714111328125 100.81063079833984 C 173.640625 103.21205139160156 187.94244384765625 111.0970230102539 127.5518569946289 92.5915756225586 C 193.1172332763672 55.36997985839844 231.97503662109375 72.8557357788086 260.5208435058594 99.08173370361328" stroke-width="0.0" fill="rgb(255, 251, 3)" opacity="1.0" stroke="rgb(0, 0, 0)" stroke-opacity="1.0" stroke-linecap="round" stroke-linejoin="round"/>
    <path d="M 437.27001953125 272.4151306152344 C 423.8233337402344 273.27581787109375 475.60406494140625 314.494140625 464.6566162109375 337.4460144042969 C 396.9290466308594 330.0309753417969 406.2223205566406 326.4507141113281 399.6165771484375 263.1213073730469 C 382.45263671875 238.10520935058594 367.96435546875 240.66531372070312 428.82781982421875 219.2803497314453 C 476.34283447265625 234.79783630371094 489.47332763671875 247.4936065673828 437.27001953125 272.4151306152344" stroke-width="0.0" fill="rgb(104, 255, 195)" opacity="1.0" stroke="rgb(0, 0, 0)" stroke-opacity="1.0" stroke-linecap="round" stroke-linejoin="round"/>
    <path d="M 295.1441650390625 391.071533203125 C 245.87850952148438 394.0909118652344 231.92982482910156 397.5677185058594 262.2984619140625 417.64422607421875 C 239.3616180419922 418.7304382324219 223.0925750732422 403.436279296875 199.3793487548828 391.34759521484375 C 207.12059020996094 400.3786926269531 200.28067016601562 398.1983642578125 232.50448608398438 406.1974792480469 C 266.2063903808594 416.2231750488281 272.6939697265625 406.14483642578125 295.1441650390625 391.071533203125" stroke-width="0.0" fill="rgb(252, 202, 52)" opacity="0.82984143" stroke="rgb(0, 0, 0)" stroke-opacity="1.0" stroke-linecap="round" stroke-linejoin="round"/>
    <path d="M 402.8385314941406 285.7393493652344 C 354.4386291503906 280.2512512207031 353.64459228515625 285.67401123046875 351.6537170410156 317.83990478515625 C 311.22174072265625 313.5478515625 280.4075927734375 275.0665283203125 309.4533996582031 228.43357849121094 C 306.90155029296875 231.77066040039062 323.8537902832031 214.42205810546875 354.7143249511719 213.30140686035156 C 374.54351806640625 206.23609924316406 428.8080749511719 229.09353637695312 402.8385314941406 285.7393493652344" stroke-width="0.0" fill="rgb(251, 156, 0)" opacity="1.0" stroke="rgb(0, 0, 0)" stroke-opacity="1.0" stroke-linecap="round" stroke-linejoin="round"/>
    <path d="M 223.26882934570312 276.3528137207031 C 230.5132598876953 279.17523193359375 251.06883239746094 277.7109069824219 133.01583862304688 271.5716857910156 C 132.414794921875 289.9786071777344 141.636474609375 294.8585510253906 155.28912353515625 288.8526611328125 C 171.97543334960938 288.36480712890625 227.14312744140625 281.69171142578125 213.05067443847656 280.7530517578125 C 220.93740844726562 276.10845947265625 214.5136260986328 277.7635803222656 223.26882934570312 276.3528137207031" stroke-width="0.0" fill="rgb(25, 2, 99)" opacity="0.90999156" stroke="rgb(0, 0, 0)" stroke-opacity="1.0" stroke-linecap="round" stroke-linejoin="round"/>
    <path d="M 278.4136047363281 387.04925537109375 C 293.643798828125 367.1948547363281 298.6620178222656 410.84832763671875 284.77825927734375 433.4853820800781 C 264.2125244140625 424.0011901855469 283.02337646484375 387.9445495605469 281.87164306640625 407.5384216308594 C 280.0774230957031 403.23370361328125 284.3554382324219 370.09881591796875 279.46478271484375 377.8231201171875 C 289.668212890625 375.22613525390625 292.1932678222656 397.4921875 278.4136047363281 387.04925537109375" stroke-width="0.0" fill="rgb(67, 56, 96)" opacity="0.7876984" stroke="rgb(0, 0, 0)" stroke-opacity="1.0" stroke-linecap="round" stroke-linejoin="round"/>
    <path d="M 374.8287048339844 432.6678466796875 C 367.5954895019531 442.6884765625 342.4162902832031 419.21673583984375 358.77001953125 428.0791015625 C 363.1956481933594 431.26031494140625 305.5442810058594 446.54345703125 313.9512023925781 423.0718688964844 C 355.43975830078125 349.79351806640625 335.44757080078125 321.1292419433594 386.2849426269531 368.791259765625 C 407.78143310546875 370.2471618652344 398.7103576660156 376.39251708984375 374.8287048339844 432.6678466796875" stroke-width="0.0" fill="rgb(255, 249, 11)" opacity="0.9840597" stroke="rgb(0, 0, 0)" stroke-opacity="1.0" stroke-linecap="round" stroke-linejoin="round"/>
    <path d="M 381.0237731933594 -11.133917808532715 C 375.20184326171875 44.151702880859375 386.8177795410156 44.29976272583008 346.50445556640625 45.22726821899414 C 324.16680908203125 45.91374588012695 328.29425048828125 40.573055267333984 327.7493591308594 6.5720415115356445 C 310.8348693847656 -19.4268741607666 295.0309143066406 -44.524993896484375 279.3028869628906 5.666677474975586 C 322.3531494140625 15.167474746704102 325.4317626953125 -4.396848201751709 381.0237731933594 -11.133917808532715" stroke-width="0.0" fill="rgb(84, 57, 12)" opacity="0.09430657" stroke="rgb(0, 0, 0)" stroke-opacity="1.0" stroke-linecap="round" stroke-linejoin="round"/>
    <path d="M 96.34400939941406 157.76397705078125 C 112.1139144897461 179.43521118164062 121.42817687988281 171.0403289794922 97.11749267578125 137.63632202148438 C 101.70006561279297 156.5598602294922 83.67636108398438 148.95814514160156 79.30657196044922 132.53952026367188 C 55.522979736328125 114.9666519165039 48.9633903503418 99.61626434326172 74.36572265625 102.14048767089844 C 103.96122741699219 110.46256256103516 95.39087677001953 126.27337646484375 96.34400939941406 157.76397705078125" stroke-width="0.0" fill="rgb(239, 253, 16)" opacity="0.9907906" stroke="rgb(0, 0, 0)" stroke-opacity="1.0" stroke-linecap="round" stroke-linejoin="round"/>
    <path d="M 392.13287353515625 346.3517150878906 C 380.4327697753906 348.74664306640625 392.3694763183594 326.9637756347656 406.0708923339844 303.8961181640625 C 422.616943359375 321.983154296875 413.88262939453125 321.19305419921875 369.3898620605469 322.0816955566406 C 371.3606262207031 316.76312255859375 385.5673828125 299.8195495605469 404.7000427246094 292.043212890625 C 406.94989013671875 294.7122497558594 406.13427734375 308.8775634765625 392.13287353515625 346.3517150878906" stroke-width="0.0" fill="rgb(84, 244, 214)" opacity="0.9959276" stroke="rgb(0, 0, 0)" stroke-opacity="1.0" stroke-linecap="round" stroke-linejoin="round"/>
    <path d="M 289.7733459472656 427.3824462890625 C 274.05096435546875 437.1236877441406 266.9867248535156 443.1789855957031 272.4757080078125 436.1427001953125 C 278.76934814453125 447.4468078613281 270.3232421875 446.1910400390625 276.0513916015625 426.4051513671875 C 294.4696350097656 393.964599609375 289.1579895019531 400.98321533203125 280.1527404785156 415.8805847167969 C 276.5037536621094 415.0338134765625 295.73297119140625 432.3540344238281 289.7733459472656 427.3824462890625" stroke-width="0.0" fill="rgb(44, 150, 84)" opacity="0.5054751" stroke="rgb(0, 0, 0)" stroke-opacity="1.0" stroke-linecap="round" stroke-linejoin="round"/>
    <path d="M 281.5997009277344 280.8993835449219 C 305.2861633300781 296.01873779296875 308.57989501953125 308.8099365234375 245.7310791015625 303.8630065917969 C 229.97576904296875 292.8360290527344 211.95913696289062 292.7004699707031 215.78094482421875 267.2296447753906 C 213.1445770263672 255.1381378173828 216.35433959960938 258.8493957519531 230.85557556152344 243.31890869140625 C 264.8480529785156 249.64244079589844 279.69793701171875 259.75421142578125 281.5997009277344 280.8993835449219" stroke-width="0.0" fill="rgb(4, 19, 84)" opacity="0.0" stroke="rgb(0, 0, 0)" stroke-opacity="1.0" stroke-linecap="round" stroke-linejoin="round"/>
    <path d="M 169.16770935058594 329.0862121582031 C 186.88470458984375 359.765625 171.76089477539062 361.128662109375 176.4366455078125 353.2598876953125 C 150.83824157714844 365.09613037109375 149.03213500976562 355.9860534667969 146.98741149902344 355.9513244628906 C 160.40179443359375 369.8282165527344 160.2128448486328 358.3980712890625 168.135498046875 330.9330139160156 C 162.4306640625 331.5798645019531 161.6641845703125 323.69122314453125 169.16770935058594 329.0862121582031" stroke-width="0.0" fill="rgb(255, 163, 9)" opacity="0.32771093" stroke="rgb(0, 0, 0)" stroke-opacity="1.0" stroke-linecap="round" stroke-linejoin="round"/>
    <path d="M 411.2871398925781 136.1018524169922 C 411.935791015625 156.09356689453125 426.2129821777344 145.96417236328125 426.16766357421875 136.7495880126953 C 424.22186279296875 128.39324951171875 441.2177429199219 106.05975341796875 436.6013488769531 97.4900131225586 C 423.9446105957031 129.17164611816406 412.5671691894531 110.6659164428711 415.96356201171875 110.39083099365234 C 425.7124328613281 142.50631713867188 443.735107421875 167.41880798339844 411.2871398925781 136.1018524169922" stroke-width="0.0" fill="rgb(69, 61, 43)" opacity="0.08044119" stroke="rgb(0, 0, 0)" stroke-opacity="1.0" stroke-linecap="round" stroke-linejoin="round"/>
    <path d="M 116.4482650756836 486.7403564453125 C 104.46926879882812 500.2989196777344 95.11302185058594 500.9977722167969 53.37109375 494.2918701171875 C 77.56550598144531 492.1156005859375 85.02959442138672 474.511962890625 73.9658432006836 449.1659240722656 C 74.0357666015625 423.1216735839844 69.59512329101562 434.4579772949219 74.63839721679688 452.1227722167969 C 94.70829010009766 447.0108337402344 105.5332260131836 445.5588684082031 116.4482650756836 486.7403564453125" stroke-width="0.0" fill="rgb(132, 22, 55)" opacity="0.0" stroke="rgb(0, 0, 0)" stroke-opacity="1.0" stroke-linecap="round" stroke-linejoin="round"/>
    <path d="M 96.37256622314453 136.2785186767578 C 79.53730010986328 142.93873596191406 73.09679412841797 135.1655731201172 103.62712860107422 139.01593017578125 C 83.13359832763672 139.75509643554688 50.34899139404297 118.47217559814453 45.995487213134766 103.40025329589844 C 65.4938735961914 108.97142791748047 74.7386474609375 99.56732940673828 76.47320556640625 112.12958526611328 C 85.60724639892578 119.46735382080078 98.93959045410156 121.46656799316406 96.37256622314453 136.2785186767578" stroke-width="0.0" fill="rgb(254, 237, 46)" opacity="0.72836816" stroke="rgb(0, 0, 0)" stroke-opacity="1.0" stroke-linecap="round" stroke-linejoin="round"/>
    <path d="M 357.654296875 92.75389862060547 C 365.44903564453125 135.9274139404297 379.8050537109375 113.61274719238281 335.6268310546875 125.92047882080078 C 313.6324462890625 131.14649963378906 310.6550598144531 120.2130126953125 317.1484069824219 63.52497863769531 C 297.45550537109375 45.24267578125 332.5209045410156 77.26991271972656 308.47320556640625 63.36578369140625 C 347.65386962890625 63.11299514770508 328.2811279296875 104.19098663330078 357.654296875 92.75389862060547" stroke-width="0.0" fill="rgb(169, 0, 144)" opacity="0.0026357837" stroke="rgb(0, 0, 0)" stroke-opacity="1.0" stroke-linecap="round" stroke-linejoin="round"/>
    <path d="M 448.51080322265625 482.9568786621094 C 467.50201416015625 488.4580078125 458.20635986328125 508.8294982910156 445.5916442871094 544.8651733398438 C 433.8141784667969 526.1477661132812 440.43408203125 514.4192504882812 448.64019775390625 521.751220703125 C 437.145263671875 515.5540771484375 438.7621154785156 491.5907897949219 426.8678894042969 455.8507080078125 C 434.1044921875 468.1520080566406 426.00579833984375 478.8611145019531 448.51080322265625 482.9568786621094" stroke-width="0.0" fill="rgb(137, 52, 66)" opacity="0.0" stroke="rgb(0, 0, 0)" stroke-opacity="1.0" stroke-linecap="round" stroke-linejoin="round"/>
    <path d="M 458.5390319824219 -8.458560943603516 C 472.6868896484375 1.8194117546081543 473.0808410644531 3.0505332946777344 466.6279602050781 53.21085739135742 C 444.3695983886719 37.077301025390625 443.61920166015625 11.940638542175293 434.32415771484375 -21.343809127807617 C 438.2948303222656 -27.663740158081055 449.97576904296875 -29.339706420898438 454.4328918457031 -29.650333404541016 C 449.2327880859375 -43.59738540649414 454.9668273925781 -40.97572326660156 458.5390319824219 -8.458560943603516" stroke-width="0.0" fill="rgb(117, 56, 26)" opacity="0.033457924" stroke="rgb(0, 0, 0)" stroke-opacity="1.0" stroke-linecap="round" stroke-linejoin="round"/>
    <path d="M 471.4820251464844 6.190820217132568 C 486.03717041015625 44.163787841796875 527.5131225585938 22.955724716186523 486.9438171386719 16.19060707092285 C 514.3658447265625 47.64589309692383 523.600341796875 40.29956817626953 426.00994873046875 54.004024505615234 C 404.7900390625 2.2309112548828125 406.585205078125 -28.27600860595703 478.9610290527344 -36.5555534362793 C 484.0291748046875 14.972785949707031 493.790283203125 16.28108024597168 471.4820251464844 6.190820217132568" stroke-width="0.0" fill="rgb(86, 56, 41)" opacity="0.1069725" stroke="rgb(0, 0, 0)" stroke-opacity="1.0" stroke-linecap="round" stroke-linejoin="round"/>
    <path d="M 42.36333084106445 346.33856201171875 C 33.02418899536133 351.674072265625 43.402095794677734 359.1873779296875 54.57709503173828 361.0434875488281 C 38.91265869140625 349.7248229980469 3.2990663051605225 369.3587341308594 10.901469230651855 339.6880798339844 C -6.962747573852539 292.21697998046875 8.526053428649902 293.94232177734375 32.28239059448242 293.14422607421875 C 38.75070571899414 296.4038391113281 28.170318603515625 328.3308410644531 42.36333084106445 346.33856201171875" stroke-width="0.0" fill="rgb(92, 54, 92)" opacity="0.049082257" stroke="rgb(0, 0, 0)" stroke-opacity="1.0" stroke-linecap="round" stroke-linejoin="round"/>
    <path d="M 212.54791259765625 457.91961669921875 C 202.6492919921875 458.1221923828125 199.25247192382812 469.40045166015625 209.9137420654297 472.6230163574219 C 193.94004821777344 477.61212158203125 192.38491821289062 468.5078125 189.79522705078125 460.22174072265625 C 193.4303436279297 476.0962829589844 196.6453399658203 467.98724365234375 222.24363708496094 471.5754699707031 C 211.8287353515625 463.9299621582031 218.0232391357422 464.7839660644531 212.54791259765625 457.91961669921875" stroke-width="0.0" fill="rgb(45, 73, 109)" opacity="0.008710749" stroke="rgb(0, 0, 0)" stroke-opacity="1.0" stroke-linecap="round" stroke-linejoin="round"/>
    <path d="M 23.82054901123047 371.13336181640625 C 16.594240188598633 371.9400634765625 48.76857376098633 342.95660400390625 58.64461135864258 404.0588073730469 C 41.34918975830078 393.2216491699219 -0.12689030170440674 397.8133544921875 0.053018614649772644 371.47894287109375 C 0.4721205532550812 375.69378662109375 -7.5588531494140625 358.9729919433594 -16.14586067199707 351.1219177246094 C 20.283411026000977 351.87823486328125 29.395906448364258 365.0816955566406 23.82054901123047 371.13336181640625" stroke-width="0.0" fill="rgb(99, 27, 107)" opacity="0.08247593" stroke="rgb(0, 0, 0)" stroke-opacity="1.0" stroke-linecap="round" stroke-linejoin="round"/>
    <path d="M 184.95660400390625 452.8892822265625 C 210.2493133544922 463.8738098144531 205.76223754882812 479.19769287109375 196.1565399169922 474.95135498046875 C 188.92347717285156 450.100341796875 179.29539489746094 427.55755615234375 182.3292999267578 435.57244873046875 C 195.6490936279297 445.8111877441406 182.43946838378906 443.1742858886719 198.7431640625 446.5206298828125 C 182.36285400390625 438.180908203125 181.92022705078125 445.65386962890625 184.95660400390625 452.8892822265625" stroke-width="0.0" fill="rgb(70, 54, 84)" opacity="0.0" stroke="rgb(0, 0, 0)" stroke-opacity="1.0" stroke-linecap="round" stroke-linejoin="round"/>
    <path d="M 384.4480285644531 202.95016479492188 C 371.8724670410156 222.92398071289062 378.3724670410156 215.55068969726562 352.2109069824219 207.43238830566406 C 341.1522521972656 240.3861846923828 341.4074401855469 227.68527221679688 343.43170166015625 220.98521423339844 C 337.64501953125 248.62391662597656 361.1126403808594 220.63296508789062 350.5807800292969 198.0883026123047 C 350.6795349121094 200.25599670410156 371.6662902832031 202.19613647460938 384.4480285644531 202.95016479492188" stroke-width="0.0" fill="rgb(84, 226, 173)" opacity="0.020045672" stroke="rgb(0, 0, 0)" stroke-opacity="1.0" stroke-linecap="round" stroke-linejoin="round"/>
    <path d="M 216.81906127929688 282.2338562011719 C 154.18812561035156 286.36993408203125 156.0624542236328 296.50335693359375 170.7705078125 269.27545166015625 C 151.9530487060547 284.6307067871094 144.31350708007812 294.4506530761719 175.43136596679688 298.61346435546875 C 135.9094696044922 252.09288024902344 147.24923706054688 243.2075958251953 172.66619873046875 245.32577514648438 C 199.0322265625 239.17965698242188 223.4986572265625 244.77130126953125 216.81906127929688 282.2338562011719" stroke-width="0.0" fill="rgb(255, 219, 113)" opacity="0.098534785" stroke="rgb(0, 0, 0)" stroke-opacity="1.0" stroke-linecap="round" stroke-linejoin="round"/>
    <path d="M 183.06723022460938 484.6043395996094 C 160.907470703125 481.832763671875 168.26002502441406 448.6946105957031 162.4224395751953 450.559814453125 C 173.57554626464844 449.8736267089844 187.54200744628906 423.29376220703125 177.8534698486328 455.7635498046875 C 177.82110595703125 443.5755615234375 190.54544067382812 440.2955322265625 197.09475708007812 436.8272399902344 C 175.38697814941406 432.50042724609375 185.51541137695312 451.0714416503906 183.06723022460938 484.6043395996094" stroke-width="0.0" fill="rgb(184, 72, 2)" opacity="0.016228622" stroke="rgb(0, 0, 0)" stroke-opacity="1.0" stroke-linecap="round" stroke-linejoin="round"/>
    <path d="M 511.07012939453125 214.54090881347656 C 517.0919799804688 288.0636901855469 517.9630737304688 277.7134704589844 500.9560546875 257.8446960449219 C 467.5227966308594 267.4371643066406 479.0947265625 249.19232177734375 483.4748840332031 225.4984893798828 C 481.0959167480469 212.95541381835938 464.1169738769531 215.9409942626953 473.86212158203125 220.65098571777344 C 506.0718994140625 227.85171508789062 516.7792358398438 209.03680419921875 511.07012939453125 214.54090881347656" stroke-width="0.0" fill="rgb(176, 24, 40)" opacity="0.0" stroke="rgb(0, 0, 0)" stroke-opacity="1.0" stroke-linecap="round" stroke-linejoin="round"/>
  </g>
</svg>
