<?xml version="1.0" ?>
<svg xmlns="http://www.w3.org/2000/svg" version="1.1" width="512" height="512">
  <defs/>
  <g>
    <path d="M 535.8482666015625 467.92889404296875 C 548.88232421875 518.2211303710938 549.809814453125 525.8021850585938 376.4955749511719 534.7133178710938 C 319.8116760253906 553.704833984375 298.0923156738281 551.8467407226562 260.6502380371094 462.3638916015625 C 299.4576416015625 349.9173583984375 415.1929931640625 356.1748046875 545.8119506835938 349.3343811035156 C 566.4047241210938 338.88568115234375 567.093505859375 355.5373840332031 535.8482666015625 467.92889404296875" stroke-width="0.0" fill="rgb(81, 0, 103)" opacity="0.9876089" stroke="rgb(0, 0, 0)" stroke-opacity="1.0" stroke-linecap="round" stroke-linejoin="round"/>
    <path d="M 287.14093017578125 491.1309814453125 C 331.8868103027344 532.7874755859375 346.27496337890625 544.7369384765625 216.36123657226562 537.9781494140625 C -51.100406646728516 521.1051635742188 -51.19970703125 512.4564819335938 -59.480194091796875 480.6455993652344 C -48.67070388793945 213.37924194335938 -38.401309967041016 209.04278564453125 4.4916887283325195 227.6831817626953 C 132.5849609375 322.0791015625 171.00790405273438 310.5650939941406 287.14093017578125 491.1309814453125" stroke-width="0.0" fill="rgb(38, 71, 255)" opacity="0.8023665" stroke="rgb(0, 0, 0)" stroke-opacity="1.0" stroke-linecap="round" stroke-linejoin="round"/>
    <path d="M 301.27276611328125 373.78448486328125 C 337.25054931640625 447.6997375488281 306.12530517578125 430.7522277832031 219.56887817382812 441.43792724609375 C 87.80812072753906 341.42877197265625 125.81568145751953 277.154052734375 85.53617858886719 151.3516387939453 C 55.26581573486328 194.12828063964844 44.49272918701172 180.4123077392578 104.26365661621094 172.9351348876953 C 268.81109619140625 176.44056701660156 281.97991943359375 139.58155822753906 301.27276611328125 373.78448486328125" stroke-width="0.0" fill="rgb(255, 253, 44)" opacity="0.9969293" stroke="rgb(0, 0, 0)" stroke-opacity="1.0" stroke-linecap="round" stroke-linejoin="round"/>
    <path d="M 270.719970703125 13.619138717651367 C 272.57818603515625 236.30575561523438 249.44259643554688 174.05599975585938 41.1826171875 249.92835998535156 C -65.23426818847656 238.2857208251953 -59.04840087890625 232.1320037841797 -40.83869552612305 188.12542724609375 C -16.494123458862305 -18.97837257385254 -10.838438034057617 -25.126850128173828 28.991910934448242 -23.870601654052734 C 197.67405700683594 -26.70555877685547 221.3753204345703 -37.396366119384766 270.719970703125 13.619138717651367" stroke-width="0.0" fill="rgb(39, 86, 250)" opacity="0.8873812" stroke="rgb(0, 0, 0)" stroke-opacity="1.0" stroke-linecap="round" stroke-linejoin="round"/>
    <path d="M 593.5833129882812 89.32875061035156 C 469.66949462890625 308.0816650390625 446.32952880859375 300.0392150878906 379.8405456542969 317.0162658691406 C 280.3834228515625 318.0656433105469 299.5087890625 303.0910339355469 252.48699951171875 180.0142822265625 C 275.23236083984375 2.1540610790252686 202.33534240722656 -30.198511123657227 349.5577697753906 -32.41804504394531 C 563.2000122070312 -5.52442741394043 563.2000122070312 4.830130577087402 593.5833129882812 89.32875061035156" stroke-width="0.0" fill="rgb(41, 23, 203)" opacity="0.8576662" stroke="rgb(0, 0, 0)" stroke-opacity="1.0" stroke-linecap="round" stroke-linejoin="round"/>
    <path d="M 349.4994812011719 71.24335479736328 C 295.77777099609375 283.6651611328125 243.0298614501953 259.37725830078125 149.78440856933594 199.28106689453125 C 25.96193504333496 226.45228576660156 12.84090805053711 247.51011657714844 117.6091079711914 257.49365234375 C 159.8656768798828 200.65017700195312 149.48431396484375 159.28854370117188 291.36273193359375 21.09173011779785 C 312.62457275390625 -76.73170471191406 321.6492614746094 -44.775699615478516 349.4994812011719 71.24335479736328" stroke-width="0.0" fill="rgb(213, 199, 16)" opacity="0.94078773" stroke="rgb(0, 0, 0)" stroke-opacity="1.0" stroke-linecap="round" stroke-linejoin="round"/>
    <path d="M 487.547607421875 309.1136779785156 C 428.4730224609375 360.90948486328125 427.93792724609375 442.89300537109375 317.8170471191406 463.0533447265625 C 274.8995056152344 421.3748474121094 271.4813232421875 426.45806884765625 273.1745300292969 368.7388916015625 C 270.7933654785156 152.16488647460938 256.1183166503906 161.99044799804688 367.46136474609375 183.12730407714844 C 442.5751953125 253.84239196777344 483.8908996582031 246.42376708984375 487.547607421875 309.1136779785156" stroke-width="0.0" fill="rgb(231, 24, 6)" opacity="0.9980409" stroke="rgb(0, 0, 0)" stroke-opacity="1.0" stroke-linecap="round" stroke-linejoin="round"/>
    <path d="M 570.281005859375 193.702880859375 C 576.97607421875 347.8399963378906 566.8274536132812 351.04461669921875 451.53729248046875 414.1779479980469 C 346.0723876953125 413.8468017578125 399.10833740234375 347.74285888671875 398.1646728515625 292.72698974609375 C 388.09326171875 249.21461486816406 452.8567810058594 223.290771484375 610.5391235351562 166.2749786376953 C 563.2000122070312 76.2098159790039 563.2000122070312 99.41815185546875 570.281005859375 193.702880859375" stroke-width="0.0" fill="rgb(72, 11, 113)" opacity="0.9973684" stroke="rgb(0, 0, 0)" stroke-opacity="1.0" stroke-linecap="round" stroke-linejoin="round"/>
    <path d="M 442.77252197265625 238.70643615722656 C 420.83404541015625 284.06512451171875 374.2300109863281 228.89453125 388.8495788574219 219.1657257080078 C 364.3374328613281 223.81007385253906 312.61737060546875 194.7110595703125 173.72837829589844 227.471435546875 C 216.92660522460938 113.70854187011719 279.9918212890625 141.13473510742188 338.1953430175781 142.52294921875 C 347.1802062988281 159.7421112060547 396.4423828125 173.77456665039062 442.77252197265625 238.70643615722656" stroke-width="0.0" fill="rgb(228, 18, 11)" opacity="1.0" stroke="rgb(0, 0, 0)" stroke-opacity="1.0" stroke-linecap="round" stroke-linejoin="round"/>
    <path d="M 454.7908630371094 247.29014587402344 C 463.4921875 306.3604736328125 430.753662109375 418.0924072265625 370.5137023925781 453.13616943359375 C 341.01837158203125 300.310791015625 386.6959228515625 252.2906951904297 305.6411437988281 149.45965576171875 C 415.70086669921875 173.25942993164062 338.9334411621094 250.38327026367188 316.7496337890625 148.47422790527344 C 426.68798828125 95.68333435058594 459.3110046386719 242.70863342285156 454.7908630371094 247.29014587402344" stroke-width="0.0" fill="rgb(221, 31, 0)" opacity="1.0" stroke="rgb(0, 0, 0)" stroke-opacity="1.0" stroke-linecap="round" stroke-linejoin="round"/>
    <path d="M 360.2097473144531 100.17125701904297 C 289.5287170410156 75.01133728027344 267.99176025390625 97.30789184570312 263.9163513183594 178.5522918701172 C 229.58905029296875 198.9090576171875 189.1667022705078 148.20977783203125 73.04003143310547 164.64697265625 C 72.24274444580078 -46.232418060302734 94.3813247680664 -50.30535125732422 272.5224914550781 -88.1072769165039 C 383.089111328125 -80.13733673095703 384.4680480957031 1.208781123161316 360.2097473144531 100.17125701904297" stroke-width="0.0" fill="rgb(63, 99, 254)" opacity="0.99905837" stroke="rgb(0, 0, 0)" stroke-opacity="1.0" stroke-linecap="round" stroke-linejoin="round"/>
    <path d="M 315.5726623535156 427.7574157714844 C 251.96104431152344 458.61407470703125 212.30194091796875 443.33416748046875 188.46669006347656 402.8042297363281 C 157.4638671875 356.12176513671875 114.96435546875 400.54541015625 210.76519775390625 413.8331604003906 C 169.4741973876953 351.9458923339844 174.90267944335938 260.9653625488281 170.4700164794922 300.30126953125 C 244.53318786621094 349.12384033203125 171.0732879638672 369.3174743652344 315.5726623535156 427.7574157714844" stroke-width="0.0" fill="rgb(255, 254, 52)" opacity="0.8424488" stroke="rgb(0, 0, 0)" stroke-opacity="1.0" stroke-linecap="round" stroke-linejoin="round"/>
    <path d="M 469.8514404296875 407.53228759765625 C 452.3665771484375 414.3824462890625 465.2081298828125 440.80029296875 422.46881103515625 441.0409240722656 C 393.33941650390625 475.8267822265625 411.0289306640625 445.5916442871094 378.9449462890625 441.267822265625 C 401.9189453125 445.9784851074219 435.3053283691406 420.1161804199219 429.2265319824219 412.45330810546875 C 439.9991760253906 401.85638427734375 474.0765380859375 404.9966735839844 469.8514404296875 407.53228759765625" stroke-width="0.0" fill="rgb(78, 9, 124)" opacity="0.26186454" stroke="rgb(0, 0, 0)" stroke-opacity="1.0" stroke-linecap="round" stroke-linejoin="round"/>
    <path d="M 350.36053466796875 400.5882263183594 C 331.168212890625 477.0048522949219 350.4629821777344 486.1085205078125 291.14959716796875 492.92706298828125 C 240.60275268554688 458.2449035644531 229.30845642089844 432.553466796875 219.2136993408203 432.053955078125 C 251.35585021972656 445.4419250488281 279.2737731933594 452.3897399902344 290.164794921875 421.3829040527344 C 307.2494812011719 455.6143798828125 351.0250244140625 430.71197509765625 350.36053466796875 400.5882263183594" stroke-width="0.0" fill="rgb(65, 0, 116)" opacity="0.9512465" stroke="rgb(0, 0, 0)" stroke-opacity="1.0" stroke-linecap="round" stroke-linejoin="round"/>
    <path d="M 271.3739013671875 235.1495819091797 C 267.45184326171875 262.61474609375 229.969970703125 306.46539306640625 265.84954833984375 315.8092041015625 C 144.44342041015625 350.2165832519531 149.6453094482422 314.51171875 168.89573669433594 266.9269714355469 C 156.0281982421875 145.0373992919922 133.09861755371094 106.38648986816406 232.26141357421875 135.67739868164062 C 318.75604248046875 138.71250915527344 301.4100341796875 167.20062255859375 271.3739013671875 235.1495819091797" stroke-width="0.0" fill="rgb(255, 253, 46)" opacity="1.0" stroke="rgb(0, 0, 0)" stroke-opacity="1.0" stroke-linecap="round" stroke-linejoin="round"/>
    <path d="M 430.974853515625 425.1292419433594 C 415.51031494140625 477.96392822265625 400.7208251953125 479.13720703125 371.77264404296875 485.12823486328125 C 331.6921691894531 483.7937316894531 296.71307373046875 496.4476623535156 321.7734069824219 482.4849548339844 C 317.76617431640625 429.39654541015625 310.7615661621094 453.27215576171875 380.2189636230469 451.17462158203125 C 434.6135559082031 392.7239685058594 427.08416748046875 388.2474060058594 430.974853515625 425.1292419433594" stroke-width="0.0" fill="rgb(78, 0, 119)" opacity="0.9515041" stroke="rgb(0, 0, 0)" stroke-opacity="1.0" stroke-linecap="round" stroke-linejoin="round"/>
    <path d="M 261.7185363769531 246.2058563232422 C 238.36195373535156 266.1009521484375 214.55404663085938 308.4438781738281 265.743896484375 314.3401794433594 C 257.7728271484375 367.9581604003906 257.60955810546875 389.7462463378906 247.75184631347656 410.3175048828125 C 264.940185546875 459.31719970703125 282.1361389160156 459.3932189941406 273.1380920410156 425.55419921875 C 250.16558837890625 413.57916259765625 275.4179992675781 390.0791320800781 261.7185363769531 246.2058563232422" stroke-width="0.0" fill="rgb(250, 255, 42)" opacity="0.9999054" stroke="rgb(0, 0, 0)" stroke-opacity="1.0" stroke-linecap="round" stroke-linejoin="round"/>
    <path d="M 225.50137329101562 140.214111328125 C 34.58953857421875 63.40631866455078 58.223445892333984 410.05914306640625 186.03353881835938 451.50238037109375 C 78.77964782714844 245.92591857910156 257.6491394042969 90.95643615722656 94.36290740966797 167.88003540039062 C 6.337276935577393 224.0027313232422 28.516565322875977 186.3255615234375 152.30332946777344 158.46681213378906 C 140.25794982910156 359.2251892089844 141.92539978027344 257.7132263183594 225.50137329101562 140.214111328125" stroke-width="0.0" fill="rgb(255, 254, 45)" opacity="1.0" stroke="rgb(0, 0, 0)" stroke-opacity="1.0" stroke-linecap="round" stroke-linejoin="round"/>
    <path d="M 322.30047607421875 138.84194946289062 C 307.80865478515625 152.63235473632812 277.1355285644531 147.45590209960938 290.5078430175781 146.35243225097656 C 293.2401123046875 175.86073303222656 307.6440734863281 165.4447021484375 283.8428039550781 146.8782958984375 C 250.00772094726562 137.00135803222656 297.4115905761719 131.69686889648438 307.7036437988281 118.93159484863281 C 327.5076599121094 135.13018798828125 327.33477783203125 83.8847885131836 322.30047607421875 138.84194946289062" stroke-width="0.0" fill="rgb(65, 133, 194)" opacity="0.56727964" stroke="rgb(0, 0, 0)" stroke-opacity="1.0" stroke-linecap="round" stroke-linejoin="round"/>
    <path d="M 119.76643371582031 162.59494018554688 C 79.55923461914062 206.43212890625 81.12567138671875 276.635986328125 101.56196594238281 365.60260009765625 C -10.584539413452148 377.8704528808594 -54.445919036865234 349.2447204589844 -55.1806640625 204.33531188964844 C 44.472225189208984 209.2281494140625 25.019968032836914 172.73997497558594 106.48103332519531 98.74077606201172 C 208.66104125976562 146.022216796875 153.22677612304688 115.86776733398438 119.76643371582031 162.59494018554688" stroke-width="0.0" fill="rgb(57, 94, 248)" opacity="0.9882636" stroke="rgb(0, 0, 0)" stroke-opacity="1.0" stroke-linecap="round" stroke-linejoin="round"/>
    <path d="M 203.96392822265625 159.91293334960938 C 129.7725372314453 314.5619201660156 221.2316436767578 348.1711120605469 189.9567108154297 311.6268615722656 C 176.54367065429688 299.195068359375 186.92593383789062 237.1350860595703 179.68130493164062 244.14581298828125 C 130.23562622070312 279.5503845214844 157.79405212402344 261.23486328125 179.9361114501953 244.04835510253906 C 202.005859375 255.76510620117188 200.9683837890625 205.3512725830078 203.96392822265625 159.91293334960938" stroke-width="0.0" fill="rgb(255, 255, 48)" opacity="0.44988272" stroke="rgb(0, 0, 0)" stroke-opacity="1.0" stroke-linecap="round" stroke-linejoin="round"/>
    <path d="M 377.1573181152344 98.2879638671875 C 291.36669921875 222.76876831054688 279.9626159667969 86.52970886230469 273.19952392578125 184.30384826660156 C 267.4794006347656 214.72796630859375 285.653564453125 172.70379638671875 255.83828735351562 119.37738800048828 C 188.76011657714844 57.03075408935547 285.5986633300781 59.4687614440918 292.71490478515625 102.9065170288086 C 295.05035400390625 74.52879333496094 370.10980224609375 68.1556167602539 377.1573181152344 98.2879638671875" stroke-width="0.0" fill="rgb(250, 68, 5)" opacity="0.99673104" stroke="rgb(0, 0, 0)" stroke-opacity="1.0" stroke-linecap="round" stroke-linejoin="round"/>
    <path d="M 291.65679931640625 168.00173950195312 C 266.29931640625 190.86373901367188 276.9861145019531 180.9661865234375 299.7988586425781 188.93658447265625 C 282.5032043457031 193.1071014404297 295.65972900390625 192.69595336914062 290.40301513671875 170.22865295410156 C 282.2176513671875 134.608642578125 269.33355712890625 148.21136474609375 280.1102294921875 176.4062042236328 C 295.5630798339844 169.8407745361328 288.0481872558594 160.16383361816406 291.65679931640625 168.00173950195312" stroke-width="0.0" fill="rgb(94, 130, 30)" opacity="0.009394857" stroke="rgb(0, 0, 0)" stroke-opacity="1.0" stroke-linecap="round" stroke-linejoin="round"/>
    <path d="M 259.8903503417969 428.24114990234375 C 270.2486877441406 432.838134765625 258.2646179199219 450.7210693359375 200.8454132080078 463.1934814453125 C 137.3551788330078 446.5715637207031 152.369384765625 417.77606201171875 164.479248046875 353.8549499511719 C 222.2412872314453 356.2559509277344 205.92694091796875 374.243408203125 201.72389221191406 374.8699951171875 C 203.821044921875 373.4249267578125 206.33041381835938 383.0299072265625 259.8903503417969 428.24114990234375" stroke-width="0.0" fill="rgb(255, 253, 47)" opacity="1.0" stroke="rgb(0, 0, 0)" stroke-opacity="1.0" stroke-linecap="round" stroke-linejoin="round"/>
    <path d="M 379.229248046875 371.8230895996094 C 384.3955078125 415.6334228515625 370.6253662109375 422.406494140625 342.3868103027344 467.9818420410156 C 262.63226318359375 468.4246826171875 248.5298309326172 433.83502197265625 285.6580810546875 376.99609375 C 292.3223876953125 389.8919677734375 332.6319885253906 389.7066650390625 356.5039978027344 317.1266174316406 C 389.4714660644531 331.152587890625 377.3057556152344 366.44207763671875 379.229248046875 371.8230895996094" stroke-width="0.0" fill="rgb(227, 25, 7)" opacity="1.0" stroke="rgb(0, 0, 0)" stroke-opacity="1.0" stroke-linecap="round" stroke-linejoin="round"/>
    <path d="M 276.09259033203125 245.22802734375 C 252.27662658691406 278.11798095703125 262.5157165527344 306.6099548339844 253.511962890625 330.8267517089844 C 245.68911743164062 283.4156799316406 253.84896850585938 274.03143310546875 258.1303405761719 275.3660583496094 C 249.67050170898438 280.69677734375 242.37913513183594 264.19830322265625 241.7815399169922 253.6216583251953 C 251.40538024902344 225.6805419921875 277.17742919921875 223.89154052734375 276.09259033203125 245.22802734375" stroke-width="0.0" fill="rgb(255, 138, 39)" opacity="0.002575233" stroke="rgb(0, 0, 0)" stroke-opacity="1.0" stroke-linecap="round" stroke-linejoin="round"/>
    <path d="M 170.32081604003906 365.12945556640625 C 190.40805053710938 411.4314880371094 198.44654846191406 400.54656982421875 188.71054077148438 368.4762878417969 C 180.92752075195312 343.2304992675781 178.29701232910156 331.60791015625 156.279541015625 315.6631164550781 C 137.1506805419922 375.13470458984375 157.9718780517578 389.41033935546875 183.81723022460938 369.5345153808594 C 156.5841827392578 331.54022216796875 157.15684509277344 347.4688415527344 170.32081604003906 365.12945556640625" stroke-width="0.0" fill="rgb(245, 204, 85)" opacity="0.0004290576" stroke="rgb(0, 0, 0)" stroke-opacity="1.0" stroke-linecap="round" stroke-linejoin="round"/>
    <path d="M 320.278564453125 267.5271301269531 C 314.1443176269531 332.8203430175781 306.1124267578125 324.3744812011719 284.0352783203125 317.5408020019531 C 242.8262481689453 331.1810302734375 249.67408752441406 307.2974853515625 253.49179077148438 313.6318054199219 C 238.9830322265625 292.22430419921875 239.1527557373047 252.34780883789062 277.6433410644531 271.04193115234375 C 297.42889404296875 268.9800109863281 305.30126953125 250.87623596191406 320.278564453125 267.5271301269531" stroke-width="0.0" fill="rgb(90, 40, 0)" opacity="0.9224781" stroke="rgb(0, 0, 0)" stroke-opacity="1.0" stroke-linecap="round" stroke-linejoin="round"/>
    <path d="M 417.6988525390625 95.0678482055664 C 415.104736328125 142.96116638183594 377.6449279785156 151.0797119140625 357.7437744140625 161.37969970703125 C 280.2649230957031 166.6344757080078 256.2492370605469 160.78370666503906 280.4419860839844 97.42483520507812 C 295.5519714355469 60.47773361206055 329.19683837890625 57.04816818237305 343.5292663574219 58.006832122802734 C 371.6404724121094 53.10226058959961 378.3880615234375 63.57792282104492 417.6988525390625 95.0678482055664" stroke-width="0.0" fill="rgb(34, 255, 2)" opacity="1.0" stroke="rgb(0, 0, 0)" stroke-opacity="1.0" stroke-linecap="round" stroke-linejoin="round"/>
    <path d="M 320.3734130859375 226.94725036621094 C 278.3504638671875 245.60340881347656 269.937744140625 252.5359649658203 275.0442810058594 231.44381713867188 C 289.69622802734375 221.0671844482422 286.5224304199219 239.63804626464844 275.0809631347656 237.56539916992188 C 275.9268798828125 144.27809143066406 247.93170166015625 140.5821533203125 294.2656555175781 162.45640563964844 C 309.6637268066406 163.9730682373047 311.37725830078125 188.5150604248047 320.3734130859375 226.94725036621094" stroke-width="0.0" fill="rgb(232, 23, 13)" opacity="1.0" stroke="rgb(0, 0, 0)" stroke-opacity="1.0" stroke-linecap="round" stroke-linejoin="round"/>
    <path d="M 281.9512634277344 252.83445739746094 C 263.2668762207031 255.4584503173828 257.8492431640625 274.3040771484375 276.8818664550781 247.61367797851562 C 276.2598876953125 257.1202392578125 280.457763671875 267.8650207519531 284.1114196777344 257.0818786621094 C 281.7305908203125 234.79029846191406 271.7900695800781 228.56764221191406 277.2181701660156 259.6812438964844 C 284.87554931640625 257.3195495605469 286.5458679199219 262.5880126953125 281.9512634277344 252.83445739746094" stroke-width="0.0" fill="rgb(192, 56, 5)" opacity="0.059150156" stroke="rgb(0, 0, 0)" stroke-opacity="1.0" stroke-linecap="round" stroke-linejoin="round"/>
    <path d="M 387.99383544921875 215.94723510742188 C 350.81146240234375 200.95510864257812 362.3168640136719 237.45181274414062 356.85333251953125 228.0986785888672 C 359.8677978515625 221.00338745117188 346.2798156738281 207.91488647460938 329.0366516113281 191.6441650390625 C 325.6925964355469 183.65562438964844 323.7900695800781 179.4232177734375 366.52313232421875 172.7512969970703 C 391.1908264160156 193.3248748779297 388.3807067871094 170.2895050048828 387.99383544921875 215.94723510742188" stroke-width="0.0" fill="rgb(155, 61, 64)" opacity="0.045588788" stroke="rgb(0, 0, 0)" stroke-opacity="1.0" stroke-linecap="round" stroke-linejoin="round"/>
    <path d="M 86.48176574707031 444.0101013183594 C 85.50137329101562 444.77587890625 87.02186584472656 444.6842041015625 85.94046783447266 443.4906005859375 C 73.00796508789062 443.3886413574219 63.1591682434082 444.7556457519531 58.425628662109375 444.455322265625 C 51.22119903564453 445.3731384277344 63.662628173828125 444.8164367675781 78.71743774414062 443.5495910644531 C 79.59378051757812 444.642578125 85.94865417480469 442.64727783203125 86.48176574707031 444.0101013183594" stroke-width="0.0" fill="rgb(37, 155, 199)" opacity="0.44491142" stroke="rgb(0, 0, 0)" stroke-opacity="1.0" stroke-linecap="round" stroke-linejoin="round"/>
    <path d="M 201.90948486328125 348.2513122558594 C 216.4872589111328 354.6999206542969 211.40707397460938 364.2698974609375 197.95484924316406 364.14215087890625 C 196.3037872314453 357.4024353027344 201.17449951171875 340.4721984863281 192.79156494140625 332.4899597167969 C 186.12942504882812 318.5183410644531 195.53077697753906 325.160888671875 194.00076293945312 318.754638671875 C 186.90386962890625 340.0742492675781 189.98748779296875 346.18682861328125 201.90948486328125 348.2513122558594" stroke-width="0.0" fill="rgb(255, 255, 51)" opacity="0.09392493" stroke="rgb(0, 0, 0)" stroke-opacity="1.0" stroke-linecap="round" stroke-linejoin="round"/>
    <path d="M 44.23427963256836 311.09588623046875 C 48.759239196777344 323.6446228027344 46.71272659301758 332.4211730957031 48.865631103515625 342.48028564453125 C 46.92564392089844 328.6338806152344 49.470359802246094 328.3780517578125 43.81098556518555 309.0147399902344 C 43.992496490478516 303.2442321777344 43.51517868041992 312.0367126464844 44.08145523071289 310.97662353515625 C 43.961544036865234 304.5288391113281 43.24016189575195 307.85400390625 44.23427963256836 311.09588623046875" stroke-width="0.0" fill="rgb(23, 160, 162)" opacity="0.4102099" stroke="rgb(0, 0, 0)" stroke-opacity="1.0" stroke-linecap="round" stroke-linejoin="round"/>
    <path d="M 122.09353637695312 437.3970947265625 C 122.06414794921875 441.9264831542969 119.34912872314453 455.87548828125 120.22140502929688 459.39752197265625 C 119.71244812011719 451.5937805175781 120.56986999511719 463.65240478515625 120.00238800048828 455.9796447753906 C 120.0506362915039 452.8887939453125 122.5572509765625 439.2056884765625 121.98770904541016 438.1932373046875 C 121.48807525634766 443.9458312988281 121.26435852050781 442.3508605957031 122.09353637695312 437.3970947265625" stroke-width="0.0" fill="rgb(116, 128, 152)" opacity="0.5653972" stroke="rgb(0, 0, 0)" stroke-opacity="1.0" stroke-linecap="round" stroke-linejoin="round"/>
    <path d="M 510.0851745605469 59.880069732666016 C 500.63470458984375 58.2020263671875 500.2945861816406 69.1533432006836 503.6876525878906 105.79357147216797 C 511.7757873535156 147.16160583496094 497.4797058105469 140.35360717773438 486.2979431152344 74.96902465820312 C 476.1871032714844 65.1431884765625 482.03021240234375 62.56670379638672 497.31964111328125 70.76473999023438 C 489.7130126953125 68.5337142944336 469.2353820800781 55.884361267089844 510.0851745605469 59.880069732666016" stroke-width="0.0" fill="rgb(28, 46, 198)" opacity="0.0" stroke="rgb(0, 0, 0)" stroke-opacity="1.0" stroke-linecap="round" stroke-linejoin="round"/>
    <path d="M 78.15803527832031 168.70977783203125 C 65.74673461914062 194.60594177246094 45.457698822021484 212.1093292236328 27.72946548461914 226.6814727783203 C -22.045650482177734 213.663330078125 -1.789721131324768 230.54725646972656 12.912121772766113 223.20733642578125 C -6.130708694458008 203.2764129638672 20.468332290649414 189.3297119140625 30.5651798248291 166.90478515625 C 71.35833740234375 172.0549774169922 77.99903106689453 176.25201416015625 78.15803527832031 168.70977783203125" stroke-width="0.0" fill="rgb(51, 95, 251)" opacity="0.11909217" stroke="rgb(0, 0, 0)" stroke-opacity="1.0" stroke-linecap="round" stroke-linejoin="round"/>
    <path d="M 287.5618591308594 339.78033447265625 C 323.5935974121094 359.74273681640625 338.5775146484375 355.2132568359375 292.63385009765625 342.58929443359375 C 282.1138610839844 342.82220458984375 275.5041809082031 343.31561279296875 259.6330261230469 306.4280700683594 C 258.60614013671875 311.5159606933594 288.1123352050781 323.4328918457031 333.6178283691406 324.63067626953125 C 315.98797607421875 311.8617858886719 293.04644775390625 302.36834716796875 287.5618591308594 339.78033447265625" stroke-width="0.0" fill="rgb(173, 102, 1)" opacity="0.00077560486" stroke="rgb(0, 0, 0)" stroke-opacity="1.0" stroke-linecap="round" stroke-linejoin="round"/>
    <path d="M 352.7309875488281 435.41839599609375 C 375.2692565917969 438.71429443359375 390.43255615234375 441.3778991699219 367.78466796875 443.8807678222656 C 373.858154296875 441.8108215332031 356.0531921386719 431.2603759765625 336.4082336425781 423.30413818359375 C 335.3202209472656 433.1896057128906 351.75506591796875 432.4622497558594 356.1435241699219 413.469970703125 C 353.452880859375 418.0801086425781 363.8099060058594 436.08966064453125 352.7309875488281 435.41839599609375" stroke-width="0.0" fill="rgb(82, 13, 100)" opacity="0.0" stroke="rgb(0, 0, 0)" stroke-opacity="1.0" stroke-linecap="round" stroke-linejoin="round"/>
    <path d="M 349.3454284667969 427.37457275390625 C 380.3415222167969 447.9096374511719 360.844482421875 474.35479736328125 336.337646484375 455.010498046875 C 305.80889892578125 429.01287841796875 305.9489440917969 420.11822509765625 304.1090087890625 416.5581359863281 C 314.97998046875 415.7466125488281 316.545654296875 410.4756774902344 323.90673828125 421.62322998046875 C 352.8878479003906 406.3890380859375 344.3660888671875 420.4796142578125 349.3454284667969 427.37457275390625" stroke-width="0.0" fill="rgb(231, 22, 0)" opacity="1.0" stroke="rgb(0, 0, 0)" stroke-opacity="1.0" stroke-linecap="round" stroke-linejoin="round"/>
    <path d="M 410.40423583984375 58.705413818359375 C 414.45062255859375 59.77824020385742 415.2745361328125 73.08393096923828 412.1986083984375 88.575927734375 C 396.83782958984375 87.24915313720703 399.8074645996094 78.45000457763672 409.69696044921875 69.77000427246094 C 394.38330078125 110.07220458984375 402.79559326171875 80.89261627197266 400.64263916015625 52.031517028808594 C 404.0122985839844 56.95897674560547 400.6480712890625 72.30122375488281 410.40423583984375 58.705413818359375" stroke-width="0.0" fill="rgb(4, 156, 91)" opacity="0.42608944" stroke="rgb(0, 0, 0)" stroke-opacity="1.0" stroke-linecap="round" stroke-linejoin="round"/>
    <path d="M 8.25010871887207 77.38031005859375 C 18.42487144470215 86.0477523803711 33.325225830078125 104.63175964355469 19.49565887451172 107.3257827758789 C 13.84062671661377 108.91687774658203 -6.667821884155273 107.07197570800781 -5.0684404373168945 112.67880249023438 C 42.29970932006836 116.790283203125 40.61761474609375 112.57067108154297 38.18743133544922 58.546268463134766 C 70.02342224121094 94.53470611572266 62.414371490478516 116.85612487792969 8.25010871887207 77.38031005859375" stroke-width="0.0" fill="rgb(70, 100, 245)" opacity="0.00021368997" stroke="rgb(0, 0, 0)" stroke-opacity="1.0" stroke-linecap="round" stroke-linejoin="round"/>
    <path d="M -0.6990538239479065 133.64207458496094 C 21.44236946105957 141.43386840820312 20.6691951751709 147.3900909423828 18.344205856323242 126.80149841308594 C 11.086905479431152 108.10389709472656 26.19849967956543 117.4073486328125 7.875678062438965 137.58084106445312 C -24.95929718017578 149.99671936035156 -17.83068084716797 168.46014404296875 8.699054718017578 165.5026092529297 C -19.581138610839844 147.789306640625 -3.871957540512085 194.93907165527344 -0.6990538239479065 133.64207458496094" stroke-width="0.0" fill="rgb(71, 84, 219)" opacity="0.006748127" stroke="rgb(0, 0, 0)" stroke-opacity="1.0" stroke-linecap="round" stroke-linejoin="round"/>
    <path d="M 541.4988403320312 237.10659790039062 C 531.4951782226562 254.00050354003906 538.3718872070312 273.3505859375 490.82647705078125 274.6083068847656 C 467.1438293457031 251.2447052001953 474.619873046875 259.06280517578125 471.28448486328125 222.18214416503906 C 441.8967590332031 232.67013549804688 455.38079833984375 226.8085174560547 518.9312133789062 211.23614501953125 C 506.4269714355469 214.3684844970703 515.4974365234375 197.32098388671875 541.4988403320312 237.10659790039062" stroke-width="0.0" fill="rgb(33, 40, 79)" opacity="0.06588225" stroke="rgb(0, 0, 0)" stroke-opacity="1.0" stroke-linecap="round" stroke-linejoin="round"/>
    <path d="M 330.3031005859375 51.797576904296875 C 330.0667419433594 58.5384521484375 338.9384460449219 54.19235610961914 337.5982360839844 29.020002365112305 C 350.00677490234375 25.873815536499023 317.5528564453125 16.935245513916016 262.0962219238281 20.828763961791992 C 261.63653564453125 29.45318603515625 254.5315704345703 12.78917121887207 271.5816955566406 32.38481903076172 C 295.5636901855469 73.6363754272461 311.5935363769531 85.47608184814453 330.3031005859375 51.797576904296875" stroke-width="0.0" fill="rgb(66, 88, 253)" opacity="0.013907556" stroke="rgb(0, 0, 0)" stroke-opacity="1.0" stroke-linecap="round" stroke-linejoin="round"/>
    <path d="M 421.4252624511719 267.106689453125 C 421.43438720703125 263.11859130859375 434.0117492675781 261.2152099609375 436.2685241699219 257.0760498046875 C 406.0875244140625 275.6753234863281 403.99847412109375 283.4747009277344 413.8003234863281 264.6468200683594 C 420.584716796875 265.5810241699219 420.7689514160156 262.2176513671875 447.8501892089844 267.7392883300781 C 450.38897705078125 255.45887756347656 446.2568664550781 269.3415832519531 421.4252624511719 267.106689453125" stroke-width="0.0" fill="rgb(200, 95, 2)" opacity="0.0" stroke="rgb(0, 0, 0)" stroke-opacity="1.0" stroke-linecap="round" stroke-linejoin="round"/>
    <path d="M 504.24261474609375 116.80950927734375 C 516.6110229492188 183.62042236328125 505.9516906738281 201.74073791503906 502.4423828125 161.1805877685547 C 478.7072448730469 174.61502075195312 477.9435119628906 124.42076873779297 480.8160095214844 129.03797912597656 C 472.02435302734375 127.34735107421875 484.5310974121094 129.39418029785156 523.4451904296875 136.9928436279297 C 525.4373168945312 132.8392333984375 528.9199829101562 132.00387573242188 504.24261474609375 116.80950927734375" stroke-width="0.0" fill="rgb(66, 85, 166)" opacity="0.05984848" stroke="rgb(0, 0, 0)" stroke-opacity="1.0" stroke-linecap="round" stroke-linejoin="round"/>
    <path d="M 551.264892578125 148.04791259765625 C 530.4729614257812 176.08665466308594 500.89599609375 186.34002685546875 500.9543151855469 233.48532104492188 C 522.9434204101562 230.59645080566406 521.2200317382812 196.72808837890625 517.4725341796875 190.17459106445312 C 516.1901245117188 163.8595428466797 523.6613159179688 159.72970581054688 529.8463745117188 152.66163635253906 C 522.12451171875 146.8139190673828 542.6648559570312 141.221923828125 551.264892578125 148.04791259765625" stroke-width="0.0" fill="rgb(24, 74, 106)" opacity="0.10092763" stroke="rgb(0, 0, 0)" stroke-opacity="1.0" stroke-linecap="round" stroke-linejoin="round"/>
    <path d="M 72.87889862060547 365.41339111328125 C 77.80555725097656 388.104248046875 68.4512939453125 386.8570251464844 61.97899627685547 376.3077392578125 C 61.006813049316406 359.8004150390625 50.42598342895508 357.8536376953125 45.7132682800293 370.87109375 C 45.38654327392578 363.2733154296875 64.5517807006836 361.7060241699219 74.59320068359375 363.2721252441406 C 61.64476776123047 354.52239990234375 72.21379089355469 361.1567687988281 72.87889862060547 365.41339111328125" stroke-width="0.0" fill="rgb(37, 114, 213)" opacity="0.43590024" stroke="rgb(0, 0, 0)" stroke-opacity="1.0" stroke-linecap="round" stroke-linejoin="round"/>
    <path d="M 324.3335266113281 291.33441162109375 C 324.0965270996094 286.8107604980469 335.21063232421875 279.2920837402344 312.0626220703125 273.0028076171875 C 306.628173828125 266.5612487792969 309.1912841796875 237.8726348876953 309.6099548339844 226.91818237304688 C 315.0126953125 247.93594360351562 312.7973327636719 236.27847290039062 324.6297912597656 212.0040740966797 C 327.6629638671875 216.93243408203125 327.27911376953125 239.24085998535156 324.3335266113281 291.33441162109375" stroke-width="0.0" fill="rgb(163, 203, 24)" opacity="0.15650773" stroke="rgb(0, 0, 0)" stroke-opacity="1.0" stroke-linecap="round" stroke-linejoin="round"/>
    <path d="M 481.90008544921875 137.99871826171875 C 493.7099304199219 126.55490112304688 490.7153015136719 107.81492614746094 449.600341796875 139.93263244628906 C 461.98797607421875 152.72914123535156 435.4495544433594 176.3483123779297 521.3662109375 194.90512084960938 C 505.25537109375 137.11172485351562 493.51531982421875 123.55651092529297 520.0026245117188 124.02703857421875 C 527.822998046875 134.53158569335938 515.8732299804688 136.4347686767578 481.90008544921875 137.99871826171875" stroke-width="0.0" fill="rgb(89, 64, 187)" opacity="0.033005998" stroke="rgb(0, 0, 0)" stroke-opacity="1.0" stroke-linecap="round" stroke-linejoin="round"/>
    <path d="M 467.8120422363281 529.9336547851562 C 442.42266845703125 465.0127868652344 476.7720642089844 483.6742248535156 464.8340148925781 514.19873046875 C 440.59796142578125 483.8773193359375 424.3939208984375 465.6519775390625 438.5733337402344 473.0834655761719 C 440.9023132324219 438.6966857910156 439.204833984375 447.0120849609375 480.2974853515625 446.58782958984375 C 480.8924255371094 447.5929260253906 490.2449645996094 450.3594970703125 467.8120422363281 529.9336547851562" stroke-width="0.0" fill="rgb(85, 5, 29)" opacity="0.03481621" stroke="rgb(0, 0, 0)" stroke-opacity="1.0" stroke-linecap="round" stroke-linejoin="round"/>
    <path d="M 537.53173828125 383.4225158691406 C 518.2822875976562 335.7957763671875 499.54095458984375 336.14154052734375 507.1107177734375 347.18853759765625 C 478.6083984375 343.99005126953125 474.0938415527344 347.781005859375 471.45330810546875 411.2811584472656 C 485.502685546875 362.51043701171875 472.4209899902344 372.2820129394531 483.5346374511719 379.9824523925781 C 479.5992736816406 385.74884033203125 495.2173156738281 407.05126953125 537.53173828125 383.4225158691406" stroke-width="0.0" fill="rgb(62, 18, 57)" opacity="0.05771237" stroke="rgb(0, 0, 0)" stroke-opacity="1.0" stroke-linecap="round" stroke-linejoin="round"/>
    <path d="M 140.04676818847656 425.6068115234375 C 151.4361572265625 434.4889221191406 162.29244995117188 471.35198974609375 146.37474060058594 453.3817443847656 C 141.98513793945312 441.4586181640625 143.57733154296875 437.53594970703125 143.74122619628906 397.1744079589844 C 120.6562271118164 428.8464050292969 126.8644027709961 421.36083984375 127.71895599365234 433.3799133300781 C 157.65090942382812 403.1775207519531 161.94247436523438 423.063720703125 140.04676818847656 425.6068115234375" stroke-width="0.0" fill="rgb(99, 49, 245)" opacity="0.0" stroke="rgb(0, 0, 0)" stroke-opacity="1.0" stroke-linecap="round" stroke-linejoin="round"/>
    <path d="M 82.03945922851562 89.92071533203125 C 86.67952728271484 208.635009765625 98.24549102783203 201.54794311523438 25.220460891723633 195.062744140625 C 39.30671691894531 213.17263793945312 20.254802703857422 186.17623901367188 62.84333801269531 158.3970184326172 C 71.8122787475586 174.6028594970703 78.1334457397461 124.71929168701172 78.20643615722656 108.00838470458984 C 115.03146362304688 109.14044189453125 117.72645568847656 114.04560852050781 82.03945922851562 89.92071533203125" stroke-width="0.0" fill="rgb(57, 96, 254)" opacity="0.29483142" stroke="rgb(0, 0, 0)" stroke-opacity="1.0" stroke-linecap="round" stroke-linejoin="round"/>
    <path d="M 176.8928985595703 113.61522674560547 C 173.22496032714844 118.8320083618164 170.526611328125 131.60484313964844 166.9879913330078 129.55172729492188 C 172.60289001464844 127.5549545288086 178.5679931640625 125.98489379882812 176.42539978027344 121.47229766845703 C 173.90814208984375 138.95602416992188 172.72462463378906 112.45735931396484 180.3821258544922 112.38665008544922 C 176.09353637695312 112.85200500488281 175.8199920654297 119.01215362548828 176.8928985595703 113.61522674560547" stroke-width="0.0" fill="rgb(51, 131, 220)" opacity="0.34681708" stroke="rgb(0, 0, 0)" stroke-opacity="1.0" stroke-linecap="round" stroke-linejoin="round"/>
    <path d="M 164.14537048339844 397.6854248046875 C 172.90325927734375 402.2305603027344 156.5034942626953 400.8045349121094 168.50634765625 401.8302001953125 C 155.29469299316406 399.53717041015625 146.77902221679688 397.1404113769531 160.4640350341797 395.18048095703125 C 153.75662231445312 391.2630615234375 156.67300415039062 392.286376953125 166.6318359375 393.761474609375 C 165.26698303222656 388.7278747558594 167.64071655273438 396.6609191894531 164.14537048339844 397.6854248046875" stroke-width="0.0" fill="rgb(241, 225, 44)" opacity="0.038788244" stroke="rgb(0, 0, 0)" stroke-opacity="1.0" stroke-linecap="round" stroke-linejoin="round"/>
    <path d="M 456.42156982421875 120.33995056152344 C 454.5010070800781 121.71232604980469 441.1458740234375 126.49882507324219 432.5134582519531 135.3599090576172 C 430.2625732421875 139.7978515625 431.0216979980469 134.6875762939453 431.089599609375 136.05435180664062 C 442.3219299316406 126.7532958984375 454.3059997558594 123.97334289550781 455.38848876953125 121.12427520751953 C 450.630615234375 124.3660888671875 447.88238525390625 124.84211730957031 456.42156982421875 120.33995056152344" stroke-width="0.0" fill="rgb(41, 111, 169)" opacity="0.45988005" stroke="rgb(0, 0, 0)" stroke-opacity="1.0" stroke-linecap="round" stroke-linejoin="round"/>
    <path d="M 259.69378662109375 366.0173645019531 C 243.46875 336.2569580078125 241.55941772460938 342.6545104980469 239.88328552246094 351.6912841796875 C 239.94894409179688 343.3572082519531 251.92347717285156 335.4134521484375 272.8631286621094 309.1317138671875 C 245.7413787841797 255.87295532226562 226.7940216064453 281.0308837890625 229.61001586914062 327.8107604980469 C 239.73484802246094 324.6948547363281 253.7301788330078 378.62042236328125 259.69378662109375 366.0173645019531" stroke-width="0.0" fill="rgb(195, 157, 165)" opacity="0.0028720926" stroke="rgb(0, 0, 0)" stroke-opacity="1.0" stroke-linecap="round" stroke-linejoin="round"/>
    <path d="M 128.21524047851562 449.0963439941406 C 161.8220977783203 440.4653625488281 178.74021911621094 463.19940185546875 190.46556091308594 491.5996398925781 C 133.34561157226562 495.13775634765625 139.85438537597656 508.04052734375 129.2871856689453 482.6275939941406 C 119.0799789428711 463.38165283203125 112.85985565185547 474.3652038574219 154.81918334960938 484.5275573730469 C 101.1913833618164 481.3327331542969 133.449462890625 471.123291015625 128.21524047851562 449.0963439941406" stroke-width="0.0" fill="rgb(72, 129, 251)" opacity="0.0" stroke="rgb(0, 0, 0)" stroke-opacity="1.0" stroke-linecap="round" stroke-linejoin="round"/>
    <path d="M 502.40191650390625 399.89129638671875 C 474.70611572265625 404.6944274902344 477.759033203125 406.2780456542969 460.7638244628906 415.9368591308594 C 445.30914306640625 414.3533020019531 437.866943359375 394.2627868652344 454.5766906738281 404.70159912109375 C 459.0451965332031 353.6470031738281 455.1406555175781 362.0638427734375 460.5093078613281 371.5254821777344 C 465.5531921386719 355.3849182128906 468.45404052734375 350.6022644042969 502.40191650390625 399.89129638671875" stroke-width="0.0" fill="rgb(35, 36, 104)" opacity="0.0171206" stroke="rgb(0, 0, 0)" stroke-opacity="1.0" stroke-linecap="round" stroke-linejoin="round"/>
    <path d="M 279.2954406738281 82.13297271728516 C 269.31927490234375 92.38612365722656 249.6566162109375 103.55885314941406 232.7598876953125 116.72474670410156 C 238.46322631835938 142.1522216796875 212.1538848876953 147.2272491455078 232.5285186767578 104.74765014648438 C 257.5394592285156 117.14167022705078 267.26416015625 128.3177490234375 276.45196533203125 129.59613037109375 C 280.70458984375 104.59387969970703 263.9102478027344 93.91703033447266 279.2954406738281 82.13297271728516" stroke-width="0.0" fill="rgb(251, 54, 42)" opacity="0.0" stroke="rgb(0, 0, 0)" stroke-opacity="1.0" stroke-linecap="round" stroke-linejoin="round"/>
    <path d="M 368.5389099121094 49.71632385253906 C 378.5697021484375 70.27277374267578 358.5563049316406 93.24983215332031 347.7010498046875 82.18987274169922 C 388.2789611816406 55.4263916015625 375.30841064453125 46.49325942993164 359.87646484375 42.46424102783203 C 361.1103820800781 39.808074951171875 386.26763916015625 42.5706787109375 375.53118896484375 33.96371841430664 C 384.7801818847656 37.187007904052734 387.3572082519531 34.38179397583008 368.5389099121094 49.71632385253906" stroke-width="0.0" fill="rgb(30, 22, 248)" opacity="0.0" stroke="rgb(0, 0, 0)" stroke-opacity="1.0" stroke-linecap="round" stroke-linejoin="round"/>
  </g>
</svg>
