<?xml version="1.0" ?>
<svg xmlns="http://www.w3.org/2000/svg" version="1.1" width="512" height="512">
  <defs/>
  <g>
    <path d="M 535.3649291992188 454.1457214355469 C 548.88232421875 518.2211303710938 549.809814453125 525.8021850585938 385.40240478515625 533.7320556640625 C 340.9023132324219 542.7977905273438 320.1634521484375 534.1934204101562 252.22525024414062 457.36029052734375 C 308.7388000488281 347.0961608886719 406.0075378417969 350.01971435546875 518.1585083007812 332.7377624511719 C 577.9765625 331.80535888671875 570.6815185546875 342.39404296875 535.3649291992188 454.1457214355469" stroke-width="0.0" fill="rgb(15, 45, 189)" opacity="0.9720446" stroke="rgb(0, 0, 0)" stroke-opacity="1.0" stroke-linecap="round" stroke-linejoin="round"/>
    <path d="M 312.21649169921875 473.2121887207031 C 354.6415710449219 515.6356811523438 369.0639953613281 527.491455078125 240.74241638183594 537.410888671875 C -51.100406646728516 521.1051635742188 -51.19970703125 512.4564819335938 -46.189456939697266 461.6183166503906 C -32.41431427001953 192.21755981445312 -24.88622283935547 186.55386352539062 -7.587545871734619 208.20616149902344 C 127.64082336425781 323.0777893066406 167.6463165283203 314.7257385253906 312.21649169921875 473.2121887207031" stroke-width="0.0" fill="rgb(0, 101, 255)" opacity="0.79370147" stroke="rgb(0, 0, 0)" stroke-opacity="1.0" stroke-linecap="round" stroke-linejoin="round"/>
    <path d="M 370.6065979003906 409.9786071777344 C 365.76995849609375 488.0458068847656 338.6282653808594 490.1219787597656 178.09158325195312 476.1649169921875 C -11.874045372009277 411.37042236328125 43.39494705200195 385.7030944824219 38.8382568359375 201.16064453125 C 59.085205078125 183.3401336669922 56.4774169921875 181.29957580566406 113.49666595458984 188.62193298339844 C 269.197265625 158.00970458984375 307.67730712890625 129.36911010742188 370.6065979003906 409.9786071777344" stroke-width="0.0" fill="rgb(125, 226, 0)" opacity="0.99943835" stroke="rgb(0, 0, 0)" stroke-opacity="1.0" stroke-linecap="round" stroke-linejoin="round"/>
    <path d="M 243.64801025390625 3.586975336074829 C 250.58685302734375 220.5476531982422 230.32957458496094 167.64979553222656 50.398460388183594 274.2095642089844 C -48.81650161743164 231.4827117919922 -29.391738891601562 198.91607666015625 -14.128026962280273 151.26846313476562 C -16.494123458862305 -18.97837257385254 -10.838438034057617 -25.126850128173828 22.007221221923828 -17.07774543762207 C 190.19065856933594 -19.427133560180664 212.57464599609375 -29.200271606445312 243.64801025390625 3.586975336074829" stroke-width="0.0" fill="rgb(5, 119, 236)" opacity="0.84579366" stroke="rgb(0, 0, 0)" stroke-opacity="1.0" stroke-linecap="round" stroke-linejoin="round"/>
    <path d="M 575.3887329101562 69.8440933227539 C 449.8503112792969 288.7658996582031 435.0001220703125 288.7110900878906 371.5213928222656 312.9670104980469 C 264.934814453125 316.0951232910156 284.6258239746094 307.5237731933594 220.029052734375 199.0288848876953 C 255.2447052001953 -4.457212448120117 187.92869567871094 -32.498958587646484 342.6514587402344 -30.373506546020508 C 563.2000122070312 -5.52442741394043 563.2000122070312 4.830130577087402 575.3887329101562 69.8440933227539" stroke-width="0.0" fill="rgb(0, 94, 248)" opacity="0.8282137" stroke="rgb(0, 0, 0)" stroke-opacity="1.0" stroke-linecap="round" stroke-linejoin="round"/>
    <path d="M 377.4390869140625 99.35649108886719 C 321.5141906738281 321.3141784667969 267.65240478515625 309.4308166503906 207.9420166015625 258.7712097167969 C 83.7636947631836 279.9433898925781 58.61690902709961 282.0033874511719 70.39749908447266 225.09521484375 C 107.97903442382812 152.12254333496094 120.23544311523438 134.4327850341797 308.77435302734375 29.19074821472168 C 294.1014709472656 -25.848033905029297 309.7337341308594 -28.895008087158203 377.4390869140625 99.35649108886719" stroke-width="0.0" fill="rgb(253, 19, 48)" opacity="1.0" stroke="rgb(0, 0, 0)" stroke-opacity="1.0" stroke-linecap="round" stroke-linejoin="round"/>
    <path d="M 438.6617126464844 304.8507080078125 C 425.44378662109375 360.5806579589844 435.6803283691406 453.31884765625 336.88055419921875 446.91693115234375 C 309.7751770019531 396.1768493652344 288.8918151855469 399.45513916015625 266.66583251953125 374.53851318359375 C 251.1117706298828 155.4304962158203 217.26622009277344 170.386474609375 290.6419982910156 217.9508819580078 C 407.2020568847656 283.6818542480469 454.5098571777344 266.884033203125 438.6617126464844 304.8507080078125" stroke-width="0.0" fill="rgb(108, 220, 2)" opacity="0.9433836" stroke="rgb(0, 0, 0)" stroke-opacity="1.0" stroke-linecap="round" stroke-linejoin="round"/>
    <path d="M 564.2340698242188 187.77125549316406 C 571.644775390625 341.68597412109375 557.8736572265625 336.7030334472656 451.18585205078125 403.7392883300781 C 354.4393005371094 402.4822692871094 387.3630065917969 334.85113525390625 374.64111328125 276.7402038574219 C 379.56976318359375 209.22366333007812 422.0827331542969 165.07395935058594 564.6447143554688 112.17642211914062 C 563.2000122070312 76.2098159790039 563.2000122070312 99.41815185546875 564.2340698242188 187.77125549316406" stroke-width="0.0" fill="rgb(21, 62, 191)" opacity="0.99096656" stroke="rgb(0, 0, 0)" stroke-opacity="1.0" stroke-linecap="round" stroke-linejoin="round"/>
    <path d="M 378.55242919921875 262.74224853515625 C 366.4634094238281 291.6666564941406 343.29193115234375 250.35629272460938 336.80389404296875 256.8432922363281 C 314.6075744628906 275.5572204589844 264.3699951171875 233.7214813232422 142.00933837890625 234.94093322753906 C 216.86207580566406 137.2152862548828 254.3599853515625 174.2089080810547 315.06890869140625 161.21954345703125 C 328.0969543457031 179.39634704589844 346.24884033203125 225.6050262451172 378.55242919921875 262.74224853515625" stroke-width="0.0" fill="rgb(141, 121, 36)" opacity="0.80677456" stroke="rgb(0, 0, 0)" stroke-opacity="1.0" stroke-linecap="round" stroke-linejoin="round"/>
    <path d="M 480.92572021484375 236.9441375732422 C 483.11468505859375 312.4972839355469 447.5826110839844 418.9853210449219 384.779296875 418.22772216796875 C 356.6153869628906 314.02996826171875 394.1980285644531 258.9152526855469 325.26263427734375 160.14027404785156 C 427.4571533203125 175.39859008789062 385.5203552246094 237.25531005859375 366.6604309082031 99.35696411132812 C 443.1763000488281 53.93144607543945 482.20550537109375 216.54165649414062 480.92572021484375 236.9441375732422" stroke-width="0.0" fill="rgb(97, 202, 0)" opacity="0.9981832" stroke="rgb(0, 0, 0)" stroke-opacity="1.0" stroke-linecap="round" stroke-linejoin="round"/>
    <path d="M 347.0755310058594 60.84973907470703 C 321.60589599609375 55.987613677978516 296.480712890625 111.87176513671875 245.0792236328125 154.65907287597656 C 234.73309326171875 199.11509704589844 201.51922607421875 147.7926788330078 78.80834197998047 164.73956298828125 C 95.09197998046875 -25.035127639770508 120.12580108642578 -36.36305618286133 290.9178466796875 -72.08153533935547 C 419.29620361328125 -21.876869201660156 422.357666015625 42.60050582885742 347.0755310058594 60.84973907470703" stroke-width="0.0" fill="rgb(45, 121, 252)" opacity="0.9995421" stroke="rgb(0, 0, 0)" stroke-opacity="1.0" stroke-linecap="round" stroke-linejoin="round"/>
    <path d="M 310.5940856933594 397.9494323730469 C 261.74700927734375 434.0704040527344 198.15618896484375 430.1246032714844 163.6088104248047 404.18798828125 C 140.5451202392578 342.5032043457031 102.35255432128906 373.0294494628906 173.90374755859375 414.5965270996094 C 143.1052703857422 374.5667724609375 159.33523559570312 260.8413391113281 183.08380126953125 279.9528503417969 C 269.66644287109375 322.0812072753906 202.07662963867188 338.7455749511719 310.5940856933594 397.9494323730469" stroke-width="0.0" fill="rgb(254, 50, 87)" opacity="0.9932278" stroke="rgb(0, 0, 0)" stroke-opacity="1.0" stroke-linecap="round" stroke-linejoin="round"/>
    <path d="M 475.74725341796875 405.2237854003906 C 454.49359130859375 415.60211181640625 446.8397216796875 428.4145812988281 421.6945495605469 456.3177795410156 C 406.2935485839844 472.3006286621094 400.1169128417969 459.3438415527344 346.74652099609375 444.49346923828125 C 372.40362548828125 425.5124816894531 411.8374938964844 403.4883728027344 410.86566162109375 384.214599609375 C 427.22271728515625 381.2753601074219 469.14892578125 393.2686767578125 475.74725341796875 405.2237854003906" stroke-width="0.0" fill="rgb(4, 72, 178)" opacity="0.0017790922" stroke="rgb(0, 0, 0)" stroke-opacity="1.0" stroke-linecap="round" stroke-linejoin="round"/>
    <path d="M 371.7891845703125 407.6446533203125 C 381.99658203125 484.5928955078125 375.44073486328125 470.1161804199219 293.1719665527344 482.5184020996094 C 240.39654541015625 463.1526184082031 249.94029235839844 426.3652648925781 254.29595947265625 408.7241516113281 C 248.8604278564453 424.29974365234375 251.39010620117188 440.8296203613281 256.47735595703125 451.2342224121094 C 285.69122314453125 476.69549560546875 359.98834228515625 432.61395263671875 371.7891845703125 407.6446533203125" stroke-width="0.0" fill="rgb(9, 153, 0)" opacity="0.69290626" stroke="rgb(0, 0, 0)" stroke-opacity="1.0" stroke-linecap="round" stroke-linejoin="round"/>
    <path d="M 395.1042175292969 257.1525573730469 C 248.9871368408203 247.6216278076172 214.84002685546875 304.28326416015625 255.13406372070312 321.8180236816406 C 169.31153869628906 339.6283874511719 181.03091430664062 291.9010009765625 184.8609619140625 228.89935302734375 C 160.16995239257812 221.4762725830078 163.21890258789062 183.71983337402344 310.8611145019531 165.60357666015625 C 382.0506591796875 96.44389343261719 414.3032531738281 125.11676025390625 395.1042175292969 257.1525573730469" stroke-width="0.0" fill="rgb(255, 75, 70)" opacity="0.97156936" stroke="rgb(0, 0, 0)" stroke-opacity="1.0" stroke-linecap="round" stroke-linejoin="round"/>
    <path d="M 469.6932373046875 455.8358459472656 C 485.15301513671875 532.2589111328125 455.01837158203125 519.6066284179688 399.3635559082031 519.0819702148438 C 331.18975830078125 513.7388305664062 294.4533386230469 523.8201904296875 279.8097839355469 482.7112731933594 C 349.4615783691406 457.5645446777344 346.2438049316406 456.8739013671875 393.6536865234375 451.67132568359375 C 455.0703430175781 403.7996520996094 471.47271728515625 409.43023681640625 469.6932373046875 455.8358459472656" stroke-width="0.0" fill="rgb(21, 50, 200)" opacity="1.0" stroke="rgb(0, 0, 0)" stroke-opacity="1.0" stroke-linecap="round" stroke-linejoin="round"/>
    <path d="M 390.0942077636719 188.91932678222656 C 223.59632873535156 244.32725524902344 196.53271484375 320.2728271484375 244.11485290527344 349.04473876953125 C 260.8405456542969 373.70751953125 257.573974609375 386.9462890625 237.20188903808594 381.7139892578125 C 284.6478271484375 420.4688720703125 343.6959228515625 409.5730285644531 322.6022033691406 376.40625 C 296.9844970703125 381.347900390625 391.48291015625 409.1380920410156 390.0942077636719 188.91932678222656" stroke-width="0.0" fill="rgb(255, 56, 73)" opacity="1.0" stroke="rgb(0, 0, 0)" stroke-opacity="1.0" stroke-linecap="round" stroke-linejoin="round"/>
    <path d="M 262.6431884765625 181.5076141357422 C -21.457117080688477 147.30563354492188 4.467361927032471 428.8558044433594 180.67501831054688 417.43109130859375 C 92.92253112792969 275.36175537109375 284.8695373535156 134.56283569335938 137.9622802734375 213.04586791992188 C 29.398881912231445 288.727294921875 68.4091796875 237.56289672851562 163.2452850341797 162.52484130859375 C 136.81442260742188 343.5927734375 136.88706970214844 253.4136962890625 262.6431884765625 181.5076141357422" stroke-width="0.0" fill="rgb(255, 43, 72)" opacity="0.98495024" stroke="rgb(0, 0, 0)" stroke-opacity="1.0" stroke-linecap="round" stroke-linejoin="round"/>
    <path d="M 315.0289306640625 132.76773071289062 C 320.9018859863281 175.1245574951172 329.08795166015625 171.30078125 312.74139404296875 174.6068115234375 C 312.279296875 171.84500122070312 314.2488708496094 164.0038604736328 309.73828125 122.9194564819336 C 259.5223388671875 134.13714599609375 284.5890808105469 137.70233154296875 305.9422302246094 129.9462432861328 C 333.76873779296875 133.95101928710938 324.7018737792969 103.5086441040039 315.0289306640625 132.76773071289062" stroke-width="0.0" fill="rgb(61, 102, 179)" opacity="0.40929323" stroke="rgb(0, 0, 0)" stroke-opacity="1.0" stroke-linecap="round" stroke-linejoin="round"/>
    <path d="M 190.18417358398438 221.36537170410156 C 140.1714630126953 277.12982177734375 81.96170806884766 324.8814697265625 56.75712585449219 357.240478515625 C 29.170124053955078 400.9114990234375 -38.32820129394531 375.7970275878906 -59.67866134643555 197.7158203125 C 33.34333419799805 203.07655334472656 30.65360450744629 179.91099548339844 167.75912475585938 109.08707427978516 C 279.15435791015625 169.5963134765625 224.691162109375 169.17225646972656 190.18417358398438 221.36537170410156" stroke-width="0.0" fill="rgb(43, 122, 251)" opacity="1.0" stroke="rgb(0, 0, 0)" stroke-opacity="1.0" stroke-linecap="round" stroke-linejoin="round"/>
    <path d="M 271.37127685546875 176.1831817626953 C 191.470458984375 378.6531677246094 264.3163146972656 428.0497131347656 136.04901123046875 373.7554016113281 C 127.88358306884766 274.1026306152344 162.59934997558594 222.1141357421875 189.40478515625 265.4616394042969 C 134.3643798828125 302.52374267578125 151.5855712890625 275.4855041503906 162.33297729492188 249.23423767089844 C 187.5147705078125 236.4088897705078 204.34466552734375 180.29833984375 271.37127685546875 176.1831817626953" stroke-width="0.0" fill="rgb(255, 52, 47)" opacity="0.96137774" stroke="rgb(0, 0, 0)" stroke-opacity="1.0" stroke-linecap="round" stroke-linejoin="round"/>
    <path d="M 376.3175354003906 113.77081298828125 C 339.50335693359375 190.3643798828125 295.92413330078125 32.36503982543945 264.1338195800781 160.10775756835938 C 263.0592041015625 182.6488037109375 273.87579345703125 137.49656677246094 276.4791259765625 116.3052749633789 C 266.7278747558594 121.49930572509766 299.1963806152344 117.82998657226562 276.66033935546875 117.11381530761719 C 304.125244140625 105.43827819824219 331.6668395996094 103.47208404541016 376.3175354003906 113.77081298828125" stroke-width="0.0" fill="rgb(68, 166, 33)" opacity="0.0" stroke="rgb(0, 0, 0)" stroke-opacity="1.0" stroke-linecap="round" stroke-linejoin="round"/>
    <path d="M 273.27459716796875 156.65565490722656 C 279.89202880859375 172.28256225585938 289.8582763671875 165.17344665527344 291.98577880859375 167.9392852783203 C 286.4609375 165.77134704589844 280.95220947265625 164.08070373535156 261.4251708984375 168.2428436279297 C 269.3609313964844 140.01187133789062 281.2635803222656 148.45957946777344 272.8126220703125 177.9035186767578 C 285.4023132324219 174.29747009277344 280.44708251953125 173.61358642578125 273.27459716796875 156.65565490722656" stroke-width="0.0" fill="rgb(119, 192, 0)" opacity="0.0034833527" stroke="rgb(0, 0, 0)" stroke-opacity="1.0" stroke-linecap="round" stroke-linejoin="round"/>
    <path d="M 228.57034301757812 377.25396728515625 C 217.6952667236328 405.6766052246094 211.1398162841797 415.1566162109375 180.7959442138672 427.6069641113281 C 151.64732360839844 430.7578125 168.03350830078125 413.3087463378906 181.02157592773438 361.3189697265625 C 210.96649169921875 381.15948486328125 227.57444763183594 386.6427917480469 212.71826171875 389.5021057128906 C 173.90170288085938 369.4460754394531 217.9841766357422 349.1340026855469 228.57034301757812 377.25396728515625" stroke-width="0.0" fill="rgb(255, 73, 74)" opacity="0.9093206" stroke="rgb(0, 0, 0)" stroke-opacity="1.0" stroke-linecap="round" stroke-linejoin="round"/>
    <path d="M 376.758544921875 378.1046447753906 C 352.44683837890625 384.0783996582031 357.5513000488281 405.6099548339844 332.1601257324219 428.59381103515625 C 308.5529479980469 401.92303466796875 273.6448974609375 380.3540344238281 286.9112243652344 388.4050598144531 C 293.6346130371094 409.66522216796875 342.6953430175781 410.9874572753906 367.5280456542969 356.1160888671875 C 379.6191711425781 354.45391845703125 374.0420837402344 352.947021484375 376.758544921875 378.1046447753906" stroke-width="0.0" fill="rgb(143, 203, 0)" opacity="0.2982897" stroke="rgb(0, 0, 0)" stroke-opacity="1.0" stroke-linecap="round" stroke-linejoin="round"/>
    <path d="M 264.429931640625 263.8448181152344 C 269.30401611328125 281.4775390625 263.0588684082031 282.3079833984375 236.23056030273438 290.8130187988281 C 234.15037536621094 277.6731262207031 222.1690673828125 280.9681091308594 220.3850860595703 233.68878173828125 C 253.15615844726562 237.67373657226562 251.68605041503906 244.072509765625 236.5984344482422 268.22320556640625 C 241.3861541748047 229.6390380859375 266.44677734375 252.7544708251953 264.429931640625 263.8448181152344" stroke-width="0.0" fill="rgb(234, 48, 8)" opacity="0.23810121" stroke="rgb(0, 0, 0)" stroke-opacity="1.0" stroke-linecap="round" stroke-linejoin="round"/>
    <path d="M 162.91839599609375 339.5401916503906 C 196.82423400878906 418.868408203125 188.79649353027344 393.9550476074219 200.74620056152344 345.2343444824219 C 192.19166564941406 341.8320617675781 188.104736328125 346.2508544921875 149.94058227539062 343.7659912109375 C 143.77786254882812 356.34210205078125 122.48822784423828 364.5209655761719 124.43170166015625 315.30810546875 C 204.60464477539062 318.46533203125 194.32235717773438 325.39801025390625 162.91839599609375 339.5401916503906" stroke-width="0.0" fill="rgb(234, 108, 27)" opacity="0.029694606" stroke="rgb(0, 0, 0)" stroke-opacity="1.0" stroke-linecap="round" stroke-linejoin="round"/>
    <path d="M 274.08984375 325.6343688964844 C 297.6719665527344 319.53985595703125 303.64166259765625 306.1687927246094 280.0159606933594 298.9414367675781 C 213.55032348632812 305.49188232421875 239.84451293945312 304.2101745605469 236.22349548339844 310.74603271484375 C 266.58624267578125 306.2096252441406 275.57904052734375 306.91082763671875 273.08154296875 284.11712646484375 C 256.1328430175781 274.31109619140625 254.98660278320312 290.4811096191406 274.08984375 325.6343688964844" stroke-width="0.0" fill="rgb(231, 89, 39)" opacity="0.37576884" stroke="rgb(0, 0, 0)" stroke-opacity="1.0" stroke-linecap="round" stroke-linejoin="round"/>
    <path d="M 366.7138977050781 119.7778091430664 C 369.3475646972656 106.92027282714844 386.01470947265625 166.69863891601562 409.9764709472656 75.118408203125 C 346.1984558105469 14.68292236328125 341.0611267089844 52.721473693847656 338.01776123046875 65.79110717773438 C 333.6109619140625 69.10208129882812 369.02520751953125 96.08689880371094 361.36279296875 105.64485168457031 C 358.1851501464844 107.91728210449219 368.5738525390625 118.65670013427734 366.7138977050781 119.7778091430664" stroke-width="0.0" fill="rgb(94, 199, 0)" opacity="0.95160866" stroke="rgb(0, 0, 0)" stroke-opacity="1.0" stroke-linecap="round" stroke-linejoin="round"/>
    <path d="M 346.9725341796875 213.63311767578125 C 268.79119873046875 241.65255737304688 251.80160522460938 254.48988342285156 257.4726867675781 233.82273864746094 C 259.18988037109375 236.07888793945312 236.4331512451172 269.3824157714844 225.07489013671875 182.1451873779297 C 250.84664916992188 144.906005859375 275.94525146484375 119.03309631347656 335.006103515625 120.69770812988281 C 345.30621337890625 161.0250244140625 362.8678283691406 173.79869079589844 346.9725341796875 213.63311767578125" stroke-width="0.0" fill="rgb(251, 42, 41)" opacity="0.993736" stroke="rgb(0, 0, 0)" stroke-opacity="1.0" stroke-linecap="round" stroke-linejoin="round"/>
    <path d="M 286.61334228515625 251.70640563964844 C 272.9902038574219 261.2819519042969 266.2403259277344 248.06414794921875 280.0313720703125 266.3421325683594 C 279.6291198730469 281.4910888671875 261.20538330078125 258.8056640625 220.51785278320312 249.06089782714844 C 232.00241088867188 183.67208862304688 263.0179443359375 165.10711669921875 290.8118591308594 202.25123596191406 C 286.22625732421875 227.43186950683594 309.4547424316406 258.8510437011719 286.61334228515625 251.70640563964844" stroke-width="0.0" fill="rgb(255, 39, 37)" opacity="0.91754115" stroke="rgb(0, 0, 0)" stroke-opacity="1.0" stroke-linecap="round" stroke-linejoin="round"/>
    <path d="M 397.6842956542969 272.0705871582031 C 351.18267822265625 211.3278045654297 384.3936462402344 245.34938049316406 361.4900207519531 251.0294952392578 C 366.2073059082031 215.8228759765625 370.2710876464844 171.5732421875 343.9875793457031 209.24075317382812 C 391.998291015625 186.9815216064453 371.6203308105469 140.22840881347656 332.5730895996094 157.42845153808594 C 402.9064636230469 151.5049591064453 402.82989501953125 156.8410186767578 397.6842956542969 272.0705871582031" stroke-width="0.0" fill="rgb(255, 53, 199)" opacity="0.50070244" stroke="rgb(0, 0, 0)" stroke-opacity="1.0" stroke-linecap="round" stroke-linejoin="round"/>
    <path d="M 82.45755004882812 459.20074462890625 C 78.83064270019531 466.9709167480469 66.11029815673828 467.9621276855469 78.38316345214844 466.5379943847656 C 82.85491943359375 450.39337158203125 69.71858978271484 442.5500183105469 65.6261978149414 435.07904052734375 C 55.31892013549805 426.6054382324219 62.39452362060547 429.6042785644531 62.187679290771484 440.326904296875 C 90.36431121826172 435.972412109375 79.42344665527344 441.9703369140625 82.45755004882812 459.20074462890625" stroke-width="0.0" fill="rgb(20, 125, 182)" opacity="0.21089025" stroke="rgb(0, 0, 0)" stroke-opacity="1.0" stroke-linecap="round" stroke-linejoin="round"/>
    <path d="M 225.44126892089844 344.73748779296875 C 218.68942260742188 360.3365173339844 212.9862518310547 363.1731262207031 207.2123565673828 359.485595703125 C 208.49313354492188 350.48388671875 205.43844604492188 340.48834228515625 204.22671508789062 326.0584411621094 C 201.45614624023438 301.061767578125 185.18368530273438 320.1746826171875 189.54502868652344 329.111083984375 C 187.27337646484375 345.2640075683594 198.01727294921875 350.0957336425781 225.44126892089844 344.73748779296875" stroke-width="0.0" fill="rgb(222, 96, 1)" opacity="0.08603122" stroke="rgb(0, 0, 0)" stroke-opacity="1.0" stroke-linecap="round" stroke-linejoin="round"/>
    <path d="M 39.0050048828125 302.7513732910156 C 40.221473693847656 304.66851806640625 38.12583541870117 318.3050231933594 40.03615188598633 322.8690490722656 C 37.712501525878906 312.86749267578125 42.01499938964844 321.8395080566406 39.415321350097656 316.5993957519531 C 39.41284942626953 303.4165344238281 38.65616989135742 293.0990905761719 40.54019546508789 304.87408447265625 C 37.32417297363281 289.02337646484375 38.81767654418945 297.7264099121094 39.0050048828125 302.7513732910156" stroke-width="0.0" fill="rgb(36, 165, 169)" opacity="0.46789768" stroke="rgb(0, 0, 0)" stroke-opacity="1.0" stroke-linecap="round" stroke-linejoin="round"/>
    <path d="M 104.03031921386719 424.8792724609375 C 102.03984069824219 431.3837890625 90.3815689086914 444.13592529296875 105.02064514160156 447.016845703125 C 107.05033111572266 453.7963562011719 107.61964416503906 465.4595031738281 107.29164123535156 455.5554504394531 C 102.84791564941406 445.7808837890625 105.71908569335938 439.1541748046875 97.34034729003906 451.8915710449219 C 82.89161682128906 439.2326965332031 101.14537048339844 422.0618896484375 104.03031921386719 424.8792724609375" stroke-width="0.0" fill="rgb(102, 138, 154)" opacity="0.23885779" stroke="rgb(0, 0, 0)" stroke-opacity="1.0" stroke-linecap="round" stroke-linejoin="round"/>
    <path d="M 482.3853759765625 64.67979431152344 C 492.19122314453125 72.8975830078125 495.49322509765625 76.81980895996094 450.4929504394531 72.20330047607422 C 444.1888732910156 100.97207641601562 437.8772277832031 100.0932388305664 483.45556640625 117.61772918701172 C 498.7437744140625 63.722572326660156 500.9701232910156 56.520484924316406 505.9081726074219 82.8043441772461 C 482.5125732421875 59.626773834228516 478.7179260253906 64.54021453857422 482.3853759765625 64.67979431152344" stroke-width="0.0" fill="rgb(73, 104, 246)" opacity="0.016748661" stroke="rgb(0, 0, 0)" stroke-opacity="1.0" stroke-linecap="round" stroke-linejoin="round"/>
    <path d="M 50.480567932128906 203.1153564453125 C 71.85274505615234 210.1951141357422 62.69759750366211 223.3941650390625 44.31029510498047 214.11953735351562 C 22.446672439575195 211.21885681152344 14.209468841552734 215.88980102539062 31.605783462524414 201.1173553466797 C 15.737192153930664 188.2717742919922 22.581340789794922 181.68222045898438 18.49445152282715 168.89129638671875 C 36.7219352722168 179.91351318359375 53.390663146972656 192.0423583984375 50.480567932128906 203.1153564453125" stroke-width="0.0" fill="rgb(34, 121, 247)" opacity="0.015341696" stroke="rgb(0, 0, 0)" stroke-opacity="1.0" stroke-linecap="round" stroke-linejoin="round"/>
    <path d="M 286.5303649902344 332.4681091308594 C 317.8551940917969 377.1680908203125 295.1346130371094 376.611328125 291.93560791015625 350.21917724609375 C 281.6242370605469 372.5102844238281 258.05474853515625 377.1384582519531 256.7029724121094 339.2691955566406 C 271.4566955566406 318.6851806640625 306.0848693847656 320.9501953125 340.2401428222656 330.6815185546875 C 327.4254150390625 280.42816162109375 314.6600036621094 293.325927734375 286.5303649902344 332.4681091308594" stroke-width="0.0" fill="rgb(255, 185, 34)" opacity="0.106819145" stroke="rgb(0, 0, 0)" stroke-opacity="1.0" stroke-linecap="round" stroke-linejoin="round"/>
    <path d="M 388.07061767578125 439.9480895996094 C 397.7066345214844 460.5738525390625 401.9421691894531 449.757568359375 366.3299255371094 448.78271484375 C 358.0824279785156 445.56170654296875 354.6219177246094 433.1379089355469 335.05657958984375 441.17620849609375 C 332.1726379394531 423.1192626953125 373.146484375 430.5444030761719 375.97357177734375 440.7637939453125 C 384.58514404296875 421.0272216796875 385.9087829589844 420.4856262207031 388.07061767578125 439.9480895996094" stroke-width="0.0" fill="rgb(52, 39, 163)" opacity="0.0" stroke="rgb(0, 0, 0)" stroke-opacity="1.0" stroke-linecap="round" stroke-linejoin="round"/>
    <path d="M 356.3746643066406 416.1260681152344 C 341.71551513671875 418.22979736328125 327.19879150390625 421.22442626953125 298.5846862792969 428.4150085449219 C 314.7916564941406 441.6504821777344 313.1706237792969 416.8773498535156 304.62127685546875 398.84417724609375 C 305.2568664550781 404.88153076171875 316.2637023925781 416.5500793457031 355.7873229980469 419.8298645019531 C 347.7572021484375 399.49322509765625 352.3702697753906 417.5666809082031 356.3746643066406 416.1260681152344" stroke-width="0.0" fill="rgb(160, 79, 4)" opacity="0.0" stroke="rgb(0, 0, 0)" stroke-opacity="1.0" stroke-linecap="round" stroke-linejoin="round"/>
    <path d="M 416.5464172363281 71.94327545166016 C 419.8493347167969 67.66162109375 411.0247802734375 86.64637756347656 410.6619567871094 95.95954132080078 C 404.02020263671875 89.39305877685547 406.5740661621094 85.55876159667969 404.50592041015625 77.98480224609375 C 402.68475341796875 62.349998474121094 409.9352111816406 56.37287139892578 413.6025390625 66.76069641113281 C 412.9029846191406 63.051631927490234 415.8605041503906 68.84791564941406 416.5464172363281 71.94327545166016" stroke-width="0.0" fill="rgb(19, 171, 113)" opacity="0.61547935" stroke="rgb(0, 0, 0)" stroke-opacity="1.0" stroke-linecap="round" stroke-linejoin="round"/>
    <path d="M 41.775177001953125 58.62171173095703 C 35.879207611083984 96.26265716552734 35.32842254638672 99.29766082763672 39.591007232666016 100.53488159179688 C -13.591347694396973 91.32482147216797 -25.692094802856445 88.89079284667969 -8.091021537780762 115.09243774414062 C 35.754398345947266 112.99470520019531 59.534690856933594 107.32134246826172 47.484832763671875 94.9373779296875 C 43.44902038574219 74.15776062011719 46.0821533203125 53.78969955444336 41.775177001953125 58.62171173095703" stroke-width="0.0" fill="rgb(59, 127, 214)" opacity="0.0052311886" stroke="rgb(0, 0, 0)" stroke-opacity="1.0" stroke-linecap="round" stroke-linejoin="round"/>
    <path d="M 42.026363372802734 156.83070373535156 C 17.16645622253418 160.3899688720703 18.31186294555664 156.10643005371094 18.964141845703125 154.810302734375 C 15.688411712646484 153.55751037597656 -9.81295108795166 152.5478973388672 -36.0140380859375 139.75823974609375 C -15.536670684814453 87.62130737304688 2.4325003623962402 101.92011260986328 25.205177307128906 117.88245391845703 C 34.86246871948242 145.423095703125 41.18910598754883 107.02605438232422 42.026363372802734 156.83070373535156" stroke-width="0.0" fill="rgb(47, 102, 247)" opacity="0.016408458" stroke="rgb(0, 0, 0)" stroke-opacity="1.0" stroke-linecap="round" stroke-linejoin="round"/>
    <path d="M 534.4996337890625 254.37770080566406 C 526.0518188476562 266.8244323730469 515.1539916992188 274.279541015625 505.0466613769531 271.5968322753906 C 508.5406188964844 289.84967041015625 489.7103576660156 276.8260192871094 490.4815368652344 217.19076538085938 C 476.59698486328125 227.9099578857422 478.9678649902344 234.29148864746094 528.595458984375 225.2349853515625 C 523.7044677734375 216.99917602539062 527.3432006835938 222.64404296875 534.4996337890625 254.37770080566406" stroke-width="0.0" fill="rgb(65, 34, 195)" opacity="0.002360672" stroke="rgb(0, 0, 0)" stroke-opacity="1.0" stroke-linecap="round" stroke-linejoin="round"/>
    <path d="M 307.2728271484375 55.61518859863281 C 329.17926025390625 87.20703125 301.5869140625 82.3546371459961 321.64300537109375 50.4373664855957 C 293.8197937011719 35.92547607421875 300.2095947265625 18.987516403198242 319.2950744628906 63.998069763183594 C 341.3301086425781 81.89192962646484 349.23175048828125 35.19987869262695 326.07586669921875 22.251399993896484 C 322.94805908203125 52.93168640136719 325.0879211425781 51.027103424072266 307.2728271484375 55.61518859863281" stroke-width="0.0" fill="rgb(42, 92, 255)" opacity="0.06540213" stroke="rgb(0, 0, 0)" stroke-opacity="1.0" stroke-linecap="round" stroke-linejoin="round"/>
    <path d="M 422.1419982910156 241.9848175048828 C 434.755126953125 250.97935485839844 430.5009765625 263.70050048828125 428.251953125 306.4013977050781 C 409.25494384765625 291.49267578125 409.09521484375 269.93060302734375 397.4407958984375 261.07598876953125 C 396.58160400390625 284.0872802734375 407.6553039550781 286.8363342285156 439.80474853515625 270.4629821777344 C 425.2497253417969 264.7027893066406 416.5024719238281 274.84381103515625 422.1419982910156 241.9848175048828" stroke-width="0.0" fill="rgb(218, 121, 3)" opacity="0.0" stroke="rgb(0, 0, 0)" stroke-opacity="1.0" stroke-linecap="round" stroke-linejoin="round"/>
    <path d="M 542.03076171875 145.9239959716797 C 546.0843505859375 179.93402099609375 560.0615234375 210.37252807617188 533.0851440429688 186.4280242919922 C 476.8419189453125 124.48706817626953 467.8249816894531 118.69346618652344 445.3383483886719 129.686767578125 C 486.5417175292969 145.74551391601562 520.2044677734375 143.20333862304688 554.3972778320312 133.73541259765625 C 520.5720825195312 111.61329650878906 523.3575439453125 117.5732192993164 542.03076171875 145.9239959716797" stroke-width="0.0" fill="rgb(99, 140, 255)" opacity="0.48906887" stroke="rgb(0, 0, 0)" stroke-opacity="1.0" stroke-linecap="round" stroke-linejoin="round"/>
    <path d="M 499.1595153808594 151.73065185546875 C 513.6387329101562 151.21530151367188 497.41351318359375 149.01351928710938 531.1447143554688 177.65457153320312 C 530.9074096679688 169.09642028808594 510.90753173828125 169.03787231445312 467.838623046875 175.70262145996094 C 471.121337890625 150.4241485595703 503.01068115234375 156.0872802734375 527.02880859375 157.62965393066406 C 521.3048706054688 176.65301513671875 500.5362548828125 199.09555053710938 499.1595153808594 151.73065185546875" stroke-width="0.0" fill="rgb(53, 51, 187)" opacity="0.006860941" stroke="rgb(0, 0, 0)" stroke-opacity="1.0" stroke-linecap="round" stroke-linejoin="round"/>
    <path d="M 80.45249938964844 382.2738952636719 C 131.9388885498047 413.962158203125 109.68965911865234 427.8938293457031 50.46734619140625 404.4569396972656 C 27.57565689086914 385.4278869628906 24.529123306274414 370.3197937011719 41.83403015136719 370.2541809082031 C 50.76877212524414 358.0611877441406 61.59354019165039 343.5438232421875 62.92164993286133 350.77362060546875 C 58.085365295410156 344.342529296875 55.7484016418457 358.89862060546875 80.45249938964844 382.2738952636719" stroke-width="0.0" fill="rgb(176, 248, 17)" opacity="0.98486537" stroke="rgb(0, 0, 0)" stroke-opacity="1.0" stroke-linecap="round" stroke-linejoin="round"/>
    <path d="M 345.6553955078125 253.5004119873047 C 339.2040710449219 270.9320373535156 355.2482604980469 260.780517578125 328.2629089355469 257.1203918457031 C 323.3566589355469 271.34771728515625 319.24383544921875 248.5753173828125 315.08111572265625 266.0292053222656 C 302.21966552734375 259.107177734375 317.297119140625 262.09820556640625 333.3382263183594 241.02529907226562 C 341.3113708496094 216.95204162597656 348.54736328125 211.57472229003906 345.6553955078125 253.5004119873047" stroke-width="0.0" fill="rgb(104, 181, 4)" opacity="0.0" stroke="rgb(0, 0, 0)" stroke-opacity="1.0" stroke-linecap="round" stroke-linejoin="round"/>
    <path d="M 476.9666748046875 142.68797302246094 C 475.45587158203125 144.7661590576172 448.6138000488281 160.96475219726562 487.92230224609375 154.8034210205078 C 482.5961608886719 160.59861755371094 476.406982421875 138.62063598632812 477.5415344238281 120.74361419677734 C 472.9648742675781 113.55162048339844 470.4934997558594 101.70390319824219 478.67291259765625 132.49539184570312 C 492.92010498046875 118.58753967285156 467.2314453125 142.58126831054688 476.9666748046875 142.68797302246094" stroke-width="0.0" fill="rgb(70, 62, 202)" opacity="0.013132496" stroke="rgb(0, 0, 0)" stroke-opacity="1.0" stroke-linecap="round" stroke-linejoin="round"/>
    <path d="M 439.1156005859375 478.713134765625 C 481.08929443359375 492.3351135253906 457.7537841796875 484.93426513671875 474.4503479003906 520.9482421875 C 484.4570007324219 474.6602478027344 490.3716125488281 450.9747009277344 471.9763488769531 428.6089172363281 C 445.45916748046875 422.0888977050781 438.9121398925781 426.1028137207031 419.7168273925781 447.7632751464844 C 417.8591613769531 464.40240478515625 426.6474914550781 471.6694641113281 439.1156005859375 478.713134765625" stroke-width="0.0" fill="rgb(33, 50, 157)" opacity="0.049846005" stroke="rgb(0, 0, 0)" stroke-opacity="1.0" stroke-linecap="round" stroke-linejoin="round"/>
    <path d="M 502.0889587402344 386.34027099609375 C 496.0252685546875 385.2437438964844 480.8678894042969 375.8493347167969 503.3826904296875 380.3959655761719 C 491.8463439941406 394.0408020019531 469.8500061035156 393.8538818359375 476.2827453613281 393.734130859375 C 483.0267028808594 374.1091003417969 473.0335693359375 361.92279052734375 480.8232116699219 356.2225341796875 C 485.4946594238281 372.4137268066406 482.8688049316406 378.6604919433594 502.0889587402344 386.34027099609375" stroke-width="0.0" fill="rgb(0, 99, 124)" opacity="0.024676984" stroke="rgb(0, 0, 0)" stroke-opacity="1.0" stroke-linecap="round" stroke-linejoin="round"/>
    <path d="M 136.83651733398438 415.4859619140625 C 143.13619995117188 436.1711730957031 146.1985321044922 439.99676513671875 150.683349609375 436.3208923339844 C 144.8156280517578 434.7748718261719 90.8226089477539 428.2244567871094 127.73994445800781 426.2705993652344 C 134.62393188476562 416.3414001464844 132.17080688476562 390.6617126464844 131.40664672851562 411.38427734375 C 129.32867431640625 433.9741516113281 149.59640502929688 432.9096984863281 136.83651733398438 415.4859619140625" stroke-width="0.0" fill="rgb(63, 93, 238)" opacity="0.0" stroke="rgb(0, 0, 0)" stroke-opacity="1.0" stroke-linecap="round" stroke-linejoin="round"/>
    <path d="M 125.36665344238281 194.06407165527344 C 99.03650665283203 205.82252502441406 97.78754425048828 197.78829956054688 82.97595977783203 157.5299072265625 C 48.64765548706055 166.7442169189453 28.20238494873047 171.3984375 79.23883819580078 183.60353088378906 C 97.29788208007812 174.81295776367188 77.08563995361328 148.19712829589844 94.01615142822266 149.60513305664062 C 136.24325561523438 102.77629852294922 133.9894561767578 97.07733154296875 125.36665344238281 194.06407165527344" stroke-width="0.0" fill="rgb(25, 106, 253)" opacity="0.0" stroke="rgb(0, 0, 0)" stroke-opacity="1.0" stroke-linecap="round" stroke-linejoin="round"/>
    <path d="M 167.37188720703125 127.3308334350586 C 167.9364471435547 123.85311126708984 167.60626220703125 131.72900390625 167.50169372558594 140.81695556640625 C 167.9694061279297 126.27387237548828 167.50509643554688 124.47269439697266 167.35986328125 133.61361694335938 C 167.25897216796875 133.59408569335938 167.6864013671875 118.76654052734375 165.2396240234375 110.6762466430664 C 168.54238891601562 125.82830810546875 167.39894104003906 127.90824127197266 167.37188720703125 127.3308334350586" stroke-width="0.0" fill="rgb(92, 143, 135)" opacity="0.4634939" stroke="rgb(0, 0, 0)" stroke-opacity="1.0" stroke-linecap="round" stroke-linejoin="round"/>
    <path d="M 157.54087829589844 397.58636474609375 C 168.04403686523438 410.7657470703125 185.71493530273438 406.1976623535156 157.5025177001953 405.6474914550781 C 164.5195770263672 412.6237487792969 149.97471618652344 405.7469787597656 154.81675720214844 386.08599853515625 C 152.91336059570312 392.7271423339844 147.0771026611328 382.7226257324219 151.45314025878906 381.791015625 C 175.9154052734375 400.6424865722656 183.94882202148438 405.9532775878906 157.54087829589844 397.58636474609375" stroke-width="0.0" fill="rgb(249, 47, 53)" opacity="0.593775" stroke="rgb(0, 0, 0)" stroke-opacity="1.0" stroke-linecap="round" stroke-linejoin="round"/>
    <path d="M 432.05450439453125 116.6410140991211 C 439.3394775390625 114.78334045410156 432.382080078125 121.53831481933594 429.9280700683594 133.1801300048828 C 431.7139587402344 142.70223999023438 426.89593505859375 139.27371215820312 430.1473693847656 132.66055297851562 C 428.87823486328125 116.61380004882812 426.9075927734375 108.68347930908203 425.9307556152344 108.9312515258789 C 429.900390625 117.32018280029297 430.0604553222656 112.83612823486328 432.05450439453125 116.6410140991211" stroke-width="0.0" fill="rgb(46, 175, 124)" opacity="0.44653943" stroke="rgb(0, 0, 0)" stroke-opacity="1.0" stroke-linecap="round" stroke-linejoin="round"/>
    <path d="M 233.09066772460938 352.713134765625 C 254.50827026367188 345.5213623046875 241.9997100830078 332.74884033203125 249.15847778320312 345.3993835449219 C 261.48504638671875 335.3404846191406 254.3280792236328 316.20361328125 244.42201232910156 311.3069152832031 C 243.62583923339844 292.2963562011719 236.56951904296875 297.0977478027344 256.9197998046875 309.8287048339844 C 241.67559814453125 333.91302490234375 222.28443908691406 343.5271301269531 233.09066772460938 352.713134765625" stroke-width="0.0" fill="rgb(252, 114, 16)" opacity="0.09531232" stroke="rgb(0, 0, 0)" stroke-opacity="1.0" stroke-linecap="round" stroke-linejoin="round"/>
    <path d="M 197.87078857421875 467.7937316894531 C 201.87783813476562 469.7580871582031 184.04464721679688 497.71258544921875 171.2270965576172 475.84747314453125 C 172.41659545898438 453.8153381347656 157.05406188964844 450.6031188964844 102.43922424316406 434.6054382324219 C 74.85885620117188 489.4112548828125 88.40691375732422 511.6750793457031 154.42987060546875 501.9461364746094 C 168.05043029785156 434.6778564453125 189.17430114746094 454.78839111328125 197.87078857421875 467.7937316894531" stroke-width="0.0" fill="rgb(90, 58, 212)" opacity="0.13806139" stroke="rgb(0, 0, 0)" stroke-opacity="1.0" stroke-linecap="round" stroke-linejoin="round"/>
    <path d="M 457.62823486328125 387.0056457519531 C 460.8960266113281 377.92059326171875 465.2103576660156 404.6260681152344 464.68951416015625 383.8172302246094 C 476.0125732421875 385.9584655761719 450.2032775878906 398.0097351074219 421.6849365234375 383.5697326660156 C 428.28900146484375 372.27130126953125 443.4837341308594 370.29779052734375 473.0155944824219 384.68829345703125 C 454.18487548828125 401.7115783691406 452.83917236328125 396.671142578125 457.62823486328125 387.0056457519531" stroke-width="0.0" fill="rgb(2, 110, 100)" opacity="0.0" stroke="rgb(0, 0, 0)" stroke-opacity="1.0" stroke-linecap="round" stroke-linejoin="round"/>
    <path d="M 344.8908386230469 127.66475677490234 C 295.1828308105469 145.12033081054688 273.34686279296875 139.11749267578125 267.7543029785156 123.4061279296875 C 289.8629455566406 121.27700805664062 261.53839111328125 113.3326416015625 256.8418884277344 108.50010681152344 C 268.0699768066406 104.73918914794922 284.8661804199219 100.8950424194336 287.0419006347656 95.32828521728516 C 300.47021484375 91.1466064453125 336.2380676269531 102.4023666381836 344.8908386230469 127.66475677490234" stroke-width="0.0" fill="rgb(52, 171, 48)" opacity="0.018841244" stroke="rgb(0, 0, 0)" stroke-opacity="1.0" stroke-linecap="round" stroke-linejoin="round"/>
    <path d="M 370.70703125 20.367176055908203 C 367.3117980957031 25.01129722595215 382.52142333984375 59.605064392089844 407.260498046875 42.23499298095703 C 375.59423828125 18.638513565063477 377.8155517578125 35.76177978515625 373.232421875 20.706079483032227 C 375.6370544433594 51.346797943115234 380.8004455566406 39.99678421020508 388.5441589355469 -2.8091847896575928 C 393.3545837402344 -7.561385154724121 395.332275390625 32.64822769165039 370.70703125 20.367176055908203" stroke-width="0.0" fill="rgb(77, 89, 255)" opacity="0.15448259" stroke="rgb(0, 0, 0)" stroke-opacity="1.0" stroke-linecap="round" stroke-linejoin="round"/>
  </g>
</svg>
