<?xml version="1.0" ?>
<svg xmlns="http://www.w3.org/2000/svg" version="1.1" width="512" height="512">
  <defs/>
  <g>
    <path d="M 435.7633361816406 459.2400207519531 C 400.6710510253906 553.4746704101562 352.2316589355469 577.2880249023438 183.00352478027344 533.6632690429688 C 54.20764923095703 513.7797241210938 10.662854194641113 438.5692443847656 -6.642545223236084 374.2941589355469 C -38.033931732177734 246.0369110107422 -8.042841911315918 161.70126342773438 7.766595840454102 187.6498565673828 C 204.3737030029297 298.51556396484375 294.88800048828125 197.86581420898438 435.7633361816406 459.2400207519531" stroke-width="0.0" fill="rgb(249, 220, 0)" opacity="1.0" stroke="rgb(0, 0, 0)" stroke-opacity="1.0" stroke-linecap="round" stroke-linejoin="round"/>
    <path d="M 303.41015625 80.98550415039062 C 173.32460021972656 35.785457611083984 88.47803497314453 128.98068237304688 94.4338607788086 177.32736206054688 C -23.98699378967285 252.42132568359375 -12.735749244689941 186.82064819335938 4.5004987716674805 109.48555755615234 C 21.152589797973633 55.827457427978516 65.38524627685547 5.240021705627441 117.32150268554688 -21.531696319580078 C 218.181884765625 -23.376232147216797 354.16644287109375 23.414648056030273 303.41015625 80.98550415039062" stroke-width="0.0" fill="rgb(230, 219, 0)" opacity="1.0" stroke="rgb(0, 0, 0)" stroke-opacity="1.0" stroke-linecap="round" stroke-linejoin="round"/>
    <path d="M 386.3860168457031 203.51669311523438 C 398.05322265625 312.3819580078125 448.6240539550781 286.59149169921875 356.8200988769531 289.08306884765625 C 226.14161682128906 373.82855224609375 215.9783477783203 393.0152282714844 184.4430694580078 159.02920532226562 C 405.5980224609375 72.99235534667969 351.977294921875 206.23561096191406 474.9743347167969 149.64804077148438 C 447.3923645019531 246.19435119628906 438.05816650390625 184.49034118652344 386.3860168457031 203.51669311523438" stroke-width="0.0" fill="rgb(201, 17, 47)" opacity="0.9466017" stroke="rgb(0, 0, 0)" stroke-opacity="1.0" stroke-linecap="round" stroke-linejoin="round"/>
    <path d="M 195.87229919433594 171.66062927246094 C 286.4686279296875 271.01287841796875 282.8056335449219 226.75637817382812 199.61309814453125 325.5097351074219 C 64.89794158935547 256.46014404296875 65.48924255371094 244.77972412109375 98.09636688232422 195.5877685546875 C 115.06155395507812 159.65310668945312 124.24100494384766 140.72265625 111.0197982788086 196.28208923339844 C 190.79835510253906 137.24855041503906 142.1358642578125 178.3760986328125 195.87229919433594 171.66062927246094" stroke-width="0.0" fill="rgb(118, 240, 24)" opacity="1.0" stroke="rgb(0, 0, 0)" stroke-opacity="1.0" stroke-linecap="round" stroke-linejoin="round"/>
    <path d="M 482.1152038574219 418.1340026855469 C 500.47821044921875 459.8343200683594 428.8998718261719 521.0625 328.50738525390625 540.0633544921875 C 193.34634399414062 483.749755859375 216.25601196289062 512.9862670898438 285.2099914550781 462.38629150390625 C 209.5782012939453 253.93795776367188 254.34075927734375 269.3021240234375 373.3773193359375 289.32598876953125 C 504.73223876953125 268.8663635253906 458.7608642578125 240.87635803222656 482.1152038574219 418.1340026855469" stroke-width="0.0" fill="rgb(168, 138, 0)" opacity="0.6152087" stroke="rgb(0, 0, 0)" stroke-opacity="1.0" stroke-linecap="round" stroke-linejoin="round"/>
    <path d="M 558.1165771484375 208.46951293945312 C 549.7877807617188 283.8634948730469 556.1572265625 366.6730041503906 506.7923278808594 428.8101501464844 C 305.71258544921875 367.7687683105469 428.1026306152344 292.1219177246094 464.64117431640625 187.4048614501953 C 431.6236267089844 50.8824348449707 222.1256561279297 42.669097900390625 319.48712158203125 -35.66741180419922 C 492.7644348144531 -8.682557106018066 564.919189453125 114.18936920166016 558.1165771484375 208.46951293945312" stroke-width="0.0" fill="rgb(227, 202, 0)" opacity="0.9989522" stroke="rgb(0, 0, 0)" stroke-opacity="1.0" stroke-linecap="round" stroke-linejoin="round"/>
    <path d="M 311.82073974609375 259.5939025878906 C 318.05438232421875 298.1535949707031 383.95941162109375 419.60430908203125 376.1651306152344 445.2248229980469 C 281.28515625 288.09161376953125 258.5353698730469 290.6292724609375 261.3925476074219 260.0416564941406 C 270.05621337890625 255.17071533203125 299.42919921875 266.17352294921875 346.8973693847656 263.87127685546875 C 371.8480529785156 251.42417907714844 363.2687072753906 254.2792510986328 311.82073974609375 259.5939025878906" stroke-width="0.0" fill="rgb(205, 4, 118)" opacity="0.28924456" stroke="rgb(0, 0, 0)" stroke-opacity="1.0" stroke-linecap="round" stroke-linejoin="round"/>
    <path d="M 373.1278381347656 174.6555938720703 C 355.9403381347656 211.69537353515625 355.3813781738281 234.97071838378906 342.18841552734375 212.9846649169922 C 271.50750732421875 235.24754333496094 294.86834716796875 235.88099670410156 349.9080810546875 227.3147735595703 C 353.905029296875 177.9437713623047 299.24591064453125 170.53260803222656 408.11102294921875 113.28143310546875 C 403.4329528808594 170.4178466796875 369.6664123535156 174.68739318847656 373.1278381347656 174.6555938720703" stroke-width="0.0" fill="rgb(66, 215, 42)" opacity="0.9669044" stroke="rgb(0, 0, 0)" stroke-opacity="1.0" stroke-linecap="round" stroke-linejoin="round"/>
    <path d="M 337.2079772949219 225.53009033203125 C 206.00892639160156 299.45343017578125 327.4586486816406 398.0838317871094 226.99609375 305.7017822265625 C 359.5081787109375 165.4517364501953 195.8987274169922 360.1485900878906 223.2888946533203 278.1130065917969 C 237.72804260253906 335.76080322265625 187.81129455566406 281.4057922363281 202.5055389404297 268.5906677246094 C 300.92431640625 305.5857238769531 211.39927673339844 228.65525817871094 337.2079772949219 225.53009033203125" stroke-width="0.0" fill="rgb(222, 57, 43)" opacity="0.7814523" stroke="rgb(0, 0, 0)" stroke-opacity="1.0" stroke-linecap="round" stroke-linejoin="round"/>
    <path d="M 460.7901916503906 97.82296752929688 C 560.8215942382812 224.83914184570312 501.15545654296875 429.15283203125 415.4068908691406 430.713134765625 C 334.7956237792969 414.6548767089844 255.58627319335938 371.1082763671875 297.80645751953125 298.24322509765625 C 363.3175048828125 265.05401611328125 351.3513488769531 299.0356140136719 375.6372375488281 234.5251007080078 C 378.12969970703125 247.14744567871094 428.8775939941406 241.079833984375 460.7901916503906 97.82296752929688" stroke-width="0.0" fill="rgb(41, 95, 192)" opacity="1.0" stroke="rgb(0, 0, 0)" stroke-opacity="1.0" stroke-linecap="round" stroke-linejoin="round"/>
    <path d="M 236.36434936523438 429.2554931640625 C 104.07551574707031 471.33941650390625 169.78985595703125 370.2665100097656 264.0001220703125 504.990234375 C 135.5482177734375 493.2966003417969 52.781551361083984 405.74334716796875 34.646034240722656 303.377197265625 C 8.22903060913086 217.75869750976562 74.4485855102539 36.86661148071289 106.02510833740234 275.2789611816406 C 263.73223876953125 288.7337646484375 258.1289367675781 306.6567687988281 236.36434936523438 429.2554931640625" stroke-width="0.0" fill="rgb(80, 133, 255)" opacity="0.99991345" stroke="rgb(0, 0, 0)" stroke-opacity="1.0" stroke-linecap="round" stroke-linejoin="round"/>
    <path d="M 499.93682861328125 152.25726318359375 C 491.8526611328125 222.45571899414062 472.1681213378906 190.53675842285156 406.02154541015625 155.51637268066406 C 371.318603515625 72.8466567993164 323.1096496582031 62.883731842041016 253.58236694335938 62.693050384521484 C 155.3596954345703 87.03032684326172 191.82595825195312 95.6610336303711 252.83184814453125 2.2244467735290527 C 354.3931884765625 -5.14408540725708 447.5950012207031 44.30324172973633 499.93682861328125 152.25726318359375" stroke-width="0.0" fill="rgb(93, 134, 254)" opacity="0.99656206" stroke="rgb(0, 0, 0)" stroke-opacity="1.0" stroke-linecap="round" stroke-linejoin="round"/>
    <path d="M 293.18133544921875 457.52325439453125 C 314.4872131347656 459.5807189941406 259.7653503417969 459.6046142578125 186.5966339111328 456.81707763671875 C 234.38694763183594 474.5466003417969 242.4212188720703 399.84112548828125 251.03866577148438 382.818603515625 C 256.39910888671875 390.9264831542969 251.9252166748047 392.227294921875 277.166259765625 384.40618896484375 C 287.37347412109375 145.56881713867188 254.17030334472656 289.9018859863281 293.18133544921875 457.52325439453125" stroke-width="0.0" fill="rgb(245, 8, 131)" opacity="0.3045403" stroke="rgb(0, 0, 0)" stroke-opacity="1.0" stroke-linecap="round" stroke-linejoin="round"/>
    <path d="M 440.043701171875 437.37310791015625 C 419.6641540527344 459.7225646972656 374.2565612792969 495.4934997558594 286.6659851074219 505.2881774902344 C 241.27090454101562 514.7005004882812 241.26914978027344 480.3214416503906 179.50894165039062 443.6661071777344 C 351.1567687988281 446.4683837890625 401.7847595214844 447.4141540527344 425.11077880859375 440.03790283203125 C 479.11614990234375 454.4235534667969 477.5941162109375 434.25048828125 440.043701171875 437.37310791015625" stroke-width="0.0" fill="rgb(24, 181, 87)" opacity="0.92955464" stroke="rgb(0, 0, 0)" stroke-opacity="1.0" stroke-linecap="round" stroke-linejoin="round"/>
    <path d="M 349.54827880859375 33.31621170043945 C 288.66693115234375 -28.12188720703125 114.34502410888672 9.547863006591797 147.22828674316406 102.53822326660156 C 261.55670166015625 119.34945678710938 194.23736572265625 -19.95945167541504 113.2032699584961 93.93736267089844 C 138.94607543945312 100.5162124633789 246.06947326660156 25.953929901123047 165.69430541992188 34.62450408935547 C 232.1502685546875 102.42070770263672 121.22130584716797 131.1345672607422 349.54827880859375 33.31621170043945" stroke-width="0.0" fill="rgb(104, 143, 255)" opacity="0.99866796" stroke="rgb(0, 0, 0)" stroke-opacity="1.0" stroke-linecap="round" stroke-linejoin="round"/>
    <path d="M 308.38299560546875 142.2459716796875 C 351.0041809082031 166.43475341796875 329.4503173828125 224.4826202392578 436.5132751464844 172.9296112060547 C 411.8326416015625 82.00634765625 325.7535400390625 18.670045852661133 227.25015258789062 65.13231658935547 C 168.48590087890625 283.0309753417969 269.8758850097656 238.63250732421875 309.13623046875 167.49383544921875 C 325.7389831542969 140.17515563964844 319.2878112792969 122.50330352783203 308.38299560546875 142.2459716796875" stroke-width="0.0" fill="rgb(79, 212, 35)" opacity="0.9931496" stroke="rgb(0, 0, 0)" stroke-opacity="1.0" stroke-linecap="round" stroke-linejoin="round"/>
    <path d="M 360.63043212890625 175.10511779785156 C 365.12957763671875 178.3507537841797 357.65582275390625 197.36911010742188 344.90234375 202.34140014648438 C 364.2874755859375 189.71705627441406 340.059326171875 167.59805297851562 308.3079528808594 206.92431640625 C 378.99468994140625 231.7126922607422 414.8909912109375 245.30581665039062 437.6695251464844 190.17703247070312 C 374.4206848144531 167.57859802246094 365.8819885253906 184.59645080566406 360.63043212890625 175.10511779785156" stroke-width="0.0" fill="rgb(151, 144, 43)" opacity="0.037681136" stroke="rgb(0, 0, 0)" stroke-opacity="1.0" stroke-linecap="round" stroke-linejoin="round"/>
    <path d="M 442.0371398925781 167.5669708251953 C 445.9472961425781 204.17529296875 433.833251953125 203.36753845214844 433.9617614746094 259.4139099121094 C 395.7435607910156 330.4712219238281 314.9764099121094 321.9403991699219 317.74725341796875 291.04949951171875 C 406.6148986816406 217.11053466796875 382.82281494140625 164.53292846679688 410.33343505859375 104.63094329833984 C 451.22821044921875 208.8747100830078 445.1980895996094 181.5620880126953 442.0371398925781 167.5669708251953" stroke-width="0.0" fill="rgb(85, 209, 37)" opacity="0.9900495" stroke="rgb(0, 0, 0)" stroke-opacity="1.0" stroke-linecap="round" stroke-linejoin="round"/>
    <path d="M 291.7943420410156 140.21156311035156 C 289.6636657714844 168.97430419921875 287.4999694824219 201.3933868408203 256.2478332519531 224.27099609375 C 242.93292236328125 216.45819091796875 232.7044677734375 197.11842346191406 199.1417694091797 137.4831085205078 C 301.8431701660156 119.47338104248047 311.5995178222656 137.9806365966797 296.8372802734375 144.79408264160156 C 277.30828857421875 141.78048706054688 289.294677734375 131.26901245117188 291.7943420410156 140.21156311035156" stroke-width="0.0" fill="rgb(83, 207, 42)" opacity="0.8928885" stroke="rgb(0, 0, 0)" stroke-opacity="1.0" stroke-linecap="round" stroke-linejoin="round"/>
    <path d="M 83.25489044189453 100.55713653564453 C 95.65424346923828 87.74198150634766 54.21897506713867 110.44354248046875 34.41691207885742 199.14651489257812 C 126.1836929321289 272.02642822265625 91.21940612792969 240.76150512695312 123.51123809814453 186.29135131835938 C 186.81439208984375 176.65606689453125 244.66390991210938 139.9136199951172 197.67124938964844 12.900922775268555 C 77.65447235107422 64.58084869384766 70.61048889160156 123.76300811767578 83.25489044189453 100.55713653564453" stroke-width="0.0" fill="rgb(91, 132, 250)" opacity="0.9890097" stroke="rgb(0, 0, 0)" stroke-opacity="1.0" stroke-linecap="round" stroke-linejoin="round"/>
    <path d="M 318.11846923828125 230.85421752929688 C 275.8966064453125 212.06326293945312 283.38800048828125 239.6270751953125 251.2917022705078 279.4382629394531 C 227.22528076171875 282.5978698730469 268.0435791015625 268.12139892578125 256.216796875 232.45640563964844 C 273.4850158691406 244.84942626953125 268.0115051269531 234.62522888183594 307.50146484375 242.38645935058594 C 297.6590576171875 232.65916442871094 314.9727478027344 204.5991973876953 318.11846923828125 230.85421752929688" stroke-width="0.0" fill="rgb(178, 76, 20)" opacity="0.3398345" stroke="rgb(0, 0, 0)" stroke-opacity="1.0" stroke-linecap="round" stroke-linejoin="round"/>
    <path d="M 277.0730895996094 131.38897705078125 C 260.22308349609375 146.8944091796875 228.51112365722656 123.63897705078125 192.20826721191406 188.88319396972656 C 173.5464324951172 241.01779174804688 116.45931243896484 232.06837463378906 108.1227035522461 199.41160583496094 C 124.96087646484375 92.7204818725586 160.7052764892578 66.98530578613281 220.98475646972656 61.696407318115234 C 298.1238098144531 19.696367263793945 293.00518798828125 64.5888900756836 277.0730895996094 131.38897705078125" stroke-width="0.0" fill="rgb(130, 224, 44)" opacity="0.97305363" stroke="rgb(0, 0, 0)" stroke-opacity="1.0" stroke-linecap="round" stroke-linejoin="round"/>
    <path d="M 262.6719665527344 342.89990234375 C 311.9338073730469 360.4739990234375 268.0113830566406 325.9132080078125 300.4492492675781 364.7718505859375 C 293.00616455078125 327.3478698730469 283.4508056640625 332.23077392578125 288.5111083984375 335.8809814453125 C 269.28900146484375 395.98797607421875 294.82659912109375 389.7879333496094 288.1522216796875 305.79168701171875 C 266.37750244140625 306.62213134765625 233.7718048095703 285.8525085449219 262.6719665527344 342.89990234375" stroke-width="0.0" fill="rgb(209, 44, 123)" opacity="0.063503616" stroke="rgb(0, 0, 0)" stroke-opacity="1.0" stroke-linecap="round" stroke-linejoin="round"/>
    <path d="M 340.928466796875 167.80357360839844 C 376.5021057128906 230.43731689453125 327.3736267089844 238.42694091796875 300.236328125 277.63226318359375 C 322.4349365234375 283.7955627441406 325.6004638671875 286.5679931640625 303.8065490722656 259.5489196777344 C 323.0482177734375 248.05059814453125 323.39923095703125 275.88092041015625 286.958740234375 286.15838623046875 C 280.3720397949219 243.24343872070312 278.9507141113281 227.2223358154297 340.928466796875 167.80357360839844" stroke-width="0.0" fill="rgb(60, 226, 38)" opacity="0.9605877" stroke="rgb(0, 0, 0)" stroke-opacity="1.0" stroke-linecap="round" stroke-linejoin="round"/>
    <path d="M 545.4988403320312 99.6558609008789 C 525.3876953125 148.7046356201172 523.9609375 150.57138061523438 518.8759765625 125.33848571777344 C 463.89910888671875 114.56229400634766 461.3199768066406 109.00489044189453 459.9236145019531 58.876258850097656 C 462.89306640625 24.28309440612793 467.692626953125 9.170819282531738 471.3987121582031 2.5772409439086914 C 535.2562866210938 26.574016571044922 540.4762573242188 34.00370407104492 545.4988403320312 99.6558609008789" stroke-width="0.0" fill="rgb(227, 225, 0)" opacity="0.99905884" stroke="rgb(0, 0, 0)" stroke-opacity="1.0" stroke-linecap="round" stroke-linejoin="round"/>
    <path d="M 106.92926025390625 482.3766174316406 C 116.32095336914062 534.456298828125 101.93379211425781 534.2354736328125 39.904029846191406 546.3199462890625 C 38.77775955200195 478.34600830078125 21.152481079101562 470.6708984375 39.58346176147461 478.0628356933594 C 41.221832275390625 483.93389892578125 58.116920471191406 479.36883544921875 60.097206115722656 419.95050048828125 C 95.8087387084961 425.50811767578125 105.41515350341797 421.2080383300781 106.92926025390625 482.3766174316406" stroke-width="0.0" fill="rgb(240, 230, 0)" opacity="0.99738455" stroke="rgb(0, 0, 0)" stroke-opacity="1.0" stroke-linecap="round" stroke-linejoin="round"/>
    <path d="M 318.59735107421875 416.0006103515625 C 313.56170654296875 434.9022216796875 258.76708984375 416.32025146484375 235.61964416503906 418.40460205078125 C 243.77427673339844 415.01080322265625 236.86328125 418.0758972167969 240.43902587890625 402.04254150390625 C 250.97679138183594 380.6425476074219 242.2707061767578 344.3011779785156 267.80078125 310.7839050292969 C 291.557861328125 385.8954772949219 302.4808349609375 357.6755065917969 318.59735107421875 416.0006103515625" stroke-width="0.0" fill="rgb(253, 49, 47)" opacity="0.6298463" stroke="rgb(0, 0, 0)" stroke-opacity="1.0" stroke-linecap="round" stroke-linejoin="round"/>
    <path d="M 65.15074920654297 441.0126037597656 C 54.274993896484375 495.7467041015625 47.49980926513672 488.32049560546875 32.3968391418457 499.12298583984375 C 6.932373046875 502.44708251953125 -18.4527530670166 484.4437255859375 -32.798152923583984 484.20025634765625 C -37.826683044433594 419.2647705078125 -62.107177734375 383.0971984863281 -2.613459587097168 391.70343017578125 C 49.825157165527344 392.2357177734375 81.98572540283203 422.6002197265625 65.15074920654297 441.0126037597656" stroke-width="0.0" fill="rgb(231, 218, 0)" opacity="0.9936142" stroke="rgb(0, 0, 0)" stroke-opacity="1.0" stroke-linecap="round" stroke-linejoin="round"/>
    <path d="M 547.5036010742188 432.0294189453125 C 533.1174926757812 511.4598388671875 532.705322265625 521.4187622070312 434.2114562988281 548.2008056640625 C 402.118896484375 540.5850219726562 396.7531433105469 530.8724975585938 431.7228088378906 437.9573059082031 C 461.92724609375 414.7879943847656 486.3797302246094 409.30487060546875 522.454345703125 407.7720642089844 C 522.948974609375 398.010986328125 535.26806640625 391.3721923828125 547.5036010742188 432.0294189453125" stroke-width="0.0" fill="rgb(159, 176, 0)" opacity="1.0" stroke="rgb(0, 0, 0)" stroke-opacity="1.0" stroke-linecap="round" stroke-linejoin="round"/>
    <path d="M 347.57806396484375 424.9999084472656 C 402.6077880859375 428.6357116699219 437.8299255371094 426.2132568359375 327.47357177734375 419.3313293457031 C 296.5142517089844 420.7061767578125 302.6643981933594 434.0382080078125 295.5007019042969 418.94244384765625 C 295.59716796875 391.099853515625 279.41925048828125 328.39910888671875 306.5486145019531 344.9099426269531 C 346.9720458984375 370.9196472167969 343.58941650390625 388.2359313964844 347.57806396484375 424.9999084472656" stroke-width="0.0" fill="rgb(45, 101, 191)" opacity="1.0" stroke="rgb(0, 0, 0)" stroke-opacity="1.0" stroke-linecap="round" stroke-linejoin="round"/>
    <path d="M 84.80828094482422 484.5144958496094 C 89.80155181884766 558.1514892578125 62.9975700378418 552.2529296875 11.428245544433594 566.4888305664062 C -11.462296485900879 524.9802856445312 -29.923357009887695 511.0638732910156 -6.441985607147217 435.93017578125 C 5.720686912536621 440.4746398925781 23.58013343811035 463.7471618652344 57.80702209472656 458.7933349609375 C 48.887935638427734 421.3807067871094 72.5803451538086 420.66864013671875 84.80828094482422 484.5144958496094" stroke-width="0.0" fill="rgb(225, 213, 0)" opacity="1.0" stroke="rgb(0, 0, 0)" stroke-opacity="1.0" stroke-linecap="round" stroke-linejoin="round"/>
    <path d="M 526.166015625 255.29823303222656 C 529.3995971679688 257.2085266113281 511.8262023925781 216.12059020996094 502.9606628417969 224.85919189453125 C 494.3873291015625 212.33702087402344 471.20098876953125 206.3659210205078 472.106201171875 177.9717559814453 C 442.59576416015625 143.09109497070312 418.35247802734375 148.35284423828125 495.8410949707031 146.99932861328125 C 523.9472045898438 188.9100799560547 526.4345703125 188.06776428222656 526.166015625 255.29823303222656" stroke-width="0.0" fill="rgb(89, 124, 255)" opacity="1.0" stroke="rgb(0, 0, 0)" stroke-opacity="1.0" stroke-linecap="round" stroke-linejoin="round"/>
    <path d="M 230.983154296875 281.6974792480469 C 252.4977569580078 309.886962890625 249.134033203125 273.3484191894531 255.59373474121094 287.7892150878906 C 258.7156982421875 302.8054504394531 269.1401672363281 279.34503173828125 253.71038818359375 266.68878173828125 C 203.67054748535156 289.5028381347656 205.3887939453125 257.19512939453125 232.49061584472656 277.6636047363281 C 266.3726806640625 296.26080322265625 232.75367736816406 290.1695556640625 230.983154296875 281.6974792480469" stroke-width="0.0" fill="rgb(184, 52, 44)" opacity="0.869241" stroke="rgb(0, 0, 0)" stroke-opacity="1.0" stroke-linecap="round" stroke-linejoin="round"/>
    <path d="M 433.7651062011719 163.72802734375 C 462.751953125 189.01614379882812 434.1821594238281 195.25619506835938 422.7190246582031 163.58633422851562 C 440.5963134765625 171.9962615966797 419.91766357421875 173.0081787109375 407.18133544921875 163.22689819335938 C 398.198486328125 128.38107299804688 402.1449890136719 116.71524047851562 422.98956298828125 126.0452651977539 C 414.0895080566406 151.94247436523438 428.75457763671875 149.53878784179688 433.7651062011719 163.72802734375" stroke-width="0.0" fill="rgb(94, 199, 47)" opacity="0.5651165" stroke="rgb(0, 0, 0)" stroke-opacity="1.0" stroke-linecap="round" stroke-linejoin="round"/>
    <path d="M 476.6131591796875 472.89923095703125 C 477.08428955078125 529.7260131835938 481.8616027832031 543.1708374023438 433.47369384765625 538.7263793945312 C 404.1092834472656 526.251220703125 397.9483642578125 517.6588745117188 399.5592346191406 504.2305908203125 C 399.7742004394531 446.3759765625 395.05810546875 419.2311096191406 438.6850891113281 414.9222412109375 C 497.0373229980469 419.2327575683594 468.5140686035156 435.14324951171875 476.6131591796875 472.89923095703125" stroke-width="0.0" fill="rgb(169, 182, 0)" opacity="0.81487215" stroke="rgb(0, 0, 0)" stroke-opacity="1.0" stroke-linecap="round" stroke-linejoin="round"/>
    <path d="M 223.21778869628906 55.187156677246094 C 172.4099578857422 66.84385681152344 160.48948669433594 82.74542999267578 181.945556640625 80.23052978515625 C 193.96238708496094 67.42308807373047 170.88096618652344 68.68384552001953 157.6002197265625 99.49017333984375 C 177.14369201660156 67.61268615722656 183.94093322753906 71.6672592163086 182.07493591308594 75.77249908447266 C 207.54237365722656 82.91094970703125 223.20338439941406 50.048213958740234 223.21778869628906 55.187156677246094" stroke-width="0.0" fill="rgb(97, 216, 70)" opacity="0.14941452" stroke="rgb(0, 0, 0)" stroke-opacity="1.0" stroke-linecap="round" stroke-linejoin="round"/>
    <path d="M 458.5561218261719 -0.6694783568382263 C 486.4774475097656 -6.820896625518799 498.02020263671875 16.618886947631836 468.6159362792969 31.056453704833984 C 442.0384216308594 29.153301239013672 430.2919921875 21.8966007232666 426.3817443847656 -0.2735387980937958 C 402.04718017578125 -18.619274139404297 404.92596435546875 -22.73061180114746 428.281982421875 -29.220327377319336 C 495.5714111328125 -23.20793342590332 465.6072082519531 -14.758811950683594 458.5561218261719 -0.6694783568382263" stroke-width="0.0" fill="rgb(107, 223, 4)" opacity="0.73671025" stroke="rgb(0, 0, 0)" stroke-opacity="1.0" stroke-linecap="round" stroke-linejoin="round"/>
    <path d="M 553.6187744140625 24.356958389282227 C 546.3291625976562 39.87586212158203 521.830078125 30.080827713012695 498.384765625 34.770267486572266 C 503.76385498046875 33.455223083496094 463.2541809082031 34.184173583984375 417.2917785644531 31.938989639282227 C 416.8968505859375 6.7801642417907715 427.1189270019531 -22.565786361694336 452.4272766113281 -25.02070426940918 C 513.3515625 -7.466573715209961 521.2838745117188 -2.8233680725097656 553.6187744140625 24.356958389282227" stroke-width="0.0" fill="rgb(231, 226, 0)" opacity="0.9968304" stroke="rgb(0, 0, 0)" stroke-opacity="1.0" stroke-linecap="round" stroke-linejoin="round"/>
    <path d="M 191.46133422851562 428.23175048828125 C 192.56004333496094 435.27191162109375 184.67718505859375 452.46514892578125 195.18894958496094 458.8739929199219 C 198.12355041503906 437.81103515625 187.53237915039062 429.3559875488281 184.24708557128906 438.9749450683594 C 172.77378845214844 445.4812316894531 182.99124145507812 429.11297607421875 157.0004119873047 445.3727722167969 C 190.4190673828125 435.48822021484375 194.62921142578125 434.52410888671875 191.46133422851562 428.23175048828125" stroke-width="0.0" fill="rgb(42, 109, 161)" opacity="0.4561331" stroke="rgb(0, 0, 0)" stroke-opacity="1.0" stroke-linecap="round" stroke-linejoin="round"/>
    <path d="M 346.26190185546875 239.6966552734375 C 372.9715576171875 255.672119140625 371.73797607421875 265.44293212890625 367.4781188964844 257.64678955078125 C 344.8623046875 238.9078369140625 333.0702209472656 235.80343627929688 340.8128662109375 215.5032501220703 C 348.05535888671875 213.50180053710938 334.76885986328125 173.35772705078125 353.72607421875 184.7424774169922 C 359.3147888183594 198.00021362304688 333.8755187988281 231.55079650878906 346.26190185546875 239.6966552734375" stroke-width="0.0" fill="rgb(68, 182, 1)" opacity="0.049340867" stroke="rgb(0, 0, 0)" stroke-opacity="1.0" stroke-linecap="round" stroke-linejoin="round"/>
    <path d="M 180.2666473388672 248.492431640625 C 188.28872680664062 257.5818176269531 195.1983184814453 272.03125 176.9684600830078 270.7528991699219 C 157.6945343017578 273.86273193359375 141.13311767578125 266.04205322265625 133.6901092529297 255.2736053466797 C 158.49607849121094 252.2234649658203 180.3128204345703 248.0598602294922 190.37156677246094 252.03529357910156 C 163.26739501953125 244.89231872558594 164.84915161132812 250.63172912597656 180.2666473388672 248.492431640625" stroke-width="0.0" fill="rgb(122, 237, 1)" opacity="0.94778264" stroke="rgb(0, 0, 0)" stroke-opacity="1.0" stroke-linecap="round" stroke-linejoin="round"/>
    <path d="M 243.54774475097656 435.7174072265625 C 238.41517639160156 465.4140625 183.06915283203125 460.4784851074219 141.20623779296875 450.40496826171875 C 147.07789611816406 448.1510925292969 91.33618927001953 462.49871826171875 99.48734283447266 426.60772705078125 C 132.13641357421875 415.4146423339844 183.50686645507812 416.8531188964844 202.73751831054688 421.4598693847656 C 186.70584106445312 423.9504699707031 242.51002502441406 414.9661560058594 243.54774475097656 435.7174072265625" stroke-width="0.0" fill="rgb(121, 252, 0)" opacity="0.99422693" stroke="rgb(0, 0, 0)" stroke-opacity="1.0" stroke-linecap="round" stroke-linejoin="round"/>
    <path d="M 215.64089965820312 249.0457000732422 C 230.29489135742188 284.5106506347656 210.2570343017578 318.28509521484375 152.57806396484375 307.8255310058594 C 124.72622680664062 294.34130859375 122.19115447998047 265.6298522949219 125.34669494628906 249.53448486328125 C 131.29324340820312 217.94027709960938 172.0777130126953 232.40208435058594 194.8832550048828 243.92483520507812 C 195.1100616455078 235.3857421875 197.121826171875 249.91470336914062 215.64089965820312 249.0457000732422" stroke-width="0.0" fill="rgb(117, 229, 24)" opacity="0.9734746" stroke="rgb(0, 0, 0)" stroke-opacity="1.0" stroke-linecap="round" stroke-linejoin="round"/>
    <path d="M 231.8741455078125 95.39926147460938 C 239.0995635986328 104.6292495727539 264.0480041503906 113.63774871826172 229.5349884033203 109.408935546875 C 187.1455078125 115.63348388671875 141.68820190429688 82.89558410644531 214.74972534179688 78.3934555053711 C 201.0162353515625 92.48460388183594 195.24453735351562 72.38184356689453 216.1420135498047 80.59259796142578 C 228.8644561767578 73.61446380615234 235.3765869140625 86.90786743164062 231.8741455078125 95.39926147460938" stroke-width="0.0" fill="rgb(139, 242, 10)" opacity="0.002470348" stroke="rgb(0, 0, 0)" stroke-opacity="1.0" stroke-linecap="round" stroke-linejoin="round"/>
    <path d="M 40.489803314208984 118.93356323242188 C 31.88652992248535 140.27684020996094 35.793819427490234 149.9776153564453 29.702280044555664 165.35684204101562 C -11.240694999694824 178.75509643554688 -23.74850845336914 163.81040954589844 -38.37643051147461 87.01486206054688 C -38.42498779296875 33.954627990722656 -53.970794677734375 -8.178159713745117 53.473052978515625 -8.098200798034668 C 98.06661224365234 20.016279220581055 86.79795837402344 93.76698303222656 40.489803314208984 118.93356323242188" stroke-width="0.0" fill="rgb(225, 222, 0)" opacity="1.0" stroke="rgb(0, 0, 0)" stroke-opacity="1.0" stroke-linecap="round" stroke-linejoin="round"/>
    <path d="M 390.0514221191406 85.85215759277344 C 399.79974365234375 103.22699737548828 419.56243896484375 98.2286376953125 425.4618835449219 141.11630249023438 C 366.8951416015625 119.82844543457031 369.8000793457031 91.50140380859375 341.7932434082031 96.43374633789062 C 341.5003967285156 87.03795623779297 339.04058837890625 73.31889343261719 368.6881103515625 67.90229034423828 C 378.8210754394531 96.57493591308594 399.4647216796875 103.12482452392578 390.0514221191406 85.85215759277344" stroke-width="0.0" fill="rgb(75, 230, 48)" opacity="0.08261264" stroke="rgb(0, 0, 0)" stroke-opacity="1.0" stroke-linecap="round" stroke-linejoin="round"/>
    <path d="M 55.53565216064453 477.4517517089844 C 83.43389129638672 516.9135131835938 64.41361236572266 508.5595397949219 25.83987045288086 492.46710205078125 C 24.755168914794922 468.9461364746094 -7.38823127746582 492.57086181640625 -1.1536530256271362 464.94122314453125 C 34.81060791015625 468.3876037597656 51.45878601074219 466.83624267578125 40.09302520751953 447.2152099609375 C 53.164119720458984 447.5119934082031 50.7891731262207 449.3960876464844 55.53565216064453 477.4517517089844" stroke-width="0.0" fill="rgb(241, 202, 0)" opacity="0.15922278" stroke="rgb(0, 0, 0)" stroke-opacity="1.0" stroke-linecap="round" stroke-linejoin="round"/>
    <path d="M 145.50718688964844 260.40887451171875 C 133.11001586914062 271.3534851074219 134.44862365722656 259.0887756347656 149.36683654785156 255.8870849609375 C 146.695068359375 237.8743896484375 143.06588745117188 211.64169311523438 112.78279876708984 214.00390625 C 70.12781524658203 197.31541442871094 98.8387451171875 127.32107543945312 126.02120208740234 175.34619140625 C 157.0230712890625 210.50814819335938 146.84861755371094 234.31028747558594 145.50718688964844 260.40887451171875" stroke-width="0.0" fill="rgb(124, 231, 25)" opacity="0.99501854" stroke="rgb(0, 0, 0)" stroke-opacity="1.0" stroke-linecap="round" stroke-linejoin="round"/>
    <path d="M 237.01394653320312 35.6408576965332 C 334.9056396484375 49.46757125854492 320.2143249511719 29.819602966308594 287.19476318359375 10.220613479614258 C 308.11865234375 -16.528539657592773 243.9171905517578 -20.521133422851562 257.4386291503906 8.689142227172852 C 275.52178955078125 33.09966278076172 273.7328796386719 3.0745298862457275 274.4668884277344 -34.678924560546875 C 274.0844421386719 -38.38712692260742 258.11822509765625 -48.425819396972656 237.01394653320312 35.6408576965332" stroke-width="0.0" fill="rgb(83, 163, 255)" opacity="0.068148986" stroke="rgb(0, 0, 0)" stroke-opacity="1.0" stroke-linecap="round" stroke-linejoin="round"/>
    <path d="M 537.7000732421875 264.1481628417969 C 580.77587890625 304.8930358886719 547.4893798828125 295.0500793457031 492.2799987792969 290.627685546875 C 491.2216491699219 278.0621032714844 475.25555419921875 232.34799194335938 478.4163513183594 238.6050567626953 C 523.6107788085938 233.87811279296875 518.6077270507812 230.73756408691406 513.0225219726562 228.93934631347656 C 514.719482421875 243.18458557128906 526.0777587890625 246.73680114746094 537.7000732421875 264.1481628417969" stroke-width="0.0" fill="rgb(17, 129, 140)" opacity="0.047569163" stroke="rgb(0, 0, 0)" stroke-opacity="1.0" stroke-linecap="round" stroke-linejoin="round"/>
    <path d="M 269.6411437988281 418.9695129394531 C 261.13006591796875 430.4655456542969 266.1132507324219 423.9679260253906 268.6249694824219 416.9178466796875 C 242.50877380371094 407.8382568359375 235.2452850341797 388.8653869628906 280.5885925292969 397.7158508300781 C 251.9512939453125 426.9903259277344 244.9128875732422 407.4934387207031 256.4720153808594 416.1790466308594 C 266.6744384765625 408.3924560546875 275.7380065917969 399.441162109375 269.6411437988281 418.9695129394531" stroke-width="0.0" fill="rgb(195, 174, 0)" opacity="0.116347454" stroke="rgb(0, 0, 0)" stroke-opacity="1.0" stroke-linecap="round" stroke-linejoin="round"/>
    <path d="M 97.04796600341797 93.7872543334961 C 96.88668823242188 132.25025939941406 81.71622467041016 123.76343536376953 92.35594177246094 106.83673858642578 C 83.2591781616211 112.131103515625 66.34503936767578 101.05867767333984 26.925973892211914 97.04034423828125 C 51.628929138183594 122.72945404052734 51.64301681518555 108.50404357910156 48.19316101074219 95.17436218261719 C 86.47720336914062 100.67388153076172 101.81092834472656 93.24170684814453 97.04796600341797 93.7872543334961" stroke-width="0.0" fill="rgb(89, 180, 171)" opacity="0.0" stroke="rgb(0, 0, 0)" stroke-opacity="1.0" stroke-linecap="round" stroke-linejoin="round"/>
    <path d="M 461.87713623046875 212.4479217529297 C 476.1245422363281 217.23257446289062 480.1126403808594 228.38438415527344 476.9844970703125 276.31842041015625 C 448.8515319824219 281.36077880859375 469.7550354003906 264.162841796875 448.4346618652344 231.0476531982422 C 446.2093811035156 201.80311584472656 428.7186279296875 197.2229461669922 434.8260803222656 220.42874145507812 C 482.5273132324219 202.72140502929688 478.7792053222656 221.5856170654297 461.87713623046875 212.4479217529297" stroke-width="0.0" fill="rgb(19, 119, 161)" opacity="0.043885604" stroke="rgb(0, 0, 0)" stroke-opacity="1.0" stroke-linecap="round" stroke-linejoin="round"/>
    <path d="M 353.1006164550781 385.2366638183594 C 370.09893798828125 403.9211120605469 351.82855224609375 423.2522888183594 339.58953857421875 416.0244140625 C 382.2344055175781 367.7402648925781 370.4700622558594 361.7988586425781 342.0658264160156 386.5274658203125 C 335.1885986328125 373.3360595703125 341.3345031738281 364.7942199707031 346.3215026855469 358.34564208984375 C 355.9908142089844 349.24053955078125 351.3105163574219 370.6199035644531 353.1006164550781 385.2366638183594" stroke-width="0.0" fill="rgb(9, 123, 126)" opacity="0.057223365" stroke="rgb(0, 0, 0)" stroke-opacity="1.0" stroke-linecap="round" stroke-linejoin="round"/>
    <path d="M 394.5282287597656 190.58143615722656 C 363.0145568847656 177.09759521484375 354.1065979003906 193.2087860107422 343.7208557128906 221.16798400878906 C 343.1565246582031 213.60244750976562 339.71624755859375 198.1830596923828 337.723876953125 207.2752227783203 C 340.70306396484375 206.3665771484375 342.4092712402344 191.08251953125 366.263671875 184.44851684570312 C 393.31378173828125 177.32891845703125 397.92645263671875 183.7291259765625 394.5282287597656 190.58143615722656" stroke-width="0.0" fill="rgb(121, 181, 25)" opacity="0.07362765" stroke="rgb(0, 0, 0)" stroke-opacity="1.0" stroke-linecap="round" stroke-linejoin="round"/>
    <path d="M 98.92627716064453 440.31097412109375 C 105.78263092041016 458.3760681152344 120.32916259765625 456.330078125 99.58323669433594 435.0690002441406 C 35.20131301879883 438.749755859375 36.94219970703125 429.22528076171875 66.1838607788086 446.6169738769531 C 45.69934844970703 430.7328796386719 60.508304595947266 423.2538146972656 128.1436004638672 438.18817138671875 C 124.55763244628906 430.9321594238281 115.82063293457031 423.549560546875 98.92627716064453 440.31097412109375" stroke-width="0.0" fill="rgb(181, 237, 0)" opacity="0.06307154" stroke="rgb(0, 0, 0)" stroke-opacity="1.0" stroke-linecap="round" stroke-linejoin="round"/>
    <path d="M 118.29509735107422 454.6455383300781 C 108.22151947021484 489.47760009765625 113.91905212402344 491.9910583496094 65.49012756347656 467.6573486328125 C 38.1572265625 461.8346862792969 57.5625 472.5277099609375 83.00767517089844 483.6117248535156 C 76.2325668334961 468.04827880859375 61.022281646728516 446.17724609375 78.68516540527344 429.18212890625 C 90.65461730957031 417.632568359375 104.4854507446289 420.8230895996094 118.29509735107422 454.6455383300781" stroke-width="0.0" fill="rgb(219, 208, 11)" opacity="0.01526052" stroke="rgb(0, 0, 0)" stroke-opacity="1.0" stroke-linecap="round" stroke-linejoin="round"/>
    <path d="M 475.1467590332031 67.20401763916016 C 457.3594055175781 66.25804138183594 444.2766418457031 74.56636810302734 446.90087890625 54.09855270385742 C 450.5000305175781 52.18613815307617 435.1864318847656 56.71072769165039 438.82568359375 37.69696044921875 C 431.8652038574219 34.597225189208984 436.2825927734375 27.104093551635742 469.2690124511719 17.98073387145996 C 459.48504638671875 39.18946838378906 463.5508117675781 47.31598663330078 475.1467590332031 67.20401763916016" stroke-width="0.0" fill="rgb(240, 194, 43)" opacity="0.12396862" stroke="rgb(0, 0, 0)" stroke-opacity="1.0" stroke-linecap="round" stroke-linejoin="round"/>
    <path d="M 306.05487060546875 182.93490600585938 C 304.9510803222656 185.3185577392578 272.2958068847656 184.98348999023438 288.0369873046875 189.5849609375 C 282.02044677734375 220.1854248046875 271.4607238769531 185.86839294433594 292.10369873046875 194.2306671142578 C 302.6967468261719 184.8849334716797 299.2620544433594 178.1913299560547 315.58673095703125 147.296875 C 304.69976806640625 125.02861785888672 322.4505310058594 140.0076141357422 306.05487060546875 182.93490600585938" stroke-width="0.0" fill="rgb(90, 165, 47)" opacity="0.061752148" stroke="rgb(0, 0, 0)" stroke-opacity="1.0" stroke-linecap="round" stroke-linejoin="round"/>
    <path d="M 156.43643188476562 21.739295959472656 C 159.6464080810547 47.6935920715332 163.6538543701172 50.11979675292969 147.2198028564453 44.397361755371094 C 141.6550750732422 40.224185943603516 122.77912139892578 41.72257995605469 75.48892211914062 13.197630882263184 C 44.18687438964844 -6.123529434204102 40.9612922668457 -32.45569610595703 112.74207305908203 -12.296928405761719 C 159.17083740234375 -10.776300430297852 150.6888427734375 5.243495464324951 156.43643188476562 21.739295959472656" stroke-width="0.0" fill="rgb(140, 182, 0)" opacity="0.9777612" stroke="rgb(0, 0, 0)" stroke-opacity="1.0" stroke-linecap="round" stroke-linejoin="round"/>
    <path d="M 185.5735321044922 328.4867248535156 C 182.35499572753906 384.1766052246094 202.33250427246094 380.2904968261719 173.9644012451172 371.9682312011719 C 158.50970458984375 371.60333251953125 128.99034118652344 366.7657165527344 176.86940002441406 363.16741943359375 C 192.84161376953125 348.0757141113281 207.9700164794922 358.05517578125 205.20352172851562 350.4046936035156 C 189.74746704101562 346.4112854003906 165.12362670898438 348.4631042480469 185.5735321044922 328.4867248535156" stroke-width="0.0" fill="rgb(117, 126, 255)" opacity="0.065005384" stroke="rgb(0, 0, 0)" stroke-opacity="1.0" stroke-linecap="round" stroke-linejoin="round"/>
    <path d="M 53.76939392089844 331.15472412109375 C 38.25959014892578 321.1716003417969 51.90915298461914 333.9397888183594 64.76665496826172 336.773681640625 C 27.253673553466797 327.8518981933594 5.433142185211182 329.22320556640625 -4.785726070404053 323.37554931640625 C -13.347257614135742 293.923828125 -9.610490798950195 300.44378662109375 15.419036865234375 305.9957580566406 C 34.062957763671875 309.1210632324219 50.51283264160156 316.634033203125 53.76939392089844 331.15472412109375" stroke-width="0.0" fill="rgb(130, 232, 29)" opacity="0.7366882" stroke="rgb(0, 0, 0)" stroke-opacity="1.0" stroke-linecap="round" stroke-linejoin="round"/>
    <path d="M 450.3865966796875 427.4555969238281 C 427.41180419921875 455.6501770019531 413.24005126953125 459.0314636230469 420.03558349609375 448.9991760253906 C 405.08551025390625 435.73236083984375 401.60736083984375 421.8505554199219 404.8315734863281 425.3097229003906 C 376.06695556640625 416.20721435546875 305.43328857421875 413.09564208984375 348.94976806640625 451.09698486328125 C 432.4881286621094 430.80224609375 455.8755798339844 411.5391845703125 450.3865966796875 427.4555969238281" stroke-width="0.0" fill="rgb(4, 225, 0)" opacity="0.7572611" stroke="rgb(0, 0, 0)" stroke-opacity="1.0" stroke-linecap="round" stroke-linejoin="round"/>
    <path d="M 130.62879943847656 286.34454345703125 C 154.7934112548828 271.6968078613281 140.36715698242188 282.75054931640625 145.20938110351562 276.53704833984375 C 123.47622680664062 295.9280090332031 99.17013549804688 304.0240783691406 106.32035064697266 266.4846496582031 C 144.87962341308594 285.08453369140625 157.9390411376953 280.61322021484375 147.85145568847656 245.38894653320312 C 139.10694885253906 252.70603942871094 145.3013916015625 249.41419982910156 130.62879943847656 286.34454345703125" stroke-width="0.0" fill="rgb(54, 176, 244)" opacity="0.041092463" stroke="rgb(0, 0, 0)" stroke-opacity="1.0" stroke-linecap="round" stroke-linejoin="round"/>
  </g>
</svg>
