<?xml version="1.0" ?>
<svg xmlns="http://www.w3.org/2000/svg" version="1.1" width="512" height="512">
  <defs/>
  <g>
    <path d="M 560.3464965820312 454.4694519042969 C 557.9567260742188 487.11376953125 507.58294677734375 534.9099731445312 431.41693115234375 561.8804321289062 C 290.3494567871094 561.7741088867188 288.8114929199219 548.369384765625 225.4080352783203 429.6142272949219 C 348.1556396484375 419.0989685058594 435.0751037597656 427.79058837890625 537.0926513671875 379.0933837890625 C 562.2642822265625 332.8126525878906 563.1925048828125 352.7061767578125 560.3464965820312 454.4694519042969" stroke-width="0.0" fill="rgb(174, 94, 0)" opacity="0.9773864" stroke="rgb(0, 0, 0)" stroke-opacity="1.0" stroke-linecap="round" stroke-linejoin="round"/>
    <path d="M 259.3446350097656 383.7023010253906 C 245.55516052246094 484.91748046875 357.96221923828125 413.0104675292969 227.4230194091797 561.453369140625 C -41.479393005371094 563.2000122070312 -20.873289108276367 492.0749206542969 -52.73772430419922 384.5645446777344 C -61.905494689941406 210.25955200195312 -43.1744499206543 177.65562438964844 105.03034973144531 109.86992645263672 C 251.330078125 193.46328735351562 175.20150756835938 248.6885986328125 259.3446350097656 383.7023010253906" stroke-width="0.0" fill="rgb(255, 224, 45)" opacity="0.6662062" stroke="rgb(0, 0, 0)" stroke-opacity="1.0" stroke-linecap="round" stroke-linejoin="round"/>
    <path d="M 147.40284729003906 303.6589660644531 C 138.7987518310547 265.2265930175781 151.27635192871094 284.1862487792969 164.9038848876953 328.0091857910156 C 14.716923713684082 326.1736755371094 -32.190250396728516 369.91412353515625 -39.70830535888672 199.0918426513672 C 0.9894961714744568 151.2264862060547 26.37418556213379 140.49722290039062 185.02890014648438 204.59339904785156 C 183.2441864013672 340.26947021484375 171.14833068847656 327.3040771484375 147.40284729003906 303.6589660644531" stroke-width="0.0" fill="rgb(255, 232, 116)" opacity="0.5849825" stroke="rgb(0, 0, 0)" stroke-opacity="1.0" stroke-linecap="round" stroke-linejoin="round"/>
    <path d="M 394.34356689453125 90.74142456054688 C 271.3066101074219 130.0204315185547 160.65113830566406 3.252009153366089 28.212799072265625 154.31883239746094 C -29.7807674407959 188.67507934570312 -59.37425994873047 151.0262451171875 -47.77977752685547 77.0580825805664 C -47.898033142089844 22.33167839050293 18.746797561645508 -21.2070369720459 95.026611328125 -51.85054397583008 C 340.9483337402344 -87.04093170166016 369.59368896484375 -93.91719818115234 394.34356689453125 90.74142456054688" stroke-width="0.0" fill="rgb(255, 223, 46)" opacity="0.6723059" stroke="rgb(0, 0, 0)" stroke-opacity="1.0" stroke-linecap="round" stroke-linejoin="round"/>
    <path d="M 250.2506103515625 149.0015411376953 C 241.8421630859375 247.45460510253906 220.4957275390625 230.10963439941406 165.6491241455078 251.69558715820312 C 166.14405822753906 232.63226318359375 120.40662384033203 190.1014404296875 0.10215923190116882 167.98480224609375 C 52.89004898071289 102.8964614868164 248.72901916503906 -38.27055358886719 387.0491638183594 143.8631591796875 C 216.92929077148438 302.5069580078125 162.26239013671875 131.58702087402344 250.2506103515625 149.0015411376953" stroke-width="0.0" fill="rgb(255, 236, 114)" opacity="0.9782673" stroke="rgb(0, 0, 0)" stroke-opacity="1.0" stroke-linecap="round" stroke-linejoin="round"/>
    <path d="M 443.8588562011719 213.7187042236328 C 460.3265380859375 505.3282775878906 403.7122497558594 479.8227844238281 232.84620666503906 402.823486328125 C 360.70465087890625 372.4992370605469 316.152099609375 311.52392578125 349.9181823730469 323.21527099609375 C 330.2198181152344 388.57757568359375 315.3228759765625 373.0998229980469 324.2177429199219 301.8995666503906 C 372.26385498046875 192.45484924316406 307.2581481933594 186.3064727783203 443.8588562011719 213.7187042236328" stroke-width="0.0" fill="rgb(171, 101, 0)" opacity="1.0" stroke="rgb(0, 0, 0)" stroke-opacity="1.0" stroke-linecap="round" stroke-linejoin="round"/>
    <path d="M 526.7577514648438 139.75172424316406 C 589.3593139648438 381.3790588378906 577.8789672851562 393.6874084472656 462.5668029785156 411.8363037109375 C 291.681884765625 383.5268859863281 358.11370849609375 329.0054931640625 325.8758239746094 224.83653259277344 C 359.9848937988281 58.4453125 307.01678466796875 163.6170196533203 376.2767333984375 33.8542594909668 C 521.7612915039062 -43.113677978515625 519.6868896484375 63.916080474853516 526.7577514648438 139.75172424316406" stroke-width="0.0" fill="rgb(181, 97, 0)" opacity="1.0" stroke="rgb(0, 0, 0)" stroke-opacity="1.0" stroke-linecap="round" stroke-linejoin="round"/>
    <path d="M 339.9369812011719 285.2913513183594 C 348.4104919433594 364.46038818359375 370.1963806152344 218.95217895507812 264.6521911621094 512.3351440429688 C 218.09510803222656 319.3301086425781 189.71835327148438 411.72003173828125 258.8907775878906 262.54400634765625 C 335.34423828125 238.20620727539062 266.5884704589844 185.72935485839844 308.74591064453125 208.8491668701172 C 285.08502197265625 296.1658935546875 365.3960876464844 227.25180053710938 339.9369812011719 285.2913513183594" stroke-width="0.0" fill="rgb(0, 12, 92)" opacity="1.0" stroke="rgb(0, 0, 0)" stroke-opacity="1.0" stroke-linecap="round" stroke-linejoin="round"/>
    <path d="M 300.98681640625 248.1002960205078 C 174.98220825195312 336.7041015625 232.6243133544922 195.48834228515625 195.03404235839844 516.4617919921875 C 199.46145629882812 200.35665893554688 202.47862243652344 279.5546875 208.70045471191406 240.5266571044922 C 178.61019897460938 168.5907745361328 247.2033233642578 -65.44325256347656 195.11050415039062 281.9429016113281 C 259.9701232910156 276.2348327636719 237.43634033203125 -28.922378540039062 300.98681640625 248.1002960205078" stroke-width="0.0" fill="rgb(3, 25, 92)" opacity="0.97570235" stroke="rgb(0, 0, 0)" stroke-opacity="1.0" stroke-linecap="round" stroke-linejoin="round"/>
    <path d="M 554.0404663085938 80.52344512939453 C 509.2545166015625 106.2093505859375 500.8093566894531 78.71898651123047 489.0915222167969 107.68415069580078 C 470.4486999511719 93.79061889648438 464.6605529785156 82.64350891113281 362.2745056152344 3.69267201423645 C 331.9393005371094 -7.012625694274902 372.8460388183594 -25.325626373291016 470.9117431640625 -52.346946716308594 C 531.1893920898438 -21.000717163085938 543.4218139648438 23.70051383972168 554.0404663085938 80.52344512939453" stroke-width="0.0" fill="rgb(255, 234, 135)" opacity="0.99621487" stroke="rgb(0, 0, 0)" stroke-opacity="1.0" stroke-linecap="round" stroke-linejoin="round"/>
    <path d="M 249.03555297851562 400.34259033203125 C 278.4411315917969 412.74322509765625 303.52392578125 496.4562072753906 236.85867309570312 477.12982177734375 C 245.9244384765625 400.86669921875 260.502197265625 404.3764343261719 252.57659912109375 412.5888671875 C 267.9682312011719 400.91021728515625 276.2164001464844 405.25555419921875 256.2409973144531 367.4927062988281 C 268.07965087890625 355.21881103515625 248.9462432861328 385.9882507324219 249.03555297851562 400.34259033203125" stroke-width="0.0" fill="rgb(246, 251, 21)" opacity="0.97917753" stroke="rgb(0, 0, 0)" stroke-opacity="1.0" stroke-linecap="round" stroke-linejoin="round"/>
    <path d="M 215.50067138671875 254.9351806640625 C 240.99667358398438 170.6885223388672 248.96034240722656 261.5046691894531 212.7534637451172 296.3830261230469 C 173.71510314941406 308.37939453125 124.92919921875 312.19970703125 163.63067626953125 279.87591552734375 C 185.60006713867188 279.6546936035156 208.9348602294922 301.78656005859375 195.76040649414062 226.71791076660156 C 194.16822814941406 74.65599060058594 209.45065307617188 178.29017639160156 215.50067138671875 254.9351806640625" stroke-width="0.0" fill="rgb(12, 22, 78)" opacity="0.999248" stroke="rgb(0, 0, 0)" stroke-opacity="1.0" stroke-linecap="round" stroke-linejoin="round"/>
    <path d="M 455.7386779785156 377.4361267089844 C 463.0892333984375 414.1079406738281 456.6356201171875 418.9169616699219 461.96722412109375 431.3168029785156 C 454.13507080078125 432.04522705078125 389.342041015625 443.0749816894531 382.83587646484375 417.1874694824219 C 391.6283264160156 361.02008056640625 417.9188232421875 362.7649230957031 446.8809509277344 363.72052001953125 C 457.5851135253906 392.8311462402344 462.09661865234375 386.2464904785156 455.7386779785156 377.4361267089844" stroke-width="0.0" fill="rgb(179, 99, 0)" opacity="0.9929082" stroke="rgb(0, 0, 0)" stroke-opacity="1.0" stroke-linecap="round" stroke-linejoin="round"/>
    <path d="M 319.9577331542969 371.5343322753906 C 289.5848693847656 370.11907958984375 277.45965576171875 388.05462646484375 255.8760223388672 396.2041015625 C 257.8671875 420.7364501953125 197.3369598388672 383.1432189941406 216.28953552246094 371.04364013671875 C 266.9518737792969 394.5847473144531 267.6829528808594 399.45184326171875 254.50674438476562 393.2279968261719 C 280.3758850097656 389.8836364746094 240.2279052734375 408.2519226074219 319.9577331542969 371.5343322753906" stroke-width="0.0" fill="rgb(164, 102, 15)" opacity="0.7893291" stroke="rgb(0, 0, 0)" stroke-opacity="1.0" stroke-linecap="round" stroke-linejoin="round"/>
    <path d="M 329.38714599609375 178.06695556640625 C 350.2414855957031 290.3819885253906 305.7972412109375 289.6288757324219 278.6663818359375 195.6479949951172 C 307.8863525390625 194.078369140625 240.57713317871094 198.09237670898438 236.55679321289062 208.75222778320312 C 304.8429870605469 212.72203063964844 322.6632385253906 202.0135040283203 307.0743713378906 177.6825408935547 C 330.5393981933594 158.57464599609375 323.8489990234375 140.4323272705078 329.38714599609375 178.06695556640625" stroke-width="0.0" fill="rgb(100, 150, 230)" opacity="0.79095125" stroke="rgb(0, 0, 0)" stroke-opacity="1.0" stroke-linecap="round" stroke-linejoin="round"/>
    <path d="M 216.6813201904297 58.76124572753906 C 207.5132293701172 75.93504333496094 205.5876007080078 124.30736541748047 237.0532989501953 111.8055648803711 C 211.0178680419922 144.718505859375 205.4239959716797 171.30433654785156 178.396728515625 123.92742156982422 C 149.90943908691406 103.33623504638672 195.3990478515625 59.72148895263672 206.98526000976562 21.63123321533203 C 196.23712158203125 20.855480194091797 218.45237731933594 75.79795837402344 216.6813201904297 58.76124572753906" stroke-width="0.0" fill="rgb(1, 12, 91)" opacity="0.9999254" stroke="rgb(0, 0, 0)" stroke-opacity="1.0" stroke-linecap="round" stroke-linejoin="round"/>
    <path d="M 262.8507385253906 217.63653564453125 C 263.54425048828125 224.68057250976562 266.90020751953125 234.36083984375 265.6018981933594 241.4214630126953 C 267.8428039550781 258.4380798339844 268.6154479980469 287.18426513671875 258.8708801269531 275.1896057128906 C 257.3287658691406 211.6263427734375 269.8268737792969 171.7926788330078 256.138671875 177.42654418945312 C 265.06585693359375 227.58062744140625 276.78082275390625 206.1306915283203 262.8507385253906 217.63653564453125" stroke-width="0.0" fill="rgb(0, 66, 247)" opacity="0.5474523" stroke="rgb(0, 0, 0)" stroke-opacity="1.0" stroke-linecap="round" stroke-linejoin="round"/>
    <path d="M 216.056884765625 100.70286560058594 C 206.3771209716797 157.33154296875 221.76292419433594 215.9350128173828 194.1506805419922 218.36509704589844 C 186.30624389648438 215.12033081054688 219.26583862304688 225.37399291992188 195.2106170654297 149.47052001953125 C 189.5303192138672 107.26475524902344 182.14212036132812 124.3560791015625 221.92469787597656 119.03995513916016 C 218.60800170898438 102.19763946533203 214.54812622070312 120.25533294677734 216.056884765625 100.70286560058594" stroke-width="0.0" fill="rgb(0, 16, 87)" opacity="0.79949826" stroke="rgb(0, 0, 0)" stroke-opacity="1.0" stroke-linecap="round" stroke-linejoin="round"/>
    <path d="M 315.09613037109375 345.0112609863281 C 309.8834533691406 390.2845764160156 314.25439453125 378.4333801269531 293.1518859863281 423.5886535644531 C 302.237548828125 342.8868713378906 265.2352600097656 395.6636657714844 311.28997802734375 367.9559631347656 C 304.0699462890625 313.962890625 284.8064270019531 313.0450439453125 292.797607421875 254.77561950683594 C 340.4482727050781 337.5948181152344 300.42547607421875 332.29742431640625 315.09613037109375 345.0112609863281" stroke-width="0.0" fill="rgb(224, 158, 0)" opacity="0.8554791" stroke="rgb(0, 0, 0)" stroke-opacity="1.0" stroke-linecap="round" stroke-linejoin="round"/>
    <path d="M 342.9666442871094 247.5720672607422 C 325.1134033203125 252.15406799316406 349.1159973144531 234.25975036621094 343.9059753417969 270.0621337890625 C 344.9713439941406 180.2770233154297 301.57208251953125 243.1224822998047 294.74017333984375 165.2767791748047 C 295.9980773925781 277.1794128417969 286.9174499511719 165.97731018066406 299.8204345703125 173.2291259765625 C 342.5903625488281 116.1397933959961 345.5114440917969 181.64404296875 342.9666442871094 247.5720672607422" stroke-width="0.0" fill="rgb(246, 226, 130)" opacity="0.96975726" stroke="rgb(0, 0, 0)" stroke-opacity="1.0" stroke-linecap="round" stroke-linejoin="round"/>
    <path d="M 310.3925476074219 419.66961669921875 C 301.7400207519531 420.1068420410156 285.3133239746094 430.6861877441406 313.0766296386719 417.8906555175781 C 324.22320556640625 452.0517883300781 310.7141418457031 464.3950500488281 326.1080322265625 409.0248107910156 C 319.0216064453125 385.70855712890625 295.16729736328125 362.4115295410156 341.854248046875 359.1460876464844 C 309.97344970703125 430.8445739746094 307.32635498046875 439.7265319824219 310.3925476074219 419.66961669921875" stroke-width="0.0" fill="rgb(135, 121, 0)" opacity="0.033723906" stroke="rgb(0, 0, 0)" stroke-opacity="1.0" stroke-linecap="round" stroke-linejoin="round"/>
    <path d="M 283.022216796875 462.8324890136719 C 296.7831726074219 464.8579406738281 293.9853515625 461.3200988769531 295.7093505859375 529.4655151367188 C 233.77076721191406 489.2418212890625 192.7504119873047 482.0202331542969 232.86614990234375 448.55401611328125 C 253.34202575683594 455.6872863769531 230.04466247558594 484.18878173828125 274.5680236816406 470.5488586425781 C 279.4429931640625 458.9019470214844 265.17120361328125 430.749267578125 283.022216796875 462.8324890136719" stroke-width="0.0" fill="rgb(140, 81, 0)" opacity="1.0" stroke="rgb(0, 0, 0)" stroke-opacity="1.0" stroke-linecap="round" stroke-linejoin="round"/>
    <path d="M 304.75927734375 288.381103515625 C 295.8284606933594 275.8305969238281 280.9649353027344 276.1839904785156 301.95306396484375 341.1020202636719 C 366.51336669921875 337.9997863769531 360.0567321777344 340.9022521972656 314.8232727050781 316.74566650390625 C 297.3194580078125 309.4042053222656 297.5283508300781 300.7322082519531 357.8327331542969 276.9737854003906 C 309.3998107910156 261.5967712402344 293.6949462890625 335.9227600097656 304.75927734375 288.381103515625" stroke-width="0.0" fill="rgb(199, 124, 8)" opacity="0.7649205" stroke="rgb(0, 0, 0)" stroke-opacity="1.0" stroke-linecap="round" stroke-linejoin="round"/>
    <path d="M 205.73387145996094 452.4211730957031 C 221.10386657714844 507.46539306640625 225.5955047607422 534.4623413085938 180.81494140625 523.5177001953125 C 184.6112823486328 504.382080078125 185.97059631347656 518.5872192382812 166.23956298828125 510.4425048828125 C 167.6963653564453 466.0422058105469 190.9580841064453 467.1340637207031 213.30743408203125 470.21368408203125 C 200.90512084960938 488.5668640136719 206.7589111328125 490.09033203125 205.73387145996094 452.4211730957031" stroke-width="0.0" fill="rgb(247, 230, 105)" opacity="1.0" stroke="rgb(0, 0, 0)" stroke-opacity="1.0" stroke-linecap="round" stroke-linejoin="round"/>
    <path d="M 247.80145263671875 415.1026306152344 C 251.33714294433594 387.79840087890625 259.7217712402344 390.82470703125 256.8599548339844 416.09857177734375 C 224.23651123046875 432.19635009765625 240.36387634277344 393.0372314453125 249.8438720703125 404.0574645996094 C 262.7679138183594 335.74346923828125 254.03321838378906 284.3331298828125 265.7950439453125 384.78045654296875 C 248.47125244140625 358.8803405761719 264.189208984375 377.332763671875 247.80145263671875 415.1026306152344" stroke-width="0.0" fill="rgb(168, 108, 0)" opacity="0.69230896" stroke="rgb(0, 0, 0)" stroke-opacity="1.0" stroke-linecap="round" stroke-linejoin="round"/>
    <path d="M 332.19061279296875 477.56524658203125 C 313.8518371582031 480.86285400390625 287.1308898925781 475.09869384765625 276.24261474609375 468.5931396484375 C 279.10272216796875 480.9333801269531 273.083984375 483.4346618652344 281.0512390136719 478.5082702636719 C 278.1133117675781 432.98870849609375 293.1619873046875 411.48297119140625 299.8219909667969 441.4032897949219 C 303.0093078613281 468.1114807128906 326.6354064941406 470.9321594238281 332.19061279296875 477.56524658203125" stroke-width="0.0" fill="rgb(0, 6, 80)" opacity="1.0" stroke="rgb(0, 0, 0)" stroke-opacity="1.0" stroke-linecap="round" stroke-linejoin="round"/>
    <path d="M 547.9432373046875 96.2806625366211 C 517.5029907226562 167.9261016845703 529.5159301757812 174.96290588378906 515.1712646484375 145.01220703125 C 477.0218505859375 99.41679382324219 463.52777099609375 84.56071472167969 453.4306335449219 74.96404266357422 C 473.7508850097656 79.55350494384766 487.3229064941406 87.6664047241211 501.03692626953125 89.67435455322266 C 536.2468872070312 91.30696868896484 530.8270874023438 73.73289489746094 547.9432373046875 96.2806625366211" stroke-width="0.0" fill="rgb(254, 240, 128)" opacity="0.9994383" stroke="rgb(0, 0, 0)" stroke-opacity="1.0" stroke-linecap="round" stroke-linejoin="round"/>
    <path d="M 316.8664855957031 200.190673828125 C 301.1019287109375 184.84039306640625 285.2521667480469 183.2028045654297 285.7193298339844 200.4864959716797 C 250.90484619140625 187.93533325195312 261.3999328613281 203.1373291015625 259.4502868652344 184.2311248779297 C 263.9396057128906 116.52510070800781 259.02642822265625 140.49899291992188 288.9898681640625 157.56275939941406 C 298.2928161621094 174.7735595703125 303.7634582519531 172.29869079589844 316.8664855957031 200.190673828125" stroke-width="0.0" fill="rgb(246, 231, 156)" opacity="0.10366005" stroke="rgb(0, 0, 0)" stroke-opacity="1.0" stroke-linecap="round" stroke-linejoin="round"/>
    <path d="M 242.90443420410156 390.7096252441406 C 253.1502685546875 390.167236328125 253.30197143554688 424.92572021484375 221.91403198242188 467.6563415527344 C 232.45533752441406 437.0564880371094 226.3514862060547 416.2586975097656 219.86032104492188 403.8152770996094 C 217.56434631347656 392.1590270996094 228.05267333984375 374.06939697265625 239.8538360595703 390.53271484375 C 248.49468994140625 390.63763427734375 245.6573944091797 389.658447265625 242.90443420410156 390.7096252441406" stroke-width="0.0" fill="rgb(0, 2, 75)" opacity="0.9904655" stroke="rgb(0, 0, 0)" stroke-opacity="1.0" stroke-linecap="round" stroke-linejoin="round"/>
    <path d="M 241.6555938720703 457.29144287109375 C 246.0775604248047 486.8005676269531 244.14234924316406 471.1129150390625 249.07992553710938 474.8835754394531 C 175.62220764160156 471.75341796875 163.76690673828125 483.1683654785156 217.28269958496094 461.98236083984375 C 234.703125 442.32257080078125 220.55125427246094 411.6961364746094 229.81089782714844 418.6737060546875 C 258.6700134277344 411.2084655761719 243.13595581054688 415.7997131347656 241.6555938720703 457.29144287109375" stroke-width="0.0" fill="rgb(0, 0, 71)" opacity="0.98968637" stroke="rgb(0, 0, 0)" stroke-opacity="1.0" stroke-linecap="round" stroke-linejoin="round"/>
    <path d="M 562.4398193359375 465.2966003417969 C 519.0442504882812 515.8566284179688 510.5816650390625 522.5712280273438 484.6906433105469 532.0502319335938 C 465.0831604003906 531.114013671875 461.5205383300781 525.078125 487.9158020019531 549.7604370117188 C 489.6173095703125 539.8643188476562 491.94921875 482.294921875 491.8131408691406 464.99188232421875 C 482.12158203125 463.4195861816406 531.3124389648438 463.2147521972656 562.4398193359375 465.2966003417969" stroke-width="0.0" fill="rgb(150, 80, 12)" opacity="0.2567683" stroke="rgb(0, 0, 0)" stroke-opacity="1.0" stroke-linecap="round" stroke-linejoin="round"/>
    <path d="M 291.8713684082031 243.4079132080078 C 296.14593505859375 300.76373291015625 282.78631591796875 319.2679138183594 235.22509765625 309.968994140625 C 225.9786834716797 287.1492919921875 202.9405975341797 309.2686462402344 224.77755737304688 278.4325866699219 C 226.83529663085938 290.6379089355469 205.8602294921875 311.602294921875 216.50318908691406 225.17138671875 C 255.68443298339844 266.8014831542969 267.34722900390625 267.9057312011719 291.8713684082031 243.4079132080078" stroke-width="0.0" fill="rgb(195, 128, 19)" opacity="0.90227705" stroke="rgb(0, 0, 0)" stroke-opacity="1.0" stroke-linecap="round" stroke-linejoin="round"/>
    <path d="M 292.480224609375 291.1214294433594 C 299.4840087890625 334.9544372558594 290.4683532714844 327.0770568847656 259.1201171875 346.3817443847656 C 221.56629943847656 325.4512634277344 233.90029907226562 323.66217041015625 235.06639099121094 285.8998107910156 C 267.93695068359375 289.45196533203125 257.855224609375 293.63800048828125 263.9227294921875 262.4468078613281 C 299.7823486328125 251.80941772460938 303.3942565917969 270.47137451171875 292.480224609375 291.1214294433594" stroke-width="0.0" fill="rgb(120, 87, 53)" opacity="0.8178116" stroke="rgb(0, 0, 0)" stroke-opacity="1.0" stroke-linecap="round" stroke-linejoin="round"/>
    <path d="M 148.2936248779297 49.41728591918945 C 158.34280395507812 94.924560546875 164.14051818847656 108.50117492675781 176.7086944580078 152.63363647460938 C 70.8900146484375 136.1886749267578 68.58563232421875 107.37976837158203 94.62467956542969 58.56478500366211 C 96.75128936767578 74.29222869873047 151.37953186035156 76.59367370605469 140.41822814941406 61.982444763183594 C 140.97003173828125 60.246124267578125 159.99374389648438 75.40165710449219 148.2936248779297 49.41728591918945" stroke-width="0.0" fill="rgb(255, 231, 137)" opacity="0.20803308" stroke="rgb(0, 0, 0)" stroke-opacity="1.0" stroke-linecap="round" stroke-linejoin="round"/>
    <path d="M 193.5548858642578 64.79889678955078 C 199.22630310058594 102.17383575439453 194.7329559326172 122.41152954101562 166.8451690673828 110.64534759521484 C 159.787841796875 103.93270111083984 171.88803100585938 100.34513854980469 181.38331604003906 50.002296447753906 C 179.26121520996094 58.34675979614258 181.2126922607422 38.82251739501953 183.11529541015625 45.014381408691406 C 193.38096618652344 75.90754699707031 198.08177185058594 57.74449157714844 193.5548858642578 64.79889678955078" stroke-width="0.0" fill="rgb(255, 239, 100)" opacity="0.94320095" stroke="rgb(0, 0, 0)" stroke-opacity="1.0" stroke-linecap="round" stroke-linejoin="round"/>
    <path d="M 239.7811737060547 205.85398864746094 C 226.25111389160156 248.5463104248047 202.79112243652344 240.57652282714844 207.34776306152344 255.08963012695312 C 200.80819702148438 267.7693176269531 178.61648559570312 259.43902587890625 170.320556640625 244.8306121826172 C 184.2996063232422 243.3004150390625 187.84072875976562 229.04705810546875 173.77069091796875 236.19061279296875 C 185.3909149169922 226.15884399414062 241.3849334716797 205.5289764404297 239.7811737060547 205.85398864746094" stroke-width="0.0" fill="rgb(21, 17, 77)" opacity="0.84542817" stroke="rgb(0, 0, 0)" stroke-opacity="1.0" stroke-linecap="round" stroke-linejoin="round"/>
    <path d="M 181.90614318847656 169.1110382080078 C 190.40882873535156 229.72573852539062 180.90769958496094 223.1008758544922 160.513427734375 217.70413208007812 C 79.56584167480469 220.36964416503906 45.6072883605957 206.7225341796875 24.736448287963867 146.9670867919922 C 49.87587356567383 106.20248413085938 77.13468170166016 124.30797576904297 149.6854705810547 120.65193176269531 C 155.73487854003906 95.95989227294922 168.04263305664062 131.89024353027344 181.90614318847656 169.1110382080078" stroke-width="0.0" fill="rgb(255, 230, 136)" opacity="0.2957999" stroke="rgb(0, 0, 0)" stroke-opacity="1.0" stroke-linecap="round" stroke-linejoin="round"/>
    <path d="M 143.05322265625 155.86126708984375 C 155.2092742919922 228.306640625 123.3996810913086 208.1322784423828 1.5380911827087402 181.93641662597656 C 39.09000015258789 152.3423614501953 11.54946231842041 124.86671447753906 43.239532470703125 126.5799789428711 C 65.42842864990234 86.62420654296875 52.847251892089844 91.259521484375 67.99060821533203 68.88915252685547 C 102.10868072509766 80.79548645019531 159.1059112548828 62.51844787597656 143.05322265625 155.86126708984375" stroke-width="0.0" fill="rgb(255, 237, 115)" opacity="0.5421924" stroke="rgb(0, 0, 0)" stroke-opacity="1.0" stroke-linecap="round" stroke-linejoin="round"/>
    <path d="M 359.7450256347656 401.1751403808594 C 386.6146240234375 417.5244445800781 403.0343933105469 428.39697265625 377.10565185546875 400.9057312011719 C 344.2883605957031 396.720703125 347.0328674316406 375.029541015625 316.31207275390625 357.5091552734375 C 303.73345947265625 363.784423828125 315.2607421875 370.2594299316406 338.03863525390625 376.3253479003906 C 328.9351806640625 370.9303894042969 339.7492980957031 389.41217041015625 359.7450256347656 401.1751403808594" stroke-width="0.0" fill="rgb(148, 74, 29)" opacity="0.00023526873" stroke="rgb(0, 0, 0)" stroke-opacity="1.0" stroke-linecap="round" stroke-linejoin="round"/>
    <path d="M 71.96768188476562 480.3712463378906 C 67.00344848632812 476.55352783203125 77.790283203125 502.6285400390625 74.42584228515625 441.9712829589844 C 86.6113510131836 426.21173095703125 77.45406341552734 453.9403076171875 43.2289924621582 456.3858337402344 C 60.268192291259766 428.48974609375 76.43316650390625 439.5028381347656 88.02522277832031 448.7900085449219 C 90.77851104736328 415.7673645019531 72.69039154052734 446.6030578613281 71.96768188476562 480.3712463378906" stroke-width="0.0" fill="rgb(218, 209, 98)" opacity="0.007495495" stroke="rgb(0, 0, 0)" stroke-opacity="1.0" stroke-linecap="round" stroke-linejoin="round"/>
    <path d="M 494.569091796875 492.3017883300781 C 521.307373046875 491.9168395996094 508.2169494628906 502.28680419921875 500.5799865722656 524.358642578125 C 457.25152587890625 531.0973510742188 459.3671875 518.6386108398438 411.5221862792969 545.2206420898438 C 381.6458435058594 513.5851440429688 405.0589294433594 470.2663269042969 443.3605041503906 477.3139953613281 C 462.4113464355469 484.4575500488281 470.0966796875 479.67388916015625 494.569091796875 492.3017883300781" stroke-width="0.0" fill="rgb(196, 67, 58)" opacity="0.114386246" stroke="rgb(0, 0, 0)" stroke-opacity="1.0" stroke-linecap="round" stroke-linejoin="round"/>
    <path d="M 148.740478515625 40.42392349243164 C 135.91720581054688 22.117887496948242 132.60792541503906 39.46916198730469 139.90882873535156 31.59667205810547 C 130.22848510742188 34.36003875732422 104.51436614990234 31.074840545654297 125.72319793701172 35.81865692138672 C 96.78376770019531 29.44115447998047 98.73977661132812 -11.503050804138184 136.79605102539062 -27.2322998046875 C 171.0005645751953 -7.246744632720947 157.23483276367188 -6.456132411956787 148.740478515625 40.42392349243164" stroke-width="0.0" fill="rgb(255, 220, 139)" opacity="0.08202915" stroke="rgb(0, 0, 0)" stroke-opacity="1.0" stroke-linecap="round" stroke-linejoin="round"/>
    <path d="M 217.47982788085938 368.10101318359375 C 193.2139129638672 399.576904296875 195.88229370117188 447.2091369628906 219.60031127929688 397.3240051269531 C 195.63172912597656 378.2637634277344 201.15464782714844 366.6070251464844 225.54306030273438 343.77337646484375 C 190.81300354003906 298.4119873046875 180.3118896484375 309.9776306152344 225.67355346679688 293.95367431640625 C 232.34121704101562 287.9085388183594 238.50827026367188 316.8776550292969 217.47982788085938 368.10101318359375" stroke-width="0.0" fill="rgb(223, 242, 28)" opacity="0.00162193" stroke="rgb(0, 0, 0)" stroke-opacity="1.0" stroke-linecap="round" stroke-linejoin="round"/>
    <path d="M 60.74091720581055 327.6816711425781 C 63.62117385864258 339.85888671875 59.72234344482422 341.16644287109375 12.99635124206543 332.2775573730469 C 31.356176376342773 340.92327880859375 18.416366577148438 350.1748962402344 6.322808742523193 317.2336120605469 C 0.3576650619506836 295.3055725097656 -12.6062593460083 290.1164855957031 26.092830657958984 266.6747741699219 C 42.07276153564453 300.2932434082031 39.474342346191406 312.1130065917969 60.74091720581055 327.6816711425781" stroke-width="0.0" fill="rgb(254, 243, 112)" opacity="0.07069304" stroke="rgb(0, 0, 0)" stroke-opacity="1.0" stroke-linecap="round" stroke-linejoin="round"/>
    <path d="M 435.3359069824219 465.8893737792969 C 456.5508728027344 456.7416076660156 438.8544006347656 439.0444030761719 424.4081115722656 445.2357177734375 C 425.0177917480469 434.2695617675781 411.82220458984375 422.9001159667969 396.5039367675781 416.960205078125 C 376.004150390625 407.7279052734375 392.1536865234375 403.5587463378906 394.4518127441406 412.500732421875 C 391.5857238769531 431.3423767089844 411.2929992675781 435.4544372558594 435.3359069824219 465.8893737792969" stroke-width="0.0" fill="rgb(192, 77, 26)" opacity="0.1527828" stroke="rgb(0, 0, 0)" stroke-opacity="1.0" stroke-linecap="round" stroke-linejoin="round"/>
    <path d="M 132.18373107910156 378.4489440917969 C 144.7519989013672 417.90423583984375 137.86790466308594 410.29559326171875 58.18812942504883 408.7367858886719 C 74.12748718261719 345.12408447265625 71.26764678955078 337.3564453125 113.93455505371094 344.8663024902344 C 131.51995849609375 357.7454528808594 107.51751708984375 336.8751525878906 118.71871948242188 354.749267578125 C 67.68267822265625 350.1977844238281 88.4075927734375 373.8736572265625 132.18373107910156 378.4489440917969" stroke-width="0.0" fill="rgb(254, 217, 159)" opacity="0.07289302" stroke="rgb(0, 0, 0)" stroke-opacity="1.0" stroke-linecap="round" stroke-linejoin="round"/>
    <path d="M 45.418949127197266 209.1354522705078 C 64.2300796508789 211.54420471191406 52.47002029418945 216.83457946777344 43.24479293823242 165.27503967285156 C -6.861411094665527 187.1558837890625 -12.120857238769531 202.40077209472656 2.366614818572998 146.33103942871094 C 29.381134033203125 189.8632354736328 8.694283485412598 186.6503143310547 11.219740867614746 140.00282287597656 C 58.9406852722168 156.91990661621094 49.82307434082031 180.76559448242188 45.418949127197266 209.1354522705078" stroke-width="0.0" fill="rgb(255, 231, 137)" opacity="0.37747875" stroke="rgb(0, 0, 0)" stroke-opacity="1.0" stroke-linecap="round" stroke-linejoin="round"/>
    <path d="M 138.148681640625 359.9060363769531 C 125.59420013427734 347.05255126953125 105.52882385253906 359.1464538574219 98.80686950683594 312.8083801269531 C 135.83477783203125 323.6265869140625 130.303955078125 309.3853759765625 116.15438079833984 314.08978271484375 C 95.31793975830078 333.9429626464844 102.19232940673828 323.3570861816406 122.26593780517578 337.0111999511719 C 121.85568237304688 329.4626770019531 123.30467224121094 339.81451416015625 138.148681640625 359.9060363769531" stroke-width="0.0" fill="rgb(249, 239, 76)" opacity="0.0" stroke="rgb(0, 0, 0)" stroke-opacity="1.0" stroke-linecap="round" stroke-linejoin="round"/>
    <path d="M 48.88795471191406 154.3916778564453 C 44.52079772949219 101.5171127319336 29.5570125579834 88.04582977294922 -2.939793586730957 78.98764038085938 C -1.401330828666687 105.48762512207031 -6.324232578277588 93.12200164794922 7.159916400909424 70.3766098022461 C -5.873726844787598 40.2299919128418 -0.855618953704834 56.042198181152344 21.55085563659668 117.80879974365234 C 48.484458923339844 64.9794692993164 19.219892501831055 80.09477233886719 48.88795471191406 154.3916778564453" stroke-width="0.0" fill="rgb(229, 243, 91)" opacity="0.052133933" stroke="rgb(0, 0, 0)" stroke-opacity="1.0" stroke-linecap="round" stroke-linejoin="round"/>
    <path d="M 172.56021118164062 147.8468475341797 C 202.6357421875 178.42530822753906 190.7633056640625 177.77371215820312 129.15872192382812 190.07229614257812 C 71.54740905761719 197.9764862060547 71.81147766113281 203.6842041015625 79.48731994628906 152.30123901367188 C 180.45257568359375 131.06405639648438 153.98809814453125 141.19151306152344 154.17210388183594 171.11953735351562 C 175.79257202148438 143.02333068847656 187.39195251464844 144.94517517089844 172.56021118164062 147.8468475341797" stroke-width="0.0" fill="rgb(255, 234, 126)" opacity="0.019033525" stroke="rgb(0, 0, 0)" stroke-opacity="1.0" stroke-linecap="round" stroke-linejoin="round"/>
    <path d="M 214.8442840576172 376.57135009765625 C 230.56661987304688 387.7480773925781 204.08035278320312 389.55767822265625 176.37130737304688 387.6993408203125 C 190.4092254638672 350.8554382324219 199.7233428955078 348.1634826660156 178.66433715820312 378.9639587402344 C 203.55812072753906 406.3487243652344 204.67457580566406 399.2398681640625 189.47149658203125 362.764404296875 C 216.2661895751953 355.78717041015625 194.0090789794922 371.9983215332031 214.8442840576172 376.57135009765625" stroke-width="0.0" fill="rgb(210, 232, 238)" opacity="0.058510896" stroke="rgb(0, 0, 0)" stroke-opacity="1.0" stroke-linecap="round" stroke-linejoin="round"/>
    <path d="M 66.7811508178711 29.02747344970703 C 94.90369415283203 29.558992385864258 89.42867279052734 29.55260467529297 129.11563110351562 94.3843994140625 C 79.1531982421875 89.01671600341797 86.09130859375 42.85287857055664 31.917686462402344 52.39522933959961 C 53.01215744018555 44.587486267089844 47.2119255065918 22.278104782104492 27.951303482055664 38.98509216308594 C 82.04244232177734 39.95708084106445 72.07946014404297 59.027687072753906 66.7811508178711 29.02747344970703" stroke-width="0.0" fill="rgb(255, 233, 135)" opacity="0.03732557" stroke="rgb(0, 0, 0)" stroke-opacity="1.0" stroke-linecap="round" stroke-linejoin="round"/>
    <path d="M 79.80089569091797 181.11514282226562 C 79.04607391357422 224.34640502929688 71.30928039550781 206.54464721679688 58.70851135253906 213.7705841064453 C 0.812828779220581 221.3454132080078 -1.2912741899490356 216.70046997070312 -13.018936157226562 184.1016082763672 C -4.896194934844971 139.8565673828125 -10.696781158447266 125.54241180419922 28.385114669799805 137.3345184326172 C 49.43785858154297 162.3489990234375 57.18927001953125 166.55677795410156 79.80089569091797 181.11514282226562" stroke-width="0.0" fill="rgb(255, 233, 121)" opacity="0.3646055" stroke="rgb(0, 0, 0)" stroke-opacity="1.0" stroke-linecap="round" stroke-linejoin="round"/>
    <path d="M 309.11065673828125 340.55059814453125 C 306.1784362792969 318.333740234375 317.30035400390625 326.7337951660156 313.1584167480469 356.00640869140625 C 310.7560119628906 360.36663818359375 306.6280517578125 350.3049011230469 301.9071044921875 339.07275390625 C 300.46307373046875 336.73785400390625 302.2225036621094 320.8983154296875 309.4710998535156 326.5845947265625 C 304.5107421875 326.3176574707031 304.17681884765625 318.5379333496094 309.11065673828125 340.55059814453125" stroke-width="0.0" fill="rgb(176, 140, 0)" opacity="0.9077255" stroke="rgb(0, 0, 0)" stroke-opacity="1.0" stroke-linecap="round" stroke-linejoin="round"/>
    <path d="M 381.5304870605469 472.14898681640625 C 405.7290954589844 432.7658996582031 390.88018798828125 429.544921875 344.24053955078125 464.62200927734375 C 316.2958679199219 464.73309326171875 330.7696228027344 458.7191162109375 349.40985107421875 431.0750732421875 C 327.2185363769531 427.16192626953125 340.1931457519531 416.5516052246094 335.73394775390625 436.57470703125 C 355.3187255859375 430.6771240234375 364.3979187011719 429.6905822753906 381.5304870605469 472.14898681640625" stroke-width="0.0" fill="rgb(69, 156, 0)" opacity="0.047650635" stroke="rgb(0, 0, 0)" stroke-opacity="1.0" stroke-linecap="round" stroke-linejoin="round"/>
    <path d="M 357.0492248535156 405.9590759277344 C 351.3978576660156 443.8101501464844 362.6596984863281 463.3030090332031 356.1549072265625 453.5493469238281 C 307.729736328125 446.60858154296875 323.92462158203125 451.2795104980469 316.88916015625 364.0194091796875 C 276.00274658203125 394.9900817871094 285.2869873046875 413.55377197265625 336.78289794921875 424.1261901855469 C 364.80328369140625 401.7370300292969 372.51531982421875 425.5462646484375 357.0492248535156 405.9590759277344" stroke-width="0.0" fill="rgb(118, 135, 0)" opacity="0.12853298" stroke="rgb(0, 0, 0)" stroke-opacity="1.0" stroke-linecap="round" stroke-linejoin="round"/>
    <path d="M 518.845947265625 228.92759704589844 C 512.3649291992188 228.874755859375 499.3449401855469 245.72006225585938 484.78350830078125 273.8207702636719 C 430.30450439453125 283.4317626953125 457.8494873046875 287.86553955078125 482.1268615722656 204.0609588623047 C 419.4811096191406 207.41903686523438 434.5951843261719 187.85220336914062 519.2537231445312 192.7362060546875 C 519.0355224609375 199.80137634277344 510.55194091796875 207.95091247558594 518.845947265625 228.92759704589844" stroke-width="0.0" fill="rgb(202, 65, 38)" opacity="0.11099964" stroke="rgb(0, 0, 0)" stroke-opacity="1.0" stroke-linecap="round" stroke-linejoin="round"/>
    <path d="M 416.4002685546875 171.5988311767578 C 450.6363525390625 190.65896606445312 449.647705078125 158.76446533203125 354.9130859375 180.35540771484375 C 422.87994384765625 229.34542846679688 411.14453125 227.4514617919922 403.9093017578125 154.88014221191406 C 438.3864440917969 169.11422729492188 479.4718933105469 202.695068359375 446.5311279296875 163.7431182861328 C 361.4738464355469 123.0241928100586 347.7439270019531 137.17306518554688 416.4002685546875 171.5988311767578" stroke-width="0.0" fill="rgb(124, 133, 0)" opacity="0.06936244" stroke="rgb(0, 0, 0)" stroke-opacity="1.0" stroke-linecap="round" stroke-linejoin="round"/>
    <path d="M 504.0676574707031 311.2138366699219 C 423.82611083984375 320.3960266113281 458.8242492675781 321.9992980957031 385.60107421875 295.8387145996094 C 460.3550109863281 350.71185302734375 458.3835754394531 330.48974609375 380.1995544433594 251.0464630126953 C 365.6729431152344 295.1445007324219 415.0503234863281 294.6055603027344 431.0101623535156 301.8470153808594 C 394.7115783691406 300.6369934082031 462.587646484375 307.5546569824219 504.0676574707031 311.2138366699219" stroke-width="0.0" fill="rgb(135, 124, 0)" opacity="0.1270389" stroke="rgb(0, 0, 0)" stroke-opacity="1.0" stroke-linecap="round" stroke-linejoin="round"/>
    <path d="M 398.734130859375 60.12213134765625 C 420.38299560546875 91.58880615234375 432.75927734375 95.44157409667969 428.8717041015625 90.03364562988281 C 409.5774230957031 107.97544860839844 390.6546630859375 78.90834045410156 391.0410461425781 62.02614212036133 C 385.60992431640625 34.12518310546875 422.0346984863281 31.261066436767578 429.46636962890625 52.36701202392578 C 429.7215881347656 53.704200744628906 437.14410400390625 62.37607192993164 398.734130859375 60.12213134765625" stroke-width="0.0" fill="rgb(160, 156, 36)" opacity="0.01758876" stroke="rgb(0, 0, 0)" stroke-opacity="1.0" stroke-linecap="round" stroke-linejoin="round"/>
    <path d="M 403.8564147949219 404.482421875 C 385.2492370605469 437.78173828125 405.6966552734375 455.5389709472656 403.859375 483.7622375488281 C 360.91741943359375 483.19366455078125 370.7953796386719 452.5721740722656 361.901611328125 439.2017517089844 C 345.10992431640625 411.27850341796875 340.9892883300781 394.4868469238281 429.0749206542969 395.25 C 399.5079345703125 439.97662353515625 413.02252197265625 434.72802734375 403.8564147949219 404.482421875" stroke-width="0.0" fill="rgb(183, 85, 1)" opacity="0.13389388" stroke="rgb(0, 0, 0)" stroke-opacity="1.0" stroke-linecap="round" stroke-linejoin="round"/>
    <path d="M 1.972660779953003 43.29671096801758 C 37.65861892700195 52.36550521850586 41.90420913696289 92.10587310791016 54.468318939208984 100.60123443603516 C 0.6487182378768921 104.25736999511719 -2.980649948120117 100.75167846679688 12.272003173828125 77.60095977783203 C 45.713775634765625 100.94758605957031 36.49003601074219 97.86157989501953 27.524532318115234 72.57103729248047 C 48.51171112060547 58.87312698364258 7.499967098236084 78.33030700683594 1.972660779953003 43.29671096801758" stroke-width="0.0" fill="rgb(255, 221, 123)" opacity="0.023634154" stroke="rgb(0, 0, 0)" stroke-opacity="1.0" stroke-linecap="round" stroke-linejoin="round"/>
    <path d="M 188.6898651123047 426.4520263671875 C 194.05487060546875 451.81695556640625 196.55796813964844 439.4201354980469 190.8674774169922 432.65057373046875 C 193.990234375 422.9930725097656 183.73382568359375 422.28857421875 175.44158935546875 394.5119934082031 C 166.81240844726562 403.3070373535156 197.25900268554688 406.22772216796875 222.25576782226562 388.35845947265625 C 218.3529052734375 395.4751892089844 224.8998565673828 407.8131408691406 188.6898651123047 426.4520263671875" stroke-width="0.0" fill="rgb(255, 232, 133)" opacity="0.07057436" stroke="rgb(0, 0, 0)" stroke-opacity="1.0" stroke-linecap="round" stroke-linejoin="round"/>
    <path d="M 312.20025634765625 165.10386657714844 C 323.1620788574219 155.29864501953125 316.216552734375 157.76536560058594 332.55767822265625 172.5883331298828 C 314.45086669921875 178.05038452148438 315.8480529785156 169.41647338867188 321.4613037109375 167.1539764404297 C 313.84393310546875 173.1954803466797 309.3349609375 161.86622619628906 331.0863952636719 172.6005859375 C 326.75439453125 187.99217224121094 312.48779296875 179.9582061767578 312.20025634765625 165.10386657714844" stroke-width="0.0" fill="rgb(249, 161, 215)" opacity="0.09534242" stroke="rgb(0, 0, 0)" stroke-opacity="1.0" stroke-linecap="round" stroke-linejoin="round"/>
  </g>
</svg>
