<?xml version="1.0" ?>
<svg xmlns="http://www.w3.org/2000/svg" version="1.1" width="512" height="512">
  <defs/>
  <g>
    <path d="M 561.9197998046875 396.61669921875 C 547.165283203125 516.641845703125 548.8319091796875 525.4011840820312 377.9706115722656 557.5021362304688 C 294.07122802734375 564.5691528320312 228.2511749267578 527.5757446289062 299.22406005859375 445.5433044433594 C 246.2864227294922 314.9397888183594 237.43289184570312 283.5384216308594 429.18115234375 242.2925262451172 C 577.6557006835938 306.9378967285156 576.4365844726562 310.7805480957031 561.9197998046875 396.61669921875" stroke-width="0.0" fill="rgb(17, 22, 203)" opacity="0.97622055" stroke="rgb(0, 0, 0)" stroke-opacity="1.0" stroke-linecap="round" stroke-linejoin="round"/>
    <path d="M 320.14910888671875 371.8930969238281 C 399.18359375 500.8504333496094 382.3003234863281 538.2913818359375 287.7874755859375 550.2420654296875 C -51.20000076293945 519.133544921875 -51.20000076293945 511.7567443847656 -58.064945220947266 456.9319152832031 C -43.88299560546875 174.33935546875 -32.80415725708008 184.8211212158203 37.72462463378906 166.16363525390625 C 102.11766815185547 311.9072265625 196.83065795898438 258.018798828125 320.14910888671875 371.8930969238281" stroke-width="0.0" fill="rgb(15, 53, 191)" opacity="1.0" stroke="rgb(0, 0, 0)" stroke-opacity="1.0" stroke-linecap="round" stroke-linejoin="round"/>
    <path d="M 344.5474853515625 222.98318481445312 C 359.8538513183594 422.58953857421875 335.9226379394531 422.510986328125 253.3270263671875 399.98687744140625 C 85.66679382324219 516.637451171875 79.2676010131836 433.69970703125 -6.657591342926025 162.9397430419922 C 7.882483005523682 154.66981506347656 30.297958374023438 172.03500366210938 121.2076416015625 210.23951721191406 C 162.61383056640625 251.9672393798828 187.95504760742188 235.4805145263672 344.5474853515625 222.98318481445312" stroke-width="0.0" fill="rgb(21, 49, 201)" opacity="0.8918522" stroke="rgb(0, 0, 0)" stroke-opacity="1.0" stroke-linecap="round" stroke-linejoin="round"/>
    <path d="M 272.0103759765625 34.2415885925293 C 253.580810546875 312.98577880859375 97.14131164550781 197.7386474609375 22.02648162841797 208.46810913085938 C -29.339527130126953 179.54473876953125 -52.91632843017578 215.510986328125 -49.588714599609375 141.48614501953125 C -16.39366340637207 -18.030452728271484 -10.150599479675293 -23.750812530517578 53.26252365112305 -34.25877380371094 C 226.0878143310547 -51.696266174316406 251.69357299804688 -64.21243286132812 272.0103759765625 34.2415885925293" stroke-width="0.0" fill="rgb(16, 53, 195)" opacity="1.0" stroke="rgb(0, 0, 0)" stroke-opacity="1.0" stroke-linecap="round" stroke-linejoin="round"/>
    <path d="M 491.9193420410156 87.66011047363281 C 424.2253112792969 281.09039306640625 401.9232177734375 246.56304931640625 355.814453125 305.6125793457031 C 281.6369323730469 285.34759521484375 264.7520751953125 316.458251953125 250.13345336914062 158.34547424316406 C 234.40745544433594 21.970430374145508 203.99078369140625 -37.528621673583984 340.6524353027344 -80.8694839477539 C 532.980712890625 -34.448062896728516 525.7904663085938 -11.041260719299316 491.9193420410156 87.66011047363281" stroke-width="0.0" fill="rgb(254, 117, 0)" opacity="1.0" stroke="rgb(0, 0, 0)" stroke-opacity="1.0" stroke-linecap="round" stroke-linejoin="round"/>
    <path d="M 264.25909423828125 61.772300720214844 C 232.62533569335938 228.23097229003906 407.8254699707031 220.9440460205078 189.21267700195312 307.77923583984375 C 121.16148376464844 184.47885131835938 131.8379669189453 143.61207580566406 137.62229919433594 147.047607421875 C 114.23068237304688 123.94977569580078 82.4273681640625 87.82106018066406 275.8440246582031 -67.50269317626953 C 484.55950927734375 57.959468841552734 393.2435607910156 14.101590156555176 264.25909423828125 61.772300720214844" stroke-width="0.0" fill="rgb(25, 46, 195)" opacity="0.9732526" stroke="rgb(0, 0, 0)" stroke-opacity="1.0" stroke-linecap="round" stroke-linejoin="round"/>
    <path d="M 560.197509765625 160.56710815429688 C 580.8467407226562 306.44708251953125 584.6414794921875 313.745849609375 500.680419921875 287.782958984375 C 392.19329833984375 265.63201904296875 363.8742370605469 270.5301208496094 436.5654602050781 204.88702392578125 C 478.3166198730469 131.48178100585938 441.58416748046875 52.44047164916992 522.623779296875 -36.24834060668945 C 563.2000122070312 29.02372932434082 563.2000122070312 58.49845886230469 560.197509765625 160.56710815429688" stroke-width="0.0" fill="rgb(32, 27, 201)" opacity="0.9999439" stroke="rgb(0, 0, 0)" stroke-opacity="1.0" stroke-linecap="round" stroke-linejoin="round"/>
    <path d="M 337.8110656738281 234.39625549316406 C 347.2162170410156 279.2850036621094 311.49285888671875 295.27593994140625 285.2926940917969 299.6702575683594 C 296.4576416015625 301.4405212402344 244.31553649902344 299.2307434082031 177.75308227539062 295.5198059082031 C 274.8240661621094 256.3634338378906 256.8392333984375 246.5349884033203 261.98455810546875 182.27691650390625 C 300.7819519042969 111.65687561035156 300.6710510253906 157.3448486328125 337.8110656738281 234.39625549316406" stroke-width="0.0" fill="rgb(9, 37, 229)" opacity="0.9901081" stroke="rgb(0, 0, 0)" stroke-opacity="1.0" stroke-linecap="round" stroke-linejoin="round"/>
    <path d="M 458.6229553222656 148.8825225830078 C 441.1890563964844 196.9113006591797 594.3804321289062 158.56100463867188 358.6025695800781 246.8788299560547 C 316.7242126464844 227.15118408203125 345.7203063964844 238.95974731445312 258.689208984375 210.3367919921875 C 263.70111083984375 -10.929448127746582 337.14739990234375 107.07789611816406 314.864501953125 183.3558349609375 C 427.5768127441406 155.96377563476562 446.5258483886719 137.99354553222656 458.6229553222656 148.8825225830078" stroke-width="0.0" fill="rgb(255, 228, 193)" opacity="1.0" stroke="rgb(0, 0, 0)" stroke-opacity="1.0" stroke-linecap="round" stroke-linejoin="round"/>
    <path d="M 278.4900817871094 275.3457946777344 C 360.4864196777344 278.1937561035156 252.1386260986328 264.13671875 246.82275390625 364.7142333984375 C 138.3740997314453 431.2693786621094 162.83294677734375 292.98724365234375 209.71588134765625 255.09388732910156 C 76.46617889404297 209.08836364746094 -0.889636218547821 181.1700439453125 223.91983032226562 189.49929809570312 C 269.56097412109375 189.03753662109375 278.35498046875 262.5525817871094 278.4900817871094 275.3457946777344" stroke-width="0.0" fill="rgb(11, 25, 227)" opacity="0.7784403" stroke="rgb(0, 0, 0)" stroke-opacity="1.0" stroke-linecap="round" stroke-linejoin="round"/>
    <path d="M 454.52178955078125 233.47103881835938 C 492.2351379394531 216.5452880859375 440.5999755859375 277.22906494140625 388.1153564453125 282.86553955078125 C 387.2212829589844 292.4239196777344 366.05029296875 349.2054138183594 396.4300537109375 229.43199157714844 C 502.54315185546875 227.9275665283203 462.7724304199219 227.95278930664062 437.1493225097656 265.017333984375 C 416.82550048828125 258.389404296875 483.6015319824219 252.02291870117188 454.52178955078125 233.47103881835938" stroke-width="0.0" fill="rgb(5, 25, 242)" opacity="0.9860543" stroke="rgb(0, 0, 0)" stroke-opacity="1.0" stroke-linecap="round" stroke-linejoin="round"/>
    <path d="M 338.23406982421875 398.2958068847656 C 148.7027130126953 316.2708740234375 249.8875732421875 402.99652099609375 171.4623565673828 430.3058166503906 C 164.15408325195312 394.2786560058594 164.78158569335938 385.4862976074219 151.86695861816406 369.7853088378906 C 186.09278869628906 365.5575866699219 157.3209686279297 380.74127197265625 177.92295837402344 370.58367919921875 C 215.0952606201172 367.0549621582031 145.12889099121094 405.062744140625 338.23406982421875 398.2958068847656" stroke-width="0.0" fill="rgb(36, 38, 178)" opacity="0.32906008" stroke="rgb(0, 0, 0)" stroke-opacity="1.0" stroke-linecap="round" stroke-linejoin="round"/>
    <path d="M 558.0255737304688 64.87743377685547 C 541.0758666992188 113.91876983642578 529.1687622070312 117.57870483398438 496.8752746582031 103.11417388916016 C 435.5265197753906 88.86578369140625 435.765625 153.85433959960938 480.5301513671875 72.08238983154297 C 398.5994873046875 13.596463203430176 311.0524597167969 161.12266540527344 350.9198303222656 -12.554045677185059 C 518.9114379882812 -45.13037109375 531.3336791992188 -13.46589469909668 558.0255737304688 64.87743377685547" stroke-width="0.0" fill="rgb(30, 22, 204)" opacity="0.8879058" stroke="rgb(0, 0, 0)" stroke-opacity="1.0" stroke-linecap="round" stroke-linejoin="round"/>
    <path d="M 444.2436218261719 144.99632263183594 C 425.5785827636719 219.67210388183594 432.433349609375 169.7091827392578 354.3038024902344 140.27505493164062 C 347.65582275390625 126.58616638183594 385.8830261230469 100.10543060302734 393.62567138671875 98.06228637695312 C 395.232421875 106.8633804321289 417.5766296386719 74.8955078125 418.6540222167969 118.32154083251953 C 462.9333190917969 86.49925994873047 476.665283203125 69.79176330566406 444.2436218261719 144.99632263183594" stroke-width="0.0" fill="rgb(255, 110, 0)" opacity="1.0" stroke="rgb(0, 0, 0)" stroke-opacity="1.0" stroke-linecap="round" stroke-linejoin="round"/>
    <path d="M 250.68777465820312 277.7910461425781 C 253.12124633789062 311.9364929199219 236.26295471191406 343.03997802734375 251.98834228515625 325.690673828125 C 199.41383361816406 308.110595703125 166.7174835205078 355.62091064453125 68.7088851928711 212.4976043701172 C 35.44833755493164 197.68031311035156 120.70564270019531 178.41397094726562 163.32215881347656 192.85545349121094 C 220.98170471191406 217.44654846191406 242.50582885742188 253.3833465576172 250.68777465820312 277.7910461425781" stroke-width="0.0" fill="rgb(254, 114, 0)" opacity="1.0" stroke="rgb(0, 0, 0)" stroke-opacity="1.0" stroke-linecap="round" stroke-linejoin="round"/>
    <path d="M 366.01812744140625 444.26123046875 C 385.7561340332031 471.0115661621094 337.2343444824219 502.0140686035156 287.0314025878906 431.9610290527344 C 253.58187866210938 256.62872314453125 316.63311767578125 492.1174621582031 382.49420166015625 451.27301025390625 C 377.9914855957031 407.7134704589844 323.0021057128906 476.031005859375 292.4671936035156 348.5657958984375 C 378.29345703125 476.33929443359375 316.4339599609375 432.69940185546875 366.01812744140625 444.26123046875" stroke-width="0.0" fill="rgb(27, 27, 208)" opacity="0.1284919" stroke="rgb(0, 0, 0)" stroke-opacity="1.0" stroke-linecap="round" stroke-linejoin="round"/>
    <path d="M 382.7034606933594 112.88113403320312 C 354.5282897949219 109.67086029052734 340.6206359863281 111.27518463134766 348.720703125 116.52041625976562 C 348.6985778808594 117.64383697509766 306.7696838378906 69.49140167236328 266.49676513671875 66.34194946289062 C 271.9960632324219 -43.439090728759766 306.0455627441406 -89.53453063964844 453.9671325683594 59.95326614379883 C 373.0819091796875 107.8782958984375 390.7333984375 130.43878173828125 382.7034606933594 112.88113403320312" stroke-width="0.0" fill="rgb(27, 32, 200)" opacity="0.9987598" stroke="rgb(0, 0, 0)" stroke-opacity="1.0" stroke-linecap="round" stroke-linejoin="round"/>
    <path d="M 389.33001708984375 293.1624450683594 C 209.82550048828125 240.77206420898438 217.5318145751953 386.575927734375 281.3343200683594 373.3257751464844 C 249.18148803710938 345.7410888671875 314.6586608886719 371.1750793457031 304.9944763183594 368.3003234863281 C 309.84759521484375 399.9684753417969 316.0526428222656 388.74871826171875 300.45361328125 379.5320129394531 C 328.3402099609375 389.6387023925781 352.73431396484375 488.7176513671875 389.33001708984375 293.1624450683594" stroke-width="0.0" fill="rgb(252, 102, 0)" opacity="1.0" stroke="rgb(0, 0, 0)" stroke-opacity="1.0" stroke-linecap="round" stroke-linejoin="round"/>
    <path d="M 392.6366882324219 186.67034912109375 C 356.3101501464844 166.4082794189453 316.0450744628906 180.5543212890625 385.1691589355469 195.2972412109375 C 411.5795593261719 193.32586669921875 388.8279724121094 159.09532165527344 355.84942626953125 185.0713348388672 C 371.2601013183594 192.97299194335938 385.34344482421875 195.5928955078125 367.4058532714844 185.16549682617188 C 358.0667724609375 187.81265258789062 372.8802795410156 205.66026306152344 392.6366882324219 186.67034912109375" stroke-width="0.0" fill="rgb(176, 76, 0)" opacity="0.5763008" stroke="rgb(0, 0, 0)" stroke-opacity="1.0" stroke-linecap="round" stroke-linejoin="round"/>
    <path d="M 184.49200439453125 314.1808776855469 C 178.2523193359375 511.3058166503906 112.45992279052734 354.9281921386719 112.1283950805664 338.240478515625 C 111.08758544921875 271.34344482421875 76.38172149658203 240.32537841796875 96.29442596435547 246.4755859375 C 44.033348083496094 164.181396484375 85.16108703613281 180.56724548339844 56.60831069946289 206.30738830566406 C 89.58872985839844 253.67674255371094 80.269287109375 266.9937744140625 184.49200439453125 314.1808776855469" stroke-width="0.0" fill="rgb(25, 35, 215)" opacity="0.9591107" stroke="rgb(0, 0, 0)" stroke-opacity="1.0" stroke-linecap="round" stroke-linejoin="round"/>
    <path d="M 249.1165771484375 204.4395294189453 C 269.9142761230469 250.47279357910156 286.01129150390625 225.62039184570312 275.15350341796875 275.636474609375 C 231.52635192871094 264.3464050292969 242.96713256835938 231.4945068359375 227.5797576904297 189.16549682617188 C 233.3735809326172 114.64618682861328 223.10369873046875 91.61282348632812 256.1122741699219 110.08206939697266 C 266.63226318359375 156.98516845703125 280.08282470703125 145.0139617919922 249.1165771484375 204.4395294189453" stroke-width="0.0" fill="rgb(19, 35, 209)" opacity="0.89388824" stroke="rgb(0, 0, 0)" stroke-opacity="1.0" stroke-linecap="round" stroke-linejoin="round"/>
    <path d="M 155.68148803710938 330.39300537109375 C 142.0287628173828 388.9083557128906 175.2661895751953 387.983642578125 82.31782531738281 439.4471740722656 C 23.739980697631836 385.3564758300781 15.492180824279785 373.25787353515625 -21.174985885620117 327.3582763671875 C 32.1559944152832 274.9808654785156 26.120229721069336 234.2510986328125 75.08434295654297 206.99838256835938 C 110.1726303100586 276.2842102050781 120.25486755371094 288.2562255859375 155.68148803710938 330.39300537109375" stroke-width="0.0" fill="rgb(10, 56, 186)" opacity="0.21234697" stroke="rgb(0, 0, 0)" stroke-opacity="1.0" stroke-linecap="round" stroke-linejoin="round"/>
    <path d="M 295.9715881347656 271.81787109375 C 302.04345703125 276.06732177734375 322.94256591796875 271.5211486816406 260.1188049316406 282.56317138671875 C 255.73692321777344 306.9195861816406 265.70843505859375 254.71194458007812 250.41636657714844 223.1300811767578 C 243.3935089111328 254.28515625 243.13685607910156 251.3626708984375 281.5696716308594 259.2112121582031 C 277.1324768066406 218.46734619140625 280.1180725097656 225.4403839111328 295.9715881347656 271.81787109375" stroke-width="0.0" fill="rgb(14, 39, 222)" opacity="0.3673115" stroke="rgb(0, 0, 0)" stroke-opacity="1.0" stroke-linecap="round" stroke-linejoin="round"/>
    <path d="M 285.4503479003906 246.99546813964844 C 298.01470947265625 236.99407958984375 301.3528137207031 289.8539123535156 268.5604248046875 266.7358703613281 C 239.76300048828125 254.0752410888672 247.08462524414062 276.48583984375 229.16607666015625 197.02853393554688 C 233.39981079101562 173.2646484375 264.4549255371094 179.87054443359375 256.0418701171875 184.0396728515625 C 260.5425720214844 210.9935760498047 254.29098510742188 220.96815490722656 285.4503479003906 246.99546813964844" stroke-width="0.0" fill="rgb(0, 33, 197)" opacity="0.26243377" stroke="rgb(0, 0, 0)" stroke-opacity="1.0" stroke-linecap="round" stroke-linejoin="round"/>
    <path d="M 314.1065673828125 398.2083740234375 C 307.44482421875 343.2136535644531 303.29852294921875 397.1318664550781 304.9935302734375 409.1942138671875 C 308.04595947265625 397.3899230957031 314.9303894042969 423.64483642578125 316.2763366699219 423.1783142089844 C 333.80633544921875 436.9181213378906 418.5375671386719 452.29522705078125 408.19744873046875 423.31134033203125 C 305.4466247558594 421.8044738769531 324.1446838378906 431.4267272949219 314.1065673828125 398.2083740234375" stroke-width="0.0" fill="rgb(106, 50, 2)" opacity="0.8104659" stroke="rgb(0, 0, 0)" stroke-opacity="1.0" stroke-linecap="round" stroke-linejoin="round"/>
    <path d="M 268.83062744140625 177.45716857910156 C 276.764892578125 161.6328125 265.904541015625 173.54071044921875 267.05328369140625 181.15081787109375 C 281.9888916015625 188.1495361328125 267.4960021972656 199.44419860839844 262.6642150878906 187.3975372314453 C 268.3724670410156 171.9853515625 269.16326904296875 179.09715270996094 284.9713134765625 185.8927001953125 C 284.5802307128906 170.76800537109375 281.0474548339844 178.7981719970703 268.83062744140625 177.45716857910156" stroke-width="0.0" fill="rgb(67, 52, 120)" opacity="0.019138377" stroke="rgb(0, 0, 0)" stroke-opacity="1.0" stroke-linecap="round" stroke-linejoin="round"/>
    <path d="M 383.6075744628906 253.87425231933594 C 410.6220397949219 250.91368103027344 406.1968688964844 332.3448181152344 382.87884521484375 356.779541015625 C 310.3649597167969 267.7357177734375 277.5815734863281 296.0502014160156 313.7948303222656 274.6890869140625 C 339.0466613769531 263.807373046875 334.22979736328125 246.6000213623047 339.6031799316406 247.4270477294922 C 346.1980895996094 274.2936706542969 336.21917724609375 305.5380554199219 383.6075744628906 253.87425231933594" stroke-width="0.0" fill="rgb(255, 194, 115)" opacity="0.9954878" stroke="rgb(0, 0, 0)" stroke-opacity="1.0" stroke-linecap="round" stroke-linejoin="round"/>
    <path d="M 283.137451171875 409.0228576660156 C 254.79183959960938 425.51446533203125 240.1032257080078 424.4842224121094 183.18759155273438 431.5980224609375 C 158.7998504638672 426.49639892578125 133.89022827148438 439.48577880859375 132.968017578125 381.1463623046875 C 162.60919189453125 364.567626953125 224.42140197753906 406.4395751953125 258.1043701171875 364.00128173828125 C 304.20770263671875 339.6728820800781 314.1128845214844 341.7392883300781 283.137451171875 409.0228576660156" stroke-width="0.0" fill="rgb(245, 101, 3)" opacity="0.9587744" stroke="rgb(0, 0, 0)" stroke-opacity="1.0" stroke-linecap="round" stroke-linejoin="round"/>
    <path d="M 212.87652587890625 295.15020751953125 C 215.89682006835938 301.8114929199219 199.67189025878906 300.1032409667969 183.91378784179688 269.81719970703125 C 149.86184692382812 310.7925720214844 167.9438018798828 293.4027099609375 153.30499267578125 259.26776123046875 C 181.2261962890625 281.494873046875 184.2095947265625 270.6791076660156 179.78944396972656 233.88963317871094 C 169.78860473632812 265.24261474609375 187.5366668701172 263.8424377441406 212.87652587890625 295.15020751953125" stroke-width="0.0" fill="rgb(253, 103, 44)" opacity="0.2778396" stroke="rgb(0, 0, 0)" stroke-opacity="1.0" stroke-linecap="round" stroke-linejoin="round"/>
    <path d="M 402.1091613769531 207.18243408203125 C 396.9281311035156 210.81039428710938 391.9095764160156 277.6963806152344 395.45648193359375 332.055419921875 C 327.580078125 269.2685852050781 331.07281494140625 263.8048095703125 330.32745361328125 249.33251953125 C 334.1272277832031 231.11712646484375 316.423828125 241.2312774658203 312.09002685546875 233.90782165527344 C 319.2720642089844 239.86489868164062 326.17474365234375 244.3468780517578 402.1091613769531 207.18243408203125" stroke-width="0.0" fill="rgb(255, 255, 254)" opacity="0.9966284" stroke="rgb(0, 0, 0)" stroke-opacity="1.0" stroke-linecap="round" stroke-linejoin="round"/>
    <path d="M 151.11463928222656 426.82086181640625 C 168.14453125 424.4162292480469 169.2422332763672 417.84088134765625 149.3632049560547 423.4276123046875 C 150.96334838867188 434.116455078125 130.3992919921875 436.08642578125 78.28913879394531 410.8380432128906 C 121.93708038330078 375.2804870605469 148.97796630859375 376.9582824707031 175.1385955810547 385.68341064453125 C 156.84886169433594 418.0550537109375 142.21263122558594 424.05194091796875 151.11463928222656 426.82086181640625" stroke-width="0.0" fill="rgb(255, 171, 8)" opacity="1.0" stroke="rgb(0, 0, 0)" stroke-opacity="1.0" stroke-linecap="round" stroke-linejoin="round"/>
    <path d="M 333.35302734375 391.5405578613281 C 346.6280517578125 406.33905029296875 348.1114501953125 413.705322265625 352.5302734375 425.18829345703125 C 305.4840393066406 439.5010070800781 289.275634765625 432.5358581542969 302.3459777832031 367.94384765625 C 304.30487060546875 352.1875 325.936279296875 363.285400390625 332.65289306640625 351.9713134765625 C 329.3132019042969 359.095458984375 324.625732421875 353.143798828125 333.35302734375 391.5405578613281" stroke-width="0.0" fill="rgb(8, 20, 1)" opacity="1.0" stroke="rgb(0, 0, 0)" stroke-opacity="1.0" stroke-linecap="round" stroke-linejoin="round"/>
    <path d="M 190.1658935546875 435.3486633300781 C 215.1150665283203 457.97601318359375 205.35414123535156 477.97381591796875 183.81573486328125 484.9622802734375 C 182.91705322265625 476.8467102050781 178.6436767578125 455.904541015625 201.3288116455078 447.237060546875 C 188.5247802734375 463.1532897949219 193.19898986816406 433.2602233886719 179.11334228515625 443.7972717285156 C 185.57064819335938 438.72021484375 225.73228454589844 423.0119323730469 190.1658935546875 435.3486633300781" stroke-width="0.0" fill="rgb(19, 30, 231)" opacity="0.04930064" stroke="rgb(0, 0, 0)" stroke-opacity="1.0" stroke-linecap="round" stroke-linejoin="round"/>
    <path d="M 178.5697479248047 419.6043701171875 C 172.31765747070312 442.1118469238281 171.46548461914062 448.4076232910156 198.23814392089844 442.5688171386719 C 168.14535522460938 449.1341857910156 157.21449279785156 446.5138244628906 190.34646606445312 434.9146423339844 C 202.7061767578125 450.5478820800781 214.9726104736328 445.09417724609375 206.80543518066406 406.9523620605469 C 180.2751007080078 406.6147155761719 191.9893798828125 420.0882263183594 178.5697479248047 419.6043701171875" stroke-width="0.0" fill="rgb(110, 16, 189)" opacity="0.0102831675" stroke="rgb(0, 0, 0)" stroke-opacity="1.0" stroke-linecap="round" stroke-linejoin="round"/>
    <path d="M 220.413330078125 235.19642639160156 C 191.33297729492188 225.73931884765625 190.55018615722656 237.26902770996094 214.1515350341797 260.17388916015625 C 179.2946014404297 246.32054138183594 196.75782775878906 241.52401733398438 185.91397094726562 234.28123474121094 C 205.34825134277344 240.53610229492188 206.4090576171875 244.37608337402344 186.21249389648438 240.4497833251953 C 193.1962432861328 241.60784912109375 208.26368713378906 241.14410400390625 220.413330078125 235.19642639160156" stroke-width="0.0" fill="rgb(255, 36, 204)" opacity="0.07723273" stroke="rgb(0, 0, 0)" stroke-opacity="1.0" stroke-linecap="round" stroke-linejoin="round"/>
    <path d="M 291.02911376953125 252.31689453125 C 298.4998779296875 270.20538330078125 287.5519104003906 282.1154479980469 273.4222106933594 273.7744140625 C 255.8580780029297 269.44793701171875 259.1564025878906 286.98492431640625 257.98541259765625 242.88389587402344 C 253.7062225341797 226.46400451660156 289.3657531738281 235.64486694335938 294.6645202636719 237.97158813476562 C 288.6628112792969 235.37696838378906 298.6884460449219 247.19992065429688 291.02911376953125 252.31689453125" stroke-width="0.0" fill="rgb(0, 32, 239)" opacity="0.19180222" stroke="rgb(0, 0, 0)" stroke-opacity="1.0" stroke-linecap="round" stroke-linejoin="round"/>
    <path d="M 239.39923095703125 379.7698974609375 C 222.96502685546875 383.4338073730469 256.0970458984375 379.0522155761719 180.8764190673828 384.6834411621094 C 151.8231201171875 390.1371154785156 181.11497497558594 388.1613464355469 173.93829345703125 376.8104248046875 C 208.53822326660156 391.5900573730469 237.6422882080078 394.5577087402344 242.4279327392578 345.29559326171875 C 229.09815979003906 339.1183166503906 257.193115234375 349.16644287109375 239.39923095703125 379.7698974609375" stroke-width="0.0" fill="rgb(226, 95, 43)" opacity="0.118259735" stroke="rgb(0, 0, 0)" stroke-opacity="1.0" stroke-linecap="round" stroke-linejoin="round"/>
    <path d="M 85.70137023925781 408.6805114746094 C 94.40643310546875 486.71978759765625 98.7550277709961 472.8768005371094 91.38851165771484 462.0809020996094 C 78.7110824584961 458.9032897949219 74.77342987060547 431.3208312988281 74.21275329589844 400.28912353515625 C 89.26780700683594 416.6818542480469 99.14061737060547 418.6278076171875 90.10320281982422 468.7259521484375 C 43.43014907836914 454.7552185058594 67.3425064086914 418.1968688964844 85.70137023925781 408.6805114746094" stroke-width="0.0" fill="rgb(67, 45, 203)" opacity="0.025429422" stroke="rgb(0, 0, 0)" stroke-opacity="1.0" stroke-linecap="round" stroke-linejoin="round"/>
    <path d="M 464.7480163574219 460.03839111328125 C 458.4586486816406 463.3616027832031 440.6166687011719 459.2139587402344 401.10223388671875 453.1585693359375 C 419.96697998046875 503.68890380859375 426.607666015625 495.7500915527344 435.3330383300781 423.0154113769531 C 422.03277587890625 389.490478515625 431.270263671875 404.9605712890625 468.8243713378906 423.32684326171875 C 449.6217346191406 418.59832763671875 474.897216796875 427.51397705078125 464.7480163574219 460.03839111328125" stroke-width="0.0" fill="rgb(20, 30, 185)" opacity="0.045796104" stroke="rgb(0, 0, 0)" stroke-opacity="1.0" stroke-linecap="round" stroke-linejoin="round"/>
    <path d="M 280.1114807128906 47.783565521240234 C 344.9993591308594 143.61497497558594 349.576416015625 149.6298370361328 271.9986572265625 100.94729614257812 C 220.26898193359375 49.99573516845703 227.5818634033203 46.335323333740234 222.6312713623047 79.52740478515625 C 205.62210083007812 36.14854049682617 183.79898071289062 49.681251525878906 199.02947998046875 71.11801147460938 C 198.02529907226562 39.96158218383789 231.18663024902344 60.44157791137695 280.1114807128906 47.783565521240234" stroke-width="0.0" fill="rgb(52, 24, 185)" opacity="0.016003493" stroke="rgb(0, 0, 0)" stroke-opacity="1.0" stroke-linecap="round" stroke-linejoin="round"/>
    <path d="M 159.28564453125 173.5146942138672 C 141.3953857421875 178.15257263183594 124.55558776855469 159.43011474609375 129.0106201171875 144.5259246826172 C 134.7126007080078 131.04132080078125 121.44652557373047 127.7745361328125 125.13482666015625 124.67977905273438 C 125.51596069335938 106.00581359863281 125.96926879882812 62.52536392211914 132.44512939453125 111.28367614746094 C 171.1038055419922 116.99535369873047 160.26754760742188 110.11035919189453 159.28564453125 173.5146942138672" stroke-width="0.0" fill="rgb(11, 50, 181)" opacity="0.15647537" stroke="rgb(0, 0, 0)" stroke-opacity="1.0" stroke-linecap="round" stroke-linejoin="round"/>
    <path d="M 133.7279510498047 442.12506103515625 C 137.91864013671875 429.8003234863281 115.54859161376953 479.5356140136719 126.47265625 460.3434753417969 C 119.96639251708984 428.0992736816406 92.82698059082031 455.888916015625 81.89067077636719 449.6589050292969 C 85.454345703125 458.7189025878906 104.99281311035156 473.9405212402344 87.19017791748047 404.4808044433594 C 90.83447265625 435.0941467285156 107.50879669189453 473.44464111328125 133.7279510498047 442.12506103515625" stroke-width="0.0" fill="rgb(20, 4, 187)" opacity="0.059250526" stroke="rgb(0, 0, 0)" stroke-opacity="1.0" stroke-linecap="round" stroke-linejoin="round"/>
    <path d="M 486.3305358886719 498.5147705078125 C 484.8105773925781 518.2993774414062 475.5294189453125 550.4901123046875 496.19384765625 501.90863037109375 C 492.88250732421875 489.50262451171875 474.11572265625 498.03466796875 474.7826843261719 499.4493103027344 C 447.7735595703125 511.4203796386719 447.16595458984375 464.45025634765625 445.7815856933594 472.4037170410156 C 470.293701171875 481.5193786621094 476.3252258300781 498.05242919921875 486.3305358886719 498.5147705078125" stroke-width="0.0" fill="rgb(27, 62, 165)" opacity="0.027269078" stroke="rgb(0, 0, 0)" stroke-opacity="1.0" stroke-linecap="round" stroke-linejoin="round"/>
    <path d="M 204.70591735839844 60.27149200439453 C 153.58302307128906 46.84489059448242 133.12876892089844 52.51509094238281 113.20291137695312 59.60032272338867 C 113.58692932128906 48.41972351074219 136.32431030273438 44.75784683227539 98.8465805053711 86.81746673583984 C 74.78117370605469 47.23461151123047 70.3265380859375 -17.27086067199707 85.60896301269531 -14.340216636657715 C 185.58786010742188 -12.789443969726562 193.1274871826172 -31.52492332458496 204.70591735839844 60.27149200439453" stroke-width="0.0" fill="rgb(31, 58, 162)" opacity="0.081187576" stroke="rgb(0, 0, 0)" stroke-opacity="1.0" stroke-linecap="round" stroke-linejoin="round"/>
    <path d="M 32.75250244140625 329.1485900878906 C 34.77820587158203 314.7626037597656 27.926836013793945 316.4532165527344 34.84975051879883 337.95050048828125 C 21.227249145507812 326.36541748046875 10.901751518249512 325.76190185546875 12.998103141784668 327.56719970703125 C 6.8151326179504395 285.05718994140625 22.40483283996582 277.8118896484375 17.833826065063477 305.4830627441406 C 35.390380859375 292.8225402832031 32.65107727050781 300.82672119140625 32.75250244140625 329.1485900878906" stroke-width="0.0" fill="rgb(7, 71, 149)" opacity="0.0035259696" stroke="rgb(0, 0, 0)" stroke-opacity="1.0" stroke-linecap="round" stroke-linejoin="round"/>
    <path d="M 402.6796875 414.88275146484375 C 375.6417236328125 439.921875 385.2608947753906 468.9013977050781 386.5631408691406 435.5343933105469 C 379.5385437011719 455.73699951171875 381.647216796875 448.8359069824219 380.7890930175781 448.0555419921875 C 376.50732421875 442.5638427734375 378.76727294921875 440.3363342285156 406.9413757324219 429.6849060058594 C 386.3953857421875 424.3125915527344 396.6466369628906 432.7680969238281 402.6796875 414.88275146484375" stroke-width="0.0" fill="rgb(5, 106, 92)" opacity="0.07672421" stroke="rgb(0, 0, 0)" stroke-opacity="1.0" stroke-linecap="round" stroke-linejoin="round"/>
    <path d="M 143.3576202392578 442.79583740234375 C 142.0247039794922 468.5986022949219 143.9740753173828 461.1192321777344 115.7679443359375 461.14080810546875 C 118.469482421875 440.5648193359375 104.13977813720703 451.6969299316406 100.8021240234375 455.4597473144531 C 90.36738586425781 426.8709411621094 97.26189422607422 418.8530578613281 118.01898956298828 439.7834777832031 C 129.32452392578125 432.4253845214844 134.18222045898438 433.3585510253906 143.3576202392578 442.79583740234375" stroke-width="0.0" fill="rgb(15, 46, 188)" opacity="0.18763164" stroke="rgb(0, 0, 0)" stroke-opacity="1.0" stroke-linecap="round" stroke-linejoin="round"/>
    <path d="M 257.3289489746094 68.65572357177734 C 268.07916259765625 61.265586853027344 249.60777282714844 78.25848388671875 245.93756103515625 56.168270111083984 C 217.398193359375 50.98904037475586 196.15550231933594 59.24609375 192.99610900878906 52.65719985961914 C 183.7915802001953 -16.916061401367188 190.92738342285156 -12.621953964233398 254.4059600830078 -15.118341445922852 C 288.1882019042969 -17.097143173217773 281.12762451171875 42.577552795410156 257.3289489746094 68.65572357177734" stroke-width="0.0" fill="rgb(44, 27, 194)" opacity="0.1646061" stroke="rgb(0, 0, 0)" stroke-opacity="1.0" stroke-linecap="round" stroke-linejoin="round"/>
    <path d="M 112.44064331054688 332.4198913574219 C 133.6954345703125 360.6900634765625 167.72970581054688 368.7451477050781 128.5192413330078 332.8773193359375 C 76.36204528808594 347.52667236328125 82.89700317382812 361.230712890625 87.98446655273438 346.86663818359375 C 87.69143676757812 300.02984619140625 85.58281707763672 305.4464416503906 108.63667297363281 316.9471435546875 C 109.85299682617188 347.9420166015625 130.08453369140625 359.6684875488281 112.44064331054688 332.4198913574219" stroke-width="0.0" fill="rgb(11, 26, 204)" opacity="0.0" stroke="rgb(0, 0, 0)" stroke-opacity="1.0" stroke-linecap="round" stroke-linejoin="round"/>
    <path d="M 540.9346923828125 194.44444274902344 C 520.5423583984375 229.0037841796875 499.3971862792969 225.8640899658203 490.4549560546875 219.69960021972656 C 466.9373779296875 212.01963806152344 455.5482482910156 214.73724365234375 442.0464782714844 188.20985412597656 C 490.3086853027344 164.4113311767578 484.326171875 158.37969970703125 450.1827697753906 161.29164123535156 C 481.8321228027344 172.86790466308594 505.8241271972656 185.7283477783203 540.9346923828125 194.44444274902344" stroke-width="0.0" fill="rgb(58, 30, 173)" opacity="0.0" stroke="rgb(0, 0, 0)" stroke-opacity="1.0" stroke-linecap="round" stroke-linejoin="round"/>
    <path d="M 509.0206604003906 94.81771850585938 C 522.43310546875 106.29298400878906 523.6156616210938 115.24402618408203 479.3078918457031 112.40218353271484 C 487.7093505859375 67.27228546142578 491.4963073730469 61.958953857421875 490.64501953125 54.68519592285156 C 501.39703369140625 65.79405212402344 491.4274597167969 36.97544860839844 494.48870849609375 -3.282824754714966 C 494.46148681640625 45.26715850830078 498.01416015625 68.06922912597656 509.0206604003906 94.81771850585938" stroke-width="0.0" fill="rgb(56, 57, 136)" opacity="0.01719155" stroke="rgb(0, 0, 0)" stroke-opacity="1.0" stroke-linecap="round" stroke-linejoin="round"/>
    <path d="M 41.186588287353516 218.4712371826172 C 9.678421974182129 176.52215576171875 7.00093412399292 196.1323699951172 16.142187118530273 218.49838256835938 C 9.700911521911621 221.03651428222656 16.830015182495117 168.97640991210938 34.376529693603516 217.20523071289062 C 23.545406341552734 244.8104248046875 -9.59206771850586 207.85374450683594 -15.004460334777832 165.36349487304688 C 44.816307067871094 137.3663330078125 49.1920166015625 158.3116912841797 41.186588287353516 218.4712371826172" stroke-width="0.0" fill="rgb(14, 59, 191)" opacity="0.14672054" stroke="rgb(0, 0, 0)" stroke-opacity="1.0" stroke-linecap="round" stroke-linejoin="round"/>
    <path d="M 124.2510757446289 355.5577697753906 C 161.25418090820312 363.9923400878906 146.93418884277344 344.15179443359375 103.98255920410156 331.0999755859375 C 91.12144470214844 367.80029296875 79.32006072998047 359.12200927734375 116.78301239013672 361.2916564941406 C 112.27487182617188 343.7731018066406 100.24549865722656 310.0345458984375 104.17948150634766 296.4239807128906 C 126.65975189208984 321.8795166015625 137.43275451660156 361.6421813964844 124.2510757446289 355.5577697753906" stroke-width="0.0" fill="rgb(24, 25, 228)" opacity="0.059220847" stroke="rgb(0, 0, 0)" stroke-opacity="1.0" stroke-linecap="round" stroke-linejoin="round"/>
    <path d="M 42.3994026184082 62.80847930908203 C 39.6355094909668 90.26775360107422 42.56639862060547 96.28810119628906 39.874202728271484 154.0484619140625 C -24.247488021850586 153.24920654296875 -28.866455078125 144.60577392578125 -24.934864044189453 111.74179077148438 C -34.0750732421875 44.48519515991211 -21.513761520385742 52.512237548828125 15.116064071655273 53.76987838745117 C 42.736236572265625 60.07780456542969 37.080177307128906 52.357486724853516 42.3994026184082 62.80847930908203" stroke-width="0.0" fill="rgb(21, 58, 180)" opacity="0.0707699" stroke="rgb(0, 0, 0)" stroke-opacity="1.0" stroke-linecap="round" stroke-linejoin="round"/>
    <path d="M 151.0373077392578 161.17132568359375 C 155.932861328125 176.91497802734375 143.62257385253906 203.14097595214844 149.36875915527344 205.8651580810547 C 155.32635498046875 169.6815948486328 128.56369018554688 184.5816192626953 119.84552764892578 155.3155975341797 C 115.82168579101562 141.47384643554688 115.720458984375 138.10623168945312 168.62413024902344 141.66387939453125 C 167.92388916015625 179.68386840820312 153.52647399902344 164.39288330078125 151.0373077392578 161.17132568359375" stroke-width="0.0" fill="rgb(24, 56, 206)" opacity="0.018518902" stroke="rgb(0, 0, 0)" stroke-opacity="1.0" stroke-linecap="round" stroke-linejoin="round"/>
    <path d="M 225.97280883789062 370.7498474121094 C 217.64988708496094 398.5357971191406 219.65194702148438 396.3654479980469 184.80145263671875 386.5862121582031 C 163.69212341308594 399.4644775390625 151.8660430908203 394.78448486328125 154.23570251464844 369.8463439941406 C 192.70054626464844 363.47247314453125 206.85992431640625 380.4286193847656 207.5355987548828 372.0941162109375 C 197.30470275878906 372.269775390625 211.1048583984375 374.25689697265625 225.97280883789062 370.7498474121094" stroke-width="0.0" fill="rgb(173, 161, 0)" opacity="0.00011208345" stroke="rgb(0, 0, 0)" stroke-opacity="1.0" stroke-linecap="round" stroke-linejoin="round"/>
    <path d="M 25.959623336791992 210.80392456054688 C 40.407623291015625 194.95228576660156 50.38972473144531 208.66387939453125 60.50175857543945 237.38270568847656 C -14.999868392944336 226.28868103027344 -23.149520874023438 230.44322204589844 -30.244260787963867 184.15570068359375 C -38.631893157958984 179.91200256347656 18.917566299438477 192.3120880126953 61.53984451293945 198.76348876953125 C 45.472896575927734 148.16163635253906 24.683002471923828 165.91514587402344 25.959623336791992 210.80392456054688" stroke-width="0.0" fill="rgb(11, 51, 176)" opacity="0.06414934" stroke="rgb(0, 0, 0)" stroke-opacity="1.0" stroke-linecap="round" stroke-linejoin="round"/>
    <path d="M 106.02751922607422 77.3968734741211 C 111.96184539794922 86.78792572021484 85.13363647460938 84.27462768554688 84.86964416503906 68.8635482788086 C 77.47293090820312 122.5189208984375 52.3433837890625 120.83059692382812 56.62337112426758 45.612892150878906 C 64.3472671508789 50.9539680480957 92.37689208984375 45.254886627197266 73.67859649658203 52.11692428588867 C 71.83792114257812 20.04620361328125 99.26531219482422 14.306965827941895 106.02751922607422 77.3968734741211" stroke-width="0.0" fill="rgb(25, 56, 199)" opacity="0.0" stroke="rgb(0, 0, 0)" stroke-opacity="1.0" stroke-linecap="round" stroke-linejoin="round"/>
    <path d="M 110.11421203613281 186.05682373046875 C 102.340576171875 179.15916442871094 37.624656677246094 171.32701110839844 30.175439834594727 169.0369873046875 C 41.52386474609375 197.30262756347656 17.412113189697266 158.81727600097656 36.67363739013672 209.4629669189453 C 36.73822021484375 269.30889892578125 5.6712470054626465 248.7156982421875 -3.1282198429107666 181.36207580566406 C 86.47565460205078 193.16004943847656 87.78994750976562 192.8403778076172 110.11421203613281 186.05682373046875" stroke-width="0.0" fill="rgb(1, 66, 171)" opacity="0.10941405" stroke="rgb(0, 0, 0)" stroke-opacity="1.0" stroke-linecap="round" stroke-linejoin="round"/>
    <path d="M 336.05859375 324.0578308105469 C 320.4079895019531 328.4556579589844 327.4081726074219 333.85516357421875 339.7394104003906 339.7131042480469 C 321.80999755859375 331.04681396484375 311.68524169921875 320.0234069824219 297.894775390625 323.4689636230469 C 278.3930969238281 298.99835205078125 282.2496337890625 282.9244384765625 295.7601013183594 316.02313232421875 C 320.8911437988281 318.0162658691406 329.350341796875 327.43829345703125 336.05859375 324.0578308105469" stroke-width="0.0" fill="rgb(255, 102, 17)" opacity="0.59531754" stroke="rgb(0, 0, 0)" stroke-opacity="1.0" stroke-linecap="round" stroke-linejoin="round"/>
    <path d="M 362.9941101074219 418.2999267578125 C 383.538330078125 411.6002502441406 380.1302185058594 420.9306945800781 362.42138671875 450.18609619140625 C 340.6676025390625 443.94659423828125 331.3660888671875 432.24493408203125 368.48114013671875 427.1637878417969 C 360.0046081542969 385.5412292480469 367.3793640136719 381.21343994140625 360.0646057128906 419.5772705078125 C 375.3839111328125 425.2978210449219 388.6172790527344 425.1329345703125 362.9941101074219 418.2999267578125" stroke-width="0.0" fill="rgb(28, 30, 105)" opacity="0.20685418" stroke="rgb(0, 0, 0)" stroke-opacity="1.0" stroke-linecap="round" stroke-linejoin="round"/>
    <path d="M 352.3905029296875 438.4470520019531 C 339.1846618652344 403.03289794921875 322.7040100097656 412.4826354980469 350.7122497558594 409.84503173828125 C 333.61517333984375 425.10333251953125 313.3701171875 412.9764099121094 317.5228271484375 404.08062744140625 C 309.5707092285156 398.4717102050781 300.0929260253906 392.49395751953125 384.0255126953125 350.57952880859375 C 408.7093200683594 443.759765625 398.23028564453125 449.4591979980469 352.3905029296875 438.4470520019531" stroke-width="0.0" fill="rgb(16, 10, 0)" opacity="1.0" stroke="rgb(0, 0, 0)" stroke-opacity="1.0" stroke-linecap="round" stroke-linejoin="round"/>
    <path d="M 535.1292114257812 245.77102661132812 C 551.9205322265625 279.5990295410156 526.787353515625 284.2489929199219 470.4988708496094 270.33062744140625 C 483.7623596191406 241.4588165283203 485.20672607421875 256.2577209472656 444.6063537597656 250.4416046142578 C 440.2239685058594 234.8863067626953 465.1878356933594 238.0562744140625 510.4709777832031 253.37777709960938 C 539.4533081054688 210.59896850585938 531.108154296875 214.5637664794922 535.1292114257812 245.77102661132812" stroke-width="0.0" fill="rgb(7, 50, 179)" opacity="0.09057029" stroke="rgb(0, 0, 0)" stroke-opacity="1.0" stroke-linecap="round" stroke-linejoin="round"/>
    <path d="M 410.6663513183594 159.86766052246094 C 417.9251708984375 162.3216094970703 414.34857177734375 159.88011169433594 408.2286682128906 166.00062561035156 C 409.39788818359375 159.25172424316406 397.23541259765625 150.5453338623047 407.22308349609375 150.80372619628906 C 408.8253173828125 156.37432861328125 407.03857421875 143.04541015625 412.08026123046875 140.12620544433594 C 423.63958740234375 139.41256713867188 409.2986145019531 151.46441650390625 410.6663513183594 159.86766052246094" stroke-width="0.0" fill="rgb(102, 89, 97)" opacity="0.0" stroke="rgb(0, 0, 0)" stroke-opacity="1.0" stroke-linecap="round" stroke-linejoin="round"/>
  </g>
</svg>
