<?xml version="1.0" ?>
<svg xmlns="http://www.w3.org/2000/svg" version="1.1" width="512" height="512">
  <defs/>
  <g>
    <path d="M 574.8486328125 385.07952880859375 C 547.165283203125 516.641845703125 548.8319091796875 525.4011840820312 396.64947509765625 592.4893798828125 C 324.2342529296875 575.4529418945312 254.67123413085938 507.6883239746094 311.2763671875 430.7478942871094 C 245.99411010742188 324.1512451171875 249.1026611328125 281.3924865722656 427.3106384277344 256.6038513183594 C 574.1055297851562 312.046875 582.6434936523438 306.3303527832031 574.8486328125 385.07952880859375" stroke-width="0.0" fill="rgb(9, 38, 211)" opacity="0.9258912" stroke="rgb(0, 0, 0)" stroke-opacity="1.0" stroke-linecap="round" stroke-linejoin="round"/>
    <path d="M 304.0283508300781 380.92498779296875 C 371.42730712890625 501.84576416015625 356.06964111328125 526.4126586914062 260.5207824707031 540.9703979492188 C -51.20000076293945 519.133544921875 -51.20000076293945 511.7567443847656 -53.35301971435547 470.998779296875 C -30.907630920410156 196.5264892578125 -9.334622383117676 218.44110107421875 81.60877227783203 179.7871551513672 C 108.1941909790039 319.2420654296875 176.8701171875 287.6958312988281 304.0283508300781 380.92498779296875" stroke-width="0.0" fill="rgb(40, 60, 215)" opacity="0.97540796" stroke="rgb(0, 0, 0)" stroke-opacity="1.0" stroke-linecap="round" stroke-linejoin="round"/>
    <path d="M 323.99420166015625 196.18971252441406 C 313.1531066894531 385.22796630859375 304.9282531738281 385.3108215332031 242.19422912597656 367.8650817871094 C 95.6189193725586 488.3434753417969 47.93198013305664 407.61328125 -47.295249938964844 188.915771484375 C 1.5751399993896484 176.72276306152344 41.200172424316406 176.2999725341797 135.0358123779297 198.07888793945312 C 169.63116455078125 220.71139526367188 186.14599609375 218.80433654785156 323.99420166015625 196.18971252441406" stroke-width="0.0" fill="rgb(29, 59, 209)" opacity="1.0" stroke="rgb(0, 0, 0)" stroke-opacity="1.0" stroke-linecap="round" stroke-linejoin="round"/>
    <path d="M 277.6890563964844 31.085779190063477 C 249.08592224121094 288.9002990722656 95.78179168701172 182.4344024658203 34.61338806152344 191.8922576904297 C -25.710620880126953 189.9257049560547 -87.22527313232422 221.14028930664062 -107.64337158203125 135.3996124267578 C -16.39366340637207 -18.030452728271484 -10.150599479675293 -23.750812530517578 68.81556701660156 -50.43157196044922 C 233.39398193359375 -60.845855712890625 249.65968322753906 -65.7388916015625 277.6890563964844 31.085779190063477" stroke-width="0.0" fill="rgb(31, 58, 211)" opacity="0.96503663" stroke="rgb(0, 0, 0)" stroke-opacity="1.0" stroke-linecap="round" stroke-linejoin="round"/>
    <path d="M 504.1956787109375 96.3363265991211 C 426.0318603515625 280.0275573730469 401.6139831542969 247.89247131347656 357.4169006347656 309.4792785644531 C 301.8153381347656 274.7550964355469 288.93560791015625 293.53741455078125 244.6259002685547 153.73117065429688 C 223.7399139404297 39.517608642578125 210.61314392089844 5.121494770050049 380.1514587402344 -21.593595504760742 C 570.5167236328125 -10.746917724609375 555.7426147460938 23.199073791503906 504.1956787109375 96.3363265991211" stroke-width="0.0" fill="rgb(175, 104, 1)" opacity="1.0" stroke="rgb(0, 0, 0)" stroke-opacity="1.0" stroke-linecap="round" stroke-linejoin="round"/>
    <path d="M 239.47274780273438 49.45259475708008 C 221.98170471191406 244.18556213378906 370.5633239746094 222.68414306640625 165.98794555664062 322.49163818359375 C 107.17876434326172 189.93167114257812 109.81245422363281 165.4822235107422 107.77075958251953 152.4042510986328 C 97.30731964111328 131.5185546875 86.34844207763672 91.16947937011719 303.5852355957031 -40.91730499267578 C 481.8071594238281 107.31468200683594 395.4339904785156 0.5605102181434631 239.47274780273438 49.45259475708008" stroke-width="0.0" fill="rgb(22, 55, 213)" opacity="1.0" stroke="rgb(0, 0, 0)" stroke-opacity="1.0" stroke-linecap="round" stroke-linejoin="round"/>
    <path d="M 557.4959106445312 151.641845703125 C 576.8087158203125 300.8213806152344 576.4818725585938 320.09832763671875 497.7763977050781 295.9570007324219 C 400.0272521972656 264.21868896484375 393.77197265625 285.0698547363281 435.4349670410156 215.6762237548828 C 450.7271728515625 111.75164794921875 392.2645263671875 29.078306198120117 481.5518493652344 -46.49033737182617 C 577.110107421875 14.590286254882812 577.63232421875 43.24021911621094 557.4959106445312 151.641845703125" stroke-width="0.0" fill="rgb(30, 56, 212)" opacity="0.9750045" stroke="rgb(0, 0, 0)" stroke-opacity="1.0" stroke-linecap="round" stroke-linejoin="round"/>
    <path d="M 335.6226501464844 258.98968505859375 C 348.7147216796875 287.833251953125 327.5993347167969 298.2594299316406 284.716064453125 291.45587158203125 C 288.86102294921875 302.9483337402344 251.8444366455078 298.6429138183594 205.60887145996094 327.7361145019531 C 304.2946472167969 264.87774658203125 307.1748352050781 267.9658203125 298.9154052734375 206.9987030029297 C 316.989013671875 81.06904602050781 322.0228271484375 151.7730255126953 335.6226501464844 258.98968505859375" stroke-width="0.0" fill="rgb(121, 133, 2)" opacity="0.80678415" stroke="rgb(0, 0, 0)" stroke-opacity="1.0" stroke-linecap="round" stroke-linejoin="round"/>
    <path d="M 441.24822998046875 168.4461212158203 C 380.0555114746094 233.0409393310547 495.43670654296875 192.76988220214844 341.87921142578125 269.58624267578125 C 297.5242614746094 253.8426055908203 327.2619323730469 267.26873779296875 263.5699462890625 224.65150451660156 C 196.35797119140625 -49.93810272216797 326.3378601074219 75.83708953857422 337.3802490234375 180.3329620361328 C 379.81231689453125 177.17660522460938 427.28839111328125 163.4857177734375 441.24822998046875 168.4461212158203" stroke-width="0.0" fill="rgb(229, 183, 100)" opacity="0.8543779" stroke="rgb(0, 0, 0)" stroke-opacity="1.0" stroke-linecap="round" stroke-linejoin="round"/>
    <path d="M 255.04229736328125 290.6659851074219 C 356.5416259765625 289.92510986328125 247.93966674804688 261.5002746582031 212.4371795654297 323.4692687988281 C 84.01923370361328 365.16827392578125 184.2464599609375 293.1240539550781 202.21656799316406 235.375 C 71.7013931274414 193.6888885498047 -7.033785820007324 175.2004852294922 243.015380859375 191.89820861816406 C 274.55462646484375 167.81822204589844 264.6072692871094 258.2137756347656 255.04229736328125 290.6659851074219" stroke-width="0.0" fill="rgb(5, 23, 224)" opacity="0.36698535" stroke="rgb(0, 0, 0)" stroke-opacity="1.0" stroke-linecap="round" stroke-linejoin="round"/>
    <path d="M 422.3703918457031 215.41697692871094 C 480.038330078125 205.75823974609375 439.3569641113281 283.36700439453125 378.19012451171875 273.0843505859375 C 362.7563781738281 277.1033020019531 332.91119384765625 328.08209228515625 372.6932373046875 242.9717559814453 C 440.1785583496094 253.52020263671875 415.8721618652344 249.87469482421875 393.3701171875 280.2526550292969 C 378.53436279296875 237.38914489746094 441.4677429199219 229.78900146484375 422.3703918457031 215.41697692871094" stroke-width="0.0" fill="rgb(31, 10, 192)" opacity="0.9612383" stroke="rgb(0, 0, 0)" stroke-opacity="1.0" stroke-linecap="round" stroke-linejoin="round"/>
    <path d="M 320.4411315917969 399.4133605957031 C 133.82762145996094 328.6556396484375 247.1137237548828 387.4178771972656 142.76576232910156 434.2828063964844 C 120.11299896240234 424.021484375 136.5695037841797 397.2375183105469 141.18875122070312 408.29547119140625 C 157.34130859375 410.734619140625 196.1954803466797 422.05584716796875 183.5365753173828 371.9992980957031 C 208.95057678222656 359.88873291015625 149.2156524658203 387.1668701171875 320.4411315917969 399.4133605957031" stroke-width="0.0" fill="rgb(37, 78, 141)" opacity="0.5792841" stroke="rgb(0, 0, 0)" stroke-opacity="1.0" stroke-linecap="round" stroke-linejoin="round"/>
    <path d="M 557.472900390625 51.9063606262207 C 545.3011474609375 101.91764068603516 525.9177856445312 98.51695251464844 484.59735107421875 134.37449645996094 C 469.955322265625 65.14266204833984 440.5408020019531 124.55734252929688 444.55792236328125 60.012081146240234 C 411.942138671875 -1.7526453733444214 309.41046142578125 146.83529663085938 325.7695007324219 5.376972198486328 C 479.2934265136719 -87.58849334716797 513.8204956054688 -36.454586029052734 557.472900390625 51.9063606262207" stroke-width="0.0" fill="rgb(25, 58, 212)" opacity="0.9615565" stroke="rgb(0, 0, 0)" stroke-opacity="1.0" stroke-linecap="round" stroke-linejoin="round"/>
    <path d="M 426.3885498046875 117.4099349975586 C 408.83367919921875 167.859130859375 420.37646484375 138.435546875 367.87945556640625 136.60641479492188 C 352.5315246582031 123.5018081665039 379.29193115234375 87.6571044921875 380.4611511230469 82.79041290283203 C 379.7527160644531 89.4427719116211 405.0496826171875 57.99677658081055 389.7108154296875 68.91158294677734 C 411.26226806640625 49.27094268798828 435.1488952636719 43.9305419921875 426.3885498046875 117.4099349975586" stroke-width="0.0" fill="rgb(255, 75, 38)" opacity="1.0" stroke="rgb(0, 0, 0)" stroke-opacity="1.0" stroke-linecap="round" stroke-linejoin="round"/>
    <path d="M 184.4681854248047 242.61434936523438 C 206.70814514160156 274.8727722167969 188.47373962402344 289.89385986328125 202.89932250976562 275.5128479003906 C 156.7181396484375 284.988525390625 158.0322265625 360.1157531738281 101.11934661865234 216.876708984375 C 110.45565795898438 246.19845581054688 154.34437561035156 233.62738037109375 243.97592163085938 217.2660675048828 C 224.22900390625 215.32015991210938 204.30941772460938 226.63819885253906 184.4681854248047 242.61434936523438" stroke-width="0.0" fill="rgb(191, 20, 248)" opacity="0.76362467" stroke="rgb(0, 0, 0)" stroke-opacity="1.0" stroke-linecap="round" stroke-linejoin="round"/>
    <path d="M 387.78375244140625 440.91943359375 C 413.1518249511719 467.7177734375 353.44952392578125 492.92059326171875 286.776123046875 427.4494934082031 C 241.70993041992188 260.49725341796875 305.4329833984375 474.56591796875 375.5591735839844 435.4410095214844 C 382.2474060058594 433.5076599121094 346.5672912597656 488.2005615234375 348.90606689453125 320.45135498046875 C 397.8743591308594 463.55352783203125 355.3342590332031 439.66571044921875 387.78375244140625 440.91943359375" stroke-width="0.0" fill="rgb(211, 154, 32)" opacity="1.0" stroke="rgb(0, 0, 0)" stroke-opacity="1.0" stroke-linecap="round" stroke-linejoin="round"/>
    <path d="M 307.1706848144531 88.52135467529297 C 323.2386169433594 148.70005798339844 322.494140625 137.80653381347656 325.0851745605469 146.45582580566406 C 338.259033203125 125.87359619140625 298.8863830566406 80.97748565673828 255.49874877929688 46.559749603271484 C 251.12454223632812 -40.58570861816406 273.27655029296875 -70.52611541748047 408.3147888183594 48.20493698120117 C 360.3131408691406 91.11644744873047 383.1423645019531 90.4788818359375 307.1706848144531 88.52135467529297" stroke-width="0.0" fill="rgb(20, 56, 217)" opacity="0.9976372" stroke="rgb(0, 0, 0)" stroke-opacity="1.0" stroke-linecap="round" stroke-linejoin="round"/>
    <path d="M 401.66217041015625 306.8289794921875 C 173.2912139892578 245.60887145996094 167.93569946289062 386.0487365722656 226.92776489257812 408.1750183105469 C 276.94964599609375 388.3581848144531 333.1924743652344 388.4826354980469 287.4256896972656 369.0499572753906 C 284.1623840332031 378.78900146484375 298.308837890625 381.58935546875 268.19940185546875 388.4588623046875 C 349.94305419921875 437.65557861328125 379.9236145019531 539.8338012695312 401.66217041015625 306.8289794921875" stroke-width="0.0" fill="rgb(189, 132, 18)" opacity="0.9275785" stroke="rgb(0, 0, 0)" stroke-opacity="1.0" stroke-linecap="round" stroke-linejoin="round"/>
    <path d="M 348.2884826660156 190.07640075683594 C 331.1860046386719 167.35153198242188 302.95965576171875 174.57806396484375 358.59295654296875 205.79612731933594 C 399.07666015625 212.7406463623047 360.0106506347656 200.35382080078125 352.7334289550781 201.02296447753906 C 344.2054748535156 210.29449462890625 363.7877197265625 199.5019989013672 347.2987060546875 191.54469299316406 C 356.19683837890625 186.63670349121094 348.74169921875 186.5955047607422 348.2884826660156 190.07640075683594" stroke-width="0.0" fill="rgb(237, 38, 96)" opacity="0.68575007" stroke="rgb(0, 0, 0)" stroke-opacity="1.0" stroke-linecap="round" stroke-linejoin="round"/>
    <path d="M 238.74127197265625 266.2557373046875 C 154.64149475097656 466.838623046875 131.74948120117188 316.98553466796875 118.29692077636719 344.6046142578125 C 88.89498138427734 310.464599609375 86.2127456665039 281.5622253417969 101.93362426757812 264.7320861816406 C 53.847686767578125 176.67567443847656 88.31336975097656 156.6959991455078 122.54586029052734 176.9088134765625 C 169.7498779296875 171.61082458496094 150.226806640625 190.9960479736328 238.74127197265625 266.2557373046875" stroke-width="0.0" fill="rgb(25, 57, 220)" opacity="0.9892014" stroke="rgb(0, 0, 0)" stroke-opacity="1.0" stroke-linecap="round" stroke-linejoin="round"/>
    <path d="M 269.79132080078125 210.68060302734375 C 294.4036560058594 229.9816436767578 286.9915466308594 224.95501708984375 292.81329345703125 247.52049255371094 C 260.3511657714844 211.9736785888672 263.6957092285156 200.6238250732422 240.37860107421875 190.0869903564453 C 238.23281860351562 147.85171508789062 241.847412109375 78.16966247558594 244.50062561035156 100.90733337402344 C 225.57098388671875 171.7928009033203 238.98760986328125 192.93905639648438 269.79132080078125 210.68060302734375" stroke-width="0.0" fill="rgb(59, 37, 169)" opacity="0.3106464" stroke="rgb(0, 0, 0)" stroke-opacity="1.0" stroke-linecap="round" stroke-linejoin="round"/>
    <path d="M 139.30177307128906 329.1391296386719 C 134.26470947265625 366.3553161621094 206.64535522460938 434.914794921875 135.62738037109375 419.9104919433594 C 86.9479751586914 331.2586975097656 100.5119857788086 290.716552734375 100.79141235351562 334.2378234863281 C 103.56675720214844 345.4654541015625 77.11058044433594 234.02304077148438 170.71507263183594 212.58078002929688 C 135.74989318847656 288.1284484863281 113.98302459716797 277.96197509765625 139.30177307128906 329.1391296386719" stroke-width="0.0" fill="rgb(204, 127, 10)" opacity="0.9683374" stroke="rgb(0, 0, 0)" stroke-opacity="1.0" stroke-linecap="round" stroke-linejoin="round"/>
    <path d="M 286.9610595703125 267.6181640625 C 292.3754577636719 286.9273986816406 319.1354064941406 269.4132995605469 231.241455078125 280.35906982421875 C 223.51124572753906 281.1858825683594 254.6348876953125 252.56356811523438 254.4895477294922 221.80616760253906 C 254.78062438964844 238.4663848876953 275.6830749511719 253.8694610595703 272.84368896484375 232.97994995117188 C 253.01148986816406 240.4578857421875 261.5064392089844 248.78466796875 286.9610595703125 267.6181640625" stroke-width="0.0" fill="rgb(28, 13, 238)" opacity="0.3485652" stroke="rgb(0, 0, 0)" stroke-opacity="1.0" stroke-linecap="round" stroke-linejoin="round"/>
    <path d="M 289.63922119140625 233.9506378173828 C 290.3033752441406 247.24887084960938 315.0498046875 283.0054626464844 291.6697998046875 272.11676025390625 C 230.8369140625 281.15631103515625 251.8386993408203 293.7220153808594 253.8759765625 248.9780731201172 C 251.71270751953125 173.0266571044922 246.33035278320312 168.66787719726562 270.9908142089844 178.51812744140625 C 275.5439453125 198.56394958496094 274.38427734375 198.28468322753906 289.63922119140625 233.9506378173828" stroke-width="0.0" fill="rgb(59, 20, 227)" opacity="0.3602877" stroke="rgb(0, 0, 0)" stroke-opacity="1.0" stroke-linecap="round" stroke-linejoin="round"/>
    <path d="M 346.3280334472656 383.20343017578125 C 260.1137390136719 361.5577087402344 275.3741760253906 383.4091796875 299.466552734375 397.8901062011719 C 316.88958740234375 385.858154296875 317.0811767578125 414.51519775390625 279.162841796875 470.6106262207031 C 290.9325256347656 481.14385986328125 389.9016418457031 474.4974365234375 372.7227783203125 442.4554748535156 C 335.1775207519531 435.3189697265625 355.5151062011719 432.6958312988281 346.3280334472656 383.20343017578125" stroke-width="0.0" fill="rgb(218, 184, 126)" opacity="1.0" stroke="rgb(0, 0, 0)" stroke-opacity="1.0" stroke-linecap="round" stroke-linejoin="round"/>
    <path d="M 293.6136779785156 171.83494567871094 C 279.855224609375 174.57305908203125 271.47540283203125 203.94778442382812 289.7029724121094 220.5369415283203 C 301.4383544921875 229.16000366210938 322.9677429199219 222.0069122314453 298.88726806640625 250.0482635498047 C 240.30711364746094 226.92840576171875 227.25669860839844 196.15306091308594 240.7200164794922 125.67559051513672 C 287.20489501953125 161.6920623779297 287.8872985839844 185.3214874267578 293.6136779785156 171.83494567871094" stroke-width="0.0" fill="rgb(224, 186, 88)" opacity="0.98722076" stroke="rgb(0, 0, 0)" stroke-opacity="1.0" stroke-linecap="round" stroke-linejoin="round"/>
    <path d="M 400.41448974609375 236.1278076171875 C 493.9613342285156 252.88995361328125 479.4160461425781 318.6299133300781 390.1293640136719 313.26922607421875 C 287.2434387207031 292.8598937988281 219.24630737304688 301.8299560546875 264.7744445800781 239.29808044433594 C 316.4487609863281 247.86155700683594 316.7204895019531 258.1584777832031 314.98065185546875 248.6863555908203 C 327.31036376953125 248.10238647460938 327.2063903808594 276.3077392578125 400.41448974609375 236.1278076171875" stroke-width="0.0" fill="rgb(255, 0, 255)" opacity="1.0" stroke="rgb(0, 0, 0)" stroke-opacity="1.0" stroke-linecap="round" stroke-linejoin="round"/>
    <path d="M 196.53317260742188 379.3409118652344 C 193.7344970703125 358.831298828125 211.0166015625 403.9658203125 207.42027282714844 417.7938537597656 C 151.67904663085938 412.46502685546875 126.6102066040039 439.3833923339844 174.360595703125 457.9433898925781 C 193.30540466308594 398.0696716308594 191.56687927246094 349.65167236328125 194.96681213378906 342.3882141113281 C 187.8320770263672 355.997314453125 210.86337280273438 383.1170349121094 196.53317260742188 379.3409118652344" stroke-width="0.0" fill="rgb(185, 118, 24)" opacity="0.9367669" stroke="rgb(0, 0, 0)" stroke-opacity="1.0" stroke-linecap="round" stroke-linejoin="round"/>
    <path d="M 214.8935089111328 264.5635070800781 C 213.06170654296875 271.7365417480469 211.91014099121094 259.68719482421875 210.65408325195312 255.9665069580078 C 184.7030029296875 231.07518005371094 184.8466339111328 221.14352416992188 181.87152099609375 225.28021240234375 C 186.325439453125 224.615478515625 191.34326171875 246.5999755859375 197.37954711914062 228.36337280273438 C 187.69296264648438 239.53636169433594 206.71670532226562 240.10321044921875 214.8935089111328 264.5635070800781" stroke-width="0.0" fill="rgb(190, 0, 222)" opacity="0.0" stroke="rgb(0, 0, 0)" stroke-opacity="1.0" stroke-linecap="round" stroke-linejoin="round"/>
    <path d="M 339.5870056152344 177.489501953125 C 452.7601013183594 227.3815460205078 410.8134765625 252.2837371826172 366.0630798339844 262.42205810546875 C 335.3390808105469 251.1853790283203 313.2225341796875 276.2513427734375 328.4355773925781 264.16473388671875 C 326.51654052734375 258.37103271484375 293.9339904785156 262.6303405761719 261.1554870605469 243.6540985107422 C 232.29779052734375 210.9690399169922 292.3883056640625 219.59051513671875 339.5870056152344 177.489501953125" stroke-width="0.0" fill="rgb(255, 255, 255)" opacity="1.0" stroke="rgb(0, 0, 0)" stroke-opacity="1.0" stroke-linecap="round" stroke-linejoin="round"/>
    <path d="M 202.73243713378906 416.6280212402344 C 276.5397644042969 412.3248291015625 285.19525146484375 458.2825927734375 232.79428100585938 457.2660217285156 C 148.8707733154297 451.42254638671875 142.1327362060547 431.8876953125 130.5200653076172 414.25799560546875 C 146.6230010986328 399.4501953125 150.21998596191406 396.95465087890625 152.2421112060547 394.10308837890625 C 142.8721923828125 391.4385986328125 134.5730438232422 421.37640380859375 202.73243713378906 416.6280212402344" stroke-width="0.0" fill="rgb(195, 136, 0)" opacity="0.9430507" stroke="rgb(0, 0, 0)" stroke-opacity="1.0" stroke-linecap="round" stroke-linejoin="round"/>
    <path d="M 348.757568359375 388.1688537597656 C 356.1796569824219 395.510986328125 332.1456604003906 388.0484924316406 324.8484191894531 397.58001708984375 C 322.2721252441406 420.44537353515625 317.79693603515625 420.4139404296875 342.7171325683594 424.5567932128906 C 349.3812255859375 417.0409851074219 351.44244384765625 401.8873291015625 351.9907531738281 370.321044921875 C 358.7799072265625 363.2696533203125 357.04705810546875 366.541748046875 348.757568359375 388.1688537597656" stroke-width="0.0" fill="rgb(186, 102, 91)" opacity="0.5610388" stroke="rgb(0, 0, 0)" stroke-opacity="1.0" stroke-linecap="round" stroke-linejoin="round"/>
    <path d="M 203.135986328125 426.1075744628906 C 209.65325927734375 448.9515686035156 200.1207275390625 452.0555725097656 182.5150909423828 457.17230224609375 C 155.1579132080078 466.7055358886719 152.19496154785156 456.8983154296875 198.6163787841797 444.48345947265625 C 213.83497619628906 420.4532165527344 226.40057373046875 448.0777893066406 207.12559509277344 442.4836730957031 C 195.3598175048828 440.158935546875 199.3990020751953 433.78326416015625 203.135986328125 426.1075744628906" stroke-width="0.0" fill="rgb(79, 18, 152)" opacity="0.055283956" stroke="rgb(0, 0, 0)" stroke-opacity="1.0" stroke-linecap="round" stroke-linejoin="round"/>
    <path d="M 187.70652770996094 432.9621887207031 C 180.48440551757812 426.6650695800781 193.16294860839844 439.9932861328125 190.84982299804688 454.64544677734375 C 165.17173767089844 426.7503967285156 142.43739318847656 419.30712890625 139.79722595214844 417.4244384765625 C 143.12960815429688 433.8273010253906 164.38540649414062 397.99603271484375 177.7689971923828 405.69329833984375 C 176.82379150390625 421.4834289550781 192.97158813476562 440.716064453125 187.70652770996094 432.9621887207031" stroke-width="0.0" fill="rgb(228, 18, 114)" opacity="0.06375508" stroke="rgb(0, 0, 0)" stroke-opacity="1.0" stroke-linecap="round" stroke-linejoin="round"/>
    <path d="M 220.78451538085938 241.73892211914062 C 230.421142578125 236.3604736328125 210.85218811035156 261.3940124511719 185.46347045898438 264.6835021972656 C 198.28433227539062 250.5467529296875 190.7617645263672 251.56365966796875 182.4686737060547 279.7344970703125 C 148.90469360351562 280.7308654785156 138.885986328125 299.02996826171875 134.28952026367188 215.15036010742188 C 212.14891052246094 218.90383911132812 219.3503875732422 217.50758361816406 220.78451538085938 241.73892211914062" stroke-width="0.0" fill="rgb(200, 0, 237)" opacity="0.0016805055" stroke="rgb(0, 0, 0)" stroke-opacity="1.0" stroke-linecap="round" stroke-linejoin="round"/>
    <path d="M 293.4339599609375 259.90869140625 C 292.4832763671875 242.3549346923828 261.28521728515625 271.4490661621094 276.64892578125 231.77056884765625 C 257.1864929199219 242.7187957763672 255.91024780273438 280.36590576171875 255.5849151611328 246.57481384277344 C 252.35484313964844 242.4459228515625 256.6109619140625 251.20773315429688 296.3080749511719 246.4727020263672 C 294.914306640625 247.22488403320312 285.0867919921875 262.2498474121094 293.4339599609375 259.90869140625" stroke-width="0.0" fill="rgb(59, 12, 246)" opacity="0.0" stroke="rgb(0, 0, 0)" stroke-opacity="1.0" stroke-linecap="round" stroke-linejoin="round"/>
    <path d="M 195.25669860839844 370.37445068359375 C 205.61361694335938 381.9673767089844 198.71644592285156 375.1785583496094 198.4083709716797 370.4789733886719 C 194.57672119140625 354.42230224609375 188.91082763671875 352.2646789550781 190.82577514648438 369.3371276855469 C 191.54827880859375 361.257568359375 195.71824645996094 344.2903747558594 210.27810668945312 334.7338562011719 C 211.9414520263672 311.3313293457031 203.76480102539062 321.2845458984375 195.25669860839844 370.37445068359375" stroke-width="0.0" fill="rgb(179, 141, 24)" opacity="0.7643783" stroke="rgb(0, 0, 0)" stroke-opacity="1.0" stroke-linecap="round" stroke-linejoin="round"/>
    <path d="M 88.13626861572266 456.772705078125 C 86.46470642089844 482.1165466308594 86.66572570800781 470.4148864746094 57.21834182739258 465.5263366699219 C 56.07284927368164 460.8653869628906 55.340660095214844 441.5877685546875 54.38809585571289 446.23681640625 C 58.554264068603516 380.92132568359375 68.22582244873047 377.26953125 75.41790008544922 424.68133544921875 C 88.37165069580078 422.8326416015625 87.86802673339844 426.3115234375 88.13626861572266 456.772705078125" stroke-width="0.0" fill="rgb(49, 42, 220)" opacity="0.05316192" stroke="rgb(0, 0, 0)" stroke-opacity="1.0" stroke-linecap="round" stroke-linejoin="round"/>
    <path d="M 481.9599609375 470.341796875 C 499.6459045410156 488.513671875 469.59356689453125 473.8916015625 443.02252197265625 458.2188415527344 C 456.5360107421875 496.0228576660156 444.656494140625 470.9637145996094 419.7829895019531 454.9623718261719 C 420.2228088378906 409.9583740234375 426.17767333984375 399.0438537597656 464.1622009277344 418.0201721191406 C 458.9476623535156 424.9048767089844 461.49920654296875 430.4832458496094 481.9599609375 470.341796875" stroke-width="0.0" fill="rgb(24, 56, 222)" opacity="0.00519512" stroke="rgb(0, 0, 0)" stroke-opacity="1.0" stroke-linecap="round" stroke-linejoin="round"/>
    <path d="M 215.85928344726562 77.27558135986328 C 240.31031799316406 122.29013061523438 230.57810974121094 123.7339096069336 210.40655517578125 105.66275024414062 C 210.7276153564453 43.78081130981445 234.32801818847656 59.76384353637695 233.42933654785156 65.53075408935547 C 193.10128784179688 64.2239990234375 200.15951538085938 69.33042907714844 222.95870971679688 75.22369384765625 C 223.92982482910156 47.105506896972656 206.22479248046875 58.88739776611328 215.85928344726562 77.27558135986328" stroke-width="0.0" fill="rgb(27, 22, 223)" opacity="0.0" stroke="rgb(0, 0, 0)" stroke-opacity="1.0" stroke-linecap="round" stroke-linejoin="round"/>
    <path d="M 140.63510131835938 142.39031982421875 C 118.38336944580078 164.1940155029297 118.1106185913086 163.93336486816406 110.05609893798828 165.88253784179688 C 126.79864501953125 180.8086700439453 119.46147918701172 167.23678588867188 113.44882202148438 144.4661407470703 C 81.13004302978516 172.69715881347656 72.09231567382812 125.62860107421875 91.37654876708984 161.0463104248047 C 113.5261001586914 148.67654418945312 165.61976623535156 149.61204528808594 140.63510131835938 142.39031982421875" stroke-width="0.0" fill="rgb(42, 34, 186)" opacity="0.00038016174" stroke="rgb(0, 0, 0)" stroke-opacity="1.0" stroke-linecap="round" stroke-linejoin="round"/>
    <path d="M 63.80606460571289 467.60443115234375 C 87.68824768066406 463.9779357910156 73.24464416503906 472.9976501464844 90.03221130371094 479.16937255859375 C 69.9029541015625 464.6911315917969 66.37171173095703 452.74072265625 46.78986358642578 444.25396728515625 C 51.65501403808594 463.09051513671875 53.713706970214844 431.9150695800781 60.25379180908203 414.08648681640625 C 68.11254119873047 449.55572509765625 66.04647827148438 458.04095458984375 63.80606460571289 467.60443115234375" stroke-width="0.0" fill="rgb(17, 37, 214)" opacity="0.008782057" stroke="rgb(0, 0, 0)" stroke-opacity="1.0" stroke-linecap="round" stroke-linejoin="round"/>
    <path d="M 481.78326416015625 509.4919128417969 C 474.68194580078125 535.9915771484375 491.1956481933594 545.9968872070312 488.66058349609375 512.0521240234375 C 445.8446350097656 527.9131469726562 451.8956604003906 521.2672119140625 459.8900451660156 494.267578125 C 445.3638916015625 493.1597900390625 447.7135009765625 466.5463562011719 449.5224304199219 469.8625183105469 C 451.8968200683594 508.8423156738281 491.4223937988281 503.91497802734375 481.78326416015625 509.4919128417969" stroke-width="0.0" fill="rgb(38, 59, 204)" opacity="0.0021281817" stroke="rgb(0, 0, 0)" stroke-opacity="1.0" stroke-linecap="round" stroke-linejoin="round"/>
    <path d="M 167.3867645263672 37.72876739501953 C 153.40496826171875 55.077186584472656 140.66078186035156 58.70610046386719 128.15512084960938 62.425662994384766 C 129.5956268310547 38.95139694213867 124.05982971191406 -8.427095413208008 136.1268768310547 -7.858484745025635 C 121.98273468017578 -0.5259017944335938 131.8004150390625 11.651998519897461 121.10289001464844 1.383867621421814 C 158.84368896484375 9.053837776184082 173.59144592285156 3.5773491859436035 167.3867645263672 37.72876739501953" stroke-width="0.0" fill="rgb(28, 72, 201)" opacity="0.037170656" stroke="rgb(0, 0, 0)" stroke-opacity="1.0" stroke-linecap="round" stroke-linejoin="round"/>
    <path d="M 71.24791717529297 312.63616943359375 C 64.34273529052734 277.66583251953125 73.71682739257812 324.99224853515625 73.77759552001953 361.7865905761719 C 5.800382614135742 352.1593017578125 -12.115013122558594 342.8125305175781 -3.9620866775512695 357.8916931152344 C -40.25757598876953 289.10333251953125 -60.826988220214844 270.6627502441406 47.14026641845703 291.403564453125 C 67.67768859863281 289.5071105957031 56.59859085083008 332.60870361328125 71.24791717529297 312.63616943359375" stroke-width="0.0" fill="rgb(26, 55, 216)" opacity="0.69552004" stroke="rgb(0, 0, 0)" stroke-opacity="1.0" stroke-linecap="round" stroke-linejoin="round"/>
    <path d="M 418.1489562988281 481.94354248046875 C 419.1759033203125 463.0156555175781 410.5166931152344 466.2885437011719 390.0061340332031 431.3043518066406 C 386.7456359863281 454.7444763183594 382.8021545410156 441.14971923828125 375.5387268066406 409.838134765625 C 390.9513854980469 412.0343322753906 408.2855224609375 448.844970703125 417.6988525390625 430.56695556640625 C 425.19085693359375 430.5094909667969 415.9148254394531 455.2859802246094 418.1489562988281 481.94354248046875" stroke-width="0.0" fill="rgb(83, 62, 144)" opacity="0.035643477" stroke="rgb(0, 0, 0)" stroke-opacity="1.0" stroke-linecap="round" stroke-linejoin="round"/>
    <path d="M 140.6696014404297 449.2138977050781 C 148.78001403808594 469.8592834472656 131.978759765625 473.43975830078125 97.33094024658203 460.2532653808594 C 104.51732635498047 459.4261779785156 80.30679321289062 459.2721252441406 93.87310028076172 451.3699645996094 C 93.67345428466797 447.7640075683594 106.08387756347656 439.1175842285156 124.39228820800781 425.37359619140625 C 122.04154205322266 434.8481750488281 131.5345458984375 440.4558410644531 140.6696014404297 449.2138977050781" stroke-width="0.0" fill="rgb(48, 46, 252)" opacity="0.014351325" stroke="rgb(0, 0, 0)" stroke-opacity="1.0" stroke-linecap="round" stroke-linejoin="round"/>
    <path d="M 265.70196533203125 47.18418884277344 C 243.2453155517578 55.333255767822266 249.48330688476562 68.73773956298828 255.04042053222656 71.68287658691406 C 254.14981079101562 65.4065933227539 227.8462677001953 64.77021789550781 206.45828247070312 58.953189849853516 C 205.44256591796875 30.766733169555664 226.86785888671875 26.787290573120117 258.4867858886719 0.49249395728111267 C 276.079833984375 25.716140747070312 279.77423095703125 62.093719482421875 265.70196533203125 47.18418884277344" stroke-width="0.0" fill="rgb(62, 43, 215)" opacity="0.0" stroke="rgb(0, 0, 0)" stroke-opacity="1.0" stroke-linecap="round" stroke-linejoin="round"/>
    <path d="M 120.50129699707031 347.8416748046875 C 119.49564361572266 323.63092041015625 137.3814697265625 353.669189453125 153.2682342529297 360.2126770019531 C 115.84737396240234 380.1947021484375 105.96083068847656 356.304443359375 111.94622802734375 302.6044006347656 C 97.02046966552734 317.6352233886719 108.33409118652344 294.86419677734375 117.7649154663086 330.5803527832031 C 73.80684661865234 340.28466796875 117.63355255126953 382.6398010253906 120.50129699707031 347.8416748046875" stroke-width="0.0" fill="rgb(216, 92, 102)" opacity="0.0350754" stroke="rgb(0, 0, 0)" stroke-opacity="1.0" stroke-linecap="round" stroke-linejoin="round"/>
    <path d="M 535.8543090820312 228.9390411376953 C 539.3986206054688 227.44854736328125 529.5689697265625 219.688720703125 494.8699951171875 215.64413452148438 C 475.2433166503906 217.3872833251953 459.68951416015625 210.83053588867188 438.314208984375 174.34014892578125 C 452.5795593261719 213.33871459960938 467.763427734375 217.9984893798828 472.4581298828125 225.68711853027344 C 479.08837890625 209.5918426513672 511.6258544921875 204.75592041015625 535.8543090820312 228.9390411376953" stroke-width="0.0" fill="rgb(69, 63, 205)" opacity="0.042733967" stroke="rgb(0, 0, 0)" stroke-opacity="1.0" stroke-linecap="round" stroke-linejoin="round"/>
    <path d="M 511.7300109863281 35.15640640258789 C 529.9415893554688 69.54896545410156 540.5244140625 118.50428009033203 491.51275634765625 112.76270294189453 C 488.04400634765625 72.48186492919922 483.60699462890625 66.2881088256836 501.2360534667969 67.88448333740234 C 489.1713562011719 66.92765808105469 507.3131408691406 62.435203552246094 491.638916015625 76.73870849609375 C 477.73126220703125 30.185012817382812 495.8164367675781 43.02266311645508 511.7300109863281 35.15640640258789" stroke-width="0.0" fill="rgb(36, 73, 157)" opacity="0.0628415" stroke="rgb(0, 0, 0)" stroke-opacity="1.0" stroke-linecap="round" stroke-linejoin="round"/>
    <path d="M 28.145048141479492 186.29217529296875 C 44.61368942260742 220.74761962890625 32.90858840942383 227.55494689941406 6.271733283996582 225.74581909179688 C 30.869434356689453 242.91421508789062 24.32411003112793 197.3603057861328 27.6085205078125 188.29217529296875 C 33.61480712890625 202.85696411132812 36.00154113769531 195.72303771972656 36.08702850341797 168.42283630371094 C 13.71241569519043 172.75387573242188 17.749309539794922 161.885498046875 28.145048141479492 186.29217529296875" stroke-width="0.0" fill="rgb(35, 74, 194)" opacity="0.07059925" stroke="rgb(0, 0, 0)" stroke-opacity="1.0" stroke-linecap="round" stroke-linejoin="round"/>
    <path d="M 114.4412612915039 299.0031433105469 C 105.80078125 306.5948791503906 104.11927032470703 299.81488037109375 113.23585510253906 343.15435791015625 C 103.4384765625 339.064208984375 102.1884536743164 362.9278564453125 113.49019622802734 340.7840576171875 C 88.99029541015625 296.22222900390625 91.05522918701172 301.60052490234375 128.8380584716797 303.1804504394531 C 134.6183319091797 300.5774841308594 140.69383239746094 318.8426818847656 114.4412612915039 299.0031433105469" stroke-width="0.0" fill="rgb(120, 58, 113)" opacity="0.014728646" stroke="rgb(0, 0, 0)" stroke-opacity="1.0" stroke-linecap="round" stroke-linejoin="round"/>
    <path d="M 29.95522689819336 113.48255157470703 C 46.34157943725586 109.18257141113281 41.02991485595703 103.39964294433594 28.254024505615234 80.11932373046875 C 12.375594139099121 91.33820343017578 -3.9607722759246826 95.56413269042969 -14.1251802444458 76.55035400390625 C 8.89501953125 72.77552032470703 39.20906448364258 82.61979675292969 38.88801574707031 90.22760009765625 C 21.135562896728516 107.15325927734375 23.24646759033203 113.33939361572266 29.95522689819336 113.48255157470703" stroke-width="0.0" fill="rgb(15, 47, 187)" opacity="0.011377634" stroke="rgb(0, 0, 0)" stroke-opacity="1.0" stroke-linecap="round" stroke-linejoin="round"/>
    <path d="M 143.22166442871094 180.11053466796875 C 145.67422485351562 181.0908966064453 134.57455444335938 186.52774047851562 144.34481811523438 186.1368408203125 C 143.0399169921875 178.84788513183594 128.29432678222656 189.5553436279297 145.47708129882812 172.52743530273438 C 145.56553649902344 136.44375610351562 141.85720825195312 148.94032287597656 137.0711669921875 144.1765899658203 C 165.37538146972656 161.7814483642578 164.6050262451172 175.51544189453125 143.22166442871094 180.11053466796875" stroke-width="0.0" fill="rgb(22, 55, 207)" opacity="0.009527058" stroke="rgb(0, 0, 0)" stroke-opacity="1.0" stroke-linecap="round" stroke-linejoin="round"/>
    <path d="M 297.3229064941406 374.6560363769531 C 309.2918701171875 478.554443359375 268.7765808105469 493.64739990234375 170.08172607421875 461.30859375 C 199.33291625976562 381.2454833984375 187.30604553222656 374.0806579589844 197.8964385986328 388.5603332519531 C 194.89157104492188 395.33966064453125 209.13186645507812 401.8017272949219 218.4214324951172 374.8030090332031 C 210.1404266357422 392.1938781738281 217.7996368408203 403.5463562011719 297.3229064941406 374.6560363769531" stroke-width="0.0" fill="rgb(181, 123, 0)" opacity="0.99548316" stroke="rgb(0, 0, 0)" stroke-opacity="1.0" stroke-linecap="round" stroke-linejoin="round"/>
    <path d="M 40.096561431884766 216.3137969970703 C 68.99496459960938 204.8200225830078 55.841644287109375 250.42723083496094 35.70208740234375 232.74835205078125 C -8.036837577819824 222.19058227539062 -23.35524559020996 224.76168823242188 -37.719337463378906 176.6763458251953 C 19.566131591796875 158.1961212158203 54.12247848510742 160.2449188232422 28.623910903930664 200.29635620117188 C 34.8506965637207 186.23133850097656 11.222878456115723 213.3810272216797 40.096561431884766 216.3137969970703" stroke-width="0.0" fill="rgb(56, 70, 230)" opacity="0.0" stroke="rgb(0, 0, 0)" stroke-opacity="1.0" stroke-linecap="round" stroke-linejoin="round"/>
    <path d="M 60.114662170410156 28.496801376342773 C 45.73638916015625 65.05734252929688 64.99614715576172 106.26785278320312 69.29676055908203 75.47747039794922 C 52.30451583862305 60.65336227416992 40.25410842895508 61.4828987121582 35.10307312011719 38.04460525512695 C 64.79631042480469 52.561824798583984 73.81233978271484 46.26182556152344 89.29878997802734 24.78934097290039 C 107.79138946533203 3.1718897819519043 72.6675033569336 -20.24679946899414 60.114662170410156 28.496801376342773" stroke-width="0.0" fill="rgb(46, 71, 230)" opacity="0.0" stroke="rgb(0, 0, 0)" stroke-opacity="1.0" stroke-linecap="round" stroke-linejoin="round"/>
    <path d="M 91.35377502441406 181.15762329101562 C 100.0320816040039 241.46981811523438 81.89151000976562 223.63189697265625 34.62998580932617 222.447021484375 C 33.03651428222656 220.3729705810547 17.661943435668945 194.26718139648438 30.836097717285156 213.0765838623047 C 25.353416442871094 190.8240203857422 21.979795455932617 161.61634826660156 -4.290203094482422 158.2333984375 C 53.88002014160156 162.06149291992188 75.90924072265625 160.63829040527344 91.35377502441406 181.15762329101562" stroke-width="0.0" fill="rgb(30, 50, 230)" opacity="0.05246298" stroke="rgb(0, 0, 0)" stroke-opacity="1.0" stroke-linecap="round" stroke-linejoin="round"/>
    <path d="M 376.32916259765625 307.1953125 C 339.3031311035156 327.6025085449219 313.5845031738281 318.35565185546875 309.45501708984375 324.79254150390625 C 321.4823913574219 320.76092529296875 318.6058044433594 302.3154296875 277.1050720214844 320.02655029296875 C 206.44972229003906 291.04364013671875 189.9318084716797 257.2138366699219 266.0445556640625 238.7704620361328 C 336.0344543457031 296.17236328125 351.1341857910156 298.3729553222656 376.32916259765625 307.1953125" stroke-width="0.0" fill="rgb(255, 0, 255)" opacity="0.9876923" stroke="rgb(0, 0, 0)" stroke-opacity="1.0" stroke-linecap="round" stroke-linejoin="round"/>
    <path d="M 364.5139465332031 404.0234680175781 C 338.01190185546875 428.3406677246094 362.2672119140625 444.3727111816406 389.3434753417969 443.1594543457031 C 347.7975158691406 415.4311828613281 324.59771728515625 419.7772216796875 349.6339111328125 419.7159118652344 C 387.97027587890625 410.97906494140625 383.6464538574219 396.3918762207031 391.9266662597656 420.6075134277344 C 400.19989013671875 419.773681640625 384.3940734863281 421.17181396484375 364.5139465332031 404.0234680175781" stroke-width="0.0" fill="rgb(171, 57, 105)" opacity="0.015699588" stroke="rgb(0, 0, 0)" stroke-opacity="1.0" stroke-linecap="round" stroke-linejoin="round"/>
    <path d="M 358.6532897949219 391.0861511230469 C 361.078369140625 420.5591125488281 343.308349609375 427.7421569824219 345.251708984375 434.15545654296875 C 333.69415283203125 427.8078308105469 327.4088134765625 415.3863525390625 311.28118896484375 416.01361083984375 C 310.79931640625 405.0875549316406 331.9717712402344 408.4312438964844 334.0762023925781 414.5080261230469 C 330.11968994140625 405.40704345703125 344.6864318847656 412.456298828125 358.6532897949219 391.0861511230469" stroke-width="0.0" fill="rgb(103, 182, 43)" opacity="0.0022202325" stroke="rgb(0, 0, 0)" stroke-opacity="1.0" stroke-linecap="round" stroke-linejoin="round"/>
    <path d="M 533.405517578125 229.87356567382812 C 528.8877563476562 256.9284362792969 508.4230041503906 258.0766296386719 515.7686767578125 237.42039489746094 C 492.6034240722656 231.02955627441406 487.1855163574219 222.24172973632812 473.7623291015625 219.0380401611328 C 464.4598388671875 222.93565368652344 465.3883056640625 224.16221618652344 487.0335998535156 236.31256103515625 C 496.9761657714844 240.06614685058594 511.4563903808594 229.66806030273438 533.405517578125 229.87356567382812" stroke-width="0.0" fill="rgb(65, 35, 190)" opacity="0.023404617" stroke="rgb(0, 0, 0)" stroke-opacity="1.0" stroke-linecap="round" stroke-linejoin="round"/>
    <path d="M 407.3183288574219 141.7223663330078 C 430.36138916015625 179.77496337890625 467.66796875 172.2545623779297 455.71966552734375 153.63421630859375 C 422.8757629394531 142.2290496826172 418.9761657714844 118.6988754272461 404.3433532714844 127.80337524414062 C 392.9615478515625 133.43359375 387.3849792480469 114.48733520507812 403.4090881347656 119.60503387451172 C 455.359619140625 115.87076568603516 448.8153076171875 111.7706527709961 407.3183288574219 141.7223663330078" stroke-width="0.0" fill="rgb(106, 137, 0)" opacity="0.003800295" stroke="rgb(0, 0, 0)" stroke-opacity="1.0" stroke-linecap="round" stroke-linejoin="round"/>
  </g>
</svg>
