<?xml version="1.0" ?>
<svg xmlns="http://www.w3.org/2000/svg" version="1.1" width="512" height="512">
  <defs/>
  <g>
    <path d="M 365.68951416015625 484.6153564453125 C 338.496337890625 494.8658142089844 289.4215087890625 526.4153442382812 185.32066345214844 531.1196899414062 C 58.51084518432617 510.8304138183594 23.8795166015625 427.6922912597656 -1.3147679567337036 368.6193542480469 C -47.063899993896484 257.5658874511719 -4.6055521965026855 152.69732666015625 10.233059883117676 181.67608642578125 C 208.95263671875 288.7518310546875 262.7739562988281 200.40048217773438 365.68951416015625 484.6153564453125" stroke-width="0.0" fill="rgb(255, 235, 0)" opacity="1.0" stroke="rgb(0, 0, 0)" stroke-opacity="1.0" stroke-linecap="round" stroke-linejoin="round"/>
    <path d="M 335.0169982910156 69.1957015991211 C 169.70497131347656 50.667686462402344 82.92135620117188 133.1309814453125 88.2742919921875 190.804931640625 C -22.382240295410156 270.5804443359375 -9.822887420654297 202.93202209472656 13.507719039916992 122.65121459960938 C 38.86233139038086 74.23886108398438 84.93102264404297 25.178009033203125 147.12330627441406 -2.6091971397399902 C 244.78231811523438 -40.888362884521484 373.0196838378906 21.49933433532715 335.0169982910156 69.1957015991211" stroke-width="0.0" fill="rgb(255, 219, 0)" opacity="1.0" stroke="rgb(0, 0, 0)" stroke-opacity="1.0" stroke-linecap="round" stroke-linejoin="round"/>
    <path d="M 358.85333251953125 221.71800231933594 C 398.49041748046875 288.0726013183594 453.8626403808594 266.6322937011719 378.21746826171875 285.99932861328125 C 227.59707641601562 365.6191711425781 232.5009307861328 383.71295166015625 197.20668029785156 169.29534912109375 C 410.7013854980469 81.35134887695312 336.6738586425781 223.35824584960938 404.34649658203125 167.19740295410156 C 390.4854736328125 197.9420623779297 413.3525085449219 176.61660766601562 358.85333251953125 221.71800231933594" stroke-width="0.0" fill="rgb(156, 56, 2)" opacity="0.83659583" stroke="rgb(0, 0, 0)" stroke-opacity="1.0" stroke-linecap="round" stroke-linejoin="round"/>
    <path d="M 200.3711700439453 174.26336669921875 C 284.9026794433594 273.1167297363281 288.9629821777344 257.65234375 242.19671630859375 351.3873291015625 C 81.83822631835938 236.4086151123047 81.46868133544922 232.54978942871094 104.12228393554688 186.59217834472656 C 123.06914520263672 169.0325927734375 144.27838134765625 156.81234741210938 129.29269409179688 191.03268432617188 C 149.68148803710938 99.06048583984375 161.51597595214844 163.9486541748047 200.3711700439453 174.26336669921875" stroke-width="0.0" fill="rgb(113, 246, 23)" opacity="0.99958825" stroke="rgb(0, 0, 0)" stroke-opacity="1.0" stroke-linecap="round" stroke-linejoin="round"/>
    <path d="M 493.1582336425781 412.4476623535156 C 504.6764831542969 463.43695068359375 431.0371398925781 523.0714111328125 342.1265563964844 527.5908813476562 C 188.3114013671875 470.935791015625 171.46914672851562 467.77899169921875 294.5945129394531 422.3023376464844 C 231.84022521972656 230.5697784423828 282.6291198730469 213.58155822753906 412.2916564941406 268.1072082519531 C 533.150634765625 285.9210510253906 481.77032470703125 249.12640380859375 493.1582336425781 412.4476623535156" stroke-width="0.0" fill="rgb(153, 99, 0)" opacity="0.98022616" stroke="rgb(0, 0, 0)" stroke-opacity="1.0" stroke-linecap="round" stroke-linejoin="round"/>
    <path d="M 563.484375 210.6188201904297 C 537.024658203125 269.928955078125 543.44384765625 353.45587158203125 498.0547790527344 420.8601989746094 C 341.57879638671875 365.99456787109375 484.3333740234375 340.5987854003906 468.69342041015625 211.9001007080078 C 401.68267822265625 72.97801971435547 187.63101196289062 44.39262771606445 300.8594055175781 -35.774879455566406 C 487.2275695800781 -3.555555582046509 560.7716064453125 120.27816772460938 563.484375 210.6188201904297" stroke-width="0.0" fill="rgb(255, 223, 0)" opacity="0.97524655" stroke="rgb(0, 0, 0)" stroke-opacity="1.0" stroke-linecap="round" stroke-linejoin="round"/>
    <path d="M 340.8398132324219 242.19586181640625 C 307.4352722167969 356.34625244140625 396.4963684082031 439.8730163574219 369.48883056640625 432.71221923828125 C 257.3699951171875 312.268798828125 251.56077575683594 307.1814270019531 267.9726867675781 289.9393310546875 C 265.74530029296875 266.1766357421875 284.7047119140625 254.50250244140625 305.2411193847656 230.02601623535156 C 380.0464172363281 244.8941650390625 400.1066589355469 262.3055419921875 340.8398132324219 242.19586181640625" stroke-width="0.0" fill="rgb(167, 18, 49)" opacity="0.507814" stroke="rgb(0, 0, 0)" stroke-opacity="1.0" stroke-linecap="round" stroke-linejoin="round"/>
    <path d="M 388.75372314453125 215.31427001953125 C 364.08709716796875 207.76925659179688 358.0615234375 218.17723083496094 348.0593566894531 218.7428741455078 C 282.6884460449219 239.3610076904297 300.34588623046875 231.97605895996094 325.866455078125 209.94403076171875 C 316.3086853027344 158.37486267089844 263.9385986328125 156.9862823486328 400.5155334472656 107.98005676269531 C 415.7685852050781 222.14608764648438 400.5291442871094 230.70700073242188 388.75372314453125 215.31427001953125" stroke-width="0.0" fill="rgb(129, 252, 11)" opacity="0.9879172" stroke="rgb(0, 0, 0)" stroke-opacity="1.0" stroke-linecap="round" stroke-linejoin="round"/>
    <path d="M 318.1971435546875 194.0535888671875 C 191.3272247314453 326.1175537109375 309.6609191894531 417.2489013671875 224.38259887695312 300.18426513671875 C 367.6403503417969 171.46273803710938 219.30320739746094 379.0456237792969 235.23480224609375 295.70941162109375 C 221.14892578125 303.0280456542969 148.98948669433594 256.7898254394531 184.043212890625 251.3260040283203 C 298.56512451171875 282.5992431640625 204.1326446533203 195.74134826660156 318.1971435546875 194.0535888671875" stroke-width="0.0" fill="rgb(48, 110, 14)" opacity="0.34214687" stroke="rgb(0, 0, 0)" stroke-opacity="1.0" stroke-linecap="round" stroke-linejoin="round"/>
    <path d="M 465.09588623046875 91.8749008178711 C 561.7528686523438 217.454345703125 501.53265380859375 435.57958984375 415.9115905761719 447.2969970703125 C 328.73577880859375 437.52825927734375 269.1346740722656 385.6092529296875 313.79278564453125 324.171142578125 C 399.4604797363281 285.4335632324219 365.75445556640625 304.26666259765625 366.31463623046875 212.43264770507812 C 376.26104736328125 248.1796417236328 426.37060546875 242.74607849121094 465.09588623046875 91.8749008178711" stroke-width="0.0" fill="rgb(11, 19, 204)" opacity="0.99354243" stroke="rgb(0, 0, 0)" stroke-opacity="1.0" stroke-linecap="round" stroke-linejoin="round"/>
    <path d="M 243.22511291503906 421.8197021484375 C 106.04630279541016 469.8854675292969 126.68624877929688 386.0171203613281 246.39630126953125 504.71893310546875 C 134.27593994140625 491.7225646972656 50.349334716796875 409.3699951171875 34.757877349853516 301.19366455078125 C 13.906213760375977 211.9355010986328 75.94393920898438 34.23027038574219 128.9444122314453 263.0171813964844 C 259.28082275390625 284.4533996582031 265.9774475097656 332.7703857421875 243.22511291503906 421.8197021484375" stroke-width="0.0" fill="rgb(126, 58, 255)" opacity="1.0" stroke="rgb(0, 0, 0)" stroke-opacity="1.0" stroke-linecap="round" stroke-linejoin="round"/>
    <path d="M 491.744384765625 135.6572723388672 C 473.83453369140625 198.65086364746094 435.9134521484375 189.1745147705078 372.9986877441406 165.7405548095703 C 330.1001281738281 101.58940887451172 296.3269958496094 75.52969360351562 244.6383056640625 58.92259979248047 C 168.4912872314453 73.8772964477539 192.4189453125 88.31368255615234 246.65431213378906 16.98438262939453 C 351.2005920410156 0.3727322220802307 441.4173583984375 50.600440979003906 491.744384765625 135.6572723388672" stroke-width="0.0" fill="rgb(137, 63, 255)" opacity="0.9983461" stroke="rgb(0, 0, 0)" stroke-opacity="1.0" stroke-linecap="round" stroke-linejoin="round"/>
    <path d="M 311.30743408203125 410.8752136230469 C 287.1469421386719 433.6624450683594 241.3914337158203 455.8677978515625 171.7478485107422 451.71044921875 C 210.08322143554688 464.7453918457031 231.83799743652344 392.2574768066406 271.46826171875 429.6225891113281 C 246.44410705566406 431.50177001953125 243.89842224121094 391.86920166015625 261.51727294921875 362.6241455078125 C 298.75177001953125 166.00608825683594 267.9625244140625 293.81829833984375 311.30743408203125 410.8752136230469" stroke-width="0.0" fill="rgb(193, 27, 74)" opacity="0.18457595" stroke="rgb(0, 0, 0)" stroke-opacity="1.0" stroke-linecap="round" stroke-linejoin="round"/>
    <path d="M 437.891845703125 436.8559265136719 C 419.0979919433594 458.9720764160156 375.6828308105469 497.1714172363281 290.6360778808594 507.3818664550781 C 243.6668701171875 521.4837646484375 231.38710021972656 489.3640441894531 168.23001098632812 447.62158203125 C 384.13702392578125 446.724609375 427.5962219238281 449.74542236328125 424.5584411621094 442.438232421875 C 473.8140563964844 435.594482421875 511.1607666015625 435.3121032714844 437.891845703125 436.8559265136719" stroke-width="0.0" fill="rgb(5, 34, 193)" opacity="1.0" stroke="rgb(0, 0, 0)" stroke-opacity="1.0" stroke-linecap="round" stroke-linejoin="round"/>
    <path d="M 365.3115234375 28.170381546020508 C 288.0143737792969 -16.417774200439453 112.31590270996094 17.30707550048828 147.68301391601562 104.77167510986328 C 264.5929870605469 112.4928207397461 198.79498291015625 -36.39159393310547 117.46542358398438 88.53741455078125 C 113.63616943359375 79.17489624023438 223.12611389160156 -0.8837552666664124 164.94354248046875 69.06153869628906 C 253.7123260498047 111.3648681640625 131.5788116455078 139.53428649902344 365.3115234375 28.170381546020508" stroke-width="0.0" fill="rgb(127, 70, 254)" opacity="0.990272" stroke="rgb(0, 0, 0)" stroke-opacity="1.0" stroke-linecap="round" stroke-linejoin="round"/>
    <path d="M 310.00140380859375 151.28746032714844 C 335.5673522949219 168.80426025390625 301.3689270019531 209.85574340820312 422.08795166015625 189.4645233154297 C 384.1514892578125 113.77203369140625 297.6817626953125 43.995582580566406 248.81187438964844 84.99225616455078 C 196.67967224121094 220.8546142578125 268.9631652832031 199.1977081298828 304.62518310546875 154.57208251953125 C 291.10791015625 156.48451232910156 303.115234375 166.05551147460938 310.00140380859375 151.28746032714844" stroke-width="0.0" fill="rgb(119, 249, 23)" opacity="0.99761117" stroke="rgb(0, 0, 0)" stroke-opacity="1.0" stroke-linecap="round" stroke-linejoin="round"/>
    <path d="M 369.6515808105469 191.42796325683594 C 365.67767333984375 189.3148651123047 355.2332458496094 191.25157165527344 344.1316833496094 212.03085327148438 C 333.7962341308594 189.61036682128906 316.2740478515625 160.86898803710938 299.2683410644531 202.52618408203125 C 365.46136474609375 252.77194213867188 378.005126953125 262.1929931640625 405.003662109375 187.8343963623047 C 347.37713623046875 173.00413513183594 365.9677734375 181.81594848632812 369.6515808105469 191.42796325683594" stroke-width="0.0" fill="rgb(111, 226, 4)" opacity="0.49281698" stroke="rgb(0, 0, 0)" stroke-opacity="1.0" stroke-linecap="round" stroke-linejoin="round"/>
    <path d="M 425.0218505859375 178.1321563720703 C 432.5123596191406 209.23634338378906 427.28131103515625 206.2800750732422 426.7912902832031 278.9012145996094 C 412.6776428222656 339.91900634765625 313.9699401855469 323.72149658203125 292.48516845703125 289.0870361328125 C 376.0068054199219 174.6769561767578 349.2156066894531 100.88548278808594 391.35992431640625 122.23250579833984 C 447.8912353515625 217.88235473632812 439.54095458984375 178.48458862304688 425.0218505859375 178.1321563720703" stroke-width="0.0" fill="rgb(50, 218, 35)" opacity="1.0" stroke="rgb(0, 0, 0)" stroke-opacity="1.0" stroke-linecap="round" stroke-linejoin="round"/>
    <path d="M 321.56646728515625 150.13768005371094 C 305.48443603515625 182.96473693847656 287.62884521484375 207.46859741210938 261.56201171875 245.42547607421875 C 220.851806640625 237.9168243408203 222.3365020751953 205.31597900390625 197.5618133544922 155.2254638671875 C 269.77337646484375 155.46409606933594 302.7999572753906 178.68313598632812 301.191162109375 158.2716827392578 C 289.7997741699219 143.01715087890625 314.5478210449219 141.13107299804688 321.56646728515625 150.13768005371094" stroke-width="0.0" fill="rgb(116, 247, 31)" opacity="0.9974237" stroke="rgb(0, 0, 0)" stroke-opacity="1.0" stroke-linecap="round" stroke-linejoin="round"/>
    <path d="M 59.033329010009766 101.00455474853516 C 89.63611602783203 81.86971282958984 54.490882873535156 106.37989807128906 31.04871368408203 184.23963928222656 C 141.50146484375 276.6460266113281 104.15937805175781 244.86582946777344 137.6681671142578 212.07308959960938 C 201.30499267578125 180.31028747558594 226.88282775878906 146.7781219482422 196.55392456054688 22.834897994995117 C 82.92157745361328 66.63897705078125 77.25032043457031 130.6202392578125 59.033329010009766 101.00455474853516" stroke-width="0.0" fill="rgb(145, 56, 255)" opacity="1.0" stroke="rgb(0, 0, 0)" stroke-opacity="1.0" stroke-linecap="round" stroke-linejoin="round"/>
    <path d="M 313.5838317871094 242.71054077148438 C 293.887939453125 233.55502319335938 276.9064636230469 249.98402404785156 269.47479248046875 289.0740051269531 C 253.27618408203125 313.8915100097656 274.67755126953125 290.3346252441406 267.0896301269531 253.8629913330078 C 265.4598388671875 248.91893005371094 259.2243957519531 233.00161743164062 289.0278625488281 240.0023651123047 C 291.6106262207031 233.12649536132812 285.04595947265625 224.65017700195312 313.5838317871094 242.71054077148438" stroke-width="0.0" fill="rgb(89, 66, 45)" opacity="0.67457336" stroke="rgb(0, 0, 0)" stroke-opacity="1.0" stroke-linecap="round" stroke-linejoin="round"/>
    <path d="M 251.03021240234375 133.97219848632812 C 253.90577697753906 159.98870849609375 241.0135955810547 152.56344604492188 211.25624084472656 210.2655487060547 C 183.32681274414062 265.5622863769531 105.97466278076172 244.66787719726562 136.1035614013672 221.764404296875 C 162.25001525878906 126.10842895507812 188.13153076171875 82.5839614868164 225.5916748046875 93.17306518554688 C 272.568115234375 78.13744354248047 259.3773498535156 98.48228454589844 251.03021240234375 133.97219848632812" stroke-width="0.0" fill="rgb(134, 251, 20)" opacity="0.9978227" stroke="rgb(0, 0, 0)" stroke-opacity="1.0" stroke-linecap="round" stroke-linejoin="round"/>
    <path d="M 271.7812805175781 386.7287902832031 C 303.6252136230469 346.753173828125 267.9944763183594 332.0794982910156 295.1540832519531 383.4614562988281 C 268.3001403808594 385.174560546875 260.4299011230469 371.49554443359375 265.3804931640625 344.4607849121094 C 216.85794067382812 368.3036804199219 235.31185913085938 317.4947509765625 237.2353515625 290.0818176269531 C 254.4947052001953 362.7734375 249.9253692626953 386.6994323730469 271.7812805175781 386.7287902832031" stroke-width="0.0" fill="rgb(141, 93, 3)" opacity="0.021511123" stroke="rgb(0, 0, 0)" stroke-opacity="1.0" stroke-linecap="round" stroke-linejoin="round"/>
    <path d="M 307.3180847167969 148.37271118164062 C 386.2132873535156 228.08883666992188 327.89703369140625 228.59628295898438 317.25836181640625 269.00885009765625 C 326.6714782714844 252.13258361816406 336.4076232910156 240.80125427246094 319.18121337890625 243.96810913085938 C 312.8090515136719 239.1250457763672 294.4037780761719 275.4690246582031 269.4228515625 261.7942810058594 C 253.45425415039062 236.880126953125 250.88063049316406 207.47268676757812 307.3180847167969 148.37271118164062" stroke-width="0.0" fill="rgb(114, 251, 28)" opacity="1.0" stroke="rgb(0, 0, 0)" stroke-opacity="1.0" stroke-linecap="round" stroke-linejoin="round"/>
    <path d="M 537.8001098632812 101.94610595703125 C 527.1961669921875 149.02732849121094 521.172119140625 153.95411682128906 500.0608215332031 145.77239990234375 C 467.5267639160156 122.5416259765625 467.4049072265625 109.41536712646484 457.7158508300781 51.709190368652344 C 437.2045593261719 24.420536041259766 447.6824645996094 13.11252498626709 473.2176208496094 6.694462776184082 C 533.2918090820312 33.313777923583984 540.837646484375 34.87006759643555 537.8001098632812 101.94610595703125" stroke-width="0.0" fill="rgb(255, 232, 0)" opacity="1.0" stroke="rgb(0, 0, 0)" stroke-opacity="1.0" stroke-linecap="round" stroke-linejoin="round"/>
    <path d="M 127.35023498535156 474.40838623046875 C 131.40899658203125 530.1004638671875 110.40201568603516 526.5214233398438 45.646507263183594 536.7060546875 C 42.4721565246582 498.2938232421875 27.082468032836914 466.1900939941406 56.7923469543457 453.38287353515625 C 45.25025939941406 473.2685546875 33.4400749206543 448.0752258300781 48.204750061035156 415.39666748046875 C 80.9780044555664 432.0161437988281 100.40448760986328 434.2489013671875 127.35023498535156 474.40838623046875" stroke-width="0.0" fill="rgb(255, 222, 0)" opacity="0.9915149" stroke="rgb(0, 0, 0)" stroke-opacity="1.0" stroke-linecap="round" stroke-linejoin="round"/>
    <path d="M 268.9305419921875 412.82989501953125 C 255.20632934570312 446.9820861816406 263.0751647949219 413.1941223144531 220.65316772460938 447.9167785644531 C 240.43270874023438 445.3916320800781 231.81956481933594 444.3855285644531 229.5416717529297 423.44720458984375 C 258.1732482910156 403.4686279296875 264.6390380859375 397.7087707519531 265.0691223144531 365.4922180175781 C 289.0859375 368.06695556640625 283.44317626953125 336.1101379394531 268.9305419921875 412.82989501953125" stroke-width="0.0" fill="rgb(254, 123, 119)" opacity="0.038571082" stroke="rgb(0, 0, 0)" stroke-opacity="1.0" stroke-linecap="round" stroke-linejoin="round"/>
    <path d="M 77.05171966552734 447.8631896972656 C 58.319915771484375 501.30859375 39.18348693847656 500.4371643066406 47.23888397216797 512.9675903320312 C 12.151483535766602 483.326904296875 0.5531362891197205 474.03857421875 -10.326565742492676 471.0198974609375 C -33.01350021362305 425.92254638671875 -58.97654724121094 387.097900390625 9.080592155456543 368.5840148925781 C 58.98980712890625 383.89630126953125 88.50015258789062 418.66253662109375 77.05171966552734 447.8631896972656" stroke-width="0.0" fill="rgb(255, 222, 0)" opacity="1.0" stroke="rgb(0, 0, 0)" stroke-opacity="1.0" stroke-linecap="round" stroke-linejoin="round"/>
    <path d="M 541.8927612304688 425.44000244140625 C 533.1174926757812 511.4598388671875 532.705322265625 521.4187622070312 463.39990234375 544.4569702148438 C 424.6868591308594 531.6913452148438 408.4946594238281 521.8333129882812 443.510986328125 447.1995849609375 C 470.82080078125 414.0487976074219 473.5990905761719 394.8781433105469 500.6418762207031 380.126708984375 C 526.6649780273438 375.3748474121094 532.4149169921875 375.1587829589844 541.8927612304688 425.44000244140625" stroke-width="0.0" fill="rgb(87, 118, 0)" opacity="1.0" stroke="rgb(0, 0, 0)" stroke-opacity="1.0" stroke-linecap="round" stroke-linejoin="round"/>
    <path d="M 343.3228759765625 417.7166748046875 C 360.87042236328125 430.84368896484375 374.8165283203125 425.6979675292969 332.129150390625 427.7940368652344 C 310.56494140625 427.4674987792969 303.0462341308594 413.7236022949219 298.9041442871094 395.73809814453125 C 298.0627136230469 387.5833740234375 299.8243103027344 343.9559020996094 305.88037109375 357.3279724121094 C 346.4501037597656 369.4451904296875 339.9091796875 384.4889831542969 343.3228759765625 417.7166748046875" stroke-width="0.0" fill="rgb(0, 27, 212)" opacity="0.9900675" stroke="rgb(0, 0, 0)" stroke-opacity="1.0" stroke-linecap="round" stroke-linejoin="round"/>
    <path d="M 92.75760650634766 495.18084716796875 C 85.40785217285156 569.4580688476562 86.30502319335938 578.8200073242188 60.43071746826172 578.427490234375 C 2.5686471462249756 516.5128173828125 -4.220098972320557 511.42901611328125 -29.368375778198242 470.4666748046875 C -11.866374015808105 465.3666076660156 22.949073791503906 483.4777526855469 56.47169876098633 467.1778869628906 C 93.6121597290039 444.13592529296875 92.59527587890625 435.650390625 92.75760650634766 495.18084716796875" stroke-width="0.0" fill="rgb(255, 231, 0)" opacity="1.0" stroke="rgb(0, 0, 0)" stroke-opacity="1.0" stroke-linecap="round" stroke-linejoin="round"/>
    <path d="M 500.11669921875 260.7679748535156 C 519.4015502929688 283.6103515625 539.619384765625 235.54913330078125 504.8064880371094 241.8505096435547 C 475.66070556640625 233.1835479736328 470.6726989746094 211.86776733398438 456.04095458984375 200.39427185058594 C 419.9244384765625 182.548828125 447.5044860839844 146.75900268554688 499.8895568847656 147.38958740234375 C 514.6392211914062 201.77574157714844 490.43951416015625 224.99098205566406 500.11669921875 260.7679748535156" stroke-width="0.0" fill="rgb(156, 61, 255)" opacity="1.0" stroke="rgb(0, 0, 0)" stroke-opacity="1.0" stroke-linecap="round" stroke-linejoin="round"/>
    <path d="M 271.0316467285156 293.9107666015625 C 260.8695068359375 311.8882141113281 270.1767578125 282.3617248535156 272.21405029296875 282.7244873046875 C 253.9538116455078 342.54840087890625 247.44839477539062 325.849609375 211.04298400878906 296.9908142089844 C 190.16868591308594 281.2287902832031 165.29824829101562 267.2267150878906 244.05438232421875 298.42437744140625 C 282.81207275390625 285.3485412597656 260.8490905761719 267.63299560546875 271.0316467285156 293.9107666015625" stroke-width="0.0" fill="rgb(151, 54, 21)" opacity="0.9897424" stroke="rgb(0, 0, 0)" stroke-opacity="1.0" stroke-linecap="round" stroke-linejoin="round"/>
    <path d="M 420.0921325683594 165.96791076660156 C 451.5406494140625 193.41786193847656 438.4971923828125 209.32815551757812 413.80810546875 180.89901733398438 C 396.8736267089844 172.80197143554688 409.15472412109375 161.58705139160156 403.8622741699219 153.49571228027344 C 419.7684326171875 153.00537109375 407.37225341796875 147.36734008789062 386.11700439453125 145.37599182128906 C 396.1054992675781 155.5662384033203 415.3729248046875 151.72364807128906 420.0921325683594 165.96791076660156" stroke-width="0.0" fill="rgb(8, 88, 143)" opacity="0.7324906" stroke="rgb(0, 0, 0)" stroke-opacity="1.0" stroke-linecap="round" stroke-linejoin="round"/>
    <path d="M 477.7217102050781 477.6058654785156 C 477.0765686035156 558.1690673828125 481.3471374511719 558.593994140625 417.050537109375 544.9832153320312 C 392.4951477050781 534.158203125 378.75115966796875 506.2955322265625 391.2342529296875 474.88616943359375 C 427.2317810058594 478.9015808105469 417.8833923339844 451.15625 457.3678894042969 425.00299072265625 C 483.6131896972656 436.6273498535156 472.8479919433594 446.42437744140625 477.7217102050781 477.6058654785156" stroke-width="0.0" fill="rgb(97, 136, 0)" opacity="0.9999989" stroke="rgb(0, 0, 0)" stroke-opacity="1.0" stroke-linecap="round" stroke-linejoin="round"/>
    <path d="M 234.62619018554688 90.41381072998047 C 221.66702270507812 94.44662475585938 207.81246948242188 84.25830078125 215.39617919921875 96.7434310913086 C 210.1500244140625 116.42095947265625 179.07284545898438 92.16770935058594 193.4061737060547 104.73078155517578 C 194.13339233398438 100.28736877441406 203.63023376464844 102.61263275146484 196.06491088867188 95.70561981201172 C 165.47779846191406 67.65963745117188 191.2985382080078 76.13243103027344 234.62619018554688 90.41381072998047" stroke-width="0.0" fill="rgb(127, 198, 40)" opacity="0.0009863009" stroke="rgb(0, 0, 0)" stroke-opacity="1.0" stroke-linecap="round" stroke-linejoin="round"/>
    <path d="M 463.013671875 -7.643712043762207 C 465.7333984375 13.354843139648438 474.1428527832031 29.789175033569336 470.5033264160156 26.443254470825195 C 441.6729431152344 36.24443817138672 426.8464050292969 29.72437286376953 411.5102233886719 46.11315155029297 C 401.8323059082031 3.5926942825317383 408.5257873535156 -20.523666381835938 430.6458435058594 -32.08137130737305 C 475.2845764160156 -15.137412071228027 483.57513427734375 -9.005395889282227 463.013671875 -7.643712043762207" stroke-width="0.0" fill="rgb(255, 230, 1)" opacity="0.8049062" stroke="rgb(0, 0, 0)" stroke-opacity="1.0" stroke-linecap="round" stroke-linejoin="round"/>
    <path d="M 529.980224609375 63.23430252075195 C 513.336669921875 79.53856658935547 483.310546875 59.530277252197266 445.9755554199219 37.853233337402344 C 461.9266662597656 31.483963012695312 458.1669616699219 46.28026580810547 421.4277648925781 29.1745662689209 C 410.7527160644531 -34.57582473754883 424.8545227050781 -55.88020324707031 459.40191650390625 -59.794776916503906 C 522.9347534179688 -17.051258087158203 530.8719482421875 -12.412399291992188 529.980224609375 63.23430252075195" stroke-width="0.0" fill="rgb(255, 229, 0)" opacity="1.0" stroke="rgb(0, 0, 0)" stroke-opacity="1.0" stroke-linecap="round" stroke-linejoin="round"/>
    <path d="M 168.6321258544922 427.0843505859375 C 170.48440551757812 445.4655456542969 168.3179168701172 462.8103332519531 173.12249755859375 447.7458190917969 C 161.67181396484375 456.10125732421875 153.2633514404297 457.0386657714844 148.61074829101562 442.37725830078125 C 182.09141540527344 452.4035339355469 171.70655822753906 430.9654541015625 175.26416015625 432.3001403808594 C 185.4866485595703 426.1194152832031 211.81552124023438 427.66363525390625 168.6321258544922 427.0843505859375" stroke-width="0.0" fill="rgb(108, 119, 189)" opacity="0.309128" stroke="rgb(0, 0, 0)" stroke-opacity="1.0" stroke-linecap="round" stroke-linejoin="round"/>
    <path d="M 387.76416015625 250.03817749023438 C 382.00482177734375 263.1302490234375 381.85333251953125 268.5533142089844 366.0731506347656 278.1478271484375 C 316.7432556152344 288.55743408203125 294.65203857421875 264.0028381347656 304.8914794921875 208.26759338378906 C 309.0905456542969 199.5041046142578 319.41925048828125 209.54124450683594 326.4541320800781 177.82774353027344 C 372.0093078613281 165.7901611328125 386.2988586425781 194.36045837402344 387.76416015625 250.03817749023438" stroke-width="0.0" fill="rgb(125, 242, 33)" opacity="1.0" stroke="rgb(0, 0, 0)" stroke-opacity="1.0" stroke-linecap="round" stroke-linejoin="round"/>
    <path d="M 177.22091674804688 236.01393127441406 C 191.9573211669922 271.94000244140625 209.13880920410156 290.0282287597656 158.2006378173828 298.6663513183594 C 147.19192504882812 292.80572509765625 136.1206512451172 280.59417724609375 130.5843963623047 259.1064453125 C 135.49032592773438 230.35501098632812 179.45489501953125 243.3020782470703 173.79856872558594 240.8644561767578 C 160.31973266601562 252.47914123535156 184.4363250732422 251.62599182128906 177.22091674804688 236.01393127441406" stroke-width="0.0" fill="rgb(29, 169, 0)" opacity="0.96772" stroke="rgb(0, 0, 0)" stroke-opacity="1.0" stroke-linecap="round" stroke-linejoin="round"/>
    <path d="M 242.27023315429688 437.8517761230469 C 211.29934692382812 444.1430358886719 213.78372192382812 441.86907958984375 155.08009338378906 447.21807861328125 C 133.2745819091797 447.5562438964844 116.73147583007812 444.3932800292969 142.81300354003906 437.2751770019531 C 172.34408569335938 437.11248779296875 194.74118041992188 439.2158203125 190.69622802734375 448.5335693359375 C 165.80752563476562 443.7962646484375 213.50892639160156 434.68487548828125 242.27023315429688 437.8517761230469" stroke-width="0.0" fill="rgb(248, 171, 5)" opacity="0.8706537" stroke="rgb(0, 0, 0)" stroke-opacity="1.0" stroke-linecap="round" stroke-linejoin="round"/>
    <path d="M 207.76248168945312 259.1755065917969 C 220.88111877441406 281.2854309082031 222.4637451171875 317.1710205078125 166.39942932128906 314.3330383300781 C 137.19976806640625 278.04833984375 118.02629852294922 284.35577392578125 120.37517547607422 259.0304870605469 C 135.22158813476562 218.76327514648438 196.85183715820312 227.5213165283203 195.61883544921875 229.6711883544922 C 199.33396911621094 235.7432861328125 201.46328735351562 243.92079162597656 207.76248168945312 259.1755065917969" stroke-width="0.0" fill="rgb(115, 255, 11)" opacity="1.0" stroke="rgb(0, 0, 0)" stroke-opacity="1.0" stroke-linecap="round" stroke-linejoin="round"/>
    <path d="M 207.2514190673828 70.5613784790039 C 213.72796630859375 97.76326751708984 210.86973571777344 109.57162475585938 196.6520233154297 102.58868408203125 C 211.23385620117188 91.38858032226562 220.11878967285156 101.76417541503906 196.49484252929688 115.07218933105469 C 200.96974182128906 95.8229751586914 205.5182342529297 88.36739349365234 209.51551818847656 99.70179748535156 C 196.13853454589844 110.05671691894531 210.1924285888672 111.70475769042969 207.2514190673828 70.5613784790039" stroke-width="0.0" fill="rgb(196, 223, 54)" opacity="0.031115914" stroke="rgb(0, 0, 0)" stroke-opacity="1.0" stroke-linecap="round" stroke-linejoin="round"/>
    <path d="M 76.6745834350586 99.2340087890625 C 76.0077133178711 126.16411590576172 49.88343811035156 145.4211883544922 38.01287078857422 194.88792419433594 C -26.399791717529297 197.54620361328125 -24.26681137084961 172.0901641845703 -33.28542709350586 117.9642105102539 C -29.027585983276367 41.077484130859375 -49.24778366088867 -4.78916597366333 46.3837890625 -8.902350425720215 C 73.70643615722656 44.85297775268555 57.559322357177734 79.4920883178711 76.6745834350586 99.2340087890625" stroke-width="0.0" fill="rgb(255, 219, 0)" opacity="1.0" stroke="rgb(0, 0, 0)" stroke-opacity="1.0" stroke-linecap="round" stroke-linejoin="round"/>
    <path d="M 355.4366760253906 96.01614379882812 C 359.5207824707031 101.79409790039062 377.2459716796875 113.4294204711914 389.9283447265625 140.79730224609375 C 367.67474365234375 115.35743713378906 355.3464660644531 106.88678741455078 350.1948547363281 101.93601989746094 C 323.80267333984375 94.67859649658203 329.3963623046875 82.0047607421875 361.835205078125 95.68258666992188 C 370.4438171386719 117.30815887451172 378.9543151855469 120.62001037597656 355.4366760253906 96.01614379882812" stroke-width="0.0" fill="rgb(53, 189, 98)" opacity="0.09868402" stroke="rgb(0, 0, 0)" stroke-opacity="1.0" stroke-linecap="round" stroke-linejoin="round"/>
    <path d="M 64.49990844726562 453.7680969238281 C 63.953060150146484 481.75689697265625 28.56928253173828 487.52618408203125 26.2860164642334 463.44256591796875 C 26.464696884155273 453.2839050292969 18.158367156982422 464.632080078125 44.15312194824219 460.06329345703125 C 73.5763168334961 456.3031311035156 79.03079223632812 477.37213134765625 41.691749572753906 457.7621765136719 C 52.30905532836914 458.1813659667969 62.599552154541016 451.9068298339844 64.49990844726562 453.7680969238281" stroke-width="0.0" fill="rgb(193, 253, 53)" opacity="0.0" stroke="rgb(0, 0, 0)" stroke-opacity="1.0" stroke-linecap="round" stroke-linejoin="round"/>
    <path d="M 175.13746643066406 265.260009765625 C 161.19100952148438 284.2677917480469 134.36680603027344 260.6595153808594 147.46128845214844 272.2504577636719 C 124.36846923828125 274.8414611816406 120.82134246826172 263.4966125488281 129.12307739257812 224.05288696289062 C 127.65518188476562 216.6536102294922 125.68241119384766 219.66773986816406 121.18893432617188 227.7391815185547 C 167.54598999023438 215.5724639892578 182.43603515625 194.9164581298828 175.13746643066406 265.260009765625" stroke-width="0.0" fill="rgb(124, 251, 4)" opacity="0.7828101" stroke="rgb(0, 0, 0)" stroke-opacity="1.0" stroke-linecap="round" stroke-linejoin="round"/>
    <path d="M 312.7486877441406 -8.389544486999512 C 330.04388427734375 5.491078853607178 328.4664611816406 3.7227983474731445 325.12353515625 17.67665672302246 C 283.3899230957031 36.97780990600586 274.9095764160156 8.74132251739502 261.89788818359375 -24.569902420043945 C 243.78575134277344 -17.912853240966797 240.03189086914062 -25.259864807128906 282.84033203125 -21.67406463623047 C 296.5845947265625 -15.53223991394043 303.459716796875 -12.198738098144531 312.7486877441406 -8.389544486999512" stroke-width="0.0" fill="rgb(140, 133, 112)" opacity="0.0" stroke="rgb(0, 0, 0)" stroke-opacity="1.0" stroke-linecap="round" stroke-linejoin="round"/>
    <path d="M 535.9556274414062 265.6694641113281 C 557.2316284179688 279.1226806640625 538.3059692382812 290.8856506347656 485.39593505859375 291.3439025878906 C 484.96392822265625 252.80462646484375 504.6897277832031 236.2706756591797 503.5120849609375 237.9976348876953 C 491.02716064453125 264.784423828125 492.2311096191406 257.5390319824219 523.7125854492188 253.9185333251953 C 522.1936645507812 235.6630096435547 527.7783813476562 244.8094024658203 535.9556274414062 265.6694641113281" stroke-width="0.0" fill="rgb(1, 71, 105)" opacity="0.07476432" stroke="rgb(0, 0, 0)" stroke-opacity="1.0" stroke-linecap="round" stroke-linejoin="round"/>
    <path d="M 252.3992462158203 413.3340759277344 C 250.64950561523438 391.6744689941406 251.88589477539062 403.22442626953125 263.0982971191406 391.09808349609375 C 268.1766052246094 409.1310729980469 236.70468139648438 414.8061828613281 239.1538848876953 431.83648681640625 C 248.38880920410156 393.9175720214844 252.9167022705078 389.99359130859375 257.6398620605469 391.3119201660156 C 254.39540100097656 385.0839538574219 252.76766967773438 403.6861877441406 252.3992462158203 413.3340759277344" stroke-width="0.0" fill="rgb(196, 209, 0)" opacity="0.086818784" stroke="rgb(0, 0, 0)" stroke-opacity="1.0" stroke-linecap="round" stroke-linejoin="round"/>
    <path d="M 96.09223175048828 89.74298095703125 C 90.51898956298828 123.27493286132812 95.32108306884766 100.41337585449219 86.284912109375 105.05392456054688 C 84.17245483398438 97.65206909179688 55.371971130371094 83.77734375 54.26805114746094 90.52629852294922 C 50.842105865478516 110.1597671508789 61.982139587402344 103.99508666992188 62.33161163330078 88.33193969726562 C 45.67115020751953 88.61249542236328 62.33152770996094 101.27375030517578 96.09223175048828 89.74298095703125" stroke-width="0.0" fill="rgb(85, 236, 143)" opacity="0.024024596" stroke="rgb(0, 0, 0)" stroke-opacity="1.0" stroke-linecap="round" stroke-linejoin="round"/>
    <path d="M 466.7097473144531 265.4684143066406 C 462.9761962890625 241.4169158935547 457.2924499511719 251.44363403320312 450.5040588378906 278.7069396972656 C 436.1578063964844 247.59954833984375 462.89752197265625 238.69007873535156 430.3716735839844 215.054443359375 C 437.66876220703125 170.68125915527344 440.80731201171875 138.83970642089844 449.0247497558594 211.840087890625 C 401.80902099609375 252.5037078857422 424.4190368652344 281.7837829589844 466.7097473144531 265.4684143066406" stroke-width="0.0" fill="rgb(0, 93, 154)" opacity="0.0061924895" stroke="rgb(0, 0, 0)" stroke-opacity="1.0" stroke-linecap="round" stroke-linejoin="round"/>
    <path d="M 345.5186462402344 399.08453369140625 C 343.9665832519531 423.324951171875 360.617919921875 415.5080871582031 357.8506774902344 392.42913818359375 C 355.6424255371094 387.8460388183594 334.1688232421875 379.22332763671875 313.66864013671875 368.4173278808594 C 314.1974792480469 375.6633605957031 320.2738037109375 377.47613525390625 337.20635986328125 376.3153381347656 C 355.1955871582031 373.8678894042969 363.3699645996094 373.314453125 345.5186462402344 399.08453369140625" stroke-width="0.0" fill="rgb(2, 93, 138)" opacity="0.0" stroke="rgb(0, 0, 0)" stroke-opacity="1.0" stroke-linecap="round" stroke-linejoin="round"/>
    <path d="M 359.3714294433594 169.1717987060547 C 388.5010986328125 200.01026916503906 392.3080139160156 208.75885009765625 393.18731689453125 221.02822875976562 C 388.75537109375 215.82498168945312 361.0075988769531 206.9219970703125 364.9598693847656 203.89791870117188 C 361.1972961425781 179.85317993164062 353.3348693847656 171.2569580078125 348.8867492675781 173.46469116210938 C 376.8954162597656 177.54896545410156 376.0647888183594 180.87864685058594 359.3714294433594 169.1717987060547" stroke-width="0.0" fill="rgb(67, 231, 10)" opacity="0.045299113" stroke="rgb(0, 0, 0)" stroke-opacity="1.0" stroke-linecap="round" stroke-linejoin="round"/>
    <path d="M 82.85100555419922 453.3241271972656 C 99.63306427001953 453.3651123046875 98.29167938232422 456.7530517578125 86.81390380859375 449.17041015625 C 86.80699157714844 457.9239196777344 90.785888671875 439.3963317871094 82.60774993896484 429.0271911621094 C 67.7457275390625 436.84136962890625 62.10086441040039 431.5014343261719 73.34375762939453 426.2320251464844 C 99.34469604492188 432.4075927734375 96.99645233154297 440.15020751953125 82.85100555419922 453.3241271972656" stroke-width="0.0" fill="rgb(129, 181, 45)" opacity="0.0" stroke="rgb(0, 0, 0)" stroke-opacity="1.0" stroke-linecap="round" stroke-linejoin="round"/>
    <path d="M 105.302490234375 451.4619445800781 C 130.04917907714844 472.0538330078125 130.12063598632812 477.4530334472656 95.54693603515625 478.0768127441406 C 95.74410247802734 460.5484313964844 60.72978973388672 458.8389892578125 59.50983810424805 441.1603088378906 C 59.300960540771484 443.4669189453125 68.32327270507812 447.23046875 91.782958984375 439.7568664550781 C 90.09054565429688 459.0275573730469 91.96082305908203 449.66326904296875 105.302490234375 451.4619445800781" stroke-width="0.0" fill="rgb(156, 248, 0)" opacity="0.0" stroke="rgb(0, 0, 0)" stroke-opacity="1.0" stroke-linecap="round" stroke-linejoin="round"/>
    <path d="M 461.626708984375 86.43419647216797 C 459.1524963378906 81.34761810302734 431.45660400390625 87.56838989257812 440.10675048828125 71.0556869506836 C 419.0379333496094 76.9742202758789 409.960205078125 68.76407623291016 421.71844482421875 40.19314956665039 C 414.794189453125 27.810867309570312 402.0240783691406 13.266434669494629 464.0892639160156 25.215452194213867 C 450.3771057128906 75.11927795410156 451.9071044921875 88.56292724609375 461.626708984375 86.43419647216797" stroke-width="0.0" fill="rgb(255, 217, 40)" opacity="0.033486124" stroke="rgb(0, 0, 0)" stroke-opacity="1.0" stroke-linecap="round" stroke-linejoin="round"/>
    <path d="M 300.443603515625 177.62120056152344 C 278.19439697265625 156.8008575439453 285.4810485839844 135.34410095214844 302.00335693359375 137.8010711669922 C 298.5684814453125 180.98959350585938 296.61993408203125 177.67239379882812 280.00042724609375 173.67774963378906 C 272.7177734375 169.39730834960938 280.12664794921875 150.48883056640625 306.0291442871094 144.72512817382812 C 307.2300720214844 145.21453857421875 314.5082092285156 158.83303833007812 300.443603515625 177.62120056152344" stroke-width="0.0" fill="rgb(167, 207, 63)" opacity="0.05319337" stroke="rgb(0, 0, 0)" stroke-opacity="1.0" stroke-linecap="round" stroke-linejoin="round"/>
    <path d="M 161.36703491210938 25.843305587768555 C 147.5198516845703 40.61375427246094 141.63172912597656 44.32878494262695 129.85357666015625 50.70052719116211 C 126.24060821533203 59.86207580566406 113.81841278076172 51.41755294799805 43.15687561035156 27.72892189025879 C 40.12354278564453 -37.42107009887695 65.03840637207031 -25.07143211364746 130.07766723632812 -9.784039497375488 C 171.1029052734375 -9.451212882995605 164.6331329345703 -6.016777038574219 161.36703491210938 25.843305587768555" stroke-width="0.0" fill="rgb(255, 220, 0)" opacity="1.0" stroke="rgb(0, 0, 0)" stroke-opacity="1.0" stroke-linecap="round" stroke-linejoin="round"/>
    <path d="M 185.0548553466797 375.998779296875 C 208.7108612060547 360.3774719238281 195.10922241210938 357.66259765625 189.89710998535156 376.6326599121094 C 175.13226318359375 349.1712341308594 157.44183349609375 356.8222351074219 175.73915100097656 335.77166748046875 C 178.72857666015625 355.4555969238281 191.375 350.73370361328125 183.53338623046875 326.1802978515625 C 172.41363525390625 339.0855712890625 185.33815002441406 355.7147521972656 185.0548553466797 375.998779296875" stroke-width="0.0" fill="rgb(80, 101, 255)" opacity="0.0" stroke="rgb(0, 0, 0)" stroke-opacity="1.0" stroke-linecap="round" stroke-linejoin="round"/>
    <path d="M 32.01578140258789 331.9189758300781 C 46.59940719604492 319.9197082519531 25.335983276367188 320.4914245605469 36.009246826171875 332.42999267578125 C 36.037864685058594 361.3136901855469 0.5411677956581116 359.2763366699219 -8.831982612609863 342.75732421875 C -21.131174087524414 273.3789978027344 -5.276388645172119 282.8040771484375 19.991764068603516 298.0957336425781 C 30.7951717376709 310.5027160644531 41.005550384521484 326.78167724609375 32.01578140258789 331.9189758300781" stroke-width="0.0" fill="rgb(255, 225, 0)" opacity="0.57337034" stroke="rgb(0, 0, 0)" stroke-opacity="1.0" stroke-linecap="round" stroke-linejoin="round"/>
    <path d="M 439.3553771972656 434.5439758300781 C 412.6563720703125 431.6260070800781 413.54119873046875 432.9331970214844 412.0356140136719 465.97027587890625 C 397.3052062988281 471.38934326171875 400.7248840332031 441.4186706542969 398.5586853027344 413.6179504394531 C 375.10760498046875 428.5455017089844 369.82623291015625 439.9549255371094 409.1971740722656 420.66241455078125 C 412.301025390625 449.2081604003906 422.8377990722656 441.86334228515625 439.3553771972656 434.5439758300781" stroke-width="0.0" fill="rgb(1, 77, 101)" opacity="0.07468243" stroke="rgb(0, 0, 0)" stroke-opacity="1.0" stroke-linecap="round" stroke-linejoin="round"/>
    <path d="M 105.1815414428711 254.73902893066406 C 135.66854858398438 300.0411071777344 148.8843994140625 317.9812316894531 156.25958251953125 283.5880126953125 C 144.99412536621094 272.55694580078125 119.70641326904297 284.6507263183594 107.77738952636719 277.2380065917969 C 131.541015625 280.8741149902344 138.22390747070312 269.5341491699219 132.25653076171875 250.7245330810547 C 127.54042053222656 260.8726501464844 138.3838348388672 244.1078338623047 105.1815414428711 254.73902893066406" stroke-width="0.0" fill="rgb(105, 133, 174)" opacity="0.083825454" stroke="rgb(0, 0, 0)" stroke-opacity="1.0" stroke-linecap="round" stroke-linejoin="round"/>
  </g>
</svg>
