<?xml version="1.0" ?>
<svg xmlns="http://www.w3.org/2000/svg" version="1.1" width="512" height="512">
  <defs/>
  <g>
    <path d="M 524.1552124023438 439.4219665527344 C 442.6790771484375 459.05712890625 397.1961364746094 578.6070556640625 511.3233337402344 577.6553955078125 C 565.47509765625 421.6086730957031 516.4096069335938 445.4062805175781 491.834228515625 453.41741943359375 C 460.0838317871094 470.3744201660156 456.1312561035156 429.2908020019531 491.3627624511719 434.55364990234375 C 527.9463500976562 430.5731506347656 552.3781127929688 426.84423828125 524.1552124023438 439.4219665527344" stroke-width="0.0" fill="rgb(3, 31, 65)" opacity="0.95546174" stroke="rgb(0, 0, 0)" stroke-opacity="1.0" stroke-linecap="round" stroke-linejoin="round"/>
    <path d="M 257.5638427734375 527.45556640625 C 251.03724670410156 552.4686279296875 166.73724365234375 584.4716796875 81.3430404663086 488.0860900878906 C -7.5009050369262695 444.4382019042969 86.11170196533203 457.1666259765625 -104.50249481201172 410.1788024902344 C 36.58567428588867 204.7497100830078 -47.54963302612305 276.91168212890625 -30.338808059692383 189.83973693847656 C 114.44839477539062 70.3061752319336 223.8930206298828 198.6118927001953 257.5638427734375 527.45556640625" stroke-width="0.0" fill="rgb(156, 156, 73)" opacity="0.72865295" stroke="rgb(0, 0, 0)" stroke-opacity="1.0" stroke-linecap="round" stroke-linejoin="round"/>
    <path d="M 424.8463439941406 133.21072387695312 C 443.8727111816406 294.7584533691406 394.64801025390625 320.9681091308594 259.7492980957031 337.66070556640625 C 115.12097930908203 319.35235595703125 78.19401550292969 296.3830871582031 227.08372497558594 54.70856857299805 C 113.7030029296875 40.98755645751953 147.1324462890625 -7.0181756019592285 406.81207275390625 -7.993555545806885 C 409.80718994140625 116.83882141113281 446.7078857421875 45.820613861083984 424.8463439941406 133.21072387695312" stroke-width="0.0" fill="rgb(108, 255, 0)" opacity="1.0" stroke="rgb(0, 0, 0)" stroke-opacity="1.0" stroke-linecap="round" stroke-linejoin="round"/>
    <path d="M 365.7342834472656 154.0842742919922 C 414.5184326171875 363.5609130859375 290.4500732421875 397.0686340332031 149.00921630859375 324.1727600097656 C 19.703350067138672 217.64598083496094 -26.925065994262695 301.9005126953125 54.17747497558594 175.16033935546875 C -8.201940536499023 26.989707946777344 102.38475036621094 43.26608657836914 97.82474517822266 -17.442201614379883 C 216.78323364257812 -26.9544677734375 267.04559326171875 0.9862170219421387 365.7342834472656 154.0842742919922" stroke-width="0.0" fill="rgb(215, 154, 182)" opacity="0.98259" stroke="rgb(0, 0, 0)" stroke-opacity="1.0" stroke-linecap="round" stroke-linejoin="round"/>
    <path d="M 473.12481689453125 395.03753662109375 C 377.4701843261719 500.9929504394531 373.3968200683594 307.144775390625 449.0684509277344 475.61065673828125 C 239.99911499023438 516.8167114257812 333.8916931152344 512.0702514648438 310.85235595703125 423.8047180175781 C 225.61837768554688 229.0816650390625 247.64637756347656 277.4041748046875 280.8671875 185.54977416992188 C 428.4004821777344 110.26290893554688 561.7642822265625 177.7180633544922 473.12481689453125 395.03753662109375" stroke-width="0.0" fill="rgb(194, 135, 173)" opacity="0.98381776" stroke="rgb(0, 0, 0)" stroke-opacity="1.0" stroke-linecap="round" stroke-linejoin="round"/>
    <path d="M 526.2894287109375 203.5557861328125 C 550.696533203125 312.7895812988281 484.2604675292969 236.5164031982422 589.8299560546875 363.2579040527344 C 482.0292053222656 432.6332702636719 278.2059326171875 321.0500183105469 475.79644775390625 188.37196350097656 C 344.8261413574219 166.53138732910156 402.65264892578125 148.09249877929688 433.06207275390625 128.555908203125 C 461.4953918457031 183.95362854003906 498.50360107421875 153.87789916992188 526.2894287109375 203.5557861328125" stroke-width="0.0" fill="rgb(9, 76, 33)" opacity="0.9824082" stroke="rgb(0, 0, 0)" stroke-opacity="1.0" stroke-linecap="round" stroke-linejoin="round"/>
    <path d="M 425.25006103515625 203.29412841796875 C 306.78619384765625 258.79168701171875 303.44952392578125 258.4930419921875 272.9426574707031 279.7305908203125 C 242.48248291015625 268.8112487792969 307.635498046875 313.2953186035156 41.450077056884766 202.35321044921875 C 331.13958740234375 184.26182556152344 212.66957092285156 276.169677734375 272.5957336425781 222.506103515625 C 356.4906005859375 169.5725860595703 466.7711486816406 129.72140502929688 425.25006103515625 203.29412841796875" stroke-width="0.0" fill="rgb(132, 255, 0)" opacity="1.0" stroke="rgb(0, 0, 0)" stroke-opacity="1.0" stroke-linecap="round" stroke-linejoin="round"/>
    <path d="M 389.9019470214844 185.11724853515625 C 398.03106689453125 202.05552673339844 363.1814270019531 194.10842895507812 340.81103515625 213.34352111816406 C 292.2872009277344 230.61920166015625 337.8060302734375 210.57676696777344 275.6833190917969 204.71575927734375 C 322.5190734863281 117.41218566894531 258.904296875 224.76162719726562 379.0588073730469 142.19747924804688 C 392.757568359375 187.19366455078125 513.26416015625 214.84951782226562 389.9019470214844 185.11724853515625" stroke-width="0.0" fill="rgb(0, 4, 74)" opacity="0.9879295" stroke="rgb(0, 0, 0)" stroke-opacity="1.0" stroke-linecap="round" stroke-linejoin="round"/>
    <path d="M 308.0104675292969 272.9620361328125 C 285.1996154785156 290.8564147949219 294.4546813964844 270.3793640136719 269.7421569824219 246.37811279296875 C 260.07171630859375 231.91561889648438 227.77606201171875 236.0771942138672 157.84152221679688 200.287841796875 C 226.22543334960938 179.9034423828125 137.12745666503906 212.73406982421875 209.74526977539062 202.83311462402344 C 255.34182739257812 210.24407958984375 263.0104064941406 258.2778625488281 308.0104675292969 272.9620361328125" stroke-width="0.0" fill="rgb(207, 165, 176)" opacity="0.88768756" stroke="rgb(0, 0, 0)" stroke-opacity="1.0" stroke-linecap="round" stroke-linejoin="round"/>
    <path d="M 456.9482116699219 225.3720703125 C 298.1801452636719 298.0453796386719 574.00341796875 225.6166229248047 463.74749755859375 361.1630859375 C 210.01608276367188 354.7615051269531 235.71702575683594 372.64593505859375 232.6139678955078 356.6828918457031 C 368.99359130859375 245.19667053222656 395.313720703125 253.76458740234375 395.0508728027344 257.8466491699219 C 393.8999938964844 253.63328552246094 463.6429138183594 220.70384216308594 456.9482116699219 225.3720703125" stroke-width="0.0" fill="rgb(0, 67, 30)" opacity="0.8378359" stroke="rgb(0, 0, 0)" stroke-opacity="1.0" stroke-linecap="round" stroke-linejoin="round"/>
    <path d="M 164.4450225830078 67.54743194580078 C 247.560302734375 54.293216705322266 244.12831115722656 122.7518310546875 185.56561279296875 109.01252746582031 C 71.20404815673828 172.4130401611328 -92.18814849853516 326.7847595214844 11.371809005737305 3.858980417251587 C 312.0718078613281 55.6106071472168 243.0769500732422 182.9193572998047 156.1525421142578 24.0307674407959 C 366.13824462890625 -60.0670280456543 224.69845581054688 29.811309814453125 164.4450225830078 67.54743194580078" stroke-width="0.0" fill="rgb(103, 255, 0)" opacity="1.0" stroke="rgb(0, 0, 0)" stroke-opacity="1.0" stroke-linecap="round" stroke-linejoin="round"/>
    <path d="M 155.284912109375 392.837646484375 C 192.5135040283203 414.7550964355469 220.8354949951172 433.8717346191406 147.1742706298828 480.8955993652344 C 71.16569519042969 451.2839050292969 85.94526672363281 454.5430603027344 98.8072738647461 380.51959228515625 C 125.41838073730469 319.61444091796875 65.11609649658203 288.6707458496094 132.48056030273438 276.4259948730469 C 138.85073852539062 356.27288818359375 153.16224670410156 349.98760986328125 155.284912109375 392.837646484375" stroke-width="0.0" fill="rgb(196, 175, 156)" opacity="0.21534243" stroke="rgb(0, 0, 0)" stroke-opacity="1.0" stroke-linecap="round" stroke-linejoin="round"/>
    <path d="M 381.67315673828125 82.12195587158203 C 398.8292236328125 79.56552124023438 416.4626159667969 85.81049346923828 401.19012451171875 56.550846099853516 C 376.84271240234375 48.18147659301758 360.0826721191406 47.430206298828125 365.8754577636719 67.26773834228516 C 346.58734130859375 53.981178283691406 357.8594970703125 29.152318954467773 336.3773498535156 35.73347473144531 C 365.2974548339844 77.83242797851562 356.353515625 83.94620513916016 381.67315673828125 82.12195587158203" stroke-width="0.0" fill="rgb(126, 248, 6)" opacity="0.17417371" stroke="rgb(0, 0, 0)" stroke-opacity="1.0" stroke-linecap="round" stroke-linejoin="round"/>
    <path d="M 533.1923828125 74.1562728881836 C 515.7872924804688 112.53937530517578 495.380859375 85.9532699584961 469.56524658203125 51.613216400146484 C 452.15673828125 54.643917083740234 432.1033935546875 55.443885803222656 442.5669860839844 22.89505958557129 C 430.9429931640625 -5.994074821472168 439.8414001464844 -25.909900665283203 458.6175842285156 -37.10161209106445 C 513.246826171875 -28.21689796447754 530.61083984375 -29.061546325683594 533.1923828125 74.1562728881836" stroke-width="0.0" fill="rgb(134, 65, 63)" opacity="0.47509307" stroke="rgb(0, 0, 0)" stroke-opacity="1.0" stroke-linecap="round" stroke-linejoin="round"/>
    <path d="M 350.9482116699219 495.2842712402344 C 368.1831359863281 483.8857421875 438.16461181640625 461.8838806152344 383.0191345214844 531.6679077148438 C 141.8299102783203 566.50341796875 125.0453109741211 478.1773681640625 144.28590393066406 452.611083984375 C 198.6652374267578 395.7833251953125 224.5011749267578 367.9757995605469 318.26666259765625 331.81097412109375 C 440.2947692871094 291.26568603515625 408.81494140625 257.76409912109375 350.9482116699219 495.2842712402344" stroke-width="0.0" fill="rgb(208, 165, 143)" opacity="0.99930555" stroke="rgb(0, 0, 0)" stroke-opacity="1.0" stroke-linecap="round" stroke-linejoin="round"/>
    <path d="M 211.16847229003906 290.50042724609375 C 296.58123779296875 326.3834533691406 297.6884460449219 305.21990966796875 240.87347412109375 338.1497497558594 C 136.20458984375 283.7392578125 26.521915435791016 240.4151611328125 58.940467834472656 251.5552520751953 C 86.25850677490234 207.1217041015625 162.25148010253906 286.69073486328125 238.84329223632812 307.286865234375 C 220.36940002441406 285.6605529785156 153.950439453125 278.7712097167969 211.16847229003906 290.50042724609375" stroke-width="0.0" fill="rgb(201, 165, 181)" opacity="0.27782065" stroke="rgb(0, 0, 0)" stroke-opacity="1.0" stroke-linecap="round" stroke-linejoin="round"/>
    <path d="M 373.6167907714844 438.8628845214844 C 405.0332336425781 465.40594482421875 337.2952880859375 437.5100402832031 355.836669921875 471.16400146484375 C 373.1524963378906 464.9098205566406 391.5013732910156 479.52886962890625 330.4000549316406 543.4354858398438 C 263.6593017578125 389.018798828125 271.96868896484375 311.60137939453125 379.14019775390625 300.0309753417969 C 391.9869079589844 383.90972900390625 372.06097412109375 365.9548645019531 373.6167907714844 438.8628845214844" stroke-width="0.0" fill="rgb(4, 24, 72)" opacity="0.96356297" stroke="rgb(0, 0, 0)" stroke-opacity="1.0" stroke-linecap="round" stroke-linejoin="round"/>
    <path d="M 308.1615295410156 122.22677612304688 C 388.0617370605469 110.30744171142578 368.4750671386719 163.95217895507812 294.5107421875 172.34071350097656 C 245.5260467529297 146.8212432861328 281.61431884765625 193.1588592529297 270.8084411621094 130.94256591796875 C 255.0562744140625 32.38335418701172 282.5163879394531 -14.222082138061523 305.9775695800781 63.476097106933594 C 316.7199401855469 115.08234405517578 380.82965087890625 102.10619354248047 308.1615295410156 122.22677612304688" stroke-width="0.0" fill="rgb(0, 9, 74)" opacity="0.9973888" stroke="rgb(0, 0, 0)" stroke-opacity="1.0" stroke-linecap="round" stroke-linejoin="round"/>
    <path d="M 479.402099609375 334.5198974609375 C 314.1214904785156 395.8564453125 333.83477783203125 410.4335021972656 328.6270751953125 409.8987121582031 C 272.02886962890625 456.2955322265625 170.79742431640625 404.6934814453125 12.359734535217285 345.09564208984375 C 114.98145294189453 263.03790283203125 142.33140563964844 289.812744140625 260.5648498535156 332.8868103027344 C 442.0553894042969 235.11004638671875 624.66259765625 139.6548309326172 479.402099609375 334.5198974609375" stroke-width="0.0" fill="rgb(126, 248, 0)" opacity="1.0" stroke="rgb(0, 0, 0)" stroke-opacity="1.0" stroke-linecap="round" stroke-linejoin="round"/>
    <path d="M 428.81805419921875 185.44329833984375 C 382.76007080078125 190.25279235839844 374.0133361816406 193.6879425048828 366.3164978027344 203.63644409179688 C 380.9252624511719 186.00408935546875 346.8138732910156 221.27102661132812 314.8642578125 215.5554656982422 C 330.036376953125 192.49554443359375 382.1888427734375 235.21697998046875 377.16448974609375 139.5840301513672 C 390.63714599609375 164.9143524169922 411.892578125 182.6432342529297 428.81805419921875 185.44329833984375" stroke-width="0.0" fill="rgb(0, 5, 69)" opacity="0.8509033" stroke="rgb(0, 0, 0)" stroke-opacity="1.0" stroke-linecap="round" stroke-linejoin="round"/>
    <path d="M 440.3957214355469 210.42295837402344 C 444.7149353027344 251.212158203125 470.32049560546875 221.59730529785156 423.3834228515625 242.4796142578125 C 323.35687255859375 292.7879333496094 312.80511474609375 268.44378662109375 436.2867431640625 218.95179748535156 C 435.58740234375 183.64195251464844 425.8436279296875 217.1255645751953 400.399658203125 182.92446899414062 C 487.4067077636719 203.2417755126953 454.8232727050781 203.13348388671875 440.3957214355469 210.42295837402344" stroke-width="0.0" fill="rgb(254, 33, 193)" opacity="0.5708154" stroke="rgb(0, 0, 0)" stroke-opacity="1.0" stroke-linecap="round" stroke-linejoin="round"/>
    <path d="M 128.7188720703125 310.254638671875 C 87.97718811035156 289.67462158203125 86.18121337890625 317.93292236328125 34.58530044555664 339.6418151855469 C 0.17769676446914673 357.3673095703125 33.469791412353516 374.97491455078125 -91.52881622314453 282.0477294921875 C 2.6682162284851074 209.18026733398438 -16.020902633666992 239.6318359375 84.11293029785156 267.32843017578125 C 137.8236541748047 288.0296630859375 179.7646484375 302.63861083984375 128.7188720703125 310.254638671875" stroke-width="0.0" fill="rgb(113, 247, 1)" opacity="1.0" stroke="rgb(0, 0, 0)" stroke-opacity="1.0" stroke-linecap="round" stroke-linejoin="round"/>
    <path d="M 20.268033981323242 38.39516830444336 C 41.437747955322266 27.553491592407227 48.71915817260742 26.410171508789062 62.893802642822266 13.666168212890625 C 99.2030258178711 6.1581878662109375 113.98673248291016 -22.164953231811523 0.6072758436203003 -59.939231872558594 C -49.884178161621094 104.92872619628906 -16.64937400817871 54.58310317993164 26.354694366455078 41.54335403442383 C 58.64737319946289 55.51345443725586 37.516212463378906 57.23532485961914 20.268033981323242 38.39516830444336" stroke-width="0.0" fill="rgb(0, 22, 59)" opacity="0.9805137" stroke="rgb(0, 0, 0)" stroke-opacity="1.0" stroke-linecap="round" stroke-linejoin="round"/>
    <path d="M 305.91912841796875 185.2637481689453 C 311.84490966796875 209.02273559570312 323.9891662597656 201.7218780517578 290.9461975097656 217.22589111328125 C 230.3112030029297 243.80067443847656 250.99598693847656 254.1410369873047 259.8844299316406 157.70729064941406 C 284.8231201171875 196.7142791748047 244.3681640625 210.2578582763672 262.0582580566406 109.08092498779297 C 312.7461853027344 122.27147674560547 301.0261535644531 159.56387329101562 305.91912841796875 185.2637481689453" stroke-width="0.0" fill="rgb(0, 0, 69)" opacity="1.0" stroke="rgb(0, 0, 0)" stroke-opacity="1.0" stroke-linecap="round" stroke-linejoin="round"/>
    <path d="M 180.33087158203125 465.6829528808594 C 146.84654235839844 459.8876647949219 168.98995971679688 476.6889953613281 159.57357788085938 503.094482421875 C 138.57278442382812 505.40228271484375 130.19252014160156 504.8958435058594 118.60833740234375 481.349853515625 C 92.4202880859375 463.8458251953125 85.03900909423828 403.3751220703125 111.81925201416016 407.26605224609375 C 195.0341796875 429.7298889160156 195.11947631835938 476.7433776855469 180.33087158203125 465.6829528808594" stroke-width="0.0" fill="rgb(193, 154, 170)" opacity="0.29934847" stroke="rgb(0, 0, 0)" stroke-opacity="1.0" stroke-linecap="round" stroke-linejoin="round"/>
    <path d="M 100.91151428222656 214.56431579589844 C 119.9432373046875 230.66197204589844 74.62959289550781 217.89157104492188 77.34693145751953 226.450927734375 C 100.25389099121094 224.59262084960938 78.94119262695312 220.84222412109375 67.0112533569336 229.1602783203125 C 65.50450897216797 259.0401611328125 70.88264465332031 247.30056762695312 117.60936737060547 215.67176818847656 C 130.34454345703125 217.77880859375 112.7008056640625 211.3347930908203 100.91151428222656 214.56431579589844" stroke-width="0.0" fill="rgb(142, 225, 68)" opacity="0.0" stroke="rgb(0, 0, 0)" stroke-opacity="1.0" stroke-linecap="round" stroke-linejoin="round"/>
    <path d="M 116.9588394165039 156.33908081054688 C 107.0523681640625 155.52984619140625 80.79938507080078 135.02777099609375 73.73197174072266 140.52047729492188 C 69.55164337158203 213.3744354248047 32.92660903930664 207.45404052734375 46.64262771606445 90.49412536621094 C 40.639163970947266 60.88021469116211 107.19454956054688 69.63434600830078 102.36286163330078 81.76922607421875 C 110.08028411865234 127.41046905517578 115.57833862304688 170.22427368164062 116.9588394165039 156.33908081054688" stroke-width="0.0" fill="rgb(118, 238, 20)" opacity="0.50039977" stroke="rgb(0, 0, 0)" stroke-opacity="1.0" stroke-linecap="round" stroke-linejoin="round"/>
    <path d="M 271.03082275390625 208.02537536621094 C 353.484619140625 237.9584503173828 320.53570556640625 208.84698486328125 282.8683166503906 222.84722900390625 C 293.7335205078125 235.263671875 287.8348083496094 227.56629943847656 203.8891143798828 186.4687042236328 C 213.0793914794922 201.96324157714844 232.57569885253906 190.17494201660156 262.1847839355469 206.23101806640625 C 274.82086181640625 187.26486206054688 268.7251892089844 162.6815643310547 271.03082275390625 208.02537536621094" stroke-width="0.0" fill="rgb(0, 26, 33)" opacity="0.030295648" stroke="rgb(0, 0, 0)" stroke-opacity="1.0" stroke-linecap="round" stroke-linejoin="round"/>
    <path d="M 227.7898712158203 123.05748748779297 C 234.2689971923828 78.98636627197266 205.359619140625 101.25944519042969 200.08326721191406 102.72093963623047 C 184.08612060546875 82.01725006103516 174.2040252685547 171.1181182861328 48.45388412475586 203.47256469726562 C 163.4555206298828 120.42835998535156 220.50341796875 131.49847412109375 235.76251220703125 87.8407211303711 C 243.18014526367188 78.82980346679688 263.21490478515625 104.20481872558594 227.7898712158203 123.05748748779297" stroke-width="0.0" fill="rgb(19, 4, 70)" opacity="0.926811" stroke="rgb(0, 0, 0)" stroke-opacity="1.0" stroke-linecap="round" stroke-linejoin="round"/>
    <path d="M 94.12568664550781 513.7089233398438 C 34.145084381103516 531.2606811523438 8.679699897766113 523.224853515625 0.7798296809196472 530.4581909179688 C -9.364206314086914 527.7437133789062 -16.68471336364746 520.4232177734375 -21.20284080505371 510.0506896972656 C -18.48799705505371 494.70721435546875 -31.987857818603516 464.11956787109375 -19.98613166809082 411.37286376953125 C 52.9832763671875 433.84869384765625 59.493614196777344 458.0196838378906 94.12568664550781 513.7089233398438" stroke-width="0.0" fill="rgb(118, 42, 33)" opacity="0.42007998" stroke="rgb(0, 0, 0)" stroke-opacity="1.0" stroke-linecap="round" stroke-linejoin="round"/>
    <path d="M 216.36996459960938 122.85186767578125 C 245.309326171875 103.32939910888672 144.6200408935547 106.52901458740234 121.2325210571289 192.33290100097656 C 34.18890380859375 198.3555908203125 110.73507690429688 232.50738525390625 162.78115844726562 210.27496337890625 C 132.46315002441406 183.27310180664062 128.65609741210938 184.9708709716797 68.94451141357422 204.22959899902344 C 138.81689453125 158.500732421875 122.42222595214844 161.5568084716797 216.36996459960938 122.85186767578125" stroke-width="0.0" fill="rgb(129, 253, 7)" opacity="0.98267186" stroke="rgb(0, 0, 0)" stroke-opacity="1.0" stroke-linecap="round" stroke-linejoin="round"/>
    <path d="M 478.1657409667969 223.18336486816406 C 325.8138732910156 293.4173583984375 309.556640625 310.4659118652344 319.74688720703125 306.90130615234375 C 260.83197021484375 314.99072265625 233.12197875976562 366.8154602050781 249.57972717285156 297.2406005859375 C 288.63262939453125 280.16046142578125 307.2709655761719 276.0077819824219 328.417236328125 242.59266662597656 C 287.8751525878906 310.18780517578125 416.5667419433594 173.68710327148438 478.1657409667969 223.18336486816406" stroke-width="0.0" fill="rgb(0, 9, 71)" opacity="1.0" stroke="rgb(0, 0, 0)" stroke-opacity="1.0" stroke-linecap="round" stroke-linejoin="round"/>
    <path d="M 254.11204528808594 100.81886291503906 C 218.07318115234375 163.02369689941406 239.28123474121094 148.85916137695312 141.8607940673828 171.76084899902344 C 138.0450897216797 150.50765991210938 149.0146942138672 87.48365783691406 179.58448791503906 111.4020004272461 C 178.48382568359375 86.24349975585938 176.39892578125 70.73672485351562 228.21527099609375 39.09749984741211 C 239.5244140625 60.25570297241211 230.0266571044922 54.19947814941406 254.11204528808594 100.81886291503906" stroke-width="0.0" fill="rgb(216, 155, 179)" opacity="1.0" stroke="rgb(0, 0, 0)" stroke-opacity="1.0" stroke-linecap="round" stroke-linejoin="round"/>
    <path d="M 203.0768280029297 73.70751953125 C 171.92800903320312 78.38739013671875 163.30918884277344 118.86494445800781 181.1925506591797 112.76990509033203 C 166.24143981933594 47.17936706542969 148.58631896972656 140.18734741210938 140.724365234375 99.16332244873047 C 123.08244323730469 52.10831069946289 158.0278778076172 10.573123931884766 226.18667602539062 25.4791316986084 C 195.89520263671875 100.20661163330078 210.36610412597656 78.21220397949219 203.0768280029297 73.70751953125" stroke-width="0.0" fill="rgb(101, 255, 0)" opacity="0.97594815" stroke="rgb(0, 0, 0)" stroke-opacity="1.0" stroke-linecap="round" stroke-linejoin="round"/>
    <path d="M 410.0305480957031 69.07470703125 C 422.7760314941406 28.72467803955078 391.1636657714844 57.07624053955078 389.2685546875 104.6180419921875 C 381.482421875 120.97713470458984 374.89080810546875 102.1729507446289 398.39166259765625 45.163536071777344 C 423.7011413574219 76.17786407470703 475.2307434082031 57.168766021728516 443.68450927734375 -38.33375549316406 C 333.60223388671875 27.58289337158203 353.38360595703125 34.5522575378418 410.0305480957031 69.07470703125" stroke-width="0.0" fill="rgb(136, 210, 35)" opacity="0.47828245" stroke="rgb(0, 0, 0)" stroke-opacity="1.0" stroke-linecap="round" stroke-linejoin="round"/>
    <path d="M 326.7373046875 483.16259765625 C 320.0774230957031 507.66729736328125 334.5461730957031 512.8171997070312 320.0126647949219 526.546630859375 C 279.3260498046875 557.3758544921875 267.2281188964844 544.0736083984375 264.922607421875 455.5347900390625 C 289.92230224609375 423.28826904296875 288.1212158203125 424.5418395996094 293.3314208984375 428.3228454589844 C 338.7848815917969 422.3788146972656 339.94805908203125 428.74810791015625 326.7373046875 483.16259765625" stroke-width="0.0" fill="rgb(9, 42, 79)" opacity="0.9920566" stroke="rgb(0, 0, 0)" stroke-opacity="1.0" stroke-linecap="round" stroke-linejoin="round"/>
    <path d="M 288.6543884277344 167.5269317626953 C 313.807861328125 177.02842712402344 316.8512268066406 160.29515075683594 315.0140380859375 235.29347229003906 C 265.301025390625 146.87281799316406 298.3243713378906 118.2767333984375 242.7386016845703 153.1376190185547 C 240.07249450683594 141.4365997314453 281.603759765625 144.7259521484375 295.6215515136719 130.866943359375 C 355.7545166015625 110.20540618896484 296.4879150390625 106.7896957397461 288.6543884277344 167.5269317626953" stroke-width="0.0" fill="rgb(255, 184, 125)" opacity="0.95392346" stroke="rgb(0, 0, 0)" stroke-opacity="1.0" stroke-linecap="round" stroke-linejoin="round"/>
    <path d="M 270.9217529296875 25.30841064453125 C 266.6989440917969 35.02167892456055 281.7491149902344 20.35280418395996 288.3739318847656 25.549118041992188 C 242.54379272460938 49.595211029052734 251.73277282714844 21.343801498413086 259.1846618652344 -15.479280471801758 C 240.0518341064453 -11.330902099609375 257.6338806152344 -27.068599700927734 256.77532958984375 17.43185806274414 C 265.4828796386719 22.9344425201416 282.57110595703125 27.155466079711914 270.9217529296875 25.30841064453125" stroke-width="0.0" fill="rgb(215, 63, 136)" opacity="0.581894" stroke="rgb(0, 0, 0)" stroke-opacity="1.0" stroke-linecap="round" stroke-linejoin="round"/>
    <path d="M 366.03826904296875 244.58795166015625 C 343.6645202636719 247.86964416503906 324.585205078125 252.9523468017578 310.2359313964844 262.7689514160156 C 330.1730651855469 267.2255554199219 321.88189697265625 271.3108215332031 296.2554016113281 265.12542724609375 C 325.5718688964844 251.7602081298828 345.1885070800781 249.59532165527344 347.9968566894531 235.6660614013672 C 350.4005432128906 261.6437683105469 361.89141845703125 269.57763671875 366.03826904296875 244.58795166015625" stroke-width="0.0" fill="rgb(213, 46, 173)" opacity="0.0" stroke="rgb(0, 0, 0)" stroke-opacity="1.0" stroke-linecap="round" stroke-linejoin="round"/>
    <path d="M 210.78060913085938 64.9769058227539 C 170.94993591308594 64.09069061279297 178.53294372558594 88.66214752197266 167.63629150390625 98.7872543334961 C 148.43521118164062 26.81780242919922 159.88966369628906 35.7602424621582 182.763916015625 70.7267074584961 C 146.8091583251953 66.93687438964844 164.73226928710938 49.54039764404297 172.94271850585938 67.47212982177734 C 186.42318725585938 65.50636291503906 196.52919006347656 97.79305267333984 210.78060913085938 64.9769058227539" stroke-width="0.0" fill="rgb(90, 253, 0)" opacity="0.24624838" stroke="rgb(0, 0, 0)" stroke-opacity="1.0" stroke-linecap="round" stroke-linejoin="round"/>
    <path d="M 533.4812622070312 456.5335388183594 C 544.5053100585938 469.6905517578125 542.0015258789062 482.4133605957031 505.7012939453125 452.7450256347656 C 449.04150390625 469.2010192871094 453.8550109863281 498.9034118652344 416.4030456542969 422.577392578125 C 448.15203857421875 357.7721862792969 481.8730163574219 350.4443359375 536.3839111328125 373.9208679199219 C 553.9525756835938 425.2100524902344 551.477783203125 432.0276184082031 533.4812622070312 456.5335388183594" stroke-width="0.0" fill="rgb(2, 23, 95)" opacity="1.0" stroke="rgb(0, 0, 0)" stroke-opacity="1.0" stroke-linecap="round" stroke-linejoin="round"/>
    <path d="M 351.9957275390625 471.32452392578125 C 350.559814453125 500.42987060546875 351.7707214355469 522.2598876953125 339.20556640625 519.14892578125 C 347.1065979003906 501.7711486816406 351.5616149902344 493.5469970703125 358.7020568847656 485.107421875 C 352.15557861328125 472.7442932128906 369.33416748046875 482.1244812011719 373.8383483886719 451.8575134277344 C 334.58355712890625 442.35223388671875 346.7782287597656 443.5499267578125 351.9957275390625 471.32452392578125" stroke-width="0.0" fill="rgb(0, 61, 70)" opacity="1.0" stroke="rgb(0, 0, 0)" stroke-opacity="1.0" stroke-linecap="round" stroke-linejoin="round"/>
    <path d="M 458.90277099609375 415.5059509277344 C 443.3623046875 424.38177490234375 443.2817687988281 429.894287109375 427.45849609375 442.2394714355469 C 397.20660400390625 433.5186767578125 407.5335693359375 436.35333251953125 430.7536926269531 427.5299987792969 C 434.63525390625 407.8762512207031 439.38751220703125 397.85174560546875 423.3525695800781 396.1819152832031 C 450.7439880371094 408.12261962890625 460.8035888671875 415.9024963378906 458.90277099609375 415.5059509277344" stroke-width="0.0" fill="rgb(147, 161, 120)" opacity="0.999738" stroke="rgb(0, 0, 0)" stroke-opacity="1.0" stroke-linecap="round" stroke-linejoin="round"/>
    <path d="M 404.4465026855469 377.0147705078125 C 383.3509826660156 388.67279052734375 382.77685546875 436.6481018066406 380.0932312011719 438.14483642578125 C 382.4920959472656 420.5921325683594 378.8746032714844 430.9330749511719 388.7608337402344 381.9279479980469 C 407.8270263671875 384.2036437988281 380.9166564941406 386.4706726074219 372.23297119140625 368.47772216796875 C 374.93792724609375 376.83734130859375 415.2563781738281 409.04217529296875 404.4465026855469 377.0147705078125" stroke-width="0.0" fill="rgb(40, 0, 84)" opacity="0.9815459" stroke="rgb(0, 0, 0)" stroke-opacity="1.0" stroke-linecap="round" stroke-linejoin="round"/>
    <path d="M 273.8080749511719 111.26472473144531 C 266.7515869140625 106.43602752685547 241.26414489746094 111.32525634765625 209.0830535888672 129.17481994628906 C 219.4308624267578 186.7229461669922 221.32383728027344 159.93954467773438 240.827880859375 169.3773193359375 C 240.7952880859375 114.35381317138672 211.791259765625 124.4395523071289 246.0127410888672 111.67759704589844 C 292.31927490234375 92.80406188964844 299.9911804199219 92.5969009399414 273.8080749511719 111.26472473144531" stroke-width="0.0" fill="rgb(158, 181, 100)" opacity="0.5380867" stroke="rgb(0, 0, 0)" stroke-opacity="1.0" stroke-linecap="round" stroke-linejoin="round"/>
    <path d="M 99.05155944824219 426.6275329589844 C 109.1011962890625 443.16229248046875 97.94215393066406 448.6085205078125 70.00006866455078 453.3687438964844 C 57.89447021484375 440.9612121582031 61.194984436035156 434.3375549316406 -9.41515064239502 430.2823791503906 C -6.2898688316345215 356.148681640625 4.5670366287231445 349.92047119140625 35.49123764038086 368.42535400390625 C 110.91468811035156 389.6651611328125 100.37212371826172 412.28759765625 99.05155944824219 426.6275329589844" stroke-width="0.0" fill="rgb(235, 103, 251)" opacity="0.36997426" stroke="rgb(0, 0, 0)" stroke-opacity="1.0" stroke-linecap="round" stroke-linejoin="round"/>
    <path d="M 476.7814636230469 53.616668701171875 C 460.1099548339844 115.08100891113281 461.67828369140625 129.1409149169922 415.40655517578125 131.80116271972656 C 395.733154296875 107.22672271728516 398.18011474609375 91.5875244140625 380.016845703125 60.908531188964844 C 354.5483093261719 21.902441024780273 359.0065002441406 35.463871002197266 399.637451171875 60.82329559326172 C 439.21295166015625 36.69755554199219 462.2048034667969 27.531030654907227 476.7814636230469 53.616668701171875" stroke-width="0.0" fill="rgb(101, 187, 8)" opacity="0.31885666" stroke="rgb(0, 0, 0)" stroke-opacity="1.0" stroke-linecap="round" stroke-linejoin="round"/>
    <path d="M 270.3037109375 -5.917936325073242 C 250.1021728515625 -3.6809065341949463 238.85096740722656 -10.500176429748535 167.12525939941406 -10.108354568481445 C 146.80177307128906 74.16792297363281 139.94252014160156 31.389137268066406 188.15711975097656 16.349674224853516 C 196.2104949951172 16.806724548339844 197.29827880859375 15.628540992736816 185.04026794433594 17.403825759887695 C 230.416748046875 -1.339563012123108 242.3756866455078 -18.603168487548828 270.3037109375 -5.917936325073242" stroke-width="0.0" fill="rgb(0, 45, 63)" opacity="0.9284985" stroke="rgb(0, 0, 0)" stroke-opacity="1.0" stroke-linecap="round" stroke-linejoin="round"/>
    <path d="M 494.138916015625 180.73797607421875 C 529.7922973632812 190.47125244140625 516.5093994140625 211.80323791503906 506.9591369628906 197.73623657226562 C 476.808349609375 216.0779266357422 461.5215759277344 219.6366729736328 475.6382751464844 195.73556518554688 C 462.0570373535156 172.78636169433594 461.2420349121094 165.2930908203125 493.7818603515625 170.0095672607422 C 497.8551330566406 172.4512176513672 495.2359924316406 202.89224243164062 494.138916015625 180.73797607421875" stroke-width="0.0" fill="rgb(193, 190, 131)" opacity="0.0044554067" stroke="rgb(0, 0, 0)" stroke-opacity="1.0" stroke-linecap="round" stroke-linejoin="round"/>
    <path d="M 412.5364990234375 305.839599609375 C 406.6548767089844 314.91009521484375 402.26263427734375 327.7375183105469 414.25823974609375 329.5655212402344 C 414.9209289550781 332.1061706542969 402.8126525878906 318.0217590332031 391.44488525390625 301.0459899902344 C 361.31329345703125 292.6787109375 380.8359680175781 308.6345520019531 405.82940673828125 320.83013916015625 C 421.3280029296875 307.7975158691406 408.38897705078125 318.2852478027344 412.5364990234375 305.839599609375" stroke-width="0.0" fill="rgb(84, 225, 77)" opacity="0.0" stroke="rgb(0, 0, 0)" stroke-opacity="1.0" stroke-linecap="round" stroke-linejoin="round"/>
    <path d="M 240.707275390625 272.53057861328125 C 235.19859313964844 279.1894836425781 230.1342010498047 280.8336486816406 237.8948516845703 267.39642333984375 C 233.4959716796875 273.80487060546875 233.9766845703125 271.1087341308594 229.1648406982422 282.0073547363281 C 231.92059326171875 280.4202575683594 243.7981414794922 291.92498779296875 223.73585510253906 293.43896484375 C 239.09619140625 282.4785461425781 238.78004455566406 269.4214782714844 240.707275390625 272.53057861328125" stroke-width="0.0" fill="rgb(149, 145, 117)" opacity="0.5342864" stroke="rgb(0, 0, 0)" stroke-opacity="1.0" stroke-linecap="round" stroke-linejoin="round"/>
    <path d="M 242.64988708496094 293.2769775390625 C 252.94119262695312 284.6699523925781 275.61651611328125 284.4677734375 249.61502075195312 276.831298828125 C 217.20005798339844 294.3502197265625 224.8027801513672 299.8182373046875 222.91436767578125 298.5685729980469 C 234.43072509765625 302.8721618652344 240.24024963378906 288.5731506347656 241.2098388671875 263.7088928222656 C 254.9194793701172 265.0938720703125 268.3947448730469 272.3441467285156 242.64988708496094 293.2769775390625" stroke-width="0.0" fill="rgb(65, 226, 67)" opacity="0.0" stroke="rgb(0, 0, 0)" stroke-opacity="1.0" stroke-linecap="round" stroke-linejoin="round"/>
    <path d="M 28.64828872680664 121.79608154296875 C 28.646949768066406 59.41561508178711 50.94881057739258 68.9761962890625 43.411781311035156 130.2692413330078 C 49.48826217651367 134.7413787841797 33.646629333496094 129.7611846923828 17.121803283691406 110.4522933959961 C -7.173636436462402 135.6413116455078 31.506898880004883 132.78079223632812 52.04412841796875 131.8201141357422 C 32.48714828491211 134.0197296142578 46.335323333740234 134.32801818847656 28.64828872680664 121.79608154296875" stroke-width="0.0" fill="rgb(202, 142, 167)" opacity="0.044079922" stroke="rgb(0, 0, 0)" stroke-opacity="1.0" stroke-linecap="round" stroke-linejoin="round"/>
    <path d="M 512.1323852539062 221.7483673095703 C 420.8624572753906 180.28533935546875 406.01959228515625 165.60665893554688 423.9290771484375 150.32827758789062 C 433.066162109375 183.34970092773438 387.3570556640625 183.41348266601562 395.8553771972656 166.3894500732422 C 379.712890625 94.18671417236328 337.4919128417969 49.18936538696289 423.5705261230469 26.168176651000977 C 528.333984375 49.93086242675781 541.4277954101562 46.59071731567383 512.1323852539062 221.7483673095703" stroke-width="0.0" fill="rgb(121, 250, 3)" opacity="0.9913385" stroke="rgb(0, 0, 0)" stroke-opacity="1.0" stroke-linecap="round" stroke-linejoin="round"/>
    <path d="M 158.72511291503906 510.97784423828125 C 111.38531494140625 533.4931030273438 73.75144958496094 521.536376953125 68.3686752319336 518.0115356445312 C 59.03596115112305 525.0444946289062 55.25580596923828 528.433837890625 53.08171081542969 500.8685607910156 C 37.87040328979492 448.80255126953125 33.03400421142578 439.9239196777344 79.77816009521484 453.3541564941406 C 112.2669906616211 440.37261962890625 121.76126098632812 438.48968505859375 158.72511291503906 510.97784423828125" stroke-width="0.0" fill="rgb(129, 55, 132)" opacity="0.17616948" stroke="rgb(0, 0, 0)" stroke-opacity="1.0" stroke-linecap="round" stroke-linejoin="round"/>
    <path d="M 516.8228149414062 81.03793334960938 C 522.6993408203125 50.72125244140625 539.84912109375 63.44227981567383 516.2078857421875 56.458187103271484 C 525.3265991210938 39.42938995361328 539.3786010742188 44.83805465698242 500.0621643066406 91.45820617675781 C 480.5008544921875 75.4494857788086 487.0346984863281 45.870670318603516 479.8353271484375 14.81601333618164 C 479.925048828125 55.12042999267578 496.83978271484375 88.31848907470703 516.8228149414062 81.03793334960938" stroke-width="0.0" fill="rgb(195, 221, 101)" opacity="0.03591908" stroke="rgb(0, 0, 0)" stroke-opacity="1.0" stroke-linecap="round" stroke-linejoin="round"/>
    <path d="M 305.8599548339844 301.1451416015625 C 299.2872009277344 300.10797119140625 307.7738037109375 322.29638671875 274.2873229980469 294.44769287109375 C 250.5027618408203 309.7984924316406 257.2109069824219 327.6747131347656 277.8866271972656 305.9150695800781 C 296.25970458984375 306.3149719238281 287.4761962890625 286.7538146972656 291.4201965332031 304.93658447265625 C 284.1432800292969 305.6587829589844 299.48583984375 303.0287170410156 305.8599548339844 301.1451416015625" stroke-width="0.0" fill="rgb(44, 0, 147)" opacity="0.0" stroke="rgb(0, 0, 0)" stroke-opacity="1.0" stroke-linecap="round" stroke-linejoin="round"/>
    <path d="M 332.6224365234375 84.12215423583984 C 333.60650634765625 102.54957580566406 323.3827819824219 106.21216583251953 310.29937744140625 109.13143157958984 C 324.05621337890625 101.04293823242188 336.9211730957031 89.68490600585938 285.85107421875 88.3017807006836 C 305.7001953125 96.4218521118164 316.24871826171875 89.15263366699219 317.8688049316406 79.44437408447266 C 329.0132751464844 79.20033264160156 325.5771789550781 83.34777069091797 332.6224365234375 84.12215423583984" stroke-width="0.0" fill="rgb(0, 0, 131)" opacity="0.058264192" stroke="rgb(0, 0, 0)" stroke-opacity="1.0" stroke-linecap="round" stroke-linejoin="round"/>
    <path d="M 113.47801971435547 63.586753845214844 C 119.52334594726562 89.47111511230469 101.71747589111328 108.4068603515625 128.53802490234375 90.45397186279297 C 122.42576599121094 90.1307601928711 102.3733139038086 91.38680267333984 70.7947998046875 79.36860656738281 C 81.67252349853516 52.47810363769531 115.8883285522461 70.21573638916016 126.80689239501953 75.86106872558594 C 126.20869445800781 73.82024383544922 126.88618469238281 59.3692741394043 113.47801971435547 63.586753845214844" stroke-width="0.0" fill="rgb(122, 198, 124)" opacity="0.04289675" stroke="rgb(0, 0, 0)" stroke-opacity="1.0" stroke-linecap="round" stroke-linejoin="round"/>
    <path d="M 471.58709716796875 476.71685791015625 C 478.6269226074219 499.8941345214844 482.5333251953125 532.7677612304688 428.7630920410156 562.1422729492188 C 409.9725036621094 554.4755859375 412.3516845703125 548.054443359375 359.6187744140625 522.9515380859375 C 378.6882019042969 456.5902099609375 415.61822509765625 452.1922607421875 427.8753356933594 439.41473388671875 C 453.8965759277344 471.79998779296875 473.1065673828125 479.0359191894531 471.58709716796875 476.71685791015625" stroke-width="0.0" fill="rgb(70, 57, 33)" opacity="0.44517517" stroke="rgb(0, 0, 0)" stroke-opacity="1.0" stroke-linecap="round" stroke-linejoin="round"/>
    <path d="M 199.15737915039062 72.14473724365234 C 209.72640991210938 84.03175354003906 239.32786560058594 71.33247375488281 205.07806396484375 79.67748260498047 C 234.38885498046875 83.4215087890625 256.6050109863281 90.23601531982422 229.16268920898438 87.26160430908203 C 190.90614318847656 64.1790771484375 197.44708251953125 50.96262741088867 213.68304443359375 59.62651443481445 C 210.53448486328125 58.76060485839844 202.0363311767578 61.4240837097168 199.15737915039062 72.14473724365234" stroke-width="0.0" fill="rgb(82, 148, 133)" opacity="0.15445441" stroke="rgb(0, 0, 0)" stroke-opacity="1.0" stroke-linecap="round" stroke-linejoin="round"/>
    <path d="M 300.5130920410156 174.7970428466797 C 252.33535766601562 198.96424865722656 234.7236328125 205.5708465576172 240.45120239257812 216.1600341796875 C 229.54891967773438 228.05322265625 245.8995819091797 224.61477661132812 248.6360626220703 220.31185913085938 C 229.43301391601562 208.77198791503906 249.41798400878906 204.96408081054688 240.46014404296875 195.8843231201172 C 252.98895263671875 187.10894775390625 272.31005859375 174.01902770996094 300.5130920410156 174.7970428466797" stroke-width="0.0" fill="rgb(215, 156, 90)" opacity="0.9546603" stroke="rgb(0, 0, 0)" stroke-opacity="1.0" stroke-linecap="round" stroke-linejoin="round"/>
    <path d="M 488.05926513671875 -37.5239372253418 C 462.3874206542969 -40.01084899902344 461.53887939453125 -25.48560905456543 486.6128845214844 40.1401481628418 C 427.2195129394531 41.704776763916016 430.1279296875 12.659786224365234 435.8926696777344 -10.919124603271484 C 443.02642822265625 -11.118226051330566 452.07421875 -16.323915481567383 464.5194396972656 -17.583200454711914 C 476.8262023925781 -16.114213943481445 486.2515869140625 -11.2457275390625 488.05926513671875 -37.5239372253418" stroke-width="0.0" fill="rgb(185, 152, 139)" opacity="0.21823995" stroke="rgb(0, 0, 0)" stroke-opacity="1.0" stroke-linecap="round" stroke-linejoin="round"/>
    <path d="M 177.67730712890625 486.0509033203125 C 180.0642852783203 468.8420715332031 187.05809020996094 467.5775451660156 167.448974609375 432.3777160644531 C 162.8611297607422 415.01007080078125 140.0400848388672 402.2552795410156 120.44995880126953 387.2010803222656 C 107.08067321777344 452.13330078125 108.85456848144531 417.6757507324219 135.5415802001953 414.9421691894531 C 122.39651489257812 467.7292785644531 122.5981216430664 484.13470458984375 177.67730712890625 486.0509033203125" stroke-width="0.0" fill="rgb(214, 140, 206)" opacity="0.2802287" stroke="rgb(0, 0, 0)" stroke-opacity="1.0" stroke-linecap="round" stroke-linejoin="round"/>
  </g>
</svg>
