<?xml version="1.0" ?>
<svg xmlns="http://www.w3.org/2000/svg" version="1.1" width="512" height="512">
  <defs/>
  <g>
    <path d="M 531.7100219726562 463.5704345703125 C 548.0579833984375 517.3278198242188 548.9373779296875 525.5354614257812 374.5688781738281 541.4246215820312 C 306.84033203125 576.16064453125 293.6942138671875 567.4055786132812 279.86212158203125 496.528564453125 C 321.1742248535156 313.48944091796875 358.2449951171875 316.48760986328125 475.8309326171875 297.98028564453125 C 562.9693603515625 311.3808898925781 561.3576049804688 331.2187805175781 531.7100219726562 463.5704345703125" stroke-width="0.0" fill="rgb(0, 31, 103)" opacity="1.0" stroke="rgb(0, 0, 0)" stroke-opacity="1.0" stroke-linecap="round" stroke-linejoin="round"/>
    <path d="M 262.2398986816406 473.1986083984375 C 311.6617736816406 509.986328125 300.6727600097656 517.83056640625 93.79145812988281 522.5646362304688 C -51.20000076293945 517.7235107421875 -51.20000076293945 507.83367919921875 -21.774600982666016 449.183837890625 C -18.38620376586914 205.44985961914062 -18.693912506103516 199.01014709472656 -35.06779098510742 270.11962890625 C 186.35183715820312 325.59918212890625 242.06263732910156 255.5732879638672 262.2398986816406 473.1986083984375" stroke-width="0.0" fill="rgb(3, 18, 140)" opacity="0.983004" stroke="rgb(0, 0, 0)" stroke-opacity="1.0" stroke-linecap="round" stroke-linejoin="round"/>
    <path d="M 240.76605224609375 285.7086486816406 C 209.36129760742188 443.25750732421875 229.1895751953125 469.5522766113281 202.7115478515625 351.3868103027344 C 76.6198501586914 332.6960144042969 14.224836349487305 406.5649108886719 30.679685592651367 205.72386169433594 C -22.811609268188477 170.11322021484375 -6.475320339202881 176.32423400878906 101.59114074707031 124.00603485107422 C 254.6676025390625 123.97592163085938 275.1307373046875 126.39984893798828 240.76605224609375 285.7086486816406" stroke-width="0.0" fill="rgb(255, 224, 64)" opacity="1.0" stroke="rgb(0, 0, 0)" stroke-opacity="1.0" stroke-linecap="round" stroke-linejoin="round"/>
    <path d="M 275.4776916503906 -2.6243863105773926 C 247.56979370117188 180.8673553466797 199.3731231689453 143.67767333984375 4.7396345138549805 178.50442504882812 C -47.44847869873047 209.0144805908203 -35.012813568115234 197.01185607910156 -28.171829223632812 69.55933380126953 C -14.989005088806152 -15.722881317138672 -7.218327522277832 -19.66063117980957 73.74055480957031 -23.62257194519043 C 202.33160400390625 -31.295312881469727 242.14010620117188 -53.73008728027344 275.4776916503906 -2.6243863105773926" stroke-width="0.0" fill="rgb(9, 7, 145)" opacity="0.99433774" stroke="rgb(0, 0, 0)" stroke-opacity="1.0" stroke-linecap="round" stroke-linejoin="round"/>
    <path d="M 528.2274169921875 45.76428985595703 C 418.9634704589844 265.63824462890625 438.6242980957031 293.5730285644531 412.148193359375 322.3457946777344 C 263.3088073730469 327.00152587890625 235.4554901123047 346.6761779785156 252.7304229736328 198.8621368408203 C 229.6846160888672 34.41730880737305 176.5391387939453 -19.283124923706055 284.8478698730469 -69.88815307617188 C 563.2000122070312 -6.244815349578857 563.2000122070312 4.452378749847412 528.2274169921875 45.76428985595703" stroke-width="0.0" fill="rgb(1, 28, 111)" opacity="0.99320114" stroke="rgb(0, 0, 0)" stroke-opacity="1.0" stroke-linecap="round" stroke-linejoin="round"/>
    <path d="M 475.9390563964844 349.3631286621094 C 485.0859375 458.309814453125 521.844482421875 531.1723022460938 316.37872314453125 564.4690551757812 C 183.411865234375 590.8477783203125 200.1010284423828 543.691650390625 210.73471069335938 434.4792785644531 C 218.2679901123047 203.2335205078125 277.00567626953125 207.7895965576172 314.77972412109375 246.05697631835938 C 431.7247009277344 253.91880798339844 464.7268981933594 264.1015930175781 475.9390563964844 349.3631286621094" stroke-width="0.0" fill="rgb(0, 29, 110)" opacity="0.99803597" stroke="rgb(0, 0, 0)" stroke-opacity="1.0" stroke-linecap="round" stroke-linejoin="round"/>
    <path d="M 539.4522705078125 199.03921508789062 C 553.2494506835938 307.3796691894531 548.0838623046875 311.2693786621094 474.6401062011719 320.3973693847656 C 393.39678955078125 341.4571838378906 413.3047790527344 339.61505126953125 408.9140319824219 239.98580932617188 C 426.4919128417969 113.41398620605469 386.2380065917969 76.16771697998047 520.5088500976562 73.92230224609375 C 559.9614868164062 70.5025405883789 564.6868286132812 111.34111785888672 539.4522705078125 199.03921508789062" stroke-width="0.0" fill="rgb(0, 36, 104)" opacity="1.0" stroke="rgb(0, 0, 0)" stroke-opacity="1.0" stroke-linecap="round" stroke-linejoin="round"/>
    <path d="M 262.1628723144531 242.23910522460938 C 243.52796936035156 300.01776123046875 255.76766967773438 311.163818359375 219.66656494140625 334.5627136230469 C 225.14833068847656 296.9761962890625 237.5032958984375 302.51397705078125 195.00750732421875 246.2716522216797 C 164.72525024414062 199.84356689453125 150.37753295898438 208.8081512451172 264.5309753417969 193.9449005126953 C 286.9698486328125 205.114013671875 264.5538635253906 223.61912536621094 262.1628723144531 242.23910522460938" stroke-width="0.0" fill="rgb(250, 146, 20)" opacity="1.0" stroke="rgb(0, 0, 0)" stroke-opacity="1.0" stroke-linecap="round" stroke-linejoin="round"/>
    <path d="M 308.3476257324219 34.21197509765625 C 317.5306396484375 118.194580078125 274.03729248046875 124.77418518066406 263.12548828125 148.9347686767578 C 241.9716033935547 108.70581817626953 219.56683349609375 111.59486389160156 189.15713500976562 96.59532165527344 C 241.0989990234375 61.50337600708008 236.55630493164062 36.55258560180664 256.15850830078125 94.55670928955078 C 297.4956970214844 130.456787109375 276.0794677734375 41.48306655883789 308.3476257324219 34.21197509765625" stroke-width="0.0" fill="rgb(254, 255, 20)" opacity="1.0" stroke="rgb(0, 0, 0)" stroke-opacity="1.0" stroke-linecap="round" stroke-linejoin="round"/>
    <path d="M 202.03738403320312 322.8143005371094 C 170.25038146972656 472.7691650390625 200.57919311523438 476.8475646972656 167.85690307617188 473.1094055175781 C 168.94204711914062 436.5673522949219 168.90049743652344 385.3206787109375 147.3903350830078 308.9248962402344 C 237.52597045898438 310.225830078125 200.0384063720703 335.3938903808594 187.54966735839844 352.63629150390625 C 173.95863342285156 349.3194885253906 169.85643005371094 328.51788330078125 202.03738403320312 322.8143005371094" stroke-width="0.0" fill="rgb(255, 249, 81)" opacity="0.99825746" stroke="rgb(0, 0, 0)" stroke-opacity="1.0" stroke-linecap="round" stroke-linejoin="round"/>
    <path d="M 255.12928771972656 219.86273193359375 C 234.54078674316406 292.22662353515625 224.13319396972656 347.2838439941406 195.8689727783203 333.16070556640625 C 108.2628173828125 330.0473327636719 205.3847198486328 327.5191650390625 192.60791015625 253.92446899414062 C 71.78119659423828 138.94595336914062 24.22439956665039 137.64990234375 222.61546325683594 63.73297119140625 C 147.30337524414062 185.6276397705078 210.1676483154297 96.01502990722656 255.12928771972656 219.86273193359375" stroke-width="0.0" fill="rgb(255, 248, 63)" opacity="1.0" stroke="rgb(0, 0, 0)" stroke-opacity="1.0" stroke-linecap="round" stroke-linejoin="round"/>
    <path d="M 197.038330078125 250.80587768554688 C 61.51198959350586 229.0411376953125 25.786802291870117 240.8084716796875 48.946407318115234 308.48052978515625 C 106.34002685546875 412.3598327636719 87.51170349121094 397.44024658203125 -17.124801635742188 285.85772705078125 C -82.60263061523438 83.10247802734375 -62.74397659301758 118.07872772216797 114.39949035644531 112.9774398803711 C 209.181396484375 185.44898986816406 255.84751892089844 189.925048828125 197.038330078125 250.80587768554688" stroke-width="0.0" fill="rgb(13, 0, 192)" opacity="1.0" stroke="rgb(0, 0, 0)" stroke-opacity="1.0" stroke-linecap="round" stroke-linejoin="round"/>
    <path d="M 223.31178283691406 50.96049880981445 C 233.92196655273438 114.90988159179688 257.2705993652344 138.8255157470703 217.93429565429688 144.93661499023438 C 138.85133361816406 122.53623962402344 78.38600158691406 153.03872680664062 59.328216552734375 60.89839172363281 C 58.180118560791016 -62.24690246582031 67.35970306396484 -63.28853988647461 203.81752014160156 -72.45772552490234 C 219.16062927246094 -23.45020294189453 189.74462890625 43.968135833740234 223.31178283691406 50.96049880981445" stroke-width="0.0" fill="rgb(9, 12, 151)" opacity="1.0" stroke="rgb(0, 0, 0)" stroke-opacity="1.0" stroke-linecap="round" stroke-linejoin="round"/>
    <path d="M 282.0329895019531 148.2981414794922 C 340.47918701171875 196.4746856689453 336.4100646972656 207.55764770507812 253.39373779296875 227.94607543945312 C 157.8446807861328 170.6661376953125 249.80633544921875 144.0236053466797 236.5990447998047 138.0538330078125 C 250.0543975830078 79.99645233154297 244.365234375 161.3053741455078 278.7363586425781 182.75680541992188 C 235.6869659423828 167.69085693359375 207.61231994628906 148.23046875 282.0329895019531 148.2981414794922" stroke-width="0.0" fill="rgb(255, 254, 91)" opacity="1.0" stroke="rgb(0, 0, 0)" stroke-opacity="1.0" stroke-linecap="round" stroke-linejoin="round"/>
    <path d="M 115.82455444335938 312.2419738769531 C 81.59851837158203 312.9617004394531 122.64562225341797 322.08038330078125 81.11979675292969 367.88726806640625 C 97.72450256347656 352.89599609375 74.28388214111328 335.6132507324219 74.49130249023438 300.3133239746094 C 76.2288589477539 303.76800537109375 67.48736572265625 293.8816833496094 71.13325500488281 307.5881652832031 C 72.15115356445312 388.7057800292969 49.86314010620117 300.5422058105469 115.82455444335938 312.2419738769531" stroke-width="0.0" fill="rgb(255, 217, 68)" opacity="0.6684087" stroke="rgb(0, 0, 0)" stroke-opacity="1.0" stroke-linecap="round" stroke-linejoin="round"/>
    <path d="M 225.4410858154297 74.17372131347656 C 255.3351593017578 146.80276489257812 201.56507873535156 152.6681671142578 233.56039428710938 149.90110778808594 C 242.8701629638672 45.350711822509766 241.7135467529297 151.73300170898438 211.47979736328125 142.81617736816406 C 265.5755920410156 176.80067443847656 237.60792541503906 62.90248107910156 222.41079711914062 64.90552520751953 C 223.1050567626953 69.7182388305664 221.47523498535156 57.069969177246094 225.4410858154297 74.17372131347656" stroke-width="0.0" fill="rgb(242, 215, 112)" opacity="0.7883175" stroke="rgb(0, 0, 0)" stroke-opacity="1.0" stroke-linecap="round" stroke-linejoin="round"/>
    <path d="M 277.4604187011719 453.2330627441406 C 262.7689514160156 445.5240173339844 235.22323608398438 443.80950927734375 254.12646484375 455.88970947265625 C 267.1592712402344 465.35040283203125 244.80357360839844 488.19122314453125 214.09823608398438 470.5890197753906 C 167.12940979003906 280.0738525390625 208.95327758789062 304.9464416503906 225.3666229248047 436.7748718261719 C 302.4450378417969 450.4447021484375 267.44158935546875 453.1380310058594 277.4604187011719 453.2330627441406" stroke-width="0.0" fill="rgb(254, 210, 40)" opacity="1.0" stroke="rgb(0, 0, 0)" stroke-opacity="1.0" stroke-linecap="round" stroke-linejoin="round"/>
    <path d="M 161.42868041992188 263.12188720703125 C 202.20762634277344 310.6751708984375 185.5845947265625 345.0124816894531 150.5802459716797 327.53125 C 165.3616180419922 269.8039855957031 164.43431091308594 275.92279052734375 114.45518493652344 282.1310729980469 C 134.32489013671875 313.9598693847656 127.76020050048828 329.03192138671875 126.82317352294922 274.2356872558594 C 154.7643280029297 282.0485534667969 162.72628784179688 289.38079833984375 161.42868041992188 263.12188720703125" stroke-width="0.0" fill="rgb(255, 233, 74)" opacity="0.5817493" stroke="rgb(0, 0, 0)" stroke-opacity="1.0" stroke-linecap="round" stroke-linejoin="round"/>
    <path d="M 238.00106811523438 114.02933502197266 C 252.60733032226562 159.87347412109375 248.59466552734375 153.28396606445312 203.01393127441406 144.26344299316406 C 130.74000549316406 135.3949432373047 114.04042053222656 95.7972412109375 164.4028778076172 95.48588562011719 C 185.98114013671875 131.18560791015625 174.3564910888672 111.13355255126953 160.5669403076172 108.0479736328125 C 181.6202392578125 127.45912170410156 218.57339477539062 160.95187377929688 238.00106811523438 114.02933502197266" stroke-width="0.0" fill="rgb(142, 87, 255)" opacity="0.99778134" stroke="rgb(0, 0, 0)" stroke-opacity="1.0" stroke-linecap="round" stroke-linejoin="round"/>
    <path d="M 359.2016906738281 277.91461181640625 C 353.5108337402344 283.61822509765625 355.75091552734375 279.9577941894531 319.2965393066406 271.5089111328125 C 291.6491394042969 293.18572998046875 312.9923400878906 318.729248046875 301.6980285644531 239.12649536132812 C 312.8000793457031 237.11325073242188 304.86468505859375 239.75413513183594 360.7392883300781 247.21713256835938 C 375.4495544433594 268.2831726074219 360.65252685546875 251.71148681640625 359.2016906738281 277.91461181640625" stroke-width="0.0" fill="rgb(1, 26, 115)" opacity="0.5576022" stroke="rgb(0, 0, 0)" stroke-opacity="1.0" stroke-linecap="round" stroke-linejoin="round"/>
    <path d="M 168.92933654785156 298.9494934082031 C 175.28138732910156 292.1160888671875 166.1249237060547 304.6145935058594 165.14906311035156 261.9952392578125 C 147.384521484375 249.6036376953125 137.31341552734375 253.139892578125 152.64720153808594 300.2408142089844 C 183.69403076171875 266.8799743652344 190.2797088623047 273.0143737792969 223.20156860351562 221.22332763671875 C 231.03526306152344 211.2471923828125 205.00222778320312 250.531005859375 168.92933654785156 298.9494934082031" stroke-width="0.0" fill="rgb(255, 224, 83)" opacity="0.59407413" stroke="rgb(0, 0, 0)" stroke-opacity="1.0" stroke-linecap="round" stroke-linejoin="round"/>
    <path d="M 178.71678161621094 104.98553466796875 C 189.1201171875 119.26287841796875 208.6093292236328 135.97242736816406 174.49176025390625 126.81475067138672 C 160.6294403076172 128.1527557373047 155.6293182373047 110.81756591796875 151.24745178222656 80.42877197265625 C 138.7689208984375 55.269779205322266 161.27926635742188 37.47468566894531 167.3826141357422 59.033531188964844 C 168.1286163330078 71.69869995117188 178.27285766601562 103.30989074707031 178.71678161621094 104.98553466796875" stroke-width="0.0" fill="rgb(255, 255, 54)" opacity="1.0" stroke="rgb(0, 0, 0)" stroke-opacity="1.0" stroke-linecap="round" stroke-linejoin="round"/>
    <path d="M 280.3773498535156 449.80938720703125 C 262.3864440917969 473.8990173339844 273.29388427734375 476.0057067871094 273.53009033203125 472.2524719238281 C 258.0127258300781 487.11627197265625 248.224609375 485.9705810546875 227.05307006835938 503.7869873046875 C 227.7687225341797 437.2702331542969 224.14599609375 458.20989990234375 225.35267639160156 443.8351745605469 C 207.89413452148438 390.97308349609375 272.59210205078125 414.6177978515625 280.3773498535156 449.80938720703125" stroke-width="0.0" fill="rgb(0, 26, 121)" opacity="1.0" stroke="rgb(0, 0, 0)" stroke-opacity="1.0" stroke-linecap="round" stroke-linejoin="round"/>
    <path d="M 361.3117370605469 228.65846252441406 C 357.9999694824219 256.83270263671875 357.1351013183594 262.094970703125 328.8143615722656 252.91629028320312 C 290.3952941894531 245.772705078125 297.9202575683594 254.9884796142578 269.2179870605469 213.6331787109375 C 323.1667785644531 201.94000244140625 347.07794189453125 207.81060791015625 349.03253173828125 204.40859985351562 C 371.3121643066406 215.8553466796875 359.50213623046875 208.52374267578125 361.3117370605469 228.65846252441406" stroke-width="0.0" fill="rgb(3, 0, 177)" opacity="0.09167006" stroke="rgb(0, 0, 0)" stroke-opacity="1.0" stroke-linecap="round" stroke-linejoin="round"/>
    <path d="M 246.34939575195312 161.4550323486328 C 211.69784545898438 210.92723083496094 156.8057861328125 189.61117553710938 152.19891357421875 157.02865600585938 C 146.2018585205078 131.958984375 129.39805603027344 127.343994140625 112.51679992675781 114.0349349975586 C 98.49778747558594 81.7610092163086 97.29273986816406 19.425216674804688 121.61717987060547 60.416744232177734 C 120.39776611328125 119.63603210449219 183.97869873046875 101.51995849609375 246.34939575195312 161.4550323486328" stroke-width="0.0" fill="rgb(255, 255, 178)" opacity="1.0" stroke="rgb(0, 0, 0)" stroke-opacity="1.0" stroke-linecap="round" stroke-linejoin="round"/>
    <path d="M 115.27247619628906 343.5438232421875 C 97.90441131591797 366.5809631347656 85.22496795654297 370.62158203125 81.64966583251953 395.4610290527344 C 43.159698486328125 348.014404296875 48.76558303833008 327.59918212890625 65.37222290039062 311.9707336425781 C 84.92555236816406 311.7901306152344 67.3412094116211 317.4794921875 126.9631576538086 324.51654052734375 C 136.58103942871094 302.3871765136719 159.9106903076172 342.4635925292969 115.27247619628906 343.5438232421875" stroke-width="0.0" fill="rgb(255, 252, 121)" opacity="1.0" stroke="rgb(0, 0, 0)" stroke-opacity="1.0" stroke-linecap="round" stroke-linejoin="round"/>
    <path d="M 107.16067504882812 436.5907287597656 C 118.62574005126953 479.5164489746094 117.96910095214844 469.70208740234375 117.15972137451172 477.8557434082031 C 104.5782699584961 471.5413513183594 95.92250061035156 483.31158447265625 93.57576751708984 462.5489807128906 C 87.75794219970703 441.69140625 82.75353240966797 433.3889465332031 52.43629837036133 365.79437255859375 C 64.60310363769531 312.6537170410156 84.87091827392578 390.6615905761719 107.16067504882812 436.5907287597656" stroke-width="0.0" fill="rgb(255, 242, 138)" opacity="0.98762125" stroke="rgb(0, 0, 0)" stroke-opacity="1.0" stroke-linecap="round" stroke-linejoin="round"/>
    <path d="M 190.2034912109375 154.29278564453125 C 137.78065490722656 163.91383361816406 96.49160766601562 137.48985290527344 98.25699615478516 142.7850341796875 C 103.80699157714844 133.40113830566406 100.69013214111328 130.50782775878906 80.21269226074219 128.5657196044922 C 84.4432144165039 138.0292205810547 84.43508911132812 132.47869873046875 111.16561889648438 143.2549285888672 C 87.426513671875 104.37891387939453 101.40786743164062 107.67469024658203 190.2034912109375 154.29278564453125" stroke-width="0.0" fill="rgb(6, 0, 192)" opacity="1.0" stroke="rgb(0, 0, 0)" stroke-opacity="1.0" stroke-linecap="round" stroke-linejoin="round"/>
    <path d="M 81.11888885498047 146.74395751953125 C 34.64778518676758 161.45880126953125 42.919830322265625 150.8107147216797 74.83702850341797 140.83358764648438 C 9.367687225341797 137.9264678955078 3.662497043609619 153.11903381347656 61.34799575805664 125.29710388183594 C 47.71632766723633 101.15771484375 44.41095733642578 118.46253967285156 28.07895851135254 98.7108154296875 C 55.16473388671875 95.07711791992188 66.72328186035156 108.65043640136719 81.11888885498047 146.74395751953125" stroke-width="0.0" fill="rgb(25, 5, 137)" opacity="0.08122529" stroke="rgb(0, 0, 0)" stroke-opacity="1.0" stroke-linecap="round" stroke-linejoin="round"/>
    <path d="M 42.17207717895508 321.5513916015625 C 35.360836029052734 329.7439270019531 45.166378021240234 325.86798095703125 19.157913208007812 299.96917724609375 C 15.932438850402832 333.5886535644531 22.576574325561523 329.33258056640625 20.76008415222168 308.5748291015625 C 5.713291168212891 308.42657470703125 -7.823794841766357 305.4480285644531 2.067105293273926 324.7459411621094 C 17.9328556060791 334.79193115234375 55.456729888916016 331.8987731933594 42.17207717895508 321.5513916015625" stroke-width="0.0" fill="rgb(17, 18, 223)" opacity="0.25212264" stroke="rgb(0, 0, 0)" stroke-opacity="1.0" stroke-linecap="round" stroke-linejoin="round"/>
    <path d="M 371.0809020996094 236.31150817871094 C 368.6733093261719 279.25048828125 378.86224365234375 280.1446533203125 364.1761474609375 281.35260009765625 C 361.0225524902344 248.81822204589844 349.88690185546875 258.1742248535156 353.6231384277344 206.02206420898438 C 366.48724365234375 190.0279541015625 364.20526123046875 172.2496795654297 371.6875 207.138916015625 C 373.2268371582031 202.45285034179688 378.3812561035156 192.14947509765625 371.0809020996094 236.31150817871094" stroke-width="0.0" fill="rgb(1, 18, 115)" opacity="0.12441843" stroke="rgb(0, 0, 0)" stroke-opacity="1.0" stroke-linecap="round" stroke-linejoin="round"/>
    <path d="M 211.2724151611328 237.62710571289062 C 207.2177276611328 282.2530212402344 199.8453369140625 285.01458740234375 175.47842407226562 285.9698791503906 C 171.64735412597656 255.64756774902344 173.0701446533203 238.40113830566406 179.0985565185547 257.5272521972656 C 180.7462158203125 272.1845703125 185.48397827148438 252.2101593017578 200.50775146484375 256.085693359375 C 178.43170166015625 257.9380187988281 186.15611267089844 258.85284423828125 211.2724151611328 237.62710571289062" stroke-width="0.0" fill="rgb(255, 228, 49)" opacity="0.40488753" stroke="rgb(0, 0, 0)" stroke-opacity="1.0" stroke-linecap="round" stroke-linejoin="round"/>
    <path d="M 207.5751190185547 254.3720245361328 C 188.5300750732422 248.703125 187.89976501464844 256.03851318359375 200.10577392578125 270.27886962890625 C 196.8378448486328 272.7610778808594 169.20156860351562 283.61737060546875 187.44676208496094 270.89398193359375 C 204.7986602783203 254.06048583984375 200.4156951904297 231.44302368164062 205.64036560058594 219.34396362304688 C 199.31736755371094 240.3389892578125 201.8022003173828 248.88368225097656 207.5751190185547 254.3720245361328" stroke-width="0.0" fill="rgb(250, 224, 36)" opacity="0.0" stroke="rgb(0, 0, 0)" stroke-opacity="1.0" stroke-linecap="round" stroke-linejoin="round"/>
    <path d="M 184.90478515625 329.89154052734375 C 178.68939208984375 338.6837463378906 180.2375946044922 336.8936462402344 180.29872131347656 350.4830017089844 C 173.51773071289062 343.8726806640625 177.981201171875 331.06549072265625 160.88490295410156 328.2071838378906 C 173.24655151367188 314.8124084472656 182.54449462890625 320.2847900390625 181.4893798828125 327.9350891113281 C 200.22653198242188 319.00567626953125 206.21302795410156 318.8894348144531 184.90478515625 329.89154052734375" stroke-width="0.0" fill="rgb(254, 211, 93)" opacity="0.0037614591" stroke="rgb(0, 0, 0)" stroke-opacity="1.0" stroke-linecap="round" stroke-linejoin="round"/>
    <path d="M 91.28663635253906 127.51309204101562 C 123.01311492919922 150.06680297851562 88.31914520263672 152.17552185058594 81.44610595703125 150.17811584472656 C 74.01242065429688 140.24917602539062 60.181488037109375 123.44449615478516 69.02452850341797 130.1865234375 C 47.630088806152344 114.9974136352539 40.12896728515625 95.73011016845703 95.2917251586914 86.28343200683594 C 114.4164810180664 77.37770080566406 99.20507049560547 96.42286682128906 91.28663635253906 127.51309204101562" stroke-width="0.0" fill="rgb(19, 4, 190)" opacity="0.11139166" stroke="rgb(0, 0, 0)" stroke-opacity="1.0" stroke-linecap="round" stroke-linejoin="round"/>
    <path d="M 50.63178253173828 131.21749877929688 C 53.00087356567383 179.1752471923828 67.09770202636719 156.99298095703125 -11.200634002685547 148.1415252685547 C -12.57461929321289 92.73789978027344 7.987441539764404 89.3075942993164 -2.2587716579437256 91.50911712646484 C -20.83336639404297 81.53976440429688 -22.63425636291504 117.01875305175781 9.646228790283203 86.78729248046875 C 50.09004211425781 89.20215606689453 62.5623893737793 107.90474700927734 50.63178253173828 131.21749877929688" stroke-width="0.0" fill="rgb(28, 2, 149)" opacity="0.18333724" stroke="rgb(0, 0, 0)" stroke-opacity="1.0" stroke-linecap="round" stroke-linejoin="round"/>
    <path d="M 115.89481353759766 144.9300537109375 C 125.59806060791016 167.43807983398438 121.91150665283203 191.79409790039062 85.88453674316406 186.18423461914062 C 101.55834197998047 193.97987365722656 97.8682861328125 173.39700317382812 87.58367156982422 156.7926025390625 C 92.56558990478516 150.55821228027344 118.90625762939453 136.31515502929688 114.08978271484375 153.64852905273438 C 98.04743194580078 145.4046173095703 93.5212631225586 156.19215393066406 115.89481353759766 144.9300537109375" stroke-width="0.0" fill="rgb(27, 26, 143)" opacity="0.053951774" stroke="rgb(0, 0, 0)" stroke-opacity="1.0" stroke-linecap="round" stroke-linejoin="round"/>
    <path d="M 389.9516296386719 224.990966796875 C 397.2143859863281 223.92312622070312 380.809814453125 236.80938720703125 368.5512390136719 227.45797729492188 C 366.601318359375 192.10816955566406 364.2583312988281 189.9848175048828 348.9541015625 182.16209411621094 C 333.13775634765625 176.28514099121094 345.1481628417969 180.35743713378906 358.2169494628906 188.63299560546875 C 387.6702880859375 173.82643127441406 389.8846130371094 171.9143524169922 389.9516296386719 224.990966796875" stroke-width="0.0" fill="rgb(0, 20, 119)" opacity="0.19595872" stroke="rgb(0, 0, 0)" stroke-opacity="1.0" stroke-linecap="round" stroke-linejoin="round"/>
    <path d="M 339.99066162109375 184.2673797607422 C 362.653076171875 189.63607788085938 345.0333251953125 219.880126953125 313.6477966308594 208.77455139160156 C 309.23797607421875 173.26397705078125 287.8952941894531 174.0780029296875 290.1918640136719 179.22308349609375 C 282.184814453125 134.59817504882812 255.36074829101562 150.6991729736328 271.7392578125 153.84986877441406 C 288.3738708496094 157.65640258789062 297.4254150390625 162.65916442871094 339.99066162109375 184.2673797607422" stroke-width="0.0" fill="rgb(255, 255, 65)" opacity="1.0" stroke="rgb(0, 0, 0)" stroke-opacity="1.0" stroke-linecap="round" stroke-linejoin="round"/>
    <path d="M 151.7085418701172 4.588040351867676 C 157.630615234375 20.82439613342285 151.819091796875 45.64287567138672 146.91749572753906 53.294403076171875 C 123.7421875 57.012447357177734 88.9217529296875 49.87196350097656 96.52371978759766 41.99921798706055 C 94.78719329833984 -21.95118522644043 86.06635284423828 -12.564393997192383 162.07728576660156 -1.5439671277999878 C 173.0870819091797 14.784876823425293 145.94076538085938 7.814672470092773 151.7085418701172 4.588040351867676" stroke-width="0.0" fill="rgb(0, 67, 42)" opacity="0.15279706" stroke="rgb(0, 0, 0)" stroke-opacity="1.0" stroke-linecap="round" stroke-linejoin="round"/>
    <path d="M 54.204620361328125 321.146484375 C 69.54512023925781 337.119384765625 66.26067352294922 369.5367736816406 24.06351089477539 349.7406005859375 C 38.793487548828125 319.1556701660156 44.41032409667969 322.54486083984375 25.355575561523438 305.06488037109375 C 26.537931442260742 304.24542236328125 6.441001892089844 308.80535888671875 49.59383010864258 318.4860534667969 C 50.38788604736328 284.0401611328125 38.120758056640625 307.142578125 54.204620361328125 321.146484375" stroke-width="0.0" fill="rgb(0, 0, 158)" opacity="0.86991453" stroke="rgb(0, 0, 0)" stroke-opacity="1.0" stroke-linecap="round" stroke-linejoin="round"/>
    <path d="M 237.1382598876953 43.75510025024414 C 250.6295928955078 24.804136276245117 253.41455078125 36.79121780395508 261.9771423339844 60.188411712646484 C 265.2687072753906 33.503684997558594 252.5795440673828 47.62797546386719 229.402587890625 53.5433349609375 C 240.9513702392578 50.04831314086914 269.88360595703125 51.218406677246094 262.1742248535156 41.537452697753906 C 254.96591186523438 61.86672592163086 260.5855712890625 59.287052154541016 237.1382598876953 43.75510025024414" stroke-width="0.0" fill="rgb(0, 52, 63)" opacity="0.0" stroke="rgb(0, 0, 0)" stroke-opacity="1.0" stroke-linecap="round" stroke-linejoin="round"/>
    <path d="M 105.0660629272461 327.01947021484375 C 103.15092468261719 317.3860778808594 118.59294891357422 349.96575927734375 93.43143463134766 350.2256164550781 C 88.43827056884766 360.6891784667969 93.11659240722656 343.0679016113281 123.48777770996094 332.96002197265625 C 123.42230987548828 306.77154541015625 101.15253448486328 297.6083679199219 90.37368774414062 314.6386413574219 C 123.77149200439453 307.2962646484375 133.16419982910156 346.1730651855469 105.0660629272461 327.01947021484375" stroke-width="0.0" fill="rgb(255, 222, 143)" opacity="0.08344243" stroke="rgb(0, 0, 0)" stroke-opacity="1.0" stroke-linecap="round" stroke-linejoin="round"/>
    <path d="M 198.80133056640625 372.2850341796875 C 218.78048706054688 393.9085388183594 236.57586669921875 392.54803466796875 206.2238311767578 392.4997253417969 C 168.85791015625 393.78204345703125 160.57373046875 403.07135009765625 158.43145751953125 376.97991943359375 C 179.86846923828125 389.0589904785156 177.9050750732422 382.5845642089844 186.63194274902344 384.32891845703125 C 166.0015106201172 394.28662109375 214.68411254882812 388.8765869140625 198.80133056640625 372.2850341796875" stroke-width="0.0" fill="rgb(255, 54, 198)" opacity="0.012707221" stroke="rgb(0, 0, 0)" stroke-opacity="1.0" stroke-linecap="round" stroke-linejoin="round"/>
    <path d="M 15.732561111450195 179.3860321044922 C -3.2672581672668457 197.7666015625 19.824811935424805 219.50775146484375 29.32988166809082 204.23683166503906 C 25.835887908935547 208.86318969726562 9.819068908691406 208.78509521484375 64.63329315185547 202.04342651367188 C 68.46031188964844 153.43048095703125 56.21695327758789 140.78236389160156 47.21974563598633 193.3439483642578 C 61.47065734863281 194.48641967773438 64.84390258789062 190.9795684814453 15.732561111450195 179.3860321044922" stroke-width="0.0" fill="rgb(40, 0, 180)" opacity="0.07355083" stroke="rgb(0, 0, 0)" stroke-opacity="1.0" stroke-linecap="round" stroke-linejoin="round"/>
    <path d="M 441.4779968261719 316.00665283203125 C 460.1018371582031 336.6613464355469 438.259033203125 334.77001953125 398.8332824707031 326.8973388671875 C 397.6880187988281 301.49627685546875 394.5561828613281 307.8886413574219 400.7098693847656 310.62005615234375 C 397.92999267578125 274.17254638671875 392.2821350097656 276.6370849609375 431.7030029296875 276.6495361328125 C 439.6255798339844 276.055419921875 432.96185302734375 277.3490295410156 441.4779968261719 316.00665283203125" stroke-width="0.0" fill="rgb(0, 33, 108)" opacity="0.076323405" stroke="rgb(0, 0, 0)" stroke-opacity="1.0" stroke-linecap="round" stroke-linejoin="round"/>
    <path d="M 33.339202880859375 166.63699340820312 C 47.56122970581055 129.51393127441406 38.695838928222656 155.30865478515625 -5.952054023742676 145.92050170898438 C -20.566673278808594 200.84632873535156 -24.195592880249023 186.7689666748047 -6.6036553382873535 146.4716033935547 C -13.998165130615234 107.08164978027344 -27.627960205078125 110.5616683959961 30.498279571533203 132.7562713623047 C 49.935848236083984 121.39331817626953 64.77127838134766 190.2051544189453 33.339202880859375 166.63699340820312" stroke-width="0.0" fill="rgb(15, 33, 149)" opacity="0.09020533" stroke="rgb(0, 0, 0)" stroke-opacity="1.0" stroke-linecap="round" stroke-linejoin="round"/>
    <path d="M 497.2806701660156 233.067626953125 C 485.89208984375 257.9114990234375 498.4081115722656 261.9436950683594 503.7281494140625 239.23594665527344 C 464.4959716796875 254.32928466796875 467.29119873046875 255.34408569335938 456.8470764160156 244.1387939453125 C 482.04840087890625 241.3656005859375 469.8404235839844 254.81593322753906 476.5749206542969 230.59507751464844 C 514.6744995117188 226.62274169921875 530.6516723632812 225.22412109375 497.2806701660156 233.067626953125" stroke-width="0.0" fill="rgb(0, 23, 61)" opacity="0.0" stroke="rgb(0, 0, 0)" stroke-opacity="1.0" stroke-linecap="round" stroke-linejoin="round"/>
    <path d="M 270.0509033203125 109.4318618774414 C 258.7243347167969 160.881591796875 251.24859619140625 151.31922912597656 248.31033325195312 141.89303588867188 C 240.34617614746094 151.14918518066406 245.16209411621094 136.5095672607422 240.44435119628906 127.47701263427734 C 233.5059051513672 119.7097396850586 237.4076690673828 92.40418243408203 240.70721435546875 69.5138168334961 C 228.85848999023438 74.09596252441406 245.93777465820312 89.87171936035156 270.0509033203125 109.4318618774414" stroke-width="0.0" fill="rgb(252, 250, 41)" opacity="0.62670684" stroke="rgb(0, 0, 0)" stroke-opacity="1.0" stroke-linecap="round" stroke-linejoin="round"/>
    <path d="M 439.1593322753906 260.9984130859375 C 432.0581970214844 271.9393310546875 437.6760559082031 297.3338623046875 443.07568359375 271.6600646972656 C 422.9089050292969 268.00238037109375 415.9449157714844 271.77239990234375 406.26470947265625 256.409423828125 C 398.9462890625 264.5362548828125 416.3665771484375 261.30072021484375 438.0976867675781 244.5218963623047 C 429.3912658691406 229.5220947265625 436.5266418457031 252.5871124267578 439.1593322753906 260.9984130859375" stroke-width="0.0" fill="rgb(0, 28, 106)" opacity="0.03616835" stroke="rgb(0, 0, 0)" stroke-opacity="1.0" stroke-linecap="round" stroke-linejoin="round"/>
    <path d="M 532.7454833984375 144.62225341796875 C 527.5045776367188 150.25436401367188 519.6676025390625 149.6396942138672 514.2811279296875 155.01031494140625 C 495.94427490234375 136.11029052734375 492.9278259277344 125.99354553222656 486.54827880859375 125.26915740966797 C 479.5769348144531 110.02693939208984 476.9044189453125 114.23631286621094 486.314453125 120.94994354248047 C 529.1488647460938 128.7727508544922 528.4937744140625 131.93887329101562 532.7454833984375 144.62225341796875" stroke-width="0.0" fill="rgb(1, 23, 108)" opacity="0.0" stroke="rgb(0, 0, 0)" stroke-opacity="1.0" stroke-linecap="round" stroke-linejoin="round"/>
    <path d="M 539.0340576171875 140.63720703125 C 529.927978515625 165.8981475830078 525.3106689453125 171.7980499267578 511.55633544921875 173.02223205566406 C 480.29425048828125 179.6384735107422 476.65234375 181.86985778808594 485.8080139160156 155.5347442626953 C 463.75628662109375 148.9130401611328 471.16668701171875 150.8850860595703 483.9306945800781 144.3047332763672 C 532.3496704101562 135.7469482421875 541.205810546875 140.3533935546875 539.0340576171875 140.63720703125" stroke-width="0.0" fill="rgb(0, 36, 118)" opacity="0.004861199" stroke="rgb(0, 0, 0)" stroke-opacity="1.0" stroke-linecap="round" stroke-linejoin="round"/>
    <path d="M 41.58805465698242 363.36566162109375 C 70.96929931640625 345.98809814453125 71.05606079101562 352.2279052734375 58.841373443603516 341.231201171875 C 40.185211181640625 365.7113037109375 20.264259338378906 364.06207275390625 21.794578552246094 347.4716796875 C -41.68877410888672 335.6837158203125 -31.972448348999023 284.6250915527344 37.311431884765625 280.3209228515625 C 63.43552017211914 342.0758972167969 73.75130462646484 326.3767395019531 41.58805465698242 363.36566162109375" stroke-width="0.0" fill="rgb(8, 0, 190)" opacity="0.40150583" stroke="rgb(0, 0, 0)" stroke-opacity="1.0" stroke-linecap="round" stroke-linejoin="round"/>
    <path d="M 331.2250061035156 264.5028991699219 C 328.7906494140625 268.7799377441406 342.0550231933594 262.1498107910156 306.3074951171875 262.78466796875 C 286.0260925292969 266.63836669921875 280.9183654785156 258.6320495605469 291.7339172363281 228.86378479003906 C 289.5586853027344 224.86793518066406 315.2694091796875 224.45826721191406 324.54498291015625 232.33563232421875 C 343.68365478515625 232.7223663330078 338.01177978515625 238.9072723388672 331.2250061035156 264.5028991699219" stroke-width="0.0" fill="rgb(1, 14, 171)" opacity="0.09183636" stroke="rgb(0, 0, 0)" stroke-opacity="1.0" stroke-linecap="round" stroke-linejoin="round"/>
    <path d="M 503.4905090332031 132.36993408203125 C 512.8682250976562 138.73947143554688 498.56292724609375 129.76284790039062 496.56585693359375 133.6691436767578 C 473.9603271484375 145.4437713623047 448.8849182128906 150.7966766357422 447.7914123535156 132.7178192138672 C 481.3582763671875 130.8913116455078 498.56707763671875 136.14035034179688 468.40283203125 113.9221420288086 C 478.1242980957031 128.08740234375 486.14508056640625 136.58395385742188 503.4905090332031 132.36993408203125" stroke-width="0.0" fill="rgb(6, 34, 107)" opacity="0.0" stroke="rgb(0, 0, 0)" stroke-opacity="1.0" stroke-linecap="round" stroke-linejoin="round"/>
    <path d="M 491.0610046386719 463.95068359375 C 505.0513000488281 501.4966125488281 516.4382934570312 525.8541259765625 466.6496887207031 516.9592895507812 C 428.878662109375 546.0989990234375 425.74737548828125 529.5459594726562 433.3260192871094 472.3822937011719 C 432.3505859375 433.9451904296875 424.8071594238281 404.5070495605469 452.8376159667969 389.0838623046875 C 494.10845947265625 393.73785400390625 485.4083557128906 410.9861145019531 491.0610046386719 463.95068359375" stroke-width="0.0" fill="rgb(0, 38, 85)" opacity="0.17011444" stroke="rgb(0, 0, 0)" stroke-opacity="1.0" stroke-linecap="round" stroke-linejoin="round"/>
    <path d="M 524.3460083007812 346.898681640625 C 509.59393310546875 380.5859680175781 499.2610778808594 384.6466064453125 489.2700500488281 391.3216857910156 C 479.3312683105469 409.5504150390625 457.33453369140625 404.57568359375 455.20526123046875 367.1155090332031 C 455.58099365234375 280.09100341796875 488.57830810546875 278.0785217285156 495.8587951660156 333.9490661621094 C 479.2987976074219 386.22540283203125 495.0562744140625 364.0041198730469 524.3460083007812 346.898681640625" stroke-width="0.0" fill="rgb(0, 33, 93)" opacity="0.1788071" stroke="rgb(0, 0, 0)" stroke-opacity="1.0" stroke-linecap="round" stroke-linejoin="round"/>
    <path d="M 162.70156860351562 412.6194763183594 C 162.48361206054688 445.175537109375 164.2897491455078 473.1681213378906 165.05821228027344 457.6722412109375 C 125.98638916015625 454.53033447265625 133.3181610107422 453.5440673828125 138.04763793945312 447.0461730957031 C 132.31353759765625 384.7978210449219 123.93419647216797 382.1481628417969 147.88172912597656 409.12890625 C 167.35720825195312 406.9936828613281 152.9556427001953 422.6736145019531 162.70156860351562 412.6194763183594" stroke-width="0.0" fill="rgb(0, 29, 178)" opacity="0.0698387" stroke="rgb(0, 0, 0)" stroke-opacity="1.0" stroke-linecap="round" stroke-linejoin="round"/>
    <path d="M 120.564453125 170.64727783203125 C 125.82905578613281 212.1252899169922 117.0966796875 200.8384246826172 86.15979766845703 189.92379760742188 C 81.16931915283203 173.67266845703125 57.681617736816406 142.2086181640625 82.59027862548828 155.74607849121094 C 51.878501892089844 168.7668914794922 58.13145446777344 147.2972412109375 65.53648376464844 72.30192565917969 C 115.38121795654297 113.15017700195312 112.36668395996094 130.2105712890625 120.564453125 170.64727783203125" stroke-width="0.0" fill="rgb(18, 6, 173)" opacity="0.23212558" stroke="rgb(0, 0, 0)" stroke-opacity="1.0" stroke-linecap="round" stroke-linejoin="round"/>
    <path d="M 179.1621856689453 146.28013610839844 C 169.03721618652344 149.7725372314453 180.26611328125 136.35983276367188 177.98033142089844 154.85218811035156 C 179.56243896484375 172.08299255371094 210.53778076171875 155.57012939453125 188.61898803710938 157.61326599121094 C 186.64199829101562 170.72256469726562 202.60760498046875 162.26358032226562 182.43751525878906 153.19482421875 C 179.57264709472656 112.75252532958984 177.2492218017578 114.86479949951172 179.1621856689453 146.28013610839844" stroke-width="0.0" fill="rgb(255, 239, 112)" opacity="0.0" stroke="rgb(0, 0, 0)" stroke-opacity="1.0" stroke-linecap="round" stroke-linejoin="round"/>
    <path d="M 164.38876342773438 417.50982666015625 C 193.91273498535156 421.55682373046875 161.2393798828125 417.45770263671875 137.6318359375 412.3668212890625 C 140.94703674316406 397.1284484863281 148.53765869140625 420.01361083984375 181.0673828125 388.3275451660156 C 171.24769592285156 369.3523864746094 180.9557647705078 368.9510192871094 153.65943908691406 391.4678955078125 C 152.5109100341797 397.7772216796875 164.33193969726562 401.7405090332031 164.38876342773438 417.50982666015625" stroke-width="0.0" fill="rgb(25, 23, 138)" opacity="0.07845857" stroke="rgb(0, 0, 0)" stroke-opacity="1.0" stroke-linecap="round" stroke-linejoin="round"/>
    <path d="M 472.941162109375 108.69178009033203 C 477.37322998046875 150.3459014892578 489.3108215332031 144.2372283935547 446.77923583984375 143.16856384277344 C 458.2501220703125 137.34835815429688 445.85174560546875 112.16167449951172 430.6428527832031 121.75138092041016 C 440.18267822265625 129.371337890625 440.2229309082031 129.09971618652344 424.4695739746094 114.89798736572266 C 466.9615478515625 106.01464080810547 473.55084228515625 102.44361114501953 472.941162109375 108.69178009033203" stroke-width="0.0" fill="rgb(0, 34, 165)" opacity="0.02223572" stroke="rgb(0, 0, 0)" stroke-opacity="1.0" stroke-linecap="round" stroke-linejoin="round"/>
    <path d="M 253.67144775390625 307.5850830078125 C 239.13674926757812 291.5245056152344 243.44357299804688 305.6575622558594 222.81639099121094 331.20458984375 C 206.53916931152344 346.7138671875 215.08749389648438 331.0935363769531 224.7941131591797 319.31488037109375 C 230.3068389892578 304.5264892578125 223.57850646972656 299.2411804199219 232.74771118164062 289.2229309082031 C 250.8031463623047 272.6822814941406 262.01885986328125 292.4237976074219 253.67144775390625 307.5850830078125" stroke-width="0.0" fill="rgb(255, 102, 57)" opacity="0.0" stroke="rgb(0, 0, 0)" stroke-opacity="1.0" stroke-linecap="round" stroke-linejoin="round"/>
    <path d="M 142.86358642578125 528.5382690429688 C 116.34579467773438 491.3793640136719 128.0919952392578 478.4686584472656 135.16038513183594 505.36322021484375 C 130.88877868652344 521.283203125 111.82644653320312 521.1681518554688 123.38941955566406 472.3891906738281 C 128.28794860839844 450.5569763183594 139.2401580810547 457.39141845703125 160.690673828125 459.8798828125 C 174.12777709960938 514.7662963867188 181.12448120117188 524.6463623046875 142.86358642578125 528.5382690429688" stroke-width="0.0" fill="rgb(0, 82, 0)" opacity="0.11386065" stroke="rgb(0, 0, 0)" stroke-opacity="1.0" stroke-linecap="round" stroke-linejoin="round"/>
  </g>
</svg>
