<?xml version="1.0" ?>
<svg xmlns="http://www.w3.org/2000/svg" version="1.1" width="512" height="512">
  <defs/>
  <g>
    <path d="M 533.1273193359375 455.2021179199219 C 539.9406127929688 513.6859741210938 547.0262451171875 524.7042846679688 458.9625549316406 527.8961181640625 C 387.3217468261719 528.6524658203125 341.842529296875 557.9976196289062 211.3228302001953 517.3333129882812 C 252.14999389648438 288.80810546875 304.27301025390625 349.6353454589844 473.5257263183594 330.13409423828125 C 574.8527221679688 331.39874267578125 570.504638671875 353.01129150390625 533.1273193359375 455.2021179199219" stroke-width="0.0" fill="rgb(42, 21, 163)" opacity="0.98819757" stroke="rgb(0, 0, 0)" stroke-opacity="1.0" stroke-linecap="round" stroke-linejoin="round"/>
    <path d="M 295.0621337890625 447.2124938964844 C 150.46755981445312 420.9256591796875 305.7565002441406 532.78759765625 118.14946746826172 562.218994140625 C -51.20000076293945 518.5575561523438 -51.20000076293945 507.9428405761719 -34.97279739379883 447.6195068359375 C -33.62049102783203 193.1204376220703 -29.53806495666504 185.7618408203125 56.429019927978516 146.37274169921875 C 230.58128356933594 235.64772033691406 269.1755676269531 219.11180114746094 295.0621337890625 447.2124938964844" stroke-width="0.0" fill="rgb(2, 144, 158)" opacity="0.9188494" stroke="rgb(0, 0, 0)" stroke-opacity="1.0" stroke-linecap="round" stroke-linejoin="round"/>
    <path d="M 302.4016418457031 317.4447326660156 C 229.83253479003906 456.11102294921875 283.7647399902344 465.2787780761719 213.81744384765625 466.21746826171875 C 88.49478912353516 327.892578125 117.0959243774414 267.65643310546875 77.58192443847656 141.6182098388672 C -18.025482177734375 151.66864013671875 13.294761657714844 181.3434600830078 92.22534942626953 157.5755157470703 C 217.53880310058594 196.4717559814453 171.0929718017578 229.99588012695312 302.4016418457031 317.4447326660156" stroke-width="0.0" fill="rgb(36, 147, 167)" opacity="0.49388832" stroke="rgb(0, 0, 0)" stroke-opacity="1.0" stroke-linecap="round" stroke-linejoin="round"/>
    <path d="M 280.1709899902344 2.623497724533081 C 227.05386352539062 171.7111053466797 187.99801635742188 173.6446075439453 -12.274831771850586 184.68971252441406 C -17.794580459594727 199.7908477783203 -15.905299186706543 182.16893005371094 -15.139555931091309 32.42848587036133 C -13.004427909851074 -13.631946563720703 -4.874516010284424 -18.456117630004883 32.33893966674805 -28.297353744506836 C 200.38223266601562 -33.906097412109375 227.86187744140625 -43.02964782714844 280.1709899902344 2.623497724533081" stroke-width="0.0" fill="rgb(13, 154, 168)" opacity="1.0" stroke="rgb(0, 0, 0)" stroke-opacity="1.0" stroke-linecap="round" stroke-linejoin="round"/>
    <path d="M 563.2760009765625 163.78036499023438 C 465.27569580078125 292.8915100097656 427.41546630859375 276.101318359375 325.0543212890625 305.2511291503906 C 272.3328552246094 345.0920104980469 240.56478881835938 362.2113342285156 245.4604949951172 167.10740661621094 C 211.79132080078125 41.29376983642578 198.2649688720703 -7.1234941482543945 417.0792236328125 -53.8935661315918 C 563.2000122070312 0.19759994745254517 563.2000122070312 17.676347732543945 563.2760009765625 163.78036499023438" stroke-width="0.0" fill="rgb(24, 5, 113)" opacity="0.97328424" stroke="rgb(0, 0, 0)" stroke-opacity="1.0" stroke-linecap="round" stroke-linejoin="round"/>
    <path d="M 341.6925048828125 77.31330871582031 C 305.12542724609375 313.1416320800781 336.5837097167969 337.09283447265625 225.36761474609375 287.5953369140625 C 95.75820922851562 209.17349243164062 84.513427734375 231.333251953125 91.58390808105469 220.70152282714844 C 107.98783111572266 134.21128845214844 87.88003540039062 72.57300567626953 278.0498352050781 -27.367876052856445 C 431.55426025390625 -5.1202239990234375 439.465087890625 -4.009189128875732 341.6925048828125 77.31330871582031" stroke-width="0.0" fill="rgb(5, 144, 183)" opacity="0.9516822" stroke="rgb(0, 0, 0)" stroke-opacity="1.0" stroke-linecap="round" stroke-linejoin="round"/>
    <path d="M 539.8509521484375 348.3813171386719 C 527.067626953125 488.710693359375 584.4014892578125 502.17529296875 321.0060729980469 521.1299438476562 C 256.99853515625 437.50421142578125 242.9228515625 439.6504211425781 270.1671142578125 379.63494873046875 C 234.9307861328125 238.9895477294922 292.9845886230469 225.1002960205078 331.60443115234375 235.32980346679688 C 407.74224853515625 281.6022644042969 441.8870544433594 268.1118469238281 539.8509521484375 348.3813171386719" stroke-width="0.0" fill="rgb(255, 246, 0)" opacity="1.0" stroke="rgb(0, 0, 0)" stroke-opacity="1.0" stroke-linecap="round" stroke-linejoin="round"/>
    <path d="M 540.8089599609375 212.14068603515625 C 551.4861450195312 319.3375244140625 561.6752319335938 356.60296630859375 494.5530700683594 406.2093505859375 C 321.3317565917969 415.3340759277344 344.5962829589844 376.5445251464844 383.34130859375 205.5591583251953 C 371.2191162109375 54.71146774291992 337.9848327636719 -54.216217041015625 523.735107421875 125.70488739013672 C 573.5366821289062 131.9237518310547 550.2368774414062 136.7052764892578 540.8089599609375 212.14068603515625" stroke-width="0.0" fill="rgb(0, 118, 157)" opacity="0.99796367" stroke="rgb(0, 0, 0)" stroke-opacity="1.0" stroke-linecap="round" stroke-linejoin="round"/>
    <path d="M 284.96533203125 256.5025329589844 C 283.2953796386719 262.15167236328125 288.8849792480469 247.41079711914062 285.0723876953125 287.1785888671875 C 265.6465148925781 298.79351806640625 286.8480529785156 276.16650390625 216.99356079101562 251.65499877929688 C 141.009765625 113.74114990234375 118.78909301757812 102.33824157714844 335.7578125 88.78627014160156 C 304.32452392578125 200.78627014160156 294.70361328125 242.14456176757812 284.96533203125 256.5025329589844" stroke-width="0.0" fill="rgb(254, 166, 62)" opacity="0.99667656" stroke="rgb(0, 0, 0)" stroke-opacity="1.0" stroke-linecap="round" stroke-linejoin="round"/>
    <path d="M 467.2778625488281 388.627685546875 C 333.61334228515625 355.01654052734375 382.9992980957031 269.659912109375 374.8465270996094 249.5379638671875 C 371.1023254394531 231.09024047851562 369.9347229003906 245.26669311523438 345.20135498046875 253.9577178955078 C 346.27972412109375 215.98056030273438 342.9226989746094 185.60723876953125 374.6312255859375 94.1407699584961 C 425.7812194824219 87.29280090332031 500.5718688964844 27.600784301757812 467.2778625488281 388.627685546875" stroke-width="0.0" fill="rgb(4, 118, 161)" opacity="0.9323803" stroke="rgb(0, 0, 0)" stroke-opacity="1.0" stroke-linecap="round" stroke-linejoin="round"/>
    <path d="M 244.32794189453125 256.6954040527344 C 241.09149169921875 288.6338806152344 239.82681274414062 268.8570861816406 220.45004272460938 314.6456298828125 C 212.70932006835938 303.5146789550781 196.74508666992188 282.9854736328125 105.29167938232422 226.8880615234375 C 120.40225219726562 137.51504516601562 111.94091796875 103.27882385253906 210.4361114501953 108.78121185302734 C 232.945068359375 234.46546936035156 263.7808532714844 182.69207763671875 244.32794189453125 256.6954040527344" stroke-width="0.0" fill="rgb(6, 155, 170)" opacity="1.0" stroke="rgb(0, 0, 0)" stroke-opacity="1.0" stroke-linecap="round" stroke-linejoin="round"/>
    <path d="M 399.9829406738281 331.9308166503906 C 394.189697265625 339.1867980957031 367.9035949707031 284.5332946777344 377.9769287109375 538.3350830078125 C 149.81732177734375 516.2151489257812 266.6395568847656 436.02935791015625 336.573486328125 323.4970397949219 C 358.3370056152344 151.81459045410156 363.92828369140625 114.3965072631836 346.10565185546875 235.2826690673828 C 388.130126953125 236.19293212890625 416.7769470214844 271.34539794921875 399.9829406738281 331.9308166503906" stroke-width="0.0" fill="rgb(255, 230, 10)" opacity="1.0" stroke="rgb(0, 0, 0)" stroke-opacity="1.0" stroke-linecap="round" stroke-linejoin="round"/>
    <path d="M 529.5477294921875 72.6277847290039 C 550.9789428710938 136.7539825439453 567.3034057617188 213.35403442382812 558.4398803710938 195.1974639892578 C 477.9980773925781 77.90715026855469 432.5923156738281 50.256614685058594 348.0282287597656 -5.890130519866943 C 340.8875732421875 -68.4369125366211 381.0199890136719 -47.64286422729492 449.5455627441406 -35.57854080200195 C 540.7651977539062 -11.036957740783691 538.5833740234375 2.1987524032592773 529.5477294921875 72.6277847290039" stroke-width="0.0" fill="rgb(13, 161, 170)" opacity="1.0" stroke="rgb(0, 0, 0)" stroke-opacity="1.0" stroke-linecap="round" stroke-linejoin="round"/>
    <path d="M 409.15875244140625 61.09529113769531 C 431.2226257324219 24.550485610961914 412.2635192871094 17.349773406982422 361.8792724609375 52.848854064941406 C 356.8741149902344 75.31623840332031 358.7843933105469 64.11918640136719 389.4638671875 53.77427291870117 C 396.5127258300781 33.0123405456543 366.00732421875 43.62242126464844 337.0000915527344 60.211524963378906 C 351.7259216308594 117.77812957763672 412.01275634765625 117.22404479980469 409.15875244140625 61.09529113769531" stroke-width="0.0" fill="rgb(240, 170, 46)" opacity="0.92918974" stroke="rgb(0, 0, 0)" stroke-opacity="1.0" stroke-linecap="round" stroke-linejoin="round"/>
    <path d="M 397.81378173828125 366.6928405761719 C 428.03216552734375 361.224853515625 418.21343994140625 403.6294860839844 445.8455810546875 435.3380126953125 C 453.15753173828125 422.6535949707031 446.2319641113281 419.66363525390625 376.2847900390625 387.430419921875 C 361.0130920410156 313.6900939941406 397.5628662109375 336.0364990234375 394.7447204589844 346.5136413574219 C 394.2490234375 403.7953796386719 392.43524169921875 413.74017333984375 397.81378173828125 366.6928405761719" stroke-width="0.0" fill="rgb(4, 111, 165)" opacity="0.9977503" stroke="rgb(0, 0, 0)" stroke-opacity="1.0" stroke-linecap="round" stroke-linejoin="round"/>
    <path d="M 352.2430114746094 407.5028381347656 C 290.51385498046875 453.89764404296875 297.1344299316406 484.58746337890625 266.5318603515625 505.33489990234375 C 232.2952423095703 487.0814208984375 232.6935577392578 457.9988708496094 246.98789978027344 426.5789489746094 C 241.92503356933594 393.12213134765625 266.4084777832031 353.98956298828125 294.76470947265625 380.7480773925781 C 336.3142395019531 353.7557373046875 244.56016540527344 399.8060607910156 352.2430114746094 407.5028381347656" stroke-width="0.0" fill="rgb(255, 240, 7)" opacity="1.0" stroke="rgb(0, 0, 0)" stroke-opacity="1.0" stroke-linecap="round" stroke-linejoin="round"/>
    <path d="M 473.3592224121094 463.1675109863281 C 507.40081787109375 556.7128295898438 417.9411315917969 492.6160888671875 377.8287048339844 521.4127807617188 C 307.4292297363281 534.6390991210938 290.0301818847656 555.4461059570312 310.0369873046875 524.4570922851562 C 447.0863952636719 534.9642333984375 445.8465881347656 443.61376953125 407.020751953125 406.6239929199219 C 434.08319091796875 385.39111328125 467.4080810546875 386.50213623046875 473.3592224121094 463.1675109863281" stroke-width="0.0" fill="rgb(10, 115, 154)" opacity="0.9937352" stroke="rgb(0, 0, 0)" stroke-opacity="1.0" stroke-linecap="round" stroke-linejoin="round"/>
    <path d="M 569.8851928710938 457.2508239746094 C 556.4638671875 485.4346923828125 559.3497924804688 509.4483947753906 425.65826416015625 598.4228515625 C 377.8529357910156 526.2344360351562 437.0331726074219 475.43121337890625 455.08074951171875 405.9853515625 C 474.1765441894531 377.426025390625 495.9076843261719 373.7549133300781 521.2562255859375 172.9515380859375 C 540.9708251953125 227.46273803710938 548.8619995117188 327.8145751953125 569.8851928710938 457.2508239746094" stroke-width="0.0" fill="rgb(2, 120, 153)" opacity="1.0" stroke="rgb(0, 0, 0)" stroke-opacity="1.0" stroke-linecap="round" stroke-linejoin="round"/>
    <path d="M 284.01239013671875 403.36431884765625 C 219.14093017578125 405.8481140136719 208.3846435546875 390.0682678222656 230.81124877929688 362.3156433105469 C 235.23745727539062 401.24920654296875 222.4465789794922 414.28857421875 226.03321838378906 315.29815673828125 C 267.9406433105469 324.0374450683594 222.4999542236328 303.41180419921875 270.01800537109375 336.67547607421875 C 297.8475646972656 316.55792236328125 292.027099609375 391.9163818359375 284.01239013671875 403.36431884765625" stroke-width="0.0" fill="rgb(132, 1, 114)" opacity="1.0" stroke="rgb(0, 0, 0)" stroke-opacity="1.0" stroke-linecap="round" stroke-linejoin="round"/>
    <path d="M 8.017446517944336 523.0326538085938 C 17.174198150634766 520.413330078125 10.538132667541504 527.49951171875 0.7022038698196411 530.6587524414062 C -9.364206314086914 527.7437133789062 -16.68471336364746 520.4232177734375 -19.364206314086914 510.4232177734375 C -16.684417724609375 500.4241638183594 -9.341285705566406 493.1831359863281 -12.042186737060547 503.2685241699219 C -3.677582263946533 507.53009033203125 3.6094553470611572 514.7254638671875 8.017446517944336 523.0326538085938" stroke-width="0.0" fill="rgb(29, 3, 0)" opacity="0.113359906" stroke="rgb(0, 0, 0)" stroke-opacity="1.0" stroke-linecap="round" stroke-linejoin="round"/>
    <path d="M 326.0502624511719 433.7717590332031 C 290.6790771484375 456.84588623046875 317.5845642089844 415.8779602050781 315.5469055175781 488.3547668457031 C 336.2477722167969 510.7353210449219 305.11932373046875 457.7538146972656 315.663818359375 346.9035949707031 C 286.32757568359375 431.80145263671875 346.46563720703125 433.83038330078125 323.849365234375 434.3902587890625 C 288.7216491699219 416.6884460449219 320.3177185058594 439.2324523925781 326.0502624511719 433.7717590332031" stroke-width="0.0" fill="rgb(49, 10, 6)" opacity="0.924124" stroke="rgb(0, 0, 0)" stroke-opacity="1.0" stroke-linecap="round" stroke-linejoin="round"/>
    <path d="M 325.231689453125 300.8499450683594 C 357.83819580078125 257.7901916503906 349.2798156738281 266.189208984375 350.8006591796875 355.3585510253906 C 301.4751892089844 351.02667236328125 322.0432434082031 371.1773681640625 317.3815612792969 300.23846435546875 C 344.2560119628906 318.51678466796875 348.27984619140625 285.2393798828125 294.2377624511719 311.49176025390625 C 282.8918762207031 304.2977600097656 342.6062316894531 295.6752014160156 325.231689453125 300.8499450683594" stroke-width="0.0" fill="rgb(20, 0, 50)" opacity="0.96489817" stroke="rgb(0, 0, 0)" stroke-opacity="1.0" stroke-linecap="round" stroke-linejoin="round"/>
    <path d="M 302.7224426269531 404.8319091796875 C 280.0151672363281 407.14837646484375 310.2324523925781 423.58526611328125 273.83477783203125 419.2999572753906 C 267.2431945800781 419.5032958984375 267.8435974121094 384.4151916503906 275.50457763671875 383.15618896484375 C 252.46705627441406 385.9215393066406 269.85791015625 396.9610900878906 323.69842529296875 378.6824035644531 C 289.8250427246094 337.006591796875 292.85430908203125 362.1500244140625 302.7224426269531 404.8319091796875" stroke-width="0.0" fill="rgb(241, 217, 60)" opacity="0.0" stroke="rgb(0, 0, 0)" stroke-opacity="1.0" stroke-linecap="round" stroke-linejoin="round"/>
    <path d="M 346.0225830078125 95.47046661376953 C 286.00335693359375 98.31741333007812 264.5540771484375 93.24783325195312 262.18157958984375 89.51637268066406 C 266.79620361328125 115.30992889404297 268.8603515625 102.22643280029297 240.61825561523438 107.76610565185547 C 209.1543426513672 104.43927764892578 247.65846252441406 115.00798797607422 273.77716064453125 91.31111145019531 C 330.1311950683594 77.79759216308594 332.3629455566406 99.55565643310547 346.0225830078125 95.47046661376953" stroke-width="0.0" fill="rgb(43, 135, 175)" opacity="0.68711567" stroke="rgb(0, 0, 0)" stroke-opacity="1.0" stroke-linecap="round" stroke-linejoin="round"/>
    <path d="M 299.96533203125 425.1412353515625 C 305.5954895019531 404.1591796875 286.46148681640625 398.88873291015625 331.94232177734375 524.1849975585938 C 361.17529296875 431.55841064453125 381.1895751953125 423.05584716796875 327.5494079589844 424.54693603515625 C 303.87945556640625 428.5984191894531 321.4620666503906 445.3268127441406 323.26263427734375 379.08770751953125 C 318.8374328613281 437.36566162109375 313.8985900878906 426.7041931152344 299.96533203125 425.1412353515625" stroke-width="0.0" fill="rgb(20, 0, 52)" opacity="1.0" stroke="rgb(0, 0, 0)" stroke-opacity="1.0" stroke-linecap="round" stroke-linejoin="round"/>
    <path d="M 389.94561767578125 69.95941162109375 C 384.6417541503906 63.7081184387207 376.2959289550781 78.66573333740234 388.6697998046875 73.77977752685547 C 366.67108154296875 64.95318603515625 340.68792724609375 68.02386474609375 344.3919982910156 120.35356140136719 C 392.53472900390625 117.525634765625 398.0931091308594 90.84605407714844 372.5422058105469 67.86692810058594 C 362.5225524902344 66.65087890625 361.68865966796875 82.95901489257812 389.94561767578125 69.95941162109375" stroke-width="0.0" fill="rgb(251, 137, 75)" opacity="0.60483235" stroke="rgb(0, 0, 0)" stroke-opacity="1.0" stroke-linecap="round" stroke-linejoin="round"/>
    <path d="M 312.125732421875 142.86410522460938 C 298.8664245605469 162.9640350341797 303.2265319824219 208.6643829345703 288.44879150390625 251.5879669189453 C 228.02297973632812 191.65426635742188 216.33360290527344 179.93746948242188 243.96185302734375 166.49575805664062 C 299.7633972167969 164.5022430419922 314.3163757324219 171.96006774902344 324.0592346191406 167.13075256347656 C 317.1309509277344 150.06663513183594 310.401123046875 152.58901977539062 312.125732421875 142.86410522460938" stroke-width="0.0" fill="rgb(255, 250, 250)" opacity="0.9835232" stroke="rgb(0, 0, 0)" stroke-opacity="1.0" stroke-linecap="round" stroke-linejoin="round"/>
    <path d="M 263.4488525390625 396.1318359375 C 243.26870727539062 450.5689392089844 229.7715606689453 441.29376220703125 218.57415771484375 431.2459411621094 C 223.05508422851562 409.127685546875 224.52235412597656 390.0923767089844 218.39581298828125 379.0291748046875 C 227.54856872558594 372.8662109375 222.9013214111328 384.2295227050781 263.5126647949219 395.9339294433594 C 269.2389221191406 381.4087219238281 278.5036315917969 374.7801818847656 263.4488525390625 396.1318359375" stroke-width="0.0" fill="rgb(149, 0, 115)" opacity="1.0" stroke="rgb(0, 0, 0)" stroke-opacity="1.0" stroke-linecap="round" stroke-linejoin="round"/>
    <path d="M 349.5516357421875 237.00852966308594 C 344.20477294921875 232.8602294921875 347.9029235839844 249.2147674560547 349.1773376464844 268.12786865234375 C 344.71875 313.6971435546875 350.2207336425781 323.0404357910156 316.6416931152344 302.4907531738281 C 327.8467102050781 255.24375915527344 315.3724670410156 203.71119689941406 327.1365966796875 186.52537536621094 C 355.8163146972656 221.02589416503906 347.1559753417969 234.43362426757812 349.5516357421875 237.00852966308594" stroke-width="0.0" fill="rgb(15, 0, 49)" opacity="1.0" stroke="rgb(0, 0, 0)" stroke-opacity="1.0" stroke-linecap="round" stroke-linejoin="round"/>
    <path d="M 274.3571472167969 385.1160583496094 C 270.6249694824219 413.4688720703125 279.5981140136719 391.4088134765625 244.48167419433594 365.7908630371094 C 222.69473266601562 350.0835266113281 210.4324493408203 342.7374572753906 208.18112182617188 330.0059814453125 C 180.87818908691406 324.72601318359375 172.6917724609375 314.4111633300781 181.9622039794922 349.13128662109375 C 200.9761199951172 366.3470153808594 222.7169952392578 368.5647277832031 274.3571472167969 385.1160583496094" stroke-width="0.0" fill="rgb(129, 60, 125)" opacity="0.7493706" stroke="rgb(0, 0, 0)" stroke-opacity="1.0" stroke-linecap="round" stroke-linejoin="round"/>
    <path d="M 446.5594787597656 387.6192932128906 C 452.07672119140625 392.824951171875 456.2984619140625 391.46087646484375 446.0240783691406 404.9093322753906 C 438.258544921875 450.219482421875 449.1205139160156 476.1463317871094 396.4871520996094 465.34674072265625 C 404.351318359375 383.25848388671875 412.4980773925781 365.62847900390625 442.1798400878906 392.40472412109375 C 455.21630859375 409.4322204589844 452.54046630859375 398.853759765625 446.5594787597656 387.6192932128906" stroke-width="0.0" fill="rgb(16, 116, 165)" opacity="0.0" stroke="rgb(0, 0, 0)" stroke-opacity="1.0" stroke-linecap="round" stroke-linejoin="round"/>
    <path d="M 397.4445495605469 397.339599609375 C 404.803955078125 409.61260986328125 404.582275390625 409.8920593261719 404.0002746582031 396.7081298828125 C 391.4586181640625 386.9298400878906 414.8638916015625 389.2182922363281 373.38079833984375 384.551025390625 C 358.0379943847656 383.59552001953125 391.20751953125 400.77099609375 426.3420104980469 369.3456115722656 C 409.2372741699219 385.61944580078125 399.56024169921875 379.53265380859375 397.4445495605469 397.339599609375" stroke-width="0.0" fill="rgb(107, 72, 121)" opacity="0.32683223" stroke="rgb(0, 0, 0)" stroke-opacity="1.0" stroke-linecap="round" stroke-linejoin="round"/>
    <path d="M 271.3128662109375 125.5127944946289 C 266.66192626953125 145.2584686279297 277.1794128417969 133.73143005371094 224.335693359375 141.667236328125 C 222.3321990966797 213.7076416015625 241.10879516601562 184.3856964111328 250.42559814453125 127.61796569824219 C 237.8036651611328 117.24191284179688 236.41552734375 112.05286407470703 226.44888305664062 110.55171966552734 C 246.60084533691406 98.92186737060547 295.2792053222656 85.15406036376953 271.3128662109375 125.5127944946289" stroke-width="0.0" fill="rgb(255, 157, 56)" opacity="0.8375508" stroke="rgb(0, 0, 0)" stroke-opacity="1.0" stroke-linecap="round" stroke-linejoin="round"/>
    <path d="M 270.92181396484375 399.90325927734375 C 266.67724609375 436.651123046875 265.3294982910156 427.970947265625 251.1637420654297 442.2893981933594 C 237.964111328125 446.14532470703125 245.62063598632812 431.317626953125 263.38116455078125 415.42059326171875 C 267.7400207519531 417.019775390625 252.20187377929688 417.2589416503906 270.63519287109375 407.4091491699219 C 250.77748107910156 398.6008605957031 256.34002685546875 407.45208740234375 270.92181396484375 399.90325927734375" stroke-width="0.0" fill="rgb(255, 247, 30)" opacity="0.85672504" stroke="rgb(0, 0, 0)" stroke-opacity="1.0" stroke-linecap="round" stroke-linejoin="round"/>
    <path d="M 410.35302734375 325.0170593261719 C 415.2168273925781 304.92529296875 398.77606201171875 331.0753479003906 411.84796142578125 318.02227783203125 C 423.12884521484375 328.87066650390625 395.3786315917969 323.69537353515625 394.07666015625 328.29888916015625 C 413.73956298828125 308.02093505859375 395.2456359863281 271.17547607421875 399.92236328125 231.31776428222656 C 430.8921813964844 291.13055419921875 416.56256103515625 329.366455078125 410.35302734375 325.0170593261719" stroke-width="0.0" fill="rgb(180, 29, 109)" opacity="0.65146667" stroke="rgb(0, 0, 0)" stroke-opacity="1.0" stroke-linecap="round" stroke-linejoin="round"/>
    <path d="M 265.5853576660156 298.09527587890625 C 236.1504364013672 311.31036376953125 257.48779296875 327.33642578125 247.7998809814453 320.61907958984375 C 198.38589477539062 345.1721496582031 165.8334197998047 367.08465576171875 186.75039672851562 311.9786071777344 C 208.1170654296875 270.509765625 225.16612243652344 254.67117309570312 250.2029571533203 244.24911499023438 C 276.808837890625 252.39279174804688 278.96051025390625 265.7637634277344 265.5853576660156 298.09527587890625" stroke-width="0.0" fill="rgb(178, 13, 61)" opacity="0.96447873" stroke="rgb(0, 0, 0)" stroke-opacity="1.0" stroke-linecap="round" stroke-linejoin="round"/>
    <path d="M 265.24566650390625 333.1696472167969 C 266.5704040527344 331.59130859375 262.470703125 335.12060546875 227.81185913085938 336.8528137207031 C 225.8231658935547 350.9753112792969 227.66171264648438 317.1356201171875 231.4866180419922 268.06298828125 C 243.1327667236328 272.3868103027344 236.40487670898438 284.41448974609375 260.7445068359375 284.2685241699219 C 253.76609802246094 264.65338134765625 259.3594970703125 294.1702880859375 265.24566650390625 333.1696472167969" stroke-width="0.0" fill="rgb(153, 17, 96)" opacity="0.88236743" stroke="rgb(0, 0, 0)" stroke-opacity="1.0" stroke-linecap="round" stroke-linejoin="round"/>
    <path d="M 532.4900512695312 40.50206756591797 C 537.0784301757812 62.60050582885742 535.4566650390625 68.97218322753906 513.6535034179688 64.14232635498047 C 514.3236694335938 65.34336853027344 511.6254577636719 65.2318344116211 512.5181274414062 62.438331604003906 C 511.1206359863281 68.77500915527344 523.9354858398438 65.7669906616211 524.8364868164062 60.75090026855469 C 524.3687133789062 34.862693786621094 526.0684814453125 36.85504913330078 532.4900512695312 40.50206756591797" stroke-width="0.0" fill="rgb(198, 101, 57)" opacity="0.78233963" stroke="rgb(0, 0, 0)" stroke-opacity="1.0" stroke-linecap="round" stroke-linejoin="round"/>
    <path d="M 299.53485107421875 306.6544189453125 C 307.9212646484375 306.95751953125 284.97454833984375 310.51123046875 278.8349914550781 328.24957275390625 C 293.4481506347656 335.7919616699219 282.6831970214844 299.8611145019531 252.67054748535156 297.3121643066406 C 262.3585205078125 284.85845947265625 270.4223937988281 273.4546203613281 291.39453125 238.7392578125 C 294.9707336425781 260.2602233886719 305.4867858886719 275.9479675292969 299.53485107421875 306.6544189453125" stroke-width="0.0" fill="rgb(255, 238, 29)" opacity="0.79565" stroke="rgb(0, 0, 0)" stroke-opacity="1.0" stroke-linecap="round" stroke-linejoin="round"/>
    <path d="M 343.9349670410156 109.0181884765625 C 362.4577941894531 77.40884399414062 383.5832214355469 83.14031982421875 340.85430908203125 123.3533706665039 C 299.38214111328125 123.0273666381836 296.8350524902344 112.16388702392578 301.6592712402344 117.77762603759766 C 311.5263671875 90.3193588256836 313.40557861328125 62.757328033447266 368.62127685546875 45.123382568359375 C 371.6159973144531 97.29743957519531 344.39801025390625 113.82054901123047 343.9349670410156 109.0181884765625" stroke-width="0.0" fill="rgb(253, 154, 76)" opacity="0.98409116" stroke="rgb(0, 0, 0)" stroke-opacity="1.0" stroke-linecap="round" stroke-linejoin="round"/>
    <path d="M 376.87518310546875 238.7632293701172 C 402.4263916015625 226.90602111816406 361.6773681640625 223.20896911621094 333.69219970703125 217.2373809814453 C 329.9818115234375 214.9864044189453 337.2019348144531 217.33868408203125 330.9712829589844 217.48171997070312 C 331.86602783203125 211.96983337402344 355.6465759277344 209.43516540527344 355.8555908203125 213.45095825195312 C 343.7063293457031 187.312255859375 339.4908447265625 216.64634704589844 376.87518310546875 238.7632293701172" stroke-width="0.0" fill="rgb(91, 16, 165)" opacity="0.59728837" stroke="rgb(0, 0, 0)" stroke-opacity="1.0" stroke-linecap="round" stroke-linejoin="round"/>
    <path d="M 195.6078338623047 285.20947265625 C 186.46546936035156 279.037353515625 192.15463256835938 295.4530334472656 158.1273651123047 284.9277648925781 C 152.62820434570312 285.9195251464844 151.20396423339844 265.60015869140625 170.48707580566406 180.2462158203125 C 163.95327758789062 175.1934051513672 188.8265838623047 175.14207458496094 181.96800231933594 210.02047729492188 C 188.8795623779297 239.92701721191406 193.72679138183594 270.8267822265625 195.6078338623047 285.20947265625" stroke-width="0.0" fill="rgb(32, 141, 183)" opacity="0.14149566" stroke="rgb(0, 0, 0)" stroke-opacity="1.0" stroke-linecap="round" stroke-linejoin="round"/>
    <path d="M 225.38267517089844 90.2955093383789 C 244.033447265625 114.25099182128906 241.19793701171875 139.8340606689453 210.4265594482422 123.26151275634766 C 174.3784942626953 114.48567962646484 136.25759887695312 117.42041778564453 123.92648315429688 20.534868240356445 C 222.5511932373047 44.79121398925781 219.32130432128906 80.87804412841797 212.2479248046875 76.44041442871094 C 213.7891082763672 60.6443977355957 216.25094604492188 75.56375885009766 225.38267517089844 90.2955093383789" stroke-width="0.0" fill="rgb(255, 167, 89)" opacity="1.0" stroke="rgb(0, 0, 0)" stroke-opacity="1.0" stroke-linecap="round" stroke-linejoin="round"/>
    <path d="M 489.5047302246094 405.3590087890625 C 468.2459716796875 412.6751403808594 457.27569580078125 401.6619567871094 452.1513977050781 427.367919921875 C 406.97747802734375 413.1871032714844 382.35369873046875 404.2696838378906 408.865234375 336.92401123046875 C 392.4673767089844 309.673095703125 427.75469970703125 313.1683349609375 434.193359375 336.20867919921875 C 465.82373046875 368.8465881347656 502.3362731933594 339.92962646484375 489.5047302246094 405.3590087890625" stroke-width="0.0" fill="rgb(1, 122, 156)" opacity="0.5919758" stroke="rgb(0, 0, 0)" stroke-opacity="1.0" stroke-linecap="round" stroke-linejoin="round"/>
    <path d="M 25.81855583190918 110.58444213867188 C 26.222536087036133 189.1085968017578 29.063364028930664 201.88551330566406 3.002243995666504 194.41366577148438 C 14.300030708312988 98.49152374267578 19.850513458251953 109.63118743896484 48.05648422241211 108.50933074951172 C 44.57462692260742 121.13185119628906 44.83199691772461 129.64492797851562 49.848663330078125 84.2066421508789 C 27.387266159057617 101.4542236328125 13.540886878967285 90.31195831298828 25.81855583190918 110.58444213867188" stroke-width="0.0" fill="rgb(0, 151, 140)" opacity="0.011562355" stroke="rgb(0, 0, 0)" stroke-opacity="1.0" stroke-linecap="round" stroke-linejoin="round"/>
    <path d="M 45.957088470458984 475.6811218261719 C 34.40987777709961 466.7132568359375 34.4826545715332 465.70050048828125 44.6873779296875 467.4380798339844 C 35.20029830932617 466.7091064453125 5.366382598876953 480.88134765625 -23.309934616088867 461.8070983886719 C 23.11026382446289 444.8800964355469 22.12179946899414 484.0401306152344 31.409236907958984 414.6903381347656 C 45.788429260253906 403.8743896484375 45.314308166503906 450.1051025390625 45.957088470458984 475.6811218261719" stroke-width="0.0" fill="rgb(36, 129, 193)" opacity="0.014404528" stroke="rgb(0, 0, 0)" stroke-opacity="1.0" stroke-linecap="round" stroke-linejoin="round"/>
    <path d="M 133.63381958007812 249.64048767089844 C 135.61109924316406 248.6904754638672 136.94850158691406 257.9371032714844 145.05686950683594 263.4277038574219 C 136.8372344970703 259.4664306640625 137.51214599609375 248.52049255371094 133.9877471923828 251.97146606445312 C 133.53932189941406 245.29843139648438 131.58853149414062 249.3112030029297 134.39698791503906 254.885498046875 C 133.7678680419922 248.65309143066406 141.0557403564453 253.235107421875 133.63381958007812 249.64048767089844" stroke-width="0.0" fill="rgb(106, 108, 145)" opacity="0.6348974" stroke="rgb(0, 0, 0)" stroke-opacity="1.0" stroke-linecap="round" stroke-linejoin="round"/>
    <path d="M 556.082763671875 251.315673828125 C 549.7818603515625 274.4605407714844 542.4365844726562 279.55535888671875 492.9716796875 290.411376953125 C 482.5631408691406 276.1410827636719 476.48590087890625 252.46092224121094 479.75604248046875 290.5629577636719 C 465.2066955566406 269.27117919921875 472.17877197265625 220.50498962402344 495.0483093261719 239.39427185058594 C 524.631591796875 243.5944366455078 545.4745483398438 243.20989990234375 556.082763671875 251.315673828125" stroke-width="0.0" fill="rgb(0, 118, 142)" opacity="0.10824232" stroke="rgb(0, 0, 0)" stroke-opacity="1.0" stroke-linecap="round" stroke-linejoin="round"/>
    <path d="M 277.5851745605469 431.6786193847656 C 255.3595428466797 424.2474365234375 253.93157958984375 419.22308349609375 267.7489929199219 415.3436584472656 C 266.4990539550781 412.5249938964844 266.1393127441406 403.4333801269531 266.5498352050781 412.6974182128906 C 254.11013793945312 408.7681884765625 258.2143249511719 403.1656799316406 269.885498046875 402.7275695800781 C 269.3602294921875 403.13446044921875 268.51422119140625 407.74432373046875 277.5851745605469 431.6786193847656" stroke-width="0.0" fill="rgb(254, 238, 7)" opacity="0.7140502" stroke="rgb(0, 0, 0)" stroke-opacity="1.0" stroke-linecap="round" stroke-linejoin="round"/>
    <path d="M 91.02969360351562 103.65267181396484 C 95.2867431640625 131.3013916015625 93.38985443115234 139.6717987060547 102.12175750732422 114.96439361572266 C 49.552284240722656 127.19249725341797 43.91400909423828 116.09502410888672 57.958892822265625 85.57257843017578 C 95.57310485839844 102.55763244628906 86.44584655761719 147.49591064453125 57.69758224487305 129.5848846435547 C 50.21291732788086 102.44014739990234 72.1881332397461 100.61194610595703 91.02969360351562 103.65267181396484" stroke-width="0.0" fill="rgb(24, 118, 176)" opacity="0.0" stroke="rgb(0, 0, 0)" stroke-opacity="1.0" stroke-linecap="round" stroke-linejoin="round"/>
    <path d="M 455.50762939453125 238.23190307617188 C 459.66961669921875 232.33782958984375 439.5624084472656 229.71685791015625 453.5094299316406 242.9540557861328 C 452.8316345214844 248.5789794921875 444.6065979003906 238.57083129882812 438.3597106933594 232.5236053466797 C 441.88238525390625 238.69363403320312 459.940185546875 233.74131774902344 448.62457275390625 222.4730987548828 C 449.28759765625 230.8004608154297 459.3588562011719 233.8874969482422 455.50762939453125 238.23190307617188" stroke-width="0.0" fill="rgb(51, 107, 190)" opacity="0.016137283" stroke="rgb(0, 0, 0)" stroke-opacity="1.0" stroke-linecap="round" stroke-linejoin="round"/>
    <path d="M 393.36029052734375 175.35035705566406 C 398.63262939453125 231.90040588378906 380.5516357421875 236.54974365234375 352.22344970703125 224.8258514404297 C 346.6036376953125 215.51722717285156 344.0318603515625 213.7003936767578 349.16571044921875 203.90054321289062 C 348.16693115234375 188.3629150390625 376.5790710449219 185.26536560058594 374.67779541015625 203.13873291015625 C 340.86468505859375 189.73129272460938 366.8257141113281 176.6604461669922 393.36029052734375 175.35035705566406" stroke-width="0.0" fill="rgb(36, 93, 172)" opacity="0.13670163" stroke="rgb(0, 0, 0)" stroke-opacity="1.0" stroke-linecap="round" stroke-linejoin="round"/>
    <path d="M 98.26937103271484 483.12457275390625 C 87.47383880615234 470.9443664550781 106.66252899169922 446.3248291015625 61.98704147338867 412.7149353027344 C 64.89440155029297 498.9725341796875 61.26586151123047 491.227783203125 69.85879516601562 388.4788513183594 C 110.91170501708984 432.90576171875 94.53797912597656 438.3251953125 92.7332763671875 335.2242736816406 C 115.71012878417969 407.42816162109375 101.77330780029297 439.450927734375 98.26937103271484 483.12457275390625" stroke-width="0.0" fill="rgb(67, 110, 211)" opacity="0.0" stroke="rgb(0, 0, 0)" stroke-opacity="1.0" stroke-linecap="round" stroke-linejoin="round"/>
    <path d="M 91.99127197265625 440.26593017578125 C 92.0648193359375 474.2898254394531 85.3122329711914 514.6704711914062 72.45362091064453 468.0367126464844 C 68.14510345458984 464.8810119628906 68.05536651611328 466.9614562988281 56.67277908325195 424.3561706542969 C 70.3436279296875 462.04302978515625 69.6501693725586 464.2294921875 49.5444221496582 450.2596130371094 C 78.88209533691406 457.9637756347656 104.86924743652344 455.24383544921875 91.99127197265625 440.26593017578125" stroke-width="0.0" fill="rgb(20, 156, 161)" opacity="0.0051490976" stroke="rgb(0, 0, 0)" stroke-opacity="1.0" stroke-linecap="round" stroke-linejoin="round"/>
    <path d="M 431.4197692871094 93.50464630126953 C 427.8076477050781 104.75066375732422 436.2214050292969 76.08317565917969 418.6469421386719 52.18838882446289 C 431.5710754394531 60.49064636230469 432.2485656738281 69.3396987915039 422.1913146972656 49.70802688598633 C 408.4240417480469 63.88521957397461 399.9091796875 63.67247772216797 459.0654296875 54.658042907714844 C 468.5679016113281 61.26127624511719 450.7130126953125 54.32456970214844 431.4197692871094 93.50464630126953" stroke-width="0.0" fill="rgb(0, 100, 139)" opacity="0.00087680644" stroke="rgb(0, 0, 0)" stroke-opacity="1.0" stroke-linecap="round" stroke-linejoin="round"/>
    <path d="M 314.7946472167969 128.6828155517578 C 333.0776062011719 157.79991149902344 309.5717468261719 185.89166259765625 325.4552917480469 169.2768096923828 C 306.482177734375 161.5222625732422 286.7982482910156 165.01107788085938 269.7676086425781 150.07606506347656 C 244.4542236328125 153.71536254882812 260.8251647949219 167.20399475097656 296.80072021484375 163.29852294921875 C 273.59185791015625 115.55509185791016 294.4800720214844 138.81973266601562 314.7946472167969 128.6828155517578" stroke-width="0.0" fill="rgb(255, 143, 164)" opacity="0.03282373" stroke="rgb(0, 0, 0)" stroke-opacity="1.0" stroke-linecap="round" stroke-linejoin="round"/>
    <path d="M 470.8903503417969 485.5722961425781 C 464.88787841796875 503.3380126953125 462.8720397949219 510.5797424316406 455.5101623535156 525.6998291015625 C 459.31732177734375 524.3175048828125 452.68292236328125 490.0699462890625 455.0496826171875 497.9368896484375 C 451.0851135253906 504.0389404296875 463.8850402832031 499.75506591796875 463.9715881347656 503.83831787109375 C 450.59521484375 480.99176025390625 466.0989074707031 493.1451416015625 470.8903503417969 485.5722961425781" stroke-width="0.0" fill="rgb(0, 136, 127)" opacity="0.031544987" stroke="rgb(0, 0, 0)" stroke-opacity="1.0" stroke-linecap="round" stroke-linejoin="round"/>
    <path d="M 199.2889404296875 28.38918685913086 C 225.32708740234375 76.03841400146484 234.81312561035156 56.337738037109375 141.9373321533203 16.079679489135742 C 95.70179748535156 24.245182037353516 115.1463394165039 70.87347412109375 112.91622924804688 47.166805267333984 C 116.59140014648438 77.28662872314453 108.73369598388672 90.20758819580078 114.7906494140625 -10.975552558898926 C 171.67608642578125 -22.717304229736328 167.94192504882812 -3.815814971923828 199.2889404296875 28.38918685913086" stroke-width="0.0" fill="rgb(117, 105, 154)" opacity="0.06376268" stroke="rgb(0, 0, 0)" stroke-opacity="1.0" stroke-linecap="round" stroke-linejoin="round"/>
    <path d="M 218.8027801513672 342.8134765625 C 177.45066833496094 312.83343505859375 176.08685302734375 333.1910400390625 179.56593322753906 345.36602783203125 C 184.6885986328125 345.59228515625 180.8966064453125 340.604736328125 177.3162841796875 335.40673828125 C 177.87420654296875 320.95648193359375 187.1260528564453 319.50830078125 178.33596801757812 328.3800964355469 C 176.8683624267578 354.0553283691406 191.56700134277344 371.52947998046875 218.8027801513672 342.8134765625" stroke-width="0.0" fill="rgb(164, 68, 52)" opacity="0.08518274" stroke="rgb(0, 0, 0)" stroke-opacity="1.0" stroke-linecap="round" stroke-linejoin="round"/>
    <path d="M 48.5758171081543 324.5819091796875 C 55.54163360595703 328.44769287109375 41.06332015991211 324.8539123535156 34.43147659301758 328.1446533203125 C 52.71996307373047 327.2286071777344 35.08715057373047 318.1236267089844 37.198726654052734 322.2651672363281 C 28.01163101196289 320.30572509765625 50.90610885620117 323.0661926269531 49.92063522338867 321.6861572265625 C 55.73625183105469 306.86749267578125 55.706642150878906 308.3165588378906 48.5758171081543 324.5819091796875" stroke-width="0.0" fill="rgb(55, 126, 189)" opacity="0.11886473" stroke="rgb(0, 0, 0)" stroke-opacity="1.0" stroke-linecap="round" stroke-linejoin="round"/>
    <path d="M 422.03369140625 467.7394104003906 C 387.9299011230469 436.4945373535156 387.2588806152344 451.78936767578125 406.062744140625 462.4025573730469 C 380.99749755859375 452.39825439453125 367.7838439941406 448.93658447265625 384.2517395019531 448.8728942871094 C 389.1380920410156 438.66656494140625 398.1206970214844 435.2418518066406 391.5613708496094 445.80731201171875 C 387.2650146484375 446.4049072265625 432.5864562988281 469.4090270996094 422.03369140625 467.7394104003906" stroke-width="0.0" fill="rgb(81, 139, 151)" opacity="0.0" stroke="rgb(0, 0, 0)" stroke-opacity="1.0" stroke-linecap="round" stroke-linejoin="round"/>
    <path d="M 164.86888122558594 260.3214416503906 C 184.3710174560547 285.80810546875 145.65016174316406 253.406494140625 130.34645080566406 255.30357360839844 C 141.39915466308594 257.9674377441406 141.89173889160156 229.14749145507812 108.83609771728516 233.0513458251953 C 61.583473205566406 213.8638458251953 94.37683868408203 208.26959228515625 115.74246215820312 223.5213165283203 C 107.0147476196289 270.597900390625 148.91024780273438 267.14337158203125 164.86888122558594 260.3214416503906" stroke-width="0.0" fill="rgb(14, 162, 152)" opacity="0.31002977" stroke="rgb(0, 0, 0)" stroke-opacity="1.0" stroke-linecap="round" stroke-linejoin="round"/>
    <path d="M 128.40476989746094 439.712890625 C 116.93102264404297 433.0478820800781 97.23452758789062 454.1258544921875 92.94772338867188 482.19378662109375 C 86.05432891845703 482.1827697753906 100.00778198242188 468.0728454589844 102.215576171875 445.755126953125 C 101.8104019165039 431.45709228515625 99.81793975830078 405.28778076171875 108.42057800292969 420.3385009765625 C 119.96383666992188 415.6548767089844 123.7966079711914 446.4054870605469 128.40476989746094 439.712890625" stroke-width="0.0" fill="rgb(46, 139, 185)" opacity="0.026544154" stroke="rgb(0, 0, 0)" stroke-opacity="1.0" stroke-linecap="round" stroke-linejoin="round"/>
    <path d="M 259.3341979980469 48.55931091308594 C 252.63616943359375 48.96037673950195 242.43809509277344 46.303165435791016 247.47079467773438 52.04339599609375 C 247.01475524902344 46.822513580322266 227.65284729003906 41.40821075439453 223.27676391601562 49.220314025878906 C 253.41659545898438 53.95884704589844 249.928955078125 46.306026458740234 249.36618041992188 31.208972930908203 C 246.58981323242188 37.73609161376953 251.21588134765625 49.393951416015625 259.3341979980469 48.55931091308594" stroke-width="0.0" fill="rgb(59, 124, 210)" opacity="0.049341768" stroke="rgb(0, 0, 0)" stroke-opacity="1.0" stroke-linecap="round" stroke-linejoin="round"/>
  </g>
</svg>
