<?xml version="1.0" ?>
<svg xmlns="http://www.w3.org/2000/svg" version="1.1" width="512" height="512">
  <defs/>
  <g>
    <path d="M 511.5621643066406 452.1752014160156 C 414.5173645019531 454.3893127441406 363.1446228027344 554.8873901367188 490.2652282714844 543.4573364257812 C 599.6528930664062 439.4322814941406 515.2074584960938 453.349609375 491.1881103515625 441.7287902832031 C 472.9828796386719 488.57037353515625 495.9001159667969 461.24676513671875 493.0409240722656 439.9091796875 C 525.1598510742188 433.88299560546875 555.8231201171875 444.7480163574219 511.5621643066406 452.1752014160156" stroke-width="0.0" fill="rgb(0, 29, 87)" opacity="0.98904526" stroke="rgb(0, 0, 0)" stroke-opacity="1.0" stroke-linecap="round" stroke-linejoin="round"/>
    <path d="M 302.8651123046875 485.4407958984375 C 271.3429870605469 548.5916748046875 194.40357971191406 561.1168212890625 112.8572998046875 444.57281494140625 C 25.018218994140625 416.837890625 117.88887023925781 422.884765625 -80.59683227539062 383.9738464355469 C 34.739768981933594 225.80650329589844 -24.597219467163086 320.121337890625 -9.852461814880371 203.58572387695312 C 104.72929382324219 61.532997131347656 237.18307495117188 183.10455322265625 302.8651123046875 485.4407958984375" stroke-width="0.0" fill="rgb(106, 218, 0)" opacity="0.9949657" stroke="rgb(0, 0, 0)" stroke-opacity="1.0" stroke-linecap="round" stroke-linejoin="round"/>
    <path d="M 427.314453125 124.535400390625 C 450.2702331542969 347.9915466308594 426.4314880371094 354.9958801269531 280.1737060546875 331.5981750488281 C 153.96099853515625 337.51446533203125 107.76751708984375 327.3689880371094 255.79783630371094 100.97900390625 C 160.41497802734375 77.890869140625 161.9030303955078 5.202666759490967 343.2666931152344 -7.197446346282959 C 413.06353759765625 85.21267700195312 480.6749572753906 13.663248062133789 427.314453125 124.535400390625" stroke-width="0.0" fill="rgb(171, 254, 0)" opacity="0.9932177" stroke="rgb(0, 0, 0)" stroke-opacity="1.0" stroke-linecap="round" stroke-linejoin="round"/>
    <path d="M 343.0576477050781 137.62973022460938 C 326.002685546875 375.6655578613281 254.85194396972656 413.3033447265625 202.3630828857422 342.9334411621094 C 80.30878448486328 243.77394104003906 31.497167587280273 333.8092956542969 50.54523849487305 138.57936096191406 C 30.145505905151367 48.763275146484375 143.56153869628906 64.07117462158203 145.9835968017578 48.40259552001953 C 241.638427734375 -16.705373764038086 291.9006652832031 -7.411398887634277 343.0576477050781 137.62973022460938" stroke-width="0.0" fill="rgb(241, 180, 202)" opacity="0.93800575" stroke="rgb(0, 0, 0)" stroke-opacity="1.0" stroke-linecap="round" stroke-linejoin="round"/>
    <path d="M 513.45458984375 434.7364501953125 C 406.1045837402344 535.2047729492188 418.6533203125 300.32452392578125 461.2279357910156 468.91796875 C 248.23155212402344 524.4761352539062 341.830810546875 512.1022338867188 275.7248840332031 466.33453369140625 C 214.51638793945312 256.6723937988281 247.95687866210938 297.5073547363281 316.80572509765625 200.88418579101562 C 435.5555114746094 98.39836120605469 559.5089721679688 168.11807250976562 513.45458984375 434.7364501953125" stroke-width="0.0" fill="rgb(133, 157, 243)" opacity="0.7182547" stroke="rgb(0, 0, 0)" stroke-opacity="1.0" stroke-linecap="round" stroke-linejoin="round"/>
    <path d="M 515.8373413085938 220.5244140625 C 541.994873046875 325.2810363769531 481.0560302734375 242.9462127685547 560.2796630859375 361.33709716796875 C 444.0576171875 448.0140686035156 257.7373962402344 353.9440612792969 440.1909484863281 190.2524871826172 C 341.25958251953125 197.90611267089844 388.5506286621094 120.79141235351562 424.8990478515625 111.72320556640625 C 451.7613220214844 186.9442596435547 473.36279296875 166.7838897705078 515.8373413085938 220.5244140625" stroke-width="0.0" fill="rgb(2, 96, 21)" opacity="0.9330591" stroke="rgb(0, 0, 0)" stroke-opacity="1.0" stroke-linecap="round" stroke-linejoin="round"/>
    <path d="M 415.1487731933594 206.3738250732422 C 309.2584533691406 261.76446533203125 320.5357971191406 282.81072998046875 268.0568542480469 287.6385498046875 C 220.40414428710938 278.3597106933594 295.2767333984375 330.85809326171875 79.57552337646484 187.90846252441406 C 312.5208740234375 203.3500518798828 190.44837951660156 265.2331237792969 274.4452209472656 232.4274139404297 C 335.5560607910156 192.23744201660156 418.8223571777344 157.25958251953125 415.1487731933594 206.3738250732422" stroke-width="0.0" fill="rgb(104, 240, 0)" opacity="1.0" stroke="rgb(0, 0, 0)" stroke-opacity="1.0" stroke-linecap="round" stroke-linejoin="round"/>
    <path d="M 390.5103454589844 191.91819763183594 C 380.7859802246094 202.0105743408203 365.5805358886719 194.26162719726562 330.9896545410156 210.14871215820312 C 308.0924987792969 214.66317749023438 327.3041687011719 217.2609405517578 260.41033935546875 239.4320526123047 C 320.4779052734375 69.64059448242188 223.03952026367188 159.5479736328125 344.56597900390625 131.13790893554688 C 409.83746337890625 174.16400146484375 538.387451171875 206.4442596435547 390.5103454589844 191.91819763183594" stroke-width="0.0" fill="rgb(3, 65, 65)" opacity="0.9698913" stroke="rgb(0, 0, 0)" stroke-opacity="1.0" stroke-linecap="round" stroke-linejoin="round"/>
    <path d="M 304.11590576171875 293.8511047363281 C 268.3126525878906 314.48272705078125 275.8844909667969 292.7506103515625 259.9591064453125 266.0653381347656 C 259.86346435546875 241.8566436767578 227.6681365966797 240.53970336914062 153.7015380859375 184.59983825683594 C 231.43145751953125 150.78976440429688 133.61671447753906 210.68240356445312 223.96072387695312 206.6746826171875 C 247.61439514160156 222.1401824951172 247.600341796875 278.0396423339844 304.11590576171875 293.8511047363281" stroke-width="0.0" fill="rgb(220, 202, 186)" opacity="0.9652798" stroke="rgb(0, 0, 0)" stroke-opacity="1.0" stroke-linecap="round" stroke-linejoin="round"/>
    <path d="M 446.634033203125 204.73934936523438 C 288.0964050292969 303.05059814453125 566.3009033203125 230.1999053955078 470.0455322265625 380.52886962890625 C 188.55091857910156 375.73419189453125 204.01548767089844 385.0350036621094 223.19955444335938 345.156494140625 C 354.1604309082031 231.05577087402344 381.03717041015625 248.39727783203125 400.4697265625 273.7172546386719 C 389.7584533691406 244.03419494628906 451.1142578125 197.423095703125 446.634033203125 204.73934936523438" stroke-width="0.0" fill="rgb(13, 105, 23)" opacity="0.0126257045" stroke="rgb(0, 0, 0)" stroke-opacity="1.0" stroke-linecap="round" stroke-linejoin="round"/>
    <path d="M 168.55612182617188 87.47596740722656 C 255.2729034423828 64.01725006103516 245.62750244140625 149.80267333984375 194.8059844970703 103.21464538574219 C 85.27397918701172 113.97525024414062 -52.44260025024414 246.0076141357422 84.656005859375 11.166730880737305 C 324.2149658203125 26.77180290222168 219.88818359375 169.4035186767578 144.75076293945312 65.86764526367188 C 340.89263916015625 -19.4808406829834 207.793701171875 42.02018737792969 168.55612182617188 87.47596740722656" stroke-width="0.0" fill="rgb(159, 255, 4)" opacity="0.86063045" stroke="rgb(0, 0, 0)" stroke-opacity="1.0" stroke-linecap="round" stroke-linejoin="round"/>
    <path d="M 180.29605102539062 400.0538024902344 C 167.139404296875 393.6292419433594 191.965576171875 372.6445617675781 176.60723876953125 446.0417175292969 C 138.30789184570312 394.5937805175781 144.45289611816406 403.6741638183594 132.8622589111328 314.208251953125 C 129.36119079589844 304.24951171875 94.3076171875 290.59210205078125 167.17807006835938 289.558349609375 C 140.1031951904297 366.3031005859375 174.85833740234375 322.7910461425781 180.29605102539062 400.0538024902344" stroke-width="0.0" fill="rgb(172, 202, 3)" opacity="0.02631225" stroke="rgb(0, 0, 0)" stroke-opacity="1.0" stroke-linecap="round" stroke-linejoin="round"/>
    <path d="M 398.873291015625 58.83918380737305 C 414.4296875 86.9080810546875 434.16656494140625 97.92757415771484 379.86016845703125 81.90922546386719 C 373.4425964355469 60.785667419433594 367.9922180175781 24.99779510498047 386.5298767089844 62.981449127197266 C 360.5254211425781 60.383941650390625 365.6753234863281 38.818607330322266 373.72137451171875 41.23239517211914 C 388.01568603515625 69.7969970703125 388.4324951171875 65.05091094970703 398.873291015625 58.83918380737305" stroke-width="0.0" fill="rgb(122, 255, 4)" opacity="0.058993522" stroke="rgb(0, 0, 0)" stroke-opacity="1.0" stroke-linecap="round" stroke-linejoin="round"/>
    <path d="M 517.6248168945312 67.30111694335938 C 506.0906066894531 111.06299591064453 503.0318908691406 84.9632797241211 472.7287292480469 52.409019470214844 C 457.9352722167969 38.881805419921875 450.76220703125 33.761783599853516 418.6022033691406 11.954267501831055 C 407.9505310058594 -17.72612190246582 422.5166015625 -44.57545852661133 447.13458251953125 -52.74238204956055 C 512.826171875 -27.78476333618164 530.1937255859375 -28.636394500732422 517.6248168945312 67.30111694335938" stroke-width="0.0" fill="rgb(16, 37, 73)" opacity="0.93032575" stroke="rgb(0, 0, 0)" stroke-opacity="1.0" stroke-linecap="round" stroke-linejoin="round"/>
    <path d="M 355.9785461425781 506.5284118652344 C 318.231201171875 512.2174682617188 366.6111145019531 486.2113037109375 322.8244323730469 517.0986328125 C 150.56610107421875 551.5094604492188 126.69197845458984 466.3440246582031 156.27178955078125 467.9156188964844 C 203.1890106201172 414.1476745605469 239.66104125976562 389.3031005859375 335.5633544921875 319.7996826171875 C 458.67108154296875 285.7207946777344 435.7987976074219 280.8895263671875 355.9785461425781 506.5284118652344" stroke-width="0.0" fill="rgb(105, 204, 0)" opacity="0.9883484" stroke="rgb(0, 0, 0)" stroke-opacity="1.0" stroke-linecap="round" stroke-linejoin="round"/>
    <path d="M 264.9274597167969 266.28460693359375 C 315.3672180175781 322.15924072265625 345.30340576171875 343.61181640625 266.6918640136719 323.8250427246094 C 158.00119018554688 263.56451416015625 70.27134704589844 200.5497283935547 95.34355163574219 203.28126525878906 C 119.2933578491211 177.3150634765625 191.58349609375 259.9886779785156 257.67034912109375 288.5611267089844 C 200.3067626953125 295.1826477050781 136.2311553955078 274.0447082519531 264.9274597167969 266.28460693359375" stroke-width="0.0" fill="rgb(171, 60, 144)" opacity="0.44436762" stroke="rgb(0, 0, 0)" stroke-opacity="1.0" stroke-linecap="round" stroke-linejoin="round"/>
    <path d="M 407.6934814453125 422.2339782714844 C 399.7406921386719 456.8762512207031 363.59405517578125 441.3527526855469 367.97589111328125 496.2776184082031 C 366.42169189453125 474.6429138183594 375.96661376953125 465.7757263183594 322.3437805175781 533.5924682617188 C 265.1422424316406 395.91265869140625 274.8158874511719 347.5876159667969 390.54248046875 327.47265625 C 400.9100646972656 402.7853088378906 414.8782653808594 400.1753845214844 407.6934814453125 422.2339782714844" stroke-width="0.0" fill="rgb(10, 95, 18)" opacity="0.7924087" stroke="rgb(0, 0, 0)" stroke-opacity="1.0" stroke-linecap="round" stroke-linejoin="round"/>
    <path d="M 318.8746337890625 125.93062591552734 C 397.7297668457031 115.93040466308594 375.9694519042969 166.85623168945312 286.9344482421875 164.48629760742188 C 223.8741455078125 138.62216186523438 258.6715393066406 157.33242797851562 250.91110229492188 113.87921142578125 C 227.8755645751953 31.82984161376953 273.0530700683594 4.1433000564575195 269.9923095703125 93.94664001464844 C 297.95587158203125 96.03166198730469 343.5263977050781 48.510887145996094 318.8746337890625 125.93062591552734" stroke-width="0.0" fill="rgb(14, 34, 103)" opacity="0.9920131" stroke="rgb(0, 0, 0)" stroke-opacity="1.0" stroke-linecap="round" stroke-linejoin="round"/>
    <path d="M 416.0291442871094 290.7196960449219 C 294.9081115722656 370.2760009765625 312.5261535644531 399.48492431640625 316.786865234375 389.2859802246094 C 245.4392852783203 442.7650146484375 190.92613220214844 377.2807922363281 84.75511169433594 285.7803955078125 C 106.59024810791016 271.6383056640625 124.96575927734375 307.41375732421875 234.031005859375 380.8273010253906 C 454.5433044433594 288.2110290527344 574.8318481445312 206.8332061767578 416.0291442871094 290.7196960449219" stroke-width="0.0" fill="rgb(72, 224, 0)" opacity="0.9738207" stroke="rgb(0, 0, 0)" stroke-opacity="1.0" stroke-linecap="round" stroke-linejoin="round"/>
    <path d="M 406.101806640625 203.2559051513672 C 383.78717041015625 201.72825622558594 379.1910705566406 203.76783752441406 374.17681884765625 186.79312133789062 C 385.5580749511719 182.8533935546875 350.6645812988281 211.18128967285156 320.58349609375 212.5750732421875 C 347.5882873535156 197.14268493652344 382.13214111328125 230.14625549316406 331.5447998046875 125.59648895263672 C 416.26947021484375 141.21241760253906 428.8014831542969 162.67642211914062 406.101806640625 203.2559051513672" stroke-width="0.0" fill="rgb(77, 31, 114)" opacity="0.71912426" stroke="rgb(0, 0, 0)" stroke-opacity="1.0" stroke-linecap="round" stroke-linejoin="round"/>
    <path d="M 430.845703125 227.13584899902344 C 431.2680358886719 238.7670440673828 435.587646484375 211.62820434570312 434.4109802246094 249.46788024902344 C 344.4042663574219 292.1317138671875 312.0668029785156 235.7943878173828 415.6091613769531 221.444091796875 C 398.58154296875 196.5150909423828 396.5599670410156 236.1268768310547 404.10186767578125 152.62738037109375 C 505.6435852050781 147.6337890625 434.2104187011719 161.75564575195312 430.845703125 227.13584899902344" stroke-width="0.0" fill="rgb(246, 108, 225)" opacity="1.0" stroke="rgb(0, 0, 0)" stroke-opacity="1.0" stroke-linecap="round" stroke-linejoin="round"/>
    <path d="M 138.94483947753906 326.3297119140625 C 129.52027893066406 334.9698791503906 126.07044982910156 328.2499084472656 72.61137390136719 300.8018798828125 C 42.18560028076172 284.5704650878906 85.6303939819336 307.06158447265625 -39.03681182861328 243.07232666015625 C 41.32612609863281 203.68357849121094 -10.128778457641602 246.53652954101562 74.8896255493164 285.6346740722656 C 130.29296875 295.8894348144531 157.41273498535156 325.3169860839844 138.94483947753906 326.3297119140625" stroke-width="0.0" fill="rgb(85, 233, 0)" opacity="0.7940223" stroke="rgb(0, 0, 0)" stroke-opacity="1.0" stroke-linecap="round" stroke-linejoin="round"/>
    <path d="M 55.7503776550293 48.908966064453125 C 53.7458381652832 58.90922546386719 43.95074462890625 68.68302917480469 53.08911895751953 41.6630744934082 C 107.85242462158203 7.824324131011963 130.0827178955078 -18.276838302612305 -5.566205978393555 -49.05961227416992 C -26.810897827148438 123.95710754394531 11.577245712280273 86.2169418334961 34.963523864746094 76.3482894897461 C 66.01177215576172 44.455169677734375 63.65192794799805 60.51506042480469 55.7503776550293 48.908966064453125" stroke-width="0.0" fill="rgb(0, 8, 69)" opacity="0.9638271" stroke="rgb(0, 0, 0)" stroke-opacity="1.0" stroke-linecap="round" stroke-linejoin="round"/>
    <path d="M 323.0232238769531 121.09944152832031 C 327.1822814941406 219.0890350341797 344.87774658203125 211.0480499267578 297.5348815917969 223.01861572265625 C 227.85243225097656 253.78945922851562 255.5831756591797 263.71832275390625 251.3560333251953 112.71641540527344 C 310.26611328125 131.73226928710938 268.7798767089844 183.78131103515625 271.0411682128906 155.60218811035156 C 274.88458251953125 168.067626953125 275.18402099609375 141.30056762695312 323.0232238769531 121.09944152832031" stroke-width="0.0" fill="rgb(7, 46, 123)" opacity="1.0" stroke="rgb(0, 0, 0)" stroke-opacity="1.0" stroke-linecap="round" stroke-linejoin="round"/>
    <path d="M 160.84487915039062 490.1135559082031 C 137.01451110839844 472.7335510253906 134.22178649902344 486.2330627441406 145.04779052734375 479.6834411621094 C 153.14706420898438 484.4098205566406 150.26593017578125 485.5552062988281 135.39109802246094 468.2041015625 C 93.35684967041016 473.8368225097656 90.3830337524414 412.3652038574219 111.04822540283203 407.64306640625 C 166.075927734375 456.40576171875 152.4302520751953 498.58056640625 160.84487915039062 490.1135559082031" stroke-width="0.0" fill="rgb(230, 126, 86)" opacity="0.072003044" stroke="rgb(0, 0, 0)" stroke-opacity="1.0" stroke-linecap="round" stroke-linejoin="round"/>
    <path d="M 114.39191436767578 207.0079345703125 C 119.52852630615234 257.7456970214844 84.46819305419922 224.483642578125 97.37785339355469 207.91305541992188 C 122.11686706542969 217.22384643554688 84.75212860107422 211.78968811035156 81.82022094726562 203.72528076171875 C 87.05372619628906 253.41651916503906 99.8846664428711 235.62908935546875 80.61990356445312 168.60855102539062 C 147.1121368408203 180.88543701171875 113.61418914794922 187.99172973632812 114.39191436767578 207.0079345703125" stroke-width="0.0" fill="rgb(3, 50, 33)" opacity="0.9885718" stroke="rgb(0, 0, 0)" stroke-opacity="1.0" stroke-linecap="round" stroke-linejoin="round"/>
    <path d="M 109.9245834350586 168.348388671875 C 98.0157699584961 162.5791473388672 88.1480712890625 119.56844329833984 60.75917434692383 138.63381958007812 C 11.215849876403809 216.91493225097656 -25.990066528320312 219.56314086914062 12.417546272277832 75.17816925048828 C 44.81111145019531 27.05306625366211 95.01375579833984 42.98820114135742 112.9188003540039 52.065773010253906 C 108.1466064453125 127.83155822753906 120.59186553955078 148.79156494140625 109.9245834350586 168.348388671875" stroke-width="0.0" fill="rgb(150, 250, 20)" opacity="0.93767023" stroke="rgb(0, 0, 0)" stroke-opacity="1.0" stroke-linecap="round" stroke-linejoin="round"/>
    <path d="M 286.757080078125 211.67225646972656 C 352.3743896484375 252.00604248046875 316.87652587890625 204.19931030273438 302.7505798339844 200.31285095214844 C 275.6071472167969 235.42333984375 265.7633361816406 239.24911499023438 231.756103515625 191.73280334472656 C 215.56771850585938 222.9412078857422 239.70068359375 189.63729858398438 277.7115783691406 216.75038146972656 C 315.7911376953125 228.9766082763672 304.6419982910156 188.34828186035156 286.757080078125 211.67225646972656" stroke-width="0.0" fill="rgb(67, 47, 37)" opacity="0.011715313" stroke="rgb(0, 0, 0)" stroke-opacity="1.0" stroke-linecap="round" stroke-linejoin="round"/>
    <path d="M 227.45352172851562 125.88162231445312 C 204.86924743652344 107.71293640136719 192.64126586914062 111.03997039794922 224.4925079345703 111.68666076660156 C 208.71710205078125 119.80899047851562 207.7423858642578 220.0333709716797 48.57407760620117 184.78919982910156 C 137.51300048828125 95.55066680908203 203.553955078125 110.37745666503906 216.60418701171875 75.27901458740234 C 228.85580444335938 88.36981964111328 248.51673889160156 112.48221588134766 227.45352172851562 125.88162231445312" stroke-width="0.0" fill="rgb(5, 6, 93)" opacity="1.0" stroke="rgb(0, 0, 0)" stroke-opacity="1.0" stroke-linecap="round" stroke-linejoin="round"/>
    <path d="M 97.098388671875 506.62139892578125 C 78.54351806640625 570.641357421875 62.72996139526367 570.1604614257812 47.355621337890625 568.0230712890625 C -9.364206314086914 527.7437133789062 -16.68471336364746 520.4232177734375 -21.20284080505371 510.0506896972656 C -18.48799705505371 494.70721435546875 -31.987857818603516 464.11956787109375 -27.52648162841797 415.4931335449219 C 36.823307037353516 453.6131591796875 61.45602035522461 471.92474365234375 97.098388671875 506.62139892578125" stroke-width="0.0" fill="rgb(4, 27, 67)" opacity="0.8752373" stroke="rgb(0, 0, 0)" stroke-opacity="1.0" stroke-linecap="round" stroke-linejoin="round"/>
    <path d="M 227.97474670410156 142.67857360839844 C 227.7252655029297 100.7824478149414 181.835693359375 124.20291137695312 180.02987670898438 226.77804565429688 C 73.23572540283203 197.63075256347656 143.1763153076172 235.70455932617188 164.73568725585938 216.01885986328125 C 152.6534423828125 209.12603759765625 166.1180419921875 192.62115478515625 105.48548889160156 211.0548553466797 C 154.63104248046875 184.15846252441406 135.05496215820312 179.72549438476562 227.97474670410156 142.67857360839844" stroke-width="0.0" fill="rgb(84, 254, 0)" opacity="1.0" stroke="rgb(0, 0, 0)" stroke-opacity="1.0" stroke-linecap="round" stroke-linejoin="round"/>
    <path d="M 486.6159973144531 235.30178833007812 C 361.9776306152344 328.30145263671875 354.37420654296875 357.4754943847656 364.29852294921875 336.7286376953125 C 292.5074768066406 350.8096008300781 248.9517059326172 414.22991943359375 257.1408996582031 319.916015625 C 258.10015869140625 265.7326354980469 303.6668395996094 295.6110534667969 331.9483947753906 250.7069091796875 C 290.5938720703125 304.5708312988281 397.4827880859375 154.4915313720703 486.6159973144531 235.30178833007812" stroke-width="0.0" fill="rgb(0, 33, 93)" opacity="0.87109745" stroke="rgb(0, 0, 0)" stroke-opacity="1.0" stroke-linecap="round" stroke-linejoin="round"/>
    <path d="M 241.29412841796875 116.6943130493164 C 207.21246337890625 169.3556365966797 228.36227416992188 154.40431213378906 184.44699096679688 179.9788055419922 C 184.507080078125 85.22010040283203 195.52667236328125 74.06849670410156 165.83103942871094 87.95368957519531 C 157.54898071289062 79.8782730102539 155.97430419921875 57.22629165649414 180.74322509765625 40.3819694519043 C 230.40550231933594 66.90743255615234 235.07154846191406 56.153282165527344 241.29412841796875 116.6943130493164" stroke-width="0.0" fill="rgb(239, 196, 202)" opacity="0.9972031" stroke="rgb(0, 0, 0)" stroke-opacity="1.0" stroke-linecap="round" stroke-linejoin="round"/>
    <path d="M 184.10140991210938 46.89585876464844 C 167.37713623046875 56.82965850830078 190.32769775390625 98.80904388427734 161.2946014404297 108.5933609008789 C 135.20281982421875 78.46503448486328 158.59996032714844 188.9089813232422 154.35662841796875 118.7173843383789 C 113.42544555664062 21.115108489990234 142.5508270263672 -25.31867027282715 255.92347717285156 3.6971492767333984 C 206.64498901367188 100.26126098632812 202.8545379638672 59.686485290527344 184.10140991210938 46.89585876464844" stroke-width="0.0" fill="rgb(135, 255, 0)" opacity="0.99936056" stroke="rgb(0, 0, 0)" stroke-opacity="1.0" stroke-linecap="round" stroke-linejoin="round"/>
    <path d="M 407.211669921875 77.80081939697266 C 389.82037353515625 72.3656234741211 375.4305114746094 83.67970275878906 383.91455078125 118.5875015258789 C 403.2574768066406 165.6270294189453 407.53692626953125 146.0570831298828 400.9392395019531 63.33613967895508 C 423.9892578125 52.925235748291016 420.55120849609375 68.33890533447266 389.522216796875 70.09407806396484 C 398.7647705078125 102.4522933959961 390.6476135253906 98.16646575927734 407.211669921875 77.80081939697266" stroke-width="0.0" fill="rgb(167, 255, 0)" opacity="0.33524376" stroke="rgb(0, 0, 0)" stroke-opacity="1.0" stroke-linecap="round" stroke-linejoin="round"/>
    <path d="M 324.65191650390625 485.33154296875 C 330.1597900390625 500.8946838378906 325.3492431640625 508.74884033203125 312.30621337890625 530.0949096679688 C 303.8021545410156 566.124267578125 300.8453369140625 571.4310913085938 312.1504211425781 466.2065124511719 C 288.61749267578125 411.90118408203125 278.1163635253906 410.40045166015625 291.1238708496094 401.0196838378906 C 322.58331298828125 430.1610412597656 314.8099365234375 460.3726501464844 324.65191650390625 485.33154296875" stroke-width="0.0" fill="rgb(29, 132, 30)" opacity="0.036265742" stroke="rgb(0, 0, 0)" stroke-opacity="1.0" stroke-linecap="round" stroke-linejoin="round"/>
    <path d="M 288.0713806152344 170.13330078125 C 291.9835205078125 138.989501953125 319.1162109375 147.93194580078125 309.1161804199219 224.19744873046875 C 287.28271484375 168.47201538085938 299.00347900390625 146.74295043945312 258.95611572265625 116.04507446289062 C 294.1905822753906 134.69590759277344 319.3188171386719 144.95306396484375 296.9403381347656 175.57699584960938 C 289.0429992675781 160.41322326660156 304.9961242675781 178.36483764648438 288.0713806152344 170.13330078125" stroke-width="0.0" fill="rgb(68, 14, 118)" opacity="0.13534889" stroke="rgb(0, 0, 0)" stroke-opacity="1.0" stroke-linecap="round" stroke-linejoin="round"/>
    <path d="M 271.7659912109375 15.47192668914795 C 281.25384521484375 4.594757556915283 283.2332458496094 -13.378509521484375 275.0215148925781 51.532432556152344 C 246.0208740234375 79.80574035644531 258.687744140625 43.53075408935547 267.832763671875 -10.935091018676758 C 261.3346862792969 -29.264144897460938 258.6717224121094 -17.94812774658203 283.6621398925781 25.81385040283203 C 272.03582763671875 -4.108246326446533 279.9768981933594 15.564484596252441 271.7659912109375 15.47192668914795" stroke-width="0.0" fill="rgb(53, 20, 140)" opacity="0.7926602" stroke="rgb(0, 0, 0)" stroke-opacity="1.0" stroke-linecap="round" stroke-linejoin="round"/>
    <path d="M 328.9708251953125 269.46368408203125 C 342.7564697265625 260.5616455078125 344.7330627441406 286.4076843261719 329.3258056640625 246.04660034179688 C 292.8750305175781 257.39288330078125 314.12890625 273.5203552246094 313.2952880859375 279.12420654296875 C 331.4259033203125 246.3604736328125 365.6126708984375 201.87744140625 349.28717041015625 255.0635223388672 C 334.8620910644531 239.6484832763672 380.08544921875 265.57635498046875 328.9708251953125 269.46368408203125" stroke-width="0.0" fill="rgb(234, 131, 190)" opacity="0.98331463" stroke="rgb(0, 0, 0)" stroke-opacity="1.0" stroke-linecap="round" stroke-linejoin="round"/>
    <path d="M 138.2024383544922 68.74371337890625 C 141.6147003173828 68.603271484375 168.39212036132812 73.98860168457031 193.04098510742188 60.195194244384766 C 213.43228149414062 54.81709671020508 197.74588012695312 74.26313018798828 168.63088989257812 78.08758544921875 C 169.43113708496094 101.83428955078125 176.0729522705078 61.234092712402344 161.77835083007812 49.833892822265625 C 172.39584350585938 73.62251281738281 182.0155487060547 85.120849609375 138.2024383544922 68.74371337890625" stroke-width="0.0" fill="rgb(103, 195, 130)" opacity="0.0" stroke="rgb(0, 0, 0)" stroke-opacity="1.0" stroke-linecap="round" stroke-linejoin="round"/>
    <path d="M 523.1181030273438 449.71661376953125 C 531.1878662109375 467.5299072265625 525.2696533203125 494.7389221191406 516.0750122070312 480.84716796875 C 498.45782470703125 471.34417724609375 457.83514404296875 483.2533874511719 463.4421691894531 458.08197021484375 C 505.673828125 440.60089111328125 522.1792602539062 422.3939514160156 524.218017578125 426.6571960449219 C 522.9414672851562 435.2409362792969 525.7348022460938 438.7987365722656 523.1181030273438 449.71661376953125" stroke-width="0.0" fill="rgb(0, 21, 73)" opacity="0.9932708" stroke="rgb(0, 0, 0)" stroke-opacity="1.0" stroke-linecap="round" stroke-linejoin="round"/>
    <path d="M 349.9606628417969 497.70281982421875 C 349.2275695800781 484.57989501953125 346.1325988769531 487.2514953613281 323.4331970214844 509.6737976074219 C 330.1101379394531 486.796630859375 330.4230651855469 459.1516418457031 323.2002868652344 447.91876220703125 C 361.4845275878906 441.7275085449219 348.6716613769531 497.6856689453125 347.2972106933594 445.3569030761719 C 362.087158203125 428.4923095703125 358.03472900390625 460.54986572265625 349.9606628417969 497.70281982421875" stroke-width="0.0" fill="rgb(32, 83, 47)" opacity="0.112966865" stroke="rgb(0, 0, 0)" stroke-opacity="1.0" stroke-linecap="round" stroke-linejoin="round"/>
    <path d="M 450.6293029785156 403.526611328125 C 458.620849609375 436.55670166015625 450.2141418457031 425.43963623046875 423.3974304199219 432.89642333984375 C 417.7425537109375 430.3827819824219 409.5206298828125 428.43951416015625 404.50299072265625 378.4642333984375 C 432.2892761230469 392.9726867675781 443.854736328125 396.4489440917969 446.50897216796875 375.191162109375 C 460.94049072265625 374.6490783691406 461.2974853515625 395.0113220214844 450.6293029785156 403.526611328125" stroke-width="0.0" fill="rgb(129, 155, 184)" opacity="0.7410604" stroke="rgb(0, 0, 0)" stroke-opacity="1.0" stroke-linecap="round" stroke-linejoin="round"/>
    <path d="M 474.4638977050781 404.6185302734375 C 424.6065368652344 437.3988342285156 395.73291015625 446.6534118652344 365.3626403808594 425.8476257324219 C 367.1803894042969 416.49090576171875 363.1141357421875 415.5852355957031 363.7408447265625 378.7574157714844 C 369.5635070800781 372.9165954589844 375.98614501953125 378.0745849609375 378.2330017089844 368.7588195800781 C 451.06805419921875 346.180908203125 502.8465576171875 355.1996154785156 474.4638977050781 404.6185302734375" stroke-width="0.0" fill="rgb(25, 116, 9)" opacity="0.9837466" stroke="rgb(0, 0, 0)" stroke-opacity="1.0" stroke-linecap="round" stroke-linejoin="round"/>
    <path d="M 262.7947692871094 129.5771484375 C 223.3546142578125 126.38827514648438 234.1682891845703 115.8588638305664 218.16339111328125 145.73233032226562 C 205.8735809326172 176.04653930664062 231.38641357421875 155.57627868652344 204.61048889160156 130.07916259765625 C 248.2791748046875 109.12423706054688 259.8544921875 123.14696502685547 257.69757080078125 109.10917663574219 C 275.3885192871094 96.743896484375 260.45330810546875 120.6473617553711 262.7947692871094 129.5771484375" stroke-width="0.0" fill="rgb(90, 93, 147)" opacity="0.43064657" stroke="rgb(0, 0, 0)" stroke-opacity="1.0" stroke-linecap="round" stroke-linejoin="round"/>
    <path d="M 78.35453033447266 411.4765625 C 91.71806335449219 426.12554931640625 95.97078704833984 419.4786071777344 111.09305572509766 440.18731689453125 C 78.44307708740234 456.579345703125 62.404693603515625 441.373046875 38.404457092285156 426.8018493652344 C 35.34849166870117 392.8025817871094 35.39406967163086 390.67828369140625 28.87742805480957 396.290283203125 C 79.85932159423828 418.94921875 95.38907623291016 413.0739440917969 78.35453033447266 411.4765625" stroke-width="0.0" fill="rgb(243, 96, 148)" opacity="0.09465946" stroke="rgb(0, 0, 0)" stroke-opacity="1.0" stroke-linecap="round" stroke-linejoin="round"/>
    <path d="M 460.92431640625 84.51007843017578 C 499.3008728027344 103.58853912353516 511.48565673828125 142.6400909423828 467.6292419433594 167.06695556640625 C 399.657958984375 109.38645935058594 397.0289611816406 95.45671081542969 393.8020935058594 62.15047073364258 C 383.6407775878906 26.899709701538086 395.2094421386719 24.283706665039062 400.894775390625 51.88422393798828 C 423.0699768066406 72.67591094970703 442.48291015625 67.94708251953125 460.92431640625 84.51007843017578" stroke-width="0.0" fill="rgb(93, 210, 0)" opacity="0.9342809" stroke="rgb(0, 0, 0)" stroke-opacity="1.0" stroke-linecap="round" stroke-linejoin="round"/>
    <path d="M 262.7740173339844 5.448630332946777 C 236.14064025878906 57.56510925292969 219.37551879882812 63.956298828125 189.6040496826172 8.003332138061523 C 191.83682250976562 3.532804250717163 213.19097900390625 9.694655418395996 187.158447265625 -9.103658676147461 C 186.60418701171875 -8.620067596435547 217.88722229003906 -18.680023193359375 223.31324768066406 8.39666748046875 C 195.8765411376953 -1.2464147806167603 217.76608276367188 -6.388681411743164 262.7740173339844 5.448630332946777" stroke-width="0.0" fill="rgb(191, 254, 0)" opacity="0.38136736" stroke="rgb(0, 0, 0)" stroke-opacity="1.0" stroke-linecap="round" stroke-linejoin="round"/>
    <path d="M 515.9100341796875 190.11990356445312 C 514.55859375 199.8848114013672 485.3207092285156 219.1079559326172 475.9325866699219 184.119384765625 C 468.6478576660156 194.874267578125 452.0883483886719 193.79434204101562 469.5890197753906 221.16796875 C 452.9574890136719 154.2438201904297 456.13958740234375 135.08006286621094 504.2962341308594 158.0475311279297 C 517.8558959960938 164.71412658691406 510.8316650390625 191.4359588623047 515.9100341796875 190.11990356445312" stroke-width="0.0" fill="rgb(122, 255, 0)" opacity="0.1965071" stroke="rgb(0, 0, 0)" stroke-opacity="1.0" stroke-linecap="round" stroke-linejoin="round"/>
    <path d="M 376.6443176269531 338.2502136230469 C 385.1288757324219 329.7167053222656 375.03045654296875 359.5450134277344 398.8037109375 376.8426208496094 C 416.79144287109375 330.13214111328125 400.808349609375 316.5327453613281 400.8460388183594 338.2848815917969 C 399.0938720703125 317.66961669921875 409.71942138671875 300.4247741699219 430.84515380859375 324.7616271972656 C 418.45556640625 341.5510559082031 392.5474548339844 360.235595703125 376.6443176269531 338.2502136230469" stroke-width="0.0" fill="rgb(25, 221, 49)" opacity="0.06719037" stroke="rgb(0, 0, 0)" stroke-opacity="1.0" stroke-linecap="round" stroke-linejoin="round"/>
    <path d="M 266.2879943847656 292.60272216796875 C 271.6452941894531 306.74591064453125 261.383056640625 307.74298095703125 233.31173706054688 272.5140380859375 C 230.962890625 277.6046142578125 231.6442108154297 286.79351806640625 216.1973114013672 297.88616943359375 C 210.3377227783203 267.59405517578125 225.41384887695312 268.94317626953125 270.8968505859375 265.2279968261719 C 281.26275634765625 263.4368896484375 269.8315734863281 278.9248046875 266.2879943847656 292.60272216796875" stroke-width="0.0" fill="rgb(137, 65, 203)" opacity="0.95609415" stroke="rgb(0, 0, 0)" stroke-opacity="1.0" stroke-linecap="round" stroke-linejoin="round"/>
    <path d="M 265.0692138671875 285.6700744628906 C 274.6649475097656 295.3642272949219 266.72418212890625 296.6258544921875 248.7704315185547 293.16802978515625 C 279.1218566894531 301.58892822265625 253.04672241210938 307.7147521972656 232.47146606445312 302.8600769042969 C 272.2986145019531 302.7336730957031 283.26239013671875 299.1221923828125 249.32969665527344 284.40045166015625 C 237.11611938476562 292.6800842285156 267.542724609375 284.6859436035156 265.0692138671875 285.6700744628906" stroke-width="0.0" fill="rgb(0, 149, 24)" opacity="0.24237989" stroke="rgb(0, 0, 0)" stroke-opacity="1.0" stroke-linecap="round" stroke-linejoin="round"/>
    <path d="M 34.25578308105469 127.60433959960938 C 32.827308654785156 105.57012939453125 39.35634994506836 151.57455444335938 35.80812072753906 165.3905029296875 C 46.78736877441406 138.9105682373047 27.09876823425293 144.7216796875 25.281190872192383 139.72262573242188 C 7.61935567855835 126.34614562988281 18.21380615234375 101.63732147216797 38.25807571411133 95.70685577392578 C 63.24797058105469 85.55772399902344 47.80410385131836 117.0524673461914 34.25578308105469 127.60433959960938" stroke-width="0.0" fill="rgb(235, 162, 158)" opacity="0.015531367" stroke="rgb(0, 0, 0)" stroke-opacity="1.0" stroke-linecap="round" stroke-linejoin="round"/>
    <path d="M 421.252685546875 171.23533630371094 C 451.6302795410156 161.97802734375 428.1701354980469 145.39126586914062 414.97991943359375 165.32130432128906 C 432.1387939453125 165.6544952392578 430.8602600097656 131.72767639160156 370.99615478515625 140.7121124267578 C 376.13909912109375 118.88160705566406 387.5899658203125 99.99424743652344 434.6375427246094 84.52869415283203 C 458.7552490234375 137.4137725830078 429.27301025390625 142.8380584716797 421.252685546875 171.23533630371094" stroke-width="0.0" fill="rgb(121, 247, 0)" opacity="0.9703686" stroke="rgb(0, 0, 0)" stroke-opacity="1.0" stroke-linecap="round" stroke-linejoin="round"/>
    <path d="M 145.88671875 508.9028015136719 C 157.81979370117188 532.1273803710938 73.88142395019531 537.646484375 77.87821197509766 491.21441650390625 C 66.76236724853516 478.30035400390625 40.28234100341797 485.8028564453125 56.400115966796875 459.7878112792969 C 28.329132080078125 443.6654357910156 17.029094696044922 446.1477966308594 25.482589721679688 447.52606201171875 C 101.39942169189453 406.5869445800781 91.84504699707031 435.577880859375 145.88671875 508.9028015136719" stroke-width="0.0" fill="rgb(255, 142, 176)" opacity="0.06347675" stroke="rgb(0, 0, 0)" stroke-opacity="1.0" stroke-linecap="round" stroke-linejoin="round"/>
    <path d="M 543.330078125 37.85239028930664 C 552.2413330078125 54.44997024536133 552.4336547851562 49.404300689697266 514.963134765625 37.9788932800293 C 486.00701904296875 46.6119384765625 479.05133056640625 34.605892181396484 478.7237548828125 49.90334701538086 C 489.2228088378906 61.46449279785156 475.1825256347656 47.099422454833984 460.4226989746094 37.81781768798828 C 525.984375 37.97088623046875 536.9719848632812 40.946266174316406 543.330078125 37.85239028930664" stroke-width="0.0" fill="rgb(20, 92, 41)" opacity="0.0049070204" stroke="rgb(0, 0, 0)" stroke-opacity="1.0" stroke-linecap="round" stroke-linejoin="round"/>
    <path d="M 312.0023498535156 268.9955749511719 C 306.4869384765625 293.6368713378906 298.09356689453125 283.1697692871094 307.8245544433594 282.0493469238281 C 289.1092224121094 301.6186828613281 275.3170166015625 304.0599365234375 287.5860290527344 293.7590026855469 C 286.6563720703125 303.08001708984375 280.52545166015625 279.30267333984375 283.73968505859375 281.3861389160156 C 270.5066223144531 281.885986328125 292.5837707519531 278.99603271484375 312.0023498535156 268.9955749511719" stroke-width="0.0" fill="rgb(225, 64, 61)" opacity="0.2957689" stroke="rgb(0, 0, 0)" stroke-opacity="1.0" stroke-linecap="round" stroke-linejoin="round"/>
    <path d="M 335.13616943359375 76.16697692871094 C 309.947509765625 97.34934997558594 288.3913879394531 102.07726287841797 294.7630920410156 94.71134948730469 C 306.6412658691406 82.02449798583984 288.61492919921875 83.25204467773438 322.8161926269531 58.13817596435547 C 321.7306213378906 56.325401306152344 293.7044677734375 44.12153625488281 312.7808532714844 32.443702697753906 C 347.397705078125 54.589298248291016 329.575439453125 62.14765167236328 335.13616943359375 76.16697692871094" stroke-width="0.0" fill="rgb(46, 24, 135)" opacity="0.9891269" stroke="rgb(0, 0, 0)" stroke-opacity="1.0" stroke-linecap="round" stroke-linejoin="round"/>
    <path d="M 150.61260986328125 17.78693199157715 C 119.343994140625 75.641845703125 147.44973754882812 134.5449676513672 111.62274932861328 152.96717834472656 C 101.22594451904297 105.34615325927734 99.06659698486328 60.957237243652344 108.45539855957031 68.00223541259766 C 112.91450500488281 53.693546295166016 127.58431243896484 65.80477142333984 111.08637237548828 85.82130432128906 C 90.09252166748047 55.554386138916016 125.19775390625 42.248958587646484 150.61260986328125 17.78693199157715" stroke-width="0.0" fill="rgb(169, 255, 28)" opacity="0.29681954" stroke="rgb(0, 0, 0)" stroke-opacity="1.0" stroke-linecap="round" stroke-linejoin="round"/>
    <path d="M 451.78814697265625 502.9801940917969 C 451.1685791015625 541.2000122070312 453.2616271972656 527.5270385742188 427.62646484375 512.693603515625 C 432.99053955078125 496.2326354980469 434.11016845703125 483.73760986328125 418.2632141113281 491.3446350097656 C 420.66778564453125 454.2774658203125 423.7574157714844 436.2104187011719 427.091796875 426.1141662597656 C 450.83807373046875 466.59173583984375 453.7789611816406 479.84246826171875 451.78814697265625 502.9801940917969" stroke-width="0.0" fill="rgb(118, 52, 206)" opacity="0.014207679" stroke="rgb(0, 0, 0)" stroke-opacity="1.0" stroke-linecap="round" stroke-linejoin="round"/>
    <path d="M 232.674072265625 114.0427017211914 C 206.22972106933594 109.08394622802734 210.27029418945312 96.65330505371094 214.21018981933594 108.79424285888672 C 232.83860778808594 88.12501525878906 199.33912658691406 79.08757781982422 182.52658081054688 66.73945617675781 C 191.768798828125 33.45381164550781 205.119384765625 24.549869537353516 227.12208557128906 42.15309524536133 C 266.21209716796875 -9.782732009887695 268.4789123535156 59.46400451660156 232.674072265625 114.0427017211914" stroke-width="0.0" fill="rgb(22, 8, 89)" opacity="0.9294368" stroke="rgb(0, 0, 0)" stroke-opacity="1.0" stroke-linecap="round" stroke-linejoin="round"/>
    <path d="M 297.57818603515625 205.25099182128906 C 275.5 219.84646606445312 268.920166015625 229.10716247558594 269.53070068359375 237.472412109375 C 233.8399658203125 239.22987365722656 247.84812927246094 219.6436767578125 245.56861877441406 210.0325164794922 C 255.346923828125 212.61180114746094 276.8316955566406 209.72508239746094 286.6313171386719 210.49270629882812 C 279.1915588378906 213.14004516601562 297.4126892089844 209.3727569580078 297.57818603515625 205.25099182128906" stroke-width="0.0" fill="rgb(136, 84, 127)" opacity="0.0" stroke="rgb(0, 0, 0)" stroke-opacity="1.0" stroke-linecap="round" stroke-linejoin="round"/>
    <path d="M 471.2046813964844 -30.15719223022461 C 456.1802673339844 -31.977832794189453 453.80029296875 -25.742626190185547 462.85009765625 5.425583839416504 C 463.83331298828125 22.721860885620117 459.7207946777344 -4.533646583557129 462.82464599609375 -44.31509017944336 C 443.02642822265625 -11.118226051330566 452.07421875 -16.323915481567383 464.5194396972656 -17.583200454711914 C 476.8262023925781 -16.114213943481445 486.2515869140625 -11.2457275390625 471.2046813964844 -30.15719223022461" stroke-width="0.0" fill="rgb(72, 82, 72)" opacity="0.0" stroke="rgb(0, 0, 0)" stroke-opacity="1.0" stroke-linecap="round" stroke-linejoin="round"/>
    <path d="M 154.58560180664062 444.28790283203125 C 160.84649658203125 452.1265869140625 158.8184356689453 463.2516174316406 150.12586975097656 446.3514404296875 C 148.2078399658203 436.36981201171875 131.16671752929688 428.19000244140625 115.74961853027344 422.2747497558594 C 118.39384460449219 414.2803955078125 124.17916107177734 404.330078125 118.32221984863281 397.4620361328125 C 143.58319091796875 413.5979919433594 142.46331787109375 432.3880920410156 154.58560180664062 444.28790283203125" stroke-width="0.0" fill="rgb(129, 188, 13)" opacity="0.024507245" stroke="rgb(0, 0, 0)" stroke-opacity="1.0" stroke-linecap="round" stroke-linejoin="round"/>
  </g>
</svg>
