<?xml version="1.0" ?>
<svg xmlns="http://www.w3.org/2000/svg" version="1.1" width="512" height="512">
  <defs/>
  <g>
    <path d="M 262.94970703125 376.3649597167969 C 192.82017517089844 524.6943359375 183.48724365234375 330.5918884277344 94.24849700927734 474.00445556640625 C 51.76725769042969 427.14837646484375 -24.004802703857422 285.7293701171875 83.56802368164062 213.8512725830078 C 83.64541625976562 369.37017822265625 79.91688537597656 282.9527587890625 92.0771484375 332.29364013671875 C 86.13775634765625 377.46612548828125 73.87127685546875 342.0072021484375 262.94970703125 376.3649597167969" stroke-width="0.0" fill="rgb(0, 0, 31)" opacity="0.9980235" stroke="rgb(0, 0, 0)" stroke-opacity="1.0" stroke-linecap="round" stroke-linejoin="round"/>
    <path d="M 203.47373962402344 209.38058471679688 C 278.50579833984375 255.91073608398438 184.01242065429688 261.2679748535156 150.76800537109375 311.1087646484375 C 133.54869079589844 311.50634765625 84.906982421875 273.5120544433594 122.15096282958984 230.19163513183594 C 150.81298828125 257.7491760253906 43.67319869995117 250.6978759765625 157.64712524414062 224.04595947265625 C 172.87921142578125 273.73779296875 191.0882568359375 254.6934814453125 203.47373962402344 209.38058471679688" stroke-width="0.0" fill="rgb(1, 0, 31)" opacity="1.0" stroke="rgb(0, 0, 0)" stroke-opacity="1.0" stroke-linecap="round" stroke-linejoin="round"/>
    <path d="M 397.8976135253906 236.05191040039062 C 405.01092529296875 378.6318054199219 247.02098083496094 284.37939453125 365.8443298339844 224.47373962402344 C 414.1165466308594 225.90211486816406 332.65985107421875 171.78074645996094 294.42877197265625 372.3517761230469 C 232.13580322265625 198.15646362304688 319.56781005859375 196.8283233642578 368.72796630859375 222.09710693359375 C 446.6612548828125 225.52914428710938 371.4647216796875 236.12286376953125 397.8976135253906 236.05191040039062" stroke-width="0.0" fill="rgb(0, 0, 31)" opacity="1.0" stroke="rgb(0, 0, 0)" stroke-opacity="1.0" stroke-linecap="round" stroke-linejoin="round"/>
    <path d="M 188.97972106933594 221.7355499267578 C 168.85545349121094 286.54620361328125 235.84642028808594 261.2796630859375 90.5213623046875 270.0952453613281 C 31.587575912475586 233.1871337890625 146.06207275390625 212.08441162109375 184.33758544921875 218.4703369140625 C 207.165771484375 217.31568908691406 187.82681274414062 222.7263641357422 198.3469696044922 205.64944458007812 C 159.62229919433594 103.91888427734375 137.50595092773438 122.13516235351562 188.97972106933594 221.7355499267578" stroke-width="0.0" fill="rgb(0, 0, 33)" opacity="1.0" stroke="rgb(0, 0, 0)" stroke-opacity="1.0" stroke-linecap="round" stroke-linejoin="round"/>
    <path d="M 568.4201049804688 341.83868408203125 C 553.1046752929688 396.65142822265625 428.1620178222656 381.88800048828125 452.8341369628906 487.7999267578125 C 297.011962890625 326.0184020996094 363.5059814453125 434.2936706542969 291.5821228027344 287.1611633300781 C 430.3170166015625 373.4839782714844 308.12408447265625 333.8839416503906 370.66552734375 365.21917724609375 C 441.6685791015625 368.4611511230469 402.0964660644531 381.6520690917969 568.4201049804688 341.83868408203125" stroke-width="0.0" fill="rgb(66, 94, 123)" opacity="0.576657" stroke="rgb(0, 0, 0)" stroke-opacity="1.0" stroke-linecap="round" stroke-linejoin="round"/>
    <path d="M 449.2016906738281 220.66012573242188 C 488.0811767578125 305.27410888671875 522.3768920898438 321.5315856933594 434.0963439941406 391.1371765136719 C 458.239990234375 274.5194091796875 483.1737060546875 332.956298828125 419.2818908691406 232.048828125 C 464.04205322265625 109.48773193359375 464.37713623046875 -10.61927318572998 456.59747314453125 62.98353576660156 C 452.2549133300781 193.9025115966797 476.2687072753906 136.19789123535156 449.2016906738281 220.66012573242188" stroke-width="0.0" fill="rgb(2, 0, 41)" opacity="0.9876985" stroke="rgb(0, 0, 0)" stroke-opacity="1.0" stroke-linecap="round" stroke-linejoin="round"/>
    <path d="M 357.8418273925781 307.6340026855469 C 287.5879211425781 328.2076416015625 311.5749816894531 379.67364501953125 317.8289489746094 328.65423583984375 C 268.4994812011719 318.64715576171875 368.1206359863281 311.8124694824219 261.03070068359375 331.0677795410156 C 247.34042358398438 296.02947998046875 245.0713348388672 234.2473602294922 267.1224670410156 221.93536376953125 C 296.8431091308594 248.24755859375 314.88555908203125 276.25286865234375 357.8418273925781 307.6340026855469" stroke-width="0.0" fill="rgb(255, 253, 246)" opacity="1.0" stroke="rgb(0, 0, 0)" stroke-opacity="1.0" stroke-linecap="round" stroke-linejoin="round"/>
    <path d="M 380.27960205078125 223.99896240234375 C 403.6047668457031 243.14453125 384.54022216796875 237.6725311279297 394.9355163574219 233.69509887695312 C 368.64849853515625 223.3865203857422 360.3838806152344 209.070556640625 337.6628723144531 208.81752014160156 C 338.3690490722656 215.83863830566406 328.3849792480469 203.09573364257812 327.7696838378906 208.53549194335938 C 314.2816162109375 263.4560546875 306.1960144042969 235.8982696533203 380.27960205078125 223.99896240234375" stroke-width="0.0" fill="rgb(69, 55, 0)" opacity="1.0" stroke="rgb(0, 0, 0)" stroke-opacity="1.0" stroke-linecap="round" stroke-linejoin="round"/>
    <path d="M 54.16713333129883 153.36410522460938 C 102.80182647705078 226.8839874267578 58.75606918334961 69.27311706542969 239.32847595214844 120.5431137084961 C 45.49326705932617 223.44998168945312 68.72943878173828 355.1493225097656 48.679718017578125 90.84968566894531 C 62.118289947509766 -29.621723175048828 79.3831787109375 -63.124732971191406 174.88987731933594 121.50338745117188 C 56.90290832519531 44.3192024230957 67.01680755615234 21.399917602539062 54.16713333129883 153.36410522460938" stroke-width="0.0" fill="rgb(0, 0, 35)" opacity="1.0" stroke="rgb(0, 0, 0)" stroke-opacity="1.0" stroke-linecap="round" stroke-linejoin="round"/>
    <path d="M 226.3059844970703 301.6617736816406 C 184.70587158203125 311.7174072265625 319.56103515625 285.7627258300781 282.6583251953125 325.8684387207031 C 32.33851623535156 375.40399169921875 146.89041137695312 319.0587463378906 145.63336181640625 242.53309631347656 C 146.99000549316406 173.04129028320312 207.2900848388672 203.83676147460938 245.73822021484375 220.19700622558594 C 223.9127197265625 269.9206848144531 213.8023681640625 283.3389892578125 226.3059844970703 301.6617736816406" stroke-width="0.0" fill="rgb(0, 0, 30)" opacity="1.0" stroke="rgb(0, 0, 0)" stroke-opacity="1.0" stroke-linecap="round" stroke-linejoin="round"/>
    <path d="M 376.4386901855469 240.2962188720703 C 391.036865234375 244.1774444580078 383.8594055175781 221.81410217285156 370.144287109375 220.4344482421875 C 360.1861877441406 232.0083465576172 330.3973388671875 259.5967712402344 318.7806396484375 237.14637756347656 C 381.27191162109375 192.85565185546875 386.6458435058594 236.58514404296875 397.987060546875 210.7309112548828 C 403.96868896484375 204.02090454101562 389.05596923828125 226.03517150878906 376.4386901855469 240.2962188720703" stroke-width="0.0" fill="rgb(166, 192, 0)" opacity="0.985638" stroke="rgb(0, 0, 0)" stroke-opacity="1.0" stroke-linecap="round" stroke-linejoin="round"/>
    <path d="M 480.9889831542969 -29.954317092895508 C 319.3116760253906 76.15867614746094 378.3572692871094 111.99161529541016 241.2471466064453 124.45529174804688 C 114.94168853759766 130.26947021484375 190.68255615234375 68.23278045654297 23.479459762573242 -46.18050003051758 C 232.0538330078125 21.575590133666992 107.1532974243164 84.23611450195312 293.148681640625 63.70294189453125 C 351.64691162109375 80.7273941040039 360.2957458496094 -21.422048568725586 480.9889831542969 -29.954317092895508" stroke-width="0.0" fill="rgb(0, 0, 38)" opacity="1.0" stroke="rgb(0, 0, 0)" stroke-opacity="1.0" stroke-linecap="round" stroke-linejoin="round"/>
    <path d="M 382.4255676269531 381.22747802734375 C 98.62258911132812 483.3756408691406 209.21463012695312 332.32421875 144.79168701171875 358.4285888671875 C 96.6712875366211 388.6607971191406 150.77578735351562 349.2692565917969 137.13656616210938 374.29656982421875 C 121.4458999633789 345.5425109863281 142.09677124023438 307.2369689941406 214.9833221435547 283.4731140136719 C 349.5828552246094 308.74188232421875 420.8402099609375 268.23394775390625 382.4255676269531 381.22747802734375" stroke-width="0.0" fill="rgb(254, 255, 250)" opacity="1.0" stroke="rgb(0, 0, 0)" stroke-opacity="1.0" stroke-linecap="round" stroke-linejoin="round"/>
    <path d="M 448.7284240722656 91.23918151855469 C 453.90869140625 38.54742431640625 461.371337890625 53.999427795410156 457.7420654296875 55.79820251464844 C 449.199462890625 64.51351928710938 470.11328125 101.41840362548828 451.6289978027344 141.03688049316406 C 446.2563781738281 16.934602737426758 424.6459045410156 -18.47555923461914 439.0787658691406 -8.954541206359863 C 455.52105712890625 46.460845947265625 468.9797058105469 88.8929672241211 448.7284240722656 91.23918151855469" stroke-width="0.0" fill="rgb(2, 6, 46)" opacity="1.0" stroke="rgb(0, 0, 0)" stroke-opacity="1.0" stroke-linecap="round" stroke-linejoin="round"/>
    <path d="M 456.11273193359375 26.275575637817383 C 341.711669921875 125.37480163574219 449.68170166015625 110.60135650634766 375.6529846191406 190.3941650390625 C 267.21380615234375 72.4834213256836 283.5863342285156 143.87576293945312 349.50457763671875 63.77176284790039 C 327.7191162109375 94.02788543701172 376.3694763183594 14.329926490783691 331.0037536621094 76.49566650390625 C 348.5589294433594 93.50981140136719 443.4122619628906 -17.528902053833008 456.11273193359375 26.275575637817383" stroke-width="0.0" fill="rgb(0, 0, 53)" opacity="0.99893653" stroke="rgb(0, 0, 0)" stroke-opacity="1.0" stroke-linecap="round" stroke-linejoin="round"/>
    <path d="M 471.8877258300781 421.145751953125 C 440.15423583984375 414.4997863769531 513.5777587890625 533.9461669921875 395.9185485839844 530.6531372070312 C 380.04229736328125 414.82806396484375 506.7174072265625 507.95281982421875 465.3307189941406 355.2890319824219 C 610.7341918945312 371.9282531738281 371.1437072753906 304.5067443847656 418.52886962890625 337.4909362792969 C 497.95452880859375 372.2167053222656 512.3447265625 377.5048828125 471.8877258300781 421.145751953125" stroke-width="0.0" fill="rgb(241, 242, 250)" opacity="0.7054638" stroke="rgb(0, 0, 0)" stroke-opacity="1.0" stroke-linecap="round" stroke-linejoin="round"/>
    <path d="M 459.7587585449219 -12.766758918762207 C 442.6500549316406 7.277425289154053 465.72344970703125 20.254802703857422 418.3430480957031 152.1168670654297 C 360.1625061035156 113.87052917480469 372.699951171875 139.1968536376953 406.60589599609375 27.777856826782227 C 465.3163757324219 22.37000846862793 457.6139831542969 25.347248077392578 456.7732238769531 75.1606216430664 C 451.4877014160156 23.095985412597656 450.66986083984375 -0.13092674314975739 459.7587585449219 -12.766758918762207" stroke-width="0.0" fill="rgb(1, 0, 27)" opacity="0.4496482" stroke="rgb(0, 0, 0)" stroke-opacity="1.0" stroke-linecap="round" stroke-linejoin="round"/>
    <path d="M 471.9349365234375 383.5491943359375 C 477.26812744140625 434.1928405761719 422.4678955078125 482.99066162109375 311.9231872558594 519.974609375 C 228.72364807128906 529.9779663085938 158.92318725585938 432.7864990234375 186.93008422851562 413.0506286621094 C 257.7173156738281 409.43231201171875 258.6676330566406 402.30535888671875 251.0828399658203 396.4761962890625 C 254.32846069335938 400.2147521972656 311.3933410644531 413.9883117675781 471.9349365234375 383.5491943359375" stroke-width="0.0" fill="rgb(0, 54, 145)" opacity="0.42313933" stroke="rgb(0, 0, 0)" stroke-opacity="1.0" stroke-linecap="round" stroke-linejoin="round"/>
    <path d="M 213.08560180664062 308.4591064453125 C 255.43223571777344 274.8172607421875 293.4962463378906 289.6955871582031 279.3955383300781 302.41107177734375 C 248.7515869140625 299.6720275878906 273.06494140625 282.7125244140625 255.1856231689453 237.265625 C 199.23501586914062 259.762939453125 194.84036254882812 287.3630065917969 144.5084228515625 305.8023376464844 C 132.61866760253906 361.6392517089844 158.04844665527344 305.798095703125 213.08560180664062 308.4591064453125" stroke-width="0.0" fill="rgb(255, 254, 252)" opacity="1.0" stroke="rgb(0, 0, 0)" stroke-opacity="1.0" stroke-linecap="round" stroke-linejoin="round"/>
    <path d="M 567.8237915039062 424.9803466796875 C 495.5265197753906 580.234375 432.8631896972656 522.8370971679688 444.5693664550781 450.2030029296875 C 484.0323791503906 415.7487487792969 497.5626220703125 416.06134033203125 481.2781982421875 405.7470703125 C 504.5604553222656 395.3240966796875 453.9824523925781 397.4322204589844 489.6236572265625 360.15802001953125 C 549.2691040039062 395.33709716796875 474.1473693847656 375.3763732910156 567.8237915039062 424.9803466796875" stroke-width="0.0" fill="rgb(249, 244, 255)" opacity="0.6094689" stroke="rgb(0, 0, 0)" stroke-opacity="1.0" stroke-linecap="round" stroke-linejoin="round"/>
    <path d="M 300.29388427734375 421.126953125 C 245.9185028076172 415.6777648925781 204.389892578125 416.8291931152344 243.08767700195312 378.2875671386719 C 282.5343017578125 384.8510437011719 264.387939453125 390.1822814941406 236.80836486816406 417.8123779296875 C 181.7914276123047 450.68304443359375 223.3655548095703 412.73980712890625 285.7020263671875 318.05096435546875 C 272.7358703613281 411.66156005859375 348.09747314453125 410.31634521484375 300.29388427734375 421.126953125" stroke-width="0.0" fill="rgb(21, 3, 99)" opacity="0.86256343" stroke="rgb(0, 0, 0)" stroke-opacity="1.0" stroke-linecap="round" stroke-linejoin="round"/>
    <path d="M 83.0707778930664 26.850370407104492 C 91.37139892578125 -2.0314502716064453 78.81903839111328 135.58140563964844 89.85025024414062 213.7852020263672 C 96.21088409423828 263.20306396484375 52.45086669921875 20.666868209838867 66.93582153320312 65.83975219726562 C 83.9022445678711 34.42548751831055 69.3858642578125 -3.1345772743225098 115.77100372314453 30.240150451660156 C 164.82395935058594 95.08097839355469 73.91458892822266 7.440253257751465 83.0707778930664 26.850370407104492" stroke-width="0.0" fill="rgb(153, 65, 55)" opacity="0.0027420935" stroke="rgb(0, 0, 0)" stroke-opacity="1.0" stroke-linecap="round" stroke-linejoin="round"/>
    <path d="M 191.84609985351562 26.230775833129883 C 164.48245239257812 20.244421005249023 175.95645141601562 -3.4086806774139404 198.93692016601562 58.673526763916016 C 140.27635192871094 53.02854919433594 144.702880859375 25.944271087646484 107.15168762207031 -16.528507232666016 C 102.57304382324219 -25.375038146972656 101.79635620117188 -24.703588485717773 156.08731079101562 -51.23159408569336 C 197.73573303222656 -40.7894401550293 203.6118621826172 -47.15529251098633 191.84609985351562 26.230775833129883" stroke-width="0.0" fill="rgb(253, 255, 225)" opacity="1.0" stroke="rgb(0, 0, 0)" stroke-opacity="1.0" stroke-linecap="round" stroke-linejoin="round"/>
    <path d="M 160.03561401367188 318.70318603515625 C 155.13665771484375 365.8655700683594 149.4957275390625 370.6681213378906 100.62432861328125 408.7256164550781 C 53.8729362487793 385.4739990234375 56.541473388671875 381.98388671875 55.35401153564453 319.2892150878906 C 43.07178497314453 293.0646667480469 65.46891021728516 283.3533630371094 105.64292907714844 227.4724578857422 C 122.88101196289062 275.4319152832031 113.96150970458984 296.64190673828125 160.03561401367188 318.70318603515625" stroke-width="0.0" fill="rgb(255, 250, 251)" opacity="1.0" stroke="rgb(0, 0, 0)" stroke-opacity="1.0" stroke-linecap="round" stroke-linejoin="round"/>
    <path d="M 109.09598541259766 258.25982666015625 C 98.68006134033203 252.0894317626953 101.33900451660156 250.8209991455078 104.77482604980469 274.2168884277344 C 110.73042297363281 265.9488220214844 91.89939880371094 299.1708679199219 70.36027526855469 310.0907287597656 C 81.99620819091797 238.03321838378906 109.53170013427734 203.1849822998047 96.26195526123047 243.0587158203125 C 110.50501251220703 229.09373474121094 103.65251922607422 218.03768920898438 109.09598541259766 258.25982666015625" stroke-width="0.0" fill="rgb(255, 255, 250)" opacity="0.88057625" stroke="rgb(0, 0, 0)" stroke-opacity="1.0" stroke-linecap="round" stroke-linejoin="round"/>
    <path d="M 269.3206787109375 124.61216735839844 C 264.0834655761719 179.07984924316406 309.1051025390625 226.7471466064453 273.93597412109375 243.6871795654297 C 182.47610473632812 172.48532104492188 139.86460876464844 191.03269958496094 149.88307189941406 180.99908447265625 C 218.50914001464844 103.3282470703125 236.15057373046875 125.3738784790039 217.65113830566406 111.94649505615234 C 246.2375946044922 119.24752044677734 292.80267333984375 104.31710052490234 269.3206787109375 124.61216735839844" stroke-width="0.0" fill="rgb(164, 155, 125)" opacity="1.0" stroke="rgb(0, 0, 0)" stroke-opacity="1.0" stroke-linecap="round" stroke-linejoin="round"/>
    <path d="M 340.7480163574219 354.958984375 C 316.1196594238281 343.90850830078125 351.2563171386719 358.2561340332031 334.93609619140625 361.9085693359375 C 292.4627990722656 325.451416015625 283.1632080078125 345.7510070800781 269.4638671875 344.3608093261719 C 303.57806396484375 353.2932434082031 297.55999755859375 300.6034851074219 299.5155029296875 343.2012634277344 C 352.7147216796875 357.8791198730469 323.5360107421875 374.1138610839844 340.7480163574219 354.958984375" stroke-width="0.0" fill="rgb(254, 253, 252)" opacity="0.44137445" stroke="rgb(0, 0, 0)" stroke-opacity="1.0" stroke-linecap="round" stroke-linejoin="round"/>
    <path d="M 16.336111068725586 433.4833984375 C 19.13763999938965 432.3408508300781 132.18788146972656 377.94287109375 51.14830017089844 361.2003479003906 C -4.2610979080200195 430.88128662109375 12.171698570251465 400.7947082519531 108.7016830444336 364.5761413574219 C -28.86880111694336 359.7919006347656 -0.8288871049880981 348.0247802734375 98.89891815185547 350.6406555175781 C 94.12159729003906 394.510009765625 94.3177261352539 377.4749755859375 16.336111068725586 433.4833984375" stroke-width="0.0" fill="rgb(42, 88, 66)" opacity="0.001976102" stroke="rgb(0, 0, 0)" stroke-opacity="1.0" stroke-linecap="round" stroke-linejoin="round"/>
    <path d="M 360.0378112792969 375.9793701171875 C 345.17218017578125 406.8597412109375 335.4927673339844 435.1630554199219 325.3182678222656 416.742919921875 C 330.1258850097656 416.8931884765625 321.8465881347656 401.5101623535156 336.0489196777344 416.98980712890625 C 324.36962890625 454.5914611816406 246.156982421875 424.7277526855469 324.81207275390625 409.8315124511719 C 346.2229309082031 346.12005615234375 368.4035339355469 334.3107604980469 360.0378112792969 375.9793701171875" stroke-width="0.0" fill="rgb(0, 0, 27)" opacity="1.0" stroke="rgb(0, 0, 0)" stroke-opacity="1.0" stroke-linecap="round" stroke-linejoin="round"/>
    <path d="M 424.7913513183594 42.228477478027344 C 449.24359130859375 35.22146224975586 465.8160705566406 25.2337703704834 420.42431640625 127.8377456665039 C 408.56512451171875 184.47274780273438 391.3887939453125 118.48629760742188 347.9293212890625 91.25051879882812 C 338.93841552734375 69.02265930175781 370.35595703125 46.92437744140625 396.37286376953125 34.85530090332031 C 405.8677062988281 86.39493560791016 409.0003356933594 53.50844955444336 424.7913513183594 42.228477478027344" stroke-width="0.0" fill="rgb(70, 56, 163)" opacity="0.9978306" stroke="rgb(0, 0, 0)" stroke-opacity="1.0" stroke-linecap="round" stroke-linejoin="round"/>
    <path d="M 160.1429901123047 93.35592651367188 C 165.90235900878906 97.03414916992188 171.52772521972656 112.27717590332031 186.8631591796875 88.71138000488281 C 176.63186645507812 97.7515869140625 169.0924530029297 106.98759460449219 135.21337890625 68.72212982177734 C 94.92034149169922 15.97740364074707 135.6090545654297 55.56703186035156 165.80438232421875 84.4817886352539 C 173.35052490234375 88.34857177734375 176.0215606689453 97.18492126464844 160.1429901123047 93.35592651367188" stroke-width="0.0" fill="rgb(166, 79, 52)" opacity="0.78525454" stroke="rgb(0, 0, 0)" stroke-opacity="1.0" stroke-linecap="round" stroke-linejoin="round"/>
    <path d="M 531.8523559570312 440.48583984375 C 531.2156982421875 467.00396728515625 531.2875366210938 471.57672119140625 522.596435546875 464.5869445800781 C 514.1150512695312 463.0763854980469 509.95465087890625 452.274169921875 520.9725952148438 449.3718566894531 C 504.1393737792969 464.4547424316406 511.351806640625 450.0312194824219 546.483154296875 445.3320007324219 C 524.2904663085938 425.6336975097656 529.3707275390625 430.8746337890625 531.8523559570312 440.48583984375" stroke-width="0.0" fill="rgb(210, 164, 167)" opacity="0.29016066" stroke="rgb(0, 0, 0)" stroke-opacity="1.0" stroke-linecap="round" stroke-linejoin="round"/>
    <path d="M 379.65423583984375 216.44784545898438 C 433.6764221191406 199.35401916503906 397.5491638183594 263.5196228027344 360.5063171386719 248.71661376953125 C 370.35052490234375 195.6517333984375 327.34320068359375 221.73666381835938 302.3165588378906 234.552978515625 C 327.56689453125 259.01409912109375 318.04437255859375 276.49102783203125 316.0937805175781 223.30992126464844 C 328.8228759765625 163.4522705078125 330.8264465332031 188.82003784179688 379.65423583984375 216.44784545898438" stroke-width="0.0" fill="rgb(0, 0, 45)" opacity="1.0" stroke="rgb(0, 0, 0)" stroke-opacity="1.0" stroke-linecap="round" stroke-linejoin="round"/>
    <path d="M 502.1628723144531 428.8458251953125 C 479.0271911621094 435.0548095703125 456.97821044921875 431.7921142578125 419.9094543457031 462.4326171875 C 435.6491394042969 469.6228332519531 438.48809814453125 460.9306335449219 451.69732666015625 439.889404296875 C 480.9441223144531 409.0513000488281 450.8332824707031 354.7799377441406 476.248779296875 349.4770202636719 C 533.6463012695312 355.7656555175781 520.2312622070312 339.5740661621094 502.1628723144531 428.8458251953125" stroke-width="0.0" fill="rgb(253, 250, 254)" opacity="0.99991804" stroke="rgb(0, 0, 0)" stroke-opacity="1.0" stroke-linecap="round" stroke-linejoin="round"/>
    <path d="M 174.02438354492188 419.50164794921875 C 187.27890014648438 430.42041015625 174.60926818847656 416.8675231933594 175.1169891357422 417.74310302734375 C 170.33636474609375 437.9289855957031 138.07667541503906 455.1912536621094 83.53105926513672 438.0690612792969 C 87.81986999511719 353.4348449707031 107.24959564208984 334.9241943359375 148.25181579589844 363.9063720703125 C 161.75865173339844 397.35955810546875 170.51919555664062 410.46319580078125 174.02438354492188 419.50164794921875" stroke-width="0.0" fill="rgb(255, 255, 247)" opacity="1.0" stroke="rgb(0, 0, 0)" stroke-opacity="1.0" stroke-linecap="round" stroke-linejoin="round"/>
    <path d="M 445.74774169921875 374.1850891113281 C 433.9319763183594 402.2351989746094 436.2583923339844 407.4666748046875 415.6831359863281 408.30743408203125 C 416.0950622558594 403.8666687011719 420.31884765625 374.2545471191406 391.2222900390625 363.8638916015625 C 382.5672607421875 319.40509033203125 379.3167724609375 254.89906311035156 434.7521667480469 284.8989562988281 C 433.8221740722656 361.9480895996094 439.79571533203125 323.756591796875 445.74774169921875 374.1850891113281" stroke-width="0.0" fill="rgb(196, 242, 205)" opacity="0.123189434" stroke="rgb(0, 0, 0)" stroke-opacity="1.0" stroke-linecap="round" stroke-linejoin="round"/>
    <path d="M 169.11964416503906 79.02400970458984 C 219.1699676513672 101.6664810180664 195.2813262939453 127.68424224853516 127.10677337646484 117.52422332763672 C 96.28208923339844 119.64035034179688 89.99930572509766 105.28848266601562 81.81107330322266 74.58457946777344 C 65.63909149169922 4.704209327697754 76.04127502441406 20.501195907592773 105.37276458740234 53.66246032714844 C 121.03919982910156 71.60467529296875 121.93415832519531 89.26446533203125 169.11964416503906 79.02400970458984" stroke-width="0.0" fill="rgb(1, 0, 36)" opacity="0.9812111" stroke="rgb(0, 0, 0)" stroke-opacity="1.0" stroke-linecap="round" stroke-linejoin="round"/>
    <path d="M 354.4429016113281 393.4606018066406 C 340.6326599121094 393.8970031738281 327.1004638671875 392.865966796875 339.0732727050781 398.69183349609375 C 323.1615905761719 409.7006530761719 338.5779113769531 397.5838317871094 348.9923400878906 365.596923828125 C 352.4212341308594 342.3031005859375 347.7152404785156 356.88140869140625 345.45465087890625 359.3103942871094 C 359.6435241699219 355.3546142578125 371.168701171875 354.0390930175781 354.4429016113281 393.4606018066406" stroke-width="0.0" fill="rgb(0, 0, 21)" opacity="0.2928293" stroke="rgb(0, 0, 0)" stroke-opacity="1.0" stroke-linecap="round" stroke-linejoin="round"/>
    <path d="M 129.2646484375 387.5142822265625 C 144.26263427734375 394.61907958984375 119.86678314208984 384.0356750488281 92.46415710449219 387.8592224121094 C 93.51654815673828 369.1469421386719 87.53783416748047 350.1341857910156 94.99928283691406 344.5418701171875 C 91.96880340576172 355.0583801269531 86.91749572753906 360.8786926269531 89.28451538085938 357.74444580078125 C 83.54908752441406 381.4553527832031 87.92936706542969 375.9258728027344 129.2646484375 387.5142822265625" stroke-width="0.0" fill="rgb(195, 197, 117)" opacity="0.5346569" stroke="rgb(0, 0, 0)" stroke-opacity="1.0" stroke-linecap="round" stroke-linejoin="round"/>
    <path d="M 306.49102783203125 118.44976806640625 C 260.7122497558594 144.290283203125 266.9056091308594 197.05323791503906 253.53384399414062 214.17906188964844 C 238.11802673339844 164.40713500976562 234.5686798095703 149.12474060058594 207.00486755371094 132.00877380371094 C 198.58425903320312 108.52713775634766 225.35556030273438 97.31224060058594 233.88011169433594 75.17984008789062 C 263.6493835449219 82.8650131225586 326.18353271484375 78.54873657226562 306.49102783203125 118.44976806640625" stroke-width="0.0" fill="rgb(0, 0, 33)" opacity="1.0" stroke="rgb(0, 0, 0)" stroke-opacity="1.0" stroke-linecap="round" stroke-linejoin="round"/>
    <path d="M 454.75665283203125 101.40508270263672 C 438.32421875 114.81092071533203 415.6731872558594 130.6745147705078 428.1082458496094 109.02642059326172 C 440.1871032714844 38.5867919921875 432.65362548828125 69.17263793945312 366.1373596191406 85.97354888916016 C 367.45220947265625 46.20163345336914 383.05584716796875 30.455686569213867 415.9361267089844 8.219510078430176 C 438.8922119140625 39.44697189331055 452.2002868652344 86.08836364746094 454.75665283203125 101.40508270263672" stroke-width="0.0" fill="rgb(161, 144, 167)" opacity="0.9406208" stroke="rgb(0, 0, 0)" stroke-opacity="1.0" stroke-linecap="round" stroke-linejoin="round"/>
    <path d="M 105.87538146972656 128.052001953125 C 109.3095932006836 130.45968627929688 89.16332244873047 163.13717651367188 85.91920471191406 165.72628784179688 C 81.78448486328125 131.8546905517578 98.01422882080078 142.1497344970703 95.74320220947266 118.34768676757812 C 68.67939758300781 99.79452514648438 47.68438720703125 65.14830780029297 93.87570190429688 14.865942001342773 C 172.32569885253906 77.9468002319336 167.8430633544922 111.74584197998047 105.87538146972656 128.052001953125" stroke-width="0.0" fill="rgb(117, 99, 128)" opacity="0.956647" stroke="rgb(0, 0, 0)" stroke-opacity="1.0" stroke-linecap="round" stroke-linejoin="round"/>
    <path d="M 522.9854125976562 471.5748596191406 C 520.4595336914062 517.4486083984375 511.7738037109375 524.1069946289062 485.46875 531.3106689453125 C 458.345703125 514.9111938476562 439.7756652832031 495.3414611816406 457.05999755859375 490.8186950683594 C 471.6825256347656 482.0567321777344 475.36798095703125 469.034423828125 505.97882080078125 459.0908203125 C 530.3271484375 444.3697204589844 532.9927368164062 446.3955383300781 522.9854125976562 471.5748596191406" stroke-width="0.0" fill="rgb(244, 211, 136)" opacity="0.0" stroke="rgb(0, 0, 0)" stroke-opacity="1.0" stroke-linecap="round" stroke-linejoin="round"/>
    <path d="M 291.1054382324219 311.44573974609375 C 311.2227783203125 325.1277160644531 303.79107666015625 394.79296875 241.525146484375 382.2499084472656 C 203.95545959472656 358.4678649902344 202.19068908691406 322.3562316894531 232.28305053710938 309.4964904785156 C 258.86456298828125 305.81817626953125 283.678955078125 309.234375 284.46734619140625 325.0126037597656 C 237.2870635986328 311.4326477050781 263.4652404785156 300.36676025390625 291.1054382324219 311.44573974609375" stroke-width="0.0" fill="rgb(0, 0, 20)" opacity="1.0" stroke="rgb(0, 0, 0)" stroke-opacity="1.0" stroke-linecap="round" stroke-linejoin="round"/>
    <path d="M 410.3384094238281 136.2722625732422 C 440.4250793457031 152.70892333984375 459.1429748535156 174.96849060058594 440.3122253417969 223.6928253173828 C 379.853271484375 216.97410583496094 386.4476013183594 179.83358764648438 375.60272216796875 145.50401306152344 C 402.62774658203125 148.0276641845703 398.2077941894531 140.50779724121094 413.93243408203125 150.84031677246094 C 408.129638671875 140.70416259765625 413.82659912109375 146.9892578125 410.3384094238281 136.2722625732422" stroke-width="0.0" fill="rgb(0, 0, 57)" opacity="1.0" stroke="rgb(0, 0, 0)" stroke-opacity="1.0" stroke-linecap="round" stroke-linejoin="round"/>
    <path d="M 457.74090576171875 510.4529724121094 C 467.3752136230469 528.8399047851562 472.33294677734375 528.4910278320312 446.8388977050781 534.403564453125 C 443.73797607421875 509.6935729980469 448.494384765625 486.5180358886719 433.9965515136719 468.8600769042969 C 425.016357421875 467.5423889160156 436.1614990234375 472.46295166015625 439.48724365234375 474.6175537109375 C 437.63299560546875 480.3367004394531 447.2772216796875 488.7047424316406 457.74090576171875 510.4529724121094" stroke-width="0.0" fill="rgb(175, 152, 100)" opacity="0.0" stroke="rgb(0, 0, 0)" stroke-opacity="1.0" stroke-linecap="round" stroke-linejoin="round"/>
    <path d="M 439.48748779296875 -0.662348747253418 C 445.9470520019531 35.425010681152344 455.5647888183594 26.340011596679688 449.30157470703125 22.830307006835938 C 458.3690490722656 26.527671813964844 437.0403137207031 31.345247268676758 411.77032470703125 11.674712181091309 C 424.6896057128906 -28.765146255493164 442.2512512207031 -20.380704879760742 458.4974670410156 -21.585006713867188 C 433.1269226074219 -53.87639617919922 447.3927307128906 -41.1151008605957 439.48748779296875 -0.662348747253418" stroke-width="0.0" fill="rgb(0, 0, 36)" opacity="1.0" stroke="rgb(0, 0, 0)" stroke-opacity="1.0" stroke-linecap="round" stroke-linejoin="round"/>
    <path d="M 184.9158935546875 236.9503936767578 C 194.8761749267578 247.11834716796875 189.25277709960938 242.3880615234375 170.36070251464844 229.8759765625 C 173.28451538085938 245.1108856201172 164.3089599609375 256.13177490234375 153.63832092285156 226.57421875 C 159.18238830566406 220.88189697265625 151.66639709472656 222.24156188964844 180.37876892089844 213.34011840820312 C 166.55093383789062 247.2349853515625 193.29098510742188 248.47479248046875 184.9158935546875 236.9503936767578" stroke-width="0.0" fill="rgb(200, 248, 0)" opacity="0.99720275" stroke="rgb(0, 0, 0)" stroke-opacity="1.0" stroke-linecap="round" stroke-linejoin="round"/>
    <path d="M 159.9381561279297 412.4110412597656 C 183.2213134765625 413.75225830078125 180.38438415527344 446.8057556152344 161.32789611816406 467.19781494140625 C 122.06112670898438 467.30645751953125 123.69415283203125 464.8153381347656 107.89168548583984 429.0968933105469 C 93.34075164794922 361.6681213378906 124.4041976928711 357.7372131347656 170.76332092285156 425.1915283203125 C 155.45558166503906 405.0950622558594 152.28155517578125 398.890869140625 159.9381561279297 412.4110412597656" stroke-width="0.0" fill="rgb(255, 255, 255)" opacity="0.004384803" stroke="rgb(0, 0, 0)" stroke-opacity="1.0" stroke-linecap="round" stroke-linejoin="round"/>
    <path d="M 194.08441162109375 221.40164184570312 C 216.35903930664062 256.8626708984375 204.7279052734375 244.70486450195312 183.56121826171875 241.79156494140625 C 165.05812072753906 249.85911560058594 162.45169067382812 220.75987243652344 176.48219299316406 231.8035125732422 C 170.35726928710938 218.72265625 170.50572204589844 240.88365173339844 186.7505645751953 227.83863830566406 C 184.63858032226562 216.6170654296875 169.04481506347656 207.2754364013672 194.08441162109375 221.40164184570312" stroke-width="0.0" fill="rgb(191, 216, 0)" opacity="0.9404784" stroke="rgb(0, 0, 0)" stroke-opacity="1.0" stroke-linecap="round" stroke-linejoin="round"/>
    <path d="M 182.46092224121094 343.98101806640625 C 177.8992919921875 341.6065368652344 164.3174285888672 345.7027587890625 163.77056884765625 364.03955078125 C 167.6607208251953 378.82122802734375 179.51779174804688 373.35162353515625 178.31590270996094 366.25836181640625 C 180.90585327148438 351.49224853515625 184.32421875 342.0741882324219 186.7443389892578 340.9811096191406 C 186.33216857910156 346.4624328613281 191.27320861816406 338.6578063964844 182.46092224121094 343.98101806640625" stroke-width="0.0" fill="rgb(158, 108, 121)" opacity="0.0" stroke="rgb(0, 0, 0)" stroke-opacity="1.0" stroke-linecap="round" stroke-linejoin="round"/>
    <path d="M 71.69709777832031 424.1749572753906 C 76.90518188476562 446.3922119140625 65.31812286376953 440.71942138671875 77.12826538085938 437.9564514160156 C 86.39656829833984 438.804931640625 57.342559814453125 433.74957275390625 54.601112365722656 447.6864318847656 C 29.88898277282715 423.6781311035156 32.04385757446289 416.06939697265625 50.069740295410156 420.7812194824219 C 88.21704864501953 417.7073059082031 94.50536346435547 416.4605407714844 71.69709777832031 424.1749572753906" stroke-width="0.0" fill="rgb(239, 205, 234)" opacity="0.0" stroke="rgb(0, 0, 0)" stroke-opacity="1.0" stroke-linecap="round" stroke-linejoin="round"/>
    <path d="M 451.80633544921875 438.7186584472656 C 455.83795166015625 474.49462890625 452.971923828125 493.8432922363281 460.39544677734375 483.4455871582031 C 453.1596374511719 458.1737976074219 438.9463195800781 451.7952575683594 436.2925109863281 472.53009033203125 C 455.66937255859375 476.8187255859375 472.76934814453125 459.2825622558594 466.9716491699219 438.0282897949219 C 444.8028564453125 438.9565734863281 467.642333984375 456.13427734375 451.80633544921875 438.7186584472656" stroke-width="0.0" fill="rgb(255, 253, 224)" opacity="0.11504484" stroke="rgb(0, 0, 0)" stroke-opacity="1.0" stroke-linecap="round" stroke-linejoin="round"/>
    <path d="M 427.30328369140625 391.7099914550781 C 431.0215148925781 372.6087341308594 451.7298278808594 405.4496765136719 445.3663635253906 365.51947021484375 C 401.1139831542969 394.5733337402344 383.89483642578125 399.5594482421875 398.2041320800781 358.1347351074219 C 439.4067077636719 384.0740966796875 449.052001953125 380.0712585449219 478.6851806640625 347.6882019042969 C 435.40631103515625 322.3858642578125 416.5052185058594 375.33551025390625 427.30328369140625 391.7099914550781" stroke-width="0.0" fill="rgb(119, 151, 255)" opacity="0.27575058" stroke="rgb(0, 0, 0)" stroke-opacity="1.0" stroke-linecap="round" stroke-linejoin="round"/>
    <path d="M 105.88190460205078 103.93323516845703 C 88.8469009399414 165.68746948242188 72.1594009399414 174.8566131591797 48.3270149230957 177.10435485839844 C -4.775778770446777 163.43853759765625 -25.84903907775879 158.94395446777344 -19.574426651000977 152.9061279296875 C -13.207056045532227 68.46773529052734 -4.90605354309082 29.995716094970703 -3.2913339138031006 82.33463287353516 C 44.20928955078125 85.19757080078125 50.616458892822266 76.34101104736328 105.88190460205078 103.93323516845703" stroke-width="0.0" fill="rgb(59, 187, 0)" opacity="0.010651464" stroke="rgb(0, 0, 0)" stroke-opacity="1.0" stroke-linecap="round" stroke-linejoin="round"/>
    <path d="M 74.92742919921875 480.1640930175781 C 68.9497299194336 510.52960205078125 65.13529968261719 484.3075866699219 3.513737678527832 482.7684631347656 C 35.37649154663086 516.7479858398438 25.600419998168945 507.8371276855469 25.8418025970459 476.9403381347656 C -13.936763763427734 455.30682373046875 2.2402584552764893 410.6301574707031 30.956342697143555 417.2300109863281 C 45.17818832397461 438.7575988769531 75.09154510498047 451.18743896484375 74.92742919921875 480.1640930175781" stroke-width="0.0" fill="rgb(199, 255, 154)" opacity="0.004114263" stroke="rgb(0, 0, 0)" stroke-opacity="1.0" stroke-linecap="round" stroke-linejoin="round"/>
    <path d="M 142.8429718017578 222.05438232421875 C 123.62406921386719 227.34898376464844 133.80335998535156 220.16001892089844 160.01007080078125 245.08392333984375 C 161.14306640625 233.486572265625 141.7279815673828 216.73312377929688 107.96858215332031 218.2092742919922 C 110.58085632324219 224.48777770996094 81.35521697998047 252.49380493164062 96.81676483154297 211.86155700683594 C 135.64950561523438 204.32904052734375 140.38975524902344 217.0526580810547 142.8429718017578 222.05438232421875" stroke-width="0.0" fill="rgb(122, 142, 145)" opacity="0.0" stroke="rgb(0, 0, 0)" stroke-opacity="1.0" stroke-linecap="round" stroke-linejoin="round"/>
    <path d="M 363.5885314941406 30.499866485595703 C 343.2750549316406 61.35688781738281 301.4788818359375 86.7149429321289 286.1083068847656 65.50261688232422 C 262.8687438964844 43.2382698059082 230.40809631347656 53.1026496887207 214.2516632080078 36.32820129394531 C 230.16384887695312 -19.732431411743164 244.35487365722656 -22.166046142578125 274.6163024902344 -20.66865348815918 C 300.0048522949219 -19.501461029052734 311.2062683105469 -16.02914047241211 363.5885314941406 30.499866485595703" stroke-width="0.0" fill="rgb(224, 255, 77)" opacity="0.0" stroke="rgb(0, 0, 0)" stroke-opacity="1.0" stroke-linecap="round" stroke-linejoin="round"/>
    <path d="M 140.78868103027344 172.17733764648438 C 160.8462371826172 199.63059997558594 178.5373077392578 219.3830108642578 118.7303237915039 224.4466094970703 C 96.20525360107422 248.50384521484375 129.6186065673828 204.1297607421875 128.9414825439453 197.98068237304688 C 154.03692626953125 184.7524871826172 134.26821899414062 154.54013061523438 131.881591796875 150.46646118164062 C 138.4782257080078 156.56060791015625 135.71295166015625 152.44395446777344 140.78868103027344 172.17733764648438" stroke-width="0.0" fill="rgb(50, 25, 6)" opacity="0.0020029314" stroke="rgb(0, 0, 0)" stroke-opacity="1.0" stroke-linecap="round" stroke-linejoin="round"/>
    <path d="M 450.95965576171875 241.81857299804688 C 454.43414306640625 244.08470153808594 442.9281921386719 241.40902709960938 440.435546875 244.4740447998047 C 434.8724060058594 244.22535705566406 437.4367980957031 248.71678161621094 437.7007751464844 241.68508911132812 C 437.32537841796875 241.43458557128906 446.99444580078125 255.1025390625 455.89605712890625 247.9657745361328 C 453.05810546875 250.6830596923828 455.3048095703125 248.27650451660156 450.95965576171875 241.81857299804688" stroke-width="0.0" fill="rgb(4, 5, 44)" opacity="0.38275972" stroke="rgb(0, 0, 0)" stroke-opacity="1.0" stroke-linecap="round" stroke-linejoin="round"/>
    <path d="M 378.1826477050781 368.40789794921875 C 360.35711669921875 367.4549255371094 331.1938781738281 373.4942932128906 325.3522644042969 365.0815734863281 C 285.0645751953125 371.6794738769531 294.3892517089844 384.633544921875 293.6202392578125 354.17059326171875 C 312.9378662109375 352.1200256347656 346.8206481933594 359.648193359375 349.2315979003906 364.8006286621094 C 340.4629821777344 369.563720703125 362.96051025390625 373.590087890625 378.1826477050781 368.40789794921875" stroke-width="0.0" fill="rgb(102, 118, 221)" opacity="0.013461897" stroke="rgb(0, 0, 0)" stroke-opacity="1.0" stroke-linecap="round" stroke-linejoin="round"/>
    <path d="M 384.0657043457031 166.6838836669922 C 390.634521484375 221.68551635742188 371.3851013183594 220.05648803710938 353.3544921875 230.57809448242188 C 346.28936767578125 234.99667358398438 349.0122985839844 254.59930419921875 369.5737609863281 237.29946899414062 C 371.61175537109375 221.549072265625 364.2496643066406 178.87127685546875 384.7900695800781 182.3177032470703 C 398.3365173339844 172.11785888671875 390.4383850097656 167.21473693847656 384.0657043457031 166.6838836669922" stroke-width="0.0" fill="rgb(134, 86, 193)" opacity="0.0" stroke="rgb(0, 0, 0)" stroke-opacity="1.0" stroke-linecap="round" stroke-linejoin="round"/>
    <path d="M 94.92342376708984 500.62457275390625 C 132.06182861328125 492.8431701660156 152.34161376953125 469.36590576171875 116.80256652832031 459.12725830078125 C 78.75261688232422 469.4813537597656 47.46488952636719 473.1481018066406 54.78622055053711 465.9700927734375 C 74.4830322265625 441.8174133300781 92.04602813720703 431.2745056152344 57.15283203125 448.7532043457031 C 73.61067199707031 452.31549072265625 82.91507720947266 458.7665100097656 94.92342376708984 500.62457275390625" stroke-width="0.0" fill="rgb(164, 197, 205)" opacity="0.0075203367" stroke="rgb(0, 0, 0)" stroke-opacity="1.0" stroke-linecap="round" stroke-linejoin="round"/>
    <path d="M 81.32122039794922 445.7178649902344 C 77.47807312011719 463.2688903808594 77.4615707397461 478.3802795410156 76.11955261230469 501.9388122558594 C 64.22591400146484 466.76019287109375 58.347843170166016 457.6449890136719 54.234519958496094 453.14068603515625 C 55.57684326171875 448.1576232910156 66.41183471679688 441.3353271484375 52.932861328125 450.9534912109375 C 70.33763122558594 456.4634704589844 81.503173828125 458.5873718261719 81.32122039794922 445.7178649902344" stroke-width="0.0" fill="rgb(210, 243, 110)" opacity="0.0" stroke="rgb(0, 0, 0)" stroke-opacity="1.0" stroke-linecap="round" stroke-linejoin="round"/>
  </g>
</svg>
