<?xml version="1.0" ?>
<svg xmlns="http://www.w3.org/2000/svg" version="1.1" width="512" height="512">
  <defs/>
  <g>
    <path d="M 260.48126220703125 362.7569580078125 C 151.14796447753906 558.4740600585938 193.47164916992188 391.71624755859375 115.22015380859375 449.3836669921875 C 47.78141403198242 414.6660461425781 -34.09870910644531 288.7764892578125 75.34730529785156 174.75155639648438 C 85.10198211669922 373.8877868652344 55.3273811340332 348.2618103027344 86.93843078613281 348.3069763183594 C 93.01323699951172 374.7554931640625 80.3744888305664 338.8703308105469 260.48126220703125 362.7569580078125" stroke-width="0.0" fill="rgb(0, 1, 31)" opacity="1.0" stroke="rgb(0, 0, 0)" stroke-opacity="1.0" stroke-linecap="round" stroke-linejoin="round"/>
    <path d="M 189.53289794921875 195.75245666503906 C 257.0516357421875 275.613525390625 157.735595703125 294.7010192871094 195.4129180908203 274.3404235839844 C 165.2727508544922 273.3219909667969 89.62623596191406 251.155029296875 79.75532531738281 209.10145568847656 C 138.9936065673828 196.06605529785156 10.778402328491211 178.68533325195312 148.1547393798828 170.77496337890625 C 184.26119995117188 280.3305358886719 184.867919921875 267.26995849609375 189.53289794921875 195.75245666503906" stroke-width="0.0" fill="rgb(0, 0, 8)" opacity="1.0" stroke="rgb(0, 0, 0)" stroke-opacity="1.0" stroke-linecap="round" stroke-linejoin="round"/>
    <path d="M 422.1861877441406 271.8665771484375 C 447.1304626464844 386.6868896484375 272.03094482421875 297.1755065917969 390.4704895019531 257.8435363769531 C 411.7117614746094 205.05126953125 336.8829650878906 157.33343505859375 305.82623291015625 387.0765075683594 C 258.0679931640625 193.99163818359375 347.5274353027344 173.27552795410156 366.5558776855469 212.91273498535156 C 431.8686218261719 236.9287567138672 356.2937927246094 263.1414489746094 422.1861877441406 271.8665771484375" stroke-width="0.0" fill="rgb(0, 0, 34)" opacity="1.0" stroke="rgb(0, 0, 0)" stroke-opacity="1.0" stroke-linecap="round" stroke-linejoin="round"/>
    <path d="M 217.309326171875 214.4862060546875 C 152.59616088867188 310.4443664550781 187.91775512695312 272.77490234375 84.55648040771484 280.5015869140625 C 37.735538482666016 230.2066650390625 127.37594604492188 202.56971740722656 185.78929138183594 209.1748046875 C 201.90362548828125 216.73025512695312 200.00364685058594 225.10650634765625 235.76437377929688 208.9559783935547 C 156.47406005859375 102.983154296875 162.90472412109375 94.05886840820312 217.309326171875 214.4862060546875" stroke-width="0.0" fill="rgb(6, 1, 4)" opacity="0.9857225" stroke="rgb(0, 0, 0)" stroke-opacity="1.0" stroke-linecap="round" stroke-linejoin="round"/>
    <path d="M 577.669921875 352.7095642089844 C 539.0693969726562 399.521240234375 390.09124755859375 367.1382751464844 455.9415283203125 467.0190124511719 C 272.3357849121094 359.91497802734375 330.3851623535156 479.37200927734375 331.1863098144531 258.9708251953125 C 470.6828308105469 346.0366516113281 325.712890625 343.7725524902344 380.4793701171875 361.5987548828125 C 484.8522033691406 355.1336975097656 424.46331787109375 393.8864440917969 577.669921875 352.7095642089844" stroke-width="0.0" fill="rgb(0, 0, 34)" opacity="0.9938941" stroke="rgb(0, 0, 0)" stroke-opacity="1.0" stroke-linecap="round" stroke-linejoin="round"/>
    <path d="M 442.2725524902344 167.20201110839844 C 503.1410827636719 252.65557861328125 523.3212280273438 338.1163024902344 429.4121398925781 400.30908203125 C 430.8586730957031 237.52867126464844 484.04852294921875 280.3740234375 426.06182861328125 189.9127655029297 C 447.1888427734375 90.06572723388672 462.3776550292969 -6.020810604095459 475.06817626953125 102.16435241699219 C 438.68878173828125 162.6341094970703 441.59686279296875 87.34844207763672 442.2725524902344 167.20201110839844" stroke-width="0.0" fill="rgb(2, 0, 32)" opacity="0.98413706" stroke="rgb(0, 0, 0)" stroke-opacity="1.0" stroke-linecap="round" stroke-linejoin="round"/>
    <path d="M 367.5796203613281 274.024658203125 C 292.20098876953125 323.5278015136719 336.0010070800781 394.730224609375 353.456298828125 343.1573486328125 C 250.75381469726562 313.9114074707031 349.20343017578125 309.7206726074219 257.5397644042969 304.3043212890625 C 263.4233093261719 276.8152770996094 267.8181457519531 227.8937225341797 295.0406494140625 231.78370666503906 C 304.6357421875 246.41246032714844 314.42816162109375 272.8247375488281 367.5796203613281 274.024658203125" stroke-width="0.0" fill="rgb(253, 253, 91)" opacity="0.99960786" stroke="rgb(0, 0, 0)" stroke-opacity="1.0" stroke-linecap="round" stroke-linejoin="round"/>
    <path d="M 401.48114013671875 303.9971923828125 C 434.34698486328125 223.53244018554688 424.51446533203125 213.85105895996094 401.6012268066406 167.0647430419922 C 368.9917297363281 193.40745544433594 409.3830871582031 229.25823974609375 380.9443359375 239.50225830078125 C 367.0765075683594 210.1105194091797 362.0158996582031 206.38314819335938 333.08062744140625 228.33763122558594 C 355.8045959472656 258.87518310546875 297.7601623535156 274.4706726074219 401.48114013671875 303.9971923828125" stroke-width="0.0" fill="rgb(0, 0, 25)" opacity="0.9950983" stroke="rgb(0, 0, 0)" stroke-opacity="1.0" stroke-linecap="round" stroke-linejoin="round"/>
    <path d="M 91.61631774902344 84.22272491455078 C 122.62914276123047 231.4161834716797 66.0527114868164 123.71585083007812 216.60557556152344 120.25863647460938 C 50.063819885253906 187.6907958984375 126.68180847167969 304.59039306640625 43.5720329284668 81.65113830566406 C 43.201168060302734 -60.7033805847168 74.96115112304688 -78.2870101928711 175.5452423095703 124.2019271850586 C 17.10011100769043 60.02901077270508 56.803924560546875 20.706539154052734 91.61631774902344 84.22272491455078" stroke-width="0.0" fill="rgb(0, 0, 33)" opacity="1.0" stroke="rgb(0, 0, 0)" stroke-opacity="1.0" stroke-linecap="round" stroke-linejoin="round"/>
    <path d="M 226.75628662109375 323.860107421875 C 206.11407470703125 330.9054260253906 313.8203430175781 300.0217590332031 273.95513916015625 353.72454833984375 C 22.11766242980957 359.04571533203125 138.65081787109375 289.2711181640625 163.80224609375 253.73939514160156 C 125.35693359375 161.84567260742188 213.368408203125 197.3858642578125 214.4530792236328 230.76898193359375 C 220.7334747314453 285.5065612792969 219.06224060058594 295.9858093261719 226.75628662109375 323.860107421875" stroke-width="0.0" fill="rgb(0, 0, 45)" opacity="1.0" stroke="rgb(0, 0, 0)" stroke-opacity="1.0" stroke-linecap="round" stroke-linejoin="round"/>
    <path d="M 401.0667724609375 268.45672607421875 C 331.7715148925781 270.8930969238281 328.91607666015625 291.7877197265625 401.725830078125 281.5858459472656 C 427.10955810546875 324.3117980957031 342.9552001953125 329.39599609375 315.0992736816406 235.06065368652344 C 384.1899719238281 202.98765563964844 323.5012512207031 215.29917907714844 388.53424072265625 179.94906616210938 C 408.52471923828125 199.03436279296875 406.2066345214844 245.3354949951172 401.0667724609375 268.45672607421875" stroke-width="0.0" fill="rgb(255, 255, 220)" opacity="1.0" stroke="rgb(0, 0, 0)" stroke-opacity="1.0" stroke-linecap="round" stroke-linejoin="round"/>
    <path d="M 493.2046203613281 -11.155969619750977 C 320.26348876953125 77.5107421875 389.83892822265625 123.30113220214844 275.4841003417969 111.26996612548828 C 140.7074432373047 99.70002746582031 208.26026916503906 49.913082122802734 16.225099563598633 -42.28916549682617 C 207.1578826904297 23.907934188842773 97.21318817138672 74.37659454345703 320.5565490722656 61.179996490478516 C 381.8348388671875 112.22562408447266 396.73150634765625 29.275188446044922 493.2046203613281 -11.155969619750977" stroke-width="0.0" fill="rgb(102, 62, 0)" opacity="0.99989444" stroke="rgb(0, 0, 0)" stroke-opacity="1.0" stroke-linecap="round" stroke-linejoin="round"/>
    <path d="M 349.37957763671875 391.7864990234375 C 101.12598419189453 478.2746276855469 197.13552856445312 342.0445251464844 139.37326049804688 394.3275451660156 C 126.24028778076172 394.4842529296875 176.143310546875 368.49267578125 163.15699768066406 369.34197998046875 C 138.40554809570312 331.2716979980469 138.80421447753906 304.5499267578125 181.86859130859375 294.04217529296875 C 324.9563903808594 310.1916809082031 399.3015441894531 278.7807922363281 349.37957763671875 391.7864990234375" stroke-width="0.0" fill="rgb(255, 253, 223)" opacity="1.0" stroke="rgb(0, 0, 0)" stroke-opacity="1.0" stroke-linecap="round" stroke-linejoin="round"/>
    <path d="M 448.394775390625 82.64799499511719 C 451.8713073730469 46.2149543762207 441.67584228515625 45.082542419433594 448.5613708496094 38.41575241088867 C 449.68182373046875 16.916915893554688 467.4828796386719 63.67904281616211 453.637939453125 101.59241485595703 C 466.1291198730469 -4.725470066070557 446.79376220703125 -53.255611419677734 461.8079528808594 -54.889854431152344 C 458.94219970703125 21.158185958862305 463.85699462890625 57.69660568237305 448.394775390625 82.64799499511719" stroke-width="0.0" fill="rgb(48, 83, 69)" opacity="0.4163102" stroke="rgb(0, 0, 0)" stroke-opacity="1.0" stroke-linecap="round" stroke-linejoin="round"/>
    <path d="M 452.1025695800781 52.75720977783203 C 309.59332275390625 153.71502685546875 407.9375 151.3986358642578 411.4512023925781 160.69090270996094 C 259.7027893066406 87.02091979980469 249.54104614257812 172.63475036621094 342.2938537597656 64.07648468017578 C 323.9472351074219 125.90797424316406 388.9890441894531 71.99884796142578 335.2235107421875 86.31610107421875 C 354.23724365234375 102.80330657958984 438.45770263671875 -2.9699201583862305 452.1025695800781 52.75720977783203" stroke-width="0.0" fill="rgb(49, 19, 0)" opacity="1.0" stroke="rgb(0, 0, 0)" stroke-opacity="1.0" stroke-linecap="round" stroke-linejoin="round"/>
    <path d="M 476.64617919921875 420.7224426269531 C 430.2921142578125 418.4064025878906 503.2731628417969 534.1098022460938 374.7995910644531 519.3479614257812 C 354.3259582519531 367.6507263183594 459.8484191894531 459.33184814453125 411.4084777832031 357.6207275390625 C 556.74169921875 441.2344665527344 338.65887451171875 350.189697265625 408.5899658203125 325.2473449707031 C 484.818115234375 394.4639587402344 515.1478881835938 404.07122802734375 476.64617919921875 420.7224426269531" stroke-width="0.0" fill="rgb(219, 250, 211)" opacity="0.09821417" stroke="rgb(0, 0, 0)" stroke-opacity="1.0" stroke-linecap="round" stroke-linejoin="round"/>
    <path d="M 478.7193603515625 50.070499420166016 C 451.6672668457031 28.65315818786621 491.68194580078125 51.734249114990234 431.9990539550781 165.70785522460938 C 398.05999755859375 108.22683715820312 350.4903869628906 137.94076538085938 387.5523986816406 51.23731231689453 C 454.4544372558594 17.09501838684082 465.94024658203125 45.384544372558594 461.0667724609375 82.74598693847656 C 466.518310546875 49.099586486816406 466.3987731933594 27.00389862060547 478.7193603515625 50.070499420166016" stroke-width="0.0" fill="rgb(0, 0, 55)" opacity="1.0" stroke="rgb(0, 0, 0)" stroke-opacity="1.0" stroke-linecap="round" stroke-linejoin="round"/>
    <path d="M 425.19952392578125 425.4363708496094 C 450.68194580078125 406.806640625 380.4798889160156 452.7182922363281 286.7486877441406 488.45843505859375 C 213.28387451171875 512.8370971679688 138.72662353515625 436.9335021972656 149.6168975830078 431.0399169921875 C 211.6818084716797 481.5029296875 251.744873046875 470.2681884765625 253.053955078125 448.7991943359375 C 237.78273010253906 449.608642578125 333.8398132324219 465.9314270019531 425.19952392578125 425.4363708496094" stroke-width="0.0" fill="rgb(26, 44, 108)" opacity="0.24081239" stroke="rgb(0, 0, 0)" stroke-opacity="1.0" stroke-linecap="round" stroke-linejoin="round"/>
    <path d="M 207.5150146484375 306.0230407714844 C 269.0029296875 299.466796875 290.57806396484375 302.2852478027344 259.57025146484375 304.7611083984375 C 240.79180908203125 286.7281494140625 261.10064697265625 288.62969970703125 224.32350158691406 223.51341247558594 C 197.37147521972656 266.83349609375 203.9522247314453 278.46612548828125 146.51939392089844 272.2779235839844 C 105.52334594726562 311.1241760253906 126.53346252441406 260.6582946777344 207.5150146484375 306.0230407714844" stroke-width="0.0" fill="rgb(255, 238, 70)" opacity="0.99300385" stroke="rgb(0, 0, 0)" stroke-opacity="1.0" stroke-linecap="round" stroke-linejoin="round"/>
    <path d="M 569.6818237304688 427.0435485839844 C 507.2208557128906 583.7286987304688 430.25518798828125 517.9757690429688 430.1517333984375 428.34405517578125 C 457.2236328125 397.8567199707031 478.2709045410156 412.74664306640625 461.32635498046875 401.3568420410156 C 483.64703369140625 383.9103698730469 444.3238220214844 417.4122009277344 464.32354736328125 378.0326843261719 C 539.0184936523438 408.49981689453125 471.3790588378906 381.086181640625 569.6818237304688 427.0435485839844" stroke-width="0.0" fill="rgb(238, 243, 235)" opacity="0.8204187" stroke="rgb(0, 0, 0)" stroke-opacity="1.0" stroke-linecap="round" stroke-linejoin="round"/>
    <path d="M 281.7864074707031 429.9246826171875 C 237.32666015625 413.054443359375 207.36953735351562 420.7756652832031 270.6394348144531 402.1186828613281 C 306.1246337890625 419.4508056640625 279.89080810546875 424.2492370605469 224.9104461669922 434.20928955078125 C 189.954833984375 439.13165283203125 239.33810424804688 421.310791015625 303.90130615234375 305.10162353515625 C 294.4090881347656 416.8203430175781 345.5090637207031 441.1257629394531 281.7864074707031 429.9246826171875" stroke-width="0.0" fill="rgb(0, 0, 13)" opacity="1.0" stroke="rgb(0, 0, 0)" stroke-opacity="1.0" stroke-linecap="round" stroke-linejoin="round"/>
    <path d="M 72.04383087158203 53.105491638183594 C 35.2622184753418 67.31291198730469 45.78403091430664 135.72189331054688 95.34549713134766 209.38279724121094 C 85.64879608154297 269.5050354003906 33.333377838134766 25.30303192138672 3.408782958984375 38.53242111206055 C 6.384166240692139 -13.984101295471191 23.73560333251953 -50.55645751953125 124.9389419555664 11.191302299499512 C 173.52040100097656 96.15568542480469 94.780517578125 5.621814727783203 72.04383087158203 53.105491638183594" stroke-width="0.0" fill="rgb(233, 251, 246)" opacity="0.9996816" stroke="rgb(0, 0, 0)" stroke-opacity="1.0" stroke-linecap="round" stroke-linejoin="round"/>
    <path d="M 228.6996307373047 61.51830291748047 C 160.42886352539062 54.05162048339844 185.6043243408203 15.738154411315918 187.5269775390625 71.65728759765625 C 135.9296112060547 74.24041748046875 124.8446044921875 52.41254425048828 100.07440185546875 -6.02258825302124 C 102.0672607421875 -27.913288116455078 107.5113754272461 -23.031238555908203 165.8593292236328 -47.63658905029297 C 208.78158569335938 -33.218772888183594 224.55833435058594 -31.85883140563965 228.6996307373047 61.51830291748047" stroke-width="0.0" fill="rgb(231, 247, 244)" opacity="0.9963223" stroke="rgb(0, 0, 0)" stroke-opacity="1.0" stroke-linecap="round" stroke-linejoin="round"/>
    <path d="M 117.68424224853516 256.9772644042969 C 105.6112060546875 332.4969787597656 98.2172622680664 320.7193908691406 76.84620666503906 345.9173889160156 C 67.3812484741211 347.9735412597656 79.38848876953125 332.2462463378906 77.67755126953125 279.7481689453125 C 59.243072509765625 283.4335632324219 101.851806640625 295.6116027832031 122.66544342041016 220.6878204345703 C 136.43606567382812 266.0300598144531 154.65933227539062 265.13739013671875 117.68424224853516 256.9772644042969" stroke-width="0.0" fill="rgb(64, 73, 123)" opacity="0.7025755" stroke="rgb(0, 0, 0)" stroke-opacity="1.0" stroke-linecap="round" stroke-linejoin="round"/>
    <path d="M 95.01304626464844 254.53514099121094 C 99.37403106689453 263.8825378417969 91.81908416748047 279.0719299316406 81.27784729003906 263.3475036621094 C 93.52790832519531 283.9020690917969 108.68571472167969 352.1955261230469 55.03422927856445 314.18341064453125 C 65.47342681884766 199.64813232421875 127.60005950927734 108.47834014892578 101.56956481933594 198.486572265625 C 84.1309814453125 227.20118713378906 88.83493041992188 224.18174743652344 95.01304626464844 254.53514099121094" stroke-width="0.0" fill="rgb(255, 254, 243)" opacity="1.0" stroke="rgb(0, 0, 0)" stroke-opacity="1.0" stroke-linecap="round" stroke-linejoin="round"/>
    <path d="M 287.75201416015625 96.0363998413086 C 287.5486755371094 155.3444061279297 349.9577331542969 242.60641479492188 255.30801391601562 308.19921875 C 198.16294860839844 181.47789001464844 172.76463317871094 113.00032806396484 162.853759765625 134.58248901367188 C 176.10719299316406 64.69232177734375 175.04896545410156 67.564453125 217.5947265625 92.91171264648438 C 280.8315734863281 108.45486450195312 315.64447021484375 105.8606948852539 287.75201416015625 96.0363998413086" stroke-width="0.0" fill="rgb(255, 179, 0)" opacity="1.0" stroke="rgb(0, 0, 0)" stroke-opacity="1.0" stroke-linecap="round" stroke-linejoin="round"/>
    <path d="M 304.74530029296875 422.454345703125 C 284.702392578125 342.8835144042969 338.37744140625 400.3787536621094 304.1314697265625 422.3182067871094 C 242.84231567382812 393.9227600097656 262.8116760253906 384.997802734375 283.3208312988281 369.34234619140625 C 308.52655029296875 359.027099609375 313.8841857910156 305.97845458984375 313.4724426269531 328.6203308105469 C 374.6505432128906 377.7156982421875 343.1927795410156 428.3081359863281 304.74530029296875 422.454345703125" stroke-width="0.0" fill="rgb(255, 255, 255)" opacity="1.0" stroke="rgb(0, 0, 0)" stroke-opacity="1.0" stroke-linecap="round" stroke-linejoin="round"/>
    <path d="M 32.6283073425293 455.791015625 C 34.40119171142578 444.5970764160156 142.77471923828125 391.879150390625 70.3104019165039 377.2548828125 C 34.929325103759766 411.6916809082031 30.537626266479492 393.912353515625 121.54698181152344 372.4798889160156 C 8.999459266662598 377.6712341308594 39.36429214477539 382.962646484375 100.38884735107422 366.6004638671875 C 104.07261657714844 409.9646911621094 101.39043426513672 384.2890319824219 32.6283073425293 455.791015625" stroke-width="0.0" fill="rgb(0, 4, 22)" opacity="0.4107084" stroke="rgb(0, 0, 0)" stroke-opacity="1.0" stroke-linecap="round" stroke-linejoin="round"/>
    <path d="M 348.175048828125 410.9972229003906 C 348.2922668457031 415.3286437988281 340.3392639160156 421.84466552734375 356.6734619140625 401.783935546875 C 368.3181457519531 424.3712158203125 377.2958679199219 444.6997375488281 337.03216552734375 474.42822265625 C 303.38592529296875 437.9595031738281 271.45159912109375 417.2594299316406 328.5361328125 421.21966552734375 C 374.96490478515625 382.8432312011719 345.6496276855469 374.9034423828125 348.175048828125 410.9972229003906" stroke-width="0.0" fill="rgb(0, 0, 29)" opacity="1.0" stroke="rgb(0, 0, 0)" stroke-opacity="1.0" stroke-linecap="round" stroke-linejoin="round"/>
    <path d="M 404.43609619140625 84.61235046386719 C 433.76239013671875 60.89952087402344 456.96966552734375 60.839317321777344 410.1996154785156 121.79784393310547 C 450.9770202636719 215.20950317382812 374.8414611816406 153.69839477539062 322.882080078125 115.41802978515625 C 386.6660461425781 96.12847900390625 403.2120361328125 81.41703796386719 402.4292297363281 81.11399841308594 C 408.6971435546875 104.76747131347656 444.0410461425781 66.9248275756836 404.43609619140625 84.61235046386719" stroke-width="0.0" fill="rgb(255, 181, 0)" opacity="1.0" stroke="rgb(0, 0, 0)" stroke-opacity="1.0" stroke-linecap="round" stroke-linejoin="round"/>
    <path d="M 221.0374755859375 50.01030349731445 C 225.191650390625 102.88761901855469 224.33642578125 161.13478088378906 166.02467346191406 140.22669982910156 C 113.25634002685547 138.1251220703125 133.15916442871094 122.66964721679688 158.79998779296875 73.19746398925781 C 113.73381805419922 34.4260139465332 139.0657501220703 66.86089324951172 169.25062561035156 82.99662780761719 C 138.24896240234375 86.41163635253906 181.65206909179688 65.04536437988281 221.0374755859375 50.01030349731445" stroke-width="0.0" fill="rgb(192, 81, 0)" opacity="0.95727307" stroke="rgb(0, 0, 0)" stroke-opacity="1.0" stroke-linecap="round" stroke-linejoin="round"/>
    <path d="M 531.8523559570312 440.48583984375 C 531.2156982421875 467.00396728515625 531.2875366210938 471.57672119140625 528.9865112304688 458.8162536621094 C 520.1783447265625 449.2282409667969 492.58001708984375 444.3183898925781 474.7345275878906 427.2508850097656 C 481.17742919921875 439.199951171875 495.1117248535156 428.774658203125 525.1589965820312 418.4174499511719 C 524.2904663085938 425.6336975097656 529.3707275390625 430.8746337890625 531.8523559570312 440.48583984375" stroke-width="0.0" fill="rgb(214, 198, 170)" opacity="0.0" stroke="rgb(0, 0, 0)" stroke-opacity="1.0" stroke-linecap="round" stroke-linejoin="round"/>
    <path d="M 384.7862854003906 165.41146850585938 C 377.00518798828125 212.58352661132812 344.04486083984375 240.89524841308594 328.040771484375 216.56130981445312 C 328.3446350097656 181.04547119140625 338.8111877441406 244.96890258789062 344.68548583984375 241.64682006835938 C 393.8825378417969 257.9644775390625 399.4768981933594 195.7444610595703 349.5397033691406 206.6612091064453 C 361.38079833984375 217.69676208496094 345.0845642089844 197.4778594970703 384.7862854003906 165.41146850585938" stroke-width="0.0" fill="rgb(32, 2, 3)" opacity="1.0" stroke="rgb(0, 0, 0)" stroke-opacity="1.0" stroke-linecap="round" stroke-linejoin="round"/>
    <path d="M 515.2455444335938 416.7901306152344 C 475.8992614746094 417.17974853515625 453.5196533203125 429.8770751953125 446.48004150390625 442.6834716796875 C 408.41363525390625 445.911376953125 420.6748962402344 427.6488952636719 430.46673583984375 396.5439758300781 C 429.6809387207031 424.8847351074219 477.35137939453125 385.5616149902344 478.8407897949219 370.5224609375 C 518.3506469726562 359.49932861328125 531.6129760742188 360.4521789550781 515.2455444335938 416.7901306152344" stroke-width="0.0" fill="rgb(239, 246, 235)" opacity="1.0" stroke="rgb(0, 0, 0)" stroke-opacity="1.0" stroke-linecap="round" stroke-linejoin="round"/>
    <path d="M 164.3615264892578 439.24432373046875 C 176.57150268554688 415.411376953125 156.84841918945312 426.32635498046875 162.28079223632812 428.5308837890625 C 178.5833740234375 442.7738952636719 142.355712890625 449.6260681152344 141.16639709472656 440.79705810546875 C 167.18746948242188 432.3273010253906 175.3152313232422 427.2822570800781 157.9662628173828 429.2503967285156 C 161.51473999023438 427.4178466796875 155.55003356933594 428.3806457519531 164.3615264892578 439.24432373046875" stroke-width="0.0" fill="rgb(174, 207, 246)" opacity="0.4261931" stroke="rgb(0, 0, 0)" stroke-opacity="1.0" stroke-linecap="round" stroke-linejoin="round"/>
    <path d="M 426.2320556640625 384.7738952636719 C 407.63677978515625 408.4975280761719 418.07647705078125 407.9225158691406 431.5301818847656 425.21337890625 C 410.0796203613281 411.5602722167969 429.50244140625 364.7044982910156 407.9873352050781 353.58441162109375 C 385.2467041015625 334.1062316894531 376.5565490722656 307.1683654785156 404.1847229003906 340.59625244140625 C 434.4664611816406 372.33489990234375 439.5450134277344 349.9057922363281 426.2320556640625 384.7738952636719" stroke-width="0.0" fill="rgb(96, 110, 146)" opacity="0.42981058" stroke="rgb(0, 0, 0)" stroke-opacity="1.0" stroke-linecap="round" stroke-linejoin="round"/>
    <path d="M 139.1251220703125 99.04653930664062 C 214.4052276611328 106.1547622680664 169.66848754882812 99.38724517822266 113.8232421875 102.96034240722656 C 126.85993194580078 103.53015899658203 131.4366455078125 66.98474884033203 81.72114562988281 88.71748352050781 C 68.85460662841797 54.58659744262695 74.7206802368164 70.37191009521484 98.37091827392578 69.71527099609375 C 109.22003173828125 81.22611236572266 115.60916137695312 92.9859848022461 139.1251220703125 99.04653930664062" stroke-width="0.0" fill="rgb(13, 0, 1)" opacity="0.77101845" stroke="rgb(0, 0, 0)" stroke-opacity="1.0" stroke-linecap="round" stroke-linejoin="round"/>
    <path d="M 359.6390686035156 363.12872314453125 C 353.36590576171875 369.3603515625 341.9243469238281 394.5929870605469 317.51983642578125 397.314697265625 C 305.4556579589844 382.1711120605469 335.632080078125 383.75689697265625 358.9527282714844 355.6622314453125 C 328.5224304199219 371.81048583984375 263.793701171875 393.05584716796875 304.1971740722656 384.6988220214844 C 358.2569580078125 387.9690856933594 360.8572998046875 401.3819274902344 359.6390686035156 363.12872314453125" stroke-width="0.0" fill="rgb(5, 4, 60)" opacity="0.9683618" stroke="rgb(0, 0, 0)" stroke-opacity="1.0" stroke-linecap="round" stroke-linejoin="round"/>
    <path d="M 124.49249267578125 335.0111999511719 C 97.17977905273438 325.97808837890625 74.8124771118164 341.4952392578125 77.05366516113281 357.78302001953125 C 88.75052642822266 366.552734375 85.2345962524414 353.7857666015625 88.71875762939453 347.6139831542969 C 91.39961242675781 359.12664794921875 95.14289093017578 354.6434020996094 102.55168914794922 355.88775634765625 C 101.2381362915039 354.6370849609375 113.69959259033203 366.8988342285156 124.49249267578125 335.0111999511719" stroke-width="0.0" fill="rgb(65, 93, 95)" opacity="0.0" stroke="rgb(0, 0, 0)" stroke-opacity="1.0" stroke-linecap="round" stroke-linejoin="round"/>
    <path d="M 294.5567626953125 91.91265106201172 C 305.5950622558594 182.93360900878906 318.7915344238281 257.55865478515625 290.57257080078125 173.24966430664062 C 236.6545867919922 124.31621551513672 243.0740509033203 205.23484802246094 173.74737548828125 183.80657958984375 C 179.0174102783203 68.99867248535156 197.26461791992188 82.92466735839844 204.01551818847656 62.43327713012695 C 233.5152587890625 47.29777145385742 314.7438049316406 51.46778869628906 294.5567626953125 91.91265106201172" stroke-width="0.0" fill="rgb(86, 4, 0)" opacity="0.9067253" stroke="rgb(0, 0, 0)" stroke-opacity="1.0" stroke-linecap="round" stroke-linejoin="round"/>
    <path d="M 443.0125732421875 99.19740295410156 C 428.3310241699219 93.56063079833984 409.8064880371094 120.0977554321289 419.48236083984375 125.79608154296875 C 360.5922546386719 92.76216125488281 377.406005859375 90.27471160888672 402.5127258300781 85.11209869384766 C 402.1542663574219 76.87278747558594 417.37615966796875 56.38346481323242 427.7618408203125 60.29988479614258 C 448.35064697265625 52.76982879638672 452.7796630859375 80.0427017211914 443.0125732421875 99.19740295410156" stroke-width="0.0" fill="rgb(49, 47, 127)" opacity="0.920294" stroke="rgb(0, 0, 0)" stroke-opacity="1.0" stroke-linecap="round" stroke-linejoin="round"/>
    <path d="M 118.76112365722656 128.56663513183594 C 105.20855712890625 131.15711975097656 87.37323760986328 153.46170043945312 102.2486343383789 148.55926513671875 C 97.29352569580078 126.13224029541016 99.50330352783203 118.32843017578125 88.33773040771484 113.07465362548828 C 66.99524688720703 104.894775390625 49.210594177246094 78.2054214477539 96.85520935058594 61.33849334716797 C 141.18218994140625 90.27433776855469 138.55506896972656 119.63453674316406 118.76112365722656 128.56663513183594" stroke-width="0.0" fill="rgb(38, 57, 95)" opacity="1.0" stroke="rgb(0, 0, 0)" stroke-opacity="1.0" stroke-linecap="round" stroke-linejoin="round"/>
    <path d="M 522.5073852539062 480.8204345703125 C 530.7090454101562 508.4295959472656 507.7198486328125 532.9354248046875 487.09454345703125 519.8600463867188 C 456.7971496582031 504.365234375 435.7455139160156 489.21124267578125 441.5011901855469 495.5859680175781 C 457.39141845703125 474.6463623046875 483.6267395019531 484.01434326171875 515.9021606445312 480.0745544433594 C 546.1748046875 455.20037841796875 532.041015625 450.2761535644531 522.5073852539062 480.8204345703125" stroke-width="0.0" fill="rgb(202, 191, 163)" opacity="0.01463019" stroke="rgb(0, 0, 0)" stroke-opacity="1.0" stroke-linecap="round" stroke-linejoin="round"/>
    <path d="M 283.40771484375 335.7436218261719 C 264.5080871582031 322.8222961425781 284.7638244628906 354.30535888671875 250.169921875 386.669677734375 C 205.54525756835938 350.4104919433594 200.29049682617188 347.9197692871094 216.1277618408203 326.43682861328125 C 250.4542236328125 342.1039123535156 274.389892578125 351.2931213378906 307.2847595214844 337.6004943847656 C 305.9900207519531 315.3202819824219 268.7074890136719 346.0843505859375 283.40771484375 335.7436218261719" stroke-width="0.0" fill="rgb(132, 0, 78)" opacity="1.0" stroke="rgb(0, 0, 0)" stroke-opacity="1.0" stroke-linecap="round" stroke-linejoin="round"/>
    <path d="M 446.7686462402344 155.41221618652344 C 439.4372253417969 149.96389770507812 430.6595458984375 168.53379821777344 407.0896911621094 169.9655303955078 C 380.6229553222656 206.4304962158203 357.9765319824219 178.65704345703125 371.52294921875 134.15354919433594 C 433.6622009277344 194.37875366210938 436.921142578125 197.17340087890625 442.2027282714844 148.83436584472656 C 448.44720458984375 139.71530151367188 434.5992126464844 153.5023193359375 446.7686462402344 155.41221618652344" stroke-width="0.0" fill="rgb(46, 15, 0)" opacity="1.0" stroke="rgb(0, 0, 0)" stroke-opacity="1.0" stroke-linecap="round" stroke-linejoin="round"/>
    <path d="M 449.6424865722656 522.1500854492188 C 479.6302185058594 535.8475341796875 481.39697265625 529.8511962890625 444.7367248535156 536.6830444335938 C 434.8803405761719 501.50103759765625 436.53033447265625 475.612060546875 429.9885559082031 482.0585021972656 C 435.8311462402344 479.5224914550781 433.8143005371094 476.1508483886719 443.9953918457031 476.5577697753906 C 435.1122131347656 479.1155700683594 432.0728759765625 497.8950500488281 449.6424865722656 522.1500854492188" stroke-width="0.0" fill="rgb(164, 152, 89)" opacity="0.41433254" stroke="rgb(0, 0, 0)" stroke-opacity="1.0" stroke-linecap="round" stroke-linejoin="round"/>
    <path d="M 462.58905029296875 -16.51541519165039 C 461.64215087890625 -3.313829183578491 474.2796325683594 2.578618049621582 466.7105712890625 -7.828063011169434 C 466.121826171875 5.366984844207764 460.8564758300781 11.253267288208008 433.19732666015625 -8.041345596313477 C 442.1380920410156 -8.957436561584473 458.9303894042969 -10.921478271484375 469.4380187988281 -18.92889404296875 C 474.8860168457031 -14.387734413146973 486.1815185546875 -6.34412956237793 462.58905029296875 -16.51541519165039" stroke-width="0.0" fill="rgb(38, 97, 4)" opacity="0.083658546" stroke="rgb(0, 0, 0)" stroke-opacity="1.0" stroke-linecap="round" stroke-linejoin="round"/>
    <path d="M 131.85858154296875 260.9143981933594 C 180.3752899169922 302.3062744140625 169.15431213378906 302.8512878417969 202.50051879882812 261.6342468261719 C 189.46983337402344 239.7684783935547 157.5243377685547 229.1147918701172 133.3343963623047 201.90277099609375 C 181.9911346435547 212.4781951904297 156.0381317138672 229.85894775390625 199.68504333496094 234.6510467529297 C 214.74862670898438 274.0106506347656 176.5627899169922 217.8441619873047 131.85858154296875 260.9143981933594" stroke-width="0.0" fill="rgb(255, 166, 28)" opacity="1.0" stroke="rgb(0, 0, 0)" stroke-opacity="1.0" stroke-linecap="round" stroke-linejoin="round"/>
    <path d="M 195.05931091308594 387.39312744140625 C 189.77947998046875 429.67059326171875 175.1294708251953 443.3895263671875 180.70753479003906 467.8307800292969 C 158.49078369140625 470.55303955078125 145.10043334960938 469.64361572265625 136.10284423828125 446.4284362792969 C 157.57235717773438 408.31683349609375 171.5389862060547 404.44500732421875 165.4813995361328 408.7645263671875 C 176.5396270751953 391.37261962890625 196.23370361328125 379.09771728515625 195.05931091308594 387.39312744140625" stroke-width="0.0" fill="rgb(230, 255, 166)" opacity="0.0" stroke="rgb(0, 0, 0)" stroke-opacity="1.0" stroke-linecap="round" stroke-linejoin="round"/>
    <path d="M 192.1767120361328 205.42955017089844 C 197.31423950195312 223.18121337890625 192.04129028320312 226.8423309326172 167.4995574951172 200.47718811035156 C 183.3835906982422 241.9533233642578 181.68096923828125 224.03744506835938 183.2727813720703 239.54495239257812 C 183.41314697265625 239.42604064941406 188.37452697753906 233.15394592285156 172.2849578857422 233.24990844726562 C 159.47589111328125 232.95892333984375 183.03369140625 233.00270080566406 192.1767120361328 205.42955017089844" stroke-width="0.0" fill="rgb(114, 241, 96)" opacity="0.5917369" stroke="rgb(0, 0, 0)" stroke-opacity="1.0" stroke-linecap="round" stroke-linejoin="round"/>
    <path d="M 198.19845581054688 361.96337890625 C 177.26165771484375 342.5671081542969 162.53480529785156 341.55218505859375 155.69557189941406 365.43341064453125 C 252.18653869628906 399.0644226074219 219.8951873779297 373.8651428222656 155.51766967773438 361.4454345703125 C 169.65289306640625 336.6256408691406 181.2899169921875 363.3764953613281 158.24337768554688 326.61163330078125 C 147.54579162597656 346.89093017578125 162.8945770263672 352.25445556640625 198.19845581054688 361.96337890625" stroke-width="0.0" fill="rgb(15, 13, 48)" opacity="0.9695446" stroke="rgb(0, 0, 0)" stroke-opacity="1.0" stroke-linecap="round" stroke-linejoin="round"/>
    <path d="M 51.95236587524414 455.8666076660156 C 64.9059066772461 505.6269226074219 39.885868072509766 518.0554809570312 88.44910430908203 512.0172729492188 C 97.60736083984375 453.6083679199219 82.30015563964844 429.76361083984375 97.74602508544922 405.9950256347656 C 95.80775451660156 406.6391296386719 64.20770263671875 397.42718505859375 64.3955078125 425.80450439453125 C 95.23046112060547 436.1925354003906 99.07079315185547 417.8442077636719 51.95236587524414 455.8666076660156" stroke-width="0.0" fill="rgb(242, 254, 242)" opacity="0.11360803" stroke="rgb(0, 0, 0)" stroke-opacity="1.0" stroke-linecap="round" stroke-linejoin="round"/>
    <path d="M 461.98095703125 459.671142578125 C 460.73443603515625 465.5376281738281 460.32171630859375 480.7470397949219 461.08319091796875 459.40692138671875 C 461.51495361328125 444.5023498535156 450.64404296875 428.9059753417969 434.29107666015625 439.8636474609375 C 434.324951171875 456.8022155761719 443.5319519042969 448.7890625 404.95867919921875 452.9776611328125 C 414.7641906738281 465.4244384765625 463.1136779785156 480.08941650390625 461.98095703125 459.671142578125" stroke-width="0.0" fill="rgb(252, 253, 203)" opacity="0.050088357" stroke="rgb(0, 0, 0)" stroke-opacity="1.0" stroke-linecap="round" stroke-linejoin="round"/>
    <path d="M 464.7890930175781 376.5300598144531 C 463.1904296875 378.6637878417969 475.0218505859375 379.1343078613281 459.3817443847656 386.01129150390625 C 407.1321716308594 418.8408508300781 391.13677978515625 428.1240539550781 407.0801086425781 371.9078369140625 C 409.5624084472656 355.7241516113281 386.96453857421875 358.49334716796875 398.3197326660156 375.6740417480469 C 454.9173889160156 356.790771484375 467.91082763671875 340.9981384277344 464.7890930175781 376.5300598144531" stroke-width="0.0" fill="rgb(0, 0, 35)" opacity="1.0" stroke="rgb(0, 0, 0)" stroke-opacity="1.0" stroke-linecap="round" stroke-linejoin="round"/>
    <path d="M 55.10513687133789 111.171630859375 C 71.56263732910156 131.02621459960938 64.35303497314453 110.63388061523438 36.61811065673828 94.8495101928711 C 27.839263916015625 163.18492126464844 10.447000503540039 141.94207763671875 -12.680161476135254 122.20698547363281 C -17.939720153808594 120.27068328857422 -16.62269401550293 47.12814712524414 25.23355484008789 36.25306701660156 C 52.04599380493164 62.670352935791016 36.74557876586914 97.70993041992188 55.10513687133789 111.171630859375" stroke-width="0.0" fill="rgb(207, 252, 250)" opacity="0.012840875" stroke="rgb(0, 0, 0)" stroke-opacity="1.0" stroke-linecap="round" stroke-linejoin="round"/>
    <path d="M 121.8457260131836 501.4393005371094 C 133.27944946289062 522.1199340820312 109.15827178955078 515.3739624023438 2.533236026763916 522.1236572265625 C -3.616793155670166 497.6047668457031 -0.9351915717124939 481.5244445800781 -5.570024013519287 484.918212890625 C -16.026464462280273 438.28179931640625 -26.716115951538086 431.83355712890625 3.209139585494995 415.13037109375 C 30.734533309936523 395.83172607421875 46.57896041870117 444.9277648925781 121.8457260131836 501.4393005371094" stroke-width="0.0" fill="rgb(109, 182, 156)" opacity="0.18211734" stroke="rgb(0, 0, 0)" stroke-opacity="1.0" stroke-linecap="round" stroke-linejoin="round"/>
    <path d="M 111.25383758544922 239.0019989013672 C 100.23494720458984 254.63003540039062 104.64939880371094 277.21875 123.9506607055664 272.5889892578125 C 156.49436950683594 244.52259826660156 122.51333618164062 246.74658203125 121.25066375732422 197.98843383789062 C 163.15330505371094 216.0471649169922 119.77493286132812 244.36959838867188 112.36093139648438 227.43914794921875 C 126.48025512695312 211.50970458984375 129.64865112304688 248.0742645263672 111.25383758544922 239.0019989013672" stroke-width="0.0" fill="rgb(253, 254, 91)" opacity="0.9948692" stroke="rgb(0, 0, 0)" stroke-opacity="1.0" stroke-linecap="round" stroke-linejoin="round"/>
    <path d="M 348.068115234375 -3.567331552505493 C 360.2038879394531 79.90414428710938 361.68927001953125 77.0199966430664 267.54205322265625 61.72643280029297 C 215.43057250976562 57.11337661743164 225.98304748535156 55.64889907836914 212.4728546142578 12.17582893371582 C 208.60552978515625 -48.2663688659668 210.62184143066406 -58.894405364990234 272.3522644042969 -36.80404281616211 C 316.5750732421875 -32.33198928833008 334.5555419921875 -29.311466217041016 348.068115234375 -3.567331552505493" stroke-width="0.0" fill="rgb(171, 237, 108)" opacity="0.04696185" stroke="rgb(0, 0, 0)" stroke-opacity="1.0" stroke-linecap="round" stroke-linejoin="round"/>
    <path d="M 146.6053466796875 129.24412536621094 C 152.71253967285156 127.91922760009766 139.65284729003906 204.93484497070312 120.68291473388672 259.880615234375 C 96.39183807373047 222.78257751464844 119.27735900878906 170.17608642578125 152.0221710205078 162.27474975585938 C 166.06773376464844 155.42794799804688 179.20530700683594 77.65165710449219 117.13875579833984 115.73848724365234 C 52.728248596191406 192.29345703125 87.78077697753906 211.46900939941406 146.6053466796875 129.24412536621094" stroke-width="0.0" fill="rgb(255, 229, 0)" opacity="0.9526709" stroke="rgb(0, 0, 0)" stroke-opacity="1.0" stroke-linecap="round" stroke-linejoin="round"/>
    <path d="M 473.7380676269531 247.5135498046875 C 476.6300964355469 255.17552185058594 461.7143859863281 247.12025451660156 443.9521179199219 257.792236328125 C 442.7176513671875 255.83798217773438 444.8424377441406 270.68511962890625 446.0859069824219 248.27830505371094 C 458.5445861816406 245.6355743408203 455.926513671875 239.53277587890625 468.994140625 218.46029663085938 C 474.56353759765625 229.43679809570312 478.53363037109375 228.3466796875 473.7380676269531 247.5135498046875" stroke-width="0.0" fill="rgb(10, 5, 30)" opacity="0.7257643" stroke="rgb(0, 0, 0)" stroke-opacity="1.0" stroke-linecap="round" stroke-linejoin="round"/>
    <path d="M 362.3984069824219 371.3558349609375 C 379.89154052734375 421.4198303222656 363.5397644042969 393.0561828613281 357.6322326660156 440.8500061035156 C 309.7208557128906 485.29437255859375 268.99993896484375 503.8945617675781 325.9191589355469 429.230712890625 C 348.5953674316406 395.9482421875 363.33721923828125 387.7666015625 378.95721435546875 333.4157409667969 C 293.1571044921875 355.73223876953125 338.52142333984375 362.43157958984375 362.3984069824219 371.3558349609375" stroke-width="0.0" fill="rgb(0, 0, 31)" opacity="0.4964361" stroke="rgb(0, 0, 0)" stroke-opacity="1.0" stroke-linecap="round" stroke-linejoin="round"/>
    <path d="M 432.6259460449219 208.23345947265625 C 401.2756042480469 227.06451416015625 380.8717041015625 223.7084197998047 321.0771179199219 227.4639129638672 C 371.1669921875 204.90023803710938 383.8285217285156 212.2168731689453 353.5757141113281 196.55319213867188 C 348.3641052246094 207.93357849121094 363.53521728515625 200.26284790039062 387.4862976074219 167.66456604003906 C 394.5877685546875 161.87200927734375 401.02838134765625 165.5727081298828 432.6259460449219 208.23345947265625" stroke-width="0.0" fill="rgb(116, 108, 74)" opacity="0.0008304872" stroke="rgb(0, 0, 0)" stroke-opacity="1.0" stroke-linecap="round" stroke-linejoin="round"/>
    <path d="M 66.02952575683594 390.9009704589844 C 70.63897705078125 455.3131408691406 90.86701202392578 469.7894592285156 116.52999877929688 475.43212890625 C 66.2540283203125 485.267822265625 89.2596206665039 478.3974609375 94.08553314208984 462.7678527832031 C 107.59388732910156 412.3909606933594 94.30198669433594 421.56866455078125 77.31737518310547 424.7396240234375 C 81.48274993896484 393.2428283691406 91.42845916748047 390.77471923828125 66.02952575683594 390.9009704589844" stroke-width="0.0" fill="rgb(242, 255, 236)" opacity="0.107916065" stroke="rgb(0, 0, 0)" stroke-opacity="1.0" stroke-linecap="round" stroke-linejoin="round"/>
    <path d="M 135.9689483642578 490.7807922363281 C 126.10725402832031 497.8772888183594 97.96443939208984 500.1719970703125 74.61836242675781 494.770263671875 C 66.43882751464844 473.6123352050781 62.93088912963867 463.9263000488281 47.89603805541992 450.0306091308594 C 41.59378433227539 430.45587158203125 42.23738479614258 421.9319763183594 63.03940963745117 410.5632629394531 C 87.05558776855469 430.8335876464844 103.35836791992188 438.0473937988281 135.9689483642578 490.7807922363281" stroke-width="0.0" fill="rgb(220, 254, 162)" opacity="0.013050818" stroke="rgb(0, 0, 0)" stroke-opacity="1.0" stroke-linecap="round" stroke-linejoin="round"/>
  </g>
</svg>
