<?xml version="1.0" ?>
<svg xmlns="http://www.w3.org/2000/svg" version="1.1" width="512" height="512">
  <defs/>
  <g>
    <path d="M 547.7431030273438 456.80755615234375 C 548.0579833984375 517.3278198242188 548.9373779296875 525.5354614257812 376.8831787109375 541.2723388671875 C 317.70281982421875 569.119873046875 311.0796813964844 549.7694702148438 265.21319580078125 490.8492431640625 C 310.51214599609375 317.1105041503906 358.8262023925781 321.6210021972656 472.7630920410156 299.3478698730469 C 580.2557373046875 298.0279541015625 578.3106689453125 321.5356750488281 547.7431030273438 456.80755615234375" stroke-width="0.0" fill="rgb(19, 13, 99)" opacity="0.9858526" stroke="rgb(0, 0, 0)" stroke-opacity="1.0" stroke-linecap="round" stroke-linejoin="round"/>
    <path d="M 277.322998046875 457.6926574707031 C 315.96563720703125 524.5249633789062 321.8407287597656 529.5569458007812 126.75969696044922 525.2435302734375 C -51.20000076293945 517.7235107421875 -51.20000076293945 507.83367919921875 -21.774600982666016 449.183837890625 C -18.38620376586914 205.44985961914062 -18.693912506103516 199.01014709472656 -11.328239440917969 240.81082153320312 C 204.3767547607422 305.19964599609375 259.4379577636719 238.60525512695312 277.322998046875 457.6926574707031" stroke-width="0.0" fill="rgb(7, 0, 112)" opacity="0.99535376" stroke="rgb(0, 0, 0)" stroke-opacity="1.0" stroke-linecap="round" stroke-linejoin="round"/>
    <path d="M 270.0384521484375 327.5577392578125 C 212.40484619140625 444.55218505859375 216.99710083007812 475.7007141113281 184.4768524169922 370.18572998046875 C 75.72349548339844 355.5226135253906 23.48235321044922 403.3706970214844 31.79168701171875 177.67514038085938 C 15.023605346679688 166.9077606201172 20.31785774230957 161.804931640625 107.44284057617188 124.48206329345703 C 260.6626892089844 123.75274658203125 279.08990478515625 120.78596496582031 270.0384521484375 327.5577392578125" stroke-width="0.0" fill="rgb(255, 255, 201)" opacity="1.0" stroke="rgb(0, 0, 0)" stroke-opacity="1.0" stroke-linecap="round" stroke-linejoin="round"/>
    <path d="M 299.62091064453125 29.98891830444336 C 285.17449951171875 204.95022583007812 226.33836364746094 162.40133666992188 28.62835121154785 192.1559600830078 C -54.48278045654297 182.7136688232422 -51.59566879272461 178.06666564941406 -42.43938446044922 58.905269622802734 C -14.989005088806152 -15.722881317138672 -7.218327522277832 -19.66063117980957 108.01140594482422 -53.470481872558594 C 236.30197143554688 -60.76506042480469 276.8883361816406 -81.894287109375 299.62091064453125 29.98891830444336" stroke-width="0.0" fill="rgb(16, 8, 100)" opacity="0.9746249" stroke="rgb(0, 0, 0)" stroke-opacity="1.0" stroke-linecap="round" stroke-linejoin="round"/>
    <path d="M 552.7025756835938 69.17948913574219 C 459.8118896484375 307.9564514160156 476.9365234375 333.09820556640625 408.8799743652344 332.5061950683594 C 248.82675170898438 351.143310546875 220.67193603515625 356.8243103027344 231.8514862060547 208.32217407226562 C 218.47048950195312 56.67409133911133 190.0615234375 -22.45416831970215 301.8715515136719 -84.59355163574219 C 563.2000122070312 -6.244815349578857 563.2000122070312 4.452378749847412 552.7025756835938 69.17948913574219" stroke-width="0.0" fill="rgb(13, 6, 110)" opacity="0.9952609" stroke="rgb(0, 0, 0)" stroke-opacity="1.0" stroke-linecap="round" stroke-linejoin="round"/>
    <path d="M 471.8844909667969 327.52313232421875 C 476.4690246582031 424.5233459472656 495.046875 509.0276184082031 294.81121826171875 556.6382446289062 C 201.38174438476562 563.3902587890625 210.60482788085938 529.1138305664062 211.52984619140625 446.1523132324219 C 236.28550720214844 229.7505645751953 296.6796875 212.5611572265625 325.24871826171875 246.5087890625 C 418.1351623535156 275.1050720214844 484.7173767089844 265.4829406738281 471.8844909667969 327.52313232421875" stroke-width="0.0" fill="rgb(21, 15, 102)" opacity="1.0" stroke="rgb(0, 0, 0)" stroke-opacity="1.0" stroke-linecap="round" stroke-linejoin="round"/>
    <path d="M 541.0631713867188 199.60643005371094 C 557.3793334960938 307.6900329589844 556.2611083984375 310.5992126464844 495.854736328125 301.6245422363281 C 388.7235107421875 303.59661865234375 411.9658508300781 299.08251953125 408.8799743652344 242.59695434570312 C 425.2551574707031 98.1159896850586 385.2277526855469 68.5679702758789 512.3827514648438 64.22183227539062 C 577.5360107421875 72.97044372558594 583.0645751953125 117.6584243774414 541.0631713867188 199.60643005371094" stroke-width="0.0" fill="rgb(19, 15, 96)" opacity="1.0" stroke="rgb(0, 0, 0)" stroke-opacity="1.0" stroke-linecap="round" stroke-linejoin="round"/>
    <path d="M 245.6449737548828 250.6441650390625 C 243.05271911621094 296.9433898925781 254.04205322265625 316.36859130859375 230.42091369628906 319.77435302734375 C 238.3065185546875 302.5763244628906 234.6196746826172 313.21148681640625 179.4391326904297 262.4537048339844 C 153.3256378173828 189.70870971679688 148.58859252929688 206.99485778808594 244.14329528808594 192.85350036621094 C 248.62850952148438 186.3522186279297 223.94052124023438 203.33895874023438 245.6449737548828 250.6441650390625" stroke-width="0.0" fill="rgb(38, 18, 139)" opacity="0.5795328" stroke="rgb(0, 0, 0)" stroke-opacity="1.0" stroke-linecap="round" stroke-linejoin="round"/>
    <path d="M 279.5437316894531 42.335304260253906 C 262.3154602050781 108.6427993774414 268.8131408691406 126.70524597167969 283.6681213378906 154.82110595703125 C 237.4828338623047 153.39700317382812 196.95989990234375 158.41029357910156 146.3851318359375 129.33602905273438 C 194.1748809814453 131.5216064453125 197.2225799560547 104.70337677001953 237.49569702148438 107.08238220214844 C 237.12916564941406 99.6780014038086 245.95077514648438 26.220417022705078 279.5437316894531 42.335304260253906" stroke-width="0.0" fill="rgb(255, 254, 227)" opacity="1.0" stroke="rgb(0, 0, 0)" stroke-opacity="1.0" stroke-linecap="round" stroke-linejoin="round"/>
    <path d="M 227.65602111816406 351.91253662109375 C 185.70555114746094 492.8266296386719 208.47726440429688 494.7140197753906 178.3872528076172 481.15350341796875 C 176.88177490234375 438.9217529296875 173.5717010498047 380.0262145996094 158.6834716796875 321.2307434082031 C 200.68115234375 334.9846496582031 166.3881378173828 341.4070739746094 182.462646484375 345.4446105957031 C 166.92030334472656 343.7981872558594 168.36129760742188 328.2487487792969 227.65602111816406 351.91253662109375" stroke-width="0.0" fill="rgb(254, 252, 186)" opacity="0.99997324" stroke="rgb(0, 0, 0)" stroke-opacity="1.0" stroke-linecap="round" stroke-linejoin="round"/>
    <path d="M 252.5249481201172 201.3824005126953 C 249.86514282226562 284.69482421875 245.68125915527344 348.381591796875 230.87738037109375 363.51458740234375 C 67.34696960449219 368.47613525390625 168.67657470703125 320.8288269042969 175.4563751220703 283.2778015136719 C 64.94779205322266 177.2545166015625 48.612449645996094 151.77667236328125 209.66983032226562 38.620235443115234 C 133.68212890625 189.76626586914062 196.39471435546875 103.4242172241211 252.5249481201172 201.3824005126953" stroke-width="0.0" fill="rgb(255, 255, 205)" opacity="1.0" stroke="rgb(0, 0, 0)" stroke-opacity="1.0" stroke-linecap="round" stroke-linejoin="round"/>
    <path d="M 186.37648010253906 275.8860778808594 C 63.49874496459961 278.5390930175781 38.90360641479492 274.5386962890625 49.69327926635742 302.9349670410156 C 85.76374816894531 428.5838317871094 85.1766128540039 398.63751220703125 -6.478273391723633 278.66253662109375 C -41.8588981628418 103.39733123779297 -17.377696990966797 135.0656280517578 168.29043579101562 91.27118682861328 C 213.01637268066406 126.74331665039062 191.5513153076172 167.16371154785156 186.37648010253906 275.8860778808594" stroke-width="0.0" fill="rgb(18, 13, 107)" opacity="1.0" stroke="rgb(0, 0, 0)" stroke-opacity="1.0" stroke-linecap="round" stroke-linejoin="round"/>
    <path d="M 239.94802856445312 69.0179443359375 C 257.2869567871094 88.82975769042969 238.9167022705078 72.37417602539062 183.4052276611328 134.75376892089844 C 180.738525390625 155.18478393554688 106.7981185913086 151.30479431152344 90.9948959350586 43.256752014160156 C 63.906768798828125 -82.15829467773438 62.82318878173828 -73.59649658203125 194.82078552246094 -50.277645111083984 C 201.54893493652344 11.10018253326416 161.6594696044922 65.91132354736328 239.94802856445312 69.0179443359375" stroke-width="0.0" fill="rgb(14, 2, 119)" opacity="1.0" stroke="rgb(0, 0, 0)" stroke-opacity="1.0" stroke-linecap="round" stroke-linejoin="round"/>
    <path d="M 263.4413757324219 127.43827819824219 C 318.9564208984375 171.64183044433594 294.1666259765625 196.36231994628906 222.60028076171875 187.75253295898438 C 165.01025390625 153.64627075195312 299.4532165527344 170.16761779785156 226.400390625 132.87841796875 C 261.75714111328125 71.03762817382812 277.374267578125 133.0224609375 307.6470642089844 152.45481872558594 C 291.38690185546875 183.9699249267578 256.3042297363281 144.32289123535156 263.4413757324219 127.43827819824219" stroke-width="0.0" fill="rgb(255, 253, 227)" opacity="1.0" stroke="rgb(0, 0, 0)" stroke-opacity="1.0" stroke-linecap="round" stroke-linejoin="round"/>
    <path d="M 63.773773193359375 259.6992492675781 C 98.25916290283203 312.5613098144531 135.26576232910156 329.47491455078125 98.09474182128906 359.7007751464844 C 100.96916198730469 344.75537109375 80.7625503540039 331.0101623535156 82.056884765625 300.8437805175781 C 87.03165435791016 314.8125 88.86526489257812 314.03851318359375 88.33927917480469 324.02655029296875 C 58.8735237121582 365.58477783203125 -5.069704055786133 247.1129150390625 63.773773193359375 259.6992492675781" stroke-width="0.0" fill="rgb(255, 255, 196)" opacity="1.0" stroke="rgb(0, 0, 0)" stroke-opacity="1.0" stroke-linecap="round" stroke-linejoin="round"/>
    <path d="M 221.0782012939453 76.80299377441406 C 226.13446044921875 107.43240356445312 152.4232177734375 105.90557098388672 190.32272338867188 145.496337890625 C 245.39169311523438 54.34613037109375 242.98300170898438 139.4436798095703 179.71099853515625 100.82720947265625 C 240.5086212158203 153.44996643066406 229.12918090820312 58.87943649291992 222.80560302734375 46.452369689941406 C 196.3542938232422 47.28692626953125 226.62730407714844 51.13053512573242 221.0782012939453 76.80299377441406" stroke-width="0.0" fill="rgb(9, 0, 127)" opacity="0.20415041" stroke="rgb(0, 0, 0)" stroke-opacity="1.0" stroke-linecap="round" stroke-linejoin="round"/>
    <path d="M 258.4322814941406 455.3677673339844 C 215.15975952148438 457.4102783203125 212.17047119140625 441.4049987792969 228.47219848632812 434.4288024902344 C 257.19598388671875 494.5821228027344 216.93081665039062 487.4119567871094 233.89990234375 474.57763671875 C 233.70252990722656 304.145263671875 240.27169799804688 299.89508056640625 235.9427947998047 449.0440673828125 C 284.711181640625 454.11676025390625 249.12648010253906 453.64630126953125 258.4322814941406 455.3677673339844" stroke-width="0.0" fill="rgb(236, 226, 190)" opacity="0.8496619" stroke="rgb(0, 0, 0)" stroke-opacity="1.0" stroke-linecap="round" stroke-linejoin="round"/>
    <path d="M 170.70645141601562 288.0737609863281 C 165.4237518310547 279.8524475097656 140.03932189941406 311.0401611328125 147.2027587890625 293.40869140625 C 183.2655029296875 274.2495422363281 190.43594360351562 276.2969665527344 92.65677642822266 297.2687683105469 C 132.95889282226562 326.6808166503906 128.23829650878906 331.2641296386719 128.771240234375 284.2232360839844 C 122.50425720214844 275.8957214355469 126.37887573242188 283.7457580566406 170.70645141601562 288.0737609863281" stroke-width="0.0" fill="rgb(255, 255, 200)" opacity="0.38122025" stroke="rgb(0, 0, 0)" stroke-opacity="1.0" stroke-linecap="round" stroke-linejoin="round"/>
    <path d="M 238.62010192871094 101.47164916992188 C 234.23016357421875 127.21070861816406 232.2772216796875 129.2254638671875 186.7459259033203 146.2586212158203 C 193.4361114501953 145.1149444580078 195.4773712158203 167.31991577148438 208.4443817138672 131.10707092285156 C 215.92674255371094 53.82089614868164 212.369140625 36.00108337402344 203.7008514404297 43.43808364868164 C 175.8918914794922 80.51495361328125 189.43443298339844 110.24674987792969 238.62010192871094 101.47164916992188" stroke-width="0.0" fill="rgb(255, 255, 223)" opacity="1.0" stroke="rgb(0, 0, 0)" stroke-opacity="1.0" stroke-linecap="round" stroke-linejoin="round"/>
    <path d="M 367.96942138671875 276.31964111328125 C 379.3263244628906 294.928466796875 389.8184509277344 289.5030212402344 334.9439697265625 297.0224914550781 C 279.02093505859375 316.0890197753906 306.59490966796875 333.1644287109375 293.845458984375 237.88339233398438 C 310.90478515625 244.01385498046875 319.7864990234375 237.8588104248047 356.8993225097656 239.5766143798828 C 379.6325988769531 232.89483642578125 364.7995300292969 241.70516967773438 367.96942138671875 276.31964111328125" stroke-width="0.0" fill="rgb(19, 0, 144)" opacity="0.34214061" stroke="rgb(0, 0, 0)" stroke-opacity="1.0" stroke-linecap="round" stroke-linejoin="round"/>
    <path d="M 177.3796844482422 308.5264892578125 C 203.01187133789062 279.130859375 200.34072875976562 283.82879638671875 176.8609619140625 283.2543640136719 C 179.92189025878906 278.5269470214844 149.31591796875 304.8074035644531 178.1957550048828 306.7143249511719 C 211.94276428222656 289.7124938964844 190.42257690429688 288.479736328125 202.7098846435547 167.09495544433594 C 253.08993530273438 216.1514892578125 210.90428161621094 254.81214904785156 177.3796844482422 308.5264892578125" stroke-width="0.0" fill="rgb(255, 254, 198)" opacity="0.9186794" stroke="rgb(0, 0, 0)" stroke-opacity="1.0" stroke-linecap="round" stroke-linejoin="round"/>
    <path d="M 205.53335571289062 66.14071655273438 C 212.1807861328125 89.18254089355469 228.1070098876953 130.64459228515625 200.46734619140625 155.58212280273438 C 182.87574768066406 107.12733459472656 181.1099853515625 73.5971450805664 192.77999877929688 72.9419174194336 C 185.19259643554688 81.26077270507812 197.2685546875 81.99451446533203 197.85694885253906 86.75462341308594 C 201.62567138671875 27.46837043762207 218.25833129882812 53.74635696411133 205.53335571289062 66.14071655273438" stroke-width="0.0" fill="rgb(255, 252, 202)" opacity="0.9666655" stroke="rgb(0, 0, 0)" stroke-opacity="1.0" stroke-linecap="round" stroke-linejoin="round"/>
    <path d="M 266.44989013671875 455.9486999511719 C 265.602783203125 465.6136474609375 250.4680938720703 461.1752624511719 250.50933837890625 469.1726379394531 C 242.65475463867188 470.6440734863281 221.42298889160156 468.25421142578125 226.7350311279297 470.2614440917969 C 226.46995544433594 426.0185852050781 235.98666381835938 450.6396179199219 269.4933166503906 439.2987976074219 C 264.6752014160156 441.684814453125 267.31451416015625 430.5119323730469 266.44989013671875 455.9486999511719" stroke-width="0.0" fill="rgb(22, 10, 116)" opacity="0.99518883" stroke="rgb(0, 0, 0)" stroke-opacity="1.0" stroke-linecap="round" stroke-linejoin="round"/>
    <path d="M 352.8973083496094 231.10435485839844 C 359.2685852050781 237.38584899902344 343.1415100097656 262.1841735839844 303.1603088378906 265.7237243652344 C 291.1219787597656 286.3460388183594 278.906005859375 276.5316162109375 272.80255126953125 234.5290985107422 C 278.1180419921875 222.0268096923828 280.0827941894531 224.9783935546875 344.3019714355469 229.0703125 C 339.753173828125 198.8399200439453 320.8829040527344 204.5854949951172 352.8973083496094 231.10435485839844" stroke-width="0.0" fill="rgb(0, 0, 147)" opacity="0.32261655" stroke="rgb(0, 0, 0)" stroke-opacity="1.0" stroke-linecap="round" stroke-linejoin="round"/>
    <path d="M 189.12945556640625 141.86990356445312 C 197.76063537597656 159.90109252929688 208.8340606689453 136.8582305908203 160.4227752685547 136.00575256347656 C 142.00180053710938 123.80467224121094 132.70651245117188 117.07843017578125 116.60405731201172 113.25127410888672 C 108.55387115478516 99.6077880859375 96.9577865600586 90.34688568115234 112.26193237304688 105.5047836303711 C 124.60655212402344 118.83590698242188 158.79368591308594 129.0452880859375 189.12945556640625 141.86990356445312" stroke-width="0.0" fill="rgb(120, 127, 251)" opacity="0.6436499" stroke="rgb(0, 0, 0)" stroke-opacity="1.0" stroke-linecap="round" stroke-linejoin="round"/>
    <path d="M 123.44474792480469 349.5306091308594 C 112.23277282714844 371.9473571777344 119.43341064453125 403.0321044921875 119.85466766357422 431.2417907714844 C 50.0970458984375 406.1741027832031 44.853275299072266 395.4883117675781 69.08072662353516 344.1016540527344 C 92.75498962402344 329.3548583984375 64.48046112060547 318.10345458984375 123.0278549194336 316.43707275390625 C 113.22968292236328 326.83319091796875 140.44622802734375 350.0887756347656 123.44474792480469 349.5306091308594" stroke-width="0.0" fill="rgb(255, 250, 210)" opacity="0.8762299" stroke="rgb(0, 0, 0)" stroke-opacity="1.0" stroke-linecap="round" stroke-linejoin="round"/>
    <path d="M 122.33509063720703 429.4168701171875 C 122.24472045898438 485.98345947265625 131.51181030273438 492.6138000488281 102.56599426269531 471.7169189453125 C 106.74708557128906 426.6410217285156 86.13810729980469 404.9526062011719 81.88821411132812 475.61883544921875 C 49.948612213134766 496.5906677246094 45.01780319213867 446.138427734375 55.10614013671875 376.3876037597656 C 84.71644592285156 377.1617126464844 110.02435302734375 384.74237060546875 122.33509063720703 429.4168701171875" stroke-width="0.0" fill="rgb(227, 208, 206)" opacity="0.90200996" stroke="rgb(0, 0, 0)" stroke-opacity="1.0" stroke-linecap="round" stroke-linejoin="round"/>
    <path d="M 190.20101928710938 146.58421325683594 C 152.08946228027344 163.63729858398438 107.48664855957031 127.82141876220703 123.9039306640625 125.78143310546875 C 123.423583984375 133.18077087402344 110.08985900878906 129.98648071289062 110.29588317871094 113.65834045410156 C 98.93457794189453 111.3530044555664 113.98002624511719 110.27934265136719 126.50210571289062 131.79200744628906 C 95.98674774169922 97.23262023925781 120.67298889160156 94.38922882080078 190.20101928710938 146.58421325683594" stroke-width="0.0" fill="rgb(23, 7, 129)" opacity="1.0" stroke="rgb(0, 0, 0)" stroke-opacity="1.0" stroke-linecap="round" stroke-linejoin="round"/>
    <path d="M 149.91317749023438 68.37159729003906 C 123.96160125732422 170.16986083984375 104.35615539550781 155.30702209472656 55.2617073059082 225.26466369628906 C 14.520166397094727 166.24942016601562 4.35329008102417 122.7374038696289 -0.7273873090744019 117.18379974365234 C -10.32059097290039 118.75137329101562 17.555072784423828 116.69159698486328 -6.037195682525635 88.29617309570312 C 41.61048126220703 84.9545669555664 74.4898910522461 66.9213638305664 149.91317749023438 68.37159729003906" stroke-width="0.0" fill="rgb(9, 16, 74)" opacity="0.17119166" stroke="rgb(0, 0, 0)" stroke-opacity="1.0" stroke-linecap="round" stroke-linejoin="round"/>
    <path d="M 30.810203552246094 310.47454833984375 C 41.13302993774414 337.8074951171875 35.96131896972656 332.87957763671875 18.876855850219727 324.61505126953125 C 25.28143310546875 346.7366943359375 33.02985382080078 344.126708984375 31.61899757385254 319.3387451171875 C 39.13084030151367 312.0500793457031 31.363704681396484 311.4726257324219 28.812562942504883 311.8185729980469 C 35.136627197265625 325.14093017578125 35.60629653930664 328.2818603515625 30.810203552246094 310.47454833984375" stroke-width="0.0" fill="rgb(26, 0, 143)" opacity="0.035452597" stroke="rgb(0, 0, 0)" stroke-opacity="1.0" stroke-linecap="round" stroke-linejoin="round"/>
    <path d="M 404.4998474121094 200.8457489013672 C 401.88470458984375 306.7103271484375 432.9546813964844 360.19268798828125 390.73345947265625 371.1507568359375 C 401.9134826660156 215.72572326660156 373.1660461425781 247.75421142578125 367.7186584472656 227.84555053710938 C 354.405517578125 218.7039337158203 352.79107666015625 200.93199157714844 359.3454895019531 184.3992462158203 C 380.7211608886719 185.8629150390625 384.96978759765625 182.66075134277344 404.4998474121094 200.8457489013672" stroke-width="0.0" fill="rgb(242, 130, 4)" opacity="0.9646534" stroke="rgb(0, 0, 0)" stroke-opacity="1.0" stroke-linecap="round" stroke-linejoin="round"/>
    <path d="M 192.43576049804688 246.15570068359375 C 198.83619689941406 277.2713623046875 184.94921875 277.94964599609375 193.87173461914062 265.4146423339844 C 190.93728637695312 276.4283447265625 205.5967254638672 262.5827331542969 197.77293395996094 267.4701232910156 C 185.3369598388672 259.43988037109375 203.765625 250.3549041748047 190.82057189941406 258.44775390625 C 188.9484405517578 233.7005615234375 192.77549743652344 231.83848571777344 192.43576049804688 246.15570068359375" stroke-width="0.0" fill="rgb(255, 173, 64)" opacity="0.06911853" stroke="rgb(0, 0, 0)" stroke-opacity="1.0" stroke-linecap="round" stroke-linejoin="round"/>
    <path d="M 202.1268310546875 267.0450134277344 C 197.12771606445312 233.5871124267578 215.11721801757812 233.90151977539062 234.63433837890625 281.0715637207031 C 189.2449188232422 267.98126220703125 192.73255920410156 260.0737609863281 197.38031005859375 252.74490356445312 C 230.04397583007812 265.7262268066406 250.47836303710938 259.0361633300781 226.31192016601562 218.5364532470703 C 196.852294921875 188.8219757080078 213.05270385742188 235.17111206054688 202.1268310546875 267.0450134277344" stroke-width="0.0" fill="rgb(255, 251, 62)" opacity="0.074121155" stroke="rgb(0, 0, 0)" stroke-opacity="1.0" stroke-linecap="round" stroke-linejoin="round"/>
    <path d="M 188.85116577148438 320.68194580078125 C 181.70803833007812 335.3251037597656 176.98239135742188 322.469482421875 185.2068634033203 322.4766845703125 C 180.3267822265625 333.68231201171875 176.47361755371094 314.299072265625 175.44293212890625 334.040771484375 C 167.90122985839844 317.7880859375 154.67962646484375 328.1660461425781 169.88760375976562 334.8867492675781 C 177.311279296875 330.2275085449219 180.0939178466797 332.4449157714844 188.85116577148438 320.68194580078125" stroke-width="0.0" fill="rgb(255, 255, 169)" opacity="0.1650081" stroke="rgb(0, 0, 0)" stroke-opacity="1.0" stroke-linecap="round" stroke-linejoin="round"/>
    <path d="M 97.74755859375 125.15299987792969 C 128.53941345214844 146.96018981933594 107.48529815673828 141.3124542236328 99.79493713378906 143.783203125 C 86.85460662841797 139.64019775390625 90.17822265625 122.29679870605469 82.09813690185547 129.77268981933594 C 65.85948181152344 117.96587371826172 57.75590515136719 108.8777847290039 102.13196563720703 97.32927703857422 C 102.41732788085938 82.68042755126953 93.30363464355469 92.83901977539062 97.74755859375 125.15299987792969" stroke-width="0.0" fill="rgb(27, 6, 219)" opacity="0.00022764463" stroke="rgb(0, 0, 0)" stroke-opacity="1.0" stroke-linecap="round" stroke-linejoin="round"/>
    <path d="M 56.6521110534668 107.10102081298828 C 54.540931701660156 148.2694854736328 35.20526885986328 144.81849670410156 -6.472496509552002 153.82015991210938 C 2.525862693786621 124.26383972167969 -4.377333641052246 120.28241729736328 -7.881801605224609 103.6730728149414 C 27.347211837768555 84.95917510986328 42.45736312866211 94.58995819091797 23.08740234375 112.45186614990234 C 33.5355224609375 120.67347717285156 57.62948989868164 117.5752182006836 56.6521110534668 107.10102081298828" stroke-width="0.0" fill="rgb(26, 26, 77)" opacity="0.10411075" stroke="rgb(0, 0, 0)" stroke-opacity="1.0" stroke-linecap="round" stroke-linejoin="round"/>
    <path d="M 115.40003204345703 149.87535095214844 C 129.8834228515625 145.75721740722656 127.72334289550781 157.4408416748047 125.84165954589844 170.7575225830078 C 121.04180908203125 178.0774688720703 105.74440002441406 154.26332092285156 100.11302185058594 140.7113800048828 C 93.9165267944336 136.68292236328125 100.50486755371094 131.8194580078125 119.3657455444336 143.30462646484375 C 108.90228271484375 129.9928741455078 111.4234390258789 142.37547302246094 115.40003204345703 149.87535095214844" stroke-width="0.0" fill="rgb(16, 36, 142)" opacity="0.05540137" stroke="rgb(0, 0, 0)" stroke-opacity="1.0" stroke-linecap="round" stroke-linejoin="round"/>
    <path d="M 456.3504333496094 186.07720947265625 C 507.4742126464844 263.52978515625 471.3531799316406 298.4912109375 346.76348876953125 275.5159912109375 C 314.34271240234375 261.8345031738281 328.73828125 217.61036682128906 338.593505859375 206.23104858398438 C 340.8497314453125 206.37648010253906 346.5439147949219 181.7401580810547 365.7349853515625 162.02072143554688 C 407.340087890625 149.73814392089844 437.17156982421875 149.59066772460938 456.3504333496094 186.07720947265625" stroke-width="0.0" fill="rgb(224, 255, 0)" opacity="1.0" stroke="rgb(0, 0, 0)" stroke-opacity="1.0" stroke-linecap="round" stroke-linejoin="round"/>
    <path d="M 306.88275146484375 150.53785705566406 C 302.79327392578125 172.0160675048828 302.9491271972656 189.19998168945312 303.9705505371094 158.6921844482422 C 269.9881896972656 161.87721252441406 249.38909912109375 156.87667846679688 306.2294921875 163.75 C 308.4822998046875 130.5235595703125 273.1138916015625 128.08010864257812 298.394287109375 148.54507446289062 C 312.8333435058594 138.3343963623047 300.47064208984375 143.78433227539062 306.88275146484375 150.53785705566406" stroke-width="0.0" fill="rgb(40, 3, 100)" opacity="0.3922142" stroke="rgb(0, 0, 0)" stroke-opacity="1.0" stroke-linecap="round" stroke-linejoin="round"/>
    <path d="M 192.84603881835938 -27.605314254760742 C 204.2954864501953 28.58428955078125 167.43234252929688 41.406410217285156 157.85821533203125 71.46278381347656 C 62.6830940246582 54.96540451049805 103.06382751464844 51.131141662597656 72.04134368896484 40.25416564941406 C 59.02668762207031 -2.3335235118865967 59.351314544677734 -5.058550834655762 88.59220886230469 -4.06974983215332 C 150.7782745361328 -3.329211711883545 160.77818298339844 5.7109293937683105 192.84603881835938 -27.605314254760742" stroke-width="0.0" fill="rgb(31, 42, 35)" opacity="0.19208421" stroke="rgb(0, 0, 0)" stroke-opacity="1.0" stroke-linecap="round" stroke-linejoin="round"/>
    <path d="M 43.515228271484375 332.4276428222656 C 51.84127426147461 337.55645751953125 39.55897521972656 334.22296142578125 36.971290588378906 298.6263732910156 C 11.460006713867188 297.57647705078125 38.59346008300781 328.7710266113281 28.74195671081543 317.2975769042969 C 35.09893798828125 322.7208557128906 73.31121826171875 343.5500183105469 52.59004592895508 335.46905517578125 C 61.77056884765625 283.947021484375 56.897865295410156 280.34454345703125 43.515228271484375 332.4276428222656" stroke-width="0.0" fill="rgb(29, 0, 134)" opacity="0.35329205" stroke="rgb(0, 0, 0)" stroke-opacity="1.0" stroke-linecap="round" stroke-linejoin="round"/>
    <path d="M 264.8139343261719 35.462188720703125 C 248.77029418945312 28.516035079956055 233.80682373046875 29.290254592895508 222.55592346191406 41.56743240356445 C 253.09767150878906 30.65166664123535 253.6065673828125 42.861328125 220.3922119140625 36.40520095825195 C 238.76719665527344 48.260406494140625 259.4951477050781 47.078975677490234 254.28921508789062 37.61725616455078 C 261.7401123046875 27.88372230529785 243.1605987548828 37.31874084472656 264.8139343261719 35.462188720703125" stroke-width="0.0" fill="rgb(0, 38, 44)" opacity="0.036393564" stroke="rgb(0, 0, 0)" stroke-opacity="1.0" stroke-linecap="round" stroke-linejoin="round"/>
    <path d="M 96.22425079345703 308.6688537597656 C 101.15773010253906 315.4515075683594 115.89381408691406 344.7579040527344 98.62789154052734 369.61346435546875 C 103.88641357421875 385.3296813964844 122.59381866455078 376.5715637207031 117.01961517333984 367.64794921875 C 82.96726989746094 338.7381286621094 90.82134246826172 310.2889099121094 120.37399291992188 306.7240905761719 C 129.12086486816406 304.67962646484375 124.4544677734375 321.27520751953125 96.22425079345703 308.6688537597656" stroke-width="0.0" fill="rgb(255, 230, 102)" opacity="0.0" stroke="rgb(0, 0, 0)" stroke-opacity="1.0" stroke-linecap="round" stroke-linejoin="round"/>
    <path d="M 211.43521118164062 377.7471618652344 C 205.20826721191406 397.89764404296875 222.01602172851562 406.89788818359375 194.1953887939453 405.52337646484375 C 172.9598388671875 392.482421875 194.0174102783203 383.44482421875 188.64613342285156 371.49273681640625 C 173.0384521484375 371.5721435546875 179.69345092773438 376.438720703125 213.87083435058594 364.826904296875 C 190.23338317871094 361.9274597167969 201.72930908203125 374.33001708984375 211.43521118164062 377.7471618652344" stroke-width="0.0" fill="rgb(254, 96, 79)" opacity="0.021455053" stroke="rgb(0, 0, 0)" stroke-opacity="1.0" stroke-linecap="round" stroke-linejoin="round"/>
    <path d="M 32.3666877746582 198.42556762695312 C 25.381309509277344 174.7144012451172 46.59917449951172 173.36968994140625 44.66492462158203 241.40306091308594 C 9.465909004211426 212.74459838867188 24.022762298583984 174.99949645996094 -0.831258237361908 198.58396911621094 C 16.24481201171875 196.81655883789062 28.075620651245117 183.81317138671875 23.56875991821289 163.0151824951172 C 42.465911865234375 159.37615966796875 52.81684494018555 201.0663299560547 32.3666877746582 198.42556762695312" stroke-width="0.0" fill="rgb(23, 48, 68)" opacity="0.017954107" stroke="rgb(0, 0, 0)" stroke-opacity="1.0" stroke-linecap="round" stroke-linejoin="round"/>
    <path d="M 473.9157409667969 342.8823547363281 C 491.5333557128906 346.1793518066406 433.21697998046875 346.76556396484375 424.2901916503906 312.5732116699219 C 408.248046875 311.0474548339844 388.2044372558594 316.4130859375 383.25225830078125 272.02227783203125 C 434.20001220703125 266.4117126464844 432.28125 261.7893371582031 460.28173828125 262.7215270996094 C 460.8656005859375 275.8675537109375 462.0820617675781 257.20458984375 473.9157409667969 342.8823547363281" stroke-width="0.0" fill="rgb(39, 15, 134)" opacity="0.059530377" stroke="rgb(0, 0, 0)" stroke-opacity="1.0" stroke-linecap="round" stroke-linejoin="round"/>
    <path d="M 20.189889907836914 181.1704864501953 C 72.41729736328125 190.8382110595703 69.05917358398438 167.01588439941406 45.267486572265625 122.51777648925781 C -16.29274559020996 143.1337432861328 -13.181829452514648 146.13999938964844 -6.091272830963135 136.44252014160156 C -6.953754425048828 97.58614349365234 -2.91622257232666 97.99983215332031 34.823116302490234 104.15133666992188 C 17.6251220703125 142.08843994140625 4.621855735778809 176.8834228515625 20.189889907836914 181.1704864501953" stroke-width="0.0" fill="rgb(22, 19, 74)" opacity="0.13176501" stroke="rgb(0, 0, 0)" stroke-opacity="1.0" stroke-linecap="round" stroke-linejoin="round"/>
    <path d="M 535.5233154296875 219.63182067871094 C 561.4756469726562 231.7970428466797 550.8386840820312 227.19435119628906 479.161376953125 228.25949096679688 C 492.8849182128906 264.6161804199219 494.0596923828125 257.1023254394531 467.8505554199219 274.1142272949219 C 487.92596435546875 243.57408142089844 477.4855041503906 219.55873107910156 521.3735961914062 239.176025390625 C 487.85992431640625 232.63108825683594 509.4188537597656 221.84878540039062 535.5233154296875 219.63182067871094" stroke-width="0.0" fill="rgb(33, 71, 78)" opacity="0.0" stroke="rgb(0, 0, 0)" stroke-opacity="1.0" stroke-linecap="round" stroke-linejoin="round"/>
    <path d="M 224.99337768554688 108.41476440429688 C 234.9125213623047 101.01851654052734 246.92776489257812 111.44927215576172 227.9580535888672 119.7781753540039 C 209.16552734375 146.84658813476562 196.32713317871094 126.49919128417969 206.37063598632812 100.35302734375 C 228.176025390625 111.85196685791016 226.52149963378906 119.51787567138672 208.74317932128906 106.70702362060547 C 221.35275268554688 95.97430419921875 215.5555419921875 104.42427062988281 224.99337768554688 108.41476440429688" stroke-width="0.0" fill="rgb(255, 255, 207)" opacity="0.2259846" stroke="rgb(0, 0, 0)" stroke-opacity="1.0" stroke-linecap="round" stroke-linejoin="round"/>
    <path d="M 426.3544921875 250.97023010253906 C 430.78802490234375 296.4796447753906 432.78338623046875 303.5074768066406 397.58978271484375 287.3771057128906 C 461.4417724609375 285.0099182128906 441.9567565917969 287.89190673828125 415.6112976074219 264.636474609375 C 422.48394775390625 266.6759948730469 423.69891357421875 258.2705383300781 403.09521484375 271.0434875488281 C 400.3805847167969 274.0744323730469 391.1276550292969 257.5888671875 426.3544921875 250.97023010253906" stroke-width="0.0" fill="rgb(49, 11, 192)" opacity="0.03051504" stroke="rgb(0, 0, 0)" stroke-opacity="1.0" stroke-linecap="round" stroke-linejoin="round"/>
    <path d="M 515.1646118164062 133.576416015625 C 519.5662841796875 122.46109008789062 522.4271240234375 141.4100799560547 516.4456176757812 157.64610290527344 C 479.8911437988281 164.7535400390625 483.0312194824219 159.4943389892578 479.8442077636719 101.91703796386719 C 475.52960205078125 91.82402038574219 493.9500732421875 89.84857177734375 525.5049438476562 100.77349090576172 C 532.5299682617188 125.52455139160156 530.3584594726562 140.3182830810547 515.1646118164062 133.576416015625" stroke-width="0.0" fill="rgb(28, 33, 25)" opacity="0.096279934" stroke="rgb(0, 0, 0)" stroke-opacity="1.0" stroke-linecap="round" stroke-linejoin="round"/>
    <path d="M 522.4034423828125 151.11570739746094 C 528.6851806640625 173.37066650390625 516.8179321289062 182.317626953125 476.27093505859375 161.60061645507812 C 484.39349365234375 197.62155151367188 479.9539794921875 184.44493103027344 488.6487121582031 135.4152374267578 C 478.4536437988281 136.78475952148438 483.47705078125 140.98382568359375 520.3466796875 140.97804260253906 C 523.6443481445312 146.45375061035156 534.2897338867188 155.17050170898438 522.4034423828125 151.11570739746094" stroke-width="0.0" fill="rgb(36, 6, 79)" opacity="0.06583212" stroke="rgb(0, 0, 0)" stroke-opacity="1.0" stroke-linecap="round" stroke-linejoin="round"/>
    <path d="M 53.349822998046875 348.423095703125 C 58.286163330078125 345.14984130859375 65.90637969970703 366.87176513671875 47.77350616455078 363.8950500488281 C 51.240055084228516 364.57659912109375 60.734989166259766 364.6129455566406 33.39519119262695 354.5433654785156 C 12.547005653381348 337.5867919921875 22.366601943969727 325.3427429199219 44.50883102416992 325.6705017089844 C 65.30525970458984 327.3795471191406 62.375247955322266 328.30596923828125 53.349822998046875 348.423095703125" stroke-width="0.0" fill="rgb(8, 4, 160)" opacity="0.02453045" stroke="rgb(0, 0, 0)" stroke-opacity="1.0" stroke-linecap="round" stroke-linejoin="round"/>
    <path d="M 333.86578369140625 243.3775177001953 C 370.0826110839844 270.63958740234375 354.7181701660156 242.4099884033203 339.6454772949219 239.08631896972656 C 315.3293762207031 278.2231750488281 292.5317077636719 276.6707763671875 289.80572509765625 267.9380798339844 C 294.92266845703125 237.91998291015625 293.7160949707031 246.8728790283203 311.66888427734375 248.39694213867188 C 310.59405517578125 262.237548828125 309.0672607421875 266.0055847167969 333.86578369140625 243.3775177001953" stroke-width="0.0" fill="rgb(35, 12, 203)" opacity="0.0" stroke="rgb(0, 0, 0)" stroke-opacity="1.0" stroke-linecap="round" stroke-linejoin="round"/>
    <path d="M 461.4561767578125 157.15391540527344 C 507.8205261230469 146.98390197753906 482.38922119140625 160.56439208984375 506.6321105957031 173.77325439453125 C 470.0564270019531 181.00595092773438 461.76629638671875 180.76612854003906 446.4996337890625 92.08453369140625 C 449.24951171875 65.1657943725586 534.9398803710938 72.66834259033203 508.8283996582031 102.50288391113281 C 488.3409729003906 165.00575256347656 476.4109191894531 167.08349609375 461.4561767578125 157.15391540527344" stroke-width="0.0" fill="rgb(29, 33, 52)" opacity="0.09239291" stroke="rgb(0, 0, 0)" stroke-opacity="1.0" stroke-linecap="round" stroke-linejoin="round"/>
    <path d="M 488.4403381347656 514.501220703125 C 477.0897521972656 494.4420471191406 492.0668029785156 501.225830078125 427.1962890625 502.5997619628906 C 417.8516845703125 497.97943115234375 412.00244140625 474.1772155761719 424.3103332519531 438.0257568359375 C 470.0776672363281 438.2560119628906 446.284423828125 431.6913757324219 461.30133056640625 466.5428161621094 C 462.94830322265625 461.2562255859375 484.6849365234375 476.3946533203125 488.4403381347656 514.501220703125" stroke-width="0.0" fill="rgb(19, 25, 54)" opacity="0.07718478" stroke="rgb(0, 0, 0)" stroke-opacity="1.0" stroke-linecap="round" stroke-linejoin="round"/>
    <path d="M 518.0133056640625 377.3398742675781 C 504.7215270996094 373.75384521484375 493.13037109375 384.6959228515625 483.34747314453125 383.52044677734375 C 471.210205078125 385.2386169433594 471.21868896484375 386.8819885253906 464.0093688964844 365.4136047363281 C 458.2752990722656 338.09320068359375 462.4678649902344 341.8312072753906 464.4988098144531 363.02667236328125 C 480.4338073730469 367.1475830078125 509.72161865234375 361.5652770996094 518.0133056640625 377.3398742675781" stroke-width="0.0" fill="rgb(35, 32, 102)" opacity="0.0006769001" stroke="rgb(0, 0, 0)" stroke-opacity="1.0" stroke-linecap="round" stroke-linejoin="round"/>
    <path d="M 163.20761108398438 426.94232177734375 C 158.6324005126953 435.4395751953125 157.76748657226562 460.7805480957031 163.41221618652344 444.1371154785156 C 152.9905242919922 444.3797607421875 149.3548583984375 459.5867919921875 144.6942138671875 438.5457763671875 C 149.41148376464844 357.48419189453125 125.4251480102539 362.3711242675781 166.32164001464844 381.7556457519531 C 173.70730590820312 432.8598327636719 175.71823120117188 439.9930725097656 163.20761108398438 426.94232177734375" stroke-width="0.0" fill="rgb(0, 0, 158)" opacity="0.14039464" stroke="rgb(0, 0, 0)" stroke-opacity="1.0" stroke-linecap="round" stroke-linejoin="round"/>
    <path d="M 104.44971466064453 164.48236083984375 C 101.6353759765625 162.81590270996094 87.61475372314453 168.76780700683594 69.74192810058594 169.10684204101562 C 83.90797424316406 161.59059143066406 82.25505828857422 156.66737365722656 79.91893768310547 194.3101043701172 C 43.861263275146484 178.89651489257812 41.56270980834961 173.77203369140625 57.89598846435547 127.76502227783203 C 119.16068267822266 129.197998046875 110.07913208007812 119.21021270751953 104.44971466064453 164.48236083984375" stroke-width="0.0" fill="rgb(20, 8, 111)" opacity="0.0276824" stroke="rgb(0, 0, 0)" stroke-opacity="1.0" stroke-linecap="round" stroke-linejoin="round"/>
    <path d="M 186.68934631347656 149.34088134765625 C 193.68397521972656 148.9029998779297 186.94140625 124.6799087524414 203.7393798828125 120.04305267333984 C 215.524658203125 150.931396484375 179.0060577392578 153.55763244628906 182.28353881835938 161.23703002929688 C 191.6366729736328 147.844970703125 193.09002685546875 138.21478271484375 211.71141052246094 128.04592895507812 C 180.9270477294922 109.5278091430664 187.18649291992188 103.70121765136719 186.68934631347656 149.34088134765625" stroke-width="0.0" fill="rgb(180, 149, 193)" opacity="0.0" stroke="rgb(0, 0, 0)" stroke-opacity="1.0" stroke-linecap="round" stroke-linejoin="round"/>
    <path d="M 151.3537139892578 438.13360595703125 C 188.12081909179688 419.3459167480469 182.42742919921875 405.48687744140625 163.60902404785156 394.3686218261719 C 169.91053771972656 404.44195556640625 164.47767639160156 382.82965087890625 154.85728454589844 367.9620361328125 C 145.41661071777344 399.9411926269531 147.8339385986328 403.9653625488281 152.80355834960938 392.756591796875 C 141.6304473876953 398.9407958984375 132.595947265625 433.0907897949219 151.3537139892578 438.13360595703125" stroke-width="0.0" fill="rgb(0, 0, 164)" opacity="0.05412362" stroke="rgb(0, 0, 0)" stroke-opacity="1.0" stroke-linecap="round" stroke-linejoin="round"/>
    <path d="M 459.5965270996094 138.30091857910156 C 450.9061279296875 151.73699951171875 467.4237365722656 149.15243530273438 446.9346923828125 139.5731964111328 C 429.69482421875 148.62368774414062 433.3980407714844 149.20217895507812 429.4349670410156 113.82518005371094 C 450.4141540527344 137.76736450195312 452.40826416015625 147.67596435546875 450.764404296875 107.0353775024414 C 461.14874267578125 105.0732192993164 457.87689208984375 119.20409393310547 459.5965270996094 138.30091857910156" stroke-width="0.0" fill="rgb(41, 9, 125)" opacity="0.041265298" stroke="rgb(0, 0, 0)" stroke-opacity="1.0" stroke-linecap="round" stroke-linejoin="round"/>
    <path d="M 221.01698303222656 316.9272766113281 C 223.66806030273438 291.663330078125 225.59327697753906 311.9141845703125 221.36473083496094 322.30975341796875 C 216.95848083496094 336.60736083984375 223.66854858398438 333.03253173828125 234.31459045410156 325.65643310546875 C 228.15087890625 301.64471435546875 233.61016845703125 291.4945373535156 221.2281951904297 306.0377502441406 C 205.9244384765625 320.93621826171875 209.4308624267578 323.1499938964844 221.01698303222656 316.9272766113281" stroke-width="0.0" fill="rgb(216, 157, 238)" opacity="0.0" stroke="rgb(0, 0, 0)" stroke-opacity="1.0" stroke-linecap="round" stroke-linejoin="round"/>
    <path d="M 166.18536376953125 480.4151611328125 C 149.01614379882812 459.5366516113281 144.13462829589844 475.02716064453125 144.73626708984375 502.5925598144531 C 97.62393951416016 485.0680847167969 131.12075805664062 525.7698974609375 128.02493286132812 492.9911804199219 C 120.67830657958984 479.100830078125 126.56371307373047 472.6031494140625 148.08102416992188 473.43731689453125 C 143.50262451171875 462.2852783203125 154.0786895751953 485.8499755859375 166.18536376953125 480.4151611328125" stroke-width="0.0" fill="rgb(0, 47, 28)" opacity="0.068987526" stroke="rgb(0, 0, 0)" stroke-opacity="1.0" stroke-linecap="round" stroke-linejoin="round"/>
  </g>
</svg>
