<?xml version="1.0" ?>
<svg xmlns="http://www.w3.org/2000/svg" version="1.1" width="512" height="512">
  <defs/>
  <g>
    <path d="M 560.1176147460938 398.22613525390625 C 547.165283203125 516.641845703125 548.8319091796875 525.4011840820312 407.4755859375 549.9497680664062 C 329.1077575683594 553.326171875 265.2701416015625 522.7532348632812 323.26312255859375 435.769287109375 C 257.8880310058594 311.05279541015625 248.4688720703125 294.82440185546875 427.141845703125 267.4429016113281 C 575.206298828125 309.2842102050781 575.4934692382812 311.511474609375 560.1176147460938 398.22613525390625" stroke-width="0.0" fill="rgb(1, 37, 180)" opacity="0.9770072" stroke="rgb(0, 0, 0)" stroke-opacity="1.0" stroke-linecap="round" stroke-linejoin="round"/>
    <path d="M 310.079833984375 372.0299377441406 C 379.6184387207031 483.9505310058594 360.64276123046875 512.2138061523438 260.7254638671875 538.550537109375 C -66.37430572509766 534.4398193359375 -66.33883666992188 527.05517578125 -69.91371154785156 442.4461364746094 C -53.09097671508789 166.2252960205078 -34.452659606933594 192.23727416992188 71.45402526855469 171.95228576660156 C 109.48628234863281 315.3437805175781 183.55322265625 277.9317321777344 310.079833984375 372.0299377441406" stroke-width="0.0" fill="rgb(7, 39, 197)" opacity="0.9889589" stroke="rgb(0, 0, 0)" stroke-opacity="1.0" stroke-linecap="round" stroke-linejoin="round"/>
    <path d="M 301.7983703613281 178.4425506591797 C 304.82330322265625 393.78192138671875 316.7226257324219 405.8655090332031 264.14117431640625 413.2530212402344 C 103.59532928466797 534.1072387695312 44.20051193237305 445.9722900390625 -26.795316696166992 178.5900421142578 C 15.626747131347656 160.99952697753906 47.90419387817383 165.04525756835938 135.52525329589844 185.01515197753906 C 163.62109375 195.18685913085938 171.18406677246094 175.501953125 301.7983703613281 178.4425506591797" stroke-width="0.0" fill="rgb(0, 33, 215)" opacity="0.6699345" stroke="rgb(0, 0, 0)" stroke-opacity="1.0" stroke-linecap="round" stroke-linejoin="round"/>
    <path d="M 290.2098083496094 39.024986267089844 C 258.7130126953125 294.4568786621094 113.3080062866211 167.53875732421875 7.246087551116943 187.288330078125 C -68.20531463623047 192.3401641845703 -63.67403793334961 221.12258911132812 -35.32405471801758 143.1084747314453 C -16.39366340637207 -18.030452728271484 -10.150599479675293 -23.750812530517578 36.71276092529297 -20.247264862060547 C 204.9461669921875 -32.43646240234375 228.89064025878906 -43.556190490722656 290.2098083496094 39.024986267089844" stroke-width="0.0" fill="rgb(16, 39, 200)" opacity="1.0" stroke="rgb(0, 0, 0)" stroke-opacity="1.0" stroke-linecap="round" stroke-linejoin="round"/>
    <path d="M 518.6665649414062 110.38265991210938 C 438.6641845703125 288.2395324707031 399.8090515136719 245.40086364746094 356.283935546875 306.44268798828125 C 320.408203125 253.7670135498047 287.09539794921875 286.54705810546875 247.7656707763672 163.0028076171875 C 185.52133178710938 100.66898345947266 186.66807556152344 24.83211326599121 370.59893798828125 -25.433073043823242 C 557.3687133789062 -18.036373138427734 542.444091796875 10.338229179382324 518.6665649414062 110.38265991210938" stroke-width="0.0" fill="rgb(192, 109, 11)" opacity="0.9573975" stroke="rgb(0, 0, 0)" stroke-opacity="1.0" stroke-linecap="round" stroke-linejoin="round"/>
    <path d="M 283.21527099609375 85.20419311523438 C 222.68882751464844 247.1191864013672 368.9412536621094 211.13967895507812 176.40948486328125 310.83563232421875 C 144.1514129638672 158.3482208251953 134.30984497070312 146.93746948242188 119.81820678710938 122.1332778930664 C 77.15689849853516 127.08828735351562 85.4776382446289 99.5501708984375 300.8213195800781 -50.22955322265625 C 444.946533203125 53.128562927246094 379.2673034667969 -7.645412445068359 283.21527099609375 85.20419311523438" stroke-width="0.0" fill="rgb(14, 38, 210)" opacity="1.0" stroke="rgb(0, 0, 0)" stroke-opacity="1.0" stroke-linecap="round" stroke-linejoin="round"/>
    <path d="M 580.3665771484375 121.9539566040039 C 587.704833984375 285.3223571777344 573.6138305664062 319.9778747558594 495.53143310546875 298.1318054199219 C 371.1319885253906 254.4114227294922 351.59490966796875 232.93673706054688 403.8287658691406 175.15565490722656 C 496.725341796875 197.64736938476562 448.4451599121094 112.63658142089844 532.2086181640625 22.87269401550293 C 563.2000122070312 29.02372932434082 563.2000122070312 58.49845886230469 580.3665771484375 121.9539566040039" stroke-width="0.0" fill="rgb(3, 38, 197)" opacity="1.0" stroke="rgb(0, 0, 0)" stroke-opacity="1.0" stroke-linecap="round" stroke-linejoin="round"/>
    <path d="M 323.88726806640625 269.8507995605469 C 323.6708679199219 295.0035400390625 299.7593688964844 290.8353576660156 283.8607177734375 301.4459228515625 C 269.7633361816406 313.2880554199219 228.78097534179688 310.87847900390625 160.53033447265625 291.74359130859375 C 281.6454772949219 242.71400451660156 294.77655029296875 252.4438018798828 295.7218322753906 202.38790893554688 C 319.65301513671875 82.67618560791016 314.2190246582031 137.1982421875 323.88726806640625 269.8507995605469" stroke-width="0.0" fill="rgb(30, 31, 241)" opacity="0.94333977" stroke="rgb(0, 0, 0)" stroke-opacity="1.0" stroke-linecap="round" stroke-linejoin="round"/>
    <path d="M 390.6408996582031 200.728515625 C 353.66131591796875 275.5349426269531 518.7741088867188 226.9216766357422 349.1899719238281 291.4686584472656 C 309.231201171875 225.59326171875 342.4805603027344 240.1067352294922 261.0169372558594 235.14303588867188 C 201.598876953125 33.82198715209961 345.917236328125 123.3623275756836 327.4785461425781 169.58489990234375 C 405.6800537109375 158.80300903320312 414.3187561035156 164.86376953125 390.6408996582031 200.728515625" stroke-width="0.0" fill="rgb(210, 182, 40)" opacity="0.9965448" stroke="rgb(0, 0, 0)" stroke-opacity="1.0" stroke-linecap="round" stroke-linejoin="round"/>
    <path d="M 244.61524963378906 263.0400695800781 C 364.2197265625 282.2415771484375 258.41961669921875 272.0380554199219 209.13662719726562 329.1492004394531 C 102.69477081298828 391.1360778808594 179.62208557128906 293.4298400878906 243.1975555419922 258.8726806640625 C 75.29603576660156 213.1477813720703 -9.96963882446289 187.19076538085938 213.95016479492188 197.47608947753906 C 251.65826416015625 201.84140014648438 254.14620971679688 274.95654296875 244.61524963378906 263.0400695800781" stroke-width="0.0" fill="rgb(10, 9, 225)" opacity="0.76731163" stroke="rgb(0, 0, 0)" stroke-opacity="1.0" stroke-linecap="round" stroke-linejoin="round"/>
    <path d="M 387.8708801269531 215.28553771972656 C 491.365234375 200.26571655273438 454.0018005371094 288.9273986816406 397.385009765625 283.5286865234375 C 370.8510437011719 284.3254699707031 351.90484619140625 345.1010437011719 371.66131591796875 231.59796142578125 C 444.3160095214844 231.49636840820312 429.8436584472656 213.16064453125 397.85382080078125 266.00494384765625 C 382.0758972167969 243.62889099121094 425.72027587890625 277.1152038574219 387.8708801269531 215.28553771972656" stroke-width="0.0" fill="rgb(0, 29, 215)" opacity="0.9690973" stroke="rgb(0, 0, 0)" stroke-opacity="1.0" stroke-linecap="round" stroke-linejoin="round"/>
    <path d="M 353.5946960449219 374.2418212890625 C 141.3896942138672 295.7057800292969 239.0686798095703 366.35321044921875 147.09054565429688 425.6817932128906 C 147.25294494628906 417.78192138671875 158.09970092773438 398.87261962890625 155.07420349121094 376.8410949707031 C 211.23414611816406 377.636474609375 206.76443481445312 399.129150390625 207.23388671875 331.4896240234375 C 251.56716918945312 313.14117431640625 193.84945678710938 353.4627380371094 353.5946960449219 374.2418212890625" stroke-width="0.0" fill="rgb(94, 38, 124)" opacity="0.54980123" stroke="rgb(0, 0, 0)" stroke-opacity="1.0" stroke-linecap="round" stroke-linejoin="round"/>
    <path d="M 558.9707641601562 48.61436080932617 C 532.927490234375 92.68879699707031 497.7848815917969 82.57097625732422 482.1153869628906 134.03387451171875 C 429.4790954589844 67.7208480834961 429.3305358886719 110.20142364501953 433.06353759765625 80.69886016845703 C 359.81591796875 2.541952610015869 313.46600341796875 102.6480941772461 362.4069519042969 -40.200843811035156 C 521.3099365234375 -42.74477005004883 531.156982421875 -12.946725845336914 558.9707641601562 48.61436080932617" stroke-width="0.0" fill="rgb(12, 39, 204)" opacity="0.9974679" stroke="rgb(0, 0, 0)" stroke-opacity="1.0" stroke-linecap="round" stroke-linejoin="round"/>
    <path d="M 410.0506896972656 107.84956359863281 C 416.8115234375 199.19485473632812 427.6794128417969 155.04544067382812 381.8088684082031 117.97644805908203 C 336.4671630859375 120.46263122558594 344.7926025390625 64.05435943603516 361.08331298828125 52.026729583740234 C 364.06610107421875 72.8833999633789 396.3780822753906 45.51074981689453 399.24676513671875 82.43101501464844 C 394.8720397949219 85.74821472167969 425.6907653808594 72.9042739868164 410.0506896972656 107.84956359863281" stroke-width="0.0" fill="rgb(180, 133, 0)" opacity="0.8962086" stroke="rgb(0, 0, 0)" stroke-opacity="1.0" stroke-linecap="round" stroke-linejoin="round"/>
    <path d="M 240.83468627929688 268.93023681640625 C 238.03501892089844 293.0387268066406 213.29660034179688 311.2563781738281 231.464111328125 302.79541015625 C 170.14617919921875 305.2928771972656 154.57113647460938 374.4517822265625 86.95489501953125 222.34738159179688 C 56.021358489990234 211.95603942871094 102.04808044433594 200.24417114257812 203.31678771972656 188.5201416015625 C 243.8328399658203 208.10440063476562 250.97296142578125 263.6421203613281 240.83468627929688 268.93023681640625" stroke-width="0.0" fill="rgb(255, 0, 255)" opacity="1.0" stroke="rgb(0, 0, 0)" stroke-opacity="1.0" stroke-linecap="round" stroke-linejoin="round"/>
    <path d="M 370.6768493652344 453.67376708984375 C 422.38092041015625 460.4952697753906 355.2696838378906 486.058349609375 309.9536437988281 421.83990478515625 C 283.12408447265625 258.19384765625 322.9173278808594 493.33709716796875 387.981689453125 457.23199462890625 C 369.3412780761719 424.7447814941406 334.94281005859375 485.4317626953125 309.78814697265625 347.9003601074219 C 387.236328125 481.5066223144531 344.002197265625 441.8177185058594 370.6768493652344 453.67376708984375" stroke-width="0.0" fill="rgb(50, 57, 169)" opacity="0.43875253" stroke="rgb(0, 0, 0)" stroke-opacity="1.0" stroke-linecap="round" stroke-linejoin="round"/>
    <path d="M 340.88946533203125 105.00775146484375 C 351.8851013183594 147.0107421875 351.761474609375 133.82444763183594 340.0739440917969 146.94818115234375 C 351.67559814453125 104.94322204589844 332.4927062988281 40.96782684326172 308.72900390625 36.40163040161133 C 272.966064453125 -12.366277694702148 285.8744201660156 -72.98741912841797 373.24188232421875 12.418219566345215 C 322.62237548828125 53.26634216308594 337.4073486328125 79.05360412597656 340.88946533203125 105.00775146484375" stroke-width="0.0" fill="rgb(33, 48, 193)" opacity="0.021916479" stroke="rgb(0, 0, 0)" stroke-opacity="1.0" stroke-linecap="round" stroke-linejoin="round"/>
    <path d="M 388.1517333984375 289.46514892578125 C 120.87382507324219 212.91688537597656 102.29196166992188 351.21319580078125 227.20703125 343.4773254394531 C 273.8876037597656 363.67572021484375 343.569091796875 383.1618347167969 308.67535400390625 364.1311340332031 C 300.9004211425781 390.75201416015625 321.1720886230469 392.0587463378906 305.7903747558594 372.2096862792969 C 332.8223876953125 419.1454772949219 352.1828918457031 511.160400390625 388.1517333984375 289.46514892578125" stroke-width="0.0" fill="rgb(255, 255, 194)" opacity="1.0" stroke="rgb(0, 0, 0)" stroke-opacity="1.0" stroke-linecap="round" stroke-linejoin="round"/>
    <path d="M 378.7975158691406 180.97044372558594 C 361.0790100097656 170.15988159179688 313.6846618652344 186.3067169189453 358.1083984375 214.57977294921875 C 397.6603698730469 187.69114685058594 377.09564208984375 165.00706481933594 345.78887939453125 190.3114013671875 C 344.8587646484375 208.969482421875 373.1637268066406 189.90756225585938 361.0745544433594 194.06675720214844 C 369.38958740234375 191.1007843017578 383.9879455566406 190.59397888183594 378.7975158691406 180.97044372558594" stroke-width="0.0" fill="rgb(0, 1, 10)" opacity="1.0" stroke="rgb(0, 0, 0)" stroke-opacity="1.0" stroke-linecap="round" stroke-linejoin="round"/>
    <path d="M 160.3090362548828 290.3819580078125 C 131.40391540527344 444.1585693359375 143.03353881835938 298.10992431640625 142.01858520507812 332.1388854980469 C 115.09330749511719 295.31365966796875 108.58261108398438 267.1867370605469 83.17007446289062 265.8038635253906 C 30.827877044677734 157.74237060546875 67.45220947265625 158.58934020996094 124.55170440673828 177.1133575439453 C 123.26292419433594 210.12152099609375 65.82894134521484 264.0411376953125 160.3090362548828 290.3819580078125" stroke-width="0.0" fill="rgb(6, 32, 201)" opacity="1.0" stroke="rgb(0, 0, 0)" stroke-opacity="1.0" stroke-linecap="round" stroke-linejoin="round"/>
    <path d="M 289.50323486328125 225.94898986816406 C 301.0372619628906 210.21722412109375 293.3772277832031 226.9440460205078 277.4961853027344 269.9357604980469 C 234.21090698242188 241.6829071044922 259.1218566894531 213.73329162597656 232.70034790039062 161.13742065429688 C 259.20477294921875 134.70498657226562 270.98046875 104.88978576660156 247.3637237548828 124.5875244140625 C 240.38597106933594 192.18667602539062 252.28330993652344 210.29638671875 289.50323486328125 225.94898986816406" stroke-width="0.0" fill="rgb(37, 68, 221)" opacity="0.79428" stroke="rgb(0, 0, 0)" stroke-opacity="1.0" stroke-linecap="round" stroke-linejoin="round"/>
    <path d="M 152.84487915039062 314.89202880859375 C 128.0261993408203 376.570068359375 181.41099548339844 401.42486572265625 96.2291488647461 465.8878173828125 C 37.241432189941406 373.0047302246094 16.473777770996094 373.7243347167969 -48.724796295166016 306.9302978515625 C 3.4766647815704346 237.07861328125 12.056303977966309 207.40219116210938 115.16044616699219 182.5236053466797 C 111.78211975097656 284.3522033691406 109.27106475830078 297.5457458496094 152.84487915039062 314.89202880859375" stroke-width="0.0" fill="rgb(7, 41, 194)" opacity="0.6567387" stroke="rgb(0, 0, 0)" stroke-opacity="1.0" stroke-linecap="round" stroke-linejoin="round"/>
    <path d="M 304.9156799316406 251.73655700683594 C 286.35418701171875 286.2453308105469 308.0320739746094 273.015869140625 222.00161743164062 266.27764892578125 C 220.53318786621094 273.83441162109375 250.4098358154297 248.96902465820312 247.5889434814453 196.71142578125 C 283.3931884765625 189.95933532714844 245.17349243164062 221.72161865234375 282.19122314453125 242.27926635742188 C 334.73858642578125 227.852294921875 319.922607421875 208.60279846191406 304.9156799316406 251.73655700683594" stroke-width="0.0" fill="rgb(0, 39, 196)" opacity="0.9389379" stroke="rgb(0, 0, 0)" stroke-opacity="1.0" stroke-linecap="round" stroke-linejoin="round"/>
    <path d="M 329.97552490234375 197.86181640625 C 336.08349609375 203.1364288330078 349.990234375 255.92138671875 292.4912109375 262.85699462890625 C 210.9402618408203 268.86981201171875 244.02793884277344 281.4842834472656 234.7545928955078 208.3722686767578 C 239.46327209472656 190.1007080078125 217.0967559814453 200.97837829589844 292.6964416503906 219.33432006835938 C 339.9767150878906 199.4973602294922 319.6309814453125 176.40257263183594 329.97552490234375 197.86181640625" stroke-width="0.0" fill="rgb(0, 10, 253)" opacity="1.0" stroke="rgb(0, 0, 0)" stroke-opacity="1.0" stroke-linecap="round" stroke-linejoin="round"/>
    <path d="M 327.9453125 379.6910705566406 C 295.5076904296875 339.75970458984375 314.93994140625 384.1566467285156 300.870849609375 390.24365234375 C 263.944580078125 417.2720031738281 302.8544616699219 411.81500244140625 318.2341003417969 461.5603942871094 C 314.7672424316406 482.8623352050781 427.2232971191406 494.1808776855469 384.6069641113281 441.321533203125 C 333.6059875488281 440.086669921875 354.7579345703125 426.1573791503906 327.9453125 379.6910705566406" stroke-width="0.0" fill="rgb(255, 242, 211)" opacity="0.9957538" stroke="rgb(0, 0, 0)" stroke-opacity="1.0" stroke-linecap="round" stroke-linejoin="round"/>
    <path d="M 310.92584228515625 151.3199005126953 C 312.49603271484375 206.20050048828125 302.78118896484375 216.38446044921875 290.83880615234375 214.2967071533203 C 289.792236328125 203.03598022460938 299.888427734375 181.98646545410156 303.2265625 193.08042907714844 C 286.9067077636719 188.77734375 288.2829895019531 161.10911560058594 296.1905822753906 166.68186950683594 C 291.3642883300781 174.70140075683594 282.1842041015625 165.4503173828125 310.92584228515625 151.3199005126953" stroke-width="0.0" fill="rgb(88, 112, 21)" opacity="0.63313085" stroke="rgb(0, 0, 0)" stroke-opacity="1.0" stroke-linecap="round" stroke-linejoin="round"/>
    <path d="M 409.5322265625 261.3998107910156 C 479.3070983886719 294.4976806640625 465.70526123046875 332.1929931640625 368.65264892578125 349.57275390625 C 275.006103515625 294.6045837402344 227.74798583984375 284.83880615234375 286.4073181152344 252.62477111816406 C 329.6998596191406 236.59523010253906 334.00640869140625 259.49420166015625 337.90789794921875 247.06114196777344 C 326.2598571777344 265.3041687011719 328.0804443359375 274.88323974609375 409.5322265625 261.3998107910156" stroke-width="0.0" fill="rgb(255, 0, 255)" opacity="1.0" stroke="rgb(0, 0, 0)" stroke-opacity="1.0" stroke-linecap="round" stroke-linejoin="round"/>
    <path d="M 224.33753967285156 331.157470703125 C 217.40988159179688 367.8692321777344 220.8993682861328 398.13079833984375 189.6232147216797 411.99639892578125 C 184.84080505371094 447.925048828125 133.87904357910156 464.8884582519531 146.71536254882812 373.191650390625 C 159.9526824951172 335.5681457519531 155.69497680664062 295.9918212890625 164.40391540527344 298.704345703125 C 199.12953186035156 339.7701721191406 195.12930297851562 353.1500549316406 224.33753967285156 331.157470703125" stroke-width="0.0" fill="rgb(255, 255, 189)" opacity="1.0" stroke="rgb(0, 0, 0)" stroke-opacity="1.0" stroke-linecap="round" stroke-linejoin="round"/>
    <path d="M 224.00868225097656 251.2393798828125 C 212.55662536621094 280.8350524902344 184.2789764404297 287.3432312011719 166.78713989257812 270.1255187988281 C 134.76109313964844 265.73480224609375 152.73899841308594 251.9898681640625 148.4855194091797 259.0035400390625 C 138.65142822265625 259.197509765625 156.66763305664062 234.3457489013672 176.8689727783203 234.8434295654297 C 196.8183135986328 240.27203369140625 225.3673553466797 227.09774780273438 224.00868225097656 251.2393798828125" stroke-width="0.0" fill="rgb(255, 0, 255)" opacity="0.9216359" stroke="rgb(0, 0, 0)" stroke-opacity="1.0" stroke-linecap="round" stroke-linejoin="round"/>
    <path d="M 390.9375915527344 205.7232666015625 C 397.7067565917969 264.09716796875 412.736083984375 276.9725036621094 356.21185302734375 274.9417419433594 C 318.8359680175781 267.724609375 315.7543029785156 245.54251098632812 322.0499572753906 250.75006103515625 C 339.3114013671875 216.9381866455078 327.0827941894531 179.20726013183594 360.7099609375 206.15802001953125 C 339.3851318359375 220.9829559326172 357.8187561035156 228.94091796875 390.9375915527344 205.7232666015625" stroke-width="0.0" fill="rgb(255, 255, 169)" opacity="1.0" stroke="rgb(0, 0, 0)" stroke-opacity="1.0" stroke-linecap="round" stroke-linejoin="round"/>
    <path d="M 193.0753173828125 438.17938232421875 C 239.22442626953125 427.4555358886719 244.5765380859375 487.8245849609375 189.47113037109375 478.4429016113281 C 128.36354064941406 478.6766662597656 159.92855834960938 454.8638610839844 110.8831787109375 416.29638671875 C 110.72648620605469 376.3559875488281 135.7550811767578 378.55303955078125 177.30218505859375 407.1016540527344 C 170.60345458984375 414.1827087402344 173.7698211669922 415.9285583496094 193.0753173828125 438.17938232421875" stroke-width="0.0" fill="rgb(255, 255, 178)" opacity="1.0" stroke="rgb(0, 0, 0)" stroke-opacity="1.0" stroke-linecap="round" stroke-linejoin="round"/>
    <path d="M 361.218994140625 374.5992736816406 C 347.3065490722656 388.8829650878906 344.2326965332031 400.1625671386719 340.77001953125 407.9976501464844 C 311.9683532714844 427.705078125 311.0529479980469 420.6916198730469 327.033935546875 412.2645568847656 C 340.7102966308594 404.5926513671875 351.4058837890625 391.9998779296875 359.0760498046875 395.91632080078125 C 357.2984619140625 355.6213684082031 368.03125 360.286865234375 361.218994140625 374.5992736816406" stroke-width="0.0" fill="rgb(148, 145, 85)" opacity="0.0" stroke="rgb(0, 0, 0)" stroke-opacity="1.0" stroke-linecap="round" stroke-linejoin="round"/>
    <path d="M 196.3347625732422 458.52313232421875 C 212.4174041748047 487.087158203125 214.4674072265625 491.6772766113281 179.21044921875 493.59613037109375 C 185.28477478027344 494.9306945800781 180.2982635498047 465.3201904296875 211.07168579101562 455.1328125 C 215.1165313720703 409.9977722167969 214.1685028076172 433.9590759277344 211.81381225585938 436.46368408203125 C 205.6461181640625 447.8490905761719 196.37217712402344 445.9323425292969 196.3347625732422 458.52313232421875" stroke-width="0.0" fill="rgb(116, 70, 178)" opacity="0.0" stroke="rgb(0, 0, 0)" stroke-opacity="1.0" stroke-linecap="round" stroke-linejoin="round"/>
    <path d="M 174.1927947998047 437.511474609375 C 199.15484619140625 447.9947509765625 181.00692749023438 466.8513488769531 205.74928283691406 445.97918701171875 C 191.5370635986328 411.0205993652344 160.0076141357422 416.56597900390625 184.643798828125 419.3316345214844 C 173.80303955078125 429.92333984375 183.51780700683594 427.5133056640625 185.77403259277344 415.3970947265625 C 163.36131286621094 418.55804443359375 182.43426513671875 419.5999450683594 174.1927947998047 437.511474609375" stroke-width="0.0" fill="rgb(152, 22, 200)" opacity="0.0" stroke="rgb(0, 0, 0)" stroke-opacity="1.0" stroke-linecap="round" stroke-linejoin="round"/>
    <path d="M 231.44686889648438 233.7617645263672 C 209.73558044433594 235.75379943847656 205.8542938232422 257.37628173828125 149.5141143798828 257.40631103515625 C 185.69937133789062 231.52798461914062 196.65234375 240.06243896484375 183.60986328125 253.31370544433594 C 185.2613067626953 218.61285400390625 171.4122314453125 241.2715301513672 160.17440795898438 224.8778533935547 C 211.37203979492188 223.0462646484375 234.98550415039062 218.83729553222656 231.44686889648438 233.7617645263672" stroke-width="0.0" fill="rgb(255, 15, 255)" opacity="0.17910618" stroke="rgb(0, 0, 0)" stroke-opacity="1.0" stroke-linecap="round" stroke-linejoin="round"/>
    <path d="M 282.4844055175781 261.3303527832031 C 298.5999755859375 278.3855895996094 302.5170593261719 277.85784912109375 287.9070739746094 262.1787109375 C 279.5577087402344 264.23065185546875 276.9374694824219 272.9663391113281 282.4673767089844 226.95272827148438 C 276.19085693359375 229.30738830566406 272.7507019042969 230.89158630371094 275.553466796875 224.57618713378906 C 277.1334533691406 234.23046875 283.7306213378906 247.99542236328125 282.4844055175781 261.3303527832031" stroke-width="0.0" fill="rgb(34, 12, 246)" opacity="0.024963712" stroke="rgb(0, 0, 0)" stroke-opacity="1.0" stroke-linecap="round" stroke-linejoin="round"/>
    <path d="M 206.46856689453125 360.8507995605469 C 214.4788055419922 394.57281494140625 207.8546600341797 393.77850341796875 166.3491973876953 383.1302795410156 C 143.60731506347656 382.35302734375 147.49876403808594 355.13372802734375 136.7520751953125 349.3696594238281 C 128.76776123046875 328.7658386230469 139.99024963378906 301.7582702636719 147.3976593017578 284.62725830078125 C 219.3416290283203 300.200439453125 219.8466796875 300.1462097167969 206.46856689453125 360.8507995605469" stroke-width="0.0" fill="rgb(255, 255, 202)" opacity="1.0" stroke="rgb(0, 0, 0)" stroke-opacity="1.0" stroke-linecap="round" stroke-linejoin="round"/>
    <path d="M 80.1091079711914 453.3369140625 C 88.03398132324219 459.5643615722656 83.32139587402344 462.0461730957031 127.54936218261719 447.9239807128906 C 82.64197540283203 474.8367614746094 65.1369400024414 446.32012939453125 70.92750549316406 407.9222717285156 C 55.077728271484375 369.5483703613281 42.83088302612305 388.184326171875 57.04875946044922 391.8164367675781 C 75.42183685302734 389.3665771484375 82.00010681152344 405.5005187988281 80.1091079711914 453.3369140625" stroke-width="0.0" fill="rgb(1, 27, 213)" opacity="0.0" stroke="rgb(0, 0, 0)" stroke-opacity="1.0" stroke-linecap="round" stroke-linejoin="round"/>
    <path d="M 447.6676330566406 462.1175231933594 C 451.9626770019531 463.5256042480469 445.1603698730469 467.55316162109375 431.5169982910156 484.6670227050781 C 447.1226806640625 486.9739990234375 463.96490478515625 477.0567321777344 436.8330383300781 465.1689147949219 C 434.52105712890625 451.93072509765625 416.7568054199219 456.0806579589844 436.6470031738281 487.85369873046875 C 438.6318054199219 440.077392578125 451.7793884277344 457.7608642578125 447.6676330566406 462.1175231933594" stroke-width="0.0" fill="rgb(20, 35, 160)" opacity="0.035952188" stroke="rgb(0, 0, 0)" stroke-opacity="1.0" stroke-linecap="round" stroke-linejoin="round"/>
    <path d="M 216.96963500976562 69.44467163085938 C 241.6186065673828 126.8832778930664 222.17242431640625 120.11554718017578 199.10231018066406 98.48371124267578 C 209.59671020507812 99.61812591552734 209.90731811523438 55.98857498168945 209.5207977294922 52.89120101928711 C 215.7704315185547 67.89189147949219 220.33726501464844 60.70279312133789 233.32200622558594 75.76449584960938 C 206.107421875 57.893611907958984 208.04197692871094 50.45153045654297 216.96963500976562 69.44467163085938" stroke-width="0.0" fill="rgb(0, 19, 240)" opacity="0.0" stroke="rgb(0, 0, 0)" stroke-opacity="1.0" stroke-linecap="round" stroke-linejoin="round"/>
    <path d="M 146.51785278320312 187.47415161132812 C 158.83229064941406 167.01495361328125 135.6309051513672 139.3054656982422 130.58123779296875 113.88880157470703 C 146.32310485839844 131.77191162109375 120.99864959716797 109.59820556640625 115.20984649658203 135.4669647216797 C 116.08441162109375 153.00521850585938 110.1588134765625 147.71206665039062 149.13772583007812 144.6155242919922 C 133.66012573242188 109.537109375 145.00692749023438 123.32054138183594 146.51785278320312 187.47415161132812" stroke-width="0.0" fill="rgb(1, 23, 206)" opacity="0.006386757" stroke="rgb(0, 0, 0)" stroke-opacity="1.0" stroke-linecap="round" stroke-linejoin="round"/>
    <path d="M 92.98308563232422 433.17236328125 C 116.57259368896484 496.59356689453125 123.09178924560547 487.32171630859375 87.44041442871094 535.115966796875 C 34.18350601196289 499.0260314941406 37.14044189453125 474.9538269042969 29.69132423400879 433.88909912109375 C 33.01306915283203 413.7611083984375 27.593914031982422 366.89251708984375 42.448326110839844 397.6876220703125 C 106.77350616455078 433.5246887207031 136.86642456054688 436.1517333984375 92.98308563232422 433.17236328125" stroke-width="0.0" fill="rgb(24, 44, 157)" opacity="0.15477006" stroke="rgb(0, 0, 0)" stroke-opacity="1.0" stroke-linecap="round" stroke-linejoin="round"/>
    <path d="M 466.8414306640625 496.3689880371094 C 474.157958984375 512.878173828125 467.8565673828125 537.2884521484375 448.4147033691406 554.5716552734375 C 422.1740417480469 542.1953125 422.6644592285156 533.531494140625 424.4904479980469 485.6427001953125 C 423.5359802246094 472.481689453125 434.7397766113281 452.6612243652344 451.0131530761719 471.9820861816406 C 440.9642028808594 498.5395202636719 434.0288391113281 498.1443786621094 466.8414306640625 496.3689880371094" stroke-width="0.0" fill="rgb(37, 39, 159)" opacity="0.016632495" stroke="rgb(0, 0, 0)" stroke-opacity="1.0" stroke-linecap="round" stroke-linejoin="round"/>
    <path d="M 206.00314331054688 30.702117919921875 C 134.0891876220703 40.00100326538086 140.39993286132812 50.81291580200195 138.37078857421875 26.59088706970215 C 134.7458953857422 40.48603439331055 139.63819885253906 44.31350326538086 133.45718383789062 54.19702911376953 C 136.31732177734375 59.100467681884766 128.19049072265625 51.51209259033203 127.88078308105469 -15.825499534606934 C 211.9412078857422 -24.054962158203125 228.36549377441406 -37.16883850097656 206.00314331054688 30.702117919921875" stroke-width="0.0" fill="rgb(66, 27, 120)" opacity="0.013409284" stroke="rgb(0, 0, 0)" stroke-opacity="1.0" stroke-linecap="round" stroke-linejoin="round"/>
    <path d="M 55.061405181884766 351.67901611328125 C 32.91514587402344 334.24859619140625 45.646759033203125 375.08746337890625 30.8074893951416 375.21673583984375 C -20.346622467041016 385.3455505371094 2.5640547275543213 366.648681640625 -2.8352255821228027 337.7478332519531 C -25.023616790771484 270.1817932128906 -19.054981231689453 270.34930419921875 38.85114669799805 279.75067138671875 C 38.73286819458008 266.6659240722656 51.57099914550781 295.4459533691406 55.061405181884766 351.67901611328125" stroke-width="0.0" fill="rgb(41, 32, 170)" opacity="0.080660336" stroke="rgb(0, 0, 0)" stroke-opacity="1.0" stroke-linecap="round" stroke-linejoin="round"/>
    <path d="M 406.94464111328125 442.9193115234375 C 385.36505126953125 437.5010986328125 408.7288818359375 465.59918212890625 396.30438232421875 403.28607177734375 C 390.4430847167969 434.0425720214844 378.6821594238281 430.20538330078125 358.72747802734375 442.46026611328125 C 372.2676086425781 395.24700927734375 384.1918029785156 421.958251953125 381.69921875 417.1290588378906 C 412.775634765625 397.7828674316406 404.075927734375 421.6689758300781 406.94464111328125 442.9193115234375" stroke-width="0.0" fill="rgb(10, 12, 252)" opacity="0.059385475" stroke="rgb(0, 0, 0)" stroke-opacity="1.0" stroke-linecap="round" stroke-linejoin="round"/>
    <path d="M 148.14793395996094 445.5847473144531 C 143.11781311035156 462.99468994140625 143.58851623535156 474.6145935058594 98.4893569946289 466.8569030761719 C 103.78495788574219 470.65911865234375 98.26093292236328 457.9720153808594 102.60392761230469 439.0784606933594 C 103.3083267211914 431.00408935546875 107.32503509521484 445.5923767089844 104.05431365966797 429.695068359375 C 104.79299926757812 431.7535400390625 125.47115325927734 431.1269226074219 148.14793395996094 445.5847473144531" stroke-width="0.0" fill="rgb(3, 37, 200)" opacity="0.9886581" stroke="rgb(0, 0, 0)" stroke-opacity="1.0" stroke-linecap="round" stroke-linejoin="round"/>
    <path d="M 266.9786071777344 49.970375061035156 C 261.7904357910156 60.713653564453125 263.83056640625 54.707008361816406 266.0355224609375 44.61988067626953 C 236.2975616455078 52.01203536987305 235.26441955566406 54.9573860168457 236.11900329589844 46.618743896484375 C 225.64048767089844 29.234704971313477 237.0382843017578 32.583099365234375 257.8547058105469 25.862577438354492 C 267.455322265625 26.212562561035156 271.8039855957031 27.233198165893555 266.9786071777344 49.970375061035156" stroke-width="0.0" fill="rgb(36, 24, 177)" opacity="0.0" stroke="rgb(0, 0, 0)" stroke-opacity="1.0" stroke-linecap="round" stroke-linejoin="round"/>
    <path d="M 119.51359558105469 351.9221496582031 C 98.55875396728516 338.8297119140625 121.52348327636719 303.93927001953125 128.45602416992188 339.16351318359375 C 148.56951904296875 333.87835693359375 121.5444564819336 316.3785095214844 90.2342758178711 328.3591003417969 C 83.74939727783203 301.793701171875 68.71200561523438 305.1425476074219 114.49483489990234 302.0181884765625 C 140.14845275878906 309.20477294921875 133.60092163085938 308.130615234375 119.51359558105469 351.9221496582031" stroke-width="0.0" fill="rgb(0, 39, 203)" opacity="0.16061011" stroke="rgb(0, 0, 0)" stroke-opacity="1.0" stroke-linecap="round" stroke-linejoin="round"/>
    <path d="M 485.7259826660156 236.98690795898438 C 511.2349853515625 227.59796142578125 495.8138427734375 226.82591247558594 449.7580871582031 220.52366638183594 C 468.9200744628906 252.2467498779297 466.3907470703125 231.8031768798828 460.2105712890625 222.93788146972656 C 458.3948974609375 241.86521911621094 462.4380798339844 239.279052734375 474.193603515625 201.67950439453125 C 466.6788330078125 229.90902709960938 469.2040710449219 243.24647521972656 485.7259826660156 236.98690795898438" stroke-width="0.0" fill="rgb(1, 46, 153)" opacity="0.0" stroke="rgb(0, 0, 0)" stroke-opacity="1.0" stroke-linecap="round" stroke-linejoin="round"/>
    <path d="M 516.645751953125 89.21154022216797 C 517.7111206054688 76.04167938232422 497.3074035644531 102.23216247558594 474.68035888671875 93.31531524658203 C 477.42047119140625 60.3475456237793 478.4946594238281 70.77005004882812 496.2403564453125 69.86268615722656 C 497.44891357421875 95.2984390258789 472.29541015625 84.3860092163086 473.98089599609375 50.92670822143555 C 519.1182250976562 51.205787658691406 537.6824951171875 67.06649017333984 516.645751953125 89.21154022216797" stroke-width="0.0" fill="rgb(3, 30, 172)" opacity="0.0013399627" stroke="rgb(0, 0, 0)" stroke-opacity="1.0" stroke-linecap="round" stroke-linejoin="round"/>
    <path d="M 54.87833023071289 210.70758056640625 C 60.19429397583008 208.1524200439453 53.6519775390625 214.00096130371094 22.608699798583984 220.44032287597656 C 16.069372177124023 180.43765258789062 12.488373756408691 170.8247528076172 -24.364439010620117 199.98635864257812 C 49.674285888671875 221.7079620361328 77.53968811035156 199.31993103027344 58.03053665161133 187.51803588867188 C 18.357200622558594 213.39874267578125 54.656524658203125 222.8067169189453 54.87833023071289 210.70758056640625" stroke-width="0.0" fill="rgb(44, 41, 211)" opacity="0.050485037" stroke="rgb(0, 0, 0)" stroke-opacity="1.0" stroke-linecap="round" stroke-linejoin="round"/>
    <path d="M 94.05392456054688 314.1471252441406 C 103.65511322021484 377.65185546875 111.77191162109375 379.9402770996094 85.90399932861328 368.7664794921875 C 93.32565307617188 362.679931640625 102.27525329589844 337.7176513671875 102.09547424316406 364.10552978515625 C 76.92102813720703 385.5815124511719 66.32734680175781 310.5639343261719 67.87065887451172 334.8907775878906 C 130.17774963378906 329.3221435546875 170.83164978027344 316.4739685058594 94.05392456054688 314.1471252441406" stroke-width="0.0" fill="rgb(26, 39, 161)" opacity="0.005269577" stroke="rgb(0, 0, 0)" stroke-opacity="1.0" stroke-linecap="round" stroke-linejoin="round"/>
    <path d="M 37.007564544677734 94.21339416503906 C 39.2651252746582 100.31021118164062 39.21607208251953 103.4878158569336 33.2301025390625 126.32998657226562 C 14.105605125427246 115.45161437988281 -15.482614517211914 118.16178894042969 -28.75689697265625 97.24835205078125 C -30.260009765625 62.0839958190918 -1.1202232837677002 67.53031158447266 27.420974731445312 64.93840026855469 C 37.995155334472656 93.54654693603516 39.083580017089844 93.81419372558594 37.007564544677734 94.21339416503906" stroke-width="0.0" fill="rgb(44, 40, 177)" opacity="0.043130606" stroke="rgb(0, 0, 0)" stroke-opacity="1.0" stroke-linecap="round" stroke-linejoin="round"/>
    <path d="M 146.81341552734375 173.59083557128906 C 154.95806884765625 196.8869171142578 157.533203125 224.89596557617188 144.18405151367188 224.5822296142578 C 131.1782989501953 197.6357421875 131.9352264404297 198.67294311523438 133.41357421875 172.64358520507812 C 125.41244506835938 178.3897705078125 123.41597747802734 167.69244384765625 117.90763092041016 177.2142333984375 C 146.58460998535156 172.94601440429688 149.00718688964844 173.7339324951172 146.81341552734375 173.59083557128906" stroke-width="0.0" fill="rgb(33, 55, 231)" opacity="0.0" stroke="rgb(0, 0, 0)" stroke-opacity="1.0" stroke-linecap="round" stroke-linejoin="round"/>
    <path d="M 179.99440002441406 377.25146484375 C 200.24221801757812 410.1874084472656 221.68052673339844 379.42535400390625 210.1173858642578 380.05419921875 C 218.8966827392578 399.4272766113281 195.35675048828125 358.297119140625 186.28509521484375 379.3125305175781 C 189.14027404785156 391.4559631347656 190.43002319335938 372.19317626953125 183.20114135742188 355.94854736328125 C 195.5504913330078 381.5960998535156 211.775390625 369.6976013183594 179.99440002441406 377.25146484375" stroke-width="0.0" fill="rgb(199, 250, 64)" opacity="0.0496753" stroke="rgb(0, 0, 0)" stroke-opacity="1.0" stroke-linecap="round" stroke-linejoin="round"/>
    <path d="M 60.14845275878906 248.156982421875 C 16.00197982788086 238.429443359375 21.001869201660156 233.88095092773438 32.56283187866211 241.26956176757812 C -18.797088623046875 241.70828247070312 -41.12229919433594 245.57505798339844 -65.77200317382812 182.60787963867188 C -20.718048095703125 172.96522521972656 36.79069137573242 174.9892120361328 47.07866287231445 177.43057250976562 C 55.9377326965332 165.53623962402344 63.13750076293945 177.42347717285156 60.14845275878906 248.156982421875" stroke-width="0.0" fill="rgb(22, 43, 186)" opacity="0.25311828" stroke="rgb(0, 0, 0)" stroke-opacity="1.0" stroke-linecap="round" stroke-linejoin="round"/>
    <path d="M 82.07344818115234 52.974605560302734 C 90.85166931152344 56.275978088378906 76.07722473144531 71.74451446533203 71.66706848144531 63.523860931396484 C 69.79019165039062 71.63337707519531 74.335693359375 67.34864044189453 75.6830825805664 55.605369567871094 C 56.353172302246094 57.217681884765625 47.549617767333984 39.61688232421875 72.75261688232422 26.00421905517578 C 76.2779541015625 29.958450317382812 73.94822692871094 27.950355529785156 82.07344818115234 52.974605560302734" stroke-width="0.0" fill="rgb(64, 68, 230)" opacity="0.00062951515" stroke="rgb(0, 0, 0)" stroke-opacity="1.0" stroke-linecap="round" stroke-linejoin="round"/>
    <path d="M 72.75102996826172 204.42250061035156 C 82.7138900756836 239.25169372558594 55.717857360839844 211.92678833007812 30.68020248413086 212.6116485595703 C 36.83765411376953 204.71640014648438 16.084487915039062 196.53594970703125 27.573444366455078 179.15562438964844 C 29.60024642944336 184.34652709960938 31.61672592163086 172.17630004882812 30.929019927978516 163.34654235839844 C 89.18602752685547 153.62417602539062 94.38660430908203 153.91880798339844 72.75102996826172 204.42250061035156" stroke-width="0.0" fill="rgb(20, 38, 198)" opacity="0.16436811" stroke="rgb(0, 0, 0)" stroke-opacity="1.0" stroke-linecap="round" stroke-linejoin="round"/>
    <path d="M 359.8431396484375 329.371337890625 C 341.3594665527344 345.9626159667969 330.9007263183594 349.3575134277344 322.3371887207031 343.1878662109375 C 299.8437805175781 337.1620178222656 320.333740234375 318.5684509277344 294.230224609375 324.429443359375 C 266.2693786621094 317.6911315917969 264.4083251953125 258.3394470214844 277.22900390625 270.28228759765625 C 318.9176940917969 311.4419860839844 330.77728271484375 317.17742919921875 359.8431396484375 329.371337890625" stroke-width="0.0" fill="rgb(255, 0, 243)" opacity="0.98191345" stroke="rgb(0, 0, 0)" stroke-opacity="1.0" stroke-linecap="round" stroke-linejoin="round"/>
    <path d="M 385.2322692871094 432.4105529785156 C 368.8064880371094 409.48931884765625 367.15911865234375 419.4757080078125 348.0733337402344 426.4030456542969 C 336.700927734375 419.5623779296875 326.2367248535156 432.7920837402344 364.9731750488281 427.171630859375 C 351.892333984375 380.60650634765625 344.3932189941406 357.9506530761719 380.8825378417969 357.1301574707031 C 417.5124816894531 388.2681884765625 408.8222961425781 437.9310302734375 385.2322692871094 432.4105529785156" stroke-width="0.0" fill="rgb(0, 18, 237)" opacity="0.0" stroke="rgb(0, 0, 0)" stroke-opacity="1.0" stroke-linecap="round" stroke-linejoin="round"/>
    <path d="M 335.3374328613281 408.9561462402344 C 348.7620849609375 419.51422119140625 338.0722961425781 428.3829345703125 329.93505859375 427.41961669921875 C 339.5086975097656 422.0377502441406 349.37921142578125 404.2442932128906 320.90386962890625 401.4921875 C 320.8644104003906 401.29248046875 337.9507141113281 405.5322265625 339.3936767578125 402.30499267578125 C 337.336181640625 407.37347412109375 337.1617431640625 423.9853210449219 335.3374328613281 408.9561462402344" stroke-width="0.0" fill="rgb(126, 210, 8)" opacity="0.019884203" stroke="rgb(0, 0, 0)" stroke-opacity="1.0" stroke-linecap="round" stroke-linejoin="round"/>
    <path d="M 530.0568237304688 231.31614685058594 C 528.02294921875 274.31414794921875 527.3207397460938 283.6290283203125 499.79278564453125 281.6234436035156 C 478.5284118652344 259.73956298828125 483.73236083984375 232.40167236328125 476.7671203613281 238.82485961914062 C 474.6882629394531 247.28562927246094 487.7275695800781 214.38937377929688 510.9942626953125 242.13389587402344 C 481.8264465332031 225.95797729492188 501.64825439453125 218.74295043945312 530.0568237304688 231.31614685058594" stroke-width="0.0" fill="rgb(0, 70, 133)" opacity="0.03561601" stroke="rgb(0, 0, 0)" stroke-opacity="1.0" stroke-linecap="round" stroke-linejoin="round"/>
    <path d="M 472.1034851074219 169.0338897705078 C 491.2069091796875 173.3645477294922 473.5722961425781 215.7019500732422 426.97540283203125 223.26258850097656 C 388.8570556640625 175.89894104003906 396.9188232421875 130.56600952148438 381.4344177246094 165.88644409179688 C 406.2543640136719 141.16012573242188 437.9613342285156 154.8395538330078 433.9969177246094 117.68632507324219 C 458.17999267578125 124.7578125 500.9400634765625 135.58038330078125 472.1034851074219 169.0338897705078" stroke-width="0.0" fill="rgb(205, 120, 0)" opacity="1.0" stroke="rgb(0, 0, 0)" stroke-opacity="1.0" stroke-linecap="round" stroke-linejoin="round"/>
  </g>
</svg>
