<?xml version="1.0" ?>
<svg xmlns="http://www.w3.org/2000/svg" version="1.1" width="512" height="512">
  <defs/>
  <g>
    <path d="M 296.9428405761719 350.6532897949219 C 207.2683563232422 493.2584228515625 202.5845489501953 289.5628662109375 97.4383544921875 421.32135009765625 C 65.48374938964844 413.9096374511719 0.11082091182470322 324.87078857421875 97.96585083007812 187.8241729736328 C 62.535396575927734 374.0269470214844 58.22663497924805 304.5448913574219 74.20172882080078 339.4969482421875 C 79.18113708496094 359.1737365722656 51.23109817504883 308.3140869140625 296.9428405761719 350.6532897949219" stroke-width="0.0" fill="rgb(4, 2, 21)" opacity="0.9927388" stroke="rgb(0, 0, 0)" stroke-opacity="1.0" stroke-linecap="round" stroke-linejoin="round"/>
    <path d="M 185.2316131591797 226.59628295898438 C 251.6572723388672 292.0326843261719 159.6153564453125 298.4015197753906 146.91543579101562 306.03167724609375 C 125.7831039428711 315.8748474121094 75.54469299316406 281.1529541015625 93.80804443359375 243.22886657714844 C 118.44442749023438 271.0977783203125 31.02739715576172 227.2246551513672 173.7086639404297 207.6000518798828 C 189.28236389160156 267.996826171875 191.40737915039062 260.24676513671875 185.2316131591797 226.59628295898438" stroke-width="0.0" fill="rgb(0, 0, 13)" opacity="1.0" stroke="rgb(0, 0, 0)" stroke-opacity="1.0" stroke-linecap="round" stroke-linejoin="round"/>
    <path d="M 411.2306823730469 242.32080078125 C 431.2982177734375 363.5791931152344 280.7803039550781 257.61090087890625 372.2471008300781 219.78904724121094 C 406.03253173828125 233.2571563720703 336.6553039550781 194.21127319335938 283.0906677246094 388.5717468261719 C 238.104248046875 235.6131591796875 352.47113037109375 218.2336883544922 387.2256164550781 215.19921875 C 456.85040283203125 243.98622131347656 416.4193115234375 254.67613220214844 411.2306823730469 242.32080078125" stroke-width="0.0" fill="rgb(0, 0, 15)" opacity="1.0" stroke="rgb(0, 0, 0)" stroke-opacity="1.0" stroke-linecap="round" stroke-linejoin="round"/>
    <path d="M 198.97203063964844 211.3894805908203 C 168.44747924804688 282.7296447753906 246.90599060058594 252.74380493164062 99.39990997314453 265.83331298828125 C 39.077362060546875 255.3748779296875 137.06768798828125 220.5093994140625 187.28607177734375 215.37405395507812 C 205.03897094726562 219.11474609375 193.53631591796875 236.6354522705078 204.71371459960938 218.0785675048828 C 160.49790954589844 96.3216323852539 160.94638061523438 95.0387191772461 198.97203063964844 211.3894805908203" stroke-width="0.0" fill="rgb(0, 2, 7)" opacity="0.98376274" stroke="rgb(0, 0, 0)" stroke-opacity="1.0" stroke-linecap="round" stroke-linejoin="round"/>
    <path d="M 506.2367248535156 270.6007995605469 C 595.3173217773438 431.9420166015625 432.3655700683594 395.6469421386719 437.8279724121094 495.37420654296875 C 272.1415100097656 343.5692138671875 325.8907775878906 458.4577941894531 308.6175537109375 268.664794921875 C 456.2384948730469 334.5198669433594 340.0740051269531 276.255859375 431.1181640625 313.05242919921875 C 451.3868713378906 346.8324890136719 353.60443115234375 345.50396728515625 506.2367248535156 270.6007995605469" stroke-width="0.0" fill="rgb(186, 183, 105)" opacity="0.0033200753" stroke="rgb(0, 0, 0)" stroke-opacity="1.0" stroke-linecap="round" stroke-linejoin="round"/>
    <path d="M 425.8493957519531 178.43496704101562 C 459.7585144042969 298.7107849121094 487.6295471191406 300.5552978515625 429.2818908691406 387.0259704589844 C 454.59503173828125 303.1186828613281 461.77984619140625 342.6286315917969 413.4639892578125 182.87533569335938 C 440.9530029296875 87.89739227294922 476.8280334472656 -2.7253215312957764 471.545654296875 73.26936340332031 C 437.1795349121094 168.8238067626953 432.0276794433594 108.61654663085938 425.8493957519531 178.43496704101562" stroke-width="0.0" fill="rgb(0, 0, 29)" opacity="1.0" stroke="rgb(0, 0, 0)" stroke-opacity="1.0" stroke-linecap="round" stroke-linejoin="round"/>
    <path d="M 353.8487548828125 287.6502685546875 C 282.866455078125 301.5819396972656 325.92327880859375 383.5641174316406 323.9301452636719 339.8585205078125 C 279.1183776855469 323.05548095703125 346.9620056152344 312.2210693359375 314.3410339355469 303.7503356933594 C 290.75201416015625 261.6646423339844 264.7268981933594 243.55282592773438 305.4137878417969 238.146728515625 C 356.7773742675781 217.5523223876953 350.8163146972656 261.39599609375 353.8487548828125 287.6502685546875" stroke-width="0.0" fill="rgb(255, 227, 251)" opacity="1.0" stroke="rgb(0, 0, 0)" stroke-opacity="1.0" stroke-linecap="round" stroke-linejoin="round"/>
    <path d="M 388.9263916015625 249.1558074951172 C 407.3256530761719 219.89373779296875 396.08709716796875 249.56028747558594 392.0259704589844 240.91268920898438 C 348.6971435546875 234.2432861328125 344.97662353515625 210.81788635253906 340.8282470703125 232.62294006347656 C 310.6778564453125 221.81243896484375 318.2190246582031 208.75747680664062 336.6427917480469 238.0421905517578 C 350.8502197265625 235.36474609375 357.2613525390625 213.1492156982422 388.9263916015625 249.1558074951172" stroke-width="0.0" fill="rgb(0, 0, 18)" opacity="0.95910645" stroke="rgb(0, 0, 0)" stroke-opacity="1.0" stroke-linecap="round" stroke-linejoin="round"/>
    <path d="M 66.05696868896484 71.42779541015625 C 114.67391967773438 186.49264526367188 77.21809387207031 111.3937759399414 171.54852294921875 105.94913482666016 C -10.724126815795898 123.9701919555664 127.74879455566406 228.99325561523438 37.35300064086914 83.2016830444336 C 32.10456085205078 -40.210575103759766 34.79977798461914 -34.952796936035156 164.74755859375 127.2978515625 C 37.42325973510742 27.96878433227539 48.782318115234375 -23.483142852783203 66.05696868896484 71.42779541015625" stroke-width="0.0" fill="rgb(0, 0, 9)" opacity="1.0" stroke="rgb(0, 0, 0)" stroke-opacity="1.0" stroke-linecap="round" stroke-linejoin="round"/>
    <path d="M 242.58444213867188 307.6495666503906 C 239.76707458496094 325.7421569824219 328.9059143066406 295.7452697753906 289.9818115234375 352.33111572265625 C 14.629101753234863 377.9097595214844 150.0803680419922 310.4582214355469 185.01356506347656 247.10289001464844 C 177.8223419189453 179.55152893066406 220.86203002929688 209.3932342529297 192.3665008544922 266.5496826171875 C 204.2198028564453 294.9862365722656 232.1745147705078 261.9521179199219 242.58444213867188 307.6495666503906" stroke-width="0.0" fill="rgb(3, 0, 32)" opacity="0.99661803" stroke="rgb(0, 0, 0)" stroke-opacity="1.0" stroke-linecap="round" stroke-linejoin="round"/>
    <path d="M 399.4397277832031 248.7555389404297 C 384.68634033203125 266.0665588378906 370.5283508300781 248.73287963867188 383.306396484375 251.82659912109375 C 384.0600280761719 263.3268127441406 353.247314453125 278.73388671875 327.16595458984375 239.4190673828125 C 382.41351318359375 243.46165466308594 366.0192565917969 267.5531311035156 354.0555419921875 246.32122802734375 C 400.4954833984375 240.0910186767578 390.8131408691406 230.72821044921875 399.4397277832031 248.7555389404297" stroke-width="0.0" fill="rgb(92, 167, 75)" opacity="0.70681566" stroke="rgb(0, 0, 0)" stroke-opacity="1.0" stroke-linecap="round" stroke-linejoin="round"/>
    <path d="M 510.1035461425781 -6.099472522735596 C 321.966064453125 77.59199523925781 363.1572265625 92.51651763916016 231.1550750732422 104.70597076416016 C 151.5377655029297 90.40470886230469 220.6259002685547 34.429351806640625 39.287837982177734 -64.55743408203125 C 234.54409790039062 12.770017623901367 133.01280212402344 86.7929458618164 294.1750793457031 93.90326690673828 C 364.2181396484375 78.23309326171875 412.4184265136719 27.39740562438965 510.1035461425781 -6.099472522735596" stroke-width="0.0" fill="rgb(45, 37, 13)" opacity="0.8397864" stroke="rgb(0, 0, 0)" stroke-opacity="1.0" stroke-linecap="round" stroke-linejoin="round"/>
    <path d="M 348.83782958984375 367.4368591308594 C 129.7881317138672 434.9559020996094 231.70526123046875 306.4654846191406 134.95362854003906 410.2798156738281 C 106.9877700805664 407.80682373046875 154.86582946777344 355.0260925292969 125.08444213867188 373.3802795410156 C 133.26174926757812 337.459228515625 139.88629150390625 288.4364013671875 178.75140380859375 283.1505126953125 C 273.4053039550781 346.86572265625 353.3759460449219 342.84332275390625 348.83782958984375 367.4368591308594" stroke-width="0.0" fill="rgb(251, 210, 252)" opacity="0.99133766" stroke="rgb(0, 0, 0)" stroke-opacity="1.0" stroke-linecap="round" stroke-linejoin="round"/>
    <path d="M 467.2513427734375 68.57821655273438 C 476.94305419921875 39.989192962646484 477.40155029296875 42.3390007019043 468.45391845703125 79.17327880859375 C 479.5854187011719 64.91671752929688 487.0806884765625 66.54029083251953 458.0936584472656 78.7033920288086 C 477.1861267089844 -0.7641363739967346 460.3831787109375 -40.85952377319336 461.08892822265625 -21.41228485107422 C 473.17974853515625 36.11381912231445 483.12005615234375 62.19386291503906 467.2513427734375 68.57821655273438" stroke-width="0.0" fill="rgb(0, 0, 17)" opacity="1.0" stroke="rgb(0, 0, 0)" stroke-opacity="1.0" stroke-linecap="round" stroke-linejoin="round"/>
    <path d="M 449.86328125 33.97869873046875 C 330.4114685058594 153.39187622070312 424.8725280761719 125.70716094970703 443.8597106933594 133.28863525390625 C 291.4927978515625 70.50659942626953 295.0198669433594 171.3828887939453 340.73223876953125 46.82339096069336 C 325.766357421875 50.43803405761719 389.7832336425781 -34.51791000366211 339.38140869140625 113.09970092773438 C 374.4676513671875 120.39539337158203 435.4703063964844 -22.78647804260254 449.86328125 33.97869873046875" stroke-width="0.0" fill="rgb(1, 0, 6)" opacity="1.0" stroke="rgb(0, 0, 0)" stroke-opacity="1.0" stroke-linecap="round" stroke-linejoin="round"/>
    <path d="M 455.3199157714844 413.7491760253906 C 424.25762939453125 426.0972900390625 511.2967529296875 555.064697265625 316.58819580078125 560.1746826171875 C 230.37730407714844 340.03924560546875 307.7090759277344 400.1229248046875 340.32928466796875 278.79254150390625 C 583.9993896484375 392.8737487792969 333.1363830566406 355.4061584472656 401.6871337890625 321.2003479003906 C 505.4387512207031 359.5904846191406 514.3549194335938 376.97430419921875 455.3199157714844 413.7491760253906" stroke-width="0.0" fill="rgb(255, 222, 122)" opacity="0.7206651" stroke="rgb(0, 0, 0)" stroke-opacity="1.0" stroke-linecap="round" stroke-linejoin="round"/>
    <path d="M 487.5289001464844 41.32627868652344 C 450.3270568847656 14.499853134155273 491.7132873535156 49.32131576538086 428.58380126953125 147.35714721679688 C 398.5723571777344 137.15554809570312 428.02935791015625 186.92266845703125 439.79156494140625 12.640901565551758 C 479.77032470703125 -5.4857988357543945 468.9259033203125 -20.182159423828125 466.9147644042969 60.42154312133789 C 463.2641296386719 38.26179885864258 466.302490234375 27.15399169921875 487.5289001464844 41.32627868652344" stroke-width="0.0" fill="rgb(0, 0, 25)" opacity="0.99920374" stroke="rgb(0, 0, 0)" stroke-opacity="1.0" stroke-linecap="round" stroke-linejoin="round"/>
    <path d="M 425.6551818847656 403.6344299316406 C 448.2917785644531 426.93780517578125 398.48883056640625 464.5072937011719 280.3130798339844 504.8947448730469 C 182.18800354003906 537.7857666015625 155.0547332763672 476.2687072753906 177.83258056640625 383.7583923339844 C 270.5879821777344 416.8114013671875 278.1877746582031 394.0005798339844 298.2710876464844 379.2369384765625 C 292.8000183105469 392.4389953613281 344.6904296875 424.8506164550781 425.6551818847656 403.6344299316406" stroke-width="0.0" fill="rgb(160, 126, 3)" opacity="0.24423169" stroke="rgb(0, 0, 0)" stroke-opacity="1.0" stroke-linecap="round" stroke-linejoin="round"/>
    <path d="M 150.24400329589844 326.166748046875 C 256.2632751464844 278.25152587890625 295.6121520996094 289.50897216796875 237.77503967285156 306.3299560546875 C 185.5570068359375 337.91680908203125 223.98550415039062 321.5902404785156 209.63893127441406 229.1387481689453 C 157.4686737060547 236.86944580078125 180.96710205078125 284.1192932128906 143.7578125 289.27740478515625 C 103.50819396972656 339.2835693359375 115.198486328125 298.18804931640625 150.24400329589844 326.166748046875" stroke-width="0.0" fill="rgb(255, 227, 229)" opacity="1.0" stroke="rgb(0, 0, 0)" stroke-opacity="1.0" stroke-linecap="round" stroke-linejoin="round"/>
    <path d="M 571.6446533203125 416.6883239746094 C 498.1600036621094 579.1226196289062 422.639892578125 516.6275024414062 443.7497253417969 439.98870849609375 C 457.2525329589844 423.805419921875 471.91705322265625 434.9042053222656 469.7095947265625 405.7550964355469 C 490.4781799316406 402.4852600097656 454.0912780761719 400.5009765625 461.8639221191406 373.1457214355469 C 528.0283203125 385.2001037597656 448.705078125 363.0731201171875 571.6446533203125 416.6883239746094" stroke-width="0.0" fill="rgb(254, 255, 255)" opacity="0.94319385" stroke="rgb(0, 0, 0)" stroke-opacity="1.0" stroke-linecap="round" stroke-linejoin="round"/>
    <path d="M 291.5921936035156 402.6065368652344 C 242.54908752441406 396.7886962890625 245.8343048095703 390.9859619140625 241.69146728515625 390.1010437011719 C 264.5860595703125 353.540771484375 240.53506469726562 327.5625 224.4784393310547 389.7383117675781 C 209.6558074951172 408.69281005859375 232.0612335205078 399.9976806640625 280.4739990234375 259.063720703125 C 324.5775146484375 363.3737487792969 346.5748291015625 387.554931640625 291.5921936035156 402.6065368652344" stroke-width="0.0" fill="rgb(0, 0, 21)" opacity="1.0" stroke="rgb(0, 0, 0)" stroke-opacity="1.0" stroke-linecap="round" stroke-linejoin="round"/>
    <path d="M 51.325599670410156 0.18182198703289032 C 32.14497756958008 22.157840728759766 37.86363220214844 141.08396911621094 104.7663803100586 188.16416931152344 C 92.0381088256836 254.94313049316406 35.19398498535156 25.423667907714844 41.518272399902344 44.601715087890625 C 51.90143966674805 -23.923952102661133 28.99777603149414 -33.364044189453125 115.19652557373047 24.210744857788086 C 172.97247314453125 87.27718353271484 84.03284454345703 -5.629034042358398 51.325599670410156 0.18182198703289032" stroke-width="0.0" fill="rgb(18, 3, 38)" opacity="0.0" stroke="rgb(0, 0, 0)" stroke-opacity="1.0" stroke-linecap="round" stroke-linejoin="round"/>
    <path d="M 163.2292022705078 35.614463806152344 C 175.7113800048828 39.79374694824219 162.35366821289062 35.032508850097656 166.0840606689453 68.361328125 C 168.15628051757812 37.88735580444336 162.87387084960938 16.467058181762695 103.64990997314453 -14.185361862182617 C 85.29674530029297 -37.32431411743164 79.19316864013672 -43.21451950073242 130.44859313964844 -27.675220489501953 C 169.47837829589844 -21.730112075805664 166.70541381835938 -34.03322982788086 163.2292022705078 35.614463806152344" stroke-width="0.0" fill="rgb(252, 252, 253)" opacity="0.9985923" stroke="rgb(0, 0, 0)" stroke-opacity="1.0" stroke-linecap="round" stroke-linejoin="round"/>
    <path d="M 145.88558959960938 291.67486572265625 C 121.26221466064453 335.44805908203125 130.62635803222656 371.0086975097656 115.19772338867188 373.9987487792969 C 72.71503448486328 352.4920959472656 66.92757415771484 352.5513916015625 59.27631759643555 330.7813415527344 C 71.91934967041016 279.97833251953125 76.38420867919922 243.33261108398438 98.74796295166016 246.153076171875 C 99.37794494628906 271.67181396484375 114.91241455078125 294.17864990234375 145.88558959960938 291.67486572265625" stroke-width="0.0" fill="rgb(253, 235, 23)" opacity="0.9950691" stroke="rgb(0, 0, 0)" stroke-opacity="1.0" stroke-linecap="round" stroke-linejoin="round"/>
    <path d="M 86.33226013183594 247.41297912597656 C 96.78860473632812 236.8087158203125 76.7303466796875 248.5518798828125 87.61642456054688 245.33457946777344 C 83.62057495117188 258.5600280761719 80.73152160644531 291.4267578125 60.77650833129883 305.916015625 C 78.43688201904297 227.24180603027344 120.2773666381836 163.10208129882812 98.85118103027344 225.49644470214844 C 81.62034606933594 248.68081665039062 72.80839538574219 254.54331970214844 86.33226013183594 247.41297912597656" stroke-width="0.0" fill="rgb(250, 250, 184)" opacity="0.92585254" stroke="rgb(0, 0, 0)" stroke-opacity="1.0" stroke-linecap="round" stroke-linejoin="round"/>
    <path d="M 313.4802551269531 101.24723815917969 C 305.55120849609375 219.87771606445312 350.9027099609375 261.71673583984375 252.85630798339844 285.20611572265625 C 139.76918029785156 230.00917053222656 145.81068420410156 209.7912139892578 156.9600372314453 119.6942138671875 C 154.2322235107422 47.38686752319336 184.52967834472656 63.908477783203125 232.7477264404297 78.82881164550781 C 275.7685241699219 97.73872375488281 314.3326110839844 74.4419174194336 313.4802551269531 101.24723815917969" stroke-width="0.0" fill="rgb(240, 166, 58)" opacity="1.0" stroke="rgb(0, 0, 0)" stroke-opacity="1.0" stroke-linecap="round" stroke-linejoin="round"/>
    <path d="M 316.9705810546875 366.02276611328125 C 311.7294616699219 328.763916015625 344.5528869628906 358.1095886230469 312.6739501953125 386.65234375 C 253.6692657470703 390.960693359375 257.3298645019531 396.2371826171875 260.7164611816406 315.7056579589844 C 306.79132080078125 338.7303771972656 309.0545959472656 286.7706604003906 335.0453796386719 283.48602294921875 C 353.6112976074219 325.0279846191406 313.0224304199219 388.93292236328125 316.9705810546875 366.02276611328125" stroke-width="0.0" fill="rgb(254, 126, 253)" opacity="1.0" stroke="rgb(0, 0, 0)" stroke-opacity="1.0" stroke-linecap="round" stroke-linejoin="round"/>
    <path d="M 37.13462829589844 427.0907897949219 C 19.879131317138672 431.2480773925781 130.93382263183594 382.669921875 57.6158332824707 365.02581787109375 C -10.10081958770752 412.5723876953125 8.648762702941895 391.6631164550781 94.74560546875 352.49090576171875 C -41.12659454345703 359.4112243652344 -5.943267345428467 363.8569641113281 79.86998748779297 353.75 C 94.363525390625 394.5048828125 96.6620864868164 379.1906433105469 37.13462829589844 427.0907897949219" stroke-width="0.0" fill="rgb(1, 48, 9)" opacity="0.0" stroke="rgb(0, 0, 0)" stroke-opacity="1.0" stroke-linecap="round" stroke-linejoin="round"/>
    <path d="M 325.5023193359375 386.0358581542969 C 326.6239929199219 391.2079162597656 312.2588195800781 392.1383056640625 305.8755187988281 390.86199951171875 C 311.5425720214844 387.6474914550781 297.5227355957031 392.15985107421875 319.9390869140625 384.1589050292969 C 320.8484191894531 399.4989318847656 285.65673828125 389.55230712890625 305.9839782714844 381.7613830566406 C 339.46661376953125 352.09124755859375 334.7279052734375 348.6707458496094 325.5023193359375 386.0358581542969" stroke-width="0.0" fill="rgb(0, 0, 27)" opacity="1.0" stroke="rgb(0, 0, 0)" stroke-opacity="1.0" stroke-linecap="round" stroke-linejoin="round"/>
    <path d="M 422.9598388671875 64.572509765625 C 426.4729919433594 69.9437026977539 453.8970642089844 57.24784851074219 424.2844543457031 149.52479553222656 C 407.92828369140625 185.663330078125 376.8645935058594 135.23641967773438 351.46405029296875 124.14031219482422 C 386.4745178222656 106.27266693115234 398.7834777832031 79.989990234375 426.86724853515625 64.40372467041016 C 411.50933837890625 84.25212860107422 427.6445617675781 75.12057495117188 422.9598388671875 64.572509765625" stroke-width="0.0" fill="rgb(235, 203, 155)" opacity="0.9903961" stroke="rgb(0, 0, 0)" stroke-opacity="1.0" stroke-linecap="round" stroke-linejoin="round"/>
    <path d="M 162.62271118164062 84.72792053222656 C 161.44606018066406 78.39485168457031 157.4776153564453 104.12718200683594 163.7329559326172 137.6403350830078 C 135.59303283691406 149.62351989746094 140.50384521484375 128.45921325683594 120.41282653808594 70.98432159423828 C 109.07962799072266 23.890090942382812 144.85641479492188 48.53057098388672 159.70115661621094 60.08108139038086 C 188.17373657226562 48.59502029418945 191.23704528808594 67.46183776855469 162.62271118164062 84.72792053222656" stroke-width="0.0" fill="rgb(196, 150, 42)" opacity="0.9485703" stroke="rgb(0, 0, 0)" stroke-opacity="1.0" stroke-linecap="round" stroke-linejoin="round"/>
    <path d="M 531.8523559570312 440.48583984375 C 531.2156982421875 467.00396728515625 531.2875366210938 471.57672119140625 535.3231201171875 445.8544616699219 C 531.8849487304688 427.1108703613281 509.7113952636719 420.3551940917969 510.7480773925781 443.49310302734375 C 470.9130859375 430.0387268066406 488.1173400878906 434.0838623046875 535.5499877929688 434.91845703125 C 524.2904663085938 425.6336975097656 529.3707275390625 430.8746337890625 531.8523559570312 440.48583984375" stroke-width="0.0" fill="rgb(228, 194, 149)" opacity="0.0" stroke="rgb(0, 0, 0)" stroke-opacity="1.0" stroke-linecap="round" stroke-linejoin="round"/>
    <path d="M 391.5570373535156 246.31813049316406 C 400.3731994628906 262.9140319824219 384.5613098144531 292.9284362792969 347.24725341796875 281.45416259765625 C 332.49383544921875 229.34983825683594 318.2623596191406 239.62518310546875 340.531494140625 249.9981231689453 C 324.4361267089844 231.69874572753906 338.3688049316406 238.75062561035156 320.9617614746094 226.58331298828125 C 358.13128662109375 231.27108764648438 351.4505920410156 240.08346557617188 391.5570373535156 246.31813049316406" stroke-width="0.0" fill="rgb(0, 1, 11)" opacity="1.0" stroke="rgb(0, 0, 0)" stroke-opacity="1.0" stroke-linecap="round" stroke-linejoin="round"/>
    <path d="M 501.05670166015625 398.2964172363281 C 482.3494873046875 412.82012939453125 464.1864318847656 430.0273132324219 452.8970947265625 449.0037536621094 C 428.56805419921875 431.880859375 445.25213623046875 408.31671142578125 455.4902038574219 360.47607421875 C 393.9139404296875 370.28564453125 415.6846618652344 358.6036376953125 459.40057373046875 370.06097412109375 C 495.0969543457031 374.5563049316406 505.5025634765625 376.3877258300781 501.05670166015625 398.2964172363281" stroke-width="0.0" fill="rgb(254, 254, 255)" opacity="0.99983054" stroke="rgb(0, 0, 0)" stroke-opacity="1.0" stroke-linecap="round" stroke-linejoin="round"/>
    <path d="M 178.08543395996094 402.4690246582031 C 185.87608337402344 418.2403869628906 179.80096435546875 419.1383972167969 162.3255615234375 410.0094909667969 C 129.34925842285156 419.1602478027344 97.87731170654297 429.91021728515625 112.14813995361328 407.81060791015625 C 121.9288330078125 347.0141906738281 163.00570678710938 312.1727600097656 184.61419677734375 375.3314514160156 C 152.38121032714844 376.0898132324219 162.91714477539062 373.3245849609375 178.08543395996094 402.4690246582031" stroke-width="0.0" fill="rgb(252, 250, 238)" opacity="1.0" stroke="rgb(0, 0, 0)" stroke-opacity="1.0" stroke-linecap="round" stroke-linejoin="round"/>
    <path d="M 444.4942321777344 410.66412353515625 C 418.14410400390625 408.1284484863281 419.7516174316406 408.4515686035156 421.2950134277344 418.5326232910156 C 405.3571472167969 409.9914855957031 401.3192138671875 369.1272277832031 391.4230041503906 335.5482177734375 C 373.7795715332031 312.3718566894531 409.07061767578125 236.0693359375 441.075439453125 271.9443664550781 C 464.6607666015625 334.6777648925781 463.04461669921875 343.77276611328125 444.4942321777344 410.66412353515625" stroke-width="0.0" fill="rgb(255, 199, 110)" opacity="1.0" stroke="rgb(0, 0, 0)" stroke-opacity="1.0" stroke-linecap="round" stroke-linejoin="round"/>
    <path d="M 142.80870056152344 96.4281234741211 C 170.98973083496094 106.2614974975586 138.3718719482422 92.01766967773438 125.9038314819336 113.46436309814453 C 118.38968658447266 118.98224639892578 116.35922241210938 98.5366439819336 67.56731414794922 99.9563980102539 C 40.77336883544922 -5.081414222717285 49.591217041015625 25.792579650878906 91.6500473022461 64.01238250732422 C 113.79656219482422 84.6300048828125 122.1261978149414 91.87077331542969 142.80870056152344 96.4281234741211" stroke-width="0.0" fill="rgb(179, 123, 106)" opacity="0.60332865" stroke="rgb(0, 0, 0)" stroke-opacity="1.0" stroke-linecap="round" stroke-linejoin="round"/>
    <path d="M 346.7313537597656 387.7548522949219 C 327.2604675292969 369.9618835449219 327.7677917480469 370.4303283691406 311.18804931640625 391.53582763671875 C 296.6864318847656 390.71832275390625 333.56793212890625 382.6910400390625 320.2047119140625 336.7773132324219 C 344.2293395996094 306.96624755859375 336.84002685546875 332.4527893066406 325.1337585449219 369.7738342285156 C 336.98468017578125 375.50543212890625 350.1822814941406 389.7949523925781 346.7313537597656 387.7548522949219" stroke-width="0.0" fill="rgb(0, 1, 26)" opacity="0.99374825" stroke="rgb(0, 0, 0)" stroke-opacity="1.0" stroke-linecap="round" stroke-linejoin="round"/>
    <path d="M 130.61708068847656 350.4083557128906 C 103.04936981201172 418.8601989746094 94.21219635009766 418.3772888183594 81.0535659790039 383.226318359375 C 67.66241455078125 378.00927734375 59.5001106262207 375.15869140625 59.4477424621582 337.12890625 C 63.149497985839844 305.1517333984375 70.37586975097656 341.024169921875 93.45602416992188 347.46234130859375 C 94.99555969238281 363.5815734863281 90.41577911376953 368.05828857421875 130.61708068847656 350.4083557128906" stroke-width="0.0" fill="rgb(225, 202, 17)" opacity="0.8662135" stroke="rgb(0, 0, 0)" stroke-opacity="1.0" stroke-linecap="round" stroke-linejoin="round"/>
    <path d="M 285.4239501953125 81.85083770751953 C 294.7000427246094 142.5220489501953 320.107421875 167.49435424804688 274.24237060546875 164.5911102294922 C 238.94248962402344 146.8614044189453 243.54676818847656 120.475341796875 252.93267822265625 120.57831573486328 C 275.7842712402344 139.37156677246094 255.99636840820312 152.51373291015625 191.673583984375 53.465274810791016 C 192.61019897460938 -16.965133666992188 291.8185729980469 17.5013370513916 285.4239501953125 81.85083770751953" stroke-width="0.0" fill="rgb(163, 89, 0)" opacity="0.99195033" stroke="rgb(0, 0, 0)" stroke-opacity="1.0" stroke-linecap="round" stroke-linejoin="round"/>
    <path d="M 456.834228515625 72.29342651367188 C 436.9297790527344 117.00621032714844 426.8780212402344 134.619873046875 420.6601257324219 125.89354705810547 C 399.25115966796875 77.01640319824219 402.5436706542969 80.57347869873047 398.6456298828125 92.36734771728516 C 400.407958984375 80.6707534790039 417.7128601074219 66.39030456542969 454.4566955566406 22.204891204833984 C 458.3597106933594 -2.8893425464630127 461.3895568847656 69.29507446289062 456.834228515625 72.29342651367188" stroke-width="0.0" fill="rgb(231, 209, 177)" opacity="1.0" stroke="rgb(0, 0, 0)" stroke-opacity="1.0" stroke-linecap="round" stroke-linejoin="round"/>
    <path d="M 135.5715789794922 142.98529052734375 C 120.1454849243164 137.23117065429688 105.03631591796875 155.94970703125 95.05725860595703 145.9526824951172 C 92.09162139892578 137.80604553222656 94.86534881591797 136.6261444091797 95.45988464355469 130.39259338378906 C 70.78614044189453 100.16484832763672 36.84300994873047 65.04487609863281 63.1005859375 30.71514892578125 C 132.92063903808594 114.48091125488281 152.92721557617188 130.75625610351562 135.5715789794922 142.98529052734375" stroke-width="0.0" fill="rgb(218, 206, 179)" opacity="1.0" stroke="rgb(0, 0, 0)" stroke-opacity="1.0" stroke-linecap="round" stroke-linejoin="round"/>
    <path d="M 548.8760986328125 469.41754150390625 C 520.4595336914062 517.4486083984375 511.7738037109375 524.1069946289062 460.3465881347656 535.8565673828125 C 429.8335876464844 519.5044555664062 418.48028564453125 504.5814208984375 458.6224365234375 481.458984375 C 466.0396423339844 473.6031188964844 466.9496154785156 461.82733154296875 484.4012756347656 444.8918151855469 C 549.4539184570312 441.10797119140625 558.217529296875 444.4052734375 548.8760986328125 469.41754150390625" stroke-width="0.0" fill="rgb(255, 255, 140)" opacity="0.0" stroke="rgb(0, 0, 0)" stroke-opacity="1.0" stroke-linecap="round" stroke-linejoin="round"/>
    <path d="M 268.944580078125 308.7544250488281 C 278.2940673828125 308.50274658203125 288.7535095214844 320.746337890625 260.36578369140625 330.50689697265625 C 208.46888732910156 321.3357849121094 181.85382080078125 310.13824462890625 208.13096618652344 281.21185302734375 C 266.10345458984375 312.1242980957031 264.7799987792969 325.3123779296875 258.7490539550781 329.33465576171875 C 237.58297729492188 306.8412780761719 244.98841857910156 313.4454345703125 268.944580078125 308.7544250488281" stroke-width="0.0" fill="rgb(0, 0, 15)" opacity="1.0" stroke="rgb(0, 0, 0)" stroke-opacity="1.0" stroke-linecap="round" stroke-linejoin="round"/>
    <path d="M 429.2699279785156 140.83694458007812 C 431.7078857421875 135.45681762695312 426.88592529296875 159.41786193847656 424.1561279296875 178.2816162109375 C 409.3797302246094 180.56430053710938 409.5350646972656 154.59408569335938 401.53033447265625 151.4571075439453 C 432.5865478515625 160.68417358398438 410.05377197265625 150.6560516357422 403.6001892089844 141.7286834716797 C 443.0434265136719 105.68077850341797 432.4809265136719 113.58020782470703 429.2699279785156 140.83694458007812" stroke-width="0.0" fill="rgb(3, 0, 26)" opacity="0.99613154" stroke="rgb(0, 0, 0)" stroke-opacity="1.0" stroke-linecap="round" stroke-linejoin="round"/>
    <path d="M 440.14007568359375 516.5086669921875 C 468.1928405761719 523.8154907226562 467.31640625 525.5244140625 440.1734619140625 533.1649780273438 C 436.1001281738281 522.3826293945312 445.6477966308594 501.4619140625 454.8493957519531 506.5743408203125 C 439.5677490234375 482.8229064941406 434.1255798339844 477.5570983886719 440.2359924316406 460.3291931152344 C 442.4239196777344 472.65899658203125 446.2638854980469 483.1381530761719 440.14007568359375 516.5086669921875" stroke-width="0.0" fill="rgb(197, 144, 118)" opacity="0.0852026" stroke="rgb(0, 0, 0)" stroke-opacity="1.0" stroke-linecap="round" stroke-linejoin="round"/>
    <path d="M 459.7320556640625 -1.73079252243042 C 472.78363037109375 3.7966837882995605 466.29400634765625 18.782691955566406 462.2947692871094 20.52082633972168 C 475.20660400390625 11.886971473693848 459.45562744140625 18.805734634399414 428.515869140625 40.43320846557617 C 447.9052429199219 -6.524709701538086 464.0230407714844 -7.998522758483887 469.72955322265625 -14.851669311523438 C 460.65289306640625 -27.657493591308594 462.16156005859375 -14.943830490112305 459.7320556640625 -1.73079252243042" stroke-width="0.0" fill="rgb(0, 0, 10)" opacity="1.0" stroke="rgb(0, 0, 0)" stroke-opacity="1.0" stroke-linecap="round" stroke-linejoin="round"/>
    <path d="M 182.40782165527344 243.90586853027344 C 185.7222900390625 233.93173217773438 171.34422302246094 253.21353149414062 173.1714630126953 263.0501708984375 C 175.31863403320312 271.41021728515625 170.87010192871094 275.8917541503906 174.8426055908203 252.8525848388672 C 165.47337341308594 262.911865234375 173.73719787597656 248.84042358398438 184.38421630859375 247.77903747558594 C 176.5860137939453 248.29483032226562 182.92669677734375 247.14422607421875 182.40782165527344 243.90586853027344" stroke-width="0.0" fill="rgb(173, 182, 147)" opacity="0.35117328" stroke="rgb(0, 0, 0)" stroke-opacity="1.0" stroke-linecap="round" stroke-linejoin="round"/>
    <path d="M 185.74111938476562 393.5738830566406 C 182.69142150878906 422.6478576660156 170.5309600830078 451.4544372558594 166.20941162109375 454.6302490234375 C 148.81228637695312 459.33709716796875 127.98231506347656 466.2680969238281 118.8639907836914 441.3844299316406 C 124.49784851074219 373.38262939453125 135.86192321777344 381.4653015136719 165.215576171875 404.90899658203125 C 185.37173461914062 404.82537841796875 190.18638610839844 394.1793212890625 185.74111938476562 393.5738830566406" stroke-width="0.0" fill="rgb(246, 244, 245)" opacity="0.0029331413" stroke="rgb(0, 0, 0)" stroke-opacity="1.0" stroke-linecap="round" stroke-linejoin="round"/>
    <path d="M 175.1776580810547 244.62718200683594 C 185.098876953125 250.521484375 175.39111328125 240.54588317871094 181.4062957763672 248.65145874023438 C 170.83358764648438 259.396240234375 170.25303649902344 250.96543884277344 185.58663940429688 239.8330078125 C 188.2374725341797 245.0973663330078 181.14291381835938 249.4087371826172 188.23291015625 241.58177185058594 C 194.61614990234375 248.51028442382812 194.1914825439453 238.10281372070312 175.1776580810547 244.62718200683594" stroke-width="0.0" fill="rgb(167, 185, 118)" opacity="0.64822984" stroke="rgb(0, 0, 0)" stroke-opacity="1.0" stroke-linecap="round" stroke-linejoin="round"/>
    <path d="M 167.41551208496094 340.6734924316406 C 174.47056579589844 355.0696105957031 180.19224548339844 353.3958740234375 178.72813415527344 366.8445129394531 C 178.32691955566406 375.7156677246094 191.7169189453125 384.12353515625 192.4717254638672 365.4073791503906 C 184.9804229736328 344.6257019042969 196.0853271484375 333.5310363769531 175.2433624267578 315.6505126953125 C 162.8800506591797 348.388671875 178.92254638671875 348.08135986328125 167.41551208496094 340.6734924316406" stroke-width="0.0" fill="rgb(3, 3, 19)" opacity="1.0" stroke="rgb(0, 0, 0)" stroke-opacity="1.0" stroke-linecap="round" stroke-linejoin="round"/>
    <path d="M 82.36012268066406 431.5902404785156 C 77.60066223144531 452.777099609375 49.469112396240234 465.6546325683594 62.976783752441406 457.8370056152344 C 87.11448669433594 444.8856506347656 82.32274627685547 442.0294189453125 78.99671173095703 454.61700439453125 C 54.60248565673828 451.1037902832031 60.45519256591797 434.8701171875 65.41427612304688 432.6484069824219 C 88.51927947998047 430.4629821777344 82.51193237304688 423.78277587890625 82.36012268066406 431.5902404785156" stroke-width="0.0" fill="rgb(255, 247, 255)" opacity="0.013857251" stroke="rgb(0, 0, 0)" stroke-opacity="1.0" stroke-linecap="round" stroke-linejoin="round"/>
    <path d="M 473.4521789550781 449.5232849121094 C 460.3610534667969 478.7077331542969 456.37109375 493.458740234375 450.1102294921875 480.0043029785156 C 445.1366882324219 463.7442626953125 439.3515625 459.56805419921875 434.60516357421875 465.1918029785156 C 433.3742370605469 461.8084411621094 469.1634216308594 462.5605163574219 445.9583740234375 448.05462646484375 C 443.5969543457031 436.6112365722656 474.2932434082031 460.6866455078125 473.4521789550781 449.5232849121094" stroke-width="0.0" fill="rgb(255, 255, 226)" opacity="0.0" stroke="rgb(0, 0, 0)" stroke-opacity="1.0" stroke-linecap="round" stroke-linejoin="round"/>
    <path d="M 437.55224609375 382.7386169433594 C 473.87420654296875 378.3236083984375 465.1577453613281 385.93597412109375 442.211669921875 387.2069396972656 C 427.722900390625 385.102294921875 422.9828186035156 374.1347961425781 416.6814270019531 355.802001953125 C 417.3583679199219 340.2042541503906 419.2822570800781 330.7977600097656 443.154052734375 340.55267333984375 C 444.295166015625 342.8796691894531 435.533447265625 367.25067138671875 437.55224609375 382.7386169433594" stroke-width="0.0" fill="rgb(234, 200, 120)" opacity="0.021863647" stroke="rgb(0, 0, 0)" stroke-opacity="1.0" stroke-linecap="round" stroke-linejoin="round"/>
    <path d="M 27.857654571533203 114.78783416748047 C 44.87129592895508 129.91954040527344 31.684064865112305 148.05059814453125 10.274118423461914 164.66015625 C 5.019949436187744 127.04534912109375 6.398401737213135 116.15062713623047 -6.662881374359131 120.79508972167969 C -12.737786293029785 91.89649963378906 -8.632621765136719 80.46375274658203 13.217625617980957 98.85531616210938 C 38.809017181396484 106.77352905273438 35.492042541503906 104.42633819580078 27.857654571533203 114.78783416748047" stroke-width="0.0" fill="rgb(214, 250, 219)" opacity="0.0007622697" stroke="rgb(0, 0, 0)" stroke-opacity="1.0" stroke-linecap="round" stroke-linejoin="round"/>
    <path d="M 91.28387451171875 480.3107604980469 C 97.58961486816406 504.2788391113281 82.79472351074219 495.4555969238281 22.651222229003906 501.6194152832031 C 5.503285884857178 505.9903564453125 -23.480785369873047 517.82958984375 2.747710943222046 462.50299072265625 C 1.0517399311065674 407.40765380859375 -19.882204055786133 383.8099060058594 60.361019134521484 395.223876953125 C 51.18927764892578 446.6854248046875 55.670169830322266 459.4786682128906 91.28387451171875 480.3107604980469" stroke-width="0.0" fill="rgb(255, 255, 255)" opacity="0.0045289746" stroke="rgb(0, 0, 0)" stroke-opacity="1.0" stroke-linecap="round" stroke-linejoin="round"/>
    <path d="M 142.99923706054688 245.1320037841797 C 131.4761962890625 234.0311737060547 138.6868133544922 238.3101348876953 119.59422302246094 242.102294921875 C 124.26675415039062 245.2322235107422 115.08051300048828 235.39271545410156 143.12831115722656 248.39288330078125 C 133.85299682617188 220.09666442871094 129.65777587890625 246.41224670410156 127.53446960449219 231.6143341064453 C 135.25732421875 250.29931640625 139.49954223632812 247.17935180664062 142.99923706054688 245.1320037841797" stroke-width="0.0" fill="rgb(24, 182, 108)" opacity="0.58959407" stroke="rgb(0, 0, 0)" stroke-opacity="1.0" stroke-linecap="round" stroke-linejoin="round"/>
    <path d="M 320.22039794921875 73.50361633300781 C 326.2228088378906 122.49929809570312 284.8811950683594 124.7021255493164 245.2779998779297 61.29903793334961 C 256.437255859375 48.21027755737305 251.58187866210938 33.644474029541016 240.86268615722656 21.075542449951172 C 239.12692260742188 -28.628198623657227 227.3115997314453 -32.53310775756836 314.2949523925781 -55.23035430908203 C 324.8110046386719 -40.155662536621094 324.4009704589844 -2.3016273975372314 320.22039794921875 73.50361633300781" stroke-width="0.0" fill="rgb(108, 156, 151)" opacity="0.017203849" stroke="rgb(0, 0, 0)" stroke-opacity="1.0" stroke-linecap="round" stroke-linejoin="round"/>
    <path d="M 153.12242126464844 120.7142562866211 C 172.4110107421875 210.44322204589844 181.80487060546875 214.9451904296875 98.0639877319336 222.57611083984375 C 101.13915252685547 168.56619262695312 65.57784271240234 203.983642578125 46.45651626586914 161.75140380859375 C 86.54045104980469 133.8870391845703 96.94254302978516 129.21185302734375 113.53144073486328 79.69538116455078 C 150.50621032714844 86.56501770019531 131.40786743164062 104.7071304321289 153.12242126464844 120.7142562866211" stroke-width="0.0" fill="rgb(239, 159, 11)" opacity="0.4321319" stroke="rgb(0, 0, 0)" stroke-opacity="1.0" stroke-linecap="round" stroke-linejoin="round"/>
    <path d="M 472.7510986328125 234.4969482421875 C 450.31121826171875 229.56568908691406 439.3473205566406 240.75123596191406 444.873779296875 249.189453125 C 447.37554931640625 242.9940185546875 450.16314697265625 243.6502227783203 438.4617004394531 236.76141357421875 C 445.45501708984375 238.66017150878906 457.2842712402344 245.0170135498047 468.2248229980469 232.88858032226562 C 471.2272644042969 237.02896118164062 465.2686462402344 233.12330627441406 472.7510986328125 234.4969482421875" stroke-width="0.0" fill="rgb(5, 12, 6)" opacity="0.0" stroke="rgb(0, 0, 0)" stroke-opacity="1.0" stroke-linecap="round" stroke-linejoin="round"/>
    <path d="M 319.0934753417969 372.041748046875 C 342.86102294921875 401.7578430175781 348.4236145019531 391.8944091796875 343.2177734375 395.225830078125 C 293.0545959472656 399.8597717285156 314.3237609863281 423.15966796875 324.0968933105469 391.48712158203125 C 321.40777587890625 369.61676025390625 324.35394287109375 356.97760009765625 352.4206848144531 373.5182800292969 C 349.5326232910156 382.4801940917969 366.9465637207031 372.9227600097656 319.0934753417969 372.041748046875" stroke-width="0.0" fill="rgb(59, 141, 174)" opacity="0.0025126792" stroke="rgb(0, 0, 0)" stroke-opacity="1.0" stroke-linecap="round" stroke-linejoin="round"/>
    <path d="M 423.22918701171875 234.08245849609375 C 403.9038391113281 206.65975952148438 371.01251220703125 212.69183349609375 288.8023986816406 226.54248046875 C 279.3734436035156 140.5780487060547 301.53619384765625 159.31686401367188 362.0863952636719 203.7970733642578 C 287.9270935058594 215.6893768310547 268.76373291015625 176.54881286621094 316.399169921875 98.19601440429688 C 404.50518798828125 107.11209106445312 409.0306091308594 115.77876281738281 423.22918701171875 234.08245849609375" stroke-width="0.0" fill="rgb(215, 230, 8)" opacity="0.09112347" stroke="rgb(0, 0, 0)" stroke-opacity="1.0" stroke-linecap="round" stroke-linejoin="round"/>
    <path d="M 122.87277221679688 396.6562194824219 C 160.08201599121094 440.09967041015625 138.15280151367188 476.4222106933594 105.112548828125 501.19915771484375 C 64.18438720703125 473.68115234375 43.07472229003906 447.2001037597656 47.498939514160156 402.66064453125 C 22.854551315307617 382.3880310058594 66.5301513671875 402.9158935546875 93.7580795288086 418.6578369140625 C 88.63268280029297 442.14385986328125 74.59465789794922 425.62701416015625 122.87277221679688 396.6562194824219" stroke-width="0.0" fill="rgb(245, 244, 247)" opacity="0.0010219609" stroke="rgb(0, 0, 0)" stroke-opacity="1.0" stroke-linecap="round" stroke-linejoin="round"/>
    <path d="M 93.0075912475586 474.04437255859375 C 111.89176177978516 488.9989929199219 109.62203216552734 492.6822509765625 99.59416198730469 470.9568176269531 C 22.319679260253906 482.2174377441406 36.312625885009766 466.21142578125 52.476444244384766 425.6697082519531 C 44.169986724853516 410.1340637207031 59.621158599853516 417.3011169433594 84.99720764160156 446.64501953125 C 114.3315200805664 447.05718994140625 109.13136291503906 450.98486328125 93.0075912475586 474.04437255859375" stroke-width="0.0" fill="rgb(255, 255, 255)" opacity="0.14251977" stroke="rgb(0, 0, 0)" stroke-opacity="1.0" stroke-linecap="round" stroke-linejoin="round"/>
  </g>
</svg>
