<?xml version="1.0" ?>
<svg xmlns="http://www.w3.org/2000/svg" version="1.1" width="512" height="512">
  <defs/>
  <g>
    <path d="M 529.8330688476562 423.0445251464844 C 547.8762817382812 517.3806762695312 549.523193359375 525.7646484375 349.35101318359375 562.2217407226562 C 274.1158142089844 579.27685546875 251.6951446533203 575.0006713867188 177.83518981933594 463.3401794433594 C 282.6618347167969 277.697265625 350.77734375 318.6352844238281 423.05755615234375 295.6460876464844 C 553.2603149414062 335.33935546875 550.6727294921875 346.9043273925781 529.8330688476562 423.0445251464844" stroke-width="0.0" fill="rgb(200, 104, 54)" opacity="0.19944625" stroke="rgb(0, 0, 0)" stroke-opacity="1.0" stroke-linecap="round" stroke-linejoin="round"/>
    <path d="M 243.01937866210938 343.1005554199219 C 192.16653442382812 395.8237609863281 212.16632080078125 451.2625732421875 209.97894287109375 543.9457397460938 C -51.20000076293945 524.0781860351562 -51.20000076293945 515.5620727539062 -44.78773880004883 411.1958923339844 C -30.052278518676758 196.84115600585938 -26.306760787963867 199.1218719482422 64.10652160644531 195.22314453125 C 230.387939453125 208.26063537597656 244.02732849121094 211.83856201171875 243.01937866210938 343.1005554199219" stroke-width="0.0" fill="rgb(70, 70, 112)" opacity="0.84045404" stroke="rgb(0, 0, 0)" stroke-opacity="1.0" stroke-linecap="round" stroke-linejoin="round"/>
    <path d="M 244.93849182128906 -26.908472061157227 C 150.146240234375 154.68704223632812 168.984130859375 197.5037841796875 22.285953521728516 326.2093200683594 C -94.45989227294922 286.6224670410156 -74.2520751953125 240.77671813964844 -71.0317611694336 165.6129608154297 C -15.812456130981445 -17.697975158691406 -9.716771125793457 -23.272192001342773 27.615015029907227 -17.582897186279297 C 195.79283142089844 -21.859926223754883 231.64715576171875 -39.381500244140625 244.93849182128906 -26.908472061157227" stroke-width="0.0" fill="rgb(0, 36, 173)" opacity="1.0" stroke="rgb(0, 0, 0)" stroke-opacity="1.0" stroke-linecap="round" stroke-linejoin="round"/>
    <path d="M 559.599853515625 125.328369140625 C 476.9803771972656 304.54241943359375 453.0416259765625 295.490966796875 326.37506103515625 294.11297607421875 C 241.7736053466797 364.9030456542969 289.106689453125 335.4751281738281 188.13998413085938 166.81869506835938 C 266.263916015625 135.14781188964844 234.3319091796875 86.12129211425781 286.2823486328125 -39.96900177001953 C 563.2000122070312 -12.327669143676758 556.7141723632812 3.000692367553711 559.599853515625 125.328369140625" stroke-width="0.0" fill="rgb(47, 67, 130)" opacity="0.6858954" stroke="rgb(0, 0, 0)" stroke-opacity="1.0" stroke-linecap="round" stroke-linejoin="round"/>
    <path d="M 372.16009521484375 40.75568771362305 C 196.28675842285156 240.2883758544922 220.13465881347656 291.16595458984375 214.04022216796875 231.84300231933594 C 55.1699333190918 263.04034423828125 103.20536041259766 272.0788879394531 46.9433708190918 172.2747039794922 C 51.788665771484375 121.01875305175781 107.69740295410156 154.74252319335938 282.1971435546875 13.158434867858887 C 325.5603332519531 -18.20516014099121 355.0634765625 -8.337032318115234 372.16009521484375 40.75568771362305" stroke-width="0.0" fill="rgb(18, 4, 168)" opacity="0.23654804" stroke="rgb(0, 0, 0)" stroke-opacity="1.0" stroke-linecap="round" stroke-linejoin="round"/>
    <path d="M 433.50274658203125 323.4261474609375 C 432.1243591308594 384.85906982421875 428.8650207519531 409.0982360839844 184.17066955566406 422.2297058105469 C 194.64515686035156 459.9535217285156 211.6389923095703 447.5296936035156 121.43437957763672 377.0022888183594 C 89.95683288574219 123.05021667480469 192.0267333984375 149.66976928710938 336.1611022949219 198.87286376953125 C 416.9211730957031 267.6467590332031 448.5126953125 230.6575469970703 433.50274658203125 323.4261474609375" stroke-width="0.0" fill="rgb(118, 86, 118)" opacity="0.82172084" stroke="rgb(0, 0, 0)" stroke-opacity="1.0" stroke-linecap="round" stroke-linejoin="round"/>
    <path d="M 532.7802124023438 283.33746337890625 C 564.273681640625 349.34051513671875 572.4755249023438 343.84478759765625 433.8482666015625 325.0281066894531 C 258.66278076171875 339.6839294433594 280.6349792480469 349.0509948730469 425.92877197265625 161.74693298339844 C 418.51556396484375 7.296987056732178 236.1792449951172 5.731471061706543 451.2865905761719 -16.493749618530273 C 541.7899169921875 62.51923370361328 550.633544921875 98.69027709960938 532.7802124023438 283.33746337890625" stroke-width="0.0" fill="rgb(83, 192, 21)" opacity="1.0" stroke="rgb(0, 0, 0)" stroke-opacity="1.0" stroke-linecap="round" stroke-linejoin="round"/>
    <path d="M 346.5032043457031 296.92547607421875 C 255.96714782714844 311.84991455078125 352.5270080566406 301.3284912109375 256.54962158203125 337.1045227050781 C 185.7067413330078 402.08111572265625 152.9904327392578 329.5830078125 269.01385498046875 215.92266845703125 C 240.19473266601562 216.46478271484375 69.031982421875 214.5807647705078 290.6859436035156 216.04750061035156 C 342.6102294921875 108.3163833618164 402.83343505859375 157.83518981933594 346.5032043457031 296.92547607421875" stroke-width="0.0" fill="rgb(254, 226, 217)" opacity="0.997973" stroke="rgb(0, 0, 0)" stroke-opacity="1.0" stroke-linecap="round" stroke-linejoin="round"/>
    <path d="M 471.07757568359375 171.79823303222656 C 429.2326354980469 283.3519592285156 357.77197265625 215.39894104003906 358.5177001953125 283.627685546875 C 379.7045593261719 241.84042358398438 319.19915771484375 209.91732788085938 359.1470947265625 157.5333251953125 C 386.0818176269531 218.96261596679688 340.51971435546875 169.76319885253906 363.04266357421875 146.63455200195312 C 461.7200927734375 29.204238891601562 460.4815368652344 -50.359291076660156 471.07757568359375 171.79823303222656" stroke-width="0.0" fill="rgb(255, 223, 215)" opacity="1.0" stroke="rgb(0, 0, 0)" stroke-opacity="1.0" stroke-linecap="round" stroke-linejoin="round"/>
    <path d="M 244.1187744140625 239.57260131835938 C 175.76242065429688 216.09898376464844 231.7946319580078 256.08673095703125 110.40934753417969 397.2772216796875 C 84.71167755126953 382.7855224609375 188.29275512695312 283.9285888671875 176.14222717285156 255.13577270507812 C 196.02890014648438 242.826416015625 177.22909545898438 261.13885498046875 234.5746612548828 215.51695251464844 C 389.5072326660156 217.04306030273438 268.4670715332031 226.32859802246094 244.1187744140625 239.57260131835938" stroke-width="0.0" fill="rgb(255, 236, 216)" opacity="1.0" stroke="rgb(0, 0, 0)" stroke-opacity="1.0" stroke-linecap="round" stroke-linejoin="round"/>
    <path d="M 422.3468322753906 327.8533935546875 C 375.163818359375 287.9714660644531 333.15814208984375 290.7807922363281 345.8638916015625 409.5092468261719 C 218.85789489746094 355.4301452636719 250.1912384033203 352.9082946777344 295.72796630859375 257.9796447753906 C 346.1734313964844 225.3133087158203 346.9930725097656 189.8353271484375 453.4769592285156 119.87496185302734 C 550.7835693359375 173.7012481689453 401.32830810546875 185.77206420898438 422.3468322753906 327.8533935546875" stroke-width="0.0" fill="rgb(96, 193, 25)" opacity="0.96660846" stroke="rgb(0, 0, 0)" stroke-opacity="1.0" stroke-linecap="round" stroke-linejoin="round"/>
    <path d="M 263.66680908203125 327.10687255859375 C 200.42068481445312 388.6649475097656 177.07376098632812 422.31536865234375 197.8767547607422 430.33050537109375 C 102.29922485351562 432.6734924316406 88.99881744384766 426.8021240234375 86.27892303466797 335.36883544921875 C 138.9986114501953 363.30120849609375 158.20016479492188 379.4643859863281 199.88616943359375 312.5321044921875 C 242.8465118408203 215.63999938964844 241.78802490234375 184.917236328125 263.66680908203125 327.10687255859375" stroke-width="0.0" fill="rgb(254, 238, 196)" opacity="0.9894329" stroke="rgb(0, 0, 0)" stroke-opacity="1.0" stroke-linecap="round" stroke-linejoin="round"/>
    <path d="M 547.36474609375 36.69603729248047 C 546.8214111328125 101.14716339111328 563.2000122070312 131.33303833007812 519.27294921875 148.17593383789062 C 394.5797424316406 88.64387512207031 453.25860595703125 24.280941009521484 302.9166564941406 112.18234252929688 C 255.0845489501953 -27.469152450561523 336.3172912597656 -41.510860443115234 429.1189270019531 -36.798458099365234 C 541.44287109375 -11.839082717895508 540.9603881835938 -2.2575111389160156 547.36474609375 36.69603729248047" stroke-width="0.0" fill="rgb(0, 32, 187)" opacity="1.0" stroke="rgb(0, 0, 0)" stroke-opacity="1.0" stroke-linecap="round" stroke-linejoin="round"/>
    <path d="M 350.9931640625 445.81787109375 C 361.52801513671875 443.0408630371094 321.97674560546875 430.06072998046875 248.9036102294922 443.503173828125 C 207.35467529296875 437.6142883300781 190.71298217773438 438.8616027832031 165.41323852539062 442.7621765136719 C 203.34112548828125 367.6448669433594 221.89674377441406 343.7574768066406 263.152587890625 400.46771240234375 C 314.26983642578125 375.9260559082031 337.19488525390625 396.5621643066406 350.9931640625 445.81787109375" stroke-width="0.0" fill="rgb(64, 196, 26)" opacity="0.95167816" stroke="rgb(0, 0, 0)" stroke-opacity="1.0" stroke-linecap="round" stroke-linejoin="round"/>
    <path d="M 271.6873779296875 226.31639099121094 C 239.6746063232422 183.00413513183594 239.96583557128906 250.7517547607422 176.3519287109375 353.5439453125 C 51.19614791870117 452.21630859375 204.24258422851562 304.24749755859375 198.94956970214844 288.7557067871094 C 231.91195678710938 216.5032196044922 155.68106079101562 245.5986328125 218.87257385253906 228.33274841308594 C 253.08847045898438 210.94688415527344 253.50137329101562 184.7072296142578 271.6873779296875 226.31639099121094" stroke-width="0.0" fill="rgb(16, 94, 156)" opacity="0.57529265" stroke="rgb(0, 0, 0)" stroke-opacity="1.0" stroke-linecap="round" stroke-linejoin="round"/>
    <path d="M 370.8433837890625 6.457439422607422 C 326.0125732421875 168.40130615234375 311.83197021484375 220.2814178466797 223.3675994873047 146.79519653320312 C 181.83705139160156 54.9503288269043 174.89942932128906 133.99322509765625 148.06915283203125 94.67813873291016 C 194.21372985839844 37.76972579956055 210.03285217285156 42.07503890991211 204.95687866210938 6.497318267822266 C 211.23194885253906 -51.168392181396484 300.82147216796875 -100.7435302734375 370.8433837890625 6.457439422607422" stroke-width="0.0" fill="rgb(0, 35, 177)" opacity="1.0" stroke="rgb(0, 0, 0)" stroke-opacity="1.0" stroke-linecap="round" stroke-linejoin="round"/>
    <path d="M 58.11412048339844 438.6214904785156 C 48.692325592041016 443.5069885253906 85.8716049194336 464.1823425292969 49.36449432373047 484.034912109375 C -23.02353858947754 480.3815002441406 -6.201546669006348 455.3295593261719 -8.85189151763916 391.3376159667969 C -6.801296234130859 371.2034912109375 -7.554815292358398 350.1311340332031 45.39384841918945 317.08587646484375 C 94.62217712402344 324.2237854003906 66.52095794677734 333.84228515625 58.11412048339844 438.6214904785156" stroke-width="0.0" fill="rgb(50, 173, 21)" opacity="0.878515" stroke="rgb(0, 0, 0)" stroke-opacity="1.0" stroke-linecap="round" stroke-linejoin="round"/>
    <path d="M 381.6329040527344 131.6723175048828 C 370.623779296875 132.83865356445312 328.793701171875 171.67605590820312 298.75201416015625 195.210693359375 C 162.32766723632812 100.93475341796875 26.021699905395508 366.3314514160156 182.15499877929688 124.47086334228516 C 336.2216491699219 215.3791046142578 265.4849548339844 174.22483825683594 364.1394958496094 107.54685974121094 C 361.422119140625 115.7533950805664 365.7514343261719 90.4256820678711 381.6329040527344 131.6723175048828" stroke-width="0.0" fill="rgb(52, 157, 53)" opacity="0.98365355" stroke="rgb(0, 0, 0)" stroke-opacity="1.0" stroke-linecap="round" stroke-linejoin="round"/>
    <path d="M 360.6967468261719 261.8504638671875 C 294.3953857421875 203.13931274414062 240.51153564453125 310.7932434082031 234.1353759765625 339.11175537109375 C 251.1293182373047 350.8580017089844 252.76608276367188 316.5851745605469 214.97207641601562 328.2490539550781 C 151.9586639404297 463.0931396484375 183.12962341308594 384.01422119140625 271.25274658203125 373.4541320800781 C 267.16400146484375 351.4678955078125 269.37310791015625 384.25592041015625 360.6967468261719 261.8504638671875" stroke-width="0.0" fill="rgb(94, 190, 31)" opacity="0.97446364" stroke="rgb(0, 0, 0)" stroke-opacity="1.0" stroke-linecap="round" stroke-linejoin="round"/>
    <path d="M 397.81280517578125 158.34072875976562 C 378.0578308105469 88.79728698730469 357.8390808105469 119.71031951904297 361.26495361328125 148.2670440673828 C 361.4198303222656 128.7045440673828 355.9261474609375 138.5940399169922 349.72418212890625 197.1134796142578 C 351.2056579589844 222.40597534179688 351.2187805175781 152.43272399902344 344.4602966308594 181.5389404296875 C 344.6371154785156 224.20677185058594 344.8370361328125 245.6573486328125 397.81280517578125 158.34072875976562" stroke-width="0.0" fill="rgb(247, 210, 228)" opacity="0.8538991" stroke="rgb(0, 0, 0)" stroke-opacity="1.0" stroke-linecap="round" stroke-linejoin="round"/>
    <path d="M 179.40188598632812 225.30641174316406 C 81.45301818847656 333.4571228027344 91.61243438720703 254.50364685058594 57.46586990356445 401.23431396484375 C 100.15399169921875 318.5535583496094 66.41535186767578 303.6914367675781 56.37276840209961 223.16424560546875 C 99.85879516601562 305.767822265625 59.870452880859375 298.3670959472656 117.06061553955078 266.57635498046875 C 3.113562822341919 178.31158447265625 250.0142822265625 196.03370666503906 179.40188598632812 225.30641174316406" stroke-width="0.0" fill="rgb(147, 49, 167)" opacity="0.01711467" stroke="rgb(0, 0, 0)" stroke-opacity="1.0" stroke-linecap="round" stroke-linejoin="round"/>
    <path d="M 309.4565734863281 200.08009338378906 C 301.3774108886719 265.0096435546875 248.44308471679688 279.67132568359375 254.89297485351562 189.14791870117188 C 282.3594055175781 176.70468139648438 135.4917755126953 183.213134765625 214.42715454101562 180.98486328125 C 291.8032531738281 189.513671875 311.88055419921875 198.11891174316406 289.1287536621094 185.28309631347656 C 297.62603759765625 205.45822143554688 307.0605773925781 162.26809692382812 309.4565734863281 200.08009338378906" stroke-width="0.0" fill="rgb(250, 222, 208)" opacity="0.9502976" stroke="rgb(0, 0, 0)" stroke-opacity="1.0" stroke-linecap="round" stroke-linejoin="round"/>
    <path d="M 172.28797912597656 286.0278015136719 C 128.61630249023438 353.831298828125 115.94587707519531 372.9444274902344 63.86622619628906 366.9958190917969 C 71.87191009521484 331.2036437988281 70.47726440429688 312.23980712890625 60.60398483276367 318.15631103515625 C 73.74951934814453 316.43316650390625 84.32076263427734 291.2078552246094 85.43697357177734 267.25042724609375 C 70.78202819824219 302.2491149902344 83.5118637084961 286.1665954589844 172.28797912597656 286.0278015136719" stroke-width="0.0" fill="rgb(22, 179, 17)" opacity="0.918219" stroke="rgb(0, 0, 0)" stroke-opacity="1.0" stroke-linecap="round" stroke-linejoin="round"/>
    <path d="M 176.6074981689453 268.3646240234375 C 91.6533203125 330.9121398925781 115.83772277832031 278.2125244140625 54.06603240966797 283.9177551269531 C 80.06629943847656 343.08941650390625 65.18425750732422 318.4864196777344 65.36048889160156 331.7236328125 C 47.63304138183594 248.81695556640625 23.811643600463867 311.1828918457031 75.05440521240234 230.81285095214844 C 123.6328125 229.60595703125 185.77134704589844 176.6273956298828 176.6074981689453 268.3646240234375" stroke-width="0.0" fill="rgb(0, 32, 166)" opacity="0.98921156" stroke="rgb(0, 0, 0)" stroke-opacity="1.0" stroke-linecap="round" stroke-linejoin="round"/>
    <path d="M 256.23443603515625 232.8384246826172 C 253.43057250976562 274.3992614746094 270.1635437011719 287.5035095214844 254.6734619140625 331.0076599121094 C 240.55117797851562 257.2013244628906 246.38510131835938 213.12867736816406 243.35987854003906 216.00634765625 C 258.6671447753906 214.60653686523438 254.64056396484375 231.00396728515625 248.75210571289062 224.34320068359375 C 235.21749877929688 221.71820068359375 248.74447631835938 237.3413543701172 256.23443603515625 232.8384246826172" stroke-width="0.0" fill="rgb(146, 168, 195)" opacity="0.48858786" stroke="rgb(0, 0, 0)" stroke-opacity="1.0" stroke-linecap="round" stroke-linejoin="round"/>
    <path d="M 276.5332336425781 112.62203979492188 C 266.05584716796875 191.145751953125 342.9165954589844 202.2264862060547 189.22398376464844 200.1768341064453 C 192.33155822753906 266.0743408203125 33.40843200683594 236.27149963378906 159.92153930664062 144.11495971679688 C 179.15953063964844 93.45355224609375 240.58277893066406 120.79460906982422 228.69583129882812 123.79379272460938 C 224.04342651367188 102.91218566894531 246.7047119140625 103.10310363769531 276.5332336425781 112.62203979492188" stroke-width="0.0" fill="rgb(0, 16, 192)" opacity="1.0" stroke="rgb(0, 0, 0)" stroke-opacity="1.0" stroke-linecap="round" stroke-linejoin="round"/>
    <path d="M 304.468994140625 224.6056365966797 C 307.1911315917969 188.6464385986328 285.2677001953125 212.75119018554688 303.6871643066406 216.20172119140625 C 295.11407470703125 204.14108276367188 301.85565185546875 191.04852294921875 288.61309814453125 215.2521514892578 C 261.521728515625 190.07363891601562 253.1558837890625 228.35191345214844 322.9790954589844 196.34275817871094 C 334.9706726074219 282.0873107910156 317.83062744140625 111.0528335571289 304.468994140625 224.6056365966797" stroke-width="0.0" fill="rgb(254, 34, 108)" opacity="0.15428968" stroke="rgb(0, 0, 0)" stroke-opacity="1.0" stroke-linecap="round" stroke-linejoin="round"/>
    <path d="M 295.7029724121094 427.7210388183594 C 282.24127197265625 422.5245056152344 268.1137390136719 410.7023620605469 187.90528869628906 428.9920959472656 C 220.9920654296875 456.19329833984375 215.3485107421875 444.4510192871094 117.9048080444336 433.0412902832031 C 192.25088500976562 437.9259338378906 227.8931884765625 418.6272277832031 237.78915405273438 416.2815246582031 C 251.0268096923828 417.6003723144531 270.6474304199219 406.3095703125 295.7029724121094 427.7210388183594" stroke-width="0.0" fill="rgb(215, 39, 163)" opacity="0.08182052" stroke="rgb(0, 0, 0)" stroke-opacity="1.0" stroke-linecap="round" stroke-linejoin="round"/>
    <path d="M 134.46864318847656 174.49339294433594 C 212.2415771484375 168.08261108398438 203.906982421875 190.38169860839844 191.8935089111328 245.4510498046875 C 83.8598403930664 227.5100860595703 101.44014739990234 232.50491333007812 112.44216918945312 202.73374938964844 C 143.04440307617188 200.98504638671875 150.82296752929688 214.1099090576172 136.62831115722656 182.10653686523438 C 130.7303924560547 173.02792358398438 123.05474090576172 187.81724548339844 134.46864318847656 174.49339294433594" stroke-width="0.0" fill="rgb(0, 25, 181)" opacity="0.99997157" stroke="rgb(0, 0, 0)" stroke-opacity="1.0" stroke-linecap="round" stroke-linejoin="round"/>
    <path d="M 127.08609008789062 304.1330871582031 C 106.6041030883789 309.5645446777344 107.68920135498047 333.8227844238281 81.7195816040039 328.1194763183594 C 32.28200149536133 366.36126708984375 59.67694091796875 335.8038635253906 -8.536479949951172 344.9516296386719 C 3.6327431201934814 258.8221130371094 44.97285079956055 265.4250793457031 82.02438354492188 258.8363952636719 C 121.81333923339844 278.65740966796875 150.40597534179688 276.58050537109375 127.08609008789062 304.1330871582031" stroke-width="0.0" fill="rgb(0, 39, 168)" opacity="0.9989227" stroke="rgb(0, 0, 0)" stroke-opacity="1.0" stroke-linecap="round" stroke-linejoin="round"/>
    <path d="M 304.0911865234375 440.735107421875 C 298.0497741699219 436.9673767089844 257.8248291015625 438.8774719238281 266.4897766113281 444.05047607421875 C 268.7395935058594 409.5009765625 259.80706787109375 394.3966979980469 266.7574462890625 403.2183532714844 C 282.2094421386719 405.3399658203125 283.1014404296875 392.78668212890625 293.8231506347656 390.9991455078125 C 297.998291015625 389.584716796875 297.5004577636719 405.79425048828125 304.0911865234375 440.735107421875" stroke-width="0.0" fill="rgb(46, 131, 38)" opacity="0.50121444" stroke="rgb(0, 0, 0)" stroke-opacity="1.0" stroke-linecap="round" stroke-linejoin="round"/>
    <path d="M 414.8647766113281 446.6993408203125 C 400.70587158203125 462.89459228515625 392.6421813964844 472.029541015625 404.3230285644531 453.4924621582031 C 403.67779541015625 443.88714599609375 372.7884826660156 442.7677307128906 383.7826232910156 446.3310546875 C 401.62567138671875 448.54339599609375 389.5118103027344 415.3069152832031 390.7654724121094 400.9555969238281 C 430.19500732421875 414.6779479980469 431.2696533203125 434.7947082519531 414.8647766113281 446.6993408203125" stroke-width="0.0" fill="rgb(254, 243, 198)" opacity="0.018155942" stroke="rgb(0, 0, 0)" stroke-opacity="1.0" stroke-linecap="round" stroke-linejoin="round"/>
    <path d="M 323.3172912597656 386.035888671875 C 311.4314880371094 423.90478515625 300.3679504394531 424.0655212402344 256.27874755859375 419.8492736816406 C 270.20281982421875 425.9140319824219 230.76499938964844 403.56658935546875 236.2187042236328 365.8847351074219 C 228.73802185058594 325.1573181152344 218.82754516601562 310.3024597167969 275.7673034667969 332.35400390625 C 304.1177062988281 342.2945861816406 324.1105651855469 341.8634948730469 323.3172912597656 386.035888671875" stroke-width="0.0" fill="rgb(67, 181, 26)" opacity="0.8899926" stroke="rgb(0, 0, 0)" stroke-opacity="1.0" stroke-linecap="round" stroke-linejoin="round"/>
    <path d="M 352.1732482910156 101.20191192626953 C 264.21826171875 129.04786682128906 292.1922302246094 119.24246978759766 278.54193115234375 114.12503814697266 C 266.38311767578125 122.76836395263672 295.332763671875 115.28939056396484 291.5028381347656 118.837158203125 C 292.5381774902344 128.1402130126953 319.3984069824219 123.56880950927734 321.39080810546875 121.41814422607422 C 333.6435241699219 119.55628204345703 366.5165100097656 92.10572814941406 352.1732482910156 101.20191192626953" stroke-width="0.0" fill="rgb(66, 34, 178)" opacity="0.0" stroke="rgb(0, 0, 0)" stroke-opacity="1.0" stroke-linecap="round" stroke-linejoin="round"/>
    <path d="M 354.4332275390625 409.12384033203125 C 290.6507568359375 441.54443359375 307.1647033691406 439.7118835449219 303.4930114746094 417.861083984375 C 324.9287414550781 440.6502990722656 299.9317321777344 430.329833984375 278.9781188964844 413.8894348144531 C 293.6176452636719 402.21258544921875 316.8208923339844 413.698974609375 315.2533264160156 387.6858825683594 C 350.2091369628906 378.86297607421875 367.875244140625 371.614990234375 354.4332275390625 409.12384033203125" stroke-width="0.0" fill="rgb(98, 113, 143)" opacity="0.9467318" stroke="rgb(0, 0, 0)" stroke-opacity="1.0" stroke-linecap="round" stroke-linejoin="round"/>
    <path d="M 418.84967041015625 70.3576431274414 C 437.16094970703125 49.360260009765625 385.3833312988281 63.3030891418457 410.0404968261719 70.90724182128906 C 391.3194274902344 98.78456115722656 350.5653991699219 82.55580139160156 343.3778991699219 94.26280975341797 C 348.1788330078125 39.18194580078125 332.1293029785156 70.97559356689453 388.2283020019531 51.65855026245117 C 394.0462951660156 76.07550811767578 383.92315673828125 111.00784301757812 418.84967041015625 70.3576431274414" stroke-width="0.0" fill="rgb(151, 132, 120)" opacity="0.9121846" stroke="rgb(0, 0, 0)" stroke-opacity="1.0" stroke-linecap="round" stroke-linejoin="round"/>
    <path d="M 54.69676208496094 475.6882629394531 C 55.336387634277344 513.6014404296875 54.395816802978516 521.2815551757812 51.57601547241211 531.070556640625 C 45.520042419433594 493.95318603515625 40.89561462402344 486.256591796875 38.06784439086914 441.4490051269531 C 10.126758575439453 427.17572021484375 4.690788269042969 391.60614013671875 41.06646728515625 389.9074401855469 C 73.43582916259766 409.32476806640625 54.19105911254883 422.1020202636719 54.69676208496094 475.6882629394531" stroke-width="0.0" fill="rgb(59, 222, 6)" opacity="0.8551656" stroke="rgb(0, 0, 0)" stroke-opacity="1.0" stroke-linecap="round" stroke-linejoin="round"/>
    <path d="M 185.49537658691406 390.5091857910156 C 201.4522247314453 389.5905456542969 187.08358764648438 393.3088684082031 175.3051300048828 417.7233581542969 C 140.53646850585938 431.6874694824219 147.4158172607422 398.81475830078125 144.22073364257812 373.54949951171875 C 141.8294219970703 357.2632141113281 172.73629760742188 359.3831481933594 204.09193420410156 298.3094482421875 C 214.24440002441406 340.7333679199219 188.4046173095703 346.58380126953125 185.49537658691406 390.5091857910156" stroke-width="0.0" fill="rgb(255, 235, 219)" opacity="0.09361475" stroke="rgb(0, 0, 0)" stroke-opacity="1.0" stroke-linecap="round" stroke-linejoin="round"/>
    <path d="M 196.0151824951172 232.5983123779297 C 183.9968719482422 269.6778869628906 171.36410522460938 279.41986083984375 158.78338623046875 311.545654296875 C 137.05496215820312 290.07403564453125 135.37730407714844 289.4170837402344 154.53196716308594 274.2137145996094 C 152.4138946533203 261.9408874511719 188.55848693847656 251.8965606689453 202.85458374023438 213.95765686035156 C 213.39056396484375 229.34054565429688 212.1880340576172 256.15997314453125 196.0151824951172 232.5983123779297" stroke-width="0.0" fill="rgb(37, 160, 38)" opacity="0.949218" stroke="rgb(0, 0, 0)" stroke-opacity="1.0" stroke-linecap="round" stroke-linejoin="round"/>
    <path d="M 12.578344345092773 439.9359436035156 C 16.29427719116211 458.1623840332031 27.810758590698242 490.9378662109375 23.848154067993164 541.9458618164062 C -11.231096267700195 516.8573608398438 -19.370819091796875 508.7378234863281 -15.661179542541504 482.2021789550781 C -15.359238624572754 434.1756286621094 -25.80633544921875 403.7198791503906 -8.445865631103516 410.3371887207031 C 14.324342727661133 450.876708984375 7.540276050567627 445.15692138671875 12.578344345092773 439.9359436035156" stroke-width="0.0" fill="rgb(57, 159, 29)" opacity="0.8215534" stroke="rgb(0, 0, 0)" stroke-opacity="1.0" stroke-linecap="round" stroke-linejoin="round"/>
    <path d="M 255.72998046875 67.65959930419922 C 269.890625 117.08104705810547 246.5242919921875 145.25926208496094 206.7266082763672 181.18104553222656 C 138.85498046875 132.2512969970703 156.78343200683594 108.01773834228516 154.9687042236328 102.49554443359375 C 144.27883911132812 81.82559204101562 154.08511352539062 55.286163330078125 165.10751342773438 65.02998352050781 C 175.69793701171875 34.483604431152344 228.73768615722656 15.420166015625 255.72998046875 67.65959930419922" stroke-width="0.0" fill="rgb(255, 251, 0)" opacity="1.0" stroke="rgb(0, 0, 0)" stroke-opacity="1.0" stroke-linecap="round" stroke-linejoin="round"/>
    <path d="M 246.42718505859375 462.4574279785156 C 254.77557373046875 456.9516906738281 241.59088134765625 467.6522521972656 255.01451110839844 477.6319580078125 C 219.00372314453125 475.5503845214844 219.20993041992188 476.83538818359375 233.4842987060547 476.7457275390625 C 229.86155700683594 441.78375244140625 223.79229736328125 430.6727294921875 244.50015258789062 424.80926513671875 C 260.2678527832031 433.40228271484375 259.9767150878906 484.40985107421875 246.42718505859375 462.4574279785156" stroke-width="0.0" fill="rgb(255, 119, 254)" opacity="0.0" stroke="rgb(0, 0, 0)" stroke-opacity="1.0" stroke-linecap="round" stroke-linejoin="round"/>
    <path d="M 370.236572265625 496.44342041015625 C 366.6297912597656 508.2077331542969 325.5576171875 478.3882141113281 324.82281494140625 477.61151123046875 C 329.7373352050781 505.07427978515625 311.60833740234375 487.4317321777344 287.859619140625 471.9429016113281 C 314.7464904785156 459.16448974609375 340.3616943359375 459.0509948730469 349.2401123046875 467.2780456542969 C 376.410400390625 445.557373046875 373.4637756347656 444.8380126953125 370.236572265625 496.44342041015625" stroke-width="0.0" fill="rgb(253, 211, 232)" opacity="0.0" stroke="rgb(0, 0, 0)" stroke-opacity="1.0" stroke-linecap="round" stroke-linejoin="round"/>
    <path d="M 336.1908264160156 222.2295684814453 C 340.6271057128906 230.34942626953125 343.3837890625 240.5399627685547 319.1910400390625 236.0049285888672 C 320.0239562988281 236.6268310546875 309.3119812011719 245.01864624023438 289.23797607421875 221.2418975830078 C 299.63885498046875 224.6275634765625 318.0621032714844 212.08726501464844 331.7608642578125 192.65966796875 C 327.8523254394531 204.55752563476562 341.47003173828125 225.90269470214844 336.1908264160156 222.2295684814453" stroke-width="0.0" fill="rgb(254, 222, 231)" opacity="0.71803325" stroke="rgb(0, 0, 0)" stroke-opacity="1.0" stroke-linecap="round" stroke-linejoin="round"/>
    <path d="M 515.878173828125 404.831298828125 C 552.926513671875 445.3924255371094 548.0709228515625 507.7231140136719 482.29400634765625 520.977783203125 C 434.4845275878906 500.1195373535156 441.71136474609375 470.5626220703125 439.5929260253906 432.9079284667969 C 452.6502380371094 406.6398010253906 457.4695739746094 410.6953430175781 462.7173156738281 405.1944274902344 C 474.6318359375 394.78961181640625 497.9058532714844 387.4534606933594 515.878173828125 404.831298828125" stroke-width="0.0" fill="rgb(90, 206, 0)" opacity="0.9598401" stroke="rgb(0, 0, 0)" stroke-opacity="1.0" stroke-linecap="round" stroke-linejoin="round"/>
    <path d="M 184.14234924316406 444.36126708984375 C 188.95205688476562 465.6839599609375 171.9134063720703 482.42425537109375 185.7063751220703 436.1544189453125 C 139.13800048828125 453.97515869140625 128.12225341796875 446.23736572265625 134.48577880859375 429.0462951660156 C 176.11740112304688 414.0011901855469 174.30828857421875 383.91558837890625 198.37640380859375 392.4053649902344 C 199.84170532226562 391.5470886230469 221.97296142578125 404.736083984375 184.14234924316406 444.36126708984375" stroke-width="0.0" fill="rgb(87, 226, 3)" opacity="1.0" stroke="rgb(0, 0, 0)" stroke-opacity="1.0" stroke-linecap="round" stroke-linejoin="round"/>
    <path d="M 331.1989440917969 428.4906921386719 C 297.2198486328125 438.1023254394531 316.6222229003906 489.4953308105469 303.5728454589844 451.578857421875 C 255.63751220703125 439.5104675292969 220.97921752929688 457.00604248046875 247.41148376464844 414.7445373535156 C 265.9942321777344 397.36004638671875 280.4358215332031 374.1260070800781 322.9030456542969 388.10491943359375 C 351.9324645996094 387.0052795410156 363.619140625 391.3039855957031 331.1989440917969 428.4906921386719" stroke-width="0.0" fill="rgb(52, 165, 70)" opacity="0.93194294" stroke="rgb(0, 0, 0)" stroke-opacity="1.0" stroke-linecap="round" stroke-linejoin="round"/>
    <path d="M 408.27447509765625 384.99395751953125 C 402.49920654296875 392.1478271484375 426.164306640625 439.00848388671875 395.40106201171875 392.2071533203125 C 351.53924560546875 422.7928466796875 328.3035583496094 433.4410400390625 342.6461486816406 374.9184265136719 C 408.00433349609375 379.1517333984375 415.6072692871094 398.2593688964844 395.44989013671875 386.5693664550781 C 408.7337341308594 387.4455261230469 417.1834411621094 378.43939208984375 408.27447509765625 384.99395751953125" stroke-width="0.0" fill="rgb(91, 101, 170)" opacity="1.0" stroke="rgb(0, 0, 0)" stroke-opacity="1.0" stroke-linecap="round" stroke-linejoin="round"/>
    <path d="M 340.0821533203125 384.7751159667969 C 340.1954040527344 421.65679931640625 342.77203369140625 414.8829040527344 331.7865295410156 421.0444030761719 C 319.0796203613281 402.8387451171875 305.3031005859375 404.463623046875 310.48333740234375 383.4855041503906 C 319.3465881347656 378.03387451171875 340.85858154296875 374.2047119140625 344.8407287597656 372.1266784667969 C 342.7457580566406 377.4405517578125 348.5400085449219 374.5334777832031 340.0821533203125 384.7751159667969" stroke-width="0.0" fill="rgb(34, 179, 12)" opacity="0.87076384" stroke="rgb(0, 0, 0)" stroke-opacity="1.0" stroke-linecap="round" stroke-linejoin="round"/>
    <path d="M 78.19352722167969 495.1293640136719 C 88.3450927734375 493.5921630859375 103.47589874267578 513.6124267578125 109.2207260131836 519.937744140625 C -11.961726188659668 525.6115112304688 -14.699885368347168 510.8302917480469 -0.6417017579078674 481.96075439453125 C -1.5158796310424805 471.0801696777344 11.593751907348633 466.99859619140625 30.04753303527832 472.90679931640625 C 39.08726119995117 465.016357421875 65.31591033935547 469.3663330078125 78.19352722167969 495.1293640136719" stroke-width="0.0" fill="rgb(7, 170, 19)" opacity="0.9772769" stroke="rgb(0, 0, 0)" stroke-opacity="1.0" stroke-linecap="round" stroke-linejoin="round"/>
    <path d="M 93.04547119140625 363.6619567871094 C 90.76620483398438 407.41839599609375 104.69601440429688 397.7267150878906 107.46234893798828 393.2922058105469 C 79.65135192871094 383.66851806640625 89.38713836669922 394.656982421875 82.73037719726562 370.4997863769531 C 83.52055358886719 325.31842041015625 116.07020568847656 346.24951171875 114.89250183105469 353.3876037597656 C 112.94538116455078 353.95159912109375 117.69988250732422 379.1199951171875 93.04547119140625 363.6619567871094" stroke-width="0.0" fill="rgb(44, 103, 97)" opacity="0.41886187" stroke="rgb(0, 0, 0)" stroke-opacity="1.0" stroke-linecap="round" stroke-linejoin="round"/>
    <path d="M 120.11894989013672 454.2823181152344 C 90.62046813964844 448.39892578125 89.88166809082031 429.7652893066406 92.25639343261719 457.6494140625 C 104.364990234375 424.72998046875 90.01922607421875 436.0115051269531 88.0226821899414 436.54296875 C 87.67291259765625 422.2789611816406 83.73351287841797 429.185302734375 83.58128356933594 407.4172058105469 C 95.99825286865234 398.73828125 104.69901275634766 412.1609191894531 120.11894989013672 454.2823181152344" stroke-width="0.0" fill="rgb(111, 73, 101)" opacity="0.2236984" stroke="rgb(0, 0, 0)" stroke-opacity="1.0" stroke-linecap="round" stroke-linejoin="round"/>
    <path d="M 470.5113220214844 64.14659881591797 C 477.67974853515625 158.7678985595703 458.20709228515625 132.49940490722656 416.442626953125 86.48592376708984 C 408.17889404296875 96.9738540649414 418.3448181152344 133.2200927734375 418.966552734375 83.716064453125 C 399.1581726074219 48.97623825073242 406.41619873046875 51.923194885253906 410.5640869140625 54.106597900390625 C 400.98468017578125 57.42503356933594 468.2350769042969 57.945777893066406 470.5113220214844 64.14659881591797" stroke-width="0.0" fill="rgb(255, 233, 202)" opacity="1.0" stroke="rgb(0, 0, 0)" stroke-opacity="1.0" stroke-linecap="round" stroke-linejoin="round"/>
    <path d="M 123.87836456298828 180.2461395263672 C 133.0587615966797 189.0813446044922 151.9156494140625 231.69363403320312 58.665584564208984 231.36215209960938 C 86.5512466430664 146.9025115966797 102.01611328125 157.3818817138672 70.67120361328125 158.1068878173828 C 80.3128662109375 149.07945251464844 81.38419342041016 141.2611083984375 60.83721923828125 150.0358428955078 C 76.33081817626953 153.06446838378906 94.62892150878906 155.54568481445312 123.87836456298828 180.2461395263672" stroke-width="0.0" fill="rgb(255, 0, 17)" opacity="1.0" stroke="rgb(0, 0, 0)" stroke-opacity="1.0" stroke-linecap="round" stroke-linejoin="round"/>
    <path d="M 171.7291259765625 153.3939208984375 C 186.57583618164062 201.02357482910156 169.6262664794922 214.86146545410156 119.78447723388672 221.4688720703125 C 83.618408203125 156.13523864746094 72.71730041503906 143.27618408203125 63.646358489990234 130.97637939453125 C 66.97293853759766 114.71377563476562 61.454261779785156 118.97216796875 100.32569122314453 111.10113525390625 C 152.71641540527344 101.69318389892578 155.7593536376953 110.45867156982422 171.7291259765625 153.3939208984375" stroke-width="0.0" fill="rgb(5, 6, 187)" opacity="0.94264406" stroke="rgb(0, 0, 0)" stroke-opacity="1.0" stroke-linecap="round" stroke-linejoin="round"/>
    <path d="M 560.9066772460938 511.1993103027344 C 489.4117431640625 548.2562866210938 477.95050048828125 558.22265625 343.61590576171875 521.080810546875 C 360.79681396484375 492.3786926269531 379.9927062988281 487.4549560546875 412.8871765136719 458.7195739746094 C 440.86492919921875 426.3236389160156 463.7986755371094 432.7834167480469 470.7289733886719 492.7249755859375 C 533.448974609375 491.7734375 551.3466186523438 509.167236328125 560.9066772460938 511.1993103027344" stroke-width="0.0" fill="rgb(72, 190, 14)" opacity="0.99981505" stroke="rgb(0, 0, 0)" stroke-opacity="1.0" stroke-linecap="round" stroke-linejoin="round"/>
    <path d="M 419.69439697265625 327.2486877441406 C 421.0304260253906 324.6912841796875 395.9069519042969 303.0315246582031 406.5042419433594 341.5772399902344 C 386.6340026855469 352.7006530761719 381.6127014160156 345.6556701660156 396.0570068359375 331.7298278808594 C 377.5258483886719 295.0314025878906 377.9987487792969 298.7162170410156 389.1983947753906 302.1411437988281 C 421.8563232421875 302.20361328125 441.7148742675781 315.841064453125 419.69439697265625 327.2486877441406" stroke-width="0.0" fill="rgb(80, 183, 27)" opacity="0.93204606" stroke="rgb(0, 0, 0)" stroke-opacity="1.0" stroke-linecap="round" stroke-linejoin="round"/>
    <path d="M 284.7339782714844 450.93292236328125 C 272.4073486328125 461.51263427734375 281.4059143066406 469.0302429199219 258.4641418457031 459.5000915527344 C 251.99331665039062 461.0298156738281 256.9331359863281 433.37860107421875 257.1809997558594 421.24713134765625 C 264.0928649902344 404.380859375 265.2106018066406 401.57073974609375 252.77581787109375 432.83074951171875 C 259.3696594238281 414.2814025878906 278.93695068359375 433.14654541015625 284.7339782714844 450.93292236328125" stroke-width="0.0" fill="rgb(21, 189, 55)" opacity="0.9362459" stroke="rgb(0, 0, 0)" stroke-opacity="1.0" stroke-linecap="round" stroke-linejoin="round"/>
    <path d="M 137.13409423828125 323.8374938964844 C 172.9984893798828 367.28802490234375 146.19996643066406 355.11956787109375 128.54898071289062 377.8149108886719 C 128.68409729003906 389.16015625 112.06120300292969 394.45428466796875 124.80729675292969 394.171142578125 C 130.2568359375 351.47344970703125 119.61446380615234 317.82281494140625 133.75775146484375 326.28240966796875 C 161.27210998535156 358.181396484375 145.79531860351562 354.8594055175781 137.13409423828125 323.8374938964844" stroke-width="0.0" fill="rgb(105, 99, 149)" opacity="0.07135161" stroke="rgb(0, 0, 0)" stroke-opacity="1.0" stroke-linecap="round" stroke-linejoin="round"/>
    <path d="M 163.28468322753906 46.79500198364258 C 182.62425231933594 40.302188873291016 190.8760223388672 36.49175262451172 192.05873107910156 29.1656436920166 C 183.45123291015625 -4.234649181365967 183.16319274902344 -16.330341339111328 171.96890258789062 -11.454296112060547 C 128.61122131347656 -9.153304100036621 124.44422912597656 -25.79014778137207 146.76625061035156 -5.700702667236328 C 129.93414306640625 33.0047607421875 136.34222412109375 42.467613220214844 163.28468322753906 46.79500198364258" stroke-width="0.0" fill="rgb(9, 22, 238)" opacity="0.047496498" stroke="rgb(0, 0, 0)" stroke-opacity="1.0" stroke-linecap="round" stroke-linejoin="round"/>
    <path d="M 283.26580810546875 301.3971252441406 C 285.57672119140625 342.5076904296875 291.2210998535156 355.3927307128906 242.66326904296875 369.5396728515625 C 216.15911865234375 367.1932678222656 210.61143493652344 340.5432434082031 231.71197509765625 301.15863037109375 C 246.98731994628906 289.2266540527344 252.89141845703125 274.0508728027344 273.0867919921875 274.9776306152344 C 270.45574951171875 281.6532287597656 284.4446716308594 284.4100341796875 283.26580810546875 301.3971252441406" stroke-width="0.0" fill="rgb(78, 195, 24)" opacity="1.0" stroke="rgb(0, 0, 0)" stroke-opacity="1.0" stroke-linecap="round" stroke-linejoin="round"/>
    <path d="M 119.53688049316406 142.64828491210938 C 86.17071533203125 184.3463134765625 86.6817855834961 179.37440490722656 60.608238220214844 155.83169555664062 C 44.04379653930664 142.21315002441406 37.01000213623047 129.0338134765625 33.69139862060547 129.77255249023438 C 22.20585823059082 93.15133666992188 -3.907602071762085 38.796546936035156 65.51241302490234 -2.0310561656951904 C 150.9542694091797 -5.674446105957031 161.81463623046875 78.52588653564453 119.53688049316406 142.64828491210938" stroke-width="0.0" fill="rgb(255, 245, 0)" opacity="1.0" stroke="rgb(0, 0, 0)" stroke-opacity="1.0" stroke-linecap="round" stroke-linejoin="round"/>
    <path d="M 439.9347229003906 157.02455139160156 C 437.6593933105469 145.4810333251953 439.1597900390625 142.62112426757812 437.3250427246094 163.12826538085938 C 397.95623779296875 151.5045623779297 393.6938781738281 177.615966796875 415.90704345703125 148.7892303466797 C 422.3800354003906 132.4191436767578 440.9317321777344 135.91748046875 442.56549072265625 137.60801696777344 C 450.8802490234375 124.82303619384766 442.03363037109375 148.04635620117188 439.9347229003906 157.02455139160156" stroke-width="0.0" fill="rgb(76, 215, 0)" opacity="0.903934" stroke="rgb(0, 0, 0)" stroke-opacity="1.0" stroke-linecap="round" stroke-linejoin="round"/>
    <path d="M 97.32295227050781 497.03558349609375 C 65.75872039794922 491.69219970703125 78.38699340820312 478.9476013183594 79.75444030761719 466.58502197265625 C 44.74869155883789 492.06195068359375 47.425113677978516 464.72967529296875 44.730194091796875 479.01031494140625 C 74.233154296875 484.3798522949219 86.03544616699219 472.3943786621094 60.59245300292969 461.759765625 C 81.67220306396484 458.14910888671875 77.65068817138672 458.27764892578125 97.32295227050781 497.03558349609375" stroke-width="0.0" fill="rgb(140, 47, 246)" opacity="0.08263524" stroke="rgb(0, 0, 0)" stroke-opacity="1.0" stroke-linecap="round" stroke-linejoin="round"/>
  </g>
</svg>
