<?xml version="1.0" ?>
<svg xmlns="http://www.w3.org/2000/svg" version="1.1" width="512" height="512">
  <defs/>
  <g>
    <path d="M 555.784912109375 442.9157409667969 C 548.0579833984375 517.3278198242188 548.9373779296875 525.5354614257812 400.5873107910156 522.0944213867188 C 330.36572265625 556.0484619140625 308.258056640625 554.1808471679688 265.19012451171875 502.2695617675781 C 339.175537109375 324.1807556152344 361.300048828125 310.1252136230469 470.3677062988281 277.285400390625 C 568.880126953125 310.0201110839844 579.65576171875 318.2378845214844 555.784912109375 442.9157409667969" stroke-width="0.0" fill="rgb(14, 8, 119)" opacity="0.994722" stroke="rgb(0, 0, 0)" stroke-opacity="1.0" stroke-linecap="round" stroke-linejoin="round"/>
    <path d="M 277.0898132324219 453.16802978515625 C 345.4989929199219 506.42047119140625 358.3296203613281 524.7374267578125 160.96470642089844 536.2720336914062 C -51.20000076293945 517.7235107421875 -51.20000076293945 507.83367919921875 -21.774600982666016 449.183837890625 C -18.38620376586914 205.44985961914062 -18.693912506103516 199.01014709472656 -7.210734844207764 236.1772918701172 C 213.10073852539062 295.38031005859375 263.3066711425781 231.71450805664062 277.0898132324219 453.16802978515625" stroke-width="0.0" fill="rgb(12, 7, 118)" opacity="0.9673449" stroke="rgb(0, 0, 0)" stroke-opacity="1.0" stroke-linecap="round" stroke-linejoin="round"/>
    <path d="M 301.4371337890625 347.1289978027344 C 242.27391052246094 451.52972412109375 224.05760192871094 475.12158203125 181.09507751464844 391.2696533203125 C 60.73517608642578 373.34759521484375 40.3235969543457 408.2435302734375 49.03314971923828 160.31210327148438 C -13.702231407165527 162.7230224609375 16.50623321533203 158.73841857910156 102.03314208984375 97.16991424560547 C 267.5470886230469 113.35519409179688 286.0578918457031 114.50371551513672 301.4371337890625 347.1289978027344" stroke-width="0.0" fill="rgb(255, 251, 176)" opacity="1.0" stroke="rgb(0, 0, 0)" stroke-opacity="1.0" stroke-linecap="round" stroke-linejoin="round"/>
    <path d="M 285.1982727050781 27.831077575683594 C 277.8988342285156 203.87281799316406 225.82801818847656 160.8075408935547 27.36260986328125 176.30667114257812 C -67.61732482910156 189.9202880859375 -57.90757751464844 194.1126251220703 -42.55095291137695 71.5333251953125 C -14.989005088806152 -15.722881317138672 -7.218327522277832 -19.66063117980957 112.80220794677734 -52.15062713623047 C 237.00958251953125 -58.5909423828125 256.5961608886719 -70.22217559814453 285.1982727050781 27.831077575683594" stroke-width="0.0" fill="rgb(20, 16, 126)" opacity="0.98526406" stroke="rgb(0, 0, 0)" stroke-opacity="1.0" stroke-linecap="round" stroke-linejoin="round"/>
    <path d="M 531.3820190429688 48.199913024902344 C 437.08209228515625 276.64300537109375 444.9225158691406 290.0284118652344 406.51556396484375 303.0186462402344 C 272.7509765625 327.51214599609375 244.73861694335938 375.5568542480469 272.582763671875 262.54669189453125 C 289.05133056640625 49.249908447265625 230.21421813964844 -7.889755725860596 321.7214050292969 -65.28192138671875 C 563.2000122070312 -6.244815349578857 563.2000122070312 4.452378749847412 531.3820190429688 48.199913024902344" stroke-width="0.0" fill="rgb(24, 23, 120)" opacity="0.97243387" stroke="rgb(0, 0, 0)" stroke-opacity="1.0" stroke-linecap="round" stroke-linejoin="round"/>
    <path d="M 468.078369140625 334.87445068359375 C 472.7683410644531 435.2020568847656 499.13568115234375 532.6896362304688 320.5362243652344 584.252197265625 C 216.72596740722656 592.5465087890625 223.83648681640625 553.4625244140625 246.20858764648438 473.66241455078125 C 254.25067138671875 235.1730499267578 305.64886474609375 215.2209014892578 324.2226867675781 267.8238525390625 C 414.168701171875 282.92010498046875 471.4743347167969 276.6960754394531 468.078369140625 334.87445068359375" stroke-width="0.0" fill="rgb(24, 19, 127)" opacity="1.0" stroke="rgb(0, 0, 0)" stroke-opacity="1.0" stroke-linecap="round" stroke-linejoin="round"/>
    <path d="M 558.0491943359375 196.9254608154297 C 568.4466552734375 308.8600769042969 566.81298828125 311.4949645996094 469.6734924316406 285.8685607910156 C 393.1889343261719 299.66510009765625 424.1461486816406 303.00946044921875 426.7677917480469 230.23910522460938 C 443.647216796875 110.25640869140625 400.01898193359375 97.90142059326172 513.5930786132812 81.1313705444336 C 559.5452880859375 66.41191101074219 563.3931274414062 110.59782409667969 558.0491943359375 196.9254608154297" stroke-width="0.0" fill="rgb(24, 19, 126)" opacity="1.0" stroke="rgb(0, 0, 0)" stroke-opacity="1.0" stroke-linecap="round" stroke-linejoin="round"/>
    <path d="M 239.69720458984375 284.4949645996094 C 232.79737854003906 284.8035583496094 241.611328125 295.81072998046875 232.11639404296875 306.8820495605469 C 229.28414916992188 308.6112976074219 228.2950897216797 317.9322814941406 177.4774169921875 262.5804748535156 C 154.78350830078125 193.03121948242188 149.55722045898438 208.44032287597656 241.59799194335938 192.7793426513672 C 241.5572967529297 206.5542755126953 219.2848358154297 281.7249755859375 239.69720458984375 284.4949645996094" stroke-width="0.0" fill="rgb(59, 44, 107)" opacity="0.7170595" stroke="rgb(0, 0, 0)" stroke-opacity="1.0" stroke-linecap="round" stroke-linejoin="round"/>
    <path d="M 325.9670715332031 74.5101318359375 C 296.16888427734375 135.99951171875 275.0184631347656 131.1155242919922 242.39219665527344 133.22340393066406 C 253.6339111328125 118.996826171875 251.47608947753906 93.57904815673828 216.02870178222656 61.85029983520508 C 224.68701171875 74.37059020996094 221.9254150390625 63.42247009277344 279.42266845703125 118.41351318359375 C 282.43634033203125 121.66378021240234 299.4723205566406 52.68163299560547 325.9670715332031 74.5101318359375" stroke-width="0.0" fill="rgb(255, 255, 198)" opacity="1.0" stroke="rgb(0, 0, 0)" stroke-opacity="1.0" stroke-linecap="round" stroke-linejoin="round"/>
    <path d="M 233.4949493408203 344.9764099121094 C 188.89413452148438 503.6003112792969 193.395263671875 492.5831604003906 185.20965576171875 454.6292419433594 C 167.91481018066406 432.8738098144531 168.4290008544922 389.1577453613281 152.3782196044922 308.4794616699219 C 221.17710876464844 323.8979797363281 181.28321838378906 342.1654357910156 174.339599609375 344.7431640625 C 165.1400146484375 343.59759521484375 163.21336364746094 338.0482177734375 233.4949493408203 344.9764099121094" stroke-width="0.0" fill="rgb(255, 248, 178)" opacity="0.98031014" stroke="rgb(0, 0, 0)" stroke-opacity="1.0" stroke-linecap="round" stroke-linejoin="round"/>
    <path d="M 251.08084106445312 192.38485717773438 C 240.25880432128906 298.4656982421875 244.26856994628906 387.0760192871094 219.04197692871094 350.1228332519531 C 124.60413360595703 329.1295166015625 235.2700653076172 340.7933654785156 193.34735107421875 287.40277099609375 C 52.528411865234375 152.7447967529297 19.30071449279785 132.31680297851562 255.00650024414062 58.93495559692383 C 161.67630004882812 186.36013793945312 223.19102478027344 97.59230041503906 251.08084106445312 192.38485717773438" stroke-width="0.0" fill="rgb(255, 254, 170)" opacity="1.0" stroke="rgb(0, 0, 0)" stroke-opacity="1.0" stroke-linecap="round" stroke-linejoin="round"/>
    <path d="M 194.29928588867188 278.96429443359375 C 89.87387084960938 273.9499816894531 53.05017852783203 277.30810546875 53.62575149536133 298.2541809082031 C 117.29251098632812 377.5927734375 111.95866394042969 364.2333068847656 -16.714540481567383 284.4311828613281 C -80.3457260131836 60.05597686767578 -63.35480880737305 95.5773696899414 162.6606903076172 57.805721282958984 C 217.05982971191406 126.62347412109375 205.7793731689453 172.97608947753906 194.29928588867188 278.96429443359375" stroke-width="0.0" fill="rgb(22, 23, 126)" opacity="0.9965677" stroke="rgb(0, 0, 0)" stroke-opacity="1.0" stroke-linecap="round" stroke-linejoin="round"/>
    <path d="M 266.68133544921875 32.727210998535156 C 280.9573974609375 129.5309600830078 277.302490234375 133.54376220703125 197.96995544433594 112.01004028320312 C 157.17811584472656 131.83714294433594 103.32963562011719 151.27536010742188 113.32953643798828 77.40342712402344 C 116.28430938720703 -39.39479064941406 98.22416687011719 -68.36820220947266 202.0107421875 -40.417911529541016 C 210.08541870117188 11.496047973632812 172.90554809570312 40.44332504272461 266.68133544921875 32.727210998535156" stroke-width="0.0" fill="rgb(16, 9, 143)" opacity="1.0" stroke="rgb(0, 0, 0)" stroke-opacity="1.0" stroke-linecap="round" stroke-linejoin="round"/>
    <path d="M 276.2174072265625 144.82440185546875 C 314.4437561035156 180.4424591064453 300.369140625 188.7889862060547 265.369384765625 198.39308166503906 C 196.35598754882812 183.06265258789062 311.7986145019531 152.1092987060547 211.98458862304688 108.18778991699219 C 303.6130065917969 57.76975631713867 315.06488037109375 116.60340881347656 308.4499206542969 175.72994995117188 C 266.2193603515625 176.2552947998047 249.92225646972656 133.40821838378906 276.2174072265625 144.82440185546875" stroke-width="0.0" fill="rgb(255, 255, 165)" opacity="1.0" stroke="rgb(0, 0, 0)" stroke-opacity="1.0" stroke-linecap="round" stroke-linejoin="round"/>
    <path d="M 84.06493377685547 283.5283508300781 C 73.718994140625 336.8817443847656 125.13056182861328 355.72967529296875 81.16447448730469 375.84637451171875 C 89.48613739013672 346.14898681640625 69.2445068359375 338.9415283203125 73.98849487304688 292.0831298828125 C 84.34733581542969 298.09759521484375 86.49444580078125 286.4645690917969 88.30734252929688 359.1341247558594 C 54.50874328613281 412.2554931640625 21.811832427978516 269.5522766113281 84.06493377685547 283.5283508300781" stroke-width="0.0" fill="rgb(255, 253, 174)" opacity="1.0" stroke="rgb(0, 0, 0)" stroke-opacity="1.0" stroke-linecap="round" stroke-linejoin="round"/>
    <path d="M 216.61038208007812 68.84248352050781 C 220.38095092773438 112.04656219482422 153.0681915283203 102.17604064941406 209.92750549316406 121.30874633789062 C 252.54428100585938 59.53656005859375 245.36029052734375 155.99456787109375 173.73265075683594 119.71961975097656 C 234.59046936035156 180.36212158203125 219.5660858154297 71.1076889038086 210.0662078857422 44.676536560058594 C 187.63787841796875 36.445316314697266 223.0125274658203 43.14540100097656 216.61038208007812 68.84248352050781" stroke-width="0.0" fill="rgb(32, 2, 168)" opacity="0.27905205" stroke="rgb(0, 0, 0)" stroke-opacity="1.0" stroke-linecap="round" stroke-linejoin="round"/>
    <path d="M 242.4064483642578 456.38360595703125 C 233.1435546875 467.1082763671875 208.71287536621094 489.5171203613281 221.9965362548828 450.6733703613281 C 249.9665985107422 453.4969177246094 233.5643310546875 484.0067443847656 216.051025390625 445.4607238769531 C 205.70127868652344 301.2774963378906 231.0106201171875 321.67828369140625 237.13304138183594 462.331787109375 C 284.6456604003906 456.9309997558594 257.6806640625 462.94354248046875 242.4064483642578 456.38360595703125" stroke-width="0.0" fill="rgb(255, 236, 172)" opacity="0.89621705" stroke="rgb(0, 0, 0)" stroke-opacity="1.0" stroke-linecap="round" stroke-linejoin="round"/>
    <path d="M 181.3968048095703 286.0625915527344 C 165.74281311035156 283.3370056152344 143.5365447998047 302.9822082519531 174.1809844970703 328.85321044921875 C 175.1309051513672 273.66973876953125 169.44496154785156 270.093505859375 105.51222229003906 292.4928894042969 C 139.58702087402344 307.0262756347656 119.42932891845703 316.5136413574219 125.27310943603516 281.4112243652344 C 146.6372833251953 275.3995666503906 157.51248168945312 290.0108947753906 181.3968048095703 286.0625915527344" stroke-width="0.0" fill="rgb(254, 249, 173)" opacity="0.5157082" stroke="rgb(0, 0, 0)" stroke-opacity="1.0" stroke-linecap="round" stroke-linejoin="round"/>
    <path d="M 240.7608642578125 91.30313110351562 C 272.8753356933594 146.15859985351562 247.98573303222656 147.38128662109375 201.03955078125 138.72323608398438 C 189.7178192138672 97.68719482421875 164.2201385498047 110.59848022460938 191.48171997070312 116.01156616210938 C 192.508056640625 103.07213592529297 180.86961364746094 68.7331771850586 203.77989196777344 74.57212829589844 C 225.02638244628906 87.85064697265625 195.62930297851562 113.76428985595703 240.7608642578125 91.30313110351562" stroke-width="0.0" fill="rgb(255, 255, 117)" opacity="1.0" stroke="rgb(0, 0, 0)" stroke-opacity="1.0" stroke-linecap="round" stroke-linejoin="round"/>
    <path d="M 372.1545715332031 278.67108154296875 C 354.8005065917969 287.1717224121094 384.8486022949219 286.85858154296875 306.14501953125 280.24853515625 C 284.10052490234375 292.0126953125 307.3368225097656 308.1781005859375 293.9082336425781 223.59466552734375 C 296.3570251464844 238.93544006347656 294.571044921875 244.61441040039062 334.22149658203125 240.32736206054688 C 379.42724609375 229.5542449951172 376.97161865234375 223.59666442871094 372.1545715332031 278.67108154296875" stroke-width="0.0" fill="rgb(17, 10, 121)" opacity="0.83407813" stroke="rgb(0, 0, 0)" stroke-opacity="1.0" stroke-linecap="round" stroke-linejoin="round"/>
    <path d="M 190.61293029785156 298.6322937011719 C 192.29383850097656 288.8521423339844 155.2034912109375 303.9641418457031 155.73265075683594 279.54193115234375 C 176.97506713867188 283.7358093261719 156.52462768554688 296.8245849609375 158.6722869873047 280.67913818359375 C 203.03390502929688 292.1324462890625 194.76132202148438 295.1013488769531 209.15206909179688 173.5063018798828 C 224.9809112548828 204.96205139160156 205.28475952148438 248.86610412597656 190.61293029785156 298.6322937011719" stroke-width="0.0" fill="rgb(255, 239, 177)" opacity="0.94493777" stroke="rgb(0, 0, 0)" stroke-opacity="1.0" stroke-linecap="round" stroke-linejoin="round"/>
    <path d="M 190.08773803710938 100.38822174072266 C 200.23342895507812 98.25227355957031 201.07894897460938 104.7062759399414 167.2946014404297 118.66487884521484 C 165.2363739013672 112.14896392822266 151.2744903564453 99.26065063476562 200.580810546875 113.53645324707031 C 205.8424530029297 121.820068359375 223.40676879882812 61.48030090332031 196.8035888671875 72.99547576904297 C 183.4851531982422 95.65850067138672 185.24391174316406 110.30243682861328 190.08773803710938 100.38822174072266" stroke-width="0.0" fill="rgb(255, 255, 83)" opacity="0.81377524" stroke="rgb(0, 0, 0)" stroke-opacity="1.0" stroke-linecap="round" stroke-linejoin="round"/>
    <path d="M 263.25738525390625 457.16119384765625 C 248.29139709472656 443.7627868652344 264.731201171875 447.1295471191406 266.7462158203125 479.0825500488281 C 229.49488830566406 486.18768310546875 233.86875915527344 462.79010009765625 234.31936645507812 459.10247802734375 C 245.4283447265625 433.6993713378906 233.16151428222656 443.77099609375 226.1915740966797 441.18524169921875 C 258.3081970214844 444.46368408203125 263.3385925292969 443.1722106933594 263.25738525390625 457.16119384765625" stroke-width="0.0" fill="rgb(32, 21, 122)" opacity="1.0" stroke="rgb(0, 0, 0)" stroke-opacity="1.0" stroke-linecap="round" stroke-linejoin="round"/>
    <path d="M 375.5827941894531 233.4916229248047 C 377.3802185058594 237.4893798828125 365.14788818359375 230.22763061523438 324.1044921875 235.0619354248047 C 292.02508544921875 263.48651123046875 280.5762939453125 267.9970397949219 281.2200927734375 211.4260711669922 C 277.55877685546875 205.8439483642578 303.9665222167969 208.73814392089844 339.08984375 220.96774291992188 C 360.4263000488281 232.01100158691406 354.4692077636719 235.0074005126953 375.5827941894531 233.4916229248047" stroke-width="0.0" fill="rgb(24, 6, 198)" opacity="0.015091647" stroke="rgb(0, 0, 0)" stroke-opacity="1.0" stroke-linecap="round" stroke-linejoin="round"/>
    <path d="M 195.78561401367188 111.66543579101562 C 159.86122131347656 147.85108947753906 142.97256469726562 150.6300811767578 144.4066619873047 150.61927795410156 C 149.41275024414062 134.5017547607422 129.61453247070312 127.66586303710938 120.99545288085938 98.11676788330078 C 108.6629638671875 100.74568176269531 110.73892211914062 85.49024200439453 117.04895782470703 77.84744262695312 C 136.6949005126953 100.07037353515625 178.2911834716797 107.25096893310547 195.78561401367188 111.66543579101562" stroke-width="0.0" fill="rgb(173, 155, 253)" opacity="0.7053536" stroke="rgb(0, 0, 0)" stroke-opacity="1.0" stroke-linecap="round" stroke-linejoin="round"/>
    <path d="M 126.91712188720703 352.23291015625 C 127.22441864013672 385.1138916015625 113.2309799194336 392.79437255859375 100.13209533691406 416.1108093261719 C 26.488264083862305 454.29095458984375 43.348358154296875 412.659423828125 63.580650329589844 344.33074951171875 C 109.31746673583984 329.41131591796875 93.36349487304688 337.1967468261719 125.8232192993164 338.1672058105469 C 130.7337188720703 293.3901062011719 148.55921936035156 326.22137451171875 126.91712188720703 352.23291015625" stroke-width="0.0" fill="rgb(251, 249, 178)" opacity="0.9566028" stroke="rgb(0, 0, 0)" stroke-opacity="1.0" stroke-linecap="round" stroke-linejoin="round"/>
    <path d="M 122.93527221679688 398.6250305175781 C 115.49417877197266 479.5152587890625 103.65776824951172 497.4936218261719 93.49309539794922 429.42681884765625 C 67.73967742919922 451.1154479980469 76.86398315429688 484.63763427734375 60.79933166503906 474.1819763183594 C 56.80131530761719 441.0974426269531 52.96065139770508 401.8551025390625 60.8120002746582 363.8291015625 C 132.1145477294922 383.47882080078125 135.60855102539062 347.22393798828125 122.93527221679688 398.6250305175781" stroke-width="0.0" fill="rgb(255, 229, 152)" opacity="0.998814" stroke="rgb(0, 0, 0)" stroke-opacity="1.0" stroke-linecap="round" stroke-linejoin="round"/>
    <path d="M 197.56277465820312 113.05033111572266 C 190.8355255126953 175.4525909423828 127.58342742919922 141.44668579101562 111.42928314208984 137.70462036132812 C 101.89867401123047 134.25421142578125 95.45050048828125 134.70590209960938 107.84632110595703 134.70770263671875 C 84.77527618408203 125.93716430664062 94.60992431640625 127.46802520751953 119.90254974365234 142.39120483398438 C 90.6491928100586 66.38858795166016 161.52976989746094 57.30987548828125 197.56277465820312 113.05033111572266" stroke-width="0.0" fill="rgb(19, 17, 136)" opacity="0.9986098" stroke="rgb(0, 0, 0)" stroke-opacity="1.0" stroke-linecap="round" stroke-linejoin="round"/>
    <path d="M 117.90660858154297 126.13525390625 C 72.29342651367188 142.9331512451172 57.75356674194336 122.19905853271484 48.780067443847656 152.7748565673828 C 41.379695892333984 114.77024841308594 38.70756530761719 107.24935150146484 33.123504638671875 143.81910705566406 C 34.915584564208984 143.82211303710938 54.763092041015625 160.40187072753906 32.462459564208984 97.11868286132812 C 78.74586486816406 83.19329071044922 107.80612182617188 62.95917892456055 117.90660858154297 126.13525390625" stroke-width="0.0" fill="rgb(63, 16, 124)" opacity="0.009223469" stroke="rgb(0, 0, 0)" stroke-opacity="1.0" stroke-linecap="round" stroke-linejoin="round"/>
    <path d="M 34.76897430419922 333.5555419921875 C 33.9212760925293 354.2358093261719 39.563270568847656 340.0672607421875 29.76016616821289 313.8702087402344 C 41.756717681884766 331.2711486816406 13.806432723999023 327.5553283691406 9.692973136901855 318.0028076171875 C 20.977800369262695 316.75970458984375 31.637060165405273 313.52728271484375 33.22601318359375 292.7789611816406 C 33.13090515136719 311.9481201171875 48.2418327331543 320.148193359375 34.76897430419922 333.5555419921875" stroke-width="0.0" fill="rgb(37, 6, 144)" opacity="0.12263126" stroke="rgb(0, 0, 0)" stroke-opacity="1.0" stroke-linecap="round" stroke-linejoin="round"/>
    <path d="M 390.1519775390625 198.3935089111328 C 399.8623962402344 299.9423828125 410.3868713378906 277.5083923339844 370.9183349609375 275.1533203125 C 362.3943176269531 249.82801818847656 370.6312561035156 220.0328369140625 370.39654541015625 212.38314819335938 C 366.5032653808594 196.75955200195312 359.6226806640625 201.74578857421875 358.5224609375 200.53009033203125 C 380.1943359375 203.3366241455078 379.1344909667969 189.42652893066406 390.1519775390625 198.3935089111328" stroke-width="0.0" fill="rgb(22, 20, 121)" opacity="0.335091" stroke="rgb(0, 0, 0)" stroke-opacity="1.0" stroke-linecap="round" stroke-linejoin="round"/>
    <path d="M 202.33856201171875 236.23023986816406 C 206.34352111816406 276.5029296875 195.97738647460938 279.5563049316406 174.9149169921875 274.7340393066406 C 178.8876953125 263.5755920410156 181.66897583007812 254.4000244140625 181.779541015625 263.2247619628906 C 192.3255157470703 273.39080810546875 190.72129821777344 259.4800720214844 194.51751708984375 284.2345275878906 C 203.9045867919922 262.76287841796875 201.27523803710938 243.9071044921875 202.33856201171875 236.23023986816406" stroke-width="0.0" fill="rgb(254, 184, 34)" opacity="0.0" stroke="rgb(0, 0, 0)" stroke-opacity="1.0" stroke-linecap="round" stroke-linejoin="round"/>
    <path d="M 208.4747772216797 257.740478515625 C 206.03933715820312 228.72308349609375 209.60281372070312 237.94876098632812 211.7180633544922 249.6997833251953 C 199.5522003173828 252.7987518310547 187.4930877685547 262.0176086425781 177.69583129882812 236.57518005371094 C 187.62562561035156 238.6618194580078 214.7938232421875 231.99720764160156 183.55902099609375 227.19898986816406 C 168.95213317871094 266.2281188964844 201.5714569091797 266.2251281738281 208.4747772216797 257.740478515625" stroke-width="0.0" fill="rgb(252, 216, 95)" opacity="0.0" stroke="rgb(0, 0, 0)" stroke-opacity="1.0" stroke-linecap="round" stroke-linejoin="round"/>
    <path d="M 194.58285522460938 334.75494384765625 C 179.8374786376953 343.3938903808594 177.8335418701172 348.74993896484375 184.20172119140625 338.8958435058594 C 171.96450805664062 346.7708435058594 169.5897216796875 344.7257995605469 168.54837036132812 348.42962646484375 C 176.63990783691406 341.8937683105469 174.73179626464844 340.30450439453125 166.08506774902344 328.4189453125 C 197.90081787109375 332.6060485839844 192.53321838378906 329.1310119628906 194.58285522460938 334.75494384765625" stroke-width="0.0" fill="rgb(253, 245, 187)" opacity="0.44185907" stroke="rgb(0, 0, 0)" stroke-opacity="1.0" stroke-linecap="round" stroke-linejoin="round"/>
    <path d="M 94.69229888916016 125.41629791259766 C 115.44883728027344 157.87806701660156 87.10201263427734 161.59463500976562 95.20137786865234 146.8877410888672 C 61.53656768798828 147.30410766601562 60.010719299316406 135.94126892089844 94.01866912841797 130.86083984375 C 64.01258850097656 121.82731628417969 50.61489486694336 94.9363784790039 90.41719055175781 85.75210571289062 C 96.12437438964844 72.42770385742188 96.35739135742188 90.70330810546875 94.69229888916016 125.41629791259766" stroke-width="0.0" fill="rgb(73, 6, 178)" opacity="0.0" stroke="rgb(0, 0, 0)" stroke-opacity="1.0" stroke-linecap="round" stroke-linejoin="round"/>
    <path d="M 81.25775146484375 115.66116333007812 C 81.37834930419922 168.94776916503906 87.61298370361328 131.74085998535156 14.474632263183594 126.64205932617188 C 11.364459991455078 180.89540100097656 -8.608322143554688 171.3614959716797 -17.430234909057617 104.9339370727539 C -6.641203880310059 99.94903564453125 -15.06428337097168 106.8915786743164 3.6774024963378906 75.6484375 C 97.71092987060547 83.10552978515625 84.06181335449219 59.66202926635742 81.25775146484375 115.66116333007812" stroke-width="0.0" fill="rgb(64, 8, 138)" opacity="0.0034223925" stroke="rgb(0, 0, 0)" stroke-opacity="1.0" stroke-linecap="round" stroke-linejoin="round"/>
    <path d="M 117.5526123046875 164.50100708007812 C 129.45849609375 161.04954528808594 134.4840545654297 172.30982971191406 115.66937255859375 170.8592987060547 C 108.1789321899414 177.10418701171875 103.7488021850586 161.07351684570312 99.92024993896484 159.15711975097656 C 93.55181121826172 138.23007202148438 99.76963806152344 133.2822723388672 119.56401824951172 147.68966674804688 C 125.59766387939453 146.5851287841797 121.39009094238281 168.49530029296875 117.5526123046875 164.50100708007812" stroke-width="0.0" fill="rgb(47, 41, 225)" opacity="0.003466046" stroke="rgb(0, 0, 0)" stroke-opacity="1.0" stroke-linecap="round" stroke-linejoin="round"/>
    <path d="M 379.645263671875 197.50210571289062 C 370.46435546875 184.5824737548828 367.3245849609375 202.59130859375 364.0049133300781 218.87693786621094 C 371.91485595703125 202.34469604492188 373.0833740234375 220.7285614013672 352.9272766113281 200.13597106933594 C 351.549072265625 194.3220672607422 367.3076477050781 198.89039611816406 370.5629577636719 192.95498657226562 C 358.9813537597656 184.3125 376.3044128417969 194.07473754882812 379.645263671875 197.50210571289062" stroke-width="0.0" fill="rgb(60, 49, 154)" opacity="0.3851803" stroke="rgb(0, 0, 0)" stroke-opacity="1.0" stroke-linecap="round" stroke-linejoin="round"/>
    <path d="M 312.9031066894531 172.394775390625 C 288.41119384765625 165.55165100097656 282.08966064453125 190.01113891601562 260.16143798828125 166.63597106933594 C 288.2519226074219 171.6134033203125 306.6219787597656 188.71295166015625 291.6652526855469 151.7823944091797 C 293.97796630859375 154.22921752929688 236.97537231445312 151.9058380126953 301.6842041015625 142.76718139648438 C 325.0204772949219 125.39874267578125 314.5677185058594 173.36404418945312 312.9031066894531 172.394775390625" stroke-width="0.0" fill="rgb(254, 115, 87)" opacity="0.6565314" stroke="rgb(0, 0, 0)" stroke-opacity="1.0" stroke-linecap="round" stroke-linejoin="round"/>
    <path d="M 203.6480255126953 -9.112390518188477 C 195.53118896484375 58.794464111328125 170.0778045654297 76.31027221679688 178.1446533203125 78.86332702636719 C 66.98624420166016 79.45352935791016 72.54948425292969 86.2359619140625 76.0497817993164 46.30180358886719 C 77.09191131591797 -18.14417839050293 72.6748275756836 -11.485198020935059 119.42984771728516 -7.3959574699401855 C 123.79674530029297 -11.691448211669922 127.85535430908203 0.026277991011738777 203.6480255126953 -9.112390518188477" stroke-width="0.0" fill="rgb(31, 35, 80)" opacity="0.17885767" stroke="rgb(0, 0, 0)" stroke-opacity="1.0" stroke-linecap="round" stroke-linejoin="round"/>
    <path d="M 44.791412353515625 289.58062744140625 C 32.52506637573242 317.5021057128906 36.89205551147461 328.8386535644531 37.020591735839844 320.39971923828125 C 36.49431228637695 311.252197265625 36.39692306518555 317.0635070800781 12.550145149230957 298.7765197753906 C 9.636614799499512 298.1456298828125 28.385299682617188 293.2790832519531 46.07460021972656 299.2803649902344 C 45.974281311035156 286.65380859375 44.16827392578125 299.69927978515625 44.791412353515625 289.58062744140625" stroke-width="0.0" fill="rgb(15, 26, 122)" opacity="0.32695374" stroke="rgb(0, 0, 0)" stroke-opacity="1.0" stroke-linecap="round" stroke-linejoin="round"/>
    <path d="M 225.0338897705078 6.764436721801758 C 238.14474487304688 -12.666117668151855 242.72821044921875 3.0825600624084473 269.9605407714844 49.43864059448242 C 246.22499084472656 52.13873291015625 240.94505310058594 40.87174606323242 215.75869750976562 69.50856018066406 C 217.98721313476562 50.978424072265625 216.4473114013672 43.3321533203125 248.27264404296875 48.35365295410156 C 248.6992950439453 19.763933181762695 218.940185546875 19.314634323120117 225.0338897705078 6.764436721801758" stroke-width="0.0" fill="rgb(16, 44, 91)" opacity="0.010861543" stroke="rgb(0, 0, 0)" stroke-opacity="1.0" stroke-linecap="round" stroke-linejoin="round"/>
    <path d="M 103.83238220214844 329.5643005371094 C 84.52342987060547 359.6734619140625 128.38198852539062 398.443359375 124.94599914550781 387.51824951171875 C 98.8410415649414 399.9202880859375 103.9698257446289 375.1097717285156 111.77568054199219 335.9054260253906 C 93.4718246459961 323.16229248046875 93.65192413330078 318.35333251953125 119.1334457397461 325.230224609375 C 134.40536499023438 318.1753845214844 137.8544464111328 332.23779296875 103.83238220214844 329.5643005371094" stroke-width="0.0" fill="rgb(255, 227, 155)" opacity="0.03446452" stroke="rgb(0, 0, 0)" stroke-opacity="1.0" stroke-linecap="round" stroke-linejoin="round"/>
    <path d="M 217.9312744140625 379.4111633300781 C 211.15065002441406 402.1719665527344 222.76483154296875 397.21368408203125 217.34088134765625 418.6960754394531 C 191.5355682373047 409.8577575683594 202.83421325683594 395.97589111328125 190.88058471679688 376.31396484375 C 166.00469970703125 378.5274353027344 173.40879821777344 368.4482727050781 215.74928283691406 362.3268737792969 C 194.18463134765625 378.129150390625 199.21038818359375 382.53204345703125 217.9312744140625 379.4111633300781" stroke-width="0.0" fill="rgb(255, 175, 143)" opacity="0.0" stroke="rgb(0, 0, 0)" stroke-opacity="1.0" stroke-linecap="round" stroke-linejoin="round"/>
    <path d="M 60.17397689819336 174.35513305664062 C 29.095256805419922 172.43043518066406 50.45930099487305 206.61959838867188 41.65858459472656 225.013916015625 C 30.57728385925293 175.96998596191406 14.829010963439941 172.5669708251953 43.90892791748047 160.19699096679688 C 36.24955368041992 210.53330993652344 31.620555877685547 175.3883819580078 34.631160736083984 160.30628967285156 C 45.28589630126953 168.0852813720703 59.07594299316406 166.49122619628906 60.17397689819336 174.35513305664062" stroke-width="0.0" fill="rgb(25, 16, 159)" opacity="0.007676908" stroke="rgb(0, 0, 0)" stroke-opacity="1.0" stroke-linecap="round" stroke-linejoin="round"/>
    <path d="M 449.730712890625 334.54193115234375 C 461.3869934082031 328.64056396484375 445.2138671875 320.83587646484375 429.0242919921875 295.2047424316406 C 412.5828552246094 338.72247314453125 395.51953125 336.48382568359375 397.5351257324219 287.9710998535156 C 386.99859619140625 245.1820831298828 396.8980407714844 238.57774353027344 431.56640625 256.8248596191406 C 448.4263000488281 269.3746643066406 463.1598815917969 297.5340881347656 449.730712890625 334.54193115234375" stroke-width="0.0" fill="rgb(15, 37, 77)" opacity="0.042886578" stroke="rgb(0, 0, 0)" stroke-opacity="1.0" stroke-linecap="round" stroke-linejoin="round"/>
    <path d="M 27.15236473083496 143.62969970703125 C 37.77217483520508 147.6912078857422 64.75908660888672 133.6820831298828 35.597232818603516 144.3174591064453 C 47.47632598876953 193.876953125 22.66269874572754 180.8975067138672 -0.2864410877227783 162.09353637695312 C -8.08878231048584 109.99748229980469 5.564877986907959 111.09101867675781 20.92920684814453 131.31117248535156 C 17.31296730041504 113.13623046875 31.630125045776367 136.60902404785156 27.15236473083496 143.62969970703125" stroke-width="0.0" fill="rgb(56, 1, 148)" opacity="0.011382697" stroke="rgb(0, 0, 0)" stroke-opacity="1.0" stroke-linecap="round" stroke-linejoin="round"/>
    <path d="M 527.2049560546875 259.8271179199219 C 534.2054443359375 252.83876037597656 536.704345703125 247.76800537109375 523.1853637695312 239.57522583007812 C 525.6098022460938 285.3341064453125 492.20440673828125 268.832275390625 504.0996398925781 270.7159118652344 C 498.7814025878906 202.24624633789062 485.055908203125 221.34938049316406 467.5299987792969 244.37696838378906 C 500.2507019042969 246.84481811523438 518.1483154296875 249.09005737304688 527.2049560546875 259.8271179199219" stroke-width="0.0" fill="rgb(15, 43, 175)" opacity="0.0" stroke="rgb(0, 0, 0)" stroke-opacity="1.0" stroke-linecap="round" stroke-linejoin="round"/>
    <path d="M 234.1557159423828 113.61334991455078 C 218.4658660888672 102.44267272949219 231.34666442871094 111.5955581665039 229.53916931152344 114.87030792236328 C 179.52294921875 92.20082092285156 190.6097412109375 94.85104370117188 214.15647888183594 119.16727447509766 C 208.8928985595703 104.02992248535156 226.58770751953125 108.00175476074219 229.64584350585938 105.90989685058594 C 224.43887329101562 105.54893493652344 235.58116149902344 116.17674255371094 234.1557159423828 113.61334991455078" stroke-width="0.0" fill="rgb(255, 255, 119)" opacity="0.5491061" stroke="rgb(0, 0, 0)" stroke-opacity="1.0" stroke-linecap="round" stroke-linejoin="round"/>
    <path d="M 452.7539367675781 240.8909454345703 C 458.8913269042969 269.85223388671875 439.5697326660156 272.0176086425781 429.175048828125 281.31573486328125 C 421.2560729980469 263.5422668457031 405.4967346191406 260.5107421875 412.2992248535156 236.43833923339844 C 396.444580078125 245.87391662597656 399.3317565917969 251.382080078125 404.3899841308594 238.21420288085938 C 420.7731628417969 242.3409423828125 444.62518310546875 233.6663055419922 452.7539367675781 240.8909454345703" stroke-width="0.0" fill="rgb(22, 18, 96)" opacity="0.034588154" stroke="rgb(0, 0, 0)" stroke-opacity="1.0" stroke-linecap="round" stroke-linejoin="round"/>
    <path d="M 516.03662109375 144.09495544433594 C 525.7021484375 150.9779510498047 528.0213012695312 151.4921417236328 512.9937744140625 131.08164978027344 C 524.0853881835938 126.9948959350586 474.55438232421875 135.31764221191406 500.36712646484375 141.9851837158203 C 486.33154296875 96.61443328857422 489.3011169433594 94.22200775146484 488.8037109375 92.700927734375 C 513.4293212890625 94.71968078613281 510.9609069824219 113.74522399902344 516.03662109375 144.09495544433594" stroke-width="0.0" fill="rgb(27, 30, 72)" opacity="0.013355495" stroke="rgb(0, 0, 0)" stroke-opacity="1.0" stroke-linecap="round" stroke-linejoin="round"/>
    <path d="M 524.5421752929688 151.09365844726562 C 523.0667724609375 158.3433837890625 513.518798828125 167.60067749023438 481.33026123046875 177.8352813720703 C 483.9649353027344 196.36253356933594 465.02496337890625 188.9300079345703 470.1327819824219 142.606689453125 C 497.0353088378906 135.84278869628906 478.4231262207031 158.92176818847656 518.4159545898438 166.74755859375 C 528.4044189453125 144.31405639648438 523.2307739257812 148.08409118652344 524.5421752929688 151.09365844726562" stroke-width="0.0" fill="rgb(38, 30, 137)" opacity="0.010849487" stroke="rgb(0, 0, 0)" stroke-opacity="1.0" stroke-linecap="round" stroke-linejoin="round"/>
    <path d="M 44.97175979614258 380.8716125488281 C 60.1354866027832 360.9122009277344 53.41847229003906 371.8370666503906 53.21435546875 359.70831298828125 C 56.51020812988281 382.4122314453125 42.10144805908203 370.67791748046875 26.19746208190918 358.7845764160156 C 20.6731014251709 325.5616455078125 14.070106506347656 328.4779357910156 35.153358459472656 343.2088623046875 C 49.269508361816406 357.4842529296875 54.4555778503418 361.7305603027344 44.97175979614258 380.8716125488281" stroke-width="0.0" fill="rgb(11, 19, 115)" opacity="0.05486164" stroke="rgb(0, 0, 0)" stroke-opacity="1.0" stroke-linecap="round" stroke-linejoin="round"/>
    <path d="M 338.7562561035156 274.00396728515625 C 338.0670166015625 262.5635681152344 309.3994140625 274.2508544921875 302.9341125488281 253.9516143798828 C 304.8568115234375 280.0481872558594 277.57501220703125 293.8681945800781 285.23907470703125 261.6391296386719 C 270.0021667480469 237.49928283691406 289.493408203125 238.28700256347656 329.76763916015625 234.64161682128906 C 325.77191162109375 233.21084594726562 333.92974853515625 246.44015502929688 338.7562561035156 274.00396728515625" stroke-width="0.0" fill="rgb(24, 10, 183)" opacity="0.053751342" stroke="rgb(0, 0, 0)" stroke-opacity="1.0" stroke-linecap="round" stroke-linejoin="round"/>
    <path d="M 479.8771057128906 145.54672241210938 C 486.4707946777344 170.66043090820312 478.63433837890625 174.51718139648438 476.75494384765625 145.74545288085938 C 471.5303955078125 142.59719848632812 453.4799499511719 153.2523651123047 480.1122131347656 158.6082763671875 C 518.459228515625 103.46817016601562 527.6956176757812 53.832374572753906 449.3520202636719 71.45792388916016 C 459.6116027832031 157.68739318847656 483.9631042480469 146.41519165039062 479.8771057128906 145.54672241210938" stroke-width="0.0" fill="rgb(56, 24, 143)" opacity="0.008378952" stroke="rgb(0, 0, 0)" stroke-opacity="1.0" stroke-linecap="round" stroke-linejoin="round"/>
    <path d="M 502.7617492675781 474.5770263671875 C 513.2197265625 490.4210510253906 502.4365539550781 475.09222412109375 448.2297668457031 471.712890625 C 459.49383544921875 496.47088623046875 450.2264709472656 487.6241760253906 456.3482360839844 440.05889892578125 C 453.82464599609375 463.28790283203125 447.3193054199219 444.969970703125 467.5872802734375 450.1966552734375 C 458.1147155761719 458.99578857421875 472.6727294921875 472.2307434082031 502.7617492675781 474.5770263671875" stroke-width="0.0" fill="rgb(16, 16, 106)" opacity="0.0221324" stroke="rgb(0, 0, 0)" stroke-opacity="1.0" stroke-linecap="round" stroke-linejoin="round"/>
    <path d="M 501.3804931640625 386.90350341796875 C 507.8983154296875 378.4162292480469 495.4530029296875 380.5126037597656 475.07415771484375 381.5818176269531 C 482.5328063964844 389.826171875 477.8284912109375 377.3862609863281 465.0362548828125 372.9381408691406 C 459.96112060546875 351.4842529296875 473.9459228515625 348.254638671875 457.5295104980469 349.7361145019531 C 462.821044921875 369.28472900390625 497.69610595703125 387.2741394042969 501.3804931640625 386.90350341796875" stroke-width="0.0" fill="rgb(4, 34, 102)" opacity="0.013075575" stroke="rgb(0, 0, 0)" stroke-opacity="1.0" stroke-linecap="round" stroke-linejoin="round"/>
    <path d="M 161.14645385742188 426.3992004394531 C 171.61802673339844 419.1474914550781 166.81895446777344 402.547607421875 151.72434997558594 426.1473083496094 C 174.66839599609375 446.1354064941406 123.01612854003906 438.5707702636719 135.29086303710938 412.6809387207031 C 140.10565185546875 409.403564453125 134.32298278808594 384.80615234375 137.43714904785156 410.27716064453125 C 157.2153778076172 409.309326171875 160.76998901367188 432.83807373046875 161.14645385742188 426.3992004394531" stroke-width="0.0" fill="rgb(9, 4, 159)" opacity="0.032152794" stroke="rgb(0, 0, 0)" stroke-opacity="1.0" stroke-linecap="round" stroke-linejoin="round"/>
    <path d="M 114.74828338623047 167.29446411132812 C 102.94364929199219 160.76954650878906 83.57023620605469 161.89816284179688 43.46098709106445 168.0863494873047 C 39.31154251098633 171.32476806640625 36.2203254699707 171.46429443359375 89.8809814453125 159.62815856933594 C 81.85143280029297 137.9079132080078 87.31936645507812 128.98460388183594 73.24620056152344 130.72523498535156 C 91.0084228515625 137.3692626953125 101.25575256347656 150.6317901611328 114.74828338623047 167.29446411132812" stroke-width="0.0" fill="rgb(40, 3, 150)" opacity="0.0005639598" stroke="rgb(0, 0, 0)" stroke-opacity="1.0" stroke-linecap="round" stroke-linejoin="round"/>
    <path d="M 205.917724609375 132.4510955810547 C 182.10543823242188 132.99342346191406 165.70912170410156 141.6981964111328 170.27813720703125 128.48764038085938 C 165.146728515625 133.6807403564453 150.7454833984375 122.99161529541016 173.5103759765625 113.85151672363281 C 173.60804748535156 131.07691955566406 165.04774475097656 112.8022689819336 181.7748565673828 73.23576354980469 C 213.19866943359375 101.61007690429688 204.87286376953125 126.9039306640625 205.917724609375 132.4510955810547" stroke-width="0.0" fill="rgb(253, 237, 131)" opacity="0.0" stroke="rgb(0, 0, 0)" stroke-opacity="1.0" stroke-linecap="round" stroke-linejoin="round"/>
    <path d="M 156.72357177734375 425.561767578125 C 168.54832458496094 432.5443115234375 168.4629364013672 453.2935485839844 155.58262634277344 423.97491455078125 C 139.49085998535156 422.3035583496094 158.6046600341797 434.0211486816406 146.98443603515625 419.2691345214844 C 134.54708862304688 379.0454406738281 131.07440185546875 369.6067199707031 145.04010009765625 390.6834411621094 C 131.29534912109375 409.7640686035156 159.04443359375 404.8414306640625 156.72357177734375 425.561767578125" stroke-width="0.0" fill="rgb(76, 2, 110)" opacity="5.1388895e-05" stroke="rgb(0, 0, 0)" stroke-opacity="1.0" stroke-linecap="round" stroke-linejoin="round"/>
    <path d="M 453.787109375 141.57955932617188 C 450.9914245605469 155.9327392578125 467.4861755371094 161.98191833496094 445.8639221191406 159.4979705810547 C 429.8153381347656 162.1571502685547 430.4573974609375 165.2368927001953 438.70501708984375 115.43915557861328 C 451.9202880859375 130.75299072265625 439.60113525390625 141.6738739013672 437.863037109375 113.61492919921875 C 453.0679626464844 119.24876403808594 455.4524230957031 125.56587982177734 453.787109375 141.57955932617188" stroke-width="0.0" fill="rgb(50, 15, 164)" opacity="0.0013449055" stroke="rgb(0, 0, 0)" stroke-opacity="1.0" stroke-linecap="round" stroke-linejoin="round"/>
    <path d="M 261.41796875 362.4626159667969 C 305.6185607910156 297.4664611816406 277.6061096191406 296.635986328125 223.10858154296875 315.072265625 C 253.25135803222656 311.75115966796875 232.7173309326172 315.1596984863281 238.45370483398438 317.8523864746094 C 238.40725708007812 306.41790771484375 227.33624267578125 284.39129638671875 225.18295288085938 317.1377258300781 C 213.00326538085938 350.07867431640625 206.05718994140625 371.4927673339844 261.41796875 362.4626159667969" stroke-width="0.0" fill="rgb(174, 162, 79)" opacity="0.0" stroke="rgb(0, 0, 0)" stroke-opacity="1.0" stroke-linecap="round" stroke-linejoin="round"/>
    <path d="M 176.9779815673828 491.7649841308594 C 155.56625366210938 479.2977294921875 153.69346618652344 490.17462158203125 137.7596435546875 521.5145263671875 C 124.99352264404297 534.8756713867188 149.30267333984375 522.9213256835938 140.69642639160156 438.26983642578125 C 195.6808624267578 445.1937561035156 183.84963989257812 474.21063232421875 179.6638946533203 477.7044982910156 C 156.9564971923828 473.6979675292969 176.74087524414062 485.1689147949219 176.9779815673828 491.7649841308594" stroke-width="0.0" fill="rgb(0, 57, 43)" opacity="0.043644182" stroke="rgb(0, 0, 0)" stroke-opacity="1.0" stroke-linecap="round" stroke-linejoin="round"/>
  </g>
</svg>
