<?xml version="1.0" ?>
<svg xmlns="http://www.w3.org/2000/svg" version="1.1" width="512" height="512">
  <defs/>
  <g>
    <path d="M 527.12255859375 461.7254638671875 C 547.4852905273438 516.6414794921875 548.3889770507812 525.1383666992188 391.3504943847656 531.8592529296875 C 319.76873779296875 563.2000122070312 290.24560546875 563.2000122070312 288.35491943359375 543.8630981445312 C 352.7690734863281 382.38916015625 423.98980712890625 371.9289245605469 523.0130004882812 329.8185729980469 C 559.8236083984375 314.7536926269531 556.675537109375 338.09918212890625 527.12255859375 461.7254638671875" stroke-width="0.0" fill="rgb(17, 31, 187)" opacity="0.99792206" stroke="rgb(0, 0, 0)" stroke-opacity="1.0" stroke-linecap="round" stroke-linejoin="round"/>
    <path d="M 314.7594909667969 427.2137145996094 C 358.8558349609375 450.14794921875 305.8112487792969 520.3689575195312 254.00318908691406 555.842041015625 C -51.20000076293945 519.230712890625 -51.20000076293945 511.73809814453125 -44.438228607177734 479.6846618652344 C -15.640891075134277 221.0894775390625 -1.9920291900634766 232.6824493408203 75.26396942138672 184.56619262695312 C 242.14710998535156 231.7711639404297 267.5520935058594 191.43038940429688 314.7594909667969 427.2137145996094" stroke-width="0.0" fill="rgb(221, 141, 0)" opacity="1.0" stroke="rgb(0, 0, 0)" stroke-opacity="1.0" stroke-linecap="round" stroke-linejoin="round"/>
    <path d="M 263.2320556640625 339.5586242675781 C 379.20135498046875 295.729736328125 188.4660186767578 383.598876953125 227.53695678710938 348.992919921875 C 121.07106018066406 439.7301940917969 10.775403022766113 331.9706115722656 63.9986457824707 175.0776824951172 C 58.3903694152832 163.8990478515625 49.80698776245117 162.44924926757812 143.8588409423828 170.13633728027344 C 195.88722229003906 248.04466247558594 276.1297302246094 152.23101806640625 263.2320556640625 339.5586242675781" stroke-width="0.0" fill="rgb(190, 116, 1)" opacity="0.5009502" stroke="rgb(0, 0, 0)" stroke-opacity="1.0" stroke-linecap="round" stroke-linejoin="round"/>
    <path d="M 173.80999755859375 -53.44068145751953 C 172.4991455078125 155.977294921875 174.40643310546875 148.40086364746094 30.56724739074707 266.2418518066406 C -70.42373657226562 259.8878479003906 -63.20718765258789 238.6494140625 -38.788246154785156 160.8251190185547 C -16.190303802490234 -17.708452224731445 -9.996477127075195 -23.574756622314453 32.775753021240234 -18.098133087158203 C 196.82273864746094 -23.394615173339844 224.5518341064453 -36.593833923339844 173.80999755859375 -53.44068145751953" stroke-width="0.0" fill="rgb(60, 52, 233)" opacity="0.98236734" stroke="rgb(0, 0, 0)" stroke-opacity="1.0" stroke-linecap="round" stroke-linejoin="round"/>
    <path d="M 538.1572265625 122.9320068359375 C 427.09033203125 342.8729248046875 405.95654296875 443.1124572753906 336.6523742675781 335.85931396484375 C 407.0915222167969 219.2599334716797 189.0911865234375 349.47064208984375 210.09609985351562 246.14659118652344 C 224.9310302734375 50.05113220214844 200.80401611328125 8.791501998901367 343.955322265625 -45.12751007080078 C 566.5869750976562 -6.8551201820373535 573.7637329101562 18.540613174438477 538.1572265625 122.9320068359375" stroke-width="0.0" fill="rgb(230, 164, 15)" opacity="0.93265694" stroke="rgb(0, 0, 0)" stroke-opacity="1.0" stroke-linecap="round" stroke-linejoin="round"/>
    <path d="M 249.34243774414062 157.87254333496094 C 162.84422302246094 286.7408447265625 271.90594482421875 262.484130859375 189.3936767578125 296.7784423828125 C 199.7052001953125 159.18728637695312 144.61502075195312 155.04151916503906 115.53038787841797 226.25070190429688 C 148.9640350341797 133.09561157226562 91.65190124511719 24.918140411376953 290.75982666015625 -53.945701599121094 C 343.9448547363281 7.014318943023682 263.20281982421875 -8.947108268737793 249.34243774414062 157.87254333496094" stroke-width="0.0" fill="rgb(224, 167, 30)" opacity="1.0" stroke="rgb(0, 0, 0)" stroke-opacity="1.0" stroke-linecap="round" stroke-linejoin="round"/>
    <path d="M 449.69158935546875 318.0219421386719 C 446.6085205078125 435.09930419921875 462.0794982910156 449.2543640136719 216.15248107910156 449.9718933105469 C 66.3451919555664 427.7179870605469 64.7827377319336 424.0596618652344 308.77679443359375 425.8404846191406 C 229.94427490234375 276.1377258300781 296.9027099609375 209.93682861328125 334.08135986328125 217.6504669189453 C 479.40740966796875 206.88955688476562 466.15667724609375 231.94253540039062 449.69158935546875 318.0219421386719" stroke-width="0.0" fill="rgb(225, 135, 0)" opacity="0.39565444" stroke="rgb(0, 0, 0)" stroke-opacity="1.0" stroke-linecap="round" stroke-linejoin="round"/>
    <path d="M 553.5968017578125 193.31256103515625 C 556.0805053710938 324.996337890625 550.469482421875 332.2430725097656 451.5057678222656 428.8402099609375 C 367.3247375488281 369.65509033203125 362.87652587890625 296.75689697265625 409.27520751953125 279.4962158203125 C 405.8171691894531 137.59310913085938 366.48114013671875 36.164554595947266 511.1451721191406 8.92434310913086 C 558.974853515625 52.917659759521484 558.24755859375 91.69058990478516 553.5968017578125 193.31256103515625" stroke-width="0.0" fill="rgb(35, 43, 216)" opacity="0.9890164" stroke="rgb(0, 0, 0)" stroke-opacity="1.0" stroke-linecap="round" stroke-linejoin="round"/>
    <path d="M 375.4057922363281 126.27955627441406 C 377.51715087890625 114.13420867919922 382.6419372558594 234.55775451660156 348.34423828125 369.0610046386719 C 392.2528991699219 109.31079864501953 130.31826782226562 285.6163024902344 226.49571228027344 215.187255859375 C 199.01596069335938 223.6942901611328 285.162841796875 227.44442749023438 377.2607116699219 235.72735595703125 C 381.2786560058594 124.65599822998047 338.5288391113281 142.62037658691406 375.4057922363281 126.27955627441406" stroke-width="0.0" fill="rgb(163, 68, 21)" opacity="0.04031231" stroke="rgb(0, 0, 0)" stroke-opacity="1.0" stroke-linecap="round" stroke-linejoin="round"/>
    <path d="M 250.76266479492188 250.78961181640625 C 243.29286193847656 228.95802307128906 201.95248413085938 280.81787109375 203.67971801757812 258.00909423828125 C 259.88702392578125 269.47589111328125 235.78089904785156 264.7756652832031 179.73171997070312 262.9211120605469 C 178.03909301757812 188.88076782226562 226.65182495117188 194.11260986328125 227.69674682617188 247.72525024414062 C 246.09718322753906 260.2847900390625 223.0104522705078 225.18060302734375 250.76266479492188 250.78961181640625" stroke-width="0.0" fill="rgb(182, 102, 3)" opacity="0.5264852" stroke="rgb(0, 0, 0)" stroke-opacity="1.0" stroke-linecap="round" stroke-linejoin="round"/>
    <path d="M 370.248291015625 238.3258514404297 C 361.9420166015625 266.831787109375 379.25244140625 283.27813720703125 395.08807373046875 361.23980712890625 C 367.8524169921875 311.94091796875 379.9449768066406 293.7730407714844 353.3100280761719 283.49603271484375 C 362.51141357421875 187.75460815429688 393.4803161621094 235.23931884765625 357.4723815917969 231.1044158935547 C 392.2965087890625 261.00909423828125 376.8541259765625 226.83041381835938 370.248291015625 238.3258514404297" stroke-width="0.0" fill="rgb(97, 50, 107)" opacity="0.42904094" stroke="rgb(0, 0, 0)" stroke-opacity="1.0" stroke-linecap="round" stroke-linejoin="round"/>
    <path d="M 372.4072265625 101.85865783691406 C 274.3236083984375 87.00223541259766 287.83416748046875 61.240848541259766 143.42002868652344 60.33378601074219 C 142.97125244140625 127.46296691894531 170.69056701660156 58.31093978881836 132.54849243164062 168.1938934326172 C 123.45867156982422 20.586931228637695 144.76406860351562 1.6530811786651611 207.77711486816406 -40.26539611816406 C 381.6661376953125 -26.095306396484375 414.2954406738281 -4.1283111572265625 372.4072265625 101.85865783691406" stroke-width="0.0" fill="rgb(46, 41, 252)" opacity="1.0" stroke="rgb(0, 0, 0)" stroke-opacity="1.0" stroke-linecap="round" stroke-linejoin="round"/>
    <path d="M 386.6554260253906 420.51470947265625 C 100.1056137084961 355.9157409667969 366.4342041015625 406.4305725097656 128.03599548339844 383.6046447753906 C 109.75980377197266 321.50689697265625 80.7184829711914 378.3981628417969 405.21875 360.6290588378906 C 207.2456512451172 342.359130859375 -65.32247161865234 360.3664245605469 -49.15032958984375 351.9095458984375 C 104.1416244506836 419.1018371582031 518.2263793945312 326.1356506347656 386.6554260253906 420.51470947265625" stroke-width="0.0" fill="rgb(224, 132, 15)" opacity="0.96548164" stroke="rgb(0, 0, 0)" stroke-opacity="1.0" stroke-linecap="round" stroke-linejoin="round"/>
    <path d="M 537.2662963867188 51.17231369018555 C 505.7937316894531 56.91386413574219 470.4355773925781 64.06775665283203 457.59698486328125 46.109214782714844 C 481.2088317871094 52.281375885009766 458.2737731933594 46.37086486816406 359.9767761230469 60.2829704284668 C 375.50445556640625 -11.043625831604004 379.6712341308594 -38.96640396118164 430.81280517578125 -39.71721649169922 C 540.9146118164062 -10.191633224487305 536.6610717773438 3.261720895767212 537.2662963867188 51.17231369018555" stroke-width="0.0" fill="rgb(40, 52, 237)" opacity="0.9905583" stroke="rgb(0, 0, 0)" stroke-opacity="1.0" stroke-linecap="round" stroke-linejoin="round"/>
    <path d="M 447.8928527832031 428.0852966308594 C 432.2438049316406 406.5330810546875 440.00128173828125 414.6839599609375 396.17193603515625 441.8876647949219 C 394.3139343261719 467.2044677734375 400.51904296875 465.486572265625 397.0905456542969 435.1014099121094 C 403.7561340332031 355.010498046875 428.7658386230469 319.2018127441406 451.40203857421875 358.4637756347656 C 454.47259521484375 410.72308349609375 471.7778015136719 406.75921630859375 447.8928527832031 428.0852966308594" stroke-width="0.0" fill="rgb(20, 47, 193)" opacity="0.82794553" stroke="rgb(0, 0, 0)" stroke-opacity="1.0" stroke-linecap="round" stroke-linejoin="round"/>
    <path d="M 328.36767578125 421.9877624511719 C 340.6390075683594 439.26263427734375 344.3888854980469 485.2270202636719 269.846435546875 560.6087646484375 C 91.90508270263672 582.9974365234375 52.79425048828125 572.0277099609375 54.740966796875 418.08001708984375 C 200.4525146484375 437.6794128417969 226.17665100097656 450.4281005859375 283.4756164550781 462.9557800292969 C 320.86651611328125 438.5257873535156 345.1755676269531 448.3445129394531 328.36767578125 421.9877624511719" stroke-width="0.0" fill="rgb(50, 35, 238)" opacity="0.948241" stroke="rgb(0, 0, 0)" stroke-opacity="1.0" stroke-linecap="round" stroke-linejoin="round"/>
    <path d="M 451.1094665527344 429.12506103515625 C 430.3937072753906 467.8709411621094 413.3731384277344 435.2006530761719 385.384033203125 452.17205810546875 C 356.2654724121094 504.18353271484375 294.61322021484375 555.6935424804688 280.5693664550781 480.48956298828125 C 322.09185791015625 431.1889343261719 316.12646484375 442.1253662109375 375.7889099121094 410.9435729980469 C 458.59893798828125 426.0255126953125 445.1681823730469 354.36859130859375 451.1094665527344 429.12506103515625" stroke-width="0.0" fill="rgb(32, 33, 212)" opacity="0.9850974" stroke="rgb(0, 0, 0)" stroke-opacity="1.0" stroke-linecap="round" stroke-linejoin="round"/>
    <path d="M 46.23360061645508 415.31744384765625 C 46.78097152709961 451.2829284667969 58.94007110595703 462.45477294921875 -13.695838928222656 457.6651916503906 C -31.082773208618164 371.4378967285156 -14.54617691040039 402.4093017578125 5.215879917144775 401.7610778808594 C 13.031893730163574 420.5083312988281 4.800727367401123 430.1122131347656 68.2157974243164 456.3453369140625 C 47.2961540222168 466.82281494140625 22.430652618408203 429.528564453125 46.23360061645508 415.31744384765625" stroke-width="0.0" fill="rgb(201, 39, 203)" opacity="0.47407398" stroke="rgb(0, 0, 0)" stroke-opacity="1.0" stroke-linecap="round" stroke-linejoin="round"/>
    <path d="M 373.6880798339844 118.08905029296875 C 376.1571960449219 123.21268463134766 441.7565612792969 120.33941650390625 304.0410461425781 107.443115234375 C 375.8469543457031 129.78550720214844 393.4861755371094 148.82196044921875 350.6837463378906 107.94223022460938 C 173.66726684570312 107.57295227050781 139.19815063476562 106.57363891601562 193.7628173828125 100.58893585205078 C 413.1700134277344 104.12164306640625 346.836181640625 81.56016540527344 373.6880798339844 118.08905029296875" stroke-width="0.0" fill="rgb(240, 127, 16)" opacity="0.56702715" stroke="rgb(0, 0, 0)" stroke-opacity="1.0" stroke-linecap="round" stroke-linejoin="round"/>
    <path d="M 373.8362731933594 217.6787872314453 C 353.4028015136719 212.92466735839844 361.03961181640625 146.33177185058594 355.10797119140625 351.7151794433594 C 351.1784973144531 131.43621826171875 426.730712890625 220.1602020263672 193.93040466308594 205.22021484375 C 165.478515625 216.30606079101562 433.2487487792969 197.70504760742188 354.7037658691406 204.70608520507812 C 383.36297607421875 196.5552978515625 396.5008850097656 200.78826904296875 373.8362731933594 217.6787872314453" stroke-width="0.0" fill="rgb(227, 207, 54)" opacity="0.2516211" stroke="rgb(0, 0, 0)" stroke-opacity="1.0" stroke-linecap="round" stroke-linejoin="round"/>
    <path d="M 177.17324829101562 270.7110290527344 C 91.76541137695312 338.64532470703125 64.18047332763672 256.5118713378906 84.97217559814453 448.9937744140625 C 54.39992141723633 494.7782287597656 -29.077714920043945 450.8519592285156 -45.43656921386719 313.2856140136719 C 8.021895408630371 219.51148986816406 35.78091049194336 208.36956787109375 145.625732421875 95.1639175415039 C 157.71083068847656 125.23889923095703 201.23963928222656 154.1524658203125 177.17324829101562 270.7110290527344" stroke-width="0.0" fill="rgb(48, 32, 251)" opacity="1.0" stroke="rgb(0, 0, 0)" stroke-opacity="1.0" stroke-linecap="round" stroke-linejoin="round"/>
    <path d="M 153.65052795410156 551.9498291015625 C 123.9425277709961 521.8115844726562 111.82440948486328 523.4666748046875 84.68968200683594 533.0171508789062 C 66.59942626953125 535.289794921875 48.54819107055664 537.7372436523438 -0.8929860591888428 507.1312255859375 C 25.824188232421875 446.7893371582031 38.18705749511719 426.5704040527344 64.78599548339844 446.1265869140625 C 138.04037475585938 462.9041442871094 150.26434326171875 504.4620361328125 153.65052795410156 551.9498291015625" stroke-width="0.0" fill="rgb(58, 25, 253)" opacity="0.9442377" stroke="rgb(0, 0, 0)" stroke-opacity="1.0" stroke-linecap="round" stroke-linejoin="round"/>
    <path d="M 222.84506225585938 143.7960662841797 C 279.8405456542969 214.0693359375 262.97418212890625 52.96228790283203 287.4927062988281 134.809814453125 C 275.75225830078125 178.6187744140625 229.21527099609375 146.3675537109375 234.87039184570312 114.19640350341797 C 217.08535766601562 229.72442626953125 292.35302734375 129.2117156982422 229.84193420410156 125.76976013183594 C 296.1749267578125 64.23981475830078 295.3258361816406 222.85519409179688 222.84506225585938 143.7960662841797" stroke-width="0.0" fill="rgb(215, 191, 0)" opacity="0.37710983" stroke="rgb(0, 0, 0)" stroke-opacity="1.0" stroke-linecap="round" stroke-linejoin="round"/>
    <path d="M 316.7635498046875 249.4000244140625 C 271.23114013671875 247.0107421875 277.44818115234375 261.3377380371094 266.1385498046875 245.73008728027344 C 266.93511962890625 242.12283325195312 249.50656127929688 242.51087951660156 264.72967529296875 265.0287170410156 C 278.2413635253906 201.01109313964844 277.1304626464844 212.5609588623047 294.6344909667969 211.1374053955078 C 310.0479431152344 208.88958740234375 312.8888244628906 190.65823364257812 316.7635498046875 249.4000244140625" stroke-width="0.0" fill="rgb(227, 190, 14)" opacity="0.54995435" stroke="rgb(0, 0, 0)" stroke-opacity="1.0" stroke-linecap="round" stroke-linejoin="round"/>
    <path d="M 268.1539306640625 163.5302734375 C 190.3176727294922 128.3267822265625 242.2449951171875 134.38851928710938 245.9046630859375 149.67379760742188 C 265.21868896484375 153.20452880859375 129.96351623535156 160.65577697753906 156.3221435546875 118.92691040039062 C 237.5909423828125 121.90138244628906 267.3963317871094 117.84928131103516 238.17796325683594 129.2093963623047 C 230.505859375 117.66981506347656 212.16665649414062 122.76182556152344 268.1539306640625 163.5302734375" stroke-width="0.0" fill="rgb(223, 189, 1)" opacity="0.104129285" stroke="rgb(0, 0, 0)" stroke-opacity="1.0" stroke-linecap="round" stroke-linejoin="round"/>
    <path d="M 323.1934509277344 376.7154846191406 C 366.50616455078125 302.6585388183594 319.3754577636719 334.4763488769531 261.9862976074219 357.2388000488281 C 287.8226013183594 366.212158203125 241.59555053710938 357.6764831542969 141.968994140625 347.8154296875 C 162.62217712402344 294.33453369140625 157.47161865234375 328.445556640625 294.8269348144531 327.0914611816406 C 235.8300323486328 341.4984130859375 279.6285705566406 317.35833740234375 323.1934509277344 376.7154846191406" stroke-width="0.0" fill="rgb(252, 187, 51)" opacity="0.9533017" stroke="rgb(0, 0, 0)" stroke-opacity="1.0" stroke-linecap="round" stroke-linejoin="round"/>
    <path d="M 92.9820556640625 491.7054748535156 C 74.57975769042969 576.0283203125 42.003334045410156 565.3634643554688 24.94702911376953 556.1542358398438 C -9.364206314086914 527.7437133789062 -16.68471336364746 520.4232177734375 -31.265899658203125 498.9010925292969 C -37.89102554321289 476.7446594238281 -58.35480499267578 442.24371337890625 2.1264922618865967 403.2123107910156 C 65.83544158935547 403.1148681640625 73.89519500732422 440.7761535644531 92.9820556640625 491.7054748535156" stroke-width="0.0" fill="rgb(65, 27, 255)" opacity="1.0" stroke="rgb(0, 0, 0)" stroke-opacity="1.0" stroke-linecap="round" stroke-linejoin="round"/>
    <path d="M 209.29263305664062 187.82879638671875 C 299.8426818847656 225.54049682617188 334.2685241699219 244.7197265625 180.6282196044922 224.9824676513672 C 168.88954162597656 146.8148956298828 154.337646484375 127.62671661376953 148.9044189453125 118.91265106201172 C 151.12750244140625 134.9816131591797 149.6750946044922 125.80597686767578 145.54820251464844 122.65515899658203 C 184.408203125 99.75355529785156 198.76869201660156 114.71782684326172 209.29263305664062 187.82879638671875" stroke-width="0.0" fill="rgb(202, 132, 6)" opacity="0.7941848" stroke="rgb(0, 0, 0)" stroke-opacity="1.0" stroke-linecap="round" stroke-linejoin="round"/>
    <path d="M 190.84925842285156 121.52706146240234 C 174.2932586669922 126.8910903930664 174.1924591064453 110.80811309814453 163.45310974121094 141.5181884765625 C 129.19027709960938 90.86711883544922 123.05147552490234 79.81414031982422 139.73468017578125 61.87689208984375 C 178.44248962402344 44.738739013671875 229.8126678466797 83.1888198852539 196.2935333251953 105.03581237792969 C 189.49758911132812 109.06611633300781 187.69515991210938 105.23588562011719 190.84925842285156 121.52706146240234" stroke-width="0.0" fill="rgb(255, 160, 0)" opacity="0.9547969" stroke="rgb(0, 0, 0)" stroke-opacity="1.0" stroke-linecap="round" stroke-linejoin="round"/>
    <path d="M 462.1706237792969 113.3934326171875 C 468.2494201660156 123.61891174316406 479.91162109375 137.18138122558594 412.2471008300781 230.8513946533203 C 392.8790588378906 157.5750274658203 397.63494873046875 110.17317199707031 358.4698181152344 86.09412384033203 C 362.43145751953125 25.610980987548828 346.6929016113281 -30.24953842163086 364.2898254394531 -30.000871658325195 C 470.3417053222656 53.30116653442383 465.23980712890625 76.38861083984375 462.1706237792969 113.3934326171875" stroke-width="0.0" fill="rgb(44, 56, 224)" opacity="0.99905705" stroke="rgb(0, 0, 0)" stroke-opacity="1.0" stroke-linecap="round" stroke-linejoin="round"/>
    <path d="M 372.088623046875 256.07232666015625 C 403.53460693359375 278.4488830566406 369.4179992675781 276.0489501953125 370.1365966796875 267.6913146972656 C 361.7259826660156 241.8087615966797 351.5924072265625 245.36605834960938 341.44622802734375 218.17547607421875 C 308.2621154785156 215.54824829101562 310.7547302246094 231.41900634765625 321.1380310058594 234.84873962402344 C 343.1843566894531 229.9283905029297 377.4749450683594 205.83432006835938 372.088623046875 256.07232666015625" stroke-width="0.0" fill="rgb(198, 154, 0)" opacity="0.9802614" stroke="rgb(0, 0, 0)" stroke-opacity="1.0" stroke-linecap="round" stroke-linejoin="round"/>
    <path d="M 261.83837890625 272.6190490722656 C 210.68516540527344 285.8670959472656 195.11111450195312 340.025634765625 139.299560546875 342.8805236816406 C 61.04730987548828 347.476806640625 46.00377655029297 273.77490234375 109.82524871826172 278.1423645019531 C 107.86519622802734 237.1898956298828 154.5276641845703 240.64141845703125 183.07220458984375 246.6698760986328 C 189.87623596191406 256.78790283203125 231.7683563232422 234.26573181152344 261.83837890625 272.6190490722656" stroke-width="0.0" fill="rgb(255, 232, 109)" opacity="1.0" stroke="rgb(0, 0, 0)" stroke-opacity="1.0" stroke-linecap="round" stroke-linejoin="round"/>
    <path d="M 208.68605041503906 416.23443603515625 C 200.30667114257812 399.2392883300781 183.74252319335938 427.5343933105469 166.63217163085938 422.79473876953125 C 152.15200805664062 401.7574768066406 101.57335662841797 419.16717529296875 91.42211151123047 389.9403381347656 C 154.9130096435547 415.4370422363281 179.07275390625 428.26727294921875 186.2362823486328 416.6107482910156 C 147.6403350830078 411.1820983886719 172.437744140625 431.2234802246094 208.68605041503906 416.23443603515625" stroke-width="0.0" fill="rgb(211, 103, 22)" opacity="0.6207119" stroke="rgb(0, 0, 0)" stroke-opacity="1.0" stroke-linecap="round" stroke-linejoin="round"/>
    <path d="M 423.4022216796875 385.405517578125 C 432.730224609375 381.5384826660156 425.06158447265625 402.2412414550781 421.92510986328125 419.2911071777344 C 352.70098876953125 428.71807861328125 367.3927917480469 433.5777587890625 388.4358215332031 396.07275390625 C 382.681396484375 304.08197021484375 378.8254699707031 301.7881774902344 435.6976013183594 329.5249328613281 C 431.33929443359375 395.80450439453125 435.9794006347656 400.2510070800781 423.4022216796875 385.405517578125" stroke-width="0.0" fill="rgb(20, 33, 210)" opacity="1.0" stroke="rgb(0, 0, 0)" stroke-opacity="1.0" stroke-linecap="round" stroke-linejoin="round"/>
    <path d="M 264.7789306640625 131.22154235839844 C 257.4703063964844 127.80436706542969 265.8666687011719 147.7928009033203 266.3170166015625 184.2988739013672 C 240.1404571533203 178.2563934326172 234.4995880126953 141.40419006347656 237.06814575195312 110.7936019897461 C 236.52047729492188 113.81134033203125 258.2376403808594 88.76156616210938 253.01487731933594 93.19065856933594 C 270.1910705566406 108.86395263671875 278.69390869140625 123.35408020019531 264.7789306640625 131.22154235839844" stroke-width="0.0" fill="rgb(244, 200, 31)" opacity="0.84688777" stroke="rgb(0, 0, 0)" stroke-opacity="1.0" stroke-linecap="round" stroke-linejoin="round"/>
    <path d="M 212.6793670654297 282.6257629394531 C 258.1298828125 278.68939208984375 300.0404357910156 265.1416015625 292.46148681640625 310.4803161621094 C 232.5323944091797 347.334228515625 168.3903350830078 325.9473571777344 207.4915008544922 292.0247802734375 C 290.1139221191406 277.639404296875 280.75341796875 258.2120666503906 232.34243774414062 272.8728942871094 C 250.03170776367188 263.2624206542969 254.7069854736328 266.0363464355469 212.6793670654297 282.6257629394531" stroke-width="0.0" fill="rgb(254, 214, 76)" opacity="0.8945763" stroke="rgb(0, 0, 0)" stroke-opacity="1.0" stroke-linecap="round" stroke-linejoin="round"/>
    <path d="M 185.6100311279297 333.9812927246094 C 157.93736267089844 334.51531982421875 150.49664306640625 345.0109558105469 168.02491760253906 340.5212097167969 C 180.5627899169922 375.1005859375 178.4798583984375 353.2416687011719 122.36001586914062 321.8741149902344 C 128.01148986816406 323.6014404296875 175.4835205078125 340.40386962890625 154.8721466064453 320.3624267578125 C 180.8956756591797 325.310546875 168.50941467285156 353.91845703125 185.6100311279297 333.9812927246094" stroke-width="0.0" fill="rgb(165, 99, 0)" opacity="0.62783325" stroke="rgb(0, 0, 0)" stroke-opacity="1.0" stroke-linecap="round" stroke-linejoin="round"/>
    <path d="M 199.70962524414062 273.5827331542969 C 262.1702575683594 272.0953369140625 272.6622619628906 267.363525390625 196.7936248779297 264.7299499511719 C 156.63755798339844 253.06983947753906 158.14796447753906 259.38665771484375 175.71786499023438 261.0027770996094 C 183.04559326171875 260.04949951171875 193.7823944091797 240.2162628173828 221.45521545410156 223.2534942626953 C 196.24029541015625 203.0911102294922 180.3394317626953 238.7958221435547 199.70962524414062 273.5827331542969" stroke-width="0.0" fill="rgb(231, 169, 46)" opacity="0.3808251" stroke="rgb(0, 0, 0)" stroke-opacity="1.0" stroke-linecap="round" stroke-linejoin="round"/>
    <path d="M 316.75390625 257.6136779785156 C 291.25421142578125 264.0754699707031 280.7273254394531 263.7600402832031 218.53298950195312 251.47080993652344 C 232.30368041992188 272.01275634765625 238.31224060058594 257.2149963378906 247.15660095214844 253.83180236816406 C 223.18234252929688 224.2162322998047 199.391357421875 193.8126983642578 242.4330291748047 181.9307861328125 C 300.1083679199219 193.68113708496094 343.7948913574219 236.8770294189453 316.75390625 257.6136779785156" stroke-width="0.0" fill="rgb(255, 231, 123)" opacity="0.90495384" stroke="rgb(0, 0, 0)" stroke-opacity="1.0" stroke-linecap="round" stroke-linejoin="round"/>
    <path d="M 183.4845733642578 348.58270263671875 C 185.28125 367.4344482421875 179.1104736328125 375.22735595703125 163.76132202148438 367.93084716796875 C 161.51625061035156 351.4014587402344 164.25694274902344 351.25128173828125 160.34120178222656 363.82415771484375 C 156.50924682617188 333.21337890625 153.8387908935547 324.23272705078125 184.57147216796875 324.6441650390625 C 189.9021759033203 345.89599609375 202.55323791503906 351.9598388671875 183.4845733642578 348.58270263671875" stroke-width="0.0" fill="rgb(129, 140, 147)" opacity="0.035591256" stroke="rgb(0, 0, 0)" stroke-opacity="1.0" stroke-linecap="round" stroke-linejoin="round"/>
    <path d="M 89.2512435913086 465.8702087402344 C 83.34347534179688 458.8016662597656 83.15687561035156 477.406982421875 60.41954803466797 476.9375915527344 C 62.148460388183594 458.75238037109375 61.74387741088867 410.6788635253906 65.72779083251953 439.18023681640625 C 47.504859924316406 433.8515319824219 77.8148422241211 435.4615783691406 79.67101287841797 459.6252136230469 C 69.14726257324219 460.4697265625 79.96813201904297 460.16265869140625 89.2512435913086 465.8702087402344" stroke-width="0.0" fill="rgb(58, 60, 255)" opacity="0.0008107804" stroke="rgb(0, 0, 0)" stroke-opacity="1.0" stroke-linecap="round" stroke-linejoin="round"/>
    <path d="M 454.50177001953125 438.2911682128906 C 441.83721923828125 433.8631896972656 433.05206298828125 460.7761535644531 443.7244873046875 475.4647521972656 C 436.1247253417969 453.1425476074219 425.93060302734375 455.64886474609375 412.47161865234375 464.73785400390625 C 405.39111328125 421.7265319824219 404.2516784667969 400.37164306640625 456.3699951171875 423.3043518066406 C 461.5248718261719 457.3705749511719 458.7369384765625 461.3886413574219 454.50177001953125 438.2911682128906" stroke-width="0.0" fill="rgb(15, 53, 136)" opacity="0.05836105" stroke="rgb(0, 0, 0)" stroke-opacity="1.0" stroke-linecap="round" stroke-linejoin="round"/>
    <path d="M 446.0826110839844 358.26727294921875 C 440.55767822265625 382.9462585449219 448.578369140625 402.659912109375 429.36700439453125 406.733154296875 C 416.55413818359375 403.9862365722656 421.9824523925781 381.19940185546875 426.7484130859375 355.8401184082031 C 421.3412170410156 366.656982421875 431.7843322753906 370.2660217285156 447.5594482421875 360.4068603515625 C 424.7142333984375 356.6278381347656 445.6763000488281 345.8104553222656 446.0826110839844 358.26727294921875" stroke-width="0.0" fill="rgb(0, 100, 205)" opacity="0.0" stroke="rgb(0, 0, 0)" stroke-opacity="1.0" stroke-linecap="round" stroke-linejoin="round"/>
    <path d="M 55.89732360839844 441.3087158203125 C 40.244991302490234 479.2076416015625 33.30249786376953 503.6754150390625 -5.11601448059082 501.26995849609375 C -15.556722640991211 469.5550231933594 -0.2572091519832611 471.7919921875 37.22633743286133 467.9571533203125 C 42.04525375366211 473.1124267578125 28.12542152404785 417.9932861328125 46.51557922363281 418.9787902832031 C 65.76251983642578 452.54888916015625 78.33895874023438 454.3927001953125 55.89732360839844 441.3087158203125" stroke-width="0.0" fill="rgb(80, 37, 232)" opacity="0.04459005" stroke="rgb(0, 0, 0)" stroke-opacity="1.0" stroke-linecap="round" stroke-linejoin="round"/>
    <path d="M 190.01637268066406 223.0535430908203 C 171.85787963867188 252.82310485839844 136.65330505371094 237.98123168945312 118.87222290039062 256.60015869140625 C 99.03087615966797 272.09649658203125 98.7707748413086 247.7882537841797 105.05062866210938 225.3816375732422 C 101.52816772460938 217.12359619140625 93.74079895019531 211.0415496826172 181.13015747070312 231.65895080566406 C 154.1533660888672 210.93020629882812 169.28871154785156 238.8015594482422 190.01637268066406 223.0535430908203" stroke-width="0.0" fill="rgb(44, 33, 255)" opacity="0.45727852" stroke="rgb(0, 0, 0)" stroke-opacity="1.0" stroke-linecap="round" stroke-linejoin="round"/>
    <path d="M 461.1434631347656 231.03707885742188 C 455.2720031738281 230.26513671875 448.0371398925781 233.64048767089844 459.4545593261719 259.2571716308594 C 441.6934814453125 250.0729217529297 434.6629333496094 243.23670959472656 455.93994140625 250.74403381347656 C 453.1799011230469 231.3900909423828 453.24212646484375 233.13487243652344 457.3786315917969 236.48052978515625 C 459.7255859375 226.194091796875 474.6920166015625 236.4889678955078 461.1434631347656 231.03707885742188" stroke-width="0.0" fill="rgb(1, 111, 181)" opacity="0.0014029142" stroke="rgb(0, 0, 0)" stroke-opacity="1.0" stroke-linecap="round" stroke-linejoin="round"/>
    <path d="M 352.4981384277344 192.33795166015625 C 363.67510986328125 192.7088623046875 356.53521728515625 209.388671875 377.97900390625 200.92910766601562 C 343.8333740234375 203.57412719726562 330.6516418457031 209.9684600830078 279.53564453125 194.85147094726562 C 255.81179809570312 143.4257354736328 278.1207275390625 140.7017822265625 363.31890869140625 167.72071838378906 C 358.6248779296875 205.69374084472656 356.7640686035156 205.70887756347656 352.4981384277344 192.33795166015625" stroke-width="0.0" fill="rgb(202, 192, 6)" opacity="0.43730938" stroke="rgb(0, 0, 0)" stroke-opacity="1.0" stroke-linecap="round" stroke-linejoin="round"/>
    <path d="M 106.87069702148438 462.97161865234375 C 103.58842468261719 446.6109313964844 87.77793884277344 455.6768798828125 75.73748016357422 476.7400817871094 C 60.28319549560547 513.1079711914062 31.59025764465332 526.5099487304688 24.28615379333496 468.7679748535156 C 15.138041496276855 398.1142578125 4.336447715759277 423.04962158203125 74.19137573242188 447.34063720703125 C 95.0855484008789 411.37188720703125 100.2606201171875 456.996337890625 106.87069702148438 462.97161865234375" stroke-width="0.0" fill="rgb(66, 37, 238)" opacity="0.08358793" stroke="rgb(0, 0, 0)" stroke-opacity="1.0" stroke-linecap="round" stroke-linejoin="round"/>
    <path d="M 463.9259338378906 61.56658935546875 C 491.31378173828125 68.837646484375 476.01190185546875 48.658172607421875 469.6893310546875 33.80842590332031 C 440.8626708984375 53.59512710571289 467.584716796875 44.22432327270508 447.9095458984375 64.87311553955078 C 448.5337829589844 43.771636962890625 439.89361572265625 32.93403244018555 434.7334289550781 38.006805419921875 C 442.9952697753906 5.633204936981201 453.8360290527344 19.724746704101562 463.9259338378906 61.56658935546875" stroke-width="0.0" fill="rgb(2, 113, 127)" opacity="0.061225988" stroke="rgb(0, 0, 0)" stroke-opacity="1.0" stroke-linecap="round" stroke-linejoin="round"/>
    <path d="M 322.9534606933594 164.89910888671875 C 335.66632080078125 182.0110321044922 332.31854248046875 184.81141662597656 289.4046630859375 161.895263671875 C 281.6877136230469 198.41781616210938 266.27410888671875 219.80856323242188 265.7198486328125 171.21072387695312 C 305.8807067871094 174.25918579101562 305.12469482421875 166.6090545654297 304.5888671875 131.70326232910156 C 300.4429626464844 128.22360229492188 308.81036376953125 130.81137084960938 322.9534606933594 164.89910888671875" stroke-width="0.0" fill="rgb(230, 226, 93)" opacity="0.0029092242" stroke="rgb(0, 0, 0)" stroke-opacity="1.0" stroke-linecap="round" stroke-linejoin="round"/>
    <path d="M 132.3712921142578 11.743362426757812 C 138.23887634277344 53.63640594482422 153.4978485107422 70.29676055908203 121.12450408935547 56.63855743408203 C 105.94097137451172 63.61477279663086 117.68387603759766 52.92576217651367 68.89691925048828 50.3666877746582 C 61.24819564819336 -47.58027648925781 130.05638122558594 -28.40550994873047 142.93031311035156 21.415956497192383 C 154.75364685058594 34.81574249267578 140.3634033203125 22.506738662719727 132.3712921142578 11.743362426757812" stroke-width="0.0" fill="rgb(37, 69, 235)" opacity="0.14199232" stroke="rgb(0, 0, 0)" stroke-opacity="1.0" stroke-linecap="round" stroke-linejoin="round"/>
    <path d="M 208.73182678222656 337.06121826171875 C 193.24826049804688 351.5469055175781 184.0655517578125 351.1545104980469 173.60362243652344 346.7194519042969 C 187.00384521484375 353.0528564453125 175.67567443847656 346.5867614746094 152.1401824951172 343.86138916015625 C 164.69989013671875 335.0481872558594 168.8086700439453 325.30010986328125 170.75674438476562 371.1110534667969 C 218.702880859375 369.1906433105469 208.5258026123047 356.9118347167969 208.73182678222656 337.06121826171875" stroke-width="0.0" fill="rgb(193, 157, 51)" opacity="0.28667518" stroke="rgb(0, 0, 0)" stroke-opacity="1.0" stroke-linecap="round" stroke-linejoin="round"/>
    <path d="M 53.25834655761719 314.2349548339844 C 52.6555061340332 334.5478210449219 47.650753021240234 346.6231384277344 30.67353630065918 344.2491455078125 C 15.044171333312988 342.8818664550781 20.990497589111328 345.4149475097656 24.46460723876953 334.2883605957031 C 34.40532684326172 328.0096435546875 41.610328674316406 303.9794616699219 60.038326263427734 297.9720764160156 C 61.9588737487793 300.14892578125 57.03324890136719 304.51287841796875 53.25834655761719 314.2349548339844" stroke-width="0.0" fill="rgb(65, 35, 234)" opacity="0.050896723" stroke="rgb(0, 0, 0)" stroke-opacity="1.0" stroke-linecap="round" stroke-linejoin="round"/>
    <path d="M 461.8840026855469 452.9474182128906 C 417.1651611328125 465.1137390136719 416.05169677734375 475.06976318359375 396.8097839355469 470.9586486816406 C 352.0751037597656 462.3809814453125 351.291748046875 448.88031005859375 372.13079833984375 423.2613220214844 C 364.8631896972656 460.6391296386719 401.7230224609375 468.7419128417969 410.9785461425781 450.39447021484375 C 422.11883544921875 423.083740234375 442.98919677734375 411.48883056640625 461.8840026855469 452.9474182128906" stroke-width="0.0" fill="rgb(1, 82, 139)" opacity="0.0047713453" stroke="rgb(0, 0, 0)" stroke-opacity="1.0" stroke-linecap="round" stroke-linejoin="round"/>
    <path d="M 159.203857421875 296.15216064453125 C 179.40061950683594 274.3461608886719 140.31271362304688 304.2281188964844 115.8184814453125 307.0630798339844 C 122.9298095703125 307.256591796875 78.64336395263672 312.59100341796875 64.0997314453125 286.62567138671875 C 96.243896484375 256.73681640625 125.75525665283203 256.700439453125 114.80145263671875 254.77996826171875 C 128.67855834960938 282.7413330078125 127.13392639160156 278.87603759765625 159.203857421875 296.15216064453125" stroke-width="0.0" fill="rgb(52, 62, 185)" opacity="0.0" stroke="rgb(0, 0, 0)" stroke-opacity="1.0" stroke-linecap="round" stroke-linejoin="round"/>
    <path d="M 145.47555541992188 435.32513427734375 C 143.6357879638672 432.8010559082031 159.68753051757812 453.00531005859375 153.3793182373047 444.48724365234375 C 151.23953247070312 414.1694641113281 149.28341674804688 459.4442138671875 113.78064727783203 465.944580078125 C 79.61512756347656 460.8028259277344 115.35345458984375 451.57623291015625 116.68562316894531 439.2607116699219 C 113.45883178710938 433.9949951171875 135.20828247070312 443.7323303222656 145.47555541992188 435.32513427734375" stroke-width="0.0" fill="rgb(75, 78, 252)" opacity="0.15833272" stroke="rgb(0, 0, 0)" stroke-opacity="1.0" stroke-linecap="round" stroke-linejoin="round"/>
    <path d="M 254.81491088867188 38.642112731933594 C 255.82786560058594 49.12210464477539 261.3548583984375 55.6206169128418 265.3006286621094 47.29338073730469 C 248.78846740722656 54.07550811767578 240.24021911621094 43.7010498046875 243.17681884765625 36.837100982666016 C 245.9684600830078 24.122331619262695 239.27561950683594 21.779848098754883 236.71095275878906 26.020795822143555 C 252.76010131835938 23.04093360900879 256.9886779785156 25.74230194091797 254.81491088867188 38.642112731933594" stroke-width="0.0" fill="rgb(1, 191, 136)" opacity="0.0" stroke="rgb(0, 0, 0)" stroke-opacity="1.0" stroke-linecap="round" stroke-linejoin="round"/>
    <path d="M 103.47874450683594 363.0171203613281 C 110.63478088378906 368.8531188964844 122.61316680908203 353.87420654296875 112.87249755859375 359.0247497558594 C 104.53423309326172 324.9349060058594 89.53665161132812 323.23846435546875 93.7987289428711 348.8963317871094 C 144.0088653564453 349.7080383300781 165.11915588378906 337.25531005859375 148.18023681640625 318.2989501953125 C 143.56446838378906 346.6346435546875 136.35520935058594 351.27423095703125 103.47874450683594 363.0171203613281" stroke-width="0.0" fill="rgb(96, 73, 202)" opacity="0.031156695" stroke="rgb(0, 0, 0)" stroke-opacity="1.0" stroke-linecap="round" stroke-linejoin="round"/>
    <path d="M 520.936767578125 207.5600128173828 C 517.6090698242188 221.9628143310547 497.2680969238281 223.8982391357422 490.0525207519531 260.86260986328125 C 487.738525390625 234.0161895751953 492.5721130371094 202.2330322265625 484.08447265625 214.00941467285156 C 488.7821350097656 219.30599975585938 485.10736083984375 197.4716033935547 506.5177001953125 194.91647338867188 C 511.8722229003906 184.5826873779297 526.7301025390625 185.38983154296875 520.936767578125 207.5600128173828" stroke-width="0.0" fill="rgb(5, 117, 157)" opacity="0.016422888" stroke="rgb(0, 0, 0)" stroke-opacity="1.0" stroke-linecap="round" stroke-linejoin="round"/>
    <path d="M 478.35406494140625 227.47157287597656 C 482.95263671875 275.73614501953125 490.0318298339844 324.9544372558594 431.36224365234375 318.94586181640625 C 402.6153259277344 287.6339111328125 406.4373779296875 258.32666015625 428.142822265625 218.11978149414062 C 457.1144104003906 218.9913787841797 467.254638671875 237.29226684570312 439.6794738769531 253.46092224121094 C 402.49078369140625 245.27293395996094 425.8049011230469 245.9836883544922 478.35406494140625 227.47157287597656" stroke-width="0.0" fill="rgb(5, 39, 225)" opacity="0.0012261313" stroke="rgb(0, 0, 0)" stroke-opacity="1.0" stroke-linecap="round" stroke-linejoin="round"/>
    <path d="M 491.9878234863281 64.68924713134766 C 510.60699462890625 60.447265625 518.9210815429688 63.63056564331055 520.866943359375 100.14444732666016 C 442.6228942871094 124.88053894042969 420.12628173828125 113.74850463867188 436.4358825683594 53.610267639160156 C 442.5790710449219 60.92599868774414 482.39373779296875 59.150020599365234 519.8232421875 69.93604278564453 C 497.33819580078125 66.89649200439453 499.9493103027344 80.91584014892578 491.9878234863281 64.68924713134766" stroke-width="0.0" fill="rgb(6, 108, 193)" opacity="0.04050321" stroke="rgb(0, 0, 0)" stroke-opacity="1.0" stroke-linecap="round" stroke-linejoin="round"/>
    <path d="M 54.994476318359375 173.31410217285156 C 49.238380432128906 206.61119079589844 46.30193328857422 220.47486877441406 48.49055862426758 244.28488159179688 C 0.9438185691833496 250.3439483642578 -12.972119331359863 234.73092651367188 -4.759472846984863 194.46351623535156 C -4.976953029632568 177.56805419921875 19.16062355041504 175.81680297851562 26.929912567138672 176.3204803466797 C 13.858538627624512 146.7198944091797 56.41021728515625 159.80662536621094 54.994476318359375 173.31410217285156" stroke-width="0.0" fill="rgb(86, 59, 162)" opacity="0.025423456" stroke="rgb(0, 0, 0)" stroke-opacity="1.0" stroke-linecap="round" stroke-linejoin="round"/>
    <path d="M 116.76180267333984 320.20086669921875 C 120.3979721069336 328.0264892578125 95.31897735595703 322.05535888671875 99.84938049316406 337.3211364746094 C 100.3080062866211 344.54937744140625 101.15274047851562 321.6430358886719 113.61027526855469 350.5912170410156 C 102.69026184082031 352.83319091796875 97.3977279663086 321.791259765625 98.67440795898438 305.7806701660156 C 114.0154037475586 302.69964599609375 100.13204193115234 319.3177795410156 116.76180267333984 320.20086669921875" stroke-width="0.0" fill="rgb(20, 87, 134)" opacity="0.0" stroke="rgb(0, 0, 0)" stroke-opacity="1.0" stroke-linecap="round" stroke-linejoin="round"/>
    <path d="M 56.11970901489258 118.39888763427734 C 35.87065124511719 123.63444519042969 39.640045166015625 112.3873062133789 40.33797836303711 112.59977722167969 C 52.915740966796875 95.36204528808594 15.174723625183105 98.15894317626953 -18.83719253540039 99.5087661743164 C -37.59550094604492 4.603568077087402 -39.272300720214844 18.096843719482422 52.710575103759766 21.817096710205078 C 69.7550048828125 26.25181007385254 72.51913452148438 48.0968017578125 56.11970901489258 118.39888763427734" stroke-width="0.0" fill="rgb(85, 38, 240)" opacity="0.083242305" stroke="rgb(0, 0, 0)" stroke-opacity="1.0" stroke-linecap="round" stroke-linejoin="round"/>
  </g>
</svg>
