<?xml version="1.0" ?>
<svg xmlns="http://www.w3.org/2000/svg" version="1.1" width="512" height="512">
  <defs/>
  <g>
    <path d="M 555.257080078125 475.06134033203125 C 572.7365112304688 524.658447265625 563.6664428710938 527.3950805664062 434.2652282714844 518.3038940429688 C 356.03472900390625 557.0908203125 322.1889953613281 537.1990966796875 280.24639892578125 492.71209716796875 C 309.8761291503906 313.7809753417969 361.08880615234375 343.0759582519531 476.078369140625 323.8427734375 C 557.2874145507812 322.9277038574219 561.209716796875 338.31494140625 555.257080078125 475.06134033203125" stroke-width="0.0" fill="rgb(143, 35, 11)" opacity="0.91426194" stroke="rgb(0, 0, 0)" stroke-opacity="1.0" stroke-linecap="round" stroke-linejoin="round"/>
    <path d="M 307.3908386230469 425.6876525878906 C 324.3490295410156 529.02294921875 322.7469177246094 550.673583984375 120.4391098022461 555.66845703125 C -51.20000076293945 517.7235107421875 -51.20000076293945 507.83367919921875 -33.09628677368164 439.4728088378906 C 4.239037036895752 281.37152099609375 1.7366687059402466 302.12353515625 2.742731809616089 230.2866668701172 C 224.41937255859375 286.1093444824219 283.5317077636719 217.3615264892578 307.3908386230469 425.6876525878906" stroke-width="0.0" fill="rgb(89, 157, 0)" opacity="0.8276492" stroke="rgb(0, 0, 0)" stroke-opacity="1.0" stroke-linecap="round" stroke-linejoin="round"/>
    <path d="M 240.24310302734375 300.0433349609375 C 205.4058074951172 417.0244140625 221.06687927246094 466.9172058105469 186.3529815673828 377.0240478515625 C 77.06327819824219 346.0312194824219 11.199166297912598 389.7467346191406 18.697574615478516 184.13327026367188 C -2.4269309043884277 155.7533721923828 16.849578857421875 160.78182983398438 104.13526916503906 108.16944885253906 C 245.24127197265625 121.4642562866211 264.6067199707031 130.3447723388672 240.24310302734375 300.0433349609375" stroke-width="0.0" fill="rgb(240, 119, 70)" opacity="0.7909128" stroke="rgb(0, 0, 0)" stroke-opacity="1.0" stroke-linecap="round" stroke-linejoin="round"/>
    <path d="M 266.14306640625 39.02513885498047 C 286.1286926269531 221.13967895507812 243.02639770507812 175.99302673339844 46.16736602783203 195.4628448486328 C -26.008010864257812 178.9206085205078 -21.132564544677734 158.73843383789062 -16.269113540649414 26.924518585205078 C -14.989005088806152 -15.722881317138672 -7.218327522277832 -19.66063117980957 128.46470642089844 -83.30924224853516 C 247.1209259033203 -79.47335052490234 266.25079345703125 -84.05760192871094 266.14306640625 39.02513885498047" stroke-width="0.0" fill="rgb(0, 12, 129)" opacity="1.0" stroke="rgb(0, 0, 0)" stroke-opacity="1.0" stroke-linecap="round" stroke-linejoin="round"/>
    <path d="M 548.8756713867188 65.46673583984375 C 437.1654357910156 280.4549865722656 435.8280029296875 284.310546875 378.84368896484375 292.3879699707031 C 235.84718322753906 314.4197082519531 221.39810180664062 357.0093688964844 245.09742736816406 234.1425018310547 C 246.43287658691406 50.00051498413086 201.56005859375 -26.881853103637695 294.9942626953125 -84.72212982177734 C 563.2000122070312 -6.244815349578857 563.2000122070312 4.452378749847412 548.8756713867188 65.46673583984375" stroke-width="0.0" fill="rgb(0, 21, 122)" opacity="0.9922453" stroke="rgb(0, 0, 0)" stroke-opacity="1.0" stroke-linecap="round" stroke-linejoin="round"/>
    <path d="M 503.6824645996094 351.3924865722656 C 494.6534118652344 502.5060119628906 545.7548217773438 572.4125366210938 352.748046875 595.5772094726562 C 224.46023559570312 525.9248657226562 230.4914093017578 483.40576171875 227.4853515625 431.1105041503906 C 225.6006317138672 197.228271484375 278.6800842285156 181.3011474609375 306.369384765625 252.37445068359375 C 414.53167724609375 271.03143310546875 458.6811828613281 278.4044189453125 503.6824645996094 351.3924865722656" stroke-width="0.0" fill="rgb(0, 19, 132)" opacity="1.0" stroke="rgb(0, 0, 0)" stroke-opacity="1.0" stroke-linecap="round" stroke-linejoin="round"/>
    <path d="M 592.0420532226562 243.30072021484375 C 578.1714477539062 326.2535095214844 539.106689453125 300.33221435546875 484.2020568847656 373.2973937988281 C 401.7434387207031 384.3786926269531 365.87896728515625 329.8375244140625 389.6197204589844 271.0747375488281 C 442.95794677734375 177.05075073242188 438.6423034667969 120.41619873046875 557.3041381835938 110.89427185058594 C 556.4955444335938 72.69416809082031 566.87841796875 118.94096374511719 592.0420532226562 243.30072021484375" stroke-width="0.0" fill="rgb(38, 172, 79)" opacity="0.9971004" stroke="rgb(0, 0, 0)" stroke-opacity="1.0" stroke-linecap="round" stroke-linejoin="round"/>
    <path d="M 261.81573486328125 273.4404602050781 C 254.2635955810547 324.71197509765625 268.46624755859375 334.1932678222656 230.4125518798828 335.5427551269531 C 228.65322875976562 308.4068908691406 237.27024841308594 308.4044189453125 186.9695281982422 254.6427764892578 C 151.6273193359375 194.7376708984375 146.16690063476562 206.60430908203125 239.9147186279297 193.53736877441406 C 271.5463562011719 196.3505401611328 259.0713806152344 238.81993103027344 261.81573486328125 273.4404602050781" stroke-width="0.0" fill="rgb(0, 7, 156)" opacity="0.9914362" stroke="rgb(0, 0, 0)" stroke-opacity="1.0" stroke-linecap="round" stroke-linejoin="round"/>
    <path d="M 307.3510437011719 56.489261627197266 C 281.7591857910156 122.47122955322266 268.4548034667969 125.36253356933594 250.31166076660156 124.69337463378906 C 256.3957824707031 109.34527587890625 241.59906005859375 102.27922058105469 211.33193969726562 101.30744934082031 C 226.50018310546875 109.3021240234375 245.6536865234375 84.95574188232422 224.97109985351562 86.8511734008789 C 224.4486846923828 91.1710205078125 280.10369873046875 54.620399475097656 307.3510437011719 56.489261627197266" stroke-width="0.0" fill="rgb(255, 255, 255)" opacity="1.0" stroke="rgb(0, 0, 0)" stroke-opacity="1.0" stroke-linecap="round" stroke-linejoin="round"/>
    <path d="M 204.942626953125 315.9482116699219 C 174.2395782470703 487.3333740234375 221.35519409179688 483.0142517089844 157.4444580078125 497.7895812988281 C 169.97593688964844 423.1253967285156 166.58905029296875 387.11676025390625 140.6968231201172 320.76568603515625 C 220.0878448486328 315.1484375 216.7977752685547 304.1793518066406 186.2320556640625 344.0039978027344 C 175.28726196289062 363.79644775390625 166.1431427001953 340.5415344238281 204.942626953125 315.9482116699219" stroke-width="0.0" fill="rgb(255, 255, 145)" opacity="1.0" stroke="rgb(0, 0, 0)" stroke-opacity="1.0" stroke-linecap="round" stroke-linejoin="round"/>
    <path d="M 235.4375762939453 204.5274658203125 C 231.3302459716797 273.36895751953125 238.3455047607422 371.4883117675781 223.6267547607422 327.65484619140625 C 115.91822052001953 315.6300964355469 208.1878204345703 319.4874267578125 181.23504638671875 280.9840087890625 C 40.659515380859375 161.04452514648438 28.949796676635742 159.71995544433594 257.8448791503906 102.52163696289062 C 137.071044921875 223.4630126953125 194.9508514404297 132.2373046875 235.4375762939453 204.5274658203125" stroke-width="0.0" fill="rgb(255, 253, 144)" opacity="1.0" stroke="rgb(0, 0, 0)" stroke-opacity="1.0" stroke-linecap="round" stroke-linejoin="round"/>
    <path d="M 146.80557250976562 275.0403137207031 C 139.19232177734375 289.480224609375 136.4627227783203 335.20526123046875 128.19064331054688 408.9117736816406 C 100.52151489257812 409.3160400390625 100.29932403564453 387.9396057128906 -2.024050712585449 274.1067810058594 C -76.19220733642578 72.07750701904297 -48.49029541015625 105.45158386230469 118.14334106445312 91.0442123413086 C 177.8070526123047 167.2274932861328 173.77513122558594 205.19320678710938 146.80557250976562 275.0403137207031" stroke-width="0.0" fill="rgb(0, 16, 132)" opacity="1.0" stroke="rgb(0, 0, 0)" stroke-opacity="1.0" stroke-linecap="round" stroke-linejoin="round"/>
    <path d="M 271.94769287109375 39.73768615722656 C 242.30575561523438 125.01219940185547 241.24539184570312 134.12054443359375 208.10751342773438 101.84243774414062 C 166.86587524414062 120.24385833740234 86.51641082763672 138.55389404296875 88.78140258789062 71.83612823486328 C 106.73372650146484 -4.889894008636475 110.61331939697266 -28.660079956054688 196.0050811767578 -58.16359329223633 C 214.4270477294922 -23.215394973754883 195.58798217773438 24.258081436157227 271.94769287109375 39.73768615722656" stroke-width="0.0" fill="rgb(0, 0, 156)" opacity="0.9204163" stroke="rgb(0, 0, 0)" stroke-opacity="1.0" stroke-linecap="round" stroke-linejoin="round"/>
    <path d="M 304.3781433105469 149.4517822265625 C 396.9803466796875 256.9556579589844 381.4187316894531 270.4818420410156 230.64205932617188 248.02471923828125 C 151.39846801757812 213.9742889404297 315.1634826660156 177.4656219482422 241.45899963378906 115.32521057128906 C 288.8887939453125 50.812252044677734 306.6478271484375 113.67379760742188 316.4908752441406 143.37179565429688 C 264.9386901855469 167.7007293701172 262.80859375 143.3675994873047 304.3781433105469 149.4517822265625" stroke-width="0.0" fill="rgb(255, 243, 159)" opacity="1.0" stroke="rgb(0, 0, 0)" stroke-opacity="1.0" stroke-linecap="round" stroke-linejoin="round"/>
    <path d="M 105.07844543457031 309.90789794921875 C 71.24793243408203 351.4037170410156 96.05500793457031 371.2021484375 95.79438018798828 369.7503662109375 C 121.861083984375 332.02691650390625 100.11103057861328 315.9179992675781 95.83792877197266 306.32305908203125 C 85.4906997680664 310.64886474609375 58.73143005371094 294.2043151855469 56.88979721069336 318.8216247558594 C 52.695743560791016 421.55572509765625 36.45554733276367 298.9658203125 105.07844543457031 309.90789794921875" stroke-width="0.0" fill="rgb(81, 18, 100)" opacity="0.018681016" stroke="rgb(0, 0, 0)" stroke-opacity="1.0" stroke-linecap="round" stroke-linejoin="round"/>
    <path d="M 215.24806213378906 70.0771484375 C 230.14947509765625 112.7476577758789 163.67576599121094 75.46212005615234 208.76821899414062 132.06163024902344 C 240.02822875976562 34.159915924072266 236.41033935546875 125.63494873046875 186.99781799316406 132.96530151367188 C 254.77137756347656 179.91607666015625 232.99822998046875 62.53116989135742 232.67691040039062 10.842366218566895 C 175.62266540527344 12.30051040649414 216.31166076660156 27.312944412231445 215.24806213378906 70.0771484375" stroke-width="0.0" fill="rgb(255, 188, 0)" opacity="1.0" stroke="rgb(0, 0, 0)" stroke-opacity="1.0" stroke-linecap="round" stroke-linejoin="round"/>
    <path d="M 269.1531677246094 453.39739990234375 C 263.4450378417969 449.6385498046875 262.55523681640625 447.8154296875 237.4770965576172 441.79833984375 C 238.96533203125 505.29913330078125 242.94378662109375 533.875244140625 182.37860107421875 497.0816955566406 C 199.51824951171875 260.8294677734375 242.2515411376953 274.4036560058594 237.80430603027344 427.67578125 C 284.44866943359375 457.6980285644531 263.2891845703125 458.43841552734375 269.1531677246094 453.39739990234375" stroke-width="0.0" fill="rgb(252, 166, 54)" opacity="1.0" stroke="rgb(0, 0, 0)" stroke-opacity="1.0" stroke-linecap="round" stroke-linejoin="round"/>
    <path d="M 156.09768676757812 261.4325866699219 C 182.971923828125 284.684814453125 160.6591796875 289.6862487792969 160.7845916748047 302.5286560058594 C 172.82891845703125 266.91680908203125 171.5249786376953 269.8403625488281 139.8997802734375 330.99560546875 C 157.5570068359375 315.56512451171875 135.26995849609375 321.8878173828125 144.78805541992188 272.70770263671875 C 144.85873413085938 288.63397216796875 138.31373596191406 273.5502014160156 156.09768676757812 261.4325866699219" stroke-width="0.0" fill="rgb(220, 130, 68)" opacity="0.7128871" stroke="rgb(0, 0, 0)" stroke-opacity="1.0" stroke-linecap="round" stroke-linejoin="round"/>
    <path d="M 242.24168395996094 83.44719696044922 C 270.11419677734375 145.49891662597656 260.15338134765625 159.0543670654297 194.46726989746094 158.97772216796875 C 134.7910919189453 133.27334594726562 143.8316192626953 125.70476531982422 180.86160278320312 113.27268981933594 C 189.9694061279297 99.6087875366211 179.13023376464844 70.61492919921875 196.44439697265625 88.33432006835938 C 186.1690216064453 74.9893798828125 183.76792907714844 100.23662567138672 242.24168395996094 83.44719696044922" stroke-width="0.0" fill="rgb(255, 247, 85)" opacity="0.99144804" stroke="rgb(0, 0, 0)" stroke-opacity="1.0" stroke-linecap="round" stroke-linejoin="round"/>
    <path d="M 371.39764404296875 264.2688293457031 C 330.8279113769531 279.1202087402344 345.83056640625 284.29840087890625 324.52593994140625 271.491455078125 C 285.09979248046875 277.5193176269531 315.7940979003906 316.3908996582031 322.1445007324219 223.26516723632812 C 320.6825256347656 241.3419189453125 308.7549743652344 256.7099914550781 339.7998352050781 260.1487121582031 C 375.1507568359375 241.15139770507812 386.179443359375 231.93939208984375 371.39764404296875 264.2688293457031" stroke-width="0.0" fill="rgb(7, 5, 154)" opacity="0.0" stroke="rgb(0, 0, 0)" stroke-opacity="1.0" stroke-linecap="round" stroke-linejoin="round"/>
    <path d="M 166.66265869140625 274.59820556640625 C 204.17881774902344 283.7103576660156 173.84519958496094 287.61236572265625 168.814453125 273.1253662109375 C 156.6883544921875 273.7298583984375 155.161865234375 272.7880554199219 149.51446533203125 271.2259826660156 C 150.15733337402344 244.80731201171875 145.40728759765625 222.2751007080078 166.50506591796875 152.72042846679688 C 232.6317901611328 235.36346435546875 176.82493591308594 203.09805297851562 166.66265869140625 274.59820556640625" stroke-width="0.0" fill="rgb(255, 172, 82)" opacity="0.96555525" stroke="rgb(0, 0, 0)" stroke-opacity="1.0" stroke-linecap="round" stroke-linejoin="round"/>
    <path d="M 205.48414611816406 81.76084899902344 C 221.11294555664062 95.5629653930664 217.21963500976562 129.60916137695312 172.51458740234375 123.91793060302734 C 186.56292724609375 107.15963745117188 181.73512268066406 81.7470474243164 164.92437744140625 38.97550964355469 C 124.54188537597656 37.97088623046875 173.4351806640625 16.91938018798828 182.88858032226562 23.187654495239258 C 179.41653442382812 41.07459259033203 195.85955810546875 79.7031478881836 205.48414611816406 81.76084899902344" stroke-width="0.0" fill="rgb(255, 195, 0)" opacity="0.99796075" stroke="rgb(0, 0, 0)" stroke-opacity="1.0" stroke-linecap="round" stroke-linejoin="round"/>
    <path d="M 271.8756408691406 450.7834167480469 C 267.6940612792969 463.6483154296875 266.7432861328125 441.6793518066406 272.4283752441406 484.3063049316406 C 265.2461853027344 499.3531799316406 239.55197143554688 494.0094909667969 243.43240356445312 490.2377014160156 C 238.9263458251953 422.0213317871094 234.96412658691406 444.7698059082031 241.1138916015625 418.4898986816406 C 266.16534423828125 437.4123840332031 272.9004211425781 425.9193420410156 271.8756408691406 450.7834167480469" stroke-width="0.0" fill="rgb(1, 12, 134)" opacity="0.99526095" stroke="rgb(0, 0, 0)" stroke-opacity="1.0" stroke-linecap="round" stroke-linejoin="round"/>
    <path d="M 346.0201721191406 220.83828735351562 C 356.7138671875 241.91659545898438 352.4789733886719 223.5688934326172 332.90948486328125 223.83831787109375 C 315.9797058105469 257.7734375 292.6195983886719 252.81031799316406 290.2834777832031 219.4842987060547 C 301.38861083984375 224.28851318359375 299.6845397949219 224.33700561523438 336.6434020996094 228.18878173828125 C 392.385498046875 209.48956298828125 373.0606994628906 217.90260314941406 346.0201721191406 220.83828735351562" stroke-width="0.0" fill="rgb(28, 2, 211)" opacity="0.0" stroke="rgb(0, 0, 0)" stroke-opacity="1.0" stroke-linecap="round" stroke-linejoin="round"/>
    <path d="M 172.76248168945312 153.91757202148438 C 177.4451904296875 176.62185668945312 161.79466247558594 185.1349334716797 114.94046020507812 176.97708129882812 C 86.07300567626953 174.01922607421875 87.35400390625 170.64720153808594 71.50499725341797 155.23805236816406 C 45.72502899169922 96.29190063476562 24.63482666015625 84.10635375976562 103.44037628173828 92.58426666259766 C 144.59912109375 94.10298156738281 162.04464721679688 113.52003479003906 172.76248168945312 153.91757202148438" stroke-width="0.0" fill="rgb(255, 255, 253)" opacity="1.0" stroke="rgb(0, 0, 0)" stroke-opacity="1.0" stroke-linecap="round" stroke-linejoin="round"/>
    <path d="M 137.89450073242188 395.44207763671875 C 127.12802124023438 415.1705017089844 107.36869049072266 405.2440490722656 102.23527526855469 403.23968505859375 C 77.03265380859375 391.3642883300781 90.01406860351562 410.2616882324219 131.9405517578125 398.6810302734375 C 134.07440185546875 366.00408935546875 116.26761627197266 364.0473327636719 144.67999267578125 341.1568298339844 C 136.07826232910156 282.97821044921875 145.15646362304688 329.1964111328125 137.89450073242188 395.44207763671875" stroke-width="0.0" fill="rgb(237, 138, 57)" opacity="0.80790955" stroke="rgb(0, 0, 0)" stroke-opacity="1.0" stroke-linecap="round" stroke-linejoin="round"/>
    <path d="M 121.54428100585938 450.6222839355469 C 139.52040100097656 503.57220458984375 160.0469512939453 484.9366455078125 92.96257781982422 487.6907653808594 C 85.40914154052734 476.4500732421875 99.94023895263672 487.8083801269531 113.97803497314453 477.7024841308594 C 113.73432922363281 440.95849609375 106.44023132324219 429.2571105957031 93.27119445800781 393.08367919921875 C 91.61767578125 387.77984619140625 80.29241180419922 401.7442626953125 121.54428100585938 450.6222839355469" stroke-width="0.0" fill="rgb(132, 168, 61)" opacity="0.5872355" stroke="rgb(0, 0, 0)" stroke-opacity="1.0" stroke-linecap="round" stroke-linejoin="round"/>
    <path d="M 152.35116577148438 140.54458618164062 C 155.02798461914062 174.40191650390625 112.25859832763672 136.54635620117188 79.09342193603516 136.86993408203125 C 67.62621307373047 130.7109375 82.53750610351562 134.1305389404297 77.35449981689453 134.86036682128906 C 67.32048797607422 134.936279296875 88.45153045654297 129.00750732421875 114.81712341308594 146.7924346923828 C 82.67969512939453 105.86901092529297 100.44331359863281 103.89488983154297 152.35116577148438 140.54458618164062" stroke-width="0.0" fill="rgb(0, 0, 154)" opacity="1.0" stroke="rgb(0, 0, 0)" stroke-opacity="1.0" stroke-linecap="round" stroke-linejoin="round"/>
    <path d="M 57.96172332763672 109.57440185546875 C 77.84749603271484 115.81525421142578 60.80634689331055 106.60438537597656 84.20281219482422 118.6546401977539 C 58.640193939208984 108.3098373413086 13.660140991210938 79.9770736694336 39.47651290893555 101.70743560791016 C 29.069416046142578 97.88563537597656 55.08063888549805 101.47866821289062 35.15989685058594 97.26515197753906 C 68.78280639648438 74.07755279541016 79.99456024169922 63.16968536376953 57.96172332763672 109.57440185546875" stroke-width="0.0" fill="rgb(65, 27, 222)" opacity="0.0" stroke="rgb(0, 0, 0)" stroke-opacity="1.0" stroke-linecap="round" stroke-linejoin="round"/>
    <path d="M 38.13765335083008 312.31390380859375 C 54.4156379699707 342.6661682128906 49.99814987182617 325.2669372558594 -10.227602005004883 319.95013427734375 C -12.466375350952148 367.07684326171875 25.714027404785156 348.4150085449219 38.541988372802734 320.1622009277344 C 40.20645523071289 317.9337463378906 28.59943389892578 309.0884094238281 18.377979278564453 298.9037780761719 C 36.278751373291016 314.3599548339844 42.383033752441406 321.4717712402344 38.13765335083008 312.31390380859375" stroke-width="0.0" fill="rgb(0, 13, 141)" opacity="0.991531" stroke="rgb(0, 0, 0)" stroke-opacity="1.0" stroke-linecap="round" stroke-linejoin="round"/>
    <path d="M 397.54296875 252.12203979492188 C 401.8160095214844 290.9059753417969 396.84716796875 289.47412109375 373.4644470214844 283.07452392578125 C 358.52618408203125 246.85240173339844 364.30828857421875 265.39373779296875 356.05322265625 230.0565185546875 C 351.08123779296875 204.47410583496094 340.26812744140625 183.68089294433594 337.2217712402344 193.4858856201172 C 364.8359680175781 211.34323120117188 376.2022399902344 206.25233459472656 397.54296875 252.12203979492188" stroke-width="0.0" fill="rgb(12, 54, 131)" opacity="0.06800065" stroke="rgb(0, 0, 0)" stroke-opacity="1.0" stroke-linecap="round" stroke-linejoin="round"/>
    <path d="M 218.11700439453125 237.3104248046875 C 235.6756591796875 257.6054992675781 225.30393981933594 279.4735107421875 203.47732543945312 290.4603271484375 C 184.3620147705078 270.3347473144531 190.1627655029297 248.0682830810547 180.6137237548828 255.67835998535156 C 183.18792724609375 260.22369384765625 184.88265991210938 238.65695190429688 205.70811462402344 274.2785949707031 C 183.11659240722656 265.9063720703125 169.75047302246094 243.02008056640625 218.11700439453125 237.3104248046875" stroke-width="0.0" fill="rgb(154, 43, 15)" opacity="0.96682984" stroke="rgb(0, 0, 0)" stroke-opacity="1.0" stroke-linecap="round" stroke-linejoin="round"/>
    <path d="M 223.05674743652344 227.6412353515625 C 200.662353515625 219.28924560546875 175.15335083007812 259.9843444824219 193.05853271484375 251.1026611328125 C 202.34674072265625 242.19105529785156 167.58787536621094 245.28134155273438 164.7838592529297 220.95828247070312 C 188.82742309570312 226.16818237304688 202.654541015625 235.4192352294922 207.9524383544922 179.134521484375 C 211.702392578125 239.66978454589844 205.8631591796875 260.3788146972656 223.05674743652344 227.6412353515625" stroke-width="0.0" fill="rgb(255, 215, 49)" opacity="0.061973155" stroke="rgb(0, 0, 0)" stroke-opacity="1.0" stroke-linecap="round" stroke-linejoin="round"/>
    <path d="M 222.68551635742188 373.42047119140625 C 212.1611328125 389.0783386230469 182.74481201171875 402.7672424316406 177.97515869140625 351.97381591796875 C 174.18910217285156 351.96929931640625 173.77828979492188 334.94903564453125 179.10394287109375 334.9679260253906 C 189.49757385253906 334.5821228027344 177.2300262451172 341.13043212890625 176.10601806640625 343.5147705078125 C 192.78956604003906 303.4916076660156 225.2127685546875 304.93707275390625 222.68551635742188 373.42047119140625" stroke-width="0.0" fill="rgb(144, 41, 3)" opacity="1.0" stroke="rgb(0, 0, 0)" stroke-opacity="1.0" stroke-linecap="round" stroke-linejoin="round"/>
    <path d="M 77.56332397460938 132.34591674804688 C 109.32673645019531 178.86830139160156 101.61042785644531 175.21310424804688 99.11305236816406 151.19566345214844 C 62.580543518066406 152.32550048828125 57.36862564086914 134.2620086669922 55.66731643676758 135.4528045654297 C 62.61000442504883 121.38673400878906 64.8993148803711 102.396240234375 82.93995666503906 80.68983459472656 C 76.46656799316406 82.51197052001953 69.05661010742188 84.80181121826172 77.56332397460938 132.34591674804688" stroke-width="0.0" fill="rgb(9, 4, 219)" opacity="0.0" stroke="rgb(0, 0, 0)" stroke-opacity="1.0" stroke-linecap="round" stroke-linejoin="round"/>
    <path d="M 37.0550422668457 112.91069793701172 C 31.700048446655273 142.1485137939453 37.520999908447266 157.2266845703125 28.56035804748535 142.3183135986328 C -4.848049163818359 130.10696411132812 -8.501832008361816 137.068359375 -19.34365463256836 129.28387451171875 C -34.648468017578125 95.90879821777344 -20.191316604614258 95.11619567871094 34.2110481262207 98.96551513671875 C 31.171350479125977 117.02621459960938 43.51304244995117 103.28984832763672 37.0550422668457 112.91069793701172" stroke-width="0.0" fill="rgb(7, 39, 117)" opacity="0.07455082" stroke="rgb(0, 0, 0)" stroke-opacity="1.0" stroke-linecap="round" stroke-linejoin="round"/>
    <path d="M 156.18663024902344 153.61907958984375 C 171.93016052246094 137.13467407226562 161.5443115234375 169.82754516601562 169.66278076171875 185.66168212890625 C 170.25462341308594 203.06976318359375 139.6343536376953 185.4431915283203 137.13807678222656 226.48641967773438 C 144.8545379638672 182.84295654296875 146.67433166503906 169.84353637695312 163.4581298828125 146.0193328857422 C 149.34518432617188 129.6482391357422 142.8243408203125 133.38267517089844 156.18663024902344 153.61907958984375" stroke-width="0.0" fill="rgb(33, 8, 208)" opacity="0.0" stroke="rgb(0, 0, 0)" stroke-opacity="1.0" stroke-linecap="round" stroke-linejoin="round"/>
    <path d="M 396.3229064941406 205.16407775878906 C 445.2756042480469 251.38589477539062 415.14715576171875 291.47113037109375 363.1170654296875 254.87841796875 C 351.86614990234375 227.5910186767578 327.73175048828125 229.13998413085938 331.572265625 220.5309295654297 C 335.26409912109375 174.36219787597656 325.0598449707031 161.9888153076172 350.6898498535156 167.7047119140625 C 387.37738037109375 160.6956787109375 380.62060546875 172.33773803710938 396.3229064941406 205.16407775878906" stroke-width="0.0" fill="rgb(255, 134, 11)" opacity="0.99885124" stroke="rgb(0, 0, 0)" stroke-opacity="1.0" stroke-linecap="round" stroke-linejoin="round"/>
    <path d="M 346.8370666503906 159.79005432128906 C 348.3171691894531 197.81202697753906 349.1856689453125 222.24746704101562 324.3636474609375 187.00648498535156 C 298.6415710449219 158.6432647705078 269.2660217285156 153.69630432128906 286.0511779785156 152.7279815673828 C 303.4919128417969 145.653076171875 282.9226989746094 138.15353393554688 304.9521484375 122.4037094116211 C 315.12542724609375 125.07125854492188 315.0883483886719 141.04933166503906 346.8370666503906 159.79005432128906" stroke-width="0.0" fill="rgb(255, 189, 0)" opacity="1.0" stroke="rgb(0, 0, 0)" stroke-opacity="1.0" stroke-linecap="round" stroke-linejoin="round"/>
    <path d="M 125.0897216796875 -29.533220291137695 C 123.30802917480469 17.189300537109375 135.6721649169922 46.1177864074707 134.14312744140625 75.60335540771484 C 87.6837387084961 83.4035873413086 72.11055755615234 73.27582550048828 61.761844635009766 28.179908752441406 C 54.24642562866211 -23.323055267333984 111.70216369628906 -13.603622436523438 131.37294006347656 9.216469764709473 C 140.91429138183594 6.964689254760742 164.10438537597656 20.21934700012207 125.0897216796875 -29.533220291137695" stroke-width="0.0" fill="rgb(0, 31, 77)" opacity="0.19524474" stroke="rgb(0, 0, 0)" stroke-opacity="1.0" stroke-linecap="round" stroke-linejoin="round"/>
    <path d="M 112.74359130859375 333.76947021484375 C 68.36978149414062 350.69329833984375 66.20772552490234 357.1739501953125 65.14202117919922 353.20068359375 C 27.16287612915039 343.8509826660156 22.216657638549805 327.0242004394531 -5.147564888000488 324.920654296875 C -18.054359436035156 262.56622314453125 -10.226265907287598 256.9239501953125 57.554325103759766 269.6094970703125 C 59.89426803588867 302.615966796875 107.29254913330078 266.8900451660156 112.74359130859375 333.76947021484375" stroke-width="0.0" fill="rgb(0, 17, 129)" opacity="0.99584246" stroke="rgb(0, 0, 0)" stroke-opacity="1.0" stroke-linecap="round" stroke-linejoin="round"/>
    <path d="M 250.81686401367188 35.41193389892578 C 246.781982421875 18.863006591796875 236.82664489746094 38.249385833740234 232.2656707763672 63.84423065185547 C 245.0105743408203 44.676395416259766 243.44085693359375 47.03175354003906 209.46728515625 44.41793441772461 C 209.0797576904297 22.698654174804688 234.9501953125 26.201208114624023 249.0208740234375 28.81220817565918 C 250.40870666503906 30.20689582824707 250.92800903320312 23.67082405090332 250.81686401367188 35.41193389892578" stroke-width="0.0" fill="rgb(39, 79, 9)" opacity="0.0" stroke="rgb(0, 0, 0)" stroke-opacity="1.0" stroke-linecap="round" stroke-linejoin="round"/>
    <path d="M 139.8933868408203 350.45294189453125 C 110.01385498046875 342.3345642089844 134.05162048339844 369.994384765625 129.01284790039062 376.4734191894531 C 126.8105697631836 386.0151672363281 125.96978759765625 366.0455017089844 142.4976806640625 339.3926696777344 C 133.2093505859375 312.3373718261719 124.75538635253906 329.2051696777344 127.89697265625 321.533935546875 C 133.45127868652344 316.498779296875 131.40249633789062 331.5839538574219 139.8933868408203 350.45294189453125" stroke-width="0.0" fill="rgb(228, 75, 98)" opacity="0.040047713" stroke="rgb(0, 0, 0)" stroke-opacity="1.0" stroke-linecap="round" stroke-linejoin="round"/>
    <path d="M 194.28919982910156 386.3907775878906 C 179.76638793945312 394.8022155761719 203.7152862548828 392.8096618652344 177.71046447753906 383.6965026855469 C 182.4610595703125 391.2768249511719 185.46929931640625 376.1049499511719 146.04129028320312 361.20849609375 C 134.18409729003906 376.07183837890625 183.25474548339844 376.9631042480469 222.6067352294922 368.31951904296875 C 201.98377990722656 364.1143493652344 215.24526977539062 391.5013732910156 194.28919982910156 386.3907775878906" stroke-width="0.0" fill="rgb(252, 93, 79)" opacity="0.0" stroke="rgb(0, 0, 0)" stroke-opacity="1.0" stroke-linecap="round" stroke-linejoin="round"/>
    <path d="M 21.097021102905273 196.99578857421875 C 32.25156021118164 177.9871368408203 35.64908981323242 195.90362548828125 38.885311126708984 185.09097290039062 C 7.694624900817871 205.37704467773438 1.3630176782608032 200.46200561523438 -9.154468536376953 167.5779571533203 C 14.740228652954102 191.11363220214844 20.92083168029785 159.06689453125 6.754644393920898 169.0757598876953 C 66.34526824951172 158.99871826171875 74.16165161132812 173.16517639160156 21.097021102905273 196.99578857421875" stroke-width="0.0" fill="rgb(4, 25, 97)" opacity="0.024302933" stroke="rgb(0, 0, 0)" stroke-opacity="1.0" stroke-linecap="round" stroke-linejoin="round"/>
    <path d="M 449.6384582519531 316.48944091796875 C 468.18798828125 331.49267578125 450.087158203125 339.55718994140625 417.41851806640625 323.5062561035156 C 415.5662841796875 328.07940673828125 418.46844482421875 319.3226623535156 415.603271484375 288.5528869628906 C 407.0978698730469 233.35409545898438 402.447998046875 251.56741333007812 434.9996032714844 255.71859741210938 C 452.76800537109375 254.6051025390625 443.7623291015625 259.9092102050781 449.6384582519531 316.48944091796875" stroke-width="0.0" fill="rgb(74, 92, 78)" opacity="0.00021228407" stroke="rgb(0, 0, 0)" stroke-opacity="1.0" stroke-linecap="round" stroke-linejoin="round"/>
    <path d="M 24.38283348083496 135.1235809326172 C 43.71827697753906 160.13577270507812 32.18977355957031 168.2410125732422 35.57094192504883 161.2529296875 C 51.46470260620117 171.04916381835938 9.432720184326172 177.6981658935547 -24.54885482788086 170.8312225341797 C -18.83944320678711 110.21011352539062 -18.791025161743164 109.71729278564453 0.16179591417312622 89.49140930175781 C 29.841121673583984 85.56827545166016 28.936077117919922 96.3929443359375 24.38283348083496 135.1235809326172" stroke-width="0.0" fill="rgb(9, 39, 90)" opacity="0.08574546" stroke="rgb(0, 0, 0)" stroke-opacity="1.0" stroke-linecap="round" stroke-linejoin="round"/>
    <path d="M 537.708740234375 227.91941833496094 C 531.7335815429688 244.54856872558594 517.0020751953125 252.51113891601562 484.145751953125 225.2401885986328 C 486.1998291015625 258.2783508300781 525.6600952148438 261.6260986328125 523.044921875 245.5724334716797 C 483.83477783203125 233.19769287109375 498.56329345703125 232.271728515625 508.1876525878906 231.4397430419922 C 501.7470397949219 250.33395385742188 504.80389404296875 251.1818389892578 537.708740234375 227.91941833496094" stroke-width="0.0" fill="rgb(39, 129, 108)" opacity="0.012204345" stroke="rgb(0, 0, 0)" stroke-opacity="1.0" stroke-linecap="round" stroke-linejoin="round"/>
    <path d="M 287.46893310546875 97.95635223388672 C 285.769775390625 143.91944885253906 286.0608215332031 117.92169189453125 248.47462463378906 121.72472381591797 C 197.7633514404297 137.08888244628906 196.3861541748047 133.6623077392578 200.18588256835938 84.09257507324219 C 214.89556884765625 94.26532745361328 224.5829620361328 79.57221221923828 234.3930206298828 46.784095764160156 C 245.1657257080078 75.47688293457031 254.0732421875 85.93622589111328 287.46893310546875 97.95635223388672" stroke-width="0.0" fill="rgb(255, 235, 0)" opacity="1.0" stroke="rgb(0, 0, 0)" stroke-opacity="1.0" stroke-linecap="round" stroke-linejoin="round"/>
    <path d="M 439.8302917480469 289.8604736328125 C 451.0689392089844 291.99005126953125 447.9629211425781 284.7112731933594 451.5964660644531 296.2314758300781 C 448.5504150390625 269.9185791015625 450.59930419921875 231.7812042236328 420.4187316894531 235.7978515625 C 379.2814025878906 232.28427124023438 413.37835693359375 224.7846221923828 433.9329833984375 240.45797729492188 C 425.0758972167969 218.8590850830078 436.9095764160156 233.74366760253906 439.8302917480469 289.8604736328125" stroke-width="0.0" fill="rgb(115, 115, 129)" opacity="0.024109863" stroke="rgb(0, 0, 0)" stroke-opacity="1.0" stroke-linecap="round" stroke-linejoin="round"/>
    <path d="M 532.0398559570312 142.44815063476562 C 544.1329345703125 165.79281616210938 548.0877685546875 176.5037384033203 524.765625 182.3174285888672 C 505.3236389160156 166.4724578857422 507.08184814453125 142.8313446044922 481.81463623046875 154.66583251953125 C 469.7524108886719 147.65890502929688 482.02520751953125 127.33763122558594 517.3059692382812 128.33200073242188 C 514.49853515625 119.80044555664062 524.5806274414062 129.99195861816406 532.0398559570312 142.44815063476562" stroke-width="0.0" fill="rgb(3, 207, 23)" opacity="0.23870528" stroke="rgb(0, 0, 0)" stroke-opacity="1.0" stroke-linecap="round" stroke-linejoin="round"/>
    <path d="M 515.8648071289062 187.08677673339844 C 524.4579467773438 170.21421813964844 510.0364685058594 172.67236328125 515.961669921875 177.5399932861328 C 503.3889465332031 175.3354034423828 494.2709045410156 173.12486267089844 499.54156494140625 174.47726440429688 C 488.8503723144531 164.5601043701172 501.6499328613281 165.5516815185547 499.17041015625 161.30616760253906 C 473.7300720214844 176.2613525390625 499.5689697265625 195.19223022460938 515.8648071289062 187.08677673339844" stroke-width="0.0" fill="rgb(24, 53, 114)" opacity="0.0" stroke="rgb(0, 0, 0)" stroke-opacity="1.0" stroke-linecap="round" stroke-linejoin="round"/>
    <path d="M 48.48226547241211 366.0225830078125 C 101.971923828125 324.36163330078125 96.96540832519531 379.359130859375 53.71290588378906 369.55517578125 C 53.02326202392578 358.1793212890625 67.1788558959961 348.53076171875 62.014469146728516 345.1103515625 C 64.8049545288086 327.401611328125 51.5294303894043 335.80279541015625 63.05940628051758 340.780517578125 C 49.060367584228516 335.4303283691406 41.41671371459961 340.23834228515625 48.48226547241211 366.0225830078125" stroke-width="0.0" fill="rgb(46, 67, 137)" opacity="0.008131163" stroke="rgb(0, 0, 0)" stroke-opacity="1.0" stroke-linecap="round" stroke-linejoin="round"/>
    <path d="M 397.2710266113281 229.8892059326172 C 393.2801818847656 285.83013916015625 368.9844665527344 260.2727355957031 326.4436340332031 266.966552734375 C 311.02191162109375 255.7755584716797 291.3398132324219 268.58404541015625 295.2749328613281 267.251220703125 C 308.6424255371094 252.6265869140625 331.0347595214844 245.72015380859375 334.7672119140625 231.079345703125 C 333.8957214355469 221.956787109375 363.9985046386719 215.71493530273438 397.2710266113281 229.8892059326172" stroke-width="0.0" fill="rgb(12, 17, 202)" opacity="0.0" stroke="rgb(0, 0, 0)" stroke-opacity="1.0" stroke-linecap="round" stroke-linejoin="round"/>
    <path d="M 473.9993591308594 145.04095458984375 C 518.2247314453125 140.76832580566406 510.7291259765625 120.57626342773438 472.3300476074219 107.14633178710938 C 467.9993896484375 146.77572631835938 463.6064758300781 155.0133056640625 483.2779846191406 164.5886993408203 C 512.4242553710938 178.30543518066406 537.2262573242188 124.8793716430664 518.0530395507812 82.41374206542969 C 451.00244140625 116.82073211669922 447.4722900390625 149.65020751953125 473.9993591308594 145.04095458984375" stroke-width="0.0" fill="rgb(0, 60, 85)" opacity="0.0" stroke="rgb(0, 0, 0)" stroke-opacity="1.0" stroke-linecap="round" stroke-linejoin="round"/>
    <path d="M 478.10791015625 461.0269775390625 C 479.5954284667969 477.7000427246094 484.65155029296875 492.07904052734375 467.7917785644531 505.354248046875 C 438.4589538574219 483.57183837890625 414.4085998535156 480.3585510253906 422.7004089355469 456.1239318847656 C 454.0880432128906 462.8973083496094 481.1861877441406 462.7887268066406 473.1371765136719 454.833251953125 C 478.7626647949219 446.3066711425781 487.73406982421875 448.9119567871094 478.10791015625 461.0269775390625" stroke-width="0.0" fill="rgb(21, 6, 146)" opacity="0.044432465" stroke="rgb(0, 0, 0)" stroke-opacity="1.0" stroke-linecap="round" stroke-linejoin="round"/>
    <path d="M 519.3407592773438 376.27032470703125 C 509.80780029296875 379.8669128417969 488.6426696777344 383.32757568359375 476.1502685546875 383.2786865234375 C 480.32086181640625 390.56671142578125 481.1243591308594 386.1471862792969 479.544921875 395.6838684082031 C 490.0851745605469 378.5270690917969 495.31427001953125 371.2486267089844 485.8799743652344 345.77972412109375 C 504.8658752441406 360.40985107421875 515.7737426757812 367.3908996582031 519.3407592773438 376.27032470703125" stroke-width="0.0" fill="rgb(58, 51, 61)" opacity="0.04391469" stroke="rgb(0, 0, 0)" stroke-opacity="1.0" stroke-linecap="round" stroke-linejoin="round"/>
    <path d="M 163.46871948242188 427.5594177246094 C 179.3206787109375 444.9112548828125 188.99266052246094 443.8938293457031 172.89706420898438 440.343017578125 C 152.13058471679688 429.1484375 144.80133056640625 426.9344787597656 139.6751251220703 454.1288757324219 C 140.969482421875 430.2215270996094 145.0469970703125 403.5425109863281 156.23171997070312 420.02734375 C 167.77053833007812 421.51812744140625 160.4284210205078 433.3567810058594 163.46871948242188 427.5594177246094" stroke-width="0.0" fill="rgb(100, 34, 180)" opacity="0.035201617" stroke="rgb(0, 0, 0)" stroke-opacity="1.0" stroke-linecap="round" stroke-linejoin="round"/>
    <path d="M 96.94332122802734 111.73918151855469 C 99.77823638916016 157.4820098876953 109.1776351928711 174.4085693359375 67.59720611572266 181.51124572753906 C 73.18741607666016 151.9700164794922 67.56316375732422 137.47901916503906 56.13511657714844 142.8153076171875 C 67.62324523925781 171.23025512695312 78.21237182617188 156.7603302001953 51.10200119018555 131.40049743652344 C 85.28096008300781 135.732666015625 108.10859680175781 121.90316772460938 96.94332122802734 111.73918151855469" stroke-width="0.0" fill="rgb(5, 9, 183)" opacity="0.0" stroke="rgb(0, 0, 0)" stroke-opacity="1.0" stroke-linecap="round" stroke-linejoin="round"/>
    <path d="M 158.25450134277344 136.31381225585938 C 174.69644165039062 121.70016479492188 175.322509765625 138.748291015625 173.75636291503906 166.5850830078125 C 158.80931091308594 169.25897216796875 167.03842163085938 150.85540771484375 174.88279724121094 121.68498229980469 C 182.39202880859375 135.9685821533203 179.88677978515625 132.07620239257812 158.056396484375 122.0443115234375 C 164.1324920654297 153.63543701171875 173.63540649414062 159.78341674804688 158.25450134277344 136.31381225585938" stroke-width="0.0" fill="rgb(255, 255, 210)" opacity="0.015088393" stroke="rgb(0, 0, 0)" stroke-opacity="1.0" stroke-linecap="round" stroke-linejoin="round"/>
    <path d="M 171.69009399414062 391.0886535644531 C 150.7880401611328 385.08758544921875 148.05450439453125 371.74774169921875 176.05918884277344 403.1880798339844 C 162.22901916503906 466.0899353027344 136.95376586914062 448.7111511230469 127.02803802490234 373.0945739746094 C 154.37037658691406 361.4132385253906 169.2623748779297 373.0268249511719 155.0636749267578 387.57855224609375 C 157.78118896484375 370.22119140625 159.4151611328125 386.50787353515625 171.69009399414062 391.0886535644531" stroke-width="0.0" fill="rgb(202, 0, 0)" opacity="0.70619255" stroke="rgb(0, 0, 0)" stroke-opacity="1.0" stroke-linecap="round" stroke-linejoin="round"/>
    <path d="M 464.96795654296875 149.19114685058594 C 460.5866394042969 136.48126220703125 461.3254089355469 163.86851501464844 461.8321838378906 129.42630004882812 C 453.837890625 156.7030487060547 463.671630859375 187.92218017578125 487.4358215332031 92.54525756835938 C 471.5623779296875 100.082275390625 463.7982482910156 125.7856216430664 439.04718017578125 116.01773071289062 C 449.77783203125 119.83721923828125 449.2667541503906 136.06163024902344 464.96795654296875 149.19114685058594" stroke-width="0.0" fill="rgb(39, 98, 159)" opacity="0.0" stroke="rgb(0, 0, 0)" stroke-opacity="1.0" stroke-linecap="round" stroke-linejoin="round"/>
    <path d="M 241.90269470214844 283.3026428222656 C 254.40757751464844 298.6625061035156 260.0882873535156 332.8662414550781 263.72052001953125 358.37310791015625 C 224.61827087402344 357.1242980957031 221.4401397705078 348.011962890625 247.05865478515625 321.62115478515625 C 244.44619750976562 302.0953674316406 232.3037109375 300.5901794433594 203.6990203857422 309.9513854980469 C 229.17601013183594 318.7648010253906 242.334716796875 327.47198486328125 241.90269470214844 283.3026428222656" stroke-width="0.0" fill="rgb(3, 13, 136)" opacity="0.0054874774" stroke="rgb(0, 0, 0)" stroke-opacity="1.0" stroke-linecap="round" stroke-linejoin="round"/>
    <path d="M 143.90489196777344 486.2335510253906 C 173.20272827148438 476.9747619628906 149.17185974121094 482.5348815917969 144.4130096435547 443.8966369628906 C 162.91722106933594 459.5018310546875 150.2244873046875 466.34893798828125 154.9168243408203 505.3037109375 C 135.49423217773438 476.2069091796875 155.7503662109375 450.2829895019531 152.2062225341797 428.6366271972656 C 127.09710693359375 455.09197998046875 116.2782974243164 477.5695495605469 143.90489196777344 486.2335510253906" stroke-width="0.0" fill="rgb(132, 83, 47)" opacity="0.07217414" stroke="rgb(0, 0, 0)" stroke-opacity="1.0" stroke-linecap="round" stroke-linejoin="round"/>
  </g>
</svg>
