<?xml version="1.0" ?>
<svg xmlns="http://www.w3.org/2000/svg" version="1.1" width="512" height="512">
  <defs/>
  <g>
    <path d="M 579.7945556640625 395.55535888671875 C 538.6600952148438 511.1578369140625 545.4749145507812 524.1809692382812 421.0811462402344 572.1038208007812 C 312.4570617675781 589.1939697265625 252.35691833496094 585.3272705078125 155.35232543945312 450.8896789550781 C 258.8802490234375 275.8663024902344 340.8473205566406 302.4369812011719 421.393310546875 210.569091796875 C 584.812744140625 252.04840087890625 585.0867309570312 267.4702453613281 579.7945556640625 395.55535888671875" stroke-width="0.0" fill="rgb(255, 188, 0)" opacity="0.9412577" stroke="rgb(0, 0, 0)" stroke-opacity="1.0" stroke-linecap="round" stroke-linejoin="round"/>
    <path d="M 284.97894287109375 241.7048797607422 C 208.38345336914062 542.3663330078125 261.00115966796875 565.842529296875 118.98884582519531 569.3624267578125 C -51.20000076293945 515.2716064453125 -49.78134536743164 499.9927062988281 -46.781410217285156 297.9969482421875 C -23.199634552001953 208.0718536376953 29.38457679748535 201.4774932861328 176.11416625976562 118.75660705566406 C 323.0782165527344 241.73252868652344 230.99044799804688 213.6072235107422 284.97894287109375 241.7048797607422" stroke-width="0.0" fill="rgb(132, 251, 2)" opacity="0.96052885" stroke="rgb(0, 0, 0)" stroke-opacity="1.0" stroke-linecap="round" stroke-linejoin="round"/>
    <path d="M 314.65362548828125 80.99268341064453 C 75.27998352050781 94.37703704833984 200.56005859375 137.9320068359375 89.94322204589844 201.2525634765625 C -20.443920135498047 204.97247314453125 -15.705731391906738 256.0536193847656 -3.2826955318450928 111.2555160522461 C -29.587480545043945 -23.40097427368164 -15.50919246673584 -28.621557235717773 187.33572387695312 -30.47269630432129 C 320.396728515625 -35.23150634765625 415.6464538574219 9.37125301361084 314.65362548828125 80.99268341064453" stroke-width="0.0" fill="rgb(255, 218, 27)" opacity="0.89427674" stroke="rgb(0, 0, 0)" stroke-opacity="1.0" stroke-linecap="round" stroke-linejoin="round"/>
    <path d="M 436.2895202636719 226.23330688476562 C 441.14581298828125 254.85122680664062 387.1516418457031 260.0674743652344 393.5382080078125 251.19520568847656 C 222.11717224121094 315.0316467285156 285.48724365234375 228.7486114501953 248.4197235107422 205.25962829589844 C 375.2035217285156 132.41014099121094 341.99273681640625 73.5318374633789 322.4181823730469 81.82134246826172 C 396.6563415527344 139.6836395263672 389.7160949707031 140.47244262695312 436.2895202636719 226.23330688476562" stroke-width="0.0" fill="rgb(56, 176, 11)" opacity="0.9919675" stroke="rgb(0, 0, 0)" stroke-opacity="1.0" stroke-linecap="round" stroke-linejoin="round"/>
    <path d="M 384.4455261230469 108.5865249633789 C 415.4480285644531 219.10430908203125 346.5025634765625 250.41026306152344 167.9587860107422 202.39466857910156 C 91.18810272216797 193.69418334960938 105.46574401855469 211.67233276367188 84.7514419555664 170.16928100585938 C 120.01814270019531 145.29486083984375 107.572021484375 75.13593292236328 216.8545379638672 49.72743225097656 C 276.4714660644531 62.661380767822266 336.0737609863281 68.59573364257812 384.4455261230469 108.5865249633789" stroke-width="0.0" fill="rgb(74, 192, 22)" opacity="0.9996271" stroke="rgb(0, 0, 0)" stroke-opacity="1.0" stroke-linecap="round" stroke-linejoin="round"/>
    <path d="M 433.3067321777344 223.86305236816406 C 376.8646545410156 343.838134765625 355.89019775390625 361.4430847167969 258.4437561035156 322.1008605957031 C 273.1868591308594 425.4057922363281 145.45211791992188 477.9385986328125 193.56924438476562 417.6932067871094 C 344.2446594238281 128.61276245117188 235.38157653808594 314.9346008300781 313.95635986328125 251.62277221679688 C 445.2995910644531 212.47409057617188 438.1921081542969 253.95443725585938 433.3067321777344 223.86305236816406" stroke-width="0.0" fill="rgb(55, 175, 8)" opacity="0.99627453" stroke="rgb(0, 0, 0)" stroke-opacity="1.0" stroke-linecap="round" stroke-linejoin="round"/>
    <path d="M 556.8002319335938 149.77215576171875 C 546.0416870117188 318.6876525878906 563.1805419921875 343.6037902832031 573.035888671875 242.5642547607422 C 401.7141418457031 186.8732452392578 396.826904296875 261.62786865234375 365.5675048828125 -2.3205275535583496 C 301.6635437011719 186.46670532226562 222.7647705078125 -12.165605545043945 230.77268981933594 -32.88490295410156 C 574.62158203125 -15.382942199707031 570.5282592773438 25.102783203125 556.8002319335938 149.77215576171875" stroke-width="0.0" fill="rgb(150, 120, 14)" opacity="0.01349264" stroke="rgb(0, 0, 0)" stroke-opacity="1.0" stroke-linecap="round" stroke-linejoin="round"/>
    <path d="M 301.4675598144531 276.1614990234375 C 327.7476806640625 267.4255676269531 343.6903991699219 257.3536682128906 330.92413330078125 209.2989044189453 C 288.14044189453125 346.41015625 161.16488647460938 255.55038452148438 257.72003173828125 339.9996032714844 C 312.5378112792969 220.9442138671875 352.1212158203125 322.3374938964844 390.5975646972656 230.8861541748047 C 290.6962890625 230.93016052246094 310.20550537109375 267.7270202636719 301.4675598144531 276.1614990234375" stroke-width="0.0" fill="rgb(58, 162, 5)" opacity="0.010918069" stroke="rgb(0, 0, 0)" stroke-opacity="1.0" stroke-linecap="round" stroke-linejoin="round"/>
    <path d="M 132.75344848632812 110.86119842529297 C 119.180419921875 124.04129028320312 119.11442565917969 121.5830307006836 62.433982849121094 113.9841537475586 C 59.7767219543457 175.20919799804688 15.885397911071777 195.39706420898438 -17.940872192382812 116.04910278320312 C -27.75293731689453 -9.796183586120605 -24.693981170654297 -19.436397552490234 126.72492980957031 -54.379234313964844 C 193.91415405273438 14.157109260559082 176.97164916992188 88.60855865478516 132.75344848632812 110.86119842529297" stroke-width="0.0" fill="rgb(244, 244, 54)" opacity="0.05477443" stroke="rgb(0, 0, 0)" stroke-opacity="1.0" stroke-linecap="round" stroke-linejoin="round"/>
    <path d="M 232.16473388671875 336.3077392578125 C 287.1247863769531 429.2910461425781 252.14537048339844 511.2207336425781 233.07275390625 499.23687744140625 C 120.67804718017578 430.7756652832031 5.7659101486206055 401.29254150390625 37.56229782104492 167.65895080566406 C 108.3585205078125 177.55455017089844 52.42880630493164 372.04400634765625 222.4659881591797 339.9801330566406 C 286.76123046875 341.1536560058594 208.6106414794922 301.4815673828125 232.16473388671875 336.3077392578125" stroke-width="0.0" fill="rgb(255, 196, 17)" opacity="1.0" stroke="rgb(0, 0, 0)" stroke-opacity="1.0" stroke-linecap="round" stroke-linejoin="round"/>
    <path d="M 528.3977661132812 119.51165008544922 C 549.9174194335938 191.04190063476562 546.947509765625 191.3816375732422 463.9537353515625 179.44639587402344 C 447.07550048828125 101.09430694580078 446.46661376953125 89.0250244140625 354.4871826171875 20.950191497802734 C 344.2115783691406 -53.987422943115234 374.9769287109375 -46.47585678100586 446.30938720703125 -32.74482345581055 C 540.84521484375 -11.616264343261719 538.4585571289062 -0.5953571200370789 528.3977661132812 119.51165008544922" stroke-width="0.0" fill="rgb(249, 190, 0)" opacity="0.9319916" stroke="rgb(0, 0, 0)" stroke-opacity="1.0" stroke-linecap="round" stroke-linejoin="round"/>
    <path d="M 456.12109375 60.007389068603516 C 496.56915283203125 159.8409881591797 501.4136047363281 152.2017059326172 377.6453857421875 133.4285888671875 C 399.14202880859375 137.10691833496094 293.1124572753906 43.62038040161133 238.32447814941406 103.40882110595703 C 206.43832397460938 -6.050788879394531 333.99017333984375 17.409618377685547 359.2614440917969 -7.81723690032959 C 387.0298767089844 29.931520462036133 406.7767333984375 27.0010929107666 456.12109375 60.007389068603516" stroke-width="0.0" fill="rgb(254, 193, 20)" opacity="1.0" stroke="rgb(0, 0, 0)" stroke-opacity="1.0" stroke-linecap="round" stroke-linejoin="round"/>
    <path d="M 554.1140747070312 471.0690612792969 C 546.2811889648438 517.0755004882812 539.6810913085938 526.2149047851562 400.0962219238281 540.8355712890625 C 367.54876708984375 474.2405700683594 387.4188537597656 413.16009521484375 384.12213134765625 412.7297668457031 C 429.05804443359375 433.2805480957031 464.197265625 410.9811706542969 486.12774658203125 430.7117614746094 C 473.7928466796875 419.2541809082031 482.9598388671875 398.2398376464844 554.1140747070312 471.0690612792969" stroke-width="0.0" fill="rgb(251, 189, 19)" opacity="0.674781" stroke="rgb(0, 0, 0)" stroke-opacity="1.0" stroke-linecap="round" stroke-linejoin="round"/>
    <path d="M 529.3329467773438 76.46290588378906 C 532.7168579101562 101.86832427978516 541.771240234375 88.21952056884766 486.59228515625 85.99153900146484 C 490.45428466796875 12.85336685180664 473.7317810058594 23.471776962280273 406.2570495605469 -6.632657051086426 C 431.8850402832031 -6.0589447021484375 442.3276062011719 -15.895929336547852 483.9574279785156 -20.849300384521484 C 514.1203002929688 -22.645938873291016 530.860595703125 -20.638214111328125 529.3329467773438 76.46290588378906" stroke-width="0.0" fill="rgb(251, 195, 20)" opacity="0.70036125" stroke="rgb(0, 0, 0)" stroke-opacity="1.0" stroke-linecap="round" stroke-linejoin="round"/>
    <path d="M 266.6217346191406 463.9085693359375 C 263.02008056640625 459.52783203125 258.82855224609375 457.42767333984375 263.59814453125 458.1526794433594 C 206.47927856445312 460.3615417480469 233.9303741455078 463.16259765625 231.1920166015625 457.4148864746094 C 237.88548278808594 323.4543151855469 196.06556701660156 292.28857421875 290.66864013671875 294.0001220703125 C 259.10400390625 332.6014404296875 265.54193115234375 389.93243408203125 266.6217346191406 463.9085693359375" stroke-width="0.0" fill="rgb(77, 27, 6)" opacity="0.9928317" stroke="rgb(0, 0, 0)" stroke-opacity="1.0" stroke-linecap="round" stroke-linejoin="round"/>
    <path d="M 580.2278442382812 251.54547119140625 C 551.46875 442.95318603515625 549.9371948242188 422.7210693359375 455.6999206542969 430.2987060546875 C 451.54193115234375 433.4507751464844 462.466064453125 425.4236145019531 402.183837890625 433.3130187988281 C 424.3152770996094 378.5093078613281 436.4490661621094 382.216064453125 444.941650390625 169.9733428955078 C 528.5515747070312 138.10577392578125 571.1918334960938 164.3873748779297 580.2278442382812 251.54547119140625" stroke-width="0.0" fill="rgb(255, 189, 25)" opacity="0.9755933" stroke="rgb(0, 0, 0)" stroke-opacity="1.0" stroke-linecap="round" stroke-linejoin="round"/>
    <path d="M 516.6199951171875 253.5679168701172 C 511.4660339355469 288.4529724121094 554.4985961914062 424.89990234375 398.05499267578125 461.4107971191406 C 391.3256530761719 271.500732421875 416.4811706542969 282.0767822265625 405.9193420410156 216.2908935546875 C 406.93731689453125 215.13742065429688 402.4539794921875 177.28822326660156 360.2118835449219 103.35475158691406 C 512.4459228515625 110.7275161743164 488.1966247558594 192.94224548339844 516.6199951171875 253.5679168701172" stroke-width="0.0" fill="rgb(251, 195, 17)" opacity="1.0" stroke="rgb(0, 0, 0)" stroke-opacity="1.0" stroke-linecap="round" stroke-linejoin="round"/>
    <path d="M 307.0494689941406 69.97852325439453 C 246.43702697753906 58.211631774902344 177.05181884765625 73.66919708251953 117.86396026611328 152.04176330566406 C 78.3053207397461 142.28292846679688 118.9142837524414 85.47216796875 160.42327880859375 48.05055618286133 C 153.0704345703125 31.739763259887695 160.5778350830078 37.34356689453125 144.80474853515625 31.37002944946289 C 175.66090393066406 27.234928131103516 249.35694885253906 -19.30786895751953 307.0494689941406 69.97852325439453" stroke-width="0.0" fill="rgb(253, 220, 58)" opacity="0.9937946" stroke="rgb(0, 0, 0)" stroke-opacity="1.0" stroke-linecap="round" stroke-linejoin="round"/>
    <path d="M 263.3741455078125 485.14324951171875 C 275.1357116699219 568.5913696289062 230.23196411132812 578.3367919921875 135.48056030273438 544.6820068359375 C 129.78457641601562 502.2029724121094 116.34504699707031 517.2431640625 125.71997833251953 449.9302062988281 C 113.22966003417969 414.7144775390625 74.60791778564453 386.3400573730469 54.305442810058594 224.4157257080078 C 244.32965087890625 496.8749084472656 205.04331970214844 453.49462890625 263.3741455078125 485.14324951171875" stroke-width="0.0" fill="rgb(255, 226, 67)" opacity="0.97368914" stroke="rgb(0, 0, 0)" stroke-opacity="1.0" stroke-linecap="round" stroke-linejoin="round"/>
    <path d="M 89.31707000732422 259.62548828125 C 74.19261169433594 275.9742126464844 83.96883392333984 230.86245727539062 88.06231689453125 243.62783813476562 C 96.95954132080078 299.2059020996094 33.364322662353516 293.4990539550781 26.02713966369629 257.9081115722656 C 22.803037643432617 195.1880645751953 -6.530383110046387 157.14657592773438 127.00932312011719 136.70272827148438 C 55.82538604736328 285.42681884765625 132.2195281982422 254.97390747070312 89.31707000732422 259.62548828125" stroke-width="0.0" fill="rgb(254, 227, 57)" opacity="0.99857396" stroke="rgb(0, 0, 0)" stroke-opacity="1.0" stroke-linecap="round" stroke-linejoin="round"/>
    <path d="M 75.26951599121094 528.7689819335938 C 33.093910217285156 533.848388671875 12.798440933227539 529.4495239257812 0.7255993485450745 530.4913330078125 C -9.364206314086914 527.7437133789062 -16.68471336364746 520.4232177734375 -11.829503059387207 515.7749633789062 C -18.563627243041992 512.8363037109375 -30.231584548950195 503.423583984375 -13.449203491210938 410.76959228515625 C 18.126686096191406 447.62451171875 24.752071380615234 483.4343566894531 75.26951599121094 528.7689819335938" stroke-width="0.0" fill="rgb(255, 229, 69)" opacity="0.99351597" stroke="rgb(0, 0, 0)" stroke-opacity="1.0" stroke-linecap="round" stroke-linejoin="round"/>
    <path d="M 474.4468688964844 385.7290344238281 C 431.4288330078125 502.54156494140625 361.2567443847656 451.15753173828125 299.5325927734375 457.9710998535156 C 302.1357116699219 463.34814453125 308.9396667480469 430.792724609375 306.3505859375 437.4095764160156 C 305.8925476074219 438.4639892578125 320.6778564453125 444.3634338378906 337.0694580078125 434.13800048828125 C 347.4367370605469 410.17791748046875 367.615478515625 369.0876770019531 474.4468688964844 385.7290344238281" stroke-width="0.0" fill="rgb(248, 196, 12)" opacity="0.62445045" stroke="rgb(0, 0, 0)" stroke-opacity="1.0" stroke-linecap="round" stroke-linejoin="round"/>
    <path d="M 152.8846435546875 513.5879516601562 C 142.64590454101562 542.1927490234375 122.05325317382812 534.94287109375 89.62645721435547 541.3865966796875 C 65.7872314453125 556.4077758789062 50.77821731567383 553.1290283203125 46.228939056396484 516.5313720703125 C 74.41986846923828 503.0803527832031 81.2120590209961 479.97308349609375 82.59363555908203 441.70428466796875 C 139.2471923828125 467.0448303222656 155.75881958007812 474.1592712402344 152.8846435546875 513.5879516601562" stroke-width="0.0" fill="rgb(251, 219, 70)" opacity="0.99420327" stroke="rgb(0, 0, 0)" stroke-opacity="1.0" stroke-linecap="round" stroke-linejoin="round"/>
    <path d="M 78.12529754638672 420.9731750488281 C 19.351985931396484 379.3868408203125 18.052852630615234 386.8022766113281 23.1309757232666 457.95294189453125 C -64.71283721923828 462.0851135253906 -48.8236198425293 427.7411804199219 -27.216508865356445 367.2615966796875 C -47.041221618652344 288.5078430175781 -43.732391357421875 190.1571807861328 69.32874298095703 146.03819274902344 C 120.33291625976562 310.4654541015625 105.12079620361328 432.6045227050781 78.12529754638672 420.9731750488281" stroke-width="0.0" fill="rgb(255, 226, 57)" opacity="0.99724466" stroke="rgb(0, 0, 0)" stroke-opacity="1.0" stroke-linecap="round" stroke-linejoin="round"/>
    <path d="M 501.5011901855469 456.41595458984375 C 484.9726867675781 539.5369262695312 464.39447021484375 524.1578369140625 329.7239685058594 545.6300659179688 C 287.80120849609375 574.0845947265625 278.62127685546875 531.358642578125 336.14923095703125 516.7379760742188 C 417.6300048828125 489.5285949707031 402.4005432128906 452.2381591796875 435.70208740234375 435.76226806640625 C 449.45172119140625 417.66302490234375 500.56146240234375 395.9968566894531 501.5011901855469 456.41595458984375" stroke-width="0.0" fill="rgb(236, 207, 22)" opacity="0.10814121" stroke="rgb(0, 0, 0)" stroke-opacity="1.0" stroke-linecap="round" stroke-linejoin="round"/>
    <path d="M 328.0856018066406 0.44118985533714294 C 314.5953063964844 14.02403450012207 279.63763427734375 2.4559504985809326 294.5356140136719 -1.6543662548065186 C 297.22216796875 32.794776916503906 294.5987548828125 24.714738845825195 249.63449096679688 59.76097869873047 C 252.45603942871094 -16.76202964782715 241.5281524658203 -38.293128967285156 249.45704650878906 -28.411590576171875 C 306.2059020996094 -29.980731964111328 330.4922180175781 -36.8232307434082 328.0856018066406 0.44118985533714294" stroke-width="0.0" fill="rgb(249, 202, 42)" opacity="0.9472228" stroke="rgb(0, 0, 0)" stroke-opacity="1.0" stroke-linecap="round" stroke-linejoin="round"/>
    <path d="M 428.1920166015625 21.172340393066406 C 419.2707824707031 38.729339599609375 416.635009765625 48.402801513671875 398.0054626464844 33.66950607299805 C 378.256103515625 21.608497619628906 338.4424133300781 20.452293395996094 338.1250305175781 -8.839241027832031 C 360.3583679199219 -22.20194435119629 367.30511474609375 -30.824060440063477 391.7447814941406 -23.541545867919922 C 413.4774169921875 -31.701580047607422 429.8381042480469 -28.132129669189453 428.1920166015625 21.172340393066406" stroke-width="0.0" fill="rgb(240, 216, 20)" opacity="0.0777615" stroke="rgb(0, 0, 0)" stroke-opacity="1.0" stroke-linecap="round" stroke-linejoin="round"/>
    <path d="M 382.7284851074219 -39.33149719238281 C 366.5789489746094 -15.064970970153809 341.2530517578125 8.875218391418457 323.97772216796875 19.84537696838379 C 326.1016845703125 14.023359298706055 311.347412109375 30.174062728881836 286.1048889160156 5.065563678741455 C 268.38031005859375 -27.105606079101562 285.5306396484375 3.6017837524414062 312.4981384277344 -25.480594635009766 C 356.0882568359375 -17.06488037109375 364.8505554199219 -18.24816131591797 382.7284851074219 -39.33149719238281" stroke-width="0.0" fill="rgb(220, 3, 11)" opacity="0.98830336" stroke="rgb(0, 0, 0)" stroke-opacity="1.0" stroke-linecap="round" stroke-linejoin="round"/>
    <path d="M 533.6201171875 160.63621520996094 C 518.169189453125 223.23309326171875 513.7322998046875 230.45474243164062 489.8760681152344 223.21282958984375 C 487.4665832519531 206.39877319335938 491.6509094238281 199.5279541015625 492.1759948730469 186.85784912109375 C 485.76385498046875 188.18408203125 485.50469970703125 191.69253540039062 473.31695556640625 143.95709228515625 C 513.354248046875 139.3365020751953 537.4798583984375 136.87767028808594 533.6201171875 160.63621520996094" stroke-width="0.0" fill="rgb(252, 192, 37)" opacity="0.2772548" stroke="rgb(0, 0, 0)" stroke-opacity="1.0" stroke-linecap="round" stroke-linejoin="round"/>
    <path d="M 290.7515869140625 294.9842529296875 C 281.9759826660156 313.84326171875 260.5975341796875 322.0158386230469 252.45420837402344 311.7482604980469 C 256.45416259765625 319.76104736328125 232.84202575683594 307.676025390625 226.86163330078125 291.49786376953125 C 252.56838989257812 285.3716735839844 259.5080261230469 288.886474609375 276.56854248046875 284.059814453125 C 276.8475036621094 279.9156494140625 289.5126037597656 270.01300048828125 290.7515869140625 294.9842529296875" stroke-width="0.0" fill="rgb(67, 168, 0)" opacity="1.0" stroke="rgb(0, 0, 0)" stroke-opacity="1.0" stroke-linecap="round" stroke-linejoin="round"/>
    <path d="M 100.82630920410156 151.36422729492188 C 58.044410705566406 158.58731079101562 48.30686569213867 172.40374755859375 43.15484619140625 161.22900390625 C 46.0212516784668 167.1506805419922 35.912227630615234 112.05413055419922 33.86512756347656 140.8930206298828 C 26.75240707397461 144.20787048339844 30.415300369262695 120.20964050292969 21.469154357910156 121.40684509277344 C 49.067115783691406 122.79935455322266 67.6414794921875 120.59415435791016 100.82630920410156 151.36422729492188" stroke-width="0.0" fill="rgb(245, 224, 138)" opacity="0.014362196" stroke="rgb(0, 0, 0)" stroke-opacity="1.0" stroke-linecap="round" stroke-linejoin="round"/>
    <path d="M 81.3128433227539 129.3066864013672 C 85.91365814208984 137.00990295410156 94.636474609375 173.31394958496094 89.81254577636719 176.39071655273438 C 36.877471923828125 171.26376342773438 28.648494720458984 171.15362548828125 42.190006256103516 140.6890869140625 C 64.96327209472656 127.26004028320312 77.65750122070312 134.91220092773438 68.92422485351562 127.14835357666016 C 82.517578125 129.8090362548828 92.44731903076172 131.32606506347656 81.3128433227539 129.3066864013672" stroke-width="0.0" fill="rgb(235, 253, 89)" opacity="0.024304261" stroke="rgb(0, 0, 0)" stroke-opacity="1.0" stroke-linecap="round" stroke-linejoin="round"/>
    <path d="M 353.7816162109375 114.51329803466797 C 359.31256103515625 147.28533935546875 377.324462890625 132.68515014648438 363.8191223144531 124.19368743896484 C 357.34576416015625 165.8497314453125 292.3393859863281 153.15335083007812 283.9762268066406 134.93504333496094 C 283.5331115722656 103.03678131103516 284.7143249511719 75.23015594482422 298.85009765625 69.68241882324219 C 291.9453430175781 84.6531753540039 315.6383361816406 87.23021697998047 353.7816162109375 114.51329803466797" stroke-width="0.0" fill="rgb(1, 209, 54)" opacity="0.11322097" stroke="rgb(0, 0, 0)" stroke-opacity="1.0" stroke-linecap="round" stroke-linejoin="round"/>
    <path d="M 286.3540954589844 235.73577880859375 C 293.5688171386719 240.1331024169922 276.48675537109375 233.60691833496094 249.9531707763672 241.0557861328125 C 281.5011901855469 251.49600219726562 265.08929443359375 243.75645446777344 265.93743896484375 222.41876220703125 C 277.4830322265625 213.78643798828125 278.1722412109375 221.69778442382812 290.743896484375 201.5765838623047 C 287.3299255371094 197.85093688964844 294.7364807128906 209.12771606445312 286.3540954589844 235.73577880859375" stroke-width="0.0" fill="rgb(109, 161, 78)" opacity="0.0138765685" stroke="rgb(0, 0, 0)" stroke-opacity="1.0" stroke-linecap="round" stroke-linejoin="round"/>
    <path d="M 367.5555114746094 200.0120086669922 C 356.4078063964844 202.5375518798828 362.3784484863281 227.27574157714844 369.7992858886719 207.45950317382812 C 340.5443115234375 198.74490356445312 338.71795654296875 209.05078125 335.7062072753906 207.35861206054688 C 362.9792175292969 203.86183166503906 344.7588195800781 207.87539672851562 324.60015869140625 212.1464080810547 C 390.0467224121094 218.63327026367188 396.0616760253906 238.5033721923828 367.5555114746094 200.0120086669922" stroke-width="0.0" fill="rgb(102, 139, 22)" opacity="0.015156861" stroke="rgb(0, 0, 0)" stroke-opacity="1.0" stroke-linecap="round" stroke-linejoin="round"/>
    <path d="M 183.275390625 274.3874206542969 C 220.62918090820312 252.89024353027344 222.4989013671875 252.62660217285156 222.58895874023438 260.1261291503906 C 179.4741973876953 257.7967529296875 158.61459350585938 256.686767578125 190.48812866210938 229.78018188476562 C 162.55763244628906 212.72735595703125 171.18600463867188 227.68991088867188 167.3048095703125 229.63963317871094 C 144.06251525878906 250.10923767089844 159.85350036621094 263.0294494628906 183.275390625 274.3874206542969" stroke-width="0.0" fill="rgb(131, 180, 144)" opacity="0.011285103" stroke="rgb(0, 0, 0)" stroke-opacity="1.0" stroke-linecap="round" stroke-linejoin="round"/>
    <path d="M 203.0528564453125 221.6053466796875 C 195.3458709716797 236.17088317871094 187.24537658691406 247.4826202392578 190.30194091796875 250.13938903808594 C 188.76036071777344 254.643798828125 175.87135314941406 245.42539978027344 177.67861938476562 238.549560546875 C 166.18736267089844 220.11912536621094 177.21868896484375 220.92391967773438 190.36761474609375 222.2763214111328 C 204.72344970703125 218.45326232910156 209.9298095703125 229.38304138183594 203.0528564453125 221.6053466796875" stroke-width="0.0" fill="rgb(130, 164, 89)" opacity="0.0010648263" stroke="rgb(0, 0, 0)" stroke-opacity="1.0" stroke-linecap="round" stroke-linejoin="round"/>
    <path d="M 298.02587890625 235.7432403564453 C 291.3448486328125 274.7983703613281 285.57159423828125 277.1075134277344 256.92718505859375 275.060546875 C 269.1107482910156 253.3672332763672 279.0828857421875 250.10894775390625 276.23046875 250.66737365722656 C 260.7230529785156 230.67518615722656 259.93463134765625 231.21763610839844 289.3063049316406 231.5244598388672 C 287.7147521972656 182.30609130859375 297.9980773925781 191.99984741210938 298.02587890625 235.7432403564453" stroke-width="0.0" fill="rgb(50, 183, 0)" opacity="0.0034768416" stroke="rgb(0, 0, 0)" stroke-opacity="1.0" stroke-linecap="round" stroke-linejoin="round"/>
    <path d="M 91.03047180175781 173.69276428222656 C 78.79822540283203 163.9810028076172 80.52833557128906 192.8465576171875 64.6104965209961 165.85421752929688 C 65.09966278076172 188.66958618164062 96.79277801513672 193.89556884765625 65.48126983642578 153.24620056152344 C 65.32067108154297 114.16067504882812 71.41221618652344 101.27296447753906 71.8460693359375 129.93386840820312 C 67.07678985595703 135.7581787109375 88.95214080810547 145.22943115234375 91.03047180175781 173.69276428222656" stroke-width="0.0" fill="rgb(224, 252, 100)" opacity="0.010899196" stroke="rgb(0, 0, 0)" stroke-opacity="1.0" stroke-linecap="round" stroke-linejoin="round"/>
    <path d="M 234.11964416503906 70.25703430175781 C 211.965576171875 79.94596862792969 197.8130645751953 86.33699035644531 196.82374572753906 87.27908325195312 C 207.62464904785156 102.01622772216797 180.3461151123047 108.53584289550781 164.841552734375 80.69092559814453 C 182.485107421875 33.01908874511719 174.9216766357422 30.720550537109375 211.67662048339844 33.11599349975586 C 241.4505157470703 30.88661766052246 248.4319305419922 68.22882843017578 234.11964416503906 70.25703430175781" stroke-width="0.0" fill="rgb(226, 225, 0)" opacity="0.084680036" stroke="rgb(0, 0, 0)" stroke-opacity="1.0" stroke-linecap="round" stroke-linejoin="round"/>
    <path d="M 149.1886749267578 261.9036560058594 C 151.03639221191406 257.7113037109375 131.01419067382812 244.77874755859375 142.12661743164062 264.0645446777344 C 123.58015441894531 268.2579650878906 117.61294555664062 264.5986022949219 119.85552978515625 232.03634643554688 C 117.98566436767578 221.293701171875 121.2724609375 227.47332763671875 146.7655792236328 225.2970428466797 C 147.15371704101562 215.82139587402344 154.0804443359375 234.45115661621094 149.1886749267578 261.9036560058594" stroke-width="0.0" fill="rgb(61, 255, 35)" opacity="0.049680114" stroke="rgb(0, 0, 0)" stroke-opacity="1.0" stroke-linecap="round" stroke-linejoin="round"/>
    <path d="M 276.50469970703125 -21.469608306884766 C 267.37982177734375 -6.423610210418701 278.735107421875 22.534822463989258 292.40667724609375 34.54302978515625 C 264.8832702636719 24.5660457611084 262.7508544921875 22.015256881713867 263.29547119140625 -1.4012209177017212 C 274.06903076171875 -23.88613510131836 268.8234558105469 -15.7907075881958 272.3249816894531 -9.713448524475098 C 292.05316162109375 -19.848194122314453 300.0677185058594 -13.445195198059082 276.50469970703125 -21.469608306884766" stroke-width="0.0" fill="rgb(229, 252, 27)" opacity="0.0960881" stroke="rgb(0, 0, 0)" stroke-opacity="1.0" stroke-linecap="round" stroke-linejoin="round"/>
    <path d="M 531.3439331054688 263.9245910644531 C 518.3486328125 342.56475830078125 518.2163696289062 358.0539855957031 496.8829345703125 324.13238525390625 C 497.9883117675781 291.6051025390625 489.2175598144531 271.5040588378906 495.2023620605469 280.6943054199219 C 501.9359130859375 272.69476318359375 500.4831848144531 231.00193786621094 503.57855224609375 202.76849365234375 C 547.7388916015625 208.50332641601562 559.4581298828125 212.0539093017578 531.3439331054688 263.9245910644531" stroke-width="0.0" fill="rgb(253, 153, 108)" opacity="0.09920021" stroke="rgb(0, 0, 0)" stroke-opacity="1.0" stroke-linecap="round" stroke-linejoin="round"/>
    <path d="M 258.02374267578125 398.5585021972656 C 243.77252197265625 394.0807189941406 241.4858856201172 413.3807373046875 254.48423767089844 413.9688720703125 C 249.27337646484375 396.5204162597656 237.31846618652344 384.9505310058594 233.5418243408203 377.1802978515625 C 226.564453125 373.91986083984375 228.96493530273438 369.31597900390625 230.43048095703125 379.6530456542969 C 242.4351348876953 383.21966552734375 245.8710479736328 394.7291259765625 258.02374267578125 398.5585021972656" stroke-width="0.0" fill="rgb(86, 86, 0)" opacity="0.0" stroke="rgb(0, 0, 0)" stroke-opacity="1.0" stroke-linecap="round" stroke-linejoin="round"/>
    <path d="M 117.92955780029297 126.53245544433594 C 125.72020721435547 168.56166076660156 104.08892059326172 177.8885955810547 57.304473876953125 166.1743621826172 C 40.318504333496094 156.28102111816406 46.90713882446289 133.87619018554688 52.95703125 104.71205139160156 C 58.891048431396484 107.04756927490234 55.762935638427734 126.38755798339844 63.071231842041016 84.99501037597656 C 84.65200805664062 88.57788848876953 105.98966217041016 88.32794952392578 117.92955780029297 126.53245544433594" stroke-width="0.0" fill="rgb(255, 228, 50)" opacity="0.10489814" stroke="rgb(0, 0, 0)" stroke-opacity="1.0" stroke-linecap="round" stroke-linejoin="round"/>
    <path d="M 467.6744689941406 203.18438720703125 C 446.68695068359375 222.002685546875 446.0037841796875 242.06594848632812 461.4311218261719 225.20936584472656 C 467.8970947265625 216.97645568847656 437.61053466796875 223.9514923095703 432.1155700683594 215.818603515625 C 448.0072937011719 207.88308715820312 436.57611083984375 190.45065307617188 427.1574401855469 195.92910766601562 C 446.0928955078125 243.2902374267578 486.5870056152344 245.31690979003906 467.6744689941406 203.18438720703125" stroke-width="0.0" fill="rgb(213, 220, 41)" opacity="0.021266645" stroke="rgb(0, 0, 0)" stroke-opacity="1.0" stroke-linecap="round" stroke-linejoin="round"/>
    <path d="M 364.8106994628906 225.8845672607422 C 361.3574523925781 213.49447631835938 352.97540283203125 229.01698303222656 386.3700866699219 221.30357360839844 C 356.17645263671875 227.2762908935547 353.35546875 216.808349609375 330.22418212890625 179.6049346923828 C 358.2301025390625 180.491455078125 371.65240478515625 180.48333740234375 354.2941589355469 173.59796142578125 C 364.2751770019531 182.47291564941406 357.27105712890625 219.53175354003906 364.8106994628906 225.8845672607422" stroke-width="0.0" fill="rgb(104, 164, 24)" opacity="0.0" stroke="rgb(0, 0, 0)" stroke-opacity="1.0" stroke-linecap="round" stroke-linejoin="round"/>
    <path d="M 49.15713119506836 535.8212280273438 C 104.5665283203125 511.047607421875 120.68661499023438 453.3004150390625 63.72357940673828 423.1275634765625 C 30.821149826049805 422.2693786621094 24.448989868164062 452.630615234375 11.654707908630371 458.3710021972656 C 49.42580795288086 425.625732421875 67.26744842529297 437.6839599609375 69.31098937988281 427.8974304199219 C 61.927825927734375 439.9137268066406 27.294179916381836 434.8406677246094 49.15713119506836 535.8212280273438" stroke-width="0.0" fill="rgb(253, 203, 62)" opacity="0.619887" stroke="rgb(0, 0, 0)" stroke-opacity="1.0" stroke-linecap="round" stroke-linejoin="round"/>
    <path d="M 449.8695983886719 39.02981948852539 C 449.50823974609375 27.094711303710938 447.2015075683594 26.691015243530273 428.9418640136719 38.844749450683594 C 447.06561279296875 51.086307525634766 454.51934814453125 39.54497528076172 456.12469482421875 60.84614181518555 C 435.45037841796875 50.56379318237305 435.43231201171875 44.97939682006836 432.8466491699219 44.14897537231445 C 445.5518493652344 46.53422927856445 456.95928955078125 59.48780822753906 449.8695983886719 39.02981948852539" stroke-width="0.0" fill="rgb(255, 219, 146)" opacity="0.002600749" stroke="rgb(0, 0, 0)" stroke-opacity="1.0" stroke-linecap="round" stroke-linejoin="round"/>
    <path d="M 332.2569885253906 182.71148681640625 C 303.1801452636719 200.3664093017578 311.14306640625 213.6740264892578 290.7498779296875 215.965576171875 C 290.319580078125 187.66371154785156 302.0020446777344 167.2135009765625 302.3450927734375 176.30636596679688 C 296.1410827636719 182.9657745361328 278.9754943847656 168.04254150390625 255.39515686035156 140.59820556640625 C 331.443115234375 141.13107299804688 350.28082275390625 148.32142639160156 332.2569885253906 182.71148681640625" stroke-width="0.0" fill="rgb(72, 173, 66)" opacity="0.053007387" stroke="rgb(0, 0, 0)" stroke-opacity="1.0" stroke-linecap="round" stroke-linejoin="round"/>
    <path d="M 471.00433349609375 475.0365295410156 C 460.6759338378906 508.01776123046875 467.51177978515625 511.4209899902344 474.90106201171875 513.4227905273438 C 437.49822998046875 510.61090087890625 423.52325439453125 510.3005065917969 424.3112487792969 494.53118896484375 C 432.85308837890625 470.1300354003906 441.0583801269531 472.0953063964844 468.9790344238281 490.0182800292969 C 481.64031982421875 490.38323974609375 492.5419921875 499.2762756347656 471.00433349609375 475.0365295410156" stroke-width="0.0" fill="rgb(255, 188, 53)" opacity="0.034556977" stroke="rgb(0, 0, 0)" stroke-opacity="1.0" stroke-linecap="round" stroke-linejoin="round"/>
    <path d="M 132.87261962890625 29.959789276123047 C 146.3125 46.851402282714844 154.04310607910156 51.19675064086914 125.90499114990234 106.52935791015625 C 87.9134292602539 103.62108612060547 105.07962799072266 36.24060821533203 113.53201293945312 -19.51991081237793 C 135.18255615234375 21.9398193359375 129.9203338623047 24.793636322021484 106.07579040527344 27.12442398071289 C 116.28327941894531 45.661163330078125 143.75572204589844 40.02219009399414 132.87261962890625 29.959789276123047" stroke-width="0.0" fill="rgb(255, 227, 102)" opacity="0.031720888" stroke="rgb(0, 0, 0)" stroke-opacity="1.0" stroke-linecap="round" stroke-linejoin="round"/>
    <path d="M 204.31675720214844 355.9124755859375 C 204.521240234375 389.9544372558594 212.78164672851562 386.1328125 181.59593200683594 371.6851501464844 C 171.84043884277344 358.87554931640625 176.27838134765625 350.18572998046875 174.5087432861328 359.0646057128906 C 181.9297637939453 350.98529052734375 195.15206909179688 349.3872375488281 175.36788940429688 347.5063781738281 C 176.0618896484375 346.8851013183594 185.520263671875 360.9888610839844 204.31675720214844 355.9124755859375" stroke-width="0.0" fill="rgb(228, 194, 135)" opacity="0.0" stroke="rgb(0, 0, 0)" stroke-opacity="1.0" stroke-linecap="round" stroke-linejoin="round"/>
    <path d="M 407.4463195800781 446.486328125 C 405.89886474609375 441.0081787109375 403.4448547363281 450.8774719238281 400.91094970703125 474.61627197265625 C 388.83355712890625 470.8688049316406 374.4777526855469 453.5322265625 370.5438232421875 429.9522399902344 C 361.9358825683594 400.5295715332031 366.08477783203125 418.7882995605469 389.23052978515625 414.3241271972656 C 388.3243408203125 444.2353210449219 398.21728515625 445.32110595703125 407.4463195800781 446.486328125" stroke-width="0.0" fill="rgb(214, 222, 41)" opacity="0.003197447" stroke="rgb(0, 0, 0)" stroke-opacity="1.0" stroke-linecap="round" stroke-linejoin="round"/>
    <path d="M 137.25328063964844 270.09014892578125 C 154.42286682128906 281.23846435546875 166.54827880859375 308.0343322753906 131.4916534423828 289.4084167480469 C 122.446044921875 317.07891845703125 118.4969482421875 266.6484069824219 123.3476333618164 259.6947937011719 C 108.90924072265625 263.8049621582031 108.98792266845703 245.8187255859375 114.05329895019531 250.2860565185547 C 131.7889862060547 253.27748107910156 132.44271850585938 267.8407287597656 137.25328063964844 270.09014892578125" stroke-width="0.0" fill="rgb(80, 255, 29)" opacity="0.041730985" stroke="rgb(0, 0, 0)" stroke-opacity="1.0" stroke-linecap="round" stroke-linejoin="round"/>
    <path d="M 160.1818389892578 458.73699951171875 C 176.5266876220703 492.6103515625 164.45310974121094 489.8258056640625 115.91131591796875 462.9078063964844 C 57.31365203857422 464.8050537109375 82.47360229492188 441.55584716796875 93.23207092285156 442.9936828613281 C 54.205963134765625 447.68560791015625 51.05622482299805 431.6044616699219 67.15291595458984 372.417236328125 C 145.85838317871094 409.5765686035156 159.28407287597656 404.8638000488281 160.1818389892578 458.73699951171875" stroke-width="0.0" fill="rgb(255, 224, 65)" opacity="0.79695404" stroke="rgb(0, 0, 0)" stroke-opacity="1.0" stroke-linecap="round" stroke-linejoin="round"/>
    <path d="M 250.6826629638672 47.94856643676758 C 271.8518981933594 55.43496322631836 250.9289093017578 51.74863052368164 232.99240112304688 54.05955123901367 C 249.3967742919922 61.623756408691406 232.92083740234375 45.385093688964844 226.5370330810547 24.41671371459961 C 234.82110595703125 5.2184977531433105 252.22122192382812 19.962600708007812 268.2348937988281 16.432764053344727 C 258.28192138671875 37.32981872558594 253.14236450195312 54.12314987182617 250.6826629638672 47.94856643676758" stroke-width="0.0" fill="rgb(169, 227, 89)" opacity="0.017515833" stroke="rgb(0, 0, 0)" stroke-opacity="1.0" stroke-linecap="round" stroke-linejoin="round"/>
    <path d="M 127.03108215332031 318.0267028808594 C 133.1616668701172 322.537109375 131.57095336914062 348.3882141113281 132.28228759765625 321.4978942871094 C 86.38734436035156 368.33624267578125 83.899658203125 379.7143859863281 64.87881469726562 325.4607849121094 C 84.18132019042969 328.695556640625 99.0404052734375 319.26348876953125 128.6940460205078 349.7021789550781 C 157.23443603515625 352.8827819824219 119.41500091552734 340.5060119628906 127.03108215332031 318.0267028808594" stroke-width="0.0" fill="rgb(250, 195, 103)" opacity="0.053538878" stroke="rgb(0, 0, 0)" stroke-opacity="1.0" stroke-linecap="round" stroke-linejoin="round"/>
    <path d="M 540.0314331054688 183.4868621826172 C 521.119140625 254.6171112060547 490.54974365234375 246.19500732421875 492.3791198730469 214.23666381835938 C 482.8878173828125 201.66844177246094 457.4427185058594 193.1215362548828 471.8625183105469 185.88194274902344 C 473.8757629394531 213.95387268066406 482.7434387207031 219.81610107421875 496.65185546875 209.65994262695312 C 487.96624755859375 170.17095947265625 497.2283020019531 163.5077667236328 540.0314331054688 183.4868621826172" stroke-width="0.0" fill="rgb(254, 178, 44)" opacity="0.1711786" stroke="rgb(0, 0, 0)" stroke-opacity="1.0" stroke-linecap="round" stroke-linejoin="round"/>
    <path d="M 441.4834899902344 217.5346221923828 C 444.1712646484375 276.458251953125 446.7696533203125 275.61065673828125 462.27313232421875 280.06988525390625 C 417.8443908691406 280.8105773925781 423.3296813964844 287.5926818847656 441.287109375 271.637451171875 C 432.02740478515625 256.83831787109375 425.35369873046875 250.21060180664062 431.3032531738281 216.50540161132812 C 453.3140869140625 236.79129028320312 466.9696960449219 236.3308868408203 441.4834899902344 217.5346221923828" stroke-width="0.0" fill="rgb(217, 231, 0)" opacity="0.022410884" stroke="rgb(0, 0, 0)" stroke-opacity="1.0" stroke-linecap="round" stroke-linejoin="round"/>
    <path d="M 498.2591857910156 106.58106994628906 C 512.4194946289062 124.33199310302734 512.9298706054688 103.53568267822266 487.5779724121094 101.42257690429688 C 484.5329895019531 79.98786163330078 474.4206237792969 77.66885375976562 498.8438720703125 76.12351989746094 C 491.89776611328125 39.58644485473633 485.97186279296875 59.154502868652344 489.23858642578125 65.7729263305664 C 480.5613708496094 72.8783950805664 494.9063415527344 73.46000671386719 498.2591857910156 106.58106994628906" stroke-width="0.0" fill="rgb(224, 237, 0)" opacity="0.09144744" stroke="rgb(0, 0, 0)" stroke-opacity="1.0" stroke-linecap="round" stroke-linejoin="round"/>
    <path d="M 58.16985321044922 183.3853302001953 C 37.084129333496094 166.63587951660156 55.03376007080078 195.29966735839844 56.36626052856445 209.57469177246094 C 29.300771713256836 200.773681640625 22.736047744750977 188.89186096191406 20.584651947021484 188.75270080566406 C 4.513183116912842 190.85372924804688 3.067443609237671 164.58372497558594 17.944965362548828 146.6167449951172 C 45.356327056884766 162.00164794921875 59.08873748779297 161.37796020507812 58.16985321044922 183.3853302001953" stroke-width="0.0" fill="rgb(231, 217, 57)" opacity="0.051710214" stroke="rgb(0, 0, 0)" stroke-opacity="1.0" stroke-linecap="round" stroke-linejoin="round"/>
    <path d="M 135.1671142578125 321.31378173828125 C 181.90692138671875 366.590087890625 151.82321166992188 363.7521667480469 108.39926147460938 328.4621887207031 C 109.64329528808594 333.22747802734375 97.82255554199219 337.923828125 69.62432861328125 301.09063720703125 C 111.90554809570312 289.955078125 94.5538330078125 333.7763671875 150.7384490966797 309.39007568359375 C 147.4854736328125 291.64666748046875 134.6141815185547 310.2073974609375 135.1671142578125 321.31378173828125" stroke-width="0.0" fill="rgb(253, 207, 140)" opacity="0.0" stroke="rgb(0, 0, 0)" stroke-opacity="1.0" stroke-linecap="round" stroke-linejoin="round"/>
    <path d="M 45.01863479614258 79.9006118774414 C 36.38823318481445 111.8232421875 39.51198196411133 123.0660171508789 42.715206146240234 108.92247009277344 C 3.1714303493499756 134.99403381347656 -7.1008453369140625 98.14854431152344 -4.903420448303223 52.003883361816406 C 15.388311386108398 96.9547119140625 16.994861602783203 92.3092041015625 9.30952262878418 64.9741439819336 C 33.882747650146484 67.7382583618164 48.855865478515625 76.15634155273438 45.01863479614258 79.9006118774414" stroke-width="0.0" fill="rgb(182, 218, 32)" opacity="0.0" stroke="rgb(0, 0, 0)" stroke-opacity="1.0" stroke-linecap="round" stroke-linejoin="round"/>
  </g>
</svg>
