<?xml version="1.0" ?>
<svg xmlns="http://www.w3.org/2000/svg" version="1.1" width="512" height="512">
  <defs/>
  <g>
    <path d="M 510.5216369628906 441.4597473144531 C 423.0934143066406 445.4939270019531 379.1847229003906 555.3472900390625 501.23614501953125 555.9364624023438 C 576.4873657226562 429.4102783203125 497.0657653808594 457.4541015625 477.400634765625 455.4822692871094 C 475.3360595703125 488.7186584472656 486.270751953125 459.4327087402344 494.2227478027344 433.281982421875 C 524.1405029296875 421.7474670410156 553.8027954101562 429.2563171386719 510.5216369628906 441.4597473144531" stroke-width="0.0" fill="rgb(21, 39, 83)" opacity="1.0" stroke="rgb(0, 0, 0)" stroke-opacity="1.0" stroke-linecap="round" stroke-linejoin="round"/>
    <path d="M 271.10430908203125 507.2335510253906 C 278.7937316894531 519.7070922851562 196.09811401367188 555.0130615234375 136.4521026611328 426.1077575683594 C 27.179235458374023 392.74078369140625 143.60267639160156 380.9787292480469 -52.94916915893555 356.88018798828125 C 36.58567428588867 204.7497100830078 -47.54963302612305 276.91168212890625 -47.597511291503906 168.75173950195312 C 76.97566986083984 53.9837646484375 188.78353881835938 195.5689697265625 271.10430908203125 507.2335510253906" stroke-width="0.0" fill="rgb(34, 176, 0)" opacity="0.99429536" stroke="rgb(0, 0, 0)" stroke-opacity="1.0" stroke-linecap="round" stroke-linejoin="round"/>
    <path d="M 423.730224609375 145.88119506835938 C 457.40643310546875 328.4322204589844 426.63751220703125 342.1031799316406 268.5412292480469 343.9962158203125 C 156.78216552734375 344.9326477050781 121.9366683959961 339.9550476074219 262.2679748535156 104.48274993896484 C 139.35594177246094 65.16566467285156 156.61410522460938 -2.102494478225708 351.6862487792969 -7.811048984527588 C 397.3289489746094 121.65564727783203 438.1202697753906 65.5744400024414 423.730224609375 145.88119506835938" stroke-width="0.0" fill="rgb(38, 213, 0)" opacity="1.0" stroke="rgb(0, 0, 0)" stroke-opacity="1.0" stroke-linecap="round" stroke-linejoin="round"/>
    <path d="M 374.87335205078125 128.95809936523438 C 359.3868103027344 362.9766540527344 278.8249206542969 402.9619140625 171.08468627929688 344.4246826171875 C 47.224910736083984 242.26905822753906 0.7007067799568176 307.62957763671875 46.974464416503906 163.31948852539062 C 18.166912078857422 70.13774871826172 159.43939208984375 86.70578002929688 148.42327880859375 32.3639030456543 C 203.78550720214844 -21.75394630432129 232.07766723632812 26.031063079833984 374.87335205078125 128.95809936523438" stroke-width="0.0" fill="rgb(255, 210, 187)" opacity="1.0" stroke="rgb(0, 0, 0)" stroke-opacity="1.0" stroke-linecap="round" stroke-linejoin="round"/>
    <path d="M 509.7144775390625 445.58465576171875 C 381.4689025878906 540.4957275390625 395.28314208984375 338.5574035644531 444.0459899902344 481.7807312011719 C 247.8619842529297 524.1815795898438 336.5440368652344 505.8921203613281 300.471923828125 441.52642822265625 C 227.16766357421875 234.86109924316406 238.09243774414062 268.73565673828125 285.71142578125 202.2477264404297 C 448.296142578125 111.35525512695312 590.8527221679688 169.23086547851562 509.7144775390625 445.58465576171875" stroke-width="0.0" fill="rgb(196, 199, 255)" opacity="0.8317112" stroke="rgb(0, 0, 0)" stroke-opacity="1.0" stroke-linecap="round" stroke-linejoin="round"/>
    <path d="M 523.0386352539062 204.87091064453125 C 544.9783325195312 318.79327392578125 478.9897155761719 241.9093780517578 565.036376953125 338.3418273925781 C 450.97772216796875 413.16778564453125 253.6672821044922 310.1107177734375 454.79376220703125 182.46337890625 C 326.25360107421875 218.24786376953125 384.51611328125 137.2454833984375 436.7832946777344 107.6910171508789 C 486.7032470703125 152.28981018066406 515.4822998046875 123.86387634277344 523.0386352539062 204.87091064453125" stroke-width="0.0" fill="rgb(6, 102, 16)" opacity="1.0" stroke="rgb(0, 0, 0)" stroke-opacity="1.0" stroke-linecap="round" stroke-linejoin="round"/>
    <path d="M 419.6795959472656 202.92495727539062 C 319.6177062988281 271.0852355957031 311.4443664550781 268.3500671386719 283.0802001953125 294.37261962890625 C 243.43516540527344 301.6510314941406 295.2401428222656 338.2086181640625 62.25001907348633 185.0089874267578 C 314.3991394042969 176.29542541503906 174.91522216796875 277.897216796875 282.6355285644531 245.5125732421875 C 335.06512451171875 194.2843780517578 413.5574035644531 152.51608276367188 419.6795959472656 202.92495727539062" stroke-width="0.0" fill="rgb(0, 242, 0)" opacity="1.0" stroke="rgb(0, 0, 0)" stroke-opacity="1.0" stroke-linecap="round" stroke-linejoin="round"/>
    <path d="M 367.83868408203125 193.02503967285156 C 377.4376525878906 214.51553344726562 365.0793762207031 207.95700073242188 346.74420166015625 219.94435119628906 C 326.4395446777344 226.84164428710938 341.44970703125 220.35194396972656 300.0914306640625 221.6590576171875 C 355.7373046875 74.56220245361328 256.17657470703125 166.26158142089844 354.32061767578125 127.92904663085938 C 410.3115234375 157.9270477294922 496.9029541015625 212.76214599609375 367.83868408203125 193.02503967285156" stroke-width="0.0" fill="rgb(58, 15, 90)" opacity="0.7648737" stroke="rgb(0, 0, 0)" stroke-opacity="1.0" stroke-linecap="round" stroke-linejoin="round"/>
    <path d="M 268.46466064453125 292.90289306640625 C 241.24899291992188 295.5094299316406 246.3595733642578 295.82391357421875 247.03884887695312 283.12054443359375 C 258.5748596191406 238.57281494140625 221.26815795898438 247.30250549316406 151.84225463867188 189.83462524414062 C 240.646484375 170.00010681152344 159.33448791503906 252.70089721679688 215.96119689941406 200.2677001953125 C 227.30723571777344 228.9299774169922 252.40524291992188 266.5422668457031 268.46466064453125 292.90289306640625" stroke-width="0.0" fill="rgb(228, 207, 162)" opacity="0.7744116" stroke="rgb(0, 0, 0)" stroke-opacity="1.0" stroke-linecap="round" stroke-linejoin="round"/>
    <path d="M 452.355712890625 256.10791015625 C 278.49078369140625 323.8081359863281 563.6664428710938 255.25979614257812 464.76690673828125 395.7890930175781 C 185.900390625 377.4104309082031 203.04026794433594 392.9952087402344 255.9979705810547 381.36151123046875 C 391.0685729980469 267.0599365234375 406.4605712890625 272.4248962402344 397.6313781738281 284.69158935546875 C 388.70635986328125 248.155517578125 443.2786865234375 219.02212524414062 452.355712890625 256.10791015625" stroke-width="0.0" fill="rgb(15, 122, 0)" opacity="0.9901833" stroke="rgb(0, 0, 0)" stroke-opacity="1.0" stroke-linecap="round" stroke-linejoin="round"/>
    <path d="M 195.73248291015625 104.81429290771484 C 276.4531555175781 53.07551956176758 276.933349609375 115.61436462402344 201.58616638183594 98.16018676757812 C 121.33246612548828 145.5143585205078 -53.488487243652344 259.49237060546875 90.84224700927734 53.0768928527832 C 326.6495666503906 43.9549446105957 268.7488098144531 175.05992126464844 148.86976623535156 9.8878173828125 C 348.5383605957031 -52.979026794433594 235.85865783691406 62.92912292480469 195.73248291015625 104.81429290771484" stroke-width="0.0" fill="rgb(11, 178, 0)" opacity="1.0" stroke="rgb(0, 0, 0)" stroke-opacity="1.0" stroke-linecap="round" stroke-linejoin="round"/>
    <path d="M 170.81549072265625 413.9991455078125 C 167.42807006835938 399.1385498046875 176.21896362304688 387.4700927734375 172.51319885253906 457.58966064453125 C 134.1358184814453 404.0018615722656 142.7410430908203 415.6068420410156 122.04179382324219 382.7038269042969 C 131.9178466796875 331.6310729980469 106.59840393066406 316.0653381347656 152.58108520507812 268.146240234375 C 141.8795623779297 355.583251953125 159.8428955078125 344.76971435546875 170.81549072265625 413.9991455078125" stroke-width="0.0" fill="rgb(118, 136, 1)" opacity="0.0204652" stroke="rgb(0, 0, 0)" stroke-opacity="1.0" stroke-linecap="round" stroke-linejoin="round"/>
    <path d="M 389.8631286621094 79.54216003417969 C 395.5566711425781 80.97966003417969 387.9580383300781 114.73780059814453 375.2993469238281 57.233551025390625 C 358.4975891113281 43.448638916015625 360.9360046386719 58.17410659790039 382.30511474609375 58.900123596191406 C 361.1848449707031 46.64366912841797 366.85943603515625 41.25004959106445 369.5250244140625 57.6008186340332 C 388.4804382324219 59.2794303894043 367.9922790527344 75.71389770507812 389.8631286621094 79.54216003417969" stroke-width="0.0" fill="rgb(99, 158, 87)" opacity="0.21865888" stroke="rgb(0, 0, 0)" stroke-opacity="1.0" stroke-linecap="round" stroke-linejoin="round"/>
    <path d="M 553.4652099609375 63.75975036621094 C 534.989501953125 99.9435043334961 508.16668701171875 75.28726959228516 480.8617858886719 44.854774475097656 C 465.4048767089844 34.18620300292969 458.7025451660156 27.278705596923828 440.4864501953125 19.074695587158203 C 428.05120849609375 8.347123146057129 438.15252685546875 -26.278661727905273 455.4111328125 -49.91334915161133 C 501.29168701171875 -16.257373809814453 518.6566772460938 -17.103946685791016 553.4652099609375 63.75975036621094" stroke-width="0.0" fill="rgb(43, 33, 49)" opacity="0.9371285" stroke="rgb(0, 0, 0)" stroke-opacity="1.0" stroke-linecap="round" stroke-linejoin="round"/>
    <path d="M 349.4491271972656 493.4608154296875 C 351.88861083984375 546.20556640625 359.3302917480469 495.347900390625 306.3965759277344 526.9244995117188 C 149.10317993164062 581.4039916992188 144.42044067382812 476.1579284667969 176.33387756347656 464.42889404296875 C 230.34881591796875 428.05316162109375 228.54745483398438 363.6556396484375 310.85675048828125 322.90899658203125 C 467.4972229003906 305.5948486328125 431.9245910644531 277.10040283203125 349.4491271972656 493.4608154296875" stroke-width="0.0" fill="rgb(10, 172, 0)" opacity="1.0" stroke="rgb(0, 0, 0)" stroke-opacity="1.0" stroke-linecap="round" stroke-linejoin="round"/>
    <path d="M 234.91452026367188 279.86138916015625 C 291.1574401855469 290.15887451171875 278.0516662597656 262.0875244140625 223.74896240234375 348.81976318359375 C 137.1199188232422 283.7362060546875 48.85490036010742 220.18392944335938 65.11859893798828 226.0340576171875 C 87.725830078125 204.89193725585938 169.4774627685547 285.13885498046875 235.52459716796875 308.0858154296875 C 257.8730773925781 270.1813659667969 204.9990997314453 280.6569519042969 234.91452026367188 279.86138916015625" stroke-width="0.0" fill="rgb(255, 234, 228)" opacity="0.8595139" stroke="rgb(0, 0, 0)" stroke-opacity="1.0" stroke-linecap="round" stroke-linejoin="round"/>
    <path d="M 387.2948913574219 401.7346496582031 C 377.705810546875 439.1177978515625 338.1240234375 443.9354553222656 352.3370056152344 495.0765686035156 C 362.2337646484375 482.30084228515625 370.4576721191406 465.14105224609375 336.5382385253906 535.7094116210938 C 275.2789001464844 378.47845458984375 280.7943115234375 328.786376953125 383.0406494140625 317.5435791015625 C 405.1180725097656 400.697998046875 412.2265319824219 366.2029724121094 387.2948913574219 401.7346496582031" stroke-width="0.0" fill="rgb(7, 92, 0)" opacity="0.62935466" stroke="rgb(0, 0, 0)" stroke-opacity="1.0" stroke-linecap="round" stroke-linejoin="round"/>
    <path d="M 292.34698486328125 110.85709381103516 C 384.5273742675781 103.40058898925781 334.03521728515625 123.0169906616211 262.7229919433594 173.71083068847656 C 208.8238983154297 162.40869140625 281.6075439453125 202.70335388183594 252.35682678222656 130.20040893554688 C 236.67601013183594 45.52998733520508 271.124755859375 25.062089920043945 302.2514343261719 95.13422393798828 C 328.5068664550781 113.99147033691406 398.6244201660156 81.12675476074219 292.34698486328125 110.85709381103516" stroke-width="0.0" fill="rgb(4, 67, 177)" opacity="0.9169544" stroke="rgb(0, 0, 0)" stroke-opacity="1.0" stroke-linecap="round" stroke-linejoin="round"/>
    <path d="M 470.6236572265625 325.0626220703125 C 302.21575927734375 388.3238525390625 312.23284912109375 424.08709716796875 311.8732604980469 413.0120544433594 C 225.65512084960938 453.9581298828125 192.72796630859375 383.8644104003906 69.14305114746094 321.00518798828125 C 109.3198013305664 275.5470275878906 145.5276641845703 291.23809814453125 251.92507934570312 368.5470275878906 C 417.7481689453125 235.57470703125 596.0762329101562 180.54930114746094 470.6236572265625 325.0626220703125" stroke-width="0.0" fill="rgb(32, 180, 1)" opacity="0.96327937" stroke="rgb(0, 0, 0)" stroke-opacity="1.0" stroke-linecap="round" stroke-linejoin="round"/>
    <path d="M 423.33447265625 211.0839080810547 C 379.33819580078125 212.10589599609375 376.8822021484375 216.41378784179688 358.38623046875 210.2889404296875 C 382.85272216796875 205.18106079101562 349.0645446777344 225.66456604003906 303.1761169433594 217.69198608398438 C 322.05108642578125 192.4842987060547 367.3304138183594 225.7498321533203 360.151123046875 156.99215698242188 C 387.13543701171875 175.87269592285156 430.3345947265625 176.50233459472656 423.33447265625 211.0839080810547" stroke-width="0.0" fill="rgb(8, 110, 40)" opacity="0.9903311" stroke="rgb(0, 0, 0)" stroke-opacity="1.0" stroke-linecap="round" stroke-linejoin="round"/>
    <path d="M 469.5523681640625 213.06886291503906 C 475.7981262207031 229.8805694580078 522.636474609375 216.80482482910156 411.9502258300781 225.40467834472656 C 306.30718994140625 276.692138671875 313.60284423828125 268.0142822265625 426.2364807128906 207.9969482421875 C 429.9921569824219 170.66986083984375 423.9662780761719 187.9842529296875 426.0751647949219 137.988037109375 C 492.8909606933594 164.92295837402344 451.4738464355469 178.88999938964844 469.5523681640625 213.06886291503906" stroke-width="0.0" fill="rgb(255, 103, 248)" opacity="0.6401515" stroke="rgb(0, 0, 0)" stroke-opacity="1.0" stroke-linecap="round" stroke-linejoin="round"/>
    <path d="M 160.0027618408203 313.82012939453125 C 140.74227905273438 343.1199951171875 110.86060333251953 364.6761474609375 57.2425651550293 316.9217529296875 C 34.05369567871094 303.2142333984375 72.1906509399414 321.1983337402344 -54.04778289794922 246.9053497314453 C 3.3454837799072266 221.5155029296875 17.92840003967285 220.51417541503906 90.4107437133789 264.7633361816406 C 130.2922821044922 294.9691162109375 165.28990173339844 317.56524658203125 160.0027618408203 313.82012939453125" stroke-width="0.0" fill="rgb(32, 187, 10)" opacity="0.98717636" stroke="rgb(0, 0, 0)" stroke-opacity="1.0" stroke-linecap="round" stroke-linejoin="round"/>
    <path d="M 33.38287353515625 54.23360061645508 C 33.03443908691406 66.53215789794922 38.49054718017578 50.43825912475586 64.37894439697266 39.44213104248047 C 96.22715759277344 20.722637176513672 109.0271987915039 -22.937185287475586 -11.484926223754883 -50.150630950927734 C -32.05432891845703 124.46886444091797 0.5993226766586304 79.54002380371094 29.380218505859375 60.80433654785156 C 53.84910202026367 61.74745178222656 25.249286651611328 54.20692443847656 33.38287353515625 54.23360061645508" stroke-width="0.0" fill="rgb(11, 9, 68)" opacity="0.8729151" stroke="rgb(0, 0, 0)" stroke-opacity="1.0" stroke-linecap="round" stroke-linejoin="round"/>
    <path d="M 324.35260009765625 174.67941284179688 C 317.04473876953125 236.33900451660156 326.6781921386719 245.1982421875 305.9958190917969 238.68682861328125 C 238.4683837890625 256.0108337402344 266.4010009765625 283.43853759765625 258.4085693359375 176.2060546875 C 302.4249267578125 164.71267700195312 256.0441589355469 196.21376037597656 287.53912353515625 155.08924865722656 C 332.243896484375 134.53919982910156 306.02728271484375 165.4071502685547 324.35260009765625 174.67941284179688" stroke-width="0.0" fill="rgb(16, 48, 104)" opacity="0.7638884" stroke="rgb(0, 0, 0)" stroke-opacity="1.0" stroke-linecap="round" stroke-linejoin="round"/>
    <path d="M 146.4413299560547 529.3402099609375 C 106.14293670654297 485.55181884765625 103.99459838867188 490.89862060546875 134.46353149414062 476.50970458984375 C 141.15634155273438 491.1846008300781 142.7134552001953 501.99249267578125 115.56111907958984 498.47760009765625 C 98.43113708496094 463.6461486816406 93.5285873413086 401.70758056640625 113.41065216064453 400.5075378417969 C 176.95263671875 442.2822265625 177.9063720703125 516.0470581054688 146.4413299560547 529.3402099609375" stroke-width="0.0" fill="rgb(237, 121, 37)" opacity="0.0786513" stroke="rgb(0, 0, 0)" stroke-opacity="1.0" stroke-linecap="round" stroke-linejoin="round"/>
    <path d="M 73.45350646972656 213.97015380859375 C 154.32772827148438 243.1769256591797 92.22750091552734 208.2816162109375 115.95372009277344 216.2078857421875 C 119.77632904052734 220.73568725585938 86.74642944335938 226.97471618652344 47.037532806396484 234.9612579345703 C 53.28112030029297 214.1332550048828 68.25518035888672 215.1773681640625 107.79581451416016 200.4801788330078 C 127.86536407470703 235.36859130859375 120.44795989990234 197.8656005859375 73.45350646972656 213.97015380859375" stroke-width="0.0" fill="rgb(146, 87, 125)" opacity="0.06871349" stroke="rgb(0, 0, 0)" stroke-opacity="1.0" stroke-linecap="round" stroke-linejoin="round"/>
    <path d="M 95.23233795166016 186.7164306640625 C 113.21944427490234 170.15841674804688 96.66603088378906 128.73289489746094 72.43162536621094 135.40655517578125 C 83.26497650146484 186.4061279296875 45.36579895019531 174.59957885742188 19.55457305908203 124.00209045410156 C 56.79512405395508 83.20747375488281 103.25492095947266 88.12459564208984 103.1047134399414 100.28099060058594 C 102.92466735839844 110.36153411865234 102.32097625732422 120.56731414794922 95.23233795166016 186.7164306640625" stroke-width="0.0" fill="rgb(39, 175, 25)" opacity="0.91257536" stroke="rgb(0, 0, 0)" stroke-opacity="1.0" stroke-linecap="round" stroke-linejoin="round"/>
    <path d="M 305.1200256347656 217.2799530029297 C 369.989013671875 260.0965576171875 359.48016357421875 213.95436096191406 283.4374084472656 195.4102783203125 C 275.0535583496094 218.1752166748047 299.5505065917969 198.5801239013672 239.8471221923828 184.07960510253906 C 258.3293762207031 233.31358337402344 245.98081970214844 197.3052978515625 227.250732421875 226.53631591796875 C 337.696533203125 239.97950744628906 328.8804626464844 219.1162872314453 305.1200256347656 217.2799530029297" stroke-width="0.0" fill="rgb(23, 88, 63)" opacity="0.12603313" stroke="rgb(0, 0, 0)" stroke-opacity="1.0" stroke-linecap="round" stroke-linejoin="round"/>
    <path d="M 186.68910217285156 171.93817138671875 C 184.13711547851562 116.85310363769531 181.9854736328125 98.35694885253906 209.38995361328125 87.21249389648438 C 184.22592163085938 92.15308380126953 176.5140838623047 215.70777893066406 51.948055267333984 197.78756713867188 C 146.36570739746094 97.29930877685547 199.85084533691406 102.5511245727539 223.3741912841797 98.90520477294922 C 216.20106506347656 94.39807891845703 221.3189239501953 102.2594985961914 186.68910217285156 171.93817138671875" stroke-width="0.0" fill="rgb(52, 2, 121)" opacity="0.796123" stroke="rgb(0, 0, 0)" stroke-opacity="1.0" stroke-linecap="round" stroke-linejoin="round"/>
    <path d="M 90.16940307617188 516.0145874023438 C 56.84021759033203 555.06982421875 34.76126480102539 550.83984375 3.2136383056640625 534.43408203125 C -9.364206314086914 527.7437133789062 -16.68471336364746 520.4232177734375 -21.20284080505371 510.0506896972656 C -18.48799705505371 494.70721435546875 -31.987857818603516 464.11956787109375 -29.397123336791992 420.3928527832031 C 45.246253967285156 447.4300842285156 80.79356384277344 460.13677978515625 90.16940307617188 516.0145874023438" stroke-width="0.0" fill="rgb(33, 39, 4)" opacity="0.7940335" stroke="rgb(0, 0, 0)" stroke-opacity="1.0" stroke-linecap="round" stroke-linejoin="round"/>
    <path d="M 217.76023864746094 143.86143493652344 C 260.6846923828125 127.61748504638672 171.19532775878906 131.56288146972656 139.04518127441406 206.65879821777344 C 68.28809356689453 177.6667022705078 139.16517639160156 216.16859436035156 174.10472106933594 216.61593627929688 C 140.2371826171875 211.33047485351562 128.81382751464844 225.74609375 90.90583038330078 203.82211303710938 C 143.63131713867188 172.63768005371094 127.3664779663086 176.08795166015625 217.76023864746094 143.86143493652344" stroke-width="0.0" fill="rgb(2, 251, 21)" opacity="0.99339765" stroke="rgb(0, 0, 0)" stroke-opacity="1.0" stroke-linecap="round" stroke-linejoin="round"/>
    <path d="M 508.5749816894531 223.02777099609375 C 352.44622802734375 321.5683898925781 328.6084289550781 347.8243713378906 344.1521301269531 344.6817932128906 C 314.3772277832031 351.5835266113281 231.32321166992188 379.7269287109375 241.25669860839844 295.7621154785156 C 296.4057922363281 293.8133544921875 314.0447998046875 295.6729736328125 342.1335754394531 244.26312255859375 C 296.6727600097656 303.7521057128906 402.1229553222656 151.97772216796875 508.5749816894531 223.02777099609375" stroke-width="0.0" fill="rgb(71, 25, 126)" opacity="0.6434113" stroke="rgb(0, 0, 0)" stroke-opacity="1.0" stroke-linecap="round" stroke-linejoin="round"/>
    <path d="M 253.47071838378906 115.29646301269531 C 215.97369384765625 159.54177856445312 211.2617950439453 135.9337158203125 166.57357788085938 139.0706329345703 C 153.29469299316406 126.18656158447266 180.21739196777344 118.30905151367188 167.13113403320312 97.86837005615234 C 166.19003295898438 78.16145324707031 184.3029327392578 74.35015106201172 194.8851776123047 53.358253479003906 C 250.90667724609375 63.879451751708984 248.4421844482422 42.96761703491211 253.47071838378906 115.29646301269531" stroke-width="0.0" fill="rgb(196, 175, 210)" opacity="1.0" stroke="rgb(0, 0, 0)" stroke-opacity="1.0" stroke-linecap="round" stroke-linejoin="round"/>
    <path d="M 216.83209228515625 79.8131332397461 C 182.60923767089844 97.58153533935547 180.6802520751953 104.08158874511719 203.15357971191406 87.38666534423828 C 144.68673706054688 33.47751998901367 155.07200622558594 131.15892028808594 147.33367919921875 96.7919692993164 C 103.58485412597656 29.972715377807617 124.51921844482422 -16.536958694458008 233.9381103515625 5.86119270324707 C 219.64779663085938 101.7650146484375 217.97418212890625 77.39794158935547 216.83209228515625 79.8131332397461" stroke-width="0.0" fill="rgb(15, 155, 0)" opacity="0.998661" stroke="rgb(0, 0, 0)" stroke-opacity="1.0" stroke-linecap="round" stroke-linejoin="round"/>
    <path d="M 383.3716125488281 71.77610778808594 C 378.875 73.53262329101562 371.0852355957031 78.93069458007812 371.5832214355469 125.72074890136719 C 368.512451171875 163.46937561035156 371.85040283203125 130.6094512939453 363.8275146484375 73.04182434082031 C 400.8006591796875 84.72647094726562 397.23760986328125 109.47944641113281 380.6922607421875 80.84513092041016 C 391.1584167480469 101.08352661132812 383.2283630371094 86.43147277832031 383.3716125488281 71.77610778808594" stroke-width="0.0" fill="rgb(44, 227, 0)" opacity="0.045602478" stroke="rgb(0, 0, 0)" stroke-opacity="1.0" stroke-linecap="round" stroke-linejoin="round"/>
    <path d="M 324.64788818359375 490.2203674316406 C 330.6986389160156 511.11944580078125 322.47119140625 524.1970825195312 316.7513732910156 533.4635620117188 C 290.3591003417969 543.0386352539062 293.4405212402344 547.6992797851562 291.583984375 478.28173828125 C 285.6994323730469 444.9375305175781 291.2274475097656 421.52410888671875 292.1015930175781 423.1050109863281 C 301.9722900390625 455.1686096191406 308.21063232421875 466.93377685546875 324.64788818359375 490.2203674316406" stroke-width="0.0" fill="rgb(1, 126, 0)" opacity="0.3668561" stroke="rgb(0, 0, 0)" stroke-opacity="1.0" stroke-linecap="round" stroke-linejoin="round"/>
    <path d="M 334.29150390625 189.06788635253906 C 331.65850830078125 130.9698486328125 320.3456115722656 135.8065948486328 312.14300537109375 228.77345275878906 C 277.5076599121094 176.2911834716797 294.3916931152344 151.9471435546875 222.3076171875 151.18087768554688 C 264.5401916503906 158.06581115722656 296.47314453125 173.5561065673828 282.6021728515625 150.67349243164062 C 291.5829162597656 106.93070220947266 316.9350891113281 131.58782958984375 334.29150390625 189.06788635253906" stroke-width="0.0" fill="rgb(101, 107, 179)" opacity="0.4397423" stroke="rgb(0, 0, 0)" stroke-opacity="1.0" stroke-linecap="round" stroke-linejoin="round"/>
    <path d="M 256.81884765625 53.72767639160156 C 261.74212646484375 34.18747329711914 252.4119110107422 22.357553482055664 280.9157409667969 42.090003967285156 C 238.91644287109375 75.2339859008789 251.1796875 34.63650894165039 265.10858154296875 -16.153568267822266 C 258.1835021972656 -10.734435081481934 264.917236328125 -18.103010177612305 257.11932373046875 -10.083745002746582 C 253.9973602294922 3.4416701793670654 233.56842041015625 30.591190338134766 256.81884765625 53.72767639160156" stroke-width="0.0" fill="rgb(58, 118, 123)" opacity="0.75987005" stroke="rgb(0, 0, 0)" stroke-opacity="1.0" stroke-linecap="round" stroke-linejoin="round"/>
    <path d="M 380.0111389160156 232.72891235351562 C 330.0333251953125 253.30609130859375 306.12213134765625 264.38360595703125 328.3360290527344 289.5342102050781 C 326.23870849609375 283.2102355957031 329.7147216796875 250.17288208007812 345.9998779296875 240.4044647216797 C 339.9110412597656 262.0430603027344 333.8580322265625 242.74659729003906 364.9493408203125 232.56898498535156 C 347.5258483886719 237.16213989257812 371.2237243652344 208.78150939941406 380.0111389160156 232.72891235351562" stroke-width="0.0" fill="rgb(248, 220, 187)" opacity="0.9749187" stroke="rgb(0, 0, 0)" stroke-opacity="1.0" stroke-linecap="round" stroke-linejoin="round"/>
    <path d="M 179.2352752685547 94.93798065185547 C 213.09259033203125 135.53591918945312 225.73289489746094 127.90478515625 184.1290740966797 100.00098419189453 C 204.00872802734375 79.83949279785156 210.62600708007812 92.55609130859375 182.7317657470703 104.29238891601562 C 141.68292236328125 137.31271362304688 138.402099609375 74.87609100341797 175.4720001220703 67.5522689819336 C 204.05714416503906 105.41509246826172 216.02520751953125 105.38398742675781 179.2352752685547 94.93798065185547" stroke-width="0.0" fill="rgb(48, 56, 177)" opacity="0.24562593" stroke="rgb(0, 0, 0)" stroke-opacity="1.0" stroke-linecap="round" stroke-linejoin="round"/>
    <path d="M 539.9623413085938 449.51953125 C 554.3728637695312 459.9669494628906 552.0413208007812 472.1551513671875 529.36474609375 496.9485778808594 C 502.5356750488281 497.06884765625 465.03985595703125 495.47894287109375 452.60675048828125 461.8670349121094 C 486.23779296875 435.90618896484375 497.74798583984375 431.3548583984375 520.3270263671875 426.4046936035156 C 522.9414672851562 435.2409362792969 525.7348022460938 438.7987365722656 539.9623413085938 449.51953125" stroke-width="0.0" fill="rgb(40, 35, 83)" opacity="0.99895775" stroke="rgb(0, 0, 0)" stroke-opacity="1.0" stroke-linecap="round" stroke-linejoin="round"/>
    <path d="M 337.31884765625 487.5021667480469 C 349.2434997558594 487.15863037109375 340.8809814453125 482.6676330566406 334.0256652832031 499.65234375 C 324.7547302246094 498.6085205078125 313.55865478515625 486.95123291015625 281.7651062011719 492.7865295410156 C 336.5879821777344 496.0116882324219 344.2378234863281 522.0615844726562 337.7652893066406 483.125244140625 C 351.0680847167969 455.39306640625 340.30462646484375 467.94085693359375 337.31884765625 487.5021667480469" stroke-width="0.0" fill="rgb(15, 99, 42)" opacity="0.0" stroke="rgb(0, 0, 0)" stroke-opacity="1.0" stroke-linecap="round" stroke-linejoin="round"/>
    <path d="M 468.3011169433594 403.2887878417969 C 465.9013366699219 437.6163024902344 464.5963439941406 436.29473876953125 441.0898742675781 431.98773193359375 C 420.7596740722656 436.63787841796875 420.77435302734375 432.87347412109375 427.6472473144531 389.7976989746094 C 435.8571472167969 396.1329345703125 445.748291015625 397.4593811035156 466.6011962890625 379.78564453125 C 480.55743408203125 376.7557373046875 466.8894958496094 375.6229553222656 468.3011169433594 403.2887878417969" stroke-width="0.0" fill="rgb(164, 180, 246)" opacity="0.9771796" stroke="rgb(0, 0, 0)" stroke-opacity="1.0" stroke-linecap="round" stroke-linejoin="round"/>
    <path d="M 451.12127685546875 401.281494140625 C 424.4297180175781 416.0370788574219 400.4703063964844 416.851806640625 370.44610595703125 423.919189453125 C 383.6100769042969 430.529052734375 363.2817077636719 428.03485107421875 375.5814514160156 389.1980285644531 C 375.7450256347656 393.08795166015625 378.636962890625 395.5155334472656 387.2973327636719 372.32794189453125 C 418.57281494140625 360.8072509765625 455.9643249511719 370.69921875 451.12127685546875 401.281494140625" stroke-width="0.0" fill="rgb(9, 118, 0)" opacity="0.9992892" stroke="rgb(0, 0, 0)" stroke-opacity="1.0" stroke-linecap="round" stroke-linejoin="round"/>
    <path d="M 273.3305969238281 136.52516174316406 C 257.20928955078125 109.29164123535156 219.36367797851562 109.06314086914062 206.48143005371094 144.19329833984375 C 293.943115234375 191.4929656982422 242.92234802246094 184.5454559326172 203.95419311523438 143.73226928710938 C 234.2304229736328 123.08447265625 244.1160430908203 152.94918823242188 266.1650085449219 151.914306640625 C 227.8166046142578 131.49156188964844 239.23654174804688 149.16188049316406 273.3305969238281 136.52516174316406" stroke-width="0.0" fill="rgb(159, 150, 225)" opacity="0.73186696" stroke="rgb(0, 0, 0)" stroke-opacity="1.0" stroke-linecap="round" stroke-linejoin="round"/>
    <path d="M 117.7464599609375 398.6630859375 C 98.97480010986328 431.1711730957031 74.92303466796875 435.91461181640625 98.13506317138672 433.2574157714844 C 92.91535186767578 431.2393798828125 71.55013275146484 431.5393981933594 35.71245193481445 416.53424072265625 C 35.79209899902344 369.7449645996094 32.15745544433594 356.7655334472656 61.29269027709961 365.6864929199219 C 99.03298950195312 398.3731384277344 111.53952026367188 398.5754089355469 117.7464599609375 398.6630859375" stroke-width="0.0" fill="rgb(213, 72, 109)" opacity="0.017756658" stroke="rgb(0, 0, 0)" stroke-opacity="1.0" stroke-linecap="round" stroke-linejoin="round"/>
    <path d="M 453.87799072265625 100.4412841796875 C 488.45672607421875 128.21067810058594 486.7707214355469 140.45037841796875 441.81591796875 130.4041290283203 C 410.2657775878906 94.65725708007812 409.15472412109375 84.51815795898438 377.1661682128906 62.38380813598633 C 365.5071105957031 25.69187355041504 371.35931396484375 31.992555618286133 407.9646911621094 63.037353515625 C 415.5916442871094 81.4193344116211 415.7295837402344 88.72239685058594 453.87799072265625 100.4412841796875" stroke-width="0.0" fill="rgb(55, 136, 1)" opacity="0.7291314" stroke="rgb(0, 0, 0)" stroke-opacity="1.0" stroke-linecap="round" stroke-linejoin="round"/>
    <path d="M 243.6590576171875 13.216714859008789 C 211.91851806640625 7.546996116638184 195.22247314453125 -4.687572956085205 207.4356689453125 26.51520347595215 C 199.714599609375 23.720046997070312 198.27987670898438 29.417373657226562 177.6680145263672 15.195806503295898 C 163.66632080078125 -17.01503562927246 200.85377502441406 -18.696666717529297 239.9175567626953 -7.426790237426758 C 237.3745880126953 37.29515075683594 228.2994842529297 13.00998592376709 243.6590576171875 13.216714859008789" stroke-width="0.0" fill="rgb(5, 169, 0)" opacity="0.28111762" stroke="rgb(0, 0, 0)" stroke-opacity="1.0" stroke-linecap="round" stroke-linejoin="round"/>
    <path d="M 494.9011535644531 205.02455139160156 C 507.50653076171875 189.03872680664062 507.3507385253906 199.6267852783203 518.0260009765625 192.14527893066406 C 497.223876953125 180.39712524414062 483.4179382324219 193.4283905029297 507.040771484375 193.31712341308594 C 481.8109436035156 168.5018768310547 473.8610534667969 169.0908660888672 497.0972900390625 157.69647216796875 C 492.3408508300781 178.5198211669922 486.23956298828125 195.74942016601562 494.9011535644531 205.02455139160156" stroke-width="0.0" fill="rgb(67, 12, 188)" opacity="0.0" stroke="rgb(0, 0, 0)" stroke-opacity="1.0" stroke-linecap="round" stroke-linejoin="round"/>
    <path d="M 389.4186096191406 310.2292785644531 C 386.84765625 336.5685729980469 391.8975830078125 341.7959899902344 410.8821105957031 334.0898132324219 C 419.332275390625 309.425048828125 418.36328125 297.0872497558594 386.1592102050781 234.33670043945312 C 353.8762512207031 240.3357391357422 389.8116149902344 272.8272399902344 431.0540466308594 321.6779479980469 C 417.72418212890625 349.64178466796875 410.4185485839844 321.5435485839844 389.4186096191406 310.2292785644531" stroke-width="0.0" fill="rgb(115, 107, 92)" opacity="0.064324394" stroke="rgb(0, 0, 0)" stroke-opacity="1.0" stroke-linecap="round" stroke-linejoin="round"/>
    <path d="M 270.44427490234375 303.4818420410156 C 249.52700805664062 302.3211669921875 226.15371704101562 303.1943054199219 220.61309814453125 308.99462890625 C 249.92686462402344 284.0054931640625 253.2485809326172 288.53973388671875 239.87777709960938 294.8778076171875 C 235.7779083251953 284.3559875488281 246.01844787597656 282.76904296875 237.4978485107422 245.8079376220703 C 239.05072021484375 270.0465087890625 246.7660675048828 282.3105163574219 270.44427490234375 303.4818420410156" stroke-width="0.0" fill="rgb(191, 73, 215)" opacity="0.83491385" stroke="rgb(0, 0, 0)" stroke-opacity="1.0" stroke-linecap="round" stroke-linejoin="round"/>
    <path d="M 270.0488586425781 284.88824462890625 C 277.9870300292969 285.6025085449219 299.7688293457031 304.9393310546875 264.0113220214844 280.04852294921875 C 233.36734008789062 284.0179138183594 237.65231323242188 303.7890625 224.7354736328125 301.7068786621094 C 243.2586669921875 283.3465881347656 249.77574157714844 276.4487609863281 258.9801025390625 296.1847229003906 C 256.20660400390625 299.4909973144531 283.2933349609375 298.63568115234375 270.0488586425781 284.88824462890625" stroke-width="0.0" fill="rgb(16, 223, 115)" opacity="0.18076688" stroke="rgb(0, 0, 0)" stroke-opacity="1.0" stroke-linecap="round" stroke-linejoin="round"/>
    <path d="M 66.3180923461914 131.35830688476562 C 51.09368896484375 144.00384521484375 38.82141876220703 154.21121215820312 26.80493927001953 172.09695434570312 C 28.84898567199707 162.77841186523438 1.8078486919403076 161.60304260253906 2.946904182434082 153.7663116455078 C 15.916927337646484 132.27609252929688 46.74483871459961 127.41983795166016 75.4754867553711 120.79190826416016 C 58.85116958618164 111.0598373413086 65.38125610351562 112.51692962646484 66.3180923461914 131.35830688476562" stroke-width="0.0" fill="rgb(165, 117, 120)" opacity="0.0012247564" stroke="rgb(0, 0, 0)" stroke-opacity="1.0" stroke-linecap="round" stroke-linejoin="round"/>
    <path d="M 489.55523681640625 141.16790771484375 C 428.1468811035156 142.6382598876953 440.2980651855469 155.8012237548828 440.0542907714844 168.29266357421875 C 411.42388916015625 156.822021484375 414.5936279296875 150.91200256347656 405.3525085449219 150.8502960205078 C 379.27252197265625 128.5463104248047 381.97894287109375 65.95511627197266 443.6405334472656 85.18499755859375 C 454.983642578125 106.6852798461914 477.0867919921875 109.71452331542969 489.55523681640625 141.16790771484375" stroke-width="0.0" fill="rgb(5, 220, 0)" opacity="1.0" stroke="rgb(0, 0, 0)" stroke-opacity="1.0" stroke-linecap="round" stroke-linejoin="round"/>
    <path d="M 123.78287506103516 472.8081359863281 C 118.43408966064453 496.922607421875 107.8463363647461 484.56256103515625 66.90219116210938 437.71099853515625 C 11.590020179748535 486.2135925292969 20.028175354003906 508.0133972167969 11.450328826904297 474.8288879394531 C 47.015018463134766 483.15008544921875 66.2938003540039 476.8632507324219 44.72610855102539 443.79632568359375 C 102.6401596069336 433.875 115.70310974121094 420.1390686035156 123.78287506103516 472.8081359863281" stroke-width="0.0" fill="rgb(255, 108, 255)" opacity="0.044413887" stroke="rgb(0, 0, 0)" stroke-opacity="1.0" stroke-linecap="round" stroke-linejoin="round"/>
    <path d="M 541.2188110351562 32.51893997192383 C 532.0359497070312 52.600830078125 528.7026977539062 53.88516616821289 532.469970703125 61.22633743286133 C 510.075439453125 63.05290603637695 508.1826477050781 48.421932220458984 513.629638671875 49.1532096862793 C 468.022216796875 41.724571228027344 441.14141845703125 14.654544830322266 431.1324157714844 6.03853178024292 C 515.75732421875 33.516536712646484 526.6818237304688 42.98702621459961 541.2188110351562 32.51893997192383" stroke-width="0.0" fill="rgb(24, 88, 30)" opacity="0.08822747" stroke="rgb(0, 0, 0)" stroke-opacity="1.0" stroke-linecap="round" stroke-linejoin="round"/>
    <path d="M 306.6092529296875 275.3573303222656 C 283.6970520019531 255.47572326660156 280.8477783203125 300.5205078125 279.6263122558594 298.3067932128906 C 258.45538330078125 345.1143798828125 239.42770385742188 339.4010009765625 287.2740173339844 315.2193603515625 C 300.61328125 317.38873291015625 303.6409606933594 286.2094421386719 305.4807434082031 299.5838317871094 C 276.9921875 308.0901794433594 298.398681640625 317.4077453613281 306.6092529296875 275.3573303222656" stroke-width="0.0" fill="rgb(175, 58, 190)" opacity="0.15327702" stroke="rgb(0, 0, 0)" stroke-opacity="1.0" stroke-linecap="round" stroke-linejoin="round"/>
    <path d="M 333.8236083984375 95.17823028564453 C 324.8887634277344 80.82539367675781 309.772705078125 116.91925048828125 283.179931640625 139.92135620117188 C 322.0296630859375 112.13343048095703 337.7059631347656 115.90313720703125 296.0357666015625 113.72296905517578 C 313.40399169921875 80.84725952148438 317.855224609375 82.36647033691406 341.1122131347656 76.75553131103516 C 323.66497802734375 85.58000946044922 319.4881286621094 123.11678314208984 333.8236083984375 95.17823028564453" stroke-width="0.0" fill="rgb(119, 133, 229)" opacity="0.48874348" stroke="rgb(0, 0, 0)" stroke-opacity="1.0" stroke-linecap="round" stroke-linejoin="round"/>
    <path d="M 143.22625732421875 83.08540344238281 C 142.33114624023438 72.13965606689453 144.4648895263672 90.15216064453125 146.00538635253906 78.70616912841797 C 98.30561065673828 88.00042724609375 97.3584213256836 72.64958953857422 110.95389556884766 69.34034729003906 C 99.01090240478516 56.50520706176758 92.18655395507812 72.63081359863281 124.01310729980469 77.65125274658203 C 131.46693420410156 73.12644958496094 128.52804565429688 72.52692413330078 143.22625732421875 83.08540344238281" stroke-width="0.0" fill="rgb(112, 135, 38)" opacity="0.06449486" stroke="rgb(0, 0, 0)" stroke-opacity="1.0" stroke-linecap="round" stroke-linejoin="round"/>
    <path d="M 431.9527893066406 483.61651611328125 C 455.8009338378906 495.71356201171875 452.94171142578125 514.0744018554688 429.3297119140625 536.4561767578125 C 413.8393859863281 521.6568603515625 396.7137451171875 506.7796630859375 399.4470520019531 475.1794738769531 C 413.78253173828125 460.6354064941406 412.697021484375 450.8499755859375 420.37005615234375 445.70928955078125 C 435.8091125488281 478.8026123046875 443.140869140625 486.12884521484375 431.9527893066406 483.61651611328125" stroke-width="0.0" fill="rgb(214, 129, 167)" opacity="0.0" stroke="rgb(0, 0, 0)" stroke-opacity="1.0" stroke-linecap="round" stroke-linejoin="round"/>
    <path d="M 185.0264129638672 61.06547164916992 C 194.13792419433594 73.12665557861328 192.0132293701172 92.23545837402344 198.28843688964844 85.39653015136719 C 198.99615478515625 80.97905731201172 181.74151611328125 81.94742584228516 159.8956298828125 67.10799407958984 C 144.1798858642578 57.829166412353516 166.7102813720703 63.102291107177734 184.1192169189453 96.61747741699219 C 196.49049377441406 63.92115020751953 202.4965057373047 57.025474548339844 185.0264129638672 61.06547164916992" stroke-width="0.0" fill="rgb(34, 154, 110)" opacity="0.062028725" stroke="rgb(0, 0, 0)" stroke-opacity="1.0" stroke-linecap="round" stroke-linejoin="round"/>
    <path d="M 280.4171447753906 220.82008361816406 C 280.94384765625 221.46170043945312 275.75482177734375 228.95277404785156 238.0503387451172 232.20675659179688 C 267.6398010253906 244.99559020996094 258.2643127441406 242.46864318847656 222.23252868652344 226.34120178222656 C 277.9005126953125 243.9861297607422 274.62237548828125 228.22239685058594 280.50146484375 200.41738891601562 C 299.2994384765625 229.26173400878906 290.9649353027344 219.00601196289062 280.4171447753906 220.82008361816406" stroke-width="0.0" fill="rgb(225, 132, 174)" opacity="0.82191634" stroke="rgb(0, 0, 0)" stroke-opacity="1.0" stroke-linecap="round" stroke-linejoin="round"/>
    <path d="M 470.072265625 -31.796527862548828 C 460.6472473144531 -23.966341018676758 459.6034240722656 -9.15605640411377 466.897216796875 8.190372467041016 C 466.68768310546875 -2.1019716262817383 458.4967346191406 -2.457174062728882 457.09954833984375 -25.501726150512695 C 443.02642822265625 -11.118226051330566 452.07421875 -16.323915481567383 464.5194396972656 -17.583200454711914 C 476.8262023925781 -16.114213943481445 486.2515869140625 -11.2457275390625 470.072265625 -31.796527862548828" stroke-width="0.0" fill="rgb(100, 42, 53)" opacity="0.028825821" stroke="rgb(0, 0, 0)" stroke-opacity="1.0" stroke-linecap="round" stroke-linejoin="round"/>
    <path d="M 169.57498168945312 442.4928283691406 C 169.80685424804688 479.5108337402344 177.7884063720703 468.25286865234375 166.243896484375 456.1717834472656 C 160.78099060058594 410.8244323730469 149.12841796875 418.8155822753906 148.9669647216797 455.3970947265625 C 164.48451232910156 458.3226318359375 178.4202423095703 443.03570556640625 166.76968383789062 402.31396484375 C 143.5015411376953 399.0354309082031 161.073974609375 418.0682373046875 169.57498168945312 442.4928283691406" stroke-width="0.0" fill="rgb(138, 140, 0)" opacity="0.020092241" stroke="rgb(0, 0, 0)" stroke-opacity="1.0" stroke-linecap="round" stroke-linejoin="round"/>
  </g>
</svg>
