<?xml version="1.0" ?>
<svg xmlns="http://www.w3.org/2000/svg" version="1.1" width="512" height="512">
  <defs/>
  <g>
    <path d="M 577.57080078125 380.53643798828125 C 547.165283203125 516.641845703125 548.8319091796875 525.4011840820312 402.0728454589844 565.76318359375 C 320.77020263671875 554.2278442382812 251.81243896484375 520.2854614257812 351.2706298828125 388.61334228515625 C 336.9921569824219 248.47206115722656 325.88641357421875 290.0884094238281 443.9459533691406 258.3024597167969 C 584.3494262695312 302.7031555175781 590.3698120117188 297.83349609375 577.57080078125 380.53643798828125" stroke-width="0.0" fill="rgb(9, 0, 215)" opacity="0.9979673" stroke="rgb(0, 0, 0)" stroke-opacity="1.0" stroke-linecap="round" stroke-linejoin="round"/>
    <path d="M 293.2490539550781 391.7729797363281 C 373.44488525390625 522.1597290039062 367.61163330078125 538.119140625 281.007568359375 545.79833984375 C -51.20000076293945 519.133544921875 -51.20000076293945 511.7567443847656 -44.75259780883789 468.953857421875 C -29.951309204101562 182.85577392578125 -17.899253845214844 201.72781372070312 66.65465545654297 173.131591796875 C 98.34857177734375 317.635986328125 169.90635681152344 292.45703125 293.2490539550781 391.7729797363281" stroke-width="0.0" fill="rgb(12, 0, 229)" opacity="0.9931018" stroke="rgb(0, 0, 0)" stroke-opacity="1.0" stroke-linecap="round" stroke-linejoin="round"/>
    <path d="M 265.80010986328125 226.674560546875 C 287.7432556152344 409.41485595703125 298.06396484375 402.8031921386719 260.72833251953125 400.33203125 C 110.25334930419922 512.9096069335938 69.5333251953125 421.3448791503906 -16.2053165435791 174.25796508789062 C 14.919841766357422 161.70445251464844 45.422393798828125 165.8271942138672 135.88055419921875 187.23011779785156 C 135.06011962890625 224.59523010253906 157.2937774658203 217.90927124023438 265.80010986328125 226.674560546875" stroke-width="0.0" fill="rgb(11, 1, 240)" opacity="0.9951167" stroke="rgb(0, 0, 0)" stroke-opacity="1.0" stroke-linecap="round" stroke-linejoin="round"/>
    <path d="M 267.4930114746094 10.97465991973877 C 234.98561096191406 280.3935852050781 95.60708618164062 174.06610107421875 58.316734313964844 199.7879638671875 C -12.492778778076172 186.26034545898438 -52.77008819580078 223.75413513183594 -69.80912780761719 139.86044311523438 C -16.39366340637207 -18.030452728271484 -10.150599479675293 -23.750812530517578 38.93270492553711 -25.255111694335938 C 204.69911193847656 -34.18629837036133 227.6792449951172 -42.31901550292969 267.4930114746094 10.97465991973877" stroke-width="0.0" fill="rgb(36, 13, 228)" opacity="0.95580405" stroke="rgb(0, 0, 0)" stroke-opacity="1.0" stroke-linecap="round" stroke-linejoin="round"/>
    <path d="M 502.4969787597656 97.10610961914062 C 433.1038818359375 288.3898010253906 409.2261962890625 256.22076416015625 367.3075256347656 320.24853515625 C 293.75286865234375 277.37701416015625 273.4822998046875 300.91778564453125 243.00723266601562 166.28973388671875 C 194.43951416015625 64.57459259033203 172.80712890625 -0.5725656151771545 351.7192077636719 -45.14980697631836 C 550.2347412109375 -32.02425765991211 537.2482299804688 -3.4321858882904053 502.4969787597656 97.10610961914062" stroke-width="0.0" fill="rgb(130, 104, 114)" opacity="0.370369" stroke="rgb(0, 0, 0)" stroke-opacity="1.0" stroke-linecap="round" stroke-linejoin="round"/>
    <path d="M 267.67828369140625 23.817195892333984 C 219.68801879882812 236.88372802734375 348.4569396972656 229.90032958984375 136.95103454589844 303.22039794921875 C 131.36451721191406 169.07058715820312 122.29329681396484 158.756591796875 120.96106719970703 139.01065063476562 C 115.86531829833984 107.98204803466797 73.24480438232422 71.12052917480469 273.45831298828125 -70.6071548461914 C 431.1041564941406 29.98624038696289 311.25152587890625 -63.12010192871094 267.67828369140625 23.817195892333984" stroke-width="0.0" fill="rgb(21, 6, 239)" opacity="0.99645555" stroke="rgb(0, 0, 0)" stroke-opacity="1.0" stroke-linecap="round" stroke-linejoin="round"/>
    <path d="M 560.0226440429688 150.15284729003906 C 582.1982421875 300.6510009765625 578.4080200195312 323.942138671875 492.098876953125 309.19622802734375 C 426.42608642578125 273.7073974609375 419.31231689453125 275.1653137207031 433.95501708984375 219.520751953125 C 452.75543212890625 136.258056640625 403.1693420410156 23.45347023010254 489.6551818847656 -38.13557052612305 C 565.2454833984375 27.959007263183594 566.7335815429688 55.868927001953125 560.0226440429688 150.15284729003906" stroke-width="0.0" fill="rgb(23, 10, 212)" opacity="0.99165565" stroke="rgb(0, 0, 0)" stroke-opacity="1.0" stroke-linecap="round" stroke-linejoin="round"/>
    <path d="M 339.990478515625 217.71263122558594 C 349.7034606933594 320.31829833984375 321.6747741699219 319.2176818847656 287.7859191894531 301.8592834472656 C 296.014404296875 296.20794677734375 252.90663146972656 291.853515625 147.60552978515625 291.896484375 C 235.22463989257812 215.1637725830078 228.11370849609375 191.9030303955078 260.9259338378906 155.54393005371094 C 302.4926452636719 86.6714096069336 305.465576171875 127.2591781616211 339.990478515625 217.71263122558594" stroke-width="0.0" fill="rgb(213, 255, 151)" opacity="0.33134416" stroke="rgb(0, 0, 0)" stroke-opacity="1.0" stroke-linecap="round" stroke-linejoin="round"/>
    <path d="M 378.2388610839844 222.2825469970703 C 308.343994140625 303.3003845214844 495.5602722167969 235.5348358154297 348.8060607910156 297.2652587890625 C 323.7274169921875 262.9040222167969 384.9832458496094 261.4183654785156 337.394775390625 220.6846466064453 C 296.5387878417969 -4.093991279602051 331.8596496582031 102.84246826171875 309.47906494140625 170.64266967773438 C 393.10552978515625 166.73927307128906 420.6331481933594 180.08261108398438 378.2388610839844 222.2825469970703" stroke-width="0.0" fill="rgb(255, 255, 248)" opacity="0.9999696" stroke="rgb(0, 0, 0)" stroke-opacity="1.0" stroke-linecap="round" stroke-linejoin="round"/>
    <path d="M 233.4366912841797 253.4184112548828 C 345.6740417480469 271.1170654296875 238.60755920410156 256.0078430175781 187.92477416992188 317.0693664550781 C 67.68170928955078 391.9144287109375 131.32701110839844 259.33587646484375 186.353759765625 199.32688903808594 C 73.05106353759766 201.36158752441406 1.6654855012893677 191.95455932617188 207.78286743164062 202.28463745117188 C 235.69412231445312 185.93739318847656 230.39730834960938 262.56829833984375 233.4366912841797 253.4184112548828" stroke-width="0.0" fill="rgb(50, 57, 84)" opacity="0.5637795" stroke="rgb(0, 0, 0)" stroke-opacity="1.0" stroke-linecap="round" stroke-linejoin="round"/>
    <path d="M 422.3846130371094 220.82379150390625 C 453.1672668457031 177.16429138183594 422.4134826660156 266.2428894042969 386.8055725097656 280.68206787109375 C 378.073486328125 292.9937744140625 355.7707824707031 353.4447021484375 407.227783203125 259.8985290527344 C 421.18060302734375 271.1395568847656 407.2853088378906 260.5378112792969 414.27587890625 277.3482971191406 C 380.64471435546875 247.96981811523438 441.9017028808594 266.202392578125 422.3846130371094 220.82379150390625" stroke-width="0.0" fill="rgb(37, 10, 180)" opacity="0.945057" stroke="rgb(0, 0, 0)" stroke-opacity="1.0" stroke-linecap="round" stroke-linejoin="round"/>
    <path d="M 333.61517333984375 392.7494812011719 C 135.4518585205078 333.4704895019531 241.17747497558594 390.0035705566406 143.07574462890625 426.8875732421875 C 136.11988830566406 400.2999572753906 147.9524383544922 391.9185485839844 141.6514892578125 381.8831481933594 C 175.13119506835938 382.6248474121094 170.967529296875 384.80841064453125 172.6197052001953 364.1973571777344 C 218.39390563964844 342.6817321777344 166.70486450195312 368.6185607910156 333.61517333984375 392.7494812011719" stroke-width="0.0" fill="rgb(14, 26, 213)" opacity="0.059187267" stroke="rgb(0, 0, 0)" stroke-opacity="1.0" stroke-linecap="round" stroke-linejoin="round"/>
    <path d="M 539.9846801757812 38.27566909790039 C 508.29339599609375 67.0377426147461 485.8733825683594 56.56052017211914 478.65057373046875 120.64140319824219 C 440.90179443359375 86.37759399414062 461.74200439453125 128.2272491455078 432.5966796875 46.17191696166992 C 413.22137451171875 -58.69716262817383 372.3263854980469 69.59965515136719 337.3658447265625 -27.05319595336914 C 529.0829467773438 -34.93727493286133 539.5521850585938 -4.501864433288574 539.9846801757812 38.27566909790039" stroke-width="0.0" fill="rgb(24, 2, 231)" opacity="1.0" stroke="rgb(0, 0, 0)" stroke-opacity="1.0" stroke-linecap="round" stroke-linejoin="round"/>
    <path d="M 424.56707763671875 73.64632415771484 C 398.4070739746094 155.88096618652344 405.96240234375 140.73806762695312 364.09576416015625 148.93453979492188 C 364.7892761230469 180.64454650878906 419.8042907714844 150.02899169921875 414.22222900390625 109.16095733642578 C 394.71759033203125 68.38662719726562 400.549072265625 67.17160034179688 391.84674072265625 65.5662841796875 C 390.7475891113281 28.8143310546875 423.31927490234375 18.96611213684082 424.56707763671875 73.64632415771484" stroke-width="0.0" fill="rgb(255, 210, 140)" opacity="0.85441905" stroke="rgb(0, 0, 0)" stroke-opacity="1.0" stroke-linecap="round" stroke-linejoin="round"/>
    <path d="M 252.32077026367188 279.90283203125 C 232.42359924316406 289.4547119140625 200.70001220703125 298.7591247558594 217.8633270263672 286.53887939453125 C 176.09837341308594 295.93682861328125 182.6526336669922 352.8819580078125 115.26969909667969 174.77200317382812 C 58.072776794433594 179.685791015625 85.056884765625 168.64451599121094 227.96575927734375 169.91653442382812 C 255.90367126464844 183.881591796875 256.7691955566406 258.055419921875 252.32077026367188 279.90283203125" stroke-width="0.0" fill="rgb(204, 0, 255)" opacity="0.81555516" stroke="rgb(0, 0, 0)" stroke-opacity="1.0" stroke-linecap="round" stroke-linejoin="round"/>
    <path d="M 366.0272521972656 446.6000061035156 C 402.0664367675781 442.88177490234375 337.18328857421875 486.1670837402344 299.4166564941406 429.85589599609375 C 254.072998046875 275.6418151855469 316.0754699707031 493.9195556640625 398.2166748046875 463.2209777832031 C 381.8756408691406 417.3484191894531 326.5640869140625 477.12127685546875 279.5596618652344 371.6507873535156 C 367.3428649902344 496.88726806640625 324.6091613769531 448.4106750488281 366.0272521972656 446.6000061035156" stroke-width="0.0" fill="rgb(17, 32, 160)" opacity="0.0" stroke="rgb(0, 0, 0)" stroke-opacity="1.0" stroke-linecap="round" stroke-linejoin="round"/>
    <path d="M 324.01934814453125 55.43874740600586 C 343.3018798828125 117.9211654663086 342.4344177246094 98.0847396850586 344.8954162597656 103.27762603759766 C 357.70086669921875 110.7248306274414 335.13519287109375 39.875877380371094 312.0002746582031 26.154863357543945 C 269.52593994140625 -35.152191162109375 310.7391052246094 -96.2439956665039 404.01220703125 3.887310266494751 C 361.6705322265625 76.6396713256836 382.210205078125 50.41487503051758 324.01934814453125 55.43874740600586" stroke-width="0.0" fill="rgb(0, 0, 241)" opacity="1.0" stroke="rgb(0, 0, 0)" stroke-opacity="1.0" stroke-linecap="round" stroke-linejoin="round"/>
    <path d="M 390.1142578125 310.321533203125 C 126.39427185058594 244.1465606689453 111.37632751464844 360.58477783203125 222.2324676513672 352.0628356933594 C 283.0099792480469 359.9433288574219 346.7615661621094 385.2871398925781 288.5290222167969 336.9709777832031 C 256.06884765625 339.4964599609375 252.78646850585938 358.9388732910156 254.7898712158203 367.7630615234375 C 295.0343933105469 416.7907409667969 347.34515380859375 493.26708984375 390.1142578125 310.321533203125" stroke-width="0.0" fill="rgb(233, 226, 121)" opacity="0.8556628" stroke="rgb(0, 0, 0)" stroke-opacity="1.0" stroke-linecap="round" stroke-linejoin="round"/>
    <path d="M 368.2039794921875 181.2261505126953 C 350.2427673339844 166.6374053955078 307.4695739746094 176.99851989746094 353.45770263671875 210.5020294189453 C 379.73602294921875 175.4731903076172 356.94439697265625 177.90931701660156 343.01080322265625 189.6715850830078 C 356.60906982421875 191.311279296875 365.3417663574219 186.07431030273438 351.95391845703125 192.88400268554688 C 352.7875061035156 197.37841796875 365.7686462402344 200.1280517578125 368.2039794921875 181.2261505126953" stroke-width="0.0" fill="rgb(0, 9, 7)" opacity="0.9882543" stroke="rgb(0, 0, 0)" stroke-opacity="1.0" stroke-linecap="round" stroke-linejoin="round"/>
    <path d="M 146.97935485839844 314.45867919921875 C 139.86190795898438 458.85931396484375 149.84600830078125 327.0459899902344 150.44248962402344 299.3740234375 C 123.94583892822266 274.97833251953125 87.29670715332031 273.9892578125 97.8735122680664 264.6809997558594 C 43.318477630615234 167.18824768066406 77.22010040283203 140.48184204101562 149.3846435546875 161.56643676757812 C 146.24916076660156 257.64593505859375 83.2105484008789 280.1177673339844 146.97935485839844 314.45867919921875" stroke-width="0.0" fill="rgb(21, 11, 228)" opacity="0.9648568" stroke="rgb(0, 0, 0)" stroke-opacity="1.0" stroke-linecap="round" stroke-linejoin="round"/>
    <path d="M 261.7278137207031 165.04039001464844 C 261.9808654785156 188.8179168701172 241.1486358642578 178.4303741455078 251.89332580566406 239.45477294921875 C 241.21282958984375 224.8440399169922 253.0222930908203 215.8081817626953 247.78921508789062 213.85769653320312 C 246.62115478515625 161.10911560058594 235.09417724609375 107.75208282470703 268.7290954589844 143.91641235351562 C 243.00054931640625 181.98573303222656 246.42303466796875 180.92591857910156 261.7278137207031 165.04039001464844" stroke-width="0.0" fill="rgb(19, 16, 229)" opacity="0.074723646" stroke="rgb(0, 0, 0)" stroke-opacity="1.0" stroke-linecap="round" stroke-linejoin="round"/>
    <path d="M 163.1259765625 321.8062744140625 C 123.79634857177734 383.0378112792969 179.93505859375 402.49951171875 112.78709411621094 439.4491882324219 C 49.558895111083984 355.1528625488281 22.841533660888672 360.9364318847656 -20.263919830322266 321.8883056640625 C 31.95268440246582 270.30364990234375 46.369964599609375 254.04039001464844 101.227294921875 213.88177490234375 C 104.10384368896484 273.99835205078125 119.43196105957031 284.1800537109375 163.1259765625 321.8062744140625" stroke-width="0.0" fill="rgb(12, 15, 228)" opacity="0.421952" stroke="rgb(0, 0, 0)" stroke-opacity="1.0" stroke-linecap="round" stroke-linejoin="round"/>
    <path d="M 287.43255615234375 265.9061584472656 C 297.4534606933594 294.9620666503906 309.9587097167969 279.5267028808594 248.1269073486328 277.711669921875 C 235.79580688476562 297.9561767578125 252.06973266601562 260.41595458984375 236.9490509033203 224.54844665527344 C 244.37771606445312 212.82933044433594 260.11712646484375 212.83216857910156 274.62835693359375 238.39456176757812 C 283.2789001464844 235.376953125 263.3538818359375 245.24810791015625 287.43255615234375 265.9061584472656" stroke-width="0.0" fill="rgb(96, 24, 225)" opacity="0.613451" stroke="rgb(0, 0, 0)" stroke-opacity="1.0" stroke-linecap="round" stroke-linejoin="round"/>
    <path d="M 277.3291320800781 212.97378540039062 C 281.52777099609375 214.53868103027344 292.2733459472656 262.0569152832031 251.10633850097656 261.3110656738281 C 210.86524963378906 273.84332275390625 237.1758575439453 297.0410461425781 256.010009765625 233.1690216064453 C 269.8314514160156 198.19151306152344 262.41845703125 182.55494689941406 288.3265380859375 201.98721313476562 C 262.04156494140625 199.41046142578125 259.083740234375 216.13064575195312 277.3291320800781 212.97378540039062" stroke-width="0.0" fill="rgb(106, 62, 188)" opacity="0.0" stroke="rgb(0, 0, 0)" stroke-opacity="1.0" stroke-linecap="round" stroke-linejoin="round"/>
    <path d="M 314.5184020996094 377.053466796875 C 238.46717834472656 325.8243713378906 241.33135986328125 395.0816650390625 252.2194366455078 455.157958984375 C 259.2182922363281 423.5345764160156 245.917236328125 453.6513366699219 268.4370422363281 499.39398193359375 C 313.8164367675781 495.5640869140625 429.9783020019531 503.8561706542969 385.4103088378906 462.0042724609375 C 314.6731262207031 461.4970703125 362.400390625 430.2542724609375 314.5184020996094 377.053466796875" stroke-width="0.0" fill="rgb(254, 255, 238)" opacity="1.0" stroke="rgb(0, 0, 0)" stroke-opacity="1.0" stroke-linecap="round" stroke-linejoin="round"/>
    <path d="M 336.0164489746094 113.65815734863281 C 304.96746826171875 193.7935791015625 276.0952453613281 181.19854736328125 298.4376525878906 187.32876586914062 C 291.3841857910156 149.09947204589844 254.78598022460938 154.7908935546875 260.26934814453125 206.28208923339844 C 272.3486022949219 187.8767852783203 273.88140869140625 181.332275390625 240.92706298828125 167.32643127441406 C 259.8998107910156 111.38438415527344 247.71026611328125 86.62663269042969 336.0164489746094 113.65815734863281" stroke-width="0.0" fill="rgb(148, 120, 183)" opacity="0.9997712" stroke="rgb(0, 0, 0)" stroke-opacity="1.0" stroke-linecap="round" stroke-linejoin="round"/>
    <path d="M 436.200439453125 236.47203063964844 C 526.4013671875 262.3309020996094 481.4911193847656 329.4447937011719 374.7807922363281 351.00634765625 C 293.5091552734375 283.7410583496094 242.56106567382812 298.31195068359375 274.3734436035156 259.53045654296875 C 327.78692626953125 266.77789306640625 321.80712890625 277.0955810546875 290.3462829589844 263.9606018066406 C 332.5511474609375 267.06890869140625 350.7036437988281 305.293212890625 436.200439453125 236.47203063964844" stroke-width="0.0" fill="rgb(255, 0, 241)" opacity="1.0" stroke="rgb(0, 0, 0)" stroke-opacity="1.0" stroke-linecap="round" stroke-linejoin="round"/>
    <path d="M 216.68048095703125 342.6927185058594 C 204.46652221679688 374.7324523925781 202.4122772216797 390.36175537109375 176.31056213378906 403.8131408691406 C 148.9518585205078 440.2943115234375 161.89918518066406 474.24774169921875 75.13519287109375 417.03375244140625 C 85.04804229736328 281.60479736328125 88.8598861694336 252.69686889648438 128.7359161376953 300.7702331542969 C 172.7294158935547 367.4709167480469 197.57212829589844 369.0770263671875 216.68048095703125 342.6927185058594" stroke-width="0.0" fill="rgb(170, 169, 57)" opacity="0.73624843" stroke="rgb(0, 0, 0)" stroke-opacity="1.0" stroke-linecap="round" stroke-linejoin="round"/>
    <path d="M 221.78497314453125 282.1090087890625 C 230.12086486816406 300.30841064453125 204.18856811523438 297.40185546875 158.49522399902344 293.7660217285156 C 114.2120590209961 278.9147033691406 137.99424743652344 263.74652099609375 157.86257934570312 276.42132568359375 C 138.74241638183594 246.6436309814453 132.6739959716797 245.66546630859375 134.19815063476562 271.8966369628906 C 144.63983154296875 293.7290344238281 173.6668701171875 285.83575439453125 221.78497314453125 282.1090087890625" stroke-width="0.0" fill="rgb(249, 31, 219)" opacity="0.8672777" stroke="rgb(0, 0, 0)" stroke-opacity="1.0" stroke-linecap="round" stroke-linejoin="round"/>
    <path d="M 346.6228942871094 264.587890625 C 366.2269287109375 256.0695495605469 366.14990234375 264.91656494140625 352.8636779785156 272.84979248046875 C 307.42547607421875 266.8332214355469 284.45159912109375 283.65087890625 301.74481201171875 211.7021942138672 C 318.0727233886719 205.21034240722656 315.935791015625 187.82789611816406 288.34442138671875 218.40513610839844 C 290.072998046875 269.43756103515625 316.0611267089844 275.48602294921875 346.6228942871094 264.587890625" stroke-width="0.0" fill="rgb(211, 232, 216)" opacity="0.7438345" stroke="rgb(0, 0, 0)" stroke-opacity="1.0" stroke-linecap="round" stroke-linejoin="round"/>
    <path d="M 142.67506408691406 433.4461364746094 C 205.92822265625 448.51971435546875 219.53060913085938 488.02740478515625 169.7390899658203 488.7544250488281 C 113.52017974853516 511.1990051269531 118.4979248046875 497.98321533203125 76.61931610107422 422.2385559082031 C 154.05859375 376.8312072753906 199.6787567138672 309.7105712890625 203.33578491210938 378.517333984375 C 161.18072509765625 420.24847412109375 144.57859802246094 426.8612365722656 142.67506408691406 433.4461364746094" stroke-width="0.0" fill="rgb(253, 255, 244)" opacity="0.9994308" stroke="rgb(0, 0, 0)" stroke-opacity="1.0" stroke-linecap="round" stroke-linejoin="round"/>
    <path d="M 340.6155090332031 373.7785949707031 C 333.08856201171875 382.84503173828125 331.9590759277344 389.65771484375 328.6480712890625 392.8559265136719 C 322.38861083984375 427.302490234375 319.044921875 419.43585205078125 331.7503967285156 409.56201171875 C 328.9950256347656 392.13323974609375 339.8245849609375 385.0705261230469 342.115234375 353.7696838378906 C 348.0384216308594 338.479736328125 350.8092041015625 354.5503845214844 340.6155090332031 373.7785949707031" stroke-width="0.0" fill="rgb(149, 169, 107)" opacity="0.009246172" stroke="rgb(0, 0, 0)" stroke-opacity="1.0" stroke-linecap="round" stroke-linejoin="round"/>
    <path d="M 190.72991943359375 432.8888244628906 C 193.2066650390625 474.4270935058594 181.4182586669922 462.70635986328125 202.79376220703125 476.47882080078125 C 165.8623504638672 502.89837646484375 170.04415893554688 486.9469299316406 214.47476196289062 477.1935119628906 C 201.13671875 413.37872314453125 192.81834411621094 429.141357421875 168.50355529785156 422.19830322265625 C 199.64764404296875 428.77227783203125 220.62425231933594 428.6415710449219 190.72991943359375 432.8888244628906" stroke-width="0.0" fill="rgb(27, 12, 217)" opacity="0.04942122" stroke="rgb(0, 0, 0)" stroke-opacity="1.0" stroke-linecap="round" stroke-linejoin="round"/>
    <path d="M 200.3734588623047 444.7947082519531 C 194.40304565429688 428.1053771972656 188.8775634765625 440.3972473144531 218.9506378173828 453.82794189453125 C 190.1186065673828 440.0616760253906 171.54786682128906 425.89862060546875 174.90008544921875 423.2828674316406 C 187.8397216796875 453.7423400878906 195.24966430664062 440.0370178222656 183.4512176513672 432.322265625 C 175.38856506347656 434.7117614746094 193.3226318359375 450.069091796875 200.3734588623047 444.7947082519531" stroke-width="0.0" fill="rgb(106, 0, 236)" opacity="0.0" stroke="rgb(0, 0, 0)" stroke-opacity="1.0" stroke-linecap="round" stroke-linejoin="round"/>
    <path d="M 259.6675109863281 248.01121520996094 C 243.3584442138672 267.770263671875 205.4424285888672 290.4403076171875 200.16961669921875 270.71466064453125 C 229.02024841308594 290.44677734375 194.22808837890625 297.25811767578125 166.90013122558594 269.9631652832031 C 164.8422088623047 237.65374755859375 186.1945037841797 266.6385192871094 188.64430236816406 238.92161560058594 C 198.73126220703125 222.2151336669922 218.04177856445312 222.13697814941406 259.6675109863281 248.01121520996094" stroke-width="0.0" fill="rgb(237, 6, 209)" opacity="0.38416335" stroke="rgb(0, 0, 0)" stroke-opacity="1.0" stroke-linecap="round" stroke-linejoin="round"/>
    <path d="M 279.63922119140625 255.74266052246094 C 287.1022644042969 244.62789916992188 268.8985595703125 271.1178894042969 261.652099609375 290.3052673339844 C 260.01239013671875 265.3318176269531 258.88604736328125 272.0529479980469 258.3391418457031 254.1915740966797 C 241.58277893066406 240.47756958007812 271.8658752441406 261.9609680175781 282.2774963378906 235.55853271484375 C 238.644775390625 217.96803283691406 258.4547119140625 246.7349090576172 279.63922119140625 255.74266052246094" stroke-width="0.0" fill="rgb(115, 8, 233)" opacity="0.28516448" stroke="rgb(0, 0, 0)" stroke-opacity="1.0" stroke-linecap="round" stroke-linejoin="round"/>
    <path d="M 236.56044006347656 329.5350646972656 C 218.0551300048828 378.799560546875 191.8031463623047 367.07037353515625 193.2829132080078 341.4365234375 C 184.68377685546875 356.2941589355469 151.87266540527344 351.4156799316406 129.87974548339844 335.1693420410156 C 90.91895294189453 281.601318359375 85.29451751708984 250.21990966796875 161.78602600097656 235.15121459960938 C 258.9586181640625 255.6937713623047 253.88772583007812 273.9488525390625 236.56044006347656 329.5350646972656" stroke-width="0.0" fill="rgb(93, 93, 68)" opacity="0.9670757" stroke="rgb(0, 0, 0)" stroke-opacity="1.0" stroke-linecap="round" stroke-linejoin="round"/>
    <path d="M 65.55992126464844 448.9928283691406 C 83.94689178466797 486.24127197265625 70.6335678100586 480.1634826660156 70.16590118408203 462.81036376953125 C 63.214595794677734 461.5927429199219 53.3746452331543 441.0483093261719 64.16217041015625 444.7115783691406 C 62.59116744995117 432.03656005859375 61.424400329589844 420.99603271484375 59.022422790527344 425.3900451660156 C 65.90799713134766 443.1343688964844 66.8733139038086 450.07769775390625 65.55992126464844 448.9928283691406" stroke-width="0.0" fill="rgb(26, 15, 178)" opacity="0.0" stroke="rgb(0, 0, 0)" stroke-opacity="1.0" stroke-linecap="round" stroke-linejoin="round"/>
    <path d="M 508.70733642578125 500.2698059082031 C 461.65948486328125 510.8006591796875 461.5911865234375 488.08587646484375 460.7870178222656 447.8162841796875 C 442.9817810058594 437.74945068359375 437.0474853515625 448.9666748046875 442.2201232910156 440.28338623046875 C 467.70941162109375 437.155517578125 443.98760986328125 441.43017578125 462.4219970703125 477.13592529296875 C 469.373779296875 403.8529052734375 470.6109619140625 418.3720397949219 508.70733642578125 500.2698059082031" stroke-width="0.0" fill="rgb(29, 2, 181)" opacity="0.043500543" stroke="rgb(0, 0, 0)" stroke-opacity="1.0" stroke-linecap="round" stroke-linejoin="round"/>
    <path d="M 225.3120880126953 86.61383819580078 C 234.27745056152344 107.48097229003906 224.4259033203125 106.91645812988281 219.79286193847656 76.32923889160156 C 198.39755249023438 79.35113525390625 195.44557189941406 73.42216491699219 188.74803161621094 52.50163269042969 C 180.4973907470703 55.53050231933594 188.58514404296875 47.42073440551758 214.994140625 52.77014923095703 C 224.60604858398438 55.065284729003906 233.57437133789062 58.338104248046875 225.3120880126953 86.61383819580078" stroke-width="0.0" fill="rgb(14, 10, 171)" opacity="0.0075407033" stroke="rgb(0, 0, 0)" stroke-opacity="1.0" stroke-linecap="round" stroke-linejoin="round"/>
    <path d="M 175.0642547607422 162.00546264648438 C 170.4420623779297 165.78900146484375 141.87445068359375 161.2517852783203 121.08979034423828 185.62991333007812 C 95.13285827636719 166.76846313476562 118.1819839477539 167.6027069091797 112.03517150878906 159.80133056640625 C 120.48969268798828 120.2182388305664 104.36588287353516 105.3623046875 146.4049835205078 125.64237976074219 C 149.48191833496094 106.53553009033203 141.6481475830078 111.26374053955078 175.0642547607422 162.00546264648438" stroke-width="0.0" fill="rgb(17, 10, 213)" opacity="0.052587382" stroke="rgb(0, 0, 0)" stroke-opacity="1.0" stroke-linecap="round" stroke-linejoin="round"/>
    <path d="M 83.5006332397461 443.3877258300781 C 79.06010437011719 468.0422058105469 92.04779052734375 468.8810119628906 97.07635498046875 484.0283508300781 C 84.42440795898438 462.5946044921875 65.36666870117188 457.5362854003906 79.30880737304688 451.68487548828125 C 52.80195236206055 439.3992614746094 42.06064987182617 432.238525390625 34.00658416748047 448.1583557128906 C 50.571773529052734 455.5641784667969 79.39324188232422 442.1512756347656 83.5006332397461 443.3877258300781" stroke-width="0.0" fill="rgb(20, 3, 176)" opacity="0.027812993" stroke="rgb(0, 0, 0)" stroke-opacity="1.0" stroke-linecap="round" stroke-linejoin="round"/>
    <path d="M 517.32861328125 490.1969299316406 C 512.1961059570312 528.9367065429688 495.1592712402344 566.777099609375 481.4989929199219 536.3168334960938 C 487.4668884277344 499.8863830566406 488.29949951171875 477.46795654296875 421.4001770019531 496.5169982910156 C 461.5836181640625 516.7536010742188 468.9917907714844 486.55841064453125 445.3829650878906 475.3628234863281 C 436.83648681640625 512.5354614257812 451.3660888671875 481.245361328125 517.32861328125 490.1969299316406" stroke-width="0.0" fill="rgb(33, 37, 129)" opacity="0.02878353" stroke="rgb(0, 0, 0)" stroke-opacity="1.0" stroke-linecap="round" stroke-linejoin="round"/>
    <path d="M 173.4598388671875 24.292041778564453 C 134.12188720703125 36.28545379638672 144.41139221191406 59.970985412597656 130.89794921875 75.84793853759766 C 109.86251831054688 54.55318832397461 114.5005111694336 59.07853317260742 104.21238708496094 42.25892639160156 C 87.76780700683594 -14.411528587341309 71.5716552734375 -17.530508041381836 124.33148956298828 -12.244978904724121 C 176.07568359375 -12.34959888458252 186.72499084472656 -9.63840389251709 173.4598388671875 24.292041778564453" stroke-width="0.0" fill="rgb(47, 10, 210)" opacity="0.09608713" stroke="rgb(0, 0, 0)" stroke-opacity="1.0" stroke-linecap="round" stroke-linejoin="round"/>
    <path d="M 44.44209289550781 335.1590270996094 C 9.331520080566406 323.1448669433594 -1.7284704446792603 338.1820068359375 26.87405776977539 342.7921142578125 C 47.77853775024414 320.11572265625 42.668182373046875 304.3978576660156 23.409543991088867 298.0136413574219 C 7.980730056762695 290.4560546875 17.641746520996094 295.30126953125 38.66665267944336 292.44073486328125 C 40.17977523803711 301.4931945800781 45.99171829223633 309.0295715332031 44.44209289550781 335.1590270996094" stroke-width="0.0" fill="rgb(16, 28, 204)" opacity="0.023375556" stroke="rgb(0, 0, 0)" stroke-opacity="1.0" stroke-linecap="round" stroke-linejoin="round"/>
    <path d="M 392.4014892578125 449.7301330566406 C 387.7958068847656 459.8023376464844 415.28839111328125 448.5813903808594 399.3121032714844 452.6894836425781 C 399.2210998535156 453.75701904296875 381.5638427734375 422.55810546875 385.7029724121094 453.5975341796875 C 359.2291564941406 422.20294189453125 354.6668395996094 391.35113525390625 380.04718017578125 420.3950500488281 C 403.399169921875 428.7300720214844 389.5321044921875 445.6056823730469 392.4014892578125 449.7301330566406" stroke-width="0.0" fill="rgb(4, 3, 227)" opacity="0.012885831" stroke="rgb(0, 0, 0)" stroke-opacity="1.0" stroke-linecap="round" stroke-linejoin="round"/>
    <path d="M 124.33563995361328 478.1424865722656 C 127.33209991455078 464.859619140625 112.55982208251953 466.87713623046875 102.28351593017578 445.1930236816406 C 99.07970428466797 466.1919250488281 90.8097915649414 463.1219787597656 108.99217987060547 460.36663818359375 C 107.50652313232422 446.6241760253906 90.20944213867188 438.8790283203125 92.97550964355469 425.6335144042969 C 104.74078369140625 438.6011047363281 116.25148010253906 463.8479919433594 124.33563995361328 478.1424865722656" stroke-width="0.0" fill="rgb(27, 23, 212)" opacity="0.0020782305" stroke="rgb(0, 0, 0)" stroke-opacity="1.0" stroke-linecap="round" stroke-linejoin="round"/>
    <path d="M 285.6729736328125 75.93550872802734 C 284.6352844238281 64.07711791992188 276.0979309082031 35.49961471557617 287.7052001953125 47.80070877075195 C 279.9946594238281 67.00045013427734 258.18292236328125 31.90632438659668 210.78955078125 39.14645004272461 C 185.7432861328125 -33.12633514404297 210.9822998046875 -29.521482467651367 303.7141418457031 -2.020373582839966 C 292.4266052246094 42.44449234008789 285.09552001953125 47.08604431152344 285.6729736328125 75.93550872802734" stroke-width="0.0" fill="rgb(38, 27, 182)" opacity="0.0" stroke="rgb(0, 0, 0)" stroke-opacity="1.0" stroke-linecap="round" stroke-linejoin="round"/>
    <path d="M 122.08439636230469 313.7606506347656 C 125.62928009033203 323.69940185546875 143.8417510986328 339.5038146972656 149.64781188964844 335.485595703125 C 153.96694946289062 339.5457458496094 127.72300720214844 338.7274169921875 93.96118927001953 365.13525390625 C 72.88343811035156 343.42333984375 89.13520050048828 303.240234375 123.7175521850586 297.9983825683594 C 106.17398071289062 300.4999694824219 118.59493255615234 303.1107177734375 122.08439636230469 313.7606506347656" stroke-width="0.0" fill="rgb(110, 132, 166)" opacity="0.013957762" stroke="rgb(0, 0, 0)" stroke-opacity="1.0" stroke-linecap="round" stroke-linejoin="round"/>
    <path d="M 504.23345947265625 248.81224060058594 C 496.0310363769531 236.145751953125 472.9874267578125 230.72329711914062 468.04010009765625 234.83908081054688 C 492.8321533203125 280.973876953125 501.628662109375 256.6171875 492.7078857421875 206.61053466796875 C 506.0978698730469 203.57469177246094 491.6741027832031 230.38368225097656 486.138671875 200.3513946533203 C 506.9631042480469 195.83822631835938 511.90850830078125 185.43678283691406 504.23345947265625 248.81224060058594" stroke-width="0.0" fill="rgb(3, 43, 162)" opacity="0.09101063" stroke="rgb(0, 0, 0)" stroke-opacity="1.0" stroke-linecap="round" stroke-linejoin="round"/>
    <path d="M 524.4505615234375 50.466033935546875 C 522.9512939453125 121.26000213623047 525.4706420898438 117.00498962402344 515.6128540039062 101.12406921386719 C 492.2700500488281 55.30739974975586 492.6944580078125 50.80073165893555 521.3387451171875 82.59494018554688 C 498.5068664550781 97.314697265625 498.2762756347656 66.03865051269531 504.6897277832031 60.61431121826172 C 459.9039611816406 46.522216796875 511.45965576171875 41.4588508605957 524.4505615234375 50.466033935546875" stroke-width="0.0" fill="rgb(30, 27, 180)" opacity="0.08227544" stroke="rgb(0, 0, 0)" stroke-opacity="1.0" stroke-linecap="round" stroke-linejoin="round"/>
    <path d="M 44.173770904541016 190.6693115234375 C 59.60243606567383 215.5275421142578 49.082916259765625 194.91029357910156 26.793180465698242 191.90577697753906 C 29.301809310913086 261.8509826660156 -1.4841986894607544 245.5395965576172 -5.166709899902344 184.08554077148438 C -12.252362251281738 174.2687225341797 1.5447075366973877 177.3095245361328 47.31025695800781 174.52450561523438 C 52.82415008544922 172.38201904296875 48.70668411254883 169.65643310546875 44.173770904541016 190.6693115234375" stroke-width="0.0" fill="rgb(39, 7, 224)" opacity="0.085541986" stroke="rgb(0, 0, 0)" stroke-opacity="1.0" stroke-linecap="round" stroke-linejoin="round"/>
    <path d="M 106.10004425048828 281.642578125 C 127.4931640625 334.5306701660156 135.2200164794922 338.1419372558594 134.39671325683594 325.9814147949219 C 79.89686584472656 316.1539306640625 91.82649230957031 345.16009521484375 89.42298889160156 320.4566650390625 C 105.4071044921875 334.0116882324219 121.46293640136719 318.1806640625 123.3468017578125 255.01678466796875 C 86.62297058105469 263.9166259765625 93.82583618164062 281.98333740234375 106.10004425048828 281.642578125" stroke-width="0.0" fill="rgb(35, 75, 166)" opacity="0.0" stroke="rgb(0, 0, 0)" stroke-opacity="1.0" stroke-linecap="round" stroke-linejoin="round"/>
    <path d="M 57.14265441894531 94.89910125732422 C 58.848602294921875 73.57810974121094 58.467132568359375 84.65531921386719 30.999345779418945 85.33073425292969 C 36.44334411621094 126.52556610107422 22.236927032470703 102.86475372314453 -9.405089378356934 83.49418640136719 C -23.54092788696289 63.924312591552734 2.9798967838287354 62.28290557861328 41.267181396484375 58.56930160522461 C 64.9360122680664 59.59889602661133 57.052059173583984 56.907318115234375 57.14265441894531 94.89910125732422" stroke-width="0.0" fill="rgb(4, 4, 137)" opacity="0.0" stroke="rgb(0, 0, 0)" stroke-opacity="1.0" stroke-linecap="round" stroke-linejoin="round"/>
    <path d="M 152.83912658691406 211.17918395996094 C 121.06067657470703 212.34266662597656 127.60545349121094 198.2206573486328 127.7388687133789 195.14077758789062 C 129.76121520996094 189.49415588378906 129.81356811523438 179.91372680664062 133.88461303710938 164.78585815429688 C 128.8611297607422 175.93443298339844 139.2677001953125 170.32827758789062 198.2758331298828 170.12350463867188 C 204.5548553466797 190.24386596679688 194.12071228027344 197.56446838378906 152.83912658691406 211.17918395996094" stroke-width="0.0" fill="rgb(0, 47, 255)" opacity="0.16162431" stroke="rgb(0, 0, 0)" stroke-opacity="1.0" stroke-linecap="round" stroke-linejoin="round"/>
    <path d="M 205.97877502441406 372.8885192871094 C 197.26095581054688 387.5423278808594 188.3036651611328 397.15679931640625 166.11509704589844 396.8360290527344 C 181.66636657714844 405.8470764160156 194.7446746826172 390.08197021484375 192.8714599609375 388.8145751953125 C 185.16444396972656 392.78448486328125 175.51174926757812 369.5608825683594 175.2967987060547 344.29449462890625 C 201.90328979492188 339.8560485839844 199.33810424804688 347.9253845214844 205.97877502441406 372.8885192871094" stroke-width="0.0" fill="rgb(255, 255, 164)" opacity="0.18559386" stroke="rgb(0, 0, 0)" stroke-opacity="1.0" stroke-linecap="round" stroke-linejoin="round"/>
    <path d="M 72.4856948852539 232.70455932617188 C 65.74864196777344 232.66372680664062 53.315738677978516 235.37901306152344 43.55160140991211 228.9279327392578 C 2.5945262908935547 238.16310119628906 -13.37219524383545 247.35215759277344 -39.627689361572266 197.32281494140625 C -20.58143424987793 171.1753387451172 13.407639503479004 175.42257690429688 45.77019500732422 186.55857849121094 C 37.31801986694336 186.6509552001953 47.585365295410156 162.16429138183594 72.4856948852539 232.70455932617188" stroke-width="0.0" fill="rgb(42, 15, 203)" opacity="0.29535916" stroke="rgb(0, 0, 0)" stroke-opacity="1.0" stroke-linecap="round" stroke-linejoin="round"/>
    <path d="M 89.42626953125 62.967742919921875 C 92.14442443847656 67.26102447509766 80.99173736572266 69.25405883789062 76.75945281982422 53.17170715332031 C 89.28291320800781 75.17500305175781 73.05078125 78.20088958740234 64.49005889892578 29.476417541503906 C 86.41436004638672 46.614559173583984 61.508445739746094 60.30282974243164 37.85495376586914 37.348793029785156 C 78.61201477050781 19.82618522644043 78.38987731933594 17.741928100585938 89.42626953125 62.967742919921875" stroke-width="0.0" fill="rgb(40, 25, 226)" opacity="0.033300456" stroke="rgb(0, 0, 0)" stroke-opacity="1.0" stroke-linecap="round" stroke-linejoin="round"/>
    <path d="M 70.76406860351562 193.7838134765625 C 101.27239990234375 243.0767059326172 76.39460754394531 238.65354919433594 35.79833221435547 244.69357299804688 C 19.0373477935791 211.61859130859375 7.729916572570801 213.58702087402344 1.1286985874176025 188.57266235351562 C 46.620155334472656 192.8936767578125 45.09053039550781 180.94395446777344 46.507476806640625 172.47251892089844 C 68.14441680908203 154.61203002929688 85.92135620117188 152.7578582763672 70.76406860351562 193.7838134765625" stroke-width="0.0" fill="rgb(21, 32, 207)" opacity="0.18257199" stroke="rgb(0, 0, 0)" stroke-opacity="1.0" stroke-linecap="round" stroke-linejoin="round"/>
    <path d="M 366.0845031738281 324.25128173828125 C 337.69024658203125 359.5997009277344 320.97113037109375 352.3800048828125 330.3546447753906 351.0281982421875 C 302.9612731933594 347.4800109863281 290.9520263671875 345.07958984375 288.9906311035156 315.2460021972656 C 223.73153686523438 326.87261962890625 192.07244873046875 285.1245422363281 229.9136962890625 223.84353637695312 C 351.07122802734375 267.615966796875 346.09716796875 303.5968933105469 366.0845031738281 324.25128173828125" stroke-width="0.0" fill="rgb(255, 0, 250)" opacity="1.0" stroke="rgb(0, 0, 0)" stroke-opacity="1.0" stroke-linecap="round" stroke-linejoin="round"/>
    <path d="M 391.7601623535156 419.1302185058594 C 345.5633850097656 417.6286315917969 340.9649658203125 405.1972961425781 322.43890380859375 393.6143798828125 C 330.1485595703125 414.0439453125 338.7218017578125 419.7784423828125 353.5574645996094 429.146240234375 C 334.12176513671875 401.373046875 368.3555908203125 397.0491638183594 370.88861083984375 425.6412658691406 C 357.0317687988281 406.79364013671875 391.0380554199219 395.73126220703125 391.7601623535156 419.1302185058594" stroke-width="0.0" fill="rgb(0, 9, 253)" opacity="0.0" stroke="rgb(0, 0, 0)" stroke-opacity="1.0" stroke-linecap="round" stroke-linejoin="round"/>
    <path d="M 319.7605895996094 418.30047607421875 C 332.3246154785156 433.7712097167969 330.28887939453125 423.0126647949219 330.5094299316406 414.3868713378906 C 340.60986328125 428.98345947265625 318.15740966796875 428.3822021484375 321.5978698730469 419.9162292480469 C 316.4947509765625 401.72613525390625 333.9642333984375 397.7616271972656 345.3505859375 385.4128723144531 C 333.0960388183594 384.4767150878906 329.13037109375 390.52166748046875 319.7605895996094 418.30047607421875" stroke-width="0.0" fill="rgb(127, 179, 101)" opacity="0.017355127" stroke="rgb(0, 0, 0)" stroke-opacity="1.0" stroke-linecap="round" stroke-linejoin="round"/>
    <path d="M 531.7098388671875 233.5731964111328 C 551.1968383789062 280.35400390625 527.2145385742188 288.771240234375 473.0199890136719 288.01873779296875 C 488.9173889160156 230.51795959472656 479.5574645996094 200.3846893310547 479.9792785644531 223.39248657226562 C 477.7008972167969 182.8604278564453 461.6660461425781 214.695068359375 477.5582580566406 221.65000915527344 C 519.87890625 203.78594970703125 521.6226806640625 218.0249481201172 531.7098388671875 233.5731964111328" stroke-width="0.0" fill="rgb(14, 26, 141)" opacity="0.039329343" stroke="rgb(0, 0, 0)" stroke-opacity="1.0" stroke-linecap="round" stroke-linejoin="round"/>
    <path d="M 453.87615966796875 157.96536254882812 C 448.6321716308594 136.0854949951172 426.9479064941406 146.8889923095703 436.84014892578125 145.13388061523438 C 432.2936706542969 144.5993194580078 399.1044921875 139.72897338867188 393.2821960449219 156.34716796875 C 402.0106506347656 137.20318603515625 402.702880859375 109.58260345458984 383.02325439453125 132.4764862060547 C 413.0848083496094 159.73275756835938 451.0228271484375 154.64781188964844 453.87615966796875 157.96536254882812" stroke-width="0.0" fill="rgb(131, 159, 100)" opacity="0.008224586" stroke="rgb(0, 0, 0)" stroke-opacity="1.0" stroke-linecap="round" stroke-linejoin="round"/>
  </g>
</svg>
