<?xml version="1.0" ?>
<svg xmlns="http://www.w3.org/2000/svg" version="1.1" width="512" height="512">
  <defs/>
  <g>
    <path d="M 542.6267700195312 452.2540588378906 C 548.0579833984375 517.3278198242188 548.9373779296875 525.5354614257812 392.7055358886719 532.1380004882812 C 331.4477233886719 555.2916870117188 312.433349609375 547.3175659179688 274.2654724121094 496.6292419433594 C 326.0763244628906 323.1184997558594 369.2606201171875 326.83447265625 486.7900390625 302.4832458496094 C 570.448974609375 304.3822021484375 571.1991577148438 321.40350341796875 542.6267700195312 452.2540588378906" stroke-width="0.0" fill="rgb(20, 16, 149)" opacity="0.9559313" stroke="rgb(0, 0, 0)" stroke-opacity="1.0" stroke-linecap="round" stroke-linejoin="round"/>
    <path d="M 292.1824951171875 434.363525390625 C 332.1794738769531 515.2651977539062 330.5951843261719 541.0789794921875 126.6009750366211 547.1758422851562 C -51.20000076293945 517.7235107421875 -51.20000076293945 507.83367919921875 -21.80487632751465 449.22088623046875 C -24.091922760009766 211.67379760742188 -38.60137939453125 218.2868194580078 1.0765494108200073 225.2856903076172 C 220.1112823486328 283.6992492675781 273.44793701171875 219.3428192138672 292.1824951171875 434.363525390625" stroke-width="0.0" fill="rgb(182, 68, 0)" opacity="0.8100724" stroke="rgb(0, 0, 0)" stroke-opacity="1.0" stroke-linecap="round" stroke-linejoin="round"/>
    <path d="M 304.15936279296875 286.1824645996094 C 210.8316192626953 425.4178466796875 211.5411834716797 475.123779296875 179.19776916503906 379.1512451171875 C 68.55699157714844 354.6491394042969 33.73295974731445 401.6819763183594 46.17097091674805 172.3300323486328 C 31.916061401367188 164.81752014160156 41.72410583496094 177.33724975585938 108.60115051269531 102.8458480834961 C 289.58837890625 119.82920837402344 314.80712890625 105.6107406616211 304.15936279296875 286.1824645996094" stroke-width="0.0" fill="rgb(174, 77, 63)" opacity="0.7640528" stroke="rgb(0, 0, 0)" stroke-opacity="1.0" stroke-linecap="round" stroke-linejoin="round"/>
    <path d="M 275.06805419921875 29.50092124938965 C 282.6486511230469 205.51742553710938 236.3094940185547 154.41156005859375 32.720481872558594 173.78854370117188 C -43.7468147277832 181.15440368652344 -45.46797180175781 167.19444274902344 -33.70730972290039 41.536949157714844 C -14.989005088806152 -15.722881317138672 -7.218327522277832 -19.66063117980957 120.3451156616211 -70.41825866699219 C 250.37075805664062 -73.60730743408203 291.1114807128906 -78.94833374023438 275.06805419921875 29.50092124938965" stroke-width="0.0" fill="rgb(5, 1, 146)" opacity="0.96632373" stroke="rgb(0, 0, 0)" stroke-opacity="1.0" stroke-linecap="round" stroke-linejoin="round"/>
    <path d="M 547.7543334960938 64.54127502441406 C 444.19561767578125 290.140869140625 455.1424560546875 306.0027160644531 404.4894104003906 333.804443359375 C 222.43556213378906 333.3664855957031 202.73257446289062 355.8850402832031 260.3672180175781 193.7010955810547 C 269.8699951171875 21.767898559570312 222.56936645507812 -38.126224517822266 315.3386535644531 -84.32460021972656 C 563.2000122070312 -6.244815349578857 563.2000122070312 4.452378749847412 547.7543334960938 64.54127502441406" stroke-width="0.0" fill="rgb(28, 17, 145)" opacity="0.9881926" stroke="rgb(0, 0, 0)" stroke-opacity="1.0" stroke-linecap="round" stroke-linejoin="round"/>
    <path d="M 475.9905090332031 328.901123046875 C 488.4880676269531 434.3282775878906 504.4621887207031 519.8486328125 304.1865539550781 575.9169921875 C 212.1287384033203 519.158935546875 213.20684814453125 479.6401062011719 231.0039825439453 451.6324462890625 C 233.84628295898438 220.4533233642578 282.8304138183594 236.46029663085938 310.8034362792969 248.96876525878906 C 439.8028564453125 235.6312713623047 481.9370422363281 239.6512451171875 475.9905090332031 328.901123046875" stroke-width="0.0" fill="rgb(29, 24, 147)" opacity="1.0" stroke="rgb(0, 0, 0)" stroke-opacity="1.0" stroke-linecap="round" stroke-linejoin="round"/>
    <path d="M 555.7678833007812 210.4992218017578 C 570.1132202148438 321.92059326171875 568.3671875 331.2941589355469 464.691162109375 341.9682922363281 C 379.3043518066406 309.7952880859375 400.4026794433594 311.5826416015625 402.28948974609375 248.94239807128906 C 417.107666015625 111.02098846435547 384.6456298828125 66.5059585571289 509.1432189941406 71.57364654541016 C 550.7869873046875 77.70661926269531 559.6376342773438 117.91786193847656 555.7678833007812 210.4992218017578" stroke-width="0.0" fill="rgb(27, 22, 152)" opacity="1.0" stroke="rgb(0, 0, 0)" stroke-opacity="1.0" stroke-linecap="round" stroke-linejoin="round"/>
    <path d="M 273.7185363769531 295.0366516113281 C 266.9186706542969 341.1187438964844 298.1777648925781 357.48260498046875 251.423095703125 340.36456298828125 C 227.47857666015625 317.0068664550781 228.6464385986328 315.22735595703125 189.2908172607422 250.2603759765625 C 154.3011932373047 198.70301818847656 147.089111328125 206.24728393554688 253.19786071777344 187.2557373046875 C 290.0733947753906 201.91163635253906 281.8023986816406 248.37596130371094 273.7185363769531 295.0366516113281" stroke-width="0.0" fill="rgb(7, 7, 179)" opacity="0.99333125" stroke="rgb(0, 0, 0)" stroke-opacity="1.0" stroke-linecap="round" stroke-linejoin="round"/>
    <path d="M 320.6339111328125 31.1793212890625 C 307.9589538574219 146.65457153320312 283.11151123046875 142.07363891601562 272.39410400390625 133.08554077148438 C 239.2212371826172 130.59877014160156 207.98501586914062 132.2374725341797 168.3610382080078 106.13363647460938 C 218.8731689453125 77.07444763183594 217.8172149658203 60.33055877685547 256.6263427734375 102.18868255615234 C 252.4274444580078 100.0887680053711 260.3522644042969 26.102384567260742 320.6339111328125 31.1793212890625" stroke-width="0.0" fill="rgb(255, 255, 241)" opacity="1.0" stroke="rgb(0, 0, 0)" stroke-opacity="1.0" stroke-linecap="round" stroke-linejoin="round"/>
    <path d="M 214.30006408691406 349.7275085449219 C 167.01068115234375 507.8526306152344 211.45616149902344 489.0141296386719 149.9866180419922 491.1891174316406 C 161.6113739013672 431.27984619140625 163.3766632080078 382.26470947265625 151.50210571289062 312.9310607910156 C 208.25465393066406 329.0867614746094 166.65333557128906 319.05194091796875 159.08242797851562 362.8971252441406 C 181.48193359375 383.4490966796875 193.51513671875 377.37640380859375 214.30006408691406 349.7275085449219" stroke-width="0.0" fill="rgb(246, 196, 26)" opacity="0.9579482" stroke="rgb(0, 0, 0)" stroke-opacity="1.0" stroke-linecap="round" stroke-linejoin="round"/>
    <path d="M 246.95162963867188 190.3922576904297 C 237.570556640625 293.31878662109375 235.2311248779297 384.5501403808594 216.7882843017578 344.4197082519531 C 105.10824584960938 316.1490173339844 224.56138610839844 322.54791259765625 209.30897521972656 286.102294921875 C 45.594512939453125 148.05702209472656 12.286413192749023 136.24130249023438 240.27359008789062 67.53178405761719 C 152.554931640625 198.19480895996094 219.30160522460938 109.96966552734375 246.95162963867188 190.3922576904297" stroke-width="0.0" fill="rgb(253, 226, 38)" opacity="0.9384251" stroke="rgb(0, 0, 0)" stroke-opacity="1.0" stroke-linecap="round" stroke-linejoin="round"/>
    <path d="M 162.41786193847656 276.0839538574219 C 160.65029907226562 305.3603210449219 118.07323455810547 333.82684326171875 97.87907409667969 350.73486328125 C 120.76820373535156 400.3850402832031 104.13020324707031 393.101318359375 -38.22352600097656 314.9039306640625 C -53.57130813598633 90.101318359375 -30.652610778808594 122.72368621826172 137.507568359375 86.73937225341797 C 206.6147003173828 148.82627868652344 208.90367126464844 179.8464813232422 162.41786193847656 276.0839538574219" stroke-width="0.0" fill="rgb(8, 11, 160)" opacity="0.9902214" stroke="rgb(0, 0, 0)" stroke-opacity="1.0" stroke-linecap="round" stroke-linejoin="round"/>
    <path d="M 235.52047729492188 57.87533187866211 C 225.19741821289062 99.53153991699219 213.99696350097656 92.0710220336914 188.14810180664062 103.69083404541016 C 138.1632537841797 114.17125701904297 74.55982971191406 143.03067016601562 77.3209457397461 68.9755859375 C 85.2572021484375 -47.561622619628906 90.60338592529297 -59.01435852050781 221.81553649902344 -58.760223388671875 C 232.5890350341797 -9.265068054199219 193.6648406982422 42.75971603393555 235.52047729492188 57.87533187866211" stroke-width="0.0" fill="rgb(4, 0, 175)" opacity="1.0" stroke="rgb(0, 0, 0)" stroke-opacity="1.0" stroke-linecap="round" stroke-linejoin="round"/>
    <path d="M 312.34197998046875 98.78849029541016 C 374.09417724609375 182.97531127929688 392.0090026855469 243.813232421875 245.45213317871094 228.78762817382812 C 157.93524169921875 177.2415771484375 314.69671630859375 156.54910278320312 255.6893310546875 96.76238250732422 C 296.8753662109375 28.24417495727539 310.8125915527344 103.00349426269531 319.1520080566406 140.61492919921875 C 267.7762145996094 145.35523986816406 264.89459228515625 107.52698516845703 312.34197998046875 98.78849029541016" stroke-width="0.0" fill="rgb(255, 227, 52)" opacity="0.9801779" stroke="rgb(0, 0, 0)" stroke-opacity="1.0" stroke-linecap="round" stroke-linejoin="round"/>
    <path d="M 96.3837890625 318.5565490722656 C 81.24573516845703 332.15765380859375 135.23086547851562 354.566650390625 95.3935775756836 394.58355712890625 C 86.95384216308594 366.2845764160156 84.80623626708984 351.9469299316406 105.15420532226562 336.26275634765625 C 91.18065643310547 323.41131591796875 84.01251983642578 302.54718017578125 64.87828826904297 322.5157775878906 C 59.221683502197266 426.4999694824219 26.686420440673828 307.1789855957031 96.3837890625 318.5565490722656" stroke-width="0.0" fill="rgb(128, 56, 95)" opacity="0.50345385" stroke="rgb(0, 0, 0)" stroke-opacity="1.0" stroke-linecap="round" stroke-linejoin="round"/>
    <path d="M 212.9040985107422 79.62399291992188 C 242.68641662597656 137.24537658691406 171.571044921875 139.1859893798828 213.9944610595703 134.97491455078125 C 253.75767517089844 31.689470291137695 228.25253295898438 127.42740631103516 214.10032653808594 91.48072052001953 C 247.9521026611328 163.6039276123047 224.56521606445312 77.4298095703125 238.8686981201172 28.477632522583008 C 147.8688507080078 40.92515563964844 211.9416961669922 38.05860137939453 212.9040985107422 79.62399291992188" stroke-width="0.0" fill="rgb(255, 226, 0)" opacity="1.0" stroke="rgb(0, 0, 0)" stroke-opacity="1.0" stroke-linecap="round" stroke-linejoin="round"/>
    <path d="M 269.71209716796875 458.1091003417969 C 254.94326782226562 449.5897521972656 237.49607849121094 445.8793029785156 249.6708984375 452.5548400878906 C 257.22186279296875 477.06591796875 257.6088562011719 501.4221496582031 215.47825622558594 499.5426330566406 C 204.07168579101562 272.9120788574219 221.52725219726562 299.0598449707031 233.5112762451172 438.1800537109375 C 228.78518676757812 465.7082824707031 266.44183349609375 453.5544738769531 269.71209716796875 458.1091003417969" stroke-width="0.0" fill="rgb(234, 177, 33)" opacity="0.8933099" stroke="rgb(0, 0, 0)" stroke-opacity="1.0" stroke-linecap="round" stroke-linejoin="round"/>
    <path d="M 153.82675170898438 289.2544860839844 C 168.75711059570312 290.6907043457031 160.82208251953125 336.5920104980469 154.51708984375 310.6901550292969 C 177.33578491210938 258.2536315917969 187.20281982421875 266.4344482421875 140.0182647705078 309.7621765136719 C 144.2227783203125 310.21929931640625 111.93888854980469 332.3310241699219 152.60723876953125 302.59808349609375 C 156.8278045654297 284.7234802246094 159.38815307617188 293.2782897949219 153.82675170898438 289.2544860839844" stroke-width="0.0" fill="rgb(208, 231, 80)" opacity="0.7163725" stroke="rgb(0, 0, 0)" stroke-opacity="1.0" stroke-linecap="round" stroke-linejoin="round"/>
    <path d="M 234.78778076171875 86.20021057128906 C 256.1369323730469 120.66471099853516 238.7591552734375 133.2873077392578 191.31739807128906 143.82806396484375 C 159.209716796875 137.10545349121094 163.8449249267578 131.780517578125 185.54835510253906 112.57764434814453 C 189.7013397216797 112.12130737304688 177.0342559814453 111.84193420410156 173.3019256591797 111.94499206542969 C 184.68272399902344 107.09748840332031 174.9770050048828 108.7254867553711 234.78778076171875 86.20021057128906" stroke-width="0.0" fill="rgb(255, 249, 70)" opacity="0.9610873" stroke="rgb(0, 0, 0)" stroke-opacity="1.0" stroke-linecap="round" stroke-linejoin="round"/>
    <path d="M 361.2708435058594 281.499755859375 C 358.4288635253906 295.05487060546875 363.6808776855469 288.39459228515625 323.41082763671875 286.2000732421875 C 278.3136291503906 289.6216735839844 289.0672912597656 305.20562744140625 274.5185546875 234.5018768310547 C 322.4919128417969 239.643310546875 338.57720947265625 222.8166961669922 358.8300476074219 217.49942016601562 C 364.8893127441406 231.17503356933594 369.65313720703125 232.9285125732422 361.2708435058594 281.499755859375" stroke-width="0.0" fill="rgb(14, 21, 176)" opacity="0.41094875" stroke="rgb(0, 0, 0)" stroke-opacity="1.0" stroke-linecap="round" stroke-linejoin="round"/>
    <path d="M 155.8234100341797 286.3206787109375 C 166.7443084716797 293.4241943359375 159.2054443359375 290.83636474609375 169.229248046875 279.530029296875 C 160.631103515625 292.267578125 160.97230529785156 308.04913330078125 160.14822387695312 291.0893249511719 C 169.66586303710938 256.1769104003906 158.80856323242188 244.64828491210938 188.14199829101562 151.60401916503906 C 241.6524658203125 219.8907928466797 177.99337768554688 218.34950256347656 155.8234100341797 286.3206787109375" stroke-width="0.0" fill="rgb(246, 148, 10)" opacity="0.8667591" stroke="rgb(0, 0, 0)" stroke-opacity="1.0" stroke-linecap="round" stroke-linejoin="round"/>
    <path d="M 178.59695434570312 105.02176666259766 C 200.96194458007812 101.91097259521484 189.08474731445312 100.76754760742188 179.95889282226562 110.57292175292969 C 183.77304077148438 114.00598907470703 172.7287139892578 91.64694213867188 168.68115234375 70.76988983154297 C 157.15350341796875 77.07218170166016 172.3831024169922 58.63423538208008 170.26980590820312 82.20362091064453 C 168.4479522705078 73.00406646728516 176.6463165283203 100.92383575439453 178.59695434570312 105.02176666259766" stroke-width="0.0" fill="rgb(189, 120, 55)" opacity="0.5805543" stroke="rgb(0, 0, 0)" stroke-opacity="1.0" stroke-linecap="round" stroke-linejoin="round"/>
    <path d="M 272.93682861328125 456.9749450683594 C 271.5738220214844 468.52313232421875 274.610107421875 452.3097839355469 272.4219665527344 501.51727294921875 C 261.273681640625 499.6747131347656 240.8676300048828 500.0815124511719 229.02224731445312 501.32684326171875 C 230.7124786376953 424.134765625 238.48876953125 448.3785095214844 242.42227172851562 443.3797912597656 C 269.94110107421875 439.279052734375 270.5581970214844 434.0845642089844 272.93682861328125 456.9749450683594" stroke-width="0.0" fill="rgb(14, 22, 227)" opacity="0.9992377" stroke="rgb(0, 0, 0)" stroke-opacity="1.0" stroke-linecap="round" stroke-linejoin="round"/>
    <path d="M 353.90869140625 239.3004150390625 C 388.9983215332031 255.7216339111328 387.1870422363281 250.16183471679688 318.0497131347656 243.97686767578125 C 288.8260498046875 224.33477783203125 279.0631408691406 240.94058227539062 279.84918212890625 220.938720703125 C 293.7596130371094 227.053466796875 312.0773620605469 235.62863159179688 329.4480285644531 213.24546813964844 C 364.2423400878906 231.7499237060547 354.0235900878906 260.6575012207031 353.90869140625 239.3004150390625" stroke-width="0.0" fill="rgb(34, 0, 201)" opacity="0.112653755" stroke="rgb(0, 0, 0)" stroke-opacity="1.0" stroke-linecap="round" stroke-linejoin="round"/>
    <path d="M 197.5099334716797 138.18283081054688 C 154.794677734375 158.55548095703125 136.8279571533203 166.9243621826172 122.00071716308594 153.2430877685547 C 111.91535186767578 147.4053497314453 106.9333267211914 142.02149963378906 86.22270202636719 113.27963256835938 C 80.67477416992188 98.76793670654297 81.75577545166016 96.73797607421875 81.23516082763672 88.01880645751953 C 152.02682495117188 70.09892272949219 182.72251892089844 88.55160522460938 197.5099334716797 138.18283081054688" stroke-width="0.0" fill="rgb(255, 255, 237)" opacity="1.0" stroke="rgb(0, 0, 0)" stroke-opacity="1.0" stroke-linecap="round" stroke-linejoin="round"/>
    <path d="M 180.8405303955078 396.5085754394531 C 150.0986328125 426.5101623535156 125.87633514404297 412.3463439941406 113.87447357177734 425.8844299316406 C 76.30119323730469 405.1798400878906 83.0499038696289 390.2578125 83.16206359863281 358.465576171875 C 93.82784271240234 355.0386657714844 94.20345306396484 354.3337097167969 119.8042984008789 342.1651611328125 C 110.87240600585938 285.8608703613281 161.75823974609375 331.75543212890625 180.8405303955078 396.5085754394531" stroke-width="0.0" fill="rgb(239, 195, 19)" opacity="0.95051044" stroke="rgb(0, 0, 0)" stroke-opacity="1.0" stroke-linecap="round" stroke-linejoin="round"/>
    <path d="M 137.3881072998047 417.8078308105469 C 148.06443786621094 524.0724487304688 178.9654998779297 501.1463317871094 65.89392852783203 495.331787109375 C 82.80306243896484 471.8304748535156 93.41376495361328 471.8362731933594 100.75360107421875 445.4154052734375 C 95.86502838134766 409.717041015625 94.4957504272461 415.05621337890625 91.26541900634766 406.8385009765625 C 116.30720520019531 361.20526123046875 142.959228515625 346.52154541015625 137.3881072998047 417.8078308105469" stroke-width="0.0" fill="rgb(255, 180, 7)" opacity="0.9912606" stroke="rgb(0, 0, 0)" stroke-opacity="1.0" stroke-linecap="round" stroke-linejoin="round"/>
    <path d="M 177.81570434570312 127.14997100830078 C 139.2937774658203 157.29144287109375 136.70176696777344 126.4638900756836 120.228271484375 114.61710357666016 C 106.52578735351562 132.59649658203125 90.6372299194336 131.4659881591797 81.27407836914062 140.8758544921875 C 93.25978088378906 138.69056701660156 81.15843200683594 131.78836059570312 117.35340118408203 125.63215637207031 C 105.1504135131836 102.41777038574219 138.8673858642578 86.2278060913086 177.81570434570312 127.14997100830078" stroke-width="0.0" fill="rgb(1, 1, 242)" opacity="0.4980074" stroke="rgb(0, 0, 0)" stroke-opacity="1.0" stroke-linecap="round" stroke-linejoin="round"/>
    <path d="M 62.24273681640625 131.2546844482422 C 61.44121170043945 124.66561126708984 60.94819641113281 127.80766296386719 62.07952880859375 114.71546173095703 C 26.792320251464844 129.90040588378906 10.483756065368652 136.21316528320312 18.300825119018555 120.08935546875 C 12.421661376953125 86.0492172241211 51.36384201049805 114.21595001220703 23.38153839111328 130.8787384033203 C 74.1692123413086 143.37232971191406 67.24867248535156 140.41122436523438 62.24273681640625 131.2546844482422" stroke-width="0.0" fill="rgb(30, 9, 174)" opacity="0.0019509948" stroke="rgb(0, 0, 0)" stroke-opacity="1.0" stroke-linecap="round" stroke-linejoin="round"/>
    <path d="M 41.794403076171875 301.10955810546875 C 54.066715240478516 337.8871154785156 42.95790481567383 338.1231689453125 19.911556243896484 315.7474060058594 C 33.589195251464844 313.4151611328125 35.411659240722656 309.1808166503906 10.635665893554688 320.1595764160156 C 27.485897064208984 290.4766845703125 38.71232223510742 299.28509521484375 44.53530502319336 316.7127380371094 C 28.305740356445312 330.3235778808594 35.533546447753906 326.8271789550781 41.794403076171875 301.10955810546875" stroke-width="0.0" fill="rgb(15, 3, 169)" opacity="0.108276084" stroke="rgb(0, 0, 0)" stroke-opacity="1.0" stroke-linecap="round" stroke-linejoin="round"/>
    <path d="M 397.01104736328125 231.09169006347656 C 406.907470703125 266.259033203125 403.8122863769531 258.6542053222656 381.090087890625 256.276611328125 C 372.8839111328125 238.53253173828125 372.0073547363281 246.087890625 376.5978088378906 222.08433532714844 C 352.9660949707031 210.0849609375 349.519775390625 186.16883850097656 341.5463562011719 200.78379821777344 C 368.7789611816406 207.1128692626953 372.63427734375 201.5013427734375 397.01104736328125 231.09169006347656" stroke-width="0.0" fill="rgb(71, 35, 179)" opacity="0.26401362" stroke="rgb(0, 0, 0)" stroke-opacity="1.0" stroke-linecap="round" stroke-linejoin="round"/>
    <path d="M 208.4321746826172 218.31858825683594 C 228.22915649414062 277.5640563964844 216.77696228027344 285.8565673828125 197.74234008789062 260.9642639160156 C 185.50604248046875 243.7758026123047 189.44798278808594 228.18228149414062 177.09437561035156 237.74606323242188 C 183.0032958984375 244.8092041015625 173.29100036621094 247.8312225341797 160.7998504638672 256.6684875488281 C 167.32858276367188 265.6108703613281 159.93875122070312 245.13916015625 208.4321746826172 218.31858825683594" stroke-width="0.0" fill="rgb(161, 71, 45)" opacity="0.8901217" stroke="rgb(0, 0, 0)" stroke-opacity="1.0" stroke-linecap="round" stroke-linejoin="round"/>
    <path d="M 170.58021545410156 212.23765563964844 C 192.66073608398438 212.94345092773438 187.12973022460938 231.8560028076172 182.80332946777344 261.7461853027344 C 197.3779296875 225.57984924316406 193.44818115234375 218.59304809570312 171.34996032714844 236.37393188476562 C 206.3917236328125 250.93008422851562 225.7827606201172 264.1955871582031 198.07232666015625 255.71595764160156 C 182.12530517578125 219.85928344726562 167.41387939453125 220.25856018066406 170.58021545410156 212.23765563964844" stroke-width="0.0" fill="rgb(222, 173, 0)" opacity="0.0048600007" stroke="rgb(0, 0, 0)" stroke-opacity="1.0" stroke-linecap="round" stroke-linejoin="round"/>
    <path d="M 210.3297119140625 372.0970153808594 C 158.07809448242188 366.394287109375 161.48468017578125 337.8747863769531 157.50596618652344 353.7309875488281 C 164.7049102783203 357.76910400390625 162.19790649414062 326.2599792480469 162.53872680664062 335.35980224609375 C 176.36962890625 328.97991943359375 181.0522003173828 337.8476867675781 187.66172790527344 328.10394287109375 C 216.6968536376953 312.4482421875 231.9022674560547 310.24310302734375 210.3297119140625 372.0970153808594" stroke-width="0.0" fill="rgb(147, 64, 31)" opacity="0.9782371" stroke="rgb(0, 0, 0)" stroke-opacity="1.0" stroke-linecap="round" stroke-linejoin="round"/>
    <path d="M 77.4068603515625 126.93617248535156 C 115.09030151367188 175.2060089111328 108.70466613769531 170.18365478515625 98.19825744628906 144.8443145751953 C 51.42026901245117 140.28207397460938 52.83262634277344 132.54641723632812 92.45951080322266 130.6880645751953 C 62.8321533203125 112.7671127319336 50.03565979003906 118.688232421875 78.89810943603516 97.17118072509766 C 84.04183959960938 76.13756561279297 83.52369689941406 79.2231674194336 77.4068603515625 126.93617248535156" stroke-width="0.0" fill="rgb(4, 0, 184)" opacity="0.18109676" stroke="rgb(0, 0, 0)" stroke-opacity="1.0" stroke-linecap="round" stroke-linejoin="round"/>
    <path d="M 65.36971282958984 119.14984893798828 C 72.5195541381836 164.4789276123047 66.1339340209961 154.9284210205078 36.380699157714844 154.74591064453125 C 35.52121353149414 133.414306640625 40.59092330932617 101.2197036743164 5.20488166809082 91.24211120605469 C -51.81473922729492 105.34888458251953 -32.42682647705078 135.42955017089844 43.144744873046875 127.19974517822266 C 52.03281021118164 111.77859497070312 79.99051666259766 101.08349609375 65.36971282958984 119.14984893798828" stroke-width="0.0" fill="rgb(0, 23, 148)" opacity="0.0070109027" stroke="rgb(0, 0, 0)" stroke-opacity="1.0" stroke-linecap="round" stroke-linejoin="round"/>
    <path d="M 101.06209564208984 178.79432678222656 C 120.83124542236328 181.2873077392578 112.3124771118164 175.05738830566406 157.84619140625 175.0792236328125 C 130.71542358398438 167.6528778076172 123.4732666015625 157.61053466796875 76.65608978271484 158.11312866210938 C 74.84294891357422 152.24282836914062 84.07574462890625 147.95391845703125 109.42042541503906 157.97689819335938 C 106.48792266845703 141.0646209716797 104.16449737548828 178.70689392089844 101.06209564208984 178.79432678222656" stroke-width="0.0" fill="rgb(56, 23, 218)" opacity="0.0005383118" stroke="rgb(0, 0, 0)" stroke-opacity="1.0" stroke-linecap="round" stroke-linejoin="round"/>
    <path d="M 418.99041748046875 209.4937744140625 C 448.87811279296875 267.9204406738281 407.88934326171875 290.22601318359375 394.64166259765625 244.59347534179688 C 374.4205322265625 218.47666931152344 336.0002746582031 224.10165405273438 322.6387939453125 205.3108367919922 C 325.1934814453125 178.06727600097656 338.8249816894531 153.8463134765625 354.2658386230469 154.9491424560547 C 399.845458984375 154.08499145507812 404.63330078125 161.64523315429688 418.99041748046875 209.4937744140625" stroke-width="0.0" fill="rgb(254, 131, 30)" opacity="0.9933965" stroke="rgb(0, 0, 0)" stroke-opacity="1.0" stroke-linecap="round" stroke-linejoin="round"/>
    <path d="M 354.56829833984375 149.3536376953125 C 368.8626403808594 237.58425903320312 389.3910827636719 250.94650268554688 323.5724792480469 215.73965454101562 C 304.35052490234375 171.78392028808594 268.3963928222656 166.0608367919922 311.05462646484375 169.12570190429688 C 305.3435363769531 129.89154052734375 279.0939636230469 129.31875610351562 276.81085205078125 146.0464324951172 C 300.0750427246094 141.6558074951172 315.2575378417969 125.98065185546875 354.56829833984375 149.3536376953125" stroke-width="0.0" fill="rgb(255, 221, 56)" opacity="0.9815514" stroke="rgb(0, 0, 0)" stroke-opacity="1.0" stroke-linecap="round" stroke-linejoin="round"/>
    <path d="M 165.20504760742188 -34.72834014892578 C 159.56678771972656 11.381562232971191 178.4847412109375 32.42461013793945 169.2971649169922 71.58000946044922 C 62.53004837036133 62.58638381958008 87.8933334350586 65.79246520996094 83.1267318725586 50.752044677734375 C 69.37932586669922 -24.074176788330078 53.60782241821289 -6.329003810882568 94.7397689819336 -6.332928657531738 C 158.90733337402344 -3.276235818862915 119.76940155029297 1.6090877056121826 165.20504760742188 -34.72834014892578" stroke-width="0.0" fill="rgb(11, 25, 85)" opacity="0.23651454" stroke="rgb(0, 0, 0)" stroke-opacity="1.0" stroke-linecap="round" stroke-linejoin="round"/>
    <path d="M 54.726966857910156 333.8512268066406 C 32.02558898925781 350.0506591796875 23.39431381225586 360.36859130859375 42.415061950683594 354.36822509765625 C 3.195039749145508 345.1396789550781 17.902681350708008 347.267822265625 5.111137390136719 304.7805480957031 C -4.332790851593018 286.1789855957031 23.071372985839844 286.4364013671875 38.08895492553711 289.8570556640625 C 48.040191650390625 298.2589416503906 42.318885803222656 313.7288513183594 54.726966857910156 333.8512268066406" stroke-width="0.0" fill="rgb(4, 6, 171)" opacity="0.54226995" stroke="rgb(0, 0, 0)" stroke-opacity="1.0" stroke-linecap="round" stroke-linejoin="round"/>
    <path d="M 238.99969482421875 35.920677185058594 C 253.95579528808594 37.908565521240234 252.27737426757812 56.954559326171875 247.55294799804688 57.858734130859375 C 256.81787109375 16.869861602783203 252.8871307373047 29.339128494262695 225.821044921875 40.93409729003906 C 242.06040954589844 42.84489440917969 261.1916809082031 30.62726593017578 241.7086944580078 37.56193542480469 C 240.35037231445312 45.42715072631836 237.09939575195312 42.2417106628418 238.99969482421875 35.920677185058594" stroke-width="0.0" fill="rgb(15, 77, 49)" opacity="0.031673267" stroke="rgb(0, 0, 0)" stroke-opacity="1.0" stroke-linecap="round" stroke-linejoin="round"/>
    <path d="M 130.6251983642578 393.23516845703125 C 71.61406707763672 360.36822509765625 121.51957702636719 361.7660217285156 112.07748413085938 386.6031799316406 C 56.12216567993164 382.8381042480469 77.22004699707031 338.1510925292969 103.94410705566406 339.3249206542969 C 101.0598373413086 339.12689208984375 109.7489013671875 343.7486267089844 117.15425872802734 301.79827880859375 C 160.37232971191406 277.80810546875 180.8551788330078 325.6141357421875 130.6251983642578 393.23516845703125" stroke-width="0.0" fill="rgb(24, 0, 135)" opacity="1.0" stroke="rgb(0, 0, 0)" stroke-opacity="1.0" stroke-linecap="round" stroke-linejoin="round"/>
    <path d="M 177.01852416992188 384.4358825683594 C 193.51174926757812 418.1862487792969 205.56527709960938 409.115966796875 188.091064453125 400.619140625 C 185.57760620117188 397.8534851074219 188.79556274414062 390.9526062011719 189.010986328125 366.5050354003906 C 185.1632080078125 368.1272277832031 174.62863159179688 351.3543701171875 197.31143188476562 348.1728820800781 C 189.2069854736328 360.9296569824219 212.1316680908203 363.8646545410156 177.01852416992188 384.4358825683594" stroke-width="0.0" fill="rgb(254, 78, 64)" opacity="0.007024416" stroke="rgb(0, 0, 0)" stroke-opacity="1.0" stroke-linecap="round" stroke-linejoin="round"/>
    <path d="M 44.59102249145508 193.1409149169922 C 44.76982879638672 171.54910278320312 40.013301849365234 191.42916870117188 45.19329833984375 199.00172424316406 C 35.73641586303711 199.4748992919922 23.431364059448242 194.49012756347656 34.461055755615234 201.15155029296875 C 47.00636672973633 200.70172119140625 49.11692428588867 184.6829833984375 14.634405136108398 192.0342254638672 C 19.872852325439453 191.23880004882812 44.07453155517578 192.4461212158203 44.59102249145508 193.1409149169922" stroke-width="0.0" fill="rgb(11, 13, 172)" opacity="0.0" stroke="rgb(0, 0, 0)" stroke-opacity="1.0" stroke-linecap="round" stroke-linejoin="round"/>
    <path d="M 477.44927978515625 366.01910400390625 C 485.8134460449219 349.8966369628906 431.138671875 343.22479248046875 403.9969787597656 320.0002136230469 C 425.7636413574219 288.60577392578125 419.1800842285156 290.2677001953125 404.8169250488281 291.20111083984375 C 401.95556640625 256.10528564453125 384.44482421875 281.7225341796875 425.0234375 297.041259765625 C 467.483154296875 277.3116760253906 470.0967102050781 270.78839111328125 477.44927978515625 366.01910400390625" stroke-width="0.0" fill="rgb(2, 11, 162)" opacity="0.011697075" stroke="rgb(0, 0, 0)" stroke-opacity="1.0" stroke-linecap="round" stroke-linejoin="round"/>
    <path d="M 44.80512619018555 155.5519256591797 C 51.197654724121094 187.64149475097656 38.05448532104492 172.54757690429688 2.62882137298584 172.6798858642578 C -28.162385940551758 151.110107421875 -34.82390213012695 153.77645874023438 -10.058372497558594 131.99703979492188 C -9.327981948852539 77.39364624023438 9.00492000579834 101.34258270263672 36.3329963684082 122.88568878173828 C 48.58160400390625 99.22193908691406 38.723793029785156 124.89580535888672 44.80512619018555 155.5519256591797" stroke-width="0.0" fill="rgb(25, 33, 79)" opacity="0.060874376" stroke="rgb(0, 0, 0)" stroke-opacity="1.0" stroke-linecap="round" stroke-linejoin="round"/>
    <path d="M 541.4766235351562 263.8419494628906 C 513.984375 293.4698486328125 492.7578430175781 287.41448974609375 498.5035705566406 265.0768737792969 C 521.7354736328125 282.7159729003906 471.1174011230469 259.85076904296875 487.00030517578125 247.44940185546875 C 480.177001953125 213.033203125 485.342041015625 214.3317413330078 485.6930847167969 202.20265197753906 C 534.9070434570312 203.79405212402344 535.3255004882812 213.66046142578125 541.4766235351562 263.8419494628906" stroke-width="0.0" fill="rgb(13, 30, 137)" opacity="0.0" stroke="rgb(0, 0, 0)" stroke-opacity="1.0" stroke-linecap="round" stroke-linejoin="round"/>
    <path d="M 275.9861755371094 72.68211364746094 C 279.2547607421875 141.0360565185547 286.12713623046875 116.53746032714844 223.94522094726562 118.83485412597656 C 220.48599243164062 99.69696807861328 211.1301727294922 90.29501342773438 215.23892211914062 110.62437438964844 C 205.20411682128906 106.5713882446289 211.89634704589844 91.58963012695312 226.78512573242188 31.59459686279297 C 248.53993225097656 73.80116271972656 256.25640869140625 80.17671203613281 275.9861755371094 72.68211364746094" stroke-width="0.0" fill="rgb(255, 255, 0)" opacity="1.0" stroke="rgb(0, 0, 0)" stroke-opacity="1.0" stroke-linecap="round" stroke-linejoin="round"/>
    <path d="M 402.3533020019531 289.3247985839844 C 460.957763671875 276.1438903808594 406.3922119140625 276.55279541015625 378.11297607421875 252.36529541015625 C 432.1424560546875 242.48158264160156 464.5902099609375 260.4061279296875 439.117431640625 328.59185791015625 C 393.2638244628906 294.5785217285156 373.8741149902344 290.51763916015625 396.1680908203125 287.3953857421875 C 435.9781494140625 310.54766845703125 415.3151550292969 295.7813415527344 402.3533020019531 289.3247985839844" stroke-width="0.0" fill="rgb(35, 59, 67)" opacity="0.00024671195" stroke="rgb(0, 0, 0)" stroke-opacity="1.0" stroke-linecap="round" stroke-linejoin="round"/>
    <path d="M 553.3765869140625 132.0613250732422 C 544.1649169921875 147.42282104492188 500.3582458496094 145.49497985839844 474.6540222167969 152.33441162109375 C 493.603515625 175.48179626464844 469.34234619140625 177.92665100097656 472.4563903808594 88.30433654785156 C 472.9934387207031 56.74595260620117 473.75250244140625 76.76356506347656 523.4853515625 73.81122589111328 C 521.8927612304688 95.5718994140625 531.9238891601562 104.6151123046875 553.3765869140625 132.0613250732422" stroke-width="0.0" fill="rgb(53, 32, 112)" opacity="0.02038636" stroke="rgb(0, 0, 0)" stroke-opacity="1.0" stroke-linecap="round" stroke-linejoin="round"/>
    <path d="M 515.1149291992188 138.7075653076172 C 506.34124755859375 137.7064971923828 492.89984130859375 142.6101531982422 482.2201843261719 170.06637573242188 C 474.28912353515625 194.41712951660156 479.05364990234375 193.66819763183594 482.5396423339844 145.90274047851562 C 459.5845947265625 141.9592742919922 486.2935791015625 144.25918579101562 512.5096435546875 143.38632202148438 C 519.3234252929688 146.22813415527344 526.4747924804688 156.96212768554688 515.1149291992188 138.7075653076172" stroke-width="0.0" fill="rgb(20, 21, 159)" opacity="0.005926251" stroke="rgb(0, 0, 0)" stroke-opacity="1.0" stroke-linecap="round" stroke-linejoin="round"/>
    <path d="M 57.600826263427734 404.95343017578125 C 107.12843322753906 373.458984375 88.60674285888672 380.5958557128906 69.38971710205078 369.0680847167969 C 41.388031005859375 379.8754577636719 45.11261749267578 373.2813415527344 45.11373519897461 328.691162109375 C 42.29415512084961 325.174560546875 19.944196701049805 337.5596618652344 87.90028381347656 339.79754638671875 C 80.24148559570312 334.5542907714844 70.62433624267578 358.7278747558594 57.600826263427734 404.95343017578125" stroke-width="0.0" fill="rgb(44, 75, 44)" opacity="0.0" stroke="rgb(0, 0, 0)" stroke-opacity="1.0" stroke-linecap="round" stroke-linejoin="round"/>
    <path d="M 324.5683898925781 231.8131103515625 C 343.2139587402344 308.694091796875 332.3722229003906 301.5577697753906 321.587646484375 287.2727966308594 C 332.99432373046875 250.0115509033203 331.6667175292969 241.58294677734375 324.6307067871094 212.21487426757812 C 295.8905944824219 244.28436279296875 298.4756774902344 252.3712921142578 321.2972106933594 240.3042449951172 C 318.3504333496094 259.4952697753906 320.77813720703125 266.9377136230469 324.5683898925781 231.8131103515625" stroke-width="0.0" fill="rgb(4, 30, 131)" opacity="0.0" stroke="rgb(0, 0, 0)" stroke-opacity="1.0" stroke-linecap="round" stroke-linejoin="round"/>
    <path d="M 462.4569091796875 137.7799072265625 C 497.5257873535156 129.91064453125 503.09051513671875 134.2332305908203 531.8754272460938 143.23287963867188 C 485.658447265625 141.423828125 468.75384521484375 134.54664611816406 448.5960388183594 143.6444549560547 C 461.93182373046875 171.9149932861328 482.94989013671875 157.14100646972656 466.4651794433594 113.40192413330078 C 471.7076721191406 126.15630340576172 467.4085388183594 144.7398223876953 462.4569091796875 137.7799072265625" stroke-width="0.0" fill="rgb(23, 54, 58)" opacity="0.009185045" stroke="rgb(0, 0, 0)" stroke-opacity="1.0" stroke-linecap="round" stroke-linejoin="round"/>
    <path d="M 469.5494079589844 517.41796875 C 489.9679260253906 490.0904541015625 490.2060241699219 498.29791259765625 442.3847961425781 475.3581848144531 C 442.2229919433594 479.5013427734375 432.5303955078125 472.9708557128906 464.6260681152344 474.9456481933594 C 416.55377197265625 498.1554260253906 407.4462890625 468.30517578125 423.6046447753906 444.3160705566406 C 466.4176940917969 436.7826843261719 473.4756774902344 440.878662109375 469.5494079589844 517.41796875" stroke-width="0.0" fill="rgb(39, 21, 165)" opacity="0.016178625" stroke="rgb(0, 0, 0)" stroke-opacity="1.0" stroke-linecap="round" stroke-linejoin="round"/>
    <path d="M 483.7930908203125 334.95989990234375 C 470.4620056152344 353.6617126464844 471.21405029296875 377.73687744140625 477.1483154296875 380.7148742675781 C 472.59912109375 376.7583312988281 475.4360656738281 366.85333251953125 470.48834228515625 378.90533447265625 C 465.420654296875 366.6000061035156 472.35797119140625 366.935302734375 486.6956481933594 352.76129150390625 C 509.31915283203125 355.638916015625 521.1250610351562 362.80023193359375 483.7930908203125 334.95989990234375" stroke-width="0.0" fill="rgb(16, 61, 101)" opacity="0.06866528" stroke="rgb(0, 0, 0)" stroke-opacity="1.0" stroke-linecap="round" stroke-linejoin="round"/>
    <path d="M 162.58848571777344 411.53033447265625 C 179.65908813476562 427.3214111328125 182.70542907714844 450.7467346191406 170.24191284179688 470.40338134765625 C 136.3391571044922 491.0791320800781 112.05452728271484 471.11260986328125 107.81507873535156 450.1991271972656 C 97.33954620361328 372.0403747558594 77.39500427246094 346.0397033691406 119.36000061035156 357.2225341796875 C 140.64695739746094 403.5303649902344 146.40884399414062 402.6204833984375 162.58848571777344 411.53033447265625" stroke-width="0.0" fill="rgb(82, 0, 97)" opacity="0.48708534" stroke="rgb(0, 0, 0)" stroke-opacity="1.0" stroke-linecap="round" stroke-linejoin="round"/>
    <path d="M 101.03247833251953 176.06353759765625 C 91.08028411865234 186.45982360839844 105.87806701660156 182.2112274169922 81.84957122802734 182.37901306152344 C 77.39374542236328 161.7119903564453 59.08024215698242 148.23184204101562 94.84190368652344 153.3551025390625 C 72.80081176757812 147.77749633789062 76.05410766601562 132.96493530273438 61.67898178100586 149.0679473876953 C 66.23614501953125 171.8785858154297 100.97744750976562 165.7284393310547 101.03247833251953 176.06353759765625" stroke-width="0.0" fill="rgb(16, 7, 156)" opacity="0.005675974" stroke="rgb(0, 0, 0)" stroke-opacity="1.0" stroke-linecap="round" stroke-linejoin="round"/>
    <path d="M 172.2891082763672 124.7940673828125 C 177.96192932128906 138.04698181152344 178.60400390625 123.73518371582031 184.56031799316406 138.03334045410156 C 150.72132873535156 151.33209228515625 149.08863830566406 140.90182495117188 166.7579345703125 107.77497863769531 C 167.39093017578125 141.99407958984375 169.32949829101562 147.1929931640625 190.12130737304688 119.53402709960938 C 172.47470092773438 121.07594299316406 185.0433349609375 128.81263732910156 172.2891082763672 124.7940673828125" stroke-width="0.0" fill="rgb(224, 186, 247)" opacity="0.0" stroke="rgb(0, 0, 0)" stroke-opacity="1.0" stroke-linecap="round" stroke-linejoin="round"/>
    <path d="M 196.11412048339844 393.1910400390625 C 173.89306640625 419.1474914550781 166.89093017578125 426.92730712890625 146.620849609375 407.6814270019531 C 165.38644409179688 420.6397705078125 121.54309844970703 474.099609375 138.66998291015625 403.8733215332031 C 168.29637145996094 402.7229919433594 146.87503051757812 379.6601867675781 133.7023468017578 401.8626708984375 C 158.58163452148438 395.6016845703125 168.62571716308594 386.3227233886719 196.11412048339844 393.1910400390625" stroke-width="0.0" fill="rgb(30, 32, 144)" opacity="0.0065381527" stroke="rgb(0, 0, 0)" stroke-opacity="1.0" stroke-linecap="round" stroke-linejoin="round"/>
    <path d="M 463.8927917480469 112.88231658935547 C 452.7818908691406 126.21023559570312 458.3903503417969 138.20831298828125 428.4762268066406 145.84481811523438 C 440.644775390625 146.88160705566406 435.6254577636719 129.25442504882812 436.57025146484375 113.66459655761719 C 445.2175598144531 131.8499755859375 435.0216369628906 135.76296997070312 431.41619873046875 101.17716217041016 C 477.43927001953125 87.71595001220703 459.67864990234375 102.17476654052734 463.8927917480469 112.88231658935547" stroke-width="0.0" fill="rgb(30, 16, 147)" opacity="0.04320521" stroke="rgb(0, 0, 0)" stroke-opacity="1.0" stroke-linecap="round" stroke-linejoin="round"/>
    <path d="M 269.46588134765625 318.5785217285156 C 268.177978515625 314.6177978515625 252.3280029296875 331.6449279785156 213.29916381835938 340.808837890625 C 235.29071044921875 334.21929931640625 232.41468811035156 342.3348083496094 243.62693786621094 362.1535339355469 C 279.87841796875 346.39691162109375 252.2275848388672 306.7189025878906 251.3606414794922 320.2867736816406 C 231.2088165283203 308.56640625 253.6558837890625 312.15838623046875 269.46588134765625 318.5785217285156" stroke-width="0.0" fill="rgb(30, 31, 95)" opacity="0.002905793" stroke="rgb(0, 0, 0)" stroke-opacity="1.0" stroke-linecap="round" stroke-linejoin="round"/>
    <path d="M 158.5664520263672 488.9539489746094 C 169.9851531982422 505.4206848144531 168.63766479492188 489.8458251953125 167.5078582763672 486.94921875 C 133.3655548095703 480.5401916503906 157.55905151367188 482.4263610839844 132.46817016601562 513.5564575195312 C 166.23422241210938 492.6822509765625 168.39361572265625 462.5789794921875 140.92227172851562 467.975830078125 C 143.33746337890625 516.3550415039062 150.00912475585938 534.9093627929688 158.5664520263672 488.9539489746094" stroke-width="0.0" fill="rgb(30, 58, 16)" opacity="0.0" stroke="rgb(0, 0, 0)" stroke-opacity="1.0" stroke-linecap="round" stroke-linejoin="round"/>
  </g>
</svg>
