<?xml version="1.0" ?>
<svg xmlns="http://www.w3.org/2000/svg" version="1.1" width="512" height="512">
  <defs/>
  <g>
    <path d="M 323.7080078125 401.2878112792969 C 207.5730743408203 575.4755249023438 188.84326171875 343.6191711425781 126.91506958007812 452.9226379394531 C 51.88936233520508 394.9438171386719 -37.766822814941406 296.1661376953125 81.48070526123047 190.84217834472656 C 71.59378814697266 339.71484375 61.03059387207031 275.1324157714844 50.145687103271484 360.27783203125 C 94.55023956298828 400.0931396484375 96.52539825439453 330.9125061035156 323.7080078125 401.2878112792969" stroke-width="0.0" fill="rgb(0, 0, 22)" opacity="1.0" stroke="rgb(0, 0, 0)" stroke-opacity="1.0" stroke-linecap="round" stroke-linejoin="round"/>
    <path d="M 186.20501708984375 226.32420349121094 C 248.89698791503906 296.08270263671875 148.60804748535156 296.98529052734375 168.3909149169922 286.8125305175781 C 171.37066650390625 270.31976318359375 123.17738342285156 224.48037719726562 93.07667541503906 222.67019653320312 C 111.39765930175781 235.71258544921875 2.5323400497436523 228.69862365722656 168.34579467773438 232.09432983398438 C 178.1443328857422 276.2364807128906 197.3961639404297 255.65133666992188 186.20501708984375 226.32420349121094" stroke-width="0.0" fill="rgb(0, 0, 18)" opacity="1.0" stroke="rgb(0, 0, 0)" stroke-opacity="1.0" stroke-linecap="round" stroke-linejoin="round"/>
    <path d="M 387.162353515625 225.72364807128906 C 376.4671630859375 336.28424072265625 204.9225616455078 265.53704833984375 388.2953186035156 250.55599975585938 C 424.88360595703125 226.2973175048828 318.8468322753906 171.8013153076172 303.07061767578125 394.7923278808594 C 263.0503234863281 220.49911499023438 352.9903869628906 199.6918182373047 373.14453125 220.75299072265625 C 475.1429443359375 227.848876953125 396.8892822265625 252.97637939453125 387.162353515625 225.72364807128906" stroke-width="0.0" fill="rgb(0, 0, 24)" opacity="1.0" stroke="rgb(0, 0, 0)" stroke-opacity="1.0" stroke-linecap="round" stroke-linejoin="round"/>
    <path d="M 200.96408081054688 195.4833984375 C 149.07884216308594 281.4051818847656 192.90220642089844 255.6494903564453 121.7086410522461 246.3557586669922 C 56.35617446899414 226.25633239746094 144.66091918945312 219.73153686523438 190.5087432861328 217.2108154296875 C 205.09396362304688 245.5978546142578 177.13111877441406 229.7332000732422 202.10130310058594 193.44952392578125 C 165.6789093017578 131.64845275878906 168.91744995117188 126.86121368408203 200.96408081054688 195.4833984375" stroke-width="0.0" fill="rgb(0, 0, 18)" opacity="1.0" stroke="rgb(0, 0, 0)" stroke-opacity="1.0" stroke-linecap="round" stroke-linejoin="round"/>
    <path d="M 524.3579711914062 279.19476318359375 C 582.2271118164062 421.14501953125 397.6468200683594 372.7951354980469 440.1072692871094 464.70367431640625 C 289.700927734375 327.2331848144531 329.94537353515625 452.1540222167969 280.7851257324219 298.81182861328125 C 438.1323547363281 329.276123046875 333.8351135253906 271.7793273925781 427.85821533203125 314.23297119140625 C 449.741455078125 325.991943359375 355.2214050292969 335.72265625 524.3579711914062 279.19476318359375" stroke-width="0.0" fill="rgb(59, 108, 169)" opacity="0.46335262" stroke="rgb(0, 0, 0)" stroke-opacity="1.0" stroke-linecap="round" stroke-linejoin="round"/>
    <path d="M 458.2997131347656 195.38217163085938 C 500.6137390136719 280.7997741699219 500.6409912109375 281.7394104003906 418.631591796875 359.56884765625 C 459.8966064453125 279.278564453125 499.4896545410156 314.3994140625 431.8035888671875 201.34483337402344 C 462.3826904296875 106.2644271850586 462.5242919921875 -32.34326171875 472.78814697265625 88.79635620117188 C 462.07275390625 199.09677124023438 470.2255859375 128.79063415527344 458.2997131347656 195.38217163085938" stroke-width="0.0" fill="rgb(0, 0, 26)" opacity="1.0" stroke="rgb(0, 0, 0)" stroke-opacity="1.0" stroke-linecap="round" stroke-linejoin="round"/>
    <path d="M 393.8311767578125 285.9530029296875 C 306.9117736816406 344.40191650390625 317.00616455078125 381.9881591796875 320.6262512207031 312.85491943359375 C 297.3039855957031 334.798095703125 359.01666259765625 328.4419860839844 282.6796875 324.27874755859375 C 294.6907043457031 326.0814208984375 311.424072265625 298.45941162109375 326.1798095703125 291.0531005859375 C 317.8100280761719 292.8249816894531 318.0466003417969 276.5740966796875 393.8311767578125 285.9530029296875" stroke-width="0.0" fill="rgb(255, 255, 248)" opacity="1.0" stroke="rgb(0, 0, 0)" stroke-opacity="1.0" stroke-linecap="round" stroke-linejoin="round"/>
    <path d="M 384.973388671875 259.68267822265625 C 411.5682373046875 247.55239868164062 406.7933349609375 246.98927307128906 415.9742431640625 235.0574188232422 C 377.3239440917969 218.7372283935547 368.383056640625 211.62075805664062 338.43377685546875 222.9641876220703 C 333.78387451171875 231.48992919921875 366.5980224609375 221.758544921875 344.8591003417969 214.15557861328125 C 332.4385681152344 265.8196105957031 305.7751770019531 240.73146057128906 384.973388671875 259.68267822265625" stroke-width="0.0" fill="rgb(0, 0, 23)" opacity="1.0" stroke="rgb(0, 0, 0)" stroke-opacity="1.0" stroke-linecap="round" stroke-linejoin="round"/>
    <path d="M 76.4255599975586 80.58513641357422 C 108.53813934326172 188.74380493164062 68.63349914550781 85.4792251586914 209.857177734375 115.88579559326172 C 47.30000305175781 202.07496643066406 106.52325439453125 329.7035827636719 59.079769134521484 70.08381652832031 C 51.53871154785156 -38.58948516845703 81.30743408203125 -57.59660720825195 161.1537628173828 137.3700714111328 C 13.771871566772461 54.33528518676758 60.11358642578125 1.2796947956085205 76.4255599975586 80.58513641357422" stroke-width="0.0" fill="rgb(0, 2, 27)" opacity="0.9986771" stroke="rgb(0, 0, 0)" stroke-opacity="1.0" stroke-linecap="round" stroke-linejoin="round"/>
    <path d="M 242.9579620361328 315.76611328125 C 197.55677795410156 313.0001525878906 304.3800354003906 287.6947937011719 261.92010498046875 336.6641845703125 C 39.58383560180664 412.60772705078125 175.1033935546875 362.09429931640625 180.868896484375 267.529296875 C 141.65582275390625 191.70863342285156 208.54127502441406 221.58958435058594 218.7189483642578 232.5718231201172 C 237.3961944580078 270.0785217285156 230.9847869873047 286.8372497558594 242.9579620361328 315.76611328125" stroke-width="0.0" fill="rgb(0, 0, 21)" opacity="1.0" stroke="rgb(0, 0, 0)" stroke-opacity="1.0" stroke-linecap="round" stroke-linejoin="round"/>
    <path d="M 403.4128723144531 282.19232177734375 C 385.03692626953125 285.4512634277344 347.90252685546875 266.1636657714844 397.08526611328125 246.0398406982422 C 398.40435791015625 253.68482971191406 349.0780944824219 256.84637451171875 324.46295166015625 263.4136657714844 C 348.20782470703125 214.16470336914062 372.3495178222656 263.7589416503906 394.361328125 242.73580932617188 C 437.0232238769531 225.73678588867188 422.1509094238281 247.42709350585938 403.4128723144531 282.19232177734375" stroke-width="0.0" fill="rgb(242, 255, 114)" opacity="1.0" stroke="rgb(0, 0, 0)" stroke-opacity="1.0" stroke-linecap="round" stroke-linejoin="round"/>
    <path d="M 491.9202880859375 -22.21470832824707 C 322.86627197265625 79.44457244873047 361.72418212890625 87.49855041503906 240.91700744628906 85.68417358398438 C 117.03041076660156 95.39573669433594 177.56243896484375 76.36250305175781 8.433768272399902 -39.28562545776367 C 246.66172790527344 10.702685356140137 125.9742431640625 75.66629028320312 290.24462890625 64.53776550292969 C 348.46783447265625 69.30635070800781 379.85662841796875 -5.6049580574035645 491.9202880859375 -22.21470832824707" stroke-width="0.0" fill="rgb(0, 0, 22)" opacity="1.0" stroke="rgb(0, 0, 0)" stroke-opacity="1.0" stroke-linecap="round" stroke-linejoin="round"/>
    <path d="M 316.1888427734375 350.1356506347656 C 122.160888671875 455.48779296875 247.34133911132812 350.01409912109375 149.4347381591797 430.5277404785156 C 78.23363494873047 373.8576354980469 132.03726196289062 341.0899353027344 139.29437255859375 362.3099670410156 C 157.1565399169922 353.34295654296875 160.08604431152344 325.8446044921875 260.56585693359375 295.98626708984375 C 297.99908447265625 307.9039611816406 349.8314514160156 309.223388671875 316.1888427734375 350.1356506347656" stroke-width="0.0" fill="rgb(255, 255, 249)" opacity="1.0" stroke="rgb(0, 0, 0)" stroke-opacity="1.0" stroke-linecap="round" stroke-linejoin="round"/>
    <path d="M 465.079345703125 76.6899185180664 C 471.4116516113281 42.59513854980469 476.1985168457031 51.28791046142578 471.2440490722656 38.95050811767578 C 473.5559997558594 78.36026763916016 489.3961486816406 85.30187225341797 436.2846374511719 87.32086944580078 C 452.9443359375 -19.87379264831543 430.4312744140625 -65.41614532470703 461.1925048828125 -28.44974708557129 C 468.4562683105469 44.85890579223633 480.31402587890625 83.44989776611328 465.079345703125 76.6899185180664" stroke-width="0.0" fill="rgb(0, 4, 25)" opacity="0.99908274" stroke="rgb(0, 0, 0)" stroke-opacity="1.0" stroke-linecap="round" stroke-linejoin="round"/>
    <path d="M 473.0293273925781 42.7947998046875 C 340.4441223144531 152.83204650878906 455.07373046875 131.7304229736328 408.14215087890625 178.91444396972656 C 293.1003112792969 72.8561019897461 310.7919006347656 130.43162536621094 352.3589782714844 39.24503707885742 C 328.79217529296875 93.26219177246094 354.48773193359375 9.52968692779541 330.764892578125 124.667236328125 C 382.92913818359375 130.682373046875 450.6332092285156 -0.6449694037437439 473.0293273925781 42.7947998046875" stroke-width="0.0" fill="rgb(0, 3, 32)" opacity="0.972739" stroke="rgb(0, 0, 0)" stroke-opacity="1.0" stroke-linecap="round" stroke-linejoin="round"/>
    <path d="M 456.16204833984375 417.5248718261719 C 428.1203918457031 421.7455749511719 511.1092529296875 555.1685791015625 340.9228210449219 533.1568603515625 C 319.9159240722656 352.5902404785156 441.9146728515625 468.05194091796875 418.6130676269531 384.6076965332031 C 550.8013916015625 459.6568603515625 360.75445556640625 360.79669189453125 399.5080871582031 362.41229248046875 C 463.1190185546875 407.2520446777344 489.7751770019531 414.6240539550781 456.16204833984375 417.5248718261719" stroke-width="0.0" fill="rgb(230, 246, 251)" opacity="0.06454536" stroke="rgb(0, 0, 0)" stroke-opacity="1.0" stroke-linecap="round" stroke-linejoin="round"/>
    <path d="M 466.78558349609375 15.621033668518066 C 456.26873779296875 -5.234018802642822 465.7196350097656 24.211103439331055 412.25006103515625 152.97036743164062 C 376.6063232421875 136.91970825195312 406.2219543457031 184.64015197753906 419.442626953125 4.409242153167725 C 473.9693908691406 14.474654197692871 459.59619140625 19.66623306274414 449.01422119140625 64.01435852050781 C 449.6426696777344 17.58591651916504 452.7806396484375 15.364702224731445 466.78558349609375 15.621033668518066" stroke-width="0.0" fill="rgb(0, 0, 26)" opacity="1.0" stroke="rgb(0, 0, 0)" stroke-opacity="1.0" stroke-linecap="round" stroke-linejoin="round"/>
    <path d="M 428.97222900390625 407.4914855957031 C 433.0888977050781 401.5688171386719 369.57379150390625 437.8483581542969 294.5195007324219 511.42333984375 C 238.70907592773438 494.6650390625 170.64076232910156 410.57550048828125 188.76698303222656 404.45660400390625 C 241.38096618652344 454.9427185058594 270.10089111328125 440.2626647949219 263.0199279785156 412.11553955078125 C 251.57327270507812 411.0238037109375 335.9634704589844 432.80792236328125 428.97222900390625 407.4914855957031" stroke-width="0.0" fill="rgb(0, 12, 99)" opacity="0.6651828" stroke="rgb(0, 0, 0)" stroke-opacity="1.0" stroke-linecap="round" stroke-linejoin="round"/>
    <path d="M 225.8004913330078 323.8500671386719 C 269.70947265625 276.18701171875 303.92852783203125 290.10009765625 256.426025390625 322.879638671875 C 224.4864959716797 300.8643493652344 246.58807373046875 310.5262756347656 207.27491760253906 292.1987609863281 C 197.45681762695312 289.44903564453125 153.2399444580078 271.4769592285156 135.45201110839844 277.8497009277344 C 119.40599060058594 374.8448791503906 157.94483947753906 334.53265380859375 225.8004913330078 323.8500671386719" stroke-width="0.0" fill="rgb(253, 255, 249)" opacity="1.0" stroke="rgb(0, 0, 0)" stroke-opacity="1.0" stroke-linecap="round" stroke-linejoin="round"/>
    <path d="M 564.8015747070312 405.8233947753906 C 489.6318359375 585.8605346679688 419.642578125 536.1419067382812 446.6881408691406 459.73809814453125 C 430.73931884765625 399.9993896484375 447.0700378417969 399.4414978027344 448.6660461425781 407.1387939453125 C 483.1628723144531 410.79315185546875 447.23114013671875 439.1283874511719 507.1717224121094 375.33197021484375 C 533.1633911132812 382.8287353515625 481.23388671875 358.861328125 564.8015747070312 405.8233947753906" stroke-width="0.0" fill="rgb(255, 254, 247)" opacity="0.20310833" stroke="rgb(0, 0, 0)" stroke-opacity="1.0" stroke-linecap="round" stroke-linejoin="round"/>
    <path d="M 284.00439453125 403.089111328125 C 267.6890869140625 376.5689697265625 223.0669403076172 390.79803466796875 254.09417724609375 373.0888977050781 C 273.6871337890625 389.2311706542969 245.10012817382812 376.5079650878906 240.67808532714844 404.498046875 C 194.3772735595703 422.8528137207031 219.78489685058594 398.49505615234375 302.4936218261719 321.94854736328125 C 278.29132080078125 403.11883544921875 359.7164001464844 403.3533630371094 284.00439453125 403.089111328125" stroke-width="0.0" fill="rgb(0, 0, 24)" opacity="0.9904317" stroke="rgb(0, 0, 0)" stroke-opacity="1.0" stroke-linecap="round" stroke-linejoin="round"/>
    <path d="M 83.97138977050781 20.572139739990234 C 69.8752670288086 -0.6798559427261353 71.3152847290039 120.09494018554688 107.91999816894531 180.72703552246094 C 122.42288208007812 236.78616333007812 74.27134704589844 -9.180825233459473 76.06021881103516 23.237524032592773 C 55.10310363769531 26.817962646484375 15.478310585021973 -20.900205612182617 117.05442810058594 25.07133674621582 C 166.06651306152344 101.76448822021484 72.71076202392578 13.613009452819824 83.97138977050781 20.572139739990234" stroke-width="0.0" fill="rgb(73, 113, 80)" opacity="0.66565675" stroke="rgb(0, 0, 0)" stroke-opacity="1.0" stroke-linecap="round" stroke-linejoin="round"/>
    <path d="M 192.1627655029297 27.045671463012695 C 190.40682983398438 19.057973861694336 174.24258422851562 1.796758770942688 188.3643798828125 44.77025604248047 C 158.27688598632812 39.4858283996582 147.8290252685547 23.613222122192383 88.89704132080078 -12.322010040283203 C 73.58538818359375 -38.45216751098633 82.46141815185547 -32.82775115966797 162.3936309814453 -63.71978759765625 C 206.66310119628906 -58.35673904418945 211.9349365234375 -66.03897857666016 192.1627655029297 27.045671463012695" stroke-width="0.0" fill="rgb(252, 248, 255)" opacity="1.0" stroke="rgb(0, 0, 0)" stroke-opacity="1.0" stroke-linecap="round" stroke-linejoin="round"/>
    <path d="M 146.6862030029297 286.81689453125 C 154.17254638671875 351.2673034667969 140.94000244140625 361.6318054199219 106.17977905273438 370.16522216796875 C 58.95170974731445 354.4883117675781 48.860050201416016 359.9168395996094 53.14069366455078 323.07568359375 C 81.71444702148438 292.8699035644531 63.63492202758789 259.3832092285156 86.80123138427734 217.74635314941406 C 147.84669494628906 263.1672668457031 161.64968872070312 260.1340026855469 146.6862030029297 286.81689453125" stroke-width="0.0" fill="rgb(217, 211, 183)" opacity="0.21299596" stroke="rgb(0, 0, 0)" stroke-opacity="1.0" stroke-linecap="round" stroke-linejoin="round"/>
    <path d="M 89.61488342285156 244.18431091308594 C 96.943603515625 233.5053253173828 86.98661804199219 234.8048553466797 84.87987518310547 231.6267547607422 C 87.7375717163086 262.74853515625 83.05388641357422 282.48272705078125 42.98461151123047 280.62200927734375 C 68.97462463378906 229.61880493164062 110.65748596191406 187.2512664794922 97.80935668945312 235.96426391601562 C 101.07855224609375 236.61241149902344 87.95597076416016 226.70628356933594 89.61488342285156 244.18431091308594" stroke-width="0.0" fill="rgb(242, 253, 234)" opacity="0.9981235" stroke="rgb(0, 0, 0)" stroke-opacity="1.0" stroke-linecap="round" stroke-linejoin="round"/>
    <path d="M 328.4207458496094 98.4254150390625 C 330.1934509277344 211.74530029296875 353.8199157714844 234.32737731933594 236.24351501464844 235.89964294433594 C 149.77037048339844 202.61151123046875 133.68016052246094 210.5918426513672 152.76756286621094 159.3218994140625 C 220.20205688476562 105.23120880126953 179.6575469970703 84.31291198730469 203.45411682128906 101.12804412841797 C 260.1076354980469 93.63263702392578 320.8040771484375 85.00471496582031 328.4207458496094 98.4254150390625" stroke-width="0.0" fill="rgb(240, 255, 231)" opacity="0.14711404" stroke="rgb(0, 0, 0)" stroke-opacity="1.0" stroke-linecap="round" stroke-linejoin="round"/>
    <path d="M 327.2579650878906 351.1527404785156 C 280.8624572753906 364.15447998046875 315.85748291015625 396.069580078125 307.41265869140625 397.5440979003906 C 282.36590576171875 352.2160339355469 221.37750244140625 399.56524658203125 238.09103393554688 351.4764709472656 C 288.61407470703125 344.3382873535156 300.372802734375 288.02410888671875 339.2041015625 300.9782409667969 C 348.7182312011719 351.1590576171875 324.0813293457031 358.8580017089844 327.2579650878906 351.1527404785156" stroke-width="0.0" fill="rgb(255, 255, 245)" opacity="1.0" stroke="rgb(0, 0, 0)" stroke-opacity="1.0" stroke-linecap="round" stroke-linejoin="round"/>
    <path d="M 42.6829948425293 417.26788330078125 C 19.307113647460938 418.640625 130.61257934570312 373.4891052246094 59.38846206665039 370.6532897949219 C 25.941524505615234 428.5160827636719 18.992067337036133 394.5745544433594 94.2872085571289 355.8640441894531 C -30.813955307006836 360.9237365722656 4.240330696105957 359.443359375 70.24717712402344 350.8747863769531 C 82.98895263671875 384.5864562988281 92.44436645507812 376.43231201171875 42.6829948425293 417.26788330078125" stroke-width="0.0" fill="rgb(49, 57, 23)" opacity="0.1122639" stroke="rgb(0, 0, 0)" stroke-opacity="1.0" stroke-linecap="round" stroke-linejoin="round"/>
    <path d="M 321.85076904296875 392.62799072265625 C 321.0620422363281 388.4874572753906 324.1144714355469 401.19805908203125 311.2475280761719 403.68609619140625 C 293.18902587890625 385.13775634765625 291.5906677246094 382.837158203125 322.56280517578125 434.4489440917969 C 299.3959045410156 489.90582275390625 206.20294189453125 468.13970947265625 270.41656494140625 401.7042541503906 C 372.6998596191406 395.93621826171875 341.8587646484375 374.73663330078125 321.85076904296875 392.62799072265625" stroke-width="0.0" fill="rgb(0, 0, 21)" opacity="1.0" stroke="rgb(0, 0, 0)" stroke-opacity="1.0" stroke-linecap="round" stroke-linejoin="round"/>
    <path d="M 414.7972412109375 75.09434509277344 C 422.23736572265625 61.35885238647461 434.8607177734375 26.758140563964844 408.2516784667969 116.9374008178711 C 413.8603210449219 167.8357696533203 394.6446228027344 123.24795532226562 362.99078369140625 112.15747833251953 C 371.2826843261719 89.8659896850586 389.9474182128906 68.31754302978516 445.7445068359375 89.54424285888672 C 429.52618408203125 107.40050506591797 443.1143493652344 65.48882293701172 414.7972412109375 75.09434509277344" stroke-width="0.0" fill="rgb(103, 122, 176)" opacity="0.6966111" stroke="rgb(0, 0, 0)" stroke-opacity="1.0" stroke-linecap="round" stroke-linejoin="round"/>
    <path d="M 188.875732421875 80.44271087646484 C 219.95046997070312 77.66393280029297 216.6089630126953 108.34193420410156 192.13528442382812 121.57542419433594 C 164.10107421875 126.7740249633789 148.72286987304688 125.69586944580078 124.5340347290039 81.33128356933594 C 89.62377166748047 -1.101616621017456 137.8153533935547 44.34721374511719 175.5037078857422 67.56968688964844 C 189.99615478515625 77.71472930908203 211.90159606933594 90.1279525756836 188.875732421875 80.44271087646484" stroke-width="0.0" fill="rgb(173, 180, 206)" opacity="0.9503719" stroke="rgb(0, 0, 0)" stroke-opacity="1.0" stroke-linecap="round" stroke-linejoin="round"/>
    <path d="M 558.2958984375 491.0041198730469 C 552.1126708984375 506.7662353515625 544.8934326171875 496.1883239746094 498.2292175292969 491.3361511230469 C 502.15765380859375 468.69964599609375 496.55609130859375 477.10809326171875 518.447021484375 447.92413330078125 C 480.95574951171875 434.2828063964844 501.8746337890625 421.5152282714844 531.6832275390625 425.44500732421875 C 524.2904663085938 425.6336975097656 529.3707275390625 430.8746337890625 558.2958984375 491.0041198730469" stroke-width="0.0" fill="rgb(240, 243, 252)" opacity="0.0287211" stroke="rgb(0, 0, 0)" stroke-opacity="1.0" stroke-linecap="round" stroke-linejoin="round"/>
    <path d="M 381.8887023925781 225.31488037109375 C 391.4438781738281 243.98788452148438 372.0179138183594 269.9427795410156 337.9572448730469 269.72955322265625 C 343.31805419921875 223.50491333007812 331.9552001953125 241.43148803710938 315.2232666015625 237.4631805419922 C 347.1609191894531 237.48599243164062 334.2080078125 236.45298767089844 341.1827087402344 263.3601379394531 C 386.0943908691406 235.9342041015625 344.5955810546875 220.17311096191406 381.8887023925781 225.31488037109375" stroke-width="0.0" fill="rgb(0, 0, 22)" opacity="1.0" stroke="rgb(0, 0, 0)" stroke-opacity="1.0" stroke-linecap="round" stroke-linejoin="round"/>
    <path d="M 470.90887451171875 434.0522766113281 C 467.4638366699219 429.1402282714844 452.1662902832031 428.1001892089844 433.278076171875 454.53741455078125 C 426.5789489746094 433.8606872558594 449.0390319824219 407.8904724121094 426.37615966796875 387.6587219238281 C 406.4589538574219 354.57049560546875 412.142822265625 354.94219970703125 428.0296936035156 393.2807312011719 C 462.752685546875 408.7095031738281 480.1880187988281 403.6617431640625 470.90887451171875 434.0522766113281" stroke-width="0.0" fill="rgb(254, 255, 255)" opacity="0.8970761" stroke="rgb(0, 0, 0)" stroke-opacity="1.0" stroke-linecap="round" stroke-linejoin="round"/>
    <path d="M 190.09759521484375 425.25128173828125 C 184.1787567138672 427.9834289550781 165.2243194580078 435.28240966796875 160.85604858398438 426.24993896484375 C 131.2777557373047 417.79498291015625 130.68096923828125 415.1106262207031 160.30239868164062 421.8833923339844 C 158.28701782226562 407.01397705078125 156.98916625976562 383.8263854980469 170.066650390625 383.685791015625 C 178.32998657226562 382.07867431640625 183.38978576660156 393.0169982910156 190.09759521484375 425.25128173828125" stroke-width="0.0" fill="rgb(255, 255, 255)" opacity="1.0" stroke="rgb(0, 0, 0)" stroke-opacity="1.0" stroke-linecap="round" stroke-linejoin="round"/>
    <path d="M 421.51263427734375 374.0794372558594 C 432.7264404296875 390.6956787109375 438.37030029296875 397.26983642578125 435.57958984375 416.07427978515625 C 416.3896484375 394.84429931640625 434.6311340332031 348.7968444824219 415.7527160644531 319.6670227050781 C 359.2096252441406 291.9410095214844 346.3245849609375 234.1905059814453 470.8024597167969 259.97344970703125 C 486.9635925292969 349.8650817871094 425.69183349609375 318.5240173339844 421.51263427734375 374.0794372558594" stroke-width="0.0" fill="rgb(189, 204, 218)" opacity="1.0" stroke="rgb(0, 0, 0)" stroke-opacity="1.0" stroke-linecap="round" stroke-linejoin="round"/>
    <path d="M 133.39520263671875 107.55118560791016 C 146.44970703125 131.85787963867188 146.71026611328125 113.02336120605469 136.8469696044922 129.51495361328125 C 105.50533294677734 131.20590209960938 106.81179809570312 106.00133514404297 87.11077117919922 88.35179138183594 C 54.50300216674805 40.575660705566406 55.81840133666992 50.2707405090332 85.19093322753906 76.95001983642578 C 98.06605529785156 95.46265411376953 115.39306640625 97.0926742553711 133.39520263671875 107.55118560791016" stroke-width="0.0" fill="rgb(64, 93, 93)" opacity="0.86711687" stroke="rgb(0, 0, 0)" stroke-opacity="1.0" stroke-linecap="round" stroke-linejoin="round"/>
    <path d="M 349.2102355957031 370.2314758300781 C 326.1644287109375 384.6788330078125 302.769775390625 388.4331359863281 308.1680908203125 446.18585205078125 C 346.9286804199219 453.3473205566406 333.0083312988281 398.1119689941406 375.46240234375 349.2720642089844 C 353.5579528808594 333.55841064453125 337.4379577636719 367.5643615722656 334.8972473144531 377.0827331542969 C 327.564697265625 396.0390625 345.0609436035156 380.5730895996094 349.2102355957031 370.2314758300781" stroke-width="0.0" fill="rgb(0, 4, 105)" opacity="1.0" stroke="rgb(0, 0, 0)" stroke-opacity="1.0" stroke-linecap="round" stroke-linejoin="round"/>
    <path d="M 152.1935272216797 338.9635925292969 C 148.966064453125 361.5676574707031 121.42593383789062 382.7062072753906 94.93536376953125 422.6078186035156 C 36.135772705078125 437.1533203125 25.34332275390625 422.73712158203125 -6.960783004760742 292.370849609375 C 56.196258544921875 309.0499267578125 61.82143783569336 347.75128173828125 110.43601989746094 359.6051025390625 C 112.97848510742188 363.3011169433594 127.65894317626953 350.54541015625 152.1935272216797 338.9635925292969" stroke-width="0.0" fill="rgb(170, 169, 219)" opacity="1.0" stroke="rgb(0, 0, 0)" stroke-opacity="1.0" stroke-linecap="round" stroke-linejoin="round"/>
    <path d="M 277.40814208984375 100.03306579589844 C 272.1224365234375 173.7127685546875 284.7518005371094 170.0817108154297 273.2311706542969 152.84683227539062 C 246.2255096435547 141.70933532714844 255.5171356201172 138.97940063476562 267.0273132324219 142.29783630371094 C 280.4491882324219 149.77825927734375 274.59759521484375 143.9005126953125 279.5460205078125 96.92494201660156 C 273.28802490234375 90.50811004638672 281.6030578613281 66.96733856201172 277.40814208984375 100.03306579589844" stroke-width="0.0" fill="rgb(22, 34, 55)" opacity="0.7072504" stroke="rgb(0, 0, 0)" stroke-opacity="1.0" stroke-linecap="round" stroke-linejoin="round"/>
    <path d="M 431.1456298828125 72.42632293701172 C 415.47540283203125 89.76673126220703 403.7088928222656 107.93034362792969 409.82373046875 96.2329330444336 C 418.8267517089844 84.86782836914062 431.2984924316406 88.45022583007812 422.4093933105469 101.69044494628906 C 413.9190673828125 76.15098571777344 430.5456237792969 72.31838989257812 429.4576110839844 71.52857208251953 C 428.89727783203125 78.41104888916016 433.4949951171875 76.39968872070312 431.1456298828125 72.42632293701172" stroke-width="0.0" fill="rgb(115, 156, 200)" opacity="0.6718858" stroke="rgb(0, 0, 0)" stroke-opacity="1.0" stroke-linecap="round" stroke-linejoin="round"/>
    <path d="M 130.0064239501953 135.11048889160156 C 113.30326080322266 153.3389434814453 92.03730010986328 160.6653289794922 81.9616928100586 133.35179138183594 C 83.4017105102539 86.36214447021484 100.69075012207031 103.96676635742188 101.56793975830078 117.98748779296875 C 86.00428771972656 88.621826171875 66.56486511230469 52.217628479003906 81.449462890625 78.5387191772461 C 130.9290008544922 109.59717559814453 154.80296325683594 117.66831970214844 130.0064239501953 135.11048889160156" stroke-width="0.0" fill="rgb(70, 92, 96)" opacity="1.0" stroke="rgb(0, 0, 0)" stroke-opacity="1.0" stroke-linecap="round" stroke-linejoin="round"/>
    <path d="M 543.3350830078125 462.32232666015625 C 520.4595336914062 517.4486083984375 511.7738037109375 524.1069946289062 457.0818176269531 553.8328247070312 C 440.94805908203125 549.18212890625 452.4316101074219 539.6876220703125 457.0056457519531 481.243408203125 C 461.7709045410156 474.62969970703125 487.09716796875 489.3567810058594 518.7274780273438 472.6776123046875 C 538.6293334960938 448.5643005371094 548.5569458007812 444.47247314453125 543.3350830078125 462.32232666015625" stroke-width="0.0" fill="rgb(190, 205, 212)" opacity="0.064117074" stroke="rgb(0, 0, 0)" stroke-opacity="1.0" stroke-linecap="round" stroke-linejoin="round"/>
    <path d="M 261.56976318359375 294.09173583984375 C 280.1241760253906 288.5991516113281 273.45172119140625 316.61541748046875 276.6092224121094 319.8032531738281 C 260.1521301269531 305.9841613769531 239.66612243652344 284.71917724609375 237.57186889648438 290.94403076171875 C 265.1220703125 304.9605712890625 277.0953674316406 304.5118408203125 273.6936950683594 315.5039367675781 C 265.09686279296875 311.81805419921875 255.7283477783203 308.69378662109375 261.56976318359375 294.09173583984375" stroke-width="0.0" fill="rgb(75, 94, 41)" opacity="0.0" stroke="rgb(0, 0, 0)" stroke-opacity="1.0" stroke-linecap="round" stroke-linejoin="round"/>
    <path d="M 417.0367431640625 152.34707641601562 C 420.4289245605469 169.02227783203125 448.4615173339844 182.9886016845703 434.3902893066406 204.93283081054688 C 395.68780517578125 174.408935546875 385.3435363769531 162.44993591308594 378.96856689453125 144.82594299316406 C 400.5445556640625 147.38519287109375 400.72802734375 148.498291015625 411.90777587890625 144.52874755859375 C 413.96710205078125 144.65403747558594 413.4010009765625 158.57730102539062 417.0367431640625 152.34707641601562" stroke-width="0.0" fill="rgb(0, 1, 34)" opacity="0.99528635" stroke="rgb(0, 0, 0)" stroke-opacity="1.0" stroke-linecap="round" stroke-linejoin="round"/>
    <path d="M 459.4095153808594 494.8203430175781 C 447.9929504394531 538.4324951171875 457.570556640625 535.771240234375 437.907470703125 539.9879150390625 C 429.7875061035156 531.984619140625 436.36297607421875 521.6660766601562 454.0018310546875 517.897216796875 C 465.6020202636719 476.32965087890625 446.00311279296875 460.3128662109375 441.755615234375 450.61328125 C 450.9039001464844 461.81378173828125 457.33544921875 478.70172119140625 459.4095153808594 494.8203430175781" stroke-width="0.0" fill="rgb(147, 152, 150)" opacity="0.47273636" stroke="rgb(0, 0, 0)" stroke-opacity="1.0" stroke-linecap="round" stroke-linejoin="round"/>
    <path d="M 461.6449890136719 -9.579440116882324 C 459.77423095703125 20.885324478149414 456.2220458984375 33.02614212036133 457.5611572265625 27.731098175048828 C 482.5420837402344 17.03502655029297 424.9643249511719 36.11452102661133 413.2925109863281 23.549524307250977 C 441.4780578613281 -9.985175132751465 455.1374816894531 -12.330098152160645 458.4585266113281 -21.3474178314209 C 474.8860168457031 -14.387734413146973 486.1815185546875 -6.34412956237793 461.6449890136719 -9.579440116882324" stroke-width="0.0" fill="rgb(0, 0, 27)" opacity="1.0" stroke="rgb(0, 0, 0)" stroke-opacity="1.0" stroke-linecap="round" stroke-linejoin="round"/>
    <path d="M 198.17140197753906 249.61495971679688 C 212.9967803955078 266.55633544921875 197.38192749023438 266.62664794921875 185.47837829589844 261.07366943359375 C 177.48501586914062 256.8973083496094 169.0711669921875 243.73428344726562 171.1302032470703 246.14498901367188 C 168.95372009277344 247.6267852783203 174.052978515625 243.8096923828125 181.4203643798828 244.9355926513672 C 176.53970336914062 243.7290802001953 191.37351989746094 242.51329040527344 198.17140197753906 249.61495971679688" stroke-width="0.0" fill="rgb(255, 255, 0)" opacity="1.0" stroke="rgb(0, 0, 0)" stroke-opacity="1.0" stroke-linecap="round" stroke-linejoin="round"/>
    <path d="M 226.85336303710938 424.8346252441406 C 256.868408203125 443.6719055175781 190.25424194335938 392.6697692871094 204.82867431640625 472.88970947265625 C 163.7104949951172 479.29608154296875 163.23313903808594 465.1774597167969 151.51173400878906 406.9514465332031 C 157.47772216796875 352.8346252441406 169.8052520751953 366.1396179199219 205.7454376220703 429.80487060546875 C 199.88661193847656 383.3341064453125 226.9488067626953 328.8409423828125 226.85336303710938 424.8346252441406" stroke-width="0.0" fill="rgb(255, 255, 253)" opacity="0.41416556" stroke="rgb(0, 0, 0)" stroke-opacity="1.0" stroke-linecap="round" stroke-linejoin="round"/>
    <path d="M 194.00099182128906 249.18064880371094 C 214.6064910888672 272.69305419921875 200.8925018310547 268.150634765625 180.2812957763672 246.43833923339844 C 192.18081665039062 250.7767791748047 169.3476104736328 242.69921875 170.8916015625 245.87632751464844 C 176.03187561035156 251.2432403564453 174.86224365234375 251.1584930419922 182.3008270263672 245.78941345214844 C 174.16493225097656 251.60726928710938 176.4515838623047 235.3685760498047 194.00099182128906 249.18064880371094" stroke-width="0.0" fill="rgb(255, 255, 0)" opacity="0.83277124" stroke="rgb(0, 0, 0)" stroke-opacity="1.0" stroke-linecap="round" stroke-linejoin="round"/>
    <path d="M 166.76943969726562 371.54571533203125 C 200.2259979248047 358.1663818359375 181.1971435546875 332.42547607421875 130.60948181152344 314.8987121582031 C 162.35678100585938 385.181640625 181.65786743164062 410.793212890625 204.93215942382812 407.549072265625 C 189.26129150390625 346.1266784667969 179.83328247070312 357.8650207519531 177.3349151611328 347.80340576171875 C 165.2601318359375 345.3653869628906 159.4850616455078 343.0653991699219 166.76943969726562 371.54571533203125" stroke-width="0.0" fill="rgb(0, 0, 27)" opacity="1.0" stroke="rgb(0, 0, 0)" stroke-opacity="1.0" stroke-linecap="round" stroke-linejoin="round"/>
    <path d="M 57.35175704956055 437.4975891113281 C 65.61834716796875 464.1840515136719 51.25275421142578 454.3023986816406 58.951080322265625 470.6393737792969 C 76.31831359863281 462.7817687988281 55.91905212402344 455.7291564941406 56.50398254394531 430.1791076660156 C 50.68400955200195 432.984619140625 57.44511795043945 426.6038818359375 48.612491607666016 436.51312255859375 C 72.84333038330078 437.92828369140625 79.58978271484375 438.84814453125 57.35175704956055 437.4975891113281" stroke-width="0.0" fill="rgb(255, 217, 223)" opacity="0.0" stroke="rgb(0, 0, 0)" stroke-opacity="1.0" stroke-linecap="round" stroke-linejoin="round"/>
    <path d="M 468.09051513671875 420.1545715332031 C 455.5497741699219 467.3848876953125 466.7605285644531 504.43499755859375 455.79669189453125 491.23333740234375 C 440.1015319824219 460.1651916503906 433.1021423339844 432.8774719238281 437.0705261230469 442.3504943847656 C 438.2874755859375 456.6296081542969 438.0185241699219 429.2456970214844 449.5294189453125 446.77618408203125 C 419.0940856933594 425.08343505859375 486.0899658203125 430.5498352050781 468.09051513671875 420.1545715332031" stroke-width="0.0" fill="rgb(252, 254, 254)" opacity="0.7836409" stroke="rgb(0, 0, 0)" stroke-opacity="1.0" stroke-linecap="round" stroke-linejoin="round"/>
    <path d="M 450.0508728027344 388.3987121582031 C 492.30133056640625 402.6612548828125 486.5775146484375 409.6703186035156 430.7907409667969 404.0573425292969 C 419.1310119628906 413.4771728515625 418.4644775390625 382.7078857421875 410.03375244140625 346.041259765625 C 402.48065185546875 349.7502746582031 411.0874328613281 351.7263488769531 422.1651611328125 362.0755310058594 C 428.3687438964844 359.9144287109375 438.4203186035156 370.97137451171875 450.0508728027344 388.3987121582031" stroke-width="0.0" fill="rgb(189, 248, 254)" opacity="0.011072746" stroke="rgb(0, 0, 0)" stroke-opacity="1.0" stroke-linecap="round" stroke-linejoin="round"/>
    <path d="M 53.12483596801758 138.7598419189453 C 44.591339111328125 148.90841674804688 23.96508026123047 132.28793334960938 9.97127628326416 151.25457763671875 C 2.108276844024658 148.41783142089844 12.031051635742188 129.8489532470703 24.804752349853516 98.74861145019531 C 21.439464569091797 82.18596649169922 12.961599349975586 80.27153015136719 28.87129020690918 79.62776947021484 C 62.100852966308594 95.3440933227539 63.399497985839844 109.98565673828125 53.12483596801758 138.7598419189453" stroke-width="0.0" fill="rgb(223, 247, 165)" opacity="0.0012105552" stroke="rgb(0, 0, 0)" stroke-opacity="1.0" stroke-linecap="round" stroke-linejoin="round"/>
    <path d="M 80.7069091796875 472.4771728515625 C 88.94003295898438 504.9666748046875 87.55318450927734 497.8680419921875 33.08235549926758 499.6362609863281 C 11.528396606445312 496.42327880859375 5.033348083496094 462.1759033203125 11.852507591247559 444.77655029296875 C 5.232348442077637 433.8256530761719 -3.522777795791626 434.1756896972656 19.750930786132812 427.1141357421875 C 59.9508056640625 437.2822265625 73.8965072631836 443.0748291015625 80.7069091796875 472.4771728515625" stroke-width="0.0" fill="rgb(254, 253, 137)" opacity="0.008995449" stroke="rgb(0, 0, 0)" stroke-opacity="1.0" stroke-linecap="round" stroke-linejoin="round"/>
    <path d="M 100.75305938720703 248.69338989257812 C 120.24925231933594 249.4222412109375 133.40997314453125 239.142333984375 156.64529418945312 256.1640930175781 C 144.7768096923828 248.36753845214844 115.79045867919922 244.9351806640625 93.51607513427734 230.13966369628906 C 123.62529754638672 250.36834716796875 119.35016632080078 247.37039184570312 123.91081237792969 246.50283813476562 C 123.03976440429688 238.000244140625 99.0849609375 239.13784790039062 100.75305938720703 248.69338989257812" stroke-width="0.0" fill="rgb(228, 242, 217)" opacity="0.7331505" stroke="rgb(0, 0, 0)" stroke-opacity="1.0" stroke-linecap="round" stroke-linejoin="round"/>
    <path d="M 313.064208984375 19.680118560791016 C 318.0292663574219 40.6768913269043 294.9114685058594 45.259334564208984 262.4556579589844 30.58852767944336 C 246.47975158691406 34.35237121582031 252.5943145751953 25.338281631469727 243.70274353027344 10.743290901184082 C 240.09043884277344 -5.365394115447998 250.19381713867188 -25.18212890625 273.4942626953125 -19.74121856689453 C 294.0130615234375 -13.076041221618652 298.8165283203125 -0.6857930421829224 313.064208984375 19.680118560791016" stroke-width="0.0" fill="rgb(253, 248, 145)" opacity="0.0024103026" stroke="rgb(0, 0, 0)" stroke-opacity="1.0" stroke-linecap="round" stroke-linejoin="round"/>
    <path d="M 163.59239196777344 151.29554748535156 C 132.5810089111328 161.82437133789062 125.50393676757812 165.8351287841797 125.11561584472656 183.10171508789062 C 113.10658264160156 207.96405029296875 128.37161254882812 185.30081176757812 139.1208953857422 158.5370635986328 C 128.33786010742188 164.28802490234375 136.95919799804688 152.4346160888672 146.3600311279297 163.62960815429688 C 150.0206756591797 146.30043029785156 154.4307861328125 143.18663024902344 163.59239196777344 151.29554748535156" stroke-width="0.0" fill="rgb(125, 200, 68)" opacity="0.008012732" stroke="rgb(0, 0, 0)" stroke-opacity="1.0" stroke-linecap="round" stroke-linejoin="round"/>
    <path d="M 502.7394104003906 286.006591796875 C 505.3153076171875 295.23309326171875 473.6268310546875 303.48162841796875 474.76007080078125 258.2567138671875 C 434.6324768066406 253.58355712890625 424.7776794433594 259.7502136230469 448.8648986816406 262.0897216796875 C 478.0781555175781 274.4224853515625 479.374267578125 264.0107116699219 447.9206848144531 194.066162109375 C 462.24298095703125 221.92190551757812 475.4821472167969 240.4422607421875 502.7394104003906 286.006591796875" stroke-width="0.0" fill="rgb(0, 0, 30)" opacity="0.9994777" stroke="rgb(0, 0, 0)" stroke-opacity="1.0" stroke-linecap="round" stroke-linejoin="round"/>
    <path d="M 367.6595764160156 384.9578552246094 C 398.1279296875 413.8905029296875 406.707763671875 413.6593933105469 382.8955993652344 423.0711975097656 C 328.1566467285156 398.5885314941406 331.1888732910156 376.08612060546875 328.00421142578125 401.5007019042969 C 345.3072509765625 395.1106872558594 363.5591125488281 401.68682861328125 347.25408935546875 376.695556640625 C 347.502685546875 367.8589782714844 364.9489440917969 362.2919006347656 367.6595764160156 384.9578552246094" stroke-width="0.0" fill="rgb(151, 161, 135)" opacity="0.0" stroke="rgb(0, 0, 0)" stroke-opacity="1.0" stroke-linecap="round" stroke-linejoin="round"/>
    <path d="M 386.2585144042969 191.55758666992188 C 371.47161865234375 194.8048858642578 355.35662841796875 201.33621215820312 313.4917907714844 215.05650329589844 C 338.54217529296875 250.0392303466797 344.2249450683594 223.5929718017578 316.1872253417969 219.00390625 C 313.74835205078125 149.5260009765625 305.27203369140625 148.73374938964844 343.9192810058594 192.7453155517578 C 400.0506591796875 177.8649139404297 384.6737060546875 187.62228393554688 386.2585144042969 191.55758666992188" stroke-width="0.0" fill="rgb(255, 255, 203)" opacity="0.0" stroke="rgb(0, 0, 0)" stroke-opacity="1.0" stroke-linecap="round" stroke-linejoin="round"/>
    <path d="M 115.44229888916016 453.97589111328125 C 128.6388397216797 467.7889099121094 116.89540100097656 484.0815734863281 83.63349914550781 486.195068359375 C 68.10678100585938 472.07696533203125 74.42703247070312 452.960693359375 73.62902069091797 434.8782958984375 C 77.01333618164062 441.8541259765625 86.67359924316406 433.9847106933594 88.83991241455078 421.07452392578125 C 112.02876281738281 406.4403381347656 107.04597473144531 425.543701171875 115.44229888916016 453.97589111328125" stroke-width="0.0" fill="rgb(177, 248, 93)" opacity="0.00082310813" stroke="rgb(0, 0, 0)" stroke-opacity="1.0" stroke-linecap="round" stroke-linejoin="round"/>
    <path d="M 106.8697280883789 455.43341064453125 C 98.96778869628906 477.3152770996094 89.59332275390625 483.3008117675781 67.14116668701172 477.2388000488281 C 56.30101776123047 483.3230285644531 53.737823486328125 473.5414733886719 46.69723892211914 451.3588562011719 C 50.77030944824219 426.7521667480469 50.81459426879883 406.21649169921875 60.78115463256836 427.5265197753906 C 84.57791137695312 439.8881530761719 98.48653411865234 438.3309020996094 106.8697280883789 455.43341064453125" stroke-width="0.0" fill="rgb(255, 255, 93)" opacity="0.0033826758" stroke="rgb(0, 0, 0)" stroke-opacity="1.0" stroke-linecap="round" stroke-linejoin="round"/>
  </g>
</svg>
