<?xml version="1.0" ?>
<svg xmlns="http://www.w3.org/2000/svg" version="1.1" width="512" height="512">
  <defs/>
  <g>
    <path d="M 527.4367065429688 441.4530334472656 C 539.9406127929688 513.6859741210938 547.0262451171875 524.7042846679688 454.7978820800781 535.4257202148438 C 366.0628356933594 550.3599853515625 314.7429504394531 583.4456787109375 211.8419647216797 519.8829956054688 C 234.9785919189453 287.94537353515625 297.89007568359375 360.906494140625 481.271484375 344.6876220703125 C 556.5952758789062 320.3694152832031 553.3582153320312 339.2115783691406 527.4367065429688 441.4530334472656" stroke-width="0.0" fill="rgb(28, 84, 173)" opacity="0.9192327" stroke="rgb(0, 0, 0)" stroke-opacity="1.0" stroke-linecap="round" stroke-linejoin="round"/>
    <path d="M 284.5502014160156 454.58099365234375 C 146.97140502929688 424.8240051269531 300.481689453125 540.9036865234375 113.36865997314453 572.3416748046875 C -51.20000076293945 518.5575561523438 -51.20000076293945 507.9428405761719 -26.069629669189453 452.48968505859375 C -28.75945472717285 192.02818298339844 -27.109264373779297 181.384521484375 49.29106903076172 151.3628387451172 C 204.1588134765625 244.00135803222656 241.1433563232422 246.03562927246094 284.5502014160156 454.58099365234375" stroke-width="0.0" fill="rgb(0, 143, 149)" opacity="0.9181982" stroke="rgb(0, 0, 0)" stroke-opacity="1.0" stroke-linecap="round" stroke-linejoin="round"/>
    <path d="M 314.3289794921875 346.063232421875 C 238.49960327148438 470.42144775390625 289.3442077636719 468.2810974121094 234.39987182617188 461.6573486328125 C 92.34321594238281 318.7469177246094 111.01570892333984 267.44708251953125 76.85688018798828 152.2860565185547 C 12.978278160095215 164.43276977539062 34.78420639038086 159.81344604492188 72.19609832763672 177.57740783691406 C 204.14239501953125 209.169921875 151.74598693847656 244.5997314453125 314.3289794921875 346.063232421875" stroke-width="0.0" fill="rgb(24, 145, 172)" opacity="0.77817464" stroke="rgb(0, 0, 0)" stroke-opacity="1.0" stroke-linecap="round" stroke-linejoin="round"/>
    <path d="M 267.863037109375 -10.708117485046387 C 223.52845764160156 160.7681884765625 187.77818298339844 170.00607299804688 -3.6796247959136963 209.79010009765625 C -13.547334671020508 199.5614471435547 -12.164852142333984 179.21206665039062 -16.593097686767578 34.25429916381836 C -13.004427909851074 -13.631946563720703 -4.874516010284424 -18.456117630004883 24.976186752319336 -16.1602840423584 C 185.19146728515625 -17.893600463867188 202.89389038085938 -19.61880111694336 267.863037109375 -10.708117485046387" stroke-width="0.0" fill="rgb(19, 155, 161)" opacity="1.0" stroke="rgb(0, 0, 0)" stroke-opacity="1.0" stroke-linecap="round" stroke-linejoin="round"/>
    <path d="M 582.8522338867188 184.6609344482422 C 486.7901306152344 314.4674987792969 448.5105895996094 296.1699523925781 308.9509582519531 314.39764404296875 C 241.61439514160156 357.392822265625 210.83709716796875 381.0170593261719 225.5970458984375 191.0847930908203 C 213.76524353027344 31.148645401000977 198.181396484375 -9.670310974121094 415.3782958984375 -49.490657806396484 C 563.2000122070312 0.19759994745254517 563.2000122070312 17.676347732543945 582.8522338867188 184.6609344482422" stroke-width="0.0" fill="rgb(0, 0, 16)" opacity="1.0" stroke="rgb(0, 0, 0)" stroke-opacity="1.0" stroke-linecap="round" stroke-linejoin="round"/>
    <path d="M 323.99542236328125 52.03376007080078 C 277.85723876953125 286.8958435058594 285.3602600097656 302.29510498046875 236.8558349609375 253.61827087402344 C 102.04390716552734 194.836669921875 88.8331298828125 219.55581665039062 101.03721618652344 210.10128784179688 C 108.35871887207031 135.00225830078125 90.14579010009766 68.41473388671875 268.5841064453125 -40.341304779052734 C 413.193603515625 -6.397634029388428 416.32684326171875 -24.23874855041504 323.99542236328125 52.03376007080078" stroke-width="0.0" fill="rgb(10, 163, 169)" opacity="0.9996869" stroke="rgb(0, 0, 0)" stroke-opacity="1.0" stroke-linecap="round" stroke-linejoin="round"/>
    <path d="M 545.6881103515625 359.1297912597656 C 568.2418212890625 497.0298767089844 588.296142578125 499.98883056640625 324.1951904296875 515.7435913085938 C 284.6744384765625 418.39959716796875 262.7845458984375 427.9580383300781 258.10479736328125 355.0179443359375 C 191.02317810058594 228.6552734375 261.4200134277344 217.1251220703125 333.6746520996094 212.68771362304688 C 442.55010986328125 248.13218688964844 459.5141296386719 244.95323181152344 545.6881103515625 359.1297912597656" stroke-width="0.0" fill="rgb(255, 215, 0)" opacity="1.0" stroke="rgb(0, 0, 0)" stroke-opacity="1.0" stroke-linecap="round" stroke-linejoin="round"/>
    <path d="M 530.5228881835938 218.71188354492188 C 552.5086059570312 323.8499450683594 566.689697265625 363.5838623046875 513.4015502929688 407.2069396972656 C 344.2577819824219 399.9612731933594 371.5944519042969 357.0536804199219 379.3439636230469 189.70217895507812 C 364.5411682128906 54.39674377441406 318.2334289550781 -45.6581916809082 493.1795349121094 110.93327331542969 C 533.7432861328125 139.2132568359375 526.296142578125 148.27944946289062 530.5228881835938 218.71188354492188" stroke-width="0.0" fill="rgb(25, 156, 174)" opacity="1.0" stroke="rgb(0, 0, 0)" stroke-opacity="1.0" stroke-linecap="round" stroke-linejoin="round"/>
    <path d="M 290.7578125 221.17181396484375 C 253.69712829589844 250.31883239746094 288.7968444824219 261.3603210449219 302.64739990234375 287.31158447265625 C 254.79019165039062 297.8561096191406 275.0343322753906 281.8572692871094 173.64439392089844 278.4879150390625 C 139.48158264160156 149.61166381835938 132.89361572265625 84.5322265625 324.33154296875 82.2728271484375 C 314.01861572265625 209.65673828125 309.8890380859375 239.8054962158203 290.7578125 221.17181396484375" stroke-width="0.0" fill="rgb(252, 176, 12)" opacity="0.96210515" stroke="rgb(0, 0, 0)" stroke-opacity="1.0" stroke-linecap="round" stroke-linejoin="round"/>
    <path d="M 463.22967529296875 385.2205810546875 C 342.0945739746094 340.9750061035156 365.586669921875 245.7179412841797 354.4611511230469 227.63998413085938 C 351.2197265625 208.2508087158203 356.7377014160156 223.13751220703125 351.20599365234375 232.18478393554688 C 359.16094970703125 211.11572265625 350.1482238769531 183.53062438964844 345.2322998046875 48.19076156616211 C 419.8802490234375 77.4616470336914 483.9333190917969 36.44337844848633 463.22967529296875 385.2205810546875" stroke-width="0.0" fill="rgb(22, 156, 177)" opacity="1.0" stroke="rgb(0, 0, 0)" stroke-opacity="1.0" stroke-linecap="round" stroke-linejoin="round"/>
    <path d="M 247.65879821777344 225.03271484375 C 228.29678344726562 271.5625 239.25360107421875 275.95574951171875 208.45925903320312 299.20770263671875 C 211.68421936035156 302.61798095703125 192.08114624023438 287.1651916503906 97.65821838378906 241.8515625 C 104.34037780761719 148.5518341064453 114.12928771972656 123.10449981689453 144.4180145263672 158.69091796875 C 156.25213623046875 275.5553894042969 302.5318908691406 179.74855041503906 247.65879821777344 225.03271484375" stroke-width="0.0" fill="rgb(12, 160, 169)" opacity="0.9999622" stroke="rgb(0, 0, 0)" stroke-opacity="1.0" stroke-linecap="round" stroke-linejoin="round"/>
    <path d="M 431.2521057128906 318.6917419433594 C 414.3635559082031 333.7808837890625 390.87432861328125 290.9884033203125 414.0238037109375 536.7998657226562 C 144.76028442382812 519.6583251953125 283.1459045410156 446.03125 334.8479919433594 334.3138732910156 C 359.6431884765625 152.86050415039062 348.0802307128906 115.01390838623047 351.6597900390625 194.32028198242188 C 411.5670166015625 205.09396362304688 444.67388916015625 246.87432861328125 431.2521057128906 318.6917419433594" stroke-width="0.0" fill="rgb(255, 218, 1)" opacity="1.0" stroke="rgb(0, 0, 0)" stroke-opacity="1.0" stroke-linecap="round" stroke-linejoin="round"/>
    <path d="M 543.5405883789062 89.51210021972656 C 566.1170654296875 156.657958984375 584.6797485351562 235.7186737060547 509.8800354003906 247.989990234375 C 450.00567626953125 110.57915496826172 398.9088134765625 85.1662826538086 317.8043518066406 24.57159996032715 C 377.1497497558594 -43.693843841552734 417.0111083984375 -29.600353240966797 471.86761474609375 -13.894887924194336 C 526.5424194335938 -25.264432907104492 525.5165405273438 -11.774806022644043 543.5405883789062 89.51210021972656" stroke-width="0.0" fill="rgb(18, 149, 154)" opacity="1.0" stroke="rgb(0, 0, 0)" stroke-opacity="1.0" stroke-linecap="round" stroke-linejoin="round"/>
    <path d="M 382.3458557128906 47.131996154785156 C 332.3702087402344 43.223114013671875 345.923095703125 -37.13581085205078 318.6259765625 16.312990188598633 C 344.3551025390625 71.09427642822266 373.4049072265625 55.6484375 365.7198791503906 53.85999298095703 C 352.6947937011719 31.51596450805664 350.2556457519531 37.17953109741211 344.3007507324219 38.3697509765625 C 344.9031677246094 76.41157531738281 403.7618408203125 75.26331329345703 382.3458557128906 47.131996154785156" stroke-width="0.0" fill="rgb(255, 52, 22)" opacity="0.99888474" stroke="rgb(0, 0, 0)" stroke-opacity="1.0" stroke-linecap="round" stroke-linejoin="round"/>
    <path d="M 454.673583984375 431.9101867675781 C 481.1436462402344 439.2668762207031 470.788330078125 460.9602355957031 486.8160705566406 396.6581115722656 C 467.5624084472656 403.6981506347656 460.181640625 391.9578552246094 378.0118103027344 381.22393798828125 C 368.2113952636719 327.32318115234375 414.86981201171875 342.0740051269531 417.1076965332031 345.39208984375 C 435.542236328125 406.6459655761719 444.27679443359375 424.7166442871094 454.673583984375 431.9101867675781" stroke-width="0.0" fill="rgb(0, 149, 204)" opacity="1.0" stroke="rgb(0, 0, 0)" stroke-opacity="1.0" stroke-linecap="round" stroke-linejoin="round"/>
    <path d="M 341.64312744140625 392.27069091796875 C 315.55120849609375 459.3222351074219 310.7591857910156 492.0749206542969 269.02227783203125 522.2366333007812 C 228.8424835205078 487.93359375 220.70587158203125 455.6334533691406 230.9040069580078 429.0239562988281 C 252.84597778320312 403.761474609375 279.0523986816406 361.79241943359375 283.4541320800781 349.5730895996094 C 319.60186767578125 354.45074462890625 225.5107421875 412.50225830078125 341.64312744140625 392.27069091796875" stroke-width="0.0" fill="rgb(255, 206, 23)" opacity="1.0" stroke="rgb(0, 0, 0)" stroke-opacity="1.0" stroke-linecap="round" stroke-linejoin="round"/>
    <path d="M 510.70574951171875 424.134521484375 C 469.07891845703125 522.6569213867188 431.0046691894531 500.4570007324219 393.04656982421875 539.8903198242188 C 316.7489929199219 518.7457275390625 293.7265625 539.977783203125 310.4441223144531 520.2109985351562 C 456.2838134765625 542.2394409179688 462.0290832519531 442.9474792480469 422.0393981933594 390.82855224609375 C 479.4302062988281 376.6541748046875 506.2845153808594 356.6747131347656 510.70574951171875 424.134521484375" stroke-width="0.0" fill="rgb(22, 157, 175)" opacity="0.99213266" stroke="rgb(0, 0, 0)" stroke-opacity="1.0" stroke-linecap="round" stroke-linejoin="round"/>
    <path d="M 565.2044067382812 452.7713317871094 C 552.6747436523438 481.85760498046875 556.4514770507812 506.758544921875 425.3546447753906 591.4662475585938 C 375.7617492675781 523.0711059570312 437.4614562988281 479.6374816894531 472.06158447265625 423.4801330566406 C 496.4171447753906 375.08441162109375 520.8104248046875 400.9375 526.3682861328125 188.71005249023438 C 551.3198852539062 217.5569610595703 558.4954223632812 318.2667541503906 565.2044067382812 452.7713317871094" stroke-width="0.0" fill="rgb(27, 160, 165)" opacity="1.0" stroke="rgb(0, 0, 0)" stroke-opacity="1.0" stroke-linecap="round" stroke-linejoin="round"/>
    <path d="M 266.1847839355469 379.5351257324219 C 200.92233276367188 378.13360595703125 221.72171020507812 389.34686279296875 228.37132263183594 400.5469970703125 C 226.3269805908203 386.2520751953125 231.7550048828125 339.20526123046875 237.80397033691406 310.86737060546875 C 260.55584716796875 338.84588623046875 212.26309204101562 318.552734375 259.369140625 337.71881103515625 C 292.56854248046875 333.8405456542969 287.96929931640625 391.95050048828125 266.1847839355469 379.5351257324219" stroke-width="0.0" fill="rgb(6, 4, 67)" opacity="1.0" stroke="rgb(0, 0, 0)" stroke-opacity="1.0" stroke-linecap="round" stroke-linejoin="round"/>
    <path d="M 8.017446517944336 523.0326538085938 C 17.174198150634766 520.413330078125 10.538132667541504 527.49951171875 0.7022038698196411 530.6587524414062 C -9.364206314086914 527.7437133789062 -16.68471336364746 520.4232177734375 -19.364206314086914 510.4232177734375 C -16.684417724609375 500.4241638183594 -9.341285705566406 493.1831359863281 -12.042186737060547 503.2685241699219 C -3.677582263946533 507.53009033203125 3.6094553470611572 514.7254638671875 8.017446517944336 523.0326538085938" stroke-width="0.0" fill="rgb(29, 3, 0)" opacity="0.113359906" stroke="rgb(0, 0, 0)" stroke-opacity="1.0" stroke-linecap="round" stroke-linejoin="round"/>
    <path d="M 347.38775634765625 407.5812683105469 C 292.0639343261719 399.2618103027344 320.667724609375 383.16949462890625 323.78240966796875 482.52642822265625 C 359.0584411621094 509.8631591796875 313.16094970703125 423.3119812011719 316.8699951171875 403.34649658203125 C 310.8438720703125 421.04345703125 356.05926513671875 407.5885009765625 342.97686767578125 421.7782897949219 C 300.76544189453125 405.3904113769531 332.5418701171875 430.78094482421875 347.38775634765625 407.5812683105469" stroke-width="0.0" fill="rgb(18, 7, 14)" opacity="0.945045" stroke="rgb(0, 0, 0)" stroke-opacity="1.0" stroke-linecap="round" stroke-linejoin="round"/>
    <path d="M 301.798095703125 288.7076110839844 C 358.7299499511719 292.5823059082031 346.3518981933594 279.4578552246094 347.61883544921875 344.3981018066406 C 294.7969665527344 336.6395263671875 320.96051025390625 358.1680908203125 312.8147888183594 298.7187805175781 C 353.1466979980469 296.5220031738281 355.4918212890625 270.1427307128906 314.5965270996094 302.7449951171875 C 284.2044677734375 301.45697021484375 311.2286071777344 300.8136901855469 301.798095703125 288.7076110839844" stroke-width="0.0" fill="rgb(9, 0, 51)" opacity="0.99930716" stroke="rgb(0, 0, 0)" stroke-opacity="1.0" stroke-linecap="round" stroke-linejoin="round"/>
    <path d="M 268.25732421875 402.8762512207031 C 286.78289794921875 406.97625732421875 306.42266845703125 422.1109619140625 267.253662109375 415.1393737792969 C 233.5507049560547 414.4017639160156 247.07460021972656 399.23583984375 266.4794616699219 392.0488586425781 C 238.17701721191406 394.8825378417969 260.7228698730469 396.71661376953125 320.48193359375 382.7965393066406 C 282.7479248046875 371.50384521484375 277.5571594238281 394.2435607910156 268.25732421875 402.8762512207031" stroke-width="0.0" fill="rgb(254, 232, 48)" opacity="0.13369213" stroke="rgb(0, 0, 0)" stroke-opacity="1.0" stroke-linecap="round" stroke-linejoin="round"/>
    <path d="M 309.3584899902344 91.94113159179688 C 290.6563720703125 90.91748046875 291.9861145019531 82.35704040527344 312.6859436035156 90.37936401367188 C 293.0482482910156 95.38134002685547 253.9238739013672 78.93502807617188 228.91600036621094 95.47767639160156 C 203.9849090576172 86.2504653930664 225.7120819091797 80.23212432861328 280.7789306640625 84.18659973144531 C 307.1671447753906 72.2145767211914 306.8937072753906 94.76590728759766 309.3584899902344 91.94113159179688" stroke-width="0.0" fill="rgb(131, 104, 118)" opacity="0.7809596" stroke="rgb(0, 0, 0)" stroke-opacity="1.0" stroke-linecap="round" stroke-linejoin="round"/>
    <path d="M 322.2668762207031 417.541748046875 C 314.901611328125 382.587158203125 292.1845397949219 403.450927734375 337.77398681640625 547.562255859375 C 366.18841552734375 421.4660339355469 370.62469482421875 392.2023620605469 323.36077880859375 399.42767333984375 C 308.2160339355469 400.69818115234375 313.5312194824219 411.061767578125 305.8338623046875 394.75848388671875 C 316.4236755371094 416.05975341796875 309.6277160644531 421.6203308105469 322.2668762207031 417.541748046875" stroke-width="0.0" fill="rgb(4, 5, 46)" opacity="0.99911636" stroke="rgb(0, 0, 0)" stroke-opacity="1.0" stroke-linecap="round" stroke-linejoin="round"/>
    <path d="M 388.71466064453125 80.41573333740234 C 407.71282958984375 66.23741149902344 405.5766906738281 71.54293060302734 373.1192626953125 57.36989212036133 C 365.8546447753906 56.60557174682617 354.838623046875 78.87528228759766 367.3355712890625 85.80937194824219 C 395.0526123046875 88.64256286621094 414.8284912109375 64.41630554199219 388.3696594238281 55.65639877319336 C 371.50714111328125 49.748634338378906 371.8161926269531 88.66022491455078 388.71466064453125 80.41573333740234" stroke-width="0.0" fill="rgb(205, 102, 74)" opacity="0.02187988" stroke="rgb(0, 0, 0)" stroke-opacity="1.0" stroke-linecap="round" stroke-linejoin="round"/>
    <path d="M 320.79095458984375 142.4311065673828 C 317.5323791503906 190.39053344726562 332.3980407714844 211.3884735107422 279.1811218261719 240.90133666992188 C 137.44882202148438 224.9556121826172 126.65308380126953 212.87054443359375 221.21194458007812 180.86744689941406 C 275.92657470703125 182.58917236328125 241.95437622070312 214.77862548828125 288.4563293457031 154.890869140625 C 313.468505859375 154.42361450195312 307.0138854980469 156.8886260986328 320.79095458984375 142.4311065673828" stroke-width="0.0" fill="rgb(255, 255, 255)" opacity="1.0" stroke="rgb(0, 0, 0)" stroke-opacity="1.0" stroke-linecap="round" stroke-linejoin="round"/>
    <path d="M 242.0433807373047 414.07232666015625 C 257.6837158203125 443.74859619140625 236.6505889892578 405.0643615722656 238.40985107421875 424.2371520996094 C 235.96644592285156 425.67022705078125 214.6282196044922 416.3179931640625 208.36141967773438 395.733154296875 C 220.18333435058594 363.10845947265625 202.7276611328125 372.4817199707031 230.44798278808594 397.3251037597656 C 251.22618103027344 417.4920349121094 235.17808532714844 400.6452941894531 242.0433807373047 414.07232666015625" stroke-width="0.0" fill="rgb(255, 89, 78)" opacity="0.8986594" stroke="rgb(0, 0, 0)" stroke-opacity="1.0" stroke-linecap="round" stroke-linejoin="round"/>
    <path d="M 353.0643615722656 265.35986328125 C 351.1791076660156 275.011474609375 357.59967041015625 266.7119140625 358.14263916015625 289.3935852050781 C 362.8056335449219 352.8686218261719 368.06854248046875 349.40338134765625 311.3334045410156 330.5178527832031 C 321.905029296875 245.3937530517578 318.3531799316406 200.50634765625 330.78924560546875 181.47828674316406 C 356.9117736816406 198.4609832763672 349.2490234375 217.9551544189453 353.0643615722656 265.35986328125" stroke-width="0.0" fill="rgb(0, 0, 16)" opacity="1.0" stroke="rgb(0, 0, 0)" stroke-opacity="1.0" stroke-linecap="round" stroke-linejoin="round"/>
    <path d="M 225.85092163085938 391.6792907714844 C 225.5639190673828 392.2904052734375 252.99417114257812 419.6998596191406 211.04818725585938 402.3437805175781 C 198.8741912841797 388.0753479003906 186.2568359375 364.7884521484375 160.42503356933594 346.8905029296875 C 136.98779296875 323.690673828125 163.97567749023438 313.72845458984375 181.79209899902344 346.17864990234375 C 201.8126678466797 368.8548583984375 215.25149536132812 379.29833984375 225.85092163085938 391.6792907714844" stroke-width="0.0" fill="rgb(255, 151, 0)" opacity="1.0" stroke="rgb(0, 0, 0)" stroke-opacity="1.0" stroke-linecap="round" stroke-linejoin="round"/>
    <path d="M 460.448486328125 399.9173278808594 C 478.7950134277344 415.9189147949219 478.86492919921875 392.96514892578125 432.4461975097656 380.62188720703125 C 434.509765625 418.6777038574219 444.62835693359375 423.842041015625 451.7763366699219 427.92840576171875 C 438.4202575683594 377.8982849121094 430.8035888671875 377.3086853027344 458.27862548828125 371.3581237792969 C 477.22113037109375 397.7843933105469 464.96429443359375 413.7361145019531 460.448486328125 399.9173278808594" stroke-width="0.0" fill="rgb(13, 154, 174)" opacity="0.051622927" stroke="rgb(0, 0, 0)" stroke-opacity="1.0" stroke-linecap="round" stroke-linejoin="round"/>
    <path d="M 395.35101318359375 383.5042724609375 C 402.6908264160156 389.12225341796875 395.18072509765625 402.557373046875 398.91058349609375 411.4761962890625 C 384.8620300292969 402.6524963378906 405.6885986328125 395.40228271484375 386.3765563964844 373.2588195800781 C 360.1018981933594 385.10986328125 390.7418212890625 386.4302978515625 413.90631103515625 370.52386474609375 C 401.9926452636719 374.4610595703125 404.7115173339844 396.08929443359375 395.35101318359375 383.5042724609375" stroke-width="0.0" fill="rgb(180, 111, 63)" opacity="0.04890087" stroke="rgb(0, 0, 0)" stroke-opacity="1.0" stroke-linecap="round" stroke-linejoin="round"/>
    <path d="M 290.5223388671875 124.47296905517578 C 278.0926818847656 168.2161407470703 298.1459655761719 151.9852294921875 221.70639038085938 146.8728485107422 C 167.65267944335938 156.32650756835938 177.71775817871094 125.61798858642578 217.1249542236328 116.83649444580078 C 229.3635711669922 115.6751708984375 233.43051147460938 120.44731903076172 207.58372497558594 123.57115936279297 C 182.77279663085938 79.61042785644531 261.0668640136719 58.13045883178711 290.5223388671875 124.47296905517578" stroke-width="0.0" fill="rgb(201, 25, 9)" opacity="0.7047441" stroke="rgb(0, 0, 0)" stroke-opacity="1.0" stroke-linecap="round" stroke-linejoin="round"/>
    <path d="M 277.1211242675781 396.19091796875 C 267.9809265136719 439.17840576171875 273.4823303222656 428.6776123046875 251.83413696289062 431.1343994140625 C 224.69061279296875 432.8493957519531 233.9956817626953 421.2163391113281 245.00064086914062 411.0872802734375 C 249.207275390625 414.5497741699219 246.98875427246094 409.0295104980469 251.73658752441406 409.08953857421875 C 245.9969940185547 402.77069091796875 265.5086364746094 404.0058898925781 277.1211242675781 396.19091796875" stroke-width="0.0" fill="rgb(255, 202, 13)" opacity="0.92584914" stroke="rgb(0, 0, 0)" stroke-opacity="1.0" stroke-linecap="round" stroke-linejoin="round"/>
    <path d="M 395.722900390625 323.9761047363281 C 399.00970458984375 341.0857849121094 412.8143615722656 341.6385192871094 407.5444641113281 318.74774169921875 C 403.0271301269531 337.380859375 397.88031005859375 325.9750061035156 399.2420654296875 306.0429992675781 C 401.7508239746094 315.6629943847656 409.86749267578125 311.8018493652344 399.1420593261719 267.578369140625 C 406.3929748535156 301.48138427734375 412.3677978515625 326.1859436035156 395.722900390625 323.9761047363281" stroke-width="0.0" fill="rgb(154, 96, 136)" opacity="0.05529061" stroke="rgb(0, 0, 0)" stroke-opacity="1.0" stroke-linecap="round" stroke-linejoin="round"/>
    <path d="M 235.91123962402344 304.7276306152344 C 240.84567260742188 321.2907409667969 245.1284942626953 321.3067321777344 239.3892364501953 343.5074157714844 C 224.1990203857422 356.98193359375 207.82583618164062 346.0306701660156 189.21932983398438 317.0592041015625 C 194.27159118652344 268.92578125 217.00225830078125 230.78359985351562 251.28753662109375 227.4050750732422 C 236.60580444335938 262.3155822753906 230.44114685058594 279.114501953125 235.91123962402344 304.7276306152344" stroke-width="0.0" fill="rgb(0, 0, 44)" opacity="1.0" stroke="rgb(0, 0, 0)" stroke-opacity="1.0" stroke-linecap="round" stroke-linejoin="round"/>
    <path d="M 248.28829956054688 330.72509765625 C 257.3890380859375 319.7731628417969 250.8517303466797 327.7551574707031 253.214111328125 322.7218322753906 C 261.069580078125 322.2633972167969 246.8413848876953 311.4554748535156 249.1302490234375 316.5970458984375 C 249.06088256835938 304.8153991699219 249.00405883789062 283.04278564453125 257.7618103027344 254.86935424804688 C 247.25750732421875 286.0992126464844 246.99533081054688 315.8091125488281 248.28829956054688 330.72509765625" stroke-width="0.0" fill="rgb(182, 237, 82)" opacity="0.15794772" stroke="rgb(0, 0, 0)" stroke-opacity="1.0" stroke-linecap="round" stroke-linejoin="round"/>
    <path d="M 537.9589233398438 38.007835388183594 C 545.0103759765625 58.15835952758789 543.5031127929688 62.18746566772461 508.0486755371094 56.800697326660156 C 504.99200439453125 56.6444091796875 499.18133544921875 55.46725082397461 514.3695678710938 57.43218994140625 C 513.7733764648438 55.35993576049805 503.658935546875 49.392784118652344 518.3038940429688 59.14124298095703 C 525.2839965820312 36.10136795043945 523.5993041992188 35.05522155761719 537.9589233398438 38.007835388183594" stroke-width="0.0" fill="rgb(106, 110, 140)" opacity="0.25083786" stroke="rgb(0, 0, 0)" stroke-opacity="1.0" stroke-linecap="round" stroke-linejoin="round"/>
    <path d="M 307.5815124511719 337.79180908203125 C 302.1407165527344 322.1643371582031 307.54486083984375 325.6371765136719 286.3428039550781 327.3256530761719 C 295.441650390625 315.9449768066406 286.927001953125 298.91876220703125 294.3385925292969 275.2334289550781 C 251.19349670410156 255.38723754882812 245.7181854248047 261.046630859375 301.5498046875 259.8426208496094 C 308.0033874511719 271.0040588378906 321.32769775390625 285.44842529296875 307.5815124511719 337.79180908203125" stroke-width="0.0" fill="rgb(239, 205, 25)" opacity="0.93651587" stroke="rgb(0, 0, 0)" stroke-opacity="1.0" stroke-linecap="round" stroke-linejoin="round"/>
    <path d="M 307.39239501953125 91.36849975585938 C 317.9932861328125 79.3425521850586 323.7045593261719 96.41682434082031 315.158935546875 97.18470001220703 C 295.6535949707031 98.39324188232422 264.04986572265625 81.8861083984375 269.40411376953125 97.36283874511719 C 272.4577331542969 49.84098815917969 285.3185729980469 36.92253112792969 323.15478515625 61.1345329284668 C 335.6170654296875 96.70085906982422 320.8453369140625 95.74951934814453 307.39239501953125 91.36849975585938" stroke-width="0.0" fill="rgb(247, 186, 142)" opacity="0.9840208" stroke="rgb(0, 0, 0)" stroke-opacity="1.0" stroke-linecap="round" stroke-linejoin="round"/>
    <path d="M 364.7002868652344 227.47108459472656 C 361.7030334472656 237.6585693359375 357.7469177246094 226.70994567871094 347.6176452636719 217.87413024902344 C 342.0460510253906 230.1898956298828 353.1311340332031 239.10723876953125 355.0071105957031 235.93994140625 C 343.7889709472656 230.9988250732422 353.0469055175781 223.06997680664062 343.5068359375 224.81829833984375 C 340.7268981933594 210.63919067382812 358.1941223144531 223.8794403076172 364.7002868652344 227.47108459472656" stroke-width="0.0" fill="rgb(105, 32, 56)" opacity="0.025002128" stroke="rgb(0, 0, 0)" stroke-opacity="1.0" stroke-linecap="round" stroke-linejoin="round"/>
    <path d="M 217.8077850341797 270.2799072265625 C 181.11776733398438 253.7022247314453 216.0867156982422 241.5722198486328 179.3534698486328 256.6699523925781 C 177.80145263671875 273.95489501953125 184.39280700683594 240.9474334716797 176.22293090820312 239.89247131347656 C 171.2923126220703 244.36163330078125 190.39620971679688 210.2771453857422 179.33169555664062 207.0131378173828 C 192.82098388671875 237.98834228515625 208.8052978515625 272.85369873046875 217.8077850341797 270.2799072265625" stroke-width="0.0" fill="rgb(4, 193, 155)" opacity="0.0" stroke="rgb(0, 0, 0)" stroke-opacity="1.0" stroke-linecap="round" stroke-linejoin="round"/>
    <path d="M 200.25247192382812 105.24626922607422 C 222.01651000976562 101.47074127197266 221.23056030273438 86.44051361083984 167.05810546875 135.74586486816406 C 130.4063262939453 142.4504852294922 137.0207061767578 90.94612121582031 166.18601989746094 90.23196411132812 C 177.3753204345703 101.07219696044922 188.66197204589844 106.06640625 168.4176483154297 102.51834106445312 C 169.173828125 88.33677673339844 173.14962768554688 91.63056945800781 200.25247192382812 105.24626922607422" stroke-width="0.0" fill="rgb(255, 213, 164)" opacity="1.0" stroke="rgb(0, 0, 0)" stroke-opacity="1.0" stroke-linecap="round" stroke-linejoin="round"/>
    <path d="M 437.8856506347656 410.132080078125 C 428.8581237792969 414.2908020019531 386.754638671875 407.63275146484375 400.58880615234375 376.21533203125 C 406.45635986328125 390.14990234375 390.5406188964844 398.93048095703125 384.85467529296875 348.283203125 C 403.87811279296875 337.557373046875 433.4207458496094 338.20550537109375 439.3701171875 354.6272277832031 C 436.2682800292969 365.1893005371094 432.0904541015625 351.87127685546875 437.8856506347656 410.132080078125" stroke-width="0.0" fill="rgb(0, 155, 211)" opacity="0.5629294" stroke="rgb(0, 0, 0)" stroke-opacity="1.0" stroke-linecap="round" stroke-linejoin="round"/>
    <path d="M 40.257320404052734 120.72187042236328 C 32.10213088989258 111.4695053100586 37.7598876953125 123.48980712890625 37.75798797607422 114.0086898803711 C 34.71955108642578 94.3183364868164 39.675296783447266 100.29176330566406 17.8714656829834 101.02899932861328 C 17.11342430114746 113.82672882080078 21.17647933959961 107.85420989990234 25.275449752807617 87.55204772949219 C 43.572383880615234 104.43985748291016 33.2961540222168 120.6153793334961 40.257320404052734 120.72187042236328" stroke-width="0.0" fill="rgb(0, 155, 130)" opacity="0.0" stroke="rgb(0, 0, 0)" stroke-opacity="1.0" stroke-linecap="round" stroke-linejoin="round"/>
    <path d="M 32.60476303100586 465.7417297363281 C 33.63386917114258 464.6381530761719 38.97298049926758 494.1636047363281 20.04100799560547 498.184326171875 C 27.562286376953125 488.3736572265625 28.693510055541992 461.2145080566406 30.737524032592773 459.4422912597656 C 34.87568283081055 467.3246765136719 22.176593780517578 502.08880615234375 34.99061584472656 401.0162353515625 C 20.58266258239746 439.06561279296875 11.571188926696777 465.5135498046875 32.60476303100586 465.7417297363281" stroke-width="0.0" fill="rgb(60, 126, 197)" opacity="0.02014218" stroke="rgb(0, 0, 0)" stroke-opacity="1.0" stroke-linecap="round" stroke-linejoin="round"/>
    <path d="M 135.28424072265625 243.67095947265625 C 141.613525390625 250.70497131347656 140.2686309814453 259.3937072753906 146.80320739746094 256.4903564453125 C 137.94052124023438 261.6319580078125 132.20933532714844 254.9456329345703 135.83714294433594 251.30914306640625 C 135.0522003173828 242.36883544921875 135.160400390625 241.7853240966797 137.2189178466797 243.8428955078125 C 125.0107421875 242.06187438964844 146.0809783935547 245.3297882080078 135.28424072265625 243.67095947265625" stroke-width="0.0" fill="rgb(42, 127, 193)" opacity="0.17351614" stroke="rgb(0, 0, 0)" stroke-opacity="1.0" stroke-linecap="round" stroke-linejoin="round"/>
    <path d="M 556.2235107421875 243.13816833496094 C 528.2279663085938 263.1829833984375 521.3010864257812 271.12066650390625 537.4273071289062 260.0164794921875 C 531.9046630859375 260.8980712890625 522.5444946289062 245.67369079589844 513.5147705078125 239.96185302734375 C 499.56982421875 253.2782745361328 509.8226318359375 237.51194763183594 522.8474731445312 218.6278839111328 C 551.0227661132812 215.4796905517578 562.0697021484375 228.88442993164062 556.2235107421875 243.13816833496094" stroke-width="0.0" fill="rgb(61, 177, 141)" opacity="0.087955184" stroke="rgb(0, 0, 0)" stroke-opacity="1.0" stroke-linecap="round" stroke-linejoin="round"/>
    <path d="M 254.24685668945312 410.3175354003906 C 251.39649963378906 417.950439453125 243.33602905273438 403.0625 278.27587890625 407.697509765625 C 273.268310546875 392.7919921875 263.7679138183594 388.11749267578125 261.6627502441406 418.19366455078125 C 259.3151550292969 395.6044921875 259.5133972167969 368.31146240234375 257.8455505371094 400.65142822265625 C 244.55401611328125 395.77459716796875 259.387451171875 394.9714660644531 254.24685668945312 410.3175354003906" stroke-width="0.0" fill="rgb(255, 207, 0)" opacity="0.8907201" stroke="rgb(0, 0, 0)" stroke-opacity="1.0" stroke-linecap="round" stroke-linejoin="round"/>
    <path d="M 109.00494384765625 60.51191329956055 C 88.46332550048828 116.52313995361328 80.55239868164062 114.13947296142578 80.37358856201172 109.47000885009766 C 72.07261657714844 115.06840515136719 69.3488998413086 115.2325210571289 66.834716796875 113.57880401611328 C 65.32548522949219 101.82341766357422 66.26588439941406 99.27963256835938 89.36795043945312 164.2430877685547 C 117.4850082397461 115.69904327392578 123.9582290649414 87.68826293945312 109.00494384765625 60.51191329956055" stroke-width="0.0" fill="rgb(53, 124, 164)" opacity="0.00632951" stroke="rgb(0, 0, 0)" stroke-opacity="1.0" stroke-linecap="round" stroke-linejoin="round"/>
    <path d="M 456.85235595703125 229.4915313720703 C 456.9130859375 243.21246337890625 447.3708801269531 243.67933654785156 451.7672119140625 238.54159545898438 C 445.5791320800781 248.5906219482422 436.9205627441406 247.7762908935547 432.9584045410156 243.02207946777344 C 434.8235778808594 233.72308349609375 444.74560546875 226.06842041015625 446.16314697265625 218.8525848388672 C 459.4189758300781 225.87449645996094 470.8778991699219 232.5123291015625 456.85235595703125 229.4915313720703" stroke-width="0.0" fill="rgb(46, 129, 202)" opacity="0.0036935739" stroke="rgb(0, 0, 0)" stroke-opacity="1.0" stroke-linecap="round" stroke-linejoin="round"/>
    <path d="M 384.0314636230469 192.59375 C 382.1971740722656 199.89915466308594 391.8036804199219 205.10189819335938 381.5144348144531 196.19493103027344 C 361.22906494140625 199.37521362304688 344.3393859863281 185.9621124267578 347.54656982421875 208.1317138671875 C 351.66595458984375 207.7374725341797 353.69293212890625 172.15069580078125 354.235595703125 140.0879364013672 C 366.6371154785156 188.88833618164062 355.1371765136719 189.20741271972656 384.0314636230469 192.59375" stroke-width="0.0" fill="rgb(36, 140, 189)" opacity="0.43887517" stroke="rgb(0, 0, 0)" stroke-opacity="1.0" stroke-linecap="round" stroke-linejoin="round"/>
    <path d="M 104.01274108886719 477.7569580078125 C 134.42555236816406 473.2390441894531 119.82234954833984 460.2059326171875 80.94609832763672 464.587158203125 C 90.67463684082031 481.41619873046875 69.0387954711914 475.201904296875 70.81269073486328 438.3250427246094 C 103.22927856445312 454.13409423828125 88.86637115478516 438.2895202636719 83.1257553100586 405.8028869628906 C 84.95597839355469 430.1745910644531 75.03099822998047 457.99554443359375 104.01274108886719 477.7569580078125" stroke-width="0.0" fill="rgb(21, 142, 179)" opacity="0.008200363" stroke="rgb(0, 0, 0)" stroke-opacity="1.0" stroke-linecap="round" stroke-linejoin="round"/>
    <path d="M 84.79364776611328 424.0604248046875 C 68.2725601196289 497.34906005859375 54.40924072265625 489.0389709472656 46.40875244140625 435.5293884277344 C 48.80910110473633 458.3806457519531 56.81001281738281 449.6242980957031 76.44384002685547 524.1611938476562 C 21.704607009887695 503.54046630859375 30.88272476196289 447.2574462890625 61.24882125854492 454.57183837890625 C 89.80289459228516 427.88885498046875 79.93231964111328 421.18756103515625 84.79364776611328 424.0604248046875" stroke-width="0.0" fill="rgb(4, 158, 155)" opacity="0.01261019" stroke="rgb(0, 0, 0)" stroke-opacity="1.0" stroke-linecap="round" stroke-linejoin="round"/>
    <path d="M 452.0386047363281 41.99179458618164 C 449.8569030761719 88.57978820800781 453.078857421875 100.288818359375 442.17584228515625 51.862632751464844 C 465.6489562988281 45.09522247314453 449.41717529296875 66.84324645996094 448.1963195800781 40.99681854248047 C 455.8674011230469 5.330221176147461 461.51922607421875 -2.0962021350860596 438.79376220703125 7.1710615158081055 C 451.1349182128906 28.753076553344727 459.71337890625 36.29674530029297 452.0386047363281 41.99179458618164" stroke-width="0.0" fill="rgb(30, 83, 168)" opacity="0.0" stroke="rgb(0, 0, 0)" stroke-opacity="1.0" stroke-linecap="round" stroke-linejoin="round"/>
    <path d="M 272.2123107910156 201.42999267578125 C 313.5203857421875 191.32359313964844 300.4623107910156 154.54562377929688 283.7289733886719 148.6106719970703 C 292.8497009277344 169.3645477294922 298.7134704589844 151.16639709472656 279.2945861816406 152.06199645996094 C 280.6249694824219 160.51370239257812 308.28070068359375 157.8194580078125 323.626708984375 148.38352966308594 C 296.98065185546875 174.56829833984375 272.2342529296875 194.52737426757812 272.2123107910156 201.42999267578125" stroke-width="0.0" fill="rgb(255, 53, 125)" opacity="0.16214187" stroke="rgb(0, 0, 0)" stroke-opacity="1.0" stroke-linecap="round" stroke-linejoin="round"/>
    <path d="M 457.75799560546875 494.77777099609375 C 464.3710021972656 529.362060546875 464.4335632324219 515.1309204101562 464.7328186035156 529.2265625 C 486.6330261230469 524.9468994140625 485.137939453125 507.50787353515625 470.5962829589844 467.6171569824219 C 458.2762145996094 477.19287109375 470.2493896484375 473.2965393066406 456.0692443847656 468.5805969238281 C 463.22369384765625 476.6084899902344 476.37213134765625 482.35028076171875 457.75799560546875 494.77777099609375" stroke-width="0.0" fill="rgb(79, 170, 255)" opacity="0.0" stroke="rgb(0, 0, 0)" stroke-opacity="1.0" stroke-linecap="round" stroke-linejoin="round"/>
    <path d="M 154.2807159423828 28.562625885009766 C 118.96067810058594 25.830657958984375 124.8796157836914 37.703880310058594 122.3563232421875 49.51219177246094 C 118.20594787597656 33.95816421508789 119.10697174072266 28.208419799804688 124.60377502441406 32.57961654663086 C 108.8001708984375 37.66652297973633 108.86406707763672 11.473306655883789 111.13570404052734 -1.3662031888961792 C 163.80911254882812 -0.7362794876098633 153.32688903808594 0.22806097567081451 154.2807159423828 28.562625885009766" stroke-width="0.0" fill="rgb(24, 140, 117)" opacity="0.0010910426" stroke="rgb(0, 0, 0)" stroke-opacity="1.0" stroke-linecap="round" stroke-linejoin="round"/>
    <path d="M 190.902099609375 334.1807861328125 C 189.80116271972656 342.0980224609375 189.39268493652344 334.5783996582031 185.00735473632812 343.535400390625 C 192.627685546875 349.21099853515625 166.33889770507812 329.4088439941406 170.34716796875 330.7196350097656 C 194.23863220214844 341.1324768066406 195.75291442871094 334.19659423828125 193.2062530517578 349.78265380859375 C 179.9599609375 359.0399169921875 201.20851135253906 358.2289123535156 190.902099609375 334.1807861328125" stroke-width="0.0" fill="rgb(190, 109, 34)" opacity="0.056832023" stroke="rgb(0, 0, 0)" stroke-opacity="1.0" stroke-linecap="round" stroke-linejoin="round"/>
    <path d="M 46.999935150146484 328.70281982421875 C 49.63771438598633 331.12896728515625 37.945953369140625 331.590576171875 30.374277114868164 331.9671936035156 C 36.91431427001953 331.0018005371094 34.99504470825195 333.5567321777344 33.65794372558594 329.4516906738281 C 32.728302001953125 334.5654602050781 51.6214714050293 328.5386657714844 46.57307815551758 329.903076171875 C 40.88615798950195 331.7196960449219 49.34011459350586 330.1812438964844 46.999935150146484 328.70281982421875" stroke-width="0.0" fill="rgb(74, 112, 194)" opacity="0.11036375" stroke="rgb(0, 0, 0)" stroke-opacity="1.0" stroke-linecap="round" stroke-linejoin="round"/>
    <path d="M 441.9884948730469 413.8534851074219 C 433.7852783203125 468.5144958496094 425.72589111328125 462.271728515625 395.3041687011719 457.6984558105469 C 389.5739440917969 463.3406677246094 372.9625244140625 451.6576232910156 387.0218811035156 445.85357666015625 C 395.3033447265625 458.35693359375 408.7493896484375 453.0542907714844 408.2816162109375 442.9375305175781 C 398.8774719238281 426.19122314453125 428.08782958984375 422.06976318359375 441.9884948730469 413.8534851074219" stroke-width="0.0" fill="rgb(128, 105, 141)" opacity="0.0" stroke="rgb(0, 0, 0)" stroke-opacity="1.0" stroke-linecap="round" stroke-linejoin="round"/>
    <path d="M 178.38111877441406 274.020751953125 C 154.8913116455078 297.17401123046875 131.45506286621094 287.6167297363281 143.8390655517578 284.799072265625 C 140.75335693359375 276.4212951660156 126.47894287109375 272.79437255859375 115.58356475830078 255.88328552246094 C 109.03125 253.57154846191406 113.4736557006836 270.61932373046875 119.13034057617188 253.93409729003906 C 145.7127685546875 247.26564025878906 164.01531982421875 248.83267211914062 178.38111877441406 274.020751953125" stroke-width="0.0" fill="rgb(8, 168, 152)" opacity="0.15466101" stroke="rgb(0, 0, 0)" stroke-opacity="1.0" stroke-linecap="round" stroke-linejoin="round"/>
    <path d="M 128.921630859375 466.54443359375 C 127.85446166992188 487.2874755859375 126.60232543945312 477.04327392578125 91.87303924560547 445.3115234375 C 76.94342041015625 465.23394775390625 71.2625961303711 420.87701416015625 88.33349609375 392.4437561035156 C 121.21883392333984 431.09197998046875 114.49266815185547 417.5830078125 126.59046936035156 427.6378479003906 C 124.59070587158203 431.3736267089844 122.04470825195312 439.7419738769531 128.921630859375 466.54443359375" stroke-width="0.0" fill="rgb(23, 161, 166)" opacity="0.02898486" stroke="rgb(0, 0, 0)" stroke-opacity="1.0" stroke-linecap="round" stroke-linejoin="round"/>
    <path d="M 249.62948608398438 46.37437438964844 C 250.1343231201172 45.4267463684082 247.7492218017578 43.624507904052734 251.0908966064453 44.18632888793945 C 251.1653289794922 51.1312370300293 245.8845977783203 42.49000930786133 246.36578369140625 38.964134216308594 C 247.7342071533203 50.98965835571289 246.9462127685547 46.68947982788086 247.0211639404297 34.778846740722656 C 246.59951782226562 39.84861373901367 247.9876708984375 49.18157196044922 249.62948608398438 46.37437438964844" stroke-width="0.0" fill="rgb(52, 114, 218)" opacity="0.12538135" stroke="rgb(0, 0, 0)" stroke-opacity="1.0" stroke-linecap="round" stroke-linejoin="round"/>
  </g>
</svg>
