<?xml version="1.0" ?>
<svg xmlns="http://www.w3.org/2000/svg" version="1.1" width="512" height="512">
  <defs/>
  <g>
    <path d="M 517.8552856445312 462.6907043457031 C 548.7020874023438 518.369873046875 549.9697875976562 525.8068237304688 321.2721862792969 526.3883666992188 C 230.60691833496094 524.5814208984375 163.5875244140625 496.0299377441406 300.49615478515625 462.63323974609375 C 542.3797607421875 403.1112976074219 402.9883728027344 286.9414978027344 389.55279541015625 223.31260681152344 C 553.7671508789062 290.42193603515625 543.5098266601562 323.9331970214844 517.8552856445312 462.6907043457031" stroke-width="0.0" fill="rgb(238, 0, 39)" opacity="1.0" stroke="rgb(0, 0, 0)" stroke-opacity="1.0" stroke-linecap="round" stroke-linejoin="round"/>
    <path d="M 135.1719207763672 419.4891662597656 C 232.7185821533203 524.0828247070312 369.0151672363281 427.9621887207031 280.5298767089844 473.4611511230469 C -42.381587982177734 535.5186157226562 -41.47568130493164 534.0291748046875 -34.70125961303711 490.1826171875 C -24.82239532470703 210.7178192138672 -19.177764892578125 208.83677673339844 37.05912399291992 269.4554443359375 C 139.3302459716797 267.9195251464844 60.40195083618164 314.6992492675781 135.1719207763672 419.4891662597656" stroke-width="0.0" fill="rgb(2, 0, 35)" opacity="0.99600923" stroke="rgb(0, 0, 0)" stroke-opacity="1.0" stroke-linecap="round" stroke-linejoin="round"/>
    <path d="M 91.4924087524414 300.7876892089844 C 111.17111206054688 445.71282958984375 99.5224609375 370.63739013671875 92.95423889160156 307.2852783203125 C -68.9612045288086 271.563720703125 -44.975223541259766 334.80535888671875 -9.544058799743652 174.8018035888672 C -1.4036409854888916 145.63645935058594 7.404529571533203 148.0104522705078 33.31658935546875 145.46141052246094 C 57.5914421081543 158.3005828857422 99.44633483886719 218.51507568359375 91.4924087524414 300.7876892089844" stroke-width="0.0" fill="rgb(11, 5, 45)" opacity="0.97586006" stroke="rgb(0, 0, 0)" stroke-opacity="1.0" stroke-linecap="round" stroke-linejoin="round"/>
    <path d="M 289.15350341796875 71.60476684570312 C 44.773258209228516 54.780513763427734 123.46065521240234 178.25978088378906 91.3402328491211 131.4470977783203 C 7.432765007019043 253.69586181640625 -3.5848467350006104 242.0397491455078 -21.944087982177734 77.07183837890625 C -21.087783813476562 -22.3791446685791 -13.035964012145996 -25.503944396972656 195.49400329589844 -28.43779945373535 C 288.3162536621094 -57.27259063720703 312.6705017089844 -54.9822998046875 289.15350341796875 71.60476684570312" stroke-width="0.0" fill="rgb(4, 2, 36)" opacity="0.9203516" stroke="rgb(0, 0, 0)" stroke-opacity="1.0" stroke-linecap="round" stroke-linejoin="round"/>
    <path d="M 580.356689453125 90.88903045654297 C 432.35284423828125 281.8668212890625 434.5348205566406 296.3412170410156 296.1838684082031 306.26312255859375 C 187.8380126953125 345.7984924316406 305.758544921875 266.02362060546875 216.09693908691406 136.93418884277344 C 305.5380554199219 -29.545385360717773 244.75489807128906 -34.988525390625 334.0674133300781 -67.2530746459961 C 563.2000122070312 0.6587138175964355 563.2000122070312 11.063444137573242 580.356689453125 90.88903045654297" stroke-width="0.0" fill="rgb(248, 0, 34)" opacity="0.99862146" stroke="rgb(0, 0, 0)" stroke-opacity="1.0" stroke-linecap="round" stroke-linejoin="round"/>
    <path d="M 337.7839050292969 66.19784545898438 C 285.5977783203125 311.7313537597656 135.32630920410156 404.8861389160156 159.16725158691406 270.8716125488281 C 187.26231384277344 204.77369689941406 159.528076171875 107.36003875732422 46.916507720947266 71.96858215332031 C 52.7449836730957 108.03841400146484 86.4061279296875 31.450450897216797 220.42698669433594 61.29616165161133 C 319.8041076660156 122.15666961669922 261.1746520996094 43.56090545654297 337.7839050292969 66.19784545898438" stroke-width="0.0" fill="rgb(0, 0, 64)" opacity="1.0" stroke="rgb(0, 0, 0)" stroke-opacity="1.0" stroke-linecap="round" stroke-linejoin="round"/>
    <path d="M 458.431884765625 396.6977233886719 C 352.3829040527344 507.4837951660156 483.8078918457031 273.922607421875 355.5261535644531 299.6191711425781 C 354.9330139160156 287.68487548828125 456.4842529296875 396.3238220214844 194.17721557617188 433.2532958984375 C 125.97789001464844 180.74093627929688 218.96327209472656 132.09458923339844 292.22674560546875 321.443115234375 C 430.7139892578125 270.4901428222656 456.0540771484375 237.49644470214844 458.431884765625 396.6977233886719" stroke-width="0.0" fill="rgb(0, 34, 2)" opacity="0.52744484" stroke="rgb(0, 0, 0)" stroke-opacity="1.0" stroke-linecap="round" stroke-linejoin="round"/>
    <path d="M 534.8027954101562 150.4931640625 C 543.6019897460938 320.09478759765625 563.1994018554688 343.2150573730469 541.4348754882812 291.55047607421875 C 385.8775329589844 288.5791931152344 346.8845520019531 340.0570068359375 394.2957763671875 269.43218994140625 C 270.8528747558594 194.55958557128906 418.7518310546875 209.31011962890625 565.6753540039062 128.97874450683594 C 563.2000122070312 68.05618286132812 563.2000122070312 90.89309692382812 534.8027954101562 150.4931640625" stroke-width="0.0" fill="rgb(0, 75, 121)" opacity="0.7967419" stroke="rgb(0, 0, 0)" stroke-opacity="1.0" stroke-linecap="round" stroke-linejoin="round"/>
    <path d="M 259.2926025390625 176.87098693847656 C 306.40594482421875 280.3310241699219 304.67242431640625 274.5406188964844 308.2009582519531 304.16778564453125 C 263.1275939941406 293.4886474609375 241.20921325683594 297.7649841308594 248.89382934570312 243.22384643554688 C 301.6699523925781 249.51669311523438 272.3775329589844 233.90591430664062 241.0142364501953 285.88055419921875 C 293.5153503417969 237.9955596923828 279.0272521972656 235.54428100585938 259.2926025390625 176.87098693847656" stroke-width="0.0" fill="rgb(60, 19, 142)" opacity="0.2642321" stroke="rgb(0, 0, 0)" stroke-opacity="1.0" stroke-linecap="round" stroke-linejoin="round"/>
    <path d="M 262.51068115234375 81.04924011230469 C 99.45301818847656 53.45869064331055 -28.29002571105957 169.23423767089844 47.695098876953125 210.8710174560547 C 164.2611846923828 334.99371337890625 -45.280216217041016 358.6553649902344 -43.98849868774414 214.00582885742188 C -40.59346008300781 -21.163286209106445 -33.168052673339844 -31.7366886138916 130.7631378173828 -70.42797088623047 C 280.93121337890625 -41.959136962890625 361.1044006347656 26.261934280395508 262.51068115234375 81.04924011230469" stroke-width="0.0" fill="rgb(239, 0, 45)" opacity="0.928714" stroke="rgb(0, 0, 0)" stroke-opacity="1.0" stroke-linecap="round" stroke-linejoin="round"/>
    <path d="M 504.07000732421875 232.5804901123047 C 431.61328125 194.79905700683594 364.3766784667969 258.7879638671875 400.1970520019531 279.0135498046875 C 239.1520233154297 336.9353942871094 506.7319641113281 321.9096374511719 319.8886413574219 257.75140380859375 C 411.8749084472656 171.0776824951172 341.49041748046875 60.33385467529297 367.9305419921875 133.80029296875 C 302.6268310546875 279.44134521484375 321.95477294921875 266.5390319824219 504.07000732421875 232.5804901123047" stroke-width="0.0" fill="rgb(244, 8, 6)" opacity="0.7842956" stroke="rgb(0, 0, 0)" stroke-opacity="1.0" stroke-linecap="round" stroke-linejoin="round"/>
    <path d="M 441.0394287109375 -0.8314903974533081 C 385.02374267578125 231.55418395996094 293.8489074707031 192.7656707763672 238.935791015625 226.00161743164062 C 223.331298828125 172.59841918945312 288.35888671875 171.6453094482422 289.2323913574219 162.93638610839844 C 254.53846740722656 155.46986389160156 290.9976501464844 104.93296813964844 204.2607879638672 105.28094482421875 C 120.59672546386719 33.40780258178711 193.89328002929688 -93.44072723388672 441.0394287109375 -0.8314903974533081" stroke-width="0.0" fill="rgb(244, 2, 37)" opacity="0.9916353" stroke="rgb(0, 0, 0)" stroke-opacity="1.0" stroke-linecap="round" stroke-linejoin="round"/>
    <path d="M 281.6514587402344 439.4691467285156 C 525.5330200195312 415.7881774902344 262.84661865234375 554.462646484375 175.25743103027344 433.8481750488281 C 257.5122375488281 430.2381286621094 179.74159240722656 413.36199951171875 149.5897216796875 313.35260009765625 C 174.57305908203125 248.54666137695312 169.96632385253906 482.4835205078125 107.70958709716797 231.47520446777344 C 261.37542724609375 125.30445861816406 87.67774963378906 427.067138671875 281.6514587402344 439.4691467285156" stroke-width="0.0" fill="rgb(250, 255, 142)" opacity="0.995397" stroke="rgb(0, 0, 0)" stroke-opacity="1.0" stroke-linecap="round" stroke-linejoin="round"/>
    <path d="M 570.48291015625 161.02804565429688 C 555.3043212890625 456.8359069824219 552.1666259765625 477.46221923828125 472.0336608886719 452.4382629394531 C 368.94671630859375 388.3795471191406 438.6733703613281 397.57708740234375 435.9436950683594 304.9998779296875 C 387.2637023925781 161.1171875 425.4933776855469 314.877197265625 372.0573425292969 177.36866760253906 C 433.3498840332031 96.08106231689453 564.3770141601562 107.91758728027344 570.48291015625 161.02804565429688" stroke-width="0.0" fill="rgb(242, 3, 34)" opacity="1.0" stroke="rgb(0, 0, 0)" stroke-opacity="1.0" stroke-linecap="round" stroke-linejoin="round"/>
    <path d="M 559.580078125 456.94500732421875 C 537.3006591796875 525.2545166015625 527.2994384765625 538.056640625 337.60833740234375 529.6115112304688 C 275.2707824707031 468.72686767578125 316.2887878417969 488.1968994140625 375.2341003417969 444.4365234375 C 423.0246887207031 394.473388671875 411.8879089355469 365.88385009765625 436.395263671875 355.5885314941406 C 465.6385192871094 391.73980712890625 497.0033264160156 390.6075134277344 559.580078125 456.94500732421875" stroke-width="0.0" fill="rgb(243, 3, 31)" opacity="0.99786097" stroke="rgb(0, 0, 0)" stroke-opacity="1.0" stroke-linecap="round" stroke-linejoin="round"/>
    <path d="M 348.6370544433594 301.6692810058594 C 438.3670349121094 291.5769348144531 300.4356689453125 285.0649108886719 344.9388427734375 323.5444641113281 C 339.1945495605469 433.8479919433594 209.7606658935547 409.4900817871094 209.5172119140625 315.39105224609375 C 214.99368286132812 320.7303466796875 197.24685668945312 291.2727355957031 221.57028198242188 288.2297668457031 C 214.4966278076172 406.7494201660156 313.6478271484375 426.9263610839844 348.6370544433594 301.6692810058594" stroke-width="0.0" fill="rgb(254, 255, 14)" opacity="0.97521996" stroke="rgb(0, 0, 0)" stroke-opacity="1.0" stroke-linecap="round" stroke-linejoin="round"/>
    <path d="M 240.35438537597656 279.11566162109375 C 203.282470703125 340.7056579589844 228.66229248046875 339.1216735839844 187.75682067871094 343.8977355957031 C 205.30352783203125 340.9084167480469 212.6632537841797 309.3380126953125 205.6635284423828 302.0068664550781 C 205.10618591308594 295.8292236328125 209.1503143310547 275.1746520996094 225.05577087402344 260.7053527832031 C 253.802001953125 246.12742614746094 254.2419891357422 245.5157928466797 240.35438537597656 279.11566162109375" stroke-width="0.0" fill="rgb(247, 253, 121)" opacity="0.9959387" stroke="rgb(0, 0, 0)" stroke-opacity="1.0" stroke-linecap="round" stroke-linejoin="round"/>
    <path d="M 438.77752685546875 307.01904296875 C 457.0086975097656 417.9089050292969 357.5866394042969 470.00048828125 331.59283447265625 476.7610778808594 C 267.8262023925781 508.9793701171875 152.72195434570312 477.6244201660156 290.8711242675781 473.2544860839844 C 359.8370056152344 458.3081970214844 380.835693359375 425.2377624511719 408.9480895996094 409.86102294921875 C 345.5316467285156 502.2106628417969 447.2142333984375 305.9687194824219 438.77752685546875 307.01904296875" stroke-width="0.0" fill="rgb(0, 7, 41)" opacity="0.9974645" stroke="rgb(0, 0, 0)" stroke-opacity="1.0" stroke-linecap="round" stroke-linejoin="round"/>
    <path d="M 267.53643798828125 131.57948303222656 C 282.5993347167969 84.6163101196289 158.9976043701172 70.7137451171875 212.568115234375 52.98234176635742 C 208.97030639648438 58.680519104003906 213.43605041503906 48.662269592285156 209.86422729492188 51.49293899536133 C 186.6360626220703 72.72303009033203 210.3983612060547 76.72520446777344 176.3184051513672 86.68437194824219 C 82.6695556640625 79.34366607666016 200.7135467529297 52.03451919555664 267.53643798828125 131.57948303222656" stroke-width="0.0" fill="rgb(45, 4, 9)" opacity="0.5325661" stroke="rgb(0, 0, 0)" stroke-opacity="1.0" stroke-linecap="round" stroke-linejoin="round"/>
    <path d="M 243.7467803955078 486.60662841796875 C 258.41693115234375 604.7058715820312 228.22084045410156 613.7305908203125 144.98435974121094 582.98095703125 C -49.01333236694336 521.1326904296875 -42.92496109008789 500.47503662109375 -33.38058853149414 419.868896484375 C -44.8772087097168 315.24322509765625 -58.48884201049805 286.29791259765625 8.815226554870605 309.0807800292969 C 108.56304168701172 294.80499267578125 66.99609375 467.4941711425781 243.7467803955078 486.60662841796875" stroke-width="0.0" fill="rgb(242, 4, 34)" opacity="1.0" stroke="rgb(0, 0, 0)" stroke-opacity="1.0" stroke-linecap="round" stroke-linejoin="round"/>
    <path d="M 300.949951171875 334.60888671875 C 296.644287109375 376.8484191894531 264.38775634765625 344.26019287109375 273.4597473144531 321.2138977050781 C 271.9333801269531 350.0823669433594 310.1812744140625 335.69342041015625 295.0132751464844 363.53125 C 270.7857971191406 391.59014892578125 204.23193359375 384.41998291015625 232.6779327392578 254.43917846679688 C 256.442626953125 302.80078125 252.11521911621094 377.2086181640625 300.949951171875 334.60888671875" stroke-width="0.0" fill="rgb(141, 148, 65)" opacity="0.42479372" stroke="rgb(0, 0, 0)" stroke-opacity="1.0" stroke-linecap="round" stroke-linejoin="round"/>
    <path d="M 394.73089599609375 196.0144805908203 C 344.7489013671875 77.32847595214844 403.880615234375 119.7964859008789 350.9840393066406 184.9062042236328 C 319.7722473144531 173.66075134277344 337.48419189453125 191.76158142089844 337.0545654296875 189.16236877441406 C 343.9166564941406 251.89608764648438 420.345458984375 230.87725830078125 373.0937194824219 176.75567626953125 C 348.2463684082031 192.66343688964844 365.0728454589844 157.0648956298828 394.73089599609375 196.0144805908203" stroke-width="0.0" fill="rgb(209, 0, 101)" opacity="0.084253736" stroke="rgb(0, 0, 0)" stroke-opacity="1.0" stroke-linecap="round" stroke-linejoin="round"/>
    <path d="M 440.581298828125 242.3558349609375 C 453.29388427734375 228.056396484375 444.2201232910156 314.41326904296875 365.4201965332031 281.7434997558594 C 455.878173828125 267.5452880859375 527.6327514648438 223.25714111328125 392.23797607421875 286.80499267578125 C 454.80169677734375 214.601806640625 423.39678955078125 168.23080444335938 433.0864562988281 188.74462890625 C 434.4957580566406 260.3410949707031 388.171875 238.2170867919922 440.581298828125 242.3558349609375" stroke-width="0.0" fill="rgb(82, 111, 5)" opacity="0.005128001" stroke="rgb(0, 0, 0)" stroke-opacity="1.0" stroke-linecap="round" stroke-linejoin="round"/>
    <path d="M 77.01129150390625 280.92120361328125 C 86.97541046142578 317.00567626953125 84.10001373291016 356.62933349609375 109.89418029785156 417.8665771484375 C 36.09828186035156 364.7552185058594 -4.594492435455322 339.2743835449219 -39.20014953613281 231.9166717529297 C 48.70380401611328 227.94100952148438 26.256555557250977 195.76144409179688 58.84244155883789 204.75152587890625 C 84.78485107421875 230.554931640625 83.24663543701172 296.0220031738281 77.01129150390625 280.92120361328125" stroke-width="0.0" fill="rgb(244, 3, 38)" opacity="1.0" stroke="rgb(0, 0, 0)" stroke-opacity="1.0" stroke-linecap="round" stroke-linejoin="round"/>
    <path d="M 350.043701171875 267.248291015625 C 310.1900634765625 275.07220458984375 276.07586669921875 216.9923553466797 282.5534362792969 215.0356903076172 C 300.8814697265625 181.61355590820312 277.33111572265625 169.33384704589844 292.3824768066406 167.7405242919922 C 280.42041015625 171.43429565429688 297.95477294921875 189.19503784179688 285.72509765625 209.42176818847656 C 293.36810302734375 192.0746612548828 390.3735046386719 174.85968017578125 350.043701171875 267.248291015625" stroke-width="0.0" fill="rgb(0, 110, 169)" opacity="0.75862366" stroke="rgb(0, 0, 0)" stroke-opacity="1.0" stroke-linecap="round" stroke-linejoin="round"/>
    <path d="M 220.7997589111328 131.10731506347656 C 186.8096466064453 108.4336166381836 200.7307891845703 124.75613403320312 208.5015106201172 121.6905517578125 C 76.30975341796875 52.47780227661133 107.33766174316406 169.63523864746094 88.5704574584961 136.8107147216797 C 142.37823486328125 43.454627990722656 212.7313690185547 90.17326354980469 168.32215881347656 109.98018646240234 C 216.8993682861328 98.36614990234375 230.7784881591797 110.77979278564453 220.7997589111328 131.10731506347656" stroke-width="0.0" fill="rgb(162, 107, 138)" opacity="0.15288256" stroke="rgb(0, 0, 0)" stroke-opacity="1.0" stroke-linecap="round" stroke-linejoin="round"/>
    <path d="M 80.15771484375 144.30142211914062 C 116.90150451660156 160.01516723632812 114.64106750488281 143.06808471679688 89.24055480957031 151.87220764160156 C 99.0621337890625 143.51071166992188 75.18785858154297 114.1350326538086 114.1896743774414 120.3895492553711 C 50.347412109375 178.47232055664062 67.0484390258789 10.991869926452637 232.9883270263672 85.95171356201172 C 130.84388732910156 157.66981506347656 116.0613784790039 147.92127990722656 80.15771484375 144.30142211914062" stroke-width="0.0" fill="rgb(82, 9, 45)" opacity="1.0" stroke="rgb(0, 0, 0)" stroke-opacity="1.0" stroke-linecap="round" stroke-linejoin="round"/>
    <path d="M 322.6351623535156 255.985107421875 C 288.04827880859375 297.16943359375 327.0820007324219 311.9783630371094 274.92352294921875 296.82879638671875 C 210.7931671142578 279.0343933105469 226.2032928466797 257.5962219238281 231.7207489013672 251.7644805908203 C 250.25836181640625 228.4171905517578 272.0113830566406 223.59494018554688 292.96295166015625 223.31393432617188 C 296.3570861816406 222.08827209472656 322.1541748046875 216.2445526123047 322.6351623535156 255.985107421875" stroke-width="0.0" fill="rgb(208, 255, 165)" opacity="1.0" stroke="rgb(0, 0, 0)" stroke-opacity="1.0" stroke-linecap="round" stroke-linejoin="round"/>
    <path d="M 280.1107177734375 235.99156188964844 C 244.33209228515625 226.23426818847656 206.46482849121094 57.57572555541992 202.15330505371094 170.23849487304688 C 238.10557556152344 245.91729736328125 178.90130615234375 327.114501953125 138.8582305908203 132.46368408203125 C 177.2911834716797 65.69902801513672 227.1033935546875 126.71007537841797 234.6811981201172 161.38807678222656 C 244.99447631835938 52.407073974609375 193.4424591064453 121.13886260986328 280.1107177734375 235.99156188964844" stroke-width="0.0" fill="rgb(130, 185, 119)" opacity="0.89759904" stroke="rgb(0, 0, 0)" stroke-opacity="1.0" stroke-linecap="round" stroke-linejoin="round"/>
    <path d="M 403.2259216308594 403.3068542480469 C 363.33251953125 242.63160705566406 301.3183288574219 338.96063232421875 292.6351318359375 369.18231201171875 C 272.7685546875 378.7588806152344 276.38232421875 358.22503662109375 303.1680603027344 354.5431823730469 C 333.29278564453125 316.0638427734375 314.769287109375 289.4048767089844 264.851318359375 353.0089111328125 C 284.1029052734375 272.67974853515625 488.2533264160156 249.20639038085938 403.2259216308594 403.3068542480469" stroke-width="0.0" fill="rgb(202, 235, 98)" opacity="0.81238735" stroke="rgb(0, 0, 0)" stroke-opacity="1.0" stroke-linecap="round" stroke-linejoin="round"/>
    <path d="M 7.6602020263671875 523.527099609375 C 16.928863525390625 520.4954833984375 10.451606750488281 527.2847900390625 0.7705464363098145 530.8681030273438 C -9.364206314086914 527.7437133789062 -16.68471336364746 520.4232177734375 -19.53505516052246 510.3761291503906 C -16.513290405273438 500.47222900390625 -9.497283935546875 493.1925964355469 -12.406676292419434 503.4660339355469 C -4.264515399932861 507.9687805175781 3.0665524005889893 515.3460693359375 7.6602020263671875 523.527099609375" stroke-width="0.0" fill="rgb(253, 10, 0)" opacity="0.1198675" stroke="rgb(0, 0, 0)" stroke-opacity="1.0" stroke-linecap="round" stroke-linejoin="round"/>
    <path d="M 164.7563018798828 260.6017150878906 C 199.34280395507812 368.5692443847656 179.72279357910156 355.1532287597656 162.9803466796875 272.8641357421875 C 159.0956573486328 192.9028778076172 152.3126678466797 167.50338745117188 125.33887481689453 170.06358337402344 C 99.10018157958984 123.55040740966797 54.898895263671875 158.98333740234375 131.5182342529297 96.00037384033203 C 155.3918914794922 140.8803253173828 176.90167236328125 182.56832885742188 164.7563018798828 260.6017150878906" stroke-width="0.0" fill="rgb(145, 222, 74)" opacity="0.0022676862" stroke="rgb(0, 0, 0)" stroke-opacity="1.0" stroke-linecap="round" stroke-linejoin="round"/>
    <path d="M 284.0208435058594 334.0205383300781 C 264.4644470214844 393.0844421386719 259.2006530761719 340.0585632324219 305.28271484375 306.7373352050781 C 302.8478698730469 316.39752197265625 291.6986083984375 325.7273254394531 262.88616943359375 315.4443054199219 C 244.79124450683594 285.0066833496094 248.2730255126953 247.30453491210938 322.9320983886719 278.5000305175781 C 303.2181091308594 317.07733154296875 357.2901306152344 308.8430480957031 284.0208435058594 334.0205383300781" stroke-width="0.0" fill="rgb(144, 184, 142)" opacity="1.0" stroke="rgb(0, 0, 0)" stroke-opacity="1.0" stroke-linecap="round" stroke-linejoin="round"/>
    <path d="M 299.7705993652344 179.0320281982422 C 222.17796325683594 201.7509002685547 232.35975646972656 256.7598571777344 198.4653778076172 255.575439453125 C 181.1829376220703 131.74737548828125 203.9895477294922 103.65184020996094 183.3489990234375 109.33333587646484 C 181.1911163330078 85.51863861083984 202.0326385498047 65.60718536376953 155.47760009765625 83.7769775390625 C 205.03106689453125 81.99568176269531 261.330078125 93.226806640625 299.7705993652344 179.0320281982422" stroke-width="0.0" fill="rgb(245, 0, 37)" opacity="1.0" stroke="rgb(0, 0, 0)" stroke-opacity="1.0" stroke-linecap="round" stroke-linejoin="round"/>
    <path d="M 325.87640380859375 415.9790954589844 C 260.9725646972656 429.6012878417969 279.4539489746094 415.1958923339844 256.53167724609375 384.2868957519531 C 247.26055908203125 428.0744934082031 214.77891540527344 345.13885498046875 211.38446044921875 292.49957275390625 C 177.34226989746094 388.5869140625 305.21875 408.04327392578125 240.08375549316406 371.3541259765625 C 272.6202087402344 395.7969970703125 260.4363708496094 420.5741271972656 325.87640380859375 415.9790954589844" stroke-width="0.0" fill="rgb(233, 242, 132)" opacity="0.9337709" stroke="rgb(0, 0, 0)" stroke-opacity="1.0" stroke-linecap="round" stroke-linejoin="round"/>
    <path d="M 143.66302490234375 239.49603271484375 C 154.58309936523438 250.54644775390625 181.2125244140625 254.5162811279297 189.06787109375 350.710693359375 C 96.39198303222656 389.15234375 113.25760650634766 318.3416442871094 92.16357421875 290.1419677734375 C 84.6192398071289 150.94024658203125 31.33836555480957 180.68838500976562 117.29754638671875 111.01464080810547 C 193.21702575683594 161.56210327148438 148.8018341064453 320.9914855957031 143.66302490234375 239.49603271484375" stroke-width="0.0" fill="rgb(254, 251, 136)" opacity="0.02456647" stroke="rgb(0, 0, 0)" stroke-opacity="1.0" stroke-linecap="round" stroke-linejoin="round"/>
    <path d="M 212.1658477783203 129.01455688476562 C 211.62437438964844 123.28582000732422 211.35731506347656 136.88475036621094 193.03457641601562 180.60040283203125 C 140.72389221191406 146.880859375 137.06105041503906 114.12953186035156 165.69862365722656 95.80803680419922 C 168.34068298339844 107.06922149658203 178.99945068359375 115.72808074951172 141.64913940429688 99.49107360839844 C 183.52835083007812 82.86061096191406 198.9886474609375 102.0442123413086 212.1658477783203 129.01455688476562" stroke-width="0.0" fill="rgb(193, 3, 37)" opacity="0.9569944" stroke="rgb(0, 0, 0)" stroke-opacity="1.0" stroke-linecap="round" stroke-linejoin="round"/>
    <path d="M 426.03656005859375 301.8769836425781 C 427.77008056640625 270.1734924316406 429.4577331542969 297.6243591308594 429.2090148925781 321.4532775878906 C 385.793212890625 317.28082275390625 381.1612243652344 323.47265625 392.6296081542969 268.59295654296875 C 348.7616271972656 236.98045349121094 397.2165222167969 231.0548858642578 414.19024658203125 262.110107421875 C 418.8709411621094 270.863525390625 421.95458984375 282.4578857421875 426.03656005859375 301.8769836425781" stroke-width="0.0" fill="rgb(14, 146, 102)" opacity="0.9129543" stroke="rgb(0, 0, 0)" stroke-opacity="1.0" stroke-linecap="round" stroke-linejoin="round"/>
    <path d="M 267.4389953613281 423.77825927734375 C 223.20228576660156 397.6236877441406 225.5126953125 386.7005920410156 271.5001525878906 419.6633605957031 C 272.1836242675781 392.248779296875 256.7682189941406 374.4535827636719 232.67298889160156 362.5886535644531 C 230.36964416503906 355.690185546875 222.61769104003906 386.54144287109375 249.66122436523438 394.28948974609375 C 281.003173828125 414.2135314941406 283.01116943359375 422.84515380859375 267.4389953613281 423.77825927734375" stroke-width="0.0" fill="rgb(223, 232, 118)" opacity="0.84195626" stroke="rgb(0, 0, 0)" stroke-opacity="1.0" stroke-linecap="round" stroke-linejoin="round"/>
    <path d="M 374.46142578125 271.1539611816406 C 342.05322265625 238.06631469726562 313.5857849121094 257.5486755371094 320.9916076660156 287.5225524902344 C 307.10137939453125 281.4686584472656 266.580810546875 263.2312927246094 314.38787841796875 249.2947235107422 C 299.44451904296875 223.15438842773438 330.20635986328125 207.4124755859375 347.7433776855469 242.13742065429688 C 373.2205505371094 219.64166259765625 397.7090759277344 231.55897521972656 374.46142578125 271.1539611816406" stroke-width="0.0" fill="rgb(255, 22, 0)" opacity="1.0" stroke="rgb(0, 0, 0)" stroke-opacity="1.0" stroke-linecap="round" stroke-linejoin="round"/>
    <path d="M 190.83407592773438 283.1580505371094 C 188.20213317871094 316.02984619140625 173.39749145507812 294.7592468261719 149.7749481201172 283.12188720703125 C 154.62001037597656 286.12890625 153.55654907226562 284.6639404296875 158.99319458007812 277.3873291015625 C 174.7201385498047 286.1998596191406 208.01284790039062 285.8921813964844 192.42860412597656 287.79754638671875 C 199.76611328125 285.3742980957031 198.6505126953125 293.9342041015625 190.83407592773438 283.1580505371094" stroke-width="0.0" fill="rgb(5, 33, 0)" opacity="0.0" stroke="rgb(0, 0, 0)" stroke-opacity="1.0" stroke-linecap="round" stroke-linejoin="round"/>
    <path d="M 306.2726135253906 427.6595764160156 C 293.42462158203125 415.6609191894531 314.6683044433594 452.0982971191406 283.968505859375 454.9051818847656 C 261.2922058105469 426.199951171875 271.500732421875 410.5802917480469 292.9012451171875 415.5877990722656 C 290.8551025390625 392.8694152832031 282.33154296875 378.81085205078125 284.0927734375 358.8729553222656 C 300.3067321777344 373.8171691894531 302.7402648925781 391.8915710449219 306.2726135253906 427.6595764160156" stroke-width="0.0" fill="rgb(170, 187, 93)" opacity="0.0" stroke="rgb(0, 0, 0)" stroke-opacity="1.0" stroke-linecap="round" stroke-linejoin="round"/>
    <path d="M 387.3924865722656 410.00494384765625 C 397.5143127441406 397.0914306640625 393.2583312988281 426.66888427734375 389.2727355957031 424.7638244628906 C 406.6379089355469 395.63714599609375 360.6130065917969 415.814208984375 354.5860290527344 391.5614929199219 C 374.6196594238281 367.58135986328125 364.5012512207031 333.48394775390625 394.65435791015625 352.66143798828125 C 401.5559997558594 375.3429870605469 407.52325439453125 398.5549621582031 387.3924865722656 410.00494384765625" stroke-width="0.0" fill="rgb(255, 255, 29)" opacity="0.26815134" stroke="rgb(0, 0, 0)" stroke-opacity="1.0" stroke-linecap="round" stroke-linejoin="round"/>
    <path d="M 416.0013427734375 36.4924430847168 C 418.771240234375 72.55453491210938 401.34918212890625 64.78617095947266 336.34161376953125 56.13496017456055 C 338.554931640625 26.7418212890625 312.5965881347656 26.261146545410156 315.2483825683594 21.285572052001953 C 366.7257080078125 43.9228515625 348.44525146484375 28.00194549560547 333.8399963378906 16.878276824951172 C 310.5185241699219 26.69419288635254 324.8078918457031 31.698989868164062 416.0013427734375 36.4924430847168" stroke-width="0.0" fill="rgb(162, 50, 37)" opacity="0.015610129" stroke="rgb(0, 0, 0)" stroke-opacity="1.0" stroke-linecap="round" stroke-linejoin="round"/>
    <path d="M 133.64430236816406 167.25477600097656 C 113.23164367675781 189.06594848632812 109.84583282470703 183.64944458007812 102.23015594482422 197.17794799804688 C 67.35726165771484 208.64622497558594 48.07372283935547 192.50408935546875 61.232479095458984 157.82379150390625 C 67.04301452636719 149.74993896484375 81.46508026123047 139.72933959960938 94.38541412353516 133.5728759765625 C 119.07906341552734 127.7362289428711 145.7823944091797 135.16810607910156 133.64430236816406 167.25477600097656" stroke-width="0.0" fill="rgb(217, 215, 180)" opacity="0.9592965" stroke="rgb(0, 0, 0)" stroke-opacity="1.0" stroke-linecap="round" stroke-linejoin="round"/>
    <path d="M 410.72442626953125 333.3892517089844 C 394.1868591308594 322.55767822265625 395.32623291015625 311.78399658203125 389.88726806640625 332.5740661621094 C 393.468994140625 338.0444030761719 388.5957946777344 320.3489685058594 365.727783203125 304.93328857421875 C 368.68939208984375 287.43316650390625 394.8475341796875 272.7330017089844 393.328369140625 281.038818359375 C 415.651123046875 307.9812316894531 414.4388732910156 328.2509765625 410.72442626953125 333.3892517089844" stroke-width="0.0" fill="rgb(214, 250, 134)" opacity="1.0" stroke="rgb(0, 0, 0)" stroke-opacity="1.0" stroke-linecap="round" stroke-linejoin="round"/>
    <path d="M 301.1102600097656 441.1001892089844 C 281.6185607910156 416.5884704589844 278.6737060546875 417.04205322265625 287.6679992675781 444.5165100097656 C 261.9477233886719 445.1368103027344 266.042724609375 455.37420654296875 265.98187255859375 413.1127014160156 C 295.5135192871094 400.98858642578125 288.8633117675781 402.9010925292969 284.1043701171875 418.5299377441406 C 307.1126403808594 395.96197509765625 310.1202087402344 421.51666259765625 301.1102600097656 441.1001892089844" stroke-width="0.0" fill="rgb(129, 223, 52)" opacity="0.032350257" stroke="rgb(0, 0, 0)" stroke-opacity="1.0" stroke-linecap="round" stroke-linejoin="round"/>
    <path d="M 256.8176574707031 276.40032958984375 C 277.5403747558594 294.4526062011719 265.6186828613281 341.5879821777344 224.50987243652344 353.5948791503906 C 226.6396484375 350.3472595214844 242.1352081298828 347.5906982421875 247.2113494873047 308.8170166015625 C 216.78439331054688 282.5881042480469 213.71888732910156 276.0571594238281 229.189697265625 289.96026611328125 C 220.6862030029297 269.2779541015625 233.7680206298828 267.79486083984375 256.8176574707031 276.40032958984375" stroke-width="0.0" fill="rgb(164, 184, 97)" opacity="0.94693005" stroke="rgb(0, 0, 0)" stroke-opacity="1.0" stroke-linecap="round" stroke-linejoin="round"/>
    <path d="M 200.9471893310547 346.5107421875 C 211.61553955078125 362.7470703125 178.74546813964844 351.7590637207031 157.1040496826172 347.4427795410156 C 151.95774841308594 355.1959533691406 139.44491577148438 347.68798828125 134.0516357421875 364.27520751953125 C 152.2156524658203 388.0078430175781 180.73028564453125 380.0191650390625 196.713623046875 363.64239501953125 C 182.15875244140625 314.8055725097656 189.71047973632812 320.57196044921875 200.9471893310547 346.5107421875" stroke-width="0.0" fill="rgb(253, 255, 58)" opacity="0.15449437" stroke="rgb(0, 0, 0)" stroke-opacity="1.0" stroke-linecap="round" stroke-linejoin="round"/>
    <path d="M 407.7913818359375 137.20298767089844 C 408.7236022949219 105.87823486328125 408.9698791503906 144.00233459472656 406.9784240722656 160.62054443359375 C 382.03961181640625 149.68185424804688 397.18218994140625 142.31808471679688 408.55242919921875 139.8850555419922 C 407.6971130371094 150.62969970703125 411.3055725097656 157.32411193847656 459.046875 160.86123657226562 C 459.6389465332031 128.69520568847656 452.27911376953125 146.21566772460938 407.7913818359375 137.20298767089844" stroke-width="0.0" fill="rgb(237, 50, 7)" opacity="0.014922442" stroke="rgb(0, 0, 0)" stroke-opacity="1.0" stroke-linecap="round" stroke-linejoin="round"/>
    <path d="M 103.67991638183594 524.450927734375 C 74.39269256591797 501.50244140625 84.82170104980469 487.6694641113281 93.81645965576172 512.0326538085938 C 38.72254943847656 527.2789916992188 47.83332824707031 535.627197265625 29.01688575744629 407.4708251953125 C 48.736019134521484 391.38824462890625 55.62835693359375 443.1813049316406 69.38475036621094 441.6018981933594 C 99.5245590209961 459.1329345703125 106.91770935058594 458.6588439941406 103.67991638183594 524.450927734375" stroke-width="0.0" fill="rgb(240, 32, 39)" opacity="0.06781141" stroke="rgb(0, 0, 0)" stroke-opacity="1.0" stroke-linecap="round" stroke-linejoin="round"/>
    <path d="M 101.39395904541016 137.67813110351562 C 83.73331451416016 144.61314392089844 75.5264663696289 139.1617431640625 61.32440948486328 115.58930206298828 C 70.87132263183594 127.62775421142578 67.73831176757812 136.20423889160156 89.5849838256836 135.2705841064453 C 75.59721374511719 122.92522430419922 81.47655487060547 136.89183044433594 87.53485107421875 125.26154327392578 C 67.01862335205078 138.47085571289062 74.33187103271484 147.24639892578125 101.39395904541016 137.67813110351562" stroke-width="0.0" fill="rgb(243, 250, 191)" opacity="0.0" stroke="rgb(0, 0, 0)" stroke-opacity="1.0" stroke-linecap="round" stroke-linejoin="round"/>
    <path d="M 343.80474853515625 92.20064544677734 C 345.39288330078125 128.54757690429688 350.59490966796875 128.18942260742188 345.75732421875 83.01229858398438 C 341.36798095703125 80.50782012939453 342.4465637207031 82.24129486083984 317.80084228515625 83.50072479248047 C 317.37457275390625 105.20889282226562 326.0760192871094 99.487548828125 350.7820129394531 99.67173767089844 C 351.09722900390625 89.3211441040039 338.8307800292969 98.91608428955078 343.80474853515625 92.20064544677734" stroke-width="0.0" fill="rgb(222, 16, 20)" opacity="0.043992925" stroke="rgb(0, 0, 0)" stroke-opacity="1.0" stroke-linecap="round" stroke-linejoin="round"/>
    <path d="M 470.3592834472656 489.40380859375 C 483.9542236328125 512.7313232421875 485.1101989746094 539.9151000976562 415.6056213378906 553.4730224609375 C 394.3038635253906 515.3084106445312 395.3533935546875 500.52197265625 424.6632995605469 508.9026794433594 C 418.2344665527344 512.6183471679688 416.060791015625 455.4156799316406 442.5281066894531 470.5375061035156 C 476.9562683105469 478.7414855957031 469.5855712890625 471.41607666015625 470.3592834472656 489.40380859375" stroke-width="0.0" fill="rgb(176, 57, 16)" opacity="0.061613712" stroke="rgb(0, 0, 0)" stroke-opacity="1.0" stroke-linecap="round" stroke-linejoin="round"/>
    <path d="M 459.36871337890625 -31.627227783203125 C 468.9264221191406 -13.367606163024902 470.99560546875 18.31637954711914 450.58551025390625 57.23176574707031 C 424.8585510253906 47.089996337890625 415.72161865234375 27.726177215576172 409.8643798828125 8.625885009765625 C 471.0796203613281 11.959178924560547 489.10040283203125 25.993738174438477 482.78839111328125 9.203271865844727 C 448.5857849121094 -1.8588358163833618 455.05072021484375 1.646414875984192 459.36871337890625 -31.627227783203125" stroke-width="0.0" fill="rgb(164, 55, 26)" opacity="0.0058729723" stroke="rgb(0, 0, 0)" stroke-opacity="1.0" stroke-linecap="round" stroke-linejoin="round"/>
    <path d="M 519.7949829101562 20.800369262695312 C 498.1159973144531 75.25348663330078 501.00543212890625 102.26220703125 502.9950866699219 50.543643951416016 C 452.250244140625 66.39462280273438 474.1342468261719 50.34727478027344 467.99267578125 23.838010787963867 C 465.70025634765625 8.961780548095703 444.26483154296875 18.01124382019043 435.9292907714844 9.803135871887207 C 513.9617309570312 4.148772239685059 527.0206298828125 5.796482086181641 519.7949829101562 20.800369262695312" stroke-width="0.0" fill="rgb(187, 44, 51)" opacity="0.025290892" stroke="rgb(0, 0, 0)" stroke-opacity="1.0" stroke-linecap="round" stroke-linejoin="round"/>
    <path d="M 39.87556457519531 319.76153564453125 C 38.6771354675293 325.3322448730469 40.13088607788086 347.5435791015625 44.26722717285156 375.1310729980469 C 2.503527879714966 378.7313232421875 -16.486736297607422 364.8116760253906 -17.174768447875977 336.4620361328125 C -20.371244430541992 308.3153076171875 -13.004590034484863 290.0066223144531 44.98952102661133 291.8670349121094 C 36.12864303588867 303.7587890625 48.96681594848633 318.157470703125 39.87556457519531 319.76153564453125" stroke-width="0.0" fill="rgb(198, 27, 28)" opacity="0.027281793" stroke="rgb(0, 0, 0)" stroke-opacity="1.0" stroke-linecap="round" stroke-linejoin="round"/>
    <path d="M 201.64004516601562 463.3065490722656 C 201.82571411132812 465.3385009765625 203.33761596679688 495.511474609375 192.4433135986328 479.4361267089844 C 195.93528747558594 467.78973388671875 187.61163330078125 444.78399658203125 181.00811767578125 435.3527526855469 C 224.23300170898438 460.005126953125 225.17300415039062 461.44415283203125 203.02374267578125 475.280029296875 C 193.31622314453125 461.38824462890625 211.57144165039062 470.6932678222656 201.64004516601562 463.3065490722656" stroke-width="0.0" fill="rgb(55, 42, 0)" opacity="0.0" stroke="rgb(0, 0, 0)" stroke-opacity="1.0" stroke-linecap="round" stroke-linejoin="round"/>
    <path d="M 20.17974090576172 366.4671936035156 C 33.79970169067383 371.7787780761719 24.364013671875 390.6814270019531 42.514461517333984 390.14892578125 C 20.2565975189209 382.987548828125 -1.8784185647964478 389.11431884765625 -3.3044610023498535 392.69000244140625 C 2.228851556777954 343.1321105957031 -6.154551982879639 356.304931640625 17.31041145324707 349.4707336425781 C 44.753170013427734 337.4592590332031 43.880699157714844 373.3606872558594 20.17974090576172 366.4671936035156" stroke-width="0.0" fill="rgb(192, 56, 21)" opacity="0.012131901" stroke="rgb(0, 0, 0)" stroke-opacity="1.0" stroke-linecap="round" stroke-linejoin="round"/>
    <path d="M 188.94261169433594 461.9072265625 C 150.26905822753906 452.48291015625 171.1042938232422 481.4950866699219 183.8653564453125 461.1793212890625 C 176.97137451171875 460.6042175292969 171.89622497558594 444.9448547363281 173.9718475341797 428.18157958984375 C 169.83612060546875 437.2555847167969 162.7407684326172 434.8175048828125 186.02796936035156 417.72845458984375 C 202.87240600585938 417.3001708984375 204.57843017578125 435.54815673828125 188.94261169433594 461.9072265625" stroke-width="0.0" fill="rgb(111, 36, 85)" opacity="0.0" stroke="rgb(0, 0, 0)" stroke-opacity="1.0" stroke-linecap="round" stroke-linejoin="round"/>
    <path d="M 348.6746826171875 227.21514892578125 C 373.4234313964844 220.09532165527344 366.796875 204.0319366455078 347.3670654296875 221.55177307128906 C 371.1287536621094 255.20111083984375 354.5482177734375 260.61761474609375 341.4605407714844 258.2091369628906 C 384.32879638671875 222.90301513671875 373.8156433105469 225.22100830078125 354.8455505371094 182.1161651611328 C 332.311767578125 215.51318359375 331.7114562988281 221.52662658691406 348.6746826171875 227.21514892578125" stroke-width="0.0" fill="rgb(11, 159, 15)" opacity="0.02877426" stroke="rgb(0, 0, 0)" stroke-opacity="1.0" stroke-linecap="round" stroke-linejoin="round"/>
    <path d="M 186.13890075683594 231.847900390625 C 184.97885131835938 235.5386962890625 153.99607849121094 231.98741149902344 158.6538848876953 242.91624450683594 C 163.08786010742188 256.99810791015625 171.46380615234375 267.2447204589844 162.6348419189453 290.8286437988281 C 180.8389434814453 306.87738037109375 188.62820434570312 296.5413818359375 197.9325714111328 271.1051940917969 C 193.7066192626953 216.3197021484375 180.53839111328125 239.47653198242188 186.13890075683594 231.847900390625" stroke-width="0.0" fill="rgb(143, 251, 66)" opacity="0.34231806" stroke="rgb(0, 0, 0)" stroke-opacity="1.0" stroke-linecap="round" stroke-linejoin="round"/>
    <path d="M 171.5111083984375 447.2682800292969 C 174.791748046875 438.3857116699219 169.93560791015625 424.05889892578125 167.81439208984375 435.5096435546875 C 150.43392944335938 458.2075500488281 143.92117309570312 444.955810546875 154.55752563476562 438.2227478027344 C 159.25167846679688 431.8645324707031 176.79718017578125 428.1106262207031 193.728515625 444.05517578125 C 173.96401977539062 445.9298095703125 171.99839782714844 460.9635009765625 171.5111083984375 447.2682800292969" stroke-width="0.0" fill="rgb(47, 37, 0)" opacity="0.06290283" stroke="rgb(0, 0, 0)" stroke-opacity="1.0" stroke-linecap="round" stroke-linejoin="round"/>
    <path d="M 539.020751953125 215.5048065185547 C 512.4205932617188 249.76654052734375 510.5701599121094 255.21156311035156 513.58935546875 280.3940734863281 C 448.6480712890625 292.046142578125 454.0659484863281 269.80560302734375 438.3357238769531 225.53390502929688 C 452.309814453125 253.00192260742188 486.2925109863281 236.2993927001953 520.3844604492188 227.8042449951172 C 512.4183349609375 215.5833740234375 529.4426879882812 212.33946228027344 539.020751953125 215.5048065185547" stroke-width="0.0" fill="rgb(222, 1, 3)" opacity="0.07196493" stroke="rgb(0, 0, 0)" stroke-opacity="1.0" stroke-linecap="round" stroke-linejoin="round"/>
  </g>
</svg>
