<?xml version="1.0" ?>
<svg xmlns="http://www.w3.org/2000/svg" version="1.1" width="512" height="512">
  <defs/>
  <g>
    <path d="M 558.9524536132812 396.545166015625 C 547.8762817382812 517.3806762695312 549.523193359375 525.7646484375 342.5538635253906 571.1356811523438 C 280.5654602050781 575.3134155273438 269.434814453125 559.8875122070312 195.37835693359375 444.8930969238281 C 288.1249694824219 273.6262512207031 331.59014892578125 308.3528747558594 420.5098571777344 313.5643310546875 C 564.5172119140625 332.0372619628906 575.589599609375 327.3612365722656 558.9524536132812 396.545166015625" stroke-width="0.0" fill="rgb(250, 125, 44)" opacity="0.17106119" stroke="rgb(0, 0, 0)" stroke-opacity="1.0" stroke-linecap="round" stroke-linejoin="round"/>
    <path d="M 281.89892578125 315.0419616699219 C 216.79049682617188 398.13092041015625 236.52560424804688 451.5085144042969 234.25958251953125 550.3050537109375 C -51.20000076293945 524.0781860351562 -51.20000076293945 515.5620727539062 -70.88426971435547 386.1463928222656 C -54.58024597167969 172.07374572753906 -51.55750274658203 172.78126525878906 63.78022766113281 175.99171447753906 C 241.65859985351562 215.35057067871094 274.3907165527344 206.8029022216797 281.89892578125 315.0419616699219" stroke-width="0.0" fill="rgb(60, 77, 110)" opacity="0.8233672" stroke="rgb(0, 0, 0)" stroke-opacity="1.0" stroke-linecap="round" stroke-linejoin="round"/>
    <path d="M 256.6364440917969 -19.979719161987305 C 188.23721313476562 186.46734619140625 229.54132080078125 249.03765869140625 20.82798957824707 302.16094970703125 C -80.4219741821289 292.82196044921875 -48.132179260253906 233.6471405029297 -28.50135040283203 137.3339385986328 C -15.812456130981445 -17.697975158691406 -9.716771125793457 -23.272192001342773 27.615015029907227 -17.582897186279297 C 195.79283142089844 -21.859926223754883 231.64715576171875 -39.381500244140625 256.6364440917969 -19.979719161987305" stroke-width="0.0" fill="rgb(30, 66, 160)" opacity="0.98945683" stroke="rgb(0, 0, 0)" stroke-opacity="1.0" stroke-linecap="round" stroke-linejoin="round"/>
    <path d="M 510.806396484375 69.15145111083984 C 425.1894226074219 257.8349304199219 410.9891357421875 256.6187744140625 319.2074890136719 274.23272705078125 C 279.0478820800781 328.7330322265625 328.0851745605469 297.951904296875 214.94259643554688 148.0223846435547 C 272.0403747558594 135.67416381835938 241.4526824951172 88.21720123291016 292.4339904785156 -34.654518127441406 C 546.1599731445312 -29.399320602416992 539.2554321289062 -14.08250617980957 510.806396484375 69.15145111083984" stroke-width="0.0" fill="rgb(67, 37, 100)" opacity="0.6732364" stroke="rgb(0, 0, 0)" stroke-opacity="1.0" stroke-linecap="round" stroke-linejoin="round"/>
    <path d="M 386.0592041015625 57.20654296875 C 201.82586669921875 240.79173278808594 219.7819061279297 273.8554992675781 190.7814178466797 217.11451721191406 C 52.942264556884766 238.89553833007812 101.53570556640625 267.8544616699219 45.407867431640625 181.7066192626953 C 29.182708740234375 94.73967742919922 90.27075958251953 135.8277130126953 282.4673156738281 9.823363304138184 C 360.96533203125 -0.4646149277687073 356.6316223144531 -23.46497917175293 386.0592041015625 57.20654296875" stroke-width="0.0" fill="rgb(26, 55, 184)" opacity="0.33849084" stroke="rgb(0, 0, 0)" stroke-opacity="1.0" stroke-linecap="round" stroke-linejoin="round"/>
    <path d="M 396.68280029296875 350.4703369140625 C 414.36297607421875 437.1783142089844 430.1305236816406 436.5456237792969 215.7847137451172 423.658203125 C 217.1085205078125 497.5374755859375 189.31971740722656 496.93280029296875 111.31887817382812 411.19964599609375 C 99.23796844482422 142.90028381347656 202.63186645507812 169.48594665527344 326.02508544921875 212.42648315429688 C 436.1372375488281 260.99383544921875 463.8979797363281 257.44329833984375 396.68280029296875 350.4703369140625" stroke-width="0.0" fill="rgb(110, 97, 136)" opacity="0.97868216" stroke="rgb(0, 0, 0)" stroke-opacity="1.0" stroke-linecap="round" stroke-linejoin="round"/>
    <path d="M 528.1458129882812 292.6536865234375 C 556.7791137695312 370.5429992675781 568.1716918945312 365.3907775878906 440.7303161621094 353.9053039550781 C 260.99542236328125 369.3236083984375 291.0808410644531 365.8855895996094 431.9539794921875 157.96470642089844 C 426.9163818359375 -2.717489242553711 247.54261779785156 -4.032452583312988 467.4828796386719 -28.4118595123291 C 560.0831298828125 45.03641891479492 567.3034057617188 76.59542846679688 528.1458129882812 292.6536865234375" stroke-width="0.0" fill="rgb(222, 105, 0)" opacity="1.0" stroke="rgb(0, 0, 0)" stroke-opacity="1.0" stroke-linecap="round" stroke-linejoin="round"/>
    <path d="M 333.967041015625 308.5762939453125 C 299.2127380371094 309.9932556152344 386.49273681640625 319.0157775878906 262.0183410644531 331.50518798828125 C 181.0721435546875 388.552978515625 154.32363891601562 324.0815124511719 243.29135131835938 220.88706970214844 C 226.1114501953125 218.52557373046875 85.68464660644531 232.84588623046875 282.0162658691406 226.0952911376953 C 336.6882629394531 124.33272552490234 395.22076416015625 187.81661987304688 333.967041015625 308.5762939453125" stroke-width="0.0" fill="rgb(250, 224, 243)" opacity="0.934665" stroke="rgb(0, 0, 0)" stroke-opacity="1.0" stroke-linecap="round" stroke-linejoin="round"/>
    <path d="M 464.1566467285156 177.4361114501953 C 419.6149597167969 271.89825439453125 331.7421569824219 205.1588897705078 382.83746337890625 260.7423400878906 C 371.5804138183594 213.67025756835938 287.93450927734375 199.7298126220703 350.17138671875 162.49269104003906 C 363.8917541503906 205.49073791503906 310.01953125 175.79881286621094 355.2347717285156 150.04287719726562 C 452.1416015625 21.714570999145508 459.53643798828125 -25.0859375 464.1566467285156 177.4361114501953" stroke-width="0.0" fill="rgb(254, 229, 230)" opacity="0.9850148" stroke="rgb(0, 0, 0)" stroke-opacity="1.0" stroke-linecap="round" stroke-linejoin="round"/>
    <path d="M 254.5939483642578 234.5820770263672 C 167.23086547851562 211.46640014648438 233.4442901611328 262.2605895996094 104.64888763427734 385.4117736816406 C 73.12919616699219 368.031982421875 182.5829620361328 275.81915283203125 176.74476623535156 240.57337951660156 C 187.16038513183594 227.0182342529297 167.1594696044922 235.1836395263672 195.96859741210938 218.00225830078125 C 365.9617919921875 204.11793518066406 268.3514709472656 181.742919921875 254.5939483642578 234.5820770263672" stroke-width="0.0" fill="rgb(255, 236, 219)" opacity="0.99978733" stroke="rgb(0, 0, 0)" stroke-opacity="1.0" stroke-linecap="round" stroke-linejoin="round"/>
    <path d="M 419.4543151855469 343.3330383300781 C 411.6299133300781 312.2834777832031 359.4582824707031 329.41656494140625 366.8884582519531 424.88458251953125 C 199.8477020263672 364.4057922363281 244.80482482910156 379.0119323730469 304.8109436035156 278.2867736816406 C 354.0763244628906 240.7663116455078 338.743408203125 180.2362823486328 439.7566833496094 101.65164184570312 C 566.119140625 173.64561462402344 398.234130859375 176.85838317871094 419.4543151855469 343.3330383300781" stroke-width="0.0" fill="rgb(194, 134, 0)" opacity="1.0" stroke="rgb(0, 0, 0)" stroke-opacity="1.0" stroke-linecap="round" stroke-linejoin="round"/>
    <path d="M 238.7263641357422 347.3882141113281 C 237.1605224609375 414.85845947265625 200.67149353027344 424.320068359375 205.62213134765625 433.144287109375 C 86.75101470947266 443.80609130859375 86.70314025878906 437.3534851074219 79.40714263916016 364.1259765625 C 133.99688720703125 384.0531921386719 157.95877075195312 388.6663513183594 191.4890594482422 309.67803955078125 C 243.9298553466797 225.5517120361328 234.95570373535156 200.57464599609375 238.7263641357422 347.3882141113281" stroke-width="0.0" fill="rgb(255, 238, 248)" opacity="0.9882966" stroke="rgb(0, 0, 0)" stroke-opacity="1.0" stroke-linecap="round" stroke-linejoin="round"/>
    <path d="M 546.86767578125 33.58624267578125 C 546.8214111328125 101.14716339111328 563.2000122070312 131.33303833007812 534.142578125 129.82257080078125 C 395.48968505859375 82.0150146484375 454.0338439941406 13.77918815612793 310.8577575683594 110.26240539550781 C 285.12841796875 0.3184640407562256 366.2542724609375 -4.198470115661621 442.3785705566406 -10.716680526733398 C 529.8931274414062 -22.857311248779297 529.81494140625 -14.121102333068848 546.86767578125 33.58624267578125" stroke-width="0.0" fill="rgb(28, 62, 186)" opacity="0.99009013" stroke="rgb(0, 0, 0)" stroke-opacity="1.0" stroke-linecap="round" stroke-linejoin="round"/>
    <path d="M 378.4447326660156 427.7524719238281 C 345.7607727050781 438.68603515625 304.4781188964844 425.6283874511719 269.5590515136719 436.2633972167969 C 238.18167114257812 429.88079833984375 194.26556396484375 429.6558837890625 167.02464294433594 423.98052978515625 C 205.82119750976562 368.7251892089844 216.05230712890625 330.4635314941406 249.381103515625 347.9854431152344 C 278.7496032714844 391.0400695800781 300.54779052734375 411.5201416015625 378.4447326660156 427.7524719238281" stroke-width="0.0" fill="rgb(52, 189, 0)" opacity="0.98336434" stroke="rgb(0, 0, 0)" stroke-opacity="1.0" stroke-linecap="round" stroke-linejoin="round"/>
    <path d="M 246.4580535888672 234.99417114257812 C 237.19393920898438 178.87791442871094 237.98825073242188 243.7773895263672 163.75799560546875 355.8243713378906 C 42.428550720214844 457.5608825683594 186.3293914794922 290.9739990234375 185.38548278808594 263.4760437011719 C 259.3313903808594 196.73104858398438 187.38121032714844 228.4554443359375 239.3251953125 214.54820251464844 C 280.6098937988281 219.00213623046875 266.0242614746094 208.74774169921875 246.4580535888672 234.99417114257812" stroke-width="0.0" fill="rgb(0, 48, 131)" opacity="0.55008304" stroke="rgb(0, 0, 0)" stroke-opacity="1.0" stroke-linecap="round" stroke-linejoin="round"/>
    <path d="M 385.6896667480469 7.318167686462402 C 309.72747802734375 137.24044799804688 295.6379089355469 174.2632293701172 229.4085693359375 113.05689239501953 C 173.32479858398438 45.57075119018555 183.83763122558594 120.8805923461914 166.61940002441406 90.70851135253906 C 173.69618225097656 17.489713668823242 198.17111206054688 27.066556930541992 194.79811096191406 6.043013095855713 C 204.1673126220703 -36.005332946777344 250.56703186035156 -62.20996856689453 385.6896667480469 7.318167686462402" stroke-width="0.0" fill="rgb(34, 68, 149)" opacity="0.9834612" stroke="rgb(0, 0, 0)" stroke-opacity="1.0" stroke-linecap="round" stroke-linejoin="round"/>
    <path d="M 59.15724563598633 458.9243469238281 C 21.409326553344727 470.2670593261719 26.138948440551758 474.341796875 27.983118057250977 452.275390625 C -13.71709156036377 450.112060546875 -8.733382225036621 434.09222412109375 -3.958415985107422 399.354248046875 C -5.200255870819092 355.4156188964844 -28.256837844848633 318.9715270996094 41.78330993652344 285.1159973144531 C 106.1069564819336 300.185302734375 65.30831146240234 325.8577575683594 59.15724563598633 458.9243469238281" stroke-width="0.0" fill="rgb(107, 128, 2)" opacity="0.97071385" stroke="rgb(0, 0, 0)" stroke-opacity="1.0" stroke-linecap="round" stroke-linejoin="round"/>
    <path d="M 363.0796203613281 92.11414337158203 C 350.0054016113281 99.99346923828125 312.2108154296875 151.57545471191406 259.9712829589844 194.73680114746094 C 179.5684051513672 119.0557861328125 52.002864837646484 400.9205322265625 229.80569458007812 130.9262237548828 C 351.057861328125 143.82322692871094 247.5851593017578 127.72493743896484 331.9886779785156 81.46638488769531 C 367.04241943359375 84.77596282958984 370.4861755371094 70.16047668457031 363.0796203613281 92.11414337158203" stroke-width="0.0" fill="rgb(92, 168, 17)" opacity="0.9993056" stroke="rgb(0, 0, 0)" stroke-opacity="1.0" stroke-linecap="round" stroke-linejoin="round"/>
    <path d="M 357.6054382324219 262.9926452636719 C 290.8794860839844 187.80384826660156 244.9310760498047 299.8935241699219 239.3900604248047 336.7766418457031 C 278.7161865234375 325.9637145996094 245.75857543945312 294.2126770019531 206.85447692871094 320.2078552246094 C 164.29542541503906 470.2408142089844 216.67823791503906 403.3844299316406 294.12554931640625 381.2832946777344 C 259.6217956542969 327.65716552734375 239.48580932617188 348.5426940917969 357.6054382324219 262.9926452636719" stroke-width="0.0" fill="rgb(80, 195, 17)" opacity="1.0" stroke="rgb(0, 0, 0)" stroke-opacity="1.0" stroke-linecap="round" stroke-linejoin="round"/>
    <path d="M 389.7062683105469 164.2089080810547 C 369.92462158203125 117.55528259277344 366.0191345214844 148.7708740234375 361.1983642578125 175.05540466308594 C 372.8304748535156 158.99319458007812 361.4833984375 163.7314453125 347.7680969238281 176.3985595703125 C 350.8667297363281 192.07496643066406 359.12127685546875 134.63865661621094 348.1190490722656 179.56263732910156 C 343.675537109375 220.33425903320312 341.21026611328125 235.97291564941406 389.7062683105469 164.2089080810547" stroke-width="0.0" fill="rgb(244, 236, 226)" opacity="0.3323233" stroke="rgb(0, 0, 0)" stroke-opacity="1.0" stroke-linecap="round" stroke-linejoin="round"/>
    <path d="M 161.17018127441406 206.53260803222656 C 71.01494598388672 315.6513366699219 106.29918670654297 263.6285400390625 65.18431854248047 412.0522766113281 C 80.46986389160156 303.58746337890625 60.77910232543945 292.50225830078125 59.904109954833984 223.79371643066406 C 110.58208465576172 280.5527648925781 55.84457015991211 295.5765075683594 115.5662841796875 290.4610900878906 C 2.2660791873931885 213.12619018554688 264.921875 214.52540588378906 161.17018127441406 206.53260803222656" stroke-width="0.0" fill="rgb(179, 84, 95)" opacity="0.042598747" stroke="rgb(0, 0, 0)" stroke-opacity="1.0" stroke-linecap="round" stroke-linejoin="round"/>
    <path d="M 302.2146911621094 233.9193115234375 C 283.7213134765625 251.91329956054688 249.48654174804688 265.9053955078125 253.64309692382812 188.13079833984375 C 261.88397216796875 177.3507080078125 129.12730407714844 191.73831176757812 227.93011474609375 185.77577209472656 C 279.955322265625 196.55470275878906 288.72906494140625 214.1309051513672 301.2809753417969 209.82154846191406 C 288.350830078125 203.5777130126953 285.07720947265625 191.2654266357422 302.2146911621094 233.9193115234375" stroke-width="0.0" fill="rgb(253, 233, 253)" opacity="0.945717" stroke="rgb(0, 0, 0)" stroke-opacity="1.0" stroke-linecap="round" stroke-linejoin="round"/>
    <path d="M 165.5519256591797 274.6697998046875 C 122.94328308105469 347.62841796875 111.490966796875 367.19866943359375 79.67030334472656 360.6166687011719 C 57.03737258911133 368.5029602050781 40.56869888305664 350.779052734375 59.07844543457031 314.3534240722656 C 57.93074035644531 291.4952392578125 80.12094116210938 260.8534851074219 83.14450073242188 260.1308898925781 C 64.82257843017578 293.36883544921875 93.10526275634766 268.6650390625 165.5519256591797 274.6697998046875" stroke-width="0.0" fill="rgb(52, 162, 27)" opacity="0.9595072" stroke="rgb(0, 0, 0)" stroke-opacity="1.0" stroke-linecap="round" stroke-linejoin="round"/>
    <path d="M 183.83619689941406 241.1559295654297 C 66.55142211914062 322.69354248046875 112.13591766357422 295.84527587890625 47.9441032409668 299.0933532714844 C 73.05451202392578 321.569091796875 58.02696990966797 318.95404052734375 72.15150451660156 321.3480224609375 C 67.78634643554688 286.01190185546875 20.02692222595215 284.9010314941406 95.97856903076172 213.05421447753906 C 166.56057739257812 215.80487060546875 198.38124084472656 186.95095825195312 183.83619689941406 241.1559295654297" stroke-width="0.0" fill="rgb(245, 106, 0)" opacity="0.98753" stroke="rgb(0, 0, 0)" stroke-opacity="1.0" stroke-linecap="round" stroke-linejoin="round"/>
    <path d="M 256.08294677734375 230.51583862304688 C 254.33462524414062 297.1755676269531 266.767578125 308.6462097167969 261.1604309082031 328.516845703125 C 244.35916137695312 281.1583557128906 248.1460723876953 244.33709716796875 235.49777221679688 250.26022338867188 C 241.41500854492188 234.0760955810547 246.78817749023438 223.3385467529297 274.6802978515625 215.18092346191406 C 238.97109985351562 208.5844268798828 253.29103088378906 232.71795654296875 256.08294677734375 230.51583862304688" stroke-width="0.0" fill="rgb(247, 207, 224)" opacity="0.094305046" stroke="rgb(0, 0, 0)" stroke-opacity="1.0" stroke-linecap="round" stroke-linejoin="round"/>
    <path d="M 260.4712829589844 135.83660888671875 C 240.5543975830078 204.1300506591797 320.90545654296875 200.70681762695312 185.82508850097656 202.80667114257812 C 212.75022888183594 279.54144287109375 69.21329498291016 263.73785400390625 210.3224334716797 173.50274658203125 C 204.90782165527344 83.62057495117188 241.20529174804688 123.91159057617188 224.36441040039062 111.84207916259766 C 217.3558349609375 90.9612808227539 253.64222717285156 112.06302642822266 260.4712829589844 135.83660888671875" stroke-width="0.0" fill="rgb(71, 176, 13)" opacity="0.98463136" stroke="rgb(0, 0, 0)" stroke-opacity="1.0" stroke-linecap="round" stroke-linejoin="round"/>
    <path d="M 304.5589904785156 229.33641052246094 C 313.7341613769531 190.10203552246094 260.101318359375 206.5425262451172 288.850830078125 218.11878967285156 C 279.0160827636719 247.4689178466797 287.0025939941406 205.16552734375 277.59600830078125 230.12014770507812 C 272.2409362792969 189.19552612304688 256.11138916015625 241.14553833007812 324.06243896484375 210.27822875976562 C 320.9341735839844 283.7687683105469 317.28521728515625 108.75028991699219 304.5589904785156 229.33641052246094" stroke-width="0.0" fill="rgb(245, 48, 50)" opacity="0.0027374905" stroke="rgb(0, 0, 0)" stroke-opacity="1.0" stroke-linecap="round" stroke-linejoin="round"/>
    <path d="M 261.2901306152344 405.71881103515625 C 269.69873046875 422.87969970703125 257.3443298339844 424.5798645019531 211.2069549560547 442.6943359375 C 240.17689514160156 454.80859375 210.5037841796875 471.7366638183594 87.10157012939453 452.3384094238281 C 238.83741760253906 425.7286376953125 274.31805419921875 419.4897155761719 262.1069030761719 422.84735107421875 C 234.7223663330078 438.26947021484375 241.33790588378906 432.4282531738281 261.2901306152344 405.71881103515625" stroke-width="0.0" fill="rgb(163, 50, 249)" opacity="0.05541955" stroke="rgb(0, 0, 0)" stroke-opacity="1.0" stroke-linecap="round" stroke-linejoin="round"/>
    <path d="M 165.80825805664062 196.51116943359375 C 230.90182495117188 166.08819580078125 220.26461791992188 200.98941040039062 205.22021484375 218.9465789794922 C 111.6335678100586 212.08367919921875 128.21923828125 213.19989013671875 147.2955780029297 210.4261016845703 C 164.16612243652344 190.32850646972656 164.90708923339844 204.66802978515625 154.66993713378906 180.6002197265625 C 123.46458435058594 161.8428497314453 103.28126525878906 152.21546936035156 165.80825805664062 196.51116943359375" stroke-width="0.0" fill="rgb(66, 149, 11)" opacity="0.39526618" stroke="rgb(0, 0, 0)" stroke-opacity="1.0" stroke-linecap="round" stroke-linejoin="round"/>
    <path d="M 93.32926940917969 300.5323791503906 C 108.88090515136719 302.0489807128906 89.3212890625 307.10687255859375 78.54749298095703 306.7755432128906 C 60.951358795166016 334.96728515625 44.19900131225586 301.4349060058594 58.27425765991211 292.7742004394531 C 67.35639190673828 302.9068908691406 102.50482177734375 305.1742858886719 81.58839416503906 299.2828063964844 C 99.04606628417969 297.16961669921875 100.53057098388672 300.2750244140625 93.32926940917969 300.5323791503906" stroke-width="0.0" fill="rgb(75, 123, 45)" opacity="0.7465521" stroke="rgb(0, 0, 0)" stroke-opacity="1.0" stroke-linecap="round" stroke-linejoin="round"/>
    <path d="M 262.1127014160156 430.9710388183594 C 298.30389404296875 426.058349609375 276.5272216796875 427.69085693359375 267.1919250488281 422.3242492675781 C 268.00054931640625 423.41448974609375 251.67543029785156 406.8036804199219 263.1726989746094 399.35174560546875 C 266.5291748046875 397.8125305175781 257.3227233886719 380.5686950683594 259.3479309082031 367.6141357421875 C 273.5467834472656 395.1705017089844 260.5232238769531 435.0687561035156 262.1127014160156 430.9710388183594" stroke-width="0.0" fill="rgb(29, 184, 68)" opacity="0.67700046" stroke="rgb(0, 0, 0)" stroke-opacity="1.0" stroke-linecap="round" stroke-linejoin="round"/>
    <path d="M 417.0368957519531 446.6716003417969 C 423.6357727050781 473.57794189453125 390.6518249511719 472.4468688964844 390.0127868652344 465.196533203125 C 381.0079345703125 470.2679748535156 358.4722595214844 471.4324645996094 360.85906982421875 447.2373962402344 C 386.6204833984375 431.6308288574219 373.20147705078125 414.2177734375 392.5916748046875 404.864013671875 C 444.50909423828125 396.9910888671875 436.0633850097656 402.3683166503906 417.0368957519531 446.6716003417969" stroke-width="0.0" fill="rgb(255, 224, 211)" opacity="0.0" stroke="rgb(0, 0, 0)" stroke-opacity="1.0" stroke-linecap="round" stroke-linejoin="round"/>
    <path d="M 292.2790832519531 395.8791198730469 C 309.2652893066406 413.92022705078125 308.2831115722656 417.75 237.27442932128906 423.2533264160156 C 211.09629821777344 421.9637451171875 213.74960327148438 416.8733825683594 220.58209228515625 382.6922607421875 C 229.75950622558594 356.92120361328125 240.22743225097656 337.4090270996094 285.09197998046875 332.6290588378906 C 294.6702575683594 360.813232421875 300.230224609375 364.734130859375 292.2790832519531 395.8791198730469" stroke-width="0.0" fill="rgb(80, 174, 38)" opacity="0.9360337" stroke="rgb(0, 0, 0)" stroke-opacity="1.0" stroke-linecap="round" stroke-linejoin="round"/>
    <path d="M 344.66229248046875 97.25519561767578 C 259.8599853515625 127.91297149658203 282.3704528808594 120.04961395263672 267.28656005859375 134.26194763183594 C 265.8392639160156 127.65200805664062 268.3711853027344 124.09232330322266 263.5895080566406 112.64021301269531 C 279.240234375 118.61933898925781 302.49273681640625 113.6355209350586 304.79010009765625 115.29885864257812 C 319.17681884765625 108.35247039794922 345.6802062988281 85.43058013916016 344.66229248046875 97.25519561767578" stroke-width="0.0" fill="rgb(88, 78, 147)" opacity="0.0" stroke="rgb(0, 0, 0)" stroke-opacity="1.0" stroke-linecap="round" stroke-linejoin="round"/>
    <path d="M 391.65252685546875 433.5641784667969 C 332.5099182128906 445.2305908203125 311.3411560058594 434.433349609375 303.0157470703125 428.641845703125 C 321.87030029296875 421.3583984375 321.96087646484375 401.3424987792969 299.81170654296875 416.7353515625 C 309.1988830566406 393.1799621582031 297.8752136230469 390.62567138671875 321.7093811035156 387.4657897949219 C 318.5086364746094 413.12884521484375 372.3134765625 404.8189697265625 391.65252685546875 433.5641784667969" stroke-width="0.0" fill="rgb(69, 124, 111)" opacity="0.89102674" stroke="rgb(0, 0, 0)" stroke-opacity="1.0" stroke-linecap="round" stroke-linejoin="round"/>
    <path d="M 395.8199768066406 32.69880676269531 C 451.7828369140625 87.83951568603516 381.149169921875 94.1750717163086 411.0484313964844 69.14998626708984 C 375.8429260253906 94.82167053222656 360.3877868652344 88.8274154663086 353.8204040527344 80.726806640625 C 355.0790710449219 33.462432861328125 341.9476013183594 46.49738311767578 372.232666015625 35.625213623046875 C 390.058349609375 66.98428344726562 366.88983154296875 77.4043197631836 395.8199768066406 32.69880676269531" stroke-width="0.0" fill="rgb(111, 113, 132)" opacity="1.0" stroke="rgb(0, 0, 0)" stroke-opacity="1.0" stroke-linecap="round" stroke-linejoin="round"/>
    <path d="M 58.785682678222656 474.4891662597656 C 57.53285598754883 493.7419738769531 64.92597198486328 516.6284790039062 67.17798614501953 509.76544189453125 C 58.89922332763672 478.09503173828125 38.33501434326172 480.8528137207031 15.083459854125977 483.7814025878906 C 18.179834365844727 473.5261535644531 36.733455657958984 442.9800109863281 33.15574264526367 431.0913391113281 C 78.30476379394531 445.4318542480469 78.63949584960938 462.80413818359375 58.785682678222656 474.4891662597656" stroke-width="0.0" fill="rgb(244, 99, 0)" opacity="1.0" stroke="rgb(0, 0, 0)" stroke-opacity="1.0" stroke-linecap="round" stroke-linejoin="round"/>
    <path d="M 195.1964569091797 361.6058044433594 C 192.64279174804688 369.5735168457031 181.16285705566406 393.97198486328125 175.81207275390625 413.1694030761719 C 175.7135009765625 398.6096496582031 184.00328063964844 371.1110534667969 145.677490234375 375.60223388671875 C 152.61087036132812 355.21649169921875 175.08287048339844 356.1358947753906 184.3076629638672 332.4148254394531 C 165.71426391601562 372.2261047363281 202.4290008544922 364.7862548828125 195.1964569091797 361.6058044433594" stroke-width="0.0" fill="rgb(252, 232, 237)" opacity="0.36392945" stroke="rgb(0, 0, 0)" stroke-opacity="1.0" stroke-linecap="round" stroke-linejoin="round"/>
    <path d="M 200.96495056152344 217.3211669921875 C 170.51841735839844 261.0568542480469 157.4857177734375 269.5289611816406 170.8694305419922 280.10626220703125 C 148.97946166992188 272.169921875 131.0241241455078 285.8746032714844 144.24981689453125 278.23931884765625 C 137.77308654785156 241.61029052734375 172.34561157226562 228.589599609375 171.7963409423828 217.83609008789062 C 199.97457885742188 218.8953094482422 213.89268493652344 242.51109313964844 200.96495056152344 217.3211669921875" stroke-width="0.0" fill="rgb(29, 144, 75)" opacity="0.81642187" stroke="rgb(0, 0, 0)" stroke-opacity="1.0" stroke-linecap="round" stroke-linejoin="round"/>
    <path d="M 29.394126892089844 444.6072082519531 C 31.30399513244629 458.5240783691406 41.17453384399414 479.8572082519531 31.87771987915039 513.2625122070312 C -11.231096267700195 516.8573608398438 -19.370819091796875 508.7378234863281 -21.174633026123047 489.4778747558594 C -16.856719970703125 446.6508483886719 -20.983936309814453 420.25579833984375 -8.697663307189941 429.7495422363281 C 29.500864028930664 424.22705078125 26.486587524414062 429.38897705078125 29.394126892089844 444.6072082519531" stroke-width="0.0" fill="rgb(121, 131, 5)" opacity="0.93362993" stroke="rgb(0, 0, 0)" stroke-opacity="1.0" stroke-linecap="round" stroke-linejoin="round"/>
    <path d="M 251.0845947265625 99.74343872070312 C 297.6634826660156 188.77273559570312 210.01573181152344 162.51388549804688 182.30836486816406 135.92581176757812 C 164.468017578125 112.86653900146484 178.68511962890625 85.89006805419922 167.29161071777344 69.78235626220703 C 166.38958740234375 73.51848602294922 208.19320678710938 66.28592681884766 194.90054321289062 75.54694366455078 C 188.8648223876953 70.51892852783203 225.90696716308594 62.734806060791016 251.0845947265625 99.74343872070312" stroke-width="0.0" fill="rgb(245, 93, 8)" opacity="0.97400594" stroke="rgb(0, 0, 0)" stroke-opacity="1.0" stroke-linecap="round" stroke-linejoin="round"/>
    <path d="M 261.1026611328125 465.3531799316406 C 258.65728759765625 451.4950866699219 220.0606231689453 432.4650573730469 217.66094970703125 449.54315185546875 C 236.2218780517578 474.43914794921875 215.30267333984375 461.3062438964844 158.9832000732422 419.639892578125 C 198.18594360351562 414.8608703613281 231.369384765625 440.8257141113281 245.6616973876953 460.6880187988281 C 252.24688720703125 440.8574523925781 245.1532440185547 442.3714294433594 261.1026611328125 465.3531799316406" stroke-width="0.0" fill="rgb(132, 21, 255)" opacity="0.0" stroke="rgb(0, 0, 0)" stroke-opacity="1.0" stroke-linecap="round" stroke-linejoin="round"/>
    <path d="M 375.0123596191406 474.1526184082031 C 359.1814880371094 492.0187072753906 324.8385314941406 479.449951171875 323.9627380371094 489.9884338378906 C 326.9588623046875 491.67376708984375 322.2506408691406 474.3616027832031 307.9844665527344 468.24127197265625 C 312.3246154785156 458.1592712402344 330.7559814453125 443.5282897949219 319.02069091796875 445.7735595703125 C 356.2033386230469 436.6643981933594 364.9532775878906 440.3390197753906 375.0123596191406 474.1526184082031" stroke-width="0.0" fill="rgb(255, 228, 160)" opacity="0.022648944" stroke="rgb(0, 0, 0)" stroke-opacity="1.0" stroke-linecap="round" stroke-linejoin="round"/>
    <path d="M 337.85400390625 233.93634033203125 C 328.5263366699219 225.1215362548828 334.22308349609375 236.73036193847656 312.6730651855469 242.67105102539062 C 310.14935302734375 262.0259094238281 306.388427734375 256.1963806152344 260.320068359375 237.52940368652344 C 302.0714416503906 220.4303436279297 319.6454772949219 211.4990692138672 336.49700927734375 176.91897583007812 C 322.39483642578125 212.87448120117188 343.3763122558594 217.55482482910156 337.85400390625 233.93634033203125" stroke-width="0.0" fill="rgb(253, 245, 233)" opacity="0.048196897" stroke="rgb(0, 0, 0)" stroke-opacity="1.0" stroke-linecap="round" stroke-linejoin="round"/>
    <path d="M 523.7756958007812 376.29400634765625 C 547.2815551757812 457.818603515625 558.1991577148438 506.5838317871094 482.3648681640625 498.3461608886719 C 436.304443359375 484.1533508300781 446.5933532714844 470.31036376953125 460.40289306640625 446.3699645996094 C 480.96759033203125 420.7661437988281 502.41778564453125 447.0310974121094 501.8828430175781 429.4106750488281 C 490.6117858886719 348.8830871582031 503.41009521484375 333.8310546875 523.7756958007812 376.29400634765625" stroke-width="0.0" fill="rgb(101, 174, 0)" opacity="1.0" stroke="rgb(0, 0, 0)" stroke-opacity="1.0" stroke-linecap="round" stroke-linejoin="round"/>
    <path d="M 189.61788940429688 413.9710998535156 C 188.1492462158203 463.5069274902344 174.8363800048828 488.3677062988281 179.8684539794922 431.754638671875 C 159.95692443847656 434.6799621582031 136.68824768066406 432.9813232421875 151.35723876953125 462.7455139160156 C 159.2922821044922 414.193603515625 176.1929931640625 414.3810729980469 181.97998046875 396.57489013671875 C 169.28517150878906 395.063720703125 191.993408203125 399.3789367675781 189.61788940429688 413.9710998535156" stroke-width="0.0" fill="rgb(239, 227, 34)" opacity="1.0" stroke="rgb(0, 0, 0)" stroke-opacity="1.0" stroke-linecap="round" stroke-linejoin="round"/>
    <path d="M 369.1288146972656 436.1949768066406 C 324.67431640625 447.2016906738281 335.3365783691406 483.8178405761719 330.0857849121094 454.21673583984375 C 264.62176513671875 455.2435302734375 250.52651977539062 437.70721435546875 275.6669921875 453.2229919433594 C 237.20652770996094 390.98583984375 258.0639953613281 377.40478515625 284.157958984375 378.16082763671875 C 294.3631286621094 404.4128112792969 369.5348815917969 392.57305908203125 369.1288146972656 436.1949768066406" stroke-width="0.0" fill="rgb(26, 136, 42)" opacity="0.792826" stroke="rgb(0, 0, 0)" stroke-opacity="1.0" stroke-linecap="round" stroke-linejoin="round"/>
    <path d="M 435.0830383300781 408.8209228515625 C 403.7594299316406 419.1010437011719 405.39105224609375 449.4923400878906 403.5877990722656 421.00286865234375 C 385.56317138671875 444.9524230957031 371.07763671875 446.1042785644531 377.4007873535156 409.4111633300781 C 394.1483154296875 392.0823059082031 430.7356262207031 386.1474609375 414.8159484863281 344.92431640625 C 443.3020935058594 342.4855041503906 451.40386962890625 334.8028869628906 435.0830383300781 408.8209228515625" stroke-width="0.0" fill="rgb(104, 111, 130)" opacity="0.9760436" stroke="rgb(0, 0, 0)" stroke-opacity="1.0" stroke-linecap="round" stroke-linejoin="round"/>
    <path d="M 382.19476318359375 376.7002258300781 C 381.5107727050781 457.2502136230469 367.8930358886719 472.1868591308594 357.2229919433594 436.3409729003906 C 274.7925720214844 454.567626953125 271.6661071777344 450.8518371582031 323.86541748046875 368.9440002441406 C 328.629150390625 353.95428466796875 343.7516174316406 345.6805725097656 366.15673828125 383.86566162109375 C 331.1238098144531 384.4179992675781 355.6197204589844 373.8102722167969 382.19476318359375 376.7002258300781" stroke-width="0.0" fill="rgb(39, 168, 28)" opacity="0.94168353" stroke="rgb(0, 0, 0)" stroke-opacity="1.0" stroke-linecap="round" stroke-linejoin="round"/>
    <path d="M 69.31719207763672 493.8148498535156 C 67.1373291015625 509.40997314453125 96.76846313476562 514.2971801757812 132.84349060058594 533.3341064453125 C 37.905029296875 584.903564453125 10.156257629394531 506.1154479980469 14.461461067199707 478.2119140625 C 12.786703109741211 447.9774169921875 25.74936866760254 452.5373229980469 66.77259063720703 493.5728454589844 C 56.00448989868164 475.23223876953125 66.11189270019531 463.9331970214844 69.31719207763672 493.8148498535156" stroke-width="0.0" fill="rgb(59, 133, 43)" opacity="0.89420885" stroke="rgb(0, 0, 0)" stroke-opacity="1.0" stroke-linecap="round" stroke-linejoin="round"/>
    <path d="M 102.95468139648438 356.18798828125 C 98.24685668945312 389.0886535644531 104.24192810058594 386.35595703125 93.15166473388672 378.6105041503906 C 86.760498046875 383.64532470703125 103.63580322265625 378.7462463378906 104.68937683105469 372.51190185546875 C 105.00764465332031 346.1368713378906 101.33499908447266 353.70074462890625 102.08763885498047 355.4692077636719 C 113.8322982788086 338.8002624511719 116.68363952636719 363.2709045410156 102.95468139648438 356.18798828125" stroke-width="0.0" fill="rgb(134, 115, 36)" opacity="0.3790156" stroke="rgb(0, 0, 0)" stroke-opacity="1.0" stroke-linecap="round" stroke-linejoin="round"/>
    <path d="M 108.84561157226562 455.10833740234375 C 100.35232543945312 439.3755798339844 101.36495971679688 418.49334716796875 94.62996673583984 426.9800109863281 C 89.57506561279297 419.6288757324219 73.60784912109375 447.36297607421875 94.39644622802734 386.31781005859375 C 68.04688262939453 391.3092041015625 50.36750793457031 424.724853515625 79.63520812988281 427.73895263671875 C 100.76493072509766 408.3175354003906 105.40471649169922 408.98529052734375 108.84561157226562 455.10833740234375" stroke-width="0.0" fill="rgb(91, 79, 138)" opacity="0.075006" stroke="rgb(0, 0, 0)" stroke-opacity="1.0" stroke-linecap="round" stroke-linejoin="round"/>
    <path d="M 460.0384521484375 41.38656997680664 C 470.5624084472656 128.48167419433594 452.4146728515625 105.63229370117188 422.9276428222656 71.1844253540039 C 401.7601013183594 95.79475402832031 418.4719543457031 128.26040649414062 411.540283203125 74.01898956298828 C 399.946533203125 26.778499603271484 422.1495361328125 30.480653762817383 420.0937194824219 53.26234817504883 C 414.67913818359375 37.431575775146484 467.3720397949219 37.571189880371094 460.0384521484375 41.38656997680664" stroke-width="0.0" fill="rgb(248, 229, 211)" opacity="0.9790651" stroke="rgb(0, 0, 0)" stroke-opacity="1.0" stroke-linecap="round" stroke-linejoin="round"/>
    <path d="M 125.44334411621094 164.85650634765625 C 118.08267974853516 180.2086944580078 102.99452209472656 183.39505004882812 68.38795471191406 180.40542602539062 C 79.1229019165039 145.32875061035156 59.5573844909668 147.09007263183594 40.78054428100586 147.92677307128906 C 62.301353454589844 134.34303283691406 55.34894561767578 132.89796447753906 49.36574935913086 149.9822540283203 C 82.06383514404297 148.9727020263672 99.74283599853516 153.469482421875 125.44334411621094 164.85650634765625" stroke-width="0.0" fill="rgb(61, 24, 235)" opacity="0.10445594" stroke="rgb(0, 0, 0)" stroke-opacity="1.0" stroke-linecap="round" stroke-linejoin="round"/>
    <path d="M 169.56832885742188 148.9230499267578 C 170.4534454345703 209.90245056152344 160.2812042236328 213.16856384277344 132.2985076904297 184.71206665039062 C 115.54531860351562 109.08169555664062 109.63655090332031 100.53890991210938 95.81906127929688 118.01158142089844 C 49.9698371887207 115.03974151611328 84.22754669189453 101.82868957519531 80.64380645751953 121.11017608642578 C 137.1329803466797 122.85482788085938 169.03878784179688 109.00714111328125 169.56832885742188 148.9230499267578" stroke-width="0.0" fill="rgb(31, 46, 143)" opacity="0.9586284" stroke="rgb(0, 0, 0)" stroke-opacity="1.0" stroke-linecap="round" stroke-linejoin="round"/>
    <path d="M 551.3458251953125 486.8208312988281 C 528.6057739257812 525.8793334960938 520.6664428710938 533.3271484375 374.18505859375 527.8076171875 C 364.2285461425781 505.8376159667969 380.5721740722656 493.01019287109375 416.1809997558594 467.6313781738281 C 446.6020812988281 453.00933837890625 443.6920166015625 483.81817626953125 499.4365234375 483.2770690917969 C 550.2147827148438 472.95404052734375 554.4404907226562 491.1142272949219 551.3458251953125 486.8208312988281" stroke-width="0.0" fill="rgb(82, 184, 2)" opacity="0.99699724" stroke="rgb(0, 0, 0)" stroke-opacity="1.0" stroke-linecap="round" stroke-linejoin="round"/>
    <path d="M 414.0445251464844 322.343505859375 C 444.1654968261719 336.9967956542969 398.6852111816406 339.86724853515625 398.59735107421875 340.77984619140625 C 387.17138671875 353.3354797363281 385.20806884765625 343.410888671875 390.7964172363281 320.0244445800781 C 381.1321105957031 306.7112121582031 385.8381652832031 311.0496826171875 426.6490783691406 327.46929931640625 C 434.8439025878906 334.91168212890625 419.3163146972656 311.1182861328125 414.0445251464844 322.343505859375" stroke-width="0.0" fill="rgb(193, 122, 1)" opacity="0.6602372" stroke="rgb(0, 0, 0)" stroke-opacity="1.0" stroke-linecap="round" stroke-linejoin="round"/>
    <path d="M 282.8435363769531 434.0898742675781 C 282.1188049316406 459.1874084472656 286.2796325683594 473.534912109375 273.490234375 466.8926086425781 C 274.31329345703125 446.8038024902344 280.9045104980469 422.8941650390625 261.13555908203125 428.938720703125 C 257.90447998046875 413.0559387207031 249.48875427246094 408.7596740722656 252.44325256347656 428.3274841308594 C 260.4908447265625 427.28094482421875 273.95440673828125 427.1787414550781 282.8435363769531 434.0898742675781" stroke-width="0.0" fill="rgb(37, 134, 114)" opacity="1.0" stroke="rgb(0, 0, 0)" stroke-opacity="1.0" stroke-linecap="round" stroke-linejoin="round"/>
    <path d="M 159.89181518554688 331.6603088378906 C 150.4099578857422 342.2633056640625 148.6220245361328 344.31805419921875 142.5299072265625 403.74114990234375 C 126.48046112060547 373.6495056152344 127.68619537353516 346.1887512207031 124.66263580322266 384.95880126953125 C 132.26641845703125 333.3749084472656 134.98741149902344 295.6961364746094 127.44807434082031 344.8114013671875 C 136.6656494140625 367.3609313964844 149.90145874023438 363.0321044921875 159.89181518554688 331.6603088378906" stroke-width="0.0" fill="rgb(125, 45, 165)" opacity="0.037899926" stroke="rgb(0, 0, 0)" stroke-opacity="1.0" stroke-linecap="round" stroke-linejoin="round"/>
    <path d="M 207.54368591308594 1.945942997932434 C 200.32220458984375 41.52216339111328 203.34335327148438 37.699886322021484 164.31358337402344 44.233375549316406 C 171.88101196289062 -11.713255882263184 172.78062438964844 -21.28145408630371 160.7299346923828 -14.458890914916992 C 131.3894805908203 -11.214644432067871 138.76681518554688 -17.933956146240234 179.14227294921875 -39.18061828613281 C 191.2749786376953 -43.564945220947266 189.71755981445312 -38.712100982666016 207.54368591308594 1.945942997932434" stroke-width="0.0" fill="rgb(33, 72, 154)" opacity="0.037405577" stroke="rgb(0, 0, 0)" stroke-opacity="1.0" stroke-linecap="round" stroke-linejoin="round"/>
    <path d="M 306.0920104980469 303.2675476074219 C 325.83856201171875 345.3371887207031 312.1412048339844 350.3494567871094 273.8525085449219 335.21490478515625 C 239.42132568359375 313.1200866699219 239.04788208007812 313.1223449707031 244.01150512695312 290.38934326171875 C 241.4657745361328 257.0148010253906 225.08584594726562 276.1385803222656 259.92938232421875 271.04376220703125 C 261.4569091796875 285.3125915527344 288.1885986328125 282.9517517089844 306.0920104980469 303.2675476074219" stroke-width="0.0" fill="rgb(225, 152, 0)" opacity="0.99269867" stroke="rgb(0, 0, 0)" stroke-opacity="1.0" stroke-linecap="round" stroke-linejoin="round"/>
    <path d="M 146.66998291015625 129.872314453125 C 134.02801513671875 188.04151916503906 109.62317657470703 156.99559020996094 81.0918197631836 146.9290008544922 C 61.56266784667969 125.51811981201172 57.844730377197266 108.15841674804688 65.47421264648438 110.03113555908203 C 59.74860763549805 120.24186706542969 57.4096565246582 118.10576629638672 62.72954559326172 49.29952621459961 C 87.09596252441406 61.8546257019043 147.581787109375 62.50230407714844 146.66998291015625 129.872314453125" stroke-width="0.0" fill="rgb(234, 126, 0)" opacity="0.9819095" stroke="rgb(0, 0, 0)" stroke-opacity="1.0" stroke-linecap="round" stroke-linejoin="round"/>
    <path d="M 443.21917724609375 164.21926879882812 C 436.1658935546875 149.9215087890625 440.6731872558594 136.6967315673828 435.6413879394531 168.3505096435547 C 403.6516418457031 169.27987670898438 406.9781799316406 181.66957092285156 413.12359619140625 159.33334350585938 C 415.9649353027344 156.6205596923828 445.8175048828125 154.0543670654297 422.46551513671875 153.42193603515625 C 420.0466003417969 139.12210083007812 430.01812744140625 142.45408630371094 443.21917724609375 164.21926879882812" stroke-width="0.0" fill="rgb(174, 142, 0)" opacity="0.7373529" stroke="rgb(0, 0, 0)" stroke-opacity="1.0" stroke-linecap="round" stroke-linejoin="round"/>
    <path d="M 72.95870971679688 480.78704833984375 C 71.70374298095703 505.1884765625 76.42003631591797 492.14605712890625 50.193092346191406 497.7952575683594 C 55.02676773071289 480.07135009765625 55.89215850830078 483.06463623046875 65.03018188476562 482.46624755859375 C 56.316654205322266 482.3673095703125 61.48997497558594 474.42156982421875 58.15513610839844 453.8152770996094 C 75.14340209960938 468.9975280761719 74.58303833007812 443.8052673339844 72.95870971679688 480.78704833984375" stroke-width="0.0" fill="rgb(131, 96, 94)" opacity="0.005985517" stroke="rgb(0, 0, 0)" stroke-opacity="1.0" stroke-linecap="round" stroke-linejoin="round"/>
  </g>
</svg>
